<svg width="40" height="40" viewBox="0 0 40 40" fill="none" xmlns="http://www.w3.org/2000/svg">
<g clip-path="url(#clip0_23296_3794)">
<path d="M40 0H0V40H40V0Z" fill="#01A88D" fill-opacity="0.12"/>
<path fill-rule="evenodd" clip-rule="evenodd" d="M13.016 9.001H14.016V8.001H13.016V9.001ZM11.016 9.001H12.016V8.001H11.016V9.001ZM9.016 9.001H10.016V8.001H9.016V9.001ZM21.019 20.183L21.964 20.511L19.863 26.566L18.918 26.238L21.019 20.183ZM17.376 21.058L18.087 21.762L16.538 23.324L18.056 24.883L17.339 25.58L15.479 23.669C15.288 23.474 15.29 23.162 15.482 22.968L17.376 21.058ZM25.566 22.968C25.757 23.162 25.759 23.474 25.569 23.669L23.708 25.58L22.991 24.883L24.509 23.323L22.961 21.762L23.672 21.058L25.566 22.968ZM29.016 25.502L27.292 26.364C27.123 26.449 27.016 26.622 27.016 26.811V29.846L22.956 32.344L21.016 31.235V29.001C21.016 28.724 20.792 28.501 20.516 28.501C20.239 28.501 20.016 28.724 20.016 29.001V31.235L18.075 32.344L14.016 29.846V26.811C14.016 26.622 13.908 26.449 13.739 26.364L12.016 25.502V21.37L13.819 19.996C13.943 19.902 14.016 19.755 14.016 19.598V16.768L17.734 14.6L20.016 15.874V18.001H21.016V15.874L23.298 14.6L27.016 16.768V19.598C27.016 19.755 27.089 19.902 27.213 19.996L29.016 21.37V25.502ZM28.016 19.351V16.481C28.016 16.303 27.921 16.138 27.768 16.049L23.556 13.592C23.402 13.503 23.214 13.501 23.06 13.588L20.529 15.001H20.503L17.972 13.588C17.817 13.501 17.629 13.504 17.476 13.592L13.264 16.049C13.111 16.138 13.016 16.303 13.016 16.481V19.351L11.213 20.724C11.089 20.819 11.016 20.966 11.016 21.122V25.811C11.016 26.001 11.123 26.174 11.292 26.259L13.016 27.12V30.125C13.016 30.299 13.106 30.46 13.254 30.551L17.804 33.351C17.96 33.447 18.155 33.45 18.314 33.359L20.516 32.101L22.718 33.359C22.795 33.403 22.88 33.4252 22.966 33.4252C23.057 33.4252 23.148 33.4 23.228 33.351L27.778 30.551C27.926 30.46 28.016 30.299 28.016 30.125V27.12L29.739 26.259C29.908 26.174 30.016 26.001 30.016 25.811V21.122C30.016 20.966 29.943 20.819 29.819 20.724L28.016 19.351ZM7.066 10.001L7.079 7L33.016 7.033L33.007 10.001H7.066ZM32.952 6H7.079C6.493 6 6.016 6.463 6.016 7.032L6 24.968C6 25.533 6.474 25.997 7.06 26.001L10.016 26V25L7 24.968L7.062 11.001H33.004L32.96 25.001H31.016V26.001H32.96C33.542 26.001 34.016 25.527 34.016 24.945V11.001V10.001V7.033C34.016 6.464 33.538 6 32.952 6Z" fill="#01A88D"/>
</g>
<rect x="0.5" y="0.5" width="39" height="39" stroke="#01A88D"/>
<defs>
<clipPath id="clip0_23296_3794">
<rect width="40" height="40" fill="white"/>
</clipPath>
</defs>
</svg>
