<?xml version="1.0" encoding="UTF-8"?><!DOCTYPE svg><svg xmlns="http://www.w3.org/2000/svg" version="1.1" id="Layer_1" xmlns="http://www.w3.org/2000/svg" xmlns:_xmlns="xmlns" _xmlns:xlink="http://www.w3.org/1999/xlink" x="0px" y="0px" viewBox="0 0 50 50" style="enable-background:new 0 0 50 50;" xml:space="preserve">
<style xmlns="http://www.w3.org/2000/svg" type="text/css">
        .st0{fill-rule:evenodd;clip-rule:evenodd;fill:#333333;}
</style>
<path xmlns="http://www.w3.org/2000/svg" class="st0" d="M25,0C11.2,0,0,11.5,0,25.6C0,37,7.2,46.6,17.1,50c1.3,0.2,1.7-0.6,1.7-1.2c0-0.6,0-2.2,0-4.4&#xA;        c-7,1.5-8.4-3.4-8.4-3.4c-1.1-3-2.8-3.8-2.8-3.8c-2.3-1.6,0.2-1.6,0.2-1.6c2.5,0.2,3.8,2.6,3.8,2.6c2.2,3.9,5.9,2.8,7.3,2.1&#xA;        c0.2-1.7,0.9-2.8,1.6-3.4C14.9,36.3,9,34.1,9,24.3c0-2.8,1-5.1,2.6-6.9c-0.3-0.6-1.1-3.3,0.2-6.8c0,0,2.1-0.7,6.9,2.6&#xA;        c2-0.6,4.1-0.9,6.3-0.9c2.1,0,4.3,0.3,6.3,0.9c4.8-3.3,6.9-2.6,6.9-2.6c1.4,3.5,0.5,6.1,0.3,6.8c1.6,1.8,2.6,4.1,2.6,6.9&#xA;        c0,9.8-5.8,12-11.4,12.6c0.9,0.8,1.7,2.4,1.7,4.7c0,3.4,0,6.2,0,7c0,0.7,0.4,1.5,1.7,1.2C42.8,46.6,50,37,50,25.6&#xA;        C50,11.5,38.8,0,25,0z"></path>
</svg>
