<svg width="121" height="151" viewBox="0 0 121 151" fill="none" xmlns="http://www.w3.org/2000/svg">
<rect x="2.5791" y="3.15723" width="115" height="145" rx="22.5" fill="#326CE5" stroke="#326CE5" stroke-width="5"/>
<path d="M29.0791 106.657C29.0791 100.292 31.5695 94.1875 36.0026 89.6867C40.4356 85.1858 46.448 82.6572 52.7173 82.6572C58.9865 82.6572 64.999 85.1858 69.432 89.6867C73.865 94.1875 76.3555 100.292 76.3555 106.657H29.0791ZM52.7173 79.6572C42.9222 79.6572 34.9886 71.6022 34.9886 61.6572C34.9886 51.7122 42.9222 43.6572 52.7173 43.6572C62.5124 43.6572 70.4459 51.7122 70.4459 61.6572C70.4459 71.6022 62.5124 79.6572 52.7173 79.6572ZM74.4733 86.3562C78.993 87.5357 83.0311 90.1328 86.0126 93.7777C88.9941 97.4227 90.7671 101.93 91.0791 106.657H82.265C82.265 98.8272 79.3102 91.6992 74.4733 86.3562ZM68.4958 79.5282C70.9719 77.2797 72.952 74.5252 74.3065 71.4455C75.661 68.3657 76.3592 65.0301 76.3555 61.6572C76.3618 57.5576 75.3289 53.5253 73.3564 49.9482C76.7031 50.631 79.7136 52.4693 81.8763 55.1508C84.039 57.8323 85.2205 61.1914 85.2198 64.6572C85.2206 66.7946 84.7714 68.9075 83.9023 70.8543C83.0332 72.801 81.7643 74.5366 80.1806 75.9449C78.5969 77.3531 76.7351 78.4013 74.7198 79.0193C72.7046 79.6373 70.5825 79.8108 68.4958 79.5282Z" fill="white"/>
</svg>
