<svg width="90" height="90" viewBox="0 0 90 90" fill="none" xmlns="http://www.w3.org/2000/svg">
<path fill-rule="evenodd" clip-rule="evenodd" d="M45 85C67.0914 85 85 67.0914 85 45C85 22.9086 67.0914 5 45 5C22.9086 5 5 22.9086 5 45C5 67.0914 22.9086 85 45 85ZM48.6477 47.9933C53.7139 46.3145 57.3686 41.5387 57.3686 35.9094C57.3686 28.8803 51.6704 23.1821 44.6413 23.1821C37.6123 23.1821 31.9141 28.8803 31.9141 35.9094C31.9141 41.8093 35.9286 46.7716 41.375 48.2136V66.2732C41.375 67.3777 42.2704 68.2732 43.375 68.2732H46.6477C47.7523 68.2732 48.6477 67.3777 48.6477 66.2732V62.4551H55.3643C56.4689 62.4551 57.3643 61.5596 57.3643 60.4551V57.1824C57.3643 56.0778 56.4689 55.1824 55.3643 55.1824H48.6477V47.9933Z" fill="#326CE5"/>
</svg>
