<svg id="Layer_1" data-name="Layer 1" xmlns="http://www.w3.org/2000/svg" widt="18px" height="18px" viewBox="0 0 360 360"><defs><style>.cls-1{fill:#fff;}</style></defs><polygon class="cls-1" points="125.932 178.693 92.174 198.182 92.174 237.16 125.932 217.67 125.932 178.693"/><polygon class="cls-1" points="179.803 147.593 146.045 167.082 179.803 186.571 213.562 167.083 179.803 147.593"/><polygon class="cls-1" points="220.261 116.487 186.506 96.999 186.506 135.982 220.261 155.47 220.261 116.487"/><polygon class="cls-1" points="139.34 217.672 173.098 237.161 173.098 198.183 139.34 178.693 139.34 217.672"/><polygon class="cls-1" points="125.932 116.488 92.174 97 92.174 182.701 125.932 163.211 125.932 116.488"/><polygon class="cls-1" points="173.098 96.998 139.34 116.488 139.34 155.47 173.098 135.981 173.098 96.998"/><polygon class="cls-1" points="98.878 248.771 173.098 291.628 173.098 252.641 132.637 229.283 98.878 248.771"/><polygon class="cls-1" points="267.427 198.182 233.669 178.692 233.669 217.67 267.427 237.163 267.427 198.182"/><polygon class="cls-1" points="186.506 237.168 220.261 217.672 220.261 178.697 186.506 198.182 186.506 237.168"/><path class="cls-1" d="M179.33539,2.9227a176.8107,176.8107,0,1,0,176.8107,176.8107A176.81067,176.81067,0,0,0,179.33539,2.9227Zm101.49993,249.724-101.033,58.3312L78.766,252.64311V73.77789l53.87012,31.10124,47.16628-27.22977L226.965,104.87913l53.8703-31.10124Z"/><polygon class="cls-1" points="267.427 97 233.669 116.488 233.669 163.211 267.427 182.701 267.427 97"/><polygon class="cls-1" points="186.506 252.647 186.506 291.628 260.723 248.775 226.964 229.283 186.506 252.647"/></svg>