<svg width="40" height="40" viewBox="0 0 40 40" xmlns="http://www.w3.org/2000/svg">  <g id="Icon-Architecture/32/Arch_AWS-Cloud-WAN_32" stroke="none" stroke-width="1" fill="none" fill-rule="evenodd">  <path d="M26.305,15.863 C25.649,16.209 24.884,16.493 24.046,16.711 C24.225,17.574 24.331,18.513 24.359,19.5 L26.55,19.5 L27.522,19.5 C27.48,18.866 27.356,18.255 27.167,17.673 C26.959,17.028 26.671,16.419 26.305,15.863 L26.305,15.863 Z M26.4,23.981 C26.72,23.469 26.98,22.916 27.17,22.332 C27.36,21.749 27.48,21.136 27.522,20.5 L26.55,20.5 L24.359,20.5 C24.333,21.415 24.238,22.285 24.082,23.094 C24.946,23.321 25.733,23.618 26.4,23.981 L26.4,23.981 Z M25.815,24.806 C25.247,24.508 24.587,24.26 23.861,24.067 C23.523,25.313 23.032,26.366 22.434,27.138 C23.767,26.682 24.935,25.869 25.815,24.806 L25.815,24.806 Z M20,29 C18.897,29 18,29.897 18,31 C18,32.103 18.897,33 20,33 C21.102,33 22,32.103 22,31 C22,29.897 21.102,29 20,29 L20,29 Z M17.565,27.138 C16.967,26.366 16.476,25.313 16.138,24.067 C15.412,24.26 14.752,24.508 14.183,24.805 C15.063,25.869 16.232,26.682 17.565,27.138 L17.565,27.138 Z M15.917,23.094 C15.761,22.285 15.666,21.414 15.64,20.5 L13.449,20.5 L12.477,20.5 C12.519,21.136 12.639,21.749 12.829,22.332 C13.019,22.916 13.279,23.468 13.598,23.98 C14.266,23.617 15.054,23.321 15.917,23.094 L15.917,23.094 Z M13.694,15.863 C13.328,16.419 13.04,17.028 12.832,17.673 C12.644,18.255 12.519,18.866 12.477,19.5 L13.449,19.5 L15.64,19.5 C15.668,18.513 15.774,17.574 15.953,16.711 C15.115,16.493 14.351,16.209 13.694,15.863 L13.694,15.863 Z M14.312,15.054 C14.866,15.331 15.5,15.562 16.194,15.743 C16.529,14.581 16.998,13.595 17.564,12.864 C16.293,13.299 15.176,14.062 14.312,15.054 L14.312,15.054 Z M20,11 C21.102,11 22,10.103 22,9 C22,7.897 21.102,7 20,7 C18.897,7 18,7.897 18,9 C18,10.103 18.897,11 20,11 L20,11 Z M20,16.208 C20.984,16.208 21.939,16.118 22.831,15.956 C22.482,14.766 21.989,13.845 21.441,13.242 C20.985,12.741 20.493,12.456 20.007,12.453 C20.005,12.453 20.002,12.453 20,12.453 C19.997,12.453 19.994,12.453 19.992,12.453 C19.507,12.456 19.014,12.741 18.558,13.242 C18.011,13.845 17.518,14.766 17.168,15.956 C18.06,16.118 19.015,16.208 20,16.208 L20,16.208 Z M23.36,19.5 C23.332,18.57 23.235,17.704 23.076,16.926 C22.104,17.107 21.065,17.208 20,17.208 C18.934,17.208 17.895,17.107 16.924,16.926 C16.764,17.704 16.667,18.57 16.639,19.5 L23.36,19.5 Z M19.999,23.588 C18.993,23.588 18.018,23.682 17.111,23.85 C17.463,25.135 17.98,26.123 18.558,26.759 C19.016,27.262 19.512,27.548 20,27.548 C20.487,27.548 20.983,27.262 21.441,26.759 C22.019,26.123 22.536,25.135 22.888,23.85 C21.98,23.682 21.005,23.588 19.999,23.588 L19.999,23.588 Z M23.111,22.877 C23.248,22.15 23.335,21.354 23.36,20.5 L16.639,20.5 C16.664,21.354 16.751,22.15 16.888,22.876 C17.87,22.691 18.92,22.588 19.999,22.588 C21.078,22.588 22.129,22.691 23.111,22.877 L23.111,22.877 Z M22.435,12.864 C23.002,13.595 23.47,14.581 23.805,15.743 C24.499,15.562 25.133,15.331 25.687,15.054 C24.823,14.062 23.706,13.299 22.435,12.864 L22.435,12.864 Z M29,20 C29,21.103 29.897,22 31,22 C32.102,22 33,21.103 33,20 C33,18.897 32.102,18 31,18 C29.897,18 29,18.897 29,20 L29,20 Z M11,20 C11,18.897 10.102,18 9,18 C7.897,18 7,18.897 7,20 C7,21.103 7.897,22 9,22 C10.102,22 11,21.103 11,20 L11,20 Z M27.879,16.77 C28.108,17.328 28.302,17.905 28.409,18.514 C28.928,17.614 29.888,17 31,17 C32.654,17 34,18.346 34,20 C34,21.655 32.654,23 31,23 C29.888,23 28.928,22.386 28.409,21.486 C28.302,22.096 28.108,22.672 27.879,23.23 C27.012,25.337 25.337,27.013 23.23,27.88 C22.672,28.109 22.095,28.303 21.486,28.41 C22.386,28.929 23,29.889 23,31 C23,32.655 21.654,34 20,34 C18.345,34 17,32.655 17,31 C17,29.889 17.614,28.928 18.513,28.41 C17.904,28.303 17.327,28.109 16.77,27.88 C14.662,27.013 12.987,25.338 12.12,23.23 C11.891,22.672 11.697,22.096 11.59,21.486 C11.071,22.386 10.111,23 9,23 C7.345,23 6,21.655 6,20 C6,18.346 7.345,17 9,17 C10.111,17 11.071,17.614 11.59,18.514 C11.697,17.905 11.891,17.328 12.12,16.77 C12.987,14.663 14.663,12.988 16.77,12.121 C17.328,11.892 17.904,11.699 18.514,11.591 C17.614,11.073 17,10.112 17,9 C17,7.346 18.345,6 20,6 C21.654,6 23,7.346 23,9 C23,10.112 22.385,11.073 21.485,11.591 C22.095,11.698 22.671,11.892 23.229,12.121 C25.336,12.988 27.012,14.663 27.879,16.77 L27.879,16.77 Z M24.29,29.715 C24.389,30.045 24.453,30.387 24.474,30.744 C27.297,29.563 29.562,27.297 30.743,24.474 C30.387,24.454 30.045,24.39 29.715,24.291 C28.643,26.705 26.704,28.644 24.29,29.715 L24.29,29.715 Z M10.284,24.291 C9.955,24.39 9.613,24.454 9.256,24.474 C10.437,27.297 12.702,29.563 15.525,30.744 C15.546,30.387 15.61,30.045 15.709,29.715 C13.295,28.644 11.356,26.705 10.284,24.291 L10.284,24.291 Z M15.709,10.285 C15.61,9.956 15.546,9.614 15.525,9.257 C12.702,10.438 10.437,12.703 9.256,15.526 C9.613,15.547 9.955,15.611 10.284,15.71 C11.356,13.296 13.295,11.357 15.709,10.285 L15.709,10.285 Z M24.29,10.285 C24.389,9.956 24.453,9.614 24.474,9.257 C27.297,10.438 29.562,12.703 30.743,15.526 C30.387,15.547 30.045,15.611 29.715,15.71 C28.643,13.296 26.704,11.357 24.29,10.285 L24.29,10.285 Z" id="Fill-6" fill="#FFFFFF"></path> </g></svg>