<svg width="40" height="40"  viewBox="0 0 40 40" xmlns="http://www.w3.org/2000/svg">  <g id="Icon-Architecture/32/Arch_Amazon-Honeycode_32" stroke="none" stroke-width="1" fill="none" fill-rule="evenodd">  <g id="Icon-Service/32/Amazon-Honeycode_32" transform="translate(8.000000, 6.000000)" fill="#FFFFFF"> <path d="M9,16.811 L11.996,18.548 L19,14.602 L18.993,17.978 L12,22.033 L9,20.294 L9,16.811 Z M8.097,8.058 L11.06,9.822 L8,11.597 L8,19.714 L5,17.975 L5,9.853 L8.097,8.058 Z M9,12.173 L12.043,10.408 L15,12.169 L15,15.708 L12.004,17.397 L9,15.655 L9,12.173 Z M19,13.454 L16,15.145 L16,11.601 L9.087,7.484 L12,5.795 L19,9.853 L19,13.454 Z M23,20.294 L19.993,22.038 L20,9.277 L12,4.639 L4,9.277 L4,18.551 L12,23.189 L18.993,19.135 L18.993,22.617 L12,26.672 L1,20.294 L1,7.534 L12,1.156 L23,7.534 L23,20.294 Z M12,-1.77635684e-15 L0,6.958 L0,20.87 L12,27.828 L24,20.87 L24,6.958 L12,-1.77635684e-15 Z" id="Fill-3"></path> </g> </g></svg>