<svg width="40" height="40" viewBox="0 0 40 40" xmlns="http://www.w3.org/2000/svg">  <g id="Icon-Architecture/32/Arch_Amazon-EKS-Distro_32" stroke="none" stroke-width="1" fill="none" fill-rule="evenodd">  <g id="Icon-Service/32/Amazon-EKS-Distro_32" transform="translate(6.000000, 6.000000)" fill="#FFFFFF"> <path d="M21.271,21.4178416 C20.568,22.1478416 19.4,22.1708416 18.669,21.4688416 C18.315,21.1288416 18.115,20.6698416 18.105,20.1788416 C18.096,19.6878416 18.278,19.2218416 18.619,18.8678416 C18.959,18.5138416 19.417,18.3138416 19.909,18.3038416 C19.921,18.3038416 19.933,18.3028416 19.946,18.3028416 C20.423,18.3028416 20.875,18.4848416 21.219,18.8168416 C21.951,19.5198416 21.974,20.6868416 21.271,21.4178416 L21.271,21.4178416 Z M19.889,17.3038416 C19.13,17.3188416 18.423,17.6278416 17.898,18.1748416 C17.373,18.7218416 17.09,19.4398416 17.105,20.1988416 C17.121,20.9568416 17.429,21.6648416 17.976,22.1898416 C18.526,22.7188416 19.236,22.9808416 19.944,22.9808416 C20.69,22.9808416 21.435,22.6898416 21.992,22.1108416 C22.517,21.5638416 22.798,20.8458416 22.784,20.0868416 C22.769,19.3288416 22.459,18.6218416 21.913,18.0958416 C21.366,17.5708416 20.654,17.3138416 19.889,17.3038416 L19.889,17.3038416 Z M25.752,24.0348416 L23.475,23.5788416 C23.337,23.5518416 23.195,23.5818416 23.082,23.6658416 L22.12,24.3688416 C22.007,24.4508416 21.934,24.5758416 21.917,24.7138416 L21.649,27.0118416 L18.053,27.0078416 L17.788,24.7258416 C17.771,24.5888416 17.699,24.4638416 17.588,24.3818416 L16.616,23.6618416 C16.502,23.5788416 16.359,23.5468416 16.22,23.5738416 L13.958,24.0258416 L12.848,20.6058416 L14.964,19.6348416 C15.091,19.5768416 15.188,19.4678416 15.232,19.3348416 L15.597,18.2148416 C15.64,18.0818416 15.626,17.9368416 15.557,17.8148416 L14.418,15.7878416 L17.33,13.6768416 L18.894,15.3758416 C18.989,15.4778416 19.123,15.5368416 19.262,15.5368416 L19.265,15.5368416 L20.475,15.5298416 C20.614,15.5288416 20.746,15.4708416 20.839,15.3688416 L22.396,13.6808416 L25.304,15.7958416 L24.169,17.8148416 C24.101,17.9368416 24.086,18.0798416 24.128,18.2118416 L24.489,19.3448416 C24.532,19.4788416 24.628,19.5878416 24.756,19.6468416 L26.866,20.6158416 L25.752,24.0348416 Z M11.996,26.4168416 L1,20.6808416 L1,6.27984161 L10,1.34484161 L10,5.86484161 L5.254,8.54884161 C5.097,8.63684161 5,8.80384161 5,8.98384161 L5,17.9838416 C5,18.1658416 5.1,18.3338416 5.259,18.4218416 L11.759,21.9998416 C11.91,22.0828416 12.091,22.0828416 12.242,21.9998416 L12.249,21.9968416 L13.143,24.7578416 C13.22,24.9988416 13.47,25.1428416 13.716,25.0938416 L14.829,24.8718416 L11.996,26.4168416 Z M14,5.83984161 L14,1.30884161 L24,6.29284161 L24,13.6118416 L22.625,12.6098416 C22.42,12.4608416 22.135,12.4878416 21.963,12.6758416 L20.252,14.5308416 L20,14.5328416 L20,8.98384161 C20,8.79084161 19.889,8.61384161 19.713,8.53184161 L14,5.83984161 Z M27.688,19.8928416 L25.375,18.8308416 L25.147,18.1158416 L26.393,15.8988416 C26.518,15.6778416 26.457,15.3988416 26.251,15.2498416 L25,14.3388416 L25,5.98384161 C25,5.79384161 24.893,5.62084161 24.723,5.53684161 L13.723,0.05284161 C13.568,-0.02415839 13.384,-0.01715839 13.238,0.07484161 C13.09,0.16684161 13,0.32684161 13,0.50084161 L13,6.15684161 C13,6.34984161 13.112,6.52584161 13.288,6.60884161 L19,9.30084161 L19,14.0148416 L17.764,12.6718416 C17.591,12.4848416 17.309,12.4578416 17.102,12.6058416 L13.764,15.0268416 L12.464,13.3848416 L15.717,9.30784161 L14.273,9.30784161 L11.404,12.6778416 L11.404,9.30784161 L10.117,9.30784161 L10.117,17.6678416 L11.404,17.6678416 L11.404,13.8088416 L14.03,17.1368416 L14.579,18.1138416 L14.349,18.8168416 L12.028,19.8818416 C11.796,19.9878416 11.682,20.2498416 11.76,20.4908416 L11.906,20.9388416 L6,17.6888416 L6,9.27484161 L10.747,6.59184161 C10.904,6.50284161 11,6.33684161 11,6.15684161 L11,0.50084161 C11,0.32384161 10.908,0.15984161 10.755,0.06984161 C10.604,-0.01915839 10.416,-0.02215839 10.26,0.06184161 L0.26,5.54484161 C0.1,5.63284161 0,5.80084161 0,5.98384161 L0,20.9838416 C0,21.1698416 0.104,21.3408416 0.269,21.4268416 L11.769,27.4268416 C11.841,27.4648416 11.921,27.4838416 12,27.4838416 C12.083,27.4838416 12.166,27.4628416 12.24,27.4228416 L16.716,24.9808416 L16.819,25.0568416 L17.111,27.5658416 C17.14,27.8168416 17.354,28.0068416 17.608,28.0078416 L22.093,28.0118416 L22.094,28.0118416 C22.348,28.0118416 22.561,27.8218416 22.591,27.5698416 L22.886,25.0468416 L23.494,24.6028416 L25.992,25.1028416 C26.244,25.1548416 26.487,25.0078416 26.566,24.7678416 L27.955,20.5018416 C28.033,20.2608416 27.918,19.9988416 27.688,19.8928416 L27.688,19.8928416 Z" id="Fill-6"></path> </g> </g></svg>