<svg width="40" height="40" viewBox="0 0 40 40" fill="none" xmlns="http://www.w3.org/2000/svg">
<g clip-path="url(#clip0_23310_9503)">
<path d="M40 0H0V40H40V0Z" fill="#DD344C" fill-opacity="0.12"/>
<path fill-rule="evenodd" clip-rule="evenodd" d="M14.359 9.313L13.652 8.606C15.162 7.096 17.842 6 20.024 6C22.185 6 24.85 7.096 26.359 8.606L25.652 9.313C24.334 7.995 21.915 7 20.024 7C18.113 7 15.677 7.995 14.359 9.313ZM20.024 8.867C21.6 8.867 23.302 9.549 24.359 10.606L23.652 11.313C22.787 10.448 21.329 9.867 20.024 9.867C18.716 9.867 17.21 10.461 16.359 11.313L15.652 10.606C16.691 9.566 18.448 8.867 20.024 8.867ZM32.995 30.652L32.015 31.146V26.772L32.995 27.267V30.652ZM31.015 32.975H29.963V24.959H31.015V25.146V32.772V32.975ZM8.988 32.899V25.148V24.944H9.985V32.975H8.988V32.899ZM7 30.664V27.268L7.988 26.771V31.208L7 30.664ZM20.005 15.959C24.76 15.959 28.695 19.706 28.963 24.459V32.975H10.985V24.459C11.13 19.772 15.177 15.959 20.005 15.959ZM19.061 13.577C19.061 13.054 19.575 12.944 20.005 12.944C20.436 12.944 20.95 13.054 20.95 13.577V15.006C20.638 14.976 20.324 14.959 20.005 14.959C19.687 14.959 19.373 14.977 19.061 15.006V13.577ZM33.995 26.652L32.015 25.652V23.959H29.913C29.457 19.537 26.175 15.995 21.95 15.151V13.577C21.95 12.585 21.186 11.944 20.005 11.944C18.825 11.944 18.061 12.585 18.061 13.577V15.149C13.761 15.995 10.397 19.581 10.027 23.944H7.988V25.651L6 26.651V31.255L7.988 32.349V33.975H32.015V32.267L33.995 31.267V26.652ZM16.505 23.459C17.057 23.459 17.505 23.908 17.505 24.459C17.505 25.011 17.057 25.459 16.505 25.459C15.954 25.459 15.505 25.011 15.505 24.459C15.505 23.908 15.954 23.459 16.505 23.459ZM16.505 26.459C17.608 26.459 18.505 25.563 18.505 24.459C18.505 23.356 17.608 22.459 16.505 22.459C15.403 22.459 14.505 23.356 14.505 24.459C14.505 25.563 15.403 26.459 16.505 26.459ZM23.505 23.459C24.057 23.459 24.505 23.908 24.505 24.459C24.505 25.011 24.057 25.459 23.505 25.459C22.954 25.459 22.505 25.011 22.505 24.459C22.505 23.908 22.954 23.459 23.505 23.459ZM23.505 26.459C24.608 26.459 25.505 25.563 25.505 24.459C25.505 23.356 24.608 22.459 23.505 22.459C22.403 22.459 21.505 23.356 21.505 24.459C21.505 25.563 22.403 26.459 23.505 26.459Z" fill="#DD344C"/>
</g>
<rect x="0.5" y="0.5" width="39" height="39" stroke="#DD344C"/>
<defs>
<clipPath id="clip0_23310_9503">
<rect width="40" height="40" fill="white"/>
</clipPath>
</defs>
</svg>
