<svg xmlns="http://www.w3.org/2000/svg" viewBox="0 0 83.19 79.55"><defs><style>.cls-1{fill:#fff;fill-rule:evenodd;}</style></defs><path id="white" class="cls-1" d="M42.22,28.54h-.09a7.82,7.82,0,1,1,8.21-7.39,7.74,7.74,0,0,1-1.73,4.51l7,14a20.37,20.37,0,1,1-8.68,31.73l5.9-4.7a12.84,12.84,0,0,0,12.94,4.5,12.82,12.82,0,1,0-7.45-24.48l-5.64,2.8Zm14.3,25.59,0-.09a7.82,7.82,0,1,1,3,10.65,7.73,7.73,0,0,1-3.26-3.56H40.65A20.38,20.38,0,0,1,29.22,77.53,20.38,20.38,0,1,1,16.1,39.25l1.58,7.38a12.83,12.83,0,1,0,15.46,13.8V54.14Zm-29-.25.05.08A7.82,7.82,0,1,1,21.7,50l8.11-13.34a20.38,20.38,0,1,1,31.46-9.6l-7.13-2.49A12.83,12.83,0,0,0,37.67,8.31a12.84,12.84,0,0,0-3.35,22.32l5.38,3.26Z"/></svg>