<svg xmlns="http://www.w3.org/2000/svg" width="18" height="18" viewBox="0 0 18 18"><defs><linearGradient id="a" x1="7.93" y1="17.95" x2="7.93" y2="5.62" gradientUnits="userSpaceOnUse"><stop offset="0" stop-color="#5e9624"/><stop offset="1" stop-color="#b4ec36"/></linearGradient><linearGradient id="b" x1="7.95" y1="9.21" x2="7.95" y2="-2.02" gradientUnits="userSpaceOnUse"><stop offset="0" stop-color="#5e9624"/><stop offset="1" stop-color="#b4ec36"/></linearGradient></defs><path d="M14 16.85a1.3 1.3 0 001.32-1.31.81.81 0 000-.16c-.52-4.15-2.88-7.53-7.4-7.53S1 10.71.51 15.39a1.34 1.34 0 001.19 1.46H14z" fill="url(#a)"/><path d="M8 8.83a4.16 4.16 0 01-2.26-.66L7.92 14l2.22-5.79A4.2 4.2 0 018 8.83z" fill="#fff"/><circle cx="7.95" cy="4.67" r="4.17" fill="url(#b)"/><path fill="#32bedd" d="M17.49 11.13v4.24l-3.64 2.13v-4.24l3.64-2.13z"/><path fill="#9cebff" d="M17.49 11.13l-3.64 2.13-3.64-2.13L13.85 9l3.64 2.13z"/><path fill="#50e6ff" d="M13.85 13.26v4.24l-3.64-2.13v-4.24l3.64 2.13z"/><path fill="#9cebff" d="M10.21 15.37l3.64-2.11v4.24l-3.64-2.13z"/><path fill="#50e6ff" d="M17.49 15.37l-3.64-2.11v4.24l3.64-2.13z"/></svg>