<svg width="40" height="40" viewBox="0 0 40 40" fill="none" xmlns="http://www.w3.org/2000/svg">
<g clip-path="url(#clip0_23311_9660)">
<path d="M40 0H0V40H40V0Z" fill="#7AA116" fill-opacity="0.12"/>
<path fill-rule="evenodd" clip-rule="evenodd" d="M27.537 22.267L23.989 27.182H25.589L28.258 23.284L27.537 22.267ZM32.313 27.182H34L29.806 21.216L33.625 15.891H32.047L29.028 20.201L28.221 21.319L32.313 27.182ZM28.358 19.245L26.01 15.891H24.344L27.517 20.364L28.358 19.245ZM17.545 20.154C16.525 19.756 15.777 19.283 15.3 18.733C14.823 18.183 14.585 17.504 14.585 16.696C14.585 15.597 14.978 14.706 15.766 14.023C16.555 13.341 17.592 13 18.877 13C19.46 13 20.072 13.07 20.715 13.208C21.357 13.348 21.963 13.543 22.533 13.795V14.808C21.182 14.331 19.982 14.093 18.936 14.093C17.916 14.093 17.135 14.315 16.592 14.759C16.048 15.203 15.777 15.835 15.777 16.656C15.777 17.12 15.859 17.494 16.025 17.779C16.19 18.064 16.463 18.322 16.84 18.554C17.218 18.786 17.757 19.034 18.459 19.299L20.586 20.114C21.539 20.485 22.235 20.938 22.672 21.475C23.109 22.012 23.328 22.684 23.328 23.492C23.328 24.671 22.893 25.625 22.026 26.353C21.158 27.082 20.016 27.446 18.599 27.446C17.128 27.446 15.816 27.168 14.664 26.612V25.598C16.055 26.102 17.333 26.353 18.499 26.353C19.599 26.353 20.476 26.095 21.132 25.578C21.788 25.061 22.115 24.36 22.115 23.472C22.115 22.929 21.936 22.465 21.579 22.081C21.222 21.697 20.645 21.352 19.85 21.048L17.545 20.154ZM6 27.108V13.338H13.729V14.391H7.172V19.657H12.717V20.71H7.172V27.108H6Z" fill="#7AA116"/>
</g>
<rect x="0.5" y="0.5" width="39" height="39" stroke="#7AA116"/>
<defs>
<clipPath id="clip0_23311_9660">
<rect width="40" height="40" fill="white"/>
</clipPath>
</defs>
</svg>
