<svg width="40" height="40" viewBox="0 0 40 40" fill="none" xmlns="http://www.w3.org/2000/svg">
<g clip-path="url(#clip0_23298_3855)">
<path d="M40 0H0V40H40V0Z" fill="#01A88D" fill-opacity="0.12"/>
<path fill-rule="evenodd" clip-rule="evenodd" d="M21.75 21.131L22.25 21.996C24.563 20.659 26 18.17 26 15.5C26 11.364 22.636 8 18.5 8C14.364 8 11 11.364 11 15.5C11 18.17 12.437 20.659 14.75 21.996L15.25 21.131C13.245 19.971 12 17.814 12 15.5C12 11.916 14.916 9 18.5 9C22.084 9 25 11.916 25 15.5C25 17.814 23.755 19.971 21.75 21.131ZM26.563 20.523C26.117 21.239 25.578 21.896 24.951 22.474L30.51 26.967C31.036 27.381 31.709 27.024 32.109 26.514C32.529 25.984 32.689 25.236 32.184 24.837L26.563 20.523ZM9 15.5C9 10.262 13.262 6 18.5 6C23.738 6 28 10.262 28 15.5C28 16.964 27.652 18.365 27.042 19.63L32.798 24.048C33.689 24.753 33.729 26.078 32.895 27.134C32.371 27.797 31.685 28.148 31.023 28.148C30.62 28.148 30.227 28.017 29.886 27.748L24.159 23.119C23.749 23.423 23.32 23.705 22.856 23.945L22.397 23.056C23.821 22.32 24.974 21.225 25.77 19.914L25.765 19.91L25.785 19.884C26.565 18.587 27 17.081 27 15.5C27 10.813 23.187 7 18.5 7C13.813 7 10 10.813 10 15.5C10 18.926 12.039 22.001 15.194 23.334L14.806 24.255C11.278 22.765 9 19.329 9 15.5ZM7 33V6H6V34H34V33H7ZM8.938 30.739L8.062 30.261L11.062 24.761C11.146 24.604 11.309 24.505 11.487 24.5C11.643 24.499 11.833 24.587 11.926 24.738L15.227 30.101L18.007 13.418C18.046 13.182 18.247 13.006 18.486 13H18.5C18.733 13 18.937 13.162 18.988 13.392L22.79 30.503L25.146 28.147C25.342 27.951 25.658 27.951 25.854 28.147L28.5 30.793L30.146 29.147L30.854 29.854L28.854 31.854C28.658 32.049 28.342 32.049 28.146 31.854L25.5 29.207L22.854 31.854C22.725 31.982 22.534 32.03 22.36 31.98C22.185 31.929 22.052 31.787 22.012 31.609L18.57 16.121L15.993 31.582C15.959 31.788 15.801 31.951 15.596 31.991C15.563 31.997 15.532 32 15.5 32C15.328 32 15.166 31.912 15.074 31.762L11.526 25.997L8.938 30.739Z" fill="#01A88D"/>
</g>
<rect x="0.5" y="0.5" width="39" height="39" stroke="#01A88D"/>
<defs>
<clipPath id="clip0_23298_3855">
<rect width="40" height="40" fill="white"/>
</clipPath>
</defs>
</svg>
