<svg width="40" height="40" viewBox="0 0 40 40" xmlns="http://www.w3.org/2000/svg">  <g id="Icon-Architecture/32/Arch_AWS-Deep-Learning-AMIs_32" stroke="none" stroke-width="1" fill="none" fill-rule="evenodd">  <g id="Icon-Service/32/AWS-Deep-Learning-AMIs_32" transform="translate(6.000000, 6.000000)" fill="#FFFFFF"> <path d="M21.962,14.629 C21.466,15.146 20.642,15.159 20.128,14.665 C19.613,14.17 19.597,13.347 20.092,12.832 C20.347,12.567 20.687,12.434 21.027,12.434 C21.352,12.434 21.675,12.554 21.926,12.796 C22.441,13.291 22.457,14.114 21.962,14.629 L21.962,14.629 Z M19.371,12.138 C18.494,13.051 18.523,14.508 19.435,15.386 C19.88,15.814 20.454,16.026 21.026,16.026 C21.63,16.026 22.233,15.79 22.683,15.322 C23.561,14.409 23.531,12.952 22.619,12.075 C21.706,11.196 20.248,11.226 19.371,12.138 L19.371,12.138 Z M25.568,16.598 L23.868,16.257 C23.729,16.231 23.588,16.26 23.474,16.344 L22.718,16.898 C22.607,16.98 22.533,17.105 22.517,17.243 L22.316,18.958 L19.674,18.955 L19.477,17.253 C19.46,17.116 19.388,16.991 19.277,16.909 L18.511,16.341 C18.398,16.257 18.255,16.227 18.115,16.253 L16.427,16.591 L15.612,14.078 L17.191,13.354 C17.318,13.296 17.415,13.187 17.459,13.054 L17.747,12.172 C17.79,12.04 17.776,11.894 17.707,11.772 L16.858,10.259 L18.996,8.708 L20.163,9.976 C20.258,10.078 20.392,10.137 20.531,10.137 L20.534,10.137 L21.487,10.131 C21.626,10.13 21.758,10.072 21.853,9.97 L23.012,8.712 L25.149,10.265 L24.302,11.772 C24.233,11.893 24.219,12.037 24.261,12.169 L24.544,13.06 C24.587,13.194 24.684,13.304 24.812,13.363 L26.387,14.087 L25.568,16.598 Z M27.209,13.363 L25.43,12.546 L25.279,12.073 L26.237,10.368 C26.362,10.147 26.301,9.867 26.096,9.718 L23.24,7.641 C23.037,7.492 22.752,7.52 22.578,7.706 L21.264,9.133 L20.749,9.135 L19.431,7.703 C19.259,7.517 18.977,7.489 18.769,7.637 L15.909,9.711 C15.704,9.86 15.643,10.139 15.768,10.361 L16.728,12.071 L16.576,12.536 L14.792,13.354 C14.562,13.46 14.446,13.721 14.525,13.962 L15.612,17.322 C15.69,17.564 15.939,17.71 16.186,17.659 L18.094,17.277 L18.508,17.584 L18.732,19.512 C18.761,19.764 18.975,19.954 19.229,19.955 L22.761,19.958 C23.015,19.958 23.228,19.768 23.258,19.516 L23.485,17.576 L23.888,17.281 L25.808,17.666 C26.06,17.718 26.303,17.571 26.382,17.331 L27.476,13.973 C27.554,13.732 27.44,13.469 27.209,13.363 L27.209,13.363 Z M23.5,26 C22.673,26 22,25.327 22,24.5 C22,23.672 22.673,23 23.5,23 C24.327,23 25,23.672 25,24.5 C25,25.327 24.327,26 23.5,26 L23.5,26 Z M8.5,26 C7.673,26 7,25.327 7,24.5 C7,23.672 7.673,23 8.5,23 C9.327,23 10,23.672 10,24.5 C10,25.327 9.327,26 8.5,26 L8.5,26 Z M4.047,15.448 C4.198,15.328 4.334,15.192 4.453,15.041 L9,17.448 L9,22.05 C8.838,22.017 8.671,22 8.5,22 C8.273,22 8.056,22.04 7.847,22.097 L4.047,15.448 Z M1,13.5 C1,12.672 1.673,12 2.5,12 C3.327,12 4,12.672 4,13.5 C4,14.327 3.327,15 2.5,15 C1.673,15 1,14.327 1,13.5 L1,13.5 Z M7.847,4.902 C8.056,4.959 8.273,5 8.5,5 C8.671,5 8.838,4.982 9,4.949 L9,9.551 L4.453,11.959 C4.334,11.807 4.198,11.671 4.047,11.551 L7.847,4.902 Z M8.5,1 C9.327,1 10,1.672 10,2.5 C10,3.327 9.327,4 8.5,4 C7.673,4 7,3.327 7,2.5 C7,1.672 7.673,1 8.5,1 L8.5,1 Z M23.5,1 C24.327,1 25,1.672 25,2.5 C25,3.327 24.327,4 23.5,4 C22.673,4 22,3.327 22,2.5 C22,1.672 22.673,1 23.5,1 L23.5,1 Z M14.173,6.813 L10.539,3.938 C10.734,3.66 10.879,3.344 10.949,3 L21.051,3 C21.061,3.051 21.082,3.097 21.096,3.148 L14.173,6.813 Z M10,9.022 L10,4.787 L13.207,7.324 L10,9.022 Z M13.207,19.675 L10,22.212 L10,17.977 L13.207,19.675 Z M21.096,23.852 C21.082,23.902 21.061,23.948 21.051,24 L10.949,24 C10.879,23.655 10.734,23.339 10.539,23.062 L14.173,20.187 L21.096,23.852 Z M23.5,22 C22.705,22 22.005,22.379 21.547,22.959 L15.03,19.508 L15.811,18.892 L15.19,18.108 L14.065,18.997 L10,16.845 L10,15 L9,15 L9,16.316 L4.904,14.148 C4.918,14.097 4.94,14.051 4.949,14 L13,14 L13,13 L4.949,13 C4.94,12.948 4.918,12.902 4.904,12.852 L9,10.683 L9,12 L10,12 L10,10.154 L14.065,8.002 L15.19,8.892 L15.811,8.108 L15.03,7.491 L21.547,4.041 C22.005,4.62 22.705,5 23.5,5 C24.879,5 26,3.878 26,2.5 C26,1.121 24.879,0 23.5,0 C22.292,0 21.283,0.86 21.051,2 L10.949,2 C10.717,0.86 9.708,0 8.5,0 C7.121,0 6,1.121 6,2.5 C6,3.291 6.377,3.99 6.953,4.448 L3.153,11.097 C2.944,11.04 2.728,11 2.5,11 C1.121,11 0,12.121 0,13.5 C0,14.878 1.121,16 2.5,16 C2.728,16 2.944,15.959 3.153,15.902 L6.953,22.551 C6.377,23.009 6,23.708 6,24.5 C6,25.878 7.121,27 8.5,27 C9.708,27 10.717,26.139 10.949,25 L21.051,25 C21.283,26.139 22.292,27 23.5,27 C24.879,27 26,25.878 26,24.5 C26,23.121 24.879,22 23.5,22 L23.5,22 Z" id="AWS-Deep-Learning-AMIs_32_Squid"></path> </g> </g></svg>