<svg width="20" height="20" viewBox="0 0 20 20" fill="none" xmlns="http://www.w3.org/2000/svg"><g clip-path="url(#a)" fill="#e03875"><path fill-rule="evenodd" clip-rule="evenodd" d="M9.626 12.114c-1.17 0-2.082-.94-2.082-2.147 0-1.208.911-2.148 2.082-2.148 1.17 0 2.081.94 2.081 2.148 0 1.208-.91 2.147-2.081 2.147Zm4.064-1.14a.994.994 0 0 1-.975-1.007c0-.537.423-1.007.976-1.007.52 0 .975.436.975 1.007a.994.994 0 0 1-.975 1.006Zm3.513.939a.947.947 0 0 1-1.17.704c-.521-.134-.814-.67-.684-1.208a.948.948 0 0 1 1.17-.705.985.985 0 0 1 .716 1.141s0 .034-.033.067h.001Zm-.684-2.551c-.52.134-1.04-.202-1.17-.739a1.002 1.002 0 0 1 .715-1.208c.52-.134 1.04.202 1.17.739a.843.843 0 0 1 0 .402.91.91 0 0 1-.715.806Zm3.446 2.416c-.098.536-.585.906-1.105.805a.984.984 0 0 1-.78-1.14c.097-.538.584-.907 1.105-.806.488.1.846.57.813 1.073-.032.034-.032.034-.032.068Zm-.779-2.482c-.52.1-1.008-.269-1.105-.806a.984.984 0 0 1 .78-1.14c.52-.101 1.008.268 1.106.805 0 .1.033.168 0 .268a.951.951 0 0 1-.78.873Zm-.682 5.94a.941.941 0 0 1-1.301.368 1.005 1.005 0 0 1-.358-1.342.941.941 0 0 1 1.3-.37c.326.202.521.571.489.94a1.934 1.934 0 0 1-.13.403Zm-.358-9.128a.941.941 0 0 1-1.3-.37 1.005 1.005 0 0 1 .357-1.342.941.941 0 0 1 1.3.37c.098.2.13.369.13.57a1.007 1.007 0 0 1-.487.772"/><path d="M9.658 20c-2.601 0-5.008-1.04-6.861-2.92A10.35 10.35 0 0 1 0 10c0-2.685 1.008-5.168 2.83-7.081C4.65 1.04 7.09 0 9.657 0a9.4 9.4 0 0 1 5.886 2.047l-1.203 1.61c-1.364-1.071-2.99-1.642-4.68-1.642-2.049 0-4 .839-5.463 2.349C2.733 5.873 1.952 7.853 1.952 10a8.08 8.08 0 0 0 2.277 5.638 7.5 7.5 0 0 0 5.463 2.315 7.4 7.4 0 0 0 4.683-1.644l1.17 1.61C13.855 19.261 11.805 20 9.66 20Z"/></g><defs><clipPath id="a"><path fill="#fff" d="M0 0h20v20H0z"/></clipPath></defs></svg>