<svg xmlns="http://www.w3.org/2000/svg" role="img" viewBox="31.21 -1.78 291.82 365.82"><style>svg {enable-background:new 0 0 360 360}</style><style>.st2{fill:#fff}</style><path fill="none" d="M272.257 184.478l-2.953-2.188-2.084 2.779-.86 7.216zm4.813 5.688l-2.953-2.188-8.594 11.328-.882 7.398zm-82.586 135.528l-2.625-4.704c-.984-1.75-3.5-3.172-5.578-3.172h-10.939c-2.078 0-4.704 1.313-6.016 2.954l-4.157 5.25c-1.312 1.641-3.938 3.172-6.016 3.5l-2.223.314.363 10.763c0 .487-.166.95-.437 1.336v.75a493.023 493.023 0 0 1 21.22-.445c8.872 0 17.303.223 24.94.623v-.787a2.345 2.345 0 0 1-.546-1.477l.365-10.822-2.881-.364c-2.079-.219-4.485-1.969-5.47-3.719zM77.552 201.323l13.533 18.008-.879-7.407-9.701-12.789zm78.41 141.379l-.02.024.61-.029c-.046-.091-.106-.178-.16-.268a2.2 2.2 0 0 1-.43.273zm47.289.174l.841.045c-.048-.053-.09-.109-.136-.164a2.155 2.155 0 0 1-.514-.267 3.283 3.283 0 0 0-.19.386zM87.715 190.906l-.145-1.222-.502.372zm-5.35 4.729l7.011 9.282-.853-7.197-3.205-4.273z"/><path fill="#fff" d="M226.862 348.475l-9.735-2.297-10.063-1.64c-1.164-.175-2.224-.79-2.972-1.617l-.84-.045c-.142.333-.236.672-.236 1.005v-1.018c-7.637-.4-16.068-.623-24.94-.623-7.452 0-14.597.157-21.22.444v1.197c0-.392-.112-.795-.305-1.184l-.608.029c-.75.925-1.882 1.623-3.134 1.811l-10.064 1.64-9.735 2.298c-2.188.547-4.047-.875-4.047-3.172v-.19c-8.218 1.26-13.127 2.843-13.127 4.565 0 4.108 27.866 7.438 62.24 7.438s62.24-3.33 62.24-7.438c0-1.445-3.46-2.793-9.43-3.935-.223 2.035-1.98 3.243-4.024 2.732z" opacity=".5"/><path d="M77.552 201.323l2.953-2.188 9.701 12.789-.83-7.007-7.011-9.282 2.953-2.188 3.205 4.273-.808-6.814-.647-.85.502-.372-2.877-24.268C72.59 163.168 63.77 152.913 63.77 139.52v-1.724c-12.204 2.424-25.865 11.85-25.268 25.789.984 22.643 47.036 73.944 47.036 73.944l5.56-18.097-.012-.101-13.533-18.008zm215.488-74.177v12.374c0 14.334-10.1 25.076-23.52 26.251l-2.3 19.298 2.084-2.78 2.953 2.189-5.897 7.807-.837 7.021 8.594-11.328 2.953 2.188-12.429 16.538-.447 3.75 4.891 15.918s46.051-50.973 47.036-73.944c.562-13.111-11.49-22.228-23.08-25.282zM156.278 342.255c.357-.58.578-1.218.578-1.874v1.554c.271-.385.437-.85.437-1.336l-.363-10.763-14.82 2.093.285 8.452h10.304c1.535 0 2.859.834 3.58 1.874zm-11.564.97c-1.203 0-2.297-.985-2.297-2.188l-.022-.656h-9.385a4.155 4.155 0 0 0-4.157 4.156h.11v.575c5.493-.842 12.465-1.54 20.458-2.036l-4.707.149z" class="st2"/><path d="M155.892 342.728l.05-.002.02-.024c-.022.011-.047.017-.07.026z"/><path d="M133.01 348.475l9.735-2.297 10.064-1.64c1.252-.189 2.384-.887 3.134-1.812l-.051.002a2 2 0 0 1-.786.168l-5.685.18c-7.993.496-14.965 1.194-20.458 2.036v.19c0 2.298 1.86 3.72 4.047 3.173zm11.704-5.25l4.707-.15c2.09-.129 4.249-.245 6.47-.347.024-.01.049-.015.071-.026.116-.144.22-.292.316-.447-.72-1.04-2.044-1.874-3.579-1.874h-10.304l.022.656c0 1.203 1.094 2.188 2.297 2.188zm57.756-2.625c0 .547.21 1.066.546 1.476v-1.695c0 .656.222 1.295.578 1.874.72-1.04 2.045-1.874 3.58-1.874h10.194l.295-8.733-14.828-1.871-.365 10.822z" class="st2"/><path d="M215.049 343.225l-10.392-.329c-.246 0-.48-.055-.701-.139.045.055.088.111.136.164 11.07.61 20.383 1.596 26.793 2.822a4.05 4.05 0 0 0 .025-.44v-.766h.11a4.155 4.155 0 0 0-4.158-4.156h-9.494l-.022.656c0 1.203-1.094 2.188-2.297 2.188z" class="st2"/><path d="M207.064 344.537l10.063 1.64 9.735 2.298c2.045.511 3.801-.697 4.023-2.732-6.41-1.226-15.723-2.212-26.793-2.822.748.827 1.808 1.442 2.972 1.616zm-3.47-2.282c.108.175.229.34.362.502.221.084.455.14.701.14l10.392.328c1.203 0 2.297-.985 2.297-2.188l.022-.656h-10.195c-1.534 0-2.859.834-3.579 1.874z" class="st2"/><path fill="#fff" d="M264.641 206.704l.882-7.398-3.438 4.533-1.313-4.157 5.588-7.397.86-7.216-7.76 10.347-1.313-4.157 9.407-12.36-2.954-2.188-7.766 10.282-5.47-17.392s1.174-1.986 2.98-5.063l-61.172-7.516c-8.204-.985-21.44-.985-29.534 0l-69.3 8.514a2923.94 2923.94 0 0 0 8.92 15.223l-5.47 17.392-7.767-10.282-2.45 1.815.144 1.222 8.76 11.51-1.312 4.157-6.64-8.853.853 7.197 4.474 5.922-1.313 4.157-2.33-3.072.878 7.407.03.04-.018.061 1.852 15.625c5.762 3.907 30.984 18.881 75.392 15.927 47.14-3.244 88.543-24.806 94.354-27.946l1.5-12.585-.688-2.239 1.134-1.51zm-65.234-18.398l-19.47 41.676c-.876 1.86-2.298 1.86-3.282 0l-21.33-41.676c-.985-1.86-.547-4.485.875-5.907l18.486-18.486c1.422-1.422 3.828-1.422 5.25 0l18.377 18.377c1.422 1.422 1.969 4.157 1.094 6.016zm63.881-132.903c2.167 0 4.278.239 6.315.68C255.94 25.777 225.616 5.306 188.03 5.306h-21.768c-37.904 0-68.422 20.82-81.915 51.551a29.635 29.635 0 0 1 9.174-1.453h169.766z" opacity=".8"/><path d="M95.163 206.573l1.312-4.156-8.76-11.511.808 6.814zm-4.078 12.758l.012.101.018-.06zm-6.392-53.915l2.877 24.268 2.451-1.815 7.767 10.282 5.47-17.392s-4.169-7.056-8.92-15.223l-1.035.127c-2.995.362-5.885.259-8.61-.247zm7.844 49.58l1.313-4.157-4.474-5.922.83 7.007zm170.97-6.782l.687 2.239.447-3.749zm-1.422-4.375l3.438-4.533.837-7.021-5.588 7.397zm1.422-38.176l-9.162-1.125c-1.807 3.077-2.98 5.063-2.98 5.063l5.469 17.392 7.766-10.282 2.954 2.188-9.407 12.36 1.312 4.157 7.76-10.347 2.3-19.298c-1.941.17-3.952.141-6.012-.108z" class="st2"/><path d="M84.693 165.416L82.166 144.1a73.563 73.563 0 0 1-.786-1.517c-2.408-4.989-9.704-6.357-17.611-4.787v1.724c0 13.393 8.82 23.648 20.924 25.896z"/><radialGradient id="SVGID_1_" cx="-754.841" cy="511.726" r="2.959" gradientTransform="matrix(-38.7287 45.0999 -45.1 -38.7286 -5976.762 53937.52)" gradientUnits="userSpaceOnUse"><stop offset="0" stop-color="#fff"/><stop offset="1" stop-color="#fff"/></radialGradient><path fill="url(#SVGID_1_)" d="M84.693 165.416L82.166 144.1a73.563 73.563 0 0 1-.786-1.517c-2.408-4.989-9.704-6.357-17.611-4.787v1.724c0 13.393 8.82 23.648 20.924 25.896z"/><path d="M273.711 130.604l-4.191 35.167c13.42-1.175 23.52-11.917 23.52-26.25v-12.375c-8.255-2.176-16.27-1.272-19.329 3.458z"/><radialGradient id="SVGID_2_" cx="-754.841" cy="511.726" r="2.959" gradientTransform="matrix(-38.7287 45.0999 -45.1 -38.7286 -5976.762 53937.52)" gradientUnits="userSpaceOnUse"><stop offset="0" stop-color="#fff"/><stop offset="1" stop-color="#fff"/></radialGradient><path fill="url(#SVGID_2_)" d="M273.711 130.604l-4.191 35.167c13.42-1.175 23.52-11.917 23.52-26.25v-12.375c-8.255-2.176-16.27-1.272-19.329 3.458z"/><path d="M154.45 104.298c0-1.969-1.204-2.625-3.392-2.625h-2.297v5.579h2.297c2.298 0 3.391-.985 3.391-2.954z" class="st2"/><radialGradient id="SVGID_3_" cx="-754.841" cy="511.726" r="2.959" gradientTransform="matrix(-38.7287 45.0999 -45.1 -38.7286 -5976.762 53937.52)" gradientUnits="userSpaceOnUse"><stop offset="0" stop-color="#7f7f7f"/><stop offset="1"/></radialGradient><path fill="url(#SVGID_3_)" d="M154.45 104.298c0-1.969-1.204-2.625-3.392-2.625h-2.297v5.579h2.297c2.298 0 3.391-.985 3.391-2.954z"/><path d="M171.404 104.189c0-1.86-1.203-2.407-3.39-2.407h-2.08v5.141h2.08c2.187 0 3.39-.984 3.39-2.734z" class="st2"/><radialGradient id="SVGID_4_" cx="-754.841" cy="511.726" r="2.959" gradientTransform="matrix(-38.7287 45.0999 -45.1 -38.7286 -5976.762 53937.52)" gradientUnits="userSpaceOnUse"><stop offset="0" stop-color="#7f7f7f"/><stop offset="1"/></radialGradient><path fill="url(#SVGID_4_)" d="M171.404 104.189c0-1.86-1.203-2.407-3.39-2.407h-2.08v5.141h2.08c2.187 0 3.39-.984 3.39-2.734z"/><path d="M84.693 165.416c2.725.506 5.615.61 8.61.247l1.036-.127c-4.594-7.899-9.728-16.828-12.173-21.436l2.527 21.316z" class="st2"/><radialGradient id="SVGID_5_" cx="-754.841" cy="511.726" r="2.959" gradientTransform="matrix(-38.7287 45.0999 -45.1 -38.7286 -5976.762 53937.52)" gradientUnits="userSpaceOnUse"><stop offset="0" stop-color="#fff"/><stop offset="1" stop-color="#fff"/></radialGradient><path fill="url(#SVGID_5_)" d="M84.693 165.416c2.725.506 5.615.61 8.61.247l1.036-.127c-4.594-7.899-9.728-16.828-12.173-21.436l2.527 21.316z"/><path d="M273.242 131.426c-2.775 5.55-13.586 24.066-18.897 33.112l9.162 1.125c2.06.25 4.07.278 6.013.108l4.191-35.167a7.61 7.61 0 0 0-.47.822z" class="st2"/><radialGradient id="SVGID_6_" cx="-754.841" cy="511.726" r="2.959" gradientTransform="matrix(-38.7287 45.0999 -45.1 -38.7286 -5976.762 53937.52)" gradientUnits="userSpaceOnUse"><stop offset="0" stop-color="#fff"/><stop offset="1" stop-color="#fff"/></radialGradient><path fill="url(#SVGID_6_)" d="M273.242 131.426c-2.775 5.55-13.586 24.066-18.897 33.112l9.162 1.125c2.06.25 4.07.278 6.013.108l4.191-35.167a7.61 7.61 0 0 0-.47.822z"/><ellipse cx="83.896" cy="77.389" class="st2" rx="5.251" ry="5.36"/><path d="M218.168 316.687l-.505 14.961 4.824.61c2.078.327 4.485-.985 5.36-2.845l7.985-16.08 1.094-.437c10.282-4.594 21.986-16.845 26.034-27.346 0 0 2.844-2.954 4.594-19.471 1.75-16.517-4.157-43.426-4.157-43.426s-.243.137-.702.385l-6.408 53.76c-2.327 19.878-18.667 36.392-38.12 39.89zm-59.015 12.836c2.078-.329 4.704-1.86 6.016-3.5l4.157-5.251c1.312-1.641 3.938-2.954 6.016-2.954h10.939c2.078 0 4.594 1.422 5.578 3.172l2.625 4.704c.985 1.75 3.391 3.5 5.47 3.72l2.88.363.42-12.396H156.51l.42 12.455 2.223-.313zm-61.256-52.724l-4.948-41.742a25.809 25.809 0 0 1-1.287-.918l-1.86 16.189c-1.312 11.157 1.095 28.768 5.251 39.269l1.094 2.734c2.953 7.548 11.704 15.97 19.47 18.815l9.736 3.5c1.969.656 4.266 2.735 5.141 4.594l4.813 10.064c.875 1.86 3.172 3.172 5.25 2.844l1.553-.22-.493-14.597c-21.73-1.036-41.066-18.775-43.72-40.532z" class="st2"/><path d="M156.51 317.38h-12.89c-.67 0-1.337-.018-2.003-.05l.493 14.599 14.82-2.093-.42-12.455zm54.054 0h-7.31l-.42 12.397 14.829 1.871.505-14.96a42.953 42.953 0 0 1-7.604.693zm13.346-59.942c.437-.11.655-.329.765-.547.11-.22 0-.657-.11-1.094-.109-.547-.328-.875-.547-.985-.218-.218-.546-.218-.875-.11l-2.078.548.766 2.734 2.078-.546z" class="st2"/><path d="M92.949 235.057l4.948 41.742c2.654 21.757 21.99 39.496 43.72 40.532l-.075-2.218c0-1.204.984-2.298 2.188-2.298l10.391-.328c1.203 0 2.297.985 2.297 2.188l.092 2.706h46.743l.092-2.706c0-1.203 1.093-2.188 2.297-2.188l10.391.328c1.204 0 2.188 1.094 2.188 2.298l-.053 1.574c19.452-3.497 35.792-20.01 38.12-39.888l6.407-53.761c-5.811 3.14-47.214 24.702-94.354 27.946-44.408 2.954-69.63-12.02-75.392-15.927zm154.478 9.692l3.61-.985 3.719 13.892-3.72.985-2.734-10.392-2.078.985-.657-2.297 1.86-2.188zm-3.938 1.094l1.313 1.203-.985 13.564-3.938 1.094.875-11.595-5.469 1.422-.875-3.282 9.079-2.406zm-7.876 9.407l.766 2.953-5.907 1.641-.765-2.953 5.906-1.641zm-12.907-3.938c1.312-.328 2.516-.328 3.39.219.876.547 1.642 1.531 2.08 3.172.437 1.531.437 2.735.218 3.39-.219.33-.328.548-.438.767-.109.218-.328.328-.656.547l3.829 4.594-4.157 1.094-3.063-4.376h-1.203l1.422 5.141-3.938.985-3.72-13.892 6.236-1.641zm-16.299 5.36c.547-.766 1.313-1.422 2.407-1.75.437-.22.984-.328 1.422-.438 1.75-.437 3.281-.656 4.594-.547l.766 2.844a95.233 95.233 0 0 0-4.594.985c-.547.11-.875.328-1.094.437-.219.11-.219.438-.11.766l.11.219c.11.328.219.547.437.656.22.11.547.11.985 0l1.75-.437c1.531-.438 2.735 0 3.61 1.093.437.547.765 1.204.984 1.97l.219.656c.766 2.844-.11 4.594-2.735 5.25-1.86.547-3.063.766-3.61.875-.546.11-1.421.11-2.406 0l-.766-2.844a37.433 37.433 0 0 0 4.923-1.094c.437-.11.656-.218.765-.437.11-.219.22-.438.11-.657l-.11-.328c-.109-.328-.218-.437-.328-.547-.219-.109-.437-.109-.875 0l-1.75.438a3.653 3.653 0 0 1-1.86.11c-.547-.11-.984-.22-1.312-.548a3.328 3.328 0 0 1-.875-.875c-.219-.437-.547-.984-.657-1.64l-.328-1.204c-.328-1.203-.219-2.187.328-2.953z" class="st2"/><path d="M156.51 317.38l-.092-2.705c0-1.203-1.094-2.188-2.297-2.188l-10.391.328c-1.204 0-2.188 1.094-2.188 2.298l.075 2.218c.666.031 1.333.05 2.003.05h12.89zm61.658-.693l.053-1.574c0-1.204-.984-2.298-2.188-2.298l-10.391-.328c-1.204 0-2.297.985-2.297 2.188l-.092 2.706h7.311c2.571 0 5.112-.246 7.604-.694z" class="st2"/><radialGradient id="SVGID_7_" cx="169.107" cy="107.689" r="8.371" gradientUnits="userSpaceOnUse"><stop offset="0" stop-color="#fff"/><stop offset="1" stop-color="#fff"/></radialGradient><path fill="url(#SVGID_7_)" d="M168.013 101.782h-2.078v5.141h2.078c2.188 0 3.391-.984 3.391-2.734 0-1.86-1.203-2.407-3.39-2.407z"/><radialGradient id="SVGID_8_" cx="151.605" cy="107.58" r="8.168" gradientUnits="userSpaceOnUse"><stop offset="0" stop-color="#fff"/><stop offset="1" stop-color="#fff"/></radialGradient><path fill="url(#SVGID_8_)" d="M151.058 101.673h-2.297v5.579h2.297c2.298 0 3.391-.985 3.391-2.954 0-1.969-1.203-2.625-3.39-2.625z"/><radialGradient id="SVGID_9_" cx="-754.841" cy="511.726" r="2.959" gradientTransform="matrix(-38.7287 45.0999 -45.1 -38.7286 -5976.762 53937.52)" gradientUnits="userSpaceOnUse"><stop offset="0" stop-color="#fff"/><stop offset="1" stop-color="#fff"/></radialGradient><path fill="url(#SVGID_9_)" d="M269.603 56.084c6.536 14.5 9.263 31.249 7.14 49.09l-3.032 25.43c3.058-4.73 11.074-5.634 19.33-3.458v-41.99c0-14.241-10.055-26.169-23.438-29.072z"/><radialGradient id="SVGID_10_" cx="-754.841" cy="511.726" r="2.959" gradientTransform="matrix(-38.7287 45.0999 -45.1 -38.7286 -5976.762 53937.52)" gradientUnits="userSpaceOnUse"><stop offset="0" stop-color="#fff"/><stop offset="1" stop-color="#fff"/></radialGradient><path fill="url(#SVGID_10_)" d="M269.603 56.084a29.745 29.745 0 0 0-6.315-.681H93.522a29.65 29.65 0 0 0-9.174 1.453c-11.93 3.876-20.579 15.093-20.579 28.3v52.64c7.907-1.57 15.203-.202 17.611 4.787.215.429.482.943.786 1.517 2.445 4.608 7.579 13.537 12.173 21.436l69.299-8.514c8.094-.985 21.33-.985 29.534 0l61.173 7.516c5.311-9.046 16.122-27.562 18.897-33.112.139-.288.299-.559.47-.822l3.03-25.43c2.124-17.841-.603-34.59-7.14-49.09zM78.645 77.389c0-2.96 2.351-5.36 5.25-5.36 2.9 0 5.251 2.4 5.251 5.36 0 2.96-2.35 5.36-5.25 5.36s-5.25-2.4-5.25-5.36zm17.502 24.503h-5.032v14.985H86.96v-14.985h-5.141v-3.5h14.33v3.5zm14.658 14.985H98.99V98.391h11.595v3.5h-7.438v3.72h6.344v3.5h-6.344v4.266h7.657v3.5zm15.204 0h-11.485V98.391h4.156v14.986h7.33v3.5zm14.877 0h-11.814V98.391h11.595v3.5h-7.438v3.72h6.344v3.5h-6.344v4.266h7.657v3.5zm10.5-6.344h-2.625v6.235h-4.156V98.391h6.782c4.047 0 7.219 1.422 7.219 5.907 0 4.376-3.282 6.235-7.22 6.235zm20.346 6.454v-.11l-3.5-6.672h-2.297v6.672h-4.157V98.391h6.673c3.938 0 7.11 1.313 7.11 5.798 0 2.734-1.313 4.485-3.282 5.36l4.157 7.438h-4.704zm19.252-.11h-11.923V98.391h11.704v3.5h-7.438v3.72h6.345v3.5h-6.345v4.266h7.657v3.5zm9.407.547a10.45 10.45 0 0 1-6.891-2.625l2.297-3.063c1.313 1.094 2.953 1.97 4.485 1.97 1.75 0 2.625-.657 2.625-1.75 0-1.204-1.094-1.532-2.625-2.189l-2.407-.984c-1.969-.766-3.719-2.406-3.719-5.032 0-3.063 2.735-5.469 6.563-5.469 2.079 0 4.376.875 5.907 2.406l-2.078 2.626c-1.203-.985-2.407-1.422-3.829-1.422s-2.297.656-2.297 1.64c0 1.094 1.204 1.532 2.844 2.188l2.407.985c2.188.875 3.61 2.406 3.61 5.031 0 3.063-2.516 5.688-6.892 5.688zm21.768-.547h-11.923V98.391h11.704v3.5h-7.438v3.72h6.344v3.5h-6.344v4.266h7.657v3.5zm18.048-.109h-4.266l-4.812-9.188-1.86-4.047h-.11c.22 2.078.548 4.484.548 6.672v6.563h-4.048V98.391h4.376l4.813 9.189 1.86 4.047h.109c-.22-1.969-.547-4.594-.547-6.782v-6.563h3.937v18.486zm12.033.438c-4.813 0-8.75-3.282-8.75-9.517.218-6.016 4.265-9.626 8.969-9.626 2.297 0 4.266 1.094 5.469 2.407l-2.297 2.625c-.985-.875-1.86-1.422-3.172-1.422-2.626 0-4.595 2.188-4.595 5.907 0 3.828 1.75 6.016 4.485 6.016 1.532 0 2.625-.656 3.5-1.64l2.298 2.515c-1.532 1.75-3.61 2.735-5.907 2.735zm20.564-.329h-11.923V98.391h11.705v3.5h-7.439v3.72h6.345v3.5h-6.345v4.266h7.657v3.5z"/></svg>