<svg width="40" height="40" viewBox="0 0 40 40" fill="none" xmlns="http://www.w3.org/2000/svg">
<g clip-path="url(#clip0_23298_3927)">
<path d="M40 0H0V40H40V0Z" fill="#01A88D" fill-opacity="0.12"/>
<path fill-rule="evenodd" clip-rule="evenodd" d="M26.032 8.99921V11.9654L24.4338 9.71027L23.6146 10.2883L26.1244 13.8296C26.2187 13.9616 26.3713 14.0416 26.534 14.0416C26.6966 14.0416 26.8492 13.9616 26.9436 13.8296L29.4533 10.2883L28.6341 9.71027L27.0359 11.9654V8.99921C27.0359 7.15108 25.8824 6.003 24.0242 6.003H22.0164V7.00307H24.0242C25.3192 7.00307 26.032 7.71212 26.032 8.99921ZM13.9852 30.9798V28.0346L15.5834 30.2897L16.4026 29.7117L13.8928 26.1704C13.7051 25.9054 13.2613 25.9054 13.0736 26.1704L10.5639 29.7117L11.383 30.2897L12.9813 28.0346V30.9798C12.9813 32.8419 14.1347 33.999 15.993 33.999H18.0008V32.9989H15.993C14.6979 32.9989 13.9852 32.2819 13.9852 30.9798ZM26.9616 26.8845C27.57 26.2304 28.0458 25.4534 28.4052 24.5213H25.4638C25.8312 25.4314 26.3342 26.2234 26.9616 26.8845ZM30.9381 29.1367C30.9632 29.2247 30.9391 29.3197 30.8738 29.3847C30.7724 29.4857 30.6178 29.7007 30.5375 29.8537C30.4924 29.9377 30.406 29.9877 30.3147 29.9877C30.2936 29.9877 30.2735 29.9857 30.2514 29.9797C28.9463 29.6457 27.8571 29.1077 26.9285 28.3396C26.0531 29.0306 24.9789 29.5647 23.6548 29.9687C23.5293 30.0077 23.3968 29.9437 23.3476 29.8237C23.3054 29.7227 23.1699 29.5217 23.0755 29.4047C23.0223 29.3387 23.0052 29.2507 23.0313 29.1707C23.0564 29.0896 23.1207 29.0276 23.202 29.0046C24.3956 28.6636 25.3654 28.2056 26.1555 27.6055C25.3945 26.7695 24.7842 25.7334 24.3364 24.5213H23.3426C23.204 24.5213 23.0906 24.4093 23.0906 24.2703V23.7483C23.0906 23.6093 23.204 23.4972 23.3426 23.4972H26.4185V22.3642C26.4185 22.2942 26.4466 22.2282 26.4978 22.1812C26.548 22.1332 26.6163 22.1122 26.6866 22.1131L27.3923 22.1612C27.4636 22.1662 27.5278 22.1992 27.572 22.2532C27.6162 22.3072 27.6363 22.3772 27.6262 22.4472C27.6182 22.5032 27.5871 22.6142 27.4706 22.6932V23.4972H30.6008C30.7393 23.4972 30.8528 23.6093 30.8528 23.7483V24.2703C30.8528 24.4093 30.7393 24.5213 30.6008 24.5213H29.6993C29.6601 24.5873 29.5929 24.6533 29.4764 24.6873C29.0467 25.8484 28.4775 26.8035 27.7417 27.5925C28.591 28.2406 29.6019 28.7016 30.7514 28.9616C30.8407 28.9816 30.912 29.0496 30.9381 29.1367ZM15.3204 16.6088L13.9942 12.7685L12.6781 16.6088H15.3204ZM14.6397 11.7284L17.543 19.557H16.3413L15.6155 17.4788H12.3839L11.6812 19.557H10.4906L13.3929 11.7284H14.6397ZM32.9961 32.9999V20.057H28.5829C28.3059 20.057 28.081 19.833 28.081 19.557V15.9787H20.9703V32.9999H32.9961ZM29.0849 19.0569H32.1137L29.0849 16.5418V19.0569ZM34 19.557V33.5C34 33.776 33.7761 34 33.498 34H20.4684C20.1913 34 19.9664 33.776 19.9664 33.5V15.4787C19.9664 15.2027 20.1913 14.9786 20.4684 14.9786H28.5829C28.6984 14.9786 28.8128 15.0136 28.9042 15.0896L33.8203 19.1729C33.9357 19.2699 34 19.412 34 19.557ZM17.026 9.95828H19.2627L17.026 7.71312V9.95828ZM8.0039 17.9999H7V6.50204C7 6.22602 7.22487 6.002 7.50195 6.002L16.524 6C16.6545 6 16.783 6.051 16.8804 6.14801L20.8248 10.1063C20.9191 10.2013 20.9703 10.3293 20.9703 10.4583V12.9995H19.9664V10.9584H16.524C16.247 10.9584 16.0221 10.7343 16.0221 10.4583V7.00007L8.0039 7.00207V17.9999ZM8.0039 24.0213H18.0008V25.0214H7.50195C7.22487 25.0214 7 24.7973 7 24.5213V21.0001H8.0039V24.0213Z" fill="#01A88D"/>
</g>
<rect x="0.5" y="0.5" width="39" height="39" stroke="#01A88D"/>
<defs>
<clipPath id="clip0_23298_3927">
<rect width="40" height="40" fill="white"/>
</clipPath>
</defs>
</svg>
