<svg width="40" height="40" viewBox="0 0 40 40" fill="none" xmlns="http://www.w3.org/2000/svg">
<g clip-path="url(#clip0_23295_2994)">
<path d="M40 0H0V40H40V0Z" fill="#E7157B" fill-opacity="0.12"/>
<path fill-rule="evenodd" clip-rule="evenodd" d="M33.5788 14.5271L31.8138 13.7252C34.351 18.4063 33.66 24.4111 29.9175 28.5842C27.3442 31.4534 23.6197 33 19.834 33C17.9507 33 16.0524 32.6173 14.2723 31.8243L14.6855 30.9258C19.6465 33.1361 25.6003 31.9052 29.1654 27.9323C32.6813 24.0116 33.295 18.3491 30.827 13.9984L30.5222 16.121L29.5294 15.9829L30.0248 12.5248C30.0478 12.37 30.1421 12.2358 30.2815 12.1609C30.4209 12.0859 30.5894 12.081 30.7318 12.1461L34 13.6315L33.5788 14.5271ZM10.8748 12.0623C7.3468 15.9967 6.75312 20.8761 9.18799 25.0749L9.4718 22.8931L10.4666 23.0184L10.0073 26.5534C9.98725 26.7102 9.89098 26.8483 9.74858 26.9242C9.67437 26.9637 9.59213 26.9834 9.5099 26.9834C9.43569 26.9834 9.36148 26.9676 9.29229 26.9351L6 25.3727L6.43523 24.485L8.17413 25.3096C5.68411 20.7942 6.36202 15.6032 10.1226 11.4103C13.9705 7.12175 20.3876 5.79218 25.7206 8.16922L25.3075 9.06777C20.3655 6.86431 14.4328 8.09722 10.8748 12.0623ZM14.4087 23.4898C14.4087 22.8103 14.9703 22.2569 15.6623 22.2569C16.3532 22.2569 16.9158 22.8103 16.9158 23.4898C16.9158 24.1704 16.3532 24.7227 15.6623 24.7227C14.9703 24.7227 14.4087 24.1704 14.4087 23.4898ZM19.6896 17.5028C19.8922 17.561 20.1018 17.6025 20.3214 17.6025C20.528 17.6025 20.7245 17.566 20.9141 17.5147L22.9929 21.7154C22.5687 22.0251 22.2589 22.4749 22.1375 22.9967H17.8575C17.7391 22.4867 17.4393 22.0478 17.0311 21.7381L19.6896 17.5028ZM20.3214 14.1493C21.0134 14.1493 21.5759 14.7027 21.5759 15.3822C21.5759 16.0628 21.0134 16.6161 20.3214 16.6161C19.6305 16.6161 19.0679 16.0628 19.0679 15.3822C19.0679 14.7027 19.6305 14.1493 20.3214 14.1493ZM25.5863 23.4898C25.5863 24.1704 25.0247 24.7227 24.3327 24.7227C23.6418 24.7227 23.0792 24.1704 23.0792 23.4898C23.0792 22.8103 23.6418 22.2569 24.3327 22.2569C25.0247 22.2569 25.5863 22.8103 25.5863 23.4898ZM17.8575 23.983H22.1375C22.3662 24.9693 23.2627 25.7091 24.3327 25.7091C25.5772 25.7091 26.5891 24.7139 26.5891 23.4898C26.5891 22.2668 25.5772 21.2706 24.3327 21.2706C24.1873 21.2706 24.0459 21.2874 23.9085 21.313L21.7986 17.0481C22.2729 16.6408 22.5788 16.049 22.5788 15.3822C22.5788 14.1582 21.5659 13.163 20.3214 13.163C19.0779 13.163 18.065 14.1582 18.065 15.3822C18.065 16.0332 18.3569 16.6142 18.8121 17.0205L16.1165 21.316C15.9691 21.2864 15.8177 21.2706 15.6623 21.2706C14.4188 21.2706 13.4059 22.2668 13.4059 23.4898C13.4059 24.7139 14.4188 25.7091 15.6623 25.7091C16.7323 25.7091 17.6288 24.9693 17.8575 23.983Z" fill="#E7157B"/>
</g>
<rect x="0.5" y="0.5" width="39" height="39" stroke="#E7157B"/>
<defs>
<clipPath id="clip0_23295_2994">
<rect width="40" height="40" fill="white"/>
</clipPath>
</defs>
</svg>
