<svg width="40" height="40" viewBox="0 0 40 40" fill="none" xmlns="http://www.w3.org/2000/svg">
<g clip-path="url(#clip0_23296_3375)">
<path d="M40 0H0V40H40V0Z" fill="#ED7100" fill-opacity="0.12"/>
<path fill-rule="evenodd" clip-rule="evenodd" d="M27.271 27.4178C26.568 28.1478 25.4 28.1708 24.669 27.4688C24.315 27.1288 24.115 26.6698 24.105 26.1788C24.096 25.6878 24.278 25.2218 24.619 24.8678C24.959 24.5138 25.417 24.3138 25.909 24.3038C25.921 24.3038 25.933 24.3028 25.946 24.3028C26.423 24.3028 26.875 24.4848 27.219 24.8168C27.951 25.5198 27.974 26.6868 27.271 27.4178ZM25.889 23.3038C25.13 23.3188 24.423 23.6278 23.898 24.1748C23.373 24.7218 23.09 25.4398 23.105 26.1988C23.121 26.9568 23.429 27.6648 23.976 28.1898C24.526 28.7188 25.236 28.9808 25.944 28.9808C26.69 28.9808 27.435 28.6898 27.992 28.1108C28.517 27.5638 28.798 26.8458 28.784 26.0868C28.769 25.3288 28.459 24.6218 27.913 24.0958C27.366 23.5708 26.654 23.3138 25.889 23.3038ZM31.752 30.0348L29.475 29.5788C29.337 29.5518 29.195 29.5818 29.082 29.6658L28.12 30.3688C28.007 30.4508 27.934 30.5758 27.917 30.7138L27.649 33.0118L24.053 33.0078L23.788 30.7258C23.771 30.5888 23.699 30.4638 23.588 30.3818L22.616 29.6618C22.502 29.5788 22.359 29.5468 22.22 29.5738L19.958 30.0258L18.848 26.6058L20.964 25.6348C21.091 25.5768 21.188 25.4678 21.232 25.3348L21.597 24.2148C21.64 24.0818 21.626 23.9368 21.557 23.8148L20.418 21.7878L23.33 19.6768L24.894 21.3758C24.989 21.4778 25.123 21.5368 25.262 21.5368H25.265L26.475 21.5298C26.614 21.5288 26.746 21.4708 26.839 21.3688L28.396 19.6808L31.304 21.7958L30.169 23.8148C30.101 23.9368 30.086 24.0798 30.128 24.2118L30.489 25.3448C30.532 25.4788 30.628 25.5878 30.756 25.6468L32.866 26.6158L31.752 30.0348ZM17.996 32.4168L7 26.6808V12.2798L16 7.34484V11.8648L11.254 14.5488C11.097 14.6368 11 14.8038 11 14.9838V23.9838C11 24.1658 11.1 24.3338 11.259 24.4218L17.759 27.9998C17.91 28.0828 18.091 28.0828 18.242 27.9998L18.249 27.9968L19.143 30.7578C19.22 30.9988 19.47 31.1428 19.716 31.0938L20.829 30.8718L17.996 32.4168ZM20 11.8398V7.30884L30 12.2928V19.6118L28.625 18.6098C28.42 18.4608 28.135 18.4878 27.963 18.6758L26.252 20.5308L26 20.5328V14.9838C26 14.7908 25.889 14.6138 25.713 14.5318L20 11.8398ZM33.688 25.8928L31.375 24.8308L31.147 24.1158L32.393 21.8988C32.518 21.6778 32.457 21.3988 32.251 21.2498L31 20.3388V11.9838C31 11.7938 30.893 11.6208 30.723 11.5368L19.723 6.05284C19.568 5.97584 19.384 5.98284 19.238 6.07484C19.09 6.16684 19 6.32684 19 6.50084V12.1568C19 12.3498 19.112 12.5258 19.288 12.6088L25 15.3008V20.0148L23.764 18.6718C23.591 18.4848 23.309 18.4578 23.102 18.6058L19.764 21.0268L18.464 19.3848L21.717 15.3078H20.273L17.404 18.6778V15.3078H16.117V23.6678H17.404V19.8088L20.03 23.1368L20.579 24.1138L20.349 24.8168L18.028 25.8818C17.796 25.9878 17.682 26.2498 17.76 26.4908L17.906 26.9388L12 23.6888V15.2748L16.747 12.5918C16.904 12.5028 17 12.3368 17 12.1568V6.50084C17 6.32384 16.908 6.15984 16.755 6.06984C16.604 5.98084 16.416 5.97784 16.26 6.06184L6.26 11.5448C6.1 11.6328 6 11.8008 6 11.9838V26.9838C6 27.1698 6.104 27.3408 6.269 27.4268L17.769 33.4268C17.841 33.4648 17.921 33.4838 18 33.4838C18.083 33.4838 18.166 33.4628 18.24 33.4228L22.716 30.9808L22.819 31.0568L23.111 33.5658C23.14 33.8168 23.354 34.0068 23.608 34.0078L28.093 34.0118C28.347 34.0118 28.561 33.8218 28.591 33.5698L28.886 31.0468L29.494 30.6028L31.992 31.1028C32.244 31.1548 32.487 31.0078 32.566 30.7678L33.955 26.5018C34.033 26.2608 33.918 25.9988 33.688 25.8928Z" fill="#ED7100"/>
</g>
<rect x="0.5" y="0.5" width="39" height="39" stroke="#ED7100"/>
<defs>
<clipPath id="clip0_23296_3375">
<rect width="40" height="40" fill="white"/>
</clipPath>
</defs>
</svg>
