<svg width="40" height="40" viewBox="0 0 40 40" fill="none" xmlns="http://www.w3.org/2000/svg">
<g clip-path="url(#clip0_23294_2930)">
<path d="M40 0H0V40H40V0Z" fill="#E7157B" fill-opacity="0.12"/>
<path fill-rule="evenodd" clip-rule="evenodd" d="M29.293 9H20.64L13.109 21.661L12.593 19.732L11.626 19.991L12.396 22.861L12.334 22.965L12.44 23.028L12.579 23.547L13.085 23.411L13.193 23.476L13.259 23.365L16.135 22.594L15.877 21.628L13.991 22.133L21.208 10H28.715L32.469 16.5L28.715 23H24.804V24H29.293L33.623 16.5L29.293 9ZM26.11 18.38L18.991 31H10.33L6 23.5L10.33 16H13.804V17H10.908L7.154 23.5L10.908 30H18.407L25.258 17.855L23.331 18.372L23.073 17.406L25.945 16.636L26.003 16.534L26.107 16.593L26.629 16.453L26.767 16.964L26.874 17.025L26.812 17.135L27.583 20.009L26.616 20.268L26.11 18.38Z" fill="#E7157B"/>
</g>
<rect x="0.5" y="0.5" width="39" height="39" stroke="#E7157B"/>
<defs>
<clipPath id="clip0_23294_2930">
<rect width="40" height="40" fill="white"/>
</clipPath>
</defs>
</svg>
