<svg width="40" height="40" viewBox="0 0 40 40" fill="none" xmlns="http://www.w3.org/2000/svg">
<g clip-path="url(#clip0_23298_3922)">
<path d="M40 0H0V40H40V0Z" fill="#01A88D" fill-opacity="0.12"/>
<path fill-rule="evenodd" clip-rule="evenodd" d="M20.2846 15.8489H23.2369V14.8657H20.2846V15.8489ZM20.2846 12.915H25.2051V11.9318H20.2846V12.915ZM24.221 18.7504H30.1256V17.7672H24.221V18.7504ZM25.2051 15.8489H30.1256V14.8657H25.2051V15.8489ZM33.0159 27.5432H25.2051V28.5265H33.5079C33.7796 28.5265 34 28.3062 34 28.0348V19.7513H33.0159V27.5432ZM32.1509 11.9318L28.0885 8.54168V11.9318H32.1509ZM34 12.4234V16.8016H33.0159V12.915H27.5965C27.3248 12.915 27.1044 12.6948 27.1044 12.4234V7.98321L19.2847 7.98518V14.6504H18.3006V7.49357C18.3006 7.22221 18.5211 7.00197 18.7927 7.00197L27.5965 7C27.7106 7 27.8218 7.03835 27.9124 7.11405L33.8229 12.0458C33.938 12.1412 34 12.2808 34 12.4234ZM10.4436 26.6338H11.4277V22.7009H10.4436V26.6338ZM12.4118 27.617H13.3959V20.7345H12.4118V27.617ZM14.4105 26.6338H15.3946V21.7177H14.4105V26.6338ZM16.3019 27.617H17.286V20.7345H16.3019V27.617ZM18.2849 26.6338H19.269V21.7177H18.2849V26.6338ZM20.2688 27.617H21.2529V20.7345H20.2688V27.617ZM22.2065 25.6506H23.1906V21.7177H22.2065V25.6506ZM22.8265 28.3288L23.6473 28.8716C22.0018 31.3581 19.4983 32.7857 16.7782 32.7857C15.3011 32.7857 13.636 32.3502 12.3586 31.6383L7.92133 33.9322C7.82587 33.9784 7.72648 34 7.62905 34C7.4588 34 7.29642 33.9331 7.17538 33.8073C6.98742 33.6116 6.94608 33.3176 7.07303 33.0758L9.37091 28.6671C8.77749 27.7035 7.94593 26.0252 7.94593 24.1964C7.94593 19.5143 11.7524 15.9836 16.7999 15.9836C18.5467 15.9836 19.8043 16.5362 21.1555 17.366L20.6408 18.2037C19.4314 17.4614 18.3154 16.9668 16.7999 16.9668C12.9855 16.9668 8.93003 19.5006 8.93003 24.1964C8.93003 25.4677 9.44767 26.9907 10.3501 28.375C10.4475 28.5235 10.4554 28.7133 10.3737 28.8706L8.45668 32.5488L12.1471 30.6413C12.2996 30.5607 12.4817 30.5676 12.6293 30.6581C13.7866 31.364 15.3759 31.8025 16.7782 31.8025C19.1972 31.8025 21.3454 30.5686 22.8265 28.3288Z" fill="#01A88D"/>
</g>
<rect x="0.5" y="0.5" width="39" height="39" stroke="#01A88D"/>
<defs>
<clipPath id="clip0_23298_3922">
<rect width="40" height="40" fill="white"/>
</clipPath>
</defs>
</svg>
