<svg width="40" height="40" viewBox="0 0 40 40" fill="none" xmlns="http://www.w3.org/2000/svg">
<g clip-path="url(#clip0_23310_9441)">
<path d="M40 0H0V40H40V0Z" fill="#8C4FFF" fill-opacity="0.12"/>
<path fill-rule="evenodd" clip-rule="evenodd" d="M26.3902 30.125C26.3902 29.574 25.9422 29.125 25.3902 29.125C24.8382 29.125 24.3902 29.574 24.3902 30.125C24.3902 30.676 24.8382 31.125 25.3902 31.125C25.9422 31.125 26.3902 30.676 26.3902 30.125ZM20.3902 30.125C19.8382 30.125 19.3902 30.574 19.3902 31.125C19.3902 31.676 19.8382 32.125 20.3902 32.125C20.9422 32.125 21.3902 31.676 21.3902 31.125C21.3902 30.574 20.9422 30.125 20.3902 30.125ZM15.3842 29.125C14.8322 29.125 14.3842 29.574 14.3842 30.125C14.3842 30.676 14.8322 31.125 15.3842 31.125C15.9362 31.125 16.3843 30.676 16.3843 30.125C16.3843 29.574 15.9362 29.125 15.3842 29.125ZM18.0492 24.763C17.5052 24.072 17.0473 23.149 16.7043 22.06C16.0143 22.233 15.3782 22.453 14.8202 22.718C15.7022 23.646 16.8062 24.357 18.0492 24.763ZM14.9502 11.842C15.4922 12.087 16.1063 12.289 16.7633 12.45C17.0983 11.443 17.5362 10.592 18.0492 9.941C16.8692 10.327 15.8092 10.983 14.9502 11.842ZM22.8752 9.941C23.3882 10.592 23.8262 11.443 24.1612 12.45C24.8182 12.289 25.4323 12.087 25.9743 11.842C25.1163 10.983 24.0562 10.327 22.8752 9.941ZM26.1042 22.719C25.5442 22.454 24.9092 22.234 24.2192 22.061C23.8772 23.15 23.4192 24.072 22.8752 24.763C24.1192 24.357 25.2222 23.646 26.1042 22.719ZM17.6752 21.854C18.2182 23.541 19.0412 24.666 19.8902 25.023V21.629C19.1242 21.655 18.3802 21.73 17.6752 21.854ZM23.2472 21.854C22.4982 21.723 21.7052 21.646 20.8902 21.626V25.073C21.7882 24.789 22.6742 23.636 23.2472 21.854ZM17.4153 20.887C18.3793 20.712 19.4083 20.615 20.4613 20.615C21.5163 20.615 22.5432 20.712 23.5082 20.887C23.7312 19.925 23.8683 18.83 23.8853 17.625H17.0382C17.0562 18.83 17.1933 19.925 17.4153 20.887ZM12.6783 17.625C12.7343 19.23 13.2762 20.711 14.1632 21.929C14.8302 21.589 15.6013 21.31 16.4443 21.097C16.2003 20.042 16.0572 18.871 16.0382 17.625H12.6783ZM16.4912 13.411C15.6772 13.208 14.9303 12.944 14.2773 12.624C13.4093 13.756 12.8402 15.127 12.7022 16.625H16.0492C16.0952 15.471 16.2492 14.388 16.4912 13.411ZM28.2222 16.625C28.0832 15.127 27.5152 13.756 26.6472 12.624C25.9942 12.944 25.2473 13.208 24.4333 13.411C24.6753 14.388 24.8283 15.471 24.8743 16.625H28.2222ZM24.8853 17.625C24.8673 18.872 24.7242 20.043 24.4802 21.098C25.3232 21.31 26.0933 21.59 26.7603 21.93C27.6483 20.712 28.1893 19.23 28.2453 17.625H24.8853ZM17.4613 13.618C17.2413 14.506 17.0942 15.516 17.0492 16.625H23.8743C23.8293 15.516 23.6832 14.506 23.4622 13.618C22.5112 13.788 21.4992 13.881 20.4622 13.881C19.4252 13.881 18.4123 13.788 17.4613 13.618ZM17.7442 12.655C18.6052 12.801 19.5212 12.881 20.4622 12.881C21.4042 12.881 22.3193 12.801 23.1793 12.655C22.5103 10.711 21.4662 9.555 20.4622 9.555C19.4582 9.555 18.4132 10.71 17.7442 12.655ZM27.3902 30.125C27.3902 31.228 26.4932 32.125 25.3902 32.125C24.2872 32.125 23.3902 31.228 23.3902 30.125C23.3902 29.196 24.0302 28.419 24.8902 28.196V27.625H20.8902V29.196C21.7502 29.419 22.3902 30.196 22.3902 31.125C22.3902 32.228 21.4932 33.125 20.3902 33.125C19.2872 33.125 18.3902 32.228 18.3902 31.125C18.3902 30.196 19.0302 29.419 19.8902 29.196V27.625H15.8842V28.196C16.7442 28.419 17.3843 29.196 17.3843 30.125C17.3843 31.228 16.4872 32.125 15.3842 32.125C14.2822 32.125 13.3842 31.228 13.3842 30.125C13.3842 29.196 14.0242 28.419 14.8842 28.196V26.625H19.8902V26.121C15.3062 25.823 11.6643 22.01 11.6643 17.352C11.6643 12.501 15.6112 8.555 20.4622 8.555C25.3132 8.555 29.2593 12.501 29.2593 17.352C29.2593 22.059 25.5412 25.902 20.8902 26.128V26.625H25.8902V28.196C26.7502 28.419 27.3902 29.196 27.3902 30.125ZM28.4482 25.448L27.7412 24.741C31.7932 20.687 31.7932 14.093 27.7412 10.04C23.6882 5.987 17.0923 5.987 13.0393 10.04C8.98725 14.093 8.98725 20.687 13.0393 24.741L12.3322 25.448C7.88925 21.005 7.88925 13.775 12.3322 9.333C16.7762 4.889 24.0043 4.889 28.4482 9.333C32.8912 13.775 32.8912 21.005 28.4482 25.448Z" fill="#8C4FFF"/>
</g>
<rect x="0.5" y="0.5" width="39" height="39" stroke="#8C4FFF"/>
<defs>
<clipPath id="clip0_23310_9441">
<rect width="40" height="40" fill="white"/>
</clipPath>
</defs>
</svg>
