<svg xmlns="http://www.w3.org/2000/svg" width="24" height="24" viewBox="0 0 25 24" fill="none">
  <path d="M16.344 2.53516V7.16006C16.344 7.94938 16.0304 8.70637 15.4723 9.26451C14.9141 9.82265 14.1572 10.1362 13.3678 10.1362H3.03516V19.3371C3.037 19.9017 3.26208 20.4426 3.66129 20.8418C4.0605 21.241 4.60141 21.4661 5.16596 21.4679H19.8371C20.1182 21.4726 20.3974 21.4207 20.6581 21.3153C20.9187 21.2099 21.1555 21.0532 21.3543 20.8543C21.5532 20.6555 21.7099 20.4187 21.8153 20.1581C21.9207 19.8974 21.9726 19.6182 21.9679 19.3371V4.66596C21.9679 4.38777 21.9126 4.11234 21.8051 3.85576C21.6976 3.59917 21.5401 3.36655 21.3417 3.17147C21.1434 2.97638 20.9082 2.82274 20.6499 2.71949C20.3916 2.61624 20.1153 2.56545 19.8371 2.57009" fill="#fff"></path>
  <path d="M4.51254 7.90848H12.7144C13.0626 7.86806 13.3809 7.69223 13.6006 7.41901C13.8202 7.14579 13.9235 6.79712 13.8881 6.44836V4.49919C13.9216 4.15079 13.8177 3.80309 13.5984 3.53029C13.3791 3.25749 13.0619 3.0812 12.7144 3.03906H4.51254C4.16508 3.0812 3.84785 3.25749 3.62856 3.53029C3.40928 3.80309 3.30531 4.15079 3.33885 4.49919V6.44836C3.30347 6.79712 3.40676 7.14579 3.62638 7.41901C3.84601 7.69223 4.16433 7.86806 4.51254 7.90848Z" stroke="#fff" stroke-width="0.666667" stroke-miterlimit="10"></path>
</svg>