<svg width="40" height="40" viewBox="0 0 40 40" xmlns="http://www.w3.org/2000/svg">  <g id="Icon-Architecture/32/Arch_AWS-Activate_32" stroke="none" stroke-width="1" fill="none" fill-rule="evenodd">  <g id="Icon-Service/32/AWS-Activate_32" transform="translate(7.000000, 6.000000)" fill="#FFFFFF"> <path d="M26,13.972 C26,19.262 22.82,23.815 18.275,25.843 L18.275,24.734 C22.251,22.777 25,18.695 25,13.972 C25,8.383 21.153,3.687 15.972,2.36 L15.48,1.216 C21.466,2.378 26,7.653 26,13.972 L26,13.972 Z M7.725,24.734 L7.725,25.843 C3.181,23.815 0,19.262 0,13.972 C0,7.655 4.531,2.382 10.512,1.217 L10.021,2.362 C4.843,3.692 1,8.385 1,13.972 C1,18.695 3.749,22.777 7.725,24.734 L7.725,24.734 Z M9,27.972 L10,27.972 L10,17.972 L9,17.972 L9,27.972 Z M16,27.972 L17,27.972 L17,17.972 L16,17.972 L16,27.972 Z M12.5,25.972 L13.5,25.972 L13.5,14.972 L12.5,14.972 L12.5,25.972 Z M13,1.669 L18.206,13.847 L13.305,10.11 C13.147,9.99 12.863,10.019 12.689,10.115 L7.794,13.847 L13,1.669 Z M6.281,15.789 C6.462,15.928 6.713,15.93 6.892,15.792 L12.996,11.132 L19.108,15.792 C19.197,15.86 19.305,15.894 19.411,15.894 C19.52,15.894 19.628,15.859 19.719,15.789 C19.897,15.649 19.96,15.407 19.871,15.198 L13.492,0.276 C13.334,-0.092 12.666,-0.092 12.508,0.276 L6.129,15.198 C6.04,15.407 6.103,15.649 6.281,15.789 L6.281,15.789 Z" id="AWS-Activate_32_Squid"></path> </g> </g></svg>