<svg version="1.1" id="Layer_1" xmlns="http://www.w3.org/2000/svg" xmlns:xlink="http://www.w3.org/1999/xlink" x="0px" y="0px"
         viewBox="0 0 26.3 27.4" style="enable-background:new 0 0 26.3 27.4;" xml:space="preserve" width='26.3' height='27.4'>
<style type="text/css">
        .st0{fill:#FFFFFF;}
</style>
<path class="st0" d="M18.9,11.1L15,13c0.1,0.2,0.1,0.5,0.1,0.7c0,0.2-0.1,0.5-0.2,0.7l3.7,2c0.3-0.4,0.8-0.6,1.4-0.7l0.2-4
        c0,0-0.1,0-0.1,0C19.6,11.7,19.2,11.4,18.9,11.1L18.9,11.1z"/>
<path class="st0" d="M25.5,6.3L13.9,0.2c-0.5-0.3-1.1-0.3-1.5,0L0.8,6.3C0.3,6.6,0,7,0,7.6v12.3c0,0.3,0.1,0.5,0.2,0.7
        c0.1,0.2,0.3,0.4,0.6,0.5l11.6,6.1c0.5,0.3,1.1,0.3,1.5,0l11.6-6.1c0.5-0.3,0.8-0.7,0.8-1.2V7.6C26.3,7.1,26,6.6,25.5,6.3L25.5,6.3z
         M20.7,15.7c1.1,0.2,1.8,1.1,1.6,2.1c-0.2,1-1.2,1.6-2.3,1.5s-1.8-1.1-1.6-2.1c0-0.1,0.1-0.3,0.1-0.4l-3.7-1.9
        c-0.4,0.5-1,0.7-1.6,0.7c-0.6,0-1.2-0.3-1.6-0.7l-3.7,1.9c0.2,0.4,0.2,1,0,1.4l3.8,2.1c0.4-0.4,0.9-0.7,1.5-0.7c1.1,0,2,0.8,2,1.8
        c0,1-0.9,1.8-2,1.8s-2-0.8-2-1.8c0-0.3,0.1-0.5,0.2-0.7l-3.8-2.1c-0.4,0.4-1,0.7-1.5,0.7c-1.1,0-2-0.8-2-1.8c0-1,0.9-1.8,2-1.8
        c0.6,0,1.2,0.3,1.6,0.7l3.7-1.9c-0.1-0.2-0.1-0.4-0.1-0.7c0-0.9,0.7-1.7,1.7-1.8V7.8c-0.5-0.1-1-0.3-1.3-0.7L7.7,9.2
        c0.1,0.2,0.2,0.5,0.2,0.7c0,1-0.9,1.8-2,1.8s-2-0.8-2-1.8c0-1,0.9-1.8,2-1.8c0.6,0,1.2,0.3,1.6,0.7l3.9-2.1
        c-0.1-0.2-0.2-0.5-0.2-0.7c0-1,0.9-1.8,2-1.8c1.1,0,2,0.8,2,1.8c0,0.9-0.7,1.7-1.7,1.8V12c0.5,0.1,1,0.3,1.3,0.7l3.8-2.1
        c-0.2-0.3-0.2-0.7-0.1-1.1c0.2-1,1.2-1.6,2.3-1.4c1.1,0.2,1.8,1.1,1.6,2.1c-0.2,0.8-0.9,1.4-1.7,1.4L20.7,15.7
        C20.6,15.7,20.6,15.7,20.7,15.7z"/>
</svg>
