<svg width="40" height="40" viewBox="0 0 40 40" fill="none" xmlns="http://www.w3.org/2000/svg">
<g clip-path="url(#clip0_23295_3216)">
<path d="M40 0H0V40H40V0Z" fill="#ED7100" fill-opacity="0.12"/>
<path fill-rule="evenodd" clip-rule="evenodd" d="M20.5682 29.5231C21.1749 29.5231 21.6662 30.0117 21.6662 30.6149C21.6662 31.2182 21.1749 31.7078 20.5682 31.7078C19.9616 31.7078 19.4702 31.2182 19.4702 30.6149C19.4702 30.0117 19.9616 29.5231 20.5682 29.5231ZM11.5639 20.4759C11.5639 21.0801 11.0715 21.5687 10.4649 21.5687C9.85823 21.5687 9.36686 21.0801 9.36686 20.4759C9.36686 19.8737 9.85823 19.384 10.4649 19.384C11.0715 19.384 11.5639 19.8737 11.5639 20.4759ZM30.7485 32.9313C29.4928 32.9313 28.509 31.9883 28.509 30.7849C28.509 29.5563 29.514 28.557 30.7485 28.557C31.984 28.557 32.989 29.5563 32.989 30.7849C32.989 31.9883 32.0052 32.9313 30.7485 32.9313ZM28.509 20.5332C28.509 19.3046 29.514 18.3053 30.7485 18.3053C31.984 18.3053 32.989 19.3046 32.989 20.5332C32.989 21.7607 31.984 22.7601 30.7485 22.7601C29.514 22.7601 28.509 21.7607 28.509 20.5332ZM20.5682 22.7631C19.3327 22.7631 18.3278 21.7637 18.3278 20.5352C18.3278 19.3066 19.3327 18.3073 20.5682 18.3073C21.8037 18.3073 22.8087 19.3066 22.8087 20.5352C22.8087 21.7637 21.8037 22.7631 20.5682 22.7631ZM23.0221 30.5546C23.0221 31.946 21.9675 32.9946 20.5682 32.9946C19.169 32.9946 18.1144 31.946 18.1144 30.5546C18.1144 29.1632 19.169 28.1146 20.5682 28.1146C21.9675 28.1146 23.0221 29.1632 23.0221 30.5546ZM17.621 10.936C17.621 9.40282 19.0264 8.00536 20.5682 8.00536C22.1101 8.00536 23.5154 9.40282 23.5154 10.936C23.5154 12.4702 22.1101 13.8666 20.5682 13.8666C19.0264 13.8666 17.621 12.4702 17.621 10.936ZM10.4649 22.9772C9.06557 22.9772 8.01105 21.9286 8.01105 20.5372C8.01105 19.1247 9.11208 17.9755 10.4649 17.9755C11.8186 17.9755 12.9197 19.1247 12.9197 20.5372C12.9197 21.9286 11.8641 22.9772 10.4649 22.9772ZM12.6983 30.7718C12.6983 31.9853 11.7135 32.9363 10.4578 32.9363C9.20105 32.9363 8.21629 31.9853 8.21629 30.7718C8.21629 29.5442 9.22127 28.5439 10.4578 28.5439C11.6933 28.5439 12.6983 29.5442 12.6983 30.7718ZM31.254 27.6019V23.7151C32.806 23.4708 34 22.1438 34 20.5332C34 18.7497 32.5421 17.2999 30.7485 17.2999C29.1288 17.2999 27.7932 18.4883 27.5485 20.0325H23.7682C23.5498 18.6542 22.4599 17.5704 21.0738 17.3532V14.8177C22.9624 14.5523 24.5265 12.8623 24.5265 10.936C24.5265 8.83981 22.6773 7 20.5682 7C18.4592 7 16.61 8.83981 16.61 10.936C16.61 12.8623 18.1741 14.5523 20.0627 14.8177V17.3532C18.6766 17.5704 17.5867 18.6542 17.3683 20.0325H13.8812C13.6395 18.3063 12.2069 16.9702 10.4649 16.9702C8.55398 16.9702 7 18.5707 7 20.5372C7 22.2966 8.26684 23.695 9.95933 23.9333V27.5888C8.40434 27.8291 7.20524 29.1592 7.20524 30.7718C7.20524 32.5493 8.63385 33.9417 10.4578 33.9417C12.2817 33.9417 13.7093 32.5493 13.7093 30.7718C13.7093 29.1632 12.5193 27.8371 10.9704 27.5908V23.9333C12.4981 23.7182 13.6658 22.557 13.8812 21.0379H17.3683C17.5867 22.4162 18.6766 23.5 20.0627 23.7172V27.1575C18.3702 27.3968 17.1034 28.7952 17.1034 30.5546C17.1034 32.4869 18.625 34 20.5682 34C22.5115 34 24.0331 32.4869 24.0331 30.5546C24.0331 28.7952 22.7663 27.3968 21.0738 27.1575V23.7172C22.4599 23.5 23.5498 22.4162 23.7682 21.0379H27.5485C27.7679 22.4152 28.8578 23.497 30.243 23.7151V27.6019C28.691 27.8462 27.498 29.1743 27.498 30.7849C27.498 32.5523 28.9256 33.9367 30.7485 33.9367C32.5724 33.9367 34 32.5523 34 30.7849C34 29.1743 32.806 27.8462 31.254 27.6019Z" fill="#ED7100"/>
</g>
<rect x="0.5" y="0.5" width="39" height="39" stroke="#ED7100"/>
<defs>
<clipPath id="clip0_23295_3216">
<rect width="40" height="40" fill="white"/>
</clipPath>
</defs>
</svg>
