<svg width="40" height="40" viewBox="0 0 40 40" xmlns="http://www.w3.org/2000/svg">  <g id="Icon-Architecture/32/Arch_Amazon-CodeWhisperer_32" stroke="none" stroke-width="1" fill="none" fill-rule="evenodd">  <g id="Icon-Service/32/Amazon-CodeWhisperer_32" transform="translate(6.000000, 6.000000)" fill="#FFFFFF"> <path d="M7.016,3.001 L8.016,3.001 L8.016,2.001 L7.016,2.001 L7.016,3.001 Z M5.016,3.001 L6.016,3.001 L6.016,2.001 L5.016,2.001 L5.016,3.001 Z M3.016,3.001 L4.016,3.001 L4.016,2.001 L3.016,2.001 L3.016,3.001 Z M15.019,14.183 L15.964,14.511 L13.863,20.566 L12.918,20.238 L15.019,14.183 Z M11.376,15.058 L12.087,15.762 L10.538,17.324 L12.056,18.883 L11.339,19.58 L9.479,17.669 C9.288,17.474 9.29,17.162 9.482,16.968 L11.376,15.058 Z M19.566,16.968 C19.757,17.162 19.759,17.474 19.569,17.669 L17.708,19.58 L16.991,18.883 L18.509,17.323 L16.961,15.762 L17.672,15.058 L19.566,16.968 Z M23.016,19.502 L21.292,20.364 C21.123,20.449 21.016,20.622 21.016,20.811 L21.016,23.846 L16.956,26.344 L15.016,25.235 L15.016,23.001 C15.016,22.724 14.792,22.501 14.516,22.501 C14.239,22.501 14.016,22.724 14.016,23.001 L14.016,25.235 L12.075,26.344 L8.016,23.846 L8.016,20.811 C8.016,20.622 7.908,20.449 7.739,20.364 L6.016,19.502 L6.016,15.37 L7.819,13.996 C7.943,13.902 8.016,13.755 8.016,13.598 L8.016,10.768 L11.734,8.6 L14.016,9.874 L14.016,12.001 L15.016,12.001 L15.016,9.874 L17.298,8.6 L21.016,10.768 L21.016,13.598 C21.016,13.755 21.089,13.902 21.213,13.996 L23.016,15.37 L23.016,19.502 Z M22.016,13.351 L22.016,10.481 C22.016,10.303 21.921,10.138 21.768,10.049 L17.556,7.592 C17.402,7.503 17.214,7.501 17.06,7.588 L14.529,9.001 L14.503,9.001 L11.972,7.588 C11.817,7.501 11.629,7.504 11.476,7.592 L7.264,10.049 C7.111,10.138 7.016,10.303 7.016,10.481 L7.016,13.351 L5.213,14.724 C5.089,14.819 5.016,14.966 5.016,15.122 L5.016,19.811 C5.016,20.001 5.123,20.174 5.292,20.259 L7.016,21.12 L7.016,24.125 C7.016,24.299 7.106,24.46 7.254,24.551 L11.804,27.351 C11.96,27.447 12.155,27.45 12.314,27.359 L14.516,26.101 L16.718,27.359 C16.795,27.403 16.88,27.4251857 16.966,27.4251857 C17.057,27.4251857 17.148,27.4 17.228,27.351 L21.778,24.551 C21.926,24.46 22.016,24.299 22.016,24.125 L22.016,21.12 L23.739,20.259 C23.908,20.174 24.016,20.001 24.016,19.811 L24.016,15.122 C24.016,14.966 23.943,14.819 23.819,14.724 L22.016,13.351 Z M1.066,4.001 L1.079,1 L27.016,1.033 L27.007,4.001 L1.066,4.001 Z M26.952,0 L1.079,0 C0.493,0 0.016,0.463 0.016,1.032 L0,18.968 C0,19.533 0.474,19.997 1.06,20.001 L4.016,20 L4.016,19 L1,18.968 L1.062,5.001 L27.004,5.001 L26.96,19.001 L25.016,19.001 L25.016,20.001 L26.96,20.001 C27.542,20.001 28.016,19.527 28.016,18.945 L28.016,5.001 L28.016,4.001 L28.016,1.033 C28.016,0.464 27.538,0 26.952,0 L26.952,0 Z" id="Fill-9"></path> </g> </g></svg>