<svg width="40" height="40" viewBox="0 0 40 40" xmlns="http://www.w3.org/2000/svg">  <g id="Icon-Architecture/32/Arch_Amazon-Monitron_32" stroke="none" stroke-width="1" fill="none" fill-rule="evenodd">  <g id="Icon-Service/32/Amazon-Monitron_32" transform="translate(6.000000, 6.000000)" fill="#FFFFFF"> <path d="M14,6 C18.072,6 21.436,9.06 21.931,13 L18.856,13 L16.606,8.802 C16.515,8.63 16.335,8.525 16.136,8.539 C15.94,8.551 15.771,8.675 15.7,8.857 L12.051,18.262 L10.027,14.274 C9.941,14.106 9.77,14 9.581,14 L6,14 C6,9.589 9.589,6 14,6 L14,6 Z M14,22 C9.928,22 6.564,18.94 6.069,15 L9.274,15 L11.665,19.713 C11.755,19.889 11.95,20.006 12.136,19.986 C12.333,19.977 12.506,19.852 12.577,19.667 L16.239,10.232 L18.117,13.736 C18.204,13.898 18.373,14 18.558,14 L22,14 C22,18.411 18.411,22 14,22 L14,22 Z M5.059,15 C5.559,19.493 9.375,23 14,23 C18.963,23 23,18.962 23,14 L27.5,14 C27.776,14 28,13.776 28,13.5 L28,11.062 C28,10.477 27.523,10 26.938,10 L25.167,10 C24.964,9.333 24.695,8.685 24.364,8.065 L25.617,6.812 C25.818,6.611 25.929,6.344 25.929,6.061 C25.929,5.777 25.818,5.51 25.617,5.309 L22.69,2.382 C22.276,1.97 21.603,1.969 21.188,2.383 L19.936,3.637 C19.315,3.305 18.668,3.036 18,2.833 L18,1.063 C18,0.477 17.523,0 16.938,0 L11.062,0 C10.477,0 10,0.477 10,1.063 L10,2.833 C9.332,3.036 8.685,3.305 8.064,3.637 L6.812,2.383 C6.399,1.971 5.727,1.969 5.309,2.383 L2.383,5.309 C2.182,5.51 2.071,5.777 2.071,6.061 C2.071,6.344 2.182,6.611 2.383,6.812 L3.632,8.061 C3.322,8.628 3.043,9.306 2.833,10 L1.047,10 C0.47,10 0,10.47 0,11.047 L0,12 L1,12 L1.047,11 L3.211,11 C3.437,11 3.637,10.847 3.694,10.628 C3.923,9.763 4.292,8.872 4.682,8.242 C4.804,8.044 4.774,7.789 4.61,7.625 L3.09,6.016 L6.104,3.09 L7.625,4.611 C7.785,4.771 8.034,4.802 8.229,4.689 C8.985,4.25 9.792,3.915 10.628,3.694 C10.848,3.636 11,3.437 11,3.21 L11,1 L17,1 L17,3.21 C17,3.437 17.152,3.636 17.372,3.694 C18.208,3.915 19.015,4.25 19.771,4.689 C19.966,4.804 20.214,4.771 20.375,4.611 L21.984,3.09 L24.91,6.105 L23.39,7.625 C23.229,7.785 23.197,8.034 23.311,8.23 C23.75,8.986 24.085,9.792 24.306,10.628 C24.363,10.847 24.563,11 24.789,11 L27,11.062 L27,13 L22.941,13 C22.441,8.507 18.625,5 14,5 C9.037,5 5,9.038 5,14 L0.5,14 C0.224,14 0,14.224 0,14.5 L0,16.938 C0,17.523 0.477,18 1.062,18 L2.826,18 C3.058,18.673 3.366,19.326 3.745,19.95 L2.537,21.147 C2.307,21.349 2.175,21.641 2.175,21.946 C2.175,22.252 2.307,22.544 2.526,22.736 L5.738,25.711 C6.136,26.061 6.739,26.062 7.141,25.711 L8.706,24.338 C9.342,24.634 10.11,24.912 11,25.169 L11,26.937 C11,27.523 11.477,28 12.063,28 L16.938,28 C17.523,28 18,27.523 18,26.937 L18,25.181 C18.793,24.971 19.562,24.689 20.296,24.339 L21.833,25.687 C22.249,26.052 22.875,26.05 23.309,25.67 L26.286,22.775 C26.512,22.577 26.641,22.294 26.641,22 C26.641,21.706 26.512,21.423 26.338,21.277 L25.237,19.979 C25.624,19.347 25.938,18.684 26.174,18 L26.938,18 C27.523,18 28,17.523 28,16.938 L28,16 L27,16 L26.938,17 L25.811,17 C25.59,17 25.396,17.145 25.332,17.355 C25.08,18.188 24.699,18.992 24.2,19.745 C24.077,19.931 24.092,20.175 24.235,20.345 L25.574,21.924 C25.591,21.942 25.589,22.025 25.607,22.041 L22.631,24.936 C22.594,24.966 22.527,24.968 22.492,24.936 L20.704,23.367 C20.55,23.233 20.33,23.205 20.146,23.297 C19.278,23.741 18.35,24.079 17.387,24.303 C17.16,24.355 17,24.557 17,24.79 L17,27 L12,27 L12,24.79 C12,24.564 11.849,24.366 11.631,24.307 C10.497,23.999 9.563,23.659 8.854,23.297 C8.669,23.204 8.45,23.232 8.296,23.367 L6.408,24.969 L3.206,22.003 C3.202,22 3.222,21.882 3.218,21.879 L4.734,20.377 C4.904,20.209 4.932,19.944 4.8,19.745 C4.301,18.992 3.92,18.188 3.668,17.355 C3.604,17.145 3.41,17 3.189,17 L1,16.938 L1,15 L5.059,15 Z" id="Fill-5"></path> </g> </g></svg>