<svg width="40" height="40" viewBox="0 0 40 40" xmlns="http://www.w3.org/2000/svg">  <g id="Icon-Architecture/32/Arch_AWS-IoT-TwinMaker_32" stroke="none" stroke-width="1" fill="none" fill-rule="evenodd">  <g id="Icon-Service/32/AWS-IoT-TwinMaker_32" transform="translate(6.000000, 6.000000)" fill="#FFFFFF"> <path d="M23,14 L23,13 L22,13 L22,12 L23.5,12 C23.776,12 24,12.224 24,12.5 L24,14 L23,14 Z M23,22 L24,22 L24,23.5 C24,23.776 23.776,24 23.5,24 L22,24 L22,23 L23,23 L23,22 Z M12.5,12 L14,12 L14,13 L13,13 L13,14 L12,14 L12,12.5 C12,12.224 12.224,12 12.5,12 L12.5,12 Z M16,13 L20,13 L20,12 L16,12 L16,13 Z M6,17 L16,17 L16,23 L16,24 L16,27 L6,27 L6,17 Z M28,12.9484511 C28,9.14547985 25.002287,7.99907692 23.5924814,7.67139007 C23.3763579,5.86460295 22.4178102,4.55185134 20.9869926,4.12996705 C19.9323899,3.81931591 18.8257576,4.06883892 17.9872784,4.76730294 C17.549028,3.79025499 16.9746998,2.94448221 16.2742996,2.24702029 C14.0200114,0.00632365747 10.9362493,-0.602953422 8.02058319,0.619609139 C5.53416238,1.66379782 3.65809034,4.54784294 3.65809034,7.32766962 C3.65809034,7.48800569 3.6630932,7.64733966 3.67409949,7.80667364 C2.31432247,8.25060414 0,9.50824022 0,12.907365 C0,13.1248208 0.0100057176,13.3342598 0.0280160091,13.5346799 C0.257146941,15.9577588 2.40637507,17.944924 4.95483133,18.2505646 L4.95483133,27.4989498 C4.95483133,27.7755295 5.17895941,28 5.45511721,28 L16.4614065,28 C16.7375643,28 16.9616924,27.7755295 16.9616924,27.4989498 L16.9616924,23.9915982 L19.9634077,23.9915982 L19.9634077,22.9894977 L16.9616924,22.9894977 L16.9616924,16.4758447 C16.9616924,16.199265 16.7375643,15.9747945 16.4614065,15.9747945 L5.45511721,15.9747945 C5.17895941,15.9747945 4.95483133,16.199265 4.95483133,16.4758447 L4.95483133,17.2494663 C2.90966266,16.9558508 1.20668954,15.3665195 1.02458548,13.4404824 C1.00857633,13.2691232 1.00057176,13.0927536 1.00057176,12.907365 C1.00057176,9.97922743 3.04073756,8.99616688 4.28945111,8.66848003 C4.31046312,8.66547373 4.33347627,8.66046323 4.35448828,8.65344852 C4.58862207,8.58330149 4.73670669,8.35482259 4.70668954,8.11231428 C4.67567181,7.85477446 4.65866209,7.59322624 4.65866209,7.32766962 C4.65866209,4.96672093 6.3056032,2.42639627 8.40780446,1.54354576 C12.0508862,0.0153425616 14.6293596,2.02355188 15.5678959,2.95851161 C16.3333333,3.72010796 16.9306747,4.69014121 17.3419097,5.84456094 C17.4029445,6.01792432 17.556032,6.14418897 17.7381361,6.17124569 C17.918239,6.1962982 18.1043453,6.12314486 18.2134077,5.974834 C18.8147513,5.16914523 19.787307,4.82141637 20.7038308,5.09098139 C21.801458,5.41465984 22.5198685,6.52699135 22.6209262,8.00508953 C22.5769011,8.27665875 22.7600057,8.53319647 23.0301601,8.57929309 C24.2238422,8.78271948 26.9994282,9.61546497 26.9994282,12.9484511 C26.9994282,15.6471076 25.0913379,16.708332 23.9656947,17.1021575 L23.9656947,15.9747945 L22.9651229,15.9747945 L22.9651229,19.9831963 L23.9656947,19.9831963 L23.9656947,18.1563672 C25.2444254,17.7825837 28,16.5570149 28,12.9484511 L28,12.9484511 Z" id="Fill-3"></path> </g> </g></svg>