<svg version="1.1" id="Layer_1" xmlns="http://www.w3.org/2000/svg" xmlns:xlink="http://www.w3.org/1999/xlink" x="0px" y="0px"
	 viewBox="0 0 800 800" style="enable-background:new 0 0 800 800;" xml:space="preserve" width='800' height='800'>
<style type="text/css">
	.st0{fill:#FFFFFF;}
</style>
<g>
	<path class="st0" d="M21.2,271.8C78.9,101.5,239.9-4.5,410.7,0.1l0,0L356,64.8c-101.3,18.3-188.8,87.5-223.1,189
		c-51.1,151.1,34.6,316.6,191.5,369.7c156.9,53.1,325.5-26.3,376.7-177.4c34.3-101.2,7.1-208.9-61.7-284.9l0,0l-4.2-84.9
		c138,100.1,201.3,281.9,143.7,451.9C708,737.4,481,849.6,271.8,778.8C62.6,707.9-49.6,481,21.2,271.8z M516.2,37.3
		c2-0.9,4.4-1.1,6.7-0.3c2.2,0.8,3.9,2.3,5,4.2l0,0l0.2,0.4l0.2,0.4c0.5,1,1,2.2,1.2,3.6c0.4,2.8,0.6,9.3,0.7,16l0,1.8
		c0,2.1,0,4.2,0,6.2v1.7c0,5.4-0.1,9.5-0.1,9.5l0,0l1.6,59.2l2.3,68.3l2.9,118.7c0,0,0,0,0,0.1l0,0.2c0,0,0,0.1,0,0.1l0,0.4
		c0,6.8-1.4,56.4-36.6,90.9c-37.9,37.1-84.3,33.7-114.6,23.5c-30.3-10.2-69.2-35.8-76.8-88.2c-6.4-44.6,17.3-82.1,24.5-92.3l0.5-0.7
		c1-1.4,1.6-2.1,1.6-2.1l0,0l74.4-92.5l43.3-52.8l37.2-46c0,0,5.5-7.3,11.1-14.5l1.1-1.4c1.9-2.4,3.7-4.7,5.4-6.7l1-1.1
		c1.4-1.6,2.6-3,3.4-3.8c1-0.9,2-1.5,2.9-2l0,0l0.7-0.4L516.2,37.3z"/>
</g>
</svg>