<svg width="40" height="40"  viewBox="0 0 40 40" xmlns="http://www.w3.org/2000/svg">  <g id="Icon-Architecture/32/Arch_Amazon-Genomics-CLI_32" stroke="none" stroke-width="1" fill="none" fill-rule="evenodd">  <path d="M28,10 L30,10 L30,9 L28,9 L28,10 Z M27,8 L31,8 L31,7 L27,7 L27,8 Z M28,20 L30,20 L30,19 L28,19 L28,20 Z M27,22 L31,22 L31,21 L27,21 L27,22 Z M17.825,22.879 C17.937,22.785 18,22.646 18,22.5 C18,22.354 17.937,22.215 17.825,22.121 L10.825,16.121 L10.175,16.879 L16.731,22.5 L10.175,28.121 L10.825,28.879 L17.825,22.879 Z M17,28 L27,28 L27,27 L17,27 L17,28 Z M34,32.5 L34,27 L33,27 L33,32.5 C33,32.776 32.775,33 32.5,33 L7.5,33 C7.225,33 7,32.776 7,32.5 L7,7.5 C7,7.224 7.225,7 7.5,7 L20,7 L20,6 L7.5,6 C6.673,6 6,6.673 6,7.5 L6,32.5 C6,33.327 6.673,34 7.5,34 L32.5,34 C33.327,34 34,33.327 34,32.5 L34,32.5 Z M25,21.113 C25,19.969 25.43,18.878 26.21,18.042 L32.521,11.283 C33.475,10.261 34,8.928 34,7.53 L34,6 L33,6 L33,7.53 C33,8.674 32.57,9.765 31.79,10.601 L25.479,17.36 C24.525,18.382 24,19.714 24,21.113 L24,23 L25,23 L25,21.113 Z M31.052,15.787 L30.368,16.519 L31.79,18.042 C32.57,18.878 33,19.969 33,21.113 L33,23 L34,23 L34,21.113 C34,19.714 33.475,18.382 32.521,17.36 L31.052,15.787 Z M25.479,11.283 C24.525,10.261 24,8.928 24,7.53 L24,6 L25,6 L25,7.53 C25,8.674 25.43,9.765 26.21,10.601 L27.632,12.124 L26.948,12.856 L25.479,11.283 Z" id="Fill-3" fill="#FFFFFF"></path> </g></svg>