<svg width="40" height="40" viewBox="0 0 40 40" xmlns="http://www.w3.org/2000/svg">  <g id="Icon-Architecture/32/Arch_Amazon-Interactive-Video-Service_32" stroke="none" stroke-width="1" fill="none" fill-rule="evenodd">  <g id="Icon-Service/32/Amazon-Interactive-Video-Service_32" transform="translate(6.000000, 5.999550)" fill="#FFFFFF"> <path d="M18,26.91275 L18,20.85075 L23.25,23.88175 L18,26.91275 Z M17.75,19.55175 C17.596,19.46275 17.404,19.46275 17.25,19.55175 C17.096,19.64075 17,19.80575 17,19.98475 L17,27.77875 C17,27.95775 17.096,28.12275 17.25,28.21175 C17.327,28.25675 17.414,28.27875 17.5,28.27875 C17.586,28.27875 17.673,28.25675 17.75,28.21175 L24.5,24.31475 C24.654,24.22575 24.75,24.06075 24.75,23.88175 C24.75,23.70375 24.654,23.53775 24.5,23.44875 L17.75,19.55175 Z M27,17.17075 L21.75,14.13975 L27,11.10875 L27,17.17075 Z M11,19.11775 L11,9.16275 L19.622,14.14075 L11,19.11775 Z M10,7.42875 L4.75,4.39775 L10,1.36675 L10,7.42875 Z M10,26.91475 L4.75,23.88375 L10,20.85275 L10,26.91475 Z M27.75,9.80875 C27.596,9.72075 27.404,9.72075 27.25,9.80875 L20.686,13.59975 L11,8.00775 L11,0.49975 C11,0.32175 10.904,0.15675 10.75,0.06675 C10.596,-0.02225 10.404,-0.02225 10.25,0.06675 L3.5,3.96475 C3.346,4.05375 3.25,4.21875 3.25,4.39775 C3.25,4.57675 3.346,4.74175 3.5,4.83075 L10,8.58375 L10,19.69775 L3.5,23.45075 C3.346,23.53975 3.25,23.70475 3.25,23.88375 C3.25,24.06275 3.346,24.22775 3.5,24.31675 L10.25,28.21475 C10.327,28.25875 10.414,28.28175 10.5,28.28175 C10.586,28.28175 10.673,28.25875 10.75,28.21475 C10.904,28.12475 11,27.95975 11,27.78175 L11,20.27275 L20.687,14.68075 L27.25,18.47075 C27.404,18.55875 27.596,18.55875 27.75,18.47075 C27.904,18.38075 28,18.21575 28,18.03775 L28,10.24275 C28,10.06375 27.904,9.89875 27.75,9.80875 L27.75,9.80875 Z M1,17.17075 L1,11.10875 L6.25,14.13975 L1,17.17075 Z M7.75,14.13975 C7.75,13.96075 7.654,13.79575 7.5,13.70675 L0.75,9.80875 C0.596,9.72075 0.404,9.72075 0.25,9.80875 C0.096,9.89875 0,10.06375 0,10.24275 L0,18.03675 C0,18.21575 0.096,18.38075 0.25,18.46975 C0.327,18.51475 0.414,18.53675 0.5,18.53675 C0.586,18.53675 0.673,18.51475 0.75,18.46975 L7.5,14.57275 C7.654,14.48375 7.75,14.31875 7.75,14.13975 L7.75,14.13975 Z M18,1.36675 L23.25,4.39775 L18,7.42875 L18,1.36675 Z M17.5,8.79475 C17.586,8.79475 17.673,8.77275 17.75,8.72775 L24.5,4.83075 C24.654,4.74175 24.75,4.57675 24.75,4.39775 C24.75,4.21875 24.654,4.05375 24.5,3.96475 L17.75,0.06675 C17.596,-0.02225 17.404,-0.02225 17.25,0.06675 C17.096,0.15675 17,0.32175 17,0.49975 L17,8.29475 C17,8.47375 17.096,8.63875 17.25,8.72775 C17.327,8.77275 17.414,8.79475 17.5,8.79475 L17.5,8.79475 Z" id="Amazon-Interactive-Video-Service_Icon_32_Squid"></path> </g> </g></svg>