<svg xmlns="http://www.w3.org/2000/svg" role="img" viewBox="1.38 32.63 356.98 294.48"><defs><style>.cls-1{fill:#fff}</style></defs><path d="M180 181.91174a17.6777 17.6777 0 0 1-3.45843-.34153l-9.33306-1.86334 8.03419 49.42682a17.52719 17.52719 0 0 1 .22943 2.834h9.05408a17.66259 17.66259 0 0 1 .28808-3.1747l9.00486-49.29129-10.36066 2.06849a17.67831 17.67831 0 0 1-3.45849.34155z" class="cls-1"/><path d="M315.24162 39.5H44.7586A36.4231 36.4231 0 0 0 8.44217 75.81643v208.36714A36.4231 36.4231 0 0 0 44.7586 320.5h270.483a36.423 36.423 0 0 0 36.31621-36.31643V75.81643A36.423 36.423 0 0 0 315.24162 39.5zm6.10251 73.44476l-4.41922 30.02724a17.66413 17.66413 0 0 1-14.0166 14.74971L231.07689 172.063c-.01237.07191-.01508.14316-.02825.21506l-11.24464 61.5568a35.373 35.373 0 0 1-35.27783 33.4589h-9.05408a35.37184 35.37184 0 0 1-35.28818-33.66244l-9.96428-61.30942-73.1279-14.60028A17.66421 17.66421 0 0 1 43.07508 142.972l-4.4193-30.02719a17.66333 17.66333 0 0 1 34.95018-5.1437l2.60634 17.71481L180 146.2372l103.78771-20.72133 2.60633-17.71481a17.66328 17.66328 0 0 1 34.954 5.11714z" class="cls-1"/></svg>
