<svg width="40" height="40" viewBox="0 0 40 40" fill="none" xmlns="http://www.w3.org/2000/svg">
<g clip-path="url(#clip0_23296_3496)">
<path d="M40 0H0V40H40V0Z" fill="#C925D1" fill-opacity="0.12"/>
<path fill-rule="evenodd" clip-rule="evenodd" d="M26.0662 31.0186V31.0176V28.1533C24.5397 29.4607 21.3723 30.3223 17.5279 30.3223C13.6806 30.3223 10.5132 29.4597 8.98674 28.1512V31.0136C8.98674 32.4252 12.4946 33.9981 17.5279 33.9981C22.5544 33.9981 26.0583 32.4282 26.0662 31.0186ZM26.0672 22.8444L27.0539 22.8384V22.8444C27.0539 23.4685 26.7421 24.0506 26.1481 24.5856C26.8743 25.2388 27.0539 25.88 27.0539 26.3359C27.0539 26.3389 27.0529 26.3419 27.0529 26.3439V31.0136C27.0529 33.2858 22.9589 35 17.5279 35C12.1246 35 8.04736 33.3038 8.00493 31.0486C8.00493 31.0396 8 31.0326 8 31.0236V26.3339C8 26.3309 8.00197 26.3289 8.00197 26.3258C8.00395 25.872 8.18452 25.2368 8.90287 24.5886C8.18649 23.9384 8.00493 23.3052 8.00099 22.8554C8.00099 22.8534 8 22.8514 8 22.8494V18.1596C8 18.1566 8.00197 18.1536 8.00197 18.1516C8.00395 17.6968 8.18551 17.0616 8.90385 16.4144C8.18649 15.7632 8.00493 15.131 8.00099 14.6802C8.00099 14.6782 8 14.6762 8 14.6752V9.98442C8 9.97941 8.00296 9.9764 8.00296 9.97139C8.02269 7.70618 12.1088 6 17.5279 6C20.1359 6 22.6422 6.4298 24.4016 7.17719L24.0207 8.10191C22.3778 7.40261 20.0106 7.00187 17.5279 7.00187C12.4946 7.00187 8.98772 8.57479 8.98772 9.98642C8.98772 11.3991 12.4946 12.972 17.5279 12.972C17.6661 12.973 17.7963 12.972 17.9305 12.966L17.971 13.9668C17.823 13.9738 17.675 13.9738 17.5279 13.9738C13.6806 13.9738 10.5132 13.1112 8.98674 11.8018V14.6641L8.98772 14.6762C8.99266 15.2212 9.53043 15.6961 9.9794 15.9976C11.3273 16.8873 13.7418 17.4944 16.4327 17.6196L16.3863 18.6205C13.6629 18.4943 11.276 17.9082 9.74061 17.0115C9.35676 17.3071 8.98772 17.7038 8.98772 18.1616C8.98772 19.5733 12.4946 21.1462 17.5279 21.1462C18.0243 21.1462 18.5088 21.1292 18.9814 21.0951L19.0534 22.094C18.5571 22.13 18.047 22.1481 17.5279 22.1481C13.6806 22.1481 10.5132 21.2865 8.98674 19.977V22.8384C8.99167 23.3964 9.52944 23.8713 9.9794 24.1718C11.5197 25.1897 14.4128 25.8229 17.5279 25.8229H17.747V26.8248H17.5279C14.3625 26.8248 11.498 26.2126 9.74159 25.1837C9.35775 25.4793 8.98772 25.877 8.98772 26.3359C8.98772 27.7475 12.4946 29.3204 17.5279 29.3204C22.5524 29.3204 26.0553 27.7525 26.0662 26.3419V26.3339V26.3329C26.0652 25.878 25.6991 25.4823 25.3173 25.1877C25.0735 25.331 24.812 25.4683 24.516 25.5945L24.1342 24.6718C24.4963 24.5165 24.812 24.3492 25.0725 24.1728C25.5264 23.8663 26.0672 23.3864 26.0672 22.8444ZM31.3551 14.4888H28.0722C27.9134 14.4888 27.7644 14.4107 27.6716 14.2794C27.5789 14.1482 27.5542 13.9799 27.6055 13.8266L29.0599 9.47948H22.5317L19.4106 15.4907H22.58C22.734 15.4907 22.879 15.5638 22.9718 15.688C23.0655 15.8113 23.0961 15.9726 23.0556 16.1239L20.3382 26.2317L31.3551 14.4888ZM32.8648 14.3335L19.7057 28.3596C19.609 28.4618 19.4787 28.5149 19.3475 28.5149C19.2646 28.5149 19.1807 28.4939 19.1047 28.4508C18.9084 28.3376 18.8117 28.1032 18.8719 27.8817L21.9347 16.4925H18.5926C18.42 16.4925 18.2591 16.4004 18.1703 16.2501C18.0805 16.0998 18.0746 15.9135 18.1555 15.7582L21.7976 8.74511C21.8834 8.58081 22.0511 8.47761 22.2337 8.47761H29.7487C29.9085 8.47761 30.0575 8.55576 30.1503 8.687C30.2421 8.81825 30.2677 8.98656 30.2164 9.13985L28.761 13.4869H32.5066C32.705 13.4869 32.8826 13.6062 32.9605 13.7905C33.0375 13.9748 33 14.1882 32.8648 14.3335ZM9.72778 31.0406C10.2991 31.3732 10.9987 31.6668 11.8068 31.9112L12.0881 30.9515C11.3539 30.729 10.7254 30.4666 10.2192 30.172L9.72778 31.0406ZM11.8068 23.8092L12.0881 22.8494C11.3559 22.628 10.7273 22.3655 10.2192 22.0689L9.72778 22.9385C10.3011 23.2732 11.0007 23.5657 11.8068 23.8092ZM9.72778 14.8355L10.2192 13.9668C10.7244 14.2614 11.3539 14.5249 12.0881 14.7473L11.8068 15.7071C10.9977 15.4626 10.2991 15.1691 9.72778 14.8355Z" fill="#C925D1"/>
</g>
<rect x="0.5" y="0.5" width="39" height="39" stroke="#C925D1"/>
<defs>
<clipPath id="clip0_23296_3496">
<rect width="40" height="40" fill="white"/>
</clipPath>
</defs>
</svg>
