<svg width="40" height="40" viewBox="0 0 40 40" fill="none" xmlns="http://www.w3.org/2000/svg">
<g clip-path="url(#clip0_23296_3527)">
<path d="M40 0H0V40H40V0Z" fill="#C925D1" fill-opacity="0.12"/>
<path fill-rule="evenodd" clip-rule="evenodd" d="M30.9842 29H31.9912V27H30.9842V29ZM28.9522 29H29.9591V27H28.9522V29ZM32.9931 32H20.9098V29.121L22.9176 27.063L26.2053 28.861C26.3603 28.946 26.5496 28.943 26.7037 28.854C26.8568 28.764 26.9514 28.6 26.9514 28.423V26H32.9931V32ZM33.4965 25H26.4479C26.169 25 25.9445 25.224 25.9445 25.5V27.577L23.0666 26.003C22.8683 25.896 22.6206 25.932 22.4625 26.093L20.0438 28.57C19.9542 28.664 19.9028 28.789 19.9028 28.918V32.5C19.9028 32.776 20.1274 33 20.4063 33H33.4965C33.7744 33 34 32.776 34 32.5V25.5C34 25.224 33.7744 25 33.4965 25ZM8.53145 8L12.2028 11.646L11.4908 12.354L7.81954 8.707V12H6.8126V7.5C6.8126 7.224 7.03715 7 7.31607 7H11.8473V8H8.53145ZM12.2028 26.354L8.53145 30H11.8473V31H7.31607C7.03715 31 6.8126 30.776 6.8126 30.5V26H7.81954V29.293L11.4908 25.646L12.2028 26.354ZM25.588 11.646L29.2603 8H25.9445V7H30.4757C30.7536 7 30.9792 7.224 30.9792 7.5V12H29.9722V8.707L26.2999 12.354L25.588 11.646ZM29.9682 18.538C29.9682 17.162 28.4034 15.814 25.7834 14.933L26.1056 13.986C29.1999 15.026 30.9751 16.685 30.9751 18.538C30.9751 20.391 29.1999 22.05 26.1056 23.09L25.7834 22.143C28.4034 21.262 29.9682 19.915 29.9682 18.538ZM7.00694 18.538C7.00694 19.837 8.50325 21.148 11.0095 22.046L10.6672 22.987C7.70173 21.924 6 20.302 6 18.538C6 16.773 7.70173 15.152 10.6672 14.089L11.0095 15.03C8.50325 15.928 7.00694 17.239 7.00694 18.538ZM18.8959 24.041C16.3705 24.041 14.9084 23.301 14.8681 23V21.793C15.8479 22.284 17.4016 22.482 18.8959 22.482C20.3892 22.482 21.9439 22.284 22.9237 21.793V22.999C22.8834 23.301 21.4213 24.041 18.8959 24.041ZM14.8681 18.821C15.8479 19.312 17.4016 19.509 18.8959 19.509C20.3892 19.509 21.9439 19.312 22.9237 18.821V20.496C22.9237 20.776 21.7254 21.482 18.8959 21.482C16.0654 21.482 14.8681 20.776 14.8681 20.496V18.821ZM14.8681 16.211C16.0422 16.759 17.9755 16.934 19.195 16.934C20.5211 16.934 21.9791 16.75 22.9237 16.295V17.522C22.9237 17.803 21.7254 18.509 18.8959 18.509C16.0654 18.509 14.8681 17.803 14.8681 17.522V16.211ZM19.195 14.066C21.8019 14.066 22.9237 14.811 22.9237 15.047C22.9237 15.292 21.7767 15.934 19.195 15.934C16.6685 15.934 15.0182 15.334 14.8681 15.076V15.068C15.002 14.765 16.6142 14.066 19.195 14.066ZM23.9306 23L23.9205 15C23.8661 13.86 21.9439 13.066 19.195 13.066C17.1559 13.066 13.9407 13.593 13.8682 15L13.8612 23C13.8612 24.326 16.4551 25.041 18.8959 25.041C21.3367 25.041 23.9306 24.326 23.9306 23Z" fill="#C925D1"/>
</g>
<rect x="0.5" y="0.5" width="39" height="39" stroke="#C925D1"/>
<defs>
<clipPath id="clip0_23296_3527">
<rect width="40" height="40" fill="white"/>
</clipPath>
</defs>
</svg>
