<svg width="24px" height="24px" viewBox="0 0 24 24" fill="none" xmlns="http://www.w3.org/2000/svg">
<path d="M20 13.8905C19.8808 13.7474 19.7139 13.6524 19.53 13.623C19.3461 13.5935 19.1579 13.6317 19 13.7305L12 18.8705V19.0905C12.101 19.0785 12.2034 19.0881 12.3004 19.1186C12.3974 19.149 12.4869 19.1997 12.5629 19.2672C12.639 19.3348 12.6998 19.4177 12.7415 19.5105C12.7832 19.6032 12.8047 19.7038 12.8047 19.8055C12.8047 19.9072 12.7832 20.0077 12.7415 20.1005C12.6998 20.1933 12.639 20.2762 12.5629 20.3437C12.4869 20.4113 12.3974 20.4619 12.3004 20.4924C12.2034 20.5229 12.101 20.5324 12 20.5205C12.1624 20.5212 12.3205 20.4685 12.45 20.3705L19.86 14.9005C20.0044 14.7794 20.0986 14.6091 20.1245 14.4224C20.1504 14.2358 20.106 14.0462 20 13.8905Z" fill="white"/>
<path d="M12 20.5198C11.8249 20.499 11.6635 20.4148 11.5464 20.283C11.4293 20.1512 11.3647 19.981 11.3647 19.8048C11.3647 19.6285 11.4293 19.4583 11.5464 19.3265C11.6635 19.1947 11.8249 19.1105 12 19.0898V18.8698L4.99995 13.7297C4.84274 13.6289 4.65388 13.5894 4.46942 13.6189C4.28497 13.6484 4.11784 13.7448 3.99995 13.8898C3.89452 14.0455 3.85238 14.2356 3.8821 14.4214C3.91182 14.6072 4.01117 14.7746 4.15995 14.8898L11.57 20.3598C11.6964 20.4564 11.8509 20.509 12.01 20.5098L12 20.5198Z" fill="white"/>
<path d="M12 18.3398C11.7093 18.3398 11.4251 18.4261 11.1833 18.5876C10.9416 18.7491 10.7532 18.9787 10.6419 19.2473C10.5307 19.5159 10.5016 19.8115 10.5583 20.0966C10.615 20.3818 10.755 20.6437 10.9606 20.8493C11.1662 21.0549 11.4281 21.1949 11.7132 21.2516C11.9984 21.3083 12.294 21.2792 12.5626 21.1679C12.8312 21.0567 13.0608 20.8683 13.2223 20.6265C13.3838 20.3848 13.47 20.1006 13.47 19.8098C13.47 19.42 13.3152 19.0461 13.0395 18.7704C12.7638 18.4947 12.3899 18.3398 12 18.3398ZM12 20.5198C11.8572 20.5198 11.7176 20.4773 11.599 20.3978C11.4804 20.3182 11.3881 20.2052 11.3339 20.073C11.2797 19.9409 11.2661 19.7956 11.2947 19.6557C11.3233 19.5157 11.3929 19.3875 11.4946 19.2872C11.5963 19.1869 11.7255 19.1191 11.8658 19.0925C12.0061 19.0658 12.1512 19.0815 12.2826 19.1376C12.4139 19.1936 12.5257 19.2874 12.6036 19.4071C12.6815 19.5269 12.722 19.667 12.72 19.8098C12.72 19.9039 12.7013 19.9971 12.665 20.0839C12.6287 20.1707 12.5755 20.2494 12.5086 20.3155C12.4416 20.3815 12.3621 20.4336 12.2748 20.4687C12.1875 20.5038 12.0941 20.5212 12 20.5198Z" fill="#DDDDDD"/>
<path d="M6.00012 6.10985C5.80201 6.10726 5.61275 6.02741 5.47265 5.88731C5.33256 5.74722 5.25271 5.55795 5.25012 5.35985V3.47985C5.23785 3.3734 5.24822 3.26557 5.28056 3.16341C5.31291 3.06126 5.36648 2.9671 5.43778 2.88712C5.50907 2.80713 5.59648 2.74312 5.69425 2.6993C5.79203 2.65547 5.89797 2.63281 6.00512 2.63281C6.11227 2.63281 6.21821 2.65547 6.31598 2.6993C6.41376 2.74312 6.50116 2.80713 6.57246 2.88712C6.64375 2.9671 6.69733 3.06126 6.72967 3.16341C6.76201 3.26557 6.77239 3.3734 6.76012 3.47985V5.35985C6.75749 5.55967 6.67626 5.75042 6.53401 5.8908C6.39177 6.03117 6.19996 6.10986 6.00012 6.10985Z" fill="white"/>
<path d="M5.97997 12.7602C6.39971 12.7602 6.73997 12.42 6.73997 12.0002C6.73997 11.5805 6.39971 11.2402 5.97997 11.2402C5.56023 11.2402 5.21997 11.5805 5.21997 12.0002C5.21997 12.42 5.56023 12.7602 5.97997 12.7602Z" fill="white"/>
<path d="M5.97997 10.5503C6.39971 10.5503 6.73997 10.21 6.73997 9.79027C6.73997 9.37054 6.39971 9.03027 5.97997 9.03027C5.56023 9.03027 5.21997 9.37054 5.21997 9.79027C5.21997 10.21 5.56023 10.5503 5.97997 10.5503Z" fill="white"/>
<path d="M5.97997 8.32957C6.39971 8.32957 6.73997 7.98931 6.73997 7.56957C6.73997 7.14983 6.39971 6.80957 5.97997 6.80957C5.56023 6.80957 5.21997 7.14983 5.21997 7.56957C5.21997 7.98931 5.56023 8.32957 5.97997 8.32957Z" fill="white"/>
<path d="M18 8.30992C17.8002 8.30729 17.6094 8.22606 17.4691 8.08382C17.3287 7.94157 17.25 7.74977 17.25 7.54992V5.66992C17.25 5.47101 17.329 5.28024 17.4697 5.13959C17.6103 4.99894 17.8011 4.91992 18 4.91992C18.1989 4.91992 18.3897 4.99894 18.5303 5.13959C18.671 5.28024 18.75 5.47101 18.75 5.66992V7.54992C18.7513 7.64925 18.7329 7.74785 18.6958 7.84001C18.6587 7.93216 18.6037 8.01602 18.5339 8.08673C18.4641 8.15743 18.381 8.21358 18.2893 8.25189C18.1977 8.29021 18.0993 8.30993 18 8.30992Z" fill="#DDDDDD"/>
<path d="M18.02 12.77C18.4397 12.77 18.78 12.4297 18.78 12.01C18.78 11.5903 18.4397 11.25 18.02 11.25C17.6003 11.25 17.26 11.5903 17.26 12.01C17.26 12.4297 17.6003 12.77 18.02 12.77Z" fill="#DDDDDD"/>
<path d="M18.02 10.52C18.4397 10.52 18.78 10.1797 18.78 9.76C18.78 9.34026 18.4397 9 18.02 9C17.6003 9 17.26 9.34026 17.26 9.76C17.26 10.1797 17.6003 10.52 18.02 10.52Z" fill="#DDDDDD"/>
<path d="M18.02 4.23973C18.4397 4.23973 18.78 3.89946 18.78 3.47973C18.78 3.05999 18.4397 2.71973 18.02 2.71973C17.6003 2.71973 17.26 3.05999 17.26 3.47973C17.26 3.89946 17.6003 4.23973 18.02 4.23973Z" fill="#DDDDDD"/>
<path d="M12 15C11.8019 14.9974 11.6126 14.9175 11.4725 14.7774C11.3324 14.6373 11.2526 14.4481 11.25 14.25V12.34C11.2714 12.1547 11.3601 11.9837 11.4993 11.8597C11.6385 11.7356 11.8185 11.667 12.005 11.667C12.1915 11.667 12.3715 11.7356 12.5107 11.8597C12.6499 11.9837 12.7386 12.1547 12.76 12.34V14.23C12.7613 14.3306 12.7426 14.4305 12.705 14.5239C12.6674 14.6172 12.6117 14.7022 12.541 14.7738C12.4703 14.8455 12.386 14.9023 12.2932 14.9412C12.2003 14.98 12.1007 15 12 15Z" fill="white"/>
<path d="M12 17.2104C12.4197 17.2104 12.76 16.8702 12.76 16.4504C12.76 16.0307 12.4197 15.6904 12 15.6904C11.5803 15.6904 11.24 16.0307 11.24 16.4504C11.24 16.8702 11.5803 17.2104 12 17.2104Z" fill="white"/>
<path d="M12 10.8999C12.4197 10.8999 12.76 10.5596 12.76 10.1399C12.76 9.72015 12.4197 9.37988 12 9.37988C11.5803 9.37988 11.24 9.72015 11.24 10.1399C11.24 10.5596 11.5803 10.8999 12 10.8999Z" fill="white"/>
<path d="M12 8.68016C12.4197 8.68016 12.76 8.33989 12.76 7.92016C12.76 7.50042 12.4197 7.16016 12 7.16016C11.5803 7.16016 11.24 7.50042 11.24 7.92016C11.24 8.33989 11.5803 8.68016 12 8.68016Z" fill="white"/>
<path d="M15.0001 10.5395C14.802 10.5369 14.6127 10.4571 14.4727 10.317C14.3326 10.1769 14.2527 9.98764 14.2501 9.78953V7.90953C14.2378 7.80309 14.2482 7.69525 14.2806 7.5931C14.3129 7.49095 14.3665 7.39679 14.4378 7.31681C14.5091 7.23682 14.5965 7.17281 14.6943 7.12898C14.792 7.08516 14.898 7.0625 15.0051 7.0625C15.1123 7.0625 15.2182 7.08516 15.316 7.12898C15.4138 7.17281 15.5012 7.23682 15.5725 7.31681C15.6438 7.39679 15.6973 7.49095 15.7297 7.5931C15.762 7.69525 15.7724 7.80309 15.7601 7.90953V9.78953C15.7575 9.98936 15.6763 10.1801 15.534 10.3205C15.3918 10.4609 15.2 10.5396 15.0001 10.5395Z" fill="#DDDDDD"/>
<path d="M15.01 6.44969C15.4297 6.44969 15.77 6.10942 15.77 5.68969C15.77 5.26995 15.4297 4.92969 15.01 4.92969C14.5903 4.92969 14.25 5.26995 14.25 5.68969C14.25 6.10942 14.5903 6.44969 15.01 6.44969Z" fill="#DDDDDD"/>
<path d="M15.01 14.9497C15.4297 14.9497 15.77 14.6094 15.77 14.1897C15.77 13.77 15.4297 13.4297 15.01 13.4297C14.5903 13.4297 14.25 13.77 14.25 14.1897C14.25 14.6094 14.5903 14.9497 15.01 14.9497Z" fill="#DDDDDD"/>
<path d="M15.01 12.73C15.4297 12.73 15.77 12.3897 15.77 11.97C15.77 11.5502 15.4297 11.21 15.01 11.21C14.5903 11.21 14.25 11.5502 14.25 11.97C14.25 12.3897 14.5903 12.73 15.01 12.73Z" fill="#DDDDDD"/>
<path d="M8.98998 14.9497C9.40972 14.9497 9.74998 14.6094 9.74998 14.1897C9.74998 13.77 9.40972 13.4297 8.98998 13.4297C8.57024 13.4297 8.22998 13.77 8.22998 14.1897C8.22998 14.6094 8.57024 14.9497 8.98998 14.9497Z" fill="white"/>
<path d="M8.98998 8.68016C9.40972 8.68016 9.74998 8.33989 9.74998 7.92016C9.74998 7.50042 9.40972 7.16016 8.98998 7.16016C8.57024 7.16016 8.22998 7.50042 8.22998 7.92016C8.22998 8.33989 8.57024 8.68016 8.98998 8.68016Z" fill="white"/>
<path d="M8.98998 6.44969C9.40972 6.44969 9.74998 6.10942 9.74998 5.68969C9.74998 5.26995 9.40972 4.92969 8.98998 4.92969C8.57024 4.92969 8.22998 5.26995 8.22998 5.68969C8.22998 6.10942 8.57024 6.44969 8.98998 6.44969Z" fill="white"/>
<path d="M8.99999 12.7296C8.80352 12.7298 8.61462 12.6538 8.47292 12.5177C8.33123 12.3816 8.24775 12.1959 8.23999 11.9996V10.0996C8.23999 9.9007 8.31901 9.70993 8.45966 9.56928C8.60031 9.42863 8.79108 9.34961 8.98999 9.34961C9.1889 9.34961 9.37967 9.42863 9.52032 9.56928C9.66097 9.70993 9.73999 9.9007 9.73999 10.0996V11.9996C9.73484 12.1933 9.65492 12.3775 9.51697 12.5136C9.37902 12.6497 9.19375 12.7271 8.99999 12.7296Z" fill="white"/>
</svg>
