<svg width="40" height="40" viewBox="0 0 40 40" xmlns="http://www.w3.org/2000/svg">  <g id="Icon-Architecture/32/Arch_Amazon-EFS_32" stroke="none" stroke-width="1" fill="none" fill-rule="evenodd">  <g id="Icon-Service/32/Amazon-EFS_32" transform="translate(6.000000, 6.000000)" fill="#FFFFFF"> <path d="M27,23 L28,23 L28,27.5 C28,27.776 27.776,28 27.5,28 L23,28 L23,27 L26.293,27 L22.646,23.354 L23.354,22.646 L27,26.293 L27,23 Z M5.354,23.354 L1.707,27 L5,27 L5,28 L0.5,28 C0.224,28 0,27.776 0,27.5 L0,23 L1,23 L1,26.293 L4.646,22.646 L5.354,23.354 Z M28,0.5 L28,5 L27,5 L27,1.707 L23.354,5.354 L22.646,4.646 L26.293,1 L23,1 L23,0 L27.5,0 C27.776,0 28,0.224 28,0.5 L28,0.5 Z M1,5 L0,5 L0,0.5 C0,0.224 0.224,0 0.5,0 L5,0 L5,1 L1.707,1 L5.354,4.646 L4.646,5.354 L1,1.707 L1,5 Z M6.474,10.31 C6.474,10.539 6.492,10.768 6.518,10.988 C6.548,11.238 6.387,11.471 6.142,11.532 C5.077,11.796 3.292,12.62 3.292,15.162 L3.299,15.397 C3.381,16.902 4.373,18.178 5.825,18.68 L5.499,19.625 C3.66,18.99 2.405,17.365 2.302,15.486 C2.296,15.349 2.292,15.256 2.292,15.162 C2.292,12.989 3.477,11.341 5.485,10.681 C5.479,10.558 5.474,10.434 5.474,10.31 C5.474,7.871 7.124,5.34 9.312,4.423 C11.867,3.351 14.579,3.886 16.561,5.85 C17.158,6.443 17.651,7.159 18.031,7.983 C19.631,6.723 22.532,7.288 22.933,10.561 C25.418,11.2 26.781,12.833 26.781,15.191 C26.781,17.792 25.368,18.895 24.184,19.362 L23.816,18.431 C25.139,17.911 25.781,16.851 25.781,15.191 C25.781,13.188 24.632,11.931 22.364,11.455 C22.144,11.409 21.98,11.22 21.968,10.995 C21.86,9.168 20.82,8.351 19.836,8.351 C19.225,8.351 18.647,8.651 18.254,9.175 C18.145,9.321 17.967,9.396 17.779,9.369 C17.598,9.341 17.445,9.216 17.384,9.042 C17.034,8.064 16.506,7.205 15.856,6.559 C15.047,5.758 12.828,4.033 9.698,5.346 C7.89,6.103 6.474,8.284 6.474,10.31 L6.474,10.31 Z M20,23 L8,23 L8,15.5 C8,15.289 8.04,15.131 8.109,15.067 C8.188,14.992 8.366,14.993 8.5,15 L9.897,15 C10.168,15 10.39,14.772 10.397,14.502 C10.4,14.403 10.467,14.155 10.53,13.999 L12.387,13.991 C12.433,14.147 12.475,14.384 12.475,14.5 C12.475,14.776 12.698,15 12.975,15 L19.675,14.999 C19.793,14.99 19.832,15.023 19.845,15.035 C19.92,15.105 20,15.326 20,15.733 L20,23 Z M22.307,16.5 L21,20.419 L21,16.5 L22.307,16.5 Z M23.475,16.158 C23.525,16.006 23.5,15.838 23.405,15.708 C23.312,15.577 23.161,15.5 23,15.5 L20.984,15.5 C20.949,14.967 20.801,14.56 20.527,14.304 C20.36,14.149 20.072,13.969 19.641,14 L13.414,14 C13.329,13.599 13.128,13.089 12.646,13 L10.312,13 C9.816,13 9.585,13.564 9.479,14 L8.534,14.001 C8.079,13.969 7.698,14.081 7.427,14.336 C7.144,14.6 7,14.992 7,15.5 L7,23.5 C7,23.776 7.224,24 7.5,24 L20.5,24 C20.721,24 20.902,23.854 20.969,23.656 L20.975,23.658 L23.475,16.158 Z" id="Amazon-EFS_Icon_32_Squid"></path> </g> </g></svg>