<svg width="40" height="40" viewBox="0 0 40 40" fill="none" xmlns="http://www.w3.org/2000/svg">
<g clip-path="url(#clip0_23298_3948)">
<path d="M40 0H0V40H40V0Z" fill="#01A88D" fill-opacity="0.12"/>
<path fill-rule="evenodd" clip-rule="evenodd" d="M24.949 16.45C24.573 16.826 23.903 16.816 23.547 16.462L21.865 14.659C21.726 14.509 21.508 14.459 21.316 14.534C21.126 14.61 21 14.794 21 15V25.5C21 25.57 20.992 25.638 20.97 25.764C20.833 27.578 19.308 29 17.5 29C15.57 29 14 27.429 14 25.5C14 23.57 15.57 22 17.5 22C17.766 22 18.045 22.04 18.374 22.125C18.523 22.162 18.683 22.132 18.805 22.037C18.928 21.942 19 21.796 19 21.641V11.5C19 11.38 19.024 11.257 19.075 11.12C19.177 10.875 19.375 10.677 19.637 10.572C19.876 10.476 20.104 10.471 20.381 10.576C20.505 10.627 20.614 10.7 20.707 10.793L24.949 15.035C25.138 15.224 25.242 15.475 25.242 15.742C25.242 16.01 25.137 16.261 24.949 16.45ZM21.415 10.086C21.228 9.899 21.008 9.753 20.73 9.641C20.255 9.454 19.777 9.443 19.239 9.651C18.75 9.853 18.352 10.249 18.14 10.77C18.047 11.01 18 11.255 18 11.5V16V17.132V18.167V20V21.033C17.829 21.011 17.664 21 17.5 21C15.018 21 13 23.018 13 25.5C13 27.981 15.018 30 17.5 30C19.828 30 21.791 28.173 21.96 25.9C21.986 25.771 22 25.637 22 25.5V21V19.975V18.857V18V16.269L22.828 17.157C23.585 17.913 24.903 17.912 25.656 17.157C26.034 16.779 26.242 16.277 26.242 15.742C26.242 15.208 26.034 14.706 25.656 14.328L21.415 10.086ZM33 17.922C30.484 20.091 27.092 20.756 24 19.742V20.772C24.958 21.054 25.937 21.211 26.913 21.211C29.07 21.211 31.199 20.528 33 19.211V30.5C33 31.878 31.879 33 30.5 33H9.5C8.121 33 7 31.878 7 30.5V22.833L7.958 21.556C9.869 19.009 12.916 17.677 16 17.856V16.834C12.605 16.655 9.261 18.152 7.157 20.956L7 21.166V9.5C7 8.121 8.121 7 9.5 7H30.5C31.879 7 33 8.121 33 9.5V17.922ZM30.5 6H9.5C7.57 6 6 7.57 6 9.5V30.5C6 32.429 7.57 34 9.5 34H30.5C32.429 34 34 32.429 34 30.5V9.5C34 7.57 32.429 6 30.5 6Z" fill="#01A88D"/>
</g>
<rect x="0.5" y="0.5" width="39" height="39" stroke="#01A88D"/>
<defs>
<clipPath id="clip0_23298_3948">
<rect width="40" height="40" fill="white"/>
</clipPath>
</defs>
</svg>
