<svg width="90" height="90" viewBox="0 0 90 90" fill="none" xmlns="http://www.w3.org/2000/svg">
<path fill-rule="evenodd" clip-rule="evenodd" d="M23.6379 5H31.6727V6.8755V8.751H25.3628V16.6488H23.4873H21.6118V7.02613C21.6118 5.90713 22.5189 5 23.6379 5ZM35.3811 6.8755V5H51.4507V6.8755V8.751H35.3811V6.8755ZM55.159 6.8755V5H71.2286V6.8755V8.751H55.159V6.8755ZM74.937 6.8755V5H82.9718C84.0908 5 84.9979 5.90713 84.9979 7.02613V16.6488H83.1224H81.2469V8.751H74.937V6.8755ZM83.1224 21.09H84.9979V40.3353H83.1224H81.2469V21.09H83.1224ZM83.1224 44.7766H84.9979V54.3992C84.9979 55.5182 84.0908 56.4253 82.9718 56.4253H75.6854V52.6743H81.2469V44.7766H83.1224Z" fill="white"/>
<mask id="path-2-inside-1_26185_15019" fill="white">
<rect x="12.2993" y="18.5363" width="63.3861" height="51.4253" rx="2.02613"/>
</mask>
<rect x="12.2993" y="18.5363" width="63.3861" height="51.4253" rx="2.02613" stroke="white" stroke-width="7.502" stroke-linejoin="round" stroke-dasharray="15.85 3.66" mask="url(#path-2-inside-1_26185_15019)"/>
<rect x="5.00244" y="31.6852" width="63.6514" height="53.3149" rx="2.01401" fill="#326CE5"/>
<path fill-rule="evenodd" clip-rule="evenodd" d="M7.01645 31.6848C5.90414 31.6848 5.00244 32.5865 5.00244 33.6988V82.9856C5.00244 84.0979 5.90414 84.9996 7.01645 84.9996H66.6398C67.7521 84.9996 68.6538 84.0979 68.6538 82.9856V33.6988C68.6538 32.5865 67.7521 31.6848 66.6398 31.6848H7.01645ZM21.952 50.3154C22.2844 50.6275 22.6893 50.9407 23.1734 51.2497C23.2521 51.2999 23.333 51.3501 23.416 51.4001C23.8478 51.6605 24.3372 51.9172 24.8879 52.1671C24.9595 52.1996 25.0321 52.2319 25.1058 52.2641C28.1376 53.5907 32.4465 54.4545 37.299 54.4545C42.1515 54.4545 46.4604 53.5907 49.4922 52.2641C49.5706 52.2298 49.6478 52.1954 49.7238 52.1608C50.2729 51.9112 50.7607 51.6547 51.1912 51.3946C51.2758 51.3435 51.3582 51.2922 51.4384 51.2409C51.9204 50.9321 52.3236 50.6192 52.6544 50.3075C52.8555 50.118 53.0299 49.9289 53.179 49.7414C53.6102 49.1992 53.8297 48.6707 53.873 48.1848C53.8751 48.1611 53.8768 48.1374 53.878 48.1139C53.88 48.0775 53.881 48.0415 53.881 48.0057C53.881 47.0675 53.2102 45.9489 51.5957 44.8732C51.0191 44.489 50.3221 44.1103 49.4922 43.7472C46.4604 42.4206 42.1515 41.5568 37.299 41.5568C32.4465 41.5568 28.1376 42.4206 25.1058 43.7472C23.1219 44.6152 21.8971 45.5727 21.2615 46.4805C20.8869 47.0156 20.717 47.5335 20.717 48.0057C20.717 48.0499 20.7185 48.0947 20.7215 48.1397C20.7235 48.1688 20.7261 48.1981 20.7293 48.2275C20.7813 48.7016 21.0004 49.2151 21.419 49.7414C21.5701 49.9315 21.7473 50.1232 21.952 50.3154ZM19.0024 48.0057C19.0024 48.0798 19.0047 48.1538 19.0093 48.2275V68.5989C19.0093 70.8096 21.0572 72.811 24.3683 74.2597C27.6793 75.7084 32.2534 76.6044 37.3059 76.6044C42.3583 76.6044 46.9325 75.7084 50.2435 74.2597C53.5545 72.811 55.6024 70.8094 55.6024 68.5988V48.1848H55.5984C55.5717 48.7182 55.4258 49.2387 55.1718 49.7414C54.8804 50.3183 54.4468 50.8719 53.8879 51.3946V68.5989C53.8879 69.8722 52.6523 71.4778 49.4991 72.8574C46.4673 74.184 42.1584 75.0478 37.3059 75.0478C32.4534 75.0478 28.1445 74.184 25.1126 72.8574C21.9595 71.4778 20.7239 69.872 20.7239 68.5988V51.4001C21.3783 52.0108 22.2038 52.5794 23.1734 53.0941C23.5483 53.2931 23.9449 53.4841 24.3614 53.6664C24.5335 53.7417 24.7091 53.8155 24.8879 53.8878C28.1493 55.2058 32.5092 56.0111 37.299 56.0111C42.0955 56.0111 46.461 55.2036 49.7238 53.8822C49.8979 53.8117 50.0689 53.7398 50.2366 53.6664C50.6582 53.4819 51.0594 53.2885 51.4384 53.0868C52.405 52.5725 53.2278 52.0045 53.88 51.3946L53.8838 51.391C54.4411 50.8694 54.8735 50.317 55.1643 49.7414C55.4183 49.2387 55.5643 48.7179 55.5911 48.1845C55.5941 48.1251 55.5956 48.0654 55.5956 48.0057C55.5956 46.7104 54.8925 45.4869 53.6442 44.4044C52.762 43.6394 51.6076 42.9448 50.2366 42.3449C46.9256 40.8962 42.3514 40.0002 37.299 40.0002C32.2465 40.0002 27.6724 40.8962 24.3614 42.3449C22.4496 43.1814 20.9589 44.2021 20.0404 45.341C19.3682 46.1746 19.0024 47.0714 19.0024 48.0057Z" fill="white"/>
</svg>
