<svg width="380" height="380" viewBox="0 0 380 380" fill="none" xmlns="http://www.w3.org/2000/svg">
<path d="M334.548 160L334.128 158.926L293.425 52.6998C292.597 50.6179 291.131 48.8517 289.237 47.6548C287.341 46.4782 285.131 45.9116 282.903 46.0313C280.675 46.151 278.538 46.9514 276.78 48.3244C275.041 49.7367 273.78 51.6506 273.167 53.8054L245.684 137.889H134.398L106.915 53.8054C106.319 51.6388 105.055 49.7154 103.303 48.3088C101.544 46.9358 99.4072 46.1355 97.1795 46.0157C94.9519 45.896 92.7412 46.4627 90.8458 47.6392C88.9559 48.841 87.4909 50.6056 86.6572 52.6842L45.8766 158.863L45.4718 159.938C39.6124 175.247 38.8892 192.047 43.4111 207.803C47.933 223.56 57.4549 237.419 70.5412 247.291L70.6813 247.4L71.055 247.665L133.059 294.098L163.734 317.314L182.419 331.422C184.605 333.081 187.274 333.98 190.018 333.98C192.762 333.98 195.431 333.081 197.617 331.422L216.302 317.314L246.977 294.098L309.355 247.385L309.51 247.26C322.567 237.386 332.067 223.541 336.582 207.806C341.097 192.071 340.383 175.295 334.548 160Z" fill="white"/>
</svg>
