<svg width="40" height="40" viewBox="0 0 40 40" fill="none" xmlns="http://www.w3.org/2000/svg">
<g clip-path="url(#clip0_23311_9622)">
<path d="M40 0H0V40H40V0Z" fill="#DD344C" fill-opacity="0.12"/>
<path fill-rule="evenodd" clip-rule="evenodd" d="M21.08 22.12C21.08 21.8 20.82 21.54 20.5 21.54C20.18 21.54 19.92 21.8 19.92 22.12C19.92 22.44 20.18 22.7 20.5 22.7C20.82 22.7 21.08 22.44 21.08 22.12ZM22.08 22.12C22.08 22.815 21.625 23.401 21 23.611V25H20V23.611C19.375 23.401 18.92 22.815 18.92 22.12C18.92 21.249 19.629 20.54 20.5 20.54C21.371 20.54 22.08 21.249 22.08 22.12ZM24.909 25.984V24.998H23V23.998H24.909V21.986H23V20.986H24.909V20.012H16.091V25.984H24.909ZM16.971 19.012H23.989V17C23.989 15.728 22.662 13.954 20.502 13.954C18.314 13.954 16.971 15.728 16.971 17V19.012ZM24.989 17V19.012H25.409C25.685 19.012 25.909 19.235 25.909 19.512V26.484C25.909 26.761 25.685 26.984 25.409 26.984H15.591C15.314 26.984 15.091 26.761 15.091 26.484V19.512C15.091 19.235 15.314 19.012 15.591 19.012H15.971V17C15.971 15.086 17.832 12.954 20.502 12.954C23.146 12.954 24.989 15.086 24.989 17ZM10.461 27.766L11.271 27.18C9.958 25.365 9.23 23.237 9.138 21H11V20H9.139C9.238 17.776 9.965 15.661 11.271 13.855L10.461 13.269C9.03 15.246 8.239 17.564 8.139 20H7V21H8.138C8.231 23.449 9.023 25.78 10.461 27.766ZM27.161 29.746C25.352 31.056 23.23 31.783 21 31.878V30H20V31.879C17.769 31.783 15.647 31.056 13.837 29.746L13.251 30.557C15.232 31.991 17.558 32.782 20 32.879V34H21V32.878C23.442 32.782 25.767 31.99 27.747 30.556L27.161 29.746ZM13.837 11.289C15.647 9.979 17.769 9.253 20 9.157V11H21V9.157C23.23 9.253 25.352 9.98 27.161 11.289L27.747 10.479C25.767 9.045 23.442 8.254 21 8.157V7H20V8.157C17.558 8.253 15.232 9.045 13.251 10.479L13.837 11.289ZM32.859 20C32.76 17.563 31.968 15.245 30.538 13.269L29.727 13.855C31.033 15.66 31.76 17.775 31.859 20H30V21H31.86C31.768 23.237 31.041 25.366 29.727 27.18L30.538 27.766C31.975 25.781 32.768 23.45 32.86 21H34V20H32.859ZM28.413 13.311L32.192 9.531L31.485 8.824L27.706 12.604L28.413 13.311ZM12.586 27.724L8.806 31.504L9.513 32.211L13.293 28.431L12.586 27.724ZM15.048 14.341L7.892 7.186L7.185 7.893L14.341 15.048L15.048 14.341ZM27.355 26.649L33.812 33.106L33.105 33.813L26.648 27.356L27.355 26.649Z" fill="#DD344C"/>
</g>
<rect x="0.5" y="0.5" width="39" height="39" stroke="#DD344C"/>
<defs>
<clipPath id="clip0_23311_9622">
<rect width="40" height="40" fill="white"/>
</clipPath>
</defs>
</svg>
