<svg width="2000" height="1288" viewBox="0 0 2000 1288" fill="none" xmlns="http://www.w3.org/2000/svg">
<path d="M1974.73 449.977C1906.15 409.671 1814.72 404.859 1737.71 427.718C1728.09 344.701 1673.95 272.513 1609.58 221.379L1583.71 200.324L1561.45 226.191C1518.14 276.122 1505.51 359.139 1511.52 422.906C1516.34 469.227 1530.77 517.353 1559.65 555.853C1537.39 568.486 1513.33 586.534 1491.07 594.354C1445.95 610.597 1396.62 626.238 1348.5 626.238H1241.42V400.648H1033.09V0H793.064V191.902H393.018V400.046H184.452V624.433H5.18372L2.17585 648.496C-5.6446 750.763 6.98844 850.023 50.3017 944.47L67.7473 979.962L69.552 982.97C195.882 1197.73 417.261 1287.37 658.492 1287.37C1125.91 1287.37 1512.12 1077.42 1687.78 637.066C1806.29 643.683 1927.81 608.19 1985.56 494.493L2000 465.617L1974.73 449.977V449.977ZM424.48 240.028H584.498V416.289H424.48V240.028ZM634.429 948.079C634.429 957.954 631.501 967.608 626.014 975.819C620.528 984.03 612.73 990.43 603.606 994.209C594.483 997.988 584.443 998.977 574.758 997.05C565.072 995.124 556.175 990.368 549.192 983.385C542.209 976.402 537.454 967.506 535.527 957.82C533.601 948.135 534.59 938.095 538.369 928.971C542.148 919.848 548.548 912.05 556.759 906.563C564.97 901.077 574.623 898.149 584.498 898.149C597.621 898.527 610.103 903.909 619.386 913.192C628.669 922.475 634.051 934.956 634.429 948.079ZM424.48 448.172H584.498V624.433H424.48V448.172ZM216.336 448.172H392.597V624.433H216.336V448.172ZM660.116 1252.48C406.854 1250.67 270.899 1165.85 159.006 1053.96C192.694 1055.76 224.577 1056.96 253.453 1056.96C279.321 1056.96 304.587 1056.96 328.65 1055.16C383.317 1053.17 437.593 1045.1 490.473 1031.1C527.169 1115.92 594.545 1194.12 714.859 1251.87L660.116 1252.48V1252.48ZM793.064 624.433H616.803V448.172H793.064V624.433ZM793.064 416.289H616.803V240.028H793.064V416.289ZM1001.21 624.433H824.947V448.172H1001.21V624.433V624.433ZM1001.21 416.289H824.947V240.028H1001.21V416.289V416.289ZM1001.21 208.144H824.947V31.8834H1001.21V208.144ZM1209.35 624.433H1033.09V448.172H1209.35V624.433ZM597.553 916.196C593.662 914.145 589.317 913.111 584.92 913.188C577.9 913.188 571.038 915.269 565.201 919.169C559.364 923.069 554.815 928.613 552.129 935.098C549.442 941.584 548.739 948.72 550.109 955.605C551.478 962.49 554.859 968.814 559.822 973.778C564.786 978.742 571.11 982.122 577.995 983.492C584.88 984.861 592.017 984.158 598.502 981.472C604.988 978.785 610.531 974.236 614.431 968.399C618.331 962.563 620.412 955.7 620.412 948.681C620.197 944.32 619.177 940.037 617.405 936.048C616.243 938.404 614.443 940.387 612.21 941.769C609.976 943.152 607.399 943.879 604.772 943.868C600.957 943.821 597.312 942.285 594.614 939.588C591.917 936.89 590.381 933.245 590.334 929.43C590.332 926.776 591.012 924.165 592.307 921.848C593.603 919.531 595.471 917.585 597.733 916.196H597.553Z" fill="white"/>
</svg>