<svg xmlns="http://www.w3.org/2000/svg" id="Layer_1" data-name="Layer 1" viewBox="0 0 550 225"><defs><style>.cls-1{fill:#3c494f}.cls-2{fill:#3c494e}.cls-3{fill:#647881}.cls-4{fill:#00b39f}.cls-5{fill:#00d3a9}.cls-6{fill:#477e96}</style></defs><title>smp-dark-text-side</title><g id="Title"><path d="M459.23,139.25H447.91V100.13a2.47,2.47,0,0,0-.19-1.15,1.89,1.89,0,0,0-.77-1,4.14,4.14,0,0,0-.95-.76,2.36,2.36,0,0,0-1.15-.2H392.5V85.75h52.15a13.67,13.67,0,0,1,5.56,1.15A15.06,15.06,0,0,1,454.82,90a14.8,14.8,0,0,1,3.06,4.6,13.71,13.71,0,0,1,1.15,5.56v39.12Zm-55.42,0H392.5V97.06h11.31Zm27.23,0H419.73V103H431Z" class="cls-1"/><path d="M382.91,125.25a12.83,12.83,0,0,1-1.15,5.37,12.19,12.19,0,0,1-3.07,4.41,14.07,14.07,0,0,1-4.41,3.07,12.8,12.8,0,0,1-5.37,1.15h-50V127.94h50a2.49,2.49,0,0,0,1.92-.77,2.46,2.46,0,0,0,.77-1.92v-4.41a2.46,2.46,0,0,0-.77-1.92,2.48,2.48,0,0,0-1.92-.76H332.86a13,13,0,0,1-5.37-1.15,12.27,12.27,0,0,1-4.41-3.07,16.52,16.52,0,0,1-3.06-4.41,12.83,12.83,0,0,1-1.15-5.37V99.75A12.19,12.19,0,0,1,320,94.38,12,12,0,0,1,323.08,90a17,17,0,0,1,4.41-3.07,12.86,12.86,0,0,1,5.37-1.15h50.05V97.06H332.86a2.63,2.63,0,0,0-2.68,2.69v4.41a2.61,2.61,0,0,0,2.68,2.68h36.05a12.33,12.33,0,0,1,5.37,1.15,12.19,12.19,0,0,1,4.41,3.07,14.18,14.18,0,0,1,3.07,4.41,12.83,12.83,0,0,1,1.15,5.37Z" class="cls-1"/><path d="M511.77,117.2h.76a8.19,8.19,0,0,0,8.25-8.25V94a8.19,8.19,0,0,0-8.25-8.25h-41.8v53.5h10.74l-.19-43.34H508.7v10.93H486.65V117.2" class="cls-1"/></g><g id="Needle"><path d="M148.46,129.45a13.23,13.23,0,1,0,12.12,14.25A13.24,13.24,0,0,0,148.46,129.45ZM147,148.08a5.46,5.46,0,1,1,5.87-5A5.5,5.5,0,0,1,147,148.08Z" class="cls-2"/><path d="M189.21,72.2c-1.63,1.13-3.13,2.32-4.69,3.5L178.71,85,167,103.39l-11.69,18.44-2.94,4.62L151,128.77a7.29,7.29,0,0,1-.75,1.12,3.1,3.1,0,0,0-.75,1.13c-.44,1.87-.82,3.75-1.19,5.68a1.85,1.85,0,0,0-.06.57A5.37,5.37,0,0,1,152,139.7a4,4,0,0,1,.5-.31c1.63-1.12,3.13-2.31,4.69-3.5a2.9,2.9,0,0,0,.69-1.19,10.2,10.2,0,0,1,.68-1.18L160,131.2l2.94-4.62,11.69-18.44L186.33,89.7l5.82-9.25c.43-1.87.81-3.81,1.18-5.75s.63-3.87.88-5.87C192.46,70,190.77,71,189.21,72.2Z" class="cls-2"/></g><g id="Gauge"><path d="M78.94,67.33a176.47,176.47,0,0,1,19.87-9L97.12,50A203.06,203.06,0,0,0,76.19,61.89Z" class="cls-3"/><path d="M206.87,53.77l17.19-19.38a196.79,196.79,0,0,0-33.56-4.31l-10,18.25A186,186,0,0,1,206.87,53.77Z" class="cls-4"/><path d="M75,69.39l-2.5-5.06C67.31,67.89,62.25,71.7,57.44,75.7l2.62,3.13C64.94,75.45,69.94,72.33,75,69.39Z" class="cls-3"/><path d="M240.13,67.2,265.88,49a184.81,184.81,0,0,0-36.94-13.5L211.5,55.14A180.65,180.65,0,0,1,240.13,67.2Z" class="cls-5"/><path d="M56.5,81.39l-2.38-2.87A167.34,167.34,0,0,0,41.25,90.77l1.87,1.5C47.44,88.45,51.88,84.83,56.5,81.39Z" class="cls-2"/><path d="M270.25,51.27,244.44,69.52a189,189,0,0,1,31.31,22.31l33.56-13.06A186.84,186.84,0,0,0,270.25,51.27Z" class="cls-5"/><path d="M38.12,94A212.44,212.44,0,0,0,20,116.77a184.66,184.66,0,0,1,19.81-21.5Z" class="cls-2"/><path d="M128.94,37.64,128.25,50a170.56,170.56,0,0,1,19.88-2.5l4.31-15.13A208.3,208.3,0,0,0,128.94,37.64Z" class="cls-6"/><path d="M152.75,47.27c2.25-.07,4.56-.13,6.87-.13,5.44,0,10.88.25,16.19.75L185.56,30a194.16,194.16,0,0,0-28.44,1.68Z" class="cls-4"/><path d="M102.87,56.77a170,170,0,0,1,20.94-5.88L124.5,39a187.49,187.49,0,0,0-23.31,9.06Z" class="cls-6"/></g></svg>