<svg id="Layer_1" data-name="Layer 1" xmlns="http://www.w3.org/2000/svg" viewBox="0 0 462.53583 462.53583"><defs><style>.cls-1{fill:#97d8e8;}.cls-2{fill:#3953a4;}</style></defs><path class="cls-1" d="M59.9602,349.8876l-2.00557-2.166-1.96546-2.20613-3.77047-4.57271-3.73037-4.65292-3.8507-4.57271-.92256-1.083-.84234-1.12312-.722-1.12312-.68189-1.16323-.52145-1.16323-.48134-1.20334-.361-1.20335-.24067-1.20334-.16044-1.20334-.04012-1.24346.08023-1.24345.20055-1.20335.3209-1.24345.44122-1.24346.56156-1.20334.6819-1.24345.88245-1.24346.88245-1.0429.92256-.88245,1.00279-.68189,1.00279-.52145,1.04289-.361,1.083-.20056,1.083-.08022h1.12312l1.16323.16044,1.16323.24067,1.16324.361,2.40668.92257,2.48691,1.12312,11.59221,5.29471,11.75265,4.25181,11.79277,3.12869,5.93649,1.12312,5.9766.80223,6.01672.52145,6.01672.16045,6.05682-.12034,6.09694-.48134,6.137-.84234,6.13705-1.16323,6.17717-1.52423,6.21727-1.88524,5.89638-2.20613,5.6156-2.56713,5.33483-2.96825,5.054-3.40947,4.81337-3.8507,4.49248-4.29192,4.2117-4.77327,3.93092-5.33482,1.48413-2.08579,1.48412-1.805,1.48412-1.52423,1.48413-1.20335,1.444-.96267,1.444-.68189.722-.20056.722-.16045.722-.08022.722-.04011.68189.04011.722.12033.722.20056.6819.28078,1.444.722,1.4039,1.04289,1.4039,1.28357,1.36379,1.56435,1.4039,1.84512,1.4039,2.166,5.33482,8.263,5.6156,7.78162,5.89639,7.30028,6.17716,6.77883,6.41783,6.33761,6.69861,5.81616,6.93928,5.37493,7.22006,4.85349,7.46073,4.37215,7.7415,3.93092,7.98218,3.44958,8.22285,2.92814,8.50362,2.48691,8.7443,2.04568,8.985,1.52423,9.22563,1.083,7.46073.40112,7.42062-.20056,7.3805-.722,7.3404-1.16323,7.30028-1.64457,7.26017-2.00557,7.13984-2.32646,7.13983-2.64736,9.1053-3.8507,2.60724-.96267,1.28357-.361,1.28357-.3209,1.24345-.20055,1.20334-.12034h1.20335l1.16323.12034,1.12312.24067,1.12312.40111,1.0429.56156,1.04289.6819.96268.88245.92256,1.083.88245,1.28356.80223,1.444.6819,1.52424.48133,1.4039.28078,1.36379.12034,1.32368-.04011,1.24345-.20056,1.20334-.361,1.12312-.44123,1.12312-.56156,1.0429-.68189,1.00279-.76212.96267-.84234.92257-1.84513,1.7649-1.96546,1.68468-16.4858,12.19388-16.927,10.8702-17.40836,9.4663-17.92982,8.0624-18.371,6.61839-18.9326,5.13426-19.41394,3.61-19.9755,2.0858-5.13426.40111-5.09415.52145-10.26853,1.12312-26.83456-1.88524-25.87188-4.332-12.595-3.04847-12.35432-3.69026-12.11366-4.29192-11.873-4.93371-11.63232-5.53538-11.39164-6.137L101.3151,385.50656l-21.17884-16.566Z"/><path class="cls-2" d="M407.96707,192.65074l-9.66685-15.64346-4.57271-6.97939-4.61281-6.57828-4.85349-6.3376-5.33482-6.17717-5.9766-6.13705-6.819-6.25738-6.33761-4.97382-7.05961-4.73315-15.20224-9.26574-7.58106-4.77327-7.22006-5.01393-6.57828-5.33482-2.92813-2.8078-2.68747-2.96825-2.166-2.8078-1.96546-2.84791-1.68468-2.888-1.4039-2.92814-1.12312-2.96824-.88245-3.00836-.60167-2.96825-.32089-3.04847-.08023-3.00836.24067-3.04847.48134-3.00835.76212-3.04847,1.04289-3.04847,1.32368-3.00836,1.64457-3.00836,1.88524-3.00836,1.24345-1.72479,1.28357-1.68468,2.72758-3.20892,2.92813-3.00835,3.04847-2.84792,13.63789-11.47187L310.777,25.54648l-21.49973.12033-21.17884,1.805-20.89806,3.36936L226.58313,35.815l-20.3365,6.458L186.231,50.25512,166.416,59.68131,147.52348,70.67185l-19.815,13.75822-19.77494,15.68358L89.041,116.88023,71.91341,133.88748,57.39307,150.29306l-6.01671,7.74151-5.01393,7.22006-3.93093,6.69861L39.70393,177.97l16.96714-5.61561,16.8468-4.9337,16.8067-4.29193,16.68636-3.61,16.64624-2.96824,16.52592-2.28636,16.44569-1.60445,16.36547-1.00279,7.78162,11.75265,8.14262,9.86742,8.4234,8.14262,8.54374,6.57828,8.58385,5.17437,8.4234,3.93092,8.22285,2.84792,7.86184,1.88523,7.3805,1.083,6.819.44123,6.09694-.04011,5.21449-.361,4.29192-.56156,3.249-.60167,2.68746-.64178-14.68078-43.03958,20.65739,4.61282,20.53706,5.81616,20.41672,7.0195,20.29639,8.263,20.13594,9.4663,20.01561,10.70975,19.89528,11.95321,19.77494,13.19666-2.56713-9.54652-3.28914-9.78719-1.84513-4.73315-1.96546-4.53259-2.04568-4.17159Z"/></svg>