<svg width="164" height="161" viewBox="0 0 164 161" fill="none" xmlns="http://www.w3.org/2000/svg">
<g clip-path="url(#clip0_20355_14352)">
<path d="M163.992 95.9897H164V142.508C164 143.755 163.435 145.01 162.33 146.232C161.258 147.422 159.645 148.587 157.558 149.703C153.424 151.902 147.513 153.887 139.982 155.585C124.494 159.072 103.906 161 82 161C60.094 161 39.506 159.072 24.018 155.585C16.4868 153.879 10.5764 151.902 6.44245 149.703C4.355 148.587 2.74234 147.422 1.66996 146.232C0.556654 145.01 0 143.755 0 142.508V95.9897H0.00818608C0 95.9159 0 95.8338 0 95.76C0 94.554 0.515723 93.3808 1.48168 92.2486C3.07797 90.378 5.91854 88.6059 9.81511 86.9814V89.1638C9.81511 91.9286 10.9039 94.595 12.9668 96.8676C14.3911 98.4346 16.2494 99.8211 18.6643 101.109C23.666 103.776 28.2011 105.039 34.4307 106.45C47.2746 109.346 64.2444 110.938 82.2047 110.938C100.165 110.938 117.135 109.346 129.979 106.45C136.593 104.957 141.898 103.16 145.745 101.109C148.16 99.8211 150.026 98.4346 151.443 96.8676C153.505 94.595 154.602 91.9368 154.602 89.1638V87.1537C158.278 88.729 160.979 90.4436 162.518 92.2486C163.484 93.3808 164 94.554 164 95.76C164 95.8338 164 95.9159 163.992 95.9897Z" fill="#436EDF"/>
<path d="M147.571 49.5046H147.587V85.8822C147.587 86.8913 147.145 87.884 146.261 88.8603C145.401 89.8038 144.124 90.7391 142.454 91.6251C139.164 93.3808 134.448 94.9561 128.44 96.3098C116.087 99.0992 99.6657 100.633 82.2048 100.633C64.7438 100.633 48.3226 99.0992 35.9698 96.318C29.9694 94.9561 25.2542 93.3808 21.9634 91.6251C20.2934 90.7391 19.0082 89.8038 18.1487 88.8603C17.2646 87.884 16.8225 86.8831 16.8225 85.8822V49.5046H16.8389C16.8225 49.4307 16.8225 49.3487 16.8225 49.2749C16.8225 48.0606 17.4856 46.8792 18.7217 45.747C20.6127 44.0159 23.838 42.3997 28.1684 40.9722C28.4795 42.9002 29.3718 44.7215 30.8125 46.3131C31.9995 47.6094 33.5139 48.7498 35.4622 49.7835C38.3928 51.3505 42.3795 52.7042 47.332 53.82C56.7379 55.9449 69.1316 57.1099 82.2457 57.1099C95.3598 57.1099 107.754 55.9449 117.159 53.82C122.104 52.7042 126.099 51.3505 129.029 49.7835C130.969 48.7498 132.492 47.6176 133.671 46.3131C135.103 44.7297 135.996 42.9166 136.315 40.9968C138.451 41.7023 140.301 42.4571 141.873 43.2447C145.54 45.0907 147.587 47.1253 147.587 49.2749C147.587 49.3487 147.587 49.4307 147.571 49.5046Z" fill="#436EDF"/>
<path d="M35.1512 8.09767H35.1593C35.1512 8.05665 35.1266 8.01563 35.1184 7.97461C35.1266 8.01563 35.1348 8.05665 35.143 8.09767H35.1512Z" fill="#436EDF"/>
<path d="M129.332 8.09767C129.348 8.05665 129.348 8.01563 129.356 7.97461C129.348 8.01563 129.332 8.05665 129.315 8.08947H129.324L129.332 8.09767Z" fill="#436EDF"/>
<path d="M129.43 10.8788H129.447V36.1561C129.447 36.8781 129.119 37.6 128.481 38.3056C127.867 38.9865 126.934 39.6593 125.73 40.3074C123.356 41.5709 119.951 42.7113 115.621 43.6876C106.706 45.6976 94.8525 46.8052 82.2459 46.8052C69.6393 46.8052 57.7859 45.6976 48.8712 43.6876C44.5326 42.7113 41.1272 41.5709 38.7532 40.3074C37.5499 39.6593 36.6248 38.9865 36.0027 38.3056C35.3642 37.6 35.0449 36.8781 35.0449 36.1561V10.8788C35.0449 10.7968 35.0449 10.7229 35.0449 10.6409C35.0449 9.41026 35.9781 8.22885 37.6808 7.12948C44.1233 2.97814 61.6333 0 82.2459 0C102.858 0 120.368 2.97814 126.803 7.12948C127.654 7.67917 128.317 8.25347 128.767 8.83597C129.209 9.41847 129.447 10.0256 129.447 10.6409C129.447 10.7229 129.447 10.7968 129.43 10.8788Z" fill="#436EDF"/>
</g>
<defs>
<clipPath id="clip0_20355_14352">
<rect width="164" height="161" fill="white"/>
</clipPath>
</defs>
</svg>
