<svg width="40" height="40"  viewBox="0 0 40 40" xmlns="http://www.w3.org/2000/svg">  <g id="Icon-Architecture/32/Arch_AWS-Glue-DataBrew_32" stroke="none" stroke-width="1" fill="none" fill-rule="evenodd">  <g id="Icon-Service/32/AWS-Glue-DataBrew_32" transform="translate(6.000000, 6.000000)" fill="#FFFFFF"> <path d="M3,14 C3,14.551 2.552,15 2,15 C1.448,15 1,14.551 1,14 C1,13.449 1.448,13 2,13 C2.552,13 3,13.449 3,14 L3,14 Z M0,14 C0,15.103 0.897,16 2,16 C3.103,16 4,15.103 4,14 C4,12.897 3.103,12 2,12 C0.897,12 0,12.897 0,14 L0,14 Z M28,1.972 L28,26.028 C28,27.115 27.115,28 26.027,28 L1.973,28 C0.885,28 0,27.115 0,26.028 L0,17 L1,17 L1,26.028 C1,26.564 1.437,27 1.973,27 L26.027,27 C26.563,27 27,26.564 27,26.028 L27,1.972 C27,1.436 26.563,1 26.027,1 L1.973,1 C1.437,1 1,1.436 1,1.972 L1,11 L0,11 L0,1.972 C0,0.885 0.885,0 1.973,0 L26.027,0 C27.115,0 28,0.885 28,1.972 L28,1.972 Z M2,22 L4.693,22 C7.547,22 10.822,20.126 12.148,17.733 L13.023,18.218 C11.512,20.944 7.931,23 4.693,23 L2,23 L2,22 Z M22.063,4.501 L24.131,4.501 L23.057,3.426 L23.764,2.719 L25.829,4.785 C26.024,4.98 26.024,5.296 25.829,5.492 L23.764,7.557 L23.057,6.85 L24.406,5.501 L22.151,5.501 C19.545,5.501 16.267,6.88 14.621,9.961 L13.738,9.49 C15.333,6.506 18.678,4.501 22.063,4.501 L22.063,4.501 Z M13.879,14.164 C13.966,18.484 17.555,22 21.88,22 L24.255,22 L23.057,20.801 L23.764,20.094 L25.829,22.16 C26.024,22.355 26.024,22.672 25.829,22.867 L23.764,24.933 L23.057,24.226 L24.282,23 L21.966,23 C17.015,23 12.977,19.045 12.879,14.184 C12.788,9.595 9.273,6 4.879,6 L2,6 L2,5 L4.879,5 C9.823,5 13.776,9.025 13.879,14.164 L13.879,14.164 Z M6,11 C5.448,11 5,10.551 5,10 C5,9.449 5.448,9 6,9 C6.552,9 7,9.449 7,10 C7,10.551 6.552,11 6,11 L6,11 Z M6,8 C4.897,8 4,8.897 4,10 C4,11.103 4.897,12 6,12 C7.103,12 8,11.103 8,10 C8,8.897 7.103,8 6,8 L6,8 Z M9.149,15.988 L8.488,17.442 L7.033,16.781 L7.694,15.327 L9.149,15.988 Z M5.709,17.277 L8.984,18.767 L10.474,15.492 L7.198,14.002 L5.709,17.277 Z M23,10 L25.016,10 L25.001,16 L22.993,16 L23,10 Z M21.992,17 L25.999,17 L26.018,9 L22.001,9 L21.992,17 Z M16.999,11 L19.016,11 L19.001,16 L16.994,16 L16.999,11 Z M15.992,17 L19.999,17 L20.018,10 L16.001,10 L15.992,17 Z" id="Fill-3"></path> </g> </g></svg>