<svg xmlns="http://www.w3.org/2000/svg" viewBox="0 0 279.49 51.83"><defs><style>.cls-1{fill:#00d3a9}.cls-2{fill:#00b39f}.cls-3{fill:#fff}</style></defs><title>Asset 14</title><g id="Layer_2" data-name="Layer 2"><g id="Layer_1-2" data-name="Layer 1"><polygon points="26.68 12.21 26.68 24.59 37.4 18.38 26.68 12.21" class="cls-1"/><polygon points="26.68 27.18 26.68 39.62 37.5 33.43 26.68 27.18" class="cls-1"/><polygon points="25.13 24.51 25.13 12.32 14.54 18.39 25.13 24.51" class="cls-2"/><path d="M3.88,39.58a26,26,0,0,0,8.22,8.27v-13Z" class="cls-2"/><polygon points="25.13 39.56 25.13 27.27 14.51 33.42 25.13 39.56" class="cls-2"/><polygon points="13.64 47.07 24.4 40.92 13.64 34.7 13.64 47.07" class="cls-1"/><polygon points="38.24 47.14 38.24 34.79 27.5 40.93 38.24 47.14" class="cls-2"/><path d="M48.76,38.14A25.71,25.71,0,0,0,51.8,27L40.6,33.44Z" class="cls-2"/><polygon points="39.78 32.13 50.58 25.95 39.78 19.75 39.78 32.13" class="cls-1"/><polygon points="38.24 17.08 38.24 4.81 27.55 10.94 38.24 17.08" class="cls-2"/><polygon points="38.24 32.07 38.24 19.68 27.52 25.89 38.24 32.07" class="cls-2"/><polygon points="25.9 51.83 25.91 51.83 25.9 51.83 25.9 51.83" class="cls-2"/><polygon points="13.64 19.66 13.64 32.14 24.43 25.89 13.64 19.66" class="cls-1"/><path d="M25.13,0A25.75,25.75,0,0,0,13.75,3L25.13,9.55Z" class="cls-2"/><polygon points="13.64 4.72 13.64 17.13 24.44 10.93 13.64 4.72" class="cls-1"/><path d="M12.1,4a26,26,0,0,0-8.22,8.27L12.1,17Z" class="cls-2"/><path d="M38.17,3.07A25.8,25.8,0,0,0,26.68,0V9.65Z" class="cls-1"/><path d="M0,26.82A25.76,25.76,0,0,0,3.1,38.24l8.32-4.82Z" class="cls-1"/><path d="M3.1,13.58A25.67,25.67,0,0,0,0,24.94l11.44-6.55Z" class="cls-1"/><path d="M13.73,48.8a25.81,25.81,0,0,0,11.4,3V42.28Z" class="cls-2"/><path d="M48,12.28A25.91,25.91,0,0,0,39.78,4V17Z" class="cls-1"/><path d="M39.78,47.8A26,26,0,0,0,48,39.48l-8.21-4.73Z" class="cls-1"/><path d="M51.8,24.88a25.84,25.84,0,0,0-3.07-11.27l-8.24,4.77Z" class="cls-2"/><path d="M26.68,51.82a25.81,25.81,0,0,0,11.37-3L26.68,42.24Z" class="cls-1"/><polygon points="12.1 32.03 12.1 19.79 1.47 25.88 12.1 32.03" class="cls-2"/><polygon points="197.13 19 197.13 20.13 197.13 25.45 197.13 31.94 197.13 41.41 222.35 41.41 222.35 36.09 202.45 36.09 202.45 31.94 202.45 30.77 217.74 30.77 217.74 25.45 202.45 25.45 202.45 20.13 222.35 20.13 222.35 14.81 197.13 14.81 197.13 19" class="cls-3"/><polygon points="100.14 19 100.14 20.13 100.14 25.45 100.14 31.94 100.14 41.41 125.35 41.41 125.35 36.09 105.46 36.09 105.46 31.94 105.46 30.77 120.74 30.77 120.74 25.45 105.46 25.45 105.46 20.13 125.35 20.13 125.35 14.81 100.14 14.81 100.14 19" class="cls-3"/><path d="M160.26,34.46a6.61,6.61,0,0,1-.55,2.69,7,7,0,0,1-1.51,2.22A7.34,7.34,0,0,1,156,40.86a6.7,6.7,0,0,1-2.71.55H128.38v-5.6h24.89a1.35,1.35,0,0,0,1.35-1.35V32.29A1.33,1.33,0,0,0,153.27,31H135.36a6.78,6.78,0,0,1-2.69-.55,7.19,7.19,0,0,1-2.24-1.51,7,7,0,0,1-1.5-2.23,6.62,6.62,0,0,1-.55-2.7V21.8a6.75,6.75,0,0,1,.55-2.72,7,7,0,0,1,1.5-2.21,7.19,7.19,0,0,1,2.24-1.51,6.61,6.61,0,0,1,2.69-.55h24.9v5.64h-24.9a1.27,1.27,0,0,0-1,.39,1.31,1.31,0,0,0-.4,1V24a1.31,1.31,0,0,0,.4,1,1.27,1.27,0,0,0,1,.39h17.91a6.7,6.7,0,0,1,2.71.55,7.11,7.11,0,0,1,3.73,3.72,6.74,6.74,0,0,1,.55,2.71Z" class="cls-3"/><path d="M193.81,41.41h-5.07V31H169V41.41h-5.08V25.31h24.86V14.81h5.07ZM169,22.81h-5.08v-8H169Z" class="cls-3"/><polygon points="266.19 24.12 259.55 14.81 252.9 14.81 263.54 30.77 263.54 41.41 268.86 41.41 268.86 30.77 279.49 14.81 272.93 14.81 266.19 24.12" class="cls-3"/><path d="M231.4,19.88H245v5.53h-11v5.08h2.52l9.65,10.92h6.57l-9.65-10.92h3.76A4.13,4.13,0,0,0,251,26.36V18.94a4.13,4.13,0,0,0-4.13-4.13H226.19v26.6h5.32Z" class="cls-3"/><path d="M96.05,41.41H90.41V22a1.38,1.38,0,0,0-.13-.6,1.56,1.56,0,0,0-.33-.5,1.77,1.77,0,0,0-.5-.34,1.53,1.53,0,0,0-.6-.12H62.78V14.81H88.85a6.88,6.88,0,0,1,2.78.57,7.08,7.08,0,0,1,3.85,3.85A6.88,6.88,0,0,1,96.05,22Zm-27.63,0H62.78v-21l5.64-1.55Zm13.8,0H76.58v-18h5.64Z" class="cls-3"/></g></g></svg>