<?xml version="1.0" encoding="iso-8859-1"?>
<!-- Generator: Adobe Illustrator 16.0.0, SVG Export Plug-In . SVG Version: 6.00 Build 0)  -->
<!DOCTYPE svg PUBLIC "-//W3C//DTD SVG 1.1//EN" "http://www.w3.org/Graphics/SVG/1.1/DTD/svg11.dtd">
<svg version="1.1" id="Capa_1" xmlns="http://www.w3.org/2000/svg" xmlns:xlink="http://www.w3.org/1999/xlink" x="0px" y="0px"
	 width="511.655px" height="511.655px" viewBox="0 0 511.655 511.655" style="enable-background:new 0 0 511.655 511.655;"
	 xml:space="preserve">
<g>
	<g>
		<path d="M469.584,428.409c-2.087-2.379-5.041-4.709-8.846-6.995c-0.575-0.373-2.143-1.279-4.702-2.7
			c-2.566-1.43-4.613-2.666-6.143-3.716c-1.52-1.048-3.519-2.854-5.996-5.425c-2.471-2.566-4.421-5.283-5.852-8.138
			c-1.427-2.851-2.807-6.704-4.141-11.56c-1.335-4.856-2.088-10.232-2.283-16.133c-2.666,2.276-4.138,6.797-4.425,13.559
			c-0.287,6.756,1.144,13.651,4.285,20.694c3.138,7.046,7.85,11.607,14.13,13.706c6.088,2.098,10.988,4.328,14.705,6.707
			c3.706,2.382,6.091,5.089,7.139,8.135c1.047,3.053-0.719,6.334-5.284,9.852c-4.572,3.525-11.898,6.995-21.984,10.432
			c-13.894,4.753-23.746,8.802-29.554,12.128c-5.804,3.333-14.317,9.664-25.55,18.986c-7.617,6.282-15.704,9.664-24.273,10.14
			c-8.559,0.479-15.512-2.662-20.837-9.418c-5.332-6.755-7.05-16.316-5.144-28.695c3.617-23.79,3.528-42.349-0.277-55.671
			c-3.046-10.469-3.717-19.702-1.998-27.696c1.711-7.986,4.373-12.647,7.994-13.982c3.606-1.338,7.515,1.52,11.703,8.559
			c0.373,0.951,1.235,2.807,2.563,5.568c1.331,2.758,2.423,4.716,3.288,5.852c0.856,1.143,2.14,2.618,3.854,4.429
			c1.711,1.813,3.864,3.093,6.427,3.859c2.567,0.76,5.562,1.235,8.994,1.424c6.471,0.188,12.271-1.143,17.415-3.997
			c5.137-2.854,8.997-6.043,11.563-9.564c2.566-3.525,5.14-6.899,7.707-10.137c2.566-3.241,4.805-5.048,6.711-5.431
			c2.091-0.373,3.997-2.468,5.711-6.28c1.712-3.805,2.854-9.086,3.426-15.841c0.575-6.759,0.096-14.801-1.424-24.123
			c-2.857-16.566-8.524-34.741-16.991-54.535c-8.473-19.797-17.936-35.309-28.407-46.54c-18.842-19.983-31.494-40.729-37.972-62.239
			c-6.656-22.648-9.507-43.015-8.559-61.098c0.954-12.944-1.855-26.982-8.419-42.115c-6.563-15.131-15.276-26.694-26.125-34.688
			c-6.851-5.137-15.324-9.086-25.406-11.848c-10.088-2.762-20.179-4.043-30.267-3.855c-12.369,0-22.27,1.997-29.69,5.996
			c-15.227,8.186-25.312,18.13-30.264,29.836c-4.952,11.704-7.232,26.122-6.854,43.253c0.765,37.687,2.284,67.189,4.57,88.505
			c-2.667,9.899-14.465,28.454-35.404,55.672c-3.809,3.809-7.521,8.947-11.138,15.418c-3.615,6.473-6.471,12.28-8.564,17.415
			c-2.096,5.137-4.902,12.56-8.423,22.269c-3.523,9.705-6.042,16.56-7.566,20.554c-1.332,3.432-3.427,7.422-6.28,11.998
			c-2.856,4.564-5.145,9.041-6.854,13.411c-1.709,4.377-2.663,9.325-2.853,14.846c-0.19,4.188,0,7.806,0.572,10.848
			c0.759,4.575,2.19,5.999,4.281,4.288c8.569-6.472,19.323-2.666,32.264,11.423c9.136,9.897,25.221,32.929,48.251,69.094
			c1.903,3.234,3.805,6.707,5.708,10.428c1.908,3.706,3.711,8.65,5.426,14.838c1.713,6.194,2.428,11.756,2.141,16.707
			c-0.288,4.952-2.474,9.521-6.567,13.702c-4.093,4.186-10.232,6.849-18.415,7.991c-4.38,0.571-9.657,0.195-15.846-1.143
			c-6.186-1.332-14.038-3.519-23.553-6.564c-9.517-3.042-16.558-5.14-21.127-6.283c-6.658-1.526-16.127-3.467-28.406-5.852
			c-12.278-2.382-20.322-4.141-24.128-5.284c-6.471-1.711-9.991-4.182-10.561-7.422c-0.572-2.666,0.76-7.231,3.997-13.699
			c3.239-6.472,4.854-11.14,4.854-13.99c0.188-2.098,0.094-4.185-0.288-6.282c-0.378-2.095-0.806-3.714-1.283-4.856
			c-0.476-1.14-1.285-2.854-2.428-5.141c-1.143-2.282-1.903-4-2.284-5.136c-3.424-7.998-3.901-13.429-1.427-16.279
			c1.711-2.475,5.804-3.426,12.275-2.852c9.707,0.952,17.605-0.479,23.697-4.287c10.085-6.28,13.134-16.368,9.135-30.266
			c0,6.471-1.143,11.32-3.427,14.561c-2.284,3.234-6.283,6.567-11.991,9.996c-3.234,1.903-8.947,3.043-17.129,3.43
			c-8.183,0.38-13.61,1.714-16.274,3.997c-1.902,1.714-2.9,4.284-2.996,7.71c-0.094,3.433,0.337,6.899,1.287,10.424
			c0.95,3.521,1.903,7.562,2.853,12.132c0.953,4.571,1.331,8.381,1.143,11.423c-0.19,2.091-1.908,7.282-5.142,15.554
			c-3.234,8.282-3.9,14.612-1.997,18.986c0.953,2.098,2.568,3.956,4.853,5.571c2.283,1.618,5.471,2.998,9.563,4.145
			c4.089,1.143,7.85,2.046,11.278,2.71c3.424,0.66,8.182,1.522,14.272,2.563c6.091,1.043,10.944,1.954,14.561,2.71
			c12.182,2.478,26.075,6.57,41.684,12.278c15.607,5.712,26.169,8.658,31.689,8.847c5.33,0.188,10.42-0.903,15.275-3.285
			c4.853-2.375,8.992-5.089,12.419-8.135c3.424-3.046,8.516-5.903,15.271-8.565c6.76-2.666,14.325-4.093,22.701-4.284
			c3.806-0.188,9.326-0.428,16.558-0.712c7.233-0.288,12.656-0.428,16.273-0.428c16.368,0,28.739,0.092,37.113,0.283
			c5.711,0.195,10.184,1.096,13.421,2.715c3.234,1.615,5.332,3.473,6.28,5.563c0.951,2.099,2.529,4.521,4.719,7.283
			c2.184,2.758,4.99,4.996,8.412,6.707c7.23,3.429,15.704,4.808,25.413,4.141c9.705-0.664,16.18-2.522,19.413-5.567
			c5.329-5.137,12.512-11.231,21.553-18.271c9.042-7.039,17.187-12.371,24.414-15.988c1.52-0.767,4.09-2.002,7.707-3.717
			c3.613-1.714,6.656-3.186,9.13-4.428c2.475-1.238,5.476-2.81,8.99-4.712c3.524-1.906,6.379-3.665,8.569-5.284
			c2.189-1.619,4.421-3.47,6.707-5.568c2.283-2.091,3.758-4.185,4.429-6.279c0.657-2.094,0.903-4.236,0.712-6.424
			C472.819,433.073,471.682,430.794,469.584,428.409z M316.559,152.468c0.568-0.378,0.952-0.522,1.14-0.428
			c0.192,0.096,0.572,0.478,1.14,1.143c0.575,0.666,1.092,1.287,1.574,1.858c0.473,0.566,1.137,1.331,1.992,2.281
			c0.855,0.953,1.759,1.713,2.707,2.284c1.149,0.76,2.525,1.287,4.144,1.571c1.619,0.284,2.857,0.76,3.717,1.425
			s1.479,1.759,1.852,3.284c0.376,2.096,0.058,3.995-0.989,5.708c-1.054,1.715-2.43,2.478-4.147,2.286
			c-3.426-0.762-7.139-3.758-11.133-8.993C314.564,159.653,313.894,155.514,316.559,152.468z M281.154,41.555
			c0.948-1.237,1.52-2.236,1.708-2.996c0.38-1.146,0.428-2.334,0.144-3.571s-0.191-2.474,0.284-3.711
			c0.479-1.237,1.574-1.951,3.288-2.141c1.712,0,3.997,1.429,6.852,4.283c0.568,0.382,1.472,0.953,2.703,1.713
			c1.239,0.762,2.095,1.427,2.57,1.997c0.476,0.568,0.712,1.049,0.712,1.427c-0.38,0.95-1.235,1.622-2.563,2
			c-1.327,0.378-2.762,0.572-4.281,0.572s-2.382,0.094-2.569,0.284c-1.523,0.572-2.95,1.427-4.285,2.568
			c-1.331,1.143-2.378,1.999-3.138,2.57c-0.767,0.57-1.526,0.57-2.286,0c-0.76-1.143-1.047-1.952-0.855-2.426
			C279.631,43.65,280.203,42.792,281.154,41.555z M142.972,255.256c1.328-1.521,2.283-2.758,2.853-3.711
			c0.571-0.953,1.093-2.238,1.57-3.854c0.476-1.62,0.904-2.811,1.285-3.571c0.383-0.765,0.955-1.049,1.715-0.859
			c0.378-0.094,0.662,0.094,0.859,0.571c0.188,0.476,0.284,0.715,0.284,0.715v0.857c0,0.288-0.049,0.666-0.144,1.143
			c-0.096,0.48-0.24,0.907-0.428,1.285c-0.193,0.383-0.382,0.955-0.571,1.714c-0.19,0.76-0.378,1.427-0.572,1.997
			c-0.76,1.908-1.952,3.617-3.567,5.141c-1.619,1.522-2.81,2.189-3.571,1.998C141.543,258.304,141.641,257.157,142.972,255.256z
			 M329.683,431.41c-0.38,6.088-1.666,14.657-3.856,25.697c-2.19,11.036-3.572,18.366-4.145,21.98
			c-3.997-0.195-6.279-1.67-6.851-4.429c-0.568-2.762,0-6.327,1.714-10.707c4.186-12.758,6.369-21.512,6.564-26.266
			c0.387-8.757-0.568-13.706-2.848-14.846c-2.102-1.522-5.335,1.335-9.712,8.562c-8.381,13.706-25.222,21.98-50.535,24.842
			c-22.836,3.046-38.634-0.38-47.392-10.283c-1.903-1.332-3.806-1.568-5.708-0.709c-1.903,0.849-3.14,1.759-3.711,2.703
			c-0.188,0.384,0,0.952,0.572,1.715c0.571,0.764,1.475,1.902,2.712,3.426c1.237,1.529,2.236,3.046,2.996,4.575
			c7.426,12.939,6.761,21.693-1.997,26.262c0-8.75-0.666-15.461-1.997-20.122c-1.333-4.664-3.995-9.801-7.994-15.42
			c-3.995-5.613-6.755-9.85-8.276-12.703c5.708-0.568,10.039-2.759,12.99-6.567c2.95-3.806,4.281-7.898,3.997-12.275
			c-0.286-4.38-1.95-7.998-4.996-10.852c-1.713-1.711-10.566-8.993-26.553-21.841c-15.986-12.847-25.885-21.46-29.69-25.837
			c-0.765-0.763-3.046-2.666-6.854-5.712c-3.809-3.045-6.189-5.708-7.139-7.994c-8.757-19.215-9.707-35.021-2.856-47.387
			l1.141-1.427c0.95-0.188,1.046,1.522,0.284,5.141c-1.141,5.331-1.52,10.656-1.141,15.988c0.76,11.994,4.187,20.937,10.277,26.833
			c3.999,4.004,6.757,3.717,8.281-0.853c1.143-1.526,1.665-7.139,1.569-16.851c-0.091-9.702,0.05-16.269,0.431-19.698
			c1.524-10.848,6.045-24.27,13.562-40.251c7.517-15.99,13.468-24.556,17.845-25.697c-3.427-5.52-4.521-11.516-3.283-17.988
			c1.235-6.472,3.237-11.995,5.995-16.56c2.757-4.567,5.568-9.847,8.42-15.844c2.856-5.996,4.283-11.374,4.283-16.132
			c0-1.33,0.098-2.283,0.288-2.854c0.57-1.713,2.95,0.38,7.137,6.279c7.994,11.803,13.99,18.752,17.988,20.845
			c4.187,2.281,8.848,2.187,13.988-0.288c5.138-2.474,11.466-6.567,18.986-12.275c7.515-5.708,13.939-9.897,19.27-12.559
			c0.575-0.193,1.476-0.621,2.718-1.287c1.231-0.662,2.183-1.141,2.847-1.429c0.661-0.284,1.52-0.711,2.57-1.283
			c1.04-0.571,1.848-1.047,2.42-1.429c0.571-0.383,1.143-0.811,1.711-1.287c0.567-0.478,0.947-0.95,1.143-1.427
			c0.191-0.476,0.287-0.903,0.287-1.285c-0.383-1.714-1.19-2.762-2.43-3.14c-1.238-0.38-2.901-0.144-4.996,0.715
			c-2.094,0.857-4.428,2-6.995,3.426c-2.566,1.427-5.42,3.045-8.562,4.854c-3.139,1.809-6.328,3.472-9.562,4.997
			c-3.234,1.524-6.662,2.856-10.279,3.999c-3.616,1.14-7.042,1.809-10.277,1.999c-7.994,0.191-14.368-1.899-19.126-6.28
			c-3.045-2.858-4.661-4.665-4.854-5.426c-0.192-0.759,0.666-0.949,2.568-0.571c10.282,1.333,17.798,1.521,22.557,0.571
			c4.948-0.759,11.609-2.95,19.985-6.567c1.715-0.76,6.04-2.618,12.994-5.568c6.943-2.946,12.323-4.993,16.129-6.136
			c2.289-0.572,3.86-1.475,4.716-2.712c0.852-1.237,1.14-2.38,0.852-3.428c-0.283-1.045-0.903-1.853-1.851-2.424
			c-2.099-1.143-4.001-0.38-5.708,2.284c-0.955,1.713-2.957,3.381-6,4.997c-3.042,1.62-5.854,2.855-8.422,3.711
			c-2.569,0.855-5.852,1.855-9.851,2.996c-3.999,1.143-6.184,1.809-6.567,1.999c-10.467,3.234-20.174,4.663-29.121,4.281
			c-4.188-0.188-7.565-0.809-10.133-1.856c-2.57-1.044-4.333-2.281-5.282-3.711c-0.953-1.425-2.474-3.234-4.568-5.424
			c-2.096-2.19-4.476-4.045-7.139-5.57c-1.903-0.95-2.618-2.663-2.141-5.137c0.476-2.474,1.951-5.046,4.425-7.71
			c0.19-0.192,2.142-1.379,5.852-3.569c3.711-2.19,6.329-4.427,7.854-6.711c1.709-2.664,4.661-5.426,8.848-8.282
			c0.19-0.76,0.334-2.853,0.428-6.279c0.094-3.424-0.809-7.136-2.712-11.133c-1.903-3.999-4.475-5.995-7.71-5.995
			c-4.569-0.19-7.804,1.141-9.707,3.997c-1.903,2.852-2.757,6.375-2.568,10.562c0.193,3.615,1.097,6.801,2.712,9.563
			c1.619,2.762,3.095,4.143,4.427,4.143c2.092-0.193,2.758,0.566,1.997,2.281c-1.141,2.096-2.666,3.431-4.568,3.999
			c-1.336,0.378-2.812-0.905-4.427-3.855c-1.619-2.95-2.855-6.517-3.711-10.706c-0.855-4.187-1.191-7.708-0.998-10.566
			c0.378-5.9,1.947-11.563,4.709-16.988c2.762-5.424,6.711-8.042,11.848-7.854c5.33,0.193,9.616,3.431,12.85,9.71
			c3.239,6.28,4.76,14.849,4.57,25.697c0.572,1.333,2.046,1.809,4.427,1.427c2.375-0.382,5.518-0.431,9.419-0.144
			c3.899,0.284,6.706,1.282,8.42,2.996c0.193,0,0.288-1.43,0.288-4.283c-3.427-23.979,5.042-36.732,25.41-38.256
			c3.039,0.572,5.609,1.287,7.7,2.141c2.101,0.855,4.329,2.286,6.711,4.283c2.385,1.997,4.376,4.899,5.995,8.708
			c1.619,3.811,2.905,8.569,3.856,14.277v10.562c0,6.09-1.242,9.517-3.716,10.279c-3.994,1.331-6.845,1.285-8.556-0.144
			c-1.715-1.43-1.529-3.949,0.568-7.566c1.902-4.758,1.522-10.282-1.144-16.562c-2.662-6.279-7.519-9.135-14.558-8.563
			c-4.76,0.191-8.186,2.761-10.28,7.708c-2.094,4.949-2.853,9.803-2.282,14.562c0.571,4.758,1.615,7.232,3.142,7.421
			c1.14,0.193,4.523,1.714,10.137,4.57c5.622,2.855,9.855,4.567,12.706,5.138c7.423,1.52,11.652,3.9,12.703,7.137
			c1.047,3.239,0.619,7.948-1.283,14.133c-1.906,6.189-2.475,11.276-1.708,15.275c0.76,4.192,2.19,7.994,4.285,11.42
			c2.094,3.429,4.325,6.567,6.707,9.424c2.378,2.849,5.181,8.183,8.425,15.985c3.231,7.806,6.181,17.607,8.843,29.408
			c0.188,0.19,0.9,0.856,2.14,1.999c1.238,1.141,2.471,2.568,3.713,4.281c1.242,1.714,2.714,4.045,4.428,6.995
			c1.712,2.952,3.573,7.282,5.571,12.994c1.992,5.708,3.854,12.279,5.564,19.698c2.095,8.761,3.189,18.935,3.285,30.553
			c0.097,11.608,0.856,19.555,2.286,23.839c1.431,4.288,5.093,6.047,10.992,5.284c7.423-0.38,12.187-4.377,14.271-11.991
			c6.283-22.08,1.15-48.54-15.413-79.37c-6.283-11.992-11.704-19.892-16.276-23.697c6.66,3.806,13.515,10.941,20.561,21.413
			c7.043,10.47,11.512,20.275,13.415,29.405c0.185,0.955,0.712,3.478,1.567,7.566c0.855,4.093,1.334,6.475,1.424,7.139
			c0.092,0.667,0.479,2.618,1.14,5.853c0.67,3.236,0.999,5.331,0.999,6.282c0,0.955,0.092,2.81,0.287,5.568
			c0.195,2.758,0.144,4.9-0.144,6.423c-0.287,1.526-0.568,3.573-0.855,6.137c-0.287,2.569-0.76,5.044-1.427,7.426
			c-0.657,2.378-1.373,5-2.136,7.851c10.465,4.568,15.701,8.562,15.701,11.991c-3.994-3.237-9.709-5.376-17.135-6.413
			c-7.427-1.051-14.318-0.052-20.697,2.994s-9.664,8.087-9.856,15.126c-6.851,0-11.707,1.711-14.558,5.144
			c-4.186,4.945-6.372,11.652-6.563,20.126c-0.191,8.466,0.517,17.702,2.135,27.688C329.451,420.419,330.067,427.41,329.683,431.41z
			 M210.062,100.506c-0.572-0.188-1.047-0.763-1.425-1.713c0-1.709,0.854-2.38,2.568-1.997c1.143,0.378,2.24,1.807,3.284,4.281
			c1.047,2.474,1.285,5.33,0.715,8.566c0,0.571-0.284,0.859-0.859,0.854c-2.096,0-2.856-1.902-2.284-5.708
			C212.63,101.934,211.964,100.506,210.062,100.506z M284.008,105.077l-0.568,0.855c-1.52,0.95-2.275,1.141-2.275,0.572
			c-0.767-5.142-2.479-8.092-5.141-8.854l-1.143-0.57c-1.335-1.143-0.671-1.809,1.991-1.999c0.571-0.191,1.427,0.093,2.57,0.855
			c1.143,0.763,2.19,1.953,3.142,3.571C283.532,101.127,284.008,102.98,284.008,105.077z"/>
		<path d="M217.484,121.631c0,1.143,0.479,1.619,1.431,1.43c0.76,0,1.565-0.905,2.424-2.713c0.857-1.804,2.334-2.803,4.425-2.996
			v-0.003h-2.856C219.293,117.92,217.484,119.347,217.484,121.631z"/>
		<path d="M242.326,118.208c1.903-0.572,3.571-0.14,4.998,1.287c1.425,1.425,2.522,2.046,3.284,1.853
			c1.138-0.568,1.425-1.427,0.854-2.568C249.94,116.305,246.896,116.115,242.326,118.208z"/>
	</g>
</g>
<g>
</g>
<g>
</g>
<g>
</g>
<g>
</g>
<g>
</g>
<g>
</g>
<g>
</g>
<g>
</g>
<g>
</g>
<g>
</g>
<g>
</g>
<g>
</g>
<g>
</g>
<g>
</g>
<g>
</g>
</svg>
