<svg width="40" height="40" viewBox="0 0 40 40" fill="none" xmlns="http://www.w3.org/2000/svg">
<g clip-path="url(#clip0_23298_3963)">
<path d="M40 0H0V40H40V0Z" fill="#01A88D" fill-opacity="0.12"/>
<path fill-rule="evenodd" clip-rule="evenodd" d="M18.998 26.9924H19.998V24.9924H18.998V26.9924ZM18.998 22.9924H19.998V14.9924H18.998V22.9924ZM14.998 30.9924H15.998V28.9924H14.998V30.9924ZM14.998 26.9924H15.998V21.9924H14.998V26.9924ZM10.998 32.8494V20.1354C10.998 20.0564 11.061 19.9924 11.141 19.9924H16.998V18.9924H11.141C10.511 18.9924 9.99797 19.5054 9.99797 20.1354V32.8494C9.99797 33.4794 10.511 33.9924 11.141 33.9924H23.998V32.9924H11.141C11.061 32.9924 10.998 32.9284 10.998 32.8494ZM29.998 20.8874V19.9924C29.998 19.9534 29.993 19.9154 29.984 19.8774C29.912 19.5714 29.583 18.9924 28.855 18.9924H20.998V19.9924H28.855C28.888 19.9924 28.958 19.9924 28.998 20.0734V20.8874H29.998ZM32.998 26.9924H30.498C30.222 26.9924 29.998 26.7684 29.998 26.4924V23.9924H26.998V26.4924C26.998 26.7684 26.774 26.9924 26.498 26.9924H23.998V29.9924H26.498C26.774 29.9924 26.998 30.2164 26.998 30.4924V32.9924H29.998V30.4924C29.998 30.2164 30.222 29.9924 30.498 29.9924H32.998V26.9924ZM33.998 26.4924V30.4924C33.998 30.7684 33.774 30.9924 33.498 30.9924H30.998V33.4924C30.998 33.7684 30.774 33.9924 30.498 33.9924H26.498C26.222 33.9924 25.998 33.7684 25.998 33.4924V30.9924H23.498C23.222 30.9924 22.998 30.7684 22.998 30.4924V26.4924C22.998 26.2164 23.222 25.9924 23.498 25.9924H25.998V23.4924C25.998 23.2164 26.222 22.9924 26.498 22.9924H30.498C30.774 22.9924 30.998 23.2164 30.998 23.4924V25.9924H33.498C33.774 25.9924 33.998 26.2164 33.998 26.4924ZM7.03697 18.4634C7.02297 18.6024 7.03197 18.9374 7.03897 19.0874L6.03897 19.1284C6.03197 18.9464 6.02497 18.5394 6.04097 18.3694C6.37797 14.8084 8.65897 14.0454 10.314 13.6124L10.278 12.4624C10.278 9.95139 11.892 7.71439 14.491 6.60739C17.311 5.40939 20.292 6.00539 22.472 8.20239C23.143 8.87839 23.694 9.69839 24.116 10.6464C25.099 9.85439 26.559 9.63039 27.77 10.1664C29.043 10.7324 29.653 11.9514 29.458 13.4834C32.353 14.0604 33.851 15.8074 33.851 18.6654L33.849 18.9504C33.849 18.9744 33.846 19.7994 33.479 20.8024L32.54 20.4594C32.842 19.6314 32.849 18.9454 32.849 18.9384L32.851 18.6654C32.851 15.4484 30.635 14.6934 28.968 14.4054L28.733 14.3364C28.484 14.2584 28.337 14.0024 28.395 13.7474C28.796 12.0034 27.921 11.3284 27.364 11.0804C26.324 10.6194 24.971 10.9594 24.349 11.8444C24.243 11.9974 24.065 12.0784 23.872 12.0534C23.686 12.0274 23.531 11.9004 23.469 11.7234C23.072 10.5954 22.498 9.64739 21.763 8.90639C20.858 7.99639 18.383 6.04039 14.883 7.52739C12.66 8.47439 11.278 10.3594 11.278 12.4464L11.326 13.9814C11.333 14.2154 11.178 14.4224 10.951 14.4814L10.826 14.5134C9.18497 14.9324 7.32597 15.4094 7.03697 18.4634Z" fill="#01A88D"/>
</g>
<rect x="0.5" y="0.5" width="39" height="39" stroke="#01A88D"/>
<defs>
<clipPath id="clip0_23298_3963">
<rect width="40" height="40" fill="white"/>
</clipPath>
</defs>
</svg>
