<svg width="24" height="24" viewBox="0 0 24 24" fill="none" xmlns="http://www.w3.org/2000/svg">
<path fill-rule="evenodd" clip-rule="evenodd" d="M14.28 15.33L16.21 17.26L12 20.65L1.19995 12H7.99995C7.99995 13.0609 8.42138 14.0783 9.17152 14.8284C9.92167 15.5786 10.9391 16 12 16C12.8095 16.0072 13.603 15.7741 14.28 15.33ZM16 12C16.0018 12.7733 15.7795 13.5305 15.36 14.18L17.44 16.28L22.8099 12H16Z" fill="#DDDDDD"/>
<path fill-rule="evenodd" clip-rule="evenodd" d="M12 3.36035L1.19995 12.0004H7.99995C7.99995 10.9395 8.42138 9.92207 9.17152 9.17192C9.92167 8.42178 10.9391 8.00035 12 8.00035C13.0608 8.00035 14.0782 8.42178 14.8284 9.17192C15.5785 9.92207 16 10.9395 16 12.0004H22.79L12 3.36035Z" fill="white"/>
<path fill-rule="evenodd" clip-rule="evenodd" d="M11.9999 9.57038C12.318 9.56792 12.6333 9.62951 12.9271 9.75149C13.2209 9.87347 13.4871 10.0533 13.7099 10.2804C13.9382 10.5039 14.1196 10.7707 14.2434 11.0652C14.3672 11.3597 14.431 11.6759 14.431 11.9954C14.431 12.3149 14.3672 12.6311 14.2434 12.9256C14.1196 13.2201 13.9382 13.4869 13.7099 13.7104C13.4859 13.9359 13.2195 14.1149 12.926 14.2371C12.6326 14.3593 12.3178 14.4221 11.9999 14.4221C11.682 14.4221 11.3673 14.3593 11.0738 14.2371C10.7803 14.1149 10.5139 13.9359 10.2899 13.7104C10.0616 13.4869 9.88027 13.2201 9.75645 12.9256C9.63263 12.6311 9.56885 12.3149 9.56885 11.9954C9.56885 11.6759 9.63263 11.3597 9.75645 11.0652C9.88027 10.7707 10.0616 10.5039 10.2899 10.2804C10.5127 10.0533 10.7789 9.87347 11.0727 9.75149C11.3665 9.62951 11.6818 9.56792 11.9999 9.57038Z" fill="white"/>
</svg>
