<svg xmlns="http://www.w3.org/2000/svg" role="img" viewBox="-5.38 -1.13 370.50 362.00"><defs><style>.cls-2{fill:#3c6eb4}.cls-3{fill:#294172}</style></defs><path fill="#fff" d="M180.649 350.162L40.717 283.22 5.77 131.977l96.336-121.662 155.085-.478 97.04 121.081-34.048 151.46z"/><path d="M180.65 354a3.831 3.831 0 0 1-1.657-.377L39.061 286.68a3.834 3.834 0 0 1-2.082-2.596L2.032 132.84a3.84 3.84 0 0 1 .73-3.245L99.098 7.933a3.838 3.838 0 0 1 2.995-1.454L257.18 6h.012a3.835 3.835 0 0 1 2.994 1.437l97.039 121.081a3.837 3.837 0 0 1 .749 3.241L323.925 283.22a3.834 3.834 0 0 1-2.066 2.61l-139.533 67.784a3.844 3.844 0 0 1-1.677.386zM44.04 280.556l136.596 65.347 136.208-66.167 33.238-147.859L255.354 13.68l-151.388.467L9.923 132.911z" class="cls-2"/><path d="M147.709 275.392l-4.826-5.965 34.549-27.943 4.825 5.964zM238.1 264.14l-7.67-.255 1.48-44.4 7.669.254zm-109.273-40.476l-43.755-7.83 1.352-7.554 43.756 7.83zm155.662-34.44l-33.975-28.61 4.942-5.87 33.975 28.609zm-179.788-29.406l-20.896-39.196 6.77-3.61 20.896 39.196zm110.378-50.644l-1.636-7.497 43.4-9.47 1.636 7.498zm-63.671-2.696l-7.005-3.134 18.14-40.544 7.005 3.134z" class="cls-2"/><path d="M119.702 40.992l-6.844 3.48 27.82 54.755-35.114-7.497-1.595 7.504 41.182 8.773 12.282 24.165 2.61-3.299 4.307-.021zm122.401.362L214.552 96.24l-14.813-32.7-6.996 3.169 17.379 38.354-11.905 23.709h1.566l4.3 5.387 44.865-89.368zm28.45 75.65l-19.793 37.159-26.507 5.111.399.493-1.726 7.57 99.258-19.141-1.45-7.54-60.323 11.636 16.893-31.684zm-230.17 23.651l-1.45 7.54 60.628 11.696-27.856 23.462 4.944 5.873 32.605-27.443 27.74 5.35-1.653-7.068.725-.914zm175.764 56.894l-.218.964-6.656 3.22 76.71 66.413 5.024-5.822-46.424-40.196 35.338-6.308-1.341-7.562-41.458 7.424zm-71.946.667L70.14 262.331l5.024 5.8 46.693-40.413 1.232 36.397 7.664-.247-1.428-42.596 22.113-19.14-7.105-3.387zm31.8 15.661v100.338h7.657v-61.41l27.914 22.577 4.821-5.96-32.728-26.485v-28.785l-3.509 1.704z" class="cls-3"/><path d="M180.17 219.715a3.845 3.845 0 0 1-1.654-.375l-35.853-17.134a3.84 3.84 0 0 1-2.083-2.594l-8.976-38.717a3.837 3.837 0 0 1 .733-3.252l24.716-31.134a3.837 3.837 0 0 1 2.993-1.45l39.732-.123h.012a3.838 3.838 0 0 1 2.993 1.436l24.868 30.994a3.836 3.836 0 0 1 .75 3.244l-8.736 38.768a3.84 3.84 0 0 1-2.068 2.61l-35.752 17.343a3.834 3.834 0 0 1-1.674.384zm-32.532-23.636l32.52 15.541 32.427-15.73 7.924-35.164-22.555-28.111-36.039.111-22.418 28.238z" class="cls-3"/></svg>
