<svg width="40" height="40" viewBox="0 0 40 40" fill="none" xmlns="http://www.w3.org/2000/svg">
<g clip-path="url(#clip0_23298_4110)">
<path d="M40 0H0V40H40V0Z" fill="#E7157B" fill-opacity="0.12"/>
<path fill-rule="evenodd" clip-rule="evenodd" d="M20 26.015C17.777 26.015 15.969 24.206 15.969 21.984C15.969 19.761 17.777 17.953 20 17.953C22.223 17.953 24.031 19.761 24.031 21.984C24.031 24.206 22.223 26.015 20 26.015ZM20 16.953C17.226 16.953 14.969 19.21 14.969 21.984C14.969 24.758 17.226 27.015 20 27.015C22.774 27.015 25.031 24.758 25.031 21.984C25.031 19.21 22.774 16.953 20 16.953ZM21.919 20.116L22.626 20.823L19.596 23.852C19.498 23.95 19.37 23.998 19.242 23.998C19.114 23.998 18.986 23.95 18.889 23.852L17.374 22.337L18.081 21.63L19.242 22.791L21.919 20.116ZM13 14.974H27V13.974H13V14.974ZM13 12.974H27V11.974H13V12.974ZM13 9.974H19V8.974H13V9.974ZM21.977 28.022H22.977V32.974C22.977 33.177 22.854 33.359 22.668 33.436C22.606 33.462 22.541 33.474 22.477 33.474C22.347 33.474 22.219 33.424 22.123 33.328L20 31.205L17.877 33.328C17.733 33.472 17.518 33.515 17.332 33.436C17.146 33.359 17.023 33.177 17.023 32.974V28.022H18.023V31.767L19.646 30.145C19.842 29.95 20.158 29.95 20.354 30.145L21.977 31.767V28.022ZM25 7.702L27.287 9.974H25V7.702ZM28.853 10.12L24.853 6.145C24.759 6.052 24.632 6 24.5 6H11.5C11.224 6 11 6.223 11 6.5V30.474C11 30.751 11.224 30.974 11.5 30.974H16V29.974H12V7H24V10.474C24 10.751 24.224 10.974 24.5 10.974H28V29.974H24V30.974H28.5C28.776 30.974 29 30.751 29 30.474V10.474C29 10.341 28.947 10.214 28.853 10.12Z" fill="#E7157B"/>
</g>
<rect x="0.5" y="0.5" width="39" height="39" stroke="#E7157B"/>
<defs>
<clipPath id="clip0_23298_4110">
<rect width="40" height="40" fill="white"/>
</clipPath>
</defs>
</svg>
