<svg width="40" height="40" viewBox="0 0 40 40" fill="none" xmlns="http://www.w3.org/2000/svg">
<g clip-path="url(#clip0_23295_3346)">
<path d="M40 0H0V40H40V0Z" fill="#ED7100" fill-opacity="0.12"/>
<path fill-rule="evenodd" clip-rule="evenodd" d="M11.575 22.462C12.875 25.147 16.217 27 20 27C24.963 27 29 23.859 29 20C29 16.14 24.963 13 20 13C16.217 13 12.875 14.852 11.575 17.537C11.715 17.512 11.857 17.5 12 17.5H22C23.379 17.5 24.5 18.621 24.5 20C24.5 21.378 23.379 22.5 22 22.5H12C11.857 22.5 11.715 22.487 11.575 22.462ZM20 28C15.276 28 11.157 25.319 10.207 21.625C10.152 21.413 10.242 21.19 10.429 21.075C10.614 20.96 10.854 20.98 11.02 21.124C11.217 21.295 11.546 21.5 12 21.5H22C22.827 21.5 23.5 20.827 23.5 20C23.5 19.172 22.827 18.5 22 18.5H12C11.546 18.5 11.217 18.704 11.02 18.876C10.854 19.02 10.614 19.04 10.429 18.924C10.242 18.809 10.152 18.586 10.207 18.374C11.157 14.68 15.276 12 20 12C25.513 12 30 15.588 30 20C30 24.411 25.513 28 20 28ZM20 9C12.832 9 7 13.934 7 20C7 26.065 12.832 31 20 31C27.168 31 33 26.065 33 20C33 13.934 27.168 9 20 9ZM20 32C12.28 32 6 26.616 6 20C6 13.383 12.28 8 20 8C27.72 8 34 13.383 34 20C34 26.616 27.72 32 20 32Z" fill="#ED7100"/>
</g>
<rect x="0.5" y="0.5" width="39" height="39" stroke="#ED7100"/>
<defs>
<clipPath id="clip0_23295_3346">
<rect width="40" height="40" fill="white"/>
</clipPath>
</defs>
</svg>
