<svg width="40" height="40" viewBox="0 0 40 40" fill="none" xmlns="http://www.w3.org/2000/svg">
<g clip-path="url(#clip0_23296_3674)">
<path d="M40 0H0V40H40V0Z" fill="#8C4FFF" fill-opacity="0.12"/>
<path fill-rule="evenodd" clip-rule="evenodd" d="M29.752 25.498C29.752 25.084 30.088 24.748 30.502 24.748C30.916 24.748 31.252 25.084 31.252 25.498C31.252 25.912 30.916 26.248 30.502 26.248C30.088 26.248 29.752 25.912 29.752 25.498ZM32.683 32.716C32.496 32.907 32.227 33 31.861 33C30.879 33 29.72 30.23 29.097 28.741C29.089 28.723 29.083 28.707 29.075 28.689C29.511 28.885 29.992 29 30.5 29C31.48 29 32.364 28.592 33 27.941V31.841C33 31.846 33.007 32.385 32.683 32.716ZM20.14 33C19.774 33 19.504 32.907 19.318 32.716C18.993 32.385 19 31.846 19 31.827V27.941C19.636 28.592 20.521 29 21.5 29C22.009 29 22.489 28.885 22.926 28.689C22.918 28.707 22.911 28.723 22.904 28.741C22.281 30.23 21.121 33 20.14 33ZM21.5 23C22.879 23 24 24.121 24 25.5C24 26.878 22.879 28 21.5 28C20.121 28 19 26.878 19 25.5C19 24.121 20.121 23 21.5 23ZM27.351 27H24.649C24.868 26.543 25 26.039 25 25.5C25 24.961 24.868 24.456 24.649 24H27.351C27.133 24.456 27 24.961 27 25.5C27 26.039 27.133 26.543 27.351 27ZM30.5 23C31.879 23 33 24.121 33 25.5C33 26.878 31.879 28 30.5 28C29.121 28 28 26.878 28 25.5C28 24.121 29.121 23 30.5 23ZM34 31.827V25.5C34 23.57 32.43 22 30.5 22C29.55 22 28.69 22.383 28.059 23H23.942C23.311 22.383 22.45 22 21.5 22C19.571 22 18 23.57 18 25.5V31.81C17.997 31.907 17.986 32.777 18.594 33.406C18.975 33.8 19.494 34 20.14 34C21.787 34 22.918 31.298 23.826 29.128C24.004 28.702 24.166 28.314 24.313 28H27.688C27.834 28.314 27.996 28.702 28.174 29.128C29.082 31.298 30.213 34 31.861 34C32.506 34 33.026 33.8 33.407 33.406C34.015 32.777 34.003 31.907 34 31.827ZM21 26H20V25H21V24H22V25H23V26H22V27H21V26ZM9.723 24.369C10.484 23.966 11.356 23.632 12.312 23.371C12.839 25.031 13.579 26.401 14.469 27.343C12.62 26.801 10.99 25.756 9.723 24.369ZM9.075 23.585C7.873 21.978 7.128 20.016 7.026 17.883H11.454C11.49 19.513 11.695 21.041 12.039 22.411C10.94 22.712 9.939 23.106 9.075 23.585ZM9.075 11.182C9.939 11.661 10.939 12.055 12.039 12.356C11.695 13.726 11.49 15.254 11.454 16.883H7.026C7.128 14.751 7.872 12.789 9.075 11.182ZM14.469 7.424C13.578 8.366 12.839 9.736 12.311 11.396C11.356 11.136 10.483 10.803 9.722 10.4C10.988 9.012 12.62 7.966 14.469 7.424ZM17.384 7C19.06 7 20.573 8.861 21.471 11.632C20.195 11.898 18.815 12.046 17.384 12.046C15.951 12.046 14.571 11.898 13.297 11.633C14.195 8.861 15.708 7 17.384 7ZM25.044 10.398C24.284 10.801 23.411 11.135 22.456 11.396C21.929 9.736 21.189 8.366 20.299 7.424C22.148 7.966 23.778 9.011 25.044 10.398ZM25.693 11.182C26.896 12.789 27.64 14.751 27.742 16.883H23.313C23.277 15.254 23.072 13.725 22.728 12.355C23.828 12.054 24.829 11.66 25.693 11.182ZM12.454 16.883C12.491 15.352 12.69 13.896 13.022 12.594C14.385 12.884 15.859 13.046 17.384 13.046C18.907 13.046 20.381 12.884 21.745 12.594C22.077 13.895 22.276 15.352 22.313 16.883H12.454ZM17 27.714C15.48 27.454 14.126 25.692 13.297 23.135C14.572 22.869 15.953 22.72 17.384 22.72C17.418 22.72 17.45 22.725 17.483 22.725V21.723C17.45 21.723 17.417 21.72 17.384 21.72C15.861 21.72 14.387 21.882 13.022 22.173C12.69 20.871 12.491 19.415 12.454 17.883H22.313C22.287 18.97 22.175 20.017 21.996 21H23.016C23.183 20.016 23.289 18.975 23.313 17.883H27.742C27.69 18.976 27.467 20.022 27.102 21H28.169C28.552 19.862 28.768 18.649 28.768 17.383C28.768 11.107 23.661 6 17.384 6C11.107 6 6 11.107 6 17.383C6 23.531 10.901 28.543 17 28.748V27.714Z" fill="#8C4FFF"/>
</g>
<rect x="0.5" y="0.5" width="39" height="39" stroke="#8C4FFF"/>
<defs>
<clipPath id="clip0_23296_3674">
<rect width="40" height="40" fill="white"/>
</clipPath>
</defs>
</svg>
