<svg width="40" height="40" viewBox="0 0 40 40" fill="none" xmlns="http://www.w3.org/2000/svg">
<g clip-path="url(#clip0_23311_9554)">
<path d="M40 0H0V40H40V0Z" fill="#DD344C" fill-opacity="0.12"/>
<path fill-rule="evenodd" clip-rule="evenodd" d="M20 6C12.281 6 6 12.2847 6 20.0105C6 26.2722 10.4749 31.8013 16.8835 33.4561L17.1328 32.489C11.165 30.948 6.99729 25.8171 6.99729 20.0105C6.99729 12.8356 12.8305 6.99804 20 6.99804C27.1695 6.99804 33.0027 12.8356 33.0027 20.0105C33.0027 26.1574 29.4154 31.0558 23.8645 32.489L24.1138 33.4561C30.1185 31.9051 34 26.6275 34 20.0105C34 12.2847 27.719 6 20 6ZM16.0318 14.0123H20.9973V13.0142H16.0318V14.0123ZM16.0318 23.0545H21.9946V22.0565H16.0318V23.0545ZM16.0318 19.9726H20V18.9745H16.0318V19.9726ZM16.0318 17.0194H24.9396V16.0213H16.0318V17.0194ZM26.0147 14.9364H23.3968C23.1215 14.9364 22.8981 14.7129 22.8981 14.4374V11.0471H14.9427V25.0596H26.0147V14.9364ZM23.8954 13.9384H25.4741L23.8954 11.9673V13.9384ZM26.5133 26.0576H14.4441C14.1678 26.0576 13.9454 25.834 13.9454 25.5586V10.5481C13.9454 10.2716 14.1678 10.049 14.4441 10.049H23.3968C23.5444 10.049 23.689 10.1149 23.7857 10.2357L26.9023 14.125C26.9751 14.2159 27 14.3256 27 14.4374H27.012V25.5586C27.012 25.834 26.7896 26.0576 26.5133 26.0576ZM23.9243 29.7663L20.8756 33.8014C20.7819 33.9251 20.6363 33.999 20.4807 34H20.4777C20.3241 34 20.1785 33.9281 20.0838 33.8064L16.9583 29.7713C16.8426 29.6206 16.8206 29.417 16.9044 29.2463C16.9882 29.0747 17.1627 28.9669 17.3532 28.9669H18.9658V26.9838H19.9631V29.4659C19.9631 29.7414 19.7397 29.9649 19.4645 29.9649H18.3704L20.4737 32.6796L22.5241 29.9649H21.4351C21.1599 29.9649 20.9365 29.7414 20.9365 29.4659V26.9838H21.9338V28.9669H23.5264C23.7159 28.9669 23.8884 29.0737 23.9722 29.2433C24.057 29.413 24.039 29.6156 23.9243 29.7663Z" fill="#DD344C"/>
</g>
<rect x="0.5" y="0.5" width="39" height="39" stroke="#DD344C"/>
<defs>
<clipPath id="clip0_23311_9554">
<rect width="40" height="40" fill="white"/>
</clipPath>
</defs>
</svg>
