<svg width="24" height="24" viewBox="0 0 24 24" fill="none" xmlns="http://www.w3.org/2000/svg">
<path d="M11.4501 14.4001C13.0462 14.4001 14.3401 13.1062 14.3401 11.5101C14.3401 9.91401 13.0462 8.62012 11.4501 8.62012C9.85396 8.62012 8.56006 9.91401 8.56006 11.5101C8.56006 13.1062 9.85396 14.4001 11.4501 14.4001Z" fill="white"/>
<path d="M18.05 6.81008C16.8668 5.15188 15.1035 3.99898 13.11 3.58008L12.84 4.88008C14.3193 5.18635 15.6543 5.97723 16.6336 7.12756C17.6129 8.27789 18.1807 9.72196 18.2469 11.2312C18.3132 12.7405 17.8742 14.2288 16.9995 15.4605C16.1248 16.6923 14.8643 17.5971 13.4174 18.0319C11.9706 18.4666 10.4201 18.4064 9.01135 17.8608C7.60257 17.3153 6.41598 16.3155 5.63935 15.0196C4.86273 13.7238 4.54044 12.206 4.72349 10.7064C4.90653 9.20677 5.58446 7.81105 6.64999 6.74008L5.64999 5.80008C4.59955 6.85547 3.86036 8.18001 3.51365 9.62814C3.16693 11.0763 3.22611 12.5919 3.68468 14.0086C4.14325 15.4253 4.98347 16.6882 6.113 17.6585C7.24253 18.6287 8.61767 19.2689 10.0873 19.5085C11.557 19.7482 13.0642 19.5781 14.4435 19.017C15.8228 18.4558 17.0207 17.5253 17.9056 16.3277C18.7905 15.1301 19.3281 13.7118 19.4595 12.2285C19.5908 10.7453 19.3107 9.25452 18.65 7.92008C18.4646 7.80053 18.3124 7.63612 18.2075 7.44208C18.1027 7.24803 18.0485 7.03065 18.05 6.81008Z" fill="white"/>
<path d="M14.4599 20.4201C14.1709 20.4749 13.8733 20.4652 13.5884 20.3918C13.3035 20.3184 13.0383 20.183 12.8117 19.9954C12.5851 19.8077 12.4027 19.5724 12.2775 19.3061C12.1523 19.0399 12.0874 18.7493 12.0874 18.4551C12.0874 18.1609 12.1523 17.8703 12.2775 17.604C12.4027 17.3378 12.5851 17.1024 12.8117 16.9148C13.0383 16.7271 13.3035 16.5917 13.5884 16.5183C13.8733 16.4449 14.1709 16.4353 14.4599 16.4901" fill="white"/>
<path d="M14.46 16.4901C14.749 16.4353 15.0466 16.4449 15.3315 16.5183C15.6164 16.5917 15.8816 16.7271 16.1082 16.9148C16.3348 17.1024 16.5172 17.3378 16.6424 17.604C16.7676 17.8703 16.8325 18.1609 16.8325 18.4551C16.8325 18.7493 16.7676 19.0399 16.6424 19.3061C16.5172 19.5724 16.3348 19.8077 16.1082 19.9954C15.8816 20.183 15.6164 20.3184 15.3315 20.3918C15.0466 20.4652 14.749 20.4749 14.46 20.4201" fill="#DDDDDD"/>
<path d="M19.3801 8.09969C19.046 8.07074 18.7349 7.91756 18.5082 7.6704C18.2815 7.42324 18.1558 7.10006 18.1558 6.76469C18.1558 6.42932 18.2815 6.10614 18.5082 5.85898C18.7349 5.61181 19.046 5.45863 19.3801 5.42969V4.42969C18.7769 4.46885 18.2111 4.73611 17.7977 5.1772C17.3843 5.61829 17.1543 6.20016 17.1543 6.80469C17.1543 7.40921 17.3843 7.99108 17.7977 8.43217C18.2111 8.87327 18.7769 9.14052 19.3801 9.17969V8.09969Z" fill="white"/>
<path d="M19.3799 5.42961C19.714 5.45855 20.0251 5.61173 20.2518 5.8589C20.4785 6.10606 20.6042 6.42924 20.6042 6.76461C20.6042 7.09998 20.4785 7.42316 20.2518 7.67032C20.0251 7.91749 19.714 8.07067 19.3799 8.09961V9.09961C19.9831 9.06044 20.5489 8.79319 20.9623 8.3521C21.3756 7.911 21.6057 7.32913 21.6057 6.72461C21.6057 6.12009 21.3756 5.53822 20.9623 5.09712C20.5489 4.65603 19.9831 4.38877 19.3799 4.34961V5.42961Z" fill="#DDDDDD"/>
<path d="M4.21994 12.7804C3.93088 12.8352 3.63328 12.8256 3.34838 12.7522C3.06347 12.6788 2.79827 12.5434 2.57169 12.3557C2.3451 12.1681 2.16271 11.9327 2.03752 11.6665C1.91232 11.4002 1.84741 11.1096 1.84741 10.8154C1.84741 10.5212 1.91232 10.2306 2.03752 9.96439C2.16271 9.69814 2.3451 9.46279 2.57169 9.27513C2.79827 9.08746 3.06347 8.9521 3.34838 8.87869C3.63328 8.80528 3.93088 8.79563 4.21994 8.85043" fill="white"/>
<path d="M4.21997 8.84961C4.67762 8.93637 5.09063 9.18015 5.38775 9.53888C5.68486 9.89762 5.84745 10.3488 5.84745 10.8146C5.84745 11.2804 5.68486 11.7316 5.38775 12.0903C5.09063 12.4491 4.67762 12.6928 4.21997 12.7796" fill="#DDDDDD"/>
</svg>
