<svg width="90" height="90" viewBox="0 0 90 90" fill="none" xmlns="http://www.w3.org/2000/svg">
<path fill-rule="evenodd" clip-rule="evenodd" d="M41.0114 45.015C51.699 45.015 60.363 36.3512 60.363 25.6637C60.363 14.9763 51.699 6.3125 41.0114 6.3125C30.3239 6.3125 21.6599 14.9763 21.6599 25.6637C21.6599 36.3512 30.3239 45.015 41.0114 45.015ZM26.9841 46.0338C27.3733 45.9771 27.7668 46.0783 28.0996 46.2881C31.5844 48.484 36.0555 49.8036 40.931 49.8036C45.8346 49.8036 50.3289 48.4688 53.8223 46.2502C54.148 46.0434 54.5325 45.9405 54.9151 45.9897C64.2686 47.1911 71.4966 55.1832 71.4966 64.8635V72.3594C71.4966 78.7567 66.3106 83.9428 59.9132 83.9428H22.308C15.9107 83.9428 10.7246 78.7567 10.7246 72.3594V64.8635C10.7246 55.2946 17.7872 47.3752 26.9841 46.0338Z" fill="#326CE5"/>
<path fill-rule="evenodd" clip-rule="evenodd" d="M72.0356 82.4937C73.7201 80.3512 74.7249 77.649 74.7249 74.7122V64.0123C74.7249 55.9577 70.1245 48.9776 63.408 45.5561C72.7393 47.0963 79.8167 54.6562 79.7238 63.5783V72.0106C79.7238 76.766 76.5504 80.8211 72.0356 82.4937ZM63.6189 25.6633C63.6189 30.5769 62.1331 35.1434 59.5862 38.9381C66.2233 36.7133 71.0055 30.4442 71.0055 23.0581C71.0055 13.8103 63.5088 6.31348 54.261 6.31348C54.0822 6.31348 53.904 6.31628 53.7266 6.32184C59.7194 10.6542 63.6189 17.7034 63.6189 25.6633Z" fill="#326CE5"/>
</svg>
