<svg width="1945" height="2280" viewBox="0 0 1945 2280" fill="none" xmlns="http://www.w3.org/2000/svg">
<path fill-rule="evenodd" clip-rule="evenodd" d="M668.695 573.942L664.947 318.528L816.927 229.517L1042.59 77.5501L1135.35 73.7759L1231.87 177.521L1283.86 522.231L1213.37 648.207L920.659 640.684L668.695 573.942Z" fill="white"/>
<path fill-rule="evenodd" clip-rule="evenodd" d="M368.484 1304.11L446.212 1085.38L598.191 903.919L675.919 748.191L709.433 696.455L1265.07 611.217L1376.33 785.453L1687.53 1530.07L1580.02 1663.26L1298.31 2134.26L1231.87 2148.98L716.67 2163.71L357.226 1763.53L297.98 1430.09L368.484 1304.11Z" fill="white"/>
<path fill-rule="evenodd" clip-rule="evenodd" d="M1079.88 737.206C1079.88 737.206 1061.38 733.444 1113.1 722.174C1165.11 711.201 1165.39 700.216 1179.83 685.184C1194.58 670.45 1202.1 636.923 1202.1 599.947C1202.1 562.97 1220.6 455.476 1216.82 426.009C1213.37 396.243 1150.08 285.287 1124.36 270.268C1098.37 255.534 809.417 229.517 809.417 229.517L720.419 300.034L653.676 362.73L668.695 562.97C668.695 562.97 649.915 625.951 653.676 651.67C657.437 677.674 694.7 707.44 709.433 722.174C724.167 737.206 779.652 796.724 798.133 814.92C816.914 833.415 820.675 851.91 864.876 837.164C909.375 822.43 935.379 822.43 968.906 796.425C1002.13 770.421 1079.88 737.206 1079.88 737.206Z" fill="#F6D330"/>
<path fill-rule="evenodd" clip-rule="evenodd" d="M909.388 422.261C920.659 392.495 935.392 337.024 961.111 318.529C987.103 300.034 1042.89 284.729 1076.13 288.763C1109.64 292.524 1172.34 325.753 1187.36 351.744C1202.1 377.749 1202.1 481.481 1202.1 481.481L1194.58 566.718L1142.86 562.97L1031.63 518.458H1013.13C1013.13 518.458 994.638 525.682 938.868 496.214C883.383 466.462 898.117 452.013 909.388 422.261ZM790.922 503.737C792.66 501.999 796.123 499.69 800.753 497.083C823.282 484.658 872.398 466.462 872.398 466.462C872.398 466.462 920.36 344.533 879.622 296.273C839.17 248.025 750.184 255.535 750.184 255.535C750.184 255.535 653.974 311.019 657.437 333.262C661.198 355.518 664.947 433.233 668.708 444.219C672.184 455.489 687.203 573.955 687.203 573.955L720.431 559.222L768.692 522.232C768.679 522.232 779.937 515.008 790.922 503.737Z" fill="white"/>
<path fill-rule="evenodd" clip-rule="evenodd" d="M1498.55 1622.81L1552.29 1626.85C1560.09 1627.44 1567.89 1627.71 1575.7 1628.01C1615.57 1629.45 1650.55 1635.52 1687.82 1640.15C1712.4 1643.05 1753.12 1658.66 1756.02 1689.56C1760.06 1735.23 1746.77 1785.49 1785.47 1804.28C1825.07 1831.15 1913.47 1893.28 1913.47 1893.28L1939.49 1941.23L1861.77 2011.74L1480.07 2241.45L1306.12 2182.22V2041.5L1313.34 1852.54L1294.85 1682.05L1324.33 1615.31L1398.58 1593.05L1498.55 1622.81ZM394.787 1539.59C391.025 1536.12 323.414 1556.08 319.082 1556.93C287.592 1561.55 247.723 1583.22 247.723 1617.62C247.723 1635.25 246.283 1653.45 238.19 1669.34C231.835 1681.75 217.386 1700.53 217.672 1704.59C212.756 1718.17 203.807 1737.24 191.382 1745.33C176.934 1746.79 112.785 1752.57 112.785 1752.57H57.0151L23.7865 1793.01L49.7909 1900.8L42.2685 1985.75L16.5494 2082.25L79.2453 2115.48L553.692 2241.45L661.186 2208.22L716.657 2070.98L705.387 2019.25L653.676 1915.52C653.676 1915.51 428.301 1588.14 394.787 1539.59Z" fill="#F6D330"/>
<path fill-rule="evenodd" clip-rule="evenodd" d="M636.336 376.594C628.541 118.003 729.381 3.85604 938.855 0.10778C1148.06 -3.93879 1279.23 106.434 1306.11 251.202C1332.68 395.673 1317.38 586.082 1370.83 684.911C1424 784.013 1458.1 860.003 1549.69 974.137C1640.99 1088.27 1697.91 1204.43 1724.51 1345.42C1751.36 1486.14 1766.4 1552.6 1697.91 1625.12C1629.44 1697.34 1507.8 1815.24 1416.48 1682.04C1370.55 1615.3 1365.64 1532.37 1443.08 1514.76C1492.48 1503.19 1528.02 1506.95 1564.72 1526.01C1601.71 1545.09 1610.38 1536.12 1566.16 1503.19C1521.65 1470.24 1512.72 1500.58 1528.02 1447.42C1543.35 1394.24 1563.28 1298.6 1521.66 1193.43C1502.31 1144.9 1436.73 1011.98 1375.17 979.325C1369.67 976.148 1353.51 969.507 1364.48 983.086C1380.96 1003.6 1469.66 1134.2 1494.79 1211.92C1521.66 1295.44 1525.41 1375.19 1511.56 1425.74C1497.71 1476.6 1473.42 1496.82 1444.24 1496.82C1415.05 1496.82 1388.48 1510.68 1388.48 1443.66C1388.48 1376.33 1395.42 1274.91 1359.3 1189.09C1323.18 1103.56 1279.25 1044.61 1269.73 1008.49C1260.48 972.373 1239.38 875.295 1195.76 820.108C1151.83 764.922 1132.77 728.801 1155.58 665.82C1178.41 603.124 1161.35 586.069 1115.71 572.775C1070.06 559.494 1009.09 540.415 994.068 509.794C978.75 479.457 988.296 418.486 1022.39 403.467C1056.76 388.15 1113.69 408.954 1115.71 452.882C1117.73 496.513 1096.63 519.339 1102.44 528.872C1108.21 538.405 1138.54 553.722 1153.87 536.68C1168.89 519.339 1172.95 466.163 1157.62 416.761C1142.29 367.347 1134.79 332.964 1079.59 321.693C1024.42 310.124 999.567 313.885 972.979 348.268C946.391 382.366 934.848 437.552 942.642 477.719C950.152 517.588 934.835 494.762 908.26 492.738C881.672 491 889.194 488.977 862.606 491C836.018 492.738 845.564 475.683 843.527 447.085C841.79 418.473 838.041 359.539 797.874 336.712C757.992 313.885 689.525 340.473 691.25 435.827C693.273 530.895 725.632 576.536 744.711 542.153C763.776 508.056 754.244 525.111 735.178 509.794C716.113 494.775 702.818 431.78 723.622 413C744.711 393.935 769.276 393.935 782.855 405.205C796.149 416.761 816.952 454.906 813.191 479.457C809.43 504.307 807.407 506.045 782.855 523.373C758.005 540.415 748.472 555.733 719.874 574.513C691.262 593.578 680.005 637.507 702.831 648.778C725.658 660.334 727.682 658.31 746.462 686.922C765.527 715.533 797.887 728.814 877.923 715.533C957.674 702.239 990.605 683.173 1051 662.072C1094.93 647.04 1079.6 648.778 1094.93 631.735C1109.95 614.693 1134.8 639.245 1111.98 654.562C1089.15 669.879 1037.7 684.898 999.58 698.192C961.721 711.772 917.805 749.631 838.054 745.869C758.018 742.108 813.204 743.846 788.354 742.108C763.789 740.085 752.233 743.846 778.821 762.911C805.695 781.99 803.671 787.762 826.498 795.271C849.325 803.079 879.661 803.079 916.067 789.785C952.188 776.205 1043.51 736.323 1072.11 717.258C1100.43 698.192 1123.25 723.042 1094.93 742.108C1066.34 761.174 1058.53 755.402 1031.94 772.444C1005.36 789.785 955.949 818.098 923.59 848.72C891.23 879.056 883.721 881.079 843.553 882.817C803.684 884.84 778.834 842.948 761.779 823.882C744.737 804.804 746.462 793.546 725.658 770.706C704.855 747.88 702.831 753.366 699.07 778.216C695.309 803.066 666.711 865.762 641.861 907.667C617.296 949.559 615.273 1001 619.034 1037.12C622.795 1073.24 613.262 1076.99 584.949 1118.88C556.338 1160.77 508.661 1284.44 501.152 1324.32C493.629 1364.19 484.109 1446.25 487.858 1493.64C491.619 1541.32 478.325 1550.85 443.942 1518.49C409.845 1486.13 398.275 1450.01 400.312 1402.33C402.05 1361.6 407.536 1332.98 412.737 1317.97C417.938 1302.95 413.022 1292.54 402.05 1311.04C378.639 1351.48 377.485 1421.41 383.269 1446.26C388.756 1470.83 390.779 1514.74 453.488 1573.68C516.469 1632.63 607.776 1714.4 683.779 1769.59C760.054 1824.77 786.642 1893.25 674.246 1942.67C744.75 2038.02 782.881 2087.42 752.259 2150.12C815.24 2114 790.974 2028.77 760.638 2005.93C730.003 1983.11 748.498 1965.49 775.086 1982.83C801.674 1999.88 811.207 2033.97 916.093 2032.24C1020.68 2030.23 1133.38 2019.82 1196.38 1928.22C1259.08 1836.91 1271.22 1913.77 1255.89 1967.23C1240.87 2020.39 1203.3 2140.6 1262.24 2129.33C1269.77 2058.81 1287.09 1997.85 1287.09 1921.86C1287.09 1845.58 1294.62 1808.88 1288.84 1698.51C1283.05 1592.17 1329 1584.95 1376.39 1584.95C1424.07 1584.95 1408.74 1615.57 1378.41 1613.55C1347.79 1611.54 1315.69 1623.09 1313.69 1701.11C1311.67 1779.12 1313.69 1771.61 1326.96 1841.83C1340.26 1912.33 1342.29 1933.13 1330.74 2011.15C1319.47 2089.17 1309.92 2131.05 1361.36 2178.74C1412.5 2226.42 1490.5 2212.84 1530.68 2182.49C1570.55 2152.15 1646.55 2081.66 1715.02 2058.82C1783.8 2036 1856.04 2018.96 1894.16 1980.81C1932.03 1942.68 1922.48 1916.09 1882.6 1895.28C1842.73 1874.19 1804.57 1883.72 1774.25 1849.62C1743.6 1815.24 1728.58 1739.24 1739.86 1699.08C1751.41 1659.21 1764.71 1676.26 1764.71 1704.87C1764.71 1733.46 1766.46 1760.05 1795.05 1796.16C1823.65 1832.28 1850.23 1849.62 1895.89 1877.94C1941.55 1906.55 1970.15 1952.2 1912.94 1992.35C1856.01 2032.22 1823.64 2055.06 1775.96 2074.13C1728.57 2093.21 1650.57 2138.85 1602.87 2186.25C1555.19 2233.93 1528.62 2275.82 1435.3 2275.82C1342.25 2275.82 1299.49 2253.28 1271.76 2197.8C1252.68 2159.66 1243.14 2165.45 1199.52 2163.43C1155.59 2161.69 1009.1 2159.66 894.979 2161.69C780.845 2163.43 742.714 2182.49 691.275 2224.38C640.136 2266.28 621.057 2298.65 523.978 2266.28C426.9 2233.9 375.462 2197.8 230.991 2169.2C86.2229 2140.6 164.249 2153.88 76.6902 2134.81C-10.8557 2116.03 -5.0842 2074.13 6.48483 2039.76C17.7556 2005.66 46.3539 1952.2 21.5038 1881.99C-3.0609 1811.48 6.48485 1739.25 72.929 1739.25C139.671 1739.25 202.38 1752.54 228.955 1664.98C255.543 1577.44 263.338 1645.92 255.543 1668.75C248.034 1691.57 244.272 1754.27 185.325 1763.81C126.377 1773.33 113.096 1760.05 76.6772 1760.05C40.5694 1760.05 25.5374 1784.9 44.3176 1826.8C63.3832 1868.67 84.472 1912.32 80.7238 1948.44C76.6772 1984.55 72.916 1997.85 46.3409 2032.22C19.7529 2066.32 23.5141 2083.66 71.191 2094.93C118.57 2106.5 204.39 2129.32 284.142 2148.39C364.178 2167.16 369.962 2167.16 508.648 2203.58C647.632 2239.69 685.776 2174.97 697.047 2096.96C708.603 2018.93 655.155 1944.68 605.74 1870.41C556.325 1796.15 503.136 1710.66 438.404 1632.64C373.685 1554.62 335.541 1548.84 303.181 1565.9C270.809 1583.24 265.037 1579.47 263.299 1535.56C261.276 1491.93 257.515 1463.33 293.635 1398.6C329.756 1333.88 362.116 1263.36 400.26 1155.01C438.391 1046.66 472.488 1025.58 537.221 932.245C601.953 839.213 573.341 875.32 618.995 812.625C664.649 749.643 651.354 761.187 647.606 662.085C643.845 563.255 640.097 506.045 636.336 376.594ZM454.59 1150.38C464.421 1162.24 478.286 1134.21 492.734 1123.52C498.965 1117.9 503.666 1110.79 506.395 1102.85C509.124 1094.92 509.792 1086.42 508.337 1078.15C506.897 1069.21 492.436 1072.08 489.557 1075.26C480.608 1084.21 482.618 1098.67 476.263 1111.1C469.038 1126.12 444.772 1138.26 454.59 1150.38ZM1272.59 752.795C1293.11 770.136 1305.82 785.168 1317.08 759.449C1328.66 733.73 1328.66 723.328 1300.92 712.926C1273.46 702.226 1261.05 690.968 1248.61 676.805C1236.2 662.357 1231.87 686.922 1241.97 710.903C1254.38 740.383 1261.61 743.846 1272.59 752.795ZM843.8 516.732C829.637 513.84 812.595 514.994 803.049 526.265C799.288 530.026 801.026 540.713 807.666 543.606C816.33 547.367 822.114 538.703 823.852 532.05C824.721 529.157 825.876 525.409 828.768 524.54C832.529 522.517 838.015 524.255 842.062 522.517C846.692 520.779 844.954 516.732 843.8 516.732ZM911.126 519.339C916.91 528.003 927.312 528.003 935.976 531.764C940.593 533.788 950.139 536.68 953.018 530.026C959.672 508.938 931.06 515.578 917.766 515.578C914.887 515.578 908.234 514.722 911.126 519.339ZM1049.84 427.163C1062.83 427.734 1080.46 450.859 1082.18 477.732C1082.46 481.779 1093.45 481.481 1095.76 477.447C1101.85 466.76 1097.51 454.906 1094.62 442.195C1092.29 431.793 1079.88 421.106 1069.47 416.476C1062.53 413 1055.31 411.859 1046.06 413C1043.75 414.167 1035.67 426.294 1049.84 427.163ZM766.37 420.523C754.516 421.379 758.861 430.626 759.432 438.136C775.903 447.383 777.343 468.187 780.806 484.658C781.091 491.013 790.624 488.134 791.493 486.111C798.717 472.817 789.755 457.798 786.59 442.195C783.698 434.102 778.212 424.855 770.689 419.368C769.548 418.214 767.512 420.523 766.37 420.523ZM1129.85 128.975C1117.99 119.443 1099.5 115.681 1094.03 131.284C1088.25 144.578 1090.55 158.157 1087.36 172.606C1087.36 177.223 1081.59 178.377 1078.42 182.709C1073.79 188.195 1074.95 195.134 1077.26 197.157C1088.25 208.428 1108.46 186.172 1123.21 178.377C1134.18 171.438 1150.05 180.4 1162.22 172.606C1165.67 170.297 1166.82 164.798 1163.36 160.466C1155.57 146.887 1141.99 139.092 1129.85 128.975Z" fill="black"/>
<path fill-rule="evenodd" clip-rule="evenodd" d="M1472.54 1641.89C1474.29 1634.08 1478.31 1618.77 1485.83 1616.46C1488.44 1615.6 1490.74 1616.75 1491.6 1619.36C1493.33 1624.26 1488.12 1652.3 1490.16 1658.66C1492.47 1665.3 1500.26 1664.43 1505.76 1662.7C1518.76 1658.36 1526.28 1643.05 1525.7 1641.61C1525.7 1641.03 1525.4 1641.03 1524.84 1641.03C1522.82 1641.61 1521.07 1648.84 1515.3 1650.55C1511.55 1651.72 1508.66 1651.13 1507.49 1647.38C1506.35 1643.34 1511.26 1614.44 1508.93 1607.79C1506.93 1601.15 1500.26 1599.41 1493.91 1601.43C1479.75 1606.06 1473.69 1627.72 1469.94 1640.45H1469.64L1471.67 1610.68L1454.04 1616.46L1453.18 1678.01L1469.66 1672.51C1469.95 1661.82 1470.51 1649.68 1472.54 1641.89ZM1548.84 1648.53C1562.97 1643.91 1569.33 1627.15 1568.74 1625.12C1568.47 1624.55 1568.19 1624.25 1567.6 1624.25C1566.44 1624.83 1563.86 1634.36 1555.75 1636.96C1552.27 1638.12 1549.11 1637.24 1548.25 1634.95C1547.09 1631.47 1547.95 1625.41 1547.95 1620.2L1548.54 1592.46L1567.89 1586.1L1567.62 1579.45L1548.27 1585.8L1549.12 1559.51L1531.79 1569.35L1530.91 1627.99C1530.91 1634.35 1530.35 1639.84 1531.5 1642.74C1533.79 1650.26 1541.6 1651.13 1548.84 1648.53Z" fill="black"/>
</svg>
