<svg width="40" height="40" viewBox="0 0 40 40" fill="none" xmlns="http://www.w3.org/2000/svg">
<g clip-path="url(#clip0_23296_3381)">
<path d="M40 0H0V40H40V0Z" fill="#ED7100" fill-opacity="0.12"/>
<path fill-rule="evenodd" clip-rule="evenodd" d="M19.404 19.0059C19.155 19.1467 19 19.4095 19 19.6921V32.8748L9 27.1906V14.4076L20.253 8.01164L30.22 12.8581L19.404 19.0059ZM31.455 12.8433C31.455 12.5657 31.303 12.3078 31.031 12.1552L20.639 7.10201C20.393 6.96616 20.092 6.96518 19.85 7.10398L8.404 13.6102C8.155 13.75 8 14.0128 8 14.2963V27.3028C8 27.5854 8.155 27.8482 8.402 27.988L18.794 33.8947C18.918 33.9655 19.057 34 19.196 34C19.335 34 19.474 33.9655 19.598 33.8947C19.845 33.7539 20 33.491 20 33.2095V19.8043L31.058 13.5186C31.303 13.3798 31.455 13.1209 31.455 12.8433ZM32 27.5342L22.961 32.8236V27.862L27.955 24.8624L27.988 24.631C27.997 24.571 28 24.571 28 24.2904V18.7441L32 16.47V27.5342ZM32.598 15.4511C32.35 15.3093 32.042 15.3093 31.794 15.4501L27.322 17.9929C27.127 18.1052 27 18.3227 27 18.5452V24.2825L22.357 27.0705C22.112 27.2123 21.961 27.4731 21.961 27.7527V33.1632C21.961 33.4487 22.111 33.7047 22.362 33.8484C22.485 33.9183 22.624 33.9537 22.762 33.9537C22.903 33.9537 23.045 33.9173 23.173 33.8454L32.595 28.3306C32.844 28.1908 33 27.9279 33 27.6444V16.1353C33 15.8498 32.849 15.5938 32.598 15.4511Z" fill="#ED7100"/>
</g>
<rect x="0.5" y="0.5" width="39" height="39" stroke="#ED7100"/>
<defs>
<clipPath id="clip0_23296_3381">
<rect width="40" height="40" fill="white"/>
</clipPath>
</defs>
</svg>
