<svg width="40" height="40" viewBox="0 0 40 40" xmlns="http://www.w3.org/2000/svg">  <g id="Icon-Architecture/32/Arch_Amazon-WorkSpaces-Family_32" stroke="none" stroke-width="1" fill="none" fill-rule="evenodd">  <path d="M19.5,33.976 L20.5,33.976 L20.5,31.031 L19.5,31.031 L19.5,33.976 Z M20.489,9 L19.501,8.996 L19.512,6 L20.501,6.004 L20.489,9 Z M30.016,20.469 L34,20.469 L34,19.469 L30.016,19.469 L30.016,20.469 Z M6,20.469 L10.031,20.469 L10.031,19.469 L6,19.469 L6,20.469 Z M7,17 L6,17 L6,6.5 C6,6.224 6.224,6 6.5,6 L17,6 L17,7 L7,7 L7,17 Z M34,6.5 L34,17 L33,17 L33,7 L23,7 L23,6 L33.5,6 C33.776,6 34,6.224 34,6.5 L34,6.5 Z M33,23 L34,23 L34,33.5 C34,33.776 33.776,34 33.5,34 L23,34 L23,33 L33,33 L33,23 Z M7,33 L17,33 L17,34 L6.5,34 C6.224,34 6,33.776 6,33.5 L6,23 L7,23 L7,33 Z M20.516,28.156 L20.516,20.25 L27,16.325 L27,24.229 L20.516,28.156 Z M13,16.306 L19.516,20.25 L19.516,28.175 L13,24.229 L13,16.306 Z M20,11.47 L26.544,15.432 L20.016,19.384 L13.48,15.428 L20,11.47 Z M19.74,10.458 L12.287,14.982 C12.159,15.043 12.057,15.159 12.016,15.303 C11.996137,15.369 11.992,15.437 12,15.503 L12,24.511 C12,24.686 12.092,24.848 12.241,24.938 L19.741,29.48 C19.82,29.529 19.91,29.553 20,29.553 C20.09,29.553 20.18,29.529 20.259,29.48 L27.759,24.938 C27.908,24.848 28,24.686 28,24.511 L28,15.427 C28,15.252 27.908,15.09 27.759,14.999 L20.259,10.457 C20.101,10.36 19.9,10.361 19.74,10.458 L19.74,10.458 Z" id="Fill-5" fill="#FFFFFF"></path> </g></svg>