<svg width="90" height="90" viewBox="0 0 90 90" fill="none" xmlns="http://www.w3.org/2000/svg">
<path fill-rule="evenodd" clip-rule="evenodd" d="M20.719 19.3957H24.4084V17.0492H22.5637H20.719V19.3957ZM76.9997 57.748V54.0587H81.9041V49.2145H83.7488H85.5935V55.748C85.5935 56.8526 84.6981 57.748 83.5935 57.748H76.9997ZM22.5637 14.0337H20.719V7.50012C20.719 6.39555 21.6144 5.50012 22.719 5.50012H30.9624V7.34482V9.18951H24.4084V14.0337H22.5637ZM34.7671 7.34482V5.50012H51.2539V7.34482V9.18951H34.7671V7.34482ZM55.0586 7.34482V5.50012H71.5454V7.34482V9.18951H55.0586V7.34482ZM75.3501 7.34482V5.50012H83.5935C84.6981 5.50012 85.5935 6.39555 85.5935 7.50012V14.0337H83.7488H81.9041V9.18951H75.3501V7.34482ZM83.7488 17.0492H85.5935V30.1163H83.7488H81.9041V17.0492H83.7488ZM83.7488 33.1318H85.5935V46.199H83.7488H81.9041V33.1318H83.7488Z" fill="#326CE5"/>
<mask id="path-2-inside-1_26091_15819" fill="white">
<rect x="12.1252" y="19.3957" width="64.8745" height="52.2479" rx="2"/>
</mask>
<rect x="12.1252" y="19.3957" width="64.8745" height="52.2479" rx="2" stroke="#326CE5" stroke-width="7.37879" stroke-linejoin="round" stroke-dasharray="15.59 3.6" mask="url(#path-2-inside-1_26091_15819)"/>
<rect x="4.40649" y="32.1616" width="64.8745" height="52.2479" rx="3" fill="white"/>
<path fill-rule="evenodd" clip-rule="evenodd" d="M69.281 34.2519C69.281 33.1474 68.3856 32.2519 67.281 32.2519H6.40649C5.30192 32.2519 4.40649 33.1474 4.40649 34.2519V82.4998C4.40649 83.6044 5.30193 84.4998 6.4065 84.4998H67.281C68.3856 84.4998 69.281 83.6044 69.281 82.4998V34.2519ZM53.7501 61.7391L52.351 61.0666C51.5324 60.6732 51.0976 59.778 51.166 58.8723C51.2166 58.2026 51.2166 57.5304 51.166 56.8607C51.0976 55.955 51.5324 55.0598 52.351 54.6664L53.7501 53.9939C54.5858 53.5233 54.9084 52.5422 54.5775 51.6727C53.8411 49.7424 52.4346 47.9716 51.0943 46.4242C50.4821 45.7142 49.4148 45.5388 48.5874 46.0014L47.3728 46.6775C46.6533 47.0779 45.769 46.9852 45.0865 46.5245C44.4196 46.0744 43.7103 45.6777 42.9661 45.3399C42.1874 44.9865 41.6376 44.2383 41.6376 43.3831V42.1328C41.6376 41.1995 40.9343 40.4098 39.9829 40.2503C37.8731 39.9073 35.7302 39.9233 33.6949 40.2583C32.7517 40.4178 32.0733 41.2155 32.0733 42.1328V43.3846C32.0733 44.2429 31.5194 44.9929 30.7378 45.3476C29.9959 45.6843 29.2888 46.0816 28.6238 46.5317C27.9418 46.9932 27.0576 47.0859 26.3381 46.6854L25.1235 46.0094C24.2878 45.5467 23.2288 45.7222 22.6166 46.4321C21.2763 47.9796 19.8615 49.7504 19.1251 51.6807C18.7859 52.5501 19.1582 53.5313 19.9939 53.9939L21.3747 54.6695C22.1858 55.0664 22.6145 55.9571 22.5457 56.8575C22.4943 57.5309 22.494 58.2063 22.5449 58.8784C22.6133 59.7812 22.1827 60.6745 21.3685 61.0705L19.9939 61.7391C19.1582 62.2097 18.7942 63.1908 19.1251 64.0603C19.8615 65.9826 21.2763 67.7534 22.6166 69.3009C23.2288 70.0108 24.2961 70.1863 25.1235 69.7236L26.3397 69.0507C27.0586 68.653 27.9404 68.7466 28.6213 69.2064C29.2891 69.6574 29.9995 70.0548 30.7447 70.3931C31.5235 70.7465 32.0733 71.4947 32.0733 72.3499V73.6002C32.0733 74.5335 32.7766 75.3232 33.728 75.4827C35.8378 75.8337 37.9724 75.8177 40.0077 75.4827C40.9509 75.3232 41.6376 74.5255 41.6376 73.6002V72.3564C41.6376 71.4981 42.1915 70.748 42.9731 70.3933C43.7149 70.0567 44.4221 69.6593 45.0871 69.2093C45.7691 68.7478 46.6533 68.6551 47.3728 69.0556L48.5874 69.7316C49.423 70.1942 50.4821 70.0188 51.0943 69.3088C52.4346 67.7614 53.8825 65.9906 54.6189 64.0603C54.9498 63.1829 54.5858 62.2017 53.7501 61.7391ZM41.0168 62.237C41.159 62.1378 41.2907 62.0106 41.3948 61.8719C45.9126 55.8513 38.947 49.1372 32.7023 53.496C32.5601 53.5952 32.4284 53.7224 32.3244 53.8611C27.8065 59.8817 34.7722 66.5958 41.0168 62.237Z" fill="#326CE5"/>
</svg>
