<svg xmlns="http://www.w3.org/2000/svg" width="18" height="18" viewBox="0 0 18 18"><defs><linearGradient id="a" x1="9.13" y1="18.81" x2="8.85" y2="-8.1" gradientUnits="userSpaceOnUse"><stop offset="0" stop-color="#198ab3"/><stop offset="0" stop-color="#198ab3"/><stop offset=".09" stop-color="#22a5cb"/><stop offset=".19" stop-color="#29bade"/><stop offset=".29" stop-color="#2ec9eb"/><stop offset=".42" stop-color="#31d1f3"/><stop offset=".62" stop-color="#32d4f5"/></linearGradient></defs><circle cx="11.4" cy="8.44" r="1.97" fill="#fff"/><circle cx="14.7" cy="14.3" r="1.55" fill="#fff"/><circle cx="8.57" cy="13.24" r="1.33" fill="#fff"/><circle cx="7.61" cy="3.11" r="1.65" fill="#fff"/><circle cx="3.19" cy="9.19" r="1.33" fill="#fff"/><path fill="#949494" d="M15.06 13.99l-3.33-5.83-.33.19.27-.2L7.9 2.79l-.69.5 3.34 4.75-7.4.61.07.86 7.33-.61-2.43 4.04.73.44 2.5-4.16 2.97 5.19.74-.42z"/><g fill="#949494"><path d="M17.53 1.23A.73.73 0 0016.8.5H13a.36.36 0 00-.36.36v1.41a.36.36 0 00.36.36h2.35v2.3a.38.38 0 00.37.37h1.4a.38.38 0 00.37-.37v-3.7zM5 15.37H2.61v-2.3a.38.38 0 00-.37-.37H.84a.38.38 0 00-.37.37v3.7a.73.73 0 00.73.72H5a.36.36 0 00.36-.36v-1.4a.36.36 0 00-.36-.36z"/></g><path d="M11.4 6.49a2 2 0 11-2 1.95 2 2 0 012-1.95zM6 3.11a1.66 1.66 0 101.62-1.65A1.65 1.65 0 006 3.11zM1.86 9.18a1.33 1.33 0 101.33-1.33 1.33 1.33 0 00-1.33 1.33zm5.38 4.05a1.34 1.34 0 101.34-1.33 1.33 1.33 0 00-1.34 1.33zm5.92 1.07a1.55 1.55 0 101.55-1.54 1.53 1.53 0 00-1.55 1.54z" fill="url(#a)"/></svg>