<svg fill="#ffffff" viewBox="0 0 32 32" xmlns="http://www.w3.org/2000/svg" stroke="#ffffff"><g id="SVGRepo_bgCarrier" stroke-width="0"></g><g id="SVGRepo_tracerCarrier" stroke-linecap="round" stroke-linejoin="round"></g><g id="SVGRepo_iconCarrier"> <path d="M4.735 8.547c0-1.599 0.973-3.041 2.505-3.735 1.541-0.681 3.328-0.484 4.681 0.521l3.36-3.136c-3.12-2.557-7.5-2.916-10.989-0.891-3.396 1.887-5.032 5.876-3.932 9.6 1.271 3.76 4.833 6.265 8.801 6.187h3.437v-4.4h-3.437c-2.443-0.027-4.427-1.881-4.427-4.163zM22.745 14.855h-3.439v4.4h3.439c2.443 0 4.427 1.865 4.427 4.131 0 2.297-1.984 4.136-4.427 4.136-2.439 0-4.428-1.828-4.428-4.109v-14.881c0-2.104-0.839-4.145-2.344-5.719l-3.359 3.161c0.625 0.709 0.973 1.625 0.973 2.573v14.855c0 4.719 4.105 8.547 9.157 8.547 5.067 0 9.161-3.828 9.161-8.547s-4.095-8.547-9.161-8.547z"></path> </g></svg>