<svg width="20" height="20" viewBox="0 0 16 17" fill="none" xmlns="http://www.w3.org/2000/svg">
    <path
        d="M4.09931 3.86854C4.12692 3.83436 4.1442 3.81556 4.158 3.79506C4.44457 3.36281 4.8451 3.06553 5.31294 2.85025C5.97069 2.54615 6.66469 2.37187 7.38458 2.30182C8.48429 2.1959 9.5391 2.37187 10.5525 2.80072C10.8649 2.93399 11.1653 3.09629 11.4122 3.33036C11.5538 3.46363 11.6694 3.62081 11.7955 3.76774C11.8214 3.7985 11.8438 3.83095 11.8732 3.87024C12.0009 3.80191 12.1235 3.73697 12.246 3.66864C13.1127 3.1783 13.7427 2.47097 14.1779 1.58766C14.3712 1.19641 14.5455 0.796622 14.732 0.401934C14.7699 0.323342 14.8149 0.244749 14.8668 0.174712C14.9374 0.0807386 15.0082 0.0824457 15.0532 0.190094C15.1083 0.319928 15.1567 0.456611 15.1774 0.595C15.3483 1.74997 15.1861 2.85025 14.537 3.83779C14.0742 4.54169 13.4857 5.13968 12.7916 5.63003C12.7346 5.67103 12.7156 5.70521 12.7329 5.77525C12.8106 6.08961 12.8399 6.40912 12.8416 6.73202C12.8434 7.22749 12.8537 7.72298 12.8589 8.21845C12.8589 8.26971 12.8727 8.29704 12.9228 8.32266C13.0592 8.39101 13.142 8.51231 13.2042 8.64729C13.3008 8.85572 13.3285 9.07784 13.3406 9.30335C13.4131 10.5865 12.8952 11.6372 12.0337 12.5547C11.9923 12.5974 11.9612 12.6555 11.9439 12.7136C11.5969 13.8447 10.9858 14.7912 9.98795 15.4643C9.4079 15.8556 8.76395 16.0828 8.05959 16.105C7.49679 16.1237 6.96508 15.9821 6.4627 15.7359C5.55809 15.2951 4.90725 14.5982 4.43941 13.725C4.2633 13.3969 4.12865 13.0536 4.02334 12.6965C4.00954 12.6469 3.97846 12.5974 3.94394 12.5598C3.3397 11.9328 2.90637 11.2135 2.70957 10.3643C2.59736 9.87914 2.59218 9.38709 2.68195 8.89845C2.71476 8.72588 2.78209 8.56528 2.90467 8.43372C2.934 8.40296 2.96335 8.36196 3.00133 8.35001C3.11527 8.31242 3.11354 8.23041 3.11527 8.13473C3.11873 7.59654 3.117 7.05836 3.13944 6.52016C3.14981 6.26559 3.19986 6.01273 3.24303 5.75988C3.25511 5.68812 3.24131 5.65394 3.18433 5.61294C2.49033 5.12089 1.91198 4.51265 1.43553 3.81386C1.05225 3.25177 0.865819 2.61277 0.786395 1.94303C0.727707 1.45098 0.725979 0.958925 0.836464 0.473699C0.857179 0.379725 0.889989 0.28748 0.929691 0.200333C0.983216 0.0824449 1.05571 0.0773254 1.1334 0.184952C1.18347 0.253304 1.22663 0.330189 1.26288 0.407074C1.45451 0.813688 1.63405 1.22715 1.83604 1.63037C2.22447 2.40434 2.76655 3.05187 3.50889 3.5217C3.70051 3.63961 3.89733 3.75065 4.09931 3.86854ZM6.12261 10.1337C6.46616 10.1286 6.71303 10.0483 6.93227 9.88426C7.1567 9.71681 7.28619 9.49301 7.31725 9.21452C7.32417 9.14276 7.30864 9.10175 7.22748 9.09322C7.16188 9.08637 7.09801 9.06587 7.03414 9.05222C6.18303 8.87965 5.33366 8.70879 4.48257 8.53623C4.38416 8.51573 4.35653 8.53793 4.38934 8.6302C4.43941 8.76518 4.49118 8.90527 4.57061 9.02316C4.83992 9.41953 5.19555 9.72708 5.61161 9.96627C5.78942 10.0705 5.98104 10.1388 6.12261 10.1337ZM9.77906 10.1337C9.94134 10.1354 10.095 10.1029 10.2383 10.0312C10.732 9.78687 11.1325 9.43321 11.4364 8.97874C11.5054 8.87451 11.5469 8.74809 11.5883 8.62849C11.6176 8.54307 11.5883 8.51914 11.4968 8.53793C10.5766 8.72417 9.6565 8.9121 8.73633 9.09663C8.669 9.11029 8.64312 9.14617 8.65865 9.20255C8.69663 9.33582 8.71907 9.48104 8.78812 9.59551C9.00909 9.96114 9.36301 10.1098 9.77906 10.1337Z"
        fill="white" />
</svg>