<svg id="Layer_1" data-name="Layer 1" xmlns="http://www.w3.org/2000/svg" viewBox="0 0 150 150"><defs><style>.cls-1{fill:#fff;}</style></defs><path class="cls-1" d="M142.85,34.51a92.7,92.7,0,0,0-135.69,0,93.36,93.36,0,0,0,21,81.68A92.9,92.9,0,0,0,75,145,93.4,93.4,0,0,0,139.7,85.73a94.41,94.41,0,0,0,3.15-51.22ZM75,116.55a66.18,66.18,0,0,1-42.94-62q0-3.37.33-6.69a65.55,65.55,0,0,1,85.21,0q.33,3.32.33,6.7A66.19,66.19,0,0,1,75,116.55Z"/><path class="cls-1" d="M75,45.73a52.17,52.17,0,0,1,28.71,8.64,1.54,1.54,0,0,1,.68,1.3,52.65,52.65,0,0,1-28.71,45.78,1.5,1.5,0,0,1-1.37,0A52.65,52.65,0,0,1,45.61,55.67a1.52,1.52,0,0,1,.68-1.29A52.13,52.13,0,0,1,75,45.73Z"/></svg>