<svg width="29" height="24" viewBox="0 0 29 24" fill="none" xmlns="http://www.w3.org/2000/svg">
<path fill-rule="evenodd" clip-rule="evenodd" d="M5.01098 4.32216L16.742 1.93489V4.08487L9.31854 5.59555V16.4051L5.01098 17.2817V4.32216Z" fill="#326CE5"/>
<path fill-rule="evenodd" clip-rule="evenodd" d="M-1.90735e-06 2.38728L11.731 3.09944e-06V2.14999L4.30757 3.66067V14.4702L-1.90735e-06 15.3468V2.38728Z" fill="#326CE5"/>
<path d="M21.753 3.85324L10.022 6.24051V19.2L21.753 16.8127V3.85324Z" fill="#CADBFF"/>
<path d="M28.34 8.71254H27.84V11.368H28.34V11.868V14.305V14.805H27.84V17.4605H28.34V17.9605V19.179C28.34 19.8876 27.8441 20.4996 27.1509 20.6464L26.3242 20.8216L25.8351 20.9252L25.7314 20.436L24.2297 20.7542L24.3334 21.2433L23.8442 21.347L22.1909 21.6972L21.7017 21.8008L21.5981 21.3117L20.0964 21.6298L20.2 22.119L19.7109 22.2226L18.0575 22.5729L17.5684 22.6765L17.4648 22.1873L15.9631 22.5055L16.0667 22.9946L15.5775 23.0983L14.7509 23.2734C13.818 23.471 12.94 22.7595 12.94 21.806V20.5875V20.0875H13.44V17.432H12.94V16.932V14.495V13.995H13.44V11.3395H12.94V10.8395V9.62101C12.94 8.91239 13.4359 8.30044 14.1291 8.15358L14.9558 7.97845L15.4449 7.87482L15.5486 8.36397L17.0503 8.04583L16.9466 7.55668L17.4358 7.45306L19.0891 7.10279L19.5783 6.99917L19.6819 7.48831L21.1836 7.17017L21.08 6.68103L21.5691 6.5774L23.2225 6.22714L23.7116 6.12351L23.8152 6.61266L25.3169 6.29452L25.2133 5.80537L25.7025 5.70175L26.5291 5.52662C27.462 5.32899 28.34 6.04051 28.34 6.99405V8.21254V8.71254Z" stroke="#47BE0E" stroke-linecap="square" stroke-linejoin="round" stroke-dasharray="2 3"/>
</svg>
