<svg xmlns="http://www.w3.org/2000/svg" role="img" viewBox="-2.23 -2.10 109.20 109.08"><style>svg {enable-background:new 0 0 105 105}</style><style>.st0{fill:#fff}</style><path d="M25.2 77.2c1 1.6 2.4 3 4.1 3.9.3.2.6.3.9.4 2.1-3.3 3.8-6.8 5.3-10.4-3.7 1.6-7.1 3.7-10.3 6.1zM78 61.5c-.8 3.5-2 6.9-3.7 10.2 3.1 1 6.1 2.3 8.9 3.9C85.9 71 88 66 89.4 60.8c0-.2.1-.4.2-.6l-5.4.6c-2.1.2-4.1.5-6.2.7zm-6.7 15.1c-5.3 7-13.8 11.6-26.2 12.2-1.6.1-3.1.1-4.5.1 4.1 1.7 8.5 2.5 13 2.3 12.1-.6 19.6-4.2 24.9-9.5.5-.5.9-1 1.4-1.5-2.8-1.5-5.6-2.7-8.6-3.6zm8.9-29c-.3 2.7-.6 5.4-1 8.1l4.7-.5c2.5-.3 4.9-.5 7.3-.8 1-4 1.9-8.2 3-12.4-4.5.8-9.1 1.4-13.7 2l-.3 3.6zm-5-8.6c.2-3.7.4-7.5.7-11.3-3.6.5-7.2.9-10.8 1.3-.3 3.8-.6 7.6-1 11.4v.3h.3c3.6-.6 7.2-1.2 10.8-1.7zM59.8 23.9c.3-4.5.7-9 1.1-13.3-3.8 1.1-7.5 2.2-11.1 3.2-.1 1.8-.1 3.7-.2 5.6s-.2 4.1-.2 6.1l6.6-1.2c1.2 0 2.5-.2 3.8-.4zm14.7 23.4c.1-.8.1-1.7.2-2.5-3.3.5-6.5.9-9.7 1.5l-1.7.3c-.5 3.8-1.2 7.7-2.1 11.4 4-.7 8-1.2 12-1.7.6-2.9 1-5.9 1.3-9zM72 62.2c-4.2.5-8.4 1.2-12.5 1.9-.8 2.2-1.6 4.3-2.7 6.4 3.9-.5 7.9-.6 11.8-.1 1.5-2.5 2.6-5.3 3.4-8.2zM58.5 40.1c.3-3.4.6-6.8.9-10.3-1 .1-1.9.2-2.9.4-2.6.4-5 .8-7.4 1.4-.3 4.3-.6 8.6-1.1 12.9 3.3-1 6.8-1.9 10.4-2.6 0-.7 0-1.3.1-1.8zM43.3 33c-3.3.9-6.4 2.3-9.3 4 .8 4.3 1 8.8.6 13.2 2.3-1.4 4.8-2.7 7.4-3.7.5-4.5.9-9 1.3-13.5zM28.2 55c.9-4.6 1.2-9.3.8-13.9-4.2 4.4-6.7 10.6-6.7 20.4v1.7c1.5-3 3.6-5.8 5.9-8.2zm-2.7 15.2c4-2.5 8.3-4.6 12.7-6.2 1.1-3.6 2-7.2 2.7-10.8-1.7.8-3.3 1.7-4.8 2.8-5.2 3.4-8.9 7.8-10.6 14.2zM46 83.1c9-.6 14.7-3.3 18.7-7.4-4.1-.1-8.1.3-12.1 1.3-1.8 2.3-4.1 4.4-6.6 6.1zm4.8-13c.9-1.5 1.6-3 2.3-4.6-3.6.8-7.1 1.8-10.4 2.9-1.6 4.6-3.6 9-6 13.2 6.6-2 10.8-6 14.1-11.5zM43.6 27c.1-2.5.2-5 .3-7.4 0-1.3.1-2.6.1-3.9l-1.5.5c-5 1.7-9.9 4-14.3 6.9 1.7 2.7 3.1 5.5 4.2 8.4 3.5-1.9 7.3-3.5 11.2-4.5zm-16 7.8c-1-2.8-2.3-5.5-3.9-8l-1.4 1.4c-5 5.6-8.1 13.3-8.1 25.5.1 4.1.9 8.1 2.6 11.8-.1-1.2-.1-2.4-.1-3.7-.1-12.6 4.2-21.4 10.9-27zm29.9 12.9c-3.6.8-7.1 1.7-10.5 2.9-.6 3.8-1.4 7.5-2.4 11.2 3.4-1 7-1.9 10.5-2.6 1.1-3.8 1.9-7.6 2.4-11.5z" class="st0"/><path d="M52.5 0C23.5 0 0 23.5 0 52.5S23.5 105 52.5 105 105 81.5 105 52.5 81.5 0 52.5 0zm43.3 56.3v.4c-.1 1.4-.3 2.7-.6 4-4.5 23.6-27.3 39.1-50.9 34.5S5.3 67.9 9.8 44.3 37.1 5.2 60.7 9.8c2 .4 3.9.9 5.8 1.5-.4 3.9-.8 7.9-1.1 12 3.7-.4 7.3-.9 10.9-1.3.2-1.8.4-3.6.7-5.3.9.6 1.8 1.3 2.7 2l.1.1c.8.7 1.7 1.4 2.5 2.2l.2.2c1.6 1.5 3.1 3.2 4.5 5h-.1c-1.7.3-3.5.7-5.3.9-.3 3.7-.5 7.5-.8 11.4 4.1-.6 8.2-1.2 12.1-1.8.2.6.5 1.2.7 1.9.2.6.4 1.2.6 1.9v.1c.2.6.3 1.2.5 1.8l.1.2c.1.6.3 1.1.4 1.7 0 .2 0 .3.1.4.1.5.2 1 .3 1.6l.1.7c.1.4.1.9.2 1.3s.1.7.1 1.1.1.7.1 1c0 .7.1 1.4.1 2.2s0 1.4-.1 2.1c-.2.5-.2 1-.3 1.6z" class="st0"/></svg>