<svg viewBox="0 0 40 40" xmlns="http://www.w3.org/2000/svg">  <g id="Icon-Architecture/32/Arch_Amazon-SageMaker-Studio-Lab_32" stroke="none" stroke-width="1" fill="none" fill-rule="evenodd">  <g id="Icon-Service/32/Amazon-SageMaker-Studio-Lab_32" transform="translate(6.000000, 6.000000)" fill="#FFFFFF"> <path d="M18,21.0722264 L27,21.0722264 L27,7.07222639 L18,7.07222639 L18,21.0722264 Z M17,21.0722264 L17,7.07222639 L15,7.07222639 L15,9.07222639 L16,9.07222639 L16,10.0722264 L15,10.0722264 L15,13.0722264 L16,13.0722264 L16,14.0722264 L15,14.0722264 L15,17.0722264 L16,17.0722264 L16,18.0722264 L15,18.0722264 L15,21.0722264 L17,21.0722264 Z M28,6.57222639 L28,21.5722264 C28,21.8482264 27.776,22.0722264 27.5,22.0722264 L14.5,22.0722264 C14.224,22.0722264 14,21.8482264 14,21.5722264 L14,18.0722264 L13,18.0722264 L13,17.0722264 L14,17.0722264 L14,14.0722264 L13,14.0722264 L13,13.0722264 L14,13.0722264 L14,10.0722264 L13,10.0722264 L13,9.07222639 L14,9.07222639 L14,6.57222639 C14,6.29622639 14.224,6.07222639 14.5,6.07222639 L27.5,6.07222639 C27.776,6.07222639 28,6.29622639 28,6.57222639 L28,6.57222639 Z M14,23.0722264 L15,23.0722264 L15,25.5722264 C15,25.7612264 14.892,25.9342264 14.724,26.0192264 L10.724,28.0192264 C10.653,28.0542264 10.576,28.0722264 10.5,28.0722264 C10.414,28.0722264 10.329,28.0502264 10.252,28.0062264 L3.252,24.0062264 C3.096,23.9172264 3,23.7512264 3,23.5722264 L3,18.9002264 L0.273,17.5182264 C0.105,17.4332264 0,17.2602264 0,17.0722264 L0,10.5722264 C0,10.4052264 0.084,10.2492264 0.223,10.1562264 L3,8.30422639 L3,4.07222639 C3,3.89022639 3.1,3.72222639 3.259,3.63422639 L9.745,0.0612263904 C9.885,-0.0137736096 10.052,-0.0207736096 10.195,0.0452263904 L14.709,2.11722639 C14.886,2.19922639 15,2.37722639 15,2.57222639 L15,5.07222639 L14,5.07222639 L14,2.89322639 L10.007,1.05922639 L9,1.61322639 L9,6.07222639 L8,6.07222639 L8,2.16422639 L4,4.36722639 L4,7.79522639 L7.478,9.96922639 L10,8.27822639 L10,6.07222639 L11,6.07222639 L11,8.54522639 C11,8.71222639 10.917,8.86722639 10.778,8.96122639 L8,10.8222264 L8,13.0722264 L11,13.0722264 L11,14.0722264 L7.5,14.0722264 C7.224,14.0722264 7,13.8482264 7,13.5722264 L7,10.8492264 L3.879,8.89822639 C3.85,8.93222639 3.815,8.96322639 3.777,8.98822639 L1,10.8392264 L1,13.5782264 L4.199,11.1722264 L4.801,11.9712264 L1,14.8302264 L1,16.7652264 L3.726,18.1472264 C3.747,18.1572264 3.756,18.1792264 3.775,18.1922264 L6.18,16.1882264 L6.82,16.9562264 L4,19.3062264 L4,23.2822264 L6.655,24.7992264 L8,23.6992264 L8,18.0722264 L9,18.0722264 L9,22.8802264 L11.684,20.6852264 L12.316,21.4592264 L7.585,25.3302264 L10.516,27.0052264 L14,25.2632264 L14,23.0722264 Z" id="Fill-3"></path> </g> </g></svg>