<svg width="182" height="122" viewBox="0 0 182 122" fill="none" xmlns="http://www.w3.org/2000/svg">
<rect x="3.26416" y="2.5" width="157.73" height="116.5" fill="#326CE5" fill-opacity="0.1" stroke="#326CE5" stroke-width="5" stroke-dasharray="10 10"/>
<path fill-rule="evenodd" clip-rule="evenodd" d="M152.272 99.2605C142.141 94.4319 137.86 82.3411 142.71 72.2548C145.039 67.4112 149.205 63.6871 154.292 61.9018C159.378 60.1164 164.969 60.4161 169.834 62.7349C179.965 67.5634 184.246 79.6542 179.396 89.7405C174.546 99.8268 162.402 104.089 152.272 99.2605Z" fill="#326CE5"/>
<path d="M160.86 68.8522C160.631 68.8637 160.408 68.92 160.202 69.018L151.222 73.2894C150.99 73.3999 150.785 73.5607 150.624 73.7598C150.464 73.9589 150.35 74.1913 150.293 74.4396L148.077 84.0342C148.026 84.2553 148.021 84.4842 148.061 84.7075C148.101 84.9308 148.186 85.1439 148.311 85.3342C148.341 85.3807 148.373 85.4257 148.408 85.4691L154.624 93.1624C154.785 93.3615 154.989 93.5222 155.221 93.6327C155.454 93.7431 155.708 93.8005 155.966 93.8004L165.934 93.7981C166.192 93.7983 166.446 93.7412 166.679 93.6309C166.911 93.5207 167.115 93.3602 167.276 93.1613L173.489 85.4668C173.65 85.2676 173.764 85.0352 173.821 84.7868C173.879 84.5384 173.879 84.2804 173.821 84.0319L171.603 74.4373C171.545 74.189 171.432 73.9566 171.271 73.7575C171.11 73.5584 170.906 73.3976 170.673 73.2871L161.692 69.018C161.433 68.8948 161.147 68.8377 160.86 68.8522Z" fill="white"/>
<path d="M160.949 72.1174C160.652 72.1175 160.411 72.3836 160.411 72.712C160.411 72.717 160.412 72.7218 160.412 72.7268C160.412 72.7714 160.41 72.8252 160.411 72.864C160.418 73.0534 160.46 73.1983 160.485 73.3728C160.53 73.7462 160.568 74.0558 160.544 74.3435C160.522 74.452 160.441 74.5512 160.37 74.6201L160.357 74.8465C160.035 74.8731 159.71 74.9218 159.386 74.9951C157.99 75.3106 156.789 76.0263 155.874 76.9925C155.814 76.9522 155.71 76.878 155.68 76.8553C155.584 76.8682 155.487 76.8977 155.36 76.8244C155.12 76.6633 154.901 76.4408 154.636 76.1728C154.514 76.0446 154.426 75.9225 154.282 75.7989C154.249 75.7708 154.199 75.7329 154.162 75.704C154.05 75.6145 153.917 75.5678 153.788 75.5634C153.623 75.5577 153.464 75.6221 153.36 75.752C153.175 75.9831 153.234 76.3362 153.492 76.5409C153.494 76.543 153.497 76.5446 153.5 76.5466C153.535 76.5752 153.579 76.6119 153.611 76.6358C153.764 76.7484 153.904 76.806 154.057 76.8953C154.378 77.093 154.645 77.2568 154.856 77.4544C154.939 77.542 154.953 77.6963 154.964 77.7631L155.136 77.9163C154.214 79.2979 153.787 81.0045 154.04 82.7434L153.815 82.8085C153.755 82.8848 153.671 83.0048 153.584 83.0406C153.307 83.1273 152.996 83.1592 152.62 83.1984C152.444 83.213 152.291 83.2043 152.104 83.2396C152.063 83.2473 152.006 83.2622 151.961 83.2727C151.959 83.2731 151.958 83.2735 151.956 83.2739C151.954 83.2744 151.951 83.2756 151.948 83.2761C151.631 83.3523 151.428 83.6422 151.493 83.9278C151.559 84.2135 151.868 84.3872 152.187 84.3188C152.189 84.3183 152.193 84.3182 152.195 84.3177C152.199 84.3169 152.202 84.3152 152.206 84.3143C152.25 84.3046 152.306 84.2938 152.344 84.2834C152.528 84.2344 152.662 84.1624 152.827 84.0993C153.182 83.9724 153.477 83.8663 153.764 83.8249C153.884 83.8156 154.01 83.8986 154.073 83.9336L154.307 83.8935C154.846 85.5576 155.976 86.9026 157.407 87.7465L157.309 87.9797C157.344 88.0703 157.383 88.1928 157.357 88.2823C157.253 88.5516 157.074 88.8359 156.871 89.1528C156.772 89.2992 156.671 89.4128 156.582 89.5804C156.561 89.6205 156.534 89.6821 156.513 89.7244C156.375 90.0187 156.477 90.3576 156.742 90.4847C157.009 90.6127 157.34 90.4777 157.484 90.1829C157.484 90.1825 157.485 90.1822 157.485 90.1818C157.485 90.1814 157.485 90.1809 157.485 90.1806C157.505 90.1388 157.534 90.0839 157.552 90.0446C157.628 89.8709 157.653 89.7221 157.707 89.5541C157.849 89.1985 157.927 88.8253 158.123 88.5928C158.176 88.5291 158.264 88.5047 158.354 88.4805L158.476 88.261C159.723 88.7376 161.119 88.8655 162.514 88.5503C162.832 88.4783 163.139 88.3853 163.436 88.2736C163.471 88.334 163.534 88.4501 163.551 88.4794C163.643 88.5092 163.744 88.5246 163.826 88.6451C163.972 88.8943 164.072 89.189 164.194 89.5449C164.248 89.7129 164.274 89.8617 164.35 90.0354C164.368 90.075 164.397 90.1307 164.417 90.1726C164.56 90.4684 164.893 90.6038 165.16 90.4756C165.425 90.3483 165.527 90.0095 165.389 89.7153C165.368 89.6729 165.34 89.6113 165.319 89.5712C165.23 89.4037 165.129 89.2912 165.03 89.1448C164.827 88.8279 164.658 88.5646 164.554 88.2953C164.51 88.1564 164.561 88.07 164.595 87.9797C164.575 87.9565 164.531 87.8253 164.506 87.7637C165.992 86.8897 167.089 85.4945 167.604 83.8833C167.674 83.8941 167.795 83.9154 167.834 83.9233C167.915 83.8702 167.989 83.8009 168.135 83.8124C168.422 83.8537 168.716 83.9598 169.072 84.0868C169.237 84.1498 169.37 84.223 169.554 84.272C169.593 84.2823 169.649 84.292 169.693 84.3017C169.697 84.3026 169.7 84.3043 169.703 84.3051C169.706 84.3057 169.709 84.3058 169.712 84.3063C170.03 84.3746 170.34 84.201 170.405 83.9153C170.471 83.6296 170.267 83.3397 169.95 83.2636C169.904 83.2531 169.839 83.2354 169.794 83.227C169.607 83.1917 169.455 83.2004 169.279 83.1858C168.903 83.1466 168.592 83.1148 168.315 83.0281C168.202 82.9845 168.122 82.8509 168.083 82.796L167.866 82.7331C167.978 81.9225 167.948 81.079 167.753 80.2349C167.557 79.383 167.209 78.6039 166.746 77.9175C166.802 77.8671 166.907 77.7744 166.937 77.7471C166.946 77.6511 166.938 77.5504 167.038 77.4441C167.249 77.2465 167.516 77.0827 167.837 76.885C167.99 76.7957 168.131 76.7381 168.284 76.6255C168.319 76.6001 168.366 76.5597 168.402 76.5306C168.66 76.3259 168.719 75.9727 168.534 75.7417C168.349 75.5107 167.991 75.489 167.733 75.6937C167.696 75.7226 167.646 75.7604 167.613 75.7886C167.469 75.9122 167.38 76.0343 167.258 76.1625C166.993 76.4305 166.774 76.6541 166.534 76.8153C166.429 76.8757 166.277 76.8548 166.208 76.8507L166.003 76.9959C164.837 75.7791 163.25 75.0011 161.541 74.8499C161.537 74.7787 161.53 74.6498 161.529 74.611C161.459 74.5443 161.374 74.4874 161.353 74.3435C161.33 74.0558 161.369 73.7462 161.414 73.3728C161.439 73.1983 161.48 73.0534 161.487 72.864C161.489 72.821 161.486 72.7585 161.486 72.712C161.486 72.3836 161.246 72.1174 160.949 72.1174H160.949ZM160.276 76.2677L160.116 79.0745L160.105 79.0802C160.094 79.3313 159.886 79.5318 159.631 79.5318C159.527 79.5318 159.431 79.4984 159.352 79.4415L159.348 79.4438L157.036 77.8123C157.746 77.1167 158.655 76.6027 159.703 76.366C159.894 76.3227 160.085 76.2906 160.276 76.2677ZM161.623 76.2677C162.846 76.4174 163.977 76.9686 164.843 77.8134L162.546 79.4346L162.538 79.4312C162.334 79.5794 162.047 79.5427 161.888 79.3443C161.823 79.263 161.789 79.1675 161.785 79.0711L161.783 79.0699L161.623 76.2677ZM156.198 78.8607L158.308 80.7403L158.306 80.7517C158.497 80.9166 158.525 81.2027 158.366 81.4011C158.301 81.4824 158.214 81.5369 158.12 81.5623L158.118 81.5715L155.412 82.3489C155.274 81.0953 155.571 79.8767 156.198 78.8607ZM165.685 78.8618C165.999 79.3679 166.236 79.9331 166.378 80.5459C166.517 81.1514 166.552 81.7557 166.495 82.3398L163.775 81.56L163.773 81.5486C163.529 81.4823 163.38 81.2357 163.436 80.9884C163.46 80.8871 163.514 80.8013 163.587 80.738L163.586 80.7323L165.685 78.8618H165.685ZM160.516 80.8855H161.381L161.918 81.5543L161.725 82.3889L160.949 82.7605L160.17 82.3878L159.977 81.5532L160.516 80.8855ZM163.288 83.1744C163.325 83.1725 163.362 83.1758 163.397 83.1824L163.402 83.1767L166.201 83.6477C165.791 84.7933 165.007 85.7858 163.96 86.45L162.874 83.8375L162.877 83.8329C162.777 83.6021 162.877 83.3314 163.107 83.2213C163.165 83.1931 163.227 83.1775 163.288 83.1744H163.288ZM158.588 83.1858C158.801 83.1888 158.993 83.3364 159.042 83.5528C159.066 83.6542 159.054 83.7546 159.016 83.8432L159.024 83.8535L157.949 86.4397C156.944 85.7977 156.143 84.8363 155.715 83.6569L158.49 83.1881L158.494 83.1938C158.526 83.1881 158.557 83.1854 158.588 83.1858V83.1858ZM160.932 84.3189C161.006 84.3161 161.081 84.3313 161.153 84.3657C161.247 84.4108 161.32 84.4818 161.366 84.5669H161.376L162.744 87.0274C162.566 87.0866 162.384 87.1372 162.197 87.1794C161.151 87.4159 160.108 87.3442 159.164 87.0239L160.528 84.5681H160.531C160.613 84.4157 160.768 84.3248 160.932 84.3189Z" fill="#326CE5" stroke="#326CE5" stroke-width="0.25"/>
</svg>
