<svg version="1.1" xmlns="http://www.w3.org/2000/svg" xmlns:xlink="http://www.w3.org/1999/xlink" x="0px" y="0px"
         viewBox="0 0 95.1 62.9" style="enable-background:new 0 0 95.1 62.9;" xml:space="preserve">
<g id="Layer_2">
</g>
<g id="Layer_1">
        <g>
                <path fill="#FFFFFF" d="M22.5,44.5h-5V1.7c0-0.9-0.7-1.7-1.7-1.7H9.6C8.7,0,7.9,0.7,7.9,1.7v42.8h-5c-2.4,0-3.7,2.7-2.3,4.6l9.8,12.6
                        c1.2,1.5,3.4,1.5,4.5,0l9.8-12.6C26.3,47.3,24.9,44.5,22.5,44.5z"/>
                <path fill="#FFFFFF" d="M55.4,46.8c-0.3-0.3-0.8-0.5-1.3-0.5H34c-1.1,0-1.9,0.9-1.9,1.9V61c0,1,0.9,1.9,1.9,1.9h20.2c0.5,0,0.9-0.2,1.3-0.5
                        l7.3-6.4c0.9-0.8,0.9-2.1,0-2.9L55.4,46.8z"/>
                <path fill="#FFFFFF" d="M71.3,23.7c-0.3-0.3-0.8-0.5-1.3-0.5H34c-1.1,0-1.9,0.9-1.9,1.9v12.8c0,1,0.9,1.9,1.9,1.9h36c0.5,0,0.9-0.2,1.3-0.5
                        l7.3-6.4c0.9-0.8,0.9-2.1,0-2.9L71.3,23.7z"/>
                <path fill="#FFFFFF" d="M94.5,7l-7.4-6.5C86.8,0.2,86.3,0,85.8,0H34c-1.1,0-1.9,0.9-1.9,1.9v12.8c0,1,0.9,1.9,1.9,1.9h51.9c0.5,0,0.9-0.2,1.3-0.5
                        l7.3-6.4C95.3,9.1,95.3,7.7,94.5,7z"/>
        </g>
</g>
</svg>