<svg version="1.1" id="svg8093" xmlns="http://www.w3.org/2000/svg" x="0" y="0" viewBox="0 0 127.6 131.9" style="enable-background:new 0 0 127.6 131.9" xml:space="preserve"><style>.st1{fill:url(#path8015_00000178913856439325298720000000065925670855841935_)}.st2{fill:url(#path8025_00000082346669823236203380000012540633023047059602_)}</style><path id="path8005" d="M126 62.3 69.3 5.5 63.8 0 1.5 62.3c-2 2-2 5.3 0 7.4l39 39 23.2 23.2L126 69.6c2.1-2 2.1-5.3 0-7.3zM63.8 85.4 44.3 65.9l19.5-19.5 19.5 19.5-19.5 19.5z" style="fill:#2684ff"/><linearGradient id="path8015_00000026141919850507607310000016682115618413302409_" gradientUnits="userSpaceOnUse" x1="179.717" y1="114.029" x2="166.891" y2="101.207" gradientTransform="matrix(1.7409 0 0 -1.7409 -257.47 230.127)"><stop offset="0" style="stop-color:#0052cc"/><stop offset="1" style="stop-color:#2684ff"/></linearGradient><path id="path8015" style="fill:url(#path8015_00000026141919850507607310000016682115618413302409_)" d="M63.8 46.4C51 33.7 50.9 13 63.6.2L21 42.8 44.2 66l19.6-19.6z"/><linearGradient id="path8025_00000036934561169772103200000011440399126841297548_" gradientUnits="userSpaceOnUse" x1="189.484" y1="74.722" x2="202.284" y2="87.522" gradientTransform="matrix(1.7409 0 0 -1.7409 -257.47 230.127)"><stop offset="0" style="stop-color:#0052cc"/><stop offset="1" style="stop-color:#2684ff"/></linearGradient><path id="path8025" style="fill:url(#path8025_00000036934561169772103200000011440399126841297548_)" d="M83.3 65.9 63.8 85.4c6.2 6.2 9.6 14.5 9.6 23.2s-3.5 17.1-9.6 23.2L106.6 89c0 .1-23.3-23.1-23.3-23.1z"/></svg>