<svg version="1.1" id="Layer_1" xmlns="http://www.w3.org/2000/svg" xmlns:xlink="http://www.w3.org/1999/xlink" x="0px" y="0px"
         viewBox="0 0 117.19 117.51" style="enable-background:new 0 0 117.19 117.51;" xml:space="preserve">
<style type="text/css">
        .st0{fill:#316CE3;}
        .st1{fill:#FDFDFE;}
        .st2{fill:#FAFBFE;}
</style>
<g>
        <path class="st0" d="M58.15,117.44c-7.65,0-15.31-0.1-22.96,0.06c-2.43,0.05-3.97-0.75-5.4-2.68c-9.34-12.53-18.78-25-28.22-37.45
                c-1.26-1.66-1.9-3.11-1.37-5.41c3.61-15.53,7.05-31.09,10.37-46.68c0.49-2.29,1.66-3.39,3.56-4.32c13.56-6.69,27.1-13.42,40.6-20.2
                c1.78-0.89,3.24-1.05,5.1-0.13c14.44,7.16,28.91,14.26,43.41,21.27c2.2,1.06,3.05,2.53,3.56,4.88c3.24,15.1,6.61,30.17,10.12,45.21
                c0.55,2.34,0.35,3.99-1.16,5.91c-9.55,12.17-19.01,24.4-28.37,36.72c-1.57,2.06-3.13,2.97-5.77,2.91
                C73.79,117.32,65.97,117.44,58.15,117.44z"/>
        <path class="st1" d="M77.02,78.47c3.56,0,7.01-0.1,10.44,0.02c7.44,0.26,12.25,8.16,9.14,14.84c-0.49,1.06-1.27,1.52-2.35,1.38
                c-1.14-0.15-1.66-0.97-1.8-2.07c-0.37-2.88,1.01-6.41-1.88-8.41c-3.2-2.21-7.13-0.94-10.72-0.98c-12.32-0.14-24.64-0.02-36.96-0.06
                c-11.05-0.03-16.1-5.16-16.12-16.27c-0.01-5.66-0.09-11.32,0.02-16.98c0.21-11.59,8.03-19.27,19.63-19.37
                c4.66-0.04,9.32-0.07,13.98,0.01c9.98,0.17,17.83,6.64,18.72,16.51c0.72,7.92,0.36,15.96,0.11,23.94
                C79.19,73.4,77.89,75.73,77.02,78.47z"/>
        <path class="st0" d="M52.66,78.46c-3.99,0-7.99,0.12-11.97-0.03c-5.64-0.21-8.96-3.49-9.07-9.11c-0.14-6.81-0.16-13.63,0.01-20.45
                c0.19-7.61,5.72-13.22,13.24-13.46c5.48-0.18,10.98-0.17,16.46,0c7.53,0.23,13.1,5.81,13.3,13.4c0.18,6.81,0.15,13.63,0.01,20.45
                c-0.11,5.64-3.4,8.97-9.01,9.17C61.31,78.59,56.98,78.46,52.66,78.46z"/>
        <path class="st2" d="M49.58,61.36c0,2.16,0.04,4.32-0.01,6.48c-0.04,1.53-0.81,2.59-2.42,2.56c-1.36-0.03-2.18-1.08-2.19-2.31
                c-0.08-6.99-0.09-13.98-0.02-20.97c0.01-1.42,0.8-2.63,2.48-2.52c1.65,0.11,2.16,1.34,2.18,2.81c0.03,1.8,0.01,3.6,1.2,6.34
                c2.03-2.31,4.01-4.66,6.09-6.91c1.12-1.22,2.55-2.76,4.21-1.19c1.84,1.75,0.29,3.28-1.01,4.63c-0.12,0.12-0.24,0.23-0.36,0.35
                c-6.1,6.49-6.07,6.46,0.26,13.1c1.35,1.42,4.18,2.92,1.68,5.22c-2.07,1.9-3.61-0.45-4.9-1.83c-2.01-2.16-3.84-4.49-5.75-6.75
                C50.54,60.69,50.06,61.02,49.58,61.36z"/>
</g>
</svg>
