<svg version="1.1" id="Layer_1" xmlns="http://www.w3.org/2000/svg" x="0" y="0" viewBox="0 0 80 80" style="enable-background:new 0 0 80 80" xml:space="preserve"><style>.st1{fill:#fff}.st2{fill:#00a651}</style><path d="M80 73.8c0 1.6-.7 3.2-1.8 4.4-1.2 1.1-2.7 1.8-4.4 1.8H6.2c-1.6 0-3.2-.7-4.4-1.8C.7 77 0 75.5 0 73.8V6.2C0 4.5.7 3 1.8 1.8S4.5 0 6.2 0h67.7c1.6 0 3.2.7 4.4 1.8C79.3 3 80 4.5 80 6.2v67.6z" style="fill:#193d4b"/><path class="st1" d="M70 50.6c.1-3.4-3-4.1-4.8-3.8-3.5.6-3.2 3.8-3.2 3.8 0 3.2-.7 5.5-2.3 7-1.6 1.7-3.8 2.4-6.7 2.4-6.1 0-9-3.1-9-9.4 0 5.2-1.4 9-4 11.7l.6.6c3.1 2.7 7.2 3.9 12.4 3.9s9.4-1.3 12.4-3.9c3.1-2.6 4.6-6.7 4.6-12.3z"/><path class="st1" d="M53 69.7c-5.9 0-10.6-1.6-14.3-4.6-.3-.2-.5-.5-.8-.7l-2-2.1 2-2c2.1-2 3.2-5.3 3.2-9.7h5.6c0 4.8 1.7 6.6 6.3 6.6 2.1 0 3.7-.5 4.7-1.5s1.5-2.7 1.5-5c-.2-2.3 1.2-6 5.5-6.7.4-.1.8-.1 1.3-.1.9 0 1.9.2 2.8.5.9.3 1.7.9 2.4 1.5 1.1 1.1 1.7 2.6 1.7 4.2v.5c0 6.4-1.9 11.3-5.6 14.5-3.7 3-8.5 4.6-14.3 4.6zm-9.2-7.8c2.3 1.5 5.4 2.2 9.1 2.2 4.5 0 8.1-1.1 10.6-3.3 2.3-2 3.6-5.2 3.6-9.7v-.5c0-.2 0-.5-.1-.6-.2-.1-.4-.2-.7-.3-.2-.1-.5-.1-.7 0-.4.1-.8.1-.8.7v.3c0 3.9-1.1 7-3.2 9-2.1 2.1-5 3.2-8.6 3.2-3.4 0-6.2-1-8.2-2.7-.3.6-.7 1.1-1 1.7zM62 29.4c0-3.2-.7-5.5-2.3-7-1.6-1.7-3.8-2.4-6.7-2.4-6 0-9 3.1-9 9.3 0-5.2-1.3-9-3.9-11.7.2-.2.4-.3.5-.5 3.1-2.7 7.2-3.9 12.4-3.9s9.4 1.3 12.4 3.9c3.1 2.7 4.7 6.7 4.7 12.3.1.9-.2 1.9-.8 2.6-.6.7-1.5 1.2-2.4 1.3-1.9.3-5-.5-4.9-3.9z"/><path class="st1" d="M66.1 36.2c-.9 0-1.9-.2-2.8-.5-.9-.3-1.7-.9-2.4-1.5-.8-.8-1.8-2.3-1.7-4.8 0-2.2-.5-3.9-1.5-5-1.1-1.1-2.6-1.5-4.7-1.5-4.5 0-6.4 1.8-6.4 6.5h-5.5c0-4.4-1.1-7.7-3.2-9.7l-2-2.1 2-2c.2-.2.5-.5.7-.6 3.6-3.1 8.4-4.6 14.3-4.6S63.5 12 67.2 15c3.7 3.2 5.6 8 5.6 14.4.2 2.3-1.2 6-5.5 6.7-.4 0-.8 0-1.2.1zM53 17.2c3.6 0 6.6 1.1 8.6 3.2 2.1 2.1 3.2 5.1 3.2 9 0 .3 0 .5.1.7.2.1.4.2.7.3.2.1.5.1.7 0 .3 0 1-.1.8-.8v-.3c0-4.8-1.2-8.1-3.6-10.2-2.6-2.1-6.2-3.3-10.6-3.3-3.6 0-6.7.7-9 2.1.3.5.6 1.1 1 1.7 1.9-1.5 4.7-2.4 8.1-2.4z"/><path class="st2" d="M33.6 57.6c-1.6 1.6-3.8 2.3-6.7 2.3-6.1 0-9-3.1-9-9.4V29.4c0-6.3 3-9.4 9-9.4 2.9 0 5.1.7 6.7 2.3 1.6 1.6 2.3 3.9 2.3 7 0-5.2 1.4-9 4-11.7l-.5-.6c-3.1-2.7-7.2-3.9-12.4-3.9s-9.4 1.3-12.4 3.9S10 23.7 10 29.3v21.2c0 5.6 1.5 9.7 4.6 12.3s7.2 3.9 12.4 3.9 9.4-1.3 12.4-3.9c.2-.2.4-.3.5-.5-2.7-2.7-3.9-6.5-3.9-11.7 0 3.1-.9 5.5-2.4 7z"/><path class="st2" d="M26.8 69.6C21 69.6 16.2 68 12.6 65 8.8 61.8 7 57 7 50.5V29.4c0-6.4 1.9-11.3 5.5-14.5 3.6-3.1 8.4-4.6 14.3-4.6 5.8 0 10.6 1.6 14.3 4.6.3.2.5.5.8.7l1.7 2.1-1.7 1.9c-2.1 2-3.2 5.3-3.2 9.7h-5.6c0-2.3-.5-4-1.5-5.1-1.1-1.1-2.6-1.5-4.7-1.5-4.5 0-6.3 1.8-6.3 6.6v21.2c0 4.8 1.7 6.6 6.3 6.6 2.1 0 3.7-.5 4.7-1.5s1.5-2.7 1.5-5h5.6c0 4.4 1.1 7.7 3.1 9.7l2 2-2 2c-.2.2-.5.5-.7.6-3.5 3.1-8.3 4.7-14.3 4.7zm0-53.7c-4.5 0-8.1 1.1-10.6 3.3-2.4 2.1-3.6 5.4-3.6 10.2v21.2c0 4.8 1.2 8.1 3.6 10.2 2.6 2.1 6.1 3.3 10.6 3.3 3.6 0 6.7-.7 9-2.1-.3-.5-.6-1.2-1-1.7-2 1.7-4.8 2.7-8.1 2.7-7.6 0-11.8-4.5-11.8-12.2V29.4c0-7.8 4.4-12.2 11.8-12.2 3.4 0 6.1.8 8.2 2.7.3-.6.6-1.2 1-1.7-2.3-1.6-5.4-2.3-9.1-2.3z"/><path class="st2" d="M36 29.4v21.3c0 5.2 1.3 9 3.9 11.7 2.7-2.7 4-6.5 4-11.7V29.3c0-5.2-1.3-9-3.9-11.7-2.8 2.6-4 6.5-4 11.8z"/><path class="st2" d="m39.8 65.9-1.9-1.5c-3.2-3.2-4.8-7.8-4.8-13.7V29.4c0-6 1.7-10.5 4.9-13.7l1.6-1.6 2.3 1.6c3.2 3.2 4.8 7.8 4.8 13.7v21.3c0 6-1.7 10.5-4.9 13.7l-2 1.5zm.1-43.3c-.8 2.2-1.2 4.5-1.2 6.8v21.2c-.1 2.3.3 4.6 1.2 6.8.8-1.8 1.2-4.1 1.2-6.8V29.4c.1-2.4-.3-4.7-1.2-6.8z"/><path class="st2" d="M36 51.3s-.3 6.5 3.9 11.1c1.7 1.9 4.3 3.4 7.9 4 2.8.5 4.8-4.8 1.9-6.7-.3-.1-5.7-1.9-5.7-9l-8 .6z"/><path class="st2" d="M48.1 69.1c-.3 0-.6 0-.8-.1-3.9-.7-7-2.3-9.4-4.9-5-5.3-4.7-12.8-4.7-13.1l.1-2.4 13.2-1.1.3 3.1c-.1 4.9 3.3 6.2 3.7 6.3l.5.1.3.2c1.1.8 1.9 2 2.3 3.3.4 1.3.4 2.7-.1 4-.8 2.8-3.1 4.6-5.4 4.6zm-9.2-15.3c.3 1.9 1.1 4.6 3 6.6 1.5 1.6 3.4 2.6 6 3.1.2-.3.3-.7.3-1.1 0-.1 0-.3-.1-.3-1.7-.7-3.3-1.9-4.4-3.4-1.2-1.5-2-3.2-2.4-5l-2.4.1z"/></svg>