<svg version="1.1" id="Layer_1" xmlns="http://www.w3.org/2000/svg" xmlns:xlink="http://www.w3.org/1999/xlink" x="0px" y="0px"
	 viewBox="0 0 223.1 211.7" style="enable-background:new 0 0 223.1 211.7;" xml:space="preserve">
<style type="text/css">
	.st0{display:none;fill:#FF00FF;}
	.st1{opacity:0.8;fill:#FFFFFF;}
	.st2{fill:#FFFFFF;}
	.st3{display:none;fill:#263D5C;}
</style>
<rect x="-86.3" y="-81.9" class="st0" width="375.3" height="38"/>
<rect x="178.9" y="79.1" transform="matrix(-1.836970e-16 1 -1 -1.836970e-16 368.0815 -171.9324)" class="st0" width="182.1" height="38"/>
<rect x="-202.8" y="79.1" transform="matrix(-1.836970e-16 1 -1 -1.836970e-16 30.8047 165.3444)" class="st0" width="271.1" height="38"/>
<rect x="10.3" y="240" transform="matrix(-1 -1.224647e-16 1.224647e-16 -1 202.7372 518.1167)" class="st0" width="182.1" height="38"/>
<g>
	<g>
		<g>
			<rect x="158.5" y="26.3" class="st1" width="32.3" height="32.3"/>
			<rect x="201.5" y="26.3" class="st1" width="21.6" height="20"/>
			<rect x="181.1" class="st1" width="19.3" height="16.3"/>
			<rect x="210.8" y="3.3" class="st1" width="12.3" height="11"/>
			<path class="st2" d="M1.6,43.7c33.8,1.7,62.2-9.5,86-34.2c21.2,25.9,49.9,35.7,82.8,34.1c0.4,6.1,1.1,16.5,1.1,22.3
				c0.1,11.6,0.2,18.7-0.4,30.3c-1,18.5-3.6,36.8-11.1,54c-5.9,13.7-14.9,25.1-26.1,34.9c-13.8,12.2-29.9,20.3-47.1,26.4
				c-0.5,0.2-1.2,0.2-1.7,0c-15.5-5.6-30.1-13-42.9-23.5c-19.8-16.2-32.4-36.8-37.4-62c-2.7-13.6-4-27.2-4.5-41
				c-0.5-13.6,0-27.2,1.3-40.7C1.5,44.2,1.5,44.3,1.6,43.7z M20.8,64.1c0,6.4,0,12.6,0,18.8c0.1,12.5,1.3,24.9,3.6,37.3
				c2.5,13.3,7.2,25.7,15.5,36.5c11.8,15.3,27.2,25.7,45,32.9c0.7,0.3,1.7,0.1,2.4-0.2c5.8-2.8,11.7-5.4,17.3-8.6
				c20.6-11.9,35-28.8,40.9-52.3c4.4-17.7,5.5-35.7,5.5-53.8c0-3.5,0-6.9,0-10.4c-24.1-2.3-45.1-10.9-63.6-25.9
				C67.6,52.9,45.6,61.8,20.8,64.1z"/>
			<path class="st1" d="M87.5,68.7c7.4,9.2,14.7,18.3,22,27.4c7,8.8,14.1,17.5,21.1,26.3c0.5,0.6,0.8,1.6,0.6,2.3
				c-1.1,5.5-5.2,13.8-9,18.6c-11.6-14.4-23.1-28.7-34.7-43.2c-11.5,14.4-23,28.6-34.6,43.1c-3.6-5.2-6.2-10.8-8.5-16.5
				c-1.2-3-0.1-4.7,1.5-6.7c5.1-6.2,10.2-12.4,15.2-18.6c8.6-10.7,17.1-21.4,25.7-32C86.9,69.2,87.2,69.1,87.5,68.7z"/>
		</g>
	</g>
</g>
<rect x="74.8" y="208.7" class="st3" width="65.9" height="69.4"/>
<rect x="145.9" y="-72.4" class="st3" width="65.9" height="69.4"/>
<rect x="-78.6" y="70.9" class="st3" width="65.9" height="69.4"/>
<rect x="217.9" y="70.9" class="st3" width="65.9" height="69.4"/>
</svg>