<svg id="Layer_1" data-name="Layer 1" xmlns="http://www.w3.org/2000/svg" viewBox="0 0 1090 1090"><defs><style>.cls-1{fill:#fff;}</style></defs><path class="cls-1" d="M545,4.24072C246.76624,4.24072,5,246.007,5,544.24078s241.76624,539.99994,540,539.99994,540-241.76617,540-539.99994S843.23376,4.24072,545,4.24072ZM828.7868,548.70551a35.5147,35.5147,0,0,1-36.725-34.26154q-.05768-1.66361.04053-3.32721c.41034-5.814,2.78051-11.49017,4.734-19.10925-4.02172-3.85431-8.90136-9.41455-14.64245-13.86817-17.55078-13.61474-36.19916-25.56622-56.61768-34.52209a23.2872,23.2872,0,0,0-8.51092-1.845c-24.49866-.68006-48.1142,2.77368-69.82471,15.13116-3.51959,2.00336-6.15424,4.221-6.367,8.49542-.20734,4.16657-.61866,8.33088-.63752,12.49744-.06262,13.79987-.08282,27.60175.10236,41.39984.04382,3.26434-1.27771,4.65283-4.25775,4.8255-3.481.20166-6.97028.41986-10.45386.38855q-42.72573-.38424-85.45068-.85406c-6.26361-.05976-7.68366,1.23932-7.88971,7.4339-.75977,22.84515-1.92932,45.68994-2.05811,68.53985-.2395,42.5083.03845,85.02069.30475,127.53.17182,27.43286,4.29657,54.29767,13.45557,80.21887,6.2691,17.74243,17.53119,32.04755,34.48071,40.23273,9.68146,4.67535,20.823,6.69165,31.522,8.83746,20.98334,4.20856,41.64148-.36023,62.26606-3.69037,6.9259-1.11834,13.73968-2.9292,20.99115-4.50763-.325,3.31586-.73011,7.24262-1.09217,11.17334-2.696,29.27228-5.43823,58.54047-8.001,87.82441-.3039,3.473-1.93763,5.22827-4.897,6.42334a195.81217,195.81217,0,0,1-43.81134,12.06066c-21.9956,3.37623-44.05121,5.43134-66.31427,4.51178a251.52649,251.52649,0,0,1-72.95-13.54571c-27.97687-9.76056-49.721-27.37653-67.00507-51.20367-13.84729-19.08942-20.216-41.03083-26.04589-63.2851-5.85645-22.35584-7.29541-45.30316-9.31055-68.20227-3.4903-39.66126-2.39337-79.39441-2.3678-119.1048.02582-40.138.61981-80.27569,1.00659-120.41321.09656-10.02142.17011-10.00207-9.68847-9.9953q-30.16242.02088-60.32471.00208c-6.23871-.00324-7.09473-.56781-7.17792-6.88245-.145-11.00628.37726-22.02453.10846-33.02533-.37756-15.45178-.84228-30.92285-2.08923-46.31958-.39588-4.88769-2.62171-10.07794-5.35565-14.25122-14.24457-21.74383-33.45679-37.78308-58.10682-46.3797a82.67847,82.67847,0,0,0-47.42718-2.327c-29.24085,7.09973-47.742,26.20239-59.72363,52.72235-.79792,1.766-1.56537,3.54565-2.42707,5.50067,6.90241,5.497,11.68641,12.275,13.34711,21.04614,3.36285,17.76142-7.95068,35.16425-25.38574,38.93018-17.97711,3.883-35.67621-6.94635-39.96991-24.45606C83.8609,451.19885,94.53,432.96558,112.349,428.68079c3.69879-.88947,4.56006-2.61707,5.08862-5.73969,3.04889-18.01123,6.82367-35.81506,15.088-52.34723,14.31653-28.63867,35.7674-49.44861,65.47785-62.2312a168.11663,168.11663,0,0,1,63.79431-13.55633c12.10785-.23584,24.2829,2.64428,36.41809,4.19372,29.33246,3.7453,52.11878,19.785,73.33283,38.8562,11.90808,10.7052,24.01068,21.19458,36.76715,32.43463,1.566-3.5086,2.88525-5.9563,3.78112-8.5498,9.31958-26.97827,22.598-52.03442,37.25013-76.40924,21.48376-35.73956,51.53528-62.95069,87.14154-83.778,20.19037-11.81012,42.69934-18.8388,65.258-25.39758a501.64732,501.64732,0,0,1,95.14777-18.30646c22.2774-2.00305,44.86578-.55932,67.31525-.65124a6.075,6.075,0,0,1,1.25177.08917c4.83136,1.00263,7.50109-.49127,9.77581-5.41009,7.32764-15.8454,24.72821-23.94092,42.20874-20.49884,16.47968,3.245,29.42951,18.09454,30.48615,34.95825a38.51232,38.51232,0,0,1-25.76746,38.94128,38.04829,38.04829,0,0,1-44.30957-14.55c-2.28131-3.43066-4.11084-4.32275-8.2771-3.52038-29.84668,5.74756-58.80316,14.25946-86.02276,27.85974-21.27655,10.63086-40.90668,24.15332-55.43085,43.03131-10.87634,14.13672-19.845,29.94549-28.13049,45.80762-10.95533,20.97345-20.05085,42.859-24.43207,66.35247a38.009,38.009,0,0,0-.71942,5.369c-.11939,2.90058-.03211,5.80957-.03211,9.44171,8.13874-1.36248,15.78534-2.56176,23.40113-3.932,28.07818-5.05194,56.37048-8.77478,84.89752-7.8498,29.85418.968,55.85547,12.29651,76.71649,33.945,11.39282,11.82288,22.31091,24.13831,32.87042,36.711,6.15643,7.33014,11.191,15.60052,16.70795,23.46362.87829,1.25165,1.65448,2.57617,2.45032,3.88379,3.0169,4.95673,6.13,7.56213,13.21032,6.749,21.784-2.50158,37.44263,15.6366,37.98389,33.94025A35.5147,35.5147,0,0,1,828.7868,548.70551Z"/></svg>
