<svg width="364" height="364" viewBox="0 0 364 364" fill="none" xmlns="http://www.w3.org/2000/svg">
<path d="M172.217 137.372V127.917L141.367 97.7303V95.6063C141.365 94.835 141.058 94.0959 140.512 93.5505C139.967 93.0051 139.228 92.6977 138.456 92.6953C137.685 92.6974 136.946 93.0048 136.4 93.5502C135.854 94.0956 135.547 94.8348 135.544 95.6063V97.7303L104.693 127.917V137.372H110.248V170.264H104.693V186.382H113.513L111.475 209.412L168.675 234.619L164.731 186.382H172.217V170.264H166.663V137.372H172.217ZM157.732 170.264H148.582V156.214C148.582 150.644 144.027 146.085 138.456 146.085C132.885 146.085 128.327 150.643 128.327 156.215V170.264H119.177V137.372H157.732V170.264ZM108.125 247.269L172.013 275.425L171.054 263.7L109.086 236.395L108.125 247.269ZM107.413 255.325L106.45 266.198L173.68 295.826L172.724 284.106L107.413 255.325ZM110.763 217.466L109.8 228.343L170.344 255.02L169.386 243.299L110.763 217.466Z" fill="white"/>
<path d="M352.323 173.6L328.329 171.878L321.144 171.362L173.679 160.779L318.349 210.97L320.447 211.698C306.368 275.172 249.662 322.798 182.011 322.798C179.954 322.798 177.91 322.744 175.874 322.657L174.39 304.51L105.736 274.257L103.542 299.052C65.3793 273.608 40.1823 230.18 40.1823 180.973C40.1823 102.771 103.808 39.1488 182.012 39.1488C209.478 39.1488 235.118 47.0358 256.862 60.6118L256.019 61.4888L173.679 147.121L287.059 88.4438C293.401 95.7978 299.039 103.767 303.786 112.312C303.882 112.484 303.964 112.666 304.06 112.842L175.912 154.022L317.892 149.188C319.563 156.481 320.65 163.896 321.144 171.362L328.329 171.877L352.323 173.599C351.92 165.039 350.871 156.522 349.185 148.121C346.059 132.55 340.758 117.496 333.439 103.401C328.082 93.0837 321.688 83.3388 314.357 74.3168C303.939 61.4892 291.728 50.2286 278.099 40.8818C277.644 40.5698 277.189 40.2558 276.731 39.9488C249.568 21.7068 216.904 11.0508 181.797 11.0508C87.6573 11.0508 11.0703 87.6378 11.0703 181.777C11.0703 275.916 87.6573 352.504 181.797 352.504C262.36 352.504 330.061 296.409 347.913 221.228C347.971 220.986 348.034 220.747 348.091 220.504C351.663 205.14 353.087 189.355 352.323 173.6Z" fill="white"/>
<path d="M181.798 7.04688C85.4533 7.04688 7.07031 85.4279 7.07031 181.773C7.07031 278.118 85.4523 356.5 181.797 356.5C278.142 356.5 356.523 278.118 356.523 181.773C356.523 85.4279 278.142 7.04688 181.798 7.04688ZM347.914 221.224C330.062 296.405 262.361 352.5 181.798 352.5C87.6583 352.5 11.0713 275.912 11.0713 181.773C11.0713 87.6339 87.6583 11.0469 181.798 11.0469C216.905 11.0469 249.568 21.7029 276.732 39.9449C277.19 40.2519 277.645 40.5649 278.1 40.8779C291.729 50.2253 303.94 61.4866 314.358 74.3149C321.689 83.3366 328.083 93.0811 333.44 103.398C340.759 117.493 346.06 132.548 349.186 148.119C350.872 156.521 351.921 165.037 352.324 173.597C353.088 189.352 351.664 205.136 348.091 220.5C348.035 220.743 347.971 220.982 347.914 221.224Z" fill="white"/>
</svg>
