<svg width="40" height="40" viewBox="0 0 40 40" fill="none" xmlns="http://www.w3.org/2000/svg">
<g clip-path="url(#clip0_23296_3698)">
<path d="M40 0H0V40H40V0Z" fill="#7AA116" fill-opacity="0.12"/>
<path fill-rule="evenodd" clip-rule="evenodd" d="M30.5 31.9623C29.673 31.9623 29 31.2766 29 30.434C29 29.5914 29.673 28.9057 30.5 28.9057C31.327 28.9057 32 29.5914 32 30.434C32 31.2766 31.327 31.9623 30.5 31.9623ZM13.994 24.8302C12.401 24.8292 11.088 23.6483 11.004 22.1394C11 22.0711 10.998 22.0018 10.998 21.9305C10.998 19.9732 12.393 19.3303 13.224 19.1215C13.469 19.0593 13.631 18.8209 13.6 18.5652C13.579 18.392 13.567 18.2157 13.567 18.0364C13.567 16.451 14.682 14.7434 16.104 14.1504C16.75 13.8804 17.347 13.7734 17.887 13.7734C19.422 13.7734 20.505 14.6385 20.979 15.1061C21.498 15.6196 21.904 16.2768 22.185 17.0593C22.247 17.2335 22.398 17.3598 22.579 17.3874C22.76 17.4159 22.94 17.3415 23.052 17.1938C23.444 16.6691 24.079 16.449 24.671 16.6324C25.377 16.8525 25.817 17.5677 25.878 18.5957C25.892 18.827 26.056 19.0196 26.278 19.0654C28.056 19.4302 28.957 20.4042 28.957 21.959C28.957 24.551 26.82 24.8302 25.902 24.8302H13.994ZM9 10.0566C9 9.214 9.673 8.5283 10.5 8.5283C11.327 8.5283 12 9.214 12 10.0566C12 10.8992 11.327 11.5849 10.5 11.5849C9.673 11.5849 9 10.8992 9 10.0566ZM21 31.4528C21 32.2954 20.327 32.9811 19.5 32.9811C18.673 32.9811 18 32.2954 18 31.4528C18 30.6102 18.673 29.9245 19.5 29.9245C20.327 29.9245 21 30.6102 21 31.4528ZM9.5 30.9434C8.673 30.9434 8 30.2577 8 29.4151C8 28.5725 8.673 27.8868 9.5 27.8868C10.327 27.8868 11 28.5725 11 29.4151C11 30.2577 10.327 30.9434 9.5 30.9434ZM28.479 8.01887C29.306 8.01887 29.979 8.70457 29.979 9.54717C29.979 10.3898 29.306 11.0755 28.479 11.0755C27.651 11.0755 26.979 10.3898 26.979 9.54717C26.979 8.70457 27.651 8.01887 28.479 8.01887ZM30.5 27.8868C30.326 27.8868 30.157 27.9051 29.993 27.9398L28.211 25.2693C29.217 24.6937 29.957 23.6565 29.957 21.959C29.957 20.0232 28.854 18.6813 26.838 18.1505C26.694 17.1459 26.22 16.3736 25.522 15.9365L28.09 12.0546C28.217 12.075 28.346 12.0943 28.479 12.0943C29.857 12.0943 30.979 10.9512 30.979 9.54717C30.979 8.14317 29.857 7 28.479 7C27.1 7 25.979 8.14317 25.979 9.54717C25.979 10.4438 26.438 11.2303 27.128 11.6848L24.551 15.5809C23.942 15.5035 23.334 15.6502 22.831 16.0098C22.526 15.3822 22.139 14.8331 21.675 14.3746C20.048 12.7668 17.823 12.3328 15.726 13.2069C15.175 13.4362 14.675 13.7999 14.232 14.238L12.332 11.7765C12.743 11.322 13 10.7209 13 10.0566C13 8.6526 11.879 7.50943 10.5 7.50943C9.121 7.50943 8 8.6526 8 10.0566C8 11.4606 9.121 12.6038 10.5 12.6038C10.865 12.6038 11.211 12.5192 11.523 12.3745L13.568 15.0236C12.949 15.9151 12.567 16.9829 12.567 18.0364C12.567 18.1097 12.569 18.1821 12.572 18.2544C10.951 18.8209 9.998 20.1678 9.998 21.9305C9.998 22.0232 10 22.1149 10.006 22.2005C10.087 23.6575 11.007 24.8781 12.294 25.467L10.845 27.2745C10.456 27.0197 9.996 26.8679 9.5 26.8679C8.121 26.8679 7 28.0111 7 29.4151C7 30.8191 8.121 31.9623 9.5 31.9623C10.879 31.9623 12 30.8191 12 29.4151C12 28.8853 11.84 28.3932 11.567 27.9856L13.33 25.7859C13.547 25.8215 13.767 25.8491 13.993 25.8491H20.087L19.355 28.9209C18.045 28.9984 17 30.0988 17 31.4528C17 32.8568 18.121 34 19.5 34C20.879 34 22 32.8568 22 31.4528C22 30.3535 21.31 29.4243 20.351 29.0677L21.116 25.8491H25.902C26.359 25.8491 26.823 25.7869 27.268 25.6646L29.063 28.3565C28.422 28.818 28 29.5751 28 30.434C28 31.838 29.121 32.9811 30.5 32.9811C31.879 32.9811 33 31.838 33 30.434C33 29.03 31.879 27.8868 30.5 27.8868Z" fill="#7AA116"/>
</g>
<rect x="0.5" y="0.5" width="39" height="39" stroke="#7AA116"/>
<defs>
<clipPath id="clip0_23296_3698">
<rect width="40" height="40" fill="white"/>
</clipPath>
</defs>
</svg>
