<svg width="360" height="334" viewBox="0 0 360 334" fill="none" xmlns="http://www.w3.org/2000/svg">
<path d="M90.9645 170.813C98.5922 152.686 102.475 134.037 105.971 115.32C111.931 83.4102 115.961 51.2881 114.607 18.7257C114.35 12.5383 116.092 10.2381 122.756 10.8675C140.801 12.5717 158.694 14.634 174.915 23.5203C179.21 25.8727 182.978 24.6098 187.084 23.4522C218.132 14.6978 249.616 8.76076 282.052 9.42766C303.366 9.86586 324.036 13.3066 343.696 22.1304C350.123 25.0152 352.504 29.1168 351.912 35.9404C350.319 54.3013 342.979 70.7579 335.357 87.1208C333.273 91.5939 330.243 89.0214 327.672 87.3977C301.802 71.0588 274.021 58.697 245.408 48.1425C225.099 40.651 204.561 33.8328 182.35 30.4296C189.204 37.2114 195.814 44.2622 202.954 50.7287C234.564 79.3587 267.506 106.223 305.578 126.046C309.779 128.233 310.797 130.476 307.915 134.568C297.332 149.598 286.505 164.442 270.625 174.392C265.902 177.351 264.772 181.56 263.602 186.234C254.498 222.593 241.27 257.19 219.577 288.099C210.617 301.136 199.532 312.577 186.783 321.944C180.981 326.142 175.814 326.636 169.933 322.216C155.742 311.55 145.072 297.815 135.181 283.339C132.462 279.361 134.392 277.183 137.889 275.384C166.401 260.719 191.734 241.464 216.153 220.93C231.176 208.506 245.38 195.125 258.678 180.87C255.874 178.199 253.47 180.165 251.373 180.724C204.321 193.269 159 210.113 117.332 235.735C111.637 239.237 108.608 238.801 105.832 232.396C98.7394 216.032 92.1648 199.528 91.0579 181.526C90.6952 175.628 87.0896 172.451 83.4953 168.958C57.844 144.031 35.5343 116.583 20.0104 84.114C12.428 68.255 6.8889 51.8001 6.2106 33.9338C5.9416 26.8477 8.81428 22.8945 15.2121 20.5889C30.0664 15.2098 45.6044 11.9498 61.3681 10.9048C67.6882 10.4831 69.2412 12.7091 69.0758 18.4114C67.9073 58.692 74.065 98.1664 82.6522 137.334C85.1137 148.562 88.1771 159.657 90.9645 170.813ZM179.413 39.508C169.096 92.9616 136.677 132.904 100.132 170.528C150.024 150.157 199.76 159.292 249.957 169.207C211.444 133.76 193.989 87.7136 179.413 39.508Z" fill="url(#paint0_linear_27200_10226)"/>
<defs>
<linearGradient id="paint0_linear_27200_10226" x1="352" y1="22" x2="-45.5" y2="167" gradientUnits="userSpaceOnUse">
<stop stop-color="#702CEF"/>
<stop offset="1" stop-color="#E0C3D4"/>
</linearGradient>
</defs>
</svg>