<svg width="40" height="40"  viewBox="0 0 40 40" xmlns="http://www.w3.org/2000/svg">  <g id="Icon-Architecture/32/Arch_Amazon-Managed-Service-for-Apache-Flink_32" stroke="none" stroke-width="1" fill="none" fill-rule="evenodd">  <g id="Icon-Service/32/Amazon-Managed-Service-for-Apache-Flink_32" transform="translate(7.100000, 7.000000)" fill="#FFFFFF"> <path d="M15.258,7.498 C15.258,8.794 14.203,9.849 12.907,9.849 C11.611,9.849 10.556,8.794 10.556,7.498 C10.556,6.202 11.611,5.147 12.907,5.147 C14.203,5.147 15.258,6.202 15.258,7.498 L15.258,7.498 Z M16.258,7.498 C16.258,5.65 14.755,4.147 12.907,4.147 C11.06,4.147 9.556,5.65 9.556,7.498 C9.556,9.346 11.06,10.849 12.907,10.849 C14.755,10.849 16.258,9.346 16.258,7.498 L16.258,7.498 Z M12.081,13.366 C12.095,13.122 11.931,12.904 11.693,12.85 C11.086,12.713 10.511,12.474 9.982,12.14 C9.777,12.01 9.505,12.048 9.342,12.23 L8.922,12.702 L7.703,11.483 L8.175,11.063 C8.358,10.9 8.396,10.63 8.265,10.423 C7.932,9.895 7.694,9.32 7.558,8.713 C7.504,8.475 7.314,8.314 7.041,8.324 L6.409,8.359 L6.409,6.637 L7.043,6.673 C7.289,6.686 7.505,6.523 7.559,6.285 C7.696,5.678 7.936,5.103 8.269,4.577 C8.4,4.371 8.362,4.1 8.179,3.937 L7.703,3.513 L8.922,2.295 L9.345,2.769 C9.507,2.952 9.779,2.989 9.985,2.859 C10.512,2.527 11.086,2.29 11.693,2.152 C11.931,2.098 12.095,1.88 12.081,1.636 L12.045,1 L13.769,1 L13.733,1.637 C13.719,1.881 13.883,2.1 14.121,2.153 C14.727,2.29 15.301,2.528 15.828,2.86 C16.034,2.99 16.307,2.953 16.468,2.77 L16.892,2.295 L18.111,3.513 L17.637,3.935 C17.454,4.098 17.416,4.369 17.547,4.576 C17.88,5.102 18.118,5.677 18.256,6.284 C18.31,6.522 18.503,6.693 18.772,6.673 L19.404,6.637 L19.404,8.359 L18.772,8.324 C18.493,8.304 18.309,8.475 18.256,8.713 C18.119,9.318 17.881,9.894 17.548,10.422 C17.418,10.629 17.456,10.899 17.638,11.062 L18.111,11.483 L16.892,12.702 L16.473,12.231 C16.311,12.049 16.038,12.01 15.833,12.141 C15.305,12.475 14.729,12.713 14.121,12.85 C13.883,12.904 13.718,13.123 13.733,13.367 L13.769,13.996 L12.045,13.996 L12.081,13.366 Z M14.661,14.839 C14.756,14.739 14.805,14.604 14.797,14.467 L14.754,13.718 C15.186,13.59 15.603,13.418 15.999,13.203 L16.498,13.762 C16.589,13.865 16.719,13.925 16.857,13.93 C17.004,13.931 17.128,13.881 17.225,13.783 L19.192,11.816 C19.289,11.719 19.342,11.586 19.338,11.449 C19.334,11.311 19.274,11.182 19.171,11.09 L18.609,10.588 C18.824,10.192 18.996,9.776 19.123,9.345 L19.876,9.388 C20.02,9.395 20.148,9.347 20.248,9.252 C20.348,9.158 20.404,9.026 20.404,8.889 L20.404,6.107 C20.404,5.97 20.348,5.838 20.248,5.744 C20.148,5.65 20.02,5.602 19.876,5.608 L19.123,5.651 C18.995,5.22 18.823,4.805 18.609,4.409 L19.171,3.907 C19.274,3.815 19.334,3.685 19.338,3.548 C19.342,3.41 19.289,3.277 19.192,3.18 L17.225,1.213 C17.127,1.116 17,1.067 16.857,1.067 C16.72,1.071 16.59,1.131 16.498,1.234 L15.994,1.799 C15.599,1.585 15.184,1.413 14.754,1.285 L14.797,0.529 C14.805,0.392 14.756,0.257 14.661,0.157 C14.567,0.057 14.436,1.77635684e-15 14.298,1.77635684e-15 L11.516,1.77635684e-15 C11.378,1.77635684e-15 11.247,0.057 11.153,0.157 C11.058,0.257 11.009,0.392 11.017,0.529 L11.06,1.284 C10.629,1.412 10.214,1.584 9.819,1.798 L9.316,1.234 C9.224,1.131 9.094,1.071 8.957,1.067 C8.825,1.071 8.687,1.117 8.589,1.213 L6.622,3.18 C6.525,3.277 6.472,3.411 6.476,3.548 C6.48,3.685 6.54,3.815 6.643,3.907 L7.207,4.41 C6.992,4.806 6.82,5.221 6.692,5.651 L5.938,5.608 C5.808,5.602 5.666,5.65 5.566,5.744 C5.466,5.838 5.409,5.97 5.409,6.107 L5.409,8.889 C5.409,9.026 5.466,9.158 5.566,9.252 C5.666,9.347 5.808,9.395 5.938,9.388 L6.689,9.345 C6.817,9.777 6.988,10.193 7.203,10.589 L6.643,11.09 C6.54,11.182 6.48,11.311 6.476,11.449 C6.472,11.586 6.525,11.719 6.622,11.816 L8.589,13.783 C8.687,13.881 8.821,13.928 8.957,13.93 C9.095,13.925 9.224,13.865 9.316,13.762 L9.816,13.202 C10.212,13.417 10.628,13.589 11.06,13.717 L11.017,14.467 C11.009,14.604 11.058,14.739 11.153,14.839 C11.246,14.939 11.378,14.996 11.516,14.996 L14.298,14.996 C14.436,14.996 14.568,14.939 14.661,14.839 L14.661,14.839 Z M15.278,18.271 L15.947,17.692 C16.923,16.839 18.633,16.839 19.609,17.694 L20.276,18.269 C21.622,19.451 23.903,19.45 25.249,18.271 L25.583,17.982 L24.929,17.227 L24.593,17.517 C23.617,18.37 21.907,18.37 20.932,17.515 L20.265,16.939 C18.918,15.758 16.638,15.759 15.291,16.937 L14.621,17.518 C13.647,18.37 11.937,18.371 10.96,17.516 L10.294,16.939 C8.945,15.76 6.665,15.759 5.32,16.937 L4.65,17.518 C3.675,18.37 1.965,18.371 0.988,17.516 L0.654,17.227 L1.77635684e-15,17.982 L0.332,18.269 C1.682,19.451 3.96,19.45 5.306,18.271 L5.976,17.692 C6.951,16.839 8.662,16.839 9.638,17.693 L10.304,18.269 C10.979,18.86 11.886,19.156 12.792,19.155 C13.698,19.155 14.605,18.861 15.278,18.271 L15.278,18.271 Z M15.278,24.594 L15.947,24.014 C16.923,23.16 18.633,23.162 19.609,24.015 L20.276,24.592 C21.622,25.771 23.903,25.772 25.249,24.594 L25.583,24.304 L24.929,23.548 L24.593,23.839 C23.617,24.693 21.907,24.691 20.932,23.838 L20.265,23.261 C18.918,22.08 16.638,22.081 15.291,23.259 L14.621,23.839 C13.647,24.692 11.937,24.692 10.96,23.838 L10.294,23.261 C8.945,22.081 6.665,22.081 5.32,23.259 L4.65,23.839 C3.675,24.692 1.965,24.692 0.988,23.838 L0.654,23.548 L1.77635684e-15,24.304 L0.332,24.592 C1.682,25.772 3.96,25.771 5.306,24.594 L5.976,24.014 C6.951,23.16 8.662,23.162 9.638,24.015 L10.304,24.592 C10.979,25.182 11.886,25.477 12.792,25.477 C13.698,25.477 14.605,25.183 15.278,24.594 L15.278,24.594 Z M12.792,22.316 C11.886,22.317 10.979,22.021 10.304,21.431 L9.638,20.854 C8.662,20 6.951,20 5.976,20.853 L5.306,21.433 C3.96,22.611 1.682,22.612 0.332,21.431 L1.77635684e-15,21.144 L0.654,20.388 L0.988,20.677 C1.965,21.532 3.675,21.531 4.65,20.679 L5.32,20.099 C6.665,18.92 8.945,18.921 10.294,20.1 L10.96,20.677 C11.937,21.532 13.647,21.531 14.621,20.679 L15.291,20.099 C16.638,18.92 18.918,18.919 20.265,20.101 L20.932,20.676 C21.907,21.531 23.617,21.531 24.593,20.678 L24.929,20.388 L25.583,21.144 L25.249,21.433 C23.903,22.611 21.622,22.611 20.276,21.431 L19.609,20.855 C18.633,20 16.923,20 15.947,20.853 L15.278,21.433 C14.605,22.022 13.698,22.316 12.792,22.316 L12.792,22.316 Z" id="Fill-6"></path> </g> </g></svg>