<svg xmlns="http://www.w3.org/2000/svg" viewBox="0 0 239 272.87"><defs><style>.cls-1{fill:#fff;}</style></defs><g id="Layer_2" data-name="Layer 2"><g id="Layer_1-2" data-name="Layer 1"><path class="cls-1" d="M233.92,64.49,124.56,1.36a10.11,10.11,0,0,0-10.12,0L5.08,64.49A10.12,10.12,0,0,0,0,73.27V199.58a10.11,10.11,0,0,0,5.08,8.79L114.44,271.5a10.06,10.06,0,0,0,10.12,0l109.36-63.13a10.11,10.11,0,0,0,5.08-8.79V73.27A10.21,10.21,0,0,0,233.92,64.49Zm-205,48.57a4.77,4.77,0,0,1-.6-.76l-.06-.1a4.1,4.1,0,0,1-.23-.4,4.84,4.84,0,0,1-.21-.47l-.15-.43s0-.1,0-.16-.06-.24-.08-.36a5.28,5.28,0,0,1,0-2c0-.18.08-.35.13-.51a3.68,3.68,0,0,1,.18-.5,4.94,4.94,0,0,1,.3-.61l25-43s0,0,0,0a5.5,5.5,0,0,1,5.06-3.34H93.66a5.5,5.5,0,1,1,0,11H61l-21.6,37.23,18.53,19.5a5.31,5.31,0,1,1-7.69,7.31L29.06,113.2Zm67.7,61.74-14.9,25.66a5.27,5.27,0,0,1-4.6,2.65H34.88a5.5,5.5,0,1,1,0-11H74.31l13.13-22.65a5.31,5.31,0,0,1,9.19,5.34Zm6.89-57.13a19.94,19.94,0,0,1,5.06,8.72h51.34a5.5,5.5,0,1,1,0,11H108.51a20,20,0,0,1-5,8.51l-.09.09,26.76,46.12h70a5.45,5.45,0,0,1,5.24,3.69,5.52,5.52,0,0,1-5.21,7.31H127.54a0,0,0,0,1-.05,0h-.13a5.28,5.28,0,0,1-4.6-2.65l-28.55-49.2a19.73,19.73,0,0,1-5,.64,20.13,20.13,0,0,1,0-40.25,19.3,19.3,0,0,1,5,.65l28.55-49.2a5.23,5.23,0,0,1,3.58-2.55h.06a1.26,1.26,0,0,1,.28,0,4.83,4.83,0,0,1,.94-.1h72.53a5.5,5.5,0,1,1,0,11h-70l-26.8,46.18Z"/><path class="cls-1" d="M98.5,127.73l-.24-.55c-.09-.19-.18-.38-.28-.56s-.17-.3-.26-.44a9.48,9.48,0,0,0-1.34-1.74c-.07-.08-.15-.14-.23-.23a9.94,9.94,0,0,0-7-2.82H89a10,10,0,0,0,0,20h.23a10,10,0,0,0,8.53-4.78l.26-.44.14-.28c.09-.18.18-.35.26-.54s.22-.58.32-.86.12-.41.17-.61a9.65,9.65,0,0,0,.32-2.49,10.25,10.25,0,0,0-.31-2.5A11.24,11.24,0,0,0,98.5,127.73Z"/></g></g></svg>