<svg viewBox="0 0 305 269" fill="none" xmlns="http://www.w3.org/2000/svg" class="w-32 lg:w-48 mx-auto mb-4" data-v-c58218ea=""><path d="M112 56.2c0-4.5-.4-9 0-13.5 0-1.2 2.1-3.1 3.4-3.3 7-.8 14-1.4 21-1.8 2.5 0 3.6-1 4.4-3 2-5.2 4-10.3 6.3-15.4.9-1.9.6-2.8-1.2-4-4.4-3.2-5-8.5-1.6-12.1 3.7-4 8.9-4.1 12.6-.2 3.5 3.7 3.1 9-1.3 12.1-2 1.4-2.1 2.5-1.3 4.5 2.2 5 4 10.3 6.4 15.2a6.2 6.2 0 004.2 3c7.6.7 15.2 1 22.8 1.6 2.7.1 4.2 1.2 4.2 4.1.1 4 .5 7.9.7 11.9-1.5 0-3 .2-4.5 0-12.6-.7-37.5-2.6-37.5-2.6L112 56.2z" fill="#274872" data-v-c58218ea=""></path><path d="M13.4 193.8c2.9-4.2 5.7-8.3 8.7-12.4.8-1.1 2.1-2 3.2-2.9 8.7 2.8 17.2 6 26 8.2 7.3 1.8 7.6 1.3 11.1-5.6 9.6-18.2 19-36.5 28.5-54.9 3.5-6.9 7-13.8 10.3-20.8 1.9-4 1-5.3-3.3-5.1-5 .2-10 .6-15.2 1 1.8-2.4 3.3-4.9 5.2-7 4.5-4.9 9.2-9.6 13.8-14.4h5.5l43.9-3.2-.3 2.5v145.2c-15.7.9-30.4 1-47.4-.6-16-1-30.7-3.5-46.6-5.5A119 119 0 0117.6 207c-4.8-2.4-5.9-5.4-4.3-10.4.3-.9.1-1.8.1-2.7z" fill="#5783AB" data-v-c58218ea=""></path><path d="M150.9 224.4V76.7c5.6.1 11.4 0 17 .3 11.4.8 22.7 1.9 34 2.8 2.7 3 5.5 6.1 8 9.3 3.5 4.2 6.7 8.5 10 12.7-6-.5-12-1.2-18.1-1.5-4.2-.2-5 1.2-3.1 4.8l29.6 57.8c4 7.8 8.2 15.5 12.3 23.3 1.4 2.8 3.6 3.9 6.6 3.2l34.5-8.6c1.8 3 3.5 6.2 5.4 9.1 1 1.4 2.2 2.6 3.2 3.9 0 .5-.1 1.2 0 1.6 3.4 6.3 0 10-5.7 12.6a140.8 140.8 0 01-44.6 11.4l-38.6 3.7c-6.3.6-12.5 1.5-18.8 1.8-4.5.3-9.2-.1-13.8-.3H151l-.1-.2z" fill="#EAECEC" data-v-c58218ea=""></path><path d="M281.7 180.8l-34.5 8.6c-3 .7-5.2-.4-6.6-3.2-4-7.8-8.3-15.5-12.3-23.3L198.7 105c-1.9-3.6-1-5 3-4.8 6.1.3 12.1 1 18.2 1.5 1.9.4 2.5.1 5 3.7 17.1 24.4 37 47.8 54.9 71.7.8 1 1.3 2.4 2 3.6z" fill="#5783AB" data-v-c58218ea=""></path><path d="M23.5 180l33.8 8.2c3 .7 5.1-.3 6.6-3.2L76 161.7c10-19.2 17.3-37.2 26.4-56.7 1.8-3.5.7-5-3.4-4.7-6 .3-10.1.4-16.2 1a10 10 0 00-3.8 3.4c-18 23.7-35.8 47.6-53.7 71.5-.8 1.1-1.3 2.5-1.9 3.7z" fill="#EAECEC" data-v-c58218ea=""></path><path d="M290.4 193.8c0 .5-.2 1.2 0 1.6 3.3 6.3-.2 10-5.8 12.6a140.8 140.8 0 01-44.5 11.4l-38.7 3.7c-6.3.7-13 1.3-19 1.3-4.6 0-9 .4-13.6.2H151l-.1-.2c-15.4.4-28.8.4-46.2-1.2-16-1.4-32-3-47.9-5A119 119 0 0117.6 207c-4.8-2.4-5.9-5.4-4.3-10.5.3-.8.1-1.7.1-2.6C7 196.3 2.1 200.2.6 207.5a25 25 0 005.7 21.7c1.5 1.8 2.4 3.2.1 5.2-.7.6-.8 3.3-.2 4a51 51 0 0022.4 12.3c2.4.6 4.1 0 4.6-2.9.1-.6 1.7-1.6 2.3-1.5l26 6.2c1.9.4 2.6 1 1.4 3-1.4 2.4-.4 3.9 2 5 8.7 3.5 17.9 3.9 27 4.3 2.2 0 4.5-1 3.5-4-1-3.1.5-3.1 2.8-3 8.6.8 17.2 1.5 25.8 2 3.1.2 4 1 2.4 4s-.3 4.8 2.9 4.8c14.8 0 29.6.2 44.4-.1 4.6 0 5.1-1.3 3.4-5.6-.8-2.1-1-2.9 1.8-3a646 646 0 0027.4-2.2c2.5-.2 3 .4 2.6 2.6-.6 2.3 0 4 2.7 4.1 9.5.2 18.9-.5 27.8-4.3 2-.9 3-2.1 1.7-4.3-1.7-2.7 0-3.1 2.2-3.6a901 901 0 0024.6-6c1.8-.4 3-.7 3.2 1.6.3 3 2.1 3.4 4.6 2.6 8-2.3 15.5-6 21.6-12 .6-.6 1-3 .5-3.3-3.2-2.7-1.4-4.7.5-7 8-9.6 9.5-27.9-8-34.3z" fill="#274872" data-v-c58218ea=""></path><path d="M192.8 70.5a4896.2 4896.2 0 01-39.1-1h-2.5l-.6.1V52.1c12.6 1 24.6 2 37.2 2.7h4.8l.2 15.7z" fill="#EAECEC" data-v-c58218ea=""></path><path d="M111.8 71c6.7-.3 10-.4 16.8-.5l19-.5h2.4s.6-.6.6-.4V52.1c-12.6 1-21.3 2-33.8 2.7H112l-.2 16.2z" fill="#5783AB" data-v-c58218ea=""></path><path d="M196 70.7l-4-.3-40-1h-.1l-40 1-4 .3c-6.2.5-6.8 1.1-6.7 7.2 0 .7.2 1.3.3 2h5.7c15-1 28.7-2.1 43.6-3.2l46 3.1c1.8.2 3.7.1 5.6.1.1-.7.3-1.3.3-2 .2-6-.4-6.7-6.7-7.2z" fill="#274872" data-v-c58218ea=""></path></svg>