<svg width="40" height="40" viewBox="0 0 40 40" fill="none" xmlns="http://www.w3.org/2000/svg">
<rect x="0.5" y="0.5" width="39" height="39" fill="#C925D1" fill-opacity="0.12"/>
<rect x="0.5" y="0.5" width="39" height="39" stroke="#C925D1"/>
<path fill-rule="evenodd" clip-rule="evenodd" d="M16.6154 7.24415C21.3846 7.24415 24.9487 8.72221 24.9487 10.0435C24.9487 11.3648 21.3846 12.8428 16.6154 12.8428C11.8462 12.8428 8.28205 11.3648 8.28205 10.0435C8.28205 8.72221 11.8462 7.24415 16.6154 7.24415ZM16.4365 31.7558C11.7692 31.7558 8.28205 30.3282 8.28205 29.0517V25.2844C10.0192 26.5161 13.2622 27.1655 16.3724 27.1655C17.2308 27.1655 18.0949 27.1195 18.9397 27.0281L18.7981 25.7914C17.9994 25.8778 17.184 25.9214 16.3724 25.9214C11.7417 25.9214 8.28205 24.4937 8.28205 23.2172V18.7488C10.0192 19.9812 13.2622 20.6306 16.3724 20.6306C17.2487 20.6306 18.1135 20.5833 18.9429 20.49L18.7949 19.2546C18.0147 19.3417 17.1994 19.3865 16.3724 19.3865C11.7417 19.3865 8.28205 17.9588 8.28205 16.6817V12.1374C10.0564 13.4139 13.4045 14.087 16.6154 14.087C19.8263 14.087 23.1744 13.4139 24.9487 12.1374V13.4649H26.2308V10.0435C26.2308 7.41709 21.2763 6 16.6154 6C11.9545 6 7 7.41709 7 10.0435V29.0517C7 31.6165 11.8615 33 16.4365 33C19.984 33 23.175 32.2268 24.7641 30.9807L23.959 30.0134C22.6077 31.0722 19.6551 31.7558 16.4365 31.7558ZM29.9737 22.89C29.9635 23.1675 29.7776 23.4082 29.5013 23.4754C29.4654 23.4878 28.9865 23.6651 28.9865 24.5696C29.0019 25.3335 28.575 25.8878 27.9481 25.9065H27.5128V24.6623H27.6987C27.7026 24.63 27.7051 24.5995 27.7045 24.5821C27.7045 23.7603 27.9622 23.2222 28.2628 22.8732C27.9622 22.5261 27.7045 21.9911 27.7045 21.1749C27.7045 21.1364 27.7083 21.0984 27.7147 21.0605C27.7218 21.0219 27.7256 20.9746 27.7263 20.9298H27.5128V19.6857H27.9288C28.2487 19.6857 28.5327 19.8113 28.7276 20.0384C29.0615 20.4291 29.0231 20.9833 28.9872 21.2228C29.0032 22.085 29.4667 22.2567 29.5199 22.2735C29.7917 22.3594 29.9833 22.6132 29.9737 22.89ZM25.6833 19.6857H26.2308V20.9298H25.9314C25.9276 20.9622 25.925 20.9933 25.9256 21.0107C25.9256 21.8319 25.6679 22.37 25.3673 22.7189C25.6679 23.0661 25.9256 23.601 25.9256 24.4172C25.9256 24.4558 25.9224 24.4937 25.9154 24.5317C25.9083 24.5702 25.9045 24.6175 25.9038 24.6623H26.2308V25.9065H25.7019C25.3821 25.9065 25.0981 25.7808 24.9032 25.5531C24.5686 25.1631 24.6071 24.6088 24.6429 24.3693C24.6269 23.5071 24.1641 23.3354 24.1109 23.3186C23.8397 23.2328 23.6474 22.979 23.6571 22.7021C23.6673 22.4247 23.8532 22.184 24.1301 22.1168C24.1654 22.1043 24.6436 21.927 24.6436 21.0225C24.6288 20.2586 25.0558 19.7044 25.6833 19.6857ZM23.0256 27.1506V15.9532H27.5128V18.4415C27.5128 18.7849 27.7994 19.0636 28.1538 19.0636H30.7179V27.1506H23.0256ZM30.7179 17.6447V17.8195H28.7949V15.9532H29.0353L30.7179 17.6447ZM31.8205 16.9616L29.7692 14.8994C29.6481 14.7775 29.4814 14.7091 29.3077 14.7091H22.3846C22.0301 14.7091 21.7436 14.9878 21.7436 15.3312V27.7727C21.7436 28.1161 22.0301 28.3948 22.3846 28.3948H31.359C31.7135 28.3948 32 28.1161 32 27.7727V17.3933C32 17.2322 31.9353 17.0773 31.8205 16.9616Z" fill="#C925D1"/>
</svg>
