<?xml version="1.0" encoding="UTF-8"?>
<svg id="Layer_1" data-name="Layer 1" xmlns="http://www.w3.org/2000/svg" viewBox="0 0 311.81 311.81">
  <defs>
    <style>
      .cls-1 {
        fill: #00d3a9;
      }

      .cls-2 {
        fill: #00b39f;
      }

      .cls-3 {
        fill: #3c494f;
      }
    </style>
  </defs>
  <g>
    <polygon class="cls-1" points="158.89 64.06 158.89 111.72 200.2 87.81 158.89 64.06"/>
    <polygon class="cls-1" points="158.89 121.7 158.89 169.59 200.58 145.75 158.89 121.7"/>
    <polygon class="cls-2" points="152.94 111.4 152.94 64.46 112.14 87.85 152.94 111.4"/>
    <path class="cls-2" d="m71.1,169.42c8,12.86,18.84,23.77,31.65,31.85v-50.17l-31.65,18.32Z"/>
    <polygon class="cls-2" points="152.94 169.37 152.94 122.04 112.04 145.72 152.94 169.37"/>
    <polygon class="cls-1" points="108.7 198.29 150.12 174.6 108.7 150.66 108.7 198.29"/>
    <polygon class="cls-2" points="203.41 198.54 203.41 150.99 162.05 174.63 203.41 198.54"/>
    <path class="cls-2" d="m243.93,163.9c6.89-12.84,11.04-27.35,11.7-42.77l-43.11,24.65,31.41,18.12Z"/>
    <polygon class="cls-1" points="209.36 140.73 250.92 116.97 209.36 93.07 209.36 140.73"/>
    <polygon class="cls-2" points="203.41 82.79 203.41 35.53 162.24 59.13 203.41 82.79"/>
    <polygon class="cls-2" points="203.41 140.52 203.41 92.82 162.15 116.71 203.41 140.52"/>
    <polygon class="cls-2" points="155.91 216.61 155.92 216.61 155.91 216.61 155.91 216.61"/>
    <polygon class="cls-1" points="108.7 92.73 108.7 140.78 150.26 116.72 108.7 92.73"/>
    <path class="cls-2" d="m152.94,17.02c-15.8.46-30.67,4.6-43.81,11.58l43.81,25.18V17.02Z"/>
    <polygon class="cls-1" points="108.7 35.21 108.7 82.97 150.3 59.12 108.7 35.21"/>
    <path class="cls-2" d="m102.75,32.3c-12.81,8.08-23.66,18.99-31.66,31.86l31.66,18.27v-50.13Z"/>
    <path class="cls-1" d="m203.14,28.83c-13.24-7.12-28.27-11.34-44.25-11.81v37.18l44.25-25.36Z"/>
    <path class="cls-1" d="m56.17,120.29c.55,15.89,4.8,30.83,11.94,43.99l32.06-18.56-43.99-25.43Z"/>
    <path class="cls-1" d="m68.1,69.31c-7.1,13.1-11.34,27.97-11.92,43.77l44.03-25.24-32.11-18.53Z"/>
    <path class="cls-2" d="m109.05,204.94c13.15,7.01,28.06,11.16,43.89,11.62v-36.72l-43.89,25.09Z"/>
    <path class="cls-1" d="m240.82,64.29c-7.95-12.83-18.73-23.73-31.46-31.82v50.03l31.46-18.21Z"/>
    <path class="cls-1" d="m209.36,201.1c12.81-8.14,23.64-19.11,31.6-32.05l-31.6-18.24v50.28Z"/>
    <path class="cls-2" d="m255.64,112.82c-.61-15.66-4.83-30.39-11.84-43.38l-31.7,18.35,43.54,25.03Z"/>
    <path class="cls-1" d="m158.89,216.56c15.79-.46,30.66-4.59,43.79-11.57l-43.79-25.31v36.88Z"/>
    <polygon class="cls-2" points="102.75 140.35 102.75 93.23 61.82 116.69 102.75 140.35"/>
  </g>
  <g>
    <polygon class="cls-3" points="189.28 255.82 189.28 257.27 189.28 264.1 189.28 272.43 189.28 284.59 221.66 284.59 221.66 277.76 196.11 277.76 196.11 272.43 196.11 270.93 215.74 270.93 215.74 264.1 196.11 264.1 196.11 257.27 221.66 257.27 221.66 250.44 189.28 250.44 189.28 255.82"/>
    <polygon class="cls-3" points="64.75 255.82 64.75 257.27 64.75 264.1 64.75 272.43 64.75 284.59 97.12 284.59 97.12 277.76 71.58 277.76 71.58 272.43 71.58 270.93 91.2 270.93 91.2 264.1 71.58 264.1 71.58 257.27 97.12 257.27 97.12 250.44 64.75 250.44 64.75 255.82"/>
    <path class="cls-3" d="m141.94,275.66c0,1.23-.24,2.38-.71,3.46-.47,1.09-1.11,2.04-1.94,2.84-.82.81-1.77,1.44-2.85,1.91-1.09.47-2.25.71-3.48.71h-31.96v-7.19h31.96c.49,0,.9-.17,1.23-.5s.5-.74.5-1.23v-2.78c0-.49-.17-.9-.5-1.23s-.74-.5-1.23-.5h-23c-1.23,0-2.38-.24-3.46-.71-1.09-.47-2.05-1.12-2.87-1.94s-1.46-1.78-1.94-2.87c-.47-1.08-.71-2.23-.71-3.46v-2.78c0-1.23.24-2.39.71-3.48.47-1.08,1.11-2.03,1.94-2.85.82-.82,1.78-1.46,2.87-1.94,1.08-.47,2.23-.71,3.46-.71h31.97v7.24h-31.97c-.48,0-.9.17-1.23.5-.33.33-.5.74-.5,1.23v2.78c0,.49.17.9.5,1.23.33.33.74.5,1.23.5h23c1.23,0,2.39.24,3.48.71,1.08.47,2.03,1.12,2.85,1.94.82.82,1.46,1.77,1.94,2.85.47,1.09.71,2.25.71,3.48v2.78Z"/>
    <path class="cls-3" d="m185.01,284.59h-6.51v-13.43h-25.4v13.43h-6.51v-20.67h31.91v-13.48h6.51v34.15Zm-31.91-23.88h-6.51v-10.27h6.51v10.27Z"/>
    <polygon class="cls-3" points="277.95 262.39 269.41 250.44 260.88 250.44 274.54 270.93 274.54 284.59 281.37 284.59 281.37 270.93 295.03 250.44 286.6 250.44 277.95 262.39"/>
    <path class="cls-3" d="m233.27,256.95h17.52v7.1h-14.11v6.51h3.24l12.39,14.02h8.43l-12.39-14.02h4.83c2.93,0,5.3-2.37,5.3-5.3v-9.52c0-2.93-2.37-5.3-5.3-5.3h-26.6v34.15h6.83l-.14-27.64Z"/>
    <path class="cls-3" d="m59.5,284.59h-7.24v-24.91c0-.27-.05-.53-.16-.77-.11-.24-.25-.46-.43-.64s-.4-.33-.64-.43c-.24-.11-.5-.16-.77-.16H16.78v-7.24h33.47c1.26,0,2.45.24,3.57.73,1.12.49,2.11,1.15,2.96,1.98.83.85,1.49,1.84,1.98,2.96.49,1.12.73,2.31.73,3.57v24.91Zm-35.47,0h-7.24v-26.91l7.24-1.99v28.9Zm17.71,0h-7.24v-23.12h7.24v23.12Z"/>
  </g>
</svg>