<?xml version="1.0" encoding="UTF-8"?>
<svg id="Layer_1" data-name="Layer 1" xmlns="http://www.w3.org/2000/svg" viewBox="0 0 300.85 55.79">
  <defs>
    <style>
      .cls-1 {
        fill: #00d3a9;
      }

      .cls-2 {
        fill: #00b39f;
      }

      .cls-3 {
        fill: #3c494f;
      }
    </style>
  </defs>
  <g>
    <polygon class="cls-1" points="28.71 13.15 28.71 26.47 40.26 19.79 28.71 13.15"/>
    <polygon class="cls-1" points="28.71 29.26 28.71 42.65 40.37 35.98 28.71 29.26"/>
    <polygon class="cls-2" points="27.05 26.38 27.05 13.26 15.65 19.8 27.05 26.38"/>
    <path class="cls-2" d="m4.17,42.6c2.24,3.6,5.27,6.65,8.85,8.9v-14.03l-8.85,5.12Z"/>
    <polygon class="cls-2" points="27.05 42.58 27.05 29.36 15.62 35.98 27.05 42.58"/>
    <polygon class="cls-1" points="14.68 50.67 26.26 44.05 14.68 37.36 14.68 50.67"/>
    <polygon class="cls-2" points="41.16 50.74 41.16 37.45 29.6 44.06 41.16 50.74"/>
    <path class="cls-2" d="m52.48,41.06c1.92-3.59,3.09-7.65,3.27-11.96l-12.05,6.89,8.78,5.07Z"/>
    <polygon class="cls-1" points="42.82 34.58 54.44 27.94 42.82 21.26 42.82 34.58"/>
    <polygon class="cls-2" points="41.16 18.38 41.16 5.17 29.65 11.77 41.16 18.38"/>
    <polygon class="cls-2" points="41.16 34.52 41.16 21.19 29.62 27.87 41.16 34.52"/>
    <polygon class="cls-2" points="27.88 55.79 27.88 55.79 27.88 55.79 27.88 55.79"/>
    <polygon class="cls-1" points="14.68 21.16 14.68 34.6 26.3 27.87 14.68 21.16"/>
    <path class="cls-2" d="m27.05,0c-4.42.13-8.57,1.29-12.24,3.24l12.24,7.04V0Z"/>
    <polygon class="cls-1" points="14.68 5.08 14.68 18.43 26.31 11.77 14.68 5.08"/>
    <path class="cls-2" d="m13.02,4.27c-3.58,2.26-6.61,5.31-8.85,8.91l8.85,5.11V4.27Z"/>
    <path class="cls-1" d="m41.08,3.3c-3.7-1.99-7.9-3.17-12.37-3.3v10.39l12.37-7.09Z"/>
    <path class="cls-1" d="m0,28.87c.15,4.44,1.34,8.62,3.34,12.3l8.96-5.19L0,28.87Z"/>
    <path class="cls-1" d="m3.33,14.61C1.35,18.28.16,22.43,0,26.85l12.31-7.06L3.33,14.61Z"/>
    <path class="cls-2" d="m14.78,52.53c3.68,1.96,7.84,3.12,12.27,3.25v-10.26l-12.27,7.01Z"/>
    <path class="cls-1" d="m51.62,13.21c-2.22-3.59-5.23-6.63-8.79-8.89v13.98l8.79-5.09Z"/>
    <path class="cls-1" d="m42.82,51.46c3.58-2.27,6.61-5.34,8.83-8.96l-8.83-5.1v14.06Z"/>
    <path class="cls-2" d="m55.76,26.78c-.17-4.38-1.35-8.49-3.31-12.13l-8.86,5.13,12.17,7Z"/>
    <path class="cls-1" d="m28.71,55.78c4.41-.13,8.57-1.28,12.24-3.23l-12.24-7.08v10.31Z"/>
    <polygon class="cls-2" points="13.02 34.47 13.02 21.3 1.58 27.86 13.02 34.47"/>
  </g>
  <g>
    <polygon class="cls-3" points="212.2 20.45 212.2 21.67 212.2 27.39 212.2 34.38 212.2 44.57 239.34 44.57 239.34 38.85 217.92 38.85 217.92 34.38 217.92 33.12 234.38 33.12 234.38 27.39 217.92 27.39 217.92 21.67 239.34 21.67 239.34 15.94 212.2 15.94 212.2 20.45"/>
    <polygon class="cls-3" points="107.79 20.45 107.79 21.67 107.79 27.39 107.79 34.38 107.79 44.57 134.93 44.57 134.93 38.85 113.52 38.85 113.52 34.38 113.52 33.12 129.97 33.12 129.97 27.39 113.52 27.39 113.52 21.67 134.93 21.67 134.93 15.94 107.79 15.94 107.79 20.45"/>
    <path class="cls-3" d="m172.5,37.09c0,1.03-.2,2-.59,2.9-.39.92-.93,1.71-1.62,2.38-.69.68-1.48,1.21-2.39,1.6-.92.39-1.89.59-2.92.59h-26.8v-6.03h26.8c.41,0,.75-.14,1.03-.42s.42-.62.42-1.03v-2.33c0-.41-.14-.75-.42-1.03s-.62-.42-1.03-.42h-19.28c-1.03,0-2-.2-2.9-.59-.92-.39-1.72-.94-2.4-1.62s-1.23-1.49-1.62-2.4c-.39-.9-.59-1.87-.59-2.9v-2.33c0-1.03.2-2.01.59-2.92.39-.9.93-1.7,1.62-2.39.69-.69,1.49-1.23,2.4-1.62.9-.39,1.87-.59,2.9-.59h26.8v6.07h-26.8c-.41,0-.75.14-1.03.42-.28.28-.42.62-.42,1.03v2.33c0,.41.14.75.42,1.03.28.28.62.42,1.03.42h19.28c1.03,0,2,.2,2.92.59.9.39,1.7.94,2.39,1.62.69.69,1.23,1.48,1.62,2.39.39.92.59,1.89.59,2.92v2.33Z"/>
    <path class="cls-3" d="m208.62,44.57h-5.46v-11.26h-21.29v11.26h-5.46v-17.33h26.75v-11.3h5.46v28.63Zm-26.75-20.02h-5.46v-8.61h5.46v8.61Z"/>
    <polygon class="cls-3" points="286.53 25.96 279.38 15.94 272.22 15.94 283.67 33.12 283.67 44.57 289.4 44.57 289.4 33.12 300.85 15.94 293.78 15.94 286.53 25.96"/>
    <path class="cls-3" d="m249.08,21.4h14.69v5.96h-11.83v5.46s2.71,0,2.71,0l10.38,11.76h7.07l-10.38-11.76h4.05c2.46,0,4.45-1.99,4.45-4.45v-7.98c0-2.46-1.99-4.45-4.45-4.45h-22.3v28.63h5.73l-.12-23.17Z"/>
    <path class="cls-3" d="m103.39,44.57h-6.07v-20.88c0-.23-.05-.45-.13-.65-.09-.2-.21-.38-.36-.53s-.33-.27-.53-.36c-.2-.09-.42-.13-.65-.13h-28.06v-6.07h28.06c1.06,0,2.06.2,3,.61.94.41,1.77.96,2.48,1.66.7.71,1.25,1.54,1.66,2.48.41.94.61,1.94.61,3v20.88Zm-29.74,0h-6.07v-22.56h6.07v22.56Zm14.85,0h-6.07v-19.38h6.07v19.38Z"/>
  </g>
</svg>