<?xml version="1.0" encoding="UTF-8"?>
<svg id="Layer_1" data-name="Layer 1" xmlns="http://www.w3.org/2000/svg" xmlns:xlink="http://www.w3.org/1999/xlink" viewBox="0 0 278.24 269.76">
  <defs>
    <style>
      .cls-1 {
        fill: #00d3a9;
      }

      .cls-2 {
        fill: #00b39f;
      }

      .cls-3 {
        fill: #fff;
      }

      .cls-4 {
        filter: url(#drop-shadow-2);
      }
    </style>
    <filter id="drop-shadow-2" filterUnits="userSpaceOnUse">
      <feOffset dx="2.83" dy="2.83"/>
      <feGaussianBlur result="blur" stdDeviation="2.83"/>
      <feFlood flood-color="#000" flood-opacity=".5"/>
      <feComposite in2="blur" operator="in"/>
      <feComposite in="SourceGraphic"/>
    </filter>
  </defs>
  <g>
    <polygon class="cls-3" points="172.5 240.99 172.5 242.44 172.5 249.27 172.5 257.6 172.5 269.76 204.87 269.76 204.87 262.93 179.33 262.93 179.33 257.6 179.33 256.1 198.95 256.1 198.95 249.27 179.33 249.27 179.33 242.44 204.87 242.44 204.87 235.61 172.5 235.61 172.5 240.99"/>
    <polygon class="cls-3" points="47.96 240.99 47.96 242.44 47.96 249.27 47.96 257.6 47.96 269.76 80.34 269.76 80.34 262.93 54.79 262.93 54.79 257.6 54.79 256.1 74.42 256.1 74.42 249.27 54.79 249.27 54.79 242.44 80.34 242.44 80.34 235.61 47.96 235.61 47.96 240.99"/>
    <path class="cls-3" d="m125.15,260.83c0,1.23-.24,2.38-.71,3.46-.47,1.09-1.11,2.04-1.94,2.84-.82.81-1.77,1.44-2.85,1.91-1.09.47-2.25.71-3.48.71h-31.96v-7.19h31.96c.49,0,.9-.17,1.23-.5s.5-.74.5-1.23v-2.78c0-.49-.17-.9-.5-1.23-.33-.33-.74-.5-1.23-.5h-23c-1.23,0-2.38-.24-3.46-.71-1.09-.47-2.05-1.12-2.87-1.94s-1.46-1.78-1.94-2.87c-.47-1.08-.71-2.23-.71-3.46v-2.78c0-1.23.24-2.39.71-3.48.47-1.08,1.11-2.03,1.94-2.85.82-.82,1.78-1.46,2.87-1.94,1.08-.47,2.23-.71,3.46-.71h31.97v7.24h-31.97c-.48,0-.9.17-1.23.5-.33.33-.5.74-.5,1.23v2.78c0,.49.17.9.5,1.23.33.33.74.5,1.23.5h23c1.23,0,2.39.24,3.48.71,1.08.47,2.03,1.12,2.85,1.94.82.82,1.46,1.77,1.94,2.85.47,1.09.71,2.25.71,3.48v2.78Z"/>
    <path class="cls-3" d="m168.23,269.76h-6.51v-13.43h-25.4v13.43h-6.51v-20.67h31.91v-13.48h6.51v34.15Zm-31.91-23.88h-6.51v-10.27h6.51v10.27Z"/>
    <polygon class="cls-3" points="261.17 247.56 252.63 235.61 244.09 235.61 257.75 256.1 257.75 269.76 264.58 269.76 264.58 256.1 278.24 235.61 269.81 235.61 261.17 247.56"/>
    <path class="cls-3" d="m216.49,242.12h17.52v7.1h-14.11v6.51s3.24,0,3.24,0l12.39,14.02h8.43l-12.39-14.02h4.83c2.93,0,5.3-2.37,5.3-5.3v-9.52c0-2.93-2.37-5.3-5.3-5.3h-26.6v34.15h6.83l-.14-27.64Z"/>
    <path class="cls-3" d="m42.71,269.76h-7.24v-24.91c0-.27-.05-.53-.16-.77-.11-.24-.25-.46-.43-.64s-.4-.33-.64-.43c-.24-.11-.5-.16-.77-.16H0v-7.24h33.47c1.26,0,2.45.24,3.57.73,1.12.49,2.11,1.15,2.96,1.98.83.85,1.49,1.84,1.98,2.96.49,1.12.73,2.31.73,3.57v24.91Zm-35.47,0H0v-26.91l7.24-1.99v28.9Zm17.71,0h-7.24v-23.12h7.24v23.12Z"/>
  </g>
  <g class="cls-4">
    <polygon class="cls-1" points="142.25 49.4 142.25 99.45 185.63 74.33 142.25 49.4"/>
    <polygon class="cls-1" points="142.25 109.92 142.25 160.21 186.03 135.18 142.25 109.92"/>
    <polygon class="cls-2" points="136.01 99.1 136.01 49.82 93.16 74.38 136.01 99.1"/>
    <path class="cls-2" d="m50.06,160.04c8.4,13.51,19.79,24.96,33.24,33.45v-52.69l-33.24,19.24Z"/>
    <polygon class="cls-2" points="136.01 159.98 136.01 110.28 93.05 135.15 136.01 159.98"/>
    <polygon class="cls-1" points="89.55 190.35 133.04 165.48 89.55 140.34 89.55 190.35"/>
    <polygon class="cls-2" points="189.01 190.62 189.01 140.68 145.57 165.51 189.01 190.62"/>
    <path class="cls-2" d="m231.55,154.24c7.23-13.48,11.6-28.72,12.29-44.92l-45.27,25.88,32.98,19.03Z"/>
    <polygon class="cls-1" points="195.25 129.91 238.9 104.95 195.25 79.86 195.25 129.91"/>
    <polygon class="cls-2" points="189.01 69.07 189.01 19.44 145.78 44.22 189.01 69.07"/>
    <polygon class="cls-2" points="189.01 129.69 189.01 79.6 145.68 104.68 189.01 129.69"/>
    <polygon class="cls-2" points="139.13 209.58 139.14 209.58 139.12 209.58 139.13 209.58"/>
    <polygon class="cls-1" points="89.55 79.51 89.55 129.96 133.19 104.69 89.55 79.51"/>
    <path class="cls-2" d="m136.01,0c-16.59.49-32.21,4.83-46,12.16l46,26.44V0Z"/>
    <polygon class="cls-1" points="89.55 19.1 89.55 69.25 133.23 44.21 89.55 19.1"/>
    <path class="cls-2" d="m83.3,16.05c-13.46,8.49-24.84,19.95-33.24,33.46l33.24,19.18V16.05Z"/>
    <path class="cls-1" d="m188.72,12.4c-13.9-7.48-29.69-11.91-46.46-12.4v39.04l46.46-26.63Z"/>
    <path class="cls-1" d="m34.38,108.45c.58,16.68,5.04,32.38,12.53,46.19l33.66-19.49-46.2-26.71Z"/>
    <path class="cls-1" d="m46.91,54.9c-7.45,13.76-11.91,29.37-12.52,45.96l46.24-26.51-33.72-19.46Z"/>
    <path class="cls-2" d="m89.92,197.33c13.81,7.36,29.46,11.72,46.09,12.2v-38.56l-46.09,26.35Z"/>
    <path class="cls-1" d="m228.29,49.64c-8.35-13.47-19.66-24.91-33.04-33.41v52.54l33.04-19.13Z"/>
    <path class="cls-1" d="m195.25,193.3c13.45-8.55,24.82-20.07,33.19-33.65l-33.19-19.15v52.8Z"/>
    <path class="cls-2" d="m243.86,100.6c-.64-16.44-5.07-31.91-12.44-45.55l-33.29,19.27,45.72,26.28Z"/>
    <path class="cls-1" d="m142.25,209.53c16.58-.49,32.2-4.82,45.98-12.15l-45.98-26.58v38.73Z"/>
    <polygon class="cls-2" points="83.3 129.51 83.3 80.03 40.32 104.67 83.3 129.51"/>
  </g>
</svg>