<?xml version="1.0" encoding="UTF-8"?>
<svg id="Layer_1" data-name="Layer 1" xmlns="http://www.w3.org/2000/svg" viewBox="0 0 300.85 55.79">
  <defs>
    <style>
      .cls-1, .cls-2 {
        fill: #fff;
      }

      .cls-2 {
        opacity: .8;
      }
    </style>
  </defs>
  <g>
    <polygon class="cls-1" points="212.2 20.45 212.2 21.67 212.2 27.39 212.2 34.38 212.2 44.57 239.34 44.57 239.34 38.85 217.92 38.85 217.92 34.38 217.92 33.12 234.38 33.12 234.38 27.39 217.92 27.39 217.92 21.67 239.34 21.67 239.34 15.94 212.2 15.94 212.2 20.45"/>
    <polygon class="cls-1" points="107.79 20.45 107.79 21.67 107.79 27.39 107.79 34.38 107.79 44.57 134.93 44.57 134.93 38.85 113.52 38.85 113.52 34.38 113.52 33.12 129.97 33.12 129.97 27.39 113.52 27.39 113.52 21.67 134.93 21.67 134.93 15.94 107.79 15.94 107.79 20.45"/>
    <path class="cls-1" d="m172.5,37.09c0,1.03-.2,2-.59,2.9-.39.92-.93,1.71-1.62,2.38-.69.68-1.48,1.21-2.39,1.6-.92.39-1.89.59-2.92.59h-26.8v-6.03h26.8c.41,0,.75-.14,1.03-.42s.42-.62.42-1.03v-2.33c0-.41-.14-.75-.42-1.03s-.62-.42-1.03-.42h-19.28c-1.03,0-2-.2-2.9-.59-.92-.39-1.72-.94-2.4-1.62s-1.23-1.49-1.62-2.4c-.39-.9-.59-1.87-.59-2.9v-2.33c0-1.03.2-2.01.59-2.92.39-.9.93-1.7,1.62-2.39.69-.69,1.49-1.23,2.4-1.62.9-.39,1.87-.59,2.9-.59h26.8v6.07h-26.8c-.41,0-.75.14-1.03.42-.28.28-.42.62-.42,1.03v2.33c0,.41.14.75.42,1.03.28.28.62.42,1.03.42h19.28c1.03,0,2,.2,2.92.59.9.39,1.7.94,2.39,1.62.69.69,1.23,1.48,1.62,2.39.39.92.59,1.89.59,2.92v2.33Z"/>
    <path class="cls-1" d="m208.62,44.57h-5.46v-11.26h-21.29v11.26h-5.46v-17.33h26.75v-11.3h5.46v28.63Zm-26.75-20.02h-5.46v-8.61h5.46v8.61Z"/>
    <polygon class="cls-1" points="286.53 25.96 279.38 15.94 272.22 15.94 283.67 33.12 283.67 44.57 289.4 44.57 289.4 33.12 300.85 15.94 293.78 15.94 286.53 25.96"/>
    <path class="cls-1" d="m249.08,21.4h14.69v5.96h-11.83v5.46s2.71,0,2.71,0l10.38,11.76h7.07l-10.38-11.76h4.05c2.46,0,4.45-1.99,4.45-4.45v-7.98c0-2.46-1.99-4.45-4.45-4.45h-22.3v28.63h5.73l-.12-23.17Z"/>
    <path class="cls-1" d="m103.39,44.57h-6.07v-20.88c0-.23-.05-.45-.13-.65-.09-.2-.21-.38-.36-.53s-.33-.27-.53-.36c-.2-.09-.42-.13-.65-.13h-28.06v-6.07h28.06c1.06,0,2.06.2,3,.61.94.41,1.77.96,2.48,1.66.7.71,1.25,1.54,1.66,2.48.41.94.61,1.94.61,3v20.88Zm-29.74,0h-6.07v-22.56h6.07v22.56Zm14.85,0h-6.07v-19.38h6.07v19.38Z"/>
  </g>
  <g>
    <polygon class="cls-1" points="28.72 13.12 28.72 26.49 40.31 19.78 28.72 13.12"/>
    <polygon class="cls-1" points="28.72 29.29 28.72 42.72 40.42 36.04 28.72 29.29"/>
    <polygon class="cls-2" points="27.05 26.4 27.05 13.23 15.61 19.8 27.05 26.4"/>
    <path class="cls-2" d="m4.09,42.68c2.24,3.61,5.29,6.67,8.88,8.93v-14.07l-8.88,5.14Z"/>
    <polygon class="cls-2" points="27.05 42.66 27.05 29.39 15.58 36.03 27.05 42.66"/>
    <polygon class="cls-1" points="14.64 50.77 26.26 44.13 14.64 37.41 14.64 50.77"/>
    <polygon class="cls-2" points="41.21 50.85 41.21 37.51 29.61 44.14 41.21 50.85"/>
    <path class="cls-2" d="m52.58,41.13c1.93-3.6,3.1-7.67,3.28-12l-12.09,6.91,8.81,5.08Z"/>
    <polygon class="cls-1" points="42.88 34.63 54.54 27.96 42.88 21.26 42.88 34.63"/>
    <polygon class="cls-2" points="41.21 18.38 41.21 5.12 29.66 11.74 41.21 18.38"/>
    <polygon class="cls-2" points="41.21 34.57 41.21 21.19 29.64 27.89 41.21 34.57"/>
    <polygon class="cls-1" points="14.64 21.16 14.64 34.64 26.3 27.89 14.64 21.16"/>
    <path class="cls-2" d="m27.05-.07c-4.43.13-8.6,1.29-12.29,3.25l12.29,7.06V-.07Z"/>
    <polygon class="cls-1" points="14.64 5.03 14.64 18.43 26.31 11.74 14.64 5.03"/>
    <path class="cls-2" d="m12.97,4.21c-3.59,2.27-6.64,5.33-8.88,8.94l8.88,5.12V4.21Z"/>
    <path class="cls-1" d="m41.13,3.24C37.42,1.24,33.2.06,28.72-.07v10.43l12.41-7.11Z"/>
    <path class="cls-1" d="m-.09,28.9c.15,4.46,1.35,8.65,3.35,12.34l8.99-5.21L-.09,28.9Z"/>
    <path class="cls-1" d="m3.25,14.59C1.26,18.27.07,22.44-.09,26.87l12.35-7.08L3.25,14.59Z"/>
    <path class="cls-2" d="m14.74,52.64c3.69,1.97,7.87,3.13,12.31,3.26v-10.3l-12.31,7.04Z"/>
    <path class="cls-1" d="m51.7,13.19c-2.23-3.6-5.25-6.66-8.83-8.92v14.03l8.83-5.11Z"/>
    <path class="cls-1" d="m42.88,51.56c3.59-2.28,6.63-5.36,8.87-8.99l-8.87-5.12v14.11Z"/>
    <path class="cls-2" d="m55.86,26.8c-.17-4.39-1.35-8.52-3.32-12.17l-8.89,5.15,12.21,7.02Z"/>
    <path class="cls-1" d="m28.72,55.9c4.43-.13,8.6-1.29,12.28-3.25l-12.28-7.1v10.35Z"/>
    <polygon class="cls-2" points="12.97 34.52 12.97 21.31 1.49 27.89 12.97 34.52"/>
  </g>
</svg>