<?xml version="1.0" encoding="UTF-8"?>
<svg id="Layer_1" data-name="Layer 1" xmlns="http://www.w3.org/2000/svg" xmlns:xlink="http://www.w3.org/1999/xlink" viewBox="0 0 300.85 58.39">
  <defs>
    <style>
      .cls-1 {
        fill: #00d3a9;
      }

      .cls-2 {
        fill: #00b39f;
      }

      .cls-3 {
        fill: #fff;
      }

      .cls-4 {
        filter: url(#drop-shadow-2);
      }

      .cls-5 {
        filter: url(#drop-shadow-3);
      }
    </style>
    <filter id="drop-shadow-2" filterUnits="userSpaceOnUse">
      <feOffset dx="2.83" dy="2.83"/>
      <feGaussianBlur result="blur" stdDeviation="2.83"/>
      <feFlood flood-color="#000" flood-opacity=".5"/>
      <feComposite in2="blur" operator="in"/>
      <feComposite in="SourceGraphic"/>
    </filter>
    <filter id="drop-shadow-3" filterUnits="userSpaceOnUse">
      <feOffset dx="2.83" dy="2.83"/>
      <feGaussianBlur result="blur-2" stdDeviation="2.83"/>
      <feFlood flood-color="#000" flood-opacity=".5"/>
      <feComposite in2="blur-2" operator="in"/>
      <feComposite in="SourceGraphic"/>
    </filter>
  </defs>
  <g class="cls-4">
    <g>
      <polygon class="cls-3" points="211.66 23.24 211.66 24.46 211.66 30.22 211.66 37.25 211.66 47.51 238.96 47.51 238.96 41.75 217.42 41.75 217.42 37.25 217.42 35.98 233.97 35.98 233.97 30.22 217.42 30.22 217.42 24.46 238.96 24.46 238.96 18.7 211.66 18.7 211.66 23.24"/>
      <polygon class="cls-3" points="106.61 23.24 106.61 24.46 106.61 30.22 106.61 37.25 106.61 47.51 133.92 47.51 133.92 41.75 112.38 41.75 112.38 37.25 112.38 35.98 128.93 35.98 128.93 30.22 112.38 30.22 112.38 24.46 133.92 24.46 133.92 18.7 106.61 18.7 106.61 23.24"/>
      <path class="cls-3" d="m171.72,39.98c0,1.04-.2,2.01-.6,2.92-.4.92-.94,1.72-1.63,2.4-.69.68-1.49,1.22-2.4,1.61-.92.4-1.9.6-2.94.6h-26.96v-6.07h26.96c.41,0,.76-.14,1.04-.42s.42-.63.42-1.04v-2.34c0-.41-.14-.76-.42-1.04s-.63-.42-1.04-.42h-19.4c-1.04,0-2.01-.2-2.92-.6-.92-.4-1.73-.94-2.42-1.63-.69-.69-1.24-1.5-1.63-2.42-.4-.91-.6-1.88-.6-2.92v-2.34c0-1.04.2-2.02.6-2.94.4-.91.94-1.71,1.63-2.4.69-.69,1.5-1.24,2.42-1.63.91-.4,1.88-.6,2.92-.6h26.96v6.11h-26.96c-.41,0-.76.14-1.04.42-.28.28-.42.63-.42,1.04v2.34c0,.41.14.76.42,1.04.28.28.63.42,1.04.42h19.4c1.04,0,2.02.2,2.94.6.91.4,1.71.94,2.4,1.63.69.69,1.24,1.49,1.63,2.4.4.92.6,1.9.6,2.94v2.34Z"/>
      <path class="cls-3" d="m208.05,47.51h-5.49v-11.33h-21.42v11.33h-5.49v-17.44h26.91v-11.37h5.49v28.8Zm-26.91-20.14h-5.49v-8.66h5.49v8.66Z"/>
      <polygon class="cls-3" points="286.45 28.78 279.25 18.7 272.04 18.7 283.57 35.98 283.57 47.51 289.33 47.51 289.33 35.98 300.85 18.7 293.74 18.7 286.45 28.78"/>
      <path class="cls-3" d="m248.76,24.19h14.77v5.99h-11.9v5.49s2.73,0,2.73,0l10.45,11.83h7.11l-10.45-11.83h4.08c2.47,0,4.47-2,4.47-4.47v-8.03c0-2.47-2-4.47-4.47-4.47h-22.43v28.8h5.76l-.12-23.31Z"/>
      <path class="cls-3" d="m102.18,47.51h-6.11v-21.01c0-.23-.05-.45-.13-.65-.09-.2-.21-.38-.36-.54s-.33-.28-.54-.37c-.21-.09-.42-.13-.65-.13h-28.23v-6.11h28.23c1.06,0,2.07.2,3.02.61.95.41,1.78.97,2.5,1.67.7.72,1.26,1.55,1.67,2.5.41.95.62,1.95.62,3.01v21.01Zm-29.92,0h-6.11v-22.7l6.11-1.67v24.37Zm14.94,0h-6.11v-19.5h6.11v19.5Z"/>
    </g>
  </g>
  <g class="cls-5">
    <polygon class="cls-1" points="30.05 13.76 30.05 27.71 42.14 20.71 30.05 13.76"/>
    <polygon class="cls-1" points="30.05 30.62 30.05 44.64 42.25 37.66 30.05 30.62"/>
    <polygon class="cls-2" points="28.31 27.61 28.31 13.88 16.38 20.72 28.31 27.61"/>
    <path class="cls-2" d="m4.37,44.59c2.34,3.76,5.51,6.96,9.26,9.32v-14.68l-9.26,5.36Z"/>
    <polygon class="cls-2" points="28.31 44.57 28.31 30.73 16.35 37.65 28.31 44.57"/>
    <polygon class="cls-1" points="15.37 53.03 27.49 46.1 15.37 39.1 15.37 53.03"/>
    <polygon class="cls-2" points="43.08 53.11 43.08 39.19 30.98 46.11 43.08 53.11"/>
    <path class="cls-2" d="m54.93,42.97c2.01-3.76,3.23-8,3.42-12.51l-12.61,7.21,9.19,5.3Z"/>
    <polygon class="cls-1" points="44.82 36.19 56.98 29.24 44.82 22.25 44.82 36.19"/>
    <polygon class="cls-2" points="43.08 19.24 43.08 5.42 31.04 12.32 43.08 19.24"/>
    <polygon class="cls-2" points="43.08 36.13 43.08 22.18 31.01 29.17 43.08 36.13"/>
    <polygon class="cls-2" points="29.18 58.39 29.19 58.39 29.18 58.39 29.18 58.39"/>
    <polygon class="cls-1" points="15.37 22.15 15.37 36.21 27.53 29.17 15.37 22.15"/>
    <path class="cls-2" d="m28.31,0c-4.62.14-8.97,1.35-12.82,3.39l12.82,7.37V0Z"/>
    <polygon class="cls-1" points="15.37 5.32 15.37 19.29 27.54 12.32 15.37 5.32"/>
    <path class="cls-2" d="m13.63,4.47c-3.75,2.36-6.92,5.56-9.26,9.32l9.26,5.34V4.47Z"/>
    <path class="cls-1" d="m43,3.46c-3.87-2.08-8.27-3.32-12.95-3.46v10.88l12.95-7.42Z"/>
    <path class="cls-1" d="m0,30.21c.16,4.65,1.41,9.02,3.49,12.87l9.38-5.43L0,30.21Z"/>
    <path class="cls-1" d="m3.49,15.3C1.41,19.13.17,23.48,0,28.1l12.88-7.38L3.49,15.3Z"/>
    <path class="cls-2" d="m15.47,54.98c3.85,2.05,8.21,3.26,12.84,3.4v-10.74l-12.84,7.34Z"/>
    <path class="cls-1" d="m54.02,13.83c-2.33-3.75-5.48-6.94-9.2-9.31v14.64l9.2-5.33Z"/>
    <path class="cls-1" d="m44.82,53.86c3.75-2.38,6.92-5.59,9.25-9.38l-9.25-5.34v14.71Z"/>
    <path class="cls-2" d="m58.36,28.03c-.18-4.58-1.41-8.89-3.46-12.69l-9.27,5.37,12.74,7.32Z"/>
    <path class="cls-1" d="m30.05,58.38c4.62-.14,8.97-1.34,12.81-3.38l-12.81-7.41v10.79Z"/>
    <polygon class="cls-2" points="13.63 36.08 13.63 22.3 1.65 29.16 13.63 36.08"/>
  </g>
</svg>