<svg xmlns="http://www.w3.org/2000/svg" xmlns:xlink="http://www.w3.org/1999/xlink" id="Layer_1" x="0" y="0" version="1.1" viewBox="0 0 1218.7 1218.7" xml:space="preserve" style="enable-background:new 0 0 1218.7 1218.7"><style type="text/css">.st0{display:none}.st1{display:inline}.st2{opacity:.8;enable-background:new}.st3,.st4{fill:#3c494e}.st4{enable-background:new}.st5{fill:#647881}.st6{fill:#00d3a9}.st7{fill:#00b39f}.st8{fill:none}.st9{fill:#20bdab}</style><g id="Layer_1_1_"><g class="st0"><g class="st1"><g class="st2"><path d="M610.1,584.3c-68,0-132.2-26.5-180.7-74.7c-48.6-48.2-75.4-112.2-75.4-180c0-141.2,114.9-256.1,256.1-256.1 c68,0,132.1,26.5,180.7,74.7c48.6,48.3,75.4,112.2,75.4,180C866.2,469.4,751.3,584.3,610.1,584.3z M610.1,80.5 C472.7,80.5,361,192.2,361,329.6c0,66,26,128.1,73.3,175.1c47.2,46.8,109.6,72.6,175.8,72.6c137.4,0,249.1-111.7,249.1-249.1 c0-65.9-26.1-128.1-73.4-175C738.6,106.3,676.2,80.5,610.1,80.5z M610.1,528.6c-109.7,0-199-89.3-199-199s89.3-199,199-199 s199,89.3,199,199S719.8,528.6,610.1,528.6z M610.1,137.6c-105.9,0-192,86.1-192,192s86.1,192,192,192c105.9,0,192-86.1,192-192 S716,137.6,610.1,137.6z" class="st3"/></g><g class="st2"><path d="M921.1,1222.2H297.5c-50.6,0-98.1-19.6-133.7-55.3c-35.6-35.6-55.3-83.1-55.3-133.7V894.8 c0-158.4,123.7-291.6,281.5-303.3l0.3,0c8.8,0,17.9,3.7,23.9,9.6c53.7,50.9,123.2,79,195.8,79c36.6,0,72.2-6.9,105.9-20.4 c33.9-13.6,64.1-33.3,90-58.5c6.4-6.4,14.4-9.6,23.8-9.6l0.3,0c76.3,5.6,147.2,39.8,199.6,96.4c52.6,56.7,81.2,130.2,80.4,206.9 v138.4c0,50.6-19.6,98.1-55.3,133.7S971.7,1222.2,921.1,1222.2z M390.4,598.5C236.3,610,115.5,740.1,115.5,894.8v138.4 c0,48.7,18.9,94.5,53.2,128.8s80.1,53.2,128.8,53.2h623.6c48.7,0,94.5-18.9,128.8-53.2s53.2-80.1,53.2-128.8V894.8 c0.7-74.9-27.2-146.6-78.6-202.1c-51.2-55.2-120.4-88.6-194.9-94.1c-7.6,0-13.7,2.5-18.8,7.6c-26.6,25.9-57.6,46.1-92.3,60 c-34.6,13.9-71.1,20.9-108.5,20.9c-74.4,0-145.7-28.8-200.7-81C404.7,601.5,397.3,598.5,390.4,598.5z M922.6,1165.1h-625 c-35.5,0-68.6-13.7-93.5-38.5c-24.8-24.8-38.4-58-38.4-93.4V894.8c0-123.4,92.7-228.6,215.6-244.7l1.6-0.2l1.2,1.1 c30.8,28,66,49.6,104.5,64.2c38.2,14.5,79.1,21.9,121.5,21.9c41.9,0,82.7-7.5,121.4-22.4c38.2-14.7,73.4-36.1,104.5-63.7l1.2-1 l1.6,0.2c59,7,113.5,35.8,153.5,81.1c40.1,45.4,62.2,103.5,62.2,163.6v138.4c0,35.5-13.7,68.6-38.5,93.5 C991.2,1151.4,958,1165.1,922.6,1165.1z M380.7,657.3c-118.7,16.4-208,118.2-208,237.5v138.4c0,33.6,12.9,65,36.4,88.5 c23.5,23.5,54.9,36.4,88.5,36.4h625c33.6,0,65-12.9,88.5-36.4c23.5-23.5,36.4-54.9,36.4-88.5V894.8c0-58.4-21.5-114.9-60.5-159 c-38.5-43.6-90.8-71.4-147.5-78.6c-31.5,27.7-67,49.2-105.5,64c-39.5,15.2-81.2,22.9-124,22.9c-43.2,0-84.9-7.5-123.9-22.3 C447.3,707,411.8,685.4,380.7,657.3z" class="st3"/></g><g class="st0"><g class="st1"><g><g><path d="M625.8,1073.8h-28.5c-4.8,0-9.2-4.4-9.2-9.2v-17.3c-9.5-2.6-18.3-6.2-27.3-11.1l-12.4,12.4 c-2.4,2.4-5.1,2.4-6.8,2.4s-4.3,0-6.8-2.4l-20-20c-2.1-2.1-3.2-4.4-3.2-6.8c0-2.4,1.1-4.7,3.2-6.8l12.4-12.4 c-4.8-8.5-9.6-17.4-11.4-27.3h-17c-4.8,0-9.2-4.4-9.2-9.2v-28.5c0-4.8,4.4-9.2,9.2-9.2h17.3c2.9-10.8,6.7-20.2,11-27.4 l-12.3-12.3c-4.2-4.2-4.2-9.3,0-13.5l19.6-19.6c1.1-1.8,2.9-3.1,5.1-3.4c3-0.5,6.3,0.6,8.8,3.1l12.4,12.4 c8.5-4.8,17.4-9.6,27.3-11.4v-17c0-4.8,4.4-9.2,9.2-9.2h28.5c4.8,0,9.2,4.4,9.2,9.2v17.3c9.5,2.6,18.3,6.2,27.3,11.1 l12.1-12.1c1.1-1.8,2.9-3.1,5.1-3.4c3-0.5,6.3,0.6,8.8,3.1l20,20c4.2,4.2,4.2,9.3,0,13.5l-12.4,12.4 c4.8,8.5,9.6,17.4,11.4,27.3h17c4.8,0,9.2,4.4,9.2,9.2v28.5c0,4.8-4.4,9.2-9.2,9.2H707c-2.9,10.8-6.7,20.2-11,27.4l12.3,12.3 c2.1,2.1,3.2,4.4,3.2,6.8c0,2.4-1.1,4.7-3.2,6.8l-19.6,19.6c-1.1,1.8-2.9,3.1-5.1,3.4c-3,0.5-6.3-0.6-8.8-3.1l-12.4-12.4 c-8.5,4.8-17.4,9.6-27.3,11.4v17C635,1070.1,631.3,1073.8,625.8,1073.8z M559.6,1027.4l2.3,1.3c10.1,5.8,19.8,9.7,30.5,12.4 l2.6,0.7v22.7c0,0.9,1.3,2.2,2.2,2.2h28.5c2,0,2.2-1,2.2-2.2v-23.1l3.1-0.4c10.7-1.3,20.1-6.7,30.1-12.4l2.3-1.3l16.2,16.2 c0.9,0.9,2,1.2,2.6,1.1c0.3,0,0.3-0.1,0.3-0.2l0.3-0.5l20.4-20.4c0.7-0.7,1.2-1.4,1.2-1.8s-0.4-1.1-1.2-1.8l-16.3-16.3 l1.6-2.4c4.9-7.4,9.2-17.9,12.3-30.3l0.7-2.6h22.7c0.9,0,2.2-1.3,2.2-2.2v-28.5c0-0.9-1.3-2.2-2.2-2.2h-23.1l-0.4-3.1 c-1.3-10.7-6.7-20.1-12.4-30.1l-1.3-2.3l16.2-16.2c1.5-1.5,1.5-2.1,0-3.7l-20-20c-0.9-0.9-2-1.2-2.6-1.1 c-0.3,0-0.3,0.1-0.3,0.2l-0.3,0.5l-16.6,16.6l-2.3-1.3c-10.1-5.8-19.8-9.7-30.5-12.5l-2.6-0.7v-22.7c0-0.9-1.3-2.2-2.2-2.2 h-28.5c-0.9,0-2.2,1.3-2.2,2.2v23.1l-3.1,0.4c-10.7,1.3-20.1,6.7-30.1,12.4l-2.3,1.3l-16.2-16.2c-0.9-0.9-2-1.2-2.6-1.1 c-0.3,0-0.3,0.1-0.3,0.2l-0.3,0.5l-20.4,20.4c-1.5,1.5-1.5,2.1,0,3.7l16.3,16.3l-1.6,2.4c-4.9,7.4-9.2,17.9-12.3,30.3 l-0.7,2.6h-22.7c-0.9,0-2.2,1.3-2.2,2.2v28.5c0,0.9,1.3,2.2,2.2,2.2h23.1l0.4,3.1c1.3,10.7,6.7,20.1,12.4,30.1l1.3,2.3 l-16.2,16.2c-0.7,0.7-1.1,1.4-1.1,1.8s0.4,1.1,1.1,1.8l20,20c0.3,0.3,0.5,0.4,1.8,0.4c1.3,0,1.5-0.1,1.8-0.4L559.6,1027.4z M623.5,1063.8h-24.1v-24.9c0-1.2-0.4-2.2-0.8-2.2l-0.4,0c-12.6-1.5-25.8-6.8-37.3-14.9l-0.7-0.5l-0.2-0.5 c-0.5,0-1.3,0.4-1.6,0.6l-16.8,16.8l-17.7-17.8l16.8-16.8c0-0.1,0.2-1.1-0.6-2.9c-8-11.2-13.4-24.7-14.7-37.1l0-0.4 c0-0.5-1.2-0.8-2.2-0.8h-23.5v-24.2H523c1.2,0,2.2-0.4,2.2-0.8l0-0.4c1.5-12.6,6.8-25.8,14.9-37.3l0.5-0.7l0.5-0.2 c0-0.5-0.4-1.3-0.6-1.6l-16.8-16.8l17.7-17.8l16.8,16.8c0.1,0,1.1,0.2,2.9-0.6c11.2-8,24.7-13.4,37.1-14.7l0.4,0 c0.5,0,0.8-1.2,0.8-2.2v-23.5h24.1v23.5c0,1.2,0.4,2.2,0.8,2.2l0.4,0c12.6,1.5,25.8,6.8,37.3,14.9l0.7,0.5l0.2,0.5 c0.5,0,1.3-0.4,1.6-0.6l16.8-16.8l17.8,17.7l-16.8,16.8c0,0.1-0.2,1.1,0.6,2.9c8,11.2,13.4,24.7,14.7,37.1l0,0.4 c0,0.5,1.2,0.8,2.2,0.8h23.5v25.6h-23.5c-1.2,0-2.2,0.4-2.2,0.8l0,0.4c-1.5,12.6-6.8,25.8-14.9,37.3l-0.5,0.7l-0.5,0.2 c0,0.5,0.4,1.3,0.6,1.6l16.8,16.8l-17.8,17.7l-16.8-16.8c-0.1,0-1.1-0.2-2.9,0.6c-11.2,8-24.7,13.4-37.1,14.7l-0.4,0 c-0.5,0-0.8,1.2-0.8,2.2V1063.8z M606.4,1056.8h10.1v-16.5c0-5.2,3.2-9.1,7.6-9.2c11.2-1.3,23.6-6.2,33.9-13.6l0.2-0.2 l0.3-0.1c4.3-2.1,8.6-1.8,11.1,0.7l11.8,11.8l7.8-7.9l-11.8-11.8c-1.6-1.6-3.1-5-2.6-8c0.3-1.8,1.2-3.2,2.6-4.2 c7.1-10.2,11.9-22.3,13.2-33.3c0.1-4.4,4-7.6,9.2-7.6h16.5v-11.6h-16.5c-5.2,0-9.1-3.2-9.2-7.6c-1.3-11.2-6.2-23.6-13.6-33.9 l-0.2-0.2l-0.1-0.3c-2.1-4.3-1.8-8.6,0.7-11.1l11.8-11.8l-7.8-7.9l-11.8,11.8c-1.6,1.6-5,3.1-8,2.6c-1.8-0.3-3.2-1.2-4.2-2.6 c-10.2-7.1-22.3-11.9-33.3-13.2c-4.4-0.1-7.6-4-7.6-9.2v-16.5h-10.1v16.5c0,5.2-3.2,9.1-7.6,9.2 c-11.2,1.3-23.6,6.2-33.9,13.6l-0.2,0.2l-0.3,0.1c-4.3,2.1-8.6,1.8-11.1-0.7l-11.8-11.8l-7.9,7.8l11.8,11.8 c1.6,1.6,3.1,5,2.6,8c-0.3,1.8-1.2,3.2-2.6,4.2c-7.1,10.2-11.9,22.3-13.2,33.3c-0.1,4.4-4,7.6-9.2,7.6h-16.5v10.2H523 c5.2,0,9.1,3.2,9.2,7.6c1.3,11.2,6.2,23.6,13.6,33.9l0.2,0.2l0.1,0.3c2.1,4.3,1.8,8.6-0.7,11.1l-11.8,11.8l7.9,7.8l11.8-11.8 c1.6-1.6,5-3.1,8-2.6c1.8,0.3,3.2,1.2,4.2,2.6c10.2,7.1,22.3,11.9,33.3,13.2c4.4,0.1,7.6,4,7.6,9.2V1056.8z" class="st3"/></g><g><path d="M611.5,1002.4c-27.9,0-50.6-23.3-50.6-52s22.7-52,50.6-52c27.9,0,50.6,23.3,50.6,52 S639.4,1002.4,611.5,1002.4z M611.5,905.4c-24,0-43.6,20.2-43.6,45s19.6,45,43.6,45s43.6-20.2,43.6-45 S635.5,905.4,611.5,905.4z M611.5,992.4c-21.6,0-39.2-18.2-39.2-40.6c0-22.4,17.6-40.6,39.2-40.6c22.3,0,39.2,17.5,39.2,40.6 C650.7,974.2,633.1,992.4,611.5,992.4z M611.5,918.2c-17.8,0-32.2,15.1-32.2,33.6s14.4,33.6,32.2,33.6 c17.8,0,32.2-15.1,32.2-33.6C643.7,932.6,629.9,918.2,611.5,918.2z" class="st3"/></g></g><g><g><g><path d="M758.5,869.7c-2.3,0-6.7-1.8-7.6-5.1c-29.7-44.8-85.1-74.9-138-74.9c-49.1,0-94.8,22.3-125.4,61.2 c-0.9,1.7-2.4,2.9-4.3,3.5c-2.7,0.9-6.1,0.6-8.9-0.9c-1.8-0.9-3.1-2.4-3.8-4.5c-0.9-2.7-0.6-6.1,0.9-8.9l0.1-0.3l0.2-0.2 c33.3-43.5,84.3-68.5,139.8-68.5c29.1,0,59.2,7.9,86.9,22.9c27.5,14.8,50.7,35.6,67.3,60l0.3,0.4c2.1,4.3,1.5,8.2-1.3,10.6 C764.1,867.5,762.5,869.7,758.5,869.7z M757.7,862.4c0.1,0,0.1,0.1,0.2,0.1l0.1-1.6l1.9-0.9c0.2-0.1,0.8-0.4-0.1-2.2 c-15.9-23.4-38.2-43.2-64.7-57.5c-26.7-14.4-55.6-22-83.6-22c-53.2,0-102,23.8-134,65.5c-0.5,1.1-0.6,2.4-0.3,3.2 c0.1,0.3,0.2,0.4,0.3,0.4c1.2,0.6,2.6,0.8,3.5,0.5c0.3-0.1,0.4-0.2,0.4-0.3l0.2-0.3l0.2-0.3c32-40.8,79.8-64.1,131.2-64.1 c55.4,0,113.3,31.6,144.2,78.7l0.6,0.9V862.4z" class="st3"/></g><g><path d="M758.5,869.7h-27.1c-4.8,0-9.2-4.4-9.2-9.2s4.4-9.2,9.2-9.2h17.9v-16.5c0-4.8,4.4-9.2,9.2-9.2 c4.7,0,9.2,4.5,9.2,9.2v25.7c0,1.6,0,4.4-2.4,6.8l-0.1,0.1C762.7,869.7,760.2,869.7,758.5,869.7z M731.4,858.3 c-0.9,0-2.2,1.3-2.2,2.2s1.3,2.2,2.2,2.2h27.1c1.2,0,1.4,0,1.9-0.4c0.3-0.3,0.3-0.5,0.3-1.8v-25.7c0-0.9-1.3-2.2-2.2-2.2 c-0.9,0-2.2,1.3-2.2,2.2v23.5H731.4z" class="st3"/></g></g><g><g><path d="M656.3,1119.4h-22.6l14.1-4.6c-0.3-0.6-0.6-1.1-0.9-1.7c-1.2-2.5-0.9-5.3,0.8-7.7 c1.2-1.6,3-3.1,5.1-4.1l0.5-0.2c68-20.8,117.4-84.8,117.4-152.2c0-18.6-3.7-37.9-11.1-57.1c-2.1-4.5-0.1-9.3,4.6-11.6 c2.3-1.1,4.8-1.2,7-0.2c2,0.9,3.7,2.6,4.7,4.8l0.1,0.4c7.7,21.7,11.6,43.2,11.6,64c0,73.8-55.1,145.4-130.9,170.1l-0.5-1.4 V1119.4z M655.6,1107.8c-1.7,0.9-2.5,2-2.5,2.3c0.9,1.9,1.4,2.3,2.1,2.4c72.8-24,125.5-92.6,125.5-163.3 c0-19.9-3.7-40.6-11.1-61.4c-0.3-0.6-0.7-1-1.2-1.2c-0.2-0.1-0.6-0.2-1.2,0.1c-0.7,0.3-1.2,0.8-1.4,1.2 c-0.1,0.2-0.2,0.6,0.1,1.2l0.1,0.3c7.7,20.1,11.6,40.2,11.6,59.8C777.7,1019.2,726.4,1086,655.6,1107.8z" class="st3"/></g><g><path d="M678.6,1130.9H675l-23-10.1c-3-0.5-5.5-3.2-5.5-6.3v-5.3l13.2-22.1c1.1-2.2,3.3-3.7,5.9-4.1 c2.4-0.4,4.7,0.2,6.3,1.5c2,1.2,3.4,3.2,3.7,5.7c0.4,2.4-0.2,4.8-1.6,6.4l-7.6,11.9l13.4,5.6c2.4,1.2,4.2,3.1,5,5.4 c0.5,1.5,0.6,3.1,0.2,4.7c0.2,0.9,0.2,1.9-0.2,2.8C683.8,1129.7,680.5,1130.9,678.6,1130.9z M676.4,1123.9h1.2l0.5-1.1 c0.2-0.5,0.2-0.8,0.1-1c-0.2-0.5-0.7-1-1.3-1.3l-20.8-8.7l12.5-19.6l0.2-0.1c0.1-0.4,0-1.4-0.4-1.5l-0.6-0.3l-0.3-0.3 c-0.4-0.1-1.4,0-1.5,0.4l-0.1,0.3l-12.3,20.6v2.7h0.1L676.4,1123.9z" class="st3"/></g></g><g><g><path d="M611.5,1126.6c-97.2,0-176.2-79.7-176.2-177.6c0-20,8.5-43.7,15.3-62.6c0.7-1.9,1.4-3.8,2-5.6l0.1-0.4 l1.4-2.9c1.2-2.4,3.1-4.2,5.4-5c2.1-0.7,4.4-0.5,6.4,0.5c2.4,1.2,4.2,3.1,4.9,5.4c0.7,2.1,0.5,4.4-0.5,6.4l-1.3,2.7 c-0.6,1.5-1.1,3-1.7,4.5c-6.7,17.5-15.1,39.2-15.1,56.9c0,87.8,71.4,159.2,159.2,159.2h7.1c4.8,0,9.2,4.4,9.2,9.2 c0,4.8-4.3,9.1-9.1,9.2C617.2,1126.6,614.4,1126.6,611.5,1126.6z M459.1,883.3c-0.6,1.8-1.3,3.6-2,5.5 c-6.6,18.5-14.9,41.4-14.9,60.3c0,94.1,75.9,170.6,169.2,170.6c2.6,0,5.6,0,6.9-0.1l0.2,0c0.9,0,2.2-1.3,2.2-2.2 s-1.3-2.2-2.2-2.2h-7.1c-44.4,0-86.2-17.3-117.5-48.7c-31.4-31.4-48.7-73.1-48.7-117.5c0-19,8.6-41.4,15.5-59.4 c0.6-1.6,1.2-3.1,1.8-4.6l0.1-0.3l1.4-2.9c0.3-0.5,0.2-0.9,0.1-1.1c-0.2-0.5-0.7-1-1.4-1.4c-0.5-0.3-0.9-0.2-1.1-0.1 c-0.5,0.2-1,0.7-1.4,1.4L459.1,883.3z" class="st3"/></g><g><path d="M476.8,915.4h-3.7c-4.5,0-6.9-2.5-8.3-4l-0.4-0.4l-7.3-15.7l-12.6,6.9c-2.3,1.1-4.8,1.2-7,0.2 c-2-0.9-3.7-2.6-4.7-4.8c-2.2-4.5-0.3-9.5,4.5-11.8l23.5-11.7h0.7c0.1,0,0.3-0.1,0.4-0.1c0.9-0.3,3.2-1,5.4,0.3 c2.5,0.6,4.6,2.8,4.9,5.4l9.8,23.7c2.1,4.5,0.2,9.4-4.6,11.7L476.8,915.4z M470.3,907c1,1,1.5,1.4,2.8,1.4h2 c0.8-0.6,1.1-1.3,0.7-2.1l-0.1-0.2l-10.3-25h-0.8l-0.4-0.4c-0.4,0.1-0.9,0.3-1.4,0.4l-22.2,11.1c-1.4,0.7-1.8,1.5-1.3,2.4 c0.3,0.7,0.8,1.2,1.2,1.4c0.2,0.1,0.6,0.2,1.1-0.1l18.9-10.3L470.3,907z" class="st3"/></g></g></g></g></g></g><g class="st1"><path d="M904,320.3c-14.5,0-26.3-11.2-26.3-24.9c0-136.6-120-247.7-267.6-247.7c-147.6,0-267.7,111.1-267.7,247.7 c0,13.7-11.8,24.9-26.3,24.9s-26.3-11.2-26.3-24.9C289.1,220.2,319,148.3,374,92.8c29.7-30,65.1-53.7,105-70.3 C520.4,5.2,564.5-3.5,610.1-3.5c85.7,0,166.2,31.1,226.6,87.6c60.4,56.5,93.7,131.5,93.7,211.3 C930.4,309.1,918.6,320.3,904,320.3z M610.1,40.7c151.4,0,274.6,114.3,274.6,254.7c0,9.7,8.8,17.9,19.3,17.9 c10.7,0,19.4-8,19.4-17.9c0-77.8-32.5-151-91.4-206.2C772.8,34,694,3.5,610.1,3.5c-44.7,0-87.9,8.5-128.4,25.4 C442.6,45.2,408.1,68.3,379,97.7c-53.7,54.2-82.8,124.4-82.2,197.7c0,9.7,8.8,17.9,19.3,17.9c10.5,0,19.3-8.2,19.3-17.9 C335.4,155,458.6,40.7,610.1,40.7z" class="st3"/></g><g class="st1"><path d="M948.3,477.3H904c-14.5,0-26.3-11.2-26.3-24.9V266.9c0-13.7,11.8-24.9,26.3-24.9h44.2 c38.9,0,70.6,29.7,70.6,66.3v104.2C1018.8,447.6,986.5,477.3,948.3,477.3z M904,249c-10.5,0-19.3,8.2-19.3,17.9v185.5 c0,9.7,8.8,17.9,19.3,17.9h44.3c34.4,0,63.5-26.5,63.5-57.8V308.3c0-32.7-28.5-59.3-63.6-59.3H904z M946.9,433h-23.5V284.7h23.5 c13,0,23.5,9.9,23.5,22.1v104.1C970.4,423.1,959.9,433,946.9,433z M930.4,426h16.5c9.1,0,16.5-6.8,16.5-15.1V306.8 c0-8.3-7.4-15.1-16.5-15.1h-16.5V426z" class="st3"/></g><g class="st1"><g><path d="M696.2,519.3c-30,0-61.3-2.6-93.8-7.8l-0.3-0.1c-14.3-3.6-22.7-15.8-19.7-28.3c1.8-13.4,15-23,29.5-21.4 l0.2,0c111.9,17.2,203.7,2,272.9-45.1c5.5-3.9,12.4-5.4,19.4-4.1c6.9,1.3,12.8,5.1,16.8,10.7c8.1,11.4,5.3,26.4-6.5,34.9 l-0.1,0.1c-41.9,27.5-89.2,46-140.6,54.9C749.2,517.2,723.2,519.3,696.2,519.3z M603.6,504.6c61,9.8,117.9,10.3,169.1,1.4 c50.5-8.7,96.9-26.8,137.9-53.8c8.7-6.3,10.7-16.8,4.8-25.1c-2.9-4.1-7.4-6.9-12.4-7.8c-5.1-0.9-10.1,0.1-14.1,3 c-52,35.4-116.3,53.2-191.9,53.2c-27.2,0-55.9-2.3-86-6.9c-10.8-1.1-20.6,5.8-21.8,15.6l-0.1,0.4 C586.7,494.5,594.7,502.2,603.6,504.6z" class="st3"/></g></g><g class="st1"><path d="M316,477.3h-44.2c-38.9,0-70.6-29.7-70.6-66.3V306.8c0.1-16.7,7.6-33.3,20.8-45.5 c13.4-12.5,31.1-19.3,49.8-19.3H316c14.5,0,26.3,11.2,26.3,24.9v185.5C342.3,466.1,330.5,477.3,316,477.3z M271.8,249 c-34.4,0-63.5,26.5-63.6,57.8V411c0,32.7,28.5,59.3,63.6,59.3H316c10.5,0,19.3-8.2,19.3-17.9V266.9c0-9.7-8.8-17.9-19.3-17.9 H271.8z M296.6,434.6h-23.5c-13,0-23.5-9.9-23.5-22.1V308.4c0-12.2,10.5-22.1,23.5-22.1h23.5V434.6z M273.1,293.3 c-9.1,0-16.5,6.8-16.5,15.1v104.1c0,8.3,7.4,15.1,16.5,15.1h16.5V293.3H273.1z" class="st3"/></g></g></g><g><path d="M829.8,595.1c-8.6,0-15.7,2.9-21.4,8.6c-52.8,51.4-124.2,79.9-198.4,79.9s-144.1-28.6-198.3-80 c-5.7-5.7-14.3-8.6-21.4-8.6C234.7,606.5,112,737.8,112,894.8v138.4c0,102.7,82.8,185.5,185.5,185.5h623.6 c102.7,0,185.5-82.8,185.5-185.5V894.8C1108.1,737.8,985.4,606.5,829.8,595.1z" class="st3"/><g><g class="st0"><g class="st1"><path d="M758.5,866.2c-1.4,0-4.3-1.4-4.3-2.9c-30-45.7-87-77.1-141.3-77.1c-49.9,0-97,22.8-128.4,62.8 c-1.4,2.9-5.7,2.9-8.6,1.4c-2.9-1.4-2.9-5.7-1.4-8.6c32.8-42.8,82.8-67.1,137-67.1c58.5,0,118.4,32.8,151.3,81.3 c1.4,2.9,1.4,5.7-1.4,7.1C761.3,866.2,759.9,866.2,758.5,866.2z" class="st3"/><path d="M758.5,866.2h-27.1c-2.9,0-5.7-2.9-5.7-5.7c0-2.9,2.9-5.7,5.7-5.7h21.4v-20c0-2.9,2.9-5.7,5.7-5.7 s5.7,2.9,5.7,5.7v25.7c0,1.4,0,2.9-1.4,4.3C761.3,866.2,759.9,866.2,758.5,866.2z" class="st3"/></g><g class="st1"><path d="M655.7,1115.9c-2.9,0-4.3-1.4-5.7-4.3s1.4-5.7,4.3-7.1c69.9-21.4,119.9-87,119.9-155.5 c0-20-4.3-40-11.4-58.5c-1.4-2.9,0-5.7,2.9-7.1c2.9-1.4,5.7,0,7.1,2.9c7.1,20,11.4,41.4,11.4,62.8 C784.2,1021.8,729.9,1091.7,655.7,1115.9C657.1,1115.9,655.7,1115.9,655.7,1115.9z" class="st3"/><path d="M678.6,1127.4c-1.4,0-1.4,0-2.9,0l-22.8-10c-1.4,0-2.9-1.4-2.9-2.9c0-1.4,0-2.9,0-4.3l12.8-21.4 c1.4-2.9,5.7-2.9,7.1-1.4c2.9,1.4,2.9,5.7,1.4,7.1l-10,15.7l17.1,7.1c2.9,1.4,4.3,4.3,2.9,7.1 C682.8,1125.9,680,1127.4,678.6,1127.4z" class="st3"/></g><g class="st1"><path d="M611.5,1123.1c-95.6,0-172.7-78.5-172.7-174.1c0-21.4,10-47.1,17.1-67.1l1.4-2.9c1.4-2.9,4.3-4.3,7.1-2.9 c2.9,1.4,4.3,4.3,2.9,7.1l-1.4,2.9c-7.1,18.6-17.1,42.8-17.1,62.8c0,89.9,72.8,162.7,162.7,162.7c2.9,0,4.3,0,7.1,0 c2.9,0,5.7,2.9,5.7,5.7c0,2.9-2.9,5.7-5.7,5.7C617.2,1123.1,614.3,1123.1,611.5,1123.1z" class="st3"/><path d="M473.1,911.9c-2.9,0-4.3-1.4-5.7-2.9l-8.6-18.6l-15.7,8.6c-2.9,1.4-5.7,0-7.1-2.9s0-5.7,2.9-7.1l22.8-11.4 c1.4,0,2.9-1.4,4.3,0c1.4,0,2.9,1.4,2.9,2.9l10,24.3c1.4,2.9,0,5.7-2.9,7.1C474.5,911.9,474.5,911.9,473.1,911.9z" class="st3"/></g><g class="st1"><path d="M625.8,1070.3h-28.5c-2.9,0-5.7-2.9-5.7-5.7v-20c-11.4-2.9-21.4-7.1-31.4-12.8l-14.3,14.3 c-1.4,1.4-2.9,1.4-4.3,1.4l0,0c-1.4,0-2.9,0-4.3-1.4l-20-20c-2.9-2.9-2.9-5.7,0-8.6l14.3-14.3c-5.7-10-11.4-20-12.8-31.4h-20 c-2.9,0-5.7-2.9-5.7-5.7v-28.5c0-2.9,2.9-5.7,5.7-5.7h20c2.9-11.4,7.1-22.8,12.8-31.4l-14.3-14.3c-2.9-2.9-2.9-5.7,0-8.6l20-20 c1.4-2.9,5.7-2.9,8.6,0l14.3,14.3c10-5.7,20-11.4,31.4-12.8v-20c0-2.9,2.9-5.7,5.7-5.7h28.5c2.9,0,5.7,2.9,5.7,5.7v20 c11.4,2.9,21.4,7.1,31.4,12.8l14.3-14.3c1.4-2.9,5.7-2.9,8.6,0l20,20c2.9,2.9,2.9,5.7,0,8.6l-14.3,14.3 c5.7,10,11.4,20,12.8,31.4h20c2.9,0,5.7,2.9,5.7,5.7v28.5c0,2.9-2.9,5.7-5.7,5.7h-20c-2.9,11.4-7.1,22.8-12.8,31.4l14.3,14.3 c2.9,2.9,2.9,5.7,0,8.6l-20,20c-1.4,2.9-5.7,2.9-8.6,0l-14.3-14.3c-10,5.7-20,11.4-31.4,12.8v20 C631.5,1068.9,628.6,1070.3,625.8,1070.3z M602.9,1060.3H620v-20c0-2.9,1.4-5.7,4.3-5.7c12.8-1.4,25.7-7.1,35.7-14.3 c2.9-1.4,5.7-1.4,7.1,0l14.3,14.3l12.8-12.8l-14.3-14.3c-1.4-1.4-2.9-5.7,0-7.1c7.1-10,12.8-22.8,14.3-35.7 c0-2.9,2.9-4.3,5.7-4.3h20v-18.6h-20c-2.9,0-5.7-1.4-5.7-4.3c-1.4-12.8-7.1-25.7-14.3-35.7c-1.4-2.9-1.4-5.7,0-7.1l14.3-14.3 l-12.8-12.8l-14.3,14.3c-1.4,1.4-5.7,2.9-7.1,0c-10-7.1-22.8-12.8-35.7-14.3c-2.9,0-4.3-2.9-4.3-5.7v-20h-17.1v20 c0,2.9-1.4,5.7-4.3,5.7c-12.8,1.4-25.7,7.1-35.7,14.3c-2.9,1.4-5.7,1.4-7.1,0l-14.3-14.3l-12.8,12.8l14.3,14.3 c1.4,1.4,2.9,5.7,0,7.1c-7.1,10-12.8,22.8-14.3,35.7c0,2.9-2.9,4.3-5.7,4.3h-20V959h20c2.9,0,5.7,1.4,5.7,4.3 c1.4,12.8,7.1,25.7,14.3,35.7c1.4,2.9,1.4,5.7,0,7.1l-14.3,14.3l12.8,12.8l14.3-14.3c1.4-1.4,5.7-2.9,7.1,0 c10,7.1,22.8,12.8,35.7,14.3c2.9,0,4.3,2.9,4.3,5.7V1060.3L602.9,1060.3z" class="st3"/><path d="M611.5,998.9c-25.7,0-47.1-21.4-47.1-48.5s21.4-48.5,47.1-48.5s47.1,21.4,47.1,48.5 S637.2,998.9,611.5,998.9z M611.5,914.7c-20,0-35.7,17.1-35.7,37.1s15.7,37.1,35.7,37.1s35.7-17.1,35.7-37.1 C647.2,930.4,631.5,914.7,611.5,914.7z" class="st3"/></g></g><path d="M610.1,580.8L610.1,580.8c138.4,0,252.6-112.7,252.6-252.6C862.7,189.8,748.5,77,610.1,77 S357.5,189.8,357.5,329.6C357.5,468.1,471.6,580.8,610.1,580.8z M610.1,134.1c107,0,195.5,87,195.5,195.5 c0,107-87,195.5-195.5,195.5l0,0c-107,0-195.5-87-195.5-195.5S503,134.1,610.1,134.1z" class="st4"/></g></g><path d="M973.1,445.1h-52.5c-6.6,0-12-5.4-12-12V284.6c0-6.6,5.4-12,12-12h52.5c6.6,0,12,5.4,12,12v148.5	C985.1,439.7,979.7,445.1,973.1,445.1z" class="st5"/><path d="M299.3,446.7h-52.5c-6.6,0-12-5.4-12-12V286.2c0-6.6,5.4-12,12-12h52.5c6.6,0,12,5.4,12,12v148.5	C311.3,441.3,305.9,446.7,299.3,446.7z" class="st5"/><path d="M948.2,245.5h-25.8C897,106.4,767.3,0,610.1,0S322,106.4,297.4,245.5h-25.6c-37.2,0-67,28.6-67.1,61.3V411	c0,34.3,30,62.8,67.1,62.8H316c12.8,0,22.8-10,22.8-21.4V297.3c0.1-0.6,0.1-1.3,0.1-1.9c0-138.4,121.4-251.2,271.2-251.2	S881.2,157,881.2,295.4v127.8c-70.5,45.6-161.3,58.6-269.7,41.9c-12.9-1.4-24.3,7.2-25.7,18.6c-2.9,11.5,5.7,21.4,17.1,24.3	c113,18.2,208.2,4.5,286.8-39c3.9,3,8.9,4.8,14.3,4.8h44.3c37.1,0,67-28.6,67-61.3V308.3C1015.3,274,985.3,245.5,948.2,245.5z M293.1,431.1h-20c-11.4,0-20-8.6-20-18.6V308.4c0-10,8.6-18.6,20-18.6h20V431.1z M966.9,410.9c0,10-8.6,18.6-20,18.6h-20V288.2h20	c11.4,0,20,8.6,20,18.6V410.9z" class="st3"/><g id="Layer_2_1_"><g><g><path d="M480.7,883.4c20.9-38.5,58.9-66.6,103.4-74.2l-8.8-50.6C514.8,769,463.7,807,435.1,858.7L480.7,883.4z" class="st6"/><path d="M482.9,1030.2c-13.2-22-20.9-47.8-20.9-75.9c0-18.1,3.3-35.2,9.3-51.1L423,885.6 c-7.7,21.5-12.1,44.6-12.1,68.8c0,37.4,10.5,72.6,28.1,102.3L482.9,1030.2z" class="st7"/><path d="M610.9,1101.8h-1.7c-45.7,0-86.3-20.9-113.9-53.9l-39.6,33c36.3,44,91.9,72.6,153.4,72.6c0.5,0,1.7,0,2.2,0 L610.9,1101.8z" class="st6"/><path d="M737.4,1026.9c-21.5,38-60,65.5-104.5,72.6l8.2,51.1c60.5-9.9,111.6-46.8,140.8-98.4L737.4,1026.9z" class="st7"/><path d="M736.3,880.1c12.7,22,19.8,46.8,19.8,74.2c0,18.7-3.3,36.3-9.9,52.8l48.4,18.7c8.2-22,13.2-46.2,13.2-70.9 c0-36.3-9.9-71-27-100.1L736.3,880.1z" class="st6"/></g><g><g><g><rect width="48.4" height="74.6" x="687.3" y="778.1" class="st8"/><g><polygon points="698.3 852.7 687.3 841.6 713.5 815.4 687.3 789.2 698.3 778.1 735.6 815.4" class="st9"/></g></g><g><rect width="48.4" height="74.6" x="612.6" y="778.1" class="st8"/><g><polygon points="623.7 852.7 612.6 841.6 638.9 815.4 612.6 789.2 623.7 778.1 661 815.4" class="st9"/></g></g></g></g></g></g></svg>