<svg width="24" height="24" viewBox="0 0 24 24" fill="none" xmlns="http://www.w3.org/2000/svg">
<path d="M3.9506 8.26146C4.19114 8.34302 4.4478 8.3871 4.71429 8.3871C4.98014 8.3871 5.23621 8.34323 5.47625 8.26204L5.47619 16.3846C5.47619 18.0527 6.76621 19.4047 8.35714 19.4047C9.89125 19.4047 11.1456 18.1476 11.2332 16.5621L11.2381 16.3846L11.2375 15.0383C11.5179 15.1536 11.8233 15.217 12.1429 15.217C12.3567 15.217 12.5641 15.1886 12.762 15.1353L12.7619 16.3846C12.7619 18.9334 10.79 21 8.35714 21C5.99379 21 4.06544 19.0498 3.95717 16.6018L3.95238 16.3846L3.9506 8.26146ZM19.2857 17.4106C20.2325 17.4106 21 18.2141 21 19.2053C21 20.1965 20.2325 21 19.2857 21C18.3389 21 17.5714 20.1965 17.5714 19.2053C17.5714 18.2141 18.3389 17.4106 19.2857 17.4106ZM15.6429 4.07457C18.0757 4.07457 20.0476 6.14114 20.0476 8.68998L20.0485 16.7382C19.8082 16.6569 19.5519 16.6129 19.2857 16.6129C19.0199 16.6129 18.7638 16.6568 18.5238 16.738L18.5238 8.68998C18.5238 7.02184 17.2338 5.66988 15.6429 5.66988C14.0519 5.66988 12.7619 7.02184 12.7619 8.68998L12.762 10.114C12.5641 10.0606 12.3567 10.0323 12.1429 10.0323C11.8233 10.0323 11.5179 10.0956 11.2375 10.211L11.2381 8.68998C11.2381 6.14114 13.21 4.07457 15.6429 4.07457ZM12.1429 10.8299C13.0896 10.8299 13.8571 11.6334 13.8571 12.6246C13.8571 13.6158 13.0896 14.4194 12.1429 14.4194C11.1961 14.4194 10.4286 13.6158 10.4286 12.6246C10.4286 11.6334 11.1961 10.8299 12.1429 10.8299ZM4.71429 4C5.66106 4 6.42857 4.80352 6.42857 5.79472C6.42857 6.78592 5.66106 7.58944 4.71429 7.58944C3.76751 7.58944 3 6.78592 3 5.79472C3 4.80352 3.76751 4 4.71429 4Z" fill="white"/>
</svg>
