<svg xmlns="http://www.w3.org/2000/svg" role="img" viewBox="-3.82 -0.07 367.64 360.14"><defs><style>.cls-1{fill:#fff}</style></defs><path d="M98.5 253.002a4.621 4.621 0 1 0 4.767 4.62 4.7 4.7 0 0 0-4.767-4.62zm151.861 9.238a4.621 4.621 0 1 0-4.767-4.618 4.7 4.7 0 0 0 4.767 4.618zm-16.246-38.307c20.899 0 37.94-16.31 37.94-36.346 0-15.115-9.714-28.097-23.357-33.58 0-1.079.096-2.18.096-3.281 0-30.3-25.623-54.93-57.345-54.93-22.876 0-42.449 12.82-51.681 31.308a27.488 27.488 0 0 0-16.199-5.32c-14.704 0-26.467 11.366-26.467 25.356a24.805 24.805 0 0 0 1.133 7.5 36.91 36.91 0 0 0-19.019 32.033c0 20.317 17.139 35.97 38.23 37.166h114.596c.674 0 1.325.094 2.073.094zM86.48 186.673a29.642 29.642 0 0 1 15.349-25.722l5.085-2.894-1.746-5.585a17.543 17.543 0 0 1-.802-5.332c0-9.945 8.482-18.091 19.203-18.091a20.22 20.22 0 0 1 11.904 3.914l6.946 5.091 3.847-7.705c8.256-16.532 25.624-27.288 45.183-27.288 27.746 0 50.082 21.417 50.082 47.665 0 .317-.01.618-.042 1.33-.04.933-.055 1.359-.055 1.95v4.91l4.555 1.83c11.297 4.54 18.803 15.109 18.803 26.84 0 15.948-13.716 29.083-30.677 29.083-.098 0-.225-.006-.565-.03a28.708 28.708 0 0 0-.78-.047c-.337-.013-.337-.013-.729-.017H117.447c-17.378-.996-30.967-13.96-30.967-29.902zm84.389 87.649a4.77 4.77 0 1 0 4.766-4.619 4.7 4.7 0 0 0-4.766 4.62z" class="cls-1"/><path d="M268.18 342.71l82.805-103.833a27.58 27.58 0 0 0 5.326-23.333L326.758 86.066a27.58 27.58 0 0 0-14.922-18.712L192.181 9.731a27.581 27.581 0 0 0-23.934 0L48.592 67.354A27.58 27.58 0 0 0 33.67 86.066L4.118 215.544a27.58 27.58 0 0 0 5.325 23.333L92.247 342.71a27.58 27.58 0 0 0 21.563 10.384h132.808a27.58 27.58 0 0 0 21.563-10.384zm-31.419-89.91a14.315 14.315 0 1 1 0 9.642h-27.193v-2.435h-.185V231.11q-11.57-.005-28.926-.01v29.743a14.462 14.462 0 1 1-9.642 0V231.1l-28.926-.005v28.913h-.185v2.435H112.1a14.315 14.315 0 1 1 0-9.642h20.147v-21.707l-15.211-.002c-25.171-1.426-45.084-20.422-45.084-44.418a43.897 43.897 0 0 1 18.143-35.396 32.899 32.899 0 0 1-.257-4.137c0-18.102 15.114-32.619 33.731-32.619a34.614 34.614 0 0 1 13.506 2.755 65.012 65.012 0 0 1 54.374-28.743c35.19 0 63.883 27.091 64.596 60.904a43.519 43.519 0 0 1 23.274 38.15c0 24.114-20.357 43.61-45.204 43.61-.528 0-.905-.02-1.563-.064-.112-.007-4.63-.013-13.527-.019V252.8z" class="cls-1"/></svg>