<svg width="24" height="24" viewBox="0 0 24 24" fill="none" xmlns="http://www.w3.org/2000/svg">
<path d="M21.75 11.0303H2.25V12.9803H21.75V11.0303Z" fill="#DDDDDD"/>
<path d="M11.9999 18.8197C15.7665 18.8197 18.8199 15.7663 18.8199 11.9997C18.8199 8.23311 15.7665 5.17969 11.9999 5.17969C8.23335 5.17969 5.17993 8.23311 5.17993 11.9997C5.17993 15.7663 8.23335 18.8197 11.9999 18.8197Z" fill="white"/>
<path d="M14.4401 10.0501V9.56012C14.4401 8.91299 14.183 8.29237 13.7254 7.83478C13.2678 7.37719 12.6472 7.12012 12.0001 7.12012C11.3529 7.12012 10.7323 7.37719 10.2747 7.83478C9.81713 8.29237 9.56006 8.91299 9.56006 9.56012V10.0501C9.29484 10.0501 9.04049 10.1555 8.85295 10.343C8.66541 10.5305 8.56006 10.7849 8.56006 11.0501V14.9401C8.56006 15.2053 8.66541 15.4597 8.85295 15.6472C9.04049 15.8348 9.29484 15.9401 9.56006 15.9401H14.4401C14.7053 15.9401 14.9596 15.8348 15.1472 15.6472C15.3347 15.4597 15.4401 15.2053 15.4401 14.9401V11.0001C15.4272 10.7437 15.3162 10.502 15.1301 10.3251C14.9439 10.1483 14.6968 10.0498 14.4401 10.0501Z" fill="#4285F4"/>
<path d="M13.6601 10.0504H10.3401V9.56039C10.3401 9.12013 10.515 8.6979 10.8263 8.38659C11.1376 8.07528 11.5598 7.90039 12.0001 7.90039C12.4403 7.90039 12.8626 8.07528 13.1739 8.38659C13.4852 8.6979 13.6601 9.12013 13.6601 9.56039V10.0504Z" fill="white"/>
<path d="M12 13.94C12.5357 13.94 12.97 13.5057 12.97 12.97C12.97 12.4343 12.5357 12 12 12C11.4643 12 11.03 12.4343 11.03 12.97C11.03 13.5057 11.4643 13.94 12 13.94Z" fill="white"/>
</svg>
