<svg xmlns="http://www.w3.org/2000/svg" width="18" height="18" viewBox="0 0 18 18"><defs><linearGradient id="a" x1="2.55" y1="10.17" x2="15.3" y2="10.17" gradientTransform="rotate(.15 11.51 38.182)" gradientUnits="userSpaceOnUse"><stop offset="0" stop-color="#005ba1"/><stop offset=".07" stop-color="#0060a9"/><stop offset=".36" stop-color="#0071c8"/><stop offset=".52" stop-color="#0078d4"/><stop offset=".64" stop-color="#0074cd"/><stop offset=".82" stop-color="#006abb"/><stop offset="1" stop-color="#005ba1"/></linearGradient></defs><path d="M9 5.14c-3.52 0-6.37-1-6.37-2.33v12.35c0 1.27 2.8 2.31 6.28 2.34H9c3.52 0 6.38-1 6.38-2.31V2.84c.01 1.28-2.85 2.31-6.38 2.3z" fill="url(#a)"/><path d="M15.39 2.84c0 1.28-2.86 2.31-6.38 2.3s-6.37-1-6.37-2.33S5.5.49 9 .5s6.37 1.06 6.37 2.34" fill="#f2f2f2"/><path d="M13.9 2.65c0 .81-2.19 1.47-4.89 1.46s-4.88-.67-4.88-1.49S6.32 1.15 9 1.16s4.89.67 4.88 1.49" fill="#50e6ff"/><path d="M9 3a11.86 11.86 0 00-3.88.56A11.39 11.39 0 009 4.11a11.44 11.44 0 003.88-.57A12.08 12.08 0 009 3z" fill="#198ab3"/><path d="M12.47 10.18l-.82-.26c-.05 0-.08 0-.1-.09l-.17-.42a.38.38 0 010-.15c.12-.26.24-.52.38-.77a.11.11 0 000-.16c-.14-.14-.28-.26-.41-.41a.13.13 0 00-.22 0l-.7.35h-.13l-.41-.17a.14.14 0 01-.16-.1c-.1-.27-.2-.54-.28-.81a.11.11 0 00-.1-.09h-.67c-.07 0-.08 0-.12.08-.08.28-.17.55-.27.82 0 0 0 .09-.09.1l-.42.17a.22.22 0 01-.16 0l-.8-.39a.11.11 0 00-.12 0c-.15.16-.3.33-.47.48a.08.08 0 000 .12c.13.25.25.51.39.76a.18.18 0 010 .16l-.18.39a.14.14 0 01-.12.12c-.27.1-.54.2-.81.28-.07 0-.09.05-.09.11v.7c0 .07 0 .1.08.12.28.08.55.19.82.27a.13.13 0 01.1.11c0 .13.12.27.17.41a.19.19 0 010 .15c-.14.27-.26.54-.39.81a.09.09 0 000 .11l.5.49s0 .05.08 0l.48-.25.35-.22h.14l.42.17c.05 0 .07.05.09.1.1.27.2.56.28.83a.12.12 0 00.11.09h.66c.07 0 .09 0 .12-.08.09-.27.19-.55.27-.82a.15.15 0 01.09-.1l.43-.17a.15.15 0 01.13 0l.8.39a.1.1 0 00.12 0c.15-.16.31-.33.48-.48s.05-.07 0-.14a8.1 8.1 0 01-.39-.78.11.11 0 010-.15c.06-.14.12-.27.17-.41a.13.13 0 01.1-.1c.27-.1.55-.21.82-.29.07 0 .08-.05.08-.12v-.65c0-.21.01-.08-.06-.11zm-2.36 1.52l-.08.07a1.58 1.58 0 01-1.87.12l-.1-.07a1.61 1.61 0 01-.63-1 1.53 1.53 0 01.46-1.41c.05-.05.05-.07 0-.12l-.13-.15H8.59v.77l-.22-.21s0-.05-.1 0a1.12 1.12 0 00-.11 1.57.8.8 0 00.17.15l.12.06a1 1 0 00.56.17 1 1 0 00.94-.55 1.09 1.09 0 00-.19-1.3s-.1-.07-.11-.14 0 0 0-.07a1.62 1.62 0 00.18-.19c.14-.11.14-.11.24 0a1.63 1.63 0 01.04 2.3z" fill="#fff"/></svg>