<svg width="40" height="40" viewBox="0 0 40 40" xmlns="http://www.w3.org/2000/svg">  <g id="Icon-Architecture/32/Arch_TorchServe_32" stroke="none" stroke-width="1" fill="none" fill-rule="evenodd">  <g id="Icon-Service/32/TorchServe_32" transform="translate(8.000000, 6.000000)" fill="#FFFFFF"> <path d="M15.772,4.785 C15.772,5.336 16.22,5.785 16.772,5.785 C17.324,5.785 17.772,5.336 17.772,4.785 C17.772,4.234 17.324,3.785 16.772,3.785 C16.22,3.785 15.772,4.234 15.772,4.785 M14.772,4.785 C14.772,3.682 15.669,2.785 16.772,2.785 C17.875,2.785 18.772,3.682 18.772,4.785 C18.772,5.888 17.875,6.785 16.772,6.785 C15.669,6.785 14.772,5.888 14.772,4.785 M23.544,15.936 C23.544,22.428 18.263,27.708 11.772,27.708 C5.281,27.708 1.77635684e-15,22.428 1.77635684e-15,15.936 C1.77635684e-15,12.713 1.277,9.705 3.596,7.466 L11.398,0 L12.089,0.723 L4.29,8.187 C2.168,10.234 1,12.987 1,15.936 C1,21.876 5.832,26.708 11.772,26.708 C17.712,26.708 22.544,21.876 22.544,15.936 C22.544,12.957 21.355,10.185 19.196,8.131 L19.885,7.406 C22.245,9.651 23.544,12.681 23.544,15.936" id="TorchServe-Icon_32_Squid"></path> </g> </g></svg>