<svg width="40" height="40" viewBox="0 0 40 40" fill="none" xmlns="http://www.w3.org/2000/svg">
<g clip-path="url(#clip0_23298_4060)">
<path d="M40 0H0V40H40V0Z" fill="#E7157B" fill-opacity="0.12"/>
<path fill-rule="evenodd" clip-rule="evenodd" d="M27 19.982H30V18.9805H27V19.982ZM14 25.991H17V24.9895H14V25.991ZM9 25.991H12V24.9895H9V25.991ZM9 22.9865H15V21.985H9V22.9865ZM9 16.9774H14V15.9759H9V16.9774ZM9 19.982H25V18.9805H9V19.982ZM18.968 30.9985H7V13.9729H18.968V16.9945H19.968V13.4722C19.968 13.1958 19.745 12.9714 19.468 12.9714H6.5C6.223 12.9714 6 13.1958 6 13.4722V31.4992C6 31.7757 6.223 32 6.5 32H19.468C19.745 32 19.968 31.7757 19.968 31.4992V22.002H18.968V30.9985ZM34 18.4797C34 22.9354 30.04 22.9865 30 22.9865H22V21.985H30C30.305 21.982 33 21.8628 33 18.4797C33 15.6324 30.431 15.0546 29.917 14.9674C29.66 14.9244 29.48 14.691 29.502 14.4316L29.505 14.4016C29.476 12.7952 28.49 12.2924 28.063 12.1512C27.264 11.8838 26.376 12.1402 25.905 12.7701C25.796 12.9173 25.61 12.9925 25.43 12.9664C25.248 12.9384 25.095 12.8132 25.034 12.6389C24.723 11.7686 24.272 11.2048 23.646 10.5768C22.077 9.01849 19.955 8.58985 17.963 9.42711C16.919 9.86677 16.007 10.8653 15.461 12.1642L14.539 11.7756C15.185 10.2373 16.292 9.04453 17.575 8.50372C19.954 7.50222 22.486 8.01298 24.352 9.86777C24.886 10.4036 25.33 10.9254 25.675 11.6024C26.424 11.0495 27.427 10.8853 28.379 11.1998C29.595 11.6054 30.364 12.661 30.488 14.0651C32.19 14.4947 34 15.8568 34 18.4797Z" fill="#E7157B"/>
</g>
<rect x="0.5" y="0.5" width="39" height="39" stroke="#E7157B"/>
<defs>
<clipPath id="clip0_23298_4060">
<rect width="40" height="40" fill="white"/>
</clipPath>
</defs>
</svg>
