<svg xmlns="http://www.w3.org/2000/svg" viewBox="0 0 2000 2000"><defs><style>.cls-1,.cls-2,.cls-3{fill:#fff;}.cls-1{opacity:0.75;}.cls-2{opacity:0.5;}</style></defs><g id="Layer_1" data-name="Layer 1"><polygon class="cls-1" points="1000 1804.23 305.51 1403.26 528.91 1274.36 1000 1546.34 1000 1401.18 305.51 1000.21 528.8 871.25 1000 1143.29 1000 998.16 305.51 597.2 305.83 597.01 140.29 501.35 140.29 501.35 140.29 1498.65 1000 1995 1000 1995 1000 1804.23 1000 1804.23"/><polygon class="cls-2" points="1000 5 140.29 501.35 305.83 597.01 1000 195.77 1694.49 597.2 1859.7 501.35 1000 5"/><polygon class="cls-3" points="1694.49 597.2 1000 998.16 1000 1143.29 1471.24 871.22 1694.49 1000.21 1000 1401.18 1000 1546.34 1471.06 1274.38 1694.49 1403.26 1000 1804.23 1000 1995 1859.7 1498.65 1859.7 501.35 1694.49 597.2"/></g></svg>
