<svg width="40" height="40" viewBox="0 0 40 40" fill="none" xmlns="http://www.w3.org/2000/svg">
<g clip-path="url(#clip0_23295_3061)">
<path d="M40 0H0V40H40V0Z" fill="#DD344C" fill-opacity="0.12"/>
<path fill-rule="evenodd" clip-rule="evenodd" d="M33 23.224L25 20.912V18.027L33 20.354V23.224ZM29.225 29.758L27.285 31.696L23.306 24.561L25.254 22.613L29.225 29.758ZM22.452 24H18.712C18.489 24 18.293 24.148 18.231 24.362L18.159 24.612L16 22.453V18.713C16 18.49 15.853 18.294 15.639 18.232L15.389 18.16L17.548 16H21.288C21.511 16 21.707 15.853 21.769 15.639L21.841 15.389L24 17.548V21.288C24 21.511 24.147 21.706 24.361 21.768L24.611 21.841L22.452 24ZM19.646 33H16.776L19.088 25H21.974L19.646 33ZM10.242 29.224L8.304 27.286L15.439 23.306L17.388 25.255L10.242 29.224ZM7 19.646V16.777L15 19.089V21.974L7 19.646ZM10.775 10.243L12.715 8.305L16.694 15.439L14.746 17.388L10.775 10.243ZM20.354 7H23.224L20.912 15H18.026L20.354 7ZM29.758 10.776L31.696 12.715L24.561 16.695L22.612 14.746L29.758 10.776ZM33.64 19.499L25.719 17.194L32.761 13.266C32.898 13.189 32.991 13.053 33.013 12.898C33.034 12.743 32.982 12.586 32.871 12.475L30.198 9.803C30.041 9.645 29.797 9.611 29.602 9.719L22.309 13.771L24.369 6.639C24.413 6.488 24.383 6.326 24.288 6.2C24.193 6.074 24.046 6 23.889 6H19.979C19.756 6 19.561 6.147 19.498 6.361L17.194 14.282L13.266 7.24C13.189 7.103 13.054 7.01 12.898 6.988C12.736 6.966 12.587 7.019 12.476 7.13L9.802 9.803C9.644 9.96 9.609 10.204 9.718 10.399L13.771 17.693L6.639 15.631C6.488 15.589 6.326 15.618 6.199 15.712C6.074 15.807 6 15.954 6 16.112V20.022C6 20.244 6.146 20.44 6.36 20.502L14.281 22.807L7.239 26.735C7.102 26.811 7.009 26.948 6.987 27.103C6.966 27.258 7.018 27.414 7.129 27.525L9.802 30.198C9.959 30.356 10.205 30.391 10.398 30.282L17.691 26.23L15.631 33.362C15.587 33.513 15.617 33.675 15.712 33.801C15.807 33.927 15.954 34 16.111 34H20.021C20.244 34 20.439 33.853 20.502 33.64L22.806 25.719L26.734 32.761C26.811 32.898 26.946 32.991 27.102 33.013C27.264 33.035 27.413 32.981 27.524 32.871L30.198 30.198C30.356 30.04 30.391 29.797 30.282 29.602L26.229 22.308L33.361 24.37C33.514 24.414 33.675 24.384 33.801 24.288C33.926 24.194 34 24.046 34 23.889V19.979C34 19.757 33.854 19.561 33.64 19.499Z" fill="#DD344C"/>
</g>
<rect x="0.5" y="0.5" width="39" height="39" stroke="#DD344C"/>
<defs>
<clipPath id="clip0_23295_3061">
<rect width="40" height="40" fill="white"/>
</clipPath>
</defs>
</svg>
