<svg width="40" height="40" viewBox="0 0 40 40" fill="none" xmlns="http://www.w3.org/2000/svg">
<g clip-path="url(#clip0_23295_3293)">
<path d="M40 0H0V40H40V0Z" fill="#ED7100" fill-opacity="0.12"/>
<path fill-rule="evenodd" clip-rule="evenodd" d="M25.0289 29.566L20.0289 26.233V23.809L22.5229 22.562L25.0289 23.88V29.566ZM14.0289 29.566V23.88L16.5349 22.562L19.0289 23.809V26.233L14.0289 29.566ZM8.52087 20L13.6129 17.03L16.0289 18.302V21.698L13.6129 22.97L8.52087 20ZM14.0289 10.434L19.0289 13.768V16.191L16.5349 17.438L14.0289 16.12V10.434ZM19.5289 22.941L17.0289 21.691V18.309L19.5289 17.059L22.0289 18.309V21.691L19.5289 22.941ZM25.0289 10.434V16.12L22.5229 17.438L20.0289 16.191V13.768L25.0289 10.434ZM30.5369 20L25.4449 22.97L23.0289 21.698V18.302L25.4449 17.03L30.5369 20ZM32.2509 24.448L31.8069 23.552L29.0939 24.891L26.4889 23.52L31.7809 20.432C31.9339 20.342 32.0289 20.178 32.0289 20C32.0289 19.822 31.9339 19.658 31.7809 19.568L26.4889 16.481L29.0939 15.109L31.8069 16.448L32.2509 15.552L30.1879 14.534L32.2609 13.442L31.7969 12.558L29.6999 13.661L29.9519 11.447L28.9579 11.334L28.6289 14.225L26.0289 15.593V9.5C26.0289 9.316 25.9269 9.146 25.7649 9.059C25.6029 8.973 25.4059 8.982 25.2519 9.084L20.0289 12.566V9.741L22.3409 7.891L21.7159 7.109L20.0289 8.46V6H19.0289V8.46L17.3419 7.109L16.7159 7.891L19.0289 9.741V12.566L13.8059 9.084C13.6519 8.982 13.4559 8.973 13.2929 9.059C13.1309 9.146 13.0289 9.316 13.0289 9.5V15.593L10.4289 14.225L10.0999 11.334L9.10588 11.447L9.35788 13.661L7.26087 12.558L6.79688 13.442L8.86987 14.534L6.80687 15.552L7.25087 16.448L9.96388 15.109L12.5689 16.481L7.27687 19.568C7.12387 19.658 7.02887 19.822 7.02887 20C7.02887 20.178 7.12387 20.342 7.27687 20.432L12.5689 23.52L9.96388 24.891L7.25087 23.552L6.80687 24.448L8.86987 25.466L6.79688 26.558L7.26087 27.442L9.35788 26.339L9.10588 28.553L10.0999 28.666L10.4289 25.775L13.0289 24.407V30.5C13.0289 30.685 13.1309 30.854 13.2929 30.941C13.4559 31.028 13.6519 31.018 13.8059 30.916L19.0289 27.435V30.259L16.7159 32.109L17.3419 32.891L19.0289 31.54V34H20.0289V31.54L21.7159 32.891L22.3409 32.109L20.0289 30.259V27.435L25.2519 30.916C25.3359 30.972 25.4319 31 25.5289 31C25.6099 31 25.6909 30.981 25.7649 30.941C25.9269 30.854 26.0289 30.685 26.0289 30.5V24.407L28.6289 25.775L28.9579 28.666L29.9519 28.553L29.6999 26.339L31.7969 27.442L32.2609 26.558L30.1879 25.466L32.2509 24.448Z" fill="#ED7100"/>
</g>
<rect x="0.5" y="0.5" width="39" height="39" stroke="#ED7100"/>
<defs>
<clipPath id="clip0_23295_3293">
<rect width="40" height="40" fill="white"/>
</clipPath>
</defs>
</svg>
