<svg width="40" height="40" viewBox="0 0 40 40" fill="none" xmlns="http://www.w3.org/2000/svg">
<g clip-path="url(#clip0_23295_2949)">
<path d="M40 0H0V40H40V0Z" fill="#E7157B" fill-opacity="0.12"/>
<path fill-rule="evenodd" clip-rule="evenodd" d="M30.5 30C29.121 30 28 28.878 28 27.5C28 26.122 29.121 25 30.5 25C31.879 25 33 26.122 33 27.5C33 28.878 31.879 30 30.5 30ZM30.5 24C28.57 24 27 25.57 27 27.5C27 29.43 28.57 31 30.5 31C32.43 31 34 29.43 34 27.5C34 25.57 32.43 24 30.5 24ZM30.5 22C29.121 22 28 20.878 28 19.5C28 18.122 29.121 17 30.5 17C31.879 17 33 18.122 33 19.5C33 20.878 31.879 22 30.5 22ZM30.5 16C28.57 16 27 17.57 27 19.5C27 21.43 28.57 23 30.5 23C32.43 23 34 21.43 34 19.5C34 17.57 32.43 16 30.5 16ZM30.5 14C29.121 14 28 12.878 28 11.5C28 10.122 29.121 9 30.5 9C31.879 9 33 10.122 33 11.5C33 12.878 31.879 14 30.5 14ZM30.5 8C28.57 8 27 9.57 27 11.5C27 13.43 28.57 15 30.5 15C32.43 15 34 13.43 34 11.5C34 9.57 32.43 8 30.5 8ZM34 6V7H25V33H34V34H24.5C24.224 34 24 33.776 24 33.5V20H17V19H24V6.5C24 6.224 24.224 6 24.5 6H34ZM7 22.691V16.309L13.382 19.5L7 22.691ZM14.724 19.053L6.724 15.053C6.569 14.975 6.384 14.983 6.237 15.075C6.09 15.166 6 15.327 6 15.5V23.5C6 23.673 6.09 23.834 6.237 23.925C6.317 23.975 6.408 24 6.5 24C6.576 24 6.653 23.982 6.724 23.947L14.724 19.947C14.893 19.862 15 19.689 15 19.5C15 19.311 14.893 19.138 14.724 19.053ZM10.5 33C8.57 33 7 31.43 7 29.5C7 27.57 8.57 26 10.5 26C12.43 26 14 27.57 14 29.5C14 31.43 12.43 33 10.5 33ZM10.5 25C8.019 25 6 27.019 6 29.5C6 31.981 8.019 34 10.5 34C12.981 34 15 31.981 15 29.5C15 27.019 12.981 25 10.5 25ZM7 13H13V7H7V13ZM6.5 14H13.5C13.776 14 14 13.776 14 13.5V6.5C14 6.224 13.776 6 13.5 6H6.5C6.224 6 6 6.224 6 6.5V13.5C6 13.776 6.224 14 6.5 14Z" fill="#E7157B"/>
</g>
<rect x="0.5" y="0.5" width="39" height="39" stroke="#E7157B"/>
<defs>
<clipPath id="clip0_23295_2949">
<rect width="40" height="40" fill="white"/>
</clipPath>
</defs>
</svg>
