<svg version="1.2" xmlns="http://www.w3.org/2000/svg" viewBox="0 0 500 500" width="500" height="500">
	<title>helm_chart-svg</title>
	<style>
		.s0 { fill: #ffffff } 
	</style>
	<path id="Layer" class="s0" d="m136.5 121.1c-0.5-0.5-1.2-1.1-1.8-1.7-12.6-12.1-22.4-26.1-28.3-42.7-1.6-4.6-2.9-9.3-2.6-14.3q0-0.8 0-1.5c0.5-6.4 4.8-9.7 11.1-8.1q0.7 0.2 1.5 0.4 0.7 0.2 1.4 0.5 0.7 0.3 1.4 0.6 0.7 0.3 1.4 0.7c6.9 3.4 12.5 8.5 17.7 14.1q3.4 3.7 6.5 7.6 3.1 4 5.8 8.2 2.8 4.2 5.1 8.6 2.4 4.4 4.3 9 0 0.2 0.1 0.3 0 0.1 0.1 0.2 0 0.1 0.1 0.2 0 0.1 0.1 0.2c0.1 0.1 0.2 0.2 0.5 0.5q9.2-5.5 19-9.8 9.8-4.4 20-7.5 10.3-3.2 20.8-5.1 10.6-1.8 21.3-2.4c-0.2-0.9-0.3-1.6-0.5-2.2q-1.1-4.6-1.8-9.2-0.7-4.6-1-9.2-0.4-4.6-0.3-9.3 0-4.7 0.5-9.3 0.2-2.8 0.5-5.5 0.4-2.8 1-5.5 0.5-2.7 1.3-5.4 0.7-2.7 1.6-5.4 0.5-1.3 1-2.7 0.6-1.3 1.3-2.6 0.7-1.3 1.5-2.5 0.8-1.2 1.7-2.3 0.3-0.4 0.7-0.8 0.4-0.4 0.8-0.7 0.4-0.4 0.8-0.7 0.4-0.3 0.9-0.6 0.8-0.7 1.9-1 1-0.3 2.1-0.3 1 0 2.1 0.3 1 0.3 1.9 0.9 0.9 0.6 1.8 1.4 0.8 0.7 1.5 1.6 0.8 0.8 1.4 1.8 0.6 0.9 1.1 1.9 0.9 1.8 1.7 3.5 0.8 1.8 1.5 3.7 0.7 1.8 1.2 3.7 0.5 1.9 0.9 3.8 0.9 4.1 1.4 8.2 0.6 4.1 0.9 8.2 0.2 4.2 0.2 8.3 0 4.2-0.4 8.3-0.2 2.5-0.5 5.1-0.3 2.5-0.7 5-0.4 2.5-1 4.9-0.6 2.5-1.3 4.9c7.1 1.3 14.2 2.4 21.2 4q2.6 0.6 5.1 1.3 2.6 0.7 5.2 1.4 2.5 0.8 5.1 1.6 2.5 0.8 5 1.7 2.5 0.9 5 1.9 2.5 1 5 2.1 2.5 1.1 4.9 2.2 2.5 1.2 4.9 2.4c6.3 3.1 12.4 6.9 18.7 10.5 0.2-0.4 0.5-0.9 0.7-1.5q2.5-6.8 5.8-13.2 3.4-6.5 7.5-12.4 4.2-5.9 9.1-11.2 4.9-5.3 10.5-10 1.3-1.1 2.7-2.1 1.4-1 2.9-1.8 1.5-0.9 3-1.6 1.6-0.8 3.2-1.3 0.5-0.2 0.9-0.3 0.5-0.2 0.9-0.3 0.5-0.1 1-0.1 0.4-0.1 0.9-0.2c6.3-0.7 8.9 3.2 9.4 7.9q0.1 1.3 0.1 2.7 0 1.3-0.1 2.6-0.1 1.3-0.3 2.6-0.2 1.2-0.5 2.5-0.9 3.3-2 6.5-1.1 3.2-2.4 6.3-1.4 3.1-3 6-1.5 3-3.3 5.9c-6.8 11-14.9 20.8-25.1 28.8-0.3 0.3-0.6 0.5-1.1 1q3.7 3.5 7.3 7.1 3.5 3.7 6.9 7.6 3.3 3.9 6.4 7.9 3.1 4.1 6 8.3-0.2 0-0.4 0.1-0.3 0-0.5 0.1-0.2 0-0.4 0-0.2 0.1-0.4 0.1c-10.6 0-21.2 0-31.8 0q-0.5 0-0.9-0.1-0.5-0.1-0.9-0.3-0.4-0.3-0.8-0.6-0.3-0.3-0.6-0.7c-5.7-6.2-12-12-18.7-17.1-6.7-5.2-13.8-9.8-21.3-13.8-7.5-3.9-15.3-7.2-23.4-9.9-8.1-2.6-16.4-4.5-24.8-5.7q-3.7-0.5-7.5-0.9-3.8-0.3-7.6-0.5-3.8-0.1-7.5-0.1-3.8 0.1-7.6 0.3c-7.5 0.5-14.9 1.5-22.3 3.1-7.3 1.6-14.5 3.8-21.5 6.5-6.9 2.6-13.7 5.9-20.2 9.6-6.5 3.7-12.7 8-18.6 12.6q-2.2 1.8-4.5 3.7-2.2 1.9-4.3 3.9-2.1 2-4.2 4.1-2 2-3.9 4.2-0.4 0.4-0.8 0.8-0.5 0.3-1 0.5-0.5 0.2-1 0.4-0.6 0.1-1.1 0c-10.1 0-20.2 0-30.4 0h-2.1c0.6-2.4 6.8-10.9 13.9-18.5 5.2-5.7 10.8-11.1 16.4-16.9z"/>
	<path id="Layer" class="s0" d="m394.5 347.9q-2.6 3.7-5.4 7.3-2.9 3.5-5.9 6.9-3 3.4-6.1 6.7-3.2 3.2-6.5 6.3c0.7 0.6 1.2 1 1.8 1.5q5.8 4.7 10.9 10.2 5 5.5 9.3 11.6 4.3 6.1 7.7 12.7 3.3 6.6 5.8 13.7 0.7 1.7 1.1 3.5 0.5 1.7 0.8 3.6 0.2 1.8 0.3 3.6 0.1 1.9 0 3.7 0 0.5-0.1 0.9-0.1 0.5-0.2 1 0 0.4-0.2 0.9-0.1 0.4-0.2 0.9-0.4 1.3-1.2 2.3-0.8 1.1-2 1.7-1.1 0.7-2.4 1-1.3 0.2-2.6 0-0.9-0.1-1.7-0.3-0.9-0.2-1.8-0.4-0.8-0.3-1.6-0.6-0.9-0.3-1.7-0.7-1.2-0.6-2.4-1.3-1.2-0.6-2.3-1.4-1.2-0.7-2.3-1.5-1.1-0.8-2.1-1.6-5.6-4.6-10.6-9.9-4.9-5.3-9.1-11.2-4.1-6-7.5-12.4-3.3-6.4-5.8-13.2c-0.2-0.5-0.4-1-0.7-1.9q-3 2-6.1 3.8-3 1.9-6.2 3.7-3.1 1.7-6.3 3.4-3.2 1.6-6.4 3.1-3.3 1.5-6.5 2.8-3.3 1.4-6.7 2.6-3.3 1.2-6.7 2.3-3.4 1.1-6.8 2-3.5 1-7 1.8-3.5 0.8-7.1 1.5-3.5 0.6-7.1 1.2-3.5 0.5-7.1 0.9c0.2 0.9 0.3 1.5 0.4 2.2q1.2 4.4 1.9 9 0.8 4.5 1.2 9.1 0.3 4.6 0.3 9.2 0 4.5-0.4 9.1-0.2 2.9-0.5 5.7-0.4 2.9-0.9 5.7-0.6 2.8-1.3 5.6-0.8 2.8-1.7 5.5-0.5 1.1-1 2.2-0.4 1.1-1 2.2-0.5 1.1-1 2.2-0.6 1.1-1.2 2.1-0.2 0.5-0.5 0.8-0.3 0.4-0.6 0.8-0.2 0.4-0.6 0.7-0.3 0.4-0.6 0.7c-4 4.1-8.8 4.2-12.6-0.1q-0.6-0.6-1.1-1.3-0.6-0.6-1.1-1.3-0.5-0.7-0.9-1.5-0.4-0.7-0.8-1.5c-3.1-5.7-4.7-12-5.8-18.4q-0.6-3.3-0.9-6.6-0.4-3.3-0.6-6.6-0.1-3.3-0.1-6.7 0-3.3 0.2-6.6 0.1-2.4 0.4-4.8 0.2-2.5 0.6-4.9 0.3-2.4 0.8-4.8 0.5-2.3 1.1-4.7 0.2-0.8 0.4-1.6c0-0.1-0.1-0.3-0.2-0.7q-10.7-0.6-21.2-2.5-10.6-1.9-20.8-5.1-10.3-3.1-20-7.5-9.8-4.4-19-9.9c-0.4 0.9-0.7 1.6-1.1 2.4q-2.6 6-5.8 11.7-3.3 5.6-7.2 10.9-3.9 5.2-8.4 9.9-4.5 4.8-9.5 8.9-1.3 1.2-2.7 2.2-1.5 1-3 1.9-1.5 0.8-3.1 1.6-1.6 0.7-3.2 1.3-0.8 0.3-1.6 0.5-0.8 0.2-1.6 0.3-0.9 0.1-1.7 0.1-0.8-0.1-1.6-0.2-1-0.2-1.8-0.6-0.8-0.3-1.5-0.9-0.7-0.6-1.3-1.4-0.5-0.7-0.8-1.6c-1.5-3.4-1.2-7-0.7-10.5q0.3-1.9 0.7-3.7 0.4-1.8 0.9-3.6 0.6-1.8 1.2-3.5 0.7-1.8 1.5-3.5 2.3-5.3 5.1-10.4 2.8-5.1 6.2-9.8 3.3-4.8 7.1-9.2 3.8-4.3 8.1-8.3 0.7-0.7 1.4-1.3 0-0.1 0.1-0.2 0-0.1 0.1-0.1 0-0.1 0.1-0.2 0-0.1 0-0.2-4-3.5-7.8-7.2-3.8-3.7-7.3-7.6-3.6-3.9-6.9-8-3.4-4.2-6.4-8.5c0.9-0.1 1.6-0.2 2.3-0.2 10.5 0 21 0.1 31.5 0q0.5 0 1 0.1 0.6 0.1 1 0.3 0.5 0.2 0.9 0.5 0.5 0.3 0.8 0.7 4.3 4.4 8.9 8.4 4.7 4.1 9.6 7.7 5 3.6 10.2 6.8 5.2 3.2 10.7 6 5.8 3 11.9 5.4 6 2.4 12.3 4.3 6.2 1.9 12.6 3.1 6.4 1.3 12.9 2 70.7 6.8 121.6-42.9 0.6-0.6 1.3-1.1 0.7-0.5 1.4-0.8 0.8-0.3 1.6-0.4 0.9-0.2 1.7-0.1c9.8 0.1 19.6 0 29.4 0h2.6z"/>
	<path id="Layer" class="s0" d="m350.7 197.8c2.8 0 5.5 0.2 8.2-0.1 2.9-0.3 5.1 0.8 7.3 2.8 12.6 11.6 25.3 23.1 38 34.7 0.7 0.5 1.3 1.1 2.1 1.8 0.8-0.6 1.5-1.2 2.2-1.8q19.6-17.9 39.3-35.8 0.4-0.4 0.8-0.8 0.5-0.3 1.1-0.5 0.5-0.2 1.1-0.3 0.6-0.1 1.2-0.1c3.2 0.2 6.4 0.1 9.8 0.1v105.3c-1.7 0.5-24.9 0.6-27.6 0.1v-53.4l-0.6-0.2c-9 8.2-18 16.4-27.2 24.8-9.2-8.3-18.4-16.5-27.5-24.7l-0.5 0.2q0 6.7 0 13.3 0 6.7 0 13.3v26.9h-27.4c-0.5-1.8-0.8-99.7-0.3-105.6z"/>
	<path id="Layer" class="s0" d="m97.6 197.9h27.3c0.5 1.7 0.7 103 0.1 105.5h-27.3c-0.1-6.7 0-13.4-0.1-20.1 0-6.6 0-13.2 0-20h-33.8v39.7c-2 0.7-25.3 0.7-27.6 0.2v-105.3h27.5v37.2c2 0.6 31 0.7 33.9 0.1 0-3 0-6 0-9.1q0-4.7 0-9.4 0-4.7 0-9.3c0-3.1 0-6.2 0-9.5z"/>
	<path id="Layer" class="s0" d="m157.6 303.4v-105.2c1.6-0.5 61.5-0.7 65.4-0.2v22.4c-0.8 0.1-1.7 0.2-2.7 0.2q-16 0-32 0h-2.9v17.4h33.3v23.2h-33c-0.6 2-0.7 15.8-0.3 19.7 0.8 0 1.8 0.1 2.7 0.1q16 0.1 32 0h2.9v22.4z"/>
	<path id="Layer" class="s0" d="m254.3 303.4c-0.5-2.8-0.4-103.6 0.1-105.5h27.1v77.8c1.2 0 2.1 0.1 3.1 0.1q16.1 0 32.2 0c0.9 0 1.9 0 2.9 0v27.6z"/>
</svg>
