<svg xmlns="http://www.w3.org/2000/svg" xmlns:xlink="http://www.w3.org/1999/xlink" version="1.1" width="1000" height="1000" viewBox="0 0 1000 1000" xml:space="preserve">
<desc>Created with Fabric.js 3.5.0</desc>
<defs>
</defs>
<rect x="0" y="0" width="100%" height="100%" fill="rgba(255,255,255,0)"/>
<g transform="matrix(29.9578 0 0 30.0849 524.7793 473.1875)" id="11620">
<g style="" vector-effect="non-scaling-stroke">
		<g transform="matrix(0.1569 0 0 0.1569 -2.1928 3.2188)">
<path style="stroke: rgb(50,108,229); stroke-width: 5; stroke-dasharray: 10 10; stroke-linecap: butt; stroke-dashoffset: 0; stroke-linejoin: miter; stroke-miterlimit: 4; is-custom-font: none; font-file-url: none; fill: rgb(50,108,229); fill-opacity: 0.4; fill-rule: nonzero; opacity: 1;" transform=" translate(-88, -81.5)" d="M 2.5 2.5 h 171 v 158 H 2.5 z" stroke-linecap="round"/>
</g>
		<g transform="matrix(0.1569 0 0 0.1569 11.6874 7.6089)">
<path style="stroke: none; stroke-width: 1; stroke-dasharray: none; stroke-linecap: butt; stroke-dashoffset: 0; stroke-linejoin: miter; stroke-miterlimit: 4; is-custom-font: none; font-file-url: none; fill: rgb(50,108,229); fill-rule: evenodd; opacity: 1;" transform=" translate(-176.5, -109.5)" d="M 164.628 134.298 c -13.695 -6.557 -19.483 -22.977 -12.926 -36.674 a 27.491 27.491 0 0 1 36.67 -12.928 c 13.695 6.557 19.483 22.976 12.926 36.674 c -6.556 13.697 -22.974 19.485 -36.67 12.928 Z" stroke-linecap="round"/>
</g>
		<g transform="matrix(0.1569 0 0 0.1569 11.6649 7.6778)">
<path style="stroke: none; stroke-width: 1; stroke-dasharray: none; stroke-linecap: butt; stroke-dashoffset: 0; stroke-linejoin: miter; stroke-miterlimit: 4; is-custom-font: none; font-file-url: none; fill: rgb(255,255,255); fill-rule: nonzero; opacity: 1;" transform=" translate(-176.3597, -109.9415)" d="M 176.239 93.003 a 2.34 2.34 0 0 0 -0.89 0.225 l -12.14 5.8 a 2.307 2.307 0 0 0 -1.256 1.562 l -2.995 13.031 a 2.288 2.288 0 0 0 0.447 1.948 l 8.403 10.448 a 2.328 2.328 0 0 0 1.815 0.866 l 13.476 -0.003 a 2.334 2.334 0 0 0 1.815 -0.865 l 8.399 -10.449 a 2.292 2.292 0 0 0 0.449 -1.949 l -3 -13.029 a 2.288 2.288 0 0 0 -0.448 -0.923 a 2.318 2.318 0 0 0 -0.808 -0.64 l -12.141 -5.797 a 2.343 2.343 0 0 0 -1.126 -0.225 Z" stroke-linecap="round"/>
</g>
		<g transform="matrix(0.1569 0 0 0.1569 11.6649 7.6776)">
<path style="stroke: rgb(50,108,229); stroke-width: 0.25; stroke-dasharray: none; stroke-linecap: butt; stroke-dashoffset: 0; stroke-linejoin: miter; stroke-miterlimit: 4; is-custom-font: none; font-file-url: none; fill: rgb(50,108,229); fill-rule: nonzero; opacity: 1;" transform=" translate(-176.3605, -109.9416)" d="M 176.36 97.437 c -0.402 0 -0.727 0.362 -0.727 0.808 l 0.001 0.02 c 0 0.06 -0.003 0.133 -0.001 0.186 c 0.01 0.257 0.066 0.454 0.099 0.691 c 0.061 0.507 0.113 0.928 0.081 1.318 c -0.031 0.148 -0.139 0.282 -0.236 0.376 l -0.017 0.307 a 9.358 9.358 0 0 0 -6.062 2.915 c -0.08 -0.055 -0.22 -0.156 -0.262 -0.187 c -0.13 0.018 -0.261 0.058 -0.432 -0.042 c -0.325 -0.218 -0.621 -0.521 -0.979 -0.885 c -0.165 -0.174 -0.283 -0.339 -0.479 -0.507 c -0.044 -0.038 -0.111 -0.09 -0.161 -0.129 a 0.862 0.862 0 0 0 -0.506 -0.191 a 0.698 0.698 0 0 0 -0.579 0.256 c -0.25 0.314 -0.17 0.793 0.178 1.071 l 0.011 0.008 c 0.048 0.039 0.107 0.089 0.151 0.121 c 0.207 0.153 0.396 0.231 0.602 0.353 c 0.435 0.268 0.795 0.491 1.081 0.759 c 0.111 0.119 0.131 0.329 0.146 0.419 l 0.233 0.208 a 9.404 9.404 0 0 0 -1.483 6.556 l -0.304 0.088 c -0.081 0.104 -0.194 0.267 -0.313 0.315 c -0.373 0.118 -0.794 0.161 -1.302 0.214 c -0.239 0.02 -0.445 0.008 -0.697 0.056 c -0.056 0.011 -0.134 0.031 -0.194 0.045 l -0.007 0.002 a 0.164 0.164 0 0 1 -0.011 0.003 c -0.428 0.104 -0.703 0.497 -0.614 0.885 c 0.088 0.388 0.507 0.624 0.937 0.531 l 0.011 -0.001 l 0.014 -0.005 c 0.06 -0.013 0.136 -0.028 0.188 -0.042 c 0.249 -0.067 0.429 -0.164 0.652 -0.25 c 0.481 -0.172 0.879 -0.317 1.267 -0.373 c 0.162 -0.012 0.333 0.1 0.418 0.148 l 0.317 -0.054 a 9.458 9.458 0 0 0 4.19 5.232 l -0.132 0.317 c 0.048 0.123 0.1 0.289 0.065 0.411 c -0.141 0.365 -0.383 0.751 -0.658 1.182 c -0.133 0.199 -0.269 0.353 -0.39 0.58 c -0.028 0.055 -0.065 0.138 -0.093 0.196 c -0.187 0.4 -0.05 0.86 0.309 1.033 c 0.361 0.173 0.809 -0.01 1.003 -0.41 l 0.002 -0.002 v -0.001 c 0.027 -0.057 0.067 -0.132 0.09 -0.185 c 0.103 -0.236 0.137 -0.438 0.209 -0.666 c 0.193 -0.483 0.298 -0.99 0.563 -1.306 c 0.072 -0.086 0.191 -0.119 0.313 -0.152 l 0.165 -0.298 a 9.382 9.382 0 0 0 6.706 0.017 l 0.155 0.279 c 0.124 0.041 0.26 0.062 0.371 0.225 c 0.198 0.339 0.333 0.739 0.498 1.222 c 0.073 0.228 0.109 0.43 0.211 0.666 c 0.024 0.054 0.063 0.13 0.091 0.187 c 0.193 0.401 0.643 0.585 1.004 0.411 c 0.359 -0.173 0.496 -0.633 0.309 -1.032 c -0.028 -0.058 -0.066 -0.142 -0.095 -0.196 c -0.12 -0.228 -0.256 -0.38 -0.389 -0.579 c -0.275 -0.431 -0.504 -0.788 -0.645 -1.154 c -0.059 -0.188 0.01 -0.306 0.056 -0.428 c -0.027 -0.032 -0.086 -0.21 -0.121 -0.294 a 9.455 9.455 0 0 0 4.189 -5.269 c 0.094 0.014 0.258 0.043 0.311 0.054 c 0.109 -0.072 0.209 -0.166 0.406 -0.151 c 0.388 0.056 0.787 0.2 1.267 0.373 c 0.224 0.086 0.404 0.185 0.653 0.251 c 0.052 0.014 0.127 0.028 0.187 0.041 l 0.014 0.004 l 0.011 0.002 c 0.431 0.093 0.85 -0.143 0.938 -0.531 c 0.089 -0.388 -0.186 -0.782 -0.615 -0.885 c -0.062 -0.014 -0.15 -0.038 -0.211 -0.05 c -0.253 -0.048 -0.459 -0.036 -0.697 -0.056 c -0.508 -0.053 -0.929 -0.096 -1.303 -0.214 c -0.152 -0.059 -0.261 -0.24 -0.313 -0.315 l -0.294 -0.085 a 9.396 9.396 0 0 0 -0.152 -3.393 a 9.395 9.395 0 0 0 -1.362 -3.147 c 0.076 -0.069 0.218 -0.194 0.258 -0.232 c 0.012 -0.13 0.002 -0.267 0.137 -0.411 c 0.285 -0.268 0.646 -0.491 1.08 -0.759 c 0.207 -0.122 0.397 -0.2 0.604 -0.353 c 0.047 -0.034 0.111 -0.089 0.16 -0.129 c 0.349 -0.278 0.429 -0.757 0.179 -1.071 c -0.25 -0.314 -0.735 -0.343 -1.084 -0.065 c -0.05 0.039 -0.117 0.09 -0.161 0.129 c -0.196 0.168 -0.316 0.333 -0.48 0.508 c -0.359 0.364 -0.655 0.667 -0.98 0.886 c -0.141 0.082 -0.347 0.054 -0.441 0.048 l -0.276 0.197 a 9.525 9.525 0 0 0 -6.032 -2.914 a 13.17 13.17 0 0 1 -0.017 -0.324 c -0.095 -0.091 -0.209 -0.168 -0.238 -0.364 c -0.032 -0.39 0.021 -0.81 0.082 -1.318 c 0.034 -0.237 0.09 -0.434 0.1 -0.69 c 0.002 -0.06 -0.002 -0.144 -0.002 -0.207 c 0 -0.446 -0.325 -0.808 -0.726 -0.808 Z m -0.91 5.636 l -0.216 3.812 l -0.016 0.008 a 0.64 0.64 0 0 1 -1.017 0.49 l -0.006 0.004 l -3.125 -2.216 a 7.474 7.474 0 0 1 3.605 -1.964 c 0.259 -0.059 0.517 -0.102 0.775 -0.134 Z m 1.821 0 a 7.552 7.552 0 0 1 4.354 2.1 l -3.106 2.201 l -0.011 -0.004 a 0.64 0.64 0 0 1 -1.018 -0.49 l -0.003 -0.001 l -0.216 -3.806 Z m -7.335 3.522 l 2.854 2.552 l -0.003 0.016 a 0.64 0.64 0 0 1 -0.252 1.101 l -0.003 0.012 l -3.658 1.056 a 7.484 7.484 0 0 1 1.062 -4.737 Z m 12.827 0.001 c 0.424 0.688 0.745 1.455 0.936 2.287 c 0.189 0.823 0.236 1.643 0.158 2.436 l -3.676 -1.058 l -0.003 -0.016 a 0.64 0.64 0 0 1 -0.252 -1.101 l -0.002 -0.008 l 2.839 -2.54 Z m -6.989 2.748 h 1.169 l 0.727 0.909 l -0.261 1.133 l -1.049 0.505 l -1.053 -0.506 l -0.261 -1.134 l 0.728 -0.907 Z m 3.748 3.109 a 0.612 0.612 0 0 1 0.148 0.011 l 0.006 -0.008 l 3.784 0.64 a 7.5 7.5 0 0 1 -3.029 3.805 l -1.469 -3.548 l 0.004 -0.006 a 0.642 0.642 0 0 1 0.556 -0.894 Z m -6.355 0.015 a 0.641 0.641 0 0 1 0.579 0.893 l 0.011 0.014 l -1.453 3.512 a 7.522 7.522 0 0 1 -3.02 -3.779 l 3.751 -0.636 l 0.007 0.007 a 0.764 0.764 0 0 1 0.125 -0.011 Z m 3.169 1.539 a 0.628 0.628 0 0 1 0.3 0.064 a 0.634 0.634 0 0 1 0.287 0.273 h 0.014 l 1.849 3.341 a 7.38 7.38 0 0 1 -0.739 0.207 a 7.513 7.513 0 0 1 -4.1 -0.211 l 1.844 -3.335 h 0.003 a 0.642 0.642 0 0 1 0.542 -0.339 Z" stroke-linecap="round"/>
</g>
</g>
</g>
</svg>