<svg xmlns="http://www.w3.org/2000/svg" width="123" height="122" fill="none" viewBox="0 0 123 122"><g clip-path="url(#clip0)"><path fill="#00D3A9" d="M21.6357 38.571C24.8993 32.59 29.4744 27.4209 35.0199 23.4492C40.5654 19.4774 46.9383 16.8054 53.6634 15.6323L50.9377 0C41.8411 1.59269 33.2177 5.19701 25.7003 10.5484C18.183 15.8997 11.9626 22.8622 7.49585 30.9248L21.6357 38.571Z"/><path fill="#00B39F" d="M22.3172 83.9387C18.0585 76.8565 15.8201 68.7486 15.8435 60.4903C15.8336 55.0907 16.8152 49.735 18.7396 44.6881L3.74792 39.2507C1.27832 46.0616 0.0102705 53.2477 0 60.4903C0.00337916 71.6114 3.00422 82.5272 8.68837 92.0947L22.3172 83.9387Z"/><path fill="#00D3A9" d="M62.011 106.028H61.4999C47.3601 106.028 34.7534 99.5711 26.2354 89.3761L13.9695 99.5711C19.7479 106.569 27.0044 112.208 35.2207 116.085C43.4371 119.963 52.4104 121.982 61.4999 122H62.1814L62.011 106.028Z"/><path fill="#00B39F" d="M101.194 82.9192C97.8195 88.8306 93.1608 93.9135 87.5597 97.7946C81.9586 101.676 75.5572 104.257 68.8254 105.348L71.3808 121.15C80.4724 119.669 89.1133 116.166 96.6629 110.901C104.212 105.636 110.477 98.7438 114.993 90.7353L101.194 82.9192Z"/><path fill="#00D3A9" d="M100.853 37.5515C104.903 44.519 107.02 52.4365 106.986 60.4902C107.023 66.0735 105.982 71.6116 103.92 76.8022L118.911 82.5794C121.575 75.5749 122.96 68.1514 123 60.6601C123.007 49.7971 120.127 39.1263 114.652 29.7354L100.853 37.5515Z"/><path fill="#20BDAB" d="M89.0642 29.1067L85.6229 25.6744L93.7321 17.5864L85.6229 9.49835L89.0642 6.06604L100.615 17.5864L89.0642 29.1067Z"/><path fill="#20BDAB" d="M65.9635 29.1067L62.5222 25.6744L70.6314 17.5864L62.5222 9.49835L65.9635 6.06604L77.5139 17.5864L65.9635 29.1067Z"/></g><defs><clipPath id="clip0"><rect width="123" height="122" fill="#fff"/></clipPath></defs></svg>