<svg width="117" height="61" viewBox="0 0 117 61" fill="none" xmlns="http://www.w3.org/2000/svg">
<path d="M19.1895 53.1461V55.4439L26.7947 54.2916L19.1895 53.1461Z" fill="#00D3A9"/>
<path d="M19.1895 55.9249V58.2329L26.8637 57.0841L19.1895 55.9249Z" fill="#00D3A9"/>
<path d="M18.095 55.4283V53.1648L10.584 54.2931L18.095 55.4283Z" fill="#00B39F"/>
<path d="M3.0293 58.2244C4.50188 58.8442 6.49786 59.3716 8.85568 59.7654V57.3444L3.0293 58.2244Z" fill="#00B39F"/>
<path d="M18.094 58.2226V55.9403L10.5645 57.0823L18.094 58.2226Z" fill="#00B39F"/>
<path d="M9.95117 59.6166L17.5766 58.4746L9.95117 57.3206V59.6166Z" fill="#00D3A9"/>
<path d="M27.3871 59.6285V57.3359L19.7734 58.4762L27.3871 59.6285Z" fill="#00B39F"/>
<path d="M34.8449 57.959C36.1121 57.3409 36.8779 56.6407 36.999 55.9044L29.0605 57.0858L34.8449 57.959Z" fill="#00B39F"/>
<path d="M28.4805 56.8428L36.1312 55.6973L28.4805 54.545V56.8428Z" fill="#00D3A9"/>
<path d="M27.385 54.0486V51.7714L19.8066 52.9082L27.385 54.0486Z" fill="#00B39F"/>
<path d="M27.3862 56.8324V54.533L19.791 55.6835L27.3862 56.8324Z" fill="#00B39F"/>
<path d="M9.95117 54.5278V56.8444L17.6036 55.6853L9.95117 54.5278Z" fill="#00D3A9"/>
<path d="M18.096 50.8793C15.3988 50.8911 12.7051 51.0776 10.0312 51.4374L18.096 52.6514V50.8793Z" fill="#00B39F"/>
<path d="M9.95117 51.756V54.0572L17.6103 52.9083L9.95117 51.756Z" fill="#00D3A9"/>
<path d="M8.86517 51.6154C6.50904 52.0057 4.50969 52.5314 3.03711 53.1563L8.86517 54.0312V51.6154Z" fill="#00B39F"/>
<path d="M27.3349 51.4477C24.6345 51.0812 21.9138 50.8913 19.1895 50.8793V52.6702L27.3349 51.4477Z" fill="#00D3A9"/>
<path d="M0.28125 55.8564C0.382227 56.6218 1.1648 57.3426 2.4775 57.9778L8.37962 57.0824L0.28125 55.8564Z" fill="#00D3A9"/>
<path d="M2.4775 53.4065C1.16985 54.0314 0.388959 54.7471 0.28125 55.5091L8.38635 54.2917L2.4775 53.4065Z" fill="#00D3A9"/>
<path d="M10.0156 59.9367C12.694 60.2972 15.3921 60.4842 18.0938 60.4966V58.7279L10.0156 59.9367Z" fill="#00B39F"/>
<path d="M34.2774 53.1582C32.8132 52.5383 30.829 52.0144 28.4863 51.6172V54.0279L34.2774 53.1582Z" fill="#00D3A9"/>
<path d="M28.4805 59.7516C30.8366 59.3595 32.8309 58.8304 34.2968 58.2106L28.4805 57.3323V59.7516Z" fill="#00D3A9"/>
<path d="M37.0011 55.4969C36.8884 54.7419 36.1126 54.0313 34.8133 53.4047L28.9785 54.2899L37.0011 55.4969Z" fill="#00B39F"/>
<path d="M19.1895 60.4964C21.8854 60.4842 24.5779 60.2984 27.2508 59.9399L19.1895 58.714V60.4964Z" fill="#00D3A9"/>
<path d="M8.85711 56.8237V54.5516L1.32422 55.6834L8.85711 56.8237Z" fill="#00B39F"/>
<path d="M18.5619 46.5885C17.0472 43.7891 15.5561 41.2499 14.2872 38.5978C11.6281 33.0366 9.00105 27.4549 6.54562 21.8013C5.32211 18.9933 4.52608 16.0278 4.86267 12.838C5.4315 7.38471 9.65067 2.33377 14.9099 0.989712C22.3788 -0.91937 29.3967 2.87311 31.9077 10.2766C32.9848 13.4578 32.5489 16.639 31.4786 19.7758C29.3176 26.1108 26.3338 32.0744 23.3061 38.0105C22.0187 40.5342 20.6134 42.9998 19.2671 45.4893C19.0853 45.7855 18.8901 46.0629 18.5619 46.5885ZM18.6932 24.7462C24.183 24.6983 28.7404 20.0172 28.6865 14.4731C28.6327 8.86232 24.0332 4.31134 18.4306 4.32846C13.2286 4.34387 8.49111 9.16366 8.54497 14.3858C8.60387 20.1798 13.1226 24.7942 18.6932 24.7462Z" fill="#00D3A9"/>
<g clip-path="url(#clip0_15340_37951)">
<path fill-rule="evenodd" clip-rule="evenodd" d="M87 0.5C70.4278 0.5 57 14.2669 57 31.2578C57 44.8446 65.5938 56.3787 77.5176 60.4437C79.0214 60.724 79.5684 59.7829 79.5684 58.962C79.5684 58.231 79.5391 56.2987 79.5293 53.7355C71.1797 55.5878 69.4219 49.6104 69.4219 49.6104C68.0547 46.0561 66.0918 45.1048 66.0918 45.1048C63.3672 43.2025 66.2969 43.2426 66.2969 43.2426C69.3047 43.4629 70.8868 46.4065 70.8868 46.4065C73.5625 51.1123 77.9082 49.7505 79.6172 48.9696C79.8906 46.9772 80.6719 45.6255 81.5215 44.8545C74.8613 44.0836 67.8594 41.4404 67.8594 29.6558C67.8594 26.2917 69.0312 23.5484 70.9453 21.3957C70.6426 20.6247 69.6074 17.4909 71.2382 13.2556C71.2382 13.2556 73.7578 12.4347 79.4903 16.4096C81.8828 15.7287 84.4512 15.3883 87 15.3783C89.5488 15.3883 92.1172 15.7287 94.5097 16.4096C100.242 12.4347 102.752 13.2556 102.752 13.2556C104.393 17.4909 103.367 20.6247 103.055 21.3957C104.979 23.5484 106.131 26.2917 106.131 29.6558C106.131 41.4704 99.1192 44.0636 92.4395 44.8345C93.5137 45.7756 94.4707 47.658 94.4707 50.5215C94.4707 54.6366 94.4414 57.9506 94.4414 58.962C94.4414 59.7829 94.9786 60.7441 96.502 60.4437C108.416 56.3688 117 44.8446 117 31.2578C117 14.2669 103.572 0.5 87 0.5Z" fill="#202020"/>
</g>
<defs>
<clipPath id="clip0_15340_37951">
<rect width="60" height="60" fill="white" transform="translate(57 0.5)"/>
</clipPath>
</defs>
</svg>
