<?xml version="1.0" encoding="utf-8"?>
<!-- Generator: Adobe Illustrator 26.0.2, SVG Export Plug-In . SVG Version: 6.00 Build 0)  -->
<svg version="1.1" id="Layer_1" xmlns="http://www.w3.org/2000/svg" xmlns:xlink="http://www.w3.org/1999/xlink" x="0px" y="0px"
	 viewBox="0 0 630.8 538.1" style="enable-background:new 0 0 630.8 538.1;" xml:space="preserve">
<style type="text/css">
	.st0{fill:#00D3A9;}
	.st1{fill:#00B39F;}
</style>
<g>
	<path class="st0" d="M380.7,351.9c0-28.5,0-57,0-85.5c0-9.4,5.6-15.6,13.7-15.6c8.1,0.1,13.6,6.5,13.6,15.8c0,50.8,0,101.6,0,152.4
		c0,6.7,0,6.7,6.9,6.7c14.3,0,28.7-0.2,43,0.1c4.5,0.1,5.8-1.5,5.7-5.8c-0.2-6.7-0.4-13.4,0.1-20c0.2-2.7,2-6.5,4.2-7.5
		c2.2-1.1,6.5-0.3,8.6,1.3c16.2,12.7,32.2,25.8,48.2,38.9c5.1,4.2,5,9.1-0.3,13.5c-15.8,13-31.7,26-47.8,38.6
		c-2.2,1.7-6.5,2.2-9.1,1.2c-1.9-0.7-3.6-4.6-3.8-7.2c-0.5-6.8-0.4-13.7-0.1-20.5c0.1-4.1-1.4-5.5-5.5-5.4
		c-20.7,0.2-41.3,0.1-62,0.1c-10.2,0-15.3-5.1-15.3-15.3C380.6,409.2,380.7,380.6,380.7,351.9z"/>
	<path class="st0" d="M166.1,425.9c2.2,0,4,0,5.8,0c14.2,0,28.3-0.2,42.5,0.1c4.9,0.1,6.5-1.1,6.5-6.3
		c-0.2-50.2-0.1-100.3-0.1-150.5c0-1.5-0.1-3,0-4.5c0.4-8,6.7-14,14.2-13.8c7.5,0.3,13.1,6,13.1,14.1c0.1,58.2,0.1,116.3,0,174.5
		c0,8.3-5.5,13.6-13.9,13.7c-21,0.1-42,0.2-63-0.1c-4.5,0-5.9,1.5-5.7,5.7c0.2,6.7,0.4,13.4-0.2,20c-0.2,2.7-2,6.7-4.1,7.5
		c-2.5,1-6.8,0.2-9-1.5c-16-12.5-31.7-25.4-47.4-38.3c-5.7-4.6-5.6-9.4,0.2-14.1c15.5-12.6,31-25.2,46.5-37.9c2.9-2.4,6-3.7,9.6-2.3
		c3.8,1.5,4.5,5,4.5,8.7c0,6,0,12,0,18C165.6,421.1,165.9,423.2,166.1,425.9z"/>
	<path class="st0" d="M328.1,366.5c0,33.3,0.1,66.7-0.1,100c0,5,1.2,6.9,6.4,6.5c6.3-0.4,12.7-0.6,19,0.1c2.9,0.3,6.9,2.1,7.9,4.4
		c1.1,2.3,0.2,6.8-1.6,9c-12.6,16.1-25.7,32-38.7,47.8c-4.1,5-9,5.1-13.1,0.1c-13.1-15.9-26.3-31.9-39-48.2c-1.7-2.1-2.3-6.6-1.2-9
		c1-2.1,4.9-3.9,7.6-4.1c6.4-0.6,13-0.4,19.5-0.1c4.5,0.2,6-1.1,6-5.8c-0.2-22.8-0.1-45.7-0.1-68.5c0-44.3,0-88.7,0-133
		c0-7.4,3.6-12.2,10.2-14.2c5.4-1.6,11.8,0.5,14.7,5.6c1.5,2.7,2.3,6.3,2.3,9.4C328.1,299.9,328.1,333.2,328.1,366.5z"/>
	<path class="st1" d="M151.3,371c-18.4-0.2-37.1,0.5-55.3-2.1c-45-6.4-83.8-44.7-93.3-89.1c-13.2-61.7,23.5-120.6,81.6-137.7
		c3.3-1,4.5-2.6,5.2-5.6c9.7-41.4,35.4-67.2,76.7-77c13.8-3.3,27.8-2.7,41.6,0.5c3.8,0.9,5.7-0.1,7.9-2.8
		c22.3-27.9,51-45.7,85.9-53.7C379.2-14,458.9,35.4,477.9,113.1c2.1,8.7,2.7,17.7,4.3,26.5c0.3,1.9,2,4.4,3.6,5
		c26.8,10.4,47.3,28.1,61.6,53c0.9,1.6,3.5,3,5.4,3.2c39.9,4.5,70.6,32.7,76.9,72c7.1,44.2-21.3,86.2-65.5,96.3
		c-3.7,0.9-7.5,1.8-11.3,1.9c-10.3,0.3-20.7,0.1-31,0.1v0.1c-9.3,0-356.2,0.1-365.6,0"/>
</g>
</svg>
