<?xml version="1.0" encoding="UTF-8"?>
<svg id="Layer_1" data-name="Layer 1" xmlns="http://www.w3.org/2000/svg" viewBox="0 0 450 450">
  <defs>
    <style>
      .cls-1 {
        fill: #00b39f;
        opacity: .8;
      }

      .cls-2 {
        fill: #e2e2e2;
      }

      .cls-3 {
        fill: #00d3a9;
      }
    </style>
  </defs>
  <polygon class="cls-3" points="266.06 102.27 266.06 180.4 333.78 141.2 266.06 102.27"/>
  <polygon class="cls-3" points="193.37 269.43 193.37 347.93 261.71 308.86 193.37 269.43"/>
  <polygon class="cls-1" points="183.63 252.55 183.63 175.62 116.74 213.96 183.63 252.55"/>
  <path class="cls-1" d="M49.47,347.66c13.11,21.08,30.88,38.97,51.88,52.21v-82.24l-51.88,30.04Z"/>
  <polygon class="cls-1" points="183.63 347.57 183.63 270 116.58 308.81 183.63 347.57"/>
  <polygon class="cls-3" points="111.1 394.97 179 356.16 111.1 316.91 111.1 394.97"/>
  <polygon class="cls-1" points="266.35 395.39 266.35 317.44 198.56 356.2 266.35 395.39"/>
  <path class="cls-1" d="M332.77,338.61c11.29-21.04,18.1-44.83,19.18-70.11l-70.66,40.4,51.48,29.71Z"/>
  <polygon class="cls-3" points="348.79 227.95 416.92 188.99 348.79 149.83 348.79 227.95"/>
  <polygon class="cls-1" points="339.04 132.98 339.04 55.51 271.56 94.19 339.04 132.98"/>
  <polygon class="cls-1" points="339.04 227.6 339.04 149.42 271.4 188.57 339.04 227.6"/>
  <path class="cls-2" d="M188.5,425s0,0,.01,0h-.02s0,0,.01,0Z"/>
  <polygon class="cls-3" points="111.1 221.96 111.1 300.72 179.24 261.27 111.1 221.96"/>
  <path class="cls-1" d="M183.63,97.85c-25.9.76-50.28,7.54-71.8,18.98l71.8,41.28v-60.25Z"/>
  <polygon class="cls-3" points="111.1 127.67 111.1 205.95 179.29 166.86 111.1 127.67"/>
  <path class="cls-1" d="M101.35,122.9c-21,13.24-38.78,31.13-51.89,52.23l51.89,29.94v-82.17Z"/>
  <path class="cls-3" d="M338.59,44.53c-21.7-11.68-46.34-18.59-72.53-19.36v60.94l72.53-41.57Z"/>
  <path class="cls-3" d="M25,267.13c.9,26.04,7.87,50.54,19.56,72.11l52.55-30.42-72.11-41.69Z"/>
  <path class="cls-3" d="M44.55,183.56c-11.63,21.47-18.59,45.84-19.54,71.74l72.17-41.37-52.63-30.37Z"/>
  <path class="cls-1" d="M111.69,405.87c21.56,11.49,45.99,18.29,71.94,19.05v-60.18l-71.94,41.13Z"/>
  <path class="cls-3" d="M400.36,102.65c-13.03-21.03-30.69-38.89-51.57-52.15v82l51.57-29.85Z"/>
  <path class="cls-3" d="M276.1,399.59c21-13.34,38.75-31.33,51.8-52.53l-51.8-29.89v82.42Z"/>
  <path class="cls-1" d="M424.66,182.19c-1-25.66-7.91-49.81-19.41-71.11l-51.96,30.08,71.37,41.03Z"/>
  <path class="cls-3" d="M193.37,424.92c25.88-.76,50.26-7.53,71.78-18.96l-71.78-41.49v60.45Z"/>
  <polygon class="cls-1" points="101.35 300.01 101.35 222.78 34.27 261.23 101.35 300.01"/>
</svg>