<svg xmlns="http://www.w3.org/2000/svg" id="Layer_1" data-name="Layer 1" viewBox="0 0 550 225"><defs><style>.cls-1{fill:#647881}.cls-2{fill:#00b39f}.cls-3{fill:#00d3a9}.cls-4{fill:#3c494e}.cls-5{fill:#477e96}</style></defs><title>smp-dark</title><g id="Gauge"><path d="M137.6,73.31a284,284,0,0,1,31.8-14.4l-2.7-13.3a324.4,324.4,0,0,0-33.5,19Z" class="cls-1"/><path d="M342.3,51.61l27.5-31a314.16,314.16,0,0,0-53.7-6.9l-16,29.2A297.91,297.91,0,0,1,342.3,51.61Z" class="cls-2"/><path d="M131.3,76.61l-4-8.1c-8.3,5.7-16.4,11.8-24.1,18.2l4.2,5C115.2,86.31,123.2,81.31,131.3,76.61Z" class="cls-1"/><path d="M395.5,73.11,436.7,44a295.56,295.56,0,0,0-59.1-21.6l-27.9,31.4A288.23,288.23,0,0,1,395.5,73.11Z" class="cls-3"/><path d="M101.7,95.81l-3.8-4.6a272.51,272.51,0,0,0-20.6,19.6l3,2.4C87.2,107.11,94.3,101.31,101.7,95.81Z" class="cls-4"/><path d="M443.7,47.61l-41.3,29.2a302.21,302.21,0,0,1,50.1,35.7l53.7-20.9A299.43,299.43,0,0,0,443.7,47.61Z" class="cls-3"/><path d="M72.3,115.91a339,339,0,0,0-29,36.5A295.78,295.78,0,0,1,75,118Z" class="cls-4"/><path d="M217.6,25.81l-1.1,19.8a276.24,276.24,0,0,1,31.8-4l6.9-24.2A335.64,335.64,0,0,0,217.6,25.81Z" class="cls-5"/><path d="M255.7,41.21c3.6-.1,7.3-.2,11-.2,8.7,0,17.4.4,25.9,1.2l15.6-28.6a311.54,311.54,0,0,0-45.5,2.7Z" class="cls-2"/><path d="M175.9,56.41A272.38,272.38,0,0,1,209.4,47l1.1-19a300.05,300.05,0,0,0-37.3,14.5Z" class="cls-5"/></g><g id="Needle"><path d="M249.83,172.71a21.17,21.17,0,1,0,19.4,22.8A21.18,21.18,0,0,0,249.83,172.71Zm-2.3,29.8a8.73,8.73,0,1,1,9.4-8A8.8,8.8,0,0,1,247.53,202.51Z" class="cls-4"/><path d="M315,81.11c-2.6,1.8-5,3.7-7.5,5.6l-9.3,14.8L279.53,131l-18.7,29.5-4.7,7.4-2.3,3.7a11.27,11.27,0,0,1-1.2,1.8,5.17,5.17,0,0,0-1.2,1.8c-.7,3-1.3,6-1.9,9.1a2.77,2.77,0,0,0-.1.9,8.59,8.59,0,0,1,6.1,3.9,5.58,5.58,0,0,1,.8-.5c2.6-1.8,5-3.7,7.5-5.6a4.53,4.53,0,0,0,1.1-1.9,18.58,18.58,0,0,1,1.1-1.9l2.3-3.7,4.7-7.4,18.7-29.5,18.7-29.5,9.3-14.8c.7-3,1.3-6.1,1.9-9.2s1-6.2,1.4-9.4C320.23,77.51,317.53,79.21,315,81.11Z" class="cls-4"/></g></svg>