<svg xmlns="http://www.w3.org/2000/svg" width="18" height="18" viewBox="0 0 800 800" xmlns:v="https://vecta.io/nano"><path d="M385.324 130.916l7.201-.195 2.207-.096c5.515-.082 9.662 1.319 14.268 4.375 3.636 3.915 5.154 6.454 5.25 11.75l.078 2.547c-.656 5.402-3.971 9.843-6.98 14.258l-2.104 3.113-4.352 6.391c-4.316 6.393-8.437 12.574-10.893 19.941l1.832.524c6.21 1.815 12.266 3.878 18.293 6.226l2.551.938c5.468 2.136 9.348 4.701 13.531 8.833 4.03 3.325 9.118 2.565 14.083 2.472l5.047-.051 7.863-.113c16.067-.274 30.743 1.359 46.031 6.378 4.835 1.384 8.827 1.469 13.645-.207 9.301-2.976 18.788-.273 27.5 3.438 6.539 3.892 10.848 8.48 13.383 15.73 1.036 4.123 1.228 7.661.93 11.895-.068 3.999.55 5.862 3.188 8.875L562 262c23.518 24.57 30.673 51.919 32 85l2.449 1.102c6.989 3.288 12.01 5.817 15.551 12.898.728 11.197.399 21.957-7 31-6.748 7.358-15.011 9.797-24.75 10.625-3.671.498-5.621.788-8.348 3.332-1.803 2.607-3.357 5.276-4.902 8.043-9.906 14.99-22.761 26.518-38.035 35.855-6.05 3.751-7.868 6.512-9.863 13.301-3.536 9.128-12.673 15.862-21.316 19.871-7.4 2.822-15.397 3.29-22.777.152-6.143-3.609-11.011-9.183-16.008-14.18-7.08-5.974-16.815-6.146-25.687-6.875-14.418-1.251-27.031-5.651-40.117-11.672-3.632-1.652-6.484-2.573-10.434-2.734l-2.486-.113-2.588-.105-5.051-.219-2.427-.103C368 447 368 447 364.695 446.172c-2.86-.482-2.86-.482-5.152 1.75l-2.355 2.828-1.295 1.52L352 457l-2.258 2.762-4.395 5.422c-2.966 3.558-6.093 6.942-9.257 10.323-3.092 3.328-5.925 6.78-8.716 10.369-4.599 5.713-9.959 10.724-17.375 12.125-7.94.685-14.938-1.455-21.375-6.25-4.762-4.989-7.1-10.172-7.131-17.088l.068-2.225.047-2.395c.311-9.623 2.478-18.63 4.938-27.89l1.766-6.652.915-3.445c2.383-9.149 4.358-18.338 6.148-27.618l.759-3.906c3.013-11.397 3.013-11.397 1.866-22.531-2.851-.867-2.851-.867-6.359-1.551l-1.977-.421-4.217-.885-6.593-1.397-8.774-1.877-16.017-3.495-2.427-.513c-8.605-1.979-18.085-6.502-23.077-14.038-4.748-8.264-6.106-16.313-3.86-25.766 2.524-7.95 5.358-15.751 8.4-23.514l2.303-5.928c3.348-8.621 6.9-17.138 10.598-25.615l-2.133-.38c-42.856-7.71-42.856-7.71-52.367-21.308-3.135-4.903-3.704-8.954-3.875-14.75l-.148-3.371c.738-11.44 8.195-23.035 13.211-33.191l3.372-6.864 2.341-4.764 7.256-15.068 4.809-10.11 2.285-4.851c8.906-19.051 8.906-19.051 17.876-23.218 5.924-1.975 11.252-2.284 17.443-2.314l2.748-.025 5.916-.046 9.483-.077 16.864-.137 29.827-.245 3.265-.028 46.713-.923 10.021-.275 4.42-.139z" fill="#070502"/><path d="M501.25 239.688c10.925 5.73 21.037 12.389 30.445 20.367 2.254 1.958 2.254 1.958 4.609 3.578L538 265v2l1.68.672c11.912 6.819 25.266 26.417 28.89 39.362 7.348 28.768 6.934 58.443-8.205 84.653C550.984 407.215 538.957 418.939 524 429l-2.633 1.793c-18.424 11.827-41.827 14.641-63.242 14.582l-2.158-.001c-17.628-.052-35.945-1.4-51.967-9.374l-2.41-1.184c-3.794-2.1-6.912-4.442-8.934-8.406-.925-3.397-.976-6.787-1.094-10.285-.277-7.818-1.553-13.334-7.355-18.82-3.415-2.713-7.042-4.779-10.895-6.805-4.241-2.285-6.634-4.482-9.312-8.5-6.202-22.674-6.022-58.882 5-80l1.813-4.375c4.424-9.859 10.755-17.87 18.188-25.625l2.035-2.227 1.965-2.086 1.688-1.801c7.801-6.365 13.836-7.525 23.813-7.012 11.144.702 11.144.702 21.5-2.875 1.178-1.955 1.178-1.955 2-4l1.5-1.875c1.827-2.589 2.536-5.113 3.5-8.125 1.761-4.083 3.134-6.704 7-9 14.573-4.858 33.959.064 47.25 6.688z" fill="#179f95"/><path d="M278.087 150.871l3.459-.005 11.185.002 7.811-.003 16.297.005 18.852-.002 18.177-.002 7.726-.002 10.744.007 3.247-.006 2.935.009 2.565.001C383 151 383 151 384 152c1.311 9.597-5.039 17.305-9.798 25.016-4.422 7.299-7.872 14.29-6.202 22.984 4.624 8.509 15.496 10.637 24.086 13.268 6.093 1.935 11.448 4.414 16.914 7.732v2l-2.812 2.25c-5.098 4.165-6.248 8.837-7.563 15.125-2.325 10.29-7.091 15.275-14.748 22.126-5.299 4.769-9.642 9.858-13.381 15.948-3.226 5.231-5.328 7.803-11.496 9.551l-5 .875c-4.83.897-8.639 2.452-12 6.125-2.923 4.677-3.547 8.834-3.5 14.25l.015 2.275c.287 9.186 4.071 15.475 10.25 22.1 2.703 3.011 2.399 5.713 2.48 9.641l.1 3.891.172 8.047c.203 7.711.804 15.184 2.01 22.806 1.569 9.932-.4 15.879-4.898 24.671-2.652 5.406-3.376 10.333-2.629 16.32.848 2.194 1.841 4.147 3.027 6.176 1.894 3.552 1.894 3.552 1.973 5.824-1.506 2.203-2.97 4.04-4.75 6l-1.509 1.719L340 444l-1.492 1.647-7.027 7.658a283.28 283.28 0 0 0-5.918 6.633l-1.621 1.836-3.29 3.845-4.652 5.444-1.474 1.81c-1.463 1.662-1.463 1.662-4.526 4.127-3.768-.035-5.97-.228-9-2.5-1.58-3.949-.742-7.392 0-11.5l.383-2.246c1.729-9.318 4.065-18.613 6.777-27.695 11.004-34.012 11.004-34.012 8.84-68.059-2.113-2.548-3.725-3.448-6.941-4.133l-2.268-.504-2.354-.488c-8.263-1.788-8.263-1.788-10.437-2.875l-5.437-.75c-14.186-2.112-31.981-4.94-42.562-15.25-4.007-8.014 1.751-20.262 4.391-28.297 5.104-15.093 11.628-29.888 20.547-43.141 2.115-3.255 2.554-5.631 2.063-9.562-5.843-3.695-12.06-3.961-18.812-4.75-9.9-1.29-19.495-3.039-29.125-5.687l-3.154-.837c-5.391-1.555-9.711-2.814-12.909-7.726-.82-6.249.707-11.173 2.875-17l.942-2.596c20.85-56.557 20.85-56.557 37.183-68.404 8.456-2.819 18.255-2.146 27.087-2.129z" fill="#e64f1d"/><path d="M508 244c8.714 4.214 16.02 9.631 23.452 15.743 1.462 1.187 2.961 2.329 4.462 3.468L538 265v2l1.68.672c11.912 6.819 25.266 26.417 28.89 39.362 7.348 28.768 6.934 58.443-8.205 84.653C550.984 407.215 538.957 418.939 524 429l-2.633 1.793c-18.424 11.827-41.827 14.641-63.242 14.582l-2.158-.001c-17.628-.052-35.945-1.4-51.967-9.374l-2.41-1.184c-3.792-2.099-6.916-4.44-8.93-8.406-1.11-4.054-1.096-8.227-1.226-12.407-.237-5.734-1.507-10.101-4.434-15.003l1.965.656c7.902 2.243 15.414 2.675 23.598 2.719l3.15.041c7.479-.042 14.124-1.324 21.287-3.416l3.375-.922C465.317 390.209 482.653 370.205 495 348c2.494-4.873 4.807-9.638 6-15l-3-1c-1.352-1.523-1.352-1.523-2.625-3.375l-1.289-1.836c-3.24-5.338-2.578-11.782-2.086-17.789 1.886-7.34 7.663-12.408 14-16.195 2-.805 2-.805 6-.805l-.262-13.385-.084-4.535c-.138-8.864-.734-17.02-3.021-25.649C508 246 508 246 508 244z" fill="#008565"/><path d="M278.103 150.886h3.463l11.2.016 7.818.004 18.39.021 20.961.022L383 151v1H279l-2 6a80.27 80.27 0 0 1-2.687 4.375c-10.226 16.693-16.222 35.866-12.809 55.527 1.439 4.941 3.43 7.796 7.496 11.098 4.655 2.011 9.523 3.389 14.365 4.873 8.962 2.89 15.998 6.594 20.635 15.127 5.279 16.587-3.589 34.2-10.666 48.83-4.84 9.633-4.84 9.633-5.334 20.17 2.087 3.175 4.878 4.51 8.148 6.266 4.547 2.51 8.809 5.289 13.039 8.297l2.211 1.572C326.365 344.926 340.137 357.24 350 373l1.313 2.047c3.003 5.214 3.906 10.028 2.688 15.953-1.503 4.03-3.414 7.854-5.371 11.68-2.652 5.406-3.376 10.333-2.629 16.32.848 2.194 1.841 4.147 3.027 6.176 1.894 3.552 1.894 3.552 1.973 5.824-1.506 2.203-2.97 4.04-4.75 6l-1.509 1.719L340 444l-1.492 1.647-7.027 7.658a283.28 283.28 0 0 0-5.918 6.633l-1.621 1.836-3.29 3.845-4.652 5.444-1.474 1.81c-1.463 1.662-1.463 1.662-4.526 4.127-3.768-.035-5.97-.228-9-2.5-1.58-3.949-.742-7.392 0-11.5l.383-2.246c1.729-9.318 4.065-18.613 6.777-27.695 11.004-34.012 11.004-34.012 8.84-68.059-2.113-2.548-3.725-3.448-6.941-4.133l-2.268-.504-2.354-.488c-8.263-1.788-8.263-1.788-10.437-2.875l-5.437-.75c-14.186-2.112-31.981-4.94-42.562-15.25-4.007-8.014 1.751-20.262 4.391-28.297 5.104-15.093 11.628-29.888 20.547-43.141 2.115-3.255 2.554-5.631 2.063-9.562-5.843-3.695-12.06-3.961-18.812-4.75-9.9-1.29-19.495-3.039-29.125-5.687l-3.154-.837c-5.391-1.555-9.711-2.814-12.909-7.726-.82-6.249.707-11.173 2.875-17l.942-2.596c20.85-56.557 20.85-56.557 37.183-68.404 8.464-2.821 18.265-2.144 27.103-2.114z" fill="#d83f1c"/><path d="M385.324 130.916l7.201-.195 2.207-.096c5.515-.082 9.662 1.319 14.268 4.375 3.636 3.915 5.154 6.454 5.25 11.75l.078 2.547c-.656 5.402-3.971 9.843-6.98 14.258l-2.104 3.113-4.352 6.391c-4.316 6.393-8.437 12.574-10.893 19.941l1.832.524c6.21 1.815 12.266 3.878 18.293 6.226l2.551.938c5.468 2.136 9.348 4.701 13.531 8.833 4.03 3.325 9.118 2.565 14.083 2.472l5.047-.051 7.863-.113c16.067-.274 30.743 1.359 46.031 6.378 4.835 1.384 8.827 1.469 13.645-.207 9.301-2.976 18.788-.273 27.5 3.438 6.539 3.892 10.848 8.48 13.383 15.73 1.036 4.123 1.228 7.661.93 11.895-.068 3.999.55 5.862 3.188 8.875L562 262c23.518 24.57 30.673 51.919 32 85l2.449 1.102c6.989 3.288 12.01 5.817 15.551 12.898.728 11.197.399 21.957-7 31-6.748 7.358-15.011 9.797-24.75 10.625-3.671.498-5.621.788-8.348 3.332-1.803 2.607-3.357 5.276-4.902 8.043-9.906 14.99-22.761 26.518-38.035 35.855-6.05 3.751-7.868 6.512-9.863 13.301-3.536 9.128-12.673 15.862-21.316 19.871-7.4 2.822-15.397 3.29-22.777.152-6.143-3.609-11.011-9.183-16.008-14.18-7.08-5.974-16.815-6.146-25.687-6.875-14.418-1.251-27.031-5.651-40.117-11.672-3.632-1.652-6.484-2.573-10.434-2.734l-2.486-.113-2.588-.105-5.051-.219-2.427-.103C368 447 368 447 364.695 446.172c-2.86-.482-2.86-.482-5.152 1.75l-2.355 2.828-1.295 1.52L352 457l-2.258 2.762-4.395 5.422c-2.966 3.558-6.093 6.942-9.257 10.323-3.092 3.328-5.925 6.78-8.716 10.369-4.599 5.713-9.959 10.724-17.375 12.125-7.94.685-14.938-1.455-21.375-6.25-4.762-4.989-7.1-10.172-7.131-17.088l.068-2.225.047-2.395c.311-9.623 2.478-18.63 4.938-27.89l1.766-6.652.915-3.445c2.383-9.149 4.358-18.338 6.148-27.618l.759-3.906c3.013-11.397 3.013-11.397 1.866-22.531-2.851-.867-2.851-.867-6.359-1.551l-1.977-.421-4.217-.885-6.593-1.397-8.774-1.877-16.017-3.495-2.427-.513c-8.605-1.979-18.085-6.502-23.077-14.038-4.748-8.264-6.106-16.313-3.86-25.766 2.524-7.95 5.358-15.751 8.4-23.514l2.303-5.928c3.348-8.621 6.9-17.138 10.598-25.615l-2.133-.38c-42.856-7.71-42.856-7.71-52.367-21.308-3.135-4.903-3.704-8.954-3.875-14.75l-.148-3.371c.738-11.44 8.195-23.035 13.211-33.191l3.372-6.864 2.341-4.764 7.256-15.068 4.809-10.11 2.285-4.851c8.906-19.051 8.906-19.051 17.876-23.218 5.924-1.975 11.252-2.284 17.443-2.314l2.748-.025 5.916-.046 9.483-.077 16.864-.137 29.827-.245 3.265-.028 46.713-.923 10.021-.275 4.42-.139zm-43.65 9.662l-35.823.584-7.971.07-2.675.025-5.377.05-16.085.11-10.158.086-4.785.025-6.626.055-3.775.025c-5.105.589-8.329 2.331-11.955 5.923-3.271 4.244-5.352 9.122-7.57 13.969l-2.922 6.238-1.49 3.182c-2.199 4.63-4.518 9.197-6.838 13.767-4.4 8.713-8.582 17.521-12.687 26.375l-.86 1.853c-7.438 15.6-7.438 15.6-6.015 32.522C207.523 257.95 223.369 259.9 238 262l11.145 1.473c2.659.491 4.536 1.174 6.855 2.527.185 4.125-.077 6.833-1.953 10.504-2.653 5.525-4.964 11.14-7.219 16.836l-1.122 2.834-2.291 5.808-3.528 8.919-2.246 5.689-1.064 2.683-.982 2.5-.863 2.187c-2.483 6.918-3.627 15.751-.603 22.594 6.625 9.167 16.698 12.197 27.289 14.383l2.361.504 7.409 1.559 4.908 1.039 2.425.514 7.082 1.513 8.329 1.711 3.494.723 3.001.594c3.076 1.083 4.54 2.379 6.573 4.906.461 2.926.461 2.926.375 6.313l-.039 3.301c-.72 11.864-3.009 23.498-5.586 35.074l-.459 2.091c-2.261 10.275-4.897 20.37-8.127 30.386-2.002 6.378-2.451 12.628-2.602 19.273l-.139 2.486c-.104 5.641 1.024 8.565 4.888 12.686 3.937 3.243 7.394 3.9 12.387 3.761 7.249-1.169 11.904-8.049 16.301-13.371l5.313-6.312 1.424-1.693a335.81 335.81 0 0 1 9.388-10.62c4.148-4.511 8.045-9.176 11.867-13.965C354 441 354 441 356.258 438.809c1.973-1.63 1.973-1.63 1.742-3.809l1.484.621c6.192 2.231 12.003 2.671 18.516 2.879 10.254.363 17.758 2.026 26.652 7.234 9.454 5.096 19.488 7.184 30.098 7.703 15.848.829 27.302 4.773 38.16 16.652 3.934 3.948 6.812 6.464 12.527 6.723 7.413-.581 14.641-4.165 20.191-9.102 3.929-4.903 6.245-11.132 8.742-16.852 1.829-3.21 3.467-4.604 6.504-6.672l2.977-2.078 6.234-4.094c13.216-8.68 24.025-19.357 32.082-32.992 2.94-4.851 5.582-8.608 10.832-11.023 3.016-.371 3.016-.371 6.25-.437 7.492-.432 12.669-2.219 18.625-6.75 4.516-5.977 6.7-14.328 6.125-21.812-2.983-5.452-6.943-7.231-12.598-9.531-3.383-2.068-4.639-3.901-6.402-7.469-.538-3.46-.551-6.878-.562-10.375-.751-28.696-11.008-50.243-30.359-71.301-5.2-5.816-7.118-8.626-7.391-16.449-.43-7.99-1.824-12.946-7.437-18.687-7.525-5.065-14.208-5.97-23.25-5.187-2.012.631-4.014 1.294-6 2-6.865.732-12.716-.797-19.187-2.937l-5.168-1.652-2.27-.746c-6.121-1.713-11.966-1.785-18.269-1.727l-2.869.011-12.088.072-8.855.042-2.719.025c-5.607.022-11.011-.372-16.574-1.088l-.316-1.844c-1.176-3.706-4.466-5.307-7.684-7.156-3.212-1.52-6.49-2.806-9.812-4.062l-5.082-1.973-2.53-.973-8.025-3.113-2.428-.947C384 199 384 199 381 197c-1.743-9.065 3.835-17.206 8.657-24.51 3.016-4.418 6.107-8.778 9.233-13.119 5.358-6.957 5.358-6.957 6.109-15.371-2.213-2.978-3.384-3.906-7.092-4.47l-3.697.044-2.05.009-6.785.105-4.913.049-38.788.841z" fill="#edac31"/><path d="M164.305 539.031c2.995 2.187 4.358 3.508 5.695 6.969.287 4.351-.31 7.143-3.062 10.563-3.972 1.944-6.83 1.662-10.937.438-2.884-1.186-5.686-2.469-8.484-3.844-7.012-3.223-14.529-3.152-21.766-.594-5.469 2.442-9.156 5.826-11.59 11.34-1.037 3.206-1.239 4.862-.16 8.098 4.025 2.249 7.566 2.186 12.102 2.055l4.176-.074 6.496-.172c10.689-.311 20.152.271 29.102 6.817 5.537 5.337 8.389 11.643 8.688 19.313-.582 12.248-6.187 21.094-14.875 29.313-8.837 7.549-19.443 10.268-30.93 9.996-10.343-.923-19.817-5.654-26.758-13.371-2.911-3.484-4.846-6.364-5.312-10.937C97 612 97 612 98.125 610.125c2.813-1.688 4.65-1.577 7.875-1.125 2.92 1.877 4.794 3.726 6.875 6.5 3.261 3.836 8.28 7.199 13.375 7.738 8.352.225 15.084-1.21 21.625-6.613 4.661-5.758 7.275-9.844 7.188-17.312L155 594c-8.524-2.929-16.17-3.288-25.125-3-19.552.625-19.552.625-26.75-5.75-5.332-5.097-6.324-9.747-6.687-16.937.251-9.866 4.128-17.076 10.813-24.187 16.051-14.889 38.458-16.524 57.055-5.094zM250 556.188c8.389 7.314 10.099 16.244 11.696 26.808l.894 5.481c1.573 9.803 2.06 19.616 2.41 29.523l.164 3.961.086 3.477.078 2.996c-.394 3.083-1.058 4.447-3.328 6.566-2.121.242-2.121.242-4.437-.125l-2.309-.32c-2.315-.57-4.131-1.491-6.254-2.555-5.239-.485-9.571.299-14.687 1.5-9.606 2.147-18.982 3.114-28.152-1.105-4.826-3.115-7.303-7.407-9.535-12.582-1.442-8.798-1.814-16.754 2.773-24.66 5.048-6.784 12.486-10.335 20.602-12.152 7.3-.992 14.651-1.522 22-2 .24-5.087.24-5.087-1.5-9.75-4.571-4.114-9.988-5.868-16.184-5.602-7.593 1.152-14.725 4.039-21.691 7.164-4.795 2.062-7.647 2.919-12.625 1.188-2.383-3.575-2.648-4.786-2-9 4.102-8.185 14.414-12.133 22.641-14.883 13.296-3.126 28.037-1.977 39.359 6.07zm-35.562 47.438c-2.181 3.604-2.089 7.263-1.437 11.375l2 3c9.449 1.708 19.711-.99 27.688-6.187 2.152-1.612 2.152-1.612 3.313-2.812a59.19 59.19 0 0 0 .063-4.062L246 601c-10.344-3.849-22.172-3.33-31.562 2.625zM549 542.438c3 .563 3 .563 5.016 2.348 2.954 4.785 3.73 9.727 4.734 15.215l.648 3.497c2.641 15.263 4.909 33.558-4.164 47.148-5.155 6.282-10.669 9.911-18.672 11.355-7.02.495-12.421-2.841-17.625-7.25L516 612c-2.958 1.371-5.385 2.978-7.937 5-5.356 4.051-9.208 5.601-16.062 5-7.004-2.335-11.232-7.762-14.672-14.062-4.255-8.931-7.735-17.981-8.328-27.937l-.16-2.602c-.188-6.054.371-11.825 1.41-17.773l.331-2.018c1.073-5.606 3.406-9.595 7.419-13.607 4.061-.526 6.139-.662 9.438 1.875 2.557 5.115 2.086 10.282 1.066 15.82-2.074 13.603-1.182 26.72 4.496 39.305 1.066 1.296 1.066 1.296 3.563 1.063L499 602c5.894-10.739 8.443-19.955 7.978-32.162-.213-6.669-.213-6.669 2.022-9.838 2.543-1.907 3.856-2.006 7.063-1.875 3.572 1.064 4.07 1.703 5.938 4.875a124.13 124.13 0 0 1 2.191 8.379l.578 2.45 1.793 7.734 1.804 7.744 1.112 4.815c.807 3.448 1.537 5.901 3.522 8.879 4.308-.278 4.308-.278 7.594-2.785 7.977-12.564 4.708-29.543 2.063-43.289-1.462-8.748-1.462-8.748.969-12.301C546 543 546 543 549 542.438zm-171.664 4.609C387.625 554.59 395.504 564.602 399 577c-.071 4.128-.165 6.175-3.141 9.117-3.291 2.167-5.665 2.745-9.547 3.383l-2.006.341L377 591l-3.288.517L351 595c.271 2.009.608 4.011 1 6 1.697 1.309 1.697 1.309 4 2l2.563 1.625c8.336 3.334 16.568 1.142 24.867-1.289 3.893-1.104 6.683-1.587 10.571-.336 1.813 1.063 1.813 1.063 3 3 .624 4.84.843 6.85-2.062 10.813-9.02 6.717-19.134 6.928-29.937 6.188-13.166-2.426-23.061-9.341-31-20-1.587-2.588-2.896-5.174-4-8l-1.074-2.73c-2.712-9.578-1.953-20.626 2.398-29.551C336.304 554.64 342.3 548.817 351 545l2.813-1.312c8.768-1.891 15.811-1.397 23.523 3.359zm-29.922 20.109c-1.909 2.489-2.842 4.769-3.414 7.844l1 2c17.209 1.115 17.209 1.115 33-4-.389-5.443-2.166-8.166-6-12-8.986-5.069-18.171-.756-24.586 6.156zm269.602-30.89c9.527 7.2 13.504 19.114 15.43 30.465 4.287 31.189 4.287 31.189 1.617 39.02-6.732 7.344-15.357 10.997-25.195 11.531-11.807.375-19.101-.879-27.883-9.086-4.764-5.27-7.371-11.742-7.266-18.875 1-8.247 4.874-13.831 11.25-18.879 8.566-6.289 17.702-6.695 28.031-7.441l-1.25-4.812-.703-2.707c-1.258-2.981-2.2-3.964-5.047-5.48-9.257-1.543-16.8.866-25 5-3.598 1.799-7.555 1.38-11.375.375C568 554 568 554 566.938 551.25c.069-3.59.826-5.137 3.277-7.738 12.724-10.775 31.822-16.651 46.801-7.246zm-24.078 47.984c-2.521 3.578-2.628 5.456-1.937 9.75 2.197 3.531 4.166 5.469 8 7 5.667.741 10.425 1.112 15.188-2.25 3.131-4.751 3.272-9.153 2.813-14.75-.657-2.407-.657-2.407-2-4-7.841-2.614-15.571-.519-22.062 4.25zm-289-39.562l2.381-.088c5.329-.058 8.567.677 12.682 4.4 1.011 2.976.46 4.783 0 8-1.717 2.495-2.811 2.955-5.785 3.66l-3.277.402c-4.255.572-8.473 1.173-12.687 2l-2.422.473c-1.834.301-1.834.301-2.828 1.465a116.25 116.25 0 0 0-.098 5.785l.01 3.545.025 3.732.014 3.744L292 591l2.048-.063 9.202-.187 3.223-.102 3.105-.039 2.856-.063c3.354.594 4.509 1.788 6.565 4.454.5 3.5.5 3.5 0 7-2.835 3.58-5.213 4.637-9.625 5.563-5.549 1.241-10.945 2.759-16.375 4.438-1.171 7.408-.617 13.914.438 21.313.899 6.402 1.691 12.764 1.91 19.23l.098 2.887c-.583 3.36-1.795 4.489-4.446 6.57-3.437 1-3.437 1-7 1-2.802-1.766-4.515-3.03-6-6-.286-2.619-.522-5.222-.719-7.848l-.189-2.41-.592-7.805-.205-2.684c-.88-11.563-1.589-23.108-1.949-34.7-.231-6.943-.758-13.825-1.408-20.741-2.038-22.449-2.038-22.449.75-28.437 4.255-3.985 10.813-5.048 16.313-6.375l2.348-.586c3.864-.603 7.684-.679 11.59-.727zM689 503c6.645 5.696 7.194 16.138 7.86 24.323l.676 9.654.376 5.212.959 13.661 1.543 21.791.522 7.518.334 4.742.159 2.302c.285 3.855.666 7.67 1.209 11.498l.319 2.31.667 4.285c.842 5.877-.56 9.756-3.936 14.579-2.575 1.716-4.612 2.002-7.687 2.125-2.75-.812-2.75-.812-5-3-1.154-3.281-1.607-6.553-2-10l-.239-2.085c-.629-6.095-.925-12.185-1.156-18.306-.901-23.764-2.316-47.159-6.707-70.582-.997-5.374-1.659-10.576-.898-16.027 3.436-4.976 7.343-5.616 13-4zm-33 0c5.052 3.963 5.482 11.179 6.295 17.174.717 6.11 1.229 12.239 1.748 18.369l.525 5.937 1.076 12.383 1.382 15.816 1.073 12.238.511 5.831.703 8.159.212 2.395c1.342 16.034 1.342 16.034-2.526 21.698-2.525 2.002-3.76 2.01-7 1.875-3.557-1.037-4.711-1.984-7-4.875-.78-3.177-.78-3.177-1.164-6.98l-.223-2.114c-.819-8.146-1.312-16.324-1.818-24.495-.944-15.099-2.15-30.135-3.92-45.161l-.261-2.22-2.155-16.789c-.788-5.569-1.404-10.971.792-16.242 3.666-4.189 6.403-4.479 11.75-3zm-238.187 37.125C421 541 421 541 423.625 543.25c4.683 2.428 7.183 1.081 12.082-.367 8.098-2.171 16.365-2.819 24.293.117 2 1.188 2 1.188 3 3 .385 3.526.542 5.978-1.141 9.152-2.547 2.531-4.448 2.58-7.984 2.973l-3.512.453L447 559c-6.956 1.11-12.369 2.579-16.875 8.438-2.958 9.368-.817 19.071.794 28.521 2.734 16.514 2.734 16.514-.228 22.835C429 621 429 621 425.563 621.938c-4.96.087-4.96.087-7.562-1.937-1.551-2.679-2.325-5.019-2.762-8.072l-.354-2.4-.357-2.579-.388-2.7-.799-5.671-1.218-8.525C406.369 549.71 406.369 549.71 412 542c3-2 3-2 5.813-1.875z"/><path d="M528.75 292.91c1.995 1.212 3.576 2.467 5.25 4.09l1.727 1.492c3.787 3.464 5.99 6.365 6.453 11.504.259 8.297-.879 15.686-6.305 22.207-5.58 5.348-11.354 7.106-19 7.359-7.547-.295-12.037-2.047-17.625-7-6.127-6.977-7.633-10.967-7.52-20.27.558-6.813 3.298-10.642 8.27-15.168 7.794-6.546 19.071-7.418 28.75-4.215z" fill="#010505"/><path d="M412.125 315.063c4.977 2.074 9.453 6.094 11.875 10.938.15 2.247.222 4.499.25 6.75l.078 3.672c-.596 6.5-3.58 10.304-8.328 14.578-4.868 3.245-10.414 3.54-16.125 2.438-5.748-1.706-9.293-5.774-13.312-10-2.451-5.392-2.29-10.617-1.562-16.437 5.087-10.956 15.775-15.515 27.125-11.937z" fill="#020706"/><path d="M497.875 387.75c3.836 2.762 5.82 4.462 6.629 9.203.12 6.763-.139 11.35-4.824 16.457L498 415l-2.5 2.5c-5.983 2.564-13.411 2.898-19.637.77-3.33-2.055-5.484-4.667-6.863-8.27-.905-5.816-.871-10.538 2.625-15.437 6.573-7.565 16.772-11.944 26.25-6.812z" fill="#000302"/><path d="M522 301c4.603 1.801 6.837 4.594 9 9 .817 5.077.637 8.814-1.812 13.375L527 326l-1.238 2.129C524 330 524 330 521.039 330.566c-9.252-.011-9.252-.011-13.227-2.816-4.074-6.181-4.954-11.337-3.812-18.75 4.302-7.785 9.613-8.715 18-8z" fill="#6ebdb9"/><path d="M372 399c3.839 2.067 6.854 4.16 9 8 .688 2.625.688 2.625 1 6l.23 2.398c.246 4.43-.019 7.148-1.918 11.227-2.839 2.864-5.842 2.888-9.75 3.063-4.038-.187-7.036-.384-10.25-2.937-4.207-5.003-4.758-8.603-4.629-15.059.588-5.001 3.248-7.594 6.629-11.066 3.555-2.149 5.591-2.2 9.688-1.625z" fill="#6fc0bb"/><path d="M428 231c3.451 1.332 5.41 2.41 8 5 .545 3.474.661 5.911-1.203 8.98-2.699 3.306-4.475 5.321-8.797 6.02-5.767.577-9.645.053-14.473-3.312-1.887-2.085-2.234-3.337-2.465-6.125.354-3.533 1.269-5.584 3.75-8.125 4.7-3.439 9.602-3.304 15.188-2.437zm-21 94c4.288 2.462 4.288 2.462 6 5 1.075 4.505.522 7.935-1.5 12.063-2.819 2.185-4.877 2.786-8.461 2.551-3.987-1.199-6.119-4.045-8.039-7.613-.75-3.625-.75-3.625 0-7 3.66-4.095 6.474-6.151 12-5z" fill="#6ebeb9"/><path d="M497 452c2 2 2 2 2.5 4.313-.756 4.064-3.247 5.346-6.5 7.688-2.903 1.451-4.773 1.372-8 1-2.278-1.474-4.02-3.114-6-5 .063-2.312.063-2.312 1-5 5.311-3.277 10.83-3.869 17-3z" fill="#69b5b0"/><path d="M585.875 366.75c2.533.05 3.868.114 6.125 1.313 1.641 3.18 1.477 5.417 1 8.938-1.368 2.786-2.551 3.864-5 6-3.566.553-5.744.689-8.937-1.062-1.687-3.076-1.418-5.496-1.062-8.937 2.967-5.933 2.967-5.933 7.875-6.25z" fill="#6dbcb7"/><path d="M358 435l4 1c-3.126 3.394-5.565 5.606-10 7l6-8z" fill="#e1a52f"/><path d="M347 290l2 1-8 8-1-2c2.219-2.908 3.93-4.953 7-7z" fill="#311106"/><path d="M415 232l2 1-4 5h-2l-1 3c.479-4.314 1.746-6.166 5-9z" fill="#66afab"/></svg>