<svg width="40" height="40" viewBox="0 0 40 40" fill="none" xmlns="http://www.w3.org/2000/svg">
<g clip-path="url(#clip0_23298_4008)">
<path d="M40 0H0V40H40V0Z" fill="#E7157B" fill-opacity="0.12"/>
<path fill-rule="evenodd" clip-rule="evenodd" d="M27.63 24.1243C27.63 22.2208 26.0499 20.6723 24.1075 20.6723C22.1651 20.6723 20.585 22.2208 20.585 24.1243C20.585 26.0279 22.1651 27.5764 24.1075 27.5764C26.0499 27.5764 27.63 26.0279 27.63 24.1243ZM28.6364 24.1243C28.6364 26.5713 26.6044 28.5627 24.1075 28.5627C21.6106 28.5627 19.5786 26.5713 19.5786 24.1243C19.5786 21.6773 21.6106 19.686 24.1075 19.686C26.6044 19.686 28.6364 21.6773 28.6364 24.1243ZM32.9117 30.7029L29.5251 27.7135C29.2362 28.1307 28.8951 28.5064 28.5166 28.8457L31.8841 31.8224C32.2001 32.0995 32.6862 32.0739 32.969 31.7661C33.2508 31.4594 33.2257 30.9811 32.9117 30.7029ZM24.1075 29.549C27.159 29.549 29.6428 27.1158 29.6428 24.1243C29.6428 21.1329 27.159 18.6997 24.1075 18.6997C21.056 18.6997 18.5722 21.1329 18.5722 24.1243C18.5722 27.1158 21.056 29.549 24.1075 29.549ZM33.586 29.9711C34.3106 30.6132 34.369 31.7139 33.7168 32.426C33.3656 32.8067 32.8825 33 32.3964 33C31.9727 33 31.549 32.853 31.2108 32.5552L27.7165 29.4661C26.6809 30.1407 25.441 30.5353 24.1075 30.5353C20.5005 30.5353 17.5658 27.6592 17.5658 24.1243C17.5658 20.5895 20.5005 17.7134 24.1075 17.7134C27.7145 17.7134 30.6492 20.5895 30.6492 24.1243C30.6492 25.0919 30.4228 26.0072 30.0293 26.8307L33.586 29.9711ZM10.5923 24.6175H15.5529V25.6038H10.5863C10.0287 25.5979 9.42988 25.3976 8.79986 25.0081C7.7562 24.3739 6 22.8806 6 20.0352C6 16.593 8.41038 15.3286 9.81232 14.8847C9.80125 14.722 9.79622 14.5573 9.79622 14.3926C9.79622 11.5885 11.7376 8.67898 14.311 7.62759C17.3242 6.39078 20.5136 7.00524 22.8424 9.26583C23.5711 9.973 24.1699 10.8321 24.6278 11.8292C25.2417 11.3222 26.0026 11.0421 26.8047 11.0421C28.3657 11.0421 30.1239 12.207 30.4309 14.7546C31.8871 15.081 35 16.23 35 20.0756C35 21.7276 34.4334 23.0651 33.3132 24.0474L32.6409 23.3136C33.5387 22.5256 33.9936 21.4357 33.9936 20.0756C33.9936 16.6936 31.1062 15.8533 29.8642 15.6491C29.7294 15.6274 29.6106 15.5525 29.5331 15.442C29.4546 15.3315 29.4275 15.1954 29.4536 15.0642C29.3067 12.9901 28.0164 12.0284 26.8047 12.0284C26.0479 12.0284 25.3384 12.3894 24.8573 13.0187C24.7476 13.1646 24.5624 13.2357 24.3803 13.212C24.1981 13.1854 24.0441 13.0621 23.9817 12.8914C23.5489 11.7197 22.928 10.7364 22.1349 9.96708C20.103 7.99449 17.3232 7.45894 14.6985 8.53794C12.5136 9.43054 10.8026 12.0018 10.8026 14.3926C10.8026 14.6609 10.8187 14.9291 10.8509 15.1865C10.8691 15.3266 10.8248 15.4676 10.7292 15.5742C10.6527 15.659 10.55 15.7142 10.4383 15.7339C9.14204 16.0614 7.00642 17.0536 7.00642 20.0352C7.00642 22.2849 8.2725 23.5266 9.33326 24.1727C9.80628 24.4646 10.229 24.6135 10.5923 24.6175Z" fill="#E7157B"/>
</g>
<rect x="0.5" y="0.5" width="39" height="39" stroke="#E7157B"/>
<defs>
<clipPath id="clip0_23298_4008">
<rect width="40" height="40" fill="white"/>
</clipPath>
</defs>
</svg>
