<svg xmlns="http://www.w3.org/2000/svg" width="40" height="40" fill="#202020" viewBox="0 0 40 40">
  <path d="M3.33301 19.9999C3.33301 12.1432 3.33301 8.2148 5.77379 5.77403C8.21456 3.33325 12.1429 3.33325 19.9997 3.33325C27.8563 3.33325 31.7848 3.33325 34.2255 5.77403C36.6663 8.2148 36.6663 12.1432 36.6663 19.9999C36.6663 27.8566 36.6663 31.7851 34.2255 34.2257C31.7848 36.6666 27.8563 36.6666 19.9997 36.6666C12.1429 36.6666 8.21456 36.6666 5.77379 34.2257C3.33301 31.7851 3.33301 27.8566 3.33301 19.9999Z" fill="#f6f8f8"></path>
  <path d="M28.375 8.19048L28.1416 7.94386L27.154 8.89102C26.8143 8.63558 27.2754 9.04919 26.8051 8.75618C25.2662 7.81303 23.5624 9.32782 23.004 10.4176C21.81 12.7243 21.0921 12.678 18.7473 13.8733L18.9354 14.183C20.0293 13.8862 21.1774 13.4202 22.0191 12.9421L20.1434 14.4437L23.6253 18.5567L26.9541 15.4917C27.412 15.1287 27.6055 14.8908 27.9947 14.5489C28.1828 14.3774 28.3531 14.2579 28.5543 14.0875L30.4466 12.3868C31.2086 12.0625 30.8447 12.0991 31.3524 11.7804C31.2184 11.4618 31.2295 11.6499 31.1487 11.3357C31.7747 10.8798 31.1396 9.23907 30.7114 8.76242C29.9911 7.94072 29.2511 7.94245 28.3994 8.21923L28.375 8.19048ZM22.8375 12.2616C23.0288 11.8899 23.3672 11.517 23.6347 11.0313C23.9178 10.5202 24.7735 8.74675 25.2889 8.6559C25.832 8.55399 26.3687 9.1733 26.4374 9.47306C25.9894 9.71654 23.636 11.6596 22.8242 12.2605L22.8375 12.2616Z" fill="#202020"></path>
  <path d="M12.6332 22.0566C12.242 22.5331 11.9313 23.0714 11.1773 24.0801C10.8013 24.5758 10.1239 25.3843 9.8521 25.8924L10.0366 26.1853C9.75969 26.5883 9.19294 27.139 9.14689 27.3776C8.96378 28.1753 10.5437 27.3 10.8144 27.1267C10.8144 27.1267 10.741 27.1492 11.033 27.3583C12.4016 26.8066 13.7181 26.2486 15.1255 25.6666C15.2358 25.6274 15.3287 25.5862 15.4043 25.5429L12.6332 22.0566Z" fill="#202020"></path>
  <path opacity="0.8" d="M22.7773 18.6826L19.6921 14.9816L19.4297 15.2111C19.5022 15.4006 19.5043 15.3474 19.6045 15.5113L13.5287 21.1492C13.3488 21.3154 13.1961 21.4693 13.0577 21.5971L15.9639 25.1044C16.0879 25.0027 16.213 24.8744 16.4062 24.7087L22.4697 19.0437C22.7444 19.1746 22.6246 19.1698 22.8595 19.2991L23.1091 19.0557L22.879 18.8067L22.7773 18.6826Z" fill="#202020"></path>
  <path d="M29.6412 23.9505L29.3541 18.9999" stroke="#202020" fill="none"></path>
  <line y1="-1" x2="9.58016" y2="-1" transform="matrix(-0.971384 0.237513 0.237513 0.971384 27.2305 28.9723)" stroke="#202020" fill="none"></line>
  <path d="M11.5553 32.0884L19.6164 32.44L17.9822 30.2736L18.3854 27.5282L11.5553 32.0884Z" fill="#202020"></path>
  <path d="M27.7352 27.665C28.0435 28.9258 29.3155 29.6979 30.5762 29.3896C31.837 29.0814 32.6091 27.8094 32.3009 26.5487C31.9926 25.2879 30.7206 24.5157 29.4599 24.824C28.1991 25.1323 27.427 26.4042 27.7352 27.665Z" stroke="#202020" fill="none"></path>
</svg>

