<svg width="40" height="40" viewBox="0 0 40 40" fill="none" xmlns="http://www.w3.org/2000/svg">
<g clip-path="url(#clip0_23298_3953)">
<path d="M40 0H0V40H40V0Z" fill="#01A88D" fill-opacity="0.12"/>
<path fill-rule="evenodd" clip-rule="evenodd" d="M19.004 32.0015H21.003V31.0022H19.004V32.0015ZM19.004 30.003H21.003V29.0037H19.004V30.003ZM19.004 28.0045H21.003V27.0052H19.004V28.0045ZM19.5037 13.0157H20.5032V12.0165H19.5037V13.0157ZM20.0035 10.002C18.6252 10.002 17.5047 11.1222 17.5047 12.5001C17.5047 13.8771 18.6252 14.9983 20.0035 14.9983C21.3818 14.9983 22.5022 13.8771 22.5022 12.5001C22.5022 11.1222 21.3818 10.002 20.0035 10.002ZM20.0035 9.00275C21.9315 9.00275 23.5017 10.5716 23.5017 12.5001C23.5017 14.4287 21.9315 15.9975 20.0035 15.9975C18.0745 15.9975 16.5052 14.4287 16.5052 12.5001C16.5052 10.5716 18.0745 9.00275 20.0035 9.00275ZM21.003 6.99925H22.0025V6H21.003V6.99925ZM23.9595 34H24.959V27.0052H23.9595V34ZM14.985 34H15.9845V29.0037H14.985V34ZM14.985 27.0052H15.9845V25.0067H14.985V27.0052ZM26.0225 20.2253C25.5177 19.9885 24.908 20.0005 24.3963 19.9885H23.002V20.9878H24.4083H24.4193C24.8321 20.9878 25.2969 20.9888 25.5967 21.1297C25.7176 21.1866 26.0005 21.3195 26.0005 22.009V23.0082H22.0025V24.0075H26.0005V34H27V22.009C27 21.1307 26.6712 20.5311 26.0225 20.2253ZM20.0035 24.0175V23.0182H14.0005L13.9995 22.009C13.9995 21.3115 14.2614 21.1816 14.3753 21.1267C14.6572 20.9878 15.1 20.9868 15.5337 20.9888H17.005V19.9895H15.5197C15.007 19.9985 14.4243 19.9895 13.9335 20.2303C13.3138 20.5341 13 21.1336 13 22.009L13.007 28.0045L14.0065 28.0035L14.0015 24.0175H20.0035ZM27 7.00225V18.012C27 18.3308 27 18.5836 26.7991 18.7904C26.5962 19.0012 26.3383 19.0052 26.0395 19.0052H26.0225H21.9955V21.0097H20.996V19.0052H18.997V21.0097H17.9975V19.0052H14.0065C13.2249 19.0052 13 18.7824 13 18.012V7.02023C13 6.6665 13 6.41269 13.2149 6.20385C13.4238 6 13.6807 6 14.0065 6H20.0035V6.99925H14.0065H13.9995V18.006H14.0065H26.0005V7.02023V6.99925H23.002V6H26.0005C26.3263 6 26.5832 6 26.7941 6.21184C27 6.42168 27 6.67749 27 7.00225Z" fill="#01A88D"/>
</g>
<rect x="0.5" y="0.5" width="39" height="39" stroke="#01A88D"/>
<defs>
<clipPath id="clip0_23298_3953">
<rect width="40" height="40" fill="white"/>
</clipPath>
</defs>
</svg>
