<svg width="24px" height="24px" viewBox="0 0 24 24" fill="none" xmlns="http://www.w3.org/2000/svg">
<path d="M11.0395 1C16.5841 1 21.0789 5.49611 21.0789 11.0424L21.07 11.451L23 12.3636V15.9091C23 19.1886 20.8667 22.2555 18 23C16.5946 22.635 15.3655 21.7118 14.4776 20.4791C13.4062 20.8712 12.2477 21.0847 11.0395 21.0847C5.49483 21.0847 1 16.5886 1 11.0424C1 5.49611 5.49483 1 11.0395 1ZM13.0784 17.0005L8.72576 17.0022C8.81848 17.2706 8.91768 17.5273 9.02299 17.7709C9.36804 18.5691 9.76291 19.1863 10.1668 19.5815C10.4966 19.9042 10.7928 20.0462 11.0564 20.0494L11.082 20.048L11.1666 20.0427C11.4065 20.0111 11.672 19.867 11.9639 19.5815C12.3678 19.1863 12.7627 18.5691 13.1077 17.7709L13.1847 17.5828C13.1421 17.3907 13.1065 17.1965 13.0784 17.0005ZM7.56115 17.0003L4.2726 17.001C5.47933 18.3683 7.09459 19.3662 8.9273 19.8037C8.39038 19.1038 7.92472 18.145 7.56115 17.0003ZM19 13H17V14.999L15.0126 14.9996C15.0087 15.0207 15.0048 15.0418 15.0009 15.0629L15 17L17 16.999V19H19V16.999L21 17V15L19 14.999V13ZM6.73825 12.0002L2.07105 12.0008C2.2262 13.468 2.73352 14.8301 3.50686 16.001L7.28149 16.001C6.98754 14.8002 6.79706 13.4447 6.73825 12.0002ZM13.768 12L7.85133 12.001C7.91275 13.4415 8.11151 14.8049 8.42406 16.0011L13.001 16L13 15.9091V12.3636L13.768 12ZM7.08323 6.99982L2.97621 7.00009C2.37077 8.20396 2.02733 9.56233 2.02076 11.0003L6.718 11L6.72098 10.7236C6.73872 9.40208 6.8663 8.14494 7.08323 6.99982ZM13.9171 6.99956H8.21357C7.96817 8.22557 7.83364 9.58598 7.83102 11.0002L14.299 11L14.2952 10.5885C14.2698 9.32222 14.1386 8.10614 13.9171 6.99956ZM19.0741 7.00009L14.9967 6.99982C15.2287 8.2246 15.3585 9.57752 15.361 11.0002L15.884 11L18 10L20.027 10.958L20.0258 10.7768C19.9865 9.42157 19.648 8.1414 19.0741 7.00009ZM8.9269 2.28057L8.71322 2.33494C6.5843 2.89904 4.7647 4.2236 3.56259 6.00035L7.30215 6.0003C7.69057 4.44841 8.25281 3.1605 8.9269 2.28057ZM11.0583 2.03535C10.7995 2.03529 10.5003 2.17689 10.1668 2.50324C9.76291 2.89845 9.36804 3.51559 9.02299 4.3138C8.80289 4.82299 8.60952 5.38924 8.44608 6.00027H13.6846C13.5212 5.38924 13.3278 4.82299 13.1077 4.3138C12.7627 3.51559 12.3678 2.89845 11.9639 2.50324C11.6349 2.18134 11.3394 2.03918 11.0762 2.03537C11.0704 2.0354 11.0643 2.03538 11.0583 2.03535ZM13.1599 2.28992L13.1839 2.32121C13.8443 3.19994 14.3953 4.47213 14.7778 6.0003L18.4877 6.00035C17.2524 4.17449 15.3649 2.82617 13.1599 2.28992Z" fill="white"/>
</svg>
