<svg xmlns="http://www.w3.org/2000/svg" role="img" viewBox="48.91 -1.09 472.18 576.68"><defs><style>.cls-1{fill:#fff}</style></defs><path d="M449.607 244.698l60.89-10.613c-9.937-10.087-51.278-40.627-60.7-31.24q-59.154 58.926-118.376 117.786L146.075 505.977l-.455-.454c-10.614 10.65-21.158 21.372-31.393 32.377-5.393 5.8-7.383 13.173-1.165 19.87 6.505 7.012 14.345 6.587 21.528 1.266 5.377-3.981 10.063-8.948 14.823-13.705q6.26-6.26 12.524-12.516 17.373-17.363 34.749-34.724 126.627-126.529 252.92-253.393z" class="cls-1"/><path d="M478.784 292.437a12.923 12.923 0 0 0-9.082-12.55c-9.7-3.506-16.357 2.168-22.598 8.406q-113.85 113.803-227.67 227.636-8.385 8.389-16.775 16.773c-4.023 4.025-8.117 8.482-9.416 13.292-1.03 3.81-.307 7.84 3.6 12.054 9.758 10.524 18.9 2.988 26.639-4.743q123.572-123.452 247.066-246.983c3.915-3.915 7.825-7.863 8.236-13.885zm-162.924-9.911l17.143-17.141c-1.391-4.326-4.908-8.414-8.61-12.12Q206.822 135.632 89.168 18.086c-4.387-4.384-9.075-8.341-15.87-8.073-5.329.275-9.597 2.552-11.62 7.553-3.576 8.833.995 15.297 6.89 21.195q117.585 117.616 235.184 235.215c3.707 3.706 7.796 7.18 12.108 8.55zm79.863 182.647c25.204-24.25 49.677-49.26 74.27-74.14 7.256-7.344 13.7-16.124 3.917-25.36-8.782-8.295-17.169-2.51-24.072 4.353-31.334 31.157-62.48 62.504-93.818 93.655-10.961 10.893-10.455 21.057.4 31.721 18.385 18.067 36.744 36.173 54.585 54.77 10.004 10.43 20.93 16.951 35.042 14.195 3.259.21 5.738.692 8.15.467 10.303-.958 23.307-.282 23.634-14.479.336-14.645-12.331-14.709-22.943-14.313-10.777.403-18.683-4.031-25.845-11.564-10.991-11.562-21.99-23.19-33.87-33.809-10.513-9.398-9.018-16.292.55-25.496zM260.655 315.065c3.818 3.802 8.394 7.687 13.347 9.321l17.063-17.063c-2.163-6.188-7.316-10.32-11.784-14.798q-72.062-72.226-144.256-144.32c-9.965-9.96-19.872-19.993-30.149-29.63-6.04-5.667-13.213-7.124-19.652-.742-6.13 6.073-5.69 13.22-.859 20.024a66.149 66.149 0 0 0 7.223 8.303q84.46 84.526 169.067 168.905zm-64.009 20.518c9.1 9.076 18.153 18.214 27.585 26.936a17.674 17.674 0 0 0 7.408 4.231l17.85-17.85c-1.172-4.6-4.226-8.241-7.63-11.65q-54.495-54.594-109.11-109.065a33.328 33.328 0 0 0-10.425-7.264c-5.971-2.447-12.126-2.053-16.872 3.174-4.793 5.279-4.73 11.353-1.011 16.908a96.08 96.08 0 0 0 11.722 14.028q40.113 40.404 80.483 80.552z" class="cls-1"/></svg>