<svg width="40" height="40" viewBox="0 0 40 40" fill="none" xmlns="http://www.w3.org/2000/svg">
<g clip-path="url(#clip0_23296_3692)">
<path d="M40 0H0V40H40V0Z" fill="#8C4FFF" fill-opacity="0.12"/>
<path fill-rule="evenodd" clip-rule="evenodd" d="M30.502 26.248C30.916 26.248 31.252 25.912 31.252 25.498C31.252 25.084 30.916 24.748 30.502 24.748C30.088 24.748 29.752 25.084 29.752 25.498C29.752 25.912 30.088 26.248 30.502 26.248ZM33 31.841V27.941C32.364 28.592 31.48 29 30.5 29C29.992 29 29.511 28.885 29.075 28.689C29.083 28.707 29.089 28.723 29.097 28.741C29.72 30.23 30.879 33 31.861 33C32.227 33 32.496 32.907 32.683 32.716C33.007 32.385 33 31.846 33 31.841ZM22.904 28.741C22.911 28.723 22.918 28.707 22.926 28.689C22.489 28.885 22.009 29 21.5 29C20.521 29 19.636 28.592 19 27.941V31.827C19 31.846 18.993 32.385 19.318 32.716C19.504 32.907 19.774 33 20.14 33C21.121 33 22.281 30.23 22.904 28.741ZM19 25.5C19 26.878 20.121 28 21.5 28C22.879 28 24 26.878 24 25.5C24 24.121 22.879 23 21.5 23C20.121 23 19 24.121 19 25.5ZM27 25.5C27 24.961 27.133 24.456 27.351 24H24.649C24.868 24.456 25 24.961 25 25.5C25 26.039 24.868 26.543 24.649 27H27.351C27.133 26.543 27 26.039 27 25.5ZM28 25.5C28 26.878 29.121 28 30.5 28C31.879 28 33 26.878 33 25.5C33 24.121 31.879 23 30.5 23C29.121 23 28 24.121 28 25.5ZM33.407 33.406C33.026 33.8 32.506 34 31.861 34C30.213 34 29.082 31.298 28.174 29.128C27.996 28.702 27.834 28.314 27.688 28H24.313C24.166 28.314 24.004 28.702 23.826 29.128C22.918 31.298 21.787 34 20.14 34C19.494 34 18.975 33.8 18.594 33.406C17.986 32.777 17.997 31.907 18 31.81V25.5C18 23.57 19.571 22 21.5 22C22.45 22 23.311 22.383 23.942 23H28.059C28.69 22.383 29.55 22 30.5 22C32.43 22 34 23.57 34 25.5V31.827C34.003 31.907 34.015 32.777 33.407 33.406ZM21 27H22V26H23V25H22V24H21V25H20V26H21V27ZM27.424 21.071C27.475 20.717 27.5 20.357 27.5 20C27.5 15.864 24.136 12.5 20 12.5C15.865 12.5 12.5 15.864 12.5 20C12.5 22.748 14.001 25.274 16.417 26.59L16.896 25.712C14.801 24.571 13.5 22.382 13.5 20C13.5 16.416 16.416 13.5 20 13.5C23.584 13.5 26.5 16.416 26.5 20C26.5 20.31 26.478 20.622 26.434 20.929L27.424 21.071ZM15.642 30.353C16.134 30.719 16.6 31.064 17.128 31.204L16.872 32.171C16.158 31.982 15.593 31.562 15.046 31.157C14.886 31.038 14.726 30.92 14.564 30.808L13.195 32.177C12.994 32.378 12.727 32.488 12.443 32.488C12.159 32.488 11.892 32.378 11.692 32.177L8.51 28.996C8.309 28.795 8.199 28.528 8.199 28.244C8.199 27.96 8.31 27.693 8.51 27.493L9.895 26.109C9.532 25.435 9.239 24.728 9.019 24H7.063C6.477 24 6 23.523 6 22.937V18.062C6 17.476 6.477 17 7.063 17H8.82C9.03 16.207 9.311 15.438 9.66 14.704L8.288 13.139C7.939 12.739 7.939 12.138 8.287 11.738L11.262 8.348C11.664 7.888 12.457 7.888 12.86 8.348L14.073 9.732C14.69 9.358 15.335 9.054 16 8.826V7.062C16 6.476 16.477 6 17.063 6H21.938C22.524 6 23 6.476 23 7.062V9.099C23.791 9.328 24.559 9.636 25.29 10.019L26.825 8.539C27.237 8.141 27.886 8.14 28.298 8.539L31.732 11.852C31.941 12.054 32.056 12.325 32.056 12.616C32.056 12.907 31.941 13.179 31.731 13.381L30.246 14.814C30.635 15.513 30.95 16.245 31.185 17H32.938C33.524 17 34 17.476 34 18.062V22H33V18.062L30.811 18C30.586 18 30.388 17.849 30.328 17.632C30.075 16.709 29.692 15.819 29.189 14.984C29.069 14.784 29.103 14.529 29.27 14.366L31.036 12.661L27.604 9.259L25.721 10.992C25.563 11.146 25.322 11.175 25.129 11.069C24.262 10.582 23.336 10.211 22.376 9.966C22.156 9.909 22 9.71 22 9.481V7.062L17.063 7L17 9.19C17 9.41 16.856 9.605 16.645 9.668C15.812 9.919 15.008 10.3 14.255 10.8C14.045 10.936 13.767 10.901 13.603 10.713L12.108 9.008L9.04 12.397L10.633 14.296C10.768 14.45 10.795 14.671 10.702 14.853C10.259 15.722 9.921 16.65 9.699 17.613C9.646 17.839 9.444 18 9.211 18H7.063L7 22.937L9.397 23C9.623 23 9.823 23.153 9.88 23.372C10.117 24.269 10.477 25.134 10.948 25.943C11.062 26.139 11.03 26.387 10.869 26.548L9.217 28.2L12.399 31.47L14.14 29.818C14.301 29.657 14.548 29.624 14.745 29.739C15.054 29.919 15.347 30.135 15.642 30.353Z" fill="#8C4FFF"/>
</g>
<rect x="0.5" y="0.5" width="39" height="39" stroke="#8C4FFF"/>
<defs>
<clipPath id="clip0_23296_3692">
<rect width="40" height="40" fill="white"/>
</clipPath>
</defs>
</svg>
