<svg width="40" height="40" viewBox="0 0 40 40" xmlns="http://www.w3.org/2000/svg">  <g id="Icon-Architecture/32/Arch_AWS-Thinkbox-Stoke_32" stroke="none" stroke-width="1" fill="none" fill-rule="evenodd">  <g id="Icon-Service/32/AWS-ThinkBox-Stoke_32" transform="translate(7.000000, 6.000000)" fill="#FFFFFF"> <path d="M25,12.12725 C24.459,10.35925 23.697,8.54225 22.709,6.65725 L25,7.80225 L25,12.12725 Z M13.359,16.64625 C13.172,16.45125 12.828,16.45125 12.641,16.64625 C12.499,16.79225 9.176,20.26925 9.176,23.90625 C9.176,24.39725 9.266,24.93625 9.427,25.46225 C8.521,24.45925 8,23.07325 8,21.49325 C8,16.44325 11.779,11.30625 13,9.77825 C14.221,11.30625 18,16.44325 18,21.49325 C18,23.07325 17.479,24.45925 16.573,25.46225 C16.734,24.93625 16.824,24.39725 16.824,23.90625 C16.824,20.26925 13.501,16.79225 13.359,16.64625 L13.359,16.64625 Z M13,1.23225 C14.602,3.01825 21,10.62525 21,18.17125 C21,20.41725 20.081,22.52325 18.559,24.04725 C18.841,23.26525 19,22.40725 19,21.49325 C19,15.11925 13.604,8.92325 13.375,8.66325 C13.186,8.44725 12.814,8.44725 12.625,8.66325 C12.396,8.92325 7,15.11925 7,21.49325 C7,22.40825 7.159,23.26525 7.441,24.04725 C5.919,22.52325 5,20.41725 5,18.17125 C5,10.62525 11.398,3.01825 13,1.23225 L13,1.23225 Z M1,7.80225 L3.291,6.65725 C2.303,8.54225 1.541,10.35925 1,12.12725 L1,7.80225 Z M14.716,27.94325 C14.724,27.94025 14.73,27.93425 14.738,27.93025 L14.739,27.93225 L25.739,21.93225 C25.9,21.84525 26,21.67625 26,21.49325 L26,7.49325 C26,7.30425 25.893,7.13125 25.724,7.04625 L21.724,5.04625 C21.526,4.94725 21.288,4.98925 21.137,5.15025 C20.985,5.31025 20.957,5.55125 21.066,5.74225 C23.713,10.35725 25,14.52825 25,18.49325 L25,21.19625 L20.005,23.92125 C21.262,22.31425 22,20.29725 22,18.17125 C22,9.18125 13.712,0.51025 13.359,0.14625 C13.172,-0.04875 12.828,-0.04875 12.641,0.14625 C12.288,0.51025 4,9.18125 4,18.17125 C4,20.29825 4.738,22.31425 5.996,23.92125 L1,21.19625 L1,18.49325 C1,14.52825 2.287,10.35725 4.934,5.74225 C5.043,5.55125 5.015,5.31025 4.863,5.15025 C4.712,4.98925 4.474,4.94725 4.276,5.04625 L0.276,7.04625 C0.107,7.13125 0,7.30425 0,7.49325 L0,21.49325 C0,21.67625 0.1,21.84525 0.261,21.93225 L11.261,27.93225 L11.262,27.93025 C11.27,27.93425 11.276,27.94025 11.284,27.94425 L11.739,27.05425 L11.705,27.03625 C10.761,26.57325 10.176,25.05525 10.176,23.90625 C10.176,21.33925 12.167,18.72625 13,17.74525 C13.833,18.72625 15.824,21.33925 15.824,23.90625 C15.824,25.05725 15.237,26.57825 14.29,27.03825 L14.261,27.05425 L14.716,27.94325 Z" id="AWS-ThinkBox-Stoke_32_Squid"></path> </g> </g></svg>