<svg xmlns="http://www.w3.org/2000/svg" width="18" height="18" viewBox="0 0 18 18"><defs><linearGradient id="a" x1="9" y1="16.21" x2="9" y2=".62" gradientUnits="userSpaceOnUse"><stop offset="0" stop-color="#1b93eb"/><stop offset=".21" stop-color="#2095eb"/><stop offset=".44" stop-color="#2e9ced"/><stop offset=".69" stop-color="#45a7ef"/><stop offset=".95" stop-color="#64b6f1"/><stop offset="1" stop-color="#6bb9f2"/></linearGradient></defs><path d="M16 8.44c0 4.57-5.53 8.25-6.73 9a.43.43 0 01-.46 0C7.57 16.69 2 13 2 8.44v-5.5a.44.44 0 01.43-.44C6.77 2.39 5.78.5 9 .5s2.23 1.89 6.53 2a.44.44 0 01.43.44z" fill="#1b93eb"/><path d="M15.38 8.48c0 4.2-5.07 7.57-6.17 8.25a.4.4 0 01-.42 0c-1.1-.68-6.17-4.05-6.17-8.25v-5A.41.41 0 013 3c3.94-.11 3-1.83 6-1.83S11.05 2.93 15 3a.41.41 0 01.39.4z" fill="url(#a)"/><path d="M10.94 12.72c-1.07-.14-1-.83-1-1.94h-2c0 1.11 0 1.8-1 1.94a.56.56 0 00-.51.49h5.1a.56.56 0 00-.59-.49z" fill="#1f56a3"/><rect x="4.3" y="4.31" width="9.18" height="6.5" rx=".31" fill="#1490df"/><rect x="4.83" y="4.82" width="8.11" height="5.39" rx=".16" fill="#fff"/><path fill="#0078d4" d="M10.53 6.57l.01 1.89-1.66.96.01-1.9 1.64-.95z"/><path fill="#83b9f9" d="M10.53 6.56l-1.64.96-1.65-.96 1.64-.95 1.65.95z"/><path fill="#5ea0ef" d="M8.89 7.52l-.01 1.9-1.65-.96v-1.9l1.66.96z"/><path fill="#5ea0ef" opacity=".2" d="M8.89 7.51l-.01.01v1.9l1.65-.96-1.64-.95z"/><path fill="#83b9f9" opacity=".2" d="M8.87 7.54h.01v1.9l-1.65-.95 1.64-.95z"/></svg>