<svg width="40" height="40" viewBox="0 0 40 40" fill="none" xmlns="http://www.w3.org/2000/svg">
<g clip-path="url(#clip0_23296_3401)">
<path d="M40 0H0V40H40V0Z" fill="#ED7100" fill-opacity="0.12"/>
<path fill-rule="evenodd" clip-rule="evenodd" d="M29.8113 13.8761C29.5873 13.5151 29.3413 13.1751 29.0753 12.8571L32.3523 11.4971C32.5523 11.8121 32.8483 12.2851 33.0813 12.6861L29.8113 13.8761ZM27.2773 20.1371C27.2603 18.8841 26.9723 17.6491 26.4293 16.5051L29.6683 15.3261C30.1733 16.4701 30.4983 17.6741 30.6363 18.9161L27.2773 20.1371ZM32.7923 19.1951C32.8393 21.0591 32.4543 22.9161 31.6653 24.6051C28.8323 30.6821 21.5843 33.3171 15.5083 30.4871C13.8163 29.6971 12.3263 28.5221 11.1663 27.0661L14.6493 25.7971C15.3293 26.4441 16.1043 26.9741 16.9603 27.3731C19.0683 28.3561 21.4353 28.4591 23.6283 27.6611C25.8203 26.8631 27.5683 25.2621 28.5513 23.1541C28.9513 22.2981 29.1973 21.3951 29.3013 20.4651L32.7923 19.1951ZM6.8993 23.6141L10.1383 22.4351C10.4573 23.6571 11.0303 24.7891 11.8253 25.7621L10.1903 26.3571L10.1893 26.3581L8.4653 26.9851C7.7743 25.9471 7.2493 24.8161 6.8993 23.6141ZM13.7163 18.5721C13.7213 18.9471 13.7503 19.3241 13.8053 19.7001L10.5243 20.8951C10.4473 20.5251 10.3883 20.1581 10.3473 19.7981L13.7163 18.5721ZM25.2893 16.4731C26.0343 17.8111 26.3693 19.3151 26.2553 20.8221C26.2433 20.9911 26.3173 21.1551 26.4533 21.2571C26.5403 21.3241 26.6473 21.3591 26.7543 21.3591C26.8123 21.3591 26.8703 21.3491 26.9253 21.3291L28.2403 20.8511C28.1243 21.4981 27.9273 22.1271 27.6453 22.7301C26.7753 24.5981 25.2273 26.0151 23.2873 26.7211C21.3473 27.4271 19.2513 27.3371 17.3823 26.4661C16.5383 26.0721 15.7823 25.5361 15.1343 24.8711C14.9983 24.7291 14.7883 24.6811 14.6053 24.7501L12.8443 25.3911C11.9283 24.3691 11.2973 23.1331 11.0203 21.7781L14.5383 20.4981C14.7683 20.4141 14.9043 20.1741 14.8583 19.9331C14.7263 19.2511 14.6853 18.5621 14.7373 17.8881C14.7493 17.7191 14.6753 17.5541 14.5403 17.4521C14.4053 17.3491 14.2263 17.3231 14.0673 17.3801L12.9993 17.7691C13.1143 17.1171 13.3083 16.4881 13.5853 15.8931C15.3843 12.0341 19.9863 10.3571 23.8493 12.1571C24.6793 12.5441 25.4343 13.0821 26.0923 13.7561C26.2363 13.9021 26.4543 13.9461 26.6413 13.8681L28.1003 13.2621C28.4403 13.6341 28.7403 14.0551 29.0093 14.5021L25.5543 15.7601C25.4163 15.8101 25.3083 15.9181 25.2563 16.0551C25.2063 16.1921 25.2173 16.3451 25.2893 16.4731ZM8.4353 19.4301C8.3903 17.5671 8.7773 15.7091 9.5663 14.0181C12.3993 7.94211 19.6493 5.30411 25.7223 8.13711C27.3543 8.89911 28.7893 10.0371 29.9303 11.4191L26.5643 12.8171C25.8803 12.1681 25.1113 11.6421 24.2713 11.2511C19.9153 9.21811 14.7103 11.1101 12.6793 15.4701C12.2863 16.3141 12.0423 17.2181 11.9363 18.1561L8.4353 19.4301ZM34.2473 12.7401C33.9273 12.0811 33.0043 10.6621 32.9653 10.6021C32.8333 10.4001 32.5743 10.3201 32.3553 10.4131L30.9003 11.0171C29.6363 9.41111 28.0033 8.09911 26.1453 7.23111C19.5723 4.16711 11.7253 7.02011 8.6603 13.5951C7.7053 15.6431 7.2933 17.9171 7.4723 20.1701C7.4843 20.3261 7.5693 20.4671 7.7003 20.5511C7.8323 20.6361 7.9953 20.6551 8.1413 20.6011L9.3823 20.1491C9.4443 20.6081 9.5393 21.0781 9.6523 21.5481L6.1253 22.8321C5.8843 22.9191 5.7493 23.1751 5.8123 23.4231C6.2173 25.0331 6.9093 26.5311 7.8663 27.8761C7.9613 28.0111 8.1153 28.0871 8.2733 28.0871C8.3313 28.0871 8.3883 28.0771 8.4443 28.0571L10.1993 27.4181C11.4813 29.1141 13.1543 30.4921 15.0863 31.3931C16.8793 32.2291 18.7663 32.6251 20.6253 32.6251C25.5833 32.6251 30.3413 29.8101 32.5713 25.0291C33.5273 22.9831 33.9363 20.7101 33.7543 18.4551C33.7433 18.2991 33.6583 18.1581 33.5273 18.0741C33.3953 17.9891 33.2333 17.9711 33.0853 18.0251L31.7503 18.5111L31.6013 18.5651C31.4273 17.2251 31.0443 15.9291 30.4743 14.6981L33.9673 13.4271C34.1003 13.3791 34.2073 13.2761 34.2593 13.1461C34.3133 13.0151 34.3083 12.8671 34.2473 12.7401Z" fill="#ED7100"/>
</g>
<rect x="0.5" y="0.5" width="39" height="39" stroke="#ED7100"/>
<defs>
<clipPath id="clip0_23296_3401">
<rect width="40" height="40" fill="white"/>
</clipPath>
</defs>
</svg>
