<svg width="40" height="40" viewBox="0 0 40 40" fill="none" xmlns="http://www.w3.org/2000/svg">
<g clip-path="url(#clip0_23310_9387)">
<path d="M40 0H0V40H40V0Z" fill="#8C4FFF" fill-opacity="0.12"/>
<path fill-rule="evenodd" clip-rule="evenodd" d="M24.0244 20.3144C24.3666 20.6307 24.5382 21.0549 24.5382 21.5858C24.5382 22.1657 24.3297 22.6277 23.9137 22.9741C23.4977 23.3194 22.937 23.492 22.2347 23.492C21.679 23.492 21.1303 23.3733 20.5866 23.1377V22.4281C21.2301 22.6417 21.7798 22.7475 22.2347 22.7475C22.6826 22.7475 23.0288 22.6467 23.2712 22.4461C23.5126 22.2455 23.6343 21.9581 23.6343 21.5858C23.6343 20.8713 23.1824 20.514 22.2786 20.514C21.9952 20.514 21.7149 20.5289 21.4366 20.5579V19.9731L23.2971 17.9431H20.6754V17.2166H24.2818V17.9172L22.4561 19.8493C22.4861 19.8433 22.515 19.8403 22.5449 19.8403H22.6327C23.2173 19.8403 23.6812 19.999 24.0244 20.3144ZM18.8767 20.1597C19.2358 20.496 19.4174 20.9601 19.4174 21.5509C19.4174 22.1297 19.2069 22.5988 18.7879 22.9551C18.3679 23.3134 17.8152 23.492 17.1308 23.492C16.5283 23.492 15.9646 23.3733 15.4389 23.1377V22.4281C16.0943 22.6417 16.655 22.7475 17.1219 22.7475C17.5698 22.7475 17.915 22.6457 18.1544 22.4421C18.3928 22.2375 18.5135 21.9441 18.5135 21.5599C18.5135 21.1407 18.4008 20.8353 18.1763 20.6467C17.9519 20.4581 17.5858 20.3633 17.077 20.3633C16.7108 20.3633 16.2539 20.3932 15.7042 20.4521V19.8663L15.8728 17.2166H19.1061V17.9431H16.6171L16.5013 19.7425C16.8266 19.6836 17.1189 19.6537 17.3792 19.6537C18.0167 19.6537 18.5165 19.8224 18.8767 20.1597ZM25.5298 26.6218C23.2882 27.0249 21.3228 27.9351 20 28.6806C18.6772 27.9351 16.7118 27.0249 14.4692 26.6218C13.8427 26.509 10.7151 25.8573 10.7151 24.0629C10.7151 23.2265 11.0164 22.6707 11.592 21.6776C12.2884 20.478 13.1543 18.985 13.1543 16.8303C13.1543 15.3024 12.7553 13.8343 11.9672 12.4621L12.2166 12.1557C14.8273 13.4491 17.7504 13.2745 20 11.8523C22.2506 13.2735 25.1727 13.4491 27.7834 12.1557L28.0328 12.4621C27.2447 13.8343 26.8447 15.3024 26.8447 16.8303C26.8447 18.985 27.7106 20.478 28.4079 21.6776C28.9836 22.6707 29.2839 23.2265 29.2839 24.0629C29.2839 25.8573 26.1573 26.509 25.5298 26.6218ZM27.8423 16.8303C27.8423 15.3762 28.2523 13.981 29.0624 12.6836C29.1751 12.502 29.1602 12.2685 29.0265 12.1038L28.3002 11.2106C28.1476 11.022 27.8812 10.9691 27.6707 11.0878C26.5364 11.7146 25.3512 12.0329 24.1521 12.0329C22.7036 12.0329 21.4376 11.6437 20.2843 10.8433C20.1127 10.7255 19.8873 10.7255 19.7157 10.8433C18.5614 11.6437 17.2964 12.0329 15.8479 12.0329C14.6488 12.0329 13.4636 11.7146 12.3283 11.0878C12.1168 10.9691 11.8514 11.022 11.6998 11.2106L10.9735 12.1038C10.8388 12.2685 10.8249 12.502 10.9376 12.6836C11.7467 13.981 12.1567 15.3762 12.1567 16.8303C12.1567 18.7166 11.3656 20.0808 10.7291 21.1766C10.1026 22.2575 9.71752 22.975 9.71752 24.0629C9.71752 26.5868 13.2202 27.4112 14.2926 27.6038C16.5393 28.007 18.4996 28.9591 19.7486 29.6866C19.8264 29.7325 19.9132 29.7545 20 29.7545C20.0868 29.7545 20.1736 29.7325 20.2514 29.6866C21.5004 28.9591 23.4607 28.007 25.7064 27.6038C26.7798 27.4112 30.2815 26.5868 30.2815 24.0629C30.2815 22.975 29.8974 22.2575 29.2709 21.1766C28.6344 20.0808 27.8423 18.7166 27.8423 16.8303ZM26.0097 29.2974C23.1884 29.8044 20.82 31.3134 20 31.8852C19.18 31.3134 16.8116 29.8044 13.9893 29.2974C12.5837 29.0449 7.99762 27.9212 7.99762 24.0629C7.99762 22.4571 8.62912 21.3673 9.24165 20.3134C9.82925 19.3004 10.4368 18.2535 10.4368 16.8303C10.4368 14.6128 9.17182 13.0389 8.52437 12.3782C9.19975 11.5569 10.8378 9.55988 11.6709 8.48802C12.9339 9.66866 14.3994 10.3124 15.8479 10.3124C17.4571 10.3124 18.7899 9.66267 20 8.27645C21.2101 9.66267 22.5429 10.3124 24.1521 10.3124C25.6006 10.3124 27.0661 9.66866 28.3281 8.48802C29.1612 9.55988 30.8002 11.5569 31.4756 12.3782C30.8272 13.0389 29.5632 14.6128 29.5632 16.8303C29.5632 18.2535 30.1707 19.3004 30.7583 20.3134C31.3699 21.3673 32.0024 22.4571 32.0024 24.0629C32.0024 27.9212 27.4153 29.0449 26.0097 29.2974ZM31.6213 19.8124C31.0516 18.8313 30.5608 17.984 30.5608 16.8303C30.5608 14.4002 32.4533 12.8263 32.4733 12.8104C32.575 12.7255 32.6419 12.6038 32.6538 12.4721C32.6668 12.3403 32.6279 12.2076 32.5431 12.1048C32.5122 12.0679 29.4774 8.38922 28.7841 7.43713C28.6963 7.31737 28.5596 7.24152 28.4099 7.23353C28.2673 7.22555 28.1176 7.28244 28.0159 7.39022C26.8557 8.63074 25.4839 9.31437 24.1521 9.31437C22.6806 9.31437 21.5224 8.65768 20.3961 7.18563C20.2075 6.93812 19.7925 6.93812 19.6029 7.18563C18.4766 8.65768 17.3184 9.31437 15.8479 9.31437C14.5161 9.31437 13.1443 8.63074 11.9841 7.39022C11.8824 7.28244 11.7337 7.22655 11.5891 7.23353C11.4404 7.24152 11.3037 7.31737 11.2159 7.43713C10.5226 8.38922 7.48784 12.0679 7.45691 12.1048C7.37211 12.2076 7.33221 12.3403 7.34518 12.4731C7.35815 12.6058 7.42399 12.7265 7.52774 12.8104C7.5467 12.8263 9.43918 14.3852 9.43918 16.8303C9.43918 17.984 8.94835 18.8313 8.37772 19.8124C7.73225 20.9261 7 22.1876 7 24.0629C7 27.1886 9.54593 29.513 13.8128 30.2794C17.0021 30.8533 19.6698 32.8762 19.6957 32.8962C19.7855 32.9651 19.8923 33 20 33C20.1067 33 20.2145 32.9651 20.3043 32.8962C20.3302 32.8762 22.9979 30.8533 26.1872 30.2794C30.4531 29.513 33 27.1886 33 24.0629C33 22.1876 32.2677 20.9261 31.6213 19.8124Z" fill="#8C4FFF"/>
</g>
<rect x="0.5" y="0.5" width="39" height="39" stroke="#8C4FFF"/>
<defs>
<clipPath id="clip0_23310_9387">
<rect width="40" height="40" fill="white"/>
</clipPath>
</defs>
</svg>
