<svg width="40" height="40" viewBox="0 0 40 40" fill="none" xmlns="http://www.w3.org/2000/svg">
<g clip-path="url(#clip0_23311_9666)">
<path d="M40 0H0V40H40V0Z" fill="#7AA116" fill-opacity="0.12"/>
<path fill-rule="evenodd" clip-rule="evenodd" d="M32.345 20.255L31.983 19.913L29.11 22.547C29.019 22.523 28.931 22.491 28.832 22.491C28.22 22.491 27.722 22.989 27.722 23.601C27.722 24.213 28.22 24.712 28.832 24.712C29.445 24.712 29.944 24.213 29.944 23.601C29.944 23.484 29.91 23.377 29.876 23.27L32.345 20.255ZM30.193 20.638L30.597 19.723C30.032 19.474 29.438 19.347 28.832 19.347C26.273 19.347 24.028 21.735 24.028 24.457H25.028C25.028 22.268 26.806 20.347 28.832 20.347C29.298 20.347 29.756 20.445 30.193 20.638ZM32.575 21.323L31.775 21.922C32.331 22.667 32.638 23.568 32.638 24.457H33.638C33.638 23.353 33.261 22.24 32.575 21.323ZM19.073 24.518H20.147L21.938 21.901L21.454 21.219L19.073 24.518ZM25.54 16.94H24.481L22.455 19.832L21.913 20.583L23.454 22.792C23.533 22.419 23.66 22.061 23.824 21.72L22.977 20.513L25.54 16.94ZM22.005 19.191L20.429 16.94H19.311L21.442 19.942L22.005 19.191ZM16.789 19.774L15.362 19.227C14.891 19.049 14.529 18.882 14.275 18.727C14.022 18.571 13.839 18.398 13.729 18.207C13.617 18.016 13.562 17.765 13.562 17.453C13.562 16.902 13.743 16.478 14.109 16.18C14.473 15.882 14.997 15.733 15.682 15.733C16.384 15.733 17.189 15.893 18.096 16.213V15.533C17.713 15.364 17.307 15.233 16.875 15.14C16.444 15.047 16.033 15 15.642 15C14.78 15 14.084 15.229 13.555 15.686C13.026 16.144 12.761 16.742 12.761 17.48C12.761 18.023 12.921 18.478 13.241 18.847C13.562 19.216 14.064 19.534 14.748 19.8L16.295 20.401C16.828 20.605 17.215 20.837 17.455 21.094C17.696 21.352 17.816 21.663 17.816 22.027C17.816 22.624 17.596 23.094 17.156 23.441C16.715 23.788 16.126 23.962 15.389 23.962C14.606 23.962 13.748 23.793 12.815 23.455V24.135C13.588 24.508 14.468 24.695 15.455 24.695C16.407 24.695 17.173 24.45 17.756 23.962C18.338 23.472 18.629 22.833 18.629 22.041C18.629 21.499 18.483 21.047 18.189 20.687C17.896 20.327 17.429 20.023 16.789 19.774ZM7 15.226H12.188V15.933H7.786V19.467H11.508V20.174H7.786V24.468H7V15.226Z" fill="#7AA116"/>
</g>
<rect x="0.5" y="0.5" width="39" height="39" stroke="#7AA116"/>
<defs>
<clipPath id="clip0_23311_9666">
<rect width="40" height="40" fill="white"/>
</clipPath>
</defs>
</svg>
