<svg version="1.1" id="Layer_1" xmlns="http://www.w3.org/2000/svg" xmlns:xlink="http://www.w3.org/1999/xlink" x="0px" y="0px"
         viewBox="0 0 45.3 40.8" style="enable-background:new 0 0 45.3 40.8;" xml:space="preserve">
<style type="text/css">
        .st0{fill-rule:evenodd;clip-rule:evenodd;fill:#003459;}
</style>
<path class="st0" d="M14.9,33.6h8.3l4.3,5.4l-0.7,1.9H16l0.3-1.9l-2.5-4L14.9,33.6z M20.8,9.7h4.5l20,23.9l-1.6,7.3h-8.6l0.5-2
        L17,16.5L20.8,9.7z M28.7,0L38,7.3l-1.2,1.2l1.6,2.2v2.4L33.8,17L26,7.8h-4.5l1.8-3.4L28.7,0z M9.1,23.4l6.5-5.6l8.6,10.4L21.8,32
        h-7.9l-5.5,7.2l-1.3,1.7H0V32l6.6-8.6H9.1z"/>
</svg>