<svg width="40" height="40" viewBox="0 0 40 40" fill="none" xmlns="http://www.w3.org/2000/svg">
<g clip-path="url(#clip0_23310_9446)">
<path d="M40 0H0V40H40V0Z" fill="#8C4FFF" fill-opacity="0.12"/>
<path fill-rule="evenodd" clip-rule="evenodd" d="M15.244 9.81098L10.766 6.40798L11.372 5.61198L15.849 9.01498L15.244 9.81098ZM24.188 9.79898L23.583 9.00298L28.06 5.59998L28.666 6.39598L24.188 9.79898ZM28.06 17.471L23.583 14.067L24.188 13.271L28.666 16.675L28.06 17.471ZM25 11.985H32V10.985H25V11.985ZM15.244 13.284L15.849 14.08L11.372 17.483L10.766 16.687L15.244 13.284ZM8 11.985H15V10.985H8V11.985ZM24 32.791V23.985H16V32.777C11.627 32.498 8.915 31.81 8.502 31.379C8.702 25.264 13.68 20.485 19.868 20.485C25.807 20.485 30.883 25.449 31.223 31.568C30.794 31.999 28.167 32.559 24 32.791ZM23 32.839C22.055 32.877 21.047 32.9 19.971 32.9C18.915 32.9 17.929 32.874 17 32.831V24.985H23V32.839ZM18 12.354C18 11.251 18.897 10.354 20 10.354C21.102 10.354 22 11.251 22 12.354C22 13.457 21.102 14.354 20 14.354C18.897 14.354 18 13.457 18 12.354ZM20.5 19.518V15.303C21.916 15.064 23 13.837 23 12.354C23 10.7 21.654 9.35398 20 9.35398C18.346 9.35398 17 10.7 17 12.354C17 13.837 18.084 15.064 19.5 15.303V19.503C12.911 19.691 7.67 24.857 7.5 31.447C7.5 33.459 16.502 33.9 19.971 33.9C22.017 33.9 32.227 33.791 32.227 31.634L32.226 31.61C31.917 25.144 26.717 19.859 20.5 19.518Z" fill="#8C4FFF"/>
</g>
<rect x="0.5" y="0.5" width="39" height="39" stroke="#8C4FFF"/>
<defs>
<clipPath id="clip0_23310_9446">
<rect width="40" height="40" fill="white"/>
</clipPath>
</defs>
</svg>
