<svg width="24" height="24" viewBox="0 0 24 24" fill="none" xmlns="http://www.w3.org/2000/svg">
<path fill-rule="evenodd" clip-rule="evenodd" d="M4.86997 12.3275C6.43984 11.8843 8.07928 12.7791 8.52944 14.3248C8.97959 15.8705 8.07083 17.4847 6.50096 17.9279C5.97881 18.0754 5.45256 18.0717 4.95898 17.9509L4.79572 17.9063L3.24191 20.6663L2.20994 20.1031L3.76212 17.3375C3.3375 16.9786 3.00786 16.5019 2.8415 15.9307C2.39134 14.385 3.3001 12.7708 4.86997 12.3275ZM13.5385 18.4809V19.9956H10.4615V18.4809H13.5385ZM16.6154 15.4513V16.9661H10.4615V15.4513H16.6154ZM7.39185 14.646C7.12273 13.7219 6.13468 13.1826 5.19617 13.4476C4.25766 13.7126 3.70997 14.6854 3.97908 15.6095C4.2482 16.5336 5.23625 17.0728 6.17476 16.8079C7.11327 16.5429 7.66096 15.57 7.39185 14.646ZM19.6923 12.4217V13.9365H10.4615V12.4217H19.6923ZM22 9.39215V10.9069H2V9.39215H22ZM22 6.36258V7.87736H2V6.36258H22ZM11.2788 3.33301V4.84779H4.30769V3.33301H11.2788ZM19.6923 3.33301V4.84779H12.7212V3.33301H19.6923Z" fill="white"/>
</svg>
