<svg id="Layer_1" xmlns="http://www.w3.org/2000/svg" xmlns:xlink="http://www.w3.org/1999/xlink" version="1.1" viewBox="0 0 150 150">
  <defs>
    <linearGradient id="linear-gradient" x1="175.2" y1="77" x2="175.6" y2="77" gradientTransform="translate(0 152) scale(1 -1)" gradientUnits="userSpaceOnUse">
      <stop offset="0" stop-color="#00b39f"/>
      <stop offset="1" stop-color="#00d3a9"/>
    </linearGradient>
    <linearGradient id="linear-gradient1" x1="69" y1="62" x2="120.1" y2="24.3" gradientTransform="translate(0 152) scale(1 -1)" gradientUnits="userSpaceOnUse">
      <stop offset="0" stop-color="#00b39f" stop-opacity=".7"/>
      <stop offset="1" stop-color="#00d3a9"/>
    </linearGradient>
    <linearGradient id="linear-gradient2" x1="-1670.5" y1="-469.1" x2="-1675.6" y2="-470.8" gradientTransform="translate(2707.3 -658) scale(1.6 -1.6)" gradientUnits="userSpaceOnUse">
      <stop offset="0" stop-color="#000" stop-opacity=".3"/>
      <stop offset="0" stop-color="#000" stop-opacity=".2"/>
      <stop offset=".3" stop-color="#000" stop-opacity=".1"/>
      <stop offset=".6" stop-color="#000" stop-opacity="0"/>
      <stop offset="1" stop-color="#000" stop-opacity="0"/>
    </linearGradient>
    <linearGradient id="linear-gradient3" x1="-1643.5" y1="-432.2" x2="-1619.1" y2="-497.2" gradientTransform="translate(2707.3 -658) scale(1.6 -1.6)" gradientUnits="userSpaceOnUse">
      <stop offset="0" stop-color="#00d3a9"/>
      <stop offset="1" stop-color="#00b39f"/>
    </linearGradient>
  </defs>
  <path d="M56.2,21.8h33.4l-34.6,102.7c-.7,2.1-2.8,3.6-5,3.6h-26.1c-3,0-5.3-2.4-5.3-5.3s0-1.1.2-1.7L51.1,25.4c.7-2.1,2.8-3.6,5-3.6h0Z" fill="url(#linear-gradient)"/>
  <path d="M104.7,90.8h-52.9c-1.3,0-2.5,1.1-2.5,2.5s.2,1.3.8,1.8l34.1,31.8c1,.9,2.3,1.5,3.6,1.5h30l-13.1-37.4h0Z" fill="url(#linear-gradient1)"/>
  <path d="M56.2,21.8c-2.3,0-4.4,1.5-5.1,3.7L18.9,121.1c-1,2.8.4,5.8,3.2,6.8.6.2,1.2.3,1.8.3h26.7c2.1-.3,3.7-1.8,4.4-3.7l6.4-19,23,21.4c1,.8,2.1,1.2,3.4,1.2h29.9l-13.1-37.4h-38.2l23.4-68.9h-33.5Z" fill="url(#linear-gradient2)"/>
  <path d="M98.9,25.4c-.7-2.1-2.8-3.6-5-3.6h-37.2c2.3,0,4.3,1.5,5,3.6l32.3,95.7c.9,2.8-.6,5.8-3.4,6.7-.6.2-1.1.2-1.7.2h37.2c3,0,5.3-2.4,5.3-5.3s0-1.1-.2-1.7L98.9,25.4Z" fill="url(#linear-gradient3)"/>
</svg>