<svg width="40" height="40" viewBox="0 0 40 40" fill="none" xmlns="http://www.w3.org/2000/svg">
<g clip-path="url(#clip0_23296_3740)">
<path d="M40 0H0V40H40V0Z" fill="#7AA116" fill-opacity="0.12"/>
<path fill-rule="evenodd" clip-rule="evenodd" d="M20.9869 31.0324V27.7674C20.9869 26.7874 21.6529 25.9904 22.4709 25.9904H25.7889C25.2379 28.4264 23.3769 30.3654 20.9869 31.0324ZM17.9729 31.1764V27.7674C17.9729 26.2364 16.5989 24.9904 14.9109 24.9904H12.3919C12.3799 24.8244 12.3669 24.6594 12.3669 24.4904C12.3669 24.3214 12.3799 24.1564 12.3919 23.9904H14.5629C15.6629 23.9894 16.6749 23.5224 17.2719 22.7404C17.7529 22.1114 18.4809 21.7504 19.2719 21.7504C20.0629 21.7504 20.7919 22.1114 21.2719 22.7414C21.8699 23.5234 22.8829 23.9904 23.9809 23.9904H25.9359C25.9479 24.1564 25.9619 24.3214 25.9619 24.4904C25.9619 24.6594 25.9479 24.8244 25.9359 24.9904H22.4709C21.1009 24.9904 19.9869 26.2364 19.9869 27.7674V31.2334C19.7169 31.2654 19.4439 31.2874 19.1649 31.2874C18.7579 31.2874 18.3609 31.2454 17.9729 31.1764ZM12.5389 25.9904H14.9109C16.0489 25.9904 16.9729 26.7874 16.9729 27.7674V30.9184C14.7609 30.1624 13.0619 28.2994 12.5389 25.9904ZM19.1649 17.6934C22.3969 17.6934 25.1039 19.9624 25.7889 22.9904H23.9809C23.1919 22.9904 22.4759 22.6704 22.0669 22.1344C21.3959 21.2554 20.3779 20.7504 19.2719 20.7504C18.1679 20.7504 17.1479 21.2544 16.4769 22.1344C16.0679 22.6694 15.3519 22.9894 14.5629 22.9904H12.5389C13.2249 19.9624 15.9329 17.6934 19.1649 17.6934ZM19.1649 16.6934C14.8649 16.6934 11.3669 20.1914 11.3669 24.4904C11.3669 28.7894 14.8649 32.2874 19.1649 32.2874C23.4639 32.2874 26.9619 28.7894 26.9619 24.4904C26.9619 20.1914 23.4639 16.6934 19.1649 16.6934ZM29.2349 23.9904L29.0209 23.9894C28.7579 18.7734 24.4449 14.6084 19.1649 14.6084C14.1399 14.6084 9.98687 18.3804 9.36987 23.2404C8.24588 22.4344 7.45788 21.0414 7.32088 19.5514C7.30388 19.3724 7.29688 19.1864 7.29688 18.9934C7.29688 17.5684 8.31788 15.5664 10.2369 15.5134C10.4889 15.5064 10.6969 15.3124 10.7209 15.0614L10.7729 14.5214C10.7759 14.4864 10.7759 14.4504 10.7709 14.4144C10.7399 14.1464 10.7229 13.8724 10.7229 13.5944C10.7229 11.1314 12.3889 8.48241 14.5149 7.56341C18.1879 5.97641 20.7889 8.06341 21.7379 9.03441C22.5119 9.82641 23.1159 10.8384 23.5319 12.0424C23.5929 12.2184 23.7469 12.3454 23.9309 12.3734C24.1159 12.4004 24.2999 12.3234 24.4099 12.1714C25.0079 11.3444 25.9819 10.9814 26.8899 11.2404C28.0199 11.5654 28.7579 12.7314 28.8619 14.3064C28.8199 14.5754 29.0019 14.8284 29.2699 14.8754C30.4759 15.0874 33.2829 15.9544 33.2829 19.4364C33.2829 23.5844 29.3579 23.9774 29.2349 23.9904ZM19.1649 33.3724C14.2659 33.3724 10.2819 29.3884 10.2819 24.4904C10.2819 19.5924 14.2659 15.6084 19.1649 15.6084C24.0619 15.6084 28.0469 19.5924 28.0469 24.4904C28.0469 29.3884 24.0619 33.3724 19.1649 33.3724ZM29.8349 13.9714C29.6199 12.0724 28.6369 10.7024 27.1669 10.2804C26.1199 9.97941 25.0149 10.2414 24.1809 10.9534C23.7389 9.93741 23.1599 9.05941 22.4529 8.33641C20.1779 6.00641 17.0609 5.37241 14.1189 6.64541C11.6129 7.72841 9.72288 10.7164 9.72288 13.5944C9.72288 13.8934 9.73987 14.1894 9.77187 14.4784L9.76487 14.5524C7.61087 14.8694 6.29688 17.0234 6.29688 18.9934C6.29688 19.2174 6.30588 19.4334 6.32488 19.6424C6.50988 21.6564 7.64487 23.4644 9.28787 24.3734C9.28687 24.4124 9.28187 24.4514 9.28187 24.4904C9.28187 29.9394 13.7159 34.3724 19.1649 34.3724C24.4459 34.3724 28.7599 30.2054 29.0209 24.9884L29.2739 24.9894C29.3249 24.9844 34.2829 24.5144 34.2829 19.4364C34.2829 15.4954 31.2559 14.3104 29.8349 13.9714Z" fill="#7AA116"/>
</g>
<rect x="0.5" y="0.5" width="39" height="39" stroke="#7AA116"/>
<defs>
<clipPath id="clip0_23296_3740">
<rect width="40" height="40" fill="white"/>
</clipPath>
</defs>
</svg>
