<svg width="40" height="40" viewBox="0 0 40 40" xmlns="http://www.w3.org/2000/svg">  <g id="Icon-Architecture/32/Arch_Bottlerocket_32" stroke="none" stroke-width="1" fill="none" fill-rule="evenodd">  <g id="Icon-Service/32/Bottlerocket" transform="translate(12.000000, 6.000000)" fill="#FFFFFF"> <path d="M13,17.8153751 L13,11.8943751 L15,14.1683751 L15,19.7853751 L13,17.8153751 Z M10.5,22.4793751 C11.879,22.4793751 13,21.3583751 13,19.9793751 L13,19.2183751 L15.149,21.3363751 C15.244,21.4293751 15.371,21.4793751 15.5,21.4793751 C15.565,21.4793751 15.631,21.4663751 15.693,21.4403751 C15.879,21.3633751 16,21.1803751 16,20.9793751 L16,13.9793751 C16,13.8583751 15.956,13.7403751 15.875,13.6493751 L13,10.3813751 L13,8.4793751 L12,8.4793751 L12,19.9793751 C12,20.8063751 11.327,21.4793751 10.5,21.4793751 L9.452,21.4793751 C9.176,21.4793751 9,21.7033751 9,21.9793751 L9,24.4793751 L10,24.4793751 L10,22.4793751 L10.5,22.4793751 Z M1,19.7853751 L1,14.1683751 L3,11.8943751 L3,17.8153751 L1,19.7853751 Z M6,22.4793751 L6,24.4793751 L7,24.4793751 L7,21.9793751 C7,21.7033751 6.824,21.4793751 6.548,21.4793751 L5.5,21.4793751 C4.673,21.4793751 4,20.8063751 4,19.9793751 L4,8.4793751 L3,8.4793751 L3,10.3813751 L0.125,13.6493751 C0.044,13.7403751 0,13.8583751 0,13.9793751 L0,20.9793751 C0,21.1803751 0.121,21.3633751 0.307,21.4403751 C0.369,21.4663751 0.435,21.4793751 0.5,21.4793751 C0.629,21.4793751 0.756,21.4293751 0.851,21.3363751 L3,19.2183751 L3,19.9793751 C3,21.3583751 4.121,22.4793751 5.5,22.4793751 L6,22.4793751 Z M7,14.4793751 L9,14.4793751 L9,12.4793751 L7,12.4793751 L7,14.4793751 Z M6.5,11.4793751 C6.224,11.4793751 6,11.7033751 6,11.9793751 L6,14.9793751 C6,15.2553751 6.224,15.4793751 6.5,15.4793751 L9.5,15.4793751 C9.776,15.4793751 10,15.2553751 10,14.9793751 L10,11.9793751 C10,11.7033751 9.776,11.4793751 9.5,11.4793751 L6.5,11.4793751 Z M8.031,1.0003751 L12.583,6.5423751 C11.499,6.2873751 9.918,6.0253751 8,6.0253751 C6.128,6.0253751 4.523,6.2943751 3.42,6.5523751 L8.031,1.0003751 Z M2,7.9793751 C2.059,7.9793751 2.118,7.9683751 2.175,7.9483751 C2.2,7.9383751 4.687,7.0253751 8,7.0253751 C11.447,7.0253751 13.793,7.9353751 13.816,7.9443751 C14.027,8.0283751 14.27,7.9583751 14.404,7.7733751 C14.538,7.5893751 14.531,7.3373751 14.387,7.1623751 L8.811,0.373375095 C8.418,-0.126624905 7.576,-0.119624905 7.195,0.365375095 L1.613,7.1623751 C1.47,7.3363751 1.462,7.5863751 1.594,7.7693751 C1.689,7.9043751 1.843,7.9793751 2,7.9793751 L2,7.9793751 Z M7,27.4793751 L9,27.4793751 L9,26.4793751 L7,26.4793751 L7,27.4793751 Z M5,26.4793751 L6,26.4793751 L6,27.9793751 C6,28.2553751 6.224,28.4793751 6.5,28.4793751 L9.5,28.4793751 C9.776,28.4793751 10,28.2553751 10,27.9793751 L10,26.4793751 L11,26.4793751 L11,25.4793751 L5,25.4793751 L5,26.4793751 Z" id="Bottlerocket_Icon_32_Squid"></path> </g> </g></svg>