 <svg
    xmlns="http://www.w3.org/2000/svg"
    viewBox="0 0 500.846 500.846"
  >
    <path
      style="fill: #ddd"
      d="M427.191,345.442c-0.047,0.008-0.095,0.008-0.095,0.008l-353.445-0.008 c-7.05,0-13.54-3.757-17.054-9.846c-3.513-6.089-3.513-13.603,0-19.692L233.285,9.846C236.806,3.757,243.304,0,250.346,0 c7.042,0,13.54,3.757,17.054,9.846l175.561,304.104c2.465,3.293,3.923,7.373,3.923,11.792 C446.883,336.628,438.069,345.442,427.191,345.442z M107.758,306.058h285.168L250.346,59.077L107.758,306.058z"
    />
    <path
      style="fill: #ddd"
      d="M250.346,500.846c-10.878,0-19.692-8.814-19.692-19.692v-153.6c0-10.878,8.814-19.692,19.692-19.692 s19.692,8.814,19.692,19.692v153.6C270.039,492.024,261.224,500.846,250.346,500.846z"
    />
    <g>
      <path
        style="fill: #ddd"
        d="M317.789,436.185H182.896c-10.878,0-19.692-8.814-19.692-19.692s8.814-19.692,19.692-19.692h134.892 c10.878,0,19.692,8.814,19.692,19.692S328.667,436.185,317.789,436.185z"
      />
    </g>
</svg>