<svg width="40" height="40" viewBox="0 0 40 40" fill="none" xmlns="http://www.w3.org/2000/svg">
<g clip-path="url(#clip0_23299_4166)">
<path d="M40 0H0V40H40V0Z" fill="#E7157B" fill-opacity="0.12"/>
<path fill-rule="evenodd" clip-rule="evenodd" d="M21.986 26.3235C21.978 25.9235 21.814 25.5495 21.525 25.2715C21.235 24.9925 20.86 24.8545 20.486 24.8545C20.092 24.8545 19.699 25.0085 19.405 25.3135C19.128 25.6025 18.978 25.9825 18.986 26.3835C18.994 26.7835 19.158 27.1565 19.447 27.4345C20.042 28.0075 20.994 27.9895 21.567 27.3925C21.844 27.1045 21.994 26.7245 21.986 26.3235ZM22.218 24.5515C22.7 25.0135 22.972 25.6365 22.985 26.3035C22.999 26.9715 22.751 27.6045 22.288 28.0865C21.798 28.5955 21.142 28.8525 20.486 28.8525C19.862 28.8525 19.238 28.6205 18.754 28.1555C18.272 27.6935 18 27.0705 17.987 26.4025C17.973 25.7345 18.221 25.1015 18.684 24.6205C19.64 23.6275 21.224 23.5965 22.218 24.5515ZM27.398 26.7365L25.385 25.8105C25.257 25.7525 25.161 25.6425 25.118 25.5085L24.77 24.4195C24.728 24.2875 24.743 24.1435 24.811 24.0225L25.894 22.0955L23.126 20.0815L21.64 21.6925C21.547 21.7945 21.415 21.8525 21.276 21.8535L20.112 21.8605C19.955 21.8535 19.837 21.8025 19.741 21.6985L18.249 20.0775L15.477 22.0885L16.563 24.0235C16.632 24.1445 16.646 24.2895 16.603 24.4235L16.252 25.5005C16.208 25.6325 16.111 25.7415 15.984 25.7995L13.965 26.7255L15.021 29.9835L17.18 29.5515C17.32 29.5245 17.463 29.5555 17.576 29.6395L18.511 30.3325C18.622 30.4145 18.694 30.5395 18.711 30.6765L18.964 32.8535L22.388 32.8565L22.644 30.6645C22.661 30.5265 22.734 30.4015 22.846 30.3195L23.771 29.6425C23.884 29.5595 24.026 29.5295 24.165 29.5555L26.339 29.9915L27.398 26.7365ZM28.487 26.6225L27.152 30.7245C27.073 30.9645 26.83 31.1115 26.578 31.0595L24.183 30.5795L23.613 30.9975L23.33 33.4155C23.299 33.6675 23.087 33.8575 22.833 33.8575L18.518 33.8535C18.264 33.8535 18.05 33.6625 18.021 33.4105L17.742 31.0075L17.159 30.5745L14.78 31.0515C14.533 31.0995 14.284 30.9565 14.207 30.7155L12.877 26.6105C12.798 26.3685 12.913 26.1075 13.144 26.0015L15.369 24.9815L15.585 24.3215L14.387 22.1895C14.262 21.9685 14.324 21.6895 14.529 21.5405L18.021 19.0075C18.228 18.8585 18.51 18.8875 18.683 19.0735L20.327 20.8585L21.052 20.8545L22.693 19.0765C22.865 18.8885 23.15 18.8625 23.354 19.0115L26.842 21.5495C27.048 21.6985 27.109 21.9775 26.984 22.1985L25.79 24.3235L26.004 24.9945L28.22 26.0135C28.451 26.1195 28.565 26.3815 28.487 26.6225ZM9.358 7.25749C10.468 6.80849 11.721 6.95249 12.707 7.63949L13.279 6.81949C12.012 5.93849 10.408 5.75549 8.983 6.33049C7.556 6.90749 6.529 8.15649 6.234 9.66949L7.216 9.86149C7.446 8.68049 8.247 7.70749 9.358 7.25749ZM11.008 11.8825C13.062 11.0525 15.381 11.3155 17.206 12.5895L17.778 11.7685C15.673 10.3015 13.003 9.99749 10.633 10.9555C8.262 11.9145 6.554 13.9905 6.063 16.5085L7.046 16.6995C7.471 14.5155 8.953 12.7145 11.008 11.8825ZM24.423 7.06049C27.97 7.31349 31.15 9.15649 33.145 12.1175L33.975 11.5595C31.806 8.34149 28.35 6.33749 24.493 6.06349C21.306 5.83249 18.194 6.82349 15.719 8.84149L16.35 9.61649C18.629 7.76149 21.482 6.85149 24.423 7.06049ZM33.966 25.4445C33.966 28.1465 32.412 29.6265 31.484 30.2675C31.008 30.5955 30.147 30.8535 29.523 30.8535H28.986V29.8535H29.523C29.95 29.8535 30.6 29.6625 30.916 29.4445C31.851 28.7975 32.966 27.5785 32.966 25.4445C32.966 22.4545 30.886 21.4735 29.647 21.1555C29.415 21.0955 29.257 20.8805 29.272 20.6415L29.323 19.7905C29.322 17.4385 27.681 14.8755 25.587 13.9855C21.964 12.4475 19.396 14.4705 18.461 15.4115C17.699 16.1775 17.104 17.1565 16.693 18.3225C16.632 18.4965 16.478 18.6235 16.295 18.6505C16.113 18.6735 15.928 18.6015 15.819 18.4525C15.199 17.6105 14.13 17.2595 13.16 17.5765C12.062 17.9375 11.432 19.0135 11.432 20.5305C11.47 20.7975 11.292 21.0315 11.025 21.0775C10.081 21.2405 7 22.0385 7 25.4855C7 29.4905 10.656 29.8425 10.811 29.8545L11.986 29.8535V30.8535H10.771C10.685 30.8475 6 30.4265 6 25.4855C6 21.6795 9.01 20.5145 10.442 20.1765C10.546 18.4065 11.428 17.0935 12.847 16.6275C13.962 16.2615 15.162 16.5115 16.045 17.2455C16.482 16.2595 17.054 15.4075 17.752 14.7065C19.998 12.4465 23.073 11.8335 25.977 13.0655C28.454 14.1175 30.322 17.0215 30.322 19.8205L30.294 20.3035C31.645 20.7475 33.966 22.0115 33.966 25.4445Z" fill="#E7157B"/>
</g>
<rect x="0.5" y="0.5" width="39" height="39" stroke="#E7157B"/>
<defs>
<clipPath id="clip0_23299_4166">
<rect width="40" height="40" fill="white"/>
</clipPath>
</defs>
</svg>
