<svg width="40" height="40" viewBox="0 0 40 40" fill="none" xmlns="http://www.w3.org/2000/svg">
<g clip-path="url(#clip0_23293_2681)">
<path d="M0.5 0.5H39.5V39.5H0.5V0.5Z" fill="#8C4FFF" fill-opacity="0.12" stroke="#8C4FFF"/>
<path fill-rule="evenodd" clip-rule="evenodd" d="M33.265 22.536L32.894 23.465C30.557 22.53 28.441 22.056 26.604 22.056V21.056C28.568 21.056 30.809 21.554 33.265 22.536ZM31.363 21.169C29.773 20.84 28.129 20.5 26.604 20.5V19.5C28.023 19.5 29.557 19.184 31.04 18.879C31.705 18.743 32.356 18.609 32.977 18.507L33.139 19.494C32.53 19.594 31.893 19.725 31.243 19.859C31.025 19.904 30.804 19.947 30.584 19.992C30.912 20.057 31.241 20.123 31.565 20.19C32.114 20.304 32.651 20.415 33.168 20.508L32.991 21.493C32.465 21.397 31.919 21.285 31.363 21.169ZM33.258 17.467C31.601 18.102 29.107 18.946 26.604 18.946V17.946C28.942 17.946 31.317 17.14 32.901 16.534L33.258 17.467ZM24.604 21.61L19.604 22.86V17.141L24.604 18.391V21.61ZM18.604 24H16.604V16H18.604V16.5V23.5V24ZM25.225 17.515L19.604 16.11V15.5C19.604 15.224 19.38 15 19.104 15H16.104C15.828 15 15.604 15.224 15.604 15.5V15.833C8.994 15.351 7.604 13.006 7.604 9.634V7H6.604V9.634C6.604 14.225 9.31 16.392 15.604 16.836V17.404C11.758 17.249 9.127 16.65 6.912 15.417L6.426 16.291C8.795 17.609 11.57 18.245 15.604 18.405V19.478C12.718 19.402 8.965 19.195 6.256 18.48L6 19.447C6.878 19.679 7.862 19.854 8.882 19.994C7.88 20.137 6.904 20.315 6 20.554L6.256 21.52C9.086 20.774 12.67 20.582 15.604 20.513V21.596C11.594 21.754 8.821 22.39 6.428 23.709L6.911 24.585C9.151 23.349 11.782 22.751 15.604 22.597V23.166C9.557 23.614 6.607 26.138 6.607 30.885L6.606 31.088C6.597 32.759 6.602 32.945 6.61 33.014L7.605 32.917C7.596 32.762 7.603 31.579 7.606 31.093L7.607 30.885C7.607 26.667 10.085 24.585 15.604 24.167V24.5C15.604 24.777 15.828 25 16.104 25H19.104C19.38 25 19.604 24.777 19.604 24.5V23.89L25.225 22.485C25.448 22.43 25.604 22.23 25.604 22V18C25.604 17.771 25.448 17.571 25.225 17.515Z" fill="#8C4FFF"/>
</g>
<defs>
<clipPath id="clip0_23293_2681">
<rect width="40" height="40" fill="white"/>
</clipPath>
</defs>
</svg>
