<svg width="40" height="40" viewBox="0 0 40 40" fill="none" xmlns="http://www.w3.org/2000/svg">
<g clip-path="url(#clip0_23296_3680)">
<path d="M40 0H0V40H40V0Z" fill="#8C4FFF" fill-opacity="0.12"/>
<path fill-rule="evenodd" clip-rule="evenodd" d="M29.756 25.498C29.756 25.084 30.092 24.748 30.506 24.748C30.92 24.748 31.256 25.084 31.256 25.498C31.256 25.912 30.92 26.248 30.506 26.248C30.092 26.248 29.756 25.912 29.756 25.498ZM32.687 32.716C32.5 32.907 32.231 33 31.865 33C30.883 33 29.724 30.23 29.101 28.741C29.093 28.723 29.087 28.707 29.079 28.689C29.515 28.885 29.996 29 30.504 29C31.484 29 32.368 28.592 33.004 27.941V31.841C33.004 31.846 33.011 32.385 32.687 32.716ZM20.144 33C19.778 33 19.508 32.907 19.322 32.716C18.997 32.385 19.004 31.846 19.004 31.827V27.941C19.64 28.592 20.525 29 21.504 29C22.013 29 22.493 28.885 22.93 28.689C22.922 28.707 22.915 28.723 22.908 28.741C22.285 30.23 21.125 33 20.144 33ZM21.504 23C22.883 23 24.004 24.121 24.004 25.5C24.004 26.878 22.883 28 21.504 28C20.125 28 19.004 26.878 19.004 25.5C19.004 24.121 20.125 23 21.504 23ZM27.355 27H24.653C24.872 26.543 25.004 26.039 25.004 25.5C25.004 24.961 24.872 24.456 24.653 24H27.355C27.137 24.456 27.004 24.961 27.004 25.5C27.004 26.039 27.137 26.543 27.355 27ZM30.504 23C31.883 23 33.004 24.121 33.004 25.5C33.004 26.878 31.883 28 30.504 28C29.125 28 28.004 26.878 28.004 25.5C28.004 24.121 29.125 23 30.504 23ZM34.004 31.827V25.5C34.004 23.57 32.434 22 30.504 22C29.554 22 28.694 22.383 28.063 23H23.946C23.315 22.383 22.454 22 21.504 22C19.575 22 18.004 23.57 18.004 25.5V31.81C18.001 31.907 17.99 32.777 18.598 33.406C18.979 33.8 19.498 34 20.144 34C21.791 34 22.922 31.298 23.83 29.128C24.008 28.702 24.17 28.314 24.317 28H27.692C27.838 28.314 28 28.702 28.178 29.128C29.086 31.298 30.217 34 31.865 34C32.51 34 33.03 33.8 33.411 33.406C34.019 32.777 34.007 31.907 34.004 31.827ZM21.004 26H20.004V25H21.004V24H22.004V25H23.004V26H22.004V27H21.004V26ZM22.236 8.211C22.486 8.602 22.818 8.934 23.208 9.184C22.818 9.434 22.486 9.767 22.236 10.157C21.986 9.767 21.654 9.434 21.263 9.184C21.654 8.934 21.986 8.602 22.236 8.211ZM19.551 9.684C20.755 9.684 21.736 10.664 21.736 11.868C21.736 12.145 21.959 12.368 22.236 12.368C22.512 12.368 22.736 12.145 22.736 11.868C22.736 10.664 23.716 9.684 24.92 9.684C25.197 9.684 25.42 9.461 25.42 9.184C25.42 8.908 25.197 8.684 24.92 8.684C23.716 8.684 22.736 7.704 22.736 6.5C22.736 6.223 22.512 6 22.236 6C21.959 6 21.736 6.223 21.736 6.5C21.736 7.704 20.755 8.684 19.551 8.684C19.275 8.684 19.051 8.908 19.051 9.184C19.051 9.461 19.275 9.684 19.551 9.684ZM13.146 22.704C12.396 20.673 10.864 19.033 8.979 18.25C10.864 17.466 12.396 15.827 13.146 13.796C13.896 15.827 15.428 17.466 17.313 18.25C15.428 19.033 13.896 20.673 13.146 22.704ZM20.291 18.25C20.291 17.973 20.068 17.75 19.791 17.75C16.46 17.75 13.646 14.658 13.646 11C13.646 10.723 13.422 10.5 13.146 10.5C12.87 10.5 12.646 10.723 12.646 11C12.646 14.658 9.831 17.75 6.5 17.75C6.224 17.75 6 17.973 6 18.25C6 18.526 6.224 18.75 6.5 18.75C9.831 18.75 12.646 21.841 12.646 25.5C12.646 25.776 12.87 26 13.146 26C13.422 26 13.646 25.776 13.646 25.5C13.646 21.841 16.46 18.75 19.791 18.75C20.068 18.75 20.291 18.526 20.291 18.25ZM30.009 14.448C30.373 15.103 30.915 15.645 31.571 16.009C30.915 16.373 30.373 16.915 30.009 17.57C29.646 16.915 29.103 16.373 28.449 16.009C29.103 15.645 29.646 15.103 30.009 14.448ZM26.515 16.509C28.166 16.509 29.509 17.853 29.509 19.504C29.509 19.78 29.733 20.004 30.009 20.004C30.286 20.004 30.509 19.78 30.509 19.504C30.509 17.853 31.853 16.509 33.504 16.509C33.781 16.509 34.004 16.285 34.004 16.009C34.004 15.733 33.781 15.509 33.504 15.509C31.853 15.509 30.509 14.166 30.509 12.514C30.509 12.238 30.286 12.014 30.009 12.014C29.733 12.014 29.509 12.238 29.509 12.514C29.509 14.166 28.166 15.509 26.515 15.509C26.239 15.509 26.015 15.733 26.015 16.009C26.015 16.285 26.239 16.509 26.515 16.509Z" fill="#8C4FFF"/>
</g>
<rect x="0.5" y="0.5" width="39" height="39" stroke="#8C4FFF"/>
<defs>
<clipPath id="clip0_23296_3680">
<rect width="40" height="40" fill="white"/>
</clipPath>
</defs>
</svg>
