<svg width="40" height="40" viewBox="0 0 40 40" fill="none" xmlns="http://www.w3.org/2000/svg">
<g clip-path="url(#clip0_23295_3363)">
<path d="M40 0H0V40H40V0Z" fill="#ED7100" fill-opacity="0.12"/>
<path fill-rule="evenodd" clip-rule="evenodd" d="M23.992 27.9935H24.992V26.9935H23.992V27.9935ZM23.492 28.9935H25.492C25.769 28.9935 25.992 28.7695 25.992 28.4935V26.4935C25.992 26.2165 25.769 25.9935 25.492 25.9935H23.492C23.216 25.9935 22.992 26.2165 22.992 26.4935V28.4935C22.992 28.7695 23.216 28.9935 23.492 28.9935ZM28.992 27.9935H29.992V26.9935H28.992V27.9935ZM28.492 28.9935H30.492C30.769 28.9935 30.992 28.7695 30.992 28.4935V26.4935C30.992 26.2165 30.769 25.9935 30.492 25.9935H28.492C28.216 25.9935 27.992 26.2165 27.992 26.4935V28.4935C27.992 28.7695 28.216 28.9935 28.492 28.9935ZM23.992 22.9935H24.992V21.9935H23.992V22.9935ZM23.492 23.9935H25.492C25.769 23.9935 25.992 23.7695 25.992 23.4935V21.4935C25.992 21.2165 25.769 20.9935 25.492 20.9935H23.492C23.216 20.9935 22.992 21.2165 22.992 21.4935V23.4935C22.992 23.7695 23.216 23.9935 23.492 23.9935ZM28.992 22.9935H29.992V21.9935H28.992V22.9935ZM28.492 23.9935H30.492C30.769 23.9935 30.992 23.7695 30.992 23.4935V21.4935C30.992 21.2165 30.769 20.9935 30.492 20.9935H28.492C28.216 20.9935 27.992 21.2165 27.992 21.4935V23.4935C27.992 23.7695 28.216 23.9935 28.492 23.9935ZM20.992 32.9935H32.992V18.9935H20.992V32.9935ZM17.995 32.4165L7 26.6805V12.2795L16 7.3445V11.8645L11.254 14.5485C11.097 14.6365 11 14.8035 11 14.9835V23.9835C11 24.1655 11.1 24.3335 11.259 24.4215L17.759 27.9995C17.909 28.0825 18.092 28.0825 18.24 28.0005L19.992 27.0385V31.3265L17.995 32.4165ZM25.713 14.5315L20 11.8395V7.3085L30 12.2925V17.9935H26V14.9835C26 14.7905 25.889 14.6135 25.713 14.5315ZM33.492 17.9935H31V11.9835C31 11.7935 30.893 11.6205 30.723 11.5365L19.723 6.0525C19.568 5.9755 19.384 5.9835 19.237 6.0745C19.09 6.1665 19 6.3265 19 6.5005V12.1565C19 12.3495 19.111 12.5255 19.287 12.6085L25 15.3005V17.9935H20.492C20.216 17.9935 19.992 18.2165 19.992 18.4935V21.3045L18.464 19.3845L21.717 15.3065H20.272L17.403 18.6775V15.3065H16.117V23.6675H17.403V19.8085L19.992 23.0895V25.8965L18 26.9905L12 23.6885V15.2745L16.746 12.5915C16.903 12.5025 17 12.3365 17 12.1565V6.5005C17 6.3235 16.907 6.1595 16.755 6.0695C16.604 5.9795 16.415 5.9775 16.26 6.0615L6.26 11.5445C6.1 11.6325 6 11.8005 6 11.9835V26.9835C6 27.1695 6.104 27.3405 6.269 27.4265L17.769 33.4265C17.841 33.4645 17.921 33.4835 18 33.4835C18.082 33.4835 18.165 33.4625 18.239 33.4225L19.992 32.4655V33.4935C19.992 33.7695 20.216 33.9935 20.492 33.9935H33.492C33.769 33.9935 33.992 33.7695 33.992 33.4935V18.4935C33.992 18.2165 33.769 17.9935 33.492 17.9935Z" fill="#ED7100"/>
</g>
<rect x="0.5" y="0.5" width="39" height="39" stroke="#ED7100"/>
<defs>
<clipPath id="clip0_23295_3363">
<rect width="40" height="40" fill="white"/>
</clipPath>
</defs>
</svg>
