<svg width="40" height="40" viewBox="0 0 40 40" fill="none" xmlns="http://www.w3.org/2000/svg">
<g clip-path="url(#clip0_23295_3168)">
<path d="M40 0H0V40H40V0Z" fill="#7AA116" fill-opacity="0.12"/>
<path fill-rule="evenodd" clip-rule="evenodd" d="M28.379 27.672L24.854 24.147L24.147 24.854L27.67 28.378L20.503 31.349L13.328 28.379L16.854 24.854L16.147 24.147L12.623 27.671L9.651 20.503L12.621 13.328L16.147 16.854L16.854 16.147L13.33 12.623L20.497 9.651L27.672 12.621L24.147 16.147L24.854 16.854L28.377 13.33L31.349 20.497L28.379 27.672ZM34 21V20H32.225L29.143 12.564L30.854 10.854L30.147 10.147L28.438 11.856L21 8.777V7H20V8.776L12.565 11.857L10.854 10.147L10.147 10.854L11.856 12.563L8.777 20H7V21H8.775L11.858 28.436L10.147 30.147L10.854 30.854L12.563 29.145L20 32.223V34H21V32.225L28.436 29.143L30.147 30.854L30.854 30.147L29.145 28.438L32.223 21H34ZM20.5 23.24C18.989 23.24 17.76 22.011 17.76 20.5C17.76 18.989 18.989 17.76 20.5 17.76C22.011 17.76 23.24 18.989 23.24 20.5C23.24 22.011 22.011 23.24 20.5 23.24ZM20.5 16.76C18.438 16.76 16.76 18.438 16.76 20.5C16.76 22.563 18.438 24.24 20.5 24.24C22.563 24.24 24.24 22.563 24.24 20.5C24.24 18.438 22.563 16.76 20.5 16.76Z" fill="#7AA116"/>
</g>
<rect x="0.5" y="0.5" width="39" height="39" stroke="#7AA116"/>
<defs>
<clipPath id="clip0_23295_3168">
<rect width="40" height="40" fill="white"/>
</clipPath>
</defs>
</svg>
