<svg width="2155" height="2155" viewBox="0 0 2155 2155" fill="none" xmlns="http://www.w3.org/2000/svg">
<path d="M585.685 943.585V1361.89L1104.95 1670.84V1217.57L1093.53 1212.68L976.522 1140.53V981.65L837.642 918.663V1217.57L978.4 1305.45L978.4 1438.74L714.111 1282.16L714.111 851.575L330.884 630.22L330.884 1509.06L1097.71 1948.58V1796.5L1093.53 1788.73L472.251 1422.66V878.825L585.685 943.585Z" fill="white"/>
<path d="M349 656.778L1090.83 221.396L1833.21 656.195L1700.54 734.688L1091.08 377.921L466.451 742.486L825.653 949.087L836.578 942.885L1090.83 802.214L1229.55 886.86L1349.89 816.698L1090.83 667.908L837.588 810.682L699.055 728.689L1089.82 507.723L1596.07 798.681L1197.02 1031.18L1088.81 963.984L923.699 1053.04L307.622 707.775L349 656.778Z" fill="white"/>
<path d="M1700.91 733.433V1176.67L1323.17 1390.55V1250.38L1592.1 1098.94V796.972L1457.24 875.848V1022.4L1202.12 1170.21V1605.72L1832.78 1244.38L1833.2 655.867L1700.91 733.433ZM1092.27 1928.68V1788.99L1833.28 1357.09L1833.92 1490.84L1092.27 1928.68Z" fill="white"/>
</svg>
