<svg width="40" height="40" viewBox="0 0 40 40" xmlns="http://www.w3.org/2000/svg">  <g id="Icon-Architecture/32/Arch_AWS-CodeArtifact_32" stroke="none" stroke-width="1" fill="none" fill-rule="evenodd">  <g id="Icon-Service/32/AWS-CodeArtifact_32" transform="translate(7.000000, 5.999600)" fill="#FFFFFF"> <path d="M11.082,16.997 L14.032,10.406 L14.944,10.814 L11.994,17.405 L11.082,16.997 Z M16.213,14.989 L17.983,13.697 L16.424,12.115 L17.137,11.413 L19.103,13.408 C19.204,13.511 19.256,13.654 19.244,13.799 C19.232,13.944 19.158,14.077 19.041,14.163 L16.803,15.796 L16.213,14.989 Z M10.813,12.158 L9.018,13.469 L10.582,15.051 L9.871,15.754 L7.898,13.759 C7.796,13.656 7.744,13.513 7.756,13.368 C7.768,13.223 7.842,13.09 7.959,13.004 L10.224,11.351 L10.813,12.158 Z M11.035,0.861 L1,6.794 L1,17.864 L0,17.864 L0,6.509 C0,6.332 0.094,6.168 0.245,6.079 L10.525,0 L11.035,0.861 Z M27,8.864 L27,21.384 C27,21.562 26.904,21.728 26.749,21.817 L16.478,27.731 L15.979,26.865 L26,21.095 L26,8.864 L27,8.864 Z M21,18.278 L13.46,22.566 L6,18.194 L6,9.532 L13.455,5.245 L21,9.619 L21,18.278 Z M22,18.569 L22,9.331 C22,9.153 21.905,8.988 21.751,8.898 L13.707,4.235 C13.553,4.146 13.363,4.145 13.207,4.234 L5.251,8.809 C5.096,8.899 5,9.064 5,9.243 L5,18.48 C5,18.658 5.094,18.822 5.247,18.912 L13.203,23.574 C13.281,23.62 13.368,23.643 13.456,23.643 C13.541,23.643 13.627,23.621 13.703,23.578 L21.747,19.003 C21.903,18.914 22,18.748 22,18.569 L22,18.569 Z" id="AWS-CodeArtifact_Icon_32_Squid"></path> </g> </g></svg>