<svg width="40" height="40" viewBox="0 0 40 40" fill="none" xmlns="http://www.w3.org/2000/svg">
<g clip-path="url(#clip0_23298_3839)">
<path d="M40 0H0V40H40V0Z" fill="#01A88D" fill-opacity="0.12"/>
<path fill-rule="evenodd" clip-rule="evenodd" d="M7.00413 16.0195H31.0372V15.0179H7.00413V16.0195ZM18.0193 8.00651H31.0372V7.00488H18.0193V8.00651ZM13.0124 8.00651H15.0151V7.00488H13.0124V8.00651ZM10.0083 8.00651H12.011V7.00488H10.0083V8.00651ZM7.00413 8.00651H9.00688V7.00488H7.00413V8.00651ZM28.5337 25.0342C28.5337 27.0034 26.9916 28.5459 25.0229 28.5459C23.0542 28.5459 21.5121 27.0034 21.5121 25.0342C21.5121 23.065 23.0542 21.5225 25.0229 21.5225C26.9916 21.5225 28.5337 23.065 28.5337 25.0342ZM29.5351 25.0342C29.5351 22.5031 27.5534 20.5208 25.0229 20.5208C22.4934 20.5208 20.5107 22.5031 20.5107 25.0342C20.5107 27.5653 22.4934 29.5475 25.0229 29.5475C27.5534 29.5475 29.5351 27.5653 29.5351 25.0342ZM34.8304 33.3717L30.9691 29.6136C30.5785 30.1194 30.1269 30.5722 29.6222 30.9648L33.3854 34.8251C33.5206 34.9623 33.6938 35.0174 33.9041 34.9924C34.1424 34.9623 34.3928 34.8261 34.6081 34.6087C34.9716 34.2472 35.1628 33.7053 34.8304 33.3717ZM25.0289 31.5448C28.6178 31.5448 31.5379 28.624 31.5379 25.0342C31.5379 21.4443 28.6178 18.5236 25.0289 18.5236C21.44 18.5236 18.52 21.4443 18.52 25.0342C18.52 28.624 21.44 31.5448 25.0289 31.5448ZM35.316 35.3179C34.9435 35.6905 34.4869 35.9269 34.0303 35.986C33.9552 35.995 33.8811 36 33.808 36C33.3764 36 32.9798 35.8367 32.6734 35.5292L28.7721 31.5367C27.6695 32.1748 26.3928 32.5464 25.0289 32.5464C20.8872 32.5464 17.5186 29.1769 17.5186 25.0342C17.5186 20.8914 20.8872 17.522 25.0289 17.522C29.1706 17.522 32.5392 20.8914 32.5392 25.0342C32.5392 26.3934 32.1707 27.6665 31.5369 28.7682L35.5333 32.6586C36.2313 33.3567 36.1362 34.4986 35.316 35.3179ZM5.00138 10.0098H33.0399V9.50895V5.50244C33.0399 5.22599 32.8146 5.00163 32.5392 5.00163H5.50206C5.22669 5.00163 5.00138 5.22599 5.00138 5.50244V9.50895V10.0098ZM19.9189 33.0472H4.50069C4.22431 33.0472 4 32.8228 4 32.5464V10.5106V9.50895V5.50244C4 4.6741 4.67393 4 5.50206 4H32.5392C33.3674 4 34.0413 4.6741 34.0413 5.50244V9.50895V10.5106V22.0103C33.792 21.2691 33.4545 20.5699 33.0399 19.9229V11.0114H5.00138V32.0456H18.6201C19.0237 32.4152 19.4572 32.7507 19.9189 33.0472ZM7.00413 20.026H16.9558C17.1711 19.6785 17.4034 19.3409 17.6618 19.0244H7.00413V20.026ZM15.7321 23.0309C15.662 23.3595 15.606 23.693 15.5699 24.0326H7.00413V23.0309H15.7321Z" fill="#01A88D"/>
</g>
<rect x="0.5" y="0.5" width="39" height="39" stroke="#01A88D"/>
<defs>
<clipPath id="clip0_23298_3839">
<rect width="40" height="40" fill="white"/>
</clipPath>
</defs>
</svg>
