<svg width="40" height="40" viewBox="0 0 40 40" xmlns="http://www.w3.org/2000/svg">  <g id="Icon-Architecture/32/Arch_Amazon-EKS-Cloud_32" stroke="none" stroke-width="1" fill="none" fill-rule="evenodd">  <g id="Icon-Service/32/Amazon-EKS-Cloud_32" transform="translate(6.000000, 6.000000)" fill="#FFFFFF"> <path d="M24.828,23.6912462 L14.417,23.6802462 C13.284,23.6782462 12.293,22.9412462 12.059,21.9272462 C12.012,21.7152462 11.987,21.4902462 11.987,21.2562462 C11.987,19.6172462 13.13,19.0822462 13.81,18.9082462 C14.055,18.8462462 14.215,18.6122462 14.183,18.3622462 C14.166,18.2162462 14.157,18.0672462 14.157,17.9172462 C14.157,16.5782462 15.08,15.1392462 16.258,14.6402462 C16.789,14.4152462 17.28,14.3262462 17.725,14.3262462 C18.993,14.3262462 19.888,15.0512462 20.278,15.4432462 C20.711,15.8772462 21.05,16.4332462 21.283,17.0952462 C21.345,17.2702462 21.498,17.3962462 21.681,17.4232462 C21.87,17.4482462 22.047,17.3742462 22.157,17.2262462 C22.46,16.8162462 22.947,16.6362462 23.406,16.7692462 C23.975,16.9352462 24.349,17.5352462 24.405,18.2962462 C24.364,18.5652462 24.546,18.8172462 24.814,18.8632462 C25.472,18.9772462 27,19.4392462 27,21.2812462 C27,23.4322462 25.012,23.6722462 24.828,23.6912462 L24.828,23.6912462 Z M11.995,26.4162462 L1,20.6802462 L1,6.27924615 L10,1.34424615 L10,5.86524615 L5.254,8.54824615 C5.097,8.63624615 5,8.80324615 5,8.98324615 L5,17.9832462 C5,18.1652462 5.099,18.3332462 5.259,18.4212462 L11.024,21.5952462 C11.04,21.7822462 11.045,21.9732462 11.085,22.1502462 C11.422,23.6142462 12.822,24.6782462 14.415,24.6802462 L15.178,24.6812462 L11.995,26.4162462 Z M19.713,8.53124615 L14,5.83924615 L14,1.30824615 L24,6.29324615 L24,15.9582462 C23.895,15.9082462 23.801,15.8422462 23.686,15.8092462 C23.086,15.6322462 22.453,15.7372462 21.936,16.0762462 C21.682,15.5652462 21.364,15.1162462 20.987,14.7372462 C20.682,14.4302462 20.348,14.1822462 20,13.9752462 L20,8.98324615 C20,8.78924615 19.889,8.61324615 19.713,8.53124615 L19.713,8.53124615 Z M25.365,17.9612462 C25.305,17.5662462 25.168,17.2292462 25,16.9242462 L25,5.98324615 C25,5.79424615 24.892,5.62024615 24.723,5.53624615 L13.723,0.0532461519 C13.567,-0.0247538481 13.384,-0.0167538481 13.237,0.0752461519 C13.09,0.166246152 13,0.327246152 13,0.500246152 L13,6.15624615 C13,6.35024615 13.111,6.52624615 13.287,6.60824615 L19,9.30024615 L19,13.5322462 C18,13.2282462 16.917,13.2742462 15.867,13.7192462 C15.129,14.0322462 14.481,14.6122462 14.003,15.3172462 L12.465,13.3842462 L15.717,9.30724615 L14.273,9.30724615 L11.403,12.6772462 L11.403,9.30724615 L10.117,9.30724615 L10.117,17.6672462 L11.403,17.6672462 L11.403,13.8092462 L13.449,16.4012462 C13.267,16.8922462 13.157,17.4052462 13.157,17.9172462 C13.157,17.9662462 13.158,18.0152462 13.159,18.0642462 C12.036,18.4782462 11.302,19.3432462 11.072,20.4802462 L6,17.6882462 L6,9.27424615 L10.746,6.59124615 C10.903,6.50324615 11,6.33724615 11,6.15624615 L11,0.500246152 C11,0.323246152 10.907,0.160246152 10.755,0.0702461519 C10.603,-0.0197538481 10.415,-0.0217538481 10.26,0.0622461519 L0.26,5.54524615 C0.099,5.63224615 0,5.80024615 0,5.98324615 L0,20.9832462 C0,21.1702462 0.103,21.3402462 0.268,21.4262462 L11.768,27.4262462 C11.841,27.4642462 11.921,27.4832462 12,27.4832462 C12.082,27.4832462 12.165,27.4622462 12.239,27.4222462 L17.263,24.6832462 L24.867,24.6902462 C25.951,24.6012462 28,23.7752462 28,21.2812462 C28,19.3392462 26.701,18.3162462 25.365,17.9612462 L25.365,17.9612462 Z" id="Fill-6"></path> </g> </g></svg>