<svg width="40" height="40" viewBox="0 0 40 40" fill="none" xmlns="http://www.w3.org/2000/svg">
<g clip-path="url(#clip0_23298_3980)">
<path d="M40 0H0V40H40V0Z" fill="#01A88D" fill-opacity="0.12"/>
<path fill-rule="evenodd" clip-rule="evenodd" d="M17.5317 26.996C17.0177 26.471 16.1088 26.111 14.9928 26.027V23.736L16.4458 22.546C16.6438 22.469 16.8657 22.507 17.0267 22.654C17.2667 22.873 17.5187 23.147 17.7847 23.437C18.6118 24.335 19.6307 25.443 20.8767 25.538C20.2577 26.087 18.6637 26.976 17.5317 26.996ZM14.4928 29C12.9658 29 11.9928 28.407 11.9928 28C11.9928 27.592 12.9658 27 14.4928 27C16.0188 27 16.9928 27.592 16.9928 28C16.9928 28.407 16.0188 29 14.4928 29ZM16.1597 30.299C16.1597 30.669 15.4308 31.1 14.4928 31.1C13.5538 31.1 12.8257 30.669 12.8257 30.299C12.8257 30.155 12.9488 29.994 13.1518 29.856C13.5618 29.947 14.0118 30 14.4928 30C14.9728 30 15.4228 29.947 15.8328 29.856C16.0358 29.994 16.1597 30.155 16.1597 30.299ZM11.4528 26.996C10.3338 26.976 8.67475 26.088 7.99775 25.532C9.21775 25.409 10.2198 24.32 11.0338 23.435C11.2988 23.147 11.5508 22.872 11.7908 22.654C11.9628 22.496 12.2087 22.461 12.3397 22.519L13.9928 23.751V26.027C12.8768 26.111 11.9668 26.471 11.4528 26.996ZM12.9928 18.5C12.9928 17.672 13.6658 17 14.4928 17C15.3198 17 15.9928 17.672 15.9928 18.5C15.9928 19.327 15.3198 20 14.4928 20C13.6658 20 12.9928 19.327 12.9928 18.5ZM21.7048 24.668C21.5378 24.585 21.3228 24.544 21.0478 24.544C20.1628 24.544 19.2908 23.596 18.5208 22.76C18.2338 22.447 17.9588 22.151 17.7008 21.915C17.2198 21.477 16.5358 21.381 15.9558 21.671C15.9218 21.688 15.8908 21.708 15.8628 21.731L14.9928 22.444V20.949C16.1328 20.717 16.9928 19.707 16.9928 18.5C16.9928 17.121 15.8718 16 14.4928 16C13.1138 16 11.9928 17.121 11.9928 18.5C11.9928 19.707 12.8528 20.717 13.9928 20.949V22.507L12.8628 21.671C12.2828 21.381 11.5987 21.477 11.1167 21.915C10.8577 22.15 10.5838 22.446 10.2977 22.758C9.52775 23.595 8.65575 24.544 7.76975 24.544C7.50275 24.544 7.29375 24.583 7.13175 24.661C6.87375 24.786 6.71875 25.023 6.71875 25.294C6.71875 26.282 9.29475 27.701 10.9998 27.956C10.9988 27.971 10.9928 27.984 10.9928 28C10.9928 28.603 11.4218 29.123 12.1137 29.483C11.9307 29.732 11.8257 30.009 11.8257 30.299C11.8257 31.193 12.7448 31.912 13.9928 32.067V34H14.9928V32.067C16.2398 31.912 17.1597 31.193 17.1597 30.299C17.1597 30.009 17.0538 29.732 16.8708 29.483C17.5628 29.123 17.9928 28.603 17.9928 28C17.9928 27.984 17.9857 27.969 17.9847 27.954C19.6367 27.694 22.1167 26.288 22.1167 25.309C22.1167 25.036 21.9618 24.796 21.7048 24.668ZM21.9928 18H24.9928V17H21.9928V18ZM21.9928 12H25.9928V11H21.9928V12ZM21.9928 15H30.9928V14H21.9928V15ZM24.9928 21H30.9928V20H24.9928V21ZM26.9928 18H30.9928V17H26.9928V18ZM28.9928 7.69L32.3647 11H28.9928V7.69ZM33.8428 11.049L28.8428 6.143C28.7498 6.051 28.6238 6 28.4928 6H19.4928C19.2158 6 18.9928 6.223 18.9928 6.5V20H19.9928V7H27.9928V11.5C27.9928 11.776 28.2158 12 28.4928 12H32.9928V27H24.9928V28H33.4928C33.7688 28 33.9928 27.776 33.9928 27.5V11.406C33.9928 11.272 33.9388 11.143 33.8428 11.049Z" fill="#01A88D"/>
</g>
<rect x="0.5" y="0.5" width="39" height="39" stroke="#01A88D"/>
<defs>
<clipPath id="clip0_23298_3980">
<rect width="40" height="40" fill="white"/>
</clipPath>
</defs>
</svg>
