<svg width="90" height="90" viewBox="0 0 90 90" fill="none" xmlns="http://www.w3.org/2000/svg">
<path fill-rule="evenodd" clip-rule="evenodd" d="M26.0309 14.5118H24.416V7C24.416 5.89543 25.3114 5 26.416 5H33.9604V6.61486V8.22972H27.6457V14.5118H26.0309ZM37.7325 6.61486V5H52.8212V6.61486V8.22972H37.7325V6.61486ZM56.5934 6.61486V5H71.682V6.61486V8.22972H56.5934V6.61486ZM75.4542 6.61486V5H82.9985C84.1031 5 84.9985 5.89543 84.9985 7V14.5118H83.3837H81.7688V8.22972H75.4542V6.61486ZM83.3837 18.2677H84.9985V33.2913H83.3837H81.7688V18.2677H83.3837ZM83.3837 37.0472H84.9985V52.0708H83.3837H81.7688V37.0472H83.3837ZM83.3837 55.8267H84.9985V63.3385C84.9985 64.4431 84.1031 65.3385 82.9985 65.3385H75.4542V63.7236V62.1088H81.7688V55.8267H83.3837Z" fill="white"/>
<mask id="path-2-inside-1_26185_14940" fill="white">
<rect x="14.5801" y="14.6367" width="60.5825" height="60.3385" rx="2"/>
</mask>
<rect x="14.5801" y="14.6367" width="60.5825" height="60.3385" rx="2" stroke="white" stroke-width="6.45944" stroke-dasharray="16 4" mask="url(#path-2-inside-1_26185_14940)"/>
<mask id="path-3-inside-2_26185_14940" fill="white">
<path fill-rule="evenodd" clip-rule="evenodd" d="M7.00195 24.6611C5.89738 24.6611 5.00195 25.5566 5.00195 26.6611V82.9996C5.00195 84.1042 5.89738 84.9996 7.00195 84.9996H63.5845C64.689 84.9996 65.5845 84.1042 65.5845 82.9996V26.6611C65.5845 25.5566 64.689 24.6611 63.5845 24.6611H7.00195ZM53.5987 53.7277C53.5987 63.5184 45.6297 71.4553 35.7994 71.4553C25.969 71.4553 18 63.5184 18 53.7277C18 43.9369 25.969 36 35.7994 36C45.6297 36 53.5987 43.9369 53.5987 53.7277ZM34.8306 54.0499V44.3803H37.4144V53.3495L45.2417 58.4468L43.8317 60.612L35.4175 55.1325L34.8306 54.7503V54.0499Z"/>
</mask>
<path fill-rule="evenodd" clip-rule="evenodd" d="M7.00195 24.6611C5.89738 24.6611 5.00195 25.5566 5.00195 26.6611V82.9996C5.00195 84.1042 5.89738 84.9996 7.00195 84.9996H63.5845C64.689 84.9996 65.5845 84.1042 65.5845 82.9996V26.6611C65.5845 25.5566 64.689 24.6611 63.5845 24.6611H7.00195ZM53.5987 53.7277C53.5987 63.5184 45.6297 71.4553 35.7994 71.4553C25.969 71.4553 18 63.5184 18 53.7277C18 43.9369 25.969 36 35.7994 36C45.6297 36 53.5987 43.9369 53.5987 53.7277ZM34.8306 54.0499V44.3803H37.4144V53.3495L45.2417 58.4468L43.8317 60.612L35.4175 55.1325L34.8306 54.7503V54.0499Z" fill="white"/>
<path d="M34.8306 44.3803V41.1506H31.6009V44.3803H34.8306ZM37.4144 44.3803H40.6441V41.1506H37.4144V44.3803ZM37.4144 53.3495H34.1846V55.1005L35.6519 56.056L37.4144 53.3495ZM45.2417 58.4468L47.9481 60.2093L49.7106 57.5028L47.0042 55.7404L45.2417 58.4468ZM43.8317 60.612L42.0693 63.3184L44.7757 65.0809L46.5382 62.3744L43.8317 60.612ZM35.4175 55.1325L33.655 57.8389L33.655 57.8389L35.4175 55.1325ZM34.8306 54.7503H31.6009V56.5012L33.0681 57.4567L34.8306 54.7503ZM8.23167 26.6611C8.23167 27.3403 7.68111 27.8909 7.00195 27.8909V21.4314C4.11366 21.4314 1.77223 23.7728 1.77223 26.6611H8.23167ZM8.23167 82.9996V26.6611H1.77223V82.9996H8.23167ZM7.00195 81.7699C7.68111 81.7699 8.23167 82.3205 8.23167 82.9996H1.77223C1.77223 85.8879 4.11365 88.2294 7.00195 88.2294V81.7699ZM63.5845 81.7699H7.00195V88.2294H63.5845V81.7699ZM62.3548 82.9996C62.3548 82.3205 62.9053 81.7699 63.5845 81.7699V88.2294C66.4728 88.2294 68.8142 85.8879 68.8142 82.9996H62.3548ZM62.3548 26.6611V82.9996H68.8142V26.6611H62.3548ZM63.5845 27.8909C62.9053 27.8909 62.3548 27.3403 62.3548 26.6611H68.8142C68.8142 23.7728 66.4728 21.4314 63.5845 21.4314V27.8909ZM7.00195 27.8909H63.5845V21.4314H7.00195V27.8909ZM35.7994 74.685C47.4011 74.685 56.8284 65.3144 56.8284 53.7277H50.369C50.369 61.7224 43.8582 68.2256 35.7994 68.2256V74.685ZM14.7703 53.7277C14.7703 65.3144 24.1976 74.685 35.7994 74.685V68.2256C27.7405 68.2256 21.2297 61.7224 21.2297 53.7277H14.7703ZM35.7994 32.7703C24.1976 32.7703 14.7703 42.1409 14.7703 53.7277H21.2297C21.2297 45.7329 27.7405 39.2297 35.7994 39.2297V32.7703ZM56.8284 53.7277C56.8284 42.1409 47.4011 32.7703 35.7994 32.7703V39.2297C43.8582 39.2297 50.369 45.7329 50.369 53.7277H56.8284ZM31.6009 44.3803V54.0499H38.0603V44.3803H31.6009ZM37.4144 41.1506H34.8306V47.61H37.4144V41.1506ZM40.6441 53.3495V44.3803H34.1846V53.3495H40.6441ZM47.0042 55.7404L39.1768 50.6431L35.6519 56.056L43.4792 61.1532L47.0042 55.7404ZM46.5382 62.3744L47.9481 60.2093L42.5353 56.6843L41.1253 58.8495L46.5382 62.3744ZM33.655 57.8389L42.0693 63.3184L45.5942 57.9055L37.18 52.4261L33.655 57.8389ZM33.0681 57.4567L33.655 57.8389L37.18 52.4261L36.5931 52.0439L33.0681 57.4567ZM31.6009 54.0499V54.7503H38.0603V54.0499H31.6009Z" fill="white" mask="url(#path-3-inside-2_26185_14940)"/>
</svg>
