<svg xmlns="http://www.w3.org/2000/svg" width="522" height="673" fill="none" viewBox="0 0 522 673"><g fill="#fff" clip-path="url(#a)"><path d="M198 66.5a11.86 11.86 0 0 1-3.471 8.38 11.84 11.84 0 0 1-8.379 3.47 11.85 11.85 0 0 1-10.948-7.315 11.9 11.9 0 0 1-.902-4.535 11.8 11.8 0 1 1 23.6 0zm-94.2 309.2a4.1 4.1 0 0 1-5.7-.7C14.5 268.3 63 130.3 157.4 76.3a4.1 4.1 0 0 1 5.009-.225 4.1 4.1 0 0 1 1.727 3.024 4.09 4.09 0 0 1-1.22 3.261c-.43.421-.948.742-1.516.94-90.7 52-136.9 184.5-56.9 286.7a4 4 0 0 1-.7 5.7m72.2-81.3c4.456 0 8.729-1.77 11.879-4.921a16.796 16.796 0 0 0 0-23.758 16.796 16.796 0 0 0-23.758 0 16.796 16.796 0 0 0 0 23.758A16.8 16.8 0 0 0 176 294.4m164.5 0c4.456 0 8.729-1.77 11.879-4.921a16.796 16.796 0 0 0 0-23.758 16.796 16.796 0 0 0-23.758 0 16.796 16.796 0 0 0 0 23.758A16.8 16.8 0 0 0 340.5 294.4"/><path fill-rule="evenodd" d="M15.3 308.6a9.69 9.69 0 0 1-10.095.676A9.7 9.7 0 0 1 0 300.6V205a9.7 9.7 0 0 1 15-8 252.3 252.3 0 0 1 492.2-.3 9.705 9.705 0 0 1 13.412 3.481 9.7 9.7 0 0 1 1.288 4.919v95.5a9.7 9.7 0 0 1-5.047 8.587 9.7 9.7 0 0 1-9.953-.387 252.706 252.706 0 0 1-139.7 172.3l-.1 1.7a57 57 0 0 0 17.4 17.7 91 91 0 0 0 34.5 9.8s-15.9 8-35.3 6.2c-12.2-1-17.4 2-19.3 8l1.3-19.7-1.3 19.6c-2 44.7-4.4 71-5.2 80.2l-.3 3.8v1c-.4 2.5-.8 6.4 9 10.4 5.5 2.3 14.7 4.9 22.6 7.1 8 2.3 14.6 4.2 14.6 4.9 0 1.4-43.9 0-43.9 0-25.2 0-25.2-18.8-25.2-23.4s-6.8-83.2-6.8-83.2l-2.3 101.5c0 4.6 2.3 11.4 18.3 16 0 0 35 5.3 35 7.2 0 2-41.9 0-41.9 0-31.8 0-31.8-18.6-31.8-18.6l-6.9-83.2s-2.3 83.2-2.3 94.6c0 9 1.6 15.8 26.6 20.4 4.8 1.4 11.6 2.8 18 4.2 9.7 2 18.4 4 18.4 5 0 1.6-55.6 0-55.6 0-29.7-2.3-32.5-23-32.5-23L260.9 608l-11.2 41.4s-4.6 20.6-34.4 22.9c0 0-50.4 1.6-50.4 0 0-1 7.3-2.8 16-4.8 5.7-1.4 12-2.9 17-4.4 17.4-5.1 26.6-11.4 26.6-20.4 0-11.4-2.3-94.6-2.3-94.6l-6.9 83.2s0 20.4-31.8 20.4c0 0-45.4.1-45.4-1.8 0-2 38.3-7.2 38.3-7.2 16-4.6 18.3-11.4 18.3-16l-2.2-101.5s-7 78.6-7 83.2 0 25.2-25 25.2c0 0-42.4-2.1-42.4-3.6 0-.7 5.3-2 12.1-3.6 7.8-1.8 17.6-4.1 23.6-6.6 9.7-4 9.3-8 9-10.4v-1l-5.6-83.1c-1.9-5.8-7-9-19.2-8a72.6 72.6 0 0 1-35.4-6.2 91 91 0 0 0 34.5-9.7 40.6 40.6 0 0 0 15.3-17.7l-.1-4a252.7 252.7 0 0 1-137-171.1M368 467.4l1.1-20.8c1.8-33.8 3.4-63.2 4.8-97.4a70.49 70.49 0 0 0 38.199-60.852A70.5 70.5 0 0 0 377.1 225.6v-1.3c0-63.8-48.8-119.2-117.5-119.2-68.8 0-114.4 57.5-114.4 119.1v.2a70.501 70.501 0 0 0 3.6 126l3.2 115.7a240.2 240.2 0 1 1 216 1.3m-65.4-69.8c-.6 25.5-11.3 63.1-44.3 63.1-34 0-42.4-42.5-42.4-65.4 0 0 15 21.2 42.4 21.2s44.3-21.2 44.3-21.2zm-124-55.7a55.4 55.4 0 0 0 39.174-16.226A55.42 55.42 0 0 0 234 286.5a55.4 55.4 0 0 0-16.226-39.174A55.42 55.42 0 0 0 178.6 231.1a55.4 55.4 0 0 0-39.174 16.226 55.403 55.403 0 0 0 0 78.348A55.4 55.4 0 0 0 178.6 341.9m163 0a55.4 55.4 0 0 0 39.174-16.226A55.42 55.42 0 0 0 397 286.5a55.4 55.4 0 0 0-16.226-39.174A55.42 55.42 0 0 0 341.6 231.1a55.4 55.4 0 0 0-39.174 16.226 55.403 55.403 0 0 0 0 78.348A55.4 55.4 0 0 0 341.6 341.9" clip-rule="evenodd"/></g><defs><clipPath id="a"><path fill="#fff" d="M0 0h522v673H0z"/></clipPath></defs></svg>