<svg xmlns="http://www.w3.org/2000/svg" width="581" height="747" fill="none"><g clip-path="url(#a)"><path fill="#fff" d="M336.76 437.61c0 28.31-18.83 43.36-49.29 43.36-30.45 0-47.2-17.84-47.2-43.36 0 0 16.75 23.65 47.2 23.65 30.46 0 49.3-23.65 49.3-23.65z"/><path fill="#e2f5fc" d="M290.5 547.98c148.47 0 268.84-120.45 268.84-269.04 0-148.58-120.37-269.03-268.84-269.03S21.66 130.36 21.66 278.94c0 148.59 120.37 269.04 268.84 269.04"/><path fill="#cdecf6" d="M290.5 504.04c121.36 0 219.74-98.45 219.74-219.9S411.86 64.24 290.5 64.24 70.76 162.69 70.76 284.14s98.38 219.9 219.74 219.9"/><path fill="#fff" d="M208.31 91.51a12.98 12.98 0 0 0 12.98-12.98 12.985 12.985 0 0 0-8.013-11.992A12.978 12.978 0 0 0 195.33 78.53a12.98 12.98 0 0 0 12.98 12.98m-96.57 325.82a4.497 4.497 0 0 0 7.616-.436 4.5 4.5 0 0 0 .345-3.525 4.5 4.5 0 0 0-.881-1.579c-87.8-112.21-37.15-257.65 62.5-314.74a4.5 4.5 0 0 0-4.47-7.8C73.23 148.6 20.03 300.12 111.74 417.33"/><path fill="#b5d2f3" d="M19.26 225.54a3.5 3.5 0 0 0-1.025-2.475 3.5 3.5 0 0 0-3.814-.759 3.5 3.5 0 0 0-2.161 3.234zm-7 105.38a3.5 3.5 0 0 0 1.025 2.475 3.5 3.5 0 0 0 3.814.759 3.5 3.5 0 0 0 2.161-3.234zm555.07-105.88a3.503 3.503 0 0 0-3.5-3.5 3.5 3.5 0 0 0-3.5 3.5zm-7 105.38a3.503 3.503 0 0 0 3.5 3.5 3.503 3.503 0 0 0 3.5-3.5zM289.79 555.97c153.28 0 277.54-124.35 277.54-277.73h-7c0 149.52-121.13 270.73-270.54 270.73zm277.54-277.73C567.33 124.84 443.07.5 289.79.5v7c149.41 0 270.54 121.21 270.54 270.74zM289.79.5C136.51.5 12.26 124.85 12.26 278.24h7C19.26 128.7 140.38 7.5 289.79 7.5zM12.26 278.24c0 153.38 124.25 277.73 277.53 277.73v-7c-149.4 0-270.53-121.2-270.53-270.73zm0-52.7v105.38h7V225.54zm548.07-.5v105.38h7V225.04z"/><path fill="#b5d2f3" d="M21.66 225.73a10.843 10.843 0 0 0-10.83-11.306A10.845 10.845 0 0 0 0 225.73v106.43a10.842 10.842 0 0 0 15.086 10.435 10.84 10.84 0 0 0 6.574-10.435zm559.34 0a10.84 10.84 0 0 0-6.574-10.435 10.85 10.85 0 0 0-8.512 0 10.84 10.84 0 0 0-6.574 10.435v106.43a10.84 10.84 0 0 0 6.574 10.435 10.85 10.85 0 0 0 8.512 0A10.84 10.84 0 0 0 581 332.16z"/><path fill="#fe733e" d="M171.17 687.76c12.53-5.1 9.98-10.2 9.98-12.74l-6.1-92.55-5.37-46.3-8.12-289.07c0-68.6 50.73-132.72 127.3-132.72s130.76 61.71 130.88 132.77c-2.2 137.24-5.9 189.47-11.07 288.02-.63 13.47-2.38 33.86-2.96 46.32-2.88 61.66-6.14 91.87-6.14 93.53 0 2.55-2.54 7.64 9.98 12.74s41.46 11.71 41.46 13.33c0 1.6-48.89 0-48.89 0-28.02 0-28.02-20.98-28.02-26.07 0-5.1-7.64-92.6-7.64-92.6l-2.55 112.99c0 5.1 2.55 12.74 20.38 17.84 0 0 38.91 5.89 38.91 8.01 0 2.13-46.55 0-46.55 0-35.45 0-35.45-20.75-35.45-20.75l-7.64-92.6S331 700.5 331 713.24c0 9.99 1.73 17.63 29.54 22.73 13.43 3.73 40.54 8.35 40.54 10.2s-61.86 0-61.86 0c-33.11-2.55-36.24-25.5-36.24-25.5l-12.55-46.14-12.5 46.15s-5.09 22.94-38.2 25.49c0 0-56.17 1.85-56.17 0s22.5-5.99 36.81-10.2c19.36-5.69 29.55-12.74 29.55-22.73 0-12.74-2.55-105.35-2.55-105.35l-7.64 92.6s0 22.74-35.45 22.74c0 0-50.5.15-50.5-1.98 0-2.12 42.64-8 42.64-8 17.83-5.1 20.38-12.75 20.38-17.85l-2.55-113s-7.64 87.5-7.64 92.6 0 28.05-28.02 28.05c0 0-47.13-2.33-47.13-3.95 0-1.6 27.18-6.25 39.7-11.35z"/><path fill="#fe6446" d="M169.68 536.16s-5.23 12.8-17.05 19.7c-11.81 6.9-25.51 9.14-38.4 10.84 0 0 17.72 8.87 39.39 6.9 13.58-1.1 19.28 2.36 21.42 8.87l-5.36-46.3zm238.99-.99s7.63 12.8 19.45 19.7 25.51 9.15 38.4 10.85c0 0-17.72 8.87-39.38 6.9-13.58-1.1-19.29 2.35-21.43 8.87z"/><path fill="#fe6446" d="m408.81 533 .99-16.02c-62.56 29.54-120.7 26.43-120.7 26.43s-58.49 2.45-119.92-26.57l.4 15.57s43.82 26.94 119.52 26.94S408.81 533 408.81 533" opacity=".3"/><path fill="#fea777" d="M238.78 194.25a17.84 17.84 0 0 0 18.257-17.84 17.84 17.84 0 1 0-18.257 17.84" opacity=".5"/><path fill="#fe6b3c" d="M419.5 249.06s1.88-22.34-7.88-48.94c-26.77-73.01-92.56-87.71-128.02-85.64 0 0 50.28 23.76 52.61 99.8 1.06 33.72 1.06 34.78 1.06 34.78z"/><path fill="#fff" d="M336.76 437.61c0 28.31-18.83 43.36-49.29 43.36-30.45 0-47.2-17.84-47.2-43.36 0 0 16.75 23.65 47.2 23.65 30.46 0 49.3-23.65 49.3-23.65z"/><path fill="#fff" d="M336.76 437.61c0 28.31-18.83 43.36-49.29 43.36-30.45 0-47.2-17.84-47.2-43.36 0 0 16.75 23.65 47.2 23.65 30.46 0 49.3-23.65 49.3-23.65z"/><path fill="#fff" d="M336.76 437.61c0 28.31-11.39 72.92-49.29 72.92s-47.2-47.4-47.2-72.92c0 0 0 43.36 47.2 43.36 51.62 0 49.3-43.36 49.3-43.36z"/><path fill="#070909" d="M336.76 437.61c0 28.31-11.39 72.92-49.29 72.92s-47.2-47.4-47.2-72.92c0 0 0 43.36 47.2 43.36 51.62 0 49.3-43.36 49.3-43.36z"/><path fill="#fe6446" d="M197.93 394.25a77.82 77.82 0 0 0 71.887-48.065 77.8 77.8 0 0 0 5.913-29.785c0-43-34.83-77.85-77.8-77.85a77.82 77.82 0 0 0-71.887 48.065 77.8 77.8 0 0 0-5.913 29.785c0 43 34.84 77.85 77.8 77.85"/><path fill="#fff" d="M197.73 378.32a60.94 60.94 0 0 0 60.92-60.96 60.94 60.94 0 0 0-60.92-60.97 60.945 60.945 0 0 0-60.92 60.97 60.93 60.93 0 0 0 17.835 43.097 60.93 60.93 0 0 0 43.085 17.863"/><path fill="#090b0b" d="M195.96 325.27a18.73 18.73 0 0 0 13.236-5.486 18.73 18.73 0 0 0 5.479-13.239 18.73 18.73 0 0 0-5.487-13.236 18.72 18.72 0 0 0-13.238-5.479 18.72 18.72 0 0 0-18.715 18.725 18.72 18.72 0 0 0 18.725 18.715"/><path fill="#fe6446" d="M381.1 394.25a77.83 77.83 0 0 0 55.018-22.814A77.8 77.8 0 0 0 458.89 316.4c0-43-34.83-77.85-77.8-77.85a77.83 77.83 0 0 0-55.018 22.814A77.8 77.8 0 0 0 303.3 316.4c0 43 34.83 77.85 77.8 77.85"/><path fill="#fff" d="M378 378.21a60.93 60.93 0 0 0 56.298-37.635 60.9 60.9 0 0 0 4.632-23.325 60.93 60.93 0 0 0-17.838-43.1A60.93 60.93 0 0 0 378 256.29a60.94 60.94 0 0 0-60.92 60.96 60.93 60.93 0 0 0 17.835 43.097A60.93 60.93 0 0 0 378 378.21"/><path fill="#090b0b" d="M379.13 325.27a18.72 18.72 0 1 0-.02-37.44 18.73 18.73 0 0 0-13.236 5.487 18.715 18.715 0 0 0-4.052 20.401 18.72 18.72 0 0 0 17.298 11.552z"/></g><defs><clipPath id="a"><path fill="#fff" d="M0 0h581v747H0z"/></clipPath></defs></svg>