<svg width="500" height="500" viewBox="0 0 500 500" xmlns="http://www.w3.org/2000/svg" xmlns:xlink="http://www.w3.org/1999/xlink"><defs><ellipse id="e" cx="136.385" cy="119.003" rx="136.259" ry="118.929"/><circle id="c" cx="198.803" cy="120.916" r="120.695"/><path d="M112.611 65.645c-25.78 34.625-51.323 37.478-76.628 8.56-18.133-16.97-12.128-38.584-3.356-54.697 4.728-8.282 3.54-14.22-3.563-17.813-8.07-3.687-15.223.27-21.459 11.869-9.353 17.398-11.818 44.825 5.176 68.52 16.994 23.694 52.972 46.48 83.241 31.822 20.18-9.773 31.603-22.2 34.271-37.283" id="a"/></defs><g fill="none" fill-rule="evenodd"><g transform="translate(35.5 170.531)"><g transform="translate(0 45.615)"><g transform="translate(0 24.744)"><mask id="b" fill="#fff"><use xlink:href="#a"/></mask><use stroke="#3C2E53" stroke-width="2" fill="#F7CD88" fill-rule="nonzero" xlink:href="#a"/><ellipse fill="#FFF" fill-rule="nonzero" mask="url(#b)" cx="8.757" cy="15.136" rx="43.029" ry="48.408"/></g><path d="M112.611 90.389c-25.78 34.625-51.323 37.478-76.628 8.56-18.133-16.97-12.128-38.584-3.356-54.697 4.728-8.282 3.54-14.22-3.563-17.813-8.07-3.687-15.223.27-21.459 11.869-9.353 17.398-11.818 44.825 5.176 68.52 16.994 23.694 52.972 46.48 83.241 31.822 20.18-9.773 31.603-22.2 34.271-37.283" stroke="#3C2E53" stroke-width="9"/><rect stroke="#3C2E53" stroke-width="9" fill="#F7CD88" fill-rule="nonzero" x="128.002" y="164.859" width="30.443" height="112.916" rx="15.222"/><rect stroke="#3C2E53" stroke-width="9" fill="#F7CD88" fill-rule="nonzero" x="242.746" y="164.859" width="30.443" height="112.916" rx="15.222"/><mask id="d" fill="#fff"><use xlink:href="#c"/></mask><use fill="#F7CD88" fill-rule="nonzero" xlink:href="#c"/><ellipse fill="#FFF" fill-rule="nonzero" mask="url(#d)" cx="211.978" cy="149.965" rx="80.065" ry="84.068"/></g><circle stroke="#3C2E53" stroke-width="9" cx="198.803" cy="166.531" r="116.195"/><path d="M282.751 94.258c39.615-22.812 65.18-42.755 76.7-59.829 17.276-25.61 25.528-32.909 36.1-29.796 14.389 6.855 15.3 17.879 1.77 38.307-3.666 5.534-7.807 11.812-13.183 18.717-14.462 18.58-37.849 41.696-84.881 67.073m-176.949 1.14c-25.097 13.635-35.4 33.187-30.91 58.655 4.489 25.468-.101 40.19-13.771 44.167-13.434-.502-21.18-11.473-23.24-32.908-3.088-32.154 4.525-78.868 56.804-110.324" stroke="#3C2E53" stroke-width="9" fill="#F7CD88" fill-rule="nonzero"/></g><g transform="translate(88.286 2)"><g transform="translate(5.667 59.471)"><mask id="f" fill="#fff"><use xlink:href="#e"/></mask><use fill="#F7CD88" fill-rule="nonzero" xlink:href="#e"/><ellipse fill="#FFF" fill-rule="nonzero" mask="url(#f)" cx="154.188" cy="206.182" rx="107.573" ry="69.922"/></g><ellipse stroke="#3C2E53" stroke-width="9" cx="142.052" cy="178.474" rx="131.759" ry="114.429"/><g fill="#3C2E53" fill-rule="nonzero"><path d="M166.174 209.422c1.998 6.667 11.456 11.715 22.821 11.715 9.999 0 18.521-3.907 21.786-9.386.256.853.39 1.731.39 2.63 0 7.92-10.392 14.342-23.21 14.342-12.819 0-23.21-6.421-23.21-14.343 0-1.742.503-3.412 1.423-4.957Z"/><path d="M163.397 209.422c-1.998 6.667-11.456 11.715-22.821 11.715-9.999 0-18.521-3.907-21.786-9.386a9.112 9.112 0 0 0-.39 2.63c0 7.92 10.392 14.342 23.21 14.342 12.819 0 23.21-6.421 23.21-14.343 0-1.742-.503-3.412-1.423-4.957Z"/><path d="M154.728 193.23h20.086l-10.043 20.905z"/></g><g transform="translate(98.311 139.03)" fill-rule="nonzero"><circle fill="#FFF" cx="21.771" cy="21.977" r="21.515"/><circle fill="#FFF" cx="104.244" cy="21.977" r="21.515"/><ellipse fill="#3C2E53" cx="22.997" cy="21.977" rx="7.172" ry="14.343"/><ellipse fill="#3C2E53" cx="105.469" cy="21.977" rx="7.172" ry="14.343"/></g><g fill-rule="nonzero"><path d="m182.426 75.414-21.658-62.372c-36.67-11.48-71.19-1.75-103.56 29.19l-1.034 59.232c24.504 6.493 66.588-2.19 126.252-26.05Z" fill="#FFF"/><path d="M179.667 67.285 159.141 7.883C121.164-4.937 85.99 4.12 53.62 35.06l-1.034 59.231c24.504 6.494 66.863-2.51 127.08-27.008Z" fill="#BB0048"/></g><g transform="translate(99.023 258.907)" fill="#BB0048" fill-rule="nonzero"><path d="M.773.58v61.483L120.123.579v61.484z"/><circle stroke="#BB0048" cx="60.448" cy="31.321" r="11.976"/></g><path d="m260.286 169.003 29.524-6.473m-33.43 34.55 30.165 1.916M24.779 209.857.985 212.121m23.141-28.352-20.238-1.796" stroke="#3C2E53" stroke-linecap="round" stroke-width="9"/></g><g fill-rule="nonzero"><path d="M151.651 98.399 112.689 66.04l-6.378 72.912 45.34-40.553Z" stroke="#3C2E53" stroke-width="9" stroke-linecap="square"/><path fill="#F7CD88" d="m155.006 105.967-38.403-31.896-6.288 71.868z"/></g><g fill-rule="nonzero"><path stroke="#3C2E53" stroke-width="9" d="m268.915 71.877 41.036-28.427v43.457z"/><path fill="#F7CD88" d="m265.082 79.482 41.455-28.719v72.879z"/></g><path fill="#D67D54" fill-rule="nonzero" d="m124.17 93.099 31.661 24.521-33.15 23.484zm151.463-9.359 23.78 16.116V64.542z"/></g></svg>