<svg xmlns="http://www.w3.org/2000/svg" viewBox="0 0 2243.2 2220.1" xmlns:v="https://vecta.io/nano"> <style> <![CDATA[ .Bd { fill: #fff } .Be { fill: #fff } .Bf { fill: #fff } .Bg { fill: #fff } .Bh { fill: #fff } .Bi { fill: #fff } .Bj { fill: #fff } .Bk { fill: #fff } .Bl { fill: #fff } .Bm { fill: #fff } .Bn { fill: #fff } .Bo { fill: #fff } .Bp { fill: #fff } .Bq { fill: #fff } .Br { fill: #fff } .Bs { fill: #e9f1ed } .Bt { fill: #cfe1d7 } ]]> </style> <path d="M2152.2 1569.4l26.8 67.6 20.4 50.9c9.7 22.6-5.4 42.6-28.1 42.9-22.6.2-45.2 2.4-67.9 3.8-6.1.4-6.4.5-5.7 7.3l7.2 68.6c.3 2.6.7 5.3.8 7.9.5 16.4-10.6 28.9-26.9 30.1l-59.9 3.8-192.6 11.7-101.8 6.1c-4.9.3-8.8 1.5-12.6 4.7-9.7 8.1-19.7 15.8-30.5 24.4l9.4 5.6c31.6 18.7 62.2 38.7 89.1 64 18.5 17.5 33 37.5 38.7 62.8 7.5 33.6.3 63.4-23.8 88.5-4.6 4.9-9.9 9.2-16 11.8-6 2.6-8.1 6.3-8.8 12.7-4.5 38.5-34.5 68.3-73 74-24.6 3.6-47.7-1.1-69.9-11.5-31.1-14.5-57.9-35.5-83.4-58-42.3-37.5-80.3-78.9-115.4-123.1-4.8-6-8.8-7.7-16.6-6-47.3 10.4-95.3 15.2-143.8 14.8-25-.2-50 0-75-.2-28.4-.3-56.6-2.8-84.5-7.7-6.5-1.1-10.2.8-14.2 5.8-37.1 45.5-76.9 88.6-121.9 126.6-21.2 17.9-43.4 34.3-68.4 46.5-22.9 11.2-46.8 16.7-72.6 13-39-5.7-68.9-35.5-73.6-74.6-.6-5.2-1.9-8.7-7.3-11.6-24.4-12.9-37.6-34.2-42.4-60.8-6.2-34.7 5.4-64.3 27.8-90.3 11.1-12.9 24.1-23.9 37.6-34.4 12.6-9.8 25.9-18.8 39.3-27.4 2.8-1.8 6-3 8.3-6.3-113.7-78.9-197.7-182.1-251.5-310.3-16.4 7.5-32.4 14.7-48.9 20.7-44.8 16.2-90.3 29.9-137.4 37.7-21 3.5-41.9 3.1-61.9-5.1-19.4-8-34-20.8-39.9-41.8-3.2-11.5-2.8-23.1.9-34.4 1.3-4 1.1-6.7-1.9-9.7-3.1-3-6.1-6.7-7-10.8-1.7-8.3-7.9-9.4-14.5-10.8-48.8-10.2-95.6-25.9-139.4-50.1-30-16.6-57.2-36.7-79.4-63.1-25.6-30.3-40.8-64.6-40-104.9.7-32 12-60.5 30.5-86.2 16.8-23.3 37.8-42.1 61.5-58 5.1-3.4 7.8-7.1 8.3-13.5 1.1-13.6 3.4-27.1 5-40.6.6-4.9 1.2-10 .9-14.9-.6-11.9 1.9-23.1 6.1-34.1l37.6-97.8c9.7-26.1 28.1-42.7 54.2-50.4l166.9-47.9c20-5.6 40.1-5.3 60.1.6l86 24.5c1.6-3.7.9-7.3.9-10.7l.2-193c2-119.6 33.1-231.4 93-335 1.8-3.1 4.5-5.9 4.7-10.1-15.7-5.3-31.2-11.2-45.8-19.2-48.1-26.1-84.2-63.5-106.7-113.7-21.5-48.1-19.8-95 6.5-140.8C503.3 32 553.6 1.4 620.4.9 713.6.1 782 42.8 827.6 123.2c2.6 4.6 5 9.3 7.3 13.8 3.4.5 5.3-1.8 7.5-3.1 74.7-47 155.4-78.5 242.1-94.7 38.1-7.1 76.5-11.1 115.2-11.2l92 .3c130.4 3.5 250 41.7 359.2 112.7l8.3 5.4c3.1-2.3 3.7-5.8 5.1-8.7 24.1-49.8 58.6-89.7 108.9-114.2 43.4-21.2 89.5-28.7 137.1-20.1 60.8 11 102 47.3 127.3 102.9 17.8 39 17 78.2.9 117.3-27.1 66.1-75.7 109.8-141.9 135-8 3-16.1 5.5-25.1 8.5 15.5 12.2 29.7 24.3 42.4 37.9 47.4 50.7 76.2 110.4 85.4 179.2 8.7 65.4-1.7 128.1-31.3 187.3-2.7 5.5-4.1 10.9-4.1 17.1l.1 493c0 12.1-1.3 10.6 10.5 11.2l47.9 2.6c14.6.7 24.2 7.8 29.2 21.5 3.6 10 8.1 19.7 11.7 29.7 1.7 4.7 3.9 5.9 8.8 5.2 22.1-3.2 44.4-4.1 66.8-3.3 13.4.5 26.6 2.2 39.4 6.1 29.8 9.2 51.3 27.8 61.3 57.9 4.9 14.6 4.5 29.6-1.3 44.1-1.9 4.8-2.3 9.2-.8 14.4 4.9 17.3 1.6 33.8-6.9 49.2-14.5 26.3-37.7 40.5-66.6 46.2-3.7.9-7.7 1.1-11.8 3z" /> <path d="M1749.5 311c-20-3.3-40.1-6.5-60.5-7-72.7-1.9-139.1 17.5-198 60.1-75.3 54.5-119.7 128.5-132.6 220.5-7.6 54.4-1 107.6 18.8 159.1 1 2.7 3 5.3 2.3 8.9-37.5 3.1-75.7-4.4-114.1 7.3 40.9-101.6 37.8-200.4-16.3-295.4-35.4-62.2-87.2-107.3-153.1-135.2-130.4-55.2-283.5-20.2-376.3 92.6-90.4 109.9-98.2 266.9-18.2 385.4 44.4 65.8 105.1 109.8 181.6 131.1 76 21.2 150.2 14.3 223.3-18-1.7 6.9-3.4 12.5-4.4 18.3-7.9 44.4 13.7 84.9 55.1 103.6 14.7 6.7 30.2 10.3 46.4 11 8.8.4 8.2.5 8.2 8.5v48c-.3 43.5 29.3 84 73.6 95.7 8.7 2.3 17.6 3.3 26.7 3.3l82 .1c50.2 1.2 100.6-37.8 101.4-100.3v-46c0-9 .1-8.9 8.6-10.4 24.3-4.1 46.1-13.4 63.4-31.4 20.9-21.7 29.8-47.6 25.2-77.7-.1-.9 0-1.9 0-3.8 119.1 28.3 223.8 1.2 314.6-82.3v447.2c-3.3-.7-3.7-4-4.9-6.3l-58.3-109.3c-8.7-16.6-21.1-28.1-39.6-32.3-3.1-.7-5.3-2.5-7.8-4.3-14.9-11-31.3-14.2-49.2-9.5l-65.6 17.6c-4.9 1.3-8.5 2-12.4-3.7-8.1-11.6-22-14.1-35.7-7.6l-56.5 27.8-123.6 61c-4.9 2.4-9.8 3.7-15.3 3.7l-111 .4c-6.5.1-12.3-1.3-18.2-4.2l-174.7-86.1c-6.6-3.2-13.2-6.6-20.8-6.1-16.9 1.3-28.5 15.6-26.1 32.5.8 5.8 2.4 11.5 3.9 18.5L1052 1186l-106-28.6c-28.1-8.2-56.8 4.2-69.9 30-13.4 26.4-27.8 52.4-41.7 78.5-1.5 2.8-3.2 5.6-5.8 10.2-.8-7.7-.5-13.5-2-19.2-6.5-25.3-27.5-42.4-53.5-43-9.7-.2-20.1 2-28.7-1-8.3-2.8-14.7-11-22-16.8-2.1-1.7-4-3.7-6.4-4.7-12.7-5.7-17.3-15.6-17.6-29.2-.3-17.6-4.8-35-4-52.7.4-8.8-2.3-17.1-5.5-25.2l-37.3-97.9c-9.9-26.9-29-43.2-55.6-51.7-5.4-1.7-10.9-3.1-16.3-4.6-3.3-.9-5-2.8-4.7-6.5.2-2.3 0-4.7 0-7l.1-198C577 547.5 637.6 400 756.4 277.1c85.4-88.5 188.7-146.7 308.3-175.5 46.2-11.1 93-16.8 140.5-17l81 .1c144.5 4.1 272.9 51.9 385.4 142.4 30.2 24.3 58 51 82.6 81 .2 4.1-2.2 3.6-4.7 2.9z" fill="#fff" /> <path d="M1678.6 893.6c-148.4-.4-267.6-120.4-266.1-269.6 1.5-148.6 123-264.1 267.2-263.5 147.5.6 267.1 120.9 265.8 268.1-1.3 149.3-122.1 265.1-266.9 265zm-708.5 0c-146.8.4-266.4-118.9-266.7-266C703 480.5 821.6 361.2 969 360.5c145.9-.7 266 118.7 267.4 263.5 1.4 144.2-114.5 269.1-266.3 269.6z" class="Be" /> <path d="M400.3 1216.4c-28.3 0-56.6-.2-84.9.1-14.2.1-26.4-3.6-37.9-12.4l-101.7-75.8c-1.9-1.4-3.8-2.8-5.5-4.3-7.2-6.2-8.5-10.3-5-19.4L204 1004c3.3-8.7 10.2-12.7 18.6-15.1l62.3-17.9 94-26.9c14.2-4.3 27.8-4.4 42.1-.2l149.6 42.7 9.6 2.8c9.2 2.8 15 8.4 18.5 17.8l36.7 96c4.4 11.5 3.5 14.7-6.4 22.1l-109.7 81.9c-9.3 7-19.8 9.1-31 9.1l-88 .1zm-244-30.3c4.2.6 6.6 3.5 9.5 5.7l84.2 62.5c16 11.9 34.1 18.2 53.9 18.3h192.9c20.5-.1 39.1-6.8 55.7-19.3l84.9-63.2c1.6-1.2 2.9-2.8 5.7-3 3.8 7.7 2.8 16.5 3.9 24.8 2.8 20.8 4.6 41.7 7.3 62.4.7 5.4-1.1 8.5-4.9 11.9l-108.9 98.5c-8.9 8.1-18.8 11.9-30.7 11.9-73-.1-145.9-.1-218.9 0-11.5 0-21.2-3.6-29.9-11.5l-108.3-97.8c-6-5.3-8.6-10.7-7.4-19.2 3.5-24 6-48.2 8.9-72.3.6-3.1 1.4-6.4 2.1-9.7z" fill="#fff" /> <path d="M2007.7 1440.7l12.5 114.1 13.2 120.1 12.1 112.2c.7 6.5.6 6.7-6.1 7.1l-68.8 4.2-158.5 9.7c-9.5.6-19 .9-28.9 1.3.7-4.1 3.4-5.7 5.2-7.9 72.5-81.8 123.5-175.3 151.9-281 1.7-6.2 4.2-10.6 10.4-13.1 5.9-2.4 10.9-6.6 14.8-11.7 13.3-17.4 27.3-34.5 39-53.1.3-.8.8-1.5 1.4-2.1h0c.7-.8 1.3-.7 1.8.2zM86.4 1265.6c.3 17.6 3.9 33.2 13.3 47.4 3.7 5.6 8.1 10.5 13.1 15l111.3 100.5c18.1 16.6 39.3 24.7 63.6 24.7h226c24.3-.1 45.4-8.5 63.5-25L690 1326.4c18.4-16.6 24.1-33.5 20.5-62.4 2.9-.7 3.9 1.8 5.2 3.4 15.2 17.5 26.2 37 28.1 60.5 1.6 20-4.3 38.2-14.7 55-10.7 17.2-24.8 31.2-40.8 43.5-34.6 26.5-73.8 43.7-115.2 56-69 20.5-139.6 27.2-211.4 22.9-53.8-3.2-106.4-12.5-157.2-30.6-30.9-11-60.2-25.1-86.8-44.5-15.7-11.4-29.9-24.5-41.3-40.4-26.1-36.5-26.2-74.6-.2-111.2 3.1-4.5 6.8-8.7 10.2-13z" class="Be" /> <path d="M1814.4 290.2l11.3-7.2c12.7-8.2 24.4-17.5 33.4-29.8 14.7-20.3 15.2-42.3 1.4-63.3-5.7-8.7-12.5-16.4-20.9-22.6-16.2-11.9-33.8-11.8-49.8.2-8.4 6.3-14.9 14.3-20.8 22.8-6.5 9.3-11.8 19.3-17.4 29.3-3.1 0-4.4-2.6-6.3-4.2l-33.1-29c-2.6-2.2-5-3.9-3.2-8.2 20.8-52.2 54-92.4 108.6-111.4 27.1-9.4 55.2-12.9 83.7-7.3 43.8 8.7 71.3 36.2 87.2 77 6.7 17.2 7.1 34.2 2.2 51.8-9.3 33.2-28 60.2-53.8 82.4-28.2 24.3-61.2 38.4-97.7 44.9-2.8.5-5.1.9-7.1-1.8l-17.7-23.6zM743.5 209.3c-3.9-3.2-5.3-7.4-7.6-10.9-6.8-10.7-14.1-21-24-29.2-17.4-14.3-36-14.5-53.7-.6-9 7.1-16.4 15.7-21.9 25.7-10.2 18.5-9.8 36.9 1.4 54.9 6.4 10.3 15.1 18.6 24.7 25.9 3.4 2.6 6.9 5.1 11.1 8.2l-21 27.6c-2.1 2.8-4.6 2.1-7.2 1.6-64.1-11.4-124.7-69-138-131.3-2.8-12.9-2.6-25.7 1.7-38.4 13.6-40.4 38.6-69.6 80.7-81.3 24.9-6.9 50.1-5.4 75.1.4 52.9 12.2 89.5 44.9 114.6 91.7 2.5 4.7 4.5 9.7 6.9 14.4 1.5 2.9 1 4.8-1.6 6.8-14.2 10.8-27.7 22.6-41.2 34.5z" fill="#fff" /> <path d="M1639.8 2014.8c21.2 20.3 40.4 42.4 57 66.7 8.5 12.4 13.5 25.9 16.6 40.3.8 3.9 1 8 .8 11.9-.5 15.8-10.6 26.9-26.3 28.9-9.7 1.2-19.2.2-28.5-3.3-13.2-5-25.2-12.1-36.7-20-31.5-21.6-58.9-47.8-85.4-75-15.8-16.2-31-33.1-45.6-50.3-8.6-10.1-7.9-12.9 4.4-17.3 39.5-14.2 77.8-31 114.4-51.7 1.7-1 3.7-1.7 5.2-3 8.3-7.5 15.8-5.5 24.9-.3 30.4 17.3 60.5 35.1 87.6 57.4 10 8.3 19.7 17 27.2 27.8 7.1 10.2 10.4 21.5 8.9 34-.8 6.1-3.1 11.5-6.7 16.4-2.4 3.2-4.2 4.1-7.7.7-31.1-29.7-68.1-49.5-107.7-65.2-2.6-1.2-3.1-.2-2.4 2zm-753.9-2.3c-39.3 15.6-76 35.4-107.2 64.5-4.6 4.3-5.2 4.3-8.9-.9-7.3-10.3-7.8-21.7-4.8-33.5 2.8-10.6 9.1-19.2 16.5-27 9.7-10.2 20.5-19 31.7-27.4 18.2-13.6 37.4-25.5 56.9-37 4.5-2.7 8-3 12.8-.4 47.3 25.5 96.9 45.7 148.7 60 1.6.4 3.2.8 4.4 3.1l-16.1 18.5c-29.6 33.1-60.5 64.8-95.4 92.4-15.2 12-31 23.1-48.6 31.3-10.7 5-21.9 7.8-33.9 6.7-17.7-1.7-28.9-13.3-28.4-31 .5-15.5 4.9-30.1 13.1-43.4 14.9-23.9 32.8-45.3 52.7-65.1l8.5-8.4c1-2.3.5-3.3-2-2.4z" class="Bi" /> <path d="M1353.1 1664.4l-96.2-248.7c19.6-7.1 38.6-13.2 56.9-20.9 22.2-9.4 44.9-12.3 69-12.2 22.7 0 44.3 2.3 64.9 12 2.4 1.1 4.9 1.9 8.6 3.2l-103.2 266.6z" class="Be" /> <path d="M1482.7 996.9c-11.2.2-21.6-1.9-31.7-5.5l-43.2-15.5c-40.4-14.6-80.9-13.5-121.4-.2-14.8 4.9-29.4 10.7-44.1 15.8-19.1 6.7-38.5 7.9-57.7.8-15.3-5.7-26.2-15.9-27.5-33.3-.7-9.6 2.4-18.4 7.5-26.5 10-15.7 24.1-26.5 41.1-33.5 6.5-2.7 13.2-4.6 19.7-7.2 4.1-1.7 7.2-1.4 10.9 1.5 20.6 16.5 44.4 23.5 70.5 23.4h80.9c25.8 0 49.3-7 69.7-23.1 3.1-2.4 5.8-4.1 9.9-2.4 9.5 4 19.5 6.6 28.7 11.4 14.8 7.7 27.1 18.1 35.1 33 12.4 23.3 4.7 45.2-19.5 55.9-9.4 4-19.2 5.6-28.9 5.4z" class="Bi" /> <path d="M1137.6 1568.8c-12-17.6-22-36.5-32.7-54.8-8.4-14.3-17.5-28.3-24.7-43.3 17.5-7.3 36.3-10.6 54.1-16.8 10.6-3.7 22.3-4.6 31.8-11.3 13.1 2.5 24.6-3.4 36.9-7.1 5.5 10.6 8.8 21.7 13.1 32.5l23 59.3c1.2 3.1 2 6.3 3 9.4 2.2 6.4-2.6 8.5-6.9 9.7-29.3 8.1-58.2 17.8-87.8 25.2-3.9.9-7.2.4-9.8-2.8z" class="Bj" /> <path d="M2097.3 1463.2c24.6 20.9 52.1 30.4 84.7 25.3-2 9.9-8.6 14.2-15.6 18.1-6.5 3.6-13.9 4.5-21.1 5.5-21.9 2.9-43.8 2-65.7.1-5.1-.4-7.2-2.4-7.7-7.9l-9.3-86.3c-.8-7.4-.8-7.8 6.9-8.6 26.1-3 52.2-6.3 78.6-2.8 6 .8 11.8 1.9 17.5 3.9 6.5 2.3 12 6 15.9 11.5 5.8 8.1 8 13.8-3 20.4-7.1 4.3-13.9 9.1-21.2 13.1-12.9 7.1-26.2 10.8-41.2 8-6-1.2-12.3-.3-18.8-.3z" class="Bi" /> <path d="M1482 1490.6c4.8-15.9 11.6-31.1 17.4-46.6l8-20.4c2.7-6.6 2.8-6.6 9.2-4.3l55.2 20.2c4.4 1.6 8.6 3.3 13.4 3.5 15.1.7 25.5-6.6 30-20.9.8-2.5.3-5.4 2.5-7.4 5.6-.6 9 3.1 12.7 6.3-6.7 14.5-15.5 27.8-23.6 41.6-10.2 17.5-19.8 35.3-31.1 52.2-.6.8-1.4 1.3-1.8 2.2l.1-.1c-3.1 4.4-7.3 4.1-11.6 2.8l-70.9-20.7c-3.8-1.4-9.3-2.1-9.5-8.4z" fill="#fff" /> <path d="M1339.4 1087.6l.1 58c.1 5.1-1.4 7.2-6.8 6.9-7.3-.4-14.7.1-22-.2-24.2-.9-41.9-18.7-42.4-42.9-.4-20.3-.1-40.7-.2-61 0-3.2.1-5.9 3.8-7.1 19.2-6.3 37.6-15.3 58-18 1-.1 2-.2 3-.4 4.6-.9 6.8.5 6.5 5.7-.3 7.7-.1 15.3-.1 23l.1 36z" class="Be" /> <path d="M971.5 1284.7c-9.5-13.3-16.6-27.9-25.2-41.7-4.7-7.6-9.1-15.5-13.6-23.3-1.1-1.9-2.7-3.7-2-7.2l34.7 9.1 128.9 34.7c14 3.8 14 3.7 15.9 18.3-9.4 6.2-20.5 7.2-30.9 10.4l-81.3 23.6c-4.1 1.1-8.2 3.3-12.4.3h.1c-.5-.8-1.1-1.5-1.7-2.2-.4-.3-.5-.8-.4-1.3-.2-1.2-.9-2-1.8-2.8h0c-1.1-1.1-.7-3-2.2-4l.1.1c-1-1.2-.6-3.2-2.2-4.1l.2.1c-.4-.9-1.2-1.5-1.8-2.3v-.1c-1.2-1-.8-2.9-2.2-3.9l.1.1c-.9-.9-.6-2.9-2.3-3.8z" fill="#fff" /> <path d="M1368.5 1024.6c4.9-.9 9.3.9 13.6 2.4l50.7 18.1c4.7 1.6 5.7 4.3 5.7 8.8l-.2 55.9c-.4 23.7-17.7 41.3-41.5 42.6-7.6.4-15.3-.2-22.9.2-4.9.2-6.5-1.4-6.2-6.2.3-6 .1-12 .1-18v-93.8c-.1-3.5-.9-6.8.7-10z" class="Be" /> <path d="M1118.2 1306.3c6.4 21.1 11.8 42.5 15.9 64.2 1.6 1.7.2 4.3 1.7 6.1.3.6.4 1.3.3 1.9.8 4.4-2.5 6-5.6 6.9-27.4 8.5-55 16.4-82.7 23.9-1.3.4-2.6 0-3.8-.6h0c-1.1-1.1-.7-3.1-2.2-4l.1.1c-1-1.2-.6-3.2-2.2-4.1l.2.1c-.4-.9-1.2-1.5-1.8-2.3h0c-1.2-1-.8-3-2.2-3.9l.1.1c-1-1.2-.7-3.2-2.4-4-10.2-15.5-19.6-31.5-28-48l97.4-27.9c5.8-1.7 10.9-4.1 15.2-8.5z" fill="#fff" /> <path d="M1648 1292.6c2.1-15.8 7.4-31 10.7-46.5 1.2-5.8 2.9-11.6 4.4-17.4.8-2.9 1.7-5.3 5.4-6.2l89.6-23.5c.2-.1.6.2 1 .4 1.6 2.1-.3 3.7-1.2 5.2l-61.9 105.9c-.5.8-1.3 1.5-2 2.2-3 2.3-6.3 1.8-9.5.9-10.2-2.8-20.4-5.5-30.4-9-6.1-2.2-9-5.6-6.1-12z" fill="#fff" /> <path d="M1043.9 1408.7c19.9-7 40.3-12.3 60.5-18.1l25.5-7.6c2.7-.8 5-1.7 6.1-4.5 4.3 11.7 6.6 23.9 9.4 36 2.2 9.3 5.6 17.4 12.5 23.9.9 1.4 2.9 1 3.9 2.3h.1c1.2 1.1 2.9.8 4.1 1.8 1.9 3.6-.6 4.7-3.2 5.6l-26.4 8.1-43.6 12.6c-4.2 1.3-8.3 2.1-12.6 1.8v-.1c-1.2-1-.8-2.9-2.2-3.9v.1c-1.1-1.2-.7-3.1-2.2-4l.1.1c-.5-.8-1.1-1.5-1.7-2.2-.4-.4-.5-.8-.4-1.3-.2-1.2-1-2-1.8-2.7-10.2-15.5-19.5-31.4-28.1-47.9z" class="Bf" /> <path d="M1586 1300.7c-3.2 16.2-6.2 32.5-12.1 48-2.4 1.9-4.3.7-6.2-.9-1.7-2.2-1.8-4.9-2.6-7.4-.1-.4-.2-.8-.4-1.2-.2-.8-.4-1.6-.5-2.3s0-1.5 0-2.2c.1-.6.2-1.3.4-1.9-1-1.4-2.5-.1-3.6-.7-3.4-.9-6.5-2.4-9.3-4.4-1.4-1.5-2.7-1.2-4.1.2-11.2 6.7-11.2 6.7-14.8 18.7-1 2-3.4 2.3-4.8 3.8 1.9-2 3.9-1.4 6-.5 3.7 4.4 8.7 8.2 7.1 15.1-.4.9-1.1 1.6-2 2.1l-67.4-24.3c-15.6-5.6-15.6-5.5-9.6-20.9l10-26c1.3-3.5 3.3-6.2 6.9-8 14-6.8 28-13.8 42.4-19.7 5.6 1.9 12 1.4 16.7 5.8 1.6 2.3 2.1 5 1.1 7.6-.8 2.1-4.1 3.5 1 5.3 4.4 1.6 5.8 7 7.8 11.1 4.7-2.6 9.5-2.4 14.3-.5.6.2 1 .8 1.5.7 2.3-8.3 6.7-14.2 16-14.7 3.9 1.1 8.2 1.8 7.9 7.3-.1 1.3-.2 2.5-.4 3.8-1.1 1.8.4 4.4-1.3 6.1z" fill="#fff" /> <path d="M1838.2 1300.5c8.2 12.9 15.2 26.4 21.7 40.2 2.7 4.1.4 6.9-2.7 9.3l-70.1 54.5c-2.1 1.6-4.4 3.2-7.3 2.1h0c-.6-.9-1.4-1.5-2.4-1.9-8.1-3.4-14.6-9.2-21.6-14.4l-2-1.7h0c-.7-.7-1.3-1.4-2.1-1.9l.1.1c-.9-1.4-2.9-1-3.9-2.2h-.1c-.7-.6-1.3-1.3-2.1-1.9l.1.1c-.9-1.3-2.9-.9-3.8-2.2l-.1-.1-2.1-1.8h0c-2.5-8.2 4.5-11.1 9-14.6l58.1-45.2c6.8-5.2 13.3-11 20.4-15.8 3.4-2.2 6.5-5.3 10.9-2.6z" fill="#fff" /> <path d="M1246.1 1270.6c13.2 4.7 25.1 12.1 37.7 17.9 3.5 1.6 4.7 4.6 5.7 7.7l12.1 35.8c1.8 4.9.3 7-4.4 8.6l-73 26.4-1.2-.6c-1.3-1.4-2.1-3-2.4-4.8.4-5.8 4.7-8.6 8.7-11.7.4-.8 2.5.3 1.9-1-.4-.9-2-1.5-2.6-2.6-1.2-3.4-1.6-6.9-1.7-10.5 1.6-4.3-2.1-2.8-3.9-3.5-1.2-.5-.1.6-.9-.3-7.9-9.7-14.9-.4-22 1.4-3.9 1-.4 6.8-3 9.6-.8 1.8-1.8 3.6-3.6 4.6-2.1.9-4 .6-5.7-1-3.4-11.1-6.7-22.2-8.1-33.8-1.6-1.8 0-4.5-1.8-6.2-.2-.6-.2-1.2-.2-1.8-1.6-1.8 0-4.5-1.8-6.2-.2-.6-.2-1.2-.1-1.8-1.8-8.6 2.2-13.3 10.1-15.5 3.7-.7-.5 5.7 3.9 4.4 4 2.8 6.4 6.8 8.6 10.9.4.7-.6 1.5-.1 2 .3.3 1.1-.2 1.4-.8.7-.4 1.4-.7 2.2-.9 3.3-.6 6.5-.6 9.8-.1.8.2 1.5.5 2.1.8.3.5 1.1 1.1 1.3.9.5-.5-.2-1.3.1-2 2.2-4 4.6-7.7 8.1-10.6 3.6-3-1.7-5-1-7.6-.3-1.9-.2-3.7 1.1-5.3 7.9.6 14.9-4.7 22.7-2.4z" fill="#fff" /> <path d="M1838.2 1300.5c-7.5.8-12.1 6.6-17.6 10.7-17.2 12.9-33.9 26.3-50.8 39.5l-24 19.2c-2.7 2.3-5.9 4.6-5.9 8.8-14.1-7.8-13.9-7.7-5.9-21.2l58.9-100.4c3.6-6.1 6-13.2 12.2-18.1 4.2 4.5 6.2 9.9 8.7 14.8 8.2 15.6 18 30.3 24.4 46.7z" class="Bh" /> <path d="M542 1552.6c-23.3 12.3-48.2 20.8-73.1 28.9-31.3 10.1-63 18.9-95.6 24.2-9.6 1.6-19.2 1.9-28.6-1.2-9.3-3-10.4-5.6-5-13.4 6.6-9.6 15.1-17.7 22.7-26.5 2.4-2.8 5.5-1.9 8.4-1.9l41.9.3c39.7-.2 79-4.3 118-11.8 2.3-.4 4.6-.6 6.9-.8 2-.5 4.6-1.8 4.4 2.2z" class="Bi" /> <path d="M1290 1660.6c8.3 18.9 15.9 38 22.1 57.7 2.1 5.4-1.2 8.6-5.4 9.9-20.1 6.4-40.3 12.9-61 17.5-2 .4-3.9.2-5.6-1.1-11.2-18.4-22.9-36.5-32.3-55.9 20.8-7.8 42.6-12.4 63.7-19.1 6.6-2.1 13.5-3.6 18.5-9z" class="Bd" /> <path d="M1118.2 1306.3c.2 5.1-2 7.6-7.1 9l-80.8 23.3c-5.7 1.6-11.6 2.8-17.1 4.8-2.9 1-5.1.1-7.6-.6-7.4-10.8-14.3-22-19.7-33.9l35.5-9.7 81.2-23.6c2.5-.7 5.2-.7 7.9-1 3.6 10.2 6 20.9 7.7 31.7z" class="Bg" /> <path d="M1290 1660.6c.1 3.9-.8 6.8-5.4 8.1l-70.1 20.1c-2.3.7-4.5 1-6.7 0h.1c-.5-.7-1.1-1.4-1.7-2.1-8.6-13.7-17.2-27.4-24.3-42 1.3-4.1 4.8-5.2 8.3-6.3 27.2-8.4 54.6-15.7 81.8-24 4.5 8.2 7.5 17 10 25.9 1 1.3.6 3.1 1.8 4.3.3.5.4 1 .3 1.5.8 1.4.5 3.3 1.9 4.5v-.1c1 1.1.7 2.9 1.8 4 .3.5.4 1.1.3 1.7 1 1.4.6 3.3 1.9 4.4h0z" fill="#fff" /> <path d="M952.1 1366.6c.3.2.6.3.8.6 4 7.4 9.8 13.8 12.1 22.1-8 6.2-16.2 12.2-24.9 17.3-1 1.2-3 .7-3.9 2.2l.1-.1c-.9.5-1.5 1.2-2.1 2h0c-5.1 1-7.9-3-11.1-5.4l-61.2-47.4c-3.1-2.3-6.8-4.5-5.9-9.4v.1c1.4-1 1-2.9 2.1-4.1v.1c1.4-1 1-2.9 2.1-4.1 3.1-9.4 8.7-17.6 13.9-25.9 4.9-6.4 8.9-1.4 12.6 1.4l65.4 50.6z" fill="#fff" /> <path d="M1137.6 1568.8c5 2.7 9.7 0 14.4-1.2 27.3-6.8 53.8-16.5 81.1-23.1 4.2-1 8.6-2.3 8.9-7.9 6.2 13.6 11.8 27.5 16.1 41.8.8 5-3.2 6.3-6.5 7.3-27.2 8.8-54.7 16.2-82.2 24.1-3.9 1.1-7.2.5-9.6-3.1l.1.1c-.5-.7-1.1-1.4-1.6-2.1-.4-.4-.5-.9-.5-1.5-.3-1-1.1-1.8-1.8-2.6-6.8-10.2-13.2-20.7-18.4-31.8z" class="Bm" /> <path d="M1648 1292.6c-.6 4.9 1.1 7.8 6.2 9.3 13.2 3.8 26.1 8.6 39.7 10.8-8.1 16.8-18.5 32.2-27.7 48.4l-31.7 54.2c-1.2 2-2.1 4.2-4 5.6-5.8 1-8.5-4.1-12.7-6.3 2-14.8 6.7-28.9 10.1-43.4l18.1-74.2c.4-1.6.7-3.2 2-4.4z" fill="#fff" /> <path d="M1159.8 1606.7c2.7 1.2 5.2 1.9 8.5.9l78.9-23.2c3.9-1.2 8.8-1.2 10.8-6 5.8 11.6 10.3 23.6 14 36-3.4 6.2-10.2 5.9-15.5 7.5-22.1 6.7-44.4 12.6-66.5 19-2.8.8-5.4 2.5-8.1 3.7-1.1-1.2-.7-3.1-2.3-4-7.5-10.7-14.1-22-19.8-33.9z" class="Bk" /> <path d="M1417.9 1656.4c4-15.2 11.2-29.3 16.4-44.1.9-2.7 1.3-5.8 3.7-7.9 4.5 4.2 9.9 6.2 15.8 8l45 13.1c3.5 1 7.3 1.5 9.3 5.1-6.4 13.2-14.2 25.6-22.1 38-.6.8-1.4 1.3-1.8 2.2l.1-.1c-1.5.9-1.1 2.8-2.1 4l.1-.1c-1.4 1-1 2.9-2.1 4h0c-2.3.9-4.5.8-6.8.1-16-5.2-32.3-9.3-48.3-14.4-3.8-1.1-7.9-2.5-7.2-7.9z" class="Bd" /> <path d="M1417.9 1656.4c2.2 4.3 6.3 5.1 10.5 6.3 17.2 5.2 34.9 9.1 51.6 15.9-9.2 17.8-19.5 35-30.2 52-2.7 2.1-5.7 1.4-8.5.6-13.3-3.7-26.7-7.3-39.8-11.6-3-1-7.9-1.4-5.4-7 6.3-19 13.3-37.9 21.8-56.2z" class="Bl" /> <path d="M1482 1490.6c6.4 6 14.8 7 22.7 9.3l60.1 17.4c3.5 1.1 6.4.9 9.5-.6-4.2 10-9.7 19.2-16 27.9-1.4.9-1.1 2.9-2.2 3.9h0c-4 3-8.2 1.8-12.3.7-22-5.9-43.7-12.7-65.6-19-3.9-1.1-8.7-2-8.2-8 2.9-10.8 6.7-21.5 12-31.6z" class="Bm" /> <path d="M1240.1 1744.6c21.5-4.9 42.4-12.2 63.7-17.9 4.8-1.3 7.6-3.6 8.3-8.5 6.6 12.9 11.4 26.6 15.8 40.4 2.1 5.8-2.2 7.7-6.2 9-17.2 5.7-34.7 10.2-52.1 15.3-3 .9-5.9.7-7.9-2.2l.1.1c-.4-.9-1.3-1.4-1.8-2.2-7.2-10.9-13.9-22.2-19.9-34z" fill="#fff" /> <path d="M1396 1712.7c.2 2.9 2.1 3.5 4.6 4.1l49.2 13.8c-9.8 18.9-21.1 36.9-31.9 55.1-3.2 5.3-5.2 11.5-10.9 16.9l-7.1-17.8-13.8-35.2c-1.8-4.5-2.3-8.7.1-13.3 3.7-7.6 5.4-16.2 9.8-23.6z" fill="#fff" /> <path d="M2131.7 1676l-36.5 2.5c-4.2.3-4.8-2.1-5.2-5.5l-6-55.6-3.3-30.8c-.6-5.5-.9-11.1-1.3-16.7 11.5-.3 11.5-.3 15.2 8.9l34.3 86.2c1.3 3.3 3.7 6.4 2.8 11z" fill="#fff" /> <path d="M855.8 1348.5c2.8 5.7 8.5 8.3 13.1 11.9l65.1 50.3c-6.6 6.5-14.6 10.9-22.2 15.9-.9 1.3-2.9.8-3.8 2.2h.1c-4.6 1.1-7.5-2.1-10.6-4.5l-50.4-39.3c-3.2-2.6-7.7-4.8-5.2-10.4v.1c1.4-1 .9-2.9 2.1-4.1 2.3-8.3 7.2-15.1 11.8-22.1z" class="Bn" /> <path d="M1261.8 1780.7c1.9.6 3.6 1 5.8.3l53.1-15.7c3.6-1 7.2-1.9 7.3-6.7 5.3 12.3 11.1 24.4 14.2 37.5 2 5.1-1.2 7.7-5.1 9-15.3 5-30.9 9.3-46.5 13.4-3 .8-5.9 0-8.4-1.9-7.5-11.6-15-23.1-20.4-35.9z" fill="#fff" /> <path d="M1540.3 1575c-3.9 10.1-9.9 19-16 27.8-3.4 2.6-7 1.5-10.5.6-18.8-5.4-37.8-10.2-56.4-16.5-4-1.4-9.7-1.7-9.4-8.3 3.2-10.4 6.6-20.7 11.8-30.4 22.8 9.1 46.8 14.2 70.1 21.7 3.7 1.2 7.9 1.4 10.4 5.1z" fill="#fff" /> <path d="M1540.3 1575c-17-3.3-33.2-9.3-49.8-13.9l-23-6.4c-3.7-1-7.2-1.8-7.8-6.4 2.4-9 5.4-17.7 10-25.9 1.2 3.2 4 4 7 4.9l72.3 20.8c2.2.6 4.6.4 6.9.6-3.9 8.5-8.5 16.5-14 24-.6.8-1.5 1.2-1.8 2.2l.2.1z" class="Bk" /> <path d="M1447.9 1578.6c.9 1.9 2.2 3.3 4.2 3.9 23.9 7.3 47.7 15 72.1 20.3-2.2 6.7-6.2 12.3-10.3 17.9-.7.8-1.5 1.5-1.8 2.5 0 .6-.1 1.1-.4 1.5-.6.7-1.2 1.4-1.7 2.1l.1-.1c-1.4 1-1 2.9-2.1 4l-60.5-17.3c-4.6-1.3-10.2-1.9-9.6-8.9 2.5-9 5.5-17.8 10-25.9z" fill="#fff" /> <path d="M1282.2 1816.6c8.2 1.1 15.3-3.1 22.9-4.8 9.6-2.1 18.9-5.2 28.3-8 4-1.2 8.7-1.8 8.8-7.6 6.1 11.5 10.5 23.6 14 36.1 2 4.4-.5 7.5-4 8.7-15 5.1-29.9 10.5-45.6 12.9-1 .1-1.9-.6-2.7-1.1h.1l-1.8-2.1c-7.2-11.1-14.2-22.2-20-34.1z" fill="#fff" /> <path d="M952.1 1366.6c-3.6.4-6.1-1.4-8.8-3.5l-60.7-47.1c-3-2.4-5.4-3.3-8.7-1.4 5.7-15.3 15.4-28.3 22.4-44.6l36.8 62.9c6.4 11.1 13.7 21.9 19 33.7z" fill="#fff" /> <path d="M841.9 1374.6c.7 7.7 8 9.6 12.6 13.2 17.8 13.7 34.9 28.4 53.5 41-6.6 6.3-14.2 11.3-22.1 15.9-5.1 3-8.9-.2-12.5-2.9-14-10.5-27.8-21.5-41.6-32.3-2.8-2.2-6.3-4.3-3.8-8.9 3-9.6 8.6-17.7 13.9-26z" class="Bo" /> <path d="M1899.8 1402c12.7-12.2 27-22.6 40.6-33.7 3.8-3.1 6.9-7 11.4-8.9 2.8 2 1.8 4.5 1.8 6.7v44.9c0 3.6.5 7.4-3.3 9.8-.9.5-1.7 1.1-2.1 2.2h.2c-3.8 2.5-7.6 1.2-11.4.2-11.4-3-22.8-6.3-34-10.1-3.6-1.2-9.2-1.6-6.8-8.2l.1-.1c.8-1.3 3-1 3.5-2.8z" fill="#fff" /> <path d="M1303.8 1852.8l43.7-12.4c4.2-1.2 8.3-2.7 8.7-8.1 6.2 11.4 10.5 23.6 14 36.1.8 4.1-2.5 5.3-5.2 6.1-12.7 4-25.3 8.3-38.3 11.3-1.7.4-3.3-.1-4.7-1.2h0c-1.2-1-.8-2.9-2.1-3.9v.1c-1.1-1.2-.7-3.1-2.3-4-5.4-7.6-10.6-15.2-13.8-24z" fill="#fff" /> <path d="M1246.1 1270.6c-5.1 1.4-10.3 2.4-15.3 4.3-3.2 1.2-4.9-.6-7.1-2l-.5-.8-.1-.9.3-.9c.2-.5.5-.9.8-1.3 0 0 .1-.7 0-.7s-.7.3-.7.3c-1.1.9-2.4 1.3-3.8 1.4-5.7-1.9-11.4-3.9-12.8-8.6-1.7 5.7-7.7 6.9-13.2 8.6-.6-.1-1.1-.3-1.5-.7-.7 1.1.9 1.8.7 2.8-.3 3.7-.1 7.5-2.5 10.8-.9.5-1.8.5-2.6-.2-7.3 2-10.8 7.1-11.9 14.2-5.6-13.9-7.5-28.8-11.6-43.1-2.4-8.2-4.1-16.6-6-24.5 1.1-1.6 2.1-1.2 3-.8l81.7 39.9c1.1.4 2 1.4 3.1 2.2z" class="Bp" /> <path d="M1588.2 1290.9c-2.5-2.7-5.3-4.8-8.8-6-5.3 2.2-6.4-1.4-8.2-5.3-1.5-3.3 1.1-8.1-3.6-10.2-3.7-1.2-7.2-2.8-9.9-5.6-1.1-1.5-2.2-1.5-3.4 0-3 2.7-6.6 4-10.2 5.5-.8.9-5.8-3.6-2.9 2.4.7 1.4-.7 3-2.8 3-3.6-.3-6.8-2.5-10.5-2.2-2.9.2-4.9-1.6-6-4.3 15.1-9.1 31.3-16 46.9-24l34-16.9c.6 7.1-9.2 49.5-14.6 63.6z" fill="#fff" /> <path d="M827.9 1400.6c.1 2.1.8 3.8 2.5 5.2l44.8 34.4c3 2.3 6.1 5.4 10.7 4.5-4 4.5-8.9 6.4-14.9 6-3.6-.2-7.2 0-10.9.1-8.9 2.4-16.5.8-23.3-5.9-5.1-5-11.5-8.7-17.1-13.3-2.7-2.2-6.2-4.3-3.7-8.8 3.9-7.6 6.7-15.6 11.9-22.2z" fill="#fff" /> <path d="M1322.1 1884.6l38.7-11.3c3.4-1 7.1-1.6 9.4-4.9 6.1 9.6 8.3 20.9 13 31.2 1.5 3.2.1 5.2-3.5 5.2h-43c-2.7 0-4.3-1.4-5.5-3.6-3-5.6-6.9-10.6-9.1-16.6z" fill="#fff" /> <path d="M1350.6 1298.8h58.6c-.7 8.8-5.2 15.8-7.9 23.4-1.2 3.2-4.3 3.9-7.4 3.9H1365c-3.3 0-5.8-.9-6.9-4.4l-7.5-22.9z" fill="#fff" /> <path d="M1779.9 1406.7c19.5-13.6 37.8-28.8 56.5-43.5 6.8-5.3 13.8-10.2 20.3-15.8 2.3-2 3.4-3.8 3.2-6.7.8 1 1.8 1.9 2.4 3.1 5.5 9.8 5.5 9.8-3.4 17.1l-53 43.1c-2.6 2.1-4.9 4.5-7.2 6.8-5.8 5.7-5.8 5.7-12.8.9-2.2-1.4-4.8-2.4-6-5z" fill="#fff" /> <path d="M1896.1 1404.8c0 3.3 2.6 4.6 5.1 5.2 15.8 3.9 31 10.1 47.1 12.9-2.2 5.5-6.1 9.6-10 13.8-.9.5-1.7 1.1-2.2 2.1h.2c-3.4 2.4-7 1.4-10.5.4l-40-11.7c-3.6-1.1-8-1.9-8.1-7.2l.2.1c1.1-.4 1.6-1.3 2.1-2.3 4.3-5.5 10.3-9.2 16.1-13.3z" class="Bq" /> <path d="M1877.6 1420.4c5.1 5.4 12.4 5.6 19 7.4 13.3 3.6 26.1 8.9 39.8 11.2-2.1 5.5-6.1 9.6-10 13.8-2.5 3.5-5.7 2.2-9 1.4-15.8-3.9-31.2-9-46.8-13.7-3.8-1.1-8.8-1.9-8.5-7.8 4.5-4.8 9.4-9.4 15.5-12.3z" class="Br" /> <path d="M816 1422.7c0 3 2 4.5 4.2 6.2 8.1 6.2 16.9 11.5 24 18.9 4.6 4.8 10.6 2.1 16 2.9-1.2 1.2-2.8 1.7-4.5 1.8l-54.3 4.6c-.9.1-1.8-.1-2.9-.2.1-1.2-.2-2.4.2-3.1 6.4-10 10.3-21.4 17.3-31.1z" fill="#fff" /> <path d="M1862 1432.7c3.6 5.9 10.3 5.7 15.7 7.5 14.1 4.7 28.6 8.5 42.8 12.9 2.2.7 3.9.2 5.8-.3-.9 3.1-2.1 5.4-6.1 5l-76.1-7.7c-.2 0-.5-.4-1.3-1.2 5.6-6.5 12-11.8 19.2-16.2z" fill="#fff" /> <path d="M1187.9 1346.6h5.5c-2 3.8 1.8 2.3 2.9 3.2 3.1 2.1 4.7 5.3 6.6 8.4 1.1 1.6-.1 6.5 4.4 2.7 3.8-1 7.6-1.1 11.4.1 2.2 1.2 3.5 3.4 5 5.3l.5.6-23.1 8.2c-4.3 1.7-6.6 1.5-7.5-3.8-1.4-8.2-4.9-16.1-5.7-24.7z" fill="#fff" /> <path d="M1573.9 1350.6c-.4 7.3-3.3 14.1-4.8 21.3-.8 3.9-3 5.5-7.3 3.7-7.3-3-14.9-5.6-22.3-8.3.2-.3.4-.5.6-.8 1.4-3.3 2.3-7 7.2-6.5 4.1.4 8.2.3 11.6 3.1-1.1-4.8 2.2-7.7 4.7-11 .8-1.1 1.8-1.9 3-2.5 2.6-.6 5-.2 7.3 1z" fill="#fff" /> <path d="M542 1552.6c-.9-1.9-2.9-1.6-4.5-2.3 2.3-2.1 5.3-1.7 8.1-2.2 2.1-.6 2.7.4 2.2 2.3-1.9.7-3.5 2.5-5.8 2.2z" fill="#fff" /> <path d="M1573.9 1350.6l-7.6.7c-1.6-2.3-.2-3.5 1.7-4.6l6 2c.1.6.1 1.2-.1 1.9z" fill="#d5e4dc" /> <path d="M547.8 1550.4l-2.2-2.3c2.1-1.7 4.3-2.3 6.8-.8-1.1 2-2.7 2.7-4.6 3.1z" fill="#fff" /> <path d="M1749.5 311c1.7-.6 3.8-.6 4.8-2.7 1.5.7 3.3 1.8 2.8 3.5-.6 2.1-2.7 1-4.1.8-1.2-.3-2.4-1.1-3.5-1.6z" fill="#fff" /> <path d="M885.9 2012.5c.2-.2.4-.5.7-.7 1.6-1.2 3.9-2.4 4.9-.6.9 1.6-1.4 3-3.2 3.6-.9-.7-1.6-1.5-2.4-2.3zm753.9 2.3c-1.8-.6-4.2-2.2-3.2-3.6 1.6-2.1 3.9-.4 5.5 1.3l-2.3 2.3z" fill="#fff" /> <path d="M1135.8 1376.6c-2.2-1.6-1.7-3.9-1.7-6.1 1.8 1.7 1.9 3.8 1.7 6.1z" class="Bf" /> <path d="M1178 1306.7c2.4 1.6 1.9 3.9 1.8 6.2-2-1.7-1.8-4-1.8-6.2z" class="Bp" /> <path d="M1586 1300.7c0-2.2-.4-4.5 1.8-6 .2 2.2.3 4.4-1.8 6z" fill="#fff" /> <path d="M1176.1 1298.7c2.4 1.5 1.9 3.9 1.8 6.2-2.1-1.7-1.9-4-1.8-6.2z" class="Bp" /> <path d="M1039.7 1400.8c2 .7 2.3 2.3 2.2 4.1-1.6-1-2.1-2.4-2.2-4.1z" class="Bf" /> <path d="M1899.8 1402c-.4 2-1.9 2.5-3.6 2.7.7-1.6 2.1-2.2 3.6-2.7z" class="Bq" /> <path d="M1041.8 1404.7c1.8.8 2.2 2.3 2.2 4-1.6-.9-2.1-2.3-2.2-4z" class="Bf" /> <g class="Bn"> <path d="M859.9 1340.5c0 1.7-.3 3.3-2.1 4.1.1-1.7.6-3.1 2.1-4.1z" /> <path d="M857.9 1344.5c0 1.7-.3 3.3-2.1 4.1.1-1.7.5-3.2 2.1-4.1zm78.2 64.3c.7-1.8 2.2-2.1 3.9-2.2-.8 1.6-2.3 2.1-3.9 2.2z" /> </g> <g fill="#fff"> <path d="M1319.9 1880.7c1.7.8 2 2.3 2.1 3.9-1.5-.9-2-2.3-2.1-3.9z" /> <path d="M1317.7 1876.7c2 .7 2.3 2.2 2.3 4-1.6-.9-2.1-2.4-2.3-4z" /> </g> <path d="M908 1428.8c.7-1.7 2.2-2.1 3.8-2.2-.7 1.6-2.2 2-3.8 2.2z" class="Bo" /> <path d="M1480 1678.6c0-1.7.4-3.2 2.1-4-.1 1.7-.6 3.2-2.1 4z" class="Bl" /> <path d="M2007.7 1440.7l-.9.1-.9-.2c0-1.1-.4-2.8 1.4-2.5.7.1.9 1.6.4 2.6z" fill="#c4c4c4" /> <path d="M1161.9 1440.7c-1.7-.1-3.1-.5-3.9-2.3 1.6.3 3 .9 3.9 2.3zm4.2 1.9c-1.7 0-3.2-.3-4.1-1.8 1.6-.1 3.1.4 4.1 1.8z" class="Bj" /> <path d="M1482.1 1674.8c-.1-1.7.3-3.3 2.1-4-.1 1.6-.5 3.1-2.1 4z" class="Bl" /> <path d="M843.9 1370.5c0 1.7-.3 3.3-2.1 4.1.1-1.7.6-3.1 2.1-4.1z" class="Bo" /> <path d="M1035.8 1394.7c1.7.8 2.1 2.2 2.2 3.9-1.5-.9-2-2.3-2.2-3.9z" class="Bf" /> <path d="M1290 1660.6c-1.8-1-2-2.6-1.9-4.4 1.5 1.2 1.9 2.7 1.9 4.4zm-2.2-6c-1.6-.9-1.8-2.4-1.8-4 1.5.9 1.9 2.3 1.8 4z" class="Bd" /> <g class="Bj"> <path d="M1075.8 1462.7c1.8.7 2.2 2.3 2.2 4-1.6-.8-2.1-2.3-2.2-4z" /> <path d="M1077.9 1466.7c1.7.8 2.1 2.2 2.2 3.9-1.6-.9-2.1-2.3-2.2-3.9z" /> </g> <path d="M1033.5 1390.8c2.1.6 2.4 2.2 2.4 4-1.6-.9-2.1-2.4-2.4-4z" class="Bf" /> <path d="M1286.1 1650.6c-1.9-1-2.1-2.6-1.9-4.5 1.5 1.2 1.9 2.8 1.9 4.5z" class="Bd" /> <path d="M979.8 1298.7c1.8.8 2.1 2.3 2.2 4-1.5-.9-2.1-2.3-2.2-4z" class="Bg" /> <path d="M1283.9 1644.6c-1.7-1-1.9-2.5-1.8-4.3 1.5 1.1 1.9 2.6 1.8 4.3z" class="Bd" /> <path d="M1179.6 1640.7c2 .6 2.3 2.2 2.3 4-1.5-.9-2-2.4-2.3-4z" fill="#fff" /> <path d="M1556 1548.6c.1-1.7.5-3.2 2.2-3.9-.2 1.6-.7 3.1-2.2 3.9z" class="Bk" /> <path d="M1748.1 1384.6c1.7.1 3.1.5 3.9 2.2-1.7-.1-3.1-.6-3.9-2.2z" class="Bh" /> <path d="M977.7 1294.8c2 .7 2.3 2.3 2.2 4.1-1.6-1-2.1-2.4-2.2-4.1z" class="Bg" /> <path d="M1508 1630.7c0-1.7.4-3.2 2.1-4-.1 1.6-.6 3.1-2.1 4z" class="Bd" /> <path d="M1742.2 1380.6c1.6.1 3.1.5 3.8 2.2-1.7-.2-3.1-.6-3.8-2.2z" class="Bh" /> <g class="Bg"> <path d="M971.5 1284.7c2 .6 2.4 2.2 2.4 4-1.6-.8-2.1-2.3-2.4-4z" /> <path d="M973.9 1288.7c1.7.8 2.1 2.2 2.2 3.9-1.5-.9-2.1-2.3-2.2-3.9z" /> <path d="M976.1 1292.6l1.8 2.3c-1.2-.3-1.7-1.2-1.8-2.3z" /> </g> <path d="M1156.1 1600.6c1 .5 1.6 1.4 1.8 2.6-.7-.9-1.3-1.7-1.8-2.6zm2.2 4.1l1.6 2.1c-1-.4-1.5-1-1.6-2.1z" class="Bk" /> <path d="M1540.1 1574.9l1.8-2.2c-.1 1-.7 1.8-1.8 2.2z" fill="#fff" /> <path d="M1739.9 1378.7l2.1 1.8-2.1-1.8z" class="Bh" /> <path d="M1512.2 1623.2c.1-1.2.7-2 1.8-2.5-.7.8-1.2 1.6-1.8 2.5zm-2.1 3.6l1.7-2.1c-.2 1.1-.7 1.7-1.7 2.1z" class="Bd" /> <path d="M1745.9 1382.7l2.1 1.9c-.7-.7-1.4-1.3-2.1-1.9zm5.9 4l2.1 1.9c-.6-.6-1.3-1.2-2.1-1.9zm2.2 2l2 1.7-2-1.7z" class="Bh" /> <path d="M1574.1 1516.9l1.8-2.2c-.1 1-.7 1.8-1.8 2.2z" class="Bm" /> <path d="M1074.2 1460.7c.6.7 1.1 1.4 1.7 2.2-1.1-.4-1.6-1.1-1.7-2.2zm-2.2-4.1c1.1.6 1.7 1.5 1.8 2.7-.6-.8-1.2-1.7-1.8-2.7z" class="Bj" /> <path d="M1038 1398.6l1.8 2.3c-1.1-.3-1.6-1.2-1.8-2.3z" class="Bf" /> <path d="M1484.1 1670.8l1.8-2.2c-.2 1.1-.7 1.9-1.8 2.2z" class="Bl" /> <path d="M2006 1440.6c.3 1.2-.3 1.9-1.4 2.1-.3-1.1.2-1.9 1.4-2.1z" fill="#c4c4c4" /> <path d="M1936.1 1438.9c.3-1.1 1-1.9 2.2-2.1-.4 1-1 1.8-2.2 2.1z" class="Br" /> <path d="M1206.2 1686.7l1.7 2.1c-1-.3-1.6-1-1.7-2.1z" class="Bd" /> <path d="M1260.1 1778.6l1.8 2.2c-1.1-.3-1.6-1.1-1.8-2.2z" fill="#fff" /> <path d="M1302.1 1850.7l1.8 2.1c-1-.3-1.6-1.1-1.8-2.1z" fill="#fff" /> <path d="M1948.2 1422.9c.3-1.2 1-1.9 2.1-2.2-.3 1.1-1 1.9-2.1 2.2z" class="Bq" /> <path d="M982 1302.7c1.1.6 1.7 1.5 1.8 2.8l-1.8-2.8z" class="Bg" /> <path d="M1879.9 1418.2c-.2 1.2-.9 1.9-2.1 2.3.2-1.2 1-1.8 2.1-2.3z" class="Br" /> <path d="M984.2 1306.7c.6.7 1.1 1.4 1.7 2.2-1.1-.4-1.6-1.1-1.7-2.2z" class="Bg" /> <path d="M934 1410.7l2.1-2-2.1 2z" class="Bn" /> <path d="M1777.5 1404.8c1.2.2 2 .8 2.4 1.9l-2.4-1.9z" fill="#fff" /> <path d="M1674.4 626.8c1.4 45.8-35.8 93.1-93 93.4-51 .3-93.2-41.8-92.9-92.8.3-58.5 49-93.6 93.3-93.4 49.4.2 93.4 41.3 92.6 92.8zm-803.9-92.5c51.4.1 92.6 41.6 92.4 93-.2 51.6-42.3 93.4-93.8 93-51-.4-93.3-42.6-92.5-93.4 1-60.1 51-94.6 93.9-92.6z" /> <path d="M293.1 1040.1c-2-5.2-6.2-7.2-10.6-8.8l-17.8-6.6c-2.6-1-4.8-2.7-4.4-5.9s3-4 5.7-4.8c5.3-1.5 9.8.4 14.2 2.9 4.6 2.7 9 5.7 13.7 8.2 6.8 3.8 13.2 4.3 20.6.2 20.6-11.6 43.2-17 66.7-18.8 10.6-.8 13.5-4.5 11.3-14.7-.2-1-.3-2-.7-2.9-1.3-3.9-2.6-7.9 1.7-10.8 4.2-2.8 8.9-2.6 13.4-.8 2.9 1.2 4.7 3.7 4 7.2l-1.6 7.8c-1.9 10.1.6 13.4 10.6 14.3 16.3 1.5 32.2 4.8 47.7 10.3 6.6 2.4 13.2 4.8 19 8.7 6.6 4.5 13.3 3.8 19.8.6 5.4-2.7 10.4-6 15.5-9.1 4.2-2.6 8.6-3.4 13.4-2.7 2.8.4 5.3 1.3 6.1 4.3.8 3.2-1.4 5-3.8 6.2-2.7 1.3-5.5 2.4-8.3 3.5-4 1.5-8.2 2.8-12.2 4.5-9.4 4.1-9.9 6.5-3.4 14 10.2 11.8 16.5 25 14.6 41-.4 3.6.8 5.4 4 7 4.6 2.4 9.6 2.7 14.5 3.2 4.6.5 9.3.5 14 .6 3.4.1 6.6.7 9.7 2 2.2.9 4.7 2.2 4.6 4.7-.1 3.1-3.2 4.1-5.7 4.7-3.9.9-7.9.4-11.9-.5-6.5-1.5-12.9-3.2-19.5-4.2-7.6-1.2-13.7.3-18.7 7.6-10.7 15.5-26.5 25-43.5 32.3-9.4 4.1-10 7.4-2.4 14.9 2.6 2.6 5.5 4.8 8.2 7.3 2.1 1.9 3.4 4.2 2.3 7.1-1.1 2.8-3.7 3.7-6.4 4-5.7.7-10.6-.6-13.8-5.9-2.2-3.7-4.3-7.6-6.9-11-3.9-5-8.7-7.4-15.6-6.1-25.8 4.9-51.7 4.9-77.5.1-8.2-1.5-13.4 1.5-17.9 7.4-2.2 2.9-3.6 6.4-5.7 9.4-3.7 5.4-9.8 7.6-15.7 5.8-5.3-1.6-6.7-5.7-3.1-9.8 3.3-3.7 7.4-6.8 10.7-10.5 5.5-6.1 4.7-9.2-3-12.4-18.8-7.8-35.5-18.3-47.1-35.6-3.8-5.6-9.9-5.1-15.2-4.5-7.2.8-14.3 2.9-21.5 4.4-4.6.9-9.2 1.5-13.8-.3-1.9-.8-3.6-1.9-3.7-4.3 0-2.2 1.3-3.6 3.1-4.7 3-1.9 6.3-1.9 9.6-2.1l21.9-1.8c9.2-1.1 11.5-3.6 11-12.5-.6-12.2 3.2-23 10.3-32.6l9.5-11.5z" class="Be" /> <path d="M1568 1346.7l-1.7 4.6c-.3 2.4-1.6 4.4-3.5 5.7-3.3 2.3-2.8 5.3-1.1 11.2-4.2-5.2-7.7-5.8-11.9-5.9-4.3-.1-7.5.1-9.6 4.2 1.6-6.7-4.5-10.1-6.4-15.3-.6-1.5-3.1-2.3-1.8-4.6.3-2.3 0-4.9 1-6.7 2-3.8.8-6.7-2-10.1 7.1 4.3 11.4-2.3 16.9-3.2 1.4-1.1 2.9-1.1 4.3 0 3.4 1.2 7 2.2 9.7 4.8 1.6.6 3.6-.3 4.9 1.4-.4.6-.7 1.2-1.1 1.8-.5.7-.5 1.5.1 2.1a2.14 2.14 0 0 1 .3 1.9c-.4.5-1 .8-1.6.9.1 0-.4.3-.4.3s.4-.3.5-.3c.7-.1 1.1-.4 1.5-.9 2.4 2.2 1.6 5.3 1.9 8.1zm.4-78.3c2-.2 3-2.7 5.9-2-4.7 5.5-.7 10.9.1 16.3.3 2.2 3.2 1.8 5 2.2-4.1 2.1-7.8 4.4-10.9 8.2-2.4 2.9-2.4 5.6-2.1 9-6.8-4.8-14.5-4.8-20.8-.3.1-7.5-4.9-13.8-13.3-16.2 6.6-1.5 5.7-6.5 6-10.9 4.6-3.5-1.4-5.8-1.5-8.7 3-.5 4.4 2 6.6 2.3 2.5-1.3 3.8 1 5.6 1.7 1.5.7 3.1.5 4.6 0 1.7-.4 3.2.3 4.8.8s3.1.3 4.5-.6c1.8-.8 3.1-3 5.5-1.8z" fill="#f1f6f3" /> <path d="M1513.7 1304.7c.9 1.7.8 3.6.6 5.4.3 1.1 1 1.8 1.9 2.4.6-.1 1.2 0 1.8.4s.8.9.6 1.3-.4.7-.6.7c-6.8 1-8.3 7.2-11.6 11.7-.8.9-1.7.9-2.6.2l-13.7-.2c-.9.9-1.9.8-2.7-.1-3.3-4.5-4.6-11.1-11.8-11.8-.7-.1-1.8-1.3-.3-1.9 6.4-2.6 2.8-9.8 6.4-13.6-.7-1.1-.6-2.2.4-3.1 5.5-2.6 12.7-2.9 14.6-10.9 2 2.5 1.4 6.7 5.3 7.4.6.6.9 1.3.7 2.1-.5 1.4-1.4 2.7-1.9 4.1-.1.6-.2 1.3-.1 2 0 0 .2 1 .2.9.2.2-.1.8.5.7.1-.7.4-1.2.9-1.8.4-.6.8-1.1 1.3-1.6.6-.9 1.2-1.7 2-2.5.9-.8 2-.9 3-.3 1.1-.2 2.2-.3 3.3-.5.9.9 1 1.9.3 3l-.1-.2c-1.6 1.3-1.9 3.6-3.3 5-1.1 1.2-2.2 2.3-3.6 3.1-.5.4-1.1.3-1.7.3.4.4 1 .5 1.6.2 1.4-.1 2.9.1 4.3-.4 1.4-.7 2.2-2.5 4.3-2z" fill="#f0f5f2" /> <path d="M1513.7 1304.7c-2.2 1.2-1 5.1-4.2 5.6-1.2-2.5-1.9-5-1.4-7.8.8-1.9 2.2-3.2 4.1-3.8l1.5 6z" class="Bs" /> <path d="M1566.8 1332.8c-1.8 0-3.7.4-4.9-1.4l4.4-1.9c1.1-.4 2.7-1.1 2.9.9 0 1.4-.9 2.3-2.4 2.4z" fill="#accbba" /> <path d="M1508.5 1296.4l-2.7 2.5c-2.6.3-3.8-1-4.1-3.4l.2-2.7c2.9 0 5 1.3 6.6 3.6z" class="Bs" /> <path d="M1552.1 1326.5h-4.3c0-.6 0-1.3.2-1.9.3-1.4-.3-3.6 2-3.6s1.8 2.1 2 3.6c.1.7.1 1.3.1 1.9z" fill="#adcbbb" /> <path d="M1531.9 1346.5l1.8 4.6-6.9-.6c.4-3.3 3.5-2.7 5.1-4z" fill="#bdd4c7" /> <path d="M1503.7 1326.8l2.6-.2c1.4 1.1 2.9 2.9.8 3.8-2.4 1-2.9-1.7-3.4-3.6z" fill="#b3cfbf" /> <path d="M1482.1 1296.2l-.4 3.1c-.5-.4-1.1-.7-1.5-1.2-.9-1.1-3.5-2.1-1.6-3.8 1.2-1.2 2.8.2 3.5 1.9z" fill="#d0e1d8" /> <path d="M1512.2 1298.9l-.3-3c.6-1.7 2.6-2.8 3.3-1.6 1.7 2.7-1.5 3.3-3 4.6z" fill="#c3d8cc" /> <path d="M1487.3 1326.5l2.7.1-.7 1.8c-.6 1-1.4 2.8-2.6 2-1.8-1.2-.8-2.7.6-3.9z" fill="#caded3" /> <path d="M1517.9 1314.9c-.1-.7-.1-1.3 0-2 1.6-.3 2.3.5 1.9 1.9-.4 1.1-1.2 1.2-1.9.1zm-1.8-2.3c-1.4-.2-1.9-1.1-1.9-2.4l1.9 2.4z" fill="#c9ddd2" /> <path d="M1565.8 1336.7c-1.3-.6-1.5-1.3-.1-2.1l.1 2.1z" fill="#fff" /> <path d="M1220.1 1362.6c-4.8 0-9.5-.1-14.3-.1-3.9 1.2-2-3.1-3.7-3.9-3.1-1.8-4.8-4.7-6.2-7.8-1.6-2.9-1-5.9-.2-8.8 1.3-6.9 1.3-6.9-2.4-13.3 5 2.9 8.4 2.1 12.1 0 3.5-1.9 7.1-3.1 7.5-8.2.3 7.7 7.8 6.8 11.1 10.5 1.4 1.3 5.4-.1 4.2 4 1.8 3.4 2.7 7.1 2.2 11 .5 1.6.8 3.2-.5 4.7-1.2 4.7-7.2 6.6-7.3 12-.8.8-1.6.8-2.5-.1z" fill="#f0f6f3" /> <path d="M1189.6 1281.9c-.7-3.9.6-7.3 2.1-10.8-.6-1.2-.5-2.4.4-3.4 5.7-2.1 12.8-2.1 14.8-11.2 2.4 8.2 8.8 9.5 15 11.2.7.4 1.2 1 1.4 1.8-.2 1.2-.1 2.4.6 3.4h-.1c.2 1.8.3 3.6.5 5.4 1 2.9 1.4 5.7-.2 8.5-1.2 4.7-6.5 6.9-7.4 11.8-.8.9-1.7.9-2.6.1v-.1c-1.6-1.3-4.2-.7-5.3-2.8-1.2-2.2-2.4-2-3.5.1s-3.7 1.4-5.2 2.8l.1.1c-.9.9-1.7.9-2.5-.1-1.2-4.8-6.4-6.9-7.7-11.7-1.3-1.7-1.2-3.4-.4-5.1z" fill="#f0f5f3" /> <path d="M1284 1314.6l-8.2 10c-1.5 2.1-4.1.3-5.8 1.7-2 .7-4 .8-6 .2-.5-.4-.7-.8-.5-1.2s.3-.6.5-.6c.7-.7 1.4-1.4 1.8-2.3-.9-.5-.4.5-.8.7-.2.7-.6 1.2-1.1 1.6-1.1 1.2-2.8.7-3.9 1.7l-1.7 1.1c-1.8-1-.5-3.9-2.9-4.5-4.7-1.9-4.9-9.8-13.1-7.8 6.7-5 8.7-12.9 5.6-21.5 5.9 5.5 9.2-1.5 13.9-1.1 2.1-.6 3.6-3 6.2-1.8v.1c.8.6 1.5 1.4 2.6 1.6 3.2 0 5.5 1.7 7.6 3.9 1.6 1.1 2.9 2.4 3.5 4.3.5.4.7 1 .6 1.7.9 1.8 1.1 3.5-.7 4.8-1 .7-2.2-1.1-3.1.3.6.3 1.2.5 1.9.5 2 0 2.7 1.5 3.7 2.7.4.3.6.8.4 1.3.7.9.6 1.8-.5 2.6z" fill="#f0f6f3" /> <path d="M1210 1294.6l4.1 3.9-14.1.1 4.1-4c1.9-1.6 3.9-1.6 5.9 0z" fill="#e0ebe5" /> <path d="M1267.9 1290.7c-2 .8-3.8 2.4-6.2 1.8.8-.9 1.9-1.8 2.4-2.9.7-1.5.1-4.6 2.7-4 1.8.5 1 3.3 1.1 5.1z" fill="#d3e3da" /> <path d="M1228.2 1334.9l-4.2-4c2.6.5 4.8-1 7.3-2.4 1.2 3.9-1.9 4.7-3.1 6.4z" fill="#c8dcd1" /> <path d="M1281.6 1300.6c-1.7-.9-3-2.3-3.5-4.3l7.1-2.5-3.6 6.8z" fill="#f0f5f2" /> <path d="M1224 1286.8l.2-8.5c.9 3.3 2.3 6.2 6.1 7.5-2.4 1.8-4.4.7-6.3 1z" fill="#d0e0d8" /> <path d="M1195.7 1342l.2 8.8c-.3 0-.6 0-.9-.1-1.5-.6-4 1.5-4.5-1.2-.2-.7 1.9-1.9 3-2.9l2.2-4.6z" fill="#dae7e0" /> <path d="M1270 1326.3c1.5-2 3.8-1.5 5.8-1.7l.9 2.8c.3.9 1 1.9.1 2.6-1.4 1.1-2.4.3-3-1.1-.7-1.8-2.3-2.1-3.8-2.6zm-14.7-3.3c2.4.6 2.8 2.5 2.9 4.5.1 1.4-.1 2.9-1.6 3-1.9.1-1.7-1.4-1.2-2.7.8-1.7.4-3.3-.1-4.8z" class="Bt" /> <path d="M1189.6 1281.9l.3 5.1-2.8.2c-1.2.1-2.6.8-2.9-1.1-.2-1.2.9-1.4 1.8-1.7.9-.2 1.7-.7 1.9-1.7.5-.3 1.1-.6 1.7-.8z" fill="#d3e2da" /> <path d="M1280.3 1306.6c1.5-1.1 1.5-2.7 1.8-4.3 2.4 2.4 2 5.4 1.8 8.4l-3.7-2c-.5-.5-.7-1-.5-1.4.2-.5.4-.7.6-.7z" fill="#d8e6de" /> <path d="M1229.9 1350.6l.5-4.7 5.9 3.6c-2.3 2-4.5.8-6.4 1.1z" fill="#cadcd2" /> <path d="M1284 1314.6l.4-2.7c1.7.5 3.8 0 4.9 2.1-1.6 1.7-3.5.8-5.3.6z" fill="#d8e6de" /> <path d="M1220.1 1362.6h2.6c1.9.8 1.4 2.4 1.1 3.8-2.4-.1-3.5-1.6-3.7-3.8z" fill="#c0d4c9" /> <path d="M1197.5 1298.6l2.5.1c-.2.6-.3 1.3-.6 1.8-.6 1.1-1.5 2.7-2.7 1.8-1.8-1.3-.6-2.7.8-3.7z" fill="#c8dbd1" /> <path d="M1214 1298.6l2.6-.1c1.5 1 2.5 3 .7 3.6-2.2.9-2.7-1.8-3.3-3.5z" fill="#c7dbd1" /> <path d="M1260 1326.4c.9-1.6 2.5-1.7 4-1.7h0c0 .6 0 1.3.1 1.9l-4.1-.2z" class="Bt" /> <path d="M1270.5 1292.4c-1.3.1-2.1-.4-2.6-1.6l2.6 1.6z" fill="#d3e3da" /> <path d="M1192.1 1267.7l-.4 3.4-2.3-1.9c-1.1-.9-2.2-2.3-.9-3.2 1.5-1.3 2.8.1 3.6 1.7z" fill="#b8cfc3" /> <path d="M1222.3 1271.1l-.5-3.5c.7-1.7 2.3-2.3 3.9-2.9 1.5 1.2 1.4 2.5.4 4l-.1.1c-.7.6-1.4 1.2-2 1.9h0l-.7.6-1-.2z" fill="#bed4c8" /> <g fill="#fff"> <path d="M1226.1 1268.7l-.4-4c2.3 1.1 2.4 2.4.4 4zm-3.8 2.4c.5-.2 1.1-.3 1.7-.4-.1.7-.1 1.5-.2 2.2l-1.5-1.8z" /> <path d="M1224 1270.7c.1-1.2.9-1.7 2-1.9l-2 1.9z" /> </g> <path d="M1548.1 1272.6l-4.6-4.3c2.5-3.6 6.8-4 10.4-5.8 1.4-1.1 2.7-1.1 4 .1 3.6 1.8 7.9 2.2 10.5 5.7l-4.5 4.1c-2.1-2.1-4.2-1.3-6.2.1-1.1-.7-2.2-1.3-3.3-2-2.5-.3-4.5.6-6.3 2.1z" fill="#e5ede9" /> <path d="M1557.9 1262.7c-1.3 0-2.7-.1-4-.1 0-.7 0-1.3.1-2 0-1.3 0-3.2 1.3-3.3 2.2-.3 2.3 1.8 2.4 3.4 0 .7.1 1.3.2 2z" fill="#bdd3c8" /> <path d="M1202.1 1358.6c2.2.4 2 3 3.7 3.9-.5 1.5-1 3.5-2.6 3.4-2.5-.2-1-2.3-1-3.6l-.1-3.7z" fill="#c0d6ca" /> <path d="M1580.3 627.4c-.1 17.8-13.9 31.4-31.8 31.4-17.6 0-31.8-14.1-31.9-31.6-.1-17.6 15.2-32.7 32.6-32.2 17.6.5 31.3 14.7 31.1 32.4zm-711.7-.7c.2 18-13.2 31.9-31 32.1-18.2.2-32.6-13.8-32.5-31.8.1-17.4 14.5-31.9 31.7-32 17.4-.1 31.6 14.1 31.8 31.7z" class="Be" /> <path d="M329.7 1039.4c12.8-8.5 25.8-12 39-14.7 4.9-1 9.8-1.5 14.8-2.1 2.9-.3 4.3 1.1 3.9 4.1-.8 7.6-1.2 15.2-2.3 22.8-1.1 7.9-5.8 10.6-13.6 7.7-6.8-2.5-13.5-5.6-20.2-8.5l-21.6-9.3zm167.1 64.5c-10.3 15.2-23.2 23-37.3 29.2-2.7 1.2-4.3.3-5.8-1.8l-16.4-23.9c-2.7-4.1-1.4-6.8 3.3-8.2.9-.3 2-.5 2.9-.4l53.3 5.1zm-198.7-23.3c.7-9.1 5-17.9 11.5-25.8 2.3-2.8 4.8-3 7.8-1.3l32.5 17.4c2.1 1.1 4.4 2.2 4.2 5-.2 3.2-2.9 4.2-5.6 4.7l-34.3 6-8.8 1.6c-6.8 1-7.5.3-7.3-7.6zm7.1 24.5c10-3.4 19.1-2.2 27.9-3.9 6.5-1.3 13.2-1.5 19.8-2.1 2.6-.3 5.3-.5 7.9.5 3.7 1.5 5.4 4.2 3 7.8-5.5 8.3-11.3 16.4-16.9 24.6-1.3 1.9-2.9 2.3-5.1 1.4-14.2-6.3-27-14.1-36.6-28.3z" fill="#476db4" /> <path d="M471.9 1039.2l-41.8 17.6c-9 3.5-13.3.6-14.1-8.8l-1.9-19.9c-.4-3.5.4-5.9 4.7-5.4 17.8 2.2 35 6.5 53.1 16.5zm-39.2 102c-22.5 4.3-42.5 4.6-63.8-.1 8.2-10.3 16.2-19 24.9-27.1 3.7-3.4 9.9-3.1 13.7.7 8.2 8.1 15.9 16.7 25.2 26.5z" fill="#476db5" /> <path d="M502.4 1077.9c.5 10.6-.2 11.3-7.5 10l-39.2-7c-1.9-.3-4-.6-5.7-1.4-4.1-1.9-4.5-5.1-.5-7.4 11.5-6.6 23.3-12.7 35-19.1 3-1.6 5-.4 6.9 1.9 6.2 7.7 10.6 16 11 23z" fill="#476db4" /> <path d="M400.2 1073.2c5.1-.8 9.6.7 13.6 4.2 4.9 4.3 4.1 10.5-1.9 13.1-7.3 3.2-14.5 3.2-22.1.4-3.8-1.4-4.9-4.1-5.9-7.3-1.2-3.8 2-5.1 4.1-7 3.7-3 7.7-4 12.2-3.4z" fill="#4a6fb6" /> <path d="M1542.9 1341.8c-.2 2.4-1.8 2.8-3.4 3-1.8.2-3.3 0-3.3-2.4 0-1.8.6-3.6 2.4-3.8 2.1-.2 3.3 1.8 4.3 3.2z" fill="#fff" /> <path d="M1558.2 1334.4c-.8 2.2-2.4 3.6-4.5 3.3s-1.7-2.5-1.7-4c0-1.8.8-3.4 3.1-2.4 1.3.7 3.2 1 3.1 3.1z" fill="#fff" /> <path d="M1549.6 1352c2.8 1 3.8 2.8 3.6 4.8-.2 2.2-2.4 1.9-3.9 1.8-1.2-.1-2.9-.2-2.6-2.2.3-2.1 1.5-3.5 2.9-4.4z" fill="#fff" /> <path d="M1548.2 1334.4c-.3 1.7-.2 3.7-2.6 3.1-1.9-.5-4-1.7-3.6-3.9.3-1.4 2.3-2.4 4-2.5 2.5-.2 1.9 2 2.2 3.3z" fill="#fff" /> <path d="M1541.3 1354.6c-1.6-.6-2.8-1.8-3.1-3.4-.4-2.3 1.5-2.4 3.1-2.6 1.8-.2 3.2.4 2.8 2.6-.2 1.6-.8 3.1-2.8 3.4z" fill="#fff" /> <path d="M1561.9 1349.7c-.2 2.6-1 4-2.6 4.6-2.1.7-2.8-.9-3.2-2.5-.5-1.7-.4-3.2 2-3.3 1.6 0 2.9.5 3.8 1.2z" fill="#fff" /> <path d="M1564.1 1340.6c-.2 2.3 0 4.8-3.6 4.1-1.3-.3-2.9-.8-2.6-2.2.5-3.1 2.6-4.2 5.6-3.7.7.2 1.1.5 1 1-.1.6-.2.8-.4.8z" fill="#fff" /> <path d="M1551.8 1344.2c.2 1.2-.5 1.7-1.5 2-1.2.3-1.7-.6-2-1.5-.4-1.3.6-1.6 1.5-1.9 1.2-.3 1.7.4 2 1.4z" fill="#fff" /> <path d="M1564.1 1340.6c-.5-.5-.7-1.1-.6-1.8l2.6-.3v-.1l-2 2.2z" fill="#f6f9f7" /> <path d="M1548.1 1272.6c-1-2.8.5-4.1 2.8-4.9 2.9-1.1 2.9 1.3 3.5 3-.7 5.3-3.6 3.2-6.3 1.9z" fill="#fff" /> <path d="M1559 1292.3c.4 2.5-1.5 2.5-3 2.5s-3.6.3-3.4-2.2c.1-1.7 1.1-3.5 2.6-3.9 2.5-.7 3 1.7 3.8 3.6z" fill="#fff" /> <path d="M1557.6 1272.7c.9-1.7-1.1-5.1 2.3-5 2.5 0 4.9 1.4 3.9 4.9-2 .2-4.1 3.7-6.2.1z" fill="#fff" /> <path d="M1548.2 1278.2c.1 2.2-1.6 2.5-3.2 2.7-2 .3-3-.8-2.8-2.7.1-1.7.9-3.5 2.8-3.3 1.4.3 2.6 1.7 3.2 3.3z" fill="#fff" /> <path d="M1550.2 1286.1c-.3 2.3-.5 4.1-2.4 4.5s-2.9-1.1-3.5-2.6c-.7-2 .5-2.8 2.3-3.2 1.7-.3 2.9.3 3.6 1.3z" fill="#fff" /> <path d="M1564 1290.8c-1.8-.3-2.2-2-2.3-3.6-.2-2.2 1.3-2.7 3.1-2.4 1.7.3 3.4.8 2.8 3-.4 1.6-1.5 2.9-3.6 3z" fill="#fff" /> <path d="M1566.6 1275.1c2-.1 2.7 1.3 3 2.9.4 1.9-.4 3.1-2.4 3-1.5-.1-3.4-.2-3.4-2.4-.1-1.8 1.5-2.6 2.8-3.5z" fill="#fff" /> <path d="M1554.5 1282.1c.1 0-.7-.4-.4-1.6.3-.9.7-1.8 1.9-1.5 1 .3 1.8.8 1.5 2-.1 1-.7 1.7-3 1.1z" fill="#fff" /> <path d="M1489.6 1307.2c-.8 1.8-2.5 2-4 2.1-2 .2-2.9-1.1-2.4-3.1.4-1.4.3-3.7 2.7-3.1 1.9.6 3.3 2 3.7 4.1z" fill="#fff" /> <path d="M1491.2 1315.5c-1 1.3-.4 4.2-3.3 3.5-1.6-.4-3-1.8-3-3.5.1-2.6 2.4-2.6 4.3-2.6 1.6 0 2.3 1 2 2.6z" fill="#fff" /> <path d="M1508.9 1315.2c-.5 1.8-1.3 3.4-2.9 3.9-2.8.9-2.8-1.9-3.5-3.4-.6-1.4-.1-2.6 1.6-2.7 2.1-.2 3.9.2 4.8 2.2z" fill="#fff" /> <path d="M1501.8 1295.5l4.1 3.4-2 2.4c-.8.3-1.4.7-1.9 1.4h0c-.7.5-1.3.5-2.1.1l-.1-.1c-.6-.9-1.4-1.7-1.6-2.9.6-2 .4-4.5 3.6-4.3z" fill="#fff" /> <path d="M1508 1302.5c3.2 2.1 2.9 4.8 1.4 7.8l-5.2-1.7c-.5-.3-.7-.7-.7-1.2s.1-.7.2-.7l4.3-4.2z" fill="#fff" /> <path d="M1491.9 1302c-1-1-3.2-1.2-3-3.2.2-2.4 2.5-3.1 4.3-2.8 1.9.4 1.6 2.4 1.4 4-.3 1.6-1 2.3-2.7 2z" fill="#fff" /> <path d="M1499.7 1320.3c.2 1.7-.7 2.4-2.2 2.4s-3.6.4-3.5-2.1c0-1.8 1-3.6 2.7-3.7s2.5 1.9 3 3.4z" fill="#fff" /> <path d="M1496.1 1307.5c1.5-.4 1.9.5 2 1.4.1.5-.4 1.4-.6 1.4-.8-.1-1.6-.4-2.4-.6l1-2.2z" fill="#fff" /> <g class="Bs"> <path d="M1503.7 1306.7c.1.6.3 1.3.5 1.9l-1.1-1.2c0-.1.4-.5.6-.7zm-5.5-6.9l1.6 2.9c-1.1-.7-1.6-1.7-1.6-2.9zm3.8 2.9c.6-.5 1.3-.9 1.9-1.4l-1.9 1.4z" /> <path d="M1499.9 1302.8l2.1-.1c-.6 1.3-1.3 1.4-2.1.1z" /> </g> <path d="M1201.8 1338.6c2 1 3.9 2 3.4 4.3-.4 1.9-2.5 2-4 2-2 0-3-1.2-2.2-3.2.5-1.4.6-3.4 2.8-3.1z" fill="#468963" /> <path d="M1221.2 1333.6c-1 2.7-2.6 4.1-4.5 3.9-1.7-.2-2.1-2.3-2-3.9 0-1.9 1.1-3.1 3.1-2.2 1.3.6 2.4 1.5 3.4 2.2z" fill="#fff" /> <path d="M1215.9 1355.8c.3 2.5-1.4 2.7-3.1 2.7s-3.4-.3-3-2.7c.2-1.7 1-3.5 2.6-3.7 2.5-.3 2.9 2.1 3.5 3.7z" fill="#fff" /> <path d="M1204.5 1354.8c-2.2-.5-3.6-2-3.8-4.1-.1-2.4 2.2-2 3.6-2.2 1.3-.2 3 0 2.9 1.6 0 1.9-.5 3.9-2.7 4.7z" fill="#fff" /> <path d="M1210.7 1334.5c-.3 1.6-.3 3.7-2.6 3.1-1.8-.5-4-1.7-3.5-3.9.2-1.1 2.4-2.1 3.9-2.4 2.3-.4 1.9 1.8 2.2 3.2z" fill="#fff" /> <path d="M1222.1 1354.6c-2.6.3-2.9-1.7-3.5-3-1-2.1.2-3.1 2.2-3.2 1.5 0 3.7-.4 4.1 1.6.4 2.2-1.3 3.6-2.8 4.6z" fill="#fff" /> <path d="M1223.7 1339c1.7-.1 2.1 1 2.3 2.3.3 1.7.3 3.4-2.1 3.3-1.6-.1-3.6-.2-3.5-2.4.2-1.7 1.8-2.7 3.3-3.2z" fill="#fff" /> <path d="M1214.2 1344.7c-.3.9-.8 1.9-1.8 1.2-.6-.4-.8-1.5-1.2-2.2.5-.3 1.1-.7 1.6-.7 1-.1 1.5.6 1.4 1.7z" fill="#fff" /> <path d="M1201.5 1286.5c-.4 2-.9 4.4-2.7 4.7-1.9.3-3.3-1.7-3.8-3.6-.6-2.4 1.3-2.6 2.8-2.7 1.5-.2 3.3-.6 3.7 1.6z" fill="#fff" /> <path d="M1215.5 1284.8c1.9.2 3.8.5 3.3 2.7-.3 1.5-1.5 3.1-3.3 3.2-2.1.1-2.4-2-2.8-3.3-.5-2.3 1.3-2.6 2.8-2.6z" fill="#fff" /> <path d="M1215.2 1270.1c-.1 2.5-2 3.3-3.8 3.9-1.6.5-2.1-1-2.3-2.3-.3-1.6-.6-3.6 1.3-4.1 2-.5 3.6.8 4.8 2.5z" fill="#fff" /> <path d="M1204.9 1270.3c-.3 1.5-.2 3.8-2.1 3.8-1.7-.1-3.9-1.1-4-3.4-.1-2 1.9-2.4 3.3-2.9 2.4-1 2.6.8 2.8 2.5z" fill="#fff" /> <path d="M1199.5 1279c-.7 2-2.6 2-4.1 2-2.3 0-2.4-1.7-2-3.5.3-1.2.5-2.9 2.3-2.5 2 .5 3.6 1.7 3.8 4z" fill="#fff" /> <path d="M1218 1281.1c-1.2-.6-3.6.1-3.5-2.3.1-2.2 1.9-3.6 4-3.7 1.5-.1 1.8 1.6 2.1 2.9.4 1.9-.3 3-2.6 3.1z" fill="#fff" /> <path d="M1210 1294.6h-5.9c-.4-2.9.4-5.7 3.4-5.6 2.2.1 3 3 2.5 5.6z" fill="#fff" /> <path d="M1208.2 1280.3c.3 1.2-.4 1.8-1.3 2.1-.3.1-1-.7-1.2-1.2-.3-1 .4-1.7 1.3-2.1.2-.1.8.8 1.2 1.2z" fill="#fff" /> <path d="M1280.3 1306.6l-.1 2.1c-.7.9-1.6 1.3-2.6.9-1.6-.7-4.4 0-4.3-2.9.1-1.7 1.7-3 3.2-3.5 2.9-.9 3.1 1.7 3.8 3.4z" fill="#fff" /> <path d="M1259.3 1307.5c-2.5 1.4-4.8 3.6-6.9 1.1-1.2-1.4-.5-4.2 1.4-5 3.5-1.5 3.8 2.1 5.5 3.9z" fill="#418660" /> <path d="M1274 1299.4c-.9 1.3-2.1 2.7-3.8 2.6-2.9-.3-2-2.8-1.9-4.5.1-1.8 1.3-1.8 2.8-1.3s2.9 1.2 2.9 3.2z" fill="#fff" /> <path d="M1262 1302.4c-2-.7-4-1.3-4-3.7 0-2 2-2.4 3.5-2.8 2.5-.6 2.5 1.4 2.5 2.9.1 1.5.3 3.4-2 3.6z" fill="#fff" /> <path d="M1263.9 1323c-2.5-2.4-.3-4.1 1.1-5.8.6-.7 1.9-.9 2.6.1 1.1 1.8 3.6 3.5.5 5.7-1.5.7-2.8.8-4.2 0z" fill="#fff" /> <path d="M1277.9 1315.4c-.3 1.8-1.5 3.2-3.1 3.4-1.8.2-2.7-1.6-2.8-3.3-.1-1.4.4-2.6 2.2-2.5 1.7.1 3.2.4 3.7 2.4z" fill="#fff" /> <path d="M1258 1313c.9 0 2.1.4 2.1 2.1s-.3 3.5-2.4 3.8c-1.9.2-3.2-1.4-3.4-2.9-.3-2.1 1.4-2.7 3.7-3z" fill="#fff" /> <path d="M1267.8 1308.7c.4 1.3-.5 1.7-1.5 1.9-1.1.2-1.8-.4-2-1.4-.2-1.1.5-1.7 1.5-2 1.3-.3 1.6.6 2 1.5z" fill="#fff" /> <path d="M1263.9 1323l4.1.1c-1 1.4-2.5 1.6-4 1.6 0-.6-.1-1.1-.1-1.7z" class="Bt" /> </svg>