<svg width="40" height="40" viewBox="0 0 40 40" fill="none" xmlns="http://www.w3.org/2000/svg">
<path d="M20.4651 40V11L40 6V28L20.4651 40Z" fill="#326CE5"/>
<path d="M20 10L0 5L21.3953 0L40 5L20 10Z" fill="#326CE5"/>
<path fill-rule="evenodd" clip-rule="evenodd" d="M19.5349 40V11L0 6V28L19.5349 40ZM2.5 26V10H3.5V25.7098L17.2481 33.5659L16.7519 34.4341L2.75193 26.4341L2.5 26.2902V26ZM17.3867 14.8C17.3867 15.5658 16.7658 16.1867 16 16.1867C15.9452 16.1867 15.8912 16.1835 15.8381 16.1773L13.1245 24.779C13.5313 24.9987 13.8159 25.4157 13.8499 25.9019C13.8522 25.9343 13.8533 25.967 13.8533 26C13.8533 26.7658 13.2325 27.3867 12.4667 27.3867C11.7008 27.3867 11.08 26.7658 11.08 26C11.08 25.5692 11.2764 25.1843 11.5846 24.93L11.6026 24.9154L9.33727 20.6069C9.20946 20.6458 9.07384 20.6667 8.93333 20.6667C8.70267 20.6667 8.48516 20.6103 8.29381 20.5107L6.44764 22.8515C6.65884 23.0949 6.78666 23.4125 6.78666 23.76C6.78666 24.5258 6.16583 25.1467 5.4 25.1467C4.63416 25.1467 4.01333 24.5258 4.01333 23.76C4.01333 22.9942 4.63416 22.3733 5.4 22.3733C5.63066 22.3733 5.84816 22.4296 6.03951 22.5293L7.88568 20.1885C7.87812 20.1798 7.87066 20.171 7.86331 20.162C7.6655 19.9223 7.54666 19.6151 7.54666 19.28C7.54666 18.5142 8.1675 17.8933 8.93333 17.8933C9.69917 17.8933 10.32 18.5142 10.32 19.28C10.32 19.7191 10.1159 20.1106 9.79737 20.3646L12.0627 24.6731C12.1905 24.6342 12.3262 24.6133 12.4667 24.6133C12.5214 24.6133 12.5754 24.6165 12.6285 24.6227L15.3422 16.021C14.9082 15.7867 14.6133 15.3278 14.6133 14.8C14.6133 14.0342 15.2342 13.4133 16 13.4133C16.7658 13.4133 17.3867 14.0342 17.3867 14.8Z" fill="#326CE5"/>
</svg>