<svg version="1.1" id="Layer_1" xmlns="http://www.w3.org/2000/svg" xmlns:xlink="http://www.w3.org/1999/xlink" x="0px" y="0px"
         viewBox="0 0 184.9 183" style="enable-background:new 0 0 184.9 183;" xml:space="preserve">
<style type="text/css">
        .st0{fill:#FFFFFF;}
</style>
<path class="st0" d="M51.4,62.1l4.1,102.1l73.8-94.1c1.1-1.4,2.8-2.3,4.6-2.6c1.8-0.2,3.6,0.3,5,1.4l46,36.9l-15-65.6L51.4,62.1z"/>
<polygon class="st0" points="58.1,183 123.5,183 83.3,150.8 "/>
<polygon class="st0" points="135.7,83.9 91.7,140.1 138.6,177.7 183.1,121.9 "/>
<polygon class="st0" points="39.1,52.3 39.1,52.3 77.8,3.8 15.4,33.8 0,101.3 "/>
<polygon class="st0" points="0.9,122 42.3,174 38.4,75 "/>
<polygon class="st0" points="157.8,28.7 98.2,0 61.1,46.6 "/>
</svg>