<svg width="20" height="20" viewBox="0.878997802734375 0.6570034027099609 122.4010009765625 150" fill="none" xmlns="http://www.w3.org/2000/svg"><path d="M1.38 38.395c2.314 6.69 8.516 12.607 17.193 17.127 11.16 5.814 26.542 9.394 43.506 9.394s32.346-3.58 43.506-9.394c8.677-4.52 14.879-10.437 17.194-17.127v80.383c0 8.522-6.641 16.361-17.656 22.098-10.99 5.725-26.208 9.281-43.044 9.281s-32.054-3.556-43.044-9.281C8.021 135.139 1.38 127.3 1.38 118.778V38.395Z" fill="#326CE5" stroke="#fff"/><path d="M1.38 32.537c0-8.523 6.64-16.361 17.655-22.099 10.99-5.725 26.208-9.28 43.044-9.28s32.054 3.555 43.044 9.28c11.015 5.737 17.656 13.576 17.656 22.099 0 8.522-6.641 16.36-17.656 22.099-10.99 5.724-26.208 9.28-43.044 9.28s-32.054-3.556-43.044-9.28C8.021 48.898 1.38 41.059 1.38 32.535Z" fill="#326CE5" stroke="#fff"/><path d="M123.279 32.537c0 17.606-27.4 31.88-61.2 31.88-33.8 0-61.2-14.274-61.2-31.88m122.4 0c0-17.607-27.4-31.88-61.2-31.88C28.28.657.88 14.93.88 32.537m122.4 0v86.241c0 17.606-27.4 31.879-61.2 31.879-33.8 0-61.2-14.273-61.2-31.879V32.537" stroke="#fff" stroke-miterlimit="10" stroke-linejoin="round"/><path d="M62.88 75.54a4.143 4.143 0 0 0-1.533.374L40.44 85.553a3.972 3.972 0 0 0-1.391 1.061 3.76 3.76 0 0 0-.773 1.534l-5.158 21.65a3.664 3.664 0 0 0-.039 1.519 3.854 3.854 0 0 0 .81 1.719l14.47 17.36c.375.449.85.812 1.392 1.061a4.137 4.137 0 0 0 1.735.378l23.206-.005c.6.001 1.193-.128 1.735-.377a3.973 3.973 0 0 0 1.391-1.06l14.466-17.362c.375-.45.639-.974.773-1.535a3.664 3.664 0 0 0 0-1.703l-5.166-21.65a3.76 3.76 0 0 0-.772-1.534 3.974 3.974 0 0 0-1.391-1.062l-20.91-9.633a4.152 4.152 0 0 0-1.939-.374Z" fill="#fff"/><path d="M63.086 82.908c-.69 0-1.251.6-1.251 1.342l.002.033c0 .1-.006.222-.002.31.016.427.113.754.171 1.148.105.842.194 1.54.139 2.19-.053.245-.24.469-.406.624l-.03.511c-.75.06-1.507.17-2.262.336-3.25.711-6.047 2.326-8.177 4.507-.138-.091-.38-.259-.452-.31-.223.03-.449.096-.743-.07-.56-.363-1.07-.865-1.687-1.47-.283-.29-.488-.565-.824-.844-.076-.063-.193-.149-.278-.214a1.522 1.522 0 0 0-.872-.317 1.225 1.225 0 0 0-.997.425c-.43.522-.293 1.319.308 1.78l.018.014c.083.064.184.147.26.2.356.255.682.385 1.037.586.749.446 1.37.816 1.861 1.262.192.198.226.546.252.697l.4.345c-2.146 3.118-3.14 6.969-2.553 10.892l-.524.147c-.138.173-.333.443-.538.524-.643.196-1.368.268-2.243.356-.41.033-.765.013-1.2.093-.096.018-.23.051-.335.075l-.01.002-.02.006c-.737.172-1.21.826-1.058 1.47.153.645.873 1.037 1.615.882l.019-.002.024-.008c.103-.022.233-.046.323-.07.428-.11.739-.273 1.123-.415.828-.286 1.514-.526 2.182-.619.28-.021.573.166.72.245l.545-.09c1.255 3.755 3.886 6.79 7.217 8.694l-.227.526c.082.205.172.481.11.683-.242.608-.658 1.249-1.132 1.964-.23.331-.464.587-.67.965-.05.09-.114.229-.161.325-.322.664-.086 1.429.532 1.716.621.288 1.393-.016 1.727-.681l.003-.003v-.003c.047-.094.115-.218.155-.307.177-.391.236-.727.36-1.106.332-.803.514-1.645.97-2.169.124-.144.328-.199.539-.254l.283-.495a16.731 16.731 0 0 0 11.549.028c.08.137.228.399.267.465.215.067.449.102.64.374.34.562.574 1.227.858 2.03.124.379.186.715.363 1.107.04.089.108.215.155.309.334.668 1.108.973 1.73.684.618-.287.854-1.052.533-1.716-.048-.095-.114-.234-.164-.325-.207-.378-.441-.632-.67-.962-.475-.715-.867-1.309-1.11-1.917-.102-.313.017-.508.096-.712-.047-.052-.149-.348-.209-.487 3.462-1.973 6.015-5.121 7.215-8.756.161.024.443.072.534.09.189-.12.362-.276.7-.25.669.093 1.355.332 2.183.619.385.142.695.307 1.123.418.09.023.22.045.323.067.009.002.016.006.024.007.006.002.014.002.02.003.741.154 1.462-.238 1.614-.882.153-.645-.321-1.299-1.059-1.471-.107-.023-.26-.063-.363-.082-.436-.08-.79-.06-1.2-.093-.876-.089-1.6-.161-2.244-.356-.263-.098-.45-.4-.54-.524l-.506-.142a15.058 15.058 0 0 0-.262-5.637 15.352 15.352 0 0 0-2.345-5.23c.13-.113.375-.322.444-.384.02-.216.003-.443.235-.683.492-.446 1.113-.816 1.861-1.262.356-.201.684-.331 1.04-.585.081-.058.191-.149.276-.215.6-.462.738-1.258.307-1.78-.43-.521-1.266-.57-1.866-.108-.085.065-.201.15-.278.214-.336.279-.544.554-.826.844-.618.605-1.128 1.109-1.688 1.473-.242.136-.598.089-.759.08l-.476.327c-2.714-2.745-6.41-4.501-10.388-4.842a28.35 28.35 0 0 1-.03-.54c-.162-.15-.36-.278-.409-.603-.054-.65.037-1.348.142-2.19.058-.394.155-.721.171-1.148.004-.097-.002-.238-.002-.343 0-.741-.56-1.342-1.252-1.342Zm-1.567 9.365-.371 6.334-.027.013c-.025.566-.508 1.018-1.102 1.018a1.13 1.13 0 0 1-.65-.203l-.01.005-5.383-3.682c1.655-1.57 3.77-2.729 6.21-3.263.444-.098.89-.17 1.333-.222Zm3.137 0a13.195 13.195 0 0 1 7.497 3.488l-5.347 3.658-.02-.007a1.132 1.132 0 0 1-1.513-.197 1.035 1.035 0 0 1-.24-.616l-.005-.003-.372-6.323Zm-12.632 5.851 4.915 4.241-.005.026c.443.372.509 1.018.139 1.466a1.106 1.106 0 0 1-.573.363l-.005.021-6.3 1.754c-.32-2.828.37-5.578 1.83-7.87Zm22.09.003a12.345 12.345 0 0 1 1.612 3.8 12.15 12.15 0 0 1 .273 4.048l-6.332-1.76-.006-.026a1.062 1.062 0 0 1-.783-1.264c.054-.228.18-.422.35-.565l-.002-.013 4.887-4.22Zm-12.036 4.566h2.014l1.251 1.509-.45 1.884-1.807.838-1.813-.841-.449-1.883 1.254-1.507Zm6.455 5.165c.086-.004.17.003.254.018l.01-.013 6.517 1.063a12.535 12.535 0 0 1-5.217 6.323l-2.53-5.895.009-.01a1.05 1.05 0 0 1 .535-1.38c.136-.064.28-.099.422-.106Zm-10.944.026c.497.007.943.34 1.059.828a1.02 1.02 0 0 1-.062.655l.019.023-2.503 5.836c-2.34-1.449-4.204-3.618-5.2-6.279l6.46-1.058.01.013a1.14 1.14 0 0 1 .217-.018Zm5.457 2.556c.173-.006.35.029.516.106.22.102.388.262.495.454h.024l3.185 5.552c-.414.134-.839.248-1.273.343a13.383 13.383 0 0 1-7.062-.351l3.177-5.541h.005a1.11 1.11 0 0 1 .933-.563Z" fill="#326CE5" stroke="#326CE5" stroke-width=".25"/></svg>