<svg version="1.1" xmlns="http://www.w3.org/2000/svg" xmlns:xlink="http://www.w3.org/1999/xlink" x="0px" y="0px"
         viewBox="0 0 96.2 65.2" style="enable-background:new 0 0 96.2 65.2;" xml:space="preserve">
<g id="Layer_2">
</g>
<g id="Layer_1">
        <g>
                <path d="M22.5,44.5h-5V1.7c0-0.9-0.7-1.7-1.7-1.7H9.6C8.7,0,7.9,0.7,7.9,1.7v42.8h-5c-2.4,0-3.7,2.7-2.3,4.6l9.8,12.6
                        c1.2,1.5,3.4,1.5,4.5,0l9.8-12.6C26.3,47.3,24.9,44.5,22.5,44.5z"/>
                <path d="M55.4,46.8c-0.3-0.3-0.8-0.5-1.3-0.5H34c-1.1,0-1.9,0.9-1.9,1.9V61c0,1,0.9,1.9,1.9,1.9h20.2c0.5,0,0.9-0.2,1.3-0.5
                        l7.3-6.4c0.9-0.8,0.9-2.1,0-2.9L55.4,46.8z"/>
                <path d="M71.3,23.7c-0.3-0.3-0.8-0.5-1.3-0.5H34c-1.1,0-1.9,0.9-1.9,1.9v12.8c0,1,0.9,1.9,1.9,1.9h36c0.5,0,0.9-0.2,1.3-0.5
                        l7.3-6.4c0.9-0.8,0.9-2.1,0-2.9L71.3,23.7z"/>
                <path d="M94.5,7l-7.4-6.5C86.8,0.2,86.3,0,85.8,0H34c-1.1,0-1.9,0.9-1.9,1.9v12.8c0,1,0.9,1.9,1.9,1.9h51.9c0.5,0,0.9-0.2,1.3-0.5
                        l7.3-6.4C95.3,9.1,95.3,7.7,94.5,7z"/>
        </g>
        <g>
                <g>
                        <path d="M81,64.2c-0.1,0-0.2-0.1-0.2-0.2v-1.2c0-0.9-0.4-1.8-1-2.5c-0.7-0.6-1.6-1-2.5-1c-1,0-1.9,0.4-2.5,1.1l-0.7,0.7
                                c0,0-0.1,0-0.1,0c-0.1,0-0.1,0-0.1,0l-1.7-1.7c0,0,0-0.1,0-0.1c0,0,0-0.1,0-0.1l0.7-0.7c0.7-0.7,1.1-1.6,1.1-2.6
                                c0-0.9-0.4-1.8-1-2.5c-0.7-0.7-1.5-1-2.5-1h-1.2c-0.1,0-0.2-0.1-0.2-0.2V50c0-0.1,0.1-0.2,0.2-0.2h1.2c0.9,0,1.8-0.4,2.5-1
                                c0.7-0.7,1-1.6,1-2.5c0-1-0.4-1.9-1.1-2.6l-0.7-0.7c0,0,0-0.1,0-0.1c0,0,0-0.1,0-0.1l1.7-1.7c0,0,0.1,0,0.1,0c0.1,0,0.1,0,0.1,0
                                l0.7,0.7c0.6,0.7,1.5,1.1,2.5,1.1c0.9,0,1.8-0.4,2.5-1c0.7-0.7,1.1-1.6,1.1-2.5v-1.2c0-0.1,0.1-0.2,0.2-0.2h2.4
                                c0,0,0.1,0.1,0.1,0.2v1.2c0,0.9,0.4,1.8,1.1,2.5c0.7,0.6,1.6,1,2.5,1c1,0,1.9-0.4,2.6-1.1l0.7-0.7c0,0,0.1,0,0.1,0
                                c0.1,0,0.1,0,0.2,0.1l1.7,1.7c0,0,0.1,0.1,0.1,0.1c0,0.1,0,0.1,0,0.1l-0.7,0.7c-0.7,0.7-1.1,1.6-1.1,2.5c0,0.9,0.4,1.8,1,2.5
                                c0.7,0.7,1.5,1,2.5,1h1.2c0,0,0.1,0.1,0.1,0.2l0,2.3c0,0.1,0,0.1,0,0.1l-1.2,0c-0.9,0-1.8,0.4-2.5,1.1c-0.7,0.7-1,1.6-1,2.5
                                c0,1,0.4,1.9,1.1,2.5l0.7,0.7c0.1,0.1,0.1,0.2,0,0.2l-1.7,1.7c0,0-0.1,0-0.1,0c-0.1,0-0.1,0-0.1,0l-0.7-0.7
                                c-0.7-0.7-1.6-1.1-2.6-1.1c-0.9,0-1.8,0.4-2.5,1c-0.7,0.7-1.1,1.5-1.1,2.5V64c0,0.1-0.1,0.2-0.2,0.2H81z M82.3,42.2
                                c-2.4,0-4.6,0.9-6.2,2.6s-2.6,3.9-2.6,6.2c0,2.3,0.9,4.6,2.6,6.2c1.7,1.7,3.9,2.6,6.2,2.6c2.4,0,4.6-0.9,6.2-2.6
                                c1.7-1.7,2.6-3.9,2.6-6.2c0-2.3-0.9-4.6-2.6-6.2C86.9,43.1,84.6,42.2,82.3,42.2z"/>
                        <path d="M83,38.6v0.9c0,0.9,0.3,1.7,0.8,2.4c-0.5-0.1-1-0.1-1.5-0.1c-0.6,0-1.2,0.1-1.8,0.2c0.5-0.7,0.8-1.5,0.8-2.4v-0.9H83
                                 M73.9,41.7l0.5,0.5c0.7,0.7,1.5,1.2,2.5,1.2c-0.4,0.3-0.8,0.6-1.2,1c-0.5,0.5-0.9,1-1.3,1.6c-0.1-1-0.5-1.9-1.3-2.6l-0.5-0.5
                                L73.9,41.7 M90.4,41.7l1.3,1.3l-0.5,0.5c-0.7,0.6-1.1,1.5-1.2,2.4c-0.3-0.5-0.7-0.9-1.1-1.3c-0.4-0.4-0.8-0.7-1.3-1.1
                                c0.9-0.1,1.7-0.6,2.3-1.2L90.4,41.7 M73.1,49.3C73,49.8,73,50.4,73,51c0,0.7,0.1,1.4,0.2,2.1c-0.7-0.7-1.7-1.1-2.8-1.1h-0.9v-0.9
                                v-0.8h0.9C71.5,50.3,72.4,49.9,73.1,49.3 M91.5,49.5c0.7,0.5,1.5,0.8,2.5,0.8h0.8v0.9v0.8H94c-0.9,0-1.8,0.3-2.5,0.9
                                c0.1-0.6,0.2-1.2,0.2-1.8C91.6,50.5,91.6,50,91.5,49.5 M74.4,56c0.4,0.6,0.8,1.1,1.3,1.6c0.5,0.5,1,0.9,1.6,1.3
                                c-1.1,0-2.1,0.5-2.8,1.3L74,60.6l-1.3-1.3l0.4-0.4C74,58.2,74.4,57.1,74.4,56 M90,56.3c0.1,1,0.5,1.9,1.2,2.6l0.5,0.5l-1.3,1.3
                                L90,60.2c-0.7-0.8-1.7-1.2-2.7-1.3c0.6-0.4,1.1-0.8,1.6-1.3C89.3,57.2,89.7,56.8,90,56.3 M80.3,60.1c0.7,0.1,1.3,0.2,2,0.2
                                c0.6,0,1.2-0.1,1.8-0.2c-0.7,0.7-1.1,1.7-1.1,2.7v0.9h-1.7v-0.9C81.4,61.8,81,60.9,80.3,60.1 M83.4,37.6H81
                                c-0.3,0-0.7,0.3-0.7,0.7v1.2c0,0.8-0.3,1.5-0.9,2.1c-0.6,0.6-1.3,0.9-2.1,0.9c-0.8,0-1.6-0.3-2.2-1l-0.7-0.7l0,0l0,0
                                c-0.1-0.1-0.3-0.2-0.5-0.2c-0.2,0-0.4,0.1-0.5,0.2l-1.7,1.7c-0.2,0.2-0.2,0.4-0.2,0.5c0,0.1,0,0.3,0.2,0.5l0.7,0.7
                                c0.6,0.6,1,1.4,1,2.2c0,0.8-0.3,1.5-0.9,2.1c-0.6,0.6-1.3,0.9-2.1,0.9h-1.2c-0.4,0-0.7,0.3-0.7,0.7v1.2v1.2
                                c0,0.3,0.3,0.7,0.7,0.7h1.2c0.8,0,1.5,0.3,2.1,0.9c0.6,0.6,0.9,1.3,0.9,2.1c0,0.8-0.3,1.6-1,2.2l-0.7,0.7c-0.3,0.3-0.3,0.7,0,0.9
                                l1.7,1.7l0,0l0,0c0.1,0.1,0.3,0.2,0.5,0.2c0.2,0,0.4-0.1,0.5-0.2l0.7-0.7c0.6-0.6,1.3-1,2.2-1c0.8,0,1.5,0.3,2.1,0.9
                                c0.6,0.6,0.9,1.3,0.9,2.1V64c0,0.4,0.3,0.7,0.7,0.7h2.3c0.4,0,0.7-0.3,0.7-0.7v-1.2c0-0.8,0.3-1.5,0.9-2.1
                                c0.6-0.6,1.3-0.9,2.1-0.9c0.8,0,1.6,0.3,2.2,1l0.7,0.7c0.1,0.1,0.3,0.2,0.5,0.2c0.2,0,0.4-0.1,0.5-0.2l1.7-1.7
                                c0.3-0.3,0.3-0.7,0-0.9l-0.7-0.7c-0.6-0.6-1-1.3-1-2.2c0-0.8,0.3-1.6,0.9-2.1c0.6-0.6,1.3-0.9,2.1-0.9h1.2c0.4,0,0.6-0.3,0.6-0.6
                                v-1.2V50c0-0.3-0.2-0.7-0.6-0.7h-1.2c-0.8,0-1.5-0.3-2.1-0.9c-0.6-0.6-0.9-1.3-0.9-2.1c0-0.8,0.3-1.6,1-2.2l0.7-0.7
                                c0.1-0.1,0.2-0.3,0.2-0.5c0-0.2-0.1-0.3-0.2-0.5l-1.7-1.7c-0.1-0.1-0.3-0.2-0.5-0.2c-0.2,0-0.4,0.1-0.5,0.2l-0.7,0.7
                                c-0.6,0.6-1.4,1-2.2,1c-0.8,0-1.6-0.3-2.1-0.9C84.3,41,84,40.2,84,39.5v-1.2C84,37.9,83.7,37.6,83.4,37.6L83.4,37.6z M82.3,59.3
                                c-2.2,0-4.3-0.9-5.9-2.4C74.8,55.3,74,53.3,74,51c0-2.2,0.9-4.3,2.4-5.9c1.6-1.6,3.7-2.4,5.9-2.4c2.2,0,4.3,0.9,5.9,2.4
                                c1.6,1.6,2.4,3.7,2.4,5.9c0,2.2-0.9,4.3-2.4,5.9C86.6,58.5,84.5,59.3,82.3,59.3L82.3,59.3z"/>
                </g>
        </g>
</g>
</svg>
