<svg version="1.1" xmlns="http://www.w3.org/2000/svg" xmlns:xlink="http://www.w3.org/1999/xlink" x="0px" y="0px"
         viewBox="0 0 96.2 65.2" style="enable-background:new 0 0 96.2 65.2;" xml:space="preserve">
<style type="text/css">
        .st0{fill:#FFFFFF;}
</style>
<g id="Layer_2">
</g>
<g id="Layer_1">
        <g>
                <path class="st0" d="M22.5,44.5h-5V1.7c0-0.9-0.7-1.7-1.7-1.7H9.6C8.7,0,7.9,0.7,7.9,1.7v42.8h-5c-2.4,0-3.7,2.7-2.3,4.6l9.8,12.6
                        c1.2,1.5,3.4,1.5,4.5,0l9.8-12.6C26.3,47.3,24.9,44.5,22.5,44.5z"/>
                <path class="st0" d="M55.4,46.8c-0.3-0.3-0.8-0.5-1.3-0.5H34c-1.1,0-1.9,0.9-1.9,1.9V61c0,1,0.9,1.9,1.9,1.9h20.2
                        c0.5,0,0.9-0.2,1.3-0.5l7.3-6.4c0.9-0.8,0.9-2.1,0-2.9L55.4,46.8z"/>
                <path class="st0" d="M71.3,23.7c-0.3-0.3-0.8-0.5-1.3-0.5H34c-1.1,0-1.9,0.9-1.9,1.9v12.8c0,1,0.9,1.9,1.9,1.9h36
                        c0.5,0,0.9-0.2,1.3-0.5l7.3-6.4c0.9-0.8,0.9-2.1,0-2.9L71.3,23.7z"/>
                <path class="st0" d="M94.5,7l-7.4-6.5C86.8,0.2,86.3,0,85.8,0H34c-1.1,0-1.9,0.9-1.9,1.9v12.8c0,1,0.9,1.9,1.9,1.9h51.9
                        c0.5,0,0.9-0.2,1.3-0.5l7.3-6.4C95.3,9.1,95.3,7.7,94.5,7z"/>
        </g>
        <g>
                <path class="st0" d="M95.1,49.3h-1.2c-0.8,0-1.5-0.3-2.1-0.9c-0.6-0.6-0.9-1.3-0.9-2.1c0-0.8,0.3-1.6,1-2.2l0.7-0.7
                        c0.1-0.1,0.2-0.3,0.2-0.5s-0.1-0.3-0.2-0.5l-1.7-1.7c-0.1-0.1-0.3-0.2-0.5-0.2c-0.2,0-0.4,0.1-0.5,0.2l-0.7,0.7
                        c-0.6,0.6-1.4,1-2.2,1c-0.8,0-1.6-0.3-2.1-0.9C84.3,41,84,40.2,84,39.5v-1.2c0-0.4-0.3-0.7-0.6-0.7H81c-0.3,0-0.7,0.3-0.7,0.7v1.2
                        c0,0.8-0.3,1.5-0.9,2.1c-0.6,0.6-1.3,0.9-2.1,0.9c-0.8,0-1.6-0.3-2.2-1l-0.7-0.7l0,0l0,0c-0.1-0.1-0.3-0.2-0.5-0.2
                        c-0.2,0-0.4,0.1-0.5,0.2l-1.7,1.7c-0.2,0.2-0.2,0.4-0.2,0.5c0,0.1,0,0.3,0.2,0.5l0.7,0.7c0.6,0.6,1,1.4,1,2.2
                        c0,0.8-0.3,1.5-0.9,2.1c-0.6,0.6-1.3,0.9-2.1,0.9h-1.2c-0.4,0-0.7,0.3-0.7,0.7v1.2v1.2c0,0.3,0.3,0.7,0.7,0.7h1.2
                        c0.8,0,1.5,0.3,2.1,0.9c0.6,0.6,0.9,1.3,0.9,2.1c0,0.8-0.3,1.6-1,2.2l-0.7,0.7c-0.3,0.3-0.3,0.7,0,0.9l1.7,1.7l0,0l0,0
                        c0.1,0.1,0.3,0.2,0.5,0.2c0.2,0,0.4-0.1,0.5-0.2l0.7-0.7c0.6-0.6,1.3-1,2.2-1c0.8,0,1.5,0.3,2.1,0.9c0.6,0.6,0.9,1.3,0.9,2.1V64
                        c0,0.4,0.3,0.7,0.7,0.7h2.3c0.4,0,0.7-0.3,0.7-0.7v-1.2c0-0.8,0.3-1.5,0.9-2.1c0.6-0.6,1.3-0.9,2.1-0.9c0.8,0,1.6,0.3,2.2,1
                        l0.7,0.7c0.1,0.1,0.3,0.2,0.5,0.2c0.2,0,0.4-0.1,0.5-0.2l1.7-1.7c0.3-0.3,0.3-0.7,0-0.9l-0.7-0.7c-0.6-0.6-1-1.3-1-2.2
                        c0-0.8,0.3-1.6,0.9-2.1c0.6-0.6,1.3-0.9,2.1-0.9h1.2c0.4,0,0.6-0.3,0.6-0.6v-1.2V50C95.7,49.7,95.5,49.3,95.1,49.3z M88.2,56.9
                        c-1.6,1.6-3.7,2.4-5.9,2.4c-2.2,0-4.3-0.9-5.9-2.4C74.8,55.3,74,53.3,74,51s0.9-4.3,2.4-5.9s3.7-2.4,5.9-2.4s4.3,0.9,5.9,2.4
                        c1.6,1.6,2.4,3.7,2.4,5.9C90.6,53.3,89.7,55.3,88.2,56.9z"/>
        </g>
</g>
</svg>
