<svg width="20" height="20.5" viewBox="0 0 62 63" fill="none" xmlns="http://www.w3.org/2000/svg"><path d="M0 63c0-6.365 2.49-12.47 6.923-16.97C11.357 41.528 17.37 39 23.638 39c6.27 0 12.282 2.529 16.715 7.03 4.433 4.5 6.923 10.605 6.923 16.97H0Zm23.638-27C13.843 36 5.91 27.945 5.91 18S13.843 0 23.638 0c9.795 0 17.729 8.055 17.729 18s-7.934 18-17.729 18Zm21.756 6.699a22.138 22.138 0 0 1 11.54 7.422A22.707 22.707 0 0 1 62 63h-8.814c0-7.83-2.955-14.958-7.792-20.301Zm-5.977-6.828a23.926 23.926 0 0 0 5.81-8.083A24.252 24.252 0 0 0 47.277 18a24.18 24.18 0 0 0-3-11.709 14.736 14.736 0 0 1 8.52 5.203A15.142 15.142 0 0 1 56.141 21c0 2.137-.449 4.25-1.318 6.197a14.982 14.982 0 0 1-3.721 5.09 14.71 14.71 0 0 1-5.461 3.075 14.558 14.558 0 0 1-6.224.509Z" fill="#fff"/></svg>