<svg viewBox="0 0 40 40" xmlns="http://www.w3.org/2000/svg">  <g id="Icon-Architecture/32/Arch_AWS-Application-Auto-Scaling_32" stroke="none" stroke-width="1" fill="none" fill-rule="evenodd">  <g id="Icon-Service/32/AWS-Application-Auto-Scaling_32" transform="translate(6.000000, 6.000000)" fill="#FFFFFF"> <path d="M6.854,13.14625 C7.049,13.34125 7.049,13.65825 6.854,13.85325 L3.354,17.35325 L2.647,16.64625 L5.293,14.00025 L1.77635684e-15,14.00025 L1.77635684e-15,13.00025 L5.293,13.00025 L2.647,10.35325 L3.354,9.64625 L6.854,13.14625 Z M28,14.00025 L22.708,14.00025 L25.354,16.64625 L24.647,17.35325 L21.147,13.85325 C20.952,13.65825 20.952,13.34125 21.147,13.14625 L24.647,9.64625 L25.354,10.35325 L22.708,13.00025 L28,13.00025 L28,14.00025 Z M17.647,23.64625 L18.354,24.35325 L14.854,27.85325 C14.756,27.95125 14.628,28.00025 14.5,28.00025 C14.373,28.00025 14.245,27.95125 14.147,27.85325 L10.647,24.35325 L11.354,23.64625 L14,26.29225 L14,22.00025 L15,22.00025 L15,26.29225 L17.647,23.64625 Z M11.354,4.35325 L10.647,3.64625 L14.147,0.14625 C14.342,-0.04875 14.659,-0.04875 14.854,0.14625 L18.354,3.64625 L17.647,4.35325 L15,1.70725 L15,6.00025 L14,6.00025 L14,1.70725 L11.354,4.35325 Z M18,10.79325 C17.524,10.64925 16.991,10.68625 16.494,10.91725 C16.115,11.09525 15.809,11.39825 15.632,11.77225 C15.317,12.44025 15.351,13.16425 15.726,13.75625 C16.202,14.50725 17.169,14.85325 18,14.60025 L18,17.00025 L15.5,17.00025 C15.295,17.00025 15.112,17.12425 15.036,17.31425 C14.96,17.50425 15.008,17.72225 15.157,17.86225 C15.292,17.99225 15.717,18.45225 15.45,18.95125 C15.379,19.08325 15.254,19.26025 15.06,19.35125 C14.568,19.58125 14.198,19.42625 14.019,19.31325 C13.731,19.12925 13.559,18.81725 13.559,18.47925 C13.559,18.22425 13.634,18.06325 13.844,17.86225 C13.993,17.72125 14.041,17.50425 13.965,17.31425 C13.889,17.12425 13.706,17.00025 13.5,17.00025 L10,17.00025 L10,9.50025 C10,9.30725 10.274,9.00025 10.5,9.00025 L18,9.00025 L18,10.79325 Z M18.5,8.00025 L10.5,8.00025 C9.744,8.00025 9,8.74325 9,9.50025 L9,17.50025 C9,17.77625 9.224,18.00025 9.5,18.00025 L12.619,18.00025 C12.579,18.15025 12.559,18.30925 12.559,18.47925 C12.559,19.16125 12.904,19.78825 13.482,20.15625 C13.81,20.36525 14.178,20.47025 14.555,20.47025 C14.864,20.47025 15.18,20.39925 15.485,20.25725 C15.835,20.09225 16.128,19.80425 16.333,19.42225 C16.57,18.97725 16.593,18.47325 16.422,18.00025 L18.5,18.00025 C18.777,18.00025 19,17.77625 19,17.50025 L19,13.72225 C19,13.51825 18.876,13.33425 18.687,13.25825 C18.498,13.18125 18.283,13.22825 18.14,13.37525 C17.705,13.82925 16.902,13.74225 16.571,13.22225 C16.46,13.04725 16.309,12.68225 16.537,12.19925 C16.614,12.03625 16.75,11.90225 16.917,11.82325 C17.368,11.61325 17.823,11.68525 18.14,12.01525 C18.281,12.16225 18.498,12.21025 18.687,12.13325 C18.876,12.05725 19,11.87325 19,11.66925 L19,8.50025 C19,8.22325 18.777,8.00025 18.5,8.00025 L18.5,8.00025 Z" id="AWS-Application-Auto-Scaling_32_Squid"></path> </g> </g></svg>