<svg width="20" height="20" viewBox="0 0 74 96" fill="none" xmlns="http://www.w3.org/2000/svg">
    <path
        d="M0 12C0 8.8174 1.2994 5.76516 3.61235 3.51472C5.9253 1.26428 9.06233 0 12.3333 0L61.6667 0C64.9377 0 68.0747 1.26428 70.3876 3.51472C72.7006 5.76516 74 8.8174 74 12V84C74 87.1826 72.7006 90.2348 70.3876 92.4853C68.0747 94.7357 64.9377 96 61.6667 96H12.3333C9.06233 96 5.9253 94.7357 3.61235 92.4853C1.2994 90.2348 0 87.1826 0 84V12ZM27.75 12C26.9322 12 26.148 12.3161 25.5698 12.8787C24.9915 13.4413 24.6667 14.2044 24.6667 15C24.6667 15.7956 24.9915 16.5587 25.5698 17.1213C26.148 17.6839 26.9322 18 27.75 18H46.25C47.0677 18 47.852 17.6839 48.4302 17.1213C49.0085 16.5587 49.3333 15.7956 49.3333 15C49.3333 14.2044 49.0085 13.4413 48.4302 12.8787C47.852 12.3161 47.0677 12 46.25 12H27.75ZM37 66C41.9065 66 46.6121 64.1036 50.0815 60.7279C53.5509 57.3523 55.5 52.7739 55.5 48C55.5 43.2261 53.5509 38.6477 50.0815 35.2721C46.6121 31.8964 41.9065 30 37 30C32.0935 30 27.3879 31.8964 23.9185 35.2721C20.4491 38.6477 18.5 43.2261 18.5 48C18.5 52.7739 20.4491 57.3523 23.9185 60.7279C27.3879 64.1036 32.0935 66 37 66ZM67.8333 82.53C62.567 76.95 53.1752 72 37 72C20.8248 72 11.433 76.956 6.16667 82.53V84C6.16667 85.5913 6.81637 87.1174 7.97284 88.2426C9.12932 89.3679 10.6978 90 12.3333 90H61.6667C63.3022 90 64.8707 89.3679 66.0272 88.2426C67.1836 87.1174 67.8333 85.5913 67.8333 84V82.53Z"
        fill="white" />
</svg>