<svg xmlns="http://www.w3.org/2000/svg" id="Layer_1" data-name="Layer 1" viewBox="0 0 1600 600"><defs><style>.cls-1{fill:none}.cls-2,.cls-5{fill:#2a2dde}.cls-2{fill-rule:evenodd}.cls-3{fill:#bcedc4}.cls-4{fill:#42a7b6}.cls-6{fill:#fff}.cls-7{fill:#fb8143}</style></defs><title>servicemeshinterface-horizontal-stackedtext-color</title><g id="Artboard"><g id="Rectangle"><rect width="2000" height="1617" y="10" class="cls-1"/></g><g id="Group"><g id="Service-Mesh-Interfa"><path d="M790,158.2c-25.8,0-41.8-8.6-50-15.8,1-10.4,6.4-19.2,13.8-23.8,8.4,6.8,21.8,12.2,36.8,12.2,14.4,0,20-4.6,20-11.6,0-6.6-3.2-10.4-25.8-16.2-21.6-5.2-40.6-13.6-40.8-39.4,0-24.6,19.6-40.4,49.2-40.4,22.2,0,37,7.2,44.6,13.2-.6,9.2-5.6,19.4-13.8,24.2a57.00286,57.00286,0,0,0-32.8-10C779.4,50.6,773,55,773,61c0,6.4,2.8,9.2,25.8,14.8,24,6,40.4,16.2,40.8,39.2C840.2,142.8,820.8,158.2,790,158.2ZM952.63333,101a82.44132,82.44132,0,0,1-1,14h-63.2c1.8,13.4,9.2,19.4,23.4,19.4,12,0,20.6-4.8,28-9.6,6.2,4.8,10,12.8,10.8,20.2-8.4,6.4-21.4,13.4-42,13.4-29.4,0-50.6-18.2-50.6-50,0-30,21.2-51,49.6-51C934.43333,57.4,952.63333,74.4,952.63333,101Zm-64.2-2.8h36c0-9.2-4.4-17.6-16.6-18.2C896.43333,80,889.83333,87.4,888.43333,98.2ZM1017.06668,57c9,0,16.4,1,22,2.8-.2,9.8-3,19-8.4,25.8a41.42382,41.42382,0,0,0-11.4-1.4c-6.2,0-11.4,1.2-14.6,2.8v68a93.1,93.1,0,0,1-29.8,0V71.6C981.46666,65.6,996.26666,57,1017.06668,57ZM1129.1,59.6a89.901,89.901,0,0,1,19.6,2.2c-8.6,36.8-18.6,65-35.8,93.2a72.22023,72.22023,0,0,1-14.6,1.4,74.18041,74.18041,0,0,1-14.8-1.4c-19-29.4-28.2-57.2-36.2-93.2a106.40419,106.40419,0,0,1,21.4-2.2,96.06084,96.06084,0,0,1,11,.6c5.4,27.4,13,53,17.8,65.2.4,1.4.8,2.8,1.2,4.6.4-1.8.8-3.2,1.2-4.6,5.4-13.4,12.2-37.8,17.6-65.2A104.41281,104.41281,0,0,1,1129.1,59.6Zm52.83331-11.8a18.18383,18.18383,0,0,1-18-18,18.00112,18.00112,0,0,1,36,0A18.18381,18.18381,0,0,1,1181.93332,47.8Zm-.2,108.4a94.20493,94.20493,0,0,1-14.8-1.2V60a90.48579,90.48579,0,0,1,14.8-1.2,98.68675,98.68675,0,0,1,15,1.2v95A91.14158,91.14158,0,0,1,1181.73334,156.2Zm89.43335,2.2c-32.2,0-52.2-18.6-52.2-50.6,0-31.2,22-51,51.4-51,14.6,0,27.4,5.6,33,10.6-1.8,8-8,16.4-15.4,21a24.7633,24.7633,0,0,0-16.8-6.6c-14.6,0-22.2,11-22.2,25.6,0,14.2,7,26,22.4,26,9.2,0,14.2-3.2,18.4-7,7.4,3.6,12.8,10.6,15.2,19.6C1298.16669,152.2,1286.56665,158.4,1271.16669,158.4ZM1411.4,101a82.44235,82.44235,0,0,1-1,14h-63.2c1.8,13.4,9.2,19.4,23.4,19.4,12,0,20.6-4.8,28-9.6,6.2,4.8,10,12.8,10.8,20.2-8.4,6.4-21.4,13.4-42,13.4-29.4,0-50.6-18.2-50.6-50,0-30,21.2-51,49.6-51C1393.2,57.4,1411.4,74.4,1411.4,101Zm-64.2-2.8h36c0-9.2-4.4-17.6-16.6-18.2C1355.2,80,1348.6,87.4,1347.2,98.2ZM866.4,225.6a81.11218,81.11218,0,0,1,15.2,1.4V355a83.52261,83.52261,0,0,1-13.6,1.2,90.255,90.255,0,0,1-14-1.2V293l1-18.8-5,14.6-22,55.4a93.91251,93.91251,0,0,1-12.4.8,103.50953,103.50953,0,0,1-12.6-.8l-23.2-55.6-4.6-12.2L776,293v62a88.27084,88.27084,0,0,1-14,1.2,83.5224,83.5224,0,0,1-13.6-1.2V227.2a59.05914,59.05914,0,0,1,15-1.6,114.5846,114.5846,0,0,1,16.2,1.2L814.2,306l2.4,6.4,2-6.4,32-79.2A97.55462,97.55462,0,0,1,866.4,225.6ZM1000.23334,301a82.44235,82.44235,0,0,1-1,14h-63.2c1.8,13.4,9.2,19.4,23.4,19.4,12,0,20.6-4.8,28-9.6,6.2,4.8,10,12.8,10.8,20.2-8.4,6.4-21.4,13.4-42,13.4-29.4,0-50.6-18.2-50.6-50,0-30,21.2-51,49.6-51C982.03334,257.4,1000.23334,274.4,1000.23334,301Zm-64.2-2.8h36c0-9.2-4.4-17.6-16.6-18.2C944.03334,280,937.43333,287.4,936.03334,298.2Zm123.23332,60.2c-21.4,0-35.8-6.8-42-12,1.6-9.4,6-16.4,11.8-20,7,4.4,16.8,9.6,31.2,9.6,9.2,0,12.4-3.4,12.4-7.6,0-5-5-7.6-20.6-10.4-15.6-3.2-32-8.8-32-29.8,0-19.6,18-30.8,41.8-30.8,19.8,0,32,4.6,38.6,8.8-1.2,9.6-5,16.6-10.4,20.8a60.40283,60.40283,0,0,0-27.8-7c-9.4,0-13.8,2-13.8,6.8s4.2,6.6,19.2,9.4c18.8,3.2,34.6,9.4,34.6,30C1102.26666,346,1087.06668,358.4,1059.26666,358.4ZM1175.1,256.8c28.4,0,43.2,16.6,43.2,37.8V355a94.8012,94.8012,0,0,1-15,1.2,92.31772,92.31772,0,0,1-14.8-1.2V302.2c0-11.8-5.4-18.4-17.6-18.4a33.49558,33.49558,0,0,0-16.2,4.4V355a90.48689,90.48689,0,0,1-14.8,1.2,103.31669,103.31669,0,0,1-15.2-1.2V224a90.48515,90.48515,0,0,1,14.8-1.2,103.31574,103.31574,0,0,1,15.2,1.2v36.8A52.937,52.937,0,0,1,1175.1,256.8ZM763.6,556.2a99.25589,99.25589,0,0,1-15.2-1.2V426.8a70.80117,70.80117,0,0,1,14.6-1.2,80.40614,80.40614,0,0,1,15.2,1.2V555A88.06131,88.06131,0,0,1,763.6,556.2Zm91.83333-99.4c31.6,0,45.8,17.2,45.8,40.6V555a94.34922,94.34922,0,0,1-30,0V502.2c0-13.6-7.4-18.4-18-18.4a32.17108,32.17108,0,0,0-16,4V555a94.8012,94.8012,0,0,1-15,1.2,92.31784,92.31784,0,0,1-14.8-1.2V472.6C814.83334,466,831.83334,456.8,855.43333,456.8ZM992.06668,527c5.8,3.4,11.4,12.4,12.4,20.4a47.39817,47.39817,0,0,1-30.8,10.6c-21.8,0-38.2-9.2-38.2-32.4V486h-16.2a79.85466,79.85466,0,0,1-1-12.4,80.94746,80.94746,0,0,1,1-12h16.2v-25a99.25236,99.25236,0,0,1,15.2-1.2,85.66652,85.66652,0,0,1,14.4,1.2v25h33.2a57.68843,57.68843,0,0,1,1.4,11.8,65.70677,65.70677,0,0,1-1.4,12.6h-33.2v32.2c0,10.8,5,14.4,13.8,14.4C984.46666,532.6,988.86667,529.8,992.06668,527ZM1111.5,501a82.44235,82.44235,0,0,1-1,14h-63.2c1.8,13.4,9.2,19.4,23.4,19.4,12,0,20.6-4.8,28-9.6,6.2,4.8,10,12.8,10.8,20.2-8.4,6.4-21.4,13.4-42,13.4-29.4,0-50.6-18.2-50.6-50,0-30,21.2-51,49.6-51C1093.3,457.4,1111.5,474.4,1111.5,501Zm-64.2-2.8h36c0-9.2-4.4-17.6-16.6-18.2C1055.3,480,1048.7,487.4,1047.3,498.2ZM1175.93332,457c9,0,16.4,1,22,2.8-.2,9.8-3,19-8.4,25.8a41.424,41.424,0,0,0-11.4-1.4c-6.2,0-11.4,1.2-14.6,2.8v68a93.09923,93.09923,0,0,1-29.8,0V471.6C1140.33334,465.6,1155.13333,457,1175.93332,457Zm87.23337-35.4c12,0,20.8,3.6,25.8,7-.6,8-6,17-11.6,20.8a22.02446,22.02446,0,0,0-12.19995-3.4c-7.80005,0-12.4,3.6-12.4,13v3h20.8a59.95115,59.95115,0,0,1,1.4,12.2,58.34083,58.34083,0,0,1-1.4,12.2h-20.8V555a70.80112,70.80112,0,0,1-14.6,1.2,79.15065,79.15065,0,0,1-15.2-1.2V486.2h-12.4a52.26969,52.26969,0,0,1-1.2-11.8,60.67409,60.67409,0,0,1,1.2-12.4h12.4C1223.76666,435,1240.36667,421.6,1263.16669,421.6ZM1330.8,457.4c27.6,0,46.6,12,46.6,41.6v49.8a127.50521,127.50521,0,0,1-48,9.4c-27.2,0-43-10.4-43-31.2,0-20,17.2-30.2,41.4-30,7.6.2,14.2,1,20,2.8V496c0-8.2-5.6-14-19.6-14-11.2,0-20.8,4.4-25.8,8.2a26.07484,26.07484,0,0,1-12.8-19C1295,466.4,1310,457.4,1330.8,457.4Zm-14.6,68.4c0,7,5.8,11.6,17.2,11.6a51.36444,51.36444,0,0,0,14.4-2.2V517.8a58.12049,58.12049,0,0,0-16.4-2.2C1322,515.6,1316.2,518.8,1316.2,525.8Zm133.23334,32.6c-32.2,0-52.2-18.6-52.2-50.6,0-31.2,22-51,51.4-51,14.6,0,27.4,5.6,33,10.6-1.8,8-8,16.4-15.4,21a24.76333,24.76333,0,0,0-16.8-6.6c-14.6,0-22.2,11-22.2,25.6,0,14.2,7,26,22.4,26,9.2,0,14.2-3.2,18.4-7,7.4,3.6,12.8,10.6,15.2,19.6C1476.43335,552.2,1464.83331,558.4,1449.43335,558.4ZM1589.66669,501a82.44338,82.44338,0,0,1-1,14h-63.2c1.8,13.4,9.2,19.4,23.4,19.4,12,0,20.6-4.8,28-9.6,6.2,4.8,10,12.8,10.80005,20.2-8.4,6.4-21.4,13.4-42,13.4-29.4,0-50.6-18.2-50.6-50,0-30,21.2-51,49.6-51C1571.46667,457.4,1589.66669,474.4,1589.66669,501Zm-64.2-2.8h36c0-9.2-4.4-17.6-16.6-18.2C1533.46667,480,1526.86664,487.4,1525.46667,498.2Z" class="cls-2"/></g></g><g id="_3-x-3-diags" data-name="3-x-3-diags"><g id="Path-4"><path d="M263.68359,521.49609a19.9364,19.9364,0,0,1-14.14209-5.85742L48.811,314.9082a20.0001,20.0001,0,0,1,28.28417-28.28466l200.73047,200.73a20,20,0,0,1-14.14209,34.14257Z" class="cls-3"/></g><g id="Path-4-2" data-name="Path-4"><path d="M62.95312,320.49609A19.99976,19.99976,0,0,1,48.811,286.354L249.5415,85.62354a19.99993,19.99993,0,0,1,28.28418,28.28417L77.09521,314.63867A19.93636,19.93636,0,0,1,62.95312,320.49609Z" class="cls-3"/></g><g id="Path-4-3" data-name="Path-4"><path d="M262.95312,321.49609A19.99976,19.99976,0,0,1,248.811,287.354L449.5415,86.62354a19.99993,19.99993,0,0,1,28.28418,28.28417l-200.73047,200.731A19.93636,19.93636,0,0,1,262.95312,321.49609Z" class="cls-3"/></g><g id="Path-4-4" data-name="Path-4"><path d="M262.95312,519.49609A20,20,0,0,1,248.811,485.35352l200.73046-200.73a20.00011,20.00011,0,1,1,28.28418,28.28466L277.09521,513.63867A19.93636,19.93636,0,0,1,262.95312,519.49609Z" class="cls-3"/></g><g id="Oval"><circle cx="63" cy="100" r="25" class="cls-4"/></g><g id="Oval-2" data-name="Oval"><circle cx="263" cy="100" r="25" class="cls-4"/></g><g id="Oval-3" data-name="Oval"><circle cx="463" cy="100" r="25" class="cls-4"/></g><g id="Oval-4" data-name="Oval"><circle cx="63" cy="300" r="25" class="cls-4"/></g><g id="Oval-5" data-name="Oval"><circle cx="263" cy="300" r="25" class="cls-4"/></g><g id="Oval-6" data-name="Oval"><circle cx="463" cy="300" r="25" class="cls-4"/></g><g id="Oval-7" data-name="Oval"><circle cx="463" cy="500" r="25" class="cls-4"/></g><g id="Oval-8" data-name="Oval"><circle cx="63" cy="500" r="25" class="cls-4"/></g><g id="Rectangle-2" data-name="Rectangle"><rect width="110" height="110" x="208" y="445" class="cls-5"/><path d="M353,590H173V410H353ZM243,520h40V480H243Z" class="cls-5"/></g><g id="Oval-9" data-name="Oval"><circle cx="263" cy="500" r="25" class="cls-6"/></g><g id="Oval-3-Copy"><circle cx="463" cy="101" r="57.5" class="cls-6"/><path d="M463,191a90,90,0,1,1,90-90A90.10217,90.10217,0,0,1,463,191Zm0-115a25,25,0,1,0,25,25A25.02817,25.02817,0,0,0,463,76Z" class="cls-7"/></g></g></g></svg>