<svg width="40" height="40" viewBox="0 0 40 40" xmlns="http://www.w3.org/2000/svg">  <g id="Icon-Architecture/32/Arch_AWS-Payment-Cryptography_32" stroke="none" stroke-width="1" fill="none" fill-rule="evenodd">  <g id="Icon-Service/32/AWS-Payment-Cryptography_32" transform="translate(6.000000, 5.500000)" fill="#FFFFFF"> <path d="M5,19.4997943 L9,19.4997943 L9,16.4997943 L5,16.4997943 L5,19.4997943 Z M9.5,20.4997943 L4.5,20.4997943 C4.224,20.4997943 4,20.2757943 4,19.9997943 L4,15.9997943 C4,15.7237943 4.224,15.4997943 4.5,15.4997943 L9.5,15.4997943 C9.776,15.4997943 10,15.7237943 10,15.9997943 L10,19.9997943 C10,20.2757943 9.776,20.4997943 9.5,20.4997943 L9.5,20.4997943 Z M19,23.4997943 L23,23.4997943 L23,22.4997943 L19,22.4997943 L19,23.4997943 Z M14,23.4997943 L18,23.4997943 L18,22.4997943 L14,22.4997943 L14,23.4997943 Z M9,23.4997943 L13,23.4997943 L13,22.4997943 L9,22.4997943 L9,23.4997943 Z M4,23.4997943 L8,23.4997943 L8,22.4997943 L4,22.4997943 L4,23.4997943 Z M27,24.5237943 L27,17.4997943 L26,17.4997943 L26,24.5237943 C26,25.6137943 25.113,26.4997943 24.023,26.4997943 L2.977,26.4997943 C1.887,26.4997943 1,25.6137943 1,24.5237943 L1,13.4757943 C1,12.3857943 1.887,11.4997943 2.977,11.4997943 L13,11.4997943 L13,10.4997943 L2.977,10.4997943 C1.335,10.4997943 0,11.8347943 0,13.4757943 L0,24.5237943 C0,26.1647943 1.335,27.4997943 2.977,27.4997943 L24.023,27.4997943 C25.665,27.4997943 27,26.1647943 27,24.5237943 L27,24.5237943 Z M16.071,4.23679431 C16.061,4.23679431 16.049,4.23679431 16.038,4.23779431 C15.837,4.24679431 15.652,4.33279431 15.517,4.48079431 C15.381,4.62879431 15.311,4.82079431 15.319,5.02179431 C15.328,5.22279431 15.415,5.40779431 15.563,5.54279431 C15.712,5.67879431 15.895,5.75079431 16.104,5.73979431 C16.305,5.73079431 16.49,5.64479431 16.625,5.49679431 C16.905,5.19079431 16.884,4.71379431 16.578,4.43379431 C16.438,4.30579431 16.26,4.23679431 16.071,4.23679431 L16.071,4.23679431 Z M16.069,6.74079431 C15.631,6.74079431 15.214,6.57879431 14.888,6.28079431 C14.543,5.96479431 14.341,5.53379431 14.32,5.06579431 C14.3,4.59879431 14.463,4.15079431 14.778,3.80579431 C15.095,3.46079431 15.526,3.25879431 15.993,3.23879431 C16.464,3.20979431 16.908,3.38079431 17.254,3.69679431 C17.966,4.34879431 18.015,5.45879431 17.363,6.17179431 C17.047,6.51679431 16.615,6.71879431 16.147,6.73879431 C16.122,6.73979431 16.096,6.74079431 16.069,6.74079431 L16.069,6.74079431 Z M24.949,15.1057943 L26,15.3627943 L26,13.2157943 L19.751,7.33879431 C19.592,7.18879431 19.549,6.95279431 19.644,6.75579431 C20.412,5.17479431 20.042,3.23979431 18.743,2.05079431 C17.867,1.24879431 16.685,0.877794305 15.508,1.03479431 C14.328,1.19179431 13.279,1.86879431 12.63,2.89279431 C11.747,4.28579431 11.846,6.16679431 12.87,7.46579431 C13.998,8.89379431 15.881,9.39679431 17.549,8.71879431 C17.731,8.64679431 17.934,8.68379431 18.075,8.81279431 L19.345,9.97579431 C19.442,10.0647943 19.501,10.1897943 19.507,10.3227943 L19.564,11.6427943 L20.884,11.5837943 C21.035,11.5737943 21.146,11.6257943 21.244,11.7147943 L22.194,12.5847943 C22.292,12.6737943 22.351,12.7987943 22.356,12.9317943 L22.414,14.2507943 L23.733,14.1927943 C23.862,14.1837943 23.995,14.2327943 24.094,14.3237943 L24.949,15.1057943 Z M26.5,16.4997943 C26.46,16.4997943 26.421,16.4947943 26.382,16.4857943 L24.588,16.0477943 C24.506,16.0277943 24.431,15.9877943 24.368,15.9307943 L23.571,15.2007943 L21.959,15.2717943 C21.829,15.2787943 21.697,15.2307943 21.599,15.1417943 C21.501,15.0517943 21.442,14.9267943 21.437,14.7947943 L21.366,13.1827943 L20.722,12.5927943 L19.109,12.6637943 C18.789,12.6797943 18.6,12.4607943 18.588,12.1857943 L18.517,10.5737943 L17.625,9.75679431 C15.613,10.4287943 13.425,9.78079431 12.085,8.08479431 C10.781,6.43279431 10.661,4.13079431 11.786,2.35679431 C12.594,1.08279431 13.902,0.239794305 15.376,0.043794305 C16.845,-0.151205695 18.323,0.310794305 19.419,1.31379431 C20.948,2.71479431 21.447,4.94479431 20.693,6.85179431 L26.843,12.6357943 C26.943,12.7297943 27,12.8617943 27,12.9997943 L27,15.9997943 C27,16.1527943 26.93,16.2977943 26.809,16.3927943 C26.72,16.4627943 26.61,16.4997943 26.5,16.4997943 L26.5,16.4997943 Z" id="Fill-5"></path> </g> </g></svg>