<svg width="24px" height="24px" viewBox="0 0 24 24" fill="none" xmlns="http://www.w3.org/2000/svg">
<path d="M18.5601 3.00012C18.6087 2.99879 18.657 3.00705 18.7024 3.02442C18.7478 3.0418 18.7894 3.06795 18.8247 3.10138C18.86 3.13481 18.8883 3.17487 18.9081 3.21927C18.9279 3.26366 18.9388 3.31153 18.9401 3.36012V7.51012C18.9255 7.59907 18.8798 7.67994 18.8111 7.73829C18.7424 7.79664 18.6552 7.82868 18.5651 7.82868C18.4749 7.82868 18.3877 7.79664 18.319 7.73829C18.2504 7.67994 18.2046 7.59907 18.1901 7.51012V3.39012C18.1873 3.33988 18.1949 3.2896 18.2123 3.24238C18.2297 3.19515 18.2565 3.15197 18.2911 3.11546C18.3257 3.07896 18.3675 3.0499 18.4137 3.03007C18.4599 3.01024 18.5097 3.00005 18.5601 3.00012ZM21.7101 4.41012V6.00012C21.7088 6.04872 21.6979 6.09658 21.6781 6.14097C21.6583 6.18537 21.63 6.22543 21.5947 6.25886C21.5594 6.2923 21.5178 6.31845 21.4724 6.33582C21.427 6.35319 21.3787 6.36145 21.3301 6.36012C21.2399 6.35258 21.1558 6.31135 21.0947 6.24463C21.0335 6.17792 20.9998 6.09062 21.0001 6.00012V4.44012C21.0001 4.39199 21.0097 4.34435 21.0284 4.30001C21.0471 4.25566 21.0745 4.21552 21.109 4.18196C21.1435 4.1484 21.1844 4.12209 21.2292 4.1046C21.2741 4.08711 21.322 4.07878 21.3701 4.08012C21.4612 4.08751 21.5464 4.12838 21.6092 4.19486C21.672 4.26134 21.7079 4.34871 21.7101 4.44012V4.41012ZM19.5701 2.67012V8.00012C19.5846 8.08907 19.6304 8.16994 19.699 8.22829C19.7677 8.28664 19.8549 8.31868 19.9451 8.31868C20.0352 8.31868 20.1224 8.28664 20.1911 8.22829C20.2598 8.16994 20.3055 8.08907 20.3201 8.00012V2.67012C20.3055 2.58118 20.2598 2.50031 20.1911 2.44195C20.1224 2.3836 20.0352 2.35156 19.9451 2.35156C19.8549 2.35156 19.7677 2.3836 19.699 2.44195C19.6304 2.50031 19.5846 2.58118 19.5701 2.67012ZM16.8201 4.19012V6.41012C16.8346 6.49907 16.8804 6.57994 16.949 6.63829C17.0177 6.69664 17.1049 6.72868 17.1951 6.72868C17.2852 6.72868 17.3724 6.69664 17.4411 6.63829C17.5098 6.57994 17.5555 6.49907 17.5701 6.41012V4.19012C17.5555 4.10118 17.5098 4.02031 17.4411 3.96195C17.3724 3.9036 17.2852 3.87156 17.1951 3.87156C17.1049 3.87156 17.0177 3.9036 16.949 3.96195C16.8804 4.02031 16.8346 4.10118 16.8201 4.19012Z" fill="white"/>
<path d="M2.25 20.8299V5.29992C2.24999 4.80304 2.44669 4.32637 2.7971 3.97408C3.14751 3.6218 3.62313 3.42256 4.12 3.41992H15.9V4.91992H4.12C4.02096 4.92253 3.92686 4.96371 3.85774 5.0347C3.78863 5.10568 3.74997 5.20085 3.75 5.29992V17.2099L4.81 16.1499H18.81C18.909 16.1473 19.0031 16.1061 19.0723 16.0351C19.1414 15.9642 19.18 15.869 19.18 15.7699V9.35992H20.68V15.7699C20.68 16.2668 20.4833 16.7435 20.1329 17.0958C19.7825 17.448 19.3069 17.6473 18.81 17.6499H5.43L2.25 20.8299Z" fill="white"/>
<path d="M13.7599 6.66992V7.87992H12.2499C11.8664 9.07515 11.2399 10.1782 10.4099 11.1199L11.6799 12.3699L11.2199 13.5999L9.59993 11.9999L7.04993 14.5299L6.19993 13.6699L8.78993 11.1199C8.20422 10.4541 7.71908 9.7062 7.34993 8.89992L7.25993 8.70992H8.47993C8.77062 9.28928 9.13717 9.82735 9.56993 10.3099C10.2152 9.58017 10.7173 8.73546 11.0499 7.81992H5.42993V6.66992H8.99993V5.66992H10.1999V6.66992H13.7599ZM12.4399 15.4199H13.7199L14.2399 13.9399H16.5999L17.1199 15.4199H18.4099L16.0899 9.23992H14.7499L12.4399 15.4199ZM14.6099 12.8699L15.1599 11.3199L15.3899 10.5799H15.4599L15.6799 11.3199L16.2299 12.8699H14.6099Z" fill="white"/>
</svg>
