<svg id="svg192014" xmlns="http://www.w3.org/2000/svg" viewBox="0 0 500 500"><defs><style>.cls-1,.cls-2{opacity:0.984;isolation:isolate;}.cls-2{fill:#fff;}</style></defs><g class="cls-1"><path class="cls-2" d="M487.14781,244.32472C484.62023,113.40486,376.43932,9.32252,245.51964,11.85029,114.59972,14.37806,10.51744,122.55873,13.045,253.47859c2.52783,130.91986,110.7085,235.00226,241.62842,232.47449S489.67565,375.24464,487.14781,244.32472ZM254.09215,455.85121C139.79723,458.058,45.35362,367.19258,43.14684,252.89741S131.80553,44.15877,246.10069,41.952,454.83922,130.61079,457.04625,244.906C459.25279,359.20112,368.38732,453.64442,254.09215,455.85121Z"/><path class="cls-2" d="M178.26842,208.3116c18.25439,3.77276,33.3645-10.81153,28.35083-29.46668C201.60558,160.189,180.82823,109.67286,165.18,98.758a15.83682,15.83682,0,0,0-9.41553-2.87647v-.00012c-14.31469.11579-30.866,16.87183-38.94311,25.68952-9.94116,10.852-30.45752,34.41088-18.50611,49.80291C110.26671,186.76619,160.014,204.5395,178.26842,208.3116Z"/><path class="cls-2" d="M186.81261,291.39424a28.35556,28.35556,0,0,0-6.77857.97113c-18.65527,5.01355-69.17187,25.78265-80.08667,41.43079s11.9607,38.42608,22.81275,48.36712c10.85229,9.94116,34.41138,30.449,49.80322,18.49793,15.39209-11.95136,33.16577-61.69055,36.938-79.94483C212.80211,304.74379,202.05016,291.17738,186.81261,291.39424Z"/><path class="cls-2" d="M268.891,168.61726c9.64624-16.73633,30.67529-67.14319,27.32837-85.92584-2.92847-16.435-28.00293-18.43567-44.07691-18.24689l.00025.00049c-2.2959.04578-4.41016.08533-6.24781.17841-14.70312.645-45.86328,2.796-48.29638,22.13079-2.43262,19.3349,20.16626,67.077,30.40674,82.6521C238.24547,184.982,259.245,185.35377,268.891,168.61726Z"/><path class="cls-2" d="M320.15685,205.42122c18.65527-5.01416,69.17187-25.78333,80.08667-41.43079,10.915-15.64807-11.96045-38.41754-22.8125-48.3587-8.81739-8.07727-26.02222-23.13819-40.42041-22.09046a16.99041,16.99041,0,0,0-9.38306,3.58411c-15.39209,11.95172-33.16577,61.69055-36.938,79.94476S301.50157,210.43483,320.15685,205.42122Z"/><path class="cls-2" d="M169.80821,230.10841c-15.69043-9.043-60.97558-28.10046-82.05151-27.6886l.00024.00208a24.83374,24.83374,0,0,0-3.875.34991c-18.78295,3.347-18.71142,35.62958-18.06738,50.33283.645,14.70343,2.80469,45.8634,22.13941,48.296,19.33447,2.43329,67.06811-20.17377,82.64355-30.41461C186.17272,260.74574,186.54479,239.75471,169.80821,230.10841Z"/><path class="cls-2" d="M321.93151,289.49165a28.14872,28.14872,0,0,0-6.66553-.57794v.00037c-15.053.52-26.07251,13.721-21.68555,30.04412,5.01367,18.65522,25.78272,69.17212,41.43091,80.087,15.64819,10.91461,38.41748-11.96051,48.35864-22.81238,9.94116-10.85241,30.45752-34.4115,18.50611-49.80383C389.92467,311.03706,340.1859,293.26375,321.93151,289.49165Z"/><path class="cls-2" d="M412.24571,196.40053a27.16626,27.16626,0,0,0-3.94384-.17072v.00305c-21.23291.5185-64.1062,20.98206-78.708,30.58234-15.5752,10.24029-15.947,31.24.78931,40.88562,16.73657,9.6463,67.14355,30.67505,85.92626,27.32861,18.78272-3.34711,18.71143-35.621,18.06739-50.32434S431.58043,198.83308,412.24571,196.40053Z"/><path class="cls-2" d="M302.34093,413.724c-4.06763-14.93719-9.14868-29.61871-13.95923-44.3374-7.10278-24.37775-14.4834-53.25616-15.69238-71.8833-.05347-1.22876-.13965-2.4505-.16309-3.685A50.23657,50.23657,0,0,0,300.328,247.88893c-.0144-.848-.06079-1.68927-.11572-2.5268-.05323-.817-.13282-1.62628-.228-2.43219q-.14393-1.2192-.34522-2.42132h-.002a49.89158,49.89158,0,0,0-6.93115-18.24133c-.36914-.5893-.75391-1.16986-1.147-1.74213-.08057-.11884-.156-.238-.2378-.35681q-.69067-.988-1.42382-1.94275c-.38965-.50317-.79249-.99591-1.20069-1.48535-.13476-.16321-.26318-.32709-.40039-.4856-.30273-.35528-.61914-.69525-.93164-1.04083-.24023-.26447-.47583-.53516-.72119-.79675-.55518-.58857-1.12378-1.16785-1.70972-1.73188-.58545-.56341-1.18677-1.10931-1.79614-1.64123-.25391-.21887-.51855-.43152-.7771-.64887-.375-.314-.74731-.63281-1.13135-.936-.17456-.1402-.356-.26843-.533-.40259-.47876-.36981-.96093-.73419-1.45337-1.08526-.11743-.08448-.2395-.16156-.35766-.24555-.5603-.39105-1.12549-.77728-1.70264-1.14752a.67611.67611,0,0,0-.18677-.1106c-.62353-.395-1.25366-.78235-1.89575-1.15179a3.12813,3.12813,0,0,0-.27612-.14935c-.62744-.35529-1.262-.70221-1.906-1.03064-.03808.00061-.07617-.061-.10986-.061q-1.04627-.53064-2.12012-1.01336a49.859,49.859,0,0,0-11.68994-3.61847c-.80127-.14569-1.60864-.2677-2.42261-.37214-.06079.001-.10986.002-.16381.00422-.76514-.09381-1.532-.183-2.30689-.24176-.80762-.06855-1.62183-.10669-2.43921-.13654-.84082-.04578-1.68359-.03052-2.53369-.01459l-.00732-.00512c-.84522.01452-1.68775.03045-2.52662.11743-.81542.07623-1.62768.13427-2.43212.23022-.772.08991-1.53516.20191-2.29566.33167-.061.0011-.10986.002-.16333.00415-.80932.13653-1.61108.28888-2.40649.465a49.85882,49.85882,0,0,0-11.54151,4.067c-.70312.34619-1.39624.71356-2.07934,1.09442-.03833.00061-.06861.06091-.1084.06091q-.94593.534-1.865,1.10291c-.08936.06091-.18066.10669-.27.16-.62744.39649-1.24146.80439-1.84985,1.2248a1.631,1.631,0,0,1-.18238.12426c-.56176.3888-1.11181.79853-1.65674,1.21235-.11523.08764-.23339.17071-.34765.25921-.479.37055-.94605.754-1.41065,1.14057-.17138.14105-.34692.28131-.51684.42315-.37207.3172-.73194.65033-1.09448.97895-.25.22876-.50538.446-.75171.67858-.0022.00617-.01441.00025-.01441.00037q-.87523.82572-1.71484,1.69647c-.562.58478-1.1084,1.18579-1.6416,1.79651-.23633.26837-.4607.54822-.69019.82379-.29883.35608-.60132.71057-.89087,1.076-.13012.16321-.25293.33771-.3811.50092-.38892.507-.77271,1.01068-1.14258,1.53058q-.69873.98016-1.3479,1.99627c-.0769.122-.148.244-.22412.36511-.36963.587-.73267,1.1814-1.07886,1.78522a49.89924,49.89924,0,0,0-6.22168,18.49536h-.00293q-.15417,1.20795-.25146,2.43274c-.061.80866-.10913,1.62073-.13355,2.43915-.023.84161-.03808,1.6842-.01513,2.5293a50.23586,50.23586,0,0,0,29.5542,44.82184c.0227,1.23449-.01465,2.45861-.023,3.68853-.48877,18.66-6.74927,47.80176-12.90577,72.43531-4.23877,14.89355-8.74926,29.76013-12.2373,44.8432a23.44471,23.44471,0,0,0-.40186,2.91064c-.34082,3.37982.4917,4.63654,5.69556,5.38086q2.24268.55032,4.66626,1.03571a177.52952,177.52952,0,0,0,32.30591,3.04388c.16553-.00024.32934,0,.4956,0,1.42041.03113,2.83765,0,4.25953-.02075.75781-.02069,1.51294-.02271,2.272-.04547.76074-.02075,1.51684-.02277,2.27612-.04553,1.42163-.02277,2.83765-.1139,4.25684-.15119h.4956a177.39034,177.39034,0,0,0,32.16431-4.28863q2.39868-.57047,4.6228-1.21515c5.17139-.94483,5.95435-2.23267,5.48364-5.59668A23.4135,23.4135,0,0,0,302.34093,413.724Z"/></g></svg>