<svg id="Layer_1" data-name="Layer 1" xmlns="http://www.w3.org/2000/svg" viewBox="0 0 111.58 111.28" width='111.58' height='111.28'><defs><style>.cls-1{fill:#fff;}.cls-2{fill:#fff;}</style></defs><path class="cls-1" d="M92.62,52.17A36.68,36.68,0,0,0,83.88,32l-.58-.65A36.6,36.6,0,1,0,82.09,81.8c.6-.6,1.16-1.21,1.71-1.84A36.68,36.68,0,0,0,92.51,60.6c0-.31.07-.61.1-.92s0-.4.06-.6q.14-1.55.14-3.14A36.88,36.88,0,0,0,92.62,52.17ZM56.09,27.23a7.34,7.34,0,1,1-7.36,7.32A7.24,7.24,0,0,1,56.09,27.23Zm-28,22.23a7.32,7.32,0,1,1,7.34,7.36A7.24,7.24,0,0,1,28.08,49.47ZM43.53,80.19a7.34,7.34,0,1,1,7.3-7.27A7.28,7.28,0,0,1,43.53,80.19ZM56.1,61.51a5.47,5.47,0,0,1-5.48-5.38A5.44,5.44,0,0,1,61.48,56,5.52,5.52,0,0,1,56.1,61.51ZM68.28,80.19a7.34,7.34,0,1,1,7.29-7.27A7.29,7.29,0,0,1,68.28,80.19Zm8.6-23.36a7.34,7.34,0,1,1,7.3-7.27A7.28,7.28,0,0,1,76.88,56.82Z"></path><path class="cls-2" d="M111.12,55.92A54.65,54.65,0,0,1,98.23,91.26l-8.61-8.61a42.79,42.79,0,0,0,.28-53.11l8.62-8.62A54.69,54.69,0,0,1,111.12,55.92Z"></path><path class="cls-2" d="M91.55,13.89,82.94,22.5a42.8,42.8,0,0,0-53.11-.28L21.2,13.6a54.9,54.9,0,0,1,70.34.29Z"></path><path class="cls-2" d="M13.41,55.92a42.6,42.6,0,0,0,9.1,26.38l-8.62,8.62a54.91,54.91,0,0,1,.29-70.35l8.61,8.61A42.57,42.57,0,0,0,13.41,55.92Z"></path><path class="cls-2" d="M91.21,98.24a54.92,54.92,0,0,1-70.36-.29l8.61-8.61a42.8,42.8,0,0,0,53.11.28Z"></path></svg>