<svg xmlns="http://www.w3.org/2000/svg" role="img" viewBox="39.28 -1.97 281.94 323.44"><defs><linearGradient id="b" x1="-202.908" x2="-202.212" y1="-1.633" y2="-1.633" gradientTransform="rotate(64.94 -61021.575 94340.097) scale(594.10366)" gradientUnits="userSpaceOnUse"><stop offset="0" stop-color="#fff"/><stop offset="1" stop-color="#54bad8"/></linearGradient><clipPath id="a"><path fill="none" d="M183.91572 115.62933c-5.54817 7.11267-70.98378 22.98967-123.25192 46.53995v66.835l119.67377 69.09356 119.67379-69.09356v-13.88295a725.85637 725.85637 0 0 0-75.80815-10.22219c-105.26657-9.09661-7.79661-29.89085 36.3892-67.17C304.7791 100.44916 113.73735 89.235 113.73735 89.235s77.97583 16.39764 70.17832 26.39429"/></clipPath></defs><path fill="#192c47" d="M180.33827 4.32553L45.59879 82.11689v155.58548L180.33827 315.493l134.74018-77.79136V82.11689z"/><g clip-path="url(#a)"><path fill="url(#b)" d="M183.91572 115.62933c-5.54817 7.11267-70.98378 22.98967-123.25192 46.53995v66.835l119.67377 69.09356 119.67379-69.09356v-13.88295a725.85637 725.85637 0 0 0-75.80815-10.22219c-105.26657-9.09661-7.79661-29.89085 36.3892-67.17C304.7791 100.44916 113.73735 89.235 113.73735 89.235s77.97583 16.39764 70.17832 26.39429"/></g></svg>