<svg width="40" height="40"  viewBox="0 0 40 40" xmlns="http://www.w3.org/2000/svg">  <g id="Icon-Architecture/32/Arch_AWS-Console-Mobile-Application-_32" stroke="none" stroke-width="1" fill="none" fill-rule="evenodd">  <g id="Icon-Service/32/AWS-Console-Mobile-Application_32" transform="translate(6.000000, 6.000000)" fill="#FFFFFF"> <path d="M0,16 L12,16 L12,15 L0,15 L0,16 Z M5,13 L13,13 L13,12 L5,12 L5,13 Z M16.424,13.751 C16.672,13.691 16.835,13.455 16.803,13.202 C16.794,13.13 16.789,13.056 16.789,12.98 C16.789,12.326 17.289,11.594 17.903,11.349 C18.193,11.232 18.461,11.187 18.703,11.187 C19.392,11.187 19.877,11.558 20.089,11.758 C20.321,11.979 20.504,12.262 20.63,12.602 C20.693,12.771 20.844,12.893 21.022,12.92 C21.201,12.947 21.381,12.877 21.492,12.734 C21.626,12.563 21.84,12.49 22.042,12.553 C22.288,12.628 22.444,12.883 22.473,13.157 C22.43,13.429 22.615,13.685 22.887,13.729 C23.307,13.797 24.012,14.036 24.012,14.868 C24.012,15.851 23.071,15.985 22.924,16 L16.752,16 C16.093,16 15.532,15.517 15.5,14.854 C15.5,14.126 16.002,13.852 16.424,13.751 L16.424,13.751 Z M16.751,17 L22.962,17 C23.671,16.945 25.012,16.429 25.012,14.868 C25.012,13.708 24.242,13.073 23.416,12.826 C23.273,12.213 22.886,11.765 22.333,11.597 C21.978,11.488 21.606,11.517 21.283,11.662 C21.14,11.427 20.971,11.216 20.776,11.032 C19.889,10.191 18.675,9.962 17.532,10.42 C16.562,10.808 15.823,11.868 15.79,12.907 C14.975,13.245 14.5,13.948 14.5,14.854 L14.504,14.983 C14.561,16.109 15.548,16.999 16.751,17 L16.751,17 Z M17,3 L18,3 L18,2 L17,2 L17,3 Z M19,3 L23,3 L23,2 L19,2 L19,3 Z M25.5,27 L14.5,27 C13.771,27 13,26.229 13,25.5 L13,24 L27,24 L27,25.5 C27,26.229 26.229,27 25.5,27 L25.5,27 Z M13,4 L13,2.5 C13,1.771 13.771,1 14.5,1 L25.5,1 C26.229,1 27,1.771 27,2.5 L27,4 L13,4 Z M25.5,0 L14.5,0 C13.215,0 12,1.215 12,2.5 L12,11 L13,11 L13,5 L27,5 L27,23 L13,23 L13,17 L12,17 L12,25.5 C12,26.785 13.215,28 14.5,28 L25.5,28 C26.785,28 28,26.785 28,25.5 L28,2.5 C28,1.215 26.785,0 25.5,0 L25.5,0 Z" id="AWS-Console-Mobile-Application_32_Squid"></path> </g> </g></svg>