<svg width="40" height="40" viewBox="0 0 40 40" fill="none" xmlns="http://www.w3.org/2000/svg">
<g clip-path="url(#clip0_23311_9712)">
<path d="M40 0H0V40H40V0Z" fill="#7AA116" fill-opacity="0.12"/>
<path fill-rule="evenodd" clip-rule="evenodd" d="M17.347 18.5602H21.197L18.55 22.7952C18.453 22.9492 18.449 23.1432 18.536 23.3022C18.624 23.4612 18.792 23.5602 18.974 23.5602H20.671L16.243 29.5192L17.043 25.1502C17.07 25.0042 17.031 24.8542 16.935 24.7402C16.84 24.6262 16.7 24.5602 16.551 24.5602H14.075L17.347 18.5602ZM15.767 31.8382L22.067 23.3582C22.179 23.2062 22.197 23.0042 22.112 22.8352C22.027 22.6662 21.855 22.5602 21.665 22.5602H19.876L22.523 18.3252C22.619 18.1712 22.624 17.9772 22.536 17.8182C22.449 17.6592 22.281 17.5602 22.099 17.5602H17.05C16.868 17.5602 16.699 17.6602 16.612 17.8212L12.793 24.8212C12.708 24.9762 12.711 25.1642 12.802 25.3152C12.892 25.4672 13.055 25.5602 13.232 25.5602H15.951L14.873 31.4502C14.832 31.6782 14.953 31.9052 15.166 31.9982C15.231 32.0262 15.298 32.0392 15.366 32.0392C15.52 32.0392 15.67 31.9682 15.767 31.8382ZM29.033 25.4642L23.638 25.4612V24.5602H28.993C29.117 24.5472 33 24.0732 33 20.0592C33 16.6922 30.224 15.8512 29.031 15.6452C28.764 15.6002 28.582 15.3502 28.62 15.0822C28.519 13.5702 27.797 12.4462 26.694 12.1232C25.786 11.8562 24.814 12.2082 24.215 13.0182C24.105 13.1672 23.923 13.2392 23.739 13.2162C23.556 13.1882 23.403 13.0622 23.341 12.8882C22.93 11.7222 22.332 10.7422 21.567 9.97417C20.628 9.03217 18.047 7.00617 14.41 8.54617C12.307 9.43717 10.66 12.0032 10.66 14.3872C10.66 14.6572 10.676 14.9222 10.706 15.1822C10.737 15.4312 10.576 15.6642 10.333 15.7262C9.089 16.0432 7 17.0222 7 20.0182C7 20.1732 7.006 20.3252 7.018 20.4712C7.118 21.7382 7.526 23.3982 8.909 24.1162C9.061 24.1812 9.784 24.2692 10.131 24.3122C10.392 24.3452 10.617 24.3732 10.734 24.3962L10.542 25.3772C10.438 25.3572 10.239 25.3332 10.008 25.3052C9.118 25.1952 8.682 25.1252 8.448 25.0032C7.051 24.2792 6.189 22.6972 6.022 20.5502C6.008 20.3782 6 20.2012 6 20.0182C6 16.5912 8.317 15.3242 9.675 14.8752C9.664 14.7142 9.66 14.5522 9.66 14.3872C9.66 11.5852 11.535 8.67917 14.02 7.62517C16.934 6.39217 20.021 7.00517 22.276 9.26817C22.976 9.97117 23.55 10.8232 23.988 11.8092C24.823 11.1102 25.923 10.8552 26.974 11.1632C28.413 11.5842 29.376 12.9102 29.592 14.7402C31.001 15.0702 34 16.2252 34 20.0592C34 25.0032 29.082 25.4602 29.033 25.4642Z" fill="#7AA116"/>
</g>
<rect x="0.5" y="0.5" width="39" height="39" stroke="#7AA116"/>
<defs>
<clipPath id="clip0_23311_9712">
<rect width="40" height="40" fill="white"/>
</clipPath>
</defs>
</svg>
