<svg
version="1.1"
xmlns="http://www.w3.org/2000/svg"
width="18"
height="18"
viewBox="0 0 200 200"
>
<path d="M0 0 C2.8187464 -0.40542297 5.40986674 -0.61087739 8.2421875 -0.6796875 C9.4903978 -0.71843491 9.4903978 -0.71843491 10.76382446 -0.75796509 C13.46786881 -0.8242057 16.17023326 -0.85518398 18.875 -0.875 C19.78483643 -0.88523193 20.69467285 -0.89546387 21.63208008 -0.90600586 C36.9584132 -0.9834871 47.79478121 1.10734898 60 11 C60.13277344 10.28972656 60.26554687 9.57945313 60.40234375 8.84765625 C60.57894531 7.92855469 60.75554687 7.00945313 60.9375 6.0625 C61.11152344 5.14597656 61.28554687 4.22945313 61.46484375 3.28515625 C62 1 62 1 63 0 C70.9804299 -0.67840886 79.05790281 -0.65897201 87.0625 -0.51953125 C88.0786866 -0.51706139 88.0786866 -0.51706139 89.11540222 -0.51454163 C96.32797871 -0.31761027 101.61978375 2.22225602 107.23046875 6.69482422 C110.96742991 9.45114242 115.13582221 11.55914689 119.1875 13.8125 C120.98713055 14.83860085 122.78530598 15.86725789 124.58203125 16.8984375 C127.28217133 18.44456774 129.98263492 19.99009063 132.68505859 21.53222656 C135.25049953 22.9969723 137.81306078 24.46664013 140.375 25.9375 C141.14094482 26.37360596 141.90688965 26.80971191 142.69604492 27.2590332 C144.81482171 28.47919122 146.91031161 29.73078712 149 31 C149.63196289 31.36625488 150.26392578 31.73250977 150.91503906 32.10986328 C156.03702776 35.34458552 158.81120181 39.37180628 161 45 C161.68189523 49.17053251 161.67457113 53.25810928 161.63110352 57.47705078 C161.64183647 59.3055809 161.64183647 59.3055809 161.65278625 61.17105103 C161.66672549 64.48963302 161.6584428 67.80663863 161.63869596 71.12509012 C161.62221413 74.61049114 161.63113517 78.09584461 161.63621521 81.58126831 C161.64072441 87.43012337 161.62493677 93.27865738 161.59692383 99.12744141 C161.5648469 105.87651914 161.5649029 112.62501909 161.5821386 119.374138 C161.59803287 125.88662295 161.59125355 132.39889733 161.57420158 138.91137314 C161.56735328 141.67440314 161.56834039 144.43726321 161.57574654 147.20029068 C161.58486993 151.06099525 161.56081137 154.92111196 161.53344727 158.78173828 C161.54323608 160.49006836 161.54323608 160.49006836 161.55322266 162.23291016 C161.45798046 170.14302551 160.0923377 174.34541908 154.9375 180.4375 C150.29957885 182.90447934 146.12868203 182.9105754 141 182 C135.96137463 179.88661238 131.5319592 177.02130613 127 174 C126.94392578 175.57587891 126.94392578 175.57587891 126.88671875 177.18359375 C126.06513676 195.93486324 126.06513676 195.93486324 122 200 C119.24682214 200.12594243 116.52012577 200.18867916 113.765625 200.203125 C112.52036041 200.21167511 112.52036041 200.21167511 111.24993896 200.22039795 C109.48792806 200.22986468 107.72589932 200.23638854 105.96386719 200.24023438 C103.27507241 200.24990978 100.58705168 200.28090409 97.8984375 200.3125 C96.18750454 200.31903288 94.47656611 200.32428223 92.765625 200.328125 C91.96336487 200.3404718 91.16110474 200.3528186 90.33453369 200.36553955 C85.64779546 200.34696365 82.89345874 199.84896645 79 197 C77.60389573 196.23460109 76.20165825 195.48026274 74.79296875 194.73828125 C73.66665039 194.14370117 73.66665039 194.14370117 72.51757812 193.53710938 C71.36418945 192.93092773 71.36418945 192.93092773 70.1875 192.3125 C69.39923828 191.89677734 68.61097656 191.48105469 67.79882812 191.05273438 C65.86654562 190.03389451 63.93359075 189.0163542 62 188 C61.86722656 188.78246094 61.73445313 189.56492188 61.59765625 190.37109375 C61.42105469 191.38300781 61.24445313 192.39492187 61.0625 193.4375 C60.88847656 194.44683594 60.71445313 195.45617187 60.53515625 196.49609375 C60 199 60 199 59 200 C56.81695287 200.10017446 54.63065588 200.13081258 52.4453125 200.1328125 C51.78796112 200.13376923 51.13060974 200.13472595 50.45333862 200.13571167 C49.059549 200.13639345 47.66575622 200.1345393 46.27197266 200.13037109 C44.14087747 200.12503972 42.00999469 200.13030724 39.87890625 200.13671875 C38.5260412 200.13605763 37.17317629 200.13477578 35.8203125 200.1328125 C34.58555176 200.13168457 33.35079102 200.13055664 32.07861328 200.12939453 C29 200 29 200 26 199 C26 198.34 26 197.68 26 197 C25.22140625 196.78859375 24.4428125 196.5771875 23.640625 196.359375 C18.68904828 194.51050301 14.30725847 191.90786056 9.75 189.25 C8.85925781 188.73695313 7.96851563 188.22390625 7.05078125 187.6953125 C2.56382385 185.10342709 -1.89478701 182.46902808 -6.33203125 179.79296875 C-9.65716309 177.79029533 -13.00174575 175.87108104 -16.4375 174.0625 C-35.9184143 163.45161902 -35.9184143 163.45161902 -38.60840988 155.11430836 C-39.06346082 152.65735669 -39.13219515 150.35820855 -39.14044189 147.85856628 C-39.14615204 146.81982864 -39.15186218 145.781091 -39.15774536 144.71087646 C-39.15886322 143.57676331 -39.15998108 142.44265015 -39.16113281 141.27416992 C-39.16609772 140.07538712 -39.17106262 138.87660431 -39.17617798 137.64149475 C-39.18827437 134.35623664 -39.19574154 131.07101409 -39.20018864 127.78573775 C-39.20312378 125.73131968 -39.20722942 123.67690712 -39.21169281 121.62249184 C-39.22536046 115.18909678 -39.23503071 108.75571442 -39.2388947 102.32230586 C-39.24337391 94.90621928 -39.26091835 87.49031715 -39.2898953 80.07428664 C-39.3115396 74.33486214 -39.32160044 68.59548943 -39.32293582 62.85602456 C-39.32398188 59.43132541 -39.329847 56.00679982 -39.34775543 52.58214378 C-39.36481204 48.75929162 -39.36293628 44.93688846 -39.35644531 41.11401367 C-39.3656601 39.98597321 -39.37487488 38.85793274 -39.3843689 37.69570923 C-39.34365767 30.04056333 -38.59206583 25.04567736 -33.5 19.0625 C-29.89430596 16.39161553 -26.33841472 16.24787793 -21.953125 16.43359375 C-16.68251797 17.4444906 -12.49510958 20.18782447 -8 23 C-6.6752638 23.68359069 -5.34498069 24.3571554 -4 25 C-4.02320313 24.16597656 -4.04640625 23.33195312 -4.0703125 22.47265625 C-4.32662192 6.48993289 -4.32662192 6.48993289 0 0 Z " fill="#285798" transform="translate(39,0)"/>
<path d="M0 0 C2.80737185 -0.41807831 5.38450352 -0.63653461 8.20703125 -0.71484375 C9.45984138 -0.75116661 9.45984138 -0.75116661 10.73796082 -0.78822327 C12.52083627 -0.82981821 14.30395305 -0.86195263 16.0871582 -0.88549805 C17.87077236 -0.919531 19.65412576 -0.98003167 21.43579102 -1.07006836 C38.75320354 -1.94415902 44.5048697 2.57421126 61 12 C61 31.47 61 50.94 61 71 C58 67 58 67 56.83740234 65.22314453 C53.98742434 60.88332107 51.21633992 58.47010517 46.625 55.875 C45.99070068 55.51083984 45.35640137 55.14667969 44.70288086 54.77148438 C42.47692422 53.49905996 40.23837335 52.25044231 38 51 C36.15418693 49.95185983 34.30917708 48.90230428 32.46484375 47.8515625 C27.57318952 45.0702016 22.67125716 42.30761323 17.76464844 39.55273438 C15.18792938 38.10554847 12.613069 36.65512867 10.0390625 35.203125 C8.58858014 34.38534843 7.13806195 33.56763539 5.6875 32.75 C5.03015869 32.37939453 4.37281738 32.00878906 3.69555664 31.62695312 C0.37705065 29.75881834 0.37705065 29.75881834 -3 28 C-2.96275815 42.57808282 -2.90278738 57.15592602 -2.81609726 71.73380184 C-2.77636548 78.5032838 -2.74394341 85.2726505 -2.72900391 92.04223633 C-2.7145592 98.57815588 -2.67938091 105.11377542 -2.63169098 111.64953804 C-2.61688096 114.14009046 -2.60895921 116.6306939 -2.60811615 119.12129021 C-2.60574375 122.61632024 -2.57863952 126.11036498 -2.54589844 129.60522461 C-2.5509288 130.62950058 -2.55595917 131.65377655 -2.56114197 132.70909119 C-2.46557339 139.32521772 -1.16649213 144.19575001 2 150 C2.88558594 151.62615234 2.88558594 151.62615234 3.7890625 153.28515625 C6.5865851 156.72027676 9.48852475 158.41282041 13.375 160.4375 C14.0774585 160.81801514 14.77991699 161.19853027 15.50366211 161.59057617 C21.20764366 164.65573699 26.99323088 167.56333554 32.81640625 170.39453125 C36.27617158 172.1392718 39.63572915 174.07755952 43 176 C48.61 178.97 54.22 181.94 60 185 C60.33 166.19 60.66 147.38 61 128 C64 132 64 132 66.0625 135.375 C69.46447844 140.07627633 73.99058562 142.24997083 79 145 C81.14609989 146.23648412 83.28500888 147.48495854 85.42431641 148.7331543 C95.83003375 154.79765998 106.29760066 160.75580143 116.75976562 166.72216797 C119.840878 168.47963769 122.92050672 170.23969506 126 172 C126.55839416 191.17153285 126.55839416 191.17153285 123 199 C120.94034104 201.05965896 116.60109458 200.18825452 113.765625 200.203125 C112.52036041 200.21167511 112.52036041 200.21167511 111.24993896 200.22039795 C109.48792806 200.22986468 107.72589932 200.23638854 105.96386719 200.24023438 C103.27507241 200.24990978 100.58705168 200.28090409 97.8984375 200.3125 C96.18750454 200.31903288 94.47656611 200.32428223 92.765625 200.328125 C91.96336487 200.3404718 91.16110474 200.3528186 90.33453369 200.36553955 C85.64779546 200.34696365 82.89345874 199.84896645 79 197 C77.60389573 196.23460109 76.20165825 195.48026274 74.79296875 194.73828125 C73.66665039 194.14370117 73.66665039 194.14370117 72.51757812 193.53710938 C71.36418945 192.93092773 71.36418945 192.93092773 70.1875 192.3125 C69.39923828 191.89677734 68.61097656 191.48105469 67.79882812 191.05273438 C65.86654562 190.03389451 63.93359075 189.0163542 62 188 C61.86722656 188.78246094 61.73445313 189.56492188 61.59765625 190.37109375 C61.42105469 191.38300781 61.24445313 192.39492187 61.0625 193.4375 C60.88847656 194.44683594 60.71445313 195.45617187 60.53515625 196.49609375 C60 199 60 199 59 200 C56.81695287 200.10017446 54.63065588 200.13081258 52.4453125 200.1328125 C51.78796112 200.13376923 51.13060974 200.13472595 50.45333862 200.13571167 C49.059549 200.13639345 47.66575622 200.1345393 46.27197266 200.13037109 C44.14087747 200.12503972 42.00999469 200.13030724 39.87890625 200.13671875 C38.5260412 200.13605763 37.17317629 200.13477578 35.8203125 200.1328125 C34.58555176 200.13168457 33.35079102 200.13055664 32.07861328 200.12939453 C29 200 29 200 26 199 C26 198.34 26 197.68 26 197 C25.22140625 196.78859375 24.4428125 196.5771875 23.640625 196.359375 C18.68904828 194.51050301 14.30725847 191.90786056 9.75 189.25 C8.85925781 188.73695313 7.96851563 188.22390625 7.05078125 187.6953125 C2.56382385 185.10342709 -1.89478701 182.46902808 -6.33203125 179.79296875 C-9.65716309 177.79029533 -13.00174575 175.87108104 -16.4375 174.0625 C-35.9184143 163.45161902 -35.9184143 163.45161902 -38.60840988 155.11430836 C-39.06346082 152.65735669 -39.13219515 150.35820855 -39.14044189 147.85856628 C-39.14615204 146.81982864 -39.15186218 145.781091 -39.15774536 144.71087646 C-39.15886322 143.57676331 -39.15998108 142.44265015 -39.16113281 141.27416992 C-39.16609772 140.07538712 -39.17106262 138.87660431 -39.17617798 137.64149475 C-39.18827437 134.35623664 -39.19574154 131.07101409 -39.20018864 127.78573775 C-39.20312378 125.73131968 -39.20722942 123.67690712 -39.21169281 121.62249184 C-39.22536046 115.18909678 -39.23503071 108.75571442 -39.2388947 102.32230586 C-39.24337391 94.90621928 -39.26091835 87.49031715 -39.2898953 80.07428664 C-39.3115396 74.33486214 -39.32160044 68.59548943 -39.32293582 62.85602456 C-39.32398188 59.43132541 -39.329847 56.00679982 -39.34775543 52.58214378 C-39.36481204 48.75929162 -39.36293628 44.93688846 -39.35644531 41.11401367 C-39.3656601 39.98597321 -39.37487488 38.85793274 -39.3843689 37.69570923 C-39.34365767 30.04056333 -38.59206583 25.04567736 -33.5 19.0625 C-29.89430596 16.39161553 -26.33841472 16.24787793 -21.953125 16.43359375 C-16.68251797 17.4444906 -12.49510958 20.18782447 -8 23 C-6.6752638 23.68359069 -5.34498069 24.3571554 -4 25 C-4.02320313 24.16597656 -4.04640625 23.33195312 -4.0703125 22.47265625 C-4.32662192 6.48993289 -4.32662192 6.48993289 0 0 Z " fill="#72CEEA" transform="translate(39,0)"/>
<path d="M0 0 C8.0084486 -0.37442845 16.01012988 -0.59712742 24.02734375 -0.484375 C24.70793854 -0.48586548 25.38853333 -0.48735596 26.0897522 -0.4888916 C33.32481043 -0.32769789 38.60431003 2.20992111 44.23046875 6.69482422 C47.96742991 9.45114242 52.13582221 11.55914689 56.1875 13.8125 C57.98713055 14.83860085 59.78530598 15.86725789 61.58203125 16.8984375 C64.28217133 18.44456774 66.98263492 19.99009063 69.68505859 21.53222656 C72.25049953 22.9969723 74.81306078 24.46664013 77.375 25.9375 C78.14094482 26.37360596 78.90688965 26.80971191 79.69604492 27.2590332 C81.81482171 28.47919122 83.91031161 29.73078712 86 31 C86.63196289 31.36625488 87.26392578 31.73250977 87.91503906 32.10986328 C93.03702776 35.34458552 95.81120181 39.37180628 98 45 C98.68189523 49.17053251 98.67457113 53.25810928 98.63110352 57.47705078 C98.63825882 58.69607086 98.64541412 59.91509094 98.65278625 61.17105103 C98.66672549 64.48963302 98.6584428 67.80663863 98.63869596 71.12509012 C98.62221413 74.61049114 98.63113517 78.09584461 98.63621521 81.58126831 C98.64072441 87.43012337 98.62493677 93.27865738 98.59692383 99.12744141 C98.5648469 105.87651914 98.5649029 112.62501909 98.5821386 119.374138 C98.59803287 125.88662295 98.59125355 132.39889733 98.57420158 138.91137314 C98.56735328 141.67440314 98.56834039 144.43726321 98.57574654 147.20029068 C98.58486993 151.06099525 98.56081137 154.92111196 98.53344727 158.78173828 C98.53997314 159.920625 98.54649902 161.05951172 98.55322266 162.23291016 C98.45798046 170.14302551 97.0923377 174.34541908 91.9375 180.4375 C87.29740968 182.90563315 83.13118551 182.90550333 78 182 C74.06632526 180.37665945 70.53763718 178.35651358 67 176 C66.30043938 175.56720262 65.60087875 175.13440523 64.88011932 174.68849277 C63 173 63 173 62.50336456 170.87840939 C62.50487267 170.05348775 62.50638077 169.22856611 62.50793457 168.37864685 C62.4998024 167.42976089 62.49167023 166.48087494 62.48329163 165.50323486 C62.49460617 164.46374695 62.50592072 163.42425903 62.51757812 162.35327148 C62.51366562 161.25698929 62.50975311 160.16070709 62.50572205 159.03120422 C62.49973592 156.64618442 62.50293698 154.26112822 62.5141449 151.87612724 C62.53136189 148.09653078 62.5239209 144.31770241 62.5098877 140.5381012 C62.48233383 131.82391624 62.49154786 123.10992936 62.50258636 114.39572906 C62.51305652 105.79058571 62.50777599 97.18582728 62.47593689 88.58070564 C62.4688593 84.86596337 62.48550617 81.15181406 62.50305176 77.43711853 C62.49734038 75.14223924 62.49052139 72.84736234 62.48242188 70.55249023 C62.49373642 69.52717194 62.50505096 68.50185364 62.51670837 67.44546509 C62.43990521 58.29742406 60.03333165 50.27284634 53.69140625 43.48388672 C50.75563559 40.90830732 47.50193703 39.24616198 44 37.5625 C42.47940444 36.79637964 40.95988651 36.02811697 39.44140625 35.2578125 C38.69004395 34.88043945 37.93868164 34.50306641 37.16455078 34.11425781 C34.02101222 32.49604103 30.9887734 30.72412392 27.9375 28.9375 C22.26172675 25.65394065 16.48473402 22.66277534 10.59155273 19.78881836 C6.29028131 17.68488153 2.13678531 15.41267995 -2 13 C-2.05447047 11.58376784 -2.09300508 10.16691809 -2.125 8.75 C-2.14820312 7.96109375 -2.17140625 7.1721875 -2.1953125 6.359375 C-1.98160881 3.77783437 -1.206108 2.26197418 0 0 Z " fill="#EF595E" transform="translate(102,0)"/>
<path d="M0 0 C3 4 3 4 5.0625 7.375 C8.46447844 12.07627633 12.99058562 14.24997083 18 17 C20.14609989 18.23648412 22.28500888 19.48495854 24.42431641 20.7331543 C34.83003375 26.79765998 45.29760066 32.75580143 55.75976562 38.72216797 C58.840878 40.47963769 61.92050672 42.23969506 65 44 C65.55839416 63.17153285 65.55839416 63.17153285 62 71 C59.94034104 73.05965896 55.60109458 72.18825452 52.765625 72.203125 C51.93544861 72.20882507 51.10527222 72.21452515 50.24993896 72.22039795 C48.48792806 72.22986468 46.72589932 72.23638854 44.96386719 72.24023438 C42.27507241 72.24990978 39.58705168 72.28090409 36.8984375 72.3125 C35.18750454 72.31903288 33.47656611 72.32428223 31.765625 72.328125 C30.96336487 72.3404718 30.16110474 72.3528186 29.33453369 72.36553955 C28.19875885 72.3610379 28.19875885 72.3610379 27.04003906 72.35644531 C26.04861908 72.36191376 26.04861908 72.36191376 25.03717041 72.36749268 C23 72 23 72 18 69 C12.06 65.7 6.12 62.4 0 59 C0 39.53 0 20.06 0 0 Z " fill="#D3DDE8" transform="translate(100,128)"/>
<path d="M0 0 C1.54055421 -0.08062997 3.08299711 -0.12908977 4.62548828 -0.15209961 C5.45928009 -0.17348495 6.2930719 -0.1948703 7.15213013 -0.21690369 C8.92900978 -0.25103116 10.70620574 -0.27110377 12.48339844 -0.27832031 C15.12912699 -0.30380123 17.76002413 -0.41951207 20.40283203 -0.54077148 C37.12510353 -0.69711284 40.95235135 3.40465696 57.32080078 12.75805664 C57.32080078 32.22805664 57.32080078 51.69805664 57.32080078 71.75805664 C54.32080078 67.75805664 54.32080078 67.75805664 53.15820312 65.98120117 C50.30822512 61.64137771 47.5371407 59.22816181 42.94580078 56.63305664 C41.99326416 56.08572876 41.99326416 56.08572876 41.02148438 55.52734375 C38.79669262 54.25480055 36.55911041 53.00665915 34.32080078 51.75805664 C32.48683104 50.72142133 30.65353264 49.68359768 28.82080078 48.64477539 C24.89369618 46.42141381 20.96351562 44.20361122 17.03173828 41.98852539 C11.85946367 39.06835622 6.70280632 36.12345191 1.57080078 33.13305664 C0.87422363 32.73159424 0.17764648 32.33013184 -0.54003906 31.91650391 C-6.66600226 28.32512901 -6.66600226 28.32512901 -8.67919922 25.75805664 C-8.88378906 23.66088867 -8.88378906 23.66088867 -8.64013672 21.26586914 C-8.55376953 20.39575195 -8.46740234 19.52563477 -8.37841797 18.62915039 C-8.27142578 17.72293945 -8.16443359 16.81672852 -8.05419922 15.88305664 C-7.97041016 14.98458008 -7.88662109 14.08610352 -7.80029297 13.16040039 C-6.52621668 1.34465181 -6.52621668 1.34465181 0 0 Z " fill="#D3DDE8" transform="translate(42.67919921875,-0.758056640625)"/>
</svg>