<svg width="82" height="80" viewBox="0 0 82 80" fill="none" xmlns="http://www.w3.org/2000/svg">
<path fill-rule="evenodd" clip-rule="evenodd" d="M0.5 79.5C0.5 71.5182 3.75365 63.8634 9.54518 58.2194C15.3367 52.5755 23.1917 49.4048 31.3822 49.4048C39.5726 49.4048 47.4276 52.5755 53.2191 58.2194C59.0107 63.8634 62.2643 71.5182 62.2643 79.5H0.5ZM31.3822 45.6429C18.5854 45.6429 8.22054 35.5421 8.22054 23.0714C8.22054 10.6007 18.5854 0.5 31.3822 0.5C44.1789 0.5 54.5437 10.6007 54.5437 23.0714C54.5437 35.5421 44.1789 45.6429 31.3822 45.6429ZM59.8053 54.0432C65.7101 55.5222 70.9857 58.7788 74.8809 63.3495C78.7761 67.9202 81.0924 73.5719 81.5 79.5H69.9848C69.9848 69.6814 66.1246 60.7431 59.8053 54.0432ZM51.996 45.4811C55.2309 42.6615 57.8179 39.2075 59.5874 35.3456C61.357 31.4836 62.2692 27.3009 62.2643 23.0714C62.2725 17.9307 60.9232 12.8743 58.3461 8.38871C62.7184 9.24488 66.6515 11.5501 69.477 14.9126C72.3025 18.2751 73.846 22.4873 73.8451 26.8333C73.8461 29.5136 73.2593 32.163 72.1238 34.6042C70.9884 37.0454 69.3306 39.2218 67.2616 40.9877C65.1926 42.7535 62.7602 44.068 60.1274 44.8429C57.4945 45.6179 54.7221 45.8355 51.996 45.4811ZM35.9654 57.8281C36.8034 57.0749 38.0658 57.0929 38.8827 57.8696L39.0103 57.9909C39.9371 58.8721 39.9285 60.3714 38.9917 61.2415L33.5119 66.331C32.6547 67.1272 31.3346 67.0961 30.5144 66.2606L30.3057 66.0481C30.2359 65.9769 30.1718 65.9021 30.1135 65.8244H28.4691C28.6452 66.2849 28.916 66.7172 29.2825 67.0905L29.4911 67.303C30.8581 68.6955 33.0583 68.7472 34.4869 67.4204L39.9667 62.3308C41.5281 60.8806 41.5424 58.3818 39.9977 56.9132L39.8702 56.7919C38.5085 55.4974 36.4046 55.4674 35.0079 56.7227L29.447 61.721C29.3509 61.8074 29.2605 61.8977 29.1756 61.9915H31.3333L35.9654 57.8281ZM22.9892 73.3904C23.8061 74.1671 25.0685 74.1851 25.9065 73.4319L30.5386 69.2684H32.6963C32.6115 69.3623 32.521 69.4526 32.4249 69.539L26.864 74.5373C25.4674 75.7926 23.3634 75.7626 22.0018 74.468L21.8742 74.3468C20.3295 72.8782 20.3438 70.3793 21.9052 68.9292L27.385 63.8396C28.8136 62.5127 31.0138 62.5644 32.3808 63.957L32.5895 64.1695C32.9559 64.5428 33.2267 64.9751 33.4028 65.4356H31.7584C31.7001 65.3579 31.6361 65.2831 31.5662 65.2119L31.3575 64.9994C30.5373 64.1638 29.2172 64.1328 28.36 64.9289L22.8802 70.0185C21.9434 70.8886 21.9348 72.3879 22.8616 73.2691L22.9892 73.3904Z" fill="white"/>
</svg>
