<svg width="40" height="40" viewBox="0 0 40 40" fill="none" xmlns="http://www.w3.org/2000/svg">
<g clip-path="url(#clip0_23298_3932)">
<path d="M40 0H0V40H40V0Z" fill="#01A88D" fill-opacity="0.12"/>
<path fill-rule="evenodd" clip-rule="evenodd" d="M26.484 24.7018V16.8778L20.467 20.2791V28.2142L26.484 24.7018ZM13.484 24.7018L19.467 28.2122V20.2781L13.484 16.8798V24.7018ZM13.994 16.0195L19.968 19.4118L25.969 16.0195L19.968 12.6072L13.994 16.0195ZM27.236 25.4211L20.219 29.5167C20.141 29.5617 20.054 29.5847 19.967 29.5847C19.88 29.5847 19.793 29.5617 19.714 29.5157L12.731 25.4201C12.578 25.331 12.484 25.166 12.484 24.9889V16.0205C12.484 15.8414 12.581 15.6753 12.736 15.5863L19.719 11.5978C19.873 11.5097 20.061 11.5097 20.214 11.5968L27.231 15.5863C27.387 15.6753 27.484 15.8414 27.484 16.0205V24.9889C27.484 25.167 27.389 25.3311 27.236 25.4211ZM20 8.00038C24.037 8.00038 27.803 10.1562 30.077 13.7686L30.922 13.2354C28.465 9.3309 24.382 7 20 7C15.615 7 11.532 9.3309 9.077 13.2364L9.922 13.7686C12.194 10.1562 15.961 8.00038 20 8.00038ZM32 20.4922C31.864 26.0703 27.826 30.9172 22.4 32.0186L22.599 33C28.478 31.8065 32.852 26.5565 33 20.5172L32 20.4922ZM17.599 32.0186L17.4 33C11.521 31.8065 7.147 26.5565 7 20.5172L8 20.4922C8.135 26.0703 12.173 30.9172 17.599 32.0186Z" fill="#01A88D"/>
</g>
<rect x="0.5" y="0.5" width="39" height="39" stroke="#01A88D"/>
<defs>
<clipPath id="clip0_23298_3932">
<rect width="40" height="40" fill="white"/>
</clipPath>
</defs>
</svg>
