<svg width="90" height="90" viewBox="0 0 90 90" fill="none" xmlns="http://www.w3.org/2000/svg">
<path fill-rule="evenodd" clip-rule="evenodd" d="M58.5314 3.50018H30.211V32.0116H58.5314V3.50018ZM89.9987 57.9885H61.6783V86.4998H89.9987V57.9885ZM0.00146484 57.9885H28.3218V86.4998H0.00146484V57.9885ZM29.4962 37.1676L15.9677 38.244L20.4536 42.7573L12.0318 51.2305L15.9595 55.1821L24.3812 46.709L29.1534 51.5102L29.4962 37.1676ZM59.8933 53.718L73.4218 54.7945L73.079 40.4519L68.3068 45.2531L59.8851 36.78L55.9574 40.7316L64.3792 49.2048L59.8933 53.718ZM34.2863 73.2227L44.609 82.0861V75.7041H56.5197L56.5197 70.1157H44.609L44.609 63.3249L34.2863 73.2227Z" fill="white"/>
</svg>
