<svg width="24" height="24" viewBox="0 0 24 24" fill="none" xmlns="http://www.w3.org/2000/svg">
<path d="M12 3V5H7.02224V19H12V21H6.65421C5.78795 21 5.07836 20.273 5.00607 19.3547L5 19.2V4.8C5 3.81 5.74813 3 6.66252 3L12 3Z" fill="white"/>
<path d="M9 15.5H12V17H9V15.5Z" fill="white"/>
<path d="M9 12.5H12V14H9V12.5Z" fill="white"/>
<path d="M9 9.5H12V11H9V9.5Z" fill="white"/>
<path d="M16.5 18C17.3284 18 18 18.6716 18 19.5C18 20.3284 17.3284 21 16.5 21C15.6716 21 15 20.3284 15 19.5C15 18.6716 15.6716 18 16.5 18Z" fill="white"/>
<path d="M18.5 9C19.3284 9 20 9.67157 20 10.5C20 11.3284 19.3284 12 18.5 12C17.6716 12 17 11.3284 17 10.5C17 9.67157 17.6716 9 18.5 9Z" fill="white"/>
<path d="M15.5 7C16.3284 7 17 6.32843 17 5.5C17 4.67157 16.3284 4 15.5 4C14.6716 4 14 4.67157 14 5.5C14 6.32843 14.6716 7 15.5 7Z" fill="white"/>
<path d="M13 10.5H13.8142C15.7299 10.5 15.4904 9.7967 15.4904 6.5" stroke="white"/>
<path d="M13 13.4938H13.8128C17.5899 13.4938 18.5461 13.7154 18.4983 11.5" stroke="white"/>
<path d="M13 16.5083H13.517C16.2977 16.5022 16.5281 16.287 16.4977 18.5" stroke="white"/>
</svg>
