<svg width="40" height="40" viewBox="0 0 40 40" fill="none" xmlns="http://www.w3.org/2000/svg">
<g clip-path="url(#clip0_23296_3789)">
<path d="M40 0H0V40H40V0Z" fill="#01A88D" fill-opacity="0.12"/>
<path fill-rule="evenodd" clip-rule="evenodd" d="M13.3385 11.6646L11.443 9.7828L10.7317 10.489L12.6272 12.3708L13.3385 11.6646ZM29.4384 10.449L28.7391 9.73086L26.7581 11.6357L27.4573 12.3529L29.4384 10.449ZM21.0625 14.5973L20.0664 14.4554L18.8027 23.2364L19.7988 23.3782L21.0625 14.5973ZM24.7569 19.216C24.8897 19.0382 24.8897 18.7945 24.7569 18.6167L22.8614 16.1085L22.0555 16.7069L23.7246 18.9163L22.0555 21.1258L22.8614 21.7251L24.7569 19.216ZM17.8077 21.1258L16.1385 18.9163L17.8077 16.7069L17.0028 16.1085L15.1073 18.6167C14.9735 18.7945 14.9735 19.0382 15.1073 19.216L17.0028 21.7251L17.8077 21.1258ZM17.3569 31.9593H22.6189L21.8814 33.0011H18.0019L17.3569 31.9593ZM22.5545 33.7872L23.9983 31.7466C24.106 31.5948 24.119 31.395 24.0325 31.2302C23.946 31.0644 23.7739 30.9605 23.5868 30.9605H16.4575C16.2754 30.9605 16.1073 31.0594 16.0178 31.2162C15.9293 31.374 15.9333 31.5678 16.0289 31.7216L17.2925 33.7623C17.3841 33.9101 17.5461 34 17.7201 34H22.143C22.307 34 22.4599 33.9211 22.5545 33.7872ZM16.0128 25.0213C16.0128 24.8605 15.9353 24.7107 15.8035 24.6158C13.9563 23.2953 12.8546 21.1647 12.8546 18.9163C12.8546 15.0418 16.0299 11.8904 19.9326 11.8904C23.8353 11.8904 27.0096 15.0418 27.0096 18.9163C27.0096 21.2916 26.0105 23.3692 24.2669 24.6158C24.1351 24.7107 24.0577 24.8605 24.0577 25.0213V28.0069H16.0128V25.0213ZM25.0638 28.5063V25.271C26.9432 23.8217 28.0157 21.5213 28.0157 18.9163C28.0157 14.4914 24.3887 10.8915 19.9326 10.8915C15.4745 10.8915 11.8485 14.4914 11.8485 18.9163C11.8485 21.3995 13.0246 23.7548 15.0067 25.272V28.5063C15.0067 28.783 15.232 29.0057 15.5097 29.0057H24.5607C24.8394 29.0057 25.0638 28.783 25.0638 28.5063ZM30.1628 19.0282H33V18.0293H30.1628V19.0282ZM7 19.0282H9.80404V18.0293H7V19.0282ZM18.9959 9.83674H20.002V7H18.9959V9.83674Z" fill="#01A88D"/>
</g>
<rect x="0.5" y="0.5" width="39" height="39" stroke="#01A88D"/>
<defs>
<clipPath id="clip0_23296_3789">
<rect width="40" height="40" fill="white"/>
</clipPath>
</defs>
</svg>
