<svg width="40" height="40" viewBox="0 0 40 40" xmlns="http://www.w3.org/2000/svg">  <g id="Icon-Architecture/32/Arch_Amazon-Lookout-for-Equipment_32" stroke="none" stroke-width="1" fill="none" fill-rule="evenodd">  <g id="Icon-Service/32/Amazon-Lookout-for-Equipment_32" transform="translate(6.000000, 6.000000)" fill="#FFFFFF"> <path d="M3,25 L6,25 L6,23 L3,23 L3,25 Z M6.5,22 L2.5,22 C2.224,22 2,22.224 2,22.5 L2,25.5 C2,25.776 2.224,26 2.5,26 L6.5,26 C6.776,26 7,25.776 7,25.5 L7,22.5 C7,22.224 6.776,22 6.5,22 L6.5,22 Z M9,25 L12,25 L12,23 L9,23 L9,25 Z M12.5,22 L8.5,22 C8.224,22 8,22.224 8,22.5 L8,25.5 C8,25.776 8.224,26 8.5,26 L12.5,26 C12.776,26 13,25.776 13,25.5 L13,22.5 C13,22.224 12.776,22 12.5,22 L12.5,22 Z M25,27 L1,27 L1,4 L5,4 L5,11 L5,19 L5,20 L6,20 L6,19 L6,12.137 L11,16.72 L11,19 L11,20 L12,20 L12,19 L12,16.5 L12,12.567 L17,16.734 L17,20.5 C17,20.776 17.224,21 17.5,21 L25,21 L25,27 Z M1,3 L5,3 L5,1 L1,1 L1,3 Z M25.5,20 L18,20 L18,16.5 C18,16.352 17.935,16.211 17.82,16.116 L11.82,11.116 C11.672,10.992 11.464,10.965 11.288,11.047 C11.112,11.129 11,11.306 11,11.5 L11,15.363 L6,10.78 L6,4 L6,3 L6,0.5 C6,0.224 5.776,0 5.5,0 L0.5,0 C0.224,0 1.77635684e-15,0.224 1.77635684e-15,0.5 L1.77635684e-15,27.5 C1.77635684e-15,27.776 0.224,28 0.5,28 L25.5,28 C25.776,28 26,27.776 26,27.5 L26,20.5 C26,20.224 25.776,20 25.5,20 L25.5,20 Z M26.643,17.039 C26.304,17.425 25.762,17.685 25.375,17.345 L20.556,13.019 C21.139,12.673 21.667,12.246 22.126,11.751 L26.785,15.727 C26.941,15.864 27.013,16.046 26.998,16.27 C26.98,16.524 26.854,16.797 26.643,17.039 L26.643,17.039 Z M27.439,14.971 L22.756,10.974 C23.538,9.844 24,8.476 24,7 C24,3.14 20.859,0 17,0 C13.141,0 10,3.14 10,7 C10,7.358 10.027,7.72 10.082,8.076 L11.07,7.924 C11.023,7.619 11,7.307 11,7 C11,3.691 13.691,1 17,1 C20.309,1 23,3.691 23,7 C23,10.309 20.309,13 17,13 L17,14 C17.916,14 18.789,13.818 19.591,13.497 L24.711,18.093 C25.026,18.369 25.402,18.503 25.791,18.503 C26.348,18.503 26.93,18.228 27.395,17.698 C27.75,17.292 27.964,16.809 27.996,16.337 C28.031,15.802 27.836,15.318 27.439,14.971 L27.439,14.971 Z" id="Fill-6"></path> </g> </g></svg>