<svg width="40" height="40" viewBox="0 0 40 40" fill="none" xmlns="http://www.w3.org/2000/svg">
<g clip-path="url(#clip0_23296_3577)">
<path d="M40 0H0V40H40V0Z" fill="#C925D1" fill-opacity="0.12"/>
<path fill-rule="evenodd" clip-rule="evenodd" d="M22.156 21.9311C21.901 22.0721 21.621 22.1815 21.315 22.2594C21.01 22.3383 20.706 22.3778 20.404 22.3778C19.88 22.3778 19.482 22.2348 19.212 21.9488C18.942 21.6629 18.807 21.2458 18.807 20.6975C18.807 20.1799 18.948 19.7667 19.23 19.4571C19.511 19.1485 19.887 18.9937 20.356 18.9937C21.532 18.9937 22.132 19.9176 22.156 21.7664V21.9311ZM20.38 18.0293C19.832 18.0293 19.347 18.1496 18.927 18.3882C18.505 18.6269 18.181 18.9522 17.955 19.3634C17.728 19.7746 17.615 20.243 17.615 20.7675C17.615 21.5593 17.84 22.1815 18.289 22.6361C18.737 23.0907 19.347 23.3174 20.118 23.3174C20.483 23.3174 20.841 23.2652 21.19 23.1587C21.54 23.0532 21.857 22.9063 22.143 22.7179C22.088 23.6892 21.864 24.406 21.47 24.8685C21.077 25.3309 20.499 25.5617 19.736 25.5617C19.188 25.5617 18.589 25.4167 17.937 25.1268V26.0202C18.462 26.3564 19.117 26.525 19.903 26.525C21 26.525 21.845 26.1296 22.441 25.3388C23.038 24.547 23.336 23.4151 23.336 21.9429C23.336 20.666 23.083 19.6947 22.579 19.0282C22.074 18.3626 21.342 18.0293 20.38 18.0293ZM28.625 28.014H12.294C10.01 28.012 8.128 26.3692 8.008 24.2759C8.003 24.1802 8 24.0826 8 23.982C8 21.2596 10 20.3672 11.192 20.0763C11.437 20.0172 11.599 19.7855 11.568 19.537C11.539 19.3003 11.523 19.0587 11.523 18.8142C11.523 16.641 13.102 14.3011 15.118 13.4866C15.944 13.1533 16.787 12.9897 17.613 12.9897C19.218 12.9897 20.76 13.6059 22.002 14.7931C22.735 15.4942 23.306 16.3895 23.701 17.4535C23.763 17.6231 23.915 17.7453 24.095 17.772C24.275 17.8015 24.457 17.7286 24.568 17.5846C25.156 16.8273 26.107 16.5108 26.991 16.7761C28.023 17.0867 28.691 18.123 28.778 19.5468C28.792 19.7697 28.956 19.956 29.178 20.0004C31.714 20.5043 33 21.8571 33 24.0205C33 27.6255 29.94 28.014 28.625 28.014ZM29.742 19.114C29.533 17.4525 28.633 16.2396 27.283 15.8324C26.256 15.5238 25.169 15.7496 24.344 16.4063C23.922 15.506 23.37 14.7271 22.697 14.0852C20.523 12.0036 17.548 11.4426 14.739 12.5736C12.336 13.5448 10.523 16.2278 10.523 18.8142C10.523 18.9552 10.527 19.0962 10.536 19.2352C9.22 19.6533 7 20.8277 7 23.982C7 24.1014 7.003 24.2167 7.01 24.3311C7.16 26.9461 9.48 28.998 12.293 29H28.625C31.223 29 34 27.6925 34 24.0205C34 21.5061 32.492 19.7746 29.742 19.114Z" fill="#C925D1"/>
</g>
<rect x="0.5" y="0.5" width="39" height="39" stroke="#C925D1"/>
<defs>
<clipPath id="clip0_23296_3577">
<rect width="40" height="40" fill="white"/>
</clipPath>
</defs>
</svg>
