<svg width="24" height="24" viewBox="0 0 24 24" fill="none" xmlns="http://www.w3.org/2000/svg">
<path fill-rule="evenodd" clip-rule="evenodd" d="M2.99995 6.09961C1.89995 6.09961 0.699951 7.19961 0.699951 8.29961V17.9996H2.99995V13.4996H5.19995V17.9996H7.39995V8.29961C7.39995 7.19961 6.29995 6.09961 5.09995 6.09961H2.99995ZM2.99995 11.1996V8.19961H5.19995V11.1996H2.99995Z" fill="white"/>
<path fill-rule="evenodd" clip-rule="evenodd" d="M11.3 6C10.1 6 9 7.1 9 8.2V18H11.2V13.5H13.4C14.5 13.5 15.7 12.4 15.7 11.3V8.3C15.7 7.2 14.6 6.1 13.4 6.1H11.3V6ZM11.2 11.2V8.2H13.4V11.2H11.2Z" fill="white"/>
<path fill-rule="evenodd" clip-rule="evenodd" d="M19.5 8.29961V15.7996H17.2V17.9996H24V15.7996H21.7999V8.29961H24V6.09961H17.2V8.29961H19.5Z" fill="white"/>
<path fill-rule="evenodd" clip-rule="evenodd" d="M3 13.5002V11.2002H4.5L3 13.5002Z" fill="#CCCCCC"/>
<path fill-rule="evenodd" clip-rule="evenodd" d="M11.2 13.5002V11.2002H12.5L11.2 13.5002Z" fill="#CCCCCC"/>
<path fill-rule="evenodd" clip-rule="evenodd" d="M19.5 9.7998V8.2998H21.8L19.5 9.7998Z" fill="#CCCCCC"/>
</svg>
