<svg width="24" height="24" viewBox="0 0 24 24" fill="none" xmlns="http://www.w3.org/2000/svg">
<path d="M12 22.7002C12.5523 22.7002 13 22.2525 13 21.7002C13 21.1479 12.5523 20.7002 12 20.7002C11.4477 20.7002 11 21.1479 11 21.7002C11 22.2525 11.4477 22.7002 12 22.7002Z" fill="white"/>
<path d="M3.4502 14.2998C4.00248 14.2998 4.4502 13.8521 4.4502 13.2998C4.4502 12.7475 4.00248 12.2998 3.4502 12.2998C2.89791 12.2998 2.4502 12.7475 2.4502 13.2998C2.4502 13.8521 2.89791 14.2998 3.4502 14.2998Z" fill="white"/>
<path d="M17.8501 17C18.4024 17 18.8501 16.5523 18.8501 16C18.8501 15.4477 18.4024 15 17.8501 15C17.2978 15 16.8501 15.4477 16.8501 16C16.8501 16.5523 17.2978 17 17.8501 17Z" fill="white"/>
<path d="M15.9601 17.0604L15.8801 16.9004L13.0901 19.7504L13.2201 19.8504C13.5201 20.0504 13.7601 20.3204 13.9301 20.6404L14.0201 20.8004L16.8001 17.9104L16.6801 17.8304C16.3801 17.6304 16.1401 17.3704 15.9601 17.0604Z" fill="white"/>
<path d="M5.33999 14.3602C5.16999 14.6702 4.91999 14.9302 4.62999 15.1302L4.48999 15.2202L10.01 20.8002L10.1 20.6402C10.26 20.3302 10.5 20.0602 10.8 19.8602L10.93 19.7702L5.41999 14.2002L5.33999 14.3602Z" fill="white"/>
<path d="M17.66 1.59961C15.97 1.60961 14.36 2.28961 13.2 3.47961L12 4.63961L10.8 3.47961C9.65005 2.28961 8.04005 1.60961 6.36005 1.59961C2.77005 1.67961 -0.069954 4.54961 4.59669e-05 8.00961C4.59669e-05 9.46961 0.500046 10.8896 1.43005 12.0396L1.54005 12.1896L1.64005 12.0396C1.83005 11.7396 2.09005 11.4896 2.40005 11.3196L2.54005 11.2396L2.45005 11.1096C1.75005 10.2196 1.38005 9.12961 1.38005 8.00961C1.35005 6.70961 1.86005 5.44961 2.79005 4.50961C3.73005 3.55961 5.01005 3.01961 6.36005 2.98961C7.70005 2.99961 8.97005 3.53961 9.88005 4.48961L12 6.61961L14.14 4.45961C15.05 3.51961 16.33 2.98961 17.66 2.98961C20.47 3.05961 22.69 5.29961 22.63 8.00961C22.63 9.32961 22.11 10.5996 21.18 11.5596L18.78 13.9896L18.94 14.0796C19.24 14.2596 19.5 14.5096 19.68 14.8096L19.76 14.9496L22.16 12.5496C23.35 11.3196 24.01 9.69961 24 8.00961C24.07 4.55961 21.24 1.68961 17.66 1.59961Z" fill="white"/>
</svg>
