<svg width="40" height="40" viewBox="0 0 40 40" xmlns="http://www.w3.org/2000/svg">  <g id="Icon-Architecture/32/Arch_AWS-Service-Management-Connector_32" stroke="none" stroke-width="1" fill="none" fill-rule="evenodd">  <path d="M22,19.5 L22,21 L17,21 L17,19.5 C17,17.771 17.771,17 19.5,17 C21.229,17 22,17.771 22,19.5 M24.643,7.514 L24.262,8.439 C29.548,10.619 32.677,16.125 31.87,21.829 C31.089,27.352 26.486,31.807 20.926,32.421 C17.318,32.818 13.847,31.718 11.164,29.315 C8.518,26.945 7,23.55 7,20 C7,13.275 12.338,7.773 19,7.51 L19,16.035 C17.042,16.207 16,17.388 16,19.5 L16,21.5 C16,21.776 16.224,22 16.5,22 L17,22 L17,25 L18,25 L18,22 L21,22 L21,25 L22,25 L22,22 L22.5,22 C22.776,22 23,21.776 23,21.5 L23,19.5 C23,17.388 21.958,16.207 20,16.035 L20,7 C20,6.724 19.776,6.5 19.5,6.5 C12.056,6.5 6,12.556 6,20 C6,23.834 7.639,27.5 10.497,30.06 C13.006,32.307 16.148,33.501 19.479,33.501 C19.993,33.501 20.513,33.473 21.035,33.415 C27.043,32.751 32.017,27.937 32.86,21.968 C33.731,15.812 30.352,9.868 24.643,7.514" id="Fill-3" fill="#FFFFFF"></path> </g></svg>