<svg width="40" height="40"  viewBox="0 0 40 40" xmlns="http://www.w3.org/2000/svg">  <g id="Icon-Architecture/32/Arch_Amazon-Managed-Workflows-for-Apache-Airflow_32" stroke="none" stroke-width="1" fill="none" fill-rule="evenodd">  <g id="Icon-Service/32/Amazon-Managed-Workflows-for-Apache-Airflow_32" transform="translate(6.000000, 6.000000)" fill="#FFFFFF"> <path d="M24.5,24 C23.121,24 22,22.878 22,21.5 C22,20.122 23.121,19 24.5,19 C25.879,19 27,20.122 27,21.5 C27,22.878 25.879,24 24.5,24 L24.5,24 Z M24.5,18 C22.57,18 21,19.57 21,21.5 C21,23.43 22.57,25 24.5,25 C26.43,25 28,23.43 28,21.5 C28,19.57 26.43,18 24.5,18 L24.5,18 Z M24.5,16 C23.121,16 22,14.878 22,13.5 C22,12.122 23.121,11 24.5,11 C25.879,11 27,12.122 27,13.5 C27,14.878 25.879,16 24.5,16 L24.5,16 Z M24.5,10 C22.57,10 21,11.57 21,13.5 C21,15.43 22.57,17 24.5,17 C26.43,17 28,15.43 28,13.5 C28,11.57 26.43,10 24.5,10 L24.5,10 Z M24.5,8 C23.121,8 22,6.878 22,5.5 C22,4.122 23.121,3 24.5,3 C25.879,3 27,4.122 27,5.5 C27,6.878 25.879,8 24.5,8 L24.5,8 Z M24.5,2 C22.57,2 21,3.57 21,5.5 C21,7.43 22.57,9 24.5,9 C26.43,9 28,7.43 28,5.5 C28,3.57 26.43,2 24.5,2 L24.5,2 Z M28,0 L28,1 L19,1 L19,27 L28,27 L28,28 L18.5,28 C18.224,28 18,27.776 18,27.5 L18,14 L11,14 L11,13 L18,13 L18,0.5 C18,0.224 18.224,0 18.5,0 L28,0 Z M1,16.691 L1,10.309 L7.382,13.5 L1,16.691 Z M8.724,13.053 L0.724,9.053 C0.569,8.975 0.384,8.983 0.237,9.075 C0.09,9.166 0,9.327 0,9.5 L0,17.5 C0,17.673 0.09,17.834 0.237,17.925 C0.317,17.975 0.408,18 0.5,18 C0.576,18 0.653,17.982 0.724,17.947 L8.724,13.947 C8.893,13.862 9,13.689 9,13.5 C9,13.311 8.893,13.138 8.724,13.053 L8.724,13.053 Z M4.5,27 C2.57,27 1,25.43 1,23.5 C1,21.57 2.57,20 4.5,20 C6.43,20 8,21.57 8,23.5 C8,25.43 6.43,27 4.5,27 L4.5,27 Z M4.5,19 C2.019,19 0,21.019 0,23.5 C0,25.981 2.019,28 4.5,28 C6.981,28 9,25.981 9,23.5 C9,21.019 6.981,19 4.5,19 L4.5,19 Z M1,7 L7,7 L7,1 L1,1 L1,7 Z M0.5,8 L7.5,8 C7.776,8 8,7.776 8,7.5 L8,0.5 C8,0.224 7.776,0 7.5,0 L0.5,0 C0.224,0 0,0.224 0,0.5 L0,7.5 C0,7.776 0.224,8 0.5,8 L0.5,8 Z" id="Fill-5"></path> </g> </g></svg>