<svg width="40" height="40" viewBox="0 0 40 40" fill="none" xmlns="http://www.w3.org/2000/svg">
<g clip-path="url(#clip0_23296_3664)">
<path d="M40 0H0V40H40V0Z" fill="#DD344C" fill-opacity="0.12"/>
<path fill-rule="evenodd" clip-rule="evenodd" d="M29.0234 30L19.0184 11H21.8904L31.8934 30H29.0234ZM22.6344 10.267C22.5484 10.103 22.3774 10 22.1924 10H18.1904C18.0154 10 17.8524 10.092 17.7624 10.242C17.6714 10.392 17.6664 10.578 17.7484 10.733L28.2794 30.733C28.3664 30.897 28.5364 31 28.7214 31H32.7214C32.8964 31 33.0594 30.908 33.1494 30.758C33.2404 30.608 33.2464 30.422 33.1644 30.267L22.6344 10.267ZM22.8084 30L15.5714 15.528L16.9414 13.077L25.6784 30H22.8084ZM17.4034 11.792C17.3184 11.628 17.1514 11.524 16.9664 11.521H16.9594C16.7784 11.521 16.6114 11.619 16.5224 11.777L14.5694 15.271C14.4884 15.416 14.4844 15.591 14.5584 15.739L22.0524 30.724C22.1374 30.893 22.3104 31 22.5004 31H26.5004C26.6744 31 26.8354 30.909 26.9264 30.76C27.0174 30.611 27.0244 30.426 26.9444 30.271L17.4034 11.792ZM7.35439 30L13.8584 18.426L14.9334 20.495L11.2494 27.3C11.1654 27.456 11.1694 27.643 11.2584 27.794C11.3484 27.946 11.5124 28.039 11.6884 28.039H18.6874L19.6844 30H7.35439ZM19.4394 27.312C19.3544 27.144 19.1824 27.039 18.9944 27.039H12.5284L15.9394 20.738C16.0184 20.592 16.0204 20.417 15.9434 20.27L14.3184 17.145C14.2344 16.981 14.0664 16.878 13.8824 16.875H13.8754C13.6944 16.875 13.5274 16.972 13.4394 17.13L6.06439 30.255C5.97739 30.41 5.97839 30.599 6.06839 30.752C6.15839 30.906 6.32239 31 6.50039 31H20.5004C20.6734 31 20.8354 30.91 20.9254 30.761C21.0174 30.613 21.0244 30.428 20.9454 30.273L19.4394 27.312Z" fill="#DD344C"/>
</g>
<rect x="0.5" y="0.5" width="39" height="39" stroke="#DD344C"/>
<defs>
<clipPath id="clip0_23296_3664">
<rect width="40" height="40" fill="white"/>
</clipPath>
</defs>
</svg>
