<svg width="40" height="40" viewBox="0 0 40 40" fill="none" xmlns="http://www.w3.org/2000/svg">
<g clip-path="url(#clip0_23311_9559)">
<path d="M40 0H0V40H40V0Z" fill="#DD344C" fill-opacity="0.12"/>
<path fill-rule="evenodd" clip-rule="evenodd" d="M30.746 25.561L30.039 26.268L31.77 28H27V29H31.739L30.039 30.7L30.746 31.407L33.315 28.838C33.511 28.643 33.511 28.326 33.315 28.131L30.746 25.561ZM18 29H23.746L22.045 30.7L22.752 31.407L25.322 28.838C25.416 28.744 25.469 28.617 25.469 28.484C25.469 28.352 25.416 28.225 25.322 28.131L22.752 25.561L22.045 26.268L23.777 28H18V29ZM13.759 31.407L16.328 28.838C16.523 28.643 16.523 28.326 16.328 28.131L13.759 25.561L13.052 26.268L14.783 28H9V29H14.752L13.052 30.7L13.759 31.407ZM9 22H17V21H9V22ZM9 17H17V16H9V17ZM21 17H24V16H21V17ZM24.5 15C24.776 15 25 15.224 25 15.5V17.5C25 17.776 24.776 18 24.5 18H20.5C20.224 18 20 17.776 20 17.5V15.5C20 15.224 20.224 15 20.5 15H24.5ZM21 22H33V21H21V22ZM34 20.5V22.5C34 22.776 33.776 23 33.5 23H20.5C20.224 23 20 22.776 20 22.5V20.5C20 20.224 20.224 20 20.5 20H33.5C33.776 20 34 20.224 34 20.5ZM23 7.165V11H26.797L23 7.165ZM27 32H28V33.5C28 33.776 27.776 34 27.5 34H6.5C6.224 34 6 33.776 6 33.5V6.5C6 6.224 6.224 6 6.5 6H23.046C23.18 6 23.308 6.053 23.401 6.148L27.855 10.648C27.948 10.742 28 10.868 28 11V18H27V12H22.5C22.224 12 22 11.776 22 11.5V7H7V33H27V32ZM17.256 9.565L13.401 13.42C13.304 13.518 13.176 13.566 13.048 13.566C12.92 13.566 12.792 13.518 12.694 13.42L10.767 11.493L11.474 10.786L13.048 12.359L16.549 8.858L17.256 9.565Z" fill="#DD344C"/>
</g>
<rect x="0.5" y="0.5" width="39" height="39" stroke="#DD344C"/>
<defs>
<clipPath id="clip0_23311_9559">
<rect width="40" height="40" fill="white"/>
</clipPath>
</defs>
</svg>
