<svg width="40" height="40" viewBox="0 0 40 40" fill="none" xmlns="http://www.w3.org/2000/svg">
<g clip-path="url(#clip0_23295_3221)">
<path d="M40 0H0V40H40V0Z" fill="#ED7100" fill-opacity="0.12"/>
<path fill-rule="evenodd" clip-rule="evenodd" d="M21.024 23.0315V22.0275C22.802 21.7815 24.155 20.2575 24.155 18.3895C24.155 16.5225 22.802 14.9975 21.024 14.7525V13.7475C23.361 13.9985 25.155 15.9685 25.155 18.3895C25.155 20.8105 23.361 22.7805 21.024 23.0315ZM22.026 7.60555H21.024V6.60555H22.554C22.692 6.60555 22.823 6.66255 22.918 6.76155C23.012 6.86255 23.061 6.99655 23.053 7.13355L22.972 8.59355C23.808 8.81955 24.609 9.14955 25.361 9.57955L26.333 8.48755C26.423 8.38555 26.553 8.32455 26.691 8.32055C26.814 8.31355 26.961 8.36855 27.059 8.46655L30.234 11.6335C30.331 11.7305 30.384 11.8635 30.38 12.0015C30.377 12.1385 30.316 12.2685 30.213 12.3605L29.125 13.3335C29.556 14.0825 29.889 14.8825 30.117 15.7205L31.574 15.6365C31.709 15.6355 31.846 15.6775 31.946 15.7715C32.046 15.8655 32.103 15.9975 32.103 16.1355L32.109 20.6185C32.109 20.7565 32.052 20.8875 31.953 20.9825C31.853 21.0775 31.717 21.1285 31.581 21.1185L30.128 21.0375C29.866 22.0115 29.461 22.9375 28.92 23.7945L28.075 23.2615C28.629 22.3805 29.026 21.4195 29.253 20.4055C29.307 20.1675 29.489 19.9975 29.77 20.0155L31.108 20.0905L31.104 16.6655L29.761 16.7425C29.514 16.7585 29.298 16.5935 29.245 16.3545C29.013 15.3385 28.615 14.3795 28.06 13.5055C27.928 13.2985 27.966 13.0275 28.149 12.8645L29.153 11.9675L26.727 9.54855L25.832 10.5535C25.67 10.7375 25.401 10.7755 25.192 10.6445C24.314 10.0915 23.354 9.69655 22.34 9.46855C22.102 9.41455 21.937 9.19655 21.951 8.95255L22.026 7.60555ZM15.608 31.3525L14.032 30.4065L17.332 27.9315L16.732 27.1325L13.106 29.8515L10.026 28.0035V24.3315L12.291 22.9595L11.773 22.1045L9.48 23.4935L7.001 22.5015L7 19.4915L9.76 17.8215L9.243 16.9655L7 18.3235L7.001 16.4855L9.503 15.1145L12.052 16.8015V18.2625L10.757 19.1145L11.306 19.9495L12.585 19.1095L14.013 19.8385V21.5315H15.013V19.5315C15.013 19.3435 14.908 19.1725 14.741 19.0865L13.052 18.2255V16.8015L15.853 14.9485C15.994 14.8565 16.078 14.6995 16.078 14.5315V11.5315H15.078V14.2625L12.552 15.9325L10.026 14.2635V10.3995L12.011 9.07555V11.5315H13.011V8.40855L15.031 7.06255L19.001 8.65455V18.1535L16.796 16.6645L16.236 17.4935L19.001 19.3605V20.8125L14.725 24.1375L15.338 24.9265L19.001 22.0785V29.7825L15.608 31.3525ZM19.687 7.85255L15.159 6.03655C15.003 5.97355 14.832 5.99355 14.695 6.08455L9.249 9.71555C9.11 9.80855 9.026 9.96455 9.026 10.1315V14.2355L6.26 15.7505C6.1 15.8385 6.001 16.0065 6.001 16.1895L6 19.0625L6.001 22.8405C6.001 23.0445 6.126 23.2285 6.315 23.3045L9.026 24.3885V28.2865C9.026 28.4625 9.118 28.6245 9.269 28.7155L15.321 32.3455C15.399 32.3935 15.489 32.4175 15.578 32.4175C15.649 32.4175 15.721 32.4025 15.788 32.3705L19.711 30.5555C19.887 30.4735 20.001 30.2965 20.001 30.1015V8.31655C20.001 8.11255 19.877 7.92755 19.687 7.85255ZM30.153 30.5195H23.11C22.983 30.5195 22.885 30.4975 22.819 30.4565C22.496 30.2525 22.111 29.8595 22.111 29.1435C22.111 28.2565 22.674 27.9255 23.148 27.8035C23.378 27.7435 23.536 27.5295 23.522 27.2905L23.504 26.9935C23.504 26.2115 24.06 25.3385 24.743 25.0495C25.057 24.9155 25.348 24.8625 25.612 24.8625C26.364 24.8625 26.895 25.2935 27.127 25.5275C27.382 25.7835 27.591 26.1285 27.73 26.5245C27.792 26.6985 27.945 26.8255 28.128 26.8525C28.315 26.8785 28.495 26.8035 28.604 26.6545C28.762 26.4415 29.032 26.3495 29.275 26.4305C29.56 26.5235 29.723 26.8275 29.725 27.2175C29.688 27.4845 29.87 27.7335 30.135 27.7795C30.614 27.8615 31.417 28.1505 31.417 29.1595C31.417 30.3355 30.343 30.4995 30.153 30.5195ZM30.696 26.8875C30.573 26.0855 30.066 25.6375 29.587 25.4805C29.184 25.3485 28.756 25.3865 28.392 25.5645C28.236 25.2865 28.05 25.0375 27.836 24.8225C26.885 23.8655 25.584 23.6075 24.352 24.1285C23.315 24.5695 22.529 25.7705 22.505 26.9675C21.625 27.3405 21.111 28.1285 21.111 29.1435C21.111 30.3765 21.847 31.0255 22.286 31.3025C22.515 31.4465 22.793 31.5195 23.11 31.5195H30.176C30.188 31.5195 30.201 31.5185 30.212 31.5175C30.975 31.4625 32.417 30.8975 32.417 29.1595C32.417 27.8705 31.586 27.1635 30.696 26.8875Z" fill="#ED7100"/>
</g>
<rect x="0.5" y="0.5" width="39" height="39" stroke="#ED7100"/>
<defs>
<clipPath id="clip0_23295_3221">
<rect width="40" height="40" fill="white"/>
</clipPath>
</defs>
</svg>
