<svg width="40" height="40" viewBox="0 0 40 40" fill="none" xmlns="http://www.w3.org/2000/svg">
<g clip-path="url(#clip0_23295_3352)">
<path d="M40 0H0V40H40V0Z" fill="#ED7100" fill-opacity="0.12"/>
<path fill-rule="evenodd" clip-rule="evenodd" d="M15.909 18.167H17.909V17.167H15.909V18.167ZM29.619 24.319L30.559 23.977L29.613 21.387C29.519 21.128 29.232 20.995 28.972 21.089L26.322 22.056L26.666 22.995L28.135 22.459C27.472 23.767 26.732 24.981 25.958 26.012C25.819 26.199 25.68 26.375 25.54 26.547C23.851 28.635 22.197 29.668 21.221 29.24C20.895 29.099 20.635 28.793 20.448 28.331L19.521 28.705C19.805 29.409 20.255 29.911 20.821 30.157C21.092 30.275 21.382 30.333 21.688 30.333C23.019 30.333 24.654 29.231 26.316 27.177C26.465 26.995 26.612 26.807 26.759 26.61C27.584 25.511 28.37 24.213 29.071 22.818L29.619 24.319ZM29.617 16.969C29.44 15.505 28.774 14.383 27.72 13.787L27.228 14.657C28.066 15.132 28.573 16.109 28.653 17.41C28.667 17.636 28.832 17.825 29.054 17.869C30.875 18.234 33.046 19.269 33.046 22.126C33.046 25.715 30.181 26.251 28.473 26.251H27.921V27.251H28.473C29.78 27.251 34.046 26.881 34.046 22.126C34.046 19.479 32.478 17.659 29.617 16.969ZM14.909 24.167H18.909V14.167H14.909V24.167ZM19.409 13.167C19.686 13.167 19.909 13.391 19.909 13.667V24.667C19.909 24.944 19.686 25.167 19.409 25.167H14.409C14.133 25.167 13.909 24.944 13.909 24.667V13.667C13.909 13.391 14.133 13.167 14.409 13.167H19.409ZM22.863 26.251H11.484C9.095 26.251 7.129 24.558 7.008 22.356C7.004 22.268 7 22.179 7 22.087C7 19.202 9.089 18.255 10.335 17.947C10.58 17.887 10.742 17.652 10.711 17.401C10.681 17.151 10.665 16.895 10.665 16.634C10.665 14.334 12.314 11.858 14.417 10.997C18.066 9.50202 20.656 11.466 21.601 12.378C22.356 13.113 22.969 14.088 23.373 15.194L24.313 14.851C23.856 13.604 23.16 12.502 22.297 11.66C20.033 9.47202 16.945 8.88002 14.038 10.072C11.545 11.091 9.665 13.912 9.665 16.634C9.665 16.789 9.67 16.943 9.679 17.094C8.317 17.529 6 18.759 6 22.087C6 22.195 6.005 22.298 6.012 22.451C6.16 25.143 8.565 27.251 11.484 27.251H22.863V26.251ZM24.286 10.093C25.037 10.424 25.441 11.635 25.398 13.475L25.396 13.596C25.33 15.331 24.855 17.427 24.077 19.594L23.529 18.247L22.604 18.624L23.642 21.177C23.691 21.299 23.788 21.398 23.91 21.449C23.973 21.475 24.038 21.488 24.105 21.488C24.169 21.488 24.232 21.476 24.293 21.452L26.906 20.389L26.529 19.462L24.954 20.103C25.803 17.779 26.324 15.505 26.397 13.565C26.398 13.501 26.399 13.44 26.396 13.44C26.452 11.202 25.847 9.68902 24.687 9.17602C24.114 8.92902 23.148 8.82002 21.794 9.69502L22.337 10.535C22.88 10.184 23.662 9.82202 24.286 10.093ZM15.909 16.167H17.909V15.167H15.909V16.167Z" fill="#ED7100"/>
</g>
<rect x="0.5" y="0.5" width="39" height="39" stroke="#ED7100"/>
<defs>
<clipPath id="clip0_23295_3352">
<rect width="40" height="40" fill="white"/>
</clipPath>
</defs>
</svg>
