<svg data-name="Layer 1" xmlns="http://www.w3.org/2000/svg" width="18" height="18" viewBox="0 0 18 18"><defs><linearGradient id="a" x1="8.992" y1="16.975" x2="8.992" y2=".242" gradientUnits="userSpaceOnUse"><stop offset="0" stop-color="#b3b2b3"/><stop offset=".31" stop-color="#9e9e9e"/><stop offset=".54" stop-color="#949494"/></linearGradient></defs><g fill="#fff"><circle cx="10.1" cy="8.05" r="1.43"/><circle cx="12.5" cy="12.31" r="1.12"/><circle cx="8.04" cy="11.54" r=".97"/><circle cx="7.35" cy="4.18" r="1.2"/><circle cx="4.13" cy="8.59" r=".97"/></g><path d="M12.76 12.08l-2.42-4.23-.24.13.2-.14-2.74-3.9-.5.36 2.43 3.45-5.38.45.05.62 5.33-.45-1.77 2.94.53.32 1.82-3.02 2.16 3.77.54-.3z" fill="#989898"/><g fill="#32bedd"><circle cx="10.09" cy="8.06" r="1.42"/><circle cx="7.35" cy="4.18" r="1.2"/><circle cx="4.13" cy="8.59" r=".97"/><circle cx="8.04" cy="11.54" r=".97"/><circle cx="12.5" cy="12.31" r="1.12"/></g><circle cx="15.05" cy="3.85" r="1.42" fill="#198ab3"/><circle cx="3.17" cy="3.85" r="1.42" fill="#198ab3"/><circle cx="9.01" cy="16.33" r="1.42" fill="#198ab3"/><path d="M4.94 3.12a6.881 6.881 0 018.29.12 1.918 1.918 0 011-1.15A8.431 8.431 0 003.81 2a1.941 1.941 0 011.13 1.12zM16.6 5a1.91 1.91 0 01-1.34.76 6.842 6.842 0 01.67 3 6.92 6.92 0 01-5.22 6.7 1.871 1.871 0 01.24.91 1.765 1.765 0 01-.13.65A8.45 8.45 0 0016.59 5zM7.1 16.32a1.95 1.95 0 01.23-.9 6.909 6.909 0 01-4.56-9.69 2 2 0 01-1-.53 1.676 1.676 0 01-.3-.4A8.47 8.47 0 007.21 17a1.926 1.926 0 01-.12-.68z" fill="url(#a)"/></svg>