<svg width="40" height="40" viewBox="0 0 40 40" fill="none" xmlns="http://www.w3.org/2000/svg">
<g clip-path="url(#clip0_23299_4246)">
<path d="M40 0H0V40H40V0Z" fill="#ED7100" fill-opacity="0.12"/>
<path fill-rule="evenodd" clip-rule="evenodd" d="M31 17.309L28.5 16.059L26 17.309V20.691L28.5 21.941L31 20.691V17.309ZM23 12.309L20.5 11.059L18 12.309V15.691L20.5 16.941L23 15.691V12.309ZM15 17.309L12.5 16.059L10 17.309V20.691L12.5 21.941L15 20.691V17.309ZM32 17V21C32 21.189 31.893 21.362 31.724 21.447L28.724 22.947C28.653 22.982 28.576 23 28.5 23C28.424 23 28.347 22.982 28.276 22.947L25.276 21.447C25.107 21.362 25 21.189 25 21V17.309L23.5 16.559L20.724 17.947C20.583 18.017 20.417 18.017 20.276 17.947L17.5 16.559L16 17.309V21C16 21.189 15.893 21.362 15.724 21.447L12.724 22.947C12.583 23.017 12.417 23.017 12.276 22.947L9.276 21.447C9.107 21.362 9 21.189 9 21V17C9 16.81 9.107 16.638 9.276 16.553L12.276 15.053C12.417 14.982 12.583 14.982 12.724 15.053L15.5 16.441L17 15.691V12C17 11.81 17.107 11.638 17.276 11.553L20.276 10.053C20.417 9.982 20.583 9.982 20.724 10.053L23.724 11.553C23.893 11.638 24 11.81 24 12V15.691L25.5 16.441L28.276 15.053C28.417 14.982 28.583 14.982 28.724 15.053L31.724 16.553C31.893 16.638 32 16.81 32 17ZM18.257 28.571L17.743 29.429L20.243 30.929C20.322 30.976 20.411 31 20.5 31C20.589 31 20.678 30.976 20.757 30.929L23.257 29.429L22.743 28.571L21 29.617V21.383L22.743 22.429L23.257 21.571L20.757 20.071C20.599 19.976 20.401 19.976 20.243 20.071L17.743 21.571L18.257 22.429L20 21.383V29.617L18.257 28.571ZM12.481 12.611L14.2 13.9C14.351 14.014 14.556 14.032 14.724 13.947C14.893 13.862 15 13.689 15 13.5V10.809L20.495 8.059L26.021 10.809V13.5C26.021 13.69 26.128 13.863 26.298 13.948C26.467 14.033 26.672 14.013 26.822 13.898L28.521 12.612L31.226 14.392L31.774 13.557L28.774 11.582C28.6 11.466 28.368 11.474 28.198 11.601L27.021 12.494V10.5C27.021 10.31 26.913 10.137 26.743 10.052L20.717 7.052C20.575 6.982 20.41 6.983 20.271 7.053L14.276 10.053C14.106 10.138 14 10.31 14 10.5V12.5L12.8 11.6C12.63 11.473 12.4 11.467 12.226 11.582L9.226 13.557L9.774 14.392L12.481 12.611ZM31.5001 26.959C31.503 27.135 31.413 27.299 31.264 27.392L20.764 33.924C20.684 33.975 20.592 34 20.5 34C20.408 34 20.316 33.975 20.236 33.925L9.725 27.392C9.575 27.299 9.485 27.134 9.48793 26.958C9.491 26.783 9.587 26.621 9.739 26.534L15.763 23.066L16.261 23.934L10.962 26.983L20.5 32.911L30.028 26.983L24.75 23.933L25.25 23.067L31.25 26.534C31.402 26.622 31.497 26.784 31.5001 26.959Z" fill="#ED7100"/>
</g>
<rect x="0.5" y="0.5" width="39" height="39" stroke="#ED7100"/>
<defs>
<clipPath id="clip0_23299_4246">
<rect width="40" height="40" fill="white"/>
</clipPath>
</defs>
</svg>
