<svg width="40" height="40" viewBox="0 0 40 40" fill="none" xmlns="http://www.w3.org/2000/svg">
<g clip-path="url(#clip0_23293_2699)">
<path d="M40 0H0V40H40V0Z" fill="#8C4FFF" fill-opacity="0.12"/>
<path fill-rule="evenodd" clip-rule="evenodd" d="M22.3596 14.498C22.3596 15.794 21.3046 16.849 20.0086 16.849C18.7126 16.849 17.6576 15.794 17.6576 14.498C17.6576 13.202 18.7126 12.147 20.0086 12.147C21.3046 12.147 22.3596 13.202 22.3596 14.498ZM23.3596 14.498C23.3596 12.65 21.8566 11.147 20.0086 11.147C18.1616 11.147 16.6576 12.65 16.6576 14.498C16.6576 16.346 18.1616 17.849 20.0086 17.849C21.8566 17.849 23.3596 16.346 23.3596 14.498ZM19.1826 20.366C19.1966 20.122 19.0326 19.904 18.7946 19.85C18.1876 19.713 17.6126 19.474 17.0836 19.14C16.8786 19.01 16.6066 19.048 16.4436 19.23L16.0236 19.702L14.8046 18.483L15.2766 18.063C15.4596 17.9 15.4976 17.63 15.3666 17.423C15.0336 16.895 14.7956 16.32 14.6596 15.713C14.6056 15.475 14.4156 15.314 14.1426 15.324L13.5106 15.359V13.637L14.1446 13.673C14.3906 13.686 14.6066 13.523 14.6606 13.285C14.7976 12.678 15.0376 12.103 15.3706 11.577C15.5016 11.371 15.4636 11.1 15.2806 10.937L14.8046 10.513L16.0236 9.295L16.4466 9.769C16.6086 9.952 16.8806 9.989 17.0866 9.859C17.6136 9.527 18.1876 9.29 18.7946 9.152C19.0326 9.098 19.1966 8.88 19.1826 8.636L19.1466 8H20.8706L20.8346 8.637C20.8206 8.881 20.9846 9.1 21.2226 9.153C21.8286 9.29 22.4026 9.528 22.9296 9.86C23.1356 9.99 23.4086 9.953 23.5696 9.77L23.9936 9.295L25.2126 10.513L24.7386 10.935C24.5556 11.098 24.5176 11.369 24.6486 11.576C24.9816 12.102 25.2196 12.677 25.3576 13.284C25.4116 13.522 25.6046 13.693 25.8736 13.673L26.5056 13.637V15.359L25.8736 15.324C25.5946 15.304 25.4106 15.475 25.3576 15.713C25.2206 16.318 24.9826 16.894 24.6496 17.422C24.5196 17.629 24.5576 17.899 24.7396 18.062L25.2126 18.483L23.9936 19.702L23.5746 19.231C23.4126 19.049 23.1396 19.01 22.9346 19.141C22.4066 19.475 21.8306 19.713 21.2226 19.85C20.9846 19.904 20.8196 20.123 20.8346 20.367L20.8706 20.996H19.1466L19.1826 20.366ZM21.7626 21.839C21.8576 21.739 21.9066 21.604 21.8986 21.467L21.8556 20.718C22.2876 20.59 22.7046 20.418 23.1006 20.203L23.5996 20.762C23.6906 20.865 23.8206 20.925 23.9586 20.93C24.1056 20.931 24.2296 20.881 24.3266 20.783L26.2936 18.816C26.3906 18.719 26.4436 18.586 26.4396 18.449C26.4356 18.311 26.3756 18.182 26.2726 18.09L25.7106 17.588C25.9256 17.192 26.0976 16.776 26.2246 16.345L26.9776 16.388C27.1216 16.395 27.2496 16.347 27.3496 16.252C27.4496 16.158 27.5056 16.026 27.5056 15.889V13.107C27.5056 12.97 27.4496 12.838 27.3496 12.744C27.2496 12.65 27.1216 12.602 26.9776 12.608L26.2246 12.651C26.0966 12.22 25.9246 11.805 25.7106 11.409L26.2726 10.907C26.3756 10.815 26.4356 10.685 26.4396 10.548C26.4436 10.41 26.3906 10.277 26.2936 10.18L24.3266 8.213C24.2286 8.116 24.1016 8.067 23.9586 8.067C23.8216 8.071 23.6916 8.131 23.5996 8.234L23.0956 8.799C22.7006 8.585 22.2856 8.413 21.8556 8.285L21.8986 7.529C21.9066 7.392 21.8576 7.257 21.7626 7.157C21.6686 7.057 21.5376 7 21.3996 7H18.6176C18.4796 7 18.3486 7.057 18.2546 7.157C18.1596 7.257 18.1106 7.392 18.1186 7.529L18.1616 8.284C17.7306 8.412 17.3156 8.584 16.9206 8.798L16.4176 8.234C16.3256 8.131 16.1956 8.071 16.0586 8.067C15.9266 8.071 15.7886 8.117 15.6906 8.213L13.7236 10.18C13.6266 10.277 13.5736 10.411 13.5776 10.548C13.5816 10.685 13.6416 10.815 13.7446 10.907L14.3086 11.41C14.0936 11.806 13.9216 12.221 13.7936 12.651L13.0396 12.608C12.9096 12.602 12.7676 12.65 12.6676 12.744C12.5676 12.838 12.5106 12.97 12.5106 13.107V15.889C12.5106 16.026 12.5676 16.158 12.6676 16.252C12.7676 16.347 12.9096 16.395 13.0396 16.388L13.7906 16.345C13.9186 16.777 14.0896 17.193 14.3046 17.589L13.7446 18.09C13.6416 18.182 13.5816 18.311 13.5776 18.449C13.5736 18.586 13.6266 18.719 13.7236 18.816L15.6906 20.783C15.7886 20.881 15.9226 20.928 16.0586 20.93C16.1966 20.925 16.3256 20.865 16.4176 20.762L16.9176 20.202C17.3136 20.417 17.7296 20.589 18.1616 20.717L18.1186 21.467C18.1106 21.604 18.1596 21.739 18.2546 21.839C18.3476 21.939 18.4796 21.996 18.6176 21.996H21.3996C21.5376 21.996 21.6696 21.939 21.7626 21.839ZM22.3796 25.271L23.0486 24.692C24.0246 23.839 25.7346 23.839 26.7106 24.694L27.3776 25.269C28.7236 26.451 31.0046 26.45 32.3506 25.271L32.6846 24.982L32.0306 24.227L31.6946 24.517C30.7186 25.37 29.0086 25.37 28.0336 24.515L27.3666 23.939C26.0196 22.758 23.7396 22.759 22.3926 23.937L21.7226 24.518C20.7486 25.37 19.0386 25.371 18.0616 24.516L17.3956 23.939C16.0466 22.76 13.7666 22.759 12.4216 23.937L11.7516 24.518C10.7766 25.37 9.06656 25.371 8.08956 24.516L7.75556 24.227L7.10156 24.982L7.43356 25.269C8.78356 26.451 11.0616 26.45 12.4076 25.271L13.0776 24.692C14.0526 23.839 15.7636 23.839 16.7396 24.693L17.4056 25.269C18.0806 25.86 18.9876 26.156 19.8936 26.155C20.7996 26.155 21.7066 25.861 22.3796 25.271ZM22.3796 31.594L23.0486 31.014C24.0246 30.16 25.7346 30.162 26.7106 31.015L27.3776 31.592C28.7236 32.771 31.0046 32.772 32.3506 31.594L32.6846 31.304L32.0306 30.548L31.6946 30.839C30.7186 31.693 29.0086 31.691 28.0336 30.838L27.3666 30.261C26.0196 29.08 23.7396 29.081 22.3926 30.259L21.7226 30.839C20.7486 31.692 19.0386 31.692 18.0616 30.838L17.3956 30.261C16.0466 29.081 13.7666 29.081 12.4216 30.259L11.7516 30.839C10.7766 31.692 9.06656 31.692 8.08956 30.838L7.75556 30.548L7.10156 31.304L7.43356 31.592C8.78356 32.772 11.0616 32.771 12.4076 31.594L13.0776 31.014C14.0526 30.16 15.7636 30.162 16.7396 31.015L17.4056 31.592C18.0806 32.182 18.9876 32.477 19.8936 32.477C20.7996 32.477 21.7066 32.183 22.3796 31.594ZM19.8936 29.316C18.9876 29.317 18.0806 29.021 17.4056 28.431L16.7396 27.854C15.7636 27 14.0526 27 13.0776 27.853L12.4076 28.433C11.0616 29.611 8.78356 29.612 7.43356 28.431L7.10156 28.144L7.75556 27.388L8.08956 27.677C9.06656 28.532 10.7766 28.531 11.7516 27.679L12.4216 27.099C13.7666 25.92 16.0466 25.921 17.3956 27.1L18.0616 27.677C19.0386 28.532 20.7486 28.531 21.7226 27.679L22.3926 27.099C23.7396 25.92 26.0196 25.919 27.3666 27.101L28.0336 27.676C29.0086 28.531 30.7186 28.531 31.6946 27.678L32.0306 27.388L32.6846 28.144L32.3506 28.433C31.0046 29.611 28.7236 29.611 27.3776 28.431L26.7106 27.855C25.7346 27 24.0246 27 23.0486 27.853L22.3796 28.433C21.7066 29.022 20.7996 29.316 19.8936 29.316Z" fill="#8C4FFF"/>
</g>
<rect x="0.5" y="0.5" width="39" height="39" stroke="#8C4FFF"/>
<defs>
<clipPath id="clip0_23293_2699">
<rect width="40" height="40" fill="white"/>
</clipPath>
</defs>
</svg>
