<svg width="40" height="40" viewBox="0 0 40 40" fill="none" xmlns="http://www.w3.org/2000/svg">
<g clip-path="url(#clip0_23298_4120)">
<path d="M40 0H0V40H40V0Z" fill="#E7157B" fill-opacity="0.12"/>
<path fill-rule="evenodd" clip-rule="evenodd" d="M19.521 10.879C20.671 10.879 21.607 11.815 21.607 12.965C21.607 14.115 20.671 15.051 19.521 15.051C18.371 15.051 17.435 14.115 17.435 12.965C17.435 11.815 18.371 10.879 19.521 10.879ZM19.521 16.051C21.222 16.051 22.607 14.667 22.607 12.965C22.607 11.263 21.222 9.879 19.521 9.879C17.82 9.879 16.435 11.263 16.435 12.965C16.435 14.667 17.82 16.051 19.521 16.051ZM13.556 12.21L14.101 12.24C14.356 12.244 14.563 12.089 14.617 11.852C14.743 11.297 14.961 10.771 15.267 10.286C15.397 10.08 15.36 9.809 15.177 9.647L14.768 9.282L15.837 8.213L16.202 8.622C16.364 8.803 16.635 8.842 16.841 8.712C17.325 8.407 17.852 8.189 18.408 8.064C18.646 8.01 18.81 7.791 18.796 7.547L18.765 7H20.276L20.246 7.548C20.232 7.792 20.396 8.01 20.634 8.064C21.189 8.19 21.715 8.408 22.199 8.712C22.405 8.843 22.677 8.805 22.838 8.623L23.204 8.213L24.273 9.282L23.865 9.646C23.682 9.808 23.644 10.079 23.775 10.286C24.081 10.769 24.299 11.296 24.425 11.852C24.479 12.089 24.67 12.254 24.941 12.24L25.486 12.21V13.721L24.941 13.69C24.705 13.677 24.479 13.84 24.424 14.079C24.299 14.635 24.082 15.162 23.776 15.646C23.645 15.852 23.683 16.123 23.866 16.286L24.273 16.649L23.204 17.717L22.843 17.313C22.681 17.129 22.409 17.091 22.204 17.222C21.719 17.528 21.192 17.747 20.634 17.873C20.396 17.927 20.232 18.145 20.246 18.389L20.276 18.93H18.765L18.796 18.388C18.811 18.144 18.646 17.925 18.408 17.872C17.852 17.747 17.325 17.527 16.838 17.221C16.633 17.092 16.362 17.129 16.199 17.312L15.837 17.717L14.768 16.649L15.174 16.287C15.357 16.124 15.395 15.854 15.264 15.647C14.959 15.164 14.741 14.636 14.615 14.078C14.561 13.84 14.338 13.677 14.099 13.69L13.556 13.721V12.21ZM13.084 14.749L13.749 14.711C13.864 15.093 14.016 15.461 14.204 15.812L13.708 16.255C13.605 16.346 13.544 16.476 13.541 16.614C13.537 16.752 13.589 16.884 13.687 16.982L15.504 18.798C15.602 18.896 15.742 18.955 15.873 18.945C16.01 18.941 16.139 18.88 16.231 18.777L16.673 18.282C17.026 18.471 17.394 18.624 17.775 18.738L17.737 19.401C17.729 19.539 17.778 19.673 17.873 19.773C17.966 19.873 18.098 19.93 18.236 19.93H20.805C20.943 19.93 21.074 19.873 21.168 19.773C21.263 19.673 21.312 19.539 21.304 19.401L21.267 18.739C21.649 18.624 22.017 18.472 22.369 18.283L22.81 18.777C22.902 18.88 23.031 18.941 23.168 18.945C23.319 18.958 23.44 18.896 23.537 18.798L25.354 16.982C25.452 16.884 25.504 16.752 25.5 16.614C25.497 16.476 25.436 16.346 25.333 16.255L24.836 15.812C25.025 15.46 25.177 15.092 25.292 14.711L25.958 14.749C26.085 14.76 26.229 14.708 26.33 14.614C26.429 14.519 26.486 14.388 26.486 14.25V11.68C26.486 11.543 26.429 11.411 26.33 11.317C26.229 11.223 26.099 11.178 25.958 11.181L25.292 11.219C25.176 10.838 25.024 10.471 24.835 10.12L25.333 9.675C25.436 9.584 25.497 9.454 25.5 9.317C25.504 9.179 25.452 9.046 25.354 8.949L23.537 7.132C23.44 7.035 23.315 6.989 23.168 6.985C23.032 6.989 22.902 7.05 22.81 7.152L22.364 7.652C22.014 7.464 21.647 7.312 21.267 7.197L21.304 6.528C21.312 6.391 21.263 6.256 21.168 6.157C21.074 6.057 20.943 6 20.805 6H18.236C18.098 6 17.966 6.057 17.873 6.157C17.778 6.257 17.729 6.391 17.737 6.528L17.775 7.196C17.394 7.311 17.027 7.463 16.676 7.651L16.231 7.152C16.139 7.05 16.009 6.989 15.873 6.985C15.746 6.992 15.602 7.035 15.504 7.132L13.687 8.949C13.589 9.046 13.537 9.179 13.541 9.317C13.544 9.454 13.605 9.584 13.708 9.675L14.207 10.121C14.018 10.472 13.866 10.839 13.75 11.219L13.084 11.181C12.947 11.178 12.814 11.223 12.712 11.317C12.613 11.411 12.556 11.543 12.556 11.68V14.25C12.556 14.388 12.613 14.519 12.712 14.614C12.814 14.708 12.96 14.76 13.084 14.749ZM28.021 32.471H31.042V27.429H28.021V32.471ZM17.979 32.471H21.062V27.429H17.979V32.471ZM8 32.471H11.042V27.429H8V32.471ZM31.542 26.43H30.042V23.93C30.042 23.653 29.818 23.43 29.542 23.43H20.042V21.43H19.042V23.43H9.542C9.265 23.43 9.042 23.653 9.042 23.93V26.43H7.5C7.223 26.43 7 26.653 7 26.93V32.971C7 33.248 7.223 33.471 7.5 33.471H11.542C11.818 33.471 12.042 33.248 12.042 32.971V26.93C12.042 26.653 11.818 26.43 11.542 26.43H10.042V24.43H19.042V26.43H17.479C17.203 26.43 16.979 26.653 16.979 26.93V32.971C16.979 33.248 17.203 33.471 17.479 33.471H21.562C21.838 33.471 22.062 33.248 22.062 32.971V26.93C22.062 26.653 21.838 26.43 21.562 26.43H20.042V24.43H29.042V26.43H27.521C27.245 26.43 27.021 26.653 27.021 26.93V32.971C27.021 33.248 27.245 33.471 27.521 33.471H31.542C31.818 33.471 32.042 33.248 32.042 32.971V26.93C32.042 26.653 31.818 26.43 31.542 26.43Z" fill="#E7157B"/>
</g>
<rect x="0.5" y="0.5" width="39" height="39" stroke="#E7157B"/>
<defs>
<clipPath id="clip0_23298_4120">
<rect width="40" height="40" fill="white"/>
</clipPath>
</defs>
</svg>
