<svg id="gear" xmlns="http://www.w3.org/2000/svg" viewBox="0 0 92 92"><defs><style>.cls-1{fill:#3970e4;}.cls-2{fill:none;stroke:#fff;stroke-miterlimit:10;stroke-width:3.48px;}.cls-3{font-size:37.83px;fill:#fff;font-family:RobotaNonCommercialRegular, Robota-NonCommercial;}</style></defs><title>APIKube</title><circle class="cls-1" cx="46" cy="46" r="46"/><path class="cls-2" d="M45.44,86H45a57,57,0,0,1-5.83-.35,3.15,3.15,0,0,1-2.7-2.61l-.87-6.27a30.26,30.26,0,0,1-5.48-2.35l-4.88,3.74a3.12,3.12,0,0,1-3.74,0c-.09-.08-2.18-1.74-4.35-3.83L16.81,74A50.32,50.32,0,0,1,13,69.64a3,3,0,0,1,0-3.74l3.83-5.05a30.8,30.8,0,0,1-2.26-5.57l-6.1-.87a3,3,0,0,1-2.61-2.7A31.26,31.26,0,0,1,5.41,46v-.44a57.47,57.47,0,0,1,.35-5.83A3.14,3.14,0,0,1,8.37,37l6.26-.87A31.3,31.3,0,0,1,17,30.65l-3.74-4.87a3.15,3.15,0,0,1,0-3.75c.09-.08,1.74-2.17,3.83-4.35l.35-.35a51.39,51.39,0,0,1,4.35-3.83,3,3,0,0,1,3.74,0l5,3.83a31.85,31.85,0,0,1,5.57-2.26L37,9a3.06,3.06,0,0,1,2.7-2.61,30,30,0,0,1,5.74-.44h.44a57,57,0,0,1,5.83.35,3.14,3.14,0,0,1,2.7,2.61l.87,6.27a30.56,30.56,0,0,1,5.48,2.35l4.88-3.74a3.12,3.12,0,0,1,3.74,0c.09.08,2.18,1.74,4.35,3.83l.35.34a50.32,50.32,0,0,1,3.83,4.36,3,3,0,0,1,0,3.74l-3.74,5.05a31.54,31.54,0,0,1,2.26,5.57l6.09.87a3,3,0,0,1,2.61,2.7,54.67,54.67,0,0,1,.35,5.83v.43a57,57,0,0,1-.35,5.83A3.13,3.13,0,0,1,82.52,55l-6.26.87a31.4,31.4,0,0,1-2.35,5.49l3.74,5a3.14,3.14,0,0,1,0,3.74c-.09.09-1.74,2.17-3.83,4.35l-.35.35a53.23,53.23,0,0,1-4.35,3.83,3,3,0,0,1-3.74,0l-5-3.92A30.37,30.37,0,0,1,54.76,77l-.87,6.1a3.07,3.07,0,0,1-2.7,2.61A52.45,52.45,0,0,1,45.44,86Z" transform="translate(0 0.01)"/><text class="cls-3" transform="translate(17.08 57.08) scale(1.04 1)">API</text></svg>