<?xml version="1.0" encoding="utf-8"?>
<!-- Generator: Adobe Illustrator 23.0.1, SVG Export Plug-In . SVG Version: 6.00 Build 0)  -->
<svg version="1.1" id="gear" xmlns="http://www.w3.org/2000/svg" xmlns:xlink="http://www.w3.org/1999/xlink" x="0px" y="0px"
	 viewBox="0 0 92 92" style="enable-background:new 0 0 92 92;" xml:space="preserve">
<style type="text/css">
	.st0{fill:#3970E4;}
	.st1{fill:none;stroke:#FFFFFF;stroke-width:3.4815;stroke-miterlimit:10;}
	.st2{fill:#FFFFFF;}
</style>
<circle class="st0" cx="46" cy="46" r="46"/>
<path class="st1" d="M45.4,86H45c-3,0-5.7-0.3-5.8-0.3c-1.4-0.2-2.4-1.2-2.7-2.6l-0.9-6.3c-1.9-0.6-3.7-1.4-5.5-2.3l-4.9,3.7
	c-1.1,0.9-2.6,0.8-3.7,0c-0.1-0.1-2.2-1.7-4.4-3.8L16.8,74c-2.2-2.2-3.7-4.3-3.8-4.4c-0.9-1.1-0.9-2.6,0-3.7l3.8-5
	c-1-1.7-1.7-3.7-2.3-5.6l-6.1-0.9c-1.4-0.2-2.4-1.3-2.6-2.7C5.8,51.6,5.4,49,5.4,46v-0.4c0-3,0.3-5.7,0.3-5.8
	C5.9,38.3,7,37.3,8.4,37l6.3-0.9c0.6-1.9,1.4-3.7,2.4-5.5l-3.7-4.9c-0.9-1.1-0.8-2.6,0-3.7c0.1-0.1,1.7-2.2,3.8-4.4l0.3-0.3
	c2.2-2.2,4.3-3.7,4.4-3.8c1.1-0.9,2.6-0.9,3.7,0l5,3.8c1.7-1,3.7-1.7,5.6-2.3L37,9c0.2-1.4,1.3-2.4,2.7-2.6c0.1-0.1,2.7-0.4,5.7-0.4
	h0.4c3,0,5.7,0.3,5.8,0.3c1.4,0.2,2.4,1.2,2.7,2.6l0.9,6.3c1.9,0.6,3.7,1.4,5.5,2.3l4.9-3.7c1.1-0.9,2.6-0.8,3.7,0
	c0.1,0.1,2.2,1.7,4.4,3.8l0.3,0.3c2.2,2.2,3.7,4.3,3.8,4.4c0.9,1.1,0.9,2.6,0,3.7l-3.7,5c1,1.7,1.7,3.7,2.3,5.6l6.1,0.9
	c1.4,0.2,2.4,1.3,2.6,2.7c0,0.1,0.3,2.8,0.3,5.8v0.4c0,3-0.3,5.7-0.3,5.8c-0.2,1.4-1.2,2.4-2.6,2.7l-6.3,0.9
	c-0.6,1.9-1.4,3.7-2.3,5.5l3.7,5c0.9,1.1,0.8,2.6,0,3.7c-0.1,0.1-1.7,2.2-3.8,4.4l-0.3,0.3c-2.2,2.2-4.3,3.7-4.4,3.8
	c-1.1,0.9-2.6,0.9-3.7,0l-5-3.9c-1.7,1-3.7,1.7-5.6,2.3L53.9,83c-0.2,1.4-1.3,2.4-2.7,2.6C51.1,85.7,48.5,86,45.4,86z"/>
<g>
	<path class="st2" d="M43,57.1h-3.7l-2.3-5.3h-13l-2.3,5.3h-3.7l10.5-23.9h4l5.9,13.3h-3.5l-4.4-10.3l-5.5,12.9h14.6L43,57.1z"/>
	<path class="st2" d="M64,40.2c0,3.9-3,7.3-8.2,7.3h-7.3v9.6h-3.3V44.8h10.1c3.1,0,5.2-1.9,5.2-4.6c0-2.7-2.1-4.6-5.2-4.6h-6.9v6.6
		h-3.3V33h10.5C61.1,33,64,36.3,64,40.2z"/>
	<path class="st2" d="M67.2,57.1V33h3.3v24.1H67.2z"/>
</g>
</svg>
