<svg width="50" height="50" viewBox="0 0 50 50" fill="none" xmlns="http://www.w3.org/2000/svg">
<g clip-path="url(#clip0_1168_1863)">
<path d="M17.202 34.998C17.202 34.998 16.8711 35.9941 16.3719 36.4918C16.2262 36.6543 16.0469 36.7831 15.8464 36.8693C15.6459 36.9554 15.4291 36.9968 15.2109 36.9906C14.3919 37.2105 13.5594 37.3767 12.7188 37.4883C12.7188 37.4883 13.8816 37.6547 15.2109 37.8207C15.7082 37.8207 15.7082 37.8207 16.0406 37.9871C16.8711 37.9871 17.202 37.4883 17.202 37.4883V34.998ZM32.4793 34.998C32.4793 34.998 32.8117 35.9941 33.3094 36.4918C33.4554 36.6542 33.635 36.783 33.8358 36.8691C34.0365 36.9552 34.2535 36.9967 34.4719 36.9906C35.2902 37.2106 36.1221 37.3768 36.9621 37.4883C36.9621 37.4883 35.8008 37.6547 34.3059 37.8207C33.8082 37.8207 33.8082 37.8207 33.4754 37.9871C32.4793 37.9871 32.3129 37.4883 32.3129 37.4883L32.4793 34.998Z" fill="#E9654B"/>
<path d="M42.9414 18.558C42.9414 28.4623 34.9121 36.4916 25.0078 36.4916C15.1031 36.4916 7.07422 28.4623 7.07422 18.558C7.07422 8.65488 15.1031 0.625977 25.0078 0.625977C34.9121 0.625977 42.9414 8.65488 42.9414 18.558Z" fill="#B6CFEA"/>
<path d="M42.2766 18.5578C42.2766 28.0961 34.5449 35.8273 25.0066 35.8273C15.4699 35.8273 7.73828 28.0961 7.73828 18.5578C7.73828 9.02109 15.4699 1.28906 25.0066 1.28906C34.5449 1.28906 42.2762 9.0207 42.2762 18.5574L42.2766 18.5578Z" fill="#E6F5F8"/>
<path d="M39.1191 18.8908C39.1191 26.6861 32.8008 33.0049 25.0051 33.0049C17.2105 33.0049 10.8906 26.6861 10.8906 18.8904C10.8906 11.0963 17.2109 4.77637 25.0051 4.77637C32.8008 4.77637 39.1191 11.0971 39.1191 18.8908Z" fill="#D0E8F0"/>
<path d="M16.7043 25.5322C16.7043 25.5322 17.8668 44.2959 17.8668 44.6287C17.8668 44.7936 18.0332 45.126 17.2016 45.4588C16.3715 45.79 13.7148 46.4549 13.7148 46.4549H17.7004C19.527 46.4549 19.527 44.96 19.527 44.6287C19.527 44.2959 20.0246 37.1564 20.0246 37.1564C20.0246 37.1564 20.1906 45.6252 20.1906 45.9561C20.1906 46.2889 20.0246 46.7861 18.8633 47.1189C18.0332 47.2854 15.5414 47.783 15.5414 47.783H19.3609C21.6863 47.783 21.6863 46.2889 21.6863 46.2889L22.1836 38.8166C22.1836 38.8166 22.35 46.2889 22.35 47.1189C22.35 47.783 21.8523 48.2818 20.0246 48.6127C18.8633 48.9455 17.368 49.2779 17.368 49.2779H21.6863C23.8437 49.1119 24.1766 47.6162 24.1766 47.6162L27.8293 29.0189L16.7043 25.5322Z" fill="#EE794B"/>
<path d="M33.3098 25.5324C33.3098 25.5324 32.1484 44.2961 32.1484 44.6289C32.1484 44.7937 31.982 45.1262 32.8125 45.459C33.6422 45.7902 36.2988 46.4551 36.2988 46.4551H32.3133C30.4867 46.4551 30.4867 44.9602 30.4867 44.6289C30.4867 44.2961 29.9895 37.1566 29.9895 37.1566C29.9895 37.1566 29.823 45.6254 29.823 45.9562C29.823 46.2891 29.9895 46.7863 31.152 47.1191L34.4723 47.7832H30.6535C28.3293 47.7832 28.3293 46.2891 28.3293 46.2891L27.8305 38.8168C27.8305 38.8168 27.6641 46.2891 27.6641 47.1191C27.6641 47.7832 28.1633 48.282 29.9898 48.6129C31.1523 48.9457 32.6461 49.2781 32.6461 49.2781H28.3293C26.1699 49.1121 25.8371 47.6164 25.8371 47.6164L22.1848 29.0195L33.3098 25.5324ZM33.4758 16.4C33.4758 21.0496 29.6566 24.7023 25.1734 24.7023C20.6906 24.7023 16.8711 20.8832 16.8711 16.4C16.8711 11.9172 20.6906 8.09766 25.1734 8.09766C29.6566 8.09766 33.4758 11.7508 33.4758 16.4Z" fill="#EE794B"/>
<mask id="mask0_1168_1863" style="mask-type:luminance" maskUnits="userSpaceOnUse" x="16" y="16" width="18" height="20">
<path d="M16.4062 16.0156H33.5938V35.9375H16.4062V16.0156Z" fill="white"/>
</mask>
<g mask="url(#mask0_1168_1863)">
<mask id="mask1_1168_1863" style="mask-type:luminance" maskUnits="userSpaceOnUse" x="16" y="16" width="18" height="23">
<path d="M33.4738 16.0674L32.4777 38.8166H17.5332L16.7031 16.0674" fill="white"/>
</mask>
<g mask="url(#mask1_1168_1863)">
<path d="M39.9508 20.8822C39.9508 29.0443 33.3348 35.6607 25.1727 35.6607C17.0109 35.6607 10.3945 29.0443 10.3945 20.8826C10.3945 12.7205 17.0109 6.10449 25.1727 6.10449C33.3348 6.10449 39.9508 12.7201 39.9508 20.8822Z" fill="#EE794B"/>
</g>
</g>
<mask id="mask2_1168_1863" style="mask-type:luminance" maskUnits="userSpaceOnUse" x="0" y="0" width="50" height="50">
<path d="M0 0H50V50H0V0Z" fill="black" fill-opacity="0.22"/>
</mask>
<g mask="url(#mask2_1168_1863)">
<mask id="mask3_1168_1863" style="mask-type:luminance" maskUnits="userSpaceOnUse" x="0" y="0" width="50" height="50">
<path d="M0 0H50V50H0V0Z" fill="white"/>
</mask>
<g mask="url(#mask3_1168_1863)">
<path d="M32.9789 25.5324C32.9789 25.5324 33.975 16.7312 32.6461 13.4109C30.1559 7.59879 24.3438 8.09762 24.3438 8.09762C24.3438 8.09762 27.6641 9.42536 27.8305 14.4074C27.9969 17.8941 27.8305 23.0422 27.8305 23.0422L32.9789 25.5324Z" fill="#E34E3B"/>
</g>
</g>
<mask id="mask4_1168_1863" style="mask-type:luminance" maskUnits="userSpaceOnUse" x="0" y="0" width="50" height="50">
<path d="M0 0H50V50H0V0Z" fill="black" fill-opacity="0.502"/>
</mask>
<g mask="url(#mask4_1168_1863)">
<mask id="mask5_1168_1863" style="mask-type:luminance" maskUnits="userSpaceOnUse" x="0" y="0" width="50" height="50">
<path d="M0 0H50V50H0V0Z" fill="white"/>
</mask>
<g mask="url(#mask5_1168_1863)">
<path d="M22.8469 11.9172C22.8468 12.0697 22.8167 12.2208 22.7582 12.3617C22.6998 12.5026 22.6141 12.6307 22.5062 12.7385C22.3983 12.8463 22.2702 12.9318 22.1292 12.9901C21.9882 13.0484 21.8371 13.0784 21.6846 13.0783C21.532 13.0782 21.381 13.0481 21.24 12.9897C21.0991 12.9312 20.9711 12.8456 20.8633 12.7376C20.7555 12.6297 20.67 12.5016 20.6116 12.3606C20.5533 12.2197 20.5234 12.0686 20.5234 11.916C20.5236 11.6079 20.6461 11.3125 20.8641 11.0947C21.0821 10.877 21.3776 10.7547 21.6857 10.7549C21.9938 10.755 22.2893 10.8776 22.507 11.0956C22.7248 11.3135 22.847 11.6091 22.8469 11.9172Z" fill="#FBDFC3"/>
</g>
</g>
<path d="M27.9941 28.8523C27.9941 31.6754 26.6652 33.5035 25.0051 33.5035C23.3449 33.5035 22.0156 31.3441 22.0156 28.5215C22.0156 28.5215 23.3449 31.1777 25.1711 31.1777C26.9977 31.1777 27.9941 28.8523 27.9941 28.8523Z" fill="#010101"/>
<path d="M27.9957 28.8523C27.9957 30.6805 26.6668 31.6754 25.0066 31.6754C23.3465 31.6754 22.1836 30.3477 22.1836 28.6875C22.1836 28.6875 23.5125 30.3477 25.3391 30.3477C27.1656 30.3477 27.9957 28.8523 27.9957 28.8523Z" fill="white"/>
<path d="M35.9645 21.0498C35.9645 23.8924 33.6605 26.1963 30.818 26.1963C27.975 26.1963 25.6695 23.8924 25.6695 21.0498C25.6695 18.2068 27.975 15.9014 30.818 15.9014C33.6605 15.9014 35.9645 18.2068 35.9645 21.0498ZM24.3418 21.0498C24.3418 23.8924 22.0363 26.1963 19.1934 26.1963C16.3508 26.1963 14.0469 23.8924 14.0469 21.0498C14.0469 18.2068 16.3508 15.9014 19.1938 15.9014C22.0363 15.9014 24.3418 18.2068 24.3418 21.0498Z" fill="#E9654B"/>
<path d="M34.8055 21.05C34.8055 23.2504 33.0203 25.0355 30.8199 25.0355C28.6195 25.0355 26.834 23.2504 26.834 21.05C26.834 18.848 28.6191 17.0645 30.8199 17.0645C33.0199 17.0645 34.8055 18.848 34.8055 21.05ZM22.8484 21.05C22.8484 23.2504 21.0648 25.0355 18.8645 25.0355C16.6625 25.0355 14.8789 23.2504 14.8789 21.05C14.8788 20.5266 14.9818 20.0083 15.1821 19.5247C15.3823 19.0411 15.6759 18.6017 16.046 18.2316C16.4161 17.8615 16.8555 17.5679 17.3391 17.3676C17.8227 17.1674 18.341 17.0644 18.8645 17.0645C21.0648 17.0645 22.8484 18.848 22.8484 21.05Z" fill="white"/>
<path d="M20.0234 20.5504C20.0235 20.703 19.9935 20.8541 19.9352 20.9952C19.8769 21.1362 19.7913 21.2643 19.6835 21.3723C19.5756 21.4803 19.4476 21.5659 19.3066 21.6244C19.1656 21.6829 19.0145 21.713 18.8619 21.7131C18.7093 21.7132 18.5582 21.6832 18.4171 21.6248C18.2761 21.5665 18.148 21.481 18.04 21.3731C17.932 21.2653 17.8464 21.1372 17.7879 20.9962C17.7294 20.8553 17.6993 20.7042 17.6992 20.5516C17.699 20.2434 17.8212 19.9477 18.039 19.7296C18.2568 19.5115 18.5523 19.3889 18.8605 19.3887C19.1688 19.3885 19.4644 19.5107 19.6825 19.7285C19.9006 19.9463 20.0232 20.2422 20.0234 20.5504ZM31.9801 20.5504C31.9829 20.7048 31.955 20.8583 31.8979 21.0018C31.8408 21.1453 31.7556 21.276 31.6474 21.3862C31.5392 21.4964 31.4102 21.584 31.2677 21.6438C31.1253 21.7036 30.9724 21.7344 30.818 21.7344C30.6635 21.7344 30.5106 21.7037 30.3682 21.6439C30.2257 21.5842 30.0966 21.4967 29.9884 21.3865C29.8802 21.2763 29.795 21.1456 29.7378 21.0021C29.6807 20.8586 29.6527 20.7052 29.6555 20.5508C29.6609 20.2462 29.7858 19.956 30.0031 19.7425C30.2204 19.529 30.5128 19.4093 30.8174 19.4092C31.122 19.4091 31.4145 19.5286 31.6319 19.7419C31.8494 19.9553 31.9744 20.2458 31.9801 20.5504Z" fill="#010101"/>
<path d="M6.74176 23.0418C6.63097 23.0486 6.51999 23.0318 6.41617 22.9926C6.31236 22.9533 6.21808 22.8924 6.13959 22.8139C6.06109 22.7354 6.00018 22.6411 5.96089 22.5373C5.9216 22.4335 5.90483 22.3225 5.91169 22.2117V15.5699C5.90475 15.4591 5.92144 15.348 5.96063 15.2441C5.99982 15.1402 6.06063 15.0458 6.13903 14.9672C6.21768 14.8888 6.31208 14.8279 6.41598 14.7888C6.51989 14.7496 6.63093 14.7329 6.74176 14.7398C6.85256 14.733 6.96354 14.7497 7.06735 14.789C7.17117 14.8283 7.26545 14.8892 7.34394 14.9677C7.42243 15.0462 7.48334 15.1405 7.52263 15.2443C7.56192 15.3481 7.5787 15.4591 7.57184 15.5699V22.2121C7.58551 22.4347 7.50153 22.6547 7.34294 22.8136C7.26452 22.8921 7.17036 22.953 7.06667 22.9924C6.96297 23.0318 6.8521 23.0488 6.74137 23.0422L6.74176 23.0418ZM42.9402 23.0418C42.8294 23.0485 42.7185 23.0315 42.6148 22.992C42.5111 22.9526 42.4169 22.8915 42.3386 22.8129C42.2602 22.7345 42.1993 22.6404 42.1599 22.5368C42.1205 22.4331 42.1036 22.3223 42.1101 22.2117V15.5699C42.1035 15.4589 42.1204 15.3479 42.1599 15.244C42.1994 15.1401 42.2604 15.0457 42.339 14.9672C42.4174 14.8888 42.5115 14.828 42.6152 14.7888C42.7188 14.7496 42.8296 14.7329 42.9402 14.7398C43.0508 14.7329 43.1616 14.7496 43.2653 14.7888C43.3689 14.828 43.463 14.8888 43.5414 14.9672C43.7015 15.1261 43.7836 15.3461 43.7703 15.5699V22.2121C43.7772 22.3229 43.7603 22.4339 43.7209 22.5376C43.6814 22.6414 43.6202 22.7355 43.5414 22.8136C43.463 22.8922 43.3689 22.9532 43.2652 22.9926C43.1615 23.032 43.0506 23.0489 42.9398 23.0422L42.9402 23.0418Z" fill="#B6CFEA"/>
<path d="M20.1899 5.27539C20.1899 5.49554 20.1025 5.70667 19.9468 5.86234C19.7911 6.01801 19.58 6.10547 19.3599 6.10547C19.1397 6.10547 18.9286 6.01801 18.7729 5.86234C18.6172 5.70667 18.5298 5.49554 18.5298 5.27539C18.5298 5.05524 18.6172 4.84411 18.7729 4.68844C18.9286 4.53277 19.1397 4.44531 19.3599 4.44531C19.58 4.44531 19.7911 4.53277 19.9468 4.68844C20.1025 4.84411 20.1899 5.05524 20.1899 5.27539ZM13.3829 27.6918C13.2926 27.7032 13.2008 27.6942 13.1144 27.6655C13.028 27.6367 12.9492 27.589 12.8837 27.5258C10.8911 25.0355 9.89462 21.8801 9.89462 18.7246C9.88572 16.1012 10.5735 13.5225 11.8876 11.252C13.2197 9.09078 15.0392 7.27141 17.2005 5.93945C17.3392 5.87724 17.4939 5.85979 17.643 5.88954C17.7921 5.9193 17.9283 5.99477 18.0325 6.10547C18.0941 6.24406 18.1112 6.39837 18.0813 6.54707C18.0514 6.69577 17.9761 6.83151 17.8657 6.93555C15.8058 8.09935 14.0908 9.78778 12.8949 11.8292C11.699 13.8706 11.065 16.1923 11.0571 18.5582C11.0525 21.5116 12.0475 24.3797 13.8802 26.6957C14.0466 26.8621 14.0466 27.3598 13.7138 27.5258C13.5477 27.6922 13.5477 27.6918 13.3829 27.6918Z" fill="white"/>
<mask id="mask6_1168_1863" style="mask-type:luminance" maskUnits="userSpaceOnUse" x="0" y="0" width="50" height="50">
<path d="M0 0H50V50H0V0Z" fill="black" fill-opacity="0.251"/>
</mask>
<g mask="url(#mask6_1168_1863)">
<mask id="mask7_1168_1863" style="mask-type:luminance" maskUnits="userSpaceOnUse" x="0" y="-1" width="50" height="50">
<path d="M0 -1H50V49H0V-1Z" fill="white"/>
</mask>
<g mask="url(#mask7_1168_1863)">
<path d="M32.4773 34.4949V33.168C30.1531 34.4953 27.6613 35.8242 24.6738 35.8242C21.352 35.8242 19.193 34.3305 17.0352 33.168L17.2 34.4953C17.2 34.4953 19.6922 37.1535 24.8387 37.1535C29.6543 36.9871 32.4773 34.4949 32.4773 34.4949Z" fill="#E9654B"/>
</g>
</g>
<ellipse cx="13.9763" cy="6.88051" rx="4.32004" ry="4.31996" fill="#4FBF9F"/>
<mask id="path-27-inside-1_1168_1863" fill="white">
<path d="M17.6216 6.25879L16.7382 6.1144C16.6844 6.10561 16.6407 6.0666 16.6238 6.01478C16.5792 5.87835 16.5243 5.74588 16.4594 5.61826C16.435 5.57018 16.4379 5.5124 16.4688 5.46824L16.9853 4.7322C17.0312 4.66695 17.0233 4.57803 16.9669 4.52149L16.3277 3.88262C16.2706 3.82576 16.1809 3.81836 16.1155 3.86553L15.3922 4.38541C15.3478 4.41733 15.2891 4.42052 15.2404 4.39563C15.1113 4.32962 14.9774 4.27398 14.8396 4.2291C14.7883 4.21238 14.7495 4.16944 14.7402 4.11628L14.5859 3.2357C14.5721 3.15714 14.5039 3.09961 14.424 3.09961H13.52C13.4395 3.09961 13.3708 3.15796 13.3578 3.23751L13.2151 4.11123C13.2063 4.16524 13.167 4.20902 13.1149 4.2258C12.9769 4.27031 12.843 4.3253 12.7144 4.39037C12.6659 4.41489 12.6077 4.41169 12.5635 4.38012L11.8419 3.86471C11.7763 3.81787 11.687 3.82543 11.63 3.88213L10.9911 4.521C10.9347 4.57738 10.9269 4.66613 10.9727 4.73138L11.4808 5.45836C11.5118 5.50262 11.5146 5.56048 11.49 5.60855C11.4232 5.739 11.3668 5.8746 11.3213 6.01433C11.3044 6.06604 11.2609 6.10504 11.2073 6.11397L10.3366 6.25895C10.2574 6.2721 10.1992 6.3408 10.1992 6.42101V7.32499C10.1992 7.40471 10.2564 7.47292 10.3348 7.48689L11.2065 7.64147C11.2596 7.65088 11.3024 7.68972 11.3191 7.74098C11.3644 7.88044 11.4208 8.01602 11.4876 8.1467C11.5125 8.19527 11.5094 8.25379 11.4776 8.29816L10.964 9.0166C10.9173 9.08185 10.9247 9.17142 10.9814 9.22846L11.6205 9.86798C11.6768 9.92436 11.7658 9.93225 11.831 9.88639L12.5593 9.37631C12.6035 9.34536 12.6613 9.3425 12.7093 9.36698C12.8392 9.43308 12.974 9.48879 13.1125 9.53368C13.1643 9.55048 13.2034 9.59401 13.2124 9.64776L13.3581 10.5231C13.3711 10.6022 13.4396 10.6602 13.52 10.6602H14.424C14.5037 10.6602 14.5719 10.603 14.5858 10.5246L14.7422 9.64281C14.7516 9.58994 14.7902 9.54723 14.8412 9.53047C14.9799 9.48492 15.1142 9.42883 15.2431 9.3625C15.2913 9.33769 15.3495 9.34044 15.3939 9.37159L16.1275 9.88623C16.1929 9.93241 16.2817 9.92436 16.3382 9.86798L16.9772 9.22846C17.0341 9.17142 17.0415 9.08152 16.9943 9.0161L16.4716 8.29031C16.4397 8.24601 16.4364 8.18747 16.4611 8.13879C16.5259 8.01109 16.5806 7.87849 16.6248 7.74206C16.6414 7.69067 16.6844 7.65174 16.7376 7.6424L17.6234 7.48689C17.7021 7.47308 17.7593 7.40471 17.7593 7.32499V6.42101C17.7595 6.34047 17.7011 6.27177 17.6216 6.25879ZM13.9793 8.03043C13.3438 8.03043 12.8287 7.51532 12.8287 6.87991C12.8287 6.24449 13.3438 5.72938 13.9793 5.72938C14.6147 5.72938 15.1298 6.24449 15.1298 6.87991C15.1298 7.51532 14.6147 8.03043 13.9793 8.03043Z"/>
</mask>
<path d="M17.6216 6.25879L16.7382 6.1144C16.6844 6.10561 16.6407 6.0666 16.6238 6.01478C16.5792 5.87835 16.5243 5.74588 16.4594 5.61826C16.435 5.57018 16.4379 5.5124 16.4688 5.46824L16.9853 4.7322C17.0312 4.66695 17.0233 4.57803 16.9669 4.52149L16.3277 3.88262C16.2706 3.82576 16.1809 3.81836 16.1155 3.86553L15.3922 4.38541C15.3478 4.41733 15.2891 4.42052 15.2404 4.39563C15.1113 4.32962 14.9774 4.27398 14.8396 4.2291C14.7883 4.21238 14.7495 4.16944 14.7402 4.11628L14.5859 3.2357C14.5721 3.15714 14.5039 3.09961 14.424 3.09961H13.52C13.4395 3.09961 13.3708 3.15796 13.3578 3.23751L13.2151 4.11123C13.2063 4.16524 13.167 4.20902 13.1149 4.2258C12.9769 4.27031 12.843 4.3253 12.7144 4.39037C12.6659 4.41489 12.6077 4.41169 12.5635 4.38012L11.8419 3.86471C11.7763 3.81787 11.687 3.82543 11.63 3.88213L10.9911 4.521C10.9347 4.57738 10.9269 4.66613 10.9727 4.73138L11.4808 5.45836C11.5118 5.50262 11.5146 5.56048 11.49 5.60855C11.4232 5.739 11.3668 5.8746 11.3213 6.01433C11.3044 6.06604 11.2609 6.10504 11.2073 6.11397L10.3366 6.25895C10.2574 6.2721 10.1992 6.3408 10.1992 6.42101V7.32499C10.1992 7.40471 10.2564 7.47292 10.3348 7.48689L11.2065 7.64147C11.2596 7.65088 11.3024 7.68972 11.3191 7.74098C11.3644 7.88044 11.4208 8.01602 11.4876 8.1467C11.5125 8.19527 11.5094 8.25379 11.4776 8.29816L10.964 9.0166C10.9173 9.08185 10.9247 9.17142 10.9814 9.22846L11.6205 9.86798C11.6768 9.92436 11.7658 9.93225 11.831 9.88639L12.5593 9.37631C12.6035 9.34536 12.6613 9.3425 12.7093 9.36698C12.8392 9.43308 12.974 9.48879 13.1125 9.53368C13.1643 9.55048 13.2034 9.59401 13.2124 9.64776L13.3581 10.5231C13.3711 10.6022 13.4396 10.6602 13.52 10.6602H14.424C14.5037 10.6602 14.5719 10.603 14.5858 10.5246L14.7422 9.64281C14.7516 9.58994 14.7902 9.54723 14.8412 9.53047C14.9799 9.48492 15.1142 9.42883 15.2431 9.3625C15.2913 9.33769 15.3495 9.34044 15.3939 9.37159L16.1275 9.88623C16.1929 9.93241 16.2817 9.92436 16.3382 9.86798L16.9772 9.22846C17.0341 9.17142 17.0415 9.08152 16.9943 9.0161L16.4716 8.29031C16.4397 8.24601 16.4364 8.18747 16.4611 8.13879C16.5259 8.01109 16.5806 7.87849 16.6248 7.74206C16.6414 7.69067 16.6844 7.65174 16.7376 7.6424L17.6234 7.48689C17.7021 7.47308 17.7593 7.40471 17.7593 7.32499V6.42101C17.7595 6.34047 17.7011 6.27177 17.6216 6.25879ZM13.9793 8.03043C13.3438 8.03043 12.8287 7.51532 12.8287 6.87991C12.8287 6.24449 13.3438 5.72938 13.9793 5.72938C14.6147 5.72938 15.1298 6.24449 15.1298 6.87991C15.1298 7.51532 14.6147 8.03043 13.9793 8.03043Z" fill="white"/>
<path d="M17.6216 6.25879L17.5759 6.53813L17.576 6.53814L17.6216 6.25879ZM16.9853 4.7322L16.7537 4.56946L16.7536 4.56963L16.9853 4.7322ZM16.9669 4.52149L17.1673 4.32164L17.167 4.3213L16.9669 4.52149ZM16.3277 3.88262L16.5278 3.68243L16.5275 3.68219L16.3277 3.88262ZM16.1155 3.86553L16.2807 4.09537L16.281 4.09511L16.1155 3.86553ZM14.5859 3.2357L14.8647 3.18686L14.8647 3.18671L14.5859 3.2357ZM13.3578 3.23751L13.6371 3.28313L13.6371 3.28311L13.3578 3.23751ZM11.8419 3.86471L11.6774 4.09503L11.6774 4.09503L11.8419 3.86471ZM11.63 3.88213L11.4304 3.68141L11.4299 3.68198L11.63 3.88213ZM10.9911 4.521L10.791 4.32085L10.791 4.32085L10.9911 4.521ZM10.9727 4.73138L11.2047 4.56923L11.2043 4.56863L10.9727 4.73138ZM10.3366 6.25895L10.383 6.53818L10.3831 6.53815L10.3366 6.25895ZM10.3348 7.48689L10.2852 7.76555L10.2854 7.76559L10.3348 7.48689ZM10.964 9.0166L11.1942 9.18128L11.1943 9.18121L10.964 9.0166ZM10.9814 9.22846L10.7807 9.42802L10.7812 9.42853L10.9814 9.22846ZM11.6205 9.86798L11.4203 10.0681L11.4203 10.0681L11.6205 9.86798ZM11.831 9.88639L11.6686 9.65455L11.6683 9.65481L11.831 9.88639ZM13.3581 10.5231L13.6374 10.4773L13.6373 10.4766L13.3581 10.5231ZM14.5858 10.5246L14.3071 10.4752L14.307 10.4755L14.5858 10.5246ZM16.1275 9.88623L16.2907 9.655L16.29 9.65451L16.1275 9.88623ZM16.3382 9.86798L16.5381 10.0684L16.5384 10.0681L16.3382 9.86798ZM16.9772 9.22846L17.1775 9.42853L17.1777 9.42831L16.9772 9.22846ZM16.9943 9.0161L16.7647 9.18152L16.7648 9.18166L16.9943 9.0161ZM17.6234 7.48689L17.5745 7.2081L17.5744 7.20811L17.6234 7.48689ZM17.7593 6.42101L17.4762 6.42043V6.42101H17.7593ZM16.6248 7.74206L16.894 7.82931L16.6248 7.74206ZM16.7376 7.6424L16.7866 7.92118L16.7376 7.6424ZM15.2431 9.3625L15.1136 9.11081L15.2431 9.3625ZM15.3939 9.37159L15.5564 9.13987L15.3939 9.37159ZM13.1125 9.53368L13.0252 9.80294L13.1125 9.53368ZM13.2124 9.64776L13.4916 9.60126L13.2124 9.64776ZM11.4876 8.1467L11.7396 8.01776L11.4876 8.1467ZM11.4776 8.29816L11.7079 8.46278L11.4776 8.29816ZM14.8396 4.2291L14.7519 4.49822L14.8396 4.2291ZM14.7402 4.11628L14.4614 4.16511L14.7402 4.11628ZM12.5593 9.37631L12.7217 9.60814L12.5593 9.37631ZM12.7093 9.36698L12.5809 9.61921L12.7093 9.36698ZM16.4716 8.29031L16.7013 8.12489L16.4716 8.29031ZM16.4611 8.13879L16.7135 8.26685L16.4611 8.13879ZM11.3213 6.01433L11.0521 5.92662L11.3213 6.01433ZM11.2073 6.11397L11.1608 5.83477L11.2073 6.11397ZM16.4594 5.61826L16.7117 5.49001L16.4594 5.61826ZM16.4688 5.46824L16.7005 5.63082L16.4688 5.46824ZM11.2065 7.64147L11.1571 7.92017L11.2065 7.64147ZM11.3191 7.74098L11.0499 7.82847L11.3191 7.74098ZM14.7422 9.64281L14.4635 9.59336L14.7422 9.64281ZM14.8412 9.53047L14.7529 9.26156L14.8412 9.53047ZM12.7144 4.39037L12.5866 4.1378L12.7144 4.39037ZM12.5635 4.38012L12.3989 4.61044L12.3989 4.61044L12.5635 4.38012ZM13.2151 4.11123L12.9358 4.06561L13.2151 4.11123ZM13.1149 4.2258L13.0281 3.95641L13.1149 4.2258ZM11.4808 5.45836L11.2489 5.62052L11.4808 5.45836ZM11.49 5.60855L11.238 5.47958L11.49 5.60855ZM15.3922 4.38541L15.5574 4.61525L15.3922 4.38541ZM15.2404 4.39563L15.1116 4.64765L15.2404 4.39563ZM16.7382 6.1144L16.6925 6.39374L16.7382 6.1144ZM16.6238 6.01478L16.3548 6.10271L16.6238 6.01478ZM17.6672 5.97945L16.7839 5.83507L16.6925 6.39374L17.5759 6.53813L17.6672 5.97945ZM16.8929 5.92686C16.8437 5.77655 16.7832 5.6306 16.7117 5.49001L16.2071 5.74651C16.2653 5.86116 16.3147 5.98014 16.3548 6.10271L16.8929 5.92686ZM16.7005 5.63082L17.217 4.89478L16.7536 4.56963L16.2371 5.30567L16.7005 5.63082ZM17.2169 4.89495C17.3423 4.71654 17.3201 4.47482 17.1673 4.32164L16.7665 4.72135C16.7265 4.68125 16.7201 4.61736 16.7537 4.56946L17.2169 4.89495ZM17.167 4.3213L16.5278 3.68243L16.1276 4.08282L16.7668 4.72169L17.167 4.3213ZM16.5275 3.68219C16.3728 3.52786 16.1284 3.50727 15.9499 3.63595L16.281 4.09511C16.2334 4.12944 16.1685 4.12365 16.1278 4.08306L16.5275 3.68219ZM15.9503 3.63569L15.227 4.15558L15.5574 4.61525L16.2807 4.09537L15.9503 3.63569ZM15.3693 4.14361C15.2269 4.07083 15.0792 4.00947 14.9273 3.95998L14.7519 4.49822C14.8755 4.53849 14.9957 4.58842 15.1116 4.64765L15.3693 4.14361ZM15.019 4.06744L14.8647 3.18686L14.3071 3.28454L14.4614 4.16511L15.019 4.06744ZM14.8647 3.18671C14.8272 2.97332 14.6418 2.81656 14.424 2.81656V3.38266C14.366 3.38266 14.317 3.34095 14.3071 3.28469L14.8647 3.18671ZM14.424 2.81656H13.52V3.38266H14.424V2.81656ZM13.52 2.81656C13.3008 2.81656 13.1138 2.97539 13.0784 3.19191L13.6371 3.28311C13.6278 3.34052 13.5781 3.38266 13.52 3.38266V2.81656ZM13.0784 3.19189L12.9358 4.06561L13.4945 4.15685L13.6371 3.28313L13.0784 3.19189ZM13.0281 3.95641C12.8761 4.00541 12.7285 4.06601 12.5866 4.1378L12.8421 4.64293C12.9574 4.5846 13.0776 4.53522 13.2018 4.4952L13.0281 3.95641ZM12.728 4.14979L12.0064 3.63438L11.6774 4.09503L12.3989 4.61044L12.728 4.14979ZM12.0064 3.63438C11.8278 3.50683 11.5848 3.52794 11.4304 3.68141L11.8296 4.08285C11.7893 4.12291 11.7248 4.12891 11.6774 4.09503L12.0064 3.63438ZM11.4299 3.68198L10.791 4.32085L11.1913 4.72115L11.8301 4.08228L11.4299 3.68198ZM10.791 4.32085C10.6378 4.47404 10.6158 4.71583 10.7411 4.89413L11.2043 4.56863C11.2379 4.61643 11.2317 4.68071 11.1913 4.72115L10.791 4.32085ZM10.7407 4.89354L11.2489 5.62052L11.7128 5.29621L11.2047 4.56923L10.7407 4.89354ZM11.238 5.47958C11.1644 5.62332 11.1023 5.77272 11.0521 5.92662L11.5904 6.10204C11.6313 5.97648 11.6819 5.85467 11.7419 5.73751L11.238 5.47958ZM11.1608 5.83477L10.2901 5.97975L10.3831 6.53815L11.2538 6.39317L11.1608 5.83477ZM10.2903 5.97972C10.0745 6.01555 9.91617 6.2024 9.91617 6.42101H10.4823C10.4823 6.47921 10.4403 6.52865 10.383 6.53818L10.2903 5.97972ZM9.91617 6.42101V7.32499H10.4823V6.42101H9.91617ZM9.91617 7.32499C9.91617 7.54197 10.0718 7.72753 10.2852 7.76555L10.3845 7.20823C10.441 7.21831 10.4823 7.26745 10.4823 7.32499H9.91617ZM10.2854 7.76559L11.1571 7.92017L11.256 7.36277L10.3842 7.20819L10.2854 7.76559ZM11.0499 7.82847C11.0999 7.98222 11.162 8.13166 11.2357 8.27565L11.7396 8.01776C11.6795 7.90037 11.629 7.77865 11.5883 7.6535L11.0499 7.82847ZM11.2474 8.13354L10.7338 8.85198L11.1943 9.18121L11.7079 8.46278L11.2474 8.13354ZM10.7338 8.85191C10.6064 9.03006 10.6271 9.27352 10.7807 9.42802L11.1821 9.02889C11.2224 9.06933 11.2283 9.13363 11.1942 9.18128L10.7338 8.85191ZM10.7812 9.42853L11.4203 10.0681L11.8207 9.66792L11.1816 9.02839L10.7812 9.42853ZM11.4203 10.0681C11.5736 10.2213 11.8155 10.2432 11.9938 10.118L11.6683 9.65481C11.716 9.62125 11.7801 9.62737 11.8206 9.66784L11.4203 10.0681ZM11.9934 10.1182L12.7217 9.60814L12.3969 9.14447L11.6686 9.65455L11.9934 10.1182ZM12.5809 9.61921C12.724 9.69208 12.8726 9.75347 13.0252 9.80294L13.1997 9.26442C13.0753 9.2241 12.9543 9.17408 12.8378 9.11474L12.5809 9.61921ZM12.9331 9.69425L13.0789 10.5696L13.6373 10.4766L13.4916 9.60126L12.9331 9.69425ZM13.0788 10.569C13.1144 10.7856 13.3018 10.9432 13.52 10.9432V10.3772C13.5775 10.3772 13.6278 10.4188 13.6374 10.4773L13.0788 10.569ZM13.52 10.9432H14.424V10.3772H13.52V10.9432ZM14.424 10.9432C14.6409 10.9432 14.8268 10.7876 14.8645 10.5737L14.307 10.4755C14.3171 10.4184 14.3666 10.3772 14.424 10.3772V10.9432ZM14.8644 10.5741L15.0209 9.69226L14.4635 9.59336L14.3071 10.4752L14.8644 10.5741ZM14.9295 9.79938C15.0822 9.74923 15.2303 9.68742 15.3726 9.6142L15.1136 9.11081C14.9981 9.17024 14.8776 9.2206 14.7529 9.26156L14.9295 9.79938ZM15.2313 9.6033L15.9649 10.1179L16.29 9.65451L15.5564 9.13987L15.2313 9.6033ZM15.9642 10.1175C16.1433 10.2439 16.3851 10.2209 16.5381 10.0684L16.1383 9.66755C16.1782 9.6278 16.2425 9.62096 16.2907 9.655L15.9642 10.1175ZM16.5384 10.0681L17.1775 9.42853L16.777 9.02839L16.138 9.66792L16.5384 10.0681ZM17.1777 9.42831C17.332 9.27351 17.3526 9.02896 17.2239 8.85055L16.7648 9.18166C16.7304 9.13408 16.7362 9.06934 16.7768 9.0286L17.1777 9.42831ZM17.224 8.85069L16.7013 8.12489L16.2419 8.45572L16.7647 9.18152L17.224 8.85069ZM16.7135 8.26685C16.785 8.12594 16.8453 7.97969 16.894 7.82931L16.3555 7.65482C16.3158 7.77729 16.2668 7.89624 16.2087 8.01073L16.7135 8.26685ZM16.7866 7.92118L17.6723 7.76567L17.5744 7.20811L16.6887 7.36361L16.7866 7.92118ZM17.6722 7.76568C17.8867 7.72807 18.0423 7.54182 18.0423 7.32499H17.4762C17.4762 7.2676 17.5175 7.21809 17.5745 7.2081L17.6722 7.76568ZM18.0423 7.32499V6.42101H17.4762V7.32499H18.0423ZM18.0423 6.42159C18.0428 6.20186 17.8836 6.01476 17.6671 5.97944L17.576 6.53814C17.5186 6.52878 17.4761 6.47909 17.4762 6.42043L18.0423 6.42159ZM13.9793 7.74738C13.5001 7.74738 13.1118 7.359 13.1118 6.87991H12.5457C12.5457 7.67165 13.1875 8.31348 13.9793 8.31348V7.74738ZM13.1118 6.87991C13.1118 6.40081 13.5001 6.01243 13.9793 6.01243V5.44633C13.1875 5.44633 12.5457 6.08816 12.5457 6.87991H13.1118ZM13.9793 6.01243C14.4584 6.01243 14.8468 6.40081 14.8468 6.87991H15.4128C15.4128 6.08816 14.771 5.44633 13.9793 5.44633V6.01243ZM14.8468 6.87991C14.8468 7.359 14.4584 7.74738 13.9793 7.74738V8.31348C14.771 8.31348 15.4128 7.67165 15.4128 6.87991H14.8468ZM16.894 7.82931C16.88 7.87277 16.8415 7.91153 16.7866 7.92118L16.6887 7.36361C16.5273 7.39195 16.4029 7.50856 16.3555 7.65482L16.894 7.82931ZM15.3726 9.6142C15.332 9.6351 15.2772 9.63548 15.2313 9.6033L15.5564 9.13987C15.4218 9.0454 15.2507 9.04029 15.1136 9.11081L15.3726 9.6142ZM13.0252 9.80294C12.9814 9.78873 12.9424 9.74976 12.9331 9.69425L13.4916 9.60126C13.4644 9.43827 13.3472 9.31223 13.1997 9.26442L13.0252 9.80294ZM11.2357 8.27565C11.2146 8.23457 11.2146 8.17937 11.2474 8.13354L11.7079 8.46278C11.8041 8.3282 11.8103 8.15596 11.7396 8.01776L11.2357 8.27565ZM14.9273 3.95998C14.9707 3.97411 15.0093 4.01254 15.019 4.06744L14.4614 4.16511C14.4896 4.32635 14.606 4.45065 14.7519 4.49822L14.9273 3.95998ZM12.7217 9.60814C12.6761 9.6401 12.6216 9.6399 12.5809 9.61921L12.8378 9.11474C12.701 9.0451 12.5309 9.05062 12.3969 9.14447L12.7217 9.60814ZM16.7013 8.12489C16.7343 8.17065 16.7343 8.22582 16.7135 8.26685L16.2087 8.01073C16.1385 8.14912 16.1452 8.32138 16.2419 8.45572L16.7013 8.12489ZM11.0521 5.92662C11.0664 5.88286 11.1054 5.844 11.1608 5.83477L11.2538 6.39317C11.4165 6.36608 11.5424 6.24923 11.5904 6.10204L11.0521 5.92662ZM16.7117 5.49001C16.7324 5.53072 16.7325 5.58523 16.7005 5.63082L16.2371 5.30567C16.1432 5.43956 16.1375 5.60964 16.2071 5.74651L16.7117 5.49001ZM11.1571 7.92017C11.1023 7.91045 11.064 7.87179 11.0499 7.82847L11.5883 7.6535C11.5409 7.50766 11.4169 7.39131 11.256 7.36277L11.1571 7.92017ZM15.0209 9.69226C15.0112 9.74682 14.9728 9.78516 14.9295 9.79938L14.7529 9.26156C14.6076 9.30929 14.492 9.43306 14.4635 9.59336L15.0209 9.69226ZM12.5866 4.1378C12.6274 4.11713 12.6823 4.11717 12.728 4.14979L12.3989 4.61044C12.533 4.7062 12.7043 4.71264 12.8421 4.64293L12.5866 4.1378ZM12.9358 4.06561C12.9449 4.00985 12.984 3.97062 13.0281 3.95641L13.2018 4.4952C13.35 4.44741 13.4677 4.32062 13.4945 4.15685L12.9358 4.06561ZM11.2489 5.62052C11.2169 5.57482 11.2172 5.52025 11.238 5.47958L11.7419 5.73751C11.8119 5.60071 11.8066 5.43042 11.7128 5.29621L11.2489 5.62052ZM15.227 4.15558C15.2728 4.12261 15.3282 4.12259 15.3693 4.14361L15.1116 4.64765C15.2501 4.71844 15.4227 4.71204 15.5574 4.61525L15.227 4.15558ZM16.7839 5.83507C16.8394 5.84415 16.8785 5.88304 16.8929 5.92686L16.3548 6.10271C16.403 6.25016 16.5294 6.36708 16.6925 6.39374L16.7839 5.83507Z" fill="#183651" mask="url(#path-27-inside-1_1168_1863)"/>
<path d="M16.1364 6.88069C16.1364 8.07361 15.1694 9.04067 13.9764 9.04067C12.7835 9.04067 11.8164 8.07361 11.8164 6.88069C11.8164 5.68776 12.7835 4.7207 13.9764 4.7207C15.1694 4.7207 16.1364 5.68776 16.1364 6.88069ZM12.5512 6.88069C12.5512 7.66783 13.1893 8.30593 13.9764 8.30593C14.7636 8.30593 15.4017 7.66783 15.4017 6.88069C15.4017 6.09354 14.7636 5.45544 13.9764 5.45544C13.1893 5.45544 12.5512 6.09354 12.5512 6.88069Z" fill="#F06151"/>
<ellipse cx="13.9784" cy="6.8798" rx="1.08001" ry="1.07999" fill="white"/>
<rect x="13.7031" y="14.4404" width="3.77997" height="0.540005" transform="rotate(-90 13.7031 14.4404)" fill="#183651"/>
<rect x="13.7031" y="19.2998" width="3.77997" height="0.540005" transform="rotate(-90 13.7031 19.2998)" fill="#183651"/>
<rect x="13.7031" y="19.2998" width="3.77997" height="0.540005" transform="rotate(-90 13.7031 19.2998)" fill="#183651"/>
<rect x="7.22266" y="16.5996" width="2.15998" height="0.540005" transform="rotate(-90 7.22266 16.5996)" fill="#183651"/>
<rect x="20.1875" y="16.5996" width="2.15998" height="0.540005" transform="rotate(-90 20.1875 16.5996)" fill="#183651"/>
<rect x="7.22266" y="14.1709" width="5.40005" height="0.539995" fill="#183651"/>
<rect x="15.3203" y="14.1709" width="5.40005" height="0.539995" fill="#183651"/>
<rect x="-0.381841" width="2.16" height="2.16" transform="matrix(0.707113 -0.707101 0.707113 0.707101 12.7866 14.2368)" fill="#E0E4E8" stroke="#183651" stroke-width="0.54"/>
<rect x="5.875" y="12.8193" width="0.540005" height="0.539995" fill="#183651"/>
<rect x="7.49219" y="12.8193" width="0.540005" height="0.539995" fill="#183651"/>
<rect x="9.11719" y="12.8193" width="0.540005" height="0.539995" fill="#183651"/>
<rect x="18.293" y="12.8193" width="0.540005" height="0.539995" fill="#183651"/>
<rect x="19.9102" y="12.8193" width="0.540005" height="0.539995" fill="#183651"/>
<rect x="21.5352" y="12.8193" width="0.540005" height="0.539995" fill="#183651"/>
<path d="M13.9784 20.1106C14.724 20.1106 15.3285 19.5062 15.3285 18.7607C15.3285 18.0151 14.724 17.4107 13.9784 17.4107C13.2329 17.4107 12.6284 18.0151 12.6284 18.7607C12.6284 19.5062 13.2329 20.1106 13.9784 20.1106Z" fill="white" stroke="#183651" stroke-width="0.54"/>
<ellipse cx="13.9775" cy="18.7607" rx="0.540005" ry="0.539995" fill="#FBC269"/>
<g filter="url(#filter0_d_1168_1863)">
<rect x="5.60547" y="16.5996" width="3.78003" height="2.15998" fill="white"/>
<rect x="5.47047" y="16.4646" width="4.05003" height="2.42998" stroke="#183651" stroke-width="0.27"/>
</g>
<rect x="6.17578" y="16.9238" width="2.64602" height="1.51199" fill="#2EA0DA"/>
<rect x="18.4314" y="16.4646" width="4.05003" height="2.42998" fill="white" stroke="#183651" stroke-width="0.27"/>
<rect x="19.1328" y="16.9238" width="2.64602" height="1.51199" fill="#2EA0DA"/>
</g>
<defs>
<filter id="filter0_d_1168_1863" x="3.17594" y="16.3301" width="8.64031" height="7.01922" filterUnits="userSpaceOnUse" color-interpolation-filters="sRGB">
<feFlood flood-opacity="0" result="BackgroundImageFix"/>
<feColorMatrix in="SourceAlpha" type="matrix" values="0 0 0 0 0 0 0 0 0 0 0 0 0 0 0 0 0 0 127 0" result="hardAlpha"/>
<feOffset dy="2.16"/>
<feGaussianBlur stdDeviation="1.08"/>
<feComposite in2="hardAlpha" operator="out"/>
<feColorMatrix type="matrix" values="0 0 0 0 0 0 0 0 0 0 0 0 0 0 0 0 0 0 0.25 0"/>
<feBlend mode="normal" in2="BackgroundImageFix" result="effect1_dropShadow_1168_1863"/>
<feBlend mode="normal" in="SourceGraphic" in2="effect1_dropShadow_1168_1863" result="shape"/>
</filter>
<clipPath id="clip0_1168_1863">
<rect width="50" height="50" fill="white"/>
</clipPath>
</defs>
</svg>
