<svg width="50" height="50" viewBox="0 0 50 50" fill="none" xmlns="http://www.w3.org/2000/svg">
<path d="M17.202 34.998C17.202 34.998 16.8711 35.9941 16.3719 36.4918C16.2262 36.6543 16.0469 36.7831 15.8464 36.8693C15.6459 36.9554 15.4291 36.9968 15.2109 36.9906C14.3919 37.2105 13.5594 37.3767 12.7188 37.4883C12.7188 37.4883 13.8816 37.6547 15.2109 37.8207C15.7082 37.8207 15.7082 37.8207 16.0406 37.9871C16.8711 37.9871 17.202 37.4883 17.202 37.4883V34.998ZM32.4793 34.998C32.4793 34.998 32.8117 35.9941 33.3094 36.4918C33.4554 36.6542 33.635 36.783 33.8358 36.8691C34.0365 36.9552 34.2535 36.9967 34.4719 36.9906C35.2902 37.2106 36.1221 37.3768 36.9621 37.4883C36.9621 37.4883 35.8008 37.6547 34.3059 37.8207C33.8082 37.8207 33.8082 37.8207 33.4754 37.9871C32.4793 37.9871 32.3129 37.4883 32.3129 37.4883L32.4793 34.998Z" fill="#EBDAD6"/>
<path d="M42.9414 18.558C42.9414 28.4623 34.9121 36.4916 25.0078 36.4916C15.1031 36.4916 7.07422 28.4623 7.07422 18.558C7.07422 8.65488 15.1031 0.625977 25.0078 0.625977C34.9121 0.625977 42.9414 8.65488 42.9414 18.558Z" fill="#A6ABB2"/>
<path d="M42.2766 18.5578C42.2766 28.0961 34.5449 35.8273 25.0066 35.8273C15.4699 35.8273 7.73828 28.0961 7.73828 18.5578C7.73828 9.02109 15.4699 1.28906 25.0066 1.28906C34.5449 1.28906 42.2762 9.0207 42.2762 18.5574L42.2766 18.5578Z" fill="#B6BEC0"/>
<path d="M39.1191 18.8908C39.1191 26.6861 32.8008 33.0049 25.0051 33.0049C17.2105 33.0049 10.8906 26.6861 10.8906 18.8904C10.8906 11.0963 17.2109 4.77637 25.0051 4.77637C32.8008 4.77637 39.1191 11.0971 39.1191 18.8908Z" fill="#D6D9DA"/>
<path d="M16.7043 25.5322C16.7043 25.5322 17.8668 44.2959 17.8668 44.6287C17.8668 44.7936 18.0332 45.126 17.2016 45.4588C16.3715 45.79 13.7148 46.4549 13.7148 46.4549H17.7004C19.527 46.4549 19.527 44.96 19.527 44.6287C19.527 44.2959 20.0246 37.1564 20.0246 37.1564C20.0246 37.1564 20.1906 45.6252 20.1906 45.9561C20.1906 46.2889 20.0246 46.7861 18.8633 47.1189C18.0332 47.2854 15.5414 47.783 15.5414 47.783H19.3609C21.6863 47.783 21.6863 46.2889 21.6863 46.2889L22.1836 38.8166C22.1836 38.8166 22.35 46.2889 22.35 47.1189C22.35 47.783 21.8523 48.2818 20.0246 48.6127C18.8633 48.9455 17.368 49.2779 17.368 49.2779H21.6863C23.8437 49.1119 24.1766 47.6162 24.1766 47.6162L27.8293 29.0189L16.7043 25.5322Z" fill="#EBE2DE"/>
<path d="M33.3098 25.5324C33.3098 25.5324 32.1484 44.2961 32.1484 44.6289C32.1484 44.7937 31.982 45.1262 32.8125 45.459C33.6422 45.7902 36.2988 46.4551 36.2988 46.4551H32.3133C30.4867 46.4551 30.4867 44.9602 30.4867 44.6289C30.4867 44.2961 29.9895 37.1566 29.9895 37.1566C29.9895 37.1566 29.823 45.6254 29.823 45.9562C29.823 46.2891 29.9895 46.7863 31.152 47.1191L34.4723 47.7832H30.6535C28.3293 47.7832 28.3293 46.2891 28.3293 46.2891L27.8305 38.8168C27.8305 38.8168 27.6641 46.2891 27.6641 47.1191C27.6641 47.7832 28.1633 48.282 29.9898 48.6129C31.1523 48.9457 32.6461 49.2781 32.6461 49.2781H28.3293C26.1699 49.1121 25.8371 47.6164 25.8371 47.6164L22.1848 29.0195L33.3098 25.5324ZM33.4758 16.4C33.4758 21.0496 29.6566 24.7023 25.1734 24.7023C20.6906 24.7023 16.8711 20.8832 16.8711 16.4C16.8711 11.9172 20.6906 8.09766 25.1734 8.09766C29.6566 8.09766 33.4758 11.7508 33.4758 16.4Z" fill="#EBE2DE"/>
<mask id="mask0_1182_2032" style="mask-type:luminance" maskUnits="userSpaceOnUse" x="16" y="16" width="18" height="20">
<path d="M16.4062 16.0156H33.5938V35.9375H16.4062V16.0156Z" fill="white"/>
</mask>
<g mask="url(#mask0_1182_2032)">
<mask id="mask1_1182_2032" style="mask-type:luminance" maskUnits="userSpaceOnUse" x="16" y="16" width="18" height="23">
<path d="M33.4738 16.0674L32.4777 38.8166H17.5332L16.7031 16.0674" fill="white"/>
</mask>
<g mask="url(#mask1_1182_2032)">
<path d="M39.9508 20.8822C39.9508 29.0443 33.3348 35.6607 25.1727 35.6607C17.0109 35.6607 10.3945 29.0443 10.3945 20.8826C10.3945 12.7205 17.0109 6.10449 25.1727 6.10449C33.3348 6.10449 39.9508 12.7201 39.9508 20.8822Z" fill="#EBE2DE"/>
</g>
</g>
<mask id="mask2_1182_2032" style="mask-type:luminance" maskUnits="userSpaceOnUse" x="0" y="0" width="50" height="50">
<path d="M0 0H50V50H0V0Z" fill="black" fill-opacity="0.22"/>
</mask>
<g mask="url(#mask2_1182_2032)">
<mask id="mask3_1182_2032" style="mask-type:luminance" maskUnits="userSpaceOnUse" x="0" y="0" width="50" height="50">
<path d="M0 0H50V50H0V0Z" fill="white"/>
</mask>
<g mask="url(#mask3_1182_2032)">
<path d="M32.9789 25.5324C32.9789 25.5324 33.975 16.7312 32.6461 13.4109C30.1559 7.59879 24.3438 8.09762 24.3438 8.09762C24.3438 8.09762 27.6641 9.42536 27.8305 14.4074C27.9969 17.8941 27.8305 23.0422 27.8305 23.0422L32.9789 25.5324Z" fill="#A49995"/>
</g>
</g>
<mask id="mask4_1182_2032" style="mask-type:luminance" maskUnits="userSpaceOnUse" x="0" y="0" width="50" height="50">
<path d="M0 0H50V50H0V0Z" fill="black" fill-opacity="0.502"/>
</mask>
<g mask="url(#mask4_1182_2032)">
<mask id="mask5_1182_2032" style="mask-type:luminance" maskUnits="userSpaceOnUse" x="0" y="0" width="50" height="50">
<path d="M0 0H50V50H0V0Z" fill="white"/>
</mask>
<g mask="url(#mask5_1182_2032)">
<path d="M22.8469 11.9172C22.8468 12.0697 22.8167 12.2208 22.7582 12.3617C22.6998 12.5026 22.6141 12.6307 22.5062 12.7385C22.3983 12.8463 22.2702 12.9318 22.1292 12.9901C21.9882 13.0484 21.8371 13.0784 21.6846 13.0783C21.532 13.0782 21.381 13.0481 21.24 12.9897C21.0991 12.9312 20.9711 12.8456 20.8633 12.7376C20.7555 12.6297 20.67 12.5016 20.6116 12.3606C20.5533 12.2197 20.5234 12.0686 20.5234 11.916C20.5236 11.6079 20.6461 11.3125 20.8641 11.0947C21.0821 10.877 21.3776 10.7547 21.6857 10.7549C21.9938 10.755 22.2893 10.8776 22.507 11.0956C22.7248 11.3135 22.847 11.6091 22.8469 11.9172Z" fill="#CCC5C2"/>
</g>
</g>
<path d="M27.9941 28.8523C27.9941 31.6754 26.6652 33.5035 25.0051 33.5035C23.3449 33.5035 22.0156 31.3441 22.0156 28.5215C22.0156 28.5215 23.3449 31.1777 25.1711 31.1777C26.9977 31.1777 27.9941 28.8523 27.9941 28.8523Z" fill="#7D7D7D"/>
<path d="M27.9957 28.8523C27.9957 30.6805 26.6668 31.6754 25.0066 31.6754C23.3465 31.6754 22.1836 30.3477 22.1836 28.6875C22.1836 28.6875 23.5125 30.3477 25.3391 30.3477C27.1656 30.3477 27.9957 28.8523 27.9957 28.8523Z" fill="white"/>
<path d="M35.9645 21.0498C35.9645 23.8924 33.6605 26.1963 30.818 26.1963C27.975 26.1963 25.6695 23.8924 25.6695 21.0498C25.6695 18.2068 27.975 15.9014 30.818 15.9014C33.6605 15.9014 35.9645 18.2068 35.9645 21.0498ZM24.3418 21.0498C24.3418 23.8924 22.0363 26.1963 19.1934 26.1963C16.3508 26.1963 14.0469 23.8924 14.0469 21.0498C14.0469 18.2068 16.3508 15.9014 19.1938 15.9014C22.0363 15.9014 24.3418 18.2068 24.3418 21.0498Z" fill="#B5A6A0"/>
<path d="M34.8055 21.05C34.8055 23.2504 33.0203 25.0355 30.8199 25.0355C28.6195 25.0355 26.834 23.2504 26.834 21.05C26.834 18.848 28.6191 17.0645 30.8199 17.0645C33.0199 17.0645 34.8055 18.848 34.8055 21.05ZM22.8484 21.05C22.8484 23.2504 21.0648 25.0355 18.8645 25.0355C16.6625 25.0355 14.8789 23.2504 14.8789 21.05C14.8788 20.5266 14.9818 20.0083 15.1821 19.5247C15.3823 19.0411 15.6759 18.6017 16.046 18.2316C16.4161 17.8615 16.8555 17.5679 17.3391 17.3676C17.8227 17.1674 18.341 17.0644 18.8645 17.0645C21.0648 17.0645 22.8484 18.848 22.8484 21.05Z" fill="white"/>
<path d="M20.0234 20.5504C20.0235 20.703 19.9935 20.8541 19.9352 20.9952C19.8769 21.1362 19.7913 21.2643 19.6835 21.3723C19.5756 21.4803 19.4476 21.5659 19.3066 21.6244C19.1656 21.6829 19.0145 21.713 18.8619 21.7131C18.7093 21.7132 18.5582 21.6832 18.4171 21.6248C18.2761 21.5665 18.148 21.481 18.04 21.3731C17.932 21.2653 17.8464 21.1372 17.7879 20.9962C17.7294 20.8553 17.6993 20.7042 17.6992 20.5516C17.699 20.2434 17.8212 19.9477 18.039 19.7296C18.2568 19.5115 18.5523 19.3889 18.8605 19.3887C19.1688 19.3885 19.4644 19.5107 19.6825 19.7285C19.9006 19.9463 20.0232 20.2422 20.0234 20.5504ZM31.9801 20.5504C31.9829 20.7048 31.955 20.8583 31.8979 21.0018C31.8408 21.1453 31.7556 21.276 31.6474 21.3862C31.5392 21.4964 31.4102 21.584 31.2677 21.6438C31.1253 21.7036 30.9724 21.7344 30.818 21.7344C30.6635 21.7344 30.5106 21.7037 30.3682 21.6439C30.2257 21.5842 30.0966 21.4967 29.9884 21.3865C29.8802 21.2763 29.795 21.1456 29.7378 21.0021C29.6807 20.8586 29.6527 20.7052 29.6555 20.5508C29.6609 20.2462 29.7858 19.956 30.0031 19.7425C30.2204 19.529 30.5128 19.4093 30.8174 19.4092C31.122 19.4091 31.4145 19.5286 31.6319 19.7419C31.8494 19.9553 31.9744 20.2458 31.9801 20.5504Z" fill="#010101"/>
<path d="M6.74176 23.0418C6.63097 23.0486 6.51999 23.0318 6.41617 22.9926C6.31236 22.9533 6.21808 22.8924 6.13959 22.8139C6.06109 22.7354 6.00018 22.6411 5.96089 22.5373C5.9216 22.4335 5.90483 22.3225 5.91169 22.2117V15.5699C5.90475 15.4591 5.92144 15.348 5.96063 15.2441C5.99982 15.1402 6.06063 15.0458 6.13903 14.9672C6.21768 14.8888 6.31208 14.8279 6.41598 14.7888C6.51989 14.7496 6.63093 14.7329 6.74176 14.7398C6.85256 14.733 6.96354 14.7497 7.06735 14.789C7.17117 14.8283 7.26545 14.8892 7.34394 14.9677C7.42243 15.0462 7.48334 15.1405 7.52263 15.2443C7.56192 15.3481 7.5787 15.4591 7.57184 15.5699V22.2121C7.58551 22.4347 7.50153 22.6547 7.34294 22.8136C7.26452 22.8921 7.17036 22.953 7.06667 22.9924C6.96297 23.0318 6.8521 23.0488 6.74137 23.0422L6.74176 23.0418ZM42.9402 23.0418C42.8294 23.0485 42.7185 23.0315 42.6148 22.992C42.5111 22.9526 42.4169 22.8915 42.3386 22.8129C42.2602 22.7345 42.1993 22.6404 42.1599 22.5368C42.1205 22.4331 42.1036 22.3223 42.1101 22.2117V15.5699C42.1035 15.4589 42.1204 15.3479 42.1599 15.244C42.1994 15.1401 42.2604 15.0457 42.339 14.9672C42.4174 14.8888 42.5115 14.828 42.6152 14.7888C42.7188 14.7496 42.8296 14.7329 42.9402 14.7398C43.0508 14.7329 43.1616 14.7496 43.2653 14.7888C43.3689 14.828 43.463 14.8888 43.5414 14.9672C43.7015 15.1261 43.7836 15.3461 43.7703 15.5699V22.2121C43.7772 22.3229 43.7603 22.4339 43.7209 22.5376C43.6814 22.6414 43.6202 22.7355 43.5414 22.8136C43.463 22.8922 43.3689 22.9532 43.2652 22.9926C43.1615 23.032 43.0506 23.0489 42.9398 23.0422L42.9402 23.0418Z" fill="#E1E7EE"/>
<path d="M20.1899 5.27539C20.1899 5.49554 20.1025 5.70667 19.9468 5.86234C19.7911 6.01801 19.58 6.10547 19.3599 6.10547C19.1397 6.10547 18.9286 6.01801 18.7729 5.86234C18.6172 5.70667 18.5298 5.49554 18.5298 5.27539C18.5298 5.05524 18.6172 4.84411 18.7729 4.68844C18.9286 4.53277 19.1397 4.44531 19.3599 4.44531C19.58 4.44531 19.7911 4.53277 19.9468 4.68844C20.1025 4.84411 20.1899 5.05524 20.1899 5.27539ZM13.3829 27.6918C13.2926 27.7032 13.2008 27.6942 13.1144 27.6655C13.028 27.6367 12.9492 27.589 12.8837 27.5258C10.8911 25.0355 9.89462 21.8801 9.89462 18.7246C9.88572 16.1012 10.5735 13.5225 11.8876 11.252C13.2197 9.09078 15.0392 7.27141 17.2005 5.93945C17.3392 5.87724 17.4939 5.85979 17.643 5.88954C17.7921 5.9193 17.9283 5.99477 18.0325 6.10547C18.0941 6.24406 18.1112 6.39837 18.0813 6.54707C18.0514 6.69577 17.9761 6.83151 17.8657 6.93555C15.8058 8.09935 14.0908 9.78778 12.8949 11.8292C11.699 13.8706 11.065 16.1923 11.0571 18.5582C11.0525 21.5116 12.0475 24.3797 13.8802 26.6957C14.0466 26.8621 14.0466 27.3598 13.7138 27.5258C13.5477 27.6922 13.5477 27.6918 13.3829 27.6918Z" fill="white"/>
<mask id="mask6_1182_2032" style="mask-type:luminance" maskUnits="userSpaceOnUse" x="0" y="0" width="50" height="50">
<path d="M0 0H50V50H0V0Z" fill="black" fill-opacity="0.251"/>
</mask>
<g mask="url(#mask6_1182_2032)">
<mask id="mask7_1182_2032" style="mask-type:luminance" maskUnits="userSpaceOnUse" x="0" y="0" width="50" height="50">
<path d="M0 0H50V50H0V0Z" fill="white"/>
</mask>
<g mask="url(#mask7_1182_2032)">
<path d="M32.4773 35.4949V34.168C30.1531 35.4953 27.6613 36.8242 24.6738 36.8242C21.352 36.8242 19.193 35.3305 17.0352 34.168L17.2 35.4953C17.2 35.4953 19.6922 38.1535 24.8387 38.1535C29.6543 37.9871 32.4773 35.4949 32.4773 35.4949Z" fill="#E9654B"/>
</g>
</g>
<ellipse cx="14.3708" cy="6.31996" rx="4.32004" ry="4.31996" fill="#B5D2C9"/>
<mask id="path-27-inside-1_1182_2032" fill="white">
<path d="M18.0161 5.69824L17.1327 5.55386C17.0789 5.54506 17.0353 5.50605 17.0183 5.45424C16.9738 5.3178 16.9188 5.18533 16.8539 5.05772C16.8295 5.00963 16.8324 4.95185 16.8634 4.9077L17.3798 4.17166C17.4257 4.10641 17.4178 4.01749 17.3614 3.96095L16.7222 3.32208C16.6652 3.26521 16.5754 3.25781 16.51 3.30498L15.7867 3.82487C15.7423 3.85678 15.6836 3.85997 15.635 3.83508C15.5058 3.76908 15.3719 3.71343 15.2342 3.66855C15.1828 3.65183 15.144 3.60889 15.1347 3.55573L14.9804 2.67515C14.9666 2.59659 14.8984 2.53906 14.8186 2.53906H13.9146C13.834 2.53906 13.7653 2.59741 13.7523 2.67696L13.6096 3.55069C13.6008 3.60469 13.5616 3.64847 13.5095 3.66526C13.3714 3.70977 13.2375 3.76476 13.1089 3.82982C13.0604 3.85434 13.0022 3.85114 12.958 3.81957L12.2364 3.30416C12.1708 3.25732 12.0816 3.26488 12.0245 3.32158L11.3857 3.96045C11.3293 4.01683 11.3214 4.10558 11.3672 4.17084L11.8754 4.89782C11.9063 4.94207 11.9091 4.99993 11.8845 5.048C11.8177 5.17845 11.7613 5.31405 11.7158 5.45378C11.6989 5.5055 11.6554 5.54449 11.6018 5.55343L10.7312 5.6984C10.6519 5.71155 10.5938 5.78026 10.5938 5.86046V6.76445C10.5938 6.84416 10.6509 6.91237 10.7293 6.92634L11.6011 7.08092C11.6541 7.09033 11.697 7.12917 11.7136 7.18043C11.7589 7.31989 11.8153 7.45547 11.8822 7.58616C11.907 7.63472 11.9039 7.69324 11.8722 7.73762L11.3585 8.45605C11.3119 8.5213 11.3193 8.61088 11.376 8.66791L12.015 9.30744C12.0714 9.36381 12.1603 9.3717 12.2256 9.32585L12.9538 8.81576C12.998 8.78481 13.0558 8.78196 13.1039 8.80643C13.2337 8.87254 13.3685 8.92824 13.507 8.97313C13.5588 8.98993 13.5979 9.03347 13.6069 9.08721L13.7527 9.96258C13.7656 10.0416 13.8342 10.0997 13.9146 10.0997H14.8186C14.8983 10.0997 14.9665 10.0425 14.9803 9.96406L15.1367 9.08226C15.1461 9.02939 15.1847 8.98668 15.2357 8.96992C15.3744 8.92437 15.5087 8.86828 15.6376 8.80196C15.6859 8.77715 15.744 8.7799 15.7884 8.81104L16.522 9.32568C16.5874 9.37187 16.6762 9.36381 16.7327 9.30744L17.3718 8.66791C17.4286 8.61088 17.436 8.52097 17.3889 8.45556L16.8661 7.72976C16.8342 7.68547 16.8309 7.62692 16.8556 7.57825C16.9204 7.45054 16.9751 7.31795 17.0193 7.18152C17.036 7.13012 17.0789 7.09119 17.1321 7.08185L18.0179 6.92634C18.0966 6.91254 18.1538 6.84416 18.1538 6.76445V5.86046C18.154 5.77993 18.0956 5.71122 18.0161 5.69824ZM14.3738 7.46988C13.7384 7.46988 13.2232 6.95478 13.2232 6.31936C13.2232 5.68394 13.7384 5.16883 14.3738 5.16883C15.0092 5.16883 15.5243 5.68394 15.5243 6.31936C15.5243 6.95478 15.0092 7.46988 14.3738 7.46988Z"/>
</mask>
<path d="M18.0161 5.69824L17.1327 5.55386C17.0789 5.54506 17.0353 5.50605 17.0183 5.45424C16.9738 5.3178 16.9188 5.18533 16.8539 5.05772C16.8295 5.00963 16.8324 4.95185 16.8634 4.9077L17.3798 4.17166C17.4257 4.10641 17.4178 4.01749 17.3614 3.96095L16.7222 3.32208C16.6652 3.26521 16.5754 3.25781 16.51 3.30498L15.7867 3.82487C15.7423 3.85678 15.6836 3.85997 15.635 3.83508C15.5058 3.76908 15.3719 3.71343 15.2342 3.66855C15.1828 3.65183 15.144 3.60889 15.1347 3.55573L14.9804 2.67515C14.9666 2.59659 14.8984 2.53906 14.8186 2.53906H13.9146C13.834 2.53906 13.7653 2.59741 13.7523 2.67696L13.6096 3.55069C13.6008 3.60469 13.5616 3.64847 13.5095 3.66526C13.3714 3.70977 13.2375 3.76476 13.1089 3.82982C13.0604 3.85434 13.0022 3.85114 12.958 3.81957L12.2364 3.30416C12.1708 3.25732 12.0816 3.26488 12.0245 3.32158L11.3857 3.96045C11.3293 4.01683 11.3214 4.10558 11.3672 4.17084L11.8754 4.89782C11.9063 4.94207 11.9091 4.99993 11.8845 5.048C11.8177 5.17845 11.7613 5.31405 11.7158 5.45378C11.6989 5.5055 11.6554 5.54449 11.6018 5.55343L10.7312 5.6984C10.6519 5.71155 10.5938 5.78026 10.5938 5.86046V6.76445C10.5938 6.84416 10.6509 6.91237 10.7293 6.92634L11.6011 7.08092C11.6541 7.09033 11.697 7.12917 11.7136 7.18043C11.7589 7.31989 11.8153 7.45547 11.8822 7.58616C11.907 7.63472 11.9039 7.69324 11.8722 7.73762L11.3585 8.45605C11.3119 8.5213 11.3193 8.61088 11.376 8.66791L12.015 9.30744C12.0714 9.36381 12.1603 9.3717 12.2256 9.32585L12.9538 8.81576C12.998 8.78481 13.0558 8.78196 13.1039 8.80643C13.2337 8.87254 13.3685 8.92824 13.507 8.97313C13.5588 8.98993 13.5979 9.03347 13.6069 9.08721L13.7527 9.96258C13.7656 10.0416 13.8342 10.0997 13.9146 10.0997H14.8186C14.8983 10.0997 14.9665 10.0425 14.9803 9.96406L15.1367 9.08226C15.1461 9.02939 15.1847 8.98668 15.2357 8.96992C15.3744 8.92437 15.5087 8.86828 15.6376 8.80196C15.6859 8.77715 15.744 8.7799 15.7884 8.81104L16.522 9.32568C16.5874 9.37187 16.6762 9.36381 16.7327 9.30744L17.3718 8.66791C17.4286 8.61088 17.436 8.52097 17.3889 8.45556L16.8661 7.72976C16.8342 7.68547 16.8309 7.62692 16.8556 7.57825C16.9204 7.45054 16.9751 7.31795 17.0193 7.18152C17.036 7.13012 17.0789 7.09119 17.1321 7.08185L18.0179 6.92634C18.0966 6.91254 18.1538 6.84416 18.1538 6.76445V5.86046C18.154 5.77993 18.0956 5.71122 18.0161 5.69824ZM14.3738 7.46988C13.7384 7.46988 13.2232 6.95478 13.2232 6.31936C13.2232 5.68394 13.7384 5.16883 14.3738 5.16883C15.0092 5.16883 15.5243 5.68394 15.5243 6.31936C15.5243 6.95478 15.0092 7.46988 14.3738 7.46988Z" fill="white"/>
<path d="M18.0161 5.69824L17.9704 5.97758L17.9705 5.97759L18.0161 5.69824ZM17.3798 4.17166L17.1483 4.00891L17.1481 4.00908L17.3798 4.17166ZM17.3614 3.96095L17.5619 3.76109L17.5615 3.76075L17.3614 3.96095ZM16.7222 3.32208L16.9223 3.12188L16.9221 3.12164L16.7222 3.32208ZM16.51 3.30498L16.6752 3.53482L16.6756 3.53457L16.51 3.30498ZM14.9804 2.67515L15.2593 2.62632L15.2592 2.62616L14.9804 2.67515ZM13.7523 2.67696L14.0317 2.72258L14.0317 2.72256L13.7523 2.67696ZM12.2364 3.30416L12.0719 3.53449L12.0719 3.53449L12.2364 3.30416ZM12.0245 3.32158L11.825 3.12086L11.8244 3.12144L12.0245 3.32158ZM11.3857 3.96045L11.1855 3.76031L11.1855 3.76031L11.3857 3.96045ZM11.3672 4.17084L11.5992 4.00868L11.5988 4.00809L11.3672 4.17084ZM10.7312 5.6984L10.7775 5.97763L10.7777 5.97761L10.7312 5.6984ZM10.7293 6.92634L10.6797 7.205L10.6799 7.20504L10.7293 6.92634ZM11.3585 8.45605L11.5887 8.62073L11.5888 8.62067L11.3585 8.45605ZM11.376 8.66791L11.1752 8.86748L11.1757 8.86798L11.376 8.66791ZM12.015 9.30744L11.8148 9.50751L11.8149 9.50758L12.015 9.30744ZM12.2256 9.32585L12.0632 9.09401L12.0628 9.09426L12.2256 9.32585ZM13.7527 9.96258L14.032 9.9167L14.0319 9.91608L13.7527 9.96258ZM14.9803 9.96406L14.7016 9.91461L14.7015 9.91497L14.9803 9.96406ZM16.522 9.32568L16.6853 9.09445L16.6846 9.09397L16.522 9.32568ZM16.7327 9.30744L16.9326 9.50787L16.933 9.50751L16.7327 9.30744ZM17.3718 8.66791L17.572 8.86798L17.5722 8.86777L17.3718 8.66791ZM17.3889 8.45556L17.1592 8.62097L17.1593 8.62111L17.3889 8.45556ZM18.0179 6.92634L17.969 6.64755L17.9689 6.64756L18.0179 6.92634ZM18.1538 5.86046L17.8708 5.85989V5.86046H18.1538ZM17.0193 7.18152L17.2886 7.26877L17.0193 7.18152ZM17.1321 7.08185L17.1811 7.36063L17.1321 7.08185ZM15.6376 8.80196L15.5082 8.55026L15.6376 8.80196ZM15.7884 8.81104L15.951 8.57933L15.7884 8.81104ZM13.507 8.97313L13.4197 9.24239L13.507 8.97313ZM13.6069 9.08721L13.8861 9.04072L13.6069 9.08721ZM11.8822 7.58616L12.1341 7.45721L11.8822 7.58616ZM11.8722 7.73762L12.1024 7.90224L11.8722 7.73762ZM15.2342 3.66855L15.1465 3.93767L15.2342 3.66855ZM15.1347 3.55573L14.8559 3.60457L15.1347 3.55573ZM12.9538 8.81576L13.1162 9.0476L12.9538 8.81576ZM13.1039 8.80643L12.9755 9.05867L13.1039 8.80643ZM16.8661 7.72976L17.0958 7.56434L16.8661 7.72976ZM16.8556 7.57825L17.1081 7.70631L16.8556 7.57825ZM11.7158 5.45378L11.4467 5.36608L11.7158 5.45378ZM11.6018 5.55343L11.5553 5.27422L11.6018 5.55343ZM16.8539 5.05772L17.1063 4.92947L16.8539 5.05772ZM16.8634 4.9077L17.0951 5.07027L16.8634 4.9077ZM11.6011 7.08092L11.5517 7.35962L11.6011 7.08092ZM11.7136 7.18043L11.4444 7.26792L11.7136 7.18043ZM15.1367 9.08226L14.858 9.03281L15.1367 9.08226ZM15.2357 8.96992L15.1474 8.70101L15.2357 8.96992ZM13.1089 3.82982L12.9811 3.57726L13.1089 3.82982ZM12.958 3.81957L12.7935 4.0499L12.7935 4.0499L12.958 3.81957ZM13.6096 3.55069L13.3303 3.50507L13.6096 3.55069ZM13.5095 3.66526L13.4226 3.39586L13.5095 3.66526ZM11.8754 4.89782L11.6434 5.05997L11.8754 4.89782ZM11.8845 5.048L11.6325 4.91904L11.8845 5.048ZM15.7867 3.82487L15.9519 4.0547L15.7867 3.82487ZM15.635 3.83508L15.5061 4.08711L15.635 3.83508ZM17.1327 5.55386L17.0871 5.8332L17.1327 5.55386ZM17.0183 5.45424L16.7493 5.54216L17.0183 5.45424ZM18.0617 5.4189L17.1784 5.27452L17.0871 5.8332L17.9704 5.97758L18.0617 5.4189ZM17.2874 5.36631C17.2383 5.216 17.1777 5.07005 17.1063 4.92947L16.6016 5.18597C16.6599 5.30061 16.7092 5.4196 16.7493 5.54216L17.2874 5.36631ZM17.0951 5.07027L17.6115 4.33423L17.1481 4.00908L16.6317 4.74512L17.0951 5.07027ZM17.6114 4.33441C17.7368 4.156 17.7146 3.91427 17.5619 3.76109L17.161 4.1608C17.121 4.1207 17.1146 4.05682 17.1483 4.00891L17.6114 4.33441ZM17.5615 3.76075L16.9223 3.12188L16.5221 3.52227L17.1613 4.16114L17.5615 3.76075ZM16.9221 3.12164C16.7673 2.96731 16.5229 2.94673 16.3445 3.0754L16.6756 3.53457C16.628 3.5689 16.5631 3.5631 16.5224 3.52251L16.9221 3.12164ZM16.3448 3.07515L15.6215 3.59503L15.9519 4.0547L16.6752 3.53482L16.3448 3.07515ZM15.7638 3.58306C15.6214 3.51028 15.4737 3.44892 15.3219 3.39943L15.1465 3.93767C15.2701 3.97794 15.3902 4.02787 15.5061 4.08711L15.7638 3.58306ZM15.4135 3.5069L15.2593 2.62632L14.7016 2.72399L14.8559 3.60457L15.4135 3.5069ZM15.2592 2.62616C15.2217 2.41277 15.0364 2.25602 14.8186 2.25602V2.82211C14.7605 2.82211 14.7116 2.78041 14.7017 2.72414L15.2592 2.62616ZM14.8186 2.25602H13.9146V2.82211H14.8186V2.25602ZM13.9146 2.25602C13.6953 2.25602 13.5083 2.41485 13.473 2.63136L14.0317 2.72256C14.0223 2.77998 13.9727 2.82211 13.9146 2.82211V2.25602ZM13.473 2.63134L13.3303 3.50507L13.889 3.59631L14.0317 2.72258L13.473 2.63134ZM13.4226 3.39586C13.2706 3.44486 13.123 3.50547 12.9811 3.57726L13.2367 4.08238C13.352 4.02405 13.4722 3.97467 13.5963 3.93465L13.4226 3.39586ZM13.1225 3.58924L12.4009 3.07384L12.0719 3.53449L12.7935 4.0499L13.1225 3.58924ZM12.4009 3.07384C12.2223 2.94628 11.9793 2.9674 11.825 3.12086L12.2241 3.52231C12.1838 3.56236 12.1193 3.56836 12.0719 3.53449L12.4009 3.07384ZM11.8244 3.12144L11.1855 3.76031L11.5858 4.1606L12.2247 3.52173L11.8244 3.12144ZM11.1855 3.76031C11.0323 3.9135 11.0104 4.15528 11.1357 4.33358L11.5988 4.00809C11.6324 4.05589 11.6262 4.12016 11.5858 4.1606L11.1855 3.76031ZM11.1353 4.33299L11.6434 5.05997L12.1074 4.73566L11.5992 4.00868L11.1353 4.33299ZM11.6325 4.91904C11.559 5.06278 11.4968 5.21217 11.4467 5.36608L11.9849 5.54149C12.0258 5.41593 12.0765 5.29413 12.1364 5.17696L11.6325 4.91904ZM11.5553 5.27422L10.6847 5.4192L10.7777 5.97761L11.6483 5.83263L11.5553 5.27422ZM10.6848 5.41918C10.469 5.455 10.3107 5.64185 10.3107 5.86046H10.8768C10.8768 5.91866 10.8349 5.96811 10.7775 5.97763L10.6848 5.41918ZM10.3107 5.86046V6.76445H10.8768V5.86046H10.3107ZM10.3107 6.76445C10.3107 6.98142 10.4663 7.16698 10.6797 7.205L10.779 6.64769C10.8356 6.65776 10.8768 6.70691 10.8768 6.76445H10.3107ZM10.6799 7.20504L11.5517 7.35962L11.6505 6.80222L10.7788 6.64764L10.6799 7.20504ZM11.4444 7.26792C11.4944 7.42168 11.5565 7.57112 11.6302 7.7151L12.1341 7.45721C12.0741 7.33982 12.0235 7.2181 11.9828 7.09295L11.4444 7.26792ZM11.6419 7.573L11.1283 8.29143L11.5888 8.62067L12.1024 7.90224L11.6419 7.573ZM11.1283 8.29136C11.0009 8.46951 11.0216 8.71297 11.1752 8.86748L11.5767 8.46834C11.6169 8.50878 11.6228 8.57308 11.5887 8.62073L11.1283 8.29136ZM11.1757 8.86798L11.8148 9.50751L12.2152 9.10737L11.5762 8.46784L11.1757 8.86798ZM11.8149 9.50758C11.9681 9.6608 12.21 9.6827 12.3883 9.55743L12.0628 9.09426C12.1106 9.0607 12.1747 9.06682 12.2151 9.10729L11.8149 9.50758ZM12.3879 9.55768L13.1162 9.0476L12.7915 8.58392L12.0632 9.09401L12.3879 9.55768ZM12.9755 9.05867C13.1186 9.13153 13.2671 9.19293 13.4197 9.24239L13.5943 8.70388C13.4699 8.66356 13.3489 8.61354 13.2323 8.55419L12.9755 9.05867ZM13.3277 9.13371L13.4735 10.0091L14.0319 9.91608L13.8861 9.04072L13.3277 9.13371ZM13.4733 10.0085C13.5089 10.225 13.6963 10.3827 13.9146 10.3827V9.81661C13.9721 9.81661 14.0224 9.85826 14.032 9.9167L13.4733 10.0085ZM13.9146 10.3827H14.8186V9.81661H13.9146V10.3827ZM14.8186 10.3827C15.0354 10.3827 15.2214 10.2271 15.259 10.0131L14.7015 9.91497C14.7116 9.85783 14.7611 9.81661 14.8186 9.81661V10.3827ZM15.259 10.0135L15.4154 9.13171L14.858 9.03281L14.7016 9.91461L15.259 10.0135ZM15.324 9.23883C15.4767 9.18869 15.6248 9.12687 15.7671 9.05365L15.5082 8.55026C15.3926 8.60969 15.2721 8.66005 15.1474 8.70101L15.324 9.23883ZM15.6259 9.04276L16.3595 9.5574L16.6846 9.09397L15.951 8.57933L15.6259 9.04276ZM16.3588 9.55691C16.5378 9.68332 16.7796 9.66037 16.9326 9.50787L16.5329 9.107C16.5727 9.06725 16.6371 9.06042 16.6853 9.09446L16.3588 9.55691ZM16.933 9.50751L17.572 8.86798L17.1716 8.46784L16.5325 9.10737L16.933 9.50751ZM17.5722 8.86777C17.7266 8.71296 17.7471 8.46841 17.6185 8.29L17.1593 8.62111C17.125 8.57353 17.1307 8.50879 17.1713 8.46805L17.5722 8.86777ZM17.6185 8.29014L17.0958 7.56434L16.6365 7.89518L17.1592 8.62097L17.6185 8.29014ZM17.1081 7.70631C17.1796 7.56539 17.2399 7.41915 17.2886 7.26877L16.75 7.09427C16.7104 7.21675 16.6613 7.33569 16.6032 7.45019L17.1081 7.70631ZM17.1811 7.36063L18.0668 7.20513L17.9689 6.64756L17.0832 6.80307L17.1811 7.36063ZM18.0668 7.20514C18.2812 7.16753 18.4369 6.98128 18.4369 6.76445H17.8708C17.8708 6.70705 17.912 6.65755 17.969 6.64755L18.0668 7.20514ZM18.4369 6.76445V5.86046H17.8708V6.76445H18.4369ZM18.4369 5.86104C18.4373 5.64131 18.2781 5.45422 18.0617 5.41889L17.9705 5.97759C17.9132 5.96823 17.8707 5.91854 17.8708 5.85989L18.4369 5.86104ZM14.3738 7.18684C13.8947 7.18684 13.5063 6.79845 13.5063 6.31936H12.9402C12.9402 7.1111 13.582 7.75293 14.3738 7.75293V7.18684ZM13.5063 6.31936C13.5063 5.84027 13.8947 5.45188 14.3738 5.45188V4.88579C13.582 4.88579 12.9402 5.52761 12.9402 6.31936H13.5063ZM14.3738 5.45188C14.8529 5.45188 15.2413 5.84027 15.2413 6.31936H15.8074C15.8074 5.52761 15.1655 4.88579 14.3738 4.88579V5.45188ZM15.2413 6.31936C15.2413 6.79845 14.8529 7.18684 14.3738 7.18684V7.75293C15.1655 7.75293 15.8074 7.1111 15.8074 6.31936H15.2413ZM17.2886 7.26877C17.2745 7.31223 17.236 7.35098 17.1811 7.36063L17.0832 6.80307C16.9218 6.8314 16.7974 6.94801 16.75 7.09427L17.2886 7.26877ZM15.7671 9.05365C15.7265 9.07455 15.6717 9.07494 15.6259 9.04276L15.951 8.57933C15.8163 8.48485 15.6452 8.47974 15.5082 8.55026L15.7671 9.05365ZM13.4197 9.24239C13.3759 9.22819 13.3369 9.18921 13.3277 9.13371L13.8861 9.04072C13.8589 8.87772 13.7417 8.75168 13.5943 8.70388L13.4197 9.24239ZM11.6302 7.7151C11.6092 7.67403 11.6092 7.61883 11.6419 7.573L12.1024 7.90224C12.1986 7.76765 12.2049 7.59541 12.1341 7.45721L11.6302 7.7151ZM15.3219 3.39943C15.3652 3.41356 15.4039 3.45199 15.4135 3.5069L14.8559 3.60457C14.8841 3.7658 15.0005 3.8901 15.1465 3.93767L15.3219 3.39943ZM13.1162 9.0476C13.0706 9.07955 13.0161 9.07936 12.9755 9.05867L13.2323 8.55419C13.0955 8.48456 12.9254 8.49008 12.7915 8.58392L13.1162 9.0476ZM17.0958 7.56434C17.1288 7.61011 17.1289 7.66528 17.1081 7.70631L16.6032 7.45019C16.533 7.58857 16.5397 7.76083 16.6365 7.89518L17.0958 7.56434ZM11.4467 5.36608C11.4609 5.32231 11.4999 5.28345 11.5553 5.27422L11.6483 5.83263C11.811 5.80553 11.9369 5.68869 11.9849 5.54149L11.4467 5.36608ZM17.1063 4.92947C17.1269 4.97017 17.1271 5.02469 17.0951 5.07027L16.6317 4.74512C16.5377 4.87901 16.532 5.0491 16.6016 5.18597L17.1063 4.92947ZM11.5517 7.35962C11.4968 7.3499 11.4585 7.31124 11.4444 7.26792L11.9828 7.09295C11.9354 6.94711 11.8114 6.83076 11.6505 6.80222L11.5517 7.35962ZM15.4154 9.13171C15.4057 9.18628 15.3673 9.22462 15.324 9.23883L15.1474 8.70101C15.0021 8.74874 14.8865 8.87251 14.858 9.03281L15.4154 9.13171ZM12.9811 3.57726C13.022 3.55659 13.0768 3.55663 13.1225 3.58924L12.7935 4.0499C12.9275 4.14566 13.0989 4.1521 13.2367 4.08238L12.9811 3.57726ZM13.3303 3.50507C13.3394 3.4493 13.3785 3.41007 13.4226 3.39586L13.5963 3.93465C13.7446 3.88686 13.8622 3.76008 13.889 3.59631L13.3303 3.50507ZM11.6434 5.05997C11.6114 5.01427 11.6117 4.9597 11.6325 4.91904L12.1364 5.17696C12.2065 5.04016 12.2012 4.86987 12.1074 4.73566L11.6434 5.05997ZM15.6215 3.59503C15.6674 3.56206 15.7227 3.56205 15.7638 3.58306L15.5061 4.08711C15.6446 4.1579 15.8172 4.1515 15.9519 4.0547L15.6215 3.59503ZM17.1784 5.27452C17.234 5.2836 17.2731 5.32249 17.2874 5.36631L16.7493 5.54216C16.7975 5.68962 16.9239 5.80653 17.0871 5.8332L17.1784 5.27452Z" fill="#979899" mask="url(#path-27-inside-1_1182_2032)"/>
<path d="M16.531 6.32014C16.531 7.51306 15.5639 8.48012 14.371 8.48012C13.178 8.48012 12.2109 7.51306 12.2109 6.32014C12.2109 5.12721 13.178 4.16016 14.371 4.16016C15.5639 4.16016 16.531 5.12721 16.531 6.32014ZM12.9457 6.32014C12.9457 7.10728 13.5838 7.74539 14.371 7.74539C15.1581 7.74539 15.7962 7.10728 15.7962 6.32014C15.7962 5.533 15.1581 4.89489 14.371 4.89489C13.5838 4.89489 12.9457 5.533 12.9457 6.32014Z" fill="#E7BAB6"/>
<ellipse cx="14.373" cy="6.31925" rx="1.08001" ry="1.07999" fill="white"/>
<rect x="14.0977" y="13.8799" width="3.77997" height="0.540005" transform="rotate(-90 14.0977 13.8799)" fill="#979899"/>
<rect x="14.0977" y="18.7393" width="3.77997" height="0.540005" transform="rotate(-90 14.0977 18.7393)" fill="#979899"/>
<rect x="14.0977" y="18.7393" width="3.77997" height="0.540005" transform="rotate(-90 14.0977 18.7393)" fill="#979899"/>
<rect x="7.61719" y="16.0391" width="2.15998" height="0.540005" transform="rotate(-90 7.61719 16.0391)" fill="#979899"/>
<rect x="20.582" y="16.0391" width="2.15998" height="0.540005" transform="rotate(-90 20.582 16.0391)" fill="#979899"/>
<rect x="7.61719" y="13.6104" width="5.40005" height="0.539995" fill="#979899"/>
<rect x="15.7148" y="13.6104" width="5.40005" height="0.539995" fill="#979899"/>
<rect x="-0.381841" width="2.16" height="2.16" transform="matrix(0.707113 -0.707101 0.707113 0.707101 13.1811 13.6763)" fill="#E0E4E8" stroke="#979899" stroke-width="0.54"/>
<rect x="6.26953" y="12.2588" width="0.540005" height="0.539995" fill="#979899"/>
<rect x="7.88672" y="12.2588" width="0.540005" height="0.539995" fill="#979899"/>
<rect x="9.51172" y="12.2588" width="0.540005" height="0.539995" fill="#979899"/>
<rect x="18.6875" y="12.2588" width="0.540005" height="0.539995" fill="#979899"/>
<rect x="20.3047" y="12.2588" width="0.540005" height="0.539995" fill="#979899"/>
<rect x="21.9297" y="12.2588" width="0.540005" height="0.539995" fill="#979899"/>
<path d="M14.373 19.5501C15.1186 19.5501 15.723 18.9457 15.723 18.2001C15.723 17.4545 15.1186 16.8501 14.373 16.8501C13.6274 16.8501 13.023 17.4545 13.023 18.2001C13.023 18.9457 13.6274 19.5501 14.373 19.5501Z" fill="white" stroke="#979899" stroke-width="0.54"/>
<ellipse cx="14.372" cy="18.2002" rx="0.540005" ry="0.539995" fill="#FFE3B8"/>
<g filter="url(#filter0_d_1182_2032)">
<rect x="6" y="16.0391" width="3.78003" height="2.15998" fill="white"/>
<rect x="5.865" y="15.9041" width="4.05003" height="2.42998" stroke="#979899" stroke-width="0.27"/>
</g>
<rect x="6.57031" y="16.3633" width="2.64602" height="1.51199" fill="#BBCED8"/>
<rect x="18.8259" y="15.9041" width="4.05003" height="2.42998" fill="white" stroke="#979899" stroke-width="0.27"/>
<rect x="19.5273" y="16.3633" width="2.64602" height="1.51199" fill="#BBCED8"/>
<defs>
<filter id="filter0_d_1182_2032" x="3.57047" y="15.7695" width="8.64031" height="7.01922" filterUnits="userSpaceOnUse" color-interpolation-filters="sRGB">
<feFlood flood-opacity="0" result="BackgroundImageFix"/>
<feColorMatrix in="SourceAlpha" type="matrix" values="0 0 0 0 0 0 0 0 0 0 0 0 0 0 0 0 0 0 127 0" result="hardAlpha"/>
<feOffset dy="2.16"/>
<feGaussianBlur stdDeviation="1.08"/>
<feComposite in2="hardAlpha" operator="out"/>
<feColorMatrix type="matrix" values="0 0 0 0 0 0 0 0 0 0 0 0 0 0 0 0 0 0 0.25 0"/>
<feBlend mode="normal" in2="BackgroundImageFix" result="effect1_dropShadow_1182_2032"/>
<feBlend mode="normal" in="SourceGraphic" in2="effect1_dropShadow_1182_2032" result="shape"/>
</filter>
</defs>
</svg>
