<svg width="128" height="128" viewBox="0 0 128 128" fill="none" xmlns="http://www.w3.org/2000/svg">
<g clip-path="url(#clip0_1145_1828)">
<path d="M44.0356 89.5938C44.0356 89.5938 43.1886 92.1437 41.9106 93.4177C41.5378 93.8338 41.0787 94.1635 40.5655 94.3841C40.0522 94.6046 39.497 94.7106 38.9386 94.6947C36.8419 95.2576 34.7107 95.6832 32.5586 95.9688C32.5586 95.9688 35.5356 96.3947 38.9386 96.8197C40.2116 96.8197 40.2116 96.8198 41.0626 97.2458C43.1886 97.2458 44.0356 95.9688 44.0356 95.9688V89.5938ZM83.1456 89.5938C83.1456 89.5938 83.9966 92.1437 85.2706 93.4177C85.6445 93.8336 86.1043 94.1631 86.6181 94.3836C87.132 94.6041 87.6876 94.7103 88.2466 94.6947C90.3416 95.2578 92.4711 95.6834 94.6216 95.9688C94.6216 95.9688 91.6486 96.3947 87.8216 96.8197C86.5476 96.8197 86.5476 96.8198 85.6956 97.2458C83.1456 97.2458 82.7196 95.9688 82.7196 95.9688L83.1456 89.5938Z" fill="#E9654B"/>
<path d="M109.925 47.5076C109.925 72.8626 89.3705 93.4176 64.0155 93.4176C38.6595 93.4176 18.1055 72.8626 18.1055 47.5076C18.1055 22.1556 38.6595 1.60156 64.0155 1.60156C89.3705 1.60156 109.925 22.1556 109.925 47.5076Z" fill="#B6CFEA"/>
<path d="M108.227 47.5078C108.227 71.9258 88.4336 91.7178 64.0156 91.7178C39.6016 91.7178 19.8086 71.9258 19.8086 47.5078C19.8086 23.0938 39.6016 3.2998 64.0156 3.2998C88.4336 3.2998 108.226 23.0928 108.226 47.5068L108.227 47.5078Z" fill="#E6F5F8"/>
<path d="M100.148 48.3596C100.148 68.3156 83.9728 84.4916 64.0158 84.4916C44.0618 84.4916 27.8828 68.3156 27.8828 48.3586C27.8828 28.4056 44.0628 12.2266 64.0158 12.2266C83.9728 12.2266 100.148 28.4076 100.148 48.3596Z" fill="#D0E8F0"/>
<path d="M42.7624 65.3633C42.7624 65.3633 45.7384 113.398 45.7384 114.25C45.7384 114.672 46.1644 115.523 44.0354 116.375C41.9104 117.223 35.1094 118.925 35.1094 118.925H45.3124C49.9884 118.925 49.9884 115.098 49.9884 114.25C49.9884 113.398 51.2624 95.1213 51.2624 95.1213C51.2624 95.1213 51.6874 116.801 51.6874 117.648C51.6874 118.5 51.2624 119.773 48.2894 120.625C46.1644 121.051 39.7854 122.325 39.7854 122.325H49.5634C55.5164 122.325 55.5164 118.5 55.5164 118.5L56.7894 99.3713C56.7894 99.3713 57.2154 118.5 57.2154 120.625C57.2154 122.325 55.9414 123.602 51.2624 124.449C48.2894 125.301 44.4614 126.152 44.4614 126.152H55.5164C61.0394 125.727 61.8914 121.898 61.8914 121.898L71.2424 74.2893L42.7624 65.3633Z" fill="#EE794B"/>
<path d="M85.2705 65.3635C85.2705 65.3635 82.2975 113.398 82.2975 114.25C82.2975 114.672 81.8715 115.523 83.9975 116.375C86.1215 117.223 92.9225 118.925 92.9225 118.925H82.7195C78.0435 118.925 78.0435 115.098 78.0435 114.25C78.0435 113.398 76.7705 95.1215 76.7705 95.1215C76.7705 95.1215 76.3445 116.801 76.3445 117.648C76.3445 118.5 76.7705 119.773 79.7465 120.625L88.2465 122.325H78.4705C72.5205 122.325 72.5205 118.5 72.5205 118.5L71.2435 99.3715C71.2435 99.3715 70.8175 118.5 70.8175 120.625C70.8175 122.325 72.0955 123.602 76.7715 124.449C79.7475 125.301 83.5715 126.152 83.5715 126.152H72.5205C66.9925 125.727 66.1405 121.898 66.1405 121.898L56.7905 74.2905L85.2705 65.3635ZM85.6955 41.9845C85.6955 53.8875 75.9185 63.2385 64.4415 63.2385C52.9655 63.2385 43.1875 53.4615 43.1875 41.9845C43.1875 30.5085 52.9655 20.7305 64.4415 20.7305C75.9185 20.7305 85.6955 30.0825 85.6955 41.9845Z" fill="#EE794B"/>
<mask id="mask0_1145_1828" style="mask-type:luminance" maskUnits="userSpaceOnUse" x="42" y="41" width="44" height="51">
<path d="M42 41H86V92H42V41Z" fill="white"/>
</mask>
<g mask="url(#mask0_1145_1828)">
<mask id="mask1_1145_1828" style="mask-type:luminance" maskUnits="userSpaceOnUse" x="42" y="41" width="44" height="59">
<path d="M85.6947 41.1328L83.1447 99.3708H44.8867L42.7617 41.1328" fill="white"/>
</mask>
<g mask="url(#mask1_1145_1828)">
<path d="M102.273 53.4599C102.273 74.3549 85.3364 91.2929 64.4414 91.2929C43.5474 91.2929 26.6094 74.3549 26.6094 53.4609C26.6094 32.5659 43.5474 15.6289 64.4414 15.6289C85.3364 15.6289 102.273 32.5649 102.273 53.4599Z" fill="#EE794B"/>
</g>
</g>
<mask id="mask2_1145_1828" style="mask-type:luminance" maskUnits="userSpaceOnUse" x="0" y="0" width="128" height="128">
<path d="M0 0H128V128H0V0Z" fill="black" fill-opacity="0.22"/>
</mask>
<g mask="url(#mask2_1145_1828)">
<mask id="mask3_1145_1828" style="mask-type:luminance" maskUnits="userSpaceOnUse" x="0" y="0" width="128" height="128">
<path d="M0 0H128V128H0V0Z" fill="white"/>
</mask>
<g mask="url(#mask3_1145_1828)">
<path d="M84.4224 65.3626C84.4224 65.3626 86.9724 42.8316 83.5704 34.3316C77.1954 19.4526 62.3164 20.7296 62.3164 20.7296C62.3164 20.7296 70.8164 24.1286 71.2424 36.8826C71.6684 45.8086 71.2424 58.9876 71.2424 58.9876L84.4224 65.3626Z" fill="#E34E3B"/>
</g>
</g>
<mask id="mask4_1145_1828" style="mask-type:luminance" maskUnits="userSpaceOnUse" x="0" y="0" width="128" height="128">
<path d="M0 0H128V128H0V0Z" fill="black" fill-opacity="0.502"/>
</mask>
<g mask="url(#mask4_1145_1828)">
<mask id="mask5_1145_1828" style="mask-type:luminance" maskUnits="userSpaceOnUse" x="0" y="0" width="128" height="128">
<path d="M0 0H128V128H0V0Z" fill="white"/>
</mask>
<g mask="url(#mask5_1145_1828)">
<path d="M58.4871 30.5077C58.4869 30.8983 58.4097 31.285 58.2601 31.6457C58.1105 32.0065 57.8912 32.3342 57.6149 32.6102C57.3386 32.8862 57.0107 33.1051 56.6498 33.2544C56.2889 33.4037 55.9021 33.4804 55.5116 33.4802C55.121 33.48 54.7343 33.4029 54.3736 33.2533C54.0128 33.1036 53.6851 32.8844 53.4091 32.6081C53.133 32.3318 52.9141 32.0038 52.7649 31.6429C52.6156 31.282 52.5389 30.8953 52.5391 30.5047C52.5395 29.716 52.8532 28.9597 53.4112 28.4022C53.9692 27.8448 54.7258 27.5318 55.5146 27.5322C56.3033 27.5326 57.0596 27.8463 57.6171 28.4044C58.1745 28.9624 58.4875 29.719 58.4871 30.5077Z" fill="#FBDFC3"/>
</g>
</g>
<path d="M71.6683 73.8626C71.6683 81.0896 68.2663 85.7696 64.0163 85.7696C59.7663 85.7696 56.3633 80.2416 56.3633 73.0156C56.3633 73.0156 59.7663 79.8156 64.4413 79.8156C69.1173 79.8156 71.6683 73.8626 71.6683 73.8626Z" fill="#010101"/>
<path d="M71.6681 73.8634C71.6681 78.5434 68.2661 81.0904 64.0161 81.0904C59.7661 81.0904 56.7891 77.6914 56.7891 73.4414C56.7891 73.4414 60.1911 77.6914 64.8671 77.6914C69.5431 77.6914 71.6681 73.8634 71.6681 73.8634Z" fill="white"/>
<path d="M92.0699 53.887C92.0699 61.164 86.1719 67.062 78.8949 67.062C71.6169 67.062 65.7149 61.164 65.7149 53.887C65.7149 46.609 71.6169 40.707 78.8949 40.707C86.1719 40.707 92.0699 46.609 92.0699 53.887ZM62.3159 53.887C62.3159 61.164 56.4139 67.062 49.1359 67.062C41.8589 67.062 35.9609 61.164 35.9609 53.887C35.9609 46.609 41.8589 40.707 49.1369 40.707C56.4139 40.707 62.3159 46.609 62.3159 53.887Z" fill="#E9654B"/>
<path d="M89.0979 53.8866C89.0979 59.5196 84.5279 64.0896 78.8949 64.0896C73.2619 64.0896 68.6909 59.5196 68.6909 53.8866C68.6909 48.2496 73.2609 43.6836 78.8949 43.6836C84.5269 43.6836 89.0979 48.2496 89.0979 53.8866ZM58.4879 53.8866C58.4879 59.5196 53.9219 64.0896 48.2889 64.0896C42.6519 64.0896 38.0859 59.5196 38.0859 53.8866C38.0857 52.5466 38.3494 51.2198 38.8621 49.9818C39.3747 48.7438 40.1263 47.6189 41.0737 46.6714C42.0212 45.7239 43.1461 44.9724 44.3841 44.4597C45.6221 43.9471 46.949 43.6833 48.2889 43.6836C53.9219 43.6836 58.4879 48.2496 58.4879 53.8866Z" fill="white"/>
<path d="M51.2625 52.6097C51.2627 53.0004 51.1859 53.3873 51.0366 53.7483C50.8873 54.1094 50.6683 54.4374 50.3922 54.7138C50.1161 54.9902 49.7882 55.2095 49.4274 55.3592C49.0665 55.5089 48.6797 55.586 48.289 55.5862C47.8983 55.5864 47.5114 55.5097 47.1504 55.3604C46.7894 55.211 46.4613 54.9921 46.1849 54.7159C45.9085 54.4398 45.6892 54.112 45.5395 53.7511C45.3898 53.3902 45.3127 53.0034 45.3125 52.6127C45.312 51.8237 45.6249 51.0668 46.1824 50.5085C46.74 49.9502 47.4965 49.6363 48.2855 49.6357C49.0745 49.6352 49.8314 49.9481 50.3897 50.5057C50.948 51.0632 51.262 51.8207 51.2625 52.6097ZM81.8715 52.6097C81.8788 53.0051 81.8073 53.3979 81.6611 53.7653C81.5148 54.1327 81.2969 54.4672 81.0199 54.7494C80.7429 55.0316 80.4125 55.2558 80.0479 55.4088C79.6833 55.5619 79.2919 55.6407 78.8965 55.6408C78.5011 55.6409 78.1096 55.5621 77.745 55.4092C77.3804 55.2563 77.0499 55.0322 76.7728 54.7501C76.4957 54.468 76.2777 54.1335 76.1313 53.7662C75.985 53.3989 75.9133 53.0061 75.9205 52.6107C75.9345 51.831 76.2541 51.088 76.8103 50.5414C77.3666 49.9949 78.1152 49.6885 78.895 49.6883C79.6749 49.688 80.4236 49.9939 80.9803 50.54C81.5369 51.0862 81.8569 51.83 81.8715 52.6097Z" fill="#010101"/>
<path d="M17.2578 58.9884C16.9742 59.0059 16.6901 58.963 16.4243 58.8624C16.1585 58.7618 15.9172 58.6059 15.7162 58.4049C15.5153 58.204 15.3594 57.9626 15.2588 57.6969C15.1582 57.4311 15.1153 57.147 15.1328 56.8634V39.8604C15.1151 39.5766 15.1578 39.2924 15.2581 39.0264C15.3584 38.7604 15.5141 38.5187 15.7148 38.3174C15.9162 38.1167 16.1578 37.961 16.4238 37.8607C16.6898 37.7603 16.9741 37.7176 17.2578 37.7354C17.5414 37.7178 17.8256 37.7608 18.0913 37.8613C18.3571 37.9619 18.5985 38.1178 18.7994 38.3188C19.0003 38.5197 19.1563 38.7611 19.2568 39.0268C19.3574 39.2926 19.4004 39.5767 19.3828 39.8604V56.8644C19.4178 57.4344 19.2028 57.9974 18.7968 58.4044C18.5961 58.6052 18.355 58.7612 18.0896 58.8621C17.8241 58.9629 17.5403 59.0063 17.2568 58.9894L17.2578 58.9884ZM109.926 58.9884C109.642 59.0055 109.358 58.9621 109.093 58.861C108.827 58.76 108.586 58.6037 108.386 58.4024C108.185 58.2017 108.029 57.9609 107.928 57.6956C107.828 57.4303 107.784 57.1467 107.801 56.8634V39.8604C107.784 39.5764 107.827 39.292 107.928 39.026C108.029 38.76 108.186 38.5185 108.387 38.3174C108.587 38.1168 108.828 37.9611 109.094 37.8608C109.359 37.7604 109.643 37.7177 109.926 37.7354C110.209 37.7177 110.493 37.7604 110.758 37.8608C111.023 37.9611 111.264 38.1168 111.465 38.3174C111.875 38.7244 112.085 39.2874 112.051 39.8604V56.8644C112.069 57.148 112.025 57.4321 111.924 57.6977C111.823 57.9633 111.667 58.2042 111.465 58.4044C111.264 58.6055 111.023 58.7617 110.758 58.8625C110.492 58.9634 110.208 59.0066 109.925 58.9894L109.926 58.9884Z" fill="#B6CFEA"/>
<path d="M51.6882 13.5039C51.6882 14.0675 51.4644 14.608 51.0658 15.0065C50.6673 15.405 50.1268 15.6289 49.5632 15.6289C48.9997 15.6289 48.4592 15.405 48.0606 15.0065C47.6621 14.608 47.4382 14.0675 47.4382 13.5039C47.4382 12.9403 47.6621 12.3998 48.0606 12.0013C48.4592 11.6028 48.9997 11.3789 49.5632 11.3789C50.1268 11.3789 50.6673 11.6028 51.0658 12.0013C51.4644 12.3998 51.6882 12.9403 51.6882 13.5039ZM34.2622 70.8899C34.031 70.9191 33.7962 70.8961 33.575 70.8225C33.3538 70.749 33.152 70.6268 32.9842 70.4649C27.8832 64.0899 25.3322 56.0119 25.3322 47.9339C25.3095 41.218 27.0701 34.6165 30.4342 28.8039C33.8445 23.2713 38.5024 18.6137 44.0352 15.2039C44.3904 15.0446 44.7864 15 45.1681 15.0761C45.5499 15.1523 45.8984 15.3455 46.1652 15.6289C46.323 15.9837 46.3666 16.3787 46.2901 16.7594C46.2136 17.1401 46.0208 17.4876 45.7382 17.7539C40.4649 20.7333 36.0744 25.0556 33.013 30.2817C29.9516 35.5078 28.3283 41.4512 28.3082 47.5079C28.2964 55.0686 30.8436 62.4109 35.5352 68.3399C35.9612 68.7659 35.9613 70.0399 35.1093 70.4649C34.6843 70.8909 34.6842 70.8899 34.2622 70.8899Z" fill="white"/>
<mask id="mask6_1145_1828" style="mask-type:luminance" maskUnits="userSpaceOnUse" x="0" y="0" width="128" height="128">
<path d="M0 0H128V128H0V0Z" fill="black" fill-opacity="0.251"/>
</mask>
<g mask="url(#mask6_1145_1828)">
<mask id="mask7_1145_1828" style="mask-type:luminance" maskUnits="userSpaceOnUse" x="0" y="0" width="128" height="128">
<path d="M0 0H128V128H0V0Z" fill="white"/>
</mask>
<g mask="url(#mask7_1145_1828)">
<path d="M83.1453 90.8667V87.4697C77.1953 90.8677 70.8163 94.2697 63.1683 94.2697C54.6643 94.2697 49.1373 90.4457 43.6133 87.4697L44.0353 90.8677C44.0353 90.8677 50.4153 97.6727 63.5903 97.6727C75.9183 97.2467 83.1453 90.8667 83.1453 90.8667Z" fill="#E9654B"/>
</g>
</g>
<path d="M54.3752 109.787C66.8777 110.087 77.8118 116.664 84.1002 126.532C84.6767 127.433 85.6646 127.954 86.6914 127.954C86.9715 127.954 87.256 127.914 87.5327 127.835C88.8401 127.46 89.7487 126.275 89.7645 124.916C89.7645 124.794 89.7645 124.671 89.7645 124.549C89.7645 104.818 73.9956 88.8006 54.3798 88.3303V82.595C54.3798 81.2596 53.6411 80.039 52.4641 79.4151C51.9389 79.1381 51.3619 79 50.789 79C50.0742 79 49.3671 79.214 48.7587 79.6283L24.3984 96.3015C23.5257 96.8982 23.0044 97.8856 23 98.944C22.9959 99.9988 23.5138 100.991 24.3828 101.595L48.739 118.482C49.3513 118.908 50.0664 119.121 50.7849 119.121C51.3575 119.121 51.9267 118.987 52.4521 118.714C53.6326 118.094 54.3752 116.866 54.3752 115.531V109.787Z" fill="#22C55E"/>
<path d="M54.3752 106.787C66.8777 107.087 77.8118 113.664 84.1002 123.532C84.6767 124.433 85.6646 124.954 86.6914 124.954C86.9715 124.954 87.256 124.914 87.5327 124.835C88.8401 124.46 89.7487 123.275 89.7645 121.916C89.7645 121.794 89.7645 121.671 89.7645 121.549C89.7645 101.818 73.9956 85.8006 54.3798 85.3303V79.595C54.3798 78.2596 53.6411 77.039 52.4641 76.4151C51.9389 76.1381 51.3619 76 50.789 76C50.0742 76 49.3671 76.214 48.7587 76.6283L24.3984 93.3015C23.5257 93.8982 23.0044 94.8856 23 95.944C22.9959 96.9988 23.5138 97.9909 24.3828 98.5948L48.739 115.482C49.3513 115.908 50.0664 116.121 50.7849 116.121C51.3575 116.121 51.9267 115.987 52.4521 115.714C53.6326 115.094 54.3752 113.866 54.3752 112.531V106.787Z" fill="#1DA24E"/>
</g>
<defs>
<clipPath id="clip0_1145_1828">
<rect width="128" height="128" fill="white"/>
</clipPath>
</defs>
</svg>
