<?xml version="1.0" encoding="utf-8"?>
<!-- Generator: Adobe Illustrator 23.0.1, SVG Export Plug-In . SVG Version: 6.00 Build 0)  -->
<svg version="1.1" xmlns="http://www.w3.org/2000/svg" xmlns:xlink="http://www.w3.org/1999/xlink" x="0px" y="0px"
	 viewBox="0 0 51.1 49.6" style="enable-background:new 0 0 51.1 49.6;" xml:space="preserve">
<style type="text/css">
	.st0{display:none;}
	.st1{display:inline;fill:#CCCCCC;}
	.st2{fill:#FFFFFF;}
	.st3{fill:none;stroke:#FFFFFF;stroke-miterlimit:10;}
	.st4{fill:none;stroke:#FFFFFF;stroke-width:1.5;stroke-miterlimit:10;}
	.st5{fill:none;stroke:#FFFFFF;stroke-linecap:round;stroke-miterlimit:10;}
</style>
<g id="Layer_2" class="st0">
	<rect y="0.7" class="st1" width="51.1" height="49"/>
</g>
<g id="svg13826" xmlns:cc="http://creativecommons.org/ns#" xmlns:dc="http://purl.org/dc/elements/1.1/" xmlns:inkscape="http://www.inkscape.org/namespaces/inkscape" xmlns:rdf="http://www.w3.org/1999/02/22-rdf-syntax-ns#" xmlns:sodipodi="http://sodipodi.sourceforge.net/DTD/sodipodi-0.dtd" xmlns:svg="http://www.w3.org/2000/svg">
	
		<sodipodi:namedview  bordercolor="#666666" borderopacity="1.0" fit-margin-bottom="0" fit-margin-left="0" fit-margin-right="0" fit-margin-top="0" id="base" inkscape:current-layer="layer1" inkscape:cx="16.847496" inkscape:cy="33.752239" inkscape:document-units="mm" inkscape:pageopacity="0.0" inkscape:pageshadow="2" inkscape:window-height="771" inkscape:window-maximized="0" inkscape:window-width="1440" inkscape:window-x="1" inkscape:window-y="0" inkscape:zoom="8" pagecolor="#ffffff" showgrid="false">
		</sodipodi:namedview>
	<path id="path3054-2-9" inkscape:connector-curvature="0" class="st2" d="M25.4,0c-0.5,0-0.9,0.1-1.3,0.3L6.3,8.9
		c-0.9,0.4-1.6,1.3-1.8,2.3L0.2,30.3c-0.2,0.9,0,1.8,0.5,2.5c0.1,0.1,0.1,0.2,0.2,0.3l12.3,15.3c0.6,0.8,1.6,1.2,2.6,1.2h19.7
		c1,0,2-0.5,2.6-1.2L50.4,33c0.6-0.8,0.9-1.8,0.6-2.8l-4.4-19.1c-0.2-1-0.9-1.8-1.8-2.3L27.1,0.3C26.5,0,25.9-0.1,25.4,0z M25.4,1.4
		c0.5,0,1.1,0.1,1.5,0.3l16.8,8c0.9,0.4,1.5,1.2,1.7,2.1l4.2,18.1c0.2,0.9,0,1.9-0.6,2.7L37.4,47.1c-0.6,0.7-1.5,1.2-2.5,1.2H16.2
		c-1,0-1.9-0.4-2.5-1.2L2,32.6c-0.1-0.1-0.1-0.2-0.2-0.3c-0.5-0.7-0.6-1.6-0.4-2.4l4.2-18.1c0.2-0.9,0.8-1.7,1.7-2.1l16.9-8
		C24.5,1.5,24.9,1.4,25.4,1.4L25.4,1.4z"/>
	<g>
		<path class="st2" d="M25.6,18.8c2.9-0.2,6,2.5,6.1,5.9c0,2.9-2.4,6-5.7,6.2c-3.9,0.2-6.3-2.8-6.4-5.9
			C19.5,21.6,22.2,18.7,25.6,18.8z M25.6,20.1C23.3,20,21,22,20.9,24.6c0,2.7,1.9,4.9,4.6,4.9c2.2,0,4.7-1.8,4.7-4.7
			C30.3,22.2,28.2,20.1,25.6,20.1z"/>
		<path class="st2" d="M31.6,15.3c0,0.8,0,1.6,0,2.3c0,0.5,0.1,0.9,0.5,1.2c0.4,0.3,0.4,0.3,0.8,0.1c0.5-0.3,0.9-0.5,1.4-0.8
			c-0.1-0.2-0.2-0.5-0.2-0.8c-0.2-1,0.2-1.8,1-2.3s1.9-0.5,2.6,0c0.8,0.5,1.1,1.5,0.9,2.5c-0.2,0.9-0.9,1.6-1.8,1.8
			c-0.5,0.1-1,0.1-1.5-0.1c-0.1,0-0.3,0-0.4,0c-0.8,0.5-1.5,0.9-2.3,1.4c-0.4,0.3-0.9,0.2-1.2-0.2c-0.4-0.5-0.9-0.9-1.3-1.4
			C30,18.9,30,18.7,30,18.6c0-1.1,0-2.1,0-3.2c0-0.3-0.1-0.4-0.3-0.6c-1.1-0.9-1.2-2.4-0.4-3.5c0.6-0.8,1.8-1,2.7-0.7
			c1,0.3,1.6,1.2,1.6,2.2C33.7,14.1,33,14.9,31.6,15.3z M32.3,12.9c0-0.6-0.5-1-1-1s-1,0.5-1,1c0,0.6,0.4,1.1,1,1.1
			C31.9,13.9,32.3,13.5,32.3,12.9z M37.3,16.9c0-0.5-0.5-1-1-1s-0.9,0.5-0.9,1s0.4,0.9,0.9,0.9C36.9,17.9,37.3,17.4,37.3,16.9z"/>
		<path class="st2" d="M32.5,30.4c-0.1,0.2-0.2,0.3-0.4,0.4c-0.5,0.4-0.6,0.9-0.6,1.5c0.1,0.7,0,1.3,0,2c0.1,0,0.3,0.1,0.4,0.1
			c1.2,0.3,1.9,1.3,1.7,2.5c-0.2,1.3-1.2,2.1-2.4,2.1c-1.1,0-2-0.6-2.4-1.6c-0.3-0.9,0-2.1,0.9-2.7c0.1-0.1,0.2-0.2,0.2-0.4
			c0-1.1,0-2.1,0-3.2c0-0.3,0.1-0.5,0.3-0.6c0.4-0.4,0.8-0.9,1.1-1.3c0.3-0.3,0.7-0.5,1.2-0.3s1,0.5,1.6,0.8
			c0.1,0.1,0.2,0.1,0.3,0.2c0.4,0.3,0.7,0.3,1.2,0.1c0.9-0.4,1.7-0.1,2.4,0.6s0.8,1.6,0.5,2.5c-0.4,1.1-1.6,1.7-2.7,1.5
			c-1.1-0.3-1.9-1.4-1.7-2.6c0-0.1,0-0.1,0-0.2c0.2-0.5-0.1-0.7-0.5-0.9C33.3,30.8,32.9,30.6,32.5,30.4z M32.3,36.8
			c0-0.6-0.4-1.1-1-1.1c-0.5,0-1,0.5-1.1,1c0,0.5,0.5,1.1,1,1.1C31.8,37.8,32.3,37.4,32.3,36.8z M36.3,31.3c-0.4,0-0.9,0.4-0.9,0.9
			c0,0.5,0.4,1,0.9,1s1-0.5,1-1S36.8,31.3,36.3,31.3z"/>
		<path class="st2" d="M18.8,30.4c-0.6,0.3-1.1,0.6-1.7,0.9c-0.2,0.1-0.1,0.3-0.1,0.4c0.2,0.8,0,1.6-0.6,2.2c-0.9,1-2.5,1.1-3.5,0
			c-0.3-0.3-0.3-0.6-0.3-0.9c0-0.8,0.3-1.6,1-2.1c0.2-0.1,0.3-0.4,0.4-0.6c0.1-0.2,0.2-0.2,0.3-0.2c0.5,0,0.9,0,1.4,0.3
			c0.2,0.1,0.4,0.1,0.6,0c0.7-0.4,1.4-0.8,2-1.1c0.6-0.3,0.9-0.2,1.4,0.3c0.3,0.4,0.7,0.8,1.1,1.2c0.1,0.2,0.3,0.4,0.3,0.6
			c0,1,0,2.1,0,3.1c0,0.1,0.1,0.3,0.2,0.3c0.9,0.5,1.3,1.2,1.2,2.2c-0.1,1-0.6,1.8-1.6,2.1c-1.1,0.4-2.2,0.1-2.8-0.9
			c-0.6-0.9-0.6-2.1,0.1-2.9c0.3-0.4,0.7-0.6,1.2-0.7c0.2,0,0.4-0.1,0.3-0.4c0-0.9,0-1.7,0-2.6c0-0.1,0-0.2-0.1-0.2
			C19.4,31,19.1,30.7,18.8,30.4z M20.1,35.7c-0.6,0-1.1,0.5-1.1,1.1s0.5,1,1,1c0.6,0,1.1-0.4,1.1-1.1C21.1,36.1,20.7,35.7,20.1,35.7
			z M14.7,33.3c0.6,0,1-0.4,1-1c0-0.5-0.5-1-1-1c-0.6,0-1,0.5-1,1C13.7,32.9,14.1,33.3,14.7,33.3z"/>
		<path class="st2" d="M14.9,14.6c1.5,0.1,2.5,1.4,2.1,3c-0.1,0.6-0.1,0.6,0.4,0.8c0.4,0.2,0.8,0.4,1.2,0.7c0.2,0.1,0.3,0.1,0.4-0.1
			c0.2-0.2,0.4-0.4,0.7-0.7c0.1-0.1,0.1-0.1,0.1-0.2c0-0.9,0-1.7,0-2.6c0-0.2-0.1-0.3-0.3-0.4c-1.4-0.3-2.1-2.1-1.4-3.4
			c0.4-0.8,1.4-1.3,2.4-1.3c1.1,0.1,1.9,0.7,2.1,1.7s0,2.2-1.1,2.8c-0.2,0.1-0.2,0.2-0.2,0.4c0,1,0,2.1,0,3.1c0,0.3-0.1,0.4-0.3,0.6
			c-0.4,0.4-0.8,0.8-1.2,1.2c-0.5,0.5-0.8,0.6-1.4,0.2c-0.8-0.5-1.6-0.9-2.3-1.4c-0.1,0-0.2,0-0.3,0c-0.5,0.2-1,0.2-1.5,0.1
			c-0.3-0.1-0.7-0.2-0.9-0.5c-0.2-0.2-0.3-0.5-0.3-0.8s0-0.6,0.1-0.8c0.1-0.4,0.3-0.7,0.5-1c0.3-0.4,0.5-0.8,0.9-1.2
			C14.4,14.7,14.6,14.7,14.9,14.6C14.8,14.6,14.8,14.6,14.9,14.6z M20.1,11.8c-0.6,0-1,0.5-1,1.1s0.5,1.1,1,1.1c0.6,0,1-0.5,1-1.1
			S20.7,11.8,20.1,11.8z M15.7,16.9c0-0.6-0.4-1-1-1c-0.7,0-1,0.5-1,1.1c0,0.5,0.5,1,1,1S15.7,17.5,15.7,16.9z"/>
		<path class="st2" d="M25.6,32.2c0.4,0,0.9,0,1.3,0s0.7,0.3,0.7,0.7s-0.3,0.7-0.7,0.7c-0.9,0-1.8,0-2.8,0c-0.4,0-0.6-0.3-0.6-0.7
			s0.3-0.6,0.7-0.6C24.6,32.2,25.1,32.2,25.6,32.2L25.6,32.2z"/>
		<path class="st2" d="M25.5,17.5c-0.4,0-0.8,0-1.2,0c-0.5,0-0.8-0.3-0.8-0.6c0-0.4,0.3-0.7,0.8-0.8c0.8,0,1.6,0,2.5,0
			c0.4,0,0.8,0.4,0.8,0.8s-0.3,0.6-0.8,0.6c-0.2,0-0.4,0-0.6,0C25.9,17.5,25.7,17.5,25.5,17.5L25.5,17.5z"/>
		<path class="st2" d="M17.6,24.9c0,0.4,0,0.8,0,1.2c0,0.4-0.2,0.6-0.6,0.6c-0.3,0.1-0.6-0.1-0.7-0.4c0-0.1-0.1-0.1-0.1-0.2
			c0-0.8,0-1.7,0-2.5c0-0.4,0.4-0.6,0.7-0.6c0.4,0,0.6,0.3,0.7,0.7C17.6,24.1,17.6,24.5,17.6,24.9L17.6,24.9z"/>
		<path class="st2" d="M33.5,24.8c0-0.4,0-0.7,0-1.1c0-0.5,0.3-0.7,0.7-0.7s0.7,0.2,0.7,0.7c0,0.8,0,1.5,0,2.3
			c0,0.5-0.3,0.8-0.7,0.7c-0.4,0-0.6-0.4-0.6-0.8C33.5,25.5,33.5,25.2,33.5,24.8L33.5,24.8z"/>
		<path class="st2" d="M25.7,12.2c0.6,0,1,0.3,1,0.8s-0.4,0.9-0.9,0.9c-0.6,0-1-0.4-1-0.9C24.8,12.5,25.1,12.2,25.7,12.2z"/>
		<path class="st2" d="M25.9,37.5c-0.2,0-0.3,0-0.5,0c-0.4-0.1-0.6-0.3-0.7-0.7c0-0.4,0.2-0.7,0.5-0.8c0.2-0.1,0.5-0.1,0.8-0.1
			c0.5,0.1,0.7,0.4,0.7,0.8C26.7,37.2,26.3,37.5,25.9,37.5z"/>
		<path class="st2" d="M38.6,24.8c0,0.6-0.3,0.9-0.8,0.9s-0.9-0.4-0.9-1c0-0.5,0.4-1,0.8-1C38.2,23.8,38.6,24.3,38.6,24.8z"/>
		<path class="st2" d="M14.1,24.9c0,0.5-0.4,0.9-0.9,0.9c-0.6,0-0.8-0.6-0.7-1c0-0.5,0.4-0.9,0.8-0.8C13.7,23.9,14.1,24.3,14.1,24.9
			z"/>
		<path class="st2" d="M12,28.4c0-0.6,0.4-1,0.9-1c0.4,0,0.7,0.3,0.7,0.7c0,0.6-0.4,1.1-0.9,1.1C12.3,29.2,12,28.9,12,28.4z"/>
		<path class="st2" d="M12.8,22.2c-0.5,0-0.9-0.3-0.9-0.9c0-0.5,0.3-0.8,0.7-0.8c0.5,0,0.9,0.4,0.9,1C13.6,21.9,13.3,22.2,12.8,22.2
			z"/>
		<path class="st2" d="M39.2,28.4c0,0.5-0.3,0.8-0.7,0.8c-0.5,0-0.9-0.5-0.9-1.1c0-0.5,0.3-0.8,0.7-0.8
			C38.8,27.4,39.2,27.8,39.2,28.4z"/>
		<path class="st2" d="M37.5,21.4c0-0.6,0.4-0.9,0.9-0.9c0.4,0,0.8,0.4,0.7,0.9c0,0.5-0.4,0.9-0.9,0.9
			C37.8,22.3,37.5,21.9,37.5,21.4z"/>
		<path class="st2" d="M22.2,24.7c0-1.8,1.5-3.4,3.5-3.4c1.9,0,3.4,1.7,3.4,3.4c0,1.9-1.5,3.5-3.4,3.5
			C23.8,28.2,22.2,26.8,22.2,24.7z M23.5,24.8c-0.1,0.9,0.7,2,2.1,2.1c1.2,0,2.1-0.9,2.2-2.1c0-1.1-0.9-2.1-2.1-2.1
			C24.4,22.6,23.5,23.5,23.5,24.8z"/>
	</g>
	<circle class="st3" cx="14.7" cy="16.8" r="2.1"/>
	<circle class="st3" cx="14.7" cy="16.8" r="1.6"/>
	<circle class="st4" cx="14.7" cy="32.2" r="1.8"/>
	<polyline class="st5" points="31.4,31.5 32.8,30 34.2,31.1 	"/>
</g>
</svg>
