<?xml version="1.0" encoding="utf-8"?>
<!-- Generator: Adobe Illustrator 23.0.1, SVG Export Plug-In . SVG Version: 6.00 Build 0)  -->
<svg version="1.1"
	 id="svg13826" xmlns:cc="http://creativecommons.org/ns#" xmlns:dc="http://purl.org/dc/elements/1.1/" xmlns:inkscape="http://www.inkscape.org/namespaces/inkscape" xmlns:rdf="http://www.w3.org/1999/02/22-rdf-syntax-ns#" xmlns:sodipodi="http://sodipodi.sourceforge.net/DTD/sodipodi-0.dtd" xmlns:svg="http://www.w3.org/2000/svg"
	 xmlns="http://www.w3.org/2000/svg" xmlns:xlink="http://www.w3.org/1999/xlink" x="0px" y="0px" viewBox="0 0 51.1 49.6"
	 style="enable-background:new 0 0 51.1 49.6;" xml:space="preserve">
<style type="text/css">
	.st0{fill:#326CE5;}
	.st1{fill:#FFFFFF;}
	.st2{fill:none;stroke:#FFFFFF;stroke-miterlimit:10;}
	.st3{fill:none;stroke:#FFFFFF;stroke-width:1.128;stroke-miterlimit:10;}
	.st4{fill:none;stroke:#FFFFFF;stroke-width:1.0704;stroke-linecap:round;stroke-miterlimit:10;}
</style>
<sodipodi:namedview  bordercolor="#666666" borderopacity="1.0" fit-margin-bottom="0" fit-margin-left="0" fit-margin-right="0" fit-margin-top="0" id="base" inkscape:current-layer="layer1" inkscape:cx="16.847496" inkscape:cy="33.752239" inkscape:document-units="mm" inkscape:pageopacity="0.0" inkscape:pageshadow="2" inkscape:window-height="771" inkscape:window-maximized="0" inkscape:window-width="1440" inkscape:window-x="1" inkscape:window-y="0" inkscape:zoom="8" pagecolor="#ffffff" showgrid="false">
	</sodipodi:namedview>
<g id="g70" transform="matrix(1.0148887,0,0,1.0148887,16.902146,-2.698726)">
	
		<path id="path3055" inkscape:connector-curvature="0" inkscape:export-filename="new.png" inkscape:export-xdpi="250.55" inkscape:export-ydpi="250.55" class="st0" d="
		M8.4,4C7.9,4,7.5,4.1,7.2,4.3l-16.6,7.9c-0.9,0.4-1.5,1.2-1.7,2.1l-4.1,17.8c-0.2,0.8,0,1.7,0.4,2.4c0.1,0.1,0.1,0.2,0.2,0.3
		l11.5,14.3c0.6,0.7,1.5,1.2,2.5,1.2l18.4,0c1,0,1.9-0.4,2.5-1.2l11.5-14.3c0.6-0.7,0.8-1.7,0.6-2.7l-4.1-17.8
		c-0.2-0.9-0.8-1.7-1.7-2.1L9.9,4.3C9.4,4,8.9,3.9,8.4,4z"/>
	<path id="path3054-2-9" inkscape:connector-curvature="0" class="st1" d="M8.4,2.7C7.9,2.7,7.5,2.8,7.1,3l-17.5,8.4
		c-0.9,0.4-1.6,1.3-1.8,2.3l-4.3,18.8c-0.2,0.9,0,1.8,0.5,2.5c0.1,0.1,0.1,0.2,0.2,0.3l12.1,15.1c0.6,0.8,1.6,1.2,2.6,1.2l19.4,0
		c1,0,2-0.5,2.6-1.2L33,35.2c0.6-0.8,0.9-1.8,0.6-2.8l-4.3-18.8c-0.2-1-0.9-1.8-1.8-2.3L10,3C9.5,2.7,8.9,2.6,8.4,2.7z M8.4,4
		c0.5,0,1.1,0.1,1.5,0.3l16.6,7.9c0.9,0.4,1.5,1.2,1.7,2.1l4.1,17.8c0.2,0.9,0,1.9-0.6,2.7L20.2,49.1c-0.6,0.7-1.5,1.2-2.5,1.2
		l-18.4,0c-1,0-1.9-0.4-2.5-1.2l-11.5-14.3c-0.1-0.1-0.1-0.2-0.2-0.3c-0.5-0.7-0.6-1.6-0.4-2.4l4.1-17.8c0.2-0.9,0.8-1.7,1.7-2.1
		L7.2,4.3C7.5,4.1,7.9,4,8.4,4L8.4,4z"/>
</g>
<g>
	<g>
		<path class="st1" d="M25.9,16.1c2.9-0.2,6,2.5,6.1,5.9c0,2.9-2.4,6-5.7,6.2c-3.9,0.2-6.3-2.8-6.4-5.9C19.7,18.8,22.4,16,25.9,16.1
			z M25.8,17.4c-2.3-0.1-4.6,1.9-4.7,4.4c0,2.7,1.9,4.9,4.6,4.9c2.2,0,4.7-1.8,4.7-4.7C30.6,19.5,28.4,17.4,25.8,17.4z"/>
		<path class="st1" d="M31.8,12.5c0,0.8,0,1.6,0,2.3c0,0.5,0.1,0.9,0.5,1.2c0.4,0.3,0.4,0.3,0.8,0.1c0.5-0.3,0.9-0.5,1.4-0.8
			c-0.1-0.2-0.2-0.5-0.2-0.8c-0.2-1,0.2-1.8,1-2.3c0.8-0.5,1.9-0.5,2.6,0c0.8,0.5,1.1,1.5,0.9,2.5c-0.2,0.9-0.9,1.6-1.8,1.8
			c-0.5,0.1-1,0.1-1.5-0.1c-0.1,0-0.3,0-0.4,0c-0.8,0.5-1.5,0.9-2.3,1.4c-0.4,0.3-0.9,0.2-1.2-0.2c-0.4-0.5-0.9-0.9-1.3-1.4
			c-0.1-0.1-0.1-0.3-0.1-0.4c0-1.1,0-2.1,0-3.2c0-0.3-0.1-0.4-0.3-0.6c-1.1-0.9-1.2-2.4-0.4-3.5c0.6-0.8,1.8-1,2.7-0.7
			c1,0.3,1.6,1.2,1.6,2.2C33.9,11.4,33.2,12.2,31.8,12.5z M32.5,10.2c0-0.6-0.5-1-1-1c-0.5,0-1,0.5-1,1c0,0.6,0.4,1.1,1,1.1
			C32.1,11.2,32.5,10.7,32.5,10.2z M37.6,14.2c0-0.5-0.5-1-1-1c-0.5,0-0.9,0.5-0.9,1c0,0.5,0.4,0.9,0.9,0.9
			C37.1,15.1,37.6,14.7,37.6,14.2z"/>
		<path class="st1" d="M32.8,27.6c-0.1,0.2-0.2,0.3-0.4,0.4c-0.5,0.4-0.6,0.9-0.6,1.5c0.1,0.7,0,1.3,0,2c0.1,0,0.3,0.1,0.4,0.1
			c1.2,0.3,1.9,1.3,1.7,2.5c-0.2,1.3-1.2,2.1-2.4,2.1c-1.1,0-2-0.6-2.4-1.6c-0.3-0.9,0-2.1,0.9-2.7c0.1-0.1,0.2-0.2,0.2-0.4
			c0-1.1,0-2.1,0-3.2c0-0.3,0.1-0.5,0.3-0.6c0.4-0.4,0.8-0.9,1.1-1.3c0.3-0.3,0.7-0.5,1.2-0.3c0.5,0.2,1,0.5,1.6,0.8
			c0.1,0.1,0.2,0.1,0.3,0.2c0.4,0.3,0.7,0.3,1.2,0.1c0.9-0.4,1.7-0.1,2.4,0.6c0.7,0.7,0.8,1.6,0.5,2.5c-0.4,1.1-1.6,1.7-2.7,1.5
			c-1.1-0.3-1.9-1.4-1.7-2.6c0-0.1,0-0.1,0-0.2c0.2-0.5-0.1-0.7-0.5-0.9C33.5,28.1,33.1,27.8,32.8,27.6z M32.5,34
			c0-0.6-0.4-1.1-1-1.1c-0.5,0-1,0.5-1.1,1c0,0.5,0.5,1.1,1,1.1C32.1,35.1,32.5,34.6,32.5,34z M36.5,28.6c-0.4,0-0.9,0.4-0.9,0.9
			c0,0.5,0.4,1,0.9,1c0.5,0,1-0.5,1-1C37.5,29,37,28.6,36.5,28.6z"/>
		<path class="st1" d="M19,27.6c-0.6,0.3-1.1,0.6-1.7,0.9c-0.2,0.1-0.1,0.3-0.1,0.4c0.2,0.8,0,1.6-0.6,2.2c-0.9,1-2.5,1.1-3.5,0
			c-0.3-0.3-0.3-0.6-0.3-0.9c0-0.8,0.3-1.6,1-2.1c0.2-0.1,0.3-0.4,0.4-0.6c0.1-0.2,0.2-0.2,0.3-0.2c0.5,0,0.9,0,1.4,0.3
			c0.2,0.1,0.4,0.1,0.6,0c0.7-0.4,1.4-0.8,2-1.1c0.6-0.3,0.9-0.2,1.4,0.3c0.3,0.4,0.7,0.8,1.1,1.2c0.1,0.2,0.3,0.4,0.3,0.6
			c0,1,0,2.1,0,3.1c0,0.1,0.1,0.3,0.2,0.3c0.9,0.5,1.3,1.2,1.2,2.2c-0.1,1-0.6,1.8-1.6,2.1c-1.1,0.4-2.2,0.1-2.8-0.9
			c-0.6-0.9-0.6-2.1,0.1-2.9c0.3-0.4,0.7-0.6,1.2-0.7c0.2,0,0.4-0.1,0.3-0.4c0-0.9,0-1.7,0-2.6c0-0.1,0-0.2-0.1-0.2
			C19.6,28.2,19.3,28,19,27.6z M20.3,32.9c-0.6,0-1.1,0.5-1.1,1.1c0,0.6,0.5,1,1,1c0.6,0,1.1-0.4,1.1-1.1
			C21.4,33.4,20.9,32.9,20.3,32.9z M14.9,30.5c0.6,0,1-0.4,1-1c0-0.5-0.5-1-1-1c-0.6,0-1,0.5-1,1C13.9,30.1,14.3,30.6,14.9,30.5z"/>
		<path class="st1" d="M15.1,11.9c1.5,0.1,2.5,1.4,2.1,3c-0.1,0.6-0.1,0.6,0.4,0.8c0.4,0.2,0.8,0.4,1.2,0.7c0.2,0.1,0.3,0.1,0.4-0.1
			c0.2-0.2,0.4-0.4,0.7-0.7c0.1-0.1,0.1-0.1,0.1-0.2c0-0.9,0-1.7,0-2.6c0-0.2-0.1-0.3-0.3-0.4c-1.4-0.3-2.1-2.1-1.4-3.4
			c0.4-0.8,1.4-1.3,2.4-1.3c1.1,0.1,1.9,0.7,2.1,1.7c0.2,1,0,2.2-1.1,2.8c-0.2,0.1-0.2,0.2-0.2,0.4c0,1,0,2.1,0,3.1
			c0,0.3-0.1,0.4-0.3,0.6c-0.4,0.4-0.8,0.8-1.2,1.2c-0.5,0.5-0.8,0.6-1.4,0.2c-0.8-0.5-1.6-0.9-2.3-1.4c-0.1,0-0.2,0-0.3,0
			c-0.5,0.2-1,0.2-1.5,0.1c-0.3-0.1-0.7-0.2-0.9-0.5c-0.2-0.2-0.3-0.5-0.3-0.8c0-0.3,0-0.6,0.1-0.8c0.1-0.4,0.3-0.7,0.5-1
			c0.3-0.4,0.5-0.8,0.9-1.2C14.6,12,14.9,11.9,15.1,11.9C15.1,11.9,15.1,11.9,15.1,11.9z M20.3,9.1c-0.6,0-1,0.5-1,1.1
			c0,0.6,0.5,1.1,1,1.1c0.6,0,1-0.5,1-1.1C21.3,9.5,20.9,9.1,20.3,9.1z M15.9,14.2c0-0.6-0.4-1-1-1c-0.7,0-1,0.5-1,1.1
			c0,0.5,0.5,1,1,1C15.4,15.3,15.9,14.8,15.9,14.2z"/>
		<path class="st1" d="M25.8,29.5c0.4,0,0.9,0,1.3,0c0.4,0,0.7,0.3,0.7,0.7c0,0.4-0.3,0.7-0.7,0.7c-0.9,0-1.8,0-2.8,0
			c-0.4,0-0.6-0.3-0.6-0.7c0-0.4,0.3-0.6,0.7-0.6C24.9,29.5,25.3,29.5,25.8,29.5C25.8,29.5,25.8,29.5,25.8,29.5z"/>
		<path class="st1" d="M25.8,14.8c-0.4,0-0.8,0-1.2,0c-0.5,0-0.8-0.3-0.8-0.6c0-0.4,0.3-0.7,0.8-0.8c0.8,0,1.6,0,2.5,0
			c0.4,0,0.8,0.4,0.8,0.8c0,0.4-0.3,0.6-0.8,0.6c-0.2,0-0.4,0-0.6,0C26.2,14.8,26,14.8,25.8,14.8C25.8,14.8,25.8,14.8,25.8,14.8z"/>
		<path class="st1" d="M17.8,22.2c0,0.4,0,0.8,0,1.2c0,0.4-0.2,0.6-0.6,0.6c-0.3,0.1-0.6-0.1-0.7-0.4c0-0.1-0.1-0.1-0.1-0.2
			c0-0.8,0-1.7,0-2.5c0-0.4,0.4-0.6,0.7-0.6c0.4,0,0.6,0.3,0.7,0.7C17.8,21.4,17.8,21.8,17.8,22.2C17.8,22.2,17.8,22.2,17.8,22.2z"
			/>
		<path class="st1" d="M33.7,22.1c0-0.4,0-0.7,0-1.1c0-0.5,0.3-0.7,0.7-0.7c0.4,0,0.7,0.2,0.7,0.7c0,0.8,0,1.5,0,2.3
			c0,0.5-0.3,0.8-0.7,0.7c-0.4,0-0.6-0.4-0.6-0.8C33.7,22.8,33.7,22.4,33.7,22.1C33.7,22.1,33.7,22.1,33.7,22.1z"/>
		<path class="st1" d="M26,9.5c0.6,0,1,0.3,1,0.8c0,0.5-0.4,0.9-0.9,0.9c-0.6,0-1-0.4-1-0.9C25,9.8,25.3,9.5,26,9.5z"/>
		<path class="st1" d="M26.1,34.8c-0.2,0-0.3,0-0.5,0C25.3,34.7,25,34.4,25,34c0-0.4,0.2-0.7,0.5-0.8c0.2-0.1,0.5-0.1,0.8-0.1
			c0.5,0.1,0.7,0.4,0.7,0.8C26.9,34.4,26.5,34.8,26.1,34.8z"/>
		<path class="st1" d="M38.8,22.1c0,0.6-0.3,0.9-0.8,0.9c-0.5,0-0.9-0.4-0.9-1c0-0.5,0.4-1,0.8-1C38.5,21.1,38.8,21.5,38.8,22.1z"/>
		<path class="st1" d="M14.3,22.1c0,0.5-0.4,0.9-0.9,0.9c-0.6,0-0.8-0.6-0.7-1c0-0.5,0.4-0.9,0.8-0.8C14,21.2,14.3,21.6,14.3,22.1z"
			/>
		<path class="st1" d="M12.2,25.7c0-0.6,0.4-1,0.9-1c0.4,0,0.7,0.3,0.7,0.7c0,0.6-0.4,1.1-0.9,1.1C12.5,26.5,12.2,26.2,12.2,25.7z"
			/>
		<path class="st1" d="M13,19.5c-0.5,0-0.9-0.3-0.9-0.9c0-0.5,0.3-0.8,0.7-0.8c0.5,0,0.9,0.4,0.9,1C13.8,19.2,13.5,19.5,13,19.5z"/>
		<path class="st1" d="M39.4,25.7c0,0.5-0.3,0.8-0.7,0.8c-0.5,0-0.9-0.5-0.9-1.1c0-0.5,0.3-0.8,0.7-0.8C39,24.7,39.4,25.1,39.4,25.7
			z"/>
		<path class="st1" d="M37.7,18.7c0-0.6,0.4-0.9,0.9-0.9c0.4,0,0.8,0.4,0.7,0.9c0,0.5-0.4,0.9-0.9,0.9C38,19.5,37.7,19.2,37.7,18.7z
			"/>
		<path class="st1" d="M22.4,21.9c0-1.8,1.5-3.4,3.5-3.4c1.9,0,3.4,1.7,3.4,3.4c0,1.9-1.5,3.5-3.4,3.5
			C24.1,25.5,22.4,24.1,22.4,21.9z M23.7,22c-0.1,0.9,0.7,2,2.1,2.1c1.2,0,2.1-0.9,2.2-2.1c0-1.1-0.9-2.1-2.1-2.1
			C24.6,19.9,23.7,20.8,23.7,22z"/>
	</g>
	<circle class="st2" cx="14.9" cy="14.1" r="2.1"/>
	<circle class="st2" cx="14.9" cy="14.1" r="1.6"/>
	<circle class="st3" cx="14.9" cy="29.5" r="1.8"/>
</g>
<polyline class="st4" points="31.5,29 33,27.5 34.5,28.6 "/>
</svg>
