<svg width="50" height="50" viewBox="0 0 50 50" fill="none" xmlns="http://www.w3.org/2000/svg">
<path d="M21.5289 1.67158C23.7224 0.615245 26.2776 0.615247 28.4711 1.67158L41.0747 7.74118C43.2682 8.79751 44.8613 10.7952 45.4031 13.1688L48.5159 26.807C49.0577 29.1806 48.4891 31.6717 46.9711 33.5751L38.2491 44.5121C36.7312 46.4156 34.4291 47.5242 31.9945 47.5242H18.0055C15.5709 47.5242 13.2688 46.4156 11.7509 44.5121L3.02885 33.5751C1.51091 31.6717 0.942337 29.1806 1.48409 26.807L4.59693 13.1688C5.13868 10.7952 6.73179 8.79751 8.92528 7.74118L21.5289 1.67158Z" fill="#FBFBFB"/>
<path fill-rule="evenodd" clip-rule="evenodd" d="M16.011 17.3222L27.742 14.9349V17.0849L20.3185 18.5956V29.4051L16.011 30.2817V17.3222Z" fill="#326CE5"/>
<path fill-rule="evenodd" clip-rule="evenodd" d="M11 15.3873L22.731 13V15.15L15.3076 16.6607V27.4702L11 28.3468V15.3873Z" fill="#326CE5"/>
<path d="M32.753 16.8532L21.022 19.2405V32.2L32.753 29.8127V16.8532Z" fill="#CADBFF"/>
<path d="M39.34 21.7125H38.84V24.368H39.34V24.868V27.305V27.805H38.84V30.4605H39.34V30.9605V32.179C39.34 32.8876 38.8441 33.4996 38.1509 33.6464L37.3242 33.8216L36.8351 33.9252L36.7314 33.436L35.2297 33.7542L35.3334 34.2433L34.8442 34.347L33.1909 34.6972L32.7017 34.8008L32.5981 34.3117L31.0964 34.6298L31.2 35.119L30.7109 35.2226L29.0575 35.5729L28.5684 35.6765L28.4648 35.1873L26.9631 35.5055L27.0667 35.9946L26.5775 36.0983L25.7509 36.2734C24.818 36.471 23.94 35.7595 23.94 34.806V33.5875V33.0875H24.44V30.432H23.94V29.932V27.495V26.995H24.44V24.3395H23.94V23.8395V22.621C23.94 21.9124 24.4359 21.3004 25.1291 21.1536L25.9558 20.9784L26.4449 20.8748L26.5486 21.364L28.0503 21.0458L27.9466 20.5567L28.4358 20.4531L30.0891 20.1028L30.5783 19.9992L30.6819 20.4883L32.1836 20.1702L32.08 19.681L32.5691 19.5774L34.2225 19.2271L34.7116 19.1235L34.8152 19.6127L36.3169 19.2945L36.2133 18.8054L36.7025 18.7017L37.5291 18.5266C38.462 18.329 39.34 19.0405 39.34 19.994V21.2125V21.7125Z" stroke="#47BE0E" stroke-linecap="square" stroke-linejoin="round" stroke-dasharray="2 3"/>
</svg>
