<svg width="69" height="67" viewBox="0 0 69 67" fill="none" xmlns="http://www.w3.org/2000/svg">
<g clip-path="url(#clip0_2_2)">
<g clip-path="url(#clip1_2_2)">
<path d="M33.8462 0.00593417C33.2443 0.0374638 32.6548 0.187777 32.1121 0.448075L8.41172 11.7686C7.79838 12.0615 7.25946 12.4877 6.83498 13.0156C6.41051 13.5435 6.11139 14.1594 5.95985 14.8176L0.114424 40.2521C-0.0209892 40.8384 -0.0363846 41.4457 0.0691517 42.038C0.174688 42.6303 0.399006 43.1955 0.728821 43.7003C0.809055 43.823 0.895283 43.9418 0.9872 44.0563L17.3894 64.4521C17.814 64.9798 18.353 65.4058 18.9663 65.6986C19.5797 65.9913 20.2516 66.1433 20.9323 66.1432L47.2368 66.1374C47.9172 66.1379 48.589 65.9864 49.2023 65.6941C49.8157 65.4019 50.3547 64.9764 50.7796 64.4492L67.1761 44.0505C67.6005 43.5228 67.8996 42.907 68.0512 42.249C68.2028 41.5909 68.203 40.9074 68.0518 40.2493L62.1977 14.8119C62.0458 14.1542 61.7465 13.5388 61.3221 13.0115C60.8976 12.4841 60.3589 12.0584 59.7459 11.7657L36.0455 0.445204C35.3611 0.118287 34.6049 -0.0327647 33.8462 0.00593417ZM33.8577 1.75153C34.5758 1.71522 35.2915 1.85837 35.9392 2.16783L58.3907 12.8883C58.9718 13.1658 59.4823 13.5695 59.8844 14.0695C60.2865 14.5696 60.5699 15.153 60.7134 15.7765L66.2603 39.8703C66.4038 40.4941 66.4038 41.142 66.2602 41.7658C66.1165 42.3896 65.8329 42.9733 65.4305 43.4734L49.8982 62.7955C49.4957 63.2949 48.985 63.698 48.404 63.9748C47.823 64.2517 47.1866 64.3952 46.542 64.3947L21.6242 64.4005C20.9794 64.4006 20.3428 64.2566 19.7618 63.9793C19.1808 63.7019 18.6702 63.2983 18.268 62.7984L2.72994 43.4792C2.64307 43.3703 2.56163 43.2572 2.4859 43.1404C2.1736 42.6626 1.9611 42.1275 1.86099 41.5668C1.76088 41.0061 1.7752 40.4312 1.90308 39.8761L7.44131 15.7823C7.58487 15.1588 7.86823 14.5753 8.27033 14.0753C8.67244 13.5753 9.18296 13.1715 9.76398 12.8941L32.2126 2.16785C32.7276 1.92184 33.2869 1.78028 33.8577 1.75153Z" fill="white"/>
<path d="M26.8113 58.4361V52.6179H27.7052V58.4361H26.8113ZM27.2658 51.6482C27.0916 51.6482 26.9413 51.5888 26.815 51.4701C26.6913 51.3515 26.6294 51.2088 26.6294 51.0421C26.6294 50.8754 26.6913 50.7328 26.815 50.6141C26.9413 50.4954 27.0916 50.4361 27.2658 50.4361C27.44 50.4361 27.589 50.4954 27.7128 50.6141C27.839 50.7328 27.9022 50.8754 27.9022 51.0421C27.9022 51.2088 27.839 51.3515 27.7128 51.4701C27.589 51.5888 27.44 51.6482 27.2658 51.6482ZM30.2364 54.9361V58.4361H29.3425V52.6179H30.2061V53.527H30.2819C30.4183 53.2315 30.6253 52.9941 30.9031 52.8148C31.1809 52.633 31.5395 52.5421 31.9789 52.5421C32.3728 52.5421 32.7175 52.6229 33.013 52.7845C33.3084 52.9436 33.5382 53.1861 33.7024 53.5118C33.8665 53.835 33.9486 54.2441 33.9486 54.7391V58.4361H33.0546V54.7997C33.0546 54.3426 32.9359 53.9866 32.6986 53.7315C32.4612 53.4739 32.1354 53.3451 31.7213 53.3451C31.4359 53.3451 31.1809 53.407 30.9561 53.5307C30.7339 53.6545 30.5584 53.835 30.4296 54.0724C30.3008 54.3098 30.2364 54.5977 30.2364 54.9361ZM37.9306 60.7391C37.4988 60.7391 37.1275 60.6835 36.8169 60.5724C36.5063 60.4638 36.2475 60.3199 36.0404 60.1406C35.8359 59.9638 35.673 59.7744 35.5518 59.5724L36.2639 59.0724C36.3447 59.1785 36.447 59.2997 36.5707 59.4361C36.6945 59.5749 36.8637 59.6949 37.0783 59.7959C37.2955 59.8994 37.5796 59.9512 37.9306 59.9512C38.4003 59.9512 38.7879 59.8376 39.0935 59.6103C39.399 59.383 39.5518 59.027 39.5518 58.5421V57.3603H39.476C39.4104 57.4664 39.3169 57.5977 39.1957 57.7542C39.077 57.9083 38.9053 58.0459 38.6806 58.1671C38.4584 58.2858 38.1579 58.3451 37.7791 58.3451C37.3094 58.3451 36.8876 58.234 36.5139 58.0118C36.1427 57.7896 35.8485 57.4664 35.6313 57.0421C35.4167 56.6179 35.3094 56.1027 35.3094 55.4967C35.3094 54.9007 35.4142 54.3818 35.6238 53.9398C35.8334 53.4954 36.125 53.152 36.4988 52.9095C36.8725 52.6646 37.3043 52.5421 37.7942 52.5421C38.173 52.5421 38.4735 52.6052 38.6957 52.7315C38.9205 52.8552 39.0922 52.9967 39.2109 53.1557C39.3321 53.3123 39.4255 53.4411 39.4912 53.5421H39.5821V52.6179H40.4457V58.6027C40.4457 59.1027 40.3321 59.5093 40.1048 59.8224C39.8801 60.1381 39.577 60.3691 39.1957 60.5156C38.8169 60.6646 38.3952 60.7391 37.9306 60.7391ZM37.9003 57.5421C38.2589 57.5421 38.5619 57.46 38.8094 57.2959C39.0568 57.1318 39.245 56.8956 39.3738 56.5876C39.5025 56.2795 39.5669 55.9108 39.5669 55.4815C39.5669 55.0623 39.5038 54.6924 39.3775 54.3717C39.2513 54.0509 39.0644 53.7997 38.8169 53.6179C38.5695 53.4361 38.2639 53.3451 37.9003 53.3451C37.5215 53.3451 37.2058 53.4411 36.9533 53.633C36.7033 53.8249 36.5152 54.0825 36.3889 54.4057C36.2652 54.729 36.2033 55.0876 36.2033 55.4815C36.2033 55.8855 36.2664 56.2429 36.3927 56.5535C36.5215 56.8616 36.7109 57.104 36.9609 57.2807C37.2134 57.455 37.5265 57.5421 37.9003 57.5421Z" fill="white"/>
<path d="M44.4675 47.4031H35.8853L17.2867 24.1369H11.9059V16.5215H20.6545L39.2611 39.7877H44.4675V33.7651L56.2591 43.5914L44.4675 53.4257V47.4031ZM35.1088 29.4304L39.2611 24.232H44.4675V30.2546L56.2591 20.4282L44.4675 10.594V16.6166H35.8853L30.3779 23.5108L35.1088 29.4304ZM21.5104 34.5893L17.2867 39.8828H11.9059V47.4982H20.6545L26.2413 40.5088L21.5104 34.5893Z" fill="white"/>
</g>
</g>
<defs>
<clipPath id="clip0_2_2">
<rect width="68.165" height="66.1432" fill="white"/>
</clipPath>
<clipPath id="clip1_2_2">
<rect width="68.165" height="66.1432" fill="white"/>
</clipPath>
</defs>
</svg>
