<svg id="Layer_1" data-name="Layer 1" xmlns="http://www.w3.org/2000/svg" viewBox="0 0 40 40"><defs><style>.cls-1,.cls-2{fill:#fff;stroke:#fff;stroke-miterlimit:10;}.cls-1{stroke-width:0.45px;}</style></defs><polygon class="cls-1" points="24.02 27.1 23.92 26.99 16.72 18.68 11.55 25.24 6.38 23.77 6.44 23.55 11.46 24.98 16.71 18.32 16.8 18.43 23.99 26.72 28.51 19.75 33.35 13.97 33.53 14.12 28.7 19.88 24.02 27.1"/><circle class="cls-2" cx="6.41" cy="23.66" r="0.44"/><path class="cls-2" d="M11.9,25a.45.45,0,0,1-.36.51A.44.44,0,1,1,11.9,25Z"/><path class="cls-2" d="M24.41,26.7a.44.44,0,1,1-.51-.36A.44.44,0,0,1,24.41,26.7Z"/><path class="cls-2" d="M29,19.76a.44.44,0,0,1-.87.15.44.44,0,1,1,.87-.15Z"/><circle class="cls-2" cx="33.44" cy="14.04" r="0.44"/><path class="cls-2" d="M17.19,18.48a.44.44,0,0,1-.36.5.43.43,0,0,1-.51-.35.44.44,0,0,1,.36-.51A.43.43,0,0,1,17.19,18.48Z"/></svg>