<svg id="Layer_1" data-name="Layer 1" xmlns="http://www.w3.org/2000/svg" viewBox="0 0 40 40"><polygon points="24.43 28.28 24.32 28.15 16.31 18.92 10.56 26.21 4.81 24.57 4.88 24.32 10.47 25.92 16.3 18.52 16.4 18.63 24.4 27.85 29.43 20.1 34.81 13.68 35.01 13.84 29.63 20.25 24.43 28.28" fill="#fff" stroke="#fff" stroke-miterlimit="10" stroke-width="0.45"/><circle cx="4.85" cy="24.45" r="0.49" fill="#fff" stroke="#fff" stroke-miterlimit="10"/><path d="M11,26a.49.49,0,0,1-.4.57.49.49,0,0,1-.56-.4A.49.49,0,1,1,11,26Z" fill="#fff" stroke="#fff" stroke-miterlimit="10"/><path d="M24.87,27.84a.48.48,0,0,1-.4.56.49.49,0,0,1-.57-.4.49.49,0,0,1,.4-.56A.49.49,0,0,1,24.87,27.84Z" fill="#fff" stroke="#fff" stroke-miterlimit="10"/><path d="M30,20.12a.47.47,0,0,1-.4.56.48.48,0,0,1-.56-.39.49.49,0,1,1,1-.17Z" fill="#fff" stroke="#fff" stroke-miterlimit="10"/><circle cx="34.91" cy="13.76" r="0.49" fill="#fff" stroke="#fff" stroke-miterlimit="10"/><path d="M16.84,18.69a.49.49,0,0,1-.4.56.49.49,0,0,1-.57-.4.48.48,0,0,1,.4-.56A.49.49,0,0,1,16.84,18.69Z" fill="#fff" stroke="#fff" stroke-miterlimit="10"/></svg>