<svg id="Layer_1" data-name="Layer 1" xmlns="http://www.w3.org/2000/svg" viewBox="0 0 40 40"><defs><style>.cls-1{fill:#666766;}.cls-2{fill:#fff;}.cls-3{fill:#33658d;}</style></defs><path class="cls-1" d="M4.71,22.69c0,2.21,5.58,4,12.44,4s12.44-1.79,12.44-4h0V19.51c-2.55,1.87-7.51,2.74-12.44,2.74S7.26,21.38,4.71,19.5Z"/><path class="cls-1" d="M29.59,25.73C27,27.6,22.08,28.47,17.15,28.47S7.26,27.6,4.71,25.73v3.63h0c.69,2,6,3.56,12.44,3.56s11.76-1.56,12.45-3.56h0Z"/><path class="cls-1" d="M4.71,16.47c0,2.21,5.58,4,12.44,4s12.44-1.79,12.44-4h0V13.28C27,15.16,22.08,16,17.15,16s-9.89-.87-12.44-2.75Z"/><ellipse class="cls-1" cx="17.15" cy="10.25" rx="12.44" ry="4"/><path class="cls-2" d="M33.75,29.6a1,1,0,0,1-.19.49,2.82,2.82,0,0,1-1.29,1,4.62,4.62,0,0,1-2.08.36H30c0,.08,0,.16,0,.26a6.73,6.73,0,0,1-.84,3.7,3.12,3.12,0,0,1-2,1.17A2.22,2.22,0,0,1,25,36a2.83,2.83,0,0,1-.56-1.12,7.1,7.1,0,0,1-.29-2.18l0-.75a2.66,2.66,0,0,1-.67.2,3.62,3.62,0,0,1-1.5-.07,2.1,2.1,0,0,1-.52-.21,1.28,1.28,0,0,1-.44-.34,1.72,1.72,0,0,1-1,.42,1.82,1.82,0,0,1-1.32-.57,6.92,6.92,0,0,1-1.47-2.64,25.53,25.53,0,0,1-.92-3.19,16.45,16.45,0,0,1-.38-2.22,4.9,4.9,0,0,1,1.08-3.73,3.93,3.93,0,0,1,2.73-1.14,8.68,8.68,0,0,1,3.25.51,4.3,4.3,0,0,1,2.31-.57,8.18,8.18,0,0,1,1.31.12h.05a7.6,7.6,0,0,1,2.12-.31h.13a5.54,5.54,0,0,1,4.38,2.06A2.65,2.65,0,0,1,33.66,22a10.08,10.08,0,0,1-.34,2.26,17.7,17.7,0,0,1-1.89,4.49,4.06,4.06,0,0,0,.92-.11,1.05,1.05,0,0,1,1,.15A1,1,0,0,1,33.75,29.6Z"/><path class="cls-3" d="M24.48,29.92a.55.55,0,0,0-.25-.3l-.16-.05h0s-.1,0-.21.15a6.12,6.12,0,0,1-.58.66,2.44,2.44,0,0,1-1.08.39,1.09,1.09,0,0,0-.36.11l.06,0a1.36,1.36,0,0,0,.28.11,2.72,2.72,0,0,0,1.07.06,1.83,1.83,0,0,0,1.23-.8A.39.39,0,0,0,24.48,29.92Zm8.07-.28a3.55,3.55,0,0,1-2,0,1.35,1.35,0,0,1-.26-.15h0l-.28.09a.35.35,0,0,0-.19.17,1,1,0,0,0-.08.51l.12.05a2.23,2.23,0,0,0,.6.07,4.06,4.06,0,0,0,1.41-.27,3.54,3.54,0,0,0,.73-.48Zm-8.46-5.37a.76.76,0,0,0-.48-.64,1.4,1.4,0,0,0-.41-.06,1.89,1.89,0,0,0-.47.06,3.56,3.56,0,0,0-.89.34,1.51,1.51,0,0,0-.26.18h0c0,.11,0,.39,0,.79a12.1,12.1,0,0,1-.09,1.6A2,2,0,0,0,23.4,29a8.12,8.12,0,0,1,.28-.83A4.86,4.86,0,0,0,24.09,24.27Zm-.24-.1a.23.23,0,0,1-.06.12.36.36,0,0,1-.11.1.52.52,0,0,1-.34.09A.57.57,0,0,1,23,24.3a.47.47,0,0,1-.09-.12.18.18,0,0,1,0-.14.2.2,0,0,1,.14-.15.5.5,0,0,1,.24,0h.13a.7.7,0,0,1,.3.09.39.39,0,0,1,.1.08A.16.16,0,0,1,23.85,24.17Zm6.09.93c0-.65.15-1.08.16-1.58a3.64,3.64,0,0,0-.57,0,1.27,1.27,0,0,0-1,.32,1.44,1.44,0,0,0-.1,1.23,7.78,7.78,0,0,0,.68,1.64c.13.25.25.48.36.66s.17.32.22.43a2.44,2.44,0,0,0,.14.28,2.51,2.51,0,0,0,.21-1.28C30.05,26.22,29.92,25.66,29.94,25.1Zm-.31-1.22a.19.19,0,0,1,0,.1l-.08.12a.55.55,0,0,1-.3.16.48.48,0,0,1-.31-.08l-.1-.09a.14.14,0,0,1,0-.1.12.12,0,0,1,0-.1l.09-.07a.9.9,0,0,1,.29-.09h.3l.1.05s.05.05.06.08ZM21,26.48A9.38,9.38,0,0,0,21.08,25c0-.41,0-.68,0-.85v0h0a7.41,7.41,0,0,1,.46-2.59,4.36,4.36,0,0,1,1-1.62,8.29,8.29,0,0,0-2.22-.44h-.58a2.89,2.89,0,0,0-2,.83,3.81,3.81,0,0,0-.8,3,15.92,15.92,0,0,0,.35,2,26.21,26.21,0,0,0,.88,3.06,6.63,6.63,0,0,0,1.22,2.26.76.76,0,0,0,.56.28.87.87,0,0,0,.61-.4c.45-.54.92-1.06,1.4-1.57A2.68,2.68,0,0,1,21,26.48ZM29.24,28c-.06-.13-.12-.25-.19-.37s-.24-.42-.37-.68A8.12,8.12,0,0,1,28,25.15a1.84,1.84,0,0,1,.22-1.69A2.06,2.06,0,0,1,30,23a2,2,0,0,0-.09-.25,5.65,5.65,0,0,0-.8-1.36,5,5,0,0,0-3.95-2h-.09a3.11,3.11,0,0,0-2.06.69A3.74,3.74,0,0,0,22,21.67a6.87,6.87,0,0,0-.4,1.86h0a4.34,4.34,0,0,1,1-.4,2.15,2.15,0,0,1,1.18,0,1.33,1.33,0,0,1,.8,1,5.42,5.42,0,0,1-.43,4.13c-.09.26-.18.52-.25.78l.1,0a1,1,0,0,1,.41.08,1,1,0,0,1,.55.6A1.74,1.74,0,0,1,25,30a.36.36,0,0,1,0,.1c0,1,0,1.92,0,2.87,0,.42,0,.78.07,1.07a4,4,0,0,0,.11.58,2,2,0,0,0,.5.78,1.41,1.41,0,0,0,1.32.22,2.24,2.24,0,0,0,1.2-.55,2.2,2.2,0,0,0,.48-1.15c.14-.8.42-3.14.45-3.59a1.4,1.4,0,0,1,.14-.78,1,1,0,0,1,.42-.39l.2-.07c-.06-.08-.12-.17-.19-.25A3.43,3.43,0,0,1,29.24,28Zm3.15-7.11a4.42,4.42,0,0,0-3.6-1.67h-.11a7.2,7.2,0,0,0-1.31.15,5.82,5.82,0,0,1,2.19,1.73,6.47,6.47,0,0,1,.87,1.48,3.7,3.7,0,0,1,.17.5.68.68,0,0,1,0,.19.15.15,0,0,1,0,.11h0c0,.67-.14,1.13-.16,1.77,0,.46.1,1,.13,1.61a3,3,0,0,1-.4,1.78,1,1,0,0,0,.08.11,16.53,16.53,0,0,0,2-4.63,9.05,9.05,0,0,0,.32-2A2.07,2.07,0,0,0,32.39,20.85Zm0,0a4.42,4.42,0,0,0-3.6-1.67h-.11a7.2,7.2,0,0,0-1.31.15,5.82,5.82,0,0,1,2.19,1.73,6.47,6.47,0,0,1,.87,1.48,3.7,3.7,0,0,1,.17.5.68.68,0,0,1,0,.19.15.15,0,0,1,0,.11h0c0,.67-.14,1.13-.16,1.77,0,.46.1,1,.13,1.61a3,3,0,0,1-.4,1.78,1,1,0,0,0,.08.11,16.53,16.53,0,0,0,2-4.63,9.05,9.05,0,0,0,.32-2A2.07,2.07,0,0,0,32.39,20.85Zm-1.89,8.8a1.35,1.35,0,0,1-.26-.15h0l-.28.09a.35.35,0,0,0-.19.17,1,1,0,0,0-.08.51l.12.05a2.23,2.23,0,0,0,.6.07,4.06,4.06,0,0,0,1.41-.27,3.54,3.54,0,0,0,.73-.48h0A3.55,3.55,0,0,1,30.5,29.65Zm-.4-6.13a3.64,3.64,0,0,0-.57,0,1.27,1.27,0,0,0-1,.32,1.44,1.44,0,0,0-.1,1.23,7.78,7.78,0,0,0,.68,1.64c.13.25.25.48.36.66s.17.32.22.43a2.44,2.44,0,0,0,.14.28,2.51,2.51,0,0,0,.21-1.28c0-.54-.15-1.1-.13-1.66S30.09,24,30.1,23.52Zm-.47.36a.19.19,0,0,1,0,.1l-.08.12a.55.55,0,0,1-.3.16.48.48,0,0,1-.31-.08l-.1-.09a.14.14,0,0,1,0-.1.12.12,0,0,1,0-.1l.09-.07a.9.9,0,0,1,.29-.09h.3l.1.05s.05.05.06.08Zm.31,5.17c-.06-.08-.12-.17-.19-.25a3.43,3.43,0,0,1-.51-.84c-.06-.13-.12-.25-.19-.37s-.24-.42-.37-.68A8.12,8.12,0,0,1,28,25.15a1.84,1.84,0,0,1,.22-1.69A2.06,2.06,0,0,1,30,23a2,2,0,0,0-.09-.25,5.65,5.65,0,0,0-.8-1.36,5,5,0,0,0-3.95-2h-.09a3.11,3.11,0,0,0-2.06.69A3.74,3.74,0,0,0,22,21.67a6.87,6.87,0,0,0-.4,1.86h0a4.34,4.34,0,0,1,1-.4,2.15,2.15,0,0,1,1.18,0,1.33,1.33,0,0,1,.8,1,5.42,5.42,0,0,1-.43,4.13c-.09.26-.18.52-.25.78l.1,0a1,1,0,0,1,.41.08,1,1,0,0,1,.55.6A1.74,1.74,0,0,1,25,30a.36.36,0,0,1,0,.1c0,1,0,1.92,0,2.87,0,.42,0,.78.07,1.07a4,4,0,0,0,.11.58,2,2,0,0,0,.5.78,1.41,1.41,0,0,0,1.32.22,2.24,2.24,0,0,0,1.2-.55,2.2,2.2,0,0,0,.48-1.15c.14-.8.42-3.14.45-3.59a1.4,1.4,0,0,1,.14-.78,1,1,0,0,1,.42-.39Zm-5.71.57-.16-.05h0s-.1,0-.21.15a6.12,6.12,0,0,1-.58.66,2.44,2.44,0,0,1-1.08.39,1.09,1.09,0,0,0-.36.11l.06,0a1.36,1.36,0,0,0,.28.11,2.72,2.72,0,0,0,1.07.06,1.83,1.83,0,0,0,1.23-.8.39.39,0,0,0,0-.37A.55.55,0,0,0,24.23,29.62ZM23.4,29a8.12,8.12,0,0,1,.28-.83,4.86,4.86,0,0,0,.41-3.85.76.76,0,0,0-.48-.64,1.4,1.4,0,0,0-.41-.06,1.89,1.89,0,0,0-.47.06,3.56,3.56,0,0,0-.89.34,1.51,1.51,0,0,0-.26.18h0c0,.11,0,.39,0,.79a12.1,12.1,0,0,1-.09,1.6A2,2,0,0,0,23.4,29ZM22.9,24a.2.2,0,0,1,.14-.15.5.5,0,0,1,.24,0h.13a.7.7,0,0,1,.3.09.39.39,0,0,1,.1.08.16.16,0,0,1,0,.13.23.23,0,0,1-.06.12.36.36,0,0,1-.11.1.52.52,0,0,1-.34.09A.57.57,0,0,1,23,24.3a.47.47,0,0,1-.09-.12A.18.18,0,0,1,22.9,24ZM21,26.48A9.38,9.38,0,0,0,21.08,25c0-.41,0-.68,0-.85v0h0a7.41,7.41,0,0,1,.46-2.59,4.36,4.36,0,0,1,1-1.62,8.29,8.29,0,0,0-2.22-.44h-.58a2.89,2.89,0,0,0-2,.83,3.81,3.81,0,0,0-.8,3,15.92,15.92,0,0,0,.35,2,26.21,26.21,0,0,0,.88,3.06,6.63,6.63,0,0,0,1.22,2.26.76.76,0,0,0,.56.28.87.87,0,0,0,.61-.4c.45-.54.92-1.06,1.4-1.57A2.68,2.68,0,0,1,21,26.48Zm12.4,2.33a1.05,1.05,0,0,0-1-.15,4.06,4.06,0,0,1-.92.11,17.7,17.7,0,0,0,1.89-4.49A10.08,10.08,0,0,0,33.66,22a2.65,2.65,0,0,0-.44-1.78,5.54,5.54,0,0,0-4.38-2.06h-.13a7.6,7.6,0,0,0-2.12.31h-.05a8.18,8.18,0,0,0-1.31-.12,4.3,4.3,0,0,0-2.31.57,8.68,8.68,0,0,0-3.25-.51,3.93,3.93,0,0,0-2.73,1.14,4.9,4.9,0,0,0-1.08,3.73,16.45,16.45,0,0,0,.38,2.22,25.53,25.53,0,0,0,.92,3.19,6.92,6.92,0,0,0,1.47,2.64,1.82,1.82,0,0,0,1.32.57,1.72,1.72,0,0,0,1-.42,1.28,1.28,0,0,0,.44.34,2.1,2.1,0,0,0,.52.21,3.62,3.62,0,0,0,1.5.07,2.66,2.66,0,0,0,.67-.2l0,.75a7.1,7.1,0,0,0,.29,2.18A2.83,2.83,0,0,0,25,36a2.22,2.22,0,0,0,2.15.58,3.12,3.12,0,0,0,2-1.17,6.73,6.73,0,0,0,.84-3.7c0-.1,0-.18,0-.26h.15a4.62,4.62,0,0,0,2.08-.36,2.82,2.82,0,0,0,1.29-1,1,1,0,0,0,.19-.49A1,1,0,0,0,33.4,28.81Zm-.28,1a2.66,2.66,0,0,1-1.08.81,4.23,4.23,0,0,1-1.63.31,2.57,2.57,0,0,1-.76-.08h0c-.08.82-.28,2.42-.4,3.16a2.62,2.62,0,0,1-.62,1.41,2.72,2.72,0,0,1-1.46.71,2,2,0,0,1-1.76-.33,2.61,2.61,0,0,1-.65-1,2.77,2.77,0,0,1-.14-.71c0-.31-.06-.68-.08-1.11,0-.64,0-1.29,0-1.94a2.39,2.39,0,0,1-1.2.59A3.13,3.13,0,0,1,22,31.53a2,2,0,0,1-.4-.16.7.7,0,0,1-.34-.3.42.42,0,0,1,0-.29.44.44,0,0,1,.17-.26,1.47,1.47,0,0,1,.65-.25,2.25,2.25,0,0,0,.87-.29,4.54,4.54,0,0,0,.41-.48v0a2.32,2.32,0,0,1-1-.27c-.11.12-.7.74-1.42,1.6a1.39,1.39,0,0,1-1,.59A1.29,1.29,0,0,1,19,31a6.64,6.64,0,0,1-1.34-2.44,25.78,25.78,0,0,1-.9-3.13,15.5,15.5,0,0,1-.37-2.13,4.4,4.4,0,0,1,.94-3.36,3.44,3.44,0,0,1,2.38-1,8.62,8.62,0,0,1,3.3.56,3.72,3.72,0,0,1,2.23-.61A5.13,5.13,0,0,1,26.5,19h0c.19-.07.38-.12.57-.17a7.76,7.76,0,0,1,1.59-.19h0a5,5,0,0,1,4.12,1.86A2.25,2.25,0,0,1,33.13,22a9.24,9.24,0,0,1-.33,2.14,17,17,0,0,1-2.23,5l.13.07a3.23,3.23,0,0,0,1.74,0c.26-.05.44-.09.64.06a.43.43,0,0,1,.14.32A.55.55,0,0,1,33.12,29.78Zm-3.56-8.72a6.47,6.47,0,0,1,.87,1.48,3.7,3.7,0,0,1,.17.5.68.68,0,0,1,0,.19.15.15,0,0,1,0,.11h0c0,.67-.14,1.13-.16,1.77,0,.46.1,1,.13,1.61a3,3,0,0,1-.4,1.78,1,1,0,0,0,.08.11,16.53,16.53,0,0,0,2-4.63,9.05,9.05,0,0,0,.32-2,2.07,2.07,0,0,0-.23-1.12,4.42,4.42,0,0,0-3.6-1.67h-.11a7.2,7.2,0,0,0-1.31.15A5.82,5.82,0,0,1,29.56,21.06Zm.94,8.59a1.35,1.35,0,0,1-.26-.15h0l-.28.09a.35.35,0,0,0-.19.17,1,1,0,0,0-.08.51l.12.05a2.23,2.23,0,0,0,.6.07,4.06,4.06,0,0,0,1.41-.27,3.54,3.54,0,0,0,.73-.48h0A3.55,3.55,0,0,1,30.5,29.65Zm-.4-6.13a3.64,3.64,0,0,0-.57,0,1.27,1.27,0,0,0-1,.32,1.44,1.44,0,0,0-.1,1.23,7.78,7.78,0,0,0,.68,1.64c.13.25.25.48.36.66s.17.32.22.43a2.44,2.44,0,0,0,.14.28,2.51,2.51,0,0,0,.21-1.28c0-.54-.15-1.1-.13-1.66S30.09,24,30.1,23.52Zm-.47.36a.19.19,0,0,1,0,.1l-.08.12a.55.55,0,0,1-.3.16.48.48,0,0,1-.31-.08l-.1-.09a.14.14,0,0,1,0-.1.12.12,0,0,1,0-.1l.09-.07a.9.9,0,0,1,.29-.09h.3l.1.05s.05.05.06.08Zm.31,5.17c-.06-.08-.12-.17-.19-.25a3.43,3.43,0,0,1-.51-.84c-.06-.13-.12-.25-.19-.37s-.24-.42-.37-.68A8.12,8.12,0,0,1,28,25.15a1.84,1.84,0,0,1,.22-1.69A2.06,2.06,0,0,1,30,23a2,2,0,0,0-.09-.25,5.65,5.65,0,0,0-.8-1.36,5,5,0,0,0-3.95-2h-.09a3.11,3.11,0,0,0-2.06.69A3.74,3.74,0,0,0,22,21.67a6.87,6.87,0,0,0-.4,1.86h0a4.34,4.34,0,0,1,1-.4,2.15,2.15,0,0,1,1.18,0,1.33,1.33,0,0,1,.8,1,5.42,5.42,0,0,1-.43,4.13c-.09.26-.18.52-.25.78l.1,0a1,1,0,0,1,.41.08,1,1,0,0,1,.55.6A1.74,1.74,0,0,1,25,30a.36.36,0,0,1,0,.1c0,1,0,1.92,0,2.87,0,.42,0,.78.07,1.07a4,4,0,0,0,.11.58,2,2,0,0,0,.5.78,1.41,1.41,0,0,0,1.32.22,2.24,2.24,0,0,0,1.2-.55,2.2,2.2,0,0,0,.48-1.15c.14-.8.42-3.14.45-3.59a1.4,1.4,0,0,1,.14-.78,1,1,0,0,1,.42-.39Zm-5.71.57-.16-.05h0s-.1,0-.21.15a6.12,6.12,0,0,1-.58.66,2.44,2.44,0,0,1-1.08.39,1.09,1.09,0,0,0-.36.11l.06,0a1.36,1.36,0,0,0,.28.11,2.72,2.72,0,0,0,1.07.06,1.83,1.83,0,0,0,1.23-.8.39.39,0,0,0,0-.37A.55.55,0,0,0,24.23,29.62Zm-.55-1.5a4.86,4.86,0,0,0,.41-3.85.76.76,0,0,0-.48-.64,1.4,1.4,0,0,0-.41-.06,1.89,1.89,0,0,0-.47.06,3.56,3.56,0,0,0-.89.34,1.51,1.51,0,0,0-.26.18h0c0,.11,0,.39,0,.79a12.1,12.1,0,0,1-.09,1.6A2,2,0,0,0,23.4,29,8.12,8.12,0,0,1,23.68,28.12Zm-.34-3.64A.57.57,0,0,1,23,24.3a.47.47,0,0,1-.09-.12.18.18,0,0,1,0-.14.2.2,0,0,1,.14-.15.5.5,0,0,1,.24,0h.13a.7.7,0,0,1,.3.09.39.39,0,0,1,.1.08.16.16,0,0,1,0,.13.23.23,0,0,1-.06.12.36.36,0,0,1-.11.1A.52.52,0,0,1,23.34,24.48Zm-2.34,2A9.38,9.38,0,0,0,21.08,25c0-.41,0-.68,0-.85v0h0a7.41,7.41,0,0,1,.46-2.59,4.36,4.36,0,0,1,1-1.62,8.29,8.29,0,0,0-2.22-.44h-.58a2.89,2.89,0,0,0-2,.83,3.81,3.81,0,0,0-.8,3,15.92,15.92,0,0,0,.35,2,26.21,26.21,0,0,0,.88,3.06,6.63,6.63,0,0,0,1.22,2.26.76.76,0,0,0,.56.28.87.87,0,0,0,.61-.4c.45-.54.92-1.06,1.4-1.57A2.68,2.68,0,0,1,21,26.48Z"/></svg>