<svg id="Layer_1" data-name="Layer 1" xmlns="http://www.w3.org/2000/svg" viewBox="0 0 40 40"><defs><style>.cls-1{fill:#fff;}</style></defs><path class="cls-1" d="M4.71,22.69c0,2.21,5.58,4,12.44,4s12.44-1.79,12.44-4h0V19.51c-2.55,1.87-7.51,2.74-12.44,2.74S7.26,21.38,4.71,19.5Z"/><path class="cls-1" d="M29.59,25.73C27,27.6,22.08,28.47,17.15,28.47S7.26,27.6,4.71,25.73v3.63h0c.69,2,6,3.56,12.44,3.56s11.76-1.56,12.45-3.56h0Z"/><path class="cls-1" d="M4.71,16.47c0,2.21,5.58,4,12.44,4s12.44-1.79,12.44-4h0V13.28C27,15.16,22.08,16,17.15,16s-9.89-.87-12.44-2.75Z"/><ellipse class="cls-1" cx="17.15" cy="10.25" rx="12.44" ry="4"/><path class="cls-1" d="M28.71,18.14a7.67,7.67,0,0,0-2.13.31h0a8.18,8.18,0,0,0-1.31-.12,4.34,4.34,0,0,0-2.32.57,8.76,8.76,0,0,0-3.27-.51,3.93,3.93,0,0,0-2.73,1.14,4.87,4.87,0,0,0-1.08,3.75,14.63,14.63,0,0,0,.37,2.22,27.05,27.05,0,0,0,.93,3.2,6.89,6.89,0,0,0,1.47,2.65,1.81,1.81,0,0,0,1.33.58,1.73,1.73,0,0,0,1-.43,1.32,1.32,0,0,0,.44.35,2.41,2.41,0,0,0,.52.2,3.64,3.64,0,0,0,1.51.08,3.21,3.21,0,0,0,.67-.21l0,.76a7.06,7.06,0,0,0,.29,2.18A2.93,2.93,0,0,0,25,36a2.27,2.27,0,0,0,2.16.59,3.16,3.16,0,0,0,2.05-1.19A6.63,6.63,0,0,0,30,31.69c0-.09,0-.18,0-.25h.15a4.52,4.52,0,0,0,2.09-.37,2.9,2.9,0,0,0,1.3-1,1.07,1.07,0,0,0,.18-.5,1,1,0,0,0-.34-.79,1,1,0,0,0-1.06-.15,5.63,5.63,0,0,1-.93.11,17.31,17.31,0,0,0,1.9-4.51A9.6,9.6,0,0,0,33.68,22a2.65,2.65,0,0,0-.45-1.78,5.54,5.54,0,0,0-4.39-2.07Zm0,.49a5,5,0,0,1,4.14,1.87A2.32,2.32,0,0,1,33.14,22a9.32,9.32,0,0,1-.33,2.15,17.25,17.25,0,0,1-2.23,5l.12.06a3.11,3.11,0,0,0,1.75,0,.71.71,0,0,1,.64.05.43.43,0,0,1,.14.33.46.46,0,0,1-.1.26,2.59,2.59,0,0,1-1.08.81,4.42,4.42,0,0,1-1.63.32,2.56,2.56,0,0,1-.76-.09h0c-.08.82-.28,2.44-.41,3.17a2.55,2.55,0,0,1-.62,1.42,2.68,2.68,0,0,1-1.46.71,2,2,0,0,1-1.76-.33,2.35,2.35,0,0,1-.65-1,3,3,0,0,1-.15-.71c0-.31-.06-.68-.08-1.11,0-.64,0-1.29,0-1.94a2.33,2.33,0,0,1-1.2.58A3,3,0,0,1,22,31.53a1.63,1.63,0,0,1-.4-.15.77.77,0,0,1-.34-.31.48.48,0,0,1,0-.29.56.56,0,0,1,.17-.26,1.47,1.47,0,0,1,.66-.25,2,2,0,0,0,.86-.29,4.29,4.29,0,0,0,.42-.48v0a2.21,2.21,0,0,1-1-.28c-.12.13-.71.75-1.43,1.62a1.37,1.37,0,0,1-1,.58,1.28,1.28,0,0,1-.94-.42,6.84,6.84,0,0,1-1.35-2.46,23.78,23.78,0,0,1-.9-3.14,15.5,15.5,0,0,1-.37-2.13,4.37,4.37,0,0,1,.94-3.37,3.47,3.47,0,0,1,2.39-1,8.68,8.68,0,0,1,3.31.56,3.8,3.8,0,0,1,2.23-.61,5.72,5.72,0,0,1,1.3.17h0a4,4,0,0,1,.57-.16,7.23,7.23,0,0,1,1.6-.2Zm.12.52h-.11a5.81,5.81,0,0,0-1.32.15A5.76,5.76,0,0,1,29.56,21a6.12,6.12,0,0,1,.87,1.48,3.2,3.2,0,0,1,.18.51l0,.18a.49.49,0,0,1,0,.11h0c0,.68-.14,1.14-.16,1.78,0,.47.1,1,.13,1.62a3.09,3.09,0,0,1-.4,1.79l.09.11a17.06,17.06,0,0,0,2-4.65,9,9,0,0,0,.32-2,2,2,0,0,0-.23-1.12,4.42,4.42,0,0,0-3.61-1.67Zm-3.7.19A3.16,3.16,0,0,0,23,20,4,4,0,0,0,22,21.64a6.87,6.87,0,0,0-.39,1.86h0a3.68,3.68,0,0,1,1-.4,2,2,0,0,1,1.18,0,1.36,1.36,0,0,1,.81,1,5.58,5.58,0,0,1-.43,4.15,6.48,6.48,0,0,0-.26.78l.1,0a.78.78,0,0,1,.42.08,1,1,0,0,1,.54.6A1.8,1.8,0,0,1,25,30a.34.34,0,0,1,0,.1c0,1,0,1.92,0,2.88,0,.42,0,.78.08,1.07a2.63,2.63,0,0,0,.11.58,2,2,0,0,0,.5.79A1.41,1.41,0,0,0,27,35.6a2.2,2.2,0,0,0,1.2-.56,2.05,2.05,0,0,0,.49-1.14c.13-.81.42-3.16.45-3.6a1.42,1.42,0,0,1,.14-.79.93.93,0,0,1,.43-.39l.19-.07-.18-.25a3.53,3.53,0,0,1-.52-.85l-.2-.37c-.1-.19-.23-.42-.36-.68A7.83,7.83,0,0,1,28,25.14a1.83,1.83,0,0,1,.21-1.7A2.09,2.09,0,0,1,30,23a2.38,2.38,0,0,0-.08-.26,6.27,6.27,0,0,0-.81-1.36,5,5,0,0,0-4-2h-.09Zm-5.12,0h-.29a2.94,2.94,0,0,0-2,.83,3.86,3.86,0,0,0-.8,3,16,16,0,0,0,.35,2.05,25.55,25.55,0,0,0,.88,3.07,6.69,6.69,0,0,0,1.23,2.26.75.75,0,0,0,.56.28c.17,0,.37-.1.61-.4.45-.54.92-1.06,1.4-1.58a2.7,2.7,0,0,1-.9-2.42,9.5,9.5,0,0,0,.08-1.53c0-.41,0-.68,0-.85v0h0a7.7,7.7,0,0,1,.46-2.6,4.42,4.42,0,0,1,1-1.63,8.89,8.89,0,0,0-2.23-.44Zm9.56,4.08a1.27,1.27,0,0,0-1,.32,1.37,1.37,0,0,0-.1,1.23,7.36,7.36,0,0,0,.68,1.65c.13.25.25.48.36.66a4.48,4.48,0,0,1,.22.43,1.46,1.46,0,0,0,.14.28,2.63,2.63,0,0,0,.22-1.28c0-.55-.16-1.1-.14-1.66s.15-1.09.16-1.59A3.48,3.48,0,0,0,29.53,23.46Zm-6.35.09a2.42,2.42,0,0,0-.47.05,4,4,0,0,0-.89.35,1.27,1.27,0,0,0-.27.18h0c0,.11,0,.39,0,.79a9.55,9.55,0,0,1-.09,1.61A2,2,0,0,0,23.38,29a7.37,7.37,0,0,1,.28-.83,4.91,4.91,0,0,0,.41-3.87.76.76,0,0,0-.48-.64,1.13,1.13,0,0,0-.41-.06Zm6.11.15h0l.14,0,.1,0a.15.15,0,0,1,.06.09h0a.19.19,0,0,1,0,.1.44.44,0,0,1-.08.11.51.51,0,0,1-.3.17.53.53,0,0,1-.32-.08l-.1-.09a.18.18,0,0,1,0-.1.1.1,0,0,1,0-.1.22.22,0,0,1,.09-.07.9.9,0,0,1,.29-.09Zm-6,.13h.13a.88.88,0,0,1,.3.1.39.39,0,0,1,.1.08.16.16,0,0,1,0,.13.17.17,0,0,1,0,.12l-.11.1a.56.56,0,0,1-.35.09.49.49,0,0,1-.32-.18l-.1-.12a.35.35,0,0,1,0-.14.19.19,0,0,1,.15-.15.5.5,0,0,1,.24,0Zm7,5.67h0l-.28.09a.35.35,0,0,0-.19.17,1,1,0,0,0-.07.51l.11.05a2.23,2.23,0,0,0,.6.07,4.12,4.12,0,0,0,1.42-.27,3.54,3.54,0,0,0,.73-.48h0a3.58,3.58,0,0,1-2.06,0,1,1,0,0,1-.25-.15Zm-6.2.07h0c-.05,0-.1,0-.22.15a5.28,5.28,0,0,1-.58.66,2.49,2.49,0,0,1-1.09.39,1.83,1.83,0,0,0-.35.11l.05,0a1.08,1.08,0,0,0,.28.11,2.78,2.78,0,0,0,1.08.06,1.84,1.84,0,0,0,1.24-.8.39.39,0,0,0,0-.37.55.55,0,0,0-.25-.3.43.43,0,0,0-.16-.05Z"/></svg>