<svg id="Layer_1" data-name="Layer 1" xmlns="http://www.w3.org/2000/svg" viewBox="0 0 40 40"><defs><style>.cls-1{fill:#010101;stroke:#010101;stroke-width:5.37px;}.cls-1,.cls-5,.cls-6{stroke-miterlimit:10;}.cls-2,.cls-3,.cls-4{fill:none;stroke-width:1.79px;}.cls-2,.cls-3,.cls-4,.cls-5,.cls-6{stroke:#fff;}.cls-2,.cls-3{stroke-linecap:round;}.cls-2,.cls-4{stroke-linejoin:round;}.cls-3{stroke-linejoin:bevel;}.cls-5,.cls-6{fill:#fff;}.cls-5{stroke-width:0.6px;}.cls-6{stroke-width:0.3px;}.cls-10,.cls-7,.cls-8,.cls-9{fill:#0065a6;}.cls-8{opacity:0.8;}.cls-9{opacity:0.6;}.cls-10{opacity:0.4;}.cls-11{opacity:0.16;}</style></defs><path class="cls-1" d="M21.4,29.47c.15-1.26.11-1.45,1.05-1.24l.24,0a5.55,5.55,0,0,0,2.24-.38c1.2-.55,1.91-1.48.73-1.24-2.7.56-2.89-.36-2.89-.36,2.84-4.22,4-9.58,3-10.89C23,11.8,18.12,13.49,18,13.53h0a9.56,9.56,0,0,0-1.8-.19,4.46,4.46,0,0,0-2.85.85s-8.65-3.56-8.25,4.49c.08,1.71,2.45,13,5.28,9.56,1-1.25,2-2.3,2-2.3a2.61,2.61,0,0,0,1.71.44l0,0a1.55,1.55,0,0,0,0,.48c-.73.81-.52,1-2,1.25s-.61.85,0,1A3,3,0,0,0,15.54,28l0,.18c.29.22.27,1.64.31,2.65a9.76,9.76,0,0,0,.31,2.5c.21.56.45,2,2.36,1.59,1.6-.34,2.82-.84,2.93-5.42"/><path class="cls-2" d="M15.65,27.45a26.43,26.43,0,0,0,.28,6,2.13,2.13,0,0,0,2.73,1.5,2.62,2.62,0,0,0,2.43-2.47l.59-4.68M13.36,14.14S4.7,10.6,5.1,18.65c.09,1.71,2.46,13,5.28,9.56,1-1.24,2-2.22,2-2.22M18,13.5c-.29.09,4.82-1.87,7.73,1.84,1,1.31-.17,6.68-3,10.9"/><path class="cls-3" d="M22.75,26.24s.18.91,2.89.36c1.18-.25.47.68-.73,1.24-1,.45-3.19.57-3.22-.06-.1-1.63,1.16-1.13,1.07-1.54s-.65-.73-1-1.63-4.43-6.8,1.15-5.9a7.08,7.08,0,0,0-6.68-5.39c-5.22-.08-5.06,6.42-5.06,6.42"/><path class="cls-4" d="M14.19,26.8c-.73.81-.51.95-2,1.25s-.61.84,0,1A3,3,0,0,0,15.52,28a1,1,0,0,0-.45-1.37.66.66,0,0,0-.88.22Z"/><path class="cls-2" d="M14.14,26.78a4,4,0,0,1,.4-1.71,6.66,6.66,0,0,0,.55-5.16c-.51-2.36-3.94-.49-3.94-.17a15.75,15.75,0,0,1-.05,3.13,2.94,2.94,0,0,0,3,3.48"/><path class="cls-5" d="M13.33,19.69c0,.11.2.4.48.44a.5.5,0,0,0,.53-.3c0-.11-.2-.23-.48-.27S13.34,19.58,13.33,19.69Z"/><path class="cls-6" d="M21.87,19.47c0,.1-.2.4-.48.44a.54.54,0,0,1-.54-.3c0-.11.2-.23.49-.27S21.86,19.36,21.87,19.47Z"/><path class="cls-2" d="M22.88,18.71c0,.86-.19,1.44-.22,2.35,0,1.33.63,2.85-.38,4.37"/><polygon class="cls-7" points="32.34 3.29 27.3 9.1 30.54 8.5 30.54 11.63 32.34 10.28 34.15 11.63 34.15 8.5 37.38 9.1 32.34 3.29"/><polygon class="cls-7" points="32.35 11.04 32.34 11.04 32.34 11.04 32.34 11.04 30.54 12.39 30.54 13.54 32.34 12.19 34.15 13.54 34.15 12.39 32.35 11.04 32.35 11.04"/><polygon class="cls-8" points="32.35 12.97 32.34 12.97 32.34 12.97 32.34 12.97 30.54 14.32 30.54 15.47 32.34 14.12 34.15 15.47 34.15 14.32 32.35 12.97 32.35 12.97"/><polygon class="cls-9" points="32.35 14.9 32.34 14.9 32.34 14.9 32.34 14.9 30.54 16.25 30.54 17.4 32.34 16.05 34.15 17.4 34.15 16.25 32.35 14.9 32.35 14.9"/><polygon class="cls-10" points="32.35 16.82 32.34 16.83 32.34 16.82 32.34 16.83 30.54 18.18 30.54 19.33 32.34 17.98 34.15 19.33 34.15 18.18 32.35 16.83 32.35 16.82"/><g class="cls-11"><polygon class="cls-7" points="32.35 16.82 32.34 16.83 32.34 17.98 34.15 19.33 34.15 18.18 32.35 16.83 32.35 16.82"/><polygon class="cls-7" points="32.35 14.9 32.34 14.9 32.34 16.05 34.15 17.4 34.15 16.25 32.35 14.9 32.35 14.9"/><polygon class="cls-7" points="32.35 11.04 32.34 11.04 32.34 12.19 34.15 13.54 34.15 12.39 32.35 11.04 32.35 11.04"/><polygon class="cls-7" points="34.15 11.63 34.15 8.5 37.38 9.1 32.34 3.29 32.34 10.28 34.15 11.63"/><polygon class="cls-7" points="32.35 12.97 32.34 12.97 32.34 14.12 34.15 15.47 34.15 14.32 32.35 12.97 32.35 12.97"/></g></svg>