<svg width="86" height="112" viewBox="0 0 86 112" fill="none" xmlns="http://www.w3.org/2000/svg">
<path fill-rule="evenodd" clip-rule="evenodd" d="M72.3536 44.4921C79.3915 44.6302 85.0544 50.3786 85.0544 57.4496V98.9216C85.0544 106.079 79.252 111.882 72.0944 111.882H13.256C6.09839 111.882 0.29599 106.079 0.29599 98.9216V57.4496C0.29599 50.422 5.88943 44.7009 12.8672 44.4953V30.0392C12.8672 13.6125 26.1837 0.29599 42.6104 0.29599C59.0371 0.29599 72.3536 13.6125 72.3536 30.0392V44.4921ZM25.8272 44.4896V30.0392C25.8272 20.7701 33.3413 13.256 42.6104 13.256C51.8795 13.256 59.3936 20.7701 59.3936 30.0392V44.4896H25.8272ZM53.4823 76.7259C53.7561 79.6699 52.9659 82.4675 51.4277 84.7381L52.8249 86.0156C53.5622 85.4836 54.5957 85.5223 55.2931 86.16L60.9978 91.3763C61.7966 92.1068 61.8521 93.3466 61.1216 94.1454L59.9202 95.4593C59.1897 96.2581 57.95 96.3136 57.1511 95.5831L51.4465 90.3668C50.6677 89.6548 50.5954 88.4587 51.2689 87.659L49.99 86.4895C48.0321 88.4715 45.3921 89.8011 42.401 90.0793C35.6536 90.7067 29.6751 85.7454 29.0477 78.998C28.4203 72.2506 33.3815 66.2721 40.129 65.6447C46.8764 65.0173 52.8549 69.9785 53.4823 76.7259ZM42.127 87.132C47.2467 86.6559 51.0111 82.1197 50.535 77C50.059 71.8803 45.5227 68.1159 40.403 68.5919C35.2833 69.068 31.5189 73.6043 31.995 78.7239C32.4711 83.8436 37.0073 87.608 42.127 87.132Z" fill="white"/>
</svg>
