<svg id="Layer_1" data-name="Layer 1" xmlns="http://www.w3.org/2000/svg" viewBox="0 0 40 40"><defs><style>.cls-1{fill:#fff;}.cls-2{fill:#476cb4;}</style></defs><path class="cls-1" d="M10.35,33.56a15,15,0,0,1-2-1.64V30.64a11.42,11.42,0,1,1,22.84,0v1.28a14.88,14.88,0,0,1-2.05,1.66,16.81,16.81,0,0,1-18.76,0Z"/><path class="cls-2" d="M19.17,15.56v1.15h1.14V15.56Zm.57-8a2.88,2.88,0,0,0-2.87,2.87H18a1.72,1.72,0,0,1,3.44,0c0,.62-.26.84-.85,1.3a8.46,8.46,0,0,0-.7.59,2.18,2.18,0,0,0-.74,1.56V15h1.14V13.83a1.23,1.23,0,0,1,.41-.73,4.6,4.6,0,0,1,.59-.5,2.58,2.58,0,0,0,1.3-2.21A2.88,2.88,0,0,0,19.74,7.52Z"/><path class="cls-1" d="M19.74,5.5a6.61,6.61,0,1,0,6.61,6.61A6.61,6.61,0,0,0,19.74,5.5Zm.57,11.21H19.17V15.56h1.14Zm1-4.11a4.6,4.6,0,0,0-.59.5,1.23,1.23,0,0,0-.41.73V15H19.17V13.84a2.18,2.18,0,0,1,.74-1.56,8.46,8.46,0,0,1,.7-.59c.59-.46.85-.68.85-1.3a1.72,1.72,0,0,0-3.44,0H16.87a2.87,2.87,0,1,1,5.74,0A2.58,2.58,0,0,1,21.31,12.6Z"/></svg>