<svg id="Layer_1" data-name="Layer 1" xmlns="http://www.w3.org/2000/svg" viewBox="0 0 40 40"><circle cx="20" cy="12.96" r="6.61" transform="translate(-3.31 17.94) rotate(-45)" fill="#fff"/><path d="M20,.42A19.58,19.58,0,0,0,4.46,31.9a18.54,18.54,0,0,0,2.19,2.41A18.18,18.18,0,0,0,9,36.23a19.47,19.47,0,0,0,11,3.35,19.82,19.82,0,0,0,11-3.33,17.26,17.26,0,0,0,2.4-1.94A19.46,19.46,0,0,0,39.57,20,19.57,19.57,0,0,0,20,.42Zm0,5.93A6.61,6.61,0,1,1,13.39,13,6.61,6.61,0,0,1,20,6.35ZM31.42,32.49a14.88,14.88,0,0,1-2.05,1.66,16.81,16.81,0,0,1-18.76,0,15.83,15.83,0,0,1-2-1.64V31.2a11.42,11.42,0,1,1,22.84,0Z" fill="#476cb4"/><text transform="translate(16.52 17.61)" font-size="12.38" fill="#476cb4" font-family="Adlinnaka-BoldDemo, Adlinnaka" font-weight="700">?</text><path d="M10.61,34.13a15,15,0,0,1-2-1.64V31.21a11.42,11.42,0,1,1,22.84,0v1.28a14.88,14.88,0,0,1-2.05,1.66,16.81,16.81,0,0,1-18.76,0Z" fill="#fff"/></svg>