<svg xmlns="http://www.w3.org/2000/svg" viewBox="0 0 67.23 65.24"><defs><style>.cls-1{fill:#fff;}</style></defs><g id="Layer_2" data-name="Layer 2"><g id="Layer_1-2" data-name="Layer 1"><g id="Layer_2-2" data-name="Layer 2"><g id="Layer_1-2-2" data-name="Layer 1-2"><path class="cls-1" d="M67.11,39.7,61.34,14.62a4.44,4.44,0,0,0-2.42-3L35.55.45A4.39,4.39,0,0,0,33.38,0a4.28,4.28,0,0,0-1.71.43L8.3,11.62a4.42,4.42,0,0,0-2.42,3L.11,39.71A4.37,4.37,0,0,0,.72,43.1c.08.13.16.24.25.36L17.15,63.57a4.54,4.54,0,0,0,3.49,1.67H46.58a4.5,4.5,0,0,0,3.5-1.66L66.25,43.45A4.37,4.37,0,0,0,67.11,39.7ZM52.3,34.44a18.71,18.71,0,0,1-34.09,9.82c3.87-1.37,15.74-5.69,8.4-4.44A90.12,90.12,0,0,1,16.1,41H11.75a8.75,8.75,0,0,1-1.47-.12c-2.78-.31-4.61-1.08-4.51-2.54.25-3.72,9.12-5.71,9.12-5.71h0a18.7,18.7,0,0,1,34-9.82c-3.93,1.4-15.64,5.66-8.34,4.41a86.23,86.23,0,0,1,10.5-1.16h4.36a13.27,13.27,0,0,1,1.46.12c2.78.31,4.62,1.08,4.52,2.53C61.15,32.42,52.45,34.41,52.3,34.44Z"/></g></g></g></g></svg>
