<svg width="152" height="141" viewBox="0 0 152 141" fill="none" xmlns="http://www.w3.org/2000/svg">
<path d="M90.198 6.25412C83.0843 1.11983 73.4815 1.11983 66.3678 6.25412L16.1732 42.4815C8.99006 47.6659 5.9836 56.9 8.73753 65.3197L27.8612 123.787C30.5987 132.157 38.4064 137.818 47.2121 137.818H109.354C118.159 137.818 125.967 132.157 128.705 123.787L147.828 65.3197C150.582 56.9 147.576 47.6659 140.393 42.4815L90.198 6.25412Z" fill="white" fill-opacity="0.1" stroke="white" stroke-width="4.52436"/>
<path fill-rule="evenodd" clip-rule="evenodd" d="M10.6943 116.648C1.50861 112.299 -2.37312 101.408 2.02429 92.3233C4.13603 87.9605 7.91356 84.606 12.5259 82.9979C17.1383 81.3898 22.2076 81.6597 26.6187 83.7483C35.8044 88.0976 39.6861 98.9883 35.2887 108.073C30.8913 117.158 19.88 120.998 10.6943 116.648Z" fill="white"/>
<path d="M18.4699 89.2591C18.2629 89.2694 18.06 89.3201 17.8732 89.4084L9.73091 93.2558C9.52017 93.3554 9.335 93.5002 9.18915 93.6795C9.0433 93.8589 8.94053 94.0682 8.88846 94.2918L6.87969 102.934C6.83331 103.133 6.82812 103.339 6.86443 103.541C6.90074 103.742 6.97781 103.934 7.09109 104.105C7.11856 104.147 7.1481 104.188 7.1796 104.227L12.8154 111.156C12.9613 111.336 13.1465 111.48 13.3572 111.58C13.568 111.679 13.7988 111.731 14.0327 111.731L23.0706 111.729C23.3044 111.729 23.5352 111.678 23.746 111.578C23.9567 111.479 24.142 111.334 24.2879 111.155L29.9217 104.225C30.0676 104.045 30.1705 103.836 30.2226 103.612C30.2747 103.388 30.2747 103.156 30.2226 102.932L28.2107 94.2898C28.1586 94.0661 28.0559 93.8568 27.91 93.6775C27.7642 93.4981 27.579 93.3533 27.3683 93.2538L19.2249 89.4084C18.99 89.2974 18.7304 89.246 18.4699 89.2591Z" fill="#326CE5"/>
<path d="M18.5428 92.2004C18.2737 92.2005 18.0554 92.4402 18.0555 92.7359C18.0555 92.7405 18.0564 92.7448 18.0565 92.7493C18.0561 92.7895 18.0541 92.8379 18.0555 92.8729C18.0619 93.0435 18.0995 93.174 18.1221 93.3312C18.1631 93.6675 18.1975 93.9464 18.1763 94.2055C18.1556 94.3032 18.0829 94.3926 18.018 94.4547L18.0065 94.6586C17.714 94.6826 17.4196 94.7265 17.1255 94.7925C15.8601 95.0767 14.7706 95.7213 13.9411 96.5916C13.8873 96.5553 13.7931 96.4885 13.7651 96.468C13.6781 96.4797 13.5901 96.5062 13.4756 96.4402C13.2575 96.2951 13.0589 96.0946 12.8185 95.8532C12.7084 95.7378 12.6286 95.6278 12.4978 95.5165C12.4681 95.4912 12.4227 95.457 12.3895 95.431C12.2872 95.3503 12.1665 95.3083 12.05 95.3043C11.9002 95.2993 11.7559 95.3572 11.6616 95.4743C11.4938 95.6824 11.5475 96.0005 11.7813 96.1848C11.7837 96.1867 11.7862 96.1882 11.7886 96.19C11.8207 96.2157 11.8601 96.2488 11.8896 96.2703C12.0285 96.3717 12.1553 96.4236 12.2937 96.5041C12.5851 96.6821 12.8268 96.8297 13.0184 97.0077C13.0933 97.0866 13.1064 97.2256 13.1163 97.2857L13.2725 97.4237C12.4363 98.6682 12.0493 100.205 12.278 101.772L12.0739 101.83C12.0201 101.899 11.9441 102.007 11.8646 102.039C11.6139 102.118 11.3317 102.146 10.9909 102.182C10.831 102.195 10.693 102.187 10.5234 102.219C10.486 102.226 10.434 102.239 10.3932 102.248C10.3918 102.249 10.3905 102.249 10.389 102.249C10.3868 102.25 10.3839 102.251 10.3817 102.252C10.0945 102.32 9.90997 102.581 9.96937 102.839C10.0288 103.096 10.3094 103.252 10.5983 103.191C10.6004 103.19 10.6035 103.19 10.6056 103.19C10.6089 103.189 10.6118 103.187 10.615 103.187C10.6553 103.178 10.7058 103.168 10.741 103.159C10.9077 103.115 11.0285 103.05 11.1784 102.993C11.5008 102.879 11.7679 102.783 12.0281 102.746C12.1368 102.737 12.2513 102.812 12.3082 102.844L12.5207 102.808C13.0095 104.307 14.034 105.518 15.3313 106.278L15.2428 106.488C15.2747 106.57 15.3099 106.68 15.2861 106.761C15.1915 107.003 15.0295 107.259 14.845 107.545C14.7556 107.677 14.6642 107.779 14.5836 107.93C14.5643 107.966 14.5397 108.022 14.5211 108.06C14.3959 108.325 14.4877 108.63 14.7283 108.745C14.9705 108.86 15.271 108.738 15.4011 108.473C15.4013 108.472 15.4019 108.472 15.4021 108.472C15.4022 108.471 15.402 108.471 15.4021 108.471C15.4206 108.433 15.4469 108.384 15.4625 108.348C15.5315 108.192 15.5545 108.058 15.6031 107.906C15.732 107.586 15.8029 107.25 15.9804 107.04C16.029 106.983 16.1082 106.961 16.1904 106.939L16.3008 106.742C17.4317 107.171 18.6976 107.286 19.9622 107.002C20.2506 106.937 20.5291 106.854 20.7984 106.753C20.8294 106.807 20.887 106.912 20.9025 106.938C20.986 106.965 21.0771 106.979 21.1514 107.088C21.2842 107.312 21.375 107.577 21.4857 107.898C21.5342 108.049 21.5582 108.183 21.6273 108.34C21.643 108.376 21.6691 108.426 21.6877 108.463C21.8175 108.73 22.119 108.852 22.3614 108.736C22.602 108.622 22.694 108.317 22.5687 108.052C22.55 108.013 22.5244 107.958 22.5051 107.922C22.4245 107.771 22.3331 107.67 22.2438 107.538C22.0592 107.252 21.9062 107.015 21.8116 106.772C21.772 106.647 21.8183 106.57 21.8491 106.488C21.8306 106.467 21.7912 106.349 21.7679 106.294C23.116 105.506 24.1104 104.25 24.5774 102.798C24.6405 102.808 24.7501 102.827 24.7857 102.834C24.859 102.787 24.9264 102.724 25.0585 102.735C25.3187 102.772 25.5858 102.867 25.9083 102.982C26.0582 103.038 26.1789 103.104 26.3456 103.149C26.3809 103.158 26.4314 103.167 26.4716 103.175C26.4749 103.176 26.4778 103.178 26.481 103.178C26.4832 103.179 26.4862 103.179 26.4883 103.179C26.7773 103.241 27.0579 103.085 27.1173 102.827C27.1766 102.57 26.9922 102.309 26.7049 102.24C26.6631 102.231 26.6039 102.215 26.5633 102.207C26.3937 102.176 26.2557 102.183 26.0957 102.17C25.755 102.135 25.4728 102.106 25.222 102.028C25.1198 101.989 25.047 101.869 25.0117 101.819L24.8149 101.762C24.9169 101.032 24.8894 100.272 24.7128 99.5122C24.5346 98.7449 24.2196 98.0431 23.7995 97.4248C23.85 97.3794 23.9454 97.2959 23.9724 97.2713C23.9803 97.1848 23.9735 97.0942 24.064 96.9984C24.2557 96.8204 24.4974 96.6728 24.7888 96.4948C24.9272 96.4143 25.0551 96.3624 25.1939 96.261C25.2253 96.2381 25.2682 96.2018 25.3012 96.1756C25.5349 95.9911 25.5888 95.6731 25.4209 95.465C25.2531 95.2569 24.9278 95.2373 24.6941 95.4217C24.6608 95.4478 24.6156 95.4818 24.5858 95.5072C24.4549 95.6185 24.3741 95.7285 24.264 95.844C24.0236 96.0854 23.825 96.2868 23.6069 96.432C23.5124 96.4864 23.374 96.4676 23.3111 96.4639L23.1258 96.5947C22.0688 95.4986 20.6297 94.7979 19.0801 94.6617C19.0758 94.5975 19.0701 94.4814 19.0687 94.4465C19.0053 94.3865 18.9286 94.3352 18.9094 94.2055C18.8882 93.9464 18.9236 93.6675 18.9646 93.3312C18.9872 93.174 19.0248 93.0435 19.0312 92.8729C19.0327 92.8341 19.0303 92.7779 19.0302 92.7359C19.0301 92.4402 18.812 92.2004 18.5428 92.2004H18.5428ZM17.9326 95.9387L17.7878 98.4669L17.7774 98.4721C17.7677 98.6983 17.5795 98.8789 17.3484 98.8789C17.2537 98.8789 17.1663 98.8488 17.0953 98.7975L17.0912 98.7996L14.9949 97.33C15.6392 96.7035 16.4632 96.2405 17.4129 96.0273C17.5864 95.9883 17.7598 95.9594 17.9326 95.9387ZM19.1541 95.9387C20.2629 96.0736 21.2883 96.5701 22.074 97.331L19.9913 98.7913L19.984 98.7882C19.7992 98.9218 19.5387 98.8886 19.3946 98.71C19.3356 98.6368 19.3046 98.5507 19.3009 98.4638L19.2988 98.4628L19.1541 95.9387ZM14.2347 98.2744L16.1487 99.9674L16.1467 99.9777C16.3194 100.126 16.3449 100.384 16.2008 100.563C16.1418 100.636 16.0628 100.685 15.978 100.708L15.9759 100.716L13.5225 101.416C13.3976 100.287 13.6667 99.1895 14.2347 98.2744ZM22.8373 98.2754C23.1217 98.7312 23.3371 99.2404 23.4653 99.7923C23.5919 100.338 23.6237 100.882 23.5715 101.408L21.1056 100.706L21.1035 100.695C20.8827 100.636 20.747 100.414 20.7984 100.191C20.8194 100.1 20.8684 100.022 20.9348 99.9653L20.9338 99.9602L22.8373 98.2754H22.8373ZM18.1502 100.098H18.9344L19.4217 100.701L19.2468 101.452L18.5428 101.787L17.8368 101.451L17.6618 100.7L18.1502 100.098ZM20.664 102.16C20.6974 102.158 20.7305 102.161 20.763 102.167L20.7671 102.162L23.3049 102.586C22.9335 103.618 22.2228 104.512 21.2732 105.11L20.2881 102.757L20.2912 102.753C20.2007 102.545 20.2913 102.301 20.4995 102.202C20.5528 102.177 20.6085 102.163 20.664 102.16H20.664ZM16.4018 102.17C16.5955 102.173 16.7692 102.306 16.8142 102.501C16.8352 102.592 16.825 102.682 16.7902 102.762L16.7975 102.772L15.8228 105.101C14.9115 104.523 14.1857 103.657 13.7974 102.594L16.3133 102.172L16.3174 102.177C16.3456 102.172 16.3741 102.17 16.4018 102.17V102.17ZM18.5272 103.191C18.5947 103.188 18.6631 103.202 18.7282 103.233C18.8135 103.274 18.8793 103.338 18.9208 103.414H18.9302L20.1704 105.63C20.0095 105.684 19.844 105.729 19.6748 105.767C18.7262 105.98 17.7807 105.916 16.9246 105.627L18.1617 103.415H18.1638C18.238 103.278 18.3788 103.196 18.5272 103.191Z" fill="white" stroke="white" stroke-width="0.226218"/>
</svg>
