<svg xmlns="http://www.w3.org/2000/svg" viewBox="0 0 208.39 203.15"><title>Tanzu-Logomark</title><g><path d="M135.63,181.8H72.37a8.2,8.2,0,0,1-6.43-3.09L26,128.54a8.3,8.3,0,0,1-1.55-7.11L39.67,60A8.21,8.21,0,0,1,44,54.62L100.5,26.26a8.25,8.25,0,0,1,7.33,0L165.09,54.6a8.17,8.17,0,0,1,4.35,5.47L184,121.49a8.16,8.16,0,0,1-1.59,7L142,178.73A8.18,8.18,0,0,1,135.63,181.8Zm-63.14-8.48h63l40.2-50L161.22,62.14l-57-28.24L47.87,62.14,32.66,123.35Z" style="fill:#218fcf"/><g><polygon points="176.79 43.32 183.96 37.41 108.41 0 108.41 9.46 176.79 43.32" style="fill:#19bfd3"/><polygon points="11.04 131.21 1.82 133.26 54.55 199.41 58.68 190.98 11.04 131.21" style="fill:#78be43"/><polygon points="99.94 9.5 99.94 .02 25.38 37.41 32.34 43.41 99.94 9.5" style="fill:#19bfd3"/><polygon points="27.3 50.26 20.11 44.06 0 124.97 9.25 122.92 27.3 50.26" style="fill:#1e4489"/><polygon points="199.19 122.96 208.39 125 189.22 44.06 181.93 50.07 199.19 122.96" style="fill:#1e4489"/><polygon points="197.27 131.22 149.13 191.1 153.25 199.5 206.5 133.27 197.27 131.22" style="fill:#78be43"/><polygon points="66.32 194.67 62.16 203.15 145.59 203.15 141.44 194.67 66.32 194.67" style="fill:#19bfd3"/></g></g></svg>