<svg width="40" height="40" viewBox="0 0 40 40" xmlns="http://www.w3.org/2000/svg">  <g id="Icon-Architecture/32/Arch_AWS-IoT-RoboRunner_32" stroke="none" stroke-width="1" fill="none" fill-rule="evenodd">  <g id="Icon-Service/32/AWS-IoT-RoboRunner_32" transform="translate(6.000000, 6.000000)" fill="#FFFFFF"> <path d="M4,25.5 C4,24.673 3.327,24 2.5,24 C1.673,24 1,24.673 1,25.5 C1,26.327 1.673,27 2.5,27 C3.327,27 4,26.327 4,25.5 L4,25.5 Z M4.949,25 L12,25 L12,26 L4.949,26 C4.717,27.14 3.708,28 2.5,28 C1.121,28 0,26.878 0,25.5 C0,24.122 1.121,23 2.5,23 C3.708,23 4.717,23.86 4.949,25 L4.949,25 Z M27,25.5 C27,24.673 26.327,24 25.5,24 C24.673,24 24,24.673 24,25.5 C24,26.327 24.673,27 25.5,27 C26.327,27 27,26.327 27,25.5 L27,25.5 Z M14.25,19 C16.869,19 19,16.869 19,14.25 C19,11.631 16.869,9.5 14.25,9.5 C11.631,9.5 9.5,11.631 9.5,14.25 C9.5,16.869 11.631,19 14.25,19 L14.25,19 Z M4,2.5 C4,1.673 3.327,1 2.5,1 C1.673,1 1,1.673 1,2.5 C1,3.327 1.673,4 2.5,4 C3.327,4 4,3.327 4,2.5 L4,2.5 Z M28,25.5 C28,26.878 26.879,28 25.5,28 C24.292,28 23.283,27.14 23.051,26 L14.5,26 C14.224,26 14,25.776 14,25.5 L14,19.987 C10.946,19.855 8.5,17.336 8.5,14.25 C8.5,11.164 10.946,8.645 14,8.513 L14,3 L4.949,3 C4.717,4.14 3.708,5 2.5,5 C1.121,5 0,3.878 0,2.5 C0,1.122 1.121,0 2.5,0 C3.708,0 4.717,0.86 4.949,2 L14.5,2 C14.776,2 15,2.224 15,2.5 L15,8.555 C17.817,8.924 20,11.334 20,14.25 C20,17.166 17.817,19.576 15,19.945 L15,25 L23.051,25 C23.283,23.86 24.292,23 25.5,23 C26.879,23 28,24.122 28,25.5 L28,25.5 Z M24,2.5 C24,3.327 24.673,4 25.5,4 C26.327,4 27,3.327 27,2.5 C27,1.673 26.327,1 25.5,1 C24.673,1 24,1.673 24,2.5 L24,2.5 Z M23.051,3 L17,3 L17,2 L23.051,2 C23.283,0.86 24.292,0 25.5,0 C26.879,0 28,1.122 28,2.5 C28,3.878 26.879,5 25.5,5 C24.292,5 23.283,4.14 23.051,3 L23.051,3 Z M21.021,21.02 C24.892,17.149 24.892,10.851 21.021,6.98 L20.313,7.687 C23.735,11.109 23.735,16.891 20.313,20.313 L21.021,21.02 Z M7.687,7.687 C4.265,11.109 4.265,16.891 7.687,20.313 L6.979,21.02 C3.108,17.149 3.108,10.851 6.979,6.98 L7.687,7.687 Z" id="Fill-3"></path> </g> </g></svg>