<svg height="180" viewBox="0 0 190 180" width="190" xmlns="http://www.w3.org/2000/svg"><g fill="#fff" fill-rule="evenodd" transform="translate(5 2.5)"><g fill-rule="nonzero"><path d="m60.608247 127.70573 25.61523 40.25723h47.105533l33.7947-40.31564-55.10148-17.61028zm53.144273-22.4982 60.25769 19.23232c1.84039.5874 2.54765 2.19874 1.50847 3.43678l-36.89883 43.95959c-.60618.72219-1.69532 1.16378-2.87032 1.16378h-51.389495c-1.311331 0-2.502143-.54885-3.047339-1.40454l-28.008625-43.9596c-.759927-1.1927-.04737-2.60232 1.60151-3.1682l56.039259-19.23233c.88508-.30375 1.91125-.31392 2.80768-.0278z"/><path d="m2.9787234 175c-1.6451035 0-2.9787234-1.34227-2.9787234-2.99805v-137.053516c0-.831568.34315657-1.62578.94746574-2.192845l34.04255326-31.94444996c1.90446-1.78708477 5.009981-.42781309 5.009981 2.19284476v168.9979662c0 1.65578-1.33362 2.99805-2.978723 2.99805zm31.0638296-5.99609v-159.1058745l-28.0851062 26.3541715v132.751703z"/><path d="m150.5808 31.140041-113.216159-25.4280595 1.334783-5.7119815 138.977676 31.21403c3.46975.779296 2.89224 5.78597-.66739 5.78597h-173.00971v-5.859959z"/><path d="m79.565074 117.23897c0 1.52487-1.245784 2.76103-2.782537 2.76103s-2.782537-1.23616-2.782537-2.76103v-18.477939c0-1.524875 1.245784-2.761031 2.782537-2.761031h30.434923c1.53676 0 2.78254 1.236156 2.78254 2.761031v8.166429c0 1.52487-1.24578 2.76103-2.78254 2.76103-1.53675 0-2.78253-1.23616-2.78253-2.76103v-5.4054h-24.869856z"/><path d="m120.56507 120.15665c0 1.57034-1.24578 2.84335-2.78253 2.84335-1.53676 0-2.78254-1.27301-2.78254-2.84335v-21.313304c0-1.570337 1.24578-2.843346 2.78254-2.843346h30.43492c1.53676 0 2.78254 1.27301 2.78254 2.843346v11.646344c0 1.57034-1.24578 2.84335-2.78254 2.84335-1.53675 0-2.78253-1.27301-2.78253-2.84335v-8.803h-24.86986z" transform="matrix(-1 0 0 1 266 0)"/><path d="m121.49316 85.466146h24.01368v-22.932292h-24.01368zm-3.29589-28.466146h30.60546c1.21352 0 2.19727.991036 2.19727 2.213542v29.572916c0 1.222506-.98375 2.213542-2.19727 2.213542h-30.60546c-1.21352 0-2.19727-.991036-2.19727-2.213542v-29.572916c0-1.222506.98375-2.213542 2.19727-2.213542z"/></g><path d="m112 108v60h21.33296l35.66704-42.4968z"/><path d="m90.5 91c-9.664983 0-17.5-7.835017-17.5-17.5s7.835017-17.5 17.5-17.5c9.66498 0 17.5 7.835017 17.5 17.5s-7.83502 17.5-17.5 17.5zm0-5.46875c6.644676 0 12.03125-5.386574 12.03125-12.03125s-5.386574-12.03125-12.03125-12.03125-12.03125 5.386574-12.03125 12.03125 5.386574 12.03125 12.03125 12.03125z" fill-rule="nonzero"/></g></svg>
