<svg width="40" height="40" viewBox="0 0 40 40" fill="none" xmlns="http://www.w3.org/2000/svg">
<g clip-path="url(#clip0_23310_9462)">
<path d="M40 0H0V40H40V0Z" fill="#8C4FFF" fill-opacity="0.12"/>
<path fill-rule="evenodd" clip-rule="evenodd" d="M21.631 31.876C22.114 31.433 22.423 30.802 22.423 30.096C22.423 28.931 21.597 27.957 20.5 27.726V23.509C22.06 23.287 23.287 22.06 23.509 20.5H27.727C27.957 21.597 28.932 22.423 30.096 22.423C30.802 22.423 31.433 22.114 31.876 21.631C31.149 26.942 26.943 31.149 21.631 31.876ZM8.124 21.631C8.568 22.114 9.198 22.423 9.904 22.423C11.068 22.423 12.043 21.597 12.274 20.5H16.491C16.713 22.06 17.941 23.287 19.5 23.509V27.726C18.403 27.957 17.577 28.931 17.577 30.096C17.577 30.802 17.886 31.433 18.369 31.876C13.058 31.149 8.852 26.942 8.124 21.631ZM11.327 20C11.327 20.785 10.689 21.423 9.904 21.423C9.119 21.423 8.481 20.785 8.481 20C8.481 19.215 9.119 18.577 9.904 18.577C10.689 18.577 11.327 19.215 11.327 20ZM18.369 8.124C17.886 8.567 17.577 9.198 17.577 9.904C17.577 11.069 18.403 12.043 19.5 12.274V16.491C17.941 16.713 16.713 17.94 16.491 19.5H12.274C12.043 18.403 11.068 17.577 9.904 17.577C9.198 17.577 8.568 17.886 8.124 18.369C8.852 13.058 13.058 8.851 18.369 8.124ZM20 8.481C20.784 8.481 21.423 9.119 21.423 9.904C21.423 10.689 20.784 11.327 20 11.327C19.216 11.327 18.577 10.689 18.577 9.904C18.577 9.119 19.216 8.481 20 8.481ZM20 22.56C18.589 22.56 17.441 21.411 17.441 20C17.441 18.589 18.589 17.44 20 17.44C21.411 17.44 22.56 18.589 22.56 20C22.56 21.411 21.411 22.56 20 22.56ZM20 31.519C19.216 31.519 18.577 30.881 18.577 30.096C18.577 29.312 19.216 28.673 20 28.673C20.784 28.673 21.423 29.312 21.423 30.096C21.423 30.881 20.784 31.519 20 31.519ZM31.52 20C31.52 20.785 30.881 21.423 30.096 21.423C29.312 21.423 28.673 20.785 28.673 20C28.673 19.215 29.312 18.577 30.096 18.577C30.881 18.577 31.52 19.215 31.52 20ZM31.876 18.369C31.433 17.886 30.802 17.577 30.096 17.577C28.932 17.577 27.957 18.403 27.727 19.5H23.509C23.287 17.94 22.06 16.713 20.5 16.491V12.274C21.597 12.043 22.423 11.069 22.423 9.904C22.423 9.198 22.114 8.567 21.631 8.124C26.943 8.851 31.149 13.058 31.876 18.369ZM20 7C12.832 7 7 12.832 7 20C7 27.168 12.832 33 20 33C27.168 33 33 27.168 33 20C33 12.832 27.168 7 20 7Z" fill="#8C4FFF"/>
</g>
<rect x="0.5" y="0.5" width="39" height="39" stroke="#8C4FFF"/>
<defs>
<clipPath id="clip0_23310_9462">
<rect width="40" height="40" fill="white"/>
</clipPath>
</defs>
</svg>
