<svg width="40" height="40" viewBox="0 0 40 40" fill="none" xmlns="http://www.w3.org/2000/svg">
<g clip-path="url(#clip0_23299_4151)">
<path d="M40 0H0V40H40V0Z" fill="#E7157B" fill-opacity="0.12"/>
<path fill-rule="evenodd" clip-rule="evenodd" d="M22 19.5V21H17V19.5C17 17.771 17.771 17 19.5 17C21.229 17 22 17.771 22 19.5ZM24.643 7.514L24.262 8.439C29.548 10.619 32.677 16.125 31.87 21.829C31.089 27.352 26.486 31.807 20.926 32.421C17.318 32.818 13.847 31.718 11.164 29.315C8.518 26.945 7 23.55 7 20C7 13.275 12.338 7.773 19 7.51V16.035C17.042 16.207 16 17.388 16 19.5V21.5C16 21.776 16.224 22 16.5 22H17V25H18V22H21V25H22V22H22.5C22.776 22 23 21.776 23 21.5V19.5C23 17.388 21.958 16.207 20 16.035V7C20 6.724 19.776 6.5 19.5 6.5C12.056 6.5 6 12.556 6 20C6 23.834 7.639 27.5 10.497 30.06C13.006 32.307 16.148 33.501 19.479 33.501C19.993 33.501 20.513 33.473 21.035 33.415C27.043 32.751 32.017 27.937 32.86 21.968C33.731 15.812 30.352 9.868 24.643 7.514Z" fill="#E7157B"/>
</g>
<rect x="0.5" y="0.5" width="39" height="39" stroke="#E7157B"/>
<defs>
<clipPath id="clip0_23299_4151">
<rect width="40" height="40" fill="white"/>
</clipPath>
</defs>
</svg>
