<svg width="40" height="40" viewBox="0 0 40 40" xmlns="http://www.w3.org/2000/svg">  <g id="Icon-Architecture/32/Arch_AWS-Distro-for-OpenTelemetry_32" stroke="none" stroke-width="1" fill="none" fill-rule="evenodd">  <g id="Icon-Service/32/AWS-Distro-for-OpenTelemetry_32" transform="translate(6.000000, 8.000000)" fill="#FFFFFF"> <path d="M27,1 L25.5,1 C24.175,1 24.016,2.352 24,2.53 L24,8 L23,8 L23,3 L21,3 L21,10 L23.5,10 C23.763,10 23.98,10.203 23.999,10.464 C24.012,10.62 24.162,12 25.5,12 L27,12 L27,1 Z M1,8 L9,8 L9,5 L1,5 L1,8 Z M28,0.5 L28,12.5 C28,12.776 27.776,13 27.5,13 L25.5,13 C23.961,13 23.289,11.868 23.076,11 L20.5,11 L19,11 L19,10 L20,10 L20,3 L11.5,3 C10.673,3 10,3.673 10,4.5 L10,5 L10,8 L10,8.5 C10,9.327 10.673,10 11.5,10 L13,10 L13,11 L11.5,11 C10.292,11 9.283,10.14 9.051,9 L1,9 L1,11 L0,11 L0,8.5 L0,4.5 L0,2 L1,2 L1,4 L9.051,4 C9.283,2.86 10.292,2 11.5,2 L20.5,2 L21,2 L23.076,2 C23.289,1.132 23.961,0 25.5,0 L27.5,0 C27.776,0 28,0.224 28,0.5 L28,0.5 Z M23.5,18 L27,18 L27,19 L23.839,19 L21.964,23.686 C21.889,23.876 21.704,24 21.5,24 L21.489,24 C21.281,23.996 21.098,23.863 21.028,23.667 L15.514,8.041 L10.975,21.658 C10.909,21.855 10.729,21.991 10.521,22 C10.318,22.012 10.121,21.887 10.04,21.697 L7.507,15.786 L5.467,20.692 C5.389,20.878 5.207,21 5.005,21 L1,21 L1,20 L4.671,20 L7.038,14.308 C7.115,14.123 7.296,14.001 7.497,14 L7.5,14 C7.7,14 7.881,14.119 7.96,14.303 L10.441,20.094 L15.025,6.342 C15.093,6.139 15.282,6.002 15.496,6 C15.718,5.984 15.901,6.133 15.972,6.333 L21.529,22.081 L23.036,18.314 C23.111,18.125 23.296,18 23.5,18 L23.5,18 Z" id="Fill-5"></path> </g> </g></svg>