<svg xmlns="http://www.w3.org/2000/svg" viewBox="0 0 137.15 161.5"><defs><style>.cls-1{fill:#5ec6cc;}.cls-2{fill:#fff;}.cls-3{fill:#57c7d7;}.cls-4{fill:#37c2d6;}</style></defs><g id="Layer_2" data-name="Layer 2"><g id="MasterLayer_1" data-name="MasterLayer 1"><path d="M52.7,26.2c0-.74,0-1.44,0-2.14a15.36,15.36,0,0,1,2-8.73c1.85-3.44,3.41-7,5.25-10.47A9,9,0,0,1,66.69.18,9.76,9.76,0,0,1,76.62,4,24,24,0,0,1,78.82,8c1.49,3,2.94,6,4.43,9A10.64,10.64,0,0,1,84.42,22c0,1.4,0,2.8,0,4.18a68.65,68.65,0,1,1-31.71,0Zm0,3.07c-.36.08-.63.13-.9.2A64.89,64.89,0,0,0,13.22,57.66,63.26,63.26,0,0,0,3,92.9a72,72,0,0,0,.85,10.57A40,40,0,0,0,6,112.26a20.89,20.89,0,0,0,30.13,10.21,20.2,20.2,0,0,0,10.31-16.9c.19-3,0-6.07,0-9.11a2,2,0,0,0-.11-.42c-.34,0-.65,0-1,0A1.52,1.52,0,0,1,43.83,94c.13-.49.25-1,.38-1.47l1.44-5.72H35c-1.36,0-1.87-.53-1.88-1.89,0-.93,0-1.86,0-2.79A18,18,0,0,1,39,68.64c4.38-4.13,8.8-8.22,13.17-12.36a1.87,1.87,0,0,0,.51-1.21c0-8.3,0-16.61,0-24.91Zm31.84-.06a2.16,2.16,0,0,0-.08.39c0,8.58,0,17.16,0,25.74a1.38,1.38,0,0,0,.46.9q6.36,6,12.75,11.93a19.67,19.67,0,0,1,5.12,7.33,23.63,23.63,0,0,1,1.2,9.29c0,1.46-.51,2-2,2H92.46c-.29,0-.58,0-.91,0,.58,2.46,1.15,4.84,1.69,7.21a1.49,1.49,0,0,1-1.55,2c-.32,0-.65,0-1,0,0,3,0,5.8,0,8.63a21.52,21.52,0,0,0,.45,4.09,20.89,20.89,0,0,0,25.19,16.1c7.62-1.71,13-6.43,15.3-13.88A61.69,61.69,0,0,0,133,80.39,65.84,65.84,0,0,0,89.26,30.63C87.7,30.11,86.11,29.69,84.52,29.21Zm-3,43.84v-.8q0-25.24,0-50.48a7.64,7.64,0,0,0-.68-3c-1.14-2.53-2.44-5-3.65-7.49a.85.85,0,0,0-.9-.55q-7.73,0-15.45,0a.9.9,0,0,0-.94.61c-1.19,2.45-2.48,4.85-3.58,7.34a8.1,8.1,0,0,0-.72,3.25q-.06,25.11,0,50.22V73H67.13V40c0-1.47.46-2.16,1.42-2.17S70,38.53,70,40V73.05ZM61.8,96v32.48a6.85,6.85,0,0,0,6.81,6.83c4,0,7-3.13,7-7.48q0-15.44,0-30.89v-.93c-.53,0-.92,0-1.31,0a1.54,1.54,0,0,1-1.6-2.14c.18-.68.36-1.35.53-2,.43-1.68.84-3.35,1.27-5.07H62.7c.57,2.45,1.14,4.85,1.7,7.25A1.49,1.49,0,0,1,63,96C62.61,96.07,62.25,96,61.8,96Zm32.4-27v1c0,3,0,6,0,9,0,1.15-.53,1.75-1.48,1.74s-1.38-.55-1.38-1.7c0-3.55-.08-7.1,0-10.64a4.15,4.15,0,0,0-1.6-3.76c-1.83-1.5-3.49-3.2-5.3-4.89V83.82H101C101.52,77.64,99.09,72.86,94.2,69.05Zm-58,14.75H52.65V59.86l-4.22,3.92c-.88.83-2.08,1.53-2.52,2.55s-.13,2.37-.13,3.58c0,3.15,0,6.31,0,9.46a1.32,1.32,0,0,1-1.25,1.49,1.41,1.41,0,0,1-1.6-1.36c0-.22,0-.45,0-.68V70c0-.27,0-.54,0-.85C37.8,72.92,35.46,78.27,36.16,83.8ZM81.51,76H55.64V83.8H81.51ZM47,93.11H61.2l-1.5-6.34H48.65Zm43,0c-.39-1.67-.75-3.22-1.12-4.77s-.4-1.62-2.09-1.62H77.52C77,88.87,76.45,91,75.9,93.12ZM75.28,7.84c-.53-2.57-3.51-5.28-7.6-4.86-2.72.27-5.62,2.63-5.79,4.86H75.28Z"/><path class="cls-1" d="M52.68,29.27v.89c0,8.3,0,16.61,0,24.91a1.87,1.87,0,0,1-.51,1.21C47.78,60.42,43.36,64.51,39,68.64a18,18,0,0,0-5.85,13.43c0,.93,0,1.86,0,2.79,0,1.36.52,1.89,1.88,1.89H45.65l-1.44,5.72c-.13.49-.25,1-.38,1.47A1.52,1.52,0,0,0,45.39,96c.31,0,.62,0,1,0a2,2,0,0,1,.11.42c0,3,.16,6.08,0,9.11a20.2,20.2,0,0,1-10.31,16.9A20.89,20.89,0,0,1,6,112.26a40,40,0,0,1-2.19-8.79A72,72,0,0,1,3,92.9,63.26,63.26,0,0,1,13.22,57.66,64.89,64.89,0,0,1,51.78,29.47C52.05,29.4,52.32,29.35,52.68,29.27Z"/><path class="cls-1" d="M84.52,29.21c1.59.48,3.18.9,4.74,1.42A65.84,65.84,0,0,1,133,80.39,61.69,61.69,0,0,1,131.62,111c-2.32,7.45-7.68,12.17-15.3,13.88a20.89,20.89,0,0,1-25.19-16.1,21.52,21.52,0,0,1-.45-4.09c-.06-2.83,0-5.67,0-8.63.38,0,.71,0,1,0a1.49,1.49,0,0,0,1.55-2c-.54-2.37-1.11-4.75-1.69-7.21.33,0,.62,0,.91,0H102c1.48,0,2-.51,2-2a23.63,23.63,0,0,0-1.2-9.29,19.67,19.67,0,0,0-5.12-7.33q-6.4-5.93-12.75-11.93a1.38,1.38,0,0,1-.46-.9c0-8.58,0-17.16,0-25.74A2.16,2.16,0,0,1,84.52,29.21Z"/><path class="cls-2" d="M81.54,73.05H70V40c0-1.44-.48-2.16-1.43-2.15s-1.42.7-1.42,2.17V73H55.57v-.89q0-25.11,0-50.22a8.1,8.1,0,0,1,.72-3.25c1.1-2.49,2.39-4.89,3.58-7.34a.9.9,0,0,1,.94-.61q7.72,0,15.45,0a.85.85,0,0,1,.9.55c1.21,2.5,2.51,5,3.65,7.49a7.64,7.64,0,0,1,.68,3q.06,25.23,0,50.48ZM68.1,16.48a8.68,8.68,0,0,0-4.81,1.57,9.05,9.05,0,0,0-4.08,7.8,1.37,1.37,0,0,0,1.36,1.43A1.46,1.46,0,0,0,62,26c0-.25,0-.5.07-.75A6.51,6.51,0,0,1,71,19.79a6.32,6.32,0,0,1,4.1,5.78c.09,1.11.61,1.72,1.46,1.71s1.42-.7,1.39-1.84A9.3,9.3,0,0,0,68.1,16.48Z"/><path class="cls-3" d="M61.8,96c.45,0,.81,0,1.17,0a1.49,1.49,0,0,0,1.43-2c-.56-2.4-1.13-4.8-1.7-7.25H74.49c-.43,1.72-.84,3.39-1.27,5.07-.17.68-.35,1.35-.53,2A1.54,1.54,0,0,0,74.29,96c.39,0,.78,0,1.31,0V97q0,15.45,0,30.89c0,4.35-3,7.51-7,7.48a6.85,6.85,0,0,1-6.81-6.83V96Z"/><path class="cls-2" d="M94.2,69.05c4.89,3.81,7.32,8.59,6.82,14.77H84.48V59.87c1.81,1.69,3.47,3.39,5.3,4.89a4.15,4.15,0,0,1,1.6,3.76c-.12,3.54,0,7.09,0,10.64,0,1.15.45,1.69,1.38,1.7s1.48-.59,1.48-1.74c0-3,0-6,0-9Z"/><path class="cls-2" d="M36.16,83.8c-.7-5.53,1.64-10.88,6.71-14.69,0,.31,0,.58,0,.85v8.86c0,.23,0,.46,0,.68a1.41,1.41,0,0,0,1.6,1.36,1.32,1.32,0,0,0,1.25-1.49c0-3.15,0-6.31,0-9.46,0-1.21-.31-2.56.13-3.58s1.64-1.72,2.52-2.55l4.22-3.92V83.8Z"/><path class="cls-2" d="M81.51,76V83.8H55.64V76Z"/><path class="cls-2" d="M47,93.11l1.61-6.34H59.7l1.5,6.34Z"/><path class="cls-2" d="M90.06,93.12H75.9c.55-2.16,1.08-4.25,1.62-6.39h9.33c1.69,0,1.7,0,2.09,1.62S89.67,91.45,90.06,93.12Z"/><path class="cls-4" d="M75.28,7.84H61.89C62.06,5.61,65,3.25,67.68,3,71.77,2.56,74.75,5.27,75.28,7.84Z"/><path d="M68.1,16.48a9.3,9.3,0,0,1,9.82,9c0,1.14-.48,1.82-1.39,1.84s-1.37-.6-1.46-1.71A6.32,6.32,0,0,0,71,19.79a6.51,6.51,0,0,0-8.9,5.45c0,.25,0,.5-.07.75a1.46,1.46,0,0,1-1.43,1.29,1.37,1.37,0,0,1-1.36-1.43,9.05,9.05,0,0,1,4.08-7.8A8.68,8.68,0,0,1,68.1,16.48Z"/></g></g></svg>