<svg width="40" height="40" viewBox="0 0 40 40" fill="none" xmlns="http://www.w3.org/2000/svg">
<g clip-path="url(#clip0_23296_3653)">
<path d="M40 0H0V40H40V0Z" fill="#01A88D" fill-opacity="0.12"/>
<path fill-rule="evenodd" clip-rule="evenodd" d="M19.5 33.976H20.5V31.031H19.5V33.976ZM20.489 9L19.501 8.996L19.512 6L20.501 6.004L20.489 9ZM30.016 20.469H34V19.469H30.016V20.469ZM6 20.469H10.031V19.469H6V20.469ZM7 17H6V6.5C6 6.224 6.224 6 6.5 6H17V7H7V17ZM34 6.5V17H33V7H23V6H33.5C33.776 6 34 6.224 34 6.5ZM33 23H34V33.5C34 33.776 33.776 34 33.5 34H23V33H33V23ZM7 33H17V34H6.5C6.224 34 6 33.776 6 33.5V23H7V33ZM20.516 28.156V20.25L27 16.325V24.229L20.516 28.156ZM13 16.306L19.516 20.25V28.175L13 24.229V16.306ZM20 11.47L26.544 15.432L20.016 19.384L13.48 15.428L20 11.47ZM19.74 10.458L12.287 14.982C12.159 15.043 12.057 15.159 12.016 15.303C11.9961 15.369 11.992 15.437 12 15.503V24.511C12 24.686 12.092 24.848 12.241 24.938L19.741 29.48C19.82 29.529 19.91 29.553 20 29.553C20.09 29.553 20.18 29.529 20.259 29.48L27.759 24.938C27.908 24.848 28 24.686 28 24.511V15.427C28 15.252 27.908 15.09 27.759 14.999L20.259 10.457C20.101 10.36 19.9 10.361 19.74 10.458Z" fill="#01A88D"/>
</g>
<rect x="0.5" y="0.5" width="39" height="39" stroke="#01A88D"/>
<defs>
<clipPath id="clip0_23296_3653">
<rect width="40" height="40" fill="white"/>
</clipPath>
</defs>
</svg>
