<svg width="24" height="24" viewBox="0 0 24 24" fill="none" xmlns="http://www.w3.org/2000/svg">
<path d="M12.0001 0L2.30009 4.4V10.9C2.20009 17 6.40009 22.6 12.0001 24C17.6001 22.6 21.7001 17 21.7001 10.9V4.4L12.0001 0Z" fill="white"/>
<path d="M21.7 12C21.6 12.8 21.5 13.6 21.3 14.2C21.1 15.1 20.8 15.8 20.6 16.3C20.5 16.6 20.4 16.8 20.3 17C20.1 17.3 20 17.6 19.8 17.9C19.4 18.6 19 19.1 18.6 19.6C18.2 20.1 17.7 20.6 17.1 21.2C16.5 21.7 16.4 21.9 15.7 22.3C15 22.7 14.6 23 13.3 23.5C13 23.7 12.6 23.8 12 24L8.80005 19.6V6H12H16.7L21.7 12Z" fill="#F0F0F0"/>
<path d="M12.0001 3.2998C15.0001 3.2998 17.4001 5.6998 17.4001 8.7998C17.4001 10.5998 16.6001 12.1998 15.2001 13.1998V19.6998L12.0001 16.5998L8.8001 19.6998V13.1998C7.5001 12.1998 6.6001 10.5998 6.6001 8.7998C6.6001 5.6998 9.0001 3.2998 12.0001 3.2998ZM12.0001 11.4998C13.5001 11.4998 14.7001 10.2998 14.7001 8.7998C14.7001 7.2998 13.5001 5.9998 12.0001 5.9998C10.5001 5.9998 9.3001 7.1998 9.3001 8.6998C9.3001 10.1998 10.5001 11.4998 12.0001 11.4998Z" fill="#4285F4"/>
</svg>
