<svg width="40" height="40" viewBox="0 0 40 40" fill="none" xmlns="http://www.w3.org/2000/svg">
<g clip-path="url(#clip0_23295_3357)">
<path d="M40 0H0V40H40V0Z" fill="#ED7100" fill-opacity="0.12"/>
<path fill-rule="evenodd" clip-rule="evenodd" d="M30.999 23.7892L27.612 21.9332C27.861 21.1602 27.999 20.3382 27.999 19.4832C27.999 15.7642 25.444 12.6382 22 11.7462V7.38818L30.999 12.8442V23.7892ZM19.843 31.9932L9 25.7022V12.8152L17.999 7.38618V11.7462C14.554 12.6382 11.999 15.7632 11.999 19.4832C11.999 23.8942 15.588 27.4832 19.999 27.4832C22.083 27.4832 23.978 26.6752 25.404 25.3642L28.589 27.1822L19.843 31.9932ZM20.783 12.5302C21.775 13.6692 22.383 16.2612 22.476 18.9962H17.529C17.637 16.4182 18.216 13.9112 19.25 12.5242C19.496 12.4982 19.746 12.4832 19.999 12.4832C20.264 12.4832 20.525 12.5012 20.783 12.5302ZM23.48 18.9962C23.419 16.6482 22.987 14.3692 22.189 12.8392C24.83 13.7122 26.775 16.1162 26.974 18.9962H23.48ZM23.482 19.9962H26.973C26.766 22.8282 24.871 25.1932 22.29 26.0912C23.044 24.5062 23.438 22.2742 23.482 19.9962ZM19.013 26.4062C18.02 25.0832 17.525 22.5892 17.51 19.9962H22.486C22.455 22.5192 21.976 24.9942 20.955 26.4102C20.641 26.4532 20.324 26.4832 19.999 26.4832C19.663 26.4832 19.336 26.4512 19.013 26.4062ZM16.498 19.9962C16.514 22.2812 16.894 24.5032 17.65 26.0692C15.098 25.1562 13.23 22.8062 13.025 19.9962H16.498ZM13.024 18.9962C13.226 16.0802 15.216 13.6482 17.907 12.8032C17.075 14.4112 16.608 16.6792 16.515 18.9962H13.024ZM31.758 12.1342L21.759 6.07218C21.604 5.97818 21.411 5.97618 21.255 6.06418C21.098 6.15318 21 6.31918 21 6.50018V11.5522C20.671 11.5112 20.339 11.4832 19.999 11.4832C19.66 11.4832 19.327 11.5112 18.999 11.5522V6.50018C18.999 6.32018 18.902 6.15318 18.745 6.06418C18.589 5.97618 18.395 5.97818 18.241 6.07218L8.242 12.1042C8.092 12.1952 8 12.3572 8 12.5332V25.9902C8 26.1682 8.095 26.3332 8.249 26.4232L19.585 32.9992C19.662 33.0442 19.749 33.0672 19.836 33.0672C19.919 33.0672 20.002 33.0462 20.077 33.0052L29.853 27.6272C30.011 27.5402 30.11 27.3742 30.111 27.1932C30.112 27.0122 30.017 26.8452 29.859 26.7552L26.121 24.6232C26.567 24.0932 26.94 23.5022 27.237 22.8682L31.259 25.0722C31.334 25.1132 31.416 25.1332 31.499 25.1332C31.587 25.1332 31.676 25.1102 31.754 25.0632C31.906 24.9742 31.999 24.8102 31.999 24.6332V12.5622C31.999 12.3872 31.908 12.2252 31.758 12.1342Z" fill="#ED7100"/>
</g>
<rect x="0.5" y="0.5" width="39" height="39" stroke="#ED7100"/>
<defs>
<clipPath id="clip0_23295_3357">
<rect width="40" height="40" fill="white"/>
</clipPath>
</defs>
</svg>
