<svg width="40" height="40" viewBox="0 0 40 40" fill="none" xmlns="http://www.w3.org/2000/svg">
<g clip-path="url(#clip0_23311_9707)">
<path d="M40 0H0V40H40V0Z" fill="#7AA116" fill-opacity="0.12"/>
<path fill-rule="evenodd" clip-rule="evenodd" d="M26.3206 20.6623C26.5304 22.1032 26.1679 23.5391 25.296 24.7052C24.2266 26.138 22.5818 26.8951 20.9166 26.8951C19.784 26.8961 18.6413 26.5451 17.6645 25.8175C16.3263 24.8212 15.5929 23.5574 15.483 22.0605L16.4994 21.9862C16.5849 23.1758 17.1818 24.1903 18.2736 25.0024C20.2352 26.4636 23.0197 26.0556 24.4792 24.0967C25.1881 23.1483 25.4845 21.9801 25.3134 20.8099C25.1422 19.6386 24.524 18.6037 23.5748 17.8965C22.5003 17.0966 20.9023 16.8433 19.5111 17.2564C18.5221 17.5495 17.745 18.159 17.2409 18.9863L18.9825 18.9843L18.9845 20.0019L16.4159 20.0049H16.4149C16.2804 20.0049 16.1511 19.951 16.0553 19.8554C15.9596 19.7597 15.9056 19.6305 15.9056 19.4961V16.9348H16.9241V17.7011C17.525 17.0427 18.3031 16.5522 19.2218 16.2805C20.9135 15.7809 22.8608 16.0953 24.1828 17.0804C25.351 17.9494 26.1098 19.2224 26.3206 20.6623ZM26.9134 29.3485C26.7117 29.3485 26.5233 29.3689 26.3441 29.4015L24.9986 27.3113L24.1411 27.8618L25.3969 29.8116C24.9895 30.1219 24.7186 30.5768 24.6249 31.166H16.3975C16.3038 30.5768 16.0319 30.1209 15.6245 29.8105L16.8752 27.8608L16.0177 27.3123L14.6773 29.4015C14.4991 29.3689 14.3107 29.3485 14.109 29.3485C14.0011 29.3485 13.9053 29.3628 13.8045 29.372L10.5311 19.5267C10.7776 19.4025 10.9863 19.2366 11.1554 19.0301L13.6405 20.4313L14.1416 19.545L11.5852 18.1041C11.627 17.9056 11.6565 17.697 11.6565 17.4681C11.6565 17.0773 11.5883 16.7323 11.4681 16.4311L19.0751 11.3787C19.3399 11.5568 19.6485 11.682 20.002 11.741V13.882H21.0204V11.741C21.3739 11.682 21.6825 11.5568 21.9473 11.3787L29.5431 16.424C29.4168 16.7283 29.3445 17.0763 29.3445 17.4681C29.3445 17.6858 29.3679 17.8853 29.4036 18.0745L26.8747 19.548L27.388 20.4283L29.8171 19.0128C30.088 19.3598 30.474 19.5959 30.9639 19.7088L27.2342 29.376C27.1293 29.3638 27.0254 29.3485 26.9134 29.3485ZM26.9134 32.9824C26.0558 32.9824 25.6036 32.5306 25.6036 31.6748C25.6036 30.7823 26.0192 30.3661 26.9134 30.3661C27.7699 30.3661 28.2221 30.818 28.2221 31.6748C28.2221 32.5306 27.7699 32.9824 26.9134 32.9824ZM14.109 32.9824C13.228 32.9824 12.8003 32.555 12.8003 31.6748C12.8003 30.7823 13.2158 30.3661 14.109 30.3661C15.0032 30.3661 15.4188 30.7823 15.4188 31.6748C15.4188 32.5672 15.0032 32.9824 14.109 32.9824ZM8.01848 17.4681C8.01848 16.5756 8.43403 16.1604 9.32825 16.1604C10.2215 16.1604 10.638 16.5756 10.638 17.4681C10.638 18.3727 10.2337 18.7767 9.32825 18.7767C8.4106 18.7767 8.01848 18.3859 8.01848 17.4681ZM20.5112 8.0176C21.4115 8.0176 21.8872 8.49384 21.8872 9.3934C21.8872 10.2919 21.4115 10.7661 20.5112 10.7661C19.6241 10.7661 19.1342 10.2787 19.1342 9.3934C19.1342 8.49384 19.6109 8.0176 20.5112 8.0176ZM31.6728 16.1604C32.566 16.1604 32.9815 16.5756 32.9815 17.4681C32.9815 18.3605 32.566 18.7767 31.6728 18.7767C30.7551 18.7767 30.363 18.3859 30.363 17.4681C30.363 16.5878 30.7918 16.1604 31.6728 16.1604ZM34 17.4681C34 16.0119 33.1302 15.1428 31.6728 15.1428C31.0576 15.1428 30.5504 15.3148 30.1613 15.614L22.6225 10.6064C22.8008 10.2614 22.9057 9.85742 22.9057 9.3934C22.9057 7.93925 21.9666 7 20.5112 7C19.0558 7 18.1157 7.93925 18.1157 9.3934C18.1157 9.85742 18.2217 10.2614 18.3999 10.6064L10.857 15.616C10.47 15.3138 9.9587 15.1428 9.32825 15.1428C7.8708 15.1428 7 16.0119 7 17.4681C7 18.9466 7.8484 19.7943 9.32825 19.7943C9.40362 19.7943 9.46982 19.7821 9.54112 19.778L12.8247 29.6559C12.1596 30.0273 11.7818 30.7223 11.7818 31.6748C11.7818 33.1086 12.674 34 14.109 34C15.3882 34 16.2142 33.3304 16.3975 32.1836H24.6259C24.8153 33.3172 25.6556 34 26.9134 34C28.3484 34 29.2406 33.1086 29.2406 31.6748C29.2406 30.764 28.8567 30.066 28.2089 29.6813L32.0323 19.7668C33.2677 19.6305 34 18.7981 34 17.4681Z" fill="#7AA116"/>
</g>
<rect x="0.5" y="0.5" width="39" height="39" stroke="#7AA116"/>
<defs>
<clipPath id="clip0_23311_9707">
<rect width="40" height="40" fill="white"/>
</clipPath>
</defs>
</svg>
