<svg width="24px" height="24px" viewBox="0 0 24 24" fill="none" xmlns="http://www.w3.org/2000/svg">
<path fill-rule="evenodd" clip-rule="evenodd" d="M22 2V9.5H16.239L16.2376 9.54692C16.1274 11.3555 14.8803 12.9009 13.1298 13.3984L12.9256 13.4511V22H11.1517V21.2073H9.45465V19.4788H11.1517V17.8268H8.60365V16.0982H11.1517V13.4782C9.20601 13.0832 7.82971 11.4141 7.75768 9.50052L9.50184 9.50088C9.49821 9.44602 9.49637 9.39068 9.49637 9.33491C9.49637 7.96604 10.6051 6.85636 11.9728 6.85636C13.3405 6.85636 14.4492 7.96604 14.4492 9.33491C14.4492 9.39068 14.4474 9.44602 14.4437 9.50088H9.50184C9.58715 10.7924 10.6608 11.8135 11.9728 11.8135C13.2847 11.8135 14.3584 10.7924 14.4437 9.50088L16.239 9.5L16.2453 9.33712C16.2446 7.18324 14.6193 5.38688 12.4913 5.14164L12.2839 5.12279L12.0757 5.11393L11.8694 5.1151C9.8161 5.1761 8.07312 6.70803 7.79321 8.77372C7.76005 9.01846 7.74868 9.2614 7.75768 9.50052L2 9.5V2H22Z" fill="white"/>
</svg>
