<svg xmlns="http://www.w3.org/2000/svg" width="18" height="18" viewBox="0 0 18 18"><defs><linearGradient id="a" x1="-2.113" y1="12.211" x2="10.011" y2="12.211" gradientTransform="rotate(.147 988.63 1050.715)" gradientUnits="userSpaceOnUse"><stop offset="0" stop-color="#005ba1"/><stop offset=".068" stop-color="#0060a9"/><stop offset=".356" stop-color="#0071c8"/><stop offset=".517" stop-color="#0078d4"/><stop offset=".642" stop-color="#0074cd"/><stop offset=".82" stop-color="#006abb"/><stop offset="1" stop-color="#005ba1"/></linearGradient><linearGradient id="b" x1="6.563" y1="15.274" x2="14.785" y2="15.274" gradientTransform="rotate(.147 988.63 1050.715)" gradientUnits="userSpaceOnUse"><stop offset="0" stop-color="#32bedd"/><stop offset=".322" stop-color="#47daf5"/><stop offset=".517" stop-color="#50e6ff"/><stop offset=".664" stop-color="#4bdff9"/><stop offset=".872" stop-color="#3dcdea"/><stop offset="1" stop-color="#32bedd"/></linearGradient></defs><path d="M6.629 4.917C3.281 4.909.57 3.913.573 2.693l-.03 11.749c0 1.21 2.663 2.2 5.973 2.224H6.6c3.348.009 6.065-.973 6.068-2.193L12.7 2.724c-.006 1.22-2.723 2.202-6.071 2.193z" fill="url(#a)"/><path d="M12.7 2.724c0 1.22-2.72 2.2-6.068 2.193S.57 3.913.573 2.693 3.293.491 6.641.5s6.06 1 6.056 2.224" fill="#e6e6e6"/><path d="M11.283 2.542c0 .775-2.085 1.4-4.651 1.392s-4.646-.64-4.644-1.416 2.085-1.4 4.651-1.393 4.646.641 4.644 1.417" fill="#50e6ff"/><path d="M6.635 2.853a11.181 11.181 0 00-3.683.524 10.8 10.8 0 003.68.557 10.814 10.814 0 003.683-.534 11.176 11.176 0 00-3.68-.547z" fill="#198ab3"/><path d="M13.343 9.533c-2.271-.006-4.109-.681-4.107-1.508l-.021 7.967c0 .82 1.807 1.491 4.051 1.508h.056c2.271.006 4.113-.66 4.115-1.487l.02-7.967c-.002.827-1.844 1.493-4.114 1.487z" fill="url(#b)"/><path d="M17.457 8.046c0 .827-1.844 1.493-4.114 1.487s-4.109-.681-4.107-1.508 1.844-1.493 4.114-1.487 4.11.681 4.107 1.508" fill="#e6e6e6"/><path d="M16.5 7.922c0 .526-1.413.948-3.154.944s-3.15-.434-3.148-.96 1.413-.949 3.153-.944 3.15.434 3.149.96" fill="#50e6ff"/><path d="M13.346 8.133a7.61 7.61 0 00-2.5.355 7.312 7.312 0 002.495.378 7.321 7.321 0 002.5-.365 7.611 7.611 0 00-2.495-.368z" fill="#198ab3"/><path d="M14.044 10.589a.1.1 0 00-.052-.013.134.134 0 00-.092.052L11.652 13.9a.128.128 0 00-.013.118.133.133 0 00.105.065h1.346l-.6 1.974a.1.1 0 00.052.13.078.078 0 00.052.013.134.134 0 00.092-.052L15 12.837c.013-.026.026-.039.026-.065a.117.117 0 00-.117-.118h-1.388l.579-1.934a.1.1 0 00-.056-.131z" fill="#f2f2f2"/></svg>