<svg
    id="Layer_1"
    xmlns="http://www.w3.org/2000/svg"
    x={0}
    y={0}
    viewBox="0 0 134.9 135"
    style={{
      enableBackground: "new 0 0 134.9 135",
    }}
    xmlSpace="preserve"
  >
    <style>{".st0{fill:#00d3a9}.st1{fill:#00b39f}"}</style>
    <title>Meshery</title>
    <path
      className="st0"
      d="M69.5 31.8v32.3l27.9-16.2zM69.5 70.8v32.4l28.2-16.1z"
    />
    <path
      className="st1"
      d="M65.5 63.8V32.1L37.9 47.9zM10.1 103.1c5.4 8.7 12.7 16.1 21.4 21.5V90.7l-21.4 12.4zM65.5 103.1v-32l-27.7 16z"
    />
    <path className="st0" d="m35.5 122.6 28.1-16-28.1-16.2z" />
    <path
      className="st1"
      d="M99.6 122.8V90.6l-28 16zM127 99.4c4.8-8.9 7.5-18.8 7.9-28.9l-29.1 16.7L127 99.4z"
    />
    <path className="st0" d="m103.6 83.7 28.2-16.1-28.2-16.1z" />
    <path
      className="st1"
      d="M99.6 44.5v-32l-27.8 16zM99.6 83.6V51.3L71.7 67.4zM67.5 135z"
    />
    <path className="st0" d="M35.5 51.2v32.5l28.2-16.3z" />
    <path className="st1" d="M65.5 0C55.1.3 45 3 35.8 7.8l29.6 17V0z" />
    <path className="st0" d="M35.5 12.3v32.3l28.2-16.1z" />
    <path
      className="st1"
      d="M31.5 10.3c-8.7 5.5-16 12.8-21.4 21.5l21.4 12.4V10.3z"
    />
    <path
      className="st0"
      d="M99.4 8C90.2 3 80 .3 69.5 0v25.1L99.4 8zM0 69.9c.3 10.4 3.1 20.6 8.1 29.8l21.7-12.6L0 69.9zM8.1 35.4C3.1 44.5.4 54.6 0 65l29.8-17.1L8.1 35.4z"
    />
    <path
      className="st1"
      d="M35.8 127.1c9.2 4.9 19.3 7.6 29.7 7.9v-24.8l-29.7 16.9z"
    />
    <path
      className="st0"
      d="M124.9 32c-5.4-8.7-12.7-16-21.3-21.5v33.8L124.9 32zM103.6 124.5c8.7-5.5 16-12.9 21.4-21.7l-21.4-12.3v34z"
    />
    <path
      className="st1"
      d="M135 64.8c-.4-10.3-3.1-20.3-8-29.3l-21.5 12.4L135 64.8z"
    />
    <path className="st0" d="M69.5 135c10.3-.3 20.5-3 29.6-7.8L69.5 110v25z" />
    <path className="st1" d="M31.5 83.4V51.6L3.8 67.4z" />
  </svg>