<svg width="19" height="19" viewBox="0 0 19 19" fill="none" xmlns="http://www.w3.org/2000/svg">
<g clip-path="url(#clip0_5333_25301)">
<path d="M9.7832 4.47771V9.01592L13.7184 6.73908L9.7832 4.47771Z" fill="#00D3A9"/>
<path d="M9.7832 9.96437V14.5251L13.755 12.2553L9.7832 9.96437Z" fill="#00D3A9"/>
<path d="M9.21791 8.98496V4.5157L5.33203 6.7433L9.21791 8.98496Z" fill="#00B39F"/>
<path d="M1.42188 14.5082C2.18421 15.7339 3.21488 16.7708 4.43625 17.5407V12.7647L1.42188 14.5082Z" fill="#00B39F"/>
<path d="M9.218 14.5026V9.99815L5.32227 12.2525L9.218 14.5026Z" fill="#00B39F"/>
<path d="M5.00391 17.2565L8.94892 15.0021L5.00391 12.7225V17.2565Z" fill="#00D3A9"/>
<path d="M14.0253 17.2804V12.7534L10.0859 15.005L14.0253 17.2804Z" fill="#00B39F"/>
<path d="M17.8802 13.9833C18.5536 12.7271 18.9344 11.3349 18.9939 9.9109L14.8926 12.2581L17.8802 13.9833Z" fill="#00B39F"/>
<path d="M14.5918 11.7768L18.5509 9.51407L14.5918 7.24004V11.7768Z" fill="#00D3A9"/>
<path d="M14.0246 6.26203V1.76181L10.1035 4.00911L14.0246 6.26203Z" fill="#00B39F"/>
<path d="M14.0252 11.7571V7.21611L10.0957 9.49014L14.0252 11.7571Z" fill="#00B39F"/>
<path d="M5.00391 7.20767V11.7825L8.963 9.49156L5.00391 7.20767Z" fill="#00D3A9"/>
<path d="M9.21802 0C7.76063 0.0410052 6.33243 0.418096 5.04492 1.10184L9.21802 3.49407V0Z" fill="#00B39F"/>
<path d="M5.00391 1.73085V6.27892L8.96582 4.0077L5.00391 1.73085Z" fill="#00D3A9"/>
<path d="M4.43625 1.45505C3.21518 2.22534 2.1846 3.26213 1.42188 4.48756L4.43625 6.22686V1.45505Z" fill="#00B39F"/>
<path d="M13.9985 1.12576C12.7003 0.427527 11.2569 0.042033 9.7832 0V3.5391L13.9985 1.12576Z" fill="#00D3A9"/>
<path d="M0 9.83209C0.0492099 11.2971 0.43816 12.7307 1.1362 14.0199L4.19 12.2525L0 9.83209Z" fill="#00D3A9"/>
<path d="M1.1362 4.97726C0.44036 6.26075 0.0514613 7.6879 0 9.14679L4.19422 6.74189L1.1362 4.97726Z" fill="#00D3A9"/>
<path d="M5.03711 17.8897C6.32613 18.5768 7.75696 18.9559 9.21725 18.9972V15.5003L5.03711 17.8897Z" fill="#00B39F"/>
<path d="M17.5879 4.50304C16.8298 3.28118 15.8057 2.24603 14.5918 1.47475V6.23389L17.5879 4.50304Z" fill="#00D3A9"/>
<path d="M14.5918 17.5253C15.812 16.7485 16.8402 15.7054 17.5991 14.4744L14.5918 12.738V17.5253Z" fill="#00D3A9"/>
<path d="M19.0064 9.12006C18.9524 7.67529 18.5671 6.26222 17.88 4.98993L14.8516 6.73767L19.0064 9.12006Z" fill="#00B39F"/>
<path d="M9.7832 18.9972C11.2402 18.9564 12.668 18.5793 13.9549 17.8953L9.7832 15.4792V18.9972Z" fill="#00D3A9"/>
<path d="M4.43621 11.7417V7.25552L0.539062 9.48875L4.43621 11.7417Z" fill="#00B39F"/>
</g>
<defs>
<clipPath id="clip0_5333_25301">
<rect width="19" height="19" fill="white"/>
</clipPath>
</defs>
</svg>
