<svg xmlns="http://www.w3.org/2000/svg" role="img" viewBox="-2.78 54.22 365.56 245.56"><style>svg {enable-background:new 0 0 360 360}</style><style>.st0{fill:#4dcef3}</style><g id="cloudevents-transparent-icon"><g id="icon" transform="translate(48 69)"><path id="Fill-1" d="M219.246 198.341c26.572.001 55.443-17.497 61.933-43.466 7.451-29.82-10.013-60.551-39.311-69.135-5.606-1.642-11.362-2.176-17.184-2.167-8.557.014-17.114.004-25.902.004.598-21.86-7.116-39.902-24.405-53.336-11.024-8.567-23.716-12.575-37.607-12.128-15.736.506-29.325 6.452-40.487 17.65C85.15 46.93 79.339 60.593 78.286 76.006l-24.08-8.315C56.35 41.089 77.846 4.345 119.513-5.3c47.529-11.003 91.576 20.022 101.913 63.662 3.951 0 8.061-.389 12.077.062C265.767 62.043 288.65 79 301.405 108.81c15.76 36.835 2.371 80.218-30.54 101.795-13.68 8.97-35.278 13.358-51.556 13.395" class="st0"/><path id="Fill-3" d="M200.15 223.85s-39.04.289-71.17.065c-33.79-.235-61.053-21.921-69.473-51.402-7.312-25.6-1.444-48.533 16.123-68.474 11.178-12.687 25.044-20.82 41.818-23.711 28.282-4.876 56.748 7.754 71.982 32.01 9.835 15.659 13.52 32.685 10.882 51.03-.165 1.148-.433 1.757-1.794 1.754-22.819-.038-45.637-.028-68.456-.034-.321 0-.642-.07-1.134-.127-.04-.686-.107-1.324-.108-1.964-.007-7.032-.008-14.065-.002-21.098.002-2.854.314-3.152 3.222-3.152h41.219c-.363-1.13-.584-2.07-.956-2.944-6.755-15.885-18.64-25.76-35.647-28.59-17.05-2.84-31.939 2.207-43.14 15.521-17.225 20.476-11.832 53.086 10.776 67.821 7.787 5.076 16.3 7.596 25.617 7.587 31.8-.032 70.178-.007 70.178-.007l.064 25.714" class="st0"/><path id="Fill-4" d="M45.066 192.514l15.765 19.942c-21.782 13.708-58.5 14.24-84.102-11.702-25.844-26.188-27.453-68.227-3.54-96.512 24.25-28.684 62.787-30.793 87.695-15.67l-15.817 19.964c-12.315-5.34-25.212-5.522-37.968.524-8.575 4.065-15.198 10.361-19.893 18.657-9.72 17.178-7.545 38.47 5.433 53.303 12.337 14.1 32.984 20.15 52.427 11.494" class="st0"/></g></g></svg>