<svg width="24" height="24" viewBox="0 0 24 24" fill="none" xmlns="http://www.w3.org/2000/svg">
<path fill-rule="evenodd" clip-rule="evenodd" d="M11.9999 0.799805C13.6999 0.799805 14.9999 2.1998 14.9999 3.7998C14.9999 5.3998 13.6999 6.7998 11.9999 6.7998C10.2999 6.7998 8.9999 5.4998 8.9999 3.7998C8.9999 2.0998 10.3999 0.799805 11.9999 0.799805ZM15.7999 10.4998V22.4998H12.7999V16.4998H11.1999V22.4998H8.1999V10.4998H1.3999V7.4998H22.3999V10.4998H15.7999Z" fill="#DDDDDD"/>
<path fill-rule="evenodd" clip-rule="evenodd" d="M15.8 10.4998V22.4998H12.8V16.4998H12V7.4998H22.5V10.4998H15.8ZM12 6.7998V0.799805C13.7 0.799805 15 2.1998 15 3.7998C15 5.3998 13.7 6.7998 12 6.7998Z" fill="white"/>
</svg>
