<svg xmlns="http://www.w3.org/2000/svg" xmlns:xlink="http://www.w3.org/1999/xlink" id="Layer_1" x="0" y="0" enable-background="new 0 0 400 400" version="1.1" viewBox="0 0 400 400" xml:space="preserve"><style type="text/css">.st0{fill:#fff}.st1{fill:#647881;stroke:#fff;stroke-miterlimit:10}</style><g id="Dark_Blue"><path d="M350,400H50c-27.6,0-50-22.4-50-50V50C0,22.4,22.4,0,50,0h300c27.6,0,50,22.4,50,50v300 C400,377.6,377.6,400,350,400z" class="st0"/></g><g><path d="M369.8,159.9c-11.4-6.7-26.6-7.5-39.4-3.7c-1.6-13.8-10.6-25.8-21.3-34.3l-4.3-3.5l-3.7,4.3 c-7.2,8.3-9.3,22.1-8.3,32.7c0.8,7.7,3.2,15.7,8,22.1c-3.7,2.1-7.7,5.1-11.4,6.4c-7.5,2.7-15.7,5.3-23.7,5.3h-17.8v-37.5h-34.6 V85.1h-39.9v31.9h-66.5v34.6H72.2v37.3H42.4l-0.5,4c-1.3,17,0.8,33.5,8,49.2l2.9,5.9l0.3,0.5c21,35.7,57.8,50.6,97.9,50.6 c77.7,0,141.9-34.9,171.1-108.1c19.7,1.1,39.9-4.8,49.5-23.7l2.4-4.8L369.8,159.9L369.8,159.9z M112.1,125h26.6v29.3h-26.6V125z M147,242.7c0,4.5-3.7,8.3-8.3,8.3s-8.3-3.7-8.3-8.3c0-4.5,3.7-8.3,8.3-8.3C143.3,234.7,147,238.2,147,242.7z M112.1,159.6h26.6 v29.3h-26.6C112.1,188.9,112.1,159.6,112.1,159.6z M77.5,159.6h29.3v29.3H77.5V159.6z M151.3,293.3c-42.1-0.3-64.7-14.4-83.3-33 c5.6,0.3,10.9,0.5,15.7,0.5c4.3,0,8.5,0,12.5-0.3c10.4-0.5,19.4-1.9,26.9-4c6.1,14.1,17.3,27.1,37.3,36.7H151.3z M173.4,188.9 h-29.3v-29.3h29.3V188.9z M173.4,154.3h-29.3V125h29.3V154.3z M208,188.9h-29.3v-29.3H208V188.9z M208,154.3h-29.3V125H208V154.3z M208,119.7h-29.3V90.4H208V119.7z M242.6,188.9h-29.3v-29.3h29.3V188.9z M140.9,237.4c-0.5-0.3-1.3-0.5-2.1-0.5 c-3.2,0-5.9,2.7-5.9,5.9c0,3.2,2.7,5.9,5.9,5.9c3.2,0,5.9-2.7,5.9-5.9c0-0.8-0.3-1.6-0.5-2.1c-0.5,0.8-1.1,1.3-2.1,1.3 c-1.3,0-2.4-1.1-2.4-2.4C139.8,238.4,140.4,237.6,140.9,237.4z" class="st1"/></g></svg>