<svg width="40" height="40"  viewBox="0 0 40 40" xmlns="http://www.w3.org/2000/svg">  <g id="Icon-Architecture/32/Arch_Amazon-WorkDocs_32" stroke="none" stroke-width="1" fill="none" fill-rule="evenodd">  <g id="Icon-Service/32/Amazon-WorkDocs" transform="translate(6.000000, 6.000000)" fill="#FFFFFF"> <path d="M12.9574787,23.4907454 L13.957979,23.4907454 L13.957979,20.4892446 L12.9574787,20.4892446 L12.9574787,23.4907454 Z M5.50275138,13.9369685 L8.50425213,13.9369685 L8.50425213,12.9364682 L5.50275138,12.9364682 L5.50275138,13.9369685 Z M12.9574787,18.4882441 L13.957979,18.4882441 L13.957979,15.4867434 L12.9574787,15.4867434 L12.9574787,18.4882441 Z M13.957979,26.9994997 L13.957979,25.4917459 L12.9574787,25.4917459 L12.9574787,26.9994997 L1.00050025,26.9994997 L1.00050025,13.9369685 L3.50175088,13.9369685 L3.50175088,12.9364682 L1.00050025,12.9364682 L1.00050025,1.00050025 L12.9574787,1.00050025 L12.9574787,12.9364682 L10.5052526,12.9364682 L10.5052526,13.9369685 L13.4577289,13.9369685 L26.9994997,13.9369685 L26.9994997,26.9994997 L13.957979,26.9994997 Z M13.957979,1.64082041 L26.2191096,12.9364682 L13.957979,12.9364682 L13.957979,1.64082041 Z M28,13.4367184 C28,13.3006503 27.9429715,13.1665833 27.8389195,13.0695348 L13.7968984,0.132066033 C13.7018509,0.0450225113 13.5807904,0 13.4577289,0 L0.500250125,0 C0.223111556,0 0,0.223111556 0,0.500250125 L0,27.4997499 C0,27.7768884 0.223111556,28 0.500250125,28 L27.4997499,28 C27.7758879,28 28,27.7768884 28,27.4997499 L28,13.4367184 Z" id="Amazon-WorkDocs_Icon_32_Squid"></path> </g> </g></svg>