<svg width="40" height="40" viewBox="0 0 40 40" fill="none" xmlns="http://www.w3.org/2000/svg">
<g clip-path="url(#clip0_23310_9482)">
<path d="M40 0H0V40H40V0Z" fill="#7AA116" fill-opacity="0.12"/>
<path fill-rule="evenodd" clip-rule="evenodd" d="M27 19.1049C25.212 17.7816 22.616 16.9965 20 16.9965C17.083 16.9965 14.669 17.7186 13 19.0889V32.9998H15V20.4972C15 20.3202 15.094 20.1561 15.246 20.0661L15.475 19.9301C16.644 19.2339 17.853 18.5148 20 18.5148C21.874 18.5148 23.135 19.1949 24.247 19.7951L24.73 20.0531C24.896 20.1391 25 20.3102 25 20.4972V32.9998H27V19.1049ZM27.81 18.4648C27.93 18.5598 28 18.7048 28 18.8579V33.4999C28 33.776 27.776 34 27.5 34H24.5C24.224 34 24 33.776 24 33.4999V20.7973L23.772 20.6752C22.715 20.1051 21.622 19.515 20 19.515C18.136 19.515 17.144 20.1011 16 20.7813V33.4999C16 33.776 15.776 34 15.5 34H12.5C12.224 34 12 33.776 12 33.4999V18.8579C12 18.7138 12.062 18.5768 12.171 18.4808C14.029 16.8554 16.736 15.9963 20 15.9963C22.928 15.9963 25.848 16.9185 27.81 18.4648ZM34 18.2227C34 20.9893 32.473 22.6837 29.698 22.9947L29.587 22.0005C31.884 21.7435 33 20.5082 33 18.2227C33 16.0283 31.661 14.652 29.021 14.1299C28.799 14.0859 28.634 13.8978 28.619 13.6708C28.481 11.5233 27.175 10.7612 26.098 10.7612C25.359 10.7612 24.67 11.0983 24.205 11.6854C24.095 11.8254 23.912 11.8944 23.736 11.8684C23.559 11.8404 23.409 11.7194 23.346 11.5503C22.944 10.4821 22.335 9.54693 21.583 8.84579C20.641 7.96261 18.054 6.07021 14.401 7.51051C12.305 8.34168 10.662 10.7212 10.662 12.9276C10.662 13.1767 10.677 13.4147 10.708 13.6528C10.711 13.6748 10.713 13.6978 10.713 13.7208C10.713 13.9739 10.525 14.1849 10.281 14.2189C9.033 14.529 7 15.4532 7 18.1797C7 18.2837 7.006 18.3828 7.011 18.4828C7.117 20.3362 8.459 21.7175 10.429 22.0025L10.286 22.9917C7.825 22.6366 6.147 20.8893 6.013 18.5398C6.006 18.4188 6 18.3027 6 18.1797C6 14.9671 8.313 13.7738 9.675 13.3507C9.667 13.2157 9.662 13.0737 9.662 12.9276C9.662 10.2961 11.541 7.56752 14.033 6.58132C16.937 5.43308 20.013 6.0072 22.266 8.11464C22.959 8.76177 23.545 9.57694 23.984 10.4991C24.581 10.024 25.32 9.76098 26.098 9.76098C27.647 9.76098 29.279 10.8372 29.581 13.2287C32.435 13.9048 34 15.6672 34 18.2227Z" fill="#7AA116"/>
</g>
<rect x="0.5" y="0.5" width="39" height="39" stroke="#7AA116"/>
<defs>
<clipPath id="clip0_23310_9482">
<rect width="40" height="40" fill="white"/>
</clipPath>
</defs>
</svg>
