<svg width="40" height="40" viewBox="0 0 40 40" fill="none" xmlns="http://www.w3.org/2000/svg">
<g clip-path="url(#clip0_23294_2944)">
<path d="M40 0H0V40H40V0Z" fill="#E7157B" fill-opacity="0.12"/>
<path fill-rule="evenodd" clip-rule="evenodd" d="M11.0555 28.594C9.9095 28.594 8.9765 27.6538 8.9765 26.498C8.9765 25.3433 9.9095 24.4031 11.0555 24.4031C12.2015 24.4031 13.1355 25.3433 13.1355 26.498C13.1355 27.6538 12.2015 28.594 11.0555 28.594ZM12.9125 28.9567C13.6515 28.3894 14.1355 27.5037 14.1355 26.498C14.1355 24.7871 12.7535 23.3955 11.0555 23.3955C10.6365 23.3955 10.2385 23.4811 9.8745 23.6343L8.0765 20.4965L10.4385 16.3742L9.5735 15.8703L7.0675 20.2446C6.9775 20.4007 6.9775 20.5922 7.0675 20.7484L9.0325 24.1784C8.3905 24.7467 7.9765 25.571 7.9765 26.498C7.9765 28.21 9.3575 29.6016 11.0555 29.6016C11.3975 29.6016 11.7205 29.5321 12.0285 29.4283L13.5605 32.2719C13.6485 32.4341 13.8165 32.5349 13.9995 32.5349H19.4995V31.5272H14.2975L12.9125 28.9567ZM29.9445 16.5606C28.7975 16.5606 27.8645 15.6205 27.8645 14.4647C27.8645 13.3099 28.7975 12.3688 29.9445 12.3688C31.0905 12.3688 32.0235 13.3099 32.0235 14.4647C32.0235 15.6205 31.0905 16.5606 29.9445 16.5606ZM31.9675 16.7853C32.6095 16.216 33.0235 15.3917 33.0235 14.4647C33.0235 12.7537 31.6425 11.3611 29.9445 11.3611C29.6035 11.3611 29.2815 11.4306 28.9745 11.5344L27.4415 8.61929C27.3555 8.45404 27.1855 8.35126 26.9995 8.35126H21.4995V9.35891H26.6995L28.0895 12.003C27.3505 12.5703 26.8645 13.458 26.8645 14.4647C26.8645 16.1757 28.2455 17.5682 29.9445 17.5682C30.3635 17.5682 30.7615 17.4816 31.1245 17.3284L32.9225 20.4673L30.5615 24.5885L31.4265 25.0924L33.9325 20.7192C34.0225 20.563 34.0225 20.3705 33.9325 20.2153L31.9675 16.7853ZM27.3945 32.9923C26.2475 32.9923 25.3145 32.0522 25.3145 30.8974C25.3145 29.7417 26.2475 28.8015 27.3945 28.8015C28.5405 28.8015 29.4735 29.7417 29.4735 30.8974C29.4735 32.0522 28.5405 32.9923 27.3945 32.9923ZM18.2045 24.5009L15.9115 20.4995L18.2045 16.4991H22.7885L25.0825 20.4995L22.7885 24.5009H18.2045ZM13.6365 12.1985C12.4905 12.1985 11.5575 11.2583 11.5575 10.1026C11.5575 8.94779 12.4905 8.00765 13.6365 8.00765C14.7835 8.00765 15.7165 8.94779 15.7165 10.1026C15.7165 11.2583 14.7835 12.1985 13.6365 12.1985ZM27.3945 27.7939C26.7695 27.7939 26.1895 27.9853 25.7025 28.3088L23.6335 25.042L26.0925 20.7514C26.1825 20.5962 26.1825 20.4038 26.0925 20.2476L23.5105 15.7434C23.4215 15.5872 23.2565 15.4915 23.0775 15.4915H18.3255L16.0475 12.01C16.4595 11.483 16.7165 10.825 16.7165 10.1026C16.7165 8.39157 15.3345 7 13.6365 7C11.9385 7 10.5575 8.39157 10.5575 10.1026C10.5575 11.8146 11.9385 13.2061 13.6365 13.2061C14.2515 13.2061 14.8235 13.0187 15.3045 12.7043L17.3945 15.8976L14.9025 20.2476C14.8125 20.4038 14.8125 20.5962 14.9025 20.7514L17.4835 25.2566C17.5725 25.4128 17.7375 25.5085 17.9155 25.5085H22.7435L24.9625 29.0141C24.5625 29.5381 24.3145 30.186 24.3145 30.8974C24.3145 32.6074 25.6965 34 27.3945 34C29.0925 34 30.4735 32.6074 30.4735 30.8974C30.4735 29.1854 29.0925 27.7939 27.3945 27.7939Z" fill="#E7157B"/>
</g>
<rect x="0.5" y="0.5" width="39" height="39" stroke="#E7157B"/>
<defs>
<clipPath id="clip0_23294_2944">
<rect width="40" height="40" fill="white"/>
</clipPath>
</defs>
</svg>
