<svg width="40" height="40" viewBox="0 0 40 40" fill="none" xmlns="http://www.w3.org/2000/svg">
<g clip-path="url(#clip0_23310_9519)">
<path d="M40 0H0V40H40V0Z" fill="#DD344C" fill-opacity="0.12"/>
<path fill-rule="evenodd" clip-rule="evenodd" d="M9 17H15V16H9V17ZM31 13V9.3C31 8.583 30.535 8 29.963 8H8.037C7.475 8 7 8.596 7 9.3V13H18V9.5C18 9.224 18.224 9 18.5 9H29.5C29.776 9 30 9.224 30 9.5V13H31ZM22 14C22 15.104 22.897 16 24 16C25.103 16 26 15.104 26 14C26 12.897 25.103 12 24 12C22.897 12 22 12.897 22 14ZM31 14H30V19H29V10H19V18.696C19.691 17.568 20.774 16.707 22.097 16.3C21.433 15.75 21 14.929 21 14C21 12.346 22.346 11 24 11C25.654 11 27 12.346 27 14C27 14.966 26.533 15.817 25.823 16.366C27.042 16.787 28.108 17.609 28.781 18.72L27.926 19.238C27.335 18.262 26.382 17.534 25.293 17.218C24.396 17.637 23.34 17.633 22.457 17.218C20.705 17.724 19.451 19.217 19.216 21H23V22H18.5C18.224 22 18 21.777 18 21.5V14H7V23.701C7 24.405 7.475 25 8.037 25H21V26H8.037C6.914 26 6 24.969 6 23.701V9.3C6 8.032 6.914 7 8.037 7H29.963C31.086 7 32 8.032 32 9.3V21H31.001L31 14ZM33 28C33 30.757 30.757 33 28 33C25.243 33 23 30.757 23 28C23 25.244 25.243 23 28 23C30.757 23 33 25.244 33 28ZM34 28C34 24.692 31.309 22 28 22C24.691 22 22 24.692 22 28C22 31.309 24.691 34 28 34C31.309 34 34 31.309 34 28ZM27.862 29.862L31.576 26.149L30.869 25.442L27.509 28.802L25.995 27.288L25.288 27.995L27.155 29.862C27.249 29.956 27.376 30.009 27.509 30.009C27.642 30.009 27.769 29.956 27.862 29.862ZM14 20H16V19H14V20ZM9 20H13V19H9V20Z" fill="#DD344C"/>
</g>
<rect x="0.5" y="0.5" width="39" height="39" stroke="#DD344C"/>
<defs>
<clipPath id="clip0_23310_9519">
<rect width="40" height="40" fill="white"/>
</clipPath>
</defs>
</svg>
