<svg width="90" height="90" viewBox="0 0 90 90" fill="none" xmlns="http://www.w3.org/2000/svg">
<path fill-rule="evenodd" clip-rule="evenodd" d="M65.2207 14.0443C68.5812 11.0557 73.6438 11.1271 76.9202 14.2091L77.4317 14.6903C81.1485 18.1867 81.1141 24.1358 77.3572 27.5883L55.3813 47.7833C51.9438 50.9422 46.6497 50.8191 43.3604 47.5039L42.5236 46.6604C42.2442 46.3788 41.9879 46.0831 41.7546 45.7756H35.1592C35.8654 47.6018 36.951 49.3161 38.4199 50.7966L39.2567 51.64C44.7389 57.1654 53.5623 57.3705 59.2914 52.1057L81.2673 31.9107C87.5289 26.1565 87.5862 16.2414 81.3916 10.4141L80.88 9.93289C75.4195 4.79615 66.9818 4.6773 61.381 9.65823L39.0798 29.4911C38.6936 29.8346 38.3299 30.194 37.989 30.5673H46.6414L65.2207 14.0443Z" fill="white"/>
<path fill-rule="evenodd" clip-rule="evenodd" d="M24.7795 75.9557C21.419 78.9443 16.3564 78.8729 13.0801 75.7909L12.5685 75.3097C8.85175 71.8133 8.88614 65.8642 12.6431 62.4117L34.619 42.2167C38.0564 39.0578 43.3505 39.1809 46.6398 42.4961L47.4766 43.3396C47.756 43.6212 48.0123 43.9169 48.2456 44.2244H54.8411C54.1349 42.3982 53.0492 40.6839 51.5803 39.2034L50.7435 38.36C45.2614 32.8346 36.4379 32.6295 30.7088 37.8943L8.73293 58.0893C2.47135 63.8435 2.41403 73.7586 8.60867 79.5859L9.12023 80.0671C14.5808 85.2038 23.0184 85.3227 28.6193 80.3418L50.9204 60.5089C51.3067 60.1654 51.6703 59.806 52.0113 59.4327H43.3589L24.7795 75.9557Z" fill="white"/>
</svg>
