<svg width="32" height="32" viewBox="0 0 32 32" fill="none" xmlns="http://www.w3.org/2000/svg">
<path d="M28.7151 6.83916C28.7121 6.33179 28.4703 5.95705 28.0113 5.74484C27.6789 5.59158 27.338 5.45747 26.9989 5.31411L22.574 3.46842C20.5717 2.63432 18.5698 1.79937 16.5686 0.964211C16.2069 0.812211 15.8566 0.79558 15.4894 0.953053C14.605 1.33137 13.7143 1.69621 12.8267 2.06674L8.6553 3.80568C7.14718 4.435 5.63918 5.06461 4.1313 5.69453C3.58962 5.92042 3.31867 6.31663 3.31783 6.90463C3.31783 8.27853 3.32267 9.65221 3.31783 11.0267C3.30878 12.7387 3.30941 14.4497 3.62393 16.1434C3.78129 17.0143 3.99393 17.8742 4.26057 18.7181C5.13089 21.4482 6.58292 23.9571 8.51657 26.0718C10.4463 28.1822 12.8126 29.847 15.4509 30.9503C15.7772 31.0882 16.1065 31.1448 16.4448 31.0053C18.1565 30.3075 19.7606 29.3704 21.209 28.2219C22.7859 26.9722 24.163 25.4894 25.2928 23.8244C26.8882 21.4783 27.9585 18.8155 28.4309 16.0179C28.5833 15.1599 28.6732 14.292 28.6997 13.4211C28.7229 12.3709 28.7052 11.3194 28.7052 10.2686H28.7149C28.7149 9.12547 28.721 7.98253 28.7149 6.83937L28.7151 6.83916Z" fill="#326CE5" stroke="#326CE5" stroke-width="1.68421" stroke-miterlimit="10"/>
<path d="M20.5792 12.9122H19.8335V11.4211C19.8335 9.36316 18.1634 7.69305 16.1055 7.69305C14.0476 7.69305 12.3775 9.36316 12.3775 11.4211V12.9122H11.6318C10.8116 12.9122 10.1406 13.5834 10.1406 14.4036V21.8596C10.1406 22.6798 10.8116 23.3509 11.6318 23.3509H20.5792C21.3994 23.3509 22.0703 22.6798 22.0703 21.8596V14.4036C22.0703 13.5834 21.3994 12.9122 20.5792 12.9122ZM16.1055 19.6227C15.2853 19.6227 14.6143 18.9518 14.6143 18.1316C14.6143 17.3114 15.2853 16.6404 16.1055 16.6404C16.9257 16.6404 17.5966 17.3114 17.5966 18.1316C17.5966 18.9518 16.9257 19.6227 16.1055 19.6227ZM18.417 12.9122H13.7939V11.4211C13.7939 10.1461 14.8305 9.10948 16.1055 9.10948C17.3804 9.10948 18.417 10.1461 18.417 11.4211V12.9122Z" fill="white"/>
</svg>