<svg width="40" height="40" viewBox="0 0 40 40" fill="none" xmlns="http://www.w3.org/2000/svg">
<g clip-path="url(#clip0_23295_3328)">
<path d="M40 0H0V40H40V0Z" fill="#ED7100" fill-opacity="0.12"/>
<path fill-rule="evenodd" clip-rule="evenodd" d="M25 23.8154V17.8944L27 20.1684V25.7854L25 23.8154ZM22.5 28.4794C23.879 28.4794 25 27.3584 25 25.9794V25.2184L27.149 27.3364C27.244 27.4294 27.371 27.4794 27.5 27.4794C27.565 27.4794 27.631 27.4664 27.693 27.4404C27.879 27.3634 28 27.1804 28 26.9794V19.9794C28 19.8584 27.956 19.7404 27.875 19.6494L25 16.3814V14.4794H24V25.9794C24 26.8064 23.327 27.4794 22.5 27.4794H21.452C21.176 27.4794 21 27.7034 21 27.9794V30.4794H22V28.4794H22.5ZM13 25.7854V20.1684L15 17.8944V23.8154L13 25.7854ZM18 28.4794V30.4794H19V27.9794C19 27.7034 18.824 27.4794 18.548 27.4794H17.5C16.673 27.4794 16 26.8064 16 25.9794V14.4794H15V16.3814L12.125 19.6494C12.044 19.7404 12 19.8584 12 19.9794V26.9794C12 27.1804 12.121 27.3634 12.307 27.4404C12.369 27.4664 12.435 27.4794 12.5 27.4794C12.629 27.4794 12.756 27.4294 12.851 27.3364L15 25.2184V25.9794C15 27.3584 16.121 28.4794 17.5 28.4794H18ZM19 20.4794H21V18.4794H19V20.4794ZM18.5 17.4794C18.224 17.4794 18 17.7034 18 17.9794V20.9794C18 21.2554 18.224 21.4794 18.5 21.4794H21.5C21.776 21.4794 22 21.2554 22 20.9794V17.9794C22 17.7034 21.776 17.4794 21.5 17.4794H18.5ZM20.031 7.00038L24.583 12.5424C23.499 12.2874 21.918 12.0254 20 12.0254C18.128 12.0254 16.523 12.2944 15.42 12.5524L20.031 7.00038ZM14 13.9794C14.059 13.9794 14.118 13.9684 14.175 13.9484C14.2 13.9384 16.687 13.0254 20 13.0254C23.447 13.0254 25.793 13.9354 25.816 13.9444C26.027 14.0284 26.27 13.9584 26.404 13.7734C26.538 13.5894 26.531 13.3374 26.387 13.1624L20.811 6.37338C20.418 5.87338 19.576 5.88038 19.195 6.36538L13.613 13.1624C13.47 13.3364 13.462 13.5864 13.594 13.7694C13.689 13.9044 13.843 13.9794 14 13.9794ZM19 33.4794H21V32.4794H19V33.4794ZM17 32.4794H18V33.9794C18 34.2554 18.224 34.4794 18.5 34.4794H21.5C21.776 34.4794 22 34.2554 22 33.9794V32.4794H23V31.4794H17V32.4794Z" fill="#ED7100"/>
</g>
<rect x="0.5" y="0.5" width="39" height="39" stroke="#ED7100"/>
<defs>
<clipPath id="clip0_23295_3328">
<rect width="40" height="40" fill="white"/>
</clipPath>
</defs>
</svg>
