<svg xmlns="http://www.w3.org/2000/svg" viewBox="2.6 6.42 64 64" width="18" height="18"><path d="M66.6 65.482a4.89 4.89 0 0 1-4.938 4.938H7.538A4.89 4.89 0 0 1 2.6 65.482V11.358A4.89 4.89 0 0 1 7.538 6.42H61.66a4.89 4.89 0 0 1 4.938 4.938z" fill="#173d4b"/><path d="M39.933 35.457v8.9c0 4.148.593 7.704 4.938 7.9 1.778 0 2.963-.8 3.753-1.58s1.185-2.173 1.185-3.95c-.198-1.975.988-4.74 4.346-5.333h.988c1.58 0 3.16.593 4.148 1.58.593.593 1.383 1.778 1.383 3.358v.198c0 5.136-1.58 9.086-4.543 11.457-2.37 2.173-5.53 3.16-8.7 3.556-3.556.395-7.506.593-10.667-.988-2.568-1.185-4.148-3.358-5.53-5.53-1.975-3.16-2.173-6.32-2.173-9.877v-7.9l-.198-9.48c-.198-3.556 1.383-7.1 3.95-9.48 3.95-3.95 10.864-4.74 16.198-3.753 3.556.593 6.914 2.37 8.9 5.333 1.975 2.765 2.963 6.52 2.765 9.877-.198 2.568-1.778 4.543-4.346 4.938-2.765.593-5.728-.8-6.32-3.753-.395-1.383 0-2.963-.593-4.346-.198-.8-.8-1.383-1.383-1.778-1.58-.988-4.346-.988-5.926-.198-1.778.8-2.173 2.765-2.173 4.543v6.32z" fill="#fff"/><path d="M39.933 44.543c0 1.383.198 2.568.395 3.753.198 1.383.988 2.765 2.173 3.556.395.198.988.395 1.383.8 1.778 1.383 2.173 3.95 1.383 5.926-.395 1.383-1.58 2.765-2.963 3.16-1.778.593-3.556 0-5.136-.593l-2.173-1.185-.8-.593c-2.765 1.778-6.123 2.765-10.074 2.765-4.74 0-8.494-1.185-11.457-3.753S8.13 52.05 8.13 46.914V29.926c0-5.136 1.58-9.086 4.543-11.457 2.765-2.37 6.716-3.753 11.457-3.753s8.494 1.185 11.457 3.753l.593.593s3.753 2.963 3.753 11.062v8.7c.198 1.778 0 3.753 0 5.728zM29.07 29.926c0-1.975-.395-3.358-1.185-4.148s-1.975-1.185-3.753-1.185c-3.556 0-4.938 1.383-4.938 5.333v16.988c0 3.753 1.383 5.333 4.938 5.333 1.778 0 2.963-.395 3.753-1.185s1.185-2.173 1.185-3.95z" fill="#00a551"/></svg>