<svg width="40" height="40" viewBox="0 0 40 40" fill="none" xmlns="http://www.w3.org/2000/svg">
<g clip-path="url(#clip0_23295_3299)">
<path d="M40 0H0V40H40V0Z" fill="#ED7100" fill-opacity="0.12"/>
<path fill-rule="evenodd" clip-rule="evenodd" d="M19 7.38425V10.0002H20V7.38425L22.131 8.66525L22.646 7.80825L19.758 6.07125C19.6 5.97625 19.4 5.97625 19.242 6.07125L16.354 7.80825L16.869 8.66525L19 7.38425ZM24.326 33.0002L19.5 29.8353L14.674 33.0002H24.326ZM19 26.3943C18.692 20.7033 13.683 15.9273 7.00003 14.8903V17.0002H6V14.3162C6 14.1732 6.06203 14.0362 6.16903 13.9412C6.19203 13.9212 6.22203 13.9123 6.24803 13.8973L6.24203 13.8872L9.13103 12.1502L9.64603 13.0083L7.93003 14.0402C13.077 15.0692 17.186 18.2272 19 22.3072V20.0002C19 15.7972 16.898 12.0592 13.747 10.6102L12.241 11.4383L11.759 10.5623L13.481 9.61425C13.615 9.54225 13.776 9.53225 13.916 9.59225C16.62 10.7273 18.619 13.2222 19.5 16.3462C20.381 13.2212 22.38 10.7273 25.084 9.59225C25.224 9.53225 25.384 9.54225 25.519 9.61425L27.241 10.5623L26.759 11.4383L25.253 10.6102C22.102 12.0582 20 15.7962 20 20.0002V22.3193C21.814 18.2273 25.923 15.0682 31.07 14.0402L29.354 13.0083L29.869 12.1502L32.758 13.8872L32.752 13.8962C32.778 13.9122 32.808 13.9212 32.831 13.9412C32.938 14.0362 33.0001 14.1732 33.0001 14.3162V17.0002H32V14.8903C25.321 15.9263 20.313 20.6983 20 26.4123V28.9673L22 30.2782V27.7903C22.154 24.2713 24.662 21.9342 28.09 22.0802C29.46 22.1402 30.724 22.7263 31.65 23.7323C32.577 24.7383 33.055 26.0442 32.995 27.4072C32.896 29.6522 31.03 31.4123 28.795 31.4123C28.733 31.4123 28.671 31.4113 28.609 31.4083C27.685 31.3683 26.831 30.9723 26.206 30.2943C25.579 29.6143 25.257 28.7333 25.297 27.8113C25.365 26.2453 26.617 25.1212 28.235 25.1842L28.192 26.1833C27.132 26.1253 26.341 26.8402 26.297 27.8552C26.268 28.5092 26.497 29.1342 26.941 29.6162C27.386 30.0992 27.994 30.3813 28.652 30.4093C30.463 30.4883 31.919 29.1193 31.995 27.3633C32.044 26.2683 31.66 25.2183 30.915 24.4093C30.169 23.5993 29.15 23.1273 28.047 23.0793C25.15 22.9433 23.129 24.8563 23 27.8123V30.9342L26.274 33.0823C26.459 33.2033 26.542 33.4312 26.479 33.6432C26.416 33.8552 26.221 34.0002 26 34.0002H13C12.779 34.0002 12.584 33.8552 12.521 33.6432C12.458 33.4312 12.541 33.2033 12.726 33.0823L16 30.9342V27.7903C15.871 24.8563 13.849 22.9453 10.953 23.0793C9.85003 23.1273 8.83103 23.5993 8.08503 24.4093C7.34003 25.2183 6.95603 26.2683 7.00503 27.3633C7.08203 29.1193 8.56403 30.4883 10.348 30.4093C11.006 30.3813 11.614 30.0992 12.059 29.6162C12.503 29.1342 12.732 28.5092 12.703 27.8552C12.66 26.8402 11.845 26.1263 10.808 26.1833L10.765 25.1842C12.379 25.1222 13.635 26.2453 13.703 27.8113C13.743 28.7333 13.421 29.6143 12.794 30.2943C12.169 30.9723 11.315 31.3683 10.391 31.4083C10.329 31.4113 10.267 31.4123 10.205 31.4123C7.96903 31.4133 6.10403 29.6532 6.00503 27.4072C5.94503 26.0442 6.42303 24.7383 7.35003 23.7323C8.27603 22.7263 9.54003 22.1402 10.91 22.0802C14.349 21.9302 16.846 24.2702 17 27.7682V30.2782L19 28.9673V26.3943ZM32 22.0002H33V19.0002H32V22.0002ZM6.00003 22.0002H7.00003V19.0002H6.00003V22.0002Z" fill="#ED7100"/>
</g>
<rect x="0.5" y="0.5" width="39" height="39" stroke="#ED7100"/>
<defs>
<clipPath id="clip0_23295_3299">
<rect width="40" height="40" fill="white"/>
</clipPath>
</defs>
</svg>
