<svg width="40" height="40" viewBox="0 0 40 40" fill="none" xmlns="http://www.w3.org/2000/svg">
<g clip-path="url(#clip0_23295_3227)">
<path d="M40 0H0V40H40V0Z" fill="#ED7100" fill-opacity="0.12"/>
<path fill-rule="evenodd" clip-rule="evenodd" d="M25.5 22.5936C25.5 21.7748 24.827 21.1084 24 21.1084C23.173 21.1084 22.5 21.7748 22.5 22.5936C22.5 23.4125 23.173 24.0788 24 24.0788C24.827 24.0788 25.5 23.4125 25.5 22.5936ZM20 17.1478C20.827 17.1478 21.5 16.4814 21.5 15.6626C21.5 14.8437 20.827 14.1774 20 14.1774C19.173 14.1774 18.5 14.8437 18.5 15.6626C18.5 16.4814 19.173 17.1478 20 17.1478ZM15 23.0887C15.827 23.0887 16.5 22.4223 16.5 21.6035C16.5 20.7846 15.827 20.1182 15 20.1182C14.173 20.1182 13.5 20.7846 13.5 21.6035C13.5 22.4223 14.173 23.0887 15 23.0887ZM26.5 22.5936C26.5 23.7887 25.64 24.7888 24.5 25.0185V28.5345C24.5 28.8078 24.276 29.0296 24 29.0296H20.5V32H19.5V26.0591H15C14.724 26.0591 14.5 25.8373 14.5 25.564V24.0283C13.36 23.7986 12.5 22.7986 12.5 21.6035C12.5 20.239 13.621 19.1281 15 19.1281C16.379 19.1281 17.5 20.239 17.5 21.6035C17.5 22.7986 16.64 23.7986 15.5 24.0283V25.069H19.5V18.0875C18.36 17.8577 17.5 16.8577 17.5 15.6626C17.5 14.2982 18.621 13.1872 20 13.1872C21.379 13.1872 22.5 14.2982 22.5 15.6626C22.5 16.8577 21.64 17.8577 20.5 18.0875V28.0394H23.5V25.0185C22.36 24.7888 21.5 23.7887 21.5 22.5936C21.5 21.2292 22.621 20.1182 24 20.1182C25.379 20.1182 26.5 21.2292 26.5 22.5936ZM34 20.0687C34 23.755 31.224 25.069 28.625 25.069V24.0788C29.94 24.0788 33 23.6877 33 20.0687C33 17.3607 30.921 16.3794 29.177 16.0329C28.954 15.9883 28.79 15.8012 28.776 15.5774C28.649 13.4546 27.398 12.7011 26.366 12.7011C25.668 12.7011 25.013 13.0308 24.57 13.606C24.459 13.7486 24.276 13.8189 24.099 13.7952C23.918 13.7684 23.767 13.6466 23.704 13.4763C23.304 12.402 22.729 11.502 21.999 10.8029C20.119 8.9979 17.547 8.50976 15.121 9.49496C13.104 10.3079 11.526 12.6575 11.526 14.8447C11.526 15.0873 11.542 15.3299 11.571 15.5665C11.603 15.8151 11.441 16.0477 11.195 16.1081C10.002 16.4012 8 17.3003 8 20.0311C8 20.1232 8.005 20.2123 8.009 20.2975C8.13 22.4302 10.011 24.0788 12.294 24.0788H12.5V25.069H12.294C9.481 25.069 7.161 23.0095 7.012 20.3806C7.005 20.245 7 20.14 7 20.0311C7 16.8646 9.223 15.6854 10.539 15.2645C10.53 15.1249 10.526 14.9853 10.526 14.8447C10.526 12.2406 12.339 9.54743 14.743 8.57808C17.548 7.43842 20.522 8.00479 22.694 10.092C23.365 10.7326 23.918 11.5158 24.345 12.4238C26.079 11.0327 29.313 11.6089 29.741 15.1428C32.491 15.8052 34 17.5429 34 20.0687Z" fill="#ED7100"/>
</g>
<rect x="0.5" y="0.5" width="39" height="39" stroke="#ED7100"/>
<defs>
<clipPath id="clip0_23295_3227">
<rect width="40" height="40" fill="white"/>
</clipPath>
</defs>
</svg>
