<svg width="24px" height="24px" viewBox="0 0 24 24" fill="none" xmlns="http://www.w3.org/2000/svg">
<path d="M15.747 10.0324L18.5545 11.6653C18.6995 11.7496 18.7486 11.9354 18.6644 12.0804C18.6383 12.1252 18.6012 12.1625 18.5567 12.189L14.447 14.6234L18.8458 17.1089C18.9411 17.1628 19 17.2638 19 17.3732V19.6894C19 19.8571 18.8641 19.9931 18.6964 19.9931C18.6428 19.9931 18.5901 19.9789 18.5437 19.9519L11.937 16.1104L5.45842 19.9503C5.31415 20.0358 5.1279 19.9882 5.04242 19.8439C5.01465 19.797 5 19.7436 5 19.6891V17.3754C5 17.2673 5.05743 17.1674 5.15081 17.113L14.0571 11.9253L13.229 11.4564L15.747 10.0324ZM5.30363 4.00781C5.35725 4.00781 5.40991 4.02201 5.45626 4.04896L12.062 7.88945L18.5416 4.05056C18.6858 3.96507 18.8721 4.01272 18.9576 4.15699C18.9853 4.20385 19 4.25731 19 4.31177V6.62553C19 6.73359 18.9426 6.83351 18.8492 6.8879L9.94287 12.0756L10.771 12.5444L8.253 13.9684L5.4455 12.3356C5.30053 12.2513 5.25135 12.0655 5.33564 11.9205C5.36169 11.8757 5.39876 11.8383 5.44334 11.8119L9.551 9.37745L5.1542 6.89197C5.05891 6.8381 5 6.73712 5 6.62766V4.31144C5 4.14375 5.13594 4.00781 5.30363 4.00781Z" fill="white"/>
</svg>
