<svg width="24" height="24" viewBox="0 0 24 24" fill="none" xmlns="http://www.w3.org/2000/svg">
<path fill-rule="evenodd" clip-rule="evenodd" d="M11.9882 7.19922C11.439 7.19922 10.9115 7.29341 10.4199 7.46419L11.2565 8.43935C11.4929 8.39062 11.7376 8.36497 11.9882 8.36497C13.9831 8.36497 15.606 9.98607 15.606 11.9788C15.606 13.9715 13.9831 15.5926 11.9882 15.5926C9.99326 15.5926 8.3704 13.9715 8.3704 11.9788C8.3704 11.5345 8.45151 11.1091 8.5989 10.7158L7.76214 9.74068C7.40597 10.4088 7.20337 11.1705 7.20337 11.9788C7.20337 14.6142 9.34988 16.7584 11.9882 16.7584C14.6265 16.7584 16.773 14.6142 16.773 11.9788C16.773 9.34339 14.6265 7.19922 11.9882 7.19922Z" fill="white"/>
<path fill-rule="evenodd" clip-rule="evenodd" d="M20.9766 7.77521C20.9766 6.87607 20.2435 6.14465 19.3423 6.14465C19.1798 6.14465 19.0233 6.16923 18.8752 6.21337C17.2249 4.25076 14.7507 3 11.9883 3C10.6936 3 9.46316 3.27661 8.35001 3.77044C8.43826 4.04158 8.48635 4.33054 8.48635 4.63056C8.48635 4.75844 8.47702 4.88388 8.46021 5.0071C9.52106 4.46972 10.7193 4.16469 11.9883 4.16469C14.3752 4.16469 16.5144 5.23829 17.9502 6.92557C17.7977 7.1733 17.7081 7.46366 17.7081 7.77521C17.7081 8.67435 18.4412 9.40577 19.3423 9.40577C19.3528 9.40577 19.3631 9.40437 19.3735 9.40414C19.6546 10.2079 19.8093 11.07 19.8093 11.9681C19.8093 15.445 17.5181 18.3968 14.3634 19.4025C14.0664 18.9919 13.584 18.7233 13.0389 18.7233C12.3493 18.7233 11.7594 19.1523 11.5198 19.7562C7.42469 19.5135 4.16731 16.1139 4.16731 11.9681C4.16731 10.2738 4.71291 8.70533 5.63578 7.42452C5.20213 7.41707 4.79229 7.31097 4.42774 7.12741C3.52587 8.52492 3 10.1859 3 11.9681C3 16.7528 6.77508 20.674 11.5095 20.9232C11.7417 21.5419 12.3387 21.9844 13.0389 21.9844C13.88 21.9844 14.5743 21.3467 14.6631 20.5307C18.3171 19.3919 20.9766 15.984 20.9766 11.9681C20.9766 10.915 20.7921 9.90426 20.4565 8.96482C20.7756 8.66701 20.9766 8.24458 20.9766 7.77521Z" fill="white"/>
<path fill-rule="evenodd" clip-rule="evenodd" d="M12.009 12.4232C11.7516 12.4232 11.5422 12.2145 11.5422 11.9579C11.5422 11.7013 11.7516 11.4925 12.009 11.4925C12.2665 11.4925 12.4758 11.7013 12.4758 11.9579C12.4758 12.2145 12.2665 12.4232 12.009 12.4232ZM5.24027 4.62871C5.24027 4.37207 5.44963 4.16336 5.70708 4.16336C5.96452 4.16336 6.17389 4.37207 6.17389 4.62871C6.17389 4.88534 5.96452 5.09405 5.70708 5.09405C5.44963 5.09405 5.24027 4.88534 5.24027 4.62871ZM12.009 10.3292C11.8162 10.3292 11.6321 10.3644 11.4602 10.4257L7.1431 5.40502C7.26914 5.17409 7.34091 4.90954 7.34091 4.62871C7.34091 3.73059 6.60802 3 5.70708 3C4.80613 3 4.07324 3.73059 4.07324 4.62871C4.07324 5.52682 4.80613 6.25741 5.70708 6.25741C5.89987 6.25741 6.08403 6.22216 6.25593 6.16085L10.573 11.1816C10.447 11.4125 10.3752 11.6771 10.3752 11.9579C10.3752 12.856 11.1081 13.5866 12.009 13.5866C12.91 13.5866 13.6429 12.856 13.6429 11.9579C13.6429 11.0598 12.91 10.3292 12.009 10.3292Z" fill="white"/>
</svg>
