<svg xmlns="http://www.w3.org/2000/svg" role="img" viewBox="-2.78 54.22 365.56 245.56"><defs><style>.cls-1{fill:#fff}</style></defs><g id="cloudevents-transparent-icon"><g id="icon"><path id="Fill-1" d="M267.246 267.341c26.572.001 55.443-17.497 61.933-43.466 7.451-29.82-10.013-60.551-39.311-69.135a60.34 60.34 0 0 0-17.184-2.167c-8.557.014-17.114.004-25.902.004.598-21.86-7.116-39.902-24.405-53.337a56.8 56.8 0 0 0-37.607-12.127 58.098 58.098 0 0 0-40.487 17.65c-11.133 11.168-16.944 24.83-17.997 40.243l-24.08-8.315c2.145-26.602 23.64-63.346 65.307-72.991 47.529-11.003 91.576 20.022 101.913 63.662 3.951 0 8.061-.389 12.077.062 32.264 3.618 55.147 20.576 67.902 50.386 15.76 36.835 2.371 80.217-30.54 101.795-13.68 8.97-35.278 13.358-51.556 13.395" class="cls-1"/><path id="Fill-3" d="M248.15 292.85s-39.04.289-71.17.065c-33.79-.235-61.053-21.921-69.473-51.402-7.312-25.6-1.444-48.533 16.123-68.474 11.178-12.687 25.044-20.819 41.818-23.711a70.792 70.792 0 0 1 71.982 32.01 73.517 73.517 0 0 1 10.882 51.03c-.165 1.148-.433 1.757-1.794 1.754q-34.228-.057-68.456-.034a11.28 11.28 0 0 1-1.134-.127c-.04-.686-.107-1.325-.108-1.964q-.01-10.548-.002-21.098c.002-2.854.314-3.152 3.222-3.152h41.219c-.363-1.13-.584-2.07-.956-2.944-6.755-15.885-18.64-25.76-35.647-28.59-17.05-2.84-31.94 2.207-43.14 15.521-17.225 20.476-11.832 53.086 10.776 67.821a45.806 45.806 0 0 0 25.617 7.587c31.8-.032 70.178-.007 70.178-.007l.063 25.714" class="cls-1"/><path id="Fill-4" d="M93.066 261.514l15.765 19.942c-21.782 13.708-58.5 14.24-84.102-11.702a71.767 71.767 0 0 1-3.54-96.512c24.25-28.684 62.787-30.793 87.696-15.67l-15.818 19.964c-12.315-5.34-25.212-5.522-37.968.524a44.264 44.264 0 0 0-19.893 18.657 46.213 46.213 0 0 0 5.433 53.303 44.855 44.855 0 0 0 52.427 11.494" class="cls-1"/></g></g></svg>