<svg width="40" height="40" viewBox="0 0 40 40" fill="none" xmlns="http://www.w3.org/2000/svg">
<g clip-path="url(#clip0_23293_2705)">
<path d="M40 0H0V40H40V0Z" fill="#8C4FFF" fill-opacity="0.12"/>
<path fill-rule="evenodd" clip-rule="evenodd" d="M19.0026 18.5447H18.0047V14.0493H19.0026V16.047L20.3501 14.0493H21.4539L19.8936 16.151L21.5827 18.5447H20.3991L19.0026 16.372V18.5447ZM33 25.059L32.6664 25.3479C31.3179 26.5288 29.0374 26.5268 27.6889 25.3469L27.0227 24.769C26.0448 23.9141 24.3337 23.9121 23.3568 24.767L22.6865 25.3479C22.0133 25.9388 21.1063 26.2338 20.1993 26.2338C19.2923 26.2338 18.3853 25.9378 17.7101 25.3459L17.0428 24.769C16.0659 23.9121 14.3538 23.9131 13.3779 24.767L12.7066 25.3479C11.3611 26.5288 9.08068 26.5298 7.73118 25.3459L7.39856 25.059L8.05183 24.302L8.38645 24.592C9.36436 25.4499 11.0755 25.4489 12.0514 24.594L12.7226 24.0131C14.0691 22.8332 16.3486 22.8322 17.6981 24.0141L18.3653 24.592C19.3432 25.4499 21.0553 25.4489 22.0302 24.594L22.7015 24.0131C24.049 22.8322 26.3294 22.8342 27.6789 24.0141L28.3452 24.592C29.3231 25.4479 31.0342 25.4499 32.0101 24.594L32.3457 24.303L33 25.059ZM31.9492 31.0682L32.6024 31.8251L32.2678 32.1151C31.5946 32.705 30.6886 33 29.7816 33C28.8746 33 27.9676 32.704 27.2924 32.1121L26.6251 31.5362C25.6472 30.6773 23.9351 30.6793 22.9602 31.5332L22.2889 32.1151C20.9424 33.294 18.663 33.296 17.3135 32.1121L16.6462 31.5362C15.6693 30.6803 13.9562 30.6793 12.9803 31.5342L12.3101 32.1141C10.9626 33.295 8.68212 33.293 7.33263 32.1131L7.001 31.8251L7.65527 31.0692L7.9889 31.3582C8.96581 32.2131 10.6769 32.2161 11.6548 31.3602L12.3241 30.7793C13.6726 29.5984 15.953 29.6014 17.3015 30.7813L17.9688 31.3582C18.9457 32.2161 20.6578 32.2151 21.6337 31.3602L22.3049 30.7793C23.6504 29.5994 25.9309 29.5984 27.2804 30.7813L27.9476 31.3582C28.9255 32.2161 30.6366 32.2151 31.6125 31.3602L31.9492 31.0682ZM31.9492 27.9026L32.6024 28.6585L32.2678 28.9485C30.9223 30.1273 28.6419 30.1293 27.2924 28.9465L26.6251 28.3686C25.6472 27.5117 23.9351 27.5127 22.9602 28.3666L22.2889 28.9485C21.6157 29.5384 20.7097 29.8334 19.8027 29.8334C18.8957 29.8334 17.9877 29.5384 17.3135 28.9465L16.6462 28.3686C15.6693 27.5137 13.9562 27.5127 12.9803 28.3676L12.3101 28.9485C10.9626 30.1283 8.68212 30.1273 7.33263 28.9465L7 28.6575L7.65627 27.9026L7.9899 28.1926C8.96481 29.0475 10.6769 29.0495 11.6548 28.1936L12.3241 27.6126C13.6726 26.4318 15.953 26.4348 17.3015 27.6146L17.9688 28.1926C18.9457 29.0485 20.6578 29.0485 21.6337 28.1936L22.3049 27.6126C23.6504 26.4328 25.9309 26.4318 27.2804 27.6146L27.9476 28.1926C28.9255 29.0485 30.6366 29.0485 31.6125 28.1936L31.9492 27.9026ZM12.5089 18.9987C13.0602 18.9987 13.5077 19.4476 13.5077 19.9986C13.5077 20.5495 13.0602 20.9984 12.5089 20.9984C11.9575 20.9984 11.51 20.5495 11.51 19.9986C11.51 19.4476 11.9575 18.9987 12.5089 18.9987ZM18.5661 11.7555C18.8478 11.9055 19.1614 11.9995 19.5011 11.9995C19.8407 11.9995 20.1553 11.9055 20.436 11.7555L25.3006 18.4048C24.943 18.6727 24.6823 19.0547 24.5664 19.4986H14.4357C14.3208 19.0547 14.0591 18.6727 13.7025 18.4048L18.5661 11.7555ZM19.5011 8.99988C20.0524 8.99988 20.4999 9.44783 20.4999 9.99976C20.4999 10.5507 20.0524 10.9996 19.5011 10.9996C18.9497 10.9996 18.5022 10.5507 18.5022 9.99976C18.5022 9.44783 18.9497 8.99988 19.5011 8.99988ZM27.4921 19.9986C27.4921 20.5495 27.0446 20.9984 26.4933 20.9984C25.9419 20.9984 25.4944 20.5495 25.4944 19.9986C25.4944 19.4476 25.9419 18.9987 26.4933 18.9987C27.0446 18.9987 27.4921 19.4476 27.4921 19.9986ZM12.5089 21.9983C13.4368 21.9983 14.212 21.3584 14.4357 20.4985H24.5664C24.7902 21.3584 25.5653 21.9983 26.4933 21.9983C27.595 21.9983 28.491 21.1014 28.491 19.9986C28.491 18.8957 27.595 17.9988 26.4933 17.9988C26.4133 17.9988 26.3364 18.0138 26.2585 18.0228L21.1782 11.0786C21.379 10.7667 21.4988 10.3977 21.4988 9.99976C21.4988 8.89689 20.6028 8 19.5011 8C18.3993 8 17.5033 8.89689 17.5033 9.99976C17.5033 10.3977 17.6232 10.7667 17.8239 11.0786L12.7446 18.0228C12.6657 18.0138 12.5898 17.9988 12.5089 17.9988C11.4071 17.9988 10.5111 18.8957 10.5111 19.9986C10.5111 21.1014 11.4071 21.9983 12.5089 21.9983Z" fill="#8C4FFF"/>
</g>
<rect x="0.5" y="0.5" width="39" height="39" stroke="#8C4FFF"/>
<defs>
<clipPath id="clip0_23293_2705">
<rect width="40" height="40" fill="white"/>
</clipPath>
</defs>
</svg>
