<svg width="40" height="40" viewBox="0 0 40 40" xmlns="http://www.w3.org/2000/svg">  <g id="Icon-Architecture/32/Arch_AWS-Migration-Evaluator_32" stroke="none" stroke-width="1" fill="none" fill-rule="evenodd">  <g id="Icon-Service/32/AWS-Migration-Evaluator_32" transform="translate(7.000000, 7.000000)" fill="#FFFFFF"> <path d="M13.438,14.91075 C12.611,14.91075 11.938,14.23775 11.938,13.41075 C11.938,12.58375 12.611,11.91075 13.438,11.91075 C14.265,11.91075 14.938,12.58375 14.938,13.41075 C14.938,14.23775 14.265,14.91075 13.438,14.91075 L13.438,14.91075 Z M13.438,10.91075 C12.059,10.91075 10.938,12.03275 10.938,13.41075 C10.938,14.78875 12.059,15.91075 13.438,15.91075 C14.817,15.91075 15.938,14.78875 15.938,13.41075 C15.938,12.03275 14.817,10.91075 13.438,10.91075 L13.438,10.91075 Z M17.395,16.63975 C17.282,16.68975 17.192,16.78075 17.141,16.89375 L13.486,25.11675 L9.855,16.94675 C9.804,16.83375 9.714,16.74375 9.601,16.69275 L1.732,13.19575 L9.839,9.59275 C9.953,9.54175 10.042,9.45175 10.093,9.33875 L13.486,1.70475 L16.903,9.39175 C16.954,9.50475 17.043,9.59575 17.157,9.64575 L25.144,13.19575 L17.395,16.63975 Z M21.809,21.74675 L16.915,19.86475 L17.977,17.47575 L19.846,16.64475 L21.809,21.74675 Z M5.067,21.62875 L6.991,16.62775 L9.019,17.52875 L9.999,19.73275 L5.067,21.62875 Z M5.253,5.19275 L10.026,7.02775 L9.257,8.75675 L7.008,9.75575 L5.253,5.19275 Z M21.623,5.07475 L19.829,9.73875 L17.739,8.80975 L16.887,6.89475 L21.623,5.07475 Z M26.579,12.73875 L20.744,10.14475 L22.959,4.38375 C23.031,4.19875 22.986,3.98975 22.846,3.84975 C22.706,3.70975 22.497,3.66475 22.313,3.73675 L16.481,5.97975 L13.943,0.27075 C13.783,-0.09025 13.189,-0.09025 13.029,0.27075 L10.432,6.11275 L4.563,3.85475 C4.379,3.78375 4.169,3.82775 4.03,3.96875 C3.89,4.10775 3.845,4.31675 3.917,4.50175 L6.093,10.16275 L0.297,12.73875 C0.117,12.81875 1.77635684e-15,12.99775 1.77635684e-15,13.19575 C1.77635684e-15,13.39275 0.117,13.57175 0.297,13.65275 L6.076,16.22075 L3.73,22.31975 C3.659,22.50475 3.704,22.71375 3.843,22.85275 C3.939,22.94875 4.067,22.99975 4.197,22.99975 C4.257,22.99975 4.318,22.98875 4.376,22.96675 L10.405,20.64775 L13.029,26.55075 C13.109,26.73175 13.289,26.84775 13.486,26.84775 C13.683,26.84775 13.863,26.73175 13.943,26.55075 L16.508,20.78075 L22.5,23.08475 C22.558,23.10675 22.619,23.11775 22.679,23.11775 C22.809,23.11775 22.937,23.06675 23.033,22.97175 C23.172,22.83175 23.217,22.62275 23.146,22.43775 L20.761,16.23875 L26.579,13.65275 C26.759,13.57175 26.876,13.39275 26.876,13.19575 C26.876,12.99775 26.759,12.81875 26.579,12.73875 L26.579,12.73875 Z" id="AWS-Migration-Evaluator_Icon_32_Squid"></path> </g> </g></svg>