<svg width="40" height="40" viewBox="0 0 40 40" fill="none" xmlns="http://www.w3.org/2000/svg">
<g clip-path="url(#clip0_23293_2636)">
<mask id="mask0_23293_2636" style="mask-type:luminance" maskUnits="userSpaceOnUse" x="0" y="0" width="40" height="40">
<path d="M40 0H0V40H40V0Z" fill="white"/>
</mask>
<g mask="url(#mask0_23293_2636)">
<path d="M40 0H0V40H40V0Z" fill="#8C4FFF" fill-opacity="0.12"/>
<path fill-rule="evenodd" clip-rule="evenodd" d="M18.726 14.2854C20.5267 14.2854 21.7081 14.5697 22.1453 14.7841C21.7081 14.9985 20.5267 15.2828 18.726 15.2828C16.9254 15.2828 15.7439 14.9985 15.3067 14.7841C15.7439 14.5697 16.9254 14.2854 18.726 14.2854ZM18.7403 17.4831C18.6518 17.4561 18.5755 17.4043 18.5755 17.3015C18.5755 17.1619 18.6904 17.0492 18.8318 17.0492C18.8745 17.0492 18.904 17.0751 18.9385 17.0921L18.7403 17.4831ZM21.6786 21.6392C21.641 21.6682 21.5546 21.726 21.3757 21.7948C21.214 21.8577 21.0228 21.9135 20.8103 21.9614C20.2389 22.091 19.5364 22.1629 18.8318 22.1629C17.2904 22.1629 16.2157 21.8407 15.9859 21.6412L15.2976 15.8473C16.4851 16.2483 18.2349 16.2802 18.726 16.2802C19.2222 16.2802 21.0015 16.2473 22.1901 15.8354L21.9877 18.1334C21.2526 17.8571 20.3792 17.4771 19.5475 17.0851C19.451 16.7809 19.1724 16.5555 18.8318 16.5555C18.4129 16.5555 18.0723 16.8906 18.0723 17.3015C18.0723 17.7125 18.4129 18.0466 18.8318 18.0466C18.9324 18.0466 19.027 18.0256 19.1144 17.9907C20.2918 18.5513 21.2048 18.9353 21.8952 19.1766L21.6786 21.6392ZM14.1537 14.8419L14.9763 21.733C14.9763 23.1443 18.6742 23.1603 18.8318 23.1603C19.6116 23.1603 20.3955 23.0795 21.0381 22.9339C21.3065 22.873 21.5454 22.8012 21.7488 22.7224C22.3721 22.481 22.6872 22.1479 22.6862 21.7759L22.8896 19.4709C23.1885 19.5387 23.4244 19.5686 23.6054 19.5686C24.0832 19.5686 24.2093 19.3801 24.2957 19.2505L24.372 18.7737C24.25 18.282 23.3725 17.5868 23.0746 17.3704L23.2993 14.827L23.2942 14.826C23.2953 14.812 23.3014 14.7991 23.3014 14.7841C23.3014 13.3598 19.4896 13.288 18.726 13.288C17.9624 13.288 14.1507 13.3598 14.1507 14.7841C14.1507 14.804 14.1588 14.821 14.1608 14.841L14.1537 14.8419ZM18.7453 9.39415C23.5098 9.39415 27.3876 13.1972 27.3876 17.872C27.3876 22.5469 23.5098 26.3499 18.7453 26.3499C13.9799 26.3499 10.103 22.5469 10.103 17.872C10.103 13.1972 13.9799 9.39415 18.7453 9.39415ZM6.01674 21.2672V22.2646H10.1935C11.8112 25.2817 15.0342 27.3473 18.7453 27.3473C24.071 27.3473 28.4044 23.0964 28.4044 17.872C28.4044 12.6477 24.071 8.39675 18.7453 8.39675C14.3357 8.39675 10.6134 11.3141 9.46248 15.2828H6.01674V16.2802H9.23372C9.14322 16.7988 9.08629 17.3285 9.08629 17.872C9.08629 18.0077 9.10052 18.1403 9.10662 18.275H5V19.2724H9.20321C9.30794 19.9646 9.4879 20.6319 9.73802 21.2672H6.01674ZM33.5034 32.5318C32.8892 33.1353 31.8227 33.1402 31.2075 32.5368L25.9551 27.3852C26.8356 26.7419 27.6215 25.9879 28.2946 25.1391L33.5095 30.2807C33.8155 30.5809 33.9833 30.9809 33.9833 31.4068C33.9822 31.8317 33.8124 32.2316 33.5034 32.5318ZM34.2293 29.5765L28.8955 24.3172C30.1247 22.4591 30.8476 20.2489 30.8476 17.872C30.8476 11.3261 25.4182 6 18.7453 6C13.9494 6 9.59974 8.78175 7.6659 13.0865L8.5952 13.4895C10.3684 9.54576 14.352 6.9974 18.7453 6.9974C24.857 6.9974 29.8309 11.8757 29.8309 17.872C29.8309 23.8684 24.857 28.7477 18.7453 28.7477C15.0129 28.7477 11.5529 26.9215 9.49095 23.8634L8.64299 24.414C10.8941 27.7523 14.6702 29.7451 18.7453 29.7451C21.0777 29.7451 23.2505 29.0828 25.101 27.9568L30.4887 33.243C30.9869 33.7307 31.6478 34 32.3493 34C33.056 34 33.7209 33.7287 34.2212 33.239C34.7214 32.7513 34.998 32.101 35 31.4078C35.001 30.7156 34.7265 30.0643 34.2293 29.5765Z" fill="#8C4FFF"/>
</g>
<path d="M39.5 0.5H0.5V39.5H39.5V0.5Z" stroke="#8C4FFF"/>
</g>
<defs>
<clipPath id="clip0_23293_2636">
<rect width="40" height="40" fill="white"/>
</clipPath>
</defs>
</svg>
