<svg xmlns="http://www.w3.org/2000/svg" width="64" height="64"><path d="M36.36 17.11l-8.764.22c0-3.287-1.972-6.354-5.04-7.67s-6.573-.657-8.983 1.753-3.068 5.916-1.753 8.983 4.382 5.04 7.67 5.04h6.354V34.2H19.5c-7.23 0-13.585-4.382-15.995-11.174S2.837 8.785 8.315 4.184C11.602 1.335 15.984-.198 20.147.02c2.63 0 5.26.876 7.67 2.19-.22.22 8.107 4.382 8.545 14.9z" fill="#335061"/><path d="M44.687 64c-9.422 0-17.1-7.67-17.1-17.1V19.083h8.764V46.9c0 3.287 1.972 6.354 5.04 7.67s6.573.657 8.983-1.753 3.068-5.916 1.753-8.983-4.382-5.04-7.67-5.04h-6.354v-8.764h6.354c9.422 0 17.1 7.67 17.1 17.1.22 9.203-7.45 16.87-16.87 16.87z" fill="#1997b5"/></svg>