<svg id="Layer_1" data-name="Layer 1" xmlns="http://www.w3.org/2000/svg" viewBox="0 0 208.8 208.8"><defs><style>.cls-1{fill:#fff;}</style></defs><path class="cls-1" d="M105.38607,62.10581a6.17007,6.17007,0,0,0,6.117-6.2923A6.138,6.138,0,0,0,99.2286,55.932,6.18414,6.18414,0,0,0,105.38607,62.10581Z"/><path class="cls-1" d="M69.27719,159.13974a6.16776,6.16776,0,0,0,.07763,12.3349,6.16759,6.16759,0,1,0-.07763-12.3349Z"/><path class="cls-1" d="M134.68856,165.45963a6.24791,6.24791,0,0,0,6.33814,6.01269,6.16126,6.16126,0,1,0-6.33814-6.01269Z"/><path class="cls-1" d="M126.4161,107.92929a2.08741,2.08741,0,0,1-1.77734-2.41375,7.00319,7.00319,0,0,0-9.078-6.683,2.678,2.678,0,0,1-2.72559-.54419,12.50753,12.50753,0,0,0-10.41284-2.52838A12.82417,12.82417,0,0,0,92.2286,105.96061c-.33422,1.69647-1.19189,2.24212-2.84375,1.86065a9.8906,9.8906,0,0,0-4.72534-.016,9.75318,9.75318,0,0,0-7.35315,10.308A9.64922,9.64922,0,0,0,87.08,126.91458c1.445.00226,2.8888.04255,4.33509.02985,5.42163-.04761,10.84387-.0191,16.26587-.02051q3.91863,0,7.83715,0c2.64051-.00018,5.281.00476,7.92151-.00494a10.52354,10.52354,0,0,0,1.78333-.09528,9.70227,9.70227,0,0,0,1.19311-18.89441Z"/><path class="cls-1" d="M139.41879,109.308a1.95779,1.95779,0,0,1-2.14551-.33734,1.84045,1.84045,0,0,1-.57056-1.8584,2.14366,2.14366,0,0,1,1.54395-1.54846q3.6753-1.44654,7.35107-2.89124c1.67762-.65985,3.35511-1.32013,5.15625-2.02881-14.51367-10.92328-28.91772-21.764-43.44384-32.69684,0,4.3769.00073,8.51856-.00049,12.66022-.00049,1.33411.022,2.66919-.02027,4.00208a1.93525,1.93525,0,0,1-3.70959.67389,3.65507,3.65507,0,0,1-.17285-1.50965c-.00452-5.05365.00671-10.10736.005-15.16107-.00024-.19794.14673-.45575-.19861-.6239Q80.87815,84.19215,58.37716,100.516c4.2638,1.73175,8.38538,3.39948,12.50135,5.08106a1.976,1.976,0,1,1-1.44825,3.63635c-2.38989-.96673-4.7727-1.95129-7.1604-2.92334-1.50757-.61365-3.0188-1.21789-4.68579-1.88989,5.63684,16.79047,11.21509,33.40655,16.83338,50.14184.38537-.44738.67932-.78649.97082-1.12762q5.8363-6.82746,11.67383-13.65417c.93018-1.08655,2.054-1.25715,2.97449-.47791a2.00481,2.00481,0,0,1,.012,3.007q-4.92792,5.75556-9.85608,11.51086c-.7417.867-1.47363,1.74225-2.30688,2.72828,18.041.21466,35.89746.42712,53.89062.64123-.34277-.50519-.57776-.85638-.81763-1.20428q-4.78106-6.93384-9.56042-13.869a2.00852,2.00852,0,0,1,.33887-2.92859,1.98277,1.98277,0,0,1,2.91284.74957q3.68865,5.36416,7.38855,10.72064c.92676,1.34394,1.8562,2.686,2.88232,4.17084,5.57373-16.83075,11.0896-33.48706,16.65723-50.29956-1.63379.63794-3.10254,1.20813-4.56885,1.78479Q143.21243,107.8071,139.41879,109.308Zm-2.22192,9.81408a13.64312,13.64312,0,0,1-11.27894,11.532,11.862,11.862,0,0,1-1.9458.1643c-3.06579.00714-6.13147.00226-9.19714.002q-4.556-.00038-9.11182-.00006v.00293c-5.73315,0-11.467-.06147-17.199.022-3.72.05414-7.14233-.63727-10.0863-3.05939a13.49262,13.49262,0,0,1-4.46045-14.32422c1.736-5.55438,5.59167-8.78869,11.33178-9.72015a14.6028,14.6028,0,0,1,2.80408-.04382c.4856.01629.7146-.067.89526-.59418A16.73662,16.73662,0,0,1,105.40146,91.621a15.89994,15.89994,0,0,1,8.709,2.7785,2.02447,2.02447,0,0,0,1.64941.39044,10.903,10.903,0,0,1,12.59131,8.72455,1.64467,1.64467,0,0,0,1.07691,1.398A13.60465,13.60465,0,0,1,137.19687,119.1221Z"/><path class="cls-1" d="M198.03891,9.13645q-35.69715.10355-71.39478.04773a36.79569,36.79569,0,0,1-1.31518,7.99664A21.79317,21.79317,0,0,1,82.88961,10.664c-.01208-.49328-.027-.98651-.0404-1.47979H9.73373c-.77637.41174-.348,1.127-.34814,1.67022Q9.349,105.21378,9.36264,199.57322H176.192c7.36109,0,14.72217.01,22.083-.02314.48169-.00213,1.15064.41925,1.48462-.348q0-94.10751.0354-188.21509C199.796,9.569,199.63168,9.13181,198.03891,9.13645Zm-27.34827,96.3211a10.12152,10.12152,0,0,1-15.469.8313c-.297.21424-.31946.57318-.41956.87116q-2.56824,7.64007-5.10938,15.28924-5.31078,16.08234-10.60705,32.16944c-.21826.65979-.16284.79449.57947.721a9.90471,9.90471,0,0,1,11.11108,8.46259,9.61562,9.61562,0,0,1-2.23144,7.90881,10.03291,10.03291,0,0,1-17.25574-9.54547c.10315-.31952.22009-.63452.3728-1.07239-17.83386-.213-35.58777-.425-53.44446-.63824,1.63977,3.56409,1.64038,7.02374-.46948,10.33a9.70693,9.70693,0,0,1-6.687,4.42993,10.09689,10.09689,0,1,1-.5398-19.97778c-5.49829-16.37934-10.98425-32.722-16.51391-49.19477a10.34525,10.34525,0,0,1-5.35132,3.19672,10.11217,10.11217,0,0,1-11.29541-5.45062,9.66711,9.66711,0,0,1-.79395-2.31885,10.13193,10.13193,0,0,1,.80982-6.39319,10.03542,10.03542,0,0,1,18.68384,1.52911c.2146.71241.401.45276.75952.19281q10.78107-7.81751,21.571-15.62262c3.99988-2.8908,8.02137-5.75183,12.0188-8.646,3.39722-2.45972,6.77417-4.94757,10.15833-7.42523a1.067,1.067,0,0,0,.15722-.182,10.17719,10.17719,0,0,1-4.91125-12.13818,10.07081,10.07081,0,0,1,19.25268.48639,10.16536,10.16536,0,0,1-5.19885,11.70574c14.30872,10.76935,28.56555,21.49958,42.90418,32.29145a10.03833,10.03833,0,0,1,7.15844-7.51721,9.6035,9.6035,0,0,1,7.93506,1.09637A10.04731,10.04731,0,0,1,170.69064,105.45755Z"/><path class="cls-1" d="M46.41024,93.28849a6.14438,6.14438,0,1,0,6.139,6.14862A6.14176,6.14176,0,0,0,46.41024,93.28849Z"/><path class="cls-1" d="M162.67636,93.28983a6.14464,6.14464,0,1,0,6.08984,6.19952A6.09839,6.09839,0,0,0,162.67636,93.28983Z"/></svg>