<svg width="25" height="22" viewBox="0 0 25 22" fill="none" xmlns="http://www.w3.org/2000/svg">
<path d="M19.0571 1.31425C18.9391 1.11285 18.7703 0.945566 18.5672 0.828955C18.3642 0.712344 18.134 0.650454 17.8995 0.649414L10.855 0.658722V0.650744L7.26718 0.66404C7.03246 0.664981 6.80206 0.726817 6.59879 0.843427C6.39552 0.960036 6.22643 1.12737 6.10826 1.32887L2.89648 6.8563L5.06443 10.6139L8.68705 4.40573H20.8798L19.0571 1.31425Z" fill="white"/>
<path d="M14.3535 21.69L17.9668 21.6727C18.201 21.672 18.4309 21.6103 18.6336 21.4936C18.8363 21.3769 19.0046 21.2095 19.1217 21.0079L22.6386 14.9433V14.9513L24.4211 11.8531C24.5375 11.6507 24.5987 11.4215 24.5987 11.1883C24.5987 10.9551 24.5375 10.726 24.4211 10.5235L21.1986 4.9668H16.8467L20.4519 11.2043L16.8386 17.4112H16.8547L14.3535 21.69Z" fill="white"/>
<path d="M6.08719 21.0185C6.20515 21.2199 6.37401 21.3872 6.57705 21.5038C6.78008 21.6204 7.01026 21.6823 7.24477 21.6834L13.7004 21.7007L15.8858 17.9616L8.64189 17.935L8.5616 17.7954L2.57565 7.43066L0.777057 10.5368C0.660768 10.7393 0.599609 10.9684 0.599609 11.2016C0.599609 11.4348 0.660768 11.6639 0.777057 11.8664L4.28994 17.9271H4.28057L6.08719 21.0185Z" fill="white"/>
<path d="M12.6006 14.4683C14.4306 14.4683 15.9141 12.9944 15.9141 11.1761C15.9141 9.35779 14.4306 7.88379 12.6006 7.88379C10.7706 7.88379 9.28711 9.35779 9.28711 11.1761C9.28711 12.9944 10.7706 14.4683 12.6006 14.4683Z" fill="white"/>
</svg>
