<svg version="1.1" id="Layer_1" xmlns="http://www.w3.org/2000/svg" xmlns:xlink="http://www.w3.org/1999/xlink" x="0px" y="0px"
         viewBox="0 0 244.4 145.2" style="enable-background:new 0 0 244.4 145.2;" xml:space="preserve" width='244.4' height='145.2'>
<style type="text/css">
        .st0{fill:#0BBBEF;}
        .st1{fill:#1239B8;}
        .st2{fill:#017EFA;}
</style>
<g>
        <path class="st0" d="M62.9,72.5c5.7,3.6,12.2,5.4,18.4,8.1c11.1,4.7,22.4,9.1,33.6,13.6c1.2,0.5,1.8,1.4,1.8,2.9
                c-0.1,15.2-0.2,30.3-0.1,45.5c0,3.6-1.9,2.2-3.6,1.5c-20.4-8.3-40.7-16.5-61-24.8c-15.5-6.3-31-12.7-46.4-19.1
                c-1.6-0.7-3.4-0.5-4.8-1.7c0.1-1.3,1.1-1.5,2-1.9c5.8-2.3,11.6-4.6,17.3-7c13.8-5.7,27.6-11.3,41.4-17
                C61.9,72.5,62.4,72.5,62.9,72.5z"/>
        <path class="st1" d="M62.9,72.5c-0.5,0-1,0-1.5,0C56,70.2,50.5,67.9,45,65.7c-15-6-29.7-12.6-44.9-17.9c3.3-2.8,7.6-3.6,11.4-5.2
                c16.1-6.8,32.3-13.3,48.4-19.8c12-4.9,24.1-9.5,36-14.6c6.1-2.6,12.3-4.9,18.3-7.6c2.1-1,2.3-0.1,2.3,1.6c0,15.3,0,30.6,0,45.8
                c0,1.6-0.6,2.5-2,3.1c-9,3.6-18.2,6.9-27,10.9C79.5,65.8,71,68.6,62.9,72.5z"/>
        <path class="st0" d="M181.3,72.5c-7.8-3.3-15.5-6.6-23.3-9.8c-9.1-3.8-18.3-7.5-27.5-11.2c-1.4-0.6-2.6-1.1-2.6-3
                c0.1-16,0-32,0-48.5c7.5,3.1,14.6,6,21.7,8.9c19.9,8.1,39.9,16.1,59.9,24.2c11.1,4.5,22.2,9.1,33.3,13.6c0.5,0.2,1.3,0.2,1.4,1
                c-13.7,5.5-27.4,10.9-41.1,16.5c-6.5,2.6-13,5.5-19.5,8.3C182.8,72.5,182.1,72.5,181.3,72.5z"/>
        <path class="st1" d="M181.3,72.5c0.8,0,1.5,0,2.3,0c12.9,6.3,26.5,10.9,39.6,16.6c6.8,2.9,13.9,5.1,20.5,8.7
                c-11.8,5-23.6,10-35.5,14.8c-14.3,5.8-28.6,11.5-42.8,17.3c-12.3,5-24.6,10.1-37.4,15.3c0-8.9,0-17.4,0-25.8c0-7.3,0.1-14.7,0-22
                c0-2.1,0.5-3.1,2.6-3.9c16.2-6.4,32.4-13,48.6-19.6C180,73.5,180.6,72.9,181.3,72.5z"/>
        <path class="st2" d="M0.1,47.8C15.3,53.1,30,59.7,45,65.7c5.5,2.2,11,4.5,16.5,6.8c-13.8,5.7-27.6,11.4-41.4,17
                c-5.8,2.4-11.5,4.6-17.3,7c-0.9,0.4-2,0.6-2,1.9C-0.1,98.2,0,97.5,0,96.9C0,80.5,0.1,64.1,0.1,47.8z"/>
        <path class="st2" d="M243.7,97.8c-6.5-3.5-13.7-5.7-20.5-8.7c-13.2-5.7-26.8-10.3-39.6-16.6c6.5-2.8,12.9-5.6,19.5-8.3
                c13.7-5.5,27.4-11,41.1-16.5c0,16.3,0.1,32.5,0.2,48.8C244.4,97.1,244.3,97.5,243.7,97.8z"/>
</g>
</svg>
