<svg width="40" height="40" viewBox="0 0 40 40" fill="none" xmlns="http://www.w3.org/2000/svg">
<g clip-path="url(#clip0_23311_9590)">
<path d="M40 0H0V40H40V0Z" fill="#DD344C" fill-opacity="0.12"/>
<path fill-rule="evenodd" clip-rule="evenodd" d="M7 30H33V11H7V30ZM34 10.5V30.5C34 30.776 33.776 31 33.5 31H6.5C6.224 31 6 30.776 6 30.5V10.5C6 10.224 6.224 10 6.5 10H33.5C33.776 10 34 10.224 34 10.5ZM22 24H30V23H22V24ZM28 21H31V20H28V21ZM22 21H26V20H22V21ZM15 23.5C15 23.224 14.775 23 14.5 23C14.225 23 14 23.224 14 23.5C14 23.776 14.225 24 14.5 24C14.775 24 15 23.776 15 23.5ZM16 23.5C16 24.151 15.581 24.701 15 24.908V26H14V24.908C13.419 24.701 13 24.151 13 23.5C13 22.673 13.673 22 14.5 22C15.327 22 16 22.673 16 23.5ZM10 26.996L18.997 27L18.998 25H17V24H18.998L18.999 23H17V22H18.999L19 20.004L10.003 20L10 26.996ZM11 19L17.998 19.003V15.577C17.998 14.759 17.332 14.163 16.935 13.881C16.248 13.393 15.338 13.101 14.5 13.101H14.499C12.734 13.101 11.002 14.326 11.001 15.575L11 19ZM9 27.496L9.003 19.5C9.003 19.367 9.056 19.24 9.149 19.146C9.243 19.053 9.37 19 9.503 19H10L10.001 15.575C10.002 13.586 12.376 12.101 14.499 12.101H14.5C15.553 12.101 16.651 12.453 17.514 13.065C18.472 13.746 18.999 14.638 18.998 15.578V19.004H19.5C19.776 19.004 20 19.228 20 19.504L19.997 27.5C19.997 27.633 19.944 27.76 19.851 27.854C19.757 27.947 19.63 28 19.497 28L9.5 27.996C9.224 27.996 9 27.772 9 27.496ZM29 18H31V17H29V18ZM22 18H28V17H22V18Z" fill="#DD344C"/>
</g>
<rect x="0.5" y="0.5" width="39" height="39" stroke="#DD344C"/>
<defs>
<clipPath id="clip0_23311_9590">
<rect width="40" height="40" fill="white"/>
</clipPath>
</defs>
</svg>
