<svg width="40" height="40" viewBox="0 0 40 40" fill="none" xmlns="http://www.w3.org/2000/svg">
<g clip-path="url(#clip0_23298_3867)">
<path d="M40 0H0V40H40V0Z" fill="#01A88D" fill-opacity="0.12"/>
<path fill-rule="evenodd" clip-rule="evenodd" d="M20 12C24.072 12 27.436 15.06 27.931 19H24.856L22.606 14.802C22.515 14.63 22.335 14.525 22.136 14.539C21.94 14.551 21.771 14.675 21.7 14.857L18.051 24.262L16.027 20.274C15.941 20.106 15.77 20 15.581 20H12C12 15.589 15.589 12 20 12ZM20 28C15.928 28 12.564 24.94 12.069 21H15.274L17.665 25.713C17.755 25.889 17.95 26.006 18.136 25.986C18.333 25.977 18.506 25.852 18.577 25.667L22.239 16.232L24.117 19.736C24.204 19.898 24.373 20 24.558 20H28C28 24.411 24.411 28 20 28ZM11.059 21C11.559 25.493 15.375 29 20 29C24.963 29 29 24.962 29 20H33.5C33.776 20 34 19.776 34 19.5V17.062C34 16.477 33.523 16 32.938 16H31.167C30.964 15.333 30.695 14.685 30.364 14.065L31.617 12.812C31.818 12.611 31.929 12.344 31.929 12.061C31.929 11.777 31.818 11.51 31.617 11.309L28.69 8.382C28.276 7.97 27.603 7.969 27.188 8.383L25.936 9.637C25.315 9.305 24.668 9.036 24 8.833V7.063C24 6.477 23.523 6 22.938 6H17.062C16.477 6 16 6.477 16 7.063V8.833C15.332 9.036 14.685 9.305 14.064 9.637L12.812 8.383C12.399 7.971 11.727 7.969 11.309 8.383L8.383 11.309C8.182 11.51 8.071 11.777 8.071 12.061C8.071 12.344 8.182 12.611 8.383 12.812L9.632 14.061C9.322 14.628 9.043 15.306 8.833 16H7.047C6.47 16 6 16.47 6 17.047V18H7L7.047 17H9.211C9.437 17 9.637 16.847 9.694 16.628C9.923 15.763 10.292 14.872 10.682 14.242C10.804 14.044 10.774 13.789 10.61 13.625L9.09 12.016L12.104 9.09L13.625 10.611C13.785 10.771 14.034 10.802 14.229 10.689C14.985 10.25 15.792 9.915 16.628 9.694C16.848 9.636 17 9.437 17 9.21V7H23V9.21C23 9.437 23.152 9.636 23.372 9.694C24.208 9.915 25.015 10.25 25.771 10.689C25.966 10.804 26.214 10.771 26.375 10.611L27.984 9.09L30.91 12.105L29.39 13.625C29.229 13.785 29.197 14.034 29.311 14.23C29.75 14.986 30.085 15.792 30.306 16.628C30.363 16.847 30.563 17 30.789 17L33 17.062V19H28.941C28.441 14.507 24.625 11 20 11C15.037 11 11 15.038 11 20H6.5C6.224 20 6 20.224 6 20.5V22.938C6 23.523 6.477 24 7.062 24H8.826C9.058 24.673 9.366 25.326 9.745 25.95L8.537 27.147C8.307 27.349 8.175 27.641 8.175 27.946C8.175 28.252 8.307 28.544 8.526 28.736L11.738 31.711C12.136 32.061 12.739 32.062 13.141 31.711L14.706 30.338C15.342 30.634 16.11 30.912 17 31.169V32.937C17 33.523 17.477 34 18.063 34H22.938C23.523 34 24 33.523 24 32.937V31.181C24.793 30.971 25.562 30.689 26.296 30.339L27.833 31.687C28.249 32.052 28.875 32.05 29.309 31.67L32.286 28.775C32.512 28.577 32.641 28.294 32.641 28C32.641 27.706 32.512 27.423 32.338 27.277L31.237 25.979C31.624 25.347 31.938 24.684 32.174 24H32.938C33.523 24 34 23.523 34 22.938V22H33L32.938 23H31.811C31.59 23 31.396 23.145 31.332 23.355C31.08 24.188 30.699 24.992 30.2 25.745C30.077 25.931 30.092 26.175 30.235 26.345L31.574 27.924C31.591 27.942 31.589 28.025 31.607 28.041L28.631 30.936C28.594 30.966 28.527 30.968 28.492 30.936L26.704 29.367C26.55 29.233 26.33 29.205 26.146 29.297C25.278 29.741 24.35 30.079 23.387 30.303C23.16 30.355 23 30.557 23 30.79V33H18V30.79C18 30.564 17.849 30.366 17.631 30.307C16.497 29.999 15.563 29.659 14.854 29.297C14.669 29.204 14.45 29.232 14.296 29.367L12.408 30.969L9.206 28.003C9.202 28 9.222 27.882 9.218 27.879L10.734 26.377C10.904 26.209 10.932 25.944 10.8 25.745C10.301 24.992 9.92 24.188 9.668 23.355C9.604 23.145 9.41 23 9.189 23L7 22.938V21H11.059Z" fill="#01A88D"/>
</g>
<rect x="0.5" y="0.5" width="39" height="39" stroke="#01A88D"/>
<defs>
<clipPath id="clip0_23298_3867">
<rect width="40" height="40" fill="white"/>
</clipPath>
</defs>
</svg>
