<svg width="811" height="362" viewBox="0 0 811 362" fill="none" xmlns="http://www.w3.org/2000/svg">
<rect x="66.626" y="98.5005" width="170.878" height="170.878" rx="85.4389" fill="#326CE5"/>
<path fill-rule="evenodd" clip-rule="evenodd" d="M112.485 141.551C111.305 141.551 110.349 142.508 110.349 143.687V224.192C110.349 225.372 111.305 226.328 112.485 226.328H191.644C192.824 226.328 193.78 225.372 193.78 224.192V192.045C193.585 192.105 193.378 192.137 193.163 192.137H174.27V199.262C174.27 201.186 171.898 202.096 170.611 200.666L156.641 185.144C155.922 184.346 155.922 183.134 156.641 182.336L170.611 166.814C171.898 165.384 174.27 166.294 174.27 168.218V175.343H193.163C193.378 175.343 193.585 175.376 193.78 175.435V143.687C193.78 142.508 192.824 141.551 191.644 141.551H112.485Z" fill="white"/>
<path d="M649.079 103.615C653.858 94.8081 666.499 94.8081 671.279 103.615L735.731 222.375C740.298 230.79 734.205 241.029 724.631 241.029H595.726C586.152 241.029 580.059 230.79 584.626 222.375L649.079 103.615Z" fill="#326CE5"/>
<path fill-rule="evenodd" clip-rule="evenodd" d="M647.754 135.802C646.591 135.802 645.649 136.744 645.649 137.907V161.535C645.649 162.697 646.591 163.64 647.754 163.64H656.793V176.025H630.197H627.736V178.486V189.003H618.08C616.918 189.003 615.976 189.946 615.976 191.108V214.736C615.976 215.898 616.918 216.841 618.08 216.841H641.691C642.853 216.841 643.795 215.898 643.795 214.736V191.108C643.795 189.946 642.853 189.003 641.691 189.003H632.658V180.947H659.253H688.013V189.003H678.666C677.503 189.003 676.561 189.946 676.561 191.108V214.736C676.561 215.898 677.503 216.841 678.666 216.841H702.276C703.438 216.841 704.381 215.898 704.381 214.736V191.108C704.381 189.946 703.438 189.003 702.276 189.003H692.934V178.486V176.025H690.473H661.714V163.64H671.364C672.526 163.64 673.469 162.697 673.469 161.535V137.907C673.469 136.744 672.526 135.802 671.364 135.802H647.754Z" fill="white"/>
<path d="M565.377 190.837L232 190.837" stroke="#326CE5" stroke-width="15.8001" stroke-dasharray="10.53 10.53"/>
<path d="M547 165.63L598.727 190.848L547 217.361L564.218 191.268L547 165.63Z" fill="#CCCCCC"/>
<path d="M495.391 156.328C496.924 157.228 497.752 158.713 497.752 160.441C497.752 163.581 495.44 165.528 491.643 165.528C487.87 165.528 485.534 163.581 485.534 160.441C485.534 158.713 486.386 157.228 487.895 156.328C486.799 155.573 486.118 154.381 486.118 152.799C486.118 149.513 488.673 147.833 491.643 147.833C494.636 147.833 497.192 149.513 497.192 152.799C497.192 154.381 496.486 155.573 495.391 156.328ZM491.643 150.973C490.377 150.973 489.452 151.728 489.452 152.993C489.452 154.21 490.377 154.989 491.643 154.989C492.908 154.989 493.833 154.21 493.833 152.993C493.833 151.728 492.908 150.973 491.643 150.973ZM491.643 162.364C493.249 162.364 494.417 161.536 494.417 160.027C494.417 158.518 493.249 157.666 491.643 157.666C490.036 157.666 488.868 158.518 488.868 160.027C488.868 161.536 490.036 162.364 491.643 162.364ZM506.255 165.528C501.898 165.528 499.44 161.926 499.44 156.668C499.44 151.411 501.898 147.833 506.255 147.833C510.587 147.833 513.07 151.411 513.07 156.668C513.07 161.926 510.587 165.528 506.255 165.528ZM506.255 162.266C508.518 162.266 509.711 160.271 509.711 156.668C509.711 153.066 508.518 151.095 506.255 151.095C503.967 151.095 502.774 153.066 502.774 156.668C502.774 160.271 503.967 162.266 506.255 162.266ZM515.793 167.621H515.209C514.917 167.621 514.77 167.451 514.892 167.158L524.311 146.008C524.409 145.789 524.53 145.716 524.749 145.716H525.334C525.626 145.716 525.772 145.886 525.65 146.178L516.231 167.329C516.133 167.548 516.012 167.621 515.793 167.621ZM537.927 148.15C538.317 148.15 538.511 148.369 538.511 148.734V150.803C538.511 151.168 538.317 151.363 537.927 151.363H534.398V164.627C534.398 164.992 534.203 165.187 533.838 165.187H531.648C531.259 165.187 531.064 164.992 531.064 164.627V151.363H527.535C527.17 151.363 526.951 151.168 526.951 150.803V148.734C526.951 148.369 527.17 148.15 527.535 148.15H534.398H537.927ZM547.516 165.528C542.356 165.528 538.632 161.658 538.632 156.668C538.632 151.703 542.356 147.833 547.516 147.833C551.313 147.833 554.574 150.17 555.621 153.602C555.718 153.991 555.499 154.235 555.11 154.235H552.749C552.432 154.235 552.238 154.089 552.092 153.796C551.337 152.141 549.56 151.095 547.516 151.095C544.181 151.095 541.991 153.407 541.991 156.668C541.991 159.954 544.181 162.266 547.516 162.266C549.56 162.266 551.337 161.22 552.092 159.565C552.238 159.273 552.432 159.102 552.749 159.102H555.11C555.499 159.102 555.718 159.346 555.621 159.711C554.598 163.143 551.337 165.528 547.516 165.528ZM564.089 148.15C567.302 148.15 569.833 150.681 569.833 153.821C569.833 156.936 567.302 159.467 564.089 159.467H561.071V164.627C561.071 164.992 560.877 165.187 560.487 165.187H558.297C557.932 165.187 557.737 164.992 557.737 164.627V148.734C557.737 148.369 557.932 148.15 558.297 148.15H561.071H564.089ZM564.089 156.328C565.452 156.328 566.499 155.232 566.499 153.821C566.499 152.409 565.452 151.29 564.089 151.29H561.071V156.328H564.089Z" fill="#000D12"/>
<mask id="path-9-outside-1_27332_21741" maskUnits="userSpaceOnUse" x="482.755" y="143.187" width="90" height="27" fill="black">
<rect fill="white" x="482.755" y="143.187" width="90" height="27"/>
<path d="M495.391 156.328C496.924 157.228 497.752 158.713 497.752 160.441C497.752 163.581 495.44 165.528 491.643 165.528C487.87 165.528 485.534 163.581 485.534 160.441C485.534 158.713 486.386 157.228 487.895 156.328C486.799 155.573 486.118 154.381 486.118 152.799C486.118 149.513 488.673 147.833 491.643 147.833C494.636 147.833 497.192 149.513 497.192 152.799C497.192 154.381 496.486 155.573 495.391 156.328ZM491.643 150.973C490.377 150.973 489.452 151.728 489.452 152.993C489.452 154.21 490.377 154.989 491.643 154.989C492.908 154.989 493.833 154.21 493.833 152.993C493.833 151.728 492.908 150.973 491.643 150.973ZM491.643 162.364C493.249 162.364 494.417 161.536 494.417 160.027C494.417 158.518 493.249 157.666 491.643 157.666C490.036 157.666 488.868 158.518 488.868 160.027C488.868 161.536 490.036 162.364 491.643 162.364ZM506.255 165.528C501.898 165.528 499.44 161.926 499.44 156.668C499.44 151.411 501.898 147.833 506.255 147.833C510.587 147.833 513.07 151.411 513.07 156.668C513.07 161.926 510.587 165.528 506.255 165.528ZM506.255 162.266C508.518 162.266 509.711 160.271 509.711 156.668C509.711 153.066 508.518 151.095 506.255 151.095C503.967 151.095 502.774 153.066 502.774 156.668C502.774 160.271 503.967 162.266 506.255 162.266ZM515.793 167.621H515.209C514.917 167.621 514.77 167.451 514.892 167.158L524.311 146.008C524.409 145.789 524.53 145.716 524.749 145.716H525.334C525.626 145.716 525.772 145.886 525.65 146.178L516.231 167.329C516.133 167.548 516.012 167.621 515.793 167.621ZM537.927 148.15C538.317 148.15 538.511 148.369 538.511 148.734V150.803C538.511 151.168 538.317 151.363 537.927 151.363H534.398V164.627C534.398 164.992 534.203 165.187 533.838 165.187H531.648C531.259 165.187 531.064 164.992 531.064 164.627V151.363H527.535C527.17 151.363 526.951 151.168 526.951 150.803V148.734C526.951 148.369 527.17 148.15 527.535 148.15H534.398H537.927ZM547.516 165.528C542.356 165.528 538.632 161.658 538.632 156.668C538.632 151.703 542.356 147.833 547.516 147.833C551.313 147.833 554.574 150.17 555.621 153.602C555.718 153.991 555.499 154.235 555.11 154.235H552.749C552.432 154.235 552.238 154.089 552.092 153.796C551.337 152.141 549.56 151.095 547.516 151.095C544.181 151.095 541.991 153.407 541.991 156.668C541.991 159.954 544.181 162.266 547.516 162.266C549.56 162.266 551.337 161.22 552.092 159.565C552.238 159.273 552.432 159.102 552.749 159.102H555.11C555.499 159.102 555.718 159.346 555.621 159.711C554.598 163.143 551.337 165.528 547.516 165.528ZM564.089 148.15C567.302 148.15 569.833 150.681 569.833 153.821C569.833 156.936 567.302 159.467 564.089 159.467H561.071V164.627C561.071 164.992 560.877 165.187 560.487 165.187H558.297C557.932 165.187 557.737 164.992 557.737 164.627V148.734C557.737 148.369 557.932 148.15 558.297 148.15H561.071H564.089ZM564.089 156.328C565.452 156.328 566.499 155.232 566.499 153.821C566.499 152.409 565.452 151.29 564.089 151.29H561.071V156.328H564.089Z"/>
</mask>
<path d="M495.391 156.328C496.924 157.228 497.752 158.713 497.752 160.441C497.752 163.581 495.44 165.528 491.643 165.528C487.87 165.528 485.534 163.581 485.534 160.441C485.534 158.713 486.386 157.228 487.895 156.328C486.799 155.573 486.118 154.381 486.118 152.799C486.118 149.513 488.673 147.833 491.643 147.833C494.636 147.833 497.192 149.513 497.192 152.799C497.192 154.381 496.486 155.573 495.391 156.328ZM491.643 150.973C490.377 150.973 489.452 151.728 489.452 152.993C489.452 154.21 490.377 154.989 491.643 154.989C492.908 154.989 493.833 154.21 493.833 152.993C493.833 151.728 492.908 150.973 491.643 150.973ZM491.643 162.364C493.249 162.364 494.417 161.536 494.417 160.027C494.417 158.518 493.249 157.666 491.643 157.666C490.036 157.666 488.868 158.518 488.868 160.027C488.868 161.536 490.036 162.364 491.643 162.364ZM506.255 165.528C501.898 165.528 499.44 161.926 499.44 156.668C499.44 151.411 501.898 147.833 506.255 147.833C510.587 147.833 513.07 151.411 513.07 156.668C513.07 161.926 510.587 165.528 506.255 165.528ZM506.255 162.266C508.518 162.266 509.711 160.271 509.711 156.668C509.711 153.066 508.518 151.095 506.255 151.095C503.967 151.095 502.774 153.066 502.774 156.668C502.774 160.271 503.967 162.266 506.255 162.266ZM515.793 167.621H515.209C514.917 167.621 514.77 167.451 514.892 167.158L524.311 146.008C524.409 145.789 524.53 145.716 524.749 145.716H525.334C525.626 145.716 525.772 145.886 525.65 146.178L516.231 167.329C516.133 167.548 516.012 167.621 515.793 167.621ZM537.927 148.15C538.317 148.15 538.511 148.369 538.511 148.734V150.803C538.511 151.168 538.317 151.363 537.927 151.363H534.398V164.627C534.398 164.992 534.203 165.187 533.838 165.187H531.648C531.259 165.187 531.064 164.992 531.064 164.627V151.363H527.535C527.17 151.363 526.951 151.168 526.951 150.803V148.734C526.951 148.369 527.17 148.15 527.535 148.15H534.398H537.927ZM547.516 165.528C542.356 165.528 538.632 161.658 538.632 156.668C538.632 151.703 542.356 147.833 547.516 147.833C551.313 147.833 554.574 150.17 555.621 153.602C555.718 153.991 555.499 154.235 555.11 154.235H552.749C552.432 154.235 552.238 154.089 552.092 153.796C551.337 152.141 549.56 151.095 547.516 151.095C544.181 151.095 541.991 153.407 541.991 156.668C541.991 159.954 544.181 162.266 547.516 162.266C549.56 162.266 551.337 161.22 552.092 159.565C552.238 159.273 552.432 159.102 552.749 159.102H555.11C555.499 159.102 555.718 159.346 555.621 159.711C554.598 163.143 551.337 165.528 547.516 165.528ZM564.089 148.15C567.302 148.15 569.833 150.681 569.833 153.821C569.833 156.936 567.302 159.467 564.089 159.467H561.071V164.627C561.071 164.992 560.877 165.187 560.487 165.187H558.297C557.932 165.187 557.737 164.992 557.737 164.627V148.734C557.737 148.369 557.932 148.15 558.297 148.15H561.071H564.089ZM564.089 156.328C565.452 156.328 566.499 155.232 566.499 153.821C566.499 152.409 565.452 151.29 564.089 151.29H561.071V156.328H564.089Z" fill="#000D12"/>
<path d="M495.391 156.328L494.256 154.681L491.67 156.462L494.378 158.052L495.391 156.328ZM487.895 156.328L488.92 158.045L491.595 156.448L489.029 154.681L487.895 156.328ZM494.378 158.052C495.294 158.59 495.752 159.416 495.752 160.441H499.752C499.752 158.01 498.554 155.866 496.404 154.603L494.378 158.052ZM495.752 160.441C495.752 161.481 495.39 162.166 494.839 162.627C494.245 163.123 493.22 163.528 491.643 163.528V167.528C493.863 167.528 495.892 166.959 497.403 165.697C498.957 164.399 499.752 162.541 499.752 160.441H495.752ZM491.643 163.528C490.081 163.528 489.053 163.124 488.453 162.625C487.896 162.161 487.534 161.474 487.534 160.441H483.534C483.534 162.547 484.339 164.404 485.894 165.699C487.405 166.958 489.432 167.528 491.643 167.528V163.528ZM487.534 160.441C487.534 159.431 488.003 158.592 488.92 158.045L486.87 154.61C484.768 155.864 483.534 157.995 483.534 160.441H487.534ZM489.029 154.681C488.485 154.306 488.118 153.734 488.118 152.799H484.118C484.118 155.027 485.114 156.841 486.76 157.975L489.029 154.681ZM488.118 152.799C488.118 151.728 488.509 151.063 489.037 150.629C489.614 150.155 490.513 149.833 491.643 149.833V145.833C489.803 145.833 487.94 146.352 486.497 147.539C485.005 148.766 484.118 150.584 484.118 152.799H488.118ZM491.643 149.833C492.788 149.833 493.694 150.156 494.272 150.631C494.801 151.064 495.192 151.728 495.192 152.799H499.192C499.192 150.583 498.305 148.764 496.808 147.537C495.36 146.35 493.491 145.833 491.643 145.833V149.833ZM495.192 152.799C495.192 153.71 494.82 154.292 494.256 154.681L496.526 157.975C498.152 156.854 499.192 155.051 499.192 152.799H495.192ZM491.643 148.973C490.622 148.973 489.568 149.28 488.743 150.015C487.891 150.774 487.452 151.841 487.452 152.993H491.452C491.452 152.923 491.464 152.909 491.455 152.931C491.445 152.954 491.426 152.982 491.403 153.002C491.356 153.044 491.398 152.973 491.643 152.973V148.973ZM487.452 152.993C487.452 154.142 487.905 155.195 488.743 155.941C489.558 156.667 490.606 156.989 491.643 156.989V152.989C491.414 152.989 491.366 152.921 491.403 152.954C491.421 152.97 491.439 152.994 491.45 153.019C491.461 153.044 491.452 153.041 491.452 152.993H487.452ZM491.643 156.989C492.68 156.989 493.727 156.667 494.543 155.941C495.381 155.195 495.833 154.142 495.833 152.993H491.833C491.833 153.041 491.825 153.044 491.836 153.019C491.847 152.994 491.865 152.97 491.882 152.954C491.919 152.921 491.872 152.989 491.643 152.989V156.989ZM495.833 152.993C495.833 151.841 495.395 150.774 494.543 150.015C493.717 149.28 492.664 148.973 491.643 148.973V152.973C491.887 152.973 491.929 153.044 491.882 153.002C491.86 152.982 491.84 152.954 491.83 152.931C491.821 152.909 491.833 152.923 491.833 152.993H495.833ZM491.643 164.364C492.765 164.364 493.943 164.076 494.884 163.321C495.878 162.523 496.417 161.351 496.417 160.027H492.417C492.417 160.143 492.396 160.186 492.396 160.186C492.396 160.187 492.395 160.188 492.395 160.188C492.395 160.188 492.395 160.188 492.395 160.188C492.395 160.188 492.395 160.188 492.395 160.188C492.395 160.188 492.395 160.188 492.395 160.188C492.395 160.188 492.395 160.188 492.395 160.188C492.395 160.188 492.391 160.193 492.381 160.201C492.336 160.237 492.127 160.364 491.643 160.364V164.364ZM496.417 160.027C496.417 158.706 495.881 157.533 494.896 156.73C493.958 155.966 492.778 155.666 491.643 155.666V159.666C492.114 159.666 492.321 159.792 492.369 159.831C492.389 159.847 492.391 159.854 492.393 159.859C492.396 159.865 492.417 159.912 492.417 160.027H496.417ZM491.643 155.666C490.507 155.666 489.327 155.966 488.39 156.73C487.404 157.533 486.868 158.706 486.868 160.027H490.868C490.868 159.912 490.889 159.865 490.892 159.859C490.894 159.854 490.897 159.847 490.916 159.831C490.964 159.792 491.172 159.666 491.643 159.666V155.666ZM486.868 160.027C486.868 161.351 487.407 162.523 488.401 163.321C489.342 164.076 490.52 164.364 491.643 164.364V160.364C491.159 160.364 490.949 160.237 490.905 160.201C490.894 160.193 490.891 160.188 490.891 160.188C490.891 160.188 490.891 160.188 490.891 160.188C490.891 160.188 490.891 160.188 490.891 160.188C490.891 160.188 490.891 160.188 490.891 160.188C490.891 160.188 490.89 160.188 490.89 160.188C490.89 160.188 490.89 160.187 490.89 160.186C490.889 160.186 490.868 160.143 490.868 160.027H486.868ZM506.255 163.528C504.698 163.528 503.594 162.918 502.818 161.876C501.993 160.766 501.44 159.016 501.44 156.668H497.44C497.44 159.578 498.116 162.258 499.609 164.264C501.152 166.337 503.455 167.528 506.255 167.528V163.528ZM501.44 156.668C501.44 154.321 501.992 152.579 502.816 151.476C503.589 150.442 504.693 149.833 506.255 149.833V145.833C503.46 145.833 501.156 147.014 499.611 149.083C498.116 151.084 497.44 153.759 497.44 156.668H501.44ZM506.255 149.833C507.802 149.833 508.908 150.44 509.686 151.479C510.513 152.582 511.07 154.325 511.07 156.668H515.07C515.07 153.755 514.385 151.08 512.888 149.081C511.341 147.016 509.04 145.833 506.255 145.833V149.833ZM511.07 156.668C511.07 159.012 510.513 160.762 509.684 161.874C508.903 162.92 507.797 163.528 506.255 163.528V167.528C509.045 167.528 511.346 166.335 512.89 164.266C514.385 162.261 515.07 159.582 515.07 156.668H511.07ZM506.255 164.266C508.096 164.266 509.6 163.394 510.537 161.862C511.395 160.462 511.711 158.635 511.711 156.668H507.711C507.711 158.304 507.431 159.276 507.126 159.774C506.902 160.14 506.678 160.266 506.255 160.266V164.266ZM511.711 156.668C511.711 154.702 511.395 152.878 510.534 151.482C509.592 149.952 508.086 149.095 506.255 149.095V153.095C506.687 153.095 506.909 153.224 507.129 153.58C507.431 154.07 507.711 155.033 507.711 156.668H511.711ZM506.255 149.095C504.42 149.095 502.906 149.944 501.956 151.478C501.09 152.876 500.774 154.703 500.774 156.668H504.774C504.774 155.032 505.055 154.072 505.357 153.584C505.575 153.231 505.802 153.095 506.255 153.095V149.095ZM500.774 156.668C500.774 158.635 501.09 160.464 501.953 161.866C502.898 163.402 504.41 164.266 506.255 164.266V160.266C505.811 160.266 505.583 160.133 505.36 159.77C505.055 159.274 504.774 158.304 504.774 156.668H500.774ZM514.892 167.158L513.065 166.345L513.055 166.367L513.046 166.389L514.892 167.158ZM524.311 146.008L526.138 146.822L526.139 146.82L524.311 146.008ZM525.65 146.178L527.477 146.992L527.487 146.97L527.496 146.948L525.65 146.178ZM516.231 167.329L514.404 166.515L514.403 166.517L516.231 167.329ZM515.793 165.621H515.209V169.621H515.793V165.621ZM515.209 165.621C515.375 165.621 516.033 165.667 516.51 166.319C517.026 167.026 516.821 167.729 516.738 167.928L513.046 166.389C512.842 166.88 512.649 167.814 513.28 168.679C513.873 169.49 514.75 169.621 515.209 169.621V165.621ZM516.719 167.972L526.138 146.822L522.484 145.194L513.065 166.345L516.719 167.972ZM526.139 146.82C526.102 146.904 525.951 147.212 525.577 147.455C525.2 147.701 524.85 147.716 524.749 147.716V143.716C524.43 143.716 523.91 143.767 523.392 144.105C522.879 144.439 522.618 144.893 522.484 145.196L526.139 146.82ZM524.749 147.716H525.334V143.716H524.749V147.716ZM525.334 147.716C525.167 147.716 524.509 147.67 524.032 147.018C523.516 146.311 523.721 145.608 523.804 145.409L527.496 146.948C527.7 146.457 527.894 145.522 527.262 144.658C526.669 143.847 525.792 143.716 525.334 143.716V147.716ZM523.823 145.365L514.404 166.515L518.058 168.142L527.477 146.992L523.823 145.365ZM514.403 166.517C514.44 166.433 514.591 166.125 514.965 165.882C515.342 165.636 515.692 165.621 515.793 165.621V169.621C516.112 169.621 516.632 169.57 517.15 169.232C517.663 168.897 517.924 168.444 518.058 168.141L514.403 166.517ZM534.398 151.363V149.363H532.398V151.363H534.398ZM531.064 151.363H533.064V149.363H531.064V151.363ZM537.927 150.15C537.752 150.15 537.313 150.093 536.93 149.697C536.556 149.313 536.511 148.891 536.511 148.734H540.511C540.511 148.212 540.369 147.498 539.801 146.913C539.223 146.316 538.492 146.15 537.927 146.15V150.15ZM536.511 148.734V150.803H540.511V148.734H536.511ZM536.511 150.803C536.511 150.644 536.559 150.185 536.974 149.783C537.378 149.392 537.814 149.363 537.927 149.363V153.363C538.431 153.363 539.158 153.236 539.757 152.656C540.367 152.066 540.511 151.327 540.511 150.803H536.511ZM537.927 149.363H534.398V153.363H537.927V149.363ZM532.398 151.363V164.627H536.398V151.363H532.398ZM532.398 164.627C532.398 164.469 532.445 164.026 532.841 163.63C533.237 163.234 533.68 163.187 533.838 163.187V167.187C534.362 167.187 535.085 167.043 535.669 166.458C536.254 165.873 536.398 165.151 536.398 164.627H532.398ZM533.838 163.187H531.648V167.187H533.838V163.187ZM531.648 163.187C531.762 163.187 532.198 163.216 532.601 163.608C533.016 164.009 533.064 164.468 533.064 164.627H529.064C529.064 165.151 529.209 165.89 529.818 166.481C530.417 167.06 531.145 167.187 531.648 167.187V163.187ZM533.064 164.627V151.363H529.064V164.627H533.064ZM531.064 149.363H527.535V153.363H531.064V149.363ZM527.535 149.363C527.691 149.363 528.097 149.407 528.475 149.762C528.873 150.135 528.951 150.58 528.951 150.803H524.951C524.951 151.391 525.138 152.115 525.736 152.677C526.315 153.221 527.013 153.363 527.535 153.363V149.363ZM528.951 150.803V148.734H524.951V150.803H528.951ZM528.951 148.734C528.951 148.952 528.877 149.362 528.52 149.719C528.163 150.076 527.753 150.15 527.535 150.15V146.15C526.951 146.15 526.25 146.333 525.691 146.891C525.133 147.449 524.951 148.15 524.951 148.734H528.951ZM527.535 150.15H534.398V146.15H527.535V150.15ZM534.398 150.15H537.927V146.15H534.398V150.15ZM555.621 153.602L557.561 153.117L557.549 153.067L557.534 153.018L555.621 153.602ZM552.092 153.796L550.272 154.626L550.287 154.659L550.303 154.691L552.092 153.796ZM552.092 159.565L550.303 158.67L550.287 158.702L550.272 158.735L552.092 159.565ZM555.621 159.711L557.537 160.282L557.546 160.254L557.553 160.226L555.621 159.711ZM547.516 163.528C543.479 163.528 540.632 160.571 540.632 156.668H536.632C536.632 162.744 541.233 167.528 547.516 167.528V163.528ZM540.632 156.668C540.632 152.793 543.475 149.833 547.516 149.833V145.833C541.237 145.833 536.632 150.613 536.632 156.668H540.632ZM547.516 149.833C550.493 149.833 552.935 151.651 553.708 154.185L557.534 153.018C556.213 148.689 552.132 145.833 547.516 145.833V149.833ZM553.68 154.087C553.62 153.846 553.586 153.294 554.011 152.784C554.413 152.301 554.914 152.235 555.11 152.235V156.235C555.694 156.235 556.499 156.046 557.084 155.345C557.692 154.616 557.719 153.747 557.561 153.117L553.68 154.087ZM555.11 152.235H552.749V156.235H555.11V152.235ZM552.749 152.235C552.916 152.235 553.202 152.28 553.487 152.476C553.75 152.656 553.859 152.859 553.88 152.902L550.303 154.691C550.47 155.026 550.75 155.449 551.225 155.774C551.724 156.116 552.265 156.235 552.749 156.235V152.235ZM553.911 152.967C552.783 150.491 550.218 149.095 547.516 149.095V153.095C548.902 153.095 549.891 153.792 550.272 154.626L553.911 152.967ZM547.516 149.095C545.37 149.095 543.454 149.849 542.073 151.26C540.698 152.665 539.991 154.583 539.991 156.668H543.991C543.991 155.492 544.379 154.623 544.933 154.057C545.481 153.497 546.327 153.095 547.516 153.095V149.095ZM539.991 156.668C539.991 158.762 540.696 160.686 542.071 162.096C543.452 163.512 545.37 164.266 547.516 164.266V160.266C546.327 160.266 545.482 159.865 544.935 159.303C544.381 158.736 543.991 157.861 543.991 156.668H539.991ZM547.516 164.266C550.218 164.266 552.783 162.87 553.911 160.394L550.272 158.735C549.891 159.57 548.902 160.266 547.516 160.266V164.266ZM553.88 160.459C553.872 160.477 553.781 160.657 553.549 160.829C553.281 161.029 552.981 161.102 552.749 161.102V157.102C552.2 157.102 551.645 157.261 551.164 157.619C550.718 157.949 550.458 158.361 550.303 158.67L553.88 160.459ZM552.749 161.102H555.11V157.102H552.749V161.102ZM555.11 161.102C554.915 161.102 554.429 161.037 554.029 160.571C553.596 160.065 553.609 159.493 553.688 159.195L557.553 160.226C557.73 159.564 557.682 158.687 557.066 157.968C556.484 157.289 555.693 157.102 555.11 157.102V161.102ZM553.704 159.14C552.949 161.675 550.505 163.528 547.516 163.528V167.528C552.169 167.528 556.248 164.61 557.537 160.282L553.704 159.14ZM561.071 159.467V157.467H559.071V159.467H561.071ZM561.071 151.29V149.29H559.071V151.29H561.071ZM561.071 156.328H559.071V158.328H561.071V156.328ZM564.089 150.15C566.214 150.15 567.833 151.802 567.833 153.821H571.833C571.833 149.56 568.39 146.15 564.089 146.15V150.15ZM567.833 153.821C567.833 155.809 566.22 157.467 564.089 157.467V161.467C568.384 161.467 571.833 158.063 571.833 153.821H567.833ZM564.089 157.467H561.071V161.467H564.089V157.467ZM559.071 159.467V164.627H563.071V159.467H559.071ZM559.071 164.627C559.071 164.468 559.119 164.009 559.534 163.608C559.938 163.216 560.373 163.187 560.487 163.187V167.187C560.991 167.187 561.718 167.06 562.317 166.481C562.927 165.89 563.071 165.151 563.071 164.627H559.071ZM560.487 163.187H558.297V167.187H560.487V163.187ZM558.297 163.187C558.455 163.187 558.898 163.234 559.294 163.63C559.69 164.026 559.737 164.469 559.737 164.627H555.737C555.737 165.151 555.881 165.873 556.466 166.458C557.051 167.043 557.773 167.187 558.297 167.187V163.187ZM559.737 164.627V148.734H555.737V164.627H559.737ZM559.737 148.734C559.737 148.891 559.693 149.296 559.338 149.674C558.964 150.072 558.52 150.15 558.297 150.15V146.15C557.708 146.15 556.984 146.337 556.422 146.936C555.879 147.514 555.737 148.212 555.737 148.734H559.737ZM558.297 150.15H561.071V146.15H558.297V150.15ZM561.071 150.15H564.089V146.15H561.071V150.15ZM564.089 158.328C566.634 158.328 568.499 156.258 568.499 153.821H564.499C564.499 154.025 564.427 154.151 564.362 154.219C564.3 154.283 564.216 154.328 564.089 154.328V158.328ZM568.499 153.821C568.499 151.409 566.659 149.29 564.089 149.29V153.29C564.202 153.29 564.285 153.329 564.353 153.401C564.425 153.477 564.499 153.615 564.499 153.821H568.499ZM564.089 149.29H561.071V153.29H564.089V149.29ZM559.071 151.29V156.328H563.071V151.29H559.071ZM561.071 158.328H564.089V154.328H561.071V158.328Z" fill="white" mask="url(#path-9-outside-1_27332_21741)"/>
</svg>
