<svg xmlns="http://www.w3.org/2000/svg" viewBox="0 0 90 66"><path fill="#fff" d="M47,34.1a1,1,0,0,0-1,1V65a1,1,0,0,0,1,1H89a1,1,0,0,0,1-1V35.1a1,1,0,0,0-1-1Zm8.18,23.17a1,1,0,1,1-2,0V42.73a1,1,0,1,1,2,0Zm9.18,0a1,1,0,1,1-2,0V42.73a1,1,0,1,1,2,0Zm9.18,0a1,1,0,1,1-2,0V42.73a1,1,0,1,1,2,0Zm9.18,0a1,1,0,1,1-2,0V42.73a1,1,0,1,1,2,0ZM24,0a1,1,0,0,0-1,1V30.9a1,1,0,0,0,1,1H66a1,1,0,0,0,1-1V1a1,1,0,0,0-1-1Zm8.18,23.27a1,1,0,1,1-2,0V8.73a1,1,0,1,1,2,0Zm9.27,0a1,1,0,1,1-2,0V8.73a1,1,0,1,1,2,0Zm9.18,0a1,1,0,1,1-2,0V8.73a1,1,0,1,1,2,0Zm9.18,0a1,1,0,1,1-2,0V8.73a1,1,0,1,1,2,0ZM1,34.1a1,1,0,0,0-1,1V65a1,1,0,0,0,1,1H43a1,1,0,0,0,1-1V35.1a1,1,0,0,0-1-1ZM9.18,57.27a1.06,1.06,0,0,1-1,1.11,1.06,1.06,0,0,1-1-1.11V42.73a1.06,1.06,0,0,1,1-1.1,1.06,1.06,0,0,1,1,1.1Zm9.18,0a1,1,0,1,1-2,0V42.73a1,1,0,1,1,2,0Zm9.18,0a1,1,0,1,1-2,0V42.73a1,1,0,1,1,2,0Zm9.27,0a1,1,0,1,1-2,0V42.73a1,1,0,1,1,2,0Z"/></svg>