<svg width="40" height="40" viewBox="0 0 40 40" fill="none" xmlns="http://www.w3.org/2000/svg">
<g clip-path="url(#clip0_23299_4177)">
<path d="M40 0H0V40H40V0Z" fill="#E7157B" fill-opacity="0.12"/>
<path fill-rule="evenodd" clip-rule="evenodd" d="M16.707 34H9.305L6.068 28L9.305 22H16.707L19.943 28L16.707 34ZM17.446 21.263C17.358 21.101 17.189 21 17.006 21H9.006C8.822 21 8.653 21.101 8.565 21.263L5.06 27.763C4.98 27.911 4.98 28.089 5.06 28.237L8.565 34.737C8.653 34.899 8.822 35 9.006 35H17.006C17.189 35 17.358 34.899 17.446 34.737L20.952 28.237C21.031 28.089 21.031 27.911 20.952 27.763L17.446 21.263ZM8.676 13.5L10.553 16.75C10.582 16.802 10.621 16.847 10.665 16.884L11.887 19H9.305L6.338 13.5H8.676ZM9.305 7H16.707L19.674 12.5H17.336L15.459 9.25C15.37 9.095 15.205 9 15.026 9H10.985C10.807 9 10.642 9.095 10.553 9.25L8.676 12.5H6.338L9.305 7ZM16.947 18.555L15.552 16.59L17.336 13.5H19.674L16.947 18.555ZM11.31 16L9.56 12.97L11.274 10H14.737L16.47 13L14.737 16H11.31ZM13.042 19L11.887 17H14.617L16.037 19H13.042ZM8.565 19.737C8.653 19.899 8.822 20 9.006 20H17.006C17.189 20 17.358 19.899 17.446 19.737L20.952 13.237C21.031 13.089 21.031 12.911 20.952 12.763L17.446 6.263C17.358 6.101 17.189 6 17.006 6H9.006C8.822 6 8.653 6.101 8.565 6.263L5.06 12.763C4.98 12.911 4.98 13.089 5.06 13.237L8.565 19.737ZM14.737 31H11.274L9.542 28L11.274 25H14.737L16.47 28L14.737 31ZM15.026 24H10.985C10.807 24 10.642 24.095 10.553 24.25L8.532 27.75C8.442 27.905 8.442 28.095 8.532 28.25L10.553 31.75C10.642 31.905 10.807 32 10.985 32H15.026C15.205 32 15.37 31.905 15.459 31.75L17.479 28.25C17.569 28.095 17.569 27.905 17.479 27.75L15.459 24.25C15.37 24.095 15.205 24 15.026 24ZM23.293 14H30.719L33.641 19H31.273L29.422 16.223C29.329 16.083 29.173 16 29.006 16H25.006C24.839 16 24.683 16.083 24.59 16.223L22.738 19H20.371L23.293 14ZM19.066 19.749C19.155 19.904 19.321 20 19.5 20H23.006C23.173 20 23.329 19.917 23.422 19.777L25.273 17H28.738L30.59 19.777C30.683 19.917 30.839 20 31.006 20H34.512C34.69 20 34.856 19.904 34.945 19.749C35.034 19.594 35.034 19.402 34.943 19.248L31.437 13.248C31.348 13.094 31.184 13 31.006 13H23.006C22.828 13 22.664 13.094 22.574 13.248L19.068 19.248C18.978 19.402 18.978 19.594 19.066 19.749ZM30.719 27.01H23.293L20.37 21.99H22.737L24.59 24.777C24.682 24.916 24.839 25 25.006 25H29.006C29.173 25 29.33 24.916 29.422 24.777L31.274 21.99H33.642L30.719 27.01ZM34.512 20.99H31.006C30.839 20.99 30.682 21.074 30.59 21.213L28.737 24H25.274L23.422 21.213C23.33 21.074 23.173 20.99 23.006 20.99H19.5C19.321 20.99 19.155 21.085 19.066 21.241C18.978 21.396 18.978 21.587 19.068 21.741L22.574 27.762C22.663 27.916 22.828 28.01 23.006 28.01H31.006C31.184 28.01 31.349 27.916 31.437 27.762L34.943 21.741C35.034 21.587 35.034 21.396 34.945 21.241C34.856 21.085 34.69 20.99 34.512 20.99Z" fill="#E7157B"/>
</g>
<rect x="0.5" y="0.5" width="39" height="39" stroke="#E7157B"/>
<defs>
<clipPath id="clip0_23299_4177">
<rect width="40" height="40" fill="white"/>
</clipPath>
</defs>
</svg>
