<svg width="40" height="40" viewBox="0 0 40 40" fill="none" xmlns="http://www.w3.org/2000/svg">
<g clip-path="url(#clip0_23296_3431)">
<path d="M40 0H0V40H40V0Z" fill="#C925D1" fill-opacity="0.12"/>
<path fill-rule="evenodd" clip-rule="evenodd" d="M19.2628 23H26.2628V22H19.2628V23ZM19.2628 15H25.2628V14H19.2628V15ZM19.2628 12H28.2628V11H19.2628V12ZM25.8008 33C26.0238 31.365 27.3258 30.106 28.8938 30.106C29.4548 30.106 30.0048 30.269 30.4828 30.576C31.2998 31.099 31.8498 32 31.9888 33H25.8008ZM28.8938 25.412C29.7618 25.412 30.4678 26.118 30.4678 26.985C30.4678 27.853 29.7618 28.559 28.8938 28.559C28.0268 28.559 27.3208 27.853 27.3208 26.985C27.3208 26.118 28.0268 25.412 28.8938 25.412ZM22.7628 26C22.4858 26 22.2628 26.224 22.2628 26.5V28.2L20.7368 26.197C20.6428 26.073 20.4958 26 20.3398 26H18.6258C17.6728 26 16.7658 25.536 16.1988 24.757C15.6268 23.971 15.4758 22.972 15.7848 22.015C16.1678 20.829 17.3768 20 18.7258 20H29.3728C30.6698 20 31.8188 20.751 32.2348 21.869C32.8308 23.472 32.1008 24.867 31.0238 25.543C30.5608 24.861 29.7788 24.412 28.8938 24.412C27.8248 24.412 26.9068 25.069 26.5188 26H22.7628ZM7.05181 14.332C6.81381 12.449 7.37381 10.631 8.62581 9.211C9.86481 7.806 11.6418 7 13.4988 7H25.3208C27.3278 7 29.2388 7.864 30.5638 9.372C31.7988 10.776 32.3508 12.537 32.1198 14.33C31.8638 16.313 30.9128 18.051 29.5718 19.015C29.5058 19.012 29.4408 19 29.3728 19H18.7258C17.6998 19 16.7398 19.38 16.0068 20H13.8098C10.3628 20 7.45781 17.563 7.05181 14.332ZM31.0228 29.734C30.7138 29.536 30.3818 29.385 30.0368 29.279C30.8808 28.857 31.4678 27.992 31.4678 26.985C31.4678 26.806 31.4488 26.631 31.4128 26.461C32.9338 25.579 33.9558 23.631 33.1728 21.521C32.7778 20.46 31.9008 19.654 30.8218 19.263C32.0258 18.097 32.8638 16.375 33.1118 14.458C33.3808 12.375 32.7418 10.334 31.3148 8.711C29.7998 6.988 27.6148 6 25.3208 6H13.4988C11.3538 6 9.30581 6.929 7.87681 8.549C6.45181 10.164 5.78981 12.317 6.05881 14.457C6.52781 18.187 9.85981 21 13.8098 21H15.1608C15.0298 21.224 14.9148 21.457 14.8338 21.708C14.4258 22.972 14.6288 24.298 15.3908 25.346C16.1438 26.382 17.3538 27 18.6258 27H20.0918L22.3648 29.984C22.4608 30.111 22.6088 30.182 22.7628 30.182C22.8158 30.182 22.8698 30.173 22.9228 30.155C23.1258 30.087 23.2628 29.896 23.2628 29.682V27H26.3228C26.3288 28.009 26.9218 28.875 27.7738 29.291C26.0438 29.815 24.7668 31.493 24.7668 33.5C24.7668 33.776 24.9898 34 25.2668 34H32.5228C32.7998 34 33.0228 33.776 33.0228 33.5C33.0228 31.945 32.2758 30.538 31.0228 29.734ZM10.7038 17C10.9248 15.53 12.1008 14.405 13.5168 14.405C14.0258 14.405 14.5258 14.553 14.9618 14.833C15.6938 15.303 16.1908 16.105 16.3278 17H10.7038ZM13.5168 10.278C14.2958 10.278 14.9308 10.912 14.9308 11.692C14.9308 12.472 14.2958 13.106 13.5168 13.106C12.7368 13.106 12.1018 12.472 12.1018 11.692C12.1018 10.912 12.7368 10.278 13.5168 10.278ZM17.3658 17.5C17.3658 16.052 16.6698 14.74 15.5018 13.991C15.3048 13.865 15.0958 13.766 14.8818 13.679C15.5138 13.244 15.9308 12.516 15.9308 11.692C15.9308 10.361 14.8478 9.278 13.5168 9.278C12.1848 9.278 11.1018 10.361 11.1018 11.692C11.1018 12.518 11.5198 13.247 12.1548 13.683C10.7048 14.27 9.66681 15.754 9.66681 17.5C9.66681 17.776 9.89081 18 10.1668 18H16.8658C17.1418 18 17.3658 17.776 17.3658 17.5Z" fill="#C925D1"/>
</g>
<rect x="0.5" y="0.5" width="39" height="39" stroke="#C925D1"/>
<defs>
<clipPath id="clip0_23296_3431">
<rect width="40" height="40" fill="white"/>
</clipPath>
</defs>
</svg>
