<svg width="40" height="40" viewBox="0 0 40 40" xmlns="http://www.w3.org/2000/svg">  <g id="Icon-Architecture/32/Arch_AWS-Site-to-Site-VPN_32" stroke="none" stroke-width="1" fill="none" fill-rule="evenodd">  <g id="Icon-Service/32/AWS-Site-to-Site-VPN_32" transform="translate(5.820000, 6.000000)" fill="#FFFFFF"> <path d="M12.207,19.5 C12.207,20.327 12.88,21 13.707,21 C14.534,21 15.207,20.327 15.207,19.5 C15.207,18.673 14.534,18 13.707,18 C12.88,18 12.207,18.673 12.207,19.5 L12.207,19.5 Z M11.207,19.5 C11.207,18.122 12.328,17 13.707,17 C15.086,17 16.207,18.122 16.207,19.5 C16.207,20.707 15.347,21.717 14.207,21.949 L14.207,24 L13.207,24 L13.207,21.949 C12.067,21.717 11.207,20.707 11.207,19.5 L11.207,19.5 Z M23.561,3.646 L22.853,4.354 L25.5,7 L1.914,7 L4.561,4.354 L3.853,3.646 L0,7.5 L3.853,11.354 L4.561,10.646 L1.914,8 L25.5,8 L22.853,10.646 L23.561,11.354 L27.414,7.5 L23.561,3.646 Z M5.207,27 L22.207,27 L22.207,14 L5.207,14 L5.207,27 Z M19.207,13 L23.207,13 L23.207,28 L4.207,28 L4.207,13 L8.207,13 L8.207,9.083 L9.207,9.083 L9.207,13 L18.207,13 L18.207,9 L19.207,9 L19.207,13 Z M9.207,6 L8.207,6 L8.207,5.5 C8.207,2.467 10.675,0 13.707,0 C16.739,0 19.207,2.467 19.207,5.5 L19.207,6 L18.207,6 L18.207,5.5 C18.207,3.019 16.188,1 13.707,1 C11.226,1 9.207,3.019 9.207,5.5 L9.207,6 Z" id="AWS-Site-to-Site-VPN_32_Squid"></path> </g> </g></svg>