<svg width="40" height="40" viewBox="0 0 40 40" fill="none" xmlns="http://www.w3.org/2000/svg">
<g clip-path="url(#clip0_23298_4086)">
<path d="M40 0H0V40H40V0Z" fill="#E7157B" fill-opacity="0.12"/>
<path fill-rule="evenodd" clip-rule="evenodd" d="M17.496 13.9887C18.323 13.9887 18.996 13.3157 18.996 12.4887C18.996 11.6617 18.323 10.9887 17.496 10.9887C16.669 10.9887 15.996 11.6617 15.996 12.4887C15.996 13.3157 16.669 13.9887 17.496 13.9887ZM17.496 14.9887C16.117 14.9887 14.996 13.8667 14.996 12.4887C14.996 11.1107 16.117 9.98867 17.496 9.98867C18.875 9.98867 19.996 11.1107 19.996 12.4887C19.996 13.8667 18.875 14.9887 17.496 14.9887ZM11.996 19.4887H12.996C12.996 18.6617 13.669 17.9887 14.496 17.9887C15.323 17.9887 15.996 18.6617 15.996 19.4887H16.996C16.996 18.1107 15.875 16.9887 14.496 16.9887C13.117 16.9887 11.996 18.1107 11.996 19.4887ZM22.35 20.3427L23.996 18.6957L25.642 20.3427L26.35 19.6347L24.703 17.9887L26.35 16.3427L25.642 15.6347L23.996 17.2817L22.35 15.6347L21.642 16.3427L23.289 17.9887L21.642 19.6347L22.35 20.3427ZM12.996 21.9887V28.9167C14.535 28.5217 15.996 26.4557 15.996 25.4887V21.9887H12.996ZM15.996 27.8767C15.243 28.8717 14.149 29.7377 12.996 29.9397V30.4887C12.996 32.0317 13.247 32.9887 14.496 32.9887C15.745 32.9887 15.996 32.0317 15.996 30.4887V27.8767ZM10.996 20.9887H17.996V21.9887H16.996V30.4887C16.996 31.4457 16.996 33.9887 14.496 33.9887C11.996 33.9887 11.996 31.4457 11.996 30.4887V21.9887H10.996V20.9887ZM33.5 18.7957C33.5 23.5777 28.734 23.9837 28.686 23.9877L18.996 23.9887V22.9887H28.649C28.77 22.9777 32.5 22.6397 32.5 18.7957C32.5 15.4867 29.54 14.7187 28.633 14.5627C28.362 14.5167 28.18 14.2597 28.225 13.9887C28.226 12.5647 27.624 11.5327 26.573 11.1877C25.646 10.8847 24.623 11.2187 24.028 12.0247C23.919 12.1747 23.739 12.2477 23.552 12.2227C23.369 12.1957 23.216 12.0697 23.154 11.8947C22.761 10.7757 22.188 9.83367 21.455 9.09467C20.555 8.18967 18.088 6.24367 14.604 7.72467C12.592 8.57967 11.015 11.0437 11.015 13.3327L11.061 14.1247C11.075 14.3637 10.919 14.5787 10.686 14.6377C9.497 14.9437 7.5 15.8847 7.5 18.7557C7.5 20.9077 8.665 22.0947 9.642 22.7117C9.973 22.9207 10.213 22.9887 10.628 22.9887L10.626 23.9887C10.024 23.9887 9.599 23.8667 9.108 23.5577C8.134 22.9427 6.5 21.5017 6.5 18.7557C6.5 15.4457 8.73 14.2197 10.04 13.7867L10.016 13.3627C10.015 10.6277 11.82 7.82167 14.214 6.80467C17.019 5.61267 19.991 6.20467 22.164 8.38967C22.834 9.06467 23.383 9.87967 23.803 10.8217C24.658 10.1217 25.811 9.88467 26.886 10.2377C28.258 10.6887 29.112 11.9557 29.216 13.6617C31.358 14.1657 33.5 15.7417 33.5 18.7957Z" fill="#E7157B"/>
</g>
<rect x="0.5" y="0.5" width="39" height="39" stroke="#E7157B"/>
<defs>
<clipPath id="clip0_23298_4086">
<rect width="40" height="40" fill="white"/>
</clipPath>
</defs>
</svg>
