<svg xmlns="http://www.w3.org/2000/svg" xmlns:xlink="http://www.w3.org/1999/xlink" id="Layer_1" x="0" y="0" version="1.1" viewBox="0 0 144 144" xml:space="preserve" style="enable-background:new 0 0 144 144"><style type="text/css">.st0{opacity:.8}.st1{fill:#fff}</style><g class="st0"><path d="M127.5,62.8c0-0.4-0.2-0.5-0.6-0.5h-0.8v0.9v0.1h0.8C127.3,63.3,127.5,63.2,127.5,62.8z" class="st1"/><path d="M126.7,61.1c-1.3,0-2.3,1-2.3,2.3c0,1.3,1,2.3,2.3,2.3c1.2,0,2.3-1,2.3-2.3C129,62.1,128,61.1,126.7,61.1z M127.6,64.8l-0.8-1.2h-0.7v1.3h-0.5v-3.1h1.4c0.4,0,1,0.1,1,0.9c0,0.3-0.1,0.8-0.7,0.9l0.9,1.2H127.6z" class="st1"/><path d="M72,0C32.2,0,0,32.2,0,72s32.2,72,72,72s72-32.2,72-72S111.8,0,72,0z M26.7,76.2c1.1,1.1,2.4,1.6,4.1,1.6 c1,0,1.9-0.2,2.8-0.6c0.8-0.4,1.6-1,2.3-1.9l0.2-0.3l3.4,4.8l-0.1,0.1c-2.2,2.4-4.9,3.2-5.9,3.5c-0.9,0.3-2.1,0.4-3.4,0.4 c-3.3,0-6.1-1.1-8.3-3.3s-3.3-5.1-3.3-8.4c0-3.3,1.1-6.2,3.3-8.4c2.2-2.3,5-3.4,8.3-3.4c1.3,0,2.4,0.2,3.4,0.4 c2.1,0.4,4,1.5,5.8,3.1l0.2,0.1l-3.4,5.2l-0.2-0.3c-0.6-0.9-1.3-1.5-2.3-1.9c-0.9-0.4-1.8-0.6-2.8-0.6c-1.7,0-3.1,0.5-4.1,1.6 c-1.1,1.1-1.6,2.5-1.6,4.3C25.1,73.8,25.6,75.2,26.7,76.2z M48.6,83.3h-6.2V60.7h6.2V83.3z M45.5,59c-2.2,0-3.9-1.7-3.9-3.9 c0-2.2,1.8-3.9,3.9-3.9c2.2,0,3.9,1.7,3.9,3.9C49.4,57.3,47.6,59,45.5,59z M69.3,66.3h-5.9v17h-6.2v-17h-6v-5.6h18.1V66.3z M92.7,60.7h6.2v22.6h-6.2V60.7z M83,83.4l-4.7-8v8H72V60.8h7c3.6,0,6.2,0.5,7.7,1.7c1.5,1.1,2.3,3,2.3,5.5c0,1.7-0.4,3.2-1.3,4.3 c-0.8,1-2,1.7-3.5,2.1l6.2,9H83z M95.8,92.7c-2.2,0-3.9-1.8-3.9-3.9c0-2.2,1.8-3.9,3.9-3.9c2.2,0,3.9,1.8,3.9,3.9 C99.7,91,97.9,92.7,95.8,92.7z M116.7,83.3l-4.7-7.1l-4.6,7.1h-7.2l8-11.9l-7.3-10.7h7.2l3.9,5.9l3.9-5.9h7.2l-7.2,10.7l8,11.9 H116.7z M126.7,66.2c-1.6,0-2.8-1.3-2.8-2.8c0-1.6,1.3-2.8,2.8-2.8s2.7,1.3,2.8,2.8C129.5,65,128.2,66.2,126.7,66.2z" class="st1"/><path d="M81.7,66.5c-0.5-0.5-1.4-0.7-2.6-0.7h-0.9v5.4H79c1.2,0,2.1-0.2,2.7-0.6c0.6-0.4,0.8-1,0.7-1.9 C82.4,67.7,82.2,66.9,81.7,66.5z" class="st1"/></g></svg>