<svg width="208" height="220" viewBox="0 0 208 220" fill="none" xmlns="http://www.w3.org/2000/svg">
<mask id="mask0_18394_5051" style="mask-type:luminance" maskUnits="userSpaceOnUse" x="0" y="5" width="208" height="210">
<path d="M208 5.78906H0V214.21H208V5.78906Z" fill="white"/>
</mask>
<g mask="url(#mask0_18394_5051)">
<path d="M168.903 113.768C170.74 122.138 178.092 128.5 187.113 128.5C197.304 128.5 205.658 120.13 205.658 109.918C205.658 99.7064 197.304 91.3359 187.113 91.3359C178.092 91.3359 170.74 97.6974 168.903 106.068H151.945C152.046 107.373 152.113 108.679 152.113 110.002C152.113 111.324 152.046 112.53 151.945 113.768H168.903Z" fill="#ffffff"/>
<path d="M134.875 72.8688C136.863 74.5429 138.717 76.3844 140.404 78.3766L178.597 40.2748C181.603 42.2837 185.112 43.2881 188.787 43.2881C193.8 43.2881 198.478 41.2792 201.986 37.7637C205.494 34.2481 207.499 29.5608 207.499 24.5386C207.499 19.5164 205.494 14.829 201.986 11.3135C198.478 7.79794 193.8 5.78906 188.787 5.78906C183.776 5.78906 179.098 7.79794 175.589 11.3135C172.08 14.829 170.076 19.5164 170.076 24.5386C170.076 28.2215 171.079 31.737 173.083 34.7503L134.875 72.8688ZM180.935 17.1727C183.108 14.9964 185.781 13.9919 188.787 13.9919C191.795 13.9919 194.468 15.1638 196.639 17.1727C200.983 21.5253 200.983 28.389 196.639 32.7415C194.468 34.9178 191.795 35.9222 188.787 35.9222C185.781 35.9222 183.108 34.7503 180.935 32.7415C176.592 28.5564 176.592 21.5253 180.935 17.1727Z" fill="#677E88"/>
<path d="M99.577 44.6263V61.6348C100.93 61.5176 102.283 61.4506 103.67 61.4506C104.873 61.4506 106.076 61.5176 107.262 61.6013V44.6263C115.616 42.7849 121.965 35.4189 121.965 26.379C121.965 16.1672 113.611 7.79688 103.42 7.79688C93.2284 7.79688 84.875 16.1672 84.875 26.379C84.875 35.4189 91.2235 42.7849 99.577 44.6263Z" fill="#ffffff"/>
<path d="M18.7117 43.6207C22.3872 43.6207 25.8955 42.6163 28.9028 40.6074L66.6937 78.6421C68.2975 76.7505 70.0517 74.9759 71.9229 73.3354L33.9149 35.0829C35.9196 32.0696 36.9221 28.5541 36.9221 24.8712C36.9221 19.849 34.9173 15.1616 31.4088 11.6461C28.4016 8.13053 23.7237 6.28906 18.7117 6.28906C13.6996 6.28906 9.02169 8.13053 5.51325 11.6461C2.00482 15.1616 0 19.849 0 24.8712C0 29.8934 2.00482 34.5808 5.51325 38.0962C9.02169 41.6118 13.6996 43.6207 18.7117 43.6207ZM11.0265 16.8357C15.3703 12.4831 22.2201 12.4831 26.5639 16.8357C28.7358 19.0119 29.7381 21.6905 29.7381 24.7038C29.7381 27.7171 28.5687 30.563 26.5639 32.5719C22.2201 36.9244 15.2032 36.9244 11.0265 32.5719C8.85462 30.3955 7.85221 27.7171 7.85221 24.7038C7.85221 21.6905 9.02169 19.0119 11.0265 16.8357Z" fill="#677E88"/>
<path d="M38.2551 106.568C36.4173 98.1974 29.0662 91.8359 20.0446 91.8359C9.85341 91.8359 1.5 100.206 1.5 110.418C1.5 120.63 9.85341 129 20.0446 129C29.0662 129 36.4173 122.639 38.2551 114.268H55.4129C55.2959 112.862 55.2125 111.439 55.2125 110C55.2125 108.844 55.2625 107.706 55.3461 106.568H38.2551Z" fill="#ffffff"/>
<path d="M202.485 182.237C198.141 178.722 193.463 176.713 188.45 176.713C184.776 176.713 181.266 177.718 178.26 179.727L140.402 141.625C138.781 143.5 137.027 145.257 135.156 146.881C135.206 146.831 135.273 146.797 135.323 146.748L173.582 185.251C171.577 188.264 170.574 191.779 170.574 195.462C170.574 200.484 172.579 205.171 176.088 208.688C179.597 212.203 184.274 214.212 189.286 214.212C194.299 214.212 198.976 212.203 202.485 208.688C205.993 205.171 207.998 200.484 207.998 195.462C207.998 190.441 205.993 185.752 202.485 182.237ZM196.304 203.164C191.96 207.516 185.11 207.516 180.766 203.164C178.594 200.987 177.592 198.309 177.592 195.295C177.592 192.282 178.761 189.604 180.766 187.427C185.11 183.074 192.126 183.074 196.304 187.427C198.475 189.604 199.478 192.282 199.478 195.295C199.478 198.309 198.307 201.155 196.304 203.164Z" fill="#677E88"/>
<path d="M107.926 175.536V158.344C106.523 158.461 105.103 158.544 103.666 158.544C102.513 158.544 101.377 158.494 100.241 158.411V175.536C91.8877 177.377 85.5391 184.744 85.5391 193.783C85.5391 203.995 93.8926 212.365 104.084 212.365C114.275 212.365 122.628 203.995 122.628 193.783C122.628 184.744 116.28 177.377 107.926 175.536Z" fill="#ffffff"/>
<path d="M72.3739 147.044C70.4861 145.437 68.7152 143.679 67.0779 141.805L28.7358 180.057C25.7286 178.048 22.2201 177.043 18.5446 177.043C13.5325 177.043 8.85462 179.052 5.34619 182.568C1.83775 185.413 0 190.102 0 195.123C0 200.145 2.00482 204.832 5.51325 208.349C9.02169 211.864 13.6996 213.873 18.7117 213.873C23.7237 213.873 28.4016 211.864 31.9101 208.349C35.4185 204.832 37.4232 200.145 37.4232 195.123C37.4232 191.44 36.4209 187.925 34.416 184.912L72.3739 147.044ZM26.2297 202.991C24.0579 205.168 21.3847 206.172 18.3775 206.172C15.3703 206.172 12.6972 205 10.5253 202.991C6.18153 198.639 6.18153 191.775 10.5253 187.422C12.6972 185.247 15.3703 184.242 18.3775 184.242C21.3847 184.242 24.0579 185.413 26.2297 187.422C30.5735 191.608 30.5735 198.639 26.2297 202.991Z" fill="#677E88"/>
<path d="M105.414 84.7734V107.574L125.128 96.1404L105.414 84.7734Z" fill="#ffffff"/>
<path d="M105.414 112.32V135.239L125.312 123.838L105.414 112.32Z" fill="#ffffff"/>
<path d="M102.565 107.402V84.9531L83.1016 96.1526L102.565 107.402Z" fill="#ffffff"/>
<path d="M63.5078 135.153C67.3337 141.314 72.4962 146.52 78.6108 150.388V126.398L63.5078 135.153Z" fill="#ffffff"/>
<path d="M102.568 135.125V112.492L83.0547 123.825L102.568 135.125Z" fill="#ffffff"/>
<path d="M81.4609 148.955L101.225 137.639L81.4609 126.188V148.955Z" fill="#ffffff"/>
<path d="M126.662 149.07V126.336L106.914 137.653L126.662 149.07Z" fill="#ffffff"/>
<path d="M145.977 132.512C149.352 126.2 151.257 119.203 151.557 112.055L131.008 123.841L145.977 132.512Z" fill="#ffffff"/>
<path d="M129.5 121.432L149.332 110.066L129.5 98.6484V121.432Z" fill="#ffffff"/>
<path d="M126.663 93.7249V71.125L107.016 82.4082L126.663 93.7249Z" fill="#ffffff"/>
<path d="M126.65 121.332V98.5312L106.953 109.948L126.65 121.332Z" fill="#ffffff"/>
<path d="M81.4609 98.4844V121.469L101.292 109.952L81.4609 98.4844Z" fill="#ffffff"/>
<path d="M102.564 62.2891C95.2634 62.49 88.113 64.3817 81.6641 67.8303L102.564 79.85V62.3059V62.2891Z" fill="#ffffff"/>
<path d="M81.4609 70.9766V93.8276L101.309 82.4104L81.4609 70.9766Z" fill="#ffffff"/>
<path d="M78.6108 69.5859C72.4962 73.453 67.3337 78.6593 63.5078 84.8199L78.6108 93.5585V69.5859Z" fill="#ffffff"/>
<path d="M126.531 67.9317C120.032 64.4162 112.799 62.491 105.414 62.2734V80.052L126.531 67.9317Z" fill="#ffffff"/>
<path d="M56.3906 111.672C56.6413 119.038 58.5792 126.237 62.0876 132.715L77.3911 123.842L56.3906 111.689V111.672Z" fill="#ffffff"/>
<path d="M62.0876 87.2812C58.596 93.7263 56.658 100.891 56.3906 108.224L77.4079 96.1371L62.0876 87.2812Z" fill="#ffffff"/>
<path d="M81.6328 152.136C88.0984 155.584 95.2656 157.492 102.583 157.693V140.133L81.6328 152.136Z" fill="#ffffff"/>
<path d="M144.503 84.9048C140.711 78.761 135.582 73.5714 129.5 69.6875V93.5932L144.503 84.9048Z" fill="#ffffff"/>
<path d="M129.5 150.312C135.615 146.413 140.761 141.172 144.57 134.995L129.5 126.273V150.312Z" fill="#ffffff"/>
<path d="M151.622 108.093C151.354 100.845 149.416 93.7464 145.975 87.3516L130.805 96.1237L151.622 108.093Z" fill="#ffffff"/>
<path d="M105.414 157.709C112.715 157.507 119.866 155.617 126.314 152.167L105.414 140.031V157.709Z" fill="#ffffff"/>
<path d="M78.6151 121.267V98.7344L59.1016 109.951L78.6151 121.267Z" fill="#ffffff"/>
</g>
</svg>
