<svg xmlns="http://www.w3.org/2000/svg" xmlns:xlink="http://www.w3.org/1999/xlink" id="Layer_1" x="0" y="0" version="1.1" viewBox="0 0 130.3 126.1" xml:space="preserve" style="enable-background:new 0 0 130.3 126.1"><style type="text/css">.st0{fill-rule:evenodd;clip-rule:evenodd}.st0,.st1{fill:#fff}</style><g><path d="M62.8,76.5c-7.5,0-13.6-6-13.6-13.6c0-7.5,6-13.6,13.6-13.6c7.5,0,13.6,6,13.6,13.6 C76.4,70.4,70.4,76.5,62.8,76.5" class="st0"/><path d="M89.3,69.2c-3.5,0-6.3-2.8-6.3-6.3c0-3.5,2.8-6.3,6.3-6.3c3.5,0,6.3,2.8,6.3,6.3 C95.6,66.4,92.8,69.2,89.3,69.2" class="st0"/><path d="M112.2,75.1L112.2,75.1c-0.8,3.4-4.3,5.4-7.6,4.5c-3.4-0.8-5.4-4.3-4.5-7.6c0.8-3.4,4.3-5.4,7.6-4.5 c3.2,0.8,5.2,3.9,4.7,7.1C112.3,74.7,112.3,74.9,112.2,75.1" class="st0"/><path d="M107.8,58.9c-3.4,0.8-6.8-1.3-7.5-4.7c-0.8-3.4,1.3-6.8,4.7-7.5c3.4-0.8,6.8,1.3,7.5,4.7 c0.2,0.8,0.2,1.7,0.1,2.5C112.2,56.3,110.4,58.4,107.8,58.9" class="st0"/><path d="M130.1,74.4c-0.6,3.4-3.9,5.7-7.3,5.1c-3.4-0.6-5.7-3.9-5.1-7.3c0.6-3.4,3.8-5.7,7.3-5.1 c3.2,0.6,5.5,3.5,5.2,6.7C130.2,74,130.1,74.2,130.1,74.4" class="st0"/><path d="M125,58.7c-3.4,0.6-6.6-1.7-7.2-5.2c-0.6-3.4,1.7-6.6,5.2-7.2c3.4-0.6,6.6,1.7,7.2,5.2 c0.1,0.6,0.1,1.1,0.1,1.6C130,55.8,127.9,58.2,125,58.7" class="st0"/><path d="M120.6,96.1L120.6,96.1c-1.7,3-5.5,4.1-8.6,2.4c-3-1.7-4.1-5.5-2.4-8.6c1.7-3,5.5-4.1,8.6-2.4 c2.2,1.2,3.4,3.6,3.1,6C121.4,94.4,121.1,95.3,120.6,96.1" class="st0"/><path d="M118.4,38.5c-3,1.7-6.8,0.6-8.6-2.4c-1.7-3-0.6-6.8,2.4-8.6c3-1.7,6.8-0.6,8.6,2.4c0.7,1.2,0.9,2.4,0.8,3.6 C121.4,35.6,120.2,37.4,118.4,38.5" class="st0"/><path d="M63.1,126.1c-16.9,0-32.7-6.5-44.6-18.4C6.5,95.7,0,79.9,0,63.1c0-16.9,6.5-32.7,18.4-44.6 C30.4,6.5,46.2,0,63.1,0c14,0,27.2,4.5,38.3,13L93.6,23c-8.8-6.8-19.4-10.3-30.6-10.3c-13.4,0-26.1,5.2-35.7,14.7 c-9.5,9.5-14.7,22.2-14.7,35.6c0,13.5,5.2,26.1,14.7,35.7c9.5,9.5,22.2,14.7,35.7,14.7c11.2,0,21.8-3.6,30.6-10.3l7.7,10.1 C90.3,121.6,77,126.1,63.1,126.1" class="st1"/></g></svg>