<svg id="Capa_1" data-name="Capa 1" xmlns="http://www.w3.org/2000/svg" viewBox="0 0 486.86 431.24"><defs><style>.cls-1{fill:#00b39f;}.cls-2{fill:#00d3a9;}</style></defs><path class="cls-1" d="M314.24,26.48a36.14,36.14,0,0,0-16.56-21.7A35.56,35.56,0,0,0,249,17.92l-5.43,9.56-5.42-9.56A36,36,0,0,0,189.32,4.78h0a35.82,35.82,0,0,0-13,48.83l26.13,45.26L105.94,265.63H35.69a35.69,35.69,0,0,0,0,71.38H306.82l-41.26-71.38H188.32l122.35-212A34.7,34.7,0,0,0,314.24,26.48Z"/><path class="cls-2" d="M451.16,265.63H380.92L301.11,127.42l-41.26,71.39L383.77,413.4A34.9,34.9,0,0,0,405.48,430a34.49,34.49,0,0,0,9.28,1.28,35,35,0,0,0,17.84-4.85,35.69,35.69,0,0,0,13-48.69L422.18,337h29a35.69,35.69,0,1,0,0-71.38Z"/><path class="cls-1" d="M48.26,365.57l-7,12.13A35.57,35.57,0,0,0,54.4,426.39a34.81,34.81,0,0,0,17.84,4.71,35.82,35.82,0,0,0,31-17.84l27.41-47.69Z"/></svg>