<svg width="140" height="90" viewBox="0 0 140 90" fill="none" xmlns="http://www.w3.org/2000/svg">
<g clip-path="url(#clip0)">
<path d="M45.5283 75.6308C44.9282 75.1194 44.132 74.9531 43.5084 74.483C43.3699 73.9302 42.8425 73.9392 42.4522 73.7976C41.3694 73.4048 40.3728 73.7131 39.8208 74.5532C39.3371 75.2892 39.5254 76.2821 40.2886 77.1326C40.7588 77.6566 41.3701 78.0114 41.8725 78.4942C42.5081 79.1048 42.6242 79.611 42.3036 80.3051C41.9832 80.9989 41.5164 81.2417 40.6486 81.1543C39.1266 81.0011 38.1318 80.0489 37.2802 78.8997C34.4777 75.1176 37.7508 70.6437 40.8005 70.2257C42.5782 69.9821 44.109 70.5819 45.6004 71.4096C47.2205 72.3087 48.6745 73.4808 50.3387 74.3076C52.6707 75.4662 55.0876 75.9919 57.6832 75.3513C60.1537 74.7415 61.3271 73.2727 61.347 70.7419C61.3637 68.6089 60.8625 66.551 60.4682 64.4793C60.1281 62.6926 60.6009 61.1878 61.8849 59.9262C63.4223 58.4157 65.1888 57.4194 67.4406 57.5269C67.3864 57.483 67.3213 57.4548 67.2523 57.4453C63.3982 56.9416 59.2734 60.7235 59.5186 64.5714C59.5555 65.1518 59.3685 65.4224 58.8895 65.7221C56.5249 67.2017 53.8726 67.7773 51.191 68.2766C47.6467 68.9365 44.2913 68.4746 41.2272 66.4928C39.5793 65.427 38.4703 63.9744 38.3544 61.9322C38.1646 58.5863 38.8851 55.455 40.5988 52.5607C40.9994 51.8841 41.3744 51.1915 41.7371 50.4937C41.8323 50.3105 42.0611 50.0842 41.7547 49.8699C41.6547 49.5279 42.1151 49.3775 42.0374 49.0432C42.1384 49.0555 42.2348 49.0929 42.3177 49.152C42.4006 49.2111 42.4674 49.2899 42.512 49.3814C42.9627 50.1854 43.6456 50.7988 44.2289 51.4937C43.3206 53.1294 42.4847 54.7938 42.1462 56.6597C41.8685 58.1903 41.9662 59.6618 42.8266 61.0123C44.1792 63.1353 46.3065 63.9271 48.6364 64.1526C52.6411 64.5403 56.1509 63.3333 59.1314 60.5825C61.5713 58.3308 62.1067 55.4197 60.5679 52.5166C59.8774 51.2139 58.9771 50.065 58.0744 48.9144C56.645 47.0925 55.1331 45.3361 54.0735 43.2459C51.8845 38.9277 52.0278 34.6023 53.9292 30.2482C53.9586 30.2815 54.0056 30.3105 54.0148 30.3486C54.4356 32.0988 55.5058 32.735 57.2015 32.1015C59.7168 31.1618 61.3673 29.3203 62.1115 26.7731C62.5374 25.3153 62.2323 23.8947 60.6714 23.3297C60.561 23.2897 60.4887 23.1446 60.3987 23.0484C61.6434 22.2046 63.0609 21.7213 64.4829 21.36C67.712 20.5311 71.0886 20.4575 74.3507 21.1449C78.2666 21.9396 81.8775 23.8266 84.766 26.5875C86.5412 28.2738 87.9893 30.1647 88.6183 32.6178C89.4827 35.9888 89.2188 39.2128 87.7124 42.3541C86.3186 45.2603 84.1806 47.5117 81.6598 49.4527C79.6521 50.9985 77.6246 52.5278 76.2907 54.7618C75.7367 55.6898 75.2402 56.6364 74.9097 57.8217C75.4408 57.46 75.5038 56.9408 75.8259 56.6166C76.3007 56.7074 76.5151 56.2522 76.8859 56.1088C79.0073 55.2887 81.1404 55.36 83.2909 55.9534C82.6392 56.5919 81.9638 57.2085 81.343 57.8758C80.8333 58.4236 80.1124 58.7675 79.7848 59.4887L79.7827 59.4904C79.7319 59.4137 79.6756 59.4093 79.6138 59.4774L79.1 59.9344C78.4211 60.4203 76.8887 60.6416 76.3172 60.2394C76.5896 60.7109 76.4263 60.9465 76.1091 61.1968C75.5297 61.6538 75.1881 62.2786 74.9974 63C74.605 64.4842 75.5751 65.4838 76.7717 66.0181C77.8214 66.4869 78.4885 66.0754 79.1376 64.6747C79.3249 64.2707 79.4106 64.5758 79.5329 64.7032C79.4877 64.8715 79.5783 65.0071 79.6371 65.1522C80.0793 66.244 80.319 67.3595 80.187 68.5545C80.1102 69.2492 79.9016 69.9059 79.7658 70.5824C79.6984 70.5857 79.6308 70.5842 79.5637 70.578C75.1581 69.8693 72.242 66.5001 72.1749 62.0539C72.1711 61.7995 72.2924 61.4928 71.9757 61.267C71.9199 61.9102 71.8682 62.5063 71.8165 63.1023L71.8261 63.0886C71.5838 63.2077 71.4577 63.4231 71.3344 63.6508C70.7126 64.7986 70.4246 66.0416 70.2681 67.3236C70.2137 67.934 69.9736 68.36 69.3059 68.5063C68.8779 68.6001 68.7038 69.0385 68.5257 69.392C68.0089 70.4171 68.3795 71.5772 69.5168 71.9497C70.1872 72.1693 70.6784 71.745 71.2555 71.6409C71.3726 71.8052 71.4897 71.9695 71.6068 72.1339C72.824 73.8519 74.4253 74.9927 76.5411 75.2674C78.1184 75.4722 79.6208 75.1072 81.04 74.4157C82.2039 73.8748 83.2017 73.0322 83.9299 71.9753C85.1343 70.1908 85.1878 68.3288 84.0921 66.5233C83.0378 64.7857 81.5647 63.4998 79.4793 63.0946C79.1475 63.0306 78.7818 62.7798 78.5497 63.2636C78.6266 63.4003 78.6952 63.5414 78.7553 63.6862C79.1727 64.8755 78.3995 66.0016 77.2756 65.8479C75.7315 65.6368 74.934 64.0589 75.6523 62.6786C76.3203 61.395 77.4527 60.9924 78.7908 60.9735C81.1492 60.9401 83.1427 61.9455 85.0149 63.2374C88.9707 65.9671 89.5599 70.8554 87.7026 74.3728C86.6129 76.4365 84.7556 77.5911 82.6587 78.4402C82.4883 78.519 82.3022 78.5584 82.1144 78.5554C81.9266 78.5525 81.7418 78.5072 81.5739 78.423C80.077 77.75 78.6048 77.0194 77.0556 76.4654C76.7216 76.3335 76.3576 76.2968 76.004 76.3594C74.6914 76.6032 73.4633 77.1153 72.2056 77.5305C71.8003 77.6644 71.5145 77.6077 71.1571 77.3605C69.2093 76.0136 67.9648 74.1066 66.8731 72.0768C66.3257 71.059 65.9677 69.9756 65.9477 68.8028C66.8786 68.7734 67.6443 68.2906 68.2869 67.7246C69.9974 66.2182 69.5107 63.9513 67.9136 62.9796C67.4847 62.7186 66.9826 62.8657 66.613 62.5465C66.8103 61.9736 67.2392 61.5387 67.5554 61.0095C66.7874 61.2071 66.4602 61.4061 66.2473 61.7937L66.2582 61.783C66.1642 61.6188 66.0632 61.7437 65.9921 61.7936C64.8243 62.6148 64.0215 63.6775 63.7728 65.1182C63.5645 66.3247 63.8025 67.4845 64.0848 68.646C64.6081 70.7992 65.2316 72.9278 65.3393 75.1682C65.443 77.3231 64.488 78.9102 62.7713 80.0284C60.0049 81.8302 57.054 81.7398 54.0582 80.6334C54.4057 80.5337 54.4482 80.2721 54.4736 79.954C54.5932 78.4566 53.0341 76.296 51.1107 75.9509C49.695 75.697 48.4268 76.2308 48.4998 77.819C47.8386 77.3379 47.1829 76.8488 46.5122 76.3813C46.3423 76.263 46.2185 75.999 45.9339 76.1204L45.9374 76.123C46.0383 75.9282 45.9206 75.9491 45.7946 75.9782L45.804 75.988C45.8676 75.8286 45.7837 75.8152 45.6593 75.842L45.6714 75.8534C45.7106 75.7234 45.6071 75.685 45.5283 75.6308ZM62.9699 45.9195C62.883 45.9819 62.796 46.0444 62.7091 46.1069C61.572 47.2237 61.396 48.5861 61.7993 50.0373C62.1695 51.3692 63.6844 52.1209 65.4608 51.868C66.9066 51.6621 67.9775 50.8839 68.4665 49.4773C68.9176 48.1798 68.6897 46.9799 67.677 45.9998C66.6325 44.989 65.4177 44.7653 64.0645 45.297C63.6542 45.4117 63.2783 45.6255 62.9699 45.9195ZM71.6464 46.3625C71.6627 46.5202 71.6185 46.5946 71.4333 46.5899C70.9957 46.5787 70.6336 46.792 70.2839 47.0263C68.9021 47.74 68.3866 50.2616 69.332 51.6824C70.1508 52.9131 72.054 53.3629 73.6507 52.7031C75.1767 52.0726 76.115 50.5531 75.9313 49.0097C75.7666 47.6248 74.5863 46.3934 73.1597 46.1506C72.6418 46.0624 72.1127 46.0222 71.6464 46.3625V46.3625ZM65.3506 26.8896C67.1628 26.8879 68.3676 26.1438 69.3345 24.9798C69.792 24.4291 69.9328 23.7788 69.563 23.0946C69.2049 22.432 68.6164 22.1655 67.9009 22.1329C66.2964 22.06 65.2022 22.8968 64.296 24.1194C63.8464 24.726 63.6209 25.3542 63.908 26.0619C64.0082 26.3506 64.2094 26.5933 64.4745 26.7454C64.7396 26.8976 65.0507 26.9488 65.3506 26.8896V26.8896Z" fill="#A7B9CC"/>
<path d="M53.9287 30.2483C52.0273 34.6024 51.884 38.9277 54.073 43.2459C55.1326 45.3362 56.6445 47.0926 58.0739 48.9145C58.9766 50.0651 59.8769 51.214 60.5674 52.5166C62.1062 55.4198 61.5707 58.3309 59.1309 60.5826C56.1504 63.3334 52.6406 64.5404 48.6359 64.1527C46.306 63.9272 44.1787 63.1354 42.8261 61.0124C41.9657 59.6618 41.868 58.1903 42.1457 56.6598C42.4841 54.7939 43.3201 53.1294 44.2284 51.4938C44.8113 50.7243 45.325 49.9049 45.7636 49.045C46.5797 47.5149 46.3861 46.0119 45.6035 44.5274C45.4216 44.1823 45.2272 44.1693 44.9035 44.3271C44.3178 44.6125 43.7006 44.8333 43.1166 45.1218C42.3173 45.5166 41.6314 45.3579 40.9108 44.8787C39.9233 44.222 38.9298 43.5624 37.8287 43.0963C37.0101 42.6042 36.4886 41.9477 36.4832 40.9296C36.4786 40.0769 36.4101 39.2228 36.3298 38.3731C36.299 38.0468 36.499 37.5208 36.1131 37.439C35.7579 37.3636 35.4961 37.8286 35.3028 38.1548C35.1443 38.4261 35.0185 38.7152 34.9282 39.0161C34.6537 39.9185 34.6846 40.8396 34.8371 41.7569C34.9982 42.7251 35.4684 43.4725 36.4079 43.8768C37.1327 44.18 37.8812 44.423 38.6459 44.6031C38.9596 44.7164 39.2663 44.848 39.5646 44.9973C40.8937 45.7549 42.1573 46.5701 42.0186 48.3925C41.2373 46.6884 39.7693 45.8818 38.0722 45.3767C37.3373 45.1766 36.6212 44.9128 35.9321 44.5884C34.7059 43.9764 34.1343 42.9398 34.042 41.624C33.9451 40.2437 33.9353 38.8662 34.9318 37.7305C35.2402 37.3789 35.5418 37.0059 36.0669 36.9787C36.1066 36.983 36.1467 36.9772 36.1837 36.9621C36.2206 36.9469 36.2532 36.9227 36.2785 36.8918C36.3038 36.8609 36.3209 36.8241 36.3284 36.7849C36.3359 36.7456 36.3335 36.7051 36.3214 36.6671C36.2471 36.1655 36.5833 36.0368 36.9612 35.8796C39.1033 34.9884 41.3459 34.4053 43.5496 33.7036C44.2667 33.4843 45.0362 33.5092 45.7376 33.7744C47.0714 34.2453 48.4121 34.7009 49.7057 35.2814C50.2708 35.535 50.539 35.82 50.4559 36.5501C50.3064 37.8643 50.3377 39.2014 50.3343 40.529C50.3329 41.0784 50.1852 41.4758 49.6783 41.744C48.4494 42.3943 47.2357 43.0733 46.011 43.7315C45.6993 43.8991 45.49 43.9634 45.7805 44.4282C46.7952 46.0518 46.8881 47.7579 46.001 49.4917C45.184 51.0885 44.175 52.5853 43.5358 54.2752C43.0327 55.5516 42.8107 56.9214 42.885 58.2913C43.0076 60.2306 44.4628 61.9556 46.5335 62.5975C49.6418 63.5609 52.6516 63.2377 55.5454 61.806C57.1222 61.0324 58.5426 59.9741 59.735 58.6844C60.9423 57.3756 61.2437 55.859 60.6547 54.1902C60.0366 52.4388 58.8421 51.0514 57.6872 49.6431C56.2377 47.8757 54.6092 46.2609 53.3999 44.2894C51.6563 41.4468 51.0378 38.3876 51.3683 35.1041C51.7687 31.1269 53.3195 27.6605 56.0893 24.7793C58.4579 22.3154 61.4177 20.8603 64.7144 20.1123C68.7449 19.1903 72.9488 19.3637 76.8898 20.6145C76.9757 20.6412 77.0639 20.6614 77.152 20.6795C77.168 20.6828 77.189 20.6613 77.2622 20.6219C76.4994 18.8761 76.2459 17.0795 77.045 15.2671C77.8737 13.3877 79.5222 12.6557 81.5313 12.2567C80.8735 11.8089 80.3162 11.4282 79.7571 11.05C79.6471 10.9722 79.5319 10.902 79.4122 10.8401C77.8178 10.0584 76.9573 8.95767 77.4044 7.03153C77.6709 5.88309 77.7248 4.6827 77.9965 3.51941C78.2318 2.51243 78.8278 1.94422 79.7964 1.76349C81.8701 1.37657 83.9405 0.964657 86.0685 0.978684C86.6983 0.991819 87.3136 1.16997 87.8531 1.49535C88.1377 1.65596 88.3373 1.71556 88.5773 1.39713C89.7414 -0.147428 92.679 -0.455635 94.2479 0.6948C96.1157 2.06449 97.2848 3.94127 97.5695 6.26806C97.7764 7.95903 96.9895 9.31729 95.858 10.4917C95.4741 10.8901 95.1435 11.2718 95.1512 11.8727C95.1563 12.2699 94.9022 12.5102 94.5244 12.657C92.3379 13.5066 90.0583 14.0125 87.7732 14.4938C87.0489 14.6463 86.3479 15.0652 85.5536 14.6149C85.275 14.4569 85.0373 14.8859 84.7889 15.0456C83.3972 15.9399 82.6142 17.1702 82.7982 18.8901C82.7426 18.8922 82.6873 18.8945 82.6319 18.8965C82.0295 16.7307 83.2214 15.3686 84.8269 14.1627C83.9916 13.6885 83.2103 13.2516 82.4371 12.801C82.3634 12.7551 82.2812 12.7243 82.1955 12.7106C82.1097 12.6968 82.022 12.7003 81.9376 12.7208C80.0176 13.0731 78.1309 14.8558 77.7529 16.7606C77.508 18.0028 77.5612 19.2853 77.9082 20.503C77.9471 20.6646 78.0257 20.8139 78.1369 20.9374C78.2481 21.0609 78.3884 21.1547 78.5451 21.2103C79.3483 21.5588 80.1399 21.9429 80.906 22.367C84.6591 24.4448 87.7078 27.2149 89.4966 31.2053C90.0765 32.8596 90.384 34.597 90.407 36.3497C90.4255 39.5787 89.3895 42.4765 87.6303 45.1702C86.655 46.6637 85.4554 47.9284 84.1331 49.0842C82.3644 50.63 80.478 52.0327 78.622 53.4725C77.5169 54.3529 76.5709 55.4164 75.8254 56.6166C75.5032 56.9409 75.4403 57.46 74.9092 57.8218C75.2397 56.6364 75.7362 55.6898 76.2902 54.7619C77.6241 52.5279 79.6516 50.9986 81.6592 49.4528C84.1801 47.5118 86.3181 45.2604 87.7119 42.3542C89.2183 39.2129 89.4822 35.9889 88.6178 32.6179C87.9887 30.1647 86.5407 28.2739 84.7655 26.5875C81.877 23.8266 78.2661 21.9397 74.3502 21.1449C71.0881 20.4576 67.7114 20.5312 64.4824 21.36C63.0604 21.7213 61.6429 22.2047 60.3982 23.0484C57.3892 24.6824 55.2787 27.1237 53.9287 30.2483ZM77.9944 8.44348C77.8691 8.85354 78.1535 9.13413 78.5141 9.41641C79.3293 10.0546 80.2676 10.4873 81.1409 11.0272C82.4514 11.8373 83.799 12.5889 85.1457 13.3385C85.9007 13.7588 85.9365 13.7355 85.9827 12.8299C86.044 11.4149 86.2072 10.0061 86.471 8.61446C86.5973 7.97543 86.4395 7.67663 85.9366 7.37197C83.6579 5.99133 81.3886 4.5953 79.1287 3.18388C78.6903 2.90907 78.6464 3.1449 78.5869 3.46697C78.2884 5.08266 78.147 6.71706 77.9944 8.44349V8.44348ZM95.2828 7.33725C95.3928 6.58215 95.2918 6.4126 94.7064 6.54056C92.5216 7.03907 90.3111 7.4174 88.0849 7.67384C87.5265 7.73302 87.1367 7.96518 87.0773 8.61456C86.92 10.3335 86.7166 12.0481 86.5544 13.7666C86.5204 14.1259 86.7544 14.1319 87.0547 14.0532C87.7051 13.8826 88.3652 13.7471 89.0238 13.6095C90.7359 13.2517 92.4382 12.861 94.0953 12.2884C94.4124 12.1788 94.4853 11.9965 94.5252 11.6971C94.6048 10.9631 94.7305 10.2348 94.9015 9.51651C95.1143 8.7117 95.0411 7.86383 95.2828 7.33725ZM79.2238 2.43547C79.3059 2.51885 79.3934 2.59678 79.4857 2.66879C81.762 4.19634 84.1125 5.60429 86.4734 6.99538C86.8643 7.22562 87.3277 7.30008 87.7712 7.20391C89.0314 6.97145 90.2988 6.77785 91.5613 6.5575C92.4915 6.39516 93.4185 6.21501 94.4395 6.02564C94.3587 5.95019 94.2733 5.87985 94.1837 5.81503C92.205 4.71512 90.1882 3.67758 88.2592 2.49665C87.0497 1.75619 85.8114 1.55718 84.4604 1.72311C83.2772 1.86843 82.0931 2.00886 80.9136 2.18056C80.3673 2.26009 79.7936 2.16564 79.2238 2.43547ZM42.3125 44.5656C42.906 44.4508 43.3128 44.118 43.7725 43.9061C45.5852 43.0706 47.3276 42.1004 49.0551 41.1031C49.2262 41.0216 49.3673 40.8883 49.4583 40.7221C49.5494 40.5559 49.5859 40.3652 49.5625 40.1771C49.5145 39.1663 49.523 38.1503 49.5629 37.1386C49.5869 36.5292 49.372 36.5223 48.8972 36.7171C46.9051 37.5346 44.9682 38.4847 42.9311 39.1948C42.5511 39.3272 42.2982 39.5621 42.3048 40.0352C42.3256 41.5215 42.3125 43.0084 42.3125 44.5656ZM37.2204 36.3961C38.7946 37.2241 40.3127 38.0013 41.8054 38.8245C41.9338 38.9061 42.0815 38.9525 42.2335 38.9589C42.3855 38.9653 42.5366 38.9316 42.6714 38.861C44.3272 38.1589 45.9952 37.4858 47.6511 36.7839C48.1761 36.5613 48.7465 36.4225 49.322 35.9922C47.8895 35.4494 46.5676 34.9155 45.2209 34.4538C44.6532 34.2592 44.0274 34.168 43.4256 34.3461C41.3616 34.957 39.3068 35.5973 37.2204 36.3961V36.3961ZM41.8672 44.6973C41.9484 43.3664 41.7829 42.1448 41.9611 40.9389C42.1435 39.7047 42.0494 39.4965 40.8861 39.0207C40.7898 38.9669 40.6971 38.907 40.6085 38.8413C39.4132 38.1558 38.1073 37.6885 36.8362 36.8109C36.9374 38.3881 37.1785 39.7838 37.2143 41.1948C37.2276 41.7212 37.5147 42.0665 38.0052 42.345C39.2869 43.0728 40.6017 43.7498 41.8672 44.6973L41.8672 44.6973ZM91.251 0.582414C90.5753 0.52828 89.7612 0.793571 89.0267 1.3375C88.6117 1.64484 88.559 1.86308 89.0828 2.14249C91.1028 3.22015 93.0985 4.34345 95.1205 5.41734C95.6049 5.67462 95.8337 6.03628 95.8201 6.53986C95.802 7.21234 95.7383 7.88481 95.6614 8.55351C95.6442 8.70301 95.5217 8.88462 95.6779 8.96601C95.8601 9.06096 95.9417 8.85618 96.008 8.71971C96.1523 8.44014 96.2821 8.15327 96.3967 7.86026C97.1198 5.86653 96.2057 4.22598 95.2212 2.6204C94.3762 1.24247 93.099 0.599601 91.251 0.582414Z" fill="#121316"/>
<path d="M79.4791 63.0947C81.5645 63.4998 83.0376 64.7858 84.092 66.5233C85.1876 68.3289 85.1342 70.1908 83.9297 71.9754C83.2015 73.0322 82.2037 73.8748 81.0398 74.4157C79.6207 75.1072 78.1182 75.4723 76.5409 75.2675C74.4251 74.9928 72.8238 73.852 71.6066 72.1339C71.4899 71.9693 71.3728 71.8049 71.2553 71.6409C70.5151 70.3278 70.1721 68.828 70.2679 67.3236C70.4245 66.0417 70.7124 64.7987 71.3342 63.6508C71.4575 63.4231 71.5837 63.2078 71.8254 63.0893C71.6853 63.3941 71.5358 63.6941 71.4079 64.0031C70.8402 65.3757 70.553 66.8002 70.7648 68.2821C71.2791 71.8792 74.971 75.3541 79.3868 73.8546C80.4307 73.5001 81.4011 73.0054 82.2268 72.1128C80.2783 71.9546 78.4645 71.6717 76.7492 70.9449C74.889 70.1567 73.4438 68.9546 72.6836 67.0103C72.1894 65.7462 72.0702 64.4124 71.8164 63.1023C71.8681 62.5063 71.9198 61.9103 71.9755 61.2671C72.2922 61.4929 72.1709 61.7996 72.1747 62.0539C72.2418 66.5001 75.1579 69.8694 79.5635 70.578C79.6307 70.5842 79.6982 70.5857 79.7656 70.5824C80.7808 70.9106 81.8408 70.8395 82.8825 70.93C83.115 70.9502 83.2454 70.8056 83.3396 70.6042C83.6426 69.9902 83.8021 69.3153 83.8059 68.6306C83.8097 67.9458 83.6577 67.2692 83.3614 66.6519C83.3377 66.5776 83.2951 66.5108 83.2378 66.458C83.1804 66.4053 83.1103 66.3683 83.0344 66.3508C81.7396 66.075 80.6334 65.394 79.5327 64.7032C79.4104 64.5758 79.3247 64.2708 79.1375 64.6748C78.4883 66.0754 77.8212 66.487 76.7716 66.0182C75.5749 65.4838 74.6048 64.4843 74.9972 63C75.1879 62.2787 75.5296 61.6538 76.1089 61.1968C76.4261 60.9466 76.5894 60.7109 76.3171 60.2395C76.8885 60.6416 78.421 60.4204 79.0996 59.9347C79.1257 60.106 79.1087 60.3222 79.3968 60.2199C83.5642 60.6826 86.772 62.6061 88.739 66.3909C88.9265 66.7515 89.1093 66.9218 89.5421 66.9016C91.5264 66.8089 93.5104 66.6965 95.3017 65.7235C96.7493 64.9373 97.9087 63.845 98.6023 62.178C97.4323 62.6319 96.3486 63.0298 95.2838 63.4728C94.4789 63.8076 93.7769 63.8647 92.9288 63.4207C91.4661 62.655 89.8838 62.1296 88.3959 61.3937C87.443 60.9224 86.9275 60.2621 86.9525 59.1962C86.981 57.9817 86.7518 56.7785 86.8167 55.5587C86.8492 54.9483 87.0538 54.5609 87.679 54.5063C88.147 54.4655 88.3353 54.2184 88.5163 53.7976C89.769 50.8845 93.1384 49.0968 96.5182 49.4808C98.7737 49.7371 100.614 50.7595 102.111 52.4324C102.526 52.8959 103.114 52.9079 103.639 53.0588C104.801 53.3931 104.793 53.3688 104.798 54.5919C104.806 56.3642 104.654 58.1281 104.766 59.9108C104.922 62.0951 104.397 64.2739 103.265 66.1483C102.223 67.8736 100.664 69.0254 98.8934 69.9084C96.0747 71.3238 92.9644 72.0614 89.8103 72.0623C89.5675 72.0632 89.3082 71.9495 89.1824 72.3597C88.2976 75.2449 85.7898 77.8337 82.6119 78.802C83.4335 79.2314 84.1684 79.6187 84.9067 79.9993C85.106 80.1021 85.3192 80.1776 85.5201 80.2775C87.4079 81.217 87.0558 80.827 87.0153 82.8512C86.9973 83.7501 86.8809 84.6468 86.8412 85.5459C86.8419 85.6907 86.8024 85.8329 86.727 85.9566C86.6517 86.0803 86.5434 86.1806 86.4144 86.2464C84.4667 87.4155 82.5283 88.6002 80.5741 89.7583C80.0693 90.0574 79.563 90.1107 79.0024 89.7364C76.59 88.1253 74.121 86.6018 71.7478 84.9275C70.5576 84.0879 69.9966 83.0027 69.9039 81.619C69.8529 80.8582 69.7011 80.1074 69.7641 79.3325C69.8156 78.6986 70.0754 78.3012 70.6761 78.1077C70.8847 78.0198 71.0875 77.9185 71.2831 77.8046C69.8022 77.2357 68.8369 76.1578 67.7479 75.2423C67.4966 75.0206 67.2577 74.7852 67.0324 74.537C66.9271 74.4264 66.8292 74.2471 66.6766 74.2935C66.451 74.3621 66.5369 74.5924 66.5504 74.7565C66.6253 75.6235 66.5477 76.497 66.3213 77.3373C65.8113 79.2276 64.4964 80.4564 62.8737 81.3407C59.9977 82.9081 57.0333 82.9169 53.9858 81.7316C51.4452 80.7434 49.3131 79.1831 47.3147 77.3928C46.8487 76.9753 46.3185 76.6261 45.9336 76.1204C46.2183 75.999 46.3421 76.263 46.512 76.3814C47.1827 76.8488 47.8383 77.338 48.4995 77.819C50.1825 79.0926 51.9925 80.1153 54.058 80.6335C57.0538 81.7399 60.0047 81.8302 62.7711 80.0284C64.4878 78.9103 65.4428 77.3232 65.3391 75.1683C65.2314 72.9278 64.6079 70.7992 64.0846 68.646C63.8023 67.4845 63.5643 66.3248 63.7726 65.1182C64.0213 63.6776 64.8241 62.6148 65.9919 61.7937C66.063 61.7437 66.164 61.6188 66.2579 61.783C66.2272 61.8611 66.1834 61.9334 66.1283 61.9968C64.3196 63.4234 64.0694 65.3027 64.5604 67.3982C64.7083 66.3909 64.9508 65.3997 65.2846 64.4379C65.635 63.4556 66.1351 62.5333 66.7672 61.7038C66.5307 61.5441 66.4301 61.8479 66.2471 61.7938C66.46 61.4061 66.7872 61.2072 67.5552 61.0096C67.239 61.5388 66.8101 61.9736 66.6128 62.5465C65.6885 64.5572 65.6228 66.6592 65.9475 68.8028C65.9675 69.9756 66.3255 71.0591 66.8729 72.0769C67.9646 74.1067 69.2091 76.0136 71.1569 77.3605C71.5143 77.6077 71.8001 77.6644 72.2054 77.5306C73.4631 77.1153 74.6912 76.6032 76.0038 76.3594C76.3574 76.2969 76.7214 76.3336 77.0554 76.4654C78.6046 77.0194 80.0768 77.7501 81.5738 78.423C81.7417 78.5072 81.9264 78.5525 82.1142 78.5555C82.302 78.5585 82.4881 78.5191 82.6586 78.4403C84.7554 77.5912 86.6127 76.4366 87.7024 74.3728C89.5597 70.8554 88.9706 65.9671 85.0147 63.2374C83.1425 61.9455 81.1491 60.9401 78.7906 60.9735C77.4525 60.9924 76.3201 61.395 75.6521 62.6786C74.9338 64.059 75.7313 65.6368 77.2754 65.848C78.3993 66.0017 79.1725 64.8755 78.7551 63.6863C78.695 63.5414 78.6264 63.4003 78.5495 63.2636C78.7617 63.2052 78.873 63.3617 79.0131 63.4713C79.6202 63.9702 80.276 64.4066 80.9705 64.7741C81.4818 65.0292 81.9675 65.3674 82.7096 65.5009C82.2368 64.8875 81.6581 64.3634 81.0009 63.9535C80.5032 63.6514 79.9871 63.3798 79.4791 63.0947ZM103.647 60.1221C103.678 59.6215 103.659 59.1191 103.59 58.6223C103.528 58.0646 103.441 57.5086 103.342 56.956C102.468 52.0727 97.8423 49.0561 93.0303 50.2598C91.4432 50.6568 90.1583 51.5407 89.2992 52.9621C89.1076 53.2793 88.8024 53.7056 89.0095 54.0113C89.1811 54.2647 89.6318 53.9784 89.9358 53.8949C90.8425 53.646 91.8263 53.6411 92.6523 53.145C93.2312 52.7826 93.9231 52.6455 94.5965 52.7598C96.3948 53.06 97.8465 53.9676 98.8528 55.4844C101.631 59.6721 99.4828 65.4493 94.5699 67.1115C93.0582 67.6229 91.5022 67.7879 89.9253 67.7832C89.3864 67.7817 89.2888 67.9482 89.3964 68.4371C89.5632 69.2543 89.5979 70.093 89.499 70.9212C89.418 71.7141 89.4335 71.7091 90.1957 71.6015C92.5737 71.2659 94.836 70.5348 97.0371 69.5989C98.3239 69.0518 99.5534 68.3854 100.604 67.4617C102.755 65.5711 103.551 63.0789 103.647 60.1221ZM85.5042 81.0537C83.8998 80.3235 82.4358 79.6392 80.9568 78.989C79.4805 78.328 78.0461 77.5772 76.6617 76.7406C76.585 76.6936 76.4986 76.6646 76.4091 76.6559C76.3195 76.6473 76.2292 76.6591 76.1449 76.6906C74.4154 77.2568 72.6857 77.8226 70.9559 78.3878C70.598 78.5048 70.5562 78.6435 70.9055 78.8486C71.6227 79.2696 72.3178 79.7307 73.0489 80.1254C75.2644 81.3213 77.6007 82.2875 79.7366 83.6353C79.9697 83.7824 80.206 83.8179 80.4348 83.6714C82.0477 82.6573 83.7435 81.7816 85.5042 81.0537ZM79.9013 86.8488L79.8952 86.8488C79.8952 86.3311 79.8462 85.8075 79.9074 85.2971C79.9864 84.6382 79.7131 84.2784 79.154 83.971C76.3335 82.4199 73.382 81.0994 70.7414 79.2305C70.3096 78.925 70.2386 79.1519 70.2622 79.5244C70.3063 80.2199 70.4273 80.9161 70.4075 81.6089C70.3756 82.7219 70.7822 83.4565 71.7584 84.0837C74.3168 85.7274 76.8372 87.4303 79.4323 89.0184C79.8455 89.2713 79.9154 89.1484 79.9054 88.7389C79.8899 88.1092 79.9013 87.4788 79.9013 86.8488ZM94.0051 62.9389C93.8602 61.2732 93.9458 59.6686 93.9637 58.0629C93.9668 57.7866 93.7927 57.7646 93.5806 57.7032C91.7105 57.1613 89.8467 56.5893 88.0827 55.7583C87.5066 55.4868 87.4681 55.6501 87.4641 56.1682C87.456 57.2062 87.8957 58.2059 87.7324 59.2463C87.6193 59.9669 88.0079 60.3356 88.565 60.6056C90.3051 61.449 92.0832 62.205 94.0051 62.9389V62.9389ZM80.4339 86.5656H80.4399C80.4399 87.2183 80.4509 87.8713 80.4359 88.5237C80.4267 88.9266 80.5689 89.0241 80.9033 88.8009C81.2729 88.5541 81.6289 88.2868 81.9994 88.0413C83.1015 87.311 84.2578 86.6746 85.4212 86.048C85.6964 85.8997 86.1214 85.7693 86.1001 85.3676C86.0387 84.212 86.4068 83.1021 86.4071 81.952C86.4073 81.3219 86.1477 81.3285 85.7205 81.5396C84.1299 82.3255 82.5468 83.1268 80.951 83.9021C80.5464 84.0986 80.4033 84.3724 80.4263 84.8104C80.4571 85.394 80.4339 85.9804 80.4339 86.5656ZM94.2846 60.282L94.2805 60.2821C94.2805 60.9795 94.3137 61.6791 94.2704 62.3738C94.2333 62.9715 94.4169 63.0719 94.9514 62.8522C96.1527 62.3582 97.3668 61.8948 98.5821 61.436C98.7087 61.3928 98.8219 61.3176 98.9107 61.2176C98.9995 61.1176 99.0608 60.9962 99.0887 60.8655C99.5011 59.4284 99.3063 58.0373 98.7982 56.6654C98.6826 56.3534 98.5038 56.2745 98.1747 56.3964C97.0198 56.824 95.8605 57.2419 94.6902 57.6245C94.3699 57.7292 94.2709 57.8728 94.279 58.1894C94.297 58.8865 94.2846 59.5844 94.2846 60.282ZM87.719 54.9037C88.0977 55.3167 88.5434 55.4842 88.9853 55.6218C90.3817 56.0568 91.7836 56.4633 93.1037 57.1187C93.4359 57.2837 93.8304 57.429 94.2712 57.2625C95.4804 56.8059 96.7005 56.3787 97.9315 55.981C98.3229 55.8548 98.3405 55.7381 98.1103 55.4424C97.3705 54.4987 96.3944 53.7671 95.2809 53.3219C95.0067 53.2248 94.7104 53.2082 94.4271 53.2742C93.5324 53.4122 92.6988 53.7652 91.8194 53.9548C90.4664 54.2466 89.1216 54.577 87.719 54.9037ZM104.214 53.954C103.951 54.0863 103.724 54.2006 103.497 54.315C103.709 54.7155 103.76 55.2067 104.214 55.626V53.954ZM103.912 53.6205C103.538 53.4884 103.274 53.3305 102.941 53.3307C103.227 54.0491 103.234 54.0517 103.912 53.6205ZM66.6468 74.1524C66.6342 74.1379 66.6189 74.1096 66.6096 74.1114C66.5811 74.12 66.5538 74.132 66.5282 74.1471C66.5407 74.1616 66.5558 74.1898 66.5653 74.1881C66.594 74.18 66.6215 74.168 66.6468 74.1524V74.1524Z" fill="#121316"/>
<path d="M41.753 49.8699C42.0594 50.0841 41.8306 50.3104 41.7354 50.4936C41.3727 51.1914 40.9977 51.884 40.5971 52.5607C38.8834 55.455 38.1628 58.5863 38.3527 61.9321C38.4686 63.9743 39.5776 65.4269 41.2255 66.4927C44.2896 68.4745 47.645 68.9364 51.1893 68.2765C53.8709 67.7772 56.5232 67.2016 58.8878 65.722C59.3668 65.4223 59.5538 65.1517 59.5169 64.5713C59.2717 60.7234 63.3965 56.9415 67.2506 57.4452C67.3196 57.4547 67.3847 57.483 67.4389 57.5269C65.1871 57.4194 63.4206 58.4156 61.8832 59.9261C60.5991 61.1877 60.1264 62.6925 60.4665 64.4792C60.8608 66.5509 61.362 68.6088 61.3452 70.7418C61.3254 73.2726 60.152 74.7414 57.6815 75.3512C55.0859 75.9918 52.669 75.4661 50.337 74.3075C48.6727 73.4806 47.2188 72.3086 45.5987 71.4095C44.1073 70.5818 42.5764 69.982 40.7988 70.2256C37.7491 70.6436 34.4759 75.1175 37.2785 78.8996C38.1301 80.0488 39.1249 81.001 40.6469 81.1542C41.5147 81.2416 41.9815 80.9988 42.3019 80.305C42.6225 79.6109 42.5064 79.1047 41.8708 78.494C41.3684 78.0113 40.7571 77.6565 40.2869 77.1325C39.5236 76.282 39.3354 75.2891 39.8191 74.5531C40.3711 73.713 41.3678 73.4047 42.4505 73.7975C42.8408 73.9391 43.3682 73.9301 43.5067 74.4829C43.0428 74.4079 42.6639 74.0965 42.1894 74.033C41.4752 73.9372 40.6531 74.2199 40.3603 74.7745C40.0217 75.4157 40.2849 75.9862 40.6752 76.5191C41.0978 77.0961 41.7037 77.4541 42.2634 77.8678C43.3677 78.6839 43.5986 79.3118 43.2397 80.525C42.9592 81.4735 42.163 82.0256 40.9641 82.0762C39.6736 82.1307 38.6084 81.5927 37.6954 80.7381C35.7707 78.9366 34.8433 76.8297 35.522 74.1296C36.2743 71.1364 39.5566 68.8453 42.6249 69.247C44.3682 69.4751 45.8677 70.2499 47.3202 71.1662C49.2018 72.3532 51.0828 73.54 53.2553 74.152C54.7756 74.5869 56.3909 74.5596 57.8956 74.0735C59.5133 73.5641 60.3406 72.049 60.1187 70.0859C59.998 69.0186 59.8284 67.9554 59.7474 66.8854C59.709 66.379 59.5266 66.4577 59.211 66.6123C57.9443 67.2327 56.7076 67.9203 55.3768 68.4004C53.3822 69.1088 51.2983 69.5341 49.1857 69.664C46.6371 69.8511 44.0851 69.351 41.7956 68.2159C38.7541 66.7268 37.1795 64.4119 37.3826 60.8567C37.5828 57.3518 38.8801 54.2835 40.8596 51.4521C41.2134 50.9584 41.513 50.4279 41.753 49.8699V49.8699Z" fill="#121316"/>
<path d="M79.7852 59.4887C80.1127 58.7675 80.8337 58.4236 81.3434 57.8758C81.9642 57.2085 82.6395 56.5919 83.2912 55.9534C84.5076 54.8834 85.6086 53.6975 86.7036 52.5088C89.0083 50.0068 91.1338 47.3862 92.4951 44.2109C93.7411 41.3049 94.0551 38.3025 93.3655 35.2631C92.8464 32.9761 91.8086 30.8391 90.3322 29.017C89.3796 27.6262 88.2282 26.3973 87.1334 25.1241C85.8582 23.6411 84.5962 22.1507 83.511 20.5196C83.5674 20.4633 83.6237 20.407 83.6801 20.3508C85.3152 22.272 87.1869 23.9599 88.9573 25.7484C91.6603 28.4791 93.8298 31.5743 94.6149 35.4445C95.1996 38.3266 94.9949 41.1495 93.9041 43.8932C92.9569 46.2757 91.4803 48.2932 89.7908 50.2134C86.7929 53.6207 83.4386 56.6314 79.9461 59.5048C79.8802 59.559 79.8342 59.54 79.7852 59.4887Z" fill="#121316"/>
<path d="M37.8281 43.0962C38.9292 43.5623 39.9228 44.2219 40.9103 44.8786C41.6309 45.3578 42.3168 45.5164 43.1161 45.1216C43.7 44.8332 44.3173 44.6123 44.903 44.3269C45.2267 44.1692 45.4211 44.1822 45.603 44.5272C46.3856 46.0118 46.5791 47.5148 45.763 49.0448C45.3245 49.9047 44.8107 50.7242 44.2279 51.4936C43.6445 50.7987 42.9616 50.1853 42.511 49.3813C42.4663 49.2899 42.3995 49.211 42.3166 49.1519C42.2337 49.0929 42.1374 49.0555 42.0364 49.0431C42.0303 48.8262 42.0242 48.6093 42.0181 48.3923C42.1568 46.57 40.8931 45.7548 39.564 44.9971C39.2658 44.8479 38.9591 44.7162 38.6454 44.6029C38.5285 44.0163 37.9325 43.6896 37.8281 43.0962Z" fill="#708192"/>
<path d="M83.6801 20.3507C83.6238 20.407 83.5675 20.4633 83.5112 20.5198C83.1243 20.0299 82.7474 19.5343 82.6328 18.8967C82.6882 18.8944 82.7436 18.8921 82.799 18.89C82.9681 19.4522 83.3499 19.8859 83.6801 20.3507Z" fill="#14456B"/>
<path d="M79.3949 60.2201C79.1068 60.3223 79.1238 60.1062 79.0977 59.9349C79.2691 59.7823 79.4405 59.6298 79.6118 59.4774C79.6609 59.5306 79.71 59.5838 79.7589 59.6372C79.7585 59.907 79.1608 59.8038 79.3949 60.2201Z" fill="#14456B"/>
<path d="M79.7603 59.6368C79.7114 59.5835 79.6624 59.5303 79.6133 59.4771C79.675 59.4091 79.7312 59.4135 79.782 59.4902C79.7932 59.5238 79.8006 59.5585 79.8041 59.5938C79.8042 59.608 79.7758 59.6225 79.7603 59.6368Z" fill="#121316"/>
<path d="M45.6602 75.8418C45.7846 75.815 45.8684 75.8284 45.8049 75.9879C45.7666 75.987 45.7301 75.9713 45.7031 75.944C45.6761 75.9168 45.6607 75.8802 45.6602 75.8418V75.8418Z" fill="#121316"/>
<path d="M45.793 75.9781C45.919 75.9491 46.0367 75.9282 45.9358 76.1229C45.8882 76.0747 45.8406 76.0264 45.793 75.9781Z" fill="#121316"/>
<path d="M45.5312 75.6309C45.61 75.6851 45.7135 75.7234 45.6742 75.8535C45.5526 75.8268 45.5335 75.7342 45.5312 75.6309Z" fill="#121316"/>
<path d="M90.3303 29.017C91.8066 30.839 92.8445 32.9761 93.3636 35.263C94.0531 38.3025 93.7391 41.3048 92.4932 44.2109C91.1318 47.3862 89.0064 50.0068 86.7016 52.5087C85.6066 53.6975 84.5056 54.8834 83.2892 55.9534C81.1387 55.3599 79.0056 55.2887 76.8842 56.1088C76.5134 56.2522 76.299 56.7073 75.8242 56.6165C76.5698 55.4163 77.5157 54.3528 78.6209 53.4724C80.4768 52.0326 82.3632 50.6298 84.1319 49.084C85.4543 47.9283 86.6538 46.6635 87.6291 45.1701C89.3884 42.4763 90.4244 39.5785 90.4059 36.3496C90.3828 34.5968 90.0754 32.8594 89.4955 31.2052C89.9277 30.5345 89.9694 29.7149 90.3303 29.017Z" fill="#708192"/>
<path d="M53.9297 30.2483C55.2796 27.1237 57.3901 24.6824 60.3991 23.0485C60.4891 23.1447 60.5614 23.2898 60.6718 23.3298C62.2327 23.8948 62.5378 25.3154 62.1119 26.7732C61.3677 29.3204 59.7172 31.1619 57.2019 32.1016C55.5062 32.7351 54.4361 32.0989 54.0153 30.3487C54.0061 30.3106 53.9591 30.2816 53.9297 30.2483Z" fill="#87A0C0"/>
<path d="M70.2814 47.0262C70.6312 46.792 70.9932 46.5787 71.4309 46.5898C71.6161 46.5946 71.6603 46.5202 71.644 46.3624C71.9118 46.3523 72.1063 46.4289 71.9947 46.745C71.8764 47.0798 72.0403 47.3088 72.2472 47.5216C72.3725 47.6534 72.5303 47.7497 72.7048 47.8007C72.8792 47.8517 73.0641 47.8556 73.2405 47.8121C73.7237 47.7117 73.9657 47.3711 73.9921 46.8594C75.7957 48.1578 75.8039 50.5743 74.0733 51.8838C73.1143 52.6096 71.4014 52.7074 70.3673 52.0635C69.2465 51.3656 69.1399 50.2681 69.2549 49.0951C69.3353 48.2743 69.8135 47.6534 70.2814 47.0262Z" fill="#FDFDFD"/>
<path d="M65.3477 26.8897C65.0479 26.9488 64.7368 26.8976 64.4717 26.7455C64.2066 26.5934 64.0054 26.3506 63.9051 26.0619C63.6181 25.3543 63.8436 24.726 64.2932 24.1194C65.1993 22.8968 66.2936 22.06 67.8981 22.133C68.6136 22.1655 69.2021 22.432 69.5602 23.0946C69.93 23.7788 69.7892 24.4291 69.3317 24.9799C68.3648 26.1439 67.1599 26.8879 65.3477 26.8897Z" fill="#87A0C0"/>
<path d="M79.5317 64.7031C80.6325 65.394 81.7387 66.075 83.0334 66.3507C83.1093 66.3682 83.1794 66.4052 83.2368 66.458C83.2941 66.5108 83.3367 66.5776 83.3604 66.6518C83.6567 67.2691 83.8087 67.9458 83.8049 68.6305C83.8011 69.3152 83.6417 69.9901 83.3386 70.6041C83.2444 70.8055 83.114 70.9501 82.8816 70.9299C81.8399 70.8394 80.7798 70.9105 79.7646 70.5823C79.9004 69.9058 80.1091 69.2492 80.1858 68.5545C80.3179 67.3595 80.0781 66.244 79.636 65.1522C79.5772 65.0071 79.4865 64.8715 79.5317 64.7031Z" fill="#708192"/>
<path d="M54.0576 80.6333C51.992 80.1152 50.182 79.0925 48.4991 77.8189C48.4262 76.2308 49.6943 75.6969 51.11 75.9509C53.0334 76.2959 54.5925 78.4565 54.473 79.954C54.4476 80.272 54.405 80.5336 54.0576 80.6333Z" fill="#87A0C0"/>
<path d="M65.947 68.8027C65.6222 66.6591 65.688 64.557 66.6123 62.5463C66.9818 62.8656 67.484 62.7185 67.9129 62.9795C69.5099 63.9512 69.9966 66.2181 68.2861 67.7245C67.6435 68.2905 66.8779 68.7733 65.947 68.8027Z" fill="#87A0C0"/>
<path d="M70.2847 47.0262C69.8168 47.6534 69.3386 48.2743 69.2582 49.0951C69.1432 50.2681 69.2497 51.3656 70.3706 52.0635C71.4047 52.7074 73.1175 52.6096 74.0766 51.8838C75.8071 50.5743 75.799 48.1578 73.9954 46.8594C73.969 47.3711 73.727 47.7117 73.2438 47.8121C73.0673 47.8556 72.8825 47.8517 72.708 47.8007C72.5336 47.7496 72.3758 47.6534 72.2505 47.5216C72.0436 47.3088 71.8797 47.0798 71.998 46.745C72.1096 46.4289 71.9151 46.3522 71.6473 46.3624C72.1136 46.0221 72.6427 46.0623 73.1605 46.1505C74.5872 46.3934 75.7674 47.6247 75.9322 49.0096C76.1158 50.553 75.1775 52.0725 73.6515 52.7031C72.0548 53.3628 70.1516 52.913 69.3328 51.6824C68.3875 50.2615 68.903 47.7399 70.2847 47.0262Z" fill="#121316"/>
<path d="M64.0635 45.2971C65.4167 44.7654 66.6314 44.9891 67.676 45.9999C68.6887 46.98 68.9166 48.1799 68.4655 49.4774C67.9765 50.884 66.9055 51.6622 65.4598 51.8681C63.6834 52.121 62.1685 51.3693 61.7983 50.0373C61.395 48.5862 61.571 47.2237 62.7079 46.107C62.7151 46.1827 62.7222 46.2583 62.7295 46.3338C62.4564 46.6908 62.2479 47.0928 62.1135 47.5217C61.6756 48.9603 62.1284 50.4658 63.1906 51.0517C64.8218 51.9516 67.0011 51.2695 67.8192 49.6029C68.5115 48.1926 67.9867 46.4182 66.7095 45.8514C66.5679 46.5622 66.1186 46.8819 65.4823 46.7247C64.867 46.5727 64.615 46.073 64.8288 45.3837C64.6198 45.4029 64.4218 45.4211 64.2237 45.4392C64.1703 45.3919 64.1169 45.3445 64.0635 45.2971Z" fill="#121316"/>
<path d="M70.268 67.3236C70.1722 68.8279 70.5153 70.3277 71.2554 71.6408C70.6784 71.7449 70.1872 72.1692 69.5168 71.9496C68.3795 71.5771 68.0089 70.4171 68.5256 69.3919C68.7038 69.0385 68.8778 68.6001 69.3059 68.5063C69.9736 68.36 70.2137 67.934 70.268 67.3236Z" fill="#87A0C0"/>
<path d="M64.0634 45.297C64.1168 45.3444 64.1703 45.3917 64.2238 45.439C63.8421 45.636 63.4602 45.8331 63.0781 46.0302L62.9688 45.9194C63.2771 45.6254 63.653 45.4117 64.0634 45.297V45.297Z" fill="#14456B"/>
<path d="M62.7286 46.3339C62.7214 46.2583 62.7142 46.1827 62.707 46.107C62.7941 46.0445 62.8811 45.982 62.968 45.9196C63.0045 45.9565 63.0409 45.9934 63.0774 46.0304C62.9611 46.1315 62.8448 46.2327 62.7286 46.3339Z" fill="#14456B"/>
<path d="M90.3313 29.017C89.9704 29.7149 89.9287 30.5346 89.4965 31.2053C87.7077 27.2148 84.659 24.4448 80.9059 22.3669C80.1397 21.9428 79.3482 21.5588 78.5449 21.2102C78.3883 21.1546 78.248 21.0608 78.1368 20.9373C78.0256 20.8138 77.9469 20.6645 77.9081 20.5029C77.5611 19.2853 77.5078 18.0027 77.7528 16.7605C78.1307 14.8557 80.0174 13.073 81.9375 12.7207C82.0219 12.7002 82.1095 12.6967 82.1953 12.7105C82.2811 12.7243 82.3632 12.755 82.437 12.8009C83.2102 13.2515 83.9914 13.6884 84.8268 14.1626C83.2212 15.3685 82.0293 16.7306 82.6318 18.8965C82.7464 19.5343 83.1233 20.03 83.5102 20.5198C84.5952 22.1507 85.8572 23.6411 87.1324 25.124C88.2272 26.3973 89.3786 27.6262 90.3313 29.017Z" fill="#A7B9CC"/>
<path d="M77.9949 8.44341C78.1475 6.71698 78.2889 5.08259 78.5874 3.4669C78.6469 3.14482 78.6908 2.909 79.1292 3.1838C81.3868 4.5987 83.6561 5.99473 85.9372 7.3719C86.44 7.67655 86.5978 7.97535 86.4715 8.61438C86.2078 10.006 86.0446 11.4148 85.9832 12.8298C85.937 13.7355 85.9012 13.7587 85.1462 13.3384C83.7995 12.5888 82.452 11.8372 81.1414 11.0271C80.2682 10.4873 79.3299 10.0545 78.5146 9.41634C78.154 9.13406 77.8696 8.85347 77.9949 8.44341Z" fill="#21A2F8"/>
<path d="M95.2824 7.33725C95.0408 7.86383 95.1139 8.71169 94.9011 9.5165C94.7301 10.2348 94.6044 10.9631 94.5248 11.6971C94.4849 11.9965 94.4121 12.1788 94.0949 12.2884C92.4379 12.861 90.7356 13.2516 89.0235 13.6094C88.3649 13.7471 87.7048 13.8825 87.0544 14.0531C86.7542 14.1319 86.5201 14.1258 86.5541 13.7666C86.7163 12.0481 86.9197 10.3334 87.0769 8.61455C87.1363 7.96517 87.5262 7.73301 88.0846 7.67384C90.3108 7.4174 92.5213 7.03907 94.706 6.54055C95.2915 6.4126 95.3925 6.58214 95.2824 7.33725Z" fill="#14456B"/>
<path d="M79.2227 2.43542C79.7925 2.16559 80.3661 2.26004 80.9125 2.18051C82.0919 2.00881 83.2761 1.86838 84.4592 1.72306C85.8103 1.55713 87.0485 1.75614 88.2581 2.4966C90.1871 3.67753 92.2039 4.71507 94.1826 5.81497C94.2722 5.87979 94.3576 5.95013 94.4384 6.02558C93.4174 6.21495 92.4904 6.3951 91.5602 6.55744C90.2977 6.77779 89.0303 6.97139 87.77 7.20385C87.3266 7.30002 86.8632 7.22556 86.4722 6.99532C84.1114 5.60423 81.7609 4.19629 79.4846 2.66873C79.3923 2.59673 79.3048 2.5188 79.2227 2.43542V2.43542Z" fill="#5DC0F8"/>
<path d="M42.3125 44.5654C42.3125 43.0082 42.3256 41.5213 42.3048 40.035C42.2982 39.5619 42.5511 39.327 42.9311 39.1946C44.9681 38.4845 46.9051 37.5344 48.8972 36.7169C49.372 36.5221 49.5869 36.529 49.5629 37.1384C49.523 38.1502 49.5145 39.1661 49.5625 40.177C49.5859 40.365 49.5494 40.5557 49.4583 40.7219C49.3673 40.8881 49.2262 41.0214 49.0551 41.103C47.3276 42.1003 45.5852 43.0704 43.7725 43.9059C43.3128 44.1179 42.906 44.4506 42.3125 44.5654Z" fill="#21A2F8"/>
<path d="M37.2188 36.396C39.3052 35.5972 41.36 34.9569 43.424 34.346C44.0258 34.1679 44.6516 34.2591 45.2193 34.4537C46.566 34.9154 47.8879 35.4493 49.3204 35.9921C48.7449 36.4224 48.1745 36.5612 47.6495 36.7838C45.9936 37.4857 44.3255 38.1588 42.6698 38.8609C42.535 38.9315 42.3839 38.9652 42.2319 38.9588C42.0799 38.9524 41.9322 38.906 41.8038 38.8244C40.311 38.0012 38.793 37.224 37.2188 36.396Z" fill="#5DC0F8"/>
<path d="M41.8669 44.6972C40.6015 43.7497 39.2867 43.0727 38.0049 42.3449C37.5145 42.0664 37.2274 41.7211 37.214 41.1947C37.1782 39.7837 36.9372 38.388 36.8359 36.8108C38.107 37.6884 39.4129 38.1557 40.6083 38.8412C40.6969 38.9069 40.7896 38.9668 40.8858 39.0205C42.0492 39.4964 42.1433 39.7046 41.9609 40.9388C41.7826 42.1447 41.9482 43.3663 41.8669 44.6972Z" fill="#14456B"/>
<path d="M91.2514 0.582527C93.0994 0.599715 94.3766 1.24258 95.2215 2.62051C96.2061 4.22608 97.1202 5.86663 96.3971 7.86036C96.2824 8.15337 96.1527 8.44023 96.0084 8.7198C95.9421 8.85627 95.8605 9.06105 95.6783 8.96611C95.5221 8.88473 95.6446 8.70311 95.6618 8.55362C95.7386 7.88491 95.8024 7.21244 95.8205 6.53997C95.8341 6.03639 95.6053 5.67473 95.1209 5.41745C93.0989 4.34356 91.1032 3.22027 89.0832 2.14261C88.5594 1.8632 88.6121 1.64496 89.0271 1.33762C89.7616 0.793684 90.5757 0.528398 91.2514 0.582527Z" fill="#A7B9CC"/>
<path d="M37.8296 43.0964C37.934 43.6897 38.5299 44.0165 38.6469 44.6031C37.8822 44.423 37.1336 44.1801 36.4089 43.8769C35.4693 43.4725 34.9992 42.7251 34.8381 41.7569C34.6855 40.8397 34.6547 39.9185 34.9291 39.0161C35.0195 38.7152 35.1452 38.4261 35.3038 38.1548C35.497 37.8286 35.7588 37.3636 36.1141 37.439C36.5 37.5209 36.2999 38.0468 36.3307 38.3731C36.411 39.2228 36.4795 40.0769 36.4841 40.9296C36.4896 41.9478 37.011 42.6042 37.8296 43.0964Z" fill="#A7B9CC"/>
<path d="M103.648 60.1221C103.552 63.0789 102.757 65.5712 100.605 67.4618C99.5546 68.3854 98.325 69.0519 97.0383 69.5989C94.8371 70.5348 92.5748 71.2659 90.1968 71.6015C89.4347 71.7091 89.4192 71.7141 89.5002 70.9212C89.5991 70.093 89.5644 69.2543 89.3976 68.4371C89.2899 67.9483 89.3876 67.7817 89.9265 67.7833C91.5034 67.7879 93.0594 67.6229 94.571 67.1115C99.484 65.4493 101.632 59.6721 98.854 55.4844C97.8477 53.9676 96.396 53.06 94.5977 52.7598C93.9243 52.6455 93.2324 52.7825 92.6534 53.145C91.8275 53.6411 90.8437 53.6459 89.937 53.8948C89.6329 53.9783 89.1822 54.2646 89.0106 54.0112C88.8036 53.7056 89.1087 53.2792 89.3004 52.9621C90.1595 51.5406 91.4444 50.6567 93.0314 50.2597C97.8434 49.0561 102.469 52.0726 103.343 56.956C103.442 57.5086 103.529 58.0645 103.591 58.6223C103.66 59.1191 103.679 59.6215 103.648 60.1221V60.1221Z" fill="#A7B9CC"/>
<path d="M85.5039 81.0536C83.7433 81.7815 82.0474 82.6572 80.4345 83.6713C80.2057 83.8178 79.9694 83.7823 79.7363 83.6352C77.6004 82.2874 75.2642 81.3212 73.0487 80.1253C72.3175 79.7306 71.6225 79.2695 70.9052 78.8485C70.5559 78.6434 70.5977 78.5047 70.9556 78.3877C72.6854 77.8223 74.415 77.2565 76.1446 76.6905C76.2289 76.659 76.3192 76.6472 76.4088 76.6558C76.4983 76.6645 76.5847 76.6935 76.6614 76.7405C78.0458 77.5771 79.4802 78.3279 80.9565 78.9889C82.4355 79.6391 83.8995 80.3233 85.5039 81.0536Z" fill="#5DC0F8"/>
<path d="M79.9009 86.8488C79.9009 87.4789 79.8894 88.1092 79.9049 88.7389C79.915 89.1485 79.8451 89.2714 79.4319 89.0185C76.8368 87.4304 74.3164 85.7274 71.758 84.0837C70.7819 83.4566 70.3752 82.722 70.4071 81.609C70.4269 80.9162 70.3059 80.22 70.2618 79.5245C70.2382 79.152 70.3093 78.925 70.741 79.2306C73.3816 81.0994 76.3331 82.42 79.1536 83.971C79.7127 84.2785 79.986 84.6383 79.907 85.2972C79.8458 85.8076 79.8948 86.3311 79.8948 86.8488L79.9009 86.8488Z" fill="#21A2F8"/>
<path d="M94.006 62.9389C92.0841 62.205 90.3059 61.449 88.5658 60.6056C88.0087 60.3356 87.6201 59.967 87.7332 59.2463C87.8965 58.2059 87.4569 57.2062 87.465 56.1682C87.469 55.6501 87.5075 55.4868 88.0836 55.7583C89.8475 56.5893 91.7113 57.1613 93.5814 57.7032C93.7935 57.7647 93.9676 57.7867 93.9645 58.063C93.9467 59.6686 93.861 61.2733 94.006 62.9389Z" fill="#14456B"/>
<path d="M80.4357 86.5658C80.4357 85.9806 80.4589 85.3942 80.4282 84.8106C80.4051 84.3726 80.5482 84.0988 80.9528 83.9022C82.5486 83.127 84.1317 82.3257 85.7224 81.5397C86.1495 81.3287 86.4092 81.3221 86.409 81.9522C86.4087 83.1022 86.0406 84.2122 86.102 85.3677C86.1233 85.7695 85.6983 85.8999 85.4231 86.0481C84.2597 86.6748 83.1033 87.3111 82.0012 88.0415C81.6307 88.287 81.2747 88.5543 80.9051 88.801C80.5707 89.0242 80.4285 88.9268 80.4377 88.5238C80.4527 87.8715 80.4417 87.2185 80.4417 86.5658H80.4357Z" fill="#14456B"/>
<path d="M94.2844 60.2819C94.2844 59.5843 94.2968 58.8864 94.2788 58.1892C94.2707 57.8727 94.3697 57.729 94.69 57.6243C95.8603 57.2418 97.0196 56.8238 98.1745 56.3962C98.5037 56.2743 98.6824 56.3532 98.798 56.6653C99.3061 58.0371 99.501 59.4282 99.0885 60.8653C99.0606 60.9961 98.9993 61.1174 98.9105 61.2174C98.8217 61.3174 98.7085 61.3927 98.5819 61.4358C97.3666 61.8947 96.1525 62.3581 94.9512 62.852C94.4167 63.0718 94.2331 62.9714 94.2702 62.3737C94.3135 61.6789 94.2803 60.9794 94.2803 60.2819L94.2844 60.2819Z" fill="#21A2F8"/>
<path d="M87.7188 54.9037C89.1214 54.577 90.4661 54.2465 91.8192 53.9547C92.6986 53.7651 93.5321 53.4121 94.4268 53.2741C94.7101 53.2081 95.0064 53.2247 95.2807 53.3219C96.3941 53.7671 97.3702 54.4986 98.11 55.4424C98.3402 55.738 98.3226 55.8547 97.9312 55.981C96.7011 56.3777 95.481 56.8049 94.271 57.2624C93.8301 57.4289 93.4356 57.2836 93.1034 57.1187C91.7834 56.4632 90.3814 56.0567 88.985 55.6218C88.5431 55.4842 88.0974 55.3167 87.7188 54.9037Z" fill="#5DC0F8"/>
<path d="M104.217 53.9542V55.6263C103.763 55.2069 103.712 54.7156 103.5 54.3151C103.727 54.2008 103.954 54.0865 104.217 53.9542Z" fill="#21A2F8"/>
<path d="M103.912 53.6204C103.234 54.0516 103.227 54.049 102.941 53.3306C103.274 53.3304 103.538 53.4882 103.912 53.6204Z" fill="#87A0C0"/>
<path d="M66.6463 74.1527C66.6207 74.168 66.5932 74.1798 66.5645 74.1879C66.555 74.1897 66.5399 74.1614 66.5273 74.1469C66.553 74.1318 66.5803 74.1198 66.6088 74.1112C66.6181 74.1094 66.6334 74.1377 66.6463 74.1527Z" fill="#FDFDFD"/>
<path d="M62.7311 46.3338C62.8474 46.2326 62.9637 46.1314 63.0799 46.0303C63.4619 45.8332 63.8438 45.6361 64.2257 45.4391C64.4234 45.421 64.6215 45.4028 64.8305 45.3837C64.6167 46.073 64.8686 46.5726 65.4839 46.7246C66.1203 46.8818 66.5695 46.5621 66.7111 45.8513C67.9883 46.4182 68.5132 48.1926 67.8209 49.6029C67.0028 51.2694 64.8235 51.9515 63.1922 51.0517C62.1301 50.4657 61.6772 48.9602 62.1151 47.5216C62.2495 47.0927 62.458 46.6907 62.7311 46.3338V46.3338Z" fill="#FDFDFD"/>
</g>
<defs>
<clipPath id="clip0">
<rect width="140" height="90" fill="white"/>
</clipPath>
</defs>
</svg>
