<?xml version="1.0" encoding="utf-8"?>
<!-- Generator: Adobe Illustrator 26.0.2, SVG Export Plug-In . SVG Version: 6.00 Build 0)  -->
<svg version="1.1" id="Layer_1" xmlns="http://www.w3.org/2000/svg" xmlns:xlink="http://www.w3.org/1999/xlink" x="0px" y="0px"
	 viewBox="0 0 70.8 90" style="enable-background:new 0 0 70.8 90;" xml:space="preserve">
<style type="text/css">
	.st0{fill:#A7B9CC;}
	.st1{fill:#121316;}
	.st2{fill:#708192;}
	.st3{fill:#14456B;}
	.st4{fill:#87A0C0;}
	.st5{fill:#FDFDFD;}
	.st6{fill:#21A2F8;}
	.st7{fill:#5DC0F8;}
</style>
<g>
	<g>
		<path class="st0" d="M11.5,75.6c-0.6-0.5-1.4-0.7-2-1.1c-0.1-0.6-0.7-0.5-1.1-0.7c-1.1-0.4-2.1-0.1-2.6,0.8
			c-0.5,0.7-0.3,1.7,0.5,2.6c0.5,0.5,1.1,0.9,1.6,1.4c0.6,0.6,0.8,1.1,0.4,1.8C8,81,7.5,81.2,6.6,81.2C5.1,81,4.1,80,3.3,78.9
			c-2.8-3.8,0.5-8.3,3.5-8.7c1.8-0.2,3.3,0.4,4.8,1.2c1.6,0.9,3.1,2.1,4.7,2.9c2.3,1.2,4.7,1.7,7.3,1c2.5-0.6,3.6-2.1,3.7-4.6
			c0-2.1-0.5-4.2-0.9-6.3c-0.3-1.8,0.1-3.3,1.4-4.6c1.5-1.5,3.3-2.5,5.6-2.4c-0.1,0-0.1-0.1-0.2-0.1c-3.9-0.5-8,3.3-7.7,7.1
			c0,0.6-0.2,0.9-0.6,1.2c-2.4,1.5-5,2.1-7.7,2.6c-3.5,0.7-6.9,0.2-10-1.8c-1.6-1.1-2.8-2.5-2.9-4.6c-0.2-3.3,0.5-6.5,2.2-9.4
			c0.4-0.7,0.8-1.4,1.1-2.1c0.1-0.2,0.3-0.4,0-0.6C7.7,49.5,8.1,49.4,8,49c0.1,0,0.2,0,0.3,0.1s0.1,0.1,0.2,0.2
			c0.5,0.8,1.1,1.4,1.7,2.1c-0.9,1.6-1.7,3.3-2.1,5.2c-0.3,1.5-0.2,3,0.7,4.4c1.4,2.1,3.5,2.9,5.8,3.1c4,0.4,7.5-0.8,10.5-3.6
			c2.4-2.3,3-5.2,1.4-8.1c-0.7-1.3-1.6-2.5-2.5-3.6c-1.4-1.8-2.9-3.6-4-5.7c-2.2-4.3-2-8.6-0.1-13c0,0,0.1,0.1,0.1,0.1
			c0.4,1.8,1.5,2.4,3.2,1.8c2.5-0.9,4.2-2.8,4.9-5.3c0.4-1.5,0.1-2.9-1.4-3.4c-0.1,0-0.2-0.2-0.3-0.3c1.2-0.8,2.7-1.3,4.1-1.7
			c3.2-0.8,6.6-0.9,9.9-0.2c3.9,0.8,7.5,2.7,10.4,5.4c1.8,1.7,3.2,3.6,3.9,6c0.9,3.4,0.6,6.6-0.9,9.7c-1.4,2.9-3.5,5.2-6.1,7.1
			c-2,1.5-4,3.1-5.4,5.3c-0.6,0.9-1.1,1.9-1.4,3.1c0.5-0.4,0.6-0.9,0.9-1.2c0.5,0.1,0.7-0.4,1.1-0.5c2.1-0.8,4.3-0.7,6.4-0.2
			c-0.7,0.6-1.3,1.3-1.9,1.9c-0.5,0.5-1.2,0.9-1.6,1.6l0,0c-0.1-0.1-0.1-0.1-0.2,0l-0.5,0.5c-0.7,0.5-2.2,0.7-2.8,0.3
			c0.3,0.5,0.1,0.7-0.2,1c-0.6,0.5-0.9,1.1-1.1,1.8c-0.4,1.5,0.6,2.5,1.8,3c1,0.5,1.7,0.1,2.4-1.3c0.2-0.4,0.3-0.1,0.4,0
			c0,0.2,0,0.3,0.1,0.4c0.4,1.1,0.7,2.2,0.5,3.4c-0.1,0.7-0.3,1.4-0.4,2c-0.1,0-0.1,0-0.2,0c-4.4-0.7-7.3-4.1-7.4-8.5
			c0-0.3,0.1-0.6-0.2-0.8c-0.1,0.6-0.1,1.2-0.2,1.8l0,0c-0.2,0.1-0.4,0.3-0.5,0.6c-0.6,1.1-0.9,2.4-1.1,3.7c-0.1,0.6-0.3,1-1,1.2
			c-0.4,0.1-0.6,0.5-0.8,0.9c-0.5,1-0.1,2.2,1,2.6c0.7,0.2,1.2-0.2,1.7-0.3c0.1,0.2,0.2,0.3,0.4,0.5c1.2,1.7,2.8,2.9,4.9,3.1
			c1.6,0.2,3.1-0.2,4.5-0.9c1.2-0.5,2.2-1.4,2.9-2.4c1.2-1.8,1.3-3.6,0.2-5.5c-1.1-1.7-2.5-3-4.6-3.4c-0.3-0.1-0.7-0.3-0.9,0.2
			c0.1,0.1,0.1,0.3,0.2,0.4c0.4,1.2-0.4,2.3-1.5,2.2c-1.5-0.2-2.3-1.8-1.6-3.2c0.7-1.3,1.8-1.7,3.1-1.7c2.4,0,4.4,1,6.2,2.3
			c4,2.7,4.5,7.6,2.7,11.1c-1.1,2.1-2.9,3.2-5,4.1c-0.2,0.1-0.4,0.1-0.5,0.1c-0.2,0-0.4,0-0.5-0.1c-1.5-0.7-3-1.4-4.5-2
			c-0.3-0.1-0.7-0.2-1.1-0.1c-1.3,0.2-2.5,0.8-3.8,1.2c-0.4,0.1-0.7,0.1-1-0.2c-1.9-1.3-3.2-3.3-4.3-5.3c-0.5-1-0.9-2.1-0.9-3.3
			c0.9,0,1.7-0.5,2.3-1.1c1.7-1.5,1.2-3.8-0.4-4.7c-0.4-0.3-0.9-0.1-1.3-0.4c0.2-0.6,0.6-1,0.9-1.5c-0.8,0.2-1.1,0.4-1.3,0.8l0,0
			c-0.1-0.2-0.2,0-0.3,0c-1.2,0.8-2,1.9-2.2,3.3c-0.2,1.2,0,2.4,0.3,3.5c0.5,2.2,1.1,4.3,1.3,6.5c0.1,2.2-0.9,3.7-2.6,4.9
			c-2.8,1.8-5.7,1.7-8.7,0.6c0.3-0.1,0.4-0.4,0.4-0.7c0.1-1.5-1.4-3.7-3.4-4c-1.4-0.3-2.7,0.3-2.6,1.9c-0.7-0.5-1.3-1-2-1.4
			c-0.2-0.1-0.3-0.4-0.6-0.3l0,0c0.1-0.2,0-0.2-0.1-0.1l0,0c0.1-0.2,0-0.2-0.1-0.1l0,0C11.7,75.7,11.6,75.7,11.5,75.6z M29,45.9
			c-0.1,0.1-0.2,0.1-0.3,0.2c-1.1,1.1-1.3,2.5-0.9,3.9c0.4,1.3,1.9,2.1,3.7,1.8c1.4-0.2,2.5-1,3-2.4c0.5-1.3,0.2-2.5-0.8-3.5
			c-1-1-2.3-1.2-3.6-0.7C29.7,45.4,29.3,45.6,29,45.9z M37.6,46.4c0,0.2,0,0.2-0.2,0.2c-0.4,0-0.8,0.2-1.1,0.4
			c-1.4,0.7-1.9,3.2-1,4.7c0.8,1.2,2.7,1.7,4.3,1c1.5-0.6,2.5-2.1,2.3-3.7c-0.2-1.4-1.3-2.6-2.8-2.9C38.6,46.1,38.1,46,37.6,46.4
			L37.6,46.4z M31.4,26.9c1.8,0,3-0.7,4-1.9c0.5-0.6,0.6-1.2,0.2-1.9c-0.4-0.7-0.9-0.9-1.7-1c-1.6-0.1-2.7,0.8-3.6,2
			c-0.4,0.6-0.7,1.2-0.4,1.9c0.1,0.3,0.3,0.5,0.6,0.7C30.7,26.9,31.1,26.9,31.4,26.9L31.4,26.9z"/>
		<path class="st1" d="M19.9,30.2c-1.9,4.4-2,8.7,0.1,13c1.1,2.1,2.6,3.8,4,5.7c0.9,1.2,1.8,2.3,2.5,3.6c1.5,2.9,1,5.8-1.4,8.1
			c-3,2.8-6.5,4-10.5,3.6c-2.3-0.2-4.5-1-5.8-3.1c-0.9-1.4-1-2.8-0.7-4.4c0.3-1.9,1.2-3.5,2.1-5.2c0.6-0.8,1.1-1.6,1.5-2.4
			c0.8-1.5,0.6-3-0.2-4.5c-0.2-0.3-0.4-0.4-0.7-0.2c-0.6,0.3-1.2,0.5-1.8,0.8c-0.8,0.4-1.5,0.2-2.2-0.2c-1-0.7-2-1.3-3.1-1.8
			c-0.8-0.5-1.3-1.1-1.3-2.2c0-0.9-0.1-1.7-0.2-2.6c0-0.3,0.2-0.9-0.2-0.9c-0.4-0.1-0.6,0.4-0.8,0.7C1.1,38.4,1,38.7,0.9,39
			c-0.3,0.9-0.2,1.8-0.1,2.7c0.2,1,0.6,1.7,1.6,2.1c0.7,0.3,1.5,0.5,2.2,0.7C5,44.7,5.3,44.8,5.6,45c1.3,0.8,2.6,1.6,2.5,3.4
			c-0.8-1.7-2.2-2.5-3.9-3c-0.7-0.2-1.5-0.5-2.1-0.8c-1.2-0.6-1.8-1.6-1.9-3c-0.1-1.4-0.1-2.8,0.9-3.9C1.2,37.4,1.5,37,2.1,37
			c0,0,0.1,0,0.1,0c0,0,0.1,0,0.1-0.1s0-0.1,0-0.1c0,0,0-0.1,0-0.1C2.2,36.2,2.6,36,3,35.9c2.1-0.9,4.4-1.5,6.6-2.2
			c0.7-0.2,1.5-0.2,2.2,0.1c1.3,0.5,2.7,0.9,4,1.5c0.6,0.3,0.8,0.5,0.8,1.3c-0.1,1.3-0.1,2.7-0.1,4c0,0.5-0.1,0.9-0.7,1.2
			c-1.2,0.7-2.4,1.3-3.7,2c-0.3,0.2-0.5,0.2-0.2,0.7c1,1.6,1.1,3.3,0.2,5.1c-0.8,1.6-1.8,3.1-2.5,4.8c-0.5,1.3-0.7,2.6-0.7,4
			c0.1,1.9,1.6,3.7,3.6,4.3c3.1,1,6.1,0.6,9-0.8c1.6-0.8,3-1.8,4.2-3.1c1.2-1.3,1.5-2.8,0.9-4.5c-0.6-1.8-1.8-3.1-3-4.5
			c-1.4-1.8-3.1-3.4-4.3-5.4c-1.7-2.8-2.4-5.9-2-9.2c0.4-4,2-7.4,4.7-10.3c2.4-2.5,5.3-3.9,8.6-4.7c4-0.9,8.2-0.7,12.2,0.5
			c0.1,0,0.2,0,0.3,0.1c0,0,0,0,0.1-0.1c-0.8-1.7-1-3.5-0.2-5.4c0.8-1.9,2.5-2.6,4.5-3c-0.7-0.4-1.2-0.8-1.8-1.2
			c-0.1-0.1-0.2-0.1-0.3-0.2C43.8,10.1,43,9,43.4,7c0.3-1.1,0.3-2.3,0.6-3.5c0.2-1,0.8-1.6,1.8-1.8C47.9,1.4,49.9,1,52.1,1
			c0.6,0,1.2,0.2,1.8,0.5c0.3,0.2,0.5,0.2,0.7-0.1c1.2-1.5,4.1-1.9,5.7-0.7c1.9,1.4,3,3.2,3.3,5.6c0.2,1.7-0.6,3-1.7,4.2
			c-0.4,0.4-0.7,0.8-0.7,1.4c0,0.4-0.2,0.6-0.6,0.8c-2.2,0.8-4.5,1.4-6.8,1.8c-0.7,0.2-1.4,0.6-2.2,0.1c-0.3-0.2-0.5,0.3-0.8,0.4
			c-1.4,0.9-2.2,2.1-2,3.8c-0.1,0-0.1,0-0.2,0c-0.6-2.2,0.6-3.5,2.2-4.7c-0.8-0.5-1.6-0.9-2.4-1.4c-0.1,0-0.2-0.1-0.2-0.1
			c-0.1,0-0.2,0-0.3,0c-1.9,0.4-3.8,2.1-4.2,4c-0.2,1.2-0.2,2.5,0.2,3.7c0,0.2,0.1,0.3,0.2,0.4c0.1,0.1,0.3,0.2,0.4,0.3
			c0.8,0.3,1.6,0.7,2.4,1.2c3.8,2.1,6.8,4.8,8.6,8.8c0.6,1.7,0.9,3.4,0.9,5.1c0,3.2-1,6.1-2.8,8.8c-1,1.5-2.2,2.8-3.5,3.9
			c-1.8,1.5-3.7,2.9-5.5,4.4c-1.1,0.9-2.1,1.9-2.8,3.1c-0.3,0.3-0.4,0.8-0.9,1.2c0.3-1.2,0.8-2.1,1.4-3.1c1.3-2.2,3.4-3.8,5.4-5.3
			c2.5-1.9,4.7-4.2,6.1-7.1c1.5-3.1,1.8-6.4,0.9-9.7c-0.6-2.5-2.1-4.3-3.9-6c-2.9-2.8-6.5-4.6-10.4-5.4c-3.3-0.7-6.6-0.6-9.9,0.2
			c-1.4,0.4-2.8,0.8-4.1,1.7C23.4,24.7,21.3,27.1,19.9,30.2z M44,8.4c-0.1,0.4,0.2,0.7,0.5,1c0.8,0.6,1.8,1.1,2.6,1.6
			c1.3,0.8,2.7,1.6,4,2.3c0.8,0.4,0.8,0.4,0.8-0.5c0.1-1.4,0.2-2.8,0.5-4.2c0.1-0.6,0-0.9-0.5-1.2c-2.3-1.4-4.5-2.8-6.8-4.2
			c-0.4-0.3-0.5,0-0.5,0.3C44.3,5.1,44.1,6.7,44,8.4L44,8.4z M61.3,7.3c0.1-0.8,0-0.9-0.6-0.8c-2.2,0.5-4.4,0.9-6.6,1.1
			c-0.6,0.1-0.9,0.3-1,0.9c-0.2,1.7-0.4,3.4-0.5,5.2c0,0.4,0.2,0.4,0.5,0.3c0.7-0.2,1.3-0.3,2-0.4c1.7-0.4,3.4-0.7,5.1-1.3
			c0.3-0.1,0.4-0.3,0.4-0.6c0.1-0.7,0.2-1.5,0.4-2.2C61.1,8.7,61,7.9,61.3,7.3z M45.2,2.4c0.1,0.1,0.2,0.2,0.3,0.2
			c2.3,1.5,4.6,2.9,7,4.3c0.4,0.2,0.9,0.3,1.3,0.2C55,7,56.3,6.8,57.6,6.6c0.9-0.2,1.9-0.3,2.9-0.5c-0.1-0.1-0.2-0.1-0.3-0.2
			c-2-1.1-4-2.1-5.9-3.3c-1.2-0.7-2.4-0.9-3.8-0.8c-1.2,0.1-2.4,0.3-3.5,0.5C46.4,2.3,45.8,2.2,45.2,2.4z M8.3,44.6
			c0.6-0.1,1-0.4,1.5-0.7c1.8-0.8,3.6-1.8,5.3-2.8c0.2-0.1,0.3-0.2,0.4-0.4c0.1-0.2,0.1-0.4,0.1-0.5c0-1,0-2,0-3
			c0-0.6-0.2-0.6-0.7-0.4c-2,0.8-3.9,1.8-6,2.5c-0.4,0.1-0.6,0.4-0.6,0.8C8.3,41.5,8.3,43,8.3,44.6z M3.2,36.4
			c1.6,0.8,3.1,1.6,4.6,2.4C7.9,38.9,8.1,39,8.2,39s0.3,0,0.4-0.1c1.7-0.7,3.3-1.4,5-2.1c0.5-0.2,1.1-0.4,1.7-0.8
			c-1.4-0.5-2.8-1.1-4.1-1.5c-0.6-0.2-1.2-0.3-1.8-0.1C7.4,35,5.3,35.6,3.2,36.4L3.2,36.4z M7.9,44.7c0.1-1.3-0.1-2.6,0.1-3.8
			C8.1,39.7,8,39.5,6.9,39c-0.1-0.1-0.2-0.1-0.3-0.2c-1.2-0.7-2.5-1.2-3.8-2c0.1,1.6,0.3,3,0.4,4.4c0,0.5,0.3,0.9,0.8,1.2
			C5.3,43.1,6.6,43.7,7.9,44.7L7.9,44.7z M57.3,0.6c-0.7-0.1-1.5,0.2-2.2,0.8c-0.4,0.3-0.5,0.5,0.1,0.8c2,1.1,4,2.2,6,3.3
			c0.5,0.3,0.7,0.6,0.7,1.1c0,0.7-0.1,1.3-0.2,2c0,0.1-0.1,0.3,0,0.4c0.2,0.1,0.3-0.1,0.3-0.2c0.1-0.3,0.3-0.6,0.4-0.9
			c0.7-2-0.2-3.6-1.2-5.2C60.4,1.2,59.1,0.6,57.3,0.6z"/>
		<path class="st1" d="M45.5,63.1c2.1,0.4,3.6,1.7,4.6,3.4c1.1,1.8,1,3.7-0.2,5.5c-0.7,1.1-1.7,1.9-2.9,2.4
			c-1.4,0.7-2.9,1.1-4.5,0.9c-2.1-0.3-3.7-1.4-4.9-3.1c-0.1-0.2-0.2-0.3-0.4-0.5c-0.7-1.3-1.1-2.8-1-4.3c0.2-1.3,0.4-2.5,1.1-3.7
			c0.1-0.2,0.2-0.4,0.5-0.6c-0.1,0.3-0.3,0.6-0.4,0.9c-0.6,1.4-0.9,2.8-0.6,4.3c0.5,3.6,4.2,7.1,8.6,5.6c1-0.4,2-0.8,2.8-1.7
			c-1.9-0.2-3.8-0.4-5.5-1.2c-1.9-0.8-3.3-2-4.1-3.9c-0.5-1.3-0.6-2.6-0.9-3.9c0.1-0.6,0.1-1.2,0.2-1.8c0.3,0.2,0.2,0.5,0.2,0.8
			c0.1,4.4,3,7.8,7.4,8.5c0.1,0,0.1,0,0.2,0c1,0.3,2.1,0.3,3.1,0.3c0.2,0,0.4-0.1,0.5-0.3c0.3-0.6,0.5-1.3,0.5-2
			c0-0.7-0.1-1.4-0.4-2c0-0.1-0.1-0.1-0.1-0.2c-0.1-0.1-0.1-0.1-0.2-0.1c-1.3-0.3-2.4-1-3.5-1.6c-0.1-0.1-0.2-0.4-0.4,0
			c-0.6,1.4-1.3,1.8-2.4,1.3c-1.2-0.5-2.2-1.5-1.8-3c0.2-0.7,0.5-1.3,1.1-1.8c0.3-0.3,0.5-0.5,0.2-1c0.6,0.4,2.1,0.2,2.8-0.3
			c0,0.2,0,0.4,0.3,0.3c4.2,0.5,7.4,2.4,9.3,6.2c0.2,0.4,0.4,0.5,0.8,0.5c2-0.1,4-0.2,5.8-1.2c1.4-0.8,2.6-1.9,3.3-3.5
			c-1.2,0.5-2.3,0.9-3.3,1.3c-0.8,0.3-1.5,0.4-2.4-0.1c-1.5-0.8-3-1.3-4.5-2c-1-0.5-1.5-1.1-1.4-2.2c0-1.2-0.2-2.4-0.1-3.6
			c0-0.6,0.2-1,0.9-1.1c0.5,0,0.7-0.3,0.8-0.7c1.3-2.9,4.6-4.7,8-4.3c2.3,0.3,4.1,1.3,5.6,3c0.4,0.5,1,0.5,1.5,0.6
			c1.2,0.3,1.2,0.3,1.2,1.5c0,1.8-0.1,3.5,0,5.3c0.2,2.2-0.4,4.4-1.5,6.2c-1,1.7-2.6,2.9-4.4,3.8c-2.8,1.4-5.9,2.2-9.1,2.2
			c-0.2,0-0.5-0.1-0.6,0.3c-0.9,2.9-3.4,5.5-6.6,6.4c0.8,0.4,1.6,0.8,2.3,1.2c0.2,0.1,0.4,0.2,0.6,0.3c1.9,0.9,1.5,0.5,1.5,2.6
			c0,0.9-0.1,1.8-0.2,2.7c0,0.1,0,0.3-0.1,0.4c-0.1,0.1-0.2,0.2-0.3,0.3c-1.9,1.2-3.9,2.4-5.8,3.5c-0.5,0.3-1,0.4-1.6,0
			c-2.4-1.6-4.9-3.1-7.3-4.8c-1.2-0.8-1.8-1.9-1.8-3.3c-0.1-0.8-0.2-1.5-0.1-2.3c0.1-0.6,0.3-1,0.9-1.2c0.2-0.1,0.4-0.2,0.6-0.3
			c-1.5-0.6-2.4-1.6-3.5-2.6c-0.3-0.2-0.5-0.5-0.7-0.7c-0.1-0.1-0.2-0.3-0.4-0.2c-0.2,0.1-0.1,0.3-0.1,0.5c0.1,0.9,0,1.7-0.2,2.6
			c-0.5,1.9-1.8,3.1-3.4,4C26,82.9,23,82.9,20,81.7c-2.5-1-4.7-2.5-6.7-4.3c-0.5-0.4-1-0.8-1.4-1.3c0.3-0.1,0.4,0.1,0.6,0.3
			c0.7,0.5,1.3,1,2,1.4c1.7,1.3,3.5,2.3,5.6,2.8c3,1.1,5.9,1.2,8.7-0.6c1.7-1.1,2.7-2.7,2.6-4.9c-0.1-2.2-0.7-4.4-1.3-6.5
			c-0.3-1.2-0.5-2.3-0.3-3.5c0.2-1.4,1.1-2.5,2.2-3.3c0.1-0.1,0.2-0.2,0.3,0c0,0.1-0.1,0.2-0.1,0.2c-1.8,1.4-2.1,3.3-1.6,5.4
			c0.1-1,0.4-2,0.7-3c0.4-1,0.9-1.9,1.5-2.7c-0.2-0.2-0.3,0.1-0.5,0.1c0.2-0.4,0.5-0.6,1.3-0.8c-0.3,0.5-0.7,1-0.9,1.5
			c-0.9,2-1,4.1-0.7,6.3c0,1.2,0.4,2.3,0.9,3.3c1.1,2,2.3,3.9,4.3,5.3c0.4,0.2,0.6,0.3,1,0.2c1.3-0.4,2.5-0.9,3.8-1.2
			c0.4-0.1,0.7,0,1.1,0.1c1.5,0.6,3,1.3,4.5,2c0.2,0.1,0.4,0.1,0.5,0.1c0.2,0,0.4,0,0.5-0.1c2.1-0.8,4-2,5-4.1
			C55.6,70.9,55,66,51,63.2c-1.9-1.3-3.9-2.3-6.2-2.3c-1.3,0-2.5,0.4-3.1,1.7c-0.7,1.4,0.1,3,1.6,3.2c1.1,0.2,1.9-1,1.5-2.2
			c-0.1-0.1-0.1-0.3-0.2-0.4c0.2-0.1,0.3,0.1,0.5,0.2c0.6,0.5,1.3,0.9,2,1.3c0.5,0.3,1,0.6,1.7,0.7c-0.5-0.6-1.1-1.1-1.7-1.5
			C46.5,63.7,46,63.4,45.5,63.1z M69.6,60.1c0-0.5,0-1-0.1-1.5c-0.1-0.6-0.1-1.1-0.2-1.7c-0.9-4.9-5.5-7.9-10.3-6.7
			c-1.6,0.4-2.9,1.3-3.7,2.7c-0.2,0.3-0.5,0.7-0.3,1c0.2,0.3,0.6,0,0.9-0.1c0.9-0.2,1.9-0.3,2.7-0.7c0.6-0.4,1.3-0.5,1.9-0.4
			c1.8,0.3,3.2,1.2,4.3,2.7c2.8,4.2,0.6,10-4.3,11.6c-1.5,0.5-3.1,0.7-4.6,0.7c-0.5,0-0.6,0.2-0.5,0.7c0.2,0.8,0.2,1.7,0.1,2.5
			c-0.1,0.8-0.1,0.8,0.7,0.7c2.4-0.3,4.6-1.1,6.8-2c1.3-0.5,2.5-1.2,3.6-2.1C68.8,65.6,69.6,63.1,69.6,60.1z M51.5,81.1
			c-1.6-0.7-3.1-1.4-4.5-2.1c-1.5-0.7-2.9-1.4-4.3-2.2c-0.1,0-0.2-0.1-0.3-0.1c-0.1,0-0.2,0-0.3,0c-1.7,0.6-3.5,1.1-5.2,1.7
			c-0.4,0.1-0.4,0.3-0.1,0.5c0.7,0.4,1.4,0.9,2.1,1.3c2.2,1.2,4.6,2.2,6.7,3.5c0.2,0.1,0.5,0.2,0.7,0C48,82.7,49.7,81.8,51.5,81.1z
			 M45.9,86.8L45.9,86.8c0-0.5-0.1-1,0-1.6c0.1-0.7-0.2-1-0.8-1.3c-2.8-1.6-5.8-2.9-8.4-4.7c-0.4-0.3-0.5-0.1-0.5,0.3
			c0,0.7,0.2,1.4,0.1,2.1c0,1.1,0.4,1.8,1.4,2.5c2.6,1.6,5.1,3.3,7.7,4.9c0.4,0.3,0.5,0.1,0.5-0.3C45.9,88.1,45.9,87.5,45.9,86.8z
			 M60,62.9c-0.1-1.7-0.1-3.3,0-4.9c0-0.3-0.2-0.3-0.4-0.4c-1.9-0.5-3.7-1.1-5.5-1.9c-0.6-0.3-0.6-0.1-0.6,0.4c0,1,0.4,2,0.3,3.1
			c-0.1,0.7,0.3,1.1,0.8,1.4C56.3,61.4,58.1,62.2,60,62.9L60,62.9z M46.4,86.6L46.4,86.6c0,0.7,0,1.3,0,2c0,0.4,0.1,0.5,0.5,0.3
			c0.4-0.2,0.7-0.5,1.1-0.8c1.1-0.7,2.3-1.4,3.4-2c0.3-0.1,0.7-0.3,0.7-0.7c-0.1-1.2,0.3-2.3,0.3-3.4c0-0.6-0.3-0.6-0.7-0.4
			c-1.6,0.8-3.2,1.6-4.8,2.4c-0.4,0.2-0.5,0.5-0.5,0.9C46.5,85.4,46.4,86,46.4,86.6z M60.3,60.3L60.3,60.3c0,0.7,0,1.4,0,2.1
			c0,0.6,0.1,0.7,0.7,0.5c1.2-0.5,2.4-1,3.6-1.4c0.1,0,0.2-0.1,0.3-0.2c0.1-0.1,0.2-0.2,0.2-0.4c0.4-1.4,0.2-2.8-0.3-4.2
			c-0.1-0.3-0.3-0.4-0.6-0.3c-1.2,0.4-2.3,0.8-3.5,1.2c-0.3,0.1-0.4,0.2-0.4,0.6C60.3,58.9,60.3,59.6,60.3,60.3z M53.7,54.9
			c0.4,0.4,0.8,0.6,1.3,0.7c1.4,0.4,2.8,0.8,4.1,1.5c0.3,0.2,0.7,0.3,1.2,0.1c1.2-0.5,2.4-0.9,3.7-1.3c0.4-0.1,0.4-0.2,0.2-0.5
			c-0.7-0.9-1.7-1.7-2.8-2.1c-0.3-0.1-0.6-0.1-0.9,0c-0.9,0.1-1.7,0.5-2.6,0.7C56.5,54.2,55.1,54.6,53.7,54.9z M70.2,54
			c-0.3,0.1-0.5,0.2-0.7,0.4c0.2,0.4,0.3,0.9,0.7,1.3V54z M69.9,53.6c-0.4-0.1-0.6-0.3-1-0.3C69.2,54,69.2,54.1,69.9,53.6z
			 M32.6,74.2C32.6,74.1,32.6,74.1,32.6,74.2c-0.1,0-0.1,0-0.1,0C32.5,74.2,32.6,74.2,32.6,74.2C32.6,74.2,32.6,74.2,32.6,74.2
			L32.6,74.2z"/>
		<path class="st1" d="M7.8,49.9c0.3,0.2,0.1,0.4,0,0.6c-0.4,0.7-0.7,1.4-1.1,2.1c-1.7,2.9-2.4,6-2.2,9.4c0.1,2,1.2,3.5,2.9,4.6
			c3.1,2,6.4,2.4,10,1.8c2.7-0.5,5.3-1.1,7.7-2.6c0.5-0.3,0.7-0.6,0.6-1.2c-0.2-3.8,3.9-7.6,7.7-7.1c0.1,0,0.1,0,0.2,0.1
			c-2.3-0.1-4,0.9-5.6,2.4c-1.3,1.3-1.8,2.8-1.4,4.6c0.4,2.1,0.9,4.1,0.9,6.3c0,2.5-1.2,4-3.7,4.6c-2.6,0.6-5,0.1-7.3-1
			c-1.7-0.8-3.1-2-4.7-2.9c-1.5-0.8-3-1.4-4.8-1.2c-3,0.4-6.3,4.9-3.5,8.7C4.1,80,5.1,81,6.6,81.2C7.5,81.2,8,81,8.3,80.3
			c0.3-0.7,0.2-1.2-0.4-1.8c-0.5-0.5-1.1-0.8-1.6-1.4c-0.8-0.9-1-1.8-0.5-2.6c0.6-0.8,1.5-1.1,2.6-0.8c0.4,0.1,0.9,0.1,1.1,0.7
			C9,74.4,8.7,74.1,8.2,74c-0.7-0.1-1.5,0.2-1.8,0.7C6,75.4,6.3,76,6.7,76.5c0.4,0.6,1,0.9,1.6,1.3c1.1,0.8,1.3,1.4,1,2.7
			C9,81.5,8.2,82,7,82.1c-1.3,0.1-2.4-0.5-3.3-1.3c-1.9-1.8-2.9-3.9-2.2-6.6c0.8-3,4-5.3,7.1-4.9c1.7,0.2,3.2,1,4.7,1.9
			c1.9,1.2,3.8,2.4,5.9,3c1.5,0.4,3.1,0.4,4.6-0.1c1.6-0.5,2.4-2,2.2-4C26,69,25.8,68,25.7,66.9c0-0.5-0.2-0.4-0.5-0.3
			c-1.3,0.6-2.5,1.3-3.8,1.8c-2,0.7-4.1,1.1-6.2,1.3c-2.5,0.2-5.1-0.3-7.4-1.4c-3-1.5-4.6-3.8-4.4-7.4c0.2-3.5,1.5-6.6,3.5-9.4
			C7.2,51,7.5,50.4,7.8,49.9L7.8,49.9z"/>
		<path class="st1" d="M45.8,59.5c0.3-0.7,1-1.1,1.6-1.6c0.6-0.7,1.3-1.3,1.9-1.9c1.2-1.1,2.3-2.3,3.4-3.4c2.3-2.5,4.4-5.1,5.8-8.3
			c1.2-2.9,1.6-5.9,0.9-8.9c-0.5-2.3-1.6-4.4-3-6.2c-1-1.4-2.1-2.6-3.2-3.9c-1.3-1.5-2.5-3-3.6-4.6c0.1-0.1,0.1-0.1,0.2-0.2
			c1.6,1.9,3.5,3.6,5.3,5.4c2.7,2.7,4.9,5.8,5.7,9.7c0.6,2.9,0.4,5.7-0.7,8.4c-0.9,2.4-2.4,4.4-4.1,6.3c-3,3.4-6.4,6.4-9.8,9.3
			C45.9,59.6,45.8,59.5,45.8,59.5z"/>
		<path class="st2" d="M3.8,43.1c1.1,0.5,2.1,1.1,3.1,1.8c0.7,0.5,1.4,0.6,2.2,0.2c0.6-0.3,1.2-0.5,1.8-0.8c0.3-0.2,0.5-0.1,0.7,0.2
			c0.8,1.5,1,3,0.2,4.5c-0.4,0.9-1,1.7-1.5,2.4c-0.6-0.7-1.3-1.3-1.7-2.1c0-0.1-0.1-0.2-0.2-0.2C8.2,49.1,8.1,49.1,8,49
			c0-0.2,0-0.4,0-0.7c0.1-1.8-1.1-2.6-2.5-3.4c-0.3-0.1-0.6-0.3-0.9-0.4C4.5,44,3.9,43.7,3.8,43.1z"/>
		<path class="st3" d="M49.7,20.4c-0.1,0.1-0.1,0.1-0.2,0.2c-0.4-0.5-0.8-1-0.9-1.6c0.1,0,0.1,0,0.2,0C49,19.5,49.3,19.9,49.7,20.4z
			"/>
		<path class="st3" d="M45.4,60.2c-0.3,0.1-0.3-0.1-0.3-0.3c0.2-0.2,0.3-0.3,0.5-0.5c0,0.1,0.1,0.1,0.1,0.2
			C45.8,59.9,45.2,59.8,45.4,60.2z"/>
		<path class="st1" d="M45.8,59.6c0-0.1-0.1-0.1-0.1-0.2c0.1-0.1,0.1-0.1,0.2,0C45.8,59.5,45.8,59.6,45.8,59.6
			C45.8,59.6,45.8,59.6,45.8,59.6z"/>
		<path class="st1" d="M11.7,75.8c0.1,0,0.2,0,0.1,0.1c0,0-0.1,0-0.1,0C11.7,75.9,11.7,75.9,11.7,75.8L11.7,75.8z"/>
		<path class="st1" d="M11.8,76c0.1,0,0.2,0,0.1,0.1C11.9,76.1,11.8,76,11.8,76z"/>
		<path class="st1" d="M11.5,75.6c0.1,0.1,0.2,0.1,0.1,0.2C11.6,75.8,11.5,75.7,11.5,75.6z"/>
		<path class="st2" d="M56.3,29c1.5,1.8,2.5,4,3,6.2c0.7,3,0.4,6-0.9,8.9c-1.4,3.2-3.5,5.8-5.8,8.3c-1.1,1.2-2.2,2.4-3.4,3.4
			c-2.2-0.6-4.3-0.7-6.4,0.2c-0.4,0.1-0.6,0.6-1.1,0.5c0.7-1.2,1.7-2.3,2.8-3.1c1.9-1.4,3.7-2.8,5.5-4.4c1.3-1.2,2.5-2.4,3.5-3.9
			c1.8-2.7,2.8-5.6,2.8-8.8c0-1.8-0.3-3.5-0.9-5.1C55.9,30.5,56,29.7,56.3,29z"/>
		<path class="st4" d="M19.9,30.2c1.3-3.1,3.5-5.6,6.5-7.2c0.1,0.1,0.2,0.2,0.3,0.3c1.6,0.6,1.9,2,1.4,3.4c-0.7,2.5-2.4,4.4-4.9,5.3
			c-1.7,0.6-2.8,0-3.2-1.8C20,30.3,20,30.3,19.9,30.2z"/>
		<path class="st5" d="M36.3,47c0.3-0.2,0.7-0.4,1.1-0.4c0.2,0,0.2-0.1,0.2-0.2c0.3,0,0.5,0.1,0.4,0.4c-0.1,0.3,0,0.6,0.3,0.8
			c0.1,0.1,0.3,0.2,0.5,0.3c0.2,0.1,0.4,0.1,0.5,0c0.5-0.1,0.7-0.4,0.8-1c1.8,1.3,1.8,3.7,0.1,5c-1,0.7-2.7,0.8-3.7,0.2
			c-1.1-0.7-1.2-1.8-1.1-3C35.3,48.3,35.8,47.7,36.3,47z"/>
		<path class="st4" d="M31.3,26.9c-0.3,0.1-0.6,0-0.9-0.1c-0.3-0.2-0.5-0.4-0.6-0.7c-0.3-0.7-0.1-1.3,0.4-1.9c0.9-1.2,2-2.1,3.6-2
			c0.7,0,1.3,0.3,1.7,1c0.4,0.7,0.2,1.3-0.2,1.9C34.4,26.1,33.2,26.9,31.3,26.9z"/>
		<path class="st2" d="M45.5,64.7c1.1,0.7,2.2,1.4,3.5,1.6c0.1,0,0.1,0.1,0.2,0.1c0.1,0.1,0.1,0.1,0.1,0.2c0.3,0.6,0.4,1.3,0.4,2
			s-0.2,1.4-0.5,2c-0.1,0.2-0.2,0.3-0.5,0.3c-1-0.1-2.1,0-3.1-0.3c0.1-0.7,0.3-1.3,0.4-2c0.1-1.2-0.1-2.3-0.5-3.4
			C45.6,65,45.5,64.9,45.5,64.7z"/>
		<path class="st4" d="M20.1,80.6c-2.1-0.5-3.9-1.5-5.6-2.8c-0.1-1.6,1.2-2.1,2.6-1.9c1.9,0.3,3.5,2.5,3.4,4
			C20.4,80.3,20.4,80.5,20.1,80.6z"/>
		<path class="st4" d="M31.9,68.8c-0.3-2.1-0.3-4.2,0.7-6.3c0.4,0.3,0.9,0.2,1.3,0.4c1.6,1,2.1,3.2,0.4,4.7
			C33.6,68.3,32.9,68.8,31.9,68.8z"/>
		<path class="st1" d="M36.3,47c-0.5,0.6-0.9,1.2-1,2.1c-0.1,1.2,0,2.3,1.1,3c1,0.6,2.7,0.5,3.7-0.2c1.7-1.3,1.7-3.7-0.1-5
			c0,0.5-0.3,0.9-0.8,1c-0.2,0-0.4,0-0.5,0c-0.2-0.1-0.3-0.1-0.5-0.3c-0.2-0.2-0.4-0.4-0.3-0.8c0.1-0.3-0.1-0.4-0.4-0.4
			c0.5-0.3,1-0.3,1.5-0.2c1.4,0.2,2.6,1.5,2.8,2.9c0.2,1.5-0.8,3.1-2.3,3.7c-1.6,0.7-3.5,0.2-4.3-1C34.4,50.3,34.9,47.7,36.3,47z"/>
		<path class="st1" d="M30.1,45.3c1.4-0.5,2.6-0.3,3.6,0.7c1,1,1.2,2.2,0.8,3.5c-0.5,1.4-1.6,2.2-3,2.4c-1.8,0.3-3.3-0.5-3.7-1.8
			c-0.4-1.5-0.2-2.8,0.9-3.9c0,0.1,0,0.2,0,0.2c-0.3,0.4-0.5,0.8-0.6,1.2c-0.4,1.4,0,2.9,1.1,3.5c1.6,0.9,3.8,0.2,4.6-1.4
			c0.7-1.4,0.2-3.2-1.1-3.8c-0.1,0.7-0.6,1-1.2,0.9c-0.6-0.2-0.9-0.7-0.7-1.3c-0.2,0-0.4,0-0.6,0.1C30.2,45.4,30.1,45.3,30.1,45.3z"
			/>
		<path class="st4" d="M36.3,67.3c-0.1,1.5,0.2,3,1,4.3c-0.6,0.1-1.1,0.5-1.7,0.3c-1.1-0.4-1.5-1.5-1-2.6c0.2-0.4,0.4-0.8,0.8-0.9
			C36,68.4,36.2,67.9,36.3,67.3z"/>
		<path class="st3" d="M30.1,45.3c0.1,0,0.1,0.1,0.2,0.1c-0.4,0.2-0.8,0.4-1.1,0.6L29,45.9C29.3,45.6,29.7,45.4,30.1,45.3L30.1,45.3
			z"/>
		<path class="st3" d="M28.7,46.3c0-0.1,0-0.2,0-0.2c0.1-0.1,0.2-0.1,0.3-0.2c0,0,0.1,0.1,0.1,0.1C29,46.1,28.8,46.2,28.7,46.3z"/>
		<path class="st0" d="M56.3,29c-0.4,0.7-0.4,1.5-0.8,2.2c-1.8-4-4.8-6.8-8.6-8.8c-0.8-0.4-1.6-0.8-2.4-1.2
			c-0.2-0.1-0.3-0.1-0.4-0.3c-0.1-0.1-0.2-0.3-0.2-0.4c-0.3-1.2-0.4-2.5-0.2-3.7c0.4-1.9,2.3-3.7,4.2-4c0.1,0,0.2,0,0.3,0
			c0.1,0,0.2,0,0.2,0.1c0.8,0.5,1.6,0.9,2.4,1.4c-1.6,1.2-2.8,2.6-2.2,4.7c0.1,0.6,0.5,1.1,0.9,1.6c1.1,1.6,2.3,3.1,3.6,4.6
			C54.2,26.4,55.4,27.6,56.3,29z"/>
		<path class="st6" d="M44,8.4c0.2-1.7,0.3-3.4,0.6-5c0.1-0.3,0.1-0.6,0.5-0.3c2.3,1.4,4.5,2.8,6.8,4.2c0.5,0.3,0.7,0.6,0.5,1.2
			C52.2,10,52,11.4,52,12.8c0,0.9-0.1,0.9-0.8,0.5c-1.3-0.7-2.7-1.5-4-2.3c-0.9-0.5-1.8-1-2.6-1.6C44.2,9.1,43.9,8.9,44,8.4z"/>
		<path class="st3" d="M61.3,7.3c-0.2,0.5-0.2,1.4-0.4,2.2c-0.2,0.7-0.3,1.4-0.4,2.2c0,0.3-0.1,0.5-0.4,0.6c-1.7,0.6-3.4,1-5.1,1.3
			c-0.7,0.1-1.3,0.3-2,0.4c-0.3,0.1-0.5,0.1-0.5-0.3c0.2-1.7,0.4-3.4,0.5-5.2c0.1-0.6,0.4-0.9,1-0.9c2.2-0.3,4.4-0.6,6.6-1.1
			C61.3,6.4,61.4,6.6,61.3,7.3z"/>
		<path class="st7" d="M45.2,2.4c0.6-0.3,1.1-0.2,1.7-0.3c1.2-0.2,2.4-0.3,3.5-0.5c1.4-0.2,2.6,0,3.8,0.8c1.9,1.2,3.9,2.2,5.9,3.3
			C60.3,5.9,60.4,6,60.4,6c-1,0.2-1.9,0.4-2.9,0.5C56.3,6.8,55,7,53.8,7.2c-0.4,0.1-0.9,0-1.3-0.2c-2.4-1.4-4.7-2.8-7-4.3
			C45.4,2.6,45.3,2.5,45.2,2.4L45.2,2.4z"/>
		<path class="st6" d="M8.3,44.6c0-1.6,0-3,0-4.5c0-0.5,0.2-0.7,0.6-0.8c2-0.7,4-1.7,6-2.5c0.5-0.2,0.7-0.2,0.7,0.4c0,1,0,2,0,3
			c0,0.2,0,0.4-0.1,0.5c-0.1,0.2-0.2,0.3-0.4,0.4c-1.7,1-3.5,2-5.3,2.8C9.3,44.1,8.9,44.5,8.3,44.6z"/>
		<path class="st7" d="M3.2,36.4c2.1-0.8,4.1-1.4,6.2-2c0.6-0.2,1.2-0.1,1.8,0.1c1.3,0.5,2.7,1,4.1,1.5c-0.6,0.4-1.1,0.6-1.7,0.8
			c-1.7,0.7-3.3,1.4-5,2.1C8.5,38.9,8.4,39,8.2,39c-0.2,0-0.3-0.1-0.4-0.1C6.3,38,4.8,37.2,3.2,36.4z"/>
		<path class="st3" d="M7.9,44.7c-1.3-0.9-2.6-1.6-3.9-2.4c-0.5-0.3-0.8-0.6-0.8-1.2c0-1.4-0.3-2.8-0.4-4.4c1.3,0.9,2.6,1.3,3.8,2
			C6.7,38.9,6.8,39,6.9,39C8,39.5,8.1,39.7,8,40.9C7.8,42.1,7.9,43.4,7.9,44.7z"/>
		<path class="st0" d="M57.3,0.6c1.8,0,3.1,0.7,4,2c1,1.6,1.9,3.2,1.2,5.2c-0.1,0.3-0.2,0.6-0.4,0.9c-0.1,0.1-0.1,0.3-0.3,0.2
			c-0.2-0.1,0-0.3,0-0.4c0.1-0.7,0.1-1.3,0.2-2c0-0.5-0.2-0.9-0.7-1.1c-2-1.1-4-2.2-6-3.3c-0.5-0.3-0.5-0.5-0.1-0.8
			C55.8,0.8,56.6,0.5,57.3,0.6z"/>
		<path class="st0" d="M3.8,43.1c0.1,0.6,0.7,0.9,0.8,1.5c-0.8-0.2-1.5-0.4-2.2-0.7c-0.9-0.4-1.4-1.2-1.6-2.1
			c-0.2-0.9-0.2-1.8,0.1-2.7c0.1-0.3,0.2-0.6,0.4-0.9c0.2-0.3,0.5-0.8,0.8-0.7c0.4,0.1,0.2,0.6,0.2,0.9c0.1,0.8,0.1,1.7,0.2,2.6
			C2.5,41.9,3,42.6,3.8,43.1z"/>
		<path class="st0" d="M69.6,60.1c-0.1,3-0.9,5.4-3,7.3c-1.1,0.9-2.3,1.6-3.6,2.1c-2.2,0.9-4.5,1.7-6.8,2c-0.8,0.1-0.8,0.1-0.7-0.7
			c0.1-0.8,0.1-1.7-0.1-2.5c-0.1-0.5,0-0.7,0.5-0.7c1.6,0,3.1-0.2,4.6-0.7c4.9-1.7,7.1-7.4,4.3-11.6c-1-1.5-2.5-2.4-4.3-2.7
			c-0.7-0.1-1.4,0-1.9,0.4c-0.8,0.5-1.8,0.5-2.7,0.7C55.6,54,55.2,54.3,55,54c-0.2-0.3,0.1-0.7,0.3-1c0.9-1.4,2.1-2.3,3.7-2.7
			c4.8-1.2,9.4,1.8,10.3,6.7c0.1,0.6,0.2,1.1,0.2,1.7C69.7,59.1,69.7,59.6,69.6,60.1L69.6,60.1z"/>
		<path class="st7" d="M51.5,81.1c-1.8,0.7-3.5,1.6-5.1,2.6c-0.2,0.1-0.5,0.1-0.7,0c-2.1-1.3-4.5-2.3-6.7-3.5
			c-0.7-0.4-1.4-0.9-2.1-1.3c-0.3-0.2-0.3-0.3,0.1-0.5c1.7-0.6,3.5-1.1,5.2-1.7c0.1,0,0.2,0,0.3,0c0.1,0,0.2,0,0.3,0.1
			c1.4,0.8,2.8,1.6,4.3,2.2C48.4,79.6,49.9,80.3,51.5,81.1z"/>
		<path class="st6" d="M45.9,86.8c0,0.6,0,1.3,0,1.9c0,0.4-0.1,0.5-0.5,0.3c-2.6-1.6-5.1-3.3-7.7-4.9c-1-0.6-1.4-1.4-1.4-2.5
			c0-0.7-0.1-1.4-0.1-2.1c0-0.4,0-0.6,0.5-0.3c2.6,1.9,5.6,3.2,8.4,4.7c0.6,0.3,0.8,0.7,0.8,1.3C45.8,85.8,45.9,86.3,45.9,86.8
			L45.9,86.8z"/>
		<path class="st3" d="M60,62.9c-1.9-0.7-3.7-1.5-5.4-2.3c-0.6-0.3-0.9-0.6-0.8-1.4c0.2-1-0.3-2-0.3-3.1c0-0.5,0-0.7,0.6-0.4
			c1.8,0.8,3.6,1.4,5.5,1.9c0.2,0.1,0.4,0.1,0.4,0.4C59.9,59.7,59.9,61.3,60,62.9z"/>
		<path class="st3" d="M46.4,86.6c0-0.6,0-1.2,0-1.8c0-0.4,0.1-0.7,0.5-0.9c1.6-0.8,3.2-1.6,4.8-2.4c0.4-0.2,0.7-0.2,0.7,0.4
			c0,1.2-0.4,2.3-0.3,3.4c0,0.4-0.4,0.5-0.7,0.7c-1.2,0.6-2.3,1.3-3.4,2c-0.4,0.2-0.7,0.5-1.1,0.8c-0.3,0.2-0.5,0.1-0.5-0.3
			C46.5,87.9,46.4,87.2,46.4,86.6L46.4,86.6z"/>
		<path class="st6" d="M60.3,60.3c0-0.7,0-1.4,0-2.1c0-0.3,0.1-0.5,0.4-0.6c1.2-0.4,2.3-0.8,3.5-1.2c0.3-0.1,0.5,0,0.6,0.3
			c0.5,1.4,0.7,2.8,0.3,4.2c0,0.1-0.1,0.3-0.2,0.4c-0.1,0.1-0.2,0.2-0.3,0.2c-1.2,0.5-2.4,0.9-3.6,1.4c-0.5,0.2-0.7,0.1-0.7-0.5
			C60.3,61.7,60.3,61,60.3,60.3L60.3,60.3z"/>
		<path class="st7" d="M53.7,54.9c1.4-0.3,2.7-0.7,4.1-0.9c0.9-0.2,1.7-0.5,2.6-0.7c0.3-0.1,0.6,0,0.9,0c1.1,0.4,2.1,1.2,2.8,2.1
			c0.2,0.3,0.2,0.4-0.2,0.5c-1.2,0.4-2.5,0.8-3.7,1.3c-0.4,0.2-0.8,0-1.2-0.1c-1.3-0.7-2.7-1.1-4.1-1.5
			C54.5,55.5,54.1,55.3,53.7,54.9z"/>
		<path class="st6" d="M70.2,54v1.7c-0.5-0.4-0.5-0.9-0.7-1.3C69.7,54.2,70,54.1,70.2,54z"/>
		<path class="st4" d="M69.9,53.6c-0.7,0.4-0.7,0.4-1-0.3C69.3,53.3,69.5,53.5,69.9,53.6z"/>
		<path class="st5" d="M32.6,74.2C32.6,74.2,32.6,74.2,32.6,74.2c-0.1,0-0.1,0-0.1,0C32.6,74.1,32.6,74.1,32.6,74.2
			C32.6,74.1,32.6,74.1,32.6,74.2z"/>
		<path class="st5" d="M28.7,46.3c0.1-0.1,0.2-0.2,0.3-0.3c0.4-0.2,0.8-0.4,1.1-0.6c0.2,0,0.4,0,0.6-0.1c-0.2,0.7,0,1.2,0.7,1.3
			c0.6,0.2,1.1-0.2,1.2-0.9c1.3,0.6,1.8,2.3,1.1,3.8c-0.8,1.7-3,2.3-4.6,1.4c-1.1-0.6-1.5-2.1-1.1-3.5
			C28.2,47.1,28.5,46.7,28.7,46.3L28.7,46.3z"/>
	</g>
</g>
</svg>
