<svg width="40" height="40" viewBox="0 0 40 40" fill="none" xmlns="http://www.w3.org/2000/svg">
<path d="M8.7487 3.33594C5.75715 3.33594 3.33203 5.76105 3.33203 8.7526V27.9193C3.33203 30.9108 5.75715 33.3359 8.7487 33.3359H21.1098V32.2248V31.1137L8.7487 31.1863C7.13786 31.1863 5.55425 29.5301 5.55425 27.9193V11.1137H31.3118V13.3515C32.1248 13.16 32.4905 13.2639 33.332 13.3515V8.7526C33.332 5.76105 32.081 3.33594 29.0895 3.33594H8.7487Z" fill="#FBFBFB"/>
<path d="M33.0917 15.0013C32.7327 14.9681 32.3734 14.9685 32.0181 15.0013C30.1966 15.1696 28.4821 16.1896 27.4979 17.8942C26.3167 19.94 26.5157 22.4038 27.8059 24.2078L22.7634 32.9415C22.6897 33.0692 22.6289 33.2007 22.5807 33.3347C22.1891 34.4207 22.6182 35.6642 23.6531 36.2617C24.8156 36.9328 26.3022 36.5345 26.9734 35.372L32.0252 26.622C34.2177 26.8185 36.4286 25.7593 37.6016 23.7275C38.8716 21.528 38.5461 18.8452 36.9844 17.0188L34.2337 21.7832C33.6967 22.7132 32.5076 23.0318 31.5776 22.4948C30.6476 21.9578 30.3289 20.7687 30.8659 19.8387L33.6166 15.0743C33.4421 15.0418 33.2669 15.0176 33.0917 15.0013Z" fill="#FBFBFB"/>
<path d="M25.2763 22.6262C24.993 21.4908 24.9733 20.2883 25.2448 19.1183L21.4308 15.2992C21.1056 14.9735 20.578 14.9731 20.2523 15.2984C19.9266 15.6236 19.9263 16.1512 20.2515 16.4769L24.6566 20.888L20.2515 25.2992C19.9263 25.6248 19.9266 26.1525 20.2523 26.4777C20.578 26.8028 21.1056 26.8025 21.4308 26.4768L25.2763 22.6262Z" fill="#FBFBFB"/>
<path d="M16.4279 16.4776C16.7535 16.1523 16.7538 15.6247 16.4285 15.2991C16.1033 14.9735 15.5756 14.9732 15.25 15.2984L10.2444 20.2985C10.0879 20.4548 10 20.6668 10 20.888C10 21.1092 10.0879 21.3213 10.2444 21.4777L15.25 26.4777C15.5756 26.8028 16.1033 26.8025 16.4285 26.477C16.7538 26.1513 16.7535 25.6237 16.4279 25.2985L12.0125 20.888L16.4279 16.4776Z" fill="#FBFBFB"/>
</svg>
