<svg width="24" height="24" viewBox="0 0 32 32" fill="none" xmlns="http://www.w3.org/2000/svg">
<path fill-rule="evenodd" clip-rule="evenodd" d="M10 6.50011C10 6.89793 9.84197 7.27946 9.56067 7.56077C9.27937 7.84207 8.89783 8.00011 8.50001 8.00011C8.10218 8.00011 7.72065 7.84207 7.43935 7.56077C7.15804 7.27946 7.00001 6.89793 7.00001 6.50011C7.00001 6.10228 7.15804 5.72075 7.43935 5.43945C7.72065 5.15814 8.10218 5.00011 8.50001 5.00011C8.89783 5.00011 9.27937 5.15814 9.56067 5.43945C9.84197 5.72075 10 6.10228 10 6.50011V6.50011ZM10 10.7441C11.0008 10.3903 11.8443 9.694 12.3815 8.77839C12.9186 7.86277 13.1147 6.78675 12.9352 5.74051C12.7557 4.69426 12.2121 3.74516 11.4005 3.06095C10.5889 2.37673 9.56154 2.00146 8.50001 2.00146C7.43848 2.00146 6.41112 2.37673 5.59952 3.06095C4.78792 3.74516 4.24432 4.69426 4.06482 5.74051C3.88531 6.78675 4.08145 7.86277 4.61856 8.77839C5.15568 9.694 5.99919 10.3903 7.00001 10.7441V12.5001C7.00001 13.6936 7.47412 14.8382 8.31803 15.6821C9.16194 16.526 10.3065 17.0001 11.5 17.0001H14.5V21.2561C13.4986 21.61 12.6546 22.3065 12.1171 23.2225C11.5796 24.1385 11.3833 25.215 11.5628 26.2618C11.7423 27.3086 12.2861 28.2582 13.0981 28.9428C13.9101 29.6274 14.9379 30.0029 16 30.0029C17.0621 30.0029 18.0899 29.6274 18.9019 28.9428C19.7139 28.2582 20.2577 27.3086 20.4372 26.2618C20.6167 25.215 20.4204 24.1385 19.8829 23.2225C19.3454 22.3065 18.5014 21.61 17.5 21.2561V17.0001H20.5C21.6935 17.0001 22.8381 16.526 23.682 15.6821C24.5259 14.8382 25 13.6936 25 12.5001V10.7441C26.0008 10.3903 26.8443 9.694 27.3815 8.77839C27.9186 7.86277 28.1147 6.78675 27.9352 5.74051C27.7557 4.69426 27.2121 3.74516 26.4005 3.06095C25.5889 2.37673 24.5615 2.00146 23.5 2.00146C22.4385 2.00146 21.4111 2.37673 20.5995 3.06095C19.7879 3.74516 19.2443 4.69426 19.0648 5.74051C18.8853 6.78675 19.0814 7.86277 19.6186 8.77839C20.1557 9.694 20.9992 10.3903 22 10.7441V12.5001C22 12.8979 21.842 13.2795 21.5607 13.5608C21.2794 13.8421 20.8978 14.0001 20.5 14.0001H11.5C11.1022 14.0001 10.7207 13.8421 10.4393 13.5608C10.158 13.2795 10 12.8979 10 12.5001V10.7441ZM17.5 25.5001C17.5 25.8979 17.342 26.2795 17.0607 26.5608C16.7794 26.8421 16.3978 27.0001 16 27.0001C15.6022 27.0001 15.2207 26.8421 14.9393 26.5608C14.658 26.2795 14.5 25.8979 14.5 25.5001C14.5 25.1023 14.658 24.7208 14.9393 24.4394C15.2207 24.1581 15.6022 24.0001 16 24.0001C16.3978 24.0001 16.7794 24.1581 17.0607 24.4394C17.342 24.7208 17.5 25.1023 17.5 25.5001ZM23.5 8.00011C23.8978 8.00011 24.2794 7.84207 24.5607 7.56077C24.842 7.27946 25 6.89793 25 6.50011C25 6.10228 24.842 5.72075 24.5607 5.43945C24.2794 5.15814 23.8978 5.00011 23.5 5.00011C23.1022 5.00011 22.7207 5.15814 22.4394 5.43945C22.158 5.72075 22 6.10228 22 6.50011C22 6.89793 22.158 7.27946 22.4394 7.56077C22.7207 7.84207 23.1022 8.00011 23.5 8.00011Z" fill="#51636B"/>
</svg>
