<svg xmlns="http://www.w3.org/2000/svg" xmlns:xlink="http://www.w3.org/1999/xlink" id="Layer_1" x="0" y="0" enable-background="new 0 0 400 400" version="1.1" viewBox="0 0 400 400" xml:space="preserve"><style type="text/css">.st0{fill:#fff}.st1{fill-rule:evenodd;clip-rule:evenodd;fill:#647881}</style><g id="Dark_Blue"><path d="M350,400H50c-27.6,0-50-22.4-50-50V50C0,22.4,22.4,0,50,0h300c27.6,0,50,22.4,50,50v300 C400,377.6,377.6,400,350,400z" class="st0"/></g><path d="M203.9,60c-75.6,0-137,61.3-137,137c0,60.5,39.2,111.9,93.7,130c6.8,1.3,9.3-3,9.3-6.6c0-3.3-0.1-11.9-0.2-23.3	c-38.1,8.3-46.1-18.4-46.1-18.4c-6.2-15.8-15.2-20-15.2-20c-12.4-8.5,0.9-8.3,0.9-8.3c13.7,1,21,14.1,21,14.1	c12.2,20.9,32.1,14.9,39.9,11.4c1.2-8.9,4.8-14.9,8.7-18.3c-30.4-3.5-62.4-15.2-62.4-67.7c0-15,5.3-27.2,14.1-36.8	c-1.4-3.5-6.1-17.4,1.3-36.3c0,0,11.5-3.7,37.7,14c10.9-3,22.6-4.6,34.3-4.6c11.6,0.1,23.4,1.6,34.3,4.6c26.2-17.7,37.6-14,37.6-14	c7.5,18.9,2.8,32.8,1.4,36.3c8.8,9.6,14.1,21.8,14.1,36.8c0,52.6-32,64.2-62.5,67.6c4.9,4.2,9.3,12.6,9.3,25.4	c0,18.3-0.2,33.1-0.2,37.6c0,3.7,2.5,7.9,9.4,6.6c54.4-18.2,93.6-69.5,93.6-130C340.9,121.3,279.5,60,203.9,60z" class="st1"/></svg>