<svg width="200" height="232" viewBox="0 0 200 232" fill="none" xmlns="http://www.w3.org/2000/svg">
<path fill-rule="evenodd" clip-rule="evenodd" d="M0 91.0165H13.081V108.727H28.8845V91.0165H41.9655V140.767H28.8845V121.795H13.081V140.767H0V91.0165ZM56.9721 140.767V91.0165H87.915V101.829H70.0531V109.921H85.8566V120.933H70.0531V130.087H87.915V140.767H56.9721ZM102.258 140.767V91.0165H115.339V127.633H133.267V140.767H102.258ZM153.519 91.0165L173.838 109.457L194.09 91.0165H200V140.767H186.853V115.228L173.838 127.102L160.757 115.294V140.767H147.61V91.0165H153.519Z" fill="#0F1689"/>
<path fill-rule="evenodd" clip-rule="evenodd" d="M148.048 172.087C151.805 169.456 160.466 175.344 167.393 185.238C174.321 195.131 176.891 205.283 173.135 207.914C169.378 210.544 160.717 204.656 153.79 194.763C146.862 184.869 144.292 174.717 148.048 172.087Z" fill="#0F1689"/>
<path fill-rule="evenodd" clip-rule="evenodd" d="M58.5484 172.087C54.7919 169.456 46.1309 175.344 39.2035 185.238C32.2761 195.131 29.7055 205.283 33.462 207.914C37.2185 210.544 45.8795 204.656 52.8069 194.763C59.7343 184.869 62.3049 174.717 58.5484 172.087Z" fill="#0F1689"/>
<path fill-rule="evenodd" clip-rule="evenodd" d="M103.252 187.577C98.6665 187.577 94.949 197.368 94.949 209.446C94.949 221.523 98.6665 231.314 103.252 231.314C107.838 231.314 111.556 221.523 111.556 209.446C111.556 197.368 107.838 187.577 103.252 187.577Z" fill="#0F1689"/>
<path d="M38.4318 68.8448C52.2099 48.857 75.1614 35.7707 101.147 35.7707C127.18 35.7707 150.167 48.9046 163.937 68.9538M166.437 152.436C153.063 174.656 128.826 189.504 101.147 189.504C74.2252 189.504 50.56 175.457 36.9785 154.243L166.437 152.436Z" stroke="#0F1689" stroke-width="20"/>
<path fill-rule="evenodd" clip-rule="evenodd" d="M148.048 59.2273C151.805 61.8576 160.466 55.9697 167.393 46.0763C174.321 36.1829 176.891 26.0305 173.135 23.4002C169.378 20.7699 160.717 26.6577 153.79 36.5511C146.862 46.4445 144.292 56.597 148.048 59.2273Z" fill="#0F1689"/>
<path fill-rule="evenodd" clip-rule="evenodd" d="M58.5484 59.2273C54.7919 61.8576 46.1309 55.9697 39.2035 46.0763C32.2761 36.1829 29.7055 26.0305 33.462 23.4002C37.2185 20.7699 45.8795 26.6577 52.8069 36.5511C59.7343 46.4445 62.3049 56.597 58.5484 59.2273Z" fill="#0F1689"/>
<path fill-rule="evenodd" clip-rule="evenodd" d="M103.252 43.7368C98.6665 43.7368 94.949 33.946 94.949 21.8684C94.949 9.79082 98.6665 0 103.252 0C107.838 0 111.556 9.79082 111.556 21.8684C111.556 33.946 107.838 43.7368 103.252 43.7368Z" fill="#0F1689"/>
<path d="M38.4318 162.469C52.2099 182.457 75.1614 195.543 101.147 195.543C127.18 195.543 150.167 182.409 163.937 162.36M166.437 78.8784C153.063 56.6578 128.826 41.8102 101.147 41.8102C74.2252 41.8102 50.56 55.8565 36.9785 77.0713L166.437 78.8784Z" stroke="#0F1689" stroke-width="20"/>
</svg>
