<svg width="32" height="32" viewBox="0 0 204 163" fill="none" xmlns="http://www.w3.org/2000/svg"><path fill="#326CE5" fill-opacity=".4" stroke="#326CE5" stroke-width="5" stroke-dasharray="10 10" d="M2.5 2.5h171v158H2.5z"/><path fill-rule="evenodd" clip-rule="evenodd" d="M164.628 134.298c-13.695-6.557-19.483-22.977-12.926-36.674a27.491 27.491 0 0 1 36.67-12.928c13.695 6.557 19.483 22.976 12.926 36.674-6.556 13.697-22.974 19.485-36.67 12.928Z" fill="#326CE5"/><path d="M176.239 93.003a2.34 2.34 0 0 0-.89.225l-12.14 5.8a2.307 2.307 0 0 0-1.256 1.562l-2.995 13.031a2.288 2.288 0 0 0 .447 1.948l8.403 10.448a2.328 2.328 0 0 0 1.815.866l13.476-.003a2.334 2.334 0 0 0 1.815-.865l8.399-10.449a2.292 2.292 0 0 0 .449-1.949l-3-13.029a2.288 2.288 0 0 0-.448-.923 2.318 2.318 0 0 0-.808-.64l-12.141-5.797a2.343 2.343 0 0 0-1.126-.225Z" fill="#fff"/><path d="M176.36 97.437c-.402 0-.727.362-.727.808l.001.02c0 .06-.003.133-.001.186.01.257.066.454.099.691.061.507.113.928.081 1.318-.031.148-.139.282-.236.376l-.017.307a9.358 9.358 0 0 0-6.062 2.915c-.08-.055-.22-.156-.262-.187-.13.018-.261.058-.432-.042-.325-.218-.621-.521-.979-.885-.165-.174-.283-.339-.479-.507-.044-.038-.111-.09-.161-.129a.862.862 0 0 0-.506-.191.698.698 0 0 0-.579.256c-.25.314-.17.793.178 1.071l.011.008c.048.039.107.089.151.121.207.153.396.231.602.353.435.268.795.491 1.081.759.111.119.131.329.146.419l.233.208a9.404 9.404 0 0 0-1.483 6.556l-.304.088c-.081.104-.194.267-.313.315-.373.118-.794.161-1.302.214-.239.02-.445.008-.697.056-.056.011-.134.031-.194.045l-.007.002a.164.164 0 0 1-.011.003c-.428.104-.703.497-.614.885.088.388.507.624.937.531l.011-.001.014-.005c.06-.013.136-.028.188-.042.249-.067.429-.164.652-.25.481-.172.879-.317 1.267-.373.162-.012.333.1.418.148l.317-.054a9.458 9.458 0 0 0 4.19 5.232l-.132.317c.048.123.1.289.065.411-.141.365-.383.751-.658 1.182-.133.199-.269.353-.39.58-.028.055-.065.138-.093.196-.187.4-.05.86.309 1.033.361.173.809-.01 1.003-.41l.002-.002v-.001c.027-.057.067-.132.09-.185.103-.236.137-.438.209-.666.193-.483.298-.99.563-1.306.072-.086.191-.119.313-.152l.165-.298a9.382 9.382 0 0 0 6.706.017l.155.279c.124.041.26.062.371.225.198.339.333.739.498 1.222.073.228.109.43.211.666.024.054.063.13.091.187.193.401.643.585 1.004.411.359-.173.496-.633.309-1.032-.028-.058-.066-.142-.095-.196-.12-.228-.256-.38-.389-.579-.275-.431-.504-.788-.645-1.154-.059-.188.01-.306.056-.428-.027-.032-.086-.21-.121-.294a9.455 9.455 0 0 0 4.189-5.269c.094.014.258.043.311.054.109-.072.209-.166.406-.151.388.056.787.2 1.267.373.224.086.404.185.653.251.052.014.127.028.187.041l.014.004.011.002c.431.093.85-.143.938-.531.089-.388-.186-.782-.615-.885-.062-.014-.15-.038-.211-.05-.253-.048-.459-.036-.697-.056-.508-.053-.929-.096-1.303-.214-.152-.059-.261-.24-.313-.315l-.294-.085a9.396 9.396 0 0 0-.152-3.393 9.395 9.395 0 0 0-1.362-3.147c.076-.069.218-.194.258-.232.012-.13.002-.267.137-.411.285-.268.646-.491 1.08-.759.207-.122.397-.2.604-.353.047-.034.111-.089.16-.129.349-.278.429-.757.179-1.071-.25-.314-.735-.343-1.084-.065-.05.039-.117.09-.161.129-.196.168-.316.333-.48.508-.359.364-.655.667-.98.886-.141.082-.347.054-.441.048l-.276.197a9.525 9.525 0 0 0-6.032-2.914 13.17 13.17 0 0 1-.017-.324c-.095-.091-.209-.168-.238-.364-.032-.39.021-.81.082-1.318.034-.237.09-.434.1-.69.002-.06-.002-.144-.002-.207 0-.446-.325-.808-.726-.808Zm-.91 5.636-.216 3.812-.016.008a.64.64 0 0 1-1.017.49l-.006.004-3.125-2.216a7.474 7.474 0 0 1 3.605-1.964c.259-.059.517-.102.775-.134Zm1.821 0a7.552 7.552 0 0 1 4.354 2.1l-3.106 2.201-.011-.004a.64.64 0 0 1-1.018-.49l-.003-.001-.216-3.806Zm-7.335 3.522 2.854 2.552-.003.016a.64.64 0 0 1-.252 1.101l-.003.012-3.658 1.056a7.484 7.484 0 0 1 1.062-4.737Zm12.827.001c.424.688.745 1.455.936 2.287.189.823.236 1.643.158 2.436l-3.676-1.058-.003-.016a.64.64 0 0 1-.252-1.101l-.002-.008 2.839-2.54Zm-6.989 2.748h1.169l.727.909-.261 1.133-1.049.505-1.053-.506-.261-1.134.728-.907Zm3.748 3.109a.612.612 0 0 1 .148.011l.006-.008 3.784.64a7.5 7.5 0 0 1-3.029 3.805l-1.469-3.548.004-.006a.642.642 0 0 1 .556-.894Zm-6.355.015a.641.641 0 0 1 .579.893l.011.014-1.453 3.512a7.522 7.522 0 0 1-3.02-3.779l3.751-.636.007.007a.764.764 0 0 1 .125-.011Zm3.169 1.539a.628.628 0 0 1 .3.064.634.634 0 0 1 .287.273h.014l1.849 3.341a7.38 7.38 0 0 1-.739.207 7.513 7.513 0 0 1-4.1-.211l1.844-3.335h.003a.642.642 0 0 1 .542-.339Z" fill="#326CE5" stroke="#326CE5" stroke-width=".25"/></svg>