<svg xmlns="http://www.w3.org/2000/svg" xmlns:xlink="http://www.w3.org/1999/xlink" id="linkerd-logo" x="0" y="0" version="1.1" viewBox="0 0 138.9 129.2" xml:space="preserve" style="enable-background:new 0 0 138.9 129.2"><style type="text/css">.st0{opacity:.8}.st1{fill:#fff}</style><g class="st0"><g><g><polygon points="125.9 24.5 125.9 74.2 135.1 79.5 135.1 29.8" class="st1"/><polygon points="3.2 79.5 12.4 74.2 12.4 24.5 3.2 29.8" class="st1"/></g><g><polygon points="48.1 79 90.2 103.3 90.2 92.8 50.8 70 48.1 71.5 48.1 71.5" class="st1"/><path d="M92.6,117.4L48.1,91.7v10.6l11.9,6.9l-14.3,8.3c-1,0.6-1,1.9,0,2.5l7,4l16.5-9.5l16.5,9.5l7-4 C93.6,119.4,93.6,118,92.6,117.4z" class="st1"/></g><g><path d="M125.9,54.1v44c0,1.1,1.2,1.8,2.2,1.3l6.3-3.6c0.4-0.3,0.7-0.7,0.7-1.3V48.9L125.9,54.1z" class="st1"/><path d="M108,111.1l5.9-3.4c0.7-0.4,1.1-1.1,1.1-1.9V60.5l-9.2,5.3v44C105.8,110.9,107,111.6,108,111.1z" class="st1"/><path d="M85.6,124l8.4-4.9c0.4-0.3,0.7-0.7,0.7-1.3V72.1l-9.2,5.3L85.6,124L85.6,124z" class="st1"/><path d="M44.2,119.1l8.4,4.9V77.4l-9.2-5.3v45.7C43.5,118.4,43.8,118.8,44.2,119.1z" class="st1"/><path d="M24.4,107.7l5.9,3.4c1,0.6,2.2-0.1,2.2-1.3v-44l-9.2-5.3v45.3C23.4,106.6,23.8,107.3,24.4,107.7z" class="st1"/><path d="M4.3,96l5.9,3.4c1,0.6,2.2-0.1,2.2-1.3v-44l-9.2-5.3v45.3C3.2,94.9,3.6,95.6,4.3,96z" class="st1"/></g><g><path d="M135.1,29.8l-9.2-5.3L109.4,34l-11-6.3l14.3-8.3c1-0.6,1-1.9,0-2.5l-5.9-3.4c-0.7-0.4-1.5-0.4-2.2,0 l-15.4,8.9l-11-6.3l14.3-8.3c1-0.6,1-1.9,0-2.5l-5.9-3.4c-0.7-0.4-1.5-0.4-2.2,0L69,10.8L53.7,1.9c-0.7-0.4-1.5-0.4-2.2,0 l-5.9,3.4c-1,0.6-1,1.9,0,2.5l80.3,46.3l9.2-5.3l-16.5-9.5L135.1,29.8z" class="st1"/><path d="M31.4,13.5l-5.9,3.4c-1,0.6-1,1.9,0,2.5l80.3,46.3l9.2-5.3l-81.4-47C32.9,13.1,32.1,13.1,31.4,13.5z" class="st1"/><polygon points="3.2 29.8 19.7 39.3 3.2 48.9 12.4 54.2 28.9 44.6 39.8 51 23.4 60.5 32.5 65.8 49 56.3 60 62.6 43.5 72.1 52.7 77.4 69.1 67.9 85.6 77.4 94.8 72.1 12.4 24.5" class="st1"/></g></g></g></svg>