<svg width="500px" height="200px" viewBox="0 0 40 40" fill="none" xmlns="http://www.w3.org/2000/svg">
<path d="M30.0007 21.6667V33.3334H6.66732V10H15.034C15.1173 8.81671 15.4007 7.70004 15.834 6.66671H6.66732C4.83398 6.66671 3.33398 8.16671 3.33398 10V33.3334C3.33398 35.1667 4.83398 36.6667 6.66732 36.6667H30.0007C31.834 36.6667 33.334 35.1667 33.334 33.3334V25L30.0007 21.6667ZM27.5007 30H9.16732L13.7507 24.1167L17.0173 28.05L21.6007 22.15L27.5007 30ZM32.1673 14.8167C32.9006 13.65 33.334 12.3 33.334 10.8334C33.334 6.68337 29.984 3.33337 25.834 3.33337C21.684 3.33337 18.334 6.68337 18.334 10.8334C18.334 14.9834 21.684 18.3334 25.8173 18.3334C27.284 18.3334 28.6506 17.9 29.8006 17.1667L35.0007 22.3667L37.3673 20L32.1673 14.8167ZM25.834 15C24.7289 15 23.6691 14.5611 22.8877 13.7797C22.1063 12.9983 21.6673 11.9384 21.6673 10.8334C21.6673 9.72831 22.1063 8.6685 22.8877 7.8871C23.6691 7.10569 24.7289 6.66671 25.834 6.66671C26.9391 6.66671 27.9989 7.10569 28.7803 7.8871C29.5617 8.6685 30.0007 9.72831 30.0007 10.8334C30.0007 11.9384 29.5617 12.9983 28.7803 13.7797C27.9989 14.5611 26.9391 15 25.834 15Z" fill="#396679"/>
</svg>
