  <svg  width="500px" height="200px"
  viewBox="0 0 58 58" fill="#2c3e50" xmlns="http://www.w3.org/2000/svg">
      <path d="M43.5002 31.4163V48.333H9.66683V14.4997H21.7985C21.9193 12.7838 22.3302 11.1647 22.9585 9.66634H9.66683C7.0085 9.66634 4.8335 11.8413 4.8335 14.4997V48.333C4.8335 50.9913 7.0085 53.1663 9.66683 53.1663H43.5002C46.1585 53.1663 48.3335 50.9913 48.3335 48.333V36.2497L43.5002 31.4163ZM39.8752 43.4997H13.2918L19.9377 34.9688L24.6743 40.6722L31.3202 32.1172L39.8752 43.4997ZM46.6418 21.4838C47.7052 19.7922 48.3335 17.8347 48.3335 15.708C48.3335 9.69051 43.476 4.83301 37.4585 4.83301C31.441 4.83301 26.5835 9.69051 26.5835 15.708C26.5835 21.7255 31.441 26.583 37.4343 26.583C39.561 26.583 41.5427 25.9547 43.2102 24.8913L50.7502 32.4313L54.1818 28.9997L46.6418 21.4838ZM37.4585 21.7497C34.1235 21.7497 31.4168 19.043 31.4168 15.708C31.4168 12.373 34.1235 9.66634 37.4585 9.66634C40.7935 9.66634 43.5002 12.373 43.5002 15.708C43.5002 19.043 40.7935 21.7497 37.4585 21.7497Z" />
    </svg>