<svg width="100" height="95" viewBox="0 0 89 146" fill="none" xmlns="http://www.w3.org/2000/svg">
<path d="M45.8301 127.606V133.175L64.264 130.382L45.8301 127.606Z" fill="#00D3A9"/>
<path d="M45.8301 134.341V139.935L64.4312 137.151L45.8301 134.341Z" fill="#00D3A9"/>
<path d="M43.1781 133.138V127.651L24.9727 130.386L43.1781 133.138Z" fill="#00B39F"/>
<path d="M6.66211 139.915C10.2314 141.417 15.0693 142.695 20.7843 143.65V137.782L6.66211 139.915Z" fill="#00B39F"/>
<path d="M43.1781 139.91V134.378L24.9277 137.147L43.1781 139.91Z" fill="#00B39F"/>
<path d="M23.4355 143.289L41.9184 140.52L23.4355 137.723V143.289Z" fill="#00D3A9"/>
<path d="M65.6965 143.318V137.761L47.2422 140.525L65.6965 143.318Z" fill="#00B39F"/>
<path d="M83.7741 139.271C86.8458 137.773 88.7018 136.076 88.9955 134.291L69.7539 137.155L83.7741 139.271Z" fill="#00B39F"/>
<path d="M68.3516 136.566L86.8956 133.789L68.3516 130.996V136.566Z" fill="#00D3A9"/>
<path d="M65.6948 129.793V124.273L47.3262 127.029L65.6948 129.793Z" fill="#00B39F"/>
<path d="M65.6965 136.541V130.967L47.2871 133.756L65.6965 136.541Z" fill="#00B39F"/>
<path d="M23.4355 130.955V136.57L41.9837 133.76L23.4355 130.955Z" fill="#00D3A9"/>
<path d="M43.1784 122.111C36.6409 122.14 30.1119 122.592 23.6309 123.464L43.1784 126.406V122.111Z" fill="#00B39F"/>
<path d="M23.4355 124.236V129.814L42 127.029L23.4355 124.236Z" fill="#00D3A9"/>
<path d="M20.804 123.896C15.0931 124.842 10.247 126.116 6.67773 127.631L20.804 129.751V123.896Z" fill="#00B39F"/>
<path d="M65.5734 123.489C59.028 122.6 52.4334 122.14 45.8301 122.111V126.452L65.5734 123.489Z" fill="#00D3A9"/>
<path d="M0 134.175C0.244752 136.03 2.14158 137.777 5.32336 139.317L19.6291 137.147L0 134.175Z" fill="#00D3A9"/>
<path d="M5.32336 128.236C2.15382 129.751 0.261069 131.486 0 133.333L19.6454 130.382L5.32336 128.236Z" fill="#00D3A9"/>
<path d="M23.5938 144.065C30.0856 144.938 36.6255 145.392 43.1739 145.422V141.135L23.5938 144.065Z" fill="#00B39F"/>
<path d="M82.3998 127.635C78.8509 126.132 74.0415 124.862 68.3633 123.9V129.743L82.3998 127.635Z" fill="#00D3A9"/>
<path d="M68.3516 143.616C74.0624 142.666 78.8963 141.384 82.4493 139.881L68.3516 137.752V143.616Z" fill="#00D3A9"/>
<path d="M89.0002 133.304C88.7269 131.473 86.8464 129.751 83.6973 128.232L69.5547 130.378L89.0002 133.304Z" fill="#00B39F"/>
<path d="M45.8301 145.422C52.3647 145.392 58.8909 144.942 65.3695 144.073L45.8301 141.102V145.422Z" fill="#00D3A9"/>
<path d="M20.7839 136.52V131.013L2.52539 133.756L20.7839 136.52Z" fill="#00B39F"/>
<path d="M44.3086 111.711C40.6373 104.926 37.0231 98.771 33.9474 92.3426C27.5023 78.8633 21.1346 65.3341 15.1831 51.6307C12.2175 44.8246 10.288 37.6367 11.1039 29.9052C12.4827 16.6873 22.7092 4.44463 35.4567 1.18684C53.5602 -3.44046 70.5705 5.75189 76.6566 23.6967C79.2673 31.4075 78.2108 39.1183 75.6164 46.7212C70.3788 62.0763 63.1463 76.5309 55.8078 90.9192C52.6873 97.0363 49.2811 103.012 46.0178 109.047C45.5772 109.765 45.104 110.437 44.3086 111.711ZM44.6268 58.7687C57.9331 58.6525 68.9796 47.3063 68.8491 33.8685C68.7185 20.2688 57.5701 9.23794 43.9904 9.27944C31.3816 9.31679 19.8986 20.9992 20.0292 33.6568C20.172 47.7006 31.1246 58.8849 44.6268 58.7687Z" fill="#00D3A9"/>
</svg>
