<svg xmlns="http://www.w3.org/2000/svg" xmlns:xlink="http://www.w3.org/1999/xlink" id="Layer_1" x="0" y="0" version="1.1" viewBox="0 0 318 361" xml:space="preserve" style="enable-background:new 0 0 318 361"><style type="text/css">.st0{opacity:.8}.st0,.st1{fill:#fff}</style><g><g><path d="M3.1,270c1.6,2.8,4,5.2,6.8,6.8l139.8,80.7l0,0c5.7,3.4,12.8,3.4,18.6,0l139.8-80.7c5.8-3.3,9.3-9.4,9.3-16.1 V99.3l0,0c0-6.6-3.5-12.8-9.3-16.1L168.3,2.5v0c-5.7-3.4-12.8-3.4-18.6,0v0L10,83.2c-5.8,3.3-9.3,9.4-9.3,16.1l0,0v161.4 C0.6,264,1.5,267.2,3.1,270" class="st0"/><g><polygon points="158.5 283.7 67.8 229.6 158.5 178.9 161.5 184.2 79.9 229.7 161.6 278.5" class="st1"/><path d="M249.2,234.8L160.1,185l-3.1,1.8V84.1L73.4,133l-3-5.2L163,73.6v102.6l86.2-51.2V234.8z M166,181.5l77.1,43 v-88.9L166,181.5z" class="st1"/><circle cx="71.8" cy="130.4" r="23.7" class="st1"/><ellipse cx="246.2" cy="130.4" class="st1" rx="23.7" ry="23.7" transform="matrix(0.1891 -0.982 0.982 0.1891 71.6088 347.43)"/><circle cx="160" cy="78.9" r="23.7" class="st1"/><circle cx="160" cy="181.6" r="23.7" class="st1"/><circle cx="73.9" cy="229.6" r="23.7" class="st1"/><circle cx="160" cy="281.1" r="23.7" class="st1"/><ellipse cx="246.2" cy="229.6" class="st1" rx="23.7" ry="23.7" transform="matrix(0.1602 -0.9871 0.9871 0.1602 -19.9431 435.8454)"/></g></g></g></svg>