<?xml version="1.0" encoding="utf-8"?>
<!-- Generator: Adobe Illustrator 22.0.1, SVG Export Plug-In . SVG Version: 6.00 Build 0)  -->
<svg version="1.1" id="Layer_1" xmlns="http://www.w3.org/2000/svg" xmlns:xlink="http://www.w3.org/1999/xlink" x="0px" y="0px"
	 viewBox="0 0 318 361" style="enable-background:new 0 0 318 361;" xml:space="preserve">
<style type="text/css">
	.st0{opacity:0.8;fill:#FFFFFF;}
	.st1{fill:#FFFFFF;}
</style>
<g>
	<g>
		<path class="st0" d="M3.1,270c1.6,2.8,4,5.2,6.8,6.8l139.8,80.7l0,0c5.7,3.4,12.8,3.4,18.6,0l139.8-80.7c5.8-3.3,9.3-9.4,9.3-16.1
			V99.3l0,0c0-6.6-3.5-12.8-9.3-16.1L168.3,2.5v0c-5.7-3.4-12.8-3.4-18.6,0v0L10,83.2c-5.8,3.3-9.3,9.4-9.3,16.1l0,0v161.4
			C0.6,264,1.5,267.2,3.1,270"/>
		<g>
			<polygon class="st1" points="158.5,283.7 67.8,229.6 158.5,178.9 161.5,184.2 79.9,229.7 161.6,278.5 			"/>
			<path class="st1" d="M249.2,234.8L160.1,185l-3.1,1.8V84.1L73.4,133l-3-5.2L163,73.6v102.6l86.2-51.2V234.8z M166,181.5l77.1,43
				v-88.9L166,181.5z"/>
			<circle class="st1" cx="71.8" cy="130.4" r="23.7"/>
			
				<ellipse transform="matrix(0.1891 -0.982 0.982 0.1891 71.6088 347.43)" class="st1" cx="246.2" cy="130.4" rx="23.7" ry="23.7"/>
			<circle class="st1" cx="160" cy="78.9" r="23.7"/>
			<circle class="st1" cx="160" cy="181.6" r="23.7"/>
			<circle class="st1" cx="73.9" cy="229.6" r="23.7"/>
			<circle class="st1" cx="160" cy="281.1" r="23.7"/>
			
				<ellipse transform="matrix(0.1602 -0.9871 0.9871 0.1602 -19.9431 435.8454)" class="st1" cx="246.2" cy="229.6" rx="23.7" ry="23.7"/>
		</g>
	</g>
</g>
</svg>
