<svg xmlns="http://www.w3.org/2000/svg" xmlns:xlink="http://www.w3.org/1999/xlink" id="Layer_1" x="0" y="0" version="1.1" viewBox="0 0 318 361" xml:space="preserve" style="enable-background:new 0 0 318 361"><style type="text/css">.st0{opacity:.8;fill:#fff;enable-background:new}</style><g><path d="M228.8,145.5L182.1,171c1.2,2.9,1.7,6.2,1.6,9.5c-0.1,3.1-0.8,6.1-2,8.8l44.1,26.8c4-5,9.9-8.3,16.4-8.8 l2-52.2c-0.5-0.1-0.9-0.2-1.4-0.3C236.9,153.4,232.1,150,228.8,145.5z" class="st0"/><path d="M308.1,83.2L168.3,2.5c-5.7-3.4-12.8-3.4-18.6,0L10,83.2c-5.8,3.3-9.3,9.4-9.3,16.1v161.4 c-0.1,3.3,0.8,6.5,2.4,9.3c1.6,2.8,4,5.2,6.8,6.8l139.8,80.7c5.7,3.4,12.8,3.4,18.6,0l139.8-80.7c5.8-3.3,9.3-9.4,9.3-16.1V99.3 C317.4,92.7,313.9,86.5,308.1,83.2z M249.9,206.2c12.9,2.1,21.7,14.3,19.6,27.2s-14.3,21.7-27.2,19.6 c-12.9-2.1-21.7-14.3-19.6-27.2c0.3-1.8,0.8-3.4,1.4-5l-45-25.2c-4.3,5.9-11.3,9.7-19.1,9.7c-7.8,0-14.8-3.8-19.1-9.6l-45,25.1 c1.1,2.7,1.7,5.7,1.7,8.8c0,3.4-0.7,6.6-2,9.5l45.8,27.3c4.3-5.5,11.1-9,18.6-9c13.1,0,23.7,10.6,23.7,23.7 c0,13.1-10.6,23.7-23.7,23.7c-13.1,0-23.7-10.6-23.7-23.7c0-3.4,0.7-6.6,2-9.5l-45.8-27.3c-4.3,5.5-11,9-18.6,9 c-13.1,0-23.7-10.6-23.7-23.7c0-13.1,10.6-23.7,23.7-23.7c7.8,0,14.8,3.8,19.1,9.6l45-25.2c-1.1-2.7-1.7-5.7-1.7-8.8 c0-12.1,9-22,20.7-23.5v-55.7c-6.4-0.8-12-4.2-15.8-9.1l-47.6,27.8c1.2,2.8,1.9,6,1.9,9.2c0,13.1-10.6,23.7-23.7,23.7 c-13.1,0-23.7-10.6-23.7-23.7c0-13.1,10.6-23.7,23.7-23.7c7.7,0,14.5,3.6,18.8,9.3l47.6-27.8c-1.2-2.8-1.9-6-1.9-9.2 c0-13.1,10.6-23.7,23.7-23.7c13.1,0,23.7,10.6,23.7,23.7c0,12.1-9,22-20.7,23.5v55.7c6.3,0.8,11.9,4.1,15.6,8.8l45.8-27.2 c-1.8-4.2-2.4-9-1.5-13.9c2.5-12.9,14.9-21.3,27.8-18.8c12.9,2.5,21.3,14.9,18.8,27.8c-2,10.3-10.4,17.8-20.3,19v52.3 C249.4,206.1,249.7,206.2,249.9,206.2z" class="st0"/></g></svg>