<svg xmlns="http://www.w3.org/2000/svg" role="img" viewBox="-4.57 -0.82 367.64 361.39"><defs><style>.cls-1{fill:#fff}</style></defs><path d="M356.00854 180.92554a10.51081 10.51081 0 0 0-3.59161-6.88739 8.44127 8.44127 0 0 0-3.4248-2.13422c-.12763-.29156-.2807-.57483-.379-.876q-2.35364-7.21059-4.69476-14.42529c-.681-2.14294-1.35541-4.288-2.044-6.4284q-5.76344-17.91533-11.53619-35.82758c-1.23395-3.82257-2.51-7.63159-3.76679-11.44678-.14361-.43542-.29169-.8695-.43011-1.30658q-1.85367-5.85369-3.70929-11.70678c-.23951-.75007-.83631-1.45362-.19855-2.27442a8.15812 8.15812 0 0 0 .97333-3.87677 11.45145 11.45145 0 0 0-8.68177-12.219 9.69177 9.69177 0 0 0-4.2973-.33008c-1.44324.53772-2.503-.12024-3.62616-.974-2.416-1.83643-4.92694-3.54791-7.399-5.31055-.1427-.12439-.27662-.261-.42945-.37146q-16.44744-11.88272-32.899-23.75976-7.5564-5.45124-15.13446-10.8725c-1.33936-.985-2.63123-2.04492-4.03248-2.93219-1.20629-.76379-2.06842-1.62463-1.99157-3.15308a1.58278 1.58278 0 0 0-.183-.53625.91722.91722 0 0 1-.13128-.23761c-1.17713-5.793-9.04511-9.7525-15.17725-5.60626a4.437 4.437 0 0 0-1.51 1.17212 1.4707 1.4707 0 0 1-1.51227.47c-1.55773-.20563-3.12866-.31147-4.69427-.4574a.603.603 0 0 0-.27673-.08234 2.15439 2.15439 0 0 0-.71094-.06665l-.757-.04449a.60169.60169 0 0 0-.27753-.08264 2.12939 2.12939 0 0 0-.70947-.06629q-.37875-.02242-.75745-.04474a.59929.59929 0 0 0-.27838-.08282 2.10994 2.10994 0 0 0-.70819-.06616l-.585-.02942c-2.16937-.2616-4.337-.53766-6.5083-.78192q-9.1604-1.03062-18.3233-2.03858-6.47526-.71328-12.953-1.40368l-.00012.00006c-2.81787-.20368-5.6308-.5221-8.42578-.8797-2.95593-.37812-5.92346-.66211-8.87769-1.05408a1.72408 1.72408 0 0 1-1.29058-.66064 7.76439 7.76439 0 0 0-2.92426-2.84516 9.39029 9.39029 0 0 0-5.40478-1.98974.22114.22114 0 0 1-.01532-.17408H149.786c-.07562.26715-.30432.16706-.4762.19452a10.92141 10.92141 0 0 0-7.66546 4.64307 5.68933 5.68933 0 0 0-1.127 1.87469 2.01445 2.01445 0 0 1-1.11474 1.20038c-.94354.44153-1.86054.93982-2.78864 1.41425-.14789.05566-.30176.09918-.44281.16864q-20.42459 10.05588-40.84657 20.11712c-2.85015 1.40467-5.691 2.82843-8.53607 4.24341-3.986 1.8783-7.9433 3.81482-11.85669 5.8404a34.668 34.668 0 0 0-3.60962 1.69445c-1.15356.70166-2.18341 1.12049-3.32476.08478-.03077-.02789-.12067.00946-.183.01642a7.49421 7.49421 0 0 0-1.16076-.59876 11.00438 11.00438 0 0 0-13.83624 14.55707c.20386.43494.42444.863.60785 1.3064.29218.70618 1.01776 1.14868 1.16407 1.93939a2.35359 2.35359 0 0 0-.25892.27527Q44.78387 79.20487 35.24329 93.218q-4.61811 6.78679-9.21625 13.587c-1.03211 1.49414-2.07245 2.98261-3.09467 4.48346q-3.34662 4.91373-6.67871 9.83734c-.79315 1.14832-1.60443 2.28467-2.37012 3.451a1.397 1.397 0 0 1-1.14184.68213 11.01757 11.01757 0 0 0-9.73261 8.69763c-.059.24561.06159.606-.30084.74274v3.10046c.37683.28656.28235.74268.39069 1.1214a10.75154 10.75154 0 0 0 6.56421 7.473c.51312.22241.37164.67987.37329 1.07427q.03817 9.115.06769 18.22992c-.011.12818-.03162.25635-.03156.38446q.01337 20.90022.03009 41.80048c.00012.16119.00623.32239.00983.48352.09289 4.19013.073 8.38037.00751 12.57062a11.09544 11.09544 0 0 0-7.14863 8.21942c-.084.35754.08088.78241-.26312 1.0752v2.5191c.21411.04608.18256.22723.20752.37738a11.00122 11.00122 0 0 0 11.38465 9.208c.37469-.02686.50811.18664.678.41986.81611 1.12036 1.61591 2.25329 2.45673 3.3548 1.43683 1.88226 2.66675 3.91772 4.23065 5.70538a3.76856 3.76856 0 0 0 .22907.41327q4.87226 6.71768 9.7539 13.42853c1.81794 2.48693 3.67658 4.94415 5.51685 7.41473.78448 1.09943 1.55646 2.20795 2.35577 3.29645q3.56984 4.86126 7.15686 9.70965c.01612.09333.00238.20856.05255.27674 2.81232 3.821 5.6153 7.649 8.45624 11.44867.84711 1.133 1.79065 2.18853 1.01453 3.739-.36963.41254-.19238.92456-.22925 1.38794a11.6439 11.6439 0 0 0 15.13886 12.12109c1.23687-.74627 2.33947-.33307 3.45239.34119a21.20192 21.20192 0 0 0 2.30951 1.16785c1.58111.71057 3.044 1.66906 4.69531 2.2304l.00006.00006c.24677.143.48621.30066.74127.42676q15.86325 7.83995 31.72974 15.67353 6.82626 3.369 13.66113 6.721c2.46582 1.343 4.98859 2.57 7.55335 3.71161a3.15979 3.15979 0 0 1 1.66858 1.70777 4.78647 4.78647 0 0 0 .59283.84381 12.83586 12.83586 0 0 0 9.54364 5.62011.19313.19313 0 0 1 .0141.17218h2.32538c.09729-.32428.36859-.16589.56384-.19336a11.73551 11.73551 0 0 0 5.44208-1.98358 2.835 2.835 0 0 0 1.17627-.75445 2.7266 2.7266 0 0 1 2.30267-.977l.00537.00055c.35407.01074.70807.03082 1.06214.03088 14.38824.00165 28.77667-.03442 43.16461.03326a18.25784 18.25784 0 0 0 7.79822-1.34124c.89618-.40393 1.856-.66639 2.78637-.99457q5.82789-2.05563 11.65564-4.11194c.24628-.06433.49854-.11163.738-.1955q8.98251-3.14675 17.9613-6.30383c.54944-.1933 1.08265-.42608 1.6352-.02832a12.01733 12.01733 0 0 0 11.56073-.1336 11.672 11.672 0 0 0 6.292-8.60877 3.68759 3.68759 0 0 1 1.94452-2.92407c7.9671-5.68878 15.88769-11.44275 23.81708-17.18421 3.12646-2.26379 6.23815-4.54791 9.35656-6.82281l.00006-.00006v.00006c1.548-1.178 3.13807-2.29413 4.75025-3.38477 1.94446-1.31549 3.815-2.74035 5.71765-4.11767.32935-.23847.6391-.56934 1.09241-.23664a10.02929 10.02929 0 0 0 6.18042 1.34906 10.99881 10.99881 0 0 0 7.54242-18.03039c-.25794-.31677-.10981-.5072-.13147-.76025a2.153 2.153 0 0 0 .16546-.33515q1.85211-6.24042 3.69721-12.483c.49322-1.55957 1.00671-3.11316 1.47613-4.67987q3.44476-11.49894 6.87024-23.00348c1.64081-5.01691 3.11011-10.08575 4.59516-15.1499.71752-2.40918 1.42694-4.82086 2.15423-7.22711q2.97923-9.85622 5.97052-19.70868a1.36715 1.36715 0 0 1 1.0044-1.33387 6.417 6.417 0 0 0 2.58288-1.74322 10.35339 10.35339 0 0 0 3.45361-5.68836c.09583-.376-.0028-.829.37732-1.11151v-2.5191c-.05243-.0288-.14697-.05205-.15143-.0869zM304.239 284.71844a1.63649 1.63649 0 0 1-.8443 1.83356c-1.45947.93909-2.85443 1.97382-4.2572 2.9928a26.15226 26.15226 0 0 0-3.99994 2.98682c-.04522.104-.11.19464-.16339.29309q-6.41117 4.32339-12.65289 8.88769l-.00006.00012q-3.90985 2.73825-7.81885 5.47767-6.70542 4.7211-13.40778 9.44628c-.26556.18641-.512.62934-.96026.158-.50556-.53173-1.08612-.99212-1.6341-1.48352q1.65225-3.18676 3.30445-6.37353 2.06927-3.61817 3.86871-7.37787c1.1651-1.89014 2.08075-3.91089 3.07983-5.88788 1.28931-2.01544 2.17987-4.241 3.33381-6.32782.72985-1.35248 1.47424-2.69739 2.18634-4.05908 1.14849-2.19629 2.27575-4.40363 3.412-6.60626q3.22348-5.84574 6.20118-11.82038a3.19727 3.19727 0 0 0 .2113-.30932c1.2666-2.39881 2.51154-4.80695 3.69354-7.25074 1.18738-2.45483 2.55127-4.82434 3.83783-7.2312q.60279-1.08014 1.20569-2.16021c1.24677-2.22351 2.26276-4.5719 3.642-6.72358a2.38649 2.38649 0 0 0 1.16315.41291 5.236 5.236 0 0 0 1.93768.54718 1.6916 1.6916 0 0 1 1.9657 1.79815c.00537.08265.08923.16022.13659.24012a50.518 50.518 0 0 0 1.54834 5.43066 24.51908 24.51908 0 0 0 1.01618 3.61609A26.67578 26.67578 0 0 0 305.37 259.147a50.37939 50.37939 0 0 0 1.54888 5.43225 29.60108 29.60108 0 0 0 1.156 4.08265c.45282 1.6538.91516 3.305 1.34979 4.96362a2.09158 2.09158 0 0 1 .1695.67c-.04309.0539-.08252.11041-.12592.16413a1.11974 1.11974 0 0 0-.1662.21936c-.01123.01983-.0249.038-.03625.05767a9.86809 9.86809 0 0 0-4.17755 5.45447c-.0785.06928-.14917.14539-.23237.21045a7.268 7.268 0 0 0-.61688 4.31684zM79.195 305.921a.46163.46163 0 0 0 .01941-.05438 11.76623 11.76623 0 0 0-7.15021-12.85291c-.29462-.12079-.73981-.09259-.77887-.57849a20.21867 20.21867 0 0 0 .616-3.45526 44.13617 44.13617 0 0 0 .95929-5.25281.79561.79561 0 0 0 .08258-.373 28.00005 28.00005 0 0 0 .69213-3.89167 17.0572 17.0572 0 0 0 .59485-3.27136 28.45654 28.45654 0 0 0 .77375-4.25323.61194.61194 0 0 0 .04248-.37268c.16967-.80695.81817-1.15778 1.61169-1.3949a5.0582 5.0582 0 0 0 .84741-.43366v-.00006c.41437-.03637.71552-.62951 1.26007-.06714 2.58063 2.66523 5.20606 5.28711 7.82734 7.91266 2.25451 2.25818 4.5249 4.50049 6.78833 6.74982 2.02764 2.21362 4.16552 4.31775 6.342 6.38354 1.68884 1.75232 3.26971 3.60987 5.09637 5.22785q3.1018 3.09768 6.20355 6.19537l9.10156 9.12317c2.54657 2.62531 5.07691 5.26685 7.73456 7.7818q3.60049 3.64956 7.201 7.29907a3.15752 3.15752 0 0 0 .7619.82849 31.52269 31.52269 0 0 1 3.29187 3.43171 12.387 12.387 0 0 0-2.96 4.39776 3.1983 3.1983 0 0 1-1.3128-.16138c-.09668-.00866-.19294-.0158-.28949-.02258-.17389-.1051-.34876-.20813-.53015-.29791q-20.61018-10.197-41.22449-20.3855c-3.09284-1.52808-6.19623-3.03473-9.29566-4.5495-.13983-.13049-.28955-.24811-.42468-.38476a17.07446 17.07446 0 0 0-2.94647-1.546 1.21894 1.21894 0 0 1-.86206-1.46125.987.987 0 0 0-.07326-.27081zm237.25976-39.51868c-.1817.15058-.36316.37543-.54223.00446a1.165 1.165 0 0 0-.115-.05164q-.77244-3.23949-1.54493-6.47894-.58172-2.42358-1.16333-4.84729l-1.51226-6.19372c-.18463-1.45557-.69934-2.83381-.99823-4.26264a10.39758 10.39758 0 0 0-.30378-1.30353 2.51409 2.51409 0 0 1 .60358-2.83233 11.64049 11.64049 0 0 0 2.99207-9.04718 3.21043 3.21043 0 0 0-.05359-.79657.79953.79953 0 0 0-.09027-.37281l-.02686-.372c-.1803-.89886.75824-1.23907.96991-1.94226v-.00006c.16907-.18994.33606-.38165.50745-.56952a62.23185 62.23185 0 0 0 4.53045-5.43744 56.73937 56.73937 0 0 0 4.24463-5.04663c.32044-.38263.62653-.77832.96369-1.14563 1.77234-1.93078 3.4624-3.92993 5.04284-6.02118 1.57587-1.66589 3.00916-3.45257 4.44159-5.24011q1.45872-1.74205 2.91736-3.48413c.432-.34686.45453-1.12628 1.203-1.13891a3.22716 3.22716 0 0 1-.34387 1.36084 20.85727 20.85727 0 0 0-1.01068 3.267c-.0166.02765-.04388.05371-.04834.08319l-.00513.03083a2.251 2.251 0 0 0-.14605.31122q-4.64649 13.8943-9.28675 27.79077-3.72656 11.17089-7.43835 22.34662c-.68622 1.90771-1.38611 3.811-1.89826 5.77587q-1.05294 2.73954-1.85186 5.5633c-.01304.01633-.02366.03415-.03679.05044zM39.7641 240.24323a.67109.67109 0 0 0-.60938.00811 9.99719 9.99719 0 0 0-4.50463-2.18054l-.0492-.11481a1.08257 1.08257 0 0 0-.4267-.37835c-1.73919-.8064-3.46167-1.64728-5.17932-2.49842a.596.596 0 0 0-.62756-.03436l-.00873-.02246a5.1041 5.1041 0 0 0-1.90393-1.12109 2.00393 2.00393 0 0 1-1.41626-2.2956 10.42758 10.42758 0 0 0-4.15137-9.12 1.07407 1.07407 0 0 1-.40979-1.26c.384-1.43225.72931-2.87476 1.08637-4.31415a2.46215 2.46215 0 0 0 .08789-1.2392c.21936-.06982.28162-.28985.33606-.48632.37457-1.3512.70288-2.71442 1.0249-4.07892a.79587.79587 0 0 0-.13647-.80255.44052.44052 0 0 0 .41528-.39228 38.74493 38.74493 0 0 0 1.343-5.87628.72967.72967 0 0 0 .2572-.46307c.37268-1.35565.7055-2.72174 1.02771-4.09015a.79669.79669 0 0 0-.13995-.80994c-.00434-.0318-.00959-.06347-.014-.09527.58032.0653.50329-.50727.58594-.82129.55536-2.11109 1.07537-4.23157 1.59973-6.35077.08948-.36151.25738-.74774-.06891-1.09168l-.00025-.00036c.46015-.16907.494-.62775.59235-1.01337.8924-3.50043 1.755-7.00842 2.63275-10.51257a2.75235 2.75235 0 0 0 .10724-1.05213c-.02637-.18084-.03046-.36133-.04791-.542.14068-.49268.28314-.98486.41711-1.47937.79627-2.93774 1.37274-5.93268 2.29908-8.83667q1.18652 3.28683 2.37316 6.57367c.18616.57764.35822 1.16028.56086 1.73205q1.65143 4.66041 3.31536 9.31635 1.66177 4.7471 3.32355 9.49414l3.87272 11.03608c.06311.21534.11634.43409.19068.64539q4.2268 12.01666 8.45947 24.03119c1.07165 3.03674 2.1673 6.065 3.25268 9.09686a2.635 2.635 0 0 0-.1466.23517 2.71854 2.71854 0 0 0 .26147 1.01593c.95264 2.85126 2.05 5.653 2.92316 8.53186a.408.408 0 0 0-.41028.22064 1.97242 1.97242 0 0 1-2.24011 1.079c-.032-.05621-.06738-.11-.0993-.16632a28.08334 28.08334 0 0 0-3.8725-1.93011c-.51923-.215-.97479-.65528-1.6081-.53778-.00769.01019-.00769.02008-.01477.03021a4.43279 4.43279 0 0 0-2.8648-1.40222c-.00843.01941-.00452.03631-.01148.05542a3.13252 3.13252 0 0 0-2.29944-1.17682c-.01873-.03711-.03808-.074-.05682-.11115a24.98064 24.98064 0 0 0-3.68939-1.84735.26873.26873 0 0 0-.23889.01752l-.0152-.03424a41.32594 41.32594 0 0 0-5.08368-2.53963zM81.24115 51.23737c.09106-.1037.18512-.205.2785-.30677.34778-.16827.69623-.3352 1.04126-.509 1.67371-.84332 3.436-1.50934 5.03-2.51227a28.04405 28.04405 0 0 0 4.25794-1.9834c.36053.09119.60186-.17334.88159-.307q12.22531-5.84107 24.44513-11.69367c4.25567-2.0412 8.49975-4.10663 12.74908-6.16113q2.19067-1.07685 4.38135-2.15381c1.76941-.83618 3.55395-1.64246 5.30115-2.5227.73877-.37214 1.25073-.44782 1.49731.49578.0116.04438.09625.06971.14685.10389q.27384.46563.54761.93127a35.90137 35.90137 0 0 0-1.89191 3.90082 41.43744 41.43744 0 0 0-2.14074 4.4447 60.76531 60.76531 0 0 0-2.71326 5.61951 54.50556 54.50556 0 0 0-2.52887 5.204 61.89133 61.89133 0 0 0-2.7121 5.61834 34.94347 34.94347 0 0 0-1.91925 3.91669 37.8108 37.8108 0 0 0-1.94495 4.05158c-.298.56512-.621 1.11883-.88549 1.69922a.91469.91469 0 0 1-.87751.60827A10.82218 10.82218 0 0 0 116.32 63.658a.91583.91583 0 0 1-1.14551.32892c-.91779-.288-1.85809-.50434-2.789-.75049q-2.80985-.77865-5.61969-1.55725c-2.179-.65143-4.355-1.31366-6.5791-1.80029a52.2251 52.2251 0 0 0-5.4357-1.51781c-.44483-.09912-.87384-.25286-1.3075-.38342a30.80335 30.80335 0 0 0-4.50124-1.19566 34.66547 34.66547 0 0 0-4.455-1.29547L78.92291 53.945a.54188.54188 0 0 0-.02765-.11109c-.36242-.37933-.92309-.36151-1.362-.63458 1.22602-.74108 2.56348-1.17016 3.70789-1.96196zm254.58893 124.83648a10.74426 10.74426 0 0 0-.19318 11.85028 1.632 1.632 0 0 0 .53613 1.21369c.44147.43359.38538.772-.0241 1.21106a2.9922 2.9922 0 0 0-.97876 1.4978.52375.52375 0 0 0-.43457.13892c-1.16437 1.0274-2.084 2.28295-3.15546 3.39746a.29793.29793 0 0 0-.03137.34924c-.29669-.13178-.46582.18713-.65729.37537-1.39142 1.36761-2.61169 2.89666-4.00916 4.25915a1.50048 1.50048 0 0 0-.53607.9848 3.61785 3.61785 0 0 0-1.51544 1.306 5.81144 5.81144 0 0 0-1.624 2.159l.00024.0105a.33771.33771 0 0 0-.40869.09918 44.3163 44.3163 0 0 0-3.24963 3.54987.4641.4641 0 0 0-.03907.37506c-.00091.02453.00037.04956-.00012.07415-.36816-.17022-.5813.19526-.79474.40192-1.32184 1.27942-2.52618 2.67255-3.75067 4.042-.4834.54059-1.1441.97687-1.36133 1.73352a.70514.70514 0 0 0-.61535.351c-.69043.89721-1.57257 1.61987-2.27521 2.49554a7.277 7.277 0 0 0-1.42731 1.84058c-.58423.10583-.858.62054-1.17529 1.03576-.237.31019-.41779.25037-.62714.11481l.01105-.00952a1.11264 1.11264 0 0 0 .46259-.90924c.16412-1.68842.25354-3.38312.41973-5.07172a1.3082 1.3082 0 0 0-.13317-.82177 1.443 1.443 0 0 1 .14355-.17945 18.71453 18.71453 0 0 0 .38678-3.96692 3.27143 3.27143 0 0 1 .09644-1.26593 4.638 4.638 0 0 0 .08117-.94189 3.34246 3.34246 0 0 1 .11005-1.20886 4.4355 4.4355 0 0 0 .07959-.91437 3.0419 3.0419 0 0 1 .1073-1.04175.94.94 0 0 0-.11206-.73218c-.02863-.00494-.04675-.00116-.07331-.00433.06366-.44275.14625-.88361.18781-1.32831q.84851-9.08048 1.68579-18.16192.60919-6.62842 1.20044-13.25843.02215-.47049.04425-.94092l.00006-.00018v.00018a2.51052 2.51052 0 0 0 .14917-1.179q.57687-6.20435 1.15381-12.40869l.98639-10.85425q.01593-.28308.032-.5661l.00061-.00189a2.45274 2.45274 0 0 0 .14838-1.1659q.02481-.47552.04956-.951l.00037-.00128a2.5497 2.5497 0 0 0 .14935-1.18017c.13-1.20087.26007-2.4018.41156-3.801.54877.76373.95233 1.32532 1.35583 1.887q2.39411 3.96461 5.03034 7.77253 2.01442 3.36867 4.26166 6.58685c1.58581 2.62714 3.2622 5.1958 4.99047 7.731 1.30347 2.13409 2.64826 4.24145 4.07459 6.29583l.00384.04346a2.39515 2.39515 0 0 0 .45466 1.15143c.62646 1.00964 1.24475 2.02588 1.94128 2.988a.91046.91046 0 0 1-.15448 1.46185 3.23394 3.23394 0 0 0-1.38987 2.08218zM88.54541 238.55054c.02155.0202.03748.04437.05945.06427.33624-.059.46533-.33826.5758-.59741.44159-1.03565.9679-2.0329 1.38788-3.07752a1.20745 1.20745 0 0 0 .15052-.709l.007.00006a8.49179 8.49179 0 0 0 1.65509-3.27881 1.87128 1.87128 0 0 0 .28913.49829q6.035 7.81467 12.03 15.66a2.73555 2.73555 0 0 0 .74084.75739 34.40881 34.40881 0 0 0-3.479.38006.75313.75313 0 0 0-.5567.33857.7223.7223 0 0 0-.28827-.11536 15.604 15.604 0 0 0-3.84345.52991.51877.51877 0 0 0-.07513.1914 3.232 3.232 0 0 0-2.96289.37818 1.06358 1.06358 0 0 0-.28858-.14887 22.5522 22.5522 0 0 0-3.60895.35834.53088.53088 0 0 0-.37011.179 1.42129 1.42129 0 0 0-.27527-.03022 16.05971 16.05971 0 0 0-4.027.62305.71851.71851 0 0 0 .03443.2066c-.03394-.00158-.06507-.00683-.10029-.007a1.01435 1.01435 0 0 0-1.47033.16413l-.02033-.027c-.98-.23193-.97986-.23181-.54992-1.2218a2.09521 2.09521 0 0 0 .2973-1.00775c.2478-.08643.35535-.32147.47052-.53644a13.24469 13.24469 0 0 0 1.2514-3.12732l-.00128-.01154a.54679.54679 0 0 0 .33783-.28076 13.468 13.468 0 0 0 1.40723-3.20666c-.0224-.03736-.046-.074-.06842-.11133a3.85306 3.85306 0 0 0 1.3012-2.811c-.00244-.00833-.0072-.01522-.0097-.02346zm23.33643 17.54736a265486.7757 265486.7757 0 0 0 4.77337 6.09369c1.97925 2.71045 4.01044 5.381 6.13343 7.981 1.16021 1.68243 2.416 3.29144 3.73022 4.85559q1.668 2.22372 3.33392 4.449a.75421.75421 0 0 0 .67963.27075q2.74557.02389 5.491.05915l3.82946.05493c3.50159.19293 7.0066.189 10.51166.18255 3.52844.22712 7.06207.181 10.59442.20234a12.85283 12.85283 0 0 0 1.36774.07574c1.82672.08307 3.65527.08246 5.48395.08093q-.79926 1.74243-1.59845 3.48481-.925 1.949-1.85 3.89794-.783 1.64676-1.56616 3.29352a34.443 34.443 0 0 0-1.75507 3.6781l-1.78375 3.67487q-1.04791 2.23269-2.09588 4.46545-.70359 1.44553-1.40723 2.89106l.00006.00006q-.74139 1.56142-1.48273 3.12286-.87276 1.83847-1.7456 3.677a35.52053 35.52053 0 0 0-1.759 3.67884 30.78512 30.78512 0 0 0-1.744 3.68273 13.18843 13.18843 0 0 0-1.13391 2.33393 23.76184 23.76184 0 0 0-1.2544 2.61688c-.48566.19232-.7337-.17267-1.02539-.4408a4.23371 4.23371 0 0 0-1.1925-.96807 1.00012 1.00012 0 0 0-.26361-.4776c-1.52961-1.9032-3.36213-3.515-5.06238-5.25379-.19141-.19574-.3891-.44891-.736-.32941l-.0252-.00231c.18145-.39954-.18708-.61536-.40576-.8379q-2.50013-2.54406-5.03949-5.04937a1.87231 1.87231 0 0 0-.6811-.45648.575.575 0 0 0-.13964-.324 30.4985 30.4985 0 0 0-3.45655-3.36169c-.02984-.0091-.05841-.02161-.08819-.03083a4.17935 4.17935 0 0 0-2.37177-2.33929c-.02081-.00141-.0404-.00623-.06116-.00788a4.13212 4.13212 0 0 0-2.42132-2.47753 7.76215 7.76215 0 0 0-2.90613-3.05616c-.02637-.00152-.05017-.01007-.07611-.01281q-1.17353-1.1944-2.34711-2.38874c-1.059-1.38928-2.57013-2.32855-3.665-3.68213-1.82586-2.02758-3.75268-3.95587-5.73675-5.82769-.22717-.26581-.438-.54792-.68414-.79474q-2.88777-2.89554-5.78693-5.77948a3.89307 3.89307 0 0 0-.33283-.44812c-5.57293-5.656-11.12554-11.3324-16.74676-16.94007-1.00018-.9978-1.75488-1.89141-1.12177-3.34918l.05506-.35028.36255-.03888 3.485-.416v-.00006q1.06514-.18622 2.13013-.3725.87717-.10868 1.75433-.21729c1.68061-.21838 3.36939-.38079 5.02893-.74151a24.60962 24.60962 0 0 0 3.87726-.568 24.66561 24.66561 0 0 0 3.48657-.43908l4.06855-.5766c1.08175-.14356 2.16458-.28723 3.37253-.44745zm139.97381 53.47534a12.68576 12.68576 0 0 0-1.51855 2.55414 1.86086 1.86086 0 0 1-1.28577 1.02252 1.96483 1.96483 0 0 1-2.45782-.67431.9084.9084 0 0 0-.55329-.36133l-.00506.00036a25.18 25.18 0 0 0-2.62891-3.41375 46.40079 46.40079 0 0 0-3.05084-3.89624 19.35335 19.35335 0 0 0-1.97077-2.50367 14.56184 14.56184 0 0 0-2.00714-2.49737 23.66275 23.66275 0 0 0-2.35779-3.093l-2.462-3.11188a35.766 35.766 0 0 0-2.75543-3.48742 20.31868 20.31868 0 0 0-2.10163-2.70935 15.33915 15.33915 0 0 0-1.69262-2.14954 17.57618 17.57618 0 0 0-1.805-2.30646c-.20892-.56506-.87933-.85437-.91119-1.5252.43219-.00306.55573-.38752.76746-.64453q2.36388-2.86973 4.70892-5.75483c1.523-1.71521 2.99548-3.47192 4.36285-5.31494a6.77964 6.77964 0 0 0 1.21015-1.34674q3.79888-4.61068 7.58349-9.23315 2.32681-2.76939 4.6529-5.53949 4.3331-5.18226 8.65881-10.37085c-1.03949-.46753-2.07043.03821-3.106.027a15.00964 15.00964 0 0 0-2.71307.18328q-1.84231.1138-3.68463.22766l-2.9079.19318q-2.41909.17386-4.83832.34778a16.65443 16.65443 0 0 0-2.90667.1936 12.7098 12.7098 0 0 0-2.713.19379 10.83708 10.83708 0 0 0-2.71429.19354 36.47531 36.47531 0 0 0-4.06677.22425q-2.51953.1819-5.03907.36376-1.84441.11153-3.6889.223-2.32187.17605-4.64368.352a37.86313 37.86313 0 0 0-4.07934.2351c-.17786.01123-.35657.03046-.53491.04651a1.50243 1.50243 0 0 0-.31562.02747 16.63227 16.63227 0 0 1-3.26568.14465c-2.09149-.20947-3.09192.7-3.40753 2.63867-.01026.06293-.01972.12592-.02955.18891a7.69151 7.69151 0 0 1-.68023 1.14068c-.62708.73847-.40644 1.29688.27728 1.8086a9.21828 9.21828 0 0 0 1.362 1.73407 7.72856 7.72856 0 0 0 1.3623 1.73712 13.81359 13.81359 0 0 0 1.71564 2.1759q.79377 1.03245 1.58746 2.06494l1.102 1.37647a7.88873 7.88873 0 0 0 1.21375 1.54913 10.39789 10.39789 0 0 0 1.36212 1.73535 15.20869 15.20869 0 0 0 1.72308 2.18488q.79093 1.0265 1.58191 2.053a20.385 20.385 0 0 0 1.90888 2.39056 6.87452 6.87452 0 0 0 1.17785 1.51392 14.58407 14.58407 0 0 0 1.68439 2.14136 18.70567 18.70567 0 0 0 1.99042 2.5318 9.33883 9.33883 0 0 0 1.35815 1.74029q.79413 1.04388 1.58826 2.08783c-.0481.19928-.19824.218-.36774.21491-2.6358-.04816-5.27148-.1023-7.90753-.13733a5.29671 5.29671 0 0 0-2.26013.12579q1.95382 2.441 3.90765 4.88184a15.71372 15.71372 0 0 0 1.75745 2.28985 13.46824 13.46824 0 0 0 1.72363 2.17 20.18233 20.18233 0 0 0 2.12384 2.73169 37.59135 37.59135 0 0 0 2.6897 3.44684 38.99919 38.99919 0 0 0 2.74725 3.51532q1.17435 1.51988 2.34864 3.0398.95169 1.19988 1.90338 2.3999a18.13086 18.13086 0 0 0 1.92517 2.47674q1.47767 2.09373 3.14966 4.03583 1.29648 1.84927 2.76758 3.56262a.72365.72365 0 0 0-.00464.22284 1.49331 1.49331 0 0 0 .1455.354c.53.93933.52961.93878-.53167 1.09125-1.61286.23162-3.24439.32489-4.84259.6524a4.97145 4.97145 0 0 0-.63135.27423c-3.49921.37579-7.00006.73786-10.48059 1.26923-1.50452.17535-3.0094.347-4.51343.52667q-9.36777 1.11877-18.735 2.2417-10.08772 1.20822-20.17486 2.4212c-2.46173.29853-4.919.63373-7.37824.95221h-.00024c-1.3064.13361-2.61542.24567-3.91864.40552-2.225.27283-4.44727.569-6.67029.85815-.17279-.04138-.34595-.07965-.51782-.12793a22.842 22.842 0 0 0-3.50818.29535c-.39349.03217-.85034.21149-1.04242-.3573-.0069-.02026-.02069-.02978-.02838-.04882.54749-.84974.6438-1.91175 1.24438-2.73652a14.43873 14.43873 0 0 0 1.13691-2.48376 38.35889 38.35889 0 0 0 1.91443-4.12311 25.52322 25.52322 0 0 0 1.538-3.30981 37.62993 37.62993 0 0 0 1.778-3.854 23.38615 23.38615 0 0 0 1.52845-3.29974 18.39387 18.39387 0 0 0 1.35186-2.90564 47.39248 47.39248 0 0 0 2.14637-4.64813 29.80234 29.80234 0 0 0 1.72131-3.70069 36.546 36.546 0 0 0 1.58282-3.42163 28.59009 28.59009 0 0 0 1.72382-3.7323 33.77011 33.77011 0 0 0 1.79388-3.85943h.00006q1.04251-2.14215 2.08509-4.2843 5.1287.07791 10.25744.1557 5.8169.10107 11.63385.20221 6.00569.1344 12.0113.26886c.22888-.32093-.11506-.444-.24115-.60743-.71839-.93042-1.46253-1.84088-2.19794-2.75818l-1.64276-2.09942q-.67987-.87086-1.3598-1.7417a12.787 12.787 0 0 0-1.525-1.94782 23.87354 23.87354 0 0 0-1.79736-2.31231q-.98145-1.26223-1.963-2.52454a14.164 14.164 0 0 0-1.891-2.32477 7.99658 7.99658 0 0 0-1.47711-1.96185 14.63023 14.63023 0 0 0-1.83185-2.30322 17.51468 17.51468 0 0 0-2.08471-2.71881c-.63727-1.20282-1.39264-2.15-2.95032-1.3656a.18081.18081 0 0 1-.09473.01318c-1.72284-.1767-2.41754.86884-2.76666 2.32574q-.81417 1.7308-1.62829 3.46155l-1.26343 2.73981q-.58146 1.25967-1.1629 2.51941-.6211 1.34528-1.24219 2.69061-.77289 1.64859-1.54584 3.29706a20.6741 20.6741 0 0 0-1.26294 2.73273l-1.16528 2.51873q-.40613.86784-.81238 1.73566c-2.63928-.05115-5.27881-.0896-7.9173-.16724-.4176-.01232-.90423.18274-1.26037-.22943q.32647-.75989.653-1.51977a20.5073 20.5073 0 0 0 1.4068-2.90357l-.00006-.00006q.55481-1.1673 1.1095-2.33459.68966-1.4535 1.37945-2.907a9.87245 9.87245 0 0 0 .74524-1.558c.38983-.36816.32977-.93237.59107-1.35657q.29488-.56607.58984-1.1322a1.26844 1.26844 0 0 0 .37958-.79138l.57013-1.18567a6.21955 6.21955 0 0 0 .80969-1.683 12.93538 12.93538 0 0 0 1.13354-2.37409 17.16359 17.16359 0 0 0 1.18775-2.51342 7.91352 7.91352 0 0 0 .94079-1.95c.83735-1.392.83777-1.39263-.327-2.36462-.14423-.12036-.29694-.23059-.44568-.34546q-.907-1.06356-1.814-2.12707a12.0721 12.0721 0 0 1-1.48358-3.02039c-.20209-.81854-.62384-.94641-1.38013-.82629-2.2246.35315-4.46459.60962-6.689.96454-1.88422.30065-3.79083.454-5.66064.84649a1.2206 1.2206 0 0 0-.43537.08539 46.31 46.31 0 0 0-5.45251.76538l-.00226.00031a36.14515 36.14515 0 0 0-4.22034.59478 27.02613 27.02613 0 0 0-4.07867.57679 25.48907 25.48907 0 0 0-4.08765.57672l-.00122.00018a26.2803 26.2803 0 0 0-4.07965.57251 13.46121 13.46121 0 0 0-2.87177.405 2.80129 2.80129 0 0 0-1.356.19391c-.32483.0426-.692-.14624-.96552.17657a5.212 5.212 0 0 0-1.92834.22278 9.90144 9.90144 0 0 0-1.9394.21893q-1.41311.22688-2.82623.45374a1.35745 1.35745 0 0 0-.50635.0813 10.609 10.609 0 0 0-2.68029.37768 28.40371 28.40371 0 0 0-3.88373.53046 1.11081 1.11081 0 0 0-.38587.06976 16.96564 16.96564 0 0 0-3.08807.41559 12.67258 12.67258 0 0 0-2.51862.36749c-.7481.07959-1.49737.15931-2.43744.25928-1.97045-2.56586-3.81317-4.99335-5.69421-7.38989-.36078-.4596-.30182-.64826.21716-.78992l.5503-.06848q.77965-.10236 1.55932-.20477l2.90522-.38159a30.9812 30.9812 0 0 0 3.676-.52924 24.89163 24.89163 0 0 0 3.4892-.42993q1.55118-.20133 3.10248-.40277 1.25711-.17817 2.51422-.35627a3.5153 3.5153 0 0 0 1.35675-.18774c.39782.00549.81189.11444 1.16241-.18207a8.86971 8.86971 0 0 0 2.13764-.22729q2.22162-.295 4.44323-.58991 1.35846-.18547 2.71686-.37085a2.00011 2.00011 0 0 0 1.1648-.17669c.39611-.00129.8081.10907 1.16565-.16492.52069-.03961 1.06817.11389 1.54858-.21527a9.077 9.077 0 0 0 2.12445-.23029q1.4599-.19418 2.91974-.3883a32.615 32.615 0 0 0 3.87012-.54358 28.36441 28.36441 0 0 0 3.49719-.43073c1.68292-.20269 3.37494-.34118 5.03424-.71112 1.75732-.08526 3.48511-.40808 5.223-.64911q2.9079-.37875 5.81568-.75756 2.13537-.29251 4.27081-.58515c.82361-.10254 1.6543-.16748 2.46857-.31988.624-.1167.88739-.79761.48846-1.15534a8.71632 8.71632 0 0 0-.856-.60736 7.61135 7.61135 0 0 0-1.52893-1.1745q-.65-.49383-1.3-.98755l.00006-.00006a11.47976 11.47976 0 0 0-1.97992-1.536h.00007a33.70823 33.70823 0 0 0-3.28412-2.52435c-1.69391-1.43042-3.46247-2.7641-5.26215-4.05731-2.91656-2.26606-5.82532-4.54224-8.75189-6.79523-2.622-2.01843-5.26355-4.01148-7.89655-6.01569l-.00018-.00024a63.34643 63.34643 0 0 0-5.242-4.012v.00007a26.40935 26.40935 0 0 0-3.299-2.52363c-.84753-.5064-1.41156-1.37164-2.30444-1.82061a2.77049 2.77049 0 0 0-.97522-.75293 9.04163 9.04163 0 0 0-1.7456-1.35089l-2.13977-1.662q-.77472-.59454-1.54944-1.18927v.00006q-1.26014-.96936-2.52021-1.93878a23.63164 23.63164 0 0 0-2.681-2.05414l-.00006-.00018a14.35293 14.35293 0 0 0-2.74615-2.03418 14.0553 14.0553 0 0 0-2.32514-1.89063c-.25146-.21142-.4295-.52551-.87457-.3349-.59839.25635-1.22937.43659-1.84631.64948l-1.73236.20929-1.16248.00073c-.44366.00464-.88537-.4198-1.33093-.006a6.62931 6.62931 0 0 0-.83277 1.72485q-.36218.78241-.72442 1.56482-.7565 1.55658-1.51306 3.11316-1.185 2.51211-2.36988 5.02411-.56076 1.16373-1.12152 2.32757-.32886.67291-.65777 1.34577a3.54988 3.54988 0 0 0-.60913 1.34173 17.51144 17.51144 0 0 0-1.29291 2.73542 25.3535 25.3535 0 0 0-1.50409 3.10479q-.88036 1.84251-1.7608 3.68506-.78114 1.64594-1.56226 3.29193-.776 1.64428-1.55194 3.2887-.42471.86316-.8493 1.72644-.75861 1.55-1.51722 3.1001c-1.48144-1.894-2.95373-3.79535-4.45691-5.67188-.17065-.21307-.21862-.77014-.74762-.47668l-1.14971 2.6817q-.95967 2.03787-1.91919 4.07574-.77308 1.6487-1.54615 3.29731a39.04559 39.04559 0 0 0-1.73944 3.68341q-.91095 1.92663-1.82184 3.85339-.75531 1.65207-1.51056 3.3042c-.30011.84851-.78472.93427-1.57775.53583a7.06866 7.06866 0 0 0-2.69562-.68885 7.27225 7.27225 0 0 0-2.91486-.05242c-.88727.19207-1.33716-.25489-1.50714-1.06232a31.3539 31.3539 0 0 0-1.41394-4.1604 1.6251 1.6251 0 0 0-.22107-.92377q-4.47454-12.83588-8.9718-25.66369c-1.243-3.54395-2.51074-7.07923-3.76721-10.61841-.8075-2.621-1.70478-5.21064-2.71216-7.76178-.86438-2.60309-1.67419-5.22516-2.70532-7.77021-.5951-1.537-.94782-3.15881-1.61225-4.67169.01978-.13434.03327-.26867.05848-.403a40.22541 40.22541 0 0 0-1.39374-4.32373c-.0968-.2757-.20655-.63507-.56458-.64185l.00287-.00427a.689.689 0 0 0 .06159-.55963 39.36247 39.36247 0 0 0-1.6026-4.646.4.4 0 0 0-.20472-.21063 1.95687 1.95687 0 0 0-.10241-.84857c-.61713-1.69922-1.19281-3.41254-1.77533-5.12372a.97593.97593 0 0 0-.435-.62543 2.88708 2.88708 0 0 0-.19464-1.08716c-.331-.974-.613-1.96631-1.02326-2.91113-.27533-.634-.137-1.01.54432-1.25128a2.29109 2.29109 0 0 0 1.35437-.87042.38053.38053 0 0 0 .374-.01233 4.03366 4.03366 0 0 1 2.37475-.80371 19.29574 19.29574 0 0 0 3.3368 1.55273 27.29755 27.29755 0 0 0 3.68731 1.70465 29.27636 29.27636 0 0 0 3.70307 1.73383 30.706 30.706 0 0 0 3.83093 1.766 17.318 17.318 0 0 0 2.92572 1.36645 11.99412 11.99412 0 0 0 2.499 1.15265 13.03619 13.03619 0 0 0 2.4953 1.17261 25.33891 25.33891 0 0 0 3.34034 1.55164 23.95772 23.95772 0 0 0 3.2965 1.52734 22.52893 22.52893 0 0 0 3.31714 1.54114c.4798.2464.96735.47894 1.43775.74212a10.19126 10.19126 0 0 1 2.66455 1.418q-1.16154 4.73393-2.32312 9.4679l-1.95246 7.94965-1.54351 6.20092q-.89008 3.51435-1.783 7.02783a.85975.85975 0 0 0 .25824.7829q1.70535 2.199 3.40734 4.40058c1.0188 1.29693 1.91077 2.6925 3.03809 3.905q1.671 2.39052 3.54681 4.624l3.12195 4.2381c.62384-.14368.54505-.74915.76233-1.1601q.49017-1.05688.98047-2.11377a17.29092 17.29092 0 0 0 1.36688-2.9035 8.8399 8.8399 0 0 0 .97736-2.07471 26.33109 26.33109 0 0 0 1.5802-3.33728 9.22141 9.22141 0 0 0 .91144-1.96777 18.42129 18.42129 0 0 0 1.3609-2.8935 35.35139 35.35139 0 0 0 1.96124-4.20391 40.23675 40.23675 0 0 0 2.12762-4.51136 28.72155 28.72155 0 0 0 1.72681-3.68206c.87445-1.81726 1.74323-3.63733 2.62836-5.44941a.71985.71985 0 0 0-.115-.86938 10.24216 10.24216 0 0 1-1.95294-3.93976.75684.75684 0 0 0-.74738-.626 13.7385 13.7385 0 0 0-2.33655-1.1073q-1.25958-.58263-2.5191-1.16534a18.47878 18.47878 0 0 0-2.69232-1.24408 8.7194 8.7194 0 0 0-1.95649-.90265 3.6092 3.6092 0 0 0-1.34716-.619 9.71233 9.71233 0 0 0-2.12091-.99615l-1.76673-.85565a7.25209 7.25209 0 0 0-1.93829-.81128 6.15643 6.15643 0 0 0-1.5481-.77966 2.23383 2.23383 0 0 0-.93792-.43592 1.09956 1.09956 0 0 1-.04786-.37579q.80595-3.354 1.63178-6.70331a.404.404 0 0 1 .34009-.29785l1.137.45654a12.64163 12.64163 0 0 0 2.48834 1.15534 5.579 5.579 0 0 0 1.60663.75091 13.18082 13.18082 0 0 0 2.51184 1.16376 6.152 6.152 0 0 0 1.72656.80591 3.32255 3.32255 0 0 0 1.18805.54919q1.2454.60178 2.49079 1.20349a6.189 6.189 0 0 0 1.7456.76612q.68262.35934 1.36536.71869.37792.13942.75592.2788a1.54454 1.54454 0 0 0 .7691.34559c1.15894.66809 1.15979.6687 1.905-.42438.088-.12915.16028-.269.23987-.40393a22.09108 22.09108 0 0 1 2.34412-2.27106 12.71094 12.71094 0 0 1 3.48523-1.59021c.467-.101.48517-.46106.5274-.80792.12451-1.02106.23505-2.04383.35193-3.0658q.60791-5.315 1.21637-10.62988l.5766-4.84216q.20343-1.84314.4068-3.68622.12139-1.06641.24292-2.13288a12.95029 12.95029 0 0 0 .30926-2.31768q.02572-.38517.05152-.77033a1.80688 1.80688 0 0 0 .15374-.97546l.053-.78363a37.559 37.559 0 0 0 .51715-4.05939 37.904 37.904 0 0 0 .44037-4.07733 15.15179 15.15179 0 0 0 .35816-2.90357l.36438-2.90258q.20535-1.84361.41082-3.6872l.36493-2.90942a37.20063 37.20063 0 0 0 .43927-4.06775 40.27125 40.27125 0 0 0 .539-4.26129l.38763-3.29377a9.47847 9.47847 0 0 0 .2102-2.32714c2.49653-1.35059 5.13678-2.396 7.69251-3.62091.14667-.07032.23462.01623.29535.14221q-.11086 1.24979-.22168 2.49951a15.78079 15.78079 0 0 0-.3877 3.2912 15.71721 15.71721 0 0 0-.38794 3.2923 1.7152 1.7152 0 0 0-.1521.97827l-.022.391a6.08272 6.08272 0 0 0-.21283 1.92731 15.71276 15.71276 0 0 0-.38751 3.29406 4.368 4.368 0 0 0-.20416 1.72113 16.80364 16.80364 0 0 0-.38971 3.32373 30.2387 30.2387 0 0 0-.54364 4.46173 18.38933 18.38933 0 0 0-.41419 3.681q-.17458 1.06641-.349 2.13269-.01848.57689-.037 1.15369a4.36627 4.36627 0 0 0-.20362 1.72009h-.00006a16.51712 16.51712 0 0 0-.3883 3.29322 35.72585 35.72585 0 0 0-.57111 4.86554 1.6625 1.6625 0 0 0-.1521.97583l-.0108.19915a8.23668 8.23668 0 0 0-.22669 2.11451 1.65457 1.65457 0 0 0-.15252.98138l-.03132.58691c-.36944.54145-.1383 1.153-.20214 1.73017-.04926.049-.06507.09033-.05439.12555a1.85613 1.85613 0 0 0-.09832.8504l-.05017.74945a35.47189 35.47189 0 0 0-.57166 4.868 64.41711 64.41711 0 0 0-.77484 6.5885c-.40051 2.01819-.48425 4.07733-.793 6.10614-.10858.71332.1004 1.10669.78107 1.27478l1.94574 1.57093q.38506.39368.7702.78729c.248.58453.63061.26031.98224.14545q.39093-.11106.78192-.22223a4.62266 4.62266 0 0 0 1.54388-.53974q.48414-.12075.9682-.24164c.27173-.09582.59955-.059.7948-.33581a1.92754 1.92754 0 0 0 .9491-.22888l.5816-.18622 1.35517-.412q1.16309-.3738 2.32611-.7475 1.25931-.39256 2.51855-.78521 1.55-.48707 3.09992-.97419a10.32787 10.32787 0 0 0 2.15332-.69165 10.74627 10.74627 0 0 0 2.11072-.65222 5.72207 5.72207 0 0 0 1.56781-.50525l.00012.00019a7.212 7.212 0 0 0 1.9212-.63575l.00006-.00006a2.18138 2.18138 0 0 0 .96869-.23907v-.00006a6.01132 6.01132 0 0 0 1.55585-.5257q.869-.29113 1.7381-.58233a2.88808 2.88808 0 0 0 1.35852-.39655q.7739-.22137 1.54779-.44281l.00006-.00006 1.55194-.52625a11.02067 11.02067 0 0 0 2.13062-.63086q1.16482-.37618 2.32971-.75225l.00012-.00013c2.92279-.901 5.85022-1.78735 8.76727-2.70654 4.05518-1.27783 8.10254-2.58026 12.15326-3.87219l.00006.00006a15.57841 15.57841 0 0 0 2.93207-.94788l.00043-.00006a7.48917 7.48917 0 0 0 1.73071-.5711v.00015a5.06045 5.06045 0 0 0 1.96375-.58612h.00042a2.48078 2.48078 0 0 0 1.14649-.35633l.00024.00006q.67657-.21166 1.353-.4234l.00012.00006a5.48067 5.48067 0 0 0 1.76959-.56427l.00055-.00006a6.51827 6.51827 0 0 0 1.92474-.59607l.55286-.20062-.00006-.00006.00012.00006q.97165-.29132 1.94336-.58258a5.3019 5.3019 0 0 0 1.77191-.56409h.00025a6.65027 6.65027 0 0 0 1.90466-.59674 9.36938 9.36938 0 0 0 2.37769-.74914h.0003a17.48839 17.48839 0 0 0 3.10364-.97187 10.82965 10.82965 0 0 0 2.50592-.78521l.00043-.00006a11.54023 11.54023 0 0 0 2.49987-.78248 2.63862 2.63862 0 0 0 1.17872-.37585.41174.41174 0 0 0 .41552-.18243h.00012a3.38109 3.38109 0 0 0 1.48993-.41785.73387.73387 0 0 0 .60736-.18439h.00007a.72648.72648 0 0 0 .58557-.18371h.00012a2.83432 2.83432 0 0 0 1.14276-.35407q.67969-.21615 1.35938-.43219a1.30746 1.30746 0 0 0 .75158-.22375c.75305-.11774.43677-.73322.53742-1.15461a2.387 2.387 0 0 1 .11627-.56567c.40973-.86328.04846-1.35364-.68036-1.86163-1.79626-1.25183-3.51086-2.62006-5.29065-3.89649-1.98242-1.42169-3.84534-3.00848-5.92877-4.29016-2.25629-1.83624-4.59491-3.56268-6.978-5.22986-1.56421-1.24377-3.15619-2.45013-4.81622-3.56451a27.36341 27.36341 0 0 0-3.32178-2.43652c-.63354-.23072-.89868-.95319-1.54956-1.16071q-.76611-.51654-1.5321-1.03308a12.7046 12.7046 0 0 0-2.92615-2.26306 42.73744 42.73744 0 0 0-3.87329-2.91113 16.03027 16.03027 0 0 0-2.71118-1.94343 8.29433 8.29433 0 0 0-1.74012-1.3576q-.48531-.36822-.97058-.73651-.86553-.626-1.731-1.25208a19.9838 19.9838 0 0 0-3.11225-2.27148 19.99882 19.99882 0 0 0-3.4873-2.54614 6.9857 6.9857 0 0 0-1.9419-1.51294l-1.55182-1.17853a23.82431 23.82431 0 0 0-2.69842-1.98871l-1.94836-1.4668q-1.534-1.1314-3.068-2.26275a29.308 29.308 0 0 0-3.11279-2.297q-1.25528-.9592-2.51062-1.9184c.12433-.36322.49127-.38745.76532-.51507 1.99884-.93109 4.0094-1.83692 6.0094-2.76557.26941-.12506.65417-.139.70843-.55365l-2.85168-1.97222a21.6252 21.6252 0 0 0-3.49591-2.49683 11.057 11.057 0 0 0-2.30182-1.7981 15.48467 15.48467 0 0 0-2.54321-1.85186 20.89635 20.89635 0 0 0-2.68848-2.0246 20.12382 20.12382 0 0 0-2.53937-1.89563 26.54507 26.54507 0 0 0-2.89862-2.14508c-.08758-.25165-.50763-.26209-.48535-.64746 1.14947-.10626 2.26617-.2096 3.38293-.31287 2.3946-.08905 4.78333-.25665 7.16333-.53937a54.10693 54.10693 0 0 0 5.82026-.4295c2.34814-.14307 4.69781-.26367 7.044-.43323q13.02723-.94134 26.05231-1.91247c2.1496-.15992 4.296-.36267 6.44385-.54566a29.02727 29.02727 0 0 0 4.73291-.37005l-.00037-.00007.00073-.00006 1.855-.074a3.174 3.174 0 0 0 1.35889-.13648l.00073-.00018q.57743-.02014 1.155-.04016a3.53156 3.53156 0 0 0 1.3916-.14472l.00074-.00018.53723-.02453c1.09247-.06159 2.18646-.10389 3.2771-.18873 2.275-.177 4.54821-.37646 6.8222-.56671 2.77777-.094 5.54755-.29919 8.31036-.60058a3.22762 3.22762 0 0 1 3.29853 1.14209c.03491.04437.113.05487.1709.08117a5.5479 5.5479 0 0 0 2.24762 1.36054 1.29262 1.29262 0 0 1 1.04742 1.62842 1.5477 1.5477 0 0 0-.0766.45935 5.74741 5.74741 0 0 0-.05109 1.14258l-.01477.20275-.19574 3.68158a26.10861 26.10861 0 0 0-.21337 3.6825 21.27751 21.27751 0 0 0-.19745 3.682 17.08883 17.08883 0 0 0-.21186 3.48461 15.64865 15.64865 0 0 0-.19079 3.27637.66009.66009 0 0 0-.06836.41455 19.46213 19.46213 0 0 0-.13019 2.86554 16.02489 16.02489 0 0 0-.19653 3.29437c-.35144 1.14954.02771 2.3758-.36994 3.52045a4.32751 4.32751 0 0 1-.52-.1886q-3.33884-1.70169-6.67291-3.413c-4.11609-2.10584-8.19867-4.278-12.38147-6.25165a31.47285 31.47285 0 0 1-3.0387-1.57886c-7.689-3.9-15.39428-7.7677-23.08563-11.663a1.614 1.614 0 0 0-1.60052-.05139q-10.89615 5.053-21.82746 10.03a1.98041 1.98041 0 0 1-.98809.34411c-.0553.53534.44622.546.72357.768q1.166.88237 2.332 1.76489c.11767.22559.34729.28357.55664.372a4.96688 4.96688 0 0 0 1.32873.98364 34.42551 34.42551 0 0 0 3.34974 2.49463 32.71107 32.71107 0 0 0 3.44421 2.53912 14.72052 14.72052 0 0 0 2.33051 1.73865l3.33715 2.50275a40.56417 40.56417 0 0 0 3.45752 2.53155 44.61225 44.61225 0 0 0 3.88562 2.90229 40.86 40.86 0 0 0 3.68305 2.71411 35.76491 35.76491 0 0 0 3.65948 2.72058 35.18985 35.18985 0 0 0 3.35285 2.49634 48.33736 48.33736 0 0 0 3.98657 2.94867c.60553.47326 1.19971.96185 1.8186 1.41687 1.90955 1.40374 3.82849 2.79467 5.74384 4.19061a5.1055 5.1055 0 0 0 .41986.38855q7.56253 5.61474 15.13006 11.22265c1.40845 1.04352 1.41285 1.0387 2.89417.0351.29059-.197.57666-.40051.86481-.60107h.00012a7.96494 7.96494 0 0 1 1.03876-.43818c.80713-.21807 1.1936-.67431.99847-1.52917q.09009-1.54349.18-3.087l.05146-1.555-.00013-.00012a5.40127 5.40127 0 0 0 .1496-1.74121q.01419-.58483.02826-1.16962a11.92866 11.92866 0 0 0 .17212-2.51977q.09687-1.64951.19367-3.299l.1939-3.09559q.095-1.54851.18976-3.097.08927-1.54743.17859-3.09473l.19428-3.295-.00007.00006v-.00006q.09714-1.64841.19434-3.29682l.01819-.39233.02142-.77539.04468-.36029c.165-.41986.38934-.44446.79376-.23352 2.30048 1.19983 4.61859 2.366 6.93067 3.54352a3.58715 3.58715 0 0 0 .13458-1.3916q.11756-1.74811.235-3.49628l.362-4.45129.25269-3.85633-.00537-.014a2.23448 2.23448 0 0 0 .12482-1.16076l.20947-2.71833q.10364-1.556.20733-3.11193l-.00012-.00007h.00012l.36914-4.63989q.10474-1.55364.20942-3.1073.155-1.95941.31006-3.91888c.00262-.02045.0039-.043.00518-.06549l.05194-.65668a2.33369 2.33369 0 0 1-.05493.26941.74691.74691 0 0 1 .05493-.26941c.0813-.85437.1626-1.7088.25415-2.6712.21637.15484.34613.23742.46448.33392Q252.13272 82.50946 266.8 94.46375c3.35058 2.72833 6.71881 5.435 10.079 8.15161q3.59866 2.93792 7.19726 5.87573l3.86762 3.16522a29.90319 29.90319 0 0 0 2.90411 2.33588c1.81683 1.61059 3.71124 3.1264 5.63361 4.608.58734.49853 1.17206 1.00024 1.76294 1.49457.49389.4132 1.14764.72827 1.45324 1.24939.36042.61462-.548 1.06671-.56292 1.70868a1.705 1.705 0 0 1-1.51654 1.17157 3.0058 3.0058 0 0 0-1.33545.40905 32.66966 32.66966 0 0 0-4.068 1.00855l-4.46362 1.16217v-.00006q-2.1286.56507-4.25726 1.13006l-3.87476.99549v.00006q-1.45147.38031-2.90295.76068a13.45256 13.45256 0 0 0-2.71778.75647 14.94462 14.94462 0 0 0-3.10034.7749 19.3347 19.3347 0 0 0-3.48987.94092 6.21915 6.21915 0 0 0-1.36688.278c-.57806.25653-.77576-.01825-.93988-.47064-.80713-3.905-1.62384-7.808-2.41-11.71722-.10663-.53015-.45191-.70771-.86145-.91272q-11.5493-5.78266-23.09155-11.57947c-.70032-.382-1.379-.81305-2.10688-1.13239a6.56956 6.56956 0 0 0-2.356-.98913l-.01043 1.715a.388.388 0 0 0-.05469.29114 14.24434 14.24434 0 0 0-.155 2.436 10.04613 10.04613 0 0 0-.184 2.48816 2.61619 2.61619 0 0 0-.08166.5899c-.15436 1.16779-.18695 2.34576-.25934 3.52045q-.02407.56222-.048 1.12457a37.10639 37.10639 0 0 0-.36071 4.88043 12.5634 12.5634 0 0 0-.21906 2.87525 9.6141 9.6141 0 0 0-.18524 2.53558 3.2097 3.2097 0 0 0-.14142 1.36407l-.01434.20343c-.08478 1.09076-.12067 2.1883-.2713 3.2699a1.04022 1.04022 0 0 0 .81567 1.33368 11.45545 11.45545 0 0 1 5.08337 3.70392c1.18738 1.46362 1.18628 1.4657 3.015.94238a1.22923 1.22923 0 0 0 .25006-.13989 14.12515 14.12515 0 0 0 2.91907-.76746 14.63229 14.63229 0 0 0 2.95343-.76165l.00018-.00006a15.88264 15.88264 0 0 0 3.042-.79578 4.22183 4.22183 0 0 0 1.538-.39575 14.38878 14.38878 0 0 0 2.90832-.76551 14.99583 14.99583 0 0 0 2.915-.75238 9.6257 9.6257 0 0 0 2.32428-.60583 8.54627 8.54627 0 0 0 2.16516-.566q1.32807-.314 2.65619-.62811c.578.004.50629.48651.582.82794.52759 2.37842 1.03986 4.76031 1.557 7.141q-1.84058.41217-3.68115.82428-.59208.12945-1.18415.259-1.34253.33316-2.685.66645a14.79421 14.79421 0 0 0-2.70966.60821q-.87588.19738-1.75177.39484v-.00006l-2.51428.5722a5.85468 5.85468 0 0 0-1.744.40521l-1.55432.372q-1.25931.2905-2.51862.58106a11.39834 11.39834 0 0 0-2.32238.55469c-.42212-.08393-.77167.19024-1.16742.23663l-1.54883.37134c-.55054-.05219-.82562.19159-.88776.74853-.06415.57447-.18591 1.1424-.28247 1.71326l-.00018.00055c-.23126.55975-.44721 1.12659-.69983 1.67663a.63585.63585 0 0 0 .12573.78309q2.23985 2.44848 4.46851 4.90728 1.84167 2.23344 3.859 4.30963a32.45578 32.45578 0 0 0 2.92175 3.25238 20.70266 20.70266 0 0 0 2.11676 2.36677 39.07336 39.07336 0 0 0 2.91663 3.26849q1.74389 1.93754 3.48767 3.875 1.059 1.17984 2.11792 2.35974a15.369 15.369 0 0 0 1.934 2.13531 30.94726 30.94726 0 0 0 2.72882 3.06739 22.5968 22.5968 0 0 0 2.3081 2.56219 34.75092 34.75092 0 0 0 2.91992 3.26148 23.53 23.53 0 0 0 2.49567 2.76483q1.75836 2.00262 3.51679 4.00525a.53084.53084 0 0 0 .38861.3891 1.06747 1.06747 0 0 0-.1756-.79981q-2.19058-10.55-4.38544-21.09906c-.51672-2.46734-1.15033-4.91192-1.6051-7.38995-.46448-2.531-.96124-5.05176-1.57849-7.5492-.55127-2.74279-1.11365-5.48346-1.6507-8.22906-.536-2.74036-1.23584-5.44794-1.64325-8.21387q1.93187-.50161 3.86377-1.00311a32.806 32.806 0 0 0 3.91632-.92639 12.80061 12.80061 0 0 0 2.67536-.60956 17.92845 17.92845 0 0 0 3.15667-.73535h.00031a11.01192 11.01192 0 0 0 2.47394-.56476v.00006a32.55318 32.55318 0 0 0 4.29388-.99792l.00055-.00013a27.00215 27.00215 0 0 0 3.63965-.81707c1.56708-.31269 3.13422-.625 4.6651-1.09229a23.35113 23.35113 0 0 0 2.42651-.51178c.57886-.18292.78913.01917 1.02527.48712a6.19033 6.19033 0 0 0 1.3664 1.946 9.81488 9.81488 0 0 0 5.2384 3.42431 6.03264 6.03264 0 0 0 1.02393.26636c.72778.06238.92047.3479.79565 1.103-.18829 1.13934-.1994 2.30792-.28589 3.46411.00232.0357.00122.07281.002.10913-.02313-.03223-.03631-.06842-.06109-.1a.6349.6349 0 0 0-.3681.62659 45.28079 45.28079 0 0 0-.40784 5.4787 1.53988 1.53988 0 0 0 .14142.64013 22.58459 22.58459 0 0 0-.22888 2.59772l-.0304.56207a1.749 1.749 0 0 0-.13611.97278l.00012-.00018-.00006.00018q-.03543.55656-.07074 1.113a.72319.72319 0 0 0-.06994.26 2.38508 2.38508 0 0 0-.069.76251l-.0492.93842a.70842.70842 0 0 0-.06024.4859q-.39441 2.75052-.52228 5.52679a7.08456 7.08456 0 0 0-.15155.74994c-.54 5.64337-1.06616 11.28815-1.6112 16.93109q-1.64 16.97718-3.29712 33.9527c-.0846.86835-.19587 1.73413-.30091 2.65546l-1.40582-1.35651h-.00006l.00006-.00006a42.996 42.996 0 0 0-3.10962-3.48395 27.57127 27.57127 0 0 0-2.46448-2.73907 35.04718 35.04718 0 0 0-2.60772-2.88166 36.17747 36.17747 0 0 0-3.08936-3.48q-1.55712-1.74279-3.11432-3.48547a27.7562 27.7562 0 0 0-2.88385-3.10687c-.77221-1.31732-2.03692-2.22455-2.89148-3.47333-.22394.0398-.21625.21417-.18365.366q.85583 3.98877 1.72229 7.9754v.00006c.03967.28449.066.57166.12109.85315q.5355 2.73834 1.08148 5.47473c-.04364.15863-.04535.33911-.223.428q-1.77008-1.93551-3.54016-3.87091a8.76152 8.76152 0 0 0-1.53247-1.7511 14.14687 14.14687 0 0 0-1.86383-2.14465 27.5918 27.5918 0 0 0-2.54114-2.89826 29.2954 29.2954 0 0 0-2.53668-2.90057 15.78221 15.78221 0 0 0-1.89813-2.14606 20.20374 20.20374 0 0 0-2.17908-2.50116 11.55714 11.55714 0 0 0-1.53333-1.75079c-.43249-.78754-1.25347-1.21967-1.76776-1.93237a17.31314 17.31314 0 0 0-2.53387-2.90967 19.53 19.53 0 0 0-2.52313-2.90009 10.2681 10.2681 0 0 0-1.73059-1.942 5.85571 5.85571 0 0 0-1.31421-1.56122q-.6091-.67035-1.2182-1.34064c-.31946-.63281-.94312-.99957-1.35621-1.55047a21.1989 21.1989 0 0 0-2.32714-2.71076q-1.44627-1.646-2.8924-3.29211-.96844-1.06907-1.93683-2.13813a29.60069 29.60069 0 0 0-2.9013-3.29492 17.30127 17.30127 0 0 0-2.31086-2.71527 16.66617 16.66617 0 0 0-1.90136-2.14874c-.61969-.739-1.27637-1.45087-1.84644-2.22632-.38977-.53021-.70569-.39148-1.08526-.05707l-.58551.20551-1.16224.376-.78119.19738-1.34533.19446-.20661.00739a12.60444 12.60444 0 0 1-1.49829-.02393c-.57879-.0744-.80554.179-.85241.70105q-.25818.51343-.51636 1.02692l-.06513.32928a1.53 1.53 0 0 0-.39349.96045 1.21643 1.21643 0 0 0-.35034.83832 4.12616 4.12616 0 0 0-.57672 1.36987.644.644 0 0 0-.21552.52789 2.10305 2.10305 0 0 0-.41949.99 4.18646 4.18646 0 0 0-.56995 1.361 6.392 6.392 0 0 0-.73706 1.76025 7.95977 7.95977 0 0 0-.80658 1.92767 2.948 2.948 0 0 0-.5683 1.35938 3.99314 3.99314 0 0 0-.568 1.35058 10.51583 10.51583 0 0 0-.97339 2.32184 6.90842 6.90842 0 0 0-.813 1.93457v.00019a1.1717 1.1717 0 0 0-.33795.80053 4.39932 4.39932 0 0 0-.61249 1.484l-.00006-.00006a14.28425 14.28425 0 0 0-1.152 2.72974 9.07784 9.07784 0 0 0-.99017 2.353v.00024a6.56823 6.56823 0 0 0-.73511 1.75976 17.76578 17.76578 0 0 0-1.21386 2.88422 34.86633 34.86633 0 0 0-1.88391 4.48486 4.31351 4.31351 0 0 0-.22925.41462c-1.46338 3.46893-2.93335 6.93512-4.38111 10.41058-1.07531 2.58142-2.121 5.17523-3.17981 7.76355l-.00042.00055a41.27084 41.27084 0 0 0-1.88282 4.4671l-1.23815 2.8971a11.955 11.955 0 0 0-.88556 2.141l.00012-.00006-.00006.00006a8.62409 8.62409 0 0 0-.79779 1.93744 16.83157 16.83157 0 0 0-1.14643 2.71014 4.69892 4.69892 0 0 0-.57385 1.3598q-.24472.56763-.48913 1.13532l-.00025.00018a5.12828 5.12828 0 0 0-.70965 1.76715 10.94025 10.94025 0 0 0-.92652 2.13666c-.55066.77264-.65191 1.467.34326 1.97027q.28739.28977.57483.57947a4.09252 4.09252 0 0 0 .968 1.16565q.391.57495.7821 1.14984a2.25167 2.25167 0 0 0 .59443 1.13715c-.00092.15552.02105.298.20068.35a3.46712 3.46712 0 0 0 1.3529.00562.3072.3072 0 0 0 .19214-.16376c.001-.01343.00891-.01947.01062-.03222l.0232.03265-.03388-.00037-.19208.1637a4.07149 4.07149 0 0 0 1.56958-.14948l.00116-.0003.94935-.04138a9.48471 9.48471 0 0 0 2.32019-.1723l.97857-.03516a1.54915 1.54915 0 0 0 .95935-.11176l-.003-.006.003.006c.3299.13056.64612-.02392.96869-.04663q.4899-.0206.97986-.04126a3.83636 3.83636 0 0 0 1.10522-.056 1.25574 1.25574 0 0 0 .2486-.07531q.6763-.02188 1.35266-.04383a.22332.22332 0 0 1 .108-.04913l-.108.04913a5.431 5.431 0 0 0 1.25977-.0708.98093.98093 0 0 0 .30316-.08276l.564-.02112.78411-.03186a3.54419 3.54419 0 0 0 1.39374-.12756l.00806-.002q.6513-.02517 1.30267-.05047l.20337-.02045a3.29676 3.29676 0 0 0 1.3858-.12683l.00086-.00019.0802.02192.07355-.03882a17.4542 17.4542 0 0 0 1.94769-.04645c.037-.00134.07391-.00476.11236-.00867l.00062-.00006a6.43046 6.43046 0 0 0 .67932-.12622l.36181-.02032a13.76239 13.76239 0 0 0 1.80634-.04792 2.54522 2.54522 0 0 0 .72613-.12976l.37458-.01623a8.26928 8.26928 0 0 0 2.32757-.16577q.77655-.03351 1.553-.06708a3.81962 3.81962 0 0 0 1.11084-.05676.91845.91845 0 0 0 .2652-.07679 12.21056 12.21056 0 0 0 2.89441-.19824q.57439-.01895 1.1488-.038l.19849-.00873a4.37025 4.37025 0 0 0 .98065-.05743 1.12927 1.12927 0 0 0 .38409-.07593l-.00134.00409 1.1557-.05585a3.98251 3.98251 0 0 0 1.76618-.14685 19.85186 19.85186 0 0 0 2.27465-.08667 1.90972 1.90972 0 0 0 .62977-.11206l.00036-.00006h-.00012l.00018-.00006a17.6669 17.6669 0 0 0 2.27216-.08643 2.24282 2.24282 0 0 0 .62329-.11151 8.65538 8.65538 0 0 0 2.11615-.12305 23.4336 23.4336 0 0 0 3.51355-.25976q.2785-.01035.557-.02063a9.5687 9.5687 0 0 0 2.5202-.19415 9.59565 9.59565 0 0 0 2.52264-.15876 17.338 17.338 0 0 0 3.29071-.22857q.57843 0 1.1568.00006c.08386.353-.229.4942-.395.69879q-3.17945 3.91891-6.37664 7.82342c.66882-.05871 1.33715-.12463 2.00671-.17468 1.46271-.10937 2.93457-.10522 4.38544-.35919a56.98469 56.98469 0 0 0 6.223-.40509 52.80208 52.80208 0 0 0 5.80987-.39337 13.58077 13.58077 0 0 0 3.07837-.21027 45.662 45.662 0 0 0 5.63227-.37555 11.23626 11.23626 0 0 0 2.74023-.17688l.00012.00006a34.25443 34.25443 0 0 0 4.0351-.248c.19922.08111.68066-.09314.37207.43866-.2898.49945-.55182 1.015-.824 1.52465q-3.87789 7.26123-7.75512 14.52283c-1.25769 2.07489-2.32654 4.25049-3.41864 6.4137-.95642 1.55786-1.78546 3.18469-2.608 4.81512a29.96647 29.96647 0 0 0-1.89228 3.50482 11.29993 11.29993 0 0 0-.95605 1.79017c-.08777.06872-.16931.14416-.259.21075a12.25761 12.25761 0 0 0-2.08056 4.022c.02209.00348.04065.00025.06225.00275-.32446.05457-.43621.33124-.57672.57214q-1.11858 1.91849-2.12433 3.8985a4.46876 4.46876 0 0 0-.85418 2.11267c.007.00489.013.00635.01989.011-.37542.08581-.53906.39746-.68988.70007-.974 1.95471-2.11456 3.82038-3.08288 5.77765-.16687.33734-.42291.65851-.30982 1.08014l.01557.00861c-.42169.14245-.58954.53112-.77368.87506-1.03125 1.92614-2.03968 3.86438-3.09272 5.779-.17584.3197-.41058.65009-.23993 1.056a.47126.47126 0 0 0-.3847.242c-.87384 1.33832-1.53674 2.79279-2.29858 4.19281a.6333.6333 0 0 0-.033.61023.442.442 0 0 0-.37134.2312c-.84265 1.31354-1.47748 2.74176-2.25043 4.09412a.48042.48042 0 0 0-.061.41126zM24.26111 174.42462q-1.06641 4.26672-2.13269 8.53339-1.16217 4.647-2.32428 9.29407c-.71094 2.29315-1.186 4.6452-1.74408 6.97656a1.96746 1.96746 0 0 0-.248 1.13031c-.3247-.145-.20239-.44074-.20807-.67536-.02838-1.18408-.05066-2.36847-.05822-3.55279q-.01337-6.25113-.012-12.50238-.00027-4.01213-.00256-8.02429c0-.01978-.00293-.03962-.00324-.05939a2.41683 2.41683 0 0 0-.07367-.98981c.00422-2.51379.01423-5.02765.01154-7.54144q-.01035-9.81446-.02191-19.62891c0-.335-.215-.80279.35956-.92962a16.92166 16.92166 0 0 0 1.95651-.95966 8.32073 8.32073 0 0 0 2.22229-1.8139c3.22076-3.36512 3.88538-9.09809 1.48431-12.72974l-1.50213-2.08289a.73309.73309 0 0 0-.29688-.59692c-.60254-.4978-.44751-.96313-.03894-1.48364.75354-.96 1.40363-1.99359 2.06513-3.01727.17407-.26935.51666-.50983.32324-.91834.52112.09241.62244-.39954.81885-.6908 4.0592-6.02105 8.18774-11.99475 12.2669-18.002 4.64118-6.83508 9.31269-13.64954 13.94892-20.488a41.82432 41.82432 0 0 1 2.65118-3.77215 2.41466 2.41466 0 0 1-.19464.69372c-.56342 1.674-1.14789 3.34131-1.67786 5.02582-.65722 2.08917-1.509 4.11463-2.03766 6.24536-.74255 2.14453-1.50207 4.28339-2.22351 6.435-1.02752 3.06439-2.027 6.13818-3.03851 9.20795a4.27849 4.27849 0 0 0-.19531.4248c-3.19477 9.477-6.40924 18.94745-9.55481 28.44074-.45313 1.36755-.83869 2.62909-2.45075 2.96417a6.04409 6.04409 0 0 0-2.30047 1.36859 10.76121 10.76121 0 0 0-2.95764 13.78113 4.344 4.344 0 0 0 .95831 1.54278 1.65529 1.65529 0 0 1 .34363 1.72419c-1.398 5.5501-2.74798 11.11225-4.11254 16.67072zM287.007 77.5542a1.25032 1.25032 0 0 0 .33356.18841c2.11059.671 4.26269 1.196 6.38983 1.8089a.56929.56929 0 0 0 .52819-.04437c.04432.04956.09009.09778.13434.14734a45.249 45.249 0 0 0 4.50556 1.34937c.47571.15545.82629.34552.79614.90844.02118.61994-.02185 1.24188.03973 1.86231a1.16526 1.16526 0 0 0 .09229.28973c.05524.06793.10626.139.16132.20709a11.17348 11.17348 0 0 0 6.59448 9.14417c.0307.06872.06823.13324.09649.20337a3.87059 3.87059 0 0 0 3.25409.8042l.01215.01776a2.59325 2.59325 0 0 0 .19891.198 1.42749 1.42749 0 0 1 .30915.69177c-.00306.0354-.00617.0708-.00635.10486-.00989 2.10888-.2923 4.20892-.21375 6.32147-.25323 2.31048-.28833 4.63214-.35309 6.95227a.51458.51458 0 0 0-.21386.237 22.22391 22.22391 0 0 0-.24573 5.06665c.02509.06055.05585.11835.08118.17877-.355.17-.28882.55774-.30024.87079-.0205.56042-.23046.908-.81353.98889a.62281.62281 0 0 0-.44226.2453 5.04337 5.04337 0 0 1-2.15961-1.25885c-1.30219-1.09045-2.67535-2.09131-3.99481-3.16009-.275-.22272-.5326-.49384-.92859-.45032a1.45439 1.45439 0 0 0-.61743-.79c-1.24463-1.00592-2.47986-2.02527-3.75354-2.9928a18.17365 18.17365 0 0 0-3.08777-2.14166l-.01123-.02454a1.62489 1.62489 0 0 0-.57953-.75329c-2.69165-2.13983-5.34857-4.32447-8.13721-6.33936-.21826-.15765-.42755-.40637-.74493-.31476-.00708-.0271-.018-.05188-.02448-.07934-.26574-.23047-.52234-.47272-.7987-.6897q-4.98222-3.91222-9.96942-7.81811a.75871.75871 0 0 1-.012-.17676c-.16308-.54413-.66125-.781-1.05365-1.09088q-11.409-9.00935-22.76-18.09168a21.44473 21.44473 0 0 0-3.79559-2.79663c-.04224-.00415-.08124-.017-.12244-.02386-.51324-.83875-1.50751-1.16492-2.07641-1.86872.4635-.03174.92035.36774 1.43255.183.025.02618.055.04486.07947.07183a28.07017 28.07017 0 0 0 5.33128 1.56983.34079.34079 0 0 0 .22424-.03742c.01679.01661.03638.02906.053.04584a1.12769 1.12769 0 0 0 .40723.24823c1.71838.50812 3.44659.98175 5.17364 1.45941a.84127.84127 0 0 0 .72693-.09527.43463.43463 0 0 0 .34.37707q1.82922.57577 3.69458 1.02362a.39936.39936 0 0 0 .30493-.05908c.028.03076.06085.05548.0885.08679a30.4433 30.4433 0 0 0 4.45349 1.361.93545.93545 0 0 0 .74189-.04492c.011-.03619.01056-.06573.01782-.09973.01153.01679.027.029.03845.046 1.02911.925 2.34644.98725 3.61169 1.20551a1.06214 1.06214 0 0 0 .04981-.17823c.0105.01539.02454.027.03491.04255a.79361.79361 0 0 0 .58325.44989q2.1092.62979 4.23273 1.21008a.79781.79781 0 0 0 .71448-.03137c.04193.04541.08862.08532.13025.131a15.66231 15.66231 0 0 0 3.46234 1.06891 8.76622 8.76622 0 0 0 2.7727.635.87835.87835 0 0 0 .1034-.14905c.00415.00922.01074.01648.01483.02576a9.37834 9.37834 0 0 0 4.69238 1.38293c.05812.06448.12013.12486.17797.18968zm47.6958 76.43487c-.35968-.41632-.49927-1.03491-1.079-1.24932l.01434-.012c-.14319-.24859-.27472-.50488-.43133-.74469-1.57544-2.41211-3.07959-4.87152-4.77436-7.20447.00769-.35443-.25933-.57586-.42773-.83551q-3.37536-5.20467-6.77-10.39685l-.00006.00006v-.00006c-.1391-.47784-.68671-.78582-.57-1.37011a21.51251 21.51251 0 0 0 .78907-3.064 11.59655 11.59655 0 0 0-3.94831-10.0415 1.30279 1.30279 0 0 1-.49536-1.15119c.07245-1.44818.11438-2.89789.16815-4.347h.00006q.1464-3.63639.29291-7.27271c.17731-.15179.16254-.4386.17023-.673a5.21244 5.21244 0 0 1 .1698-1.5257c.06946-1.04535.11548-2.09192.13013-3.13965a24.93511 24.93511 0 0 0 1.71325 4.86335 1.51489 1.51489 0 0 0 .14008.907c.7124 2.5852 1.61334 5.11194 2.44079 7.66 3.04181 9.36725 6.02887 18.7522 9.08374 28.1153 1.34186 4.11255 2.64161 8.23907 3.99622 12.392-.27752-.28802-.38262-.64371-.61266-.90995zm-104.49125 82.42432l-.00165-.00006-.00024.00012.00024-.0003.001-.00147zm-17.2486 1.16608c.01019-.01178.01941-.02478.02942-.03675l.01215.03772-.04163-.00079-.00018.00012zm8.459-.57459c.007.00727.01574.01221.02325.0188h-.03058zm20.24-1.40942l.00152.00384-.0039-.00024zm24.58667-1.447c-.00311.00946-.00824.01782-.01142.02728a1.02571 1.02571 0 0 0-.19018-.24219 21.33085 21.33085 0 0 0-4.242.31916c1.25068-1.31275 2.34729-2.75635 3.50763-4.14509a5.86528 5.86528 0 0 0 1.45581-2.0606 1.86822 1.86822 0 0 0 .8053-.67493c.86255-1.03784 1.74567-2.05884 2.5857-3.1156.47387-.59607 1.11352-1.08167 1.24182-1.90112l.00006-.00367a15.24364 15.24364 0 0 0 3.38605-3.86492.20579.20579 0 0 0-.01362-.20856 1.75091 1.75091 0 0 0 .81513-.59558c.4436-.4632.82452-.98041 1.2251-1.47888 1.54248-1.91938 3.25775-3.69953 4.63836-5.74927.00507-.01782.0022-.03644.00617-.05432.69946 1.00744 1.6123 1.83105 2.39721 2.76507a.67311.67311 0 0 0 .552.27155 8.15177 8.15177 0 0 0 2.78418 3.2782.165.165 0 0 0 .147.01348 5.45541 5.45541 0 0 0 2.53888 2.87464l-.011.02478c.25916 1.1651 1.31531 1.74774 1.94275 2.64422a.56175.56175 0 0 0 .45752.24976c.51532.71307.35236 1.25018-.26074 1.96314a11.416 11.416 0 0 0-2.58667 5.92767 3.63624 3.63624 0 0 1-.44312 1.93713c-.03967.00977-.07025.029-.10833.04035a1.05338 1.05338 0 0 0-.61646-.09259c-.91571.10339-1.83771.13464-2.751.25323a1.22372 1.22372 0 0 0-.845.39246l-.00976.0235a1.00756 1.00756 0 0 0-.19416-.19959 13.45237 13.45237 0 0 0-3.69378.18506.75437.75437 0 0 0-.25275.14612.56377.56377 0 0 0-.40265-.19171 23.73591 23.73591 0 0 0-3.32818.26367.68008.68008 0 0 0-.45228.3316l-.0025.00647a.87915.87915 0 0 0-.23657-.18 8.7778 8.7778 0 0 0-4.20239.43823.77885.77885 0 0 0-.27991-.24518 18.79111 18.79111 0 0 0-3.52948.23267c-.60979.0749-1.30321-.12818-1.82262.39434zM116.96588 106.87915a2.7067 2.7067 0 0 0-1.55975.76331 1.63538 1.63538 0 0 1-.106.17981 24.28418 24.28418 0 0 0-2.8526 1.27435c-5.22656 2.3999-10.449 4.809-15.69037 7.17609a1.63491 1.63491 0 0 0-1.01092 1.24951c-.70044 2.90789-1.43323 5.808-2.13953 8.71447-.47705 1.96308-.92914 3.93226-1.39239 5.89869l.01171.021a1.03564 1.03564 0 0 1-.22631.04614.8193.8193 0 0 0-.19611.32612c-.53662 1.91662-.9895 3.85455-1.4621 5.78735a.82075.82075 0 0 0 .10059.76147 1.26719 1.26719 0 0 1-.21662.129 1.142 1.142 0 0 0-.213.42493c-.65124 2.44208-1.16437 4.91791-1.7948 7.36523a.84237.84237 0 0 0 .1117.82 1.13889 1.13889 0 0 0 .14038.0769c-.13391.2013-.24506-.18982-.32562-.00732a2.32128 2.32128 0 0 0-.44709 1.15149c-1.33722 5.36688-2.69452 10.72876-4.023 16.09784a11.3323 11.3323 0 0 0-.47937 2.54937.38685.38685 0 0 0 .04791.08442 22.96523 22.96523 0 0 0-4.21624-2.09858.41061.41061 0 0 0-.4303.05732 25.49555 25.49555 0 0 0-3.41605-1.53983 15.70978 15.70978 0 0 0-3.48755-1.56738 8.66426 8.66426 0 0 0-2.90643-1.35638 9.14135 9.14135 0 0 0-2.49768-1.23493 17.01466 17.01466 0 0 0-2.73486-1.27533 15.275 15.275 0 0 0-2.52179-1.1709 32.86042 32.86042 0 0 0-3.86164-1.788 36.254 36.254 0 0 0-4.07769-1.9 16.82415 16.82415 0 0 0-3.49329-1.54406 3.25834 3.25834 0 0 0-1.22528-.69458c-.5882-.19239-.70355-.49634-.60138-1.13092a7.35269 7.35269 0 0 0-.14032-3.17163c.02673-.10157.04974-.204.07684-.30548a2.02659 2.02659 0 0 1 .816-2.54426.77678.77678 0 0 0 .28125-.46923 1.08543 1.08543 0 0 0 .694-.35547c.971-.92975 2.03565-1.75629 2.97644-2.718a1.75415 1.75415 0 0 0 .36151-.54718.53346.53346 0 0 0 .50867-.17041c.83148-.85351 1.83478-1.51794 2.634-2.40527a.86335.86335 0 0 0 .26825-.50092.80174.80174 0 0 0 .70728-.29205c.81372-.86066 1.79364-1.53778 2.612-2.3913.209-.218.46051-.41467.48755-.74988.38714.156.5946-.16833.8183-.374 1.50671-1.38544 3.06994-2.70837 4.55536-4.117.209-.19825.58294-.31525.44641-.72748.441.12628.64532-.24994.90484-.47571 2.69049-2.34045 5.32324-4.746 7.99494-7.1076a1.79373 1.79373 0 0 0 .58691-.72974c.27094-.01215.44171-.23883.63263-.40265 2.77167-2.37811 5.44238-4.8703 8.19959-7.26489a1.077 1.077 0 0 0 .48053-.89716l.00024-.001c.579.13269.90033-.33521 1.23614-.63862 3.111-2.81054 6.26514-5.57287 9.37928-8.37957 3.30621-2.97974 6.63549-5.93378 9.94531-8.90949 3.52533-3.16949 7.08612-6.29986 10.6073-9.47455q1.5803-1.42475 3.192-2.81707c.226-.19568.45923-.38984.77424-.206.28448.166.197.44165.167.6966-.03949.33642-.10938.68164.18347.94635l-.578 4.97247a21.1542 21.1542 0 0 0-.43756 3.87091 17.13417 17.13417 0 0 0-.385 3.25488 33.5997 33.5997 0 0 0-.57074 4.886 33.84964 33.84964 0 0 0-.54755 4.49677c-.0404.03393-.08343.06439-.12378.09845a4.95468 4.95468 0 0 0-.47992 2.30694c-.02543-.00746-.04435-.02961-.07194-.03236zm8.75537-8.02435a38.54364 38.54364 0 0 0 .44153-4.07294q.25845-2.03191.517-4.06384l.402-3.495a31.1266 31.1266 0 0 0 .40185-3.53424c.04028-.04053.08667-.07184.12415-.11651a2.4047 2.4047 0 0 1 1.92578-2.06141 5.66383 5.66383 0 0 0 1.52814-.776 1.77166 1.77166 0 0 1 1.14978-.30676 3.29634 3.29634 0 0 0 2.23169 1.57611l.04547-.01874a4.68607 4.68607 0 0 0 2.8966 2.21729 3.30071 3.30071 0 0 0 2.28052 1.68378 2.73526 2.73526 0 0 0 2.11694 1.55908l.04889-.01825c-.08343.38226.2251.55975.46228.76184.58258.49634 1.25147.87738 1.844 1.36243.21551.17639.4367.40057.7619.21057.01337-.00116.02728-.00092.04089-.00141-.10467.26337.11737.4292.29578.56378a31.42128 31.42128 0 0 0 3.02441 2.20691 27.91329 27.91329 0 0 0-4.57556 1.93879q-6.77682 3.07543-13.528 6.20788a51.10542 51.10542 0 0 0-4.73352 2.2605 14.76437 14.76437 0 0 0 .47033-3.96295.85849.85849 0 0 0-.18664-.11188zm42.83747-67.17969c1.83819.95447 3.69525 1.8692 5.61084 2.66034 1.9743 1.05707 3.99841 2.00958 6.05786 2.88788 2.53271 1.32208 5.11712 2.53589 7.73089 3.688 2.00806 1.06378 4.06134 2.03265 6.14856 2.93035a35.60337 35.60337 0 0 0 4.48157 2.12208c2.12445 1.14117 4.30707 2.16064 6.52081 3.11486a55.08625 55.08625 0 0 0 6.07019 2.8902c3.184 1.64783 6.44019 3.14484 9.69428 4.64636q-.08569.86528-.17145 1.73053-.10758.57285-.21521 1.14563l-5.4068.45594q-6.97348.57622-13.947 1.15252l-11.82367.978a2.5037 2.5037 0 0 0-1.1933.13476l-.00067.00019-1.13025.054a2.57627 2.57627 0 0 0-1.19281.13971l-.00146.00037-1.13111.05383a2.59581 2.59581 0 0 0-1.1925.14014l-.00079.00018q-.56535.02445-1.13068.04895c-.193.00061-.38721-.012-.579.00379q-8.13831.6718-16.27594 1.35211c-2.59784.22088-5.19257.47729-7.7887.71765l-1.12927.058a2.779 2.779 0 0 0-1.21173.13953l-.00092.00024q-.55636.02693-1.11267.0539a3.343 3.343 0 0 0-1.36419.15271l-.00055.00018q-.57889.02811-1.15784.05615a2.37042 2.37042 0 0 0-1.16839.13721c-2.24811.16138-4.49744.30743-6.7439.48926-1.63391.1322-3.264.3117-4.89588.47009l-1.1408.05566a2.5859 2.5859 0 0 0-1.19391.13941l-.00037.00012c-.783.168-1.17016-.22369-1.46789-.90991a5.73032 5.73032 0 0 0-1.39521-2.00226c-1.01629-.76453-.92877-1.62677-.24255-2.55853a2.138 2.138 0 0 0 .20386-.52423q.83779-1.7634 1.67572-3.52674c.04815-.01709.09509-.03686.14331-.05389a11.56739 11.56739 0 0 0 1.5148-2.71238.62671.62671 0 0 0 .008-.71558l-.00994-.00177c.9035-.738 1.11993-1.88818 1.67431-2.83533a.51544.51544 0 0 0 .071-.51965 15.45757 15.45757 0 0 0 1.62732-3.12054.40568.40568 0 0 0-.01587-.358 1.26016 1.26016 0 0 0 .57708-.66625c.69355-1.37275 1.26246-2.80457 1.97767-4.16773.1145-.2182.24731-.46936.07611-.719a.50925.50925 0 0 0 .3847-.32141c.5943-1.3183 1.293-2.58509 1.911-3.89136a.72937.72937 0 0 0 .07727-.723.88059.88059 0 0 0 .31647-.31464c.80292-1.45184 1.52087-2.94672 2.23181-4.44476a.72456.72456 0 0 0 .03809-.63208.57587.57587 0 0 0 .32049-.30024c.44855-1.33514 1.49781-1.38293 2.65161-1.30908a9.68353 9.68353 0 0 0 5.95526-1.66 1.89021 1.89021 0 0 1 1.96863-.12146c.97339.39441 1.8263 1.1308 2.9502 1.12311.02685-.0033.05383-.00556.08069-.00879 2.18501 1.1539 4.4251 2.19266 6.68282 3.19467zM41.84985 138.69354q1.98258-5.891 3.95673-11.78479 2.61191-7.81677 5.21161-15.63763 2.08227-6.191 4.16449-12.382c.12128-.16113.2312-.32959.35644-.48816a3.09776 3.09776 0 0 0 .45356-.952c1.22735-3.6513 2.42981-7.311 3.65283-10.96374a1.439 1.439 0 0 0 .12231-.93652.97383.97383 0 0 0-.12115-.06488c.00909-.00049.01587-.0044.02514-.00458.39539-.1333.46155-.50452.587-.82654.95514-2.4516 1.69861-4.97559 2.545-7.46442a1.14354 1.14354 0 0 0 .07825-.84607c.02936-.02258.05371-.0498.0835-.072a2.30888 2.30888 0 0 0 .45556-.94824c.65753-1.95257 1.3161-3.90491 1.95026-5.865a1.69483 1.69483 0 0 1 1.14966-1.16309 11.16823 11.16823 0 0 0 7.03936-6.81811c.29407-.81238.71827-.93219 1.4621-.68536a10.35877 10.35877 0 0 0 2.80994.64843c.02661-.00561.05389-.01178.08118-.01733.103.22443.35131.27356.56591.34808.93177.32379 1.90271.50977 2.84748.78949a.86307.86307 0 0 0 .76489-.06457.54636.54636 0 0 0 .02106.0968 21.66857 21.66857 0 0 0 5.3587 1.56927c.04773-.0083.09857-.01367.14655-.024.08459.23919.3482.27624.56005.33776 1.30011.37745 2.60956.722 3.91449 1.08258.29425.08136.61377.19782.89869-.04687a1.00953 1.00953 0 0 0 .04113.15662 26.76648 26.76648 0 0 0 5.69776 1.62451c.03894-.001.07458-.014.113-.0174a.64665.64665 0 0 0 .38953.24762c1.46271.4776 2.95465.85285 4.43957 1.25214a.72049.72049 0 0 0 .72309-.13056c.0166-.01129.03387-.02148.05047-.03277a.6631.6631 0 0 0-.03411.17279 12.42043 12.42043 0 0 0 4.04 1.22223 1.56338 1.56338 0 0 0 .44489-.09168 32.63743 32.63743 0 0 0 3.685 1.0185 1.31506 1.31506 0 0 1 1.18438 1.604 4.415 4.415 0 0 0 .221 1.12195c.15161.46826-.18432.69513-.46661.95331q-13.49085 12.33837-26.9784 24.68029c-3.35052 3.06879-6.68072 6.15986-10.0202 9.24073q-4.62982 4.08325-9.10766 8.33264c-1.79316 1.5473-3.55463 3.12915-5.23493 4.7995a52.69993 52.69993 0 0 0-4.472 4.10419c-1.72394 1.34411-3.25312 2.902-4.83356 4.40368q-2.69989 2.458-5.39972 4.916-2.61978 2.34174-5.2395 4.68347c-.78395-.12606-.54268-.60881-.38472-1.07827zM167.4491 19.81653a.75965.75965 0 0 0 .58532.22919 23.38034 23.38034 0 0 0 3.0564.22631c.29706-.02606.59436-.04528.89148-.06933q9.67 1.05349 19.34045 2.09875 9.46078 1.02246 18.92231 2.03778c3.343.35614 6.68792.6922 10.03222 1.03577.15442.05872.31171.10785.46424.17328a16.38557 16.38557 0 0 0 3.87359.63312.779.779 0 0 0-.1098.03875 1.27524 1.27524 0 0 0 .14368 1.35291 1.17887 1.17887 0 0 0 .17022.16266 8.27779 8.27779 0 0 0 1.29535 3.49371c2.611 4.10065 7.7038 5.93939 11.84717 4.27722a8.02869 8.02869 0 0 0 3.17175-1.67962 1.34506 1.34506 0 0 0 .25733.10339c.17224.05139.338.11816.50818.17462.55645.41937 1.10962.84332 1.677 1.24738q5.41232 3.85437 10.83362 7.696c.22076.18109.432.37543.66357.54138q10.44616 7.48673 20.8974 14.96625c3.01111 2.15247 6.03717 4.28394 9.05652 6.425 1.02014.75549 2.04358 1.50677 3.05646 2.272.127.09589.47674.10309.25476.4245q-3.467-.89438-6.934-1.78888a.38282.38282 0 0 0-.08844-.038l-.0044.00085a2.27943 2.27943 0 0 0-.34222-.137q-4.15878-1.08482-8.31976-2.16162c-1.87879-.69684-3.88233-.92566-5.78284-1.54114a2.1264 2.1264 0 0 0-.34278-.15674q-4.49743-1.17326-8.997-2.33862c-.54963-.1687-1.09235-.36579-1.65009-.50116-2.42883-.58948-4.80042-1.40424-7.26666-1.8454-1.75348-.45575-3.51081-.89752-5.25739-1.37836a1.131 1.131 0 0 1-.84753-.76819 9.31288 9.31288 0 0 0-2.54584-3.697 11.46593 11.46593 0 0 0-12.26666-2.23163 4.34033 4.34033 0 0 0-1.54151.76227 1.30006 1.30006 0 0 1-1.56909.0531c-4.1864-2.0357-8.3938-4.02814-12.59448-6.03436a8.19308 8.19308 0 0 1-.96368-.35846c-3.70618-1.91687-7.43848-3.77948-11.2464-5.48767a1.8392 1.8392 0 0 1-.34687-.10516c-2.42462-1.28821-4.8731-2.527-7.3988-3.60785-.85022-.43311-1.68152-.90973-2.55469-1.29016a52.52226 52.52226 0 0 0-5.20147-2.36811c-2.54419-1.35595-5.106-2.67547-7.76966-3.78558a.92837.92837 0 0 0-.38928-.39185c-1.66479-1.01654-3.44336-1.81274-5.18945-2.67157a1.38175 1.38175 0 0 0-.87171-.10461 1.54518 1.54518 0 0 0-.65112-.54633c-1.5766-.91772-3.29846-1.53735-4.915-2.37475a.92857.92857 0 0 0-.66968-.08264 11.24638 11.24638 0 0 0-1.5589-1.06592 3.3129 3.3129 0 0 1 1.52527-.0719 21.31807 21.31807 0 0 0 3.54785.28741c.03803-.01312.07685-.0216.11506-.03399zM29.26477 249.84729c.00238-.025-.0014-.04834.00244-.07367.11554-.40417-.162-.661-.35675-.94806q-1.13681-1.6755-2.37665-3.2763c-1.01507-1.31177-1.87237-2.74561-3.00811-3.964a6.32609 6.32609 0 0 1 .75909.2915c.37158.16785.73511.42169 1.1673.24451 2.11743 1.16864 4.2829 2.24109 6.4851 3.24 2.2547 1.2893 4.58533 2.42767 6.94941 3.49963a52.80894 52.80894 0 0 0 5.04309 2.52191c1.98242 1.10443 3.98816 2.16266 6.07129 3.06769a50.16138 50.16138 0 0 0 4.65692 2.32336 21.35664 21.35664 0 0 0 3.09814 1.54963c.79651.28222.44721 1.09137.73859 1.60583.20428 4.14343 3.85687 8.85736 7.95178 10.26251 1.1825.27405 1.27893 1.03138.90479 2.01032a2.12364 2.12364 0 0 0-.06873.46319h-.00006q-.39459 1.94258-.78925 3.88514-.5777 2.80563-1.15533 5.61126-.38269 1.84662-.76532 3.69318l-1.174 5.78113a.569.569 0 0 0-.08167-.00006.899.899 0 0 0-.32074.58178 1.24508 1.24508 0 0 1-1.06005 1.1081c-.62885.14965-.8263-.41309-1.09321-.77985-4.68792-6.44324-9.40551-12.86481-14.09509-19.30676q-5.5535-7.62864-11.118-15.24921-2.70338-3.71776-5.42859-7.41986c-.22387-.30419-.36229-.87775-.93639-.7229zm176.44074 90.65942a4.24088 4.24088 0 0 1-1.43934.09882q-18.01858.00578-36.03717.00287-2.66409 0-5.32812-.0008c-.38947-.00042-.80768.03113-1.0495-.34881a1.18141 1.18141 0 0 0-.15106-.16852c.00036-.01227-.0022-.01971-.00165-.03235a11.19481 11.19481 0 0 0-.299-2.78064c-.30768-1.46911-.30933-1.46875 1.18042-1.68109q10.55549-1.35085 21.1109-2.70184c1.18317-.13947 2.36755-.26923 3.54925-.42q10.31223-1.316 20.62293-2.64312c2.29779-.29712 4.59119-.62854 6.8866-.94422.41754-.01751.83911-.004 1.252-.05743q5.01993-.64967 10.037-1.32129 4.40882-.58575 8.81653-1.17957c1.04779-.11883 2.09912-.21337 3.1419-.36651.551-.08087.819.01654.84858.64325a3.06983 3.06983 0 0 0 .2492 1.49353c.14429.59613-.15594.81195-.694 1.00128q-6.45218 2.26986-12.88226 4.60229-5.42222 1.955-10.83527 3.9358a3.032 3.032 0 0 1-.44861-.0608 3.96249 3.96249 0 0 0-1.01867.26667c-2.51017.86994-5.00317 1.78858-7.51066 2.66248zM10.26892 196.379c-.00421.00091-.00763-.00372-.01221-.0008-.06439.041-.03534.004.01221-.01153z" class="cls-1"/><path d="M195.49683 213.56708a2.31971 2.31971 0 0 0 .44854-.955l.00025-.00018q.27264-.58155.54522-1.16333h.00007a7.40766 7.40766 0 0 0 .94586-2.52619l-.00019.00019.00007-.00012a19.79915 19.79915 0 0 0 1.41949-3.29743q.46839-1.05651.93646-2.1131l.00019-.00006c1.51983-3.32287 2.89715-6.7055 4.23907-10.103l.00006.00007c.489-1.5224 1.32391-2.91034 1.73554-4.46277l-.00006-.00013a23.596 23.596 0 0 0 1.91815-4.2575l.00012.00006c.34784-1.20764 1.14142-2.2337 1.41394-3.472a29.32887 29.32887 0 0 0 1.49432-3.51074c.25733-1.08612 1.08423-1.94763 1.21576-3.08337a10.02 10.02 0 0 0 1.14563-2.71851 16.07779 16.07779 0 0 0 .94483-2.13959l-.00006-.00006q.57036-1.35817 1.1408-2.71643.59674-1.44608 1.19355-2.89215a13.982 13.982 0 0 0 .96881-2.32544 11.9737 11.9737 0 0 0 .9685-2.32593 9.67081 9.67081 0 0 0 .99372-2.51989c.19018-.36792.35852-.74921.575-1.1009.45154-.7337.28192-1.18829-.32178-1.86614-.91681-1.02955-1.75214-1.44062-2.97662-.68842a18.42271 18.42271 0 0 0-2.90467.93567 11.96 11.96 0 0 0-2.34765.70538l-.00018-.00018-2.11017.68243q-1.257.39185-2.5141.78363l-2.52729.78333q-1.07656.33957-2.153.67926l-.00012-.00012q-1.33934.42571-2.67871.85138l.00018.00018-.00018-.00012-2.52234.78479v.00006q-1.54991.484-3.09986.96814a16.42719 16.42719 0 0 0-2.744.88922l-.00037-.00018a18.37645 18.37645 0 0 0-3.26434 1.02288 8.31849 8.31849 0 0 0-1.94355.59528l-.00006.00012q-1.256.39111-2.51208.782l.00006.00013q-1.455.47223-2.90991.94439a11.05591 11.05591 0 0 0-2.51673.78235l.00006.00006h-.00006q-1.64437.49019-3.28894.98029l.00006.00012q-3.78762 1.22707-7.57531 2.45429a32.06793 32.06793 0 0 0-3.87244 1.20459q-1.06384.30367-2.12769.60711l-.00006.00012q-1.45266.47783-2.90515.95551a11.1821 11.1821 0 0 0-2.34064.75818v.00006c-.208.0025-.42108-.01032-.56793.18286l-.00006-.00006a5.33848 5.33848 0 0 0-1.75433.53992q-.67145.22467-1.3429.44928a3.02429 3.02429 0 0 0-1.1726.35589l-.00013.00012c-.20514.023-.42572-.00427-.58117.18l-.00006-.00019a2.919 2.919 0 0 0-1.36756.42115v.00006a.68708.68708 0 0 0-.58526.193h-.00031a2.356 2.356 0 0 0-1.17389.36981l-.0003-.00012a10.14288 10.14288 0 0 0-2.515.7804 11.55754 11.55754 0 0 0-2.50995.787 5.96421 5.96421 0 0 0-1.73541.54418 12.10037 12.10037 0 0 0-2.5415.79786v.00006a2.80443 2.80443 0 0 0-1.13752.35644l-.00012-.00018a6.55715 6.55715 0 0 0-1.951.62146 6.81809 6.81809 0 0 0-1.91388.59644 7.22589 7.22589 0 0 0-1.937.59686 16.382 16.382 0 0 0-2.93164.93793 10.53861 10.53861 0 0 0-2.50134.787v.00006c-.55329.15027-1.1062.30182-1.66.45026a.59194.59194 0 0 0-.50074.59332 7.00447 7.00447 0 0 1-1.11987 3.1333c-.18561.29737-.30408.54615.07343.80933.94226.65674 1.86688 1.33874 2.79852 2.01056v.00006a14.38035 14.38035 0 0 0 2.3208 1.74066v.00006a21.30443 21.30443 0 0 0 2.5448 1.92761q1.16382.87241 2.32751 1.74482a13.84505 13.84505 0 0 0 2.12714 1.576l.00006.00012a6.14145 6.14145 0 0 0 1.53259 1.15063 7.00857 7.00857 0 0 0 1.54877 1.162v.00006a18.46857 18.46857 0 0 0 2.53894 1.92639 23.00426 23.00426 0 0 0 2.90253 2.16632l.00006.00013 2.73749 2.0849.00006-.00007v.00007c1.3598 1.10614 2.76257 2.15429 4.22009 3.12872a17.82269 17.82269 0 0 0 3.09869 2.32336 10.64628 10.64628 0 0 0 2.34424 1.76551l.00061.00061c2.104 1.79473 4.38129 3.36157 6.59345 5.01409h.00018q1.064.77574 2.12817 1.5514v.00006a11.33787 11.33787 0 0 0 1.74518 1.35382l-.00006.00006q1.942 1.44763 3.884 2.89532 1.83681 1.36469 3.6737 2.72931 1.3722 1.02777 2.74451 2.05555 1.54944 1.16628 3.09887 2.33251c.83747.6446 1.68689 1.27448 2.5069 1.9405a.885.885 0 0 0 1.05506.08337 7.02681 7.02681 0 0 1 3.69549-.90686c2.29.33124 2.80676-1.10889 3.33325-2.721a1.9967 1.9967 0 0 0 .05017-.283 20.36571 20.36571 0 0 0 1.36921-3.29547 10.26674 10.26674 0 0 0 .96447-2.31024l.00013-.00006a18.95217 18.95217 0 0 0 1.15032-2.73322 26.4211 26.4211 0 0 0 1.19965-2.89679 1.54582 1.54582 0 0 0 .37708-.93475 1.79247 1.79247 0 0 0 .33758-1.00226l-.00012.00012.00006-.00012c.16206-.3129.45706-.57248.39189-.97659z" class="cls-1"/></svg>