<svg xmlns="http://www.w3.org/2000/svg" xmlns:xlink="http://www.w3.org/1999/xlink" id="Layer_1" x="0" y="0" version="1.1" viewBox="0 0 367.6 361.4" xml:space="preserve" style="enable-background:new 0 0 367.6 361.4"><style type="text/css">.st0{opacity:.8;fill:#fff}</style><path d="M360.6,181.7c-0.3-2.7-1.6-5.1-3.6-6.9c-1-1-2.1-1.7-3.4-2.1c-0.1-0.3-0.3-0.6-0.4-0.9	c-1.6-4.8-3.1-9.6-4.7-14.4c-0.7-2.1-1.4-4.3-2-6.4c-3.8-11.9-7.7-23.9-11.5-35.8c-1.2-3.8-2.5-7.6-3.8-11.4	c-0.1-0.4-0.3-0.9-0.4-1.3c-1.2-3.9-2.5-7.8-3.7-11.7c-0.2-0.8-0.8-1.5-0.2-2.3c0.6-1.2,1-2.5,1-3.9c0.5-5.7-3.2-10.9-8.7-12.2	c-1.4-0.4-2.9-0.5-4.3-0.3c-1.4,0.5-2.5-0.1-3.6-1c-2.4-1.8-4.9-3.5-7.4-5.3c-0.1-0.1-0.3-0.3-0.4-0.4c-11-7.9-21.9-15.8-32.9-23.8	c-5-3.6-10.1-7.3-15.1-10.9c-1.3-1-2.6-2-4-2.9c-1.2-0.8-2.1-1.6-2-3.2c0-0.2-0.1-0.4-0.2-0.5c-0.1-0.1-0.1-0.2-0.1-0.2	c-1.2-5.8-9-9.8-15.2-5.6c-0.6,0.3-1.1,0.7-1.5,1.2c-0.4,0.4-1,0.6-1.5,0.5c-1.6-0.2-3.1-0.3-4.7-0.5c-0.1,0-0.2-0.1-0.3-0.1	c-0.2-0.1-0.5-0.1-0.7-0.1l-0.8,0c-0.1,0-0.2-0.1-0.3-0.1c-0.2-0.1-0.5-0.1-0.7-0.1c-0.3,0-0.5,0-0.8,0c-0.1-0.1-0.2-0.1-0.3-0.1	c-0.2-0.1-0.5-0.1-0.7-0.1l-0.6,0c-2.2-0.3-4.3-0.5-6.5-0.8c-6.1-0.7-12.2-1.4-18.3-2c-4.3-0.5-8.6-0.9-13-1.4l0,0	c-2.8-0.2-5.6-0.5-8.4-0.9c-3-0.4-5.9-0.7-8.9-1.1c-0.5,0-1-0.3-1.3-0.7c-0.7-1.2-1.7-2.2-2.9-2.8c-1.5-1.2-3.4-1.9-5.4-2	c0-0.1,0-0.1,0-0.2h-1.9c-0.1,0.3-0.3,0.2-0.5,0.2c-3.1,0.4-5.9,2.1-7.7,4.6c-0.5,0.5-0.9,1.2-1.1,1.9c-0.2,0.5-0.6,1-1.1,1.2	c-0.9,0.4-1.9,0.9-2.8,1.4c-0.1,0.1-0.3,0.1-0.4,0.2c-13.6,6.7-27.2,13.4-40.8,20.1c-2.9,1.4-5.7,2.8-8.5,4.2	c-4,1.9-7.9,3.8-11.9,5.8c-1.2,0.5-2.4,1.1-3.6,1.7c-1.2,0.7-2.2,1.1-3.3,0.1c0,0-0.1,0-0.2,0c-0.4-0.2-0.8-0.4-1.2-0.6	c-5.7-2-12,1-14,6.7c-0.9,2.5-0.8,5.3,0.2,7.8c0.2,0.4,0.4,0.9,0.6,1.3c0.3,0.7,1,1.1,1.2,1.9c-0.1,0.1-0.2,0.2-0.3,0.3	c-6.4,9.3-12.7,18.7-19.1,28c-3.1,4.5-6.2,9.1-9.2,13.6c-1,1.5-2.1,3-3.1,4.5c-2.2,3.3-4.5,6.6-6.7,9.8c-0.8,1.1-1.6,2.3-2.4,3.5	c-0.2,0.4-0.7,0.7-1.1,0.7c-4.8,0.5-8.7,4-9.7,8.7c-0.1,0.2,0.1,0.6-0.3,0.7v3.1c0.4,0.3,0.3,0.7,0.4,1.1c0.8,3.4,3.3,6.2,6.6,7.5	c0.5,0.2,0.4,0.7,0.4,1.1c0,6.1,0,12.2,0.1,18.2c0,0.1,0,0.3,0,0.4c0,13.9,0,27.9,0,41.8c0,0.2,0,0.3,0,0.5c0.1,4.2,0.1,8.4,0,12.6	c-3.7,1.3-6.4,4.4-7.1,8.2c-0.1,0.4,0.1,0.8-0.3,1.1v2.5c0.2,0,0.2,0.2,0.2,0.4c0.9,5.5,5.8,9.5,11.4,9.2c0.4,0,0.5,0.2,0.7,0.4	c0.8,1.1,1.6,2.3,2.5,3.4c1.4,1.9,2.7,3.9,4.2,5.7c0.1,0.1,0.1,0.3,0.2,0.4c3.2,4.5,6.5,9,9.8,13.4c1.8,2.5,3.7,4.9,5.5,7.4	c0.8,1.1,1.6,2.2,2.4,3.3c2.4,3.2,4.8,6.5,7.2,9.7c0,0.1,0,0.2,0.1,0.3c2.8,3.8,5.6,7.6,8.5,11.4c0.8,1.1,1.8,2.2,1,3.7	c-0.4,0.4-0.2,0.9-0.2,1.4c-0.6,6.4,4.2,12.1,10.6,12.6c1.5,0.1,3.1,0,4.6-0.5c1.2-0.7,2.3-0.3,3.5,0.3c0.7,0.4,1.5,0.8,2.3,1.2	c1.6,0.7,3,1.7,4.7,2.2l0,0c0.2,0.1,0.5,0.3,0.7,0.4c10.6,5.2,21.2,10.5,31.7,15.7c4.6,2.2,9.1,4.5,13.7,6.7c2.5,1.3,5,2.6,7.6,3.7	c0.8,0.3,1.4,0.9,1.7,1.7c0.2,0.3,0.4,0.6,0.6,0.8c2.2,3.2,5.7,5.3,9.5,5.6c0,0.1,0,0.1,0,0.2h2.3c0.1-0.3,0.4-0.2,0.6-0.2	c2-0.2,3.8-0.9,5.4-2c0.4-0.1,0.9-0.4,1.2-0.8c0.6-0.7,1.4-1,2.3-1l0,0c0.4,0,0.7,0,1.1,0c14.4,0,28.8,0,43.2,0	c2.7,0.1,5.3-0.3,7.8-1.3c0.9-0.4,1.9-0.7,2.8-1c3.9-1.4,7.8-2.7,11.7-4.1c0.2-0.1,0.5-0.1,0.7-0.2c6-2.1,12-4.2,18-6.3	c0.5-0.2,1.1-0.4,1.6,0c3.6,1.9,8,1.9,11.6-0.1c3.4-1.7,5.7-4.9,6.3-8.6c0.1-1.2,0.8-2.3,1.9-2.9c8-5.7,15.9-11.4,23.8-17.2	c3.1-2.3,6.2-4.5,9.4-6.8l0,0v0c1.5-1.2,3.1-2.3,4.8-3.4c1.9-1.3,3.8-2.7,5.7-4.1c0.3-0.2,0.6-0.6,1.1-0.2c1.9,1.1,4,1.6,6.2,1.3	c6.1-0.5,10.6-5.8,10.1-11.8c-0.2-2.3-1.1-4.4-2.5-6.2c-0.3-0.3-0.1-0.5-0.1-0.8c0.1-0.1,0.1-0.2,0.2-0.3c1.2-4.2,2.5-8.3,3.7-12.5	c0.5-1.6,1-3.1,1.5-4.7c2.3-7.7,4.6-15.3,6.9-23c1.6-5,3.1-10.1,4.6-15.1c0.7-2.4,1.4-4.8,2.2-7.2c2-6.6,4-13.1,6-19.7	c0-0.6,0.4-1.2,1-1.3c1-0.4,1.9-1,2.6-1.7c1.7-1.5,3-3.5,3.5-5.7c0.1-0.4,0-0.8,0.4-1.1v-2.5C360.7,181.8,360.6,181.8,360.6,181.7z M308.8,285.5c0.2,0.7-0.2,1.5-0.8,1.8c-1.5,0.9-2.9,2-4.3,3c-1.4,0.9-2.8,1.9-4,3c0,0.1-0.1,0.2-0.2,0.3c-4.3,2.9-8.5,5.8-12.7,8.9	l0,0c-2.6,1.8-5.2,3.7-7.8,5.5c-4.5,3.1-8.9,6.3-13.4,9.4c-0.3,0.2-0.5,0.6-1,0.2c-0.5-0.5-1.1-1-1.6-1.5c1.1-2.1,2.2-4.2,3.3-6.4	c1.4-2.4,2.7-4.9,3.9-7.4c1.2-1.9,2.1-3.9,3.1-5.9c1.3-2,2.2-4.2,3.3-6.3c0.7-1.4,1.5-2.7,2.2-4.1c1.1-2.2,2.3-4.4,3.4-6.6	c2.1-3.9,4.2-7.8,6.2-11.8c0.1-0.1,0.1-0.2,0.2-0.3c1.3-2.4,2.5-4.8,3.7-7.3c1.2-2.5,2.6-4.8,3.8-7.2c0.4-0.7,0.8-1.4,1.2-2.2	c1.2-2.2,2.3-4.6,3.6-6.7c0.3,0.2,0.7,0.4,1.2,0.4c0.6,0.3,1.3,0.5,1.9,0.5c0.9-0.2,1.8,0.5,1.9,1.4c0,0.1,0,0.3,0,0.4	c0,0.1,0.1,0.2,0.1,0.2c0.4,1.8,0.9,3.7,1.5,5.4c0.2,1.2,0.6,2.4,1,3.6c0.3,1.3,0.7,2.6,1.1,3.9c0.4,1.8,0.9,3.7,1.5,5.4	c0.3,1.4,0.7,2.8,1.2,4.1c0.5,1.7,0.9,3.3,1.3,5c0.1,0.2,0.2,0.4,0.2,0.7c0,0.1-0.1,0.1-0.1,0.2c-0.1,0.1-0.1,0.1-0.2,0.2	c0,0,0,0,0,0.1c-2,1.3-3.5,3.2-4.2,5.5c-0.1,0.1-0.1,0.1-0.2,0.2C308.8,282.6,308.6,284.1,308.8,285.5z M83.8,306.7	C83.8,306.7,83.8,306.7,83.8,306.7c0.9-5.5-2-10.8-7.1-12.9c-0.3-0.1-0.7-0.1-0.8-0.6c0.3-1.1,0.5-2.3,0.6-3.5	c0.4-1.7,0.7-3.5,1-5.3c0.1-0.1,0.1-0.2,0.1-0.4c0.3-1.3,0.6-2.6,0.7-3.9c0.3-1.1,0.5-2.2,0.6-3.3c0.4-1.4,0.6-2.8,0.8-4.3	c0.1-0.1,0.1-0.2,0-0.4c0.2-0.8,0.8-1.2,1.6-1.4c0.3-0.1,0.6-0.3,0.8-0.4v0c0.4,0,0.7-0.6,1.3-0.1c2.6,2.7,5.2,5.3,7.8,7.9	c2.3,2.3,4.5,4.5,6.8,6.7c2,2.2,4.2,4.3,6.3,6.4c1.7,1.8,3.3,3.6,5.1,5.2c2.1,2.1,4.1,4.1,6.2,6.2l9.1,9.1c2.5,2.6,5.1,5.3,7.7,7.8	c2.4,2.4,4.8,4.9,7.2,7.3c0.2,0.3,0.5,0.6,0.8,0.8c1.2,1.1,2.3,2.2,3.3,3.4c-1.3,1.2-2.3,2.7-3,4.4c-0.4,0-0.9,0-1.3-0.2	c-0.1,0-0.2,0-0.3,0c-0.2-0.1-0.3-0.2-0.5-0.3c-13.7-6.8-27.5-13.6-41.2-20.4c-3.1-1.5-6.2-3-9.3-4.5c-0.1-0.1-0.3-0.2-0.4-0.4	c-0.9-0.6-1.9-1.1-2.9-1.5c-0.6-0.2-1-0.8-0.9-1.5C83.8,306.9,83.8,306.8,83.8,306.7L83.8,306.7z M321,267.2c-0.2,0.2-0.4,0.4-0.5,0	c0,0-0.1,0-0.1-0.1c-0.5-2.2-1-4.3-1.5-6.5c-0.4-1.6-0.8-3.2-1.2-4.8l-1.5-6.2c-0.2-1.5-0.7-2.8-1-4.3c-0.1-0.4-0.2-0.9-0.3-1.3	c-0.4-1-0.2-2.1,0.6-2.8c2.2-2.5,3.3-5.7,3-9c0-0.3,0-0.5-0.1-0.8c0-0.1,0-0.3-0.1-0.4l0-0.4c-0.2-0.9,0.8-1.2,1-1.9v0	c0.2-0.2,0.3-0.4,0.5-0.6c1.6-1.7,3.1-3.5,4.5-5.4c1.5-1.6,2.9-3.3,4.2-5c0.3-0.4,0.6-0.8,1-1.1c1.8-1.9,3.5-3.9,5-6	c1.6-1.7,3-3.5,4.4-5.2c1-1.2,1.9-2.3,2.9-3.5c0.4-0.3,0.5-1.1,1.2-1.1c0,0.5-0.1,0.9-0.3,1.4c-0.4,1.1-0.8,2.2-1,3.3	c0,0,0,0.1,0,0.1l0,0c-0.1,0.1-0.1,0.2-0.1,0.3c-3.1,9.3-6.2,18.5-9.3,27.8c-2.5,7.4-5,14.9-7.4,22.3c-0.7,1.9-1.4,3.8-1.9,5.8	C322.2,263.4,321.6,265.3,321,267.2C321,267.2,321,267.2,321,267.2z M44.3,241.1c-0.2-0.1-0.4-0.1-0.6,0c-1.3-1.1-2.8-1.8-4.5-2.2	l0-0.1c-0.1-0.2-0.3-0.3-0.4-0.4c-1.7-0.8-3.5-1.6-5.2-2.5c-0.2-0.1-0.4-0.1-0.6,0l0,0c-0.5-0.5-1.2-0.9-1.9-1.1	c-1-0.3-1.6-1.3-1.4-2.3c0.3-3.5-1.3-7-4.2-9.1c-0.4-0.3-0.6-0.8-0.4-1.3c0.4-1.4,0.7-2.9,1.1-4.3c0.1-0.4,0.2-0.8,0.1-1.2	c0.2-0.1,0.3-0.3,0.3-0.5c0.4-1.4,0.7-2.7,1-4.1c0.1-0.3,0.1-0.6-0.1-0.8c0.2,0,0.4-0.2,0.4-0.4c0.6-1.9,1-3.9,1.3-5.9	c0.1-0.1,0.2-0.3,0.3-0.5c0.4-1.4,0.7-2.7,1-4.1c0.1-0.3,0.1-0.6-0.1-0.8c0,0,0-0.1,0-0.1c0.6,0.1,0.5-0.5,0.6-0.8	c0.6-2.1,1.1-4.2,1.6-6.4c0.1-0.4,0.3-0.7-0.1-1.1l0,0c0.5-0.2,0.5-0.6,0.6-1c0.9-3.5,1.8-7,2.6-10.5c0.1-0.3,0.1-0.7,0.1-1.1	c0-0.2,0-0.4,0-0.5c0.1-0.5,0.3-1,0.4-1.5c0.8-2.9,1.4-5.9,2.3-8.8c0.8,2.2,1.6,4.4,2.4,6.6c0.2,0.6,0.4,1.2,0.6,1.7	c1.1,3.1,2.2,6.2,3.3,9.3c1.1,3.2,2.2,6.3,3.3,9.5l3.9,11c0.1,0.2,0.1,0.4,0.2,0.6c2.8,8,5.6,16,8.5,24c1.1,3,2.2,6.1,3.3,9.1	c-0.1,0.1-0.1,0.2-0.1,0.2c0,0.4,0.1,0.7,0.3,1c1,2.9,2.1,5.7,2.9,8.5c-0.2,0-0.3,0.1-0.4,0.2c-0.4,0.8-1.3,1.3-2.2,1.1	c0-0.1-0.1-0.1-0.1-0.2c-1.2-0.7-2.5-1.4-3.9-1.9c-0.5-0.2-1-0.7-1.6-0.5c0,0,0,0,0,0c-0.7-0.8-1.8-1.3-2.9-1.4c0,0,0,0,0,0.1	c-0.6-0.7-1.4-1.1-2.3-1.2c0,0,0-0.1-0.1-0.1c-1.2-0.7-2.4-1.3-3.7-1.8c-0.1,0-0.2,0-0.2,0l0,0C47.8,242.6,46.1,241.8,44.3,241.1	L44.3,241.1z M85.8,52.1c0.1-0.1,0.2-0.2,0.3-0.3c0.3-0.2,0.7-0.3,1-0.5c1.7-0.8,3.4-1.5,5-2.5c1.5-0.5,2.9-1.2,4.3-2	c0.4,0.1,0.6-0.2,0.9-0.3c8.2-3.9,16.3-7.8,24.4-11.7c4.3-2,8.5-4.1,12.7-6.2c1.5-0.7,2.9-1.4,4.4-2.2c1.8-0.8,3.6-1.6,5.3-2.5	c0.7-0.4,1.3-0.4,1.5,0.5c0,0,0.1,0.1,0.1,0.1c0.2,0.3,0.4,0.6,0.5,0.9c-0.7,1.3-1.3,2.6-1.9,3.9c-0.8,1.4-1.5,2.9-2.1,4.4	c-1,1.8-1.9,3.7-2.7,5.6c-0.9,1.7-1.8,3.4-2.5,5.2c-1,1.8-1.9,3.7-2.7,5.6c-0.7,1.3-1.4,2.6-1.9,3.9c-0.7,1.3-1.4,2.7-1.9,4.1	c-0.3,0.6-0.6,1.1-0.9,1.7c-0.1,0.4-0.5,0.6-0.9,0.6c-3.1,0.1-5.9,1.6-7.9,4c-0.2,0.4-0.7,0.5-1.1,0.3c-0.9-0.3-1.9-0.5-2.8-0.8	c-1.9-0.5-3.7-1-5.6-1.6c-2.2-0.7-4.4-1.3-6.6-1.8c-1.8-0.6-3.6-1.1-5.4-1.5c-0.4-0.1-0.9-0.3-1.3-0.4c-1.5-0.5-3-0.9-4.5-1.2	c-1.5-0.5-2.9-1-4.5-1.3l-5.6-1.5c0,0,0-0.1,0-0.1c-0.4-0.4-0.9-0.4-1.4-0.6C83.3,53.3,84.7,52.8,85.8,52.1z M340.4,176.9	c-2.4,3.6-2.5,8.2-0.2,11.9c0,0.5,0.2,0.9,0.5,1.2c0.4,0.4,0.4,0.8,0,1.2c-0.5,0.4-0.8,0.9-1,1.5c-0.2,0-0.3,0-0.4,0.1	c-1.2,1-2.1,2.3-3.2,3.4c-0.1,0.1-0.1,0.2,0,0.3c-0.3-0.1-0.5,0.2-0.7,0.4c-1.4,1.4-2.6,2.9-4,4.3c-0.3,0.2-0.5,0.6-0.5,1	c-0.6,0.3-1.1,0.7-1.5,1.3c-0.7,0.6-1.3,1.3-1.6,2.2l0,0c-0.1-0.1-0.3,0-0.4,0.1c-1.1,1.1-2.2,2.3-3.2,3.5c-0.1,0.1-0.1,0.3,0,0.4	c0,0,0,0,0,0.1c-0.4-0.2-0.6,0.2-0.8,0.4c-1.3,1.3-2.5,2.7-3.8,4c-0.5,0.5-1.1,1-1.4,1.7c-0.3,0-0.5,0.1-0.6,0.4	c-0.7,0.9-1.6,1.6-2.3,2.5c-0.6,0.5-1.1,1.2-1.4,1.8c-0.6,0.1-0.9,0.6-1.2,1c-0.2,0.3-0.4,0.3-0.6,0.1l0,0c0.3-0.2,0.5-0.5,0.5-0.9	c0.2-1.7,0.3-3.4,0.4-5.1c0-0.3,0-0.6-0.1-0.8c0-0.1,0.1-0.1,0.1-0.2c0.3-1.3,0.4-2.6,0.4-4c-0.1-0.4,0-0.9,0.1-1.3	c0.1-0.3,0.1-0.6,0.1-0.9c0-0.4,0-0.8,0.1-1.2c0.1-0.3,0.1-0.6,0.1-0.9c0-0.4,0-0.7,0.1-1c0.1-0.2,0-0.5-0.1-0.7c0,0,0,0-0.1,0	c0.1-0.4,0.1-0.9,0.2-1.3c0.6-6.1,1.1-12.1,1.7-18.2c0.4-4.4,0.8-8.8,1.2-13.3c0-0.3,0-0.6,0-0.9l0,0v0c0.1-0.4,0.2-0.8,0.1-1.2	c0.4-4.1,0.8-8.3,1.2-12.4l1-10.9c0-0.2,0-0.4,0-0.6l0,0c0.1-0.4,0.2-0.8,0.1-1.2c0-0.3,0-0.6,0-1l0,0c0.1-0.4,0.2-0.8,0.1-1.2	c0.1-1.2,0.3-2.4,0.4-3.8c0.5,0.8,1,1.3,1.4,1.9c1.6,2.6,3.3,5.2,5,7.8c1.3,2.2,2.8,4.4,4.3,6.6c1.6,2.6,3.3,5.2,5,7.7	c1.3,2.1,2.6,4.2,4.1,6.3l0,0c0,0.4,0.2,0.8,0.5,1.2c0.6,1,1.2,2,1.9,3c0.4,0.3,0.4,0.9,0.1,1.3c-0.1,0.1-0.1,0.1-0.2,0.2	C341.1,175.3,340.6,176,340.4,176.9L340.4,176.9z M93.1,239.4C93.1,239.4,93.2,239.4,93.1,239.4c0.4,0,0.5-0.3,0.6-0.5	c0.4-1,1-2,1.4-3.1c0.1-0.2,0.2-0.5,0.2-0.7l0,0c0.8-1,1.3-2.1,1.7-3.3c0.1,0.2,0.2,0.3,0.3,0.5c4,5.2,8,10.4,12,15.7	c0.2,0.3,0.4,0.6,0.7,0.8c-1.2,0.1-2.3,0.2-3.5,0.4c-0.2,0-0.4,0.1-0.6,0.3c-0.1-0.1-0.2-0.1-0.3-0.1c-1.3,0-2.6,0.2-3.8,0.5	c0,0.1-0.1,0.1-0.1,0.2c-1-0.4-2.1-0.2-3,0.4c-0.1-0.1-0.2-0.1-0.3-0.1c-1.2,0-2.4,0.1-3.6,0.4c-0.1,0-0.3,0.1-0.4,0.2	c-0.1,0-0.2,0-0.3,0c-1.4,0-2.7,0.2-4,0.6c0,0.1,0,0.1,0,0.2c0,0-0.1,0-0.1,0c-0.4-0.4-1.1-0.3-1.4,0.1c0,0,0,0,0,0.1l0,0	c-1-0.2-1-0.2-0.5-1.2c0.2-0.3,0.3-0.7,0.3-1c0.2-0.1,0.4-0.3,0.5-0.5c0.5-1,1-2,1.3-3.1l0,0c0.1,0,0.3-0.1,0.3-0.3	c0.6-1,1.1-2.1,1.4-3.2c0,0,0-0.1-0.1-0.1C92.6,241.5,93.1,240.5,93.1,239.4C93.1,239.4,93.1,239.4,93.1,239.4L93.1,239.4z M116.5,256.9c1.6,2,3.2,4.1,4.8,6.1c2,2.7,4,5.4,6.1,8c1.2,1.7,2.4,3.3,3.7,4.9c1.1,1.5,2.2,3,3.3,4.4c0.2,0.2,0.4,0.3,0.7,0.3	c1.8,0,3.7,0,5.5,0.1l3.8,0.1c3.5,0.2,7,0.2,10.5,0.2c3.5,0.2,7.1,0.2,10.6,0.2c0.5,0,0.9,0.1,1.4,0.1c1.8,0.1,3.7,0.1,5.5,0.1	c-0.5,1.2-1.1,2.3-1.6,3.5c-0.6,1.3-1.2,2.6-1.9,3.9c-0.5,1.1-1,2.2-1.6,3.3c-0.7,1.2-1.2,2.4-1.8,3.7l-1.8,3.7	c-0.7,1.5-1.4,3-2.1,4.5c-0.5,1-0.9,1.9-1.4,2.9l0,0c-0.5,1-1,2.1-1.5,3.1c-0.6,1.2-1.2,2.5-1.7,3.7c-0.7,1.2-1.2,2.4-1.8,3.7	c-0.7,1.2-1.2,2.4-1.7,3.7c-0.5,0.7-0.8,1.5-1.1,2.3c-0.5,0.8-0.9,1.7-1.3,2.6c-0.5,0.2-0.7-0.2-1-0.4c-0.3-0.4-0.7-0.7-1.2-1	c0-0.2-0.1-0.3-0.3-0.5c-1.5-1.9-3.4-3.5-5.1-5.3c-0.2-0.2-0.4-0.4-0.7-0.3l0,0c0.2-0.4-0.2-0.6-0.4-0.8c-1.7-1.7-3.3-3.4-5-5	c-0.2-0.2-0.4-0.4-0.7-0.5c0-0.1-0.1-0.2-0.1-0.3c-1.1-1.2-2.2-2.3-3.5-3.4c0,0-0.1,0-0.1,0c-0.4-1.1-1.3-1.9-2.4-2.3c0,0,0,0-0.1,0	c-0.4-1.1-1.3-2-2.4-2.5c-0.7-1.3-1.7-2.3-2.9-3.1c0,0-0.1,0-0.1,0c-0.8-0.8-1.6-1.6-2.3-2.4c-1.1-1.4-2.6-2.3-3.7-3.7	c-1.8-2-3.8-4-5.7-5.8c-0.2-0.3-0.4-0.5-0.7-0.8c-1.9-1.9-3.9-3.9-5.8-5.8c-0.1-0.2-0.2-0.3-0.3-0.4c-5.6-5.7-11.1-11.3-16.7-16.9	c-1-1-1.8-1.9-1.1-3.3l0.1-0.4l0.4,0l3.5-0.4v0c0.7-0.1,1.4-0.2,2.1-0.4c0.6-0.1,1.2-0.1,1.8-0.2c1.7-0.2,3.4-0.4,5-0.7	c1.3-0.1,2.6-0.3,3.9-0.6c1.2-0.1,2.3-0.2,3.5-0.4l4.1-0.6C114.2,257.2,115.2,257.1,116.5,256.9L116.5,256.9z M256.4,310.4	c-0.6,0.8-1.1,1.6-1.5,2.6c-0.2,0.5-0.7,0.9-1.3,1c-0.9,0.4-1.9,0.1-2.5-0.7c-0.1-0.2-0.3-0.3-0.6-0.4l0,0c-0.8-1.2-1.7-2.4-2.6-3.4	c-0.9-1.4-2-2.7-3.1-3.9c-0.6-0.9-1.2-1.7-2-2.5c-0.6-0.9-1.2-1.7-2-2.5c-0.7-1.1-1.5-2.1-2.4-3.1l-2.5-3.1	c-0.8-1.2-1.8-2.4-2.8-3.5c-0.6-1-1.3-1.9-2.1-2.7c-0.5-0.8-1.1-1.5-1.7-2.1c-0.5-0.8-1.1-1.6-1.8-2.3c-0.2-0.6-0.9-0.9-0.9-1.5	c0.4,0,0.6-0.4,0.8-0.6c1.6-1.9,3.1-3.8,4.7-5.8c1.5-1.7,3-3.5,4.4-5.3c0.5-0.4,0.9-0.8,1.2-1.3c2.5-3.1,5.1-6.2,7.6-9.2	c1.6-1.8,3.1-3.7,4.7-5.5c2.9-3.5,5.8-6.9,8.7-10.4c-1-0.5-2.1,0-3.1,0c-0.9,0-1.8,0-2.7,0.2c-1.2,0.1-2.5,0.2-3.7,0.2l-2.9,0.2	c-1.6,0.1-3.2,0.2-4.8,0.3c-1,0-1.9,0-2.9,0.2c-0.9,0-1.8,0-2.7,0.2c-0.9,0-1.8,0-2.7,0.2c-1.4,0-2.7,0.1-4.1,0.2	c-1.7,0.1-3.4,0.2-5,0.4c-1.2,0.1-2.5,0.1-3.7,0.2c-1.5,0.1-3.1,0.2-4.6,0.4c-1.4,0-2.7,0.1-4.1,0.2c-0.2,0-0.4,0-0.5,0	c-0.1,0-0.2,0-0.3,0c-1.1,0.2-2.2,0.2-3.3,0.1c-2.1-0.2-3.1,0.7-3.4,2.6c0,0.1,0,0.1,0,0.2c-0.2,0.4-0.4,0.8-0.7,1.1	c-0.6,0.7-0.4,1.3,0.3,1.8c0.4,0.6,0.8,1.2,1.4,1.7c0.4,0.6,0.8,1.2,1.4,1.7c0.5,0.8,1.1,1.5,1.7,2.2c0.5,0.7,1.1,1.4,1.6,2.1	l1.1,1.4c0.3,0.6,0.7,1.1,1.2,1.5c0.4,0.6,0.8,1.2,1.4,1.7c0.5,0.8,1.1,1.5,1.7,2.2c0.5,0.7,1.1,1.4,1.6,2.1	c0.6,0.8,1.2,1.6,1.9,2.4c0.3,0.6,0.7,1.1,1.2,1.5c0.5,0.8,1.1,1.5,1.7,2.1c0.6,0.9,1.3,1.7,2,2.5c0.4,0.6,0.8,1.2,1.4,1.7	c0.5,0.7,1.1,1.4,1.6,2.1c0,0.2-0.2,0.2-0.4,0.2c-2.6,0-5.3-0.1-7.9-0.1c-0.8-0.1-1.5-0.1-2.3,0.1c1.3,1.6,2.6,3.3,3.9,4.9	c0.5,0.8,1.1,1.6,1.8,2.3c0.5,0.8,1.1,1.5,1.7,2.2c0.6,1,1.3,1.9,2.1,2.7c0.8,1.2,1.7,2.4,2.7,3.4c0.8,1.2,1.8,2.4,2.7,3.5	c0.8,1,1.6,2,2.3,3c0.6,0.8,1.3,1.6,1.9,2.4c0.6,0.9,1.2,1.7,1.9,2.5c1,1.4,2,2.7,3.1,4c0.9,1.2,1.8,2.4,2.8,3.6c0,0.1,0,0.1,0,0.2	c0,0.1,0.1,0.2,0.1,0.4c0.5,0.9,0.5,0.9-0.5,1.1c-1.6,0.2-3.2,0.3-4.8,0.7c-0.2,0.1-0.4,0.2-0.6,0.3c-3.5,0.4-7,0.7-10.5,1.3	c-1.5,0.2-3,0.3-4.5,0.5c-6.2,0.7-12.5,1.5-18.7,2.2c-6.7,0.8-13.5,1.6-20.2,2.4c-2.5,0.3-4.9,0.6-7.4,1h0c-1.3,0.1-2.6,0.2-3.9,0.4	c-2.2,0.3-4.4,0.6-6.7,0.9c-0.2,0-0.3-0.1-0.5-0.1c-1.2,0-2.3,0.1-3.5,0.3c-0.4,0-0.9,0.2-1-0.4c0,0,0,0,0,0	c0.5-0.8,0.6-1.9,1.2-2.7c0.5-0.8,0.8-1.6,1.1-2.5c0.7-1.3,1.4-2.7,1.9-4.1c0.6-1.1,1.1-2.2,1.5-3.3c0.7-1.3,1.3-2.5,1.8-3.9	c0.6-1.1,1.1-2.2,1.5-3.3c0.5-0.9,1-1.9,1.4-2.9c0.8-1.5,1.5-3.1,2.1-4.6c0.7-1.2,1.2-2.4,1.7-3.7c0.6-1.1,1.1-2.3,1.6-3.4	c0.7-1.2,1.2-2.4,1.7-3.7c0.7-1.2,1.3-2.5,1.8-3.9h0c0.7-1.4,1.4-2.9,2.1-4.3c3.4,0.1,6.8,0.1,10.3,0.2c3.9,0.1,7.8,0.1,11.6,0.2	c4,0.1,8,0.2,12,0.3c0.2-0.3-0.1-0.4-0.2-0.6c-0.7-0.9-1.5-1.8-2.2-2.8l-1.6-2.1c-0.5-0.6-0.9-1.2-1.4-1.7c-0.4-0.7-1-1.3-1.5-1.9	c-0.6-0.8-1.2-1.6-1.8-2.3c-0.7-0.8-1.3-1.7-2-2.5c-0.5-0.8-1.2-1.6-1.9-2.3c-0.4-0.7-0.9-1.4-1.5-2c-0.5-0.8-1.1-1.6-1.8-2.3	c-0.6-1-1.3-1.9-2.1-2.7c-0.6-1.2-1.4-2.1-3-1.4c0,0-0.1,0-0.1,0c-1.7-0.2-2.4,0.9-2.8,2.3c-0.5,1.2-1.1,2.3-1.6,3.5l-1.3,2.7	c-0.4,0.8-0.8,1.7-1.2,2.5c-0.4,0.9-0.8,1.8-1.2,2.7c-0.5,1.1-1,2.2-1.5,3.3c-0.5,0.9-0.9,1.8-1.3,2.7l-1.2,2.5	c-0.3,0.6-0.5,1.2-0.8,1.7c-2.6-0.1-5.3-0.1-7.9-0.2c-0.4,0-0.9,0.2-1.3-0.2c0.2-0.5,0.4-1,0.7-1.5c0.5-0.9,1-1.9,1.4-2.9l0,0	c0.4-0.8,0.7-1.6,1.1-2.3c0.5-1,0.9-1.9,1.4-2.9c0.3-0.5,0.5-1,0.7-1.6c0.4-0.4,0.3-0.9,0.6-1.4c0.2-0.4,0.4-0.8,0.6-1.1	c0.2-0.2,0.4-0.5,0.4-0.8l0.6-1.2c0.4-0.5,0.6-1.1,0.8-1.7c0.5-0.8,0.8-1.5,1.1-2.4c0.5-0.8,0.9-1.6,1.2-2.5c0.4-0.6,0.7-1.3,0.9-2	c0.8-1.4,0.8-1.4-0.3-2.4c-0.1-0.1-0.3-0.2-0.4-0.3c-0.6-0.7-1.2-1.4-1.8-2.1c-0.6-0.9-1.1-1.9-1.5-3c-0.2-0.8-0.6-0.9-1.4-0.8	c-2.2,0.4-4.5,0.6-6.7,1c-1.9,0.3-3.8,0.5-5.7,0.8c-0.1,0-0.3,0-0.4,0.1c-1.8,0.1-3.7,0.4-5.5,0.8l0,0c-1.4,0.1-2.8,0.3-4.2,0.6	c-1.4,0.1-2.7,0.3-4.1,0.6c-1.4,0.1-2.7,0.3-4.1,0.6l0,0c-1.4,0.1-2.7,0.3-4.1,0.6c-1,0-1.9,0.2-2.9,0.4c-0.5,0-0.9,0-1.4,0.2	c-0.3,0-0.7-0.1-1,0.2c-0.7,0-1.3,0-1.9,0.2c-0.7,0-1.3,0.1-1.9,0.2c-0.9,0.2-1.9,0.3-2.8,0.5c-0.2,0-0.3,0-0.5,0.1	c-0.9,0-1.8,0.1-2.7,0.4c-1.3,0.1-2.6,0.3-3.9,0.5c-0.1,0-0.3,0-0.4,0.1c-1,0-2.1,0.2-3.1,0.4c-0.8,0-1.7,0.2-2.5,0.4	c-0.7,0.1-1.5,0.2-2.4,0.3c-2-2.6-3.8-5-5.7-7.4c-0.4-0.5-0.3-0.6,0.2-0.8l0.6-0.1c0.5-0.1,1-0.1,1.6-0.2l2.9-0.4	c1.2-0.1,2.5-0.3,3.7-0.5c1.2-0.1,2.3-0.2,3.5-0.4c1-0.1,2.1-0.3,3.1-0.4c0.8-0.1,1.7-0.2,2.5-0.4c0.5,0,0.9,0,1.4-0.2	c0.4,0,0.8,0.1,1.2-0.2c0.7,0,1.4-0.1,2.1-0.2c1.5-0.2,3-0.4,4.4-0.6c0.9-0.1,1.8-0.2,2.7-0.4c0.4,0.1,0.8,0,1.2-0.2	c0.4,0,0.8,0.1,1.2-0.2c0.5,0,1.1,0.1,1.5-0.2c0.7,0,1.4-0.1,2.1-0.2c1-0.1,1.9-0.3,2.9-0.4c1.3-0.1,2.6-0.3,3.9-0.5	c1.2-0.1,2.3-0.2,3.5-0.4c1.7-0.2,3.4-0.3,5-0.7c1.8-0.1,3.5-0.4,5.2-0.6c1.9-0.3,3.9-0.5,5.8-0.8c1.4-0.2,2.8-0.4,4.3-0.6	c0.8-0.1,1.7-0.2,2.5-0.3c0.6-0.1,0.9-0.8,0.5-1.2c-0.3-0.2-0.6-0.4-0.9-0.6c-0.5-0.5-1-0.8-1.5-1.2c-0.4-0.3-0.9-0.7-1.3-1l0,0	c-0.6-0.6-1.3-1.1-2-1.5h0c-1-0.9-2.1-1.8-3.3-2.5c-1.7-1.4-3.5-2.8-5.3-4.1c-2.9-2.3-5.8-4.5-8.8-6.8c-2.6-2-5.3-4-7.9-6l0,0	c-1.7-1.4-3.4-2.8-5.2-4v0c-1-0.9-2.1-1.8-3.3-2.5c-0.8-0.5-1.4-1.4-2.3-1.8c-0.3-0.3-0.6-0.6-1-0.8c-0.5-0.5-1.1-1-1.7-1.4	l-2.1-1.7c-0.5-0.4-1-0.8-1.5-1.2v0c-0.8-0.6-1.7-1.3-2.5-1.9c-0.8-0.7-1.7-1.4-2.7-2.1l0,0c-0.8-0.8-1.8-1.5-2.7-2	c-0.7-0.7-1.5-1.3-2.3-1.9c-0.3-0.2-0.4-0.5-0.9-0.3c-0.6,0.3-1.2,0.4-1.8,0.6l-1.7,0.2l-1.2,0c-0.4,0-0.9-0.4-1.3,0	c-0.4,0.5-0.6,1.1-0.8,1.7c-0.2,0.5-0.5,1-0.7,1.6c-0.5,1-1,2.1-1.5,3.1c-0.8,1.7-1.6,3.3-2.4,5c-0.4,0.8-0.7,1.6-1.1,2.3	c-0.2,0.4-0.4,0.9-0.7,1.3c-0.3,0.4-0.5,0.9-0.6,1.3c-0.5,0.9-0.9,1.8-1.3,2.7c-0.6,1-1.1,2-1.5,3.1c-0.6,1.2-1.2,2.5-1.8,3.7	c-0.5,1.1-1,2.2-1.6,3.3c-0.5,1.1-1,2.2-1.6,3.3c-0.3,0.6-0.6,1.2-0.8,1.7c-0.5,1-1,2.1-1.5,3.1c-1.5-1.9-3-3.8-4.5-5.7	c-0.2-0.2-0.2-0.8-0.7-0.5l-1.1,2.7c-0.6,1.4-1.3,2.7-1.9,4.1c-0.5,1.1-1,2.2-1.5,3.3c-0.6,1.2-1.2,2.4-1.7,3.7	c-0.6,1.3-1.2,2.6-1.8,3.9c-0.5,1.1-1,2.2-1.5,3.3c-0.3,0.8-0.8,0.9-1.6,0.5c-0.8-0.4-1.8-0.6-2.7-0.7c-1-0.2-1.9-0.2-2.9-0.1	c-0.9,0.2-1.3-0.3-1.5-1.1c-0.4-1.4-0.8-2.8-1.4-4.2c0-0.3-0.1-0.6-0.2-0.9c-3-8.6-6-17.1-9-25.7c-1.2-3.5-2.5-7.1-3.8-10.6	c-0.8-2.6-1.7-5.2-2.7-7.8c-0.9-2.6-1.7-5.2-2.7-7.8c-0.6-1.5-0.9-3.2-1.6-4.7c0-0.1,0-0.3,0.1-0.4c-0.4-1.5-0.8-2.9-1.4-4.3	c-0.1-0.3-0.2-0.6-0.6-0.6l0,0c0.1-0.2,0.1-0.4,0.1-0.6c-0.4-1.6-1-3.1-1.6-4.6c0-0.1-0.1-0.2-0.2-0.2c0-0.3,0-0.6-0.1-0.8	c-0.6-1.7-1.2-3.4-1.8-5.1c-0.1-0.3-0.2-0.5-0.4-0.6c0-0.4-0.1-0.7-0.2-1.1c-0.3-1-0.6-2-1-2.9c-0.3-0.6-0.1-1,0.5-1.3	c0.5-0.1,1-0.4,1.4-0.9c0.1,0.1,0.3,0.1,0.4,0c0.7-0.5,1.5-0.8,2.4-0.8c1.1,0.6,2.2,1.1,3.3,1.6c1.2,0.7,2.4,1.2,3.7,1.7	c1.2,0.7,2.4,1.2,3.7,1.7c1.2,0.7,2.5,1.3,3.8,1.8c0.9,0.5,1.9,1,2.9,1.4c0.8,0.5,1.6,0.9,2.5,1.2c0.8,0.5,1.6,0.9,2.5,1.2	c1.1,0.6,2.2,1.1,3.3,1.6c1.1,0.6,2.2,1.1,3.3,1.5c1.1,0.6,2.2,1.1,3.3,1.5c0.5,0.2,1,0.5,1.4,0.7c1,0.3,1.9,0.8,2.7,1.4	c-0.8,3.2-1.5,6.3-2.3,9.5l-2,7.9l-1.5,6.2c-0.6,2.3-1.2,4.7-1.8,7c-0.1,0.3,0,0.6,0.3,0.8c1.1,1.5,2.3,2.9,3.4,4.4	c1,1.3,1.9,2.7,3,3.9c1.1,1.6,2.3,3.1,3.5,4.6l3.1,4.2c0.6-0.1,0.5-0.7,0.8-1.2c0.3-0.7,0.7-1.4,1-2.1c0.5-0.9,1-1.9,1.4-2.9	c0.4-0.6,0.7-1.3,1-2.1c0.6-1.1,1.1-2.2,1.6-3.3c0.4-0.6,0.7-1.3,0.9-2c0.5-0.9,1-1.9,1.4-2.9c0.7-1.4,1.4-2.8,2-4.2	c0.8-1.5,1.5-3,2.1-4.5c0.7-1.2,1.2-2.4,1.7-3.7c0.9-1.8,1.7-3.6,2.6-5.4c0.2-0.3,0.1-0.6-0.1-0.9c-0.9-1.2-1.6-2.5-2-3.9	c-0.1-0.4-0.4-0.6-0.7-0.6c-0.7-0.4-1.5-0.8-2.3-1.1c-0.8-0.4-1.7-0.8-2.5-1.2c-0.9-0.5-1.8-0.9-2.7-1.2c-0.6-0.4-1.3-0.7-2-0.9	c-0.4-0.3-0.9-0.5-1.3-0.6c-0.7-0.4-1.4-0.8-2.1-1l-1.8-0.9c-0.6-0.4-1.3-0.6-1.9-0.8c-0.5-0.3-1-0.6-1.5-0.8	c-0.3-0.2-0.6-0.4-0.9-0.4c0-0.1-0.1-0.2,0-0.4c0.5-2.2,1.1-4.5,1.6-6.7c0-0.2,0.2-0.3,0.3-0.3l1.1,0.5c0.8,0.5,1.6,0.9,2.5,1.2	c0.5,0.3,1,0.6,1.6,0.8c0.8,0.5,1.6,0.9,2.5,1.2c0.5,0.4,1.1,0.6,1.7,0.8c0.4,0.3,0.8,0.4,1.2,0.5c0.8,0.4,1.7,0.8,2.5,1.2	c0.5,0.3,1.1,0.6,1.7,0.8c0.5,0.2,0.9,0.5,1.4,0.7c0.3,0.1,0.5,0.2,0.8,0.3c0.2,0.2,0.5,0.3,0.8,0.3c1.2,0.7,1.2,0.7,1.9-0.4	c0.1-0.1,0.2-0.3,0.2-0.4c0.7-0.8,1.5-1.6,2.3-2.3c1.1-0.7,2.2-1.2,3.5-1.6c0.5-0.1,0.5-0.5,0.5-0.8c0.1-1,0.2-2,0.4-3.1	c0.4-3.5,0.8-7.1,1.2-10.6l0.6-4.8c0.1-1.2,0.3-2.5,0.4-3.7c0.1-0.7,0.2-1.4,0.2-2.1c0.2-0.8,0.3-1.5,0.3-2.3c0-0.3,0-0.5,0.1-0.8	c0.1-0.3,0.2-0.6,0.2-1l0.1-0.8c0.2-1.3,0.4-2.7,0.5-4.1c0.2-1.4,0.4-2.7,0.4-4.1c0.2-1,0.3-1.9,0.4-2.9l0.4-2.9	c0.1-1.2,0.3-2.5,0.4-3.7l0.4-2.9c0.2-1.3,0.4-2.7,0.4-4.1c0.3-1.4,0.4-2.8,0.5-4.3l0.4-3.3c0.2-0.8,0.2-1.5,0.2-2.3	c2.5-1.4,5.1-2.4,7.7-3.6c0.1-0.1,0.2,0,0.3,0.1c-0.1,0.8-0.1,1.7-0.2,2.5c-0.2,1.1-0.4,2.2-0.4,3.3c-0.2,1.1-0.4,2.2-0.4,3.3	c-0.1,0.3-0.2,0.6-0.2,1l0,0.4c-0.2,0.6-0.2,1.3-0.2,1.9c-0.2,1.1-0.4,2.2-0.4,3.3c-0.2,0.6-0.3,1.1-0.2,1.7	c-0.2,1.1-0.4,2.2-0.4,3.3c-0.3,1.5-0.5,3-0.5,4.5c-0.3,1.2-0.4,2.4-0.4,3.7c-0.1,0.7-0.2,1.4-0.3,2.1c0,0.4,0,0.8,0,1.2	c-0.2,0.6-0.3,1.1-0.2,1.7h0c-0.2,1.1-0.4,2.2-0.4,3.3c-0.3,1.6-0.5,3.2-0.6,4.9c-0.1,0.3-0.2,0.6-0.2,1l0,0.2	c-0.2,0.7-0.2,1.4-0.2,2.1c-0.2,0.3-0.2,0.6-0.2,1l0,0.6c-0.4,0.5-0.1,1.2-0.2,1.7c0,0-0.1,0.1-0.1,0.1c-0.1,0.3-0.1,0.6-0.1,0.9	l-0.1,0.7c-0.3,1.6-0.5,3.2-0.6,4.9c-0.4,2.2-0.6,4.4-0.8,6.6c-0.4,2-0.5,4.1-0.8,6.1c-0.1,0.7,0.1,1.1,0.8,1.3l1.9,1.6	c0.3,0.3,0.5,0.5,0.8,0.8c0.2,0.6,0.6,0.3,1,0.1c0.3-0.1,0.5-0.1,0.8-0.2c0.5-0.1,1.1-0.3,1.5-0.5c0.3-0.1,0.6-0.2,1-0.2	c0.3-0.1,0.6-0.1,0.8-0.3c0.3,0,0.7-0.1,0.9-0.2l0.6-0.2l1.4-0.4c0.8-0.2,1.6-0.5,2.3-0.7c0.8-0.3,1.7-0.5,2.5-0.8	c1-0.3,2.1-0.6,3.1-1c0.7-0.2,1.5-0.4,2.2-0.7c0.7-0.1,1.4-0.4,2.1-0.7c0.5-0.1,1.1-0.3,1.6-0.5l0,0c0.7-0.1,1.3-0.3,1.9-0.6l0,0	c0.3,0,0.7-0.1,1-0.2v0c0.5-0.1,1.1-0.3,1.6-0.5c0.6-0.2,1.2-0.4,1.7-0.6c0.5,0,0.9-0.2,1.4-0.4c0.5-0.1,1-0.3,1.5-0.4l0,0l1.6-0.5	c0.7-0.1,1.4-0.3,2.1-0.6c0.8-0.3,1.6-0.5,2.3-0.8l0,0c2.9-0.9,5.9-1.8,8.8-2.7c4.1-1.3,8.1-2.6,12.2-3.9l0,0c1-0.2,2-0.5,2.9-0.9	l0,0c0.6-0.1,1.2-0.3,1.7-0.6v0c0.7-0.1,1.4-0.3,2-0.6h0c0.4,0,0.8-0.1,1.1-0.4l0,0c0.5-0.1,0.9-0.3,1.4-0.4l0,0	c0.6-0.1,1.2-0.3,1.8-0.6l0,0c0.7-0.1,1.3-0.3,1.9-0.6l0.6-0.2l0,0l0,0c0.6-0.2,1.3-0.4,1.9-0.6c0.6-0.1,1.2-0.3,1.8-0.6h0	c0.7-0.1,1.3-0.3,1.9-0.6c0.8-0.1,1.6-0.4,2.4-0.7h0c1.1-0.2,2.1-0.6,3.1-1c0.9-0.2,1.7-0.4,2.5-0.8l0,0c0.9-0.2,1.7-0.4,2.5-0.8	c0.4,0,0.8-0.2,1.2-0.4c0.2,0,0.3,0,0.4-0.2h0c0.5,0,1-0.2,1.5-0.4c0.2,0,0.4,0,0.6-0.2h0c0.2,0,0.4,0,0.6-0.2h0	c0.4,0,0.8-0.2,1.1-0.4c0.5-0.1,0.9-0.3,1.4-0.4c0.3,0,0.5-0.1,0.8-0.2c0.8-0.1,0.4-0.7,0.5-1.2c0-0.2,0.1-0.4,0.1-0.6	c0.4-0.9,0-1.4-0.7-1.9c-1.8-1.3-3.5-2.6-5.3-3.9c-2-1.4-3.8-3-5.9-4.3c-2.3-1.8-4.6-3.6-7-5.2c-1.6-1.2-3.2-2.5-4.8-3.6	c-1-0.9-2.2-1.7-3.3-2.4c-0.6-0.2-0.9-1-1.5-1.2c-0.5-0.3-1-0.7-1.5-1c-0.9-0.9-1.8-1.7-2.9-2.3c-1.2-1-2.5-2-3.9-2.9	c-0.8-0.7-1.7-1.4-2.7-1.9c-0.5-0.5-1.1-1-1.7-1.4c-0.3-0.2-0.6-0.5-1-0.7c-0.6-0.4-1.2-0.8-1.7-1.3c-1-0.9-2-1.6-3.1-2.3	c-1.1-1-2.2-1.8-3.5-2.5c-0.6-0.6-1.2-1.1-1.9-1.5l-1.6-1.2c-0.9-0.7-1.8-1.4-2.7-2l-1.9-1.5c-1-0.8-2-1.5-3.1-2.3	c-1-0.8-2-1.6-3.1-2.3c-0.8-0.6-1.7-1.3-2.5-1.9c0.1-0.4,0.5-0.4,0.8-0.5c2-0.9,4-1.8,6-2.8c0.3-0.1,0.7-0.1,0.7-0.6l-2.9-2	c-1.1-0.9-2.3-1.8-3.5-2.5c-0.7-0.7-1.5-1.3-2.3-1.8c-0.8-0.7-1.6-1.3-2.5-1.9c-0.8-0.7-1.7-1.4-2.7-2c-0.8-0.7-1.6-1.3-2.5-1.9	c-0.9-0.8-1.9-1.5-2.9-2.1c-0.1-0.3-0.5-0.3-0.5-0.6c1.1-0.1,2.3-0.2,3.4-0.3c2.4-0.1,4.8-0.3,7.2-0.5c1.9,0,3.9-0.2,5.8-0.4	c2.3-0.1,4.7-0.3,7-0.4c8.7-0.6,17.4-1.3,26.1-1.9c2.1-0.2,4.3-0.4,6.4-0.5c1.6,0,3.2-0.1,4.7-0.4l0,0l0,0l1.9-0.1	c0.5,0.1,0.9,0,1.4-0.1l0,0c0.4,0,0.8,0,1.2,0c0.5,0,0.9,0,1.4-0.1l0,0l0.5,0c1.1-0.1,2.2-0.1,3.3-0.2c2.3-0.2,4.5-0.4,6.8-0.6	c2.8-0.1,5.5-0.3,8.3-0.6c1.2-0.3,2.5,0.1,3.3,1.1c0,0,0.1,0.1,0.2,0.1c0.6,0.6,1.4,1.1,2.2,1.4c0.7,0.1,1.2,0.8,1.1,1.5	c0,0.1,0,0.1,0,0.2c0,0.1-0.1,0.3-0.1,0.5c-0.1,0.4-0.1,0.8-0.1,1.1l0,0.2l-0.2,3.7c-0.2,1.2-0.2,2.5-0.2,3.7	c-0.2,1.2-0.2,2.5-0.2,3.7c-0.2,1.2-0.3,2.3-0.2,3.5c-0.2,1.1-0.2,2.2-0.2,3.3c-0.1,0.1-0.1,0.3-0.1,0.4c-0.1,1-0.2,1.9-0.1,2.9	c-0.2,1.1-0.2,2.2-0.2,3.3c-0.4,1.1,0,2.4-0.4,3.5c-0.2-0.1-0.4-0.1-0.5-0.2c-2.2-1.1-4.5-2.3-6.7-3.4c-4.1-2.1-8.2-4.3-12.4-6.3	c-1-0.5-2.1-1-3-1.6c-7.7-3.9-15.4-7.8-23.1-11.7c-0.5-0.3-1.1-0.3-1.6-0.1c-7.3,3.4-14.5,6.7-21.8,10c-0.3,0.2-0.6,0.3-1,0.3	c-0.1,0.5,0.4,0.5,0.7,0.8c0.8,0.6,1.6,1.2,2.3,1.8c0.1,0.2,0.3,0.3,0.6,0.4c0.4,0.4,0.8,0.7,1.3,1c1.1,0.9,2.2,1.7,3.3,2.5	c1.1,0.9,2.2,1.8,3.4,2.5c0.7,0.7,1.5,1.2,2.3,1.7l3.3,2.5c1.1,0.9,2.3,1.7,3.5,2.5c1.2,1,2.5,2,3.9,2.9c1.2,1,2.4,1.9,3.7,2.7	c1.2,1,2.4,1.9,3.7,2.7c1.1,0.9,2.2,1.7,3.4,2.5c1.3,1.1,2.6,2,4,2.9c0.6,0.5,1.2,1,1.8,1.4c1.9,1.4,3.8,2.8,5.7,4.2	c0.1,0.1,0.3,0.3,0.4,0.4c5,3.7,10.1,7.5,15.1,11.2c1.4,1,1.4,1,2.9,0c0.3-0.2,0.6-0.4,0.9-0.6h0c0.3-0.2,0.7-0.3,1-0.4	c0.8-0.2,1.2-0.7,1-1.5c0.1-1,0.1-2.1,0.2-3.1l0.1-1.6l0,0c0.1-0.6,0.2-1.2,0.1-1.7c0-0.4,0-0.8,0-1.2c0.1-0.8,0.2-1.7,0.2-2.5	c0.1-1.1,0.1-2.2,0.2-3.3l0.2-3.1c0.1-1,0.1-2.1,0.2-3.1c0.1-1,0.1-2.1,0.2-3.1l0.2-3.3l0,0v0c0.1-1.1,0.1-2.2,0.2-3.3l0-0.4l0-0.8	l0-0.4c0.2-0.4,0.4-0.4,0.8-0.2c2.3,1.2,4.6,2.4,6.9,3.5c0.1-0.5,0.2-0.9,0.1-1.4c0.1-1.2,0.2-2.3,0.2-3.5l0.4-4.5l0.3-3.9l0,0	c0.1-0.4,0.2-0.8,0.1-1.2l0.2-2.7c0.1-1,0.1-2.1,0.2-3.1l0,0h0l0.4-4.6c0.1-1,0.1-2.1,0.2-3.1c0.1-1.3,0.2-2.6,0.3-3.9	c0,0,0,0,0-0.1l0.1-0.7c0,0.1,0,0.2-0.1,0.3c0-0.1,0-0.2,0.1-0.3c0.1-0.9,0.2-1.7,0.3-2.7c0.2,0.2,0.3,0.2,0.5,0.3	c9.8,8,19.6,15.9,29.3,23.9c3.4,2.7,6.7,5.4,10.1,8.2c2.4,2,4.8,3.9,7.2,5.9l3.9,3.2c0.9,0.8,1.9,1.6,2.9,2.3	c1.8,1.6,3.7,3.1,5.6,4.6c0.6,0.5,1.2,1,1.8,1.5c0.5,0.4,1.1,0.7,1.5,1.2c0.4,0.6-0.5,1.1-0.6,1.7c-0.2,0.7-0.8,1.1-1.5,1.2	c-0.5,0-0.9,0.2-1.3,0.4c-1.4,0.2-2.7,0.6-4.1,1l-4.5,1.2v0c-1.4,0.4-2.8,0.8-4.3,1.1l-3.9,1v0c-1,0.3-1.9,0.5-2.9,0.8	c-0.9,0.2-1.8,0.4-2.7,0.8c-1.1,0.1-2.1,0.4-3.1,0.8c-1.2,0.2-2.4,0.5-3.5,0.9c-0.5,0-0.9,0.1-1.4,0.3c-0.6,0.3-0.8,0-0.9-0.5	c-0.8-3.9-1.6-7.8-2.4-11.7c-0.1-0.5-0.5-0.7-0.9-0.9c-7.7-3.9-15.4-7.7-23.1-11.6c-0.7-0.4-1.4-0.8-2.1-1.1c-0.7-0.5-1.5-0.8-2.4-1	l0,1.7c-0.1,0.1-0.1,0.2-0.1,0.3c-0.1,0.8-0.2,1.6-0.2,2.4c-0.2,0.8-0.2,1.7-0.2,2.5c0,0.2-0.1,0.4-0.1,0.6	c-0.2,1.2-0.2,2.3-0.3,3.5c0,0.4,0,0.7,0,1.1c-0.2,1.6-0.3,3.2-0.4,4.9c-0.2,0.9-0.3,1.9-0.2,2.9c-0.2,0.8-0.2,1.7-0.2,2.5	c-0.1,0.4-0.2,0.9-0.1,1.4l0,0.2c-0.1,1.1-0.1,2.2-0.3,3.3c-0.2,0.5,0.1,1.1,0.7,1.3c0,0,0.1,0,0.1,0c2,0.7,3.8,2,5.1,3.7	c1.2,1.5,1.2,1.5,3,0.9c0.1,0,0.2-0.1,0.3-0.1c1-0.2,2-0.4,2.9-0.8c1-0.2,2-0.4,3-0.8l0,0c1-0.2,2.1-0.4,3-0.8	c0.5,0,1.1-0.2,1.5-0.4c1-0.2,2-0.4,2.9-0.8c1-0.2,2-0.4,2.9-0.8c0.8-0.1,1.6-0.3,2.3-0.6c0.7-0.1,1.5-0.3,2.2-0.6	c0.9-0.2,1.8-0.4,2.7-0.6c0.6,0,0.5,0.5,0.6,0.8c0.5,2.4,1,4.8,1.6,7.1c-1.2,0.3-2.5,0.5-3.7,0.8c-0.4,0.1-0.8,0.2-1.2,0.3	c-0.9,0.2-1.8,0.4-2.7,0.7c-0.9,0.1-1.8,0.3-2.7,0.6c-0.6,0.1-1.2,0.3-1.8,0.4v0l-2.5,0.6c-0.6,0-1.2,0.2-1.7,0.4l-1.6,0.4	c-0.8,0.2-1.7,0.4-2.5,0.6c-0.8,0.1-1.6,0.3-2.3,0.6c-0.4-0.1-0.8,0.2-1.2,0.2l-1.5,0.4c-0.6-0.1-0.8,0.2-0.9,0.7	c-0.1,0.6-0.2,1.1-0.3,1.7l0,0c-0.2,0.6-0.4,1.1-0.7,1.7c-0.1,0.3-0.1,0.6,0.1,0.8c1.5,1.6,3,3.3,4.5,4.9c1.2,1.5,2.5,2.9,3.9,4.3	c0.9,1.1,1.9,2.2,2.9,3.3c0.6,0.8,1.4,1.6,2.1,2.4c0.9,1.1,1.9,2.2,2.9,3.3c1.2,1.3,2.3,2.6,3.5,3.9c0.7,0.8,1.4,1.6,2.1,2.4	c0.6,0.8,1.2,1.5,1.9,2.1c0.8,1.1,1.8,2.1,2.7,3.1c0.7,0.9,1.5,1.8,2.3,2.6c0.9,1.1,1.9,2.2,2.9,3.3c0.8,1,1.6,1.9,2.5,2.8	c1.2,1.3,2.3,2.7,3.5,4c0,0.2,0.2,0.3,0.4,0.4c0.1-0.3,0-0.6-0.2-0.8c-1.5-7-2.9-14.1-4.4-21.1c-0.5-2.5-1.2-4.9-1.6-7.4	c-0.5-2.5-1-5.1-1.6-7.5c-0.6-2.7-1.1-5.5-1.7-8.2c-0.5-2.7-1.2-5.4-1.6-8.2c1.3-0.3,2.6-0.7,3.9-1c1.3-0.2,2.6-0.5,3.9-0.9	c0.9-0.1,1.8-0.3,2.7-0.6c1.1-0.1,2.1-0.4,3.2-0.7h0c0.8-0.1,1.7-0.3,2.5-0.6v0c1.5-0.2,2.9-0.6,4.3-1l0,0c1.2-0.2,2.4-0.5,3.6-0.8	c1.6-0.3,3.1-0.6,4.7-1.1c0.8-0.1,1.6-0.3,2.4-0.5c0.6-0.2,0.8,0,1,0.5c0.3,0.7,0.8,1.4,1.4,1.9c1.3,1.7,3.2,2.9,5.2,3.4	c0.3,0.1,0.7,0.2,1,0.3c0.7,0.1,0.9,0.3,0.8,1.1c-0.2,1.1-0.2,2.3-0.3,3.5c0,0,0,0.1,0,0.1c0,0,0-0.1-0.1-0.1	c-0.2,0.1-0.4,0.4-0.4,0.6c-0.2,1.8-0.4,3.6-0.4,5.5c0,0.2,0,0.4,0.1,0.6c-0.1,0.9-0.2,1.7-0.2,2.6l0,0.6c-0.1,0.3-0.2,0.6-0.1,1	l0,0l0,0c0,0.4,0,0.7-0.1,1.1c0,0.1-0.1,0.2-0.1,0.3c-0.1,0.2-0.1,0.5-0.1,0.8l0,0.9c-0.1,0.1-0.1,0.3-0.1,0.5	c-0.3,1.8-0.4,3.7-0.5,5.5c-0.1,0.2-0.1,0.5-0.2,0.7c-0.5,5.6-1.1,11.3-1.6,16.9c-1.1,11.3-2.2,22.6-3.3,34	c-0.1,0.9-0.2,1.7-0.3,2.7l-1.4-1.4h0l0,0c-1-1.2-2-2.4-3.1-3.5c-0.8-1-1.6-1.9-2.5-2.7c-0.8-1-1.7-2-2.6-2.9c-1-1.2-2-2.4-3.1-3.5	c-1-1.2-2.1-2.3-3.1-3.5c-0.9-1.1-1.8-2.1-2.9-3.1c-0.8-1.3-2-2.2-2.9-3.5c-0.2,0-0.2,0.2-0.2,0.4c0.6,2.7,1.1,5.3,1.7,8v0	c0,0.3,0.1,0.6,0.1,0.9c0.4,1.8,0.7,3.7,1.1,5.5c0,0.2,0,0.3-0.2,0.4c-1.2-1.3-2.4-2.6-3.5-3.9c-0.4-0.6-0.9-1.2-1.5-1.8	c-0.5-0.8-1.2-1.5-1.9-2.1c-0.8-1-1.6-2-2.5-2.9c-0.8-1-1.6-2-2.5-2.9c-0.6-0.8-1.2-1.5-1.9-2.1c-0.7-0.9-1.4-1.7-2.2-2.5	c-0.5-0.6-1-1.2-1.5-1.8c-0.4-0.8-1.3-1.2-1.8-1.9c-0.7-1.1-1.6-2-2.5-2.9c-0.7-1-1.6-2-2.5-2.9c-0.5-0.7-1.1-1.4-1.7-1.9	c-0.3-0.6-0.8-1.1-1.3-1.6c-0.4-0.4-0.8-0.9-1.2-1.3c-0.3-0.6-0.9-1-1.4-1.6c-0.7-1-1.5-1.9-2.3-2.7c-1-1.1-1.9-2.2-2.9-3.3	c-0.6-0.7-1.3-1.4-1.9-2.1c-0.9-1.2-1.9-2.3-2.9-3.3c-0.7-1-1.4-1.9-2.3-2.7c-0.6-0.8-1.2-1.5-1.9-2.1c-0.6-0.7-1.3-1.5-1.8-2.2	c-0.4-0.5-0.7-0.4-1.1-0.1l-0.6,0.2l-1.2,0.4l-0.8,0.2l-1.3,0.2l-0.2,0c-0.5,0-1,0-1.5,0c-0.6-0.1-0.8,0.2-0.9,0.7	c-0.2,0.3-0.3,0.7-0.5,1l-0.1,0.3c-0.2,0.3-0.4,0.6-0.4,1c-0.2,0.2-0.3,0.5-0.4,0.8c-0.3,0.4-0.5,0.9-0.6,1.4	c-0.2,0.1-0.2,0.3-0.2,0.5c-0.2,0.3-0.4,0.6-0.4,1c-0.3,0.4-0.5,0.9-0.6,1.4c-0.3,0.5-0.6,1.1-0.7,1.8c-0.4,0.6-0.6,1.3-0.8,1.9	c-0.3,0.4-0.5,0.9-0.6,1.4c-0.3,0.4-0.5,0.9-0.6,1.4c-0.4,0.7-0.7,1.5-1,2.3c-0.4,0.6-0.6,1.3-0.8,1.9v0c-0.2,0.2-0.3,0.5-0.3,0.8	c-0.3,0.5-0.5,1-0.6,1.5l0,0c-0.5,0.9-0.9,1.8-1.2,2.7c-0.4,0.7-0.8,1.5-1,2.4v0c-0.3,0.5-0.6,1.1-0.7,1.8c-0.5,0.9-0.9,1.9-1.2,2.9	c-0.7,1.4-1.4,2.9-1.9,4.5c-0.1,0.1-0.2,0.3-0.2,0.4c-1.5,3.5-2.9,6.9-4.4,10.4c-1.1,2.6-2.1,5.2-3.2,7.8l0,0	c-0.7,1.5-1.3,2.9-1.9,4.5l-1.2,2.9c-0.4,0.7-0.7,1.4-0.9,2.1l0,0l0,0c-0.3,0.6-0.6,1.3-0.8,1.9c-0.5,0.9-0.8,1.8-1.1,2.7	c-0.3,0.4-0.5,0.9-0.6,1.4c-0.2,0.4-0.3,0.8-0.5,1.1l0,0c-0.3,0.5-0.6,1.1-0.7,1.8c-0.4,0.7-0.7,1.4-0.9,2.1c-0.6,0.8-0.7,1.5,0.3,2	c0.2,0.2,0.4,0.4,0.6,0.6c0.2,0.4,0.6,0.8,1,1.2c0.3,0.4,0.5,0.8,0.8,1.1c0.1,0.4,0.3,0.8,0.6,1.1c0,0.2,0,0.3,0.2,0.4	c0.4,0.1,0.9,0.1,1.4,0c0.1,0,0.2-0.1,0.2-0.2c0,0,0,0,0,0l0,0l0,0l-0.2,0.2c0.5,0.1,1.1,0,1.6-0.1l0,0l0.9,0c0.8,0,1.6,0,2.3-0.2	l1,0c0.3,0.1,0.7,0,1-0.1l0,0l0,0c0.3,0.1,0.6,0,1,0c0.3,0,0.7,0,1,0c0.4,0,0.7,0,1.1-0.1c0.1,0,0.2,0,0.2-0.1c0.5,0,0.9,0,1.4,0	c0,0,0.1,0,0.1,0l-0.1,0c0.4,0,0.8,0,1.3-0.1c0.1,0,0.2,0,0.3-0.1l0.6,0l0.8,0c0.5,0.1,0.9,0,1.4-0.1l0,0c0.4,0,0.9,0,1.3-0.1l0.2,0	c0.5,0.1,0.9,0,1.4-0.1l0,0l0.1,0l0.1,0c0.6,0,1.3,0,1.9,0c0,0,0.1,0,0.1,0l0,0c0.2,0,0.5-0.1,0.7-0.1l0.4,0c0.6,0,1.2,0,1.8,0	c0.2,0,0.5-0.1,0.7-0.1l0.4,0c0.8,0.1,1.6,0,2.3-0.2c0.5,0,1,0,1.6-0.1c0.4,0,0.7,0,1.1-0.1c0.1,0,0.2,0,0.3-0.1c1,0,1.9,0,2.9-0.2	c0.4,0,0.8,0,1.1,0l0.2,0c0.3,0,0.7,0,1-0.1c0.1,0,0.3,0,0.4-0.1l0,0l1.2-0.1c0.6,0.1,1.2,0,1.8-0.1c0.8,0,1.5,0,2.3-0.1	c0.2,0,0.4,0,0.6-0.1l0,0h0l0,0c0.8,0,1.5,0,2.3-0.1c0.2,0,0.4,0,0.6-0.1c0.7,0,1.4,0,2.1-0.1c1.2,0,2.4-0.1,3.5-0.3	c0.2,0,0.4,0,0.6,0c0.8,0,1.7,0,2.5-0.2c0.8,0.1,1.7,0,2.5-0.2c1.1,0,2.2,0,3.3-0.2c0.4,0,0.8,0,1.2,0c0.1,0.4-0.2,0.5-0.4,0.7	c-2.1,2.6-4.2,5.2-6.4,7.8c0.7-0.1,1.3-0.1,2-0.2c1.5-0.1,2.9-0.1,4.4-0.4c2.1,0,4.2-0.2,6.2-0.4c1.9,0,3.9-0.2,5.8-0.4	c1,0,2.1,0,3.1-0.2c1.9,0,3.8-0.1,5.6-0.4c0.9,0.1,1.8,0,2.7-0.2l0,0c1.3,0,2.7-0.1,4-0.2c0.2,0.1,0.7-0.1,0.4,0.4	c-0.3,0.5-0.6,1-0.8,1.5c-2.6,4.8-5.2,9.7-7.8,14.5c-1.3,2.1-2.3,4.3-3.4,6.4c-1,1.6-1.8,3.2-2.6,4.8c-0.7,1.1-1.3,2.3-1.9,3.5	c-0.4,0.6-0.7,1.2-1,1.8c-0.1,0.1-0.2,0.1-0.3,0.2c-0.9,1.2-1.6,2.6-2.1,4c0,0,0,0,0.1,0c-0.3,0.1-0.4,0.3-0.6,0.6	c-0.7,1.3-1.5,2.6-2.1,3.9c-0.5,0.6-0.8,1.3-0.9,2.1c0,0,0,0,0,0c-0.4,0.1-0.5,0.4-0.7,0.7c-1,2-2.1,3.8-3.1,5.8	c-0.2,0.3-0.4,0.7-0.3,1.1l0,0c-0.4,0.1-0.6,0.5-0.8,0.9c-1,1.9-2,3.9-3.1,5.8c-0.2,0.3-0.4,0.7-0.2,1.1c-0.2,0-0.3,0.1-0.4,0.2	c-0.9,1.3-1.5,2.8-2.3,4.2c-0.1,0.2-0.1,0.4,0,0.6c-0.2,0-0.3,0.1-0.4,0.2c-0.8,1.3-1.5,2.7-2.3,4.1	C256.4,310.1,256.4,310.2,256.4,310.4L256.4,310.4z M28.8,175.2c-0.7,2.8-1.4,5.7-2.1,8.5c-0.8,3.1-1.5,6.2-2.3,9.3	c-0.7,2.3-1.2,4.6-1.7,7c-0.2,0.3-0.3,0.7-0.2,1.1c-0.3-0.1-0.2-0.4-0.2-0.7c0-1.2-0.1-2.4-0.1-3.6c0-4.2,0-8.3,0-12.5	c0-2.7,0-5.3,0-8c0,0,0,0,0-0.1c0-0.3,0-0.7-0.1-1c0-2.5,0-5,0-7.5c0-6.5,0-13.1,0-19.6c0-0.3-0.2-0.8,0.4-0.9c0.7-0.3,1.3-0.6,2-1	c0.8-0.5,1.6-1.1,2.2-1.8c3.2-3.4,3.9-9.1,1.5-12.7l-1.5-2.1c0-0.2-0.1-0.5-0.3-0.6c-0.6-0.5-0.4-1,0-1.5c0.8-1,1.4-2,2.1-3	c0.2-0.3,0.5-0.5,0.3-0.9c0.5,0.1,0.6-0.4,0.8-0.7c4.1-6,8.2-12,12.3-18c4.6-6.8,9.3-13.6,13.9-20.5c0.8-1.3,1.7-2.6,2.7-3.8	c0,0.2-0.1,0.5-0.2,0.7c-0.6,1.7-1.1,3.3-1.7,5c-0.7,2.1-1.5,4.1-2,6.2c-0.7,2.1-1.5,4.3-2.2,6.4c-1,3.1-2,6.1-3,9.2	c-0.1,0.1-0.1,0.3-0.2,0.4c-3.2,9.5-6.4,18.9-9.6,28.4c-0.5,1.4-0.8,2.6-2.5,3c-0.9,0.3-1.6,0.7-2.3,1.4c-4.3,3.2-5.5,9.1-3,13.8	c0.2,0.6,0.5,1.1,1,1.5c0.4,0.5,0.6,1.1,0.3,1.7C31.5,164.1,30.2,169.7,28.8,175.2L28.8,175.2z M291.6,78.4c0.1,0.1,0.2,0.1,0.3,0.2	c2.1,0.7,4.3,1.2,6.4,1.8c0.2,0.1,0.4,0.1,0.5,0c0,0,0.1,0.1,0.1,0.1c1.5,0.5,3,1,4.5,1.3c0.5,0.2,0.8,0.3,0.8,0.9	c0,0.6,0,1.2,0,1.9c0,0.1,0,0.2,0.1,0.3c0.1,0.1,0.1,0.1,0.2,0.2c0.4,4,2.9,7.5,6.6,9.1c0,0.1,0.1,0.1,0.1,0.2	c0.9,0.7,2.1,1,3.3,0.8l0,0c0.1,0.1,0.1,0.1,0.2,0.2c0.2,0.2,0.3,0.4,0.3,0.7c0,0,0,0.1,0,0.1c0,2.1-0.3,4.2-0.2,6.3	c-0.3,2.3-0.3,4.6-0.4,7c-0.1,0.1-0.2,0.1-0.2,0.2c-0.3,1.7-0.4,3.4-0.2,5.1c0,0.1,0.1,0.1,0.1,0.2c-0.4,0.2-0.3,0.6-0.3,0.9	c0,0.6-0.2,0.9-0.8,1c-0.2,0-0.3,0.1-0.4,0.2c-0.8-0.2-1.6-0.7-2.2-1.3c-1.3-1.1-2.7-2.1-4-3.2c-0.3-0.2-0.5-0.5-0.9-0.5	c-0.1-0.3-0.3-0.6-0.6-0.8c-1.2-1-2.5-2-3.8-3c-1-0.8-2-1.5-3.1-2.1l0,0c-0.1-0.3-0.3-0.6-0.6-0.8c-2.7-2.1-5.3-4.3-8.1-6.3	c-0.2-0.2-0.4-0.4-0.7-0.3c0,0,0-0.1,0-0.1c-0.3-0.2-0.5-0.5-0.8-0.7c-3.3-2.6-6.6-5.2-10-7.8c0-0.1,0-0.1,0-0.2	c-0.2-0.5-0.7-0.8-1.1-1.1c-7.6-6-15.2-12-22.8-18.1c-1.2-1.1-2.4-2-3.8-2.8c0,0-0.1,0-0.1,0c-0.5-0.8-1.5-1.2-2.1-1.9	c0.5,0,0.9,0.4,1.4,0.2c0,0,0.1,0,0.1,0.1c1.7,0.7,3.5,1.2,5.3,1.6c0.1,0,0.2,0,0.2,0c0,0,0,0,0.1,0c0.1,0.1,0.3,0.2,0.4,0.2	c1.7,0.5,3.4,1,5.2,1.5c0.2,0.1,0.5,0,0.7-0.1c0,0.2,0.2,0.3,0.3,0.4c1.2,0.4,2.5,0.7,3.7,1c0.1,0,0.2,0,0.3-0.1	c0,0,0.1,0.1,0.1,0.1c1.4,0.6,2.9,1,4.5,1.4c0.2,0.1,0.5,0.1,0.7,0c0,0,0-0.1,0-0.1c0,0,0,0,0,0c1,0.9,2.3,1,3.6,1.2	c0-0.1,0-0.1,0-0.2c0,0,0,0,0,0c0.1,0.2,0.3,0.4,0.6,0.4c1.4,0.4,2.8,0.8,4.2,1.2c0.2,0.1,0.5,0.1,0.7,0c0,0,0.1,0.1,0.1,0.1	c1.1,0.5,2.3,0.8,3.5,1.1c0.9,0.4,1.8,0.6,2.8,0.6c0,0,0.1-0.1,0.1-0.1c0,0,0,0,0,0c1.4,0.9,3,1.3,4.7,1.4	C291.5,78.2,291.5,78.3,291.6,78.4z M339.3,154.8c-0.4-0.4-0.5-1-1.1-1.2l0,0c-0.1-0.2-0.3-0.5-0.4-0.7c-1.6-2.4-3.1-4.9-4.8-7.2	c0-0.4-0.3-0.6-0.4-0.8c-2.3-3.5-4.5-6.9-6.8-10.4l0,0v0c-0.1-0.5-0.7-0.8-0.6-1.4c0.3-1,0.6-2,0.8-3.1c0.4-3.8-1.1-7.5-3.9-10	c-0.4-0.3-0.5-0.7-0.5-1.2c0.1-1.4,0.1-2.9,0.2-4.3h0c0.1-2.4,0.2-4.8,0.3-7.3c0.2-0.2,0.2-0.4,0.2-0.7c0-0.5,0-1,0.2-1.5	c0.1-1,0.1-2.1,0.1-3.1c0.4,1.7,1,3.3,1.7,4.9c0,0.3,0,0.6,0.1,0.9c0.7,2.6,1.6,5.1,2.4,7.7c3,9.4,6,18.8,9.1,28.1	c1.3,4.1,2.6,8.2,4,12.4C339.6,155.4,339.5,155.1,339.3,154.8L339.3,154.8z M234.8,237.2L234.8,237.2L234.8,237.2L234.8,237.2	L234.8,237.2L234.8,237.2z M217.5,238.4C217.5,238.4,217.6,238.4,217.5,238.4L217.5,238.4L217.5,238.4L217.5,238.4L217.5,238.4z M226,237.8C226,237.8,226,237.8,226,237.8L226,237.8L226,237.8z M246.2,236.4L246.2,236.4L246.2,236.4L246.2,236.4z M270.8,235	C270.8,235,270.8,235,270.8,235c-0.1-0.1-0.1-0.1-0.2-0.2c-1.4,0-2.8,0.1-4.2,0.3c1.3-1.3,2.3-2.8,3.5-4.1c0.6-0.6,1.1-1.3,1.5-2.1	c0.3-0.1,0.6-0.4,0.8-0.7c0.9-1,1.7-2.1,2.6-3.1c0.5-0.6,1.1-1.1,1.2-1.9l0,0c1.3-1.1,2.5-2.4,3.4-3.9c0-0.1,0-0.1,0-0.2	c0.3-0.1,0.6-0.3,0.8-0.6c0.4-0.5,0.8-1,1.2-1.5c1.5-1.9,3.3-3.7,4.6-5.7c0,0,0,0,0-0.1c0.7,1,1.6,1.8,2.4,2.8	c0.1,0.2,0.3,0.3,0.6,0.3c0.6,1.3,1.6,2.5,2.8,3.3c0,0,0.1,0,0.1,0c0.5,1.2,1.4,2.3,2.5,2.9l0,0c0.3,1.2,1.3,1.7,1.9,2.6	c0.1,0.2,0.3,0.2,0.5,0.2c0.5,0.7,0.4,1.3-0.3,2c-1.4,1.7-2.3,3.7-2.6,5.9c0,0.7-0.1,1.3-0.4,1.9c0,0-0.1,0-0.1,0	c-0.2-0.1-0.4-0.1-0.6-0.1c-0.9,0.1-1.8,0.1-2.8,0.3c-0.3,0-0.6,0.2-0.8,0.4l0,0c-0.1-0.1-0.1-0.1-0.2-0.2c-1.2-0.1-2.5,0-3.7,0.2	c-0.1,0-0.2,0.1-0.3,0.1c-0.1-0.1-0.2-0.2-0.4-0.2c-1.1,0-2.2,0.1-3.3,0.3c-0.2,0-0.4,0.2-0.5,0.3l0,0c-0.1-0.1-0.1-0.1-0.2-0.2	c-1.4-0.2-2.9,0-4.2,0.4c-0.1-0.1-0.2-0.2-0.3-0.2c-1.2,0-2.4,0-3.5,0.2C272,234.6,271.3,234.4,270.8,235L270.8,235z M121.5,107.7	c-0.6,0.1-1.1,0.3-1.6,0.8c0,0.1-0.1,0.1-0.1,0.2c-1,0.4-1.9,0.8-2.9,1.3c-5.2,2.4-10.4,4.8-15.7,7.2c-0.5,0.2-0.9,0.7-1,1.2	c-0.7,2.9-1.4,5.8-2.1,8.7c-0.5,2-0.9,3.9-1.4,5.9l0,0c-0.1,0-0.1,0-0.2,0c-0.1,0.1-0.2,0.2-0.2,0.3c-0.5,1.9-1,3.9-1.5,5.8	c-0.1,0.3-0.1,0.5,0.1,0.8c-0.1,0.1-0.1,0.1-0.2,0.1c-0.1,0.1-0.2,0.3-0.2,0.4c-0.7,2.4-1.2,4.9-1.8,7.4c-0.1,0.3-0.1,0.6,0.1,0.8	c0,0,0.1,0.1,0.1,0.1c-0.1,0.2-0.2-0.2-0.3,0c-0.3,0.3-0.4,0.7-0.4,1.2c-1.3,5.4-2.7,10.7-4,16.1c-0.3,0.8-0.4,1.7-0.5,2.5	c0,0,0,0.1,0,0.1c-1.3-0.8-2.7-1.5-4.2-2.1c-0.1-0.1-0.3,0-0.4,0.1c-1.1-0.6-2.2-1.1-3.4-1.5c-1.1-0.7-2.3-1.2-3.5-1.6	c-0.9-0.6-1.9-1.1-2.9-1.4c-0.8-0.5-1.6-1-2.5-1.2c-0.9-0.5-1.8-0.9-2.7-1.3c-0.8-0.5-1.6-0.9-2.5-1.2c-1.2-0.7-2.5-1.3-3.9-1.8	c-1.3-0.7-2.7-1.4-4.1-1.9c-1.1-0.6-2.3-1.2-3.5-1.5c-0.4-0.3-0.8-0.6-1.2-0.7c-0.6-0.2-0.7-0.5-0.6-1.1c0.2-1.1,0.1-2.1-0.1-3.2	c0-0.1,0-0.2,0.1-0.3c-0.4-0.9-0.1-2,0.8-2.5c0.1-0.1,0.2-0.3,0.3-0.5c0.3,0,0.5-0.2,0.7-0.4c1-0.9,2-1.8,3-2.7	c0.2-0.2,0.3-0.3,0.4-0.5c0.2,0,0.4,0,0.5-0.2c0.8-0.9,1.8-1.5,2.6-2.4c0.1-0.1,0.2-0.3,0.3-0.5c0.3,0,0.5-0.1,0.7-0.3	c0.8-0.9,1.8-1.5,2.6-2.4c0.2-0.2,0.5-0.4,0.5-0.7c0.4,0.2,0.6-0.2,0.8-0.4c1.5-1.4,3.1-2.7,4.6-4.1c0.2-0.2,0.6-0.3,0.4-0.7	c0.4,0.1,0.6-0.2,0.9-0.5c2.7-2.3,5.3-4.7,8-7.1c0.3-0.2,0.5-0.4,0.6-0.7c0.3,0,0.4-0.2,0.6-0.4c2.8-2.4,5.4-4.9,8.2-7.3	c0.3-0.2,0.5-0.5,0.5-0.9l0,0c0.6,0.1,0.9-0.3,1.2-0.6c3.1-2.8,6.3-5.6,9.4-8.4c3.3-3,6.6-5.9,9.9-8.9c3.5-3.2,7.1-6.3,10.6-9.5	c1.1-0.9,2.1-1.9,3.2-2.8c0.2-0.2,0.5-0.4,0.8-0.2c0.3,0.2,0.2,0.4,0.2,0.7c0,0.3-0.1,0.7,0.2,0.9l-0.6,5c-0.3,1.3-0.4,2.6-0.4,3.9	c-0.2,1.1-0.4,2.2-0.4,3.3c-0.3,1.6-0.5,3.2-0.6,4.9c-0.3,1.5-0.5,3-0.5,4.5c0,0-0.1,0.1-0.1,0.1	C121.7,106.1,121.6,106.9,121.5,107.7C121.6,107.7,121.6,107.7,121.5,107.7L121.5,107.7z M130.3,99.7c0.2-1.3,0.4-2.7,0.4-4.1	c0.2-1.4,0.3-2.7,0.5-4.1l0.4-3.5c0.2-1.2,0.3-2.3,0.4-3.5c0,0,0.1-0.1,0.1-0.1c0.1-1,0.9-1.9,1.9-2.1c0.5-0.2,1.1-0.4,1.5-0.8	c0.3-0.2,0.7-0.3,1.1-0.3c0.5,0.8,1.3,1.4,2.2,1.6l0,0c0.6,1.1,1.7,1.9,2.9,2.2c0.5,0.9,1.3,1.5,2.3,1.7c0.4,0.8,1.2,1.4,2.1,1.6	l0,0c-0.1,0.4,0.2,0.6,0.5,0.8c0.6,0.5,1.3,0.9,1.8,1.4c0.2,0.2,0.4,0.4,0.8,0.2c0,0,0,0,0,0c-0.1,0.3,0.1,0.4,0.3,0.6	c1,0.8,2,1.5,3,2.2c-1.6,0.5-3.1,1.2-4.6,1.9c-4.5,2.1-9,4.1-13.5,6.2c-1.6,0.7-3.2,1.4-4.7,2.3c0.3-1.3,0.5-2.6,0.5-4	C130.4,99.8,130.3,99.7,130.3,99.7L130.3,99.7z M173.1,32.5c1.8,1,3.7,1.9,5.6,2.7c2,1.1,4,2,6.1,2.9c2.5,1.3,5.1,2.5,7.7,3.7	c2,1.1,4.1,2,6.1,2.9c1.4,0.8,2.9,1.5,4.5,2.1c2.1,1.1,4.3,2.2,6.5,3.1c2,1.1,4,2.1,6.1,2.9c3.2,1.6,6.4,3.1,9.7,4.6	c-0.1,0.6-0.1,1.2-0.2,1.7c-0.1,0.4-0.1,0.8-0.2,1.1l-5.4,0.5c-4.6,0.4-9.3,0.8-13.9,1.2l-11.8,1c-0.4-0.1-0.8,0-1.2,0.1l0,0	l-1.1,0.1c-0.4,0-0.8,0-1.2,0.1l0,0l-1.1,0.1c-0.4,0-0.8,0-1.2,0.1l0,0c-0.4,0-0.8,0-1.1,0c-0.2,0-0.4,0-0.6,0	c-5.4,0.4-10.9,0.9-16.3,1.4c-2.6,0.2-5.2,0.5-7.8,0.7l-1.1,0.1c-0.4,0-0.8,0-1.2,0.1l0,0c-0.4,0-0.7,0-1.1,0.1	c-0.5,0-0.9,0-1.4,0.2l0,0c-0.4,0-0.8,0-1.2,0.1c-0.4-0.1-0.8,0-1.2,0.1c-2.2,0.2-4.5,0.3-6.7,0.5c-1.6,0.1-3.3,0.3-4.9,0.5	l-1.1,0.1c-0.4,0-0.8,0-1.2,0.1l0,0c-0.8,0.2-1.2-0.2-1.5-0.9c-0.3-0.8-0.8-1.4-1.4-2c-1-0.8-0.9-1.6-0.2-2.6	c0.1-0.2,0.2-0.3,0.2-0.5c0.6-1.2,1.1-2.4,1.7-3.5c0,0,0.1,0,0.1-0.1c0.6-0.8,1.1-1.7,1.5-2.7c0.2-0.2,0.2-0.5,0-0.7l0,0	c0.9-0.7,1.1-1.9,1.7-2.8c0.1-0.1,0.1-0.3,0.1-0.5c0.7-1,1.2-2,1.6-3.1c0.1-0.1,0-0.2,0-0.4c0.3-0.1,0.5-0.4,0.6-0.7	c0.7-1.4,1.3-2.8,2-4.2c0.1-0.2,0.2-0.5,0.1-0.7c0.2,0,0.3-0.2,0.4-0.3c0.6-1.3,1.3-2.6,1.9-3.9c0.2-0.2,0.2-0.5,0.1-0.7	c0.1-0.1,0.2-0.2,0.3-0.3c0.8-1.5,1.5-2.9,2.2-4.4c0.1-0.2,0.1-0.4,0-0.6c0.1-0.1,0.3-0.2,0.3-0.3c0.4-1.3,1.5-1.4,2.7-1.3	c2.1,0.1,4.2-0.5,6-1.7c0.6-0.4,1.3-0.5,2-0.1c1,0.4,1.8,1.1,3,1.1c0,0,0.1,0,0.1,0C168.6,30.5,170.9,31.5,173.1,32.5L173.1,32.5z M46.4,139.5c1.3-3.9,2.6-7.9,4-11.8c1.7-5.2,3.5-10.4,5.2-15.6c1.4-4.1,2.8-8.3,4.2-12.4c0.1-0.2,0.2-0.3,0.4-0.5	c0.2-0.3,0.4-0.6,0.5-1c1.2-3.7,2.4-7.3,3.7-11c0.1-0.3,0.2-0.6,0.1-0.9c0,0-0.1,0-0.1-0.1c0,0,0,0,0,0c0.4-0.1,0.5-0.5,0.6-0.8	c1-2.5,1.7-5,2.5-7.5c0.1-0.3,0.2-0.6,0.1-0.8c0,0,0.1,0,0.1-0.1c0.2-0.3,0.4-0.6,0.5-0.9c0.7-2,1.3-3.9,2-5.9	c0.2-0.6,0.6-1,1.1-1.2c3.3-1.1,5.9-3.6,7-6.8c0.3-0.8,0.7-0.9,1.5-0.7c0.9,0.3,1.8,0.6,2.8,0.6c0,0,0.1,0,0.1,0	c0.1,0.2,0.4,0.3,0.6,0.3c0.9,0.3,1.9,0.5,2.8,0.8c0.3,0.1,0.5,0.1,0.8-0.1c0,0,0,0.1,0,0.1c1.7,0.8,3.5,1.3,5.4,1.6	c0,0,0.1,0,0.1,0c0.1,0.2,0.3,0.3,0.6,0.3c1.3,0.4,2.6,0.7,3.9,1.1c0.3,0.1,0.6,0.2,0.9,0c0,0.1,0,0.1,0,0.2	c1.8,0.8,3.7,1.3,5.7,1.6c0,0,0.1,0,0.1,0c0.1,0.1,0.2,0.2,0.4,0.2c1.5,0.5,3,0.9,4.4,1.3c0.2,0.1,0.5,0,0.7-0.1c0,0,0,0,0.1,0	c0,0.1,0,0.1,0,0.2c1.3,0.6,2.6,1,4,1.2c0.2,0,0.3,0,0.4-0.1c1.2,0.4,2.4,0.8,3.7,1c0.7,0.1,1.3,0.7,1.2,1.4c0,0.1,0,0.1,0,0.2	c0,0.4,0.1,0.8,0.2,1.1c0.2,0.5-0.2,0.7-0.5,1c-9,8.2-18,16.5-27,24.7c-3.4,3.1-6.7,6.2-10,9.2c-3.1,2.7-6.1,5.5-9.1,8.3	c-1.8,1.5-3.6,3.1-5.2,4.8c-1.6,1.3-3.1,2.7-4.5,4.1c-1.7,1.3-3.3,2.9-4.8,4.4c-1.8,1.6-3.6,3.3-5.4,4.9c-1.7,1.6-3.5,3.1-5.2,4.7	C46,140.5,46.3,140,46.4,139.5L46.4,139.5z M172,20.6c0.2,0.2,0.4,0.2,0.6,0.2c1,0.1,2,0.2,3.1,0.2c0.3,0,0.6,0,0.9-0.1	c6.4,0.7,12.9,1.4,19.3,2.1c6.3,0.7,12.6,1.4,18.9,2c3.3,0.4,6.7,0.7,10,1c0.2,0.1,0.3,0.1,0.5,0.2c1.3,0.4,2.6,0.6,3.9,0.6	c0,0-0.1,0-0.1,0c-0.2,0.4-0.2,1,0.1,1.4c0.1,0.1,0.1,0.1,0.2,0.2c0.2,1.2,0.6,2.4,1.3,3.5c2.6,4.1,7.7,5.9,11.8,4.3	c1.2-0.3,2.3-0.9,3.2-1.7c0.1,0,0.2,0.1,0.3,0.1c0.2,0.1,0.3,0.1,0.5,0.2c0.6,0.4,1.1,0.8,1.7,1.2c3.6,2.6,7.2,5.1,10.8,7.7	c0.2,0.2,0.4,0.4,0.7,0.5c7,5,13.9,10,20.9,15c3,2.2,6,4.3,9.1,6.4c1,0.8,2,1.5,3.1,2.3c0.1,0.1,0.5,0.1,0.3,0.4	c-2.3-0.6-4.6-1.2-6.9-1.8c0,0-0.1,0-0.1,0l0,0c-0.1-0.1-0.2-0.1-0.3-0.1c-2.8-0.7-5.5-1.4-8.3-2.2c-1.9-0.7-3.9-0.9-5.8-1.5	c-0.1-0.1-0.2-0.1-0.3-0.2c-3-0.8-6-1.6-9-2.3c-0.5-0.2-1.1-0.4-1.7-0.5c-2.4-0.6-4.8-1.4-7.3-1.8c-1.8-0.5-3.5-0.9-5.3-1.4	c-0.4-0.1-0.7-0.4-0.8-0.8c-0.5-1.4-1.4-2.7-2.5-3.7c-3.3-3.1-8.1-4-12.3-2.2c-0.6,0.1-1.1,0.4-1.5,0.8c-0.5,0.4-1.1,0.4-1.6,0.1	c-4.2-2-8.4-4-12.6-6c-0.3-0.1-0.7-0.2-1-0.4c-3.7-1.9-7.4-3.8-11.2-5.5c-0.1,0-0.2-0.1-0.3-0.1c-2.4-1.3-4.9-2.5-7.4-3.6	c-0.9-0.4-1.7-0.9-2.6-1.3c-1.7-0.9-3.4-1.7-5.2-2.4c-2.5-1.4-5.1-2.7-7.8-3.8c-0.1-0.2-0.2-0.3-0.4-0.4c-1.7-1-3.4-1.8-5.2-2.7	c-0.3-0.1-0.6-0.2-0.9-0.1c-0.2-0.2-0.4-0.4-0.7-0.5c-1.6-0.9-3.3-1.5-4.9-2.4c-0.2-0.1-0.4-0.1-0.7-0.1c-0.5-0.4-1-0.8-1.6-1.1	c0.5-0.1,1-0.2,1.5-0.1c1.2,0.2,2.4,0.3,3.5,0.3C171.9,20.7,172,20.6,172,20.6L172,20.6z M33.8,250.7	C33.8,250.6,33.8,250.6,33.8,250.7c0.1-0.5-0.2-0.7-0.4-1c-0.8-1.1-1.6-2.2-2.4-3.3c-1-1.3-1.9-2.7-3-4c0.3,0.1,0.5,0.2,0.8,0.3	c0.4,0.2,0.7,0.4,1.2,0.2c2.1,1.2,4.3,2.2,6.5,3.2c2.3,1.3,4.6,2.4,6.9,3.5c1.6,0.9,3.3,1.8,5,2.5c2,1.1,4,2.2,6.1,3.1	c1.5,0.9,3.1,1.6,4.7,2.3c1,0.6,2,1.1,3.1,1.5c0.8,0.3,0.4,1.1,0.7,1.6c0.2,4.1,3.9,8.9,8,10.3c1.2,0.3,1.3,1,0.9,2	c0,0.2-0.1,0.3-0.1,0.5h0c-0.3,1.3-0.5,2.6-0.8,3.9c-0.4,1.9-0.8,3.7-1.2,5.6c-0.3,1.2-0.5,2.5-0.8,3.7l-1.2,5.8c0,0-0.1,0-0.1,0	c-0.2,0.1-0.3,0.4-0.3,0.6c-0.1,0.6-0.5,1-1.1,1.1c-0.6,0.1-0.8-0.4-1.1-0.8c-4.7-6.4-9.4-12.9-14.1-19.3	c-3.7-5.1-7.4-10.2-11.1-15.2c-1.8-2.5-3.6-5-5.4-7.4C34.5,251.1,34.4,250.5,33.8,250.7z M210.3,341.3c-0.5,0.1-1,0.1-1.4,0.1	c-12,0-24,0-36,0c-1.8,0-3.6,0-5.3,0c-0.4,0-0.8,0-1-0.3c0-0.1-0.1-0.1-0.2-0.2c0,0,0,0,0,0c0-0.9-0.1-1.9-0.3-2.8	c-0.3-1.5-0.3-1.5,1.2-1.7c7-0.9,14.1-1.8,21.1-2.7c1.2-0.1,2.4-0.3,3.5-0.4c6.9-0.9,13.7-1.8,20.6-2.6c2.3-0.3,4.6-0.6,6.9-0.9	c0.4,0,0.8,0,1.3-0.1c3.3-0.4,6.7-0.9,10-1.3c2.9-0.4,5.9-0.8,8.8-1.2c1-0.1,2.1-0.2,3.1-0.4c0.6-0.1,0.8,0,0.8,0.6	c0,0.5,0,1,0.2,1.5c0.1,0.6-0.2,0.8-0.7,1c-4.3,1.5-8.6,3-12.9,4.6c-3.6,1.3-7.2,2.6-10.8,3.9c-0.2,0-0.3,0-0.4-0.1	c-0.3,0-0.7,0.1-1,0.3C215.3,339.5,212.8,340.5,210.3,341.3L210.3,341.3z M14.8,197.2C14.8,197.2,14.8,197.2,14.8,197.2	C14.8,197.2,14.8,197.2,14.8,197.2L14.8,197.2z" class="st0"/><path d="M200.1,214.4c0.2-0.3,0.4-0.6,0.4-1l0,0c0.2-0.4,0.4-0.8,0.5-1.2h0c0.5-0.8,0.8-1.6,0.9-2.5l0,0l0,0	c0.6-1.1,1-2.2,1.4-3.3c0.3-0.7,0.6-1.4,0.9-2.1l0,0c1.5-3.3,2.9-6.7,4.2-10.1l0,0c0.5-1.5,1.3-2.9,1.7-4.5l0,0	c0.8-1.4,1.4-2.8,1.9-4.3l0,0c0.3-1.2,1.1-2.2,1.4-3.5c0.6-1.1,1.1-2.3,1.5-3.5c0.3-1.1,1.1-1.9,1.2-3.1c0.5-0.8,0.9-1.8,1.1-2.7	c0.4-0.7,0.7-1.4,0.9-2.1l0,0c0.4-0.9,0.8-1.8,1.1-2.7c0.4-1,0.8-1.9,1.2-2.9c0.4-0.7,0.7-1.5,1-2.3c0.4-0.7,0.7-1.5,1-2.3	c0.4-0.8,0.8-1.6,1-2.5c0.2-0.4,0.4-0.7,0.6-1.1c0.5-0.7,0.3-1.2-0.3-1.9c-0.9-1-1.8-1.4-3-0.7c-1,0.2-2,0.5-2.9,0.9	c-0.8,0.2-1.6,0.4-2.3,0.7l0,0l-2.1,0.7c-0.8,0.3-1.7,0.5-2.5,0.8l-2.5,0.8c-0.7,0.2-1.4,0.5-2.2,0.7l0,0c-0.9,0.3-1.8,0.6-2.7,0.9	l0,0l0,0l-2.5,0.8v0c-1,0.3-2.1,0.6-3.1,1c-0.9,0.2-1.9,0.5-2.7,0.9l0,0c-1.1,0.2-2.2,0.6-3.3,1c-0.7,0.1-1.3,0.3-1.9,0.6l0,0	c-0.8,0.3-1.7,0.5-2.5,0.8l0,0c-1,0.3-1.9,0.6-2.9,0.9c-0.9,0.2-1.7,0.4-2.5,0.8l0,0h0c-1.1,0.3-2.2,0.7-3.3,1l0,0	c-2.5,0.8-5.1,1.6-7.6,2.5c-1.3,0.3-2.6,0.7-3.9,1.2c-0.7,0.2-1.4,0.4-2.1,0.6l0,0c-1,0.3-1.9,0.6-2.9,1c-0.8,0.2-1.6,0.4-2.3,0.8v0	c-0.2,0-0.4,0-0.6,0.2l0,0c-0.6,0.1-1.2,0.3-1.8,0.5c-0.4,0.1-0.9,0.3-1.3,0.4c-0.4,0-0.8,0.2-1.2,0.4l0,0c-0.2,0-0.4,0-0.6,0.2l0,0	c-0.5,0-1,0.2-1.4,0.4v0c-0.2,0-0.4,0-0.6,0.2h0c-0.4,0-0.8,0.1-1.2,0.4l0,0c-0.9,0.1-1.7,0.4-2.5,0.8c-0.9,0.2-1.7,0.4-2.5,0.8	c-0.6,0.1-1.2,0.3-1.7,0.5c-0.9,0.2-1.7,0.4-2.5,0.8v0c-0.4,0-0.8,0.2-1.1,0.4l0,0c-0.7,0.1-1.3,0.3-2,0.6c-0.7,0.1-1.3,0.3-1.9,0.6	c-0.7,0.1-1.3,0.3-1.9,0.6c-1,0.2-2,0.5-2.9,0.9c-0.9,0.2-1.7,0.4-2.5,0.8v0c-0.6,0.2-1.1,0.3-1.7,0.5c-0.3,0-0.5,0.3-0.5,0.6	c-0.1,1.1-0.5,2.2-1.1,3.1c-0.2,0.3-0.3,0.5,0.1,0.8c0.9,0.7,1.9,1.3,2.8,2v0c0.7,0.7,1.5,1.2,2.3,1.7v0c0.8,0.7,1.6,1.3,2.5,1.9	c0.8,0.6,1.6,1.2,2.3,1.7c0.7,0.6,1.4,1.1,2.1,1.6l0,0c0.4,0.5,1,0.8,1.5,1.2c0.5,0.5,1,0.8,1.5,1.2v0c0.8,0.7,1.6,1.4,2.5,1.9	c0.9,0.8,1.9,1.5,2.9,2.2l0,0l2.7,2.1l0,0v0c1.4,1.1,2.8,2.2,4.2,3.1c0.9,0.9,2,1.7,3.1,2.3c0.7,0.7,1.5,1.3,2.3,1.8l0,0	c2.1,1.8,4.4,3.4,6.6,5h0c0.7,0.5,1.4,1,2.1,1.6v0c0.5,0.5,1.1,1,1.7,1.4l0,0c1.3,1,2.6,1.9,3.9,2.9c1.2,0.9,2.4,1.8,3.7,2.7	c0.9,0.7,1.8,1.4,2.7,2.1c1,0.8,2.1,1.6,3.1,2.3c0.8,0.6,1.7,1.3,2.5,1.9c0.3,0.3,0.7,0.3,1.1,0.1c1.1-0.6,2.4-1,3.7-0.9	c2.3,0.3,2.8-1.1,3.3-2.7c0-0.1,0-0.2,0.1-0.3c0.6-1.1,1-2.2,1.4-3.3c0.4-0.7,0.7-1.5,1-2.3l0,0c0.5-0.9,0.8-1.8,1.2-2.7	c0.5-0.9,0.9-1.9,1.2-2.9c0.2-0.3,0.4-0.6,0.4-0.9c0.2-0.3,0.3-0.6,0.3-1l0,0l0,0C199.8,215.1,200.1,214.8,200.1,214.4L200.1,214.4z" class="st0"/></svg>