<svg xmlns="http://www.w3.org/2000/svg" xmlns:xlink="http://www.w3.org/1999/xlink" id="Layer_1" x="0" y="0" version="1.1" viewBox="0 0 1200 1200" xml:space="preserve" style="enable-background:new 0 0 1200 1200"><style type="text/css">.st0{fill:#d3d3d3;stroke:#fff;stroke-width:4}.st1{fill:#2f2f2f}.st2{fill:#c5c5c5}.st3{fill:#ebebeb}.st4{filter:url(#Adobe_OpacityMaskFilter)}.st5{fill-rule:evenodd;clip-rule:evenodd;fill:#fff}.st6{mask:url(#b_1_);fill:none;stroke:#b2b2b2;stroke-width:45}.st7{filter:url(#Adobe_OpacityMaskFilter_1_)}.st8{mask:url(#b_2_);fill:none;stroke:#b2b2b2;stroke-width:45}.st9{filter:url(#Adobe_OpacityMaskFilter_2_)}.st10{mask:url(#b_3_);fill:none;stroke:#b2b2b2;stroke-width:45}.st11{filter:url(#Adobe_OpacityMaskFilter_3_)}.st12{mask:url(#b_4_);fill:none;stroke:#b2b2b2;stroke-width:45}.st13{filter:url(#Adobe_OpacityMaskFilter_4_)}.st14{mask:url(#b_5_);fill:none;stroke:#b2b2b2;stroke-width:45}.st15{filter:url(#Adobe_OpacityMaskFilter_5_)}.st16{mask:url(#b_6_);fill:none;stroke:#b2b2b2;stroke-width:45}.st17{filter:url(#Adobe_OpacityMaskFilter_6_)}.st18{mask:url(#b_7_);fill:none;stroke:#b2b2b2;stroke-width:45}.st19{filter:url(#Adobe_OpacityMaskFilter_7_)}.st20{mask:url(#b_8_)}.st21{fill:none;stroke:#b2b2b2;stroke-width:45}.st22{fill:#919191}.st23{fill:#9f9f9f}</style><g><g transform="translate(145 70)"><ellipse cx="132.8" cy="790.4" class="st0" rx="63" ry="33.7"/><ellipse cx="457.6" cy="985.3" class="st0" rx="63" ry="33.7"/><ellipse cx="782.4" cy="790.4" class="st0" rx="63" ry="33.7"/><ellipse cx="292" cy="884.6" class="st0" rx="63" ry="33.7"/><ellipse cx="623.3" cy="884.6" class="st0" rx="63" ry="33.7"/><ellipse cx="457.6" cy="822.9" class="st0" rx="63" ry="33.7"/><ellipse cx="292" cy="744.9" class="st0" rx="63" ry="33.7"/><ellipse cx="623.3" cy="744.9" class="st0" rx="63" ry="33.7"/></g><path d="M18.5,635.5l437.4,254.5l435.3-256.5L455.9,381L18.5,635.5z" class="st1" transform="translate(145 70)"/><g><path d="M0.3,255.1l437.4,254.5L873,253.2L437.7,0.6L0.3,255.1z" class="st2" transform="translate(145 70) translate(18.180422 250.00006)"/><g><path d="M0.3,255.1l437.4,254.5L873,253.2L437.7,0.6L0.3,255.1z" class="st3" transform="translate(145 70) translate(18.180422 250.00006)"/></g><g transform="translate(145 70) translate(18.180422 250.00006)"><defs><filter id="Adobe_OpacityMaskFilter" width="1376.8" height="833.2" x="-285.9" y="-373.7" filterUnits="userSpaceOnUse"><feColorMatrix type="matrix" values="1 0 0 0 0 0 1 0 0 0 0 0 1 0 0 0 0 0 1 0"/></filter></defs><mask id="b_1_" width="1376.8" height="833.2" x="-285.9" y="-373.7" maskUnits="userSpaceOnUse"><g class="st4"><path id="a_1_" d="M-162.9-64.9l437.4,254.5L709.8-66.8L274.5-319.4L-162.9-64.9z" class="st5"/></g></mask><path d="M-274.5,440l1354-794.4" class="st6"/><defs><filter id="Adobe_OpacityMaskFilter_1_" width="1376.8" height="833.2" x="-324.8" y="-195.3" filterUnits="userSpaceOnUse"><feColorMatrix type="matrix" values="1 0 0 0 0 0 1 0 0 0 0 0 1 0 0 0 0 0 1 0"/></filter></defs><mask id="b_2_" width="1376.8" height="833.2" x="-324.8" y="-195.3" maskUnits="userSpaceOnUse"><g class="st7"><path id="a_2_" d="M-162.9-64.9l437.4,254.5L709.8-66.8L274.5-319.4L-162.9-64.9z" class="st5"/></g></mask><path d="M-313.4,618.4l1354-794.4" class="st8"/><defs><filter id="Adobe_OpacityMaskFilter_2_" width="1376.8" height="833.2" x="26" y="-248.9" filterUnits="userSpaceOnUse"><feColorMatrix type="matrix" values="1 0 0 0 0 0 1 0 0 0 0 0 1 0 0 0 0 0 1 0"/></filter></defs><mask id="b_3_" width="1376.8" height="833.2" x="26" y="-248.9" maskUnits="userSpaceOnUse"><g class="st9"><path id="a_3_" d="M-162.9-64.9l437.4,254.5L709.8-66.8L274.5-319.4L-162.9-64.9z" class="st5"/></g></mask><path d="M37.4,564.9l1354-794.4" class="st10"/><defs><filter id="Adobe_OpacityMaskFilter_3_" width="1376.8" height="833.2" x="18.2" y="-82.4" filterUnits="userSpaceOnUse"><feColorMatrix type="matrix" values="1 0 0 0 0 0 1 0 0 0 0 0 1 0 0 0 0 0 1 0"/></filter></defs><mask id="b_4_" width="1376.8" height="833.2" x="18.2" y="-82.4" maskUnits="userSpaceOnUse"><g class="st11"><path id="a_4_" d="M-162.9-64.9l437.4,254.5L709.8-66.8L274.5-319.4L-162.9-64.9z" class="st5"/></g></mask><path d="M29.6,731.4L1383.6-63" class="st12"/><defs><filter id="Adobe_OpacityMaskFilter_4_" width="1376.8" height="833.2" x="192.5" y="-22.9" filterUnits="userSpaceOnUse"><feColorMatrix type="matrix" values="1 0 0 0 0 0 1 0 0 0 0 0 1 0 0 0 0 0 1 0"/></filter></defs><mask id="b_5_" width="1376.8" height="833.2" x="192.5" y="-22.9" maskUnits="userSpaceOnUse"><g class="st13"><path id="a_5_" d="M-162.9-64.9l437.4,254.5L709.8-66.8L274.5-319.4L-162.9-64.9z" class="st5"/></g></mask><path d="M203.9,790.9l1354-794.4" class="st14"/><defs><filter id="Adobe_OpacityMaskFilter_5_" width="1376.8" height="833.2" x="543.3" y="-76.4" filterUnits="userSpaceOnUse"><feColorMatrix type="matrix" values="1 0 0 0 0 0 1 0 0 0 0 0 1 0 0 0 0 0 1 0"/></filter></defs><mask id="b_6_" width="1376.8" height="833.2" x="543.3" y="-76.4" maskUnits="userSpaceOnUse"><g class="st15"><path id="a_6_" d="M-162.9-64.9l437.4,254.5L709.8-66.8L274.5-319.4L-162.9-64.9z" class="st5"/></g></mask><path d="M554.7,737.4L1908.8-57" class="st16"/><defs><filter id="Adobe_OpacityMaskFilter_6_" width="1376.8" height="833.2" x="537.4" y="90.1" filterUnits="userSpaceOnUse"><feColorMatrix type="matrix" values="1 0 0 0 0 0 1 0 0 0 0 0 1 0 0 0 0 0 1 0"/></filter></defs><mask id="b_7_" width="1376.8" height="833.2" x="537.4" y="90.1" maskUnits="userSpaceOnUse"><g class="st17"><path id="a_7_" d="M-162.9-64.9l437.4,254.5L709.8-66.8L274.5-319.4L-162.9-64.9z" class="st5"/></g></mask><path d="M548.8,903.9l1354-794.4" class="st18"/><defs><filter id="Adobe_OpacityMaskFilter_7_" width="2245" height="1297" x="-316.4" y="-421.3" filterUnits="userSpaceOnUse"><feColorMatrix type="matrix" values="1 0 0 0 0 0 1 0 0 0 0 0 1 0 0 0 0 0 1 0"/></filter></defs><mask id="b_8_" width="2245" height="1297" x="-316.4" y="-421.3" maskUnits="userSpaceOnUse"><g class="st19"><path id="a_8_" d="M-162.9-64.9l437.4,254.5L709.8-66.8L274.5-319.4L-162.9-64.9z" class="st5"/></g></mask><g class="st20"><g><path d="M6.5,794.4L1360.6,0" class="st21" transform="matrix(-1 0 0 1 1917.74975 -401.91278)"/><path d="M0.6,972.8l1354-794.4" class="st21" transform="matrix(-1 0 0 1 1917.74975 -401.91278)"/><path d="M351.4,919.3l1354-794.4" class="st21" transform="matrix(-1 0 0 1 1917.74975 -401.91278)"/><path d="M345.5,1085.8l1354-794.4" class="st21" transform="matrix(-1 0 0 1 1917.74975 -401.91278)"/><path d="M517.9,1145.2l1354-794.4" class="st21" transform="matrix(-1 0 0 1 1917.74975 -401.91278)"/><path d="M868.8,1091.7l1354-794.4" class="st21" transform="matrix(-1 0 0 1 1917.74975 -401.91278)"/><path d="M862.8,1258.2l1354-794.4" class="st21" transform="matrix(-1 0 0 1 1917.74975 -401.91278)"/></g></g></g></g><g><path d="M0.8,416.8V62.3l265,506.9L0.8,416.8z" class="st1" transform="translate(145 70) translate(129.637675 68.695502)"/><path d="M325.8,438.9l220-126.5V0.7l-220,122.9V438.9z" class="st22" transform="translate(145 70) translate(129.637675 68.695502)"/><path d="M414.4,385.9l178,104.7V247.3l-178-106.3V385.9z" class="st23" transform="translate(145 70) translate(129.637675 68.695502)"/><path d="M325.8,438.9l220-126.5V0.7l-220,122.9V438.9z" class="st22" transform="translate(145 70) translate(129.637675 68.695502)"/></g></g></svg>