<?xml version="1.0" encoding="utf-8"?>
<!-- Generator: Adobe Illustrator 23.1.0, SVG Export Plug-In . SVG Version: 6.00 Build 0)  -->
<svg version="1.1" id="Layer_1" xmlns="http://www.w3.org/2000/svg" xmlns:xlink="http://www.w3.org/1999/xlink" x="0px" y="0px"
	 viewBox="0 0 1200 1200" style="enable-background:new 0 0 1200 1200;" xml:space="preserve">
<style type="text/css">
	.st0{fill:#D3D3D3;stroke:#FFFFFF;stroke-width:4;}
	.st1{fill:#2F2F2F;}
	.st2{fill:#C5C5C5;}
	.st3{fill:#EBEBEB;}
	.st4{filter:url(#Adobe_OpacityMaskFilter);}
	.st5{fill-rule:evenodd;clip-rule:evenodd;fill:#FFFFFF;}
	.st6{mask:url(#b_1_);fill:none;stroke:#B2B2B2;stroke-width:45;}
	.st7{filter:url(#Adobe_OpacityMaskFilter_1_);}
	.st8{mask:url(#b_2_);fill:none;stroke:#B2B2B2;stroke-width:45;}
	.st9{filter:url(#Adobe_OpacityMaskFilter_2_);}
	.st10{mask:url(#b_3_);fill:none;stroke:#B2B2B2;stroke-width:45;}
	.st11{filter:url(#Adobe_OpacityMaskFilter_3_);}
	.st12{mask:url(#b_4_);fill:none;stroke:#B2B2B2;stroke-width:45;}
	.st13{filter:url(#Adobe_OpacityMaskFilter_4_);}
	.st14{mask:url(#b_5_);fill:none;stroke:#B2B2B2;stroke-width:45;}
	.st15{filter:url(#Adobe_OpacityMaskFilter_5_);}
	.st16{mask:url(#b_6_);fill:none;stroke:#B2B2B2;stroke-width:45;}
	.st17{filter:url(#Adobe_OpacityMaskFilter_6_);}
	.st18{mask:url(#b_7_);fill:none;stroke:#B2B2B2;stroke-width:45;}
	.st19{filter:url(#Adobe_OpacityMaskFilter_7_);}
	.st20{mask:url(#b_8_);}
	.st21{fill:none;stroke:#B2B2B2;stroke-width:45;}
	.st22{fill:#919191;}
	.st23{fill:#9F9F9F;}
</style>
<g transform="translate(145 70)">
	<g>
		<ellipse class="st0" cx="132.8" cy="790.4" rx="63" ry="33.7"/>
		<ellipse class="st0" cx="457.6" cy="985.3" rx="63" ry="33.7"/>
		<ellipse class="st0" cx="782.4" cy="790.4" rx="63" ry="33.7"/>
		<ellipse class="st0" cx="292" cy="884.6" rx="63" ry="33.7"/>
		<ellipse class="st0" cx="623.3" cy="884.6" rx="63" ry="33.7"/>
		<ellipse class="st0" cx="457.6" cy="822.9" rx="63" ry="33.7"/>
		<ellipse class="st0" cx="292" cy="744.9" rx="63" ry="33.7"/>
		<ellipse class="st0" cx="623.3" cy="744.9" rx="63" ry="33.7"/>
	</g>
	<path class="st1" d="M18.5,635.5l437.4,254.5l435.3-256.5L455.9,381L18.5,635.5z"/>
	<g transform="translate(18.180422 250.00006)">
		<path class="st2" d="M0.3,255.1l437.4,254.5L873,253.2L437.7,0.6L0.3,255.1z"/>
		<g>
			<path class="st3" d="M0.3,255.1l437.4,254.5L873,253.2L437.7,0.6L0.3,255.1z"/>
		</g>
		<g>
			<defs>
				<filter id="Adobe_OpacityMaskFilter" filterUnits="userSpaceOnUse" x="-285.9" y="-373.7" width="1376.8" height="833.2">
					<feColorMatrix  type="matrix" values="1 0 0 0 0  0 1 0 0 0  0 0 1 0 0  0 0 0 1 0"/>
				</filter>
			</defs>
			<mask maskUnits="userSpaceOnUse" x="-285.9" y="-373.7" width="1376.8" height="833.2" id="b_1_">
				<g class="st4">
					<path id="a_1_" class="st5" d="M-162.9-64.9l437.4,254.5L709.8-66.8L274.5-319.4L-162.9-64.9z"/>
				</g>
			</mask>
			<path class="st6" d="M-274.5,440l1354-794.4"/>
			<defs>
				<filter id="Adobe_OpacityMaskFilter_1_" filterUnits="userSpaceOnUse" x="-324.8" y="-195.3" width="1376.8" height="833.2">
					<feColorMatrix  type="matrix" values="1 0 0 0 0  0 1 0 0 0  0 0 1 0 0  0 0 0 1 0"/>
				</filter>
			</defs>
			<mask maskUnits="userSpaceOnUse" x="-324.8" y="-195.3" width="1376.8" height="833.2" id="b_2_">
				<g class="st7">
					<path id="a_2_" class="st5" d="M-162.9-64.9l437.4,254.5L709.8-66.8L274.5-319.4L-162.9-64.9z"/>
				</g>
			</mask>
			<path class="st8" d="M-313.4,618.4l1354-794.4"/>
			<defs>
				<filter id="Adobe_OpacityMaskFilter_2_" filterUnits="userSpaceOnUse" x="26" y="-248.9" width="1376.8" height="833.2">
					<feColorMatrix  type="matrix" values="1 0 0 0 0  0 1 0 0 0  0 0 1 0 0  0 0 0 1 0"/>
				</filter>
			</defs>
			<mask maskUnits="userSpaceOnUse" x="26" y="-248.9" width="1376.8" height="833.2" id="b_3_">
				<g class="st9">
					<path id="a_3_" class="st5" d="M-162.9-64.9l437.4,254.5L709.8-66.8L274.5-319.4L-162.9-64.9z"/>
				</g>
			</mask>
			<path class="st10" d="M37.4,564.9l1354-794.4"/>
			<defs>
				<filter id="Adobe_OpacityMaskFilter_3_" filterUnits="userSpaceOnUse" x="18.2" y="-82.4" width="1376.8" height="833.2">
					<feColorMatrix  type="matrix" values="1 0 0 0 0  0 1 0 0 0  0 0 1 0 0  0 0 0 1 0"/>
				</filter>
			</defs>
			<mask maskUnits="userSpaceOnUse" x="18.2" y="-82.4" width="1376.8" height="833.2" id="b_4_">
				<g class="st11">
					<path id="a_4_" class="st5" d="M-162.9-64.9l437.4,254.5L709.8-66.8L274.5-319.4L-162.9-64.9z"/>
				</g>
			</mask>
			<path class="st12" d="M29.6,731.4L1383.6-63"/>
			<defs>
				<filter id="Adobe_OpacityMaskFilter_4_" filterUnits="userSpaceOnUse" x="192.5" y="-22.9" width="1376.8" height="833.2">
					<feColorMatrix  type="matrix" values="1 0 0 0 0  0 1 0 0 0  0 0 1 0 0  0 0 0 1 0"/>
				</filter>
			</defs>
			<mask maskUnits="userSpaceOnUse" x="192.5" y="-22.9" width="1376.8" height="833.2" id="b_5_">
				<g class="st13">
					<path id="a_5_" class="st5" d="M-162.9-64.9l437.4,254.5L709.8-66.8L274.5-319.4L-162.9-64.9z"/>
				</g>
			</mask>
			<path class="st14" d="M203.9,790.9l1354-794.4"/>
			<defs>
				<filter id="Adobe_OpacityMaskFilter_5_" filterUnits="userSpaceOnUse" x="543.3" y="-76.4" width="1376.8" height="833.2">
					<feColorMatrix  type="matrix" values="1 0 0 0 0  0 1 0 0 0  0 0 1 0 0  0 0 0 1 0"/>
				</filter>
			</defs>
			<mask maskUnits="userSpaceOnUse" x="543.3" y="-76.4" width="1376.8" height="833.2" id="b_6_">
				<g class="st15">
					<path id="a_6_" class="st5" d="M-162.9-64.9l437.4,254.5L709.8-66.8L274.5-319.4L-162.9-64.9z"/>
				</g>
			</mask>
			<path class="st16" d="M554.7,737.4L1908.8-57"/>
			<defs>
				<filter id="Adobe_OpacityMaskFilter_6_" filterUnits="userSpaceOnUse" x="537.4" y="90.1" width="1376.8" height="833.2">
					<feColorMatrix  type="matrix" values="1 0 0 0 0  0 1 0 0 0  0 0 1 0 0  0 0 0 1 0"/>
				</filter>
			</defs>
			<mask maskUnits="userSpaceOnUse" x="537.4" y="90.1" width="1376.8" height="833.2" id="b_7_">
				<g class="st17">
					<path id="a_7_" class="st5" d="M-162.9-64.9l437.4,254.5L709.8-66.8L274.5-319.4L-162.9-64.9z"/>
				</g>
			</mask>
			<path class="st18" d="M548.8,903.9l1354-794.4"/>
			<defs>
				<filter id="Adobe_OpacityMaskFilter_7_" filterUnits="userSpaceOnUse" x="-316.4" y="-421.3" width="2245" height="1297">
					<feColorMatrix  type="matrix" values="1 0 0 0 0  0 1 0 0 0  0 0 1 0 0  0 0 0 1 0"/>
				</filter>
			</defs>
			<mask maskUnits="userSpaceOnUse" x="-316.4" y="-421.3" width="2245" height="1297" id="b_8_">
				<g class="st19">
					<path id="a_8_" class="st5" d="M-162.9-64.9l437.4,254.5L709.8-66.8L274.5-319.4L-162.9-64.9z"/>
				</g>
			</mask>
			<g class="st20">
				<g transform="matrix(-1 0 0 1 1917.74975 -401.91278)">
					<path class="st21" d="M6.5,794.4L1360.6,0"/>
					<path class="st21" d="M0.6,972.8l1354-794.4"/>
					<path class="st21" d="M351.4,919.3l1354-794.4"/>
					<path class="st21" d="M345.5,1085.8l1354-794.4"/>
					<path class="st21" d="M517.9,1145.2l1354-794.4"/>
					<path class="st21" d="M868.8,1091.7l1354-794.4"/>
					<path class="st21" d="M862.8,1258.2l1354-794.4"/>
				</g>
			</g>
		</g>
	</g>
	<g transform="translate(129.637675 68.695502)">
		<path class="st1" d="M0.8,416.8V62.3l265,506.9L0.8,416.8z"/>
		<path class="st22" d="M325.8,438.9l220-126.5V0.7l-220,122.9V438.9z"/>
		<path class="st23" d="M414.4,385.9l178,104.7V247.3l-178-106.3V385.9z"/>
		<path class="st22" d="M325.8,438.9l220-126.5V0.7l-220,122.9V438.9z"/>
	</g>
</g>
</svg>
