<svg id="Capa_1" data-name="Capa 1" xmlns="http://www.w3.org/2000/svg" viewBox="0 0 512 512"><defs><style>.cls-1{fill:#00b39f;}.cls-2{fill:#00d3a9;}.cls-3{fill:#fff;stroke:#707070;stroke-miterlimit:10;stroke-width:10px;}.cls-4{fill:#263238;opacity:0.82;}</style></defs><title>pattern-configure-color</title><path class="cls-1" d="M337.18,102.41c10,12.47,17.31,26.45,22.92,41.3,7.23,19.15,10.52,39.07,6.4,59.27-5.55,27.11-21.4,46.2-47.92,55.38-10.3,3.56-21,5-31.64.54a14.45,14.45,0,0,1-4.07-2.22,26.72,26.72,0,0,1-6.73,17.12,16,16,0,0,1,4.37-1.25c1.47-.27,2.95-.48,4.44-.61,14.19-1.17,27.85-4.17,40.82-10.37,20-9.59,36.76-23.25,51-40.14A137.44,137.44,0,0,0,397,190.08a173.76,173.76,0,0,0,14.29-52.66c1.83-15.69,1.34-31.08-.23-46.62-.38-3.75-2-5.3-5.37-5.9-8.67-1.54-17.34-3.27-25.85-5.34-22.28-5.41-44.74-10-67.06-15.16-7.94-1.85-15.92-3.52-23.87-5.28,5.84,5.57,12.11,10.15,18.18,15C317.88,82.7,328.5,91.53,337.18,102.41Z"/><path class="cls-2" d="M91.93,295.5c6.84-28.72,18.13-55.07,41.46-74.49,21.25-17.69,45.32-23.2,71.83-14,13.39,4.63,24.86,12.12,31,25.73a14.72,14.72,0,0,1,1.29,3.81,26.71,26.71,0,0,1,15.19-7.2c-.35-.23-.71-.49-1.11-.81-8.15-6.55-15.88-13.68-25.34-18.5-33.63-17.13-68.94-19.34-104.84-10.2C83.32,209.51,53.9,232.6,29.74,263c-2.71,3.41-2.49,5.61-.26,9.06,18.74,29.12,37.27,58.36,55.88,87.56,2.46,3.87,5,7.67,8.38,12.77.36-8.61-1.47-15.49-2.43-22.42C88.78,331.75,87.62,313.61,91.93,295.5Z"/><path class="cls-2" d="M149.24,93.39a351,351,0,0,1,39.06-4.32c11.88-.65,23.48,1.69,34.95,4.69,27.18,7.11,51.55,19,69.42,41.51,17.07,21.46,21.16,45.54,12,71.36-4.68,13.2-12.59,24.16-26.1,30.1a7.79,7.79,0,0,1-3.05.81,26.73,26.73,0,0,1,7.22,15.73,21.54,21.54,0,0,1,2.05-2.77c9.91-11.77,18.87-24.12,24-38.86a153.77,153.77,0,0,0,8.27-60.26,147.12,147.12,0,0,0-14.83-57.52c-12.63-25.47-30.8-46.43-53-64.06-3.31-2.63-5.71-2.32-9.16-.1-28.56,18.37-57.29,36.48-85.9,54.77-4.45,2.84-9.21,5.31-13.51,9.34A38.32,38.32,0,0,0,149.24,93.39Z"/><path class="cls-1" d="M68.9,211.74c11.25-14.22,22-28.93,37.12-39.45,28-19.42,58.24-32,93-27.16,28,3.92,48.24,19.19,58.35,46.17,4.34,11.59,5.7,23.57.62,35.54a11,11,0,0,1-1.25,2.29,26.7,26.7,0,0,1,15.82,5.7,11.21,11.21,0,0,1-.28-1.2,44.22,44.22,0,0,1-.39-4.46c-.89-11.81-2.82-23.37-7.06-34.54-9-23.68-24.39-42.47-43.38-58.82-28-24.11-61-34.45-97.23-35.83-10.28-.39-20.6-.49-30.9.85-7.11.93-7.65,1-9.18,8q-9.92,45.29-19.91,90.57c-1.73,7.87-3.42,15.74-5.37,24.72C63.46,220,65.86,215.59,68.9,211.74Z"/><path class="cls-2" d="M482.56,240.26c-18.8-29.26-37.39-58.66-56.16-87.94-2.5-3.88-4.48-8.22-8.65-12.52,1.2,10.21,2.07,19.1,3.33,27.94,2.62,18.44,2.6,36.71-2.28,54.85-7.65,28.5-20.4,53.82-44.38,72.22-13.13,10.08-28.32,14.7-44.65,14.91-11.45.15-22.34-3.16-32.48-8.59-8.83-4.74-16.36-10.9-20.8-20.16-1.4-2.93-2-4.7-1.55-5.89a26.8,26.8,0,0,1-16,7.65,38.17,38.17,0,0,1,4.5,3.36c8.39,6.82,16.79,13.65,26.66,18.35,27.51,13.07,56.59,15.85,86.18,11.19,44.63-7,78.45-32.09,106.19-66.53C485,246,484.67,243.54,482.56,240.26Z"/><path class="cls-1" d="M423.4,324.6c-27.68,27.8-60.82,43.33-100.72,43.44-27.83.08-57.31-18.2-67.2-45-4.09-11.1-6.81-22.36-2.6-34.06,1.12-3.1,1.88-5.07,2.73-6.06a26.8,26.8,0,0,1-16.6-6,18.29,18.29,0,0,1,.92,4.63c.88,8.58,1.33,17.28,3.9,25.57,13.7,44.19,43.16,74.42,84.79,92.74,26.6,11.7,54.91,15.27,84,12.25,13-1.36,13.08-1.12,15.66-12.51,7.15-31.44,14.33-62.88,21.25-94.37,1.16-5.3,3.27-10.54,3.17-17.38-1.64,2.21-2.52,3.37-3.36,4.56C441.26,303.57,433.12,314.84,423.4,324.6Z"/><path class="cls-1" d="M179.53,415.38c-12.69-14.24-21.77-30.69-28.08-48.55-6-17.07-9.53-34.62-6.66-52.9,4.16-26.56,17.64-46.41,42.46-57.5,12.05-5.39,24.71-7.94,37.8-2.92a18.8,18.8,0,0,1,4.08,1.92,26.73,26.73,0,0,1,5.62-15.9,23.45,23.45,0,0,1-3.21.42,165,165,0,0,0-21.23,2.7c-24.22,5.14-44.33,17.82-62,34.53-23.55,22.23-38.71,49.24-45.08,81.15-3.86,19.38-4.4,38.82-2.93,58.46.56,7.58,3.7,10.29,11.3,11.83,31.75,6.45,63.29,14,95,20.88,5.39,1.18,10.69,3.18,17.82,3.4-5.19-4-9.22-7.06-13.26-10.13C200,434.31,188.86,425.85,179.53,415.38Z"/><path class="cls-2" d="M368.85,418c-11.29,2-22.65,3.38-34.05,4.48-9.31.9-18.76,1.36-27.91,0A157.25,157.25,0,0,1,268.5,412c-19.14-8-36.5-18.59-49.37-35.3-15.54-20.17-20.78-42.64-13.13-67.17,4.34-13.88,11.47-26.27,25.53-33,2.5-1.19,4.22-1.75,5.43-1.58a26.77,26.77,0,0,1-7.63-15.65,31.49,31.49,0,0,1-2,2.59c-6.47,7.81-13.08,15.52-17.77,24.63-11.31,22-15.45,45.39-14.83,70a144.66,144.66,0,0,0,11,52.87c12.17,29,31.52,52.61,56.07,72.15,3.83,3.06,6.59,3.38,10.88.59,24.72-16,49.67-31.72,74.53-47.53,8.22-5.24,16.42-10.52,24.74-15.86A3.06,3.06,0,0,0,368.85,418Z"/><circle class="cls-3" cx="398.49" cy="388.49" r="103.51"/><path class="cls-4" d="M397.44,318c7.86,0,7.85,0,10.46,7.39,1.16,3.29,2.2,6.62,3.59,9.81a8,8,0,0,0,2.91,3.16c6,3.91,11.84,4,17.78-.37a38.35,38.35,0,0,1,8-4,3.26,3.26,0,0,1,2.87.31c3.08,2.8,6.05,5.73,8.88,8.8a3.29,3.29,0,0,1,.1,2.86c-2.15,4.81-4.43,9.57-6.74,14.31a6.56,6.56,0,0,0-.18,4.82c1.69,7.08,6,10.89,13.11,12.13a57.3,57.3,0,0,1,9.73,3,3.12,3.12,0,0,1,1.75,2.16c.17,3.9,0,7.83.11,11.74,0,1.67-.9,2.15-2.22,2.59-5.41,1.78-10.78,3.66-16.2,5.4a6,6,0,0,0-3.43,3.05c-3.66,6.12-3.84,11.89.54,17.82,1.75,2.35,2.69,5.3,4.13,7.9a2.33,2.33,0,0,1-.57,3.31c-2.8,2.61-5.55,5.27-8.22,8a2.48,2.48,0,0,1-3.35.55c-4.89-2.4-9.79-4.77-14.79-6.93a7.27,7.27,0,0,0-4-.08c-7.42,1.45-11.39,6.11-12.59,13.51-.41,2.57-1.64,5-2.34,7.54-.47,1.71-1.41,2.26-3.13,2.22q-5.49-.15-11,0a2.79,2.79,0,0,1-3.12-2.27c-1.63-4.84-3.4-9.62-5.12-14.43-.14-.4-.28-.8-.44-1.19-1.2-2.89-11.53-6.53-14.3-5.1-4.69,2.42-9.43,4.72-14.09,7.18a2.36,2.36,0,0,1-3.31-.58c-2.72-2.81-5.5-5.57-8.35-8.25-1.12-1.05-1-1.94-.37-3.14,2.4-5,4.8-10,7-15a7.33,7.33,0,0,0,.11-3.59,9.72,9.72,0,0,0-.91-2.37c-3.06-7.38-3.07-7.37-10.75-9.78-3.24-1-6.45-2.14-9.71-3.1a2.45,2.45,0,0,1-2-2.75c.07-3.83.08-7.66,0-11.49a2.54,2.54,0,0,1,2-2.77c5-1.73,9.92-3.58,14.91-5.26a5.19,5.19,0,0,0,3.62-3.57,13.78,13.78,0,0,1,1.47-3.53c2.54-3.8,1.64-7.22-.56-10.83-2.06-3.41-3.64-7.11-5.57-10.61-.86-1.56-.62-2.54.67-3.72a106.14,106.14,0,0,0,7.56-7.59c1.44-1.62,2.6-1.55,4.38-.65,4.54,2.32,9.15,4.55,13.84,6.54a8.16,8.16,0,0,0,4.55.16c7-1.48,11.2-5.56,12.24-12.88.38-2.73,1.81-5.3,2.51-8,.51-2,1.57-2.58,3.48-2.44C394,318.1,395.74,318,397.44,318Zm23.26,70.76a23.06,23.06,0,0,0-22.84-23.23,23,23,0,0,0-.4,45.93C410.43,411.49,420.68,401.48,420.7,388.76Z"/></svg>