<svg id="Capa_1" data-name="Capa 1" xmlns="http://www.w3.org/2000/svg" viewBox="0 0 512 512"><defs><style>.cls-1,.cls-2,.cls-3{fill:#818181;}.cls-1{opacity:0.8;isolation:isolate;}.cls-3{stroke:#707070;stroke-miterlimit:10;stroke-width:10px;}.cls-4{fill:#263238;opacity:0.82;}</style></defs><title>pattern-configure-white</title><g id="Layer_2" data-name="Layer 2"><g id="Layer_1-2" data-name="Layer 1-2"><path class="cls-1" d="M337.06,102.41c10,12.5,17.3,26.5,22.9,41.3,7.2,19.1,10.5,39.1,6.4,59.3-5.5,27.1-21.4,46.2-47.9,55.4-10.3,3.6-21,5-31.6.5a14.69,14.69,0,0,1-4.1-2.2,26.91,26.91,0,0,1-6.7,17.1,16.9,16.9,0,0,1,4.4-1.2,33.21,33.21,0,0,1,4.4-.6c14.2-1.2,27.9-4.2,40.8-10.4,20-9.6,36.8-23.2,51-40.1a137.2,137.2,0,0,0,20.3-31.4c7.7-16.8,12.1-34.3,14.3-52.7,1.8-15.7,1.3-31.1-.2-46.6-.4-3.7-2-5.3-5.4-5.9-8.7-1.5-17.3-3.3-25.9-5.3-22.3-5.4-44.7-10-67.1-15.2-7.9-1.8-15.9-3.5-23.9-5.3,5.8,5.6,12.1,10.1,18.2,15C317.76,82.61,328.36,91.51,337.06,102.41Z"/><path class="cls-2" d="M91.86,295.41c6.8-28.7,18.1-55.1,41.5-74.5,21.3-17.7,45.3-23.2,71.8-14,13.4,4.6,24.9,12.1,31,25.7a17.06,17.06,0,0,1,1.3,3.8,26.4,26.4,0,0,1,15.2-7.2c-.3-.2-.7-.5-1.1-.8-8.1-6.5-15.9-13.7-25.3-18.5-33.6-17.1-68.9-19.3-104.8-10.2-38.1,9.7-67.5,32.8-91.6,63.2-2.7,3.4-2.5,5.6-.3,9.1,18.7,29.1,37.3,58.4,55.9,87.6,2.5,3.9,5,7.7,8.4,12.8.4-8.6-1.5-15.5-2.4-22.4C88.66,331.71,87.56,313.61,91.86,295.41Z"/><path class="cls-2" d="M149.16,93.41a341.2,341.2,0,0,1,39.1-4.3c11.9-.7,23.5,1.7,34.9,4.7,27.2,7.1,51.6,19,69.4,41.5,17.1,21.5,21.2,45.5,12,71.4-4.7,13.2-12.6,24.2-26.1,30.1a7.87,7.87,0,0,1-3,.8,26.56,26.56,0,0,1,7.2,15.7,18.6,18.6,0,0,1,2.1-2.8c9.9-11.8,18.9-24.1,24-38.9a152.37,152.37,0,0,0,8.3-60.3,146.52,146.52,0,0,0-14.8-57.4c-12.6-25.5-30.8-46.4-53-64.1-3.3-2.6-5.7-2.3-9.2-.1-28.6,18.4-57.3,36.5-85.9,54.8-4.4,2.8-9.2,5.3-13.5,9.3A48.42,48.42,0,0,0,149.16,93.41Z"/><path class="cls-1" d="M69.06,212.21c11.2-14.3,21.8-29.1,36.9-39.7,27.8-19.6,58-32.4,92.8-27.7,28,3.7,48.4,18.9,58.6,45.8,4.4,11.6,5.8,23.5.8,35.5a10.08,10.08,0,0,1-1.2,2.3,27,27,0,0,1,15.9,5.6l-.3-1.2a34.19,34.19,0,0,1-.4-4.5c-1-11.8-3-23.3-7.3-34.5-9.1-23.6-24.6-42.3-43.7-58.6-28.2-23.9-61.2-34.1-97.4-35.2-10.3-.3-20.6-.4-30.9,1-7.1,1-7.6,1-9.1,8q-9.6,45.45-19.4,90.8c-1.7,7.9-3.3,15.8-5.2,24.7C63.66,220.61,66.06,216.21,69.06,212.21Z"/><path class="cls-2" d="M482.46,240.21c-18.8-29.3-37.4-58.7-56.2-87.9-2.5-3.9-4.5-8.2-8.6-12.5,1.2,10.2,2.1,19.1,3.3,27.9,2.6,18.4,2.6,36.7-2.3,54.9-7.7,28.5-20.4,53.8-44.4,72.2-13.1,10.1-28.3,14.7-44.7,14.9-11.5.1-22.3-3.2-32.5-8.6-8.8-4.7-16.4-10.9-20.8-20.2-1.4-2.9-2-4.7-1.6-5.9a26.19,26.19,0,0,1-16,7.6,29.53,29.53,0,0,1,4.5,3.4c8.4,6.8,16.8,13.7,26.7,18.4,27.5,13.1,56.6,15.9,86.2,11.2,44.6-7,78.5-32.1,106.2-66.5C484.86,245.91,484.56,243.41,482.46,240.21Z"/><path class="cls-1" d="M423.26,324.61c-27.7,27.8-60.8,43.3-100.7,43.4-27.8.1-57.3-18.2-67.2-45-4.1-11.1-6.8-22.4-2.6-34.1,1.1-3.1,1.9-5.1,2.7-6.1a27,27,0,0,1-16.6-6,17.86,17.86,0,0,1,.9,4.6c.9,8.6,1.3,17.3,3.9,25.6,13.7,44.2,43.2,74.4,84.8,92.7,26.6,11.7,54.9,15.3,84,12.2,13-1.4,13.1-1.1,15.7-12.5,7.1-31.4,14.3-62.9,21.2-94.4,1.2-5.3,3.3-10.5,3.2-17.4-1.6,2.2-2.5,3.4-3.4,4.6C441.16,303.61,433.06,314.81,423.26,324.61Z"/><path class="cls-1" d="M179.46,415.31c-12.7-14.2-21.8-30.7-28.1-48.5-6-17.1-9.5-34.6-6.7-52.9,4.2-26.6,17.6-46.4,42.5-57.5,12-5.4,24.7-7.9,37.8-2.9a21.72,21.72,0,0,1,4.1,1.9,27,27,0,0,1,5.6-15.9c-1.1.2-2.1.3-3.2.4a189,189,0,0,0-21.2,2.7c-24.2,5.1-44.3,17.8-62,34.5a148.79,148.79,0,0,0-45.1,81.1c-3.9,19.4-4.4,38.8-2.9,58.5.6,7.6,3.7,10.3,11.3,11.8,31.8,6.4,63.3,14,95,20.9,5.4,1.2,10.7,3.2,17.8,3.4-5.2-4-9.2-7.1-13.3-10.1C199.86,434.31,188.76,425.81,179.46,415.31Z"/><path class="cls-2" d="M368.76,417.91c-11.3,2-22.6,3.4-34.1,4.5-9.3.9-18.8,1.4-27.9,0a155.08,155.08,0,0,1-38.4-10.5c-19.1-8-36.5-18.6-49.4-35.3-15.5-20.2-20.8-42.6-13.1-67.2,4.3-13.9,11.5-26.3,25.5-33,2.5-1.2,4.2-1.8,5.4-1.6a26.53,26.53,0,0,1-7.6-15.6,25.6,25.6,0,0,1-2,2.6c-6.5,7.8-13.1,15.5-17.8,24.6-11.3,22-15.4,45.4-14.8,70a147.61,147.61,0,0,0,11,52.9c12.2,29,31.5,52.6,56.1,72.2,3.8,3.1,6.6,3.4,10.9.6,24.7-16,49.7-31.7,74.5-47.5,8.2-5.2,16.4-10.5,24.7-15.9A3,3,0,0,0,368.76,417.91Z"/></g></g><circle class="cls-3" cx="398.49" cy="388.49" r="103.51"/><path class="cls-4" d="M397.44,318c7.86,0,7.85,0,10.46,7.39,1.16,3.29,2.2,6.62,3.59,9.81a8,8,0,0,0,2.91,3.16c6,3.91,11.84,4,17.78-.37a38.35,38.35,0,0,1,8-4,3.26,3.26,0,0,1,2.87.31c3.08,2.8,6.05,5.73,8.88,8.8a3.29,3.29,0,0,1,.1,2.86c-2.15,4.81-4.43,9.57-6.74,14.31a6.56,6.56,0,0,0-.18,4.82c1.69,7.08,6,10.89,13.11,12.13a57.3,57.3,0,0,1,9.73,3,3.12,3.12,0,0,1,1.75,2.16c.17,3.9,0,7.83.11,11.74,0,1.67-.9,2.15-2.22,2.59-5.41,1.78-10.78,3.66-16.2,5.4a6,6,0,0,0-3.43,3.05c-3.66,6.12-3.84,11.89.54,17.82,1.75,2.35,2.69,5.3,4.13,7.9a2.33,2.33,0,0,1-.57,3.31c-2.8,2.61-5.55,5.27-8.22,8a2.48,2.48,0,0,1-3.35.55c-4.89-2.4-9.79-4.77-14.79-6.93a7.27,7.27,0,0,0-4-.08c-7.42,1.45-11.39,6.11-12.59,13.51-.41,2.57-1.64,5-2.34,7.54-.47,1.71-1.41,2.26-3.13,2.22q-5.49-.15-11,0a2.79,2.79,0,0,1-3.12-2.27c-1.63-4.84-3.4-9.62-5.12-14.43-.14-.4-.28-.8-.44-1.19-1.2-2.89-11.53-6.53-14.3-5.1-4.69,2.42-9.43,4.72-14.09,7.18a2.36,2.36,0,0,1-3.31-.58c-2.72-2.81-5.5-5.57-8.35-8.25-1.12-1.05-1-1.94-.37-3.14,2.4-5,4.8-10,7-15a7.33,7.33,0,0,0,.11-3.59,9.72,9.72,0,0,0-.91-2.37c-3.06-7.38-3.07-7.37-10.75-9.78-3.24-1-6.45-2.14-9.71-3.1a2.45,2.45,0,0,1-2-2.75c.07-3.83.08-7.66,0-11.49a2.54,2.54,0,0,1,2-2.77c5-1.73,9.92-3.58,14.91-5.26a5.19,5.19,0,0,0,3.62-3.57,13.78,13.78,0,0,1,1.47-3.53c2.54-3.8,1.64-7.22-.56-10.83-2.06-3.41-3.64-7.11-5.57-10.61-.86-1.56-.62-2.54.67-3.72a106.14,106.14,0,0,0,7.56-7.59c1.44-1.62,2.6-1.55,4.38-.65,4.54,2.32,9.15,4.55,13.84,6.54a8.16,8.16,0,0,0,4.55.16c7-1.48,11.2-5.56,12.24-12.88.38-2.73,1.81-5.3,2.51-8,.51-2,1.57-2.58,3.48-2.44C394,318.1,395.74,318,397.44,318Zm23.26,70.76a23.06,23.06,0,0,0-22.84-23.23,23,23,0,0,0-.4,45.93C410.43,411.49,420.68,401.48,420.7,388.76Z"/></svg>