<svg width="62" height="21" viewBox="0 0 82 31" fill="none" xmlns="http://www.w3.org/2000/svg">
<path d="M0.5 5C0.5 2.51472 2.51472 0.5 5 0.5H77C79.4853 0.5 81.5 2.51472 81.5 5V26C81.5 28.4853 79.4853 30.5 77 30.5H5C2.51472 30.5 0.5 28.4853 0.5 26V5Z" fill="#CCCCCC" stroke="#51636B"/>
<path d="M15.0812 16.5391H12.0422V15.3125H15.0812C15.6698 15.3125 16.1464 15.2188 16.5109 15.0312C16.8755 14.8438 17.1411 14.5833 17.3078 14.25C17.4797 13.9167 17.5656 13.5365 17.5656 13.1094C17.5656 12.7188 17.4797 12.3516 17.3078 12.0078C17.1411 11.6641 16.8755 11.388 16.5109 11.1797C16.1464 10.9661 15.6698 10.8594 15.0812 10.8594H12.3937V21H10.8859V9.625H15.0812C15.9406 9.625 16.6672 9.77344 17.2609 10.0703C17.8547 10.3672 18.3052 10.7786 18.6125 11.3047C18.9198 11.8255 19.0734 12.4219 19.0734 13.0938C19.0734 13.8229 18.9198 14.4453 18.6125 14.9609C18.3052 15.4766 17.8547 15.8698 17.2609 16.1406C16.6672 16.4062 15.9406 16.5391 15.0812 16.5391ZM21.1297 9.625H24.8953C25.7495 9.625 26.4708 9.75521 27.0594 10.0156C27.6531 10.276 28.1036 10.6615 28.4109 11.1719C28.7234 11.6771 28.8797 12.2995 28.8797 13.0391C28.8797 13.5599 28.7729 14.0365 28.5594 14.4688C28.351 14.8958 28.049 15.2604 27.6531 15.5625C27.2625 15.8594 26.7937 16.0807 26.2469 16.2266L25.825 16.3906H22.2859L22.2703 15.1641H24.9422C25.4839 15.1641 25.9344 15.0703 26.2937 14.8828C26.6531 14.6901 26.924 14.4323 27.1062 14.1094C27.2885 13.7865 27.3797 13.4297 27.3797 13.0391C27.3797 12.6016 27.2937 12.2188 27.1219 11.8906C26.95 11.5625 26.6792 11.3099 26.3094 11.1328C25.9448 10.9505 25.4734 10.8594 24.8953 10.8594H22.6375V21H21.1297V9.625ZM27.7781 21L25.0125 15.8438L26.5828 15.8359L29.3875 20.9062V21H27.7781ZM32.7562 9.625V21H31.2484V9.625H32.7562ZM39.3203 19.2734L42.6719 9.625H44.3047L40.0938 21H38.9297L39.3203 19.2734ZM36.1875 9.625L39.5078 19.2734L39.9219 21H38.7578L34.5547 9.625H36.1875ZM49.6031 10.6328L45.8375 21H44.2984L48.6344 9.625H49.6266L49.6031 10.6328ZM52.7594 21L48.9859 10.6328L48.9625 9.625H49.9547L54.3062 21H52.7594ZM52.5641 16.7891V18.0234H46.1734V16.7891H52.5641ZM59.1672 9.625V21H57.6828V9.625H59.1672ZM62.8234 9.625V10.8594H54.0344V9.625H62.8234ZM71.8875 19.7734V21H65.8641V19.7734H71.8875ZM66.1688 9.625V21H64.6609V9.625H66.1688ZM71.0906 14.5156V15.7422H65.8641V14.5156H71.0906ZM71.8094 9.625V10.8594H65.8641V9.625H71.8094Z" fill="#1A1A1A"/>
</svg>
