<svg width="62" height="21" viewBox="0 0 94 31" fill="none" xmlns="http://www.w3.org/2000/svg">
<rect x="0.5" y="0.5" width="93" height="30" rx="4.5" stroke="#51636B"/>
<path d="M25.5156 16.5391H22.4766V15.3125H25.5156C26.1042 15.3125 26.5807 15.2188 26.9453 15.0312C27.3099 14.8438 27.5755 14.5833 27.7422 14.25C27.9141 13.9167 28 13.5365 28 13.1094C28 12.7188 27.9141 12.3516 27.7422 12.0078C27.5755 11.6641 27.3099 11.388 26.9453 11.1797C26.5807 10.9661 26.1042 10.8594 25.5156 10.8594H22.8281V21H21.3203V9.625H25.5156C26.375 9.625 27.1016 9.77344 27.6953 10.0703C28.2891 10.3672 28.7396 10.7786 29.0469 11.3047C29.3542 11.8255 29.5078 12.4219 29.5078 13.0938C29.5078 13.8229 29.3542 14.4453 29.0469 14.9609C28.7396 15.4766 28.2891 15.8698 27.6953 16.1406C27.1016 16.4062 26.375 16.5391 25.5156 16.5391ZM38.0719 9.625H39.5719V17.3203C39.5719 18.1745 39.3818 18.8854 39.0016 19.4531C38.6214 20.0208 38.1161 20.4479 37.4859 20.7344C36.8609 21.0156 36.1812 21.1562 35.4469 21.1562C34.676 21.1562 33.9781 21.0156 33.3531 20.7344C32.7333 20.4479 32.2411 20.0208 31.8766 19.4531C31.5172 18.8854 31.3375 18.1745 31.3375 17.3203V9.625H32.8297V17.3203C32.8297 17.9141 32.9391 18.4036 33.1578 18.7891C33.3766 19.1745 33.6812 19.4609 34.0719 19.6484C34.4677 19.8359 34.926 19.9297 35.4469 19.9297C35.9729 19.9297 36.4312 19.8359 36.8219 19.6484C37.2177 19.4609 37.525 19.1745 37.7437 18.7891C37.9625 18.4036 38.0719 17.9141 38.0719 17.3203V9.625ZM46.1437 15.6797H43.2609L43.2453 14.4688H45.8625C46.2948 14.4688 46.6724 14.3958 46.9953 14.25C47.3182 14.1042 47.5682 13.8958 47.7453 13.625C47.9276 13.349 48.0187 13.0208 48.0187 12.6406C48.0187 12.224 47.938 11.8854 47.7766 11.625C47.6203 11.3594 47.3781 11.1667 47.05 11.0469C46.7271 10.9219 46.3156 10.8594 45.8156 10.8594H43.5969V21H42.0891V9.625H45.8156C46.399 9.625 46.9198 9.6849 47.3781 9.80469C47.8365 9.91927 48.2245 10.1016 48.5422 10.3516C48.8651 10.5964 49.1099 10.9089 49.2766 11.2891C49.4432 11.6693 49.5266 12.125 49.5266 12.6562C49.5266 13.125 49.4068 13.5495 49.1672 13.9297C48.9276 14.3047 48.5943 14.612 48.1672 14.8516C47.7453 15.0911 47.2505 15.2448 46.6828 15.3125L46.1437 15.6797ZM46.0734 21H42.6672L43.5187 19.7734H46.0734C46.5526 19.7734 46.9589 19.6901 47.2922 19.5234C47.6307 19.3568 47.8885 19.1224 48.0656 18.8203C48.2427 18.513 48.3312 18.151 48.3312 17.7344C48.3312 17.3125 48.2557 16.9479 48.1047 16.6406C47.9536 16.3333 47.7167 16.0964 47.3937 15.9297C47.0708 15.763 46.6542 15.6797 46.1437 15.6797H43.9953L44.0109 14.4688H46.9484L47.2687 14.9062C47.8156 14.9531 48.2792 15.1094 48.6594 15.375C49.0396 15.6354 49.3286 15.9688 49.5266 16.375C49.7297 16.7812 49.8312 17.2292 49.8312 17.7188C49.8312 18.4271 49.675 19.026 49.3625 19.5156C49.0552 20 48.6203 20.3698 48.0578 20.625C47.4953 20.875 46.8339 21 46.0734 21ZM59.1063 19.7734V21H53.4188V19.7734H59.1063ZM53.7156 9.625V21H52.2078V9.625H53.7156ZM62.6 9.625V21H61.0922V9.625H62.6ZM72.3594 17.3828H73.8594C73.7812 18.1016 73.5755 18.7448 73.2422 19.3125C72.9089 19.8802 72.4375 20.3307 71.8281 20.6641C71.2188 20.9922 70.4583 21.1562 69.5469 21.1562C68.8802 21.1562 68.2734 21.0312 67.7266 20.7812C67.1849 20.5312 66.7188 20.1771 66.3281 19.7188C65.9375 19.2552 65.6354 18.7005 65.4219 18.0547C65.2135 17.4036 65.1094 16.6797 65.1094 15.8828V14.75C65.1094 13.9531 65.2135 13.2318 65.4219 12.5859C65.6354 11.9349 65.9401 11.3776 66.3359 10.9141C66.737 10.4505 67.2188 10.0938 67.7812 9.84375C68.3438 9.59375 68.9766 9.46875 69.6797 9.46875C70.5391 9.46875 71.2656 9.63021 71.8594 9.95312C72.4531 10.276 72.9141 10.724 73.2422 11.2969C73.5755 11.8646 73.7812 12.5234 73.8594 13.2734H72.3594C72.2865 12.7422 72.151 12.2865 71.9531 11.9062C71.7552 11.5208 71.474 11.224 71.1094 11.0156C70.7448 10.8073 70.2682 10.7031 69.6797 10.7031C69.1745 10.7031 68.7292 10.7995 68.3438 10.9922C67.9635 11.1849 67.6432 11.4583 67.3828 11.8125C67.1276 12.1667 66.9349 12.5911 66.8047 13.0859C66.6745 13.5807 66.6094 14.1302 66.6094 14.7344V15.8828C66.6094 16.4401 66.6667 16.9635 66.7812 17.4531C66.901 17.9427 67.0807 18.3724 67.3203 18.7422C67.5599 19.112 67.8646 19.4036 68.2344 19.6172C68.6042 19.8255 69.0417 19.9297 69.5469 19.9297C70.1875 19.9297 70.6979 19.8281 71.0781 19.625C71.4583 19.4219 71.7448 19.1302 71.9375 18.75C72.1354 18.3698 72.276 17.9141 72.3594 17.3828Z" fill="#1A1A1A"/>
</svg>
