<svg width="62" height="21" viewBox="0 0 62 21" fill="none" xmlns="http://www.w3.org/2000/svg">
<g clip-path="url(#clip0_16506_42957)">
<path d="M58.7022 0.606384H3.29792C1.65869 0.606384 0.329834 1.93524 0.329834 3.57447V17.4255C0.329834 19.0648 1.65869 20.3936 3.29792 20.3936H58.7022C60.3414 20.3936 61.6703 19.0648 61.6703 17.4255V3.57447C61.6703 1.93524 60.3414 0.606384 58.7022 0.606384Z" stroke="#51636B" stroke-width="0.659574"/>
<path d="M8.168 6.78C9.2816 6.78 10.184 7.6824 10.184 8.796C10.184 9.9 9.2816 10.812 8.168 10.812H6.44V13.308C6.44 13.4328 6.3728 13.5 6.248 13.5H5.96C5.8352 13.5 5.768 13.4328 5.768 13.308V6.972C5.768 6.8472 5.8352 6.78 5.96 6.78H6.44H8.168ZM8.168 10.1784C8.9072 10.1784 9.512 9.5544 9.512 8.796C9.512 8.028 8.9072 7.4136 8.168 7.4136H6.44V10.1784H8.168ZM13.9233 13.6152C12.6465 13.6152 11.6193 12.876 11.6193 11.5032V6.972C11.6193 6.8472 11.6865 6.78 11.8113 6.78H12.0993C12.2241 6.78 12.2913 6.8472 12.2913 6.972V11.5032C12.2913 12.4728 12.9537 12.9624 13.9233 12.9624C14.8929 12.9624 15.5553 12.4728 15.5553 11.5032V6.972C15.5553 6.8472 15.6225 6.78 15.7473 6.78H16.0353C16.1601 6.78 16.2273 6.8472 16.2273 6.972V11.5032C16.2273 12.876 15.2001 13.6152 13.9233 13.6152ZM22.2794 9.2568C23.057 9.5832 23.5658 10.38 23.5658 11.3016C23.5658 12.5112 22.6634 13.5096 21.4442 13.5096H18.4778H18.2858C18.161 13.5096 18.0938 13.4424 18.0938 13.3176V6.9816C18.0938 6.8568 18.161 6.7896 18.2858 6.7896H18.7658H20.7722C21.8282 6.7896 22.5098 7.5288 22.5098 8.4312C22.5098 8.7288 22.4234 9.0072 22.2794 9.2568ZM20.7722 7.4232H18.7658V9.0936H21.4538C21.4922 9.0936 21.5402 9.0936 21.5882 9.0936C21.7418 8.9112 21.8378 8.6808 21.8378 8.4312C21.8378 7.8744 21.4538 7.4232 20.7722 7.4232ZM21.3482 12.876C22.289 12.876 22.8938 12.1656 22.8938 11.3016C22.8938 10.428 22.2986 9.7272 21.3578 9.7272H18.7658V12.876H21.3482ZM28.6431 12.8664C28.7679 12.8664 28.8351 12.9336 28.8351 13.0584V13.308C28.8351 13.4328 28.7679 13.5 28.6431 13.5H25.4751H25.2831C25.1583 13.5 25.0911 13.4328 25.0911 13.308V6.972C25.0911 6.8472 25.1583 6.78 25.2831 6.78H25.5711C25.6959 6.78 25.7631 6.8472 25.7631 6.972V12.8664H28.6431ZM30.2227 6.972C30.2227 6.8472 30.2899 6.78 30.4147 6.78H30.7027C30.8275 6.78 30.8947 6.8472 30.8947 6.972V13.308C30.8947 13.4328 30.8275 13.5 30.7027 13.5H30.4147C30.2899 13.5 30.2227 13.4328 30.2227 13.308V6.972ZM34.8286 13.6152C33.619 13.6152 32.5822 12.9528 32.4862 11.7528C32.4766 11.6184 32.5438 11.5512 32.6686 11.5512H32.9662C33.0814 11.5512 33.1486 11.6184 33.1582 11.7432C33.2542 12.54 33.9262 12.9624 34.8286 12.9624C35.6542 12.9624 36.3166 12.5208 36.3166 11.8008C36.3166 11.0712 35.6062 10.7544 34.8094 10.4568C33.7918 10.0728 32.6686 9.7272 32.6686 8.4216C32.6686 7.308 33.6478 6.6648 34.6942 6.6648C35.7598 6.6648 36.691 7.2792 36.787 8.3832C36.7966 8.5176 36.7294 8.5848 36.6046 8.5848H36.307C36.1918 8.5848 36.1246 8.5176 36.115 8.4024C36.0286 7.692 35.443 7.3176 34.6942 7.3176C33.955 7.3176 33.3406 7.7112 33.3406 8.4216C33.3406 9.1896 34.0126 9.4872 34.819 9.7944C35.8366 10.188 36.9886 10.5624 36.9886 11.8008C36.9886 12.924 35.9614 13.6152 34.8286 13.6152ZM42.8841 6.78C43.0089 6.78 43.0761 6.8472 43.0761 6.972V13.308C43.0761 13.4328 43.0089 13.5 42.8841 13.5H42.5961C42.4713 13.5 42.4041 13.4328 42.4041 13.308V10.3608H39.2361V13.308C39.2361 13.4328 39.1689 13.5 39.0441 13.5H38.7561C38.6313 13.5 38.5641 13.4328 38.5641 13.308V6.972C38.5641 6.8472 38.6313 6.78 38.7561 6.78H39.0441C39.1689 6.78 39.2361 6.8472 39.2361 6.972V9.7272H42.4041V6.972C42.4041 6.8472 42.4713 6.78 42.5961 6.78H42.8841ZM48.6844 12.8664C48.8092 12.8664 48.8764 12.9336 48.8764 13.0584V13.308C48.8764 13.4328 48.8092 13.5 48.6844 13.5H45.3244H45.2284C45.1036 13.5 45.0364 13.4328 45.0364 13.308V6.972C45.0364 6.8472 45.1036 6.78 45.2284 6.78H45.7084H48.6364C48.7612 6.78 48.8284 6.8472 48.8284 6.972V7.2216C48.8284 7.3464 48.7612 7.4136 48.6364 7.4136H45.7084V9.7944H48.3964C48.5212 9.7944 48.5884 9.8616 48.5884 9.9864V10.236C48.5884 10.3608 48.5212 10.428 48.3964 10.428H45.7084V12.8664H48.6844ZM53.2333 6.78C55.0861 6.78 56.4013 8.2872 56.4013 10.14C56.4013 11.9928 55.0861 13.5 53.2333 13.5H50.7373H50.6413C50.5165 13.5 50.4493 13.4328 50.4493 13.308V6.972C50.4493 6.8472 50.5165 6.78 50.6413 6.78H51.1213H53.2333ZM53.2333 12.8664C54.7309 12.8664 55.7485 11.6472 55.7485 10.14C55.7485 8.6328 54.7309 7.4136 53.2333 7.4136H51.1213V12.8664H53.2333Z" fill="black"/>
</g>
<defs>
<clipPath id="clip0_16506_42957">
<rect width="62" height="21" fill="white"/>
</clipPath>
</defs>
</svg>
