<svg xmlns="http://www.w3.org/2000/svg" id="Layer_1" data-name="Layer 1" viewBox="0 0 360 360"><defs><style>.cls-1{fill:#fff}</style></defs><title>servicemeshinterface-icon-white</title><circle cx="41.234" cy="59.937" r="14.921" class="cls-1"/><path d="M279.97144,164.38485a14.91311,14.91311,0,0,0-14.69275,12.40387l-68.17023,68.1701H123.2829L58.00659,179.68245,163.04822,74.64083a14.91309,14.91309,0,1,0-17.24585-16.51667L39.42078,164.50576a14.90934,14.90934,0,0,0-.88855,29.46484L106.88654,262.325v90.0658h107.432V261.51143L281.713,194.11708a14.91688,14.91688,0,0,0-1.74157-29.73223Zm-107.432,143.21551a14.83982,14.83982,0,1,1,2.98425-8.9256A14.98093,14.98093,0,0,1,172.53943,307.60036Z" class="cls-1"/><circle cx="279.971" cy="298.675" r="14.921" class="cls-1" transform="translate(-129.19323 285.44951) rotate(-45)"/><circle cx="41.234" cy="298.675" r="14.921" class="cls-1"/><path d="M279.97137,6.818a53.67339,53.67339,0,0,0-45.34875,82.45154l-75.17346,75.17352a14.91437,14.91437,0,1,0,15.72949,18.033l76.38379-76.3836A53.70514,53.70514,0,1,0,279.97137,6.818Zm0,68.63709A14.92112,14.92112,0,1,1,294.89246,60.534,14.93787,14.93787,0,0,1,279.97137,75.4551Z" class="cls-1"/></svg>