<?xml version="1.0" encoding="utf-8"?>
<!-- Generator: Adobe Illustrator 22.0.1, SVG Export Plug-In . SVG Version: 6.00 Build 0)  -->
<svg version="1.1" id="Layer_1" xmlns="http://www.w3.org/2000/svg" xmlns:xlink="http://www.w3.org/1999/xlink" x="0px" y="0px"
	 viewBox="0 0 358.1 321.3" style="enable-background:new 0 0 358.1 321.3;" xml:space="preserve">
<style type="text/css">
	.st0{fill:#00B39F;}
	.st1{fill:#B32700;}
	.st2{fill:#D32A00;}
	.st3{fill:#00D3A9;}
	.st4{fill:#FFFFFF;}
</style>
<g>
	<path class="st0" d="M0.1,71.8C0.2,32.3,32.6,0,72.1,0c39.4,0.1,71.9,32.6,71.8,72.1c-0.1,39.4-32.7,71.9-72.1,71.8
		C32.3,143.8,0,111.4,0.1,71.8z M72,124c28.8,0,52-23.4,52-52.2c0-28.7-23.5-51.9-52.3-51.8C43.2,20.1,20.1,43.3,20,71.9
		C20,100.8,43.2,124,72,124z"/>
	<path class="st1" d="M71.9,177.7c39.6-0.1,72,32.2,72,71.7c0.1,39.5-32.2,71.8-71.9,71.9c-39.7,0-72-32.1-72-71.7
		C0,209.9,32.2,177.7,71.9,177.7z M72.1,301.4c28.8-0.1,52-23.4,51.9-52.2c-0.1-28.5-23.4-51.6-51.9-51.8
		c-28.9-0.1-52.2,23.4-52.1,52.5C20.1,278.5,43.5,301.5,72.1,301.4z"/>
	<path class="st1" d="M271.1,241.7c-24.8,0-49.6,0-74.4,0c-7.9,0-12.6-3.8-12.9-10.2c-0.3-5.9,3.7-10.6,9.6-11.3
		c1.5-0.2,3-0.1,4.5-0.1c48.6,0,97.2,0,145.8,0c1.7,0,3.4-0.1,5,0.1c5.4,0.8,9.3,5.4,9.3,10.7c0,5.2-3.7,9.5-9,10.4
		c-1.8,0.3-3.6,0.3-5.5,0.3C319.4,241.7,295.2,241.7,271.1,241.7z"/>
	<path class="st0" d="M271,42.8c25.1,0,50.3-0.1,75.4,0c9.3,0,14.6,8.7,10.1,16.1c-2.5,4.1-6.4,5.3-11.1,5.2c-38-0.1-75.9,0-113.9,0
		c-11.8,0-23.6,0-35.5,0c-7.6,0-12.3-4.1-12.3-10.7c0-6.6,4.6-10.6,12.3-10.6C221,42.7,246,42.8,271,42.8z"/>
	<path class="st2" d="M260.5,278.9c-21.6,0-43.3,0.1-64.9,0c-9.2,0-14.8-7.7-11.2-15.2c2.4-5,6.7-6.4,12-6.4c22,0.1,43.9,0,65.9,0
		c21.1,0,42.3,0,63.4,0c7.4,0,11.9,3.5,12.6,9.4c0.8,7.2-4.1,12.2-12.3,12.2C304.1,278.9,282.3,278.9,260.5,278.9z"/>
	<path class="st3" d="M260.9,101.2c-22,0-44,0.1-66,0c-8.7,0-13.9-7.4-10.7-14.8c2-4.6,5.8-6.5,10.8-6.5c13.2,0.1,26.3,0,39.5,0
		c30.5,0,61,0,91.5,0c6.7,0,10.9,3,12,8.3c1.5,7.2-3.3,13-11.2,13C304.9,101.3,282.9,101.2,260.9,101.2z"/>
	<path class="st4" d="M62.9,76.2c-4-4.5-6.9-8.2-10.2-11.4c-4.5-4.4-10.6-4.3-14.7-0.1c-4.2,4.1-4.3,10.3,0,14.7
		c5.8,6,11.7,11.9,17.7,17.7c4.7,4.5,10.4,4.5,15.1-0.1c11.7-11.6,23.4-23.2,34.9-35c1.6-1.7,2.9-4.2,3.3-6.4
		c0.8-4.8-1.5-8.5-5.8-10.6s-8.5-1.4-11.9,2.1C82.1,56.2,73.1,65.6,62.9,76.2z"/>
	<path class="st3" d="M62.9,76.2c10.3-10.6,19.3-20,28.4-29.2c3.4-3.5,7.6-4.2,11.9-2.1c4.3,2.1,6.6,5.8,5.8,10.6
		c-0.4,2.3-1.7,4.8-3.3,6.4c-11.5,11.8-23.2,23.4-34.9,35c-4.7,4.6-10.4,4.7-15.1,0.1c-6-5.8-11.9-11.7-17.7-17.7
		c-4.3-4.5-4.2-10.6,0-14.7c4.2-4.1,10.2-4.3,14.7,0.1C56,68,58.9,71.6,62.9,76.2z"/>
	<path class="st2" d="M71.9,263.4c-5.1,5.6-9.2,10.3-13.5,14.6c-5.1,5.1-11.3,5.2-15.8,0.5c-4.4-4.5-4.2-10.5,0.6-15.5
		c4.1-4.3,8.4-8.6,12.5-12.9c0.1-0.1,0.1-0.3,0.5-1c-4-4-8.1-8.3-12.3-12.5c-5.4-5.6-5.9-11.5-1.3-16.3c4.7-4.9,11-4.5,16.6,1.2
		c4.1,4.1,7.9,8.5,13,14.1c4.1-4.8,7.3-8.8,10.9-12.4c7.1-7.2,12.8-8.1,18-3c5.1,5.1,4.3,11.1-2.7,18c-3.7,3.6-7.7,6.8-12.7,11.2
		c5.7,5.2,10.4,9.2,14.7,13.5c5.1,5,5.2,11.4,0.6,15.9c-4.6,4.6-10.6,4.4-15.8-0.9C81.1,273.6,77.1,269.1,71.9,263.4z"/>
</g>
</svg>
