<?xml version="1.0" encoding="utf-8"?>
<!-- Generator: Adobe Illustrator 22.0.1, SVG Export Plug-In . SVG Version: 6.00 Build 0)  -->
<svg version="1.1" id="Layer_1" xmlns="http://www.w3.org/2000/svg" xmlns:xlink="http://www.w3.org/1999/xlink" x="0px" y="0px"
	 viewBox="0 0 940 515" style="enable-background:new 0 0 940 515;" xml:space="preserve">
<style type="text/css">
	.st0{fill:url(#SVGID_1_);}
	.st1{fill:#00B39F;}
	.st2{fill:#B32700;}
	.st3{fill:#00D3A9;}
	.st4{fill:#D32A00;}
	.st5{fill:#FFFFFF;}
	.st6{fill:#BCEDC4;}
	.st7{fill:#42A7B6;}
	.st8{fill:#2A2DDE;}
	.st9{fill:#FB8143;}
</style>
<linearGradient id="SVGID_1_" gradientUnits="userSpaceOnUse" x1="699.0008" y1="654.141" x2="240.9992" y2="-139.141">
	<stop  offset="0" style="stop-color:#62ACCD"/>
	<stop  offset="0.3069" style="stop-color:#53869C"/>
	<stop  offset="0.6147" style="stop-color:#476572"/>
	<stop  offset="0.8564" style="stop-color:#3F5158"/>
	<stop  offset="1" style="stop-color:#3C494E"/>
</linearGradient>
<rect class="st0" width="940" height="515"/>
<g>
	<path class="st1" d="M571.1,257.3c0.1-39.5,32.5-71.8,72-71.8c39.4,0.1,71.9,32.6,71.8,72.1c-0.1,39.4-32.7,71.9-72.1,71.8
		C603.3,329.3,571,296.9,571.1,257.3z M643,309.5c28.8,0,52-23.4,52-52.2c0-28.7-23.5-51.9-52.3-51.8c-28.5,0.1-51.6,23.3-51.7,51.9
		C591,286.3,614.2,309.5,643,309.5z"/>
	<path class="st1" d="M643.2,151.8c-39.6,0.1-72.1-32-72.1-71.6c-0.1-39.6,32-71.9,71.6-72c39.6-0.1,72.1,32.1,72.2,71.5
		C715,119.3,682.8,151.7,643.2,151.8z M591,80.2c0.1,28.8,23.6,52.1,52.2,51.9c28.9-0.3,51.9-23.5,51.8-52.4
		c-0.1-28.4-23.4-51.5-52-51.6C614.2,28,590.9,51.3,591,80.2z"/>
	<path class="st2" d="M642.9,363.2c39.6-0.1,72,32.2,72,71.7c0.1,39.5-32.2,71.8-71.9,71.9c-39.7,0-72-32.1-72-71.7
		C571,395.4,603.2,363.2,642.9,363.2z M643.1,486.9c28.8-0.1,52-23.4,51.9-52.2c-0.1-28.5-23.4-51.6-51.9-51.8
		c-28.9-0.1-52.2,23.4-52.1,52.5C591.1,464,614.5,487,643.1,486.9z"/>
	<path class="st1" d="M841.5,72.3c-24.6,0-49.3,0-73.9,0c-7.6,0-12.3-3.6-12.8-9.8c-0.5-5.9,3.3-10.8,9.2-11.7
		c1.5-0.2,3-0.2,4.5-0.2c48.8,0,97.6,0,146.4,0c2.1,0,4.4,0.1,6.4,0.6c4.8,1.3,7.8,5.6,7.7,10.4c-0.1,4.8-3.3,8.9-8.1,10.1
		c-1.9,0.5-4,0.5-5.9,0.5C890.4,72.3,866,72.3,841.5,72.3z"/>
	<path class="st2" d="M842.1,427.2c-24.8,0-49.6,0-74.4,0c-7.9,0-12.6-3.8-12.9-10.2c-0.3-5.9,3.7-10.6,9.6-11.3
		c1.5-0.2,3-0.1,4.5-0.1c48.6,0,97.2,0,145.8,0c1.7,0,3.4-0.1,5,0.1c5.4,0.8,9.3,5.4,9.3,10.7c0,5.2-3.7,9.5-9,10.4
		c-1.8,0.3-3.6,0.3-5.5,0.3C890.4,427.2,866.2,427.2,842.1,427.2z"/>
	<path class="st1" d="M842,228.3c25.1,0,50.3-0.1,75.4,0c9.3,0,14.6,8.7,10.1,16.1c-2.5,4.1-6.4,5.3-11.1,5.2
		c-38-0.1-75.9,0-113.9,0c-11.8,0-23.6,0-35.5,0c-7.6,0-12.3-4.1-12.3-10.7c0-6.6,4.6-10.6,12.3-10.6C792,228.2,817,228.3,842,228.3
		z"/>
	<path class="st3" d="M832,87.8c21.5,0,42.9,0,64.4,0c6.8,0,11.1,2.8,12.5,7.8c1.7,6.2-2.1,12.3-8.5,13.6c-1.1,0.2-2.3,0.2-3.5,0.2
		c-43.4,0-86.9,0-130.3,0c-9.7,0-15.3-8.3-11-16c2.5-4.4,6.6-5.6,11.4-5.6C788.8,87.9,810.4,87.8,832,87.8z"/>
	<path class="st4" d="M831.5,464.4c-21.6,0-43.3,0.1-64.9,0c-9.2,0-14.8-7.7-11.2-15.2c2.4-5,6.7-6.4,12-6.4c22,0.1,43.9,0,65.9,0
		c21.1,0,42.3,0,63.4,0c7.4,0,11.9,3.5,12.6,9.4c0.8,7.2-4.1,12.2-12.3,12.2C875.1,464.4,853.3,464.4,831.5,464.4z"/>
	<path class="st3" d="M831.9,286.7c-22,0-44,0.1-66,0c-8.7,0-13.9-7.4-10.7-14.8c2-4.6,5.8-6.5,10.8-6.5c13.2,0.1,26.3,0,39.5,0
		c30.5,0,61,0,91.5,0c6.7,0,10.9,3,12,8.3c1.5,7.2-3.3,13-11.2,13C875.9,286.8,853.9,286.7,831.9,286.7z"/>
	<path class="st5" d="M633.9,261.7c-4-4.5-6.9-8.2-10.2-11.4c-4.5-4.4-10.6-4.3-14.7-0.1c-4.2,4.1-4.3,10.3,0,14.7
		c5.8,6,11.7,11.9,17.7,17.7c4.7,4.5,10.4,4.5,15.1-0.1c11.7-11.6,23.4-23.2,34.9-35c1.6-1.7,2.9-4.2,3.3-6.4
		c0.8-4.8-1.5-8.5-5.8-10.6c-4.3-2.1-8.5-1.4-11.9,2.1C653.1,241.7,644.1,251.1,633.9,261.7z"/>
	<path class="st3" d="M633.9,261.7c10.3-10.6,19.3-20,28.4-29.2c3.4-3.5,7.6-4.2,11.9-2.1c4.3,2.1,6.6,5.8,5.8,10.6
		c-0.4,2.3-1.7,4.8-3.3,6.4c-11.5,11.8-23.2,23.4-34.9,35c-4.7,4.6-10.4,4.7-15.1,0.1c-6-5.8-11.9-11.7-17.7-17.7
		c-4.3-4.5-4.2-10.6,0-14.7c4.2-4.1,10.2-4.3,14.7,0.1C627,253.5,629.9,257.1,633.9,261.7z"/>
	<path class="st3" d="M633.9,83.8c9.6-9.8,18.2-18.7,26.8-27.4c5.7-5.7,11.4-6.2,16.1-1.6c4.7,4.6,4.3,10.6-1.2,16.1
		c-11,11.1-22.1,22.1-33.2,33.2c-5.8,5.8-11.1,5.8-16.8,0.1c-5.4-5.4-10.9-10.8-16.2-16.2c-4.8-4.9-4.9-11.1-0.4-15.4
		c4.4-4.2,10.2-4,15.1,0.7C627.3,76.4,630.2,79.8,633.9,83.8z"/>
	<path class="st4" d="M642.9,448.9c-5.1,5.6-9.2,10.3-13.5,14.6c-5.1,5.1-11.3,5.2-15.8,0.5c-4.4-4.5-4.2-10.5,0.6-15.5
		c4.1-4.3,8.4-8.6,12.5-12.9c0.1-0.1,0.1-0.3,0.5-1c-4-4-8.1-8.3-12.3-12.5c-5.4-5.6-5.9-11.5-1.3-16.3c4.7-4.9,11-4.5,16.6,1.2
		c4.1,4.1,7.9,8.5,13,14.1c4.1-4.8,7.3-8.8,10.9-12.4c7.1-7.2,12.8-8.1,18-3c5.1,5.1,4.3,11.1-2.7,18c-3.7,3.6-7.7,6.8-12.7,11.2
		c5.7,5.2,10.4,9.2,14.7,13.5c5.1,5,5.2,11.4,0.6,15.9c-4.6,4.6-10.6,4.4-15.8-0.9C652.1,459.1,648.1,454.6,642.9,448.9z"/>
</g>
<path class="st6" d="M150.8,351.8l-94.2-94.2l151.5-151.5c-11.7,2-22.7-5.8-24.7-17.5c-0.4-2.1-0.4-4.3-0.1-6.4L29.8,235.7
	c11.8-1.5,22.6,6.9,24,18.7c1.5,11.8-6.9,22.6-18.7,24c-2.2,0.3-4.5,0.2-6.7-0.2l98.6,98.6v-25.1H150.8z"/>
<path class="st6" d="M311.4,127.2L203,235.6c0.6,0,1.1-0.1,1.7-0.1c11.9,0,21.5,9.6,21.5,21.5c0,1.6-0.2,3.1-0.5,4.6l110.2-110.2
	C326,145.3,317.6,137,311.4,127.2z"/>
<path class="st6" d="M355.3,257.1c0-1.2,0.1-2.4,0.3-3.6l-98.3,98.3h24.8v23.9l97.2-97.2c-11.7,1.4-22.4-6.9-23.9-18.7
	C355.3,258.9,355.3,258,355.3,257.1z"/>
<circle class="st7" cx="32.5" cy="84.9" r="21.5"/>
<path class="st7" d="M204.6,106.4c11.8-0.1,21.4-9.7,21.3-21.5c-0.1-11.8-9.7-21.4-21.5-21.3c-11.7,0.1-21.2,9.6-21.3,21.3
	C183.1,96.8,192.8,106.4,204.6,106.4z"/>
<path class="st7" d="M53.7,260.6c1.9-11.7-6-22.7-17.7-24.6c-11.7-1.9-22.7,6-24.6,17.7s6,22.7,17.7,24.6c1.1,0.2,2.2,0.3,3.4,0.3
	C43,278.6,51.9,271,53.7,260.6z"/>
<path class="st7" d="M204.6,235.5c-0.6,0-1.1,0-1.7,0.1c-11.7,1.1-20.3,11.4-19.3,23.1c1.1,11.7,11.4,20.3,23.1,19.3
	c11.7-1.1,20.3-11.4,19.3-23.1C225.1,243.9,215.7,235.4,204.6,235.5L204.6,235.5z"/>
<path class="st7" d="M376.8,235.5c-11.9,0-21.5,9.6-21.5,21.5c0,11.9,9.6,21.5,21.5,21.5c11.9,0,21.5-9.6,21.5-21.5
	C398.4,245.2,388.7,235.6,376.8,235.5C376.8,235.5,376.8,235.5,376.8,235.5z"/>
<circle class="st7" cx="376.8" cy="429.3" r="21.5"/>
<circle class="st7" cx="32.5" cy="429.3" r="21.5"/>
<path class="st8" d="M257.3,351.8H127.2v155h155v-155H257.3z M221.9,442.1c-7.1,9.4-20.5,11.3-30,4.2c-9.4-7.1-11.3-20.5-4.2-30
	c7.1-9.4,20.5-11.3,30-4.2c5.4,4,8.5,10.4,8.5,17.1C226.1,433.9,224.6,438.4,221.9,442.1L221.9,442.1z"/>
<path class="st9" d="M376.8,8.3c-42.8,0-77.5,34.7-77.5,77.5s34.7,77.5,77.5,77.5s77.5-34.7,77.5-77.5C454.3,43,419.6,8.3,376.8,8.3
	z M376.8,107.3c-11.9,0-21.5-9.6-21.5-21.5c0-11.9,9.6-21.5,21.5-21.5c11.9,0,21.5,9.6,21.5,21.5c0,0,0,0,0,0
	C398.3,97.6,388.7,107.3,376.8,107.3z"/>
</svg>
