<svg xmlns="http://www.w3.org/2000/svg" xmlns:xlink="http://www.w3.org/1999/xlink" id="Layer_1" x="0" y="0" version="1.1" viewBox="0 0 612 612" xml:space="preserve" style="enable-background:new 0 0 612 612"><style type="text/css">.st0,.st1{opacity:.8}.st1{fill:#fff;enable-background:new}</style><g class="st0"><polygon points="454.2 383.2 436.5 462.7 491.6 462.7 471.2 383.2" class="st1"/><path d="M376,0c0,1.1,0,2.2,0,3.3c0,38.8-31.4,70.2-70.2,70.2c-38.8,0-70.2-31.4-70.2-70.2c0-1.1,0-2.2,0-3.3H0v612 h612V0H376z M292.2,546.5L262.4,399h-0.8l-31.9,147.5h-41l-46.5-216.7h40.6l27.7,147.5h0.5l33.3-147.5h37.9l30.1,149.3h0.6 l31.6-149.3h39.8l-51.7,216.7H292.2z M515.5,546.5l-13.8-48.2h-72.8l-10.7,48.2h-40.8l52.5-216.7h63.9l63.5,216.7H515.5z" class="st1"/></g></svg>