<?xml version="1.0" encoding="utf-8"?>
<!-- Generator: Adobe Illustrator 22.0.1, SVG Export Plug-In . SVG Version: 6.00 Build 0)  -->
<svg version="1.1" id="Layer_1" xmlns="http://www.w3.org/2000/svg" xmlns:xlink="http://www.w3.org/1999/xlink" x="0px" y="0px"
	 viewBox="0 0 35.2 35.2" style="enable-background:new 0 0 35.2 35.2;" xml:space="preserve">
<style type="text/css">
	.st0{opacity:0.8;fill:#FFFFFF;}
</style>
<path class="st0" d="M32.6,7.7L20,2c-1.4-0.6-3.6-0.6-4.9,0L2.6,7.7c-1.5,0.7-1.5,1.8,0,2.4L15,15.8c1.4,0.6,3.7,0.6,5.2,0l12.4-5.7
	C34,9.4,34,8.3,32.6,7.7z M15,27.6l-8.4-3.8c-0.4-0.2-0.8-0.2-1.1,0l-2.9,1.3c-1.5,0.7-1.5,1.8,0,2.4L15,33.2c1.4,0.6,3.7,0.6,5.2,0
	l12.4-5.7c1.5-0.7,1.5-1.8,0-2.4l-2.9-1.3c-0.4-0.2-0.8-0.2-1.1,0l-8.4,3.8C18.7,28.2,16.4,28.2,15,27.6z"/>
<path class="st0" d="M32.6,16.4l-2.7-1.2c-0.4-0.2-0.8-0.2-1.1,0l-9,4.1c-1.3,0.4-3.1,0.4-4.3,0l-9-4.1C6,15,5.6,15,5.3,15.2
	l-2.7,1.2c-1.5,0.7-1.5,1.8,0,2.4L15,24.5c1.4,0.6,3.7,0.6,5.2,0l12.4-5.7C34,18.1,34,17,32.6,16.4z"/>
</svg>
