<svg xmlns="http://www.w3.org/2000/svg" height="40" viewBox="0 0 48 48" width="40" fill="#E8EFF3" stroke="#E8EFF3" stroke-width="2" stroke-linecap="round" stroke-linejoin="round"><path d="M16.6 20a1.4 1.4 0 0 1 -1.252 -2.158L22.8 6a1.4 1.4 0 0 1 2.396 -0.086L32.6 17.8a1.4 1.4 0 0 1 -1.144 2.2Z" stroke="#E8EFF3" fill="#E8EFF3" stroke-width="2"/><path x="3" y="14" width="7" height="7" rx="1" d="M8 28H18A2 2 0 0 1 20 30V40A2 2 0 0 1 18 42H8A2 2 0 0 1 6 40V30A2 2 0 0 1 8 28z"/><path cx="17.5" cy="17.5" r="3.5" stroke="#E8EFF3" fill="#E8EFF3" d="M42 35A7 7 0 0 1 35 42A7 7 0 0 1 28 35A7 7 0 0 1 42 35z" stroke-width="2"/></svg>