<svg version="1.1" id="Layer_1" xmlns="http://www.w3.org/2000/svg" x="0" y="0" viewBox="0 0 105 105" style="enable-background:new 0 0 105 105" xml:space="preserve"><style>.st0{fill:#fff}</style><path class="st0" d="M52.4 6.6c12 0 23.4 4.7 31.9 13.2s13.2 19.8 13.2 31.9c0 6.3-1.3 12.6-3.9 18.3-.7 1.5-2.5 2.1-3.9 1.3-1.3-.7-1.9-2.3-1.3-3.7 2.2-5 3.4-10.5 3.4-16 0-3.7-.5-7.3-1.5-10.7-.4-1.6-2.1-2.4-3.6-1.9h-.1c-1.4.5-2.1 2-1.7 3.4.5 1.9.9 3.9 1.1 6 .2 1.7-1.2 3.1-2.8 3.1-1.5 0-2.7-1.1-2.8-2.6-.6-6.2-3.1-11.8-7-16.1-1.1-1.2-3-1.2-4.1 0-.8.9-.9 2.2-.4 3.2.2.2.3.5.5.7 1 1.4 2.1 3 3 4.6.5 1.1.3 2.8-1.3 3.5-1.3.6-3 .1-3.7-1.2-.4-.8-.9-1.6-1.5-2.3-.3-.4-.5-.8-.8-1.2.8-.8 1.6-1.7 2.1-2.7 1.7-3.1 2-6.9.8-9.7-.9-2.1-2.4-3.5-4.4-4.1-.4-.1-.9-.2-1.4-.2-1.1 0-2.5.3-3.8 1.9-.3-.9-.8-1.7-1.3-2.3-1.3-1.5-3.1-2.4-5.1-2.4h-.6c-1.3.1-2.5.8-3.4 2-.5.7-.9 1.6-1.2 2.8-.5 1.8-.8 3.9-1.1 6.1v.3c-.2 1.6-.4 3.2-.7 4.6-.4 1.8-.8 2.3-.8 2.3-2.8 3.3-3.5 6.8-3.2 10.9-1.9.4-4.6 1.5-5.8 3.7-1 1.8-1.4 3.7-1.2 5.4-1.1-.1-2.3-.2-3.5-.2-4.1 0-7.6 1.1-10.6 3.4-5.1 3.9-4.8 8-4.1 10.1 1.6 5.3 8.3 8.6 16.1 10.8l1.7 3c2.1 3.6 4.5 6.7 7.3 9.3-7.6-2-14.6-6-20.3-11.7-8.5-8.3-13.2-19.6-13.3-31.5 0-12.2 4.7-23.6 13.3-32.1 8.5-8.5 19.9-13.2 31.8-13.2z"/><path class="st0" d="M36.7 74.5c-.2 0-.4-.1-.6-.1-13.7-2.8-9.6-7.5-2.9-7.2.5 0 1.1.1 1.6.2l3.3-3.2s-4-1.5-7.8-1.5c-2.6 0-5.5.6-8.1 2.6-7.7 6.3.7 13.6 24.3 16.5-.6-1-1-2.1-1.2-3.3-.6.2-1.1.2-1.4.3-.3 0-.7.1-1 .1-2.5 0-4.5-1.3-5.8-3.4-.1-.5-.3-.7-.4-1z"/><path class="st0" d="M62.6 87.9c5.2-1.7 4.8-4-5.6-5.2.5-.7.8-1.5 1.1-2.4v-.2c.1-.6.2-1.3.2-1.8.5 0 1.1 0 1.6-.1.7-.2 1.4-.5 2-.9 2.8.3 5.8.7 8.8 1.1 24.5 3.4 10 21.3-8.4 21.3-8.8 0-18.6-4.1-25.4-15.9L48 84.9s6.3 3.4 11.6 3.4c1 0 2-.1 3-.4z"/><path d="M55.8 32.7c1-5.3-.6-9.1-3.9-9.1h-.4c-2 .2-2.5 4.2-3 8.4-.5 3.5-.9 7.1-2.3 8.7-3.4 4-3.6 9.5-1.4 12.3 1.5 1.9 5.7 4.4 9.5 4.4 3.6 0 7-1.2 8.2-4.4 2-7.3-6.4-11-6.4-11s5.3-.3 8.4-5.9c2.2-4 1.2-8.7-1.8-9.6-.2-.1-.4-.1-.6-.1-1.8 0-2.6 2.6-3.4 5.1-.3 1.1-.7 2.1-1.1 2.9-2.7 5.6-5.2 5.9-5.7 5.9h-.1c.1.1 3.1-2.1 4-7.6zM53.6 47c0 1-.9 1.9-1.9 1.9-1.1 0-1.9-.9-1.9-2 0-1 .9-1.9 1.9-1.9 1 0 1.9.9 1.9 2z" style="fill-rule:evenodd;clip-rule:evenodd;fill:#fff"/><path class="st0" d="M43.2 54.8c-.5-.6-1.2-1.5-1.7-2.4-1.1 0-3.1 1-4 2.6-2 3.4-.2 6.4 1.8 6.4.2 0 .4 0 .7-.1 1.6-.5 1.4-1.6 1.2-2.6-.2-.7-.3-1.4.3-1.8.2-.1.4-.2.5-.2.2 0 .4.1.6.1.2.1.3.1.5.1.4 0 .7-.3 1-.7.1-.2-.3-.7-.9-1.4zm2.9 2.6c.4 0 1 .3 1.6.6.8.4 1.7.9 2.9 1.2 1.4.3 2.9.4 3.7.4 1 0 1.8-.1 2.7-.3.6-.1 1.2-.2 2.1-.3.3 0 .6-.1.9-.1 2.7 0 4.2 1.4 6.3 4.8 2.4 3.9 3 7.7.6 8.2-.3.1-.6.1-.8.1-2 0-2.5-1.8-3.4-5-.8-2.6-2-3.7-2.7-3.7-.2 0-.3.1-.4.2-.3.5 0 1 .5 1.9.5.8 1.2 1.8 1.6 3.4.8 2.9.2 6-2.4 6.6-.3.1-.7.1-.9.1-.9 0-1.5-.4-1.9-.7-.3-.2-.5-.4-.8-.4-.4 0-.4.8-.3 1.8.2 2.2.5 5.6-3.3 5.8-3.3 0-4.9-4.3-3.2-8.4 1-2.6 3.2-3.2 4.7-3.6 1-.3 1.7-.5 1.8-1 .3-1.3-.8-1.6-2.8-2.1-.6-.1-1.2-.3-1.8-.5-4.4-1.3-6.8-5.8-5.8-7.6.2-.7.6-1.4 1.1-1.4z"/><path class="st0" d="M46.1 66.6c-.3-.3-.9-.4-1.6-.4-1.6 0-3.9 1.4-4.8 2.9-1.3 2.9-.4 6.6 3.2 6.6h.6c2.4-.3 2.4-1.4 2.3-2.5 0-.7 0-1.4.5-2 .3-.3.8-.5 1.3-.6.7-.2 1.5-.4 1.8-1.2.2-.7-.4-1-1.3-1.4-.6-.4-1.4-.8-2-1.4z"/></svg>