<svg xmlns="http://www.w3.org/2000/svg" role="img" viewBox="-3.29 29.96 366.08 298.83"><defs><style>.cls-2{fill:#ff3800}.cls-3{fill:#0089dd}</style></defs><path fill="#033" d="M310.09477 46.10888c-.288-.12246-.5759-.24165-.86379-.36134.25608.123.50869.25088.76242.37713z"/><path d="M157.253 157.752a37.86056 37.86056 0 0 1 7.01722 3.38756c8.25268 5.05721 15.24453 13.3115 20.17686 22.95071a50.719 50.719 0 0 0 9.933 12.963q1.47.97914 2.994 1.81762a36.86961 36.86961 0 0 0 5.74648 2.563 32.90416 32.90416 0 0 0 6.04873 1.47329 31.37417 31.37417 0 0 0 4.17473.31945h.00025c15.83429-5.28309 14.62234-35.9031 4.96711-52.73659-12.69068-22.126-31.54581-35.88973-56.58259-40.67069-25.19521-4.81122-47.92518 1.15526-67.81217 17.31018-17.11146 13.898-34.9627 26.98231-50.98883 42.12176-10.12321 9.56192-19.69825 19.83575-26.18338 31.17011C5.17876 220.64.05063 237.55884 7.441 261.65924c0 0 9.04357 22.20909 18.27156 31.56914 8.49676 8.61625 16.39 16.46316 27.47281 21.17734 26.83477 11.41357 52.9554 9.76218 77.99664-5.45871a67.83044 67.83044 0 0 0 8.09847-5.89816c7.5868-6.32443 43.62172-31.89292 37.593-44.45475-2.944-6.13265-19.30243-21.19524-26.09414-21.17271-6.947.02327-34.95725 25.89073-43.06117 29.93724-16.57567 8.27465-36.14816 8.381-47.57417-5.9564-11.8134-14.8234-9.92369-36.18009 4.44468-48.18756 19.6324-16.40809 38.66377-33.58627 59.081-49.00754 9.90624-7.482 19.69441-9.533 28.64057-7.81188l.00013-.00006a33.36484 33.36484 0 0 1 4.94262 1.35681zM44.854 182.23579c-2.23738 2.07672-4.41782 4.19429-6.50729 6.36341l-.50746.03174q3.45873-3.25163 7.01475-6.39515c2.74681-2.54854 5.58013-5.03419 8.45517-7.4623l.25521-.00148q-4.41413 3.6648-8.71038 7.46378z" class="cls-2"/><path d="M38.34669 188.5992c2.08947-2.16912 4.26991-4.28669 6.50729-6.36341q-3.556 3.14349-7.01475 6.39515zm6.50731-6.36341q4.29639-3.79895 8.71038-7.46378l-.25521.00148c-2.87506 2.42811-5.70838 4.91376-8.45517 7.4623z" class="cls-2"/><path d="M352.55887 97.39378s-7.05237-20.54538-17.3512-31.5692c-7.454-7.97872-15.59728-14.91432-25.21427-19.69991-.25373-.12625-.50634-.25416-.76242-.37713-.79484-.38152-1.59761-.752-2.41634-1.10025-26.83478-11.41356-52.95529-9.76223-77.99677 5.45872a67.84285 67.84285 0 0 0-8.09847 5.89816c-7.58668 6.32436-43.6216 31.89292-37.593 44.45475 2.94409 6.13264 19.30242 21.19517 26.09414 21.17265 6.94716-.02327 34.95738-25.89067 43.06129-29.93718 16.57555-8.27472 36.14829-8.381 47.57417 5.95633 11.81328 14.82347 9.92381 36.1801-4.4448 48.18763-19.63228 16.408-38.66378 33.5862-59.081 49.00742-7.8565 5.934-15.63886 8.45059-22.98593 8.38091l-.00025.00006a31.37419 31.37419 0 0 1-4.17473-.31951 32.90416 32.90416 0 0 1-6.04873-1.47329 36.86929 36.86929 0 0 1-5.74648-2.563q-1.525-.83888-2.994-1.81768a50.719 50.719 0 0 1-9.933-12.963c-4.93233-9.63921-11.92418-17.8935-20.17686-22.95071a37.86056 37.86056 0 0 0-7.01722-3.38755 33.372 33.372 0 0 0-4.9426-1.35676h-.00013a44.74414 44.74414 0 0 0-7.34063 53.62926c12.68907 22.126 30.541 34.81629 55.57759 39.59805l1.54637.254c23.67507 3.5278 45.114-2.61969 63.98968-17.95315 17.11159-13.898 34.96282-26.98231 50.989-42.12177 10.12321-9.56185 19.69824-19.83575 26.18338-31.1701 11.56572-20.21847 16.69372-37.13735 9.30321-61.23775z" class="cls-3"/><path d="M164.27024 161.13957a37.86056 37.86056 0 0 0-7.01724-3.38757 37.86056 37.86056 0 0 1 7.01724 3.38757zm44.89902 41.76766a31.37419 31.37419 0 0 0 4.17473.31951l.00025-.00006h-.00024a31.37417 31.37417 0 0 1-4.17474-.31945zM157.253 157.752a33.36484 33.36484 0 0 0-4.9426-1.35682l-.00013.00006h.00013a33.372 33.372 0 0 1 4.9426 1.35676zm37.12707 39.30131q1.46889.97887 2.994 1.81768a36.86929 36.86929 0 0 0 5.74648 2.563 36.86961 36.86961 0 0 1-5.74648-2.563q-1.52387-.83857-2.994-1.81768z" class="cls-3"/></svg>