<svg width="150" height="134" viewBox="0 0 150 134" fill="none" xmlns="http://www.w3.org/2000/svg">
<g clip-path="url(#clip0_10811_33976)">
<path d="M96.8163 8.97016C96.055 6.15341 94.2235 3.74758 91.7142 2.26805C90.4646 1.54347 89.0844 1.0736 87.6531 0.88545C86.2217 0.697305 84.7673 0.794594 83.3736 1.17173C81.9798 1.54886 80.6742 2.19839 79.5317 3.08301C78.3892 3.96762 77.4323 5.06986 76.7161 6.32638L75.0431 9.27901L73.3733 6.32638C71.9011 3.80343 69.4971 1.96306 66.6815 1.20354C63.866 0.444021 60.8653 0.826446 58.3289 2.26805C55.8083 3.7407 53.972 6.15393 53.2214 8.98007C52.4709 11.8062 52.8672 14.8153 54.3236 17.3493L62.3742 31.328L32.6398 82.8323H10.996C8.07966 82.8323 5.28279 83.9936 3.22065 86.0609C1.1585 88.1281 0 90.9318 0 93.8553C0 96.7787 1.1585 99.5825 3.22065 101.65C5.28279 103.717 8.07966 104.878 10.996 104.878H94.5303L81.8182 82.8323H58.0208L95.7164 17.3555C96.4576 16.1057 96.9373 14.7178 97.1264 13.2762C97.3155 11.8346 97.21 10.3696 96.8163 8.97016Z" fill="white"/>
<path opacity="0.8" d="M139.001 82.8322H117.36L92.7707 40.1456L80.0586 62.1946L118.238 128.471C118.951 129.733 119.912 130.837 121.061 131.718C122.21 132.599 123.525 133.239 124.927 133.598C125.857 133.86 126.819 133.993 127.786 133.994C129.719 133.997 131.617 133.48 133.282 132.496C135.799 131.031 137.634 128.625 138.385 125.806C139.136 122.988 138.741 119.985 137.288 117.458L130.072 104.875H139.007C141.923 104.875 144.72 103.714 146.782 101.646C148.844 99.5792 150.003 96.7755 150.003 93.852C150.003 90.9286 148.844 88.1248 146.782 86.0576C144.72 83.9904 141.923 82.8291 139.007 82.8291L139.001 82.8322Z" fill="white"/>
<path d="M14.8693 113.699L12.7126 117.445C11.9898 118.698 11.521 120.082 11.3333 121.517C11.1455 122.952 11.2426 124.41 11.6188 125.808C11.995 127.205 12.6429 128.514 13.5254 129.66C14.4079 130.806 15.5075 131.765 16.761 132.483C18.4293 133.455 20.3282 133.958 22.2575 133.938C24.1915 133.939 26.0918 133.431 27.7681 132.464C29.4444 131.497 30.8377 130.105 31.8085 128.428L40.2534 113.699H14.8693Z" fill="white"/>
</g>
<defs>
<clipPath id="clip0_10811_33976">
<rect width="150" height="133.19" fill="white" transform="translate(0 0.791626)"/>
</clipPath>
</defs>
</svg>
