<svg width="150" height="134" viewBox="0 0 150 134" fill="none" xmlns="http://www.w3.org/2000/svg">
<g clip-path="url(#clip0_10811_33976)">
<path d="M96.8163 8.58368C96.055 5.76694 94.2235 3.3611 91.7142 1.88158C90.4646 1.15699 89.0844 0.687121 87.6531 0.498976C86.2217 0.31083 84.7673 0.408119 83.3736 0.78525C81.9798 1.16238 80.6742 1.81192 79.5317 2.69653C78.3892 3.58114 77.4323 4.68338 76.7161 5.9399L75.0431 8.89254L73.3733 5.9399C71.9011 3.41695 69.4971 1.57658 66.6815 0.817065C63.866 0.057546 60.8653 0.439971 58.3289 1.88158C55.8083 3.35422 53.972 5.76746 53.2214 8.59359C52.4709 11.4197 52.8672 14.4288 54.3236 16.9629L62.3742 30.9415L32.6398 82.4458H10.996C8.07966 82.4458 5.28279 83.6072 3.22065 85.6744C1.1585 87.7416 0 90.5453 0 93.4688C0 96.3923 1.1585 99.196 3.22065 101.263C5.28279 103.33 8.07966 104.492 10.996 104.492H94.5303L81.8182 82.4458H58.0208L95.7164 16.969C96.4576 15.7192 96.9373 14.3313 97.1264 12.8897C97.3155 11.4482 97.21 9.98308 96.8163 8.58368Z" fill="white"/>
<path opacity="0.8" d="M139.001 82.4457H117.36L92.7707 39.7592L80.0586 61.8081L118.238 128.085C118.951 129.347 119.912 130.451 121.061 131.332C122.21 132.213 123.525 132.852 124.927 133.212C125.857 133.473 126.819 133.606 127.786 133.607C129.719 133.611 131.617 133.093 133.282 132.109C135.799 130.644 137.634 128.239 138.385 125.42C139.136 122.601 138.741 119.599 137.288 117.071L130.072 104.489H139.007C141.923 104.489 144.72 103.327 146.782 101.26C148.844 99.1927 150.003 96.389 150.003 93.4656C150.003 90.5421 148.844 87.7384 146.782 85.6712C144.72 83.6039 141.923 82.4426 139.007 82.4426L139.001 82.4457Z" fill="white"/>
<path d="M14.8693 113.312L12.7126 117.059C11.9898 118.312 11.521 119.695 11.3333 121.131C11.1455 122.566 11.2426 124.024 11.6188 125.421C11.995 126.819 12.6429 128.128 13.5254 129.273C14.4079 130.419 15.5075 131.379 16.761 132.097C18.4293 133.068 20.3282 133.571 22.2575 133.551C24.1915 133.553 26.0918 133.044 27.7681 132.077C29.4444 131.11 30.8377 129.718 31.8085 128.042L40.2534 113.312H14.8693Z" fill="white"/>
</g>
<defs>
<clipPath id="clip0_10811_33976">
<rect width="150" height="133.19" fill="white" transform="translate(0 0.405151)"/>
</clipPath>
</defs>
</svg>
