<svg width="150" height="151" viewBox="0 0 150 151" fill="none" xmlns="http://www.w3.org/2000/svg">
<g clip-path="url(#clip0_11050_34254)">
<path d="M120.938 63.5852C118.838 52.9459 113.11 43.3656 104.732 36.4805C96.3533 29.5954 85.8444 25.8328 75 25.8352C56.9375 25.8352 41.25 36.0852 33.4375 51.0852C24.2515 52.0779 15.7563 56.4303 9.5843 63.306C3.41232 70.1817 -0.00107314 79.0957 2.5308e-07 88.3352C2.5308e-07 109.023 16.8125 125.835 37.5 125.835H118.75C136 125.835 150 111.835 150 94.5852C150 78.0852 137.188 64.7102 120.938 63.5852Z" fill="#FBFBFB"/>
<rect x="52" y="59.6647" width="20.4718" height="20.9074" rx="3" fill="#CCCCCC"/>
<rect x="52" y="84.9277" width="20.4718" height="20.9074" rx="3" fill="#CCCCCC"/>
<rect x="73.7405" y="66.9153" width="20.4718" height="20.9074" rx="3" transform="rotate(-45 73.7405 66.9153)" fill="#CCCCCC"/>
<rect x="77.6987" y="84.9277" width="20.4718" height="20.9074" rx="3" fill="#CCCCCC"/>
</g>
<defs>
<clipPath id="clip0_11050_34254">
<rect width="150" height="150" fill="white" transform="translate(0 0.835205)"/>
</clipPath>
</defs>
</svg>
