<svg width="150" height="151" viewBox="0 0 150 151" fill="none" xmlns="http://www.w3.org/2000/svg">
<path opacity="0.8" d="M75 84.7198C78.9861 84.7198 83.9678 84.3047 89.945 83.4746C95.9261 82.6483 101.687 81.3096 107.229 79.4583C112.771 77.607 117.535 75.1964 121.521 72.2266C125.507 69.2528 127.5 65.6224 127.5 61.3352V75.9506C127.5 80.2378 125.507 83.8682 121.521 86.842C117.535 89.8118 112.771 92.2224 107.229 94.0737C101.687 95.9249 95.9261 97.2637 89.945 98.09C83.9678 98.9201 78.9861 99.3352 75 99.3352C71.0139 99.3352 66.0322 98.9201 60.055 98.09C54.0739 97.2637 48.3125 95.9249 42.7708 94.0737C37.2292 92.2224 32.4653 89.8118 28.4792 86.842C24.4931 83.8682 22.5 80.2378 22.5 75.9506V61.3352C22.5 65.6224 24.4931 69.2528 28.4792 72.2266C32.4653 75.1964 37.2292 77.607 42.7708 79.4583C48.3125 81.3096 54.0739 82.6483 60.055 83.4746C66.0322 84.3047 71.0139 84.7198 75 84.7198Z" fill="#CCCCCC"/>
<path d="M75 70.0019C89.5833 70.0019 101.979 67.7172 112.188 63.1477C122.396 58.5783 127.5 53.0852 127.5 46.6685C127.5 40.2519 122.396 34.7588 112.188 30.1894C101.979 25.6199 89.5833 23.3352 75 23.3352C60.4167 23.3352 48.0208 25.6199 37.8125 30.1894C27.6042 34.7588 22.5 40.2519 22.5 46.6685C22.5 53.0852 27.6042 58.5783 37.8125 63.1477C48.0208 67.7172 60.4167 70.0019 75 70.0019ZM75 113.752C78.9861 113.752 83.9678 113.34 89.945 112.515C95.9261 111.687 101.688 110.349 107.229 108.502C112.771 106.655 117.535 104.249 121.521 101.286C125.507 98.3188 127.5 94.6963 127.5 90.4185V105.002C127.5 109.28 125.507 112.902 121.521 115.869C117.535 118.833 112.771 121.238 107.229 123.085C101.688 124.932 95.9261 126.27 89.945 127.099C83.9678 127.923 78.9861 128.335 75 128.335C71.0139 128.335 66.0322 127.923 60.055 127.099C54.0739 126.27 48.3125 124.932 42.7708 123.085C37.2292 121.238 32.4653 118.833 28.4792 115.869C24.4931 112.902 22.5 109.28 22.5 105.002V90.4185C22.5 94.6963 24.4931 98.3188 28.4792 101.286C32.4653 104.249 37.2292 106.655 42.7708 108.502C48.3125 110.349 54.0739 111.687 60.055 112.515C66.0322 113.34 71.0139 113.752 75 113.752Z" fill="#FBFBFB"/>
</svg>
