<svg width="150" height="151" viewBox="0 0 150 151" fill="none" xmlns="http://www.w3.org/2000/svg">
<g opacity="0.8">
<line x1="59.75" y1="36.5" x2="59.75" y2="11.5" stroke="#FBFBFB" stroke-width="5" stroke-linecap="round"/>
<line x1="70" y1="36.5" x2="70" y2="11.5" stroke="#FBFBFB" stroke-width="5" stroke-linecap="round"/>
<line x1="80.25" y1="36.5" x2="80.25" y2="11.5" stroke="#FBFBFB" stroke-width="5" stroke-linecap="round"/>
<line x1="90.5" y1="36.5" x2="90.5" y2="11.5" stroke="#FBFBFB" stroke-width="5" stroke-linecap="round"/>
<line x1="59.75" y1="136.5" x2="59.75" y2="111.5" stroke="#FBFBFB" stroke-width="5" stroke-linecap="round"/>
<line x1="70" y1="136.5" x2="70" y2="111.5" stroke="#FBFBFB" stroke-width="5" stroke-linecap="round"/>
<line x1="80.25" y1="136.5" x2="80.25" y2="111.5" stroke="#FBFBFB" stroke-width="5" stroke-linecap="round"/>
<line x1="90.5" y1="136.5" x2="90.5" y2="111.5" stroke="#FBFBFB" stroke-width="5" stroke-linecap="round"/>
</g>
<g opacity="0.8">
<line x1="12.5" y1="60.75" x2="37.5" y2="60.75" stroke="#FBFBFB" stroke-width="5" stroke-linecap="round"/>
<line x1="12.5" y1="71" x2="37.5" y2="71" stroke="#FBFBFB" stroke-width="5" stroke-linecap="round"/>
<line x1="12.5" y1="81.25" x2="37.5" y2="81.25" stroke="#FBFBFB" stroke-width="5" stroke-linecap="round"/>
<line x1="12.5" y1="91.5" x2="37.5" y2="91.5" stroke="#FBFBFB" stroke-width="5" stroke-linecap="round"/>
</g>
<g opacity="0.8">
<line x1="112.5" y1="60.75" x2="137.5" y2="60.75" stroke="#FBFBFB" stroke-width="5" stroke-linecap="round"/>
<line x1="112.5" y1="71" x2="137.5" y2="71" stroke="#FBFBFB" stroke-width="5" stroke-linecap="round"/>
<line x1="112.5" y1="81.25" x2="137.5" y2="81.25" stroke="#FBFBFB" stroke-width="5" stroke-linecap="round"/>
<line x1="112.5" y1="91.5" x2="137.5" y2="91.5" stroke="#FBFBFB" stroke-width="5" stroke-linecap="round"/>
</g>
<rect x="30" y="30.8533" width="90" height="90" rx="10" fill="#FBFBFB"/>
<path d="M60.9666 51.2618C63.2893 49.4528 66.3266 48.4534 69.3444 48.4534C71.1507 48.4534 72.6107 49.0731 73.719 50.0586C74.0177 50.3238 74.2829 50.6113 74.5202 50.9072C74.7575 50.6113 75.0227 50.3238 75.3214 50.0586C76.4297 49.0731 77.8897 48.4534 79.6959 48.4534C82.7137 48.4534 85.7539 49.4528 88.071 51.2618C89.88 52.666 91.2953 54.6062 91.8509 56.9484C93.0234 57.1438 94.0647 57.7412 94.9077 58.5313C96.2478 59.7903 97.2053 61.6105 97.8055 63.4837C98.4169 65.3848 98.7212 67.5204 98.629 69.5723C98.5816 70.622 98.428 71.694 98.1349 72.7185L98.3164 72.8023C99.3493 73.288 100.187 74.0501 100.815 75.0635C102.001 76.9758 102.42 79.7284 102.42 83.2375C102.42 87.2715 100.876 90.0101 98.8943 91.7102C97.8619 92.5956 96.6535 93.2522 95.3488 93.6365C94.8755 95.818 93.9027 97.8601 92.5069 99.6023C90.4885 102.126 87.3507 104.259 83.1353 104.259C79.7574 104.259 77.0969 102.388 75.3884 100.602C75.0854 100.282 74.7967 99.9498 74.523 99.6051C74.2483 99.9489 73.9587 100.281 73.6548 100.599C71.9463 102.391 69.2858 104.259 65.9079 104.259C61.6897 104.259 58.5518 102.126 56.5363 99.6023C55.1384 97.8607 54.1637 95.8186 53.6888 93.6365C52.3851 93.2519 51.1777 92.5954 50.1461 91.7102C48.164 90.0073 46.623 87.2715 46.623 83.2375C46.623 79.7284 47.0418 76.9758 48.2255 75.0635C48.8535 74.0224 49.7902 73.2028 50.9055 72.7185C50.6186 71.6926 50.4528 70.6367 50.4113 69.5723C50.3192 67.5204 50.6235 65.3848 51.2349 63.4837C51.8351 61.6133 52.7898 59.7903 54.1326 58.5313C54.9725 57.7127 56.0363 57.1618 57.1895 56.9484C57.7478 54.6034 59.1604 52.666 60.9666 51.2618ZM63.5406 54.5643C62.0163 55.7508 61.123 57.3309 61.123 59.151C61.1227 59.4826 61.0437 59.8094 60.8925 60.1045C60.7412 60.3995 60.5221 60.6545 60.253 60.8483C59.984 61.0421 59.6727 61.1692 59.345 61.2192C59.0172 61.2692 58.6822 61.2407 58.3676 61.1359C57.9851 61.0075 57.5803 61.0382 56.9997 61.5854C56.352 62.1911 55.696 63.2883 55.2214 64.7623C54.7466 66.2554 54.5351 67.8197 54.5961 69.3853C54.6658 70.9374 55.0343 72.2272 55.615 73.0982C55.7111 73.2425 55.7889 73.3982 55.8467 73.5616H58.8673C60.8772 73.5612 62.8128 74.3215 64.2851 75.6897C65.7574 77.0579 66.6573 78.9326 66.804 80.9372C68.0066 81.417 69.0051 82.3 69.6285 83.4348C70.2518 84.5697 70.4614 85.8859 70.2213 87.1583C69.9812 88.4306 69.3064 89.58 68.3123 90.4096C67.3182 91.2392 66.0666 91.6975 64.7719 91.7061C63.4771 91.7147 62.2196 91.273 61.2146 90.4567C60.2095 89.6403 59.5195 88.5 59.2625 87.231C59.0056 85.9619 59.1977 84.643 59.8059 83.5C60.4142 82.357 61.4008 81.4609 62.597 80.9651C62.4644 80.0708 62.0147 79.254 61.3301 78.6636C60.6454 78.0733 59.7714 77.7487 58.8673 77.7491H51.5392C51.1204 78.7206 50.8106 80.3984 50.8106 83.2375C50.8106 86.0878 51.8463 87.6511 52.8736 88.5333C53.9986 89.4964 55.2353 89.7477 55.5927 89.7477C56.148 89.7477 56.6805 89.9683 57.0732 90.3609C57.4658 90.7536 57.6864 91.2861 57.6864 91.8414C57.6864 93.0139 58.3341 95.144 59.8081 96.9865C61.2263 98.7648 63.2474 100.071 65.9079 100.071C67.6862 100.071 69.3221 99.0718 70.6258 97.7095C71.2567 97.0451 71.7481 96.3556 72.0719 95.7972C72.1944 95.5884 72.3017 95.371 72.3929 95.1468L72.4097 95.1077V68.6762H69.9084C69.4225 69.8773 68.5339 70.8721 67.395 71.49C66.2561 72.1079 64.9378 72.3105 63.666 72.063C62.3941 71.8155 61.2479 71.1333 60.4238 70.1334C59.5998 69.1335 59.1491 67.8781 59.1491 66.5824C59.1491 65.2867 59.5998 64.0313 60.4238 63.0315C61.2479 62.0316 62.3941 61.3494 63.666 61.1019C64.9378 60.8544 66.2561 61.057 67.395 61.6749C68.5339 62.2928 69.4225 63.2875 69.9084 64.4887H72.4097V57.4034L72.4013 57.2443C72.3536 56.3845 72.1844 55.5358 71.8988 54.7234C71.6476 54.0534 71.3209 53.5314 70.9357 53.188C70.5923 52.8809 70.1177 52.6409 69.3444 52.6409C67.206 52.6409 65.0871 53.3611 63.5378 54.5671L63.5406 54.5643ZM76.6335 90.3116V95.1077L76.6474 95.1468C76.7033 95.2947 76.8094 95.5153 76.9713 95.7972C77.2923 96.3556 77.7837 97.0451 78.4174 97.7095C79.7183 99.0718 81.357 100.071 83.1353 100.071C85.793 100.071 87.8141 98.7648 89.2351 96.9865C90.7063 95.144 91.3568 93.0111 91.3568 91.8414C91.3568 91.2861 91.5773 90.7536 91.97 90.3609C92.3626 89.9683 92.8952 89.7477 93.4505 89.7477C93.8078 89.7477 95.0417 89.4964 96.1696 88.5333C97.1941 87.6511 98.2298 86.0878 98.2298 83.2375C98.2298 79.8652 97.7888 78.1288 97.2555 77.2717C97.0887 76.9753 96.8355 76.7368 96.5297 76.5878C96.2478 76.4538 95.8234 76.3533 95.1674 76.3533C94.7884 76.3532 94.4166 76.2504 94.0915 76.0556C93.7664 75.8609 93.5003 75.5816 93.3215 75.2474C93.1427 74.9133 93.0579 74.537 93.0762 74.1584C93.0945 73.7799 93.2152 73.4135 93.4254 73.0982C94.006 72.2244 94.3745 70.9374 94.4471 69.3853C94.5072 67.8195 94.2946 66.2552 93.819 64.7623C93.3444 63.2883 92.6884 62.1939 92.0435 61.5854C91.46 61.0382 91.0553 61.0075 90.6756 61.1359C90.3608 61.2412 90.0255 61.2702 89.6974 61.2205C89.3692 61.1707 89.0576 61.0437 88.7882 60.8498C88.5188 60.6559 88.2993 60.4008 88.1479 60.1054C87.9965 59.8101 87.9175 59.4829 87.9174 59.151C87.9174 57.3309 87.0241 55.7508 85.4998 54.5643C83.956 53.3611 81.8344 52.6381 79.6932 52.6381C78.9227 52.6381 78.4509 52.8809 78.1047 53.1852C77.6676 53.6139 77.3385 54.1401 77.1444 54.7206C76.8313 55.5817 76.6588 56.4876 76.6335 57.4034V86.1241H78.409C79.4085 86.1241 80.3671 85.727 81.0739 85.0203C81.7807 84.3135 82.1777 83.3549 82.1777 82.3553V77.3443C80.9766 76.8584 79.9818 75.9699 79.3639 74.831C78.746 73.6921 78.5435 72.3738 78.791 71.1019C79.0385 69.8301 79.7206 68.6839 80.7205 67.8598C81.7204 67.0357 82.9758 66.5851 84.2715 66.5851C85.5672 66.5851 86.8226 67.0357 87.8225 67.8598C88.8224 68.6839 89.5045 69.8301 89.752 71.1019C89.9995 72.3738 89.797 73.6921 89.1791 74.831C88.5612 75.9699 87.5664 76.8584 86.3652 77.3443V82.3553C86.3652 84.4655 85.527 86.4892 84.0349 87.9813C82.5428 89.4734 80.5191 90.3116 78.409 90.3116H76.6335ZM64.7298 65.1866C64.3596 65.1866 64.0046 65.3337 63.7428 65.5954C63.481 65.8572 63.334 66.2122 63.334 66.5824C63.334 66.9526 63.481 67.3077 63.7428 67.5694C64.0046 67.8312 64.3596 67.9783 64.7298 67.9783C65.1 67.9783 65.455 67.8312 65.7168 67.5694C65.9786 67.3077 66.1256 66.9526 66.1256 66.5824C66.1256 66.2122 65.9786 65.8572 65.7168 65.5954C65.455 65.3337 65.1 65.1866 64.7298 65.1866ZM63.334 86.1241C63.334 86.4943 63.481 86.8493 63.7428 87.1111C64.0046 87.3729 64.3596 87.5199 64.7298 87.5199C65.1 87.5199 65.455 87.3729 65.7168 87.1111C65.9786 86.8493 66.1256 86.4943 66.1256 86.1241C66.1256 85.7539 65.9786 85.3989 65.7168 85.1371C65.455 84.8753 65.1 84.7283 64.7298 84.7283C64.3596 84.7283 64.0046 84.8753 63.7428 85.1371C63.481 85.3989 63.334 85.7539 63.334 86.1241ZM82.8757 72.1658C82.8757 72.536 83.0227 72.891 83.2845 73.1528C83.5463 73.4145 83.9013 73.5616 84.2715 73.5616C84.6417 73.5616 84.9967 73.4145 85.2585 73.1528C85.5203 72.891 85.6673 72.536 85.6673 72.1658C85.6673 71.7956 85.5203 71.4405 85.2585 71.1788C84.9967 70.917 84.6417 70.7699 84.2715 70.7699C83.9013 70.7699 83.5463 70.917 83.2845 71.1788C83.0227 71.4405 82.8757 71.7956 82.8757 72.1658Z" fill="#CCCCCC"/>
</svg>
