<svg width="150" height="151" viewBox="0 0 150 151" fill="none" xmlns="http://www.w3.org/2000/svg">
<g clip-path="url(#clip0_10968_33979)">
<path opacity="0.2" d="M46.2756 42.4227H54.8137V73.7289H46.2756V42.4227Z" fill="#CCCCCC"/>
<path d="M44.8531 42.4227V49.5377H37.738C37.3606 49.5377 36.9987 49.6877 36.7318 49.9545C36.4649 50.2214 36.315 50.5834 36.315 50.9608V72.306H34.892C34.5146 72.306 34.1527 72.4559 33.8858 72.7227C33.6189 72.9896 33.469 73.3516 33.469 73.729C33.469 74.1064 33.6189 74.4683 33.8858 74.7352C34.1527 75.0021 34.5146 75.152 34.892 75.152H66.1983C66.5757 75.152 66.9376 75.0021 67.2045 74.7352C67.4714 74.4683 67.6213 74.1064 67.6213 73.729C67.6213 73.3516 67.4714 72.9896 67.2045 72.7227C66.9376 72.4559 66.5757 72.306 66.1983 72.306H64.7753V56.6528C64.7753 56.2754 64.6254 55.9135 64.3585 55.6466C64.0916 55.3797 63.7297 55.2298 63.3523 55.2298H56.2372V42.4227C56.2372 42.0453 56.0873 41.6833 55.8204 41.4165C55.5535 41.1496 55.1916 40.9997 54.8142 40.9997H46.2761C45.8987 40.9997 45.5368 41.1496 45.2699 41.4165C45.003 41.6833 44.8531 42.0453 44.8531 42.4227ZM39.161 52.3838H44.8531V72.306H39.161V52.3838ZM61.9292 58.0758V72.306H56.2372V58.0758H61.9292ZM53.3912 43.8457V72.306H47.6991V43.8457H53.3912Z" fill="#CCCCCC"/>
<path d="M92.7101 13.9449H92.1479V24.0641H102.267V23.5019C102.267 20.9672 101.26 18.5364 99.468 16.7441C97.6757 14.9518 95.2448 13.9449 92.7101 13.9449Z" fill="#CCCCCC"/>
<path d="M101.227 23.783H92.428V14.9838C91.1626 15.2843 90.0003 15.9171 89.0611 16.8168C88.1218 17.7165 87.4398 18.8506 87.0852 20.1019C86.7306 21.3533 86.7164 22.6766 87.044 23.9353C87.3716 25.1939 88.0292 26.3424 88.9489 27.2621C89.8686 28.1817 91.017 28.8393 92.2757 29.167C93.5344 29.4946 94.8577 29.4804 96.1091 29.1258C97.3604 28.7712 98.4945 28.0891 99.3942 27.1499C100.294 26.2107 100.927 25.0484 101.227 23.783Z" fill="#FBFBFB"/>
<path d="M99.4553 63.1706C97.4331 63.1706 95.4938 62.3673 94.0639 60.9374C92.634 59.5075 91.8307 57.5682 91.8307 55.5461C91.8307 53.5239 92.634 51.5846 94.0639 50.1547C95.4938 48.7248 97.4331 47.9215 99.4553 47.9215C101.477 47.9215 103.417 48.7248 104.847 50.1547C106.276 51.5846 107.08 53.5239 107.08 55.5461C107.08 57.5682 106.276 59.5075 104.847 60.9374C103.417 62.3673 101.477 63.1706 99.4553 63.1706ZM115.641 57.6591C115.728 56.962 115.794 56.2649 115.794 55.5461C115.794 54.8272 115.728 54.1083 115.641 53.3676L120.238 49.8168C120.651 49.49 120.76 48.9018 120.499 48.4226L116.142 40.8852C115.881 40.4059 115.293 40.2098 114.813 40.4059L109.389 42.5843C108.256 41.7348 107.08 40.9941 105.707 40.4495L104.901 34.6766C104.857 34.42 104.723 34.1874 104.524 34.0199C104.325 33.8525 104.073 33.761 103.812 33.7617H95.0984C94.5538 33.7617 94.0963 34.1538 94.0092 34.6766L93.2031 40.4495C91.8307 40.9941 90.6544 41.7348 89.5216 42.5843L84.0973 40.4059C83.618 40.2098 83.0298 40.4059 82.7684 40.8852L78.4115 48.4226C78.1283 48.9018 78.259 49.49 78.6729 49.8168L83.2695 53.3676C83.1823 54.1083 83.117 54.8272 83.117 55.5461C83.117 56.2649 83.1823 56.962 83.2695 57.6591L78.6729 61.2754C78.259 61.6021 78.1283 62.1903 78.4115 62.6696L82.7684 70.207C83.0298 70.6862 83.618 70.8605 84.0973 70.6862L89.5216 68.486C90.6544 69.3574 91.8307 70.098 93.2031 70.6426L94.0092 76.4155C94.0963 76.9383 94.5538 77.3304 95.0984 77.3304H103.812C104.357 77.3304 104.814 76.9383 104.901 76.4155L105.707 70.6426C107.08 70.0762 108.256 69.3574 109.389 68.486L114.813 70.6862C115.293 70.8605 115.881 70.6862 116.142 70.207L120.499 62.6696C120.76 62.1903 120.651 61.6021 120.238 61.2754L115.641 57.6591Z" fill="#CCCCCC"/>
<path d="M84.5504 144.089C83.9372 144.089 83.3281 144.012 82.7465 143.862L63.5967 138.943C62.4579 138.647 61.4686 138.082 60.7695 137.328C60.0703 136.573 59.6969 135.668 59.7022 134.74V112.75C59.697 112.741 59.6897 112.733 59.6807 112.726L19.3861 76.4902C18.4927 75.6865 17.9166 74.7018 17.7265 73.653C17.5363 72.6041 17.7399 71.5351 18.3132 70.5729C18.8865 69.6108 19.8054 68.7958 20.9608 68.2249C22.1161 67.6539 23.4595 67.3509 24.8312 67.3518H125.168C126.539 67.3509 127.883 67.6539 129.038 68.2249C130.193 68.7958 131.112 69.6108 131.686 70.5729C132.259 71.5351 132.462 72.6041 132.272 73.653C132.082 74.7018 131.506 75.6865 130.613 76.4902L90.3061 112.73C90.2979 112.737 90.2906 112.746 90.2846 112.754V139.662C90.2868 140.244 90.14 140.82 89.8526 141.358C89.5652 141.896 89.1429 142.385 88.61 142.796C88.0771 143.208 87.4441 143.534 86.7474 143.756C86.0507 143.977 85.304 144.091 84.5504 144.089Z" fill="#FBFBFB"/>
<path d="M61.7182 28.5128C60.2775 28.2328 59.007 27.3919 58.1863 26.1751C57.3656 24.9583 57.0618 23.4653 57.3419 22.0246C57.6219 20.5839 58.4628 19.3134 59.6796 18.4927C60.8964 17.672 62.3894 17.3682 63.8301 17.6483C65.2708 17.9283 66.5413 18.7692 67.362 19.986C68.1827 21.2028 68.4865 22.6957 68.2064 24.1365C67.9264 25.5772 67.0855 26.8477 65.8687 27.6684C64.6519 28.4891 63.159 28.7929 61.7182 28.5128ZM74.0134 26.8276C74.1721 26.343 74.3152 25.8554 74.4147 25.3432C74.5143 24.8311 74.5673 24.3098 74.6078 23.77L78.3744 21.8767C78.7146 21.7012 78.8736 21.2973 78.7537 20.9196L76.6935 14.946C76.5736 14.5684 76.1817 14.3472 75.8131 14.4206L71.6467 15.2214C70.9573 14.4592 70.2217 13.7686 69.3193 13.1905L69.5446 8.96589C69.5486 8.77695 69.4856 8.5927 69.3667 8.44577C69.2479 8.29884 69.0808 8.19873 68.8952 8.16317L62.6869 6.9564C62.2989 6.88098 61.9187 7.09699 61.7842 7.45742L60.4104 11.4588C59.3572 11.6568 58.4165 12.0215 57.4918 12.47L53.9288 10.1667C53.6145 9.96062 53.1683 10.0189 52.9157 10.3241L48.7676 15.0909C48.4995 15.3931 48.5112 15.8303 48.7608 16.1204L51.5439 19.2869C51.3793 19.8025 51.2332 20.3057 51.1336 20.8178C51.034 21.33 50.9841 21.8357 50.9496 22.3445L47.1739 24.2843C46.8338 24.4598 46.6592 24.8608 46.7946 25.2415L48.8549 31.215C48.9747 31.5927 49.3697 31.7983 49.7353 31.7405L53.9046 30.9242C54.591 31.7019 55.3266 32.3925 56.229 32.9706L56.0038 37.1952C55.9934 37.5798 56.2651 37.9225 56.6531 37.9979L62.8614 39.2047C63.2494 39.2801 63.6296 39.0641 63.7641 38.7037L65.1379 34.7023C66.1941 34.4888 67.1318 34.1395 68.0596 33.6756L71.6195 35.9944C71.9368 36.1849 72.38 36.1422 72.6327 35.837L76.7807 31.0702C77.0333 30.7649 77.0372 30.3308 76.7875 30.0407L74.0134 26.8276Z" fill="#CCCCCC"/>
</g>
<defs>
<clipPath id="clip0_10968_33979">
<rect width="150" height="150" fill="white" transform="translate(0 0.835205)"/>
</clipPath>
</defs>
</svg>
