<svg width="150" height="150" viewBox="0 0 150 150" fill="none" xmlns="http://www.w3.org/2000/svg">
<rect y="-6.10352e-05" width="150" height="150" rx="75" fill="#FBFBFB"/>
<path d="M93.3294 80.8936L90.9131 85.1557C90.029 86.7354 88.1431 87.3911 86.4635 86.7652C82.9863 85.4538 79.8038 83.5761 77.0044 81.2215C75.6489 80.0889 75.2953 78.092 76.1793 76.5421L78.5956 72.28C76.5624 69.8957 74.9711 67.1238 73.9103 64.1135H69.0482C67.2801 64.1135 65.7478 62.8319 65.4531 61.0436C64.8638 57.4671 64.8343 53.7116 65.4531 49.986C65.7478 48.1978 67.2801 46.8863 69.0482 46.8863H73.9103C74.9711 43.8761 76.5624 41.1042 78.5956 38.7198L76.1793 34.4577C75.2953 32.9079 75.6194 30.911 77.0044 29.7784C79.8038 27.4238 83.0158 25.5461 86.4635 24.2347C88.1431 23.6088 90.029 24.2645 90.9131 25.8441L93.3294 30.1062C96.4235 29.5399 99.5765 29.5399 102.671 30.1062L105.087 25.8441C105.971 24.2645 107.857 23.6088 109.537 24.2347C113.014 25.5461 116.196 27.4238 118.996 29.7784C120.351 30.911 120.705 32.9079 119.821 34.4577L117.404 38.7198C119.438 41.1042 121.029 43.8761 122.09 46.8863H126.952C128.72 46.8863 130.252 48.168 130.547 49.9562C131.136 53.5328 131.166 57.2882 130.547 61.0138C130.252 62.8021 128.72 64.1135 126.952 64.1135H122.09C121.029 67.1238 119.438 69.8957 117.404 72.28L119.821 76.5421C120.705 78.092 120.381 80.0889 118.996 81.2215C116.196 83.5761 112.984 85.4538 109.537 86.7652C107.857 87.3911 105.971 86.7354 105.087 85.1557L102.671 80.8936C99.606 81.4599 96.4235 81.4599 93.3294 80.8936ZM90.2353 63.3684C101.58 72.1906 114.517 59.1063 105.794 47.6315C94.4492 38.7794 81.5129 51.8936 90.2353 63.3684Z" fill="#CCCCCC"/>
<path d="M106.85 66.6699C103.903 52.0074 90.7733 40.9999 75 40.9999C62.4767 40.9999 51.6 47.9699 46.1833 58.1699C33.14 59.5299 23 70.3674 23 83.4999C23 97.5674 34.6567 109 49 109H105.333C117.293 109 127 99.4799 127 87.7499C127 76.5299 118.117 67.4349 106.85 66.6699Z" fill="#3C494F"/>
<path d="M36 86.9999L61 101.434V72.5662L36 86.9999ZM114 86.9999L89 72.5662V101.434L114 86.9999ZM58.5 89.4999H91.5V84.4999H58.5V89.4999Z" fill="#CCCCCC"/>
</svg>
