<svg width="150" height="151" viewBox="0 0 150 151" fill="none" xmlns="http://www.w3.org/2000/svg">
<rect y="0.0180054" width="150" height="150" rx="75" fill="#FBFBFB"/>
<path d="M93.3294 80.9117L90.9131 85.1738C90.029 86.7535 88.1431 87.4092 86.4635 86.7833C82.9863 85.4718 79.8038 83.5941 77.0044 81.2396C75.6489 80.107 75.2953 78.1101 76.1793 76.5602L78.5956 72.2981C76.5624 69.9137 74.9711 67.1419 73.9103 64.1316H69.0482C67.2801 64.1316 65.7478 62.85 65.4531 61.0617C64.8638 57.4851 64.8343 53.7297 65.4531 50.0041C65.7478 48.2158 67.2801 46.9044 69.0482 46.9044H73.9103C74.9711 43.8941 76.5624 41.1223 78.5956 38.7379L76.1793 34.4758C75.2953 32.926 75.6194 30.929 77.0044 29.7964C79.8038 27.4419 83.0158 25.5642 86.4635 24.2528C88.1431 23.6269 90.029 24.2826 90.9131 25.8622L93.3294 30.1243C96.4235 29.558 99.5765 29.558 102.671 30.1243L105.087 25.8622C105.971 24.2826 107.857 23.6269 109.537 24.2528C113.014 25.5642 116.196 27.4419 118.996 29.7964C120.351 30.929 120.705 32.926 119.821 34.4758L117.404 38.7379C119.438 41.1223 121.029 43.8941 122.09 46.9044H126.952C128.72 46.9044 130.252 48.186 130.547 49.9743C131.136 53.5509 131.166 57.3063 130.547 61.0319C130.252 62.8202 128.72 64.1316 126.952 64.1316H122.09C121.029 67.1419 119.438 69.9137 117.404 72.2981L119.821 76.5602C120.705 78.1101 120.381 80.107 118.996 81.2396C116.196 83.5941 112.984 85.4718 109.537 86.7833C107.857 87.4092 105.971 86.7535 105.087 85.1738L102.671 80.9117C99.606 81.478 96.4235 81.478 93.3294 80.9117ZM90.2353 63.3865C101.58 72.2087 114.517 59.1244 105.794 47.6495C94.4492 38.7975 81.5129 51.9116 90.2353 63.3865Z" fill="#CCCCCC"/>
<path d="M106.85 66.688C103.903 52.0255 90.7733 41.018 75 41.018C62.4767 41.018 51.6 47.988 46.1833 58.188C33.14 59.548 23 70.3855 23 83.518C23 97.5855 34.6567 109.018 49 109.018H105.333C117.293 109.018 127 99.498 127 87.768C127 76.548 118.117 67.453 106.85 66.688Z" fill="#3C494F"/>
<path d="M36 87.018L61 101.452V72.5842L36 87.018ZM114 87.018L89 72.5842V101.452L114 87.018ZM58.5 89.518H91.5V84.518H58.5V89.518Z" fill="#CCCCCC"/>
</svg>
