<svg width="150" height="156" viewBox="0 0 150 156" fill="none" xmlns="http://www.w3.org/2000/svg">
<path d="M134.142 88.963L145.844 94.806C149.352 96.8232 150.879 101.101 149.49 104.927C146.4 113.344 140.323 121.065 134.698 127.812C132.128 130.907 127.684 131.673 124.177 129.655L114.072 123.812C108.516 128.577 102.057 132.368 95.0084 134.837V146.523C95.0084 150.558 92.1263 154.036 88.1677 154.731C79.6256 156.192 70.6668 156.262 61.8121 154.731C57.8189 154.036 54.8673 150.593 54.8673 146.523V134.837C47.8183 132.333 41.3597 128.577 35.8038 123.812L25.6991 129.62C22.2267 131.638 17.7473 130.873 15.1777 127.777C9.55239 121.03 3.61457 113.309 0.524122 104.927C-0.864842 101.136 0.663018 96.858 4.17015 94.806L15.7333 88.963C14.379 81.6941 14.379 74.2165 15.7333 66.9127L4.17015 61.035C0.663018 59.0177 -0.899566 54.7398 0.524122 50.9489C3.61457 42.5322 9.55239 34.8111 15.1777 28.0638C17.7473 24.9684 22.192 24.2033 25.6991 26.2205L35.8038 32.0635C41.3597 27.2987 47.8183 23.5077 54.8673 21.0383V9.31757C54.8673 5.31791 57.7147 1.83994 61.6733 1.14434C70.2154 -0.316404 79.2089 -0.385963 88.0636 1.10956C92.0568 1.80516 95.0084 5.24835 95.0084 9.31757V21.0035C102.057 23.5077 108.516 27.2639 114.072 32.0287L124.177 26.1857C127.649 24.1685 132.128 24.9336 134.698 28.029C140.323 34.7763 146.226 42.4974 149.317 50.9141C150.706 54.7051 149.352 58.983 145.844 61.035L134.142 66.878C135.497 74.1817 135.497 81.6593 134.142 88.963Z" fill="#FBFBFB"/>
<circle cx="75.0006" cy="77.764" r="43.7643" fill="#CCCCCC"/>
<path opacity="0.8" d="M76.3086 54.6285V75.5313L94.4377 65.044L76.3086 54.6285Z" fill="#FBFBFB"/>
<path d="M113.623 98.4116C116.728 92.6267 118.482 86.2143 118.754 79.6552L99.8398 90.4629L113.623 98.4116Z" fill="#FBFBFB"/>
<path opacity="0.8" d="M98.4531 88.2534L116.692 77.8294L98.4531 67.3506V88.2534Z" fill="#FBFBFB"/>
<path d="M95.8451 62.8428V42.1171L77.7793 52.4652L95.8451 62.8428Z" fill="#FBFBFB"/>
<path d="M95.8463 88.1606V67.241L77.7383 77.7198L95.8463 88.1606Z" fill="#FBFBFB"/>
<path opacity="0.8" d="M95.7245 39.178C89.7439 35.9652 83.0955 34.1921 76.3086 33.9997V50.3019L95.7245 39.178Z" fill="#FBFBFB"/>
<path opacity="0.8" d="M112.258 54.7295C108.765 49.0998 104.046 44.3303 98.4531 40.7761V62.7035L112.258 54.7295Z" fill="#FBFBFB"/>
<path d="M118.765 76.0118C118.511 69.3558 116.733 62.8469 113.567 56.9855L99.6445 65.0354L118.765 76.0118Z" fill="#FBFBFB"/>
<path d="M73.0938 56.7025L66.5391 57.0638L67.9843 83.2826L91.6845 95.7829L94.6655 90.2274L74.3583 79.644L73.0938 56.7025Z" fill="#FBFBFB"/>
</svg>
