<svg width="150" height="156" viewBox="0 0 150 156" fill="none" xmlns="http://www.w3.org/2000/svg">
<path d="M134.142 88.945L145.844 94.788C149.352 96.8052 150.879 101.083 149.49 104.909C146.4 113.326 140.323 121.047 134.698 127.794C132.128 130.889 127.684 131.654 124.177 129.637L114.072 123.794C108.516 128.559 102.057 132.35 95.0084 134.819V146.505C95.0084 150.54 92.1263 154.018 88.1677 154.713C79.6256 156.174 70.6668 156.244 61.8121 154.713C57.8189 154.018 54.8673 150.575 54.8673 146.505V134.819C47.8183 132.315 41.3597 128.559 35.8038 123.794L25.6991 129.602C22.2267 131.62 17.7473 130.855 15.1777 127.759C9.55239 121.012 3.61457 113.291 0.524122 104.909C-0.864842 101.118 0.663018 96.84 4.17015 94.788L15.7333 88.945C14.379 81.676 14.379 74.1984 15.7333 66.8947L4.17015 61.0169C0.663018 58.9997 -0.899566 54.7218 0.524122 50.9308C3.61457 42.5141 9.55239 34.793 15.1777 28.0458C17.7473 24.9504 22.192 24.1852 25.6991 26.2024L35.8038 32.0454C41.3597 27.2806 47.8183 23.4896 54.8673 21.0203V9.2995C54.8673 5.29984 57.7147 1.82187 61.6733 1.12628C70.2154 -0.334471 79.2089 -0.404029 88.0636 1.0915C92.0568 1.78709 95.0084 5.23028 95.0084 9.2995V20.9855C102.057 23.4896 108.516 27.2458 114.072 32.0106L124.177 26.1677C127.649 24.1504 132.128 24.9156 134.698 28.011C140.323 34.7582 146.226 42.4793 149.317 50.896C150.706 54.687 149.352 58.9649 145.844 61.0169L134.142 66.8599C135.497 74.1636 135.497 81.6412 134.142 88.945Z" fill="#FBFBFB"/>
<circle cx="74.9999" cy="77.7459" r="43.7643" fill="#CCCCCC"/>
<path opacity="0.8" d="M76.3088 54.6104V75.5132L94.4379 65.026L76.3088 54.6104Z" fill="#FBFBFB"/>
<path d="M113.623 98.3936C116.728 92.6086 118.482 86.1962 118.753 79.6371L99.8396 90.4449L113.623 98.3936Z" fill="#FBFBFB"/>
<path opacity="0.8" d="M98.4531 88.2353L116.692 77.8113L98.4531 67.3325V88.2353Z" fill="#FBFBFB"/>
<path d="M95.8441 62.8247V42.0991L77.7783 52.4471L95.8441 62.8247Z" fill="#FBFBFB"/>
<path d="M95.846 88.1426V67.2229L77.738 77.7017L95.846 88.1426Z" fill="#FBFBFB"/>
<path opacity="0.8" d="M95.7247 39.1599C89.7441 35.9472 83.0958 34.1741 76.3088 33.9816V50.2839L95.7247 39.1599Z" fill="#FBFBFB"/>
<path opacity="0.8" d="M112.258 54.7115C108.765 49.0817 104.046 44.3122 98.4531 40.758V62.6855L112.258 54.7115Z" fill="#FBFBFB"/>
<path d="M118.764 75.9937C118.509 69.3378 116.731 62.8288 113.566 56.9674L99.6431 65.0173L118.764 75.9937Z" fill="#FBFBFB"/>
<path d="M73.0928 56.6845L66.5381 57.0458L67.9833 83.2646L91.6835 95.7649L94.6646 90.2094L74.3574 79.6259L73.0928 56.6845Z" fill="#FBFBFB"/>
</svg>
