<svg width="152" height="128" viewBox="0 0 152 128" fill="none" xmlns="http://www.w3.org/2000/svg">
<g clip-path="url(#clip0_10814_33966)">
<path opacity="0.8" d="M11.5 84.7533C8.7 84.7533 6.5 86.9533 6.5 89.7533V111.053L38.2 84.7533H11.5Z" fill="#FBFBFB"/>
<path d="M11.4996 117.053H130.7C133.5 117.053 135.7 114.853 135.7 112.053V89.7533C135.7 86.9533 133.5 84.7533 130.7 84.7533H45.4996L8.09961 115.753C8.99961 116.553 10.1996 117.053 11.4996 117.053ZM115.5 94.8533C118.8 94.8533 121.6 97.5533 121.6 100.953C121.6 104.253 118.9 107.053 115.5 107.053C112.2 107.053 109.4 104.353 109.4 100.953C109.4 97.5533 112.1 94.8533 115.5 94.8533ZM99.2996 94.8533C102.6 94.8533 105.4 97.5533 105.4 100.953C105.4 104.253 102.7 107.053 99.2996 107.053C95.9996 107.053 93.1996 104.353 93.1996 100.953C93.2996 97.5533 95.9996 94.8533 99.2996 94.8533Z" fill="#FBFBFB"/>
<path d="M116.1 26.2533L103.9 36.3533H130.6C133.4 36.3533 135.6 34.1533 135.6 31.3533V10.0533L121.2 21.9533C120.6 24.2533 118.6 25.9533 116.1 26.2533Z" fill="#FBFBFB"/>
<path d="M130.699 76.7533C133.499 76.7533 135.699 74.5533 135.699 71.7533V49.4533C135.699 46.6533 133.499 44.4533 130.699 44.4533H94.1992L55.1992 76.7533H130.699ZM115.499 54.5533C118.799 54.5533 121.599 57.2533 121.599 60.6533C121.599 63.9533 118.899 66.7533 115.499 66.7533C112.199 66.7533 109.399 64.0533 109.399 60.6533C109.399 57.2533 112.099 54.5533 115.499 54.5533ZM99.2992 54.5533C102.599 54.5533 105.399 57.2533 105.399 60.6533C105.399 63.9533 102.699 66.7533 99.2992 66.7533C95.9992 66.7533 93.1992 64.0533 93.1992 60.6533C93.2992 57.2533 95.9992 54.5533 99.2992 54.5533Z" fill="#FBFBFB"/>
<path opacity="0.8" d="M109.4 20.2533C109.4 16.9533 112.1 14.1533 115.5 14.1533C117.5 14.1533 119.3 15.1533 120.4 16.6533L134 5.45327C133.1 4.65327 131.9 4.15327 130.6 4.15327H11.5C8.7 4.15327 6.5 6.35327 6.5 9.15327V31.4533C6.5 34.2533 8.7 36.4533 11.5 36.4533H96.7L111.1 24.4533C110.1 23.3533 109.4 21.8533 109.4 20.2533ZM99.3 26.2533C96 26.2533 93.2 23.5533 93.2 20.1533C93.2 16.8533 95.9 14.0533 99.3 14.0533C102.6 14.0533 105.4 16.7533 105.4 20.1533C105.4 23.5533 102.7 26.2533 99.3 26.2533Z" fill="#FBFBFB"/>
<path opacity="0.8" d="M11.5 44.4533C8.7 44.4533 6.5 46.6533 6.5 49.4533V71.7533C6.5 74.5533 8.7 76.7533 11.5 76.7533H48L87 44.4533H11.5Z" fill="#FBFBFB"/>
<path d="M4 123.853L147.6 4.85327" stroke="#FBFBFB" stroke-width="8" stroke-miterlimit="10" stroke-linecap="round"/>
</g>
<defs>
<clipPath id="clip0_10814_33966">
<rect width="151.6" height="127" fill="white" transform="translate(0 0.853271)"/>
</clipPath>
</defs>
</svg>
