<svg width="152" height="128" viewBox="0 0 152 128" fill="none" xmlns="http://www.w3.org/2000/svg">
<g clip-path="url(#clip0_10814_33966)">
<path opacity="0.8" d="M11.5 84.2352C8.7 84.2352 6.5 86.4352 6.5 89.2352V110.535L38.2 84.2352H11.5Z" fill="#FBFBFB"/>
<path d="M11.4996 116.535H130.7C133.5 116.535 135.7 114.335 135.7 111.535V89.2352C135.7 86.4352 133.5 84.2352 130.7 84.2352H45.4996L8.09961 115.235C8.99961 116.035 10.1996 116.535 11.4996 116.535ZM115.5 94.3352C118.8 94.3352 121.6 97.0352 121.6 100.435C121.6 103.735 118.9 106.535 115.5 106.535C112.2 106.535 109.4 103.835 109.4 100.435C109.4 97.0352 112.1 94.3352 115.5 94.3352ZM99.2996 94.3352C102.6 94.3352 105.4 97.0352 105.4 100.435C105.4 103.735 102.7 106.535 99.2996 106.535C95.9996 106.535 93.1996 103.835 93.1996 100.435C93.2996 97.0352 95.9996 94.3352 99.2996 94.3352Z" fill="#FBFBFB"/>
<path d="M116.1 25.7352L103.9 35.8352H130.6C133.4 35.8352 135.6 33.6352 135.6 30.8352V9.53519L121.2 21.4352C120.6 23.7352 118.6 25.4352 116.1 25.7352Z" fill="#FBFBFB"/>
<path d="M130.699 76.2352C133.499 76.2352 135.699 74.0352 135.699 71.2352V48.9352C135.699 46.1352 133.499 43.9352 130.699 43.9352H94.1992L55.1992 76.2352H130.699ZM115.499 54.0352C118.799 54.0352 121.599 56.7352 121.599 60.1352C121.599 63.4352 118.899 66.2352 115.499 66.2352C112.199 66.2352 109.399 63.5352 109.399 60.1352C109.399 56.7352 112.099 54.0352 115.499 54.0352ZM99.2992 54.0352C102.599 54.0352 105.399 56.7352 105.399 60.1352C105.399 63.4352 102.699 66.2352 99.2992 66.2352C95.9992 66.2352 93.1992 63.5352 93.1992 60.1352C93.2992 56.7352 95.9992 54.0352 99.2992 54.0352Z" fill="#FBFBFB"/>
<path opacity="0.8" d="M109.4 19.7352C109.4 16.4352 112.1 13.6352 115.5 13.6352C117.5 13.6352 119.3 14.6352 120.4 16.1352L134 4.93519C133.1 4.13519 131.9 3.63519 130.6 3.63519H11.5C8.7 3.63519 6.5 5.83519 6.5 8.63519V30.9352C6.5 33.7352 8.7 35.9352 11.5 35.9352H96.7L111.1 23.9352C110.1 22.8352 109.4 21.3352 109.4 19.7352ZM99.3 25.7352C96 25.7352 93.2 23.0352 93.2 19.6352C93.2 16.3352 95.9 13.5352 99.3 13.5352C102.6 13.5352 105.4 16.2352 105.4 19.6352C105.4 23.0352 102.7 25.7352 99.3 25.7352Z" fill="#FBFBFB"/>
<path opacity="0.8" d="M11.5 43.9352C8.7 43.9352 6.5 46.1352 6.5 48.9352V71.2352C6.5 74.0352 8.7 76.2352 11.5 76.2352H48L87 43.9352H11.5Z" fill="#FBFBFB"/>
<path d="M4 123.335L147.6 4.33521" stroke="#FBFBFB" stroke-width="8" stroke-miterlimit="10" stroke-linecap="round"/>
</g>
<defs>
<clipPath id="clip0_10814_33966">
<rect width="151.6" height="127" fill="white" transform="translate(0 0.335205)"/>
</clipPath>
</defs>
</svg>
