<svg width="150" height="151" viewBox="0 0 150 151" fill="none" xmlns="http://www.w3.org/2000/svg">
<g clip-path="url(#clip0_11071_34197)">
<path d="M23.3549 16.796L15.7896 24.1965L32.4332 46.9972C33.1339 47.9573 34.0591 48.7397 35.1316 49.2791C36.2041 49.8185 37.393 50.0992 38.5989 50.0979H39.1285C40.1232 50.0972 41.1083 50.2883 42.0273 50.6604C42.9464 51.0324 43.7815 51.5782 44.4847 52.2663L64.7219 72.0624L44.9235 91.7031C41.5372 90.7281 37.9653 90.5383 34.491 91.1488C31.0166 91.7594 27.7356 93.1535 24.908 95.2206C22.0804 97.2877 19.7842 99.9709 18.2014 103.057C16.6186 106.144 15.7928 109.549 15.7896 113.002C15.7941 116.183 16.4977 119.327 17.8527 122.219C19.2077 125.112 21.1824 127.686 23.6431 129.766C26.1038 131.847 28.993 133.386 32.1148 134.279C35.2367 135.172 38.5183 135.399 41.7374 134.943C44.9564 134.487 48.0377 133.36 50.7724 131.637C53.5072 129.914 55.8315 127.637 57.5879 124.959C59.3443 122.281 60.4917 119.265 60.9525 116.116C61.4132 112.966 61.1765 109.756 60.2584 106.704L80.3367 87.3369L87.6599 94.5005L85.3525 101.264C84.9091 102.568 84.8455 103.967 85.1689 105.304C85.4922 106.641 86.1897 107.864 87.1833 108.835L111.922 133.035C112.623 133.724 113.456 134.271 114.374 134.645C115.292 135.018 116.276 135.21 117.27 135.21C118.265 135.21 119.249 135.018 120.167 134.645C121.085 134.271 121.918 133.724 122.619 133.035L134.618 121.297C135.323 120.612 135.882 119.797 136.264 118.899C136.646 118.001 136.842 117.038 136.842 116.065C136.842 115.093 136.646 114.13 136.264 113.232C135.882 112.334 135.323 111.519 134.618 110.833L109.879 86.6338C108.886 85.6619 107.636 84.9796 106.27 84.6633C104.903 84.347 103.473 84.4092 102.14 84.8429L95.2252 87.1001L87.9625 79.9957L108.238 60.4363C111.601 61.3146 115.126 61.4255 118.54 60.7606C121.954 60.0956 125.167 58.6725 127.93 56.6011C130.693 54.5296 132.932 51.8651 134.476 48.813C136.02 45.7608 136.827 42.4026 136.834 38.9973C136.834 37.0066 136.57 35.0751 136.063 33.2472L119.873 49.0915L106.573 46.3977L103.819 33.3952L120.017 17.5509C116.164 16.5375 112.106 16.5356 108.252 17.5454C104.397 18.5552 100.884 20.541 98.0643 23.3027C95.245 26.0644 93.2197 29.5043 92.1926 33.2757C91.1655 37.0471 91.173 41.0167 92.2142 44.7844L72.2418 64.6028L52.05 44.8658C50.6312 43.4783 49.8338 41.5963 49.8334 39.6337V39.1083C49.8335 37.9299 49.5459 36.7684 48.9946 35.7207C48.4432 34.6729 47.644 33.769 46.6635 33.0844L23.3549 16.796ZM96.3297 95.581C96.6811 95.2364 97.0985 94.963 97.5581 94.7764C98.0176 94.5899 98.5103 94.4939 99.0079 94.4939C99.5054 94.4939 99.9981 94.5899 100.458 94.7764C100.917 94.963 101.335 95.2364 101.686 95.581L123.731 117.153C124.42 117.851 124.802 118.786 124.793 119.756C124.784 120.726 124.387 121.654 123.685 122.34C122.984 123.026 122.035 123.415 121.043 123.424C120.052 123.432 119.096 123.059 118.383 122.385L96.3297 100.82C95.9775 100.477 95.698 100.068 95.5073 99.6189C95.3166 99.1693 95.2184 98.6874 95.2184 98.2007C95.2184 97.714 95.3166 97.2321 95.5073 96.7825C95.698 96.333 95.9775 95.9247 96.3297 95.581ZM38.4855 98.2007L42.0487 99.9916L46.0508 100.184L48.222 103.477L51.5886 105.601L51.7852 109.516L53.6161 113.002L51.7852 116.487L51.5886 120.402L48.222 122.526L46.0508 125.819L42.0487 126.012L38.4855 127.802L34.9222 126.012L30.9202 125.819L28.7489 122.526L25.3824 120.402L25.1857 116.487L23.3549 113.002L25.1857 109.516L25.3824 105.601L28.7489 103.477L30.9202 100.184L34.9222 99.9916L38.4855 98.2007Z" fill="#FBFBFB"/>
</g>
<defs>
<clipPath id="clip0_11071_34197">
<rect width="150" height="150" fill="white" transform="translate(0 0.835205)"/>
</clipPath>
</defs>
</svg>
