<svg width="40" height="40" viewBox="0 0 40 40" fill="none" xmlns="http://www.w3.org/2000/svg">
<g clip-path="url(#clip0_23296_3800)">
<path d="M40 0H0V40H40V0Z" fill="#01A88D" fill-opacity="0.12"/>
<path fill-rule="evenodd" clip-rule="evenodd" d="M26.9996 34H29.9995V33H26.9996V34ZM8.99994 25H16.9998V24H8.99994V25ZM16.9998 22H20.9997V21H16.9998V22ZM8.99994 22H15.9998V21H8.99994V22ZM8.99994 13H14.9998V12H8.99994V13ZM30.2795 28.051C30.1085 28.135 29.9995 28.31 29.9995 28.5V31H28.9316V27H29.9995V26H28.9316H27.9316H26.9996V27H27.9996V31H26.9316V28.5C26.9316 28.31 26.8236 28.136 26.6526 28.052C26.6266 28.039 23.9617 26.68 23.9997 23.359C23.9827 22.431 24.4616 21.397 25.3136 20.524C26.2376 19.577 27.4306 19.007 28.5026 19H28.5206C29.5436 19 30.7095 19.563 31.6445 20.509C32.5095 21.384 33.0165 22.45 32.9995 23.375C33.0375 26.657 30.3935 27.995 30.2795 28.051ZM32.3555 19.806C31.2365 18.674 29.8045 18 28.5206 18H28.4966C27.1626 18.009 25.7046 18.691 24.5986 19.826C23.5607 20.889 22.9787 22.184 22.9997 23.363C22.9617 26.648 25.1406 28.299 25.9316 28.79V31.5C25.9316 31.776 26.1546 32 26.4316 32H30.4995C30.7755 32 30.9995 31.776 30.9995 31.5V28.793C31.8065 28.305 34.0375 26.656 33.9995 23.378C34.0205 22.187 33.4215 20.884 32.3555 19.806ZM8.99994 19H20.9997V18H8.99994V19ZM12.9999 16H20.9997V15H12.9999V16ZM8.99994 16H11.9999V15H8.99994V16ZM17.9998 7.707L22.2927 12H17.9998V7.707ZM22.9997 31H6.99998V7H16.9998V12.5C16.9998 12.776 17.2238 13 17.4998 13H22.9997V19H23.9997L23.9977 12.452C23.9957 12.324 23.9467 12.24 23.8537 12.146L17.9998 6L6.5 6.002C6.224 6.002 6 6.227 6 6.502V31.5C6 31.776 6.224 32 6.5 32H23.4997C23.7757 32 23.9997 31.776 23.9997 31.5V28H22.9997V31Z" fill="#01A88D"/>
</g>
<rect x="0.5" y="0.5" width="39" height="39" stroke="#01A88D"/>
<defs>
<clipPath id="clip0_23296_3800">
<rect width="40" height="40" fill="white"/>
</clipPath>
</defs>
</svg>
