<svg width="40" height="40" viewBox="0 0 40 40" xmlns="http://www.w3.org/2000/svg">  <g id="Icon-Architecture/32/Arch_Amazon-GameSparks_32" stroke="none" stroke-width="1" fill="none" fill-rule="evenodd">  <g id="Icon-Service/32/Amazon-GameSparks_32" transform="translate(6.000000, 6.000000)" fill="#FFFFFF"> <path d="M23.756,19.498 C23.756,19.084 24.092,18.748 24.506,18.748 C24.92,18.748 25.256,19.084 25.256,19.498 C25.256,19.912 24.92,20.248 24.506,20.248 C24.092,20.248 23.756,19.912 23.756,19.498 L23.756,19.498 Z M26.687,26.716 C26.5,26.907 26.231,27 25.865,27 C24.883,27 23.724,24.23 23.101,22.741 C23.093,22.723 23.087,22.707 23.079,22.689 C23.515,22.885 23.996,23 24.504,23 C25.484,23 26.368,22.592 27.004012,21.941 L27.004012,25.841 C27.004012,25.846 27.011,26.385 26.687,26.716 L26.687,26.716 Z M14.144,27 C13.778,27 13.508,26.907 13.322,26.716 C12.997,26.385 13.0039881,25.846 13.0039881,25.827 L13.0039881,21.941 C13.64,22.592 14.525,23 15.504,23 C16.013,23 16.493,22.885 16.93,22.689 C16.922,22.707 16.915,22.723 16.908,22.741 C16.285,24.23 15.125,27 14.144,27 L14.144,27 Z M15.504,17 C16.883,17 18.004,18.121 18.004,19.5 C18.004,20.878 16.883,22 15.504,22 C14.125,22 13.004,20.878 13.004,19.5 C13.004,18.121 14.125,17 15.504,17 L15.504,17 Z M21.355,21 L18.653,21 C18.872,20.543 19.004,20.039 19.004,19.5 C19.004,18.961 18.872,18.456 18.653,18 L21.355,18 C21.137,18.456 21.004,18.961 21.004,19.5 C21.004,20.039 21.137,20.543 21.355,21 L21.355,21 Z M24.504,17 C25.883,17 27.004,18.121 27.004,19.5 C27.004,20.878 25.883,22 24.504,22 C23.125,22 22.004,20.878 22.004,19.5 C22.004,18.121 23.125,17 24.504,17 L24.504,17 Z M28.004,25.827 L28.004,19.5 C28.004,17.57 26.434,16 24.504,16 C23.554,16 22.694,16.383 22.063,17 L17.946,17 C17.315,16.383 16.454,16 15.504,16 C13.575,16 12.004,17.57 12.004,19.5 L12.004,25.81 C12.001,25.907 11.99,26.777 12.598,27.406 C12.979,27.8 13.498,28 14.144,28 C15.791,28 16.922,25.298 17.83,23.128 C18.008,22.702 18.17,22.314 18.317,22 L21.692,22 C21.838,22.314 22,22.702 22.178,23.128 C23.086,25.298 24.217,28 25.865,28 C26.51,28 27.03,27.8 27.411,27.406 C28.019,26.777 28.007,25.907 28.004,25.827 L28.004,25.827 Z M15.004,20 L14.004,20 L14.004,19 L15.004,19 L15.004,18 L16.004,18 L16.004,19 L17.004,19 L17.004,20 L16.004,20 L16.004,21 L15.004,21 L15.004,20 Z M16.236,2.211 C16.486,2.602 16.818,2.934 17.208,3.184 C16.818,3.434 16.486,3.767 16.236,4.157 C15.986,3.767 15.654,3.434 15.263,3.184 C15.654,2.934 15.986,2.602 16.236,2.211 L16.236,2.211 Z M13.551,3.684 C14.755,3.684 15.736,4.664 15.736,5.868 C15.736,6.145 15.959,6.368 16.236,6.368 C16.512,6.368 16.736,6.145 16.736,5.868 C16.736,4.664 17.716,3.684 18.92,3.684 C19.197,3.684 19.42,3.461 19.42,3.184 C19.42,2.908 19.197,2.684 18.92,2.684 C17.716,2.684 16.736,1.704 16.736,0.5 C16.736,0.223 16.512,1.77635684e-15 16.236,1.77635684e-15 C15.959,1.77635684e-15 15.736,0.223 15.736,0.5 C15.736,1.704 14.755,2.684 13.551,2.684 C13.275,2.684 13.051,2.908 13.051,3.184 C13.051,3.461 13.275,3.684 13.551,3.684 L13.551,3.684 Z M7.146,16.704 C6.396,14.673 4.864,13.033 2.979,12.25 C4.864,11.466 6.396,9.827 7.146,7.796 C7.896,9.827 9.428,11.466 11.313,12.25 C9.428,13.033 7.896,14.673 7.146,16.704 L7.146,16.704 Z M14.291,12.25 C14.291,11.973 14.068,11.75 13.791,11.75 C10.46,11.75 7.646,8.658 7.646,5 C7.646,4.723 7.422,4.5 7.146,4.5 C6.87,4.5 6.646,4.723 6.646,5 C6.646,8.658 3.831,11.75 0.5,11.75 C0.224,11.75 1.77635684e-15,11.973 1.77635684e-15,12.25 C1.77635684e-15,12.526 0.224,12.75 0.5,12.75 C3.831,12.75 6.646,15.841 6.646,19.5 C6.646,19.776 6.87,20 7.146,20 C7.422,20 7.646,19.776 7.646,19.5 C7.646,15.841 10.46,12.75 13.791,12.75 C14.068,12.75 14.291,12.526 14.291,12.25 L14.291,12.25 Z M24.009,8.448 C24.373,9.103 24.915,9.645 25.571,10.009 C24.915,10.373 24.373,10.915 24.009,11.57 C23.646,10.915 23.103,10.373 22.449,10.009 C23.103,9.645 23.646,9.103 24.009,8.448 L24.009,8.448 Z M20.515,10.509 C22.166,10.509 23.509,11.853 23.509,13.504 C23.509,13.78 23.733,14.004 24.009,14.004 C24.286,14.004 24.509,13.78 24.509,13.504 C24.509,11.853 25.853,10.509 27.504,10.509 C27.781,10.509 28.004,10.285 28.004,10.009 C28.004,9.733 27.781,9.509 27.504,9.509 C25.853,9.509 24.509,8.166 24.509,6.514 C24.509,6.238 24.286,6.014 24.009,6.014 C23.733,6.014 23.509,6.238 23.509,6.514 C23.509,8.166 22.166,9.509 20.515,9.509 C20.239,9.509 20.015,9.733 20.015,10.009 C20.015,10.285 20.239,10.509 20.515,10.509 L20.515,10.509 Z" id="Fill-9"></path> </g> </g></svg>