<svg width="40" height="40" viewBox="0 0 40 40" fill="none" xmlns="http://www.w3.org/2000/svg">
<g clip-path="url(#clip0_23310_9412)">
<path d="M40 0H0V40H40V0Z" fill="#8C4FFF" fill-opacity="0.12"/>
<path fill-rule="evenodd" clip-rule="evenodd" d="M19.0288 23.988H20.9882V21.9801H19.0288V23.988ZM21.4883 20.985H18.5287C18.2516 20.985 18.0286 21.2072 18.0286 21.4831V24.486C18.0286 24.7619 18.2516 24.9841 18.5287 24.9841H21.4883C21.7644 24.9841 21.9884 24.7619 21.9884 24.486V21.4831C21.9884 21.2072 21.7644 20.985 21.4883 20.985ZM28.6419 28.004L24.9891 28V22.9452H32.9248C32.9628 23.1544 32.9998 23.3635 32.9998 23.5936C32.9998 27.9343 28.8179 28.003 28.6419 28.004ZM10.832 27.9223L16.0021 23.5269V27.99L11.8292 27.9861C11.4772 27.9861 11.1481 27.9612 10.832 27.9223ZM7.00021 23.4323C7.00021 20.7201 9.20869 19.755 10.525 19.4203C10.746 19.3645 10.89 19.1663 10.894 18.9462H16.0021V19.3048L7.69236 26.249C7.23827 25.5837 7.00021 24.737 7.00021 23.7201V23.4323ZM14.6449 12.48C15.0909 12.2918 15.546 12.1783 16.0021 12.1006V16.0498H11.3311C11.9543 14.503 13.1985 13.0896 14.6449 12.48ZM19.0648 26.9452H20.9882V27.994H19.3019H19.0648V26.9452ZM29.499 18.9482V19.9442C30.4292 19.9442 31.8965 20.6165 32.5977 21.9492H24.489C24.2119 21.9492 23.9889 22.1723 23.9889 22.4472V27.999L21.9884 27.997V26.4472C21.9884 26.1723 21.7644 25.9492 21.4883 25.9492H18.5647C18.2876 25.9492 18.0646 26.1723 18.0646 26.4472V27.992L17.0024 27.991V22.4472C17.0024 22.253 16.8893 22.0767 16.7113 21.995C16.5343 21.9133 16.3252 21.9422 16.1782 22.0687L9.61677 27.6464C9.14067 27.4821 8.72758 27.257 8.37751 26.9751L16.8243 19.9183C16.9373 19.8247 17.0024 19.6842 17.0024 19.5368V18.4482C17.0024 18.1723 16.7793 17.9502 16.5023 17.9502H10.9101C10.9171 17.6514 10.9571 17.3486 11.0211 17.0458H16.5023C16.7793 17.0458 17.0024 16.8227 17.0024 16.5478V12.0179C17.3594 12.0199 17.7125 12.0488 18.0646 12.1155V19.5368C18.0646 19.8127 18.2876 20.0348 18.5647 20.0348H21.4883C21.7644 20.0348 21.9884 19.8127 21.9884 19.5368V17.0259H20.9882V19.0388H19.0648V12.3894C19.96 12.7251 20.8122 13.2709 21.5713 14.0299L22.2805 13.3267C20.01 11.0587 17.0104 10.4024 14.2538 11.5627C11.8132 12.5926 9.90184 15.4412 9.90184 18.0478L9.89483 18.3177C9.89183 18.3994 9.88983 18.4821 9.88783 18.5647C8.47253 19.0089 6 20.243 6 23.4323V23.7201C6 27.0149 8.17947 28.9821 11.8282 28.9821L18.5607 28.989L18.5647 28.99H19.3008L28.6409 29C28.6949 29 34 28.9373 34 23.5936C34 20.6026 31.3384 18.9482 29.499 18.9482ZM25.8683 14.8396C25.8683 14.5279 26.1983 14.1992 26.5104 14.1992C26.8235 14.1992 27.1535 14.5279 27.1535 14.8396C27.1535 15.1504 26.8235 15.4791 26.5104 15.4791C26.1983 15.4791 25.8683 15.1504 25.8683 14.8396ZM28.1537 14.8396C28.1537 13.983 27.3696 13.2032 26.5104 13.2032C25.6512 13.2032 24.868 13.983 24.868 14.8396C24.868 15.6962 25.6512 16.4751 26.5104 16.4751C27.3696 16.4751 28.1537 15.6962 28.1537 14.8396ZM26.5104 12.4681C27.8677 12.4681 28.8909 13.488 28.8909 14.8396C28.8909 15.7858 27.5646 18.1016 26.5104 19.6902C25.4562 18.1016 24.1289 15.7858 24.1289 14.8396C24.1289 13.488 25.1531 12.4681 26.5104 12.4681ZM26.5104 21.0757C26.6734 21.0757 26.8275 20.996 26.9205 20.8635C27.2245 20.4293 29.8911 16.5797 29.8911 14.8396C29.8911 12.9193 28.4378 11.4721 26.5104 11.4721C24.582 11.4721 23.1287 12.9193 23.1287 14.8396C23.1287 16.5797 25.7962 20.4293 26.1003 20.8635C26.1943 20.996 26.3474 21.0757 26.5104 21.0757Z" fill="#8C4FFF"/>
</g>
<rect x="0.5" y="0.5" width="39" height="39" stroke="#8C4FFF"/>
<defs>
<clipPath id="clip0_23310_9412">
<rect width="40" height="40" fill="white"/>
</clipPath>
</defs>
</svg>
