<svg width="145" height="145" viewBox="0 0 145 145" fill="none" xmlns="http://www.w3.org/2000/svg">
<path d="M0.5 72.35C0.621184 53.2883 8.26423 35.0456 21.7665 21.5901C35.2688 8.13461 53.538 0.554974 72.6 0.5C112.05 0.6 144.6 33.12 144.5 72.65C144.4 112.18 111.75 144.6 72.3 144.5C53.2327 144.384 34.9846 136.734 21.5345 123.218C8.08445 109.703 0.523402 91.4177 0.5 72.35V72.35ZM72.5 124.45C82.7804 124.45 92.8301 121.403 101.379 115.693C109.928 109.984 116.593 101.868 120.532 92.3726C124.471 82.8766 125.506 72.4263 123.508 62.342C121.51 52.2578 116.567 42.9921 109.305 35.7158C102.042 28.4395 92.7863 23.4791 82.7059 21.4614C72.6254 19.4437 62.1731 20.4592 52.6697 24.3796C43.1662 28.3 35.038 34.9495 29.3122 43.4876C23.5863 52.0258 20.5198 62.0697 20.5 72.35C20.492 86.1529 25.9648 99.3942 35.7156 109.164C45.4663 118.933 58.6971 124.431 72.5 124.45V124.45Z" fill="#F9E21B"/>
<path d="M63.42 76.64C73.72 66.04 82.72 56.64 91.82 47.44C93.2681 45.7875 95.2368 44.6786 97.4006 44.2968C99.5644 43.915 101.794 44.283 103.72 45.34C108.02 47.44 110.32 51.14 109.52 55.94C109.059 58.3467 107.913 60.569 106.22 62.34C94.72 74.14 83.02 85.74 71.32 97.34C66.62 101.94 60.92 102.04 56.22 97.44C50.22 91.64 44.32 85.74 38.52 79.74C34.22 75.24 34.32 69.14 38.52 65.04C42.72 60.94 48.72 60.74 53.22 65.14C56.52 68.44 59.42 72.14 63.42 76.64Z" fill="#F9E21B"/>
</svg>
