<svg id="Layer_1" data-name="Layer 1" xmlns="http://www.w3.org/2000/svg" viewBox="0 0 100 100"><defs><style>.cls-1{fill:none;}.cls-2{fill:#fff;}</style></defs><path class="cls-1" d="M21.44231,23.95031c.4107-.4107,2.054-.82165,2.054-1.23235,0-.411.82165-.82166,1.23235-.82166A22.80979,22.80979,0,0,0,28.015,19.4316c.411-.41095.82166-.41095,1.23236-.82165A5.6438,5.6438,0,0,0,24.318,20.253a26.38965,26.38965,0,0,0-5.34061,4.108l-.8214.82165L17.33431,26.415a12.47907,12.47907,0,0,0-2.054,2.87566A9.75743,9.75743,0,0,0,14.048,34.22033V35.042q1.2321-2.465,2.4647-4.92966c.82166-1.23235,1.23236-2.054,2.054-3.28636A9.59768,9.59768,0,0,1,21.44231,23.95031Z"/><path class="cls-1" d="M65.80874,87.21372a53.86643,53.86643,0,0,0-6.162,1.23235c-.82165.82166-2.054.82166-3.28635.82166-.82166,0-1.64331-.411-2.054,0-.41095,0-.82165,0-.82165.4107a11.76813,11.76813,0,0,0,9.85932-.4107,14.60115,14.60115,0,0,0,4.108-.82166,6.94527,6.94527,0,0,0,2.054-.82165h-2.054A3.10658,3.10658,0,0,0,65.80874,87.21372Z"/><path class="cls-1" d="M15.2803,69.13839c-.41095-2.054-1.23235-2.054-2.054-3.69731-.41095-.8214-.41095-1.23235-.82165-2.054a76.59728,76.59728,0,0,1-2.054-7.80506c0-.411-.4107-.82166-.4107-1.23236A2.46877,2.46877,0,0,0,9.529,55.99272c.41095,2.054,1.2326,4.108,1.6433,6.162l.4107.82165.411,1.6433a9.66986,9.66986,0,0,0,.8214,3.28636,30.63767,30.63767,0,0,0,5.75131,6.98366,2.13379,2.13379,0,0,0-.82165-1.6433A36.11291,36.11291,0,0,1,15.2803,69.13839Z"/><path class="cls-1" d="M41.5714,10.39393l2.054-.41095a11.37733,11.37733,0,0,1,3.69731-.4107c.4107-.4107.4107-.82165.82165-.82165H42.39305a13.38641,13.38641,0,0,0-5.34036,1.6433l-2.054,1.23236h.82165C37.87434,11.21559,39.51739,10.80463,41.5714,10.39393Z"/><path class="cls-1" d="M80.59772,22.718a27.61881,27.61881,0,0,0,2.8754,4.5187L84.29478,28.88V26.826A8.99252,8.99252,0,0,0,80.59772,22.718Z"/><path class="cls-2" d="M97.0295,57.636c-.4107-.41095-1.64305.4107-2.054,1.643a5.982,5.982,0,0,1-2.4647,3.69731c-.82165.4107.82165-2.87566,0-4.108s-1.23235-.82165-1.6433.4107a30.45441,30.45441,0,0,1-3.04967,7.0293,9.37175,9.37175,0,0,0,.585-1.68869,34.23216,34.23216,0,0,0,1.64331-6.162c0-1.2326.4107-2.465.4107-3.69731l.82165-2.054V57.636a1.43077,1.43077,0,0,0,2.054-.41095,5.93713,5.93713,0,0,0,.82165-2.87541,41.85232,41.85232,0,0,0-.82165-14.378,44.72807,44.72807,0,0,0-4.108-10.27c-2.87565-4.519-4.519-10.27-4.92965-10.27s-.4107-1.2326-.4107-1.6433A22.59335,22.59335,0,0,0,81.00842,14.091c-.82165-.8214-5.34036-3.28636-2.87566,0a6.62291,6.62291,0,0,1,1.64331,2.87566,6.03609,6.03609,0,0,1-2.054-2.46471,8.597,8.597,0,0,0-2.465-1.6433,20.01664,20.01664,0,0,0-2.87541-1.23235,13.68156,13.68156,0,0,1-2.465-1.23236,4.1035,4.1035,0,0,1-2.054-1.6433,3.50925,3.50925,0,0,0-2.87541,0h-.41095l-.4107-.4107V7.929a2.1348,2.1348,0,0,0-1.6433-.8214L61.29,6.28593c-1.23235-.82166-2.87565-2.054-4.108-2.87566A7.29814,7.29814,0,0,0,53.074,1.767c-.82165,0-2.87566-.8214-3.28636-.4107a1.24931,1.24931,0,0,0,0,1.6433,12.85056,12.85056,0,0,1,4.108,2.054l.4107.4107h-1.6433a44.65925,44.65925,0,0,0-7.39436.41071c-.82166,0-1.23236.41095-2.054.41095a27.74483,27.74483,0,0,1-5.75106.82165,3.70376,3.70376,0,0,0-2.054.4107c-.41095.4107-.41095.82165-.82165.82165a19.34565,19.34565,0,0,0-3.69731,1.23235,5.64484,5.64484,0,0,0-3.28636,2.054c-1.23235.82165-4.51895,2.87565-4.92966,3.6973a1.50928,1.50928,0,0,0-1.23235.4107,21.53127,21.53127,0,0,0-4.519,4.108,22.55566,22.55566,0,0,0-2.8754,3.69731L13.2263,24.772a28.40821,28.40821,0,0,0-4.108,7.80506c0,.82165-.82165,4.92966.4107,3.69731,0-.82165.41095-1.23235,1.2326-1.6433a1.43372,1.43372,0,0,1-.41095.82165c0,.41095.41095.82165.41095,1.23235a3.11459,3.11459,0,0,1-.82165,1.6433q-.61642,2.465-1.2326,4.92966a17.64744,17.64744,0,0,0,0,6.57271h-.4107A3.11552,3.11552,0,0,0,7.475,51.474c0,1.23235-.4107,2.054-.4107,1.64305a17.46568,17.46568,0,0,0-.82165-4.51871C5.421,47.366,5.421,45.7227,5.421,44.07964c0-.82165.411-2.054.411-2.87565V38.739c0-1.64305.4107-5.34036.4107-5.75106.411-1.6433,2.465-4.51895,1.6433-6.162-.82165-1.6433-1.6433,0-2.054.4107-.411.411-.82166.82166-.82166,1.23236A43.64476,43.64476,0,0,0,3.367,36.27433c-.4107,2.054-.4107,4.108-.8214,6.162v6.57271a35.60083,35.60083,0,0,1,.8214,4.108c0,2.054,2.87566,7.39461,2.465,7.80531a1.2493,1.2493,0,0,0,0,1.64331A45.672,45.672,0,0,0,13.2263,76.53275c.82165.82165,3.69731,4.519,4.108,4.92966a2.13456,2.13456,0,0,1,.82165,1.6433l.4107.41071L25.961,74.06805c2.87566-3.69731,4.519-4.519,6.98366-8.216,2.054-2.465,4.108-6.162,5.75131-5.34036A4.303,4.303,0,0,1,40.33905,61.744c.82165.82165.41095,2.4647-1.23236,4.108-2.87565,3.69706-4.5187,5.75106-7.39436,9.44837l-4.92966,6.162,1.64331.82165v.82165a1.31163,1.31163,0,0,0,1.23235,1.23236,27.24266,27.24266,0,0,0,7.80531,3.69705l2.46471.41095c1.6433.4107,1.23235,1.23236,2.87565,1.64306.4107,0,.82165.82165,1.23235,1.2326-2.4647.8214-4.108-1.6433-4.92966-.41095a1.83407,1.83407,0,0,0,0,2.054c-.4107,0-1.23235-.4107-1.64305-.4107-.41095-.41095-1.2326-.82165-1.6433-1.23235l-.82165-.41095-.4107-.4107a8.94339,8.94339,0,0,0-3.28636-2.054c-.41095,0-1.2326-1.23235-2.054-1.6433-1.64331-.82165-2.465-1.64305-3.69731-2.054l-1.6433,1.6433c.82165.82165,2.054,1.64305,2.87565,2.4647,1.64331,1.23236,2.87566,2.465,4.519,3.69731a19.18828,19.18828,0,0,0,4.108,2.054l1.23235.4107a6.6231,6.6231,0,0,1,2.87566,1.6433c.4107.4107,2.8754.82165,3.28635,1.23235,1.23235,1.23235,6.57271,1.23235,4.92966-.82165a8.94552,8.94552,0,0,0-3.28661-2.054H55.53872c.82166.41095,2.87566-.82166,4.108-1.23236s3.28636-.4107,3.69731-.82165a22.2476,22.2476,0,0,1,6.162-1.64305c.4107,0,.4107,0,.82165-.41095q1.2321-.61605,2.46471-1.23235c2.054-.4107,2.87565-1.23236,4.92965-1.64331.4107,0,1.23236-.4107,1.23236-.8214v-.82165c0-.41095.4107-.41095.82165-.41095,2.054-.8214,4.92941-2.054,5.34036-4.51871,0-.82165-.4107-1.23235-1.23235-.82165a10.76974,10.76974,0,0,1-3.69731,2.054l.4107-.4107c.41095-.41095,1.2326-1.23235,1.6433-1.6433a13.02085,13.02085,0,0,0,2.054-2.4647c.4107-.82166,1.6433-1.64331,2.4647-2.465a7.21,7.21,0,0,0,1.6433-2.054,18.18989,18.18989,0,0,1,4.92966-6.162,8.94472,8.94472,0,0,0,2.054-3.28636,4.7542,4.7542,0,0,1,2.054-2.87566C97.44045,60.10072,97.44045,58.04672,97.0295,57.636ZM37.05269,10.39393a13.38641,13.38641,0,0,1,5.34036-1.6433h5.75131c-.41095,0-.41095.411-.82165.82165a11.37733,11.37733,0,0,0-3.69731.4107l-2.054.41095c-2.054.4107-3.69706.82166-5.75106,1.23236h-.82165ZM12.81535,67.906a9.66986,9.66986,0,0,1-.8214-3.28636l-.411-1.6433-.4107-.82165c-.4107-2.054-1.23235-4.108-1.6433-6.162a2.46877,2.46877,0,0,1,.41095-1.64306c0,.4107.4107.8214.4107,1.23236a76.59728,76.59728,0,0,0,2.054,7.80506c.4107.82165.4107,1.2326.82165,2.054.82165,1.64331,1.64305,1.64331,2.054,3.69731a36.11291,36.11291,0,0,0,2.46471,4.108,2.13379,2.13379,0,0,1,.82165,1.6433A30.63767,30.63767,0,0,1,12.81535,67.906Zm3.6973-37.79372Q15.28018,32.57727,14.048,35.042v-.82165a9.75743,9.75743,0,0,1,1.23235-4.92966,12.47907,12.47907,0,0,1,2.054-2.87566l.82165-1.23235.8214-.82165A26.38965,26.38965,0,0,1,24.318,20.253a5.6438,5.6438,0,0,1,4.92941-1.643c-.4107.4107-.8214.4107-1.23236.82165a22.80979,22.80979,0,0,1-3.28635,2.4647c-.4107,0-1.23235.4107-1.23235.82166,0,.4107-1.64331.82165-2.054,1.23235A9.59768,9.59768,0,0,0,18.56666,26.826C17.745,28.05832,17.33431,28.88,16.51265,30.11232Zm50.9394,58.33375a14.60115,14.60115,0,0,1-4.108.82166,11.76813,11.76813,0,0,1-9.85932.4107c0-.4107.4107-.4107.82165-.4107.4107-.411,1.23235,0,2.054,0,1.23235,0,2.4647,0,3.28635-.82166a53.86643,53.86643,0,0,1,6.162-1.23235,3.10658,3.10658,0,0,1,1.64331.4107h2.054A6.94527,6.94527,0,0,1,67.45205,88.44607ZM81.00842,43.66869a5.23971,5.23971,0,0,1-2.87566,2.054c-2.4647.41095-10.68071,4.108-12.73472,4.108a11.99681,11.99681,0,0,0-3.6973.82166c-.82166.4107-3.69731.4107-4.51871.82165-.41095.4107-1.64331,0-1.64331.82165,0,.8214,1.23236,1.64305,1.64331,2.4647.4107.82166,2.8754,2.46471,3.28635,2.87566a24.58425,24.58425,0,0,1,2.46471,2.87565,5.66333,5.66333,0,0,1,1.23235,1.64306c.41095.82165,1.2326,1.23235,1.6433,1.6433,3.69731,3.69706,4.108,4.51871,4.92966,5.34036s1.23235,1.6433,2.054,2.4647c0,.41095,0,1.23261-.41071,1.23261a2.47091,2.47091,0,0,1-1.6433.4107,3.13678,3.13678,0,0,1-2.054-.82166c-1.64331-1.64305-1.64331-.82165-3.28636-2.87565-.82165-.8214-.82165-1.23235-4.108-4.92941-.41095-.41095-2.054-2.054-2.054-2.465,0-.4107-1.2326-1.23236-1.6433-1.64306-.82165-1.2326-2.054-2.054-2.87566-3.2866-.4107-.4107-1.23235-.8214-1.64305-1.23235-1.6433-.4107-3.28661,2.054-3.28661,2.87565a27.12853,27.12853,0,0,0-.4107,5.75131,39.59937,39.59937,0,0,1,0,9.85907v5.34036c0,.41095-.4107.82165-.4107,1.2326l-.41095.4107c-.4107.4107-1.643,0-1.643-.4107-.41095-.82165-.82165-1.2326-.82165-2.054,0-2.465,0-15.61063.4107-18.897a6.98879,6.98879,0,0,0,.41095-2.87565s.82165-2.054,0-3.28636-2.465-.4107-3.28661-.4107A43.26181,43.26181,0,0,0,36.231,54.76036c-4.51871.82166-12.73472,3.28636-16.02108,2.054a.4024.4024,0,0,0-.41095-.4107,1.834,1.834,0,0,1,0-2.054c.41095-.82165,1.23235-1.2326,1.6433-1.6433a5.79933,5.79933,0,0,1,3.69706-.4107c1.6433,0,16.02133-2.465,16.432-2.465a6.62119,6.62119,0,0,0,2.87565-1.64305c.82166-.82165-2.4647-3.2866-2.4647-3.2866s.4107.41095-3.28636-2.46471a6.03832,6.03832,0,0,0-2.465-2.054A24.79386,24.79386,0,0,1,32.94468,37.096a28.97317,28.97317,0,0,1-3.6973-2.87565,1.98594,1.98594,0,0,1,0-2.87566,1.80648,1.80648,0,0,1,2.054-.4107A20.5684,20.5684,0,0,1,34.588,33.80963c.8214.8214,2.8754,2.8754,5.75106,5.34036,3.6973,2.87565,3.6973,3.697,4.92966,4.5187.4107.41095,1.23235.82165,1.6433,1.23236.8214.41095.4107-1.64306.4107-2.054,0-1.64305-.4107-2.8754-.4107-4.51871-.41095-2.054-.82165-13.14567-.82165-15.19967a7.40644,7.40644,0,0,1,.82165-4.108,2.25883,2.25883,0,0,1,2.054-1.23235c.8214-.4107,1.23235.82165,1.23235.82165v.4107a98.94523,98.94523,0,0,0,0,15.61038v9.03766c0,2.054,2.46471,0,2.46471,0l.41095-.4107a37.02277,37.02277,0,0,1,3.69706-4.108c.82165-1.23236,7.39436-10.681,8.216-11.50237,1.23235-1.64331,2.054-2.054,3.28636-3.69731,0-.4107.82165-.82165,1.2326-.82165a.88356.88356,0,0,1,.8214.82165v1.23235q-1.2321,1.84853-2.4647,3.69731c-.82166,1.23235-7.80532,11.09167-8.62672,12.324-.41095.82165-1.2326,1.64305-1.6433,2.4647-.82165.82165-2.87566,1.64331-3.28636,3.28636-.41095,1.6433.82165,2.465,2.054,2.054a38.01966,38.01966,0,0,1,4.108-1.23235c4.108-1.23235,14.78873-4.51871,18.89674-5.34036h.82165c.4107,0,.82165,0,.82165.4107ZM84.29478,28.88l-.82166-1.64331a27.61881,27.61881,0,0,1-2.8754-4.5187,8.99252,8.99252,0,0,1,3.69706,4.108Z"/></svg>
