<svg width="40" height="40" viewBox="0 0 40 40" fill="none" xmlns="http://www.w3.org/2000/svg">
<g clip-path="url(#clip0_23298_4013)">
<path d="M40 0H0V40H40V0Z" fill="#E7157B" fill-opacity="0.12"/>
<path fill-rule="evenodd" clip-rule="evenodd" d="M14 26.0014H15V21.0014H14V26.0014ZM23 26.0014H24V21.0014H23V26.0014ZM20 26.0014H21V14.0014H20V26.0014ZM17 26.0014H18V18.0014H17V26.0014ZM33 28.8854L14.726 32.9394L7.06196 21.4424L12.813 7.06642L23.05 8.92742L24.004 16.5634C24.038 16.8344 24.269 17.0274 24.556 16.9984L33 16.0604V28.8854ZM33.833 15.1284C33.728 15.0334 33.584 14.9884 33.445 15.0044L24.935 15.9504L23.996 8.43942C23.969 8.22242 23.805 8.04842 23.59 8.00942L12.59 6.00942C12.353 5.96242 12.123 6.09542 12.036 6.31542L6.03596 21.3154C5.97496 21.4684 5.99196 21.6414 6.08396 21.7784L14.084 33.7784C14.178 33.9194 14.335 34.0014 14.5 34.0014C14.536 34.0014 14.573 33.9974 14.609 33.9894L33.609 29.7754C33.837 29.7244 34 29.5214 34 29.2874V15.5014C34 15.3594 33.94 15.2234 33.833 15.1284Z" fill="#E7157B"/>
</g>
<rect x="0.5" y="0.5" width="39" height="39" stroke="#E7157B"/>
<defs>
<clipPath id="clip0_23298_4013">
<rect width="40" height="40" fill="white"/>
</clipPath>
</defs>
</svg>
