<svg width="90" height="90" viewBox="0 0 90 90" fill="none" xmlns="http://www.w3.org/2000/svg">
<path fill-rule="evenodd" clip-rule="evenodd" d="M72.5854 81.102C81.6523 81.102 89.0024 73.7631 89.0024 64.7102C89.0024 55.6572 81.6523 48.3184 72.5854 48.3184C63.5186 48.3184 56.1685 55.6572 56.1685 64.7102C56.1685 73.7631 63.5186 81.102 72.5854 81.102ZM71.7455 71.7204L82.3301 59.6423L80.1143 57.7004L70.4573 68.7201L63.9965 63.5594L62.1577 65.8615L69.7182 71.9006L70.8179 72.779L71.7455 71.7204Z" fill="#326CE5"/>
<path fill-rule="evenodd" clip-rule="evenodd" d="M53.7723 77.72C48.8851 80.1397 43.3784 81.5 37.5536 81.5C17.3642 81.5 0.997559 65.1584 0.997559 45C0.997559 24.8416 17.3642 8.5 37.5536 8.5C56.853 8.5 72.6594 23.4328 74.0152 42.3578C73.7593 42.3494 73.5022 42.3452 73.2442 42.3452C60.5066 42.3452 50.1807 52.6552 50.1807 65.3734C50.1807 69.9162 51.4981 74.1518 53.7723 77.72ZM48.8577 36.7047C48.8577 41.8439 45.5144 46.2035 40.881 47.7334V54.2913H46.8536C47.9582 54.2913 48.8536 55.1867 48.8536 56.2913V58.9276C48.8536 60.0322 47.9582 60.9276 46.8536 60.9276H40.881V64.2368C40.881 65.3413 39.9856 66.2368 38.881 66.2368H36.2345C35.1299 66.2368 34.2345 65.3413 34.2345 64.2368V47.9305C29.2604 46.6124 25.5947 42.086 25.5947 36.7047C25.5947 30.2906 30.8023 25.091 37.2262 25.091C43.6501 25.091 48.8577 30.2906 48.8577 36.7047Z" fill="#326CE5"/>
</svg>