<svg width="90" height="90" viewBox="0 0 90 90" fill="none" xmlns="http://www.w3.org/2000/svg">
<path fill-rule="evenodd" clip-rule="evenodd" d="M24.9027 15.773H23.3481V8.46143C23.3481 7.35686 24.2436 6.46143 25.3481 6.46143H33.0349V8.01595V9.57048H26.4572V15.773H24.9027ZM36.8783 8.01595V6.46143H52.2519V8.01595V9.57048H36.8783V8.01595ZM56.0952 8.01595V6.46143H71.4688V8.01595V9.57048H56.0952V8.01595ZM75.3122 8.01595V6.46143H82.999C84.1035 6.46143 84.999 7.35686 84.999 8.46143V15.773H83.4444H81.8899V9.57048H75.3122V8.01595ZM83.4444 19.4288H84.999V34.052H83.4444H81.8899V19.4288H83.4444ZM83.4444 37.7078H84.999V52.331H83.4444H81.8899V37.7078H83.4444ZM83.4444 55.9868H84.999V63.2984C84.999 64.403 84.1035 65.2984 82.999 65.2984H75.3122V63.7439V62.1893H81.8899V55.9868H83.4444Z" fill="#326CE5"/>
<mask id="path-2-inside-1_26091_15504" fill="white">
<rect x="13.2063" y="16.0923" width="61.6508" height="58.837" rx="2"/>
</mask>
<rect x="13.2063" y="16.0923" width="61.6508" height="58.837" rx="2" stroke="#326CE5" stroke-width="6.21811" stroke-dasharray="16 4" mask="url(#path-2-inside-1_26091_15504)"/>
<path fill-rule="evenodd" clip-rule="evenodd" d="M7.00122 24.7019C5.89665 24.7019 5.00122 25.5973 5.00122 26.7019V81.5389C5.00122 82.6434 5.89665 83.5389 7.00122 83.5389H64.652C65.7566 83.5389 66.652 82.6434 66.652 81.5389V26.7019C66.652 25.5973 65.7566 24.7019 64.652 24.7019H7.00122ZM50.8812 44.1355C50.8812 48.0759 44.1924 51.2702 35.9412 51.2702C27.6901 51.2702 21.0012 48.0759 21.0012 44.1355C21.0012 40.1951 27.6901 37.0007 35.9412 37.0007C44.1924 37.0007 50.8812 40.1951 50.8812 44.1355ZM21.009 46.7901V64.8674V64.8676C21.009 68.808 27.6979 72.0023 35.949 72.0023C44.2002 72.0023 50.889 68.808 50.889 64.8676V64.8674V46.7928C49.3736 49.9894 43.2605 52.3806 35.9497 52.3806C28.6369 52.3806 22.5223 49.9881 21.009 46.7901Z" fill="#326CE5"/>
</svg>
