<svg viewBox="0 0 1500 1500" fill="none" xmlns="http://www.w3.org/2000/svg">
<mask id="emissary-mark-mask-color" mask-type="alpha" maskUnits="userSpaceOnUse" x="0" y="0" width="1500" height="1500">
<path d="M750 1500C1164.21 1500 1500 1164.21 1500 750C1500 335.786 1164.21 0 750 0C335.786 0 0 335.786 0 750C0 1164.21 335.786 1500 750 1500Z" fill="white"/>
</mask>
<g mask="url(#emissary-mark-mask-color)">
<path d="M1500 749.999C1500 348.617 1151.38 -0.00146484 749.998 -0.00146484C348.617 -0.000533859 0 348.619 0 750C0 1151.38 348.618 1500 750 1500C1151.38 1500 1500 1151.38 1500 749.999Z" fill="white"/>
<path d="M750.605 312.755C473.885 312.755 204.334 476.637 204.334 804.399C204.334 1003.75 305.491 1076.49 305.491 1207.41C305.491 1338.34 247.303 1274.64 247.303 1274.64C247.303 1274.64 409.181 1480.6 750.605 1480.6C1092.03 1480.6 1246.47 1274.64 1246.47 1274.64C1246.47 1274.64 1178.32 1338.34 1178.32 1221.96C1178.32 1091.04 1296.88 989.207 1296.88 804.399C1296.88 476.637 1027.33 312.755 750.605 312.755Z" fill="#272733"/>
<path d="M864.834 878.895L760.546 1087.47V829.234C810.207 829.234 864.834 878.895 864.834 878.895Z" fill="white"/>
<path d="M651.283 878.896C651.283 878.896 710.876 829.235 760.537 829.235V1087.47L651.283 878.896Z" fill="white"/>
<path d="M1039.3 830.344C956.492 877.098 805.683 768.279 805.683 768.279C847.628 726.973 1060.39 519.833 1105.51 598.983C1151.75 679.995 1122.1 783.59 1039.3 830.344Z" fill="white"/>
<path d="M475.122 826.203C393.034 778.271 364.92 674.267 412.34 593.92C458.671 515.387 668.28 725.732 709.658 767.62C709.658 767.62 557.209 874.185 475.122 826.203Z" fill="white"/>
<circle cx="944.194" cy="726.653" r="56.3296" fill="#272733"/>
<circle cx="577.818" cy="726.653" r="56.3296" fill="#272733"/>
<path d="M993.948 360.313C1041.45 327.046 1071.39 280.966 1063.47 216.948C986.779 202.808 893.56 284.718 835.033 333.407C824.233 332.858 806.241 331.851 795.304 331.805C874.697 243.443 949.76 137.783 864.829 136.868C800.857 136.181 749.066 221.432 705.914 306.225C743.254 208.665 764.247 102.822 656.253 121.172C549.221 139.339 604.815 258.955 636.389 351.253L993.948 360.313Z" fill="#272733"/>
<path fill-rule="evenodd" clip-rule="evenodd" d="M749.271 51.5874C363.95 51.5874 51.5856 363.952 51.5856 749.273C51.5856 1134.59 363.95 1446.96 749.271 1446.96C1134.59 1446.96 1446.96 1134.59 1446.96 749.273C1446.96 363.952 1134.59 51.5874 749.271 51.5874ZM-6.60303 749.273C-6.60303 331.815 331.813 -6.6012 749.271 -6.6012C1166.73 -6.6012 1505.14 331.815 1505.14 749.273C1505.14 1166.73 1166.73 1505.15 749.271 1505.15C331.813 1505.15 -6.60303 1166.73 -6.60303 749.273Z" fill="#272733"/>
</g>
</svg>