<svg width="90" height="66" viewBox="0 0 90 66" fill="none" xmlns="http://www.w3.org/2000/svg">
<path d="M4.08998 0.5C1.83115 0.5 0 2.33115 0 4.58998V61.41C0 63.6689 1.83115 65.5 4.08998 65.5H85.91C88.1688 65.5 90 63.6689 90 61.41V4.58998C90 2.33115 88.1689 0.5 85.91 0.5H4.08998ZM18.773 47.9214C18.773 49.1478 17.8528 50.1698 16.7485 50.1698C15.6442 50.1698 14.7239 49.1478 14.7239 47.9214V18.283C14.7239 17.0566 15.6442 16.0346 16.7485 16.0346C17.8528 16.0346 18.773 17.0566 18.773 18.283V47.9214ZM37.7301 47.9214C37.7301 49.1478 36.8098 50.1698 35.7055 50.1698C34.6012 50.1698 33.681 49.1478 33.681 47.9214V18.283C33.681 17.0566 34.6012 16.0346 35.7055 16.0346C36.8098 16.0346 37.7301 17.0566 37.7301 18.283V47.9214ZM56.5031 47.9214C56.5031 49.1478 55.5828 50.1698 54.4785 50.1698C53.3742 50.1698 52.454 49.1478 52.454 47.9214V18.283C52.454 17.0566 53.3742 16.0346 54.4785 16.0346C55.5828 16.0346 56.5031 17.0566 56.5031 18.283V47.9214ZM75.2761 47.9214C75.2761 49.1478 74.3558 50.1698 73.2515 50.1698C72.1472 50.1698 71.227 49.1478 71.227 47.9214V18.283C71.227 17.0566 72.1472 16.0346 73.2515 16.0346C74.3558 16.0346 75.2761 17.0566 75.2761 18.283V47.9214Z" fill="white"/>
</svg>
