<svg xmlns="http://www.w3.org/2000/svg" viewBox="0 0 98 108.79"><defs><style>.cls-1{fill:#fff;fill-rule:evenodd;}</style></defs><g id="Layer_2" data-name="Layer 2"><g id="Layer_1-2" data-name="Layer 1"><path class="cls-1" d="M54.19,14.81A8.43,8.43,0,0,1,51,16.63V42A14,14,0,0,1,62.21,60.5L83.32,72.66a8.5,8.5,0,0,1,4.48-2.49V34.1ZM40,7.9a8.5,8.5,0,0,1,17,.22L92,28.21a6,6,0,0,1,3,5.2V72a8.5,8.5,0,0,1-5.5,15,8.65,8.65,0,0,1-3-.55L51.35,107.91a6,6,0,0,1-6.34,0l-34.74-22A7.94,7.94,0,0,1,8.5,86,8.5,8.5,0,0,1,3,71V33.38a6,6,0,0,1,2.93-5.15Zm2.66,6.8L10.2,34.06V69.17a8.41,8.41,0,0,1,3.62,1.7L35.21,58.31A14.25,14.25,0,0,1,35,55.85,14,14,0,0,1,46.2,42.13V16.69A8.67,8.67,0,0,1,42.68,14.7ZM16.22,81.06l32,20.32L81.41,81.11A8.34,8.34,0,0,1,81,78.5,8.76,8.76,0,0,1,81.14,77L59.86,64.68a14,14,0,0,1-23-1.79L16.57,74.83a8.51,8.51,0,0,1-.35,6.23Z"/></g></g></svg>