<svg version="1.1"
	 id="svg2343" xmlns:dc="http://purl.org/dc/elements/1.1/" xmlns:svg="http://www.w3.org/2000/svg" xmlns:cc="http://creativecommons.org/ns#" xmlns:rdf="http://www.w3.org/1999/02/22-rdf-syntax-ns#" xmlns:sodipodi="http://sodipodi.sourceforge.net/DTD/sodipodi-0.dtd" xmlns:inkscape="http://www.inkscape.org/namespaces/inkscape" inkscape:version="0.92.3 (2405546, 2018-03-11)" sodipodi:docname="camel-1.svg"
	 xmlns="http://www.w3.org/2000/svg" xmlns:xlink="http://www.w3.org/1999/xlink" x="0px" y="0px" viewBox="0 0 116.3 116.2"
	 style="enable-background:new 0 0 116.3 116.2;" xml:space="preserve" width='116.3' height='116.2'>
<style type="text/css">
	.st0{opacity:0.8;fill:#FFFFFF;enable-background:new    ;}
	.st1{fill:#FFFFFF;}
	.st2{opacity:0.9;fill:#FFFFFF;enable-background:new    ;}
	.st3{opacity:0.7;fill:#FFFFFF;enable-background:new    ;}
</style>
<g>
	<path class="st0" d="M88.4,107.8c0,0-0.1,0.1-0.1,0.1C88.3,107.8,88.4,107.8,88.4,107.8z"/>
	<path class="st0" d="M38.6,35.1C38.7,35.1,38.7,35.1,38.6,35.1c1.5-0.5,2.7-0.8,3.6-0.8c0.8,0,1.6,0,2.4,0c4.5,0,9,0.4,13.3,1.2
		c-1.2-2.9-3-9,0.7-10.9c0.4-0.2,0.8-0.3,1.2-0.2c3,0.2,6.3,5.3,6.3,5.2h7.5c1.4,0,3.6,2.5,5,2.5h20c2.5,0,10,7.5,7.5,12.5
		c-0.9,1.8-8.9,2.4-16.6,3.9c9.4,6.3,17.9,14.1,25.2,22.7c-2.4,10.3-7.5,19.5-14.5,26.9c9.9-10.4,16.1-24.5,16.1-40.1
		C116.4,26,90.3,0,58.3,0C27.8,0,2.8,23.5,0.4,53.4c1.4,1,2.9,2,4.3,3.1C18.1,45.6,31.3,37.6,38.6,35.1z"/>
	<path class="st0" d="M83.5,110.4c-0.1,0-0.1,0.1-0.2,0.1C83.4,110.5,83.5,110.4,83.5,110.4z"/>
	<path class="st0" d="M86.1,109.1c-0.1,0-0.2,0.1-0.2,0.1C85.9,109.2,86,109.2,86.1,109.1z"/>
	<path class="st0" d="M99.8,98.7c-0.4,0.4-0.8,0.8-1.1,1.1C99,99.5,99.4,99.1,99.8,98.7z"/>
	<path class="st0" d="M97.9,100.6c-0.3,0.3-0.7,0.6-1,0.9C97.2,101.2,97.5,100.9,97.9,100.6z"/>
	<path class="st0" d="M95.8,102.4c-0.3,0.2-0.6,0.5-0.9,0.7C95.2,102.9,95.5,102.7,95.8,102.4z"/>
	<path class="st0" d="M61.3,105c-1.2,3.7-2.7,7.4-4.6,11.1c-9.5-0.3-18.5-2.8-26.4-7.1c0,0-0.1,0-0.1,0c8,4.4,17.2,7,27,7.2
		c-0.2,0-0.4,0-0.6,0C58.6,112.5,60.1,108.8,61.3,105z"/>
	<path class="st0" d="M93.5,104.3c-0.2,0.1-0.4,0.3-0.5,0.4C93.1,104.6,93.3,104.4,93.5,104.3z"/>
	<path class="st1" d="M1.1,68.2c-0.1-0.7-0.2-1.3-0.3-2C0.8,66.9,1,67.5,1.1,68.2z"/>
	<path class="st0" d="M1.1,68.2c-0.1-0.7-0.2-1.3-0.3-2C0.8,66.9,1,67.5,1.1,68.2z"/>
	<path class="st1" d="M0.6,65.3c-0.1-0.6-0.1-1.2-0.2-1.9C0.5,64.1,0.6,64.7,0.6,65.3z"/>
	<path class="st0" d="M0.6,65.3c-0.1-0.6-0.1-1.2-0.2-1.9C0.5,64.1,0.6,64.7,0.6,65.3z"/>
	<path class="st1" d="M0.3,62.3c0-0.6-0.1-1.1-0.1-1.7C0.3,61.2,0.3,61.7,0.3,62.3z"/>
	<path class="st0" d="M0.3,62.3c0-0.6-0.1-1.1-0.1-1.7C0.3,61.2,0.3,61.7,0.3,62.3z"/>
	<path class="st1" d="M2.4,73.9c-0.2-0.8-0.4-1.5-0.6-2.3C2,72.4,2.2,73.1,2.4,73.9z"/>
	<path class="st0" d="M2.4,73.9c-0.2-0.8-0.4-1.5-0.6-2.3C2,72.4,2.2,73.1,2.4,73.9z"/>
	<path class="st1" d="M3.2,76.6c-0.3-0.8-0.5-1.6-0.8-2.4C2.7,75,2.9,75.8,3.2,76.6z"/>
	<path class="st0" d="M3.2,76.6c-0.3-0.8-0.5-1.6-0.8-2.4C2.7,75,2.9,75.8,3.2,76.6z"/>
	<path class="st1" d="M1.7,71.1c-0.2-0.7-0.3-1.4-0.4-2.1C1.3,69.7,1.5,70.4,1.7,71.1z"/>
	<path class="st0" d="M1.7,71.1c-0.2-0.7-0.3-1.4-0.4-2.1C1.3,69.7,1.5,70.4,1.7,71.1z"/>
	<path class="st1" d="M0.2,60.2c1.5-1.3,3-2.5,4.5-3.7c-1.4-1.1-2.9-2.2-4.3-3.1c-0.1,1.6-0.2,3.1-0.2,4.7
		C0.2,58.8,0.2,59.5,0.2,60.2z"/>
	<path class="st0" d="M0.2,60.2c1.5-1.3,3-2.5,4.5-3.7c-1.4-1.1-2.9-2.2-4.3-3.1c-0.1,1.6-0.2,3.1-0.2,4.7
		C0.2,58.8,0.2,59.5,0.2,60.2z"/>
	<path class="st2" d="M92.9,104.7c-1.5,1.1-3,2.1-4.5,3C90,106.8,91.5,105.8,92.9,104.7z"/>
	<path class="st2" d="M88.3,107.8c-0.7,0.4-1.5,0.9-2.2,1.3C86.8,108.7,87.5,108.3,88.3,107.8z"/>
	<path class="st2" d="M85.8,109.2c-0.7,0.4-1.5,0.8-2.3,1.2C84.3,110,85.1,109.7,85.8,109.2z"/>
	<path class="st2" d="M98.7,99.8c-0.3,0.3-0.5,0.5-0.8,0.7C98.1,100.3,98.4,100.1,98.7,99.8z"/>
	<path class="st2" d="M100.3,98.2c-0.2,0.2-0.3,0.4-0.5,0.5C100,98.5,100.1,98.3,100.3,98.2z"/>
	<path class="st2" d="M94.9,103.1c-0.5,0.4-1,0.8-1.5,1.2C94,103.9,94.5,103.5,94.9,103.1z"/>
	<path class="st2" d="M96.9,101.5c-0.3,0.3-0.7,0.6-1,0.9C96.2,102.1,96.5,101.8,96.9,101.5z"/>
	<path class="st2" d="M57.3,116.2c0.3,0,0.6,0,1,0c9,0,17.5-2.1,25.1-5.7c-7.6,3.6-16.1,5.7-25.1,5.7
		C57.9,116.2,57.6,116.2,57.3,116.2z"/>
	<path class="st0" d="M114.8,71.2c-7.3-8.6-15.8-16.5-25.2-22.7c-5.7,1.2-11.3,2.9-13.4,6.1c-4.1,6.2-7.4,15.7-12.3,25.4
		c0.8,8.2,0,16.7-2.6,25.1c-1.2,3.7-2.7,7.5-4.6,11.1c0.2,0,0.4,0,0.6,0c0.3,0,0.6,0,1,0c9,0,17.5-2,25.1-5.7c0.1,0,0.1-0.1,0.2-0.1
		c0.8-0.4,1.5-0.8,2.3-1.2c0.1,0,0.2-0.1,0.2-0.1c0.8-0.4,1.5-0.8,2.2-1.3c0,0,0.1-0.1,0.1-0.1c1.6-0.9,3.1-2,4.5-3
		c0.2-0.1,0.4-0.3,0.5-0.4c0.5-0.4,1-0.8,1.5-1.2c0.3-0.2,0.6-0.5,0.9-0.7c0.4-0.3,0.7-0.6,1-0.9c0.3-0.3,0.7-0.6,1-0.9
		c0.3-0.2,0.5-0.5,0.8-0.7c0.4-0.4,0.8-0.7,1.1-1.1c0.2-0.2,0.3-0.4,0.5-0.5C107.3,90.8,112.4,81.5,114.8,71.2z"/>
	<path class="st2" d="M114.8,71.2c-7.3-8.6-15.8-16.5-25.2-22.7c-5.7,1.2-11.3,2.9-13.4,6.1c-4.1,6.2-7.4,15.7-12.3,25.4
		c0.8,8.2,0,16.7-2.6,25.1c-1.2,3.7-2.7,7.5-4.6,11.1c0.2,0,0.4,0,0.6,0c0.3,0,0.6,0,1,0c9,0,17.5-2,25.1-5.7c0.1,0,0.1-0.1,0.2-0.1
		c0.8-0.4,1.5-0.8,2.3-1.2c0.1,0,0.2-0.1,0.2-0.1c0.8-0.4,1.5-0.8,2.2-1.3c0,0,0.1-0.1,0.1-0.1c1.6-0.9,3.1-2,4.5-3
		c0.2-0.1,0.4-0.3,0.5-0.4c0.5-0.4,1-0.8,1.5-1.2c0.3-0.2,0.6-0.5,0.9-0.7c0.4-0.3,0.7-0.6,1-0.9c0.3-0.3,0.7-0.6,1-0.9
		c0.3-0.2,0.5-0.5,0.8-0.7c0.4-0.4,0.8-0.7,1.1-1.1c0.2-0.2,0.3-0.4,0.5-0.5C107.3,90.8,112.4,81.5,114.8,71.2z"/>
	<path class="st0" d="M50.6,46.9c2-3.5,4.5-6.9,8-9.8c0,0-0.3-0.6-0.7-1.6c-4.3-0.8-8.7-1.2-13.3-1.2c-0.8,0-1.6,0-2.4,0
		c-0.9,0-2.2,0.3-3.6,0.8C43.2,38.6,47.2,42.5,50.6,46.9z"/>
	<path class="st2" d="M50.6,46.9c2-3.5,4.5-6.9,8-9.8c0,0-0.3-0.6-0.7-1.6c-4.3-0.8-8.7-1.2-13.3-1.2c-0.8,0-1.6,0-2.4,0
		c-0.9,0-2.2,0.3-3.6,0.8C43.2,38.6,47.2,42.5,50.6,46.9z"/>
	<path class="st1" d="M0.8,66.2c0-0.3-0.1-0.6-0.1-0.9C0.7,65.6,0.7,65.9,0.8,66.2z"/>
	<path class="st3" d="M0.8,66.2c0-0.3-0.1-0.6-0.1-0.9C0.7,65.6,0.7,65.9,0.8,66.2z"/>
	<path class="st1" d="M0.4,63.4c0-0.4-0.1-0.7-0.1-1.1C0.4,62.7,0.4,63.1,0.4,63.4z"/>
	<path class="st3" d="M0.4,63.4c0-0.4-0.1-0.7-0.1-1.1C0.4,62.7,0.4,63.1,0.4,63.4z"/>
	<path class="st1" d="M1.2,68.9c0-0.2-0.1-0.5-0.1-0.7C1.1,68.5,1.2,68.7,1.2,68.9z"/>
	<path class="st3" d="M1.2,68.9c0-0.2-0.1-0.5-0.1-0.7C1.1,68.5,1.2,68.7,1.2,68.9z"/>
	<path class="st1" d="M0.2,60.2c0,0.1,0,0.2,0,0.3C0.2,60.5,0.2,60.4,0.2,60.2C0.2,60.2,0.2,60.2,0.2,60.2z"/>
	<path class="st3" d="M0.2,60.2c0,0.1,0,0.2,0,0.3C0.2,60.5,0.2,60.4,0.2,60.2C0.2,60.2,0.2,60.2,0.2,60.2z"/>
	<path class="st1" d="M1.8,71.6c0-0.2-0.1-0.3-0.1-0.5C1.7,71.3,1.7,71.4,1.8,71.6z"/>
	<path class="st3" d="M1.8,71.6c0-0.2-0.1-0.3-0.1-0.5C1.7,71.3,1.7,71.4,1.8,71.6z"/>
	<path class="st1" d="M2.5,74.2c0-0.1-0.1-0.2-0.1-0.3C2.4,74,2.4,74.1,2.5,74.2z"/>
	<path class="st3" d="M2.5,74.2c0-0.1-0.1-0.2-0.1-0.3C2.4,74,2.4,74.1,2.5,74.2z"/>
	<path class="st1" d="M3.2,76.7C3.2,76.7,3.2,76.7,3.2,76.7C3.2,76.7,3.2,76.7,3.2,76.7z"/>
	<path class="st3" d="M3.2,76.7C3.2,76.7,3.2,76.7,3.2,76.7C3.2,76.7,3.2,76.7,3.2,76.7z"/>
	<path class="st0" d="M63.9,80c-4.6,9.1-10.7,18.3-20.2,24.7c-3.6,2.4-8.4,3.7-13.3,4.3c7.9,4.3,16.8,6.9,26.4,7.1
		c1.9-3.6,3.4-7.3,4.6-11.1C63.9,96.7,64.7,88.2,63.9,80z"/>
	<path class="st3" d="M63.9,80c-4.6,9.1-10.7,18.3-20.2,24.7c-3.6,2.4-8.4,3.7-13.3,4.3c7.9,4.3,16.8,6.9,26.4,7.1
		c1.9-3.6,3.4-7.3,4.6-11.1C63.9,96.7,64.7,88.2,63.9,80z"/>
	<path class="st0" d="M50.6,46.9c-3.4-4.4-7.4-8.3-12-11.8c0,0,0,0,0,0c0,0,0,0,0,0c-7.3,2.5-20.5,10.5-34,21.4
		C13.1,63,21.2,71,29.3,71C42.7,71,44,58.4,50.6,46.9z"/>
	<path class="st3" d="M50.6,46.9c-3.4-4.4-7.4-8.3-12-11.8c0,0,0,0,0,0c0,0,0,0,0,0c-7.3,2.5-20.5,10.5-34,21.4
		C13.1,63,21.2,71,29.3,71C42.7,71,44,58.4,50.6,46.9z"/>
	<path class="st0" d="M50.6,46.9C50.6,46.9,50.6,46.9,50.6,46.9c-3.4-4.4-7.4-8.3-11.9-11.8c0,0,0,0,0,0
		C43.2,38.6,47.2,42.6,50.6,46.9z"/>
	<path class="st2" d="M50.6,46.9C50.6,46.9,50.6,46.9,50.6,46.9c-3.4-4.4-7.4-8.3-11.9-11.8c0,0,0,0,0,0
		C43.2,38.6,47.2,42.6,50.6,46.9z"/>
	<path class="st3" d="M50.6,46.9C50.6,46.9,50.6,46.9,50.6,46.9c-3.4-4.4-7.4-8.3-11.9-11.8c0,0,0,0,0,0
		C43.2,38.6,47.2,42.6,50.6,46.9z"/>
	<path class="st0" d="M61.3,105c2.6-8.3,3.4-16.8,2.6-25.1c0,0,0,0,0,0C64.7,88.2,63.9,96.7,61.3,105z"/>
	<path class="st2" d="M61.3,105c2.6-8.3,3.4-16.8,2.6-25.1c0,0,0,0,0,0C64.7,88.2,63.9,96.7,61.3,105z"/>
	<path class="st3" d="M61.3,105c2.6-8.3,3.4-16.8,2.6-25.1c0,0,0,0,0,0C64.7,88.2,63.9,96.7,61.3,105z"/>
	<path class="st1" d="M50.6,46.9c7.5,9.6,12.1,21,13.3,33.1c0,0,0,0,0,0C62.7,67.9,58.1,56.5,50.6,46.9
		C50.6,46.9,50.6,46.9,50.6,46.9z"/>
	<path class="st0" d="M50.6,46.9c7.5,9.6,12.1,21,13.3,33.1c0,0,0,0,0,0C62.7,67.9,58.1,56.5,50.6,46.9
		C50.6,46.9,50.6,46.9,50.6,46.9z"/>
	<path class="st2" d="M50.6,46.9c7.5,9.6,12.1,21,13.3,33.1c0,0,0,0,0,0C62.7,67.9,58.1,56.5,50.6,46.9
		C50.6,46.9,50.6,46.9,50.6,46.9z"/>
	<path class="st3" d="M50.6,46.9c7.5,9.6,12.1,21,13.3,33.1c0,0,0,0,0,0C62.7,67.9,58.1,56.5,50.6,46.9
		C50.6,46.9,50.6,46.9,50.6,46.9z"/>
</g>
</svg>