<svg width="40" height="40" viewBox="0 0 40 40" fill="none" xmlns="http://www.w3.org/2000/svg">
<g clip-path="url(#clip0_23295_3271)">
<path d="M40 0H0V40H40V0Z" fill="#ED7100" fill-opacity="0.12"/>
<path fill-rule="evenodd" clip-rule="evenodd" d="M24.2964 31H28.2974V27H24.2964V31ZM29.2974 26.5V31.5C29.2974 31.776 29.0734 32 28.7974 32H23.7964C23.5194 32 23.2964 31.776 23.2964 31.5V26.5C23.2964 26.224 23.5194 26 23.7964 26H28.7974C29.0734 26 29.2974 26.224 29.2974 26.5ZM31.7974 23H26.7974C26.5204 23 26.2974 23.224 26.2974 23.5V24.5C26.2974 24.776 26.5204 25 26.7974 25C27.0734 25 27.2974 24.776 27.2974 24.5V24H31.2974V28H30.7974C30.5204 28 30.2974 28.224 30.2974 28.5C30.2974 28.776 30.5204 29 30.7974 29H31.7974C32.0734 29 32.2974 28.776 32.2974 28.5V23.5C32.2974 23.224 32.0734 23 31.7974 23ZM12.2974 13H16.2974V9H12.2974V13ZM11.2974 13.5V8.5C11.2974 8.224 11.5204 8 11.7974 8H16.7974C17.0734 8 17.2974 8.224 17.2974 8.5V13.5C17.2974 13.776 17.0734 14 16.7974 14H11.7974C11.5204 14 11.2974 13.776 11.2974 13.5ZM7.79738 17H12.7974C13.0734 17 13.2974 16.776 13.2974 16.5V15.5C13.2974 15.224 13.0734 15 12.7974 15C12.5204 15 12.2974 15.224 12.2974 15.5V16H8.29738V12H8.79738C9.07338 12 9.29738 11.776 9.29738 11.5C9.29738 11.224 9.07338 11 8.79738 11H7.79738C7.52038 11 7.29738 11.224 7.29738 11.5V16.5C7.29738 16.776 7.52038 17 7.79738 17ZM33.3734 21.982C33.2984 22.248 33.0204 22.403 32.7554 22.327C32.4894 22.252 32.3354 21.976 32.4104 21.71C32.7994 20.341 32.5484 18.839 31.7554 17.79C31.0134 16.809 29.8794 16.291 28.4744 16.291C24.8524 16.291 22.8694 18.311 20.9094 20.582C22.1384 21.986 23.4344 23.364 25.0524 24.14C25.3014 24.26 25.4054 24.558 25.2864 24.807C25.1994 24.986 25.0204 25.091 24.8354 25.091C24.7614 25.091 24.6884 25.075 24.6184 25.042C22.8684 24.201 21.5174 22.791 20.2494 21.347C18.3324 23.585 16.3044 25.818 12.7944 25.818C10.8414 25.818 9.17338 25.025 8.09738 23.584C7.07138 22.209 6.73938 20.443 7.20938 18.86C7.28738 18.596 7.56238 18.444 7.83138 18.522C8.09538 18.601 8.24638 18.879 8.16838 19.144C7.79338 20.408 8.07338 21.88 8.89938 22.986C9.78138 24.167 11.1644 24.818 12.7944 24.818C15.9084 24.818 17.7094 22.779 19.5864 20.586C18.1704 18.956 16.8164 17.435 15.0324 16.717C14.7764 16.614 14.6514 16.323 14.7554 16.067C14.8574 15.81 15.1484 15.687 15.4054 15.79C17.3624 16.577 18.8374 18.202 20.2454 19.819C22.2594 17.496 24.4774 15.291 28.4744 15.291C30.1794 15.291 31.6284 15.964 32.5534 17.187C33.5304 18.48 33.8444 20.318 33.3734 21.982Z" fill="#ED7100"/>
</g>
<rect x="0.5" y="0.5" width="39" height="39" stroke="#ED7100"/>
<defs>
<clipPath id="clip0_23295_3271">
<rect width="40" height="40" fill="white"/>
</clipPath>
</defs>
</svg>
