<svg width="84" height="77" viewBox="0 0 84 77" fill="none" xmlns="http://www.w3.org/2000/svg">
<path fill-rule="evenodd" clip-rule="evenodd" d="M30.19 0C29.6596 0 29.1509 0.210714 28.7758 0.585786C28.4007 0.960859 28.19 1.46957 28.19 2V24.45C28.19 24.9804 28.4007 25.4891 28.7758 25.8642C29.1509 26.2393 29.6596 26.45 30.19 26.45H38.78V38.22H11.17V50.55H2C1.46957 50.55 0.960859 50.7607 0.585786 51.1358C0.210714 51.5109 0 52.0196 0 52.55L0 75C0 75.5304 0.210714 76.0391 0.585786 76.4142C0.960859 76.7893 1.46957 77 2 77H24.43C24.9604 77 25.4691 76.7893 25.8442 76.4142C26.2193 76.0391 26.43 75.5304 26.43 75V52.55C26.43 52.0196 26.2193 51.5109 25.8442 51.1358C25.4691 50.7607 24.9604 50.55 24.43 50.55H15.85V42.9H68.45V50.55H59.57C59.0396 50.55 58.5309 50.7607 58.1558 51.1358C57.7807 51.5109 57.57 52.0196 57.57 52.55V75C57.57 75.5304 57.7807 76.0391 58.1558 76.4142C58.5309 76.7893 59.0396 77 59.57 77H82C82.5304 77 83.0391 76.7893 83.4142 76.4142C83.7893 76.0391 84 75.5304 84 75V52.55C84 52.0196 83.7893 51.5109 83.4142 51.1358C83.0391 50.7607 82.5304 50.55 82 50.55H73.12V38.22H43.46V26.45H52.63C53.1604 26.45 53.6691 26.2393 54.0442 25.8642C54.4193 25.4891 54.63 24.9804 54.63 24.45V2C54.63 1.46957 54.4193 0.960859 54.0442 0.585786C53.6691 0.210714 53.1604 0 52.63 0L30.19 0Z" fill="white"/>
</svg>