<svg width="90" height="90" viewBox="0 0 90 90" fill="none" xmlns="http://www.w3.org/2000/svg">
<path d="M83.6045 16.3143C83.6045 14.6514 82.815 13.2153 81.6999 12.05C80.593 10.8934 79.0664 9.89122 77.2891 9.0222L76.4473 10.7439C75.356 10.2103 74.1128 9.70672 72.7351 9.23842L73.3519 7.42392C69.0075 5.94709 63.4568 4.82981 57.2176 4.19249L57.0229 6.09903C55.7215 5.9661 54.3868 5.85415 53.0236 5.76454L53.1493 3.8522C50.5243 3.67966 47.7971 3.58878 44.9996 3.58878C42.2022 3.58878 39.475 3.67966 36.85 3.8522L36.9757 5.76454C35.6124 5.85415 34.2778 5.9661 32.9764 6.09903L32.7817 4.19249C26.5424 4.82981 20.9918 5.94709 16.6474 7.42392L17.2642 9.23842C15.8865 9.70672 14.6433 10.2103 13.552 10.7439L12.7102 9.0222C10.9329 9.89122 9.40624 10.8934 8.29942 12.05C7.18426 13.2153 6.39481 14.6514 6.39481 16.3143C6.39481 17.9772 7.18426 19.4133 8.29942 20.5786C9.40624 21.7352 10.9329 22.7373 12.7102 23.6064L13.552 21.8847C14.6432 22.4183 15.8865 22.9218 17.2642 23.3901L16.6474 25.2046C20.9918 26.6815 26.5424 27.7988 32.7817 28.4361L32.9764 26.5295C34.2778 26.6625 35.6124 26.7744 36.9757 26.864L36.85 28.7764C39.475 28.9489 42.2022 29.0398 44.9996 29.0398C47.7971 29.0398 50.5243 28.9489 53.1493 28.7764L53.0236 26.864C54.3868 26.7744 55.7215 26.6625 57.0229 26.5295L57.2176 28.4361C63.4568 27.7988 69.0075 26.6815 73.3519 25.2046L72.7351 23.3901C74.1128 22.9218 75.356 22.4183 76.4473 21.8847L77.2891 23.6064C79.0664 22.7373 80.593 21.7352 81.6999 20.5786C82.815 19.4133 83.6045 17.9772 83.6045 16.3143Z" stroke="white" stroke-width="3.83293" stroke-dasharray="16 4"/>
<path fill-rule="evenodd" clip-rule="evenodd" d="M81.6721 57.9656V71.3181C81.6721 72.7311 81.3574 73.6236 80.811 74.0897C78.5467 76.0209 73.8537 77.6976 67.4801 78.8702C61.2189 80.0221 53.6868 80.6287 46.0837 80.6605C38.481 80.6923 30.8693 80.149 24.4487 79.027C17.9354 77.8889 12.9628 76.2056 10.3615 74.1629C9.65387 73.6073 9.24983 72.5438 9.22386 71.0046L9.00017 57.7488C9.2956 57.992 9.59577 58.219 9.89488 58.4301C12.2032 60.0591 15.2944 61.3698 18.7691 62.407C25.7678 64.4961 35.2073 65.733 45.4711 65.733C55.7349 65.733 65.1744 64.4961 72.1731 62.407C75.6478 61.3698 78.739 60.0591 81.0473 58.4301C81.2557 58.283 81.4646 58.1282 81.6721 57.9656ZM81.6721 50.8235V51.3587C81.1963 57.2047 65.1707 61.9001 45.4711 61.9001C25.4718 61.9001 9.25921 57.0607 9.25921 51.0911C9.25921 45.1214 25.4718 40.282 45.4711 40.282C65.1707 40.282 81.1963 44.9775 81.6721 50.8235ZM85.5051 50.6894V16.7842H81.6721V44.2166C81.4646 44.054 81.2557 43.8992 81.0473 43.7521C78.739 42.1231 75.6478 40.8123 72.1731 39.7751C65.1744 37.6861 55.7349 36.4491 45.4711 36.4491C35.2073 36.4491 25.7678 37.6861 18.7691 39.7751C15.2944 40.8123 12.2032 42.1231 9.89488 43.7521C9.52067 44.0162 9.1448 44.3052 8.77861 44.6195L8.31627 17.2218L4.48389 17.2865L5.39147 71.0693C5.42483 73.0463 5.93597 75.5612 7.99421 77.1774L9.14315 75.7143L7.99421 77.1774C11.3942 79.8473 17.19 81.6496 23.789 82.8027C30.4808 83.9721 38.3254 84.5259 46.0997 84.4934C53.8737 84.4609 61.6395 83.842 68.1736 82.6399C74.5954 81.4584 80.1953 79.6526 83.2983 77.0059C85.1562 75.4212 85.5051 73.0652 85.5051 71.3181V51.4928C85.5123 51.3604 85.5159 51.2265 85.5159 51.0911C85.5159 50.9557 85.5123 50.8218 85.5051 50.6894Z" fill="white"/>
</svg>