<svg width="90" height="90" viewBox="0 0 90 90" fill="none" xmlns="http://www.w3.org/2000/svg">
<path fill-rule="evenodd" clip-rule="evenodd" d="M28.783 15.8108H7.16387C5.96974 15.8108 5.00171 16.7788 5.00171 17.973V39.5945C10.9716 39.5954 15.8108 44.4352 15.8108 50.4053C15.8108 56.3754 10.9716 61.2152 5.00171 61.2161V82.8378C5.00171 84.032 5.96974 85 7.16387 85H28.783V84.9996C28.783 79.0289 33.6231 74.1887 39.5938 74.1887C45.5644 74.1887 50.4046 79.0289 50.4046 84.9996V85H72.0287C73.2229 85 74.1909 84.032 74.1909 82.8378V61.2163C80.16 61.2145 84.9983 56.3751 84.9983 50.4055C84.9983 44.436 80.16 39.5965 74.1909 39.5947V17.973C74.1909 16.7788 73.2229 15.8108 72.0287 15.8108H50.4046C50.4046 9.84017 45.5644 5 39.5938 5C33.6231 5 28.783 9.84017 28.783 15.8108Z" fill="#326CE5"/>
</svg>
