<svg width="40" height="40" viewBox="0 0 40 40" fill="none" xmlns="http://www.w3.org/2000/svg">
<g clip-path="url(#clip0_23311_9612)">
<path d="M40 0H0V40H40V0Z" fill="#DD344C" fill-opacity="0.12"/>
<path fill-rule="evenodd" clip-rule="evenodd" d="M33.5 9H33V33H30V34H33.5C33.776 34 34 33.776 34 33.5V9.5C34 9.224 33.776 9 33.5 9ZM9 33.5C9 33.776 9.224 34 9.5 34H26V33H9V33.5ZM17.5 20C17.628 20 17.756 19.951 17.854 19.854L21.854 15.854L21.146 15.146L17.5 18.793L15.854 17.146L15.146 17.854L17.146 19.854C17.244 19.951 17.372 20 17.5 20ZM13 17.5C13 20.533 15.468 23 18.5 23C21.532 23 24 20.533 24 17.5C24 14.467 21.532 12 18.5 12C15.468 12 13 14.467 13 17.5ZM12 17.5C12 13.916 14.916 11 18.5 11C22.084 11 25 13.916 25 17.5C25 21.084 22.084 24 18.5 24C14.916 24 12 21.084 12 17.5ZM7 9H30V7H7V9ZM30 30V10H7V30H23V31H6.5C6.224 31 6 30.776 6 30.5V6.5C6 6.224 6.224 6 6.5 6H30.5C30.776 6 31 6.224 31 6.5V30.5C31 30.776 30.776 31 30.5 31H27V30H30ZM13.22 28.914C13.082 28.821 13 28.666 13 28.5V24H14V27.762L18.314 26.036C18.434 25.988 18.566 25.988 18.686 26.036L23 27.762V24H24V28.5C24 28.666 23.918 28.821 23.78 28.914C23.696 28.971 23.599 29 23.5 29C23.437 29 23.374 28.988 23.314 28.964L18.5 27.039L13.686 28.964C13.532 29.025 13.356 29.006 13.22 28.914Z" fill="#DD344C"/>
</g>
<rect x="0.5" y="0.5" width="39" height="39" stroke="#DD344C"/>
<defs>
<clipPath id="clip0_23311_9612">
<rect width="40" height="40" fill="white"/>
</clipPath>
</defs>
</svg>
