<svg width="40" height="40" viewBox="0 0 40 40" fill="none" xmlns="http://www.w3.org/2000/svg">
<g clip-path="url(#clip0_23311_9570)">
<path d="M40 0H0V40H40V0Z" fill="#DD344C" fill-opacity="0.12"/>
<path fill-rule="evenodd" clip-rule="evenodd" d="M18.5756 18.4901C17.3716 18.4901 16.6236 17.7402 16.6236 16.5321C16.6236 15.325 17.3716 14.5751 18.5756 14.5751C19.7805 14.5751 20.5285 15.325 20.5285 16.5321C20.5285 17.7402 19.7805 18.4901 18.5756 18.4901ZM26.0283 16.0308H21.4834C21.2715 14.563 20.1395 13.5725 18.5756 13.5725C16.8376 13.5725 15.6237 14.7896 15.6237 16.5321C15.6237 18.2756 16.8376 19.4927 18.5756 19.4927C20.1395 19.4927 21.2715 18.5021 21.4834 17.0334H26.0283V16.0308ZM13.5237 16.5381C13.5237 19.4045 15.7677 21.6492 18.6335 21.6492C20.6815 21.6492 22.4974 20.1825 23.2584 17.9116L24.2053 18.2315C23.3064 20.9164 21.1195 22.6518 18.6335 22.6518C15.2637 22.6518 12.5238 19.9088 12.5238 16.5381C12.5238 13.1604 15.2637 10.4133 18.6335 10.4133C21.3005 10.4133 23.3844 11.8791 24.2053 14.3334L23.2584 14.6522C22.5684 12.596 20.8835 11.4159 18.6335 11.4159C15.8156 11.4159 13.5237 13.7138 13.5237 16.5381ZM6.99996 22.0312H8.96289V20.0612H6.99996V22.0312ZM6.99996 13.0612H8.96289V11.068H6.99996V13.0612ZM9.96286 22.5325V19.5599V13.5624V10.5667V7.00258H28.0952V20.0261H29.0952V6.99255C29.0952 6.0762 28.5832 6 28.1032 6H9.95386C9.47388 6 8.96289 6.0762 8.96289 6.99255V10.0655H6.49998C6.22299 10.0655 6 10.29 6 10.5667V13.5624C6 13.8392 6.22299 14.0637 6.49998 14.0637H8.96289V19.0586H6.49998C6.22299 19.0586 6 19.2832 6 19.5599V22.5325C6 22.8102 6.22299 23.0338 6.49998 23.0338H8.96289V26.0716C8.96289 26.8426 9.18489 27.0652 9.95386 27.0652H20.0285V26.0626H9.96286V22.5325ZM33 32.9974H32.2581L31.4211 32.1863C31.3271 32.0961 31.2031 32.046 31.0731 32.046H30.0961V31.1366C30.0961 31.0023 30.0421 30.875 29.9481 30.7807L29.4632 30.2975C29.3692 30.2052 29.2422 30.1521 29.1102 30.1521H28.1432V29.2057C28.1432 29.0814 28.0972 28.962 28.0152 28.8708L27.3272 28.1008C27.1812 27.9374 26.9453 27.8893 26.7483 27.9785C26.3743 28.149 25.9743 28.2352 25.5593 28.2352C23.9724 28.2352 22.6814 26.9408 22.6814 25.3498C22.6814 23.7587 23.9724 22.4643 25.5593 22.4643C27.1462 22.4643 28.4372 23.7587 28.4372 25.3498C28.4372 25.8621 28.3672 26.2771 28.2282 26.5849C28.1432 26.7754 28.1832 26.998 28.3312 27.1454L33 31.8274V32.9974ZM33.853 31.265L29.2642 26.6641C29.3802 26.2892 29.4372 25.849 29.4372 25.3498C29.4372 23.2062 27.6982 21.4618 25.5593 21.4618C23.4214 21.4618 21.6814 23.2062 21.6814 25.3498C21.6814 27.4933 23.4214 29.2378 25.5593 29.2378C25.9913 29.2378 26.4123 29.1676 26.8143 29.0302L27.1432 29.3972V30.6534C27.1432 30.9311 27.3672 31.1547 27.6432 31.1547H28.9042L29.0962 31.3452V32.5473C29.0962 32.824 29.3192 33.0486 29.5962 33.0486H30.8711L31.7081 33.8586C31.8021 33.9489 31.9261 34 32.0551 34H33.5C33.776 34 34 33.7754 34 33.4987V31.6199C34 31.4865 33.947 31.3592 33.853 31.265ZM25.5263 25.8982C25.2573 25.8982 25.0383 25.6776 25.0383 25.4079C25.0383 25.1382 25.2573 24.9186 25.5263 24.9186C25.7963 24.9186 26.0153 25.1382 26.0153 25.4079C26.0153 25.6776 25.7963 25.8982 25.5263 25.8982ZM25.5263 23.9161C24.7063 23.9161 24.0384 24.5858 24.0384 25.4079C24.0384 26.231 24.7063 26.9007 25.5263 26.9007C26.3473 26.9007 27.0152 26.231 27.0152 25.4079C27.0152 24.5858 26.3473 23.9161 25.5263 23.9161Z" fill="#DD344C"/>
</g>
<rect x="0.5" y="0.5" width="39" height="39" stroke="#DD344C"/>
<defs>
<clipPath id="clip0_23311_9570">
<rect width="40" height="40" fill="white"/>
</clipPath>
</defs>
</svg>
