<svg width="90" height="90" viewBox="0 0 90 90" fill="none" xmlns="http://www.w3.org/2000/svg">
<path fill-rule="evenodd" clip-rule="evenodd" d="M7.93945 5.31006C6.83488 5.31006 5.93945 6.20549 5.93945 7.31006V82.6901C5.93945 83.7946 6.83488 84.6901 7.93945 84.6901H82.0595C83.164 84.6901 84.0595 83.7946 84.0595 82.6901V52.5894C83.8767 52.6456 83.6826 52.6758 83.4814 52.6758H65.791V59.3471C65.791 61.1486 63.5695 62.001 62.3644 60.662L49.284 46.1283C48.6113 45.3808 48.6113 44.246 49.284 43.4985L62.3644 28.9647C63.5695 27.6257 65.791 28.4782 65.791 30.2797V36.951H83.4814C83.6826 36.951 83.8767 36.9812 84.0595 37.0374V7.31006C84.0595 6.20549 83.164 5.31006 82.0595 5.31006H7.93945Z" fill="#326CE5"/>
</svg>
