<svg width="40" height="40" viewBox="0 0 40 40" fill="none" xmlns="http://www.w3.org/2000/svg">
<g clip-path="url(#clip0_23295_3163)">
<path d="M40 0H0V40H40V0Z" fill="#7AA116" fill-opacity="0.12"/>
<path fill-rule="evenodd" clip-rule="evenodd" d="M24.527 28C23.148 28 22.027 26.878 22.027 25.5C22.027 24.122 23.148 23 24.527 23C25.906 23 27.027 24.122 27.027 25.5C27.027 26.878 25.906 28 24.527 28ZM24.527 22C22.597 22 21.027 23.57 21.027 25.5C21.027 27.43 22.597 29 24.527 29C26.457 29 28.027 27.43 28.027 25.5C28.027 23.57 26.457 22 24.527 22ZM32.099 32.298C31.907 32.514 31.573 32.53 31.359 32.337L28.252 29.535C28.508 29.298 28.742 29.038 28.949 28.756L32.06 31.558C32.274 31.752 32.292 32.084 32.099 32.298ZM20.027 25.5C20.027 23.019 22.046 21 24.527 21C27.008 21 29.027 23.019 29.027 25.5C29.027 27.981 27.008 30 24.527 30C22.046 30 20.027 27.981 20.027 25.5ZM32.73 30.815L29.476 27.884C29.826 27.162 30.027 26.355 30.027 25.5C30.027 22.467 27.559 20 24.527 20C21.495 20 19.027 22.467 19.027 25.5C19.027 28.533 21.495 31 24.527 31C25.599 31 26.598 30.687 27.445 30.153L30.69 33.08C30.98 33.342 31.345 33.471 31.709 33.471C32.126 33.47 32.542 33.301 32.842 32.968C33.403 32.344 33.353 31.378 32.73 30.815ZM8.998 21.938C9.59 21.806 10.114 21.445 10.479 20.964L13.096 22.921C13.039 23.125 12.999 23.333 12.999 23.55C12.999 24.709 13.886 25.745 14.995 25.992V32.978H8.998V21.938ZM7 19.494C7 18.721 7.728 17.99 8.499 17.99C9.269 17.99 9.998 18.721 9.998 19.494C9.998 20.265 9.269 20.993 8.499 20.993C7.728 20.993 7 20.265 7 19.494ZM15.498 22.05C16.268 22.05 16.997 22.779 16.997 23.55C16.997 24.32 16.268 25.049 15.498 25.049C14.727 25.049 13.999 24.32 13.999 23.55C13.999 22.779 14.727 22.05 15.498 22.05ZM22.502 12.74C23.272 12.74 24.001 13.469 24.001 14.24C24.001 15.01 23.272 15.739 22.502 15.739C21.731 15.739 21.003 15.01 21.003 14.24C21.003 13.469 21.731 12.74 22.502 12.74ZM30.506 9.827C31.276 9.827 32.005 10.555 32.005 11.326C32.005 12.097 31.276 12.826 30.506 12.826C29.735 12.826 29.006 12.097 29.006 11.326C29.006 10.555 29.735 9.827 30.506 9.827ZM15.995 25.994C17.106 25.749 17.997 24.712 17.997 23.55C17.997 23.128 17.87 22.729 17.668 22.372L21.915 16.654C21.941 16.661 21.965 16.674 21.993 16.68V19H22.993V16.686C24.107 16.443 25.001 15.404 25.001 14.24C25.001 14.179 24.986 14.121 24.981 14.062L28.193 12.226C28.507 12.988 29.195 13.59 30.006 13.77V20.997H31.006V13.77C32.116 13.523 33.005 12.487 33.005 11.326C33.005 10.165 32.116 9.129 31.006 8.883V7H30.006V8.883C28.946 9.118 28.099 10.074 28.023 11.171L24.682 13.081C24.328 12.442 23.711 11.95 22.993 11.793V7H21.993V11.799C20.886 12.049 20.003 13.082 20.003 14.24C20.003 15.019 20.408 15.733 21.006 16.199L16.999 21.595C16.703 21.363 16.364 21.187 15.995 21.105V7H14.995V21.107C14.427 21.234 13.926 21.572 13.564 22.022L10.923 20.048C10.968 19.868 10.998 19.684 10.998 19.494C10.998 18.33 10.108 17.292 8.998 17.046V7H7.998V17.047C6.888 17.294 6 18.331 6 19.494C6 20.655 6.888 21.69 7.998 21.937V33.978H26.027V32.978H15.995V25.994Z" fill="#7AA116"/>
</g>
<rect x="0.5" y="0.5" width="39" height="39" stroke="#7AA116"/>
<defs>
<clipPath id="clip0_23295_3163">
<rect width="40" height="40" fill="white"/>
</clipPath>
</defs>
</svg>
