<svg width="40" height="40" viewBox="0 0 40 40" fill="none" xmlns="http://www.w3.org/2000/svg">
<g clip-path="url(#clip0_23311_9731)">
<path d="M40 0H0V40H40V0Z" fill="#7AA116" fill-opacity="0.12"/>
<path fill-rule="evenodd" clip-rule="evenodd" d="M28 20.5V26.5C28 26.776 27.776 27 27.5 27H12.5C12.224 27 12 26.776 12 26.5V20.5C12 20.224 12.224 20 12.5 20H16V21H13V26H27V21H24V20H27.5C27.776 20 28 20.224 28 20.5ZM33 29.857C33 29.936 32.937 30 32.857 30H31V29.5V18.5C31 17.673 30.327 17 29.5 17H10.469C9.642 17 9 17.673 9 18.5V30H7.143C7.063 30 7 29.936 7 29.857V16.429C7 15.641 7.641 15 8.429 15H31.571C32.359 15 33 15.641 33 16.429V29.857ZM9.969 29V18.5C9.969 18.224 10.193 18 10.469 18H29.5C29.775 18 30 18.224 30 18.5V29H9.969ZM27.293 14H12.707L14.707 12H25.293L27.293 14ZM12.686 10.488C12.957 10.178 13.349 10 13.761 10H26.239C26.651 10 27.043 10.178 27.325 10.5L30.602 14H28.707L25.854 11.146C25.76 11.053 25.633 11 25.5 11H14.5C14.367 11 14.24 11.053 14.146 11.146L11.293 14H9.398L12.686 10.488ZM32.014 14.045L28.066 9.83C27.605 9.302 26.939 9 26.239 9H13.761C13.061 9 12.395 9.302 11.944 9.817L7.985 14.045C6.858 14.254 6 15.241 6 16.429V29.857C6 30.487 6.513 31 7.143 31H9.5C9.776 31 10 30.776 10 30.5V30H30V30.5C30 30.776 30.224 31 30.5 31H32.857C33.487 31 34 30.487 34 29.857V16.429C34 15.241 33.142 14.254 32.014 14.045ZM18 23H22V21H18V23ZM17.5 24H22.5C22.776 24 23 23.776 23 23.5V20.5C23 20.224 22.776 20 22.5 20H17.5C17.224 20 17 20.224 17 20.5V23.5C17 23.776 17.224 24 17.5 24Z" fill="#7AA116"/>
</g>
<rect x="0.5" y="0.5" width="39" height="39" stroke="#7AA116"/>
<defs>
<clipPath id="clip0_23311_9731">
<rect width="40" height="40" fill="white"/>
</clipPath>
</defs>
</svg>
