<svg width="40" height="40" viewBox="0 0 40 40" xmlns="http://www.w3.org/2000/svg">  <g id="Icon-Architecture/32/Arch_AWS-GameKit_32" stroke="none" stroke-width="1" fill="none" fill-rule="evenodd">  <g id="Icon-Service/32/AWS-GameKit_32" transform="translate(6.000000, 7.000000)" fill="#FFFFFF"> <path d="M23.752,18.498 C23.752,18.084 24.088,17.748 24.502,17.748 C24.916,17.748 25.252,18.084 25.252,18.498 C25.252,18.912 24.916,19.248 24.502,19.248 C24.088,19.248 23.752,18.912 23.752,18.498 L23.752,18.498 Z M26.683,25.716 C26.496,25.907 26.227,26 25.861,26 C24.879,26 23.72,23.23 23.097,21.741 C23.089,21.723 23.083,21.707 23.075,21.689 C23.511,21.885 23.992,22 24.5,22 C25.48,22 26.364,21.592 27.000012,20.941 L27.000012,24.841 C27.000012,24.846 27.007,25.385 26.683,25.716 L26.683,25.716 Z M14.14,26 C13.774,26 13.504,25.907 13.318,25.716 C12.993,25.385 12.9999881,24.846 12.9999881,24.827 L12.9999881,20.941 C13.636,21.592 14.521,22 15.5,22 C16.009,22 16.489,21.885 16.926,21.689 C16.918,21.707 16.911,21.723 16.904,21.741 C16.281,23.23 15.121,26 14.14,26 L14.14,26 Z M15.5,16 C16.879,16 18,17.121 18,18.5 C18,19.878 16.879,21 15.5,21 C14.121,21 13,19.878 13,18.5 C13,17.121 14.121,16 15.5,16 L15.5,16 Z M21.351,20 L18.649,20 C18.868,19.543 19,19.039 19,18.5 C19,17.961 18.868,17.456 18.649,17 L21.351,17 C21.133,17.456 21,17.961 21,18.5 C21,19.039 21.133,19.543 21.351,20 L21.351,20 Z M24.5,16 C25.879,16 27,17.121 27,18.5 C27,19.878 25.879,21 24.5,21 C23.121,21 22,19.878 22,18.5 C22,17.121 23.121,16 24.5,16 L24.5,16 Z M28,24.827 L28,18.5 C28,16.57 26.43,15 24.5,15 C23.55,15 22.69,15.383 22.059,16 L17.942,16 C17.311,15.383 16.45,15 15.5,15 C13.571,15 12,16.57 12,18.5 L12,24.81 C11.997,24.907 11.986,25.777 12.594,26.406 C12.975,26.8 13.494,27 14.14,27 C15.787,27 16.918,24.298 17.826,22.128 C18.004,21.702 18.166,21.314 18.313,21 L21.688,21 C21.834,21.314 21.996,21.702 22.174,22.128 C23.082,24.298 24.213,27 25.861,27 C26.506,27 27.026,26.8 27.407,26.406 C28.015,25.777 28.003,24.907 28,24.827 L28,24.827 Z M15,19 L14,19 L14,18 L15,18 L15,17 L16,17 L16,18 L17,18 L17,19 L16,19 L16,20 L15,20 L15,19 Z M1,9 L1,7.73 L4.185,5 L23.816,5 L27,7.73 L27,9 L26.5,9 L22,9 L22,7.5 C22,7.223 21.777,7 21.5,7 L18.5,7 C18.224,7 18,7.223 18,7.5 L18,9 L10,9 L10,7.5 C10,7.223 9.777,7 9.5,7 L6.5,7 C6.224,7 6,7.223 6,7.5 L6,9 L1.5,9 L1,9 Z M9,4 L19,4 L19,1 L9,1 L9,4 Z M19,12 L21,12 L21,8 L19,8 L19,12 Z M7,12 L9,12 L9,8 L7,8 L7,12 Z M2,18.5 L2,10 L6,10 L6,12.5 C6,12.776 6.224,13 6.5,13 L9.5,13 C9.777,13 10,12.776 10,12.5 L10,10 L18,10 L18,12.5 C18,12.776 18.224,13 18.5,13 L21.5,13 C21.777,13 22,12.776 22,12.5 L22,10 L26,10 L26,13.999 L27,13.999 L27,10 L27.5,10 C27.777,10 28,9.776 28,9.5 L28,7.5 C28,7.354 27.937,7.215 27.825,7.12 L24.325,4.12 C24.235,4.042 24.119,4 24,4 L20,4 L20,0.5 C20,0.223 19.777,1.77635684e-15 19.5,1.77635684e-15 L8.5,1.77635684e-15 C8.224,1.77635684e-15 8,0.223 8,0.5 L8,4 L4,4 C3.881,4 3.766,4.042 3.675,4.12 L0.175,7.12 C0.064,7.215 0,7.354 0,7.5 L0,9.5 C0,9.776 0.224,10 0.5,10 L1,10 L1,18.5 C1,19.439 1.561,20 2.5,20 L11.001,20 L11.001,19 L2.5,19 C2.117,19 2,18.883 2,18.5 L2,18.5 Z" id="Fill-4"></path> </g> </g></svg>