<svg width="40" height="40" viewBox="0 0 40 40" fill="none" xmlns="http://www.w3.org/2000/svg">
<g clip-path="url(#clip0_23298_4025)">
<path d="M40 0H0V40H40V0Z" fill="#E7157B" fill-opacity="0.12"/>
<path fill-rule="evenodd" clip-rule="evenodd" d="M25.869 18.833C25.869 21.314 23.85 23.333 21.369 23.333C18.888 23.333 16.869 21.314 16.869 18.833C16.869 16.352 18.888 14.333 21.369 14.333C23.85 14.333 25.869 16.352 25.869 18.833ZM26.869 18.833C26.869 15.8 24.401 13.333 21.369 13.333C18.337 13.333 15.869 15.8 15.869 18.833C15.869 21.866 18.337 24.333 21.369 24.333C24.401 24.333 26.869 21.866 26.869 18.833ZM24.168 31.509C24.263 31.409 24.311 31.275 24.304 31.138L24.211 29.512C25.148 29.262 26.045 28.891 26.884 28.404L27.969 29.621C28.06 29.723 28.19 29.784 28.327 29.788C28.486 29.79 28.598 29.739 28.695 29.641L32.161 26.174C32.259 26.077 32.311 25.944 32.307 25.807C32.304 25.669 32.243 25.539 32.14 25.448L30.921 24.36C31.407 23.521 31.778 22.626 32.027 21.69L33.658 21.784C33.796 21.791 33.93 21.743 34.03 21.648C34.13 21.554 34.186 21.422 34.186 21.285V16.382C34.186 16.245 34.13 16.113 34.03 16.019C33.93 15.924 33.796 15.878 33.658 15.883L32.025 15.976C31.775 15.04 31.404 14.146 30.919 13.308L32.14 12.218C32.243 12.127 32.304 11.997 32.307 11.859C32.311 11.722 32.259 11.589 32.161 11.492L28.695 8.026C28.598 7.929 28.455 7.879 28.328 7.879C28.19 7.883 28.06 7.944 27.969 8.046L26.875 9.271C26.038 8.786 25.144 8.416 24.211 8.166L24.304 6.528C24.311 6.391 24.263 6.256 24.168 6.157C24.073 6.057 23.942 6 23.805 6H18.902C18.765 6 18.634 6.057 18.539 6.157C18.444 6.257 18.395 6.391 18.403 6.528L18.497 8.166C17.563 8.414 16.669 8.784 15.83 9.269L14.739 8.046C14.647 7.944 14.517 7.883 14.381 7.879C14.248 7.883 14.11 7.929 14.013 8.026L10.546 11.492C10.448 11.589 10.395 11.722 10.399 11.859C10.403 11.997 10.464 12.126 10.566 12.218L11.79 13.311C11.304 14.149 10.932 15.042 10.683 15.976L9.049 15.883C8.913 15.878 8.777 15.924 8.677 16.019C8.577 16.113 8.52 16.245 8.52 16.382V21.285C8.52 21.422 8.577 21.554 8.678 21.648C8.777 21.744 8.913 21.791 9.05 21.784L11.05 21.666L10.991 20.668L9.52 20.754V16.912L11.041 16.998C11.299 17.012 11.502 16.846 11.556 16.609C11.808 15.5 12.245 14.447 12.855 13.481C12.986 13.274 12.948 13.003 12.765 12.841L11.627 11.825L14.346 9.107L15.36 10.245C15.522 10.426 15.793 10.465 16 10.334C16.967 9.726 18.019 9.29 19.13 9.04C19.368 8.986 19.532 8.768 19.518 8.523L19.432 7H23.275L23.189 8.524C23.176 8.769 23.34 8.986 23.578 9.041C24.688 9.291 25.74 9.728 26.705 10.337C26.912 10.467 27.182 10.429 27.345 10.247L28.362 9.107L31.08 11.825L29.943 12.838C29.761 13.001 29.723 13.272 29.853 13.479C30.463 14.442 30.899 15.496 31.152 16.609C31.206 16.847 31.396 17.022 31.668 16.998L33.186 16.912V20.755L31.669 20.668C31.441 20.656 31.207 20.819 31.153 21.058C30.902 22.17 30.466 23.224 29.855 24.19C29.724 24.396 29.763 24.667 29.945 24.83L31.08 25.842L28.362 28.56L27.353 27.429C27.191 27.247 26.919 27.208 26.714 27.339C25.748 27.949 24.693 28.386 23.578 28.638C23.34 28.692 23.176 28.911 23.189 29.154L23.275 30.666H19.448L19.518 29.877L18.522 29.789L18.404 31.122C18.391 31.262 18.438 31.4 18.533 31.503C18.628 31.607 18.762 31.666 18.902 31.666H23.805C23.942 31.666 24.073 31.609 24.168 31.509ZM18.697 27.529L18.01 26.803L11.677 32.803L12.364 33.529L18.697 27.529ZM12.696 23.53L12.011 22.802L6.344 28.135L7.029 28.864L12.696 23.53ZM6.707 34.187L6 33.479L16 23.479L16.707 24.187L6.707 34.187Z" fill="#E7157B"/>
</g>
<rect x="0.5" y="0.5" width="39" height="39" stroke="#E7157B"/>
<defs>
<clipPath id="clip0_23298_4025">
<rect width="40" height="40" fill="white"/>
</clipPath>
</defs>
</svg>
