<svg id="uuid-ea9c23a9-56a9-4034-8d56-6fe01d887ba2" xmlns="http://www.w3.org/2000/svg" width="18" height="18" viewBox="0 0 18 18"><defs><linearGradient id="uuid-011a4e3c-0bb2-482c-b7f3-9964bb2689e2" x1="9" y1="0" x2="9" y2="18" gradientUnits="userSpaceOnUse"><stop offset="0" stop-color="#5ea0ef" /><stop offset="1" stop-color="#0078d4" /></linearGradient></defs><polygon points="8.881 9.269 8.881 12.064 6.465 13.468 6.465 10.669 8.881 9.269" fill="#0078d4" stroke-width="0" /><polygon points="8.881 9.269 6.465 10.672 4.049 9.268 6.465 7.863 8.881 9.269" fill="#5ea0ef" stroke-width="0" /><polygon points="6.465 10.672 6.465 13.468 4.049 12.064 4.049 9.268 6.465 10.672" fill="#83b9f9" stroke-width="0" /><polygon points="11.442 4.836 11.442 7.631 9.026 9.035 9.026 6.236 11.442 4.836" fill="#0078d4" stroke-width="0" /><polygon points="11.442 4.836 9.026 6.24 6.61 4.835 9.026 3.431 11.442 4.836" fill="#5ea0ef" stroke-width="0" /><polygon points="9.026 6.24 9.026 9.035 6.61 7.631 6.61 4.835 9.026 6.24" fill="#83b9f9" stroke-width="0" /><polygon points="13.967 9.262 13.967 12.057 11.551 13.461 11.551 10.662 13.967 9.262" fill="#32bedd" stroke-width="0" /><polygon points="13.967 9.262 11.551 10.666 9.135 9.261 11.551 7.857 13.967 9.262" fill="#50e6ff" stroke-width="0" /><polygon points="11.551 10.666 11.551 13.461 9.135 12.057 9.135 9.261 11.551 10.666" fill="#9cebff" stroke-width="0" /><path d="m9.004.863c.138,0,.276.036.4.108l6.324,3.685c.244.142.394.403.394.686v7.324c0,.283-.15.544-.395.686l-6.324,3.676c-.123.072-.261.108-.399.108s-.275-.036-.399-.107l-6.333-3.677c-.245-.142-.395-.404-.395-.686v-7.332c0-.283.151-.544.395-.686L8.606.971c.123-.072.261-.107.399-.107m0-.863c-.292,0-.58.077-.832.224L1.84,3.901c-.509.295-.825.845-.825,1.433v7.332c0,.588.316,1.138.825,1.433l6.333,3.677c.252.147.54.224.832.224s.58-.078.833-.225l6.324-3.676c.508-.296.824-.845.824-1.433v-7.324c0-.587-.315-1.136-.823-1.432L9.838.225c-.253-.147-.542-.225-.834-.225h0Z" fill="url(#uuid-011a4e3c-0bb2-482c-b7f3-9964bb2689e2)" stroke-width="0" /></svg>