<svg width="40" height="40" viewBox="0 0 40 40" fill="none" xmlns="http://www.w3.org/2000/svg">
<g clip-path="url(#clip0_23311_9632)">
<path d="M40 0H0V40H40V0Z" fill="#DD344C" fill-opacity="0.12"/>
<path fill-rule="evenodd" clip-rule="evenodd" d="M18.0051 29.476V11.631L12.0051 13.848V24.497C12.0161 24.671 12.3491 29.224 18.0051 29.476ZM24.9631 22.706V13.848L19.0051 11.633V29.481C19.9171 29.417 20.4521 29.181 21.0531 28.819C21.1051 29.166 21.1871 29.504 21.3001 29.828C20.5661 30.234 19.7921 30.5 18.4841 30.5C11.3811 30.5 11.0091 24.581 11.0061 24.521L11.0051 13.5C11.0051 13.29 11.1361 13.103 11.3321 13.031L18.3321 10.444C18.4431 10.403 18.5671 10.403 18.6791 10.445L25.6371 13.031C25.8331 13.104 25.9631 13.291 25.9631 13.5V22.508C25.6191 22.542 25.2851 22.611 24.9631 22.706ZM27.0051 25.497H26.0051V27.497H24.0051V28.497H26.0051V30.497H27.0051V28.497H29.0051V27.497H27.0051V25.497ZM30.0521 28.012C30.0521 26.064 28.4671 24.479 26.5201 24.479C24.5721 24.479 22.9871 26.064 22.9871 28.012C22.9871 29.959 24.5721 31.544 26.5201 31.544C28.4671 31.544 30.0521 29.959 30.0521 28.012ZM31.0521 28.012C31.0521 30.511 29.0191 32.544 26.5201 32.544C24.0211 32.544 21.9871 30.511 21.9871 28.012C21.9871 25.513 24.0211 23.479 26.5201 23.479C29.0191 23.479 31.0521 25.513 31.0521 28.012ZM22.5191 31.822C22.7781 32.094 23.0631 32.341 23.3721 32.556C21.9741 33.207 20.3471 33.544 18.5051 33.544C15.2671 33.544 12.7021 32.576 10.8851 30.666C7.79905 27.424 7.99505 22.676 8.00605 22.476L8.00505 11.5C8.00505 11.295 8.12905 11.112 8.31905 11.036L18.3191 7.036C18.4391 6.988 18.5711 6.988 18.6911 7.036L28.6911 11.036C28.8811 11.112 29.0051 11.295 29.0051 11.5V22.5C29.0051 22.5 29.0131 22.723 29.0031 23.075C28.6871 22.915 28.3551 22.786 28.0091 22.688C28.0071 22.593 28.0061 22.525 28.0061 22.523L28.0051 11.838L18.5051 8.039L9.00505 11.838V22.5C9.00205 22.569 8.82305 27.056 11.6141 29.982C13.2351 31.682 15.5541 32.544 18.5051 32.544C20.0131 32.544 21.3481 32.29 22.5191 31.822Z" fill="#DD344C"/>
</g>
<rect x="0.5" y="0.5" width="39" height="39" stroke="#DD344C"/>
<defs>
<clipPath id="clip0_23311_9632">
<rect width="40" height="40" fill="white"/>
</clipPath>
</defs>
</svg>
