<svg width="40" height="40" viewBox="0 0 40 40" fill="none" xmlns="http://www.w3.org/2000/svg">
<g clip-path="url(#clip0_23299_4254)">
<path d="M40 0H0V40H40V0Z" fill="#ED7100" fill-opacity="0.12"/>
<path fill-rule="evenodd" clip-rule="evenodd" d="M26.999 15.2897L20.499 11.5754L13.999 15.2897V23.2273L20.499 27.4066L26.999 23.2273V15.2897ZM32 13.0005V16.5008H31V13.8096L27.999 15.3087V23.5003C27.999 23.6703 27.912 23.8293 27.77 23.9203L21 28.2726V31.6499L23.757 30.1168L24.243 30.9909L20.743 32.937C20.667 32.979 20.584 33 20.5 33C20.416 33 20.333 32.979 20.257 32.937L16.757 30.9899L17.243 30.1158L20 31.6499V28.2736L13.228 23.9203C13.086 23.8293 12.999 23.6703 12.999 23.5003V15.3087L10 13.8086V16.5008H9V13.0005C9 12.8215 9.096 12.6555 9.252 12.5665L12.752 10.5643L13.248 11.4334L10.56 12.9705L13.483 14.4326L20.251 10.5653C20.405 10.4773 20.593 10.4773 20.747 10.5653L27.515 14.4326L30.441 12.9715L27.752 11.4334L28.248 10.5643L31.748 12.5665C31.904 12.6555 32 12.8215 32 13.0005ZM17.994 17.3698V20.7201L20.504 21.9442L23.029 20.7201V17.3708L20.504 16.0647L17.994 17.3698ZM20.272 15.0577C20.417 14.9827 20.588 14.9827 20.732 15.0567L23.533 16.5048L25.306 15.6187L25.753 16.5128L24.029 17.3748V21.0331C24.029 21.2241 23.92 21.3991 23.747 21.4821L21 22.8152V25.5004H20V22.8112L17.275 21.4821C17.103 21.3981 16.994 21.2241 16.994 21.0331V17.3748L15.27 16.5128L15.718 15.6187L17.489 16.5048L20.272 15.0577ZM20.499 7.07308L23.757 8.88421L24.243 8.01015L20.742 6.063C20.59 5.979 20.408 5.979 20.256 6.063L16.756 8.01015L17.242 8.88421L20.499 7.07308ZM10 22.5002H9V25.9995C9 26.1785 9.096 26.3445 9.252 26.4335L12.752 28.4357L13.248 27.5676L10 25.7095V22.5002ZM31 22.5002H32V26.0015C32 26.1805 31.904 26.3465 31.748 26.4355L28.248 28.4357L27.752 27.5676L31 25.7115V22.5002Z" fill="#ED7100"/>
</g>
<rect x="0.5" y="0.5" width="39" height="39" stroke="#ED7100"/>
<defs>
<clipPath id="clip0_23299_4254">
<rect width="40" height="40" fill="white"/>
</clipPath>
</defs>
</svg>
