<svg width="40" height="40" viewBox="0 0 40 40" fill="none" xmlns="http://www.w3.org/2000/svg">
<g clip-path="url(#clip0_23311_9696)">
<path d="M40 0H0V40H40V0Z" fill="#7AA116" fill-opacity="0.12"/>
<path fill-rule="evenodd" clip-rule="evenodd" d="M30.532 21.3911L30.729 19.9321C32.821 21.1311 32.864 21.6261 32.863 21.6401C32.859 21.6431 32.509 21.9231 30.532 21.3911ZM29.564 21.1031C26.722 20.2061 22.904 18.5311 20.723 17.5041C20.723 17.4971 20.727 17.4911 20.727 17.4841C20.727 16.8211 20.187 16.2811 19.524 16.2811C18.861 16.2811 18.321 16.8211 18.321 17.4841C18.321 18.1481 18.861 18.6871 19.524 18.6871C19.814 18.6871 20.07 18.5711 20.278 18.4001C21.547 18.9941 26.075 21.0761 29.428 22.1131L28.249 30.8501C28.249 31.7161 24.575 33.0001 19.5 33.0001C14.425 33.0001 10.751 31.7161 10.746 30.7841L8.283 12.5631C10.458 14.1551 15.074 15.0001 19.5 15.0001C23.926 15.0001 28.543 14.1551 30.718 12.5631L29.564 21.1031ZM8.003 10.4891C8.032 9.60912 12.104 7.00012 19.5 7.00012C26.895 7.00012 30.97 9.60912 31 10.4891V10.6031C30.81 12.2311 26.137 14.0001 19.5 14.0001C12.863 14.0001 8.209 12.2311 8.018 10.6041L8.003 10.4891ZM32 10.5001C32 8.66512 27.131 6.00012 19.5 6.00012C11.869 6.00012 7 8.66512 7 10.5001V10.5671L9.751 30.8501C9.751 32.8961 14.773 34.0001 19.5 34.0001C24.226 34.0001 29.249 32.8961 29.244 30.9171L30.396 22.3901C31.217 22.6041 31.881 22.7181 32.392 22.7181C32.985 22.7181 33.386 22.5741 33.628 22.2851C33.827 22.0471 33.903 21.7601 33.845 21.4541C33.708 20.7161 32.797 19.9191 30.89 18.8701L30.869 18.8961L32 10.5671V10.5001Z" fill="#7AA116"/>
</g>
<rect x="0.5" y="0.5" width="39" height="39" stroke="#7AA116"/>
<defs>
<clipPath id="clip0_23311_9696">
<rect width="40" height="40" fill="white"/>
</clipPath>
</defs>
</svg>
