<svg width="40" height="40" viewBox="0 0 40 40" fill="none" xmlns="http://www.w3.org/2000/svg">
<g clip-path="url(#clip0_23293_2687)">
<path d="M40 0H0V40H40V0Z" fill="#8C4FFF" fill-opacity="0.12"/>
<path fill-rule="evenodd" clip-rule="evenodd" d="M8 13.706H7C7 17.238 11.767 19.479 21.172 20.413C11.767 21.345 7 23.587 7 27.119H8C8 24.801 11.233 20.913 32.888 20.913V19.913C11.233 19.913 8 16.024 8 13.706ZM10.874 9.874H9.874C9.874 14.385 12.608 18.997 32.888 18.997V17.997C13.489 17.997 10.874 13.891 10.874 9.874ZM13.748 7H12.748C12.748 12.101 14.303 17.081 32.888 17.081V16.081C13.748 16.081 13.748 10.616 13.748 7ZM25.987 30.871H26.891V29.797H25.987V30.871ZM27.891 29.297V31.371C27.891 31.647 27.667 31.871 27.391 31.871H25.486C25.21 31.871 24.986 31.647 24.986 31.371V29.297C24.986 29.02 25.21 28.797 25.486 28.797H27.391C27.667 28.797 27.891 29.02 27.891 29.297ZM25.011 27.893H26.914V26.893H25.011V27.893ZM28.842 25.941H29.863V24.949H28.842V25.941ZM31.739 27.836C31.739 26.819 31.41 25.881 30.863 25.108V26.441C30.863 26.717 30.64 26.941 30.363 26.941H28.342C28.065 26.941 27.842 26.717 27.842 26.441V24.449C27.842 24.172 28.065 23.949 28.342 23.949H29.699C28.932 23.413 28.002 23.093 26.996 23.093C25.453 23.093 24.094 23.845 23.227 24.989H26.914V25.989H22.628C22.506 26.277 22.412 26.58 22.349 26.893H24.059V27.893H22.259C22.267 28.553 22.41 29.179 22.663 29.749H24.059V30.749H23.28C24.149 31.855 25.483 32.58 26.996 32.58C28.509 32.58 29.843 31.855 30.712 30.749H28.818V29.749H31.329C31.589 29.163 31.739 28.518 31.739 27.836ZM32.739 27.836C32.739 31.003 30.163 33.58 26.996 33.58C23.829 33.58 21.253 31.003 21.253 27.836C21.253 24.669 23.829 22.093 26.996 22.093C30.163 22.093 32.739 24.669 32.739 27.836ZM22.879 22.36L22.875 22.326C11.419 23.662 9.874 27.435 9.874 30.951H10.874C10.874 28.008 12.215 24.853 21.688 23.496C22.036 23.07 22.439 22.692 22.879 22.36ZM20.82 24.866C20.646 25.227 20.501 25.606 20.392 25.999C13.758 27.8 13.748 31.119 13.748 33.825H12.748C12.748 31.011 12.772 26.82 20.82 24.866Z" fill="#8C4FFF"/>
</g>
<rect x="0.5" y="0.5" width="39" height="39" stroke="#8C4FFF"/>
<defs>
<clipPath id="clip0_23293_2687">
<rect width="40" height="40" fill="white"/>
</clipPath>
</defs>
</svg>
