<svg xmlns="http://www.w3.org/2000/svg" xmlns:xlink="http://www.w3.org/1999/xlink" id="linkerd-logo" x="0" y="0" enable-background="new 0 0 138.9 129.2" version="1.1" viewBox="0 0 138.9 129.2" xml:space="preserve"><style type="text/css">.st0{fill:url(#SVGID_1_)}.st1{fill:url(#SVGID_2_)}.st2{fill:#2beda7}.st3{fill:url(#SVGID_3_)}.st4{fill:url(#SVGID_4_)}.st5{fill:url(#SVGID_5_)}.st6{fill:url(#SVGID_6_)}.st7{fill:url(#SVGID_7_)}.st8{fill:url(#SVGID_8_)}</style><g><g><g><linearGradient id="SVGID_1_" x1="130.52" x2="130.52" y1="24.532" y2="79.491" gradientUnits="userSpaceOnUse"><stop offset="0" stop-color="#2BEDA7"/><stop offset="1" stop-color="#018AFD"/></linearGradient><polygon points="125.9 24.5 125.9 74.2 135.1 79.5 135.1 29.8" class="st0"/><linearGradient id="SVGID_2_" x1="7.78" x2="7.78" y1="24.534" y2="79.495" gradientUnits="userSpaceOnUse"><stop offset="0" stop-color="#2BEDA7"/><stop offset="1" stop-color="#018AFD"/></linearGradient><polygon points="3.2 79.5 12.4 74.2 12.4 24.5 3.2 29.8" class="st1"/></g><g><polygon points="48.1 79 90.2 103.3 90.2 92.8 50.8 70 48.1 71.5 48.1 71.5" class="st2"/><path d="M92.6,117.4L48.1,91.7v10.6l11.9,6.9l-14.3,8.3c-1,0.6-1,1.9,0,2.5l7,4l16.5-9.5l16.5,9.5l7-4 C93.6,119.4,93.6,118,92.6,117.4z" class="st2"/></g><g><linearGradient id="SVGID_3_" x1="130.52" x2="130.52" y1="48.861" y2="99.634" gradientUnits="userSpaceOnUse"><stop offset="0" stop-color="#2BEDA7"/><stop offset="1" stop-color="#018AFD"/></linearGradient><path d="M125.9,54.1v44c0,1.1,1.2,1.8,2.2,1.3l6.3-3.6c0.4-0.3,0.7-0.7,0.7-1.3V48.9L125.9,54.1z" class="st3"/><linearGradient id="SVGID_4_" x1="110.368" x2="110.368" y1="60.496" y2="111.269" gradientUnits="userSpaceOnUse"><stop offset="0" stop-color="#2BEDA7"/><stop offset="1" stop-color="#018AFD"/></linearGradient><path d="M108,111.1l5.9-3.4c0.7-0.4,1.1-1.1,1.1-1.9V60.5l-9.2,5.3v44C105.8,110.9,107,111.6,108,111.1z" class="st4"/><linearGradient id="SVGID_5_" x1="90.216" x2="90.216" y1="72.13" y2="123.959" gradientUnits="userSpaceOnUse"><stop offset="0" stop-color="#2BEDA7"/><stop offset="1" stop-color="#018AFD"/></linearGradient><path d="M85.6,124l8.4-4.9c0.4-0.3,0.7-0.7,0.7-1.3V72.1l-9.2,5.3V124z" class="st5"/><linearGradient id="SVGID_6_" x1="48.089" x2="48.089" y1="72.13" y2="123.958" gradientUnits="userSpaceOnUse"><stop offset="0" stop-color="#2BEDA7"/><stop offset="1" stop-color="#018AFD"/></linearGradient><path d="M44.2,119.1l8.4,4.9V77.4l-9.2-5.3v45.7C43.5,118.4,43.8,118.8,44.2,119.1z" class="st6"/><linearGradient id="SVGID_7_" x1="27.937" x2="27.937" y1="60.495" y2="111.269" gradientUnits="userSpaceOnUse"><stop offset="0" stop-color="#2BEDA7"/><stop offset="1" stop-color="#018AFD"/></linearGradient><path d="M24.4,107.7l5.9,3.4c1,0.6,2.2-0.1,2.2-1.3v-44l-9.2-5.3v45.3C23.4,106.6,23.8,107.3,24.4,107.7z" class="st7"/><linearGradient id="SVGID_8_" x1="7.785" x2="7.785" y1="48.861" y2="99.633" gradientUnits="userSpaceOnUse"><stop offset="0" stop-color="#2BEDA7"/><stop offset="1" stop-color="#018AFD"/></linearGradient><path d="M4.3,96l5.9,3.4c1,0.6,2.2-0.1,2.2-1.3v-44l-9.2-5.3v45.3C3.2,94.9,3.6,95.6,4.3,96z" class="st8"/></g><g><path d="M135.1,29.8l-9.2-5.3l-16.5,9.5l-11-6.3l14.3-8.3c1-0.6,1-1.9,0-2.5l-5.9-3.4c-0.7-0.4-1.5-0.4-2.2,0 l-15.4,8.9l-11-6.3l14.3-8.3c1-0.6,1-1.9,0-2.5l-5.9-3.4c-0.7-0.4-1.5-0.4-2.2,0l-15.4,8.9L53.7,1.9c-0.7-0.4-1.5-0.4-2.2,0 l-5.9,3.4c-1,0.6-1,1.9,0,2.5l80.3,46.3l9.2-5.3l-16.5-9.5L135.1,29.8z" class="st2"/><path d="M31.4,13.5l-5.9,3.4c-1,0.6-1,1.9,0,2.5l80.3,46.3l9.2-5.3l-81.4-47C32.9,13.1,32.1,13.1,31.4,13.5z" class="st2"/><polygon points="3.2 29.8 19.7 39.3 3.2 48.9 12.4 54.2 28.9 44.6 39.8 51 23.4 60.5 32.5 65.8 49 56.3 60 62.6 43.5 72.1 52.7 77.4 69.1 67.9 85.6 77.4 94.8 72.1 12.4 24.5" class="st2"/></g></g></g></svg>