<svg width="40" height="40" viewBox="0 0 40 40" fill="none" xmlns="http://www.w3.org/2000/svg">
<g clip-path="url(#clip0_23295_3072)">
<path d="M40 0H0V40H40V0Z" fill="#DD344C" fill-opacity="0.12"/>
<path fill-rule="evenodd" clip-rule="evenodd" d="M25.377 18.5147C24.825 18.5147 24.377 18.0621 24.377 17.5068C24.377 16.9515 24.825 16.499 25.377 16.499C25.929 16.499 26.377 16.9515 26.377 17.5068C26.377 18.0621 25.929 18.5147 25.377 18.5147ZM20.377 23.5537C19.825 23.5537 19.377 23.1012 19.377 22.5459C19.377 21.9906 19.825 21.5381 20.377 21.5381C20.929 21.5381 21.377 21.9906 21.377 22.5459C21.377 23.1012 20.929 23.5537 20.377 23.5537ZM16.377 17.5068C15.825 17.5068 15.377 17.0543 15.377 16.499C15.377 15.9437 15.825 15.4912 16.377 15.4912C16.929 15.4912 17.377 15.9437 17.377 16.499C17.377 17.0543 16.929 17.5068 16.377 17.5068ZM12.377 22.5459C11.825 22.5459 11.377 22.0934 11.377 21.5381C11.377 20.9828 11.825 20.5303 12.377 20.5303C12.929 20.5303 13.377 20.9828 13.377 21.5381C13.377 22.0934 12.929 22.5459 12.377 22.5459ZM25.377 15.4912C24.274 15.4912 23.377 16.3952 23.377 17.5068C23.377 17.8777 23.483 18.2204 23.658 18.5197L21.462 20.8568C21.148 20.6522 20.777 20.5303 20.377 20.5303C20.305 20.5303 20.236 20.5444 20.165 20.5514L18.136 17.4383C18.285 17.1561 18.377 16.8397 18.377 16.499C18.377 15.3874 17.48 14.4834 16.377 14.4834C15.274 14.4834 14.377 15.3874 14.377 16.499C14.377 16.9535 14.533 17.3688 14.785 17.7064L12.894 19.5991C12.728 19.5547 12.557 19.5225 12.377 19.5225C11.274 19.5225 10.377 20.4265 10.377 21.5381C10.377 22.6497 11.274 23.5537 12.377 23.5537C13.48 23.5537 14.377 22.6497 14.377 21.5381C14.377 20.9848 14.154 20.4829 13.795 20.1191L15.571 18.3413C15.818 18.4512 16.09 18.5147 16.377 18.5147C16.768 18.5147 17.129 18.3967 17.438 18.2012L19.208 20.9183C18.707 21.2851 18.377 21.8757 18.377 22.5459C18.377 23.6575 19.274 24.5616 20.377 24.5616C21.48 24.5616 22.377 23.6575 22.377 22.5459C22.377 22.2053 22.284 21.8888 22.136 21.6066L24.363 19.2342C24.662 19.4136 25.006 19.5225 25.377 19.5225C26.48 19.5225 27.377 18.6185 27.377 17.5068C27.377 16.3952 26.48 15.4912 25.377 15.4912ZM29 25.5694H24.5C24.393 25.5694 24.289 25.6036 24.203 25.6681L16.377 31.4973V26.0733C16.377 25.7951 16.153 25.5694 15.877 25.5694H10.36C9.911 25.5694 9.488 25.4444 9.136 25.2086C8.161 24.5565 7 23.3189 7 21.1199C7 18.1035 9.089 17.1138 10.334 16.7933C10.566 16.7328 10.724 16.5162 10.709 16.2743L10.659 15.4458C10.659 13.0422 12.307 10.4572 14.41 9.55919C15.356 9.15506 16.231 8.99481 17.024 8.99481C19.279 8.99481 20.872 10.2949 21.566 10.9984C22.332 11.7724 22.93 12.76 23.341 13.9351C23.402 14.1105 23.556 14.2375 23.738 14.2657C23.927 14.2919 24.106 14.2153 24.215 14.0661C24.838 13.2145 25.91 12.8598 26.891 13.1833C27.991 13.5491 28.623 14.6346 28.62 16.1463C28.582 16.4164 28.764 16.6683 29.03 16.7137C30.224 16.9203 33 17.7679 33 21.1622C33 25.2035 29.127 25.5573 29 25.5694ZM29.613 15.8056C29.51 14.0228 28.625 12.6985 27.203 12.2259C26.086 11.856 24.877 12.108 23.989 12.8497C23.551 11.855 22.977 10.9953 22.275 10.2858C20.02 8.00615 16.934 7.38634 14.02 8.63099C11.534 9.69222 9.659 12.6219 9.66 15.4761L9.688 15.9336C8.331 16.3821 6 17.656 6 21.1199C6 23.9055 7.618 25.4031 8.583 26.0481C9.1 26.3938 9.714 26.5772 10.36 26.5772H15.377V32.4961C15.377 32.6866 15.483 32.8599 15.651 32.9456C15.723 32.9819 15.8 33 15.877 33C15.982 33 16.087 32.9667 16.174 32.9012L24.665 26.5772L29.037 26.5762C29.087 26.5721 34 26.1479 34 21.1622C34 17.3164 31.031 16.1453 29.613 15.8056Z" fill="#DD344C"/>
</g>
<rect x="0.5" y="0.5" width="39" height="39" stroke="#DD344C"/>
<defs>
<clipPath id="clip0_23295_3072">
<rect width="40" height="40" fill="white"/>
</clipPath>
</defs>
</svg>
