<svg width="40" height="40" viewBox="0 0 40 40" fill="none" xmlns="http://www.w3.org/2000/svg">
<g clip-path="url(#clip0_23295_3056)">
<path d="M40 0H0V40H40V0Z" fill="#DD344C" fill-opacity="0.12"/>
<path fill-rule="evenodd" clip-rule="evenodd" d="M15 21.0025H20V19.9965H15V21.0025ZM15 18.9906H26V17.9847H15V18.9906ZM15 16.9787H24V15.9728H15V16.9787ZM20 10.0237C15.589 10.0237 12 13.634 12 18.0712C12 21.3052 13.885 24.2013 16.802 25.4497L16.998 25.511C17.224 25.5845 17.487 25.671 17.727 25.7585L19.699 26.4828C19.896 26.5552 20.027 26.7433 20.027 26.9546V29.5056C24.825 27.2855 28 22.7739 28 18.0712C28 13.634 24.411 10.0237 20 10.0237ZM19.527 30.7721C19.429 30.7721 19.331 30.7429 19.247 30.6856C19.109 30.592 19.027 30.4361 19.027 30.2691V27.3066L17.384 26.7031C17.157 26.6196 16.905 26.5381 16.69 26.4687L16.452 26.3902C13.124 24.9689 11 21.7096 11 18.0712C11 13.0787 15.037 9.01779 20 9.01779C24.963 9.01779 29 13.0787 29 18.0712C29 23.4016 25.269 28.4906 19.714 30.7359C19.653 30.76 19.591 30.7721 19.527 30.7721ZM20 7.00593C13.935 7.00593 9 11.9692 9 18.0712C9 22.5194 11.636 26.52 15.715 28.2613C15.782 28.2904 15.918 28.3327 16.08 28.385C16.271 28.4464 16.496 28.5198 16.699 28.5932C16.896 28.6667 17.027 28.8548 17.027 29.066V33.7778L18.169 33.3583C25.623 31.4209 31 24.998 31 18.0712C31 11.9692 26.065 7.00593 20 7.00593ZM16.527 35C16.426 35 16.326 34.9688 16.241 34.9095C16.107 34.8149 16.027 34.661 16.027 34.497V29.4251C15.94 29.396 15.854 29.3678 15.774 29.3426C15.575 29.2783 15.408 29.2229 15.324 29.1877C10.875 27.2875 8 22.9248 8 18.0712C8 11.4149 13.383 6 20 6C26.617 6 32 11.4149 32 18.0712C32 25.4497 26.308 32.282 18.466 34.318L16.699 34.9698C16.644 34.9899 16.585 35 16.527 35Z" fill="#DD344C"/>
</g>
<rect x="0.5" y="0.5" width="39" height="39" stroke="#DD344C"/>
<defs>
<clipPath id="clip0_23295_3056">
<rect width="40" height="40" fill="white"/>
</clipPath>
</defs>
</svg>
