<svg data-name="fluent_icons" xmlns="http://www.w3.org/2000/svg" width="18" height="18" viewBox="0 0 18 18"><defs><linearGradient id="a" x1="10.79" y1="2.17" x2="10.79" y2="16.56" gradientUnits="userSpaceOnUse"><stop offset=".18" stop-color="#5ea0ef"/><stop offset="1" stop-color="#0078d4"/></linearGradient></defs><rect x="3.7" y="5.49" width="1.18" height="5.26" rx=".52" transform="rotate(-90 4.29 8.12)" fill="#b3b3b3"/><rect x="2.04" y="7.88" width="1.18" height="5.26" rx=".52" transform="rotate(-90 2.63 10.51)" fill="#a3a3a3"/><rect x="3.7" y="10.26" width="1.18" height="5.26" rx=".52" transform="rotate(-90 4.295 12.895)" fill="#7a7a7a"/><path d="M18 11a3.28 3.28 0 00-2.81-3.18 4.13 4.13 0 00-4.21-4 4.23 4.23 0 00-4 2.8 3.89 3.89 0 00-3.38 3.8 4 4 0 004.06 3.86h7.11A3.32 3.32 0 0018 11z" fill="url(#a)"/></svg>