<svg width="40" height="40" viewBox="0 0 40 40" fill="none" xmlns="http://www.w3.org/2000/svg">
<g clip-path="url(#clip0_23310_9534)">
<path d="M40 0H0V40H40V0Z" fill="#DD344C" fill-opacity="0.12"/>
<path fill-rule="evenodd" clip-rule="evenodd" d="M17.7498 15.6051C17.0902 15.6051 16.5538 15.0584 16.5538 14.3871C16.5538 13.7148 17.0902 13.1682 17.7498 13.1682C18.4094 13.1682 18.9458 13.7148 18.9458 14.3871C18.9458 15.0584 18.4094 15.6051 17.7498 15.6051ZM16.8624 19.4016C17.9628 19.4016 18.858 20.3141 18.858 21.4356C18.858 22.5571 17.9628 23.4705 16.8624 23.4705C15.7611 23.4705 14.8658 22.5571 14.8658 21.4356C14.8658 20.3141 15.7611 19.4016 16.8624 19.4016ZM16.9058 25.3577C12.9876 25.3577 9.79993 22.1089 9.79993 18.1153C9.79993 14.1218 12.9876 10.8739 16.9058 10.8739C20.8231 10.8739 24.0117 14.1218 24.0117 18.1153C24.0117 19.1524 23.7928 20.1362 23.4053 21.0286L19.6774 20.4759C19.4319 19.7312 18.9162 19.1203 18.2428 18.7585V16.5477C19.2081 16.3186 19.9318 15.4393 19.9318 14.3871C19.9318 13.1611 18.9527 12.1632 17.7498 12.1632C16.5469 12.1632 15.5679 13.1611 15.5679 14.3871C15.5679 15.4393 16.2916 16.3186 17.2568 16.5477V18.4369C17.1257 18.4198 16.9965 18.3967 16.8624 18.3967C16.0786 18.3967 15.3697 18.7123 14.8372 19.2177L13.6038 17.9485C13.9469 17.4551 14.153 16.8572 14.153 16.208C14.153 15.173 13.6432 14.2223 12.7894 13.6626L12.256 14.5087C12.8259 14.8815 13.167 15.5166 13.167 16.208C13.167 17.3215 12.2767 18.2279 11.1842 18.2279V19.2328C11.8281 19.2328 12.4216 19.0178 12.9087 18.661L14.2358 20.0267C14.0159 20.4508 13.8799 20.9251 13.8799 21.4356C13.8799 23.1118 15.2178 24.4754 16.8624 24.4754C18.4794 24.4754 19.7937 23.153 19.8361 21.515L22.9094 21.9702C21.6493 24.0011 19.4319 25.3577 16.9058 25.3577ZM16.9058 9.86903C12.4443 9.86903 8.81396 13.5681 8.81396 18.1153C8.81396 22.6626 12.4443 26.3627 16.9058 26.3627C21.3673 26.3627 24.9977 22.6626 24.9977 18.1153C24.9977 13.5681 21.3673 9.86903 16.9058 9.86903ZM32.5926 32.4404C31.9823 33.1297 30.9312 33.185 30.2549 32.566L23.85 26.6782C24.7019 25.9587 25.4394 25.1075 26.0438 24.1609L32.4703 30.0587C33.1457 30.6818 33.2009 31.751 32.5926 32.4404ZM6.98597 18.1153C6.98597 12.5411 11.4357 8.00592 16.9058 8.00592C22.375 8.00592 26.8247 12.5411 26.8247 18.1153C26.8247 23.6896 22.375 28.2258 16.9058 28.2258C11.4357 28.2258 6.98597 23.6896 6.98597 18.1153ZM33.1309 29.3131L26.5555 23.2766C27.3531 21.733 27.8106 19.9784 27.8106 18.1153C27.8106 11.9864 22.9183 7 16.9058 7C10.8924 7 6 11.9864 6 18.1153C6 24.2443 10.8924 29.2307 16.9058 29.2307C19.1824 29.2307 21.2973 28.5132 23.0474 27.2922L29.5952 33.3126C30.0981 33.7739 30.7301 34 31.3601 34C32.0828 34 32.8036 33.7015 33.3252 33.1137C34.2963 32.0113 34.2086 30.3059 33.1309 29.3131Z" fill="#DD344C"/>
</g>
<rect x="0.5" y="0.5" width="39" height="39" stroke="#DD344C"/>
<defs>
<clipPath id="clip0_23310_9534">
<rect width="40" height="40" fill="white"/>
</clipPath>
</defs>
</svg>
