<svg width="40" height="40" viewBox="0 0 40 40" xmlns="http://www.w3.org/2000/svg">  <g id="Icon-Architecture/32/Arch_Amazon-ECS-Anywhere_32" stroke="none" stroke-width="1" fill="none" fill-rule="evenodd">  <g id="Icon-Service/32/Amazon-ECS-Anywhere_32" transform="translate(8.000000, 5.999898)" fill="#FFFFFF"> <path d="M22.999,17.7893015 L19.612,15.9333015 C19.861,15.1603015 19.999,14.3383015 19.999,13.4833015 C19.999,9.76430152 17.444,6.63830152 14,5.74630152 L14,1.38830152 L22.999,6.84430152 L22.999,17.7893015 Z M11.843,25.9933015 L1,19.7023015 L1,6.81530152 L9.999,1.38630152 L9.999,5.74630152 C6.554,6.63830152 3.999,9.76330152 3.999,13.4833015 C3.999,17.8943015 7.588,21.4833015 11.999,21.4833015 C14.083,21.4833015 15.978,20.6753015 17.404,19.3643015 L20.589,21.1823015 L11.843,25.9933015 Z M12.783,6.53030152 C13.775,7.66930152 14.383,10.2613015 14.476,12.9963015 L9.529,12.9963015 C9.637,10.4183015 10.216,7.91130152 11.25,6.52430152 C11.496,6.49830152 11.746,6.48330152 11.999,6.48330152 C12.264,6.48330152 12.525,6.50130152 12.783,6.53030152 L12.783,6.53030152 Z M15.48,12.9963015 C15.419,10.6483015 14.987,8.36930152 14.189,6.83930152 C16.83,7.71230152 18.775,10.1163015 18.974,12.9963015 L15.48,12.9963015 Z M15.482,13.9963015 L18.973,13.9963015 C18.766,16.8283015 16.871,19.1933015 14.29,20.0913015 C15.044,18.5063015 15.438,16.2743015 15.482,13.9963015 L15.482,13.9963015 Z M11.013,20.4063015 C10.02,19.0833015 9.525,16.5893015 9.51,13.9963015 L14.486,13.9963015 C14.455,16.5193015 13.976,18.9943015 12.955,20.4103015 C12.641,20.4533015 12.324,20.4833015 11.999,20.4833015 C11.663,20.4833015 11.336,20.4513015 11.013,20.4063015 L11.013,20.4063015 Z M8.498,13.9963015 C8.514,16.2813015 8.894,18.5033015 9.65,20.0693015 C7.098,19.1563015 5.23,16.8063015 5.025,13.9963015 L8.498,13.9963015 Z M5.024,12.9963015 C5.226,10.0803015 7.216,7.64830152 9.907,6.80330152 C9.075,8.41130152 8.608,10.6793015 8.515,12.9963015 L5.024,12.9963015 Z M23.758,6.13430152 L13.759,0.0723015162 C13.604,-0.0216984838 13.411,-0.0236984838 13.255,0.0643015162 C13.098,0.153301516 13,0.319301516 13,0.500301516 L13,5.55230152 C12.671,5.51130152 12.339,5.48330152 11.999,5.48330152 C11.66,5.48330152 11.327,5.51130152 10.999,5.55230152 L10.999,0.500301516 C10.999,0.320301516 10.902,0.153301516 10.745,0.0643015162 C10.589,-0.0236984838 10.395,-0.0216984838 10.241,0.0723015162 L0.242,6.10430152 C0.092,6.19530152 -1.77635684e-15,6.35730152 -1.77635684e-15,6.53330152 L-1.77635684e-15,19.9903015 C-1.77635684e-15,20.1683015 0.095,20.3333015 0.249,20.4233015 L11.585,26.9993015 C11.662,27.0443015 11.749,27.0673015 11.836,27.0673015 C11.919,27.0673015 12.002,27.0463015 12.077,27.0053015 L21.853,21.6273015 C22.011,21.5403015 22.11,21.3743015 22.111,21.1933015 C22.112,21.0123015 22.017,20.8453015 21.859,20.7553015 L18.121,18.6233015 C18.567,18.0933015 18.94,17.5023015 19.237,16.8683015 L23.259,19.0723015 C23.334,19.1133015 23.416,19.1333015 23.499,19.1333015 C23.587,19.1333015 23.676,19.1103015 23.754,19.0633015 C23.906,18.9743015 23.999,18.8103015 23.999,18.6333015 L23.999,6.56230152 C23.999,6.38730152 23.908,6.22530152 23.758,6.13430152 L23.758,6.13430152 Z" id="Fill-1"></path> </g> </g></svg>