<svg width="16" height="16" viewBox="0 0 16 16" fill="none" xmlns="http://www.w3.org/2000/svg">
<g opacity="0.8">
<path fill-rule="evenodd" clip-rule="evenodd" d="M1.6 16C2.48365 16 3.2 14.2091 3.2 12C3.2 9.79086 2.48365 7.99999 1.6 7.99999C0.716343 7.99999 0 6.20914 0 3.99999C0 1.79085 0.716342 0 1.6 0H14.4C13.5164 0 12.8 1.79085 12.8 3.99999C12.8 6.20914 13.5164 7.99999 14.4 7.99999C15.2837 7.99999 16 9.79086 16 12C16 14.2091 15.2837 16 14.4 16H1.6Z" fill="#EEEEEE"/>
<path fill-rule="evenodd" clip-rule="evenodd" d="M1.6 16C2.48365 16 3.2 14.2091 3.2 12C3.2 9.79086 2.48365 7.99999 1.6 7.99999C0.716343 7.99999 0 6.20914 0 3.99999C0 1.79085 0.716342 0 1.6 0H14.4C13.5164 0 12.8 1.79085 12.8 3.99999C12.8 6.20914 13.5164 7.99999 14.4 7.99999C15.2837 7.99999 16 9.79086 16 12C16 14.2091 15.2837 16 14.4 16H1.6Z" fill="#EEEEEE"/>
<line x1="2" y1="3.5" x2="10" y2="3.5" stroke="#3C494E"/>
<line x1="4" y1="6.5" x2="12" y2="6.5" stroke="#3C494E"/>
<line x1="4" y1="8.5" x2="12" y2="8.5" stroke="#3C494E"/>
<line x1="5" y1="11.5" x2="13" y2="11.5" stroke="#3C494E"/>
</g>
</svg>
