<svg width="22" height="20" viewBox="0 0 22 20" fill="none" xmlns="http://www.w3.org/2000/svg">
<g opacity="0.8" clip-path="url(#clip0)">
<path d="M0.00683594 4.47073C0.0137941 3.28504 0.482408 2.15011 1.31072 1.31285C2.13904 0.475589 3.26003 0.00375466 4.42981 0C6.85016 0.00622665 8.84664 2.02989 8.8405 4.48941C8.83436 6.94894 6.83173 8.96638 4.41138 8.96015C3.24132 8.95243 2.12172 8.47617 1.29664 7.6352C0.471573 6.79423 0.00794603 5.65675 0.00683594 4.47073V4.47073ZM4.42367 7.71482C5.05519 7.71482 5.67255 7.52508 6.19773 7.16957C6.7229 6.81407 7.13234 6.30875 7.37429 5.71747C7.61624 5.12619 7.67986 4.47549 7.5571 3.84757C7.43434 3.21966 7.13072 2.64272 6.68459 2.18965C6.23847 1.73658 5.66986 1.42771 5.05062 1.30208C4.43137 1.17644 3.78929 1.23968 3.20549 1.48379C2.62169 1.7279 2.12237 2.14193 1.77063 2.67358C1.41889 3.20522 1.23051 3.83061 1.2293 4.47073C1.22881 5.33019 1.565 6.15468 2.16399 6.763C2.76298 7.37131 3.57575 7.71366 4.42367 7.71482V7.71482Z" fill="#DDDDDD"/>
<path d="M4.41641 11.0585C5.58627 11.0585 6.70848 11.5282 7.53743 12.365C8.36637 13.2017 8.83451 14.3372 8.83938 15.523C8.84552 17.9825 6.86133 19.9937 4.42255 20C3.84333 20.0004 3.2697 19.8851 2.73442 19.6608C2.19914 19.4365 1.71268 19.1076 1.30282 18.6927C0.892967 18.2778 0.56774 17.7852 0.345709 17.243C0.123679 16.7007 0.00919349 16.1194 0.00879013 15.5323C0.00838678 14.9452 0.122073 14.3638 0.343358 13.8212C0.564644 13.2786 0.889194 12.7856 1.29848 12.3701C1.70776 11.9547 2.19377 11.625 2.72874 11.4C3.26372 11.1749 3.83719 11.0589 4.41641 11.0585V11.0585ZM4.42869 18.7671C5.06152 18.7658 5.67972 18.5741 6.20486 18.2161C6.73001 17.8582 7.13844 17.3502 7.37834 16.7567C7.61824 16.1631 7.6788 15.5107 7.55234 14.8822C7.42589 14.2537 7.1181 13.6774 6.66804 13.2265C6.21798 12.7755 5.64593 12.4703 5.02444 12.3494C4.40296 12.2285 3.76005 12.2974 3.17727 12.5475C2.5945 12.7975 2.09813 13.2173 1.75111 13.7537C1.4041 14.2901 1.2221 14.9189 1.22818 15.5603C1.23628 16.4148 1.57725 17.2313 2.17676 17.832C2.77627 18.4326 3.58573 18.7688 4.42869 18.7671V18.7671Z" fill="#DDDDDD"/>
<path d="M16.6536 15.0436H12.0832C11.5979 15.0436 11.3092 14.807 11.2908 14.4085C11.2784 14.2362 11.3332 14.0659 11.4435 13.9343C11.5539 13.8027 11.7108 13.7203 11.8805 13.7049C11.9724 13.6966 12.0648 13.6945 12.157 13.6986H21.1135C21.2159 13.6944 21.3185 13.6965 21.4206 13.7049C21.5788 13.728 21.7236 13.808 21.8285 13.9303C21.9333 14.0526 21.9914 14.2091 21.9919 14.3711C21.9918 14.5284 21.9359 14.6803 21.8343 14.7992C21.7328 14.9181 21.5925 14.996 21.4391 15.0187C21.3271 15.0344 21.2141 15.0406 21.1012 15.0374C19.6207 15.0436 18.1341 15.0436 16.6536 15.0436Z" fill="#DDDDDD"/>
<path d="M16.648 2.65877C18.1899 2.65877 19.738 2.65255 21.2799 2.65877C21.8512 2.65877 22.1767 3.20049 21.9003 3.66126C21.7467 3.91655 21.5071 3.99127 21.2184 3.98505C18.8841 3.97882 16.5559 3.98505 14.2215 3.98505H12.0407C11.5739 3.98505 11.2852 3.72975 11.2852 3.3188C11.2852 2.90784 11.5677 2.65877 12.0407 2.65877H16.648Z" fill="#DDDDDD"/>
<path d="M16.0024 17.3599C14.6755 17.3599 13.3424 17.3661 12.0155 17.3599C11.4504 17.3599 11.1064 16.8804 11.3275 16.4134C11.4749 16.1021 11.7391 16.0149 12.0647 16.0149C13.4161 16.0211 14.7615 16.0149 16.1129 16.0149H20.0076C20.4622 16.0149 20.7386 16.2328 20.7816 16.6002C20.8308 17.0485 20.5298 17.3599 20.0261 17.3599H16.0024Z" fill="white"/>
<path d="M16.027 6.30137C14.6755 6.30137 13.324 6.3076 11.9726 6.30137C11.4381 6.30137 11.1187 5.8406 11.3153 5.37983C11.4381 5.0934 11.6716 4.9751 11.9787 4.9751C12.7896 4.98132 13.5943 4.9751 14.4052 4.9751H20.0261C20.4377 4.9751 20.6957 5.1619 20.7632 5.49191C20.8554 5.94023 20.5605 6.30137 20.0752 6.30137H16.027Z" fill="white"/>
<path d="M3.86377 4.7385C3.61805 4.4583 3.4399 4.22791 3.23718 4.02866C2.96075 3.75468 2.58602 3.76091 2.33416 4.02243C2.08229 4.28395 2.07001 4.66378 2.33416 4.93775C2.69045 5.31135 3.05289 5.67872 3.42147 6.03987C3.71019 6.32007 4.06035 6.32007 4.34907 6.03364C5.0678 5.31135 5.78654 4.58906 6.49298 3.85431C6.5947 3.74239 6.66474 3.60471 6.6957 3.45581C6.74485 3.15693 6.60356 2.92654 6.33941 2.79578C6.22108 2.72996 6.08413 2.70705 5.95121 2.73082C5.81828 2.7546 5.69735 2.82364 5.60839 2.92654C5.04323 3.49939 4.49036 4.07847 3.86377 4.7385Z" fill="white"/>
<path d="M3.8641 4.7385C4.49683 4.07847 5.0497 3.49317 5.60872 2.92031C5.69768 2.81742 5.81861 2.74837 5.95154 2.7246C6.08446 2.70082 6.2214 2.72374 6.33974 2.78955C6.60389 2.92031 6.74518 3.1507 6.69603 3.44958C6.66774 3.59943 6.59734 3.73781 6.49331 3.84809C5.78686 4.58283 5.06813 5.30512 4.3494 6.02742C4.06068 6.31384 3.71052 6.32007 3.4218 6.03364C3.05322 5.6725 2.69078 5.30512 2.33449 4.93152C2.07034 4.65132 2.07648 4.2715 2.33449 4.01621C2.59249 3.76091 2.96108 3.74846 3.23751 4.02243C3.44023 4.22791 3.61838 4.4583 3.8641 4.7385Z" fill="white"/>
<path d="M4.41666 16.401C4.10337 16.7497 3.8515 17.0424 3.58735 17.3101C3.27406 17.6277 2.89319 17.6339 2.61676 17.3413C2.34646 17.0611 2.35875 16.6875 2.65362 16.3761C2.90548 16.1084 3.16963 15.8406 3.42149 15.5729C3.42764 15.5667 3.42764 15.5542 3.45221 15.5106C3.20649 15.2616 2.95462 14.9938 2.69662 14.7323C2.36489 14.3836 2.33418 14.0162 2.61676 13.7174C2.89934 13.4185 3.29249 13.4372 3.6365 13.7921C3.88836 14.0474 4.1218 14.3214 4.43509 14.67C4.68695 14.3712 4.88353 14.1221 5.10468 13.8979C5.54083 13.4496 5.89099 13.3936 6.21042 13.7111C6.52986 14.0287 6.47457 14.4023 6.04456 14.8319C5.81727 15.0561 5.57155 15.2553 5.2644 15.5293C5.61455 15.8531 5.90327 16.1022 6.16742 16.3699C6.48072 16.6812 6.48686 17.0797 6.20428 17.3599C5.9217 17.6401 5.55312 17.6339 5.23368 17.3039C4.98182 17.0362 4.7361 16.7497 4.41666 16.401Z" fill="white"/>
</g>
<defs>
<clipPath id="clip0">
<rect width="22" height="20" fill="white"/>
</clipPath>
</defs>
</svg>
