<svg width="70" height="70" viewBox="0 0 70 70" fill="none" xmlns="http://www.w3.org/2000/svg">
<path d="M69.572 4.72437L64.8476 0L56.7891 8.05857C50.4772 3.9983 41.9767 4.7298 36.4534 10.2531L27.063 19.6435L50.1179 42.6984L59.5083 33.308C65.0986 27.7177 65.7802 19.0774 61.5529 12.7435L69.572 4.72437Z" fill="#326CE5"/>
<path d="M69.0068 5.29448L64.2824 0.570118L56.7915 8.061C50.4793 3.99797 41.9765 4.72865 36.4521 10.253L27.0617 19.6434L50.1166 42.6983L59.507 33.3079C65.0962 27.7187 65.7785 19.0808 61.554 12.7472L69.0068 5.29448Z" fill="#326CE5"/>
<path d="M4.72437 69.5701L0 64.8457L7.48988 57.3559C3.43045 51.0441 4.1622 42.5443 9.68512 37.0214L19.0755 27.631L22.0973 30.6528L27.42 25.3301L32.1444 30.0545L26.8217 35.3772L34.3818 42.9373L39.7054 37.6136L44.4298 42.338L39.1061 47.6616L42.1304 50.6859L32.74 60.0763C27.1494 65.667 18.5084 66.3482 12.1744 62.1201L4.72437 69.5701Z" fill="#326CE5"/>
</svg>
