<svg width="90" height="84" viewBox="0 0 90 84" fill="none" xmlns="http://www.w3.org/2000/svg">
<path fill-rule="evenodd" clip-rule="evenodd" d="M58.5319 0.5H30.2115V29.0114H58.5319V0.5ZM89.9992 54.9883H61.6788V83.4997H89.9992V54.9883ZM0.00195312 54.9883H28.3223V83.4997H0.00195312V54.9883ZM29.4967 34.1674L15.9681 35.2439L20.454 39.7571L12.0323 48.2303L15.96 52.1819L24.3817 43.7088L29.1538 48.51L29.4967 34.1674ZM59.8938 50.7179L73.4223 51.7943L73.0795 37.4517L68.3073 42.2529L59.8856 33.7798L55.9579 37.7314L64.3797 46.2046L59.8938 50.7179ZM34.2868 70.2225L44.6095 79.0859V72.7039H56.5202L56.5202 67.1155H44.6095L44.6095 60.3247L34.2868 70.2225Z" fill="#326CE5"/>
</svg>
