<svg width="79" height="66" viewBox="0 0 79 66" fill="none" xmlns="http://www.w3.org/2000/svg">
<path fill-rule="evenodd" clip-rule="evenodd" d="M2 0.574219C0.895431 0.574219 0 1.46965 0 2.57422V61.2566C0 62.3611 0.895432 63.2566 2 63.2566H42.2588L45.6725 49.8293C42.2308 47.2787 40 43.187 40 38.5742C40 30.8422 46.268 24.5742 54 24.5742C61.732 24.5742 68 30.8422 68 38.5742C68 42.8217 66.1085 46.6273 63.1219 49.1948L66.4586 63.2566H76.3C77.4046 63.2566 78.3 62.3611 78.3 61.2566V2.57422C78.3 1.46965 77.4046 0.574219 76.3 0.574219H2ZM33.2825 31.915C34.3608 31.915 35.2349 31.0409 35.2349 29.9627C35.2349 28.8844 34.3608 28.0103 33.2825 28.0103H13.6972C12.619 28.0103 11.7449 28.8844 11.7449 29.9627C11.7449 31.0409 12.619 31.915 13.6972 31.915H33.2825ZM13.6972 16.2451C12.619 16.2451 11.7449 15.371 11.7449 14.2927C11.7449 13.2145 12.619 12.3404 13.6972 12.3404H64.6025C65.6808 12.3404 66.5549 13.2145 66.5549 14.2927C66.5549 15.371 65.6808 16.2451 64.6025 16.2451H13.6972ZM64 38.5742C64 44.0971 59.5228 48.5742 54 48.5742C48.4772 48.5742 44 44.0971 44 38.5742C44 33.0514 48.4772 28.5742 54 28.5742C59.5228 28.5742 64 33.0514 64 38.5742ZM48.6577 51.0287L45.5601 64.1935C45.355 65.065 46.3106 65.7461 47.0675 65.268L54.5 60.5738L61.848 65.2146C62.6163 65.6999 63.5812 64.9917 63.3487 64.1133L59.8031 50.7188C58.1667 51.8867 56.1636 52.5738 54 52.5738C52.0354 52.5738 50.2032 52.0073 48.6577 51.0287Z" fill="#326CE5"/>
</svg>
