<svg width="88" height="78" viewBox="0 0 88 78" fill="none" xmlns="http://www.w3.org/2000/svg">
<path d="M15.3867 30.2221H24.2742V36.1475H15.3867V45.0357H9.4617V36.1475H0.574219V30.2221H9.4617V21.334H15.3867V30.2221Z" fill="#326CE5"/>
<path fill-rule="evenodd" clip-rule="evenodd" d="M48.7107 38.8871C59.3982 38.8871 68.0622 30.2232 68.0622 19.5358C68.0622 8.84842 59.3982 0.18457 48.7107 0.18457C38.0231 0.18457 29.3591 8.84842 29.3591 19.5358C29.3591 30.2232 38.0231 38.8871 48.7107 38.8871ZM34.6833 39.9059C35.0726 39.8491 35.466 39.9504 35.7988 40.1601C39.2837 42.3561 43.7547 43.6756 48.6303 43.6756C53.5338 43.6756 58.0281 42.3409 61.5215 40.1223C61.8472 39.9154 62.2317 39.8126 62.6143 39.8617C71.9678 41.0631 79.1959 49.0553 79.1959 58.7356V66.2314C79.1959 72.6288 74.0098 77.8149 67.6124 77.8149H30.0072C23.6099 77.8149 18.4238 72.6288 18.4238 66.2315V58.7356C18.4238 49.1667 25.4865 41.2473 34.6833 39.9059Z" fill="#326CE5"/>
<path fill-rule="evenodd" clip-rule="evenodd" d="M79.7348 76.3657C81.4193 74.2233 82.4241 71.5211 82.4241 68.5843V57.8844C82.4241 49.8298 77.8237 42.8497 71.1072 39.4282C80.4385 40.9684 87.5159 48.5283 87.4231 57.4504V65.8827C87.4231 70.638 84.2496 74.6931 79.7348 76.3657ZM71.3182 19.5354C71.3182 24.449 69.8323 29.0155 67.2854 32.8102C73.9225 30.5854 78.7047 24.3163 78.7047 16.9301C78.7047 7.68235 71.208 0.185547 61.9602 0.185547C61.7814 0.185547 61.6033 0.18835 61.4258 0.193915C67.4187 4.52623 71.3182 11.5754 71.3182 19.5354Z" fill="#326CE5"/>
</svg>
