<svg width="74" height="88" viewBox="0 0 74 88" fill="none" xmlns="http://www.w3.org/2000/svg">
<mask id="path-1-inside-1_26953_25991" fill="white">
<path fill-rule="evenodd" clip-rule="evenodd" d="M8.67639 12.6635H12.1399H55.0507V36.4639L58.5141 35.8172V11.2C58.5141 10.0954 57.6187 9.19999 56.5141 9.19999H15.6033H12.1399V7.42696V5.73651V3.96348H15.6033H60.2636H63.727V7.42696V35.7275L67.1905 36.3338V3.96348V2.5C67.1905 1.39543 66.2951 0.5 65.1905 0.5H63.727H12.1399H10.6764C9.57182 0.5 8.67639 1.39543 8.67639 2.5V3.96348V5.73651V9.19999H5.21291H2C0.89543 9.19999 0 10.0954 0 11.2V85.5C0 86.6046 0.895429 87.5 2 87.5H56.5141C57.6187 87.5 58.5141 86.6046 58.5141 85.5V82.2635V78.8H61.9776H63.727H65.1905C66.2951 78.8 67.1905 77.9046 67.1905 76.8V75.3365V66.0589C67.1498 66.0812 67.1089 66.1033 67.0679 66.1253L63.727 67.9187V71.873V75.3365H61.9776H60.2636H58.5141V71.873V67.7429L55.5009 66.1253C55.3493 66.0439 55.1992 65.9604 55.0507 65.875V75.3365V78.8V84.0365H3.46348V12.6635H8.67639Z"/>
</mask>
<path fill-rule="evenodd" clip-rule="evenodd" d="M8.67639 12.6635H12.1399H55.0507V36.4639L58.5141 35.8172V11.2C58.5141 10.0954 57.6187 9.19999 56.5141 9.19999H15.6033H12.1399V7.42696V5.73651V3.96348H15.6033H60.2636H63.727V7.42696V35.7275L67.1905 36.3338V3.96348V2.5C67.1905 1.39543 66.2951 0.5 65.1905 0.5H63.727H12.1399H10.6764C9.57182 0.5 8.67639 1.39543 8.67639 2.5V3.96348V5.73651V9.19999H5.21291H2C0.89543 9.19999 0 10.0954 0 11.2V85.5C0 86.6046 0.895429 87.5 2 87.5H56.5141C57.6187 87.5 58.5141 86.6046 58.5141 85.5V82.2635V78.8H61.9776H63.727H65.1905C66.2951 78.8 67.1905 77.9046 67.1905 76.8V75.3365V66.0589C67.1498 66.0812 67.1089 66.1033 67.0679 66.1253L63.727 67.9187V71.873V75.3365H61.9776H60.2636H58.5141V71.873V67.7429L55.5009 66.1253C55.3493 66.0439 55.1992 65.9604 55.0507 65.875V75.3365V78.8V84.0365H3.46348V12.6635H8.67639Z" fill="white"/>
<path d="M55.0507 12.6635H58.5141V9.19999H55.0507V12.6635ZM55.0507 36.4639H51.5872V40.6339L55.6864 39.8686L55.0507 36.4639ZM58.5141 35.8172L59.1498 39.2219L61.9776 38.6939V35.8172H58.5141ZM12.1399 9.19999H8.67639V12.6635H12.1399V9.19999ZM12.1399 3.96348V0.5H8.67639V3.96348H12.1399ZM63.727 3.96348H67.1905V0.5H63.727V3.96348ZM63.727 35.7275H60.2636V38.6374L63.1298 39.1392L63.727 35.7275ZM67.1905 36.3338L66.5933 39.7454L70.654 40.4562V36.3338H67.1905ZM8.67639 9.19999V12.6635H12.1399V9.19999H8.67639ZM58.5141 78.8V75.3365H55.0507V78.8H58.5141ZM67.1905 66.0589H70.654V60.2152L65.5278 63.0206L67.1905 66.0589ZM67.0679 66.1253L65.4299 63.0737L65.4298 63.0737L67.0679 66.1253ZM63.727 67.9187L62.0889 64.8671L60.2636 65.847V67.9187H63.727ZM63.727 75.3365V78.8H67.1905V75.3365H63.727ZM58.5141 75.3365H55.0507V78.8H58.5141V75.3365ZM58.5141 67.7429H61.9776V65.6711L60.1523 64.6913L58.5141 67.7429ZM55.5009 66.1253L57.139 63.0737L57.1389 63.0737L55.5009 66.1253ZM55.0507 65.875L56.7784 62.8732L51.5872 59.8852V65.875H55.0507ZM55.0507 84.0365V87.5H58.5141V84.0365H55.0507ZM3.46348 84.0365H0V87.5H3.46348V84.0365ZM3.46348 12.6635V9.19999H0V12.6635H3.46348ZM12.1399 9.19999H8.67639V16.127H12.1399V9.19999ZM55.0507 9.19999H12.1399V16.127H55.0507V9.19999ZM58.5141 36.4639V12.6635H51.5872V36.4639H58.5141ZM57.8784 32.4126L54.4149 33.0593L55.6864 39.8686L59.1498 39.2219L57.8784 32.4126ZM61.9776 35.8172V11.2H55.0507V35.8172H61.9776ZM61.9776 11.2C61.9776 8.1826 59.5315 5.73651 56.5141 5.73651V12.6635C55.7059 12.6635 55.0507 12.0082 55.0507 11.2H61.9776ZM56.5141 5.73651H15.6033V12.6635H56.5141V5.73651ZM15.6033 5.73651H12.1399V12.6635H15.6033V5.73651ZM15.6033 9.19999V7.42696H8.67639V9.19999H15.6033ZM15.6033 7.42696V5.73651H8.67639V7.42696H15.6033ZM15.6033 5.73651V3.96348H8.67639V5.73651H15.6033ZM12.1399 7.42696H15.6033V0.5H12.1399V7.42696ZM15.6033 7.42696H60.2636V0.5H15.6033V7.42696ZM60.2636 7.42696H63.727V0.5H60.2636V7.42696ZM60.2636 3.96348V7.42696H67.1905V3.96348H60.2636ZM60.2636 7.42696V35.7275H67.1905V7.42696H60.2636ZM67.7877 32.9222L64.3242 32.3159L63.1298 39.1392L66.5933 39.7454L67.7877 32.9222ZM70.654 36.3338V3.96348H63.727V36.3338H70.654ZM70.654 3.96348V2.5H63.727V3.96348H70.654ZM70.654 2.5C70.654 -0.517389 68.2079 -2.96348 65.1905 -2.96348V3.96348C64.3823 3.96348 63.727 3.30825 63.727 2.5H70.654ZM65.1905 -2.96348H63.727V3.96348H65.1905V-2.96348ZM63.727 -2.96348H12.1399V3.96348H63.727V-2.96348ZM12.1399 -2.96348H10.6764V3.96348H12.1399V-2.96348ZM10.6764 -2.96348C7.65899 -2.96348 5.21291 -0.517394 5.21291 2.5H12.1399C12.1399 3.30826 11.4846 3.96348 10.6764 3.96348V-2.96348ZM5.21291 2.5V3.96348H12.1399V2.5H5.21291ZM5.21291 3.96348V5.73651H12.1399V3.96348H5.21291ZM5.21291 5.73651V9.19999H12.1399V5.73651H5.21291ZM8.67639 5.73651H5.21291V12.6635H8.67639V5.73651ZM5.21291 5.73651H2V12.6635H5.21291V5.73651ZM2 5.73651C-1.0174 5.73651 -3.46348 8.1826 -3.46348 11.2H3.46348C3.46348 12.0082 2.80826 12.6635 2 12.6635V5.73651ZM-3.46348 11.2V85.5H3.46348V11.2H-3.46348ZM-3.46348 85.5C-3.46348 88.5174 -1.01739 90.9635 2 90.9635V84.0365C2.80825 84.0365 3.46348 84.6917 3.46348 85.5H-3.46348ZM2 90.9635H56.5141V84.0365H2V90.9635ZM56.5141 90.9635C59.5315 90.9635 61.9776 88.5174 61.9776 85.5H55.0507C55.0507 84.6917 55.7059 84.0365 56.5141 84.0365V90.9635ZM61.9776 85.5V82.2635H55.0507V85.5H61.9776ZM61.9776 82.2635V78.8H55.0507V82.2635H61.9776ZM58.5141 82.2635H61.9776V75.3365H58.5141V82.2635ZM61.9776 82.2635H63.727V75.3365H61.9776V82.2635ZM63.727 82.2635H65.1905V75.3365H63.727V82.2635ZM65.1905 82.2635C68.2079 82.2635 70.654 79.8174 70.654 76.8H63.727C63.727 75.9917 64.3823 75.3365 65.1905 75.3365V82.2635ZM70.654 76.8V75.3365H63.727V76.8H70.654ZM70.654 75.3365V66.0589H63.727V75.3365H70.654ZM68.706 69.177C68.7552 69.1505 68.8043 69.1239 68.8533 69.0971L65.5278 63.0206C65.4952 63.0384 65.4626 63.0561 65.4299 63.0737L68.706 69.177ZM65.3652 70.9703L68.7061 69.1769L65.4298 63.0737L62.0889 64.8671L65.3652 70.9703ZM60.2636 67.9187V71.873H67.1905V67.9187H60.2636ZM60.2636 71.873V75.3365H67.1905V71.873H60.2636ZM63.727 71.873H61.9776V78.8H63.727V71.873ZM61.9776 71.873H60.2636V78.8H61.9776V71.873ZM60.2636 71.873H58.5141V78.8H60.2636V71.873ZM61.9776 75.3365V71.873H55.0507V75.3365H61.9776ZM61.9776 71.873V67.7429H55.0507V71.873H61.9776ZM53.8628 69.1769L56.876 70.7944L60.1523 64.6913L57.139 63.0737L53.8628 69.1769ZM53.3229 68.8767C53.5009 68.9792 53.6809 69.0793 53.8628 69.1769L57.1389 63.0737C57.0176 63.0086 56.8974 62.9417 56.7784 62.8732L53.3229 68.8767ZM58.5141 75.3365V65.875H51.5872V75.3365H58.5141ZM58.5141 78.8V75.3365H51.5872V78.8H58.5141ZM58.5141 84.0365V78.8H51.5872V84.0365H58.5141ZM3.46348 87.5H55.0507V80.573H3.46348V87.5ZM0 12.6635V84.0365H6.92696V12.6635H0ZM8.67639 9.19999H3.46348V16.127H8.67639V9.19999Z" fill="#326CE5" mask="url(#path-1-inside-1_26953_25991)"/>
<path d="M61.5694 37.9766L51.4806 39.8603C50.5339 40.0371 49.8477 40.8633 49.8477 41.8263V50.5197C49.8477 55.6865 52.688 60.4349 57.2403 62.8787L60.979 64.8857C61.5698 65.2028 62.2802 65.2028 62.8709 64.8857L66.6096 62.8787C71.1619 60.4349 74.0023 55.6865 74.0023 50.5197V41.7046C74.0023 40.733 73.3041 39.902 72.3471 39.7345L62.2813 37.9725C62.0457 37.9313 61.8045 37.9326 61.5694 37.9766Z" fill="#326CE5"/>
</svg>
