<svg width="70" height="78" viewBox="0 0 70 78" fill="none" xmlns="http://www.w3.org/2000/svg">
<path fill-rule="evenodd" clip-rule="evenodd" d="M31.0114 39.015C41.699 39.015 50.363 30.3512 50.363 19.6637C50.363 8.97635 41.699 0.3125 31.0114 0.3125C20.3239 0.3125 11.6599 8.97635 11.6599 19.6637C11.6599 30.3512 20.3239 39.015 31.0114 39.015ZM16.9841 40.0338C17.3733 39.9771 17.7668 40.0783 18.0996 40.2881C21.5844 42.484 26.0555 43.8036 30.931 43.8036C35.8346 43.8036 40.3289 42.4688 43.8223 40.2502C44.148 40.0434 44.5325 39.9405 44.9151 39.9897C54.2686 41.1911 61.4966 49.1832 61.4966 58.8635V66.3594C61.4966 72.7567 56.3106 77.9428 49.9132 77.9428H12.308C5.91067 77.9428 0.724609 72.7567 0.724609 66.3594V58.8635C0.724609 49.2946 7.78723 41.3752 16.9841 40.0338Z" fill="#326CE5"/>
<path fill-rule="evenodd" clip-rule="evenodd" d="M62.0356 76.4937C63.7201 74.3512 64.7249 71.649 64.7249 68.7122V58.0123C64.7249 49.9577 60.1245 42.9776 53.408 39.5561C62.7393 41.0963 69.8167 48.6562 69.7238 57.5783V66.0106C69.7238 70.766 66.5504 74.8211 62.0356 76.4937ZM53.6189 19.6633C53.6189 24.5769 52.1331 29.1434 49.5862 32.9381C56.2233 30.7133 61.0055 24.4442 61.0055 17.0581C61.0055 7.81028 53.5088 0.313477 44.261 0.313477C44.0822 0.313477 43.904 0.31628 43.7266 0.321844C49.7194 4.65416 53.6189 11.7034 53.6189 19.6633Z" fill="#326CE5"/>
</svg>
