<svg width="82" height="82" viewBox="0 0 82 82" fill="none" xmlns="http://www.w3.org/2000/svg">
<path fill-rule="evenodd" clip-rule="evenodd" d="M76.1284 41C76.1284 60.4009 60.4009 76.1284 41 76.1284C21.5991 76.1284 5.87156 60.4009 5.87156 41C5.87156 21.5991 21.5991 5.87156 41 5.87156C60.4009 5.87156 76.1284 21.5991 76.1284 41ZM82 41C82 63.6437 63.6437 82 41 82C18.3563 82 0 63.6437 0 41C0 18.3563 18.3563 0 41 0C63.6437 0 82 18.3563 82 41ZM56.071 13.6591C51.4547 11.114 46.2692 9.7793 40.9978 9.7793V40.9995L16.7522 60.668C20.0732 64.7618 24.3766 67.948 29.2613 69.9297C34.1461 71.9113 39.4531 72.6239 44.6875 72.0009C49.922 71.3779 54.9134 69.4396 59.1966 66.3668C63.4798 63.294 66.9152 59.1867 69.1825 54.4279C71.4498 49.669 72.4753 44.4135 72.1632 39.1514C71.8512 33.8892 70.2118 28.7918 67.3979 24.3342C64.5841 19.8766 60.6873 16.2042 56.071 13.6591Z" fill="#326CE5"/>
</svg>
