<svg width="88" height="70" viewBox="0 0 88 70" fill="none" xmlns="http://www.w3.org/2000/svg">
<path fill-rule="evenodd" clip-rule="evenodd" d="M2 0.5C0.895431 0.5 0 1.39543 0 2.5V4.49927C0 5.60384 0.89543 6.49927 2 6.49927H13.2982C14.4027 6.49927 15.2982 5.60384 15.2982 4.49927V2.5C15.2982 1.39543 14.4027 0.5 13.2982 0.5H2ZM27.4691 0.5C26.3645 0.5 25.4691 1.39543 25.4691 2.5V4.5C25.4691 5.60457 26.3645 6.5 27.4691 6.5H85.9442C87.0488 6.5 87.9442 5.60457 87.9442 4.5V2.5C87.9442 1.39543 87.0488 0.5 85.9442 0.5H27.4691ZM48.4776 23.6277C48.4776 22.5232 49.373 21.6277 50.4776 21.6277H85.999C87.1036 21.6277 87.999 22.5232 87.999 23.6277V25.5C87.999 26.6046 87.1036 27.5 85.999 27.5H50.4776C49.373 27.5 48.4776 26.6046 48.4776 25.5V23.6277ZM25.1335 21.5C24.0289 21.5 23.1335 22.3954 23.1335 23.5V25.3721C23.1335 26.4767 24.0289 27.3721 25.1335 27.3721H36.4317C37.5362 27.3721 38.4317 26.4767 38.4317 25.3721V23.5C38.4317 22.3954 37.5362 21.5 36.4317 21.5H25.1335ZM48.4776 44.6277C48.4776 43.5232 49.373 42.6277 50.4776 42.6277H85.999C87.1036 42.6277 87.999 43.5232 87.999 44.6277V46.5C87.999 47.6046 87.1036 48.5 85.999 48.5H50.4776C49.373 48.5 48.4776 47.6046 48.4776 46.5V44.6277ZM25.1335 42.5C24.0289 42.5 23.1335 43.3954 23.1335 44.5V46.3721C23.1335 47.4767 24.0289 48.3721 25.1335 48.3721H36.4317C37.5362 48.3721 38.4317 47.4767 38.4317 46.3721V44.5C38.4317 43.3954 37.5362 42.5 36.4317 42.5H25.1335ZM25.4691 65.5C25.4691 64.3954 26.3645 63.5 27.4691 63.5H85.9442C87.0488 63.5 87.9442 64.3954 87.9442 65.5V67.5C87.9442 68.6046 87.0488 69.5 85.9442 69.5H27.4691C26.3645 69.5 25.4691 68.6046 25.4691 67.5V65.5ZM2 63.5C0.895431 63.5 0 64.3954 0 65.5V67.4993C0 68.6038 0.89543 69.4993 2 69.4993H13.2982C14.4027 69.4993 15.2982 68.6038 15.2982 67.4993V65.5C15.2982 64.3954 14.4027 63.5 13.2982 63.5H2Z" fill="#326CE5"/>
</svg>
