<svg width="88" height="74" viewBox="0 0 88 74" fill="none" xmlns="http://www.w3.org/2000/svg">
<path d="M50.3973 3.60128C49.5202 2.27155 50.4738 0.5 52.0668 0.5H66.6036C67.285 0.5 67.9195 0.846958 68.2873 1.42064L73.1165 8.95389C73.5319 9.60188 73.5386 10.4308 73.1337 11.0854L68.2835 18.9265C67.919 19.5158 67.2754 19.8744 66.5826 19.8744H51.9953C50.4171 19.8744 49.4607 18.1319 50.3081 16.8005L53.9317 11.1076C54.3551 10.4424 54.3482 9.59054 53.914 8.93236L50.3973 3.60128Z" fill="#326CE5"/>
<path d="M22.4241 1.50546C22.7805 0.883583 23.4425 0.5 24.1593 0.5H42.4695C43.1509 0.5 43.7854 0.846958 44.1532 1.42064L48.9824 8.95389C49.3978 9.60188 49.4045 10.4308 48.9995 11.0854L44.1493 18.9265C43.7848 19.5158 43.1413 19.8744 42.4484 19.8744H35.3157C34.5969 19.8744 33.9333 20.2602 33.5777 20.8848L13.1857 56.6991C12.4301 58.0262 10.526 58.051 9.73606 56.7441L0.607067 41.6403C0.2312 41.0184 0.222182 40.2416 0.583512 39.6112L22.4241 1.50546Z" fill="#326CE5"/>
<path d="M37.3839 70.3987C38.2611 71.7285 37.3074 73.5 35.7144 73.5H21.1777C20.4962 73.5 19.8617 73.153 19.4939 72.5794L14.6647 65.0461C14.2494 64.3981 14.2427 63.5692 14.6476 62.9146L19.4978 55.0735C19.8623 54.4842 20.5058 54.1256 21.1987 54.1256H35.7859C37.3642 54.1256 38.3206 55.8681 37.4731 57.1995L33.8495 62.8924C33.4261 63.5576 33.4331 64.4095 33.8673 65.0676L37.3839 70.3987Z" fill="#326CE5"/>
<path d="M65.5779 72.4945C65.2215 73.1164 64.5595 73.5 63.8427 73.5H45.5325C44.8511 73.5 44.2165 73.153 43.8488 72.5794L39.0196 65.0461C38.6042 64.3981 38.5975 63.5692 39.0024 62.9146L43.8526 55.0735C44.2171 54.4842 44.8606 54.1256 45.5535 54.1256H52.6863C53.4051 54.1256 54.0686 53.7398 54.4243 53.1152L74.8162 17.3009C75.5718 15.9738 77.476 15.949 78.2659 17.2559L87.3949 32.3597C87.7708 32.9816 87.7798 33.7584 87.4184 34.3888L65.5779 72.4945Z" fill="#326CE5"/>
</svg>
