<svg width="86" height="74" viewBox="0 0 86 74" fill="none" xmlns="http://www.w3.org/2000/svg">
<path fill-rule="evenodd" clip-rule="evenodd" d="M27.7708 5.64441V12.9999H52.682V5.64441H27.7708ZM22.1225 4.07544V12.9999H1.25518C0.561964 12.9999 0 13.5619 0 14.2551V67.3214C0 68.0146 0.561963 68.5765 1.25518 68.5765H49.9746C49.0431 66.7864 48.3358 64.8606 47.8898 62.8364H42.0748C41.7282 62.8364 41.4472 62.5555 41.4472 62.2089V43.5458C41.4472 43.1992 41.7282 42.9182 42.0748 42.9182H52.6372C56.9228 37.6866 63.4265 34.3491 70.7081 34.3491C73.9442 34.3491 77.0267 35.0083 79.8291 36.2V14.2551C79.8291 13.5619 79.2671 12.9999 78.5739 12.9999H58.3303V4.07543C58.3303 1.82248 56.504 -0.00390625 54.251 -0.00390625H26.2018C23.9488 -0.00390625 22.1225 1.82249 22.1225 4.07544ZM46.555 58.0761C46.8918 58.0761 47.1724 57.7629 47.1724 57.3871V48.3049C47.1724 47.9291 46.8918 47.6159 46.555 47.6159C46.2182 47.6159 45.9376 47.9291 45.9376 48.3049V57.3871C45.9376 57.7629 46.2182 58.0761 46.555 58.0761ZM24.9401 19C24.5935 19 24.3125 19.281 24.3125 19.6276V38.2906C24.3125 38.6372 24.5935 38.9182 24.9401 38.9182H51.1323C51.4789 38.9182 51.7599 38.6372 51.7599 38.2906V19.6276C51.7599 19.281 51.4789 19 51.1323 19H24.9401ZM30.0377 33.5315C30.0377 33.9073 29.7571 34.2205 29.4203 34.2205C29.0835 34.2205 28.8029 33.9073 28.8029 33.5315V24.4493C28.8029 24.0735 29.0835 23.7603 29.4203 23.7603C29.7571 23.7603 30.0377 24.0735 30.0377 24.4493V33.5315ZM35.8191 33.5315C35.8191 33.9073 35.5384 34.2205 35.2017 34.2205C34.8649 34.2205 34.5842 33.9073 34.5842 33.5315V24.4493C34.5842 24.0735 34.8649 23.7603 35.2017 23.7603C35.5384 23.7603 35.8191 24.0735 35.8191 24.4493V33.5315ZM41.5443 33.5315C41.5443 33.9073 41.2636 34.2205 40.9269 34.2205C40.5901 34.2205 40.3094 33.9073 40.3094 33.5315V24.4493C40.3094 24.0735 40.5901 23.7603 40.9269 23.7603C41.2636 23.7603 41.5443 24.0735 41.5443 24.4493V33.5315ZM47.2695 33.5315C47.2695 33.9073 46.9889 34.2205 46.6521 34.2205C46.3153 34.2205 46.0347 33.9073 46.0347 33.5315V24.4493C46.0347 24.0735 46.3153 23.7603 46.6521 23.7603C46.9889 23.7603 47.2695 24.0735 47.2695 24.4493V33.5315ZM9.99997 43.5458C9.99997 43.1992 10.2809 42.9182 10.6276 42.9182H36.8197C37.1663 42.9182 37.4473 43.1992 37.4473 43.5458V62.2089C37.4473 62.5555 37.1663 62.8365 36.8197 62.8365H10.6276C10.2809 62.8365 9.99997 62.5555 9.99997 62.2089V43.5458ZM15.1078 58.0762C15.4445 58.0762 15.7252 57.763 15.7252 57.3872V48.3049C15.7252 47.9291 15.4445 47.6159 15.1078 47.6159C14.771 47.6159 14.4903 47.9291 14.4903 48.3049V57.3872C14.4903 57.763 14.771 58.0762 15.1078 58.0762ZM20.833 58.0762C21.1697 58.0762 21.4504 57.763 21.4504 57.3872V48.3049C21.4504 47.9291 21.1697 47.6159 20.833 47.6159C20.4962 47.6159 20.2155 47.9291 20.2155 48.3049V57.3872C20.2155 57.763 20.4962 58.0762 20.833 58.0762ZM26.5582 58.0762C26.895 58.0762 27.1756 57.763 27.1756 57.3872V48.3049C27.1756 47.9291 26.895 47.6159 26.5582 47.6159C26.2214 47.6159 25.9408 47.9291 25.9408 48.3049V57.3872C25.9408 57.763 26.2214 58.0762 26.5582 58.0762ZM32.3395 58.0762C32.6763 58.0762 32.9569 57.763 32.9569 57.3872V48.3049C32.9569 47.9291 32.6763 47.6159 32.3395 47.6159C32.0027 47.6159 31.7221 47.9291 31.7221 48.3049V57.3872C31.7221 57.763 32.0027 58.0762 32.3395 58.0762ZM86.0004 57.8895C86.0004 66.7892 78.8006 74.0039 69.9194 74.0039C61.0381 74.0039 53.8384 66.7892 53.8384 57.8895C53.8384 48.9897 61.0381 41.775 69.9194 41.775C78.8006 41.775 86.0004 48.9897 86.0004 57.8895ZM69.0386 58.1826V49.3929H71.3758V57.5512L78.4495 62.186L77.1686 64.1409L69.5667 59.1601L69.0386 58.8141V58.1826Z" fill="#326CE5"/>
</svg>
