<svg width="82" height="84" viewBox="0 0 82 84" fill="none" xmlns="http://www.w3.org/2000/svg">
<path d="M79.5973 15.3141C79.5973 13.6514 78.808 12.2154 77.6929 11.0501C76.5862 9.89358 75.0596 8.89146 73.2823 8.02243L72.4407 9.74361C71.3495 9.21001 70.1062 8.70644 68.7286 8.23813L69.3452 6.42415C65.0008 4.94731 59.4502 3.83 53.211 3.19267L53.0163 5.09868C51.7149 4.96574 50.3803 4.85379 49.017 4.76418L49.1427 2.85238C46.5176 2.67983 43.7905 2.58896 40.993 2.58896C38.1956 2.58896 35.4684 2.67984 32.8434 2.85238L32.9691 4.76418C31.6058 4.85379 30.2712 4.96574 28.9698 5.09868L28.7751 3.19267C22.5359 3.83 16.9853 4.94731 12.6409 6.42415L13.2575 8.23813C11.8799 8.70645 10.6366 9.21001 9.54536 9.74361L8.70374 8.02244C6.92653 8.89146 5.39994 9.89358 4.29319 11.0501C3.1781 12.2154 2.38876 13.6514 2.38876 15.3141C2.38876 16.9768 3.1781 18.4128 4.2932 19.578C5.39994 20.7346 6.92654 21.7367 8.70374 22.6057L9.54537 20.8846C10.6366 21.4182 11.8799 21.9217 13.2575 22.3901L12.6409 24.204C16.9853 25.6809 22.5359 26.7982 28.7751 27.4355L28.9698 25.5295C30.2712 25.6624 31.6058 25.7744 32.9691 25.864L32.8434 27.7758C35.4685 27.9483 38.1956 28.0392 40.993 28.0392C43.7905 28.0392 46.5176 27.9483 49.1427 27.7758L49.017 25.864C50.3803 25.7744 51.7149 25.6624 53.0163 25.5295L53.211 27.4355C59.4502 26.7982 65.0008 25.6809 69.3452 24.204L68.7286 22.3901C70.1062 21.9217 71.3495 21.4182 72.4407 20.8846L73.2824 22.6057C75.0596 21.7367 76.5862 20.7346 77.6929 19.578C78.808 18.4128 79.5973 16.9768 79.5973 15.3141Z" stroke="#326CE5" stroke-width="3.83185" stroke-dasharray="16 4"/>
<path fill-rule="evenodd" clip-rule="evenodd" d="M77.6726 56.9646V70.3192C77.6726 71.7319 77.358 72.6241 76.8117 73.0902C74.5476 75.0216 69.8546 76.6985 63.4808 77.8712C57.2194 79.0232 49.6871 79.6299 42.0837 79.6616C34.4807 79.6934 26.8686 79.1501 20.4479 78.028C13.9343 76.8897 8.96167 75.2063 6.36054 73.1634C5.65314 72.6078 5.24924 71.5445 5.22328 70.0059L4.99953 56.7465C5.2956 56.9903 5.59645 57.2178 5.89623 57.4294C8.20442 59.0584 11.2955 60.3691 14.7702 61.4063C21.7687 63.4953 31.2082 64.7323 41.4719 64.7323C51.7355 64.7323 61.175 63.4953 68.1735 61.4063C71.6482 60.3691 74.7393 59.0584 77.0475 57.4294C77.256 57.2822 77.465 57.1273 77.6726 56.9646ZM77.6726 49.8204V50.3621C77.1911 56.2067 61.1678 60.9005 41.4719 60.9005C21.4726 60.9005 5.25997 56.061 5.25997 50.0912C5.25997 44.1215 21.4726 39.282 41.4719 39.282C61.1678 39.282 77.1911 43.9758 77.6726 49.8204ZM81.5044 49.6847V15.7837H77.6726V43.2178C77.465 43.0551 77.256 42.9002 77.0475 42.7531C74.7393 41.1241 71.6482 39.8134 68.1735 38.7762C61.175 36.6872 51.7355 35.4502 41.4719 35.4502C31.2082 35.4502 21.7687 36.6872 14.7702 38.7762C11.2955 39.8134 8.20442 41.1241 5.89623 42.7531C5.52137 43.0176 5.14484 43.3072 4.77806 43.6222L4.31568 16.2213L0.484375 16.286L1.39197 70.0705C1.42533 72.047 1.93628 74.561 3.99371 76.1769C7.39337 78.847 13.1891 80.6494 19.7883 81.8027C26.4802 82.9721 34.3251 83.5259 42.0997 83.4935C49.8739 83.461 57.6399 82.842 64.1742 81.6398C70.5961 80.4582 76.1959 78.6523 79.2986 76.0053C81.1558 74.421 81.5044 72.0658 81.5044 70.3192V50.4978C81.5118 50.3638 81.5156 50.2283 81.5156 50.0912C81.5156 49.9542 81.5118 49.8187 81.5044 49.6847Z" fill="#326CE5"/>
</svg>
