<svg width="74" height="88" viewBox="0 0 74 88" fill="none" xmlns="http://www.w3.org/2000/svg">
<path fill-rule="evenodd" clip-rule="evenodd" d="M73.9912 18.235C73.9912 28.0298 57.4281 35.97 36.9966 35.97C16.565 35.97 0.00195312 28.0298 0.00195312 18.235C0.00195312 8.44023 16.565 0.5 36.9966 0.5C57.4281 0.5 73.9912 8.44023 73.9912 18.235ZM0.00980956 25.1614V69.7651H0.0098535C0.0100126 79.5598 16.573 87.5 37.0045 87.5C57.436 87.5 73.9991 79.5597 73.9991 69.765L73.999 69.7368V25.6051C69.8945 33.4465 54.9373 39.2588 37.1142 39.2588C18.9566 39.2588 3.77342 33.2262 0.00980956 25.1614ZM21.371 46.2037H51.939C52.1315 46.2037 52.2875 46.3597 52.2875 46.5521V76.9148C52.2875 77.1073 52.1315 77.2633 51.939 77.2633H21.371C21.1785 77.2633 21.0225 77.1073 21.0225 76.9148V46.5521C21.0225 46.3597 21.1785 46.2037 21.371 46.2037ZM19.5802 46.5521C19.5802 45.5631 20.382 44.7614 21.371 44.7614H51.939C52.9281 44.7614 53.7298 45.5631 53.7298 46.5521V76.9148C53.7298 77.9039 52.9281 78.7056 51.939 78.7056H21.371C20.382 78.7056 19.5802 77.9039 19.5802 76.9148V46.5521ZM27.929 53.1153C26.94 53.1153 26.1382 53.9171 26.1382 54.9061V59.7562C26.1382 60.7452 26.94 61.5469 27.929 61.5469H33.3103C34.2993 61.5469 35.1011 60.7452 35.1011 59.7562V54.9061C35.1011 53.9171 34.2993 53.1153 33.3103 53.1153H27.929ZM26.1382 65.0943C26.1382 64.1053 26.94 63.3036 27.929 63.3036H33.3103C34.2993 63.3036 35.1011 64.1053 35.1011 65.0943V69.9444C35.1011 70.9334 34.2993 71.7352 33.3103 71.7352H27.929C26.94 71.7352 26.1382 70.9334 26.1382 69.9444V65.0943ZM36.9695 54.8259C36.2421 55.4959 36.2421 56.5823 36.9695 57.2524L40.8078 60.7879C41.5352 61.458 42.7146 61.458 43.442 60.7879L47.1455 57.3766C47.8729 56.7065 47.8729 55.6202 47.1455 54.9501L43.3072 51.4145C42.5798 50.7445 41.4004 50.7445 40.6729 51.4145L36.9695 54.8259ZM37.3965 65.0943C37.3965 64.1053 38.1982 63.3036 39.1872 63.3036H44.5686C45.5576 63.3036 46.3594 64.1053 46.3594 65.0943V69.9444C46.3594 70.9334 45.5576 71.7352 44.5686 71.7352H39.1872C38.1982 71.7352 37.3965 70.9334 37.3965 69.9444V65.0943Z" fill="#326CE5"/>
</svg>
