<svg width="68" height="90" viewBox="0 0 68 90" fill="none" xmlns="http://www.w3.org/2000/svg">
<path fill-rule="evenodd" clip-rule="evenodd" d="M33.3473 41.0752C43.6614 41.0752 52.0227 37.0458 52.0227 32.0752C52.0227 27.1046 43.6614 23.0752 33.3473 23.0752C23.0331 23.0752 14.6719 27.1046 14.6719 32.0752C14.6719 37.0458 23.0331 41.0752 33.3473 41.0752ZM14.6789 58.2252V36.3334C16.9094 40.3113 24.3789 43.2352 33.2499 43.2352C42.4218 43.2352 50.0955 40.1097 52.0297 35.9252V58.2252C52.0297 63.1958 43.6684 67.2252 33.3543 67.2252C23.0402 67.2252 14.6789 63.1958 14.6789 58.2252Z" fill="#326CE5"/>
<rect x="1.2" y="1.2" width="65.6" height="87.6" stroke="#326CE5" stroke-width="2.4"/>
</svg>
