<svg width="83" height="86" viewBox="0 0 83 86" fill="none" xmlns="http://www.w3.org/2000/svg">
<path fill-rule="evenodd" clip-rule="evenodd" d="M2 0C0.89543 0 0 0.895431 0 2V84C0 85.1046 0.895429 86 2 86H81C82.1046 86 83 85.1046 83 84V2C83 0.895431 82.1046 0 81 0H2ZM17 20C17 18.8954 17.8954 18 19 18H21C22.1045 18 23 18.8954 23 20V28.8198H27.4795C28.5841 28.8198 29.4795 29.7153 29.4795 30.8198V32.8198C29.4795 33.9244 28.5841 34.8198 27.4795 34.8198H23V66C23 67.1046 22.1045 68 21 68H19C17.8954 68 17 67.1046 17 66V34.8198H11.9999C10.8954 34.8198 9.99994 33.9244 9.99994 32.8198V30.8198C9.99994 29.7153 10.8954 28.8198 11.9999 28.8198H17V20ZM39 66C39 67.1046 39.8954 68 41 68H43C44.1045 68 45 67.1046 45 66V57.1802H49.4796C50.5842 57.1802 51.4796 56.2847 51.4796 55.1802V53.1802C51.4796 52.0756 50.5842 51.1802 49.4796 51.1802H45V20C45 18.8954 44.1045 18 43 18H41C39.8954 18 39 18.8954 39 20V51.1802H34C32.8954 51.1802 32 52.0756 32 53.1802V55.1802C32 56.2847 32.8954 57.1802 34 57.1802H39V66ZM63 68C61.8954 68 61 67.1046 61 66V46H55.9999C54.8953 46 53.9999 45.1046 53.9999 44V42C53.9999 40.8954 54.8953 40 55.9999 40H61V20C61 18.8954 61.8954 18 63 18H65C66.1046 18 67 18.8954 67 20V40H71.4795C72.5841 40 73.4795 40.8954 73.4795 42V44C73.4795 45.1046 72.5841 46 71.4795 46H67V66C67 67.1046 66.1046 68 65 68H63Z" fill="#326CE5"/>
</svg>
