<svg width="76" height="84" viewBox="0 0 76 84" fill="none" xmlns="http://www.w3.org/2000/svg">
<path d="M17.5795 19.7499C17.7244 19.5705 17.8149 19.4718 17.8873 19.3642C19.39 17.0948 21.4901 15.5341 23.9433 14.4039C27.3922 12.8073 31.0312 11.8924 34.806 11.5246C40.5722 10.9685 46.1031 11.8924 51.4168 14.1438C53.0553 14.8434 54.6303 15.6955 55.9248 16.9244C56.6671 17.624 57.2736 18.4493 57.9344 19.2207C58.0702 19.3821 58.1879 19.5525 58.3418 19.7588C59.0116 19.4001 59.6543 19.0592 60.297 18.7004C64.8413 16.1261 68.1453 12.4126 70.4265 7.77525C71.4403 5.72118 72.3546 3.62225 73.3323 1.55024C73.5314 1.13763 73.7668 0.725021 74.0383 0.357261C74.4095 -0.136076 74.7806 -0.127106 75.016 0.437989C75.3056 1.11969 75.5591 1.83727 75.6677 2.56382C76.5639 8.62738 75.713 14.4039 72.3094 19.5884C69.8834 23.284 66.7965 26.4234 63.1576 28.9977C62.8588 29.213 62.7593 29.3924 62.8498 29.7601C63.2571 31.4106 63.411 33.0879 63.4201 34.7832C63.4291 37.3844 63.4834 39.9856 63.5106 42.5869C63.5106 42.856 63.583 42.9995 63.8455 43.134C64.5606 43.4928 64.9951 44.1297 65.321 44.8383C65.828 45.9326 65.9728 47.0987 66.0362 48.2827C66.4164 55.019 63.7007 60.5354 59.1836 65.3521C58.9664 65.5764 58.8034 65.8813 58.7129 66.1863C56.8934 72.1243 53.6889 77.0935 48.4567 80.6276C45.4152 82.6817 42.0387 83.8747 38.3454 83.9913C35.3943 84.09 32.6063 83.3455 29.9721 82.0538C25.2287 79.7396 21.816 76.0799 19.3628 71.4964C18.4395 69.7742 17.7334 67.9713 17.1813 66.0966C17.1088 65.8365 16.9459 65.5764 16.7648 65.379C13.5966 62.0871 11.3245 58.3109 10.2925 53.8529C9.7041 51.3055 9.67695 48.7222 10.1477 46.1568C10.3197 45.2509 10.6727 44.4077 11.3154 43.7171C11.4693 43.5556 11.6232 43.3403 11.8223 43.2775C12.4198 43.0802 12.4107 42.6497 12.4198 42.1474C12.4379 39.3219 12.4288 36.4964 12.5465 33.6709C12.6008 32.3344 12.8633 31.0069 13.0896 29.6794C13.153 29.3027 13.0806 29.1233 12.7819 28.908C9.14287 26.3247 6.11037 23.1315 3.61195 19.4628C1.60236 16.5118 0.624714 13.1571 0.208311 9.64096C-0.0994651 7.05767 -0.108517 4.47438 0.470826 1.92697C0.579452 1.43363 0.751445 0.949265 0.959646 0.491807C1.24027 -0.127106 1.62046 -0.154015 2.02781 0.41108C2.29032 0.76987 2.51663 1.17351 2.70673 1.57715C3.71153 3.71195 4.65296 5.88263 5.71207 7.99949C7.74882 12.0628 10.5912 15.4623 14.4837 17.929C15.4885 18.5479 16.5204 19.131 17.5795 19.7499ZM28.1888 52.642C29.9902 52.6151 31.2846 52.1935 32.4343 51.3324C33.6111 50.4534 34.29 49.2783 34.4529 47.8162C34.4891 47.4395 34.4077 47.2242 33.9822 47.1794C33.6382 47.1435 33.3033 47.0359 32.9683 46.9641C28.5056 46.0582 24.0519 45.1612 19.5891 44.2553C19.0732 44.1476 18.9283 44.2642 19.1003 44.7486C19.3628 45.4572 19.6344 46.1927 20.0508 46.8116C21.463 48.8926 23.3277 50.5072 25.5093 51.7629C26.4417 52.3101 27.4465 52.6689 28.1888 52.642ZM47.3614 52.642C48.2123 52.6509 49.018 52.4805 49.7693 52.1038C52.3582 50.8211 54.4584 48.9644 56.0515 46.5784C56.4136 46.0313 56.6309 45.3675 56.8481 44.7396C57.002 44.2911 56.8481 44.1656 56.3684 44.2642C51.5435 45.2419 46.7187 46.2286 41.8939 47.1973C41.5408 47.2691 41.405 47.4575 41.4865 47.7535C41.6856 48.4531 41.8033 49.2155 42.1654 49.8165C43.3241 51.736 45.1798 52.5164 47.3614 52.642Z" fill="#326CE5"/>
</svg>
