<svg width="152" height="141" viewBox="0 0 152 141" fill="none" xmlns="http://www.w3.org/2000/svg">
<path d="M90.1992 6.25424C83.0855 1.11995 73.4828 1.11995 66.369 6.25424L16.1744 42.4816C8.99128 47.666 5.98482 56.9001 8.73875 65.3198L27.8624 123.787C30.5999 132.157 38.4076 137.818 47.2133 137.818H109.355C118.161 137.818 125.968 132.157 128.706 123.787L147.829 65.3198C150.583 56.9001 147.577 47.666 140.394 42.4816L90.1992 6.25424Z" fill="#326CE5" fill-opacity="0.1" stroke="#326CE5" stroke-width="4.52436"/>
<path fill-rule="evenodd" clip-rule="evenodd" d="M10.6948 116.649C1.5091 112.299 -2.37264 101.409 2.02478 92.3234C4.13652 87.9606 7.91405 84.6062 12.5264 82.998C17.1388 81.3899 22.2081 81.6598 26.6192 83.7484C35.8049 88.0977 39.6866 98.9884 35.2892 108.073C30.8918 117.159 19.8805 120.998 10.6948 116.649Z" fill="#326CE5"/>
<path d="M18.4711 89.2592C18.2641 89.2695 18.0612 89.3203 17.8745 89.4085L9.73213 93.2559C9.52139 93.3555 9.33622 93.5003 9.19037 93.6796C9.04452 93.859 8.94175 94.0683 8.88968 94.2919L6.88092 102.934C6.83453 103.133 6.82934 103.34 6.86565 103.541C6.90196 103.742 6.97903 103.934 7.09231 104.105C7.11978 104.147 7.14932 104.188 7.18082 104.227L12.8166 111.156C12.9625 111.336 13.1477 111.48 13.3584 111.58C13.5692 111.679 13.8001 111.731 14.034 111.731L23.0718 111.729C23.3056 111.729 23.5365 111.678 23.7472 111.578C23.9579 111.479 24.1432 111.334 24.2892 111.155L29.9229 104.225C30.0688 104.045 30.1717 103.836 30.2238 103.612C30.2759 103.388 30.2759 103.156 30.2238 102.932L28.2119 94.2899C28.1599 94.0662 28.0571 93.8569 27.9112 93.6776C27.7654 93.4982 27.5802 93.3534 27.3695 93.2539L19.2261 89.4085C18.9912 89.2975 18.7316 89.2462 18.4711 89.2592Z" fill="white"/>
<path d="M18.5435 92.2004C18.2744 92.2005 18.0562 92.4402 18.0562 92.7359C18.0562 92.7405 18.0571 92.7448 18.0572 92.7493C18.0568 92.7895 18.0549 92.8379 18.0562 92.8729C18.0626 93.0435 18.1002 93.174 18.1228 93.3312C18.1638 93.6675 18.1982 93.9464 18.177 94.2055C18.1564 94.3032 18.0836 94.3926 18.0187 94.4547L18.0072 94.6586C17.7148 94.6826 17.4203 94.7265 17.1263 94.7925C15.8608 95.0767 14.7713 95.7213 13.9418 96.5916C13.888 96.5553 13.7938 96.4885 13.7658 96.468C13.6788 96.4797 13.5909 96.5062 13.4763 96.4402C13.2582 96.2951 13.0596 96.0946 12.8192 95.8532C12.7091 95.7378 12.6294 95.6278 12.4985 95.5165C12.4688 95.4912 12.4234 95.457 12.3902 95.431C12.2879 95.3503 12.1672 95.3083 12.0507 95.3043C11.9009 95.2993 11.7567 95.3572 11.6623 95.4743C11.4945 95.6824 11.5482 96.0005 11.7821 96.1848C11.7844 96.1867 11.787 96.1882 11.7893 96.19C11.8215 96.2157 11.8608 96.2488 11.8904 96.2703C12.0292 96.3717 12.156 96.4236 12.2944 96.5041C12.5859 96.6821 12.8275 96.8297 13.0192 97.0077C13.094 97.0866 13.1071 97.2256 13.1171 97.2857L13.2733 97.4237C12.4371 98.6682 12.0501 100.205 12.2788 101.772L12.0747 101.83C12.0209 101.899 11.9449 102.007 11.8654 102.039C11.6146 102.118 11.3324 102.146 10.9917 102.182C10.8317 102.195 10.6937 102.187 10.5241 102.219C10.4868 102.226 10.4348 102.239 10.3939 102.248C10.3925 102.249 10.3912 102.249 10.3898 102.249C10.3875 102.25 10.3846 102.251 10.3825 102.252C10.0952 102.32 9.9107 102.581 9.9701 102.839C10.0295 103.096 10.3101 103.252 10.5991 103.191C10.6012 103.19 10.6042 103.19 10.6064 103.19C10.6096 103.189 10.6125 103.187 10.6157 103.187C10.656 103.178 10.7065 103.168 10.7417 103.159C10.9085 103.115 11.0292 103.05 11.1791 102.993C11.5016 102.879 11.7687 102.783 12.0289 102.746C12.1375 102.737 12.252 102.812 12.309 102.844L12.5214 102.808C13.0103 104.307 14.0348 105.518 15.332 106.278L15.2435 106.488C15.2754 106.57 15.3106 106.68 15.2868 106.761C15.1922 107.003 15.0302 107.259 14.8457 107.545C14.7564 107.677 14.6649 107.779 14.5843 107.93C14.565 107.966 14.5405 108.022 14.5218 108.06C14.3966 108.325 14.4885 108.63 14.7291 108.745C14.9712 108.86 15.2717 108.738 15.4018 108.473C15.402 108.472 15.4026 108.472 15.4028 108.472C15.403 108.471 15.4027 108.471 15.4028 108.471C15.4214 108.433 15.4476 108.384 15.4632 108.348C15.5323 108.192 15.5553 108.058 15.6038 107.906C15.7328 107.586 15.8036 107.25 15.9811 107.04C16.0297 106.983 16.109 106.961 16.1911 106.939L16.3015 106.742C17.4324 107.171 18.6983 107.286 19.9629 107.002C20.2514 106.937 20.5299 106.854 20.7991 106.753C20.8301 106.807 20.8878 106.912 20.9032 106.938C20.9867 106.965 21.0779 106.979 21.1521 107.088C21.2849 107.312 21.3757 107.577 21.4864 107.898C21.535 108.049 21.559 108.183 21.628 108.34C21.6438 108.376 21.6699 108.426 21.6884 108.463C21.8182 108.73 22.1197 108.852 22.3622 108.736C22.6027 108.622 22.6947 108.317 22.5694 108.052C22.5508 108.013 22.5252 107.958 22.5059 107.922C22.4253 107.771 22.3338 107.67 22.2445 107.538C22.06 107.252 21.9069 107.015 21.8123 106.772C21.7728 106.647 21.819 106.57 21.8498 106.488C21.8314 106.467 21.7919 106.349 21.7686 106.294C23.1168 105.506 24.1112 104.25 24.5782 102.798C24.6412 102.808 24.7508 102.827 24.7864 102.834C24.8597 102.787 24.9271 102.724 25.0593 102.735C25.3195 102.772 25.5865 102.867 25.909 102.982C26.0589 103.038 26.1796 103.104 26.3464 103.149C26.3816 103.158 26.4321 103.167 26.4724 103.175C26.4756 103.176 26.4785 103.178 26.4818 103.178C26.4839 103.179 26.487 103.179 26.489 103.179C26.778 103.241 27.0587 103.085 27.118 102.827C27.1774 102.57 26.9929 102.309 26.7056 102.24C26.6639 102.231 26.6046 102.215 26.564 102.207C26.3944 102.176 26.2564 102.183 26.0965 102.17C25.7557 102.135 25.4735 102.106 25.2228 102.028C25.1205 101.989 25.0478 101.869 25.0124 101.819L24.8156 101.762C24.9176 101.032 24.8901 100.272 24.7135 99.5122C24.5353 98.7449 24.2203 98.0431 23.8003 97.4248C23.8508 97.3794 23.9461 97.2959 23.9731 97.2713C23.981 97.1848 23.9743 97.0942 24.0648 96.9984C24.2564 96.8204 24.4981 96.6728 24.7896 96.4948C24.9279 96.4143 25.0558 96.3624 25.1946 96.261C25.226 96.2381 25.2689 96.2018 25.3019 96.1756C25.5357 95.9911 25.5895 95.6731 25.4217 95.465C25.2538 95.2569 24.9286 95.2373 24.6948 95.4217C24.6615 95.4478 24.6164 95.4818 24.5865 95.5072C24.4556 95.6185 24.3748 95.7285 24.2647 95.844C24.0244 96.0854 23.8257 96.2868 23.6076 96.432C23.5131 96.4864 23.3747 96.4676 23.3119 96.4639L23.1265 96.5947C22.0695 95.4986 20.6305 94.7979 19.0809 94.6617C19.0765 94.5975 19.0709 94.4814 19.0694 94.4465C19.006 94.3865 18.9294 94.3352 18.9101 94.2055C18.8889 93.9464 18.9243 93.6675 18.9653 93.3312C18.9879 93.174 19.0255 93.0435 19.0319 92.8729C19.0334 92.8341 19.0311 92.7779 19.0309 92.7359C19.0309 92.4402 18.8127 92.2004 18.5435 92.2004ZM17.9333 95.9387L17.7886 98.4669L17.7782 98.4721C17.7684 98.6983 17.5802 98.8789 17.3491 98.8789C17.2544 98.8789 17.1671 98.8488 17.0961 98.7975L17.0919 98.7996L14.9957 97.33C15.6399 96.7035 16.464 96.2405 17.4137 96.0273C17.5872 95.9883 17.7606 95.9594 17.9333 95.9387ZM19.1548 95.9387C20.2636 96.0736 21.289 96.5701 22.0748 97.331L19.9921 98.7913L19.9848 98.7882C19.7999 98.9218 19.5395 98.8886 19.3954 98.71C19.3363 98.6368 19.3054 98.5507 19.3016 98.4638L19.2996 98.4628L19.1548 95.9387ZM14.2355 98.2744L16.1495 99.9674L16.1474 99.9777C16.3202 100.126 16.3456 100.384 16.2015 100.563C16.1425 100.636 16.0635 100.685 15.9787 100.708L15.9766 100.716L13.5232 101.416C13.3983 100.287 13.6674 99.1895 14.2355 98.2744ZM22.8381 98.2754C23.1225 98.7312 23.3378 99.2404 23.466 99.7923C23.5927 100.338 23.6245 100.882 23.5722 101.408L21.1063 100.706L21.1042 100.695C20.8834 100.636 20.7477 100.414 20.7991 100.191C20.8202 100.1 20.8692 100.022 20.9355 99.9653L20.9345 99.9602L22.8381 98.2754ZM18.151 100.098H18.9351L19.4224 100.701L19.2475 101.452L18.5435 101.787L17.8375 101.451L17.6626 100.7L18.151 100.098ZM20.6648 102.16C20.6981 102.158 20.7313 102.161 20.7637 102.167L20.7679 102.162L23.3056 102.586C22.9342 103.618 22.2235 104.512 21.274 105.11L20.2888 102.757L20.292 102.753C20.2015 102.545 20.292 102.301 20.5002 102.202C20.5535 102.177 20.6092 102.163 20.6648 102.16ZM16.4025 102.17C16.5962 102.173 16.7699 102.306 16.8149 102.501C16.836 102.592 16.8257 102.682 16.791 102.762L16.7982 102.772L15.8235 105.101C14.9122 104.523 14.1864 103.657 13.7981 102.594L16.314 102.172L16.3182 102.177C16.3463 102.172 16.3749 102.17 16.4025 102.17ZM18.5279 103.191C18.5954 103.188 18.6638 103.202 18.7289 103.233C18.8142 103.274 18.8801 103.338 18.9216 103.414H18.9309L20.1712 105.63C20.0102 105.684 19.8447 105.729 19.6755 105.767C18.727 105.98 17.7814 105.916 16.9253 105.627L18.1624 103.415H18.1645C18.2387 103.278 18.3795 103.196 18.5279 103.191Z" fill="#326CE5" stroke="#326CE5" stroke-width="0.226218"/>
</svg>
