<svg width="90" height="90" viewBox="0 0 90 90" fill="none" xmlns="http://www.w3.org/2000/svg">
<rect x="25.4844" y="12" width="39.3155" height="16.9445" rx="1.45613" fill="#326CE5"/>
<rect x="32.5391" y="60.9508" width="25.2022" height="16.9445" rx="1.45613" fill="#326CE5"/>
<rect x="64.7969" y="61.0554" width="25.2022" height="16.9445" rx="1.45613" fill="#326CE5"/>
<rect y="61.0554" width="25.2022" height="16.9445" rx="1.45613" fill="#326CE5"/>
<path fill-rule="evenodd" clip-rule="evenodd" d="M41.5782 43.0102C41.581 43.8197 40.9303 44.4776 40.1269 44.4776L38.0861 44.4776C36.9623 44.4776 36.2647 45.7097 36.8369 46.6841L42.8971 57.0038C43.4504 57.9459 44.7977 57.9627 45.3747 57.0346L51.7917 46.715C52.397 45.7415 51.7031 44.4776 50.5632 44.4776L48.5791 44.4776C47.7782 44.4776 47.1292 43.8236 47.1292 43.0166L47.1292 35.1098C47.1292 34.3028 46.4801 33.6488 45.6793 33.6488L43.0021 33.6488C42.1987 33.6488 41.548 34.3067 41.5508 35.1162L41.5782 43.0102Z" fill="#326CE5"/>
<path fill-rule="evenodd" clip-rule="evenodd" d="M63.7279 43.6025C64.2016 44.2533 64.061 45.1633 63.4137 45.6363L61.747 46.8542C60.84 47.5169 60.9984 48.9182 62.031 49.3683L72.9655 54.1344C73.9662 54.5706 75.0689 53.7925 74.9935 52.7033L74.1528 40.5617C74.0735 39.4164 72.7649 38.8034 71.8407 39.4787L70.2511 40.6403C69.6008 41.1155 68.6865 40.9688 68.2129 40.3132L63.6007 33.9297C63.1271 33.2742 62.2128 33.1275 61.5625 33.6027L59.3963 35.1856C58.749 35.6585 58.6084 36.5685 59.0821 37.2193L63.7279 43.6025Z" fill="#326CE5"/>
<path fill-rule="evenodd" clip-rule="evenodd" d="M26.7643 43.6025C26.2906 44.2533 26.4312 45.1633 27.0785 45.6363L28.7452 46.8542C29.6522 47.5169 29.4938 48.9182 28.4611 49.3683L17.5267 54.1344C16.5259 54.5706 15.4233 53.7925 15.4987 52.7033L16.3394 40.5617C16.4187 39.4164 17.7273 38.8034 18.6515 39.4787L20.2411 40.6403C20.8914 41.1155 21.8057 40.9688 22.2793 40.3132L26.8915 33.9297C27.3651 33.2742 28.2794 33.1275 28.9297 33.6027L31.0959 35.1856C31.7432 35.6585 31.8838 36.5685 31.4101 37.2193L26.7643 43.6025Z" fill="#326CE5"/>
</svg>
