<svg width="90" height="90" viewBox="0 0 90 90" fill="none" xmlns="http://www.w3.org/2000/svg">
<rect x="18" width="54" height="23.1429" rx="2" fill="#326CE5"/>
<rect x="27.6934" y="66.8572" width="34.6154" height="23.1429" rx="2" fill="#326CE5"/>
<path fill-rule="evenodd" clip-rule="evenodd" d="M40.1245 43.3534C40.1265 43.9076 39.6786 44.358 39.1254 44.358L33.5819 44.358C32.808 44.358 32.3279 45.2015 32.722 45.8688L42.7635 62.8722C43.1446 63.5175 44.0724 63.5293 44.4698 62.8938L55.1025 45.8904C55.5193 45.2237 55.0412 44.358 54.256 44.358L48.7443 44.358C48.1926 44.358 47.7454 43.9099 47.7454 43.3571L47.7454 30.5688C47.7454 30.0161 47.2982 29.568 46.7465 29.568L41.0792 29.568C40.526 29.568 40.0781 30.0183 40.08 30.5726L40.1245 43.3534Z" fill="#326CE5"/>
</svg>
