<svg width="90" height="66" viewBox="0 0 90 66" fill="none" xmlns="http://www.w3.org/2000/svg">
<path fill-rule="evenodd" clip-rule="evenodd" d="M-0.00195312 2.5C-0.00195312 1.39543 0.893477 0.5 1.99805 0.5H6.73604C7.8406 0.5 8.73604 1.39543 8.73604 2.5V7.28379C8.73604 8.38836 7.84061 9.28379 6.73604 9.28379H1.99805C0.893478 9.28379 -0.00195312 8.38836 -0.00195312 7.28379V2.5ZM-0.00195312 28.8514C-0.00195312 27.7468 0.893477 26.8514 1.99805 26.8514H6.73604C7.8406 26.8514 8.73604 27.7468 8.73604 28.8514V33.6352C8.73604 34.7398 7.84061 35.6352 6.73604 35.6352H1.99805C0.893478 35.6352 -0.00195312 34.7398 -0.00195312 33.6352V28.8514ZM1.99805 53.2028C0.893477 53.2028 -0.00195312 54.0982 -0.00195312 55.2028V59.9866C-0.00195312 61.0911 0.893478 61.9866 1.99805 61.9866H6.73604C7.84061 61.9866 8.73604 61.0911 8.73604 59.9866V55.2028C8.73604 54.0982 7.8406 53.2028 6.73604 53.2028H1.99805ZM17.4749 2.5C17.4749 1.39543 18.3703 0.5 19.4749 0.5H81.8836C82.9882 0.5 83.8836 1.39543 83.8836 2.5V7.28379C83.8836 8.38836 82.9882 9.28379 81.8836 9.28379H19.4749C18.3703 9.28379 17.4749 8.38836 17.4749 7.28379V2.5ZM19.4749 26.8514C18.3703 26.8514 17.4749 27.7468 17.4749 28.8514V33.6352C17.4749 34.7398 18.3703 35.6352 19.4749 35.6352H46.7683C48.3515 32.2473 50.6362 29.2563 53.4342 26.8514H19.4749ZM45.1094 53.2028C45.9183 56.4076 47.3156 59.3765 49.1788 61.9866H19.4749C18.3703 61.9866 17.4749 61.0911 17.4749 59.9866V55.2028C17.4749 54.0982 18.3703 53.2028 19.4749 53.2028H45.1094Z" fill="#326CE5"/>
<path fill-rule="evenodd" clip-rule="evenodd" d="M70.7783 65.5002C81.3952 65.5002 90.0018 56.8484 90.0018 46.1759C90.0018 35.5034 81.3952 26.8516 70.7783 26.8516C60.1614 26.8516 51.5547 35.5034 51.5547 46.1759C51.5547 56.8484 60.1614 65.5002 70.7783 65.5002ZM72.5233 35.9867C72.5233 35.2146 71.8974 34.5887 71.1253 34.5887C70.3532 34.5887 69.7272 35.2146 69.7272 35.9867V46.5273C69.7272 46.998 69.9641 47.437 70.3574 47.6956L79.4449 53.6685C80.0901 54.0926 80.957 53.9134 81.3811 53.2681C81.8052 52.6229 81.6259 51.756 80.9807 51.332L72.5233 45.7732V35.9867Z" fill="#326CE5"/>
</svg>
