<svg width="74" height="88" viewBox="0 0 74 88" fill="none" xmlns="http://www.w3.org/2000/svg">
<rect width="19.2584" height="19.2584" rx="2" transform="matrix(-0.708871 -0.705338 0.708871 -0.705338 14.1523 88)" fill="#326CE5"/>
<rect width="19.2584" height="19.2584" rx="2" transform="matrix(-0.708871 -0.705338 0.708871 -0.705338 59.8496 88)" fill="#326CE5"/>
<rect width="19.2584" height="19.2584" rx="2" transform="matrix(-0.708871 -0.705338 0.708871 -0.705338 36.0352 27.167)" fill="#326CE5"/>
<line x1="14.1523" y1="74.4146" x2="59.8444" y2="74.4146" stroke="#326CE5" stroke-width="3.84458"/>
<line x1="36.6871" y1="76.3369" x2="36.6871" y2="53.9249" stroke="#326CE5" stroke-width="3.84458"/>
<line x1="36.6871" y1="41.1182" x2="36.6871" y2="15.5044" stroke="#326CE5" stroke-width="3.84458"/>
<path d="M37.0034 40.3841C40.7964 40.3841 43.8611 43.442 43.8611 47.2018C43.8611 50.9615 40.7964 54.0195 37.0034 54.0195C33.2103 54.0195 30.1456 50.9615 30.1456 47.2018C30.1456 43.442 33.2103 40.3841 37.0034 40.3841Z" stroke="#326CE5" stroke-width="2.3732"/>
</svg>
