<svg width="82" height="48" viewBox="0 0 82 48" fill="none" xmlns="http://www.w3.org/2000/svg">
<path fill-rule="evenodd" clip-rule="evenodd" d="M16.0001 0C14.8955 0 14.0001 0.895431 14.0001 2V19.3811H9.61185V17.2832C9.61185 16.425 8.60193 15.9655 7.95491 16.5292L0.34306 23.1617C-0.114354 23.5603 -0.114352 24.2711 0.34306 24.6696L7.95491 31.3021C8.60193 31.8659 9.61185 31.4064 9.61185 30.5482V28.45H14.0001V46C14.0001 47.1046 14.8955 48 16.0001 48H67.1548C68.2593 48 69.1548 47.1046 69.1548 46V28.45H72.3437V30.5482C72.3437 31.4064 73.3536 31.8659 74.0007 31.3021L81.6125 24.6696C82.0699 24.2711 82.0699 23.5603 81.6125 23.1617L74.0007 16.5292C73.3536 15.9655 72.3437 16.425 72.3437 17.2832V19.3811H69.1548V2C69.1548 0.895431 68.2593 0 67.1548 0H16.0001ZM42.2278 25.0412C42.2278 24.7873 42.4336 24.5815 42.6874 24.5815H61.996C62.2499 24.5815 62.4556 24.7873 62.4556 25.0412V38.7034C62.4556 38.9572 62.2499 39.163 61.996 39.163H42.6874C42.4336 39.163 42.2278 38.9572 42.2278 38.7034V25.0412ZM45.9921 35.6781C46.2403 35.6781 46.4471 35.4488 46.4471 35.1737V28.525C46.4471 28.2498 46.2403 28.0206 45.9921 28.0206C45.7439 28.0206 45.537 28.2498 45.537 28.525V35.1737C45.537 35.4488 45.7439 35.6781 45.9921 35.6781ZM50.2114 35.6781C50.4596 35.6781 50.6664 35.4488 50.6664 35.1737V28.525C50.6664 28.2498 50.4596 28.0206 50.2114 28.0206C49.9632 28.0206 49.7564 28.2498 49.7564 28.525V35.1737C49.7564 35.4488 49.9632 35.6781 50.2114 35.6781ZM54.4307 35.6781C54.6789 35.6781 54.8857 35.4488 54.8857 35.1737V28.525C54.8857 28.2498 54.6789 28.0206 54.4307 28.0206C54.1825 28.0206 53.9757 28.2498 53.9757 28.525V35.1737C53.9757 35.4488 54.1825 35.6781 54.4307 35.6781ZM58.65 35.6781C58.8982 35.6781 59.105 35.4488 59.105 35.1737V28.525C59.105 28.2498 58.8982 28.0206 58.65 28.0206C58.4018 28.0206 58.195 28.2498 58.195 28.525V35.1737C58.195 35.4488 58.4018 35.6781 58.65 35.6781ZM31.0082 7.99991C30.7543 7.99991 30.5485 8.20569 30.5485 8.45953V22.1217C30.5485 22.3756 30.7543 22.5814 31.0082 22.5814H50.3168C50.5706 22.5814 50.7764 22.3756 50.7764 22.1217V8.45953C50.7764 8.20569 50.5706 7.99991 50.3168 7.99991H31.0082ZM34.7678 18.6379C34.7678 18.9131 34.561 19.1423 34.3128 19.1423C34.0646 19.1423 33.8578 18.9131 33.8578 18.6379V11.9892C33.8578 11.7141 34.0646 11.4848 34.3128 11.4848C34.561 11.4848 34.7678 11.7141 34.7678 11.9892V18.6379ZM39.0285 18.6379C39.0285 18.9131 38.8217 19.1423 38.5735 19.1423C38.3253 19.1423 38.1185 18.9131 38.1185 18.6379V11.9892C38.1185 11.7141 38.3253 11.4848 38.5735 11.4848C38.8217 11.4848 39.0285 11.7141 39.0285 11.9892V18.6379ZM43.2478 18.6379C43.2478 18.9131 43.041 19.1423 42.7928 19.1423C42.5446 19.1423 42.3378 18.9131 42.3378 18.6379V11.9892C42.3378 11.7141 42.5446 11.4848 42.7928 11.4848C43.041 11.4848 43.2478 11.7141 43.2478 11.9892V18.6379ZM47.4671 18.6379C47.4671 18.9131 47.2603 19.1423 47.0121 19.1423C46.7639 19.1423 46.5571 18.9131 46.5571 18.6379V11.9892C46.5571 11.7141 46.7639 11.4848 47.0121 11.4848C47.2603 11.4848 47.4671 11.7141 47.4671 11.9892V18.6379ZM20 25.0412C20 24.7873 20.2058 24.5815 20.4596 24.5815H39.7682C40.0221 24.5815 40.2279 24.7873 40.2279 25.0412V38.7034C40.2279 38.9572 40.0221 39.163 39.7682 39.163H20.4596C20.2058 39.163 20 38.9572 20 38.7034V25.0412ZM23.7643 35.6781C24.0125 35.6781 24.2193 35.4488 24.2193 35.1737V28.525C24.2193 28.2498 24.0125 28.0206 23.7643 28.0206C23.5161 28.0206 23.3093 28.2498 23.3093 28.525V35.1737C23.3093 35.4488 23.5161 35.6781 23.7643 35.6781ZM27.9836 35.6781C28.2318 35.6781 28.4386 35.4488 28.4386 35.1737V28.525C28.4386 28.2498 28.2318 28.0206 27.9836 28.0206C27.7354 28.0206 27.5286 28.2498 27.5286 28.525V35.1737C27.5286 35.4488 27.7354 35.6781 27.9836 35.6781ZM32.2029 35.6781C32.4511 35.6781 32.6579 35.4488 32.6579 35.1737V28.525C32.6579 28.2498 32.4511 28.0206 32.2029 28.0206C31.9547 28.0206 31.7479 28.2498 31.7479 28.525V35.1737C31.7479 35.4488 31.9547 35.6781 32.2029 35.6781ZM36.4636 35.6781C36.7118 35.6781 36.9186 35.4488 36.9186 35.1737V28.525C36.9186 28.2498 36.7118 28.0206 36.4636 28.0206C36.2154 28.0206 36.0086 28.2498 36.0086 28.525V35.1737C36.0086 35.4488 36.2154 35.6781 36.4636 35.6781Z" fill="#326CE5"/>
</svg>
