<svg width="84" height="86" viewBox="0 0 84 86" fill="none" xmlns="http://www.w3.org/2000/svg">
<path fill-rule="evenodd" clip-rule="evenodd" d="M21.9362 0.70874H27.9399V2.30874V3.90874H23.5162V8.43452H21.9162H20.3162V2.32874C20.3162 1.43404 21.0415 0.70874 21.9362 0.70874ZM30.9417 2.30874V0.70874H42.9492V2.30874V3.90874H30.9417V2.30874ZM45.951 2.30874V0.70874H57.9585V2.30874V3.90874H45.951V2.30874ZM60.9603 2.30874V0.70874H72.9678V2.30874V3.90874H60.9603V2.30874ZM75.9697 2.30874V0.70874H81.9734C82.8681 0.70874 83.5934 1.43404 83.5934 2.32874V8.43452H81.9934H80.3934V3.90874H75.9697V2.30874ZM81.9934 11.4874H83.5934V23.699H81.9934H80.3934V11.4874H81.9934ZM81.9934 26.7519H83.5934V38.9634H81.9934H80.3934V26.7519H81.9934ZM81.9934 42.0163H83.5934V54.2279H81.9934H80.3934V42.0163H81.9934ZM81.9934 57.2808H83.5934V63.3865C83.5934 64.2812 82.8681 65.0065 81.9734 65.0065H75.9696V63.4065V61.8065H80.3934V57.2808H81.9934ZM17.9399 10.7087H11.9362C11.0415 10.7087 10.3162 11.434 10.3162 12.3287V18.4345H11.9162H13.5162V13.9087H17.9399V12.3087V10.7087ZM20.9417 10.7087V12.3087V13.9087H32.9492V12.3087V10.7087H20.9417ZM35.951 10.7087V12.3087V13.9087H47.9585V12.3087V10.7087H35.951ZM50.9603 10.7087V12.3087V13.9087H62.9678V12.3087V10.7087H50.9603ZM65.9697 10.7087V12.3087V13.9087H70.3934V18.4345H71.9934H73.5934V12.3287C73.5934 11.434 72.8681 10.7087 71.9734 10.7087H65.9697ZM73.5934 21.4874H71.9934H70.3934V33.699H71.9934H73.5934V21.4874ZM73.5934 36.7519H71.9934H70.3934V48.9634H71.9934H73.5934V36.7519ZM73.5934 52.0163H71.9934H70.3934V64.2279H71.9934H73.5934V52.0163ZM73.5934 67.2808H71.9934H70.3934V71.8065H65.9696V73.4065V75.0065H71.9734C72.8681 75.0065 73.5934 74.2812 73.5934 73.3865V67.2808ZM0.40625 20.9936H63.6834V47.0626C63.5354 47.0171 63.3782 46.9927 63.2152 46.9927H48.886V41.5889C48.886 40.1297 47.0866 39.4392 46.1104 40.5238L35.5154 52.2961C34.9704 52.9016 34.9704 53.8208 35.5154 54.4263L46.1105 66.1986C47.0866 67.2832 48.886 66.5927 48.886 65.1335V59.7298H63.2152C63.3782 59.7298 63.5354 59.7053 63.6834 59.6598V85.2914H0.40625V20.9936Z" fill="#326CE5"/>
</svg>
