<svg width="82" height="80" viewBox="0 0 82 80" fill="none" xmlns="http://www.w3.org/2000/svg">
<path fill-rule="evenodd" clip-rule="evenodd" d="M16.7188 14.411H20.202V11.9935H18.4604H16.7188V14.411ZM72.9995 52.8081V49.3249H78.11V44.3479H79.8516H81.5933V50.9199C81.5933 51.9627 80.7479 52.8081 79.705 52.8081H72.9995ZM18.4604 8.96023H16.7188V2.38824C16.7188 1.34539 17.5641 0.5 18.607 0.5H26.8807V2.24161V3.98322H20.202V8.96023H18.4604ZM30.6993 2.24161V0.5H47.2467V2.24161V3.98322H30.6993V2.24161ZM51.0653 2.24161V0.5H67.6127V2.24161V3.98322H51.0653V2.24161ZM71.4313 2.24161V0.5H79.705C80.7479 0.5 81.5933 1.34539 81.5933 2.38824V8.96023H79.8516H78.11V3.98322H71.4313V2.24161ZM79.8516 11.9935H81.5933V25.1374H79.8516H78.11V11.9935H79.8516ZM79.8516 28.1707H81.5933V41.3146H79.8516H78.11V28.1707H79.8516Z" fill="#326CE5"/>
<mask id="path-2-inside-1_26953_25593" fill="white">
<rect x="8.125" y="14.4111" width="64.8745" height="52.3081" rx="1.88824"/>
</mask>
<rect x="8.125" y="14.4111" width="64.8745" height="52.3081" rx="1.88824" stroke="#326CE5" stroke-width="6.96644" stroke-linejoin="round" stroke-dasharray="14.72 3.4" mask="url(#path-2-inside-1_26953_25593)"/>
<rect x="0.40625" y="27.1919" width="64.8745" height="52.3081" rx="2.83235" fill="#326CE5"/>
</svg>
