<svg width="80" height="80" viewBox="0 0 80 80" fill="none" xmlns="http://www.w3.org/2000/svg">
<path fill-rule="evenodd" clip-rule="evenodd" d="M2.93945 0.310059C1.83488 0.310059 0.939453 1.20549 0.939453 2.31006V77.6901C0.939453 78.7946 1.83488 79.6901 2.93945 79.6901H77.0595C78.164 79.6901 79.0595 78.7946 79.0595 77.6901V47.5894C78.8767 47.6456 78.6826 47.6758 78.4814 47.6758H60.791V54.3471C60.791 56.1486 58.5695 57.001 57.3644 55.662L44.284 41.1283C43.6113 40.3808 43.6113 39.246 44.284 38.4985L57.3644 23.9647C58.5695 22.6257 60.791 23.4782 60.791 25.2797V31.951H78.4814C78.6826 31.951 78.8767 31.9812 79.0595 32.0374V2.31006C79.0595 1.20549 78.164 0.310059 77.0595 0.310059H2.93945Z" fill="#326CE5"/>
</svg>
