<svg width="84" height="88" viewBox="0 0 84 88" fill="none" xmlns="http://www.w3.org/2000/svg">
<ellipse cx="80.4736" cy="81.9349" rx="3.52437" ry="3.52673" fill="#326CE5"/>
<ellipse cx="3.52437" cy="81.9349" rx="3.52437" ry="3.52673" fill="#326CE5"/>
<path fill-rule="evenodd" clip-rule="evenodd" d="M16.5124 31.3117C13.2944 15.2101 25.6012 0.1875 42.01 0.1875C58.4188 0.1875 70.7256 15.2101 67.5076 31.3117L67.3983 31.8582C66.9243 34.2302 65.9638 36.478 64.5777 38.4597L42.01 70.7222L19.4423 38.4597C18.0562 36.478 17.0957 34.2302 16.6217 31.8582L16.5124 31.3117ZM53.5872 24.6996C53.5872 31.1924 48.3275 36.4559 41.8393 36.4559C35.3511 36.4559 30.0914 31.1924 30.0914 24.6996C30.0914 18.2068 35.3511 12.9434 41.8393 12.9434C48.3275 12.9434 53.5872 18.2068 53.5872 24.6996ZM74.6051 80.1911H47.9131C47.1708 77.7962 44.9393 76.0568 42.3019 76.0568C39.6645 76.0568 37.433 77.7962 36.6907 80.1911H9.4043V83.6981H36.6969C37.4454 86.0828 39.6718 87.8125 42.3019 87.8125C44.932 87.8125 47.1584 86.0828 47.9069 83.6981H74.6051V80.1911Z" fill="#326CE5"/>
</svg>
