<svg width="86" height="74" viewBox="0 0 86 74" fill="none" xmlns="http://www.w3.org/2000/svg">
<path fill-rule="evenodd" clip-rule="evenodd" d="M29.9087 6.12981V14.0653H56.7628V6.12981H29.9087ZM23.8409 4.44431V14.0653H1.3484C0.603699 14.0653 0 14.669 0 15.4137V72.5896C0 73.3343 0.603694 73.938 1.34839 73.938H84.6516C85.3963 73.938 86 73.3343 86 72.5896V15.4137C86 14.669 85.3963 14.0653 84.6516 14.0653H62.8306V4.44431C62.8306 2.02403 60.8685 0.0620117 58.4483 0.0620117H28.2232C25.8029 0.0620117 23.8409 2.02403 23.8409 4.44431ZM44.5691 47.1974C44.5691 46.825 44.871 46.5232 45.2433 46.5232H73.464C73.8363 46.5232 74.1382 46.825 74.1382 47.1974V67.3069C74.1382 67.6793 73.8363 67.9811 73.464 67.9811H45.2433C44.871 67.9811 44.5691 67.6793 44.5691 67.3069V47.1974ZM50.0717 62.8528C50.4345 62.8528 50.7369 62.5154 50.7369 62.1105V52.3263C50.7369 51.9214 50.4345 51.584 50.0717 51.584C49.7089 51.584 49.4066 51.9214 49.4066 52.3263V62.1105C49.4066 62.5154 49.7089 62.8528 50.0717 62.8528ZM56.2395 62.8528C56.6023 62.8528 56.9047 62.5154 56.9047 62.1105V52.3263C56.9047 51.9214 56.6023 51.584 56.2395 51.584C55.8767 51.584 55.5744 51.9214 55.5744 52.3263V62.1105C55.5744 62.5154 55.8767 62.8528 56.2395 62.8528ZM62.4073 62.8528C62.7701 62.8528 63.0724 62.5154 63.0724 62.1105V52.3263C63.0724 51.9214 62.7701 51.584 62.4073 51.584C62.0445 51.584 61.7421 51.9214 61.7421 52.3263V62.1105C61.7421 62.5154 62.0445 62.8528 62.4073 62.8528ZM68.5751 62.8528C68.9379 62.8528 69.2402 62.5154 69.2402 62.1105V52.3263C69.2402 51.9214 68.9379 51.584 68.5751 51.584C68.2123 51.584 67.9099 51.9214 67.9099 52.3263V62.1105C67.9099 62.5154 68.2123 62.8528 68.5751 62.8528ZM27.094 21.0653C26.7217 21.0653 26.4198 21.3671 26.4198 21.7395V41.849C26.4198 42.2214 26.7217 42.5232 27.094 42.5232H55.3147C55.687 42.5232 55.9889 42.2214 55.9889 41.849V21.7395C55.9889 21.3671 55.687 21.0653 55.3147 21.0653H27.094ZM32.5876 36.7201C32.5876 37.125 32.2853 37.4624 31.9224 37.4624C31.5596 37.4624 31.2573 37.125 31.2573 36.7201V26.9359C31.2573 26.531 31.5596 26.1936 31.9224 26.1936C32.2853 26.1936 32.5876 26.531 32.5876 26.9359V36.7201ZM38.8158 36.7201C38.8158 37.125 38.5135 37.4624 38.1507 37.4624C37.7879 37.4624 37.4855 37.125 37.4855 36.7201V26.9359C37.4855 26.531 37.7879 26.1936 38.1507 26.1936C38.5135 26.1936 38.8158 26.531 38.8158 26.9359V36.7201ZM44.9836 36.7201C44.9836 37.125 44.6813 37.4624 44.3185 37.4624C43.9557 37.4624 43.6533 37.125 43.6533 36.7201V26.9359C43.6533 26.531 43.9557 26.1936 44.3185 26.1936C44.6813 26.1936 44.9836 26.531 44.9836 26.9359V36.7201ZM51.1514 36.7201C51.1514 37.125 50.8491 37.4624 50.4863 37.4624C50.1234 37.4624 49.8211 37.125 49.8211 36.7201V26.9359C49.8211 26.531 50.1234 26.1936 50.4863 26.1936C50.8491 26.1936 51.1514 26.531 51.1514 26.9359V36.7201ZM11 47.1974C11 46.825 11.3019 46.5232 11.6742 46.5232H39.8949C40.2672 46.5232 40.5691 46.825 40.5691 47.1974V67.3069C40.5691 67.6793 40.2672 67.9811 39.8949 67.9811H11.6742C11.3019 67.9811 11 67.6793 11 67.3069V47.1974ZM16.5026 62.8528C16.8655 62.8528 17.1678 62.5154 17.1678 62.1105V52.3263C17.1678 51.9214 16.8655 51.584 16.5026 51.584C16.1398 51.584 15.8375 51.9214 15.8375 52.3263V62.1105C15.8375 62.5154 16.1398 62.8528 16.5026 62.8528ZM22.6704 62.8528C23.0332 62.8528 23.3356 62.5154 23.3356 62.1105V52.3263C23.3356 51.9214 23.0332 51.584 22.6704 51.584C22.3076 51.584 22.0053 51.9214 22.0053 52.3263V62.1105C22.0053 62.5154 22.3076 62.8528 22.6704 62.8528ZM28.8382 62.8528C29.201 62.8528 29.5034 62.5154 29.5034 62.1105V52.3263C29.5034 51.9214 29.201 51.584 28.8382 51.584C28.4754 51.584 28.173 51.9214 28.173 52.3263V62.1105C28.173 62.5154 28.4754 62.8528 28.8382 62.8528ZM35.0664 62.8528C35.4293 62.8528 35.7316 62.5154 35.7316 62.1105V52.3263C35.7316 51.9214 35.4293 51.584 35.0664 51.584C34.7036 51.584 34.4013 51.9214 34.4013 52.3263V62.1105C34.4013 62.5154 34.7036 62.8528 35.0664 62.8528Z" fill="#326CE5"/>
</svg>
