<svg width="80" height="80" viewBox="0 0 80 80" fill="none" xmlns="http://www.w3.org/2000/svg">
<path fill-rule="evenodd" clip-rule="evenodd" d="M56.3434 80.0003C69.4082 80.0003 79.9993 69.4092 79.9993 56.3444C79.9993 43.2796 69.4082 32.6885 56.3434 32.6885C43.2786 32.6885 32.6875 43.2796 32.6875 56.3444C32.6875 69.4092 43.2786 80.0003 56.3434 80.0003ZM55.0528 43.8713V56.7746V57.7052L55.8317 58.2145L67.0145 65.5263L68.8975 62.6465L58.4937 55.8439V43.8713H55.0528Z" fill="#326CE5"/>
<path fill-rule="evenodd" clip-rule="evenodd" d="M0 2C0 0.895432 0.895431 0 2 0H66.8172C67.9218 0 68.8172 0.895431 68.8172 2V31.3154C65.0632 29.4415 60.8284 28.3872 56.3474 28.3872C48.8571 28.3872 42.0547 31.3329 37.0357 36.129H14.1405V39.5699H33.9798C31.8809 42.3642 30.2934 45.5647 29.3563 49.0323H14.1405V52.4731H28.6562C28.481 53.7384 28.3904 55.0307 28.3904 56.3442C28.3904 58.259 28.5829 60.1289 28.9496 61.9355H14.1405V65.3763H29.8816C31.6346 70.5145 34.8418 74.9791 39.0125 78.2796H2C0.895431 78.2796 0 77.3841 0 76.2796V2ZM54.4033 13.7634H14.1405V10.3226H54.4033V13.7634ZM14.1405 26.6667H54.4033V23.2258H14.1405V26.6667Z" fill="#326CE5"/>
</svg>
