<svg width="82" height="76" viewBox="0 0 82 76" fill="none" xmlns="http://www.w3.org/2000/svg">
<path fill-rule="evenodd" clip-rule="evenodd" d="M2 0.5H9.8V2V3.5H3V9.6H1.5H0V2.5C0 1.39543 0.89543 0.5 2 0.5ZM2 75.5C0.895429 75.5 0 74.6046 0 73.5V66.4V62.85V48.65V45.1V30.9V30.5C0 29.3954 0.895431 28.5 2 28.5H51C52.1046 28.5 53 29.3954 53 30.5V72.5H68.3V74V75.5H52.7V74.5541C52.3472 75.1219 51.7177 75.5 51 75.5H48.8H33.2H29.3H13.7H9.8H2ZM1.5 27.35H0V13.15H1.5H3V27.35H1.5ZM13.7 2V0.5H29.3V2V3.5H13.7V2ZM33.2 2V0.5H48.8V2V3.5H33.2V2ZM52.7 2V0.5H68.3V2V3.5H52.7V2ZM72.2 2V0.5H80C81.1046 0.5 82 1.39543 82 2.5V9.6H80.5H79V3.5H72.2V2ZM80.5 13.15H82V27.35H80.5H79V13.15H80.5ZM80.5 30.9H82V45.1H80.5H79V30.9H80.5ZM80.5 48.65H82V62.85H80.5H79V48.65H80.5ZM80.5 66.4H82V73.5C82 74.6046 81.1046 75.5 80 75.5H72.2V74V72.5H79V66.4H80.5Z" fill="#326CE5"/>
</svg>
