<svg width="84" height="84" viewBox="0 0 84 84" fill="none" xmlns="http://www.w3.org/2000/svg">
<rect x="1.61583" y="1.61583" width="80.7683" height="80.7683" stroke="#326CE5" stroke-width="3.23167" stroke-dasharray="6.46 6.46"/>
<path fill-rule="evenodd" clip-rule="evenodd" d="M39.922 41.9192C47.6357 41.9192 53.889 35.666 53.889 27.9523C53.889 20.2386 47.6357 13.9854 39.922 13.9854C32.2082 13.9854 25.955 20.2386 25.955 27.9523C25.955 35.666 32.2082 41.9192 39.922 41.9192ZM29.7974 42.6538C30.0784 42.6128 30.3624 42.6859 30.6026 42.8373C33.1178 44.4224 36.3449 45.3749 39.8641 45.3749C43.4033 45.3749 46.6473 44.4114 49.1687 42.81C49.4038 42.6607 49.6813 42.5864 49.9575 42.6219C53.932 43.1326 57.3748 45.3421 59.5342 48.4989C58.9537 48.4097 58.359 48.3634 57.7535 48.3634C51.3338 48.3634 46.1296 53.5649 46.1296 59.9813C46.1296 64.2602 48.444 67.9988 51.8899 70.0149H26.4229C21.8056 70.0149 18.0625 66.2718 18.0625 61.6545V56.2442C18.0625 49.3379 23.1597 43.6222 29.7974 42.6538ZM57.8251 68.1638C62.3055 68.1638 65.9375 64.5336 65.9375 60.0556C65.9375 55.5775 62.3055 51.9474 57.8251 51.9474C53.3447 51.9474 49.7126 55.5775 49.7126 60.0556C49.7126 64.5336 53.3447 68.1638 57.8251 68.1638ZM57.519 63.0783L61.944 58.6533L60.7645 57.4738L56.9764 61.2619L55.35 59.3645L54.0835 60.4501L56.296 63.0313C56.4472 63.2077 56.6651 63.313 56.8972 63.322C57.1294 63.3309 57.3547 63.2426 57.519 63.0783Z" fill="#326CE5"/>
</svg>
