<svg width="90" height="66" viewBox="0 0 90 66" fill="none" xmlns="http://www.w3.org/2000/svg">
<path fill-rule="evenodd" clip-rule="evenodd" d="M79.4359 39.232H74.7657L82.3836 48.0737L90.0016 39.232H85.6625C85.2875 36.5767 84.2134 34.056 82.534 31.9393C80.412 29.2647 77.4494 27.3937 74.1314 26.6325C70.8134 25.8713 67.3365 26.2651 64.2702 27.7494C61.2039 29.2337 58.7299 31.7206 57.2533 34.8027C55.7767 37.8848 55.385 41.3796 56.1424 44.7147C56.8998 48.0498 58.7613 51.0276 61.4223 53.1604C64.0832 55.2932 67.3857 56.4546 70.7891 56.4545C74.1924 56.4544 77.4949 55.2928 80.1557 53.1598L76.3387 48.3492C74.7622 49.613 72.8054 50.3013 70.7889 50.3014C68.7723 50.3014 66.8155 49.6133 65.2389 48.3495C63.6623 47.0858 62.5593 45.3214 62.1105 43.3453C61.6617 41.3693 61.8938 39.2986 62.7687 37.4724C63.6436 35.6461 65.1095 34.1727 66.9264 33.2932C68.7432 32.4137 70.8033 32.1804 72.7693 32.6314C74.7352 33.0824 76.4906 34.191 77.7479 35.7757C78.5587 36.7977 79.1314 37.9786 79.4359 39.232Z" fill="#326CE5"/>
<path fill-rule="evenodd" clip-rule="evenodd" d="M22.7265 44.7049L22.7441 44.7358L22.7653 44.7736C24.5044 47.8984 23.3962 51.8498 20.2901 53.5994C17.184 55.349 13.2561 54.2341 11.517 51.1093C9.7779 47.9845 10.8861 44.0331 13.9922 42.2835C15.2354 41.5833 16.6102 41.3419 17.9236 41.5045L24.6015 30.4464C22.519 28.8812 20.8194 26.8461 19.6451 24.4958C18.2189 21.6414 17.626 18.4388 17.935 15.2593C18.2441 12.0797 19.4424 9.05332 21.3911 6.53085C23.3399 4.00838 25.9593 2.09309 28.9457 1.00695C31.9322 -0.0791975 35.1635 -0.291731 38.2651 0.393978C41.3667 1.07968 44.2117 2.63556 46.4703 4.88129C48.7289 7.12702 50.3087 9.97067 51.0266 13.0827C51.7446 16.1947 51.5712 19.4477 50.5266 22.4646L44.6486 20.4049C45.3062 18.5055 45.4154 16.4575 44.9634 14.4983C44.5114 12.5391 43.5168 10.7488 42.0948 9.33495C40.6729 7.9211 38.8818 6.94157 36.9291 6.50987C34.9764 6.07817 32.9421 6.21197 31.0619 6.89577C29.1817 7.57958 27.5326 8.78539 26.3057 10.3735C25.0789 11.9615 24.3244 13.8669 24.1299 15.8686C23.9353 17.8704 24.3086 19.8866 25.2065 21.6837C25.9366 23.1451 26.9894 24.4129 28.2783 25.3933L32.7414 28.121L22.7265 44.7049ZM34.7503 23.6731C34.776 23.6745 34.8017 23.6757 34.8273 23.6768L43.4161 41.051L48.0595 38.7278C48.832 38.4326 49.6348 38.23 50.4513 38.1231C50.7064 35.8847 51.2956 33.7511 52.1663 31.7759C49.9995 31.7305 47.8454 32.1073 45.823 32.8841L40.0917 21.2904C40.925 20.2618 41.4529 18.9675 41.5281 17.541C41.7165 13.9648 38.9875 10.912 35.4326 10.7225C31.8778 10.5329 28.8433 13.2783 28.6548 16.8546C28.4664 20.4308 31.1954 23.4836 34.7503 23.6731ZM63.6058 60.7217C61.5548 59.8895 59.6619 58.7359 57.986 57.3217C56.8562 58.1376 55.5726 58.725 54.2064 59.0438C52.2588 59.4982 50.2231 59.3881 48.3352 58.7262C46.4473 58.0643 44.7844 56.8778 43.5394 55.3041L38.6693 59.2037C40.6469 61.7033 43.2881 63.588 46.2869 64.6393C49.2857 65.6906 52.5192 65.8655 55.6127 65.1437C58.6328 64.439 61.3988 62.9079 63.6058 60.7217ZM54.8047 53.9876C53.0217 54.7548 50.9161 54.7071 49.0969 53.674C47.8563 52.9694 46.9369 51.9134 46.3925 50.7001L33.5279 50.7071C33.2803 53.3087 32.4354 55.8253 31.0505 58.0546C29.3675 60.7638 26.9558 62.9377 24.0949 64.3244C21.2341 65.7112 18.0412 66.2539 14.8862 65.8898C11.7313 65.5257 8.74351 64.2697 6.26911 62.2673C3.79471 60.2648 1.935 57.598 0.905517 54.5758C-0.123966 51.5536 -0.281087 48.2998 0.452367 45.1915C1.18582 42.0831 2.77982 39.2475 5.04964 37.0132C7.31946 34.7789 10.1722 33.2375 13.2772 32.5674L14.5826 38.69C12.6278 39.1118 10.8318 40.0823 9.40278 41.4889C7.97377 42.8956 6.97023 44.6808 6.50847 46.6377C6.04671 48.5947 6.14563 50.6432 6.79376 52.5458C7.44189 54.4485 8.61271 56.1275 10.1705 57.3882C11.7283 58.6488 13.6094 59.4396 15.5956 59.6688C17.5819 59.898 19.592 59.5563 21.3931 58.6833C23.1943 57.8102 24.7126 56.4416 25.7722 54.736C26.6357 53.346 27.1657 51.7785 27.3273 50.1573L27.3245 44.9192L46.614 44.9089L46.6256 44.8878L46.6524 44.8395C47.4909 43.3452 48.8303 42.3141 50.3391 41.8391C50.5804 46.4128 52.2106 50.6076 54.8047 53.9876Z" fill="#326CE5"/>
</svg>
