<svg width="160" height="110" viewBox="0 0 160 110" fill="none" xmlns="http://www.w3.org/2000/svg">
<rect x="18.1598" y="2.99182" width="139.714" height="104.015" fill="#326CE5" fill-opacity="0.1" stroke="#326CE5" stroke-width="4.42895" stroke-dasharray="8.86 8.86"/>
<path fill-rule="evenodd" clip-rule="evenodd" d="M10.1537 89.3724C1.18031 85.0627 -2.61171 74.2711 1.68408 65.2686C3.74701 60.9455 7.43724 57.6215 11.943 56.028C16.4487 54.4345 21.4009 54.702 25.7101 56.7716C34.6835 61.0813 38.4755 71.8729 34.1797 80.8754C29.8839 89.8778 19.1271 93.6821 10.1537 89.3724Z" fill="#326CE5"/>
<path d="M17.759 62.2324C17.5567 62.2427 17.3586 62.293 17.1761 62.3804L9.22197 66.1928C9.0161 66.2915 8.83521 66.435 8.69273 66.6127C8.55026 66.7904 8.44986 66.9978 8.39899 67.2194L6.43665 75.7831C6.39134 75.9804 6.38627 76.1848 6.42174 76.3841C6.45721 76.5833 6.5325 76.7735 6.64316 76.9434C6.66999 76.9849 6.69885 77.0251 6.72963 77.0638L12.2352 83.9304C12.3777 84.1081 12.5586 84.2516 12.7645 84.3502C12.9703 84.4487 13.1959 84.4999 13.4244 84.4999L22.2534 84.4978C22.4818 84.498 22.7073 84.447 22.9131 84.3486C23.119 84.2502 23.3 84.1069 23.4426 83.9294L28.9461 77.0617C29.0887 76.884 29.1891 76.6765 29.24 76.4548C29.2909 76.2331 29.2909 76.0028 29.2401 75.7811L27.2747 67.2174C27.2238 66.9957 27.1234 66.7884 26.9809 66.6106C26.8385 66.4329 26.6576 66.2894 26.4517 66.1908L18.4965 62.3804C18.267 62.2704 18.0134 62.2195 17.759 62.2324Z" fill="white"/>
<path d="M17.8393 65.1484C17.5764 65.1485 17.3632 65.386 17.3632 65.6791C17.3632 65.6836 17.3641 65.6879 17.3642 65.6923C17.3638 65.7322 17.3619 65.7801 17.3632 65.8148C17.3695 65.9838 17.4062 66.1132 17.4283 66.2689C17.4683 66.6022 17.5019 66.8785 17.4812 67.1353C17.4611 67.2321 17.39 67.3207 17.3266 67.3822L17.3154 67.5843C17.0297 67.608 16.742 67.6515 16.4548 67.7169C15.2186 67.9985 14.1542 68.6372 13.3439 69.4997C13.2913 69.4637 13.1993 69.3975 13.172 69.3772C13.087 69.3887 13.0011 69.415 12.8892 69.3497C12.6761 69.2058 12.4821 69.0072 12.2473 68.768C12.1397 68.6536 12.0618 68.5446 11.934 68.4343C11.9049 68.4093 11.8606 68.3754 11.8282 68.3496C11.7282 68.2697 11.6104 68.228 11.4965 68.2241C11.3502 68.2191 11.2093 68.2765 11.1171 68.3925C10.9532 68.5987 11.0056 68.9139 11.2341 69.0966C11.2364 69.0984 11.2388 69.0999 11.2412 69.1017C11.2726 69.1272 11.311 69.1599 11.3399 69.1813C11.4755 69.2818 11.5994 69.3332 11.7346 69.4129C12.0193 69.5893 12.2554 69.7356 12.4426 69.9119C12.5157 69.9901 12.5285 70.1279 12.5382 70.1875L12.6908 70.3242C11.8739 71.5574 11.4959 73.0806 11.7193 74.6326L11.5199 74.6907C11.4674 74.7588 11.3931 74.8659 11.3154 74.8979C11.0705 74.9753 10.7948 75.0037 10.4619 75.0387C10.3057 75.0518 10.1708 75.044 10.0052 75.0755C9.96872 75.0824 9.91792 75.0957 9.87802 75.1051C9.87664 75.1053 9.87534 75.1058 9.87395 75.1061C9.87178 75.1066 9.86892 75.1076 9.86683 75.1081C9.58622 75.1761 9.40595 75.4349 9.46399 75.6898C9.52204 75.9448 9.79613 76.0998 10.0784 76.0388C10.0805 76.0383 10.0834 76.0382 10.0855 76.0378C10.0887 76.037 10.0915 76.0355 10.0947 76.0347C10.1341 76.026 10.1834 76.0164 10.2178 76.0071C10.3807 75.9634 10.4986 75.8991 10.6451 75.8428C10.9601 75.7295 11.221 75.6348 11.4752 75.5979C11.5813 75.5896 11.6932 75.6636 11.7488 75.6949L11.9563 75.6592C12.4339 77.1444 13.4347 78.3449 14.702 79.0981L14.6155 79.3063C14.6467 79.3871 14.6811 79.4965 14.6578 79.5763C14.5654 79.8167 14.4071 80.0704 14.2269 80.3533C14.1396 80.484 14.0503 80.5854 13.9716 80.7349C13.9527 80.7707 13.9287 80.8257 13.9105 80.8635C13.7882 81.1261 13.8779 81.4286 14.113 81.5421C14.3495 81.6563 14.6431 81.5359 14.7701 81.2727C14.7703 81.2723 14.771 81.2721 14.7712 81.2717C14.7713 81.2714 14.771 81.271 14.7712 81.2707C14.7892 81.2334 14.8149 81.1843 14.8302 81.1492C14.8976 80.9942 14.9201 80.8614 14.9675 80.7115C15.0935 80.3941 15.1627 80.061 15.3361 79.8535C15.3836 79.7967 15.461 79.7748 15.5412 79.7532L15.6491 79.5573C16.7539 79.9827 17.9905 80.0969 19.2258 79.8155C19.5076 79.7513 19.7797 79.6682 20.0427 79.5685C20.073 79.6225 20.1293 79.7261 20.1444 79.7522C20.226 79.7788 20.315 79.7926 20.3876 79.9002C20.5173 80.1225 20.606 80.3856 20.7141 80.7033C20.7616 80.8532 20.785 80.9861 20.8525 81.1411C20.8678 81.1764 20.8934 81.2261 20.9115 81.2635C21.0383 81.5275 21.3328 81.6484 21.5697 81.5339C21.8047 81.4204 21.8945 81.1179 21.7721 80.8553C21.7539 80.8175 21.7289 80.7626 21.71 80.7268C21.6313 80.5772 21.542 80.4768 21.4547 80.3461C21.2744 80.0633 21.1249 79.8283 21.0325 79.5879C20.9939 79.464 21.039 79.3869 21.0692 79.3063C21.0511 79.2856 21.0125 79.1685 20.9898 79.1134C22.3068 78.3334 23.2782 77.0881 23.7344 75.65C23.796 75.6597 23.9031 75.6787 23.9379 75.6857C24.0095 75.6383 24.0753 75.5765 24.2044 75.5867C24.4586 75.6236 24.7195 75.7183 25.0345 75.8316C25.181 75.8879 25.2989 75.9532 25.4618 75.9969C25.4962 76.0062 25.5455 76.0148 25.5849 76.0235C25.588 76.0242 25.5908 76.0258 25.594 76.0265C25.5962 76.027 25.5991 76.0271 25.6011 76.0276C25.8835 76.0885 26.1576 75.9335 26.2156 75.6786C26.2736 75.4236 26.0934 75.1648 25.8127 75.0969C25.7719 75.0876 25.714 75.0718 25.6744 75.0642C25.5087 75.0328 25.3739 75.0405 25.2176 75.0275C24.8848 74.9925 24.6091 74.9641 24.3641 74.8867C24.2643 74.8478 24.1932 74.7286 24.1586 74.6795L23.9664 74.6234C24.0661 73.9 24.0392 73.147 23.8667 72.3937C23.6926 71.6333 23.3849 70.9379 22.9745 70.3252C23.0238 70.2803 23.117 70.1975 23.1434 70.1732C23.1511 70.0875 23.1445 69.9976 23.2329 69.9028C23.4201 69.7264 23.6562 69.5802 23.9409 69.4038C24.0761 69.324 24.201 69.2726 24.3367 69.1721C24.3673 69.1494 24.4092 69.1134 24.4414 69.0874C24.6698 68.9047 24.7224 68.5895 24.5584 68.3833C24.3945 68.1771 24.0767 68.1577 23.8484 68.3404C23.8159 68.3663 23.7718 68.3999 23.7426 68.4251C23.6148 68.5354 23.5358 68.6444 23.4282 68.7588C23.1934 68.998 22.9994 69.1976 22.7863 69.3415C22.694 69.3954 22.5588 69.3768 22.4974 69.3731L22.3163 69.5027C21.2838 68.4166 19.878 67.7222 18.3642 67.5873C18.36 67.5237 18.3544 67.4087 18.353 67.3741C18.291 67.3146 18.2162 67.2638 18.1974 67.1353C18.1767 66.8785 18.2112 66.6022 18.2513 66.2689C18.2734 66.1132 18.3101 65.9838 18.3164 65.8148C18.3178 65.7764 18.3155 65.7206 18.3154 65.6791C18.3153 65.386 18.1022 65.1484 17.8393 65.1484H17.8393ZM17.2432 68.8527L17.1018 71.3579L17.0916 71.363C17.0821 71.5872 16.8982 71.7661 16.6725 71.7661C16.58 71.7661 16.4946 71.7363 16.4253 71.6855L16.4212 71.6875L14.3734 70.2313C15.0028 69.6105 15.8078 69.1518 16.7355 68.9405C16.905 68.9019 17.0744 68.8732 17.2432 68.8527ZM18.4364 68.8527C19.5196 68.9863 20.5213 69.4783 21.2889 70.2324L19.2543 71.6794L19.2472 71.6763C19.0666 71.8086 18.8122 71.7758 18.6714 71.5988C18.6138 71.5262 18.5835 71.441 18.5799 71.3549L18.5778 71.3539L18.4364 68.8527ZM13.6308 71.1671L15.5005 72.8447L15.4985 72.8549C15.6673 73.0021 15.6922 73.2575 15.5514 73.4346C15.4938 73.5071 15.4166 73.5557 15.3337 73.5784L15.3317 73.5866L12.935 74.2805C12.813 73.1616 13.0759 72.0739 13.6308 71.1671ZM22.0346 71.1681C22.3124 71.6198 22.5227 72.1243 22.648 72.6713C22.7717 73.2116 22.8028 73.751 22.7517 74.2724L20.3428 73.5764L20.3408 73.5662C20.1251 73.5071 19.9925 73.287 20.0427 73.0662C20.0633 72.9757 20.1112 72.8992 20.176 72.8427L20.175 72.8376L22.0346 71.1681H22.0346ZM17.4558 72.9743H18.2218L18.6979 73.5713L18.527 74.3162L17.8393 74.6479L17.1496 74.3152L16.9787 73.5703L17.4558 72.9743ZM19.9115 75.0173C19.944 75.0156 19.9764 75.0186 20.0081 75.0244L20.0122 75.0193L22.4913 75.4398C22.1285 76.4623 21.4342 77.3481 20.5066 77.9409L19.5442 75.6092L19.5473 75.6051C19.4589 75.399 19.5474 75.1574 19.7508 75.0591C19.8028 75.034 19.8572 75.02 19.9115 75.0173H19.9115ZM15.7477 75.0275C15.9369 75.0302 16.1066 75.1619 16.1506 75.3551C16.1712 75.4455 16.1612 75.5351 16.1272 75.6143L16.1343 75.6234L15.1821 77.9317C14.2919 77.3587 13.5828 76.5007 13.2035 75.4479L15.6613 75.0295L15.6653 75.0346C15.6928 75.0296 15.7207 75.0271 15.7477 75.0275V75.0275ZM17.824 76.0388C17.8899 76.0363 17.9568 76.0499 18.0204 76.0806C18.1037 76.1209 18.168 76.1842 18.2086 76.2602H18.2177L19.4293 78.4562C19.2721 78.5091 19.1104 78.5543 18.9451 78.592C18.0185 78.803 17.0948 78.7391 16.2584 78.4532L17.467 76.2612H17.469C17.5415 76.1252 17.679 76.0441 17.824 76.0388Z" fill="#326CE5" stroke="#326CE5" stroke-width="0.221447"/>
</svg>
