<svg width="90" height="86" viewBox="0 0 90 86" fill="none" xmlns="http://www.w3.org/2000/svg">
<path fill-rule="evenodd" clip-rule="evenodd" d="M83.4355 41.7461C83.4355 43.4101 83.3382 45.0514 83.149 46.6645C80.954 44.4768 77.926 43.1245 74.5821 43.1245H73.8236C67.121 43.1245 61.6875 48.558 61.6875 55.2605V57.0993C58.5542 57.3375 56.0859 59.9554 56.0859 63.1497V80.9501C51.6065 82.5945 46.7669 83.4921 41.7178 83.4921C18.6777 83.4921 0 64.8018 0 41.7461C0 18.6903 18.6777 0 41.7178 0C64.7578 0 83.4355 18.6903 83.4355 41.7461ZM37.2452 30.2767L49.4088 16.0241L62.9922 30.2767H53.6771V46.7217H46.0078V30.2767H37.2452ZM34.0729 67.5524L21.9092 53.2998H30.6719V36.8543H38.3412V53.2998H47.6562L34.0729 67.5524ZM84.3428 59.5893H86.2282C88.302 59.5893 89.9983 61.2874 89.9983 63.3625V82.2267C89.9983 84.3019 88.302 86 86.2282 86H63.6061C61.5323 86 59.8359 84.3019 59.8359 82.2267V63.3625C59.8359 61.2874 61.5323 59.5893 63.6061 59.5893H65.4915V55.8166C65.4915 50.61 69.7141 46.3845 74.9171 46.3845C80.1202 46.3845 84.3428 50.61 84.3428 55.8166V59.5893ZM71.147 72.7946C71.147 74.8698 72.8434 76.5673 74.9171 76.5673C76.9909 76.5673 78.6873 74.8698 78.6873 72.7946C78.6873 70.7194 76.9909 69.0219 74.9171 69.0219C72.8434 69.0219 71.147 70.7194 71.147 72.7946ZM69.0727 59.5893H80.7616V55.8166C80.7616 52.5909 78.1407 49.9681 74.9171 49.9681C71.6936 49.9681 69.0727 52.5909 69.0727 55.8166V59.5893Z" fill="#326CE5"/>
</svg>
