<svg width="84" height="86" viewBox="0 0 84 86" fill="none" xmlns="http://www.w3.org/2000/svg">
<path fill-rule="evenodd" clip-rule="evenodd" d="M35.5638 34.2255C54.9581 34.2255 70.6803 26.6504 70.6803 17.3061C70.6803 7.96178 54.9581 0.386719 35.5638 0.386719C16.1695 0.386719 0.447266 7.96178 0.447266 17.3061C0.447266 26.6504 16.1695 34.2255 35.5638 34.2255ZM0.447266 66.4672V23.6088C4.01112 31.1882 18.379 36.8573 35.5612 36.8573C52.7518 36.8573 67.1252 31.1827 70.6803 23.5978V43.1819C69.588 42.9709 68.3079 42.9371 66.8105 43.1199C61.3962 43.7808 56.9293 47.5997 56.9293 53.1197V55.9843H54.5005C52.5005 56.1201 51.0005 58.9198 51.0005 61.1199V81.1195C51.0005 81.3027 51.0128 81.4832 51.0367 81.6602C46.3687 82.7659 41.1167 83.3869 35.5638 83.3869C16.1695 83.3869 0.447266 75.8118 0.447266 66.4675V66.4672ZM77.9266 59.2014H79.8025C81.8658 59.2014 83.5536 60.8997 83.5536 62.9751V81.8414C83.5536 83.9169 81.8658 85.6151 79.8025 85.6151H57.2944C55.2311 85.6151 53.5432 83.9169 53.5432 81.8414V62.9751C53.5432 60.8997 55.2311 59.2014 57.2944 59.2014H59.1702V55.4283C59.1702 50.2211 63.3716 45.9951 68.5484 45.9951C73.7253 45.9951 77.9266 50.2211 77.9266 55.4283V59.2014ZM64.7973 72.4083C64.7973 74.4837 66.4851 76.1814 68.5484 76.1814C70.6118 76.1814 72.2996 74.4837 72.2996 72.4083C72.2996 70.3328 70.6118 68.6351 68.5484 68.6351C66.4851 68.6351 64.7973 70.3328 64.7973 72.4083ZM62.7334 55.4283V59.2014H74.3635V55.4283C74.3635 52.2022 71.7557 49.5792 68.5484 49.5792C65.3412 49.5792 62.7334 52.2022 62.7334 55.4283Z" fill="#326CE5"/>
</svg>
