<svg width="90" height="68" viewBox="0 0 90 68" fill="none" xmlns="http://www.w3.org/2000/svg">
<path d="M48 36C47.4477 36 47 36.4477 47 37V66.8969C47 67.4492 47.4477 67.8969 48 67.8969H90.0098C90.562 67.8969 91.0098 67.4492 91.0098 66.8969V37C91.0098 36.4477 90.562 36 90.0098 36H48ZM56.18 59.1704C56.18 59.7722 55.73 60.2738 55.19 60.2738C54.65 60.2738 54.2 59.7722 54.2 59.1704V44.6262C54.2 44.0244 54.65 43.5229 55.19 43.5229C55.73 43.5229 56.18 44.0244 56.18 44.6262V59.1704ZM65.3599 59.1704C65.3599 59.7722 64.9099 60.2738 64.3699 60.2738C63.8299 60.2738 63.3799 59.7722 63.3799 59.1704V44.6262C63.3799 44.0244 63.8299 43.5229 64.3699 43.5229C64.9099 43.5229 65.3599 44.0244 65.3599 44.6262V59.1704ZM74.5398 59.1704C74.5398 59.7722 74.0898 60.2738 73.5499 60.2738C73.0099 60.2738 72.5599 59.7722 72.5599 59.1704V44.6262C72.5599 44.0244 73.0099 43.5229 73.5499 43.5229C74.0898 43.5229 74.5398 44.0244 74.5398 44.6262V59.1704ZM83.7198 59.1704C83.7198 59.7722 83.2698 60.2738 82.7298 60.2738C82.1898 60.2738 81.7398 59.7722 81.7398 59.1704V44.6262C81.7398 44.0244 82.1898 43.5229 82.7298 43.5229C83.2698 43.5229 83.7198 44.0244 83.7198 44.6262V59.1704Z" fill="#326CE5"/>
<path d="M22.9394 0.103027C22.3872 0.103027 21.9395 0.550736 21.9395 1.10301V31C21.9395 31.5522 22.3872 31.9999 22.9394 31.9999H64.9492C65.5015 31.9999 65.9492 31.5522 65.9492 31V1.10301C65.9492 0.550735 65.5015 0.103027 64.9492 0.103027H22.9394ZM31.1194 23.3737C31.1194 23.9756 30.6694 24.4771 30.1294 24.4771C29.5894 24.4771 29.1394 23.9756 29.1394 23.3737V8.82954C29.1394 8.22771 29.5894 7.72619 30.1294 7.72619C30.6694 7.72619 31.1194 8.22771 31.1194 8.82954V23.3737ZM40.3894 23.3737C40.3894 23.9756 39.9394 24.4771 39.3994 24.4771C38.8594 24.4771 38.4094 23.9756 38.4094 23.3737V8.82954C38.4094 8.22771 38.8594 7.72619 39.3994 7.72619C39.9394 7.72619 40.3894 8.22771 40.3894 8.82954V23.3737ZM49.5693 23.3737C49.5693 23.9756 49.1193 24.4771 48.5793 24.4771C48.0393 24.4771 47.5893 23.9756 47.5893 23.3737V8.82954C47.5893 8.22771 48.0393 7.72619 48.5793 7.72619C49.1193 7.72619 49.5693 8.22771 49.5693 8.82954V23.3737ZM58.7493 23.3737C58.7493 23.9756 58.2993 24.4771 57.7593 24.4771C57.2193 24.4771 56.7693 23.9756 56.7693 23.3737V8.82954C56.7693 8.22771 57.2193 7.72619 57.7593 7.72619C58.2993 7.72619 58.7493 8.22771 58.7493 8.82954V23.3737Z" fill="#326CE5"/>
<path d="M-0.00978088 36C-0.562057 36 -1.00977 36.4477 -1.00977 37V66.8969C-1.00977 67.4492 -0.562057 67.8969 -0.00978124 67.8969H42C42.5523 67.8969 43 67.4492 43 66.8969V37C43 36.4477 42.5523 36 42 36H-0.00978088ZM8.17019 59.1704C8.17019 59.7722 7.72019 60.2738 7.18019 60.2738C6.64019 60.2738 6.19019 59.7722 6.19019 59.1704V44.6262C6.19019 44.0244 6.64019 43.5229 7.18019 43.5229C7.72019 43.5229 8.17019 44.0244 8.17019 44.6262V59.1704ZM17.3501 59.1704C17.3501 59.7722 16.9001 60.2738 16.3601 60.2738C15.8201 60.2738 15.3701 59.7722 15.3701 59.1704V44.6262C15.3701 44.0244 15.8201 43.5229 16.3601 43.5229C16.9001 43.5229 17.3501 44.0244 17.3501 44.6262V59.1704ZM26.5301 59.1704C26.5301 59.7722 26.0801 60.2738 25.5401 60.2738C25.0001 60.2738 24.5501 59.7722 24.5501 59.1704V44.6262C24.5501 44.0244 25.0001 43.5229 25.5401 43.5229C26.0801 43.5229 26.5301 44.0244 26.5301 44.6262V59.1704ZM35.8 59.1704C35.8 59.7722 35.35 60.2738 34.81 60.2738C34.27 60.2738 33.82 59.7722 33.82 59.1704V44.6262C33.82 44.0244 34.27 43.5229 34.81 43.5229C35.35 43.5229 35.8 44.0244 35.8 44.6262V59.1704Z" fill="#326CE5"/>
</svg>
