<svg width="88" height="74" viewBox="0 0 88 74" fill="none" xmlns="http://www.w3.org/2000/svg">
<path fill-rule="evenodd" clip-rule="evenodd" d="M23.7447 5.27447L21.1124 6.77005L6.56682 15.0342V58.1331L21.2163 67.249L23.7868 68.8486L20.5877 73.9896L18.0172 72.39L1.93972 62.3855C1.05164 61.8329 0.511719 60.861 0.511719 59.815V13.2723C0.511719 12.1831 1.09672 11.1779 2.04368 10.6399L18.1212 1.50536L20.7535 0.00976562L23.7447 5.27447ZM64.2565 5.27447L66.8889 6.77005L81.4344 15.0342V58.1331L66.7849 67.249L64.2144 68.8486L67.4135 73.9896L69.984 72.39L86.0615 62.3855C86.9496 61.8329 87.4895 60.861 87.4895 59.815V13.2723C87.4895 12.1831 86.9045 11.1779 85.9576 10.6399L69.88 1.50536L67.2477 0.00976562L64.2565 5.27447ZM45.3353 36.8479C45.3353 36.4783 45.6349 36.1786 46.0046 36.1786H74.2308C74.6005 36.1786 74.9001 36.4783 74.9001 36.8479V56.7923C74.9001 57.162 74.6005 57.4616 74.2308 57.4616H46.0046C45.6349 57.4616 45.3353 57.162 45.3353 56.7923V36.8479ZM50.8371 52.3751C51.1999 52.3751 51.5022 52.0405 51.5022 51.6389V41.9344C51.5022 41.5328 51.1999 41.1982 50.8371 41.1982C50.4743 41.1982 50.1721 41.5328 50.1721 41.9344V51.6389C50.1721 52.0405 50.4743 52.3751 50.8371 52.3751ZM57.004 52.3751C57.3668 52.3751 57.6691 52.0405 57.6691 51.6389V41.9344C57.6691 41.5328 57.3668 41.1982 57.004 41.1982C56.6413 41.1982 56.339 41.5328 56.339 41.9344V51.6389C56.339 52.0405 56.6413 52.3751 57.004 52.3751ZM63.1709 52.3751C63.5337 52.3751 63.836 52.0405 63.836 51.6389V41.9344C63.836 41.5328 63.5337 41.1982 63.1709 41.1982C62.8082 41.1982 62.5059 41.5328 62.5059 41.9344V51.6389C62.5059 52.0405 62.8082 52.3751 63.1709 52.3751ZM69.3378 52.3751C69.7006 52.3751 70.0029 52.0405 70.0029 51.6389V41.9344C70.0029 41.5328 69.7006 41.1982 69.3378 41.1982C68.9751 41.1982 68.6728 41.5328 68.6728 41.9344V51.6389C68.6728 52.0405 68.9751 52.3751 69.3378 52.3751ZM29.857 12.8954C29.4873 12.8954 29.1876 13.1951 29.1876 13.5648V33.5091C29.1876 33.8788 29.4873 34.1785 29.857 34.1785H58.0832C58.4528 34.1785 58.7525 33.8788 58.7525 33.5091V13.5648C58.7525 13.1951 58.4528 12.8954 58.0832 12.8954H29.857ZM35.3545 28.4227C35.3545 28.8242 35.0522 29.1589 34.6895 29.1589C34.3267 29.1589 34.0244 28.8242 34.0244 28.4227V18.7182C34.0244 18.3166 34.3267 17.982 34.6895 17.982C35.0522 17.982 35.3545 18.3166 35.3545 18.7182V28.4227ZM41.5819 28.4227C41.5819 28.8242 41.2796 29.1589 40.9168 29.1589C40.5541 29.1589 40.2518 28.8242 40.2518 28.4227V18.7182C40.2518 18.3166 40.5541 17.982 40.9168 17.982C41.2796 17.982 41.5819 18.3166 41.5819 18.7182V28.4227ZM47.7488 28.4227C47.7488 28.8242 47.4465 29.1589 47.0838 29.1589C46.721 29.1589 46.4187 28.8242 46.4187 28.4227V18.7182C46.4187 18.3166 46.721 17.982 47.0838 17.982C47.4465 17.982 47.7488 18.3166 47.7488 18.7182V28.4227ZM53.9157 28.4227C53.9157 28.8242 53.6134 29.1589 53.2507 29.1589C52.8879 29.1589 52.5856 28.8242 52.5856 28.4227V18.7182C52.5856 18.3166 52.8879 17.982 53.2507 17.982C53.6134 17.982 53.9157 18.3166 53.9157 18.7182V28.4227ZM13.7703 36.8479C13.7703 36.4783 14.07 36.1786 14.4396 36.1786H42.6659C43.0355 36.1786 43.3352 36.4783 43.3352 36.8479V56.7923C43.3352 57.162 43.0355 57.4616 42.6659 57.4616H14.4396C14.07 57.4616 13.7703 57.162 13.7703 56.7923V36.8479ZM19.2722 52.3751C19.6349 52.3751 19.9372 52.0405 19.9372 51.6389V41.9344C19.9372 41.5328 19.6349 41.1982 19.2722 41.1982C18.9094 41.1982 18.6071 41.5328 18.6071 41.9344V51.6389C18.6071 52.0405 18.9094 52.3751 19.2722 52.3751ZM25.4391 52.3751C25.8018 52.3751 26.1041 52.0405 26.1041 51.6389V41.9344C26.1041 41.5328 25.8018 41.1982 25.4391 41.1982C25.0763 41.1982 24.774 41.5328 24.774 41.9344V51.6389C24.774 52.0405 25.0763 52.3751 25.4391 52.3751ZM31.606 52.3751C31.9687 52.3751 32.271 52.0405 32.271 51.6389V41.9344C32.271 41.5328 31.9687 41.1982 31.606 41.1982C31.2432 41.1982 30.9409 41.5328 30.9409 41.9344V51.6389C30.9409 52.0405 31.2432 52.3751 31.606 52.3751ZM37.8334 52.3751C38.1961 52.3751 38.4984 52.0405 38.4984 51.6389V41.9344C38.4984 41.5328 38.1961 41.1982 37.8334 41.1982C37.4706 41.1982 37.1683 41.5328 37.1683 41.9344V51.6389C37.1683 52.0405 37.4706 52.3751 37.8334 52.3751Z" fill="#326CE5"/>
</svg>
