<svg width="86" height="76" viewBox="0 0 86 76" fill="none" xmlns="http://www.w3.org/2000/svg">
<path fill-rule="evenodd" clip-rule="evenodd" d="M0 73.6879V66.5503H1.81214H3.62427V71.8757H8.4022V73.6879V75.5H1.81213C0.811318 75.5 0 74.6887 0 73.6879ZM1.81214 62.9815H0V48.7064H1.81214H3.62427V62.9815H1.81214ZM1.81214 45.1376H0V30.8624H1.81214H3.62427V45.1376H1.81214ZM1.81214 27.2936H0V13.0185H1.81214H3.62427V27.2936H1.81214ZM1.81214 9.44971H0V2.31213C0 1.31132 0.811321 0.5 1.81214 0.5H8.40219V2.31214V4.12427H3.62427V9.44971H1.81214ZM11.6972 2.31214V0.5H24.8773V2.31214V4.12427H11.6972V2.31214ZM28.1724 2.31214V0.5H41.3525V2.31214V4.12427H28.1724V2.31214ZM44.6475 2.31214V0.5H57.8276V2.31214V4.12427H44.6475V2.31214ZM61.1227 2.31214V0.5H74.3028V2.31214V4.12427H61.1227V2.31214ZM77.5978 2.31214V0.5H84.1879C85.1887 0.5 86 1.31132 86 2.31214V9.44971H84.1879H82.3757V4.12427H77.5978V2.31214ZM84.1879 13.0185H86V27.2936H84.1879H82.3757V13.0185H84.1879ZM84.1879 30.8624H86V45.1376H84.1879H82.3757V30.8624H84.1879ZM84.1879 48.7064H86V62.9815H84.1879H82.3757V48.7064H84.1879ZM84.1879 66.5503H86V73.6879C86 74.6887 85.1887 75.5 84.1879 75.5H77.5978V73.6879V71.8757H82.3757V66.5503H84.1879ZM74.3028 73.6879V75.5H61.1227V73.6879V71.8757H74.3028V73.6879ZM57.8276 73.6879V75.5H44.6475V73.6879V71.8757H57.8276V73.6879ZM41.3525 73.6879V75.5H28.1724V73.6879V71.8757H41.3525V73.6879ZM24.8773 73.6879V75.5H11.6972V73.6879V71.8757H24.8773V73.6879ZM43.7092 39.1452C43.7092 38.7506 44.0292 38.4306 44.4238 38.4306H74.5349C74.9296 38.4306 75.2495 38.7506 75.2495 39.1452V60.4995C75.2495 60.8942 74.9296 61.2141 74.5349 61.2141H44.4238C44.0292 61.2141 43.7092 60.8942 43.7092 60.4995V39.1452ZM49.5787 55.769C49.9657 55.769 50.2882 55.4108 50.2882 54.9809V44.5922C50.2882 44.1623 49.9657 43.8041 49.5787 43.8041C49.1917 43.8041 48.8692 44.1623 48.8692 44.5922V54.9809C48.8692 55.4108 49.1917 55.769 49.5787 55.769ZM56.1576 55.769C56.5446 55.769 56.8671 55.4108 56.8671 54.9809V44.5922C56.8671 44.1623 56.5446 43.8041 56.1576 43.8041C55.7707 43.8041 55.4482 44.1623 55.4482 44.5922V54.9809C55.4482 55.4108 55.7707 55.769 56.1576 55.769ZM62.7366 55.769C63.1236 55.769 63.4461 55.4108 63.4461 54.9809V44.5922C63.4461 44.1623 63.1236 43.8041 62.7366 43.8041C62.3496 43.8041 62.0271 44.1623 62.0271 44.5922V54.9809C62.0271 55.4108 62.3496 55.769 62.7366 55.769ZM69.3156 55.769C69.7026 55.769 70.0251 55.4108 70.0251 54.9809V44.5922C70.0251 44.1623 69.7026 43.8041 69.3156 43.8041C68.9286 43.8041 68.6061 44.1623 68.6061 44.5922V54.9809C68.6061 55.4108 68.9286 55.769 69.3156 55.769ZM27.912 14.072C27.5173 14.072 27.1974 14.392 27.1974 14.7866V36.1409C27.1974 36.5356 27.5173 36.8555 27.912 36.8555H58.0231C58.4178 36.8555 58.7377 36.5356 58.7377 36.1409V14.7866C58.7377 14.392 58.4178 14.072 58.0231 14.072H27.912ZM33.7763 30.6939C33.7763 31.1238 33.4538 31.4821 33.0668 31.4821C32.6798 31.4821 32.3573 31.1238 32.3573 30.6939V20.3052C32.3573 19.8754 32.6798 19.5171 33.0668 19.5171C33.4538 19.5171 33.7763 19.8754 33.7763 20.3052V30.6939ZM40.4198 30.6939C40.4198 31.1238 40.0973 31.4821 39.7103 31.4821C39.3233 31.4821 39.0008 31.1238 39.0008 30.6939V20.3052C39.0008 19.8754 39.3233 19.5171 39.7103 19.5171C40.0973 19.5171 40.4198 19.8754 40.4198 20.3052V30.6939ZM46.9988 30.6939C46.9988 31.1238 46.6763 31.4821 46.2893 31.4821C45.9023 31.4821 45.5798 31.1238 45.5798 30.6939V20.3052C45.5798 19.8754 45.9023 19.5171 46.2893 19.5171C46.6763 19.5171 46.9988 19.8754 46.9988 20.3052V30.6939ZM53.5777 30.6939C53.5777 31.1238 53.2552 31.4821 52.8682 31.4821C52.4812 31.4821 52.1587 31.1238 52.1587 30.6939V20.3052C52.1587 19.8754 52.4812 19.5171 52.8682 19.5171C53.2552 19.5171 53.5777 19.8754 53.5777 20.3052V30.6939ZM10.7497 39.1452C10.7497 38.7506 11.0696 38.4306 11.4643 38.4306H41.5754C41.9701 38.4306 42.29 38.7506 42.29 39.1452V60.4995C42.29 60.8942 41.9701 61.2141 41.5754 61.2141H11.4643C11.0696 61.2141 10.7497 60.8942 10.7497 60.4995V39.1452ZM16.6191 55.769C17.0061 55.769 17.3286 55.4108 17.3286 54.9809V44.5922C17.3286 44.1623 17.0061 43.8041 16.6191 43.8041C16.2321 43.8041 15.9096 44.1623 15.9096 44.5922V54.9809C15.9096 55.4108 16.2321 55.769 16.6191 55.769ZM23.1981 55.769C23.5851 55.769 23.9076 55.4108 23.9076 54.9809V44.5922C23.9076 44.1623 23.5851 43.8041 23.1981 43.8041C22.8111 43.8041 22.4886 44.1623 22.4886 44.5922V54.9809C22.4886 55.4108 22.8111 55.769 23.1981 55.769ZM29.7771 55.769C30.1641 55.769 30.4866 55.4108 30.4866 54.9809V44.5922C30.4866 44.1623 30.1641 43.8041 29.7771 43.8041C29.3901 43.8041 29.0676 44.1623 29.0676 44.5922V54.9809C29.0676 55.4108 29.3901 55.769 29.7771 55.769ZM36.4205 55.769C36.8075 55.769 37.13 55.4108 37.13 54.9809V44.5922C37.13 44.1623 36.8075 43.8041 36.4205 43.8041C36.0335 43.8041 35.711 44.1623 35.711 44.5922V54.9809C35.711 55.4108 36.0335 55.769 36.4205 55.769Z" fill="#326CE5"/>
</svg>
