<svg width="90" height="90" viewBox="0 0 90 90" fill="none" xmlns="http://www.w3.org/2000/svg">
<g clip-path="url(#clip0_26953_26249)">
<path d="M21.3138 57.3499H16.5819V16.8452C16.5819 15.9934 15.9194 15.2363 14.9731 15.2363H9.10557C8.25383 15.2363 7.49673 15.8988 7.49673 16.8452V57.3499H2.76487C0.493578 57.3499 -0.736706 59.9051 0.588215 61.7032L9.86266 73.6275C10.9983 75.0471 13.0803 75.0471 14.1213 73.6275L23.3958 61.7032C24.91 59.9997 23.5851 57.3499 21.3138 57.3499Z" fill="#326CE5"/>
<path d="M52.4333 59.5279C52.1494 59.244 51.6762 59.0547 51.203 59.0547H32.1809C31.1399 59.0547 30.3828 59.9064 30.3828 60.8528V72.9664C30.3828 73.9127 31.2345 74.7645 32.1809 74.7645H51.2976C51.7708 74.7645 52.1494 74.5752 52.5279 74.2913L59.4364 68.2345C60.2882 67.4774 60.2882 66.2471 59.4364 65.49L52.4333 59.5279Z" fill="#326CE5"/>
<path d="M67.4806 37.6646C67.1967 37.3807 66.7235 37.1914 66.2503 37.1914H32.1809C31.1399 37.1914 30.3828 38.0431 30.3828 38.9895V51.1031C30.3828 52.0495 31.2345 52.9012 32.1809 52.9012H66.2503C66.7235 52.9012 67.1021 52.7119 67.4806 52.428L74.3891 46.3712C75.2409 45.6141 75.2409 44.3838 74.3891 43.6267L67.4806 37.6646Z" fill="#326CE5"/>
<path d="M89.4364 21.8609L82.4333 15.7095C82.1494 15.4256 81.6762 15.2363 81.203 15.2363H32.1809C31.1399 15.2363 30.3828 16.0881 30.3828 17.0344V29.148C30.3828 30.0944 31.2345 30.9461 32.1809 30.9461H81.2976C81.7708 30.9461 82.1494 30.7568 82.5279 30.4729L89.4364 24.4161C90.1935 23.8483 90.1935 22.5234 89.4364 21.8609Z" fill="#326CE5"/>
</g>
<defs>
<clipPath id="clip0_26953_26249">
<rect width="90" height="90" fill="white"/>
</clipPath>
</defs>
</svg>
