<svg width="72" height="84" viewBox="0 0 72 84" fill="none" xmlns="http://www.w3.org/2000/svg">
<path fill-rule="evenodd" clip-rule="evenodd" d="M35.6161 34.3387C55.0102 34.3387 70.7322 26.7637 70.7322 17.4194C70.7322 8.07506 55.0102 0.5 35.6161 0.5C16.222 0.5 0.5 8.07506 0.5 17.4194C0.5 26.7637 16.222 34.3387 35.6161 34.3387ZM35.4996 38C51.4422 38 65.0918 33.3495 70.7322 26.7561V51.5179C67.628 48.7101 63.5121 47 58.9968 47C49.3318 47 41.4968 54.8351 41.4968 64.5002C41.4968 72.2601 46.5474 78.8404 53.5407 81.1331C48.2936 82.6367 42.1641 83.5002 35.6161 83.5002C16.222 83.5002 0.5 75.9251 0.5 66.5808V66.5803V27.0222C6.27662 33.4742 19.7724 38 35.4996 38ZM71.4995 64.5C71.4995 71.4036 65.9031 77 58.9996 77C52.0961 77 46.4998 71.4036 46.4998 64.5C46.4998 57.5964 52.0961 52 58.9996 52C65.9031 52 71.4995 57.5964 71.4995 64.5ZM61.0311 61.6999C61.0311 61.1775 60.8579 60.7583 60.5117 60.4424C60.1654 60.1265 59.7067 59.9685 59.1357 59.9685C58.7834 59.9685 58.4644 60.0445 58.1789 60.1964C57.8934 60.3482 57.6474 60.57 57.4408 60.8616C57.2464 61.141 56.9821 61.302 56.648 61.3445C56.3139 61.3871 56.0253 61.299 55.7823 61.0803C55.6122 60.9223 55.5181 60.7279 55.4999 60.4971C55.4816 60.2662 55.5393 60.0475 55.673 59.841C56.0618 59.2578 56.5569 58.8052 57.1583 58.4832C57.7597 58.1612 58.4189 58.0002 59.1357 58.0002C60.3142 58.0002 61.271 58.3344 62.0061 59.0026C62.7412 59.6709 63.1087 60.5457 63.1087 61.627C63.1087 62.1738 62.9933 62.6658 62.7624 63.1032C62.5316 63.5406 62.1063 64.057 61.4867 64.6524C61.0372 65.0776 60.7334 65.4087 60.5755 65.6456C60.4175 65.8826 60.3142 66.1529 60.2656 66.4566C60.217 66.7482 60.0925 66.9912 59.892 67.1856C59.6916 67.38 59.4516 67.4772 59.1722 67.4772C58.8927 67.4772 58.6528 67.3831 58.4523 67.1948C58.2518 67.0064 58.1516 66.7725 58.1516 66.4931C58.1516 66.0192 58.2548 65.5849 58.4614 65.19C58.6679 64.7951 59.0142 64.379 59.5002 63.9416C60.1198 63.3948 60.5299 62.9726 60.7304 62.675C60.9308 62.3773 61.0311 62.0523 61.0311 61.6999ZM59.1357 71.8512C58.7348 71.8512 58.3915 71.7085 58.106 71.423C57.8205 71.1374 57.6777 70.7942 57.6777 70.3932C57.6777 69.9923 57.8205 69.6491 58.106 69.3635C58.3915 69.078 58.7348 68.9352 59.1357 68.9352C59.5367 68.9352 59.8799 69.078 60.1654 69.3635C60.4509 69.6491 60.5937 69.9923 60.5937 70.3932C60.5937 70.7942 60.4509 71.1374 60.1654 71.423C59.8799 71.7085 59.5367 71.8512 59.1357 71.8512Z" fill="#326CE5"/>
</svg>
