<svg width="82" height="80" viewBox="0 0 82 80" fill="none" xmlns="http://www.w3.org/2000/svg">
<path fill-rule="evenodd" clip-rule="evenodd" d="M16.7188 14.3958H20.4081V12.0493H18.5634H16.7188V14.3958ZM72.9995 52.7482V49.0588H77.9039V44.2146H79.7486H81.5933V50.7482C81.5933 51.8527 80.6978 52.7482 79.5933 52.7482H72.9995ZM18.5634 9.03382H16.7188V2.50025C16.7188 1.39568 17.6142 0.500244 18.7188 0.500244H26.9622V2.34494V4.18964H20.4081V9.03382H18.5634ZM30.7668 2.34494V0.500244H47.2537V2.34494V4.18964H30.7668V2.34494ZM51.0583 2.34494V0.500244H67.5452V2.34494V4.18964H51.0583V2.34494ZM71.3498 2.34494V0.500244H79.5933C80.6978 0.500244 81.5933 1.39567 81.5933 2.50024V9.03382H79.7486H77.9039V4.18964H71.3498V2.34494ZM79.7486 12.0493H81.5933V25.1165H79.7486H77.9039V12.0493H79.7486ZM79.7486 28.132H81.5933V41.1991H79.7486H77.9039V28.132H79.7486Z" fill="#326CE5"/>
<mask id="path-2-inside-1_26953_25615" fill="white">
<rect x="8.125" y="14.3958" width="64.8745" height="52.2479" rx="2"/>
</mask>
<rect x="8.125" y="14.3958" width="64.8745" height="52.2479" rx="2" stroke="#326CE5" stroke-width="7.37879" stroke-linejoin="round" stroke-dasharray="15.59 3.6" mask="url(#path-2-inside-1_26953_25615)"/>
<rect x="0.40625" y="27.1616" width="64.8745" height="52.2479" rx="3" fill="white"/>
<path fill-rule="evenodd" clip-rule="evenodd" d="M65.2808 29.252C65.2808 28.1474 64.3853 27.252 63.2808 27.252H2.40625C1.30168 27.252 0.40625 28.1474 0.40625 29.252V77.4999C0.40625 78.6044 1.30169 79.4999 2.40626 79.4999H63.2808C64.3853 79.4999 65.2808 78.6044 65.2808 77.4999V29.252ZM49.7499 56.7391L48.3507 56.0667C47.5321 55.6732 47.0974 54.778 47.1658 53.8724C47.2163 53.2026 47.2163 52.5304 47.1658 51.8607C47.0974 50.955 47.5321 50.0598 48.3507 49.6664L49.7499 48.9939C50.5855 48.5233 50.9082 47.5422 50.5772 46.6727C49.8409 44.7424 48.4344 42.9716 47.0941 41.4242C46.4818 40.7143 45.4145 40.5388 44.5872 41.0014L43.3725 41.6775C42.653 42.0779 41.7688 41.9852 41.0863 41.5246C40.4193 41.0745 39.71 40.6777 38.9659 40.34C38.1872 39.9865 37.6373 39.2383 37.6373 38.3831V37.1328C37.6373 36.1996 36.9341 35.4099 35.9826 35.2503C33.8728 34.9074 31.73 34.9233 29.6947 35.2583C28.7515 35.4179 28.0731 36.2155 28.0731 37.1328V38.3847C28.0731 39.243 27.5191 39.993 26.7375 40.3477C25.9957 40.6843 25.2885 41.0817 24.6235 41.5317C23.9416 41.9932 23.0574 42.0859 22.3379 41.6855L21.1232 41.0094C20.2876 40.5468 19.2286 40.7222 18.6163 41.4322C17.276 42.9796 15.8612 44.7504 15.1249 46.6807C14.7857 47.5502 15.158 48.5313 15.9936 48.9939L17.3744 49.6695C18.1856 50.0664 18.6142 50.9572 18.5455 51.8576C18.4941 52.5309 18.4938 53.2064 18.5447 53.8784C18.6131 54.7813 18.1825 55.6745 17.3682 56.0705L15.9936 56.7391C15.158 57.2098 14.7939 58.1909 15.1249 59.0603C15.8612 60.9827 17.276 62.7535 18.6163 64.3009C19.2286 65.0108 20.2959 65.1863 21.1232 64.7237L22.3394 64.0508C23.0583 63.653 23.9402 63.7467 24.6211 64.2064C25.2889 64.6574 25.9992 65.0548 26.7445 65.3931C27.5232 65.7465 28.0731 66.4948 28.0731 67.3499V68.6003C28.0731 69.5335 28.7763 70.3232 29.7278 70.4827C31.8375 70.8337 33.9721 70.8177 36.0074 70.4827C36.9506 70.3232 37.6373 69.5255 37.6373 68.6003V67.3564C37.6373 66.4981 38.1913 65.7481 38.9729 65.3934C39.7147 65.0567 40.4218 64.6594 41.0869 64.2093C41.7688 63.7478 42.653 63.6551 43.3725 64.0556L44.5872 64.7316C45.4228 65.1943 46.4818 65.0188 47.0941 64.3089C48.4344 62.7614 49.8823 60.9906 50.6186 59.0603C50.9496 58.1829 50.5855 57.2018 49.7499 56.7391ZM37.0166 57.2371C37.1588 57.1378 37.2905 57.0107 37.3946 56.872C41.9124 50.8513 34.9467 44.1373 28.7021 48.496C28.5599 48.5952 28.4282 48.7224 28.3241 48.8611C23.8063 54.8817 30.7719 61.5958 37.0166 57.2371Z" fill="#326CE5"/>
</svg>
