<svg width="82" height="82" viewBox="0 0 82 82" fill="none" xmlns="http://www.w3.org/2000/svg">
<path fill-rule="evenodd" clip-rule="evenodd" d="M0 2C0 0.895429 0.89543 0 2 0H80C81.1046 0 82 0.89543 82 2V80C82 81.1046 81.1046 82 80 82H2C0.895429 82 0 81.1046 0 80V2ZM15.8201 17C14.2626 17 13 18.2626 13 19.8201V56.3345C13 57.892 14.2626 59.1547 15.8201 59.1547H34.0033C32.0523 56.0111 30.9248 52.2957 30.9248 48.315C30.9248 37.0069 40.0241 27.8398 51.2486 27.8398C52.4752 27.8398 53.6765 27.9493 54.8432 28.1591V19.8201C54.8432 18.2626 53.5806 17 52.0231 17H15.8201ZM51.2812 31.4531C51.2704 31.4531 51.2595 31.4531 51.2486 31.4531C42.0049 31.4531 34.5113 39.0024 34.5113 48.315C34.5113 52.4425 35.9834 56.2237 38.4275 59.1547H38.4452C41.5155 62.8366 46.1196 65.1768 51.2663 65.1768C60.5101 65.1768 68.0036 57.6275 68.0036 48.315C68.0036 39.0074 60.5181 31.4612 51.2812 31.4531Z" fill="#326CE5"/>
</svg>
