<svg width="82" height="82" viewBox="0 0 82 82" fill="none" xmlns="http://www.w3.org/2000/svg">
<mask id="path-1-inside-1_26953_26314" fill="white">
<rect width="82" height="82" rx="2"/>
</mask>
<rect width="82" height="82" rx="2" fill="white" stroke="#326CE5" stroke-width="6.48576" stroke-dasharray="16 4" mask="url(#path-1-inside-1_26953_26314)"/>
<mask id="path-2-inside-2_26953_26314" fill="white">
<path d="M14 20C14 18.8954 14.8954 18 16 18H53.8438C54.9483 18 55.8438 18.8954 55.8438 20V56.1003C55.8438 57.2048 54.9483 58.1003 53.8438 58.1003H16C14.8954 58.1003 14 57.2048 14 56.1003V20Z"/>
</mask>
<path d="M14 20C14 18.8954 14.8954 18 16 18H53.8438C54.9483 18 55.8438 18.8954 55.8438 20V56.1003C55.8438 57.2048 54.9483 58.1003 53.8438 58.1003H16C14.8954 58.1003 14 57.2048 14 56.1003V20Z" fill="white"/>
<path d="M16 56.4788C15.7909 56.4788 15.6214 56.3093 15.6214 56.1003H12.3786C12.3786 58.1003 13.9999 59.7217 16 59.7217V56.4788ZM15.6214 56.1003V48.8802H12.3786V56.1003H15.6214ZM15.6214 45.2702V30.8301H12.3786V45.2702H15.6214ZM15.6214 27.2201V20H12.3786V27.2201H15.6214ZM15.6214 20C15.6214 19.7909 15.7909 19.6214 16 19.6214V16.3786C13.9999 16.3786 12.3786 17.9999 12.3786 20H15.6214ZM16 19.6214H23.5688V16.3786H16V19.6214ZM27.3531 19.6214H42.4906V16.3786H27.3531V19.6214ZM46.275 19.6214H53.8438V16.3786H46.275V19.6214ZM53.8438 19.6214C54.0528 19.6214 54.2223 19.7909 54.2223 20H57.4652C57.4652 17.9999 55.8438 16.3786 53.8438 16.3786V19.6214ZM54.2223 20V27.2201H57.4652V20H54.2223ZM54.2223 30.8301V45.2702H57.4652V30.8301H54.2223ZM54.2223 48.8802V56.1003H57.4652V48.8802H54.2223ZM54.2223 56.1003C54.2223 56.3093 54.0528 56.4788 53.8438 56.4788V59.7217C55.8438 59.7217 57.4652 58.1003 57.4652 56.1003H54.2223ZM53.8438 56.4788H46.275V59.7217H53.8438V56.4788ZM42.4906 56.4788H27.3531V59.7217H42.4906V56.4788ZM23.5688 56.4788H16V59.7217H23.5688V56.4788ZM16 54.8574C16.6864 54.8574 17.2429 55.4138 17.2429 56.1003H10.7571C10.7571 58.9958 13.1044 61.3431 16 61.3431V54.8574ZM17.2429 56.1003V48.8802H10.7571V56.1003H17.2429ZM17.2429 45.2702V30.8301H10.7571V45.2702H17.2429ZM17.2429 27.2201V20H10.7571V27.2201H17.2429ZM17.2429 20C17.2429 20.6864 16.6864 21.2429 16 21.2429V14.7571C13.1044 14.7571 10.7571 17.1044 10.7571 20H17.2429ZM16 21.2429H23.5688V14.7571H16V21.2429ZM27.3531 21.2429H42.4906V14.7571H27.3531V21.2429ZM46.275 21.2429H53.8438V14.7571H46.275V21.2429ZM53.8438 21.2429C53.1573 21.2429 52.6009 20.6864 52.6009 20H59.0866C59.0866 17.1044 56.7393 14.7571 53.8438 14.7571V21.2429ZM52.6009 20V27.2201H59.0866V20H52.6009ZM52.6009 30.8301V45.2702H59.0866V30.8301H52.6009ZM52.6009 48.8802V56.1003H59.0866V48.8802H52.6009ZM52.6009 56.1003C52.6009 55.4138 53.1573 54.8574 53.8438 54.8574V61.3431C56.7393 61.3431 59.0866 58.9958 59.0866 56.1003H52.6009ZM53.8438 54.8574H46.275V61.3431H53.8438V54.8574ZM42.4906 54.8574H27.3531V61.3431H42.4906V54.8574ZM23.5688 54.8574H16V61.3431H23.5688V54.8574Z" fill="#326CE5" mask="url(#path-2-inside-2_26953_26314)"/>
<path d="M70.6199 47.7891C70.6199 43.8287 69.2633 40.1744 66.983 37.2349L65.7019 38.2288C64.6553 36.8797 63.3928 35.6936 61.9635 34.7175L62.8779 33.3785C59.8763 31.3287 56.2098 30.1276 52.2609 30.1276C48.3121 30.1276 44.6455 31.3287 41.644 33.3785L42.5584 34.7175C41.129 35.6936 39.8666 36.8797 38.82 38.2288L37.5389 37.2349C35.2586 40.1744 33.902 43.8287 33.902 47.7891C33.902 51.7496 35.2586 55.4038 37.5389 58.3433L38.82 57.3495C39.8666 58.6985 41.129 59.8846 42.5584 60.8608L41.644 62.1998C44.6455 64.2496 48.3121 65.4507 52.2609 65.4507C56.2098 65.4507 59.8763 64.2496 62.8779 62.1998L61.9635 60.8608C63.3929 59.8846 64.6553 58.6985 65.7019 57.3495L66.983 58.3433C69.2633 55.4038 70.6199 51.7496 70.6199 47.7891Z" fill="white" stroke="#326CE5" stroke-width="3.24288" stroke-dasharray="16 4"/>
</svg>
