<svg width="88" height="74" viewBox="0 0 88 74" fill="none" xmlns="http://www.w3.org/2000/svg">
<path fill-rule="evenodd" clip-rule="evenodd" d="M74.2643 73.796C74.5375 74.0694 74.9812 74.0698 75.25 73.792C81.0657 67.7836 85.0312 60.2216 86.6641 52.0088C88.3426 43.567 87.4811 34.8168 84.1887 26.8648C82.1481 21.9361 79.2303 17.4512 75.6034 13.6148L64.5481 24.5673C66.7655 26.9737 68.5552 29.7636 69.8203 32.819C71.9356 37.928 72.489 43.5497 71.4107 48.9734C70.3778 54.1681 67.8924 58.9576 64.2502 62.7884C63.9841 63.0684 63.9833 63.5107 64.2564 63.7839L74.2643 73.796ZM62.6262 22.6738L73.6901 11.7127C71.978 10.1131 70.1321 8.64767 68.1673 7.33423C61.0138 2.55233 52.6035 0 44 0C35.3965 0 26.9862 2.55233 19.8327 7.33423C17.8881 8.63413 16.0601 10.0829 14.3629 11.6633L25.428 22.6255C26.384 21.7749 27.401 20.9878 28.4731 20.2711C33.0691 17.1988 38.4725 15.559 44 15.559C49.5275 15.559 54.9309 17.1988 59.5269 20.2711C60.6193 21.0013 61.6544 21.8047 62.6262 22.6738ZM3.81126 26.8648C5.86125 21.9136 8.79635 17.4102 12.4464 13.5622L23.501 24.5141C21.2609 26.9325 19.4541 29.741 18.1797 32.819C16.0644 37.928 15.511 43.5497 16.5893 48.9734C17.6222 54.1681 20.1076 58.9576 23.7498 62.7884C24.0159 63.0684 24.0167 63.5107 23.7436 63.7839L13.7357 73.796C13.4625 74.0694 13.0188 74.0698 12.75 73.792C6.93427 67.7836 2.96877 60.2216 1.33586 52.0088C-0.342597 43.567 0.518848 34.8168 3.81126 26.8648ZM54.8768 47.9054C54.8768 54.011 49.9293 58.9606 43.8264 58.9606C37.7234 58.9606 32.776 54.011 32.776 47.9054C32.776 41.7998 37.7234 36.8502 43.8264 36.8502C44.8057 36.8502 45.7553 36.9777 46.6595 37.2169L60.4671 26.2484C61.0403 25.7931 61.8391 26.4127 61.5411 27.0815L54.09 43.8008C54.5976 45.0698 54.8768 46.455 54.8768 47.9054Z" fill="#326CE5"/>
</svg>
