<svg width="80" height="80" viewBox="0 0 80 80" fill="none" xmlns="http://www.w3.org/2000/svg">
<mask id="path-1-inside-1_26953_26272" fill="white">
<rect x="19.1309" width="60.8704" height="60.2183" rx="2"/>
</mask>
<rect x="19.1309" width="60.8704" height="60.2183" rx="2" stroke="#326CE5" stroke-width="6.21223" stroke-dasharray="16 4" mask="url(#path-1-inside-1_26953_26272)"/>
<mask id="path-2-inside-2_26953_26272" fill="white">
<rect x="9.11523" y="9.85742" width="60.8704" height="60.2183" rx="2"/>
</mask>
<rect x="9.11523" y="9.85742" width="60.8704" height="60.2183" rx="2" fill="white" stroke="#326CE5" stroke-width="6.21223" stroke-dasharray="16 4" mask="url(#path-2-inside-2_26953_26272)"/>
<path fill-rule="evenodd" clip-rule="evenodd" d="M-0.00195312 21.7822C-0.00195312 20.6777 0.893477 19.7822 1.99805 19.7822H58.8685C59.973 19.7822 60.8685 20.6777 60.8685 21.7822V78.0005C60.8685 79.1051 59.973 80.0005 58.8685 80.0005H1.99804C0.893475 80.0005 -0.00195312 79.1051 -0.00195312 78.0005V21.7822ZM15.0419 34.6595C13.6456 34.6595 12.5137 35.7915 12.5137 37.1878V59.8847C12.5137 61.281 13.6456 62.413 15.0419 62.413H27.2143C25.8494 60.3433 25.0605 57.8972 25.0605 55.2765C25.0605 47.8316 31.4265 41.7962 39.2793 41.7962C40.1352 41.7962 40.9734 41.8679 41.7876 42.0053V37.1878C41.7876 35.7915 40.6557 34.6595 39.2593 34.6595H15.0419ZM30.3156 62.413C28.6059 60.4833 27.5762 57.9941 27.5762 55.2769C27.5762 49.1458 32.8187 44.1755 39.2857 44.1755C45.7528 44.1755 50.9953 49.1458 50.9953 55.2769C50.9953 61.408 45.7528 66.3782 39.2857 66.3782C35.6848 66.3782 32.4636 64.8373 30.3156 62.413Z" fill="#326CE5"/>
</svg>
