<svg width="64" height="82" viewBox="0 0 64 82" fill="none" xmlns="http://www.w3.org/2000/svg">
<path fill-rule="evenodd" clip-rule="evenodd" d="M32.0081 40.8831C43.1488 40.8831 52.1801 31.8518 52.1801 20.7111C52.1801 9.57039 43.1488 0.539062 32.0081 0.539062C20.8674 0.539062 11.8361 9.57039 11.8361 20.7111C11.8361 31.8518 20.8674 40.8831 32.0081 40.8831ZM17.3872 41.9442C17.7929 41.8851 18.203 41.9906 18.5499 42.2092C22.1824 44.498 26.8427 45.8733 31.9246 45.8733C37.0356 45.8733 41.7202 44.4822 45.3616 42.1697C45.701 41.9542 46.1018 41.847 46.5006 41.8982C56.2512 43.1502 63.7862 51.4814 63.7862 61.5725V69.3866C63.7862 76.0552 58.3802 81.4612 51.7115 81.4612H12.5121C5.8435 81.4612 0.4375 76.0552 0.4375 69.3866V61.5725C0.4375 51.5976 7.8 43.3422 17.3872 41.9442Z" fill="#326CE5"/>
</svg>
