<svg width="82" height="81" viewBox="0 0 82 81" fill="none" xmlns="http://www.w3.org/2000/svg">
<path fill-rule="evenodd" clip-rule="evenodd" d="M70.0169 20.172C70.0169 31.3128 60.9856 40.3441 49.8449 40.3441C38.7042 40.3441 29.6729 31.3128 29.6729 20.172C29.6729 9.03133 38.7042 0 49.8449 0C60.9856 0 70.0169 9.03133 70.0169 20.172ZM36.3866 41.6717C36.0397 41.4531 35.6296 41.3475 35.2239 41.4067C25.6367 42.8047 18.2742 51.06 18.2742 61.035V68.8491C18.2742 75.5177 23.6802 80.9237 30.3488 80.9237H69.5482C76.2168 80.9237 81.6228 75.5177 81.6228 68.8491V61.035C81.6228 50.9439 74.0878 42.6126 64.3373 41.3607C63.9385 41.3095 63.5377 41.4166 63.1983 41.6322C59.5568 43.9446 54.8723 45.3358 49.7612 45.3358C44.6793 45.3358 40.0191 43.9605 36.3866 41.6717ZM24.2742 31.8881H15.3867V23H9.4617V31.8881H0.574219V37.8135H9.4617V46.7017H15.3867V37.8135H24.2742V31.8881Z" fill="#326CE5"/>
</svg>
