<svg width="150" height="150" viewBox="0 0 150 150" fill="none" xmlns="http://www.w3.org/2000/svg">
<path d="M134.582 32.0603C134.569 29.682 133.435 27.9254 131.283 26.9307C129.725 26.2122 128.127 25.5836 126.538 24.9116L105.796 16.2599C96.4104 12.3501 87.0265 8.43624 77.6456 4.52144C75.9502 3.80894 74.3081 3.73098 72.587 4.46914C68.4413 6.24249 64.266 7.95269 60.1054 9.68953L40.5521 17.8408C33.4828 20.7908 26.4141 23.7421 19.3459 26.6948C16.8067 27.7537 15.5367 29.6109 15.5327 32.3672C15.5327 38.8073 15.5554 45.2464 15.5327 51.6895C15.4903 59.7145 15.4933 67.7346 16.9676 75.6737C17.7052 79.756 18.702 83.7872 19.9518 87.7428C24.0314 100.54 30.8379 112.301 39.9018 122.213C48.9475 132.106 60.0395 139.909 72.4064 145.081C73.936 145.728 75.4795 145.993 77.0653 145.339C85.089 142.068 92.6081 137.675 99.3975 132.292C106.789 126.434 113.245 119.483 118.54 111.679C126.019 100.681 131.036 88.1994 133.25 75.0856C133.965 71.0639 134.386 66.9956 134.51 62.9129C134.619 57.9905 134.536 53.0612 134.536 48.1359H134.581C134.581 42.7774 134.61 37.4198 134.581 32.0612L134.582 32.0603Z" fill="white" stroke="white" stroke-width="7.89474" stroke-miterlimit="10"/>
<path d="M96.4697 60.5278H92.9743V53.538C92.9743 43.8916 85.1456 36.063 75.4993 36.063C65.8529 36.063 58.0243 43.8916 58.0243 53.538V60.5278H54.5289C50.6841 60.5278 47.5391 63.6738 47.5391 67.5186V102.469C47.5391 106.313 50.6841 109.459 54.5289 109.459H96.4697C100.314 109.459 103.459 106.313 103.459 102.469V67.5186C103.459 63.6738 100.314 60.5278 96.4697 60.5278ZM75.4993 91.9834C71.6545 91.9834 68.5095 88.8383 68.5095 84.9936C68.5095 81.1488 71.6545 78.0038 75.4993 78.0038C79.344 78.0038 82.4891 81.1488 82.4891 84.9936C82.4891 88.8383 79.344 91.9834 75.4993 91.9834ZM86.3348 60.5278H64.6637V53.538C64.6637 47.5617 69.5229 42.7025 75.4993 42.7025C81.4756 42.7025 86.3348 47.5617 86.3348 53.538V60.5278Z" fill="#326CE5"/>
</svg>
