<svg width="90" height="68" viewBox="0 0 90 68" fill="none" xmlns="http://www.w3.org/2000/svg">
<path fill-rule="evenodd" clip-rule="evenodd" d="M16.5859 20.4898H64.984V16.3418H16.5859V20.4898ZM45.8884 48.0497C46.0385 49.4845 46.3447 50.8729 46.7896 52.1977H16.5859V48.0497H45.8884ZM48.3466 36.3437C49.2205 34.8196 50.2948 33.425 51.5337 32.1957H16.5859V36.3437H48.3466Z" fill="#326CE5"/>
<path fill-rule="evenodd" clip-rule="evenodd" d="M65.4149 59.4348C72.9176 59.4348 78.9997 53.3559 78.9997 45.8571C78.9997 38.3583 72.9176 32.2793 65.4149 32.2793C57.9122 32.2793 51.8301 38.3583 51.8301 45.8571C51.8301 53.3559 57.9122 59.4348 65.4149 59.4348ZM64.9023 50.9184L72.3122 43.5085L70.337 41.5333L63.9936 47.8768L61.2702 44.6994L59.1494 46.5173L62.8543 50.8397C63.1075 51.1351 63.4724 51.3115 63.8611 51.3264C64.2499 51.3414 64.6272 51.1935 64.9023 50.9184Z" fill="#326CE5"/>
<rect x="1.38266" y="1.88266" width="87.2347" height="64.2347" fill="#326CE5" fill-opacity="0.1" stroke="#326CE5" stroke-width="2.76532" stroke-dasharray="5.53 5.53"/>
</svg>
