<svg width="70" height="82" viewBox="0 0 70 82" fill="none" xmlns="http://www.w3.org/2000/svg">
<path fill-rule="evenodd" clip-rule="evenodd" d="M32.0823 41.0081C43.223 41.0081 52.2543 31.9768 52.2543 20.8361C52.2543 9.69539 43.223 0.664062 32.0823 0.664062C20.9416 0.664062 11.9103 9.69539 11.9103 20.8361C11.9103 31.9768 20.9416 41.0081 32.0823 41.0081ZM17.4614 42.0692C17.8672 42.0101 18.2773 42.1156 18.6242 42.3342C22.2566 44.623 26.9169 45.9983 31.9988 45.9983C37.1098 45.9983 41.7944 44.6072 45.4358 42.2947C45.7752 42.0792 46.176 41.972 46.5748 42.0232C52.3169 42.7605 57.2906 45.9528 60.4096 50.5139C59.5706 50.3849 58.711 50.318 57.8359 50.318C48.5641 50.318 41.0478 57.8303 41.0478 67.0973C41.0478 73.2756 44.3887 78.674 49.3633 81.5862H12.5864C5.91772 81.5862 0.511719 76.1802 0.511719 69.5116V61.6975C0.511719 51.7226 7.87422 43.4672 17.4614 42.0692ZM57.9392 78.9135C64.41 78.9135 69.6557 73.6705 69.6557 67.203C69.6557 60.7355 64.41 55.4925 57.9392 55.4925C51.4683 55.4925 46.2226 60.7355 46.2226 67.203C46.2226 73.6705 51.4683 78.9135 57.9392 78.9135ZM57.4972 71.5682L63.888 65.1773L62.1845 63.4738L56.7135 68.9448L54.3646 66.2045L52.5354 67.7723L55.7309 71.5003C55.9492 71.7551 56.2639 71.9072 56.5992 71.9201C56.9345 71.933 57.2599 71.8054 57.4972 71.5682Z" fill="#326CE5"/>
</svg>
