<svg width="80" height="82" viewBox="0 0 80 82" fill="none" xmlns="http://www.w3.org/2000/svg">
<path fill-rule="evenodd" clip-rule="evenodd" d="M27.262 16.4723C25.653 8.42146 31.8064 0.910156 40.0108 0.910156C48.2152 0.910156 54.3686 8.42145 52.7596 16.4723L52.705 16.7455C52.4679 17.9315 51.9877 19.0554 51.2946 20.0462L41.6081 33.894V48.8149H67.0114C69.0036 48.8149 70.6186 50.4299 70.6186 52.4222V65.0888H77.9991C79.1036 65.0888 79.9991 65.9843 79.9991 67.0888V79.0888C79.9991 80.1934 79.1036 81.0888 77.9991 81.0888H60.0214C58.9168 81.0888 58.0214 80.1934 58.0214 79.0888V67.0888C58.0214 65.9843 58.9168 65.0888 60.0214 65.0888H67.4041V52.4222C67.4041 52.2053 67.2283 52.0294 67.0114 52.0294H41.6081V65.0888H48.9884C50.0929 65.0888 50.9884 65.9843 50.9884 67.0888V79.0888C50.9884 80.1934 50.0929 81.0888 48.9884 81.0888H31.0107C29.9061 81.0888 29.0107 80.1934 29.0107 79.0888V67.0888C29.0107 65.9843 29.9061 65.0888 31.0107 65.0888H38.3936V52.0294H12.5508C12.3338 52.0294 12.158 52.2053 12.158 52.4222V65.0888H19.9777C21.0822 65.0888 21.9777 65.9843 21.9777 67.0888V79.0888C21.9777 80.1934 21.0822 81.0888 19.9777 81.0888H2C0.895432 81.0888 0 80.1934 0 79.0888V67.0888C0 65.9843 0.895431 65.0888 2 65.0888H8.9435V52.4222C8.9435 50.4299 10.5585 48.8149 12.5508 48.8149H38.3936V33.8656L28.727 20.0462C28.0339 19.0554 27.5537 17.9315 27.3166 16.7455L27.262 16.4723ZM45.7994 13.1662C45.7994 16.4126 43.1695 19.0444 39.9255 19.0444C36.6814 19.0444 34.0515 16.4126 34.0515 13.1662C34.0515 9.91982 36.6814 7.28809 39.9255 7.28809C43.1695 7.28809 45.7994 9.91982 45.7994 13.1662Z" fill="#326CE5"/>
</svg>
