<svg width="80" height="80" viewBox="0 0 80 80" fill="none" xmlns="http://www.w3.org/2000/svg">
<mask id="path-1-inside-1_26953_25654" fill="white">
<rect x="16.6113" width="63.3861" height="51.4253" rx="2.02612"/>
</mask>
<rect x="16.6113" width="63.3861" height="51.4253" rx="2.02612" stroke="#326CE5" stroke-width="7.50199" stroke-linejoin="round" stroke-dasharray="15.85 3.66" mask="url(#path-1-inside-1_26953_25654)"/>
<mask id="path-2-inside-2_26953_25654" fill="white">
<rect x="7.29883" y="13.5361" width="63.3861" height="51.4253" rx="2.02612"/>
</mask>
<rect x="7.29883" y="13.5361" width="63.3861" height="51.4253" rx="2.02612" fill="white" stroke="#326CE5" stroke-width="7.50199" stroke-linejoin="round" stroke-dasharray="15.85 3.66" mask="url(#path-2-inside-2_26953_25654)"/>
<rect x="0.00195312" y="26.6851" width="63.6514" height="53.3148" rx="2.014" fill="white"/>
<path fill-rule="evenodd" clip-rule="evenodd" d="M2.01596 26.6851C0.903653 26.6851 0.00195312 27.5868 0.00195312 28.6991V77.9859C0.00195312 79.0982 0.903655 79.9999 2.01596 79.9999H61.6393C62.7516 79.9999 63.6533 79.0982 63.6533 77.9859V28.6991C63.6533 27.5868 62.7516 26.6851 61.6393 26.6851H2.01596ZM16.9515 45.3157C17.2839 45.6278 17.6888 45.941 18.1729 46.25C18.2517 46.3003 18.3325 46.3504 18.4155 46.4004C18.8473 46.6608 19.3367 46.9175 19.8875 47.1674C19.959 47.1999 20.0316 47.2322 20.1053 47.2644C23.1371 48.591 27.446 49.4548 32.2985 49.4548C37.151 49.4548 41.4599 48.591 44.4917 47.2644C44.5701 47.2301 44.6473 47.1957 44.7233 47.1611C45.2724 46.9115 45.7602 46.655 46.1907 46.3949C46.2753 46.3438 46.3577 46.2925 46.4379 46.2412C46.92 45.9324 47.3231 45.6195 47.6539 45.3078C47.8551 45.1183 48.0294 44.9292 48.1785 44.7417C48.6097 44.1995 48.8292 43.671 48.8725 43.1851C48.8746 43.1614 48.8763 43.1377 48.8776 43.1142C48.8795 43.0778 48.8805 43.0418 48.8805 43.006C48.8805 42.0678 48.2097 40.9492 46.5952 39.8735C46.0186 39.4893 45.3216 39.1106 44.4917 38.7475C41.4599 37.4209 37.151 36.5571 32.2985 36.5571C27.446 36.5571 23.1371 37.4209 20.1053 38.7475C18.1214 39.6155 16.8966 40.573 16.2611 41.4808C15.8864 42.0159 15.7165 42.5338 15.7165 43.006C15.7165 43.0503 15.718 43.095 15.721 43.14C15.723 43.1691 15.7256 43.1984 15.7288 43.2278C15.7808 43.7019 15.9999 44.2154 16.4185 44.7417C16.5697 44.9318 16.7468 45.1236 16.9515 45.3157ZM14.002 43.006C14.002 43.0801 14.0043 43.1541 14.0088 43.2278V63.5992C14.0088 65.8099 16.0568 67.8113 19.3678 69.26C22.6788 70.7087 27.2529 71.6047 32.3054 71.6047C37.3579 71.6047 41.932 70.7087 45.243 69.26C48.554 67.8113 50.602 65.8097 50.602 63.5991V43.1851H50.5979C50.5712 43.7185 50.4253 44.239 50.1713 44.7417C49.88 45.3186 49.4463 45.8722 48.8874 46.3949V63.5992C48.8874 64.8724 47.6518 66.4781 44.4986 67.8577C41.4668 69.1843 37.1579 70.0481 32.3054 70.0481C27.4529 70.0481 23.144 69.1843 20.1122 67.8577C16.959 66.4781 15.7234 64.8723 15.7234 63.5991V46.4004C16.3778 47.0111 17.2033 47.5797 18.1729 48.0944C18.5479 48.2934 18.9444 48.4844 19.3609 48.6667C19.533 48.742 19.7086 48.8158 19.8875 48.8881C23.1488 50.2061 27.5087 51.0114 32.2985 51.0114C37.095 51.0114 41.4605 50.2039 44.7233 48.8825C44.8974 48.812 45.0684 48.7401 45.2361 48.6667C45.6577 48.4822 46.0589 48.2888 46.4379 48.0871C47.4045 47.5728 48.2273 47.0048 48.8796 46.3949L48.8834 46.3913C49.4406 45.8696 49.873 45.3173 50.1638 44.7417C50.4178 44.239 50.5638 43.7182 50.5906 43.1848C50.5936 43.1254 50.5951 43.0657 50.5951 43.006C50.5951 41.7107 49.892 40.4872 48.6437 39.4047C47.7616 38.6397 46.6071 37.9451 45.2361 37.3452C41.9251 35.8965 37.351 35.0005 32.2985 35.0005C27.2461 35.0005 22.6719 35.8965 19.3609 37.3452C17.4491 38.1817 15.9584 39.2024 15.04 40.3413C14.3677 41.1749 14.002 42.0717 14.002 43.006Z" fill="#326CE5"/>
</svg>
