<svg width="74" height="88" viewBox="0 0 74 88" fill="none" xmlns="http://www.w3.org/2000/svg">
<path fill-rule="evenodd" clip-rule="evenodd" d="M74 17.7347C74 27.5293 57.4345 35.4694 37 35.4694C16.5655 35.4694 0 27.5293 0 17.7347C0 7.9401 16.5655 0 37 0C57.4345 0 74 7.9401 74 17.7347ZM0 25.3564V70.2642V70.2657C0 80.0603 16.5655 88.0004 37 88.0004C57.4345 88.0004 74 80.0603 74 70.2657V70.2642V25.3161C70.2658 33.2737 55.114 39.229 36.9905 39.229C18.8976 39.229 3.76645 33.2938 0 25.3564ZM25.522 51.3814C25.5806 50.9317 25.9345 50.5778 26.3842 50.5191L36.8429 49.1549C37.1507 49.1148 37.4598 49.2199 37.6793 49.4394L53.6795 65.4395C54.07 65.83 54.07 66.4632 53.6795 66.8537L41.8566 78.6764C41.4661 79.067 40.8329 79.067 40.4424 78.6764L24.4423 62.6764C24.2228 62.4569 24.1176 62.1478 24.1578 61.84L25.522 51.3814ZM34.7026 54.2674C36.1085 55.6733 36.1085 57.9527 34.7026 59.3585C33.2967 60.7644 31.0173 60.7644 29.6114 59.3585C28.2055 57.9527 28.2055 55.6733 29.6114 54.2674C31.0173 52.8615 33.2967 52.8615 34.7026 54.2674Z" fill="#326CE5"/>
</svg>
