<svg width="82" height="80" viewBox="0 0 82 80" fill="none" xmlns="http://www.w3.org/2000/svg">
<g clip-path="url(#clip0_26953_25880)">
<path d="M81.496 47.6004H81.5V70.426C81.5 71.0379 81.221 71.6538 80.6752 72.2537C80.1456 72.8374 79.3491 73.409 78.3181 73.9565C76.2763 75.0354 73.3571 76.0096 69.6375 76.8429C61.9879 78.5539 51.8194 79.4999 41 79.4999C30.1806 79.4999 20.0121 78.5539 12.3625 76.8429C8.64286 76.0056 5.72372 75.0354 3.68194 73.9565C2.65094 73.409 1.85445 72.8374 1.3248 72.2537C0.774933 71.6538 0.5 71.0379 0.5 70.426V47.6004H0.504043C0.5 47.5641 0.5 47.5239 0.5 47.4877C0.5 46.8959 0.754717 46.3202 1.23181 45.7647C2.02022 44.8468 3.42318 43.9773 5.34771 43.1802V44.251C5.34771 45.6077 5.88544 46.916 6.90431 48.0311C7.60782 48.8 8.52561 49.4804 9.71833 50.1124C12.1887 51.4207 14.4286 52.0407 17.5054 52.7331C23.8491 54.1542 32.2305 54.9352 41.1011 54.9352C49.9717 54.9352 58.3531 54.1542 64.6968 52.7331C67.9636 52.0004 70.5836 51.1188 72.4838 50.1124C73.6765 49.4804 74.5984 48.8 75.2978 48.0311C76.3167 46.916 76.8585 45.6117 76.8585 44.251V43.2647C78.6739 44.0376 80.0081 44.879 80.7682 45.7647C81.2453 46.3202 81.5 46.8959 81.5 47.4877C81.5 47.5239 81.5 47.5641 81.496 47.6004Z" fill="#326CE5"/>
<path d="M73.3874 24.7902H73.3954V42.6401C73.3954 43.1353 73.1771 43.6224 72.7405 44.1014C72.3159 44.5644 71.6852 45.0233 70.8604 45.4581C69.2351 46.3196 66.9062 47.0925 63.9386 47.7567C57.8375 49.1255 49.727 49.8783 41.103 49.8783C32.479 49.8783 24.3685 49.1255 18.2674 47.7608C15.3038 47.0925 12.975 46.3196 11.3496 45.4581C10.5248 45.0233 9.89006 44.5644 9.46553 44.1014C9.02888 43.6224 8.81055 43.1312 8.81055 42.6401V24.7902H8.81863C8.81055 24.754 8.81055 24.7137 8.81055 24.6775C8.81055 24.0817 9.13804 23.502 9.74855 22.9465C10.6825 22.097 12.2755 21.304 14.4143 20.6035C14.568 21.5496 15.0087 22.4433 15.7203 23.2242C16.3065 23.8603 17.0545 24.4199 18.0167 24.9271C19.4642 25.696 21.4332 26.3602 23.8793 26.9077C28.5248 27.9504 34.6461 28.522 41.1232 28.522C47.6003 28.522 53.7216 27.9504 58.3671 26.9077C60.8092 26.3602 62.7822 25.696 64.2297 24.9271C65.1879 24.4199 65.9399 23.8643 66.5221 23.2242C67.2297 22.4473 67.6704 21.5576 67.8281 20.6156C68.8833 20.9618 69.7971 21.3322 70.5733 21.7186C72.3847 22.6244 73.3954 23.6228 73.3954 24.6775C73.3954 24.7137 73.3955 24.754 73.3874 24.7902Z" fill="#326CE5"/>
<path d="M17.8657 4.47361H17.8698C17.8657 4.45343 17.8536 4.43326 17.8496 4.41309C17.8536 4.43326 17.8577 4.45343 17.8617 4.47361H17.8657Z" fill="#326CE5"/>
<path d="M64.3792 4.47361C64.3872 4.45343 64.3872 4.43326 64.3913 4.41309C64.3872 4.43326 64.3792 4.45343 64.3711 4.46957H64.3751L64.3792 4.47361Z" fill="#326CE5"/>
<path d="M64.4239 5.83806H64.432V18.2412C64.432 18.5954 64.2703 18.9497 63.9549 19.2959C63.6517 19.63 63.1907 19.9602 62.5964 20.2782C61.4239 20.8981 59.742 21.4577 57.6031 21.9368C53.2002 22.9231 47.3457 23.4665 41.1193 23.4665C34.8929 23.4665 29.0384 22.9231 24.6355 21.9368C22.4926 21.4577 20.8107 20.8981 19.6382 20.2782C19.0438 19.9602 18.587 19.63 18.2797 19.2959C17.9643 18.9497 17.8066 18.5954 17.8066 18.2412V5.83806C17.8066 5.7978 17.8066 5.76157 17.8066 5.72131C17.8066 5.11746 18.2676 4.53776 19.1085 3.99832C22.2905 1.96132 30.9387 0.5 41.1193 0.5C51.2999 0.5 59.9481 1.96132 63.126 3.99832C63.5465 4.26804 63.874 4.54984 64.0964 4.83566C64.3147 5.12148 64.432 5.41938 64.432 5.72131C64.432 5.76157 64.432 5.7978 64.4239 5.83806Z" fill="#326CE5"/>
</g>
<defs>
<clipPath id="clip0_26953_25880">
<rect width="81" height="79" fill="white" transform="translate(0.5 0.5)"/>
</clipPath>
</defs>
</svg>
