<svg width="74" height="82" viewBox="0 0 74 82" fill="none" xmlns="http://www.w3.org/2000/svg">
<path fill-rule="evenodd" clip-rule="evenodd" d="M51.3608 20.8144C51.3608 32.1362 42.3153 41.3143 31.157 41.3143C19.9988 41.3143 10.9533 32.1362 10.9533 20.8144C10.9533 9.49259 19.9988 0.314453 31.157 0.314453C42.3153 0.314453 51.3608 9.49259 51.3608 20.8144ZM34.354 21.6914C36.2657 20.6559 37.5666 18.6125 37.5666 16.2609C37.5666 12.863 34.8503 10.1083 31.4997 10.1083C28.149 10.1083 25.4328 12.863 25.4328 16.2609C25.4328 18.612 26.7331 20.655 28.6441 21.6908L26.9906 28.3984C26.7122 29.5277 27.5669 30.6187 28.73 30.6187H34.268C35.4311 30.6187 36.2858 29.5277 36.0074 28.3984L34.354 21.6914ZM57.6055 50.8145C58.501 50.8145 59.3798 50.8858 60.2366 51.0231C57.4963 46.2885 52.9961 42.6998 47.6307 41.1517C47.0835 40.9939 46.5006 41.1288 46.0366 41.459C42.2214 44.1751 37.1594 45.8297 31.6055 45.8297C26.0516 45.8297 20.9895 44.1751 17.1743 41.459C16.7104 41.1288 16.1274 40.9939 15.5803 41.1517C6.64235 43.7306 0.105469 51.972 0.105469 61.7402V68.2727C0.105469 75.4755 5.94446 81.3145 13.1472 81.3145H48.8692C44.2067 78.3989 41.1055 73.2188 41.1055 67.3145C41.1055 58.2018 48.4928 50.8145 57.6055 50.8145ZM56.6787 38.8733C61.6673 41.9876 65.2337 47.1672 66.1813 53.2154C69.3148 55.1255 71.7616 58.0507 73.0647 61.5343V58.6442C73.1574 48.7979 66.0327 40.4669 56.6787 38.8733ZM57.3005 20.7457C57.3005 25.6771 55.8307 30.2602 53.3115 34.0687C59.8765 31.8359 64.6069 25.5439 64.6069 18.1308C64.6069 8.84935 57.1915 1.32522 48.0441 1.32522C47.8672 1.32522 47.6909 1.32804 47.5154 1.33362C53.4433 5.68172 57.3005 12.7566 57.3005 20.7457ZM69.2454 66.3845C69.2454 73.0505 63.8414 78.4545 57.1754 78.4545C50.5093 78.4545 45.1054 73.0505 45.1054 66.3845C45.1054 59.7184 50.5093 54.3145 57.1754 54.3145C63.8414 54.3145 69.2454 59.7184 69.2454 66.3845ZM63.4567 64.4481L56.8731 71.0352C56.5861 71.3223 56.1923 71.4767 55.7867 71.4611C55.381 71.4455 55.0002 71.2614 54.7361 70.9531L51.4443 67.1107L53.6572 65.2148L55.9249 67.8618L61.3957 62.3881L63.4567 64.4481Z" fill="#326CE5"/>
</svg>
