<svg width="80" height="74" viewBox="0 0 80 74" fill="none" xmlns="http://www.w3.org/2000/svg">
<path fill-rule="evenodd" clip-rule="evenodd" d="M66.4149 65.4348C73.9176 65.4348 79.9997 59.3559 79.9997 51.8571C79.9997 44.3583 73.9176 38.2793 66.4149 38.2793C58.9122 38.2793 52.8301 44.3583 52.8301 51.8571C52.8301 59.3559 58.9122 65.4348 66.4149 65.4348ZM65.9023 56.9184L73.3122 49.5085L71.337 47.5333L64.9936 53.8768L62.2702 50.6994L60.1494 52.5173L63.8543 56.8397C64.1075 57.1351 64.4724 57.3115 64.8611 57.3264C65.2499 57.3414 65.6272 57.1935 65.9023 56.9184Z" fill="#326CE5"/>
<path fill-rule="evenodd" clip-rule="evenodd" d="M55.4975 68.2232C49.9729 71.5719 43.489 73.5 36.554 73.5C16.3647 73.5 -0.00195312 57.1584 -0.00195312 37C-0.00195312 16.8416 16.3647 0.5 36.554 0.5C55.6419 0.5 71.3129 15.1072 72.9659 33.7368C70.8718 32.9671 68.6088 32.5469 66.2475 32.5469C57.2106 32.5469 49.6121 38.7019 47.4196 47.0464C47.0531 46.5862 46.4881 46.2913 45.8541 46.2913H39.8815V39.7334C44.5149 38.2035 47.8581 33.8439 47.8581 28.7047C47.8581 22.2906 42.6506 17.091 36.2267 17.091C29.8028 17.091 24.5952 22.2906 24.5952 28.7047C24.5952 34.086 28.2609 38.6124 33.235 39.9305V56.2368C33.235 57.3413 34.1304 58.2368 35.235 58.2368H37.8815C38.9861 58.2368 39.8815 57.3413 39.8815 56.2368V52.9276H45.8541C46.1941 52.9276 46.5142 52.8428 46.7945 52.6932C47.0212 59.1793 50.4246 64.8581 55.4975 68.2232Z" fill="#326CE5"/>
</svg>
