<svg width="80" height="80" viewBox="0 0 80 80" fill="none" xmlns="http://www.w3.org/2000/svg">
<path fill-rule="evenodd" clip-rule="evenodd" d="M40 80C62.0914 80 80 62.0914 80 40C80 17.9086 62.0914 0 40 0C17.9086 0 0 17.9086 0 40C0 62.0914 17.9086 80 40 80ZM43.6477 42.9933C48.7139 41.3145 52.3686 36.5387 52.3686 30.9094C52.3686 23.8803 46.6704 18.1821 39.6413 18.1821C32.6123 18.1821 26.9141 23.8803 26.9141 30.9094C26.9141 36.8093 30.9286 41.7716 36.375 43.2136V61.2732C36.375 62.3777 37.2704 63.2732 38.375 63.2732H41.6477C42.7523 63.2732 43.6477 62.3777 43.6477 61.2732V57.4551H50.3643C51.4689 57.4551 52.3643 56.5596 52.3643 55.4551V52.1824C52.3643 51.0778 51.4689 50.1824 50.3643 50.1824H43.6477V42.9933Z" fill="#326CE5"/>
</svg>
