<svg width="76" height="86" viewBox="0 0 76 86" fill="none" xmlns="http://www.w3.org/2000/svg">
<path fill-rule="evenodd" clip-rule="evenodd" d="M37.6458 0.684108L2.13431 7.28862C1.18701 7.4648 0.5 8.29137 0.5 9.25491V39.3889C0.5 55.5047 9.37331 70.3115 23.5851 77.9105L37.057 85.1139C37.6462 85.429 38.3538 85.429 38.9431 85.1139L52.4149 77.9105C66.6267 70.3115 75.5 55.5047 75.5 39.3889V8.83814C75.5 7.86611 74.8011 7.03482 73.8436 6.86786L38.355 0.680116C38.1202 0.639183 37.88 0.640535 37.6458 0.684108ZM48.401 25.8267C50.0896 24.3374 52.6335 24.3729 54.2798 25.9088L54.5369 26.1486C56.4045 27.891 56.3872 30.8556 54.4994 32.5761L43.4567 42.6401C41.7294 44.2143 39.0692 44.1529 37.4163 42.5008L36.9958 42.0805C36.8555 41.9402 36.7267 41.7928 36.6095 41.6396H33.2953C33.6502 42.5497 34.1957 43.4039 34.9338 44.1417L35.3543 44.562C38.109 47.3155 42.5427 47.4177 45.4215 44.7941L56.4642 34.7302C59.6106 31.8627 59.6394 26.9216 56.5267 24.0176L56.2696 23.7778C53.5257 21.218 49.2859 21.1588 46.4715 23.6409L35.2654 33.5244C35.0713 33.6956 34.8885 33.8747 34.7172 34.0608H39.0649L48.401 25.8267ZM22.2017 56.5973C23.848 58.1332 26.3919 58.1687 28.0805 56.6794L37.4166 48.4453H41.7643C41.593 48.6314 41.4102 48.8105 41.2161 48.9817L30.01 58.8651C27.1956 61.3473 22.9558 61.2881 20.2119 58.7283L19.9548 58.4884C16.8421 55.5845 16.8709 50.6434 20.0173 47.7759L31.06 37.712C33.9388 35.0883 38.3725 35.1906 41.1272 37.9441L41.5477 38.3644C42.2858 39.1021 42.8313 39.9564 43.1862 40.8665H39.872C39.7548 40.7132 39.626 40.5659 39.4857 40.4256L39.0652 40.0053C37.4123 38.3531 34.7521 38.2918 33.0248 39.866L21.9821 49.9299C20.0943 51.6504 20.077 54.6151 21.9446 56.3575L22.2017 56.5973Z" fill="#326CE5"/>
</svg>
