<svg width="90" height="70" viewBox="0 0 90 70" fill="none" xmlns="http://www.w3.org/2000/svg">
<path fill-rule="evenodd" clip-rule="evenodd" d="M24.2211 47.41C24.2359 47.4356 24.2505 47.4613 24.2649 47.4871C26.1183 50.8013 24.9373 54.9922 21.6271 56.8479C18.3169 58.7035 14.131 57.521 12.2776 54.2069C10.4242 50.8927 11.6052 46.7017 14.9154 44.8461C16.2322 44.108 17.6875 43.8506 19.0794 44.0168L26.2052 32.2736C23.9969 30.6159 22.1942 28.4641 20.9473 25.9804C19.4274 22.953 18.7956 19.5563 19.1249 16.1841C19.4542 12.8118 20.7313 9.60201 22.8081 6.92666C24.8849 4.25131 27.6763 2.21995 30.859 1.06797C34.0417 -0.0839969 37.4853 -0.309411 40.7907 0.417854C44.0961 1.14512 47.128 2.79529 49.535 5.17713C51.9421 7.55897 53.6257 10.575 54.3908 13.8756C55.1559 17.1762 54.9711 20.6263 53.8579 23.8261L47.5936 21.6416C48.2945 19.6271 48.4108 17.455 47.9291 15.377C47.4475 13.299 46.3875 11.4002 44.8721 9.9007C43.3567 8.40117 41.4479 7.36227 39.3669 6.9044C37.2859 6.44654 35.118 6.58845 33.1143 7.3137C31.1105 8.03895 29.3531 9.31784 28.0456 11.0022C26.7381 12.6865 25.9341 14.7073 25.7268 16.8303C25.5194 18.9534 25.9173 21.0919 26.8741 22.9978C27.6623 24.5679 28.8032 25.9272 30.2013 26.9725L34.8914 29.8253L24.2211 47.41ZM37.0692 25.1098L37.1082 25.1115L46.2614 43.5389L51.1777 41.091C51.8598 40.8284 52.5645 40.6334 53.2815 40.5079V33.8036C51.7622 33.9695 50.2677 34.3298 48.8353 34.8775L42.7258 22.5777C43.6123 21.4873 44.1741 20.1157 44.2541 18.6041C44.4549 14.8111 41.5466 11.5733 37.7581 11.3723C33.9697 11.1712 30.7358 14.0831 30.535 17.876C30.3342 21.669 33.2425 24.9068 37.031 25.1078L37.0692 25.1098ZM65.8137 66.084L65.684 66.0145C63.5802 64.8879 61.6943 63.4676 60.0659 61.8197C59.3353 62.1676 58.566 62.4374 57.7705 62.6222C55.6949 63.1041 53.5255 62.9873 51.5135 62.2853C49.5015 61.5833 47.7294 60.3249 46.4025 58.6558L41.2125 62.7918C43.32 65.4429 46.1348 67.4417 49.3306 68.5568C52.5264 69.6718 55.9724 69.8573 59.2691 69.0918C61.6411 68.541 63.8659 67.5142 65.8137 66.084ZM56.8318 57.7221C55.3367 57.9724 53.7493 57.7312 52.3264 56.927C51.0109 56.1834 50.0343 55.0708 49.453 53.7921L35.7311 53.7995C35.4648 56.5519 34.5652 59.2142 33.0927 61.5731C31.2991 64.4465 28.729 66.7521 25.6802 68.2229C22.6313 69.6937 19.2286 70.2693 15.8664 69.8832C12.5042 69.497 9.32008 68.1649 6.6831 66.0411C4.04612 63.9173 2.06422 61.0888 0.967096 57.8834C-0.130032 54.6781 -0.297473 51.2271 0.48417 47.9304C1.26582 44.6336 2.96455 41.6261 5.38351 39.2564C7.80246 36.8867 10.8426 35.2519 14.1516 34.5412L15.5428 41.0349C13.4596 41.4823 11.5456 42.5115 10.0227 44.0034C8.49976 45.4953 7.43028 47.3887 6.93819 49.4643C6.44608 51.5398 6.5515 53.7124 7.24222 55.7304C7.93294 57.7484 9.18068 59.5292 10.8408 60.8662C12.501 62.2033 14.5056 63.042 16.6224 63.2851C18.7392 63.5282 20.8814 63.1658 22.8008 62.2398C24.7203 61.3139 26.3384 59.8623 27.4676 58.0533C28.397 56.5644 28.9639 54.8835 29.1299 53.1458L29.1269 47.6416L49.6805 47.6306C49.6939 47.6061 49.7076 47.5815 49.7214 47.557C50.546 46.0945 51.8253 45.0503 53.2815 44.5019V45.3037C53.2815 49.7758 54.5519 54.0605 56.8318 57.7221Z" fill="#326CE5"/>
<path d="M73.4806 28.7917L59.3056 31.432C58.3586 31.6084 57.6719 32.4349 57.6719 33.3982V45.5082C57.6719 52.4379 61.485 58.8055 67.5939 62.0769L72.8912 64.9138C73.481 65.2296 74.1897 65.2296 74.7796 64.9138L80.0769 62.0769C86.1857 58.8055 89.9989 52.4379 89.9989 45.5082V33.2292C89.9989 32.2574 89.3003 31.4262 88.3429 31.259L74.1909 28.7877C73.9558 28.7466 73.7152 28.748 73.4806 28.7917Z" fill="#326CE5"/>
</svg>
