<svg width="74" height="88" viewBox="0 0 74 88" fill="none" xmlns="http://www.w3.org/2000/svg">
<path fill-rule="evenodd" clip-rule="evenodd" d="M74 17.735C74 27.5298 57.4345 35.47 37 35.47C16.5655 35.47 0 27.5298 0 17.735C0 7.94023 16.5655 0 37 0C57.4345 0 74 7.94023 74 17.735ZM0 25.8788V70.2652C0 80.0599 16.5655 88.0001 37 88.0001C57.4345 88.0001 74 80.0599 74 70.2652V25.8788C70.0672 33.8344 54.9942 39.7588 37 39.7588C19.0058 39.7588 3.93279 33.8344 0 25.8788ZM45.2277 51.7812C45.5589 51.9177 45.8599 52.1177 46.1135 52.3699C46.367 52.6221 46.5682 52.9203 46.7054 53.2497C46.8426 53.5792 46.9132 53.9324 46.9132 54.289C46.9132 54.6456 46.8426 54.9988 46.7054 55.3283C46.5682 55.6577 46.367 55.9571 46.1135 56.2093L32.8315 69.4231C32.6596 69.5918 32.4274 69.6857 32.186 69.6841C31.9445 69.6825 31.7136 69.5856 31.5439 69.4147C31.3743 69.2438 31.2799 69.0128 31.2815 68.7726C31.2831 68.5325 31.3806 68.3028 31.5524 68.1341L41.03 58.7077C41.1958 58.5369 41.2874 58.3082 41.2852 58.0708C41.283 57.8335 41.1872 57.6065 41.0184 57.4387C40.8495 57.271 40.6212 57.1759 40.3826 57.1739C40.1439 57.172 39.9141 57.2633 39.7425 57.4283L30.2649 66.8547C29.7761 67.3668 29.5071 68.048 29.5148 68.754C29.5225 69.46 29.8064 70.1352 30.3062 70.6366C30.806 71.1379 31.4825 71.426 32.1922 71.4397C32.902 71.4533 33.5892 71.1915 34.1081 70.7098L34.1118 70.7074L34.1142 70.7049L34.1227 70.6965L34.1324 70.6868L47.3998 57.4911C48.2533 56.6423 48.7329 55.4911 48.733 54.2906C48.7332 53.0902 48.2538 51.9389 47.4004 51.0899C46.547 50.241 45.3896 49.764 44.1826 49.7639C42.9756 49.7638 41.818 50.2406 40.9645 51.0893L27.6898 64.2935C27.0856 64.8791 26.6044 65.5782 26.274 66.3502C25.9437 67.1222 25.7707 67.9518 25.7653 68.7908C25.7598 69.6298 25.9219 70.4615 26.2422 71.2377C26.5625 72.0139 27.0347 72.7191 27.6312 73.3124C28.2277 73.9057 28.9367 74.3752 29.7171 74.6938C30.4975 75.0124 31.3338 75.1736 32.1773 75.1682C33.0209 75.1628 33.855 74.9908 34.6312 74.6622C35.4074 74.3336 36.1102 73.855 36.699 73.2541L46.0346 63.9689C46.1954 63.7973 46.2829 63.5703 46.2787 63.3358C46.2746 63.1013 46.1791 62.8775 46.0123 62.7117C45.8455 62.5458 45.6206 62.4508 45.3848 62.4467C45.149 62.4425 44.9208 62.5296 44.7483 62.6895L35.4127 71.9747C34.5593 72.8236 33.4018 73.3006 32.1948 73.3007C30.9879 73.3008 29.8303 72.824 28.9767 71.9753C28.1232 71.1265 27.6436 69.9753 27.6435 68.7748C27.6434 67.5744 28.1228 66.423 28.9761 65.5741L42.2521 52.3699C42.5056 52.1177 42.8066 51.9177 43.1379 51.7812C43.4691 51.6448 43.8242 51.5745 44.1828 51.5745C44.5413 51.5745 44.8964 51.6448 45.2277 51.7812Z" fill="#326CE5"/>
</svg>
