<svg width="80" height="80" viewBox="0 0 80 80" fill="none" xmlns="http://www.w3.org/2000/svg">
<path fill-rule="evenodd" clip-rule="evenodd" d="M20.2284 10.109H18.6738V2.5C18.6738 1.39543 19.5693 0.5 20.6738 0.5H28.2738V2.05453V3.60906H21.7829V10.109H20.2284ZM32.0738 2.05453V0.5H47.2738V2.05453V3.60906H32.0738V2.05453ZM51.0738 2.05453V0.5H66.2738V2.05453V3.60906H51.0738V2.05453ZM70.0738 2.05453V0.5H77.6738C78.7784 0.5 79.6738 1.39543 79.6738 2.5V10.109H78.1193H76.5648V3.60906H70.0738V2.05453ZM78.1193 13.9136H79.6738V29.1316H78.1193H76.5648V13.9136H78.1193ZM78.1193 32.9362H79.6738V48.1542H78.1193H76.5648V32.9362H78.1193ZM78.1193 51.9587H79.6738V59.5678C79.6738 60.6724 78.7784 61.5678 77.6738 61.5678H70.0738V60.0133V58.4587H76.5648V51.9587H78.1193Z" fill="#326CE5"/>
<mask id="path-2-inside-1_26953_25959" fill="white">
<rect x="8.53125" y="9.49609" width="62.25" height="61.0678" rx="2"/>
</mask>
<rect x="8.53125" y="9.49609" width="62.25" height="61.0678" rx="2" stroke="#326CE5" stroke-width="6.21811" stroke-dasharray="16 4" mask="url(#path-2-inside-1_26953_25959)"/>
<path d="M0.326172 20.4326C0.326172 19.328 1.2216 18.4326 2.32617 18.4326H59.977C61.0816 18.4326 61.977 19.328 61.977 20.4326V77.5004C61.977 78.605 61.0816 79.5004 59.977 79.5004H2.32617C1.2216 79.5004 0.326172 78.605 0.326172 77.5004V20.4326Z" fill="#326CE5"/>
<path fill-rule="evenodd" clip-rule="evenodd" d="M30.8283 44.5484C39.7555 44.5484 46.9925 41.0608 46.9925 36.7586C46.9925 32.4564 39.7555 28.9688 30.8283 28.9688C21.901 28.9688 14.6641 32.4564 14.6641 36.7586C14.6641 41.0608 21.901 44.5484 30.8283 44.5484ZM14.6703 60.3568V41.4446C16.601 44.8875 23.066 47.4181 30.744 47.4181C38.6828 47.4181 45.3249 44.7126 46.9987 41.0906V60.3925H46.9985C46.9985 64.6947 39.7615 68.1823 30.8343 68.1823C21.9071 68.1823 14.6701 64.6947 14.6701 60.3925L14.6703 60.3568Z" fill="white"/>
</svg>
