<svg width="40" height="40" viewBox="0 0 40 40" fill="none" xmlns="http://www.w3.org/2000/svg">
<g clip-path="url(#clip0_23296_3369)">
<path d="M40 0H0V40H40V0Z" fill="#ED7100" fill-opacity="0.12"/>
<path fill-rule="evenodd" clip-rule="evenodd" d="M30.828 29.6912L20.417 29.6802C19.284 29.6782 18.293 28.9412 18.059 27.9272C18.012 27.7152 17.987 27.4902 17.987 27.2562C17.987 25.6172 19.13 25.0822 19.81 24.9082C20.055 24.8462 20.215 24.6122 20.183 24.3622C20.166 24.2162 20.157 24.0672 20.157 23.9172C20.157 22.5782 21.08 21.1392 22.258 20.6402C22.789 20.4152 23.28 20.3262 23.725 20.3262C24.993 20.3262 25.888 21.0512 26.278 21.4432C26.711 21.8772 27.05 22.4332 27.283 23.0952C27.345 23.2702 27.498 23.3962 27.681 23.4232C27.87 23.4482 28.047 23.3742 28.157 23.2262C28.46 22.8162 28.947 22.6362 29.406 22.7692C29.975 22.9352 30.349 23.5352 30.405 24.2962C30.364 24.5652 30.546 24.8172 30.814 24.8632C31.472 24.9772 33 25.4392 33 27.2812C33 29.4322 31.012 29.6722 30.828 29.6912ZM17.995 32.4162L7 26.6802V12.2792L16 7.34425V11.8652L11.254 14.5482C11.097 14.6362 11 14.8032 11 14.9832V23.9832C11 24.1652 11.099 24.3332 11.259 24.4212L17.024 27.5952C17.04 27.7822 17.045 27.9732 17.085 28.1502C17.422 29.6142 18.822 30.6782 20.415 30.6802L21.178 30.6812L17.995 32.4162ZM25.713 14.5312L20 11.8392V7.30825L30 12.2932V21.9582C29.895 21.9082 29.801 21.8422 29.686 21.8092C29.086 21.6322 28.453 21.7372 27.936 22.0762C27.682 21.5652 27.364 21.1162 26.987 20.7372C26.682 20.4302 26.348 20.1822 26 19.9752V14.9832C26 14.7892 25.889 14.6132 25.713 14.5312ZM31.365 23.9612C31.305 23.5662 31.168 23.2292 31 22.9242V11.9832C31 11.7942 30.892 11.6202 30.723 11.5362L19.723 6.05325C19.567 5.97525 19.384 5.98325 19.237 6.07525C19.09 6.16625 19 6.32725 19 6.50025V12.1562C19 12.3502 19.111 12.5262 19.287 12.6082L25 15.3002V19.5322C24 19.2282 22.917 19.2742 21.867 19.7192C21.129 20.0322 20.481 20.6122 20.003 21.3172L18.465 19.3842L21.717 15.3072H20.273L17.403 18.6772V15.3072H16.117V23.6672H17.403V19.8092L19.449 22.4012C19.267 22.8922 19.157 23.4052 19.157 23.9172C19.157 23.9662 19.158 24.0152 19.159 24.0642C18.036 24.4782 17.302 25.3432 17.072 26.4802L12 23.6882V15.2742L16.746 12.5912C16.903 12.5032 17 12.3372 17 12.1562V6.50025C17 6.32325 16.907 6.16025 16.755 6.07025C16.603 5.98025 16.415 5.97825 16.26 6.06225L6.26 11.5452C6.099 11.6322 6 11.8002 6 11.9832V26.9832C6 27.1702 6.103 27.3402 6.268 27.4262L17.768 33.4262C17.841 33.4642 17.921 33.4832 18 33.4832C18.082 33.4832 18.165 33.4622 18.239 33.4222L23.263 30.6832L30.867 30.6902C31.951 30.6012 34 29.7752 34 27.2812C34 25.3392 32.701 24.3162 31.365 23.9612Z" fill="#ED7100"/>
</g>
<rect x="0.5" y="0.5" width="39" height="39" stroke="#ED7100"/>
<defs>
<clipPath id="clip0_23296_3369">
<rect width="40" height="40" fill="white"/>
</clipPath>
</defs>
</svg>
