<svg xmlns="http://www.w3.org/2000/svg" xmlns:xlink="http://www.w3.org/1999/xlink" id="Layer_1" x="0" y="0" version="1.1" viewBox="0 0 512 512" xml:space="preserve" style="enable-background:new 0 0 512 512"><style type="text/css">.st0{fill:#00b39f}.st1{fill:#b32700}.st2{fill:#00d3a9}.st3{fill:#d32a00}.st4{fill:#fff}</style><g><path d="M77,255.8c0.1-39.5,32.5-71.8,72-71.8c39.4,0.1,71.9,32.6,71.8,72.1c-0.1,39.4-32.7,71.9-72.1,71.8 C109.3,327.8,77,295.4,77,255.8z M149,308c28.8,0,52-23.4,52-52.2c0-28.7-23.5-51.9-52.3-51.8c-28.5,0.1-51.6,23.3-51.7,51.9 C96.9,284.8,120.2,308,149,308z" class="st0"/><path d="M149.2,150.3c-39.6,0.1-72.1-32-72.1-71.6c-0.1-39.6,32-71.9,71.6-72c39.6-0.1,72.1,32.1,72.2,71.5 C221,117.8,188.8,150.2,149.2,150.3z M97,78.7c0.1,28.8,23.6,52.1,52.2,51.9c28.9-0.3,51.9-23.5,51.8-52.4 c-0.1-28.4-23.4-51.5-52-51.6C120.1,26.5,96.9,49.8,97,78.7z" class="st0"/><path d="M148.8,361.7c39.6-0.1,72,32.2,72,71.7c0.1,39.5-32.2,71.8-71.9,71.9c-39.7,0-72-32.1-72-71.7 C77,393.9,109.2,361.7,148.8,361.7z M149.1,485.4c28.8-0.1,52-23.4,51.9-52.2c-0.1-28.5-23.4-51.6-51.9-51.8 c-28.9-0.1-52.2,23.4-52.1,52.5C97.1,462.5,120.5,485.5,149.1,485.4z" class="st1"/><path d="M347.5,70.8c-24.6,0-49.3,0-73.9,0c-7.6,0-12.3-3.6-12.8-9.8c-0.5-5.9,3.3-10.8,9.2-11.7 c1.5-0.2,3-0.2,4.5-0.2c48.8,0,97.6,0,146.4,0c2.1,0,4.4,0.1,6.4,0.6c4.8,1.3,7.8,5.6,7.7,10.4c-0.1,4.8-3.3,8.9-8.1,10.1 c-1.9,0.5-4,0.5-5.9,0.5C396.4,70.8,371.9,70.8,347.5,70.8z" class="st0"/><path d="M348.1,425.7c-24.8,0-49.6,0-74.4,0c-7.9,0-12.6-3.8-12.9-10.2c-0.3-5.9,3.7-10.6,9.6-11.3 c1.5-0.2,3-0.1,4.5-0.1c48.6,0,97.2,0,145.8,0c1.7,0,3.4-0.1,5,0.1c5.4,0.8,9.3,5.4,9.3,10.7c0,5.2-3.7,9.5-9,10.4 c-1.8,0.3-3.6,0.3-5.5,0.3C396.3,425.7,372.2,425.7,348.1,425.7z" class="st1"/><path d="M347.9,226.8c25.1,0,50.3-0.1,75.4,0c9.3,0,14.6,8.7,10.1,16.1c-2.5,4.1-6.4,5.3-11.1,5.2 c-38-0.1-75.9,0-113.9,0c-11.8,0-23.6,0-35.5,0c-7.6,0-12.3-4.1-12.3-10.7c0-6.6,4.6-10.6,12.3-10.6 C298,226.7,323,226.8,347.9,226.8z" class="st0"/><path d="M338,86.3c21.5,0,42.9,0,64.4,0c6.8,0,11.1,2.8,12.5,7.8c1.7,6.2-2.1,12.3-8.5,13.6c-1.1,0.2-2.3,0.2-3.5,0.2 c-43.4,0-86.9,0-130.3,0c-9.7,0-15.3-8.3-11-16c2.5-4.4,6.6-5.6,11.4-5.6C294.7,86.4,316.4,86.3,338,86.3z" class="st2"/><path d="M337.4,462.9c-21.6,0-43.3,0.1-64.9,0c-9.2,0-14.8-7.7-11.2-15.2c2.4-5,6.7-6.4,12-6.4c22,0.1,43.9,0,65.9,0 c21.1,0,42.3,0,63.4,0c7.4,0,11.9,3.5,12.6,9.4c0.8,7.2-4.1,12.2-12.3,12.2C381,462.9,359.2,462.9,337.4,462.9z" class="st3"/><path d="M337.8,285.2c-22,0-44,0.1-66,0c-8.7,0-13.9-7.4-10.7-14.8c2-4.6,5.8-6.5,10.8-6.5c13.2,0.1,26.3,0,39.5,0 c30.5,0,61,0,91.5,0c6.7,0,10.9,3,12,8.3c1.5,7.2-3.3,13-11.2,13C381.8,285.3,359.8,285.2,337.8,285.2z" class="st2"/><path d="M139.8,260.2c-4-4.5-6.9-8.2-10.2-11.4c-4.5-4.4-10.6-4.3-14.7-0.1c-4.2,4.1-4.3,10.3,0,14.7 c5.8,6,11.7,11.9,17.7,17.7c4.7,4.5,10.4,4.5,15.1-0.1c11.7-11.6,23.4-23.2,34.9-35c1.6-1.7,2.9-4.2,3.3-6.4 c0.8-4.8-1.5-8.5-5.8-10.6c-4.3-2.1-8.5-1.4-11.9,2.1C159.1,240.2,150.1,249.6,139.8,260.2z" class="st4"/><path d="M139.8,260.2c10.3-10.6,19.3-20,28.4-29.2c3.4-3.5,7.6-4.2,11.9-2.1c4.3,2.1,6.6,5.8,5.8,10.6 c-0.4,2.3-1.7,4.8-3.3,6.4c-11.5,11.8-23.2,23.4-34.9,35c-4.7,4.6-10.4,4.7-15.1,0.1c-6-5.8-11.9-11.7-17.7-17.7 c-4.3-4.5-4.2-10.6,0-14.7c4.2-4.1,10.2-4.3,14.7,0.1C132.9,252,135.8,255.6,139.8,260.2z" class="st2"/><path d="M139.9,82.3c9.6-9.8,18.2-18.7,26.8-27.4c5.7-5.7,11.4-6.2,16.1-1.6c4.7,4.6,4.3,10.6-1.2,16.1 c-11,11.1-22.1,22.1-33.2,33.2c-5.8,5.8-11.1,5.8-16.8,0.1c-5.4-5.4-10.9-10.8-16.2-16.2c-4.8-4.9-4.9-11.1-0.4-15.4 c4.4-4.2,10.2-4,15.1,0.7C133.3,74.9,136.2,78.3,139.9,82.3z" class="st2"/><path d="M148.9,447.4c-5.1,5.6-9.2,10.3-13.5,14.6c-5.1,5.1-11.3,5.2-15.8,0.5c-4.4-4.5-4.2-10.5,0.6-15.5 c4.1-4.3,8.4-8.6,12.5-12.9c0.1-0.1,0.1-0.3,0.5-1c-4-4-8.1-8.3-12.3-12.5c-5.4-5.6-5.9-11.5-1.3-16.3c4.7-4.9,11-4.5,16.6,1.2 c4.1,4.1,7.9,8.5,13,14.1c4.1-4.8,7.3-8.8,10.9-12.4c7.1-7.2,12.8-8.1,18-3c5.1,5.1,4.3,11.1-2.7,18c-3.7,3.6-7.7,6.8-12.7,11.2 c5.7,5.2,10.4,9.2,14.7,13.5c5.1,5,5.2,11.4,0.6,15.9c-4.6,4.6-10.6,4.4-15.8-0.9C158,457.6,154.1,453.1,148.9,447.4z" class="st3"/></g></svg>