<svg width="811" height="389" viewBox="0 0 811 389" fill="none" xmlns="http://www.w3.org/2000/svg">
<path d="M523.937 194.529L267.233 194.529" stroke="#326CE5" stroke-width="7.81834" stroke-dasharray="5.21 5.21"/>
<path d="M509.597 177.349L543.938 194.091L509.597 211.693L521.028 194.37L509.597 177.349Z" fill="#CCCCCC"/>
<rect x="114.125" y="119.125" width="149.984" height="149.984" rx="22.9142" fill="#326CE5" fill-opacity="0.1"/>
<rect x="114.125" y="119.125" width="149.984" height="149.984" rx="22.9142" stroke="#326CE5" stroke-width="6.24934"/>
<rect x="92.252" y="194.117" width="37.496" height="37.496" rx="18.748" fill="#326CE5"/>
<g clip-path="url(#clip0_27328_21539)">
<path d="M111.874 213.39C111.735 213.39 111.624 213.502 111.624 213.64V221.114C111.624 221.252 111.735 221.364 111.874 221.364H122.122C122.26 221.364 122.372 221.252 122.372 221.114V213.64C122.372 213.502 122.26 213.39 122.122 213.39H111.874ZM113.866 219.182C113.866 219.333 113.756 219.458 113.624 219.458C113.492 219.458 113.382 219.333 113.382 219.182V215.547C113.382 215.396 113.492 215.271 113.624 215.271C113.756 215.271 113.866 215.396 113.866 215.547V219.182ZM116.108 219.182C116.108 219.333 115.998 219.458 115.866 219.458C115.734 219.458 115.624 219.333 115.624 219.182V215.547C115.624 215.396 115.734 215.271 115.866 215.271C115.998 215.271 116.108 215.396 116.108 215.547V219.182ZM118.35 219.182C118.35 219.333 118.24 219.458 118.108 219.458C117.976 219.458 117.866 219.333 117.866 219.182V215.547C117.866 215.396 117.976 215.271 118.108 215.271C118.24 215.271 118.35 215.396 118.35 215.547V219.182ZM120.592 219.182C120.592 219.333 120.482 219.458 120.35 219.458C120.218 219.458 120.108 219.333 120.108 219.182V215.547C120.108 215.396 120.218 215.271 120.35 215.271C120.482 215.271 120.592 215.396 120.592 215.547V219.182Z" fill="white"/>
<path d="M105.865 204.365C105.727 204.365 105.615 204.477 105.615 204.615V212.089C105.615 212.227 105.727 212.339 105.865 212.339H116.114C116.252 212.339 116.364 212.227 116.364 212.089V204.615C116.364 204.477 116.252 204.365 116.114 204.365H105.865ZM107.857 210.183C107.857 210.333 107.747 210.458 107.615 210.458C107.483 210.458 107.373 210.333 107.373 210.183V206.547C107.373 206.396 107.483 206.271 107.615 206.271C107.747 206.271 107.857 206.396 107.857 206.547V210.183ZM110.121 210.183C110.121 210.333 110.011 210.458 109.879 210.458C109.747 210.458 109.637 210.333 109.637 210.183V206.547C109.637 206.396 109.747 206.271 109.879 206.271C110.011 206.271 110.121 206.396 110.121 206.547V210.183ZM112.363 210.183C112.363 210.333 112.253 210.458 112.121 210.458C111.989 210.458 111.879 210.333 111.879 210.183V206.547C111.879 206.396 111.989 206.271 112.121 206.271C112.253 206.271 112.363 206.396 112.363 206.547V210.183ZM114.605 210.183C114.605 210.333 114.495 210.458 114.363 210.458C114.231 210.458 114.122 210.333 114.122 210.183V206.547C114.122 206.396 114.231 206.271 114.363 206.271C114.495 206.271 114.605 206.396 114.605 206.547V210.183Z" fill="white"/>
<path d="M99.8774 213.39C99.7394 213.39 99.6274 213.502 99.6274 213.64V221.114C99.6274 221.252 99.7394 221.364 99.8774 221.364H110.126C110.264 221.364 110.376 221.252 110.376 221.114V213.64C110.376 213.502 110.264 213.39 110.126 213.39H99.8774ZM101.87 219.182C101.87 219.333 101.76 219.458 101.628 219.458C101.496 219.458 101.386 219.333 101.386 219.182V215.547C101.386 215.396 101.496 215.271 101.628 215.271C101.76 215.271 101.87 215.396 101.87 215.547V219.182ZM104.112 219.182C104.112 219.333 104.002 219.458 103.87 219.458C103.738 219.458 103.628 219.333 103.628 219.182V215.547C103.628 215.396 103.738 215.271 103.87 215.271C104.002 215.271 104.112 215.396 104.112 215.547V219.182ZM106.354 219.182C106.354 219.333 106.244 219.458 106.112 219.458C105.98 219.458 105.87 219.333 105.87 219.182V215.547C105.87 215.396 105.98 215.271 106.112 215.271C106.244 215.271 106.354 215.396 106.354 215.547V219.182ZM108.618 219.182C108.618 219.333 108.508 219.458 108.376 219.458C108.244 219.458 108.134 219.333 108.134 219.182V215.547C108.134 215.396 108.244 215.271 108.376 215.271C108.508 215.271 108.618 215.396 108.618 215.547V219.182Z" fill="white"/>
</g>
<rect x="543.767" y="116" width="156.233" height="156.233" rx="26.0389" fill="#326CE5"/>
<path fill-rule="evenodd" clip-rule="evenodd" d="M615.599 185.548C634.536 185.548 649.888 178.151 649.888 169.027C649.888 159.902 634.536 152.506 615.599 152.506C596.661 152.506 581.309 159.902 581.309 169.027C581.309 178.151 596.661 185.548 615.599 185.548ZM581.309 216.97V175.181C584.789 182.582 598.818 188.118 615.596 188.118C632.382 188.118 646.417 182.576 649.888 175.17V194.293C648.822 194.087 647.572 194.054 646.109 194.233C640.822 194.878 636.461 198.607 636.461 203.997V206.794H634.089C632.136 206.927 630.671 209.661 630.671 211.809V231.338C630.671 231.517 630.683 231.693 630.707 231.866C626.149 232.945 621.021 233.552 615.598 233.552C596.661 233.552 581.309 226.155 581.309 217.031L581.309 216.97ZM656.964 209.936H658.796C660.811 209.936 662.459 211.594 662.459 213.621V232.043C662.459 234.069 660.811 235.728 658.796 235.728H636.818C634.803 235.728 633.155 234.069 633.155 232.043V213.621C633.155 211.594 634.803 209.936 636.818 209.936H638.649V206.251C638.649 201.167 642.752 197.04 647.807 197.04C652.862 197.04 656.964 201.167 656.964 206.251V209.936ZM644.144 222.832C644.144 224.858 645.792 226.516 647.807 226.516C649.821 226.516 651.47 224.858 651.47 222.832C651.47 220.805 649.821 219.147 647.807 219.147C645.792 219.147 644.144 220.805 644.144 222.832ZM642.129 206.251V209.936H653.485V206.251C653.485 203.101 650.938 200.54 647.807 200.54C644.675 200.54 642.129 203.101 642.129 206.251Z" fill="white"/>
<rect x="350.037" y="152.454" width="83.3245" height="83.3245" rx="26.0389" fill="#326CE5"/>
<path fill-rule="evenodd" clip-rule="evenodd" d="M391.5 190.127C401.6 190.127 409.787 186.182 409.787 181.316C409.787 176.449 401.6 172.504 391.5 172.504C381.4 172.504 373.212 176.449 373.212 181.316C373.212 186.182 381.4 190.127 391.5 190.127ZM391.439 192.034C399.742 192.034 406.85 189.612 409.787 186.178V199.074C408.171 197.611 406.027 196.721 403.676 196.721C398.642 196.721 394.562 200.801 394.562 205.834C394.562 209.876 397.193 213.303 400.835 214.496C398.102 215.28 394.91 215.729 391.5 215.729C381.4 215.729 373.212 211.784 373.212 206.918L373.212 206.918H373.212V186.317C376.22 189.677 383.249 192.034 391.439 192.034ZM410.187 205.834C410.187 209.429 407.272 212.344 403.677 212.344C400.082 212.344 397.168 209.429 397.168 205.834C397.168 202.239 400.082 199.324 403.677 199.324C407.272 199.324 410.187 202.239 410.187 205.834ZM404.735 204.376C404.735 204.104 404.645 203.886 404.465 203.721C404.285 203.557 404.046 203.474 403.748 203.474C403.565 203.474 403.399 203.514 403.25 203.593C403.101 203.672 402.973 203.788 402.866 203.939C402.764 204.085 402.627 204.169 402.453 204.191C402.279 204.213 402.128 204.167 402.002 204.053C401.913 203.971 401.864 203.87 401.855 203.75C401.845 203.629 401.875 203.515 401.945 203.408C402.147 203.104 402.405 202.868 402.718 202.701C403.032 202.533 403.375 202.449 403.748 202.449C404.362 202.449 404.86 202.623 405.243 202.971C405.626 203.319 405.817 203.775 405.817 204.338C405.817 204.623 405.757 204.879 405.637 205.107C405.517 205.335 405.295 205.604 404.973 205.914C404.739 206.135 404.58 206.307 404.498 206.431C404.416 206.554 404.362 206.695 404.337 206.853C404.311 207.005 404.247 207.132 404.142 207.233C404.038 207.334 403.913 207.385 403.767 207.385C403.622 207.385 403.497 207.336 403.392 207.238C403.288 207.14 403.236 207.018 403.236 206.872C403.236 206.625 403.29 206.399 403.397 206.194C403.505 205.988 403.685 205.771 403.938 205.543C404.261 205.259 404.474 205.039 404.579 204.884C404.683 204.729 404.735 204.559 404.735 204.376ZM403.748 209.663C403.539 209.663 403.361 209.588 403.212 209.44C403.063 209.291 402.989 209.112 402.989 208.903C402.989 208.694 403.063 208.516 403.212 208.367C403.361 208.218 403.539 208.144 403.748 208.144C403.957 208.144 404.136 208.218 404.285 208.367C404.433 208.516 404.508 208.694 404.508 208.903C404.508 209.112 404.433 209.291 404.285 209.44C404.136 209.588 403.957 209.663 403.748 209.663Z" fill="white"/>
<defs>
<clipPath id="clip0_27328_21539">
<rect width="22.4976" height="22.4976" fill="white" transform="translate(99.751 201.616)"/>
</clipPath>
</defs>
</svg>
