<svg width="811" height="362" viewBox="0 0 811 362" fill="none" xmlns="http://www.w3.org/2000/svg">
<path d="M146.4 108.046C151.18 99.2386 163.821 99.2386 168.6 108.046L233.053 226.806C237.62 235.221 231.527 245.459 221.953 245.459H93.0481C83.4735 245.459 77.3811 235.221 81.9481 226.806L146.4 108.046Z" fill="#326CE5"/>
<path fill-rule="evenodd" clip-rule="evenodd" d="M145.076 140.232C143.913 140.232 142.971 141.175 142.971 142.337V165.965C142.971 167.128 143.913 168.07 145.076 168.07H154.115V180.456H127.519H125.058V182.916V193.434H115.402C114.24 193.434 113.297 194.376 113.297 195.538V219.166C113.297 220.329 114.24 221.271 115.402 221.271H139.012C140.175 221.271 141.117 220.329 141.117 219.166V195.538C141.117 194.376 140.175 193.434 139.012 193.434H129.979V185.377H156.575H185.335V193.434H175.988C174.825 193.434 173.883 194.376 173.883 195.538V219.166C173.883 220.329 174.825 221.271 175.988 221.271H199.598C200.76 221.271 201.703 220.329 201.703 219.166V195.538C201.703 194.376 200.76 193.434 199.598 193.434H190.256V182.916V180.456H187.795H159.036V168.07H168.686C169.848 168.07 170.791 167.128 170.791 165.965V142.337C170.791 141.175 169.848 140.232 168.686 140.232H145.076Z" fill="white"/>
<path d="M631.825 180.07L234.647 180.07" stroke="#326CE5" stroke-width="12.0967" stroke-dasharray="8.06 8.06"/>
<path d="M246.418 159.595L206.815 178.902L246.418 199.201L233.235 179.224L246.418 159.595Z" fill="#CCCCCC"/>
<mask id="path-6-outside-1_27332_21849" maskUnits="userSpaceOnUse" x="210.903" y="129.765" width="94" height="28" fill="black">
<rect fill="white" x="210.903" y="129.765" width="94" height="28"/>
<path d="M224.153 143.394C225.775 144.346 226.65 145.917 226.65 147.745C226.65 151.065 224.205 153.125 220.189 153.125C216.199 153.125 213.727 151.065 213.727 147.745C213.727 145.917 214.628 144.346 216.224 143.394C215.066 142.596 214.345 141.334 214.345 139.661C214.345 136.186 217.048 134.409 220.189 134.409C223.355 134.409 226.058 136.186 226.058 139.661C226.058 141.334 225.312 142.596 224.153 143.394ZM220.189 137.73C218.85 137.73 217.872 138.528 217.872 139.867C217.872 141.154 218.85 141.978 220.189 141.978C221.527 141.978 222.506 141.154 222.506 139.867C222.506 138.528 221.527 137.73 220.189 137.73ZM220.189 149.778C221.888 149.778 223.124 148.903 223.124 147.307C223.124 145.711 221.888 144.81 220.189 144.81C218.49 144.81 217.254 145.711 217.254 147.307C217.254 148.903 218.49 149.778 220.189 149.778ZM235.644 153.125C231.036 153.125 228.436 149.315 228.436 143.754C228.436 138.194 231.036 134.409 235.644 134.409C240.227 134.409 242.852 138.194 242.852 143.754C242.852 149.315 240.227 153.125 235.644 153.125ZM235.644 149.675C238.038 149.675 239.3 147.564 239.3 143.754C239.3 139.944 238.038 137.859 235.644 137.859C233.224 137.859 231.963 139.944 231.963 143.754C231.963 147.564 233.224 149.675 235.644 149.675ZM245.733 155.339H245.115C244.806 155.339 244.651 155.159 244.78 154.85L254.743 132.479C254.846 132.247 254.975 132.17 255.206 132.17H255.824C256.133 132.17 256.288 132.35 256.159 132.659L246.196 155.03C246.093 155.262 245.964 155.339 245.733 155.339ZM269.145 134.744C269.557 134.744 269.763 134.976 269.763 135.362V137.55C269.763 137.936 269.557 138.142 269.145 138.142H265.412V152.172C265.412 152.559 265.206 152.765 264.82 152.765H262.503C262.091 152.765 261.885 152.559 261.885 152.172V138.142H258.152C257.766 138.142 257.534 137.936 257.534 137.55V135.362C257.534 134.976 257.766 134.744 258.152 134.744H265.412H269.145ZM279.287 153.125C273.829 153.125 269.89 149.032 269.89 143.754C269.89 138.503 273.829 134.409 279.287 134.409C283.303 134.409 286.752 136.881 287.859 140.511C287.962 140.922 287.731 141.18 287.319 141.18H284.822C284.487 141.18 284.281 141.025 284.127 140.717C283.329 138.966 281.449 137.859 279.287 137.859C275.76 137.859 273.443 140.305 273.443 143.754C273.443 147.23 275.76 149.675 279.287 149.675C281.449 149.675 283.329 148.568 284.127 146.818C284.281 146.509 284.487 146.329 284.822 146.329H287.319C287.731 146.329 287.962 146.586 287.859 146.972C286.778 150.602 283.329 153.125 279.287 153.125ZM296.817 134.744C300.215 134.744 302.893 137.421 302.893 140.742C302.893 144.037 300.215 146.715 296.817 146.715H293.625V152.172C293.625 152.559 293.419 152.765 293.007 152.765H290.69C290.304 152.765 290.098 152.559 290.098 152.172V135.362C290.098 134.976 290.304 134.744 290.69 134.744H293.625H296.817ZM296.817 143.394C298.259 143.394 299.366 142.235 299.366 140.742C299.366 139.249 298.259 138.065 296.817 138.065H293.625V143.394H296.817Z"/>
</mask>
<path d="M224.153 143.394C225.775 144.346 226.65 145.917 226.65 147.745C226.65 151.065 224.205 153.125 220.189 153.125C216.199 153.125 213.727 151.065 213.727 147.745C213.727 145.917 214.628 144.346 216.224 143.394C215.066 142.596 214.345 141.334 214.345 139.661C214.345 136.186 217.048 134.409 220.189 134.409C223.355 134.409 226.058 136.186 226.058 139.661C226.058 141.334 225.312 142.596 224.153 143.394ZM220.189 137.73C218.85 137.73 217.872 138.528 217.872 139.867C217.872 141.154 218.85 141.978 220.189 141.978C221.527 141.978 222.506 141.154 222.506 139.867C222.506 138.528 221.527 137.73 220.189 137.73ZM220.189 149.778C221.888 149.778 223.124 148.903 223.124 147.307C223.124 145.711 221.888 144.81 220.189 144.81C218.49 144.81 217.254 145.711 217.254 147.307C217.254 148.903 218.49 149.778 220.189 149.778ZM235.644 153.125C231.036 153.125 228.436 149.315 228.436 143.754C228.436 138.194 231.036 134.409 235.644 134.409C240.227 134.409 242.852 138.194 242.852 143.754C242.852 149.315 240.227 153.125 235.644 153.125ZM235.644 149.675C238.038 149.675 239.3 147.564 239.3 143.754C239.3 139.944 238.038 137.859 235.644 137.859C233.224 137.859 231.963 139.944 231.963 143.754C231.963 147.564 233.224 149.675 235.644 149.675ZM245.733 155.339H245.115C244.806 155.339 244.651 155.159 244.78 154.85L254.743 132.479C254.846 132.247 254.975 132.17 255.206 132.17H255.824C256.133 132.17 256.288 132.35 256.159 132.659L246.196 155.03C246.093 155.262 245.964 155.339 245.733 155.339ZM269.145 134.744C269.557 134.744 269.763 134.976 269.763 135.362V137.55C269.763 137.936 269.557 138.142 269.145 138.142H265.412V152.172C265.412 152.559 265.206 152.765 264.82 152.765H262.503C262.091 152.765 261.885 152.559 261.885 152.172V138.142H258.152C257.766 138.142 257.534 137.936 257.534 137.55V135.362C257.534 134.976 257.766 134.744 258.152 134.744H265.412H269.145ZM279.287 153.125C273.829 153.125 269.89 149.032 269.89 143.754C269.89 138.503 273.829 134.409 279.287 134.409C283.303 134.409 286.752 136.881 287.859 140.511C287.962 140.922 287.731 141.18 287.319 141.18H284.822C284.487 141.18 284.281 141.025 284.127 140.717C283.329 138.966 281.449 137.859 279.287 137.859C275.76 137.859 273.443 140.305 273.443 143.754C273.443 147.23 275.76 149.675 279.287 149.675C281.449 149.675 283.329 148.568 284.127 146.818C284.281 146.509 284.487 146.329 284.822 146.329H287.319C287.731 146.329 287.962 146.586 287.859 146.972C286.778 150.602 283.329 153.125 279.287 153.125ZM296.817 134.744C300.215 134.744 302.893 137.421 302.893 140.742C302.893 144.037 300.215 146.715 296.817 146.715H293.625V152.172C293.625 152.559 293.419 152.765 293.007 152.765H290.69C290.304 152.765 290.098 152.559 290.098 152.172V135.362C290.098 134.976 290.304 134.744 290.69 134.744H293.625H296.817ZM296.817 143.394C298.259 143.394 299.366 142.235 299.366 140.742C299.366 139.249 298.259 138.065 296.817 138.065H293.625V143.394H296.817Z" fill="#000D12"/>
<path d="M224.153 143.394L223.019 141.747L220.433 143.528L223.14 145.118L224.153 143.394ZM216.224 143.394L217.249 145.111L219.925 143.515L217.359 141.747L216.224 143.394ZM223.14 145.118C224.145 145.708 224.65 146.619 224.65 147.745H228.65C228.65 145.214 227.405 142.984 225.166 141.669L223.14 145.118ZM224.65 147.745C224.65 148.875 224.256 149.634 223.643 150.145C222.989 150.692 221.875 151.125 220.189 151.125V155.125C222.518 155.125 224.636 154.528 226.208 153.215C227.822 151.866 228.65 149.935 228.65 147.745H224.65ZM220.189 151.125C218.518 151.125 217.402 150.693 216.742 150.143C216.123 149.629 215.727 148.869 215.727 147.745H211.727C211.727 149.941 212.566 151.872 214.182 153.217C215.754 154.527 217.87 155.125 220.189 155.125V151.125ZM215.727 147.745C215.727 146.635 216.246 145.71 217.249 145.111L215.199 141.676C213.011 142.983 211.727 145.198 211.727 147.745H215.727ZM217.359 141.747C216.752 141.328 216.345 140.688 216.345 139.661H212.345C212.345 141.981 213.38 143.863 215.09 145.041L217.359 141.747ZM216.345 139.661C216.345 138.495 216.773 137.759 217.359 137.277C217.994 136.755 218.973 136.409 220.189 136.409V132.409C218.264 132.409 216.321 132.952 214.819 134.187C213.269 135.462 212.345 137.351 212.345 139.661H216.345ZM220.189 136.409C221.421 136.409 222.406 136.757 223.043 137.279C223.631 137.76 224.058 138.496 224.058 139.661H228.058C228.058 137.351 227.134 135.46 225.579 134.185C224.073 132.95 222.123 132.409 220.189 132.409V136.409ZM224.058 139.661C224.058 140.664 223.646 141.315 223.019 141.747L225.288 145.041C226.977 143.877 228.058 142.005 228.058 139.661H224.058ZM220.189 135.73C219.131 135.73 218.046 136.048 217.198 136.803C216.324 137.582 215.872 138.678 215.872 139.867H219.872C219.872 139.778 219.887 139.748 219.884 139.756C219.88 139.765 219.87 139.78 219.858 139.79C219.834 139.812 219.908 139.73 220.189 139.73V135.73ZM215.872 139.867C215.872 141.051 216.338 142.133 217.198 142.899C218.036 143.645 219.115 143.978 220.189 143.978V139.978C219.923 139.978 219.844 139.899 219.858 139.912C219.865 139.917 219.874 139.929 219.879 139.94C219.883 139.951 219.872 139.932 219.872 139.867H215.872ZM220.189 143.978C221.262 143.978 222.341 143.645 223.179 142.899C224.04 142.133 224.506 141.051 224.506 139.867H220.506C220.506 139.932 220.494 139.951 220.499 139.94C220.504 139.929 220.513 139.917 220.519 139.912C220.533 139.899 220.454 139.978 220.189 139.978V143.978ZM224.506 139.867C224.506 138.678 224.054 137.582 223.179 136.803C222.331 136.048 221.246 135.73 220.189 135.73V139.73C220.47 139.73 220.543 139.812 220.519 139.79C220.508 139.78 220.497 139.765 220.493 139.756C220.49 139.748 220.506 139.778 220.506 139.867H224.506ZM220.189 151.778C221.358 151.778 222.575 151.479 223.545 150.701C224.568 149.88 225.124 148.674 225.124 147.307H221.124C221.124 147.444 221.098 147.506 221.09 147.524C221.083 147.539 221.072 147.556 221.042 147.581C220.968 147.64 220.719 147.778 220.189 147.778V151.778ZM225.124 147.307C225.124 145.942 224.57 144.735 223.557 143.909C222.59 143.122 221.37 142.81 220.189 142.81V146.81C220.706 146.81 220.954 146.948 221.03 147.01C221.064 147.038 221.078 147.059 221.088 147.081C221.098 147.103 221.124 147.17 221.124 147.307H225.124ZM220.189 142.81C219.007 142.81 217.787 143.122 216.821 143.909C215.807 144.735 215.254 145.942 215.254 147.307H219.254C219.254 147.17 219.279 147.103 219.29 147.081C219.3 147.059 219.314 147.038 219.348 147.01C219.424 146.948 219.671 146.81 220.189 146.81V142.81ZM215.254 147.307C215.254 148.674 215.81 149.88 216.832 150.701C217.802 151.479 219.02 151.778 220.189 151.778V147.778C219.658 147.778 219.409 147.64 219.336 147.581C219.305 147.556 219.295 147.539 219.287 147.524C219.279 147.506 219.254 147.444 219.254 147.307H215.254ZM235.644 151.125C233.962 151.125 232.759 150.463 231.917 149.331C231.024 148.131 230.436 146.254 230.436 143.754H226.436C226.436 146.815 227.148 149.623 228.708 151.719C230.317 153.882 232.718 155.125 235.644 155.125V151.125ZM230.436 143.754C230.436 141.255 231.024 139.385 231.914 138.194C232.754 137.069 233.957 136.409 235.644 136.409V132.409C232.723 132.409 230.322 133.642 228.71 135.8C227.148 137.89 226.436 140.693 226.436 143.754H230.436ZM235.644 136.409C237.316 136.409 238.521 137.067 239.366 138.196C240.26 139.389 240.852 141.259 240.852 143.754H244.852C244.852 140.689 244.132 137.887 242.567 135.798C240.954 133.644 238.555 132.409 235.644 132.409V136.409ZM240.852 143.754C240.852 146.25 240.26 148.128 239.364 149.329C238.516 150.465 237.311 151.125 235.644 151.125V155.125C238.56 155.125 240.959 153.88 242.57 151.721C244.132 149.627 244.852 146.82 244.852 143.754H240.852ZM235.644 151.675C237.55 151.675 239.104 150.775 240.076 149.188C240.966 147.733 241.3 145.825 241.3 143.754H237.3C237.3 145.493 237.002 146.546 236.664 147.099C236.406 147.521 236.132 147.675 235.644 147.675V151.675ZM241.3 143.754C241.3 141.684 240.967 139.78 240.073 138.329C239.096 136.744 237.54 135.859 235.644 135.859V139.859C236.142 139.859 236.414 140.016 236.667 140.427C237.002 140.971 237.3 142.014 237.3 143.754H241.3ZM235.644 135.859C233.744 135.859 232.179 136.737 231.196 138.325C230.296 139.778 229.963 141.685 229.963 143.754H233.963C233.963 142.014 234.261 140.973 234.596 140.431C234.849 140.024 235.125 139.859 235.644 139.859V135.859ZM229.963 143.754C229.963 145.825 230.296 147.735 231.193 149.192C232.171 150.782 233.734 151.675 235.644 151.675V147.675C235.135 147.675 234.856 147.513 234.599 147.095C234.26 146.544 233.963 145.494 233.963 143.754H229.963ZM244.78 154.85L242.953 154.036L242.943 154.058L242.934 154.081L244.78 154.85ZM254.743 132.479L256.57 133.292L256.571 133.291L254.743 132.479ZM256.159 132.659L257.986 133.472L257.996 133.45L258.005 133.428L256.159 132.659ZM246.196 155.03L244.369 154.216L244.368 154.218L246.196 155.03ZM245.733 153.339H245.115V157.339H245.733V153.339ZM245.115 153.339C245.273 153.339 245.925 153.382 246.398 154.03C246.911 154.732 246.705 155.429 246.626 155.619L242.934 154.081C242.726 154.58 242.533 155.521 243.169 156.39C243.764 157.205 244.648 157.339 245.115 157.339V153.339ZM246.607 155.663L256.57 133.292L252.916 131.665L242.953 154.036L246.607 155.663ZM256.571 133.291C256.536 133.368 256.388 133.672 256.019 133.912C255.645 134.156 255.3 134.17 255.206 134.17V130.17C254.881 130.17 254.355 130.222 253.834 130.562C253.316 130.899 253.053 131.357 252.915 131.666L256.571 133.291ZM255.206 134.17H255.824V130.17H255.206V134.17ZM255.824 134.17C255.666 134.17 255.014 134.126 254.541 133.478C254.028 132.776 254.233 132.08 254.313 131.89L258.005 133.428C258.213 132.929 258.406 131.988 257.77 131.118C257.175 130.303 256.291 130.17 255.824 130.17V134.17ZM254.332 131.845L244.369 154.216L248.023 155.844L257.986 133.472L254.332 131.845ZM244.368 154.218C244.403 154.14 244.551 153.837 244.92 153.596C245.294 153.353 245.639 153.339 245.733 153.339V157.339C246.058 157.339 246.584 157.287 247.105 156.947C247.623 156.609 247.886 156.151 248.024 155.842L244.368 154.218ZM265.412 138.142V136.142H263.412V138.142H265.412ZM261.885 138.142H263.885V136.142H261.885V138.142ZM269.145 136.744C268.981 136.744 268.55 136.69 268.172 136.3C267.805 135.921 267.763 135.508 267.763 135.362H271.763C271.763 134.829 271.618 134.107 271.044 133.516C270.46 132.914 269.721 132.744 269.145 132.744V136.744ZM267.763 135.362V137.55H271.763V135.362H267.763ZM267.763 137.55C267.763 137.402 267.807 136.951 268.217 136.554C268.615 136.169 269.042 136.142 269.145 136.142V140.142C269.659 140.142 270.396 140.013 271 139.427C271.615 138.831 271.763 138.085 271.763 137.55H267.763ZM269.145 136.142H265.412V140.142H269.145V136.142ZM263.412 138.142V152.172H267.412V138.142H263.412ZM263.412 152.172C263.412 152.024 263.456 151.59 263.847 151.199C264.237 150.808 264.672 150.765 264.82 150.765V154.765C265.354 154.765 266.085 154.618 266.675 154.027C267.265 153.437 267.412 152.707 267.412 152.172H263.412ZM264.82 150.765H262.503V154.765H264.82V150.765ZM262.503 150.765C262.606 150.765 263.033 150.791 263.431 151.177C263.84 151.573 263.885 152.024 263.885 152.172H259.885C259.885 152.707 260.033 153.454 260.648 154.05C261.252 154.635 261.989 154.765 262.503 154.765V150.765ZM263.885 152.172V138.142H259.885V152.172H263.885ZM261.885 136.142H258.152V140.142H261.885V136.142ZM258.152 136.142C258.298 136.142 258.696 136.184 259.068 136.533C259.46 136.901 259.534 137.337 259.534 137.55H255.534C255.534 138.149 255.725 138.881 256.329 139.449C256.914 139.998 257.62 140.142 258.152 140.142V136.142ZM259.534 137.55V135.362H255.534V137.55H259.534ZM259.534 135.362C259.534 135.57 259.464 135.971 259.113 136.322C258.761 136.674 258.36 136.744 258.152 136.744V132.744C257.558 132.744 256.848 132.93 256.284 133.494C255.721 134.058 255.534 134.768 255.534 135.362H259.534ZM258.152 136.744H265.412V132.744H258.152V136.744ZM265.412 136.744H269.145V132.744H265.412V136.744ZM287.859 140.511L289.8 140.025L289.787 139.976L289.772 139.927L287.859 140.511ZM284.127 140.717L282.307 141.546L282.322 141.579L282.338 141.611L284.127 140.717ZM284.127 146.818L282.338 145.923L282.322 145.955L282.307 145.988L284.127 146.818ZM287.859 146.972L289.776 147.543L289.784 147.515L289.792 147.488L287.859 146.972ZM279.287 151.125C274.952 151.125 271.89 147.945 271.89 143.754H267.89C267.89 150.118 272.707 155.125 279.287 155.125V151.125ZM271.89 143.754C271.89 139.593 274.948 136.409 279.287 136.409V132.409C272.71 132.409 267.89 137.413 267.89 143.754H271.89ZM279.287 136.409C282.483 136.409 285.113 138.362 285.946 141.094L289.772 139.927C288.392 135.399 284.122 132.409 279.287 132.409V136.409ZM285.919 140.996C285.862 140.766 285.826 140.223 286.246 139.719C286.643 139.243 287.135 139.18 287.319 139.18V143.18C287.915 143.18 288.729 142.988 289.319 142.28C289.931 141.545 289.96 140.667 289.8 140.025L285.919 140.996ZM287.319 139.18H284.822V143.18H287.319V139.18ZM284.822 139.18C284.98 139.18 285.258 139.223 285.538 139.415C285.794 139.59 285.898 139.787 285.915 139.822L282.338 141.611C282.51 141.955 282.794 142.383 283.276 142.714C283.78 143.06 284.329 143.18 284.822 143.18V139.18ZM285.946 139.887C284.774 137.316 282.107 135.859 279.287 135.859V139.859C280.791 139.859 281.883 140.616 282.307 141.546L285.946 139.887ZM279.287 135.859C277.045 135.859 275.049 136.646 273.613 138.114C272.182 139.577 271.443 141.575 271.443 143.754H275.443C275.443 142.484 275.863 141.534 276.472 140.912C277.076 140.294 278.002 139.859 279.287 139.859V135.859ZM271.443 143.754C271.443 145.943 272.179 147.947 273.611 149.415C275.047 150.888 277.045 151.675 279.287 151.675V147.675C278.002 147.675 277.077 147.24 276.474 146.622C275.865 145.997 275.443 145.041 275.443 143.754H271.443ZM279.287 151.675C282.107 151.675 284.774 150.218 285.946 147.647L282.307 145.988C281.883 146.918 280.791 147.675 279.287 147.675V151.675ZM285.915 147.712C285.911 147.721 285.826 147.895 285.599 148.063C285.337 148.258 285.045 148.329 284.822 148.329V144.329C284.264 144.329 283.701 144.49 283.214 144.852C282.762 145.187 282.497 145.605 282.338 145.923L285.915 147.712ZM284.822 148.329H287.319V144.329H284.822V148.329ZM287.319 148.329C287.136 148.329 286.658 148.267 286.264 147.807C285.835 147.308 285.85 146.744 285.927 146.457L289.792 147.488C289.971 146.814 289.922 145.929 289.301 145.204C288.714 144.519 287.914 144.329 287.319 144.329V148.329ZM285.943 146.401C285.129 149.134 282.496 151.125 279.287 151.125V155.125C284.161 155.125 288.428 152.07 289.776 147.543L285.943 146.401ZM293.625 146.715V144.715H291.625V146.715H293.625ZM293.625 138.065V136.065H291.625V138.065H293.625ZM293.625 143.394H291.625V145.394H293.625V143.394ZM296.817 136.744C299.127 136.744 300.893 138.543 300.893 140.742H304.893C304.893 136.3 301.303 132.744 296.817 132.744V136.744ZM300.893 140.742C300.893 142.911 299.133 144.715 296.817 144.715V148.715C301.297 148.715 304.893 145.164 304.893 140.742H300.893ZM296.817 144.715H293.625V148.715H296.817V144.715ZM291.625 146.715V152.172H295.625V146.715H291.625ZM291.625 152.172C291.625 152.024 291.67 151.573 292.079 151.177C292.477 150.791 292.904 150.765 293.007 150.765V154.765C293.521 154.765 294.258 154.635 294.862 154.05C295.477 153.454 295.625 152.707 295.625 152.172H291.625ZM293.007 150.765H290.69V154.765H293.007V150.765ZM290.69 150.765C290.838 150.765 291.273 150.808 291.663 151.199C292.054 151.59 292.098 152.024 292.098 152.172H288.098C288.098 152.707 288.245 153.437 288.835 154.027C289.425 154.618 290.156 154.765 290.69 154.765V150.765ZM292.098 152.172V135.362H288.098V152.172H292.098ZM292.098 135.362C292.098 135.508 292.057 135.905 291.707 136.277C291.339 136.669 290.903 136.744 290.69 136.744V132.744C290.091 132.744 289.359 132.935 288.791 133.539C288.242 134.123 288.098 134.83 288.098 135.362H292.098ZM290.69 136.744H293.625V132.744H290.69V136.744ZM293.625 136.744H296.817V132.744H293.625V136.744ZM296.817 145.394C299.44 145.394 301.366 143.261 301.366 140.742H297.366C297.366 140.987 297.279 141.15 297.189 141.243C297.102 141.334 296.983 141.394 296.817 141.394V145.394ZM301.366 140.742C301.366 138.249 299.465 136.065 296.817 136.065V140.065C296.969 140.065 297.087 140.121 297.18 140.219C297.277 140.321 297.366 140.495 297.366 140.742H301.366ZM296.817 136.065H293.625V140.065H296.817V136.065ZM291.625 138.065V143.394H295.625V138.065H291.625ZM293.625 145.394H296.817V141.394H293.625V145.394Z" fill="white" mask="url(#path-6-outside-1_27332_21849)"/>
<path d="M642.4 108.046C647.18 99.2386 659.821 99.2386 664.6 108.046L729.053 226.806C733.62 235.221 727.527 245.459 717.953 245.459H589.048C579.474 245.459 573.381 235.221 577.948 226.806L642.4 108.046Z" fill="#326CE5"/>
<path fill-rule="evenodd" clip-rule="evenodd" d="M641.076 140.232C639.913 140.232 638.971 141.175 638.971 142.337V165.965C638.971 167.128 639.913 168.07 641.076 168.07H650.115V180.456H623.519H621.058V182.916V193.434H611.402C610.24 193.434 609.297 194.376 609.297 195.538V219.166C609.297 220.329 610.24 221.271 611.402 221.271H635.012C636.175 221.271 637.117 220.329 637.117 219.166V195.538C637.117 194.376 636.175 193.434 635.012 193.434H625.979V185.377H652.575H681.335V193.434H671.988C670.825 193.434 669.883 194.376 669.883 195.538V219.166C669.883 220.329 670.825 221.271 671.988 221.271H695.598C696.76 221.271 697.703 220.329 697.703 219.166V195.538C697.703 194.376 696.76 193.434 695.598 193.434H686.256V182.916V180.456H683.795H655.036V168.07H664.686C665.848 168.07 666.791 167.128 666.791 165.965V142.337C666.791 141.175 665.848 140.232 664.686 140.232H641.076Z" fill="white"/>
</svg>
