<svg width="811" height="362" viewBox="0 0 811 362" fill="none" xmlns="http://www.w3.org/2000/svg">
<path d="M152.947 108.046C157.726 99.2386 170.367 99.2386 175.147 108.046L239.599 226.806C244.166 235.221 238.074 245.459 228.499 245.459H99.5945C90.0199 245.459 83.9275 235.221 88.4945 226.806L152.947 108.046Z" fill="#326CE5"/>
<path fill-rule="evenodd" clip-rule="evenodd" d="M151.622 140.232C150.46 140.232 149.517 141.175 149.517 142.337V165.965C149.517 167.128 150.46 168.07 151.622 168.07H160.661V180.456H134.065H131.605V182.916V193.433H121.949C120.786 193.433 119.844 194.376 119.844 195.538V219.166C119.844 220.329 120.786 221.271 121.949 221.271H145.559C146.721 221.271 147.664 220.329 147.664 219.166V195.538C147.664 194.376 146.721 193.433 145.559 193.433H136.526V185.377H191.881V193.433H182.534C181.372 193.433 180.429 194.376 180.429 195.538V219.166C180.429 220.329 181.372 221.271 182.534 221.271H206.144C207.307 221.271 208.249 220.329 208.249 219.166V195.538C208.249 194.376 207.307 193.433 206.144 193.433H196.802V182.916V180.456H194.342H165.582V168.07H175.232C176.395 168.07 177.337 167.128 177.337 165.965V142.337C177.337 141.175 176.395 140.232 175.232 140.232H151.622Z" fill="white"/>
<path d="M203 180.07L591.54 180.07" stroke="#326CE5" stroke-width="12.0967" stroke-dasharray="8.06 8.06"/>
<path d="M579.77 159.595L619.372 178.902L579.77 199.201L592.952 179.224L579.77 159.595Z" fill="#CCCCCC"/>
<mask id="path-6-outside-1_27349_21450" maskUnits="userSpaceOnUse" x="487.45" y="129.765" width="94" height="28" fill="black">
<rect fill="white" x="487.45" y="129.765" width="94" height="28"/>
<path d="M500.7 143.394C502.322 144.346 503.197 145.917 503.197 147.745C503.197 151.065 500.751 153.125 496.735 153.125C492.745 153.125 490.274 151.065 490.274 147.745C490.274 145.917 491.175 144.346 492.771 143.394C491.612 142.596 490.891 141.334 490.891 139.661C490.891 136.186 493.594 134.409 496.735 134.409C499.902 134.409 502.605 136.186 502.605 139.661C502.605 141.334 501.858 142.596 500.7 143.394ZM496.735 137.73C495.396 137.73 494.418 138.528 494.418 139.867C494.418 141.154 495.396 141.978 496.735 141.978C498.074 141.978 499.052 141.154 499.052 139.867C499.052 138.528 498.074 137.73 496.735 137.73ZM496.735 149.778C498.434 149.778 499.67 148.903 499.67 147.307C499.67 145.711 498.434 144.81 496.735 144.81C495.036 144.81 493.8 145.711 493.8 147.307C493.8 148.903 495.036 149.778 496.735 149.778ZM512.191 153.125C507.582 153.125 504.982 149.315 504.982 143.754C504.982 138.194 507.582 134.409 512.191 134.409C516.773 134.409 519.399 138.194 519.399 143.754C519.399 149.315 516.773 153.125 512.191 153.125ZM512.191 149.675C514.585 149.675 515.846 147.564 515.846 143.754C515.846 139.944 514.585 137.859 512.191 137.859C509.771 137.859 508.509 139.944 508.509 143.754C508.509 147.564 509.771 149.675 512.191 149.675ZM522.279 155.339H521.661C521.352 155.339 521.198 155.159 521.327 154.85L531.289 132.479C531.392 132.247 531.521 132.17 531.753 132.17H532.371C532.679 132.17 532.834 132.35 532.705 132.659L522.742 155.03C522.639 155.262 522.511 155.339 522.279 155.339ZM545.691 134.744C546.103 134.744 546.309 134.976 546.309 135.362V137.55C546.309 137.936 546.103 138.142 545.691 138.142H541.958V152.172C541.958 152.559 541.752 152.765 541.366 152.765H539.049C538.637 152.765 538.432 152.559 538.432 152.172V138.142H534.699C534.313 138.142 534.081 137.936 534.081 137.55V135.362C534.081 134.976 534.313 134.744 534.699 134.744H541.958H545.691ZM555.833 153.125C550.376 153.125 546.437 149.032 546.437 143.754C546.437 138.503 550.376 134.409 555.833 134.409C559.849 134.409 563.299 136.881 564.406 140.511C564.509 140.922 564.277 141.18 563.865 141.18H561.368C561.033 141.18 560.827 141.025 560.673 140.717C559.875 138.966 557.996 137.859 555.833 137.859C552.306 137.859 549.989 140.305 549.989 143.754C549.989 147.23 552.306 149.675 555.833 149.675C557.996 149.675 559.875 148.568 560.673 146.818C560.827 146.509 561.033 146.329 561.368 146.329H563.865C564.277 146.329 564.509 146.586 564.406 146.972C563.325 150.602 559.875 153.125 555.833 153.125ZM573.363 134.744C576.762 134.744 579.439 137.421 579.439 140.742C579.439 144.037 576.762 146.715 573.363 146.715H570.171V152.172C570.171 152.559 569.965 152.765 569.553 152.765H567.236C566.85 152.765 566.644 152.559 566.644 152.172V135.362C566.644 134.976 566.85 134.744 567.236 134.744H570.171H573.363ZM573.363 143.394C574.805 143.394 575.912 142.235 575.912 140.742C575.912 139.249 574.805 138.065 573.363 138.065H570.171V143.394H573.363Z"/>
</mask>
<path d="M500.7 143.394C502.322 144.346 503.197 145.917 503.197 147.745C503.197 151.065 500.751 153.125 496.735 153.125C492.745 153.125 490.274 151.065 490.274 147.745C490.274 145.917 491.175 144.346 492.771 143.394C491.612 142.596 490.891 141.334 490.891 139.661C490.891 136.186 493.594 134.409 496.735 134.409C499.902 134.409 502.605 136.186 502.605 139.661C502.605 141.334 501.858 142.596 500.7 143.394ZM496.735 137.73C495.396 137.73 494.418 138.528 494.418 139.867C494.418 141.154 495.396 141.978 496.735 141.978C498.074 141.978 499.052 141.154 499.052 139.867C499.052 138.528 498.074 137.73 496.735 137.73ZM496.735 149.778C498.434 149.778 499.67 148.903 499.67 147.307C499.67 145.711 498.434 144.81 496.735 144.81C495.036 144.81 493.8 145.711 493.8 147.307C493.8 148.903 495.036 149.778 496.735 149.778ZM512.191 153.125C507.582 153.125 504.982 149.315 504.982 143.754C504.982 138.194 507.582 134.409 512.191 134.409C516.773 134.409 519.399 138.194 519.399 143.754C519.399 149.315 516.773 153.125 512.191 153.125ZM512.191 149.675C514.585 149.675 515.846 147.564 515.846 143.754C515.846 139.944 514.585 137.859 512.191 137.859C509.771 137.859 508.509 139.944 508.509 143.754C508.509 147.564 509.771 149.675 512.191 149.675ZM522.279 155.339H521.661C521.352 155.339 521.198 155.159 521.327 154.85L531.289 132.479C531.392 132.247 531.521 132.17 531.753 132.17H532.371C532.679 132.17 532.834 132.35 532.705 132.659L522.742 155.03C522.639 155.262 522.511 155.339 522.279 155.339ZM545.691 134.744C546.103 134.744 546.309 134.976 546.309 135.362V137.55C546.309 137.936 546.103 138.142 545.691 138.142H541.958V152.172C541.958 152.559 541.752 152.765 541.366 152.765H539.049C538.637 152.765 538.432 152.559 538.432 152.172V138.142H534.699C534.313 138.142 534.081 137.936 534.081 137.55V135.362C534.081 134.976 534.313 134.744 534.699 134.744H541.958H545.691ZM555.833 153.125C550.376 153.125 546.437 149.032 546.437 143.754C546.437 138.503 550.376 134.409 555.833 134.409C559.849 134.409 563.299 136.881 564.406 140.511C564.509 140.922 564.277 141.18 563.865 141.18H561.368C561.033 141.18 560.827 141.025 560.673 140.717C559.875 138.966 557.996 137.859 555.833 137.859C552.306 137.859 549.989 140.305 549.989 143.754C549.989 147.23 552.306 149.675 555.833 149.675C557.996 149.675 559.875 148.568 560.673 146.818C560.827 146.509 561.033 146.329 561.368 146.329H563.865C564.277 146.329 564.509 146.586 564.406 146.972C563.325 150.602 559.875 153.125 555.833 153.125ZM573.363 134.744C576.762 134.744 579.439 137.421 579.439 140.742C579.439 144.037 576.762 146.715 573.363 146.715H570.171V152.172C570.171 152.559 569.965 152.765 569.553 152.765H567.236C566.85 152.765 566.644 152.559 566.644 152.172V135.362C566.644 134.976 566.85 134.744 567.236 134.744H570.171H573.363ZM573.363 143.394C574.805 143.394 575.912 142.235 575.912 140.742C575.912 139.249 574.805 138.065 573.363 138.065H570.171V143.394H573.363Z" fill="#000D12"/>
<path d="M500.7 143.394L499.565 141.747L496.979 143.528L499.687 145.118L500.7 143.394ZM492.771 143.394L493.796 145.111L496.471 143.515L493.905 141.747L492.771 143.394ZM499.687 145.118C500.691 145.708 501.197 146.619 501.197 147.745H505.197C505.197 145.214 503.952 142.984 501.713 141.669L499.687 145.118ZM501.197 147.745C501.197 148.875 500.802 149.634 500.19 150.145C499.535 150.692 498.422 151.125 496.735 151.125V155.125C499.064 155.125 501.182 154.528 502.754 153.215C504.369 151.866 505.197 149.935 505.197 147.745H501.197ZM496.735 151.125C495.064 151.125 493.948 150.693 493.288 150.143C492.67 149.629 492.274 148.869 492.274 147.745H488.274C488.274 149.941 489.113 151.872 490.728 153.217C492.301 154.527 494.416 155.125 496.735 155.125V151.125ZM492.274 147.745C492.274 146.635 492.792 145.71 493.796 145.111L491.746 141.676C489.557 142.983 488.274 145.198 488.274 147.745H492.274ZM493.905 141.747C493.298 141.328 492.891 140.688 492.891 139.661H488.891C488.891 141.981 489.926 143.863 491.636 145.041L493.905 141.747ZM492.891 139.661C492.891 138.495 493.319 137.759 493.906 137.277C494.54 136.755 495.52 136.409 496.735 136.409V132.409C494.81 132.409 492.867 132.952 491.365 134.187C489.815 135.462 488.891 137.351 488.891 139.661H492.891ZM496.735 136.409C497.967 136.409 498.953 136.757 499.589 137.279C500.177 137.76 500.605 138.496 500.605 139.661H504.605C504.605 137.351 503.681 135.46 502.125 134.185C500.619 132.95 498.67 132.409 496.735 132.409V136.409ZM500.605 139.661C500.605 140.664 500.192 141.315 499.565 141.747L501.834 145.041C503.524 143.877 504.605 142.005 504.605 139.661H500.605ZM496.735 135.73C495.678 135.73 494.593 136.048 493.745 136.803C492.87 137.582 492.418 138.678 492.418 139.867H496.418C496.418 139.778 496.434 139.748 496.431 139.756C496.427 139.765 496.416 139.78 496.405 139.79C496.381 139.812 496.454 139.73 496.735 139.73V135.73ZM492.418 139.867C492.418 141.051 492.884 142.133 493.745 142.899C494.582 143.645 495.662 143.978 496.735 143.978V139.978C496.47 139.978 496.391 139.899 496.405 139.912C496.411 139.917 496.42 139.929 496.425 139.94C496.43 139.951 496.418 139.932 496.418 139.867H492.418ZM496.735 143.978C497.809 143.978 498.888 143.645 499.726 142.899C500.586 142.133 501.052 141.051 501.052 139.867H497.052C497.052 139.932 497.04 139.951 497.045 139.94C497.05 139.929 497.059 139.917 497.065 139.912C497.08 139.899 497 139.978 496.735 139.978V143.978ZM501.052 139.867C501.052 138.678 500.6 137.582 499.726 136.803C498.878 136.048 497.793 135.73 496.735 135.73V139.73C497.016 139.73 497.09 139.812 497.065 139.79C497.054 139.78 497.044 139.765 497.04 139.756C497.037 139.748 497.052 139.778 497.052 139.867H501.052ZM496.735 151.778C497.904 151.778 499.122 151.479 500.091 150.701C501.114 149.88 501.67 148.674 501.67 147.307H497.67C497.67 147.444 497.644 147.506 497.636 147.524C497.629 147.539 497.619 147.556 497.588 147.581C497.515 147.64 497.265 147.778 496.735 147.778V151.778ZM501.67 147.307C501.67 145.942 501.117 144.735 500.103 143.909C499.137 143.122 497.917 142.81 496.735 142.81V146.81C497.253 146.81 497.5 146.948 497.576 147.01C497.61 147.038 497.624 147.059 497.634 147.081C497.644 147.103 497.67 147.17 497.67 147.307H501.67ZM496.735 142.81C495.553 142.81 494.333 143.122 493.367 143.909C492.354 144.735 491.8 145.942 491.8 147.307H495.8C495.8 147.17 495.826 147.103 495.836 147.081C495.846 147.059 495.86 147.038 495.894 147.01C495.97 146.948 496.218 146.81 496.735 146.81V142.81ZM491.8 147.307C491.8 148.674 492.356 149.88 493.379 150.701C494.348 151.479 495.566 151.778 496.735 151.778V147.778C496.205 147.778 495.955 147.64 495.882 147.581C495.851 147.556 495.841 147.539 495.834 147.524C495.826 147.506 495.8 147.444 495.8 147.307H491.8ZM512.191 151.125C510.508 151.125 509.305 150.463 508.463 149.331C507.57 148.131 506.982 146.254 506.982 143.754H502.982C502.982 146.815 503.694 149.623 505.254 151.719C506.864 153.882 509.265 155.125 512.191 155.125V151.125ZM506.982 143.754C506.982 141.255 507.57 139.385 508.461 138.194C509.301 137.069 510.503 136.409 512.191 136.409V132.409C509.27 132.409 506.868 133.642 505.256 135.8C503.694 137.89 502.982 140.693 502.982 143.754H506.982ZM512.191 136.409C513.862 136.409 515.067 137.067 515.912 138.196C516.806 139.389 517.399 141.259 517.399 143.754H521.399C521.399 140.689 520.678 137.887 519.114 135.798C517.501 133.644 515.101 132.409 512.191 132.409V136.409ZM517.399 143.754C517.399 146.25 516.806 148.128 515.91 149.329C515.062 150.465 513.857 151.125 512.191 151.125V155.125C515.106 155.125 517.505 153.88 519.116 151.721C520.679 149.627 521.399 146.82 521.399 143.754H517.399ZM512.191 151.675C514.097 151.675 515.651 150.775 516.622 149.188C517.513 147.733 517.846 145.825 517.846 143.754H513.846C513.846 145.493 513.549 146.546 513.21 147.099C512.953 147.521 512.679 147.675 512.191 147.675V151.675ZM517.846 143.754C517.846 141.684 517.513 139.78 516.619 138.329C515.643 136.744 514.087 135.859 512.191 135.859V139.859C512.689 139.859 512.96 140.016 513.213 140.427C513.549 140.971 513.846 142.014 513.846 143.754H517.846ZM512.191 135.859C510.29 135.859 508.726 136.737 507.742 138.325C506.842 139.778 506.509 141.685 506.509 143.754H510.509C510.509 142.014 510.807 140.973 511.143 140.431C511.395 140.024 511.671 139.859 512.191 139.859V135.859ZM506.509 143.754C506.509 145.825 506.842 147.735 507.739 149.192C508.718 150.782 510.28 151.675 512.191 151.675V147.675C511.681 147.675 511.403 147.513 511.146 147.095C510.807 146.544 510.509 145.494 510.509 143.754H506.509ZM521.327 154.85L519.5 154.036L519.49 154.058L519.48 154.081L521.327 154.85ZM531.289 132.479L533.116 133.292L533.117 133.291L531.289 132.479ZM532.705 132.659L534.532 133.472L534.542 133.45L534.551 133.428L532.705 132.659ZM522.742 155.03L520.915 154.216L520.915 154.218L522.742 155.03ZM522.279 153.339H521.661V157.339H522.279V153.339ZM521.661 153.339C521.819 153.339 522.471 153.382 522.945 154.03C523.458 154.732 523.252 155.429 523.173 155.619L519.48 154.081C519.272 154.58 519.08 155.521 519.715 156.39C520.311 157.205 521.194 157.339 521.661 157.339V153.339ZM523.154 155.663L533.116 133.292L529.462 131.665L519.5 154.036L523.154 155.663ZM533.117 133.291C533.083 133.368 532.935 133.672 532.565 133.912C532.192 134.156 531.847 134.17 531.753 134.17V130.17C531.427 130.17 530.902 130.222 530.38 130.562C529.863 130.899 529.599 131.357 529.462 131.666L533.117 133.291ZM531.753 134.17H532.371V130.17H531.753V134.17ZM532.371 134.17C532.212 134.17 531.56 134.126 531.087 133.478C530.574 132.776 530.78 132.08 530.859 131.89L534.551 133.428C534.759 132.929 534.952 131.988 534.317 131.118C533.721 130.303 532.838 130.17 532.371 130.17V134.17ZM530.878 131.845L520.915 154.216L524.569 155.844L534.532 133.472L530.878 131.845ZM520.915 154.218C520.949 154.14 521.097 153.837 521.466 153.596C521.84 153.353 522.185 153.339 522.279 153.339V157.339C522.605 157.339 523.13 157.287 523.652 156.947C524.169 156.609 524.433 156.151 524.57 155.842L520.915 154.218ZM541.958 138.142V136.142H539.958V138.142H541.958ZM538.432 138.142H540.432V136.142H538.432V138.142ZM545.691 136.744C545.527 136.744 545.097 136.69 544.719 136.3C544.351 135.921 544.309 135.508 544.309 135.362H548.309C548.309 134.829 548.164 134.107 547.59 133.516C547.006 132.914 546.267 132.744 545.691 132.744V136.744ZM544.309 135.362V137.55H548.309V135.362H544.309ZM544.309 137.55C544.309 137.402 544.354 136.951 544.763 136.554C545.161 136.169 545.589 136.142 545.691 136.142V140.142C546.206 140.142 546.942 140.013 547.546 139.427C548.161 138.831 548.309 138.085 548.309 137.55H544.309ZM545.691 136.142H541.958V140.142H545.691V136.142ZM539.958 138.142V152.172H543.958V138.142H539.958ZM539.958 152.172C539.958 152.024 540.002 151.59 540.393 151.199C540.784 150.808 541.218 150.765 541.366 150.765V154.765C541.9 154.765 542.631 154.618 543.221 154.027C543.812 153.437 543.958 152.707 543.958 152.172H539.958ZM541.366 150.765H539.049V154.765H541.366V150.765ZM539.049 150.765C539.152 150.765 539.579 150.791 539.978 151.177C540.387 151.573 540.432 152.024 540.432 152.172H536.432C536.432 152.707 536.579 153.454 537.194 154.05C537.799 154.635 538.535 154.765 539.049 154.765V150.765ZM540.432 152.172V138.142H536.432V152.172H540.432ZM538.432 136.142H534.699V140.142H538.432V136.142ZM534.699 136.142C534.845 136.142 535.242 136.184 535.614 136.533C536.006 136.901 536.081 137.337 536.081 137.55H532.081C532.081 138.149 532.272 138.881 532.876 139.449C533.46 139.998 534.167 140.142 534.699 140.142V136.142ZM536.081 137.55V135.362H532.081V137.55H536.081ZM536.081 135.362C536.081 135.57 536.011 135.971 535.659 136.322C535.308 136.674 534.907 136.744 534.699 136.744V132.744C534.105 132.744 533.395 132.93 532.831 133.494C532.267 134.058 532.081 134.768 532.081 135.362H536.081ZM534.699 136.744H541.958V132.744H534.699V136.744ZM541.958 136.744H545.691V132.744H541.958V136.744ZM564.406 140.511L566.346 140.025L566.334 139.976L566.319 139.927L564.406 140.511ZM560.673 140.717L558.853 141.546L558.868 141.579L558.884 141.611L560.673 140.717ZM560.673 146.818L558.884 145.923L558.868 145.955L558.853 145.988L560.673 146.818ZM564.406 146.972L566.323 147.543L566.331 147.515L566.338 147.488L564.406 146.972ZM555.833 151.125C551.498 151.125 548.437 147.945 548.437 143.754H544.437C544.437 150.118 549.253 155.125 555.833 155.125V151.125ZM548.437 143.754C548.437 139.593 551.495 136.409 555.833 136.409V132.409C549.257 132.409 544.437 137.413 544.437 143.754H548.437ZM555.833 136.409C559.03 136.409 561.66 138.362 562.493 141.094L566.319 139.927C564.938 135.399 560.669 132.409 555.833 132.409V136.409ZM562.466 140.996C562.408 140.766 562.373 140.223 562.792 139.719C563.189 139.243 563.681 139.18 563.865 139.18V143.18C564.461 143.18 565.275 142.988 565.865 142.28C566.478 141.545 566.507 140.667 566.346 140.025L562.466 140.996ZM563.865 139.18H561.368V143.18H563.865V139.18ZM561.368 139.18C561.526 139.18 561.804 139.223 562.084 139.415C562.34 139.59 562.444 139.787 562.462 139.822L558.884 141.611C559.056 141.955 559.34 142.383 559.822 142.714C560.327 143.06 560.875 143.18 561.368 143.18V139.18ZM562.493 139.887C561.321 137.316 558.654 135.859 555.833 135.859V139.859C557.338 139.859 558.429 140.616 558.853 141.546L562.493 139.887ZM555.833 135.859C553.592 135.859 551.595 136.646 550.159 138.114C548.728 139.577 547.989 141.575 547.989 143.754H551.989C551.989 142.484 552.409 141.534 553.018 140.912C553.622 140.294 554.548 139.859 555.833 139.859V135.859ZM547.989 143.754C547.989 145.943 548.726 147.947 550.157 149.415C551.594 150.888 553.591 151.675 555.833 151.675V147.675C554.548 147.675 553.624 147.24 553.02 146.622C552.411 145.997 551.989 145.041 551.989 143.754H547.989ZM555.833 151.675C558.654 151.675 561.321 150.218 562.493 147.647L558.853 145.988C558.429 146.918 557.338 147.675 555.833 147.675V151.675ZM562.462 147.712C562.457 147.721 562.372 147.895 562.146 148.063C561.883 148.258 561.591 148.329 561.368 148.329V144.329C560.81 144.329 560.248 144.49 559.76 144.852C559.309 145.187 559.043 145.605 558.884 145.923L562.462 147.712ZM561.368 148.329H563.865V144.329H561.368V148.329ZM563.865 148.329C563.682 148.329 563.204 148.267 562.81 147.807C562.382 147.308 562.397 146.744 562.473 146.457L566.338 147.488C566.518 146.814 566.468 145.929 565.847 145.204C565.26 144.519 564.46 144.329 563.865 144.329V148.329ZM562.489 146.401C561.675 149.134 559.043 151.125 555.833 151.125V155.125C560.707 155.125 564.974 152.07 566.323 147.543L562.489 146.401ZM570.171 146.715V144.715H568.171V146.715H570.171ZM570.171 138.065V136.065H568.171V138.065H570.171ZM570.171 143.394H568.171V145.394H570.171V143.394ZM573.363 136.744C575.674 136.744 577.439 138.543 577.439 140.742H581.439C581.439 136.3 577.849 132.744 573.363 132.744V136.744ZM577.439 140.742C577.439 142.911 575.679 144.715 573.363 144.715V148.715C577.844 148.715 581.439 145.164 581.439 140.742H577.439ZM573.363 144.715H570.171V148.715H573.363V144.715ZM568.171 146.715V152.172H572.171V146.715H568.171ZM568.171 152.172C568.171 152.024 568.216 151.573 568.625 151.177C569.023 150.791 569.451 150.765 569.553 150.765V154.765C570.068 154.765 570.804 154.635 571.408 154.05C572.024 153.454 572.171 152.707 572.171 152.172H568.171ZM569.553 150.765H567.236V154.765H569.553V150.765ZM567.236 150.765C567.384 150.765 567.819 150.808 568.21 151.199C568.601 151.59 568.644 152.024 568.644 152.172H564.644C564.644 152.707 564.791 153.437 565.381 154.027C565.972 154.618 566.702 154.765 567.236 154.765V150.765ZM568.644 152.172V135.362H564.644V152.172H568.644ZM568.644 135.362C568.644 135.508 568.603 135.905 568.253 136.277C567.885 136.669 567.449 136.744 567.236 136.744V132.744C566.638 132.744 565.905 132.935 565.338 133.539C564.789 134.123 564.644 134.83 564.644 135.362H568.644ZM567.236 136.744H570.171V132.744H567.236V136.744ZM570.171 136.744H573.363V132.744H570.171V136.744ZM573.363 145.394C575.987 145.394 577.912 143.261 577.912 140.742H573.912C573.912 140.987 573.825 141.15 573.735 141.243C573.648 141.334 573.53 141.394 573.363 141.394V145.394ZM577.912 140.742C577.912 138.249 576.011 136.065 573.363 136.065V140.065C573.515 140.065 573.633 140.121 573.726 140.219C573.823 140.321 573.912 140.495 573.912 140.742H577.912ZM573.363 136.065H570.171V140.065H573.363V136.065ZM568.171 138.065V143.394H572.171V138.065H568.171ZM570.171 145.394H573.363V141.394H570.171V145.394Z" fill="white" mask="url(#path-6-outside-1_27349_21450)"/>
<path d="M727.546 109.603L656.199 252.397L584.751 109.603L656.199 157.135L727.546 109.603Z" fill="#326CE5"/>
<g clip-path="url(#clip0_27349_21450)">
<path d="M673.641 148H637.237C636.433 148 635.781 148.652 635.781 149.456V163.488C635.781 164.293 636.433 164.944 637.237 164.944H673.641C674.445 164.944 675.097 164.293 675.097 163.488V149.456C675.097 148.652 674.445 148 673.641 148Z" fill="white"/>
<path d="M666.582 196.951H644.292C643.488 196.951 642.836 197.603 642.836 198.407V212.439C642.836 213.243 643.488 213.895 644.292 213.895H666.582C667.386 213.895 668.038 213.243 668.038 212.439V198.407C668.038 197.603 667.386 196.951 666.582 196.951Z" fill="white"/>
<path d="M698.84 197.055H676.55C675.746 197.055 675.094 197.707 675.094 198.512V212.544C675.094 213.348 675.746 214 676.55 214H698.84C699.644 214 700.296 213.348 700.296 212.544V198.512C700.296 197.707 699.644 197.055 698.84 197.055Z" fill="white"/>
<path d="M634.043 197.055H611.753C610.949 197.055 610.297 197.707 610.297 198.512V212.544C610.297 213.348 610.949 214 611.753 214H634.043C634.847 214 635.499 213.348 635.499 212.544V198.512C635.499 197.707 634.847 197.055 634.043 197.055Z" fill="white"/>
<path fill-rule="evenodd" clip-rule="evenodd" d="M651.875 179.01C651.878 179.82 651.227 180.478 650.424 180.478H648.383C647.259 180.478 646.562 181.71 647.134 182.684L653.194 193.004C653.747 193.946 655.095 193.963 655.672 193.035L662.089 182.715C662.694 181.742 662 180.478 660.86 180.478H658.876C658.075 180.478 657.426 179.824 657.426 179.017V171.11C657.426 170.303 656.777 169.649 655.976 169.649H653.299C652.496 169.649 651.845 170.307 651.848 171.116L651.875 179.01Z" fill="white"/>
<path fill-rule="evenodd" clip-rule="evenodd" d="M674.025 179.603C674.499 180.254 674.358 181.164 673.711 181.636L672.044 182.854C671.137 183.517 671.295 184.918 672.328 185.368L683.262 190.135C684.263 190.571 685.366 189.793 685.29 188.703L684.45 176.562C684.37 175.417 683.062 174.804 682.138 175.479L680.548 176.64C679.898 177.116 678.983 176.969 678.51 176.313L673.898 169.93C673.424 169.274 672.51 169.128 671.859 169.603L669.693 171.186C669.046 171.659 668.905 172.569 669.379 173.22L674.025 179.603Z" fill="white"/>
<path fill-rule="evenodd" clip-rule="evenodd" d="M637.061 179.603C636.588 180.254 636.728 181.164 637.375 181.636L639.042 182.854C639.949 183.517 639.791 184.918 638.758 185.368L627.824 190.135C626.823 190.571 625.72 189.793 625.796 188.703L626.636 176.562C626.716 175.417 628.024 174.804 628.948 175.479L630.538 176.64C631.188 177.116 632.103 176.969 632.576 176.313L637.188 169.93C637.662 169.274 638.576 169.128 639.227 169.603L641.393 171.186C642.04 171.659 642.181 172.569 641.707 173.22L637.061 179.603Z" fill="white"/>
</g>
<defs>
<clipPath id="clip0_27349_21450">
<rect width="90" height="90" fill="white" transform="translate(610.296 136)"/>
</clipPath>
</defs>
</svg>
