<svg width="811" height="362" viewBox="0 0 811 362" fill="none" xmlns="http://www.w3.org/2000/svg">
<rect x="271.667" y="46.9188" width="267.667" height="267.667" fill="#326CE5" fill-opacity="0.1"/>
<rect x="271.667" y="46.9188" width="267.667" height="267.667" stroke="#326CE5" stroke-width="7.33333"/>
<rect x="235" y="180.752" width="66" height="66" rx="33" fill="#326CE5"/>
<path d="M284.184 207.436L271.761 198.47C270.001 197.199 267.624 197.199 265.863 198.47L253.44 207.436C251.662 208.719 250.918 211.005 251.6 213.089L256.333 227.559C257.01 229.631 258.943 231.032 261.122 231.032H276.502C278.682 231.032 280.614 229.631 281.292 227.559L286.025 213.089C286.706 211.005 285.962 208.719 284.184 207.436Z" fill="white" fill-opacity="0.1" stroke="white" stroke-width="1.11978"/>
<path fill-rule="evenodd" clip-rule="evenodd" d="M252.084 225.793C249.811 224.716 248.85 222.021 249.938 219.772C250.461 218.692 251.396 217.862 252.537 217.464C253.679 217.066 254.934 217.133 256.025 217.65C258.299 218.726 259.259 221.422 258.171 223.67C257.083 225.919 254.357 226.869 252.084 225.793V225.793Z" fill="white"/>
<path d="M254.009 219.014C253.957 219.016 253.907 219.029 253.861 219.051L251.846 220.003C251.794 220.028 251.748 220.063 251.712 220.108C251.676 220.152 251.65 220.204 251.637 220.259L251.14 222.398C251.129 222.448 251.127 222.499 251.136 222.548C251.145 222.598 251.164 222.646 251.192 222.688C251.199 222.698 251.206 222.709 251.214 222.718L252.609 224.433C252.645 224.478 252.691 224.514 252.743 224.538C252.795 224.563 252.853 224.576 252.91 224.576L255.147 224.575C255.205 224.575 255.262 224.562 255.314 224.538C255.367 224.513 255.412 224.477 255.449 224.433L256.843 222.718C256.879 222.673 256.905 222.621 256.917 222.566C256.93 222.511 256.93 222.453 256.917 222.398L256.419 220.259C256.407 220.203 256.381 220.152 256.345 220.107C256.309 220.063 256.263 220.027 256.211 220.002L254.195 219.051C254.137 219.023 254.073 219.011 254.009 219.014V219.014Z" fill="#326CE5"/>
<path d="M254.026 219.742C253.959 219.742 253.905 219.801 253.905 219.874C253.905 219.875 253.906 219.876 253.906 219.878C253.906 219.887 253.905 219.899 253.905 219.908C253.907 219.95 253.916 219.983 253.922 220.022C253.932 220.105 253.941 220.174 253.935 220.238C253.93 220.262 253.912 220.284 253.896 220.3L253.893 220.35C253.821 220.356 253.748 220.367 253.675 220.383C253.362 220.454 253.092 220.613 252.887 220.829C252.874 220.82 252.85 220.803 252.844 220.798C252.822 220.801 252.8 220.807 252.772 220.791C252.718 220.755 252.669 220.706 252.609 220.646C252.582 220.617 252.562 220.59 252.53 220.562C252.523 220.556 252.511 220.548 252.503 220.541C252.478 220.521 252.448 220.511 252.419 220.51C252.382 220.509 252.346 220.523 252.323 220.552C252.281 220.603 252.295 220.682 252.353 220.728C252.353 220.728 252.354 220.729 252.354 220.729C252.362 220.735 252.372 220.744 252.379 220.749C252.414 220.774 252.445 220.787 252.479 220.807C252.552 220.851 252.611 220.887 252.659 220.931C252.677 220.951 252.681 220.985 252.683 221L252.722 221.034C252.515 221.342 252.419 221.723 252.476 222.111L252.425 222.125C252.412 222.142 252.393 222.169 252.373 222.177C252.311 222.196 252.241 222.203 252.157 222.212C252.117 222.215 252.083 222.213 252.041 222.221C252.032 222.223 252.019 222.226 252.009 222.229C252.009 222.229 252.008 222.229 252.008 222.229C252.007 222.229 252.007 222.229 252.006 222.229C251.935 222.246 251.889 222.311 251.904 222.375C251.919 222.438 251.988 222.477 252.06 222.462C252.06 222.462 252.061 222.462 252.062 222.462C252.062 222.461 252.063 222.461 252.064 222.461C252.074 222.459 252.086 222.456 252.095 222.454C252.136 222.443 252.166 222.427 252.203 222.413C252.283 222.385 252.349 222.361 252.414 222.352C252.441 222.35 252.469 222.368 252.483 222.376L252.536 222.367C252.657 222.738 252.91 223.038 253.231 223.226L253.209 223.278C253.217 223.298 253.226 223.325 253.22 223.345C253.197 223.405 253.156 223.469 253.111 223.539C253.089 223.572 253.066 223.597 253.046 223.635C253.041 223.644 253.035 223.657 253.031 223.667C253 223.732 253.022 223.808 253.082 223.836C253.142 223.865 253.216 223.835 253.248 223.769C253.249 223.769 253.249 223.769 253.249 223.769C253.249 223.769 253.249 223.769 253.249 223.769C253.253 223.759 253.26 223.747 253.264 223.738C253.281 223.7 253.286 223.666 253.298 223.629C253.33 223.55 253.348 223.466 253.392 223.415C253.404 223.4 253.423 223.395 253.444 223.39L253.471 223.341C253.751 223.447 254.064 223.475 254.377 223.405C254.449 223.389 254.518 223.368 254.584 223.343C254.592 223.357 254.606 223.383 254.61 223.389C254.631 223.396 254.653 223.399 254.672 223.426C254.705 223.482 254.727 223.548 254.754 223.627C254.766 223.664 254.772 223.697 254.789 223.736C254.793 223.745 254.8 223.757 254.804 223.767C254.837 223.833 254.911 223.863 254.971 223.834C255.031 223.806 255.053 223.73 255.022 223.665C255.018 223.655 255.011 223.642 255.007 223.633C254.987 223.595 254.964 223.57 254.942 223.538C254.896 223.467 254.858 223.408 254.835 223.348C254.825 223.317 254.837 223.298 254.844 223.278C254.84 223.273 254.83 223.244 254.824 223.23C255.158 223.035 255.404 222.724 255.52 222.365C255.535 222.367 255.562 222.372 255.571 222.374C255.589 222.362 255.606 222.346 255.639 222.349C255.703 222.358 255.769 222.382 255.849 222.41C255.886 222.424 255.916 222.44 255.957 222.451C255.966 222.454 255.978 222.456 255.988 222.458C255.989 222.458 255.99 222.459 255.991 222.459C255.991 222.459 255.992 222.459 255.993 222.459C256.064 222.474 256.134 222.436 256.148 222.372C256.163 222.308 256.117 222.244 256.046 222.227C256.036 222.224 256.021 222.22 256.011 222.218C255.969 222.211 255.935 222.212 255.895 222.209C255.811 222.2 255.741 222.193 255.679 222.174C255.654 222.164 255.636 222.135 255.627 222.122L255.578 222.108C255.604 221.928 255.597 221.74 255.553 221.551C255.509 221.361 255.431 221.188 255.327 221.035C255.34 221.023 255.363 221.003 255.37 220.997C255.372 220.975 255.37 220.953 255.393 220.929C255.44 220.885 255.5 220.849 255.572 220.805C255.606 220.785 255.638 220.772 255.672 220.747C255.68 220.741 255.691 220.732 255.699 220.726C255.757 220.68 255.77 220.601 255.728 220.55C255.687 220.498 255.606 220.493 255.548 220.539C255.54 220.545 255.529 220.554 255.522 220.56C255.489 220.588 255.469 220.615 255.442 220.643C255.383 220.703 255.333 220.753 255.279 220.789C255.256 220.802 255.222 220.798 255.206 220.797L255.16 220.829C254.899 220.558 254.543 220.385 254.159 220.351C254.158 220.335 254.157 220.306 254.156 220.298C254.141 220.283 254.122 220.27 254.117 220.238C254.112 220.174 254.12 220.105 254.13 220.022C254.136 219.983 254.145 219.95 254.147 219.908C254.147 219.899 254.147 219.885 254.147 219.874C254.147 219.801 254.093 219.742 254.026 219.742H254.026ZM253.875 220.667L253.839 221.293L253.837 221.294C253.834 221.35 253.788 221.395 253.73 221.395C253.707 221.395 253.685 221.387 253.668 221.374L253.667 221.375L253.148 221.011C253.307 220.856 253.511 220.742 253.746 220.689C253.789 220.679 253.832 220.672 253.875 220.667ZM254.177 220.667C254.452 220.7 254.706 220.823 254.9 221.012L254.385 221.373L254.383 221.372C254.337 221.405 254.273 221.397 254.237 221.353C254.222 221.335 254.215 221.313 254.214 221.292L254.213 221.292L254.177 220.667ZM252.96 221.245L253.434 221.664L253.433 221.667C253.476 221.703 253.482 221.767 253.446 221.811C253.432 221.829 253.412 221.842 253.391 221.847L253.391 221.849L252.784 222.023C252.753 221.743 252.819 221.471 252.96 221.245ZM255.089 221.245C255.159 221.358 255.213 221.484 255.244 221.621C255.276 221.756 255.284 221.89 255.271 222.021L254.66 221.847L254.66 221.844C254.605 221.829 254.572 221.774 254.584 221.719C254.59 221.697 254.602 221.678 254.618 221.664L254.618 221.662L255.089 221.245H255.089ZM253.929 221.696H254.123L254.244 221.845L254.2 222.032L254.026 222.114L253.851 222.031L253.808 221.845L253.929 221.696ZM254.551 222.207C254.559 222.206 254.568 222.207 254.576 222.208L254.577 222.207L255.205 222.312C255.113 222.568 254.937 222.789 254.702 222.937L254.458 222.354L254.459 222.353C254.436 222.302 254.459 222.242 254.51 222.217C254.524 222.211 254.537 222.207 254.551 222.207H254.551ZM253.496 222.209C253.544 222.21 253.587 222.243 253.598 222.291C253.603 222.314 253.601 222.336 253.592 222.356L253.594 222.358L253.353 222.935C253.127 222.791 252.948 222.577 252.852 222.314L253.474 222.21L253.475 222.211C253.482 222.21 253.489 222.209 253.496 222.209V222.209ZM254.022 222.462C254.039 222.461 254.056 222.465 254.072 222.472C254.093 222.482 254.109 222.498 254.12 222.517H254.122L254.429 223.066C254.389 223.079 254.348 223.09 254.306 223.1C254.071 223.152 253.837 223.136 253.626 223.065L253.932 222.517H253.932C253.951 222.483 253.985 222.463 254.022 222.462Z" fill="white" stroke="white" stroke-width="0.055989"/>
<rect x="310.167" y="85.4188" width="190.667" height="190.667" rx="26.5833" stroke="#00D3A9" stroke-width="3.66667" stroke-dasharray="9.17 9.17"/>
<path d="M332.167 107.419H478.833V188.085C478.833 219.198 478.833 234.754 469.168 244.42C459.502 254.085 443.946 254.085 412.833 254.085H398.167C367.054 254.085 351.497 254.085 341.832 244.42C332.167 234.754 332.167 219.198 332.167 188.085V107.419Z" fill="#326CE5"/>
<path fill-rule="evenodd" clip-rule="evenodd" d="M390.347 149.127C389.335 149.127 388.514 149.948 388.514 150.96V152.794C388.514 153.806 389.335 154.627 390.347 154.627H443.949C444.962 154.627 445.783 153.806 445.783 152.794V150.96C445.783 149.948 444.962 149.127 443.949 149.127H390.347ZM367 149.127C365.988 149.127 365.167 149.948 365.167 150.96V152.793C365.167 153.806 365.988 154.626 367 154.626H377.357C378.369 154.626 379.19 153.806 379.19 152.793V150.96C379.19 149.948 378.369 149.127 377.357 149.127H367ZM409.605 170.328C409.605 169.315 410.425 168.494 411.438 168.494H443.999C445.012 168.494 445.833 169.315 445.833 170.328V172.044C445.833 173.056 445.012 173.877 443.999 173.877H411.438C410.425 173.877 409.605 173.056 409.605 172.044V170.328ZM388.206 168.377C387.194 168.377 386.373 169.198 386.373 170.21V171.927C386.373 172.939 387.194 173.76 388.206 173.76H398.563C399.575 173.76 400.396 172.939 400.396 171.927V170.21C400.396 169.198 399.575 168.377 398.563 168.377H388.206ZM409.605 189.578C409.605 188.565 410.425 187.744 411.438 187.744H443.999C445.012 187.744 445.833 188.565 445.833 189.578V191.294C445.833 192.306 445.012 193.127 443.999 193.127H411.438C410.425 193.127 409.605 192.306 409.605 191.294V189.578ZM388.206 187.627C387.194 187.627 386.373 188.448 386.373 189.46V191.177C386.373 192.189 387.194 193.01 388.206 193.01H398.563C399.575 193.01 400.396 192.189 400.396 191.177V189.46C400.396 188.448 399.575 187.627 398.563 187.627H388.206ZM388.514 208.71C388.514 207.698 389.335 206.877 390.347 206.877H443.949C444.962 206.877 445.783 207.698 445.783 208.71V210.544C445.783 211.556 444.962 212.377 443.949 212.377H390.347C389.335 212.377 388.514 211.556 388.514 210.544V208.71ZM367 206.877C365.988 206.877 365.167 207.698 365.167 208.71V210.543C365.167 211.556 365.988 212.376 367 212.376H377.357C378.37 212.376 379.19 211.556 379.19 210.543V208.71C379.19 207.698 378.37 206.877 377.357 206.877H367Z" fill="white"/>
</svg>
