<svg version="1.1" id="Layer_1" xmlns="http://www.w3.org/2000/svg" xmlns:xlink="http://www.w3.org/1999/xlink" x="0px" y="0px"
	 width="100%" viewBox="0 0 990 317" enable-background="new 0 0 990 317" xml:space="preserve">
<path fill="#121212" opacity="1.000000" stroke="none" 
	d="
M645.000000,318.000000 
	C430.000031,318.000000 215.500076,318.000000 1.000086,318.000000 
	C1.000058,212.333389 1.000058,106.666779 1.000029,1.000129 
	C330.999878,1.000086 660.999756,1.000086 990.999756,1.000043 
	C990.999817,106.666534 990.999817,212.333069 990.999878,317.999817 
	C875.833313,318.000000 760.666687,318.000000 645.000000,318.000000 
M734.899048,255.889725 
	C734.899048,255.889725 735.108398,256.142212 735.012451,257.057220 
	C735.004822,262.386749 734.987366,267.716278 734.991760,273.045807 
	C734.998840,281.574402 735.632019,282.233276 744.010620,282.235016 
	C782.983215,282.243011 821.955872,282.239594 860.928467,282.238953 
	C872.920044,282.238770 884.913208,282.121643 896.902405,282.288391 
	C901.600708,282.353729 903.706116,280.363983 903.600403,275.787720 
	C903.492920,271.135864 903.382141,266.484070 903.635071,261.362915 
	C903.734558,261.191833 903.834045,261.020752 904.572754,260.591553 
	C908.581238,257.937714 912.913696,255.662354 916.538147,252.559906 
	C927.976440,242.769318 933.440063,229.466400 935.854797,215.182617 
	C938.512207,199.463501 940.583923,183.551102 941.448120,167.643448 
	C943.069336,137.800003 942.274292,108.031639 933.091064,79.136185 
	C925.852661,56.360313 910.477905,42.591961 886.881348,39.097252 
	C873.084106,37.053848 859.070068,36.120327 845.118225,35.546730 
	C813.282104,34.237869 781.458008,34.806644 749.950623,40.085884 
	C733.205383,42.891651 716.906311,47.712784 705.293335,61.222076 
	C698.707214,68.883682 692.768555,77.243492 687.521545,85.885803 
	C675.595032,105.529732 658.803650,117.452660 636.195251,122.076591 
	C608.149353,127.812607 579.736267,129.361221 551.312927,130.295609 
	C481.521881,132.589859 411.728180,132.644455 341.995941,128.110672 
	C311.350067,126.118179 282.634338,118.842728 258.058350,99.021133 
	C249.537949,92.149048 240.473831,85.682037 230.881546,80.454979 
	C191.226593,58.846062 148.610931,53.891026 104.495300,60.288429 
	C91.639061,62.152767 79.416397,66.887291 69.338676,75.817757 
	C55.946747,87.685143 50.644432,103.497887 48.193668,120.398178 
	C44.081268,148.757004 45.964401,176.910904 53.159946,204.616226 
	C57.140030,219.940948 63.507492,234.130615 75.987701,245.140381 
	C76.067467,245.376740 76.148811,245.612549 76.040443,246.787354 
	C76.024483,253.114426 75.985123,259.441559 75.998718,265.768555 
	C76.014290,273.011078 77.026611,274.000641 84.473427,274.003021 
	C117.442169,274.013458 150.410919,274.007935 183.379654,274.007629 
	C192.371124,274.007538 201.363068,273.951324 210.353882,274.027283 
	C214.795822,274.064819 217.252945,272.465698 217.075363,267.591736 
	C216.851212,261.439819 216.944748,255.276321 217.123688,248.773224 
	C217.123688,248.773224 217.208740,248.374115 217.871674,248.138748 
	C222.210617,245.055939 226.621933,242.069336 230.873993,238.871048 
	C240.843384,231.372284 250.333252,223.154999 260.749237,216.348862 
	C279.204681,204.289459 300.600586,200.369705 321.914001,198.259995 
	C352.532410,195.229187 383.305420,193.206039 414.059326,192.230362 
	C458.681732,190.814682 503.334442,191.812607 547.790222,196.299332 
	C568.448059,198.384232 589.123779,201.102661 609.490601,205.075836 
	C642.346985,211.485519 673.062622,224.120621 702.536804,239.927322 
	C713.067261,245.574707 724.049194,250.380356 734.899048,255.889725 
z"/>
<path fill="#DAB216" opacity="1.000000" stroke="none" 
	d="
M75.932518,244.771820 
	C63.507492,234.130615 57.140030,219.940948 53.159946,204.616226 
	C45.964401,176.910904 44.081268,148.757004 48.193668,120.398178 
	C50.644432,103.497887 55.946747,87.685143 69.338676,75.817757 
	C79.416397,66.887291 91.639061,62.152767 104.495300,60.288429 
	C148.610931,53.891026 191.226593,58.846062 230.881546,80.454979 
	C240.473831,85.682037 249.537949,92.149048 258.058350,99.021133 
	C282.634338,118.842728 311.350067,126.118179 341.995941,128.110672 
	C411.728180,132.644455 481.521881,132.589859 551.312927,130.295609 
	C579.736267,129.361221 608.149353,127.812607 636.195251,122.076591 
	C658.803650,117.452660 675.595032,105.529732 687.521545,85.885803 
	C692.768555,77.243492 698.707214,68.883682 705.293335,61.222076 
	C716.906311,47.712784 733.205383,42.891651 749.950623,40.085884 
	C781.458008,34.806644 813.282104,34.237869 845.118225,35.546730 
	C859.070068,36.120327 873.084106,37.053848 886.881348,39.097252 
	C910.477905,42.591961 925.852661,56.360313 933.091064,79.136185 
	C942.274292,108.031639 943.069336,137.800003 941.448120,167.643448 
	C940.583923,183.551102 938.512207,199.463501 935.854797,215.182617 
	C933.440063,229.466400 927.976440,242.769318 916.538147,252.559906 
	C912.913696,255.662354 908.581238,257.937714 904.147339,260.352966 
	C903.573792,259.627167 903.425659,259.139984 903.401917,258.509277 
	C903.668640,258.151276 903.795593,257.928101 904.240234,257.521973 
	C917.811951,250.576797 925.613647,239.523865 930.145447,225.634125 
	C935.836487,208.191467 937.601318,190.148758 938.477417,172.028229 
	C940.009644,140.336182 940.096924,108.648109 929.781677,78.093651 
	C924.232666,61.656986 913.813354,48.799263 896.350037,44.634533 
	C882.852051,41.415493 868.858887,39.410469 854.996216,38.751343 
	C819.369507,37.057415 783.691040,36.868664 748.380920,43.175056 
	C732.415344,46.026508 717.232239,51.269375 706.374573,64.181999 
	C700.295105,71.412064 694.864563,79.296906 689.956970,87.381638 
	C677.781189,107.439766 660.637024,119.836723 637.520874,124.645668 
	C611.790649,129.998459 585.735291,131.790848 559.623596,132.816513 
	C491.499969,135.492432 423.358948,135.464798 355.274200,131.786453 
	C338.706696,130.891373 322.113525,128.613876 305.786896,125.594490 
	C285.865845,121.910362 269.181366,111.031746 253.301727,98.896957 
	C240.710678,89.275246 227.587677,80.523201 212.713226,74.648849 
	C182.062927,62.544167 150.200577,58.897591 117.582458,61.238136 
	C104.414764,62.182999 91.558632,65.205162 79.894081,71.790962 
	C61.324131,82.275528 54.172234,99.964378 51.172459,119.637115 
	C46.827339,148.132675 48.778378,176.432220 56.024265,204.324219 
	C59.808441,218.890854 66.093674,232.142456 77.352325,242.710938 
	C77.330063,242.858810 77.347420,243.157425 77.095406,243.411652 
	C76.539764,244.034531 76.236145,244.403168 75.932518,244.771820 
z"/>
<path fill="#969794" opacity="1.000000" stroke="none" 
	d="
M903.272827,261.832245 
	C903.382141,266.484070 903.492920,271.135864 903.600403,275.787720 
	C903.706116,280.363983 901.600708,282.353729 896.902405,282.288391 
	C884.913208,282.121643 872.920044,282.238770 860.928467,282.238953 
	C821.955872,282.239594 782.983215,282.243011 744.010620,282.235016 
	C735.632019,282.233276 734.998840,281.574402 734.991760,273.045807 
	C734.987366,267.716278 735.004822,262.386749 735.409668,256.653931 
	C740.235840,258.180664 744.664917,260.110687 748.659912,262.007446 
	C746.476379,262.132263 744.726746,262.290314 743.007996,262.445587 
	C743.007996,265.880127 743.007996,268.869934 743.007996,271.859772 
	C744.519714,268.355072 742.034119,262.590820 749.080444,262.942932 
	C749.048218,262.950043 749.056396,262.884674 748.878052,263.308899 
	C748.843445,266.514160 748.987244,269.295197 749.130981,272.076202 
	C749.332947,272.064484 749.534973,272.052734 749.736938,272.041016 
	C750.208557,269.014313 750.680176,265.987610 751.506104,262.933990 
	C753.881165,262.954285 755.901917,263.001495 758.209106,263.129395 
	C758.682983,263.143555 758.870422,263.077087 759.023804,263.010681 
	C758.989624,263.010803 758.985229,262.942596 758.899170,263.333557 
	C759.942322,267.936310 761.071533,272.148041 762.337646,276.870483 
	C763.760620,273.130920 765.098816,269.614197 766.837524,266.144531 
	C774.326416,267.619751 781.395020,269.165009 788.520996,270.371704 
	C789.854004,270.597382 791.416687,269.466980 793.165161,268.861816 
	C794.771729,266.987823 796.086548,265.214508 797.035950,263.933899 
	C799.389282,266.596832 802.219055,269.798889 805.390625,272.970947 
	C807.161987,272.308472 808.591492,271.676025 810.460571,271.039856 
	C812.083923,271.060303 813.267883,271.084534 814.696411,271.153473 
	C816.349792,272.748993 817.758667,274.299774 819.242249,275.932922 
	C819.327454,275.694824 819.623535,274.867554 820.171631,273.833618 
	C820.738220,273.327148 821.052795,273.027374 821.568909,272.692505 
	C821.770447,272.657410 822.178162,272.652985 822.178162,272.652985 
	C822.178162,272.652985 822.580444,272.719635 822.962280,272.946442 
	C828.985779,273.941193 834.699097,275.743164 840.399048,272.022797 
	C842.200623,272.337006 843.632507,272.645355 845.499756,272.976013 
	C851.315002,272.002472 856.694824,271.006592 862.397278,269.955231 
	C864.049805,268.878937 865.379822,267.858124 866.246826,267.192688 
	C868.119141,267.923340 869.619934,268.509003 871.204163,269.268738 
	C871.368896,269.692413 871.491882,269.919464 871.836670,270.417938 
	C872.689453,270.799164 873.362000,270.886444 874.378601,271.075653 
	C879.655762,273.794403 880.762390,268.282928 884.027100,267.246765 
	C884.691711,270.313416 885.141052,273.031952 885.590454,275.750458 
	C885.867493,275.721375 886.144470,275.692291 886.421509,275.663177 
	C886.915466,274.145020 887.409424,272.626862 888.054199,271.395264 
	C889.411743,272.302429 890.618591,272.923065 891.825378,273.543671 
	C892.011169,272.953918 892.196960,272.364166 892.382690,271.774445 
	C890.965088,271.465637 889.547485,271.156830 888.083984,270.509583 
	C888.426025,268.078400 888.813843,265.985657 889.407776,263.922668 
	C889.613892,263.952423 890.026611,264.008606 890.249817,264.134277 
	C891.320740,263.846161 892.168457,263.432343 893.264893,263.001953 
	C893.513672,262.985413 894.011047,262.949890 894.205750,262.969421 
	C894.400452,262.988983 894.790405,263.020721 894.855957,263.254517 
	C894.921570,263.488281 895.031860,263.961182 895.017639,264.365112 
	C894.860840,266.984680 894.718262,269.200348 894.575684,271.416016 
	C895.172729,271.520782 895.769775,271.625549 896.366760,271.730316 
	C896.891418,269.111115 897.416016,266.491882 898.195679,263.678650 
	C900.058044,262.933838 901.665405,262.383057 903.272827,261.832245 
M871.052307,274.521881 
	C871.148438,274.821655 871.244568,275.121460 871.340576,275.421265 
	C871.520630,274.935669 871.700684,274.450073 871.880798,273.964508 
	C871.613037,274.012482 871.345276,274.060455 871.052307,274.521881 
z"/>
<path fill="#969895" opacity="1.000000" stroke="none" 
	d="
M216.901260,249.117828 
	C216.944748,255.276321 216.851212,261.439819 217.075363,267.591736 
	C217.252945,272.465698 214.795822,274.064819 210.353882,274.027283 
	C201.363068,273.951324 192.371124,274.007538 183.379654,274.007629 
	C150.410919,274.007935 117.442169,274.013458 84.473427,274.003021 
	C77.026611,274.000641 76.014290,273.011078 75.998718,265.768555 
	C75.985123,259.441559 76.024483,253.114426 76.459366,246.425583 
	C81.823090,248.969055 86.767891,251.874313 92.096352,254.897461 
	C97.112946,256.811310 102.922531,257.057465 103.391953,263.194885 
	C104.775375,261.984131 106.026672,260.889008 107.673553,259.858521 
	C112.666428,260.559540 117.263718,261.195892 121.863358,262.181824 
	C121.869682,262.997467 121.873657,263.463562 121.833244,263.982300 
	C121.788849,264.034912 121.846672,264.255432 121.846672,264.255432 
	C121.846672,264.255432 122.074570,264.128448 122.406784,263.970856 
	C124.762321,262.944305 126.785629,262.075348 129.151367,261.242004 
	C130.372162,261.537476 131.250565,261.797333 132.369980,262.296265 
	C136.104340,265.784119 139.464493,266.029358 143.042572,262.085815 
	C143.714951,262.081787 143.983902,262.082550 144.480865,262.322144 
	C148.662964,263.304199 152.617065,264.047333 156.950134,264.818848 
	C158.552612,264.635590 159.776123,264.423950 161.365662,264.263184 
	C163.893173,264.221863 166.054672,264.129639 168.581085,264.028748 
	C169.919327,264.011719 170.892685,264.003357 171.903839,264.358826 
	C172.148026,265.873383 172.354401,267.024048 172.560776,268.174713 
	C172.833984,268.175751 173.107193,268.176788 173.380402,268.177856 
	C173.820724,266.920227 174.261032,265.662628 174.245651,265.706573 
	C177.591751,264.662750 179.911072,263.939209 182.450897,263.068970 
	C183.081772,262.353363 183.492142,261.784454 184.209351,261.189270 
	C184.923096,261.116699 185.330048,261.070374 185.895401,261.348877 
	C187.128799,262.636932 188.051743,263.945312 189.307373,264.498352 
	C193.001770,266.125519 196.304352,263.695984 196.033722,259.489319 
	C196.432327,258.469604 196.789017,257.749237 197.543701,257.015503 
	C201.023056,255.594025 204.104416,254.185867 207.542130,252.753891 
	C210.899429,251.526001 213.900345,250.321915 216.901260,249.117828 
z"/>
<path fill="#D9B216" opacity="1.000000" stroke="none" 
	d="
M734.825073,255.570190 
	C724.049194,250.380356 713.067261,245.574707 702.536804,239.927322 
	C673.062622,224.120621 642.346985,211.485519 609.490601,205.075836 
	C589.123779,201.102661 568.448059,198.384232 547.790222,196.299332 
	C503.334442,191.812607 458.681732,190.814682 414.059326,192.230362 
	C383.305420,193.206039 352.532410,195.229187 321.914001,198.259995 
	C300.600586,200.369705 279.204681,204.289459 260.749237,216.348862 
	C250.333252,223.154999 240.843384,231.372284 230.873993,238.871048 
	C226.621933,242.069336 222.210617,245.055939 217.474548,247.841827 
	C217.001892,246.990677 216.926376,246.436447 216.934753,245.673370 
	C217.018661,245.464539 217.162979,245.036880 217.474274,244.920868 
	C224.681061,239.573029 231.912460,234.724930 238.409149,229.037567 
	C258.016174,211.872986 280.512177,200.949493 306.361938,197.862885 
	C332.133057,194.785675 357.963318,191.571014 383.860046,190.303223 
	C449.185913,187.105225 514.445923,188.433212 579.403931,197.007370 
	C603.045715,200.127975 626.549988,204.387283 648.779053,213.150848 
	C668.091919,220.764725 686.836914,229.835358 705.739441,238.466965 
	C715.724915,243.026718 725.510925,248.023270 735.402466,252.890320 
	C735.417969,252.957993 735.544617,253.014938 735.385986,253.309311 
	C735.093201,254.259186 734.959167,254.914688 734.825073,255.570190 
z"/>
<path fill="#CEC595" opacity="1.000000" stroke="none" 
	d="
M734.862061,255.729950 
	C734.959167,254.914688 735.093201,254.259186 735.757935,253.423706 
	C743.557678,256.174225 750.826843,259.104706 758.006775,262.280731 
	C757.919250,262.700439 757.920959,262.874573 757.922668,263.048706 
	C755.901917,263.001495 753.881165,262.954285 751.168945,262.800537 
	C750.003845,262.757538 749.530090,262.821106 749.056396,262.884705 
	C749.056396,262.884674 749.048218,262.950043 749.135132,262.717926 
	C749.221985,262.485809 749.093933,262.040680 749.093933,262.040680 
	C744.664917,260.110687 740.235840,258.180664 735.457642,256.196411 
	C735.108398,256.142212 734.899048,255.889725 734.862061,255.729950 
z"/>
<path fill="#CFC596" opacity="1.000000" stroke="none" 
	d="
M91.712692,254.779556 
	C86.767891,251.874313 81.823090,248.969055 76.555008,245.955811 
	C76.148811,245.612549 76.067467,245.376740 75.960114,244.956100 
	C76.236145,244.403168 76.539764,244.034531 77.410233,243.481796 
	C82.905670,246.238846 87.834274,249.179993 92.882179,252.192322 
	C92.503502,253.030075 92.108101,253.904816 91.712692,254.779556 
z"/>
<path fill="#D2C897" opacity="1.000000" stroke="none" 
	d="
M216.850861,245.882202 
	C216.926376,246.436447 217.001892,246.990677 217.143066,247.959518 
	C217.208740,248.374115 217.123688,248.773224 217.012482,248.945526 
	C213.900345,250.321915 210.899429,251.526001 207.718933,252.499817 
	C210.643204,250.140457 213.747040,248.011337 216.850861,245.882202 
z"/>
<path fill="#D3C892" opacity="1.000000" stroke="none" 
	d="
M895.031860,263.961182 
	C895.031860,263.961182 894.921570,263.488281 894.879456,263.033142 
	C894.837341,262.578033 894.810852,262.134674 895.093262,261.909180 
	C898.009644,260.673401 900.643555,259.663086 903.277466,258.652802 
	C903.425659,259.139984 903.573792,259.627167 903.827698,260.482025 
	C903.834045,261.020752 903.734558,261.191833 903.453979,261.597595 
	C901.665405,262.383057 900.058044,262.933838 897.832397,263.682556 
	C896.486755,263.907379 895.759277,263.934296 895.031860,263.961182 
z"/>
<path fill="#3E3512" opacity="1.000000" stroke="none" 
	d="
M735.387024,252.822632 
	C725.510925,248.023270 715.724915,243.026718 705.739441,238.466965 
	C686.836914,229.835358 668.091919,220.764725 648.779053,213.150848 
	C626.549988,204.387283 603.045715,200.127975 579.403931,197.007370 
	C514.445923,188.433212 449.185913,187.105225 383.860046,190.303223 
	C357.963318,191.571014 332.133057,194.785675 306.361938,197.862885 
	C280.512177,200.949493 258.016174,211.872986 238.409149,229.037567 
	C231.912460,234.724930 224.681061,239.573029 217.309036,244.595490 
	C214.046036,243.348358 211.263763,241.419739 208.472488,241.406631 
	C167.201492,241.212875 125.929237,241.251602 84.657463,241.328751 
	C82.229073,241.333298 79.802185,242.133255 77.374596,242.563049 
	C66.093674,232.142456 59.808441,218.890854 56.024265,204.324219 
	C48.778378,176.432220 46.827339,148.132675 51.172459,119.637115 
	C54.172234,99.964378 61.324131,82.275528 79.894081,71.790962 
	C91.558632,65.205162 104.414764,62.182999 117.582458,61.238136 
	C150.200577,58.897591 182.062927,62.544167 212.713226,74.648849 
	C227.587677,80.523201 240.710678,89.275246 253.301727,98.896957 
	C269.181366,111.031746 285.865845,121.910362 305.786896,125.594490 
	C322.113525,128.613876 338.706696,130.891373 355.274200,131.786453 
	C423.358948,135.464798 491.499969,135.492432 559.623596,132.816513 
	C585.735291,131.790848 611.790649,129.998459 637.520874,124.645668 
	C660.637024,119.836723 677.781189,107.439766 689.956970,87.381638 
	C694.864563,79.296906 700.295105,71.412064 706.374573,64.181999 
	C717.232239,51.269375 732.415344,46.026508 748.380920,43.175056 
	C783.691040,36.868664 819.369507,37.057415 854.996216,38.751343 
	C868.858887,39.410469 882.852051,41.415493 896.350037,44.634533 
	C913.813354,48.799263 924.232666,61.656986 929.781677,78.093651 
	C940.096924,108.648109 940.009644,140.336182 938.477417,172.028229 
	C937.601318,190.148758 935.836487,208.191467 930.145447,225.634125 
	C925.613647,239.523865 917.811951,250.576797 904.155273,257.095886 
	C903.787109,252.226440 901.912598,249.869827 896.885132,249.878479 
	C845.193726,249.967422 793.501892,249.898819 741.810791,250.055878 
	C739.666748,250.062393 737.528137,251.859650 735.387024,252.822632 
M740.510864,199.094482 
	C740.529358,203.423767 740.524414,207.753281 740.570374,212.082275 
	C740.752197,229.192047 750.580139,238.990646 767.664307,239.003952 
	C801.967285,239.030685 836.270325,239.024170 870.573303,239.006943 
	C888.291077,238.998047 898.049133,229.233170 898.059998,211.486969 
	C898.080811,177.350510 898.077087,143.214020 898.062012,109.077538 
	C898.053955,90.841187 888.296570,81.163811 869.903015,81.154663 
	C836.266113,81.137939 802.629150,81.141243 768.992249,81.153130 
	C750.222046,81.159767 740.632874,90.683800 740.561768,109.321121 
	C740.503906,124.471458 740.428589,139.621735 739.626343,154.879440 
	C728.060364,156.942307 720.292358,165.676651 720.338196,176.567047 
	C720.383423,187.318298 728.665649,196.216125 740.510864,199.094482 
M136.022797,129.539078 
	C122.743187,156.018646 109.389809,182.461609 96.221283,208.996307 
	C91.153862,219.207214 96.700195,227.901566 108.188339,227.939590 
	C133.685211,228.024002 159.182678,228.012253 184.679642,227.945740 
	C196.435318,227.915085 202.037003,219.159409 196.865280,208.765564 
	C183.966034,182.841400 170.981125,156.959351 157.903976,131.124496 
	C152.849838,121.139687 143.491898,120.274178 136.022797,129.539078 
z"/>
<path fill="#A3A296" opacity="1.000000" stroke="none" 
	d="
M735.402466,252.890305 
	C737.528137,251.859650 739.666748,250.062393 741.810791,250.055878 
	C793.501892,249.898819 845.193726,249.967422 896.885132,249.878479 
	C901.912598,249.869827 903.787109,252.226440 903.822266,257.270111 
	C903.795593,257.928101 903.668640,258.151276 903.401917,258.509277 
	C900.643555,259.663086 898.009644,260.673401 894.950439,262.033936 
	C894.339233,262.559601 894.167908,262.748169 894.011047,262.949890 
	C894.011047,262.949890 893.513672,262.985413 893.132935,262.741211 
	C891.843689,263.000854 890.935120,263.504730 890.026611,264.008606 
	C890.026611,264.008606 889.613892,263.952423 889.238281,263.643372 
	C885.073120,260.320557 885.308594,264.753387 883.582581,265.862915 
	C879.365845,261.832336 875.915833,261.992065 873.034668,266.659546 
	C872.939941,265.240204 872.880249,264.127228 872.820557,263.014252 
	C872.412354,263.050537 872.004089,263.086792 871.595886,263.123077 
	C871.666504,264.712891 871.737061,266.302734 871.620911,268.184479 
	C871.329651,268.682526 871.225159,268.888611 871.120728,269.094666 
	C869.619934,268.509003 868.119141,267.923340 866.246826,267.192688 
	C865.379822,267.858124 864.049805,268.878937 862.040222,269.769958 
	C855.620972,269.232239 849.723267,268.046844 845.064331,272.953705 
	C843.632507,272.645355 842.200623,272.337006 840.178955,271.901184 
	C839.164368,271.507843 838.739624,271.241943 838.218628,270.558807 
	C838.841675,269.439026 839.490723,268.245178 840.294006,268.130371 
	C842.327271,267.839874 844.429749,268.033966 847.569275,268.033966 
	C846.412048,265.947296 845.711365,264.683929 844.848877,263.164429 
	C842.825439,261.391052 840.955688,260.400604 838.701172,262.861145 
	C838.221008,263.272369 838.072449,263.642883 837.964905,264.008942 
	C838.005920,264.004486 837.997192,263.922455 837.606873,263.952515 
	C836.848633,265.975250 836.480774,267.967957 835.755005,269.966919 
	C834.919983,269.979797 834.442749,269.986450 833.931152,269.533752 
	C833.896729,265.312622 833.896729,261.550873 833.896729,257.789124 
	C833.199402,257.800995 832.502014,257.812897 831.804688,257.824768 
	C831.804688,261.881134 831.804688,265.937469 831.448486,269.993347 
	C830.379944,269.989685 829.667542,269.986420 828.775269,269.862823 
	C828.061279,269.826202 827.527100,269.909943 826.560059,269.994995 
	C824.394104,270.003113 822.661072,270.009857 820.672974,269.766022 
	C820.935791,267.672302 821.453735,265.829163 822.355225,263.994354 
	C824.843994,264.417816 826.949341,264.832886 829.510620,265.337860 
	C826.631775,261.541626 826.016479,261.300232 821.573303,262.109131 
	C820.092102,263.216644 818.535095,264.046722 818.054993,265.291992 
	C817.437378,266.893921 817.683594,268.828857 817.557739,270.620361 
	C817.002380,270.587738 816.447083,270.555145 815.891724,270.522522 
	C815.891724,268.834656 815.891724,267.146790 815.793457,265.199707 
	C815.479309,264.650665 815.263428,264.360840 815.031067,264.032471 
	C815.014587,263.993927 814.969360,263.923309 814.942505,263.756226 
	C814.583313,263.384369 814.250977,263.179565 813.728638,262.802002 
	C812.656555,262.715668 811.774536,262.802063 810.540955,262.888306 
	C808.416565,262.498291 806.643738,262.108429 804.870850,261.718567 
	C808.472839,265.716583 806.167053,269.373810 805.048828,273.000977 
	C802.219055,269.798889 799.389282,266.596832 797.035950,263.933899 
	C796.086548,265.214508 794.771729,266.987823 793.002991,268.576691 
	C792.120056,267.019043 791.691162,265.645874 791.262207,264.272736 
	C791.257629,264.782532 791.253052,265.292358 791.248474,265.802185 
	C788.852966,266.241638 786.460144,267.008911 784.061096,267.028931 
	C781.628967,267.049255 779.190735,266.331177 776.523621,265.907349 
	C775.717957,265.667847 775.143738,265.457550 774.221497,265.182312 
	C771.841431,264.390045 769.809387,263.662689 767.560059,262.683380 
	C764.683289,264.669220 761.866821,264.337982 758.985229,262.942596 
	C758.985229,262.942596 758.989624,263.010803 758.968323,262.761322 
	C758.663330,262.352966 758.379700,262.194061 758.096008,262.035187 
	C750.826843,259.104706 743.557678,256.174225 735.916565,253.129333 
	C735.544617,253.014938 735.417969,252.957993 735.402466,252.890305 
M802.476196,264.503540 
	C802.476196,264.503540 802.514526,264.491364 802.476196,264.503540 
z"/>
<path fill="#A1A093" opacity="1.000000" stroke="none" 
	d="
M77.352325,242.710938 
	C79.802185,242.133255 82.229073,241.333298 84.657463,241.328751 
	C125.929237,241.251602 167.201492,241.212875 208.472488,241.406631 
	C211.263763,241.419739 214.046036,243.348358 216.997742,244.711487 
	C217.162979,245.036880 217.018661,245.464539 216.934753,245.673370 
	C213.747040,248.011337 210.643204,250.140457 207.362579,252.523651 
	C204.104416,254.185867 201.023056,255.594025 197.198242,256.823090 
	C194.626556,256.410583 192.798294,256.177155 190.978760,255.560425 
	C187.496826,253.270462 186.431732,254.182236 185.414673,259.768738 
	C185.136551,259.564514 185.019821,259.405029 184.820999,258.916443 
	C184.038727,257.609009 183.370331,256.607361 181.924515,254.440598 
	C181.924515,256.949249 181.924515,257.993378 181.526413,259.019440 
	C178.807999,259.345642 176.487686,259.689972 174.121841,259.642334 
	C174.532318,258.058685 174.988327,256.866943 175.473389,255.489182 
	C175.027725,254.859009 174.552994,254.414841 173.669037,254.032288 
	C172.795197,257.394257 172.330612,260.694611 171.866028,263.994965 
	C170.892685,264.003357 169.919327,264.011719 168.557129,263.607880 
	C165.922516,262.510162 163.676758,261.824677 161.430984,261.139160 
	C161.447647,260.910217 161.464294,260.681274 161.480957,260.452332 
	C164.291031,260.147095 167.101120,259.841858 171.548309,259.358826 
	C169.303436,256.764679 168.208740,254.436050 166.504272,253.834137 
	C164.854630,253.251602 161.924698,253.786667 160.706985,254.992264 
	C157.858536,257.812378 158.249634,261.213013 160.999634,264.212311 
	C159.776123,264.423950 158.552612,264.635590 157.046753,264.446289 
	C156.794479,263.023193 156.824539,262.000977 156.915741,260.529358 
	C156.976913,256.741028 156.976913,253.402069 156.976913,250.063126 
	C156.667145,250.123749 156.357376,250.184372 156.047623,250.244995 
	C155.179245,251.822754 154.310883,253.400497 153.137329,254.949448 
	C152.424744,254.887665 152.017349,254.854660 151.593689,254.514481 
	C150.389175,254.457245 149.200912,254.707199 147.989517,254.961639 
	C147.966385,254.966125 147.956467,255.012192 147.643555,254.952362 
	C147.213745,255.255524 147.096863,255.618500 146.988037,255.990097 
	C146.996078,255.998734 146.974106,255.982880 146.605194,256.018250 
	C145.575134,258.063507 144.914001,260.073395 144.252853,262.083282 
	C143.983902,262.082550 143.714951,262.081787 142.773163,262.047333 
	C133.764053,262.165375 133.764053,262.165375 132.128952,256.313568 
	C132.128952,258.228119 132.128952,260.142670 132.128952,262.057220 
	C131.250565,261.797333 130.372162,261.537476 128.824249,261.155029 
	C126.641319,259.700378 125.127922,258.368317 123.614532,257.036255 
	C125.344490,256.427521 127.074432,255.818787 129.492691,254.967834 
	C126.894913,254.276657 124.689415,253.689865 121.789680,252.918350 
	C121.789680,255.620163 121.789680,257.412720 121.349823,259.164124 
	C116.159897,258.685883 111.409836,258.248749 106.614258,257.807434 
	C106.772675,258.281586 107.025322,259.037720 107.277969,259.793884 
	C106.026672,260.889008 104.775375,261.984131 103.391953,263.194885 
	C102.922531,257.057465 97.112946,256.811310 92.096359,254.897461 
	C92.108101,253.904816 92.503502,253.030075 92.882179,252.192322 
	C87.834274,249.179993 82.905670,246.238846 77.662247,243.227570 
	C77.347420,243.157425 77.330063,242.858810 77.352325,242.710938 
M135.689774,254.963196 
	C136.722519,254.675064 137.755280,254.386932 138.788040,254.098801 
	C138.619156,253.718613 138.450272,253.338440 138.281387,252.958252 
	C137.210236,253.528320 136.139069,254.098389 135.689774,254.963196 
M178.476318,254.252960 
	C178.542419,254.272568 178.608521,254.292175 178.476318,254.252960 
z"/>
<path fill="#B9B391" opacity="1.000000" stroke="none" 
	d="
M776.755127,265.936493 
	C779.190735,266.331177 781.628967,267.049255 784.061096,267.028931 
	C786.460144,267.008911 788.852966,266.241638 791.248474,265.802185 
	C791.253052,265.292358 791.257629,264.782532 791.262207,264.272736 
	C791.691162,265.645874 792.120056,267.019043 792.711182,268.677307 
	C791.416687,269.466980 789.854004,270.597382 788.520996,270.371704 
	C781.395020,269.165009 774.326416,267.619751 766.928589,265.806183 
	C767.005310,264.592346 767.391357,263.763855 767.777405,262.935364 
	C769.809387,263.662689 771.841431,264.390045 774.284302,265.358032 
	C775.381775,265.711304 776.068481,265.823914 776.755127,265.936493 
z"/>
<path fill="#C1BA95" opacity="1.000000" stroke="none" 
	d="
M873.069641,266.965912 
	C875.915833,261.992065 879.365845,261.832336 883.577148,266.076172 
	C883.835693,266.472076 883.811951,266.898682 883.811951,266.898682 
	C880.762390,268.282928 879.655762,273.794403 874.253418,270.739716 
	C873.545959,269.189850 873.307800,268.077881 873.069641,266.965912 
z"/>
<path fill="#474742" opacity="1.000000" stroke="none" 
	d="
M767.560059,262.683380 
	C767.391357,263.763855 767.005310,264.592346 766.528076,265.759155 
	C765.098816,269.614197 763.760620,273.130920 762.337646,276.870483 
	C761.071533,272.148041 759.942322,267.936310 758.899170,263.333557 
	C761.866821,264.337982 764.683289,264.669220 767.560059,262.683380 
z"/>
<path fill="#A4A292" opacity="1.000000" stroke="none" 
	d="
M838.314880,270.976013 
	C838.739624,271.241943 839.164368,271.507843 839.809204,271.895386 
	C834.699097,275.743164 828.985779,273.941193 822.852539,272.703247 
	C821.883301,271.494354 821.405701,270.755493 820.928101,270.016602 
	C822.661072,270.009857 824.394104,270.003113 826.533569,270.229248 
	C826.940063,270.986298 826.940063,271.510498 826.940063,272.763000 
	C827.922485,271.407715 828.438782,270.695435 828.955139,269.983154 
	C829.667542,269.986420 830.379944,269.989685 831.515198,270.290924 
	C832.123291,271.279663 832.308533,271.970367 832.803955,273.817627 
	C833.428650,271.760864 833.697144,270.877014 833.965576,269.993103 
	C834.442749,269.986450 834.919983,269.979797 835.981140,270.168762 
	C837.148376,270.568298 837.731628,270.772156 838.314880,270.976013 
z"/>
<path fill="#555349" opacity="1.000000" stroke="none" 
	d="
M820.672974,269.766052 
	C821.405701,270.755493 821.883301,271.494354 822.470703,272.476440 
	C822.580444,272.719635 822.178162,272.652985 822.178162,272.652985 
	C822.178162,272.652985 821.770447,272.657410 821.318359,272.499756 
	C820.550781,272.908203 820.235229,273.474274 819.919617,274.040314 
	C819.623535,274.867554 819.327454,275.694824 819.242249,275.932922 
	C817.758667,274.299774 816.349792,272.748993 814.873779,270.832397 
	C814.918945,268.764435 815.031250,267.062256 815.332275,265.372192 
	C815.521057,265.384308 815.891724,265.458923 815.891724,265.458923 
	C815.891724,267.146790 815.891724,268.834656 815.891724,270.522522 
	C816.447083,270.555145 817.002380,270.587738 817.557739,270.620361 
	C817.683594,268.828857 817.437378,266.893921 818.054993,265.291992 
	C818.535095,264.046722 820.092102,263.216644 821.623962,262.436157 
	C822.042236,263.108887 822.006958,263.547455 821.971680,263.985992 
	C821.453735,265.829163 820.935791,267.672302 820.672974,269.766052 
z"/>
<path fill="#9F9E92" opacity="1.000000" stroke="none" 
	d="
M815.143555,265.360107 
	C815.031250,267.062256 814.918945,268.764435 814.629150,270.787659 
	C813.267883,271.084534 812.083923,271.060303 810.281311,270.720306 
	C810.072571,267.899170 810.482483,265.393829 810.892456,262.888489 
	C811.774536,262.802063 812.656555,262.715668 813.892029,262.973633 
	C814.468872,263.541107 814.710205,263.742889 814.969360,263.923309 
	C814.969360,263.923309 815.014587,263.993927 815.049316,264.354980 
	C815.103882,264.930756 815.123779,265.145447 815.143555,265.360107 
z"/>
<path fill="#D0C697" opacity="1.000000" stroke="none" 
	d="
M845.499756,272.976013 
	C849.723267,268.046844 855.620972,269.232239 861.717651,269.825439 
	C856.694824,271.006592 851.315002,272.002472 845.499756,272.976013 
z"/>
<path fill="#91928E" opacity="1.000000" stroke="none" 
	d="
M884.027100,267.246765 
	C883.811951,266.898682 883.835693,266.472076 883.841064,266.258850 
	C885.308594,264.753387 885.073120,260.320557 889.032166,263.613617 
	C888.813843,265.985657 888.426025,268.078400 888.027649,270.574951 
	C888.017151,270.978790 887.903381,271.108673 887.903442,271.108673 
	C887.409424,272.626862 886.915466,274.145020 886.421509,275.663177 
	C886.144470,275.692291 885.867493,275.721375 885.590454,275.750458 
	C885.141052,273.031952 884.691711,270.313416 884.027100,267.246765 
z"/>
<path fill="#9E9C8C" opacity="1.000000" stroke="none" 
	d="
M810.540894,262.888336 
	C810.482483,265.393829 810.072571,267.899170 809.841797,270.724060 
	C808.591492,271.676025 807.161987,272.308472 805.390625,272.970947 
	C806.167053,269.373810 808.472839,265.716583 804.870850,261.718567 
	C806.643738,262.108429 808.416565,262.498291 810.540894,262.888336 
z"/>
<path fill="#2B2B2B" opacity="1.000000" stroke="none" 
	d="
M748.659912,262.007446 
	C749.093933,262.040680 749.221985,262.485809 749.167297,262.710815 
	C742.034119,262.590820 744.519714,268.355072 743.007996,271.859772 
	C743.007996,268.869934 743.007996,265.880127 743.007996,262.445587 
	C744.726746,262.290314 746.476379,262.132263 748.659912,262.007446 
z"/>
<path fill="#91928E" opacity="1.000000" stroke="none" 
	d="
M895.017639,264.365112 
	C895.759277,263.934296 896.486755,263.907379 897.577393,263.876587 
	C897.416016,266.491882 896.891418,269.111115 896.366760,271.730316 
	C895.769775,271.625549 895.172729,271.520782 894.575684,271.416016 
	C894.718262,269.200348 894.860840,266.984680 895.017639,264.365112 
z"/>
<path fill="#2A2923" opacity="1.000000" stroke="none" 
	d="
M873.034668,266.659546 
	C873.307800,268.077881 873.545959,269.189850 873.909302,270.637756 
	C873.362000,270.886444 872.689453,270.799164 871.952881,270.149902 
	C871.861877,269.022766 871.834778,268.457672 871.807678,267.892548 
	C871.737061,266.302734 871.666504,264.712891 871.595886,263.123077 
	C872.004089,263.086792 872.412354,263.050537 872.820557,263.014252 
	C872.880249,264.127228 872.939941,265.240204 873.034668,266.659546 
z"/>
<path fill="#91928E" opacity="1.000000" stroke="none" 
	d="
M888.073486,270.913391 
	C889.547485,271.156830 890.965088,271.465637 892.382690,271.774445 
	C892.196960,272.364166 892.011169,272.953918 891.825378,273.543671 
	C890.618591,272.923065 889.411743,272.302429 888.054199,271.395264 
	C887.903381,271.108673 888.017151,270.978790 888.073486,270.913391 
z"/>
<path fill="#91928E" opacity="1.000000" stroke="none" 
	d="
M890.249817,264.134277 
	C890.935120,263.504730 891.843689,263.000854 892.884155,262.757751 
	C892.168457,263.432343 891.320740,263.846161 890.249817,264.134277 
z"/>
<path fill="#2B2B2B" opacity="1.000000" stroke="none" 
	d="
M748.878052,263.308929 
	C749.530090,262.821106 750.003845,262.757538 750.814697,262.827454 
	C750.680176,265.987610 750.208557,269.014313 749.736938,272.041016 
	C749.534973,272.052734 749.332947,272.064484 749.130981,272.076202 
	C748.987244,269.295197 748.843445,266.514160 748.878052,263.308929 
z"/>
<path fill="#69695E" opacity="1.000000" stroke="none" 
	d="
M871.064941,274.315155 
	C871.345276,274.060455 871.613037,274.012482 871.880737,273.964478 
	C871.700684,274.450073 871.520630,274.935669 871.340576,275.421265 
	C871.244568,275.121460 871.148438,274.821655 871.064941,274.315155 
z"/>
<path fill="#69695E" opacity="1.000000" stroke="none" 
	d="
M871.620911,268.184479 
	C871.834778,268.457672 871.861877,269.022766 871.772705,269.855927 
	C871.491882,269.919464 871.368896,269.692413 871.204163,269.268738 
	C871.225159,268.888611 871.329651,268.682526 871.620911,268.184479 
z"/>
<path fill="#A4A292" opacity="1.000000" stroke="none" 
	d="
M820.171631,273.833618 
	C820.235229,273.474274 820.550781,272.908203 821.116821,272.534851 
	C821.052795,273.027374 820.738220,273.327148 820.171631,273.833618 
z"/>
<path fill="#91928E" opacity="1.000000" stroke="none" 
	d="
M894.205750,262.969421 
	C894.167908,262.748169 894.339233,262.559601 894.667969,262.259430 
	C894.810852,262.134674 894.837341,262.578033 894.813843,262.799377 
	C894.790405,263.020721 894.400452,262.988983 894.205750,262.969421 
z"/>
<path fill="#474742" opacity="1.000000" stroke="none" 
	d="
M758.006775,262.280731 
	C758.379700,262.194061 758.663330,262.352966 759.002441,262.761230 
	C758.870422,263.077087 758.682983,263.143555 758.209106,263.129395 
	C757.920959,262.874573 757.919250,262.700439 758.006775,262.280731 
z"/>
<path fill="#494841" opacity="1.000000" stroke="none" 
	d="
M161.365662,264.263184 
	C158.249634,261.213013 157.858536,257.812378 160.706985,254.992264 
	C161.924698,253.786667 164.854630,253.251602 166.504272,253.834137 
	C168.208740,254.436050 169.303436,256.764679 171.548309,259.358826 
	C167.101120,259.841858 164.291031,260.147095 161.480957,260.452332 
	C161.464294,260.681274 161.447647,260.910217 161.430984,261.139160 
	C163.676758,261.824677 165.922516,262.510162 168.192230,263.616516 
	C166.054672,264.129639 163.893173,264.221863 161.365662,264.263184 
z"/>
<path fill="#40403E" opacity="1.000000" stroke="none" 
	d="
M185.544250,259.836792 
	C186.431732,254.182236 187.496826,253.270462 190.616180,255.605316 
	C189.248642,257.567200 188.252411,259.100861 187.256165,260.634521 
	C189.137650,260.814575 191.027832,261.185333 192.897232,261.100159 
	C193.946503,261.052338 194.961426,260.250671 195.991806,259.788666 
	C196.304352,263.695984 193.001770,266.125519 189.307373,264.498352 
	C188.051743,263.945312 187.128799,262.636932 185.891129,261.044403 
	C185.667038,260.222290 185.605637,260.029541 185.544250,259.836792 
z"/>
<path fill="#C8C095" opacity="1.000000" stroke="none" 
	d="
M196.033722,259.489319 
	C194.961426,260.250671 193.946503,261.052338 192.897232,261.100159 
	C191.027832,261.185333 189.137650,260.814575 187.256165,260.634521 
	C188.252411,259.100861 189.248642,257.567200 190.607452,255.988617 
	C192.798294,256.177155 194.626556,256.410583 196.800262,256.836426 
	C196.789017,257.749237 196.432327,258.469604 196.033722,259.489319 
z"/>
<path fill="#4E4E48" opacity="1.000000" stroke="none" 
	d="
M171.903839,264.358826 
	C172.330612,260.694611 172.795197,257.394257 173.771484,254.302353 
	C174.670212,254.898941 175.057266,255.287064 175.444336,255.675186 
	C174.988327,256.866943 174.532318,258.058685 174.124573,260.009338 
	C175.896332,264.240112 178.516098,263.302460 181.436005,262.447021 
	C181.877304,262.874115 182.053848,263.044891 182.230408,263.215698 
	C179.911072,263.939209 177.591751,264.662750 174.245651,265.706573 
	C174.261032,265.662628 173.820724,266.920227 173.380402,268.177856 
	C173.107193,268.176788 172.833984,268.175751 172.560776,268.174713 
	C172.354401,267.024048 172.148026,265.873383 171.903839,264.358826 
z"/>
<path fill="#4C4A3E" opacity="1.000000" stroke="none" 
	d="
M156.854584,260.978760 
	C156.824539,262.000977 156.794479,263.023193 156.667786,264.417908 
	C152.617065,264.047333 148.662964,263.304199 144.480865,262.322144 
	C144.914001,260.073395 145.575134,258.063507 146.656219,256.445312 
	C146.927292,262.525055 148.609390,263.411499 155.290665,261.017029 
	C156.020462,261.014923 156.437515,260.996826 156.854584,260.978760 
z"/>
<path fill="#939184" opacity="1.000000" stroke="none" 
	d="
M121.789688,259.205261 
	C121.789680,257.412720 121.789680,255.620163 121.789680,252.918350 
	C124.689415,253.689865 126.894913,254.276657 129.492691,254.967834 
	C127.074432,255.818787 125.344490,256.427521 123.614532,257.036255 
	C125.127922,258.368317 126.641319,259.700378 128.481827,261.119415 
	C126.785629,262.075348 124.762321,262.944305 122.359787,263.918945 
	C121.980568,264.024628 121.877640,263.929657 121.877640,263.929657 
	C121.873657,263.463562 121.869682,262.997467 121.908081,261.853912 
	C121.896866,260.519379 121.843277,259.862335 121.789688,259.205261 
z"/>
<path fill="#CFC697" opacity="1.000000" stroke="none" 
	d="
M121.349823,259.164124 
	C121.843277,259.862335 121.896866,260.519379 121.905731,261.504333 
	C117.263718,261.195892 112.666428,260.559540 107.673553,259.858521 
	C107.025322,259.037720 106.772675,258.281586 106.614258,257.807434 
	C111.409836,258.248749 116.159897,258.685883 121.349823,259.164124 
z"/>
<path fill="#4A493F" opacity="1.000000" stroke="none" 
	d="
M132.369980,262.296265 
	C132.128952,260.142670 132.128952,258.228119 132.128952,256.313568 
	C133.764053,262.165375 133.764053,262.165375 142.369751,262.052185 
	C139.464493,266.029358 136.104340,265.784119 132.369980,262.296265 
z"/>
<path fill="#4E4E48" opacity="1.000000" stroke="none" 
	d="
M183.902527,261.215546 
	C183.492142,261.784454 183.081772,262.353363 182.450897,263.068970 
	C182.053848,263.044891 181.877304,262.874115 181.646332,262.235779 
	C181.838699,261.229065 182.085510,260.689850 182.580795,260.141785 
	C183.156693,260.076355 183.486420,260.041321 183.857208,260.323547 
	C183.898178,260.817963 183.900345,261.016754 183.902527,261.215546 
z"/>
<path fill="#C5BC92" opacity="1.000000" stroke="none" 
	d="
M184.209351,261.189270 
	C183.900345,261.016754 183.898178,260.817963 184.019348,260.154907 
	C184.352158,259.442169 184.616211,259.286011 184.934875,259.222229 
	C185.019821,259.405029 185.136551,259.564514 185.414673,259.768738 
	C185.605637,260.029541 185.667038,260.222290 185.732712,260.719543 
	C185.330048,261.070374 184.923096,261.116699 184.209351,261.189270 
z"/>
<path fill="#939184" opacity="1.000000" stroke="none" 
	d="
M122.027573,264.076538 
	C122.074570,264.128448 121.846672,264.255432 121.846672,264.255432 
	C121.846672,264.255432 121.788849,264.034912 121.833244,263.982300 
	C121.877640,263.929657 121.980568,264.024628 122.027573,264.076538 
z"/>
<path fill="#336DE3" opacity="1.000000" stroke="none" 
	d="
M136.193970,129.217331 
	C143.491898,120.274178 152.849838,121.139687 157.903976,131.124496 
	C170.981125,156.959351 183.966034,182.841400 196.865280,208.765564 
	C202.037003,219.159409 196.435318,227.915085 184.679642,227.945740 
	C159.182678,228.012253 133.685211,228.024002 108.188339,227.939590 
	C96.700195,227.901566 91.153862,219.207214 96.221283,208.996307 
	C109.389809,182.461609 122.743187,156.018646 136.193970,129.217331 
M154.901138,160.577591 
	C154.024155,158.079788 156.999268,153.825546 152.419907,153.174988 
	C147.757690,152.512650 142.928101,153.028580 138.118134,153.028580 
	C138.118134,159.103928 138.118134,164.364670 138.118134,169.779388 
	C140.296173,170.078568 142.193344,170.339172 144.220398,170.617615 
	C144.220398,173.039719 144.220398,175.142334 144.220398,177.845032 
	C138.371170,177.845032 132.786316,177.845032 127.042374,177.845032 
	C126.797752,180.831085 126.600403,183.240051 126.406143,185.611282 
	C123.882950,185.897552 121.806053,186.133179 119.718063,186.370071 
	C119.718063,192.012451 119.718063,197.237076 119.718063,202.528412 
	C125.398544,202.528412 130.633423,202.528412 136.086823,202.528412 
	C136.086823,196.932892 136.086823,191.679886 136.086823,186.320923 
	C133.886780,186.025955 131.976364,185.769821 130.036041,185.509674 
	C130.036041,183.923386 130.036041,182.657745 130.036041,181.273163 
	C141.331741,181.273163 152.388779,181.273163 163.304642,181.273163 
	C165.180847,187.971558 159.413605,184.959976 157.110916,186.624603 
	C157.110916,191.790802 157.110916,197.025330 157.110916,202.868454 
	C160.203903,202.868454 162.987457,202.892044 165.770508,202.864166 
	C175.239990,202.769363 173.854446,203.905136 173.930679,194.568069 
	C173.995392,186.642868 173.944153,186.642456 167.055435,185.297256 
	C166.867081,182.960541 166.673492,180.558914 166.447525,177.755569 
	C160.039825,177.755569 154.090729,177.755569 147.834686,177.755569 
	C147.834686,175.097153 147.834686,172.887436 147.834686,170.085541 
	C155.126740,171.819946 155.534973,167.604202 154.906418,162.526749 
	C154.865784,162.198532 154.901138,161.860886 154.901138,160.577591 
z"/>
<path fill="#3C7FF9" opacity="1.000000" stroke="none" 
	d="
M740.361023,154.772034 
	C740.428589,139.621735 740.503906,124.471458 740.561768,109.321121 
	C740.632874,90.683800 750.222046,81.159767 768.992249,81.153130 
	C802.629150,81.141243 836.266113,81.137939 869.903015,81.154663 
	C888.296570,81.163811 898.053955,90.841187 898.062012,109.077538 
	C898.077087,143.214020 898.080811,177.350510 898.059998,211.486969 
	C898.049133,229.233170 888.291077,238.998047 870.573303,239.006943 
	C836.270325,239.024170 801.967285,239.030685 767.664307,239.003952 
	C750.580139,238.990646 740.752197,229.192047 740.570374,212.082275 
	C740.524414,207.753281 740.529358,203.423767 740.851929,198.545807 
	C742.819275,198.031204 744.445557,198.065262 746.053223,198.560608 
	C746.037903,204.351166 745.861938,209.687912 746.082764,215.008163 
	C746.511169,225.327438 754.009399,233.167618 764.222229,233.216095 
	C801.026428,233.390869 837.832153,233.274780 874.637268,233.269302 
	C880.200623,233.268478 884.467590,230.701904 888.086853,226.671173 
	C891.947083,222.371902 892.572205,217.162186 892.574341,211.744385 
	C892.583435,188.761459 892.585327,165.778549 892.580872,142.795624 
	C892.578491,130.638107 892.759338,118.476089 892.488037,106.324356 
	C892.226624,94.615593 884.699951,86.967522 873.417847,86.933815 
	C837.278442,86.825844 801.138306,86.826263 764.998901,86.937416 
	C754.127075,86.970848 746.144043,95.081261 746.063477,106.020653 
	C745.943298,122.340073 746.079468,138.661377 745.627869,155.001617 
	C743.553101,154.938263 741.957031,154.855148 740.361023,154.772034 
z"/>
<path fill="#356CDC" opacity="1.000000" stroke="none" 
	d="
M746.071899,198.099335 
	C744.445557,198.065262 742.819275,198.031204 740.825439,198.089661 
	C728.665649,196.216125 720.383423,187.318298 720.338196,176.567047 
	C720.292358,165.676651 728.060364,156.942307 739.993652,154.825745 
	C741.957031,154.855148 743.553101,154.938263 745.990845,155.065140 
	C759.456970,158.734833 766.484802,170.024261 763.315857,181.754684 
	C760.906494,190.673096 754.697815,195.686844 746.071899,198.099335 
M739.450317,165.834946 
	C738.094238,166.779861 736.860352,168.206757 735.361084,168.586823 
	C728.649780,170.288132 732.052124,176.645981 729.747253,180.334335 
	C729.349365,180.971054 729.279175,181.875015 729.259155,182.660660 
	C729.248108,183.094147 729.540161,183.701172 729.893127,183.952744 
	C733.989380,186.872543 737.706726,189.924667 743.591919,189.226624 
	C750.828613,188.368271 756.854614,180.707047 754.544312,173.694016 
	C754.166138,172.546143 753.213928,171.412659 752.226440,170.674973 
	C749.842651,168.894241 747.397766,167.112762 744.741638,165.813995 
	C743.420044,165.167755 741.579590,165.582443 739.450317,165.834946 
z"/>
<path fill="#909085" opacity="1.000000" stroke="none" 
	d="
M839.032898,262.820435 
	C840.955688,260.400604 842.825439,261.391052 844.738647,263.596375 
	C845.301575,267.731262 842.722839,266.785706 840.951843,266.981384 
	C838.652344,267.235443 837.525330,266.349152 837.997192,263.922455 
	C837.997192,263.922455 838.005920,264.004486 838.263550,263.940094 
	C838.691833,263.523956 838.862366,263.172211 839.032898,262.820435 
z"/>
<path fill="#505148" opacity="1.000000" stroke="none" 
	d="
M833.931152,269.533752 
	C833.697144,270.877014 833.428650,271.760864 832.803955,273.817627 
	C832.308533,271.970367 832.123291,271.279663 831.871338,270.291382 
	C831.804688,265.937469 831.804688,261.881134 831.804688,257.824768 
	C832.502014,257.812897 833.199402,257.800995 833.896729,257.789124 
	C833.896729,261.550873 833.896729,265.312622 833.931152,269.533752 
z"/>
<path fill="#33332E" opacity="1.000000" stroke="none" 
	d="
M837.606873,263.952515 
	C837.525330,266.349152 838.652344,267.235443 840.951843,266.981384 
	C842.722839,266.785706 845.301575,267.731262 844.900513,263.852478 
	C845.711365,264.683929 846.412048,265.947296 847.569275,268.033966 
	C844.429749,268.033966 842.327271,267.839874 840.294006,268.130371 
	C839.490723,268.245178 838.841675,269.439026 838.218628,270.558807 
	C837.731628,270.772156 837.148376,270.568298 836.338989,270.162537 
	C836.480774,267.967957 836.848633,265.975250 837.606873,263.952515 
z"/>
<path fill="#A4A292" opacity="1.000000" stroke="none" 
	d="
M822.355103,263.994354 
	C822.006958,263.547455 822.042236,263.108887 822.026855,262.343292 
	C826.016479,261.300232 826.631775,261.541626 829.510620,265.337860 
	C826.949341,264.832886 824.843994,264.417816 822.355103,263.994354 
z"/>
<path fill="#474742" opacity="1.000000" stroke="none" 
	d="
M776.523621,265.907349 
	C776.068481,265.823914 775.381775,265.711304 774.632324,265.422974 
	C775.143738,265.457550 775.717957,265.667847 776.523621,265.907349 
z"/>
<path fill="#969794" opacity="1.000000" stroke="none" 
	d="
M828.775269,269.862854 
	C828.438782,270.695435 827.922485,271.407715 826.940063,272.763000 
	C826.940063,271.510498 826.940063,270.986298 826.966553,270.227905 
	C827.527100,269.909943 828.061279,269.826202 828.775269,269.862854 
z"/>
<path fill="#969794" opacity="1.000000" stroke="none" 
	d="
M814.942505,263.756226 
	C814.710205,263.742889 814.468872,263.541107 814.082031,263.146362 
	C814.250977,263.179565 814.583313,263.384369 814.942505,263.756226 
z"/>
<path fill="#33332E" opacity="1.000000" stroke="none" 
	d="
M838.701172,262.861145 
	C838.862366,263.172211 838.691833,263.523956 838.222534,263.944550 
	C838.072449,263.642883 838.221008,263.272369 838.701172,262.861145 
z"/>
<path fill="#9E9C8C" opacity="1.000000" stroke="none" 
	d="
M802.495361,264.497437 
	C802.514526,264.491364 802.476196,264.503540 802.495361,264.497437 
z"/>
<path fill="#969794" opacity="1.000000" stroke="none" 
	d="
M815.332336,265.372192 
	C815.123779,265.145447 815.103882,264.930756 815.065796,264.393555 
	C815.263428,264.360840 815.479309,264.650665 815.793457,265.199707 
	C815.891724,265.458923 815.521057,265.384308 815.332336,265.372192 
z"/>
<path fill="#9E9D91" opacity="1.000000" stroke="none" 
	d="
M154.977936,261.001038 
	C148.609390,263.411499 146.927292,262.525055 147.025131,256.409943 
	C146.974106,255.982880 146.996078,255.998734 147.275146,255.990860 
	C147.688293,255.659393 147.822388,255.335800 147.956482,255.012192 
	C147.956467,255.012192 147.966385,254.966125 148.349136,255.035309 
	C149.691254,255.010208 150.650604,254.915924 151.609970,254.821655 
	C152.017349,254.854660 152.424744,254.887665 153.326965,255.302948 
	C154.207184,257.457153 154.592560,259.229095 154.977936,261.001038 
z"/>
<path fill="#C5BC92" opacity="1.000000" stroke="none" 
	d="
M182.332306,260.150635 
	C182.085510,260.689850 181.838699,261.229065 181.381561,261.979492 
	C178.516098,263.302460 175.896332,264.240112 174.170105,260.401245 
	C176.487686,259.689972 178.807999,259.345642 181.626709,259.298492 
	C182.194183,259.780640 182.263245,259.965637 182.332306,260.150635 
z"/>
<path fill="#404038" opacity="1.000000" stroke="none" 
	d="
M155.290665,261.017029 
	C154.592560,259.229095 154.207184,257.457153 153.632172,255.331726 
	C154.310883,253.400497 155.179245,251.822754 156.047623,250.244995 
	C156.357376,250.184372 156.667145,250.123749 156.976913,250.063126 
	C156.976913,253.402069 156.976913,256.741028 156.915741,260.529358 
	C156.437515,260.996826 156.020462,261.014923 155.290665,261.017029 
z"/>
<path fill="#98978A" opacity="1.000000" stroke="none" 
	d="
M182.580780,260.141785 
	C182.263245,259.965637 182.194183,259.780640 182.024811,259.316589 
	C181.924515,257.993378 181.924515,256.949249 181.924515,254.440598 
	C183.370331,256.607361 184.038727,257.609009 184.820999,258.916443 
	C184.616211,259.286011 184.352158,259.442169 183.980560,259.859253 
	C183.486420,260.041321 183.156693,260.076355 182.580780,260.141785 
z"/>
<path fill="#4A493F" opacity="1.000000" stroke="none" 
	d="
M135.378845,254.815826 
	C136.139069,254.098389 137.210236,253.528320 138.281387,252.958252 
	C138.450272,253.338440 138.619156,253.718613 138.788040,254.098801 
	C137.755280,254.386932 136.722519,254.675064 135.378845,254.815826 
z"/>
<path fill="#4C4A3E" opacity="1.000000" stroke="none" 
	d="
M151.593689,254.514465 
	C150.650604,254.915924 149.691254,255.010208 148.372269,255.030823 
	C149.200912,254.707199 150.389175,254.457245 151.593689,254.514465 
z"/>
<path fill="#98978A" opacity="1.000000" stroke="none" 
	d="
M175.473389,255.489182 
	C175.057266,255.287064 174.670212,254.898941 174.180710,254.240753 
	C174.552994,254.414841 175.027725,254.859009 175.473389,255.489182 
z"/>
<path fill="#98978A" opacity="1.000000" stroke="none" 
	d="
M178.575470,254.282379 
	C178.608521,254.292175 178.542419,254.272568 178.575470,254.282379 
z"/>
<path fill="#4C4A3E" opacity="1.000000" stroke="none" 
	d="
M147.643555,254.952362 
	C147.822388,255.335800 147.688293,255.659393 147.267090,255.982224 
	C147.096863,255.618500 147.213745,255.255524 147.643555,254.952362 
z"/>
<path fill="#F8FAFE" opacity="1.000000" stroke="none" 
	d="
M154.901138,161.052612 
	C154.901138,161.860886 154.865784,162.198532 154.906418,162.526749 
	C155.534973,167.604202 155.126740,171.819946 147.834686,170.085541 
	C147.834686,172.887436 147.834686,175.097153 147.834686,177.755569 
	C154.090729,177.755569 160.039825,177.755569 166.447525,177.755569 
	C166.673492,180.558914 166.867081,182.960541 167.055435,185.297256 
	C173.944153,186.642456 173.995392,186.642868 173.930679,194.568069 
	C173.854446,203.905136 175.239990,202.769363 165.770508,202.864166 
	C162.987457,202.892044 160.203903,202.868454 157.110916,202.868454 
	C157.110916,197.025330 157.110916,191.790802 157.110916,186.624603 
	C159.413605,184.959976 165.180847,187.971558 163.304642,181.273163 
	C152.388779,181.273163 141.331741,181.273163 130.036041,181.273163 
	C130.036041,182.657745 130.036041,183.923386 130.036041,185.509674 
	C131.976364,185.769821 133.886780,186.025955 136.086823,186.320923 
	C136.086823,191.679886 136.086823,196.932892 136.086823,202.528412 
	C130.633423,202.528412 125.398544,202.528412 119.718063,202.528412 
	C119.718063,197.237076 119.718063,192.012451 119.718063,186.370071 
	C121.806053,186.133179 123.882950,185.897552 126.406143,185.611282 
	C126.600403,183.240051 126.797752,180.831085 127.042374,177.845032 
	C132.786316,177.845032 138.371170,177.845032 144.220398,177.845032 
	C144.220398,175.142334 144.220398,173.039719 144.220398,170.617615 
	C142.193344,170.339172 140.296173,170.078568 138.118134,169.779388 
	C138.118134,164.364670 138.118134,159.103928 138.118134,153.028580 
	C142.928101,153.028580 147.757690,152.512650 152.419907,153.174988 
	C156.999268,153.825546 154.024155,158.079788 154.901138,161.052612 
z"/>
<path fill="#37507D" opacity="1.000000" stroke="none" 
	d="
M746.053223,198.560608 
	C754.697815,195.686844 760.906494,190.673096 763.315857,181.754684 
	C766.484802,170.024261 759.456970,158.734833 746.469604,155.045380 
	C746.079468,138.661377 745.943298,122.340073 746.063477,106.020653 
	C746.144043,95.081261 754.127075,86.970848 764.998901,86.937416 
	C801.138306,86.826263 837.278442,86.825844 873.417847,86.933815 
	C884.699951,86.967522 892.226624,94.615593 892.488037,106.324356 
	C892.759338,118.476089 892.578491,130.638107 892.580872,142.795624 
	C892.585327,165.778549 892.583435,188.761459 892.574341,211.744385 
	C892.572205,217.162186 891.947083,222.371902 888.086853,226.671173 
	C884.467590,230.701904 880.200623,233.268478 874.637268,233.269302 
	C837.832153,233.274780 801.026428,233.390869 764.222229,233.216095 
	C754.009399,233.167618 746.511169,225.327438 746.082764,215.008163 
	C745.861938,209.687912 746.037903,204.351166 746.053223,198.560608 
z"/>
<path fill="#4B7EE9" opacity="1.000000" stroke="none" 
	d="
M739.712097,165.676056 
	C741.579590,165.582443 743.420044,165.167755 744.741638,165.813995 
	C747.397766,167.112762 749.842651,168.894241 752.226440,170.674973 
	C753.213928,171.412659 754.166138,172.546143 754.544312,173.694016 
	C756.854614,180.707047 750.828613,188.368271 743.591919,189.226624 
	C737.706726,189.924667 733.989380,186.872543 729.893127,183.952744 
	C729.540161,183.701172 729.248108,183.094147 729.259155,182.660660 
	C729.279175,181.875015 729.349365,180.971054 729.747253,180.334335 
	C732.052124,176.645981 728.649780,170.288132 735.361084,168.586823 
	C736.860352,168.206757 738.094238,166.779861 739.712097,165.676056 
z"/>
</svg>