<svg
   width="106.39133mm"
   height="115.09025mm"
   viewBox="0 0 106.39133 115.09025"
   version="1.1"
   id="svg201550"
   inkscape:version="1.2-alpha1 (7125ea6, 2022-03-22)"
   sodipodi:docname="confidential-containers-icon-white.svg"
   inkscape:export-filename="/home/tigert/Documents/design-temp/confidential-containers/logo/confidential-containers-icon-white.png"
   inkscape:export-xdpi="301.07001"
   inkscape:export-ydpi="301.07001"
   xmlns:inkscape="http://www.inkscape.org/namespaces/inkscape"
   xmlns:sodipodi="http://sodipodi.sourceforge.net/DTD/sodipodi-0.dtd"
   xmlns="http://www.w3.org/2000/svg"
   xmlns:svg="http://www.w3.org/2000/svg">
  <sodipodi:namedview
     id="namedview201552"
     pagecolor="#ffffff"
     bordercolor="#666666"
     borderopacity="1.0"
     inkscape:pageshadow="2"
     inkscape:pageopacity="0.0"
     inkscape:pagecheckerboard="true"
     inkscape:document-units="mm"
     showgrid="false"
     fit-margin-top="10"
     fit-margin-left="10"
     fit-margin-right="10"
     lock-margins="true"
     fit-margin-bottom="10"
     inkscape:zoom="0.68589358"
     inkscape:cx="246.39391"
     inkscape:cy="330.95513"
     inkscape:window-width="1950"
     inkscape:window-height="1131"
     inkscape:window-x="26"
     inkscape:window-y="23"
     inkscape:window-maximized="0"
     inkscape:current-layer="layer1"
     inkscape:deskcolor="#d1d1d1" />
  <defs
     id="defs201547" />
  <g
     inkscape:label="Layer 1"
     inkscape:groupmode="layer"
     id="layer1"
     transform="translate(463.92245,-100.21543)">
    <g
       id="g203500"
       transform="translate(-317.21501,-40.129347)"
       style="fill:#ffffff">
      <g
         id="g7413"
         style="fill:#ffffff">
        <path
           style="color:#000000;fill:#ffffff;stroke-linecap:round;stroke-linejoin:round;-inkscape-stroke:none"
           d="m -1737.291,530.79492 c -6.2759,0 -10.4909,1.87436 -16.8008,4.34961 -6.3099,2.47525 -13.7984,5.88144 -22.1836,9.98438 -16.7703,8.20587 -37.0577,19.19417 -57.0527,30.73828 -19.995,11.54411 -39.6548,23.61845 -55.1465,34.03906 -7.7458,5.2103 -14.4397,9.99381 -19.7383,14.2207 -5.2986,4.2269 -9.03,6.93993 -12.168,12.375 -3.1379,5.43509 -3.6215,10.02247 -4.6328,16.72461 -1.0113,6.70215 -1.8059,14.88988 -2.4453,24.20313 -1.2787,18.62648 -1.9062,41.68912 -1.9062,64.77734 0,23.08822 0.6275,46.15281 1.9062,64.7793 0.6394,9.31324 1.434,17.50098 2.4453,24.20312 1.0113,6.70215 1.4949,11.28953 4.6328,16.72461 3.138,5.43508 6.8694,8.14811 12.168,12.375 5.2986,4.22689 11.9925,9.0104 19.7383,14.22071 15.4917,10.42061 35.1515,22.49299 55.1465,34.0371 19.995,11.54412 40.2824,22.53436 57.0527,30.74024 8.3852,4.10294 15.8737,7.50717 22.1836,9.98242 6.3099,2.47525 10.5249,4.35156 16.8008,4.35156 6.2759,0 10.4909,-1.87631 16.8008,-4.35156 6.3099,-2.47525 13.7984,-5.87948 22.1836,-9.98242 16.7703,-8.20588 37.0577,-19.19612 57.0527,-30.74024 19.995,-11.54411 39.6548,-23.61649 55.1465,-34.0371 7.7458,-5.21031 14.4377,-9.99382 19.7363,-14.22071 5.2986,-4.22689 9.032,-6.93992 12.1699,-12.375 3.1379,-5.43507 3.6196,-10.02247 4.6309,-16.72461 1.0113,-6.70214 1.8079,-14.88988 2.4473,-24.20312 1.2786,-18.62648 1.9042,-41.69108 1.9042,-64.7793 0,-23.08822 -0.6256,-46.15086 -1.9042,-64.77734 -0.6394,-9.31324 -1.436,-17.50099 -2.4473,-24.20313 -1.0113,-6.70214 -1.493,-11.28953 -4.6309,-16.72461 -3.1379,-5.43507 -6.8713,-8.1481 -12.1699,-12.375 -5.2986,-4.22689 -11.9905,-9.0104 -19.7363,-14.2207 -15.4917,-10.42061 -35.1515,-22.49495 -55.1465,-34.03906 -19.995,-11.54411 -40.2824,-22.53241 -57.0527,-30.73828 -8.3852,-4.10294 -15.8737,-7.50913 -22.1836,-9.98438 -6.3099,-2.47525 -10.5249,-4.34961 -16.8008,-4.34961 z m 0,21.88672 c -1.2642,0 3.3923,0.71513 8.8086,2.83984 5.4163,2.12472 12.5091,5.32986 20.5566,9.26758 16.0951,7.87546 36.0775,18.68878 55.7266,30.03321 19.6491,11.34442 39.0071,23.24313 53.875,33.24414 7.4339,5.0005 13.7565,9.54163 18.3047,13.16992 4.5482,3.62829 7.4953,7.30377 6.8632,6.20898 -0.632,-1.09478 1.0773,3.29387 1.9454,9.04688 0.868,5.75301 1.6383,13.49731 2.2519,22.43554 1.2272,17.87647 1.8535,40.59045 1.8535,63.2793 0,22.68886 -0.6263,45.40283 -1.8535,63.2793 -0.6136,8.93823 -1.3839,16.68449 -2.2519,22.4375 -0.8681,5.75301 -2.5774,10.14166 -1.9454,9.04687 0.6321,-1.09478 -2.315,2.5807 -6.8632,6.20899 -4.5482,3.62829 -10.8708,8.16746 -18.3047,13.16797 -14.8679,10.00101 -34.2259,21.90166 -53.875,33.24609 -19.6491,11.34443 -39.6315,22.15775 -55.7266,30.0332 -8.0475,3.93773 -15.1403,7.14287 -20.5566,9.26758 -5.4163,2.12471 -10.0728,2.83984 -8.8086,2.83984 1.2642,0 -3.3923,-0.71513 -8.8086,-2.83984 -5.4163,-2.12471 -12.5091,-5.32985 -20.5567,-9.26758 -16.095,-7.87545 -36.0793,-18.68877 -55.7285,-30.0332 -19.6491,-11.34443 -39.0051,-23.24508 -53.873,-33.24609 -7.434,-5.00051 -13.7565,-9.53968 -18.3047,-13.16797 -4.5482,-3.62829 -7.4954,-7.30377 -6.8633,-6.20899 0.6321,1.0948 -1.0772,-3.29387 -1.9453,-9.04687 -0.8681,-5.753 -1.6384,-13.49927 -2.2519,-22.4375 -1.2272,-17.87647 -1.8536,-40.59045 -1.8536,-63.2793 0,-22.68885 0.6264,-45.40283 1.8536,-63.2793 0.6135,-8.93823 1.3838,-16.68254 2.2519,-22.43554 0.8681,-5.75301 2.5774,-10.14167 1.9453,-9.04688 -0.6321,1.09479 2.3151,-2.58069 6.8633,-6.20898 4.5482,-3.62829 10.8707,-8.16942 18.3047,-13.16992 14.8679,-10.00101 34.2239,-21.89972 53.873,-33.24414 19.6492,-11.34443 39.6335,-22.15775 55.7285,-30.03321 8.0476,-3.93773 15.1404,-7.14286 20.5567,-9.26758 5.4163,-2.12471 10.0728,-2.83984 8.8086,-2.83984 z"
           id="path1439"
           transform="matrix(0.22489192,0,0,0.22489192,297.191,30.9734)" />
        <path
           id="path1441"
           style="color:#000000;fill:#ffffff;stroke-linecap:round;stroke-linejoin:round;-inkscape-stroke:none"
           d="M -93.511721 171.21266 C -93.908218 171.21266 -93.927995 171.27771 -94.033136 171.31653 C -94.138277 171.35533 -94.236576 171.39813 -94.349396 171.44934 C -94.575036 171.55173 -94.848554 171.68829 -95.181386 171.85913 C -95.847048 172.20082 -96.73789 172.68018 -97.783294 173.25595 C -99.874104 174.40748 -102.58248 175.94419 -105.28103 177.5022 C -107.97958 179.06021 -110.66635 180.63806 -112.709 181.87299 C -113.73033 182.49045 -114.59019 183.02023 -115.21892 183.42587 C -115.53328 183.62869 -115.78897 183.79893 -115.99045 183.94315 C -116.0912 184.01525 -116.17559 184.08077 -116.26175 184.15244 C -116.34795 184.22414 -116.41489 184.20742 -116.61315 184.55086 C -116.81142 184.89425 -116.76419 184.94426 -116.78317 185.05471 C -116.80217 185.16515 -116.81613 185.27299 -116.82813 185.39629 C -116.85223 185.6429 -116.87216 185.94866 -116.89066 186.32233 C -116.92756 187.06965 -116.95657 188.07828 -116.98057 189.27151 C -117.02877 191.65798 -117.05292 194.77459 -117.05292 197.89062 C -117.05292 201.00666 -117.02877 204.12119 -116.98057 206.50766 C -116.95647 207.70091 -116.92756 208.70951 -116.89066 209.45684 C -116.87216 209.83051 -116.85223 210.13834 -116.82813 210.38495 C -116.81603 210.50825 -116.80217 210.61402 -116.78317 210.72446 C -116.76417 210.8349 -116.81137 210.88497 -116.61315 211.22831 C -116.41489 211.57179 -116.34791 211.55506 -116.26175 211.62673 C -116.17555 211.69843 -116.0912 211.76391 -115.99045 211.83602 C -115.78897 211.98023 -115.53328 212.15048 -115.21892 212.3533 C -114.59019 212.75894 -113.73033 213.28872 -112.709 213.90618 C -110.66635 215.14111 -107.97958 216.71948 -105.28103 218.27749 C -102.58248 219.8355 -99.874104 221.37168 -97.783294 222.52322 C -96.73789 223.09898 -95.847048 223.57836 -95.181386 223.92004 C -94.848554 224.09088 -94.575036 224.22744 -94.349396 224.32983 C -94.236576 224.38103 -94.138277 224.42383 -94.033136 224.46264 C -93.927995 224.50144 -93.908218 224.56651 -93.511721 224.56651 C -93.115222 224.56651 -93.095446 224.50146 -92.990305 224.46264 C -92.885166 224.42384 -92.784798 224.38104 -92.671979 224.32983 C -92.446339 224.22744 -92.17282 224.09088 -91.839988 223.92004 C -91.174325 223.57836 -90.283487 223.09898 -89.23808 222.52322 C -87.147267 221.37168 -84.438903 219.8355 -81.740346 218.27749 C -79.041789 216.71948 -76.355052 215.14111 -74.312376 213.90618 C -73.291038 213.28872 -72.431711 212.75893 -71.802968 212.3533 C -71.488597 212.15048 -71.23293 211.98023 -71.031439 211.83602 C -70.930693 211.76392 -70.845771 211.69839 -70.759621 211.62673 C -70.673471 211.55503 -70.606466 211.57154 -70.408221 211.22831 C -70.210084 210.88499 -70.257184 210.83489 -70.238206 210.72446 C -70.219226 210.61403 -70.205317 210.50825 -70.193247 210.38495 C -70.169107 210.13835 -70.149179 209.8305 -70.130719 209.45684 C -70.093799 208.70951 -70.064862 207.7009 -70.040802 206.50766 C -69.992662 204.12119 -69.968972 201.00666 -69.968972 197.89062 C -69.968972 194.77459 -69.992662 191.65797 -70.040802 189.27151 C -70.064872 188.07828 -70.093809 187.06964 -70.130719 186.32233 C -70.149179 185.94867 -70.169107 185.64289 -70.193247 185.39629 C -70.205317 185.273 -70.219226 185.16514 -70.238206 185.05471 C -70.257186 184.94427 -70.210019 184.89423 -70.408221 184.55086 C -70.606466 184.20759 -70.67347 184.2241 -70.759621 184.15244 C -70.845771 184.08074 -70.930693 184.01525 -71.031439 183.94315 C -71.23293 183.79894 -71.488597 183.62869 -71.802968 183.42587 C -72.431711 183.02023 -73.291038 182.49045 -74.312376 181.87299 C -76.355052 180.63806 -79.041789 179.06021 -81.740346 177.5022 C -84.438903 175.94419 -87.147267 174.40748 -89.23808 173.25595 C -90.283487 172.68018 -91.174325 172.20082 -91.839988 171.85913 C -92.17282 171.68829 -92.446339 171.55173 -92.671979 171.44934 C -92.784798 171.39814 -92.885166 171.35534 -92.990305 171.31653 C -93.095446 171.27773 -93.115222 171.21266 -93.511721 171.21266 z M -93.511721 173.55877 C -93.347724 173.63527 -93.146772 173.73243 -92.873 173.87296 C -92.243492 174.19608 -91.364613 174.66843 -90.330003 175.23825 C -88.260784 176.37789 -85.559521 177.9106 -82.871026 179.4628 C -80.182532 181.015 -77.505979 182.58816 -75.484397 183.81034 C -74.473606 184.42142 -73.625915 184.94448 -73.031317 185.32808 C -72.824263 185.46166 -72.688279 185.55496 -72.556411 185.64589 C -77.107058 187.98366 -93.175791 197.30939 -93.510687 197.88958 C -93.845783 198.46982 -93.888108 217.05164 -93.637294 222.15994 C -93.781366 222.09064 -93.929133 222.01874 -94.148374 221.90621 C -94.777883 221.58309 -95.656764 221.11073 -96.691371 220.54092 C -98.760587 219.40127 -101.46187 217.87063 -104.15035 216.31843 C -106.83883 214.76624 -109.51543 213.19307 -111.53698 211.9709 C -112.54776 211.35982 -113.39549 210.8347 -113.99006 210.45109 C -114.24805 210.28464 -114.43405 210.16049 -114.58227 210.0568 C -114.59797 209.87655 -114.61358 209.6527 -114.62878 209.34573 C -114.66368 208.63899 -114.69283 207.64207 -114.71663 206.46115 C -114.76423 204.09932 -114.78897 200.99504 -114.78897 197.89062 C -114.78897 194.78621 -114.76433 191.68035 -114.71663 189.31853 C -114.69283 188.13762 -114.66368 187.14018 -114.62878 186.43344 C -114.61358 186.12659 -114.59797 185.90468 -114.58227 185.72444 C -114.43405 185.62074 -114.24811 185.49457 -113.99006 185.32808 C -113.39549 184.94448 -112.54776 184.42142 -111.53698 183.81034 C -109.51543 182.58816 -106.83883 181.015 -104.15035 179.4628 C -101.46187 177.9106 -98.760587 176.37789 -96.691371 175.23825 C -95.656764 174.66843 -94.777883 174.19608 -94.148374 173.87296 C -93.875278 173.73278 -93.675628 173.6353 -93.511721 173.55877 z " />
      </g>
    </g>
  </g>
</svg>