<svg width="40" height="40" viewBox="0 0 40 40" fill="none" xmlns="http://www.w3.org/2000/svg">
<g clip-path="url(#clip0_23295_3237)">
<path d="M40 0H0V40H40V0Z" fill="#ED7100" fill-opacity="0.12"/>
<path fill-rule="evenodd" clip-rule="evenodd" d="M20.5006 17.6138C19.8909 17.6138 19.3946 17.1309 19.3946 16.5363C19.3946 15.9427 19.8909 15.4588 20.5006 15.4588C21.1104 15.4588 21.6056 15.9427 21.6056 16.5363C21.6056 17.1309 21.1104 17.6138 20.5006 17.6138ZM29.5788 7.43901L28.8253 6.77827L21.4993 14.7259C21.1995 14.5689 20.8632 14.4711 20.5006 14.4711C19.3328 14.4711 18.3817 15.3975 18.3817 16.5363C18.3817 17.6751 19.3328 18.6015 20.5006 18.6015C21.6684 18.6015 22.6185 17.6751 22.6185 16.5363C22.6185 16.1096 22.4848 15.7126 22.2559 15.3827L29.5788 7.43901ZM15.8273 14.9689C15.6956 15.4123 15.6237 15.8716 15.6237 16.3358C15.6237 18.0079 16.4816 19.5536 17.9209 20.4701L18.4749 19.6435C17.3233 18.9096 16.6366 17.6731 16.6366 16.3358C16.6366 16.2301 16.6487 16.1264 16.6579 16.0227C16.6254 15.92 16.6052 15.842 16.6092 15.8183L15.8273 14.9689ZM24.5784 15.8183C24.5824 15.842 24.5632 15.92 24.5308 16.0227C24.5389 16.1264 24.552 16.2311 24.552 16.3358C24.552 17.6731 23.8643 18.9096 22.7137 19.6435L23.2667 20.4701C24.706 19.5536 25.5649 18.0079 25.5649 16.3358C25.5649 15.8716 25.493 15.4123 25.3623 14.9689L24.5784 15.8183ZM23.4116 9.69383C22.4899 9.31852 21.5175 9.13086 20.5047 9.13086C16.3115 9.13086 12.9083 12.4494 12.9083 16.5383C12.9083 19.0469 14.1946 21.3679 16.352 22.7407L16.8989 21.9111C15.0353 20.7259 13.9211 18.7111 13.9211 16.5383C13.9211 12.9926 16.8685 10.1185 20.5047 10.1185C21.2542 10.1185 21.9834 10.237 22.6823 10.484L23.4116 9.69383ZM27.1692 13.0025C27.778 14.0889 28.1011 15.3037 28.1011 16.5383C28.1011 19.0469 26.8046 21.3679 24.6472 22.7407L24.1003 21.9111C25.965 20.7161 27.0882 18.7111 27.0882 16.5383C27.0882 15.5901 26.8654 14.642 26.44 13.7926L27.1692 13.0025ZM24.9714 7.99506C23.7266 7.40247 22.3177 7.05679 20.7984 6.98765H20.1816C14.6301 7.25432 10.7722 11.1852 11.0254 16.3407C11.2877 21.6543 18.7119 30.6519 20.5047 32.7358C22.2873 30.6519 29.7115 21.6444 29.9748 16.3407C30.066 14.5432 29.6305 12.8148 28.7189 11.3333L29.2659 10.7309L29.4583 10.6123C30.5633 12.3111 31.089 14.3062 30.9877 16.3901C30.6737 22.7309 21.2846 33.3778 20.8794 33.8321C20.7883 33.9407 20.6475 34 20.5047 34C20.3527 34 20.2109 33.9407 20.1198 33.8321C19.7146 33.3778 10.3255 22.7309 10.0125 16.3901C9.73804 10.6617 14.0022 6.2963 20.1502 6H20.8187C22.6114 6.08889 24.233 6.5037 25.6702 7.24444L24.9714 7.99506Z" fill="#ED7100"/>
</g>
<rect x="0.5" y="0.5" width="39" height="39" stroke="#ED7100"/>
<defs>
<clipPath id="clip0_23295_3237">
<rect width="40" height="40" fill="white"/>
</clipPath>
</defs>
</svg>
