<svg width="90" height="90" viewBox="0 0 90 90" fill="none" xmlns="http://www.w3.org/2000/svg">
<path fill-rule="evenodd" clip-rule="evenodd" d="M20.719 19.411H24.2022V16.9935H22.4606H20.719V19.411ZM76.9997 57.8081V54.3249H82.1103V49.3479H83.8519H85.5935V55.9199C85.5935 56.9627 84.7481 57.8081 83.7053 57.8081H76.9997ZM22.4606 13.9602H20.719V7.38824C20.719 6.34539 21.5644 5.5 22.6072 5.5H30.8809V7.24161V8.98322H24.2022V13.9602H22.4606ZM34.6995 7.24161V5.5H51.2469V7.24161V8.98322H34.6995V7.24161ZM55.0656 7.24161V5.5H71.6129V7.24161V8.98322H55.0656V7.24161ZM75.4316 7.24161V5.5H83.7053C84.7481 5.5 85.5935 6.34539 85.5935 7.38824V13.9602H83.8519H82.1103V8.98322H75.4316V7.24161ZM83.8519 16.9935H85.5935V30.1374H83.8519H82.1103V16.9935H83.8519ZM83.8519 33.1707H85.5935V46.3146H83.8519H82.1103V33.1707H83.8519Z" fill="#326CE5"/>
<mask id="path-2-inside-1_26091_15813" fill="white">
<rect x="12.1252" y="19.411" width="64.8745" height="52.3081" rx="1.88824"/>
</mask>
<rect x="12.1252" y="19.411" width="64.8745" height="52.3081" rx="1.88824" stroke="#326CE5" stroke-width="6.96644" stroke-linejoin="round" stroke-dasharray="14.72 3.4" mask="url(#path-2-inside-1_26091_15813)"/>
<rect x="4.40649" y="32.1919" width="64.8745" height="52.3081" rx="2.83235" fill="#326CE5"/>
</svg>
