<svg width="40" height="40"  viewBox="0 0 40 40" xmlns="http://www.w3.org/2000/svg">  <g id="Icon-Architecture/32/Arch_AWS-Entity-Resolution_32" stroke="none" stroke-width="1" fill="none" fill-rule="evenodd">  <g id="Icon-Service/32/AWS-Entity-Resolution_32" transform="translate(6.000000, 6.000000)" fill="#FFFFFF"> <path d="M25,21 C23.897,21 23,20.103 23,19 C23,17.897 23.897,17 25,17 C26.103,17 27,17.897 27,19 C27,20.103 26.103,21 25,21 L25,21 Z M17.248,23.035 C16.991,22.741 16.681,22.499 16.328,22.323 L19.93,14.704 L22.536,17.296 C22.2,17.781 22,18.367 22,19 C22,19.274 22.049,19.535 22.118,19.788 L17.248,23.035 Z M15,27 C13.897,27 13,26.103 13,25 C13,23.897 13.897,23 15,23 C16.103,23 17,23.897 17,25 C17,26.103 16.103,27 15,27 L15,27 Z M3,15 C1.897,15 1,14.103 1,13 C1,11.897 1.897,11 3,11 C4.103,11 5,11.897 5,13 C5,14.103 4.103,15 3,15 L3,15 Z M13.728,8.535 L19.177,13.956 L15.357,22.036 C15.238,22.022 15.122,22 15,22 C14.403,22 13.85,22.18 13.382,22.481 L5.549,14.561 C5.83,14.105 6,13.574 6,13 C6,12.643 5.927,12.305 5.812,11.987 L13.728,8.535 Z M10.761,4.173 C10.914,3.812 11,3.416 11,3 C11,3 11,2.999 11,2.999 L22,2.999 C22,2.999 22,3 22,3 C22,3.273 22.049,3.533 22.117,3.785 L13.951,7.346 L10.761,4.173 Z M8,5 C6.897,5 6,4.103 6,3 C6,1.897 6.897,1 8,1 C9.103,1 10,1.897 10,3 C10,4.103 9.103,5 8,5 L8,5 Z M23.222,5.403 L19.631,12.997 L14.714,8.105 L22.53,4.697 C22.718,4.97 22.955,5.205 23.222,5.403 L23.222,5.403 Z M25,1 C26.103,1 27,1.897 27,3 C27,4.103 26.103,5 25,5 C23.897,5 23,4.103 23,3 C23,1.897 23.897,1 25,1 L25,1 Z M25,16 C24.339,16 23.734,16.221 23.237,16.584 L20.383,13.745 L24.116,5.852 C24.397,5.939 24.69,6 25,6 C26.654,6 28,4.654 28,3 C28,1.346 26.654,0 25,0 C23.698,0 22.599,0.838 22.185,1.999 L10.815,1.999 C10.401,0.838 9.302,0 8,0 C6.346,0 5,1.346 5,3 C5,4.654 6.346,6 8,6 C8.872,6 9.651,5.62 10.199,5.025 L12.965,7.776 L5.313,11.113 C4.763,10.44 3.936,10 3,10 C1.346,10 0,11.346 0,13 C0,14.654 1.346,16 3,16 C3.718,16 4.37,15.736 4.887,15.313 L12.648,23.161 C12.248,23.67 12,24.304 12,25 C12,26.654 13.346,28 15,28 C16.654,28 18,26.654 18,25 C18,24.604 17.919,24.229 17.779,23.883 L22.54,20.709 C23.082,21.487 23.981,22 25,22 C26.654,22 28,20.654 28,19 C28,17.346 26.654,16 25,16 L25,16 Z" id="Fill-7"></path> </g> </g></svg>