<svg width="40" height="40" viewBox="0 0 40 40" xmlns="http://www.w3.org/2000/svg">  <g id="Icon-Architecture/32/Arch_AWS-Fault-Injection-Simulator_32" stroke="none" stroke-width="1" fill="none" fill-rule="evenodd">  <g id="Icon-Service/32/AWS-Fault-Injection-Simulator_32" transform="translate(6.500000, 6.200000)" fill="#FFFFFF"> <path d="M10.996,7.78865627 C11.823,7.78865627 12.496,7.11565627 12.496,6.28865627 C12.496,5.46165627 11.823,4.78865627 10.996,4.78865627 C10.169,4.78865627 9.496,5.46165627 9.496,6.28865627 C9.496,7.11565627 10.169,7.78865627 10.996,7.78865627 L10.996,7.78865627 Z M10.996,8.78865627 C9.617,8.78865627 8.496,7.66665627 8.496,6.28865627 C8.496,4.91065627 9.617,3.78865627 10.996,3.78865627 C12.375,3.78865627 13.496,4.91065627 13.496,6.28865627 C13.496,7.66665627 12.375,8.78865627 10.996,8.78865627 L10.996,8.78865627 Z M5.496,13.2886563 L6.496,13.2886563 C6.496,12.4616563 7.169,11.7886563 7.996,11.7886563 C8.823,11.7886563 9.496,12.4616563 9.496,13.2886563 L10.496,13.2886563 C10.496,11.9106563 9.375,10.7886563 7.996,10.7886563 C6.617,10.7886563 5.496,11.9106563 5.496,13.2886563 L5.496,13.2886563 Z M15.85,14.1426563 L17.496,12.4956563 L19.142,14.1426563 L19.85,13.4346563 L18.203,11.7886563 L19.85,10.1426563 L19.142,9.43465627 L17.496,11.0816563 L15.85,9.43465627 L15.142,10.1426563 L16.789,11.7886563 L15.142,13.4346563 L15.85,14.1426563 Z M6.496,15.7886563 L6.496,22.7166563 C8.035,22.3216563 9.496,20.2556563 9.496,19.2886563 L9.496,15.7886563 L6.496,15.7886563 Z M9.496,21.6766563 C8.743,22.6716563 7.649,23.5376563 6.496,23.7396563 L6.496,24.2886563 C6.496,25.8316563 6.747,26.7886563 7.996,26.7886563 C9.245,26.7886563 9.496,25.8316563 9.496,24.2886563 L9.496,21.6766563 Z M4.496,14.7886563 L11.496,14.7886563 L11.496,15.7886563 L10.496,15.7886563 L10.496,24.2886563 C10.496,25.2456563 10.496,27.7886563 7.996,27.7886563 C5.496,27.7886563 5.496,25.2456563 5.496,24.2886563 L5.496,15.7886563 L4.496,15.7886563 L4.496,14.7886563 Z M27,12.5956563 C27,17.3776563 22.234,17.7836563 22.186,17.7876563 L12.496,17.7886563 L12.496,16.7886563 L22.149,16.7886563 C22.27,16.7776563 26,16.4396563 26,12.5956563 C26,9.28665627 23.04,8.51865627 22.133,8.36265627 C21.862,8.31665627 21.68,8.05965627 21.725,7.78865627 C21.726,6.36465627 21.124,5.33265627 20.073,4.98765627 C19.146,4.68465627 18.123,5.01865627 17.528,5.82465627 C17.419,5.97465627 17.239,6.04765627 17.052,6.02265627 C16.869,5.99565627 16.716,5.86965627 16.654,5.69465627 C16.261,4.57565627 15.688,3.63365627 14.955,2.89465627 C14.055,1.98965627 11.588,0.0436562657 8.104,1.52465627 C6.092,2.37965627 4.515,4.84365627 4.515,7.13265627 L4.561,7.92465627 C4.575,8.16365627 4.419,8.37865627 4.186,8.43765627 C2.997,8.74365627 1,9.68465627 1,12.5556563 C1,14.7076563 2.165,15.8946563 3.142,16.5116563 C3.473,16.7206563 3.713,16.7886563 4.128,16.7886563 L4.126,17.7886563 C3.524,17.7886563 3.099,17.6666563 2.608,17.3576563 C1.634,16.7426563 1.77635684e-15,15.3016563 1.77635684e-15,12.5556563 C1.77635684e-15,9.24565627 2.23,8.01965627 3.54,7.58665627 L3.516,7.16265627 C3.515,4.42765627 5.32,1.62165627 7.714,0.604656266 C10.519,-0.587343734 13.491,0.00465626575 15.664,2.18965627 C16.334,2.86465627 16.883,3.67965627 17.303,4.62165627 C18.158,3.92165627 19.311,3.68465627 20.386,4.03765627 C21.758,4.48865627 22.612,5.75565627 22.716,7.46165627 C24.858,7.96565627 27,9.54165627 27,12.5956563 L27,12.5956563 Z" id="Fill-3"></path> </g> </g></svg>