<svg xmlns="http://www.w3.org/2000/svg" xmlns:xlink="http://www.w3.org/1999/xlink" id="Layer_1" x="0" y="0" version="1.1" viewBox="0 0 318 361" xml:space="preserve" style="enable-background:new 0 0 318 361"><style type="text/css">.st0{fill:#009639}.st1{fill:none;stroke:#fff;stroke-width:6.0241;stroke-miterlimit:10}.st2{fill:#fff}</style><g><g><path d="M3.1,270c1.6,2.8,4,5.2,6.8,6.8l139.8,80.7l0,0c5.7,3.4,12.8,3.4,18.6,0l139.8-80.7c5.8-3.3,9.3-9.4,9.3-16.1 V99.3l0,0c0-6.6-3.5-12.8-9.3-16.1L168.3,2.5v0c-5.7-3.4-12.8-3.4-18.6,0v0L10,83.2c-5.8,3.3-9.3,9.4-9.3,16.1l0,0v161.4 C0.6,264,1.5,267.2,3.1,270" class="st0"/><g><polyline points="160 181.6 73.9 229.6 160 281.1" class="st1"/><polyline points="71.8 130.4 160 78.9 160 181.6 246.2 130.4 246.2 229.6 160 181.6" class="st1"/><circle cx="71.8" cy="130.4" r="23.7" class="st2"/><ellipse cx="246.2" cy="130.4" class="st2" rx="23.7" ry="23.7" transform="matrix(0.1891 -0.982 0.982 0.1891 71.6088 347.43)"/><circle cx="160" cy="78.9" r="23.7" class="st2"/><circle cx="160" cy="181.6" r="23.7" class="st2"/><circle cx="73.9" cy="229.6" r="23.7" class="st2"/><circle cx="160" cy="281.1" r="23.7" class="st2"/><ellipse cx="246.2" cy="229.6" class="st2" rx="23.7" ry="23.7" transform="matrix(0.1602 -0.9871 0.9871 0.1602 -19.9431 435.8454)"/></g></g></g></svg>