<svg xmlns="http://www.w3.org/2000/svg" xmlns:xlink="http://www.w3.org/1999/xlink" id="Layer_1" x="0" y="0" version="1.1" viewBox="0 0 174.4 198.3" xml:space="preserve" style="enable-background:new 0 0 174.4 198.3"><style type="text/css">.st0{fill:none}.st1{opacity:.8;fill:#fff}</style><title>NGINX Logo White Endorsement RGB</title><g><path d="M121.8,55.4c-5.5,0-9.9,4.4-9.9,9.9v49.3L70.5,65.1l-3-3.6c-3.3-4.1-8.8-6-13.5-6c-6.5,0-11.2,4.3-11.2,9.6 V133c0,5.5,4.4,9.9,9.9,9.9s9.9-4.4,9.9-9.9V83.8l44.4,53c3.3,4.1,8.8,6,13.5,6c6.5,0,11.2-4.3,11.2-9.6V65.3 C131.7,59.8,127.3,55.4,121.8,55.4z" class="st0"/><path d="M169.4,45.8l-77-44.4c-3.2-1.9-7.1-1.9-10.2,0l-77,44.4C1.9,47.6,0,51,0,54.7v88.9c0,1.8,0.4,3.5,1.4,5.1 c0.9,1.6,2.2,2.8,3.8,3.7l77,44.4c3.2,1.9,7.1,1.9,10.2,0l77-44.4c3.2-1.8,5.1-5.2,5.1-8.9V54.7C174.5,51,172.6,47.6,169.4,45.8z M131.7,133.2c0,5.3-4.7,9.6-11.2,9.6c-4.7,0-10.2-1.9-13.5-6l-44.4-53V133c0,5.5-4.4,9.9-9.9,9.9s-9.9-4.4-9.9-9.9V65.1 c0-5.3,4.7-9.6,11.2-9.6c4.7,0,10.2,1.9,13.5,6l3,3.6l41.4,49.5V65.3c0-5.5,4.4-9.9,9.9-9.9s9.9,4.4,9.9,9.9V133.2z" class="st1"/></g></svg>