<svg xmlns="http://www.w3.org/2000/svg" xmlns:xlink="http://www.w3.org/1999/xlink" version="1.1" viewBox="0 0 128 128">
    <title>TraefikMesh-icon-color</title>
    <style type="text/css">
        .st0 {
            opacity: .8
        }

        .st1 {
            fill: #fff
        }
    </style>
    <defs>
        <rect id="path-1" width="128" height="128" x="0" y="0" />
    </defs>
    <g id="TraefikMesh-icon-color" fill="none" fill-rule="evenodd" stroke="none" stroke-width="1" class="st0">
        <mask id="mask-2" fill="#fff">
            <use xlink:href="#path-1" />
        </mask>
        <path id="Shape" fill-rule="nonzero"
            d="M48.2799931,29.3292261 L48.4459649,29.4186176 L62.710042,37.459024 C63.6846817,38.008411 64.8754784,38.0088751 65.8505461,37.460248 L79.9950058,29.5017907 C82.3053219,28.2017659 85.2320815,29.0207689 86.5321062,31.331085 C87.801178,33.5863936 87.0509269,36.4291406 84.8652898,37.7725902 L84.7028119,37.8681854 L76.5351416,42.4636565 C75.7650156,42.8969615 75.4919682,43.872535 75.9252731,44.642661 C76.0686863,44.8975535 76.279221,45.1082614 76.5339955,45.251884 L98.5814299,57.6805616 C99.5568311,58.2304191 100.748688,58.2304543 101.724121,57.6806545 L115.35676,49.9966653 C117.666076,48.6948658 120.593464,49.5116197 121.895264,51.8209363 C123.166068,54.0752691 122.418001,56.9185918 120.233397,58.2637204 L120.070993,58.3594404 L112.400517,62.6830449 C111.630729,63.11695 111.358442,64.0927361 111.792347,64.8625241 C111.935743,65.1169221 112.146029,65.3272233 112.400417,65.4706376 L120.114779,69.8197066 C122.424092,71.1215112 123.24084,74.048901 121.939035,76.3582147 C120.668226,78.6125447 117.848319,79.4445371 115.566499,78.2718629 L115.400527,78.1824714 L101.724162,70.472973 C100.74871,69.9231013 99.5567921,69.9231064 98.5813445,70.4729865 L76.2916859,83.0381324 C75.5219152,83.4720682 75.2496672,84.4478651 75.683603,85.2176358 C75.8270115,85.4720321 76.0373105,85.6823276 76.2917092,85.8257318 L85.5012849,91.0171587 C87.8106018,92.3189575 88.6273566,95.2463453 87.3255578,97.5556622 C86.0547542,99.8099954 83.2348491,100.641995 80.9530264,99.4693262 L80.7870543,99.3799351 L65.6162466,90.8274757 C64.6407504,90.2775451 63.4487533,90.2775537 62.473265,90.8274985 L47.1721737,99.4536971 C44.8628571,100.755497 41.9354691,99.9387427 40.6336696,97.6294261 C39.3628653,95.3750933 40.110932,92.5317706 42.2955362,91.186642 L42.4579406,91.090922 L51.7971908,85.8257815 C52.5669471,85.39182 52.8391625,84.416014 52.405201,83.6462578 C52.2617962,83.3918878 52.0515134,83.181613 51.797138,83.0382178 L29.7043817,70.5842033 C28.7296762,70.0347473 27.5387714,70.0343013 26.5636545,70.5830271 L13.5539031,77.9039811 C11.243587,79.2040059 8.3168274,78.385003 7.01680262,76.0746868 C5.74773082,73.8193782 6.49798193,70.9766312 8.68361906,69.6331816 L8.84609692,69.5375864 L15.879561,65.5794939 C16.6496509,65.1461247 16.9226169,64.1705283 16.4892476,63.4004385 C16.3458397,63.145605 16.1353381,62.9349445 15.8806128,62.7913443 L8.85870616,58.8327771 C6.54938921,57.5309783 5.73263439,54.6035906 7.03443322,52.2942736 C8.30523684,50.0399404 11.1251419,49.2079411 13.4069647,50.3806096 L13.5729367,50.4700007 L26.5691898,57.7957905 C27.5438576,58.3451959 28.734694,58.3456448 29.7097758,57.7969745 L52.0208499,45.2427206 C52.7909595,44.8093864 53.0639698,43.8338026 52.6306357,43.063693 C52.4872165,42.8088124 52.2766808,42.5981167 52.0219093,42.4545039 L43.7317135,37.7813824 C41.4223998,36.4795778 40.6056523,33.552188 41.9074569,31.2428743 C43.1782661,28.9885443 45.9981732,28.1565519 48.2799931,29.3292261 Z M62.7052762,50.2461574 L40.3941864,62.8004201 C39.6240768,63.2337543 39.3510664,64.2093382 39.7844006,64.9794477 C39.927814,65.2343181 40.1383387,65.4450073 40.3930969,65.5886199 L62.4733287,78.03571 C63.4487848,78.585595 64.640714,78.5855951 65.6161701,78.0357101 L87.9058556,65.4705491 C88.6756263,65.0366133 88.9478743,64.0608164 88.5139385,63.2910457 C88.3705339,63.0366564 88.1602425,62.8263654 87.9058529,62.6829613 L65.8459332,50.2473813 C64.8712541,49.6979369 63.6803833,49.6974728 62.7052762,50.2461574 Z"
            class="st1" mask="url(#mask-2)" />
    </g>
</svg>