<svg width="40" height="40" viewBox="0 0 40 40" xmlns="http://www.w3.org/2000/svg">  <g id="Icon-Architecture/32/Arch_AWS-HealthOmics_32" stroke="none" stroke-width="1" fill="none" fill-rule="evenodd">  <path d="M20.984607,27 L33.984607,27 L33.984607,26 L20.984607,26 L20.984607,27 Z M20.984607,15 L33.984607,15 L33.984607,14 L20.984607,14 L20.984607,15 Z M20.984607,23 L27.984607,23 L27.984607,22 L20.984607,22 L20.984607,23 Z M14.391607,26.923 L14.048607,27.862 C15.780607,28.498 17.108607,29.661 17.712607,31 L7.34060701,31 C7.87260701,29.941 8.95960701,28.839 10.418607,27.925 C11.303607,27.371 12.268607,26.834 13.202607,26.316 C14.666607,25.502 16.050607,24.734 17.005607,23.966 C18.553607,22.723 19.183607,21.099 18.930607,19.002 C18.930607,19.002 18.930607,19.001 18.930607,19 L30.984607,19 L30.984607,18 L18.620607,18 C17.779607,16.268 15.528607,14.969 14.472607,14.437 L14.023607,15.331 C15.335607,15.991 16.741607,16.963 17.462607,18 L10.984607,18 L10.984607,19 L17.905607,19 C17.913607,19.041 17.933607,19.082 17.938607,19.123 C18.149607,20.871 17.653607,22.163 16.378607,23.187 C15.489607,23.901 14.142607,24.649 12.716607,25.442 C11.771607,25.966 10.796607,26.509 9.88660701,27.078 C7.81960701,28.373 6.38660701,30.07 6.05360701,31.617 C6.03460701,31.709 5.99460701,31.9 6.00060701,34.001 L7.00060701,33.999 C6.99660701,32.768 7.00960701,32.233 7.02060701,32 L18.007607,32 C18.018607,32.238 18.029607,32.776 18.012607,33.993 L19.012607,34.007 C19.041607,31.94 18.992607,31.707 18.973607,31.618 C18.547607,29.603 16.792607,27.804 14.391607,26.923 L14.391607,26.923 Z M6.02160701,7.142 L6.02160701,6 L7.02160701,6 L7.02160701,7.164 C7.02060701,7.203 7.01960701,7.523 7.14660701,7.991 L17.947607,7.991 C17.984607,7.755 17.984607,7.602 17.983607,7.581 L17.983607,6 L18.983607,6 L18.983607,7.562 C18.987607,7.642 19.061607,10.048 16.383607,12.018 C15.353607,12.775 13.861607,13.516 12.544607,14.169 C11.690607,14.592 10.883607,14.992 10.339607,15.33 C8.95160701,16.19 7.25860701,17.547 7.06760701,19.123 C6.93060701,20.26 7.09860701,21.201 7.57860701,22.004 L13.984607,22.004 L13.984607,23.004 L8.42460701,23.004 C8.49260701,23.065 8.55360701,23.128 8.62760701,23.187 C8.94560701,23.443 9.51660701,23.817 10.178607,24.25 L10.817607,24.67 L10.266607,25.504 L9.63160701,25.087 C8.94760701,24.64 8.35760701,24.253 8.00060701,23.966 C6.45260701,22.722 5.82260701,21.099 6.07560701,19.002 C6.31260701,17.033 8.23860701,15.456 9.81160701,14.48 C10.397607,14.117 11.224607,13.707 12.099607,13.273 C13.380607,12.638 14.831607,11.918 15.792607,11.212 C16.815607,10.459 17.348607,9.655 17.640607,8.991 L7.55760701,8.991 C7.87860701,9.566 8.39060701,10.208 9.21360701,10.813 C9.42560701,10.969 9.94460701,11.28 10.385607,11.546 C10.641607,11.7 10.873607,11.839 11.010607,11.928 L10.473607,12.771 C10.340607,12.686 10.117607,12.551 9.87060701,12.403 C9.39560701,12.117 8.85860701,11.793 8.62160701,11.619 C5.94360701,9.649 6.01760701,7.244 6.02160701,7.142 L6.02160701,7.142 Z" id="Fill-1" fill="#FFFFFF"></path> </g></svg>