<svg width="40" height="40" viewBox="0 0 40 40" fill="none" xmlns="http://www.w3.org/2000/svg">
<g clip-path="url(#clip0_23295_3131)">
<path d="M40 0H0V40H40V0Z" fill="#DD344C" fill-opacity="0.12"/>
<path fill-rule="evenodd" clip-rule="evenodd" d="M28.996 18.0597V25.1238C28.996 25.3018 28.902 25.4657 28.749 25.5557L22.999 28.9207V27.7617L27.996 24.8368V18.9317L22.999 21.8568V20.6978L28.243 17.6278C28.398 17.5378 28.59 17.5367 28.745 17.6257C28.9 17.7147 28.996 17.8807 28.996 18.0597ZM12.002 24.8368L17.011 27.7708V28.9298L11.249 25.5557C11.096 25.4657 11.002 25.3018 11.002 25.1238V18.0597C11.002 17.8807 11.098 17.7147 11.253 17.6257C11.408 17.5377 11.6 17.5388 11.755 17.6278L17.011 20.7068V21.8657L12.002 18.9317V24.8368ZM25.246 24.0487L20.241 26.8447C20.165 26.8867 20.081 26.9077 19.997 26.9077C19.913 26.9077 19.829 26.8867 19.753 26.8447L14.749 24.0487V22.9037L19.997 25.8347L25.246 22.9037V24.0487ZM20.496 32.5778L20.497 29.6187H19.497L19.496 32.5778L9 26.1278V13.7747L19.497 19.6378V21.9128H20.497V19.6378L30.994 13.7747V26.1278L20.496 32.5778ZM19.997 7.07375L30.469 12.9228L19.997 18.7708L9.525 12.9228L19.997 7.07375ZM31.738 12.4858L20.241 6.06375C20.089 5.97875 19.905 5.97875 19.753 6.06375L8.256 12.4858C8.098 12.5748 8 12.7418 8 12.9228V26.4077C8 26.5817 8.09 26.7427 8.238 26.8337L19.735 33.8978C19.815 33.9468 19.906 33.9717 19.997 33.9717C20.088 33.9717 20.179 33.9468 20.259 33.8978L31.756 26.8337C31.904 26.7427 31.994 26.5817 31.994 26.4077V12.9228C31.994 12.7418 31.896 12.5748 31.738 12.4858Z" fill="#DD344C"/>
</g>
<rect x="0.5" y="0.5" width="39" height="39" stroke="#DD344C"/>
<defs>
<clipPath id="clip0_23295_3131">
<rect width="40" height="40" fill="white"/>
</clipPath>
</defs>
</svg>
