<svg id="Layer_1" xmlns="http://www.w3.org/2000/svg" version="1.1" viewBox="0 0 40 40">
  <path d="M11.4,17.4c0,.5,0,.9.1,1.2.1.3.2.6.4,1,0,.1,0,.2,0,.3,0,.1,0,.3-.3.4l-.8.6c-.1,0-.2.1-.3.1s-.3,0-.4-.2c-.2-.2-.3-.4-.5-.6-.1-.2-.3-.5-.4-.8-1,1.2-2.3,1.8-3.9,1.8s-2-.3-2.7-1c-.6-.6-1-1.5-1-2.5s.4-2,1.2-2.7c.8-.7,1.9-1,3.2-1s.9,0,1.4.1c.5,0,1,.2,1.5.3v-1c0-1-.2-1.7-.6-2.1-.4-.4-1.1-.6-2.2-.6s-.9,0-1.4.2c-.5.1-1,.3-1.4.5-.2,0-.4.1-.5.2,0,0-.2,0-.2,0-.2,0-.3-.1-.3-.4v-.6c0-.2,0-.4,0-.5,0,0,.2-.2.4-.3.5-.2,1-.4,1.7-.6.6-.2,1.3-.3,2.1-.3,1.6,0,2.7.4,3.5,1.1.7.7,1.1,1.8,1.1,3.3v4.3h0ZM6,19.4c.4,0,.9,0,1.4-.2.5-.2.9-.5,1.3-.8.2-.3.4-.5.5-.8,0-.3.1-.7.1-1.2v-.6c-.4,0-.8-.2-1.2-.2-.4,0-.8,0-1.2,0-.9,0-1.5.2-2,.5-.4.4-.6.9-.6,1.5s.2,1.1.5,1.4c.3.3.8.5,1.4.5ZM16.6,20.8c-.2,0-.4,0-.5-.1-.1,0-.2-.3-.3-.5l-3.1-10.2c0-.3-.1-.4-.1-.5,0-.2.1-.3.3-.3h1.3c.3,0,.4,0,.5.1.1,0,.2.3.3.5l2.2,8.8,2.1-8.8c0-.3.1-.4.3-.5.1,0,.3-.1.5-.1h1.1c.3,0,.4,0,.5.1.1,0,.2.3.3.5l2.1,8.9,2.3-8.9c0-.3.2-.4.3-.5.1,0,.3-.1.5-.1h1.2c.2,0,.3.1.3.3s0,.1,0,.2,0,.2,0,.3l-3.2,10.2c0,.3-.2.4-.3.5-.1,0-.3.1-.5.1h-1.1c-.3,0-.4,0-.5-.1-.1,0-.2-.3-.3-.5l-2.1-8.5-2,8.5c0,.3-.1.4-.3.5-.1,0-.3.1-.5.1h-1.1ZM33.7,21.2c-.7,0-1.4,0-2-.2-.7-.2-1.2-.3-1.5-.5-.2-.1-.4-.3-.4-.4,0-.1,0-.3,0-.4v-.7c0-.3.1-.4.3-.4s.2,0,.2,0c0,0,.2,0,.3.1.5.2.9.4,1.5.5.5.1,1,.2,1.6.2.8,0,1.5-.1,1.9-.4.5-.3.7-.7.7-1.3s-.1-.7-.4-.9c-.2-.3-.7-.5-1.3-.7l-1.9-.6c-1-.3-1.7-.8-2.1-1.4-.4-.6-.7-1.2-.7-1.9s.1-1,.4-1.5c.2-.4.6-.8,1-1.1.4-.3.8-.5,1.4-.7.5-.2,1.1-.2,1.7-.2s.6,0,.9,0c.3,0,.6,0,.9.1.3,0,.5.1.8.2.2,0,.4.2.6.2.2.1.3.2.4.3,0,.1.1.3.1.4v.6c0,.3-.1.4-.3.4s-.3,0-.5-.2c-.8-.3-1.6-.5-2.5-.5s-1.4.1-1.8.4c-.4.3-.6.6-.6,1.2s.1.7.4.9c.3.3.8.5,1.5.7l1.9.6c1,.3,1.6.7,2.1,1.3.4.5.6,1.2.6,1.9s-.1,1.1-.3,1.5c-.2.5-.6.8-1,1.2-.4.3-.9.6-1.5.7-.6.2-1.2.3-1.9.3Z" fill="#ffffff"/>
  <path d="M36.2,27.6c-4.4,3.2-10.7,4.9-16.1,4.9S5.5,29.7.3,25c-.4-.4,0-.9.5-.6,5.6,3.3,12.6,5.2,19.7,5.2s10.2-1,15-3.1c.7-.3,1.4.5.6,1ZM38,25.5c-.6-.7-3.7-.3-5.1-.2-.4,0-.5-.3-.1-.6,2.5-1.7,6.6-1.2,7.1-.7.5.6-.1,4.7-2.5,6.7-.4.3-.7.1-.5-.3.5-1.3,1.7-4.3,1.2-5Z" fill="#f90"/>
</svg>