<svg width="40" height="40" viewBox="0 0 40 40" fill="none" xmlns="http://www.w3.org/2000/svg">
<g clip-path="url(#clip0_23300_4269)">
<path d="M40 0H0V40H40V0Z" fill="#ED7100" fill-opacity="0.12"/>
<path fill-rule="evenodd" clip-rule="evenodd" d="M15 26.6816L12.5 27.9931L10 26.6816V23.2915L12.5 22.0411L15 23.2915V26.6816ZM16 26.9837V22.9824C16 22.7934 15.893 22.6203 15.724 22.5353L12.724 21.0348C12.583 20.9648 12.417 20.9648 12.276 21.0348L9.276 22.5353C9.107 22.6203 9 22.7934 9 22.9824V26.9837C9 27.1698 9.104 27.3409 9.268 27.4269L12.268 29.0004C12.341 29.0384 12.42 29.0574 12.5 29.0574C12.58 29.0574 12.659 29.0384 12.732 29.0004L15.732 27.4269C15.896 27.3409 16 27.1698 16 26.9837ZM26 29.2795V23.7707L31 20.8528V26.4736L26 29.2795ZM20 26.9427L24.662 30.0297L20 32.6456V26.9427ZM15 16.5244V10.8215L18.959 12.9812L18.958 16.9805H19.958L19.959 13.5264L25 16.2773V22.5093L23.458 21.4039L22.876 22.2162L25 23.7397V29.0544L20 25.7423V19.9815C20 19.8104 19.913 19.6514 19.769 19.5593L15 16.5244ZM14 10.3204V15.8872L9.457 12.9962L14 10.3204ZM19.511 7.07431L24.644 9.84521L19.753 12.275L15.044 9.70516L19.511 7.07431ZM26 16.2893L31 13.7885V19.6944L26 22.6123V16.2893ZM25.51 15.416L20.824 12.8602L25.721 10.4274L30.416 12.9622L25.51 15.416ZM31.737 12.5391L19.737 6.05999C19.583 5.97696 19.396 5.97996 19.246 6.06999L8.246 12.5491C8.097 12.6361 8.003 12.7972 8 12.9702C8 12.9732 8.002 12.9762 8.002 12.9792H8V19.9815H9V13.8905L19 20.2566V32.5615L15.278 30.0637L14.722 30.894L19.222 33.915L19.226 33.91C19.234 33.915 19.238 33.926 19.247 33.932C19.325 33.977 19.413 34 19.5 34C19.584 34 19.669 33.978 19.744 33.936L31.744 27.2028C31.902 27.1148 32 26.9477 32 26.7667V12.9792C32 12.7962 31.899 12.6271 31.737 12.5391Z" fill="#ED7100"/>
</g>
<rect x="0.5" y="0.5" width="39" height="39" stroke="#ED7100"/>
<defs>
<clipPath id="clip0_23300_4269">
<rect width="40" height="40" fill="white"/>
</clipPath>
</defs>
</svg>
