<svg xmlns="http://www.w3.org/2000/svg" width="18" height="18" viewBox="0 0 18 18"><defs><radialGradient id="a" cx="5.72" cy="7.45" r="8.42" gradientTransform="matrix(1.01 0 0 1.01 3.23 1.51)" gradientUnits="userSpaceOnUse"><stop offset=".18" stop-color="#5ea0ef"/><stop offset=".56" stop-color="#5c9fee"/><stop offset=".69" stop-color="#559ced"/><stop offset=".78" stop-color="#4a97e9"/><stop offset=".86" stop-color="#3990e4"/><stop offset=".93" stop-color="#2387de"/><stop offset=".99" stop-color="#087bd6"/><stop offset="1" stop-color="#0078d4"/></radialGradient><radialGradient id="b" cx="28.18" cy="202.29" r="2.7" gradientTransform="matrix(.95 0 0 .95 -17.77 -185.01)" gradientUnits="userSpaceOnUse"><stop offset=".19" stop-color="#8c8e90"/><stop offset=".35" stop-color="#848688"/><stop offset=".6" stop-color="#6e7071"/><stop offset=".91" stop-color="#4a4b4c"/><stop offset="1" stop-color="#3e3f3f"/></radialGradient></defs><ellipse cx="9" cy="9" rx="8.5" ry="8.47" fill="url(#a)"/><ellipse cx="9" cy="9" rx="7.4" ry="7.37" fill="#fff"/><path d="M2.72 9.44a6.24 6.24 0 001.82 4l2-2a3.53 3.53 0 01-1-2z" fill="#9cebff"/><path d="M13.13 4.27a6.25 6.25 0 00-3.69-1.53v2.79a3.41 3.41 0 011.71.7zM4.87 4.27l2 2a3.41 3.41 0 011.71-.7V2.74a6.25 6.25 0 00-3.71 1.53zM11.78 6.85a3.6 3.6 0 01.71 1.71h2.79a6.16 6.16 0 00-1.53-3.67z" fill="#32bedd"/><path d="M6.22 6.85l-2-2a6.16 6.16 0 00-1.5 3.71h2.79a3.6 3.6 0 01.71-1.71z" fill="#50e6ff"/><path d="M14.14 7a.45.45 0 00-.57-.25L9.45 8.41l.32.81 4.12-1.63a.44.44 0 00.25-.59z" fill="#f04049"/><circle cx="9" cy="9" fill="url(#b)" r="1.2"/></svg>