<svg width="40" height="40" viewBox="0 0 40 40" fill="none" xmlns="http://www.w3.org/2000/svg">
<g clip-path="url(#clip0_23311_9643)">
<path d="M40 0H0V40H40V0Z" fill="#7AA116" fill-opacity="0.12"/>
<path fill-rule="evenodd" clip-rule="evenodd" d="M33 29H34V33.5C34 33.776 33.776 34 33.5 34H29V33H32.293L28.646 29.354L29.354 28.646L33 32.293V29ZM11.354 29.354L7.707 33H11V34H6.5C6.224 34 6 33.776 6 33.5V29H7V32.293L10.646 28.646L11.354 29.354ZM34 6.5V11H33V7.707L29.354 11.354L28.646 10.646L32.293 7H29V6H33.5C33.776 6 34 6.224 34 6.5ZM7 11H6V6.5C6 6.224 6.224 6 6.5 6H11V7H7.707L11.354 10.646L10.646 11.354L7 7.707V11ZM12.474 16.31C12.474 16.539 12.492 16.768 12.518 16.988C12.548 17.238 12.387 17.471 12.142 17.532C11.077 17.796 9.292 18.62 9.292 21.162L9.299 21.397C9.381 22.902 10.373 24.178 11.825 24.68L11.499 25.625C9.66 24.99 8.405 23.365 8.302 21.486C8.296 21.349 8.292 21.256 8.292 21.162C8.292 18.989 9.477 17.341 11.485 16.681C11.479 16.558 11.474 16.434 11.474 16.31C11.474 13.871 13.124 11.34 15.312 10.423C17.867 9.351 20.579 9.886 22.561 11.85C23.158 12.443 23.651 13.159 24.031 13.983C25.631 12.723 28.532 13.288 28.933 16.561C31.418 17.2 32.781 18.833 32.781 21.191C32.781 23.792 31.368 24.895 30.184 25.362L29.816 24.431C31.139 23.911 31.781 22.851 31.781 21.191C31.781 19.188 30.632 17.931 28.364 17.455C28.144 17.409 27.98 17.22 27.968 16.995C27.86 15.168 26.82 14.351 25.836 14.351C25.225 14.351 24.647 14.651 24.254 15.175C24.145 15.321 23.967 15.396 23.779 15.369C23.598 15.341 23.445 15.216 23.384 15.042C23.034 14.064 22.506 13.205 21.856 12.559C21.047 11.758 18.828 10.033 15.698 11.346C13.89 12.103 12.474 14.284 12.474 16.31ZM26 29H14V21.5C14 21.289 14.04 21.131 14.109 21.067C14.188 20.992 14.366 20.993 14.5 21H15.897C16.168 21 16.39 20.772 16.397 20.502C16.4 20.403 16.467 20.155 16.53 19.999L18.387 19.991C18.433 20.147 18.475 20.384 18.475 20.5C18.475 20.776 18.698 21 18.975 21L25.675 20.999C25.793 20.99 25.832 21.023 25.845 21.035C25.92 21.105 26 21.326 26 21.733V29ZM28.307 22.5L27 26.419V22.5H28.307ZM29.475 22.158C29.525 22.006 29.5 21.838 29.405 21.708C29.312 21.577 29.161 21.5 29 21.5H26.984C26.949 20.967 26.801 20.56 26.527 20.304C26.36 20.149 26.072 19.969 25.641 20H19.414C19.329 19.599 19.128 19.089 18.646 19H16.312C15.816 19 15.585 19.564 15.479 20L14.534 20.001C14.079 19.969 13.698 20.081 13.427 20.336C13.144 20.6 13 20.992 13 21.5V29.5C13 29.776 13.224 30 13.5 30H26.5C26.721 30 26.902 29.854 26.969 29.656L26.975 29.658L29.475 22.158Z" fill="#7AA116"/>
</g>
<rect x="0.5" y="0.5" width="39" height="39" stroke="#7AA116"/>
<defs>
<clipPath id="clip0_23311_9643">
<rect width="40" height="40" fill="white"/>
</clipPath>
</defs>
</svg>
