<svg width="40" height="40"  viewBox="0 0 40 40" xmlns="http://www.w3.org/2000/svg">  <g id="Icon-Architecture/32/Arch_AWS-Billing-Conductor_32" stroke="none" stroke-width="1" fill="none" fill-rule="evenodd">  <g id="Icon-Service/32/AWS-Billing-Conductor_32" transform="translate(7.000000, 6.000000)" fill="#FFFFFF"> <path d="M19,6 L23.293,6 L19,1.707 L19,6 Z M25,6.5 L25,27.5 C25,27.776 24.776,28 24.5,28 L3.5,28 C3.224,28 3,27.776 3,27.5 L3,21 L4,21 L4,27 L24,27 L24,7 L18.5,7 C18.224,7 18,6.776 18,6.5 L18,1 L4,1 L4,12 L3,12 L3,0.5 C3,0.224 3.224,0 3.5,0 L18.5,0 C18.633,0 18.76,0.053 18.854,0.146 L24.854,6.146 C24.947,6.24 25,6.367 25,6.5 L25,6.5 Z M16,21 L18,21 L18,20 L16,20 L16,21 Z M13,21 L15,21 L15,20 L13,20 L13,21 Z M10,21 L12,21 L12,20 L10,20 L10,21 Z M16,19 L18,19 L18,18 L16,18 L16,19 Z M13,19 L15,19 L15,18 L13,18 L13,19 Z M10,19 L12,19 L12,18 L10,18 L10,19 Z M11,15 L17,15 L17,13 L11,13 L11,15 Z M18,12.5 L18,15.5 C18,15.776 17.776,16 17.5,16 L10.5,16 C10.224,16 10,15.776 10,15.5 L10,12.5 C10,12.224 10.224,12 10.5,12 L17.5,12 C17.776,12 18,12.224 18,12.5 L18,12.5 Z M8,23 L20,23 L20,10 L8,10 L8,23 Z M7.5,24 C7.224,24 7,23.776 7,23.5 L7,9.5 C7,9.224 7.224,9 7.5,9 L20.5,9 C20.776,9 21,9.224 21,9.5 L21,23.5 C21,23.776 20.776,24 20.5,24 L7.5,24 Z M1,20 L6,20 L6,19 L1,19 L1,20 Z M2,17 L6,17 L6,16 L2,16 L2,17 Z M0,14 L6,14 L6,13 L0,13 L0,14 Z" id="Fill-4"></path> </g> </g></svg>