<svg width="40" height="40"  viewBox="0 0 40 40" xmlns="http://www.w3.org/2000/svg">  <g id="Icon-Architecture/32/Arch_AWS-Clean-Rooms_32" stroke="none" stroke-width="1" fill="none" fill-rule="evenodd">  <path d="M31.5,30 C30.673,30 30,29.327 30,28.5 C30,27.673 30.673,27 31.5,27 C32.327,27 33,27.673 33,28.5 C33,29.327 32.327,30 31.5,30 L31.5,30 Z M31.5,26 C30.981,26 30.499,26.159 30.099,26.431 L27.834,24.166 L27.127,24.873 L29.403,27.148 C29.15,27.539 29,28.001 29,28.5 C29,29.878 30.121,31 31.5,31 C32.879,31 34,29.878 34,28.5 C34,27.122 32.879,26 31.5,26 L31.5,26 Z M31.5,10 C32.327,10 33,10.673 33,11.5 C33,12.327 32.327,13 31.5,13 C30.673,13 30,12.327 30,11.5 C30,10.673 30.673,10 31.5,10 L31.5,10 Z M27.834,15.834 L30.099,13.569 C30.499,13.841 30.981,14 31.5,14 C32.879,14 34,12.878 34,11.5 C34,10.122 32.879,9 31.5,9 C30.121,9 29,10.122 29,11.5 C29,11.999 29.15,12.461 29.403,12.852 L27.127,15.127 L27.834,15.834 Z M8.5,30 C7.673,30 7,29.327 7,28.5 C7,27.673 7.673,27 8.5,27 C9.327,27 10,27.673 10,28.5 C10,29.327 9.327,30 8.5,30 L8.5,30 Z M12.166,24.166 L9.901,26.431 C9.501,26.159 9.019,26 8.5,26 C7.121,26 6,27.122 6,28.5 C6,29.878 7.121,31 8.5,31 C9.879,31 11,29.878 11,28.5 C11,28.001 10.85,27.539 10.597,27.148 L12.873,24.873 L12.166,24.166 Z M7,11.5 C7,10.673 7.673,10 8.5,10 C9.327,10 10,10.673 10,11.5 C10,12.327 9.327,13 8.5,13 C7.673,13 7,12.327 7,11.5 L7,11.5 Z M11,11.5 C11,10.122 9.879,9 8.5,9 C7.121,9 6,10.122 6,11.5 C6,12.878 7.121,14 8.5,14 C9.019,14 9.501,13.841 9.901,13.569 L12.166,15.834 L12.873,15.127 L10.597,12.852 C10.85,12.461 11,11.999 11,11.5 L11,11.5 Z M20,21 C20.275,21 20.5,21.224 20.5,21.5 C20.5,21.776 20.275,22 20,22 C19.725,22 19.5,21.776 19.5,21.5 C19.5,21.224 19.725,21 20,21 L20,21 Z M19.5,22.908 L19.5,24 L20.5,24 L20.5,22.908 C21.081,22.701 21.5,22.151 21.5,21.5 C21.5,20.673 20.827,20 20,20 C19.173,20 18.5,20.673 18.5,21.5 C18.5,22.151 18.919,22.701 19.5,22.908 L19.5,22.908 Z M15,26 L25,26 L25,19 L15,19 L15,26 Z M17,15.401 C17,14.628 17.628,14 18.4,14 L21.584,14 C22.365,14 23,14.635 23,15.416 L23,18 L17,18 L17,15.401 Z M21.5,31.501 C21.5,32.328 20.827,33.001 20,33.001 C19.173,33.001 18.5,32.328 18.5,31.501 C18.5,30.674 19.173,30.001 20,30.001 C20.827,30.001 21.5,30.674 21.5,31.501 L21.5,31.501 Z M18.5,8.5 C18.5,7.673 19.173,7 20,7 C20.827,7 21.5,7.673 21.5,8.5 C21.5,9.327 20.827,10 20,10 C19.173,10 18.5,9.327 18.5,8.5 L18.5,8.5 Z M25.145,18 L24,18 L24,15.416 C24,14.083 22.916,13 21.584,13 L20.5,13 L20.5,10.949 C21.64,10.717 22.5,9.707 22.5,8.5 C22.5,7.122 21.379,6 20,6 C18.621,6 17.5,7.122 17.5,8.5 C17.5,9.707 18.36,10.717 19.5,10.949 L19.5,13 L18.4,13 C17.077,13 16,14.077 16,15.401 L16,18 L14.855,18 C14.384,18 14,18.375 14,18.837 L14,26.163 C14,26.625 14.384,27 14.855,27 L19.5,27 L19.5,29.052 C18.36,29.284 17.5,30.294 17.5,31.501 C17.5,32.879 18.621,34.001 20,34.001 C21.379,34.001 22.5,32.879 22.5,31.501 C22.5,30.294 21.64,29.284 20.5,29.052 L20.5,27 L25.5,27 C25.776,27 26,26.776 26,26.5 L26,18.837 C26,18.375 25.616,18 25.145,18 L25.145,18 Z" id="Fill-3" fill="#FFFFFF"></path> </g></svg>