<svg width="40" height="40" viewBox="0 0 40 40" fill="none" xmlns="http://www.w3.org/2000/svg">
<g clip-path="url(#clip0_23296_3550)">
<path d="M40 0H0V40H40V0Z" fill="#C925D1" fill-opacity="0.12"/>
<path fill-rule="evenodd" clip-rule="evenodd" d="M31.891 24.788L30.056 23.526C30.509 22.387 30.739 21.187 30.739 19.952C30.739 18.532 30.424 17.12 29.826 15.84L31.62 14.552C32.471 16.218 32.919 18.073 32.919 19.952C32.919 21.642 32.574 23.266 31.891 24.788ZM32.222 13.567C32.152 13.444 32.033 13.357 31.895 13.327C31.757 13.298 31.612 13.328 31.496 13.409L28.897 15.276C28.695 15.421 28.63 15.694 28.746 15.914C29.396 17.151 29.739 18.547 29.739 19.952C29.739 21.185 29.484 22.38 28.981 23.502C28.882 23.723 28.954 23.982 29.154 24.119L31.807 25.944C31.891 26.001 31.99 26.032 32.09 26.032C32.131 26.032 32.173 26.027 32.213 26.016C32.354 25.98 32.471 25.886 32.537 25.758C33.453 23.947 33.919 21.994 33.919 19.952C33.919 17.713 33.332 15.505 32.222 13.567ZM19.968 32.919V30.461C23.164 30.459 26.199 28.982 28.184 26.488L30.21 27.883C27.763 31.043 23.973 32.916 19.968 32.919ZM7 19.959C7 13.148 12.286 7.56 18.968 7.05V9.507C13.641 10.009 9.457 14.503 9.457 19.959C9.457 25.416 13.641 29.91 18.968 30.412V32.869C12.286 32.36 7 26.771 7 19.959ZM29.781 11.509L27.778 12.948C25.786 10.726 22.966 9.46 19.968 9.457V7C23.767 7.003 27.313 8.639 29.781 11.509ZM24.87 15.036C23.569 13.739 21.804 13.004 19.959 13.004C16.124 13.004 13.004 16.124 13.004 19.959V19.962H10.458L10.457 19.959C10.457 14.72 14.72 10.457 19.959 10.457C22.637 10.457 25.148 11.583 26.948 13.543L24.87 15.036ZM19.959 26.914C21.993 26.914 23.937 26.009 25.251 24.471L27.344 25.91C25.545 28.136 22.83 29.462 19.959 29.462C15.059 29.462 11.014 25.732 10.511 20.962H13.085C13.573 24.322 16.466 26.914 19.959 26.914ZM28.357 25.393L25.434 23.383C25.214 23.232 24.911 23.281 24.748 23.497C23.613 25.034 21.867 25.914 19.959 25.914C16.676 25.914 14.004 23.243 14.004 19.959C14.004 16.676 16.676 14.004 19.959 14.004C21.668 14.004 23.298 14.742 24.43 16.028C24.599 16.221 24.89 16.253 25.097 16.103L27.989 14.028L30.799 12.01C30.91 11.93 30.984 11.808 31.002 11.673C31.021 11.537 30.984 11.4 30.899 11.293C28.23 7.929 24.243 6 19.959 6C12.262 6 6 12.262 6 19.959C6 27.657 12.262 33.919 19.959 33.919C24.459 33.919 28.709 31.727 31.329 28.055C31.407 27.946 31.437 27.81 31.413 27.678C31.39 27.546 31.315 27.429 31.204 27.352L28.357 25.393Z" fill="#C925D1"/>
</g>
<rect x="0.5" y="0.5" width="39" height="39" stroke="#C925D1"/>
<defs>
<clipPath id="clip0_23296_3550">
<rect width="40" height="40" fill="white"/>
</clipPath>
</defs>
</svg>
