<svg width="90" height="90" viewBox="0 0 90 90" fill="none" xmlns="http://www.w3.org/2000/svg">
<path fill-rule="evenodd" clip-rule="evenodd" d="M23.4873 16.6488H21.6118V7.02609C21.6118 5.9071 22.5189 4.99997 23.6379 4.99997H31.6727V6.87547V8.75096H25.3628V16.6488H23.4873ZM35.3811 6.87547V4.99997H51.4507V6.87547V8.75096H35.3811V6.87547ZM55.159 6.87547V4.99997H71.2286V6.87547V8.75096H55.159V6.87547ZM74.937 6.87547V4.99997H82.9718C84.0908 4.99997 84.9979 5.9071 84.9979 7.02609V16.6487H83.1224H81.2469V8.75096H74.937V6.87547ZM83.1224 21.09H84.9979V40.3353H83.1224H81.2469V21.09H83.1224ZM83.1224 44.7765H84.9979V54.3992C84.9979 55.5182 84.0908 56.4253 82.9718 56.4253H75.6854V52.6743H81.2469V44.7765H83.1224Z" fill="#326CE5"/>
<mask id="path-2-inside-1_26185_15008" fill="white">
<rect x="12.2993" y="18.5363" width="63.3861" height="51.4253" rx="2.02612"/>
</mask>
<rect x="12.2993" y="18.5363" width="63.3861" height="51.4253" rx="2.02612" stroke="#326CE5" stroke-width="7.50199" stroke-linejoin="round" stroke-dasharray="15.85 3.66" mask="url(#path-2-inside-1_26185_15008)"/>
<rect x="5.00244" y="31.6852" width="63.6514" height="53.3148" rx="2.014" fill="white"/>
<path fill-rule="evenodd" clip-rule="evenodd" d="M7.01644 31.6848C5.90414 31.6848 5.00244 32.5865 5.00244 33.6989V82.9857C5.00244 84.098 5.90414 84.9997 7.01645 84.9997H66.6398C67.7521 84.9997 68.6538 84.098 68.6538 82.9857V33.6988C68.6538 32.5865 67.7521 31.6848 66.6398 31.6848H7.01644ZM21.952 50.3155C22.2844 50.6276 22.6893 50.9408 23.1734 51.2498C23.2521 51.3 23.333 51.3502 23.416 51.4002C23.8478 51.6606 24.3372 51.9173 24.8879 52.1672C24.9595 52.1996 25.0321 52.232 25.1058 52.2642C28.1376 53.5908 32.4465 54.4546 37.299 54.4546C42.1515 54.4546 46.4604 53.5908 49.4922 52.2642C49.5706 52.2299 49.6478 52.1955 49.7238 52.1609C50.2729 51.9113 50.7607 51.6548 51.1912 51.3947C51.2758 51.3436 51.3582 51.2923 51.4384 51.241C51.9204 50.9322 52.3236 50.6193 52.6544 50.3076C52.8555 50.1181 53.0299 49.929 53.179 49.7415C53.6102 49.1993 53.8297 48.6708 53.873 48.1849C53.8751 48.1612 53.8768 48.1375 53.878 48.114C53.88 48.0776 53.881 48.0416 53.881 48.0057C53.881 47.0676 53.2102 45.949 51.5957 44.8733C51.0191 44.4891 50.3221 44.1103 49.4922 43.7473C46.4604 42.4207 42.1515 41.5569 37.299 41.5569C32.4465 41.5569 28.1376 42.4207 25.1058 43.7473C23.1219 44.6153 21.8971 45.5728 21.2615 46.4806C20.8869 47.0157 20.717 47.5336 20.717 48.0057C20.717 48.05 20.7185 48.0947 20.7215 48.1398C20.7235 48.1689 20.7261 48.1982 20.7293 48.2276C20.7813 48.7017 21.0004 49.2151 21.419 49.7415C21.5701 49.9316 21.7473 50.1233 21.952 50.3155ZM19.0024 48.0057C19.0024 48.0799 19.0047 48.1539 19.0093 48.2276V68.599C19.0093 70.8097 21.0572 72.811 24.3683 74.2597C27.6793 75.7084 32.2534 76.6045 37.3059 76.6045C42.3583 76.6045 46.9325 75.7084 50.2435 74.2597C53.5545 72.811 55.6024 70.8095 55.6024 68.5989V48.1849H55.5984C55.5717 48.7183 55.4258 49.2388 55.1718 49.7415C54.8805 50.3184 54.4468 50.8719 53.8879 51.3947V68.599C53.8879 69.8722 52.6523 71.4779 49.4991 72.8575C46.4673 74.184 42.1584 75.0479 37.3059 75.0479C32.4534 75.0479 28.1445 74.184 25.1126 72.8575C21.9595 71.4779 20.7239 69.8721 20.7239 68.5989V51.4002C21.3783 52.0109 22.2038 52.5795 23.1734 53.0942C23.5483 53.2932 23.9449 53.4842 24.3614 53.6665C24.5335 53.7418 24.7091 53.8156 24.8879 53.8879C28.1493 55.2059 32.5092 56.0112 37.299 56.0112C42.0955 56.0112 46.461 55.2036 49.7238 53.8823C49.8979 53.8118 50.0689 53.7398 50.2366 53.6665C50.6582 53.482 51.0594 53.2886 51.4384 53.0869C52.405 52.5725 53.2278 52.0046 53.88 51.3947L53.8838 51.3911C54.4411 50.8694 54.8735 50.3171 55.1643 49.7415C55.4183 49.2388 55.5643 48.718 55.5911 48.1846C55.5941 48.1251 55.5956 48.0655 55.5956 48.0057C55.5956 46.7105 54.8925 45.487 53.6442 44.4045C52.762 43.6395 51.6076 42.9449 50.2366 42.345C46.9256 40.8963 42.3515 40.0003 37.299 40.0003C32.2465 40.0003 27.6724 40.8963 24.3614 42.345C22.4496 43.1815 20.9589 44.2022 20.0404 45.3411C19.3682 46.1747 19.0024 47.0715 19.0024 48.0057Z" fill="#326CE5"/>
</svg>
