<svg width="40" height="40" viewBox="0 0 40 40" fill="none" xmlns="http://www.w3.org/2000/svg">
<g clip-path="url(#clip0_23294_2751)">
<path d="M40 0H0V40H40V0Z" fill="#8C4FFF" fill-opacity="0.12"/>
<path fill-rule="evenodd" clip-rule="evenodd" d="M9 20C9 20.551 8.552 21 8 21C7.448 21 7 20.551 7 20C7 19.449 7.448 19 8 19C8.552 19 9 19.449 9 20ZM6 20C6 21.103 6.897 22 8 22C9.103 22 10 21.103 10 20C10 18.897 9.103 18 8 18C6.897 18 6 18.897 6 20ZM34 7.972V32.028C34 33.115 33.115 34 32.027 34H7.973C6.885 34 6 33.115 6 32.028V23H7V32.028C7 32.564 7.437 33 7.973 33H32.027C32.563 33 33 32.564 33 32.028V7.972C33 7.436 32.563 7 32.027 7H7.973C7.437 7 7 7.436 7 7.972V17H6V7.972C6 6.885 6.885 6 7.973 6H32.027C33.115 6 34 6.885 34 7.972ZM8 28H10.693C13.547 28 16.822 26.126 18.148 23.733L19.023 24.218C17.512 26.944 13.931 29 10.693 29H8V28ZM28.063 10.501H30.131L29.057 9.426L29.764 8.719L31.829 10.785C32.024 10.98 32.024 11.296 31.829 11.492L29.764 13.557L29.057 12.85L30.406 11.501H28.151C25.545 11.501 22.267 12.88 20.621 15.961L19.738 15.49C21.333 12.506 24.678 10.501 28.063 10.501ZM19.879 20.164C19.966 24.484 23.555 28 27.88 28H30.255L29.057 26.801L29.764 26.094L31.829 28.16C32.024 28.355 32.024 28.672 31.829 28.867L29.764 30.933L29.057 30.226L30.282 29H27.966C23.015 29 18.977 25.045 18.879 20.184C18.788 15.595 15.273 12 10.879 12H8V11H10.879C15.823 11 19.776 15.025 19.879 20.164ZM12 17C11.448 17 11 16.551 11 16C11 15.449 11.448 15 12 15C12.552 15 13 15.449 13 16C13 16.551 12.552 17 12 17ZM12 14C10.897 14 10 14.897 10 16C10 17.103 10.897 18 12 18C13.103 18 14 17.103 14 16C14 14.897 13.103 14 12 14ZM15.149 21.988L14.488 23.442L13.033 22.781L13.694 21.327L15.149 21.988ZM11.709 23.277L14.984 24.767L16.474 21.492L13.198 20.002L11.709 23.277ZM29 16H31.016L31.001 22H28.993L29 16ZM27.992 23H31.999L32.018 15H28.001L27.992 23ZM22.999 17H25.016L25.001 22H22.994L22.999 17ZM21.992 23H25.999L26.018 16H22.001L21.992 23Z" fill="#8C4FFF"/>
</g>
<rect x="0.5" y="0.5" width="39" height="39" stroke="#8C4FFF"/>
<defs>
<clipPath id="clip0_23294_2751">
<rect width="40" height="40" fill="white"/>
</clipPath>
</defs>
</svg>
