<svg version="1.1" id="svg8093" xmlns="http://www.w3.org/2000/svg" x="0" y="0" viewBox="0 0 127.6 131.9" style="enable-background:new 0 0 127.6 131.9" xml:space="preserve" width='127.6' height='131.9'><style>.st0{fill:#fff}</style><path id="path8005" class="st0" d="M126 62.3 69.3 5.5 63.8 0 1.5 62.3c-2 2-2 5.3 0 7.4l39 39 23.2 23.2L126 69.6c2.1-2 2.1-5.3 0-7.3zM63.8 85.4 44.3 65.9l19.5-19.5 19.5 19.5-19.5 19.5z"/><path id="path8015" class="st0" d="M63.8 46.4C51 33.7 50.9 13 63.6.2L21 42.8 44.2 66l19.6-19.6z"/><path id="path8025" class="st0" d="M83.3 65.9 63.8 85.4c6.2 6.2 9.6 14.5 9.6 23.2s-3.5 17.1-9.6 23.2L106.6 89c0 .1-23.3-23.1-23.3-23.1z"/></svg>