<svg xmlns="http://www.w3.org/2000/svg" role="img" viewBox="43.41 -4.34 271.42 368.42"><style>svg {enable-background:new 0 0 360 360}</style><style/><linearGradient id="SVGID_1_" x1="85.665" x2="281.953" y1="294.011" y2="47.51" gradientUnits="userSpaceOnUse"><stop offset="0" stop-color="#0cb0d1"/><stop offset="1" stop-color="#9aca3e"/></linearGradient><path fill="url(#SVGID_1_)" d="M269.3 3c-5.8-1-11.4 2.7-12.4 8.5l-12.6 69.7H266l11.9-65.8C279 9.6 275.1 4 269.3 3zm-167.6 8.5C100.6 5.7 95 2 89.2 3s-9.6 6.6-8.5 12.4l11.8 65.8h21.8l-12.6-69.7zm206 287.9l-43.7-184h23c5.3 0 9.7-4.3 9.7-9.7 0-5.2-4.3-9.6-9.7-9.6h-84.7v20.4h16.8L190 138.9V51.4c0-5.9-4.8-10.6-10.7-10.6-5.9 0-10.6 4.8-10.6 10.6v87.5l-29.2-22.3h16.8V96.2H71.6c-5.3 0-9.6 4.3-9.6 9.6s4.3 9.7 9.6 9.7h23.1L50.9 299.7c-1.4 5.7 2.2 11.5 7.9 12.9.8.2 1.6.2 2.5.2 4.8 0 9.2-3.3 10.3-8.2l23.4-98 73.7 54.2v85.7c0 5.9 4.8 10.6 10.6 10.6 5.9 0 10.7-4.8 10.7-10.6v-85.7l73.6-54.2 23.3 97.8c1.2 4.9 5.6 8.2 10.4 8.2.8 0 1.7-.1 2.5-.3 5.7-1.4 9.2-7.2 7.9-12.9zm-139.1-65.1l-47.8-35.2h35.4v-21.3h-54.4l12.7-53.3 54.1 41.4v68.4zm69.2-35.2L190 234.3v-68.5l54.1-41.4 12.6 53.3h-54.4V199h35.5z"/></svg>