<svg width="40" height="40" viewBox="0 0 40 40" fill="none" xmlns="http://www.w3.org/2000/svg">
<g clip-path="url(#clip0_23295_3287)">
<path d="M40 0H0V40H40V0Z" fill="#ED7100" fill-opacity="0.12"/>
<path fill-rule="evenodd" clip-rule="evenodd" d="M31 26.1984L21 31.6534V26.5194L25.51 24.0594L27.449 25.0294L27.896 24.1344L26 23.1864V17.1804L31 14.3524V26.1984ZM15 28.6534V23.5194L18 21.8834V22.4954C18 22.6794 18.102 22.8494 18.264 22.9364C18.338 22.9754 18.419 22.9954 18.5 22.9954C18.597 22.9954 18.693 22.9674 18.777 22.9114L20 22.0964V25.9264L15 28.6534ZM9 25.6534V13.7924L19 8.33739V13.4714L14.49 15.9314L12.447 14.9094L12 15.8044L14 16.8044V22.9264L9 25.6534ZM21.777 20.9114C21.916 20.8184 22 20.6624 22 20.4954V19.4424L25 17.7454V23.1984L21 25.3804V21.4954H20.901L21.777 20.9114ZM19 19.7624L21 18.4294V20.2274L19 21.5614V19.7624ZM18.223 19.0794C18.084 19.1724 18 19.3284 18 19.4954V20.7434L15 22.3804V16.7924L19 14.6104V18.5614L18.223 19.0794ZM25 11.3374V16.5974L22 18.2934V17.4954C22 17.3104 21.898 17.1414 21.736 17.0544C21.573 16.9684 21.377 16.9764 21.223 17.0794L20 17.8944V14.0644L25 11.3374ZM31.752 13.0634C31.742 13.0574 31.729 13.0594 31.719 13.0544L31.723 13.0474L29.301 11.8454L28.855 12.7404L30.434 13.5244L26 16.0314V10.4954C26 10.3194 25.907 10.1554 25.755 10.0654C25.604 9.97539 25.415 9.97239 25.261 10.0564L20 12.9264V8.30439L21.725 9.16639L22.172 8.27239L19.724 7.04839L19.72 7.05539C19.575 6.98439 19.404 6.97839 19.261 7.05639L8.261 13.0564C8.1 13.1434 8 13.3124 8 13.4954V26.4954C8 26.6714 8.093 26.8354 8.245 26.9254C8.256 26.9314 8.27 26.9294 8.28 26.9354L8.276 26.9424L10.836 28.2224L11.283 27.3274L9.579 26.4754L14 24.0644V29.4954C14 29.6714 14.093 29.8354 14.245 29.9254C14.323 29.9714 14.412 29.9954 14.5 29.9954C14.582 29.9954 14.665 29.9744 14.739 29.9344L20 27.0644V31.6864L17.984 30.6784L17.537 31.5734L20.276 32.9424L20.28 32.9354C20.35 32.9694 20.424 32.9954 20.5 32.9954C20.582 32.9954 20.665 32.9744 20.739 32.9344L31.739 26.9344C31.9 26.8464 32 26.6784 32 26.4954V13.4954C32 13.3174 31.905 13.1534 31.752 13.0634Z" fill="#ED7100"/>
</g>
<rect x="0.5" y="0.5" width="39" height="39" stroke="#ED7100"/>
<defs>
<clipPath id="clip0_23295_3287">
<rect width="40" height="40" fill="white"/>
</clipPath>
</defs>
</svg>
