<svg viewBox="0 0 40 40" xmlns="http://www.w3.org/2000/svg">  <g id="Icon-Architecture/32/Arch_Amazon-Managed-Service-for-Prometheus_32" stroke="none" stroke-width="1" fill="none" fill-rule="evenodd">  <g id="Icon-Service/32/Amazon-Managed-Service-for-Prometheus_32" transform="translate(10.000000, 6.000000)" fill="#FFFFFF"> <path d="M16.5,9 C15.673,9 15,8.327 15,7.5 C15,6.673 15.673,6 16.5,6 C17.327,6 18,6.673 18,7.5 C18,8.327 17.327,9 16.5,9 L16.5,9 Z M11.5,4 C10.673,4 10,3.327 10,2.5 C10,1.673 10.673,1 11.5,1 C12.327,1 13,1.673 13,2.5 C13,3.327 12.327,4 11.5,4 L11.5,4 Z M8.5,13 C7.673,13 7,12.327 7,11.5 C7,10.673 7.673,10 8.5,10 C9.327,10 10,10.673 10,11.5 C10,12.327 9.327,13 8.5,13 L8.5,13 Z M2.5,8 C1.673,8 1,7.327 1,6.5 C1,5.673 1.673,5 2.5,5 C3.327,5 4,5.673 4,6.5 C4,7.327 3.327,8 2.5,8 L2.5,8 Z M16.5,5 C15.991,5 15.519,5.154 15.123,5.417 L13.584,3.876 C13.846,3.481 14,3.009 14,2.5 C14,1.122 12.879,0 11.5,0 C10.121,0 9,1.122 9,2.5 C9,3.423 9.508,4.222 10.254,4.655 L8.796,9.03 C8.697,9.018 8.602,9 8.5,9 C7.736,9 7.06,9.352 6.601,9.894 L4.584,7.876 C4.846,7.481 5,7.009 5,6.5 C5,5.122 3.879,4 2.5,4 C1.121,4 0,5.122 0,6.5 C0,7.878 1.121,9 2.5,9 C3.009,9 3.481,8.846 3.877,8.583 L6.107,10.814 C6.045,11.034 6,11.261 6,11.5 C6,12.878 7.121,14 8.5,14 C9.879,14 11,12.878 11,11.5 C11,10.577 10.492,9.778 9.746,9.345 L11.204,4.97 C11.303,4.982 11.398,5 11.5,5 C12.009,5 12.481,4.846 12.877,4.583 L14.416,6.124 C14.154,6.519 14,6.991 14,7.5 C14,8.878 15.121,10 16.5,10 C17.879,10 19,8.878 19,7.5 C19,6.122 17.879,5 16.5,5 L16.5,5 Z M13.25,19 L6.75,19 L4.5,16 L15.5,16 L13.25,19 Z M11.109,27 L8.891,27 L7.141,20 L12.859,20 L11.109,27 Z M16.5,15 L3.5,15 C3.311,15 3.138,15.107 3.053,15.276 C2.968,15.446 2.986,15.648 3.1,15.8 L6.039,19.719 L8.015,27.621 C8.07,27.844 8.271,28 8.5,28 L11.5,28 C11.729,28 11.93,27.844 11.985,27.621 L13.961,19.719 L16.9,15.8 C17.014,15.648 17.032,15.446 16.947,15.276 C16.862,15.107 16.689,15 16.5,15 L16.5,15 Z" id="Fill-3"></path> </g> </g></svg>