<svg width="40" height="40" viewBox="0 0 40 40" xmlns="http://www.w3.org/2000/svg">  <g id="Icon-Architecture/32/Arch_AWS-Elemental-Link_32" stroke="none" stroke-width="1" fill="none" fill-rule="evenodd">  <g id="Icon-Service/32/AWS-Elemental-Link_32" transform="translate(7.999900, 6.000150)" fill="#FFFFFF"> <path d="M9.254,2.66275 L8.754,1.79675 L11.75,0.06675 C11.904,-0.02225 12.096,-0.02225 12.25,0.06675 L15.246,1.79675 L14.746,2.66275 L12,1.07675 L9.254,2.66275 Z M15,22.21175 L12.5,23.65475 L10,22.21175 L10,19.32475 L12.5,17.88075 L15,19.32475 L15,19.99975 L15,20.99975 L15,22.21175 Z M16,19.03575 C16,18.85675 15.904,18.69175 15.75,18.60275 L12.75,16.87075 C12.596,16.78175 12.404,16.78175 12.25,16.87075 L9.25,18.60275 C9.096,18.69175 9,18.85675 9,19.03575 L9,19.99975 L0,19.99975 L0,20.99975 L9,20.99975 L9,22.49975 C9,22.67875 9.096,22.84375 9.25,22.93375 L12,24.52075 L12,27.99975 L13,27.99975 L13,24.52075 L15.75,22.93375 C15.904,22.84375 16,22.67875 16,22.49975 L16,20.99975 L24,20.99975 L24,19.99975 L16,19.99975 L16,19.03575 Z M18,11.99975 L21,11.99975 L21,10.99975 L18,10.99975 L18,11.99975 Z M18,8.99975 L21,8.99975 L21,7.99975 L18,7.99975 L18,8.99975 Z M3,8.99975 L11,8.99975 L11,7.99975 L3,7.99975 L3,8.99975 Z M1,13.99975 L23,13.99975 L23,5.99975 L1,5.99975 L1,13.99975 Z M23.5,4.99975 L0.5,4.99975 C0.224,4.99975 0,5.22375 0,5.49975 L0,14.49975 C0,14.77575 0.224,14.99975 0.5,14.99975 L23.5,14.99975 C23.776,14.99975 24,14.77575 24,14.49975 L24,5.49975 C24,5.22375 23.776,4.99975 23.5,4.99975 L23.5,4.99975 Z" id="AWS-Elemental-Link_Icon_32_Squid"></path> </g> </g></svg>