<?xml version="1.0" encoding="utf-8"?>
<!-- Generator: Adobe Illustrator 22.0.1, SVG Export Plug-In . SVG Version: 6.00 Build 0)  -->
<svg version="1.1" id="Layer_1" xmlns="http://www.w3.org/2000/svg" xmlns:xlink="http://www.w3.org/1999/xlink" x="0px" y="0px"
	 viewBox="0 0 400 400" style="enable-background:new 0 0 400 400;" xml:space="preserve">
<style type="text/css">
	.st0{fill:#FFFFFF;}
	.st1{fill:#647881;}
</style>
<g id="Dark_Blue">
	<path class="st0" d="M350,400H50c-27.6,0-50-22.4-50-50V50C0,22.4,22.4,0,50,0h300c27.6,0,50,22.4,50,50v300
		C400,377.6,377.6,400,350,400z"/>
</g>
<g id="XMLID_184_">
	<path id="XMLID_182_" class="st1" d="M358.3,119.9c-3.8-14.3-15-25.6-29.2-29.4C303.3,83.6,200,83.6,200,83.6s-103.3,0-129.1,6.9
		c-14.2,3.8-25.4,15.1-29.2,29.4c-6.9,25.9-6.9,80.1-6.9,80.1s0,54.1,6.9,80.1c3.8,14.3,15,25.6,29.2,29.4c25.8,7,129.1,7,129.1,7
		s103.3,0,129.1-7c14.2-3.8,25.4-15.1,29.2-29.4c6.9-25.9,6.9-80.1,6.9-80.1S365.2,145.9,358.3,119.9z"/>
	<polygon id="XMLID_1355_" class="st0" points="166.2,249.1 252.6,200 166.2,150.9 	"/>
</g>
</svg>
