<svg width="40" height="40" viewBox="0 0 40 40" xmlns="http://www.w3.org/2000/svg">  <g id="Icon-Architecture/32/Arch_Amazon-EKS-Anywhere_32" stroke="none" stroke-width="1" fill="none" fill-rule="evenodd">  <g id="Icon-Service/32/Amazon-EKS-Anywhere_32" transform="translate(6.000000, 6.000000)" fill="#FFFFFF"> <path d="M17.992,21.9935021 L18.992,21.9935021 L18.992,20.9935021 L17.992,20.9935021 L17.992,21.9935021 Z M17.492,22.9935021 L19.492,22.9935021 C19.769,22.9935021 19.992,22.7695021 19.992,22.4935021 L19.992,20.4935021 C19.992,20.2165021 19.769,19.9935021 19.492,19.9935021 L17.492,19.9935021 C17.216,19.9935021 16.992,20.2165021 16.992,20.4935021 L16.992,22.4935021 C16.992,22.7695021 17.216,22.9935021 17.492,22.9935021 L17.492,22.9935021 Z M22.992,21.9935021 L23.992,21.9935021 L23.992,20.9935021 L22.992,20.9935021 L22.992,21.9935021 Z M22.492,22.9935021 L24.492,22.9935021 C24.769,22.9935021 24.992,22.7695021 24.992,22.4935021 L24.992,20.4935021 C24.992,20.2165021 24.769,19.9935021 24.492,19.9935021 L22.492,19.9935021 C22.216,19.9935021 21.992,20.2165021 21.992,20.4935021 L21.992,22.4935021 C21.992,22.7695021 22.216,22.9935021 22.492,22.9935021 L22.492,22.9935021 Z M17.992,16.9935021 L18.992,16.9935021 L18.992,15.9935021 L17.992,15.9935021 L17.992,16.9935021 Z M17.492,17.9935021 L19.492,17.9935021 C19.769,17.9935021 19.992,17.7695021 19.992,17.4935021 L19.992,15.4935021 C19.992,15.2165021 19.769,14.9935021 19.492,14.9935021 L17.492,14.9935021 C17.216,14.9935021 16.992,15.2165021 16.992,15.4935021 L16.992,17.4935021 C16.992,17.7695021 17.216,17.9935021 17.492,17.9935021 L17.492,17.9935021 Z M22.992,16.9935021 L23.992,16.9935021 L23.992,15.9935021 L22.992,15.9935021 L22.992,16.9935021 Z M22.492,17.9935021 L24.492,17.9935021 C24.769,17.9935021 24.992,17.7695021 24.992,17.4935021 L24.992,15.4935021 C24.992,15.2165021 24.769,14.9935021 24.492,14.9935021 L22.492,14.9935021 C22.216,14.9935021 21.992,15.2165021 21.992,15.4935021 L21.992,17.4935021 C21.992,17.7695021 22.216,17.9935021 22.492,17.9935021 L22.492,17.9935021 Z M14.992,26.9935021 L26.992,26.9935021 L26.992,12.9935021 L14.992,12.9935021 L14.992,26.9935021 Z M11.995,26.4165021 L1,20.6805021 L1,6.27950205 L10,1.34450205 L10,5.86450205 L5.254,8.54850205 C5.097,8.63650205 5,8.80350205 5,8.98350205 L5,17.9835021 C5,18.1655021 5.1,18.3335021 5.259,18.4215021 L11.759,21.9995021 C11.909,22.0825021 12.092,22.0825021 12.24,22.0005021 L13.992,21.0385021 L13.992,25.3265021 L11.995,26.4165021 Z M19.713,8.53150205 L14,5.83950205 L14,1.30850205 L24,6.29250205 L24,11.9935021 L20,11.9935021 L20,8.98350205 C20,8.79050205 19.889,8.61350205 19.713,8.53150205 L19.713,8.53150205 Z M27.492,11.9935021 L25,11.9935021 L25,5.98350205 C25,5.79350205 24.893,5.62050205 24.723,5.53650205 L13.723,0.0525020543 C13.568,-0.0244979457 13.384,-0.0164979457 13.237,0.0745020543 C13.09,0.166502054 13,0.326502054 13,0.500502054 L13,6.15650205 C13,6.34950205 13.111,6.52550205 13.287,6.60850205 L19,9.30050205 L19,11.9935021 L14.492,11.9935021 C14.216,11.9935021 13.992,12.2165021 13.992,12.4935021 L13.992,15.3045021 L12.464,13.3845021 L15.717,9.30650205 L14.272,9.30650205 L11.403,12.6775021 L11.403,9.30650205 L10.117,9.30650205 L10.117,17.6675021 L11.403,17.6675021 L11.403,13.8085021 L13.992,17.0895021 L13.992,19.8965021 L12,20.9905021 L6,17.6885021 L6,9.27450205 L10.746,6.59150205 C10.903,6.50250205 11,6.33650205 11,6.15650205 L11,0.500502054 C11,0.323502054 10.907,0.159502054 10.755,0.0695020543 C10.604,-0.0204979457 10.415,-0.0224979457 10.26,0.0615020543 L0.26,5.54450205 C0.1,5.63250205 -1.77635684e-15,5.80050205 -1.77635684e-15,5.98350205 L-1.77635684e-15,20.9835021 C-1.77635684e-15,21.1695021 0.104,21.3405021 0.269,21.4265021 L11.769,27.4265021 C11.841,27.4645021 11.921,27.4835021 12,27.4835021 C12.082,27.4835021 12.165,27.4625021 12.239,27.4225021 L13.992,26.4655021 L13.992,27.4935021 C13.992,27.7695021 14.216,27.9935021 14.492,27.9935021 L27.492,27.9935021 C27.769,27.9935021 27.992,27.7695021 27.992,27.4935021 L27.992,12.4935021 C27.992,12.2165021 27.769,11.9935021 27.492,11.9935021 L27.492,11.9935021 Z" id="Fill-4"></path> </g> </g></svg>