<svg width="90" height="90" viewBox="0 0 90 90" fill="none" xmlns="http://www.w3.org/2000/svg">
<path fill-rule="evenodd" clip-rule="evenodd" d="M19.017 1C14.5883 1 10.998 4.59022 10.998 9.01899V81.0537C10.998 85.4825 14.5883 89.0727 19.0171 89.0727H70.139C74.5678 89.0727 78.1581 85.4825 78.1581 81.0537V9.019C78.1581 4.59023 74.5678 1 70.139 1H19.017ZM32.998 11.3965C32.998 10.073 34.0709 9 35.3945 9H52.4514C53.775 9 54.848 10.073 54.848 11.3965C54.848 12.7201 53.775 13.7931 52.4514 13.7931H35.3945C34.0709 13.7931 32.998 12.7201 32.998 11.3965ZM44.4262 53.3815C51.9874 53.3815 58.1169 47.252 58.1169 39.6908C58.1169 32.1296 51.9874 26 44.4262 26C36.865 26 30.7354 32.1296 30.7354 39.6908C30.7354 47.252 36.865 53.3815 44.4262 53.3815ZM34.5029 54.1018C34.7782 54.0616 35.0566 54.1333 35.292 54.2816C37.7574 55.835 40.9203 56.7685 44.3694 56.7685C47.8383 56.7685 51.0177 55.8243 53.4891 54.2548C53.7195 54.1085 53.9915 54.0358 54.2622 54.0705C60.8799 54.9202 65.9939 60.5747 65.9939 67.4235V72.7269C65.9939 77.2529 62.3248 80.922 57.7988 80.922H31.1942C26.6682 80.922 22.9991 77.2529 22.9991 72.7269V67.4235C22.9991 60.6535 27.996 55.0506 34.5029 54.1018Z" fill="white"/>
</svg>
