<svg width="24px" height="24px" viewBox="0 0 24 24" fill="none" xmlns="http://www.w3.org/2000/svg">
<path d="M4.69 7.69953L9.38 4.98953V2.26953L2.25 6.37953L2.64 6.85953L4.26 7.73953L4.69 7.69953Z" fill="white"/>
<path fill-rule="evenodd" clip-rule="evenodd" d="M9.38 17.3599L2.25 13.2499V10.6599L9.38 14.7799V17.3599ZM9.38 19.1299L2.25 14.9999V17.5999L9.38 21.7199V19.1299ZM9.38 10.4199L4.69 7.69988L2.25 6.37988V8.87988L9.38 12.9999" fill="#DDDDDD"/>
<path fill-rule="evenodd" clip-rule="evenodd" d="M9.3801 21.7298L16.3801 17.7298V15.0998L9.3801 19.0998M9.3801 14.7498L16.3801 10.7498H18.4601V13.0798H16.7801L9.3801 17.3698V14.7498ZM9.3801 12.9798L16.7901 8.6998H19.2301V10.0598L21.7401 7.5498L19.2301 5.0498V6.3698H16.3601L15.1301 7.0898L14.0701 7.6998L11.3501 9.2698L9.3501 10.4198L9.3801 12.9798Z" fill="white"/>
<path fill-rule="evenodd" clip-rule="evenodd" d="M9.37988 4.98953L12.5399 6.81953L14.8999 5.45953L9.37988 2.26953V4.98953Z" fill="white"/>
</svg>
