<svg version="1.1" id="Layer_1" xmlns="http://www.w3.org/2000/svg" xmlns:xlink="http://www.w3.org/1999/xlink" x="0px" y="0px"
         viewBox="0 0 70 62" style="enable-background:new 0 0 70 62;" xml:space="preserve">
<style type="text/css">
        .st0{fill:#EFEEED;}
        .st1{fill:#F8773D;}
        .st2{fill:#56AE89;}
</style>
<g>
        <path class="st0" d="M57.1,32.7c-0.9-1.3-0.8-3.1,0.4-4.3c0.8-0.8,1.8-1.5,2.8-2.1s1.7-1.7,1.7-2.9v-3.8c0-10.5-10.2-11.5-15.7-12
                c-7.5-0.7-9.5-1.6-10.4-4.4c-0.2-0.5-0.4-1-0.8-1.4c-3.4-3.2-7.8-1.6-9.1,1.7C25,6,22.9,6.8,15.7,7.5C10.2,8.1,0,9,0,19.6v3.8
                c0,1.2,0.6,2.3,1.6,2.9s2,1.3,2.8,2.1c1.2,1.1,1.3,3,0.4,4.3c-0.8,1-1.8,1.9-2.9,2.4S0,36.7,0,38v4.3c0,10.5,10.2,11.5,15.7,12
                c7.5,0.7,9.5,1.6,10.4,4.4c0.2,0.5,0.4,1,0.8,1.4c3.3,3.2,7.8,1.6,9.1-1.7c1-2.5,3.1-3.4,10.3-4.1c5.5-0.5,15.7-1.5,15.7-12V38
                c0-1.3-0.7-2.5-1.9-3S57.9,33.7,57.1,32.7L57.1,32.7z"/>
        <path class="st1" d="M70,25.6c-4-0.2-8.6,1.8-11.1,4.9l0,0l0,0l0,0c1,2.6,3.7,4,6.4,3.4c-0.8-1.9-2.5-3.2-4.4-3.5
                C64.3,30,67.9,28.2,70,25.6z"/>
        <g>
                <path class="st2" d="M18.1,27.7c-0.5,0-0.9,0.1-1.3,0.3c0.3,0.3,0.4,0.7,0.3,1.2c-0.1,0.4-0.5,0.8-0.9,0.8c-0.4,0-0.8-0.1-1-0.4
                        c-0.3,0.6-0.4,1.3-0.2,2.1c0.3,1.4,1.5,2.4,2.8,2.5c2,0.2,3.6-1.3,3.6-3.3C21.4,29.2,19.9,27.7,18.1,27.7 M19.6,33.4
                        c-0.4,0-0.8-0.3-0.8-0.8s0.3-0.8,0.8-0.8s0.8,0.4,0.8,0.8S20,33.4,19.6,33.4"/>
                <path class="st2" d="M40.9,29.6c-0.3,0.6-0.4,1.4-0.2,2.1c0.3,1.2,1.2,2.2,2.5,2.4c2.3,0.5,4.3-1.4,3.9-3.7
                        c-0.2-1.4-1.4-2.6-2.9-2.7c-0.6-0.1-1.2,0-1.7,0.3c0.3,0.3,0.4,0.7,0.3,1.1c-0.1,0.4-0.5,0.7-0.9,0.8C41.6,30,41.2,29.9,40.9,29.6
                         M44.6,32.7c0-0.4,0.3-0.8,0.8-0.8c0.4,0,0.8,0.4,0.8,0.8s-0.3,0.8-0.8,0.8S44.6,33.1,44.6,32.7"/>
                <path class="st2" d="M44.3,22.7c-6,0-4,4.3-13.4,5.3c-8.1-0.9-7.7-4.3-11.4-5.2c-5-1.1-9.9,2.5-10.2,7.5s3.5,8.9,8.3,8.9
                        c6,0,4-4.3,13.3-5.3c8.2,0.9,7.7,4.3,11.4,5.2c5,1.1,9.9-2.5,10.2-7.5C52.9,26.7,49.1,22.7,44.3,22.7 M18.1,35.8
                        c-2.7,0-4.9-2.3-4.9-5c0.1-2.5,2.2-4.7,4.7-4.7c2.8-0.1,5,2.1,5,4.9S20.8,35.8,18.1,35.8 M43.9,35.8c-2.7,0-5-2.3-4.9-5
                        c0.1-2.5,2.2-4.7,4.7-4.7c2.8-0.1,5,2.1,5,4.9S46.6,35.8,43.9,35.8"/>
        </g>
        <g>
                <path class="st1" d="M56.6,24.6c-1.1,0-2.1-0.9-2.1-2v-3c0-3.3-2-4-9-4.7c-5-0.5-11-1.1-14.6-5.4c-3.5,4.4-9.6,4.9-14.6,5.4
                        c-7,0.7-9,1.4-9,4.7v3c0,1.1-0.9,2-2,2s-2-0.9-2-2v-3c0-7.5,7-8.2,12.7-8.7c6.7-0.6,11.3-1.4,13.1-6.2c0.3-0.8,1.1-1.3,1.9-1.3
                        l0,0c0.8,0,1.6,0.5,1.9,1.3c1.8,4.8,6.3,5.5,13.1,6.2c5.7,0.5,12.7,1.2,12.7,8.7v3C58.6,23.6,57.7,24.6,56.6,24.6z"/>
                <path class="st1" d="M31,58.6c-0.8,0-1.6-0.5-1.9-1.3c-1.8-4.8-6.3-5.5-13.1-6.2c-5.6-0.6-12.7-1.2-12.7-8.7v-3c0-1.1,0.9-2,2-2
                        s2,0.9,2,2v3c0,3.3,2,4,9,4.7c5,0.5,11,1.1,14.6,5.4c3.5-4.4,9.6-4.9,14.6-5.4c6.9-0.7,9-1.4,9-4.7v-3c0-1.1,0.9-2,2.1-2
                        s2.1,0.9,2.1,2v3c0,7.5-7,8.2-12.7,8.7c-6.7,0.7-11.3,1.4-13.1,6.2C32.6,58.1,31.8,58.6,31,58.6z"/>
        </g>
</g>
</svg>