<svg xmlns="http://www.w3.org/2000/svg" fill="none" viewBox="0 0 522 673"><path fill="#fff" d="M198 66.5a11.8 11.8 0 1 1-23.7 0 11.8 11.8 0 0 1 23.6 0Zm-94.2 309.2a4.1 4.1 0 0 1-5.7-.7C14.5 268.3 63 130.3 157.4 76.3a4.1 4.1 0 1 1 4 7c-90.7 52-136.9 184.5-56.9 286.7a4 4 0 0 1-.7 5.7Zm72.2-81.3a16.8 16.8 0 1 0 0-33.6 16.8 16.8 0 0 0 0 33.6Zm164.5 0a16.8 16.8 0 1 0 0-33.6 16.8 16.8 0 0 0 0 33.6Z"/><path fill="#fff" fill-rule="evenodd" d="M15.3 308.6a9.7 9.7 0 0 1-15.3-8V205a9.7 9.7 0 0 1 15-8 252.3 252.3 0 0 1 492.2-.3 9.7 9.7 0 0 1 14.7 8.4v95.5a9.7 9.7 0 0 1-15 8.2 252.7 252.7 0 0 1-139.7 172.3l-.1 1.7a57 57 0 0 0 17.4 17.7 91 91 0 0 0 34.5 9.8s-15.9 8-35.3 6.2c-12.2-1-17.4 2-19.3 8l1.3-19.7-1.3 19.6c-2 44.7-4.4 71-5.2 80.2l-.3 3.8v1c-.4 2.5-.8 6.4 9 10.4 5.5 2.3 14.7 4.9 22.6 7.1 8 2.3 14.6 4.2 14.6 4.9 0 1.4-43.9 0-43.9 0-25.2 0-25.2-18.8-25.2-23.4 0-4.6-6.8-83.2-6.8-83.2l-2.3 101.5c0 4.6 2.3 11.4 18.3 16 0 0 35 5.3 35 7.2 0 2-41.9 0-41.9 0-31.8 0-31.8-18.6-31.8-18.6l-6.9-83.2s-2.3 83.2-2.3 94.6c0 9 1.6 15.8 26.6 20.4 4.8 1.4 11.6 2.8 18 4.2 9.7 2 18.4 4 18.4 5 0 1.6-55.6 0-55.6 0-29.7-2.3-32.5-23-32.5-23L260.9 608l-11.2 41.4s-4.6 20.6-34.4 22.9c0 0-50.4 1.6-50.4 0 0-1 7.3-2.8 16-4.8 5.7-1.4 12-2.9 17-4.4 17.4-5.1 26.6-11.4 26.6-20.4 0-11.4-2.3-94.6-2.3-94.6l-6.9 83.2s0 20.4-31.8 20.4c0 0-45.4.1-45.4-1.8 0-2 38.3-7.2 38.3-7.2 16-4.6 18.3-11.4 18.3-16l-2.2-101.5s-7 78.6-7 83.2c0 4.6 0 25.2-25 25.2 0 0-42.4-2.1-42.4-3.6 0-.7 5.3-2 12.1-3.6 7.8-1.8 17.6-4.1 23.6-6.6 9.7-4 9.3-8 9-10.4v-1l-5.6-83.1c-1.9-5.8-7-9-19.2-8a72.6 72.6 0 0 1-35.4-6.2 91 91 0 0 0 34.5-9.7 40.6 40.6 0 0 0 15.3-17.7l-.1-4a252.7 252.7 0 0 1-137-171.1ZM368 467.4l1.1-20.8c1.8-33.8 3.4-63.2 4.8-97.4a70.5 70.5 0 0 0 3.2-123.6v-1.3c0-63.8-48.8-119.2-117.5-119.2-68.8 0-114.4 57.5-114.4 119.1v.2a70.5 70.5 0 0 0 3.6 126l3.2 115.7a240.2 240.2 0 1 1 216 1.3Zm-65.4-69.8c-.6 25.5-11.3 63.1-44.3 63.1-34 0-42.4-42.5-42.4-65.4 0 0 15 21.2 42.4 21.2s44.3-21.2 44.3-21.2v2.3Zm-124-55.7a55.4 55.4 0 1 0 0-110.8 55.4 55.4 0 0 0 0 110.8Zm163 0a55.4 55.4 0 1 0 0-110.8 55.4 55.4 0 0 0 0 110.8Z" clip-rule="evenodd"/></svg>