<svg width="20" height="20" viewBox="0 0 21 20" fill="none" xmlns="http://www.w3.org/2000/svg">
  <path d="M10.91 20C5.412 20 .942 15.53.942 10.033a9.883 9.883 0 0 1 3.05-7.176.797.797 0 0 1 1.13.02.797.797 0 0 1-.02 1.131 8.308 8.308 0 0 0-2.556 6.025c0 4.61 3.753 8.362 8.362 8.362 4.61 0 8.362-3.752 8.362-8.362 0-4.34-3.324-7.923-7.564-8.327v3.12a.802.802 0 1 1-1.605 0V.869c0-.444.359-.802.802-.802 5.497 0 9.967 4.47 9.967 9.966 0 5.497-4.465 9.967-9.962 9.967Z" fill="#fff"/>
  <path d="m6.918 5.344 4.958 3.563A1.5 1.5 0 1 1 9.783 11L6.22 6.042a.501.501 0 0 1 .698-.698Z" fill="#fff"/>
</svg>