<svg version="1.1" id="Layer_1" xmlns="http://www.w3.org/2000/svg" xmlns:xlink="http://www.w3.org/1999/xlink" x="0px" y="0px"
	 viewBox="0 0 206 318.87" style="enable-background:new 0 0 206 318.87;" xml:space="preserve">
<g>
	<path d="M31.22,318.87c-3.28-5.69-6.1-11.63-9.3-17.35c-2.47-4.42-4.44-9.11-7.31-13.33c-2-2.94-3.12-6.44-4.93-9.56
		c-3.02-5.2-4.05-11.16-6.04-16.75c-0.72-2.02-1.11-4.36-1.57-6.54c-0.67-3.23-0.55-6.55-1.44-9.75c-0.56-2.01-0.55-4.21-0.56-6.33
		c-0.06-8-0.14-16,0.03-23.99c0.08-3.81,1.05-7.53,1.84-11.27c0.97-4.63,3.11-8.75,5.04-12.96c3.53-7.69,9.09-13.79,16.07-18.4
		c4.03-2.67,8.77-4.07,13.74-4.16c1.2-0.02,2.4,0.01,3.6-0.01c0.97-0.02,1.92,0.44,1.12-1.48c-0.96-2.31-1.11-4.99-1.44-7.54
		c-0.46-3.61-0.91-7.22-1.1-10.85c-0.13-2.5-0.02-5.06,0.33-7.54c0.48-3.31,1.06-6.65,2.02-9.85c1.29-4.27,3.5-8.18,6.09-11.81
		c3.73-5.23,8.46-9.39,13.76-13.05c4.28-2.95,9.15-4.34,13.74-6.47c2.76-1.28,5.73-1.88,8.67-2.58c0.85-0.2,0.85-0.7,0.84-1.3
		c-0.07-5.93,1.24-11.71,2.07-17.53c1.02-7.22,3.52-14,8.12-19.73c3.34-4.17,7.41-7.64,12.14-10.26c3.19-1.77,6.7-2.75,10.06-4.1
		c5.53-2.22,11.05-4.56,14.57-9.82c1.28-1.92,0.45-4.13,1.02-6.17c1.4-4.98,0.31-10.15,0.93-15.18c0.44-3.59,2.75-6.41,5.32-8.95
		c4.41-4.35,9.85-4.69,15.5-4.01c6.17,0.74,9.9,4.93,12.89,9.84c2.9,4.76,4.13,10.24,6.27,15.32c1.21,2.85,2.15,5.8,2.88,8.71
		c1.07,4.27,1.58,8.74,1.4,13.21c-0.22,5.42-1.28,10.67-3.4,15.66c-0.63,1.49-1.4,3.02-2.34,4.28c-2.19,2.9-1.5,5.68-0.33,8.6
		c0.2,0.49,0.41,0.99,0.48,1.51c0.35,2.66,1.49,3.9,4.2,3.84c1.51-0.04,2.41,0.97,3.53,1.46c8.54,3.72,15.26,9.64,19.75,17.84
		c1.72,3.15,2.82,6.61,3.9,10.1c2.55,8.24,2.72,16.62,2.58,25.06c-0.07,4.45-0.12,8.97-0.94,13.31c-0.53,2.85,0.23,5.93-0.86,8.37
		c-1.22,2.71-0.85,5.51-1.63,8.21c-1.12,3.9-1.9,7.95-3.06,11.83c-2.14,7.22-5.17,14.1-8.92,20.69c-2.63,4.62-5.6,8.98-8.99,12.99
		c-4.3,5.09-9.17,9.66-15.07,13.02c-3.76,2.14-7.53,4.09-11.93,4.41c-2.75,0.2-3.96,2.43-5.58,4.18
		c-4.81,5.2-10.24,9.65-16.35,13.29c-3.69,2.2-7.49,4.22-11.46,5.82c-6.42,2.6-12.97,4.64-19.92,5.56
		c-4.37,0.57-8.71,1.1-13.08,0.89c-2.99-0.14-6.04,0.61-8.94-0.22c-2.47-0.71-4.97-1.23-7.46-1.71c-5.8-1.11-10.92-3.89-16.17-6.33
		c-1.64-0.77-2.52-0.24-3.43,1.13c-3.16,4.76-5.47,9.86-6.76,15.45c-0.76,3.27-1.6,6.52-2.39,9.77c-1.34,5.55-2.2,11.22-3.76,16.66
		c-0.7,2.44,0.04,5.3-1.9,7.39c-0.08,0.09-0.11,0.24-0.13,0.37c-0.79,5.85-2.55,11.5-3.62,17.29c-0.05,0.26-0.01,0.53-0.01,0.8
		C32.82,318.87,32.02,318.87,31.22,318.87z M190.06,132.63c0-0.87-0.02-1.73,0-2.6c0.13-5.13-0.49-10.14-1.91-15.08
		c-0.68-2.36-1.8-4.48-2.89-6.64c-2.64-5.25-6.93-8.66-12.13-11.03c-4.84-2.21-10.1-2.05-15.24-2.1c-2-0.02-1.78-0.79-1.7-2.06
		c0.21-3.13,1.21-6.02,0.44-9.45c-1.12-4.98-2.26-9.79-5.05-14.1c-0.4-0.62-0.31-0.95,0.12-1.54c1.94-2.64,4.24-5,5.96-7.83
		c1.73-2.84,3.25-5.85,3.48-9.11c0.45-6.33,0.66-12.69-2.47-18.65c-0.51-0.98-1.06-2.15-1.33-3.25c-0.85-3.42-2.34-6.6-3.49-9.89
		c-0.36-1.02-1.24-1.87-1.96-2.74c-0.53-0.64-1.37-0.67-2.04-0.41c-1.04,0.4-1.03,1.44-1.04,2.37c-0.04,4.98-0.26,9.96-0.83,14.91
		c-0.32,2.79-0.65,5.7-2.01,8.08c-2.1,3.69-4.66,7.08-8.14,9.78c-4.38,3.4-9.2,6.04-14.32,7.87c-2.83,1.01-5.72,1.91-8.34,3.33
		c-5.26,2.84-9.5,6.68-11.27,12.76c-0.66,2.28-1.23,4.55-1.69,6.88c-0.81,4.14-1.6,8.27-1.8,12.47c-0.21,4.24,0.79,8.35,1.8,12.45
		c0.28,1.15,0.78,2.95-0.84,3.21c-1.49,0.23-2.83,0.85-4.3,1.06c-2.82,0.39-5.68,0.69-8.44,1.37c-5.16,1.27-10.23,2.81-15.01,5.27
		c-4.56,2.34-8.61,5.25-11.85,9.21c-2.58,3.17-4.75,6.48-5.66,10.67c-0.76,3.47-2.15,7.09-1.5,10.4c0.7,3.6,0.56,7.25,1.45,10.89
		c1.1,4.51,2.52,8.81,4.43,12.95c2,4.35,4.57,8.42,8.03,11.79c1.9,1.86,3.83,3.85,6.62,4.45c0.71,0.15,0.88,0.52,0.91,1.25
		c0.12,3.02-0.99,5.74-2.14,8.38c-1.16,2.68-2.77,3.23-5.02,2.09c-1.93-0.99-3.82-2.08-5.66-3.24c-3.88-2.46-7.62-5.15-11.59-7.44
		c-3.16-1.82-6.49-3.24-10.1-4.24c-3.58-0.99-6.51-0.77-9.64,1.07c-6.28,3.7-9.83,9.58-12.61,15.91
		c-2.45,5.58-3.32,11.65-3.79,17.72c-0.46,5.89-0.49,11.79,0.55,17.65c0.63,3.57,0.33,7.21,1.01,10.84
		c0.92,4.91,2.09,9.75,3.44,14.52c0.86,3.04,2,6.07,3.54,8.88c0.57,1.05,0.67,2.86,2.08,2.78c1.91-0.1,1.22-2.27,1.88-3.42
		c0.06-0.1-0.02-0.27,0-0.39c0.51-2.31,0.97-4.62,1.54-6.92c0.73-2.95,1.64-5.85,2.8-8.67c1.38-3.33,2.64-6.74,4.5-9.81
		c3.65-6.02,8.84-10.61,14.6-14.57c2.63-1.81,2.66-1.77,5.01,0.55c0.19,0.19,0.39,0.37,0.6,0.53c6.95,5.27,14.49,9.12,23.42,9.54
		c0.26,0.01,0.6-0.01,0.78,0.13c1.98,1.61,4.32,1.02,6.53,1.04c2.79,0.02,5.72,0.6,8.35-0.26c2.84-0.93,5.78-1.25,8.63-1.85
		c4.26-0.89,8.3-2.25,12.15-4.1c5.09-2.44,9.97-5.29,14.43-8.8c5.58-4.38,10.04-9.73,13.76-15.71c1.23-1.97,1.7-2.31,3.51-0.81
		c2.17,1.79,4.41,2.45,7.01,1.03c5.82-3.16,10.81-7.32,14.9-12.52c4.2-5.33,7.3-11.26,10.22-17.41c2.61-5.49,3.27-11.47,5.64-16.94
		c-0.78-3.35,1.55-6.07,1.84-9.3C188.97,148.08,190.21,140.41,190.06,132.63z"/>
	<path d="M159.5,104.55c0.12,2.29-1.35,4.18-1.1,6.42c0.49,4.37,1.49,8.6,3.2,12.66c1.12,2.66,1.93,5.43,2.88,8.14
		c1.04,2.98,1.98,5.98,2.95,8.99c0.62,1.94,1.37,3.83,1.95,5.79c0.76,2.57,1.36,5.18,2.12,7.75c0.87,2.91,1.29,5.94,1.84,8.93
		c0.39,2.14,0.49,4-0.57,6.05c-5.23-2.27-9.63-5.99-14.32-9.3c-3.91-2.76-7.82-5.62-12.27-7.5c-2.69-1.14-5.02-2.99-7.86-3.83
		c-2.26-0.67-4.56-1.28-6.71-2.22c-2.24-0.98-4.81-0.6-6.94-1.88c-0.11-0.06-0.26-0.09-0.39-0.07c-4.25,0.37-8.39-1.73-12.56-0.95
		c-4.38,0.82-8.9,0.73-13.19,2.02c-9.46,2.84-18.14,7.14-25.66,13.66c-0.56,0.49-1.08,0.97-1.4,1.62c-0.31,0.61-0.25,1.4,0.41,1.5
		c1.53,0.25,3.24,0.67,4.59-0.25c0.73-0.5,1.4-0.72,2.16-0.75c2.8-0.11,5.42-1.14,8.2-1.5c4.88-0.63,9.68-1.13,14.62-0.68
		c2.31,0.21,4.53,0.75,6.81,1.03c2.87,0.36,5.26,2.08,7.8,3.35c3.24,1.62,6.4,3.39,9.03,5.94c0.35,0.34,1.05,0.56,0.9,1.19
		c-0.12,0.5-0.71,0.46-1.15,0.61c-3.87,1.31-7.87,2.19-11.74,3.4c-4.1,1.29-8.31,2.06-12.42,3.19c-4.2,1.16-8.39,2.54-12.86,2.72
		c-2.39,0.1-4.76,0.96-7.23,1.09c-3.74,0.2-6.61-1.4-8.79-4.17c-4.34-5.52-7.33-11.61-8.69-18.64c-0.92-4.77-1.15-9.46-1.03-14.23
		c0.2-8.03,3.82-14.1,10.77-18.12c3.02-1.74,6.38-2.76,9.57-4.14c5.79-2.51,12.03-2.72,18.01-4.22c1.65-0.41,3.43-0.22,5.14-0.43
		c2.33-0.28,3.28,1.68,4.44,2.93c2.36,2.56,5.08,4.71,8.07,6.23c2.23,1.14,5.15,0.99,7.52,0.04c4.9-1.95,9.09-5.15,13.15-8.47
		c2.65-2.17,5.3-4.35,7.77-6.71c3.25-3.09,7.21-5.04,11.06-7.17C158.07,104.31,158.85,104.55,159.5,104.55z"/>
	<path d="M146.39,186.81c-0.64,3.98-1.42,7.92-2.87,11.7c-3.56,9.28-9.61,16.72-17.04,23.14c-3.62,3.13-7.85,5.25-12.04,7.49
		c-4.5,2.4-9.36,3.49-14.19,4.77c-1.35,0.36-2.81,0.42-4.12,0.41c-4.08-0.02-8.18,1.53-12.07,0.7c-3.23-0.68-6.54-0.98-9.75-1.94
		c-5.02-1.49-9.59-3.79-13.97-6.59c-1.59-1.02-2.77-2.46-4.2-3.65c-0.97-0.8-0.24-1.19,0.62-1.63c3.96-2.05,7.9-4.14,11.5-6.81
		c6.1-4.52,10.77-10.2,13.72-17.23c0.42-1.01,0.39-2.21,0.82-3.22c0.88-2.08,2.79-2.68,4.74-3.63c4.91-2.38,10.32-3.26,15.19-5.73
		c2.5-1.27,5.47-1.6,8.15-2.56c3.13-1.12,6.34-2,9.38-3.45c2.56-1.22,5.46-1.74,8.24-2.46c0.87-0.23,1.73-0.14,2.54,0.64
		c3.99,3.86,8.75,6.13,14.34,6.52c0.78,0.05,1.05,0.38,1.03,1.11C146.37,185.21,146.39,186.01,146.39,186.81z"/>
	<path d="M106.5,99.55c-0.89-4.58,2.76-5.68,5.66-7.18c3.07-1.59,6.4-2.66,9.56-4.04c2.52-1.1,5.2-1.59,7.65-2.79
		c1.13-0.55,0.95,0.25,1.06,0.91c0.77,4.79,1.96,9.39,6.05,12.58c1.74,1.36,3.84,2.02,5.79,2.95c0.95,0.45,0.95,0.57,0.54,1.5
		c-3.84,8.8-11,13.39-19.86,15.91c-2.69,0.76-4.77-0.62-6.46-2.16c-3.78-3.45-7.37-7.04-8.83-12.36
		C107.18,103.1,106.21,101.48,106.5,99.55z"/>
	<path d="M22.51,235.58c-0.23-2.92-0.59-5.82-0.48-8.76c0.21-5.5,1.13-10.91,2.48-16.2c1.42-5.53,4.34-10.39,8.08-14.7
		c0.99-1.14,2.24-2.07,3.46-2.98c1.23-0.92,1.87-0.48,2.4,0.93c1.28,3.41,1.42,6.97,1.48,10.51c0.05,2.78-0.36,5.56-0.58,8.34
		c-0.32,3.97,0.19,7.67,3.44,10.45c0.64,0.55,1.26,1.1,2.16,1.35c1.41,0.4,1.54,1.24,0.31,2.12c-3.76,2.68-7.23,5.67-10.17,9.24
		c-3.19,3.88-6.26,7.82-7.89,12.71c-0.37,1.11-0.85,2.11-0.84,3.32c0,0.66-0.2,1.36-1.14,1.31c-0.95-0.05-0.69-0.8-0.76-1.34
		c-0.65-4.5-1.31-9-1.92-13.5C22.41,237.46,22.51,236.52,22.51,235.58z"/>
	<path d="M92.98,154.05c2.22-2.25,4.83-2.03,7.08-2.7c6.04-1.78,12.24-0.6,18.37-0.84c5.28-0.21,10.07,1.58,14.98,2.94
		c5.29,1.46,9.95,4.34,14.54,7.19c4.26,2.64,8.08,5.97,12.12,8.97c1.73,1.28,3.49,2.53,5.29,3.71c0.93,0.61,0.74,0.84-0.11,1.28
		c-3.19,1.64-6.71,2.13-10.16,2.41c-4.54,0.37-9.1,0.69-13.67-0.46c-2.92-0.73-4.97-2.54-6.78-4.56c-3.75-4.19-7.77-8.04-12.4-11.22
		c-1.4-0.96-2.92-1.8-4.48-2.46c-1.72-0.73-3.23-1.84-4.91-2.53c-2.15-0.88-4.53-1.28-6.85-1.7
		C101.84,153.31,97.64,153.34,92.98,154.05z"/>
	<path d="M180.16,162.87c-2.55-1.42-1.67-3.7-2-5.43c-0.5-2.67-1.31-5.23-1.94-7.84c-0.57-2.35-1.44-4.6-2.03-6.95
		c-0.39-1.56-0.88-3.29-1.64-4.86c-0.83-1.72-0.85-3.77-1.69-5.57c-1.86-4.04-3.28-8.27-4.52-12.54c-1.13-3.87-2.03-7.76-1.12-11.88
		c0.74-3.34,2.14-5.43,4.16-5.18c1.77,0.22,3.44,0.94,4.77,2.18c2.27,2.12,3.73,4.74,5.14,7.51c4.39,8.64,3.5,17.82,3.18,26.96
		c-0.12,3.32,0.08,6.64-0.38,9.96C181.47,153.69,180.39,158.1,180.16,162.87z"/>
	<path d="M144.57,53.18c-1.29,5.13-2.98,9.76-5.62,14c-2.01,3.24-4,6.48-6.69,9.26c-2.21,2.29-4.86,3.67-7.73,4.95
		c-3.32,1.48-6.75,2.66-10.03,4.22c-2.15,1.02-4.31,2.01-6.44,3.07c-0.46,0.23-1,0.88-1.35,0.39c-0.31-0.44-0.37-1.44-0.07-1.86
		c1.97-2.79,1.7-6.2,2.45-9.27c0.99-4.06,3.31-6.59,6.62-8.68c5.63-3.54,12-5.53,17.77-8.77c3.49-1.96,6.86-4.1,9.96-6.65
		C143.69,53.65,143.99,53.52,144.57,53.18z"/>
	<path d="M175.53,176.64c-2.94,5.68-5.02,11.2-8.72,15.95c-3.64,4.68-7.2,9.33-12,12.93c-1.34,1.01-2.17,0.95-3.22-0.13
		c-0.46-0.47-0.97-0.91-1.5-1.3c-0.68-0.51-0.58-0.83-0.32-1.71c0.61-2.07,1.14-4.23,1.67-6.31c0.78-3.03,0.99-6.1,1.56-9.14
		c0.11-0.58,0.28-1.2,0.21-1.77c-0.18-1.49,0.53-1.59,1.85-1.96c5.21-1.46,10.72-1.76,15.63-4.51
		C171.96,177.99,173.46,177.17,175.53,176.64z"/>
	<path d="M48.55,196.6c5.22,3.02,10,6.44,15.2,9.16c0.41,0.21,0.83,0.42,1.23,0.65c0.43,0.24,1.22-0.22,1.33,0.52
		c0.09,0.62-0.42,1.05-0.9,1.45c-4.17,3.42-8.55,6.48-13.59,8.5c-0.37,0.15-0.75,0.29-1.13,0.35c-3.02,0.52-3.35,0.17-3.52-2.85
		c-0.27-4.87,0.51-9.65,1.12-14.44C48.43,198.85,48.46,197.75,48.55,196.6z"/>
	<path d="M148.23,74.58c0.4,1.89,1.6,3.27,2.28,4.89c0.5,1.2,0.7,2.27,0.72,3.47c0.02,1.46,0,2.92,0.01,4.38
		c0.02,3.36-1.94,5.73-4.24,7.73c-1.71,1.49-5.04,0.7-6.92-1.35c-3.24-3.52-4.49-9.23,0.35-13.38
		C142.84,78.26,145.12,75.93,148.23,74.58z"/>
	<path d="M146.63,63.83c3.48-7.83,4.86-16.28,7.34-24.41C154.94,48.4,155.18,53.15,146.63,63.83z"/>
</g>
</svg>