<svg width="53" height="61" viewBox="0 0 53 61" fill="none" xmlns="http://www.w3.org/2000/svg">
<g clip-path="url(#clip0_28_263)">
<path d="M0.016475 29.0933C0.016475 24.2629 0.0253945 19.4324 0.00471797 14.602C0.00218408 14.0308 0.214928 13.6981 0.687347 13.427C4.24121 11.3863 7.7909 9.33862 11.3363 7.28377C13.9057 5.80026 16.475 4.31678 19.0442 2.83334C20.5617 1.95641 22.0707 1.06418 23.6015 0.211475C23.8522 0.0718065 24.2917 -0.0374547 24.4732 0.0874153C24.6949 0.239449 24.8329 0.652169 24.8391 0.955525C24.8695 2.47485 24.8422 3.99518 24.8419 5.51521C24.8419 7.82906 24.8293 10.1431 24.8608 12.4565C24.8704 13.1649 24.621 13.5852 23.9904 13.9425C20.22 16.0784 16.4768 18.2612 12.7188 20.4191C12.2953 20.6623 12.1021 20.9691 12.1034 21.4731C12.1169 26.557 12.1169 31.6408 12.1034 36.7245C12.1021 37.2271 12.2798 37.5264 12.7129 37.775C17.0852 40.285 21.4511 42.806 25.8108 45.3382C26.2961 45.6199 26.6942 45.6554 27.2095 45.3532C30.7593 43.2726 34.3209 41.2117 37.8938 39.1705C39.5119 38.2419 39.0391 38.2939 40.5041 39.1317C43.6957 40.956 46.8633 42.8224 50.0589 44.6394C50.8917 45.1129 50.6791 45.7482 50.0413 46.1137C43.4702 49.8788 36.908 53.6592 30.3546 57.4547C29.2599 58.0863 28.1581 58.7067 27.0743 59.3567C26.6961 59.5835 26.3777 59.5934 25.9942 59.3709C23.2522 57.7795 20.5007 56.2038 17.754 54.6199C12.6129 51.6549 7.47267 48.6885 2.33326 45.7209C1.76384 45.3923 1.20224 45.0493 0.624406 44.7363C0.175806 44.4931 -0.00258045 44.1586 -0.000857398 43.6354C0.0154608 38.7881 0.00877152 33.9407 0.00877152 29.0934L0.016475 29.0933Z" fill="#157CFF"/>
<path d="M52.9844 27.7994C52.9844 32.0886 52.9844 36.3778 52.9844 40.667C52.9844 40.8527 52.9906 41.0391 52.9771 41.2245C52.9331 41.8273 52.4848 42.086 51.9526 41.7884C50.5681 41.0147 49.1894 40.2308 47.8164 39.437C45.7561 38.249 43.7091 37.0379 41.6392 35.8673C41.1387 35.5842 40.9283 35.2579 40.9315 34.667C40.9549 30.2935 40.9367 25.92 40.9531 21.5462C40.9551 21.0131 40.7967 20.6718 40.3222 20.4009C37.5236 18.8038 34.739 17.1823 31.9493 15.5698C30.8689 14.9452 29.7904 14.3173 28.7043 13.7024C28.372 13.5142 28.2453 13.2557 28.246 12.8769C28.2531 8.85803 28.2467 4.83945 28.2512 0.819985C28.2522 0.0537361 28.719 -0.208064 29.3826 0.17506C31.8664 1.60884 34.3489 3.04505 36.83 4.48369C41.956 7.448 47.0846 10.4079 52.2158 13.3634C52.7912 13.693 53.0038 14.0729 53.0001 14.7298C52.9748 19.0864 52.987 23.4432 52.987 27.8L52.9844 27.7994Z" fill="#3A52DD"/>
<path d="M23.4536 27.4831C23.5986 27.3556 23.7526 27.2367 23.8873 27.0991C25.9527 24.9902 28.0108 22.8742 30.0876 20.7764C30.2755 20.6011 30.518 20.496 30.7744 20.4786C31.6313 20.4434 32.4906 20.4647 33.5064 20.4647C32.9427 21.0539 32.4776 21.546 32.0063 22.0316C30.0671 24.029 28.1255 26.0239 26.1816 28.016C25.9112 28.2918 25.8996 28.4741 26.1664 28.7704C28.6498 31.5286 31.1243 34.2948 33.59 37.0689C33.6952 37.1866 33.7875 37.3161 33.9633 37.5382C32.9313 37.5382 32.0275 37.5558 31.1254 37.5219C30.9632 37.5159 30.784 37.3199 30.654 37.1747C28.3911 34.6495 26.1322 32.1211 23.8769 29.5893C23.7459 29.4425 23.6103 29.2999 23.372 29.0419C23.3302 29.2842 23.3009 29.5284 23.2843 29.7736C23.2805 32.1543 23.2703 34.535 23.2954 36.9155C23.3006 37.4238 23.1597 37.6211 22.6399 37.5615C22.2702 37.5213 21.8971 37.5211 21.5273 37.5606C21.0197 37.6127 20.8604 37.4386 20.8645 36.9161C20.8883 33.8771 20.8759 30.8379 20.8757 27.7987C20.8757 25.553 20.8879 23.3073 20.8657 21.062C20.8611 20.5958 20.9981 20.4187 21.4666 20.4585C21.8536 20.4944 22.2431 20.4946 22.6302 20.4591C23.137 20.4084 23.3015 20.5815 23.2934 21.1018C23.2638 22.9924 23.2794 24.8837 23.2814 26.7747C23.2814 26.9876 23.3041 27.1995 23.3163 27.4118L23.4536 27.4831Z" fill="#3C54DF"/>
</g>
<defs>
<clipPath id="clip0_28_263">
<rect width="53" height="60.0667" fill="white"/>
</clipPath>
</defs>
</svg>