<?xml version="1.0" standalone="no"?>
<!DOCTYPE svg PUBLIC "-//W3C//DTD SVG 20010904//EN"
 "http://www.w3.org/TR/2001/REC-SVG-20010904/DTD/svg10.dtd">
<svg version="1.0" xmlns="http://www.w3.org/2000/svg"
 width="568.000000pt" height="568.000000pt" viewBox="0 0 568.000000 568.000000"
 preserveAspectRatio="xMidYMid meet">
<metadata>
Created by potrace 1.11, written by Peter Selinger 2001-2013
</metadata>
<g transform="translate(0.000000,568.000000) scale(0.100000,-0.100000)"
fill="#000000" stroke="none">
<path d="M909 4681 c-1 -52 -1 -873 0 -956 l1 -70 435 0 435 0 1 30 c1 16 1
86 1 155 -1 69 1 134 3 145 4 20 11 20 585 20 l580 0 0 356 0 356 -1020 0
-1020 0 -1 -36z"/>
<path d="M3190 4361 l0 -356 740 0 740 0 0 356 0 356 -740 0 -740 0 0 -356z"/>
<path d="M909 3395 c-1 -30 0 -793 1 -807 0 -5 680 -8 1510 -8 l1510 0 0 -130
c0 -97 3 -130 13 -131 15 -1 850 -1 858 0 7 1 3 358 -5 400 -51 261 -258 456
-536 505 -14 3 -577 5 -1252 5 l-1227 1 2 97 1 98 -437 0 -437 0 -1 -30z"/>
<path d="M3947 2092 c-15 -3 -17 -24 -17 -208 l0 -204 -22 -1 c-13 0 -276 -1
-586 -1 l-562 -1 2 -356 3 -356 745 1 c733 0 795 2 875 25 117 33 264 144 330
249 35 55 70 144 81 202 4 24 8 179 9 346 l1 302 -28 1 c-130 2 -818 3 -831 1z"/>
<path d="M886 2044 c-20 -19 -11 -612 10 -645 3 -5 7 -18 9 -29 14 -72 106
-207 186 -270 62 -48 173 -103 249 -121 42 -10 191 -13 615 -13 l560 -1 3 356
2 356 -387 1 c-214 0 -395 1 -405 1 -14 1 -16 20 -16 174 0 94 -1 179 -1 187
-1 13 -53 15 -408 15 -276 0 -410 -3 -417 -11z"/>
</g>
</svg>
