<svg width="24px" height="24px" viewBox="0 0 24 24" fill="none" xmlns="http://www.w3.org/2000/svg">
<path d="M11.9999 10.4804V6.07043C11.9999 6.02053 11.9901 5.97111 11.971 5.92501C11.9519 5.87891 11.9239 5.83702 11.8886 5.80173C11.8533 5.76644 11.8114 5.73845 11.7653 5.71936C11.7192 5.70026 11.6698 5.69043 11.6199 5.69043H10.1199C10.0704 5.69041 10.0215 5.7003 9.97595 5.71952C9.9304 5.73874 9.88915 5.76689 9.85466 5.80231C9.82017 5.83774 9.79313 5.87971 9.77513 5.92576C9.75714 5.97181 9.74855 6.02101 9.74989 6.07043V8.20043L10.7499 10.4804H11.9999Z" fill="white"/>
<path d="M8.84994 17.5104C8.47726 17.5085 8.11241 17.6173 7.80172 17.8231C7.49103 18.0289 7.24851 18.3224 7.10498 18.6664C6.96145 19.0103 6.92338 19.3891 6.9956 19.7547C7.06782 20.1203 7.24708 20.4562 7.5106 20.7198C7.77412 20.9833 8.11002 21.1625 8.47564 21.2348C8.84125 21.307 9.22008 21.2689 9.56401 21.1254C9.90794 20.9819 10.2015 20.7393 10.4073 20.4286C10.6131 20.118 10.7219 19.7531 10.7199 19.3804C10.7173 18.8853 10.5194 18.4112 10.1693 18.061C9.8192 17.7109 9.34508 17.5131 8.84994 17.5104ZM18.1299 17.5104C17.7573 17.5085 17.3924 17.6173 17.0817 17.8231C16.771 18.0289 16.5285 18.3224 16.385 18.6664C16.2415 19.0103 16.2034 19.3891 16.2756 19.7547C16.3478 20.1203 16.5271 20.4562 16.7906 20.7198C17.0541 20.9833 17.39 21.1625 17.7556 21.2348C18.1213 21.307 18.5001 21.2689 18.844 21.1254C19.1879 20.9819 19.4815 20.7393 19.6873 20.4286C19.8931 20.118 20.0019 19.7531 19.9999 19.3804C19.9999 18.8845 19.8029 18.4088 19.4522 18.0581C19.1015 17.7074 18.6259 17.5104 18.1299 17.5104ZM14.9199 5.07043C14.9199 4.96965 14.8799 4.87299 14.8086 4.80173C14.7374 4.73047 14.6407 4.69043 14.5399 4.69043H12.9999C12.9505 4.69041 12.9015 4.7003 12.856 4.71952C12.8104 4.73874 12.7692 4.76689 12.7347 4.80231C12.7002 4.83774 12.6732 4.87971 12.6552 4.92576C12.6372 4.97181 12.6286 5.02101 12.6299 5.07043V10.4804H14.8799L14.9199 5.07043Z" fill="#DDDDDD"/>
<path d="M10.29 12.7302L9.19003 15.0002H20C20.1989 15.0002 20.3897 15.0793 20.5304 15.2199C20.671 15.3606 20.75 15.5513 20.75 15.7502C20.75 15.9491 20.671 16.1399 20.5304 16.2806C20.3897 16.4212 20.1989 16.5002 20 16.5002H9.19003C8.93625 16.5014 8.68638 16.4377 8.46413 16.3152C8.24187 16.1927 8.05458 16.0154 7.92003 15.8002C7.78229 15.5862 7.7025 15.34 7.68847 15.0858C7.67445 14.8316 7.72667 14.5782 7.84003 14.3502L9.00003 12.0002L5.44003 4.24023H3.28003C3.08112 4.24023 2.89035 4.16122 2.7497 4.02056C2.60905 3.87991 2.53003 3.68915 2.53003 3.49023C2.53003 3.29132 2.60905 3.10056 2.7497 2.9599C2.89035 2.81925 3.08112 2.74023 3.28003 2.74023H5.93003C6.0736 2.7408 6.21399 2.78256 6.33453 2.86055C6.45507 2.93855 6.55069 3.0495 6.61003 3.18023L10.3 11.2302H16.83L20.07 5.46023C20.1168 5.37203 20.1806 5.29405 20.2579 5.23085C20.3352 5.16766 20.4243 5.12053 20.52 5.09222C20.6157 5.06391 20.7162 5.05499 20.8154 5.06599C20.9146 5.07699 21.0106 5.10769 21.0978 5.15628C21.185 5.20487 21.2616 5.27038 21.3232 5.34896C21.3847 5.42755 21.43 5.51763 21.4563 5.61393C21.4825 5.71023 21.4893 5.81081 21.4762 5.90977C21.4632 6.00873 21.4304 6.10408 21.38 6.19023L18.13 12.0002C18.0017 12.2328 17.8134 12.4269 17.5849 12.5622C17.3563 12.6976 17.0957 12.7694 16.83 12.7702L10.29 12.7302ZM17.85 7.88023V3.14023C17.85 3.09079 17.8402 3.04185 17.8209 2.99629C17.8017 2.95074 17.7736 2.9095 17.7381 2.875C17.7027 2.84051 17.6607 2.81347 17.6147 2.79548C17.5686 2.77748 17.5195 2.7689 17.47 2.77023H16C15.9511 2.76885 15.9023 2.77748 15.8568 2.79559C15.8113 2.81369 15.77 2.8409 15.7353 2.87553C15.7007 2.91017 15.6735 2.95151 15.6554 2.99703C15.6373 3.04254 15.6286 3.09127 15.63 3.14023V10.4802H16.42L17.85 7.88023Z" fill="white"/>
</svg>
