<svg width="36" height="35" viewBox="0 0 36 35" fill="none" xmlns="http://www.w3.org/2000/svg">
<path d="M15.84 2.34288e-05C7.09631 2.34288e-05 0 7.09634 0 15.84C0 24.5837 7.09631 31.68 15.84 31.68C17.8008 31.68 19.672 31.3082 21.4056 30.656V26.9249C21.4056 25.6554 22.444 23.5209 23.7136 23.5209V20.059C23.7136 18.3232 26.3011 15.3852 29.4865 15.3852C30.2647 15.3852 31.0024 15.5419 31.68 15.8214C31.6698 7.08637 24.5774 2.34288e-05 15.84 2.34288e-05ZM19.008 5.54402L24.552 11.088H20.592V17.424H17.424V11.088H13.464L19.008 5.54402ZM11.088 14.256H14.256V20.592H18.216L12.672 26.136L7.12801 20.592H11.088L11.088 14.256ZM29.8856 18.1851C27.6248 18.1851 25.7895 20.0204 25.7895 22.2812V24.7376C24.8884 24.7376 24.1529 25.4732 24.1529 26.3742V32.9299C24.1529 33.8309 24.8885 34.5665 25.7895 34.5665H33.9817C34.8828 34.5665 35.6183 33.8309 35.6183 32.9299V26.3742C35.6183 25.4732 34.8828 24.7376 33.9817 24.7376V22.2812C33.9817 20.0204 32.1464 18.1851 29.8856 18.1851ZM29.8856 19.8217C31.2454 19.8217 32.342 20.9215 32.342 22.2812V24.7376H27.4292V22.2812C27.4292 20.9215 28.5259 19.8217 29.8856 19.8217Z" fill="#326CE5"/>
</svg>
