<svg width="40" height="40" viewBox="0 0 40 40" fill="none" xmlns="http://www.w3.org/2000/svg">
<g clip-path="url(#clip0_23298_4115)">
<path d="M40 0H0V40H40V0Z" fill="#E7157B" fill-opacity="0.12"/>
<path fill-rule="evenodd" clip-rule="evenodd" d="M14 9H16V8H14V9ZM11 9H13V8H11V9ZM8 9H10V8H8V9ZM7 10H33V7H7V10ZM33.5 6H6.5C6.224 6 6 6.224 6 6.5V10V11V33.5C6 33.776 6.224 34 6.5 34H24V33H7V11H33V33H30V34H33.5C33.776 34 34 33.776 34 33.5V11V10V6.5C34 6.224 33.776 6 33.5 6ZM20 24.696C18.511 24.696 17.3 23.485 17.3 21.996C17.3 20.507 18.511 19.296 20 19.296C21.489 19.296 22.7 20.507 22.7 21.996C22.7 23.485 21.489 24.696 20 24.696ZM20 18.296C17.96 18.296 16.3 19.956 16.3 21.996C16.3 24.036 17.96 25.696 20 25.696C22.04 25.696 23.7 24.036 23.7 21.996C23.7 19.956 22.04 18.296 20 18.296ZM27.5 23.057L26.701 23.011C26.437 22.998 26.237 23.163 26.186 23.4C26.027 24.101 25.752 24.766 25.366 25.377C25.235 25.584 25.273 25.854 25.456 26.017L26.054 26.55L24.554 28.049L24.023 27.455C23.86 27.272 23.589 27.234 23.384 27.365C22.773 27.75 22.107 28.026 21.404 28.185C21.166 28.238 21.002 28.457 21.016 28.701L21.061 29.496H18.939L18.984 28.7C18.998 28.457 18.834 28.238 18.596 28.184C17.894 28.025 17.229 27.749 16.619 27.363C16.412 27.234 16.142 27.271 15.979 27.454L15.447 28.049L13.946 26.549L14.542 26.018C14.725 25.855 14.762 25.585 14.632 25.378C14.248 24.77 13.973 24.104 13.813 23.4C13.76 23.163 13.568 23.008 13.298 23.011L12.5 23.057V20.935L13.301 20.981C13.554 20.992 13.763 20.831 13.816 20.592C13.976 19.892 14.251 19.228 14.637 18.618C14.768 18.412 14.729 18.141 14.547 17.978L13.946 17.443L15.447 15.943L15.981 16.542C16.144 16.723 16.414 16.763 16.621 16.632C17.231 16.248 17.896 15.973 18.596 15.814C18.834 15.761 18.998 15.542 18.984 15.298L18.939 14.496H21.061L21.016 15.299C21.002 15.543 21.166 15.761 21.404 15.815C22.104 15.974 22.769 16.249 23.378 16.633C23.584 16.764 23.856 16.727 24.018 16.543L24.553 15.943L26.054 17.443L25.455 17.977C25.272 18.139 25.234 18.41 25.365 18.617C25.75 19.226 26.025 19.891 26.185 20.592C26.238 20.831 26.462 20.992 26.7 20.981L27.5 20.935V23.057ZM27.972 19.907L27.054 19.959C26.902 19.434 26.692 18.928 26.428 18.449L27.114 17.836C27.217 17.745 27.277 17.615 27.281 17.478C27.285 17.34 27.232 17.207 27.135 17.11L24.886 14.861C24.789 14.765 24.659 14.719 24.518 14.715C24.381 14.719 24.251 14.779 24.159 14.882L23.545 15.571C23.066 15.306 22.562 15.097 22.037 14.946L22.089 14.024C22.097 13.887 22.048 13.752 21.953 13.653C21.858 13.553 21.728 13.496 21.59 13.496H18.41C18.272 13.496 18.142 13.553 18.047 13.653C17.952 13.752 17.903 13.887 17.911 14.024L17.963 14.945C17.438 15.096 16.934 15.305 16.454 15.57L15.841 14.882C15.749 14.779 15.619 14.719 15.482 14.715C15.354 14.723 15.212 14.765 15.114 14.861L12.865 17.11C12.768 17.207 12.715 17.34 12.719 17.478C12.723 17.615 12.783 17.745 12.886 17.836L13.574 18.45C13.309 18.929 13.1 19.435 12.947 19.959L12.028 19.907C11.909 19.904 11.757 19.948 11.656 20.042C11.557 20.137 11.5 20.268 11.5 20.406V23.586C11.5 23.724 11.557 23.855 11.656 23.949C11.757 24.044 11.896 24.094 12.028 24.085L12.944 24.033C13.096 24.56 13.305 25.066 13.569 25.545L12.886 26.156C12.783 26.248 12.723 26.377 12.719 26.515C12.715 26.652 12.768 26.785 12.865 26.882L15.114 29.131C15.212 29.228 15.351 29.288 15.482 29.277C15.619 29.273 15.749 29.213 15.841 29.11L16.451 28.426C16.931 28.692 17.437 28.902 17.963 29.054L17.911 29.968C17.903 30.105 17.952 30.24 18.047 30.339C18.142 30.439 18.272 30.496 18.41 30.496H21.59C21.728 30.496 21.858 30.439 21.953 30.339C22.048 30.24 22.097 30.105 22.089 29.968L22.037 29.054C22.564 28.903 23.07 28.693 23.551 28.427L24.159 29.11C24.25 29.213 24.38 29.273 24.518 29.277C24.662 29.291 24.789 29.229 24.886 29.131L27.135 26.882C27.232 26.785 27.285 26.652 27.281 26.515C27.277 26.377 27.217 26.247 27.114 26.156L26.429 25.544C26.694 25.064 26.904 24.558 27.055 24.033L27.972 24.085C28.11 24.094 28.243 24.044 28.344 23.949C28.443 23.855 28.5 23.724 28.5 23.586V20.406C28.5 20.268 28.443 20.137 28.344 20.042C28.243 19.948 28.097 19.904 27.972 19.907Z" fill="#E7157B"/>
</g>
<rect x="0.5" y="0.5" width="39" height="39" stroke="#E7157B"/>
<defs>
<clipPath id="clip0_23298_4115">
<rect width="40" height="40" fill="white"/>
</clipPath>
</defs>
</svg>
