<svg xmlns="http://www.w3.org/2000/svg" xmlns:svg="http://www.w3.org/2000/svg" xmlns:xlink="http://www.w3.org/1999/xlink" id="Layer_1" x="0" y="0" enable-background="new 0 0 59.3 44.5" version="1.1" viewBox="0 0 59.3 44.5" xml:space="preserve"><style type="text/css">.st0{fill:#00b39f}.st1{fill:#00d3a9}</style><g><path d="M45.5,297c-2.3,0-4.5,0.6-6.4,1.6c-0.2,3.2-2,6.1-4.6,7.6c4,1.3,7.3,4.1,9.2,7.7h14.5c0.6,0,1.1-0.5,1.1-1.1 v-2.1C59.3,303.2,53.1,297,45.5,297z" class="st0" transform="translate(0,-280.06665)"/><path d="M13.8,297C6.2,297,0,303.2,0,310.8v2.1c0,0.6,0.5,1.1,1.1,1.1h14.6c1.9-3.6,5.2-6.4,9.2-7.7 c-2.7-1.6-4.5-4.4-4.7-7.7C18.2,297.6,16.1,297,13.8,297L13.8,297z" class="st0" transform="translate(0,-280.06665)"/><path d="M29.6,290.7c-4.1,0-7.4,3.3-7.4,7.4s3.3,7.4,7.4,7.4c4.1,0,7.4-3.3,7.4-7.4C37,294,33.7,290.7,29.6,290.7z" class="st1" transform="translate(0,-280.06665)"/><path d="M29.6,307.6c-7.6,0-13.8,6.2-13.8,13.8v2.1c0,0.6,0.5,1.1,1.1,1.1c0,0,0,0,0,0h25.4c0.6,0,1.1-0.5,1.1-1.1 c0,0,0,0,0,0v-2.1C43.4,313.7,37.2,307.6,29.6,307.6z" class="st1" transform="translate(0,-280.06665)"/><path d="M45.5,280.1c-4.1,0-7.4,3.3-7.4,7.4s3.3,7.4,7.4,7.4c4.1,0,7.4-3.3,7.4-7.4S49.6,280.1,45.5,280.1z" class="st0" transform="translate(0,-280.06665)"/><path d="M13.8,280.1c-4.1,0-7.4,3.3-7.4,7.4s3.3,7.4,7.4,7.4c4.1,0,7.4-3.3,7.4-7.4S17.8,280.1,13.8,280.1z" class="st0" transform="translate(0,-280.06665)"/></g></svg>