<svg width="40" height="40" viewBox="0 0 40 40" fill="none" xmlns="http://www.w3.org/2000/svg">
<g clip-path="url(#clip0_23298_3873)">
<path d="M40 0H0V40H40V0Z" fill="#01A88D" fill-opacity="0.12"/>
<path fill-rule="evenodd" clip-rule="evenodd" d="M20.9846 27H33.9846V26H20.9846V27ZM20.9846 15H33.9846V14H20.9846V15ZM20.9846 23H27.9846V22H20.9846V23ZM14.3916 26.923L14.0486 27.862C15.7806 28.498 17.1086 29.661 17.7126 31H7.34061C7.87261 29.941 8.95961 28.839 10.4186 27.925C11.3036 27.371 12.2686 26.834 13.2026 26.316C14.6666 25.502 16.0506 24.734 17.0056 23.966C18.5536 22.723 19.1836 21.099 18.9306 19.002V19H30.9846V18H18.6206C17.7796 16.268 15.5286 14.969 14.4726 14.437L14.0236 15.331C15.3356 15.991 16.7416 16.963 17.4626 18H10.9846V19H17.9056C17.9136 19.041 17.9336 19.082 17.9386 19.123C18.1496 20.871 17.6536 22.163 16.3786 23.187C15.4896 23.901 14.1426 24.649 12.7166 25.442C11.7716 25.966 10.7966 26.509 9.88661 27.078C7.81961 28.373 6.38661 30.07 6.05361 31.617C6.03461 31.709 5.99461 31.9 6.00061 34.001L7.00061 33.999C6.99661 32.768 7.00961 32.233 7.02061 32H18.0076C18.0186 32.238 18.0296 32.776 18.0126 33.993L19.0126 34.007C19.0416 31.94 18.9926 31.707 18.9736 31.618C18.5476 29.603 16.7926 27.804 14.3916 26.923ZM6.02161 7.142V6H7.02161V7.164C7.02061 7.203 7.01961 7.523 7.14661 7.991H17.9476C17.9846 7.755 17.9846 7.602 17.9836 7.581V6H18.9836V7.562C18.9876 7.642 19.0616 10.048 16.3836 12.018C15.3536 12.775 13.8616 13.516 12.5446 14.169C11.6906 14.592 10.8836 14.992 10.3396 15.33C8.95161 16.19 7.25861 17.547 7.06761 19.123C6.93061 20.26 7.09861 21.201 7.57861 22.004H13.9846V23.004H8.42461C8.49261 23.065 8.55361 23.128 8.62761 23.187C8.94561 23.443 9.51661 23.817 10.1786 24.25L10.8176 24.67L10.2666 25.504L9.63161 25.087C8.94761 24.64 8.35761 24.253 8.00061 23.966C6.45261 22.722 5.82261 21.099 6.07561 19.002C6.31261 17.033 8.23861 15.456 9.81161 14.48C10.3976 14.117 11.2246 13.707 12.0996 13.273C13.3806 12.638 14.8316 11.918 15.7926 11.212C16.8156 10.459 17.3486 9.655 17.6406 8.991H7.55761C7.87861 9.566 8.39061 10.208 9.21361 10.813C9.42561 10.969 9.94461 11.28 10.3856 11.546C10.6416 11.7 10.8736 11.839 11.0106 11.928L10.4736 12.771C10.3406 12.686 10.1176 12.551 9.87061 12.403C9.39561 12.117 8.85861 11.793 8.62161 11.619C5.94361 9.649 6.01761 7.244 6.02161 7.142Z" fill="#01A88D"/>
</g>
<rect x="0.5" y="0.5" width="39" height="39" stroke="#01A88D"/>
<defs>
<clipPath id="clip0_23298_3873">
<rect width="40" height="40" fill="white"/>
</clipPath>
</defs>
</svg>
