<svg width="40" height="40" viewBox="0 0 40 40" fill="none" xmlns="http://www.w3.org/2000/svg">
<g clip-path="url(#clip0_23296_3619)">
<path d="M40 0H0V40H40V0Z" fill="#C925D1" fill-opacity="0.12"/>
<path fill-rule="evenodd" clip-rule="evenodd" d="M21 32.4907V29.5007H20V32.4907L9 26.1397V13.8497L12.757 15.9377L13.243 15.0638L9.54 13.0057L20.5 7.06975L31.46 13.0068L27.757 15.0638L28.243 15.9377L32 13.8507V26.1397L21 32.4907ZM32.737 12.5608L20.738 6.06075C20.59 5.97975 20.41 5.97975 20.262 6.06075L8.262 12.5608C8.101 12.6488 8 12.8167 8 13.0007V26.4287C8 26.6077 8.096 26.7727 8.25 26.8617L20.25 33.7897C20.327 33.8337 20.414 33.8568 20.5 33.8568C20.586 33.8568 20.673 33.8337 20.75 33.7897L32.749 26.8617C32.903 26.7727 32.999 26.6077 32.999 26.4287V13.0007C32.999 12.8167 32.898 12.6488 32.737 12.5608ZM21 26.6637V19.7927L26 16.9028V23.9767L21 26.6637ZM15 16.9028L20 19.7927V26.6637L15 23.9767V16.9028ZM20.5 13.6187L25.258 16.1768L20.5 18.9268L15.742 16.1768L20.5 13.6187ZM26.736 15.8357L20.736 12.6117C20.59 12.5327 20.41 12.5327 20.264 12.6117L14.264 15.8357C14.102 15.9227 14 16.0917 14 16.2757V24.2757C14 24.4597 14.102 24.6297 14.264 24.7167L20.264 27.9408C20.337 27.9808 20.419 28.0007 20.5 28.0007C20.581 28.0007 20.663 27.9808 20.736 27.9408L26.736 24.7167C26.898 24.6297 27 24.4597 27 24.2757V16.2757C27 16.0917 26.898 15.9227 26.736 15.8357Z" fill="#C925D1"/>
</g>
<rect x="0.5" y="0.5" width="39" height="39" stroke="#C925D1"/>
<defs>
<clipPath id="clip0_23296_3619">
<rect width="40" height="40" fill="white"/>
</clipPath>
</defs>
</svg>
