<svg width="24px" height="24px" viewBox="0 0 24 24" fill="none" xmlns="http://www.w3.org/2000/svg">
<path d="M3.00007 13.0005L2.32007 12.7305V17.3705H4.45007V13.5805C3.92007 13.4105 3.43007 13.2105 3.00007 13.0005Z" fill="#DDDDDD"/>
<path d="M3.75 10.9995L4.43 11.2695V2.26953H2.25V10.4695C2.77 10.6195 3.27 10.8195 3.75 10.9995Z" fill="white"/>
<path d="M7.67008 12.0003C8.03553 11.9968 8.40008 11.9633 8.76008 11.9003V6.57031H6.58008V11.9203C6.94113 11.9721 7.30533 11.9989 7.67008 12.0003Z" fill="white"/>
<path d="M7.67008 14.1899C7.30592 14.1897 6.94205 14.1697 6.58008 14.1299V21.7499H8.76008V14.1299C8.39811 14.1697 8.03423 14.1897 7.67008 14.1899Z" fill="#DDDDDD"/>
<path d="M11.5999 11.0004C12.0799 10.8104 12.5999 10.6104 13.0799 10.4404V4.44043H10.9399V11.2904C11.1399 11.1904 11.3699 11.1104 11.5999 11.0004Z" fill="white"/>
<path d="M12.3899 13.0002C11.8999 13.1902 11.3899 13.3902 10.8999 13.5602V19.5602H13.0799V12.7402C12.8599 12.8402 12.6299 12.9302 12.3899 13.0002Z" fill="#DDDDDD"/>
<path d="M16.33 9.84C16.6945 9.83872 17.0587 9.86211 17.42 9.91V2.25H15.24V9.92C15.601 9.86814 15.9652 9.84141 16.33 9.84Z" fill="white"/>
<path d="M16.33 12C15.9648 11.9997 15.6002 12.0299 15.24 12.09V17.37H17.42V12.11C17.0603 12.0436 16.6957 12.0068 16.33 12Z" fill="#DDDDDD"/>
<path d="M20.2501 13.0005L19.5701 12.7305V21.7305H21.7501V13.5805C21.2301 13.4105 20.7401 13.2105 20.2501 13.0005Z" fill="#DDDDDD"/>
<path d="M21.0501 11.0003L21.7401 11.2703V6.57031H19.5601V10.4503C20.0801 10.6203 20.5701 10.8203 21.0501 11.0003Z" fill="white"/>
</svg>
