<svg width="24" height="24" viewBox="0 0 24 24" fill="none" xmlns="http://www.w3.org/2000/svg">
<path d="M6.62469 8.1432L6.70776 8.20294L11.6964 12.0912C11.7824 12.0793 11.8691 12.073 11.956 12.0724C12.7773 12.0722 13.5134 12.5751 13.8061 13.3363C14.0988 14.0976 13.8873 14.959 13.2745 15.5015C12.6616 16.0439 11.7748 16.1546 11.0455 15.7798C10.3649 15.4299 9.95352 14.7249 9.97762 13.9743L9.98951 13.8129L9.98828 13.8115L6.13681 8.75591C5.70661 8.19119 6.07901 7.78382 6.62469 8.1432ZM21.1636 14.1579C21.6255 14.1579 22 14.5294 22 14.9876C22 15.4458 21.6255 15.8173 21.1636 15.8173C20.7017 15.8173 20.3272 15.4458 20.3272 14.9876C20.3272 14.5294 20.7017 14.1579 21.1636 14.1579ZM4.84157 9.21482L5.80492 10.5382C4.69189 11.8458 3.93052 13.4115 3.59171 15.0895C3.53742 15.3719 3.33392 15.6034 3.05925 15.6952C2.78458 15.7869 2.48137 15.7248 2.26592 15.5325C2.05046 15.3402 1.95619 15.0476 2.01927 14.767C2.43516 12.6967 3.41073 10.7775 4.84157 9.21482ZM20.0662 11.1451C20.5281 11.1451 20.9026 11.5166 20.9026 11.9748C20.9026 12.433 20.5281 12.8045 20.0662 12.8045C19.6042 12.8045 19.2298 12.433 19.2298 11.9748C19.2298 11.5166 19.6042 11.1451 20.0662 11.1451ZM18.1026 8.57062C18.5645 8.57062 18.939 8.94208 18.939 9.40029C18.939 9.8585 18.5645 10.23 18.1026 10.23C17.6406 10.23 17.2662 9.8585 17.2662 9.40029C17.2662 8.94208 17.6406 8.57062 18.1026 8.57062ZM15.3765 6.74917C15.8384 6.74917 16.2129 7.12063 16.2129 7.57884C16.2129 8.03705 15.8384 8.40851 15.3765 8.40851C14.9146 8.40851 14.5401 8.03705 14.5401 7.57884C14.5401 7.12063 14.9146 6.74917 15.3765 6.74917ZM9.09942 6.547C9.56135 6.547 9.93582 6.91845 9.93582 7.37667C9.93582 7.83488 9.56135 8.20634 9.09942 8.20634C8.63748 8.20634 8.26301 7.83488 8.26301 7.37667C8.26301 6.91845 8.63748 6.547 9.09942 6.547ZM12.2527 6C12.7146 6 13.0891 6.37146 13.0891 6.82967C13.0891 7.28788 12.7146 7.65934 12.2527 7.65934C11.7908 7.65934 11.4163 7.28788 11.4163 6.82967C11.4163 6.37146 11.7908 6 12.2527 6Z" fill="white"/>
</svg>
