<svg version="1.0" xmlns="http://www.w3.org/2000/svg"
width="18" height="18" viewBox="0 0 128 121" preserveAspectRatio="xMidYMid meet">
<g transform="translate(0.000000,121.000000) scale(0.100000,-0.100000)"
fill="#ffffff" stroke="none">
<path d="M454 926 c-60 -12 -114 -38 -114 -55 0 -13 249 -231 276 -241 15 -6
33 -6 48 0 27 10 276 228 276 241 0 18 -54 43 -118 55 -83 16 -286 16 -368 0z"/>
<path d="M340 726 c0 -45 0 -45 121 -153 66 -59 133 -114 150 -122 41 -21 64
-7 208 122 121 108 121 108 121 153 0 52 -2 52 -75 -17 -150 -140 -188 -169
-225 -169 -37 0 -75 29 -225 169 -73 69 -75 69 -75 17z"/>
<path d="M340 549 c0 -41 4 -49 58 -100 31 -31 92 -86 134 -123 106 -90 110
-90 240 23 159 137 170 151 166 199 l-3 41 -128 -114 c-70 -63 -138 -117 -151
-121 -39 -9 -51 0 -288 215 l-28 25 0 -45z"/>
</g>
</svg>