<svg width="40" height="40" viewBox="0 0 40 40" fill="none" xmlns="http://www.w3.org/2000/svg">
<g clip-path="url(#clip0_23298_3969)">
<path d="M40 0H0V40H40V0Z" fill="#01A88D" fill-opacity="0.12"/>
<path fill-rule="evenodd" clip-rule="evenodd" d="M29 24H30V21H29V24ZM32 29H30.5C30.224 29 30 28.776 30 28.5V27H28V28.5C28 28.776 27.776 29 27.5 29H26V31H27.5C27.776 31 28 31.224 28 31.5V33H30V31.5C30 31.224 30.224 31 30.5 31H32V29ZM33 28.5V31.5C33 31.776 32.776 32 32.5 32H31V33.5C31 33.776 30.776 34 30.5 34H27.5C27.224 34 27 33.776 27 33.5V32H25.5C25.224 32 25 31.776 25 31.5V28.5C25 28.224 25.224 28 25.5 28H27V26.5C27 26.224 27.224 26 27.5 26H30.5C30.776 26 31 26.224 31 26.5V28H32.5C32.776 28 33 28.224 33 28.5ZM17 10H23V7H17V10ZM16 10.5V6.5C16 6.224 16.224 6 16.5 6H23.5C23.776 6 24 6.224 24 6.5V10.5C24 10.776 23.776 11 23.5 11H16.5C16.224 11 16 10.776 16 10.5ZM11 8.738C11 8.331 11.331 8 11.738 8H15V7H11.738C10.78 7 10 7.78 10 8.738V16H11V8.738ZM29 8.738V16H30V8.738C30 7.78 29.22 7 28.262 7H25V8H28.262C28.669 8 29 8.331 29 8.738ZM11 32.262V21H10V32.262C10 33.22 10.78 34 11.738 34H25V33H11.738C11.331 33 11 32.669 11 32.262ZM25.299 18L23.563 13.373C23.494 13.186 23.32 13.059 23.122 13.048C22.926 13.036 22.738 13.146 22.648 13.324L19.924 18.772L17.312 15.114C17.213 14.977 17.038 14.891 16.885 14.905C16.716 14.912 16.563 15.003 16.476 15.147L14.765 18H6V19H15.048C15.224 19 15.387 18.908 15.477 18.757L16.94 16.316L19.593 20.029C19.688 20.161 19.839 20.238 20 20.238C20.013 20.238 20.026 20.238 20.039 20.237C20.214 20.223 20.369 20.119 20.447 19.962L23.03 14.797L24.484 18.675C24.558 18.871 24.744 19 24.952 19H34V18H25.299ZM13 27H21V26H13V27ZM13 30H21V29H13V30Z" fill="#01A88D"/>
</g>
<rect x="0.5" y="0.5" width="39" height="39" stroke="#01A88D"/>
<defs>
<clipPath id="clip0_23298_3969">
<rect width="40" height="40" fill="white"/>
</clipPath>
</defs>
</svg>
