<svg width="40" height="40" viewBox="0 0 40 40" xmlns="http://www.w3.org/2000/svg">  <g id="Icon-Architecture/32/Arch_Amazon-GameLift_32" stroke="none" stroke-width="1" fill="none" fill-rule="evenodd">  <g id="Icon-Service/32/Amazon-GameLift_32" transform="translate(6.000000, 6.000000)" fill="#FFFFFF"> <path d="M23.752,19.498 C23.752,19.084 24.088,18.748 24.502,18.748 C24.916,18.748 25.252,19.084 25.252,19.498 C25.252,19.912 24.916,20.248 24.502,20.248 C24.088,20.248 23.752,19.912 23.752,19.498 L23.752,19.498 Z M26.683,26.716 C26.496,26.907 26.227,27 25.861,27 C24.879,27 23.72,24.23 23.097,22.741 C23.089,22.723 23.083,22.707 23.075,22.689 C23.511,22.885 23.992,23 24.5,23 C25.48,23 26.364,22.592 27.000012,21.941 L27.000012,25.841 C27.000012,25.846 27.007,26.385 26.683,26.716 L26.683,26.716 Z M14.14,27 C13.774,27 13.504,26.907 13.318,26.716 C12.993,26.385 12.9999881,25.846 12.9999881,25.827 L12.9999881,21.941 C13.636,22.592 14.521,23 15.5,23 C16.009,23 16.489,22.885 16.926,22.689 C16.918,22.707 16.911,22.723 16.904,22.741 C16.281,24.23 15.121,27 14.14,27 L14.14,27 Z M15.5,17 C16.879,17 18,18.121 18,19.5 C18,20.878 16.879,22 15.5,22 C14.121,22 13,20.878 13,19.5 C13,18.121 14.121,17 15.5,17 L15.5,17 Z M21.351,21 L18.649,21 C18.868,20.543 19,20.039 19,19.5 C19,18.961 18.868,18.456 18.649,18 L21.351,18 C21.133,18.456 21,18.961 21,19.5 C21,20.039 21.133,20.543 21.351,21 L21.351,21 Z M24.5,17 C25.879,17 27,18.121 27,19.5 C27,20.878 25.879,22 24.5,22 C23.121,22 22,20.878 22,19.5 C22,18.121 23.121,17 24.5,17 L24.5,17 Z M28,25.827 L28,19.5 C28,17.57 26.43,16 24.5,16 C23.55,16 22.69,16.383 22.059,17 L17.942,17 C17.311,16.383 16.45,16 15.5,16 C13.571,16 12,17.57 12,19.5 L12,25.81 C11.997,25.907 11.986,26.777 12.594,27.406 C12.975,27.8 13.494,28 14.14,28 C15.787,28 16.918,25.298 17.826,23.128 C18.004,22.702 18.166,22.314 18.313,22 L21.688,22 C21.834,22.314 21.996,22.702 22.174,23.128 C23.082,25.298 24.213,28 25.861,28 C26.506,28 27.026,27.8 27.407,27.406 C28.015,26.777 28.003,25.907 28,25.827 L28,25.827 Z M15,20 L14,20 L14,19 L15,19 L15,18 L16,18 L16,19 L17,19 L17,20 L16,20 L16,21 L15,21 L15,20 Z M3.723,18.369 C4.484,17.966 5.356,17.632 6.312,17.371 C6.839,19.031 7.579,20.401 8.469,21.343 C6.62,20.801 4.99,19.756 3.723,18.369 L3.723,18.369 Z M3.075,17.585 C1.873,15.978 1.128,14.016 1.026,11.883 L5.454,11.883 C5.49,13.513 5.695,15.041 6.039,16.411 C4.94,16.712 3.939,17.106 3.075,17.585 L3.075,17.585 Z M3.075,5.182 C3.939,5.661 4.939,6.055 6.039,6.356 C5.695,7.726 5.49,9.254 5.454,10.883 L1.026,10.883 C1.128,8.751 1.872,6.789 3.075,5.182 L3.075,5.182 Z M8.469,1.424 C7.578,2.366 6.839,3.736 6.311,5.396 C5.356,5.136 4.483,4.803 3.722,4.4 C4.988,3.012 6.62,1.966 8.469,1.424 L8.469,1.424 Z M11.384,1 C13.06,1 14.573,2.861 15.471,5.632 C14.195,5.898 12.815,6.046 11.384,6.046 C9.951,6.046 8.571,5.898 7.297,5.633 C8.195,2.861 9.708,1 11.384,1 L11.384,1 Z M19.044,4.398 C18.284,4.801 17.411,5.135 16.456,5.396 C15.929,3.736 15.189,2.366 14.299,1.424 C16.148,1.966 17.778,3.011 19.044,4.398 L19.044,4.398 Z M19.693,5.182 C20.896,6.789 21.64,8.751 21.742,10.883 L17.313,10.883 C17.277,9.254 17.072,7.725 16.728,6.355 C17.828,6.054 18.829,5.66 19.693,5.182 L19.693,5.182 Z M6.454,10.883 C6.491,9.352 6.69,7.896 7.022,6.594 C8.385,6.884 9.859,7.046 11.384,7.046 C12.907,7.046 14.381,6.884 15.745,6.594 C16.077,7.895 16.276,9.352 16.313,10.883 L6.454,10.883 Z M11,21.714 C9.48,21.454 8.126,19.692 7.297,17.135 C8.572,16.869 9.953,16.72 11.384,16.72 C11.418,16.72 11.45,16.725 11.483,16.725 L11.483,15.723 C11.45,15.723 11.417,15.72 11.384,15.72 C9.861,15.72 8.387,15.882 7.022,16.173 C6.69,14.871 6.491,13.415 6.454,11.883 L16.313,11.883 C16.287,12.97 16.175,14.017 15.996,15 L17.016,15 C17.183,14.016 17.289,12.975 17.313,11.883 L21.742,11.883 C21.69,12.976 21.467,14.022 21.102,15 L22.169,15 C22.552,13.862 22.768,12.649 22.768,11.383 C22.768,5.107 17.661,1.77635684e-15 11.384,1.77635684e-15 C5.107,1.77635684e-15 0,5.107 0,11.383 C0,17.531 4.901,22.543 11,22.748 L11,21.714 Z" id="Fill-3"></path> </g> </g></svg>