<svg width="24" height="24" viewBox="0 0 24 24" fill="none" xmlns="http://www.w3.org/2000/svg">
<path d="M21.74 12.8898L17.62 17.0198L16.56 15.9498L18.88 13.6398H11.26V12.1398H18.88L16.56 9.81977L17.62 8.75977L21.74 12.8898Z" fill="white"/>
<path d="M11.77 4.75977L12.07 5.05977V5.99977L11.77 6.29977C10.7352 6.34734 9.74535 6.73613 8.95481 7.40547C8.16426 8.07481 7.61755 8.98703 7.39999 9.99977L7.26999 10.5098L6.74999 10.5598C5.9691 10.605 5.23207 10.9356 4.67897 11.4887C4.12587 12.0418 3.79527 12.7789 3.74999 13.5598C3.74008 13.6963 3.74008 13.8333 3.74999 13.9698L2.51999 14.9998C2.33606 14.528 2.24112 14.0262 2.23999 13.5198C2.27858 12.4578 2.68287 11.4418 3.38443 10.6437C4.086 9.84552 5.04176 9.31425 6.08999 9.13977C6.45552 7.90492 7.20127 6.81686 8.22108 6.03045C9.2409 5.24405 10.4828 4.79939 11.77 4.75977Z" fill="white"/>
<path d="M14.01 17.4503H6.38001L8.70001 19.7703L7.64001 20.8303L3.51001 16.7003L7.64001 12.5703L8.70001 13.6403L6.38001 15.9503H14.01V17.4503Z" fill="white"/>
<path d="M16.63 7.48977L15.53 8.48977C15.1532 7.81848 14.6086 7.25644 13.9496 6.85857C13.2905 6.46069 12.5396 6.24059 11.77 6.21977V4.75977C12.7427 4.77725 13.6959 5.03581 14.5441 5.51226C15.3923 5.98872 16.109 6.66819 16.63 7.48977Z" fill="#DDDDDD"/>
</svg>
