<svg width="40" height="40" viewBox="0 0 40 40" fill="none" xmlns="http://www.w3.org/2000/svg">
<g clip-path="url(#clip0_23296_3609)">
<path d="M40 0H0V40H40V0Z" fill="#C925D1" fill-opacity="0.12"/>
<path fill-rule="evenodd" clip-rule="evenodd" d="M14 14H17V13H14V14ZM18.952 29.799L18.022 29.433L21.611 20.307L22.541 20.673L18.952 29.799ZM23.195 27.366L25.848 25.04L23.198 22.743L23.853 21.987L26.936 24.66C27.045 24.754 27.108 24.892 27.108 25.036C27.108 25.181 27.047 25.318 26.938 25.414L23.855 28.118L23.195 27.366ZM13.617 25.285C13.517 25.188 13.462 25.054 13.465 24.915C13.468 24.775 13.529 24.644 13.634 24.552L16.706 21.836L17.368 22.585L14.7 24.943L17.374 27.537L16.679 28.255L13.617 25.285ZM33 13H19V14H33V15.251C33 16.216 32.216 17 31.251 17H9.108C7.946 17 7 16.054 7 14.891V14H12V13H7V9.109C7 7.946 7.946 7 9.108 7H31.012C32.108 7 33 7.892 33 8.989V13ZM11 33H29V18H11V33ZM31.012 6H9.108C7.395 6 6 7.395 6 9.109V14.891C6 16.605 7.395 18 9.108 18H10V33.5C10 33.776 10.224 34 10.5 34H29.5C29.776 34 30 33.776 30 33.5V18H31.251C32.767 18 34 16.767 34 15.251V8.989C34 7.341 32.659 6 31.012 6Z" fill="#C925D1"/>
</g>
<rect x="0.5" y="0.5" width="39" height="39" stroke="#C925D1"/>
<defs>
<clipPath id="clip0_23296_3609">
<rect width="40" height="40" fill="white"/>
</clipPath>
</defs>
</svg>
