<svg width="40" height="40" viewBox="0 0 40 40" fill="none" xmlns="http://www.w3.org/2000/svg">
<g clip-path="url(#clip0_23300_4284)">
<path d="M40 0H0V40H40V0Z" fill="#01A88D" fill-opacity="0.12"/>
<path fill-rule="evenodd" clip-rule="evenodd" d="M31.7434 29.3087L25.2336 22.9881C24.6375 23.7763 23.9268 24.474 23.1247 25.0612L29.4465 31.5987C29.6485 31.7988 29.8958 31.8575 30.2155 31.7769C30.5603 31.6893 30.9523 31.4415 31.3192 31.0772C31.7313 30.6692 32.3365 29.8959 31.7434 29.3087ZM17.021 26.0643C22.1134 26.0643 26.2559 22.0049 26.2559 17.0139C26.2559 12.0408 22.1134 7.99522 17.021 7.99522C11.9648 7.99522 8.00522 11.9572 8.00522 17.0139C8.00522 22.0895 11.9648 26.0643 17.021 26.0643ZM32.0299 31.7809C31.5313 32.2755 30.9905 32.6079 30.4658 32.7412C30.2949 32.785 30.126 32.8069 29.9622 32.8069C29.4957 32.8069 29.0685 32.6318 28.7278 32.2944L22.2743 25.6215C20.7353 26.5281 18.943 27.0596 17.021 27.0596C11.4018 27.0596 7 22.6478 7 17.0139C7 11.3989 11.4018 7 17.021 7C22.6673 7 27.2611 11.4924 27.2611 17.0139C27.2611 18.8918 26.7234 20.6444 25.8066 22.1492L32.4511 28.6021C33.3136 29.455 33.1497 30.6722 32.0299 31.7809ZM23.1669 17.0139C23.1669 13.6719 20.4669 11.0535 17.021 11.0535C13.6415 11.0535 11.0942 13.6162 11.0942 17.0139C11.0942 20.4304 13.6415 23.006 17.021 23.006C20.4669 23.006 23.1669 20.3747 23.1669 17.0139ZM24.1721 17.0139C24.1721 20.8673 20.9635 24.0013 17.021 24.0013C13.1338 24.0013 10.089 20.932 10.089 17.0139C10.089 13.0489 13.0695 10.0583 17.021 10.0583C21.0308 10.0583 24.1721 13.1136 24.1721 17.0139ZM20.5976 13.0201H14.0054V14.0153H20.095V19.9995H21.1002V13.5177C21.1002 13.242 20.875 13.0201 20.5976 13.0201ZM14.0054 20.0313H19.0314V19.0361H14.0054V20.0313ZM13.0001 18.0986H19.0314V17.1034H13.0001V18.0986ZM19.0013 32.0048H10.9595V26.966H9.95433V32.5024C9.95433 32.7771 10.1795 33 10.4569 33H19.5039C19.7823 33 20.0065 32.7771 20.0065 32.5024V27.9612H19.0013V32.0048ZM13.0001 16.0505H19.0314V15.0553H13.0001V16.0505Z" fill="#01A88D"/>
</g>
<rect x="0.5" y="0.5" width="39" height="39" stroke="#01A88D"/>
<defs>
<clipPath id="clip0_23300_4284">
<rect width="40" height="40" fill="white"/>
</clipPath>
</defs>
</svg>
