<svg width="40" height="40" viewBox="0 0 40 40" fill="none" xmlns="http://www.w3.org/2000/svg">
<g clip-path="url(#clip0_23296_3686)">
<path d="M40 0H0V40H40V0Z" fill="#8C4FFF" fill-opacity="0.12"/>
<path fill-rule="evenodd" clip-rule="evenodd" d="M29.752 25.498C29.752 25.084 30.088 24.748 30.502 24.748C30.916 24.748 31.252 25.084 31.252 25.498C31.252 25.912 30.916 26.248 30.502 26.248C30.088 26.248 29.752 25.912 29.752 25.498ZM32.683 32.716C32.496 32.907 32.227 33 31.861 33C30.879 33 29.72 30.23 29.097 28.741C29.089 28.723 29.083 28.707 29.075 28.689C29.511 28.885 29.992 29 30.5 29C31.48 29 32.364 28.592 33 27.941V31.841C33 31.846 33.007 32.385 32.683 32.716ZM20.14 33C19.774 33 19.504 32.907 19.318 32.716C18.993 32.385 19 31.846 19 31.827V27.941C19.636 28.592 20.521 29 21.5 29C22.009 29 22.489 28.885 22.926 28.689C22.918 28.707 22.911 28.723 22.904 28.741C22.281 30.23 21.121 33 20.14 33ZM21.5 23C22.879 23 24 24.121 24 25.5C24 26.878 22.879 28 21.5 28C20.121 28 19 26.878 19 25.5C19 24.121 20.121 23 21.5 23ZM27.351 27H24.649C24.868 26.543 25 26.039 25 25.5C25 24.961 24.868 24.456 24.649 24H27.351C27.133 24.456 27 24.961 27 25.5C27 26.039 27.133 26.543 27.351 27ZM30.5 23C31.879 23 33 24.121 33 25.5C33 26.878 31.879 28 30.5 28C29.121 28 28 26.878 28 25.5C28 24.121 29.121 23 30.5 23ZM34 31.827V25.5C34 23.57 32.43 22 30.5 22C29.55 22 28.69 22.383 28.059 23H23.942C23.311 22.383 22.45 22 21.5 22C19.571 22 18 23.57 18 25.5V31.81C17.997 31.907 17.986 32.777 18.594 33.406C18.975 33.8 19.494 34 20.14 34C21.787 34 22.918 31.298 23.826 29.128C24.004 28.702 24.166 28.314 24.313 28H27.688C27.834 28.314 27.996 28.702 28.174 29.128C29.082 31.298 30.213 34 31.861 34C32.506 34 33.026 33.8 33.407 33.406C34.015 32.777 34.003 31.907 34 31.827ZM21 26H20V25H21V24H22V25H23V26H22V27H21V26ZM7 16V14.73L10.185 12H29.816L33 14.73V16H32.5H28V14.5C28 14.223 27.777 14 27.5 14H24.5C24.224 14 24 14.223 24 14.5V16H16V14.5C16 14.223 15.777 14 15.5 14H12.5C12.224 14 12 14.223 12 14.5V16H7.5H7ZM15 11H25V8H15V11ZM25 19H27V15H25V19ZM13 19H15V15H13V19ZM8 25.5V17H12V19.5C12 19.776 12.224 20 12.5 20H15.5C15.777 20 16 19.776 16 19.5V17H24V19.5C24 19.776 24.224 20 24.5 20H27.5C27.777 20 28 19.776 28 19.5V17H32V20.999H33V17H33.5C33.777 17 34 16.776 34 16.5V14.5C34 14.354 33.937 14.215 33.825 14.12L30.325 11.12C30.235 11.042 30.119 11 30 11H26V7.5C26 7.223 25.777 7 25.5 7H14.5C14.224 7 14 7.223 14 7.5V11H10C9.881 11 9.766 11.042 9.675 11.12L6.175 14.12C6.064 14.215 6 14.354 6 14.5V16.5C6 16.776 6.224 17 6.5 17H7V25.5C7 26.439 7.561 27 8.5 27H17.001V26H8.5C8.117 26 8 25.883 8 25.5Z" fill="#8C4FFF"/>
</g>
<rect x="0.5" y="0.5" width="39" height="39" stroke="#8C4FFF"/>
<defs>
<clipPath id="clip0_23296_3686">
<rect width="40" height="40" fill="white"/>
</clipPath>
</defs>
</svg>
