<svg width="40" height="40" viewBox="0 0 40 40" fill="none" xmlns="http://www.w3.org/2000/svg">
<g clip-path="url(#clip0_23298_3849)">
<path d="M40 0H0V40H40V0Z" fill="#01A88D" fill-opacity="0.12"/>
<path fill-rule="evenodd" clip-rule="evenodd" d="M9 31H12V29H9V31ZM12.5 28H8.5C8.224 28 8 28.224 8 28.5V31.5C8 31.776 8.224 32 8.5 32H12.5C12.776 32 13 31.776 13 31.5V28.5C13 28.224 12.776 28 12.5 28ZM15 31H18V29H15V31ZM18.5 28H14.5C14.224 28 14 28.224 14 28.5V31.5C14 31.776 14.224 32 14.5 32H18.5C18.776 32 19 31.776 19 31.5V28.5C19 28.224 18.776 28 18.5 28ZM31 33H7V10H11V17V25V26H12V25V18.137L17 22.72V25V26H18V25V22.5V18.567L23 22.734V26.5C23 26.776 23.224 27 23.5 27H31V33ZM7 9H11V7H7V9ZM31.5 26H24V22.5C24 22.352 23.935 22.211 23.82 22.116L17.82 17.116C17.672 16.992 17.464 16.965 17.288 17.047C17.112 17.129 17 17.306 17 17.5V21.363L12 16.78V10V9V6.5C12 6.224 11.776 6 11.5 6H6.5C6.224 6 6 6.224 6 6.5V33.5C6 33.776 6.224 34 6.5 34H31.5C31.776 34 32 33.776 32 33.5V26.5C32 26.224 31.776 26 31.5 26ZM32.643 23.039C32.304 23.425 31.762 23.685 31.375 23.345L26.556 19.019C27.139 18.673 27.667 18.246 28.126 17.751L32.785 21.727C32.941 21.864 33.013 22.046 32.998 22.27C32.98 22.524 32.854 22.797 32.643 23.039ZM33.439 20.971L28.756 16.974C29.538 15.844 30 14.476 30 13C30 9.14 26.859 6 23 6C19.141 6 16 9.14 16 13C16 13.358 16.027 13.72 16.082 14.076L17.07 13.924C17.023 13.619 17 13.307 17 13C17 9.691 19.691 7 23 7C26.309 7 29 9.691 29 13C29 16.309 26.309 19 23 19V20C23.916 20 24.789 19.818 25.591 19.497L30.711 24.093C31.026 24.369 31.402 24.503 31.791 24.503C32.348 24.503 32.93 24.228 33.395 23.698C33.75 23.292 33.964 22.809 33.996 22.337C34.031 21.802 33.836 21.318 33.439 20.971Z" fill="#01A88D"/>
</g>
<rect x="0.5" y="0.5" width="39" height="39" stroke="#01A88D"/>
<defs>
<clipPath id="clip0_23298_3849">
<rect width="40" height="40" fill="white"/>
</clipPath>
</defs>
</svg>
