<svg xmlns="http://www.w3.org/2000/svg" viewBox="0.11 1.86 358.28 358.28" style="enable-background:new 0 0 360 360"><style>.st2,.st3{fill-rule:evenodd;clip-rule:evenodd;fill:#bcd918}.st3{fill:#04bdd9}</style><g id="LOGO"><path d="M12.1 8.9h28.3c2.7 0 5 2.2 5 5v28.3c0 2.7-2.2 5-5 5H12.1c-2.7 0-5-2.2-5-5V13.9c.1-2.7 2.3-5 5-5z" class="st2"/><path d="M88.7 8.9h258c2.7 0 5 2.2 5 5v28.3c0 2.7-2.2 5-5 5h-258c-2.7 0-5-2.2-5-5V13.9c0-2.7 2.2-5 5-5z" class="st3"/><path d="M346.7 85.5h-28.3c-2.7 0-5 2.2-5 5v28.3c0 2.8 2.2 5 5 5h28.3c2.7 0 5-2.2 5-5V90.5c0-2.8-2.3-5-5-5z" class="st2"/><path d="M193.6 85.5H12.1c-2.7 0-5 2.3-5 5v28.3c0 2.7 2.2 5 5 5h181.5c2.7 0 5-2.2 5-5V90.5c0-2.8-2.2-5-5-5z" class="st3"/><path d="M270.2 85.5h-28.3c-2.7 0-5 2.2-5 5v28.3c0 2.8 2.2 5 5 5h28.3c2.7 0 5-2.2 5-5V90.5c-.1-2.8-2.3-5-5-5z" class="st2"/><path d="M270.2 162H88.7c-2.7 0-5 2.2-5 5v28.3c0 2.7 2.2 5 5 5h181.5c2.7 0 5-2.2 5-5V167c-.1-2.8-2.3-5-5-5z" class="st3"/><path d="M346.7 162h-28.3c-2.7 0-5 2.2-5 5v28.3c0 2.8 2.2 5 5 5h28.3c2.7 0 5-2.2 5-5V167c0-2.8-2.3-5-5-5zm-306.3 0H12.1c-2.7 0-5 2.2-5 5v28.3c0 2.8 2.2 5 5 5h28.3c2.7 0 5-2.2 5-5V167c0-2.8-2.2-5-5-5zm-28.3 76.5h28.3c2.7 0 5 2.2 5 5v28.3c0 2.7-2.2 5-5 5H12.1c-2.7 0-5-2.2-5-5v-28.3c.1-2.7 2.3-5 5-5z" class="st2"/><path d="M165.2 238.5h181.5c2.7 0 5 2.2 5 5v28.3c0 2.7-2.2 5-5 5H165.2c-2.7 0-5-2.2-5-5v-28.3c0-2.7 2.2-5 5-5z" class="st3"/><path d="M88.7 238.5H117c2.7 0 5 2.2 5 5v28.3c0 2.7-2.2 5-5 5H88.7c-2.7 0-5-2.2-5-5v-28.3c0-2.7 2.2-5 5-5zm258 76.7h-28.3c-2.7 0-5 2.2-5 5v28.3c0 2.8 2.2 5 5 5h28.3c2.7 0 5-2.2 5-5v-28.3c0-2.8-2.3-5-5-5z" class="st2"/><path d="M270.2 315.2h-258c-2.7 0-5 2.2-5 5v28.3c0 2.7 2.2 5 5 5h258c2.7 0 5-2.2 5-5v-28.3c-.1-2.8-2.3-5-5-5z" class="st3"/></g></svg>