<svg width="40" height="40" viewBox="0 0 40 40" fill="none" xmlns="http://www.w3.org/2000/svg">
<g clip-path="url(#clip0_23295_3185)">
<path d="M40 0H0V40H40V0Z" fill="#ED7100" fill-opacity="0.12"/>
<path fill-rule="evenodd" clip-rule="evenodd" d="M24 17.962V16.4376C24 16.1572 23.775 15.9295 23.5 15.9295H16.5C16.225 15.9295 16 16.1572 16 16.4376V17.962V18.9782V21.0106V22.0269V23.5512C16 23.8317 16.225 24.0593 16.5 24.0593H18H19H21H22H23.5C23.775 24.0593 24 23.8317 24 23.5512V22.0269V21.0106V18.9782V17.962ZM25 14.9133H26V15.9295H24.908C24.964 16.0891 25 16.2588 25 16.4376V17.962H26V18.9782H25V21.0106H26V22.0269H25V23.5512C25 23.73 24.964 23.8998 24.908 24.0593H25H26V25.0755H25V26.0918H24V25.0755V24.982C23.843 25.0389 23.676 25.0755 23.5 25.0755H22V26.0918H21V25.0755H19V26.0918H18V25.0755H16.5C16.324 25.0755 16.157 25.0389 16 24.982V25.0755V26.0918H15V25.0755H14V24.0593H15H15.092C15.036 23.8998 15 23.73 15 23.5512V22.0269H14V21.0106H15V18.9782H14V17.962H15V16.4376C15 16.2588 15.036 16.0891 15.092 15.9295H14V14.9133H15V13.8971H16V14.9133V15.0068C16.157 14.9499 16.324 14.9133 16.5 14.9133H18V13.8971H19V14.9133H21V13.8971H22V14.9133H23.5C23.676 14.9133 23.843 14.9499 24 15.0068V14.9133V13.8971H25V14.9133ZM21 31.8365V27.108H20V31.8365L17.881 29.3071L17.119 29.9666L20.5 34L23.881 29.9666L23.119 29.3071L21 31.8365ZM9.176 17.841L11.665 19.9944H6V21.0106H11.665L9.176 23.164L9.824 23.9384L13.795 20.5025L9.824 17.0667L9.176 17.841ZM34 19.9944H28.335L30.824 17.841L30.176 17.0667L26.205 20.5025L30.176 23.9384L30.824 23.164L28.335 21.0106H34V19.9944ZM17.881 10.6939L17.119 10.0344L20.5 6L23.881 10.0344L23.119 10.6939L21 8.16456V12.8808H20V8.16456L17.881 10.6939Z" fill="#ED7100"/>
</g>
<rect x="0.5" y="0.5" width="39" height="39" stroke="#ED7100"/>
<defs>
<clipPath id="clip0_23295_3185">
<rect width="40" height="40" fill="white"/>
</clipPath>
</defs>
</svg>
