<svg width="40" height="40" viewBox="0 0 40 40" fill="none" xmlns="http://www.w3.org/2000/svg">
<g clip-path="url(#clip0_23311_9565)">
<path d="M40 0H0V40H40V0Z" fill="#DD344C" fill-opacity="0.12"/>
<path fill-rule="evenodd" clip-rule="evenodd" d="M17.8324 19.6309C17.9645 19.7501 18.0221 19.9309 17.9844 20.1058L17.4707 22.4676L19.7402 21.0766C19.8991 20.9782 20.0999 20.9782 20.2608 21.0766L22.5134 22.4647L22.0146 20.0979C21.9789 19.926 22.0355 19.7481 22.1647 19.6289L24.1788 17.7877L21.5138 17.273C21.3608 17.2432 21.2306 17.1438 21.1621 17.0028L19.9955 14.6161L18.8022 17.0097C18.7326 17.1478 18.6034 17.2462 18.4524 17.275L15.7954 17.7927L17.8324 19.6309ZM16.2525 23.3947L16.953 20.1754L14.3914 17.8632C14.2513 17.737 14.1956 17.5433 14.2463 17.3614C14.296 17.1806 14.445 17.0435 14.6288 17.0067L18.0212 16.347L19.5553 13.2717C19.6398 13.1028 19.8405 12.9657 20.0025 12.9965C20.1913 12.9975 20.3642 13.1058 20.4466 13.2757L21.9461 16.344L25.3374 16.9998C25.5212 17.0345 25.6703 17.1707 25.7209 17.3525C25.7716 17.5323 25.717 17.7261 25.5788 17.8533L23.045 20.1704L23.7247 23.3927C23.7654 23.5865 23.6869 23.7872 23.525 23.9014C23.36 24.0167 23.1474 24.0217 22.9775 23.9183L19.9995 22.0831L16.9977 23.9233C16.9172 23.973 16.8278 23.9968 16.7374 23.9968C16.637 23.9968 16.5356 23.966 16.4502 23.9054C16.2872 23.7902 16.2097 23.5885 16.2525 23.3947ZM32.9785 10.0951L32.9755 7.99362H6.99365V10.0951H32.9785ZM34 32.5022C34 32.6343 33.9483 32.7605 33.8549 32.8539C33.7615 32.9473 33.6353 33 33.5032 33H29.937V32.0064H33.0064L32.9795 11.0887H6.99365V32.0064H25.9624V33H6.49682C6.36467 33 6.23848 32.9473 6.14507 32.8549C6.05266 32.7615 6 32.6353 6 32.5032V7.49681C6 7.22257 6.22158 7 6.49682 7H33.4714C33.7466 7 33.9682 7.22257 33.9682 7.49681L34 32.5022ZM11.0577 29.9754H15.0323V28.9818H11.0577V29.9754ZM17.0196 29.9983H23.9751V29.0047H17.0196V29.9983ZM11.0577 26.9985H15.0323V26.0049H11.0577V26.9985ZM17.0196 26.9985H27.9497V26.0049H17.0196V26.9985Z" fill="#DD344C"/>
</g>
<rect x="0.5" y="0.5" width="39" height="39" stroke="#DD344C"/>
<defs>
<clipPath id="clip0_23311_9565">
<rect width="40" height="40" fill="white"/>
</clipPath>
</defs>
</svg>
