<svg xmlns="http://www.w3.org/2000/svg" xmlns:xlink="http://www.w3.org/1999/xlink" id="Layer_1" x="0" y="0" version="1.1" viewBox="0 0 522.9 587.4" xml:space="preserve" style="enable-background:new 0 0 522.9 587.4"><style type="text/css">.st0{opacity:.8}.st0,.st1{fill:#fff}</style><title>eks</title><path d="M0.2,287c0-47.7,0.1-95.3-0.1-143c0-5.6,2.1-8.9,6.7-11.6c35.1-20.1,70.1-40.3,105.1-60.6	c25.3-14.6,50.7-29.3,76-43.9c15-8.7,29.9-17.5,45-25.9c2.5-1.4,6.8-2.5,8.6-1.2c2.2,1.5,3.5,5.6,3.6,8.6c0.3,15,0,30,0,45	c0,22.8-0.1,45.7,0.2,68.5c0.1,7-2.4,11.1-8.6,14.7c-37.2,21.1-74.1,42.6-111.2,63.9c-4.2,2.4-6.1,5.4-6.1,10.4	c0.1,50.2,0.1,100.3,0,150.5c0,5,1.7,7.9,6,10.4c43.1,24.8,86.2,49.6,129.2,74.6c4.8,2.8,8.7,3.1,13.8,0.1	c35-20.5,70.2-40.9,105.4-61c16-9.2,11.3-8.6,25.8-0.4c31.5,18,62.7,36.4,94.3,54.3c8.2,4.7,6.1,10.9-0.2,14.5	c-64.8,37.1-129.6,74.4-194.2,111.9c-10.8,6.2-21.7,12.4-32.4,18.8c-3.7,2.2-6.9,2.3-10.7,0.1c-27.1-15.7-54.2-31.2-81.3-46.9	C124.4,509.6,73.7,480.4,23,451.1c-5.6-3.2-11.2-6.6-16.9-9.7C1.7,439,0,435.7,0,430.5C0.2,382.7,0.1,334.9,0.2,287L0.2,287z" class="st0"/><path d="M522.8,274.3c0,42.3,0,84.6,0,127c0,1.8,0.1,3.7-0.1,5.5c-0.4,5.9-4.9,8.5-10.1,5.6	c-13.7-7.6-27.3-15.4-40.8-23.2c-20.3-11.7-40.5-23.7-60.9-35.2c-4.9-2.8-7-6-7-11.8c0.2-43.1,0.1-86.3,0.2-129.5	c0-5.3-1.5-8.6-6.2-11.3c-27.6-15.8-55.1-31.8-82.6-47.7c-10.7-6.2-21.3-12.4-32-18.4c-3.3-1.9-4.5-4.4-4.5-8.1	c0.1-39.7,0-79.3,0.1-119c0-7.6,4.6-10.1,11.2-6.4c24.5,14.1,49,28.3,73.5,42.5c50.6,29.2,101.2,58.4,151.8,87.6	c5.7,3.3,7.8,7,7.7,13.5C522.7,188.3,522.8,231.3,522.8,274.3L522.8,274.3z" class="st1"/><path d="M231.4,271.2c1.4-1.3,3-2.4,4.3-3.8c20.4-20.8,40.7-41.7,61.2-62.4c1.9-1.7,4.2-2.8,6.8-2.9	c8.5-0.3,16.9-0.1,27-0.1c-5.6,5.8-10.2,10.7-14.8,15.5c-19.1,19.7-38.3,39.4-57.5,59c-2.7,2.7-2.8,4.5-0.2,7.4	c24.5,27.2,48.9,54.5,73.2,81.9c1,1.2,1.9,2.4,3.7,4.6c-10.2,0-19.1,0.2-28-0.2c-1.6-0.1-3.4-2-4.7-3.4	c-22.3-24.9-44.6-49.9-66.9-74.8c-1.3-1.4-2.6-2.9-5-5.4c-0.4,2.4-0.7,4.8-0.9,7.2c0,23.5-0.1,47,0.1,70.5c0.1,5-1.3,7-6.5,6.4	c-3.6-0.4-7.3-0.4-11,0c-5,0.5-6.6-1.2-6.5-6.4c0.2-30,0.1-60,0.1-90c0-22.2,0.1-44.3-0.1-66.5c0-4.6,1.3-6.3,5.9-6	c3.8,0.4,7.7,0.4,11.5,0c5-0.5,6.6,1.2,6.5,6.3c-0.3,18.7-0.1,37.3-0.1,56c0,2.1,0.2,4.2,0.3,6.3L231.4,271.2z" class="st0"/></svg>