<?xml version="1.0" encoding="UTF-8"?><!DOCTYPE svg>
<svg width="32" height="32" viewBox="0 0 122 122" fill="none"  xmlns="http://www.w3.org/2000/svg">
<path fill-rule="evenodd" clip-rule="evenodd" d="M34.6666 116.007C4.28693 101.462 -8.55109 65.0398 5.99244 34.6565C12.9766 20.0659 25.47 8.84765 40.7244 3.46957C55.9788 -1.9085 72.7445 -1.00577 87.3334 5.97907C117.713 20.5243 130.551 56.9461 116.008 87.3294C101.464 117.713 65.0465 130.552 34.6666 116.007V116.007Z" fill="#F49322"/>
<path d="M29.4879 41.0047L27.5679 37.7647L38.8959 32.0047L40.8159 35.2447L29.4879 41.0047ZM47.5359 31.8247L45.6159 28.5847L55.7919 23.3647L57.7119 26.6047L47.5359 31.8247Z" fill="white"/>
<path d="M57.9041 57.9246L47.7281 52.8846L49.4561 49.6446L59.6321 54.6846L57.9041 57.9246ZM40.8161 49.4646L30.6401 44.4246L32.3681 41.1846L42.5441 46.2246L40.8161 49.4646Z" fill="white"/>
<path d="M65.3916 57.5651L63.6636 54.3251L74.0316 49.6451L75.7596 52.8851L65.3916 57.5651ZM82.6716 49.6451L80.9436 46.4051L91.3116 41.7251L93.0396 44.9651L82.6716 49.6451Z" fill="white"/>
<path d="M56.7519 100.225L45.2319 94.465L46.9599 91.225L58.4799 96.985L56.7519 100.225ZM39.4719 91.945L29.2959 86.905L31.0239 83.665L41.1999 88.705L39.4719 91.945Z" fill="white"/>
<path d="M29.1042 45.6851H25.2642V59.5451H29.1042V45.6851Z" fill="white"/>
<path d="M62.8957 81.5049H59.0557V95.7249H62.8957V81.5049Z" fill="white"/>
<path d="M27.184 47.1251C25.84 47.1251 24.496 46.5851 23.536 45.6851C22.576 44.7851 22 43.5251 22 42.2651C22 41.0051 22.576 39.7451 23.536 38.8451C25.456 37.0451 28.912 37.0451 30.832 38.8451C31.792 39.7451 32.368 41.0051 32.368 42.2651C32.368 43.5251 31.792 44.7851 30.832 45.6851C29.872 46.5851 28.528 47.1251 27.184 47.1251ZM27.184 41.0051C26.8 41.0051 26.416 41.1851 26.224 41.3651C26.032 41.5451 25.84 41.9051 25.84 42.2651C25.84 42.6251 26.032 42.9851 26.224 43.1651C26.8 43.7051 27.568 43.7051 28.144 43.1651C28.336 42.9851 28.528 42.6251 28.528 42.2651C28.528 41.9051 28.336 41.5451 28.144 41.3651C27.952 41.1851 27.568 41.0051 27.184 41.0051Z" fill="white"/>
<path d="M27.184 87.4449C25.84 87.4449 24.496 86.9049 23.536 86.0049C22.576 85.1049 22 83.8449 22 82.5849C22 81.3249 22.576 80.0649 23.536 79.1649C25.456 77.3649 28.912 77.3649 30.832 79.1649C31.792 80.0649 32.368 81.3249 32.368 82.5849C32.368 83.8449 31.792 85.1049 30.832 86.0049C29.872 86.9049 28.528 87.4449 27.184 87.4449ZM27.184 81.3249C26.8 81.3249 26.416 81.5049 26.224 81.6849C26.032 81.8649 25.84 82.2249 25.84 82.5849C25.84 82.9449 26.032 83.3049 26.224 83.4849C26.8 84.0249 27.568 84.0249 28.144 83.4849C28.336 83.3049 28.528 82.9449 28.528 82.5849C28.528 82.2249 28.336 81.8649 28.144 81.6849C27.952 81.5049 27.568 81.3249 27.184 81.3249Z" fill="white"/>
<path d="M60.976 103.645C59.632 103.645 58.288 103.105 57.328 102.205C56.368 101.305 55.792 100.045 55.792 98.7849C55.792 97.5249 56.368 96.2649 57.328 95.3649C59.44 93.3849 62.704 93.3849 64.624 95.3649C66.736 97.3449 66.736 100.405 64.624 102.205C63.472 103.105 62.32 103.645 60.976 103.645ZM60.976 97.3449C60.592 97.3449 60.208 97.5249 60.016 97.7049C59.44 98.2449 59.44 98.9649 60.016 99.5049C60.592 100.045 61.36 100.045 61.936 99.5049C62.512 98.9649 62.512 98.2449 61.936 97.7049C61.552 97.5249 61.168 97.3449 60.976 97.3449Z" fill="white"/>
<path d="M60.976 63.1449C59.632 63.1449 58.288 62.6049 57.328 61.7049C56.368 60.8049 55.792 59.5449 55.792 58.2849C55.792 57.0249 56.368 55.7649 57.328 54.8649C59.44 52.8849 62.704 52.8849 64.624 54.8649C66.736 56.8449 66.736 59.9049 64.624 61.7049C63.472 62.7849 62.32 63.1449 60.976 63.1449ZM60.976 57.0249C60.592 57.0249 60.208 57.2049 60.016 57.3849C59.44 57.9249 59.44 58.6449 60.016 59.1849C60.592 59.7249 61.36 59.7249 61.936 59.1849C62.512 58.6449 62.512 57.9249 61.936 57.3849C61.552 57.2049 61.168 57.0249 60.976 57.0249Z" fill="white"/>
<path d="M94.192 87.4449C92.848 87.4449 91.504 86.9049 90.544 86.0049C88.432 84.0249 88.432 80.9649 90.544 79.1649C92.464 77.3649 95.92 77.3649 97.84 79.1649C98.8 80.0649 99.376 81.3249 99.376 82.5849C99.376 83.8449 98.8 85.1049 97.84 86.0049C96.88 86.9049 95.536 87.4449 94.192 87.4449ZM94.192 81.3249C93.808 81.3249 93.424 81.5049 93.232 81.6849C92.656 82.2249 92.656 82.9449 93.232 83.4849C93.808 84.0249 94.576 84.0249 95.152 83.4849C95.728 82.9449 95.728 82.2249 95.152 81.6849C94.96 81.5049 94.576 81.3249 94.192 81.3249Z" fill="white"/>
<path d="M94.192 47.1251C92.848 47.1251 91.504 46.5851 90.544 45.6851C88.432 43.7051 88.432 40.6451 90.544 38.8451C92.464 37.0451 95.92 37.0451 97.84 38.8451C99.952 40.8251 99.952 43.8851 97.84 45.6851C96.88 46.5851 95.536 47.1251 94.192 47.1251ZM94.192 41.0051C93.808 41.0051 93.424 41.1851 93.232 41.3651C92.656 41.9051 92.656 42.6251 93.232 43.1651C93.808 43.7051 94.576 43.7051 95.152 43.1651C95.728 42.6251 95.728 41.9051 95.152 41.3651C94.96 41.1851 94.576 41.0051 94.192 41.0051Z" fill="white"/>
<path d="M60.976 28.765C59.632 28.765 58.288 28.225 57.328 27.325C56.368 26.425 55.792 25.165 55.792 23.905C55.792 22.645 56.368 21.385 57.328 20.485C59.44 18.505 62.704 18.505 64.624 20.485C66.736 22.465 66.736 25.525 64.624 27.325C63.472 28.225 62.32 28.765 60.976 28.765ZM60.976 22.645C60.592 22.645 60.208 22.825 60.016 23.005C59.44 23.545 59.44 24.265 60.016 24.805C60.592 25.345 61.36 25.345 61.936 24.805C62.512 24.265 62.512 23.545 61.936 23.005C61.552 22.645 61.168 22.645 60.976 22.645Z" fill="white"/>
<path d="M29.1042 63.145H25.2642V78.625H29.1042V63.145Z" fill="white"/>
<path d="M95.9201 45.6851H92.0801V59.5451H95.9201V45.6851Z" fill="white"/>
<path d="M95.9201 63.145H92.0801V78.625H95.9201V63.145Z" fill="white"/>
<path d="M81.1361 35.0648L83.0561 31.8248L94.0001 37.4048L92.0801 40.6448L81.1361 35.0648ZM62.7041 25.7048L64.6241 22.4648L76.3361 28.4048L74.4161 31.6448L62.7041 25.7048Z" fill="white"/>
<path d="M62.8957 61.7051H59.0557V75.9251H62.8957V61.7051Z" fill="white"/>
<path d="M63.4722 97.165L74.6082 91.765L76.3362 95.005L65.2002 100.405L63.4722 97.165ZM80.1762 89.065L91.1202 83.665L92.8482 86.905L81.9042 92.305L80.1762 89.065Z" fill="white"/>
</svg>