<?xml version="1.0" encoding="UTF-8"?><!DOCTYPE svg>
<svg width="20" height="20" viewBox="0 0 28 30" fill="none" xmlns="http://www.w3.org/2000/svg">
<path d="M3.44033 7.97516L2.78809 6.8745L6.63629 4.91777L7.28854 6.01843L3.44033 7.97516ZM9.5714 4.85662L8.9191 3.75599L12.376 1.9827L13.0282 3.08336L9.5714 4.85662Z" fill="white"/>
<path d="M13.0935 13.723L9.63659 12.0109L10.2236 10.9102L13.6805 12.6224L13.0935 13.723ZM7.28855 10.8491L3.83167 9.13701L4.4187 8.03632L7.87555 9.74841L7.28855 10.8491Z" fill="white"/>
<path d="M15.6371 13.6008L15.0501 12.5002L18.5722 10.9103L19.1592 12.011L15.6371 13.6008ZM21.5073 10.9103L20.9203 9.8097L24.4424 8.21985L25.0294 9.3205L21.5073 10.9103Z" fill="white"/>
<path d="M12.7022 28.0927L8.7887 26.1361L9.3757 25.0354L13.2892 26.9921L12.7022 28.0927ZM6.83198 25.28L3.37512 23.5679L3.96213 22.4672L7.41901 24.1793L6.83198 25.28Z" fill="white"/>
<path d="M3.30997 9.5652H2.00549V14.2735H3.30997V9.5652Z" fill="white"/>
<path d="M14.7893 21.7334H13.4848V26.5641H14.7893V21.7334Z" fill="white"/>
<path d="M2.65771 10.0543C2.20115 10.0543 1.74458 9.8709 1.41846 9.5652C1.09234 9.2594 0.896667 8.83137 0.896667 8.40335C0.896667 7.97532 1.09234 7.54727 1.41846 7.24154C2.0707 6.63008 3.24473 6.63008 3.89696 7.24154C4.2231 7.54727 4.41877 7.97532 4.41877 8.40335C4.41877 8.83137 4.2231 9.2594 3.89696 9.5652C3.57085 9.8709 3.11428 10.0543 2.65771 10.0543ZM2.65771 7.97532C2.52727 7.97532 2.39682 8.03647 2.3316 8.09762C2.26637 8.15876 2.20115 8.28106 2.20115 8.40335C2.20115 8.52564 2.26637 8.64793 2.3316 8.70908C2.52727 8.89252 2.78816 8.89252 2.98383 8.70908C3.04906 8.64793 3.11428 8.52564 3.11428 8.40335C3.11428 8.28106 3.04906 8.15876 2.98383 8.09762C2.91861 8.03647 2.78816 7.97532 2.65771 7.97532Z" fill="white"/>
<path d="M2.65771 23.7512C2.20115 23.7512 1.74458 23.5678 1.41846 23.262C1.09234 22.9563 0.896667 22.5283 0.896667 22.1003C0.896667 21.6722 1.09234 21.2442 1.41846 20.9385C2.0707 20.327 3.24473 20.327 3.89696 20.9385C4.2231 21.2442 4.41877 21.6722 4.41877 22.1003C4.41877 22.5283 4.2231 22.9563 3.89696 23.262C3.57085 23.5678 3.11428 23.7512 2.65771 23.7512ZM2.65771 21.6722C2.52727 21.6722 2.39682 21.7334 2.3316 21.7945C2.26637 21.8557 2.20115 21.9779 2.20115 22.1003C2.20115 22.2226 2.26637 22.3449 2.3316 22.406C2.52727 22.5894 2.78816 22.5894 2.98383 22.406C3.04906 22.3449 3.11428 22.2226 3.11428 22.1003C3.11428 21.9779 3.04906 21.8557 2.98383 21.7945C2.91861 21.7334 2.78816 21.6722 2.65771 21.6722Z" fill="white"/>
<path d="M14.1371 29.2546C13.6806 29.2546 13.224 29.0713 12.8979 28.7654C12.5718 28.4598 12.3761 28.0317 12.3761 27.6036C12.3761 27.1756 12.5718 26.7476 12.8979 26.4418C13.6154 25.7692 14.7241 25.7692 15.3764 26.4418C16.0938 27.1145 16.0938 28.154 15.3764 28.7654C14.9851 29.0713 14.5937 29.2546 14.1371 29.2546ZM14.1371 27.1145C14.0067 27.1145 13.8762 27.1756 13.811 27.2368C13.6154 27.4202 13.6154 27.6648 13.811 27.8482C14.0067 28.0317 14.2676 28.0317 14.4633 27.8482C14.6589 27.6648 14.6589 27.4202 14.4633 27.2368C14.3328 27.1756 14.2024 27.1145 14.1371 27.1145Z" fill="white"/>
<path d="M14.1371 15.4964C13.6806 15.4964 13.224 15.313 12.8979 15.0073C12.5718 14.7015 12.3761 14.2735 12.3761 13.8455C12.3761 13.4174 12.5718 12.9894 12.8979 12.6837C13.6154 12.011 14.7241 12.011 15.3764 12.6837C16.0938 13.3563 16.0938 14.3958 15.3764 15.0073C14.9851 15.3742 14.5937 15.4964 14.1371 15.4964ZM14.1371 13.4174C14.0067 13.4174 13.8762 13.4786 13.811 13.5397C13.6154 13.7232 13.6154 13.9678 13.811 14.1512C14.0067 14.3346 14.2676 14.3346 14.4633 14.1512C14.6589 13.9678 14.6589 13.7232 14.4633 13.5397C14.3328 13.4786 14.2024 13.4174 14.1371 13.4174Z" fill="white"/>
<path d="M25.4209 23.7512C24.9643 23.7512 24.5078 23.5678 24.1816 23.262C23.4642 22.5894 23.4642 21.5499 24.1816 20.9385C24.8339 20.327 26.0079 20.327 26.6601 20.9385C26.9862 21.2442 27.1819 21.6722 27.1819 22.1003C27.1819 22.5283 26.9862 22.9563 26.6601 23.262C26.334 23.5678 25.8775 23.7512 25.4209 23.7512ZM25.4209 21.6722C25.2904 21.6722 25.16 21.7334 25.0948 21.7945C24.8991 21.9779 24.8991 22.2226 25.0948 22.406C25.2904 22.5894 25.5513 22.5894 25.747 22.406C25.9427 22.2226 25.9427 21.9779 25.747 21.7945C25.6818 21.7334 25.5513 21.6722 25.4209 21.6722Z" fill="white"/>
<path d="M25.4209 10.0543C24.9643 10.0543 24.5077 9.8709 24.1816 9.5652C23.4642 8.89252 23.4642 7.85303 24.1816 7.24154C24.8339 6.63008 26.0079 6.63008 26.6601 7.24154C27.3776 7.91418 27.3776 8.95366 26.6601 9.5652C26.334 9.8709 25.8774 10.0543 25.4209 10.0543ZM25.4209 7.97532C25.2904 7.97532 25.16 8.03647 25.0947 8.09762C24.8991 8.28106 24.8991 8.52564 25.0947 8.70908C25.2904 8.89252 25.5513 8.89252 25.747 8.70908C25.9427 8.52564 25.9427 8.28106 25.747 8.09762C25.6818 8.03647 25.5513 7.97532 25.4209 7.97532Z" fill="white"/>
<path d="M14.1371 3.81724C13.6806 3.81724 13.224 3.63381 12.8979 3.32807C12.5718 3.02233 12.3761 2.5943 12.3761 2.16627C12.3761 1.73824 12.5718 1.31021 12.8979 1.00447C13.6154 0.331842 14.7242 0.331842 15.3764 1.00447C16.0939 1.67709 16.0939 2.7166 15.3764 3.32807C14.9851 3.63381 14.5937 3.81724 14.1371 3.81724ZM14.1371 1.73824C14.0067 1.73824 13.8762 1.79938 13.811 1.86053C13.6154 2.04397 13.6154 2.28856 13.811 2.47201C14.0067 2.65545 14.2676 2.65545 14.4633 2.47201C14.6589 2.28856 14.6589 2.04397 14.4633 1.86053C14.3328 1.73824 14.2024 1.73824 14.1371 1.73824Z" fill="white"/>
<path d="M3.30997 15.4964H2.00549V20.7551H3.30997V15.4964Z" fill="white"/>
<path d="M26.0079 9.5652H24.7034V14.2735H26.0079V9.5652Z" fill="white"/>
<path d="M26.0079 15.4964H24.7034V20.7551H26.0079V15.4964Z" fill="white"/>
<path d="M20.9857 5.95733L21.638 4.85668L25.3557 6.75226L24.7035 7.85292L20.9857 5.95733ZM14.7242 2.77768L15.3765 1.67702L19.3551 3.6949L18.7029 4.79553L14.7242 2.77768Z" fill="white"/>
<path d="M14.7893 15.0074H13.4848V19.838H14.7893V15.0074Z" fill="white"/>
<path d="M14.985 27.0533L18.768 25.2188L19.355 26.3195L15.572 28.154L14.985 27.0533ZM20.6595 24.3016L24.3773 22.4672L24.9643 23.5679L21.2465 25.4023L20.6595 24.3016Z" fill="white"/>
</svg>
