<svg width="32" height="32" viewBox="0 0 32 32" fill="none" xmlns="http://www.w3.org/2000/svg">
<g clip-path="url(#clip0_109_170)">
<path d="M5.44033 8.97516L4.78809 7.8745L8.63629 5.91777L9.28854 7.01843L5.44033 8.97516ZM11.5714 5.85662L10.9191 4.75599L14.376 2.9827L15.0282 4.08336L11.5714 5.85662Z" fill="white"/>
<path d="M15.0935 14.723L11.6366 13.0109L12.2236 11.9102L15.6805 13.6224L15.0935 14.723ZM9.28855 11.8491L5.83167 10.137L6.4187 9.03631L9.87555 10.7484L9.28855 11.8491Z" fill="white"/>
<path d="M17.6371 14.6008L17.0501 13.5002L20.5722 11.9103L21.1592 13.011L17.6371 14.6008ZM23.5073 11.9103L22.9203 10.8097L26.4424 9.21985L27.0294 10.3205L23.5073 11.9103Z" fill="white"/>
<path d="M14.7022 29.0927L10.7887 27.1361L11.3757 26.0354L15.2892 27.9921L14.7022 29.0927ZM8.83198 26.28L5.37512 24.5679L5.96213 23.4672L9.41901 25.1793L8.83198 26.28Z" fill="white"/>
<path d="M5.30997 10.5652H4.00549V15.2735H5.30997V10.5652Z" fill="white"/>
<path d="M16.7893 22.7334H15.4848V27.5641H16.7893V22.7334Z" fill="white"/>
<path d="M4.65771 11.0543C4.20115 11.0543 3.74458 10.8709 3.41846 10.5652C3.09234 10.2594 2.89667 9.83137 2.89667 9.40335C2.89667 8.97532 3.09234 8.54727 3.41846 8.24154C4.0707 7.63008 5.24473 7.63008 5.89696 8.24154C6.2231 8.54727 6.41877 8.97532 6.41877 9.40335C6.41877 9.83137 6.2231 10.2594 5.89696 10.5652C5.57085 10.8709 5.11428 11.0543 4.65771 11.0543ZM4.65771 8.97532C4.52727 8.97532 4.39682 9.03647 4.3316 9.09762C4.26637 9.15876 4.20115 9.28106 4.20115 9.40335C4.20115 9.52564 4.26637 9.64793 4.3316 9.70908C4.52727 9.89252 4.78816 9.89252 4.98383 9.70908C5.04906 9.64793 5.11428 9.52564 5.11428 9.40335C5.11428 9.28106 5.04906 9.15876 4.98383 9.09762C4.91861 9.03647 4.78816 8.97532 4.65771 8.97532Z" fill="white"/>
<path d="M4.65771 24.7512C4.20115 24.7512 3.74458 24.5678 3.41846 24.262C3.09234 23.9563 2.89667 23.5283 2.89667 23.1003C2.89667 22.6722 3.09234 22.2442 3.41846 21.9385C4.0707 21.327 5.24473 21.327 5.89696 21.9385C6.2231 22.2442 6.41877 22.6722 6.41877 23.1003C6.41877 23.5283 6.2231 23.9563 5.89696 24.262C5.57085 24.5678 5.11428 24.7512 4.65771 24.7512ZM4.65771 22.6722C4.52727 22.6722 4.39682 22.7334 4.3316 22.7945C4.26637 22.8557 4.20115 22.9779 4.20115 23.1003C4.20115 23.2226 4.26637 23.3449 4.3316 23.406C4.52727 23.5894 4.78816 23.5894 4.98383 23.406C5.04906 23.3449 5.11428 23.2226 5.11428 23.1003C5.11428 22.9779 5.04906 22.8557 4.98383 22.7945C4.91861 22.7334 4.78816 22.6722 4.65771 22.6722Z" fill="white"/>
<path d="M16.1371 30.2546C15.6806 30.2546 15.224 30.0713 14.8979 29.7654C14.5718 29.4598 14.3761 29.0317 14.3761 28.6036C14.3761 28.1756 14.5718 27.7476 14.8979 27.4418C15.6154 26.7692 16.7241 26.7692 17.3764 27.4418C18.0938 28.1145 18.0938 29.154 17.3764 29.7654C16.9851 30.0713 16.5937 30.2546 16.1371 30.2546ZM16.1371 28.1145C16.0067 28.1145 15.8762 28.1756 15.811 28.2368C15.6154 28.4202 15.6154 28.6648 15.811 28.8482C16.0067 29.0317 16.2676 29.0317 16.4633 28.8482C16.6589 28.6648 16.6589 28.4202 16.4633 28.2368C16.3328 28.1756 16.2024 28.1145 16.1371 28.1145Z" fill="white"/>
<path d="M16.1371 16.4964C15.6806 16.4964 15.224 16.313 14.8979 16.0073C14.5718 15.7015 14.3761 15.2735 14.3761 14.8455C14.3761 14.4174 14.5718 13.9894 14.8979 13.6837C15.6154 13.011 16.7241 13.011 17.3764 13.6837C18.0938 14.3563 18.0938 15.3958 17.3764 16.0073C16.9851 16.3742 16.5937 16.4964 16.1371 16.4964ZM16.1371 14.4174C16.0067 14.4174 15.8762 14.4786 15.811 14.5397C15.6154 14.7232 15.6154 14.9678 15.811 15.1512C16.0067 15.3346 16.2676 15.3346 16.4633 15.1512C16.6589 14.9678 16.6589 14.7232 16.4633 14.5397C16.3328 14.4786 16.2024 14.4174 16.1371 14.4174Z" fill="white"/>
<path d="M27.4209 24.7512C26.9643 24.7512 26.5078 24.5678 26.1816 24.262C25.4642 23.5894 25.4642 22.5499 26.1816 21.9385C26.8339 21.327 28.0079 21.327 28.6601 21.9385C28.9862 22.2442 29.1819 22.6722 29.1819 23.1003C29.1819 23.5283 28.9862 23.9563 28.6601 24.262C28.334 24.5678 27.8775 24.7512 27.4209 24.7512ZM27.4209 22.6722C27.2904 22.6722 27.16 22.7334 27.0948 22.7945C26.8991 22.9779 26.8991 23.2226 27.0948 23.406C27.2904 23.5894 27.5513 23.5894 27.747 23.406C27.9427 23.2226 27.9427 22.9779 27.747 22.7945C27.6818 22.7334 27.5513 22.6722 27.4209 22.6722Z" fill="white"/>
<path d="M27.4209 11.0543C26.9643 11.0543 26.5077 10.8709 26.1816 10.5652C25.4642 9.89252 25.4642 8.85303 26.1816 8.24154C26.8339 7.63008 28.0079 7.63008 28.6601 8.24154C29.3776 8.91418 29.3776 9.95366 28.6601 10.5652C28.334 10.8709 27.8774 11.0543 27.4209 11.0543ZM27.4209 8.97532C27.2904 8.97532 27.16 9.03647 27.0947 9.09762C26.8991 9.28106 26.8991 9.52564 27.0947 9.70908C27.2904 9.89252 27.5513 9.89252 27.747 9.70908C27.9427 9.52564 27.9427 9.28106 27.747 9.09762C27.6818 9.03647 27.5513 8.97532 27.4209 8.97532Z" fill="white"/>
<path d="M16.1371 4.81724C15.6806 4.81724 15.224 4.63381 14.8979 4.32807C14.5718 4.02233 14.3761 3.5943 14.3761 3.16627C14.3761 2.73824 14.5718 2.31021 14.8979 2.00447C15.6154 1.33184 16.7242 1.33184 17.3764 2.00447C18.0939 2.67709 18.0939 3.7166 17.3764 4.32807C16.9851 4.63381 16.5937 4.81724 16.1371 4.81724ZM16.1371 2.73824C16.0067 2.73824 15.8762 2.79938 15.811 2.86053C15.6154 3.04397 15.6154 3.28856 15.811 3.47201C16.0067 3.65545 16.2676 3.65545 16.4633 3.47201C16.6589 3.28856 16.6589 3.04397 16.4633 2.86053C16.3328 2.73824 16.2024 2.73824 16.1371 2.73824Z" fill="white"/>
<path d="M5.30997 16.4964H4.00549V21.7551H5.30997V16.4964Z" fill="white"/>
<path d="M28.0079 10.5652H26.7034V15.2735H28.0079V10.5652Z" fill="white"/>
<path d="M28.0079 16.4964H26.7034V21.7551H28.0079V16.4964Z" fill="white"/>
<path d="M22.9857 6.95733L23.638 5.85668L27.3557 7.75226L26.7035 8.85292L22.9857 6.95733ZM16.7242 3.77768L17.3765 2.67702L21.3551 4.6949L20.7029 5.79553L16.7242 3.77768Z" fill="white"/>
<path d="M16.7893 16.0074H15.4848V20.838H16.7893V16.0074Z" fill="white"/>
<path d="M16.985 28.0533L20.768 26.2188L21.355 27.3195L17.572 29.154L16.985 28.0533ZM22.6595 25.3016L26.3773 23.4672L26.9643 24.5679L23.2465 26.4023L22.6595 25.3016Z" fill="white"/>
</g>
<defs>
<clipPath id="clip0_109_170">
<rect width="29" height="29" fill="white" transform="translate(1.5 1.5)"/>
</clipPath>
</defs>
</svg>
