<?xml version="1.0" encoding="UTF-8"?><!DOCTYPE svg>
<svg width="32" height="32" viewBox="0 0 151 150" fill="none" xmlns="http://www.w3.org/2000/svg">
  <circle cx="75.5" cy="75" r="75" fill="url(#paint0_linear_4310_23443)"/>
  <path d="M84.3721 59.4545H66.3782L57.353 75.054L66.3782 90.5454H84.3721L93.4656 75.0482L84.3721 59.4545ZM82.0192 86.3902H68.8335L62.1271 75.0765L68.7994 63.6098H82.0192L88.6858 75.0765L82.0192 86.3902Z" fill="white"/>
  <path d="M84.3721 92.9091H66.3782L57.353 108.494L66.3782 124H84.3721L93.4656 108.494L84.3721 92.9091ZM82.0192 119.837H68.8335L62.1271 108.523L68.7994 97.0496H82.0192L88.6858 108.523L82.0192 119.837Z" fill="white"/>
  <path d="M84.3721 26H66.3782L57.353 41.6051L66.3782 57.0909H84.3721L93.4656 41.6051L84.3721 26ZM82.0192 52.95H68.8335L62.1271 41.6051L68.7994 30.1466H82.0192L88.6631 41.6051L82.0192 52.95Z" fill="white"/>
  <path d="M113.77 76.1819H95.7708L86.7512 91.7811L95.7708 107.273H113.77L122.864 91.7811L113.77 76.1819ZM111.389 103.113H98.2032L91.5309 91.8039L98.2032 80.3186H111.389L118.061 91.7811L111.389 103.113Z" fill="white"/>
  <path d="M113.77 42.7272H95.7708L86.7512 58.4121L95.7708 74H113.77L122.864 58.4121L113.77 42.7272ZM111.389 69.8261H98.2032L91.5309 58.4463L98.2032 46.9125H111.389L118.061 58.4463L111.389 69.8261Z" fill="white"/>
  <path d="M55.0196 76.1819H37.1161L28.1362 91.7811L37.1161 107.273H55.0196L64.0674 91.7811L55.0196 76.1819ZM52.6558 103.113H39.5366L32.8976 91.8039L39.5366 80.3186H52.6558L59.2947 91.8039L52.6558 103.113Z" fill="white"/>
  <path d="M55.0196 42.7272H37.1161L28.1362 58.4121L37.1161 74H55.0196L64.0674 58.4121L55.0196 42.7272ZM52.6558 69.8261H39.5366L32.8976 58.4351L39.5366 46.9011H52.6558L59.2947 58.4351L52.6558 69.8261Z" fill="white"/>
  <defs>
    <linearGradient id="paint0_linear_4310_23443" x1="75.5" y1="0" x2="75.5" y2="150" gradientUnits="userSpaceOnUse">
      <stop stop-color="#795AA5"/>
      <stop offset="1" stop-color="#6B91C7"/>
    </linearGradient>
  </defs>
</svg>