<?xml version="1.0" encoding="UTF-8"?><!DOCTYPE svg>
<svg width="20" height="20" viewBox="0 0 78 81" fill="none" xmlns="http://www.w3.org/2000/svg">
<path d="M46.2245 27.4988H31.434L24.0154 40.3212L31.434 53.0548H46.2245L53.6991 40.3164L46.2245 27.4988ZM44.2904 49.6393H33.4522L27.9397 40.3397L33.4241 30.9143H44.2904L49.7703 40.3397L44.2904 49.6393Z" fill="white"/>
<path d="M46.2245 54.9976H31.434L24.0154 67.8083L31.434 80.5536H46.2245L53.6991 67.8083L46.2245 54.9976ZM44.2904 77.1315H33.4522L27.9397 67.8317L33.4241 58.401H44.2904L49.7703 67.8317L44.2904 77.1315Z" fill="white"/>
<path d="M46.2245 0H31.434L24.0154 12.827L31.434 25.556H46.2245L53.6991 12.827L46.2245 0ZM44.2904 22.1523H33.4522L27.9397 12.827L33.4241 3.40839H44.2904L49.7516 12.827L44.2904 22.1523Z" fill="white"/>
<path d="M70.3891 41.2483H55.594L48.1801 54.0705L55.594 66.8043H70.3891L77.8638 54.0705L70.3891 41.2483ZM68.4317 63.3853H57.5934L52.1089 54.0892L57.5934 44.6486H68.4317L73.9163 54.0705L68.4317 63.3853Z" fill="white"/>
<path d="M70.3891 13.7494H55.594L48.1801 26.642L55.594 39.4548H70.3891L77.8638 26.642L70.3891 13.7494ZM68.4317 36.024H57.5934L52.1089 26.6701L57.5934 17.1896H68.4317L73.9163 26.6701L68.4317 36.024Z" fill="white"/>
<path d="M22.0975 41.2483H7.38124L0 54.0705L7.38124 66.8043H22.0975L29.5345 54.0705L22.0975 41.2483ZM20.1545 63.3853H9.3708L3.91377 54.0892L9.3708 44.6486H20.1545L25.6115 54.0892L20.1545 63.3853Z" fill="white"/>
<path d="M22.0975 13.7494H7.38124L0 26.642L7.38124 39.4548H22.0975L29.5345 26.642L22.0975 13.7494ZM20.1545 36.024H9.3708L3.91376 26.6608L9.3708 17.1802H20.1545L25.6115 26.6608L20.1545 36.024Z" fill="white"/>
</svg>
