<svg width="32" height="32" viewBox="0 0 32 32" fill="none" xmlns="http://www.w3.org/2000/svg">
    <g clip-path="url(#clip0_109_448)">
        <path fill-rule="evenodd" clip-rule="evenodd"
            d="M15.3367 18.6802C13.745 18.6802 12.507 17.4333 12.507 15.8301C12.507 14.2268 13.745 12.9798 15.3367 12.9798C16.9283 12.9798 18.1662 14.2268 18.1662 15.8301C18.1662 17.4333 16.9283 18.6802 15.3367 18.6802Z"
            fill="white" />
        <path fill-rule="evenodd" clip-rule="evenodd"
            d="M20.8631 17.1662C20.1558 17.1662 19.5367 16.587 19.5367 15.8301C19.5367 15.1174 20.1114 14.494 20.8631 14.494C21.5703 14.494 22.1895 15.073 22.1895 15.8301C22.1895 16.587 21.5704 17.166 20.8631 17.166V17.1662ZM25.6381 18.4127C25.4613 19.125 24.7537 19.5254 24.0463 19.3473C23.3391 19.1692 22.941 18.4568 23.1179 17.7445C23.2947 17.0321 24.0019 16.6304 24.7095 16.8085C25.3715 16.9865 25.8142 17.6099 25.6813 18.3229C25.6813 18.3229 25.6813 18.3671 25.6374 18.4116L25.6381 18.4127ZM24.7082 15.0269C24.0004 15.205 23.2931 14.7596 23.1163 14.0469C22.9394 13.3346 23.3815 12.6218 24.0889 12.4436C24.7962 12.2655 25.5036 12.711 25.6804 13.4237C25.7246 13.6019 25.7246 13.7799 25.6804 13.958C25.6362 14.4481 25.2824 14.8932 24.7077 15.0269H24.7082ZM29.3937 18.2332C29.2607 18.9456 28.5974 19.4357 27.8902 19.3022C27.183 19.1685 26.6964 18.5005 26.8294 17.788C26.9618 17.0756 27.625 16.5855 28.3323 16.719C28.9957 16.8526 29.4822 17.4761 29.438 18.1442C29.3941 18.1886 29.3941 18.1886 29.3941 18.2332H29.3937ZM28.3348 14.9393C27.6276 15.073 26.9642 14.5832 26.8317 13.8705C26.699 13.1582 27.1853 12.4899 27.8928 12.3563C28.6 12.2228 29.2634 12.7125 29.3959 13.4252C29.3959 13.5588 29.4402 13.6478 29.3959 13.7813C29.3517 14.3603 28.9096 14.8503 28.3348 14.9393ZM27.4064 22.8219C27.0528 23.4453 26.2569 23.6682 25.6379 23.3117C25.019 22.9555 24.7978 22.1538 25.1517 21.5304C25.5053 20.9069 26.3011 20.6841 26.9201 21.0405C27.3623 21.3077 27.6273 21.7975 27.5832 22.2875C27.539 22.4656 27.4948 22.6436 27.4064 22.8217V22.8219ZM26.9201 10.7088C26.3011 11.065 25.5053 10.8423 25.1517 10.2187C24.7981 9.59522 25.019 8.79366 25.6379 8.43733C26.2569 8.08117 27.0526 8.3037 27.4064 8.92743C27.539 9.19442 27.5832 9.4171 27.5832 9.68424C27.539 10.0852 27.318 10.4859 26.9201 10.7086"
            fill="white" />
        <path
            d="M15.3808 29.1456C11.8439 29.1456 8.57225 27.7651 6.05223 25.2713C3.62056 22.7324 2.25 19.3915 2.25 15.8738C2.25 12.3106 3.62056 9.01525 6.09633 6.4764C8.57225 3.98312 11.8881 2.60257 15.3808 2.60257C18.2987 2.60257 21.0841 3.53762 23.3831 5.3195L21.7479 7.45674C19.8908 6.03269 17.6801 5.27546 15.3816 5.27546C12.5964 5.27546 9.94365 6.38886 7.95413 8.39276C5.96546 10.3969 4.90423 13.0245 4.90423 15.8745C4.90423 18.6802 6.00946 21.3523 7.99895 23.3563C9.98846 25.3603 12.5972 26.4291 15.4266 26.4291C17.7698 26.4291 19.9804 25.672 21.7928 24.2469L23.3846 26.384C21.0858 28.1649 18.3005 29.1451 15.3824 29.1451L15.3808 29.1456Z"
            fill="white" />
    </g>
    <defs>
        <clipPath id="clip0_109_448">
            <rect width="27.5" height="27.5" fill="white" transform="translate(2.25 2.25)" />
        </clipPath>
    </defs>
</svg>