<?xml version="1.0" encoding="UTF-8"?><!DOCTYPE svg>
<svg width="32" height="32" viewBox="0 0 122 122" fill="none" xmlns="http://www.w3.org/2000/svg">
<path fill-rule="evenodd" clip-rule="evenodd" d="M34.6666 116.007C4.28693 101.462 -8.55109 65.0398 5.99244 34.6565C12.9766 20.0659 25.47 8.84765 40.7244 3.46957C55.9788 -1.9085 72.7445 -1.00577 87.3334 5.97907C117.713 20.5243 130.551 56.9461 116.008 87.3294C101.464 117.713 65.0465 130.552 34.6666 116.007V116.007Z" fill="#D62783"/>
<path fill-rule="evenodd" clip-rule="evenodd" d="M61.248 70.0754C57.0827 70.0754 53.8427 66.8122 53.8427 62.6165C53.8427 58.4208 57.0827 55.1573 61.248 55.1573C65.4133 55.1573 68.6529 58.4208 68.6529 62.6165C68.6529 66.8122 65.4133 70.0754 61.248 70.0754" fill="white"/>
<path fill-rule="evenodd" clip-rule="evenodd" d="M75.7106 66.1132C73.8598 66.1132 72.2397 64.5975 72.2397 62.6166C72.2397 60.7516 73.7436 59.12 75.7106 59.12C77.5614 59.12 79.1819 60.6352 79.1819 62.6166C79.1819 64.5975 77.5617 66.1128 75.7106 66.1128V66.1132ZM88.2069 69.3753C87.7442 71.2395 85.8924 72.2873 84.0413 71.8212C82.1905 71.3552 81.1485 69.4909 81.6116 67.6266C82.0743 65.7624 83.9251 64.711 85.7769 65.1771C87.5093 65.6431 88.6678 67.2744 88.3199 69.1404C88.3199 69.1404 88.3199 69.2561 88.2051 69.3724L88.2069 69.3753ZM85.7733 60.5146C83.9211 60.9806 82.07 59.8151 81.6073 57.9501C81.1446 56.0858 82.3013 54.2205 84.1528 53.7541C86.0036 53.288 87.8551 54.4539 88.3178 56.3192C88.4333 56.7853 88.4333 57.2514 88.3178 57.7174C88.2019 59 87.2762 60.1648 85.7722 60.5146H85.7733ZM98.0354 68.9056C97.6875 70.7699 95.9515 72.0525 94.1007 71.7031C92.25 71.3534 90.9767 69.6051 91.3246 67.7404C91.6711 65.8762 93.4067 64.5936 95.2578 64.9429C96.9938 65.2927 98.2671 66.9243 98.1513 68.6726C98.0365 68.7889 98.0365 68.7889 98.0365 68.9056H98.0354ZM95.2643 60.2855C93.4135 60.6352 91.6775 59.3534 91.3307 57.4884C90.9835 55.6241 92.2561 53.8755 94.1076 53.5257C95.9583 53.1763 97.6943 54.4579 98.0412 56.3228C98.0412 56.6726 98.157 56.9056 98.0412 57.255C97.9257 58.7702 96.7686 60.0525 95.2643 60.2855ZM92.8346 80.9143C91.9092 82.5459 89.8264 83.129 88.2066 82.1961C86.5868 81.264 86.0079 79.166 86.934 77.5344C87.8594 75.9028 89.9422 75.3196 91.562 76.2525C92.7191 76.9516 93.4128 78.2335 93.2973 79.5157C93.1818 79.9818 93.066 80.4478 92.8346 80.9139V80.9143ZM91.562 49.2141C89.9422 50.1462 87.8594 49.5634 86.934 47.9315C86.0086 46.2999 86.5868 44.2022 88.2066 43.2697C89.8264 42.3376 91.9089 42.92 92.8346 44.5523C93.1818 45.251 93.2973 45.8338 93.2973 46.5329C93.1818 47.5821 92.6033 48.6309 91.562 49.2137" fill="white"/>
<path d="M61.3635 97.4636C52.1075 97.4636 43.5455 93.8507 36.9504 87.3243C30.5868 80.6801 27 71.9368 27 62.7311C27 53.4061 30.5868 44.7821 37.0659 38.1379C43.5455 31.6129 52.223 28 61.3635 28C68.9998 28 76.2892 30.447 82.3056 35.1102L78.0262 40.7034C73.1662 36.9767 67.3807 34.995 61.3657 34.995C54.0766 34.995 47.1344 37.9088 41.9278 43.153C36.7234 48.3979 33.9462 55.2744 33.9462 62.7329C33.9462 70.0754 36.8385 77.0683 42.0451 82.3128C47.2517 87.5573 54.0788 90.3545 61.4833 90.3545C67.6156 90.3545 73.4007 88.3731 78.1439 84.6435L82.3096 90.2363C76.2935 94.897 69.0044 97.4622 61.3678 97.4622L61.3635 97.4636Z" fill="white"/>
</svg>