<svg width="32" height="32" viewBox="0 0 32 32" fill="none" xmlns="http://www.w3.org/2000/svg">
    <g clip-path="url(#clip0_109_455)">
        <path
            d="M6.60122 2.30853C5.1295 2.62317 4.17542 3.6686 3.93183 5.22151C3.74913 6.4192 4.10437 7.3834 5.3528 9.01752L5.94148 9.7889L5.75879 10.337C4.34797 14.4578 4.23632 14.8435 4.23632 15.3713C4.23632 16.5588 4.81486 17.9798 5.95163 19.5631C6.69257 20.6085 7.65679 21.6134 10.5799 24.3944C11.808 25.5617 13.5335 27.216 14.4165 28.0686C15.2996 28.9111 16.0608 29.6114 16.1115 29.6114C16.1623 29.6114 16.9946 28.8705 17.9588 27.9671C18.923 27.0638 19.9481 26.1199 20.2222 25.8661C25.1448 21.3799 26.5353 19.8676 27.459 18.0001C27.9462 17.0257 28.0781 16.5081 28.0883 15.6047C28.0883 15.0363 27.9766 14.6202 27.2661 12.6105C26.8094 11.3215 26.373 10.0426 26.2918 9.7483L26.1395 9.23068L26.5963 8.58109C27.6214 7.12968 27.8954 6.27708 27.6924 5.17076C27.53 4.28773 27.256 3.72949 26.7079 3.17126C26.0482 2.52167 25.3478 2.27808 24.0791 2.26793C22.8916 2.25778 22.2623 2.44047 21.5417 2.98856L21.0748 3.3438L19.7858 3.03931C18.243 2.66377 17.9893 2.62317 17.8471 2.71452C17.766 2.75512 17.8674 3.3032 18.1415 4.39938C18.8317 7.08908 19.7452 10.6313 19.9684 11.4433C20.344 12.8237 20.3948 13.1992 20.3542 13.9402C20.2729 15.2393 19.5117 16.3659 18.3648 16.9039C17.837 17.1576 17.6645 17.178 16.2638 17.2084C14.9037 17.2388 14.6703 17.2185 14.1628 17.0257C12.7215 16.4878 11.7167 14.8536 11.8791 13.321C11.9197 12.8846 13.0159 8.40853 14.2135 3.75994C14.3455 3.24231 14.4369 2.79572 14.4064 2.76527C14.2338 2.59272 12.7824 2.82617 11.2194 3.2829L10.6408 3.45545L10.2551 3.12051C9.62586 2.56227 8.95597 2.31868 7.93084 2.25778C7.43349 2.23748 6.83466 2.25778 6.60122 2.30853Z"
            fill="white" />
        <path
            d="M14.6094 10.4283C14.4876 10.4791 14.3556 10.6009 14.315 10.6821C14.2237 10.9257 14.5586 13.6661 14.7007 13.8387C14.7921 13.9503 15.1168 13.9807 16.1217 13.9807C17.3599 13.9807 17.431 13.9706 17.5731 13.7473C17.7254 13.5037 17.9791 10.9561 17.8674 10.6821C17.837 10.5907 17.6949 10.4689 17.5629 10.4182C17.2483 10.2964 14.9138 10.3065 14.6094 10.4283Z"
            fill="white" />
    </g>
    <defs>
        <clipPath id="clip0_109_455">
            <rect width="27.5" height="27.5" fill="white" transform="translate(2.25 2.25)" />
        </clipPath>
    </defs>
</svg>