<?xml version="1.0" encoding="UTF-8"?><!DOCTYPE svg>
<svg width="32" height="32" viewBox="0 0 122 122" fill="none" xmlns="http://www.w3.org/2000/svg">
<path fill-rule="evenodd" clip-rule="evenodd" d="M34.6666 116.007C4.28693 101.462 -8.55109 65.0398 5.99244 34.6565C12.9766 20.0659 25.47 8.84765 40.7244 3.46957C55.9788 -1.9085 72.7445 -1.00577 87.3334 5.97907C117.713 20.5243 130.551 56.9461 116.008 87.3294C101.464 117.713 65.0465 130.552 34.6666 116.007V116.007Z" fill="#290B53"/>
<path d="M38.505 38.1262C34.978 38.8047 32.6915 41.059 32.1077 44.4075C31.6698 46.9901 32.5212 49.0693 35.5131 52.593L36.9239 54.2563L36.4861 55.4382C33.105 64.3239 32.8374 65.1556 32.8374 66.2937C32.8374 68.8544 34.2239 71.9184 36.9482 75.3327C38.7239 77.587 41.0348 79.7537 48.0402 85.7505C50.9835 88.2674 55.1187 91.8349 57.2349 93.6733C59.3511 95.4899 61.1755 97 61.2971 97C61.4187 97 63.4133 95.4023 65.7241 93.4544C68.035 91.5066 70.4917 89.4712 71.1485 88.924C82.9459 79.2503 86.2783 75.9893 88.4919 71.9622C89.6595 69.8611 89.9757 68.745 90 66.7971C90 65.5715 89.7324 64.6741 88.0297 60.3407C86.9351 57.5611 85.8892 54.8035 85.6946 54.1688L85.3297 53.0526L86.4243 51.6519C88.8811 48.5221 89.5378 46.6837 89.0513 44.2981C88.6621 42.394 88.0054 41.1903 86.6919 39.9865C85.1108 38.5858 83.4324 38.0605 80.3918 38.0387C77.5459 38.0168 76.0377 38.4107 74.3107 39.5926L73.1918 40.3586L70.1026 39.702C66.4052 38.8922 65.7971 38.8047 65.4566 39.0016C65.262 39.0892 65.5052 40.271 66.162 42.6348C67.816 48.4346 70.0053 56.0729 70.5404 57.8238C71.4404 60.8003 71.562 61.6101 71.4647 63.2078C71.2701 66.0092 69.4458 68.4385 66.6971 69.5985C65.4322 70.1457 65.0187 70.1894 61.6619 70.2551C58.4025 70.3208 57.843 70.277 56.6268 69.8611C53.1727 68.7012 50.7646 65.1775 51.1538 61.8727C51.2511 60.9316 53.8781 51.2798 56.7484 41.2559C57.0646 40.1397 57.2835 39.1767 57.2106 39.1111C56.797 38.739 53.3186 39.2424 49.5727 40.2273L48.1862 40.5993L47.2618 39.8771C45.7537 38.6734 44.1483 38.1481 41.6915 38.0168C40.4996 37.973 39.0645 38.0168 38.505 38.1262Z" fill="white"/>
<path d="M57.5712 55.9082C57.2906 56.0176 56.9865 56.2802 56.8929 56.4553C56.6824 56.9804 57.4543 62.8884 57.7818 63.2603C57.9923 63.501 58.7407 63.5667 61.0563 63.5667C63.9098 63.5667 64.0736 63.5448 64.401 63.0634C64.7519 62.5383 65.3366 57.0461 65.0793 56.4553C65.0092 56.2583 64.6817 55.9958 64.3776 55.8863C63.6526 55.6238 58.2729 55.6457 57.5712 55.9082Z" fill="white"/>
</svg>