<?xml version="1.0" encoding="UTF-8"?><!DOCTYPE svg>
    <svg width="20" height="20" viewBox="0 0 28 32" fill="none" xmlns="http://www.w3.org/2000/svg">
<g clip-path="url(#clip0_35_45)">
<path d="M3.11568 0.352611C1.43372 0.7122 0.34334 1.90698 0.0649516 3.68173C-0.143848 5.05052 0.26214 6.15246 1.68892 8.02003L2.36169 8.90161L2.15291 9.52801C0.54054 14.2375 0.41294 14.6783 0.41294 15.2815C0.41294 16.6386 1.07413 18.2626 2.37329 20.0721C3.22008 21.2669 4.32205 22.4153 7.66275 25.5936C9.06629 26.9277 11.0383 28.8183 12.0474 29.7927C13.0567 30.7555 13.9266 31.5559 13.9846 31.5559C14.0426 31.5559 14.9938 30.7091 16.0958 29.6767C17.1977 28.6443 18.3693 27.5656 18.6825 27.2755C24.3083 22.1485 25.8975 20.4201 26.9531 18.2858C27.5099 17.1722 27.6607 16.5807 27.6723 15.5482C27.6723 14.8986 27.5447 14.4231 26.7327 12.1263C26.2107 10.6531 25.712 9.19155 25.6192 8.85521L25.4451 8.26364L25.9672 7.52125C27.1387 5.8625 27.4519 4.8881 27.2199 3.62373C27.0343 2.61455 26.7211 1.97657 26.0947 1.33859C25.3408 0.5962 24.5403 0.317811 23.0904 0.306211C21.7333 0.294611 21.0141 0.5034 20.1905 1.12979L19.6569 1.53578L18.1838 1.18779C16.4206 0.7586 16.1306 0.7122 15.9681 0.8166C15.8754 0.863 15.9913 1.48938 16.3046 2.74215C17.0934 5.8161 18.1374 9.86435 18.3925 10.7923C18.8217 12.3699 18.8798 12.7991 18.8334 13.6459C18.7405 15.1306 17.8705 16.4182 16.5598 17.033C15.9566 17.323 15.7594 17.3463 14.1586 17.381C12.6042 17.4158 12.3375 17.3926 11.7575 17.1722C10.1103 16.5575 8.96195 14.6898 9.14755 12.9383C9.19395 12.4395 10.4467 7.32404 11.8154 2.01137C11.9663 1.41979 12.0707 0.9094 12.0359 0.8746C11.8386 0.6774 10.1799 0.9442 8.3936 1.46618L7.73235 1.66338L7.29155 1.28059C6.57241 0.6426 5.80683 0.364211 4.63525 0.294611C4.06685 0.271411 3.38247 0.294611 3.11568 0.352611Z" fill="white"/>
<path d="M12.2679 9.63234C12.1287 9.6904 11.9778 9.8296 11.9314 9.9224C11.8271 10.2008 12.2098 13.3327 12.3722 13.5299C12.4767 13.6575 12.8478 13.6922 13.9962 13.6922C15.4113 13.6922 15.4926 13.6807 15.655 13.4255C15.829 13.1471 16.119 10.2355 15.9913 9.9224C15.9566 9.81794 15.7942 9.67874 15.6433 9.6208C15.2838 9.4816 12.6158 9.49314 12.2679 9.63234Z" fill="white"/>
</g>
<defs>
<clipPath id="clip0_35_45">
<rect width="28" height="32" fill="white"/>
</clipPath>
</defs>
</svg>
