<?xml version="1.0" encoding="UTF-8"?><!DOCTYPE svg>
<svg width="70" height="70" viewBox="0 0 70 70" fill="none" xmlns="http://www.w3.org/2000/svg">
<path d="M63.9956 14.0486V41.3078L68.6677 44.2156V16.9565L63.9956 14.0486ZM1.35999 44.2156L6.03201 41.3078V14.0486L1.35999 16.9565V44.2156ZM24.2626 43.9472L45.765 57.2935V51.4927L25.6351 38.9964L24.2626 39.8464V43.9472ZM46.9989 65.0328L24.2626 50.9111V56.7119L30.3349 60.4846L23.0288 65.0179C22.5435 65.3161 22.5435 66.0916 23.0288 66.3898L26.5917 68.6117L35.0069 63.3925L43.4221 68.6117L46.985 66.3898C47.4841 66.1065 47.4841 65.331 46.9989 65.0328V65.0328Z" fill="white"/>
<path d="M63.9956 30.3027V54.4751C63.9956 55.0865 64.6056 55.4742 65.1047 55.1611L68.3072 53.1778C68.529 53.0435 68.6815 52.7751 68.6815 52.4918V27.4098L63.9956 30.3027ZM54.8179 61.5434L57.8263 59.6645C58.1729 59.4557 58.3809 59.0531 58.3809 58.6356V33.7921L53.7089 36.7V60.8724C53.7089 61.4688 54.3189 61.8565 54.8179 61.5434ZM43.4221 68.6266L47.7337 65.9574C47.9555 65.8231 48.108 65.5547 48.108 65.2714V40.1745L43.4221 43.0823V68.6266ZM22.294 65.9424L26.6056 68.6117V43.0823L21.9335 40.1745V65.2565C21.9335 65.5398 22.0722 65.8082 22.294 65.9424ZM12.2013 59.6794L15.2097 61.5583C15.6949 61.8565 16.3188 61.4837 16.3188 60.8724V36.6851L11.6468 33.7772V58.6356C11.6468 59.068 11.8547 59.4706 12.2013 59.6794ZM1.91453 53.2971L4.92292 55.176C5.40815 55.4742 6.03201 55.1014 6.03201 54.49V30.3027L1.35999 27.4098V52.2681C1.35999 52.6857 1.56794 53.0734 1.91453 53.2971V53.2971Z" fill="white"/>
<path d="M68.6677 16.9565L63.9956 14.0486L55.5805 19.2678L49.9796 15.7933L57.2857 11.2601C57.7709 10.9618 57.7709 10.1864 57.2857 9.88817L54.2634 8.00926C53.9168 7.80049 53.5009 7.80049 53.1543 8.00926L45.2937 12.8855L39.6928 9.41099L46.9989 4.87773C47.4841 4.57949 47.4841 3.80407 46.9989 3.50583L43.9766 1.62691C43.63 1.41814 43.2141 1.41814 42.8675 1.62691L35.0069 6.50314L27.1462 1.62691C26.7997 1.41814 26.3837 1.41814 26.0372 1.62691L23.0149 3.50583C22.5297 3.80407 22.5297 4.57949 23.0149 4.87773L63.9679 30.3176L68.6399 27.4098L60.2248 22.1906L68.6677 16.9565V16.9565ZM15.7642 8.00926L12.7558 9.88817C12.2706 10.1864 12.2706 10.9618 12.7558 11.2601L53.7089 36.7L58.3809 33.7921L16.8733 8.00926C16.5267 7.80049 16.1108 7.80049 15.7642 8.00926ZM1.35999 16.9565L9.77518 22.1757L1.35999 27.4098L6.04588 30.3027L14.4472 25.0835L20.062 28.5729L11.6468 33.7921L16.3188 36.7L24.734 31.4659L30.3349 34.9553L21.9197 40.1745L26.6056 43.0823L35.0069 37.8482L43.4221 43.0823L48.0941 40.1745L6.03201 14.0486L1.35999 16.9565Z" fill="white"/>
</svg>
