<svg width="32" height="32" viewBox="0 0 32 32" fill="none" xmlns="http://www.w3.org/2000/svg">
    <g clip-path="url(#clip0_109_489)">
        <path
            d="M27.3911 7.7691V18.4781L29.2266 19.6204V8.91145L27.3911 7.7691ZM2.78428 19.6204L4.61972 18.4781V7.7691L2.78428 8.91145V19.6204ZM11.7817 19.515L20.2291 24.7581V22.4793L12.3209 17.57L11.7817 17.9039V19.515ZM20.7139 27.7986L11.7817 22.2508V24.5297L14.1673 26.0118L11.297 27.7927C11.1064 27.9099 11.1064 28.2145 11.297 28.3317L12.6967 29.2046L16.0027 27.1542L19.3087 29.2046L20.7084 28.3317C20.9045 28.2204 20.9045 27.9158 20.7139 27.7986Z"
            fill="white" />
        <path
            d="M27.3911 14.1546V23.6509C27.3911 23.8911 27.6308 24.0434 27.8268 23.9204L29.085 23.1413C29.1721 23.0885 29.232 22.9831 29.232 22.8718V13.0181L27.3911 14.1546ZM23.7856 26.4278L24.9675 25.6896C25.1036 25.6076 25.1854 25.4494 25.1854 25.2854V15.5255L23.3499 16.6679V26.1642C23.3499 26.3985 23.5896 26.5508 23.7856 26.4278ZM19.3087 29.2105L21.0025 28.1618C21.0897 28.1091 21.1496 28.0036 21.1496 27.8923V18.0328L19.3087 19.1752V29.2105ZM11.0084 28.1559L12.7022 29.2046V19.1752L10.8667 18.0328V27.8865C10.8667 27.9978 10.9212 28.1032 11.0084 28.1559ZM7.04337 25.6955L8.22524 26.4336C8.41585 26.5508 8.66096 26.4043 8.66096 26.1642V16.662L6.82553 15.5196V25.2854C6.82553 25.4553 6.9072 25.6134 7.04337 25.6955ZM3.00214 23.1881L4.18401 23.9263C4.37463 24.0434 4.61972 23.897 4.61972 23.6568V14.1546L2.78428 13.0181V22.7839C2.78428 22.948 2.86598 23.1003 3.00214 23.1881Z"
            fill="white" />
        <path
            d="M29.2266 8.91148L27.3911 7.76909L24.0852 9.81949L21.8848 8.45451L24.7551 6.67361C24.9457 6.55642 24.9457 6.2518 24.7551 6.13464L23.5678 5.39649C23.4316 5.31448 23.2682 5.31448 23.132 5.39649L20.044 7.31216L17.8436 5.94717L20.7139 4.16625C20.9045 4.04908 20.9045 3.74445 20.7139 3.62729L19.5265 2.88914C19.3904 2.80712 19.227 2.80712 19.0908 2.88914L16.0027 4.8048L12.9146 2.88914C12.7785 2.80712 12.615 2.80712 12.4789 2.88914L11.2916 3.62729C11.101 3.74445 11.101 4.04908 11.2916 4.16625L27.3802 14.1605L29.2157 13.0181L25.9097 10.9677L29.2266 8.91148ZM8.44308 5.39649L7.26121 6.13464C7.07059 6.2518 7.07059 6.55642 7.26121 6.67361L23.3499 16.6679L25.1854 15.5255L8.8788 5.39649C8.74263 5.31448 8.57924 5.31448 8.44308 5.39649ZM2.78428 8.91148L6.09025 10.9619L2.78428 13.0181L4.62517 14.1546L7.92569 12.1042L10.1315 13.4751L6.82553 15.5255L8.66096 16.6679L11.9669 14.6116L14.1673 15.9824L10.8613 18.0328L12.7022 19.1752L16.0027 17.1189L19.3087 19.1752L21.1441 18.0328L4.61972 7.76909L2.78428 8.91148Z"
            fill="white" />
    </g>
    <defs>
        <clipPath id="clip0_109_489">
            <rect width="27.5" height="27.5" fill="white" transform="translate(2.25 2.25)" />
        </clipPath>
    </defs>
</svg>