<?xml version="1.0" encoding="UTF-8"?><!DOCTYPE svg>
    <svg width="20" height="20" viewBox="0 0 32 32" fill="none" xmlns="http://www.w3.org/2000/svg">
<g clip-path="url(#clip0_35_49)">
<path d="M29.0184 6.59326V18.8321L31.1161 20.1376V7.8988L29.0184 6.59326ZM0.896317 20.1376L2.99396 18.8321V6.59326L0.896317 7.8988V20.1376ZM11.1791 20.0171L20.8333 26.0093V23.4049L11.7953 17.7943L11.1791 18.1759V20.0171ZM21.3873 29.4841L11.1791 23.1438V25.7482L13.9055 27.4421L10.6251 29.4774C10.4073 29.6113 10.4073 29.9594 10.6251 30.0934L12.2248 31.091L16.0031 28.7477L19.7814 31.091L21.381 30.0934C21.6051 29.9662 21.6051 29.6181 21.3873 29.4841Z" fill="white"/>
<path d="M29.0184 13.891V24.7439C29.0184 25.0184 29.2923 25.1925 29.5163 25.0519L30.9543 24.1615C31.0538 24.1011 31.1223 23.9807 31.1223 23.8535V12.5921L29.0184 13.891ZM24.8978 27.9175L26.2486 27.0738C26.4041 26.9801 26.4976 26.7993 26.4976 26.6119V15.4577L24.3999 16.7633V27.6162C24.3999 27.884 24.6738 28.0581 24.8978 27.9175ZM19.7814 31.0977L21.7171 29.8992C21.8168 29.839 21.8853 29.7184 21.8853 29.5912V18.3232L19.7814 19.6288V31.0977ZM10.2953 29.8925L12.2311 31.091V19.6288L10.1334 18.3232V29.5846C10.1334 29.7118 10.1957 29.8322 10.2953 29.8925ZM5.76385 27.0806L7.11456 27.9241C7.3324 28.0581 7.61252 27.8906 7.61252 27.6162V16.7566L5.51489 15.451V26.6119C5.51489 26.8061 5.60822 26.9867 5.76385 27.0806ZM1.1453 24.215L2.49601 25.0586C2.71386 25.1925 2.99396 25.0251 2.99396 24.7506V13.891L0.896317 12.5921V23.753C0.896317 23.9406 0.989688 24.1146 1.1453 24.215Z" fill="white"/>
<path d="M31.1161 7.89884L29.0184 6.59325L25.2402 8.93656L22.7255 7.37659L26.0058 5.34127C26.2237 5.20734 26.2237 4.8592 26.0058 4.72531L24.6489 3.88171C24.4933 3.78798 24.3065 3.78798 24.1509 3.88171L20.6217 6.07104L18.107 4.51106L21.3873 2.47572C21.6051 2.34181 21.6051 1.99366 21.3873 1.85976L20.0303 1.01616C19.8747 0.922428 19.688 0.922428 19.5323 1.01616L16.0031 3.20549L12.4738 1.01616C12.3183 0.922428 12.1314 0.922428 11.9759 1.01616L10.619 1.85976C10.4011 1.99366 10.4011 2.34181 10.619 2.47572L29.0059 13.8977L31.1037 12.5921L27.3254 10.2488L31.1161 7.89884ZM7.36352 3.88171L6.01281 4.72531C5.79496 4.8592 5.79496 5.20734 6.01281 5.34127L24.3999 16.7633L26.4976 15.4577L7.86148 3.88171C7.70586 3.78798 7.51913 3.78798 7.36352 3.88171ZM0.896317 7.89884L4.67457 10.2422L0.896317 12.5921L3.00019 13.891L6.77221 11.5477L9.29314 13.1144L5.51489 15.4577L7.61252 16.7633L11.3907 14.4133L13.9055 15.9799L10.1272 18.3232L12.2311 19.6288L16.0031 17.2787L19.7814 19.6288L21.879 18.3232L2.99396 6.59325L0.896317 7.89884Z" fill="white"/>
</g>
<defs>
<clipPath id="clip0_35_49">
<rect width="32" height="32" fill="white"/>
</clipPath>
</defs>
</svg>
