<?xml version="1.0" encoding="UTF-8"?><!DOCTYPE svg>
<svg width="32" height="32" viewBox="0 0 122 122" fill="none" xmlns="http://www.w3.org/2000/svg">
<path fill-rule="evenodd" clip-rule="evenodd" d="M61 122C27.3106 122 0 94.6894 0 61C0 44.8218 6.42675 29.3062 17.8665 17.8665C29.3062 6.42675 44.8218 0 61 0C94.6894 0 122 27.3106 122 61C122 94.6894 94.6894 122 61 122Z" fill="url(#paint0_linear_46_0)"/>
<path d="M92.2251 38.1966V67.6832L97.2789 70.8287V41.342L92.2251 38.1966ZM24.4712 70.8287L29.525 67.6832V38.1966L24.4712 41.342V70.8287ZM49.2453 70.5383L72.5048 84.9752V78.7004L50.7299 65.183L49.2453 66.1024V70.5383ZM73.8394 93.3469L49.2453 78.0713V84.3461L55.8137 88.4271L47.9106 93.3308C47.3857 93.6534 47.3857 94.4922 47.9106 94.8148L51.7647 97.2182L60.8675 91.5725L69.9704 97.2182L73.8244 94.8148C74.3643 94.5083 74.3643 93.6695 73.8394 93.3469V93.3469Z" fill="white"/>
<path d="M92.2251 55.7789V81.9265C92.2251 82.5878 92.8849 83.0072 93.4248 82.6685L96.889 80.5231C97.1289 80.3779 97.2939 80.0876 97.2939 79.7811V52.6496L92.2251 55.7789ZM82.2974 89.5724L85.5517 87.5399C85.9266 87.3141 86.1515 86.8786 86.1515 86.4269V59.5534L81.0977 62.6989V88.8465C81.0977 89.4917 81.7576 89.9111 82.2974 89.5724ZM69.9704 97.2344L74.6343 94.347C74.8742 94.2018 75.0392 93.9115 75.0392 93.605V66.4573L69.9704 69.6028V97.2344ZM47.1158 94.3309L51.7797 97.2182V69.6028L46.7259 66.4573V93.5889C46.7259 93.8953 46.8759 94.1857 47.1158 94.3309ZM36.1984 87.556L39.4526 89.5885C39.9775 89.9111 40.6523 89.5078 40.6523 88.8465V62.6827L35.5985 59.5373V86.4269C35.5985 86.8947 35.8235 87.3302 36.1984 87.556ZM25.071 80.6522L28.3253 82.6846C28.8501 83.0072 29.525 82.604 29.525 81.9426V55.7789L24.4712 52.6496V79.5392C24.4712 79.9908 24.6961 80.4102 25.071 80.6522V80.6522Z" fill="white"/>
<path d="M97.2789 41.342L92.2251 38.1966L83.1222 43.8423L77.0637 40.0839L84.9668 35.1802C85.4917 34.8576 85.4917 34.0188 84.9668 33.6962L81.6976 31.6637C81.3227 31.4379 80.8728 31.4379 80.4979 31.6637L71.9949 36.9384L65.9363 33.18L73.8394 28.2763C74.3643 27.9537 74.3643 27.1149 73.8394 26.7923L70.5702 24.7598C70.1953 24.534 69.7454 24.534 69.3705 24.7598L60.8675 30.0345L52.3646 24.7598C51.9896 24.534 51.5398 24.534 51.1648 24.7598L47.8956 26.7923C47.3707 27.1149 47.3707 27.9537 47.8956 28.2763L92.1951 55.795L97.2489 52.6496L88.146 47.0039L97.2789 41.342V41.342ZM40.0525 31.6637L36.7983 33.6962C36.2734 34.0188 36.2734 34.8576 36.7983 35.1802L81.0977 62.6989L86.1515 59.5534L41.2522 31.6637C40.8773 31.4379 40.4274 31.4379 40.0525 31.6637ZM24.4712 41.342L33.574 46.9877L24.4712 52.6496L29.54 55.7789L38.6278 50.1332L44.7014 53.9077L35.5985 59.5534L40.6523 62.6989L49.7552 57.0371L55.8137 60.8116L46.7109 66.4573L51.7797 69.6028L60.8675 63.9409L69.9704 69.6028L75.0242 66.4573L29.525 38.1966L24.4712 41.342Z" fill="white"/>
<defs>
<linearGradient id="paint0_linear_46_0" x1="61" y1="0" x2="61" y2="122" gradientUnits="userSpaceOnUse">
<stop stop-color="#2BEDA7"/>
<stop offset="0.789609" stop-color="#0DA6E5"/>
<stop offset="0.9999" stop-color="#0593F5"/>
<stop offset="1" stop-color="#018AFD"/>
</linearGradient>
</defs>
</svg>