<?xml version="1.0" encoding="UTF-8"?><!DOCTYPE svg>
<svg width="32" height="32" viewBox="0 0 122 122" 
fill="none" 
xmlns="http://www.w3.org/2000/svg">
<path fill-rule="evenodd" clip-rule="evenodd" d="M34.6666 116.007C4.28693 101.462 -8.55109 65.0398 5.99244 34.6565C12.9766 20.0659 25.47 8.84765 40.7244 3.46957C55.9788 -1.9085 72.7445 -1.00577 87.3334 5.97907C117.713 20.5243 130.551 56.9461 116.008 87.3294C101.464 117.713 65.0465 130.552 34.6666 116.007V116.007Z" fill="#009639"/>
<path opacity="0.8" d="M76.4171 54.5063L66.0952 59.6757C66.3605 60.2636 66.471 60.9326 66.4489 61.6016C66.4268 62.23 66.2721 62.8382 66.0068 63.3855L75.754 68.8185C76.6381 67.8049 77.9421 67.1359 79.3788 67.0345L79.8208 56.4525C79.7103 56.4322 79.6219 56.4119 79.5114 56.3917C78.2074 56.1078 77.1465 55.4186 76.4171 54.5063Z" fill="white"/>
<path opacity="0.8" d="M93.9445 41.8766L63.0453 25.5169C61.7855 24.8277 60.2162 24.8277 58.9343 25.5169L28.0572 41.8766C26.7753 42.5455 26.0017 43.7821 26.0017 45.1404V77.8596C25.9796 78.5286 26.1785 79.1773 26.5321 79.7449C26.8858 80.3125 27.4162 80.7991 28.0351 81.1234L58.9343 97.4831C60.1941 98.1723 61.7634 98.1723 63.0453 97.4831L93.9445 81.1234C95.2264 80.4545 96 79.2179 96 77.8596V45.1404C96 43.8024 95.2264 42.5455 93.9445 41.8766ZM81.0809 66.8113C83.9321 67.237 85.8771 69.7102 85.4129 72.3253C84.9488 74.9404 82.2523 76.7244 79.4011 76.2987C76.5499 75.873 74.6049 73.3998 75.069 70.7846C75.1353 70.4197 75.2458 70.0954 75.3785 69.771L65.4324 64.6625C64.482 65.8585 62.9348 66.6289 61.2108 66.6289C59.4868 66.6289 57.9396 65.8585 56.9892 64.6827L47.0432 69.771C47.2863 70.3184 47.4189 70.9265 47.4189 71.555C47.4189 72.2442 47.2642 72.8929 46.9769 73.4808L57.0998 79.0151C58.0502 77.9002 59.5531 77.1906 61.2108 77.1906C64.1062 77.1906 66.4491 79.3395 66.4491 81.9951C66.4491 84.6508 64.1062 86.7996 61.2108 86.7996C58.3154 86.7996 55.9725 84.6508 55.9725 81.9951C55.9725 81.3059 56.1273 80.6572 56.4146 80.0693L46.2917 74.535C45.3413 75.65 43.8604 76.3595 42.1806 76.3595C39.2852 76.3595 36.9424 74.2106 36.9424 71.555C36.9424 68.8993 39.2852 66.7505 42.1806 66.7505C43.9046 66.7505 45.4518 67.5208 46.4022 68.6966L56.3483 63.588C56.1052 63.0407 55.9725 62.4325 55.9725 61.8041C55.9725 59.3512 57.9618 57.3442 60.5477 57.0401V45.7485C59.1332 45.5864 57.8954 44.8971 57.0556 43.9038L46.5348 49.5394C46.8 50.1071 46.9548 50.7558 46.9548 51.4045C46.9548 54.0601 44.6119 56.209 41.7165 56.209C38.8211 56.209 36.4782 54.0601 36.4782 51.4045C36.4782 48.7488 38.8211 46.6 41.7165 46.6C43.4184 46.6 44.9213 47.3298 45.8717 48.4853L56.3925 42.8496C56.1273 42.282 55.9725 41.6333 55.9725 40.9846C55.9725 38.3289 58.3154 36.1801 61.2108 36.1801C64.1062 36.1801 66.4491 38.3289 66.4491 40.9846C66.4491 43.4375 64.4599 45.4445 61.8739 45.7485V57.0401C63.2663 57.2023 64.5041 57.8713 65.3219 58.8241L75.4448 53.3101C75.0469 52.4586 74.9143 51.4856 75.1132 50.4922C75.6658 47.8771 78.4065 46.1743 81.2577 46.6811C84.1089 47.1879 85.9655 49.7016 85.4129 52.3167C84.9709 54.4047 83.1143 55.9252 80.9262 56.1684V66.7708C80.9704 66.791 81.0367 66.8113 81.0809 66.8113Z" fill="white"/>
</svg>