<?xml version="1.0" encoding="UTF-8"?><!DOCTYPE svg>
<svg width="20" height="20" viewBox="0 0 31 32" fill="none" xmlns="http://www.w3.org/2000/svg">
<path d="M26.1033 16.3597C27.0964 16.9282 28.0894 17.4969 29.0824 18.0656C29.2952 18.1874 29.5084 18.3085 29.7415 18.4414C29.667 18.4855 29.6054 18.523 29.5426 18.5593C27.3215 19.8457 25.1001 21.1321 22.8786 22.4184C20.4352 23.8331 17.992 25.2484 15.549 26.6642C15.4612 26.7152 15.3973 26.7265 15.3001 26.6708C10.5944 23.9755 5.88736 21.2826 1.17895 18.592C1.13666 18.5677 1.09509 18.5424 1.02927 18.5033C2.26199 17.8 3.47931 17.1054 4.69664 16.4108C4.7458 16.4333 4.79719 16.452 4.84389 16.4787C5.94114 17.1048 7.0381 17.7315 8.13471 18.3587C10.5034 19.7133 12.8715 21.0688 15.239 22.4251C15.3651 22.4975 15.4609 22.5086 15.595 22.4308C18.7404 20.6031 21.8881 18.7789 25.0379 16.9583C25.3904 16.7544 25.7318 16.531 26.1033 16.3597Z" fill="white"/>
<path d="M26.1034 16.3597C25.7318 16.531 25.3904 16.7544 25.0379 16.9583C21.8885 18.7796 18.7409 20.6037 15.595 22.4306C15.461 22.5086 15.3652 22.4975 15.239 22.4251C12.8722 21.0675 10.5041 19.712 8.13472 18.3587C7.03811 17.7315 5.94115 17.1049 4.84391 16.4787C4.7972 16.452 4.74582 16.4333 4.69665 16.4108C4.35797 16.1728 3.98604 15.9888 3.62841 15.7818C2.80772 15.3069 1.98209 14.8401 1.15872 14.3696C1.1217 14.3484 1.08724 14.3229 1.02606 14.2826C2.26267 13.577 3.48185 12.8813 4.70103 12.1855C4.70283 12.6218 4.70857 13.0581 4.70365 13.4942C4.70243 13.604 4.73121 13.68 4.83133 13.7277C4.4757 13.8826 4.15817 14.1038 3.82055 14.2901C3.64641 14.3862 3.64813 14.3954 3.81631 14.4922C4.69741 14.999 5.58045 15.5027 6.45966 16.0126C6.53731 16.0576 6.58421 16.0413 6.64987 16.0033C7.01199 15.7937 7.37631 15.5877 7.73988 15.3805C8.24338 15.6368 8.728 15.9255 9.21606 16.2082C8.81979 16.437 8.42362 16.6659 8.01074 16.9044C8.93833 17.44 9.83804 17.9593 10.7372 18.4795C10.7885 18.5092 10.8337 18.5184 10.8887 18.4857C11.2715 18.258 11.6551 18.0314 12.0394 17.8061C12.4321 18.0249 12.8249 18.2435 13.2178 18.4621C13.2684 18.4901 13.3131 18.5362 13.3802 18.5242C13.3788 18.5432 13.3865 18.5472 13.4028 18.5372L13.3851 18.5199C13.3516 18.447 13.3206 18.3728 13.2841 18.3013C13.1298 17.9992 12.9499 17.7098 12.8192 17.3961C12.8521 17.3427 12.9095 17.32 12.9603 17.2906C13.2383 17.1297 13.5167 16.97 13.796 16.8112C13.8337 16.7898 13.8885 16.7736 13.8902 16.7298C13.8919 16.6819 13.831 16.6745 13.7951 16.6538C13.3759 16.4111 12.9579 16.1661 12.5354 15.9292C12.2995 15.7969 12.0788 15.6364 11.8197 15.5456C11.5922 15.119 11.3613 14.6941 11.1379 14.2653C10.9396 13.8845 10.7171 13.5158 10.5443 13.1221C10.7112 13.1651 10.8469 13.2689 10.989 13.3554C11.0907 13.4173 11.1624 13.4061 11.257 13.3506C11.7364 13.0693 12.2194 12.7939 12.7007 12.5159C13.1009 12.2848 13.5006 12.0529 13.9151 11.8129C13.8619 11.7763 13.8245 11.7464 13.7834 11.7227C12.891 11.2088 11.9987 10.6946 11.1066 10.1802C11.0344 10.1384 10.9857 10.1568 10.927 10.1912C10.5881 10.3889 10.2526 10.5927 9.90772 10.78C9.75146 10.8649 9.61428 10.989 9.43126 11.0239C9.39333 11.0064 9.3825 10.9689 9.36516 10.9363C9.17011 10.5673 8.97507 10.1981 8.78013 9.82894C9.15028 9.66499 9.48761 9.44318 9.8375 9.24401C11.6903 8.18935 13.5418 7.13221 15.3918 6.07257C15.392 6.58895 15.3921 7.10532 15.3923 7.62165C14.4315 8.17483 13.4708 8.728 12.4905 9.29245C12.8305 9.48804 13.1459 9.67019 13.462 9.85115C14.1051 10.2194 14.7486 10.5872 15.3921 10.9547C15.3924 11.5246 15.3926 12.0944 15.3928 12.6642C15.3765 12.6661 15.3606 12.6702 15.3454 12.6764C14.7029 13.0458 14.0606 13.4156 13.4186 13.786C13.1467 13.9428 12.8757 14.1011 12.5886 14.2679C12.6177 14.2882 12.6304 14.2985 12.6445 14.3066C13.5223 14.8134 14.3999 15.3205 15.2774 15.828C15.3662 15.8795 15.4367 15.8669 15.52 15.8182C16.0611 15.5022 16.6044 15.1896 17.147 14.876C17.4905 14.6775 17.8341 14.4792 18.2018 14.2669C17.755 14.0142 17.3299 13.7737 16.9047 13.5331C17.2309 13.3481 17.5599 13.1677 17.8818 12.976C18.0427 12.8801 18.2257 12.8162 18.3574 12.6753L18.3717 12.6734L18.3861 12.6737C18.426 12.737 18.4971 12.7592 18.557 12.794C19.9897 13.6239 21.4232 14.4525 22.8575 15.2798C23.2958 15.5317 23.7238 15.8013 24.177 16.0279C24.2245 16.0345 24.2616 16.0085 24.2988 15.987C25.2288 15.4522 26.1584 14.9168 27.0877 14.3807C27.2377 14.2939 27.2348 14.2817 27.0753 14.1897C26.6364 13.9366 26.1973 13.6841 25.758 13.432C25.2335 13.1323 24.7085 12.8334 24.1829 12.5354C24.1829 12.0412 24.1829 11.547 24.1829 11.0528C25.391 11.7405 26.5992 12.4283 27.8073 13.116C28.3995 13.4531 28.9915 13.7906 29.5835 14.1282C29.6339 14.1569 29.6976 14.1713 29.7259 14.2404C28.8634 14.7401 27.9991 15.2374 27.1389 15.7407C26.7918 15.9438 26.4303 16.124 26.1034 16.3597ZM18.4503 19.3572C18.437 19.3401 18.4221 19.3244 18.4054 19.3104C17.4377 18.7526 16.4702 18.1945 15.5028 17.6365C15.4698 17.6138 15.4305 17.6017 15.3902 17.6019C15.35 17.602 15.3108 17.6145 15.2779 17.6373C14.3255 18.1889 13.372 18.7385 12.4173 19.2861C12.3225 19.3405 12.3034 19.3825 12.4125 19.4374C12.4464 19.4544 12.4771 19.4777 12.5101 19.4968C13.4253 20.0256 14.3403 20.5549 15.2551 21.0847C15.2852 21.1064 15.3216 21.1181 15.3591 21.1181C15.3965 21.1181 15.4329 21.1064 15.4631 21.0847C16.1362 20.6923 16.812 20.3044 17.4867 19.9149C17.8065 19.7303 18.1258 19.545 18.4503 19.3572ZM22.7199 16.8964C22.7062 16.8775 22.702 16.8656 22.6934 16.8606C21.7162 16.2966 20.7389 15.7325 19.7616 15.1685C19.6859 15.1248 19.6298 15.1312 19.5528 15.1761C18.9406 15.5328 18.3241 15.8827 17.7097 16.2358C17.4328 16.3951 17.1573 16.5569 16.8672 16.7256C16.9098 16.7546 16.9349 16.7743 16.9623 16.7902C17.9197 17.3449 18.8772 17.8998 19.8346 18.4547C19.9129 18.5002 19.972 18.4815 20.0453 18.4389C20.5969 18.1186 21.1517 17.8038 21.7046 17.4857C22.0435 17.2908 22.3808 17.0933 22.7199 16.8964Z" fill="white"/>
<path d="M4.83146 13.7277C4.73134 13.6802 4.70256 13.604 4.70378 13.4943C4.70869 13.0582 4.70295 12.6219 4.70113 12.1857C4.70447 12.116 4.71075 12.0462 4.71075 11.9765C4.71125 8.73874 4.71139 5.49643 4.71118 2.24959C4.78521 2.28 4.79604 2.34799 4.82296 2.39855C6.11922 4.83253 7.41462 7.26691 8.70915 9.70173C8.73201 9.74464 8.7565 9.78657 8.78023 9.82894C8.97528 10.1981 9.17033 10.5673 9.36538 10.9364C9.3826 10.969 9.39344 11.0065 9.43137 11.0239C9.43213 11.0808 9.4668 11.1244 9.49194 11.1716C9.7325 11.6242 9.97154 12.0775 10.2145 12.5288C10.3217 12.7281 10.4108 12.9371 10.5445 13.1222C10.7172 13.5159 10.9397 13.8846 11.138 14.2654C11.3614 14.6942 11.5923 15.1191 11.8198 15.5457C12.0778 16.0323 12.3342 16.5196 12.5946 17.005C12.6656 17.1374 12.7205 17.2792 12.8193 17.3962C12.9501 17.7099 13.1299 17.9993 13.2842 18.3014C13.3207 18.3729 13.3517 18.4471 13.3852 18.52L13.3802 18.5244C13.3132 18.5363 13.2685 18.4902 13.2179 18.4622C12.8247 18.2442 12.4318 18.0255 12.0395 17.8062C11.9231 17.737 11.808 17.6657 11.6901 17.5993C10.8658 17.135 10.0412 16.6714 9.21616 16.2083C8.72811 15.9255 8.24351 15.6368 7.73998 15.3806C7.72986 15.3684 7.71824 15.3575 7.70536 15.3479C6.7476 14.8075 5.78961 14.2675 4.83146 13.7277Z" fill="white"/>
<path d="M15.3923 7.62187C15.3921 7.10547 15.3919 6.58912 15.3918 6.07274C15.3933 5.49124 15.3986 4.90971 15.3934 4.32823C15.3923 4.20826 15.4355 4.14871 15.5391 4.09197C17.8621 2.82057 20.1839 1.54694 22.5044 0.271127C22.6561 0.187874 22.658 0.188536 22.658 0.365314C22.658 2.66471 22.6576 4.96408 22.6571 7.26348C22.5982 7.26351 22.5568 7.22464 22.5106 7.19758C21.1532 6.40166 19.7958 5.60567 18.4383 4.80958C18.4043 4.78963 18.3746 4.7489 18.3253 4.77187C18.3237 4.77771 18.3226 4.78368 18.3221 4.78973C18.3214 7.37426 18.321 9.95864 18.3209 12.5431C18.3209 12.5893 18.3054 12.6421 18.3574 12.6755C18.2256 12.8163 18.0427 12.8803 17.8818 12.9761C17.5598 13.1679 17.2308 13.3482 16.9047 13.5333C16.4531 13.7852 16.0015 14.0369 15.55 14.2887C15.3997 14.3725 15.399 14.3721 15.3982 14.197C15.3961 13.6861 15.3943 13.1752 15.3928 12.6644C15.3926 12.0945 15.3923 11.5247 15.3921 10.9549C15.3922 9.84389 15.3922 8.73288 15.3923 7.62187Z" fill="white"/>
<path d="M18.3574 12.6754C18.3055 12.642 18.3209 12.5892 18.3209 12.543C18.3208 9.95854 18.3212 7.37405 18.3221 4.78964C18.3226 4.7836 18.3238 4.77762 18.3253 4.77178C18.3746 4.74881 18.4044 4.78954 18.4384 4.80949C19.7961 5.60511 21.1535 6.40113 22.5107 7.19749C22.5568 7.22455 22.5982 7.26338 22.6572 7.26338C22.6626 7.27212 22.6654 7.28216 22.6654 7.29235C22.6643 8.22338 22.6615 9.15429 22.664 10.0852C22.6644 10.2108 22.6314 10.2921 22.5107 10.3567C22.1654 10.5412 21.8282 10.7406 21.4875 10.9336C20.7823 11.333 20.077 11.7321 19.3714 12.1307C19.0447 12.3146 18.7147 12.493 18.3861 12.6737L18.3717 12.6735L18.3574 12.6754Z" fill="white"/>
<path d="M18.3862 12.6738C18.7148 12.493 19.0448 12.3147 19.3715 12.1308C20.0778 11.7333 20.7831 11.3343 21.4876 10.9336C21.8283 10.7406 22.1655 10.5413 22.5108 10.3566C22.6315 10.2922 22.6645 10.2109 22.6642 10.0852C22.6617 9.1544 22.6645 8.22337 22.6656 7.29245C23.1457 7.57148 23.625 7.85202 24.1071 8.1278C24.1878 8.17406 24.1776 8.23962 24.1776 8.30832C24.1777 9.15862 24.1778 10.009 24.1779 10.8594C24.1779 10.9239 24.1813 10.9884 24.183 11.0529C24.183 11.5471 24.183 12.0413 24.1829 12.5357C24.181 13.6998 24.179 14.864 24.1771 16.0281C23.7239 15.8014 23.2959 15.5318 22.8576 15.2799C21.4221 14.4547 19.9886 13.6261 18.5572 12.7941C18.4972 12.7593 18.4261 12.7371 18.3862 12.6738Z" fill="white"/>
<path d="M4.784 22.4952C5.36248 22.4929 5.91517 22.5861 6.40479 22.9159C6.5083 22.987 6.59985 23.0735 6.67614 23.1725C6.86168 23.4084 6.83363 23.6955 6.60965 23.934C6.31287 24.2501 5.92122 24.3834 5.51018 24.4683C4.94115 24.5891 4.35028 24.5659 3.79288 24.4008C3.46115 24.303 3.14122 24.1684 2.92791 23.8804C2.69534 23.5664 2.7589 23.2326 3.07118 22.9891C3.41221 22.7231 3.80858 22.6025 4.22802 22.5287C4.41309 22.4961 4.59807 22.4992 4.784 22.4952Z" fill="white"/>
<path d="M20.9507 27.5775C20.3488 27.5847 19.8052 27.4772 19.3171 27.1605C19.2217 27.097 19.1373 27.0189 19.0669 26.9292C18.8578 26.6689 18.8777 26.3779 19.1156 26.1304C19.3984 25.836 19.7657 25.6957 20.1539 25.6144C20.8475 25.4691 21.5327 25.5057 22.1968 25.7677C22.4026 25.8439 22.5878 25.9655 22.7383 26.123C23.0406 26.4532 22.9748 26.8486 22.601 27.1225C22.2639 27.3695 21.6364 27.5992 20.9507 27.5775Z" fill="white"/>
<path d="M15.4025 28.7991C16.0672 28.797 16.6227 28.8886 17.1048 29.2279C17.343 29.3956 17.5326 29.6057 17.4636 29.9294C17.4214 30.1282 17.2932 30.2739 17.1292 30.3908C16.76 30.6541 16.3378 30.7606 15.8916 30.814C15.2918 30.8857 14.7155 30.8167 14.1614 30.582C13.9438 30.49 13.7505 30.3629 13.6056 30.172C13.4195 29.9271 13.436 29.6213 13.6565 29.3938C13.9436 29.0978 14.3128 28.9577 14.7075 28.8695C14.9644 28.8123 15.2246 28.7868 15.4025 28.7991Z" fill="white"/>
<path d="M10.1051 27.5771C9.47373 27.585 8.95425 27.488 8.48289 27.2042C8.34294 27.12 8.21484 27.0209 8.1269 26.8788C7.92702 26.556 8.02977 26.22 8.41397 25.9592C8.72605 25.7473 9.07919 25.6318 9.4487 25.5771C10.0399 25.4896 10.6253 25.5199 11.1905 25.7313C11.4268 25.8196 11.6465 25.9347 11.8257 26.1192C12.1185 26.4208 12.0955 26.7886 11.7688 27.0611C11.4312 27.3425 11.0306 27.4664 10.6068 27.5426C10.4411 27.5697 10.2731 27.5812 10.1051 27.5771Z" fill="white"/>
<path d="M26.1179 22.4961C26.6878 22.4872 27.1753 22.5833 27.6305 22.8202C27.7519 22.8827 27.8622 22.964 27.9573 23.0609C28.2596 23.3698 28.2223 23.7737 27.8806 24.0423C27.5395 24.3106 27.1408 24.4353 26.7219 24.4976C26.1014 24.5897 25.4906 24.5467 24.9035 24.306C24.7464 24.2421 24.5992 24.1569 24.4662 24.0529C24.0466 23.7232 24.0778 23.2356 24.5369 22.9211C24.8484 22.7076 25.2036 22.602 25.5712 22.5325C25.7514 22.5002 25.9349 22.4881 26.1179 22.4961Z" fill="white"/>
<path d="M18.4502 19.3572C18.1257 19.545 17.8064 19.7303 17.4867 19.9149C16.8119 20.3044 16.1361 20.6923 15.4631 21.0847C15.4329 21.1064 15.3964 21.1181 15.359 21.1181C15.3216 21.1181 15.2852 21.1064 15.255 21.0846C14.3413 20.5533 13.4263 20.0241 12.5101 19.4968C12.477 19.4777 12.4464 19.4544 12.4123 19.4374C12.3033 19.3825 12.3224 19.3405 12.4172 19.2862C13.3719 18.7384 14.3254 18.1888 15.2779 17.6373C15.3108 17.6145 15.35 17.602 15.3902 17.6019C15.4304 17.6017 15.4697 17.6137 15.5028 17.6365C16.4693 18.1961 17.4368 18.7541 18.4054 19.3104C18.422 19.3244 18.437 19.3401 18.4502 19.3572Z" fill="white"/>
<path d="M22.7199 16.8964C22.3809 17.0933 22.0436 17.2908 21.7047 17.4858C21.1518 17.8038 20.597 18.1186 20.0454 18.4389C19.9721 18.4815 19.913 18.5001 19.8347 18.4547C18.8777 17.8989 17.9204 17.3441 16.9624 16.7902C16.935 16.7744 16.9099 16.7547 16.8673 16.7256C17.1574 16.5569 17.4329 16.3951 17.7098 16.2358C18.3243 15.8827 18.9407 15.5328 19.5528 15.1761C19.6299 15.1312 19.686 15.1248 19.7616 15.1686C20.7384 15.7336 21.7157 16.2976 22.6935 16.8606C22.7021 16.8656 22.7063 16.8775 22.7199 16.8964Z" fill="white"/>
<path d="M10.5445 13.1222C10.4108 12.9371 10.3217 12.7281 10.2145 12.5288C9.97154 12.0775 9.73239 11.6241 9.49194 11.1716C9.4668 11.1244 9.43212 11.0808 9.43137 11.0239C9.61439 10.989 9.75168 10.865 9.90793 10.78C10.2527 10.5928 10.5882 10.3889 10.9271 10.1912C10.9859 10.1569 11.0345 10.1384 11.1067 10.1803C11.9975 10.6969 12.8898 11.211 13.7835 11.7227C13.8246 11.7465 13.8621 11.7763 13.9153 11.8129C13.5007 12.0529 13.101 12.2848 12.7008 12.516C12.2195 12.794 11.7365 13.0694 11.2571 13.3506C11.1625 13.4062 11.0909 13.4174 10.9893 13.3555C10.847 13.2689 10.7114 13.1651 10.5445 13.1222Z" fill="white"/>
<path d="M15.3929 12.6643C15.3946 13.1751 15.3965 13.686 15.3983 14.1969C15.3991 14.372 15.3998 14.3722 15.5501 14.2885C16.0018 14.0369 16.4533 13.7851 16.9047 13.5332C17.3299 13.7738 17.7551 14.0142 18.2018 14.267C17.8341 14.4793 17.4905 14.6775 17.1471 14.876C16.6045 15.1896 16.0613 15.5022 15.5201 15.8182C15.4368 15.8669 15.3663 15.8795 15.2774 15.8279C14.4008 15.3191 13.5231 14.8121 12.6445 14.3066C12.6305 14.2985 12.6178 14.2882 12.5888 14.2679C12.8757 14.1011 13.1467 13.9429 13.4186 13.786C14.0606 13.4156 14.7029 13.0458 15.3454 12.6764C15.3606 12.6702 15.3765 12.6662 15.3929 12.6643Z" fill="white"/>
<path d="M24.1768 16.0281C24.1789 14.864 24.1809 13.6999 24.1828 12.5357C24.7079 12.8344 25.2329 13.1333 25.7579 13.4322C26.1977 13.6836 26.6368 13.9361 27.0753 14.1898C27.2348 14.2818 27.2376 14.2941 27.0876 14.3808C26.1589 14.9177 25.2292 15.4531 24.2988 15.9872C24.2615 16.0086 24.2245 16.0347 24.1768 16.0281Z" fill="white"/>
<path d="M15.3925 7.62187C15.3924 8.73288 15.3924 9.8439 15.3924 10.9549C14.7489 10.587 14.1055 10.2193 13.4621 9.85137C13.1461 9.67041 12.8306 9.48826 12.4906 9.29256C13.4709 8.72812 14.4317 8.17494 15.3925 7.62187Z" fill="white"/>
<path d="M9.21617 16.2082C10.0409 16.6718 10.8655 17.1354 11.6901 17.5992C11.808 17.6656 11.9231 17.737 12.0395 17.8061C11.6558 18.0324 11.2722 18.2589 10.8888 18.4857C10.8338 18.5184 10.7886 18.5092 10.7372 18.4795C9.83815 17.9594 8.93844 17.44 8.01085 16.9044C8.42373 16.6659 8.8199 16.437 9.21617 16.2082Z" fill="white"/>
<path d="M4.83137 13.7277C5.78943 14.2677 6.74742 14.8077 7.70531 15.3479C7.71816 15.3573 7.72978 15.3684 7.73993 15.3806C7.37636 15.5878 7.01204 15.7937 6.64992 16.0034C6.58426 16.0413 6.53735 16.0577 6.45974 16.0126C5.58049 15.5027 4.69749 14.999 3.81639 14.4922C3.64818 14.3954 3.64646 14.3862 3.8206 14.2901C4.15822 14.1038 4.47578 13.8827 4.83137 13.7277Z" fill="white"/>
<path d="M13.3853 18.5201L13.4035 18.5379C13.3868 18.5483 13.3788 18.5442 13.3803 18.5244C13.3801 18.5245 13.3853 18.5201 13.3853 18.5201Z" fill="white"/>
</svg>
