<?xml version="1.0" encoding="UTF-8"?><!DOCTYPE svg>
<svg width="32" height="32" viewBox="0 0 122 122" fill="none" xmlns="http://www.w3.org/2000/svg">
    <path fill-rule="evenodd" clip-rule="evenodd" d="M34.6666 116.007C4.28693 101.462 -8.55109 65.0398 5.99244 34.6565C12.9766 20.0659 25.47 8.84765 40.7244 3.46957C55.9788 -1.9085 72.7445 -1.00577 87.3334 5.97907C117.713 20.5243 130.551 56.9461 116.008 87.3294C101.464 117.713 65.0465 130.552 34.6666 116.007V116.007Z" fill="#6ED3B9"/>
    <path d="M87.0027 62.8589C89.4159 64.2351 91.8292 65.6113 94.2425 66.9874C94.7596 67.2822 95.2776 67.5755 95.8434 67.897C95.6629 68.0037 95.5128 68.0946 95.3608 68.1822C89.9627 71.2957 84.5646 74.4089 79.1663 77.522C73.2284 80.9461 67.2911 84.3713 61.3545 87.7976C61.1408 87.921 60.9857 87.9483 60.7495 87.8136C49.314 81.2908 37.8752 74.7734 26.4331 68.2614C26.3303 68.2029 26.2293 68.1414 26.0693 68.0469C29.065 66.3447 32.0233 64.6637 34.9815 62.9828C35.101 63.0371 35.2259 63.0824 35.3394 63.1469C38.0059 64.6623 40.6716 66.1789 43.3366 67.6968C49.0926 70.9752 54.8474 74.2558 60.601 77.5384C60.9075 77.7135 61.1403 77.7402 61.4659 77.5519C69.11 73.1287 76.7592 68.714 84.4135 64.3077C85.2701 63.8144 86.0999 63.2736 87.0027 62.8589Z" fill="white"/>
    <path d="M87.0027 62.8584C86.0999 63.2732 85.2701 63.8139 84.4135 64.3073C76.7601 68.715 69.1109 73.1297 61.4659 77.5514C61.1403 77.7398 60.9075 77.7131 60.601 77.538C54.8493 74.2522 49.0945 70.9716 43.3366 67.6964C40.6716 66.1785 38.0059 64.6619 35.3394 63.1465C35.2259 63.082 35.101 63.0367 34.9816 62.9824C34.1585 62.4061 33.2547 61.9609 32.3856 61.46C30.3912 60.3105 28.3848 59.1809 26.384 58.0422C26.294 57.991 26.2102 57.9292 26.0615 57.8317C29.0667 56.1239 32.0294 54.4402 34.9922 52.7564C34.9966 53.8122 35.0106 54.868 34.9986 55.9236C34.9956 56.1891 35.0656 56.3735 35.3088 56.4887C34.4446 56.8636 33.673 57.399 32.8525 57.8498C32.4293 58.0824 32.4335 58.1046 32.8423 58.3388C34.9835 59.5654 37.1293 60.7843 39.266 62.0185C39.4546 62.1275 39.5686 62.088 39.7282 61.996C40.6081 61.4887 41.4935 60.9904 42.377 60.4889C43.6006 61.1089 44.7783 61.8076 45.9643 62.4919C45.0014 63.0458 44.0386 63.5997 43.0352 64.1768C45.2894 65.4732 47.4758 66.73 49.6608 67.9889C49.7855 68.0608 49.8954 68.083 50.0291 68.0039C50.9595 67.4529 51.8916 66.9047 52.8253 66.3591C53.7797 66.8887 54.7343 67.4179 55.689 67.9467C55.8121 68.0146 55.9207 68.1261 56.0838 68.0969C56.0804 68.1432 56.0992 68.1529 56.1387 68.1286L56.0957 68.0868C56.0142 67.9102 55.9389 67.7305 55.8501 67.5575C55.4753 66.8265 55.0383 66.1263 54.7206 65.367C54.8003 65.2377 54.94 65.1827 55.0635 65.1115C55.7388 64.7221 56.4157 64.3354 57.0942 63.9515C57.1859 63.8993 57.3192 63.8603 57.323 63.7543C57.3272 63.6384 57.1792 63.6205 57.0921 63.5703C56.0733 62.983 55.0577 62.3901 54.0308 61.8166C53.4575 61.4964 52.9212 61.1079 52.2916 60.8883C51.7385 59.8559 51.1773 58.8275 50.6347 57.7899C50.1528 56.8682 49.6119 55.9758 49.1923 55.0231C49.5978 55.127 49.9275 55.3783 50.273 55.5877C50.52 55.7374 50.6943 55.7104 50.9242 55.576C52.0891 54.8953 53.2627 54.2288 54.4324 53.556C55.4049 52.9966 56.3763 52.4353 57.3837 51.8545C57.2544 51.7657 57.1635 51.6935 57.0636 51.6362C54.8948 50.3926 52.7265 49.1482 50.5586 47.9032C50.3832 47.8019 50.2649 47.8466 50.1221 47.9296C49.2985 48.4082 48.4832 48.9014 47.6453 49.3547C47.2655 49.5601 46.9322 49.8605 46.4873 49.9451C46.3951 49.9026 46.3687 49.8119 46.3268 49.7331C45.8526 48.8398 45.3787 47.9465 44.905 47.053C45.8045 46.6561 46.6242 46.1194 47.4744 45.6375C51.9773 43.0849 56.4765 40.5264 60.9723 37.9619C60.9727 39.2116 60.9731 40.4613 60.9735 41.711C58.6387 43.0497 56.3039 44.3885 53.9215 45.7545C54.748 46.228 55.5144 46.6689 56.2825 47.1068C57.8456 47.9979 59.4091 48.8882 60.9731 49.7776C60.9736 51.1567 60.9741 52.5357 60.9747 53.9148C60.9351 53.9195 60.8963 53.9295 60.8595 53.9444C59.298 54.8384 57.7371 55.7335 56.1769 56.6297C55.5162 57.0093 54.8577 57.3925 54.1602 57.7959C54.2309 57.845 54.2617 57.87 54.2958 57.8896C56.429 59.1161 58.5618 60.3435 60.6941 61.5716C60.9102 61.6964 61.0813 61.6658 61.2838 61.5481C62.5989 60.7833 63.919 60.0267 65.2377 59.2678C66.0723 58.7874 66.9073 58.3075 67.8007 57.7938C66.7152 57.1821 65.682 56.6 64.6489 56.0179C65.4413 55.57 66.2408 55.1335 67.0233 54.6694C67.4144 54.4374 67.859 54.2827 68.179 53.9417L68.2137 53.9371L68.2488 53.9378C68.3458 54.091 68.5185 54.1448 68.6642 54.2289C72.1458 56.2375 75.6293 58.2428 79.1148 60.245C80.1798 60.8547 81.2201 61.5072 82.3213 62.0556C82.437 62.0716 82.527 62.0085 82.6175 61.9567C84.8775 60.6623 87.1366 59.3664 89.3948 58.069C89.7593 57.8591 89.7523 57.8292 89.3646 57.6066C88.2982 56.9943 87.2311 56.3832 86.1634 55.7731C84.8889 55.0476 83.6129 54.3243 82.3357 53.6033C82.3357 52.4071 82.3357 51.211 82.3358 50.0148C85.2717 51.6794 88.2077 53.3439 91.1436 55.0084C92.5828 55.8243 94.0216 56.6409 95.4601 57.458C95.582 57.5275 95.7375 57.5624 95.806 57.7295C93.7096 58.939 91.6098 60.1423 89.5191 61.3606C88.6757 61.8521 87.7972 62.2881 87.0027 62.8584ZM68.4047 70.1132C68.3727 70.0717 68.3361 70.0337 68.2956 70C65.9442 68.6498 63.593 67.2993 61.2419 65.9485C61.1617 65.8937 61.0662 65.8645 60.9684 65.8649C60.8706 65.8653 60.7753 65.8953 60.6956 65.9508C58.3811 67.2856 56.0639 68.6157 53.7438 69.9412C53.5134 70.0728 53.467 70.1743 53.732 70.3072C53.8145 70.3485 53.8891 70.4048 53.9693 70.451C56.1935 71.7308 58.417 73.0117 60.6398 74.2938C60.7132 74.3463 60.8017 74.3747 60.8926 74.3747C60.9835 74.3748 61.0721 74.3465 61.1455 74.294C62.7812 73.3445 64.4234 72.4055 66.0632 71.4628C66.8402 71.016 67.6161 70.5678 68.4047 70.1132V70.1132ZM78.7802 64.1573C78.7472 64.1118 78.7368 64.0828 78.7162 64.071C76.3413 62.7058 73.9663 61.3408 71.5914 59.9757C71.4075 59.8698 71.2711 59.8855 71.084 59.994C69.5961 60.8574 68.0983 61.7042 66.6052 62.5589C65.932 62.9442 65.2627 63.3358 64.5578 63.7442C64.6611 63.8145 64.7221 63.862 64.7887 63.9004C67.1154 65.243 69.4421 66.5858 71.7687 67.9288C71.959 68.0389 72.1026 67.9936 72.2809 67.8905C73.6212 67.1153 74.9696 66.3534 76.3132 65.5838C77.1367 65.1121 77.9564 64.634 78.7802 64.1573V64.1573Z" fill="white"/>
    <path d="M35.3088 56.4892C35.0655 56.374 34.9956 56.1897 34.9986 55.9242C35.0105 54.8686 34.9966 53.8128 34.9922 52.757C35.0003 52.5883 35.0155 52.4196 35.0156 52.2509C35.0167 44.4148 35.0171 36.5679 35.0166 28.71C35.1965 28.7836 35.2228 28.9481 35.2882 29.0705C38.4383 34.9611 41.5863 40.8528 44.7323 46.7456C44.7876 46.8492 44.8472 46.9507 44.9049 47.0534C45.3789 47.947 45.8528 48.8404 46.3268 49.7336C46.3687 49.8125 46.3951 49.9032 46.4873 49.9456C46.489 50.0832 46.5733 50.1885 46.6343 50.3029C47.2189 51.3982 47.8001 52.4953 48.3903 53.5876C48.6508 54.0698 48.8676 54.5758 49.1923 55.0237C49.6119 55.9764 50.1528 56.8688 50.6347 57.7905C51.1773 58.8281 51.7385 59.8565 52.2916 60.8889C52.9184 62.0665 53.5417 63.246 54.1743 64.4206C54.3468 64.741 54.4802 65.0843 54.7205 65.3676C55.0383 66.1269 55.4753 66.8271 55.8501 67.5581C55.9389 67.7311 56.0142 67.9108 56.0957 68.0874L56.0834 68.0978C55.9207 68.1267 55.8121 68.0152 55.689 67.9473C54.7335 67.4198 53.7789 66.8905 52.8253 66.3596C52.5425 66.1925 52.2629 66.0197 51.9764 65.859C49.9732 64.7355 47.9692 63.6133 45.9643 62.4925C44.7783 61.8082 43.6006 61.1095 42.377 60.4896C42.3524 60.4599 42.3241 60.4333 42.2929 60.4103C39.9653 59.1025 37.6373 57.7955 35.3088 56.4892Z" fill="white"/>
    <path d="M60.9734 41.7116C60.973 40.4619 60.9726 39.2122 60.9722 37.9625C60.976 36.5551 60.9889 35.1477 60.976 33.7405C60.9734 33.4501 61.0783 33.3059 61.3301 33.1687C66.9754 30.0916 72.6176 27.0093 78.2569 23.9216C78.6255 23.7201 78.6301 23.7217 78.6301 24.1495C78.6299 29.7144 78.6291 35.2793 78.6279 40.8443C78.4845 40.8443 78.3841 40.7503 78.2719 40.6848C74.9731 38.7585 71.6744 36.8321 68.3758 34.9054C68.2931 34.8571 68.2208 34.7585 68.101 34.8141C68.0972 34.8283 68.0945 34.8428 68.093 34.8574C68.0914 41.1123 68.0905 47.3672 68.0902 53.6221C68.0902 53.7338 68.0527 53.8615 68.1789 53.9423C67.8589 54.2832 67.4143 54.438 67.0232 54.67C66.2407 55.134 65.4412 55.5706 64.6487 56.0185C63.5514 56.628 62.4541 57.2373 61.3567 57.8465C60.9915 58.0492 60.9896 58.0485 60.9878 57.6247C60.9827 56.3883 60.9783 55.1518 60.9746 53.9154C60.974 52.5363 60.9735 51.1572 60.973 49.7782C60.9731 47.0893 60.9733 44.4005 60.9734 41.7116Z" fill="white"/>
    <path d="M68.1789 53.9421C68.0526 53.8613 68.0902 53.7336 68.0902 53.6218C68.0899 47.3669 68.0908 41.112 68.093 34.8571C68.0945 34.8425 68.0971 34.8281 68.101 34.8139C68.2208 34.7583 68.293 34.8569 68.3757 34.9052C71.675 36.8308 74.9737 38.7572 78.2719 40.6846C78.3841 40.7501 78.4845 40.8441 78.6279 40.844C78.6411 40.8652 78.648 40.8895 78.6479 40.9142C78.6452 43.1673 78.6385 45.4204 78.6446 47.6734C78.6454 47.9774 78.5652 48.1741 78.272 48.3302C77.4328 48.777 76.6133 49.2594 75.7853 49.7265C74.0717 50.6932 72.3576 51.659 70.643 52.624C69.849 53.069 69.047 53.5005 68.2486 53.9381L68.2136 53.9375L68.1789 53.9421Z" fill="white"/>
    <path d="M68.2485 53.9384C69.0469 53.5008 69.8489 53.0693 70.6429 52.6243C72.3592 51.6622 74.0733 50.6964 75.7852 49.7268C76.6132 49.2597 77.4327 48.7773 78.2719 48.3305C78.5651 48.1744 78.6453 47.9777 78.6445 47.6737C78.6384 45.4207 78.6451 43.1676 78.6478 40.9146C79.8148 41.5898 80.9795 42.2688 82.151 42.9364C82.3472 43.0482 82.3224 43.2069 82.3224 43.3731C82.3226 45.4312 82.3228 47.4892 82.3231 49.5472C82.3232 49.7033 82.3312 49.8594 82.3355 50.0154C82.3355 51.2116 82.3355 52.4078 82.3354 53.604C82.3306 56.4215 82.3258 59.2389 82.321 62.0563C81.2198 61.5078 80.1796 60.8553 79.1146 60.2456C75.6261 58.2484 72.1426 56.2431 68.6639 54.2295C68.5182 54.1455 68.3455 54.0916 68.2485 53.9384Z" fill="white"/>
    <path d="M35.1936 77.7076C36.5993 77.7022 37.9425 77.9277 39.1323 78.7257C39.3838 78.8977 39.6063 79.1073 39.7917 79.3467C40.2425 79.9176 40.1744 80.6127 39.6301 81.1899C38.9089 81.9548 37.9572 82.2774 36.9582 82.483C35.5755 82.7751 34.1396 82.7189 32.785 82.3196C31.9788 82.0829 31.2014 81.7571 30.683 81.0601C30.1178 80.3001 30.2723 79.4922 31.0311 78.9029C31.86 78.2592 32.8231 77.9673 33.8424 77.7887C34.2922 77.7099 34.7417 77.7174 35.1936 77.7076Z" fill="white"/>
    <path d="M74.4806 90.0079C73.0181 90.0251 71.697 89.765 70.5109 88.9987C70.279 88.845 70.0738 88.656 69.903 88.4387C69.3945 87.8088 69.4432 87.1046 70.0211 86.5055C70.7084 85.793 71.6011 85.4536 72.5444 85.2567C74.2299 84.905 75.8949 84.9936 77.5089 85.6278C78.0089 85.8122 78.4591 86.1064 78.8248 86.4877C79.5594 87.2869 79.3996 88.2437 78.4911 88.9066C77.672 89.5043 76.1469 90.0602 74.4806 90.0079Z" fill="white"/>
    <path d="M60.9982 92.9644C62.6136 92.9594 63.9634 93.1809 65.1349 94.0022C65.714 94.4082 66.1744 94.9169 66.0071 95.6999C65.9043 96.1808 65.5928 96.5341 65.1944 96.8168C64.297 97.4537 63.2711 97.7115 62.1867 97.8409C60.7291 98.0147 59.3289 97.8474 57.9821 97.2798C57.4533 97.057 56.9836 96.7489 56.6313 96.2869C56.1793 95.694 56.2195 94.9546 56.7552 94.4041C57.4528 93.6873 58.3499 93.3481 59.3094 93.1349C59.9336 92.9963 60.566 92.9346 60.9982 92.9644Z" fill="white"/>
    <path d="M48.1247 90.0072C46.5902 90.0262 45.3279 89.7915 44.1824 89.1048C43.8422 88.9008 43.5309 88.6608 43.3172 88.3171C42.8315 87.5358 43.0812 86.7227 44.0149 86.0914C44.7733 85.5786 45.6313 85.2992 46.5294 85.1668C47.9661 84.955 49.3886 85.0283 50.7622 85.5399C51.3365 85.7538 51.8702 86.0321 52.3058 86.4788C53.0173 87.2085 52.9615 88.0989 52.1674 88.7582C51.3472 89.4392 50.3737 89.7394 49.3438 89.9236C48.941 89.9891 48.5329 90.0171 48.1247 90.0072V90.0072Z" fill="white"/>
    <path d="M87.0375 77.71C88.4222 77.6884 89.6071 77.9211 90.7134 78.4942C91.0082 78.6456 91.2763 78.8423 91.5076 79.0767C92.2423 79.8243 92.1512 80.8017 91.3209 81.452C90.4921 82.1012 89.5233 82.4033 88.5053 82.5538C86.9975 82.7768 85.5132 82.6728 84.0864 82.0902C83.7046 81.9356 83.3469 81.7294 83.0235 81.4776C82.004 80.6797 82.0799 79.4997 83.1955 78.7384C83.9522 78.222 84.8156 77.9661 85.709 77.7981C86.147 77.7199 86.5927 77.6904 87.0375 77.71V77.71Z" fill="white"/>
    <path d="M68.4044 70.1136C67.6159 70.5681 66.8399 71.0164 66.063 71.4631C64.4231 72.4059 62.781 73.3448 61.1452 74.2944C61.0718 74.3468 60.9833 74.3751 60.8924 74.3751C60.8015 74.375 60.713 74.3467 60.6396 74.2942C58.4191 73.0083 56.1956 71.7273 53.9691 70.4513C53.8889 70.4052 53.8143 70.3489 53.7317 70.3075C53.4668 70.1746 53.5132 70.0732 53.7436 69.9415C56.0635 68.6157 58.3807 67.2856 60.6953 65.9512C60.775 65.8957 60.8703 65.8657 60.9681 65.8652C61.0659 65.8648 61.1615 65.894 61.2417 65.9489C63.5905 67.3033 65.9417 68.6538 68.2954 70.0003C68.3359 70.034 68.3724 70.072 68.4044 70.1136Z" fill="white"/>
    <path d="M78.7801 64.1577C77.9562 64.6343 77.1365 65.1124 76.3131 65.5841C74.9694 66.3538 73.6211 67.1157 72.2807 67.8909C72.1024 67.994 71.9589 68.0392 71.7685 67.9291C69.4432 66.5841 67.1165 65.2413 64.7885 63.9007C64.722 63.8624 64.661 63.8148 64.5576 63.7445C65.2625 63.3362 65.9319 62.9446 66.605 62.5592C68.0981 61.7046 69.596 60.8578 71.0838 59.9944C71.2709 59.8858 71.4073 59.8702 71.5912 59.9761C73.9647 61.3435 76.3397 62.7086 78.716 64.0713C78.7366 64.0832 78.747 64.1121 78.7801 64.1577Z" fill="white"/>
    <path d="M49.1924 55.0235C48.8676 54.5756 48.6508 54.0696 48.3903 53.5875C47.8001 52.4951 47.219 51.398 46.6344 50.3027C46.5734 50.1884 46.4891 50.083 46.4873 49.9454C46.9322 49.8609 47.2655 49.5605 47.6453 49.3551C48.4832 48.9018 49.2985 48.4086 50.1221 47.93C50.2649 47.847 50.3832 47.8023 50.5586 47.9036C52.7235 49.1537 54.8918 50.3981 57.0636 51.6366C57.1635 51.6939 57.2544 51.7661 57.3837 51.8549C56.3764 52.4357 55.405 52.997 54.4324 53.5564C53.2627 54.2292 52.0891 54.8957 50.9242 55.5764C50.6943 55.7108 50.52 55.7378 50.273 55.5881C49.9275 55.3787 49.5979 55.1274 49.1924 55.0235Z" fill="white"/>
    <path d="M60.9746 53.915C60.9789 55.1515 60.9833 56.3879 60.9878 57.6244C60.9896 58.0481 60.9915 58.0488 61.3568 57.8461C62.4542 57.2372 63.5516 56.6279 64.6487 56.0182C65.6819 56.6002 66.7151 57.1824 67.8006 57.794C66.9072 58.3078 66.0722 58.7876 65.2376 59.268C63.9189 60.0269 62.5988 60.7835 61.2837 61.5483C61.0812 61.666 60.9101 61.6967 60.694 61.5718C58.5637 60.3404 56.4309 59.1131 54.2957 57.8898C54.2616 57.8702 54.2308 57.8452 54.1602 57.7962C54.8576 57.3927 55.5162 57.0096 56.1768 56.6299C57.7369 55.7335 59.2977 54.8384 60.8594 53.9446C60.8962 53.9297 60.935 53.9198 60.9746 53.915V53.915Z" fill="white"/>
    <path d="M82.3213 62.0563C82.3261 59.2389 82.3309 56.4215 82.3357 53.604C83.6117 54.327 84.8876 55.0503 86.1634 55.7738C87.2321 56.3822 88.2992 56.9933 89.3646 57.6073C89.7523 57.8299 89.7593 57.8598 89.3948 58.0696C87.1377 59.369 84.8786 60.6649 82.6175 61.9573C82.527 62.0091 82.437 62.0723 82.3213 62.0563Z" fill="white"/>
    <path d="M60.9735 41.7114C60.9733 44.4003 60.9732 47.0891 60.973 49.778C59.4095 48.8878 57.8459 47.9976 56.2825 47.1072C55.5143 46.6693 54.7479 46.2284 53.9214 45.7549C56.3038 44.3889 58.6386 43.0501 60.9735 41.7114Z" fill="white"/>
    <path d="M45.9642 62.4922C47.9684 63.614 49.9724 64.7362 51.9763 65.8586C52.2628 66.0194 52.5424 66.1921 52.8252 66.3593C51.8928 66.907 50.9607 67.4553 50.029 68.0041C49.8953 68.0833 49.7854 68.061 49.6607 67.9892C47.4757 66.7302 45.2893 65.4735 43.0352 64.1771C44.0385 63.5999 45.0014 63.0461 45.9642 62.4922Z" fill="white"/>
    <path d="M35.3086 56.4888C37.6368 57.7954 39.9648 59.1025 42.2926 60.4098C42.3239 60.4328 42.3521 60.4594 42.3768 60.4891C41.4933 60.9905 40.6079 61.4888 39.7279 61.9961C39.5684 62.0881 39.4543 62.1276 39.2657 62.0186C37.1291 60.7845 34.9832 59.5656 32.842 58.3389C32.4333 58.1047 32.4291 58.0825 32.8523 57.8499C33.6727 57.3991 34.4444 56.8637 35.3086 56.4888Z" fill="white"/>
    <path d="M56.0957 68.0874L56.1388 68.1292C56.0992 68.1535 56.0805 68.1438 56.0839 68.0976C56.0835 68.0978 56.0957 68.0874 56.0957 68.0874Z" fill="white"/>
    </svg>