<svg width="32" height="32" viewBox="0 0 33 35" fill="none" xmlns="http://www.w3.org/2000/svg">
    <path
        d="M26.3707 18.3788C27.2872 18.9035 28.2036 19.4283 29.12 19.9531C29.3164 20.0655 29.5131 20.1773 29.7282 20.2999C29.6595 20.3406 29.6026 20.3752 29.5447 20.4087C27.4949 21.5959 25.4449 22.783 23.3948 23.9701C21.1399 25.2757 18.8852 26.5818 16.6307 27.8883C16.5496 27.9354 16.4907 27.9458 16.401 27.8944C12.0583 25.4071 7.71441 22.9219 3.36925 20.4389C3.33022 20.4165 3.29186 20.3931 3.23111 20.357C4.36873 19.708 5.49214 19.067 6.61555 18.426C6.66092 18.4467 6.70834 18.464 6.75144 18.4886C7.76404 19.0664 8.77637 19.6448 9.78838 20.2236C11.9743 21.4737 14.1597 22.7246 16.3446 23.9763C16.461 24.0431 16.5494 24.0533 16.6731 23.9815C19.5759 22.2948 22.4807 20.6114 25.3875 18.9312C25.7128 18.7431 26.0279 18.5369 26.3707 18.3788Z"
        fill="white" />
    <path
        d="M26.3708 18.3788C26.0279 18.5369 25.7128 18.7431 25.3875 18.9312C22.4811 20.612 19.5763 22.2954 16.6731 23.9814C16.5495 24.0533 16.461 24.0431 16.3446 23.9763C14.1604 22.7234 11.975 21.4725 9.78839 20.2236C8.77638 19.6448 7.76405 19.0665 6.75146 18.4886C6.70835 18.464 6.66093 18.4467 6.61556 18.426C6.30301 18.2063 5.95977 18.0365 5.62973 17.8455C4.87236 17.4072 4.11042 16.9765 3.35057 16.5423C3.31641 16.5227 3.28461 16.4992 3.22815 16.462C4.36936 15.8108 5.49448 15.1688 6.6196 14.5267C6.62126 14.9293 6.62656 15.3319 6.62202 15.7344C6.62089 15.8357 6.64745 15.9059 6.73985 15.9499C6.41165 16.0928 6.11862 16.297 5.80705 16.4689C5.64634 16.5576 5.64793 16.5661 5.80313 16.6554C6.61626 17.1231 7.43117 17.5879 8.24255 18.0585C8.31421 18.1 8.3575 18.085 8.41809 18.0499C8.75227 17.8565 9.08849 17.6664 9.42401 17.4752C9.88866 17.7117 10.3359 17.9781 10.7863 18.239C10.4206 18.4502 10.055 18.6614 9.67397 18.8815C10.53 19.3758 11.3603 19.855 12.1901 20.3351C12.2374 20.3625 12.2791 20.371 12.3299 20.3408C12.6832 20.1307 13.0372 19.9216 13.3918 19.7136C13.7542 19.9156 14.1167 20.1173 14.4793 20.319C14.526 20.3449 14.5673 20.3874 14.6292 20.3763C14.6279 20.3939 14.635 20.3976 14.65 20.3883L14.6337 20.3724C14.6028 20.3051 14.5742 20.2366 14.5405 20.1706C14.3981 19.8918 14.2321 19.6248 14.1115 19.3353C14.1418 19.286 14.1948 19.265 14.2417 19.2379C14.4982 19.0894 14.7552 18.942 15.0129 18.7955C15.0477 18.7757 15.0983 18.7608 15.0998 18.7204C15.1014 18.6762 15.0452 18.6693 15.0121 18.6502C14.6252 18.4263 14.2395 18.2002 13.8496 17.9815C13.6319 17.8594 13.4282 17.7113 13.1891 17.6275C12.9791 17.2338 12.766 16.8417 12.5599 16.446C12.3769 16.0946 12.1715 15.7543 12.0121 15.391C12.1661 15.4307 12.2913 15.5265 12.4225 15.6063C12.5163 15.6634 12.5825 15.6531 12.6698 15.6019C13.1122 15.3423 13.5579 15.0881 14.0021 14.8316C14.3714 14.6183 14.7403 14.4043 15.1228 14.1828C15.0737 14.149 15.0392 14.1214 15.0013 14.0996C14.1777 13.6253 13.3543 13.1508 12.531 12.6761C12.4644 12.6375 12.4194 12.6545 12.3652 12.6862C12.0525 12.8687 11.7429 13.0567 11.4246 13.2296C11.2804 13.3079 11.1538 13.4225 10.9849 13.4547C10.9499 13.4385 10.9399 13.4039 10.9239 13.3738C10.7439 13.0333 10.5639 12.6926 10.384 12.3519C10.7256 12.2006 11.0369 11.9959 11.3598 11.8121C13.0697 10.8388 14.7783 9.86322 16.4856 8.88533C16.4858 9.36187 16.4859 9.8384 16.4861 10.3149C15.5994 10.8254 14.7128 11.3359 13.8081 11.8568C14.1219 12.0373 14.413 12.2054 14.7047 12.3724C15.2982 12.7122 15.892 13.0517 16.4859 13.3908C16.4861 13.9167 16.4863 14.4426 16.4865 14.9684C16.4715 14.9702 16.4568 14.974 16.4428 14.9797C15.8498 15.3206 15.2571 15.6619 14.6646 16.0037C14.4137 16.1484 14.1636 16.2945 13.8987 16.4484C13.9255 16.4671 13.9372 16.4766 13.9502 16.4841C14.7603 16.9518 15.5702 17.4198 16.38 17.8881C16.462 17.9357 16.527 17.924 16.6039 17.8791C17.1033 17.5875 17.6046 17.299 18.1054 17.0096C18.4224 16.8264 18.7395 16.6434 19.0788 16.4475C18.6665 16.2143 18.2742 15.9923 17.8818 15.7703C18.1828 15.5996 18.4864 15.4331 18.7835 15.2562C18.932 15.1677 19.1009 15.1087 19.2224 14.9787L19.2356 14.9769L19.2489 14.9772C19.2857 15.0356 19.3513 15.0561 19.4066 15.0882C20.7288 15.8541 22.0517 16.6188 23.3753 17.3822C23.7798 17.6147 24.1748 17.8635 24.593 18.0726C24.6369 18.0787 24.6711 18.0547 24.7054 18.0349C25.5637 17.5413 26.4216 17.0472 27.2792 16.5525C27.4176 16.4724 27.4149 16.4611 27.2677 16.3762C26.8627 16.1427 26.4575 15.9096 26.0521 15.677C25.568 15.4004 25.0835 15.1246 24.5985 14.8496C24.5985 14.3935 24.5985 13.9374 24.5985 13.4813C25.7134 14.116 26.8284 14.7507 27.9433 15.3854C28.4898 15.6965 29.0361 16.0079 29.5824 16.3195C29.6289 16.346 29.6877 16.3593 29.7138 16.423C28.9179 16.8842 28.1203 17.3431 27.3264 17.8076C27.0061 17.995 26.6725 18.1613 26.3708 18.3788ZM19.3081 21.1451C19.2959 21.1293 19.2821 21.1148 19.2667 21.1019C18.3737 20.5871 17.4808 20.0721 16.588 19.5571C16.5576 19.5362 16.5213 19.525 16.4841 19.5252C16.447 19.5253 16.4108 19.5368 16.3805 19.5579C15.5016 20.0669 14.6216 20.5741 13.7406 21.0795C13.6531 21.1297 13.6355 21.1684 13.7361 21.2191C13.7674 21.2348 13.7958 21.2563 13.8262 21.2739C14.6708 21.7619 15.5152 22.2504 16.3594 22.7393C16.3872 22.7593 16.4208 22.7701 16.4554 22.7701C16.4899 22.7701 16.5235 22.7593 16.5514 22.7393C17.1726 22.3772 17.7962 22.0192 18.4189 21.6597C18.714 21.4894 19.0087 21.3184 19.3081 21.1451ZM23.2483 18.8741C23.2357 18.8567 23.2318 18.8457 23.2239 18.8411C22.3221 18.3206 21.4202 17.8 20.5183 17.2795C20.4484 17.2392 20.3966 17.2451 20.3256 17.2865C19.7606 17.6157 19.1917 17.9386 18.6247 18.2645C18.3691 18.4115 18.1149 18.5608 17.8472 18.7165C17.8865 18.7433 17.9096 18.7614 17.9349 18.7761C18.8185 19.288 19.7021 19.8001 20.5856 20.3122C20.6579 20.3542 20.7124 20.3369 20.7801 20.2976C21.2891 20.002 21.8011 19.7115 22.3114 19.418C22.6241 19.2381 22.9354 19.0558 23.2483 18.8741Z"
        fill="white" />
    <path
        d="M6.73997 15.9499C6.64757 15.906 6.62101 15.8357 6.62214 15.7345C6.62667 15.332 6.62137 14.9294 6.61969 14.5268C6.62278 14.4625 6.62857 14.3981 6.62857 14.3338C6.62903 11.3458 6.62916 8.35363 6.62897 5.35728C6.69729 5.38535 6.70728 5.44809 6.73212 5.49475C7.92838 7.74095 9.12384 9.98752 10.3185 12.2345C10.3396 12.2741 10.3622 12.3128 10.3841 12.3519C10.5641 12.6926 10.7441 13.0333 10.9241 13.3739C10.94 13.404 10.95 13.4386 10.985 13.4547C10.9857 13.5072 11.0177 13.5474 11.0409 13.591C11.2629 14.0087 11.4835 14.427 11.7077 14.8435C11.8066 15.0274 11.8889 15.2203 12.0123 15.3911C12.1716 15.7544 12.377 16.0947 12.56 16.4461C12.7661 16.8418 12.9792 17.2339 13.1892 17.6276C13.4273 18.0767 13.6639 18.5264 13.9042 18.9743C13.9697 19.0965 14.0204 19.2274 14.1116 19.3354C14.2323 19.6249 14.3982 19.8919 14.5406 20.1707C14.5743 20.2367 14.6029 20.3052 14.6338 20.3725L14.6292 20.3765C14.5674 20.3875 14.5261 20.345 14.4794 20.3191C14.1165 20.1179 13.754 19.9161 13.3919 19.7137C13.2845 19.6499 13.1783 19.5841 13.0695 19.5228C12.3088 19.0943 11.5478 18.6665 10.7864 18.2391C10.336 17.9781 9.88878 17.7117 9.4241 17.4753C9.41476 17.464 9.40404 17.4539 9.39215 17.4451C8.50828 16.9464 7.6242 16.448 6.73997 15.9499Z"
        fill="white" />
    <path
        d="M16.4861 10.3151C16.4859 9.83854 16.4857 9.36203 16.4856 8.88549C16.487 8.34885 16.4919 7.81218 16.4871 7.27556C16.4861 7.16485 16.5259 7.10989 16.6215 7.05753C18.7653 5.88422 20.908 4.70885 23.0495 3.53146C23.1895 3.45463 23.1912 3.45524 23.1912 3.61838C23.1912 5.74038 23.1909 7.86236 23.1904 9.98436C23.136 9.98439 23.0978 9.94852 23.0552 9.92355C21.8025 9.18903 20.5498 8.45445 19.2971 7.71978C19.2657 7.70137 19.2383 7.66378 19.1928 7.68498C19.1913 7.69037 19.1903 7.69588 19.1898 7.70146C19.1892 10.0866 19.1888 12.4716 19.1887 14.8567C19.1887 14.8993 19.1744 14.948 19.2224 14.9789C19.1008 15.1088 18.932 15.1679 18.7835 15.2563C18.4863 15.4333 18.1827 15.5997 17.8818 15.7705C17.465 16.0029 17.0483 16.2352 16.6316 16.4676C16.4929 16.5449 16.4922 16.5446 16.4915 16.383C16.4896 15.9115 16.4879 15.44 16.4865 14.9686C16.4863 14.4427 16.4861 13.9168 16.4859 13.391C16.486 12.3657 16.486 11.3404 16.4861 10.3151Z"
        fill="white" />
    <path
        d="M19.2224 14.9788C19.1745 14.9479 19.1887 14.8992 19.1887 14.8566C19.1886 12.4715 19.189 10.0864 19.1898 7.70137C19.1903 7.6958 19.1914 7.69028 19.1928 7.68489C19.2383 7.66369 19.2658 7.70128 19.2972 7.71969C20.5501 8.45393 21.8028 9.18854 23.0553 9.92346C23.0978 9.94843 23.136 9.98427 23.1905 9.98427C23.1955 9.99233 23.1981 10.0016 23.1981 10.011C23.197 10.8702 23.1945 11.7293 23.1968 12.5884C23.1971 12.7043 23.1667 12.7793 23.0553 12.8389C22.7366 13.0092 22.4254 13.1932 22.111 13.3713C21.4602 13.7399 20.8093 14.1082 20.1582 14.4761C19.8567 14.6458 19.5521 14.8104 19.2489 14.9772L19.2356 14.977L19.2224 14.9788Z"
        fill="white" />
    <path
        d="M19.249 14.9773C19.5522 14.8104 19.8568 14.6459 20.1583 14.4762C20.8101 14.1093 21.461 13.7411 22.1111 13.3713C22.4255 13.1932 22.7367 13.0093 23.0554 12.8389C23.1668 12.7794 23.1972 12.7044 23.1969 12.5884C23.1946 11.7294 23.1972 10.8702 23.1982 10.0111C23.6413 10.2686 24.0836 10.5275 24.5285 10.782C24.603 10.8247 24.5936 10.8852 24.5936 10.9486C24.5937 11.7333 24.5938 12.5181 24.5939 13.3029C24.5939 13.3624 24.597 13.4219 24.5986 13.4814C24.5986 13.9375 24.5986 14.3936 24.5985 14.8498C24.5967 15.9241 24.5949 16.9985 24.5931 18.0728C24.1749 17.8636 23.7799 17.6148 23.3754 17.3823C22.0507 16.6208 20.7278 15.8561 19.4068 15.0883C19.3514 15.0562 19.2858 15.0357 19.249 14.9773Z"
        fill="white" />
    <path
        d="M6.69617 24.041C7.23002 24.0389 7.74007 24.1249 8.19192 24.4292C8.28744 24.4948 8.37193 24.5747 8.44233 24.666C8.61356 24.8837 8.58767 25.1487 8.38097 25.3688C8.10709 25.6605 7.74565 25.7835 7.36632 25.8619C6.84119 25.9733 6.29591 25.9519 5.78151 25.7996C5.47537 25.7093 5.18013 25.5851 4.98327 25.3193C4.76864 25.0295 4.8273 24.7215 5.11549 24.4968C5.43021 24.2513 5.796 24.14 6.18308 24.0719C6.35387 24.0418 6.52458 24.0447 6.69617 24.041Z"
        fill="white" />
    <path
        d="M21.6156 28.7312C21.0602 28.7378 20.5585 28.6386 20.1081 28.3464C20.02 28.2878 19.9421 28.2157 19.8772 28.1329C19.6842 27.8927 19.7026 27.6241 19.9221 27.3957C20.1831 27.124 20.5221 26.9946 20.8803 26.9195C21.5204 26.7854 22.1527 26.8192 22.7656 27.061C22.9555 27.1313 23.1264 27.2435 23.2653 27.3889C23.5443 27.6936 23.4836 28.0585 23.1386 28.3113C22.8275 28.5392 22.2484 28.7512 21.6156 28.7312Z"
        fill="white" />
    <path
        d="M16.4955 29.8585C17.1089 29.8566 17.6215 29.9411 18.0664 30.2543C18.2863 30.409 18.4612 30.6029 18.3976 30.9016C18.3586 31.0851 18.2403 31.2196 18.089 31.3274C17.7482 31.5704 17.3586 31.6687 16.9468 31.718C16.3933 31.7842 15.8615 31.7205 15.3501 31.5039C15.1493 31.419 14.9709 31.3017 14.8372 31.1255C14.6655 30.8995 14.6807 30.6173 14.8842 30.4074C15.1491 30.1342 15.4898 30.0049 15.8541 29.9235C16.0912 29.8707 16.3313 29.8472 16.4955 29.8585Z"
        fill="white" />
    <path
        d="M11.6068 28.7308C11.0241 28.7381 10.5447 28.6486 10.1097 28.3867C9.98055 28.309 9.86233 28.2175 9.78118 28.0864C9.59672 27.7885 9.69154 27.4784 10.0461 27.2377C10.3341 27.0422 10.66 26.9356 11.001 26.8851C11.5466 26.8044 12.0868 26.8323 12.6084 27.0274C12.8265 27.1089 13.0292 27.2151 13.1946 27.3854C13.4648 27.6637 13.4436 28.0032 13.1421 28.2546C12.8306 28.5143 12.4609 28.6287 12.0698 28.699C11.9168 28.724 11.7618 28.7346 11.6068 28.7308Z"
        fill="white" />
    <path
        d="M26.3842 24.0418C26.9101 24.0336 27.36 24.1223 27.7801 24.3409C27.8921 24.3986 27.9939 24.4736 28.0817 24.563C28.3607 24.8481 28.3262 25.2208 28.0109 25.4687C27.6961 25.7163 27.3282 25.8314 26.9416 25.8889C26.369 25.9739 25.8053 25.9342 25.2635 25.7121C25.1185 25.6531 24.9827 25.5745 24.8599 25.4785C24.4727 25.1742 24.5015 24.7243 24.9252 24.434C25.2126 24.237 25.5404 24.1395 25.8797 24.0754C26.046 24.0456 26.2153 24.0344 26.3842 24.0418Z"
        fill="white" />
    <path
        d="M19.308 21.1451C19.0086 21.3184 18.7139 21.4894 18.4189 21.6597C17.7961 22.0192 17.1725 22.3772 16.5514 22.7393C16.5235 22.7593 16.4898 22.7701 16.4553 22.7701C16.4208 22.7701 16.3872 22.7593 16.3593 22.7392C15.5161 22.2489 14.6717 21.7605 13.8262 21.2739C13.7957 21.2563 13.7674 21.2348 13.736 21.2191C13.6354 21.1684 13.653 21.1297 13.7405 21.0795C14.6215 20.574 15.5015 20.0668 16.3805 19.5579C16.4108 19.5368 16.447 19.5253 16.4841 19.5252C16.5212 19.525 16.5575 19.5361 16.588 19.5571C17.48 20.0735 18.3728 20.5885 19.2667 21.1019C19.282 21.1148 19.2959 21.1293 19.308 21.1451Z"
        fill="white" />
    <path
        d="M23.2483 18.8741C22.9355 19.0558 22.6242 19.2381 22.3115 19.418C21.8012 19.7115 21.2892 20.002 20.7802 20.2976C20.7125 20.3369 20.658 20.3541 20.5857 20.3122C19.7026 19.7993 18.8191 19.2873 17.935 18.7761C17.9097 18.7615 17.8866 18.7433 17.8473 18.7165C18.115 18.5608 18.3692 18.4115 18.6248 18.2645C19.1919 17.9386 19.7607 17.6157 20.3256 17.2865C20.3967 17.2451 20.4485 17.2392 20.5183 17.2796C21.4197 17.801 22.3216 18.3215 23.224 18.8411C23.2319 18.8457 23.2358 18.8567 23.2483 18.8741Z"
        fill="white" />
    <path
        d="M12.0123 15.3911C11.8889 15.2203 11.8066 15.0274 11.7077 14.8435C11.4835 14.427 11.2628 14.0086 11.0409 13.591C11.0177 13.5474 10.9857 13.5072 10.985 13.4547C11.1539 13.4225 11.2806 13.308 11.4248 13.2296C11.743 13.0568 12.0526 12.8687 12.3653 12.6862C12.4196 12.6546 12.4645 12.6375 12.5311 12.6762C13.3532 13.1529 14.1766 13.6273 15.0014 14.0996C15.0393 14.1215 15.0739 14.149 15.123 14.1828C14.7404 14.4043 14.3715 14.6183 14.0022 14.8317C13.558 15.0882 13.1123 15.3424 12.6699 15.6019C12.5826 15.6532 12.5165 15.6635 12.4227 15.6064C12.2914 15.5265 12.1663 15.4307 12.0123 15.3911Z"
        fill="white" />
    <path
        d="M16.4866 14.9685C16.4882 15.4399 16.4899 15.9114 16.4916 16.3829C16.4923 16.5445 16.493 16.5447 16.6317 16.4674C17.0485 16.2352 17.4652 16.0029 17.8818 15.7704C18.2742 15.9924 18.6666 16.2143 19.0788 16.4476C18.7395 16.6435 18.4224 16.8264 18.1055 17.0096C17.6047 17.299 17.1034 17.5875 16.604 17.8791C16.5271 17.924 16.4621 17.9357 16.38 17.8881C15.571 17.4185 14.7611 16.9506 13.9502 16.4841C13.9373 16.4766 13.9256 16.4671 13.8988 16.4484C14.1636 16.2945 14.4137 16.1485 14.6646 16.0037C15.2571 15.6619 15.8498 15.3206 16.4428 14.9797C16.4568 14.974 16.4715 14.9703 16.4866 14.9685Z"
        fill="white" />
    <path
        d="M24.5929 18.0728C24.5948 16.9985 24.5966 15.9242 24.5984 14.8498C25.083 15.1255 25.5675 15.4013 26.052 15.6772C26.4578 15.9092 26.8631 16.1422 27.2677 16.3763C27.4149 16.4612 27.4175 16.4726 27.2791 16.5526C26.422 17.0481 25.5641 17.5422 24.7054 18.0351C24.671 18.0548 24.6369 18.0789 24.5929 18.0728Z"
        fill="white" />
    <path
        d="M16.4862 10.3151C16.4861 11.3404 16.4861 12.3657 16.4861 13.391C15.8923 13.0515 15.2985 12.7121 14.7048 12.3726C14.4131 12.2056 14.122 12.0375 13.8082 11.8569C14.7129 11.336 15.5996 10.8255 16.4862 10.3151Z"
        fill="white" />
    <path
        d="M10.7864 18.239C11.5475 18.6668 12.3085 19.0947 13.0695 19.5227C13.1783 19.584 13.2845 19.6499 13.3919 19.7136C13.0378 19.9225 12.6838 20.1315 12.33 20.3408C12.2792 20.371 12.2375 20.3625 12.1901 20.3351C11.3604 19.8551 10.5301 19.3758 9.67407 18.8815C10.0551 18.6614 10.4207 18.4502 10.7864 18.239Z"
        fill="white" />
    <path
        d="M6.73989 15.9499C7.62404 16.4482 8.50812 16.9466 9.39211 17.4451C9.40397 17.4538 9.41469 17.464 9.42406 17.4753C9.08854 17.6665 8.75232 17.8565 8.41814 18.05C8.35755 18.085 8.31426 18.1001 8.24263 18.0585C7.43122 17.5879 6.61634 17.1231 5.80321 16.6554C5.64798 16.5661 5.64639 16.5576 5.8071 16.4689C6.11867 16.297 6.41173 16.0929 6.73989 15.9499Z"
        fill="white" />
    <path
        d="M14.6339 20.3725L14.6507 20.389C14.6353 20.3986 14.6279 20.3948 14.6293 20.3765C14.6291 20.3766 14.6339 20.3725 14.6339 20.3725Z"
        fill="white" />
</svg>