<svg width="32" height="32" viewBox="0 0 32 32" fill="none" xmlns="http://www.w3.org/2000/svg">
    <path
        d="M12.1673 7.6228L12.2071 7.64407L15.582 9.55769C15.6956 9.62199 15.8236 9.65578 15.9539 9.65578C16.0842 9.65578 16.2123 9.62199 16.3258 9.55769L19.6743 7.66505C19.9335 7.51719 20.2402 7.47772 20.5281 7.55515C20.816 7.63259 21.0621 7.82073 21.2134 8.07899C21.3646 8.33726 21.4088 8.64495 21.3365 8.93571C21.2642 9.22646 21.0811 9.47699 20.8268 9.63324L20.7884 9.6559L18.8557 10.7502C18.7972 10.7834 18.7485 10.8317 18.7147 10.89C18.6809 10.9483 18.663 11.0146 18.663 11.0821C18.663 11.1496 18.6809 11.2159 18.7147 11.2742C18.7485 11.3325 18.7972 11.3807 18.8557 11.4139L24.0734 14.3716C24.1869 14.4361 24.315 14.47 24.4453 14.47C24.5756 14.47 24.7038 14.4361 24.8172 14.3716L28.0449 12.5424C28.3041 12.3929 28.6115 12.3521 28.9004 12.429C29.1892 12.5058 29.4364 12.694 29.5882 12.9528C29.7401 13.2116 29.7844 13.5202 29.7115 13.8117C29.6387 14.1031 29.4546 14.3539 29.1991 14.5098L29.1604 14.5327L27.3429 15.5607C27.2844 15.5939 27.2357 15.6421 27.2019 15.7004C27.168 15.7587 27.1502 15.8249 27.1502 15.8924C27.1502 15.9599 27.168 16.0263 27.2019 16.0845C27.2357 16.1428 27.2844 16.191 27.3429 16.2242L29.1687 17.2595C29.4288 17.4059 29.6213 17.6491 29.7047 17.9369C29.788 18.2247 29.7556 18.5338 29.6144 18.7978C29.4731 19.0617 29.2344 19.2593 28.9497 19.3478C28.6649 19.4364 28.357 19.4089 28.0922 19.2713L28.0527 19.2495L24.8161 17.4148C24.7026 17.3504 24.5746 17.3165 24.4443 17.3165C24.3141 17.3165 24.186 17.3504 24.0726 17.4148L18.7967 20.4051C18.7382 20.4382 18.6895 20.4864 18.6557 20.5446C18.6218 20.6029 18.6039 20.6692 18.6039 20.7367C18.6039 20.8042 18.6218 20.8704 18.6557 20.9287C18.6895 20.987 18.7382 21.0351 18.7967 21.0682L20.9762 22.3039C21.2337 22.4515 21.4237 22.6946 21.5055 22.9812C21.5872 23.2677 21.5544 23.5751 21.4139 23.8376C21.2735 24.1002 21.0365 24.2971 20.7536 24.3864C20.4707 24.4756 20.1644 24.4502 19.8999 24.3155L19.8604 24.2939L16.271 22.2583C16.1574 22.194 16.0294 22.1603 15.8991 22.1603C15.7688 22.1603 15.6408 22.194 15.5272 22.2583L11.9052 24.3137C11.6461 24.4617 11.3395 24.5013 11.0516 24.424C10.7637 24.3468 10.5175 24.1588 10.3662 23.9007C10.2148 23.6426 10.1703 23.3351 10.2424 23.0443C10.3144 22.7536 10.4972 22.5029 10.7513 22.3464L10.7897 22.3235L12.9999 21.0679C13.0432 21.0434 13.0812 21.0105 13.1119 20.9712C13.1426 20.9319 13.1653 20.8868 13.1786 20.8387C13.192 20.7905 13.1958 20.7402 13.1898 20.6906C13.1838 20.641 13.1681 20.593 13.1437 20.5495C13.1101 20.4887 13.0603 20.4386 12.9999 20.4048L7.77127 17.4419C7.65772 17.3777 7.52965 17.3439 7.39936 17.3439C7.2691 17.3439 7.14103 17.3777 7.02748 17.4419L3.94892 19.1837C3.68958 19.3326 3.38237 19.3728 3.09379 19.2956C2.80521 19.2183 2.55847 19.03 2.40699 18.7712C2.25551 18.5124 2.21147 18.204 2.2844 17.9128C2.35734 17.6216 2.54138 17.371 2.79669 17.2153L2.83481 17.1929L4.49958 16.2507C4.5582 16.2177 4.607 16.1696 4.64097 16.1113C4.67494 16.053 4.69285 15.9866 4.69285 15.919C4.69285 15.8515 4.67494 15.7851 4.64097 15.7268C4.607 15.6685 4.5582 15.6204 4.49958 15.5873L2.83787 14.6446C2.58033 14.497 2.39039 14.2539 2.30861 13.9673C2.22683 13.6808 2.25969 13.3734 2.40016 13.1109C2.54063 12.8483 2.77759 12.6514 3.06046 12.5621C3.34332 12.4729 3.64968 12.4983 3.91414 12.6331L3.95393 12.6546L7.02943 14.3981C7.14281 14.4625 7.27084 14.4963 7.40103 14.4963C7.53125 14.4963 7.65925 14.4625 7.77266 14.3981L13.0519 11.4109C13.1104 11.3777 13.159 11.3295 13.1928 11.2712C13.2267 11.2128 13.2445 11.1465 13.2445 11.079C13.2445 11.0115 13.2267 10.9452 13.1928 10.8869C13.159 10.8286 13.1104 10.7804 13.0519 10.7472L11.0911 9.63492C10.8335 9.48724 10.6436 9.24418 10.5618 8.95761C10.48 8.67105 10.5129 8.36369 10.6534 8.10115C10.7938 7.83861 11.0308 7.64169 11.3137 7.55242C11.5965 7.46315 11.9029 7.48861 12.1673 7.62336V7.6228ZM15.5812 12.6012L10.3011 15.5887C10.2426 15.6219 10.1938 15.67 10.1599 15.7284C10.126 15.7867 10.1082 15.853 10.1082 15.9206C10.1082 15.9881 10.126 16.0545 10.1599 16.1128C10.1938 16.1711 10.2426 16.2193 10.3011 16.2524L15.5267 19.2145C15.6402 19.2789 15.7682 19.3127 15.8986 19.3127C16.0289 19.3127 16.157 19.2789 16.2704 19.2145L21.5458 16.2242C21.6043 16.191 21.6529 16.1428 21.6868 16.0845C21.7206 16.0263 21.7385 15.9599 21.7385 15.8924C21.7385 15.8249 21.7206 15.7587 21.6868 15.7004C21.6529 15.6421 21.6043 15.5939 21.5458 15.5607L16.3241 12.6012C16.2107 12.5369 16.0827 12.5032 15.9525 12.5032C15.8223 12.5032 15.6944 12.5369 15.5809 12.6012H15.5812Z"
        fill="white" />
</svg>