<?xml version="1.0" encoding="UTF-8"?><!DOCTYPE svg>
 <svg width="32" height="32" viewBox="0 0 122 122" fill="none" xmlns="http://www.w3.org/2000/svg">
<path fill-rule="evenodd" clip-rule="evenodd" d="M34.6666 116.007C4.28693 101.462 -8.55109 65.0398 5.99244 34.6565C12.9766 20.0659 25.47 8.84765 40.7244 3.46957C55.9788 -1.9085 72.7445 -1.00577 87.3334 5.97907C117.713 20.5243 130.551 56.9461 116.008 87.3294C101.464 117.713 65.0465 130.552 34.6666 116.007V116.007Z" fill="#9D0FB0"/>
<path d="M49.8138 38.3343L49.9299 38.3968L59.7801 44.019C60.1114 44.2079 60.4852 44.3072 60.8655 44.3072C61.2457 44.3072 61.6196 44.2079 61.9509 44.019L71.7239 38.4584C72.4806 38.024 73.3756 37.908 74.216 38.1356C75.0563 38.3631 75.7747 38.9158 76.216 39.6746C76.6574 40.4334 76.7865 41.3374 76.5754 42.1916C76.3644 43.0458 75.83 43.7819 75.0877 44.2409L74.9757 44.3075L69.3347 47.5227C69.164 47.6202 69.0221 47.7619 68.9233 47.9332C68.8245 48.1045 68.7724 48.2993 68.7724 48.4977C68.7724 48.696 68.8245 48.8908 68.9233 49.0621C69.0221 49.2335 69.164 49.3751 69.3347 49.4727L84.5635 58.162C84.8946 58.3516 85.2686 58.4512 85.6489 58.4512C86.0293 58.4512 86.4032 58.3516 86.7343 58.162L96.1549 52.7881C96.9115 52.3489 97.8086 52.2291 98.6518 52.4548C99.4949 52.6805 100.216 53.2335 100.659 53.9939C101.103 54.7543 101.232 55.6609 101.019 56.5171C100.807 57.3733 100.269 58.1102 99.5236 58.5681L99.4107 58.6355L94.106 61.6559C93.9353 61.7533 93.7933 61.8949 93.6945 62.0661C93.5957 62.2374 93.5436 62.4321 93.5436 62.6304C93.5436 62.8288 93.5957 63.0235 93.6945 63.1948C93.7933 63.366 93.9353 63.5076 94.106 63.605L99.4351 66.6467C100.194 67.0768 100.756 67.7916 100.999 68.637C101.243 69.4825 101.148 70.3908 100.736 71.1663C100.323 71.9417 99.6267 72.5221 98.7956 72.7824C97.9646 73.0426 97.0658 72.9618 96.293 72.5575L96.1777 72.4933L86.7311 67.103C86.4 66.9138 86.0263 66.8144 85.6461 66.8144C85.2659 66.8144 84.8922 66.9138 84.5611 67.103L69.1625 75.8885C68.9918 75.9858 68.8498 76.1273 68.7509 76.2985C68.6521 76.4697 68.6 76.6644 68.6 76.8627C68.6 77.061 68.6521 77.2557 68.7509 77.4269C68.8498 77.5981 68.9918 77.7395 69.1625 77.8368L75.5238 81.4671C76.2755 81.901 76.8299 82.6151 77.0686 83.4571C77.3072 84.299 77.2114 85.202 76.8014 85.9733C76.3914 86.7447 75.6998 87.3232 74.8742 87.5855C74.0486 87.8478 73.1544 87.773 72.3826 87.3771L72.2672 87.3138L61.7909 81.3331C61.4595 81.1444 61.0857 81.0452 60.7055 81.0452C60.3253 81.0452 59.9515 81.1444 59.6201 81.3331L49.0487 87.3721C48.2924 87.8068 47.3977 87.9231 46.5574 87.6961C45.7171 87.4691 44.9986 86.917 44.5568 86.1587C44.1149 85.4004 43.9852 84.4967 44.1954 83.6425C44.4057 82.7882 44.9392 82.0519 45.6809 81.5921L45.793 81.5247L52.2436 77.836C52.37 77.7639 52.4812 77.6673 52.5707 77.5518C52.6602 77.4362 52.7263 77.3039 52.7653 77.1624C52.8043 77.021 52.8154 76.8731 52.7979 76.7273C52.7804 76.5815 52.7348 76.4406 52.6635 76.3127C52.5652 76.1343 52.4198 75.9872 52.2436 75.8877L36.9831 67.1827C36.6517 66.9939 36.2779 66.8948 35.8977 66.8948C35.5175 66.8948 35.1436 66.9939 34.8123 67.1827L25.827 72.3001C25.0701 72.7375 24.1734 72.8556 23.3311 72.6288C22.4889 72.4019 21.7687 71.8484 21.3266 71.0881C20.8845 70.3278 20.7559 69.4218 20.9688 68.5663C21.1817 67.7107 21.7188 66.9744 22.464 66.5168L22.5753 66.4511L27.4342 63.6831C27.6053 63.586 27.7477 63.4446 27.8468 63.2733C27.946 63.102 27.9982 62.9071 27.9982 62.7085C27.9982 62.51 27.946 62.3151 27.8468 62.1438C27.7477 61.9725 27.6053 61.831 27.4342 61.734L22.5842 58.9644C21.8325 58.5305 21.2782 57.8164 21.0395 56.9745C20.8008 56.1325 20.8967 55.2295 21.3067 54.4582C21.7167 53.6868 22.4083 53.1083 23.2339 52.846C24.0594 52.5837 24.9536 52.6586 25.7255 53.0545L25.8416 53.1178L34.818 58.2401C35.1489 58.4293 35.5225 58.5287 35.9026 58.5287C36.2826 58.5287 36.6562 58.4293 36.9871 58.2401L52.3955 49.4636C52.5661 49.3661 52.7081 49.2244 52.8069 49.0531C52.9057 48.8818 52.9577 48.687 52.9577 48.4886C52.9577 48.2903 52.9057 48.0955 52.8069 47.9241C52.7081 47.7528 52.5661 47.6112 52.3955 47.5136L46.6725 44.2459C45.9208 43.812 45.3665 43.0979 45.1278 42.256C44.8891 41.414 44.985 40.511 45.395 39.7397C45.8049 38.9683 46.4965 38.3898 47.3221 38.1275C48.1477 37.8652 49.0419 37.94 49.8138 38.3359V38.3343ZM59.7777 52.9607L44.3669 61.7381C44.196 61.8354 44.0538 61.977 43.9549 62.1484C43.8559 62.3197 43.8038 62.5146 43.8038 62.7131C43.8038 62.9115 43.8559 63.1064 43.9549 63.2777C44.0538 63.4491 44.196 63.5907 44.3669 63.688L59.6185 72.3906C59.9497 72.5797 60.3236 72.6791 60.7039 72.6791C61.0842 72.6791 61.458 72.5797 61.7893 72.3906L77.1863 63.605C77.3569 63.5076 77.4989 63.366 77.5977 63.1948C77.6966 63.0235 77.7486 62.8288 77.7486 62.6304C77.7486 62.4321 77.6966 62.2374 77.5977 62.0661C77.4989 61.8949 77.3569 61.7533 77.1863 61.6559L61.946 52.9607C61.615 52.772 61.2414 52.6728 60.8614 52.6728C60.4815 52.6728 60.1079 52.772 59.7768 52.9607H59.7777Z" fill="white"/>
</svg>