<?xml version="1.0" encoding="UTF-8"?><!DOCTYPE svg>
<svg width="20" height="20" viewBox="0 0 32 21" fill="none" xmlns="http://www.w3.org/2000/svg">
<path d="M11.6198 0.711769L11.6653 0.736078L15.5223 2.92307C15.6521 2.99656 15.7984 3.03517 15.9473 3.03517C16.0962 3.03517 16.2426 2.99656 16.3723 2.92307L20.1992 0.760055C20.4954 0.591072 20.8459 0.545963 21.175 0.634455C21.504 0.722957 21.7853 0.937974 21.9582 1.23313C22.131 1.52829 22.1815 1.87994 22.0989 2.21224C22.0162 2.54452 21.807 2.83084 21.5163 3.00941L21.4725 3.03531L19.2637 4.28594C19.1968 4.32388 19.1411 4.37908 19.1025 4.44571C19.0639 4.51234 19.0434 4.58811 19.0434 4.66525C19.0434 4.7424 19.0639 4.81817 19.1025 4.8848C19.1411 4.95143 19.1968 5.00651 19.2637 5.04445L25.2267 8.42468C25.3565 8.4984 25.5029 8.53714 25.6518 8.53714C25.8007 8.53714 25.9472 8.4984 26.0768 8.42468L29.7656 6.33417C30.0618 6.16331 30.4131 6.11668 30.7433 6.20457C31.0734 6.29234 31.3559 6.50743 31.5294 6.8032C31.703 7.09897 31.7536 7.45165 31.6703 7.7848C31.5871 8.11783 31.3767 8.40445 31.0847 8.58263L31.0405 8.6088L28.9633 9.78365C28.8965 9.8216 28.8408 9.87668 28.8022 9.94331C28.7634 10.0099 28.7431 10.0856 28.7431 10.1627C28.7431 10.2399 28.7634 10.3158 28.8022 10.3823C28.8408 10.4489 28.8965 10.504 28.9633 10.5419L31.0499 11.7251C31.3472 11.8925 31.5672 12.1704 31.6625 12.4993C31.7577 12.8282 31.7207 13.1815 31.5593 13.4832C31.3978 13.7848 31.125 14.0106 30.7997 14.1118C30.4742 14.213 30.1223 14.1816 29.8197 14.0243L29.7745 13.9994L26.0755 11.9026C25.9458 11.829 25.7995 11.7903 25.6506 11.7903C25.5018 11.7903 25.3554 11.829 25.2258 11.9026L19.1962 15.3201C19.1294 15.3579 19.0737 15.413 19.0351 15.4795C18.9963 15.5462 18.9759 15.6219 18.9759 15.6991C18.9759 15.7762 18.9963 15.8519 19.0351 15.9185C19.0737 15.9851 19.1294 16.0401 19.1962 16.0779L21.6871 17.4902C21.9814 17.6589 22.1985 17.9367 22.292 18.2642C22.3854 18.5917 22.3479 18.943 22.1873 19.243C22.0269 19.5431 21.756 19.7681 21.4327 19.8702C21.1094 19.9721 20.7593 19.9431 20.457 19.7891L20.4119 19.7645L16.3097 17.4381C16.1799 17.3646 16.0336 17.3261 15.8847 17.3261C15.7358 17.3261 15.5895 17.3646 15.4597 17.4381L11.3202 19.7871C11.0241 19.9562 10.6737 20.0015 10.3447 19.9131C10.0157 19.8249 9.73429 19.6101 9.56138 19.3151C9.38835 19.0201 9.33749 18.6687 9.41989 18.3363C9.50218 18.0041 9.71109 17.7176 10.0015 17.5387L10.0454 17.5126L12.5713 16.0776C12.6208 16.0496 12.6642 16.012 12.6993 15.9671C12.7344 15.9222 12.7603 15.8706 12.7755 15.8157C12.7909 15.7606 12.7952 15.7031 12.7883 15.6464C12.7815 15.5897 12.7635 15.5349 12.7357 15.4851C12.6973 15.4157 12.6403 15.3584 12.5713 15.3198L6.59574 11.9336C6.46597 11.8602 6.3196 11.8216 6.1707 11.8216C6.02183 11.8216 5.87547 11.8602 5.7457 11.9336L2.22734 13.9242C1.93095 14.0944 1.57986 14.1403 1.25005 14.0521C0.920244 13.9638 0.638256 13.7486 0.465136 13.4528C0.292016 13.157 0.241684 12.8046 0.325033 12.4718C0.408393 12.139 0.618724 11.8526 0.910507 11.6746L0.954073 11.649L2.85667 10.5722C2.92366 10.5345 2.97943 10.4795 3.01826 10.4129C3.05708 10.3463 3.07755 10.2704 3.07755 10.1931C3.07755 10.116 3.05708 10.0401 3.01826 9.97348C2.97943 9.90685 2.92366 9.85188 2.85667 9.81405L0.95757 8.73668C0.663238 8.568 0.446164 8.29017 0.352701 7.96263C0.259238 7.6352 0.296793 7.28388 0.45733 6.98388C0.617867 6.68377 0.888679 6.45874 1.21196 6.35668C1.53523 6.25474 1.88535 6.28377 2.18759 6.43782L2.23307 6.4624L5.74792 8.45497C5.8775 8.52857 6.02382 8.5672 6.17261 8.5672C6.32143 8.5672 6.46772 8.52857 6.59733 8.45497L12.6307 5.04103C12.6976 5.00308 12.7531 4.948 12.7918 4.88137C12.8305 4.81463 12.8509 4.73885 12.8509 4.66171C12.8509 4.58457 12.8305 4.5088 12.7918 4.44217C12.7531 4.37554 12.6976 4.32045 12.6307 4.28251L10.3898 3.01133C10.0954 2.84256 9.8784 2.56477 9.78492 2.23727C9.69143 1.90977 9.72903 1.5585 9.8896 1.25845C10.0501 0.958408 10.3209 0.733358 10.6442 0.631335C10.9674 0.529312 11.3176 0.558409 11.6198 0.712409V0.711769ZM15.5214 6.40137L9.48697 9.81565C9.42012 9.8536 9.36435 9.90857 9.3256 9.97531C9.28686 10.0419 9.26652 10.1177 9.26652 10.195C9.26652 10.2721 9.28686 10.348 9.3256 10.4146C9.36435 10.4813 9.42012 10.5363 9.48697 10.5742L15.4591 13.9594C15.5888 14.033 15.7351 14.0717 15.8841 14.0717C16.033 14.0717 16.1794 14.033 16.309 13.9594L22.3381 10.5419C22.4049 10.504 22.4605 10.4489 22.4992 10.3823C22.5378 10.3158 22.5583 10.2399 22.5583 10.1627C22.5583 10.0856 22.5378 10.0099 22.4992 9.94331C22.4605 9.87668 22.4049 9.8216 22.3381 9.78365L16.3704 6.40137C16.2408 6.32788 16.0945 6.28937 15.9457 6.28937C15.7969 6.28937 15.6507 6.32788 15.521 6.40137H15.5214Z" fill="white"/>
</svg>
