<svg width="40" height="40" viewBox="0 0 40 40" fill="none" xmlns="http://www.w3.org/2000/svg">
<g clip-path="url(#clip0_23295_3125)">
<path d="M40 0H0V40H40V0Z" fill="#DD344C" fill-opacity="0.12"/>
<path fill-rule="evenodd" clip-rule="evenodd" d="M31.9802 22.225C34.6432 19.562 34.6432 15.228 31.9802 12.566C30.6902 11.276 28.9742 10.565 27.1502 10.565C25.3262 10.565 23.6113 11.276 22.3213 12.566L16.5022 18.384C14.7582 20.128 14.0893 22.688 14.7563 25.065L15.7192 24.794C15.1492 22.766 15.7203 20.58 17.2093 19.091L23.0282 13.273C24.1282 12.172 25.5932 11.565 27.1502 11.565C28.7082 11.565 30.1713 12.172 31.2733 13.273C33.5453 15.546 33.5453 19.245 31.2733 21.518L19.4972 33.294L20.2043 34.001L31.9802 22.225ZM12.8273 29.597C11.0022 29.597 9.28725 28.886 7.99725 27.596C5.33425 24.933 5.33425 20.6 7.99725 17.937L19.9333 6L20.6403 6.707L8.70425 18.644C6.43125 20.917 6.43125 24.616 8.70425 26.889C9.80525 27.99 11.2693 28.597 12.8273 28.597C14.3832 28.597 15.8483 27.99 16.9493 26.889L22.7673 21.071C24.3423 19.496 24.8803 17.204 24.1723 15.09L25.1203 14.773C25.9503 17.248 25.3193 19.933 23.4743 21.778L17.6562 27.596C16.3663 28.886 14.6513 29.597 12.8273 29.597Z" fill="#DD344C"/>
</g>
<rect x="0.5" y="0.5" width="39" height="39" stroke="#DD344C"/>
<defs>
<clipPath id="clip0_23295_3125">
<rect width="40" height="40" fill="white"/>
</clipPath>
</defs>
</svg>
