<svg width="40" height="40" viewBox="0 0 40 40" fill="none" xmlns="http://www.w3.org/2000/svg">
<g clip-path="url(#clip0_23295_2976)">
<path d="M40 0H0V40H40V0Z" fill="#E7157B" fill-opacity="0.12"/>
<path fill-rule="evenodd" clip-rule="evenodd" d="M7.00992 20.078C7.00992 19.475 7.50478 18.985 8.11477 18.985C8.72274 18.985 9.21861 19.475 9.21861 20.078C9.21861 20.681 8.72274 21.171 8.11477 21.171C7.50478 21.171 7.00992 20.681 7.00992 20.078ZM20.7761 33C14.8126 33 9.6448 28.375 8.47026 22.136C9.30041 21.995 9.9609 21.378 10.1599 20.578H13.1088V19.578H10.1599C9.96292 18.789 9.31859 18.176 8.50561 18.024C9.72054 12.252 14.8378 8 20.7761 8C23.7089 8 26.1297 8.643 27.9698 9.911L28.5454 9.09C26.5337 7.703 23.919 7 20.7761 7C14.2662 7 8.67225 11.726 7.46842 18.096C6.61908 18.368 6 19.149 6 20.078C6 20.994 6.60191 21.766 7.43106 22.049C8.59145 28.894 14.2389 34 20.7761 34C24.0614 34 27.5638 32.333 29.5624 30.906L28.9726 30.095C26.9457 31.541 23.6261 33 20.7761 33ZM14.7893 18.242C15.9002 18.516 17.3121 18.563 18.1322 18.563C18.9653 18.563 20.4035 18.516 21.5336 18.243L19.133 23.257C19.1017 23.324 19.0845 23.397 19.0845 23.472V25.796L17.1283 26.711V23.472C17.1283 23.401 17.1121 23.33 17.0839 23.266L14.7893 18.242ZM18.1322 16.485C20.4459 16.485 21.6861 16.796 22.083 17.005C21.6659 17.239 20.3378 17.563 18.1322 17.563C15.9487 17.563 14.65 17.236 14.2601 17.005C14.6308 16.799 15.8417 16.485 18.1322 16.485ZM16.3527 27.923C16.4345 27.974 16.5284 28 16.6233 28C16.6971 28 16.7698 27.985 16.8384 27.953L19.8056 26.565C19.9823 26.482 20.0944 26.306 20.0944 26.113V23.584L23.003 17.51C23.1212 17.361 23.1918 17.193 23.1918 17C23.1918 15.748 20.4408 15.485 18.1322 15.485C15.8659 15.485 13.1634 15.748 13.1634 17C13.1634 17.19 13.23 17.355 13.3431 17.502L16.1184 23.579V27.5C16.1184 27.672 16.2062 27.831 16.3527 27.923ZM30.8763 27C31.4843 27 31.9802 27.491 31.9802 28.093C31.9802 28.696 31.4843 29.186 30.8763 29.186C30.2673 29.186 29.7725 28.696 29.7725 28.093C29.7725 27.491 30.2673 27 30.8763 27ZM30.8763 10.97C31.4843 10.97 31.9802 11.46 31.9802 12.063C31.9802 12.665 31.4843 13.156 30.8763 13.156C30.2673 13.156 29.7725 12.665 29.7725 12.063C29.7725 11.46 30.2673 10.97 30.8763 10.97ZM31.8862 18.985C32.4942 18.985 32.9901 19.475 32.9901 20.078C32.9901 20.681 32.4942 21.171 31.8862 21.171C31.2773 21.171 30.7824 20.681 30.7824 20.078C30.7824 19.475 31.2773 18.985 31.8862 18.985ZM27.279 20.578H29.8401C30.0684 21.49 30.8945 22.171 31.8862 22.171C33.0517 22.171 34 21.232 34 20.078C34 18.924 33.0517 17.985 31.8862 17.985C30.8945 17.985 30.0684 18.666 29.8401 19.578H27.279V12.563H28.8302C29.0585 13.475 29.8846 14.156 30.8763 14.156C32.0418 14.156 32.9901 13.217 32.9901 12.063C32.9901 10.909 32.0418 9.97 30.8763 9.97C29.8846 9.97 29.0585 10.651 28.8302 11.563H26.774C26.4953 11.563 26.2691 11.786 26.2691 12.063V19.578H23.208V20.578H26.2691V28.093C26.2691 28.37 26.4953 28.593 26.774 28.593H28.8302C29.0585 29.505 29.8846 30.186 30.8763 30.186C32.0418 30.186 32.9901 29.247 32.9901 28.093C32.9901 26.939 32.0418 26 30.8763 26C29.8846 26 29.0585 26.681 28.8302 27.593H27.279V20.578Z" fill="#E7157B"/>
</g>
<rect x="0.5" y="0.5" width="39" height="39" stroke="#E7157B"/>
<defs>
<clipPath id="clip0_23295_2976">
<rect width="40" height="40" fill="white"/>
</clipPath>
</defs>
</svg>
