<svg width="90" height="66" viewBox="0 0 90 66" fill="none" xmlns="http://www.w3.org/2000/svg">
<path d="M47 34.1C46.7348 34.1 46.4804 34.2054 46.2929 34.3929C46.1054 34.5804 46 34.8348 46 35.1V65C46 65.2652 46.1054 65.5196 46.2929 65.7071C46.4804 65.8946 46.7348 66 47 66H89C89.2652 66 89.5196 65.8946 89.7071 65.7071C89.8946 65.5196 90 65.2652 90 65V35.1C90 34.8348 89.8946 34.5804 89.7071 34.3929C89.5196 34.2054 89.2652 34.1 89 34.1H47ZM55.18 57.27C55.18 57.5352 55.0746 57.7896 54.8871 57.9771C54.6996 58.1646 54.4452 58.27 54.18 58.27C53.9148 58.27 53.6604 58.1646 53.4729 57.9771C53.2854 57.7896 53.18 57.5352 53.18 57.27V42.73C53.18 42.4648 53.2854 42.2104 53.4729 42.0229C53.6604 41.8354 53.9148 41.73 54.18 41.73C54.4452 41.73 54.6996 41.8354 54.8871 42.0229C55.0746 42.2104 55.18 42.4648 55.18 42.73V57.27ZM64.36 57.27C64.36 57.5352 64.2546 57.7896 64.0671 57.9771C63.8796 58.1646 63.6252 58.27 63.36 58.27C63.0948 58.27 62.8404 58.1646 62.6529 57.9771C62.4654 57.7896 62.36 57.5352 62.36 57.27V42.73C62.36 42.4648 62.4654 42.2104 62.6529 42.0229C62.8404 41.8354 63.0948 41.73 63.36 41.73C63.6252 41.73 63.8796 41.8354 64.0671 42.0229C64.2546 42.2104 64.36 42.4648 64.36 42.73V57.27ZM73.54 57.27C73.54 57.5352 73.4346 57.7896 73.2471 57.9771C73.0596 58.1646 72.8052 58.27 72.54 58.27C72.2748 58.27 72.0204 58.1646 71.8329 57.9771C71.6454 57.7896 71.54 57.5352 71.54 57.27V42.73C71.54 42.4648 71.6454 42.2104 71.8329 42.0229C72.0204 41.8354 72.2748 41.73 72.54 41.73C72.8052 41.73 73.0596 41.8354 73.2471 42.0229C73.4346 42.2104 73.54 42.4648 73.54 42.73V57.27ZM82.72 57.27C82.72 57.5352 82.6146 57.7896 82.4271 57.9771C82.2396 58.1646 81.9852 58.27 81.72 58.27C81.4548 58.27 81.2004 58.1646 81.0129 57.9771C80.8254 57.7896 80.72 57.5352 80.72 57.27V42.73C80.72 42.4648 80.8254 42.2104 81.0129 42.0229C81.2004 41.8354 81.4548 41.73 81.72 41.73C81.9852 41.73 82.2396 41.8354 82.4271 42.0229C82.6146 42.2104 82.72 42.4648 82.72 42.73V57.27ZM24 0C23.7348 0 23.4804 0.105357 23.2929 0.292893C23.1054 0.48043 23 0.734784 23 1V30.9C23 31.1652 23.1054 31.4196 23.2929 31.6071C23.4804 31.7946 23.7348 31.9 24 31.9H66C66.2652 31.9 66.5196 31.7946 66.7071 31.6071C66.8946 31.4196 67 31.1652 67 30.9V1C67 0.734784 66.8946 0.48043 66.7071 0.292893C66.5196 0.105357 66.2652 0 66 0L24 0ZM32.18 23.27C32.18 23.5352 32.0746 23.7896 31.8871 23.9771C31.6996 24.1646 31.4452 24.27 31.18 24.27C30.9148 24.27 30.6604 24.1646 30.4729 23.9771C30.2854 23.7896 30.18 23.5352 30.18 23.27V8.73C30.18 8.46478 30.2854 8.21043 30.4729 8.02289C30.6604 7.83536 30.9148 7.73 31.18 7.73C31.4452 7.73 31.6996 7.83536 31.8871 8.02289C32.0746 8.21043 32.18 8.46478 32.18 8.73V23.27ZM41.45 23.27C41.45 23.5352 41.3446 23.7896 41.1571 23.9771C40.9696 24.1646 40.7152 24.27 40.45 24.27C40.1848 24.27 39.9304 24.1646 39.7429 23.9771C39.5554 23.7896 39.45 23.5352 39.45 23.27V8.73C39.45 8.46478 39.5554 8.21043 39.7429 8.02289C39.9304 7.83536 40.1848 7.73 40.45 7.73C40.7152 7.73 40.9696 7.83536 41.1571 8.02289C41.3446 8.21043 41.45 8.46478 41.45 8.73V23.27ZM50.63 23.27C50.63 23.5352 50.5246 23.7896 50.3371 23.9771C50.1496 24.1646 49.8952 24.27 49.63 24.27C49.3648 24.27 49.1104 24.1646 48.9229 23.9771C48.7354 23.7896 48.63 23.5352 48.63 23.27V8.73C48.63 8.46478 48.7354 8.21043 48.9229 8.02289C49.1104 7.83536 49.3648 7.73 49.63 7.73C49.8952 7.73 50.1496 7.83536 50.3371 8.02289C50.5246 8.21043 50.63 8.46478 50.63 8.73V23.27ZM59.81 23.27C59.81 23.5352 59.7046 23.7896 59.5171 23.9771C59.3296 24.1646 59.0752 24.27 58.81 24.27C58.5448 24.27 58.2904 24.1646 58.1029 23.9771C57.9154 23.7896 57.81 23.5352 57.81 23.27V8.73C57.81 8.46478 57.9154 8.21043 58.1029 8.02289C58.2904 7.83536 58.5448 7.73 58.81 7.73C59.0752 7.73 59.3296 7.83536 59.5171 8.02289C59.7046 8.21043 59.81 8.46478 59.81 8.73V23.27ZM1 34.1C0.734784 34.1 0.48043 34.2054 0.292893 34.3929C0.105357 34.5804 0 34.8348 0 35.1L0 65C0 65.2652 0.105357 65.5196 0.292893 65.7071C0.48043 65.8946 0.734784 66 1 66H43C43.2652 66 43.5196 65.8946 43.7071 65.7071C43.8946 65.5196 44 65.2652 44 65V35.1C44 34.8348 43.8946 34.5804 43.7071 34.3929C43.5196 34.2054 43.2652 34.1 43 34.1H1ZM9.18 57.27C9.19363 57.5496 9.09614 57.8232 8.9088 58.0311C8.72145 58.2391 8.45947 58.3645 8.18 58.38C7.90053 58.3645 7.63855 58.2391 7.4512 58.0311C7.26386 57.8232 7.16637 57.5496 7.18 57.27V42.73C7.16907 42.4521 7.26778 42.1811 7.45484 41.9753C7.64191 41.7695 7.90234 41.6455 8.18 41.63C8.45766 41.6455 8.71809 41.7695 8.90516 41.9753C9.09222 42.1811 9.19093 42.4521 9.18 42.73V57.27ZM18.36 57.27C18.36 57.5352 18.2546 57.7896 18.0671 57.9771C17.8796 58.1646 17.6252 58.27 17.36 58.27C17.0948 58.27 16.8404 58.1646 16.6529 57.9771C16.4654 57.7896 16.36 57.5352 16.36 57.27V42.73C16.36 42.4648 16.4654 42.2104 16.6529 42.0229C16.8404 41.8354 17.0948 41.73 17.36 41.73C17.6252 41.73 17.8796 41.8354 18.0671 42.0229C18.2546 42.2104 18.36 42.4648 18.36 42.73V57.27ZM27.54 57.27C27.54 57.5352 27.4346 57.7896 27.2471 57.9771C27.0596 58.1646 26.8052 58.27 26.54 58.27C26.2748 58.27 26.0204 58.1646 25.8329 57.9771C25.6454 57.7896 25.54 57.5352 25.54 57.27V42.73C25.54 42.4648 25.6454 42.2104 25.8329 42.0229C26.0204 41.8354 26.2748 41.73 26.54 41.73C26.8052 41.73 27.0596 41.8354 27.2471 42.0229C27.4346 42.2104 27.54 42.4648 27.54 42.73V57.27ZM36.81 57.27C36.81 57.5352 36.7046 57.7896 36.5171 57.9771C36.3296 58.1646 36.0752 58.27 35.81 58.27C35.5448 58.27 35.2904 58.1646 35.1029 57.9771C34.9154 57.7896 34.81 57.5352 34.81 57.27V42.73C34.81 42.4648 34.9154 42.2104 35.1029 42.0229C35.2904 41.8354 35.5448 41.73 35.81 41.73C36.0752 41.73 36.3296 41.8354 36.5171 42.0229C36.7046 42.2104 36.81 42.4648 36.81 42.73V57.27Z" fill="#326CE5"/>
</svg>
