<svg width="30" height="30" viewBox="0 0 30 30" fill="none" xmlns="http://www.w3.org/2000/svg">
<path opacity="0.8" d="M26.5622 13.0833C26.5622 13 26.5205 12.9792 26.4372 12.9792H26.2705V13.1667V13.1875H26.4372C26.5205 13.1875 26.5622 13.1667 26.5622 13.0833Z" fill="white"/>
<path opacity="0.8" d="M26.3962 12.7292C26.1253 12.7292 25.917 12.9375 25.917 13.2083C25.917 13.4792 26.1253 13.6875 26.3962 13.6875C26.6462 13.6875 26.8753 13.4792 26.8753 13.2083C26.8753 12.9375 26.667 12.7292 26.3962 12.7292ZM26.5837 13.5L26.417 13.25H26.2712V13.5208H26.167V12.875H26.4587C26.542 12.875 26.667 12.8958 26.667 13.0625C26.667 13.125 26.6462 13.2292 26.5212 13.25L26.7087 13.5H26.5837Z" fill="white"/>
<path d="M15 0C6.70833 0 0 6.70833 0 15C0 23.2917 6.70833 30 15 30C23.2917 30 30 23.2917 30 15C30 6.70833 23.2917 0 15 0ZM5.5625 15.875C5.79167 16.1042 6.0625 16.2083 6.41667 16.2083C6.625 16.2083 6.8125 16.1667 7 16.0833C7.16667 16 7.33333 15.875 7.47917 15.6875L7.52083 15.625L8.22917 16.625L8.20833 16.6458C7.75 17.1458 7.1875 17.3125 6.97917 17.375C6.79167 17.4375 6.54167 17.4583 6.27083 17.4583C5.58333 17.4583 5 17.2292 4.54167 16.7708C4.08333 16.3125 3.85417 15.7083 3.85417 15.0208C3.85417 14.3333 4.08333 13.7292 4.54167 13.2708C5 12.7917 5.58333 12.5625 6.27083 12.5625C6.54167 12.5625 6.77083 12.6042 6.97917 12.6458C7.41667 12.7292 7.8125 12.9583 8.1875 13.2917L8.22917 13.3125L7.52083 14.3958L7.47917 14.3333C7.35417 14.1458 7.20833 14.0208 7 13.9375C6.8125 13.8542 6.625 13.8125 6.41667 13.8125C6.0625 13.8125 5.77083 13.9167 5.5625 14.1458C5.33333 14.375 5.22917 14.6667 5.22917 15.0417C5.22917 15.375 5.33333 15.6667 5.5625 15.875ZM10.125 17.3542H8.83333V12.6458H10.125V17.3542ZM9.47917 12.2917C9.02083 12.2917 8.66667 11.9375 8.66667 11.4792C8.66667 11.0208 9.04167 10.6667 9.47917 10.6667C9.9375 10.6667 10.2917 11.0208 10.2917 11.4792C10.2917 11.9375 9.91667 12.2917 9.47917 12.2917ZM14.4375 13.8125H13.2083V17.3542H11.9167V13.8125H10.6667V12.6458H14.4375V13.8125ZM19.3125 12.6458H20.6042V17.3542H19.3125V12.6458ZM17.2917 17.375L16.3125 15.7083V17.375H15V12.6667H16.4583C17.2083 12.6667 17.75 12.7708 18.0625 13.0208C18.375 13.25 18.5417 13.6458 18.5417 14.1667C18.5417 14.5208 18.4583 14.8333 18.2708 15.0625C18.1042 15.2708 17.8542 15.4167 17.5417 15.5L18.8333 17.375H17.2917ZM19.9583 19.3125C19.5 19.3125 19.1458 18.9375 19.1458 18.5C19.1458 18.0417 19.5208 17.6875 19.9583 17.6875C20.4167 17.6875 20.7708 18.0625 20.7708 18.5C20.7708 18.9583 20.3958 19.3125 19.9583 19.3125ZM24.3125 17.3542L23.3333 15.875L22.375 17.3542H20.875L22.5417 14.875L21.0208 12.6458H22.5208L23.3333 13.875L24.1458 12.6458H25.6458L24.1458 14.875L25.8125 17.3542H24.3125ZM26.3958 13.7917C26.0625 13.7917 25.8125 13.5208 25.8125 13.2083C25.8125 12.875 26.0833 12.625 26.3958 12.625C26.7083 12.625 26.9583 12.8958 26.9792 13.2083C26.9792 13.5417 26.7083 13.7917 26.3958 13.7917Z" fill="white"/>
<path opacity="0.8" d="M17.0212 13.8542C16.917 13.75 16.7295 13.7083 16.4795 13.7083H16.292V14.8333H16.4587C16.7087 14.8333 16.8962 14.7917 17.0212 14.7083C17.1462 14.625 17.1878 14.5 17.167 14.3125C17.167 14.1042 17.1253 13.9375 17.0212 13.8542Z" fill="white"/>
</svg>