<svg width="90" height="90" viewBox="0 0 90 90" fill="none" xmlns="http://www.w3.org/2000/svg">
<path fill-rule="evenodd" clip-rule="evenodd" d="M82 19.2347C82 29.0293 65.4345 36.9694 45 36.9694C24.5655 36.9694 8 29.0293 8 19.2347C8 9.4401 24.5655 1.5 45 1.5C65.4345 1.5 82 9.4401 82 19.2347ZM8 25.8564V70.7642V70.7657C8 80.5603 24.5655 88.5004 45 88.5004C65.4345 88.5004 82 80.5603 82 70.7657V70.7642V25.8161C78.2658 33.7737 63.114 39.729 44.9905 39.729C26.8976 39.729 11.7664 33.7938 8 25.8564ZM32.0941 62.8282L33.6215 51.1186L45.3312 49.5912L62.3866 66.6466L49.1495 79.8835L32.0941 62.8282ZM42.7026 54.7674C44.1085 56.1733 44.1085 58.4527 42.7026 59.8585C41.2967 61.2644 39.0173 61.2644 37.6114 59.8585C36.2055 58.4527 36.2055 56.1733 37.6114 54.7674C39.0173 53.3615 41.2967 53.3615 42.7026 54.7674Z" fill="white"/>
</svg>
