<svg width="40" height="40" viewBox="0 0 40 40" fill="none" xmlns="http://www.w3.org/2000/svg">
<g clip-path="url(#clip0_23295_3083)">
<path d="M40 0H0V40H40V0Z" fill="#DD344C" fill-opacity="0.12"/>
<path fill-rule="evenodd" clip-rule="evenodd" d="M27.8825 10.507C27.8825 11.405 28.6131 12.1356 29.5101 12.1356C30.408 12.1356 31.1377 11.405 31.1377 10.507C31.1377 9.60899 30.408 8.87837 29.5101 8.87837C28.6131 8.87837 27.8825 9.60899 27.8825 10.507ZM19.6452 19.6462L22.4935 16.7969C21.803 16.2577 20.9441 15.923 20.002 15.923C17.755 15.923 15.926 17.751 15.926 19.998C15.926 22.245 17.755 24.074 20.002 24.074C22.249 24.074 24.077 22.245 24.077 19.998C24.077 19.0549 23.7423 18.197 23.2021 17.5055L20.3538 20.3548L19.6452 19.6462ZM26.0474 14.6612L23.9107 16.7979C24.6303 17.6738 25.0792 18.7793 25.0792 19.998C25.0792 22.7982 22.8022 25.0762 20.002 25.0762C17.2018 25.0762 14.9238 22.7982 14.9238 19.998C14.9238 17.1988 17.2018 14.9208 20.002 14.9208C21.2217 14.9208 22.3262 15.3708 23.2021 16.0893L25.3388 13.9526C23.9137 12.6928 22.0485 11.9221 20.002 11.9221C15.5481 11.9221 11.9251 15.5451 11.9251 19.998C11.9251 24.4519 15.5481 28.0749 20.002 28.0749C24.4549 28.0749 28.0779 24.4519 28.0779 19.998C28.0779 17.9515 27.3072 16.0863 26.0474 14.6612ZM27.3242 11.9672C27.0446 11.5493 26.8802 11.0472 26.8802 10.507C26.8802 9.05677 28.0598 7.87615 29.5101 7.87615C30.9603 7.87615 32.1399 9.05677 32.1399 10.507C32.1399 11.9572 30.9603 13.1378 29.5101 13.1378C28.9608 13.1378 28.4517 12.9674 28.0298 12.6788L26.756 13.9526C28.1951 15.5602 29.0801 17.6749 29.0801 19.998C29.0801 25.0041 25.0081 29.0771 20.002 29.0771C14.9959 29.0771 10.9229 25.0041 10.9229 19.998C10.9229 14.9919 14.9959 10.9199 20.002 10.9199C22.3251 10.9199 24.4398 11.8039 26.0474 13.244L27.3242 11.9672ZM34 20C34 27.7191 27.7191 34 20 34C12.2809 34 6 27.7191 6 20C6 12.2809 12.2809 6 20 6C21.9603 6 23.8565 6.39888 25.6395 7.18563L25.2336 8.10266C23.5809 7.37304 21.82 7.00222 20 7.00222C12.8321 7.00222 7.00222 12.8331 7.00222 20C7.00222 27.1669 12.8321 32.9978 20 32.9978C27.1669 32.9978 32.9978 27.1669 32.9978 20C32.9978 18.176 32.629 16.4231 31.9044 14.7915L32.8204 14.3846C33.6031 16.1455 34 18.0346 34 20Z" fill="#DD344C"/>
</g>
<rect x="0.5" y="0.5" width="39" height="39" stroke="#DD344C"/>
<defs>
<clipPath id="clip0_23295_3083">
<rect width="40" height="40" fill="white"/>
</clipPath>
</defs>
</svg>
