<svg width="40" height="40" viewBox="0 0 40 40" fill="none" xmlns="http://www.w3.org/2000/svg">
<g clip-path="url(#clip0_23298_4141)">
<path d="M40 0H0V40H40V0Z" fill="#E7157B" fill-opacity="0.12"/>
<path fill-rule="evenodd" clip-rule="evenodd" d="M32.746 30.4265L27.315 24.9475C26.745 25.8545 25.991 26.6335 25.098 27.2245L30.444 32.7395C30.658 32.9515 30.937 33.0395 31.277 32.9855C31.647 32.9285 32.037 32.7125 32.374 32.3755C32.95 31.7985 33.263 30.9445 32.746 30.4265ZM26.396 30.0005L24.195 27.7295C23.22 28.1955 22.134 28.4645 20.983 28.4645C20.649 28.4645 20.323 28.4345 20 28.3925V32.7415L26.396 30.0005ZM7 27.1805L19 32.7185V28.1895C15.837 27.3165 13.504 24.4215 13.504 20.9855C13.504 19.4605 13.965 18.0425 14.751 16.8595L7 13.2825V27.1805ZM7.693 12.5005L15.38 16.0475C16.752 14.4935 18.752 13.5055 20.983 13.5055C22.734 13.5055 24.342 14.1145 25.618 15.1255L31.306 12.5005L19.5 7.0515L7.693 12.5005ZM27.463 20.9855C27.463 17.4125 24.557 14.5055 20.983 14.5055C17.41 14.5055 14.504 17.4125 14.504 20.9855C14.504 24.5575 17.41 27.4645 20.983 27.4645C24.557 27.4645 27.463 24.5575 27.463 20.9855ZM31.296 27.5425L32 27.1915V13.2815L26.415 15.8595C27.681 17.1995 28.463 19.0005 28.463 20.9855C28.463 22.0685 28.226 23.0955 27.81 24.0255L31.296 27.5425ZM33.455 29.7205C34.319 30.5865 34.162 32.0005 33.081 33.0825C32.595 33.5685 32.008 33.8855 31.43 33.9745C31.315 33.9915 31.203 34.0005 31.094 34.0005C30.572 34.0005 30.098 33.8075 29.731 33.4405L27.141 30.7695L19.697 33.9595C19.634 33.9865 19.567 34.0005 19.5 34.0005C19.429 34.0005 19.356 33.9855 19.29 33.9545L6.29 27.9545C6.113 27.8725 6 27.6955 6 27.5005V12.5005C6 12.3055 6.113 12.1285 6.29 12.0465L19.29 6.0465C19.425 5.9845 19.575 5.9845 19.71 6.0465L32.71 12.0465C32.887 12.1285 33 12.3055 33 12.5005V27.5005C33 27.6895 32.892 27.8625 32.724 27.9475L32.037 28.2905L33.455 29.7205ZM19 22.9995H20V20.9995H19V22.9995ZM19 25.9995H20V23.9995H19V25.9995ZM22.415 16.6045L22.835 17.5125L24.102 16.9265L23.683 16.0185L22.415 16.6045ZM21.062 17.2275L21.482 18.1355L20 18.8205V19.9995H19V18.8205L17.033 17.9125L17.453 17.0045L19.5 17.9495L21.062 17.2275Z" fill="#E7157B"/>
</g>
<rect x="0.5" y="0.5" width="39" height="39" stroke="#E7157B"/>
<defs>
<clipPath id="clip0_23298_4141">
<rect width="40" height="40" fill="white"/>
</clipPath>
</defs>
</svg>
