<svg width="90" height="90" viewBox="0 0 90 90" fill="none" xmlns="http://www.w3.org/2000/svg">
<path fill-rule="evenodd" clip-rule="evenodd" d="M75.2643 81.796C75.5375 82.0694 75.9812 82.0698 76.25 81.792C82.0657 75.7836 86.0312 68.2216 87.6641 60.0088C89.3426 51.567 88.4811 42.8168 85.1887 34.8648C83.1481 29.9361 80.2303 25.4512 76.6034 21.6148L65.5481 32.5673C67.7655 34.9737 69.5552 37.7636 70.8203 40.819C72.9356 45.928 73.489 51.5497 72.4107 56.9734C71.3778 62.1681 68.8924 66.9576 65.2502 70.7884C64.9841 71.0684 64.9833 71.5107 65.2564 71.7839L75.2643 81.796ZM63.6262 30.6738L74.6901 19.7127C72.978 18.1131 71.1321 16.6477 69.1673 15.3342C62.0138 10.5523 53.6035 8 45 8C36.3965 8 27.9862 10.5523 20.8327 15.3342C18.8881 16.6341 17.0601 18.0829 15.3629 19.6633L26.428 30.6255C27.384 29.7749 28.401 28.9878 29.4731 28.2711C34.0691 25.1988 39.4725 23.559 45 23.559C50.5275 23.559 55.9309 25.1988 60.5269 28.2711C61.6193 29.0013 62.6544 29.8047 63.6262 30.6738ZM4.81126 34.8648C6.86125 29.9136 9.79635 25.4102 13.4464 21.5622L24.501 32.5141C22.2609 34.9325 20.4541 37.741 19.1797 40.819C17.0644 45.928 16.511 51.5497 17.5893 56.9734C18.6222 62.1681 21.1076 66.9576 24.7498 70.7884C25.0159 71.0684 25.0167 71.5107 24.7436 71.7839L14.7357 81.796C14.4625 82.0694 14.0188 82.0698 13.75 81.792C7.93427 75.7836 3.96877 68.2216 2.33586 60.0088C0.657403 51.567 1.51885 42.8168 4.81126 34.8648ZM55.8768 55.9054C55.8768 62.011 50.9293 66.9606 44.8264 66.9606C38.7234 66.9606 33.776 62.011 33.776 55.9054C33.776 49.7998 38.7234 44.8502 44.8264 44.8502C45.8057 44.8502 46.7553 44.9777 47.6595 45.2169L61.4671 34.2484C62.0403 33.7931 62.8391 34.4127 62.5411 35.0815L55.09 51.8008C55.5976 53.0698 55.8768 54.455 55.8768 55.9054Z" fill="#326CE5"/>
</svg>
