<svg width="40" height="40" viewBox="0 0 40 40" fill="none" xmlns="http://www.w3.org/2000/svg">
<g clip-path="url(#clip0_23298_3911)">
<path d="M40 0H0V40H40V0Z" fill="#01A88D" fill-opacity="0.12"/>
<path fill-rule="evenodd" clip-rule="evenodd" d="M24 27.0722H33V13.0722H24V27.0722ZM23 27.0722V13.0722H21V15.0722H22V16.0722H21V19.0722H22V20.0722H21V23.0722H22V24.0722H21V27.0722H23ZM34 12.5722V27.5722C34 27.8482 33.776 28.0722 33.5 28.0722H20.5C20.224 28.0722 20 27.8482 20 27.5722V24.0722H19V23.0722H20V20.0722H19V19.0722H20V16.0722H19V15.0722H20V12.5722C20 12.2962 20.224 12.0722 20.5 12.0722H33.5C33.776 12.0722 34 12.2962 34 12.5722ZM20 29.0722H21V31.5722C21 31.7612 20.892 31.9342 20.724 32.0192L16.724 34.0192C16.653 34.0542 16.576 34.0722 16.5 34.0722C16.414 34.0722 16.329 34.0502 16.252 34.0062L9.252 30.0062C9.096 29.9172 9 29.7512 9 29.5722V24.9002L6.273 23.5182C6.105 23.4332 6 23.2602 6 23.0722V16.5722C6 16.4052 6.084 16.2492 6.223 16.1562L9 14.3042V10.0722C9 9.89023 9.1 9.72223 9.259 9.63423L15.745 6.06123C15.885 5.98623 16.052 5.97923 16.195 6.04523L20.709 8.11723C20.886 8.19923 21 8.37723 21 8.57223V11.0722H20V8.89323L16.007 7.05923L15 7.61323V12.0722H14V8.16423L10 10.3672V13.7952L13.478 15.9692L16 14.2782V12.0722H17V14.5452C17 14.7122 16.917 14.8672 16.778 14.9612L14 16.8222V19.0722H17V20.0722H13.5C13.224 20.0722 13 19.8482 13 19.5722V16.8492L9.879 14.8982C9.85 14.9322 9.815 14.9632 9.777 14.9882L7 16.8392V19.5782L10.199 17.1722L10.801 17.9712L7 20.8302V22.7652L9.726 24.1472C9.747 24.1572 9.756 24.1792 9.775 24.1922L12.18 22.1882L12.82 22.9562L10 25.3062V29.2822L12.655 30.7992L14 29.6992V24.0722H15V28.8802L17.684 26.6852L18.316 27.4592L13.585 31.3302L16.516 33.0052L20 31.2632V29.0722Z" fill="#01A88D"/>
</g>
<rect x="0.5" y="0.5" width="39" height="39" stroke="#01A88D"/>
<defs>
<clipPath id="clip0_23298_3911">
<rect width="40" height="40" fill="white"/>
</clipPath>
</defs>
</svg>
