<svg width="90" height="90" viewBox="0 0 90 90" fill="none" xmlns="http://www.w3.org/2000/svg">
<path fill-rule="evenodd" clip-rule="evenodd" d="M4 6C4 4.89543 4.89543 4 6 4H84C85.1046 4 86 4.89543 86 6V84C86 85.1046 85.1046 86 84 86H6C4.89543 86 4 85.1046 4 84V6ZM19.82 21C18.2626 21 17 22.2626 17 23.82V60.334C17 61.8915 18.2626 63.154 19.82 63.154H38.0041C36.0532 60.0105 34.9257 56.2952 34.9257 52.3147C34.9257 41.0067 44.0247 31.8398 55.2489 31.8398C56.4749 31.8398 57.6756 31.9492 58.8418 32.1588V23.82C58.8418 22.2626 57.5793 21 56.0218 21H19.82ZM56.2455 35.4824C55.9158 35.4629 55.5835 35.453 55.2489 35.453C46.0054 35.453 38.5122 43.0022 38.5122 52.3147C38.5122 56.4421 39.9841 60.2231 42.4281 63.154H42.4452C45.5154 66.8366 50.1198 69.1773 55.2669 69.1773C64.5103 69.1773 72.0036 61.6281 72.0036 52.3157C72.0036 43.3343 65.0335 35.9929 56.2455 35.4824Z" fill="white"/>
</svg>
