<svg width="40" height="40" viewBox="0 0 40 40" xmlns="http://www.w3.org/2000/svg">  <g id="Icon-Architecture/32/Arch_Amazon-FSx-for-NetApp-ONTAP_32" stroke="none" stroke-width="1" fill="none" fill-rule="evenodd">  <g id="Icon-Service/32/Amazon-FSx-for-NetApp-ONTAP_32" transform="translate(6.000000, 14.000000)" fill="#FFFFFF"> <path d="M23.92,15.641 C24.131,15.577 24.274,15.383 24.274,15.163 L24.274,9.909 L23.274,9.909 L23.274,13.524 L21.063,10.236 C20.94,10.054 20.71,9.971 20.502,10.037 C20.291,10.101 20.148,10.296 20.148,10.516 L20.148,15.537 L21.148,15.537 L21.148,12.154 L23.359,15.442 C23.454,15.583 23.611,15.663 23.774,15.663 C23.823,15.663 23.872,15.656 23.92,15.641 L23.92,15.641 Z M14.463,6.223 L14.947,6.906 L13.155,9.524 L12.08,9.524 L14.463,6.223 Z M15.986,5.517 L16.835,6.724 C16.671,7.065 16.544,7.423 16.465,7.796 L14.922,5.587 L15.464,4.835 L17.492,1.941 L18.551,1.941 L15.986,5.517 Z M14.45,4.945 L12.319,1.941 L13.437,1.941 L15.015,4.193 L14.45,4.945 Z M11.196,5.691 C11.489,6.051 11.636,6.503 11.636,7.045 C11.636,7.837 11.345,8.478 10.762,8.967 C10.18,9.456 9.412,9.701 8.46,9.701 C7.473,9.701 6.592,9.514 5.818,9.14 L5.818,8.46 C6.752,8.798 7.611,8.967 8.394,8.967 C9.132,8.967 9.721,8.794 10.162,8.447 C10.602,8.1 10.822,7.628 10.822,7.032 C10.822,6.667 10.702,6.356 10.462,6.098 C10.222,5.84 9.835,5.609 9.301,5.404 L7.753,4.804 C7.068,4.537 6.566,4.219 6.245,3.85 C5.925,3.481 5.765,3.025 5.765,2.482 C5.765,1.744 6.03,1.145 6.559,0.687 C7.088,0.229 7.784,-1.77635684e-15 8.647,-1.77635684e-15 C9.039,-1.77635684e-15 9.45,0.047 9.881,0.14 C10.313,0.233 10.72,0.365 11.102,0.534 L11.102,1.214 C10.195,0.894 9.39,0.734 8.687,0.734 C8.002,0.734 7.477,0.883 7.113,1.181 C6.748,1.479 6.566,1.904 6.566,2.455 C6.566,2.767 6.621,3.018 6.732,3.209 C6.843,3.401 7.026,3.574 7.279,3.73 C7.533,3.885 7.895,4.052 8.367,4.23 L9.795,4.777 C10.435,5.026 10.902,5.331 11.196,5.691 L11.196,5.691 Z M1.77635684e-15,9.474 L0.787,9.474 L0.787,5.177 L4.51,5.177 L4.51,4.47 L0.787,4.47 L0.787,0.934 L5.191,0.934 L5.191,0.227 L1.77635684e-15,0.227 L1.77635684e-15,9.474 Z M25.698,13.145 L25.616,12.148 C25.761,12.135 27.047,11.974 27.047,10.59 C27.047,9.442 26.155,9.117 25.624,9.026 C25.361,8.981 25.18,8.736 25.213,8.471 C25.178,8.016 24.953,7.641 24.612,7.541 C24.346,7.463 24.068,7.566 23.889,7.81 C23.777,7.959 23.596,8.034 23.413,8.008 C23.23,7.981 23.077,7.855 23.015,7.681 C22.857,7.233 22.629,6.858 22.339,6.566 C21.986,6.214 21.023,5.453 19.658,6.031 C18.889,6.357 18.263,7.335 18.263,8.212 C18.263,8.314 18.27,8.413 18.281,8.512 C18.31,8.761 18.15,8.993 17.908,9.054 C17.37,9.191 16.73,9.566 16.73,10.572 C16.73,10.642 16.733,10.709 16.738,10.775 C16.811,11.537 17.505,12.138 18.319,12.139 L18.319,13.139 C16.994,13.137 15.862,12.139 15.742,10.865 C15.734,10.768 15.73,10.672 15.73,10.572 C15.73,9.467 16.295,8.612 17.263,8.216 L17.263,8.212 C17.263,6.928 18.125,5.594 19.268,5.11 C20.601,4.544 22.015,4.826 23.047,5.861 C23.29,6.105 23.5,6.388 23.673,6.706 C24.045,6.51 24.478,6.461 24.893,6.581 C25.558,6.776 26.019,7.343 26.167,8.127 C27.133,8.413 28.047,9.177 28.047,10.59 C28.047,12.459 26.511,13.078 25.698,13.145 L25.698,13.145 Z" id="Fill-8"></path> </g> </g></svg>