<svg width="90" height="90" viewBox="0 0 90 90" fill="none" xmlns="http://www.w3.org/2000/svg">
<path d="M59.9075 26.5747C59.9075 39.0423 49.8841 49.1494 37.5197 49.1494C25.1552 49.1494 15.1318 39.0423 15.1318 26.5747C15.1318 14.107 25.1552 4 37.5197 4C49.8841 4 59.9075 14.107 59.9075 26.5747Z" fill="#326CE5"/>
<path fill-rule="evenodd" clip-rule="evenodd" d="M39.0726 27.8465C40.6263 27.1117 41.7023 25.5201 41.7023 23.6752C41.7023 21.132 39.6577 19.0703 37.1356 19.0703C34.6135 19.0703 32.5688 21.132 32.5688 23.6752C32.5688 25.6563 33.8096 27.3453 35.5503 27.995L33.8133 35.5541H40.6758L39.0726 27.8465Z" fill="white"/>
<path fill-rule="evenodd" clip-rule="evenodd" d="M49.7269 56.8764C45.5713 54.7833 40.9532 53.6641 36.2206 53.6641C28.2048 53.6641 20.5174 56.8749 14.8493 62.5902C9.18133 68.3056 5.99707 76.0572 5.99707 84.1399L36.2206 84.1399H51.7181C48.0366 80.2988 45.7715 75.0685 45.7715 69.3048C45.7715 64.6683 47.2372 60.377 49.7269 56.8764Z" fill="#326CE5"/>
<path fill-rule="evenodd" clip-rule="evenodd" d="M67.3964 85.9997C76.5678 85.9997 84.0027 78.5027 84.0027 69.2547C84.0027 60.0067 76.5678 52.5098 67.3964 52.5098C58.225 52.5098 50.79 60.0067 50.79 69.2547C50.79 78.5027 58.225 85.9997 67.3964 85.9997ZM67.094 76.7886L77.8008 64.4502L75.281 62.2636L65.629 73.3866L59.2338 68.2278L57.1392 70.8244L64.7868 76.9936L66.0394 78.004L67.094 76.7886Z" fill="#326CE5"/>
</svg>
