<svg width="24" height="24" viewBox="0 0 24 24" fill="none" xmlns="http://www.w3.org/2000/svg">
<path d="M12.666 2.24616L18.8608 5.87209C19.2808 6.10206 19.5438 6.53949 19.5491 7.01676V14.9746C19.5424 15.4515 19.2798 15.8883 18.8608 16.1193L8.99041 21.8906C8.83067 21.9848 8.62457 21.9327 8.52924 21.7741C8.49972 21.7241 8.48316 21.6676 8.48106 21.6096V18.107L5.09456 16.1193C4.67559 15.8883 4.41296 15.4515 4.40625 14.9746V7.01676C4.41152 6.53949 4.67456 6.10206 5.09456 5.87209L11.2894 2.24616C11.7153 2.00128 12.2401 2.00128 12.666 2.24616Z" fill="white"/>
<path fill-rule="evenodd" clip-rule="evenodd" d="M9.81914 13.2367C9.81914 12.8423 9.49935 12.5225 9.10488 12.5225C8.71042 12.5225 8.39062 12.8423 8.39062 13.2367V14.6652C8.39062 15.0597 8.71042 15.3795 9.10488 15.3795C9.49935 15.3795 9.81914 15.0597 9.81914 14.6652V13.2367Z" fill="#185ABC"/>
<path fill-rule="evenodd" clip-rule="evenodd" d="M9.81914 11.0932C9.81914 10.6987 9.49935 10.3789 9.10488 10.3789C8.71042 10.3789 8.39062 10.6987 8.39062 11.0932C8.39062 11.4876 8.71042 11.8074 9.10488 11.8074C9.49935 11.8074 9.81914 11.4876 9.81914 11.0932Z" fill="#4285F4"/>
<path fill-rule="evenodd" clip-rule="evenodd" d="M12.6761 11.0932C12.6761 10.6987 12.3563 10.3789 11.9618 10.3789C11.5674 10.3789 11.2476 10.6987 11.2476 11.0932C11.2476 11.4876 11.5674 11.8074 11.9618 11.8074C12.3563 11.8074 12.6761 11.4876 12.6761 11.0932Z" fill="#4285F4"/>
<path fill-rule="evenodd" clip-rule="evenodd" d="M12.6761 8.95059C12.6761 8.55612 12.3563 8.23633 11.9618 8.23633C11.5674 8.23633 11.2476 8.55612 11.2476 8.95059C11.2476 9.34505 11.5674 9.66484 11.9618 9.66484C12.3563 9.66484 12.6761 9.34505 12.6761 8.95059Z" fill="#669DF6"/>
<path fill-rule="evenodd" clip-rule="evenodd" d="M15.5333 6.80801C15.5333 6.41354 15.2135 6.09375 14.819 6.09375C14.4245 6.09375 14.1047 6.41354 14.1047 6.80801C14.1047 7.20247 14.4245 7.52227 14.819 7.52227C15.2135 7.52227 15.5333 7.20247 15.5333 6.80801Z" fill="#669DF6"/>
<path fill-rule="evenodd" clip-rule="evenodd" d="M15.5333 11.0932C15.5333 10.6987 15.2135 10.3789 14.819 10.3789C14.4245 10.3789 14.1047 10.6987 14.1047 11.0932C14.1047 11.4876 14.4245 11.8074 14.819 11.8074C15.2135 11.8074 15.5333 11.4876 15.5333 11.0932Z" fill="#185ABC"/>
<path fill-rule="evenodd" clip-rule="evenodd" d="M15.5333 8.95059C15.5333 8.55612 15.2135 8.23633 14.819 8.23633C14.4245 8.23633 14.1047 8.55612 14.1047 8.95059C14.1047 9.34505 14.4245 9.66484 14.819 9.66484C15.2135 9.66484 15.5333 9.34505 15.5333 8.95059Z" fill="#4285F4"/>
<path fill-rule="evenodd" clip-rule="evenodd" d="M11.2476 13.2367C11.2476 12.8423 11.5674 12.5225 11.9618 12.5225C12.3563 12.5225 12.6761 12.8423 12.6761 13.2367V14.6652C12.6761 15.0597 12.3563 15.3795 11.9618 15.3795C11.5674 15.3795 11.2476 15.0597 11.2476 14.6652V13.2367Z" fill="#185ABC"/>
<path fill-rule="evenodd" clip-rule="evenodd" d="M15.533 13.2367C15.533 12.8423 15.2132 12.5225 14.8187 12.5225C14.4243 12.5225 14.1045 12.8423 14.1045 13.2367V14.6652C14.1045 15.0597 14.4243 15.3795 14.8187 15.3795C15.2132 15.3795 15.533 15.0597 15.533 14.6652V13.2367Z" fill="#185ABC"/>
</svg>
