<svg width="182" height="218" viewBox="0 0 182 218" fill="none" xmlns="http://www.w3.org/2000/svg">
<path d="M179.304 2.68965C177.498 0.887307 175.358 0 172.913 0H9.08607C6.61311 0 4.50136 0.887307 2.69526 2.68965C0.889156 4.49199 0 6.62707 0 9.06716V118.067C0 126.192 1.58381 134.26 4.75144 142.274C7.91906 150.26 11.8647 157.358 16.5606 163.569C21.2564 169.753 26.8414 175.798 33.3434 181.676C39.8454 187.554 45.8472 192.407 51.3211 196.289C56.8227 200.171 62.5467 203.831 68.5207 207.297C74.4947 210.763 78.746 213.092 81.2467 214.312C83.7475 215.532 85.7759 216.503 87.2763 217.14C88.4156 217.695 89.6382 218 90.9719 218C92.3056 218 93.5282 217.723 94.6675 217.14C96.1957 216.475 98.1963 215.532 100.725 214.312C103.226 213.092 107.477 210.735 113.451 207.297C119.425 203.831 125.149 200.171 130.651 196.289C136.152 192.407 142.154 187.527 148.656 181.676C155.158 175.798 160.743 169.78 165.439 163.569C170.135 157.358 174.053 150.287 177.248 142.274C180.416 134.288 181.999 126.219 181.999 118.067V9.09489C182.027 6.62707 181.11 4.49199 179.304 2.68965ZM158.187 119.093C158.187 158.551 90.9997 192.545 90.9997 192.545V23.3472H158.187C158.187 23.3472 158.187 79.6357 158.187 119.093Z" fill="white"/>
</svg>
