<svg width="40" height="40" viewBox="0 0 40 40" fill="none" xmlns="http://www.w3.org/2000/svg">
<g clip-path="url(#clip0_23311_9595)">
<path d="M40 0H0V40H40V0Z" fill="#DD344C" fill-opacity="0.12"/>
<path fill-rule="evenodd" clip-rule="evenodd" d="M26.7306 26.497H30.7306V25.497H26.7306V26.497ZM21.7306 26.497H25.7306V25.497H21.7306V26.497ZM16.7306 26.497H20.7306V25.497H16.7306V26.497ZM22.7306 22.497C22.7306 21.946 23.1796 21.497 23.7306 21.497C24.2826 21.497 24.7306 21.946 24.7306 22.497C24.7306 23.048 24.2826 23.497 23.7306 23.497C23.1796 23.497 22.7306 23.048 22.7306 22.497ZM25.7306 22.497C25.7306 21.394 24.8336 20.497 23.7306 20.497C22.6286 20.497 21.7306 21.394 21.7306 22.497C21.7306 23.6 22.6286 24.497 23.7306 24.497C24.8336 24.497 25.7306 23.6 25.7306 22.497ZM19.7306 22.497C19.7306 23.048 19.2826 23.497 18.7306 23.497C18.1796 23.497 17.7306 23.048 17.7306 22.497C17.7306 21.946 18.1796 21.497 18.7306 21.497C19.2826 21.497 19.7306 21.946 19.7306 22.497ZM16.7306 22.497C16.7306 23.6 17.6286 24.497 18.7306 24.497C19.8336 24.497 20.7306 23.6 20.7306 22.497C20.7306 21.394 19.8336 20.497 18.7306 20.497C17.6286 20.497 16.7306 21.394 16.7306 22.497ZM33.7306 15.997V28.997C33.7306 29.273 33.5076 29.497 33.2306 29.497H16.7306V28.497H32.7306V16.497H20.7306V15.497H33.2306C33.5076 15.497 33.7306 15.721 33.7306 15.997ZM14.0456 19.021C13.8396 19.088 13.6996 19.28 13.6996 19.497V31.26L12.3956 32.323L11.2306 30.36V28.497C11.2306 28.35 11.1656 28.209 11.0536 28.114L9.85561 27.108L11.0886 25.847C11.1806 25.753 11.2306 25.628 11.2306 25.497V24.497C11.2306 24.364 11.1786 24.236 11.0836 24.143L9.85461 22.92L11.0596 21.874C11.1686 21.779 11.2306 21.642 11.2306 21.497V19.497C11.2306 19.279 11.0896 19.086 10.8826 19.02C8.14061 18.152 6.52461 15.308 7.12461 12.404C7.55261 10.332 9.14561 8.671 11.1846 8.172C12.9146 7.745 14.6946 8.117 16.0636 9.189C17.4306 10.261 18.2136 11.87 18.2136 13.603C18.2136 15.923 16.4216 18.252 14.0456 19.021ZM19.2136 13.603C19.2136 11.561 18.2906 9.665 16.6816 8.403C15.0706 7.14 12.9826 6.704 10.9456 7.2C8.53461 7.791 6.65061 9.754 6.14561 12.202C5.46761 15.484 7.2126 18.705 10.2306 19.852V21.269L8.79361 22.518C8.68861 22.609 8.62661 22.74 8.62161 22.878C8.61661 23.018 8.67061 23.152 8.76961 23.25L10.2306 24.705V25.293L8.76461 26.794C8.66661 26.893 8.61561 27.029 8.62261 27.168C8.62961 27.307 8.69261 27.436 8.79961 27.526L10.2306 28.73V30.497C10.2306 30.587 10.2556 30.675 10.3016 30.752L11.8326 33.333C11.9066 33.458 12.0316 33.544 12.1756 33.57C12.2036 33.575 12.2326 33.578 12.2626 33.578C12.3766 33.578 12.4886 33.539 12.5786 33.465L14.5166 31.884C14.6326 31.789 14.6996 31.647 14.6996 31.497V19.85C16.9966 18.956 19.2136 16.601 19.2136 13.603ZM12.6056 14.904C11.8406 14.904 11.2176 14.281 11.2176 13.516C11.2176 12.749 11.8406 12.126 12.6056 12.126C13.3726 12.126 13.9956 12.749 13.9956 13.516C13.9956 14.281 13.3726 14.904 12.6056 14.904ZM12.6056 11.126C11.2886 11.126 10.2176 12.198 10.2176 13.516C10.2176 14.832 11.2886 15.904 12.6056 15.904C13.9236 15.904 14.9956 14.832 14.9956 13.516C14.9956 12.198 13.9236 11.126 12.6056 11.126Z" fill="#DD344C"/>
</g>
<rect x="0.5" y="0.5" width="39" height="39" stroke="#DD344C"/>
<defs>
<clipPath id="clip0_23311_9595">
<rect width="40" height="40" fill="white"/>
</clipPath>
</defs>
</svg>
