<svg width="141" height="140" viewBox="0 0 141 140" fill="none" xmlns="http://www.w3.org/2000/svg">
<path d="M120.249 115.284C115.904 115.284 113.82 116.937 111.408 118.851C108.789 120.931 105.819 123.287 100.08 123.287C94.3402 123.287 91.3708 120.931 88.7516 118.851C86.3402 116.937 84.2568 115.284 79.9131 115.284C75.5678 115.284 73.4844 116.937 71.073 118.851C68.4531 120.931 65.4844 123.287 59.7448 123.287C54.0052 123.287 51.0364 120.931 48.4172 118.851C46.0052 116.937 43.9219 115.284 39.5782 115.284C35.2345 115.284 33.1516 116.937 30.7396 118.851C28.8746 120.493 26.7074 121.754 24.3594 122.566C35.6092 132.482 49.7574 138.505 64.7027 139.741C65.1208 139.775 65.5407 139.809 65.9615 139.837C67.4667 139.934 68.9807 140.001 70.5104 140.001C72.0407 140.001 73.5547 139.934 75.0599 139.837C75.4807 139.809 75.8995 139.775 76.3194 139.741C94.5911 138.218 111.532 129.574 123.489 115.674C122.43 115.406 121.342 115.275 120.249 115.284Z" fill="#239DE0"/>
<path d="M19.4128 63.071C24.1368 63.071 26.4653 61.2231 28.9305 59.2658C31.531 57.2012 34.2201 55.0663 39.5789 55.0663C44.9377 55.0663 47.6268 57.2013 50.2278 59.2658C52.6929 61.2231 55.021 63.071 59.7456 63.071C64.4701 63.071 66.7981 61.2231 69.2638 59.2658C71.8644 57.2012 74.5538 55.0663 79.9138 55.0663C85.2716 55.0663 87.9617 57.2013 90.5622 59.2658C93.0268 61.2231 95.3549 63.071 100.081 63.071C104.806 63.071 107.134 61.2231 109.599 59.2658C112.199 57.2012 114.89 55.0663 120.25 55.0663C125.609 55.0663 128.299 57.2013 130.901 59.2658C133.318 61.1851 135.619 62.9898 140.165 63.058C139.541 56.7791 138.063 50.6145 135.774 44.7346C133.649 43.9659 131.688 42.8021 129.995 41.3043C127.478 39.307 125.102 37.4199 120.25 37.4199C115.398 37.4199 113.021 39.307 110.505 41.3043C107.951 43.3305 105.313 45.4247 100.081 45.4247C94.8482 45.4247 92.2092 43.3299 89.657 41.3043C87.1414 39.307 84.7648 37.4199 79.9138 37.4199C75.0622 37.4199 72.6846 39.307 70.169 41.3043C67.6164 43.3305 64.9778 45.4247 59.7456 45.4247C54.5138 45.4247 51.8753 43.3299 49.3232 41.3043C46.807 39.307 44.4305 37.4199 39.5789 37.4199C34.7278 37.4199 32.3513 39.307 29.8357 41.3043C27.283 43.3299 24.6445 45.4247 19.4128 45.4247C14.1805 45.4247 11.542 43.3299 8.98983 41.3043C8.42423 40.8549 7.86223 40.4147 7.28103 39.9971C4.95447 44.8825 3.20701 50.023 2.07422 55.3142C5.62622 55.9174 7.80182 57.6043 9.89448 59.2658C12.3595 61.2231 14.6882 63.071 19.4128 63.071Z" fill="#239DE0"/>
<path d="M19.4127 44.3328C24.2637 44.3328 26.6408 42.4459 29.1564 40.4489C31.7085 38.4235 34.3471 36.328 39.5788 36.328C44.8105 36.328 47.4491 38.4235 50.0012 40.4489C52.5179 42.4458 54.8939 44.3328 59.7455 44.3328C64.5971 44.3328 66.9736 42.4459 69.4903 40.4489C72.0424 38.4235 74.6804 36.328 79.9138 36.328C85.1455 36.328 87.7829 38.4235 90.3356 40.4489C92.8523 42.4458 95.2288 44.3328 100.08 44.3328C104.931 44.3328 107.309 42.4459 109.825 40.4489C112.378 38.4235 115.017 36.328 120.25 36.328C125.482 36.328 128.122 38.4235 130.674 40.4489C132.047 41.6367 133.583 42.6211 135.235 43.3718C130.117 30.919 121.515 20.2072 110.461 12.5214C99.4063 4.83558 86.3693 0.502201 72.9135 0.0410654C59.4578 -0.420071 46.1547 3.01062 34.6002 9.9216C23.0456 16.8326 13.7302 26.9303 7.77148 39.0036C8.43135 39.4697 9.05335 39.9609 9.66788 40.4489C12.1845 42.4459 14.5611 44.3328 19.4127 44.3328Z" fill="#239DE0"/>
<path d="M120.25 95.8164C115.778 95.8164 113.647 97.5076 111.183 99.4643C108.61 101.507 105.694 103.822 100.08 103.822C94.4664 103.822 91.5514 101.507 88.9784 99.4643C86.5123 97.5076 84.3831 95.8164 79.9134 95.8164C75.442 95.8164 73.3128 97.5076 70.8467 99.4643C68.2738 101.507 65.3576 103.822 59.7451 103.822C54.1326 103.822 51.2164 101.507 48.6435 99.4643C46.1779 97.5076 44.0492 95.8164 39.5784 95.8164C35.1076 95.8164 32.979 97.5076 30.5134 99.4643C27.9404 101.507 25.0254 103.822 19.4123 103.822C13.7998 103.822 10.8836 101.507 8.31069 99.4643C7.65815 98.9462 7.02682 98.4503 6.37109 97.9967C9.83505 105.895 14.7235 113.089 20.792 119.217C24.2222 118.902 26.1118 117.415 28.2508 115.716C30.8706 113.638 33.8394 111.281 39.5784 111.281C45.318 111.281 48.2867 113.638 50.906 115.716C53.318 117.631 55.4014 119.284 59.7451 119.284C64.0894 119.284 66.1721 117.631 68.5852 115.716C71.2034 113.638 74.1738 111.281 79.9134 111.281C85.653 111.281 88.6211 113.638 91.2399 115.716C93.653 117.631 95.7363 119.284 100.08 119.284C104.424 119.284 106.508 117.631 108.919 115.716C111.539 113.638 114.51 111.281 120.25 111.281C122.282 111.251 124.301 111.616 126.195 112.353C128.695 109.071 130.9 105.574 132.786 101.904C131.567 101.183 130.406 100.367 129.315 99.4643C126.851 97.5076 124.72 95.8164 120.25 95.8164Z" fill="#239DE0"/>
<path d="M140.302 64.8769C135.031 64.8409 132.348 62.7368 129.768 60.69C127.304 58.7332 124.974 56.8848 120.25 56.8848C115.524 56.8848 113.195 58.7332 110.73 60.69C108.13 62.7545 105.439 64.8894 100.08 64.8894C94.7201 64.8894 92.0315 62.7545 89.4301 60.69C86.9649 58.7332 84.6367 56.8848 79.9134 56.8848C75.1878 56.8848 72.8597 58.7332 70.3951 60.69C67.793 62.7545 65.1045 64.8894 59.7451 64.8894C54.3863 64.8894 51.6973 62.7545 49.0962 60.69C46.631 58.7332 44.303 56.8848 39.5785 56.8848C34.8545 56.8848 32.5263 58.7332 30.0607 60.69C27.4607 62.7545 24.7711 64.8894 19.4123 64.8894C14.053 64.8894 11.3639 62.7545 8.76341 60.69C6.77687 59.1133 4.85714 57.6242 1.72327 57.0988C1.09233 60.4659 0.710232 63.875 0.580074 67.2982C0.545144 68.1962 0.510742 69.093 0.510742 69.9993C0.510742 70.9056 0.545144 71.8034 0.580074 72.7014C0.594614 73.0925 0.601942 73.4857 0.623272 73.8753C5.21341 74.2258 7.81861 76.2545 10.1206 78.0821C12.5342 79.9977 14.8143 81.8076 19.4123 81.8076C24.0103 81.8076 26.2899 79.9977 28.7034 78.0821C31.2301 76.0758 34.0925 73.8034 39.5785 73.8034C45.0645 73.8034 47.9274 76.0758 50.4534 78.0821C52.8675 79.9977 55.1477 81.8076 59.7451 81.8076C64.3426 81.8076 66.6233 79.9977 69.0367 78.0821C71.5629 76.0758 74.4258 73.8034 79.9134 73.8034C85.3987 73.8034 88.2623 76.0758 90.7878 78.0821C93.2025 79.9977 95.4821 81.8076 100.08 81.8076C104.678 81.8076 106.959 79.9977 109.372 78.0821C111.899 76.0758 114.763 73.8034 120.25 73.8034C125.736 73.8034 128.599 76.0758 131.126 78.0821C133.37 79.8629 135.523 81.5326 139.503 81.7624C139.864 79.6326 140.127 77.4727 140.291 75.2826C140.356 74.4264 140.41 73.5686 140.442 72.7045V67.2952C140.41 66.43 140.302 64.8769 140.302 64.8769Z" fill="#239DE0"/>
<path d="M120.249 76.3516C115.649 76.3516 113.369 78.1614 110.956 80.0781C108.429 82.0833 105.565 84.3557 100.08 84.3557C94.5938 84.3557 91.7308 82.0833 89.2042 80.0781C86.7908 78.1614 84.5105 76.3516 79.9131 76.3516C75.3151 76.3516 73.034 78.1614 70.6198 80.0781C68.0938 82.0833 65.2307 84.3557 59.7449 84.3557C54.259 84.3557 51.3959 82.0833 48.8698 80.0781C46.4558 78.1614 44.1756 76.3516 39.5782 76.3516C34.9809 76.3516 32.7006 78.1614 30.287 80.0781C27.761 82.0833 24.898 84.3557 19.4121 84.3557C13.9266 84.3557 11.0626 82.0833 8.53649 80.0781C6.41516 78.3942 4.39542 76.7948 0.818359 76.4308C1.34539 82.2144 2.59614 87.909 4.54129 93.3812C6.66803 94.2037 8.63316 95.3947 10.3465 96.8994C12.8121 98.8568 14.9408 100.547 19.4121 100.547C23.8829 100.547 26.0121 98.8568 28.4772 96.8994C31.0501 94.8573 33.9657 92.5426 39.5782 92.5426C45.1908 92.5426 48.1069 94.8573 50.6798 96.8994C53.1449 98.8568 55.2741 100.547 59.7449 100.547C64.2157 100.547 66.3454 98.8568 68.81 96.8994C71.3829 94.8573 74.2996 92.5426 79.9131 92.5426C85.5251 92.5426 88.4418 94.8573 91.0141 96.8994C93.4793 98.8568 95.6085 100.547 100.08 100.547C104.551 100.547 106.68 98.8568 109.145 96.8994C111.719 94.8573 114.636 92.5426 120.249 92.5426C125.861 92.5426 128.779 94.8573 131.352 96.8994C132.257 97.6517 133.213 98.3407 134.213 98.9614C136.364 94.264 137.983 89.3409 139.04 84.2838C134.451 83.9344 131.844 81.9046 129.541 80.0781C127.128 78.1614 124.848 76.3516 120.249 76.3516Z" fill="#239DE0"/>
<path d="M108.919 115.717C106.508 117.631 104.424 119.285 100.08 119.285C95.7363 119.285 93.6529 117.631 91.2399 115.717C88.6211 113.638 85.6529 111.281 79.9133 111.281C74.1737 111.281 71.2033 113.638 68.5852 115.717C66.1721 117.631 64.0893 119.285 59.7451 119.285C55.4013 119.285 53.318 117.631 50.906 115.717C48.2867 113.638 45.318 111.281 39.5784 111.281C33.8393 111.281 30.8705 113.638 28.2508 115.717C26.1117 117.415 24.2221 118.902 20.792 119.218C21.9399 120.377 23.1347 121.489 24.3596 122.566C26.7076 121.754 28.8749 120.492 30.7398 118.851C33.1518 116.937 35.2346 115.283 39.5784 115.283C43.9221 115.283 46.0055 116.937 48.4175 118.851C51.0367 120.931 54.0054 123.287 59.7451 123.287C65.4847 123.287 68.4533 120.931 71.0732 118.851C73.4847 116.937 75.568 115.283 79.9133 115.283C84.2571 115.283 86.3404 116.937 88.7519 118.851C91.3711 120.931 94.3404 123.287 100.08 123.287C105.819 123.287 108.79 120.931 111.408 118.851C113.82 116.937 115.904 115.283 120.25 115.283C121.342 115.275 122.431 115.406 123.49 115.674C124.422 114.594 125.328 113.49 126.195 112.354C124.301 111.616 122.282 111.252 120.25 111.281C114.51 111.281 111.539 113.638 108.919 115.717Z" fill="white"/>
<path d="M120.25 92.543C114.637 92.543 111.719 94.8576 109.146 96.8998C106.681 98.8571 104.551 100.548 100.081 100.548C95.6092 100.548 93.48 98.8571 91.0148 96.8998C88.4425 94.8577 85.5259 92.543 79.9139 92.543C74.3003 92.543 71.3836 94.8576 68.8107 96.8998C66.3461 98.8571 64.2164 100.548 59.7456 100.548C55.2748 100.548 53.1456 98.8571 50.6805 96.8998C48.1076 94.8577 45.1915 92.543 39.5789 92.543C33.9664 92.543 31.0508 94.8576 28.4779 96.8998C26.0128 98.8571 23.8836 100.548 19.4128 100.548C14.9415 100.548 12.8128 98.8571 10.3472 96.8998C8.63386 95.3951 6.66873 94.2041 4.54199 93.3815C5.09772 94.9467 5.70759 96.4853 6.37159 97.9972C7.02732 98.4508 7.65866 98.9467 8.31119 99.4648C10.8841 101.508 13.8003 103.822 19.4128 103.822C25.0259 103.822 27.9409 101.508 30.5139 99.4648C32.9795 97.5082 35.1081 95.817 39.5789 95.817C44.0497 95.817 46.1784 97.5082 48.644 99.4648C51.2169 101.508 54.1331 103.822 59.7456 103.822C65.3581 103.822 68.2743 101.508 70.8472 99.4648C73.3133 97.5082 75.4425 95.817 79.9139 95.817C84.3836 95.817 86.5128 97.5082 88.9789 99.4648C91.5519 101.508 94.4669 103.822 100.081 103.822C105.694 103.822 108.61 101.508 111.183 99.4648C113.647 97.5082 115.778 95.817 120.25 95.817C124.721 95.817 126.851 97.5082 129.315 99.4648C130.407 100.368 131.567 101.183 132.786 101.904C133.285 100.936 133.761 99.9554 134.214 98.9618C133.214 98.3411 132.258 97.6521 131.353 96.8998C128.779 94.8576 125.862 92.543 120.25 92.543Z" fill="white"/>
<path d="M120.249 73.8047C114.763 73.8047 111.899 76.0771 109.372 78.0834C106.959 79.999 104.677 81.8089 100.08 81.8089C95.4818 81.8089 93.2022 79.999 90.7876 78.0834C88.2621 76.0771 85.3985 73.8047 79.9132 73.8047C74.4256 73.8047 71.5626 76.0771 69.0365 78.0834C66.623 79.999 64.3422 81.8089 59.7449 81.8089C55.1476 81.8089 52.8673 79.999 50.4532 78.0834C47.9272 76.0771 45.0641 73.8047 39.5782 73.8047C34.0924 73.8047 31.2293 76.0771 28.7032 78.0834C26.2892 79.999 24.01 81.8089 19.4121 81.8089C14.8146 81.8089 12.534 79.999 10.1204 78.0834C7.81838 76.2558 5.21318 74.2271 0.623047 73.8766C0.669847 74.7328 0.740248 75.5834 0.818378 76.4308C4.39545 76.7948 6.41518 78.3943 8.53651 80.0782C11.0626 82.0834 13.9266 84.3558 19.4121 84.3558C24.898 84.3558 27.761 82.0834 30.287 80.0782C32.7006 78.1615 34.9808 76.3516 39.5782 76.3516C44.1757 76.3516 46.4559 78.1615 48.8699 80.0782C51.396 82.0834 54.2589 84.3558 59.7449 84.3558C65.2309 84.3558 68.0939 82.0834 70.6199 80.0782C73.034 78.1615 75.3152 76.3516 79.9132 76.3516C84.5105 76.3516 86.7908 78.1615 89.2042 80.0782C91.7308 82.0834 94.5938 84.3558 100.08 84.3558C105.565 84.3558 108.429 82.0834 110.956 80.0782C113.369 78.1615 115.649 76.3516 120.249 76.3516C124.848 76.3516 127.128 78.1615 129.541 80.0782C131.844 81.9047 134.451 83.9344 139.04 84.2839C139.215 83.4506 139.36 82.6074 139.503 81.7631C135.523 81.5339 133.369 79.8642 131.125 78.0834C128.599 76.0771 125.736 73.8047 120.249 73.8047Z" fill="white"/>
<path d="M19.4127 64.8904C24.7715 64.8904 27.4611 62.7555 30.0611 60.6909C32.5262 58.7341 34.8548 56.8857 39.5788 56.8857C44.3034 56.8857 46.6314 58.7341 49.0966 60.6909C51.6976 62.7555 54.3867 64.8904 59.7455 64.8904C65.1043 64.8904 67.7934 62.7555 70.3955 60.6909C72.86 58.7341 75.1882 56.8857 79.9138 56.8857C84.6371 56.8857 86.9652 58.7341 89.4304 60.6909C92.0319 62.7555 94.7204 64.8904 100.08 64.8904C105.439 64.8904 108.13 62.7555 110.73 60.6909C113.195 58.7341 115.525 56.8857 120.25 56.8857C124.974 56.8857 127.305 58.7341 129.769 60.6909C132.349 62.7377 135.031 64.8476 140.302 64.8836L140.291 64.7169C140.25 64.1639 140.219 63.6076 140.165 63.0581C135.619 62.9899 133.318 61.1852 130.901 59.2659C128.299 57.2013 125.609 55.0664 120.25 55.0664C114.89 55.0664 112.199 57.2013 109.599 59.2659C107.134 61.2232 104.806 63.0711 100.08 63.0711C95.3548 63.0711 93.0267 61.2232 90.5622 59.2659C87.9616 57.2013 85.2715 55.0664 79.9138 55.0664C74.5538 55.0664 71.8643 57.2013 69.2638 59.2659C66.798 61.2232 64.47 63.0711 59.7455 63.0711C55.021 63.0711 52.6928 61.2232 50.2278 59.2659C47.6267 57.2013 44.9376 55.0664 39.5788 55.0664C34.22 55.0664 31.531 57.2013 28.9304 59.2659C26.4652 61.2232 24.1367 63.0711 19.4127 63.0711C14.6882 63.0711 12.3595 61.2232 9.89444 59.2659C7.80177 57.6044 5.62617 55.9175 2.07417 55.3143C1.94764 55.906 1.83456 56.5029 1.72363 57.0997C4.85749 57.6252 6.77723 59.1143 8.76376 60.6909C11.3643 62.7555 14.0534 64.8904 19.4127 64.8904Z" fill="white"/>
<path d="M19.412 45.4247C24.6438 45.4247 27.2823 43.3299 29.835 41.3043C32.3506 39.3069 34.7271 37.4199 39.5782 37.4199C44.4298 37.4199 46.8063 39.3069 49.3224 41.3043C51.8746 43.3299 54.5131 45.4247 59.7448 45.4247C64.9771 45.4247 67.6156 43.3304 70.1683 41.3043C72.6839 39.3069 75.0615 37.4199 79.9131 37.4199C84.764 37.4199 87.1407 39.3069 89.6563 41.3043C92.2084 43.3299 94.8474 45.4247 100.08 45.4247C105.312 45.4247 107.951 43.3304 110.504 41.3043C113.02 39.3069 115.397 37.4199 120.249 37.4199C125.101 37.4199 127.477 39.3069 129.995 41.3043C131.687 42.802 133.648 43.9659 135.773 44.7345C135.596 44.2788 135.42 43.8225 135.235 43.372C133.582 42.6212 132.046 41.6369 130.673 40.4491C128.121 38.4236 125.481 36.3281 120.249 36.3281C115.016 36.3281 112.377 38.4236 109.824 40.4491C107.308 42.446 104.931 44.3329 100.08 44.3329C95.2281 44.3329 92.8516 42.446 90.3349 40.4491C87.7823 38.4236 85.1448 36.3281 79.9131 36.3281C74.6797 36.3281 72.0417 38.4236 69.4896 40.4491C66.9729 42.446 64.5964 44.3329 59.7448 44.3329C54.8932 44.3329 52.5172 42.446 50.0005 40.4491C47.4484 38.4236 44.8099 36.3281 39.5781 36.3281C34.3464 36.3281 31.7079 38.4236 29.1557 40.4491C26.6401 42.446 24.2631 44.3329 19.412 44.3329C14.5604 44.3329 12.1839 42.446 9.6672 40.4491C9.05266 39.9611 8.43067 39.4699 7.7708 39.0037C7.60626 39.335 7.4396 39.6637 7.28027 39.9971C7.86147 40.4147 8.42347 40.8548 8.98907 41.3043C11.5412 43.3299 14.1798 45.4247 19.412 45.4247Z" fill="white"/>
</svg>