<svg width="40" height="40" viewBox="0 0 40 40" fill="none" xmlns="http://www.w3.org/2000/svg">
<g clip-path="url(#clip0_23298_4146)">
<path d="M40 0H0V40H40V0Z" fill="#E7157B" fill-opacity="0.12"/>
<path fill-rule="evenodd" clip-rule="evenodd" d="M31.921 15.8376C31.7341 15.9102 31.5422 15.945 31.3354 15.945C30.4147 15.945 29.665 15.1953 29.665 14.2747C29.665 13.6901 29.9653 13.1582 30.4714 12.85C30.7319 12.6879 31.0232 12.6054 31.3354 12.6054C32.2561 12.6054 33.0057 13.3541 33.0057 14.2747C33.0057 14.9667 32.5713 15.593 31.921 15.8376ZM31.3354 11.6112C30.9954 11.6112 30.6712 11.6967 30.363 11.821C30.0926 11.475 29.8102 11.1409 29.5099 10.8367C27.1247 8.36208 23.9153 7 20.4722 7C17.0499 7 13.8484 8.35214 11.4582 10.8079L12.1711 11.5008C14.3724 9.23998 17.3204 7.99422 20.4722 7.99422C23.6428 7.99422 26.5978 9.24892 28.7971 11.5307C29.0496 11.7862 29.2743 12.0755 29.501 12.3608C28.98 12.8569 28.6708 13.535 28.6708 14.2747C28.6708 15.7442 29.8669 16.9392 31.3354 16.9392C31.6615 16.9392 31.9797 16.8805 32.274 16.7672C33.307 16.3795 34 15.3783 34 14.2747C34 12.8062 32.8049 11.6112 31.3354 11.6112ZM22.1385 31.4399C22.0829 32.3178 21.3521 33.0058 20.4722 33.0058C19.5932 33.0058 18.8615 32.3178 18.8078 31.4399C18.8068 31.428 18.8048 31.3474 18.8028 31.3355C18.8028 30.4148 19.5525 29.6652 20.4722 29.6652C21.3928 29.6652 22.1425 30.4148 22.1425 31.3355L22.1385 31.4399ZM31.9429 17.9772C32.0194 18.4912 32.0582 19.03 32.0582 19.5789C32.0582 24.6016 28.8577 29.0259 24.0863 30.5888C23.7721 30.6972 23.435 30.7857 23.089 30.8652C22.8663 29.6205 21.7806 28.671 20.4722 28.671C19.0036 28.671 17.8085 29.866 17.8085 31.3355C17.8085 31.4001 17.8105 31.4727 17.8145 31.5015C17.901 32.9024 19.0683 34 20.4722 34C21.7508 34 22.8236 33.0873 23.0711 31.8853C23.5365 31.7889 23.9878 31.6745 24.4025 31.5314C29.5766 29.8362 33.0525 25.0331 33.0525 19.5789C33.0525 18.9823 33.0107 18.3947 32.9282 17.832L31.9429 17.9772ZM9.66361 12.6054C9.95791 12.6054 10.2472 12.6839 10.5038 12.8361C11.0228 13.1373 11.334 13.6752 11.334 14.2747C11.334 15.1953 10.5843 15.945 9.66361 15.945C9.44388 15.945 9.23409 15.9042 9.03822 15.8247C8.40488 15.5652 7.99426 14.9577 7.99426 14.2747C7.99426 13.3541 8.74293 12.6054 9.66361 12.6054ZM8.88809 19.5789C8.88809 19.0201 8.92587 18.4753 9.00144 17.9573C9.05214 17.5934 9.14361 17.2464 9.22813 16.8974C9.37031 16.9213 9.51547 16.9392 9.66361 16.9392C11.1331 16.9392 12.3282 15.7442 12.3282 14.2747C12.3282 13.3312 11.8202 12.4503 11.0068 11.9781C10.6012 11.7375 10.1369 11.6112 9.66361 11.6112C8.1951 11.6112 7 12.8062 7 14.2747C7 15.2162 7.48917 16.0653 8.27364 16.5455C8.16825 16.9601 8.07877 17.3846 8.01712 17.8171C7.93559 18.3798 7.89384 18.9724 7.89384 19.5789C7.89384 25.0331 11.3688 29.8362 16.5419 31.5314L16.8511 30.5868C12.0886 29.0259 8.88809 24.6016 8.88809 19.5789ZM17.1315 25.7639V22.5277L20.0029 20.9012V24.1374L17.1315 25.7639ZM13.2648 20.9002L16.1372 22.5277V25.7639L13.2648 24.1374V20.9002ZM16.6343 18.4295L19.4908 20.0481L16.6343 21.6657L13.7768 20.0481L16.6343 18.4295ZM17.1315 14.3324L20.0029 15.9589V19.1951L17.1315 17.5685V14.3324ZM20.5 11.8607L23.3565 13.4793L20.5 15.0979L17.6435 13.4793L20.5 11.8607ZM23.8675 17.5685L20.9971 19.1951V15.9589L23.8675 14.3324V17.5685ZM27.2222 20.0481L24.3647 21.6657L21.5082 20.0481L24.3647 18.4295L27.2222 20.0481ZM27.7342 24.1374L24.8618 25.7639V22.5277L27.7342 20.9012V24.1374ZM23.8675 25.7639L20.9971 24.1374V20.9012L23.8675 22.5277V25.7639ZM24.1201 27.0494C24.1956 27.0922 24.2802 27.114 24.3647 27.114C24.4492 27.114 24.5337 27.0922 24.6093 27.0494L28.4759 24.8601C28.632 24.7717 28.7285 24.6066 28.7285 24.4277V20.0481C28.7285 19.8692 28.632 19.7041 28.4759 19.6156L24.8618 17.5685V13.4793C24.8618 13.3004 24.7663 13.1353 24.6093 13.0468L20.7446 10.8576C20.5925 10.7711 20.4065 10.7711 20.2554 10.8576L16.3897 13.0468C16.2336 13.1353 16.1372 13.3004 16.1372 13.4793V17.5685L12.5231 19.6156C12.367 19.7041 12.2705 19.8692 12.2705 20.0481V24.4277C12.2705 24.6066 12.367 24.7717 12.5231 24.8601L16.3897 27.0494C16.5409 27.1359 16.7278 27.1359 16.8789 27.0494L20.5 24.9983L24.1201 27.0494Z" fill="#E7157B"/>
</g>
<rect x="0.5" y="0.5" width="39" height="39" stroke="#E7157B"/>
<defs>
<clipPath id="clip0_23298_4146">
<rect width="40" height="40" fill="white"/>
</clipPath>
</defs>
</svg>
