<svg width="40" height="40" viewBox="0 0 40 40" fill="none" xmlns="http://www.w3.org/2000/svg">
<g clip-path="url(#clip0_23311_9723)">
<path d="M40 0H0V40H40V0Z" fill="#7AA116" fill-opacity="0.12"/>
<path fill-rule="evenodd" clip-rule="evenodd" d="M18 10H22V9H18V10ZM14 21H21V22H13.5C13.224 22 13 21.777 13 21.5V15.5C13 15.224 13.224 15 13.5 15H27.5C27.776 15 28 15.224 28 15.5V19H27V16H14V21ZM34 10.077V21H33V10.077C33 8.932 32.119 8 31.036 8H8.964C7.881 8 7 8.932 7 10.077V25.924C7 27.069 7.881 28 8.964 28H19.987V29H8.964C7.33 29 6 27.62 6 25.924V10.077C6 8.381 7.33 7 8.964 7H31.036C32.67 7 34 8.381 34 10.077ZM10.64 25H20V26H10.64C9.735 26 9 25.27 9 24.373V11.628C9 10.73 9.735 10 10.64 10H15.5C15.689 10 15.862 10.107 15.947 10.277L16.809 12H23.191L24.053 10.277C24.138 10.107 24.311 10 24.5 10H29.36C30.265 10 31 10.73 31 11.628V20H30V11.628C30 11.282 29.713 11 29.36 11H24.809L23.947 12.724C23.862 12.894 23.689 13 23.5 13H16.5C16.311 13 16.138 12.894 16.053 12.724L15.191 11H10.64C10.287 11 10 11.282 10 11.628V24.373C10 24.719 10.287 25 10.64 25ZM27.5 28.291C26.521 28.291 25.724 27.494 25.724 26.515C25.724 25.536 26.521 24.739 27.5 24.739C28.479 24.739 29.276 25.536 29.276 26.515C29.276 27.494 28.479 28.291 27.5 28.291ZM27.5 23.739C25.969 23.739 24.724 24.984 24.724 26.515C24.724 28.046 25.969 29.291 27.5 29.291C29.031 29.291 30.276 28.046 30.276 26.515C30.276 24.984 29.031 23.739 27.5 23.739ZM32.69 27.117L32.274 27.093C32.032 27.083 31.812 27.244 31.759 27.482C31.649 27.965 31.46 28.422 31.195 28.843C31.065 29.049 31.103 29.32 31.285 29.482L31.596 29.759L30.744 30.61L30.469 30.301C30.306 30.119 30.036 30.08 29.828 30.212C29.41 30.477 28.952 30.666 28.467 30.776C28.229 30.83 28.064 31.048 28.078 31.292L28.102 31.705H26.898L26.922 31.291C26.936 31.048 26.771 30.83 26.533 30.775C26.051 30.666 25.593 30.476 25.172 30.21C24.967 30.082 24.695 30.119 24.532 30.3L24.256 30.61L23.404 29.76L23.715 29.483C23.897 29.321 23.936 29.05 23.805 28.843C23.539 28.422 23.35 27.964 23.241 27.482C23.188 27.244 22.975 27.083 22.725 27.093L22.31 27.116V25.913L22.727 25.937C22.975 25.957 23.188 25.787 23.242 25.549C23.353 25.065 23.542 24.608 23.808 24.19C23.938 23.983 23.9 23.712 23.718 23.549L23.404 23.27L24.256 22.419L24.534 22.732C24.696 22.913 24.967 22.952 25.174 22.822C25.594 22.557 26.051 22.368 26.533 22.259C26.771 22.206 26.936 21.987 26.922 21.743L26.898 21.325H28.102L28.078 21.744C28.064 21.987 28.229 22.206 28.467 22.26C28.95 22.369 29.407 22.559 29.824 22.823C30.034 22.953 30.303 22.916 30.465 22.733L30.744 22.419L31.596 23.27L31.283 23.548C31.101 23.711 31.063 23.982 31.193 24.188C31.459 24.609 31.648 25.066 31.758 25.548C31.811 25.787 32.032 25.957 32.273 25.937L32.69 25.913V27.117ZM33.162 24.885L32.622 24.916C32.526 24.608 32.403 24.31 32.253 24.024L32.656 23.664C32.759 23.573 32.819 23.443 32.823 23.305C32.827 23.168 32.774 23.035 32.677 22.937L31.077 21.338C30.98 21.241 30.855 21.191 30.709 21.192C30.572 21.196 30.442 21.256 30.351 21.359L29.989 21.764C29.704 21.614 29.407 21.491 29.1 21.395L29.13 20.853C29.138 20.716 29.089 20.581 28.994 20.481C28.899 20.381 28.769 20.325 28.631 20.325H26.369C26.231 20.325 26.101 20.381 26.006 20.481C25.911 20.581 25.862 20.716 25.87 20.853L25.9 21.394C25.593 21.49 25.296 21.613 25.01 21.763L24.649 21.359C24.558 21.256 24.428 21.196 24.291 21.192C24.167 21.195 24.021 21.242 23.923 21.338L22.323 22.937C22.226 23.035 22.173 23.168 22.177 23.305C22.181 23.443 22.241 23.573 22.344 23.664L22.748 24.025C22.598 24.31 22.475 24.607 22.378 24.916L21.838 24.885C21.726 24.881 21.567 24.926 21.466 25.02C21.366 25.115 21.31 25.246 21.31 25.384V27.646C21.31 27.784 21.366 27.915 21.467 28.01C21.567 28.104 21.726 28.155 21.838 28.145L22.376 28.114C22.472 28.422 22.595 28.721 22.746 29.008L22.344 29.366C22.241 29.457 22.181 29.587 22.177 29.725C22.173 29.862 22.226 29.995 22.323 30.092L23.923 31.692C24.021 31.789 24.163 31.835 24.291 31.838C24.428 31.834 24.558 31.774 24.649 31.671L25.008 31.27C25.294 31.42 25.593 31.544 25.9 31.64L25.87 32.177C25.862 32.314 25.911 32.448 26.006 32.548C26.101 32.648 26.231 32.705 26.369 32.705H28.631C28.769 32.705 28.899 32.648 28.994 32.548C29.089 32.448 29.138 32.314 29.13 32.177L29.1 31.641C29.408 31.545 29.707 31.421 29.993 31.27L30.351 31.671C30.442 31.774 30.572 31.834 30.709 31.838C30.858 31.838 30.98 31.79 31.077 31.692L32.677 30.092C32.774 29.995 32.827 29.862 32.823 29.725C32.819 29.587 32.759 29.457 32.656 29.366L32.254 29.007C32.404 28.721 32.527 28.422 32.623 28.114L33.162 28.145C33.292 28.155 33.434 28.104 33.534 28.01C33.634 27.915 33.69 27.784 33.69 27.646V25.384C33.69 25.246 33.634 25.115 33.534 25.02C33.434 24.926 33.292 24.881 33.162 24.885Z" fill="#7AA116"/>
<path d="M40 0H0V40H40V0Z" fill="#7AA116" fill-opacity="0.12"/>
<path fill-rule="evenodd" clip-rule="evenodd" d="M18 10H22V9H18V10ZM14 21H21V22H13.5C13.224 22 13 21.777 13 21.5V15.5C13 15.224 13.224 15 13.5 15H27.5C27.776 15 28 15.224 28 15.5V19H27V16H14V21ZM34 10.077V21H33V10.077C33 8.932 32.119 8 31.036 8H8.964C7.881 8 7 8.932 7 10.077V25.924C7 27.069 7.881 28 8.964 28H19.987V29H8.964C7.33 29 6 27.62 6 25.924V10.077C6 8.381 7.33 7 8.964 7H31.036C32.67 7 34 8.381 34 10.077ZM10.64 25H20V26H10.64C9.735 26 9 25.27 9 24.373V11.628C9 10.73 9.735 10 10.64 10H15.5C15.689 10 15.862 10.107 15.947 10.277L16.809 12H23.191L24.053 10.277C24.138 10.107 24.311 10 24.5 10H29.36C30.265 10 31 10.73 31 11.628V20H30V11.628C30 11.282 29.713 11 29.36 11H24.809L23.947 12.724C23.862 12.894 23.689 13 23.5 13H16.5C16.311 13 16.138 12.894 16.053 12.724L15.191 11H10.64C10.287 11 10 11.282 10 11.628V24.373C10 24.719 10.287 25 10.64 25ZM27.5 28.291C26.521 28.291 25.724 27.494 25.724 26.515C25.724 25.536 26.521 24.739 27.5 24.739C28.479 24.739 29.276 25.536 29.276 26.515C29.276 27.494 28.479 28.291 27.5 28.291ZM27.5 23.739C25.969 23.739 24.724 24.984 24.724 26.515C24.724 28.046 25.969 29.291 27.5 29.291C29.031 29.291 30.276 28.046 30.276 26.515C30.276 24.984 29.031 23.739 27.5 23.739ZM32.69 27.117L32.274 27.093C32.032 27.083 31.812 27.244 31.759 27.482C31.649 27.965 31.46 28.422 31.195 28.843C31.065 29.049 31.103 29.32 31.285 29.482L31.596 29.759L30.744 30.61L30.469 30.301C30.306 30.119 30.036 30.08 29.828 30.212C29.41 30.477 28.952 30.666 28.467 30.776C28.229 30.83 28.064 31.048 28.078 31.292L28.102 31.705H26.898L26.922 31.291C26.936 31.048 26.771 30.83 26.533 30.775C26.051 30.666 25.593 30.476 25.172 30.21C24.967 30.082 24.695 30.119 24.532 30.3L24.256 30.61L23.404 29.76L23.715 29.483C23.897 29.321 23.936 29.05 23.805 28.843C23.539 28.422 23.35 27.964 23.241 27.482C23.188 27.244 22.975 27.083 22.725 27.093L22.31 27.116V25.913L22.727 25.937C22.975 25.957 23.188 25.787 23.242 25.549C23.353 25.065 23.542 24.608 23.808 24.19C23.938 23.983 23.9 23.712 23.718 23.549L23.404 23.27L24.256 22.419L24.534 22.732C24.696 22.913 24.967 22.952 25.174 22.822C25.594 22.557 26.051 22.368 26.533 22.259C26.771 22.206 26.936 21.987 26.922 21.743L26.898 21.325H28.102L28.078 21.744C28.064 21.987 28.229 22.206 28.467 22.26C28.95 22.369 29.407 22.559 29.824 22.823C30.034 22.953 30.303 22.916 30.465 22.733L30.744 22.419L31.596 23.27L31.283 23.548C31.101 23.711 31.063 23.982 31.193 24.188C31.459 24.609 31.648 25.066 31.758 25.548C31.811 25.787 32.032 25.957 32.273 25.937L32.69 25.913V27.117ZM33.162 24.885L32.622 24.916C32.526 24.608 32.403 24.31 32.253 24.024L32.656 23.664C32.759 23.573 32.819 23.443 32.823 23.305C32.827 23.168 32.774 23.035 32.677 22.937L31.077 21.338C30.98 21.241 30.855 21.191 30.709 21.192C30.572 21.196 30.442 21.256 30.351 21.359L29.989 21.764C29.704 21.614 29.407 21.491 29.1 21.395L29.13 20.853C29.138 20.716 29.089 20.581 28.994 20.481C28.899 20.381 28.769 20.325 28.631 20.325H26.369C26.231 20.325 26.101 20.381 26.006 20.481C25.911 20.581 25.862 20.716 25.87 20.853L25.9 21.394C25.593 21.49 25.296 21.613 25.01 21.763L24.649 21.359C24.558 21.256 24.428 21.196 24.291 21.192C24.167 21.195 24.021 21.242 23.923 21.338L22.323 22.937C22.226 23.035 22.173 23.168 22.177 23.305C22.181 23.443 22.241 23.573 22.344 23.664L22.748 24.025C22.598 24.31 22.475 24.607 22.378 24.916L21.838 24.885C21.726 24.881 21.567 24.926 21.466 25.02C21.366 25.115 21.31 25.246 21.31 25.384V27.646C21.31 27.784 21.366 27.915 21.467 28.01C21.567 28.104 21.726 28.155 21.838 28.145L22.376 28.114C22.472 28.422 22.595 28.721 22.746 29.008L22.344 29.366C22.241 29.457 22.181 29.587 22.177 29.725C22.173 29.862 22.226 29.995 22.323 30.092L23.923 31.692C24.021 31.789 24.163 31.835 24.291 31.838C24.428 31.834 24.558 31.774 24.649 31.671L25.008 31.27C25.294 31.42 25.593 31.544 25.9 31.64L25.87 32.177C25.862 32.314 25.911 32.448 26.006 32.548C26.101 32.648 26.231 32.705 26.369 32.705H28.631C28.769 32.705 28.899 32.648 28.994 32.548C29.089 32.448 29.138 32.314 29.13 32.177L29.1 31.641C29.408 31.545 29.707 31.421 29.993 31.27L30.351 31.671C30.442 31.774 30.572 31.834 30.709 31.838C30.858 31.838 30.98 31.79 31.077 31.692L32.677 30.092C32.774 29.995 32.827 29.862 32.823 29.725C32.819 29.587 32.759 29.457 32.656 29.366L32.254 29.007C32.404 28.721 32.527 28.422 32.623 28.114L33.162 28.145C33.292 28.155 33.434 28.104 33.534 28.01C33.634 27.915 33.69 27.784 33.69 27.646V25.384C33.69 25.246 33.634 25.115 33.534 25.02C33.434 24.926 33.292 24.881 33.162 24.885Z" fill="#7AA116"/>
</g>
<rect x="0.5" y="0.5" width="39" height="39" stroke="#7AA116"/>
<defs>
<clipPath id="clip0_23311_9723">
<rect width="40" height="40" fill="white"/>
</clipPath>
</defs>
</svg>
