<svg width="40" height="40" viewBox="0 0 40 40" fill="none" xmlns="http://www.w3.org/2000/svg">
<g clip-path="url(#clip0_23298_3943)">
<path d="M40 0H0V40H40V0Z" fill="#01A88D" fill-opacity="0.12"/>
<path fill-rule="evenodd" clip-rule="evenodd" d="M8.25003 14H10.5001V13H9.00004L9.75004 12H12.5001C12.5891 12 12.6721 11.969 12.7471 11.925L13.4581 13.347L12.2461 15H10V16H12.5001C12.6591 16 12.8101 15.924 12.9031 15.795L14.2961 13.896H15.7241L17.0951 15.793C17.1881 15.923 17.3401 16 17.5001 16H19.4502L18.3081 18H8.76803L7.11201 15.517L8.25003 14ZM14.7071 10H17.2931L19.1462 11.854C19.2422 11.948 19.3902 11.999 19.5072 12L22.1912 11.962L23.5212 13.715L22.0782 15.981L22.9222 16.519L24.1642 14.565L24.8872 15.519L23.2322 18H19.4602L21.5802 14.29L20.7112 13.793L20.0002 15.038V15H17.7561L16.5881 13.384L17.6871 11.736L16.8541 11.181L15.7121 12.896H14.3521L13.5041 11.203L14.7071 10ZM8.08402 18.777C8.17703 18.917 8.33303 19 8.50003 19H23.5002C23.6672 19 23.8232 18.917 23.9162 18.777L25.9162 15.777C26.0342 15.6 26.0272 15.368 25.8982 15.198L22.8362 11.157C22.7402 11.03 22.5772 10.946 22.4312 10.958L19.7042 10.997L17.8541 9.146C17.7601 9.053 17.6331 9 17.5001 9H14.5001C14.3671 9 14.2401 9.053 14.1461 9.146L12.2931 11H9.50004C9.34304 11 9.19404 11.074 9.10004 11.2L6.1 15.2C5.973 15.37 5.967 15.601 6.084 15.777L8.08402 18.777ZM32.3933 21.584C31.9673 21.941 31.3483 22.081 30.5493 22.002C30.3273 21.984 30.1193 22.107 30.0363 22.314C30.0013 22.401 26.4512 31 18.5001 31C14.2931 31 7.29402 29.816 7.00901 22H27.5002C27.6723 22 27.8313 21.912 27.9233 21.767C28.0153 21.622 28.0253 21.44 27.9513 21.285C26.8072 18.878 28.1343 17.455 28.6183 17.041C28.9273 17.128 29.5233 17.355 29.8543 17.855C30.1153 18.249 30.1693 18.761 30.0153 19.379C29.9743 19.542 30.0193 19.716 30.1333 19.84C30.2483 19.964 30.4203 20.023 30.5843 19.993C30.6013 19.992 31.8913 19.783 32.9573 20.68C32.8933 20.915 32.7403 21.294 32.3933 21.584ZM33.8543 20.146C32.9153 19.208 31.7943 19 31.0933 18.975C31.1423 18.343 31.0063 17.782 30.6883 17.303C29.9833 16.238 28.6353 16.015 28.5783 16.006C28.4543 15.988 28.3273 16.015 28.2223 16.084C28.1943 16.103 25.6962 17.823 26.7592 21H6.5C6.224 21 6 21.224 6 21.5C6 30.636 13.8321 32 18.5001 32C26.1872 32 30.0373 24.69 30.8153 23.021C31.7253 23.043 32.4683 22.825 33.0343 22.352C33.9023 21.626 33.9953 20.584 33.9983 20.54C34.0103 20.394 33.9573 20.25 33.8543 20.146Z" fill="#01A88D"/>
</g>
<rect x="0.5" y="0.5" width="39" height="39" stroke="#01A88D"/>
<defs>
<clipPath id="clip0_23298_3943">
<rect width="40" height="40" fill="white"/>
</clipPath>
</defs>
</svg>
