<svg width="374" height="353" viewBox="0 0 374 353" fill="none" xmlns="http://www.w3.org/2000/svg">
<path d="M124.759 0.35712H235.298L120.546 340.643C119.96 342.381 119.106 344.017 118.015 345.492C116.927 346.968 115.615 348.262 114.125 349.331C112.636 350.401 110.992 351.232 109.245 351.793C107.499 352.353 105.678 352.643 103.847 352.643H17.8199C15.0274 352.643 12.2722 351.98 9.78787 350.7C7.30089 349.424 5.15409 347.572 3.52565 345.3C1.89615 343.028 0.830138 340.4 0.415557 337.635C-5.60341e-05 334.87 0.252114 332.044 1.14405 329.395L108.055 12.3477C108.638 10.6101 109.493 8.97521 110.586 7.49915C111.674 6.0231 112.991 4.72922 114.476 3.65955C115.965 2.58988 117.609 1.75844 119.356 1.19791C121.102 0.637383 122.923 0.347778 124.754 0.347778V0.352449L124.759 0.35712Z" fill="url(#paint0_linear_27202_10253)"/>
<path d="M328.531 352.643H229.274C228.168 352.643 227.061 352.54 225.968 352.33C224.88 352.124 223.811 351.816 222.779 351.41C221.747 351.003 220.757 350.499 219.818 349.91C218.88 349.318 218 348.639 217.189 347.883L104.553 242.663C103.362 241.55 102.532 240.105 102.171 238.515C101.811 236.925 101.938 235.263 102.535 233.746C103.132 232.229 104.172 230.927 105.52 230.009C106.869 229.094 108.462 228.603 110.091 228.603H285.377L328.522 352.648L328.531 352.643Z" fill="white"/>
<path d="M235.695 0.357092L158.316 228.627L284.746 228.599L328.115 352.643H229.232C228.209 352.634 227.186 352.54 226.178 352.358C225.169 352.176 224.179 351.91 223.217 351.555C221.288 350.852 219.494 349.823 217.912 348.514L141.878 277.532L120.593 340.321C120.042 341.89 119.286 343.38 118.342 344.749C116.452 347.502 113.866 349.705 110.847 351.134C109.344 351.845 107.754 352.353 106.117 352.643H17.8713C15.0507 352.652 12.2675 351.98 9.75984 350.681C7.25177 349.384 5.09286 347.501 3.4656 345.193C1.83834 342.885 0.790579 340.219 0.41088 337.42C0.0325541 334.62 0.332037 331.77 1.28413 329.11L108.022 12.5859C108.578 10.8156 109.414 9.14801 110.497 7.64393C111.576 6.13985 112.893 4.81327 114.387 3.72025C115.881 2.62722 117.544 1.77709 119.304 1.20722C121.065 0.637355 122.909 0.347749 124.763 0.357092H235.699H235.695Z" fill="white"/>
<g filter="url(#filter0_d_27202_10253)">
<path d="M372.855 329.395C373.748 332.045 373.999 334.869 373.589 337.635C373.174 340.4 372.109 343.026 370.483 345.3C368.854 347.571 366.708 349.422 364.223 350.698C361.737 351.975 358.983 352.642 356.189 352.643H232.99C235.782 352.643 238.538 351.975 241.027 350.7C243.511 349.425 245.659 347.57 247.289 345.3C248.919 343.03 249.983 340.4 250.399 337.635C250.815 334.87 250.562 332.044 249.671 329.395L142.755 12.3384C141.578 8.84574 139.336 5.81034 136.344 3.65955C134.859 2.58988 133.215 1.7631 131.473 1.20258C129.731 0.642051 127.91 0.357117 126.084 0.357117H249.278C251.109 0.357117 252.925 0.642051 254.672 1.20258C256.414 1.7631 258.057 2.59455 259.547 3.65955C261.032 4.72922 262.344 6.0231 263.432 7.49448C264.52 8.96586 265.37 10.6007 265.959 12.3384L372.874 329.395H372.855Z" fill="white"/>
</g>
<defs>
<filter id="filter0_d_27202_10253" x="53.084" y="-69.6429" width="387.695" height="492.286" filterUnits="userSpaceOnUse" color-interpolation-filters="sRGB">
<feFlood flood-opacity="0" result="BackgroundImageFix"/>
<feColorMatrix in="SourceAlpha" type="matrix" values="0 0 0 0 0 0 0 0 0 0 0 0 0 0 0 0 0 0 127 0" result="hardAlpha"/>
<feOffset dx="-3"/>
<feGaussianBlur stdDeviation="35"/>
<feComposite in2="hardAlpha" operator="out"/>
<feColorMatrix type="matrix" values="0 0 0 0 0 0 0 0 0 0 0 0 0 0 0 0 0 0 0.12 0"/>
<feBlend mode="normal" in2="BackgroundImageFix" result="effect1_dropShadow_27202_10253"/>
<feBlend mode="normal" in="SourceGraphic" in2="effect1_dropShadow_27202_10253" result="shape"/>
</filter>
<linearGradient id="paint0_linear_27202_10253" x1="165.101" y1="26.4683" x2="50.1691" y2="365.895" gradientUnits="userSpaceOnUse">
<stop stop-color="white"/>
<stop offset="1" stop-color="#F0F0F0"/>
</linearGradient>
<clipPath id="clip0_27202_10253">
<rect width="374" height="353" fill="white"/>
</clipPath>
</defs>
</svg>