<svg width="40" height="40" viewBox="0 0 40 40" fill="none" xmlns="http://www.w3.org/2000/svg">
<g clip-path="url(#clip0_23295_3103)">
<path d="M40 0H0V40H40V0Z" fill="#DD344C" fill-opacity="0.12"/>
<path fill-rule="evenodd" clip-rule="evenodd" d="M27.882 30.4264C27.882 29.6125 27.268 28.9975 26.453 28.9975C25.639 28.9975 25.025 29.6125 25.025 30.4264C25.025 31.2403 25.639 31.8542 26.453 31.8542C27.268 31.8542 27.882 31.2403 27.882 30.4264ZM20 30.1404C19.173 30.1404 18.5 30.7813 18.5 31.5693C18.5 32.3582 19.173 33.0001 20 33.0001C20.827 33.0001 21.5 32.3582 21.5 31.5693C21.5 30.7813 20.827 30.1404 20 30.1404ZM13.485 28.9975C12.67 28.9975 12.056 29.6125 12.056 30.4264C12.056 31.2403 12.67 31.8542 13.485 31.8542C14.299 31.8542 14.913 31.2403 14.913 30.4264C14.913 29.6125 14.299 28.9975 13.485 28.9975ZM13.959 21.0614H26.041L21.785 17.8907L20.317 19.0996C20.225 19.1756 20.111 19.2136 19.999 19.2136C19.887 19.2136 19.774 19.1756 19.682 19.0996L18.214 17.8917L13.959 21.0614ZM12.95 13.5582V20.5654L17.419 17.2368L12.95 13.5582ZM26.155 12.9993H13.844L19.999 18.0657L26.155 12.9993ZM27.05 20.5654V13.5582L22.58 17.2368L27.05 20.5654ZM28.882 30.4264C28.882 31.7882 27.816 32.8541 26.453 32.8541C25.091 32.8541 24.025 31.7882 24.025 30.4264C24.025 29.2365 24.839 28.2726 25.953 28.0476V26.0609H20.5V29.1905C21.64 29.4155 22.5 30.3964 22.5 31.5693C22.5 32.9091 21.379 34 20 34C18.621 34 17.5 32.9091 17.5 31.5693C17.5 30.3964 18.361 29.4155 19.5 29.1905V26.0609H13.985V28.0476C15.099 28.2726 15.913 29.2365 15.913 30.4264C15.913 31.7882 14.847 32.8541 13.485 32.8541C12.122 32.8541 11.056 31.7882 11.056 30.4264C11.056 29.2365 11.87 28.2726 12.985 28.0476V25.5609C12.985 25.2839 13.208 25.061 13.485 25.061H19.5V22.0613H12.45C12.174 22.0613 11.95 21.8373 11.95 21.5613V12.4993C11.95 12.2233 12.174 11.9994 12.45 11.9994H27.55C27.826 11.9994 28.05 12.2233 28.05 12.4993V21.5613C28.05 21.8373 27.826 22.0613 27.55 22.0613H20.5V25.061H26.453C26.73 25.061 26.953 25.2839 26.953 25.5609V28.0476C28.068 28.2726 28.882 29.2365 28.882 30.4264ZM34 19.9985C34 22.7362 33.034 25.8299 31.417 28.2736L30.583 27.7217C32.074 25.4689 33 22.5102 33 19.9985C33 12.8313 27.169 6.99989 20.001 6.99989C12.832 6.99989 7 12.8313 7 19.9985C7 22.5042 7.926 25.4639 9.417 27.7227L8.583 28.2736C6.966 25.8239 6 22.7302 6 19.9985C6 12.2803 12.28 6 19.999 6C27.719 6 34 12.2803 34 19.9985Z" fill="#DD344C"/>
</g>
<rect x="0.5" y="0.5" width="39" height="39" stroke="#DD344C"/>
<defs>
<clipPath id="clip0_23295_3103">
<rect width="40" height="40" fill="white"/>
</clipPath>
</defs>
</svg>
