<svg width="24" height="24" viewBox="0 0 24 24" fill="none" xmlns="http://www.w3.org/2000/svg">
<path fill-rule="evenodd" clip-rule="evenodd" d="M7.77291 4.40039L7.77301 8.39511L7.77713 8.39497L7.77301 8.39751V13.6385L10.8606 15.4271L7.45287 17.4477L5.14552 16.1078C4.73663 15.8704 4.4856 15.4371 4.4856 14.9689V7.0652C4.4856 6.59702 4.73663 6.16379 5.14552 5.92635L7.77291 4.40039Z" fill="white"/>
<path fill-rule="evenodd" clip-rule="evenodd" d="M16.1262 9.73145L19.4856 11.7406V14.994C19.4856 15.464 19.2358 15.8988 18.8289 16.1372L11.9847 20.1461L11.9643 20.1341L11.9791 20.1461L9.02696 21.8905C8.86876 21.984 8.66437 21.9321 8.57045 21.7747C8.54002 21.7237 8.5239 21.6654 8.52378 21.6061L8.51685 18.1767L12.0497 16.064L12.0392 16.0466L16.1263 13.6585L16.1262 9.73145Z" fill="white"/>
<path fill-rule="evenodd" clip-rule="evenodd" d="M12.6656 2.2457L18.8717 5.85812C19.2812 6.09642 19.5325 6.53119 19.5325 7.00105V10.3399L16.0561 8.27378L16.0523 8.27975L11.9414 5.89281L8.89185 7.66353V3.6505L11.3057 2.2457C11.7253 2.00143 12.2459 2.00143 12.6656 2.2457Z" fill="white"/>
</svg>
