<svg width="40" height="40" viewBox="0 0 40 40" fill="none" xmlns="http://www.w3.org/2000/svg">
<g clip-path="url(#clip0_23296_3506)">
<path d="M40 0H0V40H40V0Z" fill="#C925D1" fill-opacity="0.12"/>
<path fill-rule="evenodd" clip-rule="evenodd" d="M34.086 15.905L32.131 16.364L33.661 18.081C33.547 18.307 33.395 18.492 33.202 18.634C33.01 18.775 32.794 18.863 32.557 18.897L31.366 16.84L30.176 18.897C29.938 18.863 29.723 18.775 29.529 18.634C29.337 18.492 29.184 18.307 29.07 18.081L30.602 16.364L28.647 15.905C28.623 15.792 28.611 15.701 28.611 15.633C28.611 15.248 28.76 14.908 29.055 14.613L30.891 15.514L30.652 13.321C30.879 13.219 31.117 13.168 31.366 13.168C31.627 13.168 31.865 13.219 32.08 13.321L31.842 15.514L33.678 14.613C33.973 14.908 34.12 15.248 34.12 15.633C34.12 15.701 34.108 15.792 34.086 15.905ZM25.402 28.076C26.209 28.076 27.104 27.914 28.086 27.592V28.626C27.176 29.036 26.26 29.242 25.336 29.242C23.635 29.242 22.344 28.754 21.464 27.779C20.584 26.803 20.145 25.37 20.145 23.478C20.145 21.6 20.592 20.167 21.486 19.176C22.381 18.187 23.678 17.692 25.38 17.692C26.289 17.692 27.148 17.868 27.954 18.22V19.254C27.148 18.99 26.311 18.858 25.445 18.858C24.053 18.858 23.045 19.214 22.421 19.925C21.797 20.636 21.486 21.777 21.486 23.346V23.61C21.486 25.135 21.801 26.261 22.432 26.987C23.063 27.713 24.053 28.076 25.402 28.076ZM16 7C21.304 7 25 8.581 25 10C25 11.419 21.304 13 16 13C10.696 13 7 11.419 7 10C7 8.581 10.696 7 16 7ZM15.648 33.102C10.552 33.102 7 31.487 7 30.037V25.882C8.895 27.068 12.444 27.85 16.231 27.85C17.175 27.85 18.123 27.802 19.051 27.707L18.949 26.712C14.107 27.206 8.713 26.216 7 24.638V18.88C8.899 20.067 12.45 20.85 16.231 20.85C17.123 20.85 18.046 20.8 19.051 20.697L18.949 19.702C17.979 19.801 17.089 19.85 16.231 19.85C12.221 19.85 8.406 18.928 7 17.641V11.813C8.729 13.242 12.442 14 16 14C19.558 14 23.272 13.242 25 11.813V14H26V10C26 7.402 20.848 6 16 6C11.152 6 6 7.402 6 10V30.037C6 32.355 10.148 34.102 15.648 34.102C19.301 34.102 22.579 33.287 24.204 31.975L23.575 31.197C22.143 32.354 19.03 33.102 15.648 33.102Z" fill="#C925D1"/>
</g>
<rect x="0.5" y="0.5" width="39" height="39" stroke="#C925D1"/>
<defs>
<clipPath id="clip0_23296_3506">
<rect width="40" height="40" fill="white"/>
</clipPath>
</defs>
</svg>
