<svg width="90" height="90" viewBox="0 0 90 90" fill="none" xmlns="http://www.w3.org/2000/svg">
<path fill-rule="evenodd" clip-rule="evenodd" d="M22.6208 15.6262H21.0225V8.5C21.0225 7.39543 21.9179 6.5 23.0225 6.5H31.4196V8.09836V9.69672H24.2192V15.6262H22.6208ZM35.6181 8.09836V6.5H52.4124V8.09836V9.69672H35.6181V8.09836ZM56.6109 8.09836V6.5H73.4052V8.09836V9.69672H56.6109V8.09836ZM77.6037 8.09836V6.5H86.0008C87.1054 6.5 88.0008 7.39543 88.0008 8.5V15.6262H86.4025H84.8041V9.69672H77.6037V8.09836ZM86.4025 19.1894H88.0008V33.4418H86.4025H84.8041V19.1894H86.4025ZM86.4025 37.005H88.0008V51.2574H86.4025H84.8041V37.005H86.4025ZM86.4025 54.8206H88.0008V61.9468C88.0008 63.0514 87.1054 63.9468 86.0008 63.9468H78.118V60.7501H84.8041V54.8206H86.4025Z" fill="#326CE5"/>
<mask id="path-2-inside-1_26185_15029" fill="white">
<rect x="11.1396" y="17.1169" width="66.9784" height="57.4468" rx="2"/>
</mask>
<rect x="11.1396" y="17.1169" width="66.9784" height="57.4468" rx="2" stroke="#326CE5" stroke-width="6.39344" stroke-dasharray="16 4" mask="url(#path-2-inside-1_26185_15029)"/>
<rect x="1.99902" y="26.0532" width="66.9784" height="57.4468" rx="2" fill="#326CE5"/>
<path fill-rule="evenodd" clip-rule="evenodd" d="M17.9448 48.1439H21.849L37.2703 67.1637L38.3066 68.4418H39.952H45.502V73.6065L55.4531 64.9895L45.502 56.5639V61.5369H41.5974L26.1762 42.5171L25.1399 41.239H23.4945H17.9448V48.1439Z" fill="white"/>
<path fill-rule="evenodd" clip-rule="evenodd" d="M21.852 61.7281H17.9478V68.633H23.4974H25.1428L26.1791 67.3549L30.2106 62.3826L25.8119 56.844L21.852 61.7281ZM33.3812 47.5086L37.7799 53.0471L41.6004 48.3351H45.5049V53.3081L55.456 44.8825L45.5049 36.2655V41.4302H39.9549H38.3095L37.2732 42.7083L33.3812 47.5086Z" fill="white"/>
</svg>
