<svg width="40" height="40" viewBox="0 0 40 40" fill="none" xmlns="http://www.w3.org/2000/svg">
<g clip-path="url(#clip0_23310_9392)">
<path d="M40 0H0V40H40V0Z" fill="#8C4FFF" fill-opacity="0.12"/>
<path fill-rule="evenodd" clip-rule="evenodd" d="M30.971 21.0296L28.027 19.7666V30.2556C30.573 29.9036 30.959 27.2876 30.975 27.1686L30.971 21.0296ZM27.027 30.2696V19.7596L23.992 21.0326V27.2336C24.004 27.2876 24.437 30.0006 27.027 30.2696ZM27.333 18.5476C27.458 18.4946 27.599 18.4956 27.724 18.5486L31.668 20.2406C31.852 20.3196 31.971 20.4996 31.971 20.6996V27.2336C31.788 28.6806 30.614 31.2966 27.444 31.2966C24.369 31.2966 23.19 28.6846 22.996 27.3026L22.992 20.6996C22.992 20.4986 23.113 20.3166 23.298 20.2386L27.333 18.5476ZM32.983 19.1846L27.522 16.7786L21.992 19.1056V26.2336C21.991 26.2756 21.938 29.1016 23.649 30.8566C24.566 31.7976 25.843 32.2756 27.444 32.2756C29.046 32.2756 30.331 31.7966 31.263 30.8536C32.998 29.0956 32.983 26.2686 32.983 26.2406V19.1846ZM31.98 31.5506C30.853 32.6946 29.326 33.2756 27.444 33.2756C25.56 33.2756 24.04 32.6946 22.927 31.5486C20.922 29.4856 20.988 26.3516 20.992 26.2196V18.7736C20.992 18.5726 21.112 18.3906 21.297 18.3126L27.332 15.7726C27.459 15.7196 27.603 15.7206 27.728 15.7766L33.684 18.4016C33.866 18.4816 33.983 18.6606 33.983 18.8586V26.2336C33.985 26.3586 34.01 29.4886 31.98 31.5506ZM10.992 24.2366H18.992V25.2366H10.992C8.181 25.2366 6.181 23.2206 6.013 20.2206C6.001 20.1096 6 19.9756 6 19.8416C6 17.3326 7.318 15.6186 9.817 14.8626C9.798 14.6356 9.785 14.3966 9.785 14.2156C9.785 11.2996 11.362 8.77063 13.802 7.77063C17.1 6.42263 20.844 6.87563 22.908 8.87463C23.653 9.59863 24.232 10.4166 24.668 11.3596C25.277 10.9086 26.068 10.6966 27.017 10.7456C28.797 10.8356 30.166 12.4586 30.45 14.7526C31.948 14.8766 32.935 15.6356 33.46 17.0606L32.523 17.4066C32.095 16.2496 31.315 15.7336 29.992 15.7336C29.727 15.7336 29.508 15.5276 29.492 15.2636C29.354 12.9256 28.086 11.8006 26.966 11.7446C26.018 11.6946 25.321 11.9636 24.887 12.5356C24.777 12.6806 24.601 12.7516 24.414 12.7286C24.234 12.7006 24.082 12.5776 24.019 12.4056C23.615 11.3026 23.024 10.3826 22.212 9.59163C20.424 7.86163 17.122 7.49263 14.181 8.69663C12.118 9.54163 10.785 11.7076 10.785 14.2156C10.785 14.4886 10.82 14.9116 10.851 15.1746C10.881 15.4256 10.72 15.6586 10.475 15.7186C8.169 16.2906 7 17.6776 7 19.8416C7 19.9426 6.999 20.0426 7.009 20.1436C7.15 22.6386 8.712 24.2366 10.992 24.2366Z" fill="#8C4FFF"/>
</g>
<rect x="0.5" y="0.5" width="39" height="39" stroke="#8C4FFF"/>
<defs>
<clipPath id="clip0_23310_9392">
<rect width="40" height="40" fill="white"/>
</clipPath>
</defs>
</svg>
