<svg xmlns="http://www.w3.org/2000/svg" width="24" height="24" xmlns:v="https://vecta.io/nano"><path fill="#4285f4" d="M16.64 15.13l.74-1.25h3.53L22 12l-2.18-3.75h-3.07l-1.06-1.86H14.5V5.13h1.94L17.5 7h1.59L16.9 3.25h-4.27v5h1.73l.73 1.25h-2.46V12h2.26l1.05-1.87h2.81l.72 1.25h-2.8l-1.05 1.87h-2.99v4.38h3.4l-.72 1.25h-2.68v1.87h4.27l3.28-5.62h-2.09l-.73 1.25H14.5v-1.25h2.14z"/><path fill="#669df6" d="M7.36 15.13l-.74-1.25H3.09L2 12l2.18-3.75h3.07l1.06-1.86H9.5V5.13H7.56L6.5 7H4.91L7.1 3.25h4.28v5H9.64L8.91 9.5h2.47V12H9.11l-1.05-1.87H5.25l-.72 1.25h2.8l1.05 1.87h3v4.38H7.97l.72 1.25h2.69v1.87H7.1l-3.28-5.62h2.09l.73 1.25H9.5v-1.25H7.36z"/></svg>