<svg xmlns="http://www.w3.org/2000/svg" width="40" height="40" viewBox="0 0 40 40" fill="none">
  <path d="M14.8459 19.2759C14.8459 19.5748 14.8782 19.8172 14.9347 19.995C14.9994 20.1727 15.0802 20.3666 15.1933 20.5767C15.2337 20.6413 15.2498 20.706 15.2498 20.7625C15.2498 20.8433 15.2013 20.9241 15.0963 21.0049L14.5873 21.3442C14.5146 21.3927 14.4419 21.417 14.3772 21.417C14.2964 21.417 14.2157 21.3766 14.1349 21.3038C14.0217 21.1827 13.9248 21.0534 13.844 20.9241C13.7632 20.7868 13.6824 20.6332 13.5935 20.4474C12.9633 21.1907 12.1715 21.5624 11.2182 21.5624C10.5395 21.5624 9.99817 21.3685 9.60228 20.9807C9.20638 20.5928 9.00439 20.0758 9.00439 19.4294C9.00439 18.7427 9.24678 18.1852 9.73963 17.765C10.2325 17.3449 10.8869 17.1348 11.7191 17.1348C11.9938 17.1348 12.2766 17.1591 12.5755 17.1995C12.8745 17.2399 13.1815 17.3045 13.5047 17.3772V16.7874C13.5047 16.1734 13.3754 15.7452 13.1249 15.4947C12.8664 15.2442 12.4301 15.123 11.808 15.123C11.5252 15.123 11.2343 15.1554 10.9354 15.2281C10.6364 15.3008 10.3456 15.3897 10.0628 15.5028C9.93353 15.5593 9.83658 15.5917 9.78002 15.6078C9.72347 15.624 9.68307 15.6321 9.65075 15.6321C9.53764 15.6321 9.48108 15.5513 9.48108 15.3816V14.9857C9.48108 14.8564 9.49724 14.7595 9.53764 14.7029C9.57804 14.6464 9.65075 14.5898 9.76386 14.5332C10.0466 14.3878 10.386 14.2666 10.7819 14.1697C11.1778 14.0646 11.5979 14.0162 12.0423 14.0162C13.0037 14.0162 13.7066 14.2343 14.1591 14.6706C14.6035 15.1069 14.8297 15.7694 14.8297 16.6581V19.2759H14.8459ZM11.5656 20.504C11.8322 20.504 12.1069 20.4555 12.3978 20.3585C12.6886 20.2616 12.9472 20.0838 13.1653 19.8415C13.2946 19.6879 13.3915 19.5183 13.44 19.3244C13.4885 19.1305 13.5208 18.8962 13.5208 18.6215V18.2821C13.2865 18.2256 13.036 18.1771 12.7775 18.1448C12.519 18.1125 12.2685 18.0963 12.018 18.0963C11.4767 18.0963 11.0808 18.2013 10.8142 18.4195C10.5476 18.6376 10.4183 18.9446 10.4183 19.3486C10.4183 19.7283 10.5153 20.0111 10.7172 20.205C10.9111 20.407 11.1939 20.504 11.5656 20.504ZM18.0534 21.3766C17.908 21.3766 17.811 21.3523 17.7464 21.2958C17.6817 21.2473 17.6252 21.1342 17.5767 20.9807L15.678 14.7352C15.6296 14.5736 15.6053 14.4686 15.6053 14.4121C15.6053 14.2828 15.67 14.2101 15.7992 14.2101H16.591C16.7445 14.2101 16.8496 14.2343 16.9061 14.2909C16.9708 14.3393 17.0192 14.4525 17.0677 14.606L18.4251 19.9546L19.6855 14.606C19.7259 14.4444 19.7743 14.3393 19.839 14.2909C19.9036 14.2424 20.0167 14.2101 20.1621 14.2101H20.8085C20.962 14.2101 21.067 14.2343 21.1317 14.2909C21.1963 14.3393 21.2529 14.4525 21.2852 14.606L22.5617 20.0192L23.9595 14.606C24.008 14.4444 24.0645 14.3393 24.1211 14.2909C24.1857 14.2424 24.2908 14.2101 24.4362 14.2101H25.1876C25.3168 14.2101 25.3896 14.2747 25.3896 14.4121C25.3896 14.4525 25.3815 14.4928 25.3734 14.5413C25.3653 14.5898 25.3492 14.6544 25.3168 14.7433L23.3697 20.9887C23.3212 21.1503 23.2647 21.2554 23.2 21.3038C23.1354 21.3523 23.0304 21.3846 22.893 21.3846H22.1982C22.0447 21.3846 21.9396 21.3604 21.875 21.3038C21.8104 21.2473 21.7538 21.1423 21.7215 20.9807L20.4692 15.7694L19.2249 20.9726C19.1845 21.1342 19.1361 21.2392 19.0714 21.2958C19.0068 21.3523 18.8937 21.3766 18.7482 21.3766H18.0534ZM28.4355 21.5947C28.0154 21.5947 27.5953 21.5462 27.1913 21.4493C26.7873 21.3523 26.4722 21.2473 26.2621 21.1261C26.1329 21.0534 26.044 20.9726 26.0117 20.8999C25.9794 20.8272 25.9632 20.7464 25.9632 20.6736V20.2616C25.9632 20.0919 26.0278 20.0111 26.149 20.0111C26.1975 20.0111 26.246 20.0192 26.2945 20.0354C26.3429 20.0515 26.4157 20.0838 26.4964 20.1162C26.7711 20.2374 27.0701 20.3343 27.3852 20.3989C27.7084 20.4636 28.0235 20.4959 28.3466 20.4959C28.8557 20.4959 29.2515 20.407 29.5262 20.2293C29.801 20.0515 29.9464 19.793 29.9464 19.4617C29.9464 19.2355 29.8737 19.0497 29.7282 18.8962C29.5828 18.7426 29.3081 18.6053 28.9122 18.476L27.7407 18.1125C27.1509 17.9266 26.7146 17.6519 26.448 17.2883C26.1813 16.9328 26.044 16.537 26.044 16.1168C26.044 15.7775 26.1167 15.4785 26.2621 15.22C26.4076 14.9615 26.6015 14.7352 26.8439 14.5575C27.0862 14.3717 27.361 14.2343 27.6841 14.1374C28.0073 14.0404 28.3466 14 28.7021 14C28.8799 14 29.0657 14.0081 29.2435 14.0323C29.4293 14.0566 29.599 14.0889 29.7686 14.1212C29.9302 14.1616 30.0837 14.202 30.2292 14.2505C30.3746 14.2989 30.4877 14.3474 30.5685 14.3959C30.6816 14.4605 30.7624 14.5252 30.8109 14.5979C30.8594 14.6625 30.8836 14.7514 30.8836 14.8645V15.2442C30.8836 15.4139 30.819 15.5028 30.6978 15.5028C30.6331 15.5028 30.5281 15.4705 30.3908 15.4058C29.9302 15.1958 29.4131 15.0907 28.8395 15.0907C28.379 15.0907 28.0154 15.1634 27.7649 15.317C27.5145 15.4705 27.3852 15.7048 27.3852 16.036C27.3852 16.2623 27.466 16.4562 27.6276 16.6097C27.7892 16.7632 28.0881 16.9167 28.5163 17.054L29.6636 17.4176C30.2453 17.6034 30.6655 17.862 30.9159 18.1932C31.1664 18.5245 31.2876 18.9042 31.2876 19.3244C31.2876 19.6718 31.2149 19.9869 31.0775 20.2616C30.9321 20.5363 30.7382 20.7787 30.4877 20.9726C30.2372 21.1746 29.9383 21.32 29.5909 21.425C29.2273 21.5381 28.8476 21.5947 28.4355 21.5947Z" fill="white"/>
  <path d="M29.9626 25.5214C27.3044 27.4847 23.4425 28.5269 20.1218 28.5269C15.468 28.5269 11.2748 26.806 8.10762 23.9459C7.85716 23.7197 8.08338 23.4126 8.38232 23.5904C11.808 25.5779 16.0336 26.7818 20.4046 26.7818C23.3536 26.7818 26.5934 26.1677 29.5748 24.9073C30.0191 24.7054 30.3989 25.1982 29.9626 25.5214ZM31.0695 24.261C30.7301 23.8247 28.8234 24.0509 27.9589 24.156C27.7003 24.1883 27.6599 23.962 27.8942 23.7924C29.4132 22.7259 31.9097 23.0329 32.2006 23.3884C32.4915 23.752 32.1198 26.2485 30.6978 27.4443C30.4797 27.6301 30.2696 27.5332 30.3666 27.2908C30.6897 26.4909 31.4088 24.6892 31.0695 24.261Z" fill="white"/>
</svg>