<svg width="40" height="40" viewBox="0 0 40 40" fill="none" xmlns="http://www.w3.org/2000/svg">
<g clip-path="url(#clip0_23311_9702)">
<path d="M40 0H0V40H40V0Z" fill="#7AA116" fill-opacity="0.12"/>
<path fill-rule="evenodd" clip-rule="evenodd" d="M32.7144 29.3843L33.7356 30.3956L33.025 31.0994L31.8087 29.8949H29.8205L30.7975 31.5732L32.4822 32.042L32.2088 33.0006L30.8427 32.6194L30.4698 34L29.4978 33.7422L29.9421 32.0998L28.949 30.3926L27.9699 32.0689L28.4012 33.7492L27.4271 33.994L27.0784 32.6323L25.6842 33.0026L25.4228 32.041L27.0814 31.6011L28.0785 29.8949H26.1214L24.87 31.1033L24.1674 30.3906L25.1836 29.4092L24.1633 28.3988L24.874 27.695L26.0893 28.8995H28.0785L27.0975 27.2202L25.4168 26.7514L25.6902 25.7938L27.0552 26.1741L27.4282 24.7934L28.4002 25.0512L27.9549 26.6996L28.949 28.4018L29.928 26.7205L29.4968 25.0453L30.4708 24.7994L30.8206 26.1621L32.2158 25.7918L32.4751 26.7534L30.8126 27.1944L29.8205 28.8995H31.7765L33.029 27.6911L33.7306 28.4038L32.7144 29.3843ZM30.886 21.3801L31.0749 19.9975C32.9506 21.0964 32.9948 21.5673 32.9948 21.5673C32.9908 21.5703 32.6621 21.8251 30.886 21.3801ZM19.6923 6.99541C26.3275 6.99541 31.3302 9.02506 31.3845 10.3559L31.3694 10.4893C31.3684 10.4923 31.3654 10.4953 31.3644 10.4993C31.0156 11.8401 26.1365 13.3342 19.6953 13.3342C13.2642 13.3342 8.38915 11.8441 8.02227 10.5042L8.00116 10.3768C8.00116 9.04696 13.021 6.99541 19.6923 6.99541ZM19.4893 17.4313C19.4893 17.3198 19.5808 17.2293 19.6933 17.2293C19.8059 17.2293 19.8974 17.3198 19.8974 17.4313C19.8974 17.6543 19.4893 17.6543 19.4893 17.4313ZM31.2217 18.9294L32.3475 10.7023C32.3495 10.6984 32.3525 10.6944 32.3535 10.6894L32.3857 10.4405C32.3887 10.4196 32.3897 10.3987 32.3897 10.3768C32.3897 7.79772 25.6982 6 19.6923 6C13.6864 6 6.99598 7.79772 7 10.4425L7.03619 10.6824C7.03619 10.6854 7.03518 10.6874 7.03518 10.6904L9.76122 30.736C9.76122 33.0205 15.8546 33.8716 19.6953 33.8716C21.0011 33.8716 22.3108 33.789 23.5924 33.6267L23.4648 32.6393C22.2254 32.7965 20.9578 32.8762 19.6953 32.8762C14.1558 32.8762 10.7664 31.4906 10.7614 30.6703L8.24642 12.1457C8.28059 12.1686 8.32181 12.1885 8.359 12.2114C8.44142 12.2612 8.52686 12.3119 8.61532 12.3607C8.70277 12.4085 8.79625 12.4553 8.88973 12.501C8.98824 12.5498 9.08473 12.5996 9.19028 12.6474C9.26969 12.6822 9.35613 12.7151 9.43856 12.7499C9.66975 12.8455 9.914 12.938 10.1713 13.0256C10.2548 13.0545 10.3372 13.0834 10.4246 13.1112C10.5764 13.16 10.7332 13.2068 10.892 13.2526C10.9735 13.2765 11.0569 13.2994 11.1403 13.3223C11.3132 13.3691 11.4871 13.4158 11.667 13.4596C11.7032 13.4686 11.7424 13.4775 11.7796 13.4855C12.4269 13.6408 13.1175 13.7742 13.8362 13.8877C13.8885 13.8956 13.9397 13.9046 13.993 13.9125C14.2252 13.9474 14.4594 13.9802 14.6966 14.0121C14.7258 14.0161 14.7559 14.0191 14.7851 14.023C15.5621 14.1216 16.3592 14.1972 17.1623 14.248C17.1764 14.249 17.1905 14.25 17.2045 14.251C17.4639 14.2679 17.7232 14.2808 17.9835 14.2918L18.0891 14.2968C18.6258 14.3187 19.1626 14.3326 19.6923 14.3326C20.212 14.3326 20.7377 14.3187 21.2624 14.2978C21.3207 14.2958 21.378 14.2938 21.4343 14.2908C21.6745 14.2808 21.9118 14.2679 22.151 14.253C22.2073 14.25 22.2636 14.246 22.3189 14.242C22.9984 14.1962 23.6728 14.1345 24.3332 14.0549C24.4991 14.035 24.6639 14.0151 24.8268 13.9932C24.9534 13.9763 25.0791 13.9573 25.2037 13.9394C25.4369 13.9056 25.6661 13.8697 25.8933 13.8309C25.9536 13.821 26.0149 13.811 26.0752 13.8011C28.172 13.4338 29.9964 12.8803 31.1362 12.1497L29.9089 21.1094C26.8371 20.1737 22.6154 18.2555 20.8985 17.4522C20.8985 17.4453 20.9026 17.4393 20.9026 17.4313C20.9026 16.7714 20.3598 16.2339 19.6933 16.2339C19.0269 16.2339 18.4841 16.7714 18.4841 17.4313C18.4841 18.0923 19.0269 18.6288 19.6933 18.6288C19.9838 18.6288 20.2412 18.5133 20.4502 18.3431C22.4696 19.2888 26.6723 21.187 29.7722 22.1078L29.6757 22.8135L30.6708 22.9479L30.7492 22.3746C31.4659 22.5498 32.055 22.6413 32.5204 22.6413C33.1154 22.6413 33.5185 22.498 33.7628 22.2093C33.9628 21.9724 34.0382 21.6867 33.9819 21.3821C33.8482 20.6764 32.9868 19.9139 31.2217 18.9294Z" fill="#7AA116"/>
</g>
<rect x="0.5" y="0.5" width="39" height="39" stroke="#7AA116"/>
<defs>
<clipPath id="clip0_23311_9702">
<rect width="40" height="40" fill="white"/>
</clipPath>
</defs>
</svg>
