<svg width="20" height="20" viewBox="0 0 32 31" fill="none" xmlns="http://www.w3.org/2000/svg">
<g clip-path="url(#clip0_38_111)">
<g opacity="0.6">
<path d="M5.71755 9.94855C6.53557 8.44549 7.68232 7.14647 9.07232 6.14834C10.4623 5.15021 12.0597 4.47871 13.7453 4.18392L13.0621 0.255432C10.7821 0.655685 8.62058 1.56147 6.73635 2.90629C4.85212 4.25112 3.29297 6.00084 2.17337 8.02701L5.71755 9.94855Z" fill="white"/>
</g>
<path d="M5.88835 21.3497C4.82091 19.5699 4.25985 17.5324 4.26572 15.457C4.26324 14.1001 4.50927 12.7541 4.99163 11.4858L1.23395 10.1194C0.614939 11.831 0.297099 13.6369 0.294525 15.457C0.295372 18.2518 1.04754 20.995 2.47228 23.3994L5.88835 21.3497Z" fill="white"/>
<g opacity="0.6">
<path d="M15.8377 26.9009H15.7096C12.1654 26.9009 9.00552 25.2782 6.87048 22.7162L3.79601 25.2782C5.24436 27.0369 7.06322 28.454 9.12266 29.4284C11.1821 30.4027 13.4313 30.9103 15.7096 30.9147H15.8804L15.8377 26.9009Z" fill="white"/>
</g>
<path d="M25.6589 21.0935C24.8131 22.5791 23.6454 23.8564 22.2415 24.8318C20.8376 25.8071 19.233 26.4558 17.5457 26.73L18.1862 30.7012C20.4651 30.329 22.6309 29.4487 24.5232 28.1255C26.4155 26.8024 27.9858 25.0703 29.1177 23.0578L25.6589 21.0935Z" fill="white"/>
<g opacity="0.8">
<path d="M25.5735 9.69236C26.5887 11.4433 27.1192 13.433 27.1107 15.457C27.12 16.8601 26.859 18.2519 26.3421 19.5563L30.0998 21.0081C30.7675 19.2479 31.1145 17.3823 31.1246 15.4997C31.1265 12.7698 30.4045 10.0881 29.0323 7.72812L25.5735 9.69236Z" fill="white"/>
</g>
<path d="M22.6186 7.57013L21.756 6.70757L23.7886 4.675L21.756 2.64244L22.6186 1.77988L25.5137 4.675L22.6186 7.57013Z" fill="white"/>
<path d="M16.8283 7.57013L15.9658 6.70757L17.9983 4.675L15.9658 2.64244L16.8283 1.77988L19.7235 4.675L16.8283 7.57013Z" fill="white"/>
</g>
<defs>
<clipPath id="clip0_38_111">
<rect width="32" height="30.9677" fill="white"/>
</clipPath>
</defs>
</svg>
