<?xml version="1.0" encoding="UTF-8"?><!DOCTYPE svg>
<svg width="32" height="32" viewBox="0 0 122 122" fill="none" xmlns="http://www.w3.org/2000/svg">
  <path fill-rule="evenodd" clip-rule="evenodd"
    d="M34.6666 116.007C4.28693 101.462 -8.55109 65.0398 5.99244 34.6565C12.9766 20.0659 25.47 8.84765 40.7244 3.46957C55.9788 -1.9085 72.7445 -1.00577 87.3334 5.97907C117.713 20.5243 130.551 56.9461 116.008 87.3294C101.464 117.713 65.0465 130.552 34.6666 116.007Z"
    fill="#00B39F">
  </path>
  <g clip-path="url(#clip0)">
    <path d="M62.1348 41.3823V60.0129L77.8754 50.6658L62.1348 41.3823Z" fill="white">
    </path>
    <path d="M62.1348 63.9062V82.6293L78.0218 73.3111L62.1348 63.9062Z" fill="white">
    </path>
    <path d="M59.8707 59.8856V41.5381L44.3271 50.683L59.8707 59.8856Z" fill="#E2E2E2">
    </path>
    <path d="M28.688 82.56C31.7373 87.5919 35.86 91.8485 40.7455 95.0092V75.4023L28.688 82.56Z" fill="#E2E2E2">
    </path>
    <path d="M59.871 82.5368V64.0449L44.2881 73.2995L59.871 82.5368Z" fill="#E2E2E2">
    </path>
    <path d="M43.0151 93.8422L58.7952 84.5876L43.0151 75.229V93.8422Z" fill="white">
    </path>
    <path d="M79.0974 93.9408V75.3564L63.3398 84.5995L79.0974 93.9408Z" fill="#E2E2E2">
    </path>
    <path d="M94.5228 80.4054C97.2165 75.248 98.7394 69.5329 98.9775 63.687L82.5723 73.3229L94.5228 80.4054Z"
      fill="#E2E2E2">
    </path>
    <path d="M81.3672 71.347L97.2036 62.0577L81.3672 52.7222V71.347Z" fill="white">
    </path>
    <path d="M79.0974 48.7075V30.2329L63.4131 39.4587L79.0974 48.7075Z" fill="#E2E2E2">
    </path>
    <path d="M79.0975 71.2661V52.624L63.3794 61.9595L79.0975 71.2661Z" fill="#E2E2E2">
    </path>
    <path d="M43.0151 52.5894V71.3701L58.8515 61.9653L43.0151 52.5894Z" fill="white">
    </path>
    <path d="M59.8706 23C54.0411 23.1683 48.3283 24.7164 43.1782 27.5233L59.8706 37.3441V23Z" fill="#E2E2E2">
    </path>
    <path d="M43.0151 30.1055V48.7765L58.8628 39.4525L43.0151 30.1055Z" fill="white">
    </path>
    <path d="M40.7455 28.9736C35.8612 32.1359 31.7389 36.3922 28.688 41.4229L40.7455 48.5632V28.9736Z" fill="#E2E2E2">
    </path>
    <path d="M78.9961 27.6215C73.8032 24.7551 68.0294 23.1726 62.1348 23V37.529L78.9961 27.6215Z" fill="white">
    </path>
    <path d="M23 63.3633C23.1968 69.3776 24.7526 75.2629 27.5448 80.5554L39.76 73.2996L23 63.3633Z" fill="white">
    </path>
    <path d="M27.5448 43.4331C24.7614 48.7022 23.2058 54.561 23 60.5501L39.7769 50.6774L27.5448 43.4331Z" fill="white">
    </path>
    <path d="M43.1504 96.442C48.3065 99.2627 54.0298 100.819 59.871 100.988V86.6328L43.1504 96.442Z" fill="#E2E2E2">
    </path>
    <path d="M93.3515 41.4861C90.3194 36.4701 86.2229 32.2205 81.3672 29.0542V48.5917L93.3515 41.4861Z" fill="white">
    </path>
    <path d="M81.3672 94.9456C86.2479 91.7567 90.3607 87.4747 93.3965 82.4212L81.3672 75.2925V94.9456Z" fill="white">
    </path>
    <path d="M99.0279 60.4401C98.8121 54.509 97.2707 48.708 94.5225 43.4849L82.4087 50.6598L99.0279 60.4401Z"
      fill="#E2E2E2">
    </path>
    <path d="M62.1348 100.988C67.9627 100.821 73.6738 99.2725 78.8215 96.4649L62.1348 86.5459V100.988Z" fill="white">
    </path>
    <path d="M40.7453 71.2025V52.7856L25.1567 61.9536L40.7453 71.2025Z" fill="#E2E2E2">
    </path>
  </g>
  <defs>
    <clipPath id="clip0">
      <rect width="76" height="78" fill="white" transform="translate(23 23)">
      </rect>
    </clipPath>
  </defs>
</svg>