<?xml version="1.0" encoding="UTF-8"?><!DOCTYPE svg>
<svg width="32" height="32" viewBox="0 0 122 122" fill="none" xmlns="http://www.w3.org/2000/svg">
<path fill-rule="evenodd" clip-rule="evenodd" d="M34.9815 116.007C4.60187 101.462 -8.23615 65.0398 6.30738 34.6565C13.2915 20.0659 25.7849 8.84765 41.0393 3.46957C56.2937 -1.9085 73.0595 -1.00577 87.6483 5.97907C118.028 20.5243 130.866 56.9461 116.322 87.3294C101.779 117.713 65.3614 130.552 34.9815 116.007Z" fill="#00B39F"/>
<g clip-path="url(#clip0_5016_25199)">
<path d="M62.4415 40.0191V58.6151L78.0677 49.2854L62.4415 40.0191Z" fill="white"/>
<path d="M62.4415 62.5015V81.1897L78.2131 71.8889L62.4415 62.5015Z" fill="white"/>
<path d="M60.1941 58.4881V40.1747L44.7635 49.3026L60.1941 58.4881Z" fill="white" fill-opacity="0.8"/>
<path d="M29.2379 81.1205C32.2651 86.1431 36.3578 90.3918 41.2077 93.5466V73.9761L29.2379 81.1205Z" fill="white" fill-opacity="0.8"/>
<path d="M60.1941 81.0978V62.6401L44.7245 71.8776L60.1941 81.0978Z" fill="white" fill-opacity="0.8"/>
<path d="M43.4609 92.382L59.1263 83.1445L43.4609 73.8033V92.382Z" fill="white"/>
<path d="M79.2809 92.4802V73.9303L63.6379 83.1562L79.2809 92.4802Z" fill="white" fill-opacity="0.8"/>
<path d="M94.5941 78.9697C97.2683 73.8219 98.78 68.1174 99.0164 62.2823L82.7305 71.9003L94.5941 78.9697Z" fill="white" fill-opacity="0.8"/>
<path d="M81.5341 69.9285L97.2553 60.6564L81.5341 51.3382V69.9285Z" fill="white"/>
<path d="M79.281 47.3307V28.8904L63.7107 38.099L79.281 47.3307Z" fill="white" fill-opacity="0.8"/>
<path d="M79.2809 69.8478V51.2403L63.6771 60.5584L79.2809 69.8478Z" fill="white" fill-opacity="0.8"/>
<path d="M43.4609 51.2055V69.9514L59.1822 60.564L43.4609 51.2055Z" fill="white"/>
<path d="M60.1941 21.6711C54.4069 21.8391 48.7357 23.3843 43.623 26.186L60.1941 35.9885V21.6711Z" fill="white" fill-opacity="0.8"/>
<path d="M43.4609 28.7635V47.3998L59.1933 38.0932L43.4609 28.7635Z" fill="white"/>
<path d="M41.2077 27.6336C36.359 30.79 32.2666 35.0384 29.2379 40.0597L41.2077 47.1868V27.6336Z" fill="white" fill-opacity="0.8"/>
<path d="M79.1803 26.284C74.0251 23.4229 68.2933 21.8433 62.4415 21.6711V36.173L79.1803 26.284Z" fill="white"/>
<path d="M23.5913 61.9594C23.7867 67.9626 25.3312 73.837 28.1031 79.1196L40.2294 71.8773L23.5913 61.9594Z" fill="white"/>
<path d="M28.1031 42.0661C25.3399 47.3254 23.7957 53.1733 23.5913 59.1514L40.2462 49.2969L28.1031 42.0661Z" fill="white"/>
<path d="M43.5951 94.9769C48.7137 97.7924 54.3954 99.3457 60.1941 99.5149V85.1859L43.5951 94.9769Z" fill="white" fill-opacity="0.8"/>
<path d="M93.4312 40.1228C90.4211 35.116 86.3544 30.8744 81.5341 27.7139V47.2152L93.4312 40.1228Z" fill="white"/>
<path d="M81.5341 93.4834C86.3793 90.3004 90.4622 86.0264 93.4759 80.9823L81.5341 73.8668V93.4834Z" fill="white"/>
<path d="M99.0665 59.042C98.8523 53.1218 97.322 47.3316 94.5938 42.1182L82.5681 49.2798L99.0665 59.042Z" fill="white" fill-opacity="0.8"/>
<path d="M62.4415 99.5148C68.227 99.3476 73.8966 97.8023 79.007 94.9999L62.4415 85.0993V99.5148Z" fill="white"/>
<path d="M41.2079 69.7844V51.4017L25.7327 60.5527L41.2079 69.7844Z" fill="white" fill-opacity="0.8"/>
</g>
<defs>
<clipPath id="clip0_5016_25199">
<rect width="75.4474" height="77.8553" fill="white" transform="translate(23.5913 21.6711)"/>
</clipPath>
</defs>
</svg>
