<?xml version="1.0" encoding="UTF-8"?><!DOCTYPE svg>
<svg width="32" height="32" data-name="Layer 1" xmlns="http://www.w3.org/2000/svg" viewBox="0 -5 361 359"><g style="opacity:.6000000000000001"><path d="M63.5 108.5a133.13 133.13 0 0 1 94-67.5l-8-46A181.53 181.53 0 0 0 22 86Z" style="fill:#fff" transform="matrix(.7 0 0 .7 56 56)"/></g><path d="M65.5 242a133.42 133.42 0 0 1-19-69 130.14 130.14 0 0 1 8.5-46.5l-44-16A184.54 184.54 0 0 0 0 173a182.54 182.54 0 0 0 25.5 93Z" style="fill:#fff" transform="matrix(.7 0 0 .7 56 56)"/><g style="opacity:.6000000000000001"><path d="M182 307h-1.5C139 307 102 288 77 258l-36 30a181.18 181.18 0 0 0 139.5 66h2Z" style="fill:#fff" transform="matrix(.7 0 0 .7 56 56)"/></g><path d="M297 239a134.07 134.07 0 0 1-95 66l7.5 46.5a180.18 180.18 0 0 0 128-89.5Z" style="fill:#fff" transform="matrix(.7 0 0 .7 56 56)"/><g style="opacity:.8"><path d="M296 105.5a133.46 133.46 0 0 1 18 67.5 128 128 0 0 1-9 48l44 17a184.66 184.66 0 0 0 12-64.5 180.8 180.8 0 0 0-24.5-91Z" style="fill:#fff" transform="matrix(.7 0 0 .7 56 56)"/></g><path style="fill:none" d="M251.3 12.85h44v67.8h-44z" transform="matrix(.7 0 0 .7 56 56)"/><path style="fill:#fff" d="m261.4 80.65-10.1-10.1 23.8-23.8-23.8-23.8 10.1-10.1 33.9 33.9-33.9 33.9z" transform="matrix(.7 0 0 .7 56 56)"/><path style="fill:none" d="M183.5 12.85h44v67.8h-44z" transform="matrix(.7 0 0 .7 56 56)"/><path style="fill:#fff" d="m193.6 80.65-10.1-10.1 23.8-23.8-23.8-23.8 10.1-10.1 33.9 33.9-33.9 33.9z" transform="matrix(.7 0 0 .7 56 56)"/></svg>