<?xml version="1.0" encoding="UTF-8"?><!DOCTYPE svg>
<svg width="32" height="32" viewBox="0 0 151 151" fill="none" xmlns="http://www.w3.org/2000/svg"><path fill-rule="evenodd" clip-rule="evenodd" d="M42.938 142.651C5.586 124.768-10.2 79.987 7.683 42.631A74.987 74.987 0 0 1 50.386 4.285a74.974 74.974 0 0 1 57.306 3.085c37.352 17.884 53.137 62.665 35.255 100.021-17.881 37.357-62.657 53.143-100.01 35.259Z" fill="#00B39F"/><g clip-path="url(#a)" fill="#fff"><path opacity=".6" d="M39.451 53.135A40.964 40.964 0 0 1 51.492 39.42a40.687 40.687 0 0 1 16.773-7.09l-2.452-14.18a55.479 55.479 0 0 0-22.705 9.568A55.852 55.852 0 0 0 26.731 46.2l12.72 6.935Z"/><path d="M40.065 94.285a41.297 41.297 0 0 1-5.825-21.269 40.31 40.31 0 0 1 2.606-14.332l-13.487-4.932a57.165 57.165 0 0 0-3.372 19.264 56.501 56.501 0 0 0 7.817 28.666l12.26-7.397Z"/><path opacity=".6" d="M75.775 114.32h-.46c-12.72 0-24.062-5.857-31.725-15.104l-11.035 9.247a55.578 55.578 0 0 0 19.118 14.979 55.273 55.273 0 0 0 23.642 5.365h.613l-.153-14.487Z"/><path d="M111.025 93.36a41.245 41.245 0 0 1-12.266 13.492 40.973 40.973 0 0 1-16.854 6.851l2.3 14.333a55.06 55.06 0 0 0 22.744-9.296 55.425 55.425 0 0 0 16.49-18.291l-12.414-7.09Z"/><path opacity=".8" d="M110.719 52.21a41.314 41.314 0 0 1 5.517 20.806 39.638 39.638 0 0 1-2.759 14.796l13.487 5.24a57.181 57.181 0 0 0 3.679-19.881 55.974 55.974 0 0 0-7.51-28.05l-12.414 7.09Z"/><path d="m100.113 45.551-3.096-3.113 7.295-7.336-7.295-7.336 3.096-3.113 10.391 10.449-10.391 10.45Zm-20.783-1-3.096-3.113 7.296-7.336-7.296-7.336 3.096-3.113 10.392 10.449-10.392 10.45Z"/></g><defs><clipPath id="a"><path fill="#fff" transform="translate(19.987 19.692)" d="M0 0h110.656v110.656H0z"/></clipPath></defs></svg>