<svg width="32" height="32" viewBox="0 0 150 150" fill="none" xmlns="http://www.w3.org/2000/svg">
<path fill-rule="evenodd" clip-rule="evenodd" d="M42.6229 142.631C5.27081 124.748 -10.5136 79.967 7.36776 42.6105C15.9548 24.6712 31.3156 10.8783 50.071 4.26587C68.8264 -2.34652 89.44 -1.2366 107.377 7.35132C144.729 25.2348 160.514 70.0157 142.632 107.372C124.751 144.729 79.9752 160.515 42.6229 142.631Z" fill="#00B39F"/>
<g clip-path="url(#clip0_6888_33284)">
<g opacity="0.6">
<path opacity="0.6" d="M43.7105 56.7116C46.2312 52.0542 49.7648 48.0291 54.0479 44.9363C58.331 41.8436 63.2532 39.7629 68.4474 38.8495L66.3421 26.6768C59.3163 27.917 52.6559 30.7236 46.8499 34.8906C41.0438 39.0577 36.2394 44.4793 32.7895 50.7575L43.7105 56.7116Z" fill="white"/>
</g>
<path d="M44.2368 92.039C40.9476 86.5241 39.2188 80.2106 39.2368 73.78C39.2292 69.5754 39.9873 65.4049 41.4737 61.4749L29.8947 57.241C27.9873 62.5445 27.0079 68.1402 27 73.78C27.0026 82.4399 29.3203 90.9398 33.7105 98.39L44.2368 92.039Z" fill="white"/>
<g opacity="0.6">
<path opacity="0.6" d="M74.8948 109.24H74.5C63.579 109.24 53.8421 104.212 47.2632 96.2729L37.7895 104.212C42.2525 109.661 47.8571 114.052 54.2031 117.071C60.549 120.09 67.4797 121.663 74.5 121.677H75.0263L74.8948 109.24Z" fill="white"/>
</g>
<path d="M105.158 91.2451C102.552 95.8483 98.9535 99.8062 94.6274 102.828C90.3014 105.851 85.3573 107.86 80.1579 108.71L82.1316 121.015C89.1535 119.862 95.8274 117.134 101.658 113.034C107.489 108.934 112.328 103.568 115.816 97.3315L105.158 91.2451Z" fill="white"/>
<g opacity="0.8">
<path opacity="0.8" d="M104.895 55.9177C108.023 61.3432 109.658 67.5084 109.632 73.7798C109.66 78.1274 108.856 82.4398 107.263 86.4817L118.842 90.9803C120.899 85.5261 121.969 79.7454 122 73.9121C122.006 65.4532 119.781 57.144 115.553 49.8313L104.895 55.9177Z" fill="white"/>
</g>
<path d="M95.7895 50.2003L93.1316 47.5276L99.3947 41.2295L93.1316 34.9315L95.7895 32.2588L104.711 41.2295L95.7895 50.2003Z" fill="white"/>
<path d="M77.9474 49.3419L75.2895 46.6692L81.5526 40.3711L75.2895 34.0731L77.9474 31.4004L86.8684 40.3711L77.9474 49.3419Z" fill="white"/>
</g>
<defs>
<clipPath id="clip0_6888_33284">
<rect width="95" height="95" fill="white" transform="translate(27 28)"/>
</clipPath>
</defs>
</svg>
