<svg width="32" height="32" viewBox="0 0 32 32" fill="none" xmlns="http://www.w3.org/2000/svg">
    <path d="M16.4053 8.73183V15.3013L22.0989 12.0053L16.4053 8.73183Z" fill="white" />
    <path d="M16.4053 16.6742V23.2762L22.1519 19.9906L16.4053 16.6742Z" fill="white" />
    <path d="M15.5865 15.2564V8.78679L9.9642 12.0114L15.5865 15.2564Z" fill="white" fill-opacity="0.8" />
    <path d="M4.30737 23.2518C5.41037 25.0262 6.90156 26.5271 8.66867 27.6416V20.7279L4.30737 23.2518Z" fill="white"
        fill-opacity="0.8" />
    <path d="M15.5865 23.2437V16.7231L9.95007 19.9865L15.5865 23.2437Z" fill="white" fill-opacity="0.8" />
    <path d="M9.48969 27.2301L15.1975 23.9668L9.48969 20.6668V27.2301Z" fill="white" />
    <path d="M22.5409 27.2649V20.7117L16.8413 23.9709L22.5409 27.2649Z" fill="white" fill-opacity="0.8" />
    <path d="M28.1205 22.492C29.0948 20.6734 29.6455 18.6581 29.7318 16.5967L23.7979 19.9945L28.1205 22.492Z"
        fill="white" fill-opacity="0.8" />
    <path d="M23.3619 19.298L29.09 16.0224L23.3619 12.7305V19.298Z" fill="white" />
    <path d="M22.5411 11.3148V4.80037L16.8679 8.0535L22.5411 11.3148Z" fill="white" fill-opacity="0.8" />
    <path d="M22.541 19.2694V12.6959L16.8557 15.9878L22.541 19.2694Z" fill="white" fill-opacity="0.8" />
    <path d="M9.48969 12.6837V19.3061L15.2178 15.9897L9.48969 12.6837Z" fill="white" />
    <path d="M15.5865 2.25C13.4779 2.30935 11.4115 2.85523 9.54871 3.84499L15.5865 7.30794V2.25Z" fill="white"
        fill-opacity="0.8" />
    <path d="M9.48969 4.75554V11.3392L15.2219 8.05146L9.48969 4.75554Z" fill="white" />
    <path d="M8.66867 4.35638C6.902 5.47144 5.41091 6.97229 4.30737 8.74617L8.66867 11.2639V4.35638Z" fill="white"
        fill-opacity="0.8" />
    <path d="M22.5043 3.8796C20.626 2.86887 18.5376 2.31083 16.4053 2.25V7.37311L22.5043 3.8796Z" fill="white" />
    <path d="M2.25 16.4827C2.3212 18.6035 2.88395 20.6787 3.89391 22.5449L8.31222 19.9864L2.25 16.4827Z" fill="white" />
    <path d="M3.89391 9.45496C2.88711 11.3129 2.32448 13.3788 2.25 15.4906L8.31835 12.0094L3.89391 9.45496Z"
        fill="white" />
    <path d="M9.53851 28.1469C11.4035 29.1415 13.4737 29.6903 15.5865 29.75V24.688L9.53851 28.1469Z" fill="white"
        fill-opacity="0.8" />
    <path d="M27.6966 8.76846C26.6 6.99971 25.1182 5.50128 23.3619 4.38475V11.2739L27.6966 8.76846Z" fill="white" />
    <path d="M23.3619 27.6192C25.1273 26.4948 26.615 24.9849 27.713 23.2031L23.3619 20.6892V27.6192Z" fill="white" />
    <path d="M29.75 15.4521C29.672 13.3606 29.1144 11.3151 28.1203 9.47339L23.7386 12.0034L29.75 15.4521Z" fill="white"
        fill-opacity="0.8" />
    <path d="M16.4053 29.75C18.5134 29.6909 20.5791 29.145 22.4411 28.155L16.4053 24.6574V29.75Z" fill="white" />
    <path d="M8.66873 19.2471V12.753L3.03021 15.9858L8.66873 19.2471Z" fill="white" fill-opacity="0.8" />
</svg>