<svg width="32" height="32" viewBox="0 0 100 100" fill="none" xmlns="http://www.w3.org/2000/svg">
<path fill-rule="evenodd" clip-rule="evenodd" d="M29.8901 91.6961C6.68944 80.5887 -3.11432 52.7744 7.99254 29.5719C13.3254 18.43 22.866 9.86286 34.5155 5.75518C40.2836 3.72152 46.3958 2.84403 52.503 3.1728C58.6102 3.50158 64.5932 5.03018 70.1093 7.67131C93.3093 18.7794 103.114 46.5937 92.0068 69.7962C80.9006 92.9993 53.0894 102.804 29.8888 91.6961H29.8901Z" fill="#00B39F"/>
<path d="M50.0095 25H25V64.1816H46.4258L50.1209 67.5184V67.465L58.5503 75V64.1816H75V25H50.0095ZM66.3476 55.1042H57.2872L38.9997 38.5802V55.1042H33.0024V34.1138H42.3783L60.3698 50.3319V34.1138H66.3476V55.1042Z" fill="white"/>
</svg>
