<svg width="32" height="32" viewBox="0 0 160 161" fill="none" xmlns="http://www.w3.org/2000/svg">
<path fill-rule="evenodd" clip-rule="evenodd" d="M47.623 147.631C10.27 129.748 -5.51404 84.967 12.368 47.611C20.9539 29.6725 36.3143 15.8794 55.07 9.26603C64.3566 5.99185 74.1972 4.57908 84.0298 5.10841C93.8625 5.63774 103.495 8.09879 112.376 12.351C149.728 30.235 165.513 75.016 147.631 112.372C129.75 149.729 84.974 165.515 47.621 147.631H47.623Z" fill="#00B39F"/>
<path d="M79.56 29H32V109.682H72.745L79.772 116.553V116.443L95.802 131.959V109.682H127.084V29H79.56ZM110.63 90.99H93.4L58.623 56.964V90.99H47.218V47.767H65.048L99.262 81.163V47.767H110.63V90.989V90.99Z" fill="white"/>
</svg>
