<svg width="161" height="161" viewBox="0 0 161 161" fill="none" xmlns="http://www.w3.org/2000/svg">
<path fill-rule="evenodd" clip-rule="evenodd" d="M47.6839 147.631C10.3318 129.748 -5.45259 84.967 12.4288 47.6105C21.0159 29.6712 36.3766 15.8783 55.132 9.26587C73.8874 2.65348 94.501 3.7634 112.438 12.3513C149.79 30.2348 165.575 75.0157 147.693 112.372C129.812 149.729 85.0362 165.515 47.6839 147.631Z" fill="#00B39F"/>
<g clip-path="url(#clip0_6709_27907)">
<path opacity="0.6" d="M100.898 79.7138C100.122 79.7138 99.4808 79.9756 98.9663 80.4901C94.2005 85.1294 87.756 87.7019 81.0587 87.7019C74.3614 87.7019 68.0522 85.1204 63.1601 80.481C62.6456 79.9666 61.8694 79.7048 61.2285 79.7048C47.184 80.7428 36.1091 92.594 36.1091 106.765V119.257C36.1091 128.527 43.5827 136 52.8524 136H109.139C118.408 136 125.882 128.527 125.882 119.257V106.765C126.017 92.594 114.942 80.7428 100.898 79.7138V79.7138ZM81.0677 78.4231C93.5597 78.4231 103.867 68.2508 103.867 55.6234C103.867 43.1314 93.5597 32.9501 81.0677 32.9501C68.5757 32.9501 58.268 43.1314 58.268 55.7498C58.268 68.2508 68.5667 78.4231 81.0677 78.4231V78.4231ZM81.0677 38.1039C90.7255 38.1039 98.7135 45.9566 98.7135 55.7498C98.7135 65.4076 90.8609 73.3956 81.0677 73.3956C71.4099 73.3956 63.4218 65.543 63.4218 55.7498C63.4218 45.9566 71.4008 38.1039 81.0677 38.1039V38.1039Z" fill="white"/>
<path opacity="0.6" d="M111.585 48.1589H109.256C106.963 35.6037 95.2566 26 81.0677 26C66.8788 26 55.0638 35.6037 52.8434 48.1589H50.5327C47.175 48.1589 44.4853 50.7403 44.4763 53.6918V63.0969C44.4763 66.1928 47.1841 68.7652 50.5327 68.7652H54.5222C55.6775 68.7652 56.5801 67.8626 56.5801 66.8337V52.8343C56.5892 52.7802 56.5892 52.717 56.5892 52.6628C56.5892 40.1708 67.5467 29.9895 81.0677 29.9895C94.5887 29.9895 105.537 40.1708 105.537 52.6628V64.1981C99.1739 68.3139 90.9783 69.4873 81.1941 67.98C80.0297 67.8536 79.0007 68.6299 78.8744 69.6588C78.6126 70.6968 79.3889 71.5904 80.4178 71.8521C90.6172 73.4949 99.21 72.2583 106.304 68.332C106.656 68.6028 107.108 68.7652 107.595 68.7652H111.594C114.942 68.7652 117.641 66.1838 117.641 63.2323V53.8272C117.641 50.7313 114.933 48.1589 111.585 48.1589V48.1589ZM52.4553 64.9111H50.65C49.6211 64.9111 48.8448 64.1349 48.8448 63.2323V53.8362C48.8448 52.9336 49.6211 52.1574 50.65 52.1574H52.4553V64.9111V64.9111ZM113.273 63.0879C113.273 63.9905 112.496 64.7667 111.467 64.7667H109.662V52.013H111.467C112.496 52.013 113.273 52.7892 113.273 53.6918V63.0879V63.0879Z" fill="white"/>
<path d="M69.388 105.736C71.2745 102.261 74.7044 99.7245 78.7209 99.0385L77.9267 94.4713C72.4659 95.41 67.8536 98.8399 65.2722 103.506L69.388 105.736V105.736Z" fill="white"/>
<path opacity="0.8" d="M69.5866 118.986C68.3952 117 67.7002 114.672 67.7002 112.135C67.7002 110.501 67.998 108.958 68.5396 107.523L64.18 105.934C63.485 107.875 63.0879 109.96 63.0879 112.144C63.0879 115.52 64.0356 118.697 65.6242 121.378L69.5866 118.986Z" fill="white"/>
<path d="M81.1399 125.449H80.9865C76.8616 125.449 73.197 123.562 70.7058 120.584L67.1315 123.562C70.408 127.534 75.4264 130.115 80.9774 130.115H81.176L81.1399 125.449V125.449Z" fill="white"/>
<path opacity="0.8" d="M92.5578 118.688C90.6172 122.118 87.1422 124.6 83.1256 125.241L83.8658 129.853C89.3265 128.96 93.9388 125.629 96.5744 120.972L92.5578 118.688V118.688Z" fill="white"/>
<path d="M92.4585 105.438C93.6048 107.424 94.2457 109.662 94.2457 112.135C94.2457 113.823 93.9478 115.412 93.3521 116.901L97.7207 118.589C98.4608 116.603 98.9121 114.419 98.9121 112.189C98.9121 108.913 98.0185 105.781 96.4751 103.154L92.4585 105.438V105.438Z" fill="white"/>
<g opacity="0.8">
<path d="M89.0287 102.965L88.0358 101.963L90.4006 99.598L88.0358 97.2332L89.0287 96.2313L92.3954 99.598L89.0287 102.965Z" fill="white"/>
</g>
<g opacity="0.8">
<path d="M82.2952 102.965L81.2933 101.963L83.6672 99.598L81.2933 97.2332L82.2952 96.2313L85.6619 99.598L82.2952 102.965Z" fill="white"/>
</g>
</g>
<defs>
<clipPath id="clip0_6709_27907">
<rect width="110" height="110" fill="white" transform="translate(26 26)"/>
</clipPath>
</defs>
</svg>
