<svg width="32" height="32" viewBox="0 0 161 161" fill="none" xmlns="http://www.w3.org/2000/svg">
<path fill-rule="evenodd" clip-rule="evenodd" d="M47.6839 147.631C10.3318 129.748 -5.45259 84.967 12.4288 47.6105C21.0159 29.6712 36.3766 15.8783 55.132 9.26587C73.8874 2.65348 94.501 3.7634 112.438 12.3513C149.79 30.2348 165.575 75.0157 147.693 112.372C129.812 149.729 85.0362 165.515 47.6839 147.631Z" fill="#00B39F"/>
<g clip-path="url(#clip0_6888_30563)">
<path opacity="0.6" d="M97.6845 79.3892C97.0141 79.3892 96.4606 79.6153 96.0163 80.0596C91.9004 84.0663 86.3347 86.288 80.5506 86.288C74.7666 86.288 69.3178 84.0585 65.0928 80.0518C64.6485 79.6075 63.9781 79.3814 63.4246 79.3814C51.2953 80.2779 41.7306 90.5129 41.7306 102.751V113.54C41.7306 121.546 48.185 128 56.1907 128H104.801C112.807 128 119.262 121.546 119.262 113.54V102.751C119.378 90.5129 109.814 80.2779 97.6845 79.3892V79.3892ZM80.5584 78.2745C91.347 78.2745 100.249 69.4893 100.249 58.5838C100.249 47.7953 91.347 39.0023 80.5584 39.0023C69.7699 39.0023 60.8678 47.7953 60.8678 58.693C60.8678 69.4893 69.7621 78.2745 80.5584 78.2745V78.2745ZM80.5584 43.4534C88.8993 43.4534 95.798 50.2352 95.798 58.693C95.798 67.0338 89.0162 73.9326 80.5584 73.9326C72.2176 73.9326 65.3188 67.1508 65.3188 58.693C65.3188 50.2352 72.2098 43.4534 80.5584 43.4534V43.4534Z" fill="white"/>
<path opacity="0.6" d="M106.914 52.1372H104.903C102.923 41.2941 92.8125 33 80.5585 33C68.3044 33 58.1005 41.2941 56.1829 52.1372H54.1874C51.2875 52.1372 48.9646 54.3666 48.9568 56.9156V65.0382C48.9568 67.712 51.2953 69.9336 54.1874 69.9336H57.6328C58.6306 69.9336 59.4101 69.1541 59.4101 68.2654V56.1751C59.4179 56.1283 59.4179 56.0738 59.4179 56.027C59.4179 45.2385 68.8813 36.4455 80.5585 36.4455C92.2357 36.4455 101.691 45.2385 101.691 56.027V65.9893C96.1956 69.5439 89.1176 70.5572 80.6676 69.2554C79.662 69.1463 78.7734 69.8167 78.6643 70.7053C78.4382 71.6018 79.1086 72.3735 79.9972 72.5996C88.8058 74.0183 96.2268 72.9504 102.354 69.5594C102.658 69.7933 103.048 69.9336 103.469 69.9336H106.922C109.814 69.9336 112.145 67.7042 112.145 65.1552V57.0326C112.145 54.3588 109.806 52.1372 106.914 52.1372V52.1372ZM55.8477 66.6051H54.2887C53.4 66.6051 52.7297 65.9347 52.7297 65.1552V57.0404C52.7297 56.2609 53.4 55.5905 54.2887 55.5905H55.8477V66.6051V66.6051ZM108.372 65.0304C108.372 65.81 107.701 66.4803 106.813 66.4803H105.254V55.4657H106.813C107.701 55.4657 108.372 56.1361 108.372 56.9156V65.0304V65.0304Z" fill="white"/>
<path d="M70.4715 101.863C72.1007 98.8615 75.0628 96.6711 78.5317 96.0786L77.8457 92.1343C73.1296 92.945 69.1463 95.9072 66.9169 99.9373L70.4715 101.863V101.863Z" fill="white"/>
<path opacity="0.8" d="M70.643 113.306C69.614 111.591 69.0138 109.58 69.0138 107.389C69.0138 105.979 69.271 104.646 69.7388 103.406L65.9737 102.034C65.3734 103.71 65.0305 105.511 65.0305 107.397C65.0305 110.313 65.849 113.057 67.2209 115.372L70.643 113.306Z" fill="white"/>
<path d="M80.6208 118.887H80.4883C76.9259 118.887 73.7611 117.258 71.6096 114.686L68.5227 117.258C71.3524 120.688 75.6865 122.918 80.4805 122.918H80.652L80.6208 118.887V118.887Z" fill="white"/>
<path opacity="0.8" d="M90.4817 113.049C88.8058 116.011 85.8046 118.155 82.3358 118.708L82.975 122.691C87.691 121.92 91.6744 119.043 93.9506 115.021L90.4817 113.049V113.049Z" fill="white"/>
<path d="M90.396 101.605C91.386 103.32 91.9394 105.254 91.9394 107.39C91.9394 108.847 91.6822 110.219 91.1677 111.505L94.9406 112.963C95.5798 111.248 95.9696 109.362 95.9696 107.436C95.9696 104.607 95.1978 101.902 93.8649 99.6333L90.396 101.605V101.605Z" fill="white"/>
<g opacity="0.8">
<path d="M87.4338 99.4695L86.5764 98.6042L88.6187 96.5619L86.5764 94.5196L87.4338 93.6543L90.3414 96.5619L87.4338 99.4695Z" fill="white"/>
</g>
<g opacity="0.8">
<path d="M81.6186 99.4695L80.7534 98.6042L82.8035 96.5619L80.7534 94.5196L81.6186 93.6543L84.5262 96.5619L81.6186 99.4695Z" fill="white"/>
</g>
</g>
<defs>
<clipPath id="clip0_6888_30563">
<rect width="95" height="95" fill="white" transform="translate(33 33)"/>
</clipPath>
</defs>
</svg>
