<?xml version="1.0" encoding="UTF-8"?><!DOCTYPE svg>
<svg version="1.1" id="Layer_1" xmlns="http://www.w3.org/2000/svg" width="20" height="20" x="0" y="0" viewBox="0 0 1218.7 1218.7" style="enable-background:new 0 0 1218.7 1218.7" xml:space="preserve"><style>.st5,.st7{fill:#fff}.st7{opacity:.8}.st8{fill:none}.st9{opacity:.8}</style><g id="Layer_1_1_"/><path class="st5" d="M829.8 595.1c-8.6 0-15.7 2.9-21.4 8.6-52.8 51.4-124.2 79.9-198.4 79.9s-144.1-28.6-198.3-80c-5.7-5.7-14.3-8.6-21.4-8.6C234.7 606.5 112 737.8 112 894.8v138.4c0 102.7 82.8 185.5 185.5 185.5h623.6c102.7 0 185.5-82.8 185.5-185.5V894.8c1.5-157-121.2-288.3-276.8-299.7zm-219.7-14.3c138.4 0 252.6-112.7 252.6-252.6C862.7 189.8 748.5 77 610.1 77S357.5 189.8 357.5 329.6c0 138.5 114.1 251.2 252.6 251.2zm0-446.7c107 0 195.5 87 195.5 195.5 0 107-87 195.5-195.5 195.5-107 0-195.5-87-195.5-195.5S503 134.1 610.1 134.1z" style="opacity:.6"/><path d="M948.2 245.5h-25.8C897 106.4 767.3 0 610.1 0S322 106.4 297.4 245.5h-25.6c-37.2 0-67 28.6-67.1 61.3V411c0 34.3 30 62.8 67.1 62.8H316c12.8 0 22.8-10 22.8-21.4V297.3c.1-.6.1-1.3.1-1.9 0-138.4 121.4-251.2 271.2-251.2S881.2 157 881.2 295.4v127.8c-70.5 45.6-161.3 58.6-269.7 41.9-12.9-1.4-24.3 7.2-25.7 18.6-2.9 11.5 5.7 21.4 17.1 24.3 113 18.2 208.2 4.5 286.8-39 3.9 3 8.9 4.8 14.3 4.8h44.3c37.1 0 67-28.6 67-61.3V308.3c0-34.3-30-62.8-67.1-62.8zM293.1 431.1h-20c-11.4 0-20-8.6-20-18.6V308.4c0-10 8.6-18.6 20-18.6h20v141.3zm673.8-20.2c0 10-8.6 18.6-20 18.6h-20V288.2h20c11.4 0 20 8.6 20 18.6v104.1z" style="opacity:.6;fill:#fff"/><g id="Layer_2_1_"><path class="st5" d="M480.7 883.4c20.9-38.5 58.9-66.6 103.4-74.2l-8.8-50.6C514.8 769 463.7 807 435.1 858.7l45.6 24.7z"/><path class="st7" d="M482.9 1030.2c-13.2-22-20.9-47.8-20.9-75.9 0-18.1 3.3-35.2 9.3-51.1L423 885.6c-7.7 21.5-12.1 44.6-12.1 68.8 0 37.4 10.5 72.6 28.1 102.3l43.9-26.5z"/><path class="st5" d="M610.9 1101.8h-1.7c-45.7 0-86.3-20.9-113.9-53.9l-39.6 33c36.3 44 91.9 72.6 153.4 72.6h2.2l-.4-51.7z"/><path class="st7" d="M737.4 1026.9c-21.5 38-60 65.5-104.5 72.6l8.2 51.1c60.5-9.9 111.6-46.8 140.8-98.4l-44.5-25.3z"/><path class="st5" d="M736.3 880.1c12.7 22 19.8 46.8 19.8 74.2 0 18.7-3.3 36.3-9.9 52.8l48.4 18.7c8.2-22 13.2-46.2 13.2-70.9 0-36.3-9.9-71-27-100.1l-44.5 25.3z"/><path class="st8" d="M687.3 778.1h48.4v74.6h-48.4z"/><g class="st9"><path class="st5" d="m698.3 852.7-11-11.1 26.2-26.2-26.2-26.2 11-11.1 37.3 37.3z"/></g><path class="st8" d="M612.6 778.1H661v74.6h-48.4z"/><g class="st9"><path class="st5" d="m623.7 852.7-11.1-11.1 26.3-26.2-26.3-26.2 11.1-11.1 37.3 37.3z"/></g></g></svg>