<?xml version="1.0" encoding="UTF-8"?><!DOCTYPE svg>
<svg width="32" height="32" viewBox="0 0 150 150" fill="none" xmlns="http://www.w3.org/2000/svg">
<path fill-rule="evenodd" clip-rule="evenodd" d="M42.6229 142.631C5.27081 124.748 -10.5136 79.967 7.36776 42.6105C15.9548 24.6712 31.3156 10.8783 50.071 4.26587C68.8264 -2.34652 89.44 -1.2366 107.377 7.35132C144.729 25.2348 160.514 70.0157 142.632 107.372C124.751 144.729 79.9752 160.515 42.6229 142.631Z" fill="#00B39F"/>
<path d="M90.6683 43.8563C92.6628 46.3513 94.1188 49.1457 95.2357 52.0998C96.6718 55.9122 97.33 59.9042 96.5122 63.9361C95.4152 69.3453 92.2439 73.1577 86.9585 74.994C84.9041 75.7126 82.77 75.992 80.6558 75.0938C80.3616 74.9918 80.0856 74.8436 79.838 74.6547C79.8063 75.914 79.3333 77.1222 78.5017 78.0679C78.7821 77.9487 79.0773 77.8681 79.3793 77.8283C79.6688 77.7689 79.962 77.7289 80.2569 77.7086C83.0891 77.4691 85.8216 76.8703 88.3945 75.6327C92.3836 73.7166 95.7343 71.002 98.5666 67.6287C100.196 65.7343 101.558 63.6256 102.615 61.3613C104.151 58.008 105.029 54.515 105.468 50.8423C105.827 47.7086 105.727 44.6348 105.428 41.541C105.348 40.8024 105.029 40.4831 104.351 40.3633C102.615 40.0639 100.9 39.7046 99.1849 39.3054C94.7371 38.2276 90.2694 37.3094 85.8016 36.2715C84.226 35.9122 82.6304 35.5769 81.0347 35.2136C82.1916 36.3314 83.4481 37.2296 84.6648 38.2076C86.8189 39.9042 88.933 41.6807 90.6683 43.8563Z" fill="white" fill-opacity="0.8"/>
<path d="M41.7625 82.3793C43.1187 76.6508 45.3725 71.3813 50.0397 67.5091C54.288 63.9761 59.0749 62.8783 64.3604 64.7147C67.033 65.6328 69.3267 67.1298 70.5434 69.8444C70.6593 70.0861 70.7464 70.3407 70.8027 70.6029C71.6296 69.8059 72.6942 69.3012 73.8343 69.1658C73.7745 69.1258 73.6947 69.066 73.6149 69.0061C71.9994 67.7087 70.4436 66.2715 68.5688 65.3135C61.8672 61.9003 54.8266 61.4612 47.6662 63.2775C40.0671 65.2137 34.2032 69.8244 29.3964 75.8923C28.8579 76.5709 28.8978 77.0101 29.3366 77.7087C33.0664 83.517 36.7762 89.3653 40.486 95.1937C40.9846 95.9721 41.4832 96.7306 42.1614 97.7486C42.2412 96.032 41.8622 94.6547 41.6827 93.2775C41.1242 89.6248 40.9048 86.012 41.7625 82.3793Z" fill="white"/>
<path d="M53.1912 42.06C55.7721 41.6241 58.3759 41.3375 60.9898 41.2017C63.3632 41.062 65.6769 41.5411 67.9506 42.1399C73.3757 43.557 78.2423 45.9323 81.7926 50.4233C85.2032 54.7147 86.021 59.5051 84.186 64.6748C83.2486 67.3095 81.6729 69.5051 78.9803 70.6827C78.7934 70.7752 78.59 70.8295 78.382 70.8424C79.1961 71.6977 79.7016 72.8006 79.818 73.9762C79.9398 73.7771 80.08 73.59 80.2369 73.4173C82.2114 71.062 84.0065 68.6069 85.0237 65.6528C86.3788 61.7931 86.9419 57.6995 86.6792 53.6169C86.4849 49.6378 85.4804 45.7405 83.7273 42.1638C81.2142 37.074 77.5842 32.9023 73.1563 29.3694C72.4981 28.8505 72.0194 28.9103 71.3214 29.3495C65.617 33.0221 59.8928 36.6349 54.1884 40.2876C53.3109 40.8464 52.3535 41.3455 51.4958 42.1439C52.0623 42.1658 52.6296 42.1377 53.1912 42.06V42.06Z" fill="white"/>
<path d="M37.2152 65.7726C39.449 62.9183 41.5632 59.9642 44.5749 57.8485C50.1197 53.9363 56.1432 51.3814 63.0841 52.3195C68.6687 53.058 72.7376 56.092 74.772 61.4612C75.6496 63.7766 75.9288 66.1518 74.9315 68.547C74.8718 68.7097 74.7914 68.864 74.6922 69.0061C75.8414 69.0305 76.9527 69.4221 77.8635 70.1239L77.8036 69.8844C77.7573 69.5871 77.7306 69.287 77.7239 68.9862C77.5244 66.6309 77.1255 64.3355 76.2679 62.0999C74.4528 57.3894 71.3613 53.6568 67.5518 50.4033C61.9273 45.6329 55.3454 43.597 48.1252 43.3774C46.0708 43.3175 44.0165 43.2976 41.9621 43.577C40.546 43.7766 40.4463 43.7766 40.1471 45.1738C38.8706 51.2217 37.5808 57.263 36.2778 63.2975C35.9387 64.8744 35.6196 66.4512 35.2406 68.2277C36.1381 67.4492 36.6168 66.571 37.2152 65.7726Z" fill="white" fill-opacity="0.8"/>
<path d="M119.668 71.3612C115.919 65.5129 112.209 59.6446 108.459 53.8163C107.961 53.0379 107.562 52.1796 106.744 51.3213C106.983 53.3572 107.163 55.1337 107.402 56.8901C107.921 60.5628 107.921 64.2155 106.943 67.8482C105.408 73.5368 102.875 78.5867 98.0878 82.2594C95.4749 84.2754 92.4433 85.1935 89.1723 85.2334C86.8786 85.2534 84.7245 84.5947 82.6901 83.5169C80.9349 82.5787 79.4191 81.3412 78.5415 79.4849C78.2622 78.9061 78.1426 78.5468 78.2224 78.3073C77.367 79.1685 76.2386 79.7049 75.0311 79.8243C75.3513 80.0213 75.6518 80.2485 75.9287 80.5029C77.6041 81.8602 79.2795 83.2374 81.254 84.1756C86.739 86.7903 92.543 87.3492 98.4468 86.4111C107.342 85.0139 114.104 80.0039 119.629 73.1376C120.147 72.5029 120.087 71.9999 119.668 71.3612Z" fill="white"/>
<path d="M107.861 88.2074C102.336 93.7563 95.734 96.8501 87.7759 96.8701C82.2311 96.89 76.3473 93.2373 74.3727 87.888C73.555 85.6725 73.0165 83.417 73.8542 81.0817C74.0736 80.4629 74.2331 80.0637 74.3927 79.8641C73.1861 79.8474 72.0202 79.4256 71.0818 78.6665C71.1817 78.9633 71.242 79.272 71.2613 79.5847C71.4408 81.3012 71.5206 83.0378 72.0392 84.6944C74.7716 93.5168 80.6555 99.5447 88.9527 103.197C94.2581 105.533 99.9026 106.251 105.707 105.633C108.3 105.353 108.319 105.413 108.838 103.138C110.254 96.8701 111.69 90.5827 113.066 84.2952C113.306 83.2374 113.725 82.1994 113.705 80.8222C113.386 81.2613 113.206 81.5008 113.027 81.7404C111.431 84.0158 109.815 86.2513 107.861 88.2074Z" fill="white" fill-opacity="0.8"/>
<path d="M59.2346 106.311C56.7015 103.477 54.8865 100.184 53.63 96.6308C52.4333 93.2177 51.7352 89.7246 52.2936 86.072C53.1313 80.7626 55.804 76.8105 60.7703 74.5949C63.1638 73.5171 65.6968 73.0181 68.3096 74.0161C68.5946 74.1137 68.8687 74.2408 69.1274 74.3953C69.1517 73.2453 69.5431 72.1332 70.2443 71.2217C70.0249 71.2616 69.8255 71.2816 69.6061 71.3015C68.1876 71.4012 66.7759 71.5811 65.3777 71.8404C60.5509 72.8584 56.542 75.3933 53.0117 78.7267C48.3655 83.0249 45.2138 88.6967 44.0164 94.9143C43.2385 98.7865 43.1388 102.659 43.438 106.591C43.5577 108.108 44.176 108.647 45.6918 108.946C52.0344 110.224 58.3171 111.741 64.6397 113.118C65.7168 113.357 66.7738 113.757 68.19 113.796C67.1528 112.998 66.355 112.379 65.5372 111.781C63.3034 110.104 61.0895 108.407 59.2346 106.311Z" fill="white" fill-opacity="0.8"/>
<path d="M96.9906 106.834C94.7368 107.234 92.483 107.513 90.1893 107.733C88.3344 107.912 86.4396 108.012 84.6246 107.733C81.9922 107.366 79.418 106.662 76.9656 105.637C73.1561 104.04 69.6856 101.924 67.1127 98.5908C64.0212 94.5589 62.9641 90.0878 64.4999 85.1777C65.3575 82.4032 66.7936 79.9282 69.5859 78.5908C70.0845 78.3513 70.4236 78.2316 70.6629 78.2715C69.8232 77.4329 69.2893 76.3363 69.1471 75.1577C69.0254 75.3391 68.8921 75.5124 68.7482 75.6767C67.4518 77.2336 66.1354 78.7705 65.198 80.5868C62.9442 84.9781 62.1264 89.6487 62.2461 94.5589C62.322 98.1836 63.0658 101.763 64.44 105.118C66.8734 110.906 70.7228 115.617 75.6293 119.529C76.3872 120.148 76.9457 120.208 77.8033 119.649C82.7298 116.455 87.7161 113.321 92.6625 110.168C94.298 109.13 95.9335 108.072 97.5889 106.994C97.5133 106.915 97.4175 106.859 97.312 106.831C97.2065 106.803 97.0954 106.804 96.9906 106.834V106.834Z" fill="white"/>
</svg>