<svg width="40" height="40" viewBox="0 0 40 40" fill="none" xmlns="http://www.w3.org/2000/svg">
<g clip-path="url(#clip0_23298_4019)">
<path d="M40 0H0V40H40V0Z" fill="#E7157B" fill-opacity="0.12"/>
<path fill-rule="evenodd" clip-rule="evenodd" d="M26.5 15C25.673 15 25 14.327 25 13.5C25 12.673 25.673 12 26.5 12C27.327 12 28 12.673 28 13.5C28 14.327 27.327 15 26.5 15ZM21.5 10C20.673 10 20 9.327 20 8.5C20 7.673 20.673 7 21.5 7C22.327 7 23 7.673 23 8.5C23 9.327 22.327 10 21.5 10ZM18.5 19C17.673 19 17 18.327 17 17.5C17 16.673 17.673 16 18.5 16C19.327 16 20 16.673 20 17.5C20 18.327 19.327 19 18.5 19ZM12.5 14C11.673 14 11 13.327 11 12.5C11 11.673 11.673 11 12.5 11C13.327 11 14 11.673 14 12.5C14 13.327 13.327 14 12.5 14ZM26.5 11C25.991 11 25.519 11.154 25.123 11.417L23.584 9.876C23.846 9.481 24 9.009 24 8.5C24 7.122 22.879 6 21.5 6C20.121 6 19 7.122 19 8.5C19 9.423 19.508 10.222 20.254 10.655L18.796 15.03C18.697 15.018 18.602 15 18.5 15C17.736 15 17.06 15.352 16.601 15.894L14.584 13.876C14.846 13.481 15 13.009 15 12.5C15 11.122 13.879 10 12.5 10C11.121 10 10 11.122 10 12.5C10 13.878 11.121 15 12.5 15C13.009 15 13.481 14.846 13.877 14.583L16.107 16.814C16.045 17.034 16 17.261 16 17.5C16 18.878 17.121 20 18.5 20C19.879 20 21 18.878 21 17.5C21 16.577 20.492 15.778 19.746 15.345L21.204 10.97C21.303 10.982 21.398 11 21.5 11C22.009 11 22.481 10.846 22.877 10.583L24.416 12.124C24.154 12.519 24 12.991 24 13.5C24 14.878 25.121 16 26.5 16C27.879 16 29 14.878 29 13.5C29 12.122 27.879 11 26.5 11ZM23.25 25H16.75L14.5 22H25.5L23.25 25ZM21.109 33H18.891L17.141 26H22.859L21.109 33ZM26.5 21H13.5C13.311 21 13.138 21.107 13.053 21.276C12.968 21.446 12.986 21.648 13.1 21.8L16.039 25.719L18.015 33.621C18.07 33.844 18.271 34 18.5 34H21.5C21.729 34 21.93 33.844 21.985 33.621L23.961 25.719L26.9 21.8C27.014 21.648 27.032 21.446 26.947 21.276C26.862 21.107 26.689 21 26.5 21Z" fill="#E7157B"/>
</g>
<rect x="0.5" y="0.5" width="39" height="39" stroke="#E7157B"/>
<defs>
<clipPath id="clip0_23298_4019">
<rect width="40" height="40" fill="white"/>
</clipPath>
</defs>
</svg>
