<svg width="90" height="90" viewBox="0 0 90 90" fill="none" xmlns="http://www.w3.org/2000/svg">
<path d="M21.0705 56.134H16.3928V16.0924C16.3928 15.2504 15.7379 14.502 14.8024 14.502H9.00194C8.15994 14.502 7.4115 15.1568 7.4115 16.0924V56.134H2.73375C0.488425 56.134 -0.727791 58.66 0.58198 60.4375L9.75038 72.2254C10.873 73.6288 12.9313 73.6288 13.9604 72.2254L23.1288 60.4375C24.6256 58.7535 23.3159 56.134 21.0705 56.134Z" fill="#326CE5"/>
<path d="M51.8647 58.2861C51.5841 58.0055 51.1163 57.8184 50.6485 57.8184H31.844C30.8148 57.8184 30.0664 58.6604 30.0664 59.5959V71.571C30.0664 72.5065 30.9084 73.3485 31.844 73.3485H50.7421C51.2099 73.3485 51.5841 73.1614 51.9583 72.8807L58.7878 66.8932C59.6298 66.1448 59.6298 64.9285 58.7878 64.1801L51.8647 58.2861Z" fill="#326CE5"/>
<path d="M66.74 36.6748C66.4593 36.3941 65.9916 36.207 65.5238 36.207H31.844C30.8148 36.207 30.0664 37.049 30.0664 37.9846V49.9596C30.0664 50.8952 30.9084 51.7372 31.844 51.7372H65.5238C65.9916 51.7372 66.3658 51.5501 66.74 51.2694L73.5695 45.2819C74.4115 44.5334 74.4115 43.3172 73.5695 42.5688L66.74 36.6748Z" fill="#326CE5"/>
<path d="M88.4448 21.0508L81.5217 14.9697C81.241 14.6891 80.7733 14.502 80.3055 14.502H31.844C30.8148 14.502 30.0664 15.3439 30.0664 16.2795V28.2546C30.0664 29.1901 30.9084 30.0321 31.844 30.0321H80.3991C80.8668 30.0321 81.241 29.845 81.6153 29.5643L88.4448 23.5768C89.1932 23.0155 89.1932 21.7057 88.4448 21.0508Z" fill="#326CE5"/>
<path d="M86.3532 65.2691L88.3035 66.2064C88.888 66.5301 89.1427 67.2164 88.9112 67.8301C88.3961 69.1804 87.3833 70.419 86.4458 71.5015C86.0175 71.998 85.2767 72.1208 84.6922 71.7972L83.0081 70.8598C82.0821 71.6242 81.0057 72.2324 79.8308 72.6285V74.5033C79.8308 75.1505 79.3505 75.7084 78.6907 75.82C77.267 76.0544 75.7739 76.0655 74.2981 75.82C73.6326 75.7084 73.1406 75.1561 73.1406 74.5033V72.6285C71.9658 72.2268 70.8894 71.6242 69.9634 70.8598L68.2793 71.7916C67.7005 72.1152 66.954 71.9925 66.5257 71.4959C65.5882 70.4134 64.5985 69.1748 64.0834 67.8301C63.852 67.2219 64.1066 66.5356 64.6911 66.2064L66.6183 65.2691C66.3926 64.103 66.3926 62.9034 66.6183 61.7316L64.6911 60.7887C64.1066 60.4651 63.8462 59.7788 64.0834 59.1706C64.5985 57.8204 65.5882 56.5817 66.5257 55.4993C66.954 55.0027 67.6948 54.8799 68.2793 55.2036L69.9634 56.1409C70.8894 55.3765 71.9658 54.7684 73.1406 54.3722V52.4919C73.1406 51.8502 73.6152 51.2923 74.275 51.1807C75.6987 50.9464 77.1976 50.9352 78.6734 51.1751C79.3389 51.2867 79.8308 51.8391 79.8308 52.4919V54.3666C81.0057 54.7684 82.0821 55.3709 83.0081 56.1353L84.6922 55.198C85.2709 54.8744 86.0175 54.9971 86.4458 55.4937C87.3833 56.5761 88.3672 57.8148 88.8822 59.165C89.1137 59.7732 88.888 60.4595 88.3035 60.7887L86.3532 61.7261C86.5789 62.8978 86.5789 64.0974 86.3532 65.2691ZM79.5472 66.4464C82.9734 62.1501 77.8863 57.2457 73.43 60.5488C70.0039 64.845 75.091 69.7495 79.5472 66.4464Z" fill="#326CE5"/>
</svg>
