<svg id="Assets" xmlns="http://www.w3.org/2000/svg" viewBox="0 0 337.46475 428.49896"><defs><style>.cls-1{fill:#7df3e1;}</style></defs><path class="cls-1" d="M303.02856,166.04816a80.384,80.384,0,0,0,13.44825-10.37128c.79419-.76227,1.55041-1.53052,2.30078-2.30078a82.04885,82.04885,0,0,0,7.9292-9.37811,63.42407,63.42407,0,0,0,6.26928-10.76539,48.6159,48.6159,0,0,0,4.35877-16.39782c1.48279-19.39118-9.96729-38.67493-35.62195-54.22687L198.55737,0l-120.26,115.22662L0,190.2478l108.60107,65.90778a111.60534,111.60534,0,0,0,57.76172,16.41577c24.92212,0,48.80127-8.803,66.41919-25.68646,19.15833-18.36218,25.51929-42.128,13.697-61.87146a49.0086,49.0086,0,0,0-6.7987-8.86865,89.32561,89.32561,0,0,0,19.28576,2.14355c.05164,0,.10144.004.15113.004a85.01244,85.01244,0,0,0,30.9707-5.7937A80.536,80.536,0,0,0,303.02856,166.04816ZM202.44543,225.85583c-19.3197,18.51-50.39855,21.23664-75.69982,5.89936L51.61328,186.14752l67.44336-64.64239,76.41687,46.38617C223.01074,184.58405,221.49072,207.60742,202.44543,225.85583Zm8.93348-82.21734-70.64722-42.8888,64.40723-61.76837L274.5083,81.09558c25.94006,15.72455,29.31006,37.04126,10.55042,55.017A60.70506,60.70506,0,0,1,211.37891,143.63849Zm29.86572,190.0401c-19.5763,18.75629-46.17029,29.08777-74.88184,29.08777A123.81616,123.81616,0,0,1,102.2561,344.5733L0,282.51672V307.194l108.60107,65.90778a111.60536,111.60536,0,0,0,57.76172,16.41571c24.92212,0,48.80127-8.80292,66.41919-25.6864,12.87708-12.34162,19.99024-27.12934,19.67981-41.49311l-.00207-1.79126A87.09493,87.09493,0,0,1,241.24463,333.67859Zm0-38.98346c-19.5763,18.75635-46.17029,29.08783-74.88184,29.08783A123.81616,123.81616,0,0,1,102.2561,305.5899L0,243.53333v24.67932l108.60107,65.90777a111.60583,111.60583,0,0,0,57.76172,16.41571c24.92212,0,48.80127-8.803,66.41919-25.6864,12.87708-12.34363,19.99024-27.12933,19.67981-41.49512l-.00207-1.78924A86.98006,86.98006,0,0,1,241.24463,294.69513Zm0-38.98138c-19.5763,18.75628-46.17029,29.08776-74.88184,29.08776a123.81568,123.81568,0,0,1-64.10669-18.19305L0,204.55188v24.67737L108.60107,295.137a111.60583,111.60583,0,0,0,57.76172,16.41571c24.92212,0,48.80127-8.803,66.41919-25.6864,12.87708-12.34167,19.99024-27.12939,19.67981-41.49316l-.00207-1.82306A86.47145,86.47145,0,0,1,241.24463,255.71375Zm83.69079,25.73815a94.13732,94.13732,0,0,1-60.19177,25.8556v-.002h-.01184l.01184,26.66766a81.65277,81.65277,0,0,0,51.73316-22.36865c13.96777-13.38458,21.14453-28.11059,20.98535-42.64154v-2.19726A95.16106,95.16106,0,0,1,324.93542,281.4519ZM241.24463,372.66c-19.5763,18.75629-46.17029,29.08777-74.88184,29.08777a123.81625,123.81625,0,0,1-64.10669-18.19305L0,321.49811v24.67737l108.60107,65.90771A111.60534,111.60534,0,0,0,166.36279,428.499c24.92212,0,48.80127-8.803,66.41919-25.6864,12.87708-12.34167,19.99024-27.12939,19.67981-41.49316l-.00207-1.78925A86.98289,86.98289,0,0,1,241.24463,372.66Zm85.74475-210.20623c-.67859.68664-1.34534,1.37329-2.054,2.05194A99.29568,99.29568,0,0,1,302.7041,180.193a94.67991,94.67991,0,0,1-26.2456,8.71143,98.08664,98.08664,0,0,1-14.16089,1.56634c.50561,1.61213.90368,3.25007,1.25,4.902a53.15974,53.15974,0,0,1,1.13843,12.00128l.0039,9.65284h.05371A84.26983,84.26983,0,0,0,290.08789,211.48a80.95382,80.95382,0,0,0,26.38892-16.82178c.802-.7702,1.50464-1.55835,2.26294-2.33654a82.04872,82.04872,0,0,0,7.92724-9.38019,63.32792,63.32792,0,0,0,6.28321-10.77527,48.44218,48.44218,0,0,0,4.319-16.44165c.09155-1.236.205-2.47388.193-3.70789v-2.048q-1.08069,1.55245-2.257,3.08893A97.66566,97.66566,0,0,1,326.98938,162.45374Zm-.03186,77.921c-.68652.69458-1.30566,1.4071-2.0221,2.09375a94.13054,94.13054,0,0,1-60.19177,25.8576v-.002h-.02978l.012,26.6676h.01392l.0039.002v-.002a81.65282,81.65282,0,0,0,51.73316-22.36865,73.5466,73.5466,0,0,0,16.47339-22.492,48.45386,48.45386,0,0,0,4.319-16.44159c.09155-1.238.205-2.47393.193-3.7099v-2.19323c-.74439,1.0747-1.46485,2.15344-2.27283,3.21624A97.104,97.104,0,0,1,326.95752,240.37476Zm0-38.98145c-.68652.69464-1.30359,1.40717-2.0221,2.09381a97.185,97.185,0,0,1-22.25122,15.67536,95.66871,95.66871,0,0,1-37.94055,10.18023H264.696l.01185,26.6676h.0299l.00586.002v-.002a81.65068,81.65068,0,0,0,51.73316-22.37066c.802-.7702,1.50464-1.55835,2.26294-2.33655A82.05256,82.05256,0,0,0,326.667,221.923a63.33031,63.33031,0,0,0,6.28321-10.77533,48.4418,48.4418,0,0,0,4.319-16.44159c.09155-1.236.205-2.47393.193-3.70788v-2.1933c-.74439,1.07477-1.46485,2.1535-2.27283,3.21631A97.33693,97.33693,0,0,1,326.95752,201.39331Z"/></svg>
