<svg width="40" height="40" viewBox="0 0 40 40" fill="none" xmlns="http://www.w3.org/2000/svg">
<g clip-path="url(#clip0_23310_9376)">
<path d="M40 0H0V40H40V0Z" fill="#01A88D" fill-opacity="0.12"/>
<path fill-rule="evenodd" clip-rule="evenodd" d="M32.482 13.1912C32.405 13.3782 32.222 13.5002 32.02 13.5002H28.997V17.5002H30.5C30.776 17.5002 31 17.7232 31 18.0002V32.0003C31 32.2763 30.776 32.5003 30.5 32.5003H9.5C8.672 32.5003 8 31.8272 8 31.0002V14.0002C8 13.7232 8.223 13.5002 8.5 13.5002H14.621C14.783 13.5002 14.934 13.5782 15.028 13.7102L16.299 15.5002H19V16.5002H16.042C15.879 16.5002 15.728 16.4212 15.634 16.2892L14.363 14.5002H9V31.0002C9 31.2752 9.224 31.5002 9.5 31.5002C9.775 31.5002 10 31.2752 10 31.0002V18.0002C10 17.7232 10.223 17.5002 10.5 17.5002H19V18.5002H11V31.0002C11 31.1762 10.963 31.3422 10.908 31.5002H30V18.5002H29.02H28.02H27V17.5002H27.997V13.0002C27.997 12.7232 28.22 12.5002 28.497 12.5002H30.813L26.52 8.20725L22.227 12.5002H24.502C24.778 12.5002 25.002 12.7232 25.002 13.0002V15.5002V18.5002V19.5002H28.02C28.222 19.5002 28.405 19.6213 28.482 19.8083C28.559 19.9953 28.516 20.2103 28.374 20.3533L22.874 25.8533C22.776 25.9513 22.648 26.0002 22.52 26.0002C22.392 26.0002 22.264 25.9513 22.167 25.8533L16.667 20.3533C16.524 20.2103 16.481 19.9953 16.558 19.8083C16.635 19.6213 16.818 19.5002 17.02 19.5002H20V15.5002H21V20.0002C21 20.2762 20.776 20.5002 20.5 20.5002H18.227L22.52 24.7932L26.813 20.5002H24.502C24.225 20.5002 24.002 20.2762 24.002 20.0002V18.5002V15.5002V13.5002H21.02C20.818 13.5002 20.635 13.3782 20.558 13.1912C20.481 13.0042 20.524 12.7892 20.667 12.6462L26.167 7.14625C26.362 6.95125 26.678 6.95125 26.874 7.14625L32.374 12.6462C32.516 12.7892 32.559 13.0042 32.482 13.1912Z" fill="#01A88D"/>
</g>
<rect x="0.5" y="0.5" width="39" height="39" stroke="#01A88D"/>
<defs>
<clipPath id="clip0_23310_9376">
<rect width="40" height="40" fill="white"/>
</clipPath>
</defs>
</svg>
