<svg width="40" height="40" viewBox="0 0 40 40" xmlns="http://www.w3.org/2000/svg">  <g id="Icon-Architecture/32/Arch_Amazon-Comprehend-Medical_32" stroke="none" stroke-width="1" fill="none" fill-rule="evenodd">  <g id="Icon-Service/32/Amazon-Comprehend-Medical_32" transform="translate(6.000000, 6.000000)" fill="#FFFFFF"> <path d="M27.0007994,21 L24.5007994,21 C24.2247994,21 24.0007994,20.776 24.0007994,20.5 L24.0007994,18 L21.0007994,18 L21.0007994,20.5 C21.0007994,20.776 20.7767994,21 20.5007994,21 L18.0007994,21 L18.0007994,24 L20.5007994,24 C20.7767994,24 21.0007994,24.224 21.0007994,24.5 L21.0007994,27 L24.0007994,27 L24.0007994,24.5 C24.0007994,24.224 24.2247994,24 24.5007994,24 L27.0007994,24 L27.0007994,21 Z M28.0007994,20.5 L28.0007994,24.5 C28.0007994,24.776 27.7767994,25 27.5007994,25 L25.0007994,25 L25.0007994,27.5 C25.0007994,27.776 24.7767994,28 24.5007994,28 L20.5007994,28 C20.2247994,28 20.0007994,27.776 20.0007994,27.5 L20.0007994,25 L17.5007994,25 C17.2247994,25 17.0007994,24.776 17.0007994,24.5 L17.0007994,20.5 C17.0007994,20.224 17.2247994,20 17.5007994,20 L20.0007994,20 L20.0007994,17.5 C20.0007994,17.224 20.2247994,17 20.5007994,17 L24.5007994,17 C24.7767994,17 25.0007994,17.224 25.0007994,17.5 L25.0007994,20 L27.5007994,20 C27.7767994,20 28.0007994,20.224 28.0007994,20.5 L28.0007994,20.5 Z M1.0967994,3.986 L5.0007994,21.867 L5.0007994,3.185 L4.8757994,3.208 L1.0967994,3.986 Z M20.0007994,1.174 L20.0007994,4 L23.1177994,4 L20.0007994,1.174 Z M6.0007994,26 L17.0007994,26 L17.0007994,27 L5.5007994,27 C5.2617994,27 5.0707994,26.829 5.0217994,26.604 L5.0127994,26.606 L0.0117993999,3.705 C-0.0172006001,3.574 0.00779939993,3.438 0.0807993999,3.326 C0.1527994,3.213 0.2687994,3.135 0.3987994,3.108 L5.0007994,2.177 L5.0007994,0.5 C5.0007994,0.224 5.2247994,0 5.5007994,0 L20.0007994,0 C20.1247994,0 20.2447994,0.046 20.3367994,0.129 L24.8367994,4.208 C24.9407994,4.303 25.0007994,4.438 25.0007994,4.579 L25.0007994,16 L24.0007994,16 L24.0007994,5 L19.5007994,5 C19.2247994,5 19.0007994,4.776 19.0007994,4.5 L19.0007994,1 L6.0007994,1 L6.0007994,26 Z M8.0007994,19 L16.0007994,19 L16.0007994,18 L8.0007994,18 L8.0007994,19 Z M8.0007994,16 L20.0007994,16 L20.0007994,15 L8.0007994,15 L8.0007994,16 Z M8.0007994,7 L17.0007994,7 L17.0007994,6 L8.0007994,6 L8.0007994,7 Z M8.0007994,13 L21.0007994,13 L21.0007994,12 L8.0007994,12 L8.0007994,13 Z M12.0007994,10 L21.0007994,10 L21.0007994,9 L12.0007994,9 L12.0007994,10 Z M8.0007994,10 L11.0007994,10 L11.0007994,9 L8.0007994,9 L8.0007994,10 Z" id="Fill-5"></path> </g> </g></svg>