<svg xmlns="http://www.w3.org/2000/svg" xmlns:xlink="http://www.w3.org/1999/xlink" id="Layer_1" x="0" y="0" version="1.1" viewBox="0 0 361 540" xml:space="preserve" style="enable-background:new 0 0 361 540"><style type="text/css">.st0{fill:#3c494f}.st1{fill-opacity:0}.st2{fill:none;stroke:#b7b7b7;stroke-linejoin:round;stroke-miterlimit:10;stroke-dasharray:4,3}.st3{fill:#eee}.st4{fill:none;stroke:#000;stroke-linejoin:round;stroke-miterlimit:10}.st5{fill:#fff}.st6{fill:#595959}.st7{fill:#eeff41}.st8{fill:none;stroke:#999;stroke-linejoin:round;stroke-miterlimit:10}.st9{fill:#999}.st10{fill:#666}.st11{fill:#a3a3a3}</style><path d="M0-1h361v541H0V-1z" class="st0"/><path d="M94.7,488V164.2h171.6V488H94.7z" class="st1"/><path d="M94.7,488V164.2h171.6V488H94.7z" class="st2"/><path d="M80.5,393.7c1,0,1.8,0.4,2.4,1.1c0.6,0.7,0.8,1.7,0.8,3c0,1.4-0.2,2.4-0.5,3.1h-1.3c0.2-0.5,0.4-1,0.5-1.5	c0.1-0.6,0.2-1.1,0.2-1.6c0-0.9-0.2-1.6-0.5-2c-0.3-0.4-0.8-0.7-1.4-0.7c-0.4,0-0.7,0.1-1,0.2c-0.2,0.2-0.5,0.4-0.7,0.8	c-0.2,0.4-0.5,0.9-0.7,1.7c-0.4,1.1-0.8,1.8-1.4,2.3c-0.5,0.4-1.2,0.7-2,0.7c-0.9,0-1.6-0.3-2.1-1c-0.5-0.7-0.8-1.5-0.8-2.6	c0-1.1,0.2-2.2,0.6-3.1l1.2,0.4c-0.4,0.9-0.6,1.9-0.6,2.8c0,0.7,0.2,1.2,0.5,1.6c0.3,0.4,0.7,0.6,1.3,0.6c0.4,0,0.7-0.1,1-0.2	c0.2-0.1,0.5-0.4,0.7-0.7c0.2-0.3,0.4-0.9,0.7-1.6c0.4-1.2,0.9-2,1.4-2.5C79.1,393.9,79.7,393.7,80.5,393.7z M75,392.9v-1.4l4.9-1.9	c1.1-0.4,1.9-0.7,2.4-0.8v-0.1c-0.3-0.1-0.7-0.2-1.4-0.4c-0.6-0.2-2.6-0.9-5.9-2.1v-1.4l9.8,3.7c1,0.4,1.7,0.8,2,1.3	c0.4,0.5,0.6,1.1,0.6,1.8c0,0.4,0,0.8-0.1,1.2h-1c0.1-0.3,0.1-0.6,0.1-1c0-0.9-0.5-1.5-1.5-1.9l-1.2-0.5L75,392.9z M81.2,378	c0.8,0,1.4,0.3,1.9,0.9c0.4,0.6,0.6,1.4,0.6,2.5c0,1.1-0.2,2-0.5,2.7H82c0.2-0.4,0.4-0.8,0.5-1.3c0.1-0.5,0.2-0.9,0.2-1.4	c0-0.7-0.1-1.2-0.3-1.6c-0.2-0.4-0.6-0.5-1-0.5c-0.3,0-0.6,0.1-0.8,0.4c-0.2,0.3-0.5,0.9-0.8,1.7c-0.3,0.8-0.6,1.4-0.8,1.7	c-0.2,0.3-0.5,0.6-0.8,0.8c-0.3,0.2-0.6,0.3-1,0.2c-0.7,0-1.2-0.3-1.6-0.8c-0.4-0.6-0.6-1.4-0.6-2.3c0-0.9,0.2-1.8,0.6-2.7l1,0.5	c-0.4,0.9-0.5,1.6-0.5,2.3c0,0.6,0.1,1.1,0.3,1.4c0.2,0.3,0.5,0.5,0.8,0.5c0.2,0,0.4-0.1,0.6-0.2c0.2-0.1,0.3-0.3,0.5-0.6	c0.1-0.3,0.4-0.8,0.6-1.5c0.4-1,0.8-1.7,1.1-2C80.2,378.1,80.6,378,81.2,378z M82.6,373.1c0-0.2,0-0.4,0-0.7c0-0.2-0.1-0.4-0.1-0.5	h1c0.1,0.1,0.1,0.3,0.2,0.6c0,0.3,0.1,0.5,0.1,0.7c0,1.7-0.9,2.5-2.6,2.5H76v1.2h-0.6l-0.5-1.2l-1.8-0.5v-0.8h2V372h1v2.5h5	c0.5,0,0.9-0.1,1.2-0.4C82.5,373.9,82.6,373.5,82.6,373.1z M83.7,366.6c0,1.3-0.4,2.3-1.2,3c-0.8,0.7-1.8,1.1-3.2,1.1	c-1.4,0-2.5-0.3-3.3-1c-0.8-0.7-1.2-1.6-1.2-2.7c0-1.1,0.4-1.9,1.1-2.5c0.7-0.6,1.6-0.9,2.8-0.9h0.8v5.9c1,0,1.8-0.3,2.3-0.8	c0.5-0.5,0.8-1.2,0.8-2c0-0.9-0.2-1.8-0.6-2.7h1.2c0.2,0.5,0.3,0.9,0.4,1.3C83.7,365.5,83.7,366,83.7,366.6z M75.9,366.9	c0,0.7,0.2,1.2,0.7,1.6c0.4,0.4,1.1,0.6,1.9,0.7v-4.5c-0.8,0-1.4,0.2-1.9,0.5C76.1,365.8,75.9,366.3,75.9,366.9z M83.5,350.3H78	c-0.7,0-1.2,0.1-1.5,0.4c-0.3,0.3-0.5,0.7-0.5,1.4c0,0.8,0.2,1.4,0.7,1.8c0.5,0.4,1.2,0.6,2.1,0.6h4.8v1.3H78	c-0.7,0-1.2,0.1-1.5,0.4c-0.3,0.3-0.5,0.7-0.5,1.4c0,0.8,0.2,1.4,0.7,1.8c0.5,0.4,1.3,0.6,2.4,0.6h4.5v1.3H75v-1.1l1.2-0.2v-0.1	c-0.4-0.2-0.7-0.6-1-1c-0.2-0.4-0.4-0.9-0.4-1.5c0-1.3,0.5-2.2,1.5-2.6v-0.1c-0.4-0.3-0.8-0.6-1.1-1.1c-0.3-0.5-0.4-1-0.4-1.7	c0-1,0.2-1.7,0.8-2.2c0.5-0.5,1.3-0.7,2.4-0.7h5.6V350.3z M77.7,332.9c1.9,0,3.3,0.5,4.3,1.5s1.5,2.5,1.5,4.4v3.2H72.1v-3.5	c0-1.8,0.5-3.1,1.5-4.1C74.6,333.4,76,332.9,77.7,332.9z M77.8,334.3c-1.5,0-2.6,0.4-3.4,1.1c-0.8,0.7-1.1,1.8-1.1,3.3v1.9h9.1v-1.6	c0-1.6-0.4-2.8-1.2-3.6C80.5,334.7,79.3,334.3,77.8,334.3z M83.7,326.9c0,1.3-0.4,2.3-1.2,3s-1.8,1.1-3.2,1.1s-2.5-0.3-3.3-1	s-1.2-1.6-1.2-2.7c0-1.1,0.4-1.9,1.1-2.5c0.7-0.6,1.6-0.9,2.8-0.9h0.8v5.9c1,0,1.8-0.3,2.3-0.8c0.5-0.5,0.8-1.2,0.8-2	c0-0.9-0.2-1.8-0.6-2.7h1.2c0.2,0.5,0.3,0.9,0.4,1.3C83.7,325.8,83.7,326.3,83.7,326.9z M75.9,327.3c0,0.7,0.2,1.2,0.7,1.6	s1.1,0.6,1.9,0.7v-4.5c-0.8,0-1.4,0.2-1.9,0.5S75.9,326.6,75.9,327.3z M83.7,317.6c0,0.6-0.1,1.1-0.3,1.5c-0.2,0.5-0.5,0.8-1,1.2	v0.1c0.5-0.1,1-0.1,1.4-0.1h3.5v1.3H75v-1.1l1.2-0.2v-0.1c-0.5-0.3-0.8-0.7-1-1.2c-0.2-0.4-0.3-1-0.3-1.5c0-1.1,0.4-2,1.2-2.6	c0.8-0.6,1.9-0.9,3.2-0.9c1.4,0,2.5,0.3,3.3,1C83.3,315.6,83.7,316.5,83.7,317.6z M75.9,317.8c0,0.9,0.2,1.5,0.7,1.9	c0.5,0.4,1.2,0.6,2.3,0.6h0.3c1.2,0,2.1-0.2,2.6-0.6c0.5-0.4,0.8-1.1,0.8-1.9c0-0.7-0.3-1.3-0.9-1.7c-0.6-0.4-1.4-0.6-2.5-0.6	c-1.1,0-1.9,0.2-2.5,0.6C76.2,316.4,75.9,317,75.9,317.8z M83.5,310.5v1.3H71.4v-1.3H83.5z M79.3,300.3c1.4,0,2.5,0.4,3.3,1.1	c0.8,0.7,1.2,1.7,1.2,2.9c0,0.8-0.2,1.4-0.5,2c-0.4,0.6-0.9,1.1-1.5,1.4c-0.7,0.3-1.5,0.5-2.4,0.5c-1.4,0-2.5-0.3-3.2-1	c-0.8-0.7-1.2-1.7-1.2-2.9c0-1.2,0.4-2.1,1.2-2.8C76.8,300.7,77.9,300.3,79.3,300.3z M79.3,306.8c1.1,0,1.9-0.2,2.5-0.7	s0.9-1.1,0.9-1.9c0-0.9-0.3-1.5-0.8-1.9c-0.6-0.4-1.4-0.7-2.5-0.7c-1.1,0-1.9,0.2-2.5,0.7c-0.6,0.4-0.9,1.1-0.9,2	c0,0.8,0.3,1.5,0.8,1.9C77.3,306.6,78.1,306.8,79.3,306.8z M75,299.4V298l4.9-1.9c1.1-0.4,1.9-0.7,2.4-0.8v-0.1	c-0.3-0.1-0.7-0.2-1.4-0.4c-0.6-0.2-2.6-0.9-5.9-2.1v-1.4l9.8,3.7c1,0.4,1.7,0.8,2,1.3c0.4,0.5,0.6,1.1,0.6,1.8c0,0.4,0,0.8-0.1,1.2	h-1c0.1-0.3,0.1-0.6,0.1-1c0-0.9-0.5-1.5-1.5-1.9l-1.2-0.5L75,299.4z M83.5,279.1H78c-0.7,0-1.2,0.1-1.5,0.4s-0.5,0.7-0.5,1.4	c0,0.8,0.2,1.4,0.7,1.8c0.5,0.4,1.2,0.6,2.1,0.6h4.8v1.3H78c-0.7,0-1.2,0.1-1.5,0.4s-0.5,0.7-0.5,1.4c0,0.8,0.2,1.4,0.7,1.8	c0.5,0.4,1.3,0.6,2.4,0.6h4.5v1.3H75v-1.1l1.2-0.2v-0.1c-0.4-0.2-0.7-0.6-1-1c-0.2-0.4-0.4-0.9-0.4-1.5c0-1.3,0.5-2.2,1.5-2.6v-0.1	c-0.4-0.3-0.8-0.6-1.1-1.1c-0.3-0.5-0.4-1-0.4-1.7c0-1,0.2-1.7,0.8-2.2c0.5-0.5,1.3-0.7,2.4-0.7h5.6V279.1z M83.7,271.5	c0,1.3-0.4,2.3-1.2,3s-1.8,1.1-3.2,1.1s-2.5-0.3-3.3-1s-1.2-1.6-1.2-2.7c0-1.1,0.4-1.9,1.1-2.5c0.7-0.6,1.6-0.9,2.8-0.9h0.8v5.9	c1,0,1.8-0.3,2.3-0.8c0.5-0.5,0.8-1.2,0.8-2c0-0.9-0.2-1.8-0.6-2.7h1.2c0.2,0.5,0.3,0.9,0.4,1.3C83.7,270.4,83.7,270.9,83.7,271.5z M75.9,271.8c0,0.7,0.2,1.2,0.7,1.6s1.1,0.6,1.9,0.7v-4.5c-0.8,0-1.4,0.2-1.9,0.5S75.9,271.2,75.9,271.8z M83.5,260.3H78	c-0.7,0-1.2,0.2-1.6,0.5c-0.3,0.3-0.5,0.8-0.5,1.5c0,0.9,0.2,1.6,0.7,2c0.5,0.4,1.3,0.6,2.4,0.6h4.5v1.3H75v-1.1l1.2-0.2v-0.1	c-0.4-0.3-0.8-0.6-1-1.1s-0.3-1-0.3-1.6c0-1,0.2-1.8,0.8-2.3c0.5-0.5,1.3-0.8,2.4-0.8h5.6V260.3z M82.6,253.5c0-0.2,0-0.4,0-0.7	c0-0.2-0.1-0.4-0.1-0.5h1c0.1,0.1,0.1,0.3,0.2,0.6c0,0.3,0.1,0.5,0.1,0.7c0,1.7-0.9,2.5-2.6,2.5H76v1.2h-0.6l-0.5-1.2l-1.8-0.5v-0.8	h2v-2.5h1v2.5h5c0.5,0,0.9-0.1,1.2-0.4C82.5,254.3,82.6,254,82.6,253.5z" class="st3"/><path d="M118.6,249.2h123.8v140.3H118.6V249.2z" class="st1"/><path d="M118.6,249.2h123.8v140.3H118.6V249.2z" class="st4"/><path d="M156.5,271l-2.3-7.5h-0.1c0.1,1.5,0.1,2.5,0.1,3v4.4h-1.8v-9.5h2.7l2.3,7.3h0l2.4-7.3h2.8v9.5h-1.9v-4.5	c0-0.2,0-0.5,0-0.7c0-0.3,0-1,0.1-2.2h-0.1l-2.5,7.5H156.5z M167.8,265c-0.4,0-0.7,0.1-1,0.4c-0.2,0.3-0.4,0.6-0.4,1.1h2.8	c0-0.5-0.1-0.9-0.4-1.1C168.6,265.2,168.3,265,167.8,265z M168.1,271.2c-1.2,0-2.1-0.3-2.8-1c-0.7-0.6-1-1.6-1-2.7	c0-1.2,0.3-2.2,0.9-2.8c0.6-0.7,1.5-1,2.5-1c1,0,1.8,0.3,2.4,0.9c0.6,0.6,0.9,1.4,0.9,2.4v1h-4.7c0,0.6,0.2,1,0.5,1.3	c0.3,0.3,0.8,0.5,1.3,0.5c0.4,0,0.8,0,1.2-0.1c0.4-0.1,0.8-0.2,1.2-0.4v1.5c-0.3,0.2-0.7,0.3-1.1,0.4	C169.2,271.1,168.7,271.2,168.1,271.2z M177.8,268.9c0,0.7-0.3,1.3-0.8,1.7c-0.5,0.4-1.3,0.6-2.3,0.6c-0.5,0-1,0-1.4-0.1	c-0.4-0.1-0.7-0.2-1-0.3v-1.6c0.4,0.2,0.8,0.3,1.2,0.4c0.5,0.1,0.9,0.2,1.2,0.2c0.7,0,1.1-0.2,1.1-0.6c0-0.2,0-0.3-0.1-0.4	c-0.1-0.1-0.3-0.2-0.5-0.3c-0.2-0.1-0.5-0.3-0.9-0.4c-0.6-0.2-1-0.4-1.2-0.6c-0.3-0.2-0.5-0.4-0.6-0.7c-0.1-0.3-0.2-0.6-0.2-1	c0-0.7,0.3-1.2,0.8-1.5c0.5-0.4,1.2-0.5,2.1-0.5c0.9,0,1.7,0.2,2.6,0.6l-0.6,1.4c-0.4-0.2-0.7-0.3-1-0.4c-0.3-0.1-0.6-0.2-1-0.2	c-0.6,0-0.9,0.2-0.9,0.5c0,0.2,0.1,0.3,0.3,0.5c0.2,0.1,0.6,0.3,1.2,0.6c0.6,0.2,1,0.4,1.2,0.6c0.3,0.2,0.5,0.4,0.6,0.7	C177.7,268.2,177.8,268.5,177.8,268.9z M186,271h-2v-4.2c0-1.1-0.4-1.6-1.2-1.6c-0.6,0-1,0.2-1.2,0.6c-0.2,0.4-0.4,1-0.4,1.8v3.4h-2	v-10.1h2v2.1c0,0.2,0,0.5,0,1.1l0,0.6h0.1c0.4-0.7,1.1-1.1,2.1-1.1c0.9,0,1.5,0.2,2,0.7c0.4,0.5,0.7,1.1,0.7,2V271z M191.1,265	c-0.4,0-0.7,0.1-1,0.4c-0.2,0.3-0.4,0.6-0.4,1.1h2.8c0-0.5-0.1-0.9-0.4-1.1C191.9,265.2,191.5,265,191.1,265z M191.4,271.2	c-1.2,0-2.1-0.3-2.8-1c-0.7-0.6-1-1.6-1-2.7c0-1.2,0.3-2.2,0.9-2.8c0.6-0.7,1.5-1,2.5-1c1,0,1.8,0.3,2.4,0.9	c0.6,0.6,0.9,1.4,0.9,2.4v1h-4.7c0,0.6,0.2,1,0.5,1.3c0.3,0.3,0.8,0.5,1.3,0.5c0.4,0,0.8,0,1.2-0.1c0.4-0.1,0.8-0.2,1.2-0.4v1.5	c-0.3,0.2-0.7,0.3-1.1,0.4C192.4,271.1,192,271.2,191.4,271.2z M200,263.6c0.3,0,0.5,0,0.7,0l-0.1,1.9c-0.2,0-0.4-0.1-0.6-0.1	c-0.6,0-1.1,0.2-1.5,0.5c-0.4,0.3-0.5,0.8-0.5,1.4v3.7h-2v-7.3h1.5l0.3,1.2h0.1c0.2-0.4,0.5-0.7,0.9-1	C199.2,263.8,199.6,263.6,200,263.6z M201,263.8h2.2l1.4,4.1c0.1,0.4,0.2,0.8,0.2,1.3h0c0-0.4,0.1-0.9,0.3-1.3l1.3-4.1h2.1l-3.1,8.2	c-0.3,0.8-0.7,1.3-1.2,1.7c-0.5,0.4-1.1,0.6-1.8,0.6c-0.3,0-0.7,0-1-0.1v-1.6c0.2,0.1,0.5,0.1,0.8,0.1c0.4,0,0.7-0.1,0.9-0.3	c0.3-0.2,0.5-0.5,0.6-1l0.1-0.4L201,263.8z" class="st5"/><path d="M126.2,312.8h108.6V368H126.2V312.8z" class="st6"/><path d="M126.2,312.8h108.6V368H126.2V312.8z" class="st4"/><path d="M167,327c0,0.8-0.3,1.5-0.9,2s-1.4,0.7-2.5,0.7c-1.1,0-2-0.1-2.6-0.4v-1.1c0.4,0.2,0.8,0.3,1.3,0.4	s0.9,0.1,1.4,0.1c0.7,0,1.3-0.1,1.7-0.4c0.4-0.3,0.6-0.7,0.6-1.2c0-0.3-0.1-0.6-0.2-0.8c-0.1-0.2-0.4-0.4-0.7-0.6	c-0.3-0.2-0.8-0.4-1.4-0.6c-0.9-0.3-1.5-0.7-1.9-1.1c-0.4-0.4-0.6-1-0.6-1.7c0-0.7,0.3-1.3,0.8-1.8s1.3-0.7,2.2-0.7	c0.9,0,1.8,0.2,2.6,0.5l-0.3,1c-0.8-0.3-1.6-0.5-2.3-0.5c-0.6,0-1,0.1-1.4,0.4c-0.3,0.2-0.5,0.6-0.5,1c0,0.3,0.1,0.6,0.2,0.8	c0.1,0.2,0.3,0.4,0.6,0.6c0.3,0.2,0.7,0.4,1.3,0.6c1,0.4,1.7,0.7,2.1,1.2C166.8,325.9,167,326.4,167,327z M171.8,329.7	c-1.1,0-1.9-0.3-2.5-1c-0.6-0.6-0.9-1.5-0.9-2.7c0-1.2,0.3-2.1,0.8-2.8c0.6-0.7,1.3-1,2.3-1c0.9,0,1.6,0.3,2.1,0.9	c0.5,0.6,0.8,1.4,0.8,2.3v0.7h-4.9c0,0.8,0.2,1.5,0.6,1.9c0.4,0.4,1,0.6,1.7,0.6c0.8,0,1.5-0.2,2.3-0.5v1c-0.4,0.2-0.7,0.3-1.1,0.3	C172.7,329.7,172.3,329.7,171.8,329.7z M171.5,323.2c-0.6,0-1,0.2-1.4,0.6c-0.3,0.4-0.5,0.9-0.6,1.5h3.7c0-0.7-0.2-1.2-0.5-1.6	C172.5,323.4,172.1,323.2,171.5,323.2z M179.5,322.3c0.3,0,0.6,0,0.8,0.1l-0.1,1c-0.3-0.1-0.6-0.1-0.8-0.1c-0.6,0-1.1,0.2-1.5,0.7	c-0.4,0.5-0.6,1.1-0.6,1.8v3.8h-1.1v-7.1h0.9l0.1,1.3h0.1c0.3-0.5,0.6-0.8,1-1.1S179.1,322.3,179.5,322.3z M183.3,329.6l-2.7-7.1	h1.2l1.5,4.2c0.4,1,0.6,1.6,0.6,1.9h0c0-0.2,0.2-0.7,0.4-1.4c0.3-0.7,0.8-2.3,1.7-4.7h1.2l-2.7,7.1H183.3z M191.4,329.7	c-1.1,0-1.9-0.3-2.5-1c-0.6-0.6-0.9-1.5-0.9-2.7c0-1.2,0.3-2.1,0.8-2.8c0.6-0.7,1.3-1,2.3-1c0.9,0,1.6,0.3,2.1,0.9	c0.5,0.6,0.8,1.4,0.8,2.3v0.7h-4.9c0,0.8,0.2,1.5,0.6,1.9c0.4,0.4,1,0.6,1.7,0.6c0.8,0,1.5-0.2,2.3-0.5v1c-0.4,0.2-0.7,0.3-1.1,0.3	C192.3,329.7,191.9,329.7,191.4,329.7z M191.1,323.2c-0.6,0-1,0.2-1.4,0.6c-0.3,0.4-0.5,0.9-0.6,1.5h3.7c0-0.7-0.2-1.2-0.5-1.6	C192.1,323.4,191.7,323.2,191.1,323.2z M199.1,322.3c0.3,0,0.6,0,0.8,0.1l-0.1,1c-0.3-0.1-0.6-0.1-0.8-0.1c-0.6,0-1.1,0.2-1.5,0.7	c-0.4,0.5-0.6,1.1-0.6,1.8v3.8h-1.1v-7.1h0.9l0.1,1.3h0.1c0.3-0.5,0.6-0.8,1-1.1S198.7,322.3,199.1,322.3z" class="st5"/><path d="M71.8,90.2c-1.1,0-2.2,0.3-3,1c-0.9,0.6-1.6,1.6-2.1,2.8c-0.5,1.2-0.8,2.5-0.8,4c0,1.2,0.3,2.2,0.9,2.9	c0.6,0.7,1.5,1.1,2.6,1.1c0.9,0,2-0.2,3.2-0.6v1.5c-0.6,0.2-1.1,0.3-1.6,0.4s-1.1,0.1-1.8,0.1c-1.6,0-2.8-0.5-3.7-1.5	c-0.9-1-1.3-2.3-1.3-4c0-1.7,0.3-3.3,1-4.7c0.7-1.5,1.6-2.6,2.8-3.3c1.2-0.8,2.5-1.2,3.9-1.2c1.3,0,2.4,0.3,3.4,0.8l-0.7,1.4	C73.7,90.5,72.8,90.2,71.8,90.2z M80.6,92.4c1.2,0,2.2,0.4,2.9,1.1c0.7,0.7,1.1,1.7,1.1,3c0,1.2-0.2,2.4-0.7,3.5	c-0.5,1.1-1.1,1.9-1.9,2.5s-1.7,0.9-2.7,0.9c-1.2,0-2.2-0.4-3-1.1c-0.7-0.7-1.1-1.8-1.1-3c0-1.2,0.2-2.4,0.7-3.5	c0.5-1.1,1.1-1.9,1.9-2.5C78.7,92.7,79.6,92.4,80.6,92.4z M82.9,96.3c0-0.8-0.2-1.4-0.6-1.8s-1-0.7-1.7-0.7c-0.7,0-1.3,0.2-1.9,0.7	c-0.6,0.5-1,1.1-1.3,2c-0.3,0.9-0.5,1.8-0.5,2.9c0,0.9,0.2,1.5,0.6,2c0.4,0.5,1,0.7,1.8,0.7c0.7,0,1.3-0.2,1.8-0.7	c0.5-0.5,1-1.2,1.3-2S82.9,97.4,82.9,96.3z M92.4,103.2l1.5-6.8c0.1-0.6,0.2-1,0.2-1.3c0-0.5-0.1-0.8-0.3-1.1	c-0.2-0.2-0.5-0.4-1-0.4c-0.5,0-1.1,0.2-1.6,0.6c-0.5,0.4-1,0.9-1.4,1.7c-0.4,0.7-0.7,1.6-0.9,2.6l-1,4.6h-1.6l2.3-10.7h1.4l-0.2,2	h0.1c0.6-0.8,1.1-1.3,1.7-1.7c0.6-0.3,1.1-0.5,1.8-0.5c0.7,0,1.3,0.2,1.7,0.6c0.4,0.4,0.6,1,0.7,1.8h0.1c0.6-0.8,1.2-1.4,1.8-1.8	c0.6-0.4,1.3-0.6,1.9-0.6c0.8,0,1.5,0.2,1.9,0.7c0.4,0.4,0.7,1.1,0.7,1.9c0,0.4-0.1,1-0.2,1.7l-1.4,6.6h-1.7l1.5-6.8	c0.1-0.7,0.2-1.2,0.2-1.4c0-0.4-0.1-0.7-0.3-1c-0.2-0.2-0.6-0.4-1-0.4c-0.5,0-1.1,0.2-1.6,0.6s-1,0.9-1.4,1.6	c-0.4,0.7-0.7,1.5-0.9,2.5l-1,4.9H92.4z M108.3,103.4c-0.6,0-1.2-0.2-1.7-0.5c-0.5-0.3-0.8-0.8-1.1-1.4h-0.1l0,0.4	c0,0.2-0.1,0.4-0.1,0.7c0,0.3-0.4,2.1-1.1,5.4h-1.6l3.3-15.5h1.4l-0.2,2h0.1c1.2-1.5,2.4-2.2,3.6-2.2c0.9,0,1.6,0.3,2.1,1	c0.5,0.6,0.8,1.5,0.8,2.7c0,1.4-0.2,2.6-0.7,3.8c-0.4,1.1-1.1,2-1.9,2.7C110.2,103.1,109.3,103.4,108.3,103.4z M110.1,93.7	c-0.6,0-1.3,0.3-1.9,0.9c-0.6,0.6-1.2,1.4-1.5,2.3c-0.4,0.9-0.6,1.9-0.6,2.9c0,0.7,0.2,1.3,0.5,1.6c0.4,0.4,0.9,0.6,1.6,0.6	c0.6,0,1.2-0.3,1.8-0.8c0.6-0.5,1-1.3,1.3-2.2c0.3-1,0.5-2,0.5-3.1C111.9,94.4,111.3,93.7,110.1,93.7z M120.8,92.4	c1.2,0,2.2,0.4,2.9,1.1c0.7,0.7,1.1,1.7,1.1,3c0,1.2-0.2,2.4-0.7,3.5c-0.5,1.1-1.1,1.9-1.9,2.5c-0.8,0.6-1.7,0.9-2.7,0.9	c-1.3,0-2.2-0.4-3-1.1c-0.7-0.7-1.1-1.8-1.1-3c0-1.2,0.2-2.4,0.7-3.5c0.5-1.1,1.1-1.9,1.9-2.5C119,92.7,119.8,92.4,120.8,92.4z M123.1,96.3c0-0.8-0.2-1.4-0.6-1.8c-0.4-0.5-1-0.7-1.7-0.7c-0.7,0-1.3,0.2-1.9,0.7c-0.6,0.5-1,1.1-1.3,2c-0.3,0.9-0.5,1.8-0.5,2.9	c0,0.9,0.2,1.5,0.6,2c0.4,0.5,1,0.7,1.8,0.7c0.7,0,1.3-0.2,1.8-0.7c0.5-0.5,1-1.2,1.3-2C123,98.4,123.1,97.4,123.1,96.3z M132.9,103.2l1.4-6.8c0.1-0.7,0.2-1.1,0.2-1.4c0-0.4-0.1-0.7-0.4-1c-0.2-0.2-0.6-0.4-1.1-0.4c-0.6,0-1.2,0.2-1.7,0.6	c-0.6,0.4-1,0.9-1.5,1.7c-0.4,0.7-0.7,1.6-1,2.6l-1,4.6h-1.6l2.3-10.7h1.4l-0.2,2h0.1c0.6-0.8,1.2-1.4,1.8-1.7	c0.6-0.3,1.2-0.5,1.8-0.5c0.8,0,1.5,0.2,2,0.7c0.5,0.4,0.7,1.1,0.7,1.9c0,0.5-0.1,1.1-0.2,1.8l-1.4,6.6H132.9z M142.1,103.4	c-1.2,0-2.1-0.4-2.8-1.1c-0.7-0.7-1-1.7-1-3c0-1.2,0.2-2.4,0.7-3.5c0.5-1.1,1.1-2,1.9-2.6c0.8-0.6,1.7-0.9,2.7-0.9	c1,0,1.7,0.2,2.2,0.7c0.5,0.4,0.8,1,0.8,1.8c0,1.2-0.5,2.1-1.6,2.8c-1.1,0.7-2.6,1-4.6,1H140l0,0.8c0,0.8,0.2,1.5,0.6,2	c0.4,0.5,1,0.7,1.9,0.7c0.4,0,0.8-0.1,1.3-0.2c0.4-0.1,1-0.3,1.6-0.6v1.4c-0.6,0.3-1.2,0.5-1.6,0.6	C143.2,103.4,142.7,103.4,142.1,103.4z M143.5,93.7c-0.7,0-1.3,0.3-1.9,0.9c-0.6,0.6-1,1.5-1.3,2.5h0.1c1.5,0,2.6-0.2,3.4-0.6	c0.8-0.4,1.2-1,1.2-1.7c0-0.3-0.1-0.6-0.4-0.9C144.4,93.8,144,93.7,143.5,93.7z M154.3,103.2l1.4-6.8c0.1-0.7,0.2-1.1,0.2-1.4	c0-0.4-0.1-0.7-0.4-1c-0.2-0.2-0.6-0.4-1.1-0.4c-0.6,0-1.2,0.2-1.7,0.6c-0.6,0.4-1,0.9-1.5,1.7s-0.7,1.6-1,2.6l-1,4.6h-1.6l2.3-10.7	h1.4l-0.2,2h0.1c0.6-0.8,1.2-1.4,1.8-1.7c0.6-0.3,1.2-0.5,1.8-0.5c0.8,0,1.5,0.2,2,0.7c0.5,0.4,0.7,1.1,0.7,1.9	c0,0.5-0.1,1.1-0.2,1.8l-1.4,6.6H154.3z M162.6,102.1c0.4,0,0.8-0.1,1.4-0.2v1.2c-0.2,0.1-0.5,0.2-0.8,0.2c-0.3,0.1-0.6,0.1-0.8,0.1	c-0.8,0-1.4-0.2-1.9-0.6c-0.4-0.4-0.6-1-0.6-1.8c0-0.4,0.1-0.9,0.2-1.5l1.2-5.9h-1.7l0.1-0.7l1.8-0.8l1.2-2.2h1l-0.5,2.5h2.7	l-0.2,1.2h-2.7l-1.3,5.9c-0.1,0.6-0.2,1-0.2,1.3c0,0.4,0.1,0.6,0.3,0.8C162,102,162.2,102.1,162.6,102.1z M175.7,103.4	c-0.6,0-1.2-0.2-1.7-0.5c-0.5-0.3-0.8-0.8-1.1-1.4h-0.1l-0.7,1.7H171l3.2-15.2h1.6c-0.3,1.6-0.6,2.8-0.8,3.6	c-0.2,0.8-0.4,1.8-0.7,2.9h0.1c0.6-0.8,1.2-1.3,1.8-1.7c0.6-0.4,1.2-0.5,1.8-0.5c0.9,0,1.6,0.3,2.1,1c0.5,0.6,0.8,1.5,0.8,2.7	c0,1.4-0.2,2.6-0.7,3.8s-1.1,2.1-1.9,2.7C177.6,103.1,176.7,103.4,175.7,103.4z M177.5,93.7c-0.6,0-1.3,0.3-1.9,0.9	c-0.6,0.6-1.2,1.4-1.5,2.3s-0.6,1.9-0.6,2.9c0,0.7,0.2,1.3,0.5,1.6c0.4,0.4,0.9,0.6,1.6,0.6c0.6,0,1.2-0.3,1.8-0.8	c0.6-0.5,1-1.3,1.3-2.2c0.3-1,0.5-2,0.5-3.1C179.3,94.4,178.7,93.7,177.5,93.7z M182.9,92.5h1.6l0.7,5.3c0.1,0.4,0.1,1.1,0.2,2	s0.1,1.6,0.1,2.1h0c0.2-0.6,0.5-1.2,0.8-2c0.3-0.7,0.6-1.2,0.8-1.5l3.2-6h1.7l-6.8,12.5c-0.6,1.1-1.2,1.9-1.8,2.3s-1.3,0.7-2.1,0.7	c-0.5,0-0.9-0.1-1.4-0.2v-1.3c0.4,0.1,0.8,0.2,1.3,0.2c0.5,0,1-0.2,1.4-0.5c0.4-0.3,0.8-0.8,1.1-1.5l0.7-1.3L182.9,92.5z M201.3,103.4c-1.3,0-2.2-0.3-2.9-1c-0.7-0.7-1-1.7-1-3c0-1.3,0.2-2.5,0.7-3.6c0.5-1.1,1.2-2,2-2.6c0.9-0.6,1.8-0.9,2.9-0.9	c0.9,0,1.8,0.2,2.6,0.5l-0.5,1.4c-0.8-0.3-1.5-0.5-2.1-0.5c-0.7,0-1.4,0.2-2,0.8c-0.6,0.5-1.1,1.2-1.4,2.1c-0.3,0.9-0.5,1.8-0.5,2.9	c0,0.8,0.2,1.5,0.6,2c0.4,0.5,1,0.7,1.8,0.7c0.5,0,0.9-0.1,1.3-0.2c0.4-0.1,0.8-0.3,1.2-0.5v1.4	C203.2,103.2,202.3,103.4,201.3,103.4z M211.7,92.4c1.2,0,2.2,0.4,2.9,1.1c0.7,0.7,1.1,1.7,1.1,3c0,1.2-0.2,2.4-0.7,3.5	c-0.5,1.1-1.1,1.9-1.9,2.5s-1.7,0.9-2.7,0.9c-1.2,0-2.2-0.4-3-1.1c-0.7-0.7-1.1-1.8-1.1-3c0-1.2,0.2-2.4,0.7-3.5	c0.5-1.1,1.1-1.9,1.9-2.5C209.8,92.7,210.7,92.4,211.7,92.4z M214,96.3c0-0.8-0.2-1.4-0.6-1.8s-1-0.7-1.7-0.7	c-0.7,0-1.3,0.2-1.9,0.7c-0.6,0.5-1,1.1-1.3,2c-0.3,0.9-0.5,1.8-0.5,2.9c0,0.9,0.2,1.5,0.6,2c0.4,0.5,1,0.7,1.8,0.7	c0.7,0,1.3-0.2,1.8-0.7c0.5-0.5,1-1.2,1.3-2S214,97.4,214,96.3z M223.4,103.2l1.5-6.8c0.1-0.6,0.2-1,0.2-1.3c0-0.5-0.1-0.8-0.3-1.1	c-0.2-0.2-0.5-0.4-1-0.4c-0.5,0-1.1,0.2-1.6,0.6c-0.5,0.4-1,0.9-1.4,1.7c-0.4,0.7-0.7,1.6-0.9,2.6l-1,4.6h-1.6l2.3-10.7h1.4l-0.2,2	h0.1c0.6-0.8,1.1-1.3,1.7-1.7c0.6-0.3,1.1-0.5,1.8-0.5c0.7,0,1.3,0.2,1.7,0.6c0.4,0.4,0.6,1,0.7,1.8h0.1c0.6-0.8,1.2-1.4,1.8-1.8	c0.6-0.4,1.3-0.6,1.9-0.6c0.8,0,1.5,0.2,1.9,0.7c0.4,0.4,0.7,1.1,0.7,1.9c0,0.4-0.1,1-0.2,1.7l-1.4,6.6h-1.7l1.5-6.8	c0.1-0.7,0.2-1.2,0.2-1.4c0-0.4-0.1-0.7-0.3-1c-0.2-0.2-0.6-0.4-1-0.4c-0.5,0-1.1,0.2-1.6,0.6s-1,0.9-1.4,1.6	c-0.4,0.7-0.7,1.5-0.9,2.5l-1,4.9H223.4z M239.4,103.4c-0.6,0-1.2-0.2-1.7-0.5c-0.5-0.3-0.8-0.8-1.1-1.4h-0.1l0,0.4	c0,0.2-0.1,0.4-0.1,0.7c0,0.3-0.4,2.1-1.1,5.4h-1.6l3.3-15.5h1.4l-0.2,2h0.1c1.2-1.5,2.4-2.2,3.6-2.2c0.9,0,1.6,0.3,2.1,1	c0.5,0.6,0.8,1.5,0.8,2.7c0,1.4-0.2,2.6-0.7,3.8c-0.4,1.1-1.1,2-1.9,2.7C241.3,103.1,240.4,103.4,239.4,103.4z M241.2,93.7	c-0.6,0-1.3,0.3-1.9,0.9c-0.6,0.6-1.2,1.4-1.5,2.3s-0.6,1.9-0.6,2.9c0,0.7,0.2,1.3,0.5,1.6c0.4,0.4,0.9,0.6,1.6,0.6	c0.6,0,1.2-0.3,1.8-0.8c0.6-0.5,1-1.3,1.3-2.2c0.3-1,0.5-2,0.5-3.1C242.9,94.4,242.3,93.7,241.2,93.7z M251.9,92.4	c1.2,0,2.2,0.4,2.9,1.1c0.7,0.7,1.1,1.7,1.1,3c0,1.2-0.2,2.4-0.7,3.5c-0.5,1.1-1.1,1.9-1.9,2.5s-1.7,0.9-2.7,0.9	c-1.2,0-2.2-0.4-3-1.1c-0.7-0.7-1.1-1.8-1.1-3c0-1.2,0.2-2.4,0.7-3.5c0.5-1.1,1.1-1.9,1.9-2.5C250,92.7,250.9,92.4,251.9,92.4z M254.2,96.3c0-0.8-0.2-1.4-0.6-1.8s-1-0.7-1.7-0.7c-0.7,0-1.3,0.2-1.9,0.7c-0.6,0.5-1,1.1-1.3,2c-0.3,0.9-0.5,1.8-0.5,2.9	c0,0.9,0.2,1.5,0.6,2c0.4,0.5,1,0.7,1.8,0.7c0.7,0,1.3-0.2,1.8-0.7c0.5-0.5,1-1.2,1.3-2S254.2,97.4,254.2,96.3z M263.9,103.2	l1.4-6.8c0.1-0.7,0.2-1.1,0.2-1.4c0-0.4-0.1-0.7-0.4-1c-0.2-0.2-0.6-0.4-1.1-0.4c-0.6,0-1.2,0.2-1.7,0.6c-0.6,0.4-1,0.9-1.5,1.7	s-0.7,1.6-1,2.6l-1,4.6h-1.6l2.3-10.7h1.4l-0.2,2h0.1c0.6-0.8,1.2-1.4,1.8-1.7c0.6-0.3,1.2-0.5,1.8-0.5c0.8,0,1.5,0.2,2,0.7	c0.5,0.4,0.7,1.1,0.7,1.9c0,0.5-0.1,1.1-0.2,1.8l-1.4,6.6H263.9z M273.2,103.4c-1.2,0-2.1-0.4-2.8-1.1c-0.7-0.7-1-1.7-1-3	c0-1.2,0.2-2.4,0.7-3.5c0.5-1.1,1.1-2,1.9-2.6s1.7-0.9,2.7-0.9c1,0,1.7,0.2,2.2,0.7c0.5,0.4,0.8,1,0.8,1.8c0,1.2-0.5,2.1-1.6,2.8	c-1.1,0.7-2.6,1-4.6,1H271l0,0.8c0,0.8,0.2,1.5,0.6,2c0.4,0.5,1,0.7,1.9,0.7c0.4,0,0.8-0.1,1.3-0.2c0.4-0.1,1-0.3,1.6-0.6v1.4	c-0.6,0.3-1.2,0.5-1.6,0.6C274.2,103.4,273.7,103.4,273.2,103.4z M274.5,93.7c-0.7,0-1.3,0.3-1.9,0.9c-0.6,0.6-1,1.5-1.3,2.5h0.1	c1.5,0,2.6-0.2,3.4-0.6c0.8-0.4,1.2-1,1.2-1.7c0-0.3-0.1-0.6-0.4-0.9C275.4,93.8,275,93.7,274.5,93.7z M285.3,103.2l1.4-6.8	c0.1-0.7,0.2-1.1,0.2-1.4c0-0.4-0.1-0.7-0.4-1c-0.2-0.2-0.6-0.4-1.1-0.4c-0.6,0-1.2,0.2-1.7,0.6c-0.6,0.4-1,0.9-1.5,1.7	c-0.4,0.7-0.7,1.6-1,2.6l-1,4.6h-1.6l2.3-10.7h1.4l-0.2,2h0.1c0.6-0.8,1.2-1.4,1.8-1.7c0.6-0.3,1.2-0.5,1.8-0.5c0.8,0,1.5,0.2,2,0.7	c0.5,0.4,0.7,1.1,0.7,1.9c0,0.5-0.1,1.1-0.2,1.8l-1.4,6.6H285.3z M293.6,102.1c0.4,0,0.8-0.1,1.4-0.2v1.2c-0.2,0.1-0.5,0.2-0.8,0.2	c-0.3,0.1-0.6,0.1-0.8,0.1c-0.8,0-1.4-0.2-1.9-0.6c-0.4-0.4-0.6-1-0.6-1.8c0-0.4,0.1-0.9,0.2-1.5l1.2-5.9h-1.7l0.1-0.7l1.8-0.8	l1.2-2.2h1l-0.5,2.5h2.7l-0.2,1.2H294l-1.3,5.9c-0.1,0.6-0.2,1-0.2,1.3c0,0.4,0.1,0.6,0.3,0.8C293,102,293.3,102.1,293.6,102.1z" class="st7"/><path d="M124.4,136.4h112.2v17.4H124.4V136.4z" class="st6"/><path d="M124.4,136.4h112.2v17.4H124.4V136.4z" class="st4"/><path d="M164.9,143.4c0,0.8-0.3,1.4-0.8,1.8c-0.5,0.4-1.3,0.6-2.2,0.6h-0.9v3H160v-7.6h2	C163.9,141.2,164.9,141.9,164.9,143.4z M160.9,145.1h0.8c0.8,0,1.4-0.1,1.7-0.4c0.4-0.3,0.5-0.7,0.5-1.2c0-0.5-0.2-0.9-0.5-1.1	c-0.3-0.2-0.8-0.4-1.5-0.4h-1V145.1z M168.9,143c0.2,0,0.5,0,0.7,0.1l-0.1,0.8c-0.2-0.1-0.4-0.1-0.6-0.1c-0.5,0-0.9,0.2-1.2,0.6	c-0.3,0.4-0.5,0.8-0.5,1.4v3.1h-0.9v-5.7h0.7l0.1,1.1h0c0.2-0.4,0.5-0.7,0.8-0.9C168.3,143.1,168.6,143,168.9,143z M175.6,145.9	c0,0.9-0.2,1.7-0.7,2.2c-0.5,0.5-1.1,0.8-2,0.8c-0.5,0-0.9-0.1-1.3-0.4c-0.4-0.2-0.7-0.6-0.9-1c-0.2-0.4-0.3-1-0.3-1.6	c0-0.9,0.2-1.7,0.7-2.2c0.5-0.5,1.1-0.8,1.9-0.8c0.8,0,1.4,0.3,1.9,0.8C175.4,144.3,175.6,145,175.6,145.9z M171.3,145.9	c0,0.7,0.1,1.3,0.4,1.7c0.3,0.4,0.7,0.6,1.3,0.6s1-0.2,1.3-0.6c0.3-0.4,0.4-0.9,0.4-1.7c0-0.7-0.1-1.3-0.4-1.6	c-0.3-0.4-0.7-0.6-1.3-0.6c-0.6,0-1,0.2-1.3,0.6C171.4,144.7,171.3,145.2,171.3,145.9z M178.4,148.8l-2.2-5.7h0.9l1.2,3.4	c0.3,0.8,0.4,1.3,0.5,1.5h0c0-0.2,0.1-0.6,0.3-1.1c0.2-0.6,0.7-1.8,1.4-3.8h0.9l-2.2,5.7H178.4z M183.3,148.8h-0.9v-5.7h0.9V148.8z M182.4,141.6c0-0.2,0-0.3,0.1-0.4c0.1-0.1,0.2-0.1,0.4-0.1c0.1,0,0.2,0,0.3,0.1c0.1,0.1,0.2,0.2,0.2,0.4c0,0.2-0.1,0.3-0.2,0.4	c-0.1,0.1-0.2,0.1-0.3,0.1c-0.1,0-0.3,0-0.4-0.1C182.4,141.9,182.4,141.8,182.4,141.6z M189,148L189,148c-0.4,0.6-1,0.9-1.8,0.9	c-0.7,0-1.3-0.3-1.7-0.8c-0.4-0.5-0.6-1.2-0.6-2.2c0-0.9,0.2-1.7,0.6-2.2c0.4-0.5,1-0.8,1.7-0.8c0.8,0,1.4,0.3,1.8,0.8h0.1l0-0.4	l0-0.4v-2.3h0.9v8.1h-0.7L189,148z M187.3,148.2c0.6,0,1-0.2,1.3-0.5c0.3-0.3,0.4-0.8,0.4-1.6V146c0-0.8-0.1-1.4-0.4-1.7	s-0.7-0.5-1.3-0.5c-0.5,0-0.9,0.2-1.2,0.6c-0.3,0.4-0.4,0.9-0.4,1.7c0,0.7,0.1,1.3,0.4,1.7C186.4,148,186.8,148.2,187.3,148.2z M194.1,148.9c-0.8,0-1.5-0.3-2-0.8c-0.5-0.5-0.7-1.2-0.7-2.1c0-0.9,0.2-1.7,0.7-2.2c0.5-0.5,1.1-0.8,1.8-0.8c0.7,0,1.3,0.2,1.7,0.7	c0.4,0.5,0.6,1.1,0.6,1.9v0.5h-3.9c0,0.7,0.2,1.2,0.5,1.5c0.3,0.3,0.8,0.5,1.4,0.5c0.6,0,1.2-0.1,1.8-0.4v0.8	c-0.3,0.1-0.6,0.2-0.9,0.3C194.8,148.9,194.5,148.9,194.1,148.9z M193.9,143.7c-0.5,0-0.8,0.2-1.1,0.5c-0.3,0.3-0.4,0.7-0.5,1.2h3	c0-0.6-0.1-1-0.4-1.2C194.7,143.9,194.3,143.7,193.9,143.7z M200.3,143c0.2,0,0.5,0,0.7,0.1l-0.1,0.8c-0.2-0.1-0.4-0.1-0.6-0.1	c-0.5,0-0.9,0.2-1.2,0.6c-0.3,0.4-0.5,0.8-0.5,1.4v3.1h-0.9v-5.7h0.7l0.1,1.1h0c0.2-0.4,0.5-0.7,0.8-0.9	C199.6,143.1,199.9,143,200.3,143z" class="st5"/><path d="M128.3,415.7h104.4v29.8H128.3V415.7z" class="st6"/><path d="M128.3,415.7h104.4v29.8H128.3V415.7z" class="st4"/><path d="M156,437.5l-1.7-4.2H149l-1.6,4.2h-1.6l5.3-13.4h1.3l5.2,13.4H156z M153.8,431.9l-1.5-4.1	c-0.2-0.5-0.4-1.2-0.6-1.9c-0.1,0.6-0.3,1.2-0.6,1.9l-1.6,4.1H153.8z M166,436.1L166,436.1c-0.8,1-1.8,1.5-3.2,1.5	c-1.3,0-2.3-0.4-3.1-1.3c-0.7-0.9-1.1-2.2-1.1-3.8c0-1.6,0.4-2.9,1.1-3.8c0.7-0.9,1.7-1.4,3-1.4c1.4,0,2.4,0.5,3.1,1.5h0.1l-0.1-0.7	l0-0.7v-4.1h1.5v14.2h-1.2L166,436.1z M163,436.4c1,0,1.8-0.3,2.2-0.8c0.5-0.6,0.7-1.5,0.7-2.7v-0.3c0-1.4-0.2-2.4-0.7-3	c-0.5-0.6-1.2-0.9-2.2-0.9c-0.9,0-1.6,0.3-2,1c-0.5,0.7-0.7,1.7-0.7,2.9c0,1.3,0.2,2.2,0.7,2.9C161.4,436.1,162.1,436.4,163,436.4z M176.8,437.5l-0.3-1.4h-0.1c-0.5,0.6-1,1.1-1.5,1.3c-0.5,0.2-1.1,0.3-1.8,0.3c-1,0-1.8-0.3-2.3-0.8c-0.6-0.5-0.8-1.2-0.8-2.2	c0-2,1.6-3.1,4.8-3.2l1.7,0v-0.6c0-0.8-0.2-1.4-0.5-1.7c-0.3-0.4-0.9-0.6-1.6-0.6c-0.8,0-1.8,0.3-2.8,0.8l-0.5-1.2	c0.5-0.3,1-0.5,1.6-0.6c0.6-0.2,1.2-0.2,1.8-0.2c1.2,0,2.1,0.3,2.6,0.8c0.6,0.5,0.9,1.4,0.9,2.5v6.8H176.8z M173.3,436.4	c0.9,0,1.7-0.3,2.2-0.8c0.5-0.5,0.8-1.2,0.8-2.2v-0.9l-1.5,0.1c-1.2,0-2.1,0.2-2.6,0.6c-0.5,0.3-0.8,0.8-0.8,1.5	c0,0.5,0.2,1,0.5,1.2C172.3,436.3,172.8,436.4,173.3,436.4z M185.6,437.7c-0.6,0-1.2-0.1-1.8-0.4c-0.5-0.2-1-0.6-1.4-1.1h-0.1	c0.1,0.6,0.1,1.1,0.1,1.7v4.1H181v-14.5h1.2l0.2,1.4h0.1c0.4-0.5,0.8-0.9,1.4-1.2c0.5-0.2,1.1-0.4,1.8-0.4c1.3,0,2.3,0.5,3.1,1.4	s1.1,2.2,1.1,3.8c0,1.6-0.4,2.9-1.1,3.8C188,437.2,186.9,437.7,185.6,437.7z M185.4,428.6c-1,0-1.8,0.3-2.2,0.8	c-0.4,0.6-0.7,1.5-0.7,2.7v0.3c0,1.4,0.2,2.4,0.7,3c0.5,0.6,1.2,0.9,2.2,0.9c0.9,0,1.5-0.3,2-1c0.5-0.7,0.7-1.7,0.7-2.9	c0-1.2-0.2-2.2-0.7-2.9C187,428.9,186.3,428.6,185.4,428.6z M195.7,436.4c0.3,0,0.5,0,0.8-0.1c0.2,0,0.4-0.1,0.6-0.1v1.2	c-0.2,0.1-0.4,0.2-0.7,0.2c-0.3,0.1-0.6,0.1-0.9,0.1c-1.9,0-2.9-1-2.9-3.1v-5.9h-1.4V428l1.4-0.6l0.6-2.1h0.9v2.3h2.9v1.2H194v5.9	c0,0.6,0.1,1.1,0.4,1.4C194.8,436.3,195.2,436.4,195.7,436.4z M203.2,437.7c-1.5,0-2.6-0.4-3.5-1.3c-0.9-0.9-1.3-2.2-1.3-3.8	c0-1.6,0.4-2.9,1.2-3.8c0.8-0.9,1.9-1.4,3.2-1.4c1.3,0,2.2,0.4,3,1.2c0.7,0.8,1.1,1.9,1.1,3.3v1H200c0,1.2,0.3,2.1,0.9,2.7	c0.6,0.6,1.4,0.9,2.4,0.9c1.1,0,2.1-0.2,3.2-0.7v1.3c-0.5,0.2-1,0.4-1.5,0.5C204.5,437.6,203.9,437.7,203.2,437.7z M202.8,428.6	c-0.8,0-1.4,0.3-1.9,0.8c-0.5,0.5-0.7,1.2-0.8,2.2h5.2c0-0.9-0.2-1.7-0.6-2.2C204.2,428.8,203.6,428.6,202.8,428.6z M214,427.3	c0.4,0,0.8,0,1.2,0.1l-0.2,1.4c-0.4-0.1-0.8-0.1-1.1-0.1c-0.8,0-1.5,0.3-2.1,1c-0.6,0.7-0.9,1.5-0.9,2.5v5.4h-1.5v-10h1.2l0.2,1.8	h0.1c0.4-0.6,0.8-1.1,1.3-1.5C212.8,427.5,213.4,427.3,214,427.3z" class="st5"/><path d="M180.6,389.6l-0.2,29.8" class="st1"/><path d="M180.6,389.6l-0.2,29.8" class="st8"/><path d="M128.3,419.3h104.4v29.8H128.3V419.3z" class="st6"/><path d="M128.3,419.3h104.4v29.8H128.3V419.3z" class="st4"/><path d="M160,439l-1.2-3H155l-1.2,3h-1.1l3.8-9.5h0.9l3.8,9.5H160z M158.5,435l-1.1-3c-0.1-0.4-0.3-0.8-0.5-1.4	c-0.1,0.4-0.2,0.9-0.4,1.4l-1.1,3H158.5z M167.2,438.1L167.2,438.1c-0.6,0.7-1.3,1.1-2.3,1.1c-0.9,0-1.7-0.3-2.2-1	c-0.5-0.6-0.8-1.5-0.8-2.7s0.3-2.1,0.8-2.7c0.5-0.7,1.2-1,2.2-1c1,0,1.7,0.4,2.2,1.1h0.1l0-0.5l0-0.5v-2.9h1.1V439h-0.9L167.2,438.1	z M165,438.2c0.7,0,1.3-0.2,1.6-0.6c0.3-0.4,0.5-1.1,0.5-1.9v-0.2c0-1-0.2-1.7-0.5-2.2c-0.3-0.4-0.9-0.7-1.6-0.7	c-0.6,0-1.1,0.2-1.5,0.8c-0.3,0.5-0.5,1.2-0.5,2.1c0,0.9,0.2,1.6,0.5,2.1C163.9,438,164.4,438.2,165,438.2z M174.9,439l-0.2-1h0	c-0.4,0.4-0.7,0.8-1.1,0.9c-0.4,0.2-0.8,0.2-1.3,0.2c-0.7,0-1.3-0.2-1.7-0.5c-0.4-0.4-0.6-0.9-0.6-1.5c0-1.4,1.2-2.2,3.5-2.3l1.2,0	v-0.4c0-0.6-0.1-1-0.4-1.2c-0.2-0.3-0.6-0.4-1.2-0.4c-0.6,0-1.3,0.2-2,0.5l-0.3-0.8c0.4-0.2,0.7-0.3,1.2-0.4	c0.4-0.1,0.8-0.2,1.3-0.2c0.9,0,1.5,0.2,1.9,0.6s0.6,1,0.6,1.8v4.9H174.9z M172.4,438.3c0.7,0,1.2-0.2,1.6-0.5	c0.4-0.4,0.6-0.9,0.6-1.5v-0.6l-1.1,0c-0.9,0-1.5,0.2-1.9,0.4c-0.4,0.2-0.6,0.6-0.6,1.1c0,0.4,0.1,0.7,0.3,0.9	C171.7,438.2,172,438.3,172.4,438.3z M181.2,439.1c-0.5,0-0.9-0.1-1.3-0.2c-0.4-0.2-0.7-0.4-1-0.8h-0.1c0.1,0.4,0.1,0.8,0.1,1.2v2.9	h-1.1v-10.3h0.9l0.1,1h0c0.3-0.4,0.6-0.7,1-0.8c0.4-0.2,0.8-0.3,1.3-0.3c0.9,0,1.7,0.3,2.2,1c0.5,0.6,0.8,1.6,0.8,2.7	c0,1.2-0.3,2.1-0.8,2.7C182.9,438.8,182.1,439.1,181.2,439.1z M181,432.7c-0.7,0-1.3,0.2-1.6,0.6c-0.3,0.4-0.5,1-0.5,1.9v0.2	c0,1,0.2,1.7,0.5,2.2c0.3,0.4,0.9,0.6,1.6,0.6c0.6,0,1.1-0.2,1.5-0.7c0.4-0.5,0.5-1.2,0.5-2.1c0-0.9-0.2-1.6-0.5-2	C182.2,432.9,181.7,432.7,181,432.7z M188.4,438.3c0.2,0,0.4,0,0.5,0c0.2,0,0.3-0.1,0.4-0.1v0.8c-0.1,0.1-0.3,0.1-0.5,0.1	c-0.2,0-0.4,0.1-0.6,0.1c-1.4,0-2.1-0.7-2.1-2.2v-4.2h-1v-0.5l1-0.5l0.5-1.5h0.6v1.7h2.1v0.8h-2.1v4.2c0,0.4,0.1,0.8,0.3,1	C187.7,438.1,188,438.3,188.4,438.3z M193.8,439.1c-1.1,0-1.9-0.3-2.5-1c-0.6-0.6-0.9-1.5-0.9-2.7c0-1.2,0.3-2.1,0.8-2.8	c0.6-0.7,1.3-1,2.3-1c0.9,0,1.6,0.3,2.1,0.9c0.5,0.6,0.8,1.4,0.8,2.3v0.7h-4.9c0,0.8,0.2,1.5,0.6,1.9c0.4,0.4,1,0.6,1.7,0.6	c0.8,0,1.5-0.2,2.3-0.5v1c-0.4,0.2-0.7,0.3-1.1,0.3C194.7,439.1,194.2,439.1,193.8,439.1z M193.5,432.7c-0.6,0-1,0.2-1.4,0.6	c-0.3,0.4-0.5,0.9-0.6,1.5h3.7c0-0.7-0.2-1.2-0.5-1.6C194.5,432.8,194,432.7,193.5,432.7z M201.5,431.8c0.3,0,0.6,0,0.8,0.1l-0.1,1	c-0.3-0.1-0.6-0.1-0.8-0.1c-0.6,0-1.1,0.2-1.5,0.7c-0.4,0.5-0.6,1.1-0.6,1.8v3.8h-1.1v-7.1h0.9l0.1,1.3h0.1c0.3-0.5,0.6-0.8,1-1.1	S201,431.8,201.5,431.8z M208.3,437.1c0,0.7-0.2,1.2-0.8,1.5c-0.5,0.4-1.2,0.5-2.1,0.5c-0.9,0-1.7-0.1-2.2-0.4v-1	c0.3,0.2,0.7,0.3,1.1,0.4c0.4,0.1,0.8,0.1,1.1,0.1c0.6,0,1-0.1,1.3-0.3s0.5-0.5,0.5-0.8c0-0.3-0.1-0.5-0.4-0.7s-0.7-0.4-1.4-0.7	c-0.7-0.2-1.1-0.5-1.4-0.6c-0.3-0.2-0.5-0.4-0.6-0.6c-0.1-0.2-0.2-0.5-0.2-0.8c0-0.6,0.2-1,0.7-1.4c0.5-0.3,1.1-0.5,2-0.5	c0.8,0,1.5,0.2,2.2,0.5l-0.4,0.9c-0.7-0.3-1.4-0.4-2-0.4c-0.5,0-0.9,0.1-1.2,0.2c-0.3,0.2-0.4,0.4-0.4,0.7c0,0.2,0,0.3,0.1,0.5	c0.1,0.1,0.3,0.3,0.5,0.4c0.2,0.1,0.6,0.3,1.2,0.5c0.9,0.3,1.4,0.6,1.7,0.9C208.1,436.2,208.3,436.6,208.3,437.1z" class="st5"/><path d="M128.3,372.4h104.4v29.8H128.3V372.4z" class="st6"/><path d="M128.3,372.4h104.4v29.8H128.3V372.4z" class="st4"/><path d="M148.1,390.8v-6.7h0.9v5.9h3.3v0.8H148.1z M152.9,388.3c0-0.9,0.2-1.6,0.8-2c0.4-0.4,0.9-0.5,1.5-0.5	c0.7,0,1.2,0.2,1.6,0.7c0.4,0.4,0.6,1,0.6,1.8c0,0.6-0.1,1.1-0.3,1.5c-0.2,0.4-0.5,0.6-0.8,0.8c-0.4,0.2-0.7,0.3-1.2,0.3	c-0.7,0-1.2-0.2-1.6-0.6C153.1,389.8,152.9,389.2,152.9,388.3z M153.8,388.3c0,0.6,0.1,1.1,0.4,1.4c0.3,0.3,0.6,0.5,1,0.5	c0.4,0,0.7-0.2,1-0.5c0.3-0.3,0.4-0.8,0.4-1.4c0-0.6-0.1-1-0.4-1.3c-0.3-0.3-0.6-0.5-1-0.5c-0.4,0-0.7,0.2-1,0.5	C153.9,387.3,153.8,387.7,153.8,388.3z M161.6,390.2c-0.3,0.3-0.6,0.4-0.9,0.5c-0.3,0.1-0.6,0.2-0.9,0.2c-0.5,0-0.9-0.1-1.2-0.4	c-0.3-0.3-0.4-0.6-0.4-1c0-0.2,0.1-0.4,0.2-0.6c0.1-0.2,0.2-0.4,0.4-0.5c0.2-0.1,0.4-0.2,0.6-0.3c0.2,0,0.4-0.1,0.7-0.1	c0.7-0.1,1.2-0.2,1.5-0.3c0-0.1,0-0.2,0-0.2c0-0.3-0.1-0.6-0.2-0.7c-0.2-0.2-0.5-0.3-0.9-0.3c-0.4,0-0.7,0.1-0.9,0.2	c-0.2,0.1-0.3,0.4-0.4,0.7l-0.8-0.1c0.1-0.3,0.2-0.6,0.4-0.8c0.2-0.2,0.4-0.4,0.7-0.5c0.3-0.1,0.7-0.2,1.1-0.2c0.4,0,0.8,0.1,1,0.2	c0.3,0.1,0.5,0.2,0.6,0.4c0.1,0.1,0.2,0.3,0.2,0.6c0,0.1,0,0.4,0,0.8v1.1c0,0.8,0,1.2,0,1.5c0,0.2,0.1,0.4,0.2,0.6h-0.9	C161.7,390.6,161.6,390.4,161.6,390.2z M161.5,388.3c-0.3,0.1-0.8,0.2-1.3,0.3c-0.3,0.1-0.6,0.1-0.7,0.2c-0.1,0.1-0.2,0.2-0.3,0.3	c-0.1,0.1-0.1,0.2-0.1,0.4c0,0.2,0.1,0.4,0.2,0.5c0.2,0.1,0.4,0.2,0.7,0.2c0.3,0,0.6-0.1,0.8-0.2c0.2-0.1,0.4-0.3,0.6-0.6	c0.1-0.2,0.1-0.4,0.1-0.8V388.3z M166.7,390.8v-0.6c-0.3,0.5-0.8,0.7-1.3,0.7c-0.4,0-0.7-0.1-1.1-0.3c-0.3-0.2-0.6-0.5-0.8-0.9	c-0.2-0.4-0.3-0.8-0.3-1.3c0-0.5,0.1-0.9,0.2-1.3c0.2-0.4,0.4-0.7,0.7-0.9c0.3-0.2,0.7-0.3,1.1-0.3c0.3,0,0.6,0.1,0.8,0.2	c0.2,0.1,0.4,0.3,0.6,0.5v-2.4h0.8v6.7H166.7z M164.1,388.4c0,0.6,0.1,1.1,0.4,1.4c0.3,0.3,0.6,0.5,0.9,0.5c0.4,0,0.7-0.1,0.9-0.4	c0.2-0.3,0.4-0.7,0.4-1.3c0-0.7-0.1-1.2-0.4-1.5c-0.2-0.3-0.6-0.5-0.9-0.5c-0.4,0-0.7,0.2-0.9,0.5	C164.3,387.2,164.1,387.7,164.1,388.4z M174.6,388.1v-0.8h2.8v2.5c-0.4,0.3-0.9,0.6-1.3,0.8c-0.5,0.2-0.9,0.3-1.4,0.2	c-0.7,0-1.3-0.1-1.8-0.4c-0.5-0.3-0.9-0.7-1.2-1.2c-0.3-0.5-0.4-1.1-0.4-1.8c0-0.6,0.1-1.2,0.4-1.8c0.3-0.6,0.7-1,1.2-1.2	c0.5-0.3,1.1-0.4,1.8-0.4c0.5,0,0.9,0.1,1.3,0.2c0.4,0.2,0.7,0.4,0.9,0.7c0.2,0.3,0.4,0.6,0.5,1.1l-0.8,0.2	c-0.1-0.3-0.2-0.6-0.4-0.8c-0.1-0.2-0.4-0.4-0.6-0.5c-0.3-0.1-0.6-0.2-0.9-0.2c-0.4,0-0.8,0.1-1,0.2c-0.3,0.1-0.5,0.3-0.7,0.5	c-0.2,0.2-0.3,0.4-0.4,0.7c-0.2,0.4-0.2,0.9-0.2,1.3c0,0.6,0.1,1.1,0.3,1.5c0.2,0.4,0.5,0.7,0.9,0.9c0.4,0.2,0.8,0.3,1.2,0.3	c0.4,0,0.8-0.1,1.1-0.2c0.4-0.1,0.6-0.3,0.8-0.5v-1.2H174.6z M181.9,389.2l0.8,0.1c-0.1,0.5-0.4,0.9-0.7,1.2	c-0.4,0.3-0.8,0.4-1.4,0.4c-0.7,0-1.3-0.2-1.7-0.7c-0.4-0.4-0.6-1-0.6-1.8c0-0.8,0.2-1.4,0.6-1.9c0.4-0.5,1-0.7,1.6-0.7	c0.7,0,1.2,0.2,1.6,0.7c0.4,0.4,0.6,1.1,0.6,1.9c0,0,0,0.1,0,0.2h-3.6c0,0.5,0.2,0.9,0.5,1.2c0.3,0.3,0.6,0.4,1,0.4	c0.3,0,0.6-0.1,0.8-0.2C181.7,389.8,181.8,389.6,181.9,389.2z M179.3,387.9h2.7c0-0.4-0.1-0.7-0.3-0.9c-0.3-0.3-0.6-0.5-1-0.5	c-0.4,0-0.7,0.1-1,0.4C179.4,387.1,179.3,387.5,179.3,387.9z M183.8,390.8v-4.8h0.8v0.7c0.4-0.5,0.9-0.8,1.5-0.8	c0.3,0,0.6,0.1,0.8,0.2c0.2,0.1,0.4,0.2,0.5,0.4c0.1,0.2,0.2,0.4,0.3,0.6c0,0.1,0,0.4,0,0.8v3h-0.8v-2.9c0-0.3,0-0.6-0.1-0.8	c-0.1-0.2-0.2-0.3-0.3-0.4c-0.2-0.1-0.3-0.2-0.6-0.2c-0.3,0-0.6,0.1-0.9,0.3c-0.2,0.2-0.4,0.6-0.4,1.3v2.6H183.8z M192.3,389.2	l0.8,0.1c-0.1,0.5-0.4,0.9-0.7,1.2c-0.4,0.3-0.8,0.4-1.4,0.4c-0.7,0-1.3-0.2-1.7-0.7c-0.4-0.4-0.6-1-0.6-1.8c0-0.8,0.2-1.4,0.6-1.9	c0.4-0.5,1-0.7,1.6-0.7c0.7,0,1.2,0.2,1.6,0.7c0.4,0.4,0.6,1.1,0.6,1.9c0,0,0,0.1,0,0.2h-3.6c0,0.5,0.2,0.9,0.5,1.2	c0.3,0.3,0.6,0.4,1,0.4c0.3,0,0.6-0.1,0.8-0.2C192,389.8,192.2,389.6,192.3,389.2z M189.6,387.9h2.7c0-0.4-0.1-0.7-0.3-0.9	c-0.3-0.3-0.6-0.5-1-0.5c-0.4,0-0.7,0.1-1,0.4C189.8,387.1,189.7,387.5,189.6,387.9z M194.2,390.8v-4.8h0.7v0.7	c0.2-0.3,0.4-0.6,0.5-0.7c0.2-0.1,0.3-0.2,0.5-0.2c0.3,0,0.6,0.1,0.8,0.3l-0.3,0.8c-0.2-0.1-0.4-0.2-0.6-0.2c-0.2,0-0.3,0.1-0.5,0.2	c-0.1,0.1-0.2,0.3-0.3,0.5c-0.1,0.3-0.1,0.6-0.1,1v2.5H194.2z M200.5,390.2c-0.3,0.3-0.6,0.4-0.9,0.5c-0.3,0.1-0.6,0.2-0.9,0.2	c-0.5,0-0.9-0.1-1.2-0.4c-0.3-0.3-0.4-0.6-0.4-1c0-0.2,0.1-0.4,0.2-0.6c0.1-0.2,0.2-0.4,0.4-0.5c0.2-0.1,0.4-0.2,0.6-0.3	c0.2,0,0.4-0.1,0.7-0.1c0.7-0.1,1.2-0.2,1.5-0.3c0-0.1,0-0.2,0-0.2c0-0.3-0.1-0.6-0.2-0.7c-0.2-0.2-0.5-0.3-0.9-0.3	c-0.4,0-0.7,0.1-0.9,0.2c-0.2,0.1-0.3,0.4-0.4,0.7l-0.8-0.1c0.1-0.3,0.2-0.6,0.4-0.8c0.2-0.2,0.4-0.4,0.7-0.5	c0.3-0.1,0.7-0.2,1.1-0.2c0.4,0,0.8,0.1,1,0.2c0.3,0.1,0.5,0.2,0.6,0.4c0.1,0.1,0.2,0.3,0.2,0.6c0,0.1,0,0.4,0,0.8v1.1	c0,0.8,0,1.2,0,1.5c0,0.2,0.1,0.4,0.2,0.6h-0.9C200.5,390.6,200.5,390.4,200.5,390.2z M200.4,388.3c-0.3,0.1-0.8,0.2-1.3,0.3	c-0.3,0.1-0.6,0.1-0.7,0.2c-0.1,0.1-0.2,0.2-0.3,0.3c-0.1,0.1-0.1,0.2-0.1,0.4c0,0.2,0.1,0.4,0.2,0.5c0.2,0.1,0.4,0.2,0.7,0.2	c0.3,0,0.6-0.1,0.8-0.2c0.2-0.1,0.4-0.3,0.6-0.6c0.1-0.2,0.1-0.4,0.1-0.8V388.3z M204.3,390l0.1,0.7c-0.2,0.1-0.4,0.1-0.6,0.1	c-0.3,0-0.5,0-0.7-0.1c-0.2-0.1-0.3-0.2-0.3-0.4c-0.1-0.2-0.1-0.5-0.1-1v-2.8H202v-0.6h0.6v-1.2l0.8-0.5v1.7h0.8v0.6h-0.8v2.8	c0,0.2,0,0.4,0,0.5c0,0.1,0.1,0.1,0.1,0.2c0.1,0,0.2,0,0.3,0C204,390.1,204.1,390,204.3,390z M204.8,388.3c0-0.9,0.2-1.6,0.8-2	c0.4-0.4,0.9-0.5,1.5-0.5c0.7,0,1.2,0.2,1.6,0.7c0.4,0.4,0.6,1,0.6,1.8c0,0.6-0.1,1.1-0.3,1.5c-0.2,0.4-0.5,0.6-0.8,0.8	c-0.4,0.2-0.7,0.3-1.2,0.3c-0.7,0-1.2-0.2-1.6-0.6C205,389.8,204.8,389.2,204.8,388.3z M205.6,388.3c0,0.6,0.1,1.1,0.4,1.4	c0.3,0.3,0.6,0.5,1,0.5c0.4,0,0.7-0.2,1-0.5c0.3-0.3,0.4-0.8,0.4-1.4c0-0.6-0.1-1-0.4-1.3c-0.3-0.3-0.6-0.5-1-0.5	c-0.4,0-0.7,0.2-1,0.5C205.8,387.3,205.6,387.7,205.6,388.3z M210.3,390.8v-4.8h0.7v0.7c0.2-0.3,0.4-0.6,0.5-0.7	c0.2-0.1,0.3-0.2,0.5-0.2c0.3,0,0.6,0.1,0.8,0.3l-0.3,0.8c-0.2-0.1-0.4-0.2-0.6-0.2c-0.2,0-0.3,0.1-0.5,0.2	c-0.1,0.1-0.2,0.3-0.3,0.5c-0.1,0.3-0.1,0.6-0.1,1v2.5H210.3z" class="st5"/><path d="M128.3,375.3h104.4v29.8H128.3V375.3z" class="st6"/><path d="M128.3,375.3h104.4v29.8H128.3V375.3z" class="st4"/><path d="M144.7,391.1v-6.7h0.8v6h2.9v0.7H144.7z M153.7,388.6c0,0.8-0.2,1.4-0.6,1.9c-0.4,0.5-1,0.7-1.7,0.7	c-0.4,0-0.8-0.1-1.2-0.3s-0.6-0.5-0.8-0.9s-0.3-0.9-0.3-1.4c0-0.8,0.2-1.4,0.6-1.9c0.4-0.5,1-0.7,1.7-0.7c0.7,0,1.2,0.2,1.7,0.7	C153.5,387.2,153.7,387.9,153.7,388.6z M149.9,388.6c0,0.6,0.1,1.1,0.4,1.5c0.3,0.3,0.6,0.5,1.1,0.5c0.5,0,0.9-0.2,1.1-0.5	c0.3-0.3,0.4-0.8,0.4-1.5s-0.1-1.1-0.4-1.4c-0.2-0.3-0.6-0.5-1.1-0.5s-0.9,0.2-1.1,0.5S149.9,388,149.9,388.6z M158.1,391.1	l-0.2-0.7h0c-0.2,0.3-0.5,0.5-0.8,0.6c-0.2,0.1-0.6,0.2-0.9,0.2c-0.5,0-0.9-0.1-1.2-0.4c-0.3-0.3-0.4-0.6-0.4-1.1	c0-1,0.8-1.5,2.4-1.6l0.8,0v-0.3c0-0.4-0.1-0.7-0.2-0.9c-0.2-0.2-0.4-0.3-0.8-0.3c-0.4,0-0.9,0.1-1.4,0.4l-0.2-0.6	c0.2-0.1,0.5-0.2,0.8-0.3c0.3-0.1,0.6-0.1,0.9-0.1c0.6,0,1,0.1,1.3,0.4c0.3,0.3,0.4,0.7,0.4,1.3v3.4H158.1z M156.4,390.6	c0.5,0,0.8-0.1,1.1-0.4c0.3-0.3,0.4-0.6,0.4-1.1v-0.5l-0.8,0c-0.6,0-1,0.1-1.3,0.3c-0.3,0.2-0.4,0.4-0.4,0.8c0,0.3,0.1,0.5,0.2,0.6	C155.9,390.5,156.1,390.6,156.4,390.6z M163.6,390.5L163.6,390.5c-0.4,0.5-0.9,0.8-1.6,0.8c-0.7,0-1.2-0.2-1.5-0.7	c-0.4-0.4-0.5-1.1-0.5-1.9s0.2-1.5,0.5-1.9c0.4-0.5,0.9-0.7,1.5-0.7c0.7,0,1.2,0.2,1.6,0.7h0l0-0.4l0-0.4v-2h0.8v7.1h-0.6	L163.6,390.5z M162.1,390.6c0.5,0,0.9-0.1,1.1-0.4c0.2-0.3,0.3-0.7,0.3-1.4v-0.2c0-0.7-0.1-1.2-0.4-1.5c-0.2-0.3-0.6-0.5-1.1-0.5	c-0.4,0-0.8,0.2-1,0.5c-0.2,0.3-0.3,0.8-0.3,1.5s0.1,1.1,0.3,1.4C161.3,390.4,161.7,390.6,162.1,390.6z M171.4,387.7h2.3v3.2	c-0.4,0.1-0.7,0.2-1.1,0.2c-0.4,0.1-0.8,0.1-1.3,0.1c-1,0-1.8-0.3-2.4-0.9c-0.6-0.6-0.8-1.4-0.8-2.5c0-0.7,0.1-1.3,0.4-1.8	s0.7-0.9,1.2-1.2c0.5-0.3,1.1-0.4,1.8-0.4c0.7,0,1.4,0.1,2,0.4l-0.3,0.7c-0.6-0.2-1.2-0.4-1.7-0.4c-0.8,0-1.4,0.2-1.9,0.7	c-0.4,0.5-0.7,1.1-0.7,2c0,0.9,0.2,1.6,0.7,2c0.4,0.5,1.1,0.7,1.9,0.7c0.5,0,0.9-0.1,1.3-0.2v-2h-1.5V387.7z M177.3,391.2	c-0.7,0-1.3-0.2-1.8-0.7c-0.4-0.4-0.6-1.1-0.6-1.9s0.2-1.4,0.6-1.9c0.4-0.5,0.9-0.7,1.6-0.7c0.6,0,1.1,0.2,1.5,0.6	c0.4,0.4,0.5,0.9,0.5,1.6v0.5h-3.4c0,0.6,0.2,1,0.4,1.3c0.3,0.3,0.7,0.5,1.2,0.5c0.5,0,1.1-0.1,1.6-0.3v0.7	c-0.3,0.1-0.5,0.2-0.8,0.2C177.9,391.2,177.6,391.2,177.3,391.2z M177.1,386.7c-0.4,0-0.7,0.1-1,0.4s-0.4,0.6-0.4,1.1h2.6	c0-0.5-0.1-0.8-0.3-1.1C177.8,386.8,177.5,386.7,177.1,386.7z M183.8,391.1v-3.2c0-0.4-0.1-0.7-0.3-0.9s-0.5-0.3-0.9-0.3	c-0.5,0-0.9,0.1-1.1,0.4c-0.2,0.3-0.4,0.7-0.4,1.4v2.6h-0.8v-5h0.6l0.1,0.7h0c0.2-0.2,0.4-0.4,0.6-0.6c0.3-0.1,0.6-0.2,0.9-0.2	c0.6,0,1.1,0.1,1.4,0.4c0.3,0.3,0.5,0.7,0.5,1.4v3.2H183.8z M188.2,391.2c-0.7,0-1.3-0.2-1.8-0.7c-0.4-0.4-0.6-1.1-0.6-1.9	s0.2-1.4,0.6-1.9c0.4-0.5,0.9-0.7,1.6-0.7c0.6,0,1.1,0.2,1.5,0.6c0.4,0.4,0.5,0.9,0.5,1.6v0.5h-3.4c0,0.6,0.2,1,0.4,1.3	c0.3,0.3,0.7,0.5,1.2,0.5c0.5,0,1.1-0.1,1.6-0.3v0.7c-0.3,0.1-0.5,0.2-0.8,0.2C188.9,391.2,188.6,391.2,188.2,391.2z M188,386.7	c-0.4,0-0.7,0.1-1,0.4s-0.4,0.6-0.4,1.1h2.6c0-0.5-0.1-0.8-0.3-1.1C188.7,386.8,188.4,386.7,188,386.7z M193.6,386.1	c0.2,0,0.4,0,0.6,0l-0.1,0.7c-0.2,0-0.4-0.1-0.5-0.1c-0.4,0-0.8,0.2-1,0.5c-0.3,0.3-0.4,0.7-0.4,1.2v2.7h-0.8v-5h0.6l0.1,0.9h0	c0.2-0.3,0.4-0.6,0.7-0.8C193,386.2,193.3,386.1,193.6,386.1z M198.2,391.1l-0.2-0.7h0c-0.2,0.3-0.5,0.5-0.8,0.6	c-0.2,0.1-0.6,0.2-0.9,0.2c-0.5,0-0.9-0.1-1.2-0.4c-0.3-0.3-0.4-0.6-0.4-1.1c0-1,0.8-1.5,2.4-1.6l0.8,0v-0.3c0-0.4-0.1-0.7-0.2-0.9	s-0.4-0.3-0.8-0.3c-0.4,0-0.9,0.1-1.4,0.4l-0.2-0.6c0.2-0.1,0.5-0.2,0.8-0.3c0.3-0.1,0.6-0.1,0.9-0.1c0.6,0,1,0.1,1.3,0.4	c0.3,0.3,0.4,0.7,0.4,1.3v3.4H198.2z M196.5,390.6c0.5,0,0.8-0.1,1.1-0.4c0.3-0.3,0.4-0.6,0.4-1.1v-0.5l-0.8,0c-0.6,0-1,0.1-1.3,0.3	c-0.3,0.2-0.4,0.4-0.4,0.8c0,0.3,0.1,0.5,0.2,0.6S196.2,390.6,196.5,390.6z M202,390.6c0.1,0,0.3,0,0.4,0s0.2,0,0.3-0.1v0.6	c-0.1,0-0.2,0.1-0.4,0.1c-0.2,0-0.3,0-0.4,0c-1,0-1.5-0.5-1.5-1.5v-3h-0.7v-0.4l0.7-0.3l0.3-1.1h0.4v1.2h1.5v0.6h-1.5v2.9	c0,0.3,0.1,0.5,0.2,0.7C201.5,390.5,201.7,390.6,202,390.6z M208,388.6c0,0.8-0.2,1.4-0.6,1.9c-0.4,0.5-1,0.7-1.7,0.7	c-0.4,0-0.8-0.1-1.2-0.3s-0.6-0.5-0.8-0.9s-0.3-0.9-0.3-1.4c0-0.8,0.2-1.4,0.6-1.9c0.4-0.5,1-0.7,1.7-0.7c0.7,0,1.2,0.2,1.7,0.7	C207.7,387.2,208,387.9,208,388.6z M204.2,388.6c0,0.6,0.1,1.1,0.4,1.5c0.3,0.3,0.6,0.5,1.1,0.5c0.5,0,0.9-0.2,1.1-0.5	c0.3-0.3,0.4-0.8,0.4-1.5s-0.1-1.1-0.4-1.4c-0.2-0.3-0.6-0.5-1.1-0.5s-0.9,0.2-1.1,0.5S204.2,388,204.2,388.6z M211.6,386.1	c0.2,0,0.4,0,0.6,0l-0.1,0.7c-0.2,0-0.4-0.1-0.5-0.1c-0.4,0-0.8,0.2-1,0.5c-0.3,0.3-0.4,0.7-0.4,1.2v2.7h-0.8v-5h0.6l0.1,0.9h0	c0.2-0.3,0.4-0.6,0.7-0.8C211,386.2,211.2,386.1,211.6,386.1z M216.3,389.8c0,0.5-0.2,0.8-0.5,1.1c-0.3,0.2-0.8,0.4-1.5,0.4	c-0.7,0-1.2-0.1-1.5-0.3v-0.7c0.2,0.1,0.5,0.2,0.8,0.3c0.3,0.1,0.5,0.1,0.8,0.1c0.4,0,0.7-0.1,0.9-0.2c0.2-0.1,0.3-0.3,0.3-0.6	c0-0.2-0.1-0.4-0.3-0.5c-0.2-0.1-0.5-0.3-1-0.5c-0.5-0.2-0.8-0.3-1-0.5c-0.2-0.1-0.3-0.3-0.4-0.4c-0.1-0.2-0.1-0.4-0.1-0.6	c0-0.4,0.2-0.7,0.5-1c0.3-0.2,0.8-0.4,1.4-0.4c0.5,0,1.1,0.1,1.6,0.3l-0.3,0.6c-0.5-0.2-1-0.3-1.4-0.3c-0.4,0-0.6,0.1-0.8,0.2	c-0.2,0.1-0.3,0.3-0.3,0.5c0,0.1,0,0.2,0.1,0.3c0.1,0.1,0.2,0.2,0.3,0.3c0.2,0.1,0.5,0.2,0.9,0.4c0.6,0.2,1,0.4,1.2,0.7	C216.2,389.2,216.3,389.5,216.3,389.8z" class="st5"/><path d="M123.2,229.8h114.6v17.4H123.2V229.8z" class="st4"/><g><path d="M191.4,228.3l37-53.4l14.8,10.3l-37,53.4L191.4,228.3z" class="st9"/><g><path d="M207.3,224.4L207.3,224.4c0.1,0.4,0.1,0.9-0.2,1.3c-0.3,0.4-0.6,0.6-1,0.6c-0.4,0-0.9-0.1-1.3-0.5 c-0.5-0.3-0.8-0.7-0.9-1.1s0-0.8,0.2-1.2c0.3-0.4,0.6-0.6,1.1-0.6l0,0l-0.2-0.1l-0.2-0.1l-1.2-0.8l0.3-0.4l4.2,2.9l-0.2,0.4 L207.3,224.4z M206.8,225.4c0.2-0.3,0.3-0.6,0.2-0.8c-0.1-0.2-0.3-0.5-0.7-0.8l-0.1-0.1c-0.4-0.3-0.8-0.4-1-0.4 c-0.3,0-0.5,0.2-0.7,0.5c-0.2,0.3-0.2,0.5-0.1,0.8c0.1,0.3,0.3,0.5,0.7,0.8c0.4,0.3,0.7,0.4,1,0.4 C206.4,225.8,206.6,225.6,206.8,225.4z M208.9,219.8c0.5,0.3,0.8,0.7,0.9,1.1c0.1,0.4,0,0.8-0.3,1.3c-0.2,0.3-0.4,0.5-0.7,0.6 c-0.3,0.1-0.5,0.1-0.8,0.1c-0.3,0-0.6-0.2-0.9-0.4c-0.5-0.3-0.8-0.7-0.9-1.1c-0.1-0.4,0-0.8,0.3-1.3c0.3-0.4,0.6-0.6,1.1-0.7 S208.5,219.5,208.9,219.8z M207.4,222c0.4,0.3,0.7,0.4,1,0.4c0.3,0,0.6-0.2,0.8-0.5c0.2-0.3,0.3-0.6,0.2-0.9 c-0.1-0.3-0.3-0.6-0.7-0.8s-0.7-0.4-1-0.4c-0.3,0-0.6,0.2-0.8,0.5c-0.2,0.3-0.3,0.6-0.2,0.9C206.8,221.5,207,221.8,207.4,222z M211.8,218.9c-0.3,0.4-0.7,0.7-1.1,0.7c-0.4,0-0.9-0.1-1.4-0.4c-0.5-0.3-0.8-0.7-0.9-1.1c-0.1-0.4,0-0.9,0.3-1.3 c0.1-0.1,0.2-0.3,0.3-0.4c0.1-0.1,0.2-0.2,0.3-0.3l0.3,0.4c-0.1,0.1-0.2,0.1-0.3,0.2c-0.1,0.1-0.2,0.2-0.3,0.3 c-0.4,0.6-0.2,1.2,0.5,1.7c0.4,0.2,0.7,0.4,1,0.4c0.3,0,0.5-0.2,0.7-0.4c0.2-0.2,0.3-0.5,0.4-0.9l0.4,0.3 C212.1,218.3,212,218.6,211.8,218.9z M211.6,215.9c0-0.1-0.1-0.4-0.2-0.6l-0.3-1.6l0.4-0.5l0.4,2.1l2.6-0.1l-0.4,0.5l-2.1,0.1 l0.1,0.5l1.1,0.8l-0.3,0.4l-4.2-2.9l0.3-0.4l2.2,1.5C211.2,215.7,211.3,215.8,211.6,215.9L211.6,215.9z M215.6,213.4 c-0.3,0.4-0.7,0.7-1.1,0.8c-0.4,0.1-0.9-0.1-1.4-0.4c-0.5-0.3-0.8-0.7-0.9-1.1c-0.1-0.4,0-0.8,0.2-1.2c0.3-0.4,0.6-0.6,1-0.6 c0.4,0,0.8,0.1,1.2,0.3l0.3,0.2l-1.4,2c0.3,0.2,0.7,0.3,1,0.3c0.3,0,0.5-0.2,0.8-0.5c0.2-0.3,0.4-0.7,0.5-1.1l0.4,0.3 c0,0.2-0.1,0.4-0.2,0.5C215.9,213,215.8,213.2,215.6,213.4z M212.9,211.6c-0.2,0.2-0.2,0.5-0.2,0.7c0.1,0.2,0.2,0.5,0.5,0.7 l1.1-1.5c-0.3-0.2-0.5-0.3-0.8-0.2C213.3,211.3,213.1,211.4,212.9,211.6z M214.8,208.1c0.1-0.1,0.2-0.2,0.3-0.3l0.4,0.3 c-0.1,0.1-0.2,0.2-0.3,0.3c-0.2,0.2-0.2,0.5-0.1,0.8c0.1,0.3,0.3,0.5,0.5,0.7l1.6,1.1l-0.3,0.4l-2.9-2l0.2-0.4l0.6,0.3l0,0 c-0.1-0.2-0.2-0.5-0.2-0.7C214.6,208.5,214.7,208.3,214.8,208.1z M217,208.6l-0.4-0.3l0.9-1.3l0.4,0.3L217,208.6z M220.5,206.4 c-0.3,0.4-0.7,0.7-1.1,0.7c-0.4,0-0.9-0.1-1.4-0.4c-0.5-0.3-0.8-0.7-0.9-1.1c-0.1-0.4,0-0.9,0.3-1.3c0.1-0.1,0.2-0.3,0.3-0.4 c0.1-0.1,0.2-0.2,0.3-0.3l0.3,0.4c-0.1,0.1-0.2,0.1-0.3,0.2c-0.1,0.1-0.2,0.2-0.3,0.3c-0.4,0.6-0.2,1.2,0.5,1.7 c0.4,0.2,0.7,0.4,1,0.4c0.3,0,0.5-0.2,0.7-0.4c0.2-0.2,0.3-0.5,0.4-0.9l0.4,0.3C220.8,205.8,220.7,206.1,220.5,206.4z M221.7,201.4c0.5,0.3,0.8,0.7,0.9,1.1s0,0.8-0.3,1.3c-0.2,0.3-0.4,0.5-0.7,0.6c-0.3,0.1-0.5,0.1-0.8,0.1c-0.3,0-0.6-0.2-0.9-0.4 c-0.5-0.3-0.8-0.7-0.9-1.1s0-0.8,0.3-1.3c0.3-0.4,0.6-0.6,1.1-0.7S221.3,201,221.7,201.4z M220.2,203.6c0.4,0.3,0.7,0.4,1,0.4 c0.3,0,0.6-0.2,0.8-0.5c0.2-0.3,0.3-0.6,0.2-0.9c-0.1-0.3-0.3-0.6-0.7-0.8c-0.4-0.3-0.7-0.4-1-0.4c-0.3,0-0.6,0.2-0.8,0.5 c-0.2,0.3-0.3,0.6-0.2,0.9C219.6,203,219.8,203.3,220.2,203.6z M226.3,197.9l-1.9-1.3c-0.2-0.2-0.5-0.2-0.6-0.2 c-0.2,0-0.4,0.1-0.5,0.3c-0.2,0.3-0.3,0.5-0.2,0.8c0.1,0.2,0.3,0.5,0.6,0.7l1.6,1.1l-0.3,0.4l-1.9-1.3c-0.2-0.2-0.5-0.2-0.6-0.2 c-0.2,0-0.4,0.1-0.5,0.3c-0.2,0.3-0.3,0.5-0.2,0.8c0.1,0.2,0.3,0.5,0.7,0.8l1.5,1.1l-0.3,0.4l-2.9-2l0.2-0.4l0.4,0.2l0,0 c-0.1-0.2-0.1-0.4-0.1-0.6c0-0.2,0.1-0.4,0.2-0.6c0.3-0.5,0.7-0.6,1.1-0.6l0,0c-0.1-0.2-0.1-0.4-0.1-0.6c0-0.2,0.1-0.5,0.3-0.7 c0.2-0.3,0.5-0.5,0.8-0.6c0.3-0.1,0.6,0,1,0.3l1.9,1.3L226.3,197.9z M228.3,195.2c-0.1,0.2-0.3,0.3-0.5,0.5s-0.4,0.2-0.6,0.2l0,0 c0.2,0.1,0.4,0.2,0.5,0.3l1.2,0.8l-0.3,0.4l-4.2-2.9l0.2-0.4l0.4,0.2l0,0c-0.1-0.2-0.1-0.4-0.1-0.6c0-0.2,0.1-0.4,0.2-0.6 c0.3-0.4,0.6-0.6,1-0.6c0.4,0,0.9,0.1,1.3,0.5c0.5,0.3,0.8,0.7,0.9,1.1S228.5,194.8,228.3,195.2z M225.5,193.4 c-0.2,0.3-0.3,0.6-0.2,0.8c0.1,0.2,0.3,0.5,0.6,0.7l0.1,0.1c0.4,0.3,0.8,0.4,1,0.4c0.3,0,0.5-0.2,0.7-0.5c0.2-0.2,0.2-0.5,0.1-0.8 c-0.1-0.3-0.3-0.6-0.7-0.8c-0.4-0.2-0.7-0.4-1-0.4C226,193,225.7,193.1,225.5,193.4z M229.9,189.6c0.5,0.3,0.8,0.7,0.9,1.1 c0.1,0.4,0,0.8-0.3,1.3c-0.2,0.3-0.4,0.5-0.7,0.6c-0.3,0.1-0.5,0.1-0.8,0.1c-0.3,0-0.6-0.2-0.9-0.4c-0.5-0.3-0.8-0.7-0.9-1.1 c-0.1-0.4,0-0.8,0.3-1.3c0.3-0.4,0.6-0.6,1.1-0.7S229.4,189.3,229.9,189.6z M228.3,191.8c0.4,0.3,0.7,0.4,1,0.4 c0.3,0,0.6-0.2,0.8-0.5c0.2-0.3,0.3-0.6,0.2-0.9c-0.1-0.3-0.3-0.6-0.7-0.8c-0.4-0.3-0.7-0.4-1-0.4c-0.3,0-0.6,0.2-0.8,0.5 c-0.2,0.3-0.3,0.6-0.2,0.9C227.7,191.3,227.9,191.6,228.3,191.8z M232.4,187.4c0.3,0.2,0.4,0.4,0.4,0.7c0,0.3-0.1,0.6-0.4,1 c-0.3,0.4-0.5,0.6-0.8,0.8l-0.4-0.3c0.2-0.1,0.3-0.2,0.5-0.3s0.3-0.3,0.4-0.4c0.2-0.2,0.2-0.4,0.2-0.6c0-0.2-0.1-0.3-0.2-0.4 c-0.1-0.1-0.3-0.1-0.4-0.1c-0.2,0-0.4,0.2-0.7,0.4c-0.3,0.2-0.5,0.3-0.7,0.4c-0.2,0.1-0.3,0.1-0.4,0.1c-0.1,0-0.3-0.1-0.4-0.2 c-0.2-0.2-0.4-0.4-0.4-0.7c0-0.3,0.1-0.6,0.4-1c0.2-0.3,0.5-0.6,0.8-0.8l0.3,0.4c-0.3,0.2-0.6,0.4-0.7,0.7 c-0.1,0.2-0.2,0.4-0.2,0.5c0,0.1,0,0.3,0.2,0.3c0.1,0.1,0.2,0.1,0.2,0.1c0.1,0,0.2,0,0.3-0.1c0.1-0.1,0.3-0.2,0.6-0.4 c0.4-0.3,0.7-0.4,0.9-0.4C232,187.2,232.2,187.3,232.4,187.4z M234.6,186c-0.3,0.4-0.7,0.7-1.1,0.8c-0.4,0.1-0.9-0.1-1.4-0.4 c-0.5-0.3-0.8-0.7-0.9-1.1c-0.1-0.4,0-0.8,0.2-1.2c0.3-0.4,0.6-0.6,1-0.6c0.4,0,0.8,0.1,1.2,0.3l0.3,0.2l-1.4,2 c0.3,0.2,0.7,0.3,1,0.3s0.5-0.2,0.8-0.5c0.2-0.3,0.4-0.7,0.5-1.1l0.4,0.3c0,0.2-0.1,0.4-0.2,0.5 C234.8,185.6,234.7,185.8,234.6,186z M231.8,184.3c-0.2,0.2-0.2,0.5-0.2,0.7c0.1,0.2,0.2,0.5,0.5,0.7l1.1-1.5 c-0.3-0.2-0.5-0.3-0.8-0.2C232.2,183.9,232,184.1,231.8,184.3z" class="st5"/><path d="M167.3,228.3l37-53.4l14.8,10.3l-37,53.4L167.3,228.3z" class="st9"/><path d="M189.2,216.7l-0.4,0.5l-2.9,0.1l0.1,0.7l1.5,1.1l-0.3,0.4l-3.9-2.7l0.3-0.4l1.9,1.3l-0.7-3.1l0.4-0.5l0.6,2.7 L189.2,216.7z M186.3,212.4c0.2-0.4,0.5-0.6,0.8-0.7c0.3-0.1,0.6-0.1,0.9,0.2c0.2,0.1,0.3,0.3,0.4,0.6c0.1,0.2,0.1,0.5,0,0.9 c0.4-0.2,0.7-0.3,1-0.3c0.3,0,0.5,0,0.7,0.2c0.3,0.2,0.5,0.5,0.5,0.9c0,0.4-0.1,0.7-0.4,1.1c-0.3,0.4-0.6,0.7-0.9,0.8 c-0.3,0.1-0.7,0-1-0.2c-0.4-0.3-0.6-0.8-0.5-1.5c-0.3,0.1-0.6,0.2-0.8,0.2c-0.2,0-0.4-0.1-0.6-0.2c-0.3-0.2-0.4-0.5-0.5-0.8 C185.9,213.1,186,212.8,186.3,212.4z M188.7,215.3c0.2,0.1,0.4,0.2,0.7,0.1s0.4-0.2,0.6-0.5c0.2-0.3,0.3-0.5,0.2-0.7 c0-0.2-0.1-0.4-0.4-0.6c-0.2-0.1-0.4-0.2-0.6-0.1c-0.2,0-0.5,0.2-0.9,0.4c-0.1,0.3-0.1,0.6,0,0.8 C188.4,215,188.5,215.2,188.7,215.3z M186.6,212.7c-0.2,0.2-0.2,0.4-0.2,0.6c0,0.2,0.1,0.3,0.3,0.5c0.2,0.1,0.4,0.2,0.5,0.1 c0.2,0,0.4-0.1,0.7-0.3c0.1-0.3,0.1-0.6,0-0.8c0-0.2-0.1-0.4-0.3-0.5c-0.2-0.1-0.4-0.2-0.6-0.1C187,212.3,186.8,212.5,186.6,212.7 z M192.2,210.7c0.3,0.2,0.4,0.4,0.4,0.7c0,0.3-0.1,0.6-0.4,1c-0.3,0.4-0.5,0.6-0.8,0.8l-0.4-0.3c0.2-0.1,0.3-0.2,0.5-0.3 c0.2-0.1,0.3-0.3,0.4-0.4c0.2-0.2,0.2-0.4,0.2-0.6c0-0.2-0.1-0.3-0.2-0.4c-0.1-0.1-0.3-0.1-0.4-0.1c-0.2,0-0.4,0.2-0.7,0.4 c-0.3,0.2-0.5,0.3-0.7,0.4c-0.2,0.1-0.3,0.1-0.4,0.1c-0.1,0-0.3-0.1-0.4-0.2c-0.2-0.2-0.4-0.4-0.4-0.7c0-0.3,0.1-0.6,0.4-1 c0.2-0.3,0.5-0.6,0.8-0.8l0.3,0.4c-0.3,0.2-0.6,0.4-0.7,0.7c-0.1,0.2-0.2,0.4-0.2,0.5c0,0.1,0,0.3,0.2,0.3 c0.1,0.1,0.2,0.1,0.2,0.1c0.1,0,0.2,0,0.3-0.1c0.1-0.1,0.3-0.2,0.6-0.4c0.4-0.3,0.7-0.4,0.9-0.4 C191.8,210.5,192,210.6,192.2,210.7z M197,205.4l-1.9-1.3c-0.2-0.2-0.5-0.2-0.6-0.2c-0.2,0-0.4,0.1-0.5,0.3 c-0.2,0.3-0.3,0.5-0.2,0.8c0.1,0.2,0.3,0.5,0.6,0.7l1.6,1.1l-0.3,0.4l-1.9-1.3c-0.2-0.2-0.5-0.2-0.6-0.2c-0.2,0-0.4,0.1-0.5,0.3 c-0.2,0.3-0.3,0.5-0.2,0.8c0.1,0.2,0.3,0.5,0.7,0.8l1.5,1.1l-0.3,0.4l-2.9-2l0.2-0.4l0.4,0.2l0,0c-0.1-0.2-0.1-0.4-0.1-0.6 c0-0.2,0.1-0.4,0.2-0.6c0.3-0.5,0.7-0.6,1.1-0.6l0,0c-0.1-0.2-0.1-0.4-0.1-0.6c0-0.2,0.1-0.5,0.3-0.7c0.2-0.3,0.5-0.5,0.8-0.6 c0.3-0.1,0.6,0,1,0.3l1.9,1.3L197,205.4z M199.2,202.2l-0.5-0.2l0,0c0.1,0.3,0.1,0.5,0.1,0.7c0,0.2-0.1,0.4-0.3,0.6 c-0.2,0.3-0.4,0.5-0.7,0.5c-0.3,0.1-0.5,0-0.8-0.2c-0.6-0.4-0.6-1.1,0.1-2.1l0.3-0.5l-0.2-0.1c-0.2-0.2-0.4-0.2-0.6-0.2 c-0.2,0-0.3,0.1-0.5,0.4c-0.2,0.2-0.3,0.6-0.4,1l-0.4-0.1c0-0.2,0.1-0.4,0.1-0.6c0.1-0.2,0.2-0.4,0.3-0.6c0.2-0.4,0.5-0.6,0.8-0.6 c0.3-0.1,0.6,0,0.9,0.3l2,1.4L199.2,202.2z M198.2,203c0.2-0.3,0.3-0.5,0.2-0.8c0-0.3-0.2-0.5-0.5-0.7l-0.3-0.2l-0.3,0.5 c-0.2,0.4-0.3,0.7-0.4,0.9s0.1,0.4,0.3,0.5c0.2,0.1,0.3,0.2,0.5,0.1C198,203.3,198.1,203.2,198.2,203z M201.5,199l-1.9-1.3 c-0.2-0.2-0.5-0.2-0.7-0.2s-0.4,0.2-0.5,0.4c-0.2,0.3-0.3,0.6-0.2,0.9c0.1,0.2,0.3,0.5,0.7,0.8l1.5,1.1l-0.3,0.4l-2.9-2l0.2-0.4 l0.4,0.2l0,0c-0.1-0.2-0.1-0.4-0.1-0.6c0-0.2,0.1-0.4,0.3-0.6c0.2-0.4,0.5-0.6,0.8-0.6c0.3-0.1,0.6,0,1,0.3l1.9,1.3L201.5,199z M202.7,197.2l-0.3,0.4l-2.9-2l0.3-0.4L202.7,197.2z M198.7,195.1c-0.1-0.1-0.2-0.1-0.2-0.2c0-0.1,0-0.2,0.1-0.2 c0-0.1,0.1-0.1,0.2-0.1s0.2,0,0.3,0.1c0.1,0.1,0.2,0.2,0.2,0.2c0,0.1,0,0.2-0.1,0.2c-0.1,0.1-0.1,0.1-0.2,0.1 C198.9,195.2,198.8,195.1,198.7,195.1z M201.7,193.1l-0.5,0.7l2.6,1.8l-0.3,0.4l-2.6-1.8l-0.4,0.5l-0.2-0.1l0.2-0.6l-0.2-0.1 c-0.7-0.5-0.9-1.1-0.4-1.7c0.1-0.2,0.3-0.3,0.5-0.5l0.3,0.4c-0.2,0.1-0.3,0.3-0.4,0.4c-0.1,0.2-0.2,0.3-0.1,0.5 c0.1,0.2,0.2,0.3,0.4,0.5l0.2,0.1l0.5-0.7L201.7,193.1z M205.6,193.2c-0.3,0.4-0.7,0.7-1.1,0.8c-0.4,0.1-0.9-0.1-1.4-0.4 c-0.5-0.3-0.8-0.7-0.9-1.1c-0.1-0.4,0-0.8,0.2-1.2c0.3-0.4,0.6-0.6,1-0.6c0.4,0,0.8,0.1,1.2,0.3l0.3,0.2l-1.4,2 c0.3,0.2,0.7,0.3,1,0.3c0.3,0,0.5-0.2,0.8-0.5c0.2-0.3,0.4-0.7,0.5-1.1l0.4,0.3c0,0.2-0.1,0.4-0.2,0.5 C205.8,192.8,205.7,193,205.6,193.2z M202.8,191.4c-0.2,0.2-0.2,0.5-0.2,0.7c0.1,0.2,0.2,0.5,0.5,0.7l1.1-1.5 c-0.3-0.2-0.5-0.3-0.8-0.2C203.2,191.1,203,191.2,202.8,191.4z M207.3,188.9c0.3,0.2,0.4,0.4,0.4,0.7c0,0.3-0.1,0.6-0.4,1 c-0.3,0.4-0.5,0.6-0.8,0.8l-0.4-0.3c0.2-0.1,0.3-0.2,0.5-0.3c0.2-0.1,0.3-0.3,0.4-0.4c0.2-0.2,0.2-0.4,0.2-0.6 c0-0.2-0.1-0.3-0.2-0.4c-0.1-0.1-0.3-0.1-0.4-0.1c-0.2,0-0.4,0.2-0.7,0.4c-0.3,0.2-0.5,0.3-0.7,0.4c-0.2,0.1-0.3,0.1-0.4,0.1 c-0.1,0-0.3-0.1-0.4-0.2c-0.2-0.2-0.4-0.4-0.4-0.7c0-0.3,0.1-0.6,0.4-1c0.2-0.3,0.5-0.6,0.8-0.8l0.3,0.4c-0.3,0.2-0.6,0.4-0.7,0.7 c-0.1,0.2-0.2,0.4-0.2,0.5c0,0.1,0,0.3,0.2,0.3c0.1,0.1,0.2,0.1,0.2,0.1c0.1,0,0.2,0,0.3-0.1c0.1-0.1,0.3-0.2,0.6-0.4 c0.4-0.3,0.7-0.4,0.9-0.4C206.9,188.7,207.1,188.7,207.3,188.9z M208.9,187.5c0.1-0.1,0.1-0.2,0.1-0.2c0-0.1,0.1-0.2,0.1-0.2 l0.3,0.2c0,0.1,0,0.1-0.1,0.2c0,0.1-0.1,0.2-0.2,0.3c-0.4,0.6-0.9,0.6-1.5,0.2l-1.7-1.2l-0.3,0.4l-0.2-0.2l0.1-0.5l-0.5-0.6 l0.2-0.3l0.7,0.5l0.6-0.8l0.3,0.2l-0.6,0.8l1.7,1.2c0.2,0.1,0.3,0.2,0.5,0.2C208.7,187.8,208.8,187.7,208.9,187.5z M210.4,184.3 c0.3,0.2,0.4,0.4,0.4,0.7c0,0.3-0.1,0.6-0.4,1c-0.3,0.4-0.5,0.6-0.8,0.8l-0.4-0.3c0.2-0.1,0.3-0.2,0.5-0.3 c0.2-0.1,0.3-0.3,0.4-0.4c0.2-0.2,0.2-0.4,0.2-0.6c0-0.2-0.1-0.3-0.2-0.4c-0.1-0.1-0.3-0.1-0.4-0.1c-0.2,0-0.4,0.2-0.7,0.4 c-0.3,0.2-0.5,0.3-0.7,0.4c-0.2,0.1-0.3,0.1-0.4,0.1c-0.1,0-0.3-0.1-0.4-0.2c-0.2-0.2-0.4-0.4-0.4-0.7c0-0.3,0.1-0.6,0.4-1 c0.2-0.3,0.5-0.6,0.8-0.8l0.3,0.4c-0.3,0.2-0.6,0.4-0.7,0.7c-0.1,0.2-0.2,0.4-0.2,0.5c0,0.1,0,0.3,0.2,0.3 c0.1,0.1,0.2,0.1,0.2,0.1c0.1,0,0.2,0,0.3-0.1c0.1-0.1,0.3-0.2,0.6-0.4c0.4-0.3,0.7-0.4,0.9-0.4 C210,184.1,210.2,184.2,210.4,184.3z" class="st5"/><path d="M119.2,228.3l37-53.4l14.8,10.3l-37,53.4L119.2,228.3z" class="st9"/><path d="M144.1,212.3l-1.9-1.3c-0.2-0.2-0.5-0.2-0.7-0.2c-0.2,0-0.4,0.2-0.5,0.4c-0.2,0.3-0.3,0.6-0.2,0.9 c0.1,0.2,0.3,0.5,0.7,0.8l1.5,1.1l-0.3,0.4l-4.2-2.9l0.3-0.4l1.3,0.9c0.2,0.1,0.3,0.2,0.4,0.3l0,0c-0.1-0.2-0.1-0.4-0.1-0.6 c0-0.2,0.1-0.4,0.3-0.7c0.2-0.4,0.5-0.6,0.8-0.6c0.3-0.1,0.6,0,1,0.3l1.9,1.3L144.1,212.3z M146,209.7c-0.3,0.4-0.7,0.7-1.1,0.8 c-0.4,0.1-0.9-0.1-1.4-0.4c-0.5-0.3-0.8-0.7-0.9-1.1c-0.1-0.4,0-0.8,0.2-1.2c0.3-0.4,0.6-0.6,1-0.6s0.8,0.1,1.2,0.3l0.3,0.2 l-1.4,2c0.3,0.2,0.7,0.3,1,0.3c0.3,0,0.5-0.2,0.8-0.5c0.2-0.3,0.4-0.7,0.5-1.1l0.4,0.3c0,0.2-0.1,0.4-0.2,0.5 C146.2,209.3,146.1,209.5,146,209.7z M143.2,208c-0.2,0.2-0.2,0.5-0.2,0.7c0.1,0.2,0.2,0.5,0.5,0.7l1.1-1.5 c-0.3-0.2-0.5-0.3-0.8-0.2C143.6,207.6,143.4,207.7,143.2,208z M147.5,207.4l-0.3,0.4l-4.2-2.9l0.3-0.4L147.5,207.4z M150.7,202.7 l-1.9-1.3c-0.2-0.2-0.5-0.2-0.6-0.2c-0.2,0-0.4,0.1-0.5,0.3c-0.2,0.3-0.3,0.5-0.2,0.8c0.1,0.2,0.3,0.5,0.6,0.7l1.6,1.1l-0.3,0.4 l-1.9-1.3c-0.2-0.2-0.5-0.2-0.6-0.2c-0.2,0-0.4,0.1-0.5,0.3c-0.2,0.3-0.3,0.5-0.2,0.8c0.1,0.2,0.3,0.5,0.7,0.8l1.5,1.1l-0.3,0.4 l-2.9-2l0.2-0.4l0.4,0.2l0,0c-0.1-0.2-0.1-0.4-0.1-0.6c0-0.2,0.1-0.4,0.2-0.6c0.3-0.5,0.7-0.6,1.1-0.6l0,0 c-0.1-0.2-0.1-0.4-0.1-0.6c0-0.2,0.1-0.5,0.3-0.7c0.2-0.3,0.5-0.5,0.8-0.6c0.3-0.1,0.6,0,1,0.3l1.9,1.3L150.7,202.7z M153.5,198.8 c-0.3,0.4-0.7,0.7-1.1,0.7c-0.4,0-0.9-0.1-1.4-0.4c-0.5-0.3-0.8-0.7-0.9-1.1c-0.1-0.4,0-0.9,0.3-1.3c0.1-0.1,0.2-0.3,0.3-0.4 c0.1-0.1,0.2-0.2,0.3-0.3l0.3,0.4c-0.1,0.1-0.2,0.1-0.3,0.2c-0.1,0.1-0.2,0.2-0.3,0.3c-0.4,0.6-0.2,1.2,0.5,1.7 c0.4,0.2,0.7,0.4,1,0.4c0.3,0,0.5-0.2,0.7-0.4c0.2-0.2,0.3-0.5,0.4-0.9l0.4,0.3C153.8,198.2,153.7,198.5,153.5,198.8z M155.9,195.3L154,194c-0.2-0.2-0.5-0.2-0.7-0.2s-0.4,0.2-0.5,0.4c-0.2,0.3-0.3,0.6-0.2,0.9c0.1,0.2,0.3,0.5,0.7,0.8l1.5,1.1 l-0.3,0.4l-4.2-2.9l0.3-0.4l1.3,0.9c0.2,0.1,0.3,0.2,0.4,0.3l0,0c-0.1-0.2-0.1-0.4-0.1-0.6c0-0.2,0.1-0.4,0.3-0.7 c0.2-0.4,0.5-0.6,0.8-0.6s0.6,0,1,0.3l1.9,1.3L155.9,195.3z M158,192.2l-0.5-0.2l0,0c0.1,0.3,0.1,0.5,0.1,0.7 c0,0.2-0.1,0.4-0.3,0.6c-0.2,0.3-0.4,0.5-0.7,0.5c-0.3,0.1-0.5,0-0.8-0.2c-0.6-0.4-0.6-1.1,0.1-2.1l0.3-0.5l-0.2-0.1 c-0.2-0.2-0.4-0.2-0.6-0.2c-0.2,0-0.3,0.1-0.5,0.4c-0.2,0.2-0.3,0.6-0.4,1l-0.4-0.1c0-0.2,0.1-0.4,0.1-0.6 c0.1-0.2,0.2-0.4,0.3-0.6c0.2-0.4,0.5-0.6,0.8-0.6c0.3-0.1,0.6,0,0.9,0.3l2,1.4L158,192.2z M157,193c0.2-0.3,0.3-0.5,0.2-0.8 c0-0.3-0.2-0.5-0.5-0.7l-0.3-0.2l-0.3,0.5c-0.2,0.4-0.3,0.7-0.4,0.9c0,0.2,0.1,0.4,0.3,0.5c0.2,0.1,0.3,0.2,0.5,0.1 S156.9,193.1,157,193z M156.8,187.5c0.1-0.1,0.2-0.2,0.3-0.3l0.4,0.3c-0.1,0.1-0.2,0.2-0.3,0.3c-0.2,0.2-0.2,0.5-0.1,0.8 c0.1,0.3,0.3,0.5,0.5,0.7l1.6,1.1l-0.3,0.4l-2.9-2l0.2-0.4l0.6,0.3l0,0c-0.1-0.2-0.2-0.5-0.2-0.7 C156.6,187.9,156.7,187.7,156.8,187.5z M160.8,187.5c0.1-0.1,0.1-0.2,0.1-0.2c0-0.1,0.1-0.2,0.1-0.2l0.3,0.2c0,0.1,0,0.1-0.1,0.2 c0,0.1-0.1,0.2-0.2,0.3c-0.4,0.6-0.9,0.6-1.5,0.2l-1.7-1.2l-0.3,0.4l-0.2-0.2l0.1-0.5L157,186l0.2-0.3l0.7,0.5l0.6-0.8l0.3,0.2 l-0.6,0.8l1.7,1.2c0.2,0.1,0.3,0.2,0.5,0.2C160.6,187.8,160.7,187.7,160.8,187.5z M162.3,184.3c0.3,0.2,0.4,0.4,0.4,0.7 c0,0.3-0.1,0.6-0.4,1c-0.3,0.4-0.5,0.6-0.8,0.8l-0.4-0.3c0.2-0.1,0.3-0.2,0.5-0.3c0.2-0.1,0.3-0.3,0.4-0.4 c0.2-0.2,0.2-0.4,0.2-0.6c0-0.2-0.1-0.3-0.2-0.4c-0.1-0.1-0.3-0.1-0.4-0.1c-0.2,0-0.4,0.2-0.7,0.4c-0.3,0.2-0.5,0.3-0.7,0.4 c-0.2,0.1-0.3,0.1-0.4,0.1c-0.1,0-0.3-0.1-0.4-0.2c-0.2-0.2-0.4-0.4-0.4-0.7c0-0.3,0.1-0.6,0.4-1c0.2-0.3,0.5-0.6,0.8-0.8l0.3,0.4 c-0.3,0.2-0.6,0.4-0.7,0.7c-0.1,0.2-0.2,0.4-0.2,0.5c0,0.1,0,0.3,0.2,0.3c0.1,0.1,0.2,0.1,0.2,0.1c0.1,0,0.2,0,0.3-0.1 c0.1-0.1,0.3-0.2,0.6-0.4c0.4-0.3,0.7-0.4,0.9-0.4C161.9,184.1,162.1,184.2,162.3,184.3z" class="st5"/><path d="M143.2,228.3l37-53.4l14.8,10.3l-37,53.4L143.2,228.3z" class="st9"/><path d="M175.3,202.1c-0.3,0.4-0.7,0.7-1.1,0.7c-0.4,0-0.9-0.1-1.4-0.4c-0.5-0.3-0.8-0.7-0.9-1.1 c-0.1-0.4,0-0.9,0.3-1.3c0.1-0.1,0.2-0.3,0.3-0.4c0.1-0.1,0.2-0.2,0.3-0.3l0.3,0.4c-0.1,0.1-0.2,0.1-0.3,0.2 c-0.1,0.1-0.2,0.2-0.3,0.3c-0.4,0.6-0.2,1.2,0.5,1.7c0.4,0.2,0.7,0.4,1,0.4c0.3,0,0.5-0.2,0.7-0.4c0.2-0.2,0.3-0.5,0.4-0.9 l0.4,0.3C175.6,201.5,175.5,201.8,175.3,202.1z M176.5,197.1c0.5,0.3,0.8,0.7,0.9,1.1c0.1,0.4,0,0.8-0.3,1.3 c-0.2,0.3-0.4,0.5-0.7,0.6c-0.3,0.1-0.5,0.1-0.8,0.1c-0.3,0-0.6-0.2-0.9-0.4c-0.5-0.3-0.8-0.7-0.9-1.1s0-0.8,0.3-1.3 c0.3-0.4,0.6-0.6,1.1-0.7C175.6,196.6,176.1,196.8,176.5,197.1z M175,199.3c0.4,0.3,0.7,0.4,1,0.4c0.3,0,0.6-0.2,0.8-0.5 c0.2-0.3,0.3-0.6,0.2-0.9c-0.1-0.3-0.3-0.6-0.7-0.8s-0.7-0.4-1-0.4c-0.3,0-0.6,0.2-0.8,0.5c-0.2,0.3-0.3,0.6-0.2,0.9 C174.4,198.8,174.6,199,175,199.3z M179.9,195.3L178,194c-0.2-0.2-0.5-0.2-0.7-0.2s-0.4,0.2-0.5,0.4c-0.2,0.3-0.3,0.6-0.2,0.9 c0.1,0.2,0.3,0.5,0.7,0.8l1.5,1.1l-0.3,0.4l-2.9-2l0.2-0.4l0.4,0.2l0,0c-0.1-0.2-0.1-0.4-0.1-0.6c0-0.2,0.1-0.4,0.3-0.6 c0.2-0.4,0.5-0.6,0.8-0.6c0.3-0.1,0.6,0,1,0.3l1.9,1.3L179.9,195.3z M181.2,192.8c0.1-0.1,0.1-0.2,0.1-0.2c0-0.1,0.1-0.2,0.1-0.2 l0.3,0.2c0,0.1,0,0.1-0.1,0.2c0,0.1-0.1,0.2-0.2,0.3c-0.4,0.6-0.9,0.6-1.5,0.2l-1.7-1.2l-0.3,0.4l-0.2-0.2l0.1-0.5l-0.5-0.6 l0.2-0.3l0.7,0.5l0.6-0.8l0.3,0.2l-0.6,0.8l1.7,1.2c0.2,0.1,0.3,0.2,0.5,0.2C181,193,181.1,192.9,181.2,192.8z M183.1,190.8 c-0.3,0.4-0.7,0.7-1.1,0.8c-0.4,0.1-0.9-0.1-1.4-0.4c-0.5-0.3-0.8-0.7-0.9-1.1c-0.1-0.4,0-0.8,0.2-1.2c0.3-0.4,0.6-0.6,1-0.6 c0.4,0,0.8,0.1,1.2,0.3l0.3,0.2l-1.4,2c0.3,0.2,0.7,0.3,1,0.3c0.3,0,0.5-0.2,0.8-0.5c0.2-0.3,0.4-0.7,0.5-1.1l0.4,0.3 c0,0.2-0.1,0.4-0.2,0.5C183.4,190.4,183.3,190.6,183.1,190.8z M180.4,189.1c-0.2,0.2-0.2,0.5-0.2,0.7c0.1,0.2,0.2,0.5,0.5,0.7 l1.1-1.5c-0.3-0.2-0.5-0.3-0.8-0.2C180.7,188.7,180.5,188.9,180.4,189.1z M183.3,187.2l-2.1,0l0.4-0.5l1.7,0l-0.6-1.5l0.3-0.5 l0.7,2l2.2,0l-0.3,0.5l-1.8,0l0.6,1.7l-0.3,0.5L183.3,187.2z M186.7,184.9c0.1-0.1,0.1-0.2,0.1-0.2c0-0.1,0.1-0.2,0.1-0.2l0.3,0.2 c0,0.1,0,0.1-0.1,0.2c0,0.1-0.1,0.2-0.2,0.3c-0.4,0.6-0.9,0.6-1.5,0.2l-1.7-1.2l-0.3,0.4l-0.2-0.2l0.1-0.5l-0.5-0.6l0.2-0.3 l0.7,0.5l0.6-0.8l0.3,0.2l-0.6,0.8l1.7,1.2c0.2,0.1,0.3,0.2,0.5,0.2C186.4,185.2,186.6,185.1,186.7,184.9z" class="st5"/><path d="M117.8,229.8h114.6v17.4H117.8V229.8z" class="st6"/></g><path d="M144.6,237.9v0.3c0.2-0.3,0.5-0.4,0.7-0.4c0.1,0,0.3,0,0.4,0.1c0.1,0.1,0.2,0.2,0.3,0.3 c0.1-0.2,0.2-0.3,0.4-0.3c0.1-0.1,0.3-0.1,0.4-0.1c0.2,0,0.4,0.1,0.5,0.2c0.2,0.2,0.2,0.4,0.2,0.6v2h0.2c0.1,0,0.1,0,0.1,0 c0,0,0,0.1,0,0.1c0,0,0,0.1,0,0.1c0,0-0.1,0-0.1,0h-0.5v-2.3c0-0.1,0-0.3-0.1-0.4c-0.1-0.1-0.2-0.1-0.3-0.1c-0.1,0-0.2,0-0.3,0.1 c-0.1,0.1-0.2,0.2-0.4,0.5v1.9h0.2c0.1,0,0.1,0,0.1,0c0,0,0,0.1,0,0.1c0,0,0,0.1,0,0.1c0,0-0.1,0-0.1,0h-0.5v-2.2 c0-0.1,0-0.3-0.1-0.4c-0.1-0.1-0.2-0.2-0.3-0.2c-0.1,0-0.2,0-0.3,0.1c-0.1,0.1-0.3,0.3-0.4,0.5v1.9h0.2c0.1,0,0.1,0,0.2,0 c0,0,0,0.1,0,0.1c0,0,0,0.1,0,0.1c0,0-0.1,0-0.2,0h-0.8c-0.1,0-0.1,0-0.2,0c0,0,0-0.1,0-0.1c0,0,0-0.1,0-0.1c0,0,0.1,0,0.2,0h0.2 v-2.4h-0.2c-0.1,0-0.1,0-0.2,0c0,0,0-0.1,0-0.1c0,0,0-0.1,0-0.1c0,0,0.1,0,0.2,0H144.6z M151.7,239.5h-2.9c0,0.4,0.2,0.7,0.5,0.9 c0.3,0.2,0.6,0.3,1,0.3c0.2,0,0.4,0,0.7-0.1c0.2-0.1,0.4-0.2,0.6-0.3c0,0,0.1,0,0.1,0c0,0,0.1,0,0.1,0c0,0,0,0.1,0,0.1 c0,0,0,0.1,0,0.1c-0.1,0.1-0.3,0.2-0.6,0.3c-0.3,0.1-0.6,0.1-0.9,0.1c-0.5,0-0.9-0.2-1.2-0.5c-0.3-0.3-0.5-0.7-0.5-1.2 c0-0.4,0.2-0.8,0.5-1.1c0.3-0.3,0.7-0.5,1.2-0.5c0.5,0,0.9,0.2,1.2,0.5C151.5,238.6,151.7,239,151.7,239.5z M151.4,239.2 c-0.1-0.3-0.2-0.6-0.5-0.8c-0.2-0.2-0.5-0.3-0.9-0.3c-0.3,0-0.6,0.1-0.9,0.3c-0.2,0.2-0.4,0.4-0.5,0.8H151.4z M155.3,238.1 c0-0.1,0-0.1,0-0.1c0,0,0.1,0,0.1,0c0,0,0.1,0,0.1,0c0,0,0,0.1,0,0.1v0.5c0,0.1,0,0.1,0,0.1s-0.1,0-0.1,0c0,0-0.1,0-0.1,0 c0,0,0-0.1,0-0.1c0-0.1-0.1-0.2-0.2-0.3c-0.2-0.1-0.4-0.2-0.8-0.2c-0.3,0-0.6,0.1-0.8,0.2c-0.1,0.1-0.2,0.2-0.2,0.3 c0,0.1,0.1,0.2,0.2,0.3c0.1,0.1,0.3,0.1,0.6,0.1c0.4,0,0.7,0.1,0.8,0.2c0.2,0.1,0.4,0.2,0.5,0.3c0.1,0.1,0.2,0.3,0.2,0.5 c0,0.2-0.1,0.5-0.4,0.7c-0.2,0.2-0.6,0.3-1,0.3c-0.5,0-0.8-0.1-1.1-0.3c0,0.1,0,0.1,0,0.2c0,0,0,0-0.1,0.1c0,0,0,0-0.1,0 s-0.1,0-0.1,0s0-0.1,0-0.1v-0.6c0-0.1,0-0.1,0-0.1c0,0,0.1,0,0.1,0c0,0,0.1,0,0.1,0c0,0,0,0.1,0,0.1c0,0.1,0,0.2,0.1,0.3 c0.1,0.1,0.2,0.2,0.4,0.3c0.2,0.1,0.4,0.1,0.6,0.1c0.4,0,0.7-0.1,0.8-0.2c0.2-0.1,0.3-0.3,0.3-0.5c0-0.2-0.1-0.3-0.3-0.4 c-0.2-0.1-0.4-0.2-0.8-0.2c-0.4,0-0.6-0.1-0.8-0.2s-0.3-0.2-0.4-0.3c-0.1-0.1-0.1-0.2-0.1-0.4c0-0.2,0.1-0.4,0.4-0.6 c0.2-0.1,0.5-0.2,0.9-0.2C154.7,237.8,155,237.9,155.3,238.1z M157.6,236.6v1.8c0.2-0.2,0.3-0.3,0.5-0.4c0.2-0.1,0.4-0.1,0.6-0.1 c0.2,0,0.4,0,0.6,0.1c0.2,0.1,0.3,0.2,0.4,0.4c0.1,0.2,0.2,0.3,0.2,0.5v1.8h0.3c0.1,0,0.1,0,0.1,0c0,0,0,0.1,0,0.1c0,0,0,0.1,0,0.1 c0,0-0.1,0-0.1,0h-0.9c-0.1,0-0.1,0-0.2,0c0,0,0-0.1,0-0.1c0,0,0-0.1,0-0.1c0,0,0.1,0,0.2,0h0.3v-1.8c0-0.2-0.1-0.4-0.2-0.5 c-0.1-0.1-0.4-0.2-0.6-0.2c-0.2,0-0.4,0.1-0.5,0.2c-0.1,0.1-0.3,0.2-0.5,0.5v1.8h0.3c0.1,0,0.1,0,0.1,0c0,0,0,0.1,0,0.1 c0,0,0,0.1,0,0.1c0,0-0.1,0-0.1,0H157c-0.1,0-0.1,0-0.2,0c0,0,0-0.1,0-0.1c0,0,0-0.1,0-0.1c0,0,0.1,0,0.2,0h0.3v-3.7h-0.4 c-0.1,0-0.1,0-0.2,0c0,0,0-0.1,0-0.1c0,0,0-0.1,0-0.1c0,0,0.1,0,0.2,0H157.6z M164.3,239.5h-2.9c0,0.4,0.2,0.7,0.5,0.9 c0.3,0.2,0.6,0.3,1,0.3c0.2,0,0.4,0,0.7-0.1c0.2-0.1,0.4-0.2,0.6-0.3c0,0,0.1,0,0.1,0c0,0,0.1,0,0.1,0c0,0,0,0.1,0,0.1 c0,0,0,0.1,0,0.1c-0.1,0.1-0.3,0.2-0.6,0.3c-0.3,0.1-0.6,0.1-0.9,0.1c-0.5,0-0.9-0.2-1.2-0.5c-0.3-0.3-0.5-0.7-0.5-1.2 c0-0.4,0.2-0.8,0.5-1.1c0.3-0.3,0.7-0.5,1.2-0.5c0.5,0,0.9,0.2,1.2,0.5C164.1,238.6,164.3,239,164.3,239.5z M164,239.2 c-0.1-0.3-0.2-0.6-0.5-0.8c-0.2-0.2-0.5-0.3-0.9-0.3c-0.3,0-0.6,0.1-0.9,0.3c-0.2,0.2-0.4,0.4-0.5,0.8H164z M166.6,237.9v0.7 c0.4-0.3,0.7-0.5,0.8-0.6c0.2-0.1,0.4-0.2,0.5-0.2c0.2,0,0.3,0.1,0.5,0.2c0.2,0.1,0.2,0.2,0.2,0.3c0,0,0,0.1,0,0.1c0,0-0.1,0-0.1,0 c0,0,0,0-0.1,0c0,0,0,0-0.1-0.1c-0.1-0.1-0.2-0.1-0.2-0.2c-0.1,0-0.1,0-0.2,0c-0.1,0-0.3,0.1-0.5,0.2c-0.2,0.1-0.5,0.3-0.9,0.7v1.6 h1.3c0.1,0,0.1,0,0.1,0c0,0,0,0.1,0,0.1c0,0,0,0.1,0,0.1c0,0-0.1,0-0.1,0h-2.2c-0.1,0-0.1,0-0.2,0c0,0,0-0.1,0-0.1c0,0,0-0.1,0-0.1 c0,0,0.1,0,0.2,0h0.7v-2.4h-0.5c-0.1,0-0.1,0-0.1,0c0,0,0-0.1,0-0.1c0,0,0-0.1,0-0.1c0,0,0.1,0,0.2,0H166.6z M171.2,240.9l-1.3-2.7 h-0.1c-0.1,0-0.1,0-0.2,0c0,0,0-0.1,0-0.1c0,0,0-0.1,0-0.1c0,0,0,0,0,0c0,0,0.1,0,0.1,0h0.8c0.1,0,0.1,0,0.1,0c0,0,0,0.1,0,0.1 c0,0,0,0.1,0,0.1c0,0-0.1,0-0.1,0h-0.4l1.2,2.4l1.2-2.4h-0.4c-0.1,0-0.1,0-0.2,0c0,0,0-0.1,0-0.1c0,0,0-0.1,0-0.1c0,0,0.1,0,0.2,0 h0.8c0.1,0,0.1,0,0.1,0c0,0,0,0.1,0,0.1c0,0,0,0.1,0,0.1c0,0,0,0-0.1,0c0,0-0.1,0-0.2,0l-1.8,3.7h0.5c0.1,0,0.1,0,0.1,0 c0,0,0,0.1,0,0.1c0,0,0,0.1,0,0.1c0,0-0.1,0-0.1,0h-1.7c-0.1,0-0.1,0-0.2,0c0,0,0-0.1,0-0.1c0,0,0-0.1,0-0.1c0,0,0.1,0,0.2,0h0.9 L171.2,240.9z M176.5,238.2L176.5,238.2c0-0.2,0-0.2,0-0.2c0,0,0.1,0,0.1,0s0.1,0,0.1,0c0,0,0,0.1,0,0.1v0.7c0,0.1,0,0.1-0.1,0.1 c0,0-0.1,0-0.1,0c0,0-0.1,0-0.1,0c0,0,0-0.1,0-0.1c0-0.2-0.1-0.3-0.3-0.5c-0.2-0.1-0.5-0.2-0.8-0.2c-0.4,0-0.8,0.1-1,0.4 c-0.2,0.3-0.3,0.6-0.3,0.9c0,0.4,0.1,0.7,0.4,0.9c0.2,0.2,0.6,0.4,1,0.4c0.2,0,0.4,0,0.7-0.1c0.2-0.1,0.5-0.2,0.6-0.4 c0-0.1,0.1-0.1,0.1-0.1c0,0,0.1,0,0.1,0c0,0,0,0.1,0,0.1c0,0.1-0.1,0.2-0.3,0.4c-0.4,0.2-0.8,0.4-1.2,0.4s-0.8-0.1-1.1-0.4 c-0.3-0.3-0.5-0.7-0.5-1.1c0-0.5,0.2-0.8,0.5-1.1c0.3-0.3,0.7-0.5,1.2-0.5C175.9,237.8,176.2,237.9,176.5,238.2z M179,237.9h1.5 c0.1,0,0.1,0,0.2,0c0,0,0,0.1,0,0.1c0,0,0,0.1,0,0.1c0,0-0.1,0-0.2,0H179v1.9c0,0.2,0.1,0.3,0.2,0.4c0.1,0.1,0.3,0.2,0.6,0.2 c0.2,0,0.4,0,0.6-0.1c0.2-0.1,0.4-0.1,0.5-0.2c0,0,0.1,0,0.1,0c0,0,0.1,0,0.1,0c0,0,0,0.1,0,0.1c0,0,0,0.1,0,0.1 c-0.1,0.1-0.2,0.2-0.5,0.2c-0.3,0.1-0.6,0.1-0.8,0.1c-0.3,0-0.6-0.1-0.8-0.2s-0.3-0.4-0.3-0.6v-1.9h-0.5c-0.1,0-0.1,0-0.1,0 c0,0,0-0.1,0-0.1c0,0,0-0.1,0-0.1c0,0,0.1,0,0.1,0h0.5v-0.9c0-0.1,0-0.1,0-0.1c0,0,0.1,0,0.1,0s0.1,0,0.1,0s0,0.1,0,0.1V237.9z M183.9,236.6v4h1.1c0.1,0,0.1,0,0.1,0c0,0,0,0.1,0,0.1c0,0,0,0.1,0,0.1c0,0-0.1,0-0.1,0h-2.5c-0.1,0-0.1,0-0.1,0c0,0,0-0.1,0-0.1 c0,0,0-0.1,0-0.1c0,0,0.1,0,0.1,0h1.1v-3.7h-0.8c-0.1,0-0.1,0-0.1,0c0,0,0-0.1,0-0.1c0,0,0-0.1,0-0.1s0.1,0,0.1,0H183.9z" class="st5"/><path d="M189.6,240.9c-0.5,0-0.9-0.2-1.2-0.5c-0.3-0.3-0.4-0.8-0.4-1.4c0-0.6,0.1-1.1,0.4-1.4c0.3-0.3,0.7-0.5,1.2-0.5 c0.2,0,0.3,0,0.5,0.1c0.2,0,0.3,0.1,0.4,0.1l-0.2,0.5c-0.1-0.1-0.2-0.1-0.4-0.1c-0.1,0-0.3,0-0.4,0c-0.7,0-1.1,0.5-1.1,1.4 c0,0.4,0.1,0.8,0.3,1c0.2,0.2,0.4,0.3,0.8,0.3c0.3,0,0.6-0.1,0.9-0.2v0.5C190.2,240.9,189.9,240.9,189.6,240.9z M194.4,239.1 c0,0.6-0.1,1-0.4,1.4c-0.3,0.3-0.7,0.5-1.2,0.5c-0.3,0-0.6-0.1-0.9-0.2c-0.2-0.2-0.4-0.4-0.6-0.6c-0.1-0.3-0.2-0.6-0.2-1 c0-0.6,0.1-1,0.4-1.4c0.3-0.3,0.7-0.5,1.2-0.5c0.5,0,0.9,0.2,1.2,0.5C194.2,238.1,194.4,238.5,194.4,239.1z M191.7,239.1 c0,0.4,0.1,0.8,0.3,1c0.2,0.2,0.5,0.4,0.8,0.4c0.3,0,0.6-0.1,0.8-0.3c0.2-0.2,0.3-0.6,0.3-1c0-0.5-0.1-0.8-0.3-1 c-0.2-0.2-0.5-0.4-0.8-0.4s-0.6,0.1-0.8,0.4C191.8,238.3,191.7,238.6,191.7,239.1z M197.8,240.9v-2.3c0-0.3-0.1-0.5-0.2-0.7 c-0.1-0.1-0.3-0.2-0.6-0.2c-0.4,0-0.7,0.1-0.8,0.3c-0.2,0.2-0.2,0.5-0.2,1v1.9h-0.5v-3.6h0.4l0.1,0.5h0c0.1-0.2,0.3-0.3,0.5-0.4 c0.2-0.1,0.4-0.1,0.7-0.1c0.4,0,0.8,0.1,1,0.3c0.2,0.2,0.3,0.5,0.3,1v2.3H197.8z M201,237.7h-0.9v3.1h-0.5v-3.1h-0.6v-0.2l0.6-0.2 v-0.2c0-0.9,0.4-1.3,1.1-1.3c0.2,0,0.4,0,0.7,0.1l-0.1,0.4c-0.2-0.1-0.4-0.1-0.5-0.1c-0.2,0-0.4,0.1-0.5,0.2 c-0.1,0.1-0.1,0.3-0.1,0.6v0.2h0.9V237.7z M202,240.9h-0.5v-3.6h0.5V240.9z M201.4,236.3c0-0.1,0-0.2,0.1-0.3 c0.1-0.1,0.1-0.1,0.2-0.1c0.1,0,0.2,0,0.2,0.1s0.1,0.2,0.1,0.3c0,0.1,0,0.2-0.1,0.3c-0.1,0.1-0.1,0.1-0.2,0.1c-0.1,0-0.2,0-0.2-0.1 C201.4,236.6,201.4,236.5,201.4,236.3z M206.3,237.3v0.3l-0.7,0.1c0.1,0.1,0.1,0.2,0.2,0.3c0.1,0.1,0.1,0.3,0.1,0.4 c0,0.4-0.1,0.6-0.4,0.8c-0.2,0.2-0.6,0.3-1,0.3c-0.1,0-0.2,0-0.3,0c-0.2,0.1-0.3,0.3-0.3,0.5c0,0.1,0,0.2,0.1,0.2 c0.1,0,0.2,0.1,0.4,0.1h0.6c0.4,0,0.7,0.1,0.9,0.2c0.2,0.2,0.3,0.4,0.3,0.7c0,0.4-0.2,0.7-0.5,0.9c-0.3,0.2-0.8,0.3-1.4,0.3 c-0.5,0-0.8-0.1-1.1-0.3c-0.2-0.2-0.4-0.4-0.4-0.7c0-0.2,0.1-0.4,0.2-0.6c0.1-0.2,0.3-0.3,0.6-0.3c-0.1,0-0.2-0.1-0.2-0.2 c-0.1-0.1-0.1-0.2-0.1-0.3s0-0.2,0.1-0.3c0.1-0.1,0.2-0.2,0.3-0.3c-0.2-0.1-0.3-0.2-0.5-0.4c-0.1-0.2-0.2-0.4-0.2-0.6 c0-0.4,0.1-0.7,0.3-0.9c0.2-0.2,0.6-0.3,1-0.3c0.2,0,0.4,0,0.5,0.1H206.3z M203.4,241.5c0,0.2,0.1,0.3,0.2,0.4 c0.2,0.1,0.4,0.2,0.7,0.2c0.4,0,0.8-0.1,1-0.2c0.2-0.1,0.3-0.3,0.3-0.5c0-0.2-0.1-0.3-0.2-0.4c-0.1-0.1-0.3-0.1-0.7-0.1h-0.7 c-0.2,0-0.4,0.1-0.6,0.2C203.5,241.1,203.4,241.2,203.4,241.5z M203.7,238.5c0,0.2,0.1,0.4,0.2,0.6c0.1,0.1,0.3,0.2,0.6,0.2 c0.5,0,0.8-0.3,0.8-0.8c0-0.5-0.3-0.8-0.8-0.8c-0.3,0-0.5,0.1-0.6,0.2C203.8,238,203.7,238.2,203.7,238.5z" class="st5"/></g><path d="M126.2,281.5h108.6v26.3H126.2V281.5z" class="st6"/><path d="M126.2,281.5h108.6v26.3H126.2V281.5z" class="st4"/><path d="M182.3,289.9v6.2c0,1.1-0.3,1.9-1,2.6c-0.7,0.6-1.6,0.9-2.7,0.9s-2-0.3-2.7-0.9c-0.6-0.6-0.9-1.5-0.9-2.6v-6.1	h1.1v6.2c0,0.8,0.2,1.4,0.7,1.8c0.4,0.4,1.1,0.6,1.9,0.6c0.8,0,1.4-0.2,1.9-0.6c0.4-0.4,0.7-1,0.7-1.8v-6.2H182.3z M184.9,299.4	v-9.5h1.1v9.5H184.9z" class="st5"/><path d="M169.6,342.4L169.6,342.4c0,1.4,4.9,2.5,10.9,2.5s10.9-1.1,10.9-2.5v15.1c0,1.4-4.9,2.5-10.9,2.5	s-10.9-1.1-10.9-2.5V342.4z" class="st10"/><path d="M169.6,342.4L169.6,342.4c0-1.4,4.9-2.5,10.9-2.5s10.9,1.1,10.9,2.5l0,0c0,1.4-4.9,2.5-10.9,2.5	S169.6,343.8,169.6,342.4z" class="st11"/><path d="M191.4,342.4L191.4,342.4c0,1.4-4.9,2.5-10.9,2.5s-10.9-1.1-10.9-2.5l0,0c0-1.4,4.9-2.5,10.9-2.5	S191.4,341,191.4,342.4v15.1c0,1.4-4.9,2.5-10.9,2.5s-10.9-1.1-10.9-2.5v-15.1" class="st1"/><path d="M191.4,342.4L191.4,342.4c0,1.4-4.9,2.5-10.9,2.5s-10.9-1.1-10.9-2.5l0,0c0-1.4,4.9-2.5,10.9-2.5	S191.4,341,191.4,342.4v15.1c0,1.4-4.9,2.5-10.9,2.5s-10.9-1.1-10.9-2.5v-15.1" class="st4"/><path d="M180.2,351.2c0,0.8-0.2,1.4-0.6,1.8c-0.4,0.4-1,0.6-1.8,0.6h-1.3v-4.8h1.5c0.7,0,1.3,0.2,1.7,0.6	C180,349.9,180.2,350.4,180.2,351.2z M179.6,351.2c0-0.6-0.2-1.1-0.5-1.4c-0.3-0.3-0.8-0.5-1.4-0.5H177v3.8h0.7	c0.7,0,1.2-0.2,1.5-0.5C179.5,352.3,179.6,351.8,179.6,351.2z M181.3,348.8h1.3c0.6,0,1.1,0.1,1.4,0.3s0.4,0.5,0.4,0.9	c0,0.3-0.1,0.5-0.2,0.7c-0.2,0.2-0.4,0.3-0.7,0.4v0c0.7,0.1,1.1,0.5,1.1,1.1c0,0.4-0.1,0.8-0.4,1c-0.3,0.2-0.7,0.4-1.2,0.4h-1.7	V348.8z M181.8,350.9h0.9c0.4,0,0.7-0.1,0.8-0.2c0.2-0.1,0.3-0.3,0.3-0.6c0-0.3-0.1-0.5-0.3-0.6c-0.2-0.1-0.5-0.2-0.9-0.2h-0.8	V350.9z M181.8,351.3v1.8h1c0.4,0,0.7-0.1,0.9-0.2c0.2-0.2,0.3-0.4,0.3-0.7c0-0.3-0.1-0.5-0.3-0.6c-0.2-0.1-0.5-0.2-0.9-0.2H181.8z" class="st5"/><path d="M123.2,498.5h114.6v17.4H123.2V498.5z" class="st6"/><path d="M123.2,498.5h114.6v17.4H123.2V498.5z" class="st4"/><path d="M154.9,506.8v0.4c0.3-0.3,0.6-0.5,1-0.5c0.2,0,0.4,0.1,0.5,0.2c0.1,0.1,0.3,0.2,0.4,0.5	c0.2-0.2,0.3-0.4,0.5-0.5c0.2-0.1,0.3-0.2,0.5-0.2c0.3,0,0.5,0.1,0.6,0.3c0.2,0.2,0.3,0.5,0.3,0.7v2.6h0.3c0.1,0,0.1,0,0.2,0.1	c0,0,0.1,0.1,0.1,0.1c0,0.1,0,0.1-0.1,0.1c0,0-0.1,0-0.2,0h-0.7v-2.9c0-0.2-0.1-0.3-0.2-0.5s-0.2-0.2-0.4-0.2	c-0.1,0-0.3,0.1-0.4,0.2c-0.1,0.1-0.3,0.3-0.5,0.6v2.4h0.3c0.1,0,0.1,0,0.2,0.1c0,0,0.1,0.1,0.1,0.1c0,0.1,0,0.1-0.1,0.1	c0,0-0.1,0-0.2,0h-0.7v-2.9c0-0.2-0.1-0.4-0.2-0.5s-0.2-0.2-0.4-0.2c-0.1,0-0.3,0-0.4,0.1c-0.2,0.1-0.4,0.3-0.6,0.6v2.4h0.3	c0.1,0,0.2,0,0.2,0.1c0,0,0.1,0.1,0.1,0.1c0,0.1,0,0.1-0.1,0.1c0,0-0.1,0-0.2,0h-1c-0.1,0-0.2,0-0.2,0c0,0,0-0.1,0-0.1	c0-0.1,0-0.1,0-0.1c0,0,0.1-0.1,0.2-0.1h0.3v-3.1h-0.3c-0.1,0-0.2,0-0.2,0c0,0,0-0.1,0-0.1c0-0.1,0-0.1,0-0.1c0,0,0.1-0.1,0.2-0.1	H154.9z M164,508.8h-3.8c0.1,0.5,0.3,0.9,0.6,1.2c0.3,0.3,0.8,0.4,1.2,0.4c0.3,0,0.6,0,0.9-0.1s0.6-0.2,0.8-0.4	c0.1,0,0.1-0.1,0.1-0.1s0.1,0,0.1,0.1c0,0,0.1,0.1,0.1,0.1c0,0.1,0,0.1-0.1,0.2c-0.1,0.1-0.4,0.3-0.8,0.4c-0.4,0.1-0.7,0.2-1.1,0.2	c-0.6,0-1.2-0.2-1.6-0.6c-0.4-0.4-0.6-0.9-0.6-1.5c0-0.5,0.2-1,0.6-1.4c0.4-0.4,0.9-0.6,1.5-0.6c0.6,0,1.1,0.2,1.5,0.6	C163.8,507.7,164,508.2,164,508.8z M163.6,508.4c-0.1-0.4-0.3-0.7-0.6-1c-0.3-0.3-0.7-0.4-1.1-0.4c-0.4,0-0.8,0.1-1.1,0.4	c-0.3,0.2-0.5,0.6-0.6,1H163.6z M168.6,507.1c0-0.1,0-0.1,0-0.2c0,0,0.1-0.1,0.1-0.1s0.1,0,0.1,0.1c0,0,0.1,0.1,0.1,0.2v0.6	c0,0.1,0,0.1-0.1,0.2c0,0-0.1,0.1-0.1,0.1s-0.1,0-0.1,0c0,0,0-0.1,0-0.2c0-0.2-0.1-0.3-0.3-0.4c-0.2-0.2-0.6-0.2-1-0.2	c-0.4,0-0.7,0.1-1,0.2c-0.2,0.1-0.3,0.3-0.3,0.4c0,0.2,0.1,0.3,0.3,0.4c0.1,0.1,0.4,0.1,0.8,0.2c0.5,0.1,0.9,0.1,1.1,0.2	c0.3,0.1,0.5,0.2,0.6,0.4c0.1,0.2,0.2,0.4,0.2,0.6c0,0.3-0.2,0.6-0.5,0.8c-0.3,0.2-0.7,0.4-1.3,0.4s-1.1-0.1-1.4-0.4	c0,0.1,0,0.2,0,0.2s0,0.1-0.1,0.1c0,0-0.1,0-0.1,0c-0.1,0-0.1,0-0.1,0c0,0,0-0.1,0-0.2v-0.8c0-0.1,0-0.2,0-0.2c0,0,0.1-0.1,0.1-0.1	s0.1,0,0.1,0.1c0,0,0.1,0.1,0.1,0.1c0,0.1,0,0.2,0.1,0.3c0.1,0.1,0.2,0.3,0.5,0.4c0.2,0.1,0.5,0.1,0.8,0.1c0.5,0,0.8-0.1,1.1-0.3	c0.2-0.2,0.4-0.4,0.4-0.6c0-0.2-0.1-0.4-0.4-0.5c-0.2-0.1-0.6-0.2-1-0.3c-0.5-0.1-0.8-0.1-1-0.2c-0.2-0.1-0.4-0.2-0.5-0.3	c-0.1-0.2-0.2-0.3-0.2-0.5c0-0.3,0.2-0.6,0.5-0.8s0.7-0.3,1.1-0.3C167.8,506.7,168.3,506.8,168.6,507.1z M171.5,505.1v2.3	c0.2-0.2,0.5-0.4,0.7-0.5c0.2-0.1,0.5-0.2,0.7-0.2c0.3,0,0.5,0.1,0.7,0.2c0.2,0.1,0.4,0.2,0.5,0.5c0.1,0.2,0.2,0.4,0.2,0.7v2.3h0.4	c0.1,0,0.2,0,0.2,0.1c0,0,0.1,0.1,0.1,0.1c0,0.1,0,0.1-0.1,0.1c0,0-0.1,0-0.2,0h-1.2c-0.1,0-0.2,0-0.2,0c0,0,0-0.1,0-0.1	c0-0.1,0-0.1,0-0.1c0,0,0.1-0.1,0.2-0.1h0.4V508c0-0.3-0.1-0.5-0.3-0.7c-0.2-0.2-0.5-0.3-0.8-0.3c-0.3,0-0.5,0.1-0.7,0.2	c-0.1,0.1-0.4,0.3-0.7,0.7v2.3h0.4c0.1,0,0.1,0,0.2,0.1c0,0,0.1,0.1,0.1,0.1c0,0.1,0,0.1-0.1,0.1c0,0-0.1,0-0.2,0h-1.2	c-0.1,0-0.2,0-0.2,0c0,0,0-0.1,0-0.1c0-0.1,0-0.1,0-0.1c0,0,0.1-0.1,0.2-0.1h0.4v-4.8h-0.5c-0.1,0-0.2,0-0.2,0c0,0,0-0.1,0-0.1	c0-0.1,0-0.1,0-0.1c0,0,0.1-0.1,0.2-0.1H171.5z M180.2,508.8h-3.8c0.1,0.5,0.3,0.9,0.6,1.2c0.3,0.3,0.8,0.4,1.2,0.4	c0.3,0,0.6,0,0.9-0.1s0.6-0.2,0.8-0.4c0.1,0,0.1-0.1,0.1-0.1c0,0,0.1,0,0.1,0.1c0,0,0.1,0.1,0.1,0.1c0,0.1,0,0.1-0.1,0.2	c-0.1,0.1-0.4,0.3-0.8,0.4c-0.4,0.1-0.7,0.2-1.1,0.2c-0.6,0-1.2-0.2-1.6-0.6c-0.4-0.4-0.6-0.9-0.6-1.5c0-0.5,0.2-1,0.6-1.4	c0.4-0.4,0.9-0.6,1.5-0.6c0.6,0,1.1,0.2,1.5,0.6C180,507.7,180.2,508.2,180.2,508.8z M179.8,508.4c-0.1-0.4-0.3-0.7-0.6-1	c-0.3-0.3-0.7-0.4-1.1-0.4c-0.4,0-0.8,0.1-1.1,0.4c-0.3,0.2-0.5,0.6-0.6,1H179.8z M183.1,506.8v0.9c0.5-0.4,0.8-0.7,1.1-0.8	c0.2-0.1,0.5-0.2,0.7-0.2c0.2,0,0.4,0.1,0.6,0.2c0.2,0.1,0.3,0.3,0.3,0.3c0,0.1,0,0.1-0.1,0.2c0,0-0.1,0-0.1,0c0,0-0.1,0-0.1,0	c0,0-0.1,0-0.1-0.1c-0.1-0.1-0.2-0.2-0.3-0.2c-0.1,0-0.1-0.1-0.2-0.1c-0.2,0-0.3,0.1-0.6,0.2c-0.2,0.1-0.6,0.4-1.2,0.9v2h1.6	c0.1,0,0.2,0,0.2,0.1c0,0,0.1,0.1,0.1,0.1c0,0.1,0,0.1-0.1,0.1c0,0-0.1,0-0.2,0h-2.9c-0.1,0-0.2,0-0.2,0c0,0,0-0.1,0-0.1	c0,0,0-0.1,0-0.1c0,0,0.1-0.1,0.2-0.1h0.9v-3.1h-0.7c-0.1,0-0.1,0-0.2,0c0,0,0-0.1,0-0.1c0-0.1,0-0.1,0-0.1c0,0,0.1-0.1,0.2-0.1	H183.1z M189,510.6l-1.7-3.4h-0.1c-0.1,0-0.2,0-0.2,0c0,0,0-0.1,0-0.1c0,0,0-0.1,0-0.1c0,0,0-0.1,0.1-0.1c0,0,0.1,0,0.2,0h1	c0.1,0,0.2,0,0.2,0.1c0,0,0.1,0.1,0.1,0.1c0,0.1,0,0.1-0.1,0.1c0,0-0.1,0-0.2,0h-0.5l1.5,3l1.5-3h-0.5c-0.1,0-0.1,0-0.2,0	c0,0,0-0.1,0-0.1c0-0.1,0-0.1,0-0.1c0,0,0.1-0.1,0.2-0.1h1c0.1,0,0.1,0,0.2,0.1c0,0,0.1,0.1,0.1,0.1c0,0,0,0.1,0,0.1	c0,0,0,0.1-0.1,0.1c0,0-0.1,0-0.2,0l-2.3,4.8h0.6c0.1,0,0.1,0,0.2,0c0,0,0.1,0.1,0.1,0.1c0,0.1,0,0.1-0.1,0.1c0,0-0.1,0.1-0.2,0.1	h-2.1c-0.1,0-0.2,0-0.2-0.1c0,0,0-0.1,0-0.1c0-0.1,0-0.1,0-0.1c0,0,0.1,0,0.2,0h1.2L189,510.6z M195.9,507.2v-0.1c0-0.1,0-0.1,0-0.2	c0,0,0.1-0.1,0.1-0.1c0.1,0,0.1,0,0.1,0.1c0,0,0,0.1,0,0.2v0.8c0,0.1,0,0.2,0,0.2c0,0-0.1,0-0.1,0c-0.1,0-0.1,0-0.1,0	c0,0-0.1-0.1-0.1-0.2c0-0.2-0.1-0.4-0.4-0.6c-0.2-0.2-0.6-0.3-1-0.3c-0.6,0-1,0.2-1.2,0.5s-0.4,0.7-0.4,1.2c0,0.5,0.2,0.9,0.5,1.2	s0.7,0.5,1.2,0.5c0.3,0,0.6-0.1,0.9-0.2c0.3-0.1,0.6-0.3,0.8-0.5c0.1-0.1,0.1-0.1,0.2-0.1c0.1,0,0.1,0,0.1,0.1c0,0,0,0.1,0,0.1	c0,0.1-0.1,0.3-0.4,0.5c-0.5,0.3-1,0.5-1.6,0.5c-0.6,0-1.1-0.2-1.5-0.6c-0.4-0.4-0.6-0.9-0.6-1.5c0-0.6,0.2-1.1,0.6-1.5	c0.4-0.4,0.9-0.6,1.5-0.6C195,506.7,195.5,506.8,195.9,507.2z M199,506.8h2c0.1,0,0.1,0,0.2,0.1c0,0,0.1,0.1,0.1,0.1	c0,0.1,0,0.1-0.1,0.1c0,0-0.1,0-0.2,0h-2v2.5c0,0.2,0.1,0.4,0.2,0.5c0.2,0.1,0.4,0.2,0.8,0.2c0.2,0,0.5,0,0.8-0.1	c0.3-0.1,0.5-0.2,0.7-0.3c0.1,0,0.1,0,0.1,0c0.1,0,0.1,0,0.1,0.1c0,0,0.1,0.1,0.1,0.1c0,0.1,0,0.1-0.1,0.1c-0.1,0.1-0.3,0.2-0.7,0.3	c-0.4,0.1-0.7,0.2-1,0.2c-0.4,0-0.8-0.1-1-0.3c-0.2-0.2-0.4-0.5-0.4-0.8v-2.5h-0.7c-0.1,0-0.2,0-0.2,0c0,0,0-0.1,0-0.1	c0-0.1,0-0.1,0-0.1c0,0,0.1-0.1,0.2-0.1h0.7v-1.1c0-0.1,0-0.2,0-0.2c0,0,0.1-0.1,0.1-0.1c0.1,0,0.1,0,0.1,0.1c0,0,0,0.1,0,0.2V506.8	z M205.4,505.1v5.1h1.5c0.1,0,0.1,0,0.2,0.1c0,0,0.1,0.1,0.1,0.1c0,0.1,0,0.1-0.1,0.1c0,0-0.1,0-0.2,0h-3.3c-0.1,0-0.1,0-0.2,0	c0,0,0-0.1,0-0.1c0-0.1,0-0.1,0-0.1c0,0,0.1-0.1,0.2-0.1h1.5v-4.8h-1.1c-0.1,0-0.1,0-0.2,0c0,0-0.1-0.1-0.1-0.1c0-0.1,0-0.1,0-0.1	c0,0,0.1-0.1,0.2-0.1H205.4z" class="st5"/><path d="M63.1,453.9h16.5v20.2H63.1V453.9z" class="st1"/><g><g transform="matrix(0.01656535433070866 0.0 0.0 0.016561942257217847 59.94940104986876 448.4193916010499)"><defs><rect id="SVGID_1_" width="16.5" height="20.2" x="3929.5" y="931.9"/></defs><clipPath id="SVGID_2_"><use xlink:href="#SVGID_1_" style="overflow:visible"/></clipPath><g style="clip-path:url(#SVGID_2_);enable-background:new"><image style="overflow:visible" width="995" height="1219" transform="matrix(1 0 0 1 3440.22 332.5093)" xlink:href="B203EFA85E89491B.png"/></g></g><path d="M4193.7,681.3h6921v1047.8h-6921V681.3z" class="st6"/><path d="M4193.7,681.3h6921v1047.8h-6921V681.3z" class="st4"/><path d="M5163.7,1431L5008,1023.4h-1.9c2.5,32.7,3.8,71.1,3.8,115.1V1431h-49V971.6h80.2l145.3,379.3h2.8l147.1-379.3 h79.2V1431h-52.8v-296.2c0-34,1.3-70.8,3.8-110.4h-1.9L5207.1,1431H5163.7z M5679.4,1437.6c-50.9,0-91.2-15.4-120.7-46.2 c-29.6-31.4-44.3-74.5-44.3-129.2c0-56,13.5-100.3,40.6-133c27.7-32.7,64.5-49.1,110.4-49.1c43.4,0,77.7,14.5,102.8,43.4 c25.2,28.3,37.7,65.7,37.7,112.3v33H5569c0.6,40.3,10.7,70.8,30.2,91.5c19.5,20.8,46.8,31.1,82.1,31.1c37.1,0,73.6-7.5,109.4-22.6 v46.2c-18.2,8.2-35.5,13.8-51.9,17C5722.5,1435.7,5702.6,1437.6,5679.4,1437.6z M5665.2,1124.4c-27.7,0-49.7,9.1-66,27.4 c-16.3,17.6-26.1,42.5-29.2,74.5h180.2c0-33.3-7.5-58.5-22.6-75.5C5713,1133.2,5692.3,1124.4,5665.2,1124.4z M6116.7,1336.7 c0,32.1-11.9,56.9-35.8,74.5c-23.9,17.6-57.2,26.4-100,26.4c-45.9,0-81.7-7.2-107.5-21.7v-49.1c17,8.8,34.9,15.7,53.8,20.8 c18.9,4.4,37.1,6.6,54.7,6.6c27,0,47.8-4.4,62.3-13.2c15.1-8.8,22.6-22,22.6-39.6c0-13.2-6-24.5-17.9-34 c-11.3-10.1-34-21.4-67.9-34c-32.1-11.9-55-22.3-68.9-31.1c-13.2-8.8-23.3-18.9-30.2-30.2c-6.3-11.3-9.4-24.8-9.4-40.6 c0-28.3,11.3-50.6,34-67c23.3-16.4,54.7-24.5,94.3-24.5c37.1,0,73.3,7.5,108.5,22.6l-17.9,42.5c-34.6-13.8-66-20.8-94.3-20.8 c-24.5,0-43.1,3.8-55.7,11.3c-12.6,7.5-18.9,18.2-18.9,32.1c0,9.4,2.2,17.3,6.6,23.6c5,6.3,12.6,12.6,22.6,18.9 c10.7,5.7,30.8,14.2,60.4,25.5c40.9,14.5,68.5,29.2,83,44.3C6109.5,1295.2,6116.7,1314,6116.7,1336.7z M6436.8,1431v-222.6 c0-28.3-6.3-49.4-18.9-63.2c-12.6-13.8-32.7-20.8-60.4-20.8c-35.8,0-62.3,10.1-79.2,30.2c-16.3,19.5-24.5,51.6-24.5,96.2V1431 h-51.9V942.3h51.9v148.1c0,17.6-0.9,32.4-2.8,44.3h3.8c10.1-17,24.5-30.2,43.4-39.6c18.9-9.4,40.6-14.2,65.1-14.2 c42.1,0,73.6,10.1,94.3,30.2c21.4,20.1,32.1,51.9,32.1,95.3V1431H6436.8z M6742,1437.6c-50.9,0-91.2-15.4-120.7-46.2 c-29.6-31.4-44.3-74.5-44.3-129.2c0-56,13.5-100.3,40.6-133c27.7-32.7,64.5-49.1,110.4-49.1c43.4,0,77.7,14.5,102.8,43.4 c25.2,28.3,37.7,65.7,37.7,112.3v33h-236.8c0.6,40.3,10.7,70.8,30.2,91.5c19.5,20.8,46.8,31.1,82.1,31.1 c37.1,0,73.6-7.5,109.4-22.6v46.2c-18.2,8.2-35.5,13.8-51.9,17C6785.1,1435.7,6765.3,1437.6,6742,1437.6z M6727.9,1124.4 c-27.7,0-49.7,9.1-66,27.4c-16.4,17.6-26.1,42.5-29.2,74.5h180.2c0-33.3-7.5-58.5-22.6-75.5 C6775.7,1133.2,6754.9,1124.4,6727.9,1124.4z M7114.3,1080.1c15.1,0,28.9,1.3,41.5,3.8l-7.5,49.1c-14.5-3.1-27-4.7-37.7-4.7 c-27.7,0-51.6,11.3-71.7,34c-19.5,22.6-29.2,50.6-29.2,84V1431h-51.9v-344.3h42.4l6.6,64.2h1.9c13.2-22.6,28.6-39.9,46.2-51.9 C7073.1,1086.3,7092.9,1080.1,7114.3,1080.1z M7165.6,1086.7h55.7l75.5,196.2c16.4,44.7,26.4,77,30.2,97.2h2.8 c2.5-10.7,8.2-28.9,17-54.7c8.8-25.8,37.4-105.3,85.8-238.7h55.7l-148.1,392.5c-14.5,38.4-31.4,65.7-50.9,82.1 c-19.5,16.4-43.7,24.5-72.6,24.5c-15.7,0-31.4-1.9-47.2-5.7v-41.5c11.9,2.5,24.8,3.8,38.7,3.8c35.8,0,61.6-20.1,77.3-60.4 l18.9-49.1L7165.6,1086.7z M8118.1,1200.8c0,73.6-18.9,131.5-56.6,173.6c-37.1,42.1-88.7,63.2-154.7,63.2 c-67.3,0-119.5-20.8-156.6-62.3c-36.5-41.5-54.7-100-54.7-175.5c0-74.8,18.2-132.7,54.7-173.6c37.1-41.5,89.6-62.3,157.5-62.3 c66,0,117.6,21.1,154.7,63.2C8099.5,1069.4,8118.1,1127.2,8118.1,1200.8z M7752.1,1200.8c0,62.3,13.2,109.4,39.6,141.5 s64.8,48.1,115.1,48.1c50.9,0,89.3-16,115.1-48.1c26.4-32.1,39.6-79.2,39.6-141.5c0-61.6-13.2-108.5-39.6-140.6 c-25.8-32.1-63.8-48.1-114.1-48.1c-50.9,0-89.6,16-116,48.1S7752.1,1139.2,7752.1,1200.8z M8372,1437.6c-22,0-42.4-4.1-61.3-12.3 c-18.2-8.8-33.6-21.7-46.2-38.7h-3.8c2.5,20.1,3.8,39.3,3.8,57.5v141.5h-51.9v-499.1h42.4l6.6,47.2h2.8 c13.2-18.9,28.6-32.4,46.2-40.6c18.2-8.8,38.7-13.2,61.3-13.2c45.9,0,81.1,15.7,105.6,47.2c25.2,31.4,37.7,75.2,37.7,131.1 c0,56.6-12.6,100.6-37.7,132.1C8452.4,1421.9,8417.2,1437.6,8372,1437.6z M8364.4,1124.4c-34.6,0-59.7,9.7-75.5,29.2 c-15.7,19.5-23.9,50.6-24.5,93.4v11.3c0,48.4,7.9,83,23.6,103.8c16.3,20.8,42.4,31.1,78.3,31.1c29.6,0,52.8-11.9,69.8-35.9 c17-23.9,25.5-56.9,25.5-99.1c0-43.4-8.5-76.4-25.5-99.1C8419.1,1136,8395.2,1124.4,8364.4,1124.4z M8752,1437.6 c-50.9,0-91.2-15.4-120.7-46.2c-29.6-31.4-44.3-74.5-44.3-129.2c0-56,13.5-100.3,40.6-133c27.7-32.7,64.5-49.1,110.4-49.1 c43.4,0,77.7,14.5,102.8,43.4c25.2,28.3,37.7,65.7,37.7,112.3v33h-236.8c0.6,40.3,10.7,70.8,30.2,91.5 c19.5,20.8,46.8,31.1,82.1,31.1c37.1,0,73.6-7.5,109.4-22.6v46.2c-18.2,8.2-35.5,13.8-51.9,17 C8795.1,1435.7,8775.3,1437.6,8752,1437.6z M8737.9,1124.4c-27.7,0-49.7,9.1-66,27.4c-16.3,17.6-26.1,42.5-29.2,74.5h180.2 c0-33.3-7.5-58.5-22.6-75.5C8785.7,1133.2,8764.9,1124.4,8737.9,1124.4z M9124.2,1080.1c15.1,0,28.9,1.3,41.5,3.8l-7.5,49.1 c-14.5-3.1-27-4.7-37.7-4.7c-27.7,0-51.6,11.3-71.7,34c-19.5,22.6-29.2,50.6-29.2,84V1431h-51.9v-344.3h42.4l6.6,64.2h1.9 c13.2-22.6,28.6-39.9,46.2-51.9C9083.1,1086.3,9102.9,1080.1,9124.2,1080.1z M9441.6,1431l-10.4-49.1h-2.8 c-17,21.4-34,36.2-50.9,44.3c-17,7.5-38.4,11.3-64.1,11.3c-34,0-60.7-8.8-80.2-26.4c-19.5-17.6-29.2-42.8-29.2-75.5 c0-69.2,55.7-105.7,167-109.4l58.5-1.9v-20.8c0-27-6-46.9-17.9-59.4c-11.3-13.2-29.9-19.8-55.7-19.8c-28.3,0-60.7,8.8-97.2,26.4 l-16-40.6c17-8.8,35.5-15.7,55.7-20.8c20.8-5.7,41.2-8.5,61.3-8.5c40.9,0,71.1,9.1,90.6,27.4c20.1,18.2,30.2,47.5,30.2,87.7V1431 H9441.6z M9323.6,1394.2c32.7,0,58.2-8.8,76.4-26.4c18.9-18.2,28.3-43.4,28.3-75.5v-30.2l-52.8,1.9c-40.9,1.3-70.7,7.5-89.6,18.9 c-18.2,11.3-27.4,29.2-27.4,53.8c0,18.9,5.7,33.3,17,43.4C9287.5,1389.5,9303.5,1394.2,9323.6,1394.2z M9698.4,1394.2 c9.4,0,18.2-0.6,26.4-1.9c8.8-1.3,15.7-2.8,20.8-4.7v40.6c-5.7,2.5-14.1,4.7-25.5,6.6c-10.7,1.9-20.1,2.8-28.3,2.8 c-66.7,0-100-35.2-100-105.7v-204.7h-50v-25.5l50-21.7l21.7-73.6h30.2v80.2h100v40.6h-100v202.8c0,20.8,4.7,36.8,14.1,48.1 C9667.9,1388.9,9681.4,1394.2,9698.4,1394.2z M10112.3,1258.4c0,56-14.1,100-42.4,132.1c-28.3,31.4-67.6,47.2-117.9,47.2 c-30.2,0-57.2-7.2-81.1-21.7c-23.9-14.5-42.4-35.2-55.7-62.3c-13.2-27-19.8-58.8-19.8-95.3c0-56,14.1-99.7,42.4-131.1 c28.3-31.4,67.3-47.2,117-47.2c47.8,0,85.8,16,114.1,48.1C10097.8,1160.2,10112.3,1203.6,10112.3,1258.4z M9850,1258.4 c0,44,8.8,77.7,26.4,100.9c17.6,22.6,43.4,34,77.3,34s59.7-11.3,77.3-34c17.6-23.3,26.4-56.9,26.4-100.9c0-43.4-8.8-76.4-26.4-99.1 c-17.6-23.3-43.7-34.9-78.3-34.9c-34,0-59.7,11.3-77.3,34C9858.5,1181,9850,1214.3,9850,1258.4z M10360.3,1080.1 c15.1,0,28.9,1.3,41.5,3.8l-7.5,49.1c-14.5-3.1-27-4.7-37.7-4.7c-27.7,0-51.6,11.3-71.7,34c-19.5,22.6-29.2,50.6-29.2,84V1431 h-51.9v-344.3h42.4l6.6,64.2h1.9c13.2-22.6,28.6-39.9,46.2-51.9C10319.1,1086.3,10338.9,1080.1,10360.3,1080.1z" class="st5"/></g><path d="M31.5,37.9v17.2c0,3-0.9,5.4-2.8,7.2c-1.8,1.7-4.4,2.6-7.6,2.6s-5.7-0.9-7.5-2.6c-1.8-1.8-2.6-4.2-2.6-7.2V37.9	h3.1v17.4c0,2.2,0.6,3.9,1.8,5.1c1.2,1.2,3,1.8,5.4,1.8c2.2,0,4-0.6,5.2-1.8c1.2-1.2,1.8-2.9,1.8-5.2V37.9H31.5z M47.4,64.9	c-1.3,0-2.5-0.2-3.6-0.7c-1.1-0.5-2-1.2-2.7-2.2h-0.2c0.1,1.2,0.2,2.3,0.2,3.3v8.2h-3V44.6h2.5l0.4,2.7h0.1c0.8-1.1,1.7-1.9,2.7-2.4	c1-0.5,2.2-0.7,3.5-0.7c2.7,0,4.7,0.9,6.1,2.7c1.4,1.8,2.2,4.4,2.2,7.6c0,3.3-0.7,5.8-2.2,7.6C52,64,50,64.9,47.4,64.9z M47,46.8	c-2,0-3.5,0.6-4.4,1.7c-0.9,1.1-1.4,2.9-1.4,5.4v0.7c0,2.8,0.5,4.8,1.4,6c0.9,1.2,2.4,1.8,4.5,1.8c1.7,0,3.1-0.7,4-2.1	c1-1.4,1.5-3.3,1.5-5.8c0-2.5-0.5-4.4-1.5-5.7C50.1,47.4,48.7,46.8,47,46.8z M77.3,44.6v1.9l-3.7,0.4c0.3,0.4,0.6,1,0.9,1.7	c0.3,0.7,0.4,1.5,0.4,2.3c0,2-0.7,3.5-2,4.7c-1.3,1.2-3.2,1.7-5.5,1.7c-0.6,0-1.2,0-1.7-0.1c-1.3,0.7-1.9,1.5-1.9,2.6	c0,0.6,0.2,1,0.7,1.2c0.5,0.3,1.2,0.4,2.3,0.4h3.5c2.2,0,3.8,0.5,5,1.4c1.2,0.9,1.7,2.2,1.7,4c0,2.2-0.9,3.9-2.7,5	c-1.8,1.2-4.4,1.8-7.8,1.8c-2.6,0-4.6-0.5-6-1.5c-1.4-1-2.1-2.3-2.1-4.1c0-1.2,0.4-2.3,1.2-3.2c0.8-0.9,1.9-1.5,3.3-1.8	c-0.5-0.2-0.9-0.6-1.3-1.1c-0.3-0.5-0.5-1.1-0.5-1.7c0-0.7,0.2-1.4,0.6-1.9c0.4-0.6,1-1.1,1.8-1.6c-1-0.4-1.9-1.1-2.5-2.2	c-0.6-1-1-2.2-1-3.5c0-2.2,0.7-3.9,2-5.1c1.3-1.2,3.2-1.8,5.6-1.8c1,0,2,0.1,2.8,0.4H77.3z M61.4,67.9c0,1.1,0.5,1.9,1.4,2.5	c0.9,0.6,2.2,0.8,3.9,0.8c2.5,0,4.4-0.4,5.6-1.1c1.2-0.8,1.8-1.8,1.8-3.1c0-1.1-0.3-1.8-1-2.2c-0.7-0.4-1.9-0.6-3.8-0.6h-3.6	c-1.4,0-2.4,0.3-3.2,1C61.8,65.7,61.4,66.7,61.4,67.9z M63,51c0,1.4,0.4,2.5,1.2,3.2c0.8,0.7,1.9,1.1,3.3,1.1c3,0,4.4-1.4,4.4-4.3	c0-3-1.5-4.5-4.5-4.5c-1.4,0-2.5,0.4-3.3,1.2C63.4,48.3,63,49.5,63,51z M90.5,44.2c0.9,0,1.7,0.1,2.4,0.2l-0.4,2.8	C91.7,47,91,47,90.3,47c-1.6,0-3,0.7-4.2,2s-1.7,2.9-1.7,4.9v10.7h-3v-20h2.5l0.3,3.7h0.2c0.7-1.3,1.6-2.3,2.7-3	C88.1,44.6,89.3,44.2,90.5,44.2z M109,64.5l-0.6-2.8h-0.1c-1,1.2-2,2.1-3,2.5c-1,0.4-2.2,0.7-3.7,0.7c-2,0-3.5-0.5-4.7-1.5	c-1.1-1-1.7-2.5-1.7-4.3c0-4,3.2-6.2,9.7-6.3l3.4-0.1v-1.2c0-1.6-0.3-2.7-1-3.5c-0.7-0.8-1.7-1.1-3.2-1.1c-1.7,0-3.5,0.5-5.6,1.5	L97.4,46c1-0.5,2.1-0.9,3.2-1.2c1.2-0.3,2.4-0.5,3.5-0.5c2.4,0,4.2,0.5,5.3,1.6c1.1,1.1,1.7,2.7,1.7,5.1v13.6H109z M102.1,62.4	c1.9,0,3.4-0.5,4.4-1.5c1.1-1,1.6-2.5,1.6-4.3v-1.8l-3,0.1c-2.4,0.1-4.1,0.5-5.2,1.1c-1.1,0.7-1.6,1.7-1.6,3.1c0,1.1,0.3,1.9,1,2.5	C100,62.1,100.9,62.4,102.1,62.4z M131,61.9h-0.2c-1.4,2-3.5,3-6.3,3c-2.6,0-4.7-0.9-6.1-2.7c-1.4-1.8-2.2-4.3-2.2-7.6	s0.7-5.8,2.2-7.7c1.5-1.8,3.5-2.7,6.1-2.7c2.7,0,4.8,1,6.2,3h0.2l-0.1-1.4l-0.1-1.4v-8.1h3v28.4h-2.5L131,61.9z M125,62.4	c2.1,0,3.6-0.6,4.5-1.7c0.9-1.1,1.4-2.9,1.4-5.4v-0.6c0-2.8-0.5-4.9-1.4-6.1c-0.9-1.2-2.4-1.8-4.5-1.8c-1.8,0-3.1,0.7-4.1,2.1	c-0.9,1.4-1.4,3.3-1.4,5.8c0,2.6,0.5,4.5,1.4,5.8C121.8,61.7,123.2,62.4,125,62.4z M143.3,64.5h-3v-20h3V64.5z M140,39.2	c0-0.7,0.2-1.2,0.5-1.5c0.3-0.3,0.8-0.5,1.3-0.5c0.5,0,0.9,0.2,1.3,0.5c0.4,0.3,0.5,0.8,0.5,1.5c0,0.7-0.2,1.2-0.5,1.5	c-0.4,0.3-0.8,0.5-1.3,0.5c-0.5,0-0.9-0.2-1.3-0.5C140.2,40.3,140,39.8,140,39.2z M163.4,64.5V51.6c0-1.6-0.4-2.8-1.1-3.6	c-0.7-0.8-1.9-1.2-3.5-1.2c-2.1,0-3.6,0.6-4.6,1.7c-1,1.1-1.5,3-1.5,5.6v10.5h-3v-20h2.5l0.5,2.7h0.2c0.6-1,1.5-1.7,2.6-2.3	c1.1-0.5,2.4-0.8,3.8-0.8c2.4,0,4.2,0.6,5.4,1.8c1.2,1.2,1.8,3,1.8,5.6v13H163.4z M189,44.6v1.9l-3.7,0.4c0.3,0.4,0.6,1,0.9,1.7	c0.3,0.7,0.4,1.5,0.4,2.3c0,2-0.7,3.5-2,4.7c-1.3,1.2-3.2,1.7-5.5,1.7c-0.6,0-1.2,0-1.7-0.1c-1.3,0.7-1.9,1.5-1.9,2.6	c0,0.6,0.2,1,0.7,1.2c0.5,0.3,1.2,0.4,2.3,0.4h3.5c2.2,0,3.8,0.5,5,1.4c1.2,0.9,1.7,2.2,1.7,4c0,2.2-0.9,3.9-2.7,5	c-1.8,1.2-4.4,1.8-7.8,1.8c-2.6,0-4.6-0.5-6-1.5c-1.4-1-2.1-2.3-2.1-4.1c0-1.2,0.4-2.3,1.2-3.2c0.8-0.9,1.9-1.5,3.3-1.8	c-0.5-0.2-0.9-0.6-1.3-1.1c-0.3-0.5-0.5-1.1-0.5-1.7c0-0.7,0.2-1.4,0.6-1.9c0.4-0.6,1-1.1,1.8-1.6c-1-0.4-1.9-1.1-2.5-2.2	c-0.6-1-1-2.2-1-3.5c0-2.2,0.7-3.9,2-5.1s3.2-1.8,5.6-1.8c1,0,2,0.1,2.8,0.4H189z M173.1,67.9c0,1.1,0.5,1.9,1.4,2.5	c0.9,0.6,2.2,0.8,3.9,0.8c2.5,0,4.4-0.4,5.6-1.1c1.2-0.8,1.8-1.8,1.8-3.1c0-1.1-0.3-1.8-1-2.2c-0.7-0.4-1.9-0.6-3.8-0.6h-3.6	c-1.4,0-2.4,0.3-3.2,1C173.4,65.7,173.1,66.7,173.1,67.9z M174.7,51c0,1.4,0.4,2.5,1.2,3.2c0.8,0.7,1.9,1.1,3.3,1.1	c3,0,4.4-1.4,4.4-4.3c0-3-1.5-4.5-4.5-4.5c-1.4,0-2.5,0.4-3.3,1.2C175.1,48.3,174.7,49.5,174.7,51z M215,64.5l-9-23.6h-0.2	c0.2,1.9,0.3,4.1,0.3,6.7v17h-2.9V37.9h4.7l8.4,22h0.2l8.5-22h4.6v26.6h-3.1V47.4c0-2,0.1-4.1,0.3-6.4h-0.2l-9.1,23.6H215z M244.9,64.9c-2.9,0-5.3-0.9-7-2.7c-1.7-1.8-2.6-4.3-2.6-7.5c0-3.2,0.8-5.8,2.4-7.7c1.6-1.9,3.7-2.8,6.4-2.8c2.5,0,4.5,0.8,5.9,2.5	c1.5,1.6,2.2,3.8,2.2,6.5v1.9h-13.8c0.1,2.3,0.7,4.1,1.8,5.3c1.1,1.2,2.7,1.8,4.8,1.8c2.2,0,4.3-0.4,6.4-1.3v2.7	c-1.1,0.5-2.1,0.8-3,1C247.4,64.8,246.3,64.9,244.9,64.9z M244.1,46.7c-1.6,0-2.9,0.5-3.8,1.6c-0.9,1-1.5,2.5-1.7,4.3H249	c0-1.9-0.4-3.4-1.3-4.4C246.9,47.2,245.7,46.7,244.1,46.7z M270.3,59.1c0,1.9-0.7,3.3-2.1,4.3c-1.4,1-3.3,1.5-5.8,1.5	c-2.7,0-4.7-0.4-6.2-1.2v-2.8c1,0.5,2,0.9,3.1,1.2c1.1,0.3,2.2,0.4,3.2,0.4c1.6,0,2.8-0.2,3.6-0.8c0.9-0.5,1.3-1.3,1.3-2.3	c0-0.8-0.3-1.4-1-2c-0.7-0.6-2-1.2-3.9-2c-1.9-0.7-3.2-1.3-4-1.8c-0.8-0.5-1.4-1.1-1.8-1.8c-0.4-0.7-0.6-1.4-0.6-2.4	c0-1.6,0.7-2.9,2-3.8c1.3-0.9,3.1-1.4,5.5-1.4c2.1,0,4.2,0.4,6.3,1.3l-1.1,2.5c-2-0.8-3.8-1.2-5.4-1.2c-1.4,0-2.5,0.2-3.2,0.7	c-0.7,0.4-1.1,1.1-1.1,1.8c0,0.5,0.1,1,0.4,1.4c0.3,0.4,0.7,0.7,1.3,1.1c0.6,0.3,1.8,0.8,3.5,1.5c2.4,0.9,4,1.7,4.8,2.6	C269.9,56.7,270.3,57.8,270.3,59.1z M288.9,64.5V51.6c0-1.6-0.4-2.8-1.1-3.6c-0.7-0.8-1.9-1.2-3.5-1.2c-2.1,0-3.6,0.6-4.6,1.7	c-1,1.1-1.4,3-1.4,5.6v10.4h-3V36.2h3v8.6c0,1,0,1.9-0.1,2.6h0.2c0.6-1,1.4-1.7,2.5-2.3c1.1-0.6,2.4-0.8,3.8-0.8	c2.4,0,4.3,0.6,5.5,1.7c1.2,1.2,1.8,3,1.8,5.5v13H288.9z M306.6,64.9c-2.9,0-5.3-0.9-7-2.7c-1.7-1.8-2.6-4.3-2.6-7.5	c0-3.2,0.8-5.8,2.4-7.7c1.6-1.9,3.7-2.8,6.4-2.8c2.5,0,4.5,0.8,5.9,2.5c1.5,1.6,2.2,3.8,2.2,6.5v1.9h-13.8c0.1,2.3,0.7,4.1,1.8,5.3	c1.1,1.2,2.7,1.8,4.8,1.8c2.2,0,4.3-0.4,6.4-1.3v2.7c-1.1,0.5-2.1,0.8-3,1C309.1,64.8,307.9,64.9,306.6,64.9z M305.8,46.7	c-1.6,0-2.9,0.5-3.8,1.6c-0.9,1-1.5,2.5-1.7,4.3h10.5c0-1.9-0.4-3.4-1.3-4.4C308.6,47.2,307.4,46.7,305.8,46.7z M328.2,44.2	c0.9,0,1.7,0.1,2.4,0.2l-0.4,2.8c-0.8-0.2-1.6-0.3-2.2-0.3c-1.6,0-3,0.7-4.2,2c-1.1,1.3-1.7,2.9-1.7,4.9v10.7h-3v-20h2.5l0.3,3.7	h0.2c0.7-1.3,1.6-2.3,2.7-3C325.8,44.6,327,44.2,328.2,44.2z M331.2,44.6h3.2l4.4,11.4c1,2.6,1.6,4.5,1.8,5.6h0.2	c0.2-0.6,0.5-1.7,1-3.2c0.5-1.5,2.2-6.1,5-13.8h3.2l-8.6,22.7c-0.9,2.2-1.8,3.8-3,4.8c-1.1,0.9-2.5,1.4-4.2,1.4	c-0.9,0-1.8-0.1-2.7-0.3v-2.4c0.7,0.1,1.4,0.2,2.2,0.2c2.1,0,3.6-1.2,4.5-3.5l1.1-2.8L331.2,44.6z" class="st5"/></svg>