<svg width="40" height="40"  viewBox="0 0 40 40" xmlns="http://www.w3.org/2000/svg">  <g id="Icon-Architecture/32/Arch_AWS-Outposts-family_32" stroke="none" stroke-width="1" fill="none" fill-rule="evenodd">  <path d="M25,32.9889447 L25,17.9889447 L15,17.9889447 L15,22.9889447 L15,23.9889447 L15,32.9889447 L18,32.9889447 L18,29.4889447 C18,29.2129447 18.224,28.9889447 18.5,28.9889447 L21.5,28.9889447 C21.776,28.9889447 22,29.2129447 22,29.4889447 L22,32.9889447 L25,32.9889447 Z M19,32.9889447 L21,32.9889447 L21,29.9889447 L19,29.9889447 L19,32.9889447 Z M34,32.9889447 L34,33.9889447 L26,33.9889447 L25,33.9889447 L22,33.9889447 L21,33.9889447 L19,33.9889447 L18,33.9889447 L15,33.9889447 L14,33.9889447 L6,33.9889447 L6,32.9889447 L14,32.9889447 L14,23.9889447 L11.156,23.9889447 C9.219,23.9889447 7.478,22.8569447 6.822,21.1729447 C6.676,20.7979447 6.578,20.4069447 6.53,20.0099447 C6.499,19.7659447 6.483,19.5059447 6.483,19.2329447 C6.483,16.3929447 8.147,14.8019447 9.864,14.1739447 L7.286,13.2329447 L7.63,12.2939447 L11.373,13.6599447 C11.632,13.7549447 11.766,14.0419447 11.671,14.3019447 L10.305,18.0449447 L9.365,17.7019447 L10.329,15.0609447 C9.424,15.3609447 7.483,16.3419447 7.483,19.2329447 C7.483,19.4629447 7.497,19.6809447 7.522,19.8879447 C7.561,20.2039447 7.639,20.5129447 7.754,20.8109447 C8.261,22.1139447 9.628,22.9889447 11.156,22.9889447 L14,22.9889447 L14,17.4889447 C14,17.2129447 14.224,16.9889447 14.5,16.9889447 L25.5,16.9889447 C25.776,16.9889447 26,17.2129447 26,17.4889447 L26,32.9889447 L34,32.9889447 Z M22.5,19.9889447 L21.5,19.9889447 C21.224,19.9889447 21,20.2129447 21,20.4889447 L21,21.4889447 C21,21.7649447 21.224,21.9889447 21.5,21.9889447 L22.5,21.9889447 C22.776,21.9889447 23,21.7649447 23,21.4889447 L23,20.4889447 C23,20.2129447 22.776,19.9889447 22.5,19.9889447 L22.5,19.9889447 Z M18.5,19.9889447 L17.5,19.9889447 C17.224,19.9889447 17,20.2129447 17,20.4889447 L17,21.4889447 C17,21.7649447 17.224,21.9889447 17.5,21.9889447 L18.5,21.9889447 C18.776,21.9889447 19,21.7649447 19,21.4889447 L19,20.4889447 C19,20.2129447 18.776,19.9889447 18.5,19.9889447 L18.5,19.9889447 Z M22.5,23.9889447 L21.5,23.9889447 C21.224,23.9889447 21,24.2129447 21,24.4889447 L21,25.4889447 C21,25.7649447 21.224,25.9889447 21.5,25.9889447 L22.5,25.9889447 C22.776,25.9889447 23,25.7649447 23,25.4889447 L23,24.4889447 C23,24.2129447 22.776,23.9889447 22.5,23.9889447 L22.5,23.9889447 Z M18.5,23.9889447 L17.5,23.9889447 C17.224,23.9889447 17,24.2129447 17,24.4889447 L17,25.4889447 C17,25.7649447 17.224,25.9889447 17.5,25.9889447 L18.5,25.9889447 C18.776,25.9889447 19,25.7649447 19,25.4889447 L19,24.4889447 C19,24.2129447 18.776,23.9889447 18.5,23.9889447 L18.5,23.9889447 Z M11.212,12.3349447 L10.251,12.0609447 C10.859,9.92994474 12.363,8.12894474 14.177,7.36094474 C16.977,6.17594474 19.94,6.76494474 22.107,8.93794474 C22.773,9.60694474 23.321,10.4169447 23.74,11.3529447 C24.543,10.6919447 25.598,10.4579447 26.598,10.7479447 C27.981,11.1529447 28.909,12.4229447 29.12,14.1769447 C30.48,14.4989447 33.343,15.6139447 33.343,19.2889447 C33.343,22.3519447 30.947,23.8279447 29.282,24.4859447 L31.56,25.5729447 L31.128,26.4749447 L27.531,24.7589447 C27.282,24.6399447 27.177,24.3409447 27.296,24.0919447 L29.013,20.4949447 L29.915,20.9259447 L28.602,23.6769447 C30.118,23.1559447 32.343,21.9419447 32.343,19.2889447 C32.343,16.0789447 29.696,15.2779447 28.559,15.0819447 C28.291,15.0359447 28.109,14.7849447 28.149,14.5159447 C28.052,13.0849447 27.366,12.0139447 26.317,11.7079447 C25.46,11.4569447 24.534,11.7899447 23.967,12.5579447 C23.855,12.7059447 23.678,12.7789447 23.49,12.7549447 C23.308,12.7279447 23.154,12.6009447 23.093,12.4269447 C22.7,11.3139447 22.13,10.3779447 21.398,9.64394474 C20.502,8.74494474 18.041,6.81294474 14.567,8.28094474 C13.049,8.92494474 11.731,10.5159447 11.212,12.3349447 L11.212,12.3349447 Z" id="Fill-4" fill="#FFFFFF"></path> </g></svg>