<svg width="40" height="40" viewBox="0 0 40 40" fill="none" xmlns="http://www.w3.org/2000/svg">
<g clip-path="url(#clip0_23300_4294)">
<path d="M40 0H0V40H40V0Z" fill="#01A88D" fill-opacity="0.12"/>
<path fill-rule="evenodd" clip-rule="evenodd" d="M29.7839 16.8364C29.3356 14.7278 28.2159 13.2912 26.6723 12.8685C25.6606 12.591 24.5887 12.8069 23.7023 13.4294C23.5607 12.6354 23.2693 11.7476 22.6417 11.0121C20.823 8.88436 16.6426 8.34258 13.8672 9.8771C11.4311 11.224 10.564 14.1235 10.564 16.3864V16.9484C9.07034 17.4024 7.51555 18.3881 7.51555 21.3835H8.53442C8.53442 18.9864 9.59913 18.2257 11.1998 17.8201C11.4249 17.7626 11.5829 17.5618 11.5829 17.3318V16.3864C11.5829 14.4998 12.3114 11.8929 14.3644 10.7579C16.9391 9.33432 20.5082 10.0769 21.8643 11.6638C22.4124 12.3055 22.713 13.2074 22.8067 14.4998C22.822 14.7046 22.9616 14.8802 23.1572 14.9437C23.3579 15.0083 23.5709 14.9458 23.7043 14.7894C24.4247 13.9459 25.4619 13.5827 26.4013 13.841C27.6402 14.181 28.5348 15.4784 28.8547 17.4024C28.8945 17.6455 29.1074 17.8241 29.357 17.8241C29.5058 17.8241 32.9811 17.8655 32.9811 21.3835C32.9811 25.8125 29.5537 25.9184 29.4151 25.9214H26.3422V26.9303H29.4192C29.465 26.9293 34 26.8315 34 21.3835C34 18.0703 31.4457 16.9928 29.7839 16.8364ZM20.5825 21.0243C20.4307 20.8992 20.2178 20.872 20.0405 20.9567C19.8622 21.0394 19.7481 21.217 19.7481 21.4127V22.8867H17.6981V23.8956H20.2575C20.5397 23.8956 20.7669 23.6696 20.7669 23.3912V22.4842L23.7563 24.9307L20.7669 27.4055V26.3987C20.7669 26.1192 20.5397 25.8942 20.2575 25.8942H12.6038V25.3898C12.6038 25.2031 12.4998 25.0316 12.3338 24.9438C12.1657 24.8561 11.9639 24.8662 11.8091 24.9711L7.22415 28.027C7.08355 28.1208 7 28.2782 7 28.4467C7 28.6142 7.08558 28.7716 7.22517 28.8644L11.8345 31.9153C11.9201 31.9718 12.0179 32 12.1178 32C12.2003 32 12.2828 31.9808 12.3572 31.9405C12.5243 31.8527 12.6272 31.6822 12.6272 31.4956V30.9588H14.6415V29.9499H12.1178C11.8366 29.9499 11.6083 30.1749 11.6083 30.4544V30.5522L8.42336 28.4437L11.5849 26.3371V26.3987C11.5849 26.6771 11.8121 26.9031 12.0943 26.9031H19.7481V28.484C19.7481 28.6808 19.8632 28.8583 20.0415 28.9421C20.2198 29.0238 20.4317 28.9975 20.5846 28.8714L24.8801 25.3151C24.9963 25.2193 25.0625 25.076 25.0625 24.9267C25.0625 24.7774 24.9942 24.6351 24.8781 24.5393L20.5825 21.0243ZM15.6604 30.9497H17.6981V29.9409H15.6604V30.9497ZM18.716 30.9497L24.8292 30.9558L24.8312 29.9469L18.718 29.9409L18.716 30.9497ZM7.50943 23.8976H13.6226V22.8887H7.50943V23.8976ZM14.6415 23.8976H15.6604V22.8887H14.6415V23.8976Z" fill="#01A88D"/>
</g>
<rect x="0.5" y="0.5" width="39" height="39" stroke="#01A88D"/>
<defs>
<clipPath id="clip0_23300_4294">
<rect width="40" height="40" fill="white"/>
</clipPath>
</defs>
</svg>
