<svg width="24px" height="24px" viewBox="0 0 24 24" fill="none" xmlns="http://www.w3.org/2000/svg">
<path d="M23.3999 12.2003C23.3999 15.1003 22.2999 18.0003 20.0999 20.2003C15.6999 24.6003 8.5999 24.6003 4.1999 20.2003C-0.200098 15.8003 -0.200098 8.70027 4.1999 4.30027C8.2999 0.200274 14.8999 -0.0997255 19.2999 3.50027L14.4999 8.30027C12.7999 7.30027 10.4999 7.50027 8.9999 9.00027C7.1999 10.8003 7.1999 13.6003 8.9999 15.4003C10.7999 17.2003 13.5999 17.2003 15.3999 15.4003C16.2999 14.5003 16.6999 13.4003 16.6999 12.2003H18.8999C18.8999 13.9003 18.1999 15.7003 16.8999 17.0003C14.2999 19.6003 9.9999 19.6003 7.3999 17.0003C4.7999 14.4003 4.7999 10.0003 7.3999 7.40027C9.7999 5.00027 13.3999 4.80027 16.0999 6.70027L17.6999 5.10027C14.0999 2.30027 8.9999 2.60027 5.7999 5.80027C2.2999 9.30027 2.2999 15.0003 5.7999 18.5003C9.2999 22.0003 14.9999 22.0003 18.4999 18.5003C20.2999 16.7003 21.0999 14.4003 21.0999 12.1003H23.3999V12.2003Z" fill="white"/>
<path d="M12.7 10.0004C9.50002 9.60039 9.40002 12.8004 10.5 13.8004C11.6 14.7004 12.8 14.7004 13.7 13.8004C14.3 13.2004 14.5 12.4004 14.3 11.6004L20.9 5.00039C20 4.10039 19.5 3.60039 19.3 3.40039L12.7 10.0004Z" fill="#DDDDDD"/>
<path d="M2.79995 11.4002C4.23589 11.4002 5.39995 10.2361 5.39995 8.8002C5.39995 7.36426 4.23589 6.2002 2.79995 6.2002C1.36401 6.2002 0.199951 7.36426 0.199951 8.8002C0.199951 10.2361 1.36401 11.4002 2.79995 11.4002Z" fill="#DDDDDD"/>
<path d="M18.4999 22.6004C19.9358 22.6004 21.0999 21.4363 21.0999 20.0004C21.0999 18.5645 19.9358 17.4004 18.4999 17.4004C17.064 17.4004 15.8999 18.5645 15.8999 20.0004C15.8999 21.4363 17.064 22.6004 18.4999 22.6004Z" fill="#DDDDDD"/>
<path d="M10.9999 8.40059C12.0492 8.40059 12.8999 7.54993 12.8999 6.50059C12.8999 5.45124 12.0492 4.60059 10.9999 4.60059C9.95051 4.60059 9.09985 5.45124 9.09985 6.50059C9.09985 7.54993 9.95051 8.40059 10.9999 8.40059Z" fill="#DDDDDD"/>
</svg>
