<svg width="24" height="24" viewBox="0 0 24 24" fill="none" xmlns="http://www.w3.org/2000/svg">
<path d="M16.39 14.0003V9.47027L12.39 7.18027V3.78027H11.53V7.18027L7.53003 9.47027V14.0003L4.53003 15.7503L4.96003 16.4903L7.96003 14.7403H8.00003L12 17.0203L16 14.7403L18.93 16.4303L19.36 15.6903L16.39 14.0003ZM14.06 14.8803C13.9216 14.878 13.786 14.8411 13.6655 14.773C13.545 14.7048 13.4434 14.6077 13.37 14.4903H9.13003V13.6403H13.37C13.4434 13.5229 13.545 13.4257 13.6655 13.3576C13.786 13.2895 13.9216 13.2526 14.06 13.2503C14.2606 13.2725 14.446 13.368 14.5806 13.5183C14.7152 13.6687 14.7896 13.8635 14.7896 14.0653C14.7896 14.2671 14.7152 14.4618 14.5806 14.6122C14.446 14.7626 14.2606 14.858 14.06 14.8803ZM14.87 12.3903H12.7C12.6287 12.5127 12.5266 12.6143 12.4037 12.6849C12.2809 12.7556 12.1417 12.7927 12 12.7927C11.8583 12.7927 11.7191 12.7556 11.5963 12.6849C11.4735 12.6143 11.3713 12.5127 11.3 12.3903H9.13003V11.5303H11.32C11.3935 11.4168 11.4942 11.3235 11.613 11.2588C11.7318 11.1942 11.8648 11.1604 12 11.1604C12.1352 11.1604 12.2683 11.1942 12.3871 11.2588C12.5058 11.3235 12.6066 11.4168 12.68 11.5303H14.87V12.3903ZM14.87 10.2803H10.63C10.5567 10.3977 10.4551 10.4948 10.3346 10.563C10.2141 10.6311 10.0784 10.668 9.94003 10.6703C9.73944 10.648 9.5541 10.5526 9.41949 10.4022C9.28487 10.2518 9.21044 10.0571 9.21044 9.85527C9.21044 9.65345 9.28487 9.45872 9.41949 9.30835C9.5541 9.15797 9.73944 9.06253 9.94003 9.04027C10.0784 9.04258 10.2141 9.07947 10.3346 9.14759C10.4551 9.21571 10.5567 9.31288 10.63 9.43027H14.87V10.2803Z" fill="white"/>
<path d="M20.56 7.56V16.43C20.5607 16.5843 20.5202 16.736 20.4429 16.8696C20.3656 17.0031 20.2542 17.1137 20.12 17.19L12.44 21.63C12.3064 21.708 12.1547 21.7494 12 21.75V20.16L19.07 16.08V7.92L12 3.84V2.25C12.1532 2.25248 12.3037 2.29012 12.44 2.36L20.12 6.8C20.2528 6.87782 20.3631 6.98875 20.4403 7.12195C20.5174 7.25516 20.5586 7.40609 20.56 7.56Z" fill="white"/>
<path d="M3.43995 7.56V16.43C3.43929 16.5843 3.4797 16.736 3.55702 16.8696C3.63434 17.0031 3.74579 17.1137 3.87995 17.19L11.5599 21.63C11.6935 21.708 11.8453 21.7494 11.9999 21.75V20.16L4.92995 16.08V7.92L11.9999 3.84V2.25C11.8468 2.25248 11.6963 2.29012 11.5599 2.36L3.87995 6.8C3.74715 6.87782 3.6368 6.98875 3.55968 7.12195C3.48257 7.25516 3.44131 7.40609 3.43995 7.56Z" fill="white"/>
</svg>
