<svg width="40" height="40" viewBox="0 0 40 40" fill="none" xmlns="http://www.w3.org/2000/svg">
<g clip-path="url(#clip0_23310_9381)">
<path d="M40 0H0V40H40V0Z" fill="#8C4FFF" fill-opacity="0.12"/>
<path fill-rule="evenodd" clip-rule="evenodd" d="M28 26.4968C28 25.6695 27.327 24.9962 26.5 24.9962C25.673 24.9962 25 25.6695 25 26.4968C25 27.3242 25.673 27.9975 26.5 27.9975C27.327 27.9975 28 27.3242 28 26.4968ZM29 26.4968C29 27.8754 27.879 28.9979 26.5 28.9979C25.121 28.9979 24 27.8754 24 26.4968C24 25.1183 25.121 23.9958 26.5 23.9958C27.879 23.9958 29 25.1183 29 26.4968ZM15 18.4935C15 17.6661 14.327 16.9928 13.5 16.9928C12.673 16.9928 12 17.6661 12 18.4935C12 19.3208 12.673 19.9941 13.5 19.9941C14.327 19.9941 15 19.3208 15 18.4935ZM16 18.4935C16 19.872 14.879 20.9945 13.5 20.9945C12.121 20.9945 11 19.872 11 18.4935C11 17.1149 12.121 15.9924 13.5 15.9924C14.879 15.9924 16 17.1149 16 18.4935ZM20 10.4901C20 11.3174 20.673 11.9907 21.5 11.9907C22.327 11.9907 23 11.3174 23 10.4901C23 9.66273 22.327 8.98945 21.5 8.98945C20.673 8.98945 20 9.66273 20 10.4901ZM19 10.4901C19 9.1115 20.121 7.98903 21.5 7.98903C22.879 7.98903 24 9.1115 24 10.4901C24 11.8687 22.879 12.9911 21.5 12.9911C20.121 12.9911 19 11.8687 19 10.4901ZM33 19.9941C33 15.3561 30.515 11.0643 26.506 8.74334C25.785 8.88941 25.09 9.08849 24.226 9.40062L23.886 8.46022C24.332 8.29916 24.732 8.1681 25.119 8.05605C23.512 7.36376 21.771 6.9886 20 6.9886C19.156 6.9886 18.325 7.07564 17.513 7.23471C18.1 7.57785 18.621 7.921 19.128 8.30616L18.524 9.1035C17.809 8.56027 17.067 8.10207 16.098 7.59386C11.188 9.13851 7.652 13.4703 7.091 18.5565C8.121 18.3484 9.109 18.2353 10.207 18.2073L10.232 19.2078C9.081 19.2368 8.094 19.3588 7.014 19.5959C7.01 19.728 7 19.863 7 19.9941C7 24.3289 9.146 28.3246 12.676 30.7296C12.049 28.8608 11.726 27.0921 11.726 25.3694C11.726 24.3849 11.895 23.5766 12.073 22.7212L12.197 22.119L13.178 22.3121L13.053 22.9263C12.877 23.7647 12.726 24.488 12.726 25.3694C12.726 27.3212 13.158 29.342 14.028 31.535C15.889 32.5004 17.895 32.9996 20 32.9996C21.379 32.9996 22.724 32.7785 24.006 32.3563C24.508 31.3669 24.881 30.4295 25.195 29.347L26.156 29.6262C25.928 30.4145 25.666 31.1278 25.355 31.8371C26.159 31.4759 26.919 31.0277 27.634 30.5065C27.461 30.0813 27.284 29.6572 27.08 29.247L27.975 28.8008C28.146 29.144 28.288 29.5021 28.438 29.8553C31.335 27.3772 33 23.8287 33 19.9941ZM34 19.9941C34 24.3589 32.018 28.3966 28.56 31.0728C27.34 32.0212 25.98 32.7535 24.518 33.2457C23.078 33.7459 21.557 34 20 34C17.7 34 15.416 33.4268 13.394 32.3413C8.833 29.9003 6 25.1693 6 19.9941C6 19.71 6.007 19.4269 6.029 19.1487C6.37 13.3033 10.377 8.24513 16 6.57143C19.527 5.50798 23.589 5.93916 26.842 7.77894C31.257 10.252 34 14.933 34 19.9941ZM18.657 12.722L17.999 11.9687C16.879 12.9471 16.007 13.9856 14.989 15.5552L15.827 16.0994C16.792 14.6138 17.611 13.6354 18.657 12.722ZM16.812 20.1532C19.108 20.9415 21.111 22.2 23.117 24.1138L23.807 23.3905C21.694 21.3727 19.574 20.0441 17.137 19.2068L16.812 20.1532ZM23.823 13.3253C25.699 16.1875 26.756 19.3298 26.963 22.6642L25.965 22.7262C25.769 19.5679 24.767 16.5897 22.987 13.8735L23.823 13.3253Z" fill="#8C4FFF"/>
</g>
<rect x="0.5" y="0.5" width="39" height="39" stroke="#8C4FFF"/>
<defs>
<clipPath id="clip0_23310_9381">
<rect width="40" height="40" fill="white"/>
</clipPath>
</defs>
</svg>
