<svg viewBox="0 0 1500 1500" fill="none" xmlns="http://www.w3.org/2000/svg">
<mask id="emissary-mark-mask-white" mask-type="alpha" maskUnits="userSpaceOnUse" x="0" y="0" width="1500" height="1500">
<path d="M750 1500C1164.21 1500 1500 1164.21 1500 750C1500 335.786 1164.21 0 750 0C335.786 0 0 335.786 0 750C0 1164.21 335.786 1500 750 1500Z" fill="white"/>
</mask>
<g mask="url(#emissary-mark-mask-white)">
<path fill-rule="evenodd" clip-rule="evenodd" d="M204.335 804.399C204.335 476.637 473.885 312.755 750.605 312.755C1027.33 312.755 1296.88 476.637 1296.88 804.399C1296.88 904.746 1261.92 980.629 1229.97 1049.99C1203.08 1108.37 1178.32 1162.13 1178.32 1221.96C1178.32 1338.34 1246.47 1274.64 1246.47 1274.64C1246.47 1274.64 1092.03 1480.6 750.605 1480.6C409.181 1480.6 247.303 1274.64 247.303 1274.64C247.303 1274.64 305.492 1338.34 305.492 1207.41C305.492 1148.81 285.222 1101.86 262.83 1050C235.198 986 204.335 914.516 204.335 804.399ZM412.34 593.92C364.921 674.267 393.034 778.271 475.122 826.203C557.209 874.185 709.658 767.62 709.658 767.62C668.28 725.732 458.671 515.387 412.34 593.92ZM1039.3 830.344C956.493 877.098 805.683 768.279 805.683 768.279C847.628 726.973 1060.39 519.833 1105.51 598.983C1151.75 679.995 1122.1 783.591 1039.3 830.344ZM760.546 1087.47L864.834 878.895C864.834 878.895 810.207 829.234 760.546 829.234V1087.47ZM760.537 829.235C710.876 829.235 651.283 878.896 651.283 878.896L760.537 1087.47V829.235Z" fill="white"/>
<circle cx="944.195" cy="726.653" r="56.3296" fill="white"/>
<circle cx="577.818" cy="726.653" r="56.3296" fill="white"/>
<path d="M993.948 360.313C1041.45 327.046 1071.39 280.966 1063.47 216.948C986.78 202.808 893.56 284.718 835.033 333.407C824.234 332.858 806.241 331.851 795.304 331.805C874.698 243.443 949.76 137.783 864.829 136.868C800.857 136.181 749.066 221.432 705.914 306.225C743.255 208.665 764.247 102.822 656.254 121.172C549.221 139.339 604.815 258.955 636.389 351.253L993.948 360.313Z" fill="white"/>
<path fill-rule="evenodd" clip-rule="evenodd" d="M749.271 51.5874C363.95 51.5874 51.5853 363.952 51.5853 749.273C51.5853 1134.59 363.95 1446.96 749.271 1446.96C1134.59 1446.96 1446.96 1134.59 1446.96 749.273C1446.96 363.952 1134.59 51.5874 749.271 51.5874ZM-6.60327 749.273C-6.60327 331.815 331.813 -6.6012 749.271 -6.6012C1166.73 -6.6012 1505.14 331.815 1505.14 749.273C1505.14 1166.73 1166.73 1505.15 749.271 1505.15C331.813 1505.15 -6.60327 1166.73 -6.60327 749.273Z" fill="white"/>
</g>
</svg>