<svg width="90" height="90" viewBox="0 0 90 90" fill="none" xmlns="http://www.w3.org/2000/svg">
<mask id="path-1-inside-1_26091_16545" fill="white">
<rect x="4" y="4" width="82" height="82" rx="2"/>
</mask>
<rect x="4" y="4" width="82" height="82" rx="2" fill="white" stroke="#326CE5" stroke-width="6.48576" stroke-dasharray="16 4" mask="url(#path-1-inside-1_26091_16545)"/>
<mask id="path-2-inside-2_26091_16545" fill="white">
<path d="M18 24C18 22.8954 18.8954 22 20 22H57.8438C58.9483 22 59.8438 22.8954 59.8438 24V60.1003C59.8438 61.2048 58.9483 62.1003 57.8438 62.1003H20C18.8954 62.1003 18 61.2048 18 60.1003V24Z"/>
</mask>
<path d="M18 24C18 22.8954 18.8954 22 20 22H57.8438C58.9483 22 59.8438 22.8954 59.8438 24V60.1003C59.8438 61.2048 58.9483 62.1003 57.8438 62.1003H20C18.8954 62.1003 18 61.2048 18 60.1003V24Z" fill="white"/>
<path d="M20 60.4788C19.7909 60.4788 19.6214 60.3093 19.6214 60.1003H16.3786C16.3786 62.1003 17.9999 63.7217 20 63.7217V60.4788ZM19.6214 60.1003V52.8802H16.3786V60.1003H19.6214ZM19.6214 49.2702V34.8301H16.3786V49.2702H19.6214ZM19.6214 31.2201V24H16.3786V31.2201H19.6214ZM19.6214 24C19.6214 23.7909 19.7909 23.6214 20 23.6214V20.3786C17.9999 20.3786 16.3786 21.9999 16.3786 24H19.6214ZM20 23.6214H27.5688V20.3786H20V23.6214ZM31.3531 23.6214H46.4906V20.3786H31.3531V23.6214ZM50.275 23.6214H57.8438V20.3786H50.275V23.6214ZM57.8438 23.6214C58.0528 23.6214 58.2223 23.7909 58.2223 24H61.4652C61.4652 21.9999 59.8438 20.3786 57.8438 20.3786V23.6214ZM58.2223 24V31.2201H61.4652V24H58.2223ZM58.2223 34.8301V49.2702H61.4652V34.8301H58.2223ZM58.2223 52.8802V60.1003H61.4652V52.8802H58.2223ZM58.2223 60.1003C58.2223 60.3093 58.0528 60.4788 57.8438 60.4788V63.7217C59.8438 63.7217 61.4652 62.1003 61.4652 60.1003H58.2223ZM57.8438 60.4788H50.275V63.7217H57.8438V60.4788ZM46.4906 60.4788H31.3531V63.7217H46.4906V60.4788ZM27.5688 60.4788H20V63.7217H27.5688V60.4788ZM20 58.8574C20.6864 58.8574 21.2429 59.4138 21.2429 60.1003H14.7571C14.7571 62.9958 17.1044 65.3431 20 65.3431V58.8574ZM21.2429 60.1003V52.8802H14.7571V60.1003H21.2429ZM21.2429 49.2702V34.8301H14.7571V49.2702H21.2429ZM21.2429 31.2201V24H14.7571V31.2201H21.2429ZM21.2429 24C21.2429 24.6864 20.6864 25.2429 20 25.2429V18.7571C17.1044 18.7571 14.7571 21.1044 14.7571 24H21.2429ZM20 25.2429H27.5688V18.7571H20V25.2429ZM31.3531 25.2429H46.4906V18.7571H31.3531V25.2429ZM50.275 25.2429H57.8438V18.7571H50.275V25.2429ZM57.8438 25.2429C57.1573 25.2429 56.6009 24.6864 56.6009 24H63.0866C63.0866 21.1044 60.7393 18.7571 57.8438 18.7571V25.2429ZM56.6009 24V31.2201H63.0866V24H56.6009ZM56.6009 34.8301V49.2702H63.0866V34.8301H56.6009ZM56.6009 52.8802V60.1003H63.0866V52.8802H56.6009ZM56.6009 60.1003C56.6009 59.4138 57.1573 58.8574 57.8438 58.8574V65.3431C60.7393 65.3431 63.0866 62.9958 63.0866 60.1003H56.6009ZM57.8438 58.8574H50.275V65.3431H57.8438V58.8574ZM46.4906 58.8574H31.3531V65.3431H46.4906V58.8574ZM27.5688 58.8574H20V65.3431H27.5688V58.8574Z" fill="#326CE5" mask="url(#path-2-inside-2_26091_16545)"/>
<path d="M74.6206 51.7886C74.6206 47.8282 73.264 44.1739 70.9837 41.2345L69.7026 42.2283C68.656 40.8792 67.3936 39.6931 65.9642 38.717L66.8786 37.378C63.8771 35.3282 60.2105 34.1271 56.2617 34.1271C52.3128 34.1271 48.6463 35.3282 45.6447 37.378L46.5591 38.717C45.1298 39.6931 43.8673 40.8792 42.8208 42.2283L41.5396 41.2345C39.2593 44.1739 37.9027 47.8282 37.9027 51.7886C37.9027 55.7491 39.2593 59.4033 41.5396 62.3428L42.8208 61.349C43.8673 62.698 45.1298 63.8841 46.5591 64.8603L45.6447 66.1993C48.6463 68.2491 52.3128 69.4502 56.2617 69.4502C60.2105 69.4502 63.8771 68.2491 66.8786 66.1993L65.9642 64.8603C67.3936 63.8841 68.656 62.698 69.7026 61.349L70.9837 62.3428C73.264 59.4033 74.6206 55.7491 74.6206 51.7886Z" fill="white" stroke="#326CE5" stroke-width="3.24288" stroke-dasharray="16 4"/>
</svg>
