<svg width="24" height="24" viewBox="0 0 24 24" fill="none" xmlns="http://www.w3.org/2000/svg">
<path d="M10.999 7.0127H8.99902V11.0127H10.999V7.0127Z" fill="#DDDDDD"/>
<path d="M14.999 7.0127H12.999V11.0127H14.999V7.0127Z" fill="#DDDDDD"/>
<path d="M7.99989 18.9297C6.4749 18.0502 5.28293 16.6918 4.60902 15.0655C3.9351 13.4392 3.81695 11.6359 4.2729 9.9355C4.72886 8.23515 5.7334 6.73288 7.13059 5.66192C8.52779 4.59095 10.2395 4.01121 11.9999 4.0127V2.0127C9.70501 2.01592 7.48106 2.80836 5.70123 4.25705C3.92141 5.70574 2.69401 7.72252 2.225 9.96896C1.75599 12.2154 2.07391 14.5548 3.12541 16.5946C4.17691 18.6344 5.898 20.2505 7.99989 21.1717V18.9297Z" fill="#DDDDDD"/>
<path d="M12.999 17.0117H10.999V22.0117H12.999V17.0117Z" fill="white"/>
<path d="M16.99 10.0127H7V12.9497C7 13.6068 7.12943 14.2575 7.38091 14.8646C7.63238 15.4718 8.00097 16.0234 8.46564 16.4881C8.9303 16.9527 9.48194 17.3213 10.0891 17.5728C10.6962 17.8243 11.3469 17.9537 12.004 17.9537C12.6611 17.9537 13.3118 17.8243 13.9189 17.5728C14.5261 17.3213 15.0777 16.9527 15.5424 16.4881C16.007 16.0234 16.3756 15.4718 16.6271 14.8646C16.8786 14.2575 17.008 13.6068 17.008 12.9497L16.99 10.0127Z" fill="white"/>
<path d="M12.0001 18.0117C10.6664 18.0014 9.39123 17.4628 8.454 16.5139C7.51677 15.5651 6.99393 14.2834 7.00005 12.9497V10.0127H12.0001" fill="#DDDDDD"/>
<path d="M12 2.01172C14.2965 2.01285 16.5227 2.80439 18.3044 4.25334C20.0861 5.70228 21.3148 7.72033 21.7841 9.9684C22.2533 12.2165 21.9345 14.5575 20.8812 16.5983C19.8279 18.639 18.1043 20.255 16 21.1747V18.9307C17.5252 18.0512 18.7174 16.6927 19.3914 15.0662C20.0655 13.4397 20.1837 11.6361 19.7278 9.93553C19.2718 8.23494 18.2672 6.73245 16.8698 5.66131C15.4725 4.59017 13.7606 4.0103 12 4.01172V2.01172Z" fill="white"/>
</svg>
