<svg version="1.1" id="Layer_1" xmlns="http://www.w3.org/2000/svg" xmlns:xlink="http://www.w3.org/1999/xlink" x="0px" y="0px" viewBox="0 0 47.7 70.8" style="enable-background:new 0 0 47.7 70.8;" xml:space="preserve" width='47.7' height='70.8'> <style type="text/css"> .st0{fill-rule:evenodd;clip-rule:evenodd;fill:url(#SVGID_1_);} .st1{fill:url(#SVGID_2_);fill-opacity:0.27;} .st2{fill:url(#SVGID_3_);fill-opacity:0.27;} .st3{fill-rule:evenodd;clip-rule:evenodd;fill:#FFFFFF;} .st4{fill:#E4E6E5;fill-opacity:0.27;} .st5{fill:#FFFFFF;} .st6{fill-rule:evenodd;clip-rule:evenodd;fill:#E4E6E5;} .st7{fill:url(#SVGID_4_);fill-opacity:0.27;} .st8{fill:url(#SVGID_5_);} .st9{fill-rule:evenodd;clip-rule:evenodd;} .st10{fill:url(#SVGID_6_);fill-opacity:0.6;} .st11{fill:url(#SVGID_7_);fill-opacity:0.6;} </style> <linearGradient id="SVGID_1_" gradientUnits="userSpaceOnUse" x1="15.5462" y1="0.2597" x2="33.9076" y2="34.4492" gradientTransform="matrix(1 0 0 -1 2.229262e-08 72)"> <stop offset="0" style="stop-color:#000000"/> <stop offset="0.4211" style="stop-color:#000000"/> </linearGradient> <path class="st0" d="M14.8,37.2C14.9,36,16,35,17.3,35h13.2c1.3,0,2.4,0.9,2.5,2.2l1.7,14.7c2,3,5.5,3.8,6.1,3.8 c0.3,0,0.8-0.4,1.3-0.8c0.6-0.5,1.2-1,1.8-1c0.6,0,0.4,0.8,0.2,1.5c0,0.1,0.1,0.2,0.2,0.2c0.6-0.3,1.7-0.7,2.2-0.5 c0.8,0.3,1,2.8-0.5,4.2c-2.4,1.2-8.1,0.7-11.4-1.4c-0.1,0.3-0.2,0.6-0.4,0.8c-0.1,0.9-0.2,1.6-0.3,1.8c-0.2,0.9-1.5,4.1-1.7,4.5 c-0.2,0.4-1.5,5.3-1.5,5.5c0,0.1-1.6,0.1-3.2,0.2c-0.8,0-1.6,0-2.1,0c0.1-0.6,0.4-1.8,1.3-1.8c0.8,0,1.2,0.1,1.3,0.2 c-0.3-1-1-3-1.5-3.3c-0.2-0.1-0.4-0.3-0.7-0.5l0,0h0c-1-0.7-2.5-1.8-2.9-1.8c-0.1,0-0.3,0-0.6,0c-0.8,0-2.2-0.1-2.3,0 c-0.2,0.2-0.9,1-1.3,1.4l-1.3,2.5l-0.6,3.1h-5.1c0.6-0.8,1.9-2.2,2.5-1.8c0.7,0.3,0.6-1.1,0.4-1.8l-1.5-4.5l-0.1-4.4 c-3.2,2.3-10.9,2.3-12.3,0.9c-1.5-1.4-0.8-3.5,0-3.8c0.5-0.2,1.4,0.1,2,0.4c0.2,0.1,0.4-0.1,0.4-0.3c-0.2-0.6-0.3-1.2,0.3-1.2 c0.5,0,1.2,0.5,1.8,1c0.5,0.4,1,0.8,1.3,0.8c0.7,0,5.1-1,6.8-5.1c0,0,0,0,0,0L14.8,37.2z"/> <linearGradient id="SVGID_2_" gradientUnits="userSpaceOnUse" x1="18.2885" y1="8.4351" x2="18.2885" y2="1.8601" gradientTransform="matrix(1 0 0 -1 2.229262e-08 72)"> <stop offset="0" style="stop-color:#E4E6E5"/> <stop offset="1" style="stop-color:#E4E6E5;stop-opacity:0"/> </linearGradient> <path class="st1" d="M20.5,63.6l-1.9,1.8c-0.3,0.7-1,3.6-1.6,4.7h-0.8c-0.3,0,1.4-4.1,1.1-4.9c-0.2-0.6-0.6-0.8-0.6-0.8l3-0.8H20.5z "/> <linearGradient id="SVGID_3_" gradientUnits="userSpaceOnUse" x1="31.9642" y1="37.405" x2="31.9642" y2="1.6538" gradientTransform="matrix(1 0 0 -1 2.229262e-08 72)"> <stop offset="0" style="stop-color:#E4E6E5"/> <stop offset="1" style="stop-color:#E4E6E5;stop-opacity:0"/> </linearGradient> <path class="st2" d="M24.5,62.1c-3.2-0.7-7.1,0.9-8,2.3c0.2-0.2,4.6-1.4,6.8-0.8c1.7,0.5,2.8,1.6,3.2,2.1l1.9,3.5 c-0.1-0.1-0.5-0.4-0.6-0.4c-0.2,0-1.2,0.3-1.7,0.4l-0.6,1.2l5.3-0.2l3.4-9.7l0.6-2.9l1.3,0.6l5.5,1.4l5.1-0.6l1.1-2.3l-1.3-1.8 l-2.7,0.8l0.8-1.6l-0.8-0.2l-2.7,1.4c-4.1-0.5-6-3.4-6.5-4.7l-0.6-6.2l-1.1-9.9L21.9,35l2,0.9c0.4,0.2,0.6,0.7,0.5,1.1 c-0.6,1.6-1.2,4.5-0.5,6c0.4,1,1,2.2,1.7,2.9c0,0,0.8,0.8-0.4,1.2c1.7,1.4,5.7,3.1,5.7,3.1s-0.2,2.3-0.8,3.5 c1.9,1.8,2.7,4.5,1.3,7.4C30.6,62.3,28.5,62.9,24.5,62.1z"/> <path class="st3" d="M34.6,54.5c0.2,0,0.4,0.2,0.4,0.4c-0.1,2.5-0.2,3.9-0.5,5.1c-0.2,1.3-0.6,2.4-1.2,4.2l0,0 c-0.2,0.5-0.4,1.1-0.6,1.7c-0.5,1.5-1.1,3.2-1.5,4.3c-0.1,0.3-0.3,0.4-0.6,0.4h-5.6v-0.4c0-1.1,0.8-1.7,1.6-2c0.3-0.1,0.7-0.1,1-0.1 c-0.8-1.6-1.8-2.7-2.8-3.4c-1.2-0.8-2.4-1.1-3.6-1.2c-2.3-0.1-4.2,0.8-4.6,1c0,0,0,0,0,0c-0.2,0.1-0.5,0-0.6-0.2 c-0.1-0.2,0-0.4,0.2-0.6c0,0,0,0,0,0c0.4-0.2,2.5-1.2,5-1.1c1.3,0.1,2.7,0.4,4,1.4c1.3,0.9,2.6,2.4,3.5,4.7c0.1,0.2,0,0.4-0.2,0.5 c-0.2,0.1-0.4,0.1-0.5-0.1c-0.1-0.1-0.2-0.2-0.5-0.2c-0.2,0-0.5,0-0.8,0c-0.4,0.1-0.8,0.4-0.9,0.8h4.5c0.3-1.1,0.9-2.8,1.4-4.2 c0.2-0.7,0.4-1.3,0.6-1.7c0.6-1.9,1-2.9,1.2-4.1c0.2-1.2,0.3-2.6,0.4-5C34.2,54.7,34.4,54.5,34.6,54.5z"/> <path class="st3" d="M33.1,44.3l-1.1-9l0.8-0.1l1.1,9.1l0.3,4.9c0.1,0.8,0.2,1.7,0.6,2.3c0.9,1.5,2.2,2.4,3.4,3 c0.6,0.3,1.1,0.5,1.6,0.6c0.4,0.1,0.7,0.2,0.8,0.2c0,0,0,0,0.1,0c0.1,0,0.2-0.1,0.3-0.2c0.2-0.1,0.4-0.3,0.7-0.5 c0,0,0.1-0.1,0.1-0.1c0.3-0.2,0.6-0.5,0.9-0.7c0.3-0.2,0.6-0.4,1-0.4c0.2,0,0.3,0,0.4,0.1c0.1,0.1,0.2,0.2,0.3,0.3 c0.1,0.2,0.1,0.5,0.1,0.7c0,0.1,0,0.2-0.1,0.3c0,0,0.1,0,0.1,0c0.3-0.1,0.6-0.2,0.9-0.3c0.3-0.1,0.7-0.1,1,0 c0.3,0.1,0.6,0.4,0.8,0.7c0.2,0.3,0.3,0.7,0.4,1.1c0.1,0.8-0.1,1.9-1,2.7c-0.5,0.5-1.3,0.7-2.3,0.9c-1,0.1-2.1,0.2-3.4,0.1 c-2.4-0.2-5.1-0.9-6.8-2.2l0.5-0.6c1.5,1.2,4,1.8,6.3,2c1.2,0.1,2.3,0.1,3.2-0.1c0.9-0.1,1.5-0.4,1.8-0.6c0.6-0.6,0.8-1.4,0.7-2 c0-0.3-0.1-0.6-0.3-0.8c-0.1-0.2-0.3-0.3-0.3-0.3c-0.1,0-0.2,0-0.5,0c-0.2,0-0.5,0.1-0.8,0.2c-0.3,0.1-0.5,0.2-0.7,0.3 c-0.1,0-0.2,0.1-0.2,0.1c0,0,0,0-0.1,0l0,0l0,0l0,0l-1.2,0.7l0.6-1.2c0.1-0.3,0.3-0.7,0.4-1c0-0.1,0-0.2,0-0.2 c-0.1,0-0.3,0.1-0.5,0.2c-0.3,0.2-0.5,0.4-0.8,0.6c0,0-0.1,0.1-0.1,0.1c-0.2,0.2-0.5,0.4-0.7,0.6c-0.1,0.1-0.3,0.2-0.4,0.2 C41,55.9,40.9,56,40.7,56c-0.2,0-0.6-0.1-1.1-0.2c-0.5-0.1-1.1-0.3-1.7-0.6c-1.3-0.6-2.7-1.6-3.7-3.3c-0.5-0.8-0.7-1.8-0.8-2.7 L33.1,44.3z M43.8,54.1C43.8,54.1,43.8,54.1,43.8,54.1L43.8,54.1z"/> <path class="st4" d="M6.5,58.6c-3.7,0.7-5.2-1.8-5.5-3.1l-0.6,0.2l0.6,2.5c0.5,0.4,1.9,1.3,3.6,1.4c1.7,0.2,6.3-1.2,8.4-1.8v-2.9 C12.9,55.6,11.2,57.8,6.5,58.6z"/> <path class="st3" d="M14.6,44.3l1.1-9l-0.8-0.1l-1.1,9.1l-0.3,4.9c-0.1,0.8-0.2,1.7-0.6,2.3c-0.9,1.5-2.2,2.4-3.4,3 c-0.6,0.3-1.1,0.5-1.6,0.6c-0.4,0.1-0.7,0.2-0.8,0.2c0,0,0,0-0.1,0c-0.1,0-0.2-0.1-0.3-0.2c-0.2-0.1-0.4-0.3-0.7-0.5 c0,0-0.1-0.1-0.1-0.1c-0.3-0.2-0.6-0.5-0.9-0.7c-0.3-0.2-0.6-0.4-1-0.4c-0.2,0-0.3,0-0.4,0.1c-0.1,0.1-0.2,0.2-0.3,0.3 C3,54,3,54.3,3.1,54.5c0,0.1,0,0.2,0.1,0.3c0,0-0.1,0-0.1,0c-0.3-0.1-0.6-0.2-0.9-0.3c-0.3-0.1-0.7-0.1-1,0 c-0.3,0.1-0.6,0.4-0.8,0.7c-0.2,0.3-0.3,0.7-0.4,1.1c-0.1,0.8,0.1,1.9,1,2.7c0.5,0.5,1.3,0.7,2.3,0.9c1,0.1,2.1,0.2,3.4,0.1 c2.4-0.2,5.1-0.9,6.8-2.2l-0.5-0.6c-1.5,1.2-4,1.8-6.3,2c-1.2,0.1-2.3,0.1-3.2-0.1c-0.9-0.1-1.5-0.4-1.8-0.6c-0.6-0.6-0.8-1.4-0.7-2 c0-0.3,0.1-0.6,0.3-0.8c0.1-0.2,0.3-0.3,0.3-0.3c0.1,0,0.2,0,0.5,0c0.2,0,0.5,0.1,0.8,0.2c0.3,0.1,0.5,0.2,0.7,0.3 c0.1,0,0.2,0.1,0.2,0.1c0,0,0,0,0.1,0l0,0l0,0l0,0l1.2,0.7l-0.6-1.2c-0.1-0.3-0.3-0.7-0.4-1c0-0.1,0-0.2,0-0.2 c0.1,0,0.3,0.1,0.5,0.2C4.7,54.5,5,54.7,5.3,55c0,0,0.1,0.1,0.1,0.1c0.2,0.2,0.5,0.4,0.7,0.6c0.1,0.1,0.3,0.2,0.4,0.2 C6.6,55.9,6.8,56,7,56c0.2,0,0.6-0.1,1.1-0.2c0.5-0.1,1.1-0.3,1.7-0.6c1.3-0.6,2.7-1.6,3.7-3.3c0.5-0.8,0.7-1.8,0.8-2.7L14.6,44.3z M3.9,54.1C3.9,54.1,3.9,54.1,3.9,54.1L3.9,54.1z"/> <path class="st5" d="M12.1,35.6H33h0.6c0.5,0,0.9-0.3,0.9-0.6V0.9c0-0.5-0.6-0.9-1.4-0.8C14.2,0.9,8.8,20.8,8.1,32.9 C8,34.4,9.9,35.6,12.1,35.6z"/> <path class="st6" d="M33.6,1.1c0-0.3-0.4-0.6-0.9-0.6c-9,0.4-14.9,5.5-18.7,12c-3.7,6.5-5.2,14.5-5.6,20.5c-0.1,1.3,1.5,2.3,3.5,2.3 h21.1c0.2,0,0.4-0.1,0.4-0.3V1.1z M32.7,0c1-0.1,1.8,0.5,1.8,1.1v34c0,0.5-0.6,0.9-1.3,0.9H12c-2.5,0-4.5-1.3-4.4-2.9 c0.3-6.1,1.8-14.1,5.6-20.7C17,5.8,23.1,0.5,32.7,0z"/> <path class="st6" d="M26.8,4.1c0.1,0.1,0.1,0.3-0.1,0.4c-4.7,2.1-8,6-10.3,10.4c-2.3,4.4-3.4,9.4-3.9,13.5c0,0.2-0.2,0.3-0.5,0.3 c-0.2,0-0.4-0.1-0.4-0.3c0.5-4.2,1.7-9.2,3.9-13.7c2.3-4.5,5.7-8.5,10.6-10.7C26.4,3.9,26.7,3.9,26.8,4.1z"/> <path class="st5" d="M28.3,30.2c-1.6,2.8-9.6,3.4-14.6,5.1l-0.2,0.1h20.8L33.8,0C31.4,12.5,30.5,26.4,28.3,30.2z"/> <linearGradient id="SVGID_4_" gradientUnits="userSpaceOnUse" x1="21.4153" y1="21.5843" x2="21.4153" y2="17.6804" gradientTransform="matrix(1 0 0 -1 2.229262e-08 72)"> <stop offset="0" style="stop-color:#E4E6E5"/> <stop offset="1" style="stop-color:#E4E6E5;stop-opacity:0"/> </linearGradient> <path class="st7" d="M21.5,52.7c-1-0.5-0.6,0.9-0.2,1.6l-1.5-0.6l-1.3-0.8c0.3-0.5,0.6-1.1,1.1-1.4c0.3-0.2,0.6-0.2,1-0.2h0.2 l1.5,0.6l1.3,0.8l0.6,0.6h0C23.8,53.3,22.8,53.3,21.5,52.7z"/> <path class="st5" d="M8.9,35.6c2-23.7,12.5-32.6,17.4-34c-1-0.4-3.3,0.9-4.4,1.5l-3.9,3c-3.2,2.1-6.6,11.1-7.9,15.4L8.1,34.1 L8.9,35.6z"/> <path class="st3" d="M33.6,1.1c0-0.3-0.4-0.6-0.9-0.6c-9,0.4-14.9,5.5-18.7,12c-3.7,6.5-5.2,14-5.6,20c-0.1,1.3,1.5,2.3,3.5,2.3 c0,0,20.9,0,21.1,0c0.2,0,0.4-0.1,0.4-0.3V1.1z M32.7,0c1-0.1,1.8,0.5,1.8,1.1v34c0,0.5-0.6,0.9-1.3,0.9H12c-2.5,0-4.5-1.3-4.4-2.9 c0.3-6.1,1.8-14.1,5.6-20.7C17,5.8,23.1,0.5,32.7,0z"/> <linearGradient id="SVGID_5_" gradientUnits="userSpaceOnUse" x1="14.2944" y1="17.2693" x2="14.2944" y2="3.503" gradientTransform="matrix(1 0 0 -1 2.229262e-08 72)"> <stop offset="0" style="stop-color:#FFFFFF"/> <stop offset="1" style="stop-color:#FFFFFF;stop-opacity:0"/> </linearGradient> <path class="st8" d="M14.1,61.9c-0.4-1.6-0.7-5.2-0.8-7.2l-0.4,0.2c0.2,2.3,0.6,7.1,0.6,7.4c0,0.3,0.6,2.3,0.8,3.3l0.6,2.9h0.6 C16.1,67.7,14.7,63.5,14.1,61.9z"/> <path class="st3" d="M13.1,54.1c0.2,0,0.4,0.2,0.4,0.4c-0.1,0.9,0,2.5,0.1,4.2c0.1,1.7,0.3,3.4,0.5,4.3c0.1,0.6,0.3,1.3,0.5,1.9 c0.1,0.3,0.2,0.7,0.3,1c0.1,0.5,0.3,1,0.3,1.4c0.1,0.3,0.1,0.6,0.1,0.9c0.3,0.1,0.6,0.3,0.8,0.6c0.1,0.2,0.1,0.4-0.1,0.6 c-0.2,0.1-0.5,0.1-0.6-0.1c-0.1-0.1-0.3-0.3-0.5-0.3c-0.3-0.1-0.6-0.1-1-0.1c-0.5,0.1-1.1,0.4-1.5,1h4.2c0.1-0.9,0.3-2.2,0.8-3.5 c0.6-1.4,1.6-2.7,3.5-3.3c0.2-0.1,0.5,0.1,0.5,0.3c0.1,0.2-0.1,0.4-0.3,0.5c-1.5,0.5-2.4,1.6-2.9,2.8c-0.5,1.3-0.7,2.6-0.7,3.6 c0,0.2-0.2,0.4-0.4,0.4h-5.3c-0.1,0-0.3-0.1-0.3-0.2c-0.1-0.1-0.1-0.3-0.1-0.4c0.5-1.3,1.5-1.9,2.4-2.1c0.2,0,0.5-0.1,0.7,0 c0-0.2,0-0.4-0.1-0.6c-0.1-0.4-0.2-0.8-0.3-1.3c-0.1-0.3-0.2-0.6-0.3-0.9c-0.2-0.7-0.4-1.4-0.6-2c-0.2-1.1-0.4-2.8-0.6-4.5 c-0.1-1.7-0.2-3.3-0.1-4.3C12.7,54.3,12.9,54.1,13.1,54.1z"/> <path class="st5" d="M22.1,40.4c0,2.4-1.9,4.3-4.2,4.3s-4.2-1.9-4.2-4.3c0-2.4,1.9-4.3,4.2-4.3S22.1,38,22.1,40.4z"/> <path class="st9" d="M17.9,36.3c-2.2,0-4,1.8-4,4.1c0,2.3,1.8,4.1,4,4.1c2.2,0,4-1.8,4-4.1C21.8,38.1,20.1,36.3,17.9,36.3z M13.4,40.4c0-2.5,2-4.5,4.4-4.5s4.4,2,4.4,4.5c0,2.5-2,4.5-4.4,4.5S13.4,42.9,13.4,40.4z"/> <path class="st5" d="M34.1,40.6c0,2.5-1.9,4.5-4.2,4.5c-2.3,0-4.2-2-4.2-4.5s1.9-4.5,4.2-4.5C32.2,36.1,34.1,38.1,34.1,40.6z"/> <path class="st9" d="M29.9,36.3c-2.2,0-4,1.9-4,4.3c0,2.4,1.8,4.3,4,4.3s4-1.9,4-4.3C33.8,38.2,32,36.3,29.9,36.3z M25.4,40.6 c0-2.6,2-4.7,4.4-4.7s4.4,2.1,4.4,4.7c0,2.6-2,4.7-4.4,4.7S25.4,43.2,25.4,40.6z"/> <path d="M28.5,46.4c-3.2,2-8.9,0.5-11.4-0.6l-2.2-0.8c-0.1,0.3-0.2,1.3,0,2.5c0.2,1.2,0.3,2.3,0.6,3.3c0.5,1.8,2.7,5.3,8,5.5 c4.1,0.1,6.4-2.6,7.4-4.8c0.5-1.1,0.6-2.4,0.6-3.6v-1.4C30.8,46.7,29.2,46.6,28.5,46.4z"/> <path class="st9" d="M14.7,44.8l2.4,0.9l0,0c1.2,0.5,3.2,1.2,5.4,1.4c2.1,0.3,4.3,0.1,5.8-0.8l0.1,0l0.1,0c0.4,0.1,0.9,0.1,1.5,0.2 c0.3,0,0.6,0,0.8,0c0.2,0,0.4-0.1,0.6-0.1l0.3-0.1v1.8c0,1.2-0.1,2.6-0.6,3.7c-1,2.3-3.4,5.1-7.6,5c-5.4-0.2-7.7-3.8-8.2-5.6 c-0.3-1-0.4-2.1-0.6-3.3c-0.2-1.3-0.1-2.2,0-2.6L14.7,44.8z M15,45.3c-0.1,0.4-0.1,1.2,0,2.2c0.2,1.2,0.3,2.3,0.6,3.3 c0.4,1.7,2.6,5.1,7.8,5.3c4,0.1,6.2-2.5,7.2-4.7c0.5-1.1,0.6-2.3,0.6-3.6v-1.1c-0.1,0-0.3,0.1-0.4,0.1c-0.3,0-0.6,0-0.9,0 c-0.5,0-1.1-0.1-1.5-0.2c-1.7,1-3.9,1.1-6,0.8c-2.2-0.3-4.2-0.9-5.5-1.5L15,45.3z"/> <path class="st5" d="M17.3,53c-0.2,0.2-0.4,0.4-0.4,0.5c2,2.1,3.6,2.7,6.8,2.9c3.2,0.2,5.5-2.1,6.4-3.3l-1-0.9 c-0.4-0.3-1-0.3-1.4,0.1c-0.9,1-2.6,2.2-4.8,2.3c-1.9,0.1-3.1-0.7-3.8-1.5C18.6,52.6,17.7,52.5,17.3,53z"/> <path class="st9" d="M28.9,52.3c-0.3-0.3-0.8-0.2-1.1,0.1c-0.9,1-2.6,2.3-4.9,2.4c-1.9,0.1-3.2-0.7-4-1.6c-0.2-0.2-0.5-0.3-0.7-0.4 c-0.3,0-0.5,0-0.7,0.2c-0.1,0.1-0.2,0.2-0.3,0.3c0.9,1,1.8,1.6,2.7,2c1,0.4,2.2,0.6,3.8,0.7c3,0.2,5.2-1.8,6.1-3.1L28.9,52.3z M27.5,52.1c0.4-0.5,1.2-0.6,1.7-0.1l1.2,1l-0.1,0.1c-0.9,1.3-3.3,3.6-6.6,3.4c-1.6-0.1-2.8-0.3-3.9-0.7c-1.1-0.5-2-1.2-3-2.2 l-0.1-0.1l0.1-0.1c0.1-0.1,0.2-0.2,0.4-0.5c0.3-0.3,0.7-0.4,1-0.4c0.4,0,0.7,0.2,1,0.5c0.7,0.8,1.9,1.5,3.7,1.4 C25,54.3,26.6,53.1,27.5,52.1z"/> <path class="st5" d="M23.7,49.5c-4.4-0.2-6.1-2.1-7.2-3.5l0.2-0.2l5.5,1.3c1.1,0.3,2.3,0.3,3.5,0.1l2.9-0.6h1.2l0.2,0.2 C28.3,49.2,24.7,49.5,23.7,49.5z"/> <path d="M23.7,54.4c-2.6,0.5-4.5-0.8-5.2-1.6c0.5-1.7,1.7-1.9,2.8-1.6c0.6,0,1.5,0.6,2.2,1.1c0.2,0.2,0.4,0.3,0.4,0.3 c1.8-3.3,3.4-1.9,4-0.8C27.5,52.5,26.2,53.9,23.7,54.4z"/> <path class="st9" d="M27.4,50.9c0.3,0.3,0.5,0.6,0.7,0.9l0.1,0.1l0,0.1c-0.4,0.7-1.7,2.2-4.3,2.6C21,55.1,19,53.7,18.3,53l-0.1-0.1 l0-0.1c0.3-0.9,0.7-1.4,1.3-1.7c0.5-0.3,1.1-0.2,1.7-0.1c0.4,0,0.8,0.2,1.2,0.4c0.4,0.2,0.8,0.5,1.2,0.8c0.1,0.1,0.2,0.1,0.2,0.2 c0.8-1.5,1.7-2,2.5-1.9C26.7,50.5,27.1,50.7,27.4,50.9z M24.1,52.6c0.8-1.5,1.6-1.9,2.2-1.8c0.3,0,0.6,0.2,0.8,0.4 c0.2,0.2,0.4,0.4,0.5,0.7c-0.4,0.6-1.6,1.9-4,2.3c-2.4,0.4-4.2-0.7-4.9-1.4c0.3-0.7,0.6-1.1,1-1.3c0.4-0.2,0.9-0.2,1.4-0.1 c0.8,0.2,1.7,0.7,2.1,1.1c0.3,0.3,0.6,0.5,0.8,0.7c0.1,0.1,0.2,0.1,0.3,0c0.1-0.1,0.1-0.2,0-0.3C24.4,52.8,24.2,52.7,24.1,52.6z"/> <path class="st9" d="M24.3,41.2H23v-0.8h1.3V41.2z"/> <path d="M20.2,32.4c-1.3-0.6-2.8,0.2-3.7,0.8c-0.4,0.3-0.6,0.8-0.2,1.1c0.4,0.4,1,0.2,1.2,0.1c0.5-0.4,1.5-0.6,1.9-0.6 c0.9-0.1,1.2-0.5,1.2-0.9C20.6,32.8,20.4,32.6,20.2,32.4z"/> <path d="M28.1,32c1.4-0.8,2.7,0.3,3.6,1c0.5,0.4,0.8,1.2,0.5,1.7c-0.1,0.1-0.1,0.2-0.2,0.2c-0.5,0.3-1.1-0.5-1.3-0.6 c-0.5-0.5-1.4-0.7-1.8-0.8c-1-0.2-1.2-0.7-1.1-1.1C27.7,32.3,27.9,32.1,28.1,32z"/> <path class="st9" d="M14.5,44.5l2.7,0.9l0,0c1.2,0.5,3.2,1.1,5.3,1.4c2.1,0.3,4.2,0.1,5.7-0.8l0.1-0.1l0.2,0 c0.4,0.1,0.9,0.1,1.5,0.2c0.3,0,0.5,0,0.8,0c0.2,0,0.4-0.1,0.5-0.1l0.6-0.3v2.1c0,1.3-0.1,2.6-0.6,3.8c-1.1,2.4-3.5,5.2-7.8,5.1 c-5.5-0.2-7.9-3.9-8.4-5.8c-0.3-1-0.5-2-0.6-3.4c0-0.5-0.1-1.1-0.1-1.5c0-0.5,0-0.9,0.1-1.1L14.5,44.5z M15.2,45.6 c0,0.1,0,0.3,0,0.4c0,0.5,0,1,0.1,1.5c0.1,1.3,0.3,2.3,0.6,3.2c0.4,1.6,2.6,5,7.6,5.1c3.9,0.1,6-2.4,7-4.6c0.5-1.1,0.6-2.2,0.6-3.5 V47c-0.1,0-0.1,0-0.2,0c-0.3,0-0.6,0-0.9,0c-0.5,0-1-0.1-1.4-0.1c-1.7,1-4,1.1-6.1,0.8c-2.2-0.3-4.3-0.9-5.5-1.5L15.2,45.6z"/> <path class="st9" d="M18.1,39.1c-0.2,0-0.4,0-0.7,0c-0.6,0.1-1.2,0.4-1.5,0.9c-0.4,0.5-0.5,1.1-0.5,1.6c0.1,0.6,0.4,1.2,0.8,1.6 c0.5,0.4,1.1,0.7,1.7,0.7c0.6,0,1.2-0.1,1.7-0.5c0.5-0.4,0.8-0.9,0.9-1.5c0-0.3,0-0.5,0-0.8c-0.3,0.2-0.6,0.3-1,0.3 c-0.3,0-0.5-0.1-0.7-0.2c0,0.1,0,0.1,0,0.2c0,0,0,0.1,0,0.1c0,0.2-0.1,0.4-0.3,0.5c-0.2,0.1-0.4,0.2-0.6,0.2c-0.2,0-0.4-0.1-0.5-0.2 c-0.1-0.1-0.2-0.3-0.3-0.5c0-0.2,0-0.4,0.2-0.5c0.1-0.2,0.3-0.3,0.5-0.3c0.1,0,0.1,0,0.2,0c0,0,0.1,0,0.1,0 c-0.2-0.3-0.3-0.5-0.3-0.9C17.9,39.6,18,39.4,18.1,39.1z"/> <path class="st9" d="M29.5,39.1c-0.2,0-0.4,0-0.7,0c-0.6,0.1-1.2,0.4-1.5,0.9c-0.4,0.5-0.5,1.1-0.5,1.6c0.1,0.6,0.4,1.2,0.8,1.6 c0.5,0.4,1.1,0.7,1.7,0.7c0.6,0,1.2-0.1,1.7-0.5c0.5-0.4,0.8-0.9,0.9-1.5c0-0.3,0-0.5,0-0.8c-0.3,0.2-0.6,0.3-1,0.3 c-0.3,0-0.5-0.1-0.7-0.2c0,0.1,0,0.1,0,0.2c0,0,0,0.1,0,0.1c0,0.2-0.1,0.4-0.3,0.5c-0.2,0.1-0.4,0.2-0.6,0.2c-0.2,0-0.4-0.1-0.5-0.2 c-0.1-0.1-0.2-0.3-0.3-0.5c0-0.2,0-0.4,0.2-0.5c0.1-0.2,0.3-0.3,0.5-0.3c0.1,0,0.1,0,0.2,0c0,0,0.1,0,0.1,0 c-0.2-0.3-0.3-0.5-0.3-0.9C29.3,39.6,29.4,39.4,29.5,39.1z"/> <linearGradient id="SVGID_6_" gradientUnits="userSpaceOnUse" x1="17.6567" y1="37.0566" x2="17.6567" y2="26.1522" gradientTransform="matrix(1 0 0 -1 2.229262e-08 72)"> <stop offset="0" style="stop-color:#000000;stop-opacity:0.54"/> <stop offset="1" style="stop-color:#000000;stop-opacity:0.49"/> </linearGradient> <path class="st10" d="M23.3,40.4c0,3-2.5,5.5-5.6,5.5c-3.1,0-5.6-2.4-5.6-5.5c0-3,2.5-5.5,5.6-5.5C20.7,34.9,23.3,37.4,23.3,40.4z" /> <path class="st3" d="M17.7,35.4c-2.9,0-5.2,2.3-5.2,5c0,2.8,2.3,5,5.2,5c2.9,0,5.2-2.3,5.2-5C22.8,37.6,20.5,35.4,17.7,35.4z M11.6,40.4c0-3.2,2.7-5.9,6-5.9c3.3,0,6,2.6,6,5.9c0,3.2-2.7,5.9-6,5.9C14.3,46.3,11.6,43.6,11.6,40.4z"/> <linearGradient id="SVGID_7_" gradientUnits="userSpaceOnUse" x1="30.0935" y1="36.6677" x2="30.0935" y2="25.3737" gradientTransform="matrix(1 0 0 -1 2.229262e-08 72)"> <stop offset="0" style="stop-color:#000000;stop-opacity:0.54"/> <stop offset="1" style="stop-color:#000000;stop-opacity:0.49"/> </linearGradient> <path class="st11" d="M35.9,41c0,3.1-2.6,5.6-5.8,5.6s-5.8-2.5-5.8-5.6c0-3.1,2.6-5.6,5.8-5.6S35.9,37.9,35.9,41z"/> <path class="st3" d="M30.1,35.7c-3,0-5.4,2.3-5.4,5.2s2.4,5.2,5.4,5.2c3,0,5.4-2.3,5.4-5.2S33.1,35.7,30.1,35.7z M23.9,41 c0-3.3,2.8-6.1,6.2-6.1c3.4,0,6.2,2.7,6.2,6.1c0,3.3-2.8,6.1-6.2,6.1C26.7,47,23.9,44.3,23.9,41z"/> </svg>