<svg id="Layer_1" data-name="Layer 1" xmlns="http://www.w3.org/2000/svg" viewBox="0 0 1090 1090"><defs><style>.cls-1{fill:#369;}.cls-2{fill:#fff;}</style></defs><circle class="cls-1" cx="545" cy="544.24077" r="539.99998"/><path class="cls-2" d="M408.31586,370.29092c1.566-3.5086,2.88522-5.95633,3.78109-8.5498,9.31958-26.9783,22.598-52.03442,37.25016-76.40924,21.48376-35.73959,51.53528-62.95072,87.14154-83.778,20.19037-11.81008,42.69934-18.83878,65.258-25.39755a501.64736,501.64736,0,0,1,95.14777-18.30648c22.2774-2.00306,44.86578-.55931,67.31525-.65121a6.07705,6.07705,0,0,1,1.25177.08913c4.83136,1.00265,7.50109-.49125,9.77581-5.41007,7.32764-15.84541,24.72821-23.94095,42.20874-20.49887,16.47968,3.245,29.42951,18.09454,30.48615,34.9583a38.51229,38.51229,0,0,1-25.76746,38.94124,38.04822,38.04822,0,0,1-44.30957-14.55c-2.28131-3.43071-4.11084-4.32275-8.2771-3.52043-29.84668,5.74756-58.80316,14.25951-86.02276,27.85979-21.27655,10.63083-40.90668,24.1533-55.43085,43.03131-10.87634,14.13672-19.845,29.9455-28.13049,45.80759-10.95533,20.97348-20.05085,42.859-24.43207,66.35247a38.00943,38.00943,0,0,0-.71942,5.369c-.11939,2.90055-.03211,5.80954-.03211,9.44168,8.13874-1.36248,15.78534-2.56173,23.40113-3.932,28.07818-5.05194,56.37048-8.77478,84.89752-7.84977,29.85418.968,55.85547,12.29648,76.71649,33.94492,11.39282,11.82288,22.31091,24.13834,32.87042,36.711,6.15643,7.33014,11.191,15.60055,16.70795,23.46362.87829,1.25168,1.65448,2.5762,2.45032,3.88379,3.0169,4.95676,6.13,7.56217,13.21032,6.749,21.784-2.50161,37.44263,15.6366,37.98389,33.94022a35.51462,35.51462,0,1,1-70.98651,2.46344q-.05768-1.66361.04053-3.32718c.41034-5.814,2.78051-11.4902,4.734-19.10925-4.02172-3.85431-8.90136-9.41458-14.64245-13.86817-17.55078-13.61474-36.19916-25.56622-56.61768-34.52212a23.28716,23.28716,0,0,0-8.51092-1.845c-24.49866-.68006-48.1142,2.77365-69.82471,15.13113-3.51959,2.00336-6.15424,4.221-6.367,8.49545-.20734,4.16657-.61866,8.33085-.63752,12.49744-.06262,13.79987-.08282,27.60172.10236,41.39981.04382,3.26434-1.27771,4.65283-4.25775,4.8255-3.481.20166-6.97028.41986-10.45386.38855q-42.72573-.38424-85.45068-.85406c-6.26361-.05976-7.68366,1.23932-7.88971,7.4339-.75977,22.84515-1.92932,45.68994-2.05811,68.53985-.2395,42.5083.03845,85.02069.30475,127.53.17182,27.43286,4.29657,54.29767,13.45557,80.21887,6.2691,17.74243,17.53119,32.04755,34.48071,40.23273,9.68146,4.67535,20.823,6.69165,31.522,8.83746,20.98334,4.20856,41.64148-.36023,62.26606-3.69037,6.9259-1.11834,13.73968-2.9292,20.99115-4.50763-.325,3.31586-.73011,7.24262-1.09217,11.17334-2.696,29.27228-5.43823,58.54047-8.001,87.82441-.3039,3.473-1.93763,5.22827-4.897,6.42334a195.81217,195.81217,0,0,1-43.81134,12.06066c-21.9956,3.37623-44.05121,5.43134-66.31427,4.51178a251.52649,251.52649,0,0,1-72.95-13.54571c-27.9769-9.76056-49.721-27.37653-67.00507-51.20367-13.84729-19.08942-20.216-41.03083-26.04589-63.2851-5.85648-22.35584-7.29544-45.30316-9.31058-68.20227-3.49027-39.66126-2.39334-79.39441-2.3678-119.1048.02582-40.138.61984-80.27569,1.00659-120.41321.09656-10.02142.17014-10.00207-9.68847-9.9953q-30.16237.02088-60.32471.00208c-6.23868-.00324-7.09473-.56781-7.17792-6.88245-.145-11.00628.37726-22.02453.10846-33.0253-.37756-15.45178-.84225-30.92288-2.08923-46.31958-.39588-4.88769-2.62168-10.07794-5.35565-14.25122-14.24454-21.74383-33.45676-37.78311-58.10679-46.3797a82.67849,82.67849,0,0,0-47.42718-2.327c-29.24086,7.09973-47.742,26.20239-59.72366,52.72235-.79787,1.766-1.56536,3.54565-2.42705,5.50067,6.9024,5.497,11.68638,12.275,13.34709,21.04614,3.36288,17.76145-7.95068,35.16425-25.38574,38.93021-17.9771,3.883-35.6762-6.94638-39.9699-24.45609-4.3784-17.85556,6.2907-36.08883,24.1097-40.37365,3.69876-.88944,4.56007-2.61707,5.08864-5.73969,3.04886-18.01123,6.82362-35.81506,15.088-52.34723,14.3165-28.63867,35.76737-49.44861,65.47785-62.23117a168.11529,168.11529,0,0,1,63.79431-13.55633c12.10785-.23584,24.28287,2.64425,36.41806,4.19369,29.33249,3.74533,52.11881,19.785,73.33286,38.8562C383.45676,348.56149,395.55936,359.05087,408.31586,370.29092Z"/></svg>
