<svg width="40" height="40" viewBox="0 0 40 40" fill="none" xmlns="http://www.w3.org/2000/svg">
<g clip-path="url(#clip0_23295_3136)">
<path d="M40 0H0V40H40V0Z" fill="#DD344C" fill-opacity="0.12"/>
<path fill-rule="evenodd" clip-rule="evenodd" d="M13 23.5C13 24.327 13.673 25 14.5 25H25.5C26.327 25 27 24.327 27 23.5V14.5C27 13.673 26.327 13 25.5 13H14.5C13.673 13 13 13.673 13 14.5V23.5ZM16 12H24V9.75C24 8.233 22.584 7 20.844 7H19.156C17.416 7 16 8.233 16 9.75V12ZM14.5 12H15V9.75C15 7.682 16.864 6 19.156 6H20.844C23.136 6 25 7.682 25 9.75V12H25.5C26.879 12 28 13.122 28 14.5V23.5C28 24.878 26.879 26 25.5 26H14.5C13.121 26 12 24.878 12 23.5V14.5C12 13.122 13.121 12 14.5 12ZM30.5 10H26V11H30.5C31.327 11 32 11.673 32 12.5V27.5C32 28.327 31.327 29 30.5 29H18.5C18.224 29 18 29.224 18 29.5V32.459L13.812 29.109C13.724 29.039 13.613 29 13.5 29H9.5C8.673 29 8 28.327 8 27.5V12.5C8 11.673 8.673 11 9.5 11H14V10H9.5C8.121 10 7 11.122 7 12.5V27.5C7 28.878 8.121 30 9.5 30H13.324L18.187 33.891C18.278 33.963 18.389 34 18.5 34C18.573 34 18.647 33.984 18.717 33.951C18.89 33.867 19 33.692 19 33.5V30H30.5C31.879 30 33 28.878 33 27.5V12.5C33 11.122 31.879 10 30.5 10ZM18.854 22.854L24.854 16.854L24.146 16.146L18.146 22.146L18.854 22.854ZM15.854 21.854L15.146 21.146L21.146 15.146L21.854 15.854L15.854 21.854Z" fill="#DD344C"/>
</g>
<rect x="0.5" y="0.5" width="39" height="39" stroke="#DD344C"/>
<defs>
<clipPath id="clip0_23295_3136">
<rect width="40" height="40" fill="white"/>
</clipPath>
</defs>
</svg>
