<svg width="90" height="90" viewBox="0 0 90 90" fill="none" xmlns="http://www.w3.org/2000/svg">
<mask id="path-1-inside-1_26091_16586" fill="white">
<path fill-rule="evenodd" clip-rule="evenodd" d="M16.6757 13.6635H20.1391H63.0499V37.4639L66.5134 36.8172V12.2C66.5134 11.0954 65.618 10.2 64.5134 10.2H23.6026H20.1391V8.42696V6.73651V4.96348H23.6026H68.2628H71.7263V8.42696V36.7275L75.1898 37.3338V4.96348V3.5C75.1898 2.39543 74.2944 1.5 73.1898 1.5H71.7263H20.1391H18.6757C17.5711 1.5 16.6757 2.39543 16.6757 3.5V4.96348V6.73651V10.2H13.2122H9.99927C8.8947 10.2 7.99927 11.0954 7.99927 12.2V86.5C7.99927 87.6046 8.8947 88.5 9.99927 88.5H64.5134C65.618 88.5 66.5134 87.6046 66.5134 86.5V83.2635V79.8H69.9769H71.7263H73.1898C74.2943 79.8 75.1898 78.9046 75.1898 77.8V76.3365V67.0589C75.149 67.0812 75.1082 67.1033 75.0672 67.1253L71.7263 68.9187V72.873V76.3365H69.9769H68.2628H66.5134V72.873V68.7429L63.5002 67.1253C63.3485 67.0439 63.1984 66.9604 63.0499 66.875V76.3365V79.8V85.0365H11.4627V13.6635H16.6757Z"/>
</mask>
<path fill-rule="evenodd" clip-rule="evenodd" d="M16.6757 13.6635H20.1391H63.0499V37.4639L66.5134 36.8172V12.2C66.5134 11.0954 65.618 10.2 64.5134 10.2H23.6026H20.1391V8.42696V6.73651V4.96348H23.6026H68.2628H71.7263V8.42696V36.7275L75.1898 37.3338V4.96348V3.5C75.1898 2.39543 74.2944 1.5 73.1898 1.5H71.7263H20.1391H18.6757C17.5711 1.5 16.6757 2.39543 16.6757 3.5V4.96348V6.73651V10.2H13.2122H9.99927C8.8947 10.2 7.99927 11.0954 7.99927 12.2V86.5C7.99927 87.6046 8.8947 88.5 9.99927 88.5H64.5134C65.618 88.5 66.5134 87.6046 66.5134 86.5V83.2635V79.8H69.9769H71.7263H73.1898C74.2943 79.8 75.1898 78.9046 75.1898 77.8V76.3365V67.0589C75.149 67.0812 75.1082 67.1033 75.0672 67.1253L71.7263 68.9187V72.873V76.3365H69.9769H68.2628H66.5134V72.873V68.7429L63.5002 67.1253C63.3485 67.0439 63.1984 66.9604 63.0499 66.875V76.3365V79.8V85.0365H11.4627V13.6635H16.6757Z" fill="white"/>
<path d="M63.0499 13.6635H66.5134V10.2H63.0499V13.6635ZM63.0499 37.4639H59.5864V41.6339L63.6856 40.8686L63.0499 37.4639ZM66.5134 36.8172L67.1491 40.2219L69.9769 39.6939V36.8172H66.5134ZM20.1391 10.2H16.6757V13.6635H20.1391V10.2ZM20.1391 4.96348V1.5H16.6757V4.96348H20.1391ZM71.7263 4.96348H75.1898V1.5H71.7263V4.96348ZM71.7263 36.7275H68.2628V39.6374L71.1291 40.1392L71.7263 36.7275ZM75.1898 37.3338L74.5926 40.7454L78.6533 41.4562V37.3338H75.1898ZM16.6757 10.2V13.6635H20.1391V10.2H16.6757ZM66.5134 79.8V76.3365H63.0499V79.8H66.5134ZM75.1898 67.0589H78.6533V61.2152L73.527 64.0206L75.1898 67.0589ZM75.0672 67.1253L73.4292 64.0737L73.4291 64.0737L75.0672 67.1253ZM71.7263 68.9187L70.0882 65.8671L68.2628 66.847V68.9187H71.7263ZM71.7263 76.3365V79.8H75.1898V76.3365H71.7263ZM66.5134 76.3365H63.0499V79.8H66.5134V76.3365ZM66.5134 68.7429H69.9769V66.6711L68.1515 65.6913L66.5134 68.7429ZM63.5002 67.1253L65.1383 64.0737L65.1382 64.0737L63.5002 67.1253ZM63.0499 66.875L64.7777 63.8732L59.5864 60.8852V66.875H63.0499ZM63.0499 85.0365V88.5H66.5134V85.0365H63.0499ZM11.4627 85.0365H7.99927V88.5H11.4627V85.0365ZM11.4627 13.6635V10.2H7.99927V13.6635H11.4627ZM20.1391 10.2H16.6757V17.127H20.1391V10.2ZM63.0499 10.2H20.1391V17.127H63.0499V10.2ZM66.5134 37.4639V13.6635H59.5864V37.4639H66.5134ZM65.8777 33.4126L62.4142 34.0593L63.6856 40.8686L67.1491 40.2219L65.8777 33.4126ZM69.9769 36.8172V12.2H63.0499V36.8172H69.9769ZM69.9769 12.2C69.9769 9.1826 67.5308 6.73651 64.5134 6.73651V13.6635C63.7051 13.6635 63.0499 13.0082 63.0499 12.2H69.9769ZM64.5134 6.73651H23.6026V13.6635H64.5134V6.73651ZM23.6026 6.73651H20.1391V13.6635H23.6026V6.73651ZM23.6026 10.2V8.42696H16.6757V10.2H23.6026ZM23.6026 8.42696V6.73651H16.6757V8.42696H23.6026ZM23.6026 6.73651V4.96348H16.6757V6.73651H23.6026ZM20.1391 8.42696H23.6026V1.5H20.1391V8.42696ZM23.6026 8.42696H68.2628V1.5H23.6026V8.42696ZM68.2628 8.42696H71.7263V1.5H68.2628V8.42696ZM68.2628 4.96348V8.42696H75.1898V4.96348H68.2628ZM68.2628 8.42696V36.7275H75.1898V8.42696H68.2628ZM75.787 33.9222L72.3235 33.3159L71.1291 40.1392L74.5926 40.7454L75.787 33.9222ZM78.6533 37.3338V4.96348H71.7263V37.3338H78.6533ZM78.6533 4.96348V3.5H71.7263V4.96348H78.6533ZM78.6533 3.5C78.6533 0.482611 76.2072 -1.96348 73.1898 -1.96348V4.96348C72.3815 4.96348 71.7263 4.30825 71.7263 3.5H78.6533ZM73.1898 -1.96348H71.7263V4.96348H73.1898V-1.96348ZM71.7263 -1.96348H20.1391V4.96348H71.7263V-1.96348ZM20.1391 -1.96348H18.6757V4.96348H20.1391V-1.96348ZM18.6757 -1.96348C15.6583 -1.96348 13.2122 0.482606 13.2122 3.5H20.1391C20.1391 4.30826 19.4839 4.96348 18.6757 4.96348V-1.96348ZM13.2122 3.5V4.96348H20.1391V3.5H13.2122ZM13.2122 4.96348V6.73651H20.1391V4.96348H13.2122ZM13.2122 6.73651V10.2H20.1391V6.73651H13.2122ZM16.6757 6.73651H13.2122V13.6635H16.6757V6.73651ZM13.2122 6.73651H9.99927V13.6635H13.2122V6.73651ZM9.99927 6.73651C6.98187 6.73651 4.53579 9.1826 4.53579 12.2H11.4627C11.4627 13.0082 10.8075 13.6635 9.99927 13.6635V6.73651ZM4.53579 12.2V86.5H11.4627V12.2H4.53579ZM4.53579 86.5C4.53579 89.5174 6.98187 91.9635 9.99927 91.9635V85.0365C10.8075 85.0365 11.4627 85.6917 11.4627 86.5H4.53579ZM9.99927 91.9635H64.5134V85.0365H9.99927V91.9635ZM64.5134 91.9635C67.5308 91.9635 69.9769 89.5174 69.9769 86.5H63.0499C63.0499 85.6917 63.7051 85.0365 64.5134 85.0365V91.9635ZM69.9769 86.5V83.2635H63.0499V86.5H69.9769ZM69.9769 83.2635V79.8H63.0499V83.2635H69.9769ZM66.5134 83.2635H69.9769V76.3365H66.5134V83.2635ZM69.9769 83.2635H71.7263V76.3365H69.9769V83.2635ZM71.7263 83.2635H73.1898V76.3365H71.7263V83.2635ZM73.1898 83.2635C76.2072 83.2635 78.6533 80.8174 78.6533 77.8H71.7263C71.7263 76.9917 72.3815 76.3365 73.1898 76.3365V83.2635ZM78.6533 77.8V76.3365H71.7263V77.8H78.6533ZM78.6533 76.3365V67.0589H71.7263V76.3365H78.6533ZM76.7052 70.177C76.7545 70.1505 76.8036 70.1239 76.8525 70.0971L73.527 64.0206C73.4945 64.0384 73.4619 64.0561 73.4292 64.0737L76.7052 70.177ZM73.3644 71.9703L76.7053 70.1769L73.4291 64.0737L70.0882 65.8671L73.3644 71.9703ZM68.2628 68.9187V72.873H75.1898V68.9187H68.2628ZM68.2628 72.873V76.3365H75.1898V72.873H68.2628ZM71.7263 72.873H69.9769V79.8H71.7263V72.873ZM69.9769 72.873H68.2628V79.8H69.9769V72.873ZM68.2628 72.873H66.5134V79.8H68.2628V72.873ZM69.9769 76.3365V72.873H63.0499V76.3365H69.9769ZM69.9769 72.873V68.7429H63.0499V72.873H69.9769ZM61.862 70.1769L64.8753 71.7944L68.1515 65.6913L65.1383 64.0737L61.862 70.1769ZM61.3221 69.8767C61.5002 69.9792 61.6802 70.0793 61.8621 70.1769L65.1382 64.0737C65.0169 64.0086 64.8967 63.9417 64.7777 63.8732L61.3221 69.8767ZM66.5134 76.3365V66.875H59.5864V76.3365H66.5134ZM66.5134 79.8V76.3365H59.5864V79.8H66.5134ZM66.5134 85.0365V79.8H59.5864V85.0365H66.5134ZM11.4627 88.5H63.0499V81.573H11.4627V88.5ZM7.99927 13.6635V85.0365H14.9262V13.6635H7.99927ZM16.6757 10.2H11.4627V17.127H16.6757V10.2Z" fill="white" mask="url(#path-1-inside-1_26091_16586)"/>
<path d="M69.5679 38.9766L59.4791 40.8603C58.5325 41.0371 57.8462 41.8633 57.8462 42.8263V51.5197C57.8462 56.6865 60.6865 61.4349 65.2389 63.8787L68.9776 65.8857C69.5683 66.2028 70.2787 66.2028 70.8695 65.8857L74.6082 63.8787C79.1605 61.4349 82.0008 56.6865 82.0008 51.5197V42.7046C82.0008 41.733 81.3027 40.902 80.3457 40.7345L70.2798 38.9725C70.0442 38.9313 69.8031 38.9326 69.5679 38.9766Z" fill="white"/>
</svg>