<svg width="90" height="90" viewBox="0 0 90 90" fill="none" xmlns="http://www.w3.org/2000/svg">
<path fill-rule="evenodd" clip-rule="evenodd" d="M59.3608 24.8144C59.3608 36.1362 50.3153 45.3143 39.157 45.3143C27.9988 45.3143 18.9533 36.1362 18.9533 24.8144C18.9533 13.4926 27.9988 4.31445 39.157 4.31445C50.3153 4.31445 59.3608 13.4926 59.3608 24.8144ZM42.354 25.6914C44.2657 24.6559 45.5666 22.6125 45.5666 20.2609C45.5666 16.863 42.8503 14.1083 39.4997 14.1083C36.149 14.1083 33.4328 16.863 33.4328 20.2609C33.4328 22.612 34.7331 24.655 36.6441 25.6908L34.9906 32.3984C34.7122 33.5277 35.5669 34.6187 36.73 34.6187H42.268C43.4311 34.6187 44.2858 33.5277 44.0074 32.3984L42.354 25.6914ZM65.6055 54.8145C66.501 54.8145 67.3798 54.8858 68.2366 55.0231C65.4963 50.2885 60.9961 46.6998 55.6307 45.1517C55.0835 44.9939 54.5006 45.1288 54.0366 45.459C50.2214 48.1751 45.1594 49.8297 39.6055 49.8297C34.0516 49.8297 28.9895 48.1751 25.1743 45.459C24.7104 45.1288 24.1274 44.9939 23.5803 45.1517C14.6424 47.7306 8.10547 55.972 8.10547 65.7402V72.2727C8.10547 79.4755 13.9445 85.3145 21.1472 85.3145H56.8692C52.2067 82.3989 49.1055 77.2188 49.1055 71.3145C49.1055 62.2018 56.4928 54.8145 65.6055 54.8145ZM64.6787 42.8733C69.6673 45.9876 73.2337 51.1672 74.1813 57.2154C77.3148 59.1255 79.7616 62.0507 81.0647 65.5343V62.6442C81.1574 52.7979 74.0327 44.4669 64.6787 42.8733ZM65.3005 24.7457C65.3005 29.6771 63.8307 34.2602 61.3115 38.0687C67.8765 35.8359 72.6069 29.5439 72.6069 22.1308C72.6069 12.8493 65.1915 5.32522 56.0441 5.32522C55.8672 5.32522 55.6909 5.32804 55.5154 5.33362C61.4433 9.68172 65.3005 16.7566 65.3005 24.7457ZM77.2454 70.3845C77.2454 77.0505 71.8414 82.4545 65.1754 82.4545C58.5093 82.4545 53.1054 77.0505 53.1054 70.3845C53.1054 63.7184 58.5093 58.3145 65.1754 58.3145C71.8414 58.3145 77.2454 63.7184 77.2454 70.3845ZM71.4567 68.4481L64.8731 75.0352C64.5861 75.3223 64.1923 75.4767 63.7867 75.4611C63.381 75.4455 63.0002 75.2614 62.7361 74.9531L59.4443 71.1107L61.6572 69.2148L63.9249 71.8618L69.3957 66.3881L71.4567 68.4481Z" fill="white"/>
</svg>
