<svg xmlns="http://www.w3.org/2000/svg" width="18" height="18" viewBox="0 0 18 18"><defs><linearGradient id="a" x1="9" y1="15.799" x2="9" y2="5.316" gradientUnits="userSpaceOnUse"><stop offset="0" stop-color="#32bedd"/><stop offset=".775" stop-color="#32d4f5"/></linearGradient></defs><path d="M.544 5.316h16.912v9.918a.565.565 0 01-.565.565H1.109a.565.565 0 01-.565-.565V5.316z" fill="url(#a)"/><path d="M1.112 2.2h15.776a.565.565 0 01.565.565v2.55H.547V2.766a.565.565 0 01.565-.566z" fill="#0078d4"/><path d="M13.9 7.32H9.715a.224.224 0 01-.125-.038l-1.2-.795a.219.219 0 00-.124-.038H4.752a.224.224 0 00-.224.224v7.392a.223.223 0 00.224.223H13.9a.224.224 0 00.224-.223V7.544a.224.224 0 00-.224-.224z" fill="#5ea0ef"/><rect x="5.154" y="6.905" width="2.318" height=".464" rx=".098" fill="#fff"/><rect x="5.154" y="6.905" width=".464" height=".464" rx=".067" fill="#0078d4"/><path d="M13.9 7.309H9.3a.225.225 0 00-.159.066l-.739.739a.225.225 0 01-.159.066H4.752a.224.224 0 00-.224.224v5.65a.223.223 0 00.224.223H13.9a.224.224 0 00.224-.223V7.533a.224.224 0 00-.224-.224z" fill="#fff" opacity=".9"/></svg>