<svg width="32" height="32" viewBox="0 0 32 32" fill="none" xmlns="http://www.w3.org/2000/svg"><path d="M16.405 8.732v6.57l5.694-3.297-5.694-3.273Zm0 7.942v6.602l5.747-3.285-5.747-3.317Z" fill="#fff"/><path d="M15.586 15.256v-6.47l-5.622 3.225 5.622 3.245ZM4.307 23.252a13.809 13.809 0 0 0 4.362 4.39v-6.914l-4.362 2.524Zm11.279-.008v-6.52L9.95 19.985l5.636 3.258Z" fill="#fff" fill-opacity=".8"/><path d="m9.49 27.23 5.707-3.263-5.707-3.3v6.563Z" fill="#fff"/><path d="M22.54 27.265v-6.553l-5.699 3.259 5.7 3.294Zm5.58-4.773a13.697 13.697 0 0 0 1.612-5.895l-5.934 3.397 4.323 2.498Z" fill="#fff" fill-opacity=".8"/><path d="m23.362 19.298 5.728-3.276-5.728-3.291v6.567Z" fill="#fff"/><path d="M22.541 11.315V4.8l-5.673 3.253 5.673 3.262Zm0 7.955v-6.574l-5.685 3.292 5.685 3.281Z" fill="#fff" fill-opacity=".8"/><path d="M9.49 12.684v6.622l5.728-3.316-5.728-3.306Z" fill="#fff"/><path d="M15.586 2.25a13.69 13.69 0 0 0-6.037 1.595l6.037 3.463V2.25Z" fill="#fff" fill-opacity=".8"/><path d="M9.49 4.756v6.583l5.732-3.288L9.49 4.756Z" fill="#fff"/><path d="M8.669 4.356a13.83 13.83 0 0 0-4.362 4.39l4.362 2.518V4.356Z" fill="#fff" fill-opacity=".8"/><path d="M22.504 3.88a13.695 13.695 0 0 0-6.099-1.63v5.123l6.1-3.493ZM2.25 16.483c.071 2.12.634 4.196 1.644 6.062l4.418-2.559-6.062-3.503Zm1.644-7.028a13.68 13.68 0 0 0-1.644 6.036l6.068-3.482-4.424-2.554Z" fill="#fff"/><path d="M9.539 28.147a13.673 13.673 0 0 0 6.047 1.603v-5.062L9.54 28.147Z" fill="#fff" fill-opacity=".8"/><path d="M27.697 8.768a13.83 13.83 0 0 0-4.335-4.383v6.889l4.335-2.506ZM23.362 27.62a13.851 13.851 0 0 0 4.351-4.417l-4.351-2.514v6.93Z" fill="#fff"/><path d="M29.75 15.452a13.659 13.659 0 0 0-1.63-5.979l-4.381 2.53 6.011 3.45Z" fill="#fff" fill-opacity=".8"/><path d="M16.405 29.75a13.673 13.673 0 0 0 6.036-1.595l-6.036-3.498v5.093Z" fill="#fff"/><path d="M8.669 19.247v-6.494L3.03 15.986l5.639 3.261Z" fill="#fff" fill-opacity=".8"/></svg>