<svg xmlns="http://www.w3.org/2000/svg" role="img" viewBox="48.91 -1.09 472.18 576.68"><defs><style>.cls-2{fill:#00b4c8}</style></defs><path fill="none" d="M196.604 498.09a89.682 89.682 0 0 0-13.023.965 40.633 40.633 0 0 0-11.9 3.536 21.616 21.616 0 0 0-8.521 7.237 20.21 20.21 0 0 0-3.215 11.737 31.384 31.384 0 0 0 1.219 9.165 17.022 17.022 0 0 0 7.46 9.96q8.682 5.31 23.477 5.307 18.004 0 27.333-1.93v-43.083a75.905 75.905 0 0 0-9.323-1.93 86.893 86.893 0 0 0-13.507-.965z"/><path d="M449.796 202.845q-59.153 58.926-118.375 117.786L146.075 505.977l-.455-.454c-10.614 10.65-21.158 21.371-31.393 32.377-5.393 5.8-7.384 13.173-1.166 19.87 6.506 7.012 14.346 6.588 21.53 1.266 5.376-3.982 10.062-8.948 14.822-13.705q150.23-150.18 300.194-300.633l60.89-10.613c-9.937-10.087-51.278-40.626-60.7-31.24z" class="cls-2"/><path d="M478.784 292.437a12.923 12.923 0 0 0-9.082-12.55c-9.699-3.506-16.357 2.168-22.599 8.406Q324.865 410.481 202.66 532.702c-7.21 7.214-14.657 15.812-5.816 25.346 9.758 10.524 18.9 2.988 26.64-4.743q123.57-123.452 247.065-246.983c3.915-3.915 7.825-7.863 8.236-13.885zm-162.923-9.911l17.142-17.141c-1.391-4.326-4.908-8.414-8.611-12.12Q206.824 135.632 89.169 18.086c-4.387-4.384-9.075-8.341-15.87-8.073-5.329.275-9.597 2.553-11.62 7.553-3.576 8.834.995 15.298 6.89 21.195q117.585 117.616 235.184 235.215c3.707 3.706 7.796 7.18 12.108 8.55zm154.131 108.506c7.257-7.343 13.7-16.123 3.918-25.36-8.782-8.293-17.17-2.51-24.072 4.354-31.334 31.157-62.48 62.504-93.819 93.655-10.96 10.893-10.454 21.057.401 31.721 18.385 18.067 36.744 36.174 54.585 54.771 10.004 10.428 20.93 16.95 35.042 14.194 3.259.21 5.737.691 8.15.466 10.303-.957 23.307-.281 23.634-14.478.335-14.644-12.332-14.708-22.943-14.312-10.777.402-18.684-4.032-25.845-11.565-10.991-11.561-21.99-23.19-33.87-33.808-10.513-9.4-9.018-16.292.55-25.497 25.204-24.25 49.677-49.261 74.27-74.14zm-209.337-75.967c3.818 3.802 8.394 7.687 13.347 9.321l17.063-17.063c-2.163-6.188-7.316-10.32-11.784-14.798q-72.062-72.226-144.255-144.32c-9.966-9.96-19.873-19.993-30.15-29.63-6.04-5.667-13.213-7.124-19.652-.742-6.13 6.073-5.69 13.22-.859 20.024a66.122 66.122 0 0 0 7.223 8.303q84.46 84.526 169.067 168.905zm-64.009 20.518c9.1 9.076 18.153 18.214 27.585 26.935a17.673 17.673 0 0 0 7.408 4.233l17.85-17.85c-1.172-4.601-4.226-8.242-7.63-11.65q-54.495-54.594-109.11-109.066a33.321 33.321 0 0 0-10.425-7.263c-5.97-2.449-12.126-2.054-16.872 3.173-4.793 5.279-4.73 11.353-1.011 16.908a96.1 96.1 0 0 0 11.722 14.029q40.113 40.402 80.483 80.551z" class="cls-2"/></svg>
