<svg width="40" height="40"  viewBox="0 0 40 40" xmlns="http://www.w3.org/2000/svg">  <g id="Icon-Architecture/32/Arch_Amazon-FinSpace_32" stroke="none" stroke-width="1" fill="none" fill-rule="evenodd">  <g id="Icon-Service/32/Amazon-FinSpace_32" transform="translate(6.000000, 6.500000)" fill="#FFFFFF"> <path d="M21,22.5 L21,9.282 L19,7.952 L19,22.5 L21,22.5 Z M18,22.5 L18,7.287 L16,5.957 L16,22.5 L18,22.5 Z M15,22.5 L15,5.292 L14,4.627 L13,5.292 L13,22.5 L15,22.5 Z M12,22.5 L12,5.957 L10,7.287 L10,22.5 L12,22.5 Z M9,22.5 L9,7.952 L7,9.282 L7,22.5 L9,22.5 Z M25,23.5 L3,23.5 L3,22.5 L6,22.5 L6,9.947 L3.754,11.44 L3.2,10.607 L13.723,3.61 C13.891,3.499 14.109,3.499 14.277,3.61 L24.8,10.607 L24.246,11.44 L22,9.947 L22,22.5 L25,22.5 L25,23.5 Z M2,25.5 L7,25.5 L7,24.5 L2,24.5 L2,25.5 Z M9,25.5 L19,25.5 L19,24.5 L9,24.5 L9,25.5 Z M21,25.5 L26,25.5 L26,24.5 L21,24.5 L21,25.5 Z M0,27.5 L13,27.5 L13,26.5 L0,26.5 L0,27.5 Z M15,27.5 L28,27.5 L28,26.5 L15,26.5 L15,27.5 Z M1.277,9.583 L0.723,8.75 L13.723,0.084 C13.891,-0.028 14.109,-0.028 14.277,0.084 L27.277,8.75 L26.723,9.583 L14,1.101 L1.277,9.583 Z" id="Fill-1"></path> </g> </g></svg>