<svg width="40" height="40" viewBox="0 0 40 40" fill="none" xmlns="http://www.w3.org/2000/svg">
<g clip-path="url(#clip0_23311_9575)">
<path d="M40 0H0V40H40V0Z" fill="#DD344C" fill-opacity="0.12"/>
<path fill-rule="evenodd" clip-rule="evenodd" d="M17 27H18V26H17V27ZM12 27H16V26H12V27ZM12 24H18V23H12V24ZM33 14H10V19H20V16.5C20 16.224 20.224 16 20.5 16H31.5C31.776 16 32 16.224 32 16.5V19H33V14ZM21.859 27H30.244C30.036 25.537 28.918 24.414 27.15 23.912C26.791 24.06 26.414 24.158 26.027 24.158C25.636 24.158 25.265 24.062 24.908 23.916C23.167 24.417 22.064 25.537 21.859 27ZM27.971 21.24C27.971 20.179 27.099 19.316 26.027 19.316C24.956 19.316 24.084 20.179 24.084 21.24C24.084 21.937 24.468 22.581 25.086 22.919C25.665 23.234 26.377 23.238 26.966 22.918C27.586 22.581 27.971 21.938 27.971 21.24ZM21 20V26.256C21.38 24.902 22.382 23.831 23.879 23.212C23.384 22.68 23.084 21.985 23.084 21.24C23.084 19.628 24.404 18.316 26.027 18.316C27.65 18.316 28.971 19.628 28.971 21.24C28.971 21.984 28.671 22.677 28.177 23.208C29.551 23.776 30.541 24.729 31 25.919V20V19V17H21V19V20ZM33 20H32V27.5C32 27.776 31.776 28 31.5 28H20.5C20.224 28 20 27.776 20 27.5V20H10V30H33V20ZM34 13.5V30.5C34 30.776 33.776 31 33.5 31H9.5C9.224 31 9 30.776 9 30.5V13.5C9 13.224 9.224 13 9.5 13H33.5C33.776 13 34 13.224 34 13.5ZM7 26H8V27H6.5C6.224 27 6 26.776 6 26.5V10.5C6 10.224 6.224 10 6.5 10H30.5C30.776 10 31 10.224 31 10.5V12H30V11H7V26Z" fill="#DD344C"/>
</g>
<rect x="0.5" y="0.5" width="39" height="39" stroke="#DD344C"/>
<defs>
<clipPath id="clip0_23311_9575">
<rect width="40" height="40" fill="white"/>
</clipPath>
</defs>
</svg>
