<svg width="101" height="101" viewBox="0 0 101 101" fill="none" xmlns="http://www.w3.org/2000/svg">
<path d="M51.3809 86.2388V89.8647L63.5892 88.0467L51.3809 86.2388Z" fill="#00D3A9"/>
<path d="M51.3809 90.6248V94.2683L63.7029 92.4529L51.3809 90.6248Z" fill="#00D3A9"/>
<path d="M49.6239 89.8394V86.269L37.5645 88.0492L49.6239 89.8394Z" fill="#00B39F"/>
<path d="M25.4346 94.2556C27.8005 95.2328 31.0047 96.0635 34.7897 96.6771V92.8618L25.4346 94.2556Z" fill="#00B39F"/>
<path d="M49.6239 94.2505V90.6499L37.5342 92.4502L49.6239 94.2505Z" fill="#00B39F"/>
<path d="M36.5469 96.45L48.7881 94.6497L36.5469 92.8267V96.45Z" fill="#00D3A9"/>
<path d="M64.539 96.4701V92.8518L52.3154 94.6521L64.539 96.4701Z" fill="#00B39F"/>
<path d="M76.5071 93.834C78.5422 92.8593 79.7694 91.7534 79.9663 90.5818L67.2227 92.4553L76.5071 93.834Z" fill="#00B39F"/>
<path d="M66.2969 92.0717L78.5835 90.2638L66.2969 88.4458V92.0717Z" fill="#00D3A9"/>
<path d="M64.5395 87.6654V84.0698L52.374 85.8651L64.5395 87.6654Z" fill="#00B39F"/>
<path d="M64.5389 92.0564V88.428L52.3457 90.2435L64.5389 92.0564Z" fill="#00B39F"/>
<path d="M36.5469 88.4204V92.0766L48.8335 90.246L36.5469 88.4204Z" fill="#00D3A9"/>
<path d="M49.6234 82.6609C45.2939 82.6808 40.97 82.9751 36.6777 83.5421L49.6234 85.4586V82.6609Z" fill="#00B39F"/>
<path d="M36.5469 84.0447V87.6781L48.8436 85.8652L36.5469 84.0447Z" fill="#00D3A9"/>
<path d="M34.7898 83.8301C31.0023 84.4437 27.798 85.2744 25.4473 86.2541L34.8024 87.6428L34.7898 83.8301Z" fill="#00B39F"/>
<path d="M64.4578 83.5598C60.1227 82.9797 55.7546 82.6795 51.3809 82.6609V85.4889L64.4578 83.5598Z" fill="#00D3A9"/>
<path d="M21.0234 90.5161C21.185 91.7256 22.4425 92.8618 24.5584 93.8643L34.0322 92.4528L21.0234 90.5161Z" fill="#00D3A9"/>
<path d="M24.5477 86.6377C22.4494 87.6351 21.1945 88.7663 21.0127 89.9682L34.0265 88.0492L24.5477 86.6377Z" fill="#00D3A9"/>
<path d="M36.6533 96.9601C40.9537 97.5315 45.2861 97.8275 49.6242 97.8464V95.0461L36.6533 96.9601Z" fill="#00B39F"/>
<path d="M75.5965 86.2566C73.2457 85.2819 70.0617 84.4537 66.2969 83.8376V87.6428L75.5965 86.2566Z" fill="#00D3A9"/>
<path d="M66.2969 96.6645C70.0844 96.0459 73.2835 95.2101 75.6394 94.2279L66.2969 92.8391V96.6645Z" fill="#00D3A9"/>
<path d="M79.9768 89.9481C79.795 88.7589 78.5502 87.6377 76.4771 86.6479L67.1094 88.0443L79.9768 89.9481Z" fill="#00B39F"/>
<path d="M51.3809 97.8412C55.7087 97.8213 60.0309 97.527 64.3215 96.96L51.3809 95.0334V97.8412Z" fill="#00D3A9"/>
<path d="M34.7891 92.0438V88.4583L22.6943 90.2434L34.7891 92.0438Z" fill="#00B39F"/>
<path d="M50.3712 75.8915C47.9523 71.4727 45.546 67.4655 43.5108 63.2791C39.241 54.5047 35.0218 45.695 31.0701 36.7666C29.1057 32.3327 27.8179 27.6539 28.3532 22.6266C29.2673 14.0214 36.0393 6.05248 44.4855 3.94158C56.4767 0.929255 67.7458 6.90846 71.7706 18.5866C73.4977 23.6063 72.7983 28.6285 71.0813 33.58C67.6119 43.5866 62.822 52.9897 57.9513 62.365C55.8833 66.3495 53.6361 70.2405 51.462 74.1694C51.2121 74.6239 50.9015 75.0607 50.3712 75.8915ZM50.5833 41.4101C59.3981 41.3368 66.713 33.9462 66.6272 25.2021C66.5413 16.3444 59.1557 9.1658 50.1617 9.19105C41.809 9.2163 34.2037 16.8191 34.2895 25.0607C34.3829 34.2138 41.6398 41.4959 50.5833 41.4101Z" fill="#00D3A9"/>
</svg>
