<svg width="24" height="24" viewBox="0 0 24 24" fill="none" xmlns="http://www.w3.org/2000/svg">
<g clip-path="url(#clip0_24126_23347)">
<path fill-rule="evenodd" clip-rule="evenodd" d="M0.800049 5.8998L3.70005 0.799805H9.50005L12.4 5.8998L9.50005 10.8998H3.70005L0.800049 5.8998Z" fill="#DDDDDE"/>
<path fill-rule="evenodd" clip-rule="evenodd" d="M11.4 7.7002L8.5 2.6002L9.5 0.700195L12.4 5.9002L11.4 7.7002Z" fill="#C1C1C1"/>
<path fill-rule="evenodd" clip-rule="evenodd" d="M2.69995 9.30039H8.49995L10.5 5.90039L11.4 7.70039L9.49995 10.9004L3.69995 11.0004L2.69995 9.30039Z" fill="white"/>
<path fill-rule="evenodd" clip-rule="evenodd" d="M11.2 11.8998L14.2 6.7998H20L22.9 11.8998L20 16.8998H14.2L11.2 11.8998Z" fill="#DDDDDE"/>
<path fill-rule="evenodd" clip-rule="evenodd" d="M21.9 13.7002L19 8.6002L20 6.7002L22.9 11.9002L21.9 13.7002Z" fill="#C1C1C1"/>
<path fill-rule="evenodd" clip-rule="evenodd" d="M13.2 15.3004H19L21 11.9004L21.9 13.7004L20 16.9004L14.2 17.0004L13.2 15.3004Z" fill="white"/>
<path fill-rule="evenodd" clip-rule="evenodd" d="M0.800049 17.8998L3.70005 12.7998H9.50005L12.4 17.8998L9.50005 22.8998H3.70005L0.800049 17.8998Z" fill="#DDDDDE"/>
<path fill-rule="evenodd" clip-rule="evenodd" d="M11.4 19.7002L8.5 14.6002L9.5 12.7002L12.4 17.9002L11.4 19.7002Z" fill="#C1C1C1"/>
<path fill-rule="evenodd" clip-rule="evenodd" d="M2.69995 21.3004H8.49995L10.5 17.9004L11.4 19.7004L9.49995 22.9004L3.69995 23.0004L2.69995 21.3004Z" fill="white"/>
</g>
<defs>
<clipPath id="clip0_24126_23347">
<rect width="24" height="24" fill="white"/>
</clipPath>
</defs>
</svg>
