<svg xmlns="http://www.w3.org/2000/svg" style="enable-background:new 0 0 139.3 139.3" xml:space="preserve" viewBox="27.89 37.77 83.72 63.82"><linearGradient id="a" gradientUnits="userSpaceOnUse" x1="-150.031" y1="221.201" x2="-128.088" y2="255.634" gradientTransform="matrix(.9808 .1951 .186 -.9354 187.374 312.672)"><stop offset="0" style="stop-color:#a1d7d8"/><stop offset=".24" style="stop-color:#7fc9c7"/><stop offset=".767" style="stop-color:#28a79b"/><stop offset="1" style="stop-color:#009787"/></linearGradient><path d="M111 59.5c2.1-6.3-1.4-13.2-7.8-14.8-2.6-.6-6-1-7.8 1.2-2.5 3.1 3.3 6.9 3.7 8.7.4 1.6.7 5.3-4.1 10.7-4.8 5.6-13.6 10.3-13.2 10.7.5.5 2.1 3 2.6 2.9 9.3-.6 17.6-5 22.9-12.3 1.6-2.2 2.8-4.6 3.7-7.1z" style="fill:url(#a)"/><linearGradient id="b" gradientUnits="userSpaceOnUse" x1="-179.946" y1="401.315" x2="-148.877" y2="447.811" gradientTransform="scale(1 -1) rotate(-11.25 -2545.38 -1003.935)"><stop offset="0" style="stop-color:#a1d7d8"/><stop offset=".24" style="stop-color:#7fc9c7"/><stop offset=".767" style="stop-color:#28a79b"/><stop offset="1" style="stop-color:#009787"/></linearGradient><path d="M85.4 87.2c-1.3-2.2-2.9-4.1-4.7-5.9-11.9-11.6-24.4-19-28.1-20.2-.9-.3.9-2.7 1.4-2.6 3.1.8 19.6 9.4 24.8 15.2.5.6 14.9-8.8 16.5-16.3.2-1.1 0-2.2-.7-3.1-6.3-9.1-23.3-14.5-31.6-16.4-2.5-.6-4.9 1-5.5 3.4v.2c-.9 5.7-3.3 11-6.8 15.6V57c-1.4 2.1-4.5.8-4.5.8-8.5-3.6-15.2-4.3-17.5-1.1-3.8 5.2 6.2 19 22.3 30.9s32.4 17.2 36.2 12c1.6-2.4 1.2-7.2-1.8-12.4zM70.3 90c-1.4 1.9-8.8-1.1-16.4-6.7-7.8-5.7-12.9-11.7-11.5-13.6 1.4-1.9 8.7 1.1 16.4 6.7C66.6 82 71.7 88.2 70.3 90z" style="fill:url(#b)"/></svg>