<svg width="90" height="90" viewBox="0 0 90 90" fill="none" xmlns="http://www.w3.org/2000/svg">
<path fill-rule="evenodd" clip-rule="evenodd" d="M4.9646 7.5C4.9646 6.39543 5.86003 5.5 6.9646 5.5H73.4026C74.5072 5.5 75.4026 6.39543 75.4026 7.5V18.2296L57.7953 33.5889L57.7961 33.5897L55.5331 41.4861H54.7108C53.5588 41.4861 52.7134 42.1063 52.1713 42.7064C51.6366 43.2984 51.2463 44.0277 50.958 44.6702C50.6622 45.3295 50.4235 46.014 50.2353 46.5752C50.2022 46.6738 50.1714 46.7664 50.1425 46.8533C49.798 46.4767 49.4551 46.0459 49.0998 45.5995L49.0963 45.5952C49.0232 45.5033 48.9495 45.4108 48.8752 45.3179C48.6624 45.0521 48.4352 44.7727 48.2199 44.5358C48.0431 44.3411 47.7283 44.0065 47.3394 43.785C45.6309 42.8117 43.9232 42.643 42.3397 43.1779C40.8376 43.6852 39.6434 44.7591 38.7203 45.8952C36.9331 48.095 35.7274 51.0803 35.0537 52.9C33.4728 50.6379 31.2216 48.4717 28.6322 46.9294C26.0028 45.3632 22.9024 44.3712 19.7341 44.7301L17.9869 44.9281L18.3828 48.4224L20.13 48.2245C22.317 47.9767 24.6471 48.649 26.8326 49.9508C29.0134 51.2497 30.9286 53.1067 32.2373 55.0099C32.3299 55.1447 32.4194 55.2827 32.5247 55.4453L32.5248 55.4455L32.5905 55.5468C32.7184 55.7439 32.8675 55.9713 33.0321 56.1987C33.3598 56.6514 33.8014 57.1798 34.4197 57.6065C34.828 57.8883 35.4288 58.1064 36.1166 57.9446C36.7399 57.798 37.1315 57.4069 37.3356 57.1502C37.7188 56.6683 37.9111 56.0629 38.0115 55.707C38.1297 55.2882 38.2122 54.8587 38.2675 54.5531C38.2844 54.4596 38.296 54.3939 38.3059 54.3371L38.3061 54.3365C38.3158 54.2808 38.3241 54.2337 38.3345 54.1772L38.3382 54.1573C39.0028 52.3599 40.0471 49.8391 41.4497 48.1128C42.1576 47.2415 42.8404 46.7206 43.465 46.5096C43.9919 46.3317 44.6369 46.3164 45.5163 46.7948C45.5372 46.8153 45.5704 46.8493 45.6171 46.9006C45.751 47.048 45.9178 47.2507 46.1296 47.5153C46.1908 47.5918 46.2555 47.6732 46.3231 47.7583L46.3246 47.7602L46.3247 47.7603C46.6944 48.2253 47.1524 48.8016 47.6136 49.2984C47.8916 49.5979 48.2059 49.9078 48.5432 50.174C48.866 50.4289 49.3022 50.7183 49.8257 50.8736C50.3942 51.0423 51.1214 51.0622 51.8192 50.6589C52.4633 50.2867 52.8324 49.695 53.0516 49.172C53.1854 48.8529 53.333 48.4069 53.4702 47.9921C53.5041 47.8898 53.5373 47.7894 53.5696 47.6932C53.7514 47.151 53.9452 46.6032 54.1665 46.1099C54.2032 46.0282 54.2394 45.9508 54.2751 45.8776L66.6011 42.3667L66.6006 42.3662L75.4026 34.688V82.5C75.4026 83.6046 74.5072 84.5 73.4026 84.5H6.9646C5.86003 84.5 4.9646 83.6046 4.9646 82.5V7.5ZM49.7852 47.8613C49.7851 47.8612 49.7865 47.8586 49.7895 47.8538C49.7867 47.8591 49.7853 47.8615 49.7852 47.8613Z" fill="white"/>
<path fill-rule="evenodd" clip-rule="evenodd" d="M79.2775 18.1374L59.5518 35.3445L64.8346 40.6112L84.3501 23.5874C85.2238 22.8253 85.2685 21.4824 84.4474 20.6639L82.0042 18.2282C81.2602 17.4864 80.0691 17.4468 79.2775 18.1374ZM59.5487 35.3445L64.8315 40.6111L56.9072 43.2445L59.5487 35.3445Z" fill="white"/>
</svg>