<svg width="40" height="40" viewBox="0 0 40 40" fill="none" xmlns="http://www.w3.org/2000/svg">
<g clip-path="url(#clip0_23311_9677)">
<path d="M40 0H0V40H40V0Z" fill="#7AA116" fill-opacity="0.12"/>
<path fill-rule="evenodd" clip-rule="evenodd" d="M28 21.993V20.993H23V21.993H26.747L23 26.993V27.993H28V26.993H24.25L28 21.993ZM17.999 22.178H19.307L21.128 19.518L21.166 19.464L20.568 18.62L17.999 22.178ZM15.929 17.247L14.5 16.699C14.038 16.524 13.677 16.359 13.427 16.206C13.189 16.06 13.016 15.896 12.912 15.718C12.809 15.541 12.758 15.304 12.758 15.011C12.758 14.484 12.926 14.091 13.272 13.809C13.617 13.526 14.127 13.383 14.788 13.383C15.476 13.383 16.279 13.542 17.172 13.858L17.298 13.902V13.027L17.242 13.002C16.854 12.831 16.438 12.696 16.002 12.602C15.567 12.508 15.145 12.46 14.747 12.46C13.865 12.46 13.141 12.699 12.596 13.171C12.047 13.646 11.768 14.274 11.768 15.037C11.768 15.601 11.938 16.083 12.272 16.468C12.601 16.847 13.121 17.177 13.819 17.449L15.367 18.049C15.887 18.249 16.265 18.475 16.494 18.72C16.717 18.959 16.829 19.252 16.829 19.591C16.829 20.162 16.625 20.601 16.204 20.932C15.783 21.264 15.208 21.433 14.494 21.433C13.724 21.433 12.868 21.264 11.948 20.932L11.822 20.886V21.759L11.876 21.785C12.66 22.164 13.563 22.356 14.56 22.356C15.53 22.356 16.327 22.101 16.924 21.599C17.527 21.093 17.833 20.422 17.833 19.604C17.833 19.042 17.677 18.566 17.371 18.189C17.068 17.818 16.583 17.501 15.929 17.247ZM6 22.129H6.976V17.829H10.701V16.933H6.976V13.583H11.383V12.687H6V22.129ZM22.202 19.993H23.554L22.206 18.076L24.841 14.402H23.548L21.493 17.337L20.912 18.144L22.202 19.993ZM21.235 16.752L19.589 14.402H18.239L20.551 17.662L21.235 16.752ZM29 21.993H32V20.993H29V21.993ZM29 27.993H32V26.993H29V27.993ZM29 24.993H34V23.993H29V24.993Z" fill="#7AA116"/>
</g>
<rect x="0.5" y="0.5" width="39" height="39" stroke="#7AA116"/>
<defs>
<clipPath id="clip0_23311_9677">
<rect width="40" height="40" fill="white"/>
</clipPath>
</defs>
</svg>
