<svg id="Layer_1" data-name="Layer 1" xmlns="http://www.w3.org/2000/svg" viewBox="0 0 360 360"><defs><style>.cls-1{fill:#fff;}</style></defs><path class="cls-1" d="M179.432,5.88044A173.2294,173.2294,0,1,0,352.66146,179.10987,173.27011,173.27011,0,0,0,179.432,5.88044ZM280.63875,164.19172,165.20687,317.00044c-1.83423,2.48639-3.66846,6.19549-7.01074,4.36132s-1.22278-5.5841,0-8.68182c8.88562-32.60791,17.323-64.849,26.61621-97.253,2.32324-7.62207,0-9.29321-6.97-9.08948H91.71676l-14.06214-.73364L218.47994,26.26039c3.13855,6.19549,0,9.7008-1.22278,13.41-12.79858,35.09424-25.39343,70.433-38.80347,105.32348-3.30151,8.84491-1.87487,10.92365,7.41846,10.92365h90.6499c2.44556,0,5.74707-1.22278,7.21436,1.46735S282.06527,162.113,280.63875,164.19172Z"/></svg>