<svg width="40" height="40" viewBox="0 0 40 40" fill="none" xmlns="http://www.w3.org/2000/svg">
<g clip-path="url(#clip0_23296_3614)">
<path d="M40 0H0V40H40V0Z" fill="#C925D1" fill-opacity="0.12"/>
<path fill-rule="evenodd" clip-rule="evenodd" d="M32.7331 14C32.364 13.36 31.6899 13.001 30.9989 13.001C30.6588 13.001 30.3158 13.087 30.0017 13.269C29.0466 13.82 28.7176 15.045 29.2696 16.001C29.8207 16.955 31.0469 17.284 32.002 16.732C32.9561 16.181 33.2851 14.956 32.7331 14ZM32.502 17.598C32.286 17.723 32.058 17.81 31.828 17.876L32.09 19.23L33.3511 18.503L33.8512 19.369L31.3759 20.798L30.8288 17.977C29.8557 17.918 28.9256 17.406 28.4035 16.5C27.5764 15.067 28.0695 13.229 29.5017 12.403C30.9348 11.578 32.7731 12.068 33.5992 13.5C34.4253 14.934 33.9332 16.771 32.502 17.598ZM30.9158 26.854C30.7428 26.208 30.3298 25.669 29.7517 25.336C29.3666 25.113 28.9386 25 28.5045 25C28.2885 25 28.0695 25.028 27.8545 25.086C27.2094 25.259 26.6703 25.673 26.3363 26.251C26.0032 26.829 25.9142 27.503 26.0862 28.147C26.2593 28.792 26.6723 29.332 27.2514 29.665C27.8285 29.999 28.5025 30.088 29.1476 29.915C29.7937 29.742 30.3328 29.328 30.6668 28.75C30.9999 28.172 31.0879 27.498 30.9158 26.854ZM31.881 26.595C32.124 27.498 32 28.44 31.5319 29.25C31.0649 30.06 30.3098 30.639 29.4067 30.881C29.1056 30.961 28.7986 31.001 28.4955 31.001C27.8885 31.001 27.2904 30.842 26.7513 30.531C26.5453 30.413 26.3563 30.275 26.1823 30.123L25.2941 30.893L26.2883 31.591L25.7132 32.41L23.6719 30.975L25.5472 29.35C25.3662 29.059 25.2111 28.748 25.1211 28.406C24.8781 27.503 25.0031 26.561 25.4702 25.751C25.9372 24.941 26.6923 24.362 27.5954 24.12C28.4985 23.88 29.4427 24.003 30.2518 24.47C31.0609 24.937 31.6399 25.692 31.881 26.595ZM20.0005 32C20.0005 30.897 19.1024 30 18.0002 30C16.8971 30 16 30.897 16 32C16 33.104 16.8971 34 18.0002 34C19.1024 34 20.0005 33.104 20.0005 32ZM21.0006 32C21.0006 33.655 19.6544 35 18.0002 35C16.345 35 14.9999 33.655 14.9999 32C14.9999 31.495 15.1369 31.024 15.3599 30.606L13.9997 30.134V32H12.9996V28.73L16.009 29.772C16.5411 29.298 17.2331 29 18.0002 29C19.6544 29 21.0006 30.346 21.0006 32ZM10.7303 23C10.3613 22.36 9.6872 22.001 8.99611 22.001C8.65607 22.001 8.31303 22.087 7.99899 22.269C7.04387 22.82 6.71483 24.045 7.2669 25.001C7.81796 25.956 9.04412 26.283 9.99924 25.732C10.9534 25.181 11.2824 23.956 10.7303 23ZM11.5964 22.5C12.4235 23.934 11.9305 25.771 10.4993 26.598C10.0272 26.87 9.51218 27 9.00311 27C7.96598 27 6.95586 26.462 6.40079 25.5C5.57469 24.067 6.06675 22.229 7.49892 21.403C7.76096 21.251 8.03999 21.159 8.32103 21.093L8.02099 19.546L6.76583 20.272L6.26377 19.407L8.73608 17.977L9.32815 21.03C10.2433 21.132 11.1024 21.643 11.5964 22.5ZM9.99924 14.732C10.9524 15.283 12.1785 14.956 12.7316 14C13.2826 13.045 12.9536 11.82 11.9995 11.269C11.6844 11.087 11.3404 11.001 11.0014 11.001C10.3103 11.001 9.63619 11.36 9.26614 12C8.71508 12.956 9.04412 14.181 9.99924 14.732ZM8.40004 11.501C9.22814 10.068 11.0664 9.578 12.4995 10.403C12.6116 10.468 12.7076 10.548 12.8076 10.625L14.3368 9.296L13.0796 8.568L13.5817 7.703L16.05 9.132L13.4917 11.355C14.0947 12.273 14.1828 13.485 13.5977 14.5C13.0426 15.461 12.0315 16 10.9944 16C10.4853 16 9.97023 15.87 9.49917 15.598C8.067 14.771 7.57393 12.934 8.40004 11.501ZM20.0005 9C20.0005 10.104 20.8976 11 22.0007 11C22.7688 11 23.4289 10.56 23.764 9.923L23.7519 9.918L23.972 9.278C23.985 9.187 24.001 9.096 24.001 9C24.001 7.897 23.1029 7 22.0007 7C20.8976 7 20.0005 7.897 20.0005 9ZM19.0004 9C19.0004 7.346 20.3455 6 22.0007 6C23.6549 6 25.0011 7.346 25.0011 9C25.0011 9.097 24.9811 9.188 24.9721 9.282L26.0012 9.637V8H27.0014V11.039L24.7181 10.252C24.243 11.281 23.2069 12 22.0007 12C20.3455 12 19.0004 10.655 19.0004 9ZM17.7102 24.011L18.6263 24.414L22.2398 16.184L21.3236 15.781L17.7102 24.011ZM23.1809 17.232L22.4818 17.948L24.5971 20.013L22.2328 21.788L22.8328 22.587L26.1302 20.113L23.1809 17.232ZM13.8687 19.316L17.1671 16.841L17.7662 17.641L15.4019 19.416L17.5172 21.481L16.8181 22.197L13.8687 19.316Z" fill="#C925D1"/>
</g>
<rect x="0.5" y="0.5" width="39" height="39" stroke="#C925D1"/>
<defs>
<clipPath id="clip0_23296_3614">
<rect width="40" height="40" fill="white"/>
</clipPath>
</defs>
</svg>
