<svg width="24px" height="24px" viewBox="0 0 24 24" fill="none" xmlns="http://www.w3.org/2000/svg">
<path d="M12.6502 2.15414L18.9034 5.81428C19.3274 6.04642 19.5929 6.48798 19.5982 6.96975V15.0027C19.5914 15.484 19.3263 15.9249 18.9034 16.1581L8.9399 21.9839C8.77866 22.079 8.57062 22.0264 8.47438 21.8663C8.44459 21.8158 8.42787 21.7588 8.42575 21.7002V18.1647L5.00731 16.1581C4.58439 15.9249 4.31927 15.484 4.3125 15.0027V6.96975C4.31782 6.48798 4.58334 6.04642 5.00731 5.81428L11.2606 2.15414C11.6905 1.90695 12.2202 1.90695 12.6502 2.15414Z" fill="white"/>
<path d="M8.19195 9.47949C7.9848 9.47949 7.81616 9.64432 7.80999 9.84996L7.80981 9.86165L7.80993 13.7948L7.81118 13.8359C7.82522 14.0758 7.95679 14.2942 8.16366 14.4185L8.17822 14.4271L10.1019 15.5248V17.0657L10.1029 17.0942C10.1175 17.2919 10.2826 17.4478 10.484 17.4478C10.5461 17.4478 10.6072 17.4327 10.662 17.4039L10.6755 17.3964L15.7794 14.441L15.8145 14.4196C16.0163 14.289 16.1413 14.0668 16.1474 13.8255L16.1476 13.8087V9.86235C16.1476 9.79559 16.1301 9.72999 16.0969 9.67209C15.9939 9.49265 15.7674 9.42839 15.5861 9.52495L15.5752 9.53094L12.1811 11.4795L12.152 11.4959C12.0378 11.5538 11.9015 11.5508 11.7896 11.4868L11.7773 11.4795L8.38223 9.53023C8.32433 9.49698 8.25872 9.47949 8.19195 9.47949Z" fill="#669DF6"/>
<path d="M12.2449 5.06328C12.1033 4.98208 11.9304 4.97899 11.7863 5.0542L11.7725 5.06172L8.03026 7.17466C7.97053 7.20838 7.92098 7.25756 7.88681 7.31704C7.78372 7.49644 7.84235 7.72447 8.01713 7.83243L8.02776 7.83876L11.7693 9.9887C11.9131 10.0713 12.0889 10.0733 12.2341 9.99494L12.2481 9.9871L15.9322 7.83748C15.99 7.80378 16.0379 7.7555 16.0711 7.69749C16.174 7.51798 16.1152 7.29001 15.9403 7.18222L15.9297 7.17589L12.2449 5.06328Z" fill="#185ABC"/>
</svg>
