<svg width="40" height="40" viewBox="0 0 40 40" fill="none" xmlns="http://www.w3.org/2000/svg">
<g clip-path="url(#clip0_23294_2903)">
<path d="M40 0H0V40H40V0Z" fill="#8C4FFF" fill-opacity="0.12"/>
<path fill-rule="evenodd" clip-rule="evenodd" d="M14.5555 14.1798C12.9003 14.1798 11.7434 14.1006 10.9264 13.9713L13.4006 17.7401C13.4537 17.8223 13.4828 17.9175 13.4828 18.0157V19.6144C14.0482 19.7197 14.8914 19.7227 15.4337 19.6194L15.4367 17.9997C15.4367 17.8974 15.4678 17.7982 15.527 17.715L18.0944 14.0204C17.2092 14.1397 16.0393 14.1798 14.5555 14.1798ZM9.06669 12.8146C9.06669 12.0237 10.0421 11.6448 12.4322 11.5045L12.4903 12.5048C11.2472 12.577 10.6196 12.7123 10.3108 12.8146C10.758 12.9619 11.8718 13.1774 14.5555 13.1774C17.511 13.1774 18.5626 12.982 18.9225 12.8186C18.7371 12.7384 18.329 12.6221 17.4558 12.5439L17.543 11.5456C18.7802 11.6559 20.0444 11.8924 20.0444 12.8146C20.0444 13.1203 19.904 13.3568 19.6443 13.5443L16.4393 18.158L16.4353 20.0003C16.4353 20.2038 16.3109 20.3872 16.1215 20.4644C15.7255 20.6228 15.1149 20.694 14.5044 20.694C13.8507 20.694 13.1971 20.6118 12.8081 20.4694C12.6116 20.3973 12.4803 20.2088 12.4803 19.9993V18.1651L9.39451 13.4631C9.13887 13.2656 9.06669 13.0431 9.06669 12.8146ZM28.4114 22.6104C28.7944 23.0565 29.3618 23.3401 29.9934 23.3401V22.3378C29.3979 22.3378 28.9127 21.8527 28.9127 21.2573H27.9102C27.9102 21.8527 27.426 22.3378 26.8295 22.3378C26.2329 22.3378 25.7487 21.8527 25.7487 21.2573H24.7462C24.7462 21.8527 24.261 22.3378 23.6645 22.3378C23.068 22.3378 22.5838 21.8527 22.5838 21.2573H21.5812C21.5812 21.8527 21.096 22.3378 20.5005 22.3378V23.3401C21.1331 23.3401 21.6995 23.0565 22.0825 22.6104C22.4655 23.0565 23.0319 23.3401 23.6645 23.3401C24.2971 23.3401 24.8645 23.0565 25.2475 22.6104C25.6294 23.0565 26.1969 23.3401 26.8295 23.3401C27.462 23.3401 28.0285 23.0565 28.4114 22.6104ZM28.1919 15.7915H27.1894C27.1894 16.3879 26.7031 16.873 26.1066 16.873C25.5111 16.873 25.0259 16.3879 25.0259 15.7915H24.0234C24.0234 16.3879 23.5392 16.873 22.9427 16.873C22.3462 16.873 21.8619 16.3879 21.8619 15.7915H20.8594C20.8594 16.3879 20.3742 16.873 19.7777 16.873V17.8754C20.4103 17.8754 20.9777 17.5917 21.3607 17.1457C21.7426 17.5917 22.3101 17.8754 22.9427 17.8754C23.5752 17.8754 24.1427 17.5917 24.5246 17.1457C24.9076 17.5917 25.475 17.8754 26.1066 17.8754C26.7392 17.8754 27.3077 17.5917 27.6906 17.1457C28.0716 17.5917 28.64 17.8754 29.2726 17.8754V16.873C28.6761 16.873 28.1919 16.3879 28.1919 15.7915ZM19.099 29.4835C19.7316 29.4835 20.299 29.1998 20.681 28.7538C21.0639 29.1998 21.6314 29.4835 22.2629 29.4835C22.8955 29.4835 23.464 29.1998 23.8469 28.7538C24.2279 29.1998 24.7963 29.4835 25.4289 29.4835V28.4811C24.8324 28.4811 24.3482 27.996 24.3482 27.3996H23.3457C23.3457 27.996 22.8594 28.4811 22.2629 28.4811C21.6674 28.4811 21.1822 27.996 21.1822 27.3996H20.1797C20.1797 27.996 19.6955 28.4811 19.099 28.4811C18.5035 28.4811 18.0182 27.996 18.0182 27.3996H17.0157C17.0157 27.996 16.5305 28.4811 15.934 28.4811V29.4835C16.5666 29.4835 17.134 29.1998 17.517 28.7538C17.8989 29.1998 18.4664 29.4835 19.099 29.4835ZM10.4341 9.00468H11.4367V8.00234H10.4341V9.00468ZM9.43161 9.50585V7.50117C9.43161 7.22452 9.65517 7 9.93287 7H11.9379C12.2146 7 12.4392 7.22452 12.4392 7.50117V9.50585C12.4392 9.78249 12.2146 10.007 11.9379 10.007H9.93287C9.65517 10.007 9.43161 9.78249 9.43161 9.50585ZM14.4853 11.0094H15.4879V10.007H14.4853V11.0094ZM13.4828 11.5105V9.50585C13.4828 9.2292 13.7064 9.00468 13.9841 9.00468H15.9891C16.2658 9.00468 16.4904 9.2292 16.4904 9.50585V11.5105C16.4904 11.7872 16.2658 12.0117 15.9891 12.0117H13.9841C13.7064 12.0117 13.4828 11.7872 13.4828 11.5105ZM13.4477 23.4604V21.0017H12.4452V22.9592H11.4778C11.2763 22.9592 11.0948 23.0785 11.0166 23.2639C10.9374 23.4494 10.9775 23.6629 11.1159 23.8072L14.1234 26.9325C14.2187 27.0307 14.349 27.0859 14.4853 27.0859C14.6207 27.0859 14.751 27.0307 14.8463 26.9325L17.8538 23.8072C17.9932 23.6629 18.0333 23.4494 17.9541 23.2639C17.8759 23.0785 17.6934 22.9592 17.4929 22.9592H16.4724V21.0017H15.4698V23.4604C15.4698 23.7371 15.6944 23.9616 15.9711 23.9616H16.315L14.4853 25.862L12.6547 23.9616H12.9465C13.2232 23.9616 13.4477 23.7371 13.4477 23.4604ZM33 21.5028C33 28.3939 27.3929 34 20.5005 34C13.6081 34 8 28.3939 8 21.5028C8 19.5994 8.41705 17.7711 9.24012 16.0682L10.1434 16.5042C9.38649 18.0698 9.00253 19.7518 9.00253 21.5028C9.00253 27.8406 14.1595 32.9977 20.5005 32.9977C26.8405 32.9977 31.9975 27.8406 31.9975 21.5028C31.9975 15.164 26.8405 10.007 20.5005 10.007C19.8308 10.007 19.1571 10.0652 18.4995 10.1804L18.327 9.19211C19.0418 9.06782 19.7727 9.00468 20.5005 9.00468C27.3929 9.00468 33 14.6108 33 21.5028Z" fill="#8C4FFF"/>
</g>
<rect x="0.5" y="0.5" width="39" height="39" stroke="#8C4FFF"/>
<defs>
<clipPath id="clip0_23294_2903">
<rect width="40" height="40" fill="white"/>
</clipPath>
</defs>
</svg>
