<svg width="160" height="110" viewBox="0 0 160 110" fill="none" xmlns="http://www.w3.org/2000/svg">
<rect x="18.1583" y="2.99182" width="139.714" height="104.015" fill="white" fill-opacity="0.1" stroke="white" stroke-width="4.42895" stroke-dasharray="8.86 8.86"/>
<path fill-rule="evenodd" clip-rule="evenodd" d="M10.1532 89.3714C1.17982 85.0617 -2.6122 74.2701 1.68359 65.2676C3.74652 60.9445 7.43675 57.6205 11.9425 56.027C16.4483 54.4335 21.4004 54.701 25.7096 56.7706C34.683 61.0803 38.475 71.8719 34.1792 80.8744C29.8834 89.8769 19.1266 93.6811 10.1532 89.3714Z" fill="white"/>
<path d="M17.7575 62.2315C17.5553 62.2417 17.3571 62.292 17.1746 62.3794L9.22051 66.1919C9.01464 66.2905 8.83375 66.434 8.69127 66.6117C8.54879 66.7894 8.44839 66.9968 8.39753 67.2184L6.43519 75.7821C6.38987 75.9794 6.3848 76.1838 6.42027 76.3831C6.45574 76.5824 6.53104 76.7726 6.6417 76.9424C6.66853 76.9839 6.69738 77.0241 6.72816 77.0628L12.2337 83.9295C12.3762 84.1072 12.5571 84.2506 12.763 84.3492C12.9689 84.4478 13.1944 84.4989 13.4229 84.4989L22.2519 84.4968C22.4803 84.497 22.7058 84.446 22.9117 84.3476C23.1175 84.2492 23.2985 84.1059 23.4411 83.9285L28.9446 77.0608C29.0872 76.883 29.1877 76.6755 29.2386 76.4538C29.2895 76.2321 29.2895 76.0018 29.2386 75.7801L27.2732 67.2164C27.2223 66.9948 27.1219 66.7874 26.9795 66.6097C26.837 66.4319 26.6561 66.2884 26.4502 66.1898L18.4951 62.3794C18.2656 62.2694 18.012 62.2186 17.7575 62.2315Z" fill="#326CE5"/>
<path d="M17.8388 65.1465C17.5759 65.1465 17.3627 65.3841 17.3627 65.6771C17.3627 65.6816 17.3636 65.6859 17.3637 65.6904C17.3633 65.7302 17.3614 65.7782 17.3627 65.8128C17.369 65.9819 17.4057 66.1112 17.4278 66.2669C17.4679 66.6002 17.5014 66.8765 17.4807 67.1333C17.4606 67.2302 17.3895 67.3187 17.3261 67.3803L17.3149 67.5823C17.0292 67.6061 16.7416 67.6495 16.4543 67.715C15.2181 67.9965 14.1537 68.6353 13.3434 69.4977C13.2908 69.4617 13.1988 69.3955 13.1715 69.3753C13.0865 69.3868 13.0006 69.4131 12.8887 69.3477C12.6756 69.2038 12.4816 69.0053 12.2468 68.7661C12.1392 68.6516 12.0613 68.5427 11.9335 68.4324C11.9044 68.4073 11.8601 68.3734 11.8277 68.3477C11.7277 68.2677 11.6099 68.2261 11.496 68.2221C11.3497 68.2171 11.2088 68.2745 11.1166 68.3905C10.9527 68.5967 11.0052 68.912 11.2336 69.0946C11.2359 69.0965 11.2384 69.0979 11.2407 69.0997C11.2721 69.1253 11.3105 69.158 11.3394 69.1793C11.475 69.2798 11.5989 69.3312 11.7341 69.411C12.0188 69.5874 12.2549 69.7336 12.4421 69.91C12.5152 69.9882 12.528 70.1259 12.5377 70.1855L12.6903 70.3223C11.8735 71.5554 11.4954 73.0786 11.7188 74.6306L11.5194 74.6888C11.4669 74.7569 11.3926 74.864 11.315 74.8959C11.07 74.9733 10.7943 75.0018 10.4615 75.0368C10.3052 75.0498 10.1704 75.042 10.0047 75.0735C9.96823 75.0804 9.91743 75.0937 9.87753 75.1031C9.87615 75.1034 9.87485 75.1038 9.87346 75.1041C9.87129 75.1046 9.86843 75.1057 9.86634 75.1062C9.58573 75.1742 9.40547 75.4329 9.4635 75.6878C9.52155 75.9428 9.79564 76.0979 10.0779 76.0368C10.08 76.0364 10.0829 76.0363 10.0851 76.0358C10.0882 76.0351 10.0911 76.0335 10.0942 76.0327C10.1336 76.0241 10.1829 76.0144 10.2173 76.0052C10.3802 75.9614 10.4981 75.8972 10.6446 75.8409C10.9596 75.7276 11.2205 75.6329 11.4747 75.596C11.5808 75.5876 11.6927 75.6617 11.7483 75.6929L11.9558 75.6572C12.4334 77.1424 13.4342 78.3429 14.7015 79.0962L14.615 79.3043C14.6462 79.3852 14.6806 79.4945 14.6573 79.5744C14.5649 79.8147 14.4067 80.0685 14.2264 80.3513C14.1391 80.482 14.0498 80.5834 13.9711 80.733C13.9522 80.7688 13.9282 80.8237 13.91 80.8616C13.7877 81.1242 13.8774 81.4266 14.1125 81.5402C14.349 81.6544 14.6426 81.5339 14.7696 81.2708C14.7698 81.2704 14.7705 81.2701 14.7707 81.2697C14.7708 81.2694 14.7705 81.269 14.7707 81.2687C14.7888 81.2314 14.8144 81.1824 14.8297 81.1473C14.8971 80.9923 14.9196 80.8594 14.967 80.7095C15.093 80.3921 15.1622 80.0591 15.3356 79.8515C15.3831 79.7947 15.4605 79.7729 15.5407 79.7513L15.6486 79.5554C16.7534 79.9808 17.99 80.0949 19.2253 79.8135C19.5072 79.7494 19.7792 79.6663 20.0422 79.5666C20.0725 79.6205 20.1289 79.7242 20.144 79.7503C20.2255 79.7769 20.3145 79.7906 20.3871 79.8982C20.5168 80.1206 20.6055 80.3836 20.7136 80.7013C20.7611 80.8513 20.7845 80.9841 20.852 81.1391C20.8674 81.1744 20.8929 81.2242 20.911 81.2616C21.0378 81.5256 21.3323 81.6465 21.5692 81.532C21.8042 81.4184 21.894 81.116 21.7716 80.8534C21.7534 80.8156 21.7284 80.7606 21.7096 80.7248C21.6308 80.5753 21.5415 80.4749 21.4542 80.3442C21.274 80.0613 21.1245 79.8264 21.032 79.586C20.9934 79.462 21.0386 79.3849 21.0687 79.3043C21.0506 79.2836 21.0121 79.1665 20.9893 79.1115C22.3063 78.3314 23.2777 77.0862 23.7339 75.648C23.7955 75.6577 23.9026 75.6767 23.9374 75.6837C24.009 75.6364 24.0748 75.5746 24.2039 75.5848C24.4581 75.6216 24.719 75.7164 25.034 75.8297C25.1805 75.8859 25.2984 75.9513 25.4613 75.995C25.4957 76.0042 25.545 76.0129 25.5844 76.0215C25.5875 76.0223 25.5904 76.0238 25.5935 76.0246C25.5957 76.0251 25.5986 76.0251 25.6007 76.0256C25.883 76.0866 26.1571 75.9316 26.2151 75.6766C26.2731 75.4217 26.0929 75.1629 25.8123 75.0949C25.7714 75.0856 25.7135 75.0698 25.6739 75.0623C25.5082 75.0308 25.3734 75.0386 25.2171 75.0255C24.8843 74.9906 24.6086 74.9621 24.3636 74.8847C24.2638 74.8459 24.1927 74.7266 24.1582 74.6776L23.9659 74.6214C24.0656 73.898 24.0387 73.1451 23.8662 72.3917C23.6921 71.6314 23.3844 70.936 22.974 70.3233C23.0234 70.2783 23.1165 70.1956 23.1429 70.1712C23.1506 70.0855 23.144 69.9957 23.2324 69.9008C23.4196 69.7244 23.6557 69.5782 23.9405 69.4018C24.0756 69.322 24.2005 69.2706 24.3362 69.1702C24.3668 69.1474 24.4087 69.1115 24.441 69.0855C24.6693 68.9027 24.7219 68.5875 24.5579 68.3813C24.394 68.1752 24.0763 68.1557 23.8479 68.3385C23.8154 68.3643 23.7713 68.398 23.7421 68.4232C23.6143 68.5335 23.5353 68.6424 23.4277 68.7569C23.193 68.9961 22.9989 69.1957 22.7858 69.3396C22.6935 69.3935 22.5583 69.3748 22.4969 69.3712L22.3158 69.5008C21.2833 68.4147 19.8775 67.7203 18.3637 67.5854C18.3595 67.5217 18.3539 67.4067 18.3525 67.3721C18.2906 67.3126 18.2157 67.2618 18.1969 67.1333C18.1762 66.8765 18.2107 66.6002 18.2508 66.2669C18.2729 66.1112 18.3096 65.9819 18.3159 65.8128C18.3173 65.7744 18.315 65.7187 18.3149 65.6771C18.3149 65.3841 18.1017 65.1465 17.8388 65.1465H17.8388ZM17.2427 68.8508L17.1013 71.356L17.0911 71.3611C17.0816 71.5852 16.8977 71.7642 16.672 71.7642C16.5795 71.7642 16.4941 71.7344 16.4248 71.6835L16.4207 71.6856L14.3729 70.2294C15.0023 69.6086 15.8073 69.1498 16.735 68.9385C16.9045 68.8999 17.0739 68.8713 17.2427 68.8508ZM18.4359 68.8508C19.5191 68.9844 20.5208 69.4764 21.2884 70.2304L19.2538 71.6774L19.2467 71.6744C19.0661 71.8067 18.8117 71.7738 18.6709 71.5968C18.6133 71.5243 18.583 71.439 18.5794 71.3529L18.5773 71.3519L18.4359 68.8508ZM13.6303 71.1652L15.5001 72.8428L15.498 72.853C15.6668 73.0002 15.6917 73.2556 15.5509 73.4326C15.4933 73.5051 15.4161 73.5538 15.3332 73.5765L15.3312 73.5847L12.9345 74.2786C12.8125 73.1597 13.0754 72.072 13.6303 71.1652ZM22.0341 71.1662C22.3119 71.6179 22.5223 72.1224 22.6475 72.6693C22.7712 73.2097 22.8023 73.7491 22.7513 74.2704L20.3423 73.5745L20.3403 73.5642C20.1246 73.5051 19.992 73.285 20.0422 73.0642C20.0628 72.9738 20.1107 72.8973 20.1755 72.8407L20.1745 72.8356L22.0341 71.1662H22.0341ZM17.4553 72.9724H18.2213L18.6974 73.5694L18.5265 74.3143L17.8388 74.6459L17.1491 74.3133L16.9782 73.5683L17.4553 72.9724ZM19.911 75.0153C19.9436 75.0137 19.976 75.0166 20.0076 75.0225L20.0117 75.0174L22.4908 75.4378C22.128 76.4603 21.4337 77.3462 20.5061 77.939L19.5438 75.6072L19.5468 75.6031C19.4584 75.3971 19.5469 75.1554 19.7503 75.0572C19.8023 75.032 19.8567 75.0181 19.911 75.0153H19.911ZM15.7473 75.0255C15.9364 75.0282 16.1061 75.1599 16.1501 75.3531C16.1707 75.4436 16.1607 75.5332 16.1267 75.6123L16.1338 75.6215L15.1817 77.9298C14.2914 77.3567 13.5823 76.4987 13.203 75.446L15.6608 75.0276L15.6649 75.0327C15.6924 75.0276 15.7202 75.0252 15.7473 75.0255V75.0255ZM17.8235 76.0368C17.8894 76.0344 17.9563 76.048 18.0199 76.0787C18.1032 76.1189 18.1676 76.1823 18.2081 76.2583H18.2172L19.4288 78.4543C19.2716 78.5072 19.1099 78.5524 18.9446 78.59C18.018 78.8011 17.0943 78.7371 16.2579 78.4512L17.4665 76.2593H17.4685C17.541 76.1233 17.6785 76.0422 17.8235 76.0368Z" fill="white" stroke="white" stroke-width="0.221447"/>
</svg>
