<svg width="40" height="40" viewBox="0 0 40 40" fill="none" xmlns="http://www.w3.org/2000/svg">
<g clip-path="url(#clip0_23296_3734)">
<path d="M40 0H0V40H40V0Z" fill="#7AA116" fill-opacity="0.12"/>
<path fill-rule="evenodd" clip-rule="evenodd" d="M31.4059 14.0949C30.7399 13.6869 29.9639 13.3679 29.2229 13.1969C29.0089 11.5149 28.0869 10.2809 26.7129 9.8649C25.6619 9.5479 24.5539 9.7789 23.7159 10.4509C23.2839 9.5279 22.7189 8.7299 22.0319 8.0729C19.8179 5.9549 16.7899 5.3819 13.9329 6.5339C11.4849 7.5219 9.63888 10.2569 9.63888 12.8949C9.63888 13.0389 9.64288 13.1819 9.65188 13.3239C8.31288 13.7479 6.04688 14.9439 6.04688 18.1639C6.04688 21.0839 7.40188 22.3329 8.21088 22.8169C8.63488 23.0719 9.72588 23.5279 10.3879 23.5289H11.1919V22.5289H10.3879C10.0189 22.5279 9.13788 22.2079 8.72388 21.9599C7.95888 21.5009 7.04688 20.4699 7.04688 18.1639C7.04688 15.3869 9.08988 14.4759 10.3069 14.1799C10.5539 14.1199 10.7179 13.8839 10.6849 13.6309C10.6549 13.3899 10.6389 13.1439 10.6389 12.8949C10.6389 10.6779 12.2509 8.2919 14.3079 7.4619C16.7879 6.4569 19.4199 6.9579 21.3409 8.7949C22.0889 9.5109 22.6719 10.4239 23.0749 11.5099C23.1379 11.6799 23.2889 11.8029 23.4689 11.8299C23.6389 11.8559 23.8279 11.7849 23.9389 11.6419C24.5389 10.8669 25.5129 10.5459 26.4229 10.8219C27.4719 11.1399 28.1579 12.1769 28.2559 13.5269C28.2329 13.6579 28.2639 13.7929 28.3419 13.9019C28.4189 14.0109 28.5369 14.0839 28.6679 14.1049C29.3969 14.2239 30.2039 14.5309 30.8829 14.9479C32.7389 16.0849 32.9539 17.2669 32.9539 18.0569C32.9539 22.3129 29.0999 22.5219 28.9359 22.5289L28.9729 23.5279C29.0229 23.5269 33.9539 23.2879 33.9539 18.0569C33.9539 16.4419 33.1199 15.1459 31.4059 14.0949ZM25.9829 16.9419C25.9829 16.4349 25.5699 16.0219 25.0629 16.0219H24.9829V14.0219H23.9829V16.0219H21.9829V14.0219H20.9829V16.0219H18.9829V14.0219H17.9829V16.0219H15.9829V14.0219H14.9829V16.0219H14.9029C14.3959 16.0219 13.9829 16.4349 13.9829 16.9419V17.0219H11.9829V18.0219H13.9829V20.0219H11.9829V21.0219H13.9829V23.0219H11.9829V24.0219H13.9829V26.0219H11.9829V27.0219H13.9829V27.1019C13.9829 27.6099 14.3959 28.0219 14.9029 28.0219H16.9829V27.0219H14.9829V17.0219H24.9829V27.0219H19.9829V28.0219H25.0629C25.5699 28.0219 25.9829 27.6099 25.9829 27.1019V27.0219H27.9829V26.0219H25.9829V24.0219H27.9829V23.0219H25.9829V21.0219H27.9829V20.0219H25.9829V18.0219H27.9829V17.0219H25.9829V16.9419ZM23.9829 32.0219H24.9829V29.0219H23.9829V32.0219ZM20.9829 33.0219H21.9829V30.0219H20.9829V33.0219ZM17.9829 32.0219H18.9829V25.0219H17.9829V32.0219ZM14.9829 34.0219H15.9829V29.0219H14.9829V34.0219Z" fill="#7AA116"/>
</g>
<rect x="0.5" y="0.5" width="39" height="39" stroke="#7AA116"/>
<defs>
<clipPath id="clip0_23296_3734">
<rect width="40" height="40" fill="white"/>
</clipPath>
</defs>
</svg>
