<svg xmlns="http://www.w3.org/2000/svg" xmlns:xlink="http://www.w3.org/1999/xlink" id="Layer_1" x="0" y="0" enable-background="new 0 0 400 400" version="1.1" viewBox="0 0 400 400" xml:space="preserve"><style type="text/css">.st0{fill:#fff}.st1{fill:#647881;stroke:#647881;stroke-width:3;stroke-miterlimit:10}</style><g id="Dark_Blue"><path d="M350,400H50c-27.6,0-50-22.4-50-50V50C0,22.4,22.4,0,50,0h300c27.6,0,50,22.4,50,50v300 C400,377.6,377.6,400,350,400z" class="st0"/></g><g id="surface1"><path d="M214.6,76.3c-2.7-0.3-5.7,0.3-8.1,1.2c-10.5,3.6-16.2,15-12.6,25.5l8.4,24.9l-48,16.2l-7.8-24 c-3.6-10.5-15-16.2-25.5-12.6c-10.5,3.6-16.5,15-12.9,25.5l7.8,23.7L91,165.1c-10.5,3.6-16.2,15.3-12.6,25.8s15,16.2,25.5,12.6 l24.9-8.1l16.2,47.7l-24,7.8c-10.5,3.6-16.2,15-12.6,25.5c3.6,10.5,15,16.5,25.5,12.9l23.7-7.8l8.4,24.6 c3.6,10.5,15.3,16.2,25.8,12.6s16.2-15,12.6-25.5l-8.4-24.9l47.7-16.2l7.8,24c3.6,10.5,15,16.2,25.5,12.6 c10.5-3.6,16.5-15,12.9-25.5l-7.8-23.7l24.9-8.4c10.5-3.6,16.2-15.3,12.6-25.8c-3.6-10.5-15-16.2-25.5-12.6l-24.9,8.4L253,153.4 l24-7.8c10.5-3.6,16.2-15,12.6-25.5c-3.6-10.5-15-16.5-25.5-12.9l-23.7,7.8L232,90.1C229.3,82,222.4,76.9,214.6,76.3z M214.9,166.3 l16.2,47.7l-47.7,16.2l-16.2-47.7L214.9,166.3z" class="st1"/></g></svg>