<svg width="40" height="40" viewBox="0 0 40 40" fill="none" xmlns="http://www.w3.org/2000/svg">
<g clip-path="url(#clip0_23295_3108)">
<path d="M40 0H0V40H40V0Z" fill="#DD344C" fill-opacity="0.12"/>
<path fill-rule="evenodd" clip-rule="evenodd" d="M18.9575 29.4907H19.958V26.4892H18.9575V29.4907ZM11.5028 19.937H14.5043V18.9365H11.5028V19.937ZM18.9575 24.4882H19.958V21.4867H18.9575V24.4882ZM19.958 32.9995V31.4917H18.9575V32.9995H7.0005V19.937H9.50175V18.9365H7.0005V7.0005H18.9575V18.9365H16.5053V19.937H19.4577H32.9995V32.9995H19.958ZM19.958 7.64082L32.2191 18.9365H19.958V7.64082ZM34 19.4367C34 19.3006 33.943 19.1666 33.8389 19.0695L19.7969 6.13207C19.7019 6.04502 19.5808 6 19.4577 6H6.50025C6.22311 6 6 6.22311 6 6.50025V33.4998C6 33.7769 6.22311 34 6.50025 34H33.4998C33.7759 34 34 33.7769 34 33.4998V19.4367Z" fill="#DD344C"/>
</g>
<rect x="0.5" y="0.5" width="39" height="39" stroke="#DD344C"/>
<defs>
<clipPath id="clip0_23295_3108">
<rect width="40" height="40" fill="white"/>
</clipPath>
</defs>
</svg>
