<svg width="40" height="40" viewBox="0 0 40 40" fill="none" xmlns="http://www.w3.org/2000/svg">
<g clip-path="url(#clip0_23311_9689)">
<path d="M40 0H0V40H40V0Z" fill="#7AA116" fill-opacity="0.12"/>
<path fill-rule="evenodd" clip-rule="evenodd" d="M32.831 25.8C32.716 25.682 32.492 25.499 32.096 25.249L32.037 25.681C32.431 25.773 32.68 25.798 32.831 25.8ZM31.944 18.816C31.897 18.225 29.127 16.869 24.781 16.869C20.397 16.869 17.617 18.249 17.617 18.831L17.634 18.922C17.8 19.541 20.676 20.526 24.781 20.526C28.887 20.526 31.763 19.541 31.94 18.863L31.944 18.816ZM31.758 20.265C30.223 21.102 27.438 21.526 24.781 21.526C22.123 21.526 19.339 21.102 17.808 20.286L18.536 25.699C19.037 25.871 19.509 26.16 19.921 26.566C20.176 26.819 20.395 27.112 20.577 27.443C20.964 27.235 21.416 27.181 21.855 27.31C22.536 27.511 23.006 28.09 23.156 28.886C23.457 28.978 23.761 29.115 24.026 29.284C24.859 29.811 25.281 30.497 25.281 31.323C25.281 31.997 25.098 32.554 24.756 33H24.781C26.057 33 27.332 32.867 28.372 32.627C28.772 32.535 29.128 32.428 29.428 32.31C30.015 32.077 30.191 31.871 30.207 31.817L30.932 26.419C28.462 25.726 26.673 25.177 25.597 24.781C25.429 24.91 25.228 25 25 25C24.448 25 24 24.551 24 24C24 23.448 24.448 23 25 23C25.5 23 25.896 23.374 25.971 23.853C26.991 24.227 28.722 24.758 31.066 25.419L31.758 20.265ZM24.281 31.323C24.281 31 24.191 30.572 23.491 30.129C23.226 29.96 22.897 29.831 22.613 29.783C22.342 29.737 22.159 29.479 22.204 29.208C22.165 28.76 21.93 28.375 21.572 28.269C21.283 28.184 20.98 28.296 20.792 28.549C20.682 28.696 20.498 28.769 20.317 28.744C20.135 28.716 19.983 28.591 19.921 28.418C19.757 27.959 19.519 27.576 19.218 27.278C18.945 27.008 18.32 26.51 17.435 26.51C17.124 26.51 16.781 26.571 16.41 26.726C15.607 27.061 14.954 28.064 14.954 28.962C14.954 29.066 14.961 29.167 14.973 29.267C15.004 29.517 14.843 29.751 14.599 29.813C14.035 29.954 13.363 30.34 13.363 31.372C13.363 32.217 13.835 32.675 14.229 32.911C14.328 32.97 14.443 33 14.572 33L22.645 33.008C22.919 33.007 24.281 32.92 24.281 31.323ZM13.954 28.971V28.962C13.954 27.654 14.845 26.296 16.025 25.803C16.516 25.599 17.015 25.509 17.504 25.519L16.644 19.13L16.66 19.128C16.659 19.123 16.656 19.119 16.655 19.115L16.622 18.899C16.62 18.025 17.577 17.3 19 16.777V7.781C19 7.35 18.649 7 18.219 7H7.781C7.351 7 7 7.35 7 7.781V30.218C7 30.649 7.351 31 7.781 31H12.414C12.533 30.06 13.068 29.326 13.954 28.971ZM22.644 34H22.641L14.571 33.991C14.265 33.991 13.97 33.92 13.718 33.77C13.296 33.518 12.642 32.974 12.435 32H10V34H9V32H7.781C6.799 32 6 31.2 6 30.218V7.781C6 6.799 6.799 6 7.781 6H18.219C19.201 6 20 6.799 20 7.781V16.462C21.421 16.082 23.124 15.869 24.781 15.869C28.724 15.869 32.945 17.059 32.945 18.831C32.945 18.854 32.943 18.876 32.94 18.899L32.919 19.056C32.913 19.08 32.898 19.103 32.891 19.126L32.919 19.13L32.24 24.17C33.332 24.798 33.851 25.289 33.942 25.782C33.988 26.028 33.925 26.268 33.765 26.459C33.574 26.686 33.28 26.8 32.847 26.8C32.591 26.8 32.266 26.745 31.904 26.667L31.201 31.893C31.206 32.394 30.731 32.869 29.795 33.239C29.449 33.376 29.046 33.498 28.597 33.602C27.485 33.858 26.131 33.991 24.781 33.991L22.644 34ZM10 15H17V14H10V15ZM10 18H15V17H10V18ZM10 12H17V11H10V12Z" fill="#7AA116"/>
</g>
<rect x="0.5" y="0.5" width="39" height="39" stroke="#7AA116"/>
<defs>
<clipPath id="clip0_23311_9689">
<rect width="40" height="40" fill="white"/>
</clipPath>
</defs>
</svg>
