<svg width="40" height="40"  viewBox="0 0 40 40" xmlns="http://www.w3.org/2000/svg">  <g id="Icon-Architecture/32/Arch_Amazon-Kinesis-Data-Firehose_32" stroke="none" stroke-width="1" fill="none" fill-rule="evenodd">  <g id="Icon-Service/32/Amazon-Kinesis-Data-Firehose" transform="translate(6.000000, 7.000000)" fill="#FFFFFF"> <path d="M27.265,15.536 L26.894,16.465 C24.557,15.53 22.441,15.056 20.604,15.056 L20.604,14.056 C22.568,14.056 24.809,14.554 27.265,15.536 L27.265,15.536 Z M25.363,14.169 C23.773,13.84 22.129,13.5 20.604,13.5 L20.604,12.5 C22.023,12.5 23.557,12.184 25.04,11.879 C25.705,11.743 26.356,11.609 26.977,11.507 L27.139,12.494 C26.53,12.594 25.893,12.725 25.243,12.859 C25.025,12.904 24.804,12.947 24.584,12.992 C24.912,13.057 25.241,13.123 25.565,13.19 C26.114,13.304 26.651,13.415 27.168,13.508 L26.991,14.493 C26.465,14.397 25.919,14.285 25.363,14.169 L25.363,14.169 Z M27.258,10.467 C25.601,11.102 23.107,11.946 20.604,11.946 L20.604,10.946 C22.942,10.946 25.317,10.14 26.901,9.534 L27.258,10.467 Z M18.604,14.61 L13.604,15.86 L13.604,10.141 L18.604,11.391 L18.604,14.61 Z M12.604,17 L10.604,17 L10.604,9 L12.604,9 L12.604,9.5 L12.604,16.5 L12.604,17 Z M19.225,10.515 L13.604,9.11 L13.604,8.5 C13.604,8.224 13.38,8 13.104,8 L10.104,8 C9.828,8 9.604,8.224 9.604,8.5 L9.604,8.833 C2.994,8.351 1.604,6.006 1.604,2.634 L1.604,0 L0.604,0 L0.604,2.634 C0.604,7.225 3.31,9.392 9.604,9.836 L9.604,10.404 C5.758,10.249 3.127,9.65 0.912,8.417 L0.426,9.291 C2.795,10.609 5.57,11.245 9.604,11.405 L9.604,12.478 C6.718,12.402 2.965,12.195 0.256,11.48 L0,12.447 C0.878,12.679 1.862,12.854 2.882,12.994 C1.88,13.137 0.904,13.315 0,13.554 L0.256,14.52 C3.086,13.774 6.67,13.582 9.604,13.513 L9.604,14.596 C5.594,14.754 2.821,15.39 0.428,16.709 L0.911,17.585 C3.151,16.349 5.782,15.751 9.604,15.597 L9.604,16.166 C3.557,16.614 0.607,19.138 0.607,23.885 L0.606,24.088 C0.597,25.759 0.602,25.945 0.61,26.014 L1.605,25.917 C1.596,25.762 1.603,24.579 1.606,24.093 L1.607,23.885 C1.607,19.667 4.085,17.585 9.604,17.167 L9.604,17.5 C9.604,17.777 9.828,18 10.104,18 L13.104,18 C13.38,18 13.604,17.777 13.604,17.5 L13.604,16.89 L19.225,15.485 C19.448,15.43 19.604,15.23 19.604,15 L19.604,11 C19.604,10.771 19.448,10.571 19.225,10.515 L19.225,10.515 Z" id="Amazon-Kinesis-Data-Firehose_Icon_32_Squid"></path> </g> </g></svg>