<svg width="40" height="40" viewBox="0 0 40 40" fill="none" xmlns="http://www.w3.org/2000/svg">
<g clip-path="url(#clip0_23296_3413)">
<path d="M40 0H0V40H40V0Z" fill="#C925D1" fill-opacity="0.12"/>
<path fill-rule="evenodd" clip-rule="evenodd" d="M12.004 27.608L16.271 24.117L16.903 24.89L12.039 28.872L8.91 26.589L9.5 25.781L12.004 27.608ZM9.5 10.474C9.5 8.558 11.07 7 13 7C14.93 7 16.5 8.558 16.5 10.474C16.5 12.39 14.93 13.948 13 13.948C11.07 13.948 9.5 12.39 9.5 10.474ZM13.022 14.979C13.038 14.98 14.717 14.94 16.324 15.934L16.85 15.083C16.289 14.736 15.729 14.509 15.209 14.348C16.57 13.578 17.5 12.139 17.5 10.474C17.5 8.007 15.482 6 13 6C10.519 6 8.5 8.007 8.5 10.474C8.5 12.124 9.413 13.551 10.753 14.327C7.313 15.376 6.336 18.722 6.103 19.88L7.083 20.078C7.391 18.551 8.583 14.98 13.022 14.979ZM19 29.979V22.61C20.507 21.532 22.186 20.979 24 20.979C25.638 20.979 27.286 21.437 28.643 22.268C31.117 23.784 32.821 26.837 32.986 29.979H19ZM18 30.17L12.5 32.979L7 30.17V22.788L12.5 19.979L18 22.788V30.17ZM19.25 15.229C19.25 12.61 21.381 10.479 24 10.479C26.619 10.479 28.75 12.61 28.75 15.229C28.75 17.848 26.619 19.979 24 19.979C21.381 19.979 19.25 17.848 19.25 15.229ZM34 30.479C34 26.773 32.102 23.214 29.164 21.415C28.39 20.941 27.529 20.579 26.631 20.336C28.481 19.379 29.75 17.451 29.75 15.229C29.75 12.059 27.171 9.479 24 9.479C20.829 9.479 18.25 12.059 18.25 15.229C18.25 17.46 19.529 19.393 21.391 20.346C20.318 20.652 19.303 21.153 18.351 21.845L12.5 18.979L6 22.17V30.788L12.5 33.979L18.618 30.979H34V30.479Z" fill="#C925D1"/>
</g>
<rect x="0.5" y="0.5" width="39" height="39" stroke="#C925D1"/>
<defs>
<clipPath id="clip0_23296_3413">
<rect width="40" height="40" fill="white"/>
</clipPath>
</defs>
</svg>
