<svg width="24" height="24" viewBox="0 0 24 24" fill="none" xmlns="http://www.w3.org/2000/svg">
<path fill-rule="evenodd" clip-rule="evenodd" d="M6.00005 2.40039L0.800049 5.40039V19.1004L6.00005 22.1004V19.5004L3.00005 17.8004V6.70039L6.00005 5.00039V2.40039Z" fill="#DDDDDD"/>
<path fill-rule="evenodd" clip-rule="evenodd" d="M0.800049 8.0002V16.5002L3.00005 17.8002V6.7002L0.800049 8.0002Z" fill="white"/>
<path fill-rule="evenodd" clip-rule="evenodd" d="M0.800049 8.0002L3.00005 7.5002V6.7002L0.800049 8.0002Z" fill="white"/>
<path fill-rule="evenodd" clip-rule="evenodd" d="M18 2.40039V5.00039L21 6.70039V17.8004L18 19.5004V22.1004L23.2 19.1004V5.40039L18 2.40039Z" fill="#DDDDDD"/>
<path fill-rule="evenodd" clip-rule="evenodd" d="M21 17.8002L23.2 16.5002V8.0002L21 6.7002V17.8002Z" fill="white"/>
<path fill-rule="evenodd" clip-rule="evenodd" d="M21 7.5002L23.2 8.0002L21 6.7002V7.5002Z" fill="white"/>
<path fill-rule="evenodd" clip-rule="evenodd" d="M21 17.1V17.8L23.2 16.5L21 17.1Z" fill="white"/>
<path fill-rule="evenodd" clip-rule="evenodd" d="M12.0002 5.5L9.00024 7.1L12.0002 8.7L15.0002 7.1L12.0002 5.5Z" fill="#DDDDDD"/>
<path fill-rule="evenodd" clip-rule="evenodd" d="M12.4001 12.4002L15.3001 10.8002V7.7002L12.4001 9.3002V12.4002Z" fill="white"/>
<path fill-rule="evenodd" clip-rule="evenodd" d="M11.7002 9.3002L8.7002 7.7002V10.8002L11.7002 12.4002V9.3002Z" fill="white"/>
<path fill-rule="evenodd" clip-rule="evenodd" d="M8.56016 11.376L5.66016 12.976L8.56016 14.576L11.3602 12.976L8.56016 11.376Z" fill="#DDDDDD"/>
<path fill-rule="evenodd" clip-rule="evenodd" d="M8.76001 18.2756L11.66 16.6756V13.4756L8.76001 15.0756V18.2756Z" fill="white"/>
<path fill-rule="evenodd" clip-rule="evenodd" d="M8.26011 15.0756L5.36011 13.4756V16.6756L8.26011 18.2756V15.0756Z" fill="white"/>
<path fill-rule="evenodd" clip-rule="evenodd" d="M15.5201 11.376L12.6201 12.976L15.5201 14.576L18.4201 12.976L15.5201 11.376Z" fill="#DDDDDD"/>
<path fill-rule="evenodd" clip-rule="evenodd" d="M15.8201 18.2756L18.7201 16.6756V13.4756L15.8201 15.0756V18.2756Z" fill="white"/>
<path fill-rule="evenodd" clip-rule="evenodd" d="M15.2201 15.0756L12.3201 13.4756V16.6756L15.2201 18.2756V15.0756Z" fill="white"/>
</svg>
