<svg viewBox="0 0 44 31" xmlns="http://www.w3.org/2000/svg">
  <path fill-rule="evenodd" clip-rule="evenodd"
    d="M43.3876 11.6998C43.2688 11.6052 42.1585 10.78 39.819 10.78C39.2338 10.78 38.6164 10.8325 37.975 10.9363C37.523 7.87654 34.9606 6.38607 34.8414 6.31855L34.2127 5.96094L33.7983 6.54904C33.7674 6.5928 33.0393 7.6373 32.682 9.12402C32.2626 10.87 32.5171 12.5093 33.4173 13.9126C32.3302 14.5086 30.5949 14.6641 30.2347 14.6687H1.37146C0.618395 14.6687 0.00317759 15.2718 0.000217784 16.0133C-0.0111986 18.6299 0.42643 21.1587 1.26532 23.3256C2.26024 25.8956 3.74015 27.7874 5.66318 28.949C7.82003 30.2511 11.3316 30.998 15.2969 30.998C17.1523 30.998 19.0018 30.833 20.6449 30.5204C23.2343 30.0285 25.5852 29.187 27.6317 28.0204C29.4165 27.003 31.0194 25.7088 32.3962 24.175C34.6833 21.6251 36.0456 18.7771 37.0587 16.2567C37.1953 16.2621 37.3298 16.2646 37.4625 16.2646C39.9661 16.2646 41.5056 15.2785 42.3559 14.4507C43.2781 13.5529 43.6062 12.6581 43.6405 12.5589L43.8198 12.0416L43.3876 11.6998Z" />
  <path fill-rule="evenodd" clip-rule="evenodd"
    d="M4.04572 13.8376H7.91377C8.10024 13.8376 8.25203 13.6884 8.25203 13.5038V10.1073C8.25203 9.92265 8.10024 9.77344 7.91377 9.77344H4.04572C3.85883 9.77344 3.70703 9.92265 3.70703 10.1073V13.5038C3.70703 13.6884 3.85883 13.8376 4.04572 13.8376Z" />
  <path fill-rule="evenodd" clip-rule="evenodd"
    d="M9.37775 13.8376H13.2449C13.4323 13.8376 13.5836 13.6884 13.5836 13.5038V10.1073C13.5836 9.92265 13.4323 9.77344 13.2449 9.77344H9.37775C9.19044 9.77344 9.03906 9.92265 9.03906 10.1073V13.5038C9.03906 13.6884 9.19044 13.8376 9.37775 13.8376Z" />
  <path fill-rule="evenodd" clip-rule="evenodd"
    d="M14.7894 13.8376H18.6571C18.8439 13.8376 18.9957 13.6884 18.9957 13.5038V10.1073C18.9957 9.92265 18.8439 9.77344 18.6571 9.77344H14.7894C14.6025 9.77344 14.4512 9.92265 14.4512 10.1073V13.5038C14.4512 13.6884 14.6025 13.8376 14.7894 13.8376Z" />
  <path fill-rule="evenodd" clip-rule="evenodd"
    d="M20.1375 13.8376H24.0051C24.1925 13.8376 24.3438 13.6884 24.3438 13.5038V10.1073C24.3438 9.92265 24.1925 9.77344 24.0051 9.77344H20.1375C19.951 9.77344 19.7988 9.92265 19.7988 10.1073V13.5038C19.7988 13.6884 19.951 13.8376 20.1375 13.8376Z" />
  <path fill-rule="evenodd" clip-rule="evenodd"
    d="M9.37775 8.95092H13.2449C13.4323 8.95092 13.5836 8.8017 13.5836 8.61748V5.22057C13.5836 5.03635 13.4323 4.88672 13.2449 4.88672H9.37775C9.19044 4.88672 9.03906 5.03635 9.03906 5.22057V8.61748C9.03906 8.8017 9.19044 8.95092 9.37775 8.95092Z" />
  <path fill-rule="evenodd" clip-rule="evenodd"
    d="M14.7894 8.95092H18.6571C18.8439 8.95092 18.9957 8.8017 18.9957 8.61748V5.22057C18.9957 5.03635 18.8439 4.88672 18.6571 4.88672H14.7894C14.6025 4.88672 14.4512 5.03635 14.4512 5.22057V8.61748C14.4512 8.8017 14.6025 8.95092 14.7894 8.95092Z" />
  <path fill-rule="evenodd" clip-rule="evenodd"
    d="M20.1356 8.95092H24.0032C24.1905 8.95092 24.3419 8.8017 24.3419 8.61748V5.22057C24.3419 5.03635 24.1905 4.88672 24.0032 4.88672H20.1356C19.9491 4.88672 19.7969 5.03635 19.7969 5.22057V8.61748C19.7969 8.8017 19.9491 8.95092 20.1356 8.95092Z" />
  <path fill-rule="evenodd" clip-rule="evenodd"
    d="M20.1356 4.0642H24.0032C24.1905 4.0642 24.3419 3.91457 24.3419 3.73034V0.333855C24.3419 0.149214 24.1905 0 24.0032 0H20.1356C19.9491 0 19.7969 0.149214 19.7969 0.333855V3.73034C19.7969 3.91457 19.9491 4.0642 20.1356 4.0642Z" />
  <path fill-rule="evenodd" clip-rule="evenodd"
    d="M25.532 13.8376H29.3992C29.5866 13.8376 29.7379 13.6884 29.7379 13.5038V10.1073C29.7379 9.92265 29.5866 9.77344 29.3992 9.77344H25.532C25.3447 9.77344 25.1934 9.92265 25.1934 10.1073V13.5038C25.1934 13.6884 25.3447 13.8376 25.532 13.8376Z" />
</svg>