<svg width="40" height="40" viewBox="0 0 40 40" fill="none" xmlns="http://www.w3.org/2000/svg">
<g clip-path="url(#clip0_23293_2657)">
<path d="M40 0H0V40H40V0Z" fill="#8C4FFF" fill-opacity="0.12"/>
<path fill-rule="evenodd" clip-rule="evenodd" d="M32.0112 25.3637C32.0112 24.8263 31.8032 24.3219 31.4268 23.9413C31.0385 23.5498 30.5274 23.354 30.0172 23.354C29.5071 23.354 28.996 23.5498 28.6067 23.9413C27.8291 24.7254 27.8291 26.001 28.6067 26.7851C29.3595 27.5453 30.674 27.5463 31.4268 26.7851C31.8032 26.4055 32.0112 25.9011 32.0112 25.3637ZM27.2338 24.2949C27.3735 23.9223 27.5874 23.5717 27.8796 23.2681L26.8217 21.2374L25.5063 23.7445L27.2338 24.2949ZM24.075 24.3369L17.2085 22.1483C16.8529 22.7906 16.3735 23.351 15.8039 23.8025L19.1896 28.5391C20.0306 27.9558 21.1023 27.8579 22.0216 28.2485L24.075 24.3369ZM22.8487 31.0054C22.8487 30.472 22.6426 29.9705 22.2682 29.593C21.8819 29.2034 21.3747 29.0086 20.8676 29.0086C20.3604 29.0086 19.8533 29.2034 19.467 29.593C19.0925 29.9705 18.8865 30.472 18.8865 31.0054C18.8865 31.5388 19.0925 32.0402 19.467 32.4178C20.2386 33.1959 21.4966 33.1959 22.2682 32.4178C22.6426 32.0402 22.8487 31.5388 22.8487 31.0054ZM12.448 23.9783C14.9055 23.9783 16.9054 21.9625 16.9054 19.4833C16.9054 17.0051 14.9055 14.9884 12.448 14.9884C9.99045 14.9884 7.99054 17.0051 7.99054 19.4833C7.99054 21.9625 9.99045 23.9783 12.448 23.9783ZM18.8865 8.99513C18.8865 9.52853 19.0925 10.03 19.467 10.4075C20.2386 11.1867 21.4966 11.1867 22.2682 10.4075C22.6426 10.03 22.8487 9.52853 22.8487 8.99513C22.8487 8.46173 22.6426 7.96029 22.2682 7.58272C21.8819 7.19416 21.3747 6.99838 20.8676 6.99838C20.3604 6.99838 19.8533 7.19416 19.467 7.58272C19.0925 7.96029 18.8865 8.46173 18.8865 8.99513ZM21.9027 11.796C21.5689 11.9208 21.2192 11.9898 20.8676 11.9908C20.3228 11.9908 19.782 11.8349 19.3045 11.5363L16.3309 15.6367C16.9322 16.254 17.3918 17.0121 17.6523 17.8582L24.0264 15.8734L21.9027 11.796ZM17.896 19.4833C17.896 20.0946 17.7929 20.68 17.6097 21.2294L24.5465 23.4389L26.2631 20.1666L24.495 16.7724L17.8554 18.8401C17.8791 19.0518 17.896 19.2656 17.896 19.4833ZM25.4578 16.4727L26.8257 19.0978L28.1184 16.6345C28.048 16.5756 27.9727 16.5267 27.9064 16.4597C27.7231 16.2749 27.5785 16.0672 27.4527 15.8514L25.4578 16.4727ZM28.6067 15.7535C29.3595 16.5137 30.674 16.5147 31.4268 15.7535C31.8032 15.374 32.0112 14.8695 32.0112 14.3321C32.0112 13.7947 31.8032 13.2903 31.4268 12.9097C31.0385 12.5182 30.5274 12.3224 30.0172 12.3224C29.5071 12.3224 28.996 12.5182 28.6067 12.9097C27.8291 13.6938 27.8291 14.9694 28.6067 15.7535ZM32.1271 23.2351C33.291 24.4088 33.291 26.3186 32.1271 27.4913C31.5456 28.0787 30.7819 28.3713 30.0172 28.3713C29.2525 28.3713 28.4878 28.0787 27.9064 27.4913C27.3041 26.884 27.0208 26.0799 27.0416 25.2818L25.0348 24.6425L22.8556 28.7939C22.8923 28.8268 22.9339 28.8508 22.9685 28.8868C23.5292 29.4521 23.8392 30.2053 23.8392 31.0054C23.8392 31.8055 23.5292 32.5586 22.9685 33.124C22.3891 33.7083 21.6293 34 20.8676 34C20.1059 34 19.3461 33.7083 18.7667 33.124C18.205 32.5586 17.896 31.8055 17.896 31.0054C17.896 30.3621 18.104 29.7548 18.4734 29.2453L14.9729 24.3469C14.2171 24.7474 13.3593 24.9771 12.448 24.9771C9.44466 24.9771 7 22.5129 7 19.4833C7 16.4547 9.44466 13.9895 12.448 13.9895C13.6109 13.9895 14.6876 14.3621 15.5731 14.9904L18.5646 10.866C18.1396 10.3356 17.896 9.68735 17.896 8.99513C17.896 8.19503 18.205 7.44288 18.7667 6.87651C19.9256 5.70783 21.8096 5.70783 22.9685 6.87651C23.5292 7.44288 23.8392 8.19503 23.8392 8.99513C23.8392 9.79623 23.5292 10.5484 22.9685 11.1137C22.9032 11.1807 22.8269 11.2306 22.7556 11.2895L24.9882 15.5737L27.0912 14.9185C26.9059 13.9655 27.1764 12.9397 27.9064 12.2035C29.0683 11.0308 30.9632 11.0288 32.1271 12.2035C33.291 13.3772 33.291 15.2871 32.1271 16.4597C31.5456 17.0471 30.7819 17.3397 30.0172 17.3397C29.6616 17.3397 29.308 17.2698 28.9712 17.144L27.3834 20.1686L28.6919 22.6817C29.8082 22.1224 31.1989 22.2982 32.1271 23.2351ZM12.9433 18.9839H14.9243V19.9828H12.9433V21.9805H11.9527V19.9828H9.97163V18.9839H11.9527V16.9861H12.9433V18.9839Z" fill="#8C4FFF"/>
</g>
<rect x="0.5" y="0.5" width="39" height="39" stroke="#8C4FFF"/>
<defs>
<clipPath id="clip0_23293_2657">
<rect width="40" height="40" fill="white"/>
</clipPath>
</defs>
</svg>
