<svg width="24" height="24" viewBox="0 0 24 24" fill="none" xmlns="http://www.w3.org/2000/svg">
<path d="M17.9801 7.05965L7.2601 17.7496L6.3501 16.8396L17.0601 6.13965L17.9801 7.05965Z" fill="#DDDDDD"/>
<path d="M13.9573 14.0876C15.0782 13.0063 15.1103 11.221 14.029 10.1001C12.9477 8.97925 11.1624 8.94715 10.0415 10.0285C8.92063 11.1098 8.88853 12.895 9.96984 14.0159C11.0511 15.1368 12.8364 15.1689 13.9573 14.0876Z" fill="white"/>
<path d="M21.7499 11.9995C21.7528 14.0848 21.083 16.1153 19.8399 17.7895C19.7381 17.596 19.5963 17.4263 19.4239 17.2918C19.2515 17.1573 19.0524 17.0611 18.8399 17.0095C19.6231 15.9496 20.1469 14.7208 20.3692 13.4217C20.5915 12.1227 20.5061 10.7896 20.1199 9.52954C20.5369 9.36985 20.9253 9.14358 21.2699 8.85954C21.6028 9.87238 21.765 10.9335 21.7499 11.9995ZM17.7499 19.8395C16.4849 20.7763 15.0114 21.3921 13.4561 21.6342C11.9007 21.8763 10.3098 21.7375 8.81988 21.2295C9.10392 20.8849 9.33019 20.4966 9.48988 20.0795C10.7543 20.4707 12.093 20.5587 13.3977 20.3363C14.7024 20.1139 15.9364 19.5875 16.9999 18.7995C17.0473 19.0202 17.1427 19.2277 17.2792 19.4074C17.4157 19.5872 17.59 19.7347 17.7899 19.8395H17.7499ZM15.1399 2.76954C14.8558 3.11413 14.6296 3.5025 14.4699 3.91954H14.4199C13.1682 3.54553 11.847 3.46647 10.5596 3.68854C9.2723 3.91062 8.05389 4.42779 6.99988 5.19954C6.94656 4.98777 6.84966 4.78946 6.71535 4.61727C6.58104 4.44509 6.41229 4.30281 6.21988 4.19954C7.48491 3.26279 8.95833 2.64694 10.5137 2.40484C12.0691 2.16273 13.66 2.30161 15.1499 2.80954L15.1399 2.76954ZM5.19988 6.99954C4.41668 8.0595 3.8929 9.28832 3.6706 10.5874C3.44831 11.8864 3.53369 13.2195 3.91988 14.4795C3.50285 14.6392 3.11447 14.8655 2.76988 15.1495C2.26023 13.6582 2.12046 12.0654 2.36259 10.5082C2.60472 8.95087 3.2215 7.47571 4.15988 6.20954C4.26476 6.40938 4.41227 6.58373 4.59199 6.72025C4.77171 6.85676 4.97923 6.95211 5.19988 6.99954Z" fill="#DDDDDD"/>
<path fill-rule="evenodd" clip-rule="evenodd" d="M19.5201 5.50988C19.5201 5.3121 19.4615 5.11876 19.3516 4.95431C19.2417 4.78986 19.0855 4.66169 18.9028 4.586C18.7201 4.51032 18.519 4.49051 18.325 4.5291C18.131 4.56768 17.9529 4.66292 17.813 4.80278C17.6732 4.94263 17.5779 5.12081 17.5393 5.31479C17.5007 5.50877 17.5206 5.70984 17.5962 5.89257C17.6719 6.07529 17.8001 6.23147 17.9645 6.34135C18.129 6.45123 18.3223 6.50988 18.5201 6.50988C18.7853 6.50988 19.0397 6.40453 19.2272 6.21699C19.4148 6.02945 19.5201 5.7751 19.5201 5.50988ZM20.8801 5.50988C20.8801 5.9806 20.7405 6.44075 20.479 6.83214C20.2175 7.22353 19.8458 7.52858 19.4109 7.70872C18.976 7.88885 18.4975 7.93598 18.0358 7.84415C17.5741 7.75232 17.1501 7.52565 16.8172 7.1928C16.4844 6.85995 16.2577 6.43587 16.1658 5.9742C16.074 5.51252 16.1211 5.03398 16.3013 4.5991C16.4814 4.16421 16.7865 3.7925 17.1779 3.53099C17.5692 3.26947 18.0294 3.12988 18.5001 3.12988C19.1313 3.12988 19.7367 3.38063 20.183 3.82697C20.6294 4.27331 20.8801 4.87867 20.8801 5.50988Z" fill="white"/>
<path fill-rule="evenodd" clip-rule="evenodd" d="M19.5201 18.5502C19.5201 18.3524 19.4614 18.159 19.3516 17.9946C19.2417 17.8301 19.0855 17.702 18.9028 17.6263C18.7201 17.5506 18.519 17.5308 18.325 17.5694C18.131 17.608 17.9528 17.7032 17.813 17.8431C17.6731 17.9829 17.5779 18.1611 17.5393 18.3551C17.5007 18.549 17.5205 18.7501 17.5962 18.9328C17.6719 19.1156 17.8001 19.2717 17.9645 19.3816C18.129 19.4915 18.3223 19.5502 18.5201 19.5502C18.7853 19.5502 19.0397 19.4448 19.2272 19.2573C19.4147 19.0697 19.5201 18.8154 19.5201 18.5502ZM20.8801 18.5502C20.8781 19.0204 20.7369 19.4796 20.4741 19.8697C20.2114 20.2597 19.839 20.5632 19.404 20.7418C18.9689 20.9205 18.4907 20.9662 18.0297 20.8732C17.5687 20.7802 17.1455 20.5528 16.8137 20.2195C16.4818 19.8863 16.2561 19.4622 16.1651 19.0008C16.0741 18.5394 16.1218 18.0614 16.3022 17.6271C16.4827 17.1928 16.7877 16.8217 17.1789 16.5606C17.5701 16.2995 18.0298 16.1602 18.5001 16.1602C19.1322 16.1628 19.7376 16.4158 20.1836 16.8637C20.6297 17.3116 20.8801 17.918 20.8801 18.5502Z" fill="white"/>
<path fill-rule="evenodd" clip-rule="evenodd" d="M6.46004 18.5502C6.46004 18.3524 6.40139 18.1591 6.29151 17.9946C6.18163 17.8302 6.02545 17.702 5.84272 17.6263C5.66 17.5506 5.45893 17.5308 5.26495 17.5694C5.07097 17.608 4.89278 17.7032 4.75293 17.8431C4.61308 17.9829 4.51784 18.1611 4.47925 18.3551C4.44067 18.5491 4.46047 18.7501 4.53616 18.9329C4.61185 19.1156 4.74002 19.2718 4.90447 19.3816C5.06892 19.4915 5.26226 19.5502 5.46004 19.5502C5.72526 19.5502 5.97961 19.4448 6.16715 19.2573C6.35468 19.0697 6.46004 18.8154 6.46004 18.5502ZM7.82004 18.5502C7.81806 19.0209 7.67654 19.4804 7.41338 19.8707C7.15021 20.261 6.77723 20.5645 6.34159 20.7428C5.90595 20.9211 5.42722 20.9662 4.96594 20.8725C4.50465 20.7787 4.08154 20.5502 3.75009 20.216C3.41864 19.8817 3.19375 19.4567 3.10386 18.9947C3.01397 18.5326 3.06311 18.0543 3.24507 17.6201C3.42703 17.186 3.73363 16.8156 4.12612 16.5557C4.5186 16.2959 4.97932 16.1582 5.45004 16.1602C5.76259 16.1615 6.07181 16.2243 6.36007 16.3452C6.64832 16.466 6.90995 16.6424 7.13003 16.8643C7.35011 17.0863 7.52431 17.3494 7.6427 17.6386C7.7611 17.9279 7.82135 18.2376 7.82004 18.5502Z" fill="white"/>
<path fill-rule="evenodd" clip-rule="evenodd" d="M6.46006 5.5099C6.46006 5.31212 6.40141 5.11878 6.29153 4.95433C6.18165 4.78988 6.02547 4.66171 5.84274 4.58602C5.66002 4.51034 5.45895 4.49053 5.26497 4.52912C5.07099 4.5677 4.89281 4.66294 4.75295 4.8028C4.6131 4.94265 4.51786 5.12083 4.47927 5.31481C4.44069 5.50879 4.46049 5.70986 4.53618 5.89259C4.61187 6.07531 4.74004 6.23149 4.90449 6.34137C5.06894 6.45125 5.26228 6.5099 5.46006 6.5099C5.72528 6.5099 5.97963 6.40455 6.16717 6.21701C6.3547 6.02947 6.46006 5.77512 6.46006 5.5099ZM7.82006 5.5099C7.82006 5.98105 7.68022 6.44159 7.41825 6.83319C7.15629 7.2248 6.78399 7.52984 6.34852 7.70968C5.91305 7.88952 5.434 7.93606 4.97205 7.84341C4.51011 7.75077 4.08605 7.5231 3.75361 7.18925C3.42116 6.8554 3.19528 6.43039 3.10458 5.96806C3.01388 5.50573 3.06244 5.02688 3.24411 4.59217C3.42578 4.15746 3.73239 3.78645 4.12509 3.52614C4.51779 3.26582 4.97892 3.12792 5.45006 3.1299C5.76214 3.1299 6.07114 3.19153 6.35934 3.31126C6.64753 3.43099 6.90924 3.60646 7.12945 3.82759C7.34965 4.04873 7.52402 4.31118 7.64253 4.59987C7.76105 4.88857 7.82138 5.19783 7.82006 5.5099Z" fill="white"/>
</svg>
