<svg width="40" height="40" viewBox="0 0 40 40" xmlns="http://www.w3.org/2000/svg">  <g id="Icon-Architecture/32/Arch_Amazon-Nimble-Studio_32" stroke="none" stroke-width="1" fill="none" fill-rule="evenodd">  <g id="Icon-Service/32/Amazon-Nimble-Studio_32" transform="translate(6.000000, 6.000000)" fill="#FFFFFF"> <path d="M17.905299,24.457 C17.137299,24.048 15.854299,23.364 14.658299,22.005 C13.554299,20.75 13.023299,19.505 12.634299,18.597 C12.193299,17.561 11.863299,16.475 11.655299,15.368 C11.616299,15.158 11.448299,14.997 11.238299,14.965 C11.022299,14.936 10.820299,15.04 10.721299,15.228 C10.434299,15.775 10.172299,16.344 9.94029901,16.92 C9.42429901,18.206 7.84029901,22.494 8.15129901,25.968 L6.06529901,25.968 C5.49729901,23.855 4.86829901,22.141 2.41029901,18.316 C2.21429901,18.011 2.02229901,17.698 1.84029901,17.399 C1.59929901,17.005 1.36829901,16.627 1.15529901,16.316 L4.02629901,12.498 C4.19329901,12.803 4.35029901,13.116 4.49529901,13.433 C4.88429901,14.289 5.06029901,14.914 5.48929901,16.424 L5.70729901,17.187 C5.85729901,17.716 6.09829901,18.558 6.41029901,19.609 C6.47829901,19.843 6.70329901,20 6.95029901,19.964 C7.19229901,19.935 7.37829901,19.734 7.38829901,19.49 C7.55729901,15.727 8.34629901,12.241 9.73629901,9.129 C10.741299,6.876 12.041299,4.915 13.394299,3.606 C13.913299,3.105 14.471299,2.639 15.061299,2.215 L17.918299,6.856 C17.386299,7.266 16.898299,7.728 16.463299,8.234 C15.845299,8.95 15.303299,9.809 14.895299,10.717 C14.540299,11.51 13.944299,13.165 13.952299,15.338 C13.955299,15.928 13.961299,17.311 14.543299,18.959 C14.820299,19.743 15.678299,21.751 17.667299,23.472 C19.612299,25.156 21.655299,25.726 22.705299,25.959 C20.359299,25.766 18.644299,24.852 17.905299,24.457 M14.025299,27 C12.342299,27 10.714299,26.669 9.17229901,26.046 C8.79829901,22.683 10.509299,18.186 10.868299,17.292 C10.912299,17.184 10.957299,17.075 11.003299,16.966 C11.196299,17.655 11.434299,18.332 11.715299,18.989 C12.106299,19.906 12.698299,21.291 13.908299,22.666 C15.223299,24.161 16.607299,24.898 17.434299,25.34 C17.756299,25.511 18.256299,25.774 18.898299,26.04 C17.355299,26.667 15.724299,27 14.025299,27 M1.02529901,14 C1.02529901,6.832 6.85729901,1 14.025299,1 C14.363299,1 14.694299,1.026 15.025299,1.051 C14.994299,1.063 14.962299,1.069 14.933299,1.088 C14.136299,1.62 13.384299,2.225 12.699299,2.887 C11.256299,4.282 9.87929901,6.354 8.82229901,8.722 C7.72129901,11.188 6.98429901,13.877 6.62029901,16.744 L6.45129901,16.151 C6.02129901,14.635 5.82529901,13.944 5.40529901,13.019 C5.14029901,12.438 4.83729901,11.871 4.50329901,11.332 C4.41629901,11.192 4.26529901,11.104 4.10029901,11.097 C3.93929901,11.087 3.77829901,11.164 3.67829901,11.296 L1.00929901,14.846 C1.01129901,14.775 1.01229901,14.701 1.01429901,14.633 C1.02029901,14.392 1.02529901,14.171 1.02529901,14 M27.025299,14 C27.025299,18.203 24.981299,22.146 21.559299,24.586 C20.608299,24.248 19.447299,23.69 18.321299,22.716 C16.514299,21.152 15.736299,19.335 15.486299,18.626 C14.961299,17.137 14.955299,15.919 14.9522113,15.333 C14.944299,13.349 15.485299,11.846 15.807299,11.126 C16.274299,10.089 16.834299,9.336 17.220299,8.886 C17.704299,8.325 18.259299,7.823 18.871299,7.395 C19.089299,7.244 19.149299,6.949 19.010299,6.724 L15.636299,1.242 C15.597299,1.177 15.542299,1.127 15.480299,1.087 C21.965299,1.813 27.025299,7.324 27.025299,14 M26.804299,25.266 C26.112299,25.306 24.826299,25.379 23.263299,25.056 C23.125299,25.027 22.935299,24.986 22.726299,24.936 C26.049299,22.287 28.025299,18.275 28.025299,14 C28.025299,6.281 21.745299,0 14.025299,0 C6.30529901,0 0.0252990107,6.281 0.0252990107,14 C0.0252990107,14.165 0.0202990107,14.377 0.0142990107,14.609 C0.000299010658,15.231 -0.0177009893,15.936 0.0382990107,16.374 L0.0532990107,16.372 C0.0652990107,16.458 0.0832990107,16.545 0.139299011,16.618 C0.377299011,16.922 0.673299011,17.407 0.986299011,17.921 C1.17329901,18.226 1.36829901,18.545 1.56829901,18.857 C4.14129901,22.859 4.62429901,24.405 5.19729901,26.595 C5.25529901,26.815 5.45329901,26.968 5.68029901,26.968 L8.71729901,26.968 C8.73229901,26.968 8.74629901,26.96 8.76029901,26.958 C10.432299,27.639 12.199299,28 14.025299,28 C16.194299,28 18.345299,27.482 20.272299,26.52 C21.003299,26.73 21.834299,26.901 22.762299,26.967 C23.041299,26.987 23.319299,26.996 23.595299,26.996 C25.555299,26.996 27.383299,26.54 27.739299,26.169 C27.841299,26.063 27.909299,25.882 27.893299,25.736 C27.839299,25.207 27.335299,25.237 26.804299,25.266" id="Fill-6"></path> </g> </g></svg>