<svg xmlns="http://www.w3.org/2000/svg" role="img" viewBox="-7.43 -4.93 464.36 287.86"><defs><style>.cls-1,.cls-3{fill:#3b7497}.cls-1,.cls-2{fill-rule:evenodd}.cls-2{fill:#477495}</style></defs><path d="M46.609 135.166a5.071 5.071 0 0 0 1.963.632 25.298 25.298 0 0 1 7.405 3.136 14.502 14.502 0 0 1 6.556 9.388 23.003 23.003 0 0 1-.535 12.484 20.345 20.345 0 0 1-9.794 11.502 33.41 33.41 0 0 1-11.127 3.634 60.174 60.174 0 0 1-10.153.713c-9.026-.031-18.053-.01-27.078-.01h-1.82c-.134-.155-.176-.197-.212-.243-.034-.046-.089-.095-.089-.144q-.03-38.418-.05-76.837a4.652 4.652 0 0 1 .066-.599c.402-.41.83-.304 1.225-.304 9.846.002 19.694-.061 29.54.048a45.282 45.282 0 0 1 14.848 2.388 20.63 20.63 0 0 1 5.445 2.808 15.409 15.409 0 0 1 6.208 9.473 19.461 19.461 0 0 1-.217 9.733 16.69 16.69 0 0 1-10.798 11.413c-.469.17-1.027.171-1.383.785zM22.558 160.79c3.716-.06 7.34.145 10.959-.146a13.16 13.16 0 0 0 5.072-1.309 7.34 7.34 0 0 0 4.196-6.26 14.146 14.146 0 0 0-.011-2.458 6.423 6.423 0 0 0-4.111-5.65 12.964 12.964 0 0 0-3.718-1 92.736 92.736 0 0 0-12.11-.246c-.097.002-.193.113-.29.175-.192 1.43-.206 15.016.013 16.894zm.01-31.544c3.227-.053 6.39.203 9.528-.165a7.745 7.745 0 0 0 7.133-8.78 5.45 5.45 0 0 0-3.904-5.093 14.183 14.183 0 0 0-4.47-.797q-3.687-.03-7.373-.03c-.337 0-.711-.077-.965.26-.174 1.649-.16 12.824.05 14.605zm90.54 47.3L99.72 150.553h-7.722c-.07.088-.107.132-.142.178-.035.047-.09.093-.098.144a3.698 3.698 0 0 0-.05.524q-.027 12.397-.05 24.793a.77.77 0 0 1-.04.17c-.042.04-.084.081-.128.12-.044.036-.089.102-.134.102q-9.758.033-19.518.052a3.902 3.902 0 0 1-.644-.096c-.276-1.394-.382-74.61-.126-77.727.29-.41.732-.294 1.122-.294 10.376.008 20.752-.039 31.127.069a41.687 41.687 0 0 1 12.954 2.135 22.11 22.11 0 0 1 12.498 9.698 21.4 21.4 0 0 1 2.88 8.78 34.83 34.83 0 0 1-.623 12.403 22.988 22.988 0 0 1-9.583 13.43c-.623.434-1.273.828-2.073 1.345 2.708 5.05 5.577 9.996 8.345 14.996 2.77 5.003 5.64 9.951 8.442 15.171h-23.05zM91.78 134.007c3.295 0 6.395.062 9.49-.026a13.738 13.738 0 0 0 4.782-1.032 8.422 8.422 0 0 0 5.268-5.93 12.997 12.997 0 0 0 .35-4.356c-.299-3.695-1.923-5.735-5.484-6.89a18.046 18.046 0 0 0-3.775-.743c-3.156-.322-6.318-.176-9.476-.209-.397-.004-.832-.098-1.155.3v18.886zm230.054 3.711q0-13.98-.006-27.96a10.974 10.974 0 0 1 6.524-10.381 11.112 11.112 0 0 1 4.455-.857c5.334.005 10.673-.094 16 .094a46.086 46.086 0 0 1 16.898 3.665c9.022 3.923 14.691 10.8 17.565 20.093a45.991 45.991 0 0 1 1.856 11.235 60.217 60.217 0 0 1-.776 14.178c-1.33 7.194-4.207 13.636-9.475 18.85a32.6 32.6 0 0 1-14.548 8.173 49.28 49.28 0 0 1-12.834 1.818c-1.876.015-3.752-.018-5.627.024-3.101.069-6.203.064-9.306.17a10.153 10.153 0 0 1-10.47-8.347 21.886 21.886 0 0 1-.216-4.552q.015-10.991.005-21.982v-4.22zm20.818 22.233a6.026 6.026 0 0 0 .814.116 31.445 31.445 0 0 0 9.169-1.332 13.977 13.977 0 0 0 7.496-5.514 20.82 20.82 0 0 0 3.14-7.567 45.338 45.338 0 0 0 .575-13.113 23.382 23.382 0 0 0-2.324-8.766 13.883 13.883 0 0 0-9.33-7.637 31.808 31.808 0 0 0-8.339-1.026c-.391.005-.83-.125-1.2.332l-.001 44.507zm-10.157-55.03a4.233 4.233 0 1 0 4.307 4.218 4.329 4.329 0 0 0-4.307-4.218zm-108.854 15.138c-1.403-.989-2.616-1.907-3.891-2.73a17.274 17.274 0 0 0-10.25-2.452 17.038 17.038 0 0 0-9.09 2.875 18.67 18.67 0 0 0-7.046 8.981 25.361 25.361 0 0 0-1.697 7.512 35.973 35.973 0 0 0 1.304 13.563 19.237 19.237 0 0 0 3.098 6.067 16.14 16.14 0 0 0 9.929 5.838 28.46 28.46 0 0 0 8.048.414 8.82 8.82 0 0 0 3.863-1.296v-10.783h-11.208a149.5 149.5 0 0 1-.101-16.614c.279-.288.65-.2.987-.2 7.092-.006 14.184-.022 21.276.002a7.396 7.396 0 0 1 7.159 5.213 5.302 5.302 0 0 1 .284 1.72l-.01 29.716a5.976 5.976 0 0 1-.075.624 27.788 27.788 0 0 1-5.483 3.951 43.141 43.141 0 0 1-20.105 5.588 43.815 43.815 0 0 1-18.055-3.043 33.798 33.798 0 0 1-19.27-19.608 41.266 41.266 0 0 1-2.822-13.34 51.248 51.248 0 0 1 1.033-15.027c3.764-15.177 13.087-24.917 28.332-28.791a41.555 41.555 0 0 1 13.788-1.008 33.82 33.82 0 0 1 17.973 7.315 16.422 16.422 0 0 1 3.183 2.96c-3.708 4.176-7.393 8.32-11.154 12.553zm40.249-21.486h24.907c.843 1.73 23.64 76.65 23.725 77.993h-21.596c-1.416-5.374-2.5-10.864-3.872-16.243-1.356-.293-19.735-.365-21.956-.082-.624 2.67-1.255 5.398-1.894 8.122q-.96 4.091-1.937 8.194h-21.166zm12.33 15.423a.823.823 0 0 0-.686.783q-3.24 14.52-6.464 29.045a103.587 103.587 0 0 0 14.177-.094c-2.603-9.82-4.603-19.782-7.027-29.734zm140.942 1.812v12.124a30.949 30.949 0 0 0 5.087.15c1.7.037 3.4.009 5.1.009h15.06a149.832 149.832 0 0 1 .04 17.225h-25.017c-.411 1.326-.541 9.977-.246 13.75.044.039.086.079.13.117a.656.656 0 0 0 .138.103.56.56 0 0 0 .172.031c.175.013.35.03.526.03l29.544.048a.461.461 0 0 1 .153.064c.314 1.216.411 14.413.127 16.947-1.27.303-49.577.358-51.406.059-.245-1.343-.342-74.815-.1-77.66a1.28 1.28 0 0 1 .116-.13.304.304 0 0 1 .14-.088 8.52 8.52 0 0 1 .873-.07q24.443.013 48.889.04c.1 0 .2.094.394.19v16.811c-.541.455-1.215.24-1.828.241q-12.926.025-25.853.011c-.633-.002-1.265-.002-2.039-.002z" class="cls-1"/><path d="M143.173 172.772c-.03-.581-.085-1.164-.085-1.746q-.006-28.334 0-56.668c0-.582.055-1.164.085-1.746.82.068.951.793 1.23 1.34a9.523 9.523 0 0 0 4.59 4.41 10.325 10.325 0 0 0 13.506-4.568c.257-.507.417-1.133 1.154-1.182.03.581.084 1.164.084 1.746q.006 28.335 0 56.668c0 .582-.054 1.165-.084 1.746-.643-.04-.862-.538-1.067-1.02a8.769 8.769 0 0 0-3.727-4.034 9.593 9.593 0 0 0-6.656-1.552 10.32 10.32 0 0 0-8.037 5.743c-.216.44-.447.82-.993.863z" class="cls-2"/><path d="M303.011 232.26a15.547 15.547 0 0 0 1.525 2.855c1.787 3.096 3.617 6.166 5.41 9.258a12.005 12.005 0 0 1 .994 2.048 3.888 3.888 0 0 1-6.519 3.905 11.576 11.576 0 0 1-1.584-2.315q-3.2-5.457-6.39-10.924c-.205-.35-.43-.688-.707-1.126a13.283 13.283 0 0 1-10.623-3.537 12.455 12.455 0 0 1-3.722-7.03 12.71 12.71 0 0 1 22.067-10.523 12.45 12.45 0 0 1 3.166 8.874 13.03 13.03 0 0 1-3.617 8.515zm-9.122-15.247a6.305 6.305 0 1 0 6.425 6.218c.061-3.19-3.014-6.53-6.425-6.218zM175.6 42.357a13.181 13.181 0 0 1 10.126 3.08 12.723 12.723 0 1 1-18.189 17.666 12.404 12.404 0 0 1-2.881-8.633 12.61 12.61 0 0 1 3.642-8.37 5.483 5.483 0 0 0-.842-1.77q-3.146-5.387-6.31-10.765a5.297 5.297 0 0 1-.95-2.963 3.707 3.707 0 0 1 2.425-3.544 3.745 3.745 0 0 1 4.22.818 8.3 8.3 0 0 1 1.396 2.015q3.29 5.61 6.56 11.23c.233.398.503.775.803 1.236zm1.779 18.975c3.34.28 6.272-2.593 6.407-6.274a6.488 6.488 0 0 0-6.399-6.397 6.362 6.362 0 0 0-6.339 6.385c.002 3.028 2.566 6.583 6.33 6.286zm68.733-16.749c-.406.294-.49.78-.7 1.187a10.975 10.975 0 0 1-20.373-1.216 9.064 9.064 0 0 1-.42-1.834c-.26-1.552.165-3.077.034-4.613a5.057 5.057 0 0 0 .439-.74 11.312 11.312 0 0 1 5.986-6.359c.207-.096.4-.219.55-.303a4.896 4.896 0 0 0 .164-1.985q.014-9.758.01-19.517a10.188 10.188 0 0 1 .122-1.922 3.954 3.954 0 0 1 7.848.566c.03.467.01.937.01 1.406v21.72a11.481 11.481 0 0 1 6.301 7.178 17.672 17.672 0 0 1 .386 3.903 8.575 8.575 0 0 0-.357 2.53zm-10.652-8.03a4.486 4.486 0 0 0-4.598 4.49 4.572 4.572 0 0 0 4.586 4.71 4.674 4.674 0 0 0 4.644-4.699 4.59 4.59 0 0 0-4.632-4.501zm-10.1 196.902c.266-.447.543-.89.799-1.343 2.322-4.09 5.845-6.148 10.527-5.815 4.616.329 7.758 2.857 9.49 7.139l.262.647a13.385 13.385 0 0 1 .386 4.152c.02.769-.517 1.445-.314 2.23a1.297 1.297 0 0 0-.207.282 11.303 11.303 0 0 1-6.357 6.669 1.757 1.757 0 0 0-.305.219 3.763 3.763 0 0 0-.168 1.875q-.019 9.934-.01 19.869a11.494 11.494 0 0 1-.047 1.579 4.007 4.007 0 0 1-3.755 3.36 3.956 3.956 0 0 1-3.977-3.077 11.917 11.917 0 0 1-.16-2.274c-.015-6.564-.01-13.128-.024-19.692a4.921 4.921 0 0 0-.163-1.981 4.174 4.174 0 0 0-.515-.366 10.912 10.912 0 0 1-5.408-6.416 5.55 5.55 0 0 0-.404-.772 28.094 28.094 0 0 1 .35-6.285zm10.506-.878a4.616 4.616 0 1 0 .119 9.231 4.616 4.616 0 0 0-.119-9.23zm-40.41-2.474a1.404 1.404 0 0 0-.986.277 9.315 9.315 0 0 1-4.966 1.547 3.29 3.29 0 0 0-.637.167c-.908 1.53-1.869 3.135-2.813 4.75q-3.374 5.763-6.736 11.535a8.348 8.348 0 0 1-1.571 2.104 3.895 3.895 0 0 1-6.314-3.99 12.75 12.75 0 0 1 1.483-2.982q4.206-7.213 8.43-14.416c.147-.249.278-.507.488-.893a9.875 9.875 0 0 1-1.549-7.47 9.258 9.258 0 0 1 2.264-4.262 1.855 1.855 0 0 0 .628-1.21 3.776 3.776 0 0 0 1.765-.71 9.238 9.238 0 0 1 13.599 8.99c-.032.466-.089.93-.134 1.397a11.558 11.558 0 0 1-2.756 4.523c-.142.133-.134.424-.195.643zm-6.078-10.251a2.835 2.835 0 0 0-2.921 2.84 2.881 2.881 0 0 0 5.76.077 2.833 2.833 0 0 0-2.839-2.917zm99.319-157.985c-.635-.265-1.097.132-1.614.39a9.26 9.26 0 0 1-13.537-7.862c-.038-.638-.003-1.282-.002-1.922a13.83 13.83 0 0 1 2.823-5.294 11.01 11.01 0 0 1 6.847-2.434c1.69-2.869 3.351-5.688 5.008-8.51q2.536-4.32 5.058-8.647a4.01 4.01 0 0 1 4.195-2.265 3.89 3.89 0 0 1 3.286 4.871 8.48 8.48 0 0 1-.979 2.054q-4.526 7.736-9.06 15.468c-.116.2-.229.404-.292.517-.11.566.213.875.4 1.227a8.917 8.917 0 0 1 1.1 5.923 2.414 2.414 0 0 0 .048 1.216c-.093.066-.237.114-.27.203a9.616 9.616 0 0 1-2.57 3.818 1.367 1.367 0 0 0-.441 1.247zm-3.062-7.826a2.919 2.919 0 0 0-2.864-2.92 3.022 3.022 0 0 0-2.874 2.945 2.964 2.964 0 0 0 2.897 2.907 2.897 2.897 0 0 0 2.841-2.932z" class="cls-1"/><path d="M163.825 176.504a10.35 10.35 0 1 1-20.7 0V108.89a10.35 10.35 0 0 1 20.7 0v67.614z" class="cls-2"/><circle cx="153.425" cy="176.461" r="10.329" class="cls-3"/><circle cx="153.425" cy="108.977" r="10.329" class="cls-3"/><circle cx="153.425" cy="176.461" r="4.068" fill="#fff"/><path fill="#30799b" fill-rule="evenodd" d="M317.895 86.786a3.04 3.04 0 0 1-1.987 2.84 3 3 0 0 1-3.262-.63 5.418 5.418 0 0 1-.972-1.24 109.168 109.168 0 0 0-8.174-11.637 6.869 6.869 0 0 1-.766-1.175 3.116 3.116 0 0 1 4.776-3.826 6.255 6.255 0 0 1 .859.876 109.222 109.222 0 0 1 8.877 12.643 3.687 3.687 0 0 1 .65 2.149zM204.63 42.58a3.107 3.107 0 0 1 1.904 5.565 5.997 5.997 0 0 1-1.377.764c-2.062.838-4.134 1.647-6.205 2.46a4.789 4.789 0 0 1-1.704.384 3.095 3.095 0 0 1-3-2.027 3.047 3.047 0 0 1 .947-3.486 5.675 5.675 0 0 1 1.362-.787c2.112-.866 4.24-1.694 6.36-2.546a4.738 4.738 0 0 1 1.713-.327zm-42.367 151.167a2.917 2.917 0 0 1 2.001.809 13.226 13.226 0 0 1 1.159 1.317q1.787 2.394 3.535 4.817a8.299 8.299 0 0 1 .828 1.343 3.103 3.103 0 0 1-.964 3.776 3.032 3.032 0 0 1-3.75 0 6.898 6.898 0 0 1-1.201-1.27q-1.954-2.598-3.854-5.237a5.846 5.846 0 0 1-.769-1.372 3.158 3.158 0 0 1 3.015-4.183zm104.968 42.623a3.192 3.192 0 0 1-3-2.295 3.085 3.085 0 0 1 1.227-3.403 5.099 5.099 0 0 1 1.087-.562q3.203-1.217 6.422-2.395a6.665 6.665 0 0 1 1.354-.365 3.084 3.084 0 0 1 3.273 1.852 3.12 3.12 0 0 1-.994 3.77 4.583 4.583 0 0 1-1.074.59q-3.282 1.254-6.576 2.479a4.772 4.772 0 0 1-1.719.329zm-71.776-6.267c.062-.219.053-.51.195-.644a11.558 11.558 0 0 0 2.756-4.523c2.695.994 5.292 2.214 7.872 3.465a3.136 3.136 0 0 1 .039 5.643 3.418 3.418 0 0 1-3.056-.06c-1.664-.726-3.321-1.466-4.98-2.203-.482-.214-.965-.426-1.438-.658a2.829 2.829 0 0 1-1.388-1.02zM276.367 47.18a13.801 13.801 0 0 0-2.823 5.294 65.242 65.242 0 0 1-7.948-3.267 2.999 2.999 0 0 1-1.643-3.821 3.152 3.152 0 0 1 3.796-2.05 2.557 2.557 0 0 1 .508.135c2.431 1.017 4.864 2.03 7.285 3.072a4.218 4.218 0 0 1 .825.637zm-30.256-2.596a8.564 8.564 0 0 1 .357-2.528 17.675 17.675 0 0 0-.385-3.903c1.557.216 3.117.424 4.671.658a10.588 10.588 0 0 1 1.876.386 3.186 3.186 0 0 1 2.17 3.4 3.1 3.1 0 0 1-3.153 2.705c-1.392-.04-2.776-.3-4.16-.476-.461-.06-.918-.16-1.376-.241zm42.585 17.284a1.368 1.368 0 0 1 .44-1.248 9.616 9.616 0 0 0 2.57-3.818c.032-.09.178-.137.27-.203a28.467 28.467 0 0 1 4.331 3.246 3.106 3.106 0 0 1 .479 4.4 3.06 3.06 0 0 1-4.237.624 22.693 22.693 0 0 1-3.853-3zm-63.338 171.588a28.105 28.105 0 0 0-.349 6.287 34.307 34.307 0 0 1-5.327-.834 3.182 3.182 0 0 1-2.644-3.546 3.223 3.223 0 0 1 3.682-2.692c1.555.182 3.093.518 4.638.785zm21.153 7.01c-.203-.785.334-1.461.314-2.23a13.385 13.385 0 0 0-.386-4.152c1.217-.116 2.431-.24 3.648-.344a12.953 12.953 0 0 1 1.743-.076 3.171 3.171 0 0 1 3.084 2.782 3.07 3.07 0 0 1-2.553 3.43 16.648 16.648 0 0 1-4.158.4c-.25-.359-.475-.313-.678.045-.338.05-.676.097-1.014.144zm-63.335-25.207a1.855 1.855 0 0 1-.628 1.211 9.258 9.258 0 0 0-2.264 4.262c-1.367-1.086-2.764-2.135-4.093-3.264-1.559-1.323-1.83-3.029-.804-4.491a2.939 2.939 0 0 1 3.372-1.209 10.116 10.116 0 0 1 4.417 3.491zm41.476-177.15c.13 1.535-.296 3.06-.033 4.612a9.048 9.048 0 0 0 .42 1.834c-1.107.097-2.213.199-3.32.287a13.877 13.877 0 0 1-1.927.1 3.124 3.124 0 0 1-1.029-6.006 4.23 4.23 0 0 1 1.174-.346c1.569-.183 3.143-.325 4.715-.482z"/><path d="M247.524 240.32c.203-.356.427-.403.678-.045a.493.493 0 0 1-.678.046z" class="cls-2"/><path fill="#b8e686" fill-rule="evenodd" d="M293.89 217.013c3.411-.312 6.485 3.029 6.425 6.22a6.36 6.36 0 1 1-6.426-6.22z"/><path fill="#ef8a97" fill-rule="evenodd" d="M177.378 61.332c-3.765.297-6.329-3.258-6.33-6.286a6.363 6.363 0 0 1 6.338-6.385 6.488 6.488 0 0 1 6.399 6.397c-.135 3.681-3.067 6.554-6.407 6.274z"/></svg>