<svg width="40" height="40" viewBox="0 0 40 40" fill="none" xmlns="http://www.w3.org/2000/svg">
<g clip-path="url(#clip0_23294_2916)">
<path d="M40 0H0V40H40V0Z" fill="#E7157B" fill-opacity="0.12"/>
<path fill-rule="evenodd" clip-rule="evenodd" d="M19 28H21V27H19V28ZM14 7.26213L7 10.3021V30.357L14 32.796V7.26213ZM15 13.0001V27H17V28H15V33.5C15 33.662 14.922 33.814 14.79 33.908C14.704 33.968 14.603 34 14.5 34C14.444 34 14.389 33.991 14.336 33.972L6.336 31.185C6.135 31.115 6 30.926 6 30.713V9.97411C6 9.77512 6.118 9.59512 6.301 9.51612L14.301 6.04213C14.455 5.97513 14.634 5.99013 14.774 6.08213C14.915 6.17413 15 6.33213 15 6.50013V12.0001H17V13.0001H15ZM33 10.3021L26 7.26213V12.0001V13.0001V27V28V32.796L33 30.357V10.3021ZM34 9.97411V30.713C34 30.926 33.865 31.115 33.664 31.185L25.664 33.972C25.611 33.991 25.556 34 25.5 34C25.397 34 25.296 33.968 25.21 33.908C25.078 33.814 25 33.662 25 33.5V28H23V27H25V13.0001H23V12.0001H25V6.50013C25 6.33213 25.085 6.17413 25.226 6.08213C25.367 5.98913 25.546 5.97413 25.699 6.04213L33.699 9.51612C33.882 9.59512 34 9.77512 34 9.97411ZM19 13.0001H21V12.0001H19V13.0001ZM23.975 15.6581L23.025 15.3421L20.025 24.342L20.975 24.658L23.975 15.6581ZM19.146 22.8541L16.146 19.8541C15.951 19.6581 15.951 19.3421 16.146 19.1461L19.146 16.1461L19.854 16.8541L17.207 19.5001L19.854 22.1461L19.146 22.8541Z" fill="#E7157B"/>
</g>
<rect x="0.5" y="0.5" width="39" height="39" stroke="#E7157B"/>
<defs>
<clipPath id="clip0_23294_2916">
<rect width="40" height="40" fill="white"/>
</clipPath>
</defs>
</svg>
