<svg width="151" height="150" viewBox="0 0 151 150" fill="none" xmlns="http://www.w3.org/2000/svg">
<path fill-rule="evenodd" clip-rule="evenodd" d="M116.244 82.4949C121.354 82.4949 125.752 82.4859 129.326 82.8496C133.024 83.2254 136.664 84.0623 139.993 86.2867C142.45 87.9283 144.559 90.0372 146.2 92.494C148.425 95.8231 149.262 99.4626 149.637 103.161C149.993 106.65 149.992 110.923 149.992 115.878C149.992 120.355 150.091 124.865 149.637 129.324C149.262 133.023 148.425 136.663 146.2 139.992C144.559 142.449 142.45 144.557 139.993 146.199C136.664 148.423 133.024 149.26 129.326 149.636C125.837 149.992 121.563 149.991 116.609 149.991C112.132 149.991 107.622 150.09 103.163 149.636C99.4638 149.26 95.8243 148.423 92.4953 146.199C90.0384 144.557 87.9295 142.449 86.2879 139.992C84.0635 136.663 83.2266 133.023 82.8508 129.324C82.4871 125.751 82.4961 121.353 82.4961 116.243C82.4961 111.133 82.4871 106.735 82.8508 103.161C83.2266 99.4626 84.0635 95.8231 86.2879 92.494C87.9295 90.0372 90.0384 87.9283 92.4953 86.2867C95.8243 84.0623 99.4638 83.2254 103.163 82.8496C106.736 82.4859 111.134 82.4949 116.244 82.4949Z" fill="#00B39F"/>
<path fill-rule="evenodd" clip-rule="evenodd" d="M33.748 82.4949C38.8582 82.4949 43.2556 82.4859 46.8293 82.8496C50.5284 83.2254 54.1677 84.0623 57.4968 86.2867C59.9535 87.9283 62.0625 90.0372 63.7042 92.494C65.9285 95.8231 66.7655 99.4626 67.1412 103.161C67.4967 106.65 67.4959 110.923 67.4959 115.878C67.4959 120.355 67.5949 124.865 67.1412 129.324C66.7655 133.023 65.9285 136.663 63.7042 139.992C62.0625 142.449 59.9535 144.557 57.4968 146.199C54.1677 148.423 50.5284 149.26 46.8293 149.636C43.3408 149.992 39.0675 149.991 34.1122 149.991C29.636 149.991 25.126 150.09 20.6667 149.636C16.9676 149.26 13.3283 148.423 9.99909 146.199C7.54246 144.557 5.43322 142.449 3.79171 139.992C1.56728 136.663 0.730852 133.023 0.354524 129.324C-0.0090535 125.751 2.05094e-05 121.353 2.05094e-05 116.243C2.05094e-05 111.133 -0.0090535 106.735 0.354524 103.161C0.730852 99.4626 1.56728 95.8231 3.79171 92.494C5.43322 90.0372 7.54246 87.9283 9.99909 86.2867C13.3283 84.0623 16.9676 83.2254 20.6667 82.8496C24.2404 82.4859 28.6376 82.4949 33.748 82.4949Z" fill="#00B39F"/>
<path fill-rule="evenodd" clip-rule="evenodd" d="M33.748 2.05095e-05C38.8582 2.05095e-05 43.2556 -0.00905351 46.8293 0.354525C50.5284 0.730852 54.1677 1.56728 57.4968 3.79172C59.9535 5.43322 62.0625 7.54247 63.7042 9.9991C65.9285 13.3283 66.7655 16.9676 67.1412 20.6667C67.4967 24.1553 67.4959 28.4285 67.4959 33.3838C67.4959 37.8599 67.5949 42.3699 67.1412 46.8293C66.7655 50.5284 65.9285 54.1677 63.7042 57.4969C62.0625 59.9535 59.9535 62.0626 57.4968 63.7042C54.1677 65.9286 50.5284 66.7655 46.8293 67.1413C43.3408 67.4967 39.0675 67.496 34.1122 67.496C29.636 67.496 25.126 67.595 20.6667 67.1413C16.9676 66.7655 13.3283 65.9286 9.99909 63.7042C7.54246 62.0626 5.43322 59.9535 3.79171 57.4969C1.56728 54.1677 0.730852 50.5284 0.354524 46.8293C-0.0090535 43.2556 2.05094e-05 38.8583 2.05094e-05 33.748C2.05094e-05 28.6377 -0.0090535 24.2404 0.354524 20.6667C0.730852 16.9676 1.56728 13.3283 3.79171 9.9991C5.43322 7.54247 7.54246 5.43322 9.99909 3.79172C13.3283 1.56728 16.9676 0.730852 20.6667 0.354525C24.2404 -0.00905351 28.6376 2.05095e-05 33.748 2.05095e-05Z" fill="#00B39F"/>
<path fill-rule="evenodd" clip-rule="evenodd" d="M123.744 7.49955C123.744 3.3577 120.386 0 116.244 0C112.102 0 108.744 3.3577 108.744 7.49955V26.2484H89.9956C85.8536 26.2484 82.4961 29.6061 82.4961 33.748C82.4961 37.8898 85.8536 41.2475 89.9956 41.2475H108.744V59.9964C108.744 64.1384 112.102 67.496 116.244 67.496C120.386 67.496 123.744 64.1384 123.744 59.9964V41.2475H142.492C146.634 41.2475 149.992 37.8898 149.992 33.748C149.992 29.6061 146.634 26.2484 142.492 26.2484H123.744V7.49955Z" fill="#00B39F"/>
</svg>
