<svg width="150" height="150" viewBox="0 0 150 150" fill="none" xmlns="http://www.w3.org/2000/svg">
<path d="M32.607 38.9193V56.6281H21.2489C20.3496 56.6298 19.4875 56.9849 18.8516 57.6156C18.2157 58.2463 17.8576 59.1013 17.8559 59.9932V128.919C17.8576 129.811 18.2157 130.666 18.8516 131.296C19.4875 131.927 20.3496 132.282 21.2489 132.284H89.738C90.6373 132.282 91.4994 131.927 92.1353 131.296C92.7712 130.666 93.1293 129.811 93.131 128.919V59.9997C93.1293 59.1078 92.7712 58.2528 92.1353 57.6221C91.4994 56.9914 90.6373 56.6363 89.738 56.6346H63.7795V38.9193H96.452C100.307 38.9193 104.004 40.438 106.73 43.1414C109.456 45.8448 110.987 49.5113 110.987 53.3345V135.584C110.987 139.407 109.456 143.074 106.73 145.777C104.004 148.481 100.307 149.999 96.452 149.999H14.5349C10.68 149.999 6.98301 148.481 4.25718 145.777C1.53135 143.074 0 139.407 0 135.584V53.3345C0 49.5113 1.53135 45.8448 4.25718 43.1414C6.98301 40.438 10.68 38.9193 14.5349 38.9193H32.607ZM135.452 5.85569e-06C137.362 -0.00170134 139.253 0.3699 141.018 1.09357C142.783 1.81724 144.387 2.87879 145.738 4.21754C147.089 5.55629 148.161 7.14599 148.892 8.89578C149.624 10.6456 150 12.5211 150 14.4153V96.6647C150.001 98.5594 149.625 100.436 148.894 102.186C148.163 103.937 147.092 105.527 145.741 106.867C144.389 108.206 142.785 109.268 141.02 109.992C139.254 110.716 137.362 111.088 135.452 111.087H117.38V93.3646H128.738C129.637 93.3629 130.499 93.0078 131.135 92.3771C131.771 91.7464 132.129 90.8915 132.131 89.9996V21.074C132.129 20.182 131.771 19.3271 131.135 18.6964C130.499 18.0657 129.637 17.7106 128.738 17.7089H60.262C59.3627 17.7106 58.5006 18.0657 57.8647 18.6964C57.2288 19.3271 56.8707 20.182 56.869 21.074V89.9996C56.8707 90.8915 57.2288 91.7464 57.8647 92.3771C58.5006 93.0078 59.3627 93.3629 60.262 93.3646H86.2205V111.087H53.5349C49.68 111.087 45.983 109.568 43.2572 106.864C40.5313 104.161 39 100.494 39 96.6712V14.4153C39 10.5921 40.5313 6.92552 43.2572 4.22214C45.983 1.51875 49.68 5.85569e-06 53.5349 5.85569e-06H135.452Z" fill="#00B39F"/>
<path d="M32.607 38.946V56.6549H21.2489C20.3496 56.6566 19.4875 57.0117 18.8516 57.6424C18.2157 58.2731 17.8576 59.128 17.8559 60.0199V128.92C17.8576 129.812 18.2157 130.666 18.8516 131.297C19.4875 131.928 20.3496 132.283 21.2489 132.285H89.738C90.6373 132.283 91.4994 131.928 92.1353 131.297C92.7712 130.666 93.1293 129.812 93.131 128.92V60.0005C93.1293 59.1085 92.7712 58.2536 92.1353 57.6229C91.4994 56.9922 90.6373 56.6371 89.738 56.6354H63.7795V38.946H96.452C100.307 38.946 104.004 40.4647 106.73 43.1681C109.456 45.8715 110.987 49.5381 110.987 53.3613V135.585C110.987 139.408 109.456 143.074 106.73 145.778C104.004 148.481 100.307 150 96.452 150H14.5349C10.68 150 6.98301 148.481 4.25718 145.778C1.53135 143.074 0 139.408 0 135.585V53.3353C0.00694073 49.5166 1.54136 45.8567 4.26643 43.1589C6.99151 40.4612 10.6846 38.946 14.5349 38.946H32.607Z" fill="#00B39F"/>
</svg>
