<svg width="150" height="150" viewBox="0 0 150 150" fill="none" xmlns="http://www.w3.org/2000/svg">
<path d="M87.304 20.8116C95.7119 20.8116 102.955 26.255 104.621 33.8256C106.286 41.3962 101.913 48.9963 94.1648 51.9958V107.3H107.2V93.5924C99.4524 90.5929 95.0791 82.9929 96.7447 75.4222C98.4103 67.8516 105.653 62.4082 114.061 62.4082C122.469 62.4082 129.712 67.8516 131.378 75.4222C133.043 82.9929 128.67 90.5929 120.922 93.5924V119.905H94.1648V150H80.4432V100.053H50.7701V80.1996C43.0221 77.2001 38.6488 69.6 40.3144 62.0294C41.9801 54.4588 49.223 49.0154 57.6309 49.0154C66.0388 49.0154 73.2818 54.4588 74.9474 62.0294C76.613 69.6 72.2397 77.2001 64.4918 80.1996V87.4475H80.4432V51.9958C72.6952 48.9963 68.3219 41.3962 69.9875 33.8256C71.6531 26.255 78.8961 20.8116 87.304 20.8116ZM86.1034 0C112.861 0 138.246 15.7563 146.65 37.6576C152.31 49.1597 149.566 69.3277 147.336 87.1323C146.65 92.8046 145.964 98.1618 145.621 102.574C145.214 108.455 145.328 114.357 145.964 120.221L146.65 126.523L132.928 127.784L132.242 121.481C131.547 114.935 131.432 108.349 131.899 101.786C132.242 97.0588 133.1 91.5441 133.786 85.7143C135.673 71.0609 138.246 50.8929 134.129 42.6996L133.786 42.0693C127.268 25.0525 107.372 12.7626 86.1034 12.7626C59.3461 12.7626 35.8478 33.0882 35.8478 56.4076V57.6681L19.8964 92.3319L34.8187 93.5924L40.9934 121.324L74.9545 119.59L75.6406 132.195L30.0161 134.559L23.4983 105.252L0 103.204L22.1262 54.9895C22.9838 25.0525 51.9708 0 86.1034 0ZM114.061 75.1576C111.882 75.1576 110.116 76.7801 110.116 78.7815C110.116 80.783 111.882 82.4055 114.061 82.4055C116.24 82.4055 118.006 80.783 118.006 78.7815C118.006 76.7801 116.24 75.1576 114.061 75.1576ZM57.6309 61.7647C55.4522 61.7647 53.686 63.3872 53.686 65.3886C53.686 67.3901 55.4522 69.0126 57.6309 69.0126C59.8097 69.0126 61.5759 67.3901 61.5759 65.3886C61.5759 63.3872 59.8097 61.7647 57.6309 61.7647ZM87.304 33.5609C85.2572 33.641 83.6177 35.1471 83.5305 37.0273C83.4613 38.5198 84.3962 39.8985 85.885 40.4994C87.3738 41.1003 89.1116 40.8004 90.2615 39.7441C91.4114 38.6878 91.7378 37.0915 91.0836 35.7238C90.4295 34.3561 88.9288 33.4973 87.304 33.5609Z" fill="#4F4F4F"/>
</svg>
