<svg width="150" height="150" viewBox="0 0 150 150" fill="none" xmlns="http://www.w3.org/2000/svg">
<path fill-rule="evenodd" clip-rule="evenodd" d="M75 0C95.71 0 114.463 8.39649 128.033 21.9668C141.604 35.54 150 54.29 150 75C150 95.71 141.604 114.463 128.033 128.033C114.463 141.604 95.71 150 75 150C54.29 150 35.54 141.604 21.9668 128.033C8.39649 114.463 0 95.71 0 75C0 54.29 8.39649 35.54 21.9668 21.9668C35.54 8.39649 54.29 0 75 0ZM68.5811 88.6787V88.0723C68.6279 84.0527 69.0234 80.8682 69.7969 78.501C70.5557 76.1338 71.6484 74.209 73.0723 72.75C74.499 71.2793 76.2129 69.9434 78.2168 68.7305C79.5059 67.9102 80.6748 67.002 81.7061 65.9854C82.7373 64.9834 83.5576 63.8145 84.1611 62.4961C84.7676 61.1895 85.0723 59.7363 85.0723 58.1279C85.0723 56.2148 84.6182 54.5596 83.707 53.1504C82.8135 51.7529 81.6006 50.6777 80.1123 49.9043C78.6094 49.1455 76.9424 48.7646 75.1055 48.7646C73.4502 48.7646 71.874 49.1016 70.3564 49.7988C68.8564 50.4814 67.5967 51.5566 66.6094 53.0127C65.625 54.4717 65.0479 56.3379 64.8955 58.6113H55.0635C55.2188 54.7412 56.2031 51.4658 58.0078 48.7822C59.8271 46.0986 62.2266 44.0625 65.2002 42.6826C68.1885 41.3027 71.4961 40.6201 75.1055 40.6201C79.0811 40.6201 82.541 41.3467 85.5117 42.835C88.4854 44.3057 90.8086 46.3682 92.4609 49.0107C94.0986 51.6475 94.9336 54.7148 94.9336 58.2334C94.9336 60.6445 94.5557 62.8154 93.7969 64.7402C93.0381 66.668 91.9746 68.3965 90.5801 69.8994C89.1826 71.417 87.5303 72.75 85.5908 73.9043C83.7539 75.0586 82.2656 76.2393 81.1436 77.4697C80.0068 78.6973 79.1865 80.1562 78.6709 81.8232C78.1553 83.5049 77.8652 85.585 77.8213 88.0723V88.6787H68.5811ZM73.4678 109.383C71.6924 109.383 70.1748 108.744 68.9004 107.484C67.6289 106.228 67.0049 104.692 67.0049 102.905C67.0049 101.145 67.626 99.627 68.9004 98.3672C70.1748 97.1074 71.6924 96.4717 73.4678 96.4717C75.2109 96.4717 76.7256 97.1133 78.0029 98.3672C79.2891 99.6299 79.9307 101.145 79.9307 102.905C79.9307 104.089 79.623 105.179 79.0342 106.151C78.4424 107.133 77.6689 107.93 76.6992 108.504C75.7295 109.078 74.6514 109.383 73.4678 109.383Z" fill="#359AC0"/>
</svg>
