<svg width="152" height="152" viewBox="0 0 152 152" fill="none" xmlns="http://www.w3.org/2000/svg">
<path fill-rule="evenodd" clip-rule="evenodd" d="M122.465 97.7329C138.223 97.7329 151 109.658 151 124.366C151 139.075 138.223 151 122.465 151C106.706 151 93.9294 139.075 93.9294 124.366C93.9294 109.658 106.706 97.7329 122.465 97.7329ZM11.2398 1H135.843C138.681 1 141.218 2.08634 143.075 3.80739C144.932 5.54065 146.083 7.94524 146.083 10.5573V96.0118C142.866 93.6804 139.23 91.8129 135.294 90.5435V12.8765C135.294 12.3516 135.085 11.9122 134.692 11.5948C134.352 11.2775 133.829 11.0334 133.319 11.0334H13.6722C13.1099 11.0334 12.6391 11.2287 12.299 11.5948C11.959 11.9122 11.6975 12.3882 11.6975 12.8765V98.3432H11.7367L53.5458 60.9805C55.2197 59.5402 57.8483 59.6988 59.3522 61.2612C59.3915 61.2978 59.3915 61.3467 59.4438 61.3467L94.5963 100.162C88.4106 106.485 84.6312 114.907 84.6312 124.147C84.6312 128.163 85.3505 132.02 86.6582 135.62H11.2398C8.40192 135.62 5.86486 134.534 4.00785 132.813C2.15083 131.092 1 128.675 1 126.063V10.5573C1 7.90862 2.16391 5.54065 4.00785 3.80739C5.85179 2.07413 8.44115 1 11.2398 1ZM97.4211 97.5498L102.273 69.7322C102.665 67.645 104.771 66.1925 107.007 66.5586C107.87 66.6807 108.642 67.0835 109.243 67.6084L131.606 89.5426C128.755 88.9079 125.799 88.5783 122.739 88.5783C113.023 88.5661 104.156 91.9594 97.4211 97.5498ZM107.883 22.8976C111.976 22.8976 115.717 24.46 118.384 26.95C121.092 29.4767 122.726 32.931 122.726 36.7515C122.726 40.572 121.052 44.0629 118.384 46.5529C115.677 49.0796 111.976 50.6053 107.883 50.6053C103.79 50.6053 100.05 49.043 97.3819 46.5529C94.6748 44.0263 93.0401 40.572 93.0401 36.7515C93.0401 32.931 94.714 29.4401 97.3819 26.95C100.089 24.4234 103.803 22.8976 107.883 22.8976ZM112.905 108.169L139.008 134.534C141.074 131.617 142.277 128.126 142.277 124.366C142.277 114.162 133.411 105.886 122.478 105.886C118.999 105.874 115.743 106.704 112.905 108.169ZM132.024 140.552L105.922 114.187C103.855 117.104 102.652 120.595 102.652 124.354C102.652 134.558 111.519 142.834 122.452 142.834C125.93 142.846 129.187 142.016 132.024 140.552Z" fill="#466BB0" stroke="#466BB0" stroke-width="0.5" stroke-miterlimit="2.6131"/>
</svg>
