<svg width="152" height="152" viewBox="0 0 152 152" fill="none" xmlns="http://www.w3.org/2000/svg">
<path fill-rule="evenodd" clip-rule="evenodd" d="M70.5406 1.1969C74.15 0.934365 77.8531 0.934365 81.4625 1.1969L83.5437 1.35005L87.9594 14.6989C90.7937 15.249 93.5906 15.9959 96.3125 16.9304L106.825 7.55721L108.706 8.46984C111.95 10.0419 115.125 11.8766 118.134 13.9238L119.862 15.0989L117.006 28.8228C119.191 30.7293 121.253 32.789 123.156 34.9768L136.878 32.1202L138.053 33.8485C140.091 36.8459 141.928 40.0213 143.509 43.2812L144.422 45.1658L135.053 55.6736C135.984 58.3896 136.734 61.19 137.284 64.0279L150.631 68.4411L150.781 70.5258C150.912 72.3354 151 74.1482 151 75.9891C151 77.83 150.912 79.6427 150.778 81.4524L150.628 83.537L137.281 87.9502C136.731 90.7881 135.981 93.5885 135.05 96.3045L144.422 106.809L143.509 108.694C141.928 111.954 140.091 115.126 138.05 118.126L136.875 119.855L123.156 117.001C121.253 119.186 119.194 121.249 117.006 123.152L119.862 136.873L118.134 138.051C115.144 140.086 111.969 141.921 108.706 143.508L106.822 144.424L96.3125 135.051C93.5969 135.985 90.8 136.732 87.9594 137.282L83.5469 150.631L81.4625 150.781C79.6562 150.912 77.8375 151 76 151C74.1625 151 72.3438 150.912 70.5375 150.784L68.4531 150.634L64.0375 137.286C61.2031 136.735 58.4062 135.988 55.6844 135.054L45.175 144.421L43.2937 143.508C40.05 141.936 36.875 140.102 33.8656 138.054L32.1375 136.879L34.9937 123.155C32.8094 121.249 30.7469 119.189 28.8438 117.001L15.1219 119.858L13.9469 118.13C11.9094 115.132 10.0719 111.957 8.49062 108.697L7.57812 106.812L16.9469 96.3045C16.0156 93.5885 15.2656 90.7881 14.7156 87.9502L1.36875 83.537L1.21875 81.4524C1.0875 79.6427 1 77.83 1 75.9891C1 74.1482 1.0875 72.3354 1.21875 70.5258L1.37187 68.4411L14.7187 64.0279C15.2687 61.1869 16.0156 58.3896 16.9469 55.6736L7.57812 45.1721L8.49062 43.2874C10.0719 40.0276 11.9094 36.8552 13.95 33.8548L15.125 32.1264L28.8438 34.98C30.7469 32.7953 32.8062 30.7325 34.9937 28.8291L32.1375 15.1083L33.8656 13.93C36.8563 11.8953 40.0312 10.0607 43.2937 8.47297L45.1781 7.55721L55.6875 16.9304C58.4094 15.9959 61.2062 15.249 64.0406 14.6989L68.4562 1.34693L70.5406 1.1969ZM78.9313 7.30092C76.9875 7.20403 75.0094 7.20403 73.0656 7.30092L68.7937 20.2247L66.9219 20.531C63.2281 21.1311 59.5875 22.1031 56.1031 23.422L54.3312 24.0909L44.1687 15.0302C42.4437 15.9366 40.7562 16.9148 39.1187 17.9556L41.8813 31.2325L40.4156 32.4327C37.5094 34.8143 34.8281 37.4928 32.45 40.3995L31.25 41.8653L17.9781 39.1024C16.9312 40.7433 15.9562 42.431 15.0531 44.1563L24.1125 54.3203L23.4406 56.0924C22.125 59.5585 21.1531 63.1997 20.5531 66.9127L20.2469 68.7849L7.325 73.0574C7.27812 74.0263 7.25 75.0045 7.25 75.9891C7.25 76.9736 7.27812 77.9519 7.325 78.9207L20.2469 83.1932L20.5531 85.0654C21.1531 88.7753 22.125 92.4165 23.4406 95.8857L24.1125 97.6578L15.0531 107.822C15.9562 109.547 16.9344 111.235 17.9781 112.876L31.2531 110.11L32.4531 111.579C34.8312 114.488 37.5125 117.167 40.4156 119.545L41.8813 120.746L39.1187 134.019C40.7625 135.066 42.4531 136.048 44.1687 136.945L54.3344 127.887L56.1063 128.556C59.5906 129.875 63.2281 130.85 66.925 131.447L68.7969 131.753L73.0719 144.677C75.0156 144.774 76.9937 144.774 78.9375 144.677L83.2094 131.753L85.0813 131.447C88.7875 130.844 92.425 129.875 95.8969 128.559L97.6687 127.884L107.831 136.948C109.556 136.042 111.244 135.063 112.881 134.023L110.119 120.746L111.584 119.545C114.491 117.164 117.172 114.485 119.55 111.579L120.75 110.113L134.022 112.876C135.069 111.235 136.044 109.547 136.947 107.822L127.887 97.6578L128.559 95.8857C129.875 92.4165 130.847 88.7753 131.447 85.0654L131.753 83.1932L144.675 78.9207C144.722 77.9519 144.75 76.9736 144.75 75.9891C144.75 75.0045 144.722 74.0263 144.678 73.0574L131.756 68.7849L131.45 66.9127C130.85 63.2028 129.878 59.5617 128.562 56.0924L127.891 54.3203L136.95 44.1563C136.047 42.431 135.069 40.7433 134.025 39.1024L120.75 41.8685L119.55 40.3995C117.172 37.4897 114.491 34.8112 111.588 32.4327L110.122 31.2325L112.884 17.9587C111.241 16.9117 109.55 15.9303 107.834 15.0333L97.6687 24.0909L95.8969 23.422C92.4125 22.1031 88.775 21.1279 85.0781 20.531L83.2062 20.2247L78.9313 7.30092ZM76 44.7345C103.144 44.7345 124.484 72.9199 125.381 74.12L126.775 75.9891L125.378 77.8581C124.484 79.0583 103.144 107.244 76 107.244C48.8562 107.244 27.5156 79.0583 26.6187 77.8581L25.225 75.9891L26.6219 74.12C27.5156 72.9199 48.8562 44.7345 76 44.7345ZM76 50.9854C55.7812 50.9854 38.2656 69.8913 33.1406 75.9891C38.2625 82.0868 55.7781 100.993 76 100.993C96.2219 100.993 113.737 82.0868 118.859 75.9891C113.737 69.8913 96.2187 50.9854 76 50.9854ZM76 57.2363C86.3406 57.2363 94.75 65.6469 94.75 75.9891C94.75 86.3312 86.3406 94.7418 76 94.7418C65.6594 94.7418 57.25 86.3312 57.25 75.9891C57.25 65.6469 65.6594 57.2363 76 57.2363ZM76 63.4872C69.1062 63.4872 63.5 69.0943 63.5 75.9891C63.5 82.8838 69.1062 88.4909 76 88.4909C82.8937 88.4909 88.5 82.8838 88.5 75.9891C88.5 69.0943 82.8937 63.4872 76 63.4872Z" fill="#EFA75C" stroke="#EF9337"/>
</svg>
