<svg width="150" height="150" viewBox="0 0 150 150" fill="none" xmlns="http://www.w3.org/2000/svg">
<path d="M85.8957 23.595C84.9556 23.595 84.1281 22.8934 83.9731 21.9054L81.1229 4.03181H64.2846L63.2771 11.0327C63.1196 12.1341 62.112 12.9028 61.0595 12.73C59.9919 12.5675 59.2544 11.546 59.4144 10.442L60.667 1.72055C60.807 0.732588 61.627 0 62.5945 0H82.7805C83.738 0 84.5556 0.717111 84.7081 1.6896L87.8258 21.2528C88.0008 22.3517 87.2807 23.3861 86.2157 23.5692C86.1082 23.5873 86.0007 23.595 85.8957 23.595Z" fill="#359AC0"/>
<path d="M82.7814 150H62.5955C61.6404 150 60.8279 149.291 60.6679 148.323L57.6528 130.001C53.42 128.773 49.3524 127.032 45.5322 124.811L30.9415 135.609C30.1664 136.179 29.0989 136.094 28.4239 135.397L14.1532 120.673C13.4781 119.977 13.3906 118.873 13.9482 118.07L24.4162 103.029C22.2561 99.0799 20.561 94.8856 19.3759 90.5184L1.62508 87.3998C0.685033 87.2347 0 86.3963 0 85.411V64.5838C0 63.5984 0.687533 62.7601 1.62508 62.595L19.3759 59.484C20.6735 54.7222 22.5636 50.1719 24.9937 45.926C25.5462 44.9664 26.7463 44.662 27.6738 45.2166C28.6014 45.7841 28.9114 47.0197 28.3614 47.9819C25.8987 52.2691 24.0361 56.9045 22.8311 61.7566C22.6411 62.5279 22.026 63.1109 21.266 63.245L3.91019 66.2837V83.7085L21.266 86.7575C22.026 86.8916 22.6411 87.4746 22.8311 88.2459C24.0436 93.1238 25.9212 97.7876 28.4214 102.111C28.8189 102.8 28.7839 103.666 28.3288 104.319L18.0884 119.03L30.0139 131.334L44.2796 120.774C44.9021 120.302 45.7447 120.271 46.4172 120.678C50.6049 123.245 55.1251 125.182 59.8554 126.436C60.6029 126.632 61.1679 127.267 61.2979 128.051L64.2431 145.968H81.1314L84.089 128.056C84.2715 126.957 85.3141 126.222 86.3441 126.405C87.4092 126.593 88.1217 127.633 87.9442 128.732L84.709 148.323C84.549 149.291 83.7365 150 82.7814 150Z" fill="#359AC0"/>
<path d="M20.3389 39.6996C19.7313 39.6996 19.1288 39.4081 18.7463 38.8561L13.9461 31.9248C13.3935 31.1226 13.481 30.0237 14.1561 29.3272L28.4268 14.6084C29.1018 13.9119 30.1643 13.8217 30.9369 14.3892L45.6251 25.1355C49.8153 22.7107 54.308 20.8586 58.9982 19.6308C60.0483 19.3444 61.1058 20.01 61.3708 21.0882C61.6358 22.1665 61.0033 23.2653 59.9583 23.5362C55.218 24.7795 50.6928 26.7064 46.5101 29.2628C45.8426 29.66 45.01 29.6239 44.385 29.1725L30.0193 18.666L18.0888 30.9704L21.9289 36.5112C22.554 37.4167 22.3515 38.6781 21.4739 39.3255C21.1314 39.5783 20.7314 39.6996 20.3389 39.6996Z" fill="#359AC0"/>
<path d="M128.891 77.0174H73.5156C72.4356 77.0174 71.5605 76.1146 71.5605 75.0002C71.5605 73.8859 72.4356 72.983 73.5156 72.983H128.891C129.971 72.983 130.846 73.8859 130.846 75.0002C130.846 76.1146 129.971 77.0174 128.891 77.0174Z" fill="#396679"/>
<path d="M138.402 86.3911C132.43 86.3911 127.922 81.4977 127.922 75.0025C127.922 68.7187 132.875 63.6061 138.962 63.6061C145.05 63.6061 150 68.7161 150 75.0025C150 81.1779 144.688 86.3911 138.402 86.3911ZM138.962 67.6405C135.027 67.6405 131.83 70.9449 131.83 75.005C131.83 79.2664 134.592 82.3593 138.402 82.3593C142.498 82.3593 146.093 78.9208 146.093 75.005C146.093 70.9449 142.895 67.6405 138.962 67.6405Z" fill="#00B39F"/>
<path d="M101.17 123.33C100.75 123.33 100.327 123.193 99.9722 122.905L88.3891 113.629H72.6934C52.0349 113.629 35.2266 96.2915 35.2266 74.9768C35.2266 67.9372 37.0817 61.0447 40.5893 55.0473C41.1493 54.0903 42.3594 53.7962 43.2694 54.3611C44.197 54.9363 44.4895 56.1719 43.9345 57.1264C40.7968 62.497 39.1367 68.6724 39.1367 74.9768C39.1367 94.0653 54.1925 109.597 72.6934 109.597H89.0591C89.4942 109.597 89.9142 109.746 90.2567 110.022L102.37 119.724C103.22 120.405 103.377 121.674 102.712 122.551C102.33 123.062 101.75 123.33 101.17 123.33Z" fill="#396679"/>
<path d="M50.4151 48.457C49.8476 48.457 49.2825 48.2017 48.8925 47.7038C48.2175 46.8371 48.3475 45.5705 49.19 44.8689C55.8154 39.3564 64.1608 36.3203 72.6912 36.3203H88.3869L99.9725 27.0856C100.82 26.4046 102.045 26.5568 102.713 27.4467C103.373 28.3289 103.215 29.5929 102.363 30.2739L90.2495 39.9291C89.907 40.1999 89.487 40.3496 89.0544 40.3496H72.6887C64.9383 40.3496 57.6604 42.9962 51.6377 48.0082C51.2801 48.31 50.8451 48.457 50.4151 48.457Z" fill="#396679"/>
<path d="M107.173 33.1704C101.086 33.1704 96.1328 28.0604 96.1328 21.774C96.1328 15.4929 101.083 10.3854 107.171 10.3854C110.121 10.3854 112.896 11.5694 114.979 13.7207C117.066 15.8746 118.214 18.7379 118.211 21.7818C118.216 24.8205 117.066 27.6812 114.979 29.8351C112.894 31.9864 110.118 33.1704 107.173 33.1704ZM107.168 14.4198C103.238 14.4198 100.04 17.719 100.04 21.774C100.04 25.8342 103.238 29.1386 107.173 29.1386C109.078 29.1386 110.869 28.3751 112.214 26.9847C113.561 25.5943 114.301 23.7474 114.301 21.7843C114.301 19.8162 113.561 17.9641 112.214 16.5737C110.866 15.1833 109.078 14.4198 107.168 14.4198Z" fill="#00B39F"/>
<path d="M107.169 139.61C101.081 139.61 96.1309 134.503 96.1309 128.221C96.1309 121.938 101.084 116.825 107.171 116.825C110.117 116.825 112.892 118.009 114.977 120.163C117.064 122.317 118.212 125.175 118.209 128.216C118.214 131.26 117.064 134.123 114.977 136.272C112.894 138.423 110.119 139.61 107.169 139.61ZM107.174 120.857C103.239 120.857 100.041 124.161 100.041 128.221C100.041 132.276 103.239 135.576 107.169 135.576C109.076 135.576 110.867 134.812 112.214 133.422C113.562 132.031 114.302 130.184 114.302 128.216C114.302 126.251 113.562 124.404 112.214 123.016C110.867 121.625 109.079 120.857 107.174 120.857Z" fill="#00B39F"/>
<path d="M116.591 102.645L101.073 95.3655H72.6917C61.7912 95.3655 52.9258 86.2184 52.9258 74.9768C52.9258 63.7661 61.7912 54.6423 72.6917 54.6423H101.073L116.591 47.35L118.209 51.0207L102.306 58.4936C102.053 58.6122 101.776 58.6741 101.496 58.6741H72.6917C63.9488 58.6741 56.8335 65.9871 56.8335 74.9768C56.8335 83.9974 63.9463 91.3336 72.6917 91.3336H101.498C101.776 91.3336 102.051 91.3955 102.308 91.5142L118.211 98.9768L116.591 102.645Z" fill="#396679"/>
<path d="M126.748 56.8635C120.66 56.8635 115.707 51.7535 115.707 45.4723C115.707 39.1911 120.657 34.0811 126.745 34.0811C129.695 34.0811 132.47 35.2651 134.553 37.419C136.641 39.5677 137.788 42.431 137.786 45.4749C137.791 48.5136 136.641 51.3743 134.553 53.5282C132.468 55.6795 129.695 56.8635 126.748 56.8635ZM126.745 38.1129C122.815 38.1129 119.617 41.4121 119.617 45.4723C119.617 49.5325 122.815 52.8317 126.75 52.8317C128.655 52.8317 130.445 52.0682 131.79 50.6778C133.138 49.2874 133.878 47.4405 133.878 45.4774C133.878 43.5093 133.138 41.6623 131.79 40.2668C130.443 38.8764 128.653 38.1129 126.745 38.1129Z" fill="#00B39F"/>
<path d="M126.745 115.916C120.657 115.916 115.707 110.806 115.707 104.525C115.707 98.244 120.66 93.1339 126.748 93.1339C129.693 93.1339 132.468 94.3179 134.553 96.4693C136.641 98.6232 137.788 101.481 137.786 104.523C137.791 107.566 136.641 110.43 134.553 112.584C132.468 114.73 129.695 115.916 126.745 115.916ZM126.748 97.1657C122.812 97.1657 119.615 100.465 119.615 104.525C119.615 108.585 122.812 111.885 126.743 111.885C128.65 111.885 130.44 111.121 131.788 109.731C133.135 108.34 133.875 106.491 133.875 104.52C133.875 102.554 133.135 100.707 131.788 99.3196C130.443 97.9293 128.653 97.1657 126.748 97.1657Z" fill="#00B39F"/>
</svg>
