<svg width="150" height="155" viewBox="0 0 150 155" fill="none" xmlns="http://www.w3.org/2000/svg">
<path d="M149.85 37.5927L149.786 37.2875C149.721 37.0026 149.636 36.7381 149.507 36.4532C149.486 36.3922 149.464 36.3108 149.422 36.2498C149.272 35.9242 149.1 35.6393 148.907 35.3544L148.736 35.1306C148.565 34.9068 148.393 34.7033 148.179 34.4998C148.115 34.4388 148.051 34.3574 147.986 34.2964C147.729 34.0522 147.451 33.8284 147.151 33.6249C147.108 33.6045 147.044 33.5638 147.001 33.5435C146.808 33.4214 146.615 33.2993 146.401 33.1976L77.8492 0.640958C76.0283 -0.213653 73.9075 -0.213653 72.108 0.640958L3.55613 33.1976C3.3419 33.2993 3.1491 33.4214 2.9563 33.5435C2.91345 33.5638 2.84919 33.6045 2.80634 33.6249C2.50643 33.8284 2.22794 34.0522 1.97087 34.2964C1.9066 34.3574 1.84233 34.4184 1.77806 34.4998C1.58526 34.7033 1.39246 34.9068 1.22108 35.1306L1.0497 35.3544C0.856898 35.6393 0.685519 35.9445 0.535561 36.2498C0.514139 36.3108 0.492716 36.3922 0.449871 36.4532C0.342759 36.7178 0.257069 37.0026 0.171379 37.2875L0.107112 37.5927C0.0428445 37.959 -1.5936e-07 38.3252 0 38.6915V116.339C0 118.659 1.37104 120.755 3.55613 121.792L72.108 154.349C72.1508 154.369 72.2151 154.39 72.2794 154.41C72.5793 154.552 72.922 154.654 73.2434 154.735C73.3719 154.776 73.479 154.817 73.6075 154.837C74.0574 154.939 74.5287 155 75 155C75.4713 155 75.9426 154.939 76.3925 154.837C76.521 154.817 76.6281 154.756 76.7566 154.735C77.0994 154.654 77.4207 154.532 77.7207 154.41C77.7635 154.39 77.8278 154.369 77.892 154.349L146.444 121.792C147.511 121.286 148.409 120.508 149.037 119.545C149.665 118.582 149.998 117.472 150 116.339V38.6915C149.957 38.3252 149.914 37.959 149.85 37.5927ZM74.9786 12.9514L129.156 38.6915L109.533 48.0108L77.8063 33.2179C77.7635 33.1976 77.6992 33.1976 77.6564 33.1772C77.3779 33.0551 77.078 32.9534 76.7781 32.872C76.6495 32.8313 76.521 32.7906 76.371 32.7499C76.0459 32.688 75.7166 32.6472 75.3856 32.6278C75.2571 32.6278 75.1285 32.5871 75 32.5871H74.9572C74.036 32.5871 73.1577 32.7703 72.365 33.1162C72.3436 33.1162 72.3222 33.1365 72.3008 33.1365L39.2245 47.4411L20.8012 38.6915L74.9786 12.9514ZM74.9786 103.235L52.8063 92.7151L74.9143 80.9134L96.6581 92.939L74.9786 103.235ZM103.149 58.6324V82.4191L81.4053 70.3732V48.4992L103.149 58.6324ZM68.5518 70.3121L45.5227 82.6022V58.1441L68.5518 48.1736V70.3121ZM12.8535 77.5153V48.5602L32.6692 57.9813V93.0204C32.6692 93.1221 32.6907 93.2238 32.7121 93.3459L32.7763 93.9971L32.9049 94.5871C32.9477 94.7703 33.012 94.9534 33.0763 95.1365C33.162 95.34 33.2476 95.5435 33.3548 95.747C33.3976 95.8487 33.4404 95.9301 33.4833 96.0318C33.5047 96.0929 33.569 96.1132 33.5904 96.1743C33.8475 96.6016 34.1474 96.9882 34.5116 97.3341L34.5758 97.3951C35.0344 97.8157 35.5538 98.172 36.1182 98.4532C36.2039 98.4939 36.2682 98.5346 36.3539 98.5753C36.4182 98.5957 36.461 98.6364 36.5039 98.6771L68.5518 113.836V139.007L12.8535 112.554V77.5153ZM137.104 112.554L81.4053 139.007V113.836L112.446 99.1044C113.581 98.5656 114.523 97.7195 115.152 96.6729C115.781 95.6263 116.07 94.4261 115.981 93.2238C115.981 93.1628 116.003 93.1017 116.003 93.0407V58.5917L137.104 48.5602V112.554Z" fill="#FF8905"/>
</svg>
