<svg width="152" height="153" viewBox="0 0 152 153" fill="none" xmlns="http://www.w3.org/2000/svg">
<path d="M134.94 151C126.087 151 118.885 144.299 118.885 136.063C118.885 132.621 120.148 129.445 122.259 126.917L108.651 114.257C104.385 117.631 98.8668 119.663 92.8435 119.663C79.3485 119.663 68.3684 109.447 68.3684 96.8909C68.3684 84.3351 79.3485 74.1191 92.8435 74.1191C106.338 74.1191 117.319 84.3351 117.319 96.8909C117.319 102.495 115.129 107.634 111.509 111.599L125.116 124.259C127.833 122.295 131.246 121.12 134.945 121.12C143.798 121.12 151 127.821 151 136.057C151 144.294 143.792 151 134.94 151ZM134.94 124.886C128.316 124.886 122.927 129.9 122.927 136.063C122.927 142.226 128.316 147.24 134.94 147.24C141.564 147.24 146.953 142.226 146.953 136.063C146.953 129.9 141.564 124.886 134.94 124.886ZM92.8379 77.8796C81.5715 77.8796 72.4045 86.4086 72.4045 96.8909C72.4045 107.373 81.5715 115.902 92.8379 115.902C104.104 115.902 113.271 107.373 113.271 96.8909C113.271 86.4086 104.104 77.8796 92.8379 77.8796ZM69.3676 150.744L2.00483 114.184C1.38172 113.844 1 113.228 1 112.56V39.4391H5.04176V111.478L71.3997 147.495L69.3676 150.744ZM27.496 75.9993H23.4542V23.7705H27.496V75.9993ZM139.767 70.7765H135.725V40.5203L70.3836 5.05688L49.9503 16.1085V60.3307H45.9085V15.0221C45.9085 14.3536 46.2902 13.7321 46.9133 13.3978L69.3676 1.25462C69.9963 0.915128 70.7766 0.915128 71.3997 1.25462L138.762 37.8148C139.386 38.1491 139.767 38.7706 139.767 39.4391V70.7765Z" fill="#466BB0" stroke="#466BB0" stroke-width="2"/>
</svg>
