<svg width="150" height="150" viewBox="0 0 150 150" fill="none" xmlns="http://www.w3.org/2000/svg">
<path d="M142.065 67.4653C139.99 67.2218 137.89 67.7126 136.212 68.8337C134.534 69.9548 133.409 71.6179 133.077 73.4701C132.032 80.2244 129.51 86.7276 125.658 92.6075C121.805 98.4874 116.697 103.629 110.625 107.737C104.553 111.845 97.6363 114.84 90.2715 116.549C82.9068 118.259 75.2382 118.65 67.7047 117.7L57.4727 130.337C63.3399 131.717 69.3828 132.407 75.4488 132.388C93.2783 132.384 110.508 126.616 123.975 116.143C137.442 105.669 146.241 91.1928 148.759 75.3719C148.919 74.4564 148.871 73.5213 148.618 72.6227C148.366 71.7242 147.913 70.8805 147.288 70.1423C146.663 69.4041 145.879 68.7865 144.981 68.3266C144.084 67.8666 143.092 67.5737 142.065 67.4653Z" fill="#F49322"/>
<path d="M142.062 7.91492C141.019 7.91044 139.985 8.0913 139.02 8.44703C138.056 8.80276 137.179 9.32632 136.441 9.98745C135.704 10.6486 135.12 11.4342 134.723 12.2988C134.326 13.1635 134.124 14.0901 134.129 15.025V25.1182L127.775 19.4465C116.345 9.1677 101.46 2.54434 85.4152 0.597707C69.3704 -1.34893 53.0568 1.48926 38.9896 8.67465C24.9224 15.8601 13.8828 26.9936 7.57314 40.3587C1.26344 53.7238 0.0339713 68.5782 4.07431 82.6315L17.6453 65.8868C17.7875 52.2168 23.8554 39.1323 34.5659 29.3997C39.9512 24.5559 46.3504 20.7126 53.3964 18.0902C60.4425 15.4678 67.9967 14.1179 75.626 14.1179C83.2554 14.1179 90.8096 15.4678 97.8557 18.0902C104.902 20.7126 111.301 24.5559 116.686 29.3997L123.03 35.0859H111.753C110.695 35.0612 109.641 35.2267 108.655 35.5728C107.669 35.9189 106.77 36.4385 106.011 37.1009C105.252 37.7634 104.65 38.5553 104.238 39.43C103.826 40.3046 103.614 41.2443 103.614 42.1936C103.614 43.1429 103.826 44.0826 104.238 44.9573C104.65 45.8319 105.252 46.6238 106.011 47.2863C106.77 47.9488 107.669 48.4683 108.655 48.8144C109.641 49.1605 110.695 49.326 111.753 49.3013H142.067C143.11 49.3058 144.144 49.1249 145.109 48.7692C146.073 48.4135 146.95 47.8899 147.687 47.2288C148.425 46.5677 149.009 45.7821 149.406 44.9174C149.803 44.0527 150.005 43.1262 150 42.1912V15.025C150.005 14.0897 149.803 13.1627 149.406 12.2977C149.008 11.4327 148.424 10.6469 147.686 9.98572C146.947 9.32453 146.07 8.80107 145.105 8.44563C144.14 8.09018 143.105 7.9098 142.062 7.91492Z" fill="#F49322"/>
<path d="M75.2729 29.3992C74.2298 29.3947 73.196 29.5756 72.2313 29.9313C71.2667 30.287 70.3902 30.8106 69.6526 31.4717C68.915 32.1328 68.3309 32.9184 67.934 33.7831C67.5371 34.6478 67.3354 35.5743 67.3404 36.5093V66.2048C67.3203 67.7573 67.8828 69.2708 68.9376 70.5024C69.9923 71.7341 71.4781 72.6123 73.1565 72.9963L97.498 79.1555C98.1867 79.3367 98.8974 79.442 99.6144 79.4693C101.518 79.4594 103.354 78.8342 104.784 77.7084C106.215 76.5827 107.144 75.0321 107.402 73.3415C107.659 71.6509 107.227 69.9338 106.185 68.5057C105.144 67.0775 103.562 66.0343 101.731 65.5676L83.227 60.8276V36.4996C83.2306 35.5639 83.0271 34.6367 82.6282 33.7719C82.2293 32.9071 81.643 32.1218 80.9033 31.4614C80.1636 30.8011 79.285 30.2788 78.3186 29.9248C77.3521 29.5708 76.3169 29.3922 75.2729 29.3992Z" fill="#F49322"/>
<path d="M57.1251 94.3174H43.5541L47.6093 67.6243C47.7566 66.6557 47.5385 65.6707 46.9895 64.8259C46.4405 63.9812 45.5921 63.3252 44.5793 62.9623C43.5666 62.5994 42.4475 62.5505 41.4001 62.8232C40.3527 63.0959 39.4371 63.6747 38.7989 64.4675L0.907964 111.381C0.392002 112.032 0.0831931 112.796 0.0145911 113.592C-0.054011 114.388 0.120176 115.185 0.51851 115.9C0.916844 116.614 1.52433 117.217 2.27593 117.646C3.02754 118.074 3.89497 118.311 4.78538 118.332H18.3563L14.3012 145.025C14.1538 145.993 14.372 146.978 14.921 147.823C15.47 148.668 16.3183 149.324 17.3311 149.687C18.3439 150.05 19.4629 150.099 20.5103 149.826C21.5577 149.553 22.4733 148.974 23.1115 148.182L61.0025 101.109C61.5538 100.477 61.892 99.7175 61.9773 98.9191C62.0625 98.1208 61.8913 97.3172 61.4837 96.6033C61.076 95.8893 60.4491 95.2948 59.6768 94.8898C58.9046 94.4847 58.0192 94.2862 57.1251 94.3174Z" fill="#F49322"/>
</svg>
