<svg width="150" height="150" viewBox="0 0 150 150" fill="none" xmlns="http://www.w3.org/2000/svg">
<path fill-rule="evenodd" clip-rule="evenodd" d="M111.451 51.7174C112.442 51.6959 112.993 52.2908 113.218 53.143C113.09 54.2309 112.527 54.7829 111.542 54.8419C110.567 54.8901 109.817 54.4506 109.72 53.4484C109.613 52.2962 110.347 51.7335 111.451 51.7174ZM102.638 53.3145C102.638 52.1568 103.463 51.6531 104.545 51.712C105.536 51.7656 106.185 52.3498 106.12 53.3788C106.061 54.4024 105.333 54.8311 104.342 54.874C103.393 54.7829 102.633 54.3327 102.638 53.3145ZM109.715 80.4648C109.634 79.4518 110.24 78.8516 111.226 78.7712C112.324 78.6694 113.095 79.1839 113.17 80.3093C113.234 81.3651 112.404 81.7188 111.59 81.9278C110.588 81.826 109.801 81.4991 109.715 80.4648ZM102.633 80.111C102.745 79.1196 103.522 78.6855 104.513 78.7444C105.536 78.8087 106.045 79.4036 106.184 80.2504C105.997 81.4133 105.322 81.9225 104.368 81.901C103.286 81.8742 102.499 81.2794 102.633 80.111ZM109.72 107.561C109.795 106.543 110.577 106.104 111.52 106.147C112.468 106.189 113.106 106.709 113.208 107.712C113.025 108.708 112.468 109.276 111.472 109.276C110.363 109.282 109.645 108.719 109.72 107.561ZM102.622 107.835C102.558 106.677 103.361 106.104 104.454 106.136C105.424 106.163 106.061 106.699 106.168 107.728C106.034 108.767 105.424 109.26 104.427 109.292C103.426 109.325 102.681 108.837 102.622 107.835ZM97.731 15.0436C100.029 15.9118 100.147 16.6782 99.0274 18.6879C95.6793 24.6904 92.4918 30.7785 89.3633 36.8935C88.6187 38.3513 87.7347 38.7907 86.1383 38.7854C69.6118 38.7264 53.0852 38.8068 36.564 38.6835C34.0836 38.6675 33.5211 39.4178 33.6176 41.733C33.7944 46.074 33.789 50.4365 33.6176 54.7829C33.5211 57.0821 34.0676 57.8806 36.564 57.8538C49.3513 57.7198 62.1333 57.7895 74.9206 57.7895H78.1616C76.7152 60.5924 75.4617 63.047 74.1813 65.4801C73.5438 66.6913 72.3546 66.2733 71.3742 66.2786C59.803 66.3001 48.237 66.343 36.6711 66.2411C34.4158 66.2251 33.4676 66.6163 33.6015 69.1673C33.8372 73.7656 33.7515 78.3961 33.6283 82.9943C33.5747 84.8594 34.1961 85.3256 35.98 85.3096C44.4174 85.2185 52.8548 85.3096 61.2922 85.2399C63.1404 85.2238 63.569 85.4864 62.6154 87.33C59.2726 93.8094 59.3315 93.8362 51.9816 93.8362C46.587 93.8362 41.1925 93.9113 35.8033 93.7987C34.0247 93.7612 33.6015 94.3615 33.6336 96.0336C33.7247 100.9 33.7301 105.771 33.6336 110.648C33.5961 112.304 34.0033 112.915 35.7765 112.867C40.0193 112.733 44.2621 112.824 48.4674 112.824C48.8102 113.88 48.1567 114.475 47.8138 115.134C46.0888 118.452 44.3264 121.748 42.5478 125.038C40.0889 129.588 40.0782 129.578 36.0604 126.533C7.07327 104.539 1.96798 63.2613 24.7248 34.8731C42.1085 13.1839 71.7117 5.18782 97.731 15.0436ZM67.5654 139.133C62.6154 138.533 57.8101 137.456 53.1066 135.826C51.8638 135.398 51.4566 134.964 52.1798 133.624C55.7048 127.123 59.1762 120.595 62.5618 114.025C63.3386 112.513 64.5118 112.835 65.6636 112.835C82.0187 112.819 98.3792 112.771 114.734 112.883C117.022 112.899 117.702 112.353 117.59 110.027C117.386 105.686 117.381 101.318 117.59 96.9714C117.702 94.5222 117.118 93.7398 114.504 93.7719C101.722 93.9166 88.9347 93.8362 76.142 93.8309C73.3135 93.8309 73.6296 93.9381 74.5992 91.2048C76.3295 86.2903 79.3938 84.8755 84.5794 85.1274C94.7311 85.6151 104.931 85.2131 115.104 85.3149C117.065 85.3364 117.638 84.8165 117.579 82.8443C117.434 78.1495 117.445 73.4494 117.574 68.7493C117.627 66.8467 117.177 66.209 115.152 66.2411C106.972 66.359 98.7971 66.2947 90.6168 66.2894C87.9062 66.2894 88.2544 66.3858 89.1544 63.7758C90.9115 58.7113 94.0882 57.1142 99.3596 57.6716C104.61 58.2236 109.961 57.7145 115.265 57.8324C117.145 57.8752 117.611 57.2321 117.568 55.4475C117.461 50.667 117.418 45.8704 117.584 41.0952C117.659 38.9997 116.877 38.6514 115.029 38.7103C111.049 38.839 107.047 38.7478 102.52 38.7478C105.413 33.3028 108.043 28.324 110.695 23.3452C111.67 21.5123 112.495 23.1737 113.095 23.6292C125.732 33.1474 133.934 45.5917 137.561 61.0104C147.595 103.735 111.118 144.401 67.5654 139.133ZM149.48 69.4674C149.336 68.4384 149.186 67.4041 149.052 66.3698C145.95 43.5712 134.925 25.6604 115.875 12.7444C105.21 5.52545 93.2686 1.88648 80.5616 0.514494C80.5616 0.342996 80.5616 0.171498 80.5563 0H69.0707C69.0653 0.171498 69.0653 0.342996 69.0707 0.514494C67.9457 0.680633 66.8314 0.852131 65.7172 0.996832C46.0353 3.58538 29.6533 12.3961 17.0964 27.7237C-8.9176 59.4938 -4.76586 105.252 26.2891 132.048C58.7905 160.099 108.654 154.622 134.539 120.199C143.298 108.548 147.991 95.369 149.48 80.9632L149.738 80.9685L150 80.9632V69.4728C149.823 69.4621 149.652 69.4621 149.48 69.4674Z" fill="#FF8905"/>
</svg>
