<svg version="1.1" id="shardingsphere_1" xmlns="http://www.w3.org/2000/svg" xmlns:xlink="http://www.w3.org/1999/xlink" x="0px"
	 y="0px" viewBox="0 0 511.4 508" style="enable-background:new 0 0 511.4 508;" xml:space="preserve">
<style type="text/css">
	.st0{fill:#FFFFFF;}
	.st1{opacity:0.7;fill:#FFFFFF;}
	.st2{opacity:0.8;fill:#FFFFFF;}
	.st3{opacity:0.9;fill:#FFFFFF;}
</style>
<path class="st0" d="M407.6,312.3c0.4-1.5,0.8-3.1,1.1-4.7C408.3,309.2,408,310.8,407.6,312.3z"/>
<path class="st0" d="M409.7,303.3c0.7-3.2,1.3-6.4,1.9-9.6C411,297,410.4,300.2,409.7,303.3z"/>
<path class="st0" d="M405.4,320.4c0.2-0.6,0.4-1.3,0.5-1.9L405.4,320.4z"/>
<path class="st0" d="M195.2,152.6c5.4,2.9,11,5.4,16.8,7.5C206.5,157.3,200.9,154.8,195.2,152.6z"/>
<path class="st1" d="M266.4,73.1c0,0,158.2,48.3,145.3,220.6c-0.6,3.3-1.2,6.5-1.9,9.6c-0.3,1.4-0.7,2.9-1,4.3
	c-0.4,1.6-0.7,3.2-1.1,4.7c-0.5,2.1-1.1,4.1-1.6,6.1c-0.2,0.6-0.3,1.3-0.5,1.9c-27.2,95.6-98.5,142.2-155.7,161.5
	c-19.6,6.6-39.9,10.4-60.5,11.5c-6.5,0.4-13,0.3-19.4-0.1c28.4,10.1,58.4,15.1,88.6,14.7c141.2-1.4,254.5-116.1,253.1-256.2
	c-0.4-43.3-12-85.7-33.6-123.2c1.6,7,3.1,14.1,4.5,21.6c24.6,125.7-52.1,190.9-52.1,190.9s50.1-53.7,10-197.7
	c-21.8-78.2-58.4-108.2-60.8-110.9C344.8,3.7,317.3-5.2,288.1,2.8C207.6,44.3,266.4,73.1,266.4,73.1z"/>
<path class="st2" d="M169.7,493.3c0.9,0,187.5,14.7,235.7-172.9c0.2-0.6,0.4-1.3,0.5-1.9c0.6-2,1.1-4.1,1.6-6.1
	c0.4-1.5,0.8-3.1,1.1-4.7c0.3-1.4,0.7-2.8,1-4.3c0.7-3.2,1.3-6.4,1.9-9.6C424.6,121.4,266.4,73.1,266.4,73.1s-58.8-28.8,21.7-70.2
	c-37,10-62.1,29.2-61.9,51c0.1,15.1,12.4,28.6,32.3,38.6c5.8,2.1,11.5,4.5,17.1,7.1c24.6,11.2,46.7,27.1,65.1,46.9
	c27.9,30.2,44.7,68.3,45.2,109.9c1,99.7-92.6,181.4-209.1,182.6c-47.9,0.5-92.2-12.7-127.9-35.4C79.2,444.9,121.4,476.1,169.7,493.3
	z"/>
<path class="st0" d="M405.9,318.5c0.6-2,1.1-4.1,1.6-6.1C407,314.4,406.5,316.4,405.9,318.5z"/>
<path class="st0" d="M408.7,307.6c0.3-1.4,0.7-2.8,1-4.3C409.4,304.8,409,306.2,408.7,307.6z"/>
<path class="st0" d="M133.6,204.1"/>
<path class="st3" d="M211.9,160.1c-5.8-2.1-11.4-4.6-16.8-7.5c-28.5-15.4-47.1-40.4-47.4-68.8c0-1.4,0-2.9,0.1-4.3
	c1.9-33.7,29.8-62.7,69.1-75.7C118.4,18.6,38.5,89.2,10.7,181.8c12.1-5.1,25.1-7.7,38.2-7.7c53.8,0,97.5,43.3,97.5,96.7
	s-43.6,96.7-97.5,96.7c-7.9,0-15.7-1-23.4-2.8c1.2,2.4,2.4,4.8,3.7,7.2c3,5.7,6.2,11.2,9.5,16.6c15.4,21.9,56.4,23.8,89.2,23.9
	c92.2,0.4,161.6-64.8,160.9-139.2C288.3,225.3,257.6,183.5,211.9,160.1z"/>
<path class="st0" d="M146.3,270.8c0-53.4-43.6-96.7-97.5-96.7c-13.1,0-26.1,2.6-38.2,7.7c-2.2,7.3-4.1,14.7-5.6,22.3
	c-11,54.3-3.8,110.7,20.4,160.5c7.7,1.9,15.5,2.8,23.4,2.8C102.7,367.5,146.3,324.2,146.3,270.8z"/>
<path class="st0" d="M146.3,270.8c0-53.4-43.6-96.7-97.5-96.7c-13.1,0-26.1,2.6-38.2,7.7c-2.2,7.3-4.1,14.7-5.6,22.3
	c-11,54.3-3.8,110.7,20.4,160.5c7.7,1.9,15.5,2.8,23.4,2.8C102.7,367.5,146.3,324.2,146.3,270.8z"/>
</svg>
