<svg width="41" height="31" viewBox="0 0 41 31" fill="none" xmlns="http://www.w3.org/2000/svg">
<path fill-rule="evenodd" clip-rule="evenodd" d="M0 22.875H10.9921V30.5915H0V22.875Z" fill="white"/>
<path fill-rule="evenodd" clip-rule="evenodd" d="M15 22.875H25.9921V30.5915H15V22.875Z" fill="white"/>
<path fill-rule="evenodd" clip-rule="evenodd" d="M30 22.875H40.9921V30.5915H30V22.875Z" fill="white"/>
<path fill-rule="evenodd" clip-rule="evenodd" d="M11.7871 0H29.2044V7.71654H11.7871V0Z" fill="white"/>
<path d="M15.6689 11.2344L13.9277 9.49219L6.15075 17.2647L7.89194 19.0069L15.6689 11.2344Z" fill="white"/>
<path d="M4.76025 20.4375L5.74439 16.7037L6.72855 12.9698L9.47007 15.689L12.2116 18.4082L8.48591 19.4229L4.76025 20.4375Z" fill="white"/>
<path d="M23.667 11.2344L25.4082 9.49219L33.1852 17.2647L31.444 19.0069L23.667 11.2344Z" fill="white"/>
<path d="M34.5757 20.4375L33.5915 16.7037L32.6074 12.9698L29.8659 15.689L27.1243 18.4082L30.85 19.4229L34.5757 20.4375Z" fill="white"/>
<path d="M18.9451 10.1483L21.4082 10.1602L21.3399 18.6586L18.8768 18.6467L18.9451 10.1483Z" fill="white"/>
<path d="M20.0596 21.8803L22.0256 18.5569L23.9915 15.2335L20.1304 15.1926L16.2693 15.1517L18.1644 18.516L20.0596 21.8803Z" fill="white"/>
</svg>
