<svg xmlns="http://www.w3.org/2000/svg" xmlns:xlink="http://www.w3.org/1999/xlink" id="Layer_1" x="0" y="0" version="1.1" viewBox="0 0 250 280" xml:space="preserve" style="enable-background:new 0 0 250 280"><style type="text/css">.st0{fill:#290b53}</style><g><path d="M32.5,5.8C18,8.9,8.6,19.2,6.2,34.5c-1.8,11.8,1.7,21.3,14,37.4l5.8,7.6l-1.8,5.4c-13.9,40.6-15,44.4-15,49.6 c0,11.7,5.7,25.7,16.9,41.3c7.3,10.3,16.8,20.2,45.6,47.6c12.1,11.5,29.1,27.8,37.8,36.2c8.7,8.3,16.2,15.2,16.7,15.2 s8.7-7.3,18.2-16.2s19.6-18.2,22.3-20.7c48.5-44.2,62.2-59.1,71.3-77.5c4.8-9.6,6.1-14.7,6.2-23.6c0-5.6-1.1-9.7-8.1-29.5 c-4.5-12.7-8.8-25.3-9.6-28.2L225,74l4.5-6.4c10.1-14.3,12.8-22.7,10.8-33.6c-1.6-8.7-4.3-14.2-9.7-19.7 c-6.5-6.4-13.4-8.8-25.9-8.9c-11.7-0.1-17.9,1.7-25,7.1l-4.6,3.5l-12.7-3c-15.2-3.7-17.7-4.1-19.1-3.2c-0.8,0.4,0.2,5.8,2.9,16.6 c6.8,26.5,15.8,61.4,18,69.4c3.7,13.6,4.2,17.3,3.8,24.6c-0.8,12.8-8.3,23.9-19.6,29.2c-5.2,2.5-6.9,2.7-20.7,3 c-13.4,0.3-15.7,0.1-20.7-1.8c-14.2-5.3-24.1-21.4-22.5-36.5c0.4-4.3,11.2-48.4,23-94.2c1.3-5.1,2.2-9.5,1.9-9.8 c-1.7-1.7-16,0.6-31.4,5.1l-5.7,1.7l-3.8-3.3c-6.2-5.5-12.8-7.9-22.9-8.5C40.7,5.1,34.8,5.3,32.5,5.8z" class="st0"/><path d="M111.4,85.8c-1.2,0.5-2.5,1.7-2.9,2.5c-0.9,2.4,2.4,29.4,3.8,31.1c0.9,1.1,4.1,1.4,14,1.4 c12.2,0,12.9-0.1,14.3-2.3c1.5-2.4,4-27.5,2.9-30.2c-0.3-0.9-1.7-2.1-3-2.6C137.4,84.5,114.4,84.6,111.4,85.8z" class="st0"/></g></svg>