<svg width="90" height="90" viewBox="0 0 90 90" fill="none" xmlns="http://www.w3.org/2000/svg">
<rect x="4.61583" y="4.61583" width="80.7683" height="80.7683" stroke="white" stroke-width="3.23167" stroke-dasharray="6.46 6.46"/>
<path fill-rule="evenodd" clip-rule="evenodd" d="M42.922 44.9192C50.6357 44.9192 56.889 38.666 56.889 30.9523C56.889 23.2386 50.6357 16.9854 42.922 16.9854C35.2082 16.9854 28.955 23.2386 28.955 30.9523C28.955 38.666 35.2082 44.9192 42.922 44.9192ZM32.7974 45.6538C33.0784 45.6128 33.3624 45.6859 33.6026 45.8373C36.1178 47.4224 39.345 48.3749 42.8641 48.3749C46.4033 48.3749 49.6473 47.4114 52.1687 45.81C52.4038 45.6607 52.6813 45.5864 52.9575 45.6219C56.932 46.1326 60.3748 48.3421 62.5342 51.4989C61.9537 51.4097 61.3589 51.3634 60.7534 51.3634C54.3337 51.3634 49.1295 56.5649 49.1295 62.9813C49.1295 67.2602 51.4439 70.9988 54.8898 73.0149H29.4229C24.8056 73.0149 21.0625 69.2718 21.0625 64.6545V59.2442C21.0625 52.3379 26.1597 46.6222 32.7974 45.6538ZM60.8251 71.1638C65.3054 71.1638 68.9375 67.5336 68.9375 63.0556C68.9375 58.5775 65.3054 54.9474 60.8251 54.9474C56.3447 54.9474 52.7126 58.5775 52.7126 63.0556C52.7126 67.5336 56.3447 71.1638 60.8251 71.1638ZM60.5191 66.0783L64.9441 61.6533L63.7646 60.4738L59.9765 64.2619L58.3501 62.3645L57.0836 63.4501L59.2961 66.0313C59.4473 66.2077 59.6652 66.313 59.8974 66.322C60.1295 66.3309 60.3548 66.2426 60.5191 66.0783Z" fill="white"/>
</svg>
