<svg width="40" height="40" viewBox="0 0 40 40" fill="none" xmlns="http://www.w3.org/2000/svg">
<g clip-path="url(#clip0_23296_3604)">
<path d="M40 0H0V40H40V0Z" fill="#C925D1" fill-opacity="0.12"/>
<path fill-rule="evenodd" clip-rule="evenodd" d="M13.123 33.0089H27.3685V25.0796H13.123V33.0089ZM27.8772 24.0885H12.6142C12.3334 24.0885 12.1054 24.3105 12.1054 24.5841V33.5044C12.1054 33.778 12.3334 34 12.6142 34H27.8772C28.1581 34 28.386 33.778 28.386 33.5044V24.5841C28.386 24.3105 28.1581 24.0885 27.8772 24.0885ZM20.2091 31.7065L19.2648 31.3378L21.2999 26.382L22.2442 26.7507L20.2091 31.7065ZM23.4469 30.1801L25.1228 28.5487L23.4469 26.9172L24.1673 26.2155L26.2024 28.1978C26.4008 28.3921 26.4008 28.7053 26.2024 28.8995L24.1673 30.8818L23.4469 30.1801ZM15.3066 28.8995C15.1082 28.7053 15.1082 28.3921 15.3066 28.1978L17.3417 26.2155L18.0621 26.9172L16.3862 28.5487L18.0621 30.1801L17.3417 30.8818L15.3066 28.8995ZM33.4951 17.3239C32.6525 16.529 31.4915 16.1593 29.838 16.1593C27.9688 16.1593 26.531 16.6846 25.6458 17.6183C25.3995 12.9361 24.1592 9.01012 22.4548 7.15469C28.3311 7.98527 32.7919 12.0926 33.78 17.5935C33.6853 17.5023 33.5897 17.4131 33.4951 17.3239ZM24.3505 17.4944L24.1673 17.3229C23.3472 16.5508 22.0285 16.1593 20.2457 16.1593C18.5312 16.1593 17.2277 16.6053 16.3903 17.4418C16.6905 10.9429 18.5291 6.99115 20.2457 6.99115C22.1811 6.99115 24.325 11.5068 24.6344 17.7669C24.5428 17.6767 24.4512 17.5875 24.3505 17.4944ZM15.3565 17.8264C15.2211 17.6876 15.0766 17.5519 14.925 17.4091L14.8335 17.3229C13.9909 16.529 12.8269 16.1593 11.1693 16.1593C9.53006 16.1593 8.20421 16.5686 7.30369 17.313C8.42298 11.8894 12.5959 7.96347 18.1109 7.1537C16.4585 9.12906 15.5264 13.3811 15.3565 17.8264ZM35 19.7086C35 19.6898 35 19.6699 34.999 19.6511C34.8545 11.8656 28.5224 6 20.2457 6C12.43 6 6.3065 11.8656 6.00124 19.6303C5.98699 19.8216 6.09689 19.999 6.25868 20.0951L6.25766 20.0961L6.26885 20.1031C6.27394 20.1061 6.27597 20.109 6.28004 20.111L11.4695 23.4016L12.024 22.571L7.11951 19.4608C7.63235 17.4022 10.0907 17.1504 11.1693 17.1504C12.546 17.1504 13.4842 17.4319 14.1252 18.0355L14.2168 18.1218C14.9199 18.7819 15.271 19.1129 15.331 19.9792C15.332 19.996 15.3412 20.0099 15.3443 20.0268C15.3473 20.0436 15.3473 20.0624 15.3504 20.0773L16.0311 22.5245L17.013 22.2658L16.3526 19.89L16.3567 19.8295C16.5582 18.0514 17.8667 17.1504 20.2457 17.1504C21.2836 17.1504 22.6837 17.3041 23.4591 18.0355L23.6474 18.211C24.2569 18.7789 24.5642 19.0644 24.6537 19.886V19.893L23.9882 22.2648L24.9701 22.5255L25.657 20.0793C25.6651 20.0525 25.6661 20.0278 25.6692 20.003C25.6702 19.995 25.6753 19.9881 25.6753 19.9802C25.8564 17.426 28.6465 17.1504 29.838 17.1504C31.2097 17.1504 32.1468 17.4319 32.7869 18.0355C33.4025 18.6154 33.8176 19.0515 33.9316 19.4836L29.5521 22.4541L30.1341 23.2668L34.7822 20.115L34.7772 20.107C34.9084 20.0178 35 19.8761 35 19.7086Z" fill="#C925D1"/>
</g>
<rect x="0.5" y="0.5" width="39" height="39" stroke="#C925D1"/>
<defs>
<clipPath id="clip0_23296_3604">
<rect width="40" height="40" fill="white"/>
</clipPath>
</defs>
</svg>
