<svg xmlns="http://www.w3.org/2000/svg" role="img" xmlns:xlink="http://www.w3.org/1999/xlink" viewBox="-1.20 19.05 361.40 322.90"><defs><linearGradient id="linear-gradient" x1="1126.261" x2="1375.533" y1="3683.326" y2="3683.326" gradientTransform="scale(1 -1) rotate(45 5307.366 422.857)" gradientUnits="userSpaceOnUse"><stop offset="0" stop-color="#bcbec0"/><stop offset=".738" stop-color="#d6d7d9"/><stop offset="1" stop-color="#e0e1e2"/></linearGradient><linearGradient id="linear-gradient-2" x1="1126.234" x2="1375.505" y1="3564.931" y2="3564.931" xlink:href="#linear-gradient"/><linearGradient id="linear-gradient-3" x1="1126.261" x2="1375.533" y1="3623.644" y2="3623.644" xlink:href="#linear-gradient"/><linearGradient id="linear-gradient-4" x1="1102.63" x2="1401.995" y1="3623.644" y2="3623.644" xlink:href="#linear-gradient"/><linearGradient id="linear-gradient-5" x1="1102.63" x2="1401.995" y1="3593.435" y2="3593.435" xlink:href="#linear-gradient"/><linearGradient id="linear-gradient-6" x1="1102.63" x2="1401.995" y1="3592.755" y2="3592.755" xlink:href="#linear-gradient"/><linearGradient id="linear-gradient-7" x1="1102.63" x2="1401.995" y1="3593.112" y2="3593.112" xlink:href="#linear-gradient"/><style>.cls-3{fill:#fff}</style></defs><path fill="url(#linear-gradient)" d="M103.31 128.93a29.547 29.547 0 0 1 41.807 0l8.727 8.727 27.012-27.012a33.61 33.61 0 0 1 47.542 0l10.39 10.389 26.014-26.015-56.601-56.601a42.14 42.14 0 0 0-59.344 0L31.915 155.278a42.1 42.1 0 0 0-6.234 51.28l.333-.332z"/><path fill="url(#linear-gradient-2)" d="M316.583 206.143a41.866 41.866 0 0 0 9.225-45.214l-3.823 3.823-65.993 65.993a29.547 29.547 0 0 1-41.807 0L203.88 220.44l-34.077 34.077a33.61 33.61 0 0 1-47.542 0l-8.81-8.81-25.267 25.267 52.03 52.03a42.14 42.14 0 0 0 59.344 0z"/><path d="M322.068 164.67l3.823-3.824a40.914 40.914 0 0 0-5.568-9.808 185.03 185.03 0 0 1 1.745 13.631zM26.014 206.226l-.333.333c.25.415.416.831.665 1.164a12.39 12.39 0 0 0-.332-1.497z" class="cls-3"/><path fill="url(#linear-gradient-3)" d="M204.627 116.38a15.296 15.296 0 0 0-3.408.332 17.897 17.897 0 0 0-9.225 4.904l-27.013 27.012 1.912 1.912a29.547 29.547 0 0 1 0 41.806l-42.305 42.306 8.81 8.81a17.859 17.859 0 0 0 12.716 5.236 17.069 17.069 0 0 0 6.733-1.33c.498-.25 1.08-.498 1.579-.748.083 0 .083-.083.166-.083a18.559 18.559 0 0 0 4.156-3.075l34.077-34.077-.333-.333a29.547 29.547 0 0 1 0-41.806l35.158-35.158-10.39-10.39a17.557 17.557 0 0 0-12.633-5.319z"/><path fill="url(#linear-gradient-4)" d="M204.627 116.38a15.296 15.296 0 0 0-3.408.332 17.897 17.897 0 0 0-9.225 4.904l-27.013 27.012 1.912 1.912a29.547 29.547 0 0 1 0 41.806l-42.305 42.306 8.81 8.81a17.859 17.859 0 0 0 12.716 5.236 17.069 17.069 0 0 0 6.733-1.33c.498-.25 1.08-.498 1.579-.748.083 0 .083-.083.166-.083a18.559 18.559 0 0 0 4.156-3.075l34.077-34.077-.333-.333a29.547 29.547 0 0 1 0-41.806l35.158-35.158-10.39-10.39a17.557 17.557 0 0 0-12.633-5.319z"/><path d="M154.426 246.62c-.499.25-1.08.499-1.58.748.5-.25 1.081-.498 1.58-.748z"/><path fill="url(#linear-gradient-5)" d="M154.426 246.62c-.499.25-1.08.499-1.58.748.5-.25 1.081-.498 1.58-.748z"/><path d="M158.748 243.379a16.323 16.323 0 0 1-4.156 3.075 14.573 14.573 0 0 0 4.156-3.075z"/><path fill="url(#linear-gradient-6)" d="M158.748 243.379a16.323 16.323 0 0 1-4.156 3.075 14.573 14.573 0 0 0 4.156-3.075z"/><path d="M154.592 246.537c-.083 0-.083.083-.166.083.083 0 .083-.083.166-.083z"/><path fill="url(#linear-gradient-7)" d="M154.592 246.537c-.083 0-.083.083-.166.083.083 0 .083-.083.166-.083z"/><path fill="#dedede" d="M31.915 214.621a42.852 42.852 0 0 1-5.486-6.815 8.306 8.306 0 0 1-.665-1.164l-11.22 11.054a29.547 29.547 0 0 0 0 41.807l21.693 21.693a29.669 29.669 0 0 0 34.41 5.402 28.617 28.617 0 0 0 7.396-5.402l6.899-6.899 2.493-2.493.831-.831z"/><path d="M103.393 235.566a32.621 32.621 0 0 1-5.984-8.145 33.965 33.965 0 0 1-1.413-28.26 24.304 24.304 0 0 1 1.413-2.991 32.622 32.622 0 0 1 5.984-8.146l50.451-50.45-8.727-8.727a29.547 29.547 0 0 0-41.807 0l-77.296 77.296c.083.5.249.998.332 1.58a42.852 42.852 0 0 0 5.486 6.815l56.351 56.352 25.267-25.267z" class="cls-3"/><path d="M166.81 150.623l-1.912-1.912-50.45 50.45a19.405 19.405 0 0 0-3.159 4.24l-.083.083c-.25.498-.499 1.08-.748 1.579a17.362 17.362 0 0 0-1.33 6.732 18 18 0 0 0 5.236 12.717l10.14 10.14 42.223-42.223a29.472 29.472 0 0 0 .083-41.806z" class="cls-3"/><path d="M111.372 203.317a18.742 18.742 0 0 1 3.159-4.238 16.552 16.552 0 0 0-3.159 4.238zm-.831 1.746c.25-.499.499-1.08.748-1.58-.25.5-.498.998-.748 1.58zm.749-1.579l.082-.083c-.083 0-.083 0-.083.083zm81.285 5.486l.333.332 43.386-43.386a17.927 17.927 0 0 0 4.903-9.226 15.793 15.793 0 0 0 .333-3.408 18 18 0 0 0-5.236-12.716l-8.561-8.561-35.158 35.158a29.547 29.547 0 0 0 0 41.806zm60.508-39.813a36.623 36.623 0 0 1-3.49 5.32 32.612 32.612 0 0 0 3.49-5.32zm1.579-3.241a24.3 24.3 0 0 1-1.413 2.992c.499-.997.998-1.995 1.413-2.992z" class="cls-3"/><path fill="#b3b3b3" d="M249.592 174.477a32.613 32.613 0 0 0 3.49-5.32c.084-.083.084-.166.167-.249.499-.997.998-1.995 1.413-2.992s.748-2.078 1.08-3.075a33.424 33.424 0 0 0-8.477-33.33l-8.56-8.56-11.055 11.054 8.56 8.56a17.859 17.859 0 0 1 5.237 12.717 15.297 15.297 0 0 1-.333 3.408 17.897 17.897 0 0 1-4.903 9.226l-43.386 43.386 11.054 11.054 43.386-43.386a22.294 22.294 0 0 0 2.327-2.493zm95.25-74.388l-21.693-21.693a29.504 29.504 0 0 0-39.646-1.912c-.748.582-1.413 1.247-2.161 1.912l-13.963 13.963-2.494 2.494-.083.083 51.78 51.78a44.603 44.603 0 0 1 3.657 4.24 41.292 41.292 0 0 1 5.57 9.807l18.95-18.95a29.522 29.522 0 0 0 .083-41.724z"/><path d="M247.265 129.512a33.794 33.794 0 0 1 8.478 33.329c-.333 1.08-.665 2.077-1.08 3.075a24.304 24.304 0 0 1-1.414 2.992c-.083.083-.083.166-.166.25a36.623 36.623 0 0 1-3.491 5.319 34.249 34.249 0 0 1-2.327 2.576l-43.386 43.386 10.306 10.306a29.547 29.547 0 0 0 41.807 0l65.993-65.993c-.416-4.571-.997-9.142-1.829-13.63a35.185 35.185 0 0 0-3.657-4.24L264.802 95.02l-26.015 26.015z" class="cls-3"/><path d="M249.592 174.477a34.249 34.249 0 0 1-2.327 2.576 34.255 34.255 0 0 0 2.327-2.576zm3.658-5.569c-.084.083-.084.166-.167.25.083-.084.166-.167.166-.25z" class="cls-3"/></svg>