<svg width="40" height="40" viewBox="0 0 40 40" fill="none" xmlns="http://www.w3.org/2000/svg">
<g clip-path="url(#clip0_23296_3729)">
<path d="M40 0H0V40H40V0Z" fill="#7AA116" fill-opacity="0.12"/>
<path fill-rule="evenodd" clip-rule="evenodd" d="M13.4998 11C14.3267 11 14.9997 11.673 14.9997 12.5C14.9997 13.327 14.3267 14 13.4998 14C12.6728 14 11.9998 13.327 11.9998 12.5C11.9998 11.673 12.6728 11 13.4998 11ZM13.4998 15C14.2207 15 14.8657 14.689 15.3227 14.199L17.4676 15.915C17.2246 16.37 17.0076 16.844 16.8436 17.348L17.7946 17.658C18.7966 14.583 21.5285 12.466 24.7553 12.265L24.6923 11.267C21.9314 11.439 19.4955 12.86 17.9856 15.049L15.8457 13.336C15.9387 13.073 15.9997 12.794 15.9997 12.5C15.9997 11.122 14.8787 10 13.4998 10C12.1208 10 10.9999 11.122 10.9999 12.5C10.9999 13.878 12.1208 15 13.4998 15ZM9.49991 22C8.67294 22 7.99996 21.327 7.99996 20.5C7.99996 19.673 8.67294 19 9.49991 19C10.3269 19 10.9999 19.673 10.9999 20.5C10.9999 21.327 10.3269 22 9.49991 22ZM11.9488 21H20.8875C21.1145 23.167 22.8744 24.921 25.1183 25.047C25.2033 25.052 25.2883 25.055 25.3733 25.055C26.7643 25.055 28.0842 24.413 28.9452 23.307L28.1562 22.693C27.4442 23.607 26.3173 24.106 25.1753 24.049C23.2334 23.939 21.7435 22.271 21.8535 20.331C21.9054 19.391 22.3214 18.527 23.0234 17.9C23.7264 17.273 24.6393 16.963 25.5703 17.009C26.5623 17.064 27.4902 17.541 28.1162 18.314L28.8942 17.686C28.0912 16.692 26.8993 16.082 25.6273 16.011C24.4204 15.938 23.2594 16.348 22.3574 17.154C21.5265 17.897 21.0255 18.902 20.8975 20H11.9488C11.7168 18.86 10.7079 18 9.49991 18C8.12096 18 7 19.122 7 20.5C7 21.878 8.12096 23 9.49991 23C10.7079 23 11.7168 22.14 11.9488 21ZM33.008 19.064C32.924 18.407 32.755 17.762 32.5061 17.147L33.434 16.772C33.714 17.466 33.904 18.194 34 18.936L33.008 19.064ZM32.866 21.885L33.839 22.115C33.587 23.181 33.143 24.181 32.5191 25.087L31.6941 24.52C32.2491 23.716 32.6431 22.83 32.866 21.885ZM26.9993 21H33.999V20H26.9993V21ZM25.6243 25.803L25.6873 26.801C25.5503 26.81 25.4143 26.814 25.2793 26.814C22.3404 26.814 19.7125 24.831 18.9376 21.968L19.9025 21.707C20.5905 24.245 23.0164 25.968 25.6243 25.803ZM24.9403 13.691C27.3432 13.537 29.6152 14.707 30.9001 16.732L30.0571 17.268C28.9662 15.55 27.0173 14.559 25.0033 14.689C22.3674 14.854 20.1935 16.869 19.8345 19.48L18.8446 19.344C19.2685 16.263 21.8325 13.886 24.9403 13.691ZM13.4998 30C12.6728 30 11.9998 29.327 11.9998 28.5C11.9998 27.673 12.6728 27 13.4998 27C14.3267 27 14.9997 27.673 14.9997 28.5C14.9997 29.327 14.3267 30 13.4998 30ZM25.7313 27.896C22.6204 28.086 19.6885 26.421 18.2696 23.644L17.3786 24.099C17.4706 24.278 17.5836 24.439 17.6866 24.609L15.0327 26.54C14.6077 26.207 14.0797 26 13.4998 26C12.1208 26 10.9999 27.122 10.9999 28.5C10.9999 29.878 12.1208 31 13.4998 31C14.8787 31 15.9997 29.878 15.9997 28.5C15.9997 28.064 15.8777 27.661 15.6817 27.304L18.2456 25.439C19.9035 27.604 22.4754 28.911 25.2403 28.911C25.4243 28.911 25.6083 28.905 25.7943 28.894C27.5602 28.784 29.2312 28.157 30.6281 27.081L30.0191 26.289C28.7792 27.242 27.2972 27.798 25.7313 27.896Z" fill="#7AA116"/>
</g>
<rect x="0.5" y="0.5" width="39" height="39" stroke="#7AA116"/>
<defs>
<clipPath id="clip0_23296_3729">
<rect width="40" height="40" fill="white"/>
</clipPath>
</defs>
</svg>
