<svg width="40" height="40" viewBox="0 0 40 40" xmlns="http://www.w3.org/2000/svg">  <g id="Icon-Architecture/32/Arch_NICE-DCV_32" stroke="none" stroke-width="1" fill="none" fill-rule="evenodd">  <g id="Icon-Service/32/NICE-DCV_32" transform="translate(6.000000, 6.000000)" fill="#FFFFFF"> <path d="M24.5347906,13.0376432 C22.1637906,14.5176432 18.8587906,16.0216432 15.2297906,17.2726432 C12.7237906,18.1366432 10.1597906,18.8356432 7.85879056,19.2756432 C9.76079056,24.2946432 13.3597906,27.5626432 16.8567906,26.9706432 C20.0727906,26.4276432 22.4617906,22.6016432 22.7997906,17.4506432 L23.7977906,17.5166432 C23.4227906,23.2266432 20.7637906,27.3256432 17.0227906,27.9566432 C16.7017906,28.0116432 16.3797906,28.0376432 16.0587906,28.0376432 C12.3777906,28.0376432 8.76279056,24.5606432 6.86279056,19.4516432 C5.60479056,19.6546432 4.44079056,19.7756432 3.45279056,19.7756432 C1.63279056,19.7756432 0.376790564,19.3956432 0.0707905641,18.5096432 C-0.293209436,17.4536432 0.747790564,16.1276432 3.16479056,14.5676432 L3.70779056,15.4076432 C1.35179056,16.9286432 0.907790564,17.8676432 1.01579056,18.1836432 C1.23379056,18.8136432 3.27879056,18.9996432 6.53779056,18.4906432 C6.23679056,17.5416432 5.98679056,16.5496432 5.81179056,15.5136432 C5.18979056,11.8306432 5.50179056,8.21064324 6.68779056,5.31964324 C7.90679056,2.34864324 9.90679056,0.487643244 12.3177906,0.0796432438 C15.2177906,-0.407356756 18.3217906,1.35964324 20.6007906,4.81564324 L19.7667906,5.36664324 C17.7107906,2.25064324 14.9877906,0.640643244 12.4837906,1.06664324 C10.4267906,1.41364324 8.69579056,3.05864324 7.61279056,5.69964324 C6.49679056,8.41964324 6.20779056,11.8466432 6.79879056,15.3466432 C6.97279056,16.3846432 7.22479056,17.3756432 7.52979056,18.3206432 C9.61679056,17.9326432 12.1107906,17.2896432 14.9037906,16.3276432 C18.4637906,15.1006432 21.6957906,13.6306432 24.0057906,12.1896432 C26.6027906,10.5676432 27.1007906,9.56664324 26.9847906,9.23064324 C26.8847906,8.94064324 26.0477906,8.49464324 23.5487906,8.67064324 L23.4777906,7.67364324 C26.0837906,7.48764324 27.5847906,7.90264324 27.9307906,8.90464324 C28.3087906,10.0046432 27.1667906,11.3946432 24.5347906,13.0376432" id="Fill-6"></path> </g> </g></svg>