<svg width="40" height="40" viewBox="0 0 40 40" fill="none" xmlns="http://www.w3.org/2000/svg">
<g clip-path="url(#clip0_23310_9477)">
<path d="M40 0H0V40H40V0Z" fill="#ED7100" fill-opacity="0.12"/>
<path fill-rule="evenodd" clip-rule="evenodd" d="M20.9647 23.4629C20.9647 24.2899 21.6377 24.9629 22.4647 24.9629C23.2917 24.9629 23.9647 24.2899 23.9647 23.4629C23.9647 22.6359 23.2917 21.9629 22.4647 21.9629C21.6377 21.9629 20.9647 22.6359 20.9647 23.4629ZM21.2557 25.6379C16.4007 30.1119 10.9407 33.9279 8.00969 33.9279C7.39669 33.9279 6.89369 33.7609 6.52969 33.3979C5.29069 32.1599 6.42369 29.4219 7.89069 26.9629H9.07169C6.95269 30.3629 6.72569 32.1789 7.23669 32.6909C8.37369 33.8279 13.7357 31.1879 20.4907 24.9799C20.1657 24.5579 19.9647 24.0359 19.9647 23.4629C19.9647 22.0849 21.0857 20.9629 22.4647 20.9629C23.0547 20.9629 23.5897 21.1759 24.0177 21.5189C30.6387 14.5809 33.9077 8.4519 32.6927 7.2349C32.1837 6.7299 30.3717 6.94591 26.9647 9.06991V7.88791C29.3927 6.4409 32.1537 5.2849 33.3997 6.5279C35.5427 8.6709 30.6577 16.0279 24.6607 22.2939C24.8487 22.6449 24.9647 23.0389 24.9647 23.4629C24.9647 24.8409 23.8437 25.9629 22.4647 25.9629C22.0247 25.9629 21.6147 25.8379 21.2557 25.6379ZM28.9647 19.7389V28.9629H19.7407C19.1437 29.4629 18.5507 29.9459 17.9647 30.3999V32.9629H18.9647V29.9629H20.9647V32.9629H21.9647V29.9629H23.9647V32.9629H24.9647V29.9629H26.9647V32.9629H27.9647V29.9629H29.4647C29.7407 29.9629 29.9647 29.7389 29.9647 29.4629V27.9629H32.9647V26.9629H29.9647V24.9629H32.9647V23.9629H29.9647V21.9629H32.9647V20.9629H29.9647V18.9629H32.9647V17.9629H30.4017C29.9467 18.5479 29.4647 19.1419 28.9647 19.7389ZM9.96469 24.9629H6.96469V23.9629H9.96469V21.9629H6.96469V20.9629H9.96469V18.9629H6.96469V17.9629H9.96469V15.9629H6.96469V14.9629H9.96469V12.9629H6.96469V11.9629H9.96469V10.4629C9.96469 10.1869 10.1887 9.9629 10.4647 9.9629H11.9647V6.9629H12.9647V9.9629H14.9647V6.9629H15.9647V9.9629H17.9647V6.9629H18.9647V9.9629H20.9647V6.9629H21.9647V9.9629H23.9647V6.9629H24.9647V9.9629H29.4647C29.7407 9.9629 29.9647 10.1869 29.9647 10.4629V11.5609C29.6777 12.0479 29.3437 12.5749 28.9647 13.1389V10.9629H10.9647V28.9629H13.1417C12.5777 29.3419 12.0507 29.6749 11.5637 29.9629H10.4647C10.1887 29.9629 9.96469 29.7389 9.96469 29.4629V24.9629Z" fill="#ED7100"/>
</g>
<rect x="0.5" y="0.5" width="39" height="39" stroke="#ED7100"/>
<defs>
<clipPath id="clip0_23310_9477">
<rect width="40" height="40" fill="white"/>
</clipPath>
</defs>
</svg>
