<svg width="90" height="90" viewBox="0 0 90 90" fill="none" xmlns="http://www.w3.org/2000/svg">
<mask id="mask0_26446_21466" style="mask-type:luminance" maskUnits="userSpaceOnUse" x="4" y="4" width="82" height="82">
<path d="M84 4H6C4.89543 4 4 4.89543 4 6V84C4 85.1046 4.89543 86 6 86H84C85.1046 86 86 85.1046 86 84V6C86 4.89543 85.1046 4 84 4Z" fill="white"/>
</mask>
<g mask="url(#mask0_26446_21466)">
<path d="M84 4H6C4.89543 4 4 4.89543 4 6V84C4 85.1046 4.89543 86 6 86H84C85.1046 86 86 85.1046 86 84V6C86 4.89543 85.1046 4 84 4Z" stroke="white" stroke-width="6.48576" stroke-dasharray="16 4"/>
</g>
<path fill-rule="evenodd" clip-rule="evenodd" d="M16.4428 32.8606H18.1284V25.849C18.1284 24.7762 19.0593 23.9067 20.2076 23.9067H28.076V22.3316V20.7568H20.2076C17.1973 20.7568 14.7571 23.0365 14.7571 25.8486V32.8606H16.4428ZM16.4428 36.3665H18.1284V50.3904H16.4428H14.7571V36.3665H16.4428ZM16.4428 53.8963H18.1284V60.9087C18.1284 61.9814 19.0593 62.8511 20.2076 62.8511H28.076V64.4253V66H20.2076C17.1973 66 14.7571 63.7204 14.7571 60.9083V53.8963H16.4428ZM32.0101 64.4253V62.8511H37.3843C37.8242 63.6547 38.3188 64.4237 38.8629 65.1528L40.2238 64.0555C40.7374 64.7438 41.3001 65.3937 41.9066 66H32.0101V64.4253ZM63.3144 32.8606H61.6289V25.849C61.6289 24.7762 60.6979 23.9067 59.5497 23.9067H51.6812V22.3316V20.7568H59.5496C62.5598 20.7568 65 23.0365 65 25.8486V32.8606H63.3144ZM47.7469 22.3316V23.9067H32.0101V22.3316V20.7568H47.7469V22.3316Z" fill="white"/>
<path d="M74.6205 51.4869C74.6205 47.3699 73.2639 43.5711 70.9836 40.5154L69.7025 41.5485C68.6559 40.1461 67.3935 38.9131 65.9641 37.8984L66.8785 36.5064C63.877 34.3755 60.2104 33.127 56.2616 33.127C52.3127 33.127 48.6462 34.3755 45.6446 36.5064L46.559 37.8984C45.1297 38.9131 43.8672 40.1461 42.8207 41.5485L41.5395 40.5154C39.2592 43.5711 37.9026 47.3699 37.9026 51.4869C37.9026 55.604 39.2592 59.4027 41.5395 62.4585L42.8207 61.4254C43.8672 62.8277 45.1297 64.0607 46.559 65.0755L45.6446 66.4675C48.6462 68.5984 52.3127 69.847 56.2616 69.847C60.2104 69.847 63.877 68.5984 66.8785 66.4675L65.9641 65.0755C67.3935 64.0607 68.6559 62.8277 69.7025 61.4254L70.9836 62.4585C73.2639 59.4027 74.6205 55.604 74.6205 51.4869Z" stroke="white" stroke-width="3.24288" stroke-dasharray="16 4"/>
</svg>
