<svg width="40" height="40" viewBox="0 0 40 40" fill="none" xmlns="http://www.w3.org/2000/svg">
<g clip-path="url(#clip0_23295_3311)">
<path d="M40 0H0V40H40V0Z" fill="#ED7100" fill-opacity="0.12"/>
<path fill-rule="evenodd" clip-rule="evenodd" d="M32 18.1272C31.459 16.3592 30.697 14.5422 29.709 12.6572L32 13.8022V18.1272ZM20.359 22.6462C20.172 22.4512 19.828 22.4512 19.641 22.6462C19.499 22.7922 16.176 26.2692 16.176 29.9062C16.176 30.3972 16.266 30.9362 16.427 31.4622C15.521 30.4592 15 29.0732 15 27.4932C15 22.4432 18.779 17.3062 20 15.7782C21.221 17.3062 25 22.4432 25 27.4932C25 29.0732 24.479 30.4592 23.573 31.4622C23.734 30.9362 23.824 30.3972 23.824 29.9062C23.824 26.2692 20.501 22.7922 20.359 22.6462ZM20 7.23225C21.602 9.01825 28 16.6252 28 24.1712C28 26.4172 27.081 28.5233 25.559 30.0473C25.841 29.2653 26 28.4072 26 27.4932C26 21.1192 20.604 14.9232 20.375 14.6632C20.186 14.4472 19.814 14.4472 19.625 14.6632C19.396 14.9232 14 21.1192 14 27.4932C14 28.4082 14.159 29.2653 14.441 30.0473C12.919 28.5233 12 26.4172 12 24.1712C12 16.6252 18.398 9.01825 20 7.23225ZM8 13.8022L10.291 12.6572C9.303 14.5422 8.541 16.3592 8 18.1272V13.8022ZM21.716 33.9433C21.724 33.9403 21.73 33.9343 21.738 33.9303L21.739 33.9322L32.739 27.9322C32.9 27.8452 33 27.6762 33 27.4932V13.4932C33 13.3042 32.893 13.1312 32.724 13.0462L28.724 11.0462C28.526 10.9472 28.288 10.9892 28.137 11.1502C27.985 11.3102 27.957 11.5512 28.066 11.7422C30.713 16.3572 32 20.5282 32 24.4932V27.1963L27.005 29.9212C28.262 28.3142 29 26.2972 29 24.1712C29 15.1812 20.712 6.51025 20.359 6.14625C20.172 5.95125 19.828 5.95125 19.641 6.14625C19.288 6.51025 11 15.1812 11 24.1712C11 26.2982 11.738 28.3142 12.996 29.9212L8 27.1963V24.4932C8 20.5282 9.287 16.3572 11.934 11.7422C12.043 11.5512 12.015 11.3102 11.863 11.1502C11.712 10.9892 11.474 10.9472 11.276 11.0462L7.276 13.0462C7.107 13.1312 7 13.3042 7 13.4932V27.4932C7 27.6762 7.1 27.8452 7.261 27.9322L18.261 33.9322L18.262 33.9303C18.27 33.9343 18.276 33.9403 18.284 33.9443L18.739 33.0543L18.705 33.0362C17.761 32.5732 17.176 31.0553 17.176 29.9062C17.176 27.3393 19.167 24.7263 20 23.7453C20.833 24.7263 22.824 27.3393 22.824 29.9062C22.824 31.0573 22.237 32.5782 21.29 33.0382L21.261 33.0543L21.716 33.9433Z" fill="#ED7100"/>
</g>
<rect x="0.5" y="0.5" width="39" height="39" stroke="#ED7100"/>
<defs>
<clipPath id="clip0_23295_3311">
<rect width="40" height="40" fill="white"/>
</clipPath>
</defs>
</svg>
