<svg version="1.1" id="Layer_1" xmlns="http://www.w3.org/2000/svg" xmlns:xlink="http://www.w3.org/1999/xlink" x="0px" y="0px"
         viewBox="0 0 14.6 14" style="enable-background:new 0 0 14.6 14;" xml:space="preserve" width='14.6' height='14'>
<style type="text/css">
        .st0{fill-rule:evenodd;clip-rule:evenodd;fill:#FFFFFF;}
</style>
<path class="st0" d="M12.6,5c-1,0-1.7,0.7-1.9,1.6H9.1C9,5.9,8.8,5.3,8.5,4.8L10,3.3C10.4,3.7,10.9,4,11.6,4c1.1,0,2-0.9,2-2
        c0-1.1-0.9-2-2-2c-1.1,0-2,0.9-2,2c0,0.1,0,0.2,0,0.3L7.9,3.9C7.1,3,5.9,2.4,4.6,2.4C2,2.4,0,4.5,0,7s2,4.6,4.6,4.6
        c1.3,0,2.5-0.6,3.4-1.5l1.7,1.7c0,0.1,0,0.2,0,0.3c0,1.1,0.9,2,2,2c1.1,0,2-0.9,2-2c0-1.1-0.9-2-2-2c-0.6,0-1.2,0.3-1.5,0.7L8.5,9.2
        C8.8,8.7,9,8.2,9.1,7.6h1.6c0.2,0.8,1,1.4,1.9,1.4c1.1,0,2-0.9,2-2C14.6,5.9,13.7,5,12.6,5z M11.6,1c0.6,0,1,0.4,1,1
        c0,0.6-0.4,1-1,1c-0.6,0-1-0.4-1-1C10.6,1.4,11,1,11.6,1z M4.6,10.6C2.6,10.6,1,9,1,7c0-2,1.6-3.6,3.6-3.6S8.1,5,8.1,7
        C8.1,9,6.5,10.6,4.6,10.6z M11.6,11c0.6,0,1,0.4,1,1c0,0.6-0.4,1-1,1c-0.6,0-1-0.4-1-1C10.6,11.4,11,11,11.6,11z M12.6,8
        c-0.6,0-1-0.4-1-1c0-0.6,0.4-1,1-1c0.6,0,1,0.4,1,1C13.6,7.6,13.1,8,12.6,8z"/>
</svg>