<svg width="40" height="40" viewBox="0 0 40 40" fill="none" xmlns="http://www.w3.org/2000/svg">
<g clip-path="url(#clip0_23295_3195)">
<path d="M40 0H0V40H40V0Z" fill="#ED7100" fill-opacity="0.12"/>
<path fill-rule="evenodd" clip-rule="evenodd" d="M28 10H30V9H28V10ZM27 8H31V7H27V8ZM28 20H30V19H28V20ZM27 22H31V21H27V22ZM17.825 22.879C17.937 22.785 18 22.646 18 22.5C18 22.354 17.937 22.215 17.825 22.121L10.825 16.121L10.175 16.879L16.731 22.5L10.175 28.121L10.825 28.879L17.825 22.879ZM17 28H27V27H17V28ZM34 32.5V27H33V32.5C33 32.776 32.775 33 32.5 33H7.5C7.225 33 7 32.776 7 32.5V7.5C7 7.224 7.225 7 7.5 7H20V6H7.5C6.673 6 6 6.673 6 7.5V32.5C6 33.327 6.673 34 7.5 34H32.5C33.327 34 34 33.327 34 32.5ZM25 21.113C25 19.969 25.43 18.878 26.21 18.042L32.521 11.283C33.475 10.261 34 8.928 34 7.53V6H33V7.53C33 8.674 32.57 9.765 31.79 10.601L25.479 17.36C24.525 18.382 24 19.714 24 21.113V23H25V21.113ZM31.052 15.787L30.368 16.519L31.79 18.042C32.57 18.878 33 19.969 33 21.113V23H34V21.113C34 19.714 33.475 18.382 32.521 17.36L31.052 15.787ZM25.479 11.283C24.525 10.261 24 8.928 24 7.53V6H25V7.53C25 8.674 25.43 9.765 26.21 10.601L27.632 12.124L26.948 12.856L25.479 11.283Z" fill="#ED7100"/>
</g>
<rect x="0.5" y="0.5" width="39" height="39" stroke="#ED7100"/>
<defs>
<clipPath id="clip0_23295_3195">
<rect width="40" height="40" fill="white"/>
</clipPath>
</defs>
</svg>
