<svg width="90" height="90" viewBox="0 0 90 90" fill="none" xmlns="http://www.w3.org/2000/svg">
<path d="M83.5966 16.3142C83.5966 14.6515 82.8073 13.2155 81.6922 12.0503C80.5854 10.8937 79.0588 9.89158 77.2816 9.02255L76.44 10.7437C75.3487 10.2101 74.1055 9.70657 72.7278 9.23825L73.3445 7.42427C69 5.94743 63.4495 4.83013 57.2103 4.19279L57.0156 6.0988C55.7142 5.96587 54.3795 5.85391 53.0163 5.7643L53.1419 3.8525C50.5169 3.67996 47.7898 3.58908 44.9923 3.58908C42.1948 3.58908 39.4677 3.67996 36.8427 3.8525L36.9683 5.7643C35.6051 5.85391 34.2704 5.96587 32.9691 6.0988L32.7744 4.1928C26.5352 4.83013 20.9846 5.94743 16.6402 7.42427L17.2568 9.23825C15.8792 9.70657 14.6359 10.2101 13.5446 10.7437L12.703 9.02256C10.9258 9.89158 9.39921 10.8937 8.29246 12.0503C7.17737 13.2155 6.38803 14.6515 6.38803 16.3142C6.38803 17.9769 7.17737 19.4129 8.29246 20.5782C9.39921 21.7347 10.9258 22.7368 12.703 23.6059L13.5446 21.8847C14.6359 22.4183 15.8792 22.9219 17.2568 23.3902L16.6402 25.2042C20.9846 26.681 26.5352 27.7983 32.7744 28.4356L32.9691 26.5296C34.2704 26.6626 35.6051 26.7745 36.9684 26.8641L36.8427 28.7759C39.4677 28.9485 42.1948 29.0393 44.9923 29.0393C47.7898 29.0393 50.5169 28.9485 53.1419 28.7759L53.0163 26.8641C54.3795 26.7745 55.7142 26.6626 57.0156 26.5296L57.2103 28.4356C63.4495 27.7983 69.0001 26.681 73.3445 25.2042L72.7278 23.3902C74.1055 22.9219 75.3487 22.4183 76.44 21.8847L77.2816 23.6059C79.0588 22.7368 80.5854 21.7347 81.6922 20.5782C82.8073 19.4129 83.5966 17.9769 83.5966 16.3142Z" stroke="#326CE5" stroke-width="3.83185" stroke-dasharray="16 4"/>
<path fill-rule="evenodd" clip-rule="evenodd" d="M81.6726 57.9649V71.3195C81.6726 72.7321 81.358 73.6243 80.8117 74.0904C78.5476 76.0219 73.8546 77.6987 67.4808 78.8714C61.2194 80.0234 53.6871 80.6301 46.0837 80.6619C38.4807 80.6936 30.8686 80.1503 24.4479 79.0283C17.9343 77.89 12.9617 76.2066 10.3605 74.1636C9.65314 73.608 9.24924 72.5448 9.22328 71.0061L8.99953 57.7467C9.2956 57.9905 9.59645 58.2181 9.89623 58.4296C12.2044 60.0586 15.2955 61.3693 18.7702 62.4065C25.7687 64.4956 35.2082 65.7325 45.4719 65.7325C55.7355 65.7325 65.175 64.4956 72.1735 62.4065C75.6482 61.3693 78.7393 60.0586 81.0475 58.4296C81.256 58.2825 81.465 58.1276 81.6726 57.9649ZM81.6726 50.8206V51.3623C81.1911 57.2069 65.1678 61.9007 45.4719 61.9007C25.4726 61.9007 9.25997 57.0612 9.25997 51.0915C9.25997 45.1217 25.4726 40.2823 45.4719 40.2823C65.1678 40.2823 81.1911 44.976 81.6726 50.8206ZM85.5044 50.6849V16.7839H81.6726V44.2181C81.465 44.0554 81.256 43.9005 81.0475 43.7533C78.7393 42.1244 75.6482 40.8137 72.1735 39.7765C65.175 37.6874 55.7355 36.4504 45.4719 36.4504C35.2082 36.4504 25.7687 37.6874 18.7702 39.7765C15.2955 40.8137 12.2044 42.1244 9.89623 43.7533C9.52137 44.0179 9.14484 44.3075 8.77806 44.6224L8.31568 17.2216L4.48438 17.2862L5.39197 71.0708C5.42533 73.0472 5.93628 75.5612 7.99371 77.1771C11.3934 79.8472 17.1891 81.6497 23.7883 82.8029C30.4802 83.9724 38.3251 84.5262 46.0997 84.4937C53.8739 84.4612 61.6399 83.8422 68.1742 82.64C74.5961 81.4585 80.1959 79.6525 83.2986 77.0056C85.1558 75.4212 85.5044 73.0661 85.5044 71.3195V51.498C85.5118 51.3641 85.5156 51.2286 85.5156 51.0915C85.5156 50.9544 85.5118 50.8189 85.5044 50.6849Z" fill="#326CE5"/>
</svg>
