<svg width="24" height="24" viewBox="0 0 24 24" fill="none" xmlns="http://www.w3.org/2000/svg">
<path fill-rule="evenodd" clip-rule="evenodd" d="M1.5 1.5V22.5H12V1.5H1.5ZM6 7.5H3.8V5.2H6V7.5ZM6 11.2H3.8V9H6V11.2ZM6 15H3.8V12.8H6V15ZM6 18.8H3.8V16.6H6V18.8ZM9.8 7.5H7.5V5.2H9.7V7.5H9.8ZM9.8 11.2H7.5V9H9.7V11.2H9.8ZM9.8 15H7.5V12.8H9.7V15H9.8ZM9.8 18.8H7.5V16.6H9.7V18.8H9.8Z" fill="white"/>
<path fill-rule="evenodd" clip-rule="evenodd" d="M6.80005 1.5V22.5H12V1.5H6.80005ZM9.80005 7.5H7.50005V5.2H9.70005V7.5H9.80005ZM9.80005 11.2H7.50005V9H9.70005V11.2H9.80005ZM9.80005 15H7.50005V12.8H9.70005V15H9.80005ZM9.80005 18.8H7.50005V16.6H9.70005V18.8H9.80005Z" fill="#F0F0F0"/>
<path fill-rule="evenodd" clip-rule="evenodd" d="M12 10.5V22.5H22.5V10.5H12ZM16.5 15H14.3V12.8H16.5V15ZM16.5 18.8H14.3V16.6H16.5V18.8ZM20.2 15H18V12.8H20.2V15ZM20.2 18.8H18V16.6H20.2V18.8Z" fill="white"/>
<path fill-rule="evenodd" clip-rule="evenodd" d="M17.2 10.5V22.5H22.4V10.5H17.2ZM20.2 15H18V12.8H20.2V15ZM20.2 18.8H18V16.6H20.2V18.8Z" fill="#F0F0F0"/>
<path d="M22.5 8.2002H12V10.4002H22.5V8.2002Z" fill="white"/>
<path d="M22.5 10.5H12V11.3H22.5V10.5Z" fill="#F0F0F0"/>
<path d="M12.8 8.2002H12V10.4002H12.8V8.2002Z" fill="#DDDDDD"/>
<path d="M12.8 10.5H12V22.5H12.8V10.5Z" fill="#DDDDDD"/>
</svg>
