<svg width="40" height="40" viewBox="0 0 40 40" fill="none" xmlns="http://www.w3.org/2000/svg">
<g clip-path="url(#clip0_23311_9606)">
<path d="M40 0H0V40H40V0Z" fill="#DD344C" fill-opacity="0.12"/>
<path fill-rule="evenodd" clip-rule="evenodd" d="M11 24.9998H15V21.9998H11V24.9998ZM15.5 25.9998H10.5C10.224 25.9998 10 25.7758 10 25.4998V21.4998C10 21.2238 10.224 20.9998 10.5 20.9998H15.5C15.776 20.9998 16 21.2238 16 21.4998V25.4998C16 25.7758 15.776 25.9998 15.5 25.9998ZM25 28.9998H29V27.9998H25V28.9998ZM20 28.9998H24V27.9998H20V28.9998ZM15 28.9998H19V27.9998H15V28.9998ZM10 28.9998H14V27.9998H10V28.9998ZM33 30.0238V22.9998H32V30.0238C32 31.1138 31.113 31.9998 30.023 31.9998H8.977C7.887 31.9998 7 31.1138 7 30.0238V18.9758C7 17.8858 7.887 16.9998 8.977 16.9998H19V15.9998H8.977C7.335 15.9998 6 17.3348 6 18.9758V30.0238C6 31.6648 7.335 32.9998 8.977 32.9998H30.023C31.665 32.9998 33 31.6648 33 30.0238ZM22.071 9.73679C22.061 9.73679 22.049 9.73679 22.038 9.73779C21.837 9.74679 21.652 9.83279 21.517 9.98079C21.381 10.1288 21.311 10.3208 21.319 10.5218C21.328 10.7228 21.415 10.9078 21.563 11.0428C21.712 11.1788 21.895 11.2508 22.104 11.2398C22.305 11.2308 22.49 11.1448 22.625 10.9968C22.905 10.6908 22.884 10.2138 22.578 9.93379C22.438 9.80579 22.26 9.73679 22.071 9.73679ZM22.069 12.2408C21.631 12.2408 21.214 12.0788 20.888 11.7808C20.543 11.4648 20.341 11.0338 20.32 10.5658C20.3 10.0988 20.463 9.65079 20.778 9.30579C21.095 8.96079 21.526 8.75879 21.993 8.73879C22.464 8.70979 22.908 8.88079 23.254 9.19679C23.966 9.84879 24.015 10.9588 23.363 11.6718C23.047 12.0168 22.615 12.2188 22.147 12.2388C22.122 12.2398 22.096 12.2408 22.069 12.2408ZM30.949 20.6058L32 20.8628V18.7158L25.751 12.8388C25.592 12.6888 25.549 12.4528 25.644 12.2558C26.412 10.6748 26.042 8.73979 24.743 7.55079C23.867 6.74879 22.685 6.37779 21.508 6.53479C20.328 6.69179 19.279 7.36879 18.63 8.39279C17.747 9.78579 17.846 11.6668 18.87 12.9658C19.998 14.3938 21.881 14.8968 23.549 14.2188C23.731 14.1468 23.934 14.1838 24.075 14.3128L25.345 15.4758C25.442 15.5648 25.501 15.6898 25.507 15.8228L25.564 17.1428L26.884 17.0838C27.035 17.0738 27.146 17.1258 27.244 17.2148L28.194 18.0848C28.292 18.1738 28.351 18.2988 28.356 18.4318L28.414 19.7508L29.733 19.6928C29.862 19.6838 29.995 19.7328 30.094 19.8238L30.949 20.6058ZM32.5 21.9998C32.46 21.9998 32.421 21.9948 32.382 21.9858L30.588 21.5478C30.506 21.5278 30.431 21.4878 30.368 21.4308L29.571 20.7008L27.959 20.7718C27.829 20.7788 27.697 20.7308 27.599 20.6418C27.501 20.5518 27.442 20.4268 27.437 20.2948L27.366 18.6828L26.722 18.0928L25.109 18.1638C24.789 18.1798 24.6 17.9608 24.588 17.6858L24.517 16.0738L23.625 15.2568C21.613 15.9288 19.425 15.2808 18.085 13.5848C16.781 11.9328 16.661 9.63079 17.786 7.85679C18.594 6.58279 19.902 5.73979 21.376 5.54379C22.845 5.34879 24.323 5.81079 25.419 6.81379C26.948 8.21479 27.447 10.4448 26.693 12.3518L32.843 18.1358C32.943 18.2298 33 18.3618 33 18.4998V21.4998C33 21.6528 32.93 21.7978 32.809 21.8928C32.72 21.9628 32.61 21.9998 32.5 21.9998Z" fill="#DD344C"/>
</g>
<rect x="0.5" y="0.5" width="39" height="39" stroke="#DD344C"/>
<defs>
<clipPath id="clip0_23311_9606">
<rect width="40" height="40" fill="white"/>
</clipPath>
</defs>
</svg>
