<svg xmlns="http://www.w3.org/2000/svg" viewBox="0 0 104.07 101.62"><defs><style>.a{fill:#fff;}</style></defs><path class="a" d="M53.62,39.89a.44.44,0,0,1-.14-.33V24.33a.47.47,0,0,1,.18-.36.42.42,0,0,1,.28-.1h.11C58.91,25,63.38,30.2,66,37.82a.48.48,0,0,1,0,.37.44.44,0,0,1-.29.22A53.88,53.88,0,0,1,54,40h0A.44.44,0,0,1,53.62,39.89Zm-3.48,3a57.14,57.14,0,0,1-12.57-1.75l-.11,0a.4.4,0,0,0-.24.07.45.45,0,0,0-.21.29,47.15,47.15,0,0,0-1.27,9.32.45.45,0,0,0,.46.48H50.13a.47.47,0,0,0,.46-.46V43.38A.46.46,0,0,0,50.14,42.92Zm0-19H50c-4.87,1.11-9.34,6.32-12,13.93a.47.47,0,0,0,0,.37.44.44,0,0,0,.29.23A54.06,54.06,0,0,0,50.11,40h0a.46.46,0,0,0,.46-.46V24.33a.45.45,0,0,0-.46-.46Zm0,30.33H36.2a.48.48,0,0,0-.34.14.46.46,0,0,0-.12.34A47.15,47.15,0,0,0,37,64a.45.45,0,0,0,.21.29.48.48,0,0,0,.24.06h.11a56.55,56.55,0,0,1,12.57-1.75.46.46,0,0,0,.45-.46V54.66A.47.47,0,0,0,50.13,54.2ZM35.24,68.54a.48.48,0,0,0-.44-.32.45.45,0,0,0-.16,0,30.39,30.39,0,0,0-5,2.28.46.46,0,0,0-.23.31.47.47,0,0,0,.1.38,29.5,29.5,0,0,0,10.41,8,.43.43,0,0,0,.19,0,.46.46,0,0,0,.37-.18.47.47,0,0,0,0-.57A31.66,31.66,0,0,1,35.24,68.54Zm-2.4-17.68A50.87,50.87,0,0,1,34.2,40.6a.46.46,0,0,0-.29-.55,33.58,33.58,0,0,1-6-2.75.55.55,0,0,0-.24-.07.44.44,0,0,0-.39.22A29,29,0,0,0,23,50.82a.47.47,0,0,0,.12.34.45.45,0,0,0,.34.15h8.92A.47.47,0,0,0,32.84,50.86ZM50.13,65.48h0A54,54,0,0,0,38.4,67.1a.46.46,0,0,0-.29.22.48.48,0,0,0,0,.37c2.61,7.62,7.08,12.83,12,13.94h.1a.53.53,0,0,0,.29-.1.46.46,0,0,0,.17-.36V66a.48.48,0,0,0-.14-.34A.48.48,0,0,0,50.13,65.48Zm15.54,1.61A54,54,0,0,0,54,65.48h0a.48.48,0,0,0-.32.13.48.48,0,0,0-.14.34V81.18a.47.47,0,0,0,.18.36.48.48,0,0,0,.28.1h.11c4.86-1.11,9.33-6.32,11.94-13.94a.47.47,0,0,0-.32-.6Zm4.2-26.49a50.16,50.16,0,0,1,1.36,10.26.47.47,0,0,0,.47.45h8.91a.45.45,0,0,0,.34-.15.44.44,0,0,0,.12-.34,29,29,0,0,0-4.29-13.37.44.44,0,0,0-.39-.22.39.39,0,0,0-.23.07,34.24,34.24,0,0,1-6,2.75A.47.47,0,0,0,69.87,40.6ZM95.26,61.94a1.91,1.91,0,0,1-.37,1.61l-23,28.81a1.88,1.88,0,0,1-1.49.71H33.62a1.85,1.85,0,0,1-1.49-.71l-23-28.81a1.91,1.91,0,0,1-.37-1.61L17,26.05a1.9,1.9,0,0,1,1-1.29l33.2-16a1.82,1.82,0,0,1,1.64,0L86,24.74a1.88,1.88,0,0,1,1,1.29ZM84,52.75a32,32,0,1,0-32,32A32,32,0,0,0,84,52.75Zm19.41,13.56L76.16,100.54a2.89,2.89,0,0,1-2.25,1.08H30.16a2.87,2.87,0,0,1-2.24-1.08L.63,66.31a2.85,2.85,0,0,1-.56-2.42L9.79,21.22a2.86,2.86,0,0,1,1.55-1.95L50.8.28a2.93,2.93,0,0,1,2.49,0l39.42,19a2.9,2.9,0,0,1,1.56,1.95L104,63.89A2.85,2.85,0,0,1,103.45,66.31Zm-4.81-5.16-8.2-35.9a5.33,5.33,0,0,0-2.89-3.63l-33.2-16a5.32,5.32,0,0,0-4.64,0l-33.18,16a5.33,5.33,0,0,0-2.89,3.63L5.44,61.15a5.31,5.31,0,0,0,1,4.53l23,28.81a5.3,5.3,0,0,0,4.19,2H70.44a5.32,5.32,0,0,0,4.2-2l23-28.81A5.35,5.35,0,0,0,98.64,61.15ZM67.87,54.2H53.94a.47.47,0,0,0-.46.46v7.47a.46.46,0,0,0,.45.46A56.39,56.39,0,0,1,66.5,64.34h.12a.46.46,0,0,0,.23-.06.49.49,0,0,0,.22-.29,47.91,47.91,0,0,0,1.27-9.32.51.51,0,0,0-.13-.34A.48.48,0,0,0,67.87,54.2Zm6.75-19.54a.45.45,0,0,0-.1-.37,29.27,29.27,0,0,0-10.41-8,.41.41,0,0,0-.19,0,.44.44,0,0,0-.36.18.47.47,0,0,0,0,.57,31.82,31.82,0,0,1,5.28,10,.43.43,0,0,0,.43.31.41.41,0,0,0,.16,0,30,30,0,0,0,5-2.28A.5.5,0,0,0,74.62,34.66Zm6,19.54H71.7a.47.47,0,0,0-.47.45,50.26,50.26,0,0,1-1.36,10.26.47.47,0,0,0,.3.55,33.86,33.86,0,0,1,6,2.75.46.46,0,0,0,.23.06.44.44,0,0,0,.39-.21,29,29,0,0,0,4.29-13.37.42.42,0,0,0-.12-.34A.45.45,0,0,0,80.61,54.2Z"/></svg>
