<svg id="Layer_1" data-name="Layer 1" xmlns="http://www.w3.org/2000/svg" viewBox="0 0 788.94 405.59"><defs><style>.cls-1{fill:#fff;}</style></defs><g id="Layer_2" data-name="Layer 2"><g id="Layer_2-2" data-name="Layer 2-2"><path class="cls-1" d="M388.59114,274.84991h-31.2559V149.16041H311.389V123.17725h121.5311V149.1876h-44.329Z"/><path class="cls-1" d="M482.84806,149.16041H453.72572V123.17725h29.12234Zm0,125.6895H453.72572V162.47815h29.12234Z"/><path class="cls-1" d="M545.27834,274.84991H514.02243V123.17725h31.25591v66.58867l59.3047-66.58867h36.82758L580.8557,188.51568l67.00994,86.36143H610.61679l-49.73762-67.00994-15.60079,16.23948Z"/><path class="cls-1" d="M704.24857,274.84991,653.05685,123.17725h31.419l33.71561,114.24714,33.04973-114.24714h31.419L730.68021,274.84991Z"/><polygon class="cls-1" points="136.696 100.034 51.299 149.323 51.299 198.613 94.011 173.961 94.011 273.206 136.696 297.83 136.696 149.31 179.38 124.672 136.696 100.034"/><polygon class="cls-1" points="179.367 273.219 222.051 248.581 222.051 149.31 221.997 149.283 179.367 173.893 179.367 273.219"/><path class="cls-1" d="M7.43215,122.81032l-1.18229.69306V274.49661L136.99467,350l129.58968-74.81031,1.18229-.69308V123.5034L136.99467,48ZM17.93686,267.75619V130.2438l119.05781-68.763,119.085,68.763V267.75619l-119.085,68.77659Z"/></g></g></svg>