<svg width="40" height="40" viewBox="0 0 40 40" fill="none" xmlns="http://www.w3.org/2000/svg">
<g clip-path="url(#clip0_23296_3465)">
<path d="M40 0H0V40H40V0Z" fill="#C925D1" fill-opacity="0.12"/>
<path fill-rule="evenodd" clip-rule="evenodd" d="M22.9431 9.97777H21.9465V8.98888H22.9431V8H23.9398V8.98888H24.9364V9.97777H23.9398V10.9667H22.9431V9.97777ZM28.923 15.9111H27.9264V14.9222H28.923V13.9333H29.9197V14.9222H30.9164V15.9111H29.9197V16.9H28.923V15.9111ZM26.0268 30.151C25.1228 27.9537 23.0966 25.9532 20.88 25.0711C23.0787 24.1366 25.1168 22.0432 26.0268 19.7865C26.9367 22.0432 28.9749 24.1366 31.1735 25.0711C28.9559 25.9532 26.9307 27.9537 26.0268 30.151ZM33.5017 24.5945C30.3064 24.5945 26.5251 20.6943 26.5251 17.3994C26.5251 17.1264 26.3018 16.9049 26.0268 16.9049C25.7507 16.9049 25.5284 17.1264 25.5284 17.3994C25.5284 20.6943 21.7471 24.5945 18.5519 24.5945C18.2758 24.5945 18.0535 24.816 18.0535 25.0889C18.0535 25.3628 18.2758 25.5834 18.5519 25.5834C21.8119 25.5834 25.5284 29.2709 25.5284 32.5056C25.5284 32.7795 25.7507 33 26.0268 33C26.3018 33 26.5251 32.7795 26.5251 32.5056C26.5251 29.2709 30.2406 25.5834 33.5017 25.5834C33.7768 25.5834 34 25.3628 34 25.0889C34 24.816 33.7768 24.5945 33.5017 24.5945ZM13.4749 11.9555C17.4296 11.9555 19.9532 13.1274 19.9532 13.9333C19.9532 14.7393 17.4296 15.9111 13.4749 15.9111C9.52018 15.9111 6.99665 14.7393 6.99665 13.9333C6.99665 13.1274 9.52018 11.9555 13.4749 11.9555ZM12.8251 21.4162C10.5906 21.4162 8.45476 21.0889 6.99665 20.5391V15.47C8.37602 16.4065 10.9793 16.9 13.4749 16.9C15.9705 16.9 18.5738 16.4065 19.9532 15.47V19.8508C18.817 20.7873 15.9536 21.4162 12.8251 21.4162ZM19.9532 29.0217C19.9532 30.0699 17.1825 31.2428 13.4729 31.2428C9.76636 31.2428 6.99665 30.0699 6.99665 29.0217V26.7819C8.54147 27.3604 10.7182 27.6976 13.0105 27.6976C14.5732 27.6976 16.0941 27.5433 17.4087 27.2516L17.1914 26.2874C15.9466 26.5624 14.5005 26.7087 13.0105 26.7087C10.6364 26.7087 8.42287 26.3359 6.99665 25.7099V21.5922C8.54944 22.1124 10.6185 22.4051 12.8251 22.4051C15.7602 22.4051 18.4273 21.878 19.9532 21.0315V22.8333H20.9498V13.9333C20.9498 12.006 17.0987 10.9667 13.4749 10.9667C9.85107 10.9667 6 12.006 6 13.9333V29.0217C6 31.1063 9.85008 32.2316 13.4729 32.2316C17.0977 32.2316 20.9498 31.1063 20.9498 29.0217V27.7777H19.9532V29.0217Z" fill="#C925D1"/>
</g>
<rect x="0.5" y="0.5" width="39" height="39" stroke="#C925D1"/>
<defs>
<clipPath id="clip0_23296_3465">
<rect width="40" height="40" fill="white"/>
</clipPath>
</defs>
</svg>
