<svg width="40" height="40" viewBox="0 0 40 40" fill="none" xmlns="http://www.w3.org/2000/svg">
<g clip-path="url(#clip0_23296_3501)">
<path d="M40 0H0V40H40V0Z" fill="#C925D1" fill-opacity="0.12"/>
<path fill-rule="evenodd" clip-rule="evenodd" d="M25 22.0362V19.1325C23.919 19.837 22.128 20.2812 20.016 20.2812C17.788 20.2812 16.048 19.8827 15 19.204V22.0362C15 22.7636 16.918 23.5496 20.016 23.5496C23.136 23.5496 25 22.7805 25 22.0362ZM25 26.1552V23.5327C23.983 24.1707 22.245 24.5433 20.016 24.5433C17.771 24.5433 16.021 24.1697 15 23.5297V26.1552C15 26.8468 16.786 27.8485 20.016 27.8485C23.225 27.8485 25 26.8468 25 26.1552ZM25 29.9641V27.7223C23.965 28.4189 22.194 28.8422 20.016 28.8422C17.822 28.8422 16.04 28.4169 15 27.7193V29.9641C15 30.6846 16.904 32.0063 20.016 32.0063C23.107 32.0063 25 30.6846 25 29.9641ZM14.903 17.5047C14.903 18.3812 16.815 19.2875 20.016 19.2875C23.117 19.2875 25.097 18.2322 25.097 17.5047C25.097 16.8499 23.331 15.9426 20.016 15.9426C16.849 15.9426 14.903 16.8529 14.903 17.5047ZM26.097 17.5047C26.097 17.6776 26.061 17.8456 26 18.0076V29.9641C26 31.6098 23.26 33 20.016 33C16.755 33 14 31.6098 14 29.9641V18.0344C13.943 17.8645 13.903 17.6896 13.903 17.5047C13.903 15.7488 17.071 14.9489 20.016 14.9489C23.043 14.9489 26.097 15.7389 26.097 17.5047ZM33.5 11.4718C33.776 11.4718 34 11.2502 34 10.9749V7.49687C34 7.2226 33.776 7 33.5 7H6.5C6.224 7 6 7.2226 6 7.49687V10.9749C6 11.2502 6.224 11.4718 6.5 11.4718C7.052 11.4718 7.5 11.918 7.5 12.4655C7.5 13.0131 7.052 13.4593 6.5 13.4593C6.224 13.4593 6 13.6819 6 13.9561V23.3966C6 23.6718 6.224 23.8934 6.5 23.8934H8H9H12V22.8997H9V21.906H12V20.9122H8.5C8.224 20.9122 8 21.1348 8 21.4091V22.8997H7V14.3904C7.861 14.1688 8.5 13.3897 8.5 12.4655C8.5 11.5414 7.861 10.7623 7 10.5417V7.99373H33V10.5417C32.139 10.7623 31.5 11.5414 31.5 12.4655C31.5 13.3897 32.139 14.1688 33 14.3904V22.8997H32V21.4091C32 21.1348 31.776 20.9122 31.5 20.9122H28V21.906H31V22.8997H28V23.8934H31H32H33.5C33.776 23.8934 34 23.6718 34 23.3966V13.9561C34 13.6819 33.776 13.4593 33.5 13.4593C32.948 13.4593 32.5 13.0131 32.5 12.4655C32.5 11.918 32.948 11.4718 33.5 11.4718ZM12.5 9.9812H10.5C10.224 9.9812 10 10.2038 10 10.4781V18.4279C10 18.7032 10.224 18.9248 10.5 18.9248H12V17.931H11V10.9749H12V13.9561H13V10.4781C13 10.2038 12.776 9.9812 12.5 9.9812ZM28 17.931V18.9248H29.5C29.776 18.9248 30 18.7032 30 18.4279V10.4781C30 10.2038 29.776 9.9812 29.5 9.9812H27.5C27.224 9.9812 27 10.2038 27 10.4781V13.9561H28V10.9749H29V17.931H28ZM25 12.9624V10.4781C25 10.2038 24.776 9.9812 24.5 9.9812H21.5C21.224 9.9812 21 10.2038 21 10.4781V12.9624H22V10.9749H24V12.9624H25ZM18 12.9624V10.9749H16V12.9624H15V10.4781C15 10.2038 15.224 9.9812 15.5 9.9812H18.5C18.776 9.9812 19 10.2038 19 10.4781V12.9624H18Z" fill="#C925D1"/>
</g>
<rect x="0.5" y="0.5" width="39" height="39" stroke="#C925D1"/>
<defs>
<clipPath id="clip0_23296_3501">
<rect width="40" height="40" fill="white"/>
</clipPath>
</defs>
</svg>
