<svg width="187" height="183" viewBox="0 0 187 183" fill="none" xmlns="http://www.w3.org/2000/svg">
<path d="M96 43.1205V86.6977L134.522 64.795L96 43.1205Z" fill="#00D3A9"/>
<path d="M96 95.8217V139.741L134.871 117.838L96 95.8217Z" fill="#00D3A9"/>
<path d="M90.4311 86.47V43.4632L52.375 64.9096L90.4311 86.47Z" fill="#00B39F"/>
<path d="M13.9902 139.513C21.4386 151.263 31.5637 161.302 43.5509 168.717V122.744L13.9902 139.513Z" fill="#00B39F"/>
<path d="M90.4226 139.514V96.165L52.25 117.84L90.4226 139.514Z" fill="#00B39F"/>
<path d="M49.082 165.979L87.7199 144.304L49.082 122.402V165.979Z" fill="#00D3A9"/>
<path d="M137.573 166.209V122.632L98.9355 144.306L137.573 166.209Z" fill="#00B39F"/>
<path d="M175.398 134.495C182.032 122.403 185.756 109.056 186.338 95.3671L146.07 117.954L175.398 134.495Z" fill="#00B39F"/>
<path d="M143.133 113.278L182.004 91.489L143.133 69.7004V113.278Z" fill="#00D3A9"/>
<path d="M137.558 60.2307V16.9957L99.1523 38.5562L137.558 60.2307Z" fill="#00B39F"/>
<path d="M137.551 113.05V69.4731L99.0293 91.2618L137.551 113.05Z" fill="#00B39F"/>
<path d="M49.082 69.3577V113.391L87.9529 91.2604L49.082 69.3577Z" fill="#00D3A9"/>
<path d="M90.4324 0C76.1177 0.342229 62.1522 3.99268 49.4668 10.6091L90.4324 33.6526V0Z" fill="#00B39F"/>
<path d="M49.082 16.6542V60.4595L87.9529 38.5569L49.082 16.6542Z" fill="#00D3A9"/>
<path d="M43.5509 14.0308C31.5637 21.4457 21.4386 31.3704 13.9902 43.2343L43.5509 60.0036V14.1448V14.0308Z" fill="#00B39F"/>
<path d="M137.315 10.8373C124.629 4.10674 110.431 0.456306 96 0V33.9948L137.315 10.8373Z" fill="#00D3A9"/>
<path d="M0 94.568C0.46552 108.713 4.30596 122.403 11.1724 134.837L41.0821 117.84L0 94.568Z" fill="#00D3A9"/>
<path d="M11.1724 47.9097C4.30596 60.23 0.5819 74.0333 0 88.0647L41.0821 64.9071L11.0559 47.9097H11.1724Z" fill="#00D3A9"/>
<path d="M49.4668 172.027C62.1522 178.644 76.1177 182.294 90.4324 182.637V148.984L49.4668 171.913V172.027Z" fill="#00B39F"/>
<path d="M172.46 43.3476C165.012 31.5977 155.004 21.6731 143.133 14.2581V60.0028L172.46 43.3476Z" fill="#00D3A9"/>
<path d="M143.133 168.605C155.12 161.19 165.129 151.151 172.577 139.287L143.133 122.632V168.719V168.605Z" fill="#00D3A9"/>
<path d="M186.417 87.7237C185.835 73.8064 182.11 60.2313 175.36 48.0251L145.684 64.7943L186.417 87.7237Z" fill="#00B39F"/>
<path d="M96 182.75C110.315 182.408 124.28 178.757 136.966 172.141L96 148.869V182.75Z" fill="#00D3A9"/>
<path d="M43.5535 112.936V69.8147L5.38086 91.2611L43.5535 112.936Z" fill="#00B39F"/>
</svg>
