<svg width="40" height="40" viewBox="0 0 40 40" xmlns="http://www.w3.org/2000/svg">  <g id="Icon-Architecture/32/Arch_AWS-IoT-ExpressLink_32" stroke="none" stroke-width="1" fill="none" fill-rule="evenodd">  <g id="Icon-Service/32/AWS-IoT-ExpressLink_32" transform="translate(6.050000, 5.950000)" fill="#FFFFFF"> <path d="M25.359,8.14488474 C24.693,7.73688474 23.917,7.41788474 23.176,7.24688474 C22.962,5.56488474 22.04,4.33088474 20.666,3.91488474 C19.615,3.59788474 18.507,3.82888474 17.669,4.50088474 C17.237,3.57788474 16.672,2.77988474 15.985,2.12288474 C13.771,0.00488473662 10.743,-0.568115263 7.886,0.583884737 C5.438,1.57188474 3.592,4.30688474 3.592,6.94488474 C3.592,7.08888474 3.596,7.23188474 3.605,7.37388474 C2.266,7.79788474 0,8.99388474 0,12.2138847 C0,15.1338847 1.355,16.3828847 2.164,16.8668847 C2.588,17.1218847 3.679,17.5778847 4.341,17.5788847 L5.145,17.5788847 L5.145,16.5788847 L4.341,16.5788847 C3.972,16.5778847 3.091,16.2578847 2.677,16.0098847 C1.912,15.5508847 1,14.5198847 1,12.2138847 C1,9.43688474 3.043,8.52588474 4.26,8.22988474 C4.507,8.16988474 4.671,7.93388474 4.638,7.68088474 C4.608,7.43988474 4.592,7.19388474 4.592,6.94488474 C4.592,4.72788474 6.204,2.34188474 8.261,1.51188474 C10.741,0.506884737 13.373,1.00788474 15.294,2.84488474 C16.042,3.56088474 16.625,4.47388474 17.028,5.55988474 C17.091,5.72988474 17.242,5.85288474 17.422,5.87988474 C17.592,5.90588474 17.781,5.83488474 17.892,5.69188474 C18.492,4.91688474 19.466,4.59588474 20.376,4.87188474 C21.425,5.18988474 22.111,6.22688474 22.209,7.57688474 C22.186,7.70788474 22.217,7.84288474 22.295,7.95188474 C22.372,8.06088474 22.49,8.13388474 22.621,8.15488474 C23.35,8.27388474 24.157,8.58088474 24.836,8.99788474 C26.692,10.1348847 26.907,11.3168847 26.907,12.1068847 C26.907,16.3628847 23.053,16.5718847 22.889,16.5788847 L22.926,17.5778847 C22.976,17.5768847 27.907,17.3378847 27.907,12.1068847 C27.907,10.4918847 27.073,9.19588474 25.359,8.14488474 L25.359,8.14488474 Z M19.936,10.9918847 C19.936,10.4848847 19.523,10.0718847 19.016,10.0718847 L18.936,10.0718847 L18.936,8.07188474 L17.936,8.07188474 L17.936,10.0718847 L15.936,10.0718847 L15.936,8.07188474 L14.936,8.07188474 L14.936,10.0718847 L12.936,10.0718847 L12.936,8.07188474 L11.936,8.07188474 L11.936,10.0718847 L9.936,10.0718847 L9.936,8.07188474 L8.936,8.07188474 L8.936,10.0718847 L8.856,10.0718847 C8.349,10.0718847 7.936,10.4848847 7.936,10.9918847 L7.936,11.0718847 L5.936,11.0718847 L5.936,12.0718847 L7.936,12.0718847 L7.936,14.0718847 L5.936,14.0718847 L5.936,15.0718847 L7.936,15.0718847 L7.936,17.0718847 L5.936,17.0718847 L5.936,18.0718847 L7.936,18.0718847 L7.936,20.0718847 L5.936,20.0718847 L5.936,21.0718847 L7.936,21.0718847 L7.936,21.1518847 C7.936,21.6598847 8.349,22.0718847 8.856,22.0718847 L10.936,22.0718847 L10.936,21.0718847 L8.936,21.0718847 L8.936,11.0718847 L18.936,11.0718847 L18.936,21.0718847 L13.936,21.0718847 L13.936,22.0718847 L19.016,22.0718847 C19.523,22.0718847 19.936,21.6598847 19.936,21.1518847 L19.936,21.0718847 L21.936,21.0718847 L21.936,20.0718847 L19.936,20.0718847 L19.936,18.0718847 L21.936,18.0718847 L21.936,17.0718847 L19.936,17.0718847 L19.936,15.0718847 L21.936,15.0718847 L21.936,14.0718847 L19.936,14.0718847 L19.936,12.0718847 L21.936,12.0718847 L21.936,11.0718847 L19.936,11.0718847 L19.936,10.9918847 Z M17.936,26.0718847 L18.936,26.0718847 L18.936,23.0718847 L17.936,23.0718847 L17.936,26.0718847 Z M14.936,27.0718847 L15.936,27.0718847 L15.936,24.0718847 L14.936,24.0718847 L14.936,27.0718847 Z M11.936,26.0718847 L12.936,26.0718847 L12.936,19.0718847 L11.936,19.0718847 L11.936,26.0718847 Z M8.936,28.0718847 L9.936,28.0718847 L9.936,23.0718847 L8.936,23.0718847 L8.936,28.0718847 Z" id="Fill-4"></path> </g> </g></svg>