<svg width="40" height="40"  viewBox="0 0 40 40" xmlns="http://www.w3.org/2000/svg">  <g id="Icon-Architecture/32/Arch_Amazon-AppFlow_32" stroke="none" stroke-width="1" fill="none" fill-rule="evenodd">  <g id="Icon-Service/32/Amazon-AppFlow_32" transform="translate(6.000000, 9.000000)" fill="#FFFFFF"> <path d="M23.293,0 L14.64,0 L7.109,12.661 L6.593,10.732 L5.626,10.991 L6.396,13.861 L6.334,13.965 L6.44,14.028 L6.579,14.547 L7.085,14.411 L7.193,14.476 L7.259,14.365 L10.135,13.594 L9.877,12.628 L7.991,13.133 L15.208,1 L22.715,1 L26.469,7.5 L22.715,14 L18.804,14 L18.804,15 L23.293,15 L27.623,7.5 L23.293,0 Z M20.11,9.38 L12.991,22 L4.33,22 L0,14.5 L4.33,7 L7.804,7 L7.804,8 L4.908,8 L1.154,14.5 L4.908,21 L12.407,21 L19.258,8.855 L17.331,9.372 L17.073,8.406 L19.945,7.636 L20.003,7.534 L20.107,7.593 L20.629,7.453 L20.767,7.964 L20.874,8.025 L20.812,8.135 L21.583,11.009 L20.616,11.268 L20.11,9.38 Z" id="Amazon-AppFlow_32"></path> </g> </g></svg>