<svg width="40" height="40" viewBox="0 0 40 40" fill="none" xmlns="http://www.w3.org/2000/svg">
<g clip-path="url(#clip0_23296_3517)">
<path d="M40 0H0V40H40V0Z" fill="#C925D1" fill-opacity="0.12"/>
<path fill-rule="evenodd" clip-rule="evenodd" d="M32.5 30C32.225 30 32 29.776 32 29.5C32 29.224 32.225 29 32.5 29C32.775 29 33 29.224 33 29.5C33 29.776 32.775 30 32.5 30ZM28 33C27.448 33 27 32.551 27 32C27 31.449 27.448 31 28 31C28.552 31 29 31.449 29 32C29 32.551 28.552 33 28 33ZM25 24C25 22.897 25.897 22 27 22C28.103 22 29 22.897 29 24C29 25.103 28.103 26 27 26C25.897 26 25 25.103 25 24ZM22.5 20C22.225 20 22 19.776 22 19.5C22 19.224 22.225 19 22.5 19C22.775 19 23 19.224 23 19.5C23 19.776 22.775 20 22.5 20ZM32 16C32.552 16 33 16.449 33 17C33 17.551 32.552 18 32 18C31.448 18 31 17.551 31 17C31 16.449 31.448 16 32 16ZM21 27C20.448 27 20 26.551 20 26C20 25.449 20.448 25 21 25C21.552 25 22 25.449 22 26C22 26.551 21.552 27 21 27ZM32.5 28C31.673 28 31 28.673 31 29.5C31 29.621 31.019 29.738 31.046 29.851L29.608 30.823C29.285 30.382 28.787 30.084 28.216 30.022L28.01 26.812C29.166 26.396 30 25.298 30 24C30 23.242 29.708 22.557 29.243 22.028L31.369 18.888C31.568 18.955 31.778 19 32 19C33.103 19 34 18.103 34 17C34 15.897 33.103 15 32 15C30.897 15 30 15.897 30 17C30 17.52 30.204 17.989 30.529 18.345L28.463 21.397C28.028 21.152 27.534 21 27 21C26.407 21 25.857 21.178 25.393 21.476L23.918 19.968C23.967 19.82 24 19.665 24 19.5C24 18.673 23.327 18 22.5 18C21.673 18 21 18.673 21 19.5C21 20.327 21.673 21 22.5 21C22.794 21 23.066 20.912 23.299 20.765L24.654 22.152C24.251 22.663 24 23.3 24 24C24 24.128 24.022 24.25 24.038 24.374L22.502 24.693C22.135 24.272 21.602 24 21 24C19.897 24 19 24.897 19 26C19 27.103 19.897 28 21 28C22.103 28 23 27.103 23 26C23 25.87 22.985 25.743 22.962 25.619L24.328 25.335C24.821 26.318 25.828 27 27 27C27.007 27 27.014 26.998 27.02 26.998L27.223 30.158C26.505 30.461 26 31.173 26 32C26 33.103 26.897 34 28 34C29.103 34 30 33.103 30 32C30 31.925 29.986 31.854 29.978 31.78L31.594 30.687C31.847 30.88 32.158 31 32.5 31C33.327 31 34 30.327 34 29.5C34 28.673 33.327 28 32.5 28ZM15 7C19.715 7 23 8.581 23 10C23 11.419 19.715 13 15 13C10.285 13 7 11.419 7 10C7 8.581 10.285 7 15 7ZM23 29.642C23 30.996 19.715 32.504 15 32.504C10.285 32.504 7 30.996 7 29.642V25.574C8.642 26.931 12.07 27.704 15.425 27.704C16.261 27.704 17.106 27.656 17.937 27.563L17.825 26.569C17.031 26.658 16.224 26.704 15.425 26.704C10.603 26.704 7 25.16 7 23.78V18.85C8.642 20.207 12.07 20.979 15.425 20.979C17.127 20.979 18.78 20.787 20.205 20.424L19.959 19.455C18.612 19.798 17.045 19.979 15.425 19.979C10.603 19.979 7 18.436 7 17.057V11.887C8.469 13.164 11.426 14 15 14C18.574 14 21.531 13.164 23 11.887V17H24V10C24 7.72 20.131 6 15 6C9.869 6 6 7.72 6 10V29.642C6 31.844 9.869 33.504 15 33.504C20.131 33.504 24 31.844 24 29.642V27H23V29.642Z" fill="#C925D1"/>
</g>
<rect x="0.5" y="0.5" width="39" height="39" stroke="#C925D1"/>
<defs>
<clipPath id="clip0_23296_3517">
<rect width="40" height="40" fill="white"/>
</clipPath>
</defs>
</svg>
