<svg width="40" height="40" viewBox="0 0 40 40" fill="none" xmlns="http://www.w3.org/2000/svg">
<g clip-path="url(#clip0_23293_2670)">
<path d="M40 0H0V40H40V0Z" fill="#8C4FFF" fill-opacity="0.12"/>
<path fill-rule="evenodd" clip-rule="evenodd" d="M27 29V15.782L25 14.452V29H27ZM24 29V13.787L22 12.457V29H24ZM21 29V11.792L20 11.127L19 11.792V29H21ZM18 29V12.457L16 13.787V29H18ZM15 29V14.452L13 15.782V29H15ZM31 30H9V29H12V16.447L9.754 17.94L9.2 17.107L19.723 10.11C19.891 9.999 20.109 9.999 20.277 10.11L30.8 17.107L30.246 17.94L28 16.447V29H31V30ZM8 32H13V31H8V32ZM15 32H25V31H15V32ZM27 32H32V31H27V32ZM6 34H19V33H6V34ZM21 34H34V33H21V34ZM7.277 16.083L6.723 15.25L19.723 6.584C19.891 6.472 20.109 6.472 20.277 6.584L33.277 15.25L32.723 16.083L20 7.601L7.277 16.083Z" fill="#8C4FFF"/>
</g>
<rect x="0.5" y="0.5" width="39" height="39" stroke="#8C4FFF"/>
<defs>
<clipPath id="clip0_23293_2670">
<rect width="40" height="40" fill="white"/>
</clipPath>
</defs>
</svg>
