<svg width="40" height="40" viewBox="0 0 40 40" xmlns="http://www.w3.org/2000/svg">  <g id="Icon-Architecture/32/Arch_AWS-Verified-Access_32" stroke="none" stroke-width="1" fill="none" fill-rule="evenodd">  <path d="M16.173,31.531 L15.827,32.469 C12.509,31.243 9.851,28.587 8.533,25.18 L9.467,24.82 C10.68,27.959 13.125,30.405 16.173,31.531 L16.173,31.531 Z M9.467,16.18 L8.533,15.82 C9.851,12.414 12.509,9.757 15.827,8.531 L16.173,9.469 C13.125,10.596 10.68,13.042 9.467,16.18 L9.467,16.18 Z M31.533,24.82 L32.467,25.18 C31.15,28.587 28.491,31.243 25.173,32.469 L24.827,31.531 C27.875,30.405 30.32,27.959 31.533,24.82 L31.533,24.82 Z M20.5,33 C19.673,33 19,32.327 19,31.5 C19,30.673 19.673,30 20.5,30 C21.327,30 22,30.673 22,31.5 C22,32.327 21.327,33 20.5,33 L20.5,33 Z M20.5,29 C19.121,29 18,30.122 18,31.5 C18,32.879 19.121,34 20.5,34 C21.879,34 23,32.879 23,31.5 C23,30.122 21.879,29 20.5,29 L20.5,29 Z M8.5,22 C7.673,22 7,21.327 7,20.5 C7,19.673 7.673,19 8.5,19 C9.327,19 10,19.673 10,20.5 C10,21.327 9.327,22 8.5,22 L8.5,22 Z M11,20.5 C11,19.122 9.879,18 8.5,18 C7.121,18 6,19.122 6,20.5 C6,21.879 7.121,23 8.5,23 C9.879,23 11,21.879 11,20.5 L11,20.5 Z M24.827,9.469 L25.173,8.531 C28.491,9.757 31.15,12.414 32.467,15.82 L31.533,16.18 C30.32,13.042 27.875,10.596 24.827,9.469 L24.827,9.469 Z M20.5,7 C21.327,7 22,7.673 22,8.5 C22,9.327 21.327,10 20.5,10 C19.673,10 19,9.327 19,8.5 C19,7.673 19.673,7 20.5,7 L20.5,7 Z M20.5,11 C21.879,11 23,9.879 23,8.5 C23,7.122 21.879,6 20.5,6 C19.121,6 18,7.122 18,8.5 C18,9.879 19.121,11 20.5,11 L20.5,11 Z M31.5,22 C30.673,22 30,21.327 30,20.5 C30,19.673 30.673,19 31.5,19 C32.327,19 33,19.673 33,20.5 C33,21.327 32.327,22 31.5,22 L31.5,22 Z M31.5,18 C30.121,18 29,19.122 29,20.5 C29,21.879 30.121,23 31.5,23 C32.879,23 34,21.879 34,20.5 C34,19.122 32.879,18 31.5,18 L31.5,18 Z M19.212,23.666 L17.098,21.677 L17.783,20.948 L19.257,22.335 L22.683,19.519 L23.318,20.291 L19.212,23.666 Z M17,15.269 C17,14.57 17.747,14 18.666,14 L21.334,14 C22.253,14 23,14.57 23,15.269 L23,17 L17,17 L17,15.269 Z M25,18.055 L25,24.946 C25,24.976 24.976,25 24.945,25 L15,24.946 L15.055,18 L25,18.055 Z M16,17 L15.055,17 C14.473,17 14,17.473 14,18.055 L14,24.946 C14,25.527 14.473,26 15.055,26 L24.945,26 C25.527,26 26,25.527 26,24.946 L26,18.055 C26,17.473 25.527,17 24.945,17 L24,17 L24,15.269 C24,14.018 22.804,13 21.334,13 L18.666,13 C17.196,13 16,14.018 16,15.269 L16,17 Z" id="Fill-6" fill="#FFFFFF"></path> </g></svg>