<svg xmlns="http://www.w3.org/2000/svg" viewBox="0 0 239 272.87"><defs><style>.cls-1{fill:#fff;}.cls-2{fill:#006eff;}</style></defs><g id="Layer_2" data-name="Layer 2"><g id="Layer_1-2" data-name="Layer 1"><path class="cls-1" d="M118.72,22.67a5.14,5.14,0,0,1,0-2A5.33,5.33,0,0,0,118.72,22.67Z"/><path class="cls-1" d="M118.66,48.45c-.08.15-.17.3-.26.45.1-.15.18-.3.27-.45s.09-.18.13-.27Zm0-9.54c-.09-.15-.17-.3-.27-.45.09.15.18.3.26.45s.19.36.28.55C118.86,39.27,118.76,39.09,118.67,38.91Z"/><path class="cls-2" d="M233.92,64.49,124.56,1.36a10.11,10.11,0,0,0-10.12,0L5.08,64.49A10.12,10.12,0,0,0,0,73.27V199.58a10.11,10.11,0,0,0,5.08,8.79L114.44,271.5a10.06,10.06,0,0,0,10.12,0l109.36-63.13a10.11,10.11,0,0,0,5.08-8.79V73.27A10.21,10.21,0,0,0,233.92,64.49Z"/><path class="cls-1" d="M54.06,137.09a5.31,5.31,0,0,0,3.84-9l-18.53-19.5L61,71.39H93.69a5.5,5.5,0,1,0,0-11H58.2a5.5,5.5,0,0,0-5.06,3.34s0,0,0,0l-25,43a5.59,5.59,0,0,0-.3.6,5,5,0,0,0-.18.5c-.05.17-.09.34-.13.52a5.28,5.28,0,0,0,0,2c0,.12.05.24.08.36s0,.12,0,.16l.15.43a4.84,4.84,0,0,0,.21.47,4.1,4.1,0,0,0,.23.4l.06.1a4.77,4.77,0,0,0,.6.76l.13.14,21.15,22.23A5.28,5.28,0,0,0,54.06,137.09Z"/><path class="cls-1" d="M94.7,167.53a5.32,5.32,0,0,0-7.26,1.93L74.31,192.11H34.85a5.5,5.5,0,1,0,0,11H76.83a.22.22,0,0,0,.11,0,.62.62,0,0,0,.19,0,5.27,5.27,0,0,0,4.6-2.65l14.9-25.66A5.32,5.32,0,0,0,94.7,167.53Z"/><path class="cls-1" d="M200.15,192.11h-70L103.43,146l.09-.09a20,20,0,0,0,5-8.51h51.37a5.5,5.5,0,1,0,0-11H108.58a19.94,19.94,0,0,0-5.06-8.72l-.09-.1,26.8-46.18h70a5.5,5.5,0,1,0,0-11H127.62a4.83,4.83,0,0,0-.94.1l-.28,0a.07.07,0,0,0-.06,0,5.25,5.25,0,0,0-3.58,2.54L94.21,112.3a19.3,19.3,0,0,0-5-.65,20.13,20.13,0,0,0,0,40.25,19.73,19.73,0,0,0,5-.64l28.55,49.2a5.28,5.28,0,0,0,4.6,2.65.3.3,0,0,0,.13,0s0,0,.05,0a.22.22,0,0,0,.11,0h72.53a5.52,5.52,0,0,0,5.21-7.31A5.45,5.45,0,0,0,200.15,192.11ZM98.87,133.88c-.05.2-.1.4-.17.61s-.2.57-.32.85-.17.37-.26.55l-.14.28-.26.44a10,10,0,0,1-8.53,4.78H89a10,10,0,0,1,0-20h.23a9.94,9.94,0,0,1,7,2.82c.08.09.16.15.23.23a9.48,9.48,0,0,1,1.34,1.74c.09.14.18.3.26.44s.19.37.28.56.16.35.24.55a11.24,11.24,0,0,1,.38,1.16,10.25,10.25,0,0,1,.31,2.5A9.71,9.71,0,0,1,98.87,133.88Z"/></g></g></svg>