<svg width="40" height="40" viewBox="0 0 40 40" fill="none" xmlns="http://www.w3.org/2000/svg">
<g clip-path="url(#clip0_23298_3883)">
<path d="M40 0H0V40H40V0Z" fill="#01A88D" fill-opacity="0.12"/>
<path fill-rule="evenodd" clip-rule="evenodd" d="M20.0474 19.0421H24.061V18.039H20.0474V19.0421ZM21.0508 25.0605H22.0542V23.0544H21.0508V25.0605ZM14.0271 16.0328H16.0339V15.0297H14.0271V16.0328ZM8.00677 22.0513H16.0339V21.0482H8.00677V22.0513ZM8.00677 19.0421H19.044V18.039H8.00677V19.0421ZM19.044 26.0636H20.0474V22.0513H19.044V26.0636ZM29.0779 26.0636H30.0813V22.0513H29.0779V26.0636ZM27.0711 28.0698H28.0745V21.0482H27.0711V28.0698ZM25.0644 27.0667H26.0677V21.0482H25.0644V27.0667ZM23.0576 26.0636H24.061V22.0513H23.0576V26.0636ZM33.9283 33.0581L31.6165 28.5372C32.4202 27.2111 32.8426 25.6865 32.8426 24.1096C32.8426 19.338 28.9625 15.457 24.1924 15.457C23.4208 15.457 22.6572 15.5574 21.9228 15.757L22.1856 16.7249C22.8338 16.5494 23.5091 16.4601 24.1924 16.4601C28.4087 16.4601 31.8392 19.8917 31.8392 24.1096C31.8392 25.5912 31.4178 27.0186 30.6201 28.2373C30.5218 28.3878 30.5118 28.5794 30.594 28.7398L32.5426 32.5516L28.6665 30.6126C28.512 30.5344 28.3294 30.5424 28.1809 30.6327C26.9738 31.3659 25.5941 31.7541 24.1924 31.7541C20.3856 31.7541 17.1266 28.9174 16.6118 25.1548L15.6185 25.2902C16.2004 29.5473 19.8869 32.7572 24.1924 32.7572C25.6855 32.7572 27.1554 32.369 28.4608 31.6307L33.0664 33.9358C33.1557 33.9789 33.253 34 33.3493 34C33.5219 34 33.6925 33.9308 33.8179 33.8004C34.0116 33.6008 34.0547 33.3009 33.9283 33.0581ZM8.00677 16.0328H12.0203V15.0297H8.00677V16.0328ZM15.0305 11.0174H19.1634L15.0305 7.57283V11.0174ZM7.00339 20.0451H6V6.50355C6 6.2267 6.22476 6.00201 6.50169 6.00201L14.5288 6C14.6442 6 14.7586 6.03912 14.8499 6.11636L20.8702 11.1338C20.9866 11.2311 21.0508 11.3735 21.0508 11.519V14.0267H20.0474V12.0205H14.5288C14.2519 12.0205 14.0271 11.7968 14.0271 11.519V7.00308L7.00339 7.00509V20.0451ZM7.00339 27.0667H15.0305V28.0698H6.50169C6.22476 28.0698 6 27.8461 6 27.5682V23.0544H7.00339V27.0667Z" fill="#01A88D"/>
</g>
<rect x="0.5" y="0.5" width="39" height="39" stroke="#01A88D"/>
<defs>
<clipPath id="clip0_23298_3883">
<rect width="40" height="40" fill="white"/>
</clipPath>
</defs>
</svg>
