<svg width="418" height="410" viewBox="0 0 418 410" fill="none" xmlns="http://www.w3.org/2000/svg">
<path fill-rule="evenodd" clip-rule="evenodd" d="M11.3799 251.88L173.577 406L413.858 293.845L207.874 197.512L11.3799 251.88Z" fill="#ffffff" stroke="black" stroke-width="7.44591" stroke-linejoin="round"/>
<path fill-rule="evenodd" clip-rule="evenodd" d="M3.95703 40.1674L11.3796 251.881L207.873 197.512L201.657 20.2031L3.95703 40.1674Z" fill="#ffffff" stroke="black" stroke-width="7.44591" stroke-linejoin="round"/>
<path fill-rule="evenodd" clip-rule="evenodd" d="M201.656 20.2031L405.077 43.4347L413.857 293.846L207.873 197.512L201.656 20.2031Z" fill="#E9E9FF" stroke="black" stroke-width="7.44591" stroke-linejoin="round"/>
<path fill-rule="evenodd" clip-rule="evenodd" d="M3.95703 40.1674L162.182 81.0016L405.078 43.4347L201.657 20.2031L3.95703 40.1674Z" fill="#ffffff" stroke="black" stroke-width="7.44591" stroke-linejoin="round"/>
<path fill-rule="evenodd" clip-rule="evenodd" d="M162.183 81.0024L173.577 406.001L413.858 293.847L405.078 43.4355L162.183 81.0024Z" fill="#ffffff" stroke="black" stroke-width="7.44591" stroke-linejoin="round"/>
<path fill-rule="evenodd" clip-rule="evenodd" d="M3.95703 40.168L162.182 81.0021L173.577 406.001L11.3796 251.881L3.95703 40.168Z" fill="#ffffff" stroke="black" stroke-width="7.44591" stroke-linejoin="round"/>
<path d="M20.2646 102.494C20.2646 102.494 40.8283 60.1484 83.1653 103.704C103.751 124.882 118.245 148.47 137.599 117.013" stroke="black" stroke-width="11.1689"/>
<path d="M20.2646 130.42C20.2646 130.42 40.8283 88.0741 83.1653 131.63C103.751 152.808 118.245 176.396 137.599 144.939" stroke="black" stroke-width="11.1689"/>
<path d="M20.2646 158.344C20.2646 158.344 40.8283 115.998 83.1653 159.554C103.751 180.732 118.245 204.32 137.599 172.863" stroke="black" stroke-width="11.1689"/>
</svg>