<svg width="40" height="40" viewBox="0 0 40 40" fill="none" xmlns="http://www.w3.org/2000/svg">
<g clip-path="url(#clip0_23295_2963)">
<path d="M40 0H0V40H40V0Z" fill="#E7157B" fill-opacity="0.12"/>
<path fill-rule="evenodd" clip-rule="evenodd" d="M9.726 25.2816L8.863 25.7861C8.458 25.0972 8.119 24.3665 7.854 23.6128L8.797 23.2828C9.041 23.9757 9.354 24.6486 9.726 25.2816ZM8.824 16.6372L7.882 16.3002C8.136 15.5984 8.455 14.9135 8.83 14.2645L9.696 14.763C9.35 15.3601 9.057 15.9912 8.824 16.6372ZM14.99 9.99861L14.58 9.0894C17.826 7.63687 21.626 7.63687 24.872 9.0894L24.462 9.99861C21.478 8.66271 17.974 8.66271 14.99 9.99861ZM29.756 14.763L30.622 14.2645C30.998 14.9165 31.318 15.6014 31.569 16.3012L30.627 16.6372C30.396 15.9932 30.103 15.3631 29.756 14.763ZM30.655 23.2828L31.598 23.6128C31.341 24.3425 31.013 25.0543 30.622 25.7293L29.756 25.2308C30.116 24.6097 30.418 23.9537 30.655 23.2828ZM24.462 29.9962L24.872 30.9054C23.248 31.6321 21.517 32 19.726 32C17.935 32 16.204 31.6321 14.58 30.9054L14.99 29.9962C17.976 31.3321 21.476 31.3321 24.462 29.9962ZM11.5 29.4289C10.673 29.4289 10 28.758 10 27.9335C10 27.109 10.673 26.4381 11.5 26.4381C12.328 26.4381 13 27.109 13 27.9335C13 28.758 12.328 29.4289 11.5 29.4289ZM11.5 25.4412C10.122 25.4412 9 26.5597 9 27.9335C9 29.3083 10.122 30.4258 11.5 30.4258C12.879 30.4258 14 29.3083 14 27.9335C14 26.5597 12.879 25.4412 11.5 25.4412ZM27.5 29.4289C26.673 29.4289 26 28.758 26 27.9335C26 27.109 26.673 26.4381 27.5 26.4381C28.328 26.4381 29 27.109 29 27.9335C29 28.758 28.328 29.4289 27.5 29.4289ZM27.5 25.4412C26.122 25.4412 25 26.5597 25 27.9335C25 29.3083 26.122 30.4258 27.5 30.4258C28.879 30.4258 30 29.3083 30 27.9335C30 26.5597 28.879 25.4412 27.5 25.4412ZM31.5 21.4534C30.673 21.4534 30 20.7825 30 19.958C30 19.1335 30.673 18.4626 31.5 18.4626C32.328 18.4626 33 19.1335 33 19.958C33 20.7825 32.328 21.4534 31.5 21.4534ZM31.5 17.4657C30.122 17.4657 29 18.5842 29 19.958C29 21.3328 30.122 22.4503 31.5 22.4503C32.879 22.4503 34 21.3328 34 19.958C34 18.5842 32.879 17.4657 31.5 17.4657ZM11.5 10.5659C12.328 10.5659 13 11.2368 13 12.0613C13 12.8857 12.328 13.5567 11.5 13.5567C10.673 13.5567 10 12.8857 10 12.0613C10 11.2368 10.673 10.5659 11.5 10.5659ZM11.5 14.5536C12.879 14.5536 14 13.435 14 12.0613C14 10.6865 12.879 9.56893 11.5 9.56893C10.122 9.56893 9 10.6865 9 12.0613C9 13.435 10.122 14.5536 11.5 14.5536ZM27.5 10.5659C28.328 10.5659 29 11.2368 29 12.0613C29 12.8857 28.328 13.5567 27.5 13.5567C26.673 13.5567 26 12.8857 26 12.0613C26 11.2368 26.673 10.5659 27.5 10.5659ZM27.5 14.5536C28.879 14.5536 30 13.435 30 12.0613C30 10.6865 28.879 9.56893 27.5 9.56893C26.122 9.56893 25 10.6865 25 12.0613C25 13.435 26.122 14.5536 27.5 14.5536ZM8.5 21.4534C7.673 21.4534 7 20.7825 7 19.958C7 19.1335 7.673 18.4626 8.5 18.4626C9.328 18.4626 10 19.1335 10 19.958C10 20.7825 9.328 21.4534 8.5 21.4534ZM16.0021 20.0228C16.004 19.8902 15.955 19.7626 15.862 19.6679L14.36 18.1167L13.641 18.8085L14.316 19.5064H10.955C10.741 18.348 9.724 17.4657 8.5 17.4657C7.122 17.4657 6 18.5842 6 19.958C6 21.3328 7.122 22.4503 8.5 22.4503C9.691 22.4503 10.685 21.6159 10.936 20.5033H14.27L13.654 21.0945L14.347 21.8133L15.849 20.3727C15.945 20.281 15.999 20.1554 16.0021 20.0228ZM25.658 21.0905L26.284 20.5033H24V19.5064H26.34L25.647 18.8155L26.354 18.1107L27.901 19.6519C27.997 19.7477 28.049 19.8773 28.047 20.0118C28.045 20.1474 27.989 20.275 27.89 20.3677L26.343 21.8163L25.658 21.0905ZM22.414 22.8222C21.664 22.5191 20.841 22.3566 20 22.3566C19.16 22.3566 18.337 22.5191 17.587 22.8222C18.255 21.0556 18.255 18.8614 17.587 17.0948C19.087 17.7009 20.914 17.7009 22.414 17.0948C21.746 18.8614 21.746 21.0556 22.414 22.8222ZM24.354 15.8247C24.452 15.727 24.5 15.5994 24.5 15.4718C24.5 15.3442 24.452 15.2166 24.354 15.1199C24.159 14.9245 23.842 14.9245 23.647 15.1199C22.727 16.0371 21.398 16.5624 20 16.5624C18.603 16.5624 17.274 16.0371 16.354 15.1199C16.159 14.9245 15.842 14.9245 15.647 15.1199C15.549 15.2166 15.5 15.3442 15.5 15.4718C15.5 15.5994 15.549 15.727 15.647 15.8247C17.584 17.7558 17.584 22.1602 15.647 24.0923C15.549 24.189 15.5 24.3166 15.5 24.4442C15.5 24.5718 15.549 24.6994 15.647 24.7971C15.842 24.9915 16.159 24.9915 16.354 24.7971C17.274 23.88 18.603 23.3536 20 23.3536C21.398 23.3536 22.727 23.88 23.647 24.7971C23.745 24.8938 23.872 24.9427 24 24.9427C24.128 24.9427 24.256 24.8938 24.354 24.7971C24.452 24.6994 24.5 24.5718 24.5 24.4442C24.5 24.3166 24.452 24.189 24.354 24.0923C22.416 22.1602 22.416 17.7558 24.354 15.8247Z" fill="#E7157B"/>
</g>
<rect x="0.5" y="0.5" width="39" height="39" stroke="#E7157B"/>
<defs>
<clipPath id="clip0_23295_2963">
<rect width="40" height="40" fill="white"/>
</clipPath>
</defs>
</svg>
