<svg id="Layer_1" data-name="Layer 1" xmlns="http://www.w3.org/2000/svg" xmlns:xlink="http://www.w3.org/1999/xlink" viewBox="0 0 576 576"><defs><style>.cls-1{fill:#2380f2;}.cls-2{fill:#30e0df;}.cls-3{fill:url(#未命名的渐变);}</style><linearGradient id="未命名的渐变" x1="-598.82068" y1="30.58735" x2="-598.82068" y2="27.72976" gradientTransform="matrix(54.12373, 0, 0, -172.99139, 32499.13428, 5332.32946)" gradientUnits="userSpaceOnUse"><stop offset="0" stop-color="#35eed7"/><stop offset="1" stop-color="#22b1fd"/></linearGradient></defs><g id="正稿"><g id="编组"><path id="路径" class="cls-1" d="M426.57318,268.07554l-.49873.21028A214.92961,214.92961,0,0,0,377.388,296.94744c-51.47433,40.62945-81.2012,104.36467-81.2999,196.22946q-.02378,22.38263,1.88707,42.144h-68.7577q-1.733-20.27023-1.7122-42.21728c.12142-112.45435,39.14463-196.12117,107.39138-249.98937A285.65158,285.65158,0,0,1,408.51007,201.374Q420.83352,231.2059,426.57318,268.07554Z"/><path id="路径-2" data-name="路径" class="cls-2" d="M240.93685,243.11423c68.24675,53.8682,107.27,137.535,107.39138,249.98937q.02283,21.94251-1.7122,42.21728h-68.7577q1.91543-19.77132,1.88707-42.144c-.0987-91.86479-29.82557-155.6-81.2999-196.22946a214.04937,214.04937,0,0,0-46.04681-27.51494q6.91446-36.59784,20.11145-65.98987A284.45232,284.45232,0,0,1,240.93685,243.11423Z"/><path id="路径-3" data-name="路径" class="cls-3" d="M111.23333,40.98064l54.82658,45.70592C68.28913,179.24247,66.409,379.09983,105.001,535.31983H36.40107C-7.00852,380.02391-.93753,157.32034,111.23333,40.98064Z"/><path id="路径-4" data-name="路径" class="cls-1" d="M465.52417,39.63568c113.4296,115.96149,119.71591,339.789,76.138,495.6872H473.06111c38.7651-156.91214,36.69721-357.857-62.367-449.86432Z"/></g></g></svg>
