<svg width="40" height="40" viewBox="0 0 40 40" fill="none" xmlns="http://www.w3.org/2000/svg">
<g clip-path="url(#clip0_23298_4136)">
<path d="M40 0H0V40H40V0Z" fill="#E7157B" fill-opacity="0.12"/>
<path fill-rule="evenodd" clip-rule="evenodd" d="M30.222 14.9837C30.242 13.4567 29.366 12.1447 27.912 11.5767C26.687 11.0967 25.364 11.2747 24.439 11.9837C23.989 10.9537 23.395 10.0637 22.669 9.33269C20.361 7.00669 17.201 6.37369 14.217 7.64369C11.672 8.72669 9.753 11.7147 9.753 14.5957C9.753 14.7687 9.759 14.9407 9.77 15.1097C8.381 15.5677 6 16.8677 6 20.3967C6 20.5847 6.008 20.7667 6.022 20.9427C6.271 24.1507 7.929 25.9917 10.571 25.9947H13.069V24.9947H10.572C7.759 24.9917 7.138 22.4057 7.018 20.8657C7.006 20.7137 7 20.5577 7 20.3967C7 17.3007 9.149 16.2877 10.429 15.9597C10.672 15.8977 10.831 15.6657 10.801 15.4167C10.77 15.1477 10.753 14.8737 10.753 14.5957C10.753 12.1327 12.447 9.48369 14.608 8.56369C18.347 6.97569 20.994 9.06469 21.96 10.0367C22.746 10.8297 23.359 11.8407 23.783 13.0457C23.844 13.2197 23.997 13.3467 24.181 13.3737C24.362 13.3967 24.547 13.3247 24.657 13.1757C25.364 12.2147 26.651 12.1577 27.548 12.5077C28.458 12.8637 29.371 13.7767 29.198 15.3067C29.156 15.5767 29.337 15.8307 29.607 15.8767C30.844 16.0907 33.719 16.9627 33.689 20.4357C33.677 21.8847 33.125 22.7807 32.664 23.2767L33.397 23.9577C33.979 23.3317 34.675 22.2127 34.6893 20.4437C34.722 16.5437 31.693 15.3377 30.222 14.9837ZM25.576 27.4947V28.4947H28.705C27.613 30.6627 25.381 32.0777 22.909 32.0777C19.325 32.0777 16.409 29.1617 16.409 25.5777C16.409 21.9937 19.325 19.0777 22.909 19.0777C26.265 19.0777 29.111 21.6947 29.387 25.0357L30.383 24.9537C30.065 21.0977 26.782 18.0777 22.909 18.0777C18.773 18.0777 15.409 21.4417 15.409 25.5777C15.409 29.7137 18.773 33.0777 22.909 33.0777C25.744 33.0777 28.306 31.4667 29.576 28.9907V32.4947H30.576V27.4947H25.576ZM21.45 27.8637L26.041 22.9047L26.776 23.5847L21.847 28.9067C21.748 29.0127 21.615 29.0667 21.48 29.0667C21.36 29.0667 21.24 29.0237 21.144 28.9377L18.49 26.5317L19.161 25.7907L21.45 27.8637Z" fill="#E7157B"/>
</g>
<rect x="0.5" y="0.5" width="39" height="39" stroke="#E7157B"/>
<defs>
<clipPath id="clip0_23298_4136">
<rect width="40" height="40" fill="white"/>
</clipPath>
</defs>
</svg>
