<svg width="90" height="90" viewBox="0 0 90 90" fill="none" xmlns="http://www.w3.org/2000/svg">
<path fill-rule="evenodd" clip-rule="evenodd" d="M75.2643 81.796C75.5375 82.0694 75.9812 82.0698 76.25 81.792C82.0657 75.7836 86.0312 68.2216 87.6641 60.0088C89.3426 51.567 88.4811 42.8168 85.1887 34.8648C83.148 29.936 80.2302 25.451 76.6031 21.6145L65.5478 32.567C67.7654 34.9734 69.5552 37.7635 70.8203 40.819C72.9356 45.928 73.489 51.5497 72.4107 56.9734C71.3778 62.1681 68.8924 66.9576 65.2502 70.7884C64.984 71.0683 64.9833 71.5107 65.2564 71.7839L75.2643 81.796ZM63.6259 30.6735L74.6898 19.7125C72.9777 18.1129 71.132 16.6476 69.1673 15.3342C62.0138 10.5523 53.6035 8 45 8C36.3965 8 27.9862 10.5523 20.8327 15.3342C18.8881 16.6341 17.0601 18.0829 15.3629 19.6633L26.428 30.6255C27.384 29.7749 28.401 28.9878 29.4731 28.2711C34.0691 25.1988 39.4725 23.559 45 23.559C50.5275 23.559 55.9309 25.1988 60.5269 28.2711C61.6192 29.0012 62.6542 29.8045 63.6259 30.6735ZM4.81126 34.8648C6.86125 29.9136 9.79636 25.4102 13.4464 21.5622L24.5011 32.5141C22.2609 34.9325 20.4541 37.741 19.1797 40.819C17.0644 45.928 16.511 51.5497 17.5893 56.9734C18.6222 62.1681 21.1076 66.9576 24.7498 70.7884C25.0159 71.0683 25.0167 71.5106 24.7436 71.7839L14.7357 81.796C14.4625 82.0694 14.0188 82.0698 13.75 81.792C7.93427 75.7836 3.96877 68.2216 2.33586 60.0088C0.657403 51.567 1.51885 42.8168 4.81126 34.8648ZM55.8765 55.9061C55.8765 62.0117 50.9291 66.9612 44.8261 66.9612C38.7231 66.9612 33.7757 62.0117 33.7757 55.9061C33.7757 49.8005 38.7231 44.8509 44.8261 44.8509C45.8055 44.8509 46.7551 44.9784 47.6593 45.2176L61.4667 34.2492C62.0398 33.7939 62.8387 34.4136 62.5406 35.0823L55.0897 51.8013C55.5973 53.0704 55.8765 54.4556 55.8765 55.9061Z" fill="white"/>
</svg>
