<svg width="24" height="24" viewBox="0 0 24 24" fill="none" xmlns="http://www.w3.org/2000/svg">
<path d="M12 10.96H4.97998V11.96H12V10.96Z" fill="#DDDDDD"/>
<path d="M19.02 10.96H12V11.96H19.02V10.96Z" fill="white"/>
<path d="M5 13V22H12V13H5ZM7.76 20.78H6.23V14.22H7.74L7.76 20.78ZM10.85 20.78H9.32V14.22H10.83L10.85 20.78Z" fill="#DDDDDD"/>
<path d="M12 13V22H19V13H12ZM14.68 20.78H13.17V14.22H14.68V20.78ZM17.77 20.78H16.26V14.22H17.77V20.78Z" fill="white"/>
<path d="M18.48 8.14988L15.48 6.62988C15.2122 7.32152 14.7431 7.91701 14.1335 8.33946C13.5239 8.76192 12.8017 8.99196 12.06 8.99988H12V9.99988H19V8.99988C18.9952 8.82511 18.9447 8.65465 18.8534 8.5055C18.7622 8.35636 18.6334 8.23374 18.48 8.14988Z" fill="white"/>
<path d="M11.94 8.99988C11.1966 8.99395 10.4722 8.76484 9.86061 8.34225C9.24901 7.91967 8.77848 7.3231 8.51 6.62988L5.51 8.14988C5.35845 8.23502 5.2317 8.35819 5.14227 8.50724C5.05283 8.6563 5.0038 8.8261 5 8.99988V9.99988H12V8.99988H11.94Z" fill="#DDDDDD"/>
<path d="M12 2V2.91C12.5967 2.91 13.169 3.14705 13.591 3.56901C14.0129 3.99097 14.25 4.56326 14.25 5.16V5.23C14.2474 5.825 14.0091 6.39473 13.5875 6.81453C13.1658 7.23433 12.595 7.47001 12 7.47V8.39C12.8165 8.34431 13.5844 7.98778 14.1463 7.39361C14.7081 6.79945 15.0212 6.01274 15.0212 5.195C15.0212 4.37726 14.7081 3.59055 14.1463 2.99639C13.5844 2.40222 12.8165 2.0457 12 2Z" fill="white"/>
<path d="M11.9999 7.47C11.7028 7.47396 11.4078 7.41903 11.132 7.30836C10.8562 7.19768 10.6051 7.03347 10.3931 6.82521C10.1811 6.61694 10.0125 6.36874 9.89692 6.09494C9.78139 5.82115 9.72124 5.52717 9.71994 5.23V5.16C9.71992 4.86198 9.77909 4.56693 9.89404 4.29198C10.009 4.01702 10.1774 3.76764 10.3895 3.55831C10.6016 3.34898 10.8532 3.18388 11.1297 3.07258C11.4061 2.96129 11.702 2.90603 11.9999 2.91V2C11.1835 2.0457 10.4155 2.40222 9.85366 2.99639C9.29182 3.59055 8.97876 4.37726 8.97876 5.195C8.97876 6.01274 9.29182 6.79945 9.85366 7.39361C10.4155 7.98778 11.1835 8.34431 11.9999 8.39V7.47Z" fill="#DDDDDD"/>
<path d="M12.45 3.70996H11.54V6.66996H12.45V3.70996Z" fill="white"/>
</svg>
