<svg width="40" height="40" viewBox="0 0 40 40" xmlns="http://www.w3.org/2000/svg">  <g id="Icon-Architecture/32/Arch_Elastic-Fabric-Adapter_32" stroke="none" stroke-width="1" fill="none" fill-rule="evenodd">  <g id="Icon-Service/32/Elastic-Fabric-Adapter_32" transform="translate(6.000000, 7.500000)" fill="#FFFFFF"> <path d="M3.819,7.795 L2.889,7.427 C4.65,2.984 9.116,1.77635684e-15 14,1.77635684e-15 C18.883,1.77635684e-15 23.349,2.984 25.11,7.427 L24.18,7.795 C22.569,3.731 18.477,1 14,1 C9.522,1 5.43,3.731 3.819,7.795 L3.819,7.795 Z M24.176,15.733 L25.114,16.081 C23.355,20.818 18.888,24 14,24 C9.111,24 4.644,20.818 2.885,16.081 L3.823,15.733 C5.437,20.08 9.527,23 14,23 C18.472,23 22.562,20.08 24.176,15.733 L24.176,15.733 Z M27,13.276 C27,13.398 26.897,13.5 26.776,13.5 L23.223,13.5 C23.102,13.5 23,13.398 23,13.276 L23,9.724 C23,9.603 23.102,9.5 23.223,9.5 L26.776,9.5 C26.897,9.5 27,9.603 27,9.724 L27,13.276 Z M26.776,8.5 L23.223,8.5 C22.548,8.5 22,9.049 22,9.724 L22,13.276 C22,13.951 22.548,14.5 23.223,14.5 L26.776,14.5 C27.451,14.5 28,13.951 28,13.276 L28,9.724 C28,9.049 27.451,8.5 26.776,8.5 L26.776,8.5 Z M1,13.276 L1,9.724 C1,9.603 1.102,9.5 1.223,9.5 L4.776,9.5 C4.897,9.5 5,9.603 5,9.724 L5,13.276 C5,13.398 4.897,13.5 4.776,13.5 L1.223,13.5 C1.102,13.5 1,13.398 1,13.276 L1,13.276 Z M6,13.276 L6,9.724 C6,9.049 5.451,8.5 4.776,8.5 L1.223,8.5 C0.548,8.5 0,9.049 0,9.724 L0,13.276 C0,13.951 0.548,14.5 1.223,14.5 L4.776,14.5 C5.451,14.5 6,13.951 6,13.276 L6,13.276 Z M15,11.5 L17,11.5 L17,10.5 L15,10.5 L15,11.5 Z M11,11.5 L14,11.5 L14,10.5 L11,10.5 L11,11.5 Z M10,12.5 L18,12.5 L18,9.5 L10,9.5 L10,12.5 Z M13,14.5 L13,15.5 L9,15.5 L9,14.5 L8,14.5 L8,7.5 L20,7.5 L20,14.5 L18,14.5 L18,15.5 L16,15.5 L16,14.5 L13,14.5 Z M19,16.5 L19,15.5 L21,15.5 L21,6.5 L7,6.5 L7,15.5 L8,15.5 L8,16.5 L14,16.5 L14,15.5 L15,15.5 L15,16.5 L19,16.5 Z" id="Fill-1"></path> </g> </g></svg>