<svg width="40" height="40" viewBox="0 0 40 40" xmlns="http://www.w3.org/2000/svg">  <g id="Icon-Architecture/32/Arch_Amazon-Managed-Grafana_32" stroke="none" stroke-width="1" fill="none" fill-rule="evenodd">  <g id="Icon-Service/32/Amazon-Managed-Grafana_32" transform="translate(6.000000, 6.000000)" fill="#FFFFFF"> <path d="M7.99996026,20.0014224 L8.99996026,20.0014224 L8.99996026,15.0014224 L7.99996026,15.0014224 L7.99996026,20.0014224 Z M16.9999603,20.0014224 L17.9999603,20.0014224 L17.9999603,15.0014224 L16.9999603,15.0014224 L16.9999603,20.0014224 Z M13.9999603,20.0014224 L14.9999603,20.0014224 L14.9999603,8.00142236 L13.9999603,8.00142236 L13.9999603,20.0014224 Z M10.9999603,20.0014224 L11.9999603,20.0014224 L11.9999603,12.0014224 L10.9999603,12.0014224 L10.9999603,20.0014224 Z M26.9999603,22.8854224 L8.72596026,26.9394224 L1.06196026,15.4424224 L6.81296026,1.06642236 L17.0499603,2.92742236 L18.0039603,10.5634224 C18.0379603,10.8344224 18.2689603,11.0274224 18.5559603,10.9984224 L26.9999603,10.0604224 L26.9999603,22.8854224 Z M27.8329603,9.12842236 C27.7279603,9.03342236 27.5839603,8.98842236 27.4449603,9.00442236 L18.9349603,9.95042236 L17.9959603,2.43942236 C17.9689603,2.22242236 17.8049603,2.04842236 17.5899603,2.00942236 L6.58996026,0.00942235524 C6.35296026,-0.0375776448 6.12296026,0.0954223552 6.03596026,0.315422355 L0.035960265,15.3154224 C-0.025039735,15.4684224 -0.00803973502,15.6414224 0.083960265,15.7784224 L8.08396026,27.7784224 C8.17796026,27.9194224 8.33496026,28.0014224 8.49996026,28.0014224 C8.53596026,28.0014224 8.57296026,27.9974224 8.60896026,27.9894224 L27.6089603,23.7754224 C27.8369603,23.7244224 27.9999603,23.5214224 27.9999603,23.2874224 L27.9999603,9.50142236 C27.9999603,9.35942236 27.9399603,9.22342236 27.8329603,9.12842236 L27.8329603,9.12842236 Z" id="Fill-3"></path> </g> </g></svg>