<svg id="Layer_1" xmlns="http://www.w3.org/2000/svg" version="1.1" viewBox="0 0 400 400">
  <defs>
    <style>
      .st0, .st1, .st2 {
        fill: #00b39f;
      }

      .st1 {
        opacity: .6;
      }

      .st1, .st2 {
        isolation: isolate;
      }

      .st2 {
        opacity: .8;
      }
    </style>
  </defs>
  <path class="st2" d="M259.6,121.7l33.2-33.2,9.9-9.9c-63.2-57.5-163.7-51-220.7,13.6-15.8,17.9-27.6,40.3-33.8,63.4l12.4-1.7,69.4-11.4,5.3-5.5c30.9-33.9,83.1-38.5,118.7-9.6l4-4,1.5-1.5Z"/>
  <path class="st1" d="M350,154.5c-8-29.4-24.3-55.8-47.1-76l-48.7,48.7c20.6,16.8,32.3,42.1,31.8,68.6v8.6c23.9,0,43.4,19.4,43.4,43.4s-19.4,42.9-43.4,42.9h-86.8v9.5s0,51.9,0,51.9v7.9s86.8,0,86.8,0c62.3.5,113.1-49.1,113.6-111.4.3-37.7-18.3-73.1-49.6-94.2"/>
  <path class="st2" d="M112.5,360.1h86.7v-69.4h-86.7c-6.2,0-12.2-1.3-17.8-3.9l-8.5,8.5-34.6,34.6-7.2,7.2c19.6,14.8,43.5,23.1,68,23"/>
  <path class="st0" d="M112.5,135C50.2,135.4,0,186.2.4,248.4c.2,34.8,16.5,67.5,44,88.7l50.3-50.3c-21.8-9.9-31.5-35.5-21.7-57.3,9.8-21.8,35.5-31.5,57.3-21.7,9.6,4.3,17.3,12,21.7,21.7l50.3-50.3c-21.4-28-54.6-44.3-89.8-44.2"/>
</svg>