<svg width="40" height="40" viewBox="0 0 40 40" fill="none" xmlns="http://www.w3.org/2000/svg">
<g clip-path="url(#clip0_23296_3751)">
<path d="M40 0H0V40H40V0Z" fill="#7AA116" fill-opacity="0.12"/>
<path fill-rule="evenodd" clip-rule="evenodd" d="M10 31.5C10 30.673 9.327 30 8.5 30C7.673 30 7 30.673 7 31.5C7 32.327 7.673 33 8.5 33C9.327 33 10 32.327 10 31.5ZM10.949 31H18V32H10.949C10.717 33.14 9.708 34 8.5 34C7.121 34 6 32.878 6 31.5C6 30.122 7.121 29 8.5 29C9.708 29 10.717 29.86 10.949 31ZM33 31.5C33 30.673 32.327 30 31.5 30C30.673 30 30 30.673 30 31.5C30 32.327 30.673 33 31.5 33C32.327 33 33 32.327 33 31.5ZM20.25 25C22.869 25 25 22.869 25 20.25C25 17.631 22.869 15.5 20.25 15.5C17.631 15.5 15.5 17.631 15.5 20.25C15.5 22.869 17.631 25 20.25 25ZM10 8.5C10 7.673 9.327 7 8.5 7C7.673 7 7 7.673 7 8.5C7 9.327 7.673 10 8.5 10C9.327 10 10 9.327 10 8.5ZM34 31.5C34 32.878 32.879 34 31.5 34C30.292 34 29.283 33.14 29.051 32H20.5C20.224 32 20 31.776 20 31.5V25.987C16.946 25.855 14.5 23.336 14.5 20.25C14.5 17.164 16.946 14.645 20 14.513V9H10.949C10.717 10.14 9.708 11 8.5 11C7.121 11 6 9.878 6 8.5C6 7.122 7.121 6 8.5 6C9.708 6 10.717 6.86 10.949 8H20.5C20.776 8 21 8.224 21 8.5V14.555C23.817 14.924 26 17.334 26 20.25C26 23.166 23.817 25.576 21 25.945V31H29.051C29.283 29.86 30.292 29 31.5 29C32.879 29 34 30.122 34 31.5ZM30 8.5C30 9.327 30.673 10 31.5 10C32.327 10 33 9.327 33 8.5C33 7.673 32.327 7 31.5 7C30.673 7 30 7.673 30 8.5ZM29.051 9H23V8H29.051C29.283 6.86 30.292 6 31.5 6C32.879 6 34 7.122 34 8.5C34 9.878 32.879 11 31.5 11C30.292 11 29.283 10.14 29.051 9ZM27.021 27.02C30.892 23.149 30.892 16.851 27.021 12.98L26.313 13.687C29.735 17.109 29.735 22.891 26.313 26.313L27.021 27.02ZM13.687 13.687C10.265 17.109 10.265 22.891 13.687 26.313L12.979 27.02C9.108 23.149 9.108 16.851 12.979 12.98L13.687 13.687Z" fill="#7AA116"/>
</g>
<rect x="0.5" y="0.5" width="39" height="39" stroke="#7AA116"/>
<defs>
<clipPath id="clip0_23296_3751">
<rect width="40" height="40" fill="white"/>
</clipPath>
</defs>
</svg>
