<svg width="40" height="40" viewBox="0 0 40 40" fill="none" xmlns="http://www.w3.org/2000/svg">
<g clip-path="url(#clip0_23310_9451)">
<path d="M40 0H0V40H40V0Z" fill="#8C4FFF" fill-opacity="0.12"/>
<path fill-rule="evenodd" clip-rule="evenodd" d="M21.1106 20.1483C21.7041 20.8126 22.0308 21.6502 22.0308 22.5048C22.0308 24.5105 20.639 25.9673 18.7215 25.9673H14.466C12.5386 25.9673 11.0848 24.4785 11.0848 22.5048C11.0848 20.52 12.5696 18.9641 14.466 18.9641H16.0148V19.966H14.466C13.1072 19.966 12.084 21.0581 12.084 22.5048C12.084 23.9305 13.0862 24.9654 14.466 24.9654H18.7215C20.0824 24.9654 21.0317 23.9535 21.0317 22.5048C21.0317 21.8966 20.7958 21.2965 20.3672 20.8166L21.1106 20.1483ZM28.0879 21.566C28.0879 23.6109 26.7 24.9313 24.5498 24.9313H23.009V23.9295H24.5498C25.1453 23.9295 27.0887 23.7591 27.0887 21.566C27.0887 19.972 26.1015 18.901 24.6327 18.901H20.599C19.1712 18.901 17.9182 20.1123 17.9182 21.4939C17.9182 21.8806 18.166 22.3074 18.3838 22.6841L17.5195 23.1881C17.2528 22.7262 16.919 22.1511 16.919 21.4939C16.919 19.5793 18.6386 17.8991 20.599 17.8991H24.6327C26.668 17.8991 28.0879 19.4069 28.0879 21.566ZM28.7243 27.9981H11.3006C8.94158 27.9961 7.13707 26.336 7.00817 24.0487C7.00218 23.9475 6.99918 23.8433 6.99918 23.7371C6.99918 20.7986 9.0415 19.8558 10.2595 19.5542C10.5043 19.4941 10.6662 19.2587 10.6352 19.0072C10.6042 18.7537 10.5882 18.4962 10.5882 18.2327C10.5882 15.9094 12.2479 13.4076 14.3671 12.538C15.2354 12.1813 16.1207 12.007 16.989 12.007C18.6746 12.007 20.2973 12.6653 21.6012 13.9336C22.3726 14.6831 22.9731 15.6399 23.3867 16.776C23.4497 16.9483 23.6005 17.0725 23.7814 17.0996C23.9612 17.1297 24.1421 17.0545 24.254 16.9092C24.8745 16.0947 25.8817 15.7511 26.8159 16.0396C27.908 16.3732 28.6134 17.4843 28.7053 19.0112C28.7183 19.2386 28.8822 19.428 29.105 19.4731C31.6909 19.995 33.0008 21.4438 33.0008 23.7782C33.0008 27.4501 30.322 27.9981 28.7243 27.9981ZM29.6676 18.5724C29.4557 16.804 28.5155 15.5126 27.1077 15.0808C26.0285 14.7492 24.8895 14.9976 24.0292 15.708C23.5866 14.7402 23.005 13.9036 22.2966 13.2153C20.0255 11.0061 16.919 10.406 13.9884 11.6103C11.4795 12.6402 9.58905 15.4876 9.58905 18.2327C9.58905 18.39 9.59405 18.5453 9.60304 18.6986C8.26614 19.1324 6 20.3667 6 23.7371C6 23.8633 6.003 23.9886 6.01099 24.1078C6.16686 26.893 8.44 28.997 11.2996 29H28.7243C32.0286 29 34 27.0483 34 23.7782C34 21.0951 32.4663 19.2587 29.6676 18.5724Z" fill="#8C4FFF"/>
</g>
<rect x="0.5" y="0.5" width="39" height="39" stroke="#8C4FFF"/>
<defs>
<clipPath id="clip0_23310_9451">
<rect width="40" height="40" fill="white"/>
</clipPath>
</defs>
</svg>
