<svg width="90" height="90" viewBox="0 0 90 90" fill="none" xmlns="http://www.w3.org/2000/svg">
<path fill-rule="evenodd" clip-rule="evenodd" d="M26.1313 5H33.7141V6.55306V8.10612H27.2375V14.4958H25.6844H24.1313V7C24.1313 5.89543 25.0268 5 26.1313 5ZM37.5054 6.55306V5H52.6709V6.55306V8.10612H37.5054V6.55306ZM56.4622 6.55306V5H71.6277V6.55306V8.10612H56.4622V6.55306ZM75.4191 6.55306V5H83.0018C84.1063 5 85.0018 5.89543 85.0018 7V14.4958H83.4487H81.8957V8.10612H75.4191V6.55306ZM83.4487 18.2437H85.0018V33.2352H83.4487H81.8957V18.2437H83.4487ZM83.4487 36.9831H85.0018V51.9746H83.4487H81.8957V36.9831H83.4487ZM83.4487 55.7225H85.0018V63.2183C85.0018 64.3228 84.1063 65.2183 83.0018 65.2183H75.4191V63.6652V62.1122H81.8957V55.7225H83.4487Z" fill="#326CE5"/>
<mask id="path-2-inside-1_26185_14846" fill="white">
<rect x="14.1157" y="14.8569" width="60.8704" height="60.2183" rx="2"/>
</mask>
<rect x="14.1157" y="14.8569" width="60.8704" height="60.2183" rx="2" stroke="#326CE5" stroke-width="6.21223" stroke-dasharray="16 4" mask="url(#path-2-inside-1_26185_14846)"/>
<path fill-rule="evenodd" clip-rule="evenodd" d="M4.99854 26.7822C4.99854 25.6777 5.89397 24.7822 6.99854 24.7822H63.869C64.9735 24.7822 65.869 25.6777 65.869 26.7822V83.0005C65.869 84.1051 64.9735 85.0005 63.869 85.0005H6.99853C5.89396 85.0005 4.99854 84.1051 4.99854 83.0005V26.7822ZM20.0424 39.6595C18.6461 39.6595 17.5142 40.7915 17.5142 42.1878V64.8847C17.5142 66.281 18.6461 67.413 20.0424 67.413H32.2148C30.8499 65.3433 30.061 62.8972 30.061 60.2765C30.061 52.8316 36.427 46.7962 44.2798 46.7962C45.1357 46.7962 45.9739 46.8679 46.7881 47.0053V42.1878C46.7881 40.7915 45.6562 39.6595 44.2598 39.6595H20.0424ZM35.3161 67.413C33.6064 65.4833 32.5767 62.9941 32.5767 60.2769C32.5767 54.1458 37.8192 49.1755 44.2862 49.1755C50.7533 49.1755 55.9958 54.1458 55.9958 60.2769C55.9958 66.408 50.7533 71.3782 44.2862 71.3782C40.6853 71.3782 37.4641 69.8373 35.3161 67.413Z" fill="#326CE5"/>
</svg>
