<svg width="40" height="40" viewBox="0 0 40 40" xmlns="http://www.w3.org/2000/svg">  <g id="Icon-Architecture/32/Arch_Amazon-Verified-Permissions_32" stroke="none" stroke-width="1" fill="none" fill-rule="evenodd">  <path d="M25,24 L29,24 L29,25 L25,25 L25,27 L29,27 L29,28 L25,28 L25,30 L24,30 L24,28 L24,27 L24,25 L24,24 L24,22 L25,22 L25,24 Z M33,26.961 L32.284,26.92 C32.048,26.914 31.821,27.071 31.769,27.31 C31.621,27.962 31.364,28.582 31.005,29.153 C30.875,29.36 30.913,29.63 31.095,29.793 L31.63,30.27 L30.27,31.629 L29.795,31.097 C29.632,30.914 29.362,30.876 29.154,31.007 C28.587,31.366 27.966,31.623 27.31,31.771 C27.071,31.825 26.907,32.043 26.921,32.288 L26.961,33 L25.039,33 L25.079,32.287 C25.093,32.043 24.929,31.825 24.69,31.771 C24.036,31.623 23.415,31.365 22.847,31.005 C22.64,30.876 22.368,30.913 22.206,31.096 L21.73,31.629 L20.37,30.27 L20.904,29.794 C21.087,29.631 21.125,29.361 20.994,29.154 C20.636,28.586 20.379,27.965 20.23,27.309 C20.177,27.07 19.963,26.914 19.715,26.92 L19,26.961 L19,25.039 L19.718,25.08 C19.963,25.097 20.18,24.93 20.233,24.691 C20.382,24.037 20.64,23.417 20.998,22.85 C21.129,22.643 21.091,22.372 20.908,22.209 L20.37,21.73 L21.73,20.371 L22.209,20.907 C22.371,21.09 22.642,21.128 22.849,20.998 C23.418,20.639 24.037,20.383 24.69,20.235 C24.929,20.182 25.093,19.963 25.079,19.719 L25.039,19 L26.961,19 L26.921,19.72 C26.907,19.964 27.071,20.182 27.31,20.236 C27.963,20.384 28.582,20.641 29.149,20.999 C29.356,21.129 29.627,21.091 29.789,20.909 L30.27,20.37 L31.63,21.73 L31.093,22.208 C30.91,22.371 30.872,22.642 31.003,22.849 C31.361,23.416 31.619,24.035 31.768,24.691 C31.821,24.93 32.048,25.097 32.283,25.08 L33,25.039 L33,26.961 Z M33.844,24.146 C33.743,24.051 33.615,24.005 33.472,24.01 L32.636,24.058 C32.496,23.579 32.305,23.118 32.065,22.681 L32.69,22.124 C32.793,22.032 32.854,21.902 32.857,21.765 C32.861,21.627 32.809,21.494 32.711,21.397 L30.603,19.289 C30.506,19.192 30.381,19.139 30.234,19.143 C30.098,19.146 29.968,19.207 29.876,19.31 L29.316,19.937 C28.88,19.698 28.42,19.507 27.942,19.368 L27.989,18.528 C27.997,18.391 27.948,18.256 27.854,18.157 C27.759,18.057 27.628,18 27.49,18 L24.51,18 C24.372,18 24.241,18.057 24.146,18.157 C24.052,18.256 24.003,18.391 24.011,18.528 L24.058,19.366 C23.58,19.506 23.12,19.696 22.683,19.936 L22.124,19.31 C22.032,19.207 21.902,19.147 21.766,19.143 C21.641,19.143 21.495,19.192 21.397,19.289 L19.289,21.397 C19.191,21.494 19.139,21.627 19.143,21.765 C19.146,21.902 19.207,22.032 19.31,22.124 L19.937,22.683 C19.696,23.12 19.505,23.58 19.365,24.058 L18.528,24.01 C18.398,24.005 18.257,24.051 18.156,24.146 C18.057,24.24 18,24.372 18,24.509 L18,27.491 C18,27.628 18.057,27.76 18.156,27.854 C18.257,27.949 18.412,27.998 18.528,27.99 L19.362,27.942 C19.502,28.422 19.692,28.883 19.933,29.321 L19.31,29.876 C19.207,29.968 19.146,30.098 19.143,30.235 C19.139,30.373 19.191,30.506 19.289,30.603 L21.397,32.711 C21.494,32.808 21.637,32.868 21.766,32.857 C21.903,32.853 22.032,32.793 22.124,32.69 L22.679,32.067 C23.117,32.308 23.578,32.5 24.058,32.64 L24.011,33.472 C24.003,33.609 24.052,33.744 24.146,33.843 C24.241,33.943 24.372,34 24.51,34 L27.49,34 C27.628,34 27.759,33.943 27.854,33.843 C27.948,33.744 27.997,33.609 27.989,33.472 L27.942,32.641 C28.423,32.5 28.884,32.309 29.322,32.069 L29.876,32.69 C29.968,32.793 30.098,32.853 30.234,32.857 C30.384,32.871 30.506,32.809 30.603,32.711 L32.711,30.603 C32.809,30.506 32.861,30.373 32.857,30.235 C32.854,30.098 32.793,29.968 32.69,29.876 L32.066,29.32 C32.307,28.881 32.498,28.42 32.637,27.942 L33.472,27.99 C33.615,27.998 33.743,27.949 33.844,27.854 C33.943,27.76 34,27.628 34,27.491 L34,24.509 C34,24.372 33.943,24.24 33.844,24.146 L33.844,24.146 Z M15.52,17.767 L11.732,21.554 C11.639,21.647 11.512,21.7 11.379,21.7 C11.246,21.7 11.119,21.647 11.025,21.554 L9.133,19.661 L9.84,18.954 L11.379,20.493 L14.812,17.06 L15.52,17.767 Z M15.52,10.544 L11.732,14.331 C11.639,14.424 11.512,14.477 11.379,14.477 C11.246,14.477 11.119,14.424 11.025,14.331 L9.133,12.437 L9.84,11.73 L11.379,13.27 L14.812,9.837 L15.52,10.544 Z M14.572,25.866 L12.796,27.643 L14.572,29.419 L13.865,30.126 L12.089,28.35 L10.312,30.126 L9.605,29.419 L11.382,27.643 L9.605,25.866 L10.312,25.159 L12.089,26.936 L13.865,25.159 L14.572,25.866 Z M24.927,10 L22,10 L22,7.383 L24.927,10 Z M7,7 L21,7 L21,10.5 C21,10.776 21.224,11 21.5,11 L26,11 L26,17 L27,17 L27,10.735 C27,10.593 26.939,10.458 26.833,10.363 L22.096,6.127 C22.067,6.102 22.033,6.087 22,6.069 L22,6 L21.763,6 L21,6 L6.5,6 C6.224,6 6,6.224 6,6.5 L6,33.5 C6,33.776 6.224,34 6.5,34 L20,34 L20,33 L7,33 L7,7 Z" id="Fill-5" fill="#FFFFFF"></path> </g></svg>