<svg width="40" height="40" viewBox="0 0 40 40" fill="none" xmlns="http://www.w3.org/2000/svg">
<g clip-path="url(#clip0_23295_3260)">
<path d="M40 0H0V40H40V0Z" fill="#ED7100" fill-opacity="0.12"/>
<path fill-rule="evenodd" clip-rule="evenodd" d="M27.0115 13.5936C27.0115 13.3522 27.0115 13.1049 26.9957 12.9757C26.8682 12.9607 26.624 12.9607 26.3868 12.9607H18.5531C18.3149 12.9607 18.0708 12.9607 17.9432 12.9767C17.9284 13.1049 17.9284 13.3522 17.9284 13.5936V30.4791C17.9284 30.7204 17.9284 30.9678 17.9432 31.097C18.0708 31.113 18.3149 31.113 18.5531 31.113H21.4513H23.4441H26.3868C26.624 31.113 26.8682 31.113 26.9957 31.097C27.0115 30.9678 27.0115 30.7204 27.0115 30.4791V13.5936ZM23.9374 32.9986H25.8926V32.1144H23.9374V32.9986ZM19.0474 32.9986H20.9571V32.1144H19.0474V32.9986ZM28 13.5936V30.4791C28 31.6968 27.827 32.0303 26.881 32.0984V33.4993C26.881 33.7757 26.6606 34 26.3868 34H23.4441C23.1703 34 22.9499 33.7757 22.9499 33.4993V32.1144H21.9456V33.4993C21.9456 33.7757 21.7242 34 21.4513 34H18.5531C18.2803 34 18.0589 33.7757 18.0589 33.4993V32.0984C17.1119 32.0303 16.9399 31.6968 16.9399 30.4791V13.5936C16.9399 12.1886 17.1653 11.9593 18.5531 11.9593H26.3868C27.7736 11.9593 28 12.1886 28 13.5936ZM25.9262 22.484C25.9262 23.0357 25.4833 23.4854 24.9377 23.4854C24.393 23.4854 23.9492 23.0357 23.9492 22.484C23.9492 21.9322 24.393 21.4826 24.9377 21.4826C25.4833 21.4826 25.9262 21.9322 25.9262 22.484ZM25.9262 19.4788C25.9262 20.0315 25.4833 20.4802 24.9377 20.4802C24.393 20.4802 23.9492 20.0315 23.9492 19.4788C23.9492 18.927 24.393 18.4774 24.9377 18.4774C25.4833 18.4774 25.9262 18.927 25.9262 19.4788ZM25.9262 16.4746C25.9262 17.0274 25.4833 17.476 24.9377 17.476C24.393 17.476 23.9492 17.0274 23.9492 16.4746C23.9492 15.9228 24.393 15.4732 24.9377 15.4732C25.4833 15.4732 25.9262 15.9228 25.9262 16.4746ZM18.996 16.9763H22.9499V15.9749H18.996V16.9763ZM18.996 22.9847H22.9499V21.9833H18.996V22.9847ZM18.996 19.9805H22.9499V18.9791H18.996V19.9805ZM19.4803 7.00139C17.9423 7.00139 16.9844 7.73842 16.4526 8.35728C15.5501 9.40675 15.2684 10.7716 15.389 11.6589C15.4256 11.9253 15.2477 12.1746 14.9857 12.2207C14.7534 12.2647 12.7004 12.7354 13.0236 15.4622C13.0335 15.5423 13.2984 17.477 15.0421 17.477H16.0305V18.4784H15.0421C12.9425 18.4784 12.1616 16.5837 12.042 15.5823C11.702 12.7103 13.5109 11.6869 14.3748 11.3655C14.3363 10.1097 14.8365 8.71278 15.7073 7.69937C16.3745 6.92429 17.5706 6 19.4803 6C22.3489 6 23.6072 7.81152 24.1143 8.95712C24.7716 8.42938 25.6286 8.36029 26.0695 8.48246C27.7677 8.95311 27.8152 10.8788 27.8161 10.9609L26.8277 10.9749C26.8267 10.9259 26.7852 9.71918 25.8085 9.4478C25.6158 9.39573 24.7321 9.4448 24.3842 10.1828C24.2912 10.3761 24.0926 10.4893 23.8751 10.4622C23.6636 10.4352 23.4935 10.273 23.452 10.0607C23.4283 9.93648 22.8214 7.00139 19.4803 7.00139Z" fill="#ED7100"/>
</g>
<rect x="0.5" y="0.5" width="39" height="39" stroke="#ED7100"/>
<defs>
<clipPath id="clip0_23295_3260">
<rect width="40" height="40" fill="white"/>
</clipPath>
</defs>
</svg>
