<svg width="24" height="24" viewBox="0 0 24 24" fill="none" xmlns="http://www.w3.org/2000/svg">
<path fill-rule="evenodd" clip-rule="evenodd" d="M19.4499 18.4701C19.2285 18.4641 19.0139 18.3926 18.8331 18.2646C18.6524 18.1366 18.5136 17.9579 18.4344 17.7511C18.3552 17.5443 18.3391 17.3186 18.3881 17.1026C18.4371 16.8866 18.5491 16.69 18.7099 16.5377C18.8706 16.3853 19.0729 16.284 19.2912 16.2466C19.5095 16.2092 19.734 16.2374 19.9363 16.3276C20.1386 16.4177 20.3096 16.5659 20.4277 16.7532C20.5459 16.9406 20.6058 17.1587 20.5999 17.3801C20.5895 17.6763 20.4631 17.9566 20.248 18.1605C20.0329 18.3643 19.7463 18.4756 19.4499 18.4701ZM19.4499 19.4701C19.9316 19.4798 20.4016 19.322 20.7798 19.0236C21.1581 18.7253 21.421 18.3049 21.5238 17.8342C21.6265 17.3636 21.5627 16.8719 21.3433 16.443C21.1238 16.0142 20.7623 15.6748 20.3205 15.4828C19.8787 15.2909 19.3839 15.2582 18.9207 15.3904C18.4574 15.5227 18.0545 15.8116 17.7806 16.2079C17.5067 16.6042 17.3788 17.0832 17.4188 17.5633C17.4588 18.0434 17.6642 18.4947 17.9999 18.8401C18.3897 19.2303 18.9185 19.4497 19.4699 19.4501L19.4499 19.4701Z" fill="white"/>
<path d="M19.4601 4.33043C19.0497 4.32991 18.6484 4.45139 18.3072 4.67944C17.966 4.90748 17.7003 5.2318 17.5438 5.61119C17.3873 5.99058 17.3472 6.40791 17.4284 6.81018C17.5096 7.21245 17.7086 7.58149 18.0001 7.87043C18.1911 8.06549 18.4202 8.21936 18.673 8.32255C18.9258 8.42574 19.1971 8.47607 19.4701 8.47043C19.7547 8.4902 20.0403 8.45121 20.3092 8.35588C20.5781 8.26056 20.8245 8.11093 21.0331 7.91632C21.2417 7.7217 21.408 7.48625 21.5218 7.22461C21.6355 6.96296 21.6942 6.68072 21.6942 6.39543C21.6942 6.11014 21.6355 5.8279 21.5218 5.56625C21.408 5.30461 21.2417 5.06916 21.0331 4.87454C20.8245 4.67992 20.5781 4.5303 20.3092 4.43498C20.0403 4.33965 19.7547 4.30066 19.4701 4.32043L19.4601 4.33043ZM20.2601 7.19043C20.1538 7.29527 20.027 7.37695 19.8875 7.43031C19.7481 7.48367 19.5992 7.50754 19.4501 7.50043C19.2311 7.49246 19.0195 7.41989 18.8417 7.29186C18.664 7.16383 18.5281 6.98607 18.4511 6.78096C18.3742 6.57584 18.3597 6.35255 18.4094 6.13921C18.4591 5.92586 18.5709 5.732 18.7306 5.58204C18.8903 5.43207 19.0907 5.33271 19.3068 5.29646C19.5228 5.26022 19.7448 5.28871 19.9447 5.37835C20.1445 5.46799 20.3134 5.61477 20.4301 5.80021C20.5467 5.98564 20.6058 6.20144 20.6001 6.42043C20.5891 6.71107 20.4675 6.98653 20.2601 7.19043Z" fill="white"/>
<path d="M15.9001 10H15.8501V10.95H15.9201C16.2145 10.95 16.4968 11.0669 16.705 11.2751C16.9132 11.4833 17.0301 11.7656 17.0301 12.06C17.0301 12.3544 16.9132 12.6367 16.705 12.8449C16.4968 13.0531 16.2145 13.17 15.9201 13.17H15.8501V14.17H15.9201C16.2047 14.1898 16.4903 14.1508 16.7592 14.0555C17.0281 13.9601 17.2745 13.8105 17.4831 13.6159C17.6917 13.4213 17.8581 13.1858 17.9718 12.9242C18.0855 12.6625 18.1442 12.3803 18.1442 12.095C18.1442 11.8097 18.0855 11.5275 17.9718 11.2658C17.8581 11.0042 17.6917 10.7687 17.4831 10.5741C17.2745 10.3795 17.0281 10.2299 16.7592 10.1345C16.4903 10.0392 16.2047 10.0002 15.9201 10.02L15.9001 10Z" fill="white"/>
<path d="M11.32 2C6.42996 2 2.45996 4 2.45996 6.4C2.45996 8.8 6.45996 10.81 11.32 10.81H11.42V2H11.32Z" fill="white"/>
<path d="M11.32 12.5196C9.16152 12.5922 7.01557 12.1643 5.04996 11.2696C4.5068 11.0527 4.01173 10.7309 3.59306 10.3225C3.17438 9.91414 2.84031 9.42724 2.60996 8.88965H2.45996V11.9996C2.45996 14.4296 6.45996 16.3996 11.32 16.3996H11.42V12.4996L11.32 12.5196Z" fill="white"/>
<path d="M11.32 18.1005C9.16231 18.1761 7.01639 17.7517 5.04996 16.8605C4.5068 16.6436 4.01173 16.3217 3.59306 15.9133C3.17438 15.505 2.84031 15.0181 2.60996 14.4805H2.45996V17.6005C2.45996 20.0305 6.45996 22.0005 11.32 22.0005H11.42V18.1005H11.32Z" fill="white"/>
<path d="M15.8599 2H13.6399V22H15.8599V2Z" fill="#DDDDDD"/>
</svg>
