<svg width="40" height="40" viewBox="0 0 40 40" fill="none" xmlns="http://www.w3.org/2000/svg">
<g clip-path="url(#clip0_23295_3282)">
<path d="M40 0H0V40H40V0Z" fill="#ED7100" fill-opacity="0.12"/>
<path fill-rule="evenodd" clip-rule="evenodd" d="M30 29.9603V25.7763L33 24.0422V28.3482L30 29.9603ZM32.511 33.0243H25.299L24.325 29.0233H25.197C25.221 29.0433 25.235 29.0722 25.264 29.0872L29.264 31.2362C29.337 31.2762 29.419 31.2962 29.5 31.2962C29.581 31.2962 29.663 31.2762 29.736 31.2362L31.149 30.4772L32.511 33.0243ZM8.856 30.4802L10.264 31.2362C10.337 31.2762 10.419 31.2962 10.5 31.2962C10.581 31.2962 10.663 31.2762 10.736 31.2362L14.736 29.0872C14.765 29.0722 14.779 29.0433 14.803 29.0233H15.888L14.615 33.0243H7.438L8.856 30.4802ZM7 24.2903L10 25.9762V29.9603L7 28.3482V24.2903ZM10.5 21.7313L13.349 23.2623L10.325 25.0112L7.427 23.3822L10.5 21.7313ZM15.479 18.8183L18.602 20.4963L17.479 24.0233H15V23.3132C15 23.1292 14.898 22.9602 14.736 22.8732L13.343 22.1243L15.479 18.8183ZM15.068 9.98625L15 10.1053V10.0232L15.068 9.98625ZM20.5 7.06825L25.258 9.62425L20.653 12.2863L15.9 9.54025L20.5 7.06825ZM21 20.1122V13.2413L26 10.3512V17.4252L21 20.1122ZM26.711 22.0693L26.721 22.0893L25.264 22.8732C25.102 22.9602 25 23.1292 25 23.3132V24.0233H23.109L22.268 20.5662L25.056 19.0683L26.711 22.0693ZM26 28.0233V25.0233V24.3002L29 25.9862V29.9603L26 28.3482V28.0233ZM20.264 21.3892C20.337 21.4292 20.419 21.4492 20.5 21.4492C20.581 21.4492 20.663 21.4292 20.736 21.3892L21.359 21.0553L22.081 24.0233H18.529L19.498 20.9783L20.264 21.3892ZM15 17.4252V10.1753L20 13.0642V20.1122L15 17.4252ZM15 25.0233H17.161L16.207 28.0233H15V25.0233ZM14 28.3482L11 29.9603V25.7763L14 24.0422V25.0233V28.0233V28.3482ZM23.297 29.0233L24.27 33.0243H15.665L16.938 29.0233H23.297ZM17.256 28.0233L18.211 25.0233H22.324L23.054 28.0233H17.256ZM24.082 28.0233L23.353 25.0233H25V28.0233H24.082ZM29.5 21.7313L32.349 23.2623L29.316 25.0163L26.418 23.3873L29.5 21.7313ZM33.736 22.8732L29.736 20.7232C29.59 20.6442 29.41 20.6442 29.264 20.7232L27.594 21.6213L25.936 18.5952L26.736 18.1653C26.898 18.0783 27 17.9083 27 17.7243V9.72425C27 9.54025 26.898 9.37125 26.736 9.28425L20.736 6.05925C20.59 5.98025 20.41 5.98025 20.264 6.05925L14.264 9.28425C14.102 9.37125 14 9.54025 14 9.72425V17.7243C14 17.9083 14.102 18.0783 14.264 18.1653L14.595 18.3433L12.459 21.6493L10.736 20.7232C10.59 20.6442 10.41 20.6442 10.264 20.7232L6.264 22.8732C6.102 22.9602 6 23.1292 6 23.3132V28.6472C6 28.8312 6.102 29.0002 6.264 29.0872L7.976 30.0072L6.152 33.2743C6.066 33.4273 6.067 33.6143 6.155 33.7663C6.242 33.9193 6.402 34.0142 6.578 34.0182L33.159 34.0243L33.346 34.0233C33.521 34.0233 33.684 33.9303 33.774 33.7793C33.864 33.6293 33.868 33.4423 33.785 33.2873L32.029 30.0042L33.736 29.0872C33.898 29.0002 34 28.8312 34 28.6472V23.3132C34 23.1292 33.898 22.9602 33.736 22.8732Z" fill="#ED7100"/>
</g>
<rect x="0.5" y="0.5" width="39" height="39" stroke="#ED7100"/>
<defs>
<clipPath id="clip0_23295_3282">
<rect width="40" height="40" fill="white"/>
</clipPath>
</defs>
</svg>
