<svg width="40" height="40" viewBox="0 0 40 40" fill="none" xmlns="http://www.w3.org/2000/svg">
<g clip-path="url(#clip0_23296_3419)">
<path d="M40 0H0V40H40V0Z" fill="#C925D1" fill-opacity="0.12"/>
<path fill-rule="evenodd" clip-rule="evenodd" d="M22.336 29.772L22.598 30.737C21.614 31.005 20.584 31.141 19.538 31.141C14.978 31.141 11.39 29.035 9.435 25.212L10.325 24.757C12.101 28.229 15.372 30.141 19.538 30.141C20.496 30.141 21.437 30.017 22.336 29.772ZM33.709 21.075L33 21.78L31.782 20.554C31.64 21.631 31.31 22.735 30.834 23.66L29.945 23.203C30.352 22.412 30.634 21.473 30.77 20.55L29.206 21.816L28.577 21.039L31.05 19.035C31.247 18.874 31.538 18.889 31.719 19.071L33.709 21.075ZM10.74 17.855L8.74 19.866C8.643 19.964 8.515 20.014 8.386 20.014C8.259 20.014 8.133 19.966 8.035 19.87L6 17.87L6.701 17.157L7.941 18.376C8.496 12.103 13.565 7 19.51 7C23.913 7 28.259 9.715 30.325 13.757L29.435 14.212C27.565 10.555 23.483 8 19.51 8C14.152 8 9.573 12.565 8.961 18.227L10.031 17.149L10.74 17.855ZM19.345 21.288C18.149 21.288 17.176 20.315 17.176 19.119C17.176 17.923 18.149 16.95 19.345 16.95C20.541 16.95 21.515 17.923 21.515 19.119C21.515 20.315 20.541 21.288 19.345 21.288ZM19.345 15.95C17.598 15.95 16.176 17.372 16.176 19.119C16.176 20.867 17.598 22.288 19.345 22.288C21.093 22.288 22.515 20.867 22.515 19.119C22.515 17.372 21.093 15.95 19.345 15.95ZM22.763 23.617C22.601 23.435 22.328 23.396 22.123 23.527C21.621 23.843 21.075 24.07 20.498 24.2C20.26 24.254 20.096 24.472 20.109 24.716L20.142 25.292H18.548L18.581 24.716C18.596 24.472 18.431 24.253 18.192 24.199C17.617 24.07 17.071 23.843 16.568 23.526C16.362 23.396 16.092 23.435 15.929 23.616L15.544 24.047L14.417 22.92L14.849 22.536C15.031 22.373 15.069 22.102 14.939 21.895C14.622 21.396 14.397 20.85 14.267 20.272C14.213 20.034 13.99 19.869 13.75 19.883L13.172 19.916V18.322L13.752 18.355C14.015 18.368 14.214 18.204 14.268 17.967C14.399 17.39 14.626 16.845 14.941 16.346C15.072 16.139 15.034 15.869 14.852 15.706L14.417 15.318L15.544 14.19L15.932 14.625C16.094 14.807 16.365 14.844 16.571 14.715C17.071 14.399 17.617 14.174 18.192 14.044C18.431 13.99 18.595 13.772 18.581 13.528L18.548 12.946H20.142L20.109 13.528C20.096 13.772 20.26 13.99 20.498 14.044C21.073 14.175 21.618 14.401 22.118 14.716C22.324 14.847 22.597 14.809 22.758 14.626L23.147 14.191L24.273 15.318L23.84 15.705C23.657 15.867 23.619 16.138 23.75 16.345C24.065 16.844 24.292 17.39 24.423 17.967C24.477 18.204 24.678 18.378 24.939 18.355L25.518 18.322V19.916L24.94 19.883C24.695 19.869 24.477 20.034 24.424 20.272C24.293 20.848 24.067 21.394 23.751 21.895C23.62 22.101 23.658 22.372 23.841 22.535L24.273 22.92L23.147 24.047L22.763 23.617ZM25.355 23.253C25.452 23.156 25.505 23.023 25.501 22.886C25.497 22.748 25.437 22.619 25.334 22.527L24.812 22.061C25.011 21.692 25.171 21.305 25.291 20.904L25.989 20.944C26.117 20.957 26.261 20.904 26.361 20.809C26.461 20.714 26.518 20.583 26.518 20.445V17.793C26.518 17.655 26.461 17.524 26.361 17.43C26.261 17.335 26.131 17.293 25.989 17.294L25.289 17.334C25.169 16.933 25.009 16.546 24.811 16.179L25.334 15.711C25.437 15.62 25.497 15.49 25.501 15.353C25.505 15.215 25.452 15.082 25.355 14.985L23.48 13.109C23.382 13.012 23.217 12.963 23.112 12.963C22.975 12.967 22.845 13.027 22.753 13.13L22.284 13.656C21.916 13.458 21.53 13.297 21.131 13.177L21.17 12.475C21.178 12.337 21.129 12.203 21.034 12.103C20.94 12.003 20.809 11.946 20.671 11.946H18.019C17.881 11.946 17.749 12.003 17.655 12.103C17.561 12.203 17.512 12.337 17.52 12.475L17.56 13.177C17.159 13.296 16.774 13.456 16.405 13.654L15.938 13.13C15.846 13.027 15.716 12.967 15.578 12.963C15.482 12.967 15.309 13.013 15.211 13.109L13.336 14.985C13.238 15.082 13.186 15.215 13.19 15.353C13.193 15.49 13.254 15.62 13.357 15.711L13.881 16.179C13.682 16.547 13.522 16.933 13.401 17.334L12.7 17.294C12.568 17.293 12.43 17.335 12.328 17.43C12.229 17.524 12.172 17.655 12.172 17.793V20.445C12.172 20.583 12.229 20.714 12.328 20.809C12.43 20.904 12.582 20.957 12.7 20.944L13.398 20.904C13.519 21.306 13.679 21.693 13.878 22.062L13.357 22.527C13.254 22.619 13.193 22.748 13.19 22.886C13.186 23.023 13.238 23.156 13.336 23.253L15.211 25.128C15.309 25.226 15.451 25.273 15.579 25.275C15.716 25.271 15.846 25.21 15.938 25.108L16.402 24.586C16.773 24.786 17.159 24.946 17.56 25.066L17.52 25.763C17.512 25.9 17.561 26.035 17.655 26.135C17.749 26.235 17.881 26.292 18.019 26.292H20.671C20.809 26.292 20.94 26.235 21.034 26.135C21.129 26.035 21.178 25.9 21.17 25.763L21.131 25.067C21.532 24.947 21.919 24.787 22.289 24.587L22.753 25.108C22.845 25.21 22.975 25.271 23.111 25.275C23.248 25.277 23.383 25.226 23.48 25.128L25.355 23.253ZM28.484 28.91C28.19 29.217 27.699 29.227 27.392 28.932C27.242 28.789 27.158 28.597 27.154 28.39C27.15 28.184 27.227 27.988 27.37 27.839C27.514 27.69 27.706 27.606 27.912 27.602H27.928C28.128 27.602 28.317 27.678 28.463 27.818C28.612 27.961 28.696 28.153 28.7 28.359C28.704 28.566 28.628 28.762 28.484 28.91ZM26.649 27.146C25.972 27.851 25.994 28.976 26.698 29.653C27.031 29.973 27.466 30.148 27.926 30.148C27.938 30.148 27.95 30.147 27.962 30.147C28.436 30.138 28.877 29.945 29.205 29.604C29.533 29.262 29.709 28.814 29.7 28.34C29.69 27.867 29.497 27.425 29.156 27.097C28.45 26.42 27.327 26.441 26.649 27.146ZM31.012 30.214L29.949 30.001C29.811 29.974 29.669 30.004 29.555 30.087L29.024 30.476C28.913 30.558 28.84 30.683 28.824 30.821L28.698 31.892L27.111 31.89L26.988 30.829C26.972 30.691 26.899 30.567 26.789 30.484L26.252 30.086C26.139 30.003 25.996 29.971 25.857 29.998L24.802 30.209L24.313 28.699L25.3 28.247C25.427 28.188 25.524 28.08 25.567 27.947L25.769 27.328C25.812 27.195 25.797 27.05 25.729 26.929L25.198 25.983L26.482 25.052L27.211 25.843C27.307 25.946 27.458 26.008 27.582 26.004L28.251 26C28.39 25.999 28.522 25.941 28.615 25.839L29.339 25.054L30.622 25.987L30.094 26.928C30.025 27.049 30.011 27.193 30.053 27.325L30.252 27.951C30.295 28.085 30.392 28.194 30.52 28.253L31.503 28.705L31.012 30.214ZM32.325 27.981L31.138 27.437L31.071 27.229L31.712 26.09C31.837 25.869 31.775 25.589 31.57 25.44L29.567 23.983C29.364 23.834 29.078 23.862 28.906 24.049L28.027 25.001L27.797 25.002L26.917 24.047C26.745 23.86 26.462 23.833 26.255 23.981L24.25 25.435C24.045 25.584 23.983 25.863 24.108 26.084L24.75 27.227L24.685 27.429L23.492 27.976C23.262 28.082 23.147 28.343 23.225 28.584L23.987 30.94C24.065 31.181 24.315 31.328 24.561 31.277L25.835 31.022L26.02 31.159L26.169 32.447C26.198 32.699 26.412 32.889 26.665 32.89L29.142 32.892C29.396 32.892 29.609 32.702 29.64 32.45L29.791 31.154L29.969 31.024L31.251 31.282C31.502 31.333 31.746 31.187 31.825 30.946L32.592 28.591C32.67 28.35 32.556 28.087 32.325 27.981Z" fill="#C925D1"/>
</g>
<rect x="0.5" y="0.5" width="39" height="39" stroke="#C925D1"/>
<defs>
<clipPath id="clip0_23296_3419">
<rect width="40" height="40" fill="white"/>
</clipPath>
</defs>
</svg>
