<svg width="90" height="90" viewBox="0 0 90 90" fill="none" xmlns="http://www.w3.org/2000/svg">
<path fill-rule="evenodd" clip-rule="evenodd" d="M26.1313 5H33.7141V6.55306V8.10612H27.2375V14.4958H25.6844H24.1313V7C24.1313 5.89543 25.0268 5 26.1313 5ZM37.5054 6.55306V5H52.6709V6.55306V8.10612H37.5054V6.55306ZM56.4622 6.55306V5H71.6277V6.55306V8.10612H56.4622V6.55306ZM75.4191 6.55306V5H83.0018C84.1063 5 85.0018 5.89543 85.0018 7V14.4958H83.4487H81.8957V8.10612H75.4191V6.55306ZM83.4487 18.2437H85.0018V33.2352H83.4487H81.8957V18.2437H83.4487ZM83.4487 36.9831H85.0018V51.9746H83.4487H81.8957V36.9831H83.4487ZM83.4487 55.7225H85.0018V63.2183C85.0018 64.3228 84.1063 65.2183 83.0018 65.2183H75.4191V63.6652V62.1122H81.8957V55.7225H83.4487Z" fill="white"/>
<mask id="path-2-inside-1_26185_14859" fill="white">
<rect x="14.1157" y="14.8569" width="60.8704" height="60.2183" rx="2"/>
</mask>
<rect x="14.1157" y="14.8569" width="60.8704" height="60.2183" rx="2" stroke="white" stroke-width="6.21223" stroke-dasharray="16 4" mask="url(#path-2-inside-1_26185_14859)"/>
<path fill-rule="evenodd" clip-rule="evenodd" d="M4.99854 26.7822C4.99854 25.6777 5.89397 24.7822 6.99854 24.7822H63.869C64.9735 24.7822 65.869 25.6777 65.869 26.7822V83.0005C65.869 84.1051 64.9735 85.0005 63.869 85.0005H6.99853C5.89396 85.0005 4.99854 84.1051 4.99854 83.0005V26.7822ZM20.043 39.6595C18.6464 39.6595 17.5142 40.7917 17.5142 42.1884V64.8845C17.5142 66.2811 18.6464 67.4133 20.043 67.4133H32.2286C30.8648 65.3444 30.0767 62.8996 30.0767 60.2804C30.0767 52.8354 36.4445 46.8 44.2997 46.8C45.1516 46.8 45.9861 46.871 46.7969 47.0071V42.1884C46.7969 40.7917 45.6647 39.6595 44.268 39.6595H20.043ZM44.2819 71.3775C50.7509 71.3775 55.995 66.4072 55.995 60.2761C55.995 54.1449 50.7509 49.1746 44.2819 49.1746C37.813 49.1746 32.5688 54.1449 32.5688 60.2761C32.5688 66.4072 37.813 71.3775 44.2819 71.3775Z" fill="white"/>
</svg>
