<svg width="40" height="40" viewBox="0 0 40 40" fill="none" xmlns="http://www.w3.org/2000/svg">
<g clip-path="url(#clip0_23310_9422)">
<path d="M40 0H0V40H40V0Z" fill="#8C4FFF" fill-opacity="0.12"/>
<path fill-rule="evenodd" clip-rule="evenodd" d="M15.3678 30.1065H24.6322V27.0558C24.6322 26.7816 24.3327 26.5485 23.978 26.5485H16.021C15.6673 26.5485 15.3678 26.7816 15.3678 27.0558V30.1065ZM16.6782 20.0101C17.3164 20.0101 17.8359 19.4908 17.8359 18.8519C17.8359 18.2141 17.3164 17.6947 16.6782 17.6947C16.0391 17.6947 15.5186 18.2141 15.5186 18.8519C15.5186 19.4908 16.0391 20.0101 16.6782 20.0101ZM19.9633 16.1357C20.6024 16.1357 21.123 15.6164 21.123 14.9775C21.123 14.3397 20.6024 13.8203 19.9633 13.8203C19.3252 13.8203 18.8057 14.3397 18.8057 14.9775C18.8057 15.6164 19.3252 16.1357 19.9633 16.1357ZM23.3218 20.0101C23.9609 20.0101 24.4804 19.4908 24.4804 18.8519C24.4804 18.2141 23.9609 17.6947 23.3218 17.6947C22.6826 17.6947 22.1641 18.2141 22.1641 18.8519C22.1641 19.4908 22.6826 20.0101 23.3218 20.0101ZM27.3485 31.8152V34H26.3435V31.8152C26.3435 31.4003 26.0993 31.111 25.8803 31.111H14.1197C13.9007 31.111 13.6565 31.4003 13.6565 31.8152V34H12.6515V31.8152C12.6515 30.873 13.3098 30.1065 14.1197 30.1065H14.3629V27.0558C14.3629 26.2231 15.1066 25.544 16.021 25.544H16.1758V20.9504C15.2241 20.7223 14.5137 19.8715 14.5137 18.8519C14.5137 17.6596 15.4844 16.6902 16.6782 16.6902C17.8701 16.6902 18.8408 17.6596 18.8408 18.8519C18.8408 19.8715 18.1304 20.7223 17.1807 20.9504V25.544H19.497V17.087C18.5293 16.873 17.8007 16.0102 17.8007 14.9775C17.8007 13.7852 18.7715 12.8158 19.9633 12.8158C21.1572 12.8158 22.1279 13.7852 22.1279 14.9775C22.1279 15.983 21.4345 16.8238 20.502 17.0649V25.544H22.8193V20.9504C21.8696 20.7223 21.1592 19.8715 21.1592 18.8519C21.1592 17.6596 22.1299 16.6902 23.3218 16.6902C24.5156 16.6902 25.4853 17.6596 25.4853 18.8519C25.4853 19.8715 24.7749 20.7223 23.8242 20.9504V25.544H23.978C24.8934 25.544 25.6371 26.2231 25.6371 27.0558V30.1065H25.8803C26.6902 30.1065 27.3485 30.873 27.3485 31.8152ZM34 18.4562C34 23.1723 29.8115 23.1723 28.4358 23.1723H25.9747V22.1678H28.4358C30.5582 22.1678 32.9951 21.7459 32.9951 18.4562C32.9951 16.1689 31.6545 14.7405 29.0116 14.2101C28.7875 14.1649 28.6227 13.975 28.6096 13.747C28.476 11.511 27.1686 10.7174 26.0903 10.7174C25.3597 10.7174 24.6754 11.066 24.2121 11.6727C24.0996 11.8173 23.9177 11.8876 23.7378 11.8645C23.5559 11.8374 23.4042 11.7129 23.3419 11.5411C22.9791 10.5607 22.4324 9.75004 21.5682 8.91328C19.6126 7.01274 16.9365 6.49743 14.4091 7.53308C12.2757 8.406 10.6658 10.7465 10.6658 12.9755C10.6658 13.2347 10.6819 13.4898 10.7131 13.739C10.7452 13.9921 10.5814 14.2292 10.3332 14.2894C9.09012 14.5938 7.00492 15.533 7.00492 18.417C7.00492 18.5204 7.01095 18.6229 7.01497 18.7274C7.14862 21.1041 9.35441 22.1678 11.4798 22.1678H14.0293V23.1723H11.4798C8.40577 23.1723 6.15777 21.3672 6.01206 18.7826C6.00603 18.6591 6 18.5375 6 18.417C6 15.089 8.31231 13.8645 9.67498 13.4316C9.66594 13.2809 9.66091 13.1292 9.66091 12.9755C9.66091 10.3186 11.4969 7.63956 14.0283 6.60391C16.9385 5.41255 20.0166 6.00522 22.2676 8.19305C23.0303 8.93036 23.577 9.65562 23.978 10.4763C25.7707 9.00168 29.1392 9.59133 29.5794 13.306C32.4333 13.9971 34 15.8143 34 18.4562Z" fill="#8C4FFF"/>
</g>
<rect x="0.5" y="0.5" width="39" height="39" stroke="#8C4FFF"/>
<defs>
<clipPath id="clip0_23310_9422">
<rect width="40" height="40" fill="white"/>
</clipPath>
</defs>
</svg>
