<svg xmlns="http://www.w3.org/2000/svg" role="img" xmlns:xlink="http://www.w3.org/1999/xlink" viewBox="2.11 0.36 354.53 358.28"><defs><linearGradient id="c" x1="11.59" x2="350.962" y1="209.479" y2="149.639" gradientUnits="userSpaceOnUse"><stop offset="0" stop-color="#328dbb"/><stop offset="1" stop-color="#0f578b"/></linearGradient><linearGradient id="d" x1="332.291" x2="120.916" y1="186.583" y2="280.693" gradientUnits="userSpaceOnUse"><stop offset="0" stop-color="#3282b4"/><stop offset="1" stop-color="#0f578b"/></linearGradient><linearGradient id="e" x1="90.5" x2="90.154" y1="177.063" y2="177.409" gradientUnits="userSpaceOnUse"><stop offset="0" stop-color="#3f8dbb"/><stop offset="1" stop-color="#0f578b"/></linearGradient><linearGradient id="a" x1="127.565" x2="126.973" y1="252.988" y2="252.646" gradientUnits="userSpaceOnUse"><stop offset="0" stop-color="#4798c7"/><stop offset="1" stop-color="#0a5183"/></linearGradient><linearGradient id="f" x1="131.276" x2="130.537" y1="255.582" y2="255.155" xlink:href="#a"/><linearGradient id="g" x1="139.071" x2="138.044" y1="260.236" y2="259.643" xlink:href="#a"/><linearGradient id="h" x1="135.104" x2="134.229" y1="257.996" y2="257.491" xlink:href="#a"/><linearGradient id="i" x1="143.168" x2="141.976" y1="262.296" y2="261.608" xlink:href="#a"/><linearGradient id="j" x1="117.253" x2="117.106" y1="244.207" y2="244.123" xlink:href="#a"/><linearGradient id="k" x1="123.979" x2="123.544" y1="250.218" y2="249.966" xlink:href="#a"/><linearGradient id="l" x1="114.14" x2="114.106" y1="240.993" y2="240.973" xlink:href="#a"/><linearGradient id="m" x1="120.542" x2="120.253" y1="247.29" y2="247.123" xlink:href="#a"/><linearGradient id="n" x1="264.797" x2="264.035" y1="330.748" y2="330.308" xlink:href="#a"/><linearGradient id="o" x1="174.695" x2="172.352" y1="270.924" y2="269.571" xlink:href="#a"/><linearGradient id="p" x1="180.761" x2="177.202" y1="271.57" y2="269.516" xlink:href="#a"/><linearGradient id="q" x1="280.555" x2="58.723" y1="295.188" y2="167.114" xlink:href="#a"/><linearGradient id="r" x1="147.36" x2="146.02" y1="264.154" y2="263.38" xlink:href="#a"/><linearGradient id="s" x1="169.834" x2="167.735" y1="270.328" y2="269.116" xlink:href="#a"/><linearGradient id="t" x1="165.059" x2="163.202" y1="269.496" y2="268.423" xlink:href="#a"/><linearGradient id="u" x1="151.671" x2="150.171" y1="265.817" y2="264.951" xlink:href="#a"/><linearGradient id="v" x1="160.515" x2="158.766" y1="268.489" y2="267.479" xlink:href="#a"/><linearGradient id="w" x1="156.082" x2="154.423" y1="267.274" y2="266.316" xlink:href="#a"/><linearGradient id="x" x1="329.243" x2="329.227" y1="267.978" y2="267.969" xlink:href="#a"/><linearGradient id="y" x1="325.324" x2="325.255" y1="274.274" y2="274.235" xlink:href="#a"/><linearGradient id="z" x1="332.543" x2="332.531" y1="262.226" y2="262.219" xlink:href="#a"/><linearGradient id="A" x1="335.991" x2="335.904" y1="255.681" y2="255.63" xlink:href="#a"/><linearGradient id="B" x1="338.849" x2="338.785" y1="249.571" y2="249.534" xlink:href="#a"/><linearGradient id="C" x1="308.247" x2="307.962" y1="296.315" y2="296.15" xlink:href="#a"/><linearGradient id="D" x1="313.109" x2="312.912" y1="290.729" y2="290.616" xlink:href="#a"/><linearGradient id="E" x1="317.213" x2="317.044" y1="285.654" y2="285.557" xlink:href="#a"/><linearGradient id="F" x1="321.629" x2="321.518" y1="279.695" y2="279.631" xlink:href="#a"/><linearGradient id="G" x1="346.473" x2="346.168" y1="229.422" y2="229.246" xlink:href="#a"/><linearGradient id="H" x1="341.757" x2="341.562" y1="242.815" y2="242.702" xlink:href="#a"/><linearGradient id="I" x1="287.942" x2="287.414" y1="315.272" y2="314.967" xlink:href="#a"/><linearGradient id="J" x1="282.53" x2="282.231" y1="319.215" y2="319.042" xlink:href="#a"/><linearGradient id="K" x1="276.701" x2="276.052" y1="323.47" y2="323.095" xlink:href="#a"/><linearGradient id="L" x1="293.522" x2="293.22" y1="310.542" y2="310.367" xlink:href="#a"/><linearGradient id="M" x1="270.778" x2="270.543" y1="326.992" y2="326.856" xlink:href="#a"/><linearGradient id="N" x1="298.473" x2="298.069" y1="306.203" y2="305.97" xlink:href="#a"/><linearGradient id="O" x1="344.11" x2="344.041" y1="236.305" y2="236.266" xlink:href="#a"/><linearGradient id="P" x1="303.725" x2="303.464" y1="301.029" y2="300.878" xlink:href="#a"/><linearGradient id="b" x1="178.857" x2="238.934" y1="209.972" y2="149.894" gradientUnits="userSpaceOnUse"><stop offset="0" stop-color="#51a2d1"/><stop offset="1" stop-color="#0e5688"/></linearGradient><linearGradient id="Q" x1="110.659" x2="183.141" y1="206.276" y2="133.794" xlink:href="#b"/></defs><path fill="url(#c)" d="M261.64217 222.44292a91.03429 91.03429 0 1 1 3.603-78.25885H350a172.29318 172.29318 0 1 0-1.74279 78.25885z"/><path fill="url(#d)" d="M348.25721 222.44292h-86.615a91.04766 91.04766 0 0 1-171.35963-42.34679c-.0023.32058-.01378.63877-.01378.9599 0 86.93451 74.89662 151.11716 168.005 152.71721a172.7037 172.7037 0 0 0 89.98341-111.33032z"/><path fill="url(#e)" d="M90.33585 176.89814c-.00688.22478-.01139.45019-.01708.67524q.00717-.33798.01708-.67524z" opacity=".59"/><path fill="url(#a)" d="M126.98919 252.6178c.18362.13677.37533.2628.56005.39829-.18472-.1354-.37643-.26161-.56005-.39829z"/><path fill="url(#f)" d="M130.54661 255.13816c.23616.159.482.3045.71979.46139-.23782-.1568-.48353-.30239-.71979-.46139z"/><path fill="url(#g)" d="M138.029 259.66889c.34759.18821.70675.3576 1.05709.5414-.35037-.1839-.70953-.3531-1.05709-.5414z"/><path fill="url(#h)" d="M134.22887 257.49069c.28769.17426.58595.33243.87576.50356-.28972-.17113-.58807-.3293-.87576-.50356z"/><path fill="url(#i)" d="M141.94151 261.667c.41482.19933.84186.37652 1.26018.56979-.41832-.19323-.84536-.37051-1.26018-.56979z"/><path fill="url(#j)" d="M117.24248 244.22514c-.04116-.04088-.08479-.07918-.12594-.12006.04115.04097.08478.07918.12594.12006z"/><path fill="url(#k)" d="M123.56166 249.93522c.13089.10756.26822.20732.39976.31415-.13154-.10683-.26887-.20659-.39976-.31415z"/><path fill="url(#l)" d="M114.10925 240.968l.0282.02948z"/><path fill="url(#m)" d="M120.26878 247.09566c.084.076.1726.14687.25692.22256-.08432-.07569-.17287-.1466-.25692-.22256z"/><path fill="url(#n)" d="M265.16046 330.11744q-.74238.41433-1.48909.8212.74694-.40714 1.48909-.8212z"/><path fill="url(#o)" d="M172.02719 270.13337c.99049.1004 1.993.1591 2.99269.22753-.99967-.06843-2.00211-.12713-2.99269-.22753z"/><path fill="url(#p)" d="M176.64354 270.484q2.32332.11753 4.67641.11822-2.35252-.00001-4.67641-.11822z"/><path fill="url(#q)" d="M258.27379 333.77324c-93.10837-1.60005-168.005-65.7827-168.005-152.71721 0-.32113.01148-.63932.01378-.9599v.0011c-.0011-.18289-.01378-.363-.01378-.54618A91.06714 91.06714 0 0 1 167.02267 89.626v-.646C92.16408 101.758 39.09956 165.693 39.09956 249.53252A108.2249 108.2249 0 0 0 45 284.95635a172.425 172.425 0 0 0 213.27921 48.81405z"/><path fill="url(#r)" d="M145.96189 263.47974c.47958.20227.97193.37964 1.45565.57392-.48372-.19428-.97607-.37166-1.45565-.57392z"/><path fill="url(#s)" d="M167.481 269.5566c.86226.13145 1.73682.224 2.6068.33124-.87004-.10711-1.74451-.19984-2.6068-.33124z"/><path fill="url(#t)" d="M163.008 268.7592c.742.15156 1.49644.26748 2.24488.40086-.74846-.13338-1.50288-.2493-2.24488-.40086z"/><path fill="url(#u)" d="M150.08422 265.10119c.55179.20163 1.11671.37515 1.67345.56621-.55674-.19106-1.12167-.36467-1.67345-.56621z"/><path fill="url(#v)" d="M158.612 267.74648c.67965.17453 1.37216.31589 2.05777.475-.68571-.15902-1.37812-.30048-2.05777-.475z"/><path fill="url(#w)" d="M154.30209 266.52515c.62748.19465 1.2679.35843 1.90107.53984-.63316-.18141-1.27369-.34519-1.90107-.53984z"/><path fill="url(#x)" d="M328.86665 268.59422c.24894-.41161.49153-.82689.73706-1.2407-.24544.41372-.48822.82928-.73706 1.2407z"/><path fill="url(#y)" d="M324.9554 274.75431c.22193-.33418.44909-.66422.66872-.99995-.21963.33573-.44679.66586-.66872.99995z"/><path fill="url(#z)" d="M332.28932 262.6658c.1636-.29651.33326-.58908.49511-.8866-.16185.29762-.3316.59009-.49511.8866z"/><path fill="url(#A)" d="M335.62041 256.32292c.2211-.44348.43678-.88981.65411-1.33541-.21724.4456-.43301.89202-.65411 1.33541z"/><path fill="url(#B)" d="M338.65746 249.90224c.10481-.234.2155-.46461.31929-.69912-.10375.23451-.21448.46516-.31929.69912z"/><path fill="url(#C)" d="M307.602 296.77388c.3351-.36081.673-.7185 1.005-1.08225-.332.36366-.67.72153-1.005 1.08225z"/><path fill="url(#D)" d="M312.58664 291.18037c.28586-.33583.56446-.67753.84775-1.01557-.2832.33794-.56189.67993-.84775 1.01557z"/><path fill="url(#E)" d="M316.71155 286.13331c.27778-.35236.55968-.70105.83479-1.0557-.27511.35456-.55701.70339-.83479 1.0557z"/><path fill="url(#F)" d="M321.17192 280.22988c.27089-.37561.53488-.75608.80274-1.134-.26786.37774-.53194.75849-.80274 1.134z"/><path fill="url(#G)" d="M346.0995 230.06931q.22458-.73358.44192-1.4698-.21825.73619-.44192 1.4698z"/><path fill="url(#H)" d="M341.38229 243.464c.18739-.46892.37064-.93969.554-1.41064-.18345.47096-.36661.94182-.554 1.41064z"/><path fill="url(#I)" d="M288.31961 314.6172c-.42548.33758-.85491.67046-1.28369 1.00409.42887-.33372.85808-.66642 1.28369-1.00409z"/><path fill="url(#J)" d="M282.72913 318.87062c-.23368.17039-.46259.34694-.6971.51614.2346-.1692.46342-.34576.6971-.51614z"/><path fill="url(#K)" d="M277.07683 322.81972q-.69733.46708-1.40063.926.70242-.4606 1.40063-.926z"/><path fill="url(#L)" d="M293.7769 310.10108c-.2718.23432-.53837.47453-.81155.70711.27327-.23268.53975-.47279.81155-.70711z"/><path fill="url(#M)" d="M270.90545 326.77175c-.16415.1-.32472.20539-.48923.305.16451-.0997.32508-.20487.48923-.305z"/><path fill="url(#N)" d="M298.84472 305.559c-.37983.35439-.76452.70344-1.14757 1.05442.38305-.35112.76774-.69999 1.14757-1.05442z"/><path fill="url(#O)" d="M343.998 236.49881c.05006-.14284.10444-.28356.15414-.42658-.0497.14302-.10414.28377-.15414.42658z"/><path fill="url(#P)" d="M303.16932 301.38747c.28651-.2865.56575-.57989.85023-.86841-.28439.28843-.56382.582-.85023.86841z"/><path fill="url(#b)" fill-rule="evenodd" d="M239.0439 181.79658a23.6557 23.6557 0 0 0-9.31049-9.35642q-6.39777-3.77145-21.18506-7.45646-5.97477-1.43943-7.56788-3.10925a4.96889 4.96889 0 0 1-1.643-3.62741 6.287 6.287 0 0 1 1.99154-4.69259q1.99155-1.92885 5.92484-1.92889a10.40617 10.40617 0 0 1 7.4932 2.591q2.71355 2.591 3.5599 8.29134l21.25984-1.43949q-1.39412-13.128-8.738-19.14483t-21.33451-6.01688q-11.4017 0-17.94877 3.31069a22.58686 22.58686 0 0 0-9.80845 9.09738 24.65557 24.65557 0 0 0-3.26118 12.293q0 9.90355 6.373 16.29471 6.32322 6.39115 21.16026 10.24889 9.06156 2.30322 11.551 4.89421a8.25693 8.25693 0 0 1 2.4894 5.87294 8.345 8.345 0 0 1-2.61387 6.07457q-2.61392 2.61971-7.44341 2.61975a11.32522 11.32522 0 0 1-9.9578-5.12449q-2.14091-3.16671-2.83791-9.21248l-21.459 1.55458q.946 12.78243 8.11552 21.07364t25.79057 8.29134q10.60515 0 17.57546-3.54107a25.51186 25.51186 0 0 0 10.854-10.39293 29.8412 29.8412 0 0 0 3.88351-14.97032 26.60831 26.60831 0 0 0-2.91271-12.49453z"/><path fill="url(#Q)" fill-rule="evenodd" d="M179.981 177.41943a24.58161 24.58161 0 0 1-4.06419-7.18162H148.695v-14.71717h26.05915a29.73158 29.73158 0 0 1 12.005-18.109h-60.68586v84.27876H148.695v-34.43589h31.286z"/></svg>