<svg xmlns="http://www.w3.org/2000/svg" width="18" height="18" viewBox="0 0 18 18"><defs><linearGradient id="bceb60dd-8b8c-4098-94f8-aeb4db2edaef" x1="9.033" y1="10.305" x2="9.033" y2="7.695" gradientUnits="userSpaceOnUse"><stop offset="0" stop-color="#5e9624" /><stop offset="0.241" stop-color="#6fb02a" /><stop offset="0.501" stop-color="#7cc52f" /><stop offset="0.756" stop-color="#83d232" /><stop offset="1" stop-color="#86d633" /></linearGradient></defs><g id="ac75c21e-2a93-464f-8048-f1518dab8b75"><g><path d="M9.031,7.7A1.305,1.305,0,1,0,10.338,9,1.305,1.305,0,0,0,9.031,7.7Z" fill="url(#bceb60dd-8b8c-4098-94f8-aeb4db2edaef)" /><g><path d="M2.961,7.374h.888a.284.284,0,0,1,.284.284v6.551a.568.568,0,0,1-.568.568H2.677a0,0,0,0,1,0,0V7.659A.284.284,0,0,1,2.961,7.374Z" transform="translate(13.653 16.485) rotate(134.919)" fill="#50e6ff" /><path d="M2.913,3.244H3.8a.284.284,0,0,1,.284.284v7.015a0,0,0,0,1,0,0H3.2a.568.568,0,0,1-.568-.568V3.528a.284.284,0,0,1,.284-.284Z" transform="translate(5.847 -0.358) rotate(44.919)" fill="#1490df" /><path d="M13.867,7.374h.888a.568.568,0,0,1,.568.568v6.551a.284.284,0,0,1-.284.284h-.888a.284.284,0,0,1-.284-.284V7.374a0,0,0,0,1,0,0Z" transform="translate(12.132 -7.079) rotate(45.081)" fill="#50e6ff" /><path d="M14.483,3.244h.888a0,0,0,0,1,0,0v7.015a.284.284,0,0,1-.284.284H14.2a.284.284,0,0,1-.284-.284V3.812a.568.568,0,0,1,.568-.568Z" transform="translate(29.879 1.435) rotate(135.081)" fill="#1490df" /></g></g></g></svg>