<svg version="1.1" id="Layer_1" xmlns="http://www.w3.org/2000/svg" xmlns:xlink="http://www.w3.org/1999/xlink" x="0px" y="0px"
         viewBox="0 0 432.1 445.4" style="enable-background:new 0 0 432.1 445.4;" xml:space="preserve" width='432.1' height='445.4'>
<style type="text/css">
        .st0{fill:none;stroke:#FFFFFF;stroke-width:12.4651;stroke-linecap:round;stroke-linejoin:round;}
        .st1{fill:none;stroke:#FFFFFF;stroke-width:12.4651;stroke-linecap:round;stroke-linejoin:bevel;}
        .st2{fill:#FFFFFF;stroke:#FFFFFF;stroke-width:4.155;}
        .st3{fill:#FFFFFF;stroke:#FFFFFF;stroke-width:2.0775;}
        .st4{fill:none;stroke:#FFFFFF;stroke-width:3;stroke-linecap:round;stroke-linejoin:round;}
</style>
<g id="orginal">
</g>
<g id="Layer_x0020_3">
        <path class="st0" d="M215.9,286.5c-1.4,49.5,0.3,99.4,5.2,111.5c4.8,12.1,15.2,35.7,50.9,28c29.8-6.4,40.7-18.8,45.4-46.1
                c3.5-20.1,10.1-75.9,11-87.3"/>
        <path class="st0" d="M173.1,38.3c0,0-161.5-66-154,84.1c1.6,31.9,45.8,241.7,98.5,178.3c19.3-23.2,36.7-41.3,36.7-41.3"/>
        <path class="st0" d="M260.3,26.2c-5.6,1.8,89.8-34.9,144.1,34.4c19.2,24.5-3,124.5-56.2,203.3"/>
        <path class="st1" d="M348.3,264c0,0,3.5,17,53.8,6.7c22-4.6,8.8,12.8-13.6,23.2c-18.3,8.5-59.5,10.7-60.1-1.1
                C326.6,262.3,350,271.6,348.3,264c-1.5-6.9-12-13.6-18.9-30.3c-6-14.6-82.8-126.8,21.3-110.2c3.8-0.8-27.1-99-124.6-100.6
                c-97.4-1.6-94.2,119.8-94.2,119.8"/>
        <path class="st0" d="M188.6,274.3c-13.6,15.2-9.6,17.8-36.7,23.4c-27.5,5.7-11.3,15.7-0.8,18.4c12.8,3.2,42.3,7.7,62.3-20.2
                c6.1-8.5,0-22.1-8.4-25.5C200.9,268.7,195.5,266.6,188.6,274.3L188.6,274.3z"/>
        <path class="st0" d="M187.7,274.1c-1.4-8.9,2.9-19.5,7.5-31.9c6.9-18.6,22.9-37.3,10.1-96.3c-9.5-44-73.4-9.2-73.4-3.2
                c0,6,2.9,30.3-1.1,58.5c-5.2,36.9,23.5,68.1,56.5,64.9"/>
        <path class="st2" d="M172.5,141.7c-0.3,2,3.7,7.5,9,8.2c5.2,0.7,9.7-3.5,10-5.6c0.3-2-3.7-4.3-9-5
                C177.3,138.6,172.8,139.7,172.5,141.7L172.5,141.7z"/>
        <path class="st3" d="M331.9,137.5c0.3,2-3.7,7.5-9,8.2c-5.2,0.7-9.7-3.5-10-5.6c-0.3-2,3.7-4.3,9-5S331.7,135.5,331.9,137.5
                L331.9,137.5z"/>
        <path class="st0" d="M350.7,123.4c0.9,16-3.4,26.9-4,43.9c-0.8,24.7,11.8,53.1-7.2,81.4"/>
        <path class="st4" d="M0,60.2"/>
</g>
</svg>