<svg width="1200" height="1200" viewBox="0 0 1200 1200" xmlns="http://www.w3.org/2000/svg" xmlns:xlink="http://www.w3.org/1999/xlink"><defs><path id="a" d="m.314 255.103 437.394 254.526 435.266-256.474L437.708.577z"/></defs><g fill="none" fill-rule="evenodd"><g transform="translate(212.696 779.01)" fill="#B6E2D6" fill-rule="nonzero" stroke="#FFF" stroke-width="4"><ellipse cx="65.11" cy="81.399" rx="62.962" ry="33.729"/><ellipse cx="389.921" cy="276.277" rx="62.962" ry="33.729"/><ellipse cx="714.733" cy="81.391" rx="62.962" ry="33.729"/><ellipse cx="224.268" cy="175.594" rx="62.962" ry="33.729"/><ellipse cx="555.575" cy="175.586" rx="62.962" ry="33.729"/><ellipse cx="389.921" cy="113.872" rx="62.962" ry="33.729"/><ellipse cx="224.268" cy="35.925" rx="62.962" ry="33.729"/><ellipse cx="555.575" cy="35.917" rx="62.962" ry="33.729"/></g><path fill="#1128A9" fill-rule="nonzero" d="m163.494 705.526 437.394 254.526 435.267-256.474L600.888 451z"/><g transform="translate(163.18 320)"><path fill="#87E3CB" fill-rule="nonzero" d="m.314 255.103 437.394 254.526 435.266-256.474L437.708.577z"/><mask id="b" fill="#fff"><use xlink:href="#a"/></mask><use fill="#C8FCEE" fill-rule="nonzero" xlink:href="#a"/><path stroke="#6ED3B9" stroke-width="45" mask="url(#b)" d="m-274.473 440.043 1354.029-794.366M-313.429 618.431l1354.028-794.366M37.4 564.914l1354.028-794.365M29.62 731.41 1383.648-62.956M203.895 790.872 1557.924-3.493M554.725 737.356 1908.753-57.01M548.778 903.851l1354.029-794.365"/><g mask="url(#b)" fill-rule="nonzero" stroke="#6ED3B9" stroke-width="45"><path d="M1911.204 392.473 557.175-401.893M1917.15 570.861 563.122-223.505m1003.199 740.849L212.292-277.021m1359.975 960.86L218.239-110.526m1181.586 853.828L45.797-51.064m1003.199 740.85L-305.032-104.58m1359.974 960.861L-299.086 61.915"/></g></g><g fill-rule="nonzero"><path fill="#1128A9" d="M275.472 555.486V201.022l265 506.93z"/><path fill="#569CF5" d="m600.472 577.621 220.025-126.457V139.352L600.472 262.298z"/><path fill="#FB8143" d="m689 524.645 178.008 104.749V385.96L689 279.621z"/><path fill="#569CF5" style="mix-blend-mode:overlay" d="m325.834 438.925 220.025-126.457V.656L325.834 123.602z" transform="translate(274.638 138.696)"/></g></g></svg>