<svg xmlns="http://www.w3.org/2000/svg" width="18" height="18" viewBox="0 0 18 18"><defs><linearGradient id="a" x1="9" y1="15.834" x2="9" y2="5.788" gradientUnits="userSpaceOnUse"><stop offset="0" stop-color="#32bedd"/><stop offset=".775" stop-color="#32d4f5"/></linearGradient></defs><path d="M.5 5.788h17v9.478a.568.568 0 01-.568.568H1.068a.568.568 0 01-.568-.568V5.788z" fill="url(#a)"/><path d="M1.071 2.166h15.858a.568.568 0 01.568.568v3.054H.5V2.734a.568.568 0 01.571-.568z" fill="#198ab3"/><path d="M12.818 6.945H9.737a.243.243 0 00-.243.243v6.646a.243.243 0 00.243.243h5.34a.243.243 0 00.244-.243v-4.4a.244.244 0 00-.244-.244h-1.772a.243.243 0 01-.243-.244V7.188a.243.243 0 00-.244-.243z" fill="#fff"/><path d="M12.706 7.256v1.669a.613.613 0 00.612.612H15v4.229H9.815v-6.51h2.891m.118-.365H9.7a.247.247 0 00-.247.247v6.746a.247.247 0 00.247.247h5.42a.247.247 0 00.247-.247V9.419a.248.248 0 00-.247-.247h-1.8a.247.247 0 01-.247-.247V7.138a.247.247 0 00-.247-.247z" fill="#c3f1ff"/><path d="M15.27 9.221l-2.284-2.276V8.8a.418.418 0 00.416.421z" fill="#50e6ff"/><path d="M6.251 6.945H3.169a.243.243 0 00-.243.243v6.646a.243.243 0 00.243.243H8.51a.243.243 0 00.243-.243v-4.4a.243.243 0 00-.243-.244H6.737a.243.243 0 01-.243-.244V7.188a.243.243 0 00-.243-.243z" fill="#fff"/><path d="M6.138 7.256v1.669a.613.613 0 00.612.612h1.682v4.229H3.248v-6.51h2.89m.118-.365H3.13a.246.246 0 00-.247.247v6.746a.246.246 0 00.247.247h5.419a.246.246 0 00.247-.247V9.419a.247.247 0 00-.247-.247H6.75a.248.248 0 01-.25-.247V7.138a.246.246 0 00-.247-.247z" fill="#c3f1ff"/><path d="M8.7 9.221L6.418 6.945V8.8a.418.418 0 00.416.421z" fill="#50e6ff"/></svg>