<svg width="40" height="40" viewBox="0 0 40 40" fill="none" xmlns="http://www.w3.org/2000/svg">
<g clip-path="url(#clip0_23298_3917)">
<path d="M40 0H0V40H40V0Z" fill="#01A88D" fill-opacity="0.12"/>
<path fill-rule="evenodd" clip-rule="evenodd" d="M11.934 21.8725C11.934 21.9147 11.945 21.9539 11.947 21.9961H14.1703V23.0012H12.0911C12.5954 24.9692 14.3614 26.4347 16.4747 26.4347C18.5889 26.4347 20.355 24.9692 20.8593 23.0012H18.708V21.9961H21.0033C21.0043 21.9539 21.0163 21.9147 21.0163 21.8725C21.0163 19.3577 18.9791 17.3103 16.4747 17.3103C13.9712 17.3103 11.934 19.3577 11.934 21.8725ZM10.9334 21.8725C10.9334 18.8029 13.4189 16.3052 16.4747 16.3052C19.5315 16.3052 22.0169 18.8029 22.0169 21.8725C22.0169 24.9421 19.5315 27.4398 16.4747 27.4398C13.4189 27.4398 10.9334 24.9421 10.9334 21.8725ZM9.91681 21.8725C9.91681 25.5049 12.8595 28.46 16.4747 28.46C20.0908 28.46 23.0335 25.5049 23.0335 21.8725C23.0335 18.2401 20.0908 15.2851 16.4747 15.2851C12.8595 15.2851 9.91681 18.2401 9.91681 21.8725ZM9.00927 23.0012H7.39232L8.11575 24.1903L7.26124 24.7139L6.07354 22.761C5.97549 22.6002 5.97549 22.3972 6.07354 22.2364L7.26124 20.2834L8.11575 20.8071L7.39232 21.9961H8.92222C8.92222 21.9549 8.91622 21.9147 8.91622 21.8725C8.91622 17.6863 12.3072 14.28 16.4747 14.28C20.6431 14.28 24.0341 17.6863 24.0341 21.8725C24.0341 21.9147 24.0281 21.9549 24.0281 21.9961H29.0091V23.0012H23.9411C23.3948 26.6528 20.2599 29.4651 16.4747 29.4651C12.6904 29.4651 9.55459 26.6528 9.00927 23.0012ZM15.5011 20.5307H15.9744V21.9961H15.0008V23.0012H18.0026V21.9961H16.975V20.5307H17.5023V21.0332H18.5029V20.0281C18.5029 19.7497 18.2797 19.5256 18.0026 19.5256H15.0008C14.7246 19.5256 14.5005 19.7497 14.5005 20.0281V21.0332H15.5011V20.5307ZM25.0067 20.0915H29.0091V19.0864H25.0067V20.0915ZM24.0061 26.0738H29.0091V25.0687H24.0061V26.0738ZM27.9464 13.9905H30.2398L27.9464 11.7692V13.9905ZM31.8267 14.1312C31.9248 14.2267 31.9798 14.3563 31.9798 14.493V32.4974C31.9798 32.7749 31.7567 33 31.4795 33H15.5491C15.273 33 15.0488 32.7749 15.0488 32.4974V30.0792H16.0494V31.9949H30.9792V14.9956H27.4461C27.17 14.9956 26.9458 14.7715 26.9458 14.493V11.0888H16.0494V12.9924H15.0488V10.5862C15.0488 10.3088 15.273 10.0837 15.5491 10.0837H27.4461C27.5762 10.0837 27.7003 10.1349 27.7933 10.2254L31.8267 14.1312ZM34 11.8888V31.0843H32.9994V12.0758L29.4983 8.0051H17.9125V8.97201H16.9119V7.50255C16.9119 7.22514 17.1351 7 17.4122 7H29.7265C29.8726 7 30.0096 7.06332 30.1047 7.17388L33.8779 11.5602C33.957 11.6516 34 11.7682 34 11.8888Z" fill="#01A88D"/>
</g>
<rect x="0.5" y="0.5" width="39" height="39" stroke="#01A88D"/>
<defs>
<clipPath id="clip0_23298_3917">
<rect width="40" height="40" fill="white"/>
</clipPath>
</defs>
</svg>
