<svg width="40" height="40" viewBox="0 0 40 40" fill="none" xmlns="http://www.w3.org/2000/svg">
<g clip-path="url(#clip0_23295_3323)">
<path d="M40 0H0V40H40V0Z" fill="#ED7100" fill-opacity="0.12"/>
<path fill-rule="evenodd" clip-rule="evenodd" d="M20 31.0579C19.055 31.0579 18.14 30.9366 17.257 30.7281L20 21.564L22.743 30.7281C21.86 30.9366 20.945 31.0579 20 31.0579ZM12.416 19.8219H15.602C15.704 22.455 16.396 24.8355 17.477 26.2638C14.656 25.3277 12.681 22.8048 12.416 19.8219ZM17.474 12.0359C16.931 12.7506 16.48 13.7038 16.156 14.8284C15.463 14.667 14.818 14.4605 14.243 14.211C15.104 13.2317 16.211 12.4709 17.474 12.0359ZM25.471 14.1669C24.907 14.4205 24.268 14.6279 23.584 14.7943C23.258 13.6797 22.809 12.7346 22.269 12.0269C23.514 12.4509 24.611 13.2016 25.471 14.1669ZM22.432 26.2027L22.397 26.0884C23.418 24.6411 24.053 22.3608 24.149 19.8219H27.334C27.072 22.7206 25.156 25.2224 22.432 26.2027ZM23.149 19.8219C23.07 21.7394 22.658 23.5145 22.009 24.7914L20.521 19.8219H23.149ZM24.162 18.8196C24.143 17.7331 24.027 16.7037 23.828 15.7646C24.662 15.5611 25.43 15.2945 26.103 14.9707C26.854 16.0843 27.31 17.4054 27.373 18.8196H24.162ZM19.742 11.627C19.786 11.621 19.823 11.622 19.87 11.622C19.914 11.621 19.952 11.621 20.016 11.63C20.979 11.7363 21.984 13.0012 22.594 14.9998C21.71 15.1501 20.769 15.2313 19.803 15.2313C18.887 15.2313 17.992 15.1612 17.148 15.0259C17.757 13.0122 18.767 11.7352 19.742 11.627ZM16.9 15.9981C17.825 16.1515 18.804 16.2336 19.803 16.2336C20.853 16.2336 21.878 16.1414 22.843 15.972C23.027 16.829 23.142 17.7852 23.162 18.8196H16.588C16.608 17.7963 16.72 16.8491 16.9 15.9981ZM12.377 18.8196C12.439 17.4284 12.879 16.1274 13.609 15.0249C14.294 15.3426 15.072 15.6032 15.913 15.7996C15.72 16.7288 15.607 17.7461 15.588 18.8196H12.377ZM17.899 25.0981C17.155 23.8081 16.686 21.9148 16.602 19.8219H19.479L17.899 25.0981ZM31.234 14.7913C31.742 16.1454 32 17.5707 32 19.0301C32 24.3654 28.514 28.8939 23.707 30.4635L22.725 27.1819C26.083 26.0002 28.39 22.7707 28.39 19.1504C28.39 14.5588 24.663 10.7369 20.143 10.6357C19.951 10.6076 19.729 10.6127 19.658 10.6307C19.645 10.6307 19.632 10.6327 19.618 10.6337H19.615H19.613C15.059 10.764 11.36 14.5738 11.36 19.1504C11.36 22.892 13.759 26.1536 17.25 27.2651L16.293 30.4635C11.486 28.8939 8 24.3654 8 19.0301C8 12.3978 13.383 7.00232 20 7.00232C22.85 7.00232 25.54 7.98759 27.693 9.79878H25.5V10.8011H29.5V6.79183H28.5V9.18235C26.139 7.1276 23.163 6 20 6C12.832 6 7 11.8455 7 19.0301C7 24.8175 10.787 29.7308 16.006 31.4247L15.021 34.7123L15.979 35L16.97 31.6883C17.943 31.9229 18.955 32.0602 20 32.0602C21.045 32.0602 22.057 31.9229 23.03 31.6883L24.021 35L24.979 34.7123L23.994 31.4247C29.213 29.7308 33 24.8175 33 19.0301C33 17.4505 32.721 15.9049 32.17 14.4385L31.234 14.7913Z" fill="#ED7100"/>
</g>
<rect x="0.5" y="0.5" width="39" height="39" stroke="#ED7100"/>
<defs>
<clipPath id="clip0_23295_3323">
<rect width="40" height="40" fill="white"/>
</clipPath>
</defs>
</svg>
