<svg width="40" height="40" viewBox="0 0 40 40" fill="none" xmlns="http://www.w3.org/2000/svg">
<g clip-path="url(#clip0_23298_4075)">
<path d="M40 0H0V40H40V0Z" fill="#E7157B" fill-opacity="0.12"/>
<path fill-rule="evenodd" clip-rule="evenodd" d="M10.8475 23.3403L13.0198 25.4125L13.7357 24.7139L11.5635 22.6417L10.8475 23.3403ZM15.9172 28.1765L18.0884 30.2488L18.8044 29.5502L16.6331 27.4779L15.9172 28.1765ZM28.1452 16.3532L30.2889 18.4529L31.015 17.7641L28.8713 15.6644L28.1452 16.3532ZM26.0137 12.863L23.8699 10.7623L23.1438 11.4511L25.2875 13.5518L26.0137 12.863ZM22.2394 29.5502L22.9554 30.2488L25.1266 28.1755L24.4107 27.4769L22.2394 29.5502ZM27.307 24.7129L28.023 25.4115L30.1952 23.3393L29.4793 22.6407L27.307 24.7129ZM12.199 15.6693L10.0491 17.7632L10.7732 18.4549L12.9231 16.361L12.199 15.6693ZM17.9418 11.4747L17.2177 10.7829L15.0668 12.8778L15.7909 13.5695L17.9418 11.4747ZM23.0195 20.5802H20.9909V22.4373C21.4858 22.3439 21.9584 22.113 22.3413 21.7436C22.6794 21.4174 22.9045 21.0155 23.0195 20.5802ZM19.9725 22.4373V20.5802H17.9448C18.0579 21.0067 18.2758 21.4115 18.621 21.7436C19.004 22.113 19.4775 22.3439 19.9725 22.4373ZM17.8868 19.5976H19.9725V17.4605C19.4775 17.5539 19.004 17.7848 18.621 18.1542C18.2015 18.56 17.9621 19.07 17.8868 19.5976ZM20.9909 17.4605V19.5976H23.0766C22.9992 19.0543 22.7507 18.5492 22.3413 18.1542C21.9584 17.7858 21.4858 17.5539 20.9909 17.4605ZM29.3897 20.0909L26.9343 22.4058L26.2224 21.7033L27.414 20.5802H24.0665C23.9361 21.2798 23.5939 21.9254 23.0613 22.4383C22.4808 22.9993 21.7486 23.3187 20.9909 23.4208V26.8166L22.2415 25.6208L22.9584 26.3185L20.4745 28.6953L18.0813 26.3106L18.8125 25.6277L19.9725 26.7822V23.4208C19.2148 23.3187 18.4825 22.9993 17.901 22.4383C17.3572 21.9136 17.0242 21.2611 16.8969 20.5802H13.6003L14.859 21.6915L14.1737 22.4176L11.5289 20.085L14.1777 17.8034L14.856 18.5364L13.6237 19.5976H16.8694C16.9498 18.8175 17.2818 18.057 17.901 17.4595C18.4825 16.8985 19.2148 16.5801 19.9725 16.477V13.4025L18.8298 14.5501L18.0955 13.8682L20.4715 11.4835L22.9727 13.8594L22.2588 14.559L20.9909 13.3553V16.477C21.7486 16.5792 22.4808 16.8985 23.0613 17.4595C23.6632 18.0402 24.0125 18.7919 24.095 19.5976H27.4191L26.2214 18.4588L26.9353 17.7582L29.3897 20.0909ZM19.3492 31.8769L20.5132 33L21.6783 31.8769L20.5132 30.7528L19.3492 31.8769ZM7 20.082L8.31985 21.3555L9.63971 20.082L8.31985 18.8076L7 20.082ZM32.7463 18.8715L31.4917 20.082L32.7463 21.2926L34 20.082L32.7463 18.8715ZM20.4817 9.42992L19.2229 8.21447L20.4817 7L21.7404 8.21447L20.4817 9.42992Z" fill="#E7157B"/>
</g>
<rect x="0.5" y="0.5" width="39" height="39" stroke="#E7157B"/>
<defs>
<clipPath id="clip0_23298_4075">
<rect width="40" height="40" fill="white"/>
</clipPath>
</defs>
</svg>
