<svg width="40" height="40" viewBox="0 0 40 40" fill="none" xmlns="http://www.w3.org/2000/svg">
<g clip-path="url(#clip0_23296_3561)">
<path d="M40 0H0V40H40V0Z" fill="#C925D1" fill-opacity="0.12"/>
<path fill-rule="evenodd" clip-rule="evenodd" d="M30.5 32.9C29.121 32.9 28 31.778 28 30.4C28 29.022 29.121 27.9 30.5 27.9C31.879 27.9 33 29.022 33 30.4C33 31.778 31.879 32.9 30.5 32.9ZM21.768 32.268C20.824 33.212 19.176 33.212 18.232 32.268C17.76 31.796 17.5 31.168 17.5 30.5C17.5 29.833 17.76 29.205 18.232 28.733C18.704 28.26 19.332 28 20 28C20.668 28 21.296 28.26 21.768 28.733C22.24 29.205 22.5 29.833 22.5 30.5C22.5 31.168 22.24 31.796 21.768 32.268ZM7.732 22.268C7.26 21.796 7 21.168 7 20.5C7 19.833 7.26 19.205 7.732 18.733C8.204 18.26 8.832 18 9.5 18C10.168 18 10.796 18.26 11.268 18.733C11.74 19.205 12 19.833 12 20.5C12 21.168 11.74 21.796 11.268 22.268C10.324 23.212 8.676 23.212 7.732 22.268ZM18.232 8.733C18.704 8.26 19.332 8 20 8C20.668 8 21.296 8.26 21.768 8.733C22.24 9.205 22.5 9.833 22.5 10.5C22.5 11.168 22.24 11.796 21.768 12.268C20.824 13.212 19.176 13.212 18.232 12.268C17.76 11.796 17.5 11.168 17.5 10.5C17.5 9.833 17.76 9.205 18.232 8.733ZM30.5 8C31.879 8 33 9.122 33 10.5C33 11.879 31.879 13 30.5 13C29.121 13 28 11.879 28 10.5C28 9.122 29.121 8 30.5 8ZM30.5 26.9C28.707 26.9 27.242 28.26 27.04 30H23.451C23.345 29.256 23.016 28.566 22.475 28.025C21.254 26.803 19.199 26.726 17.851 27.763L12.347 22.521C12.766 21.934 13 21.236 13 20.5C13 19.763 12.767 19.066 12.347 18.479L17.848 13.24C18.462 13.724 19.206 14 20 14C20.935 14 21.813 13.636 22.475 12.975C23.016 12.434 23.345 11.744 23.451 11H27.051C27.296 12.692 28.742 14 30.5 14C32.43 14 34 12.43 34 10.5C34 8.57 32.43 7 30.5 7C28.742 7 27.296 8.308 27.051 10H23.451C23.345 9.256 23.016 8.566 22.475 8.025C21.154 6.703 18.846 6.703 17.525 8.025C16.864 8.686 16.5 9.565 16.5 10.5C16.5 11.237 16.733 11.934 17.153 12.522L11.649 17.763C10.301 16.726 8.246 16.803 7.025 18.025C6.364 18.686 6 19.565 6 20.5C6 21.435 6.364 22.314 7.025 22.975C7.686 23.636 8.564 24 9.5 24C10.293 24 11.038 23.724 11.652 23.24L17.153 28.479C16.733 29.066 16.5 29.763 16.5 30.5C16.5 31.435 16.864 32.314 17.525 32.975C18.186 33.636 19.064 34 20 34C20.935 34 21.813 33.636 22.475 32.975C23.016 32.434 23.345 31.744 23.451 31H27.061C27.347 32.644 28.776 33.9 30.5 33.9C32.43 33.9 34 32.33 34 30.4C34 28.47 32.43 26.9 30.5 26.9ZM9.5 32C8.673 32 8 31.327 8 30.5C8 29.673 8.673 29 9.5 29C10.327 29 11 29.673 11 30.5C11 31.327 10.327 32 9.5 32ZM9.5 28C8.121 28 7 29.122 7 30.5C7 31.879 8.121 33 9.5 33C10.879 33 12 31.879 12 30.5C12 29.122 10.879 28 9.5 28ZM30.5 22C29.673 22 29 21.327 29 20.5C29 19.673 29.673 19 30.5 19C31.327 19 32 19.673 32 20.5C32 21.327 31.327 22 30.5 22ZM30.5 18C29.121 18 28 19.122 28 20.5C28 21.879 29.121 23 30.5 23C31.879 23 33 21.879 33 20.5C33 19.122 31.879 18 30.5 18ZM20 22C19.173 22 18.5 21.327 18.5 20.5C18.5 19.673 19.173 19 20 19C20.827 19 21.5 19.673 21.5 20.5C21.5 21.327 20.827 22 20 22ZM20 18C18.621 18 17.5 19.122 17.5 20.5C17.5 21.879 18.621 23 20 23C21.379 23 22.5 21.879 22.5 20.5C22.5 19.122 21.379 18 20 18ZM9.5 9C10.327 9 11 9.673 11 10.5C11 11.327 10.327 12 9.5 12C8.673 12 8 11.327 8 10.5C8 9.673 8.673 9 9.5 9ZM9.5 13C10.879 13 12 11.879 12 10.5C12 9.122 10.879 8 9.5 8C8.121 8 7 9.122 7 10.5C7 11.879 8.121 13 9.5 13Z" fill="#C925D1"/>
</g>
<rect x="0.5" y="0.5" width="39" height="39" stroke="#C925D1"/>
<defs>
<clipPath id="clip0_23296_3561">
<rect width="40" height="40" fill="white"/>
</clipPath>
</defs>
</svg>
