<?xml version="1.0" encoding="UTF-8"?><!DOCTYPE svg>
<svg xmlns="http://www.w3.org/2000/svg" width="20" height="20" viewBox="0 0 500 500" version="1.1" xmlns="http://www.w3.org/2000/svg" xmlns:_xmlns="xmlns" _xmlns:xlink="http://www.w3.org/1999/xlink">
    <!-- Generator: Sketch 51.3 (57544) - http://www.bohemiancoding.com/sketch -->
    <title xmlns="http://www.w3.org/2000/svg">porter-icon-white</title>
    <desc xmlns="http://www.w3.org/2000/svg">Created with Sketch.</desc>
    <defs xmlns="http://www.w3.org/2000/svg">
        <rect xmlns="http://www.w3.org/2000/svg" id="path-1" x="0" y="0.696843075" width="54.6111366" height="31.5750453"></rect>
        <rect xmlns="http://www.w3.org/2000/svg" id="path-3" x="0" y="0.696843075" width="54.6111366" height="31.5750453"></rect>
    </defs>
    <g xmlns="http://www.w3.org/2000/svg" id="porter-icon-white" stroke="none" stroke-width="1" fill="none" fill-rule="evenodd">
        <path xmlns="http://www.w3.org/2000/svg" d="M105.948979,331.623047 C98.6327326,329.820964 91.8108063,325.311678 85.4832002,318.09519 C67.3495225,301.125835 73.3549791,279.511444 82.1267977,263.398261 C86.8552924,255.116684 85.6676243,249.178927 78.5637936,245.584991 C70.493487,241.898843 63.3406321,245.855207 57.1052289,257.454084 C47.7521241,274.8524 45.9977604,304.258684 62.280777,325.974069 C78.5637936,347.689453 85.4832002,351.507812 102.998047,358.058594" id="T-A-I-L" stroke="#FFFFFF" stroke-width="9" fill-rule="nonzero"></path>
        <path xmlns="http://www.w3.org/2000/svg" d="M205.945207,445.607961 C195.125246,441.925401 184.889041,436.775544 175.501788,430.327395 L175.501788,479.421387 C175.501788,487.429516 181.993659,493.921387 190.001788,493.921387 L191.445207,493.921387 C199.453336,493.921387 205.945207,487.429516 205.945207,479.421387 L205.945207,445.607961 Z" id="Combined-Shape" stroke="#FFFFFF" stroke-width="9" fill-rule="nonzero"></path>
        <path xmlns="http://www.w3.org/2000/svg" d="M320.689699,427.770646 C311.372565,434.663742 301.131618,440.244903 290.24628,444.325946 L290.24628,479.421387 C290.24628,487.429516 296.738151,493.921387 304.74628,493.921387 L306.189699,493.921387 C314.197828,493.921387 320.689699,487.429516 320.689699,479.421387 L320.689699,427.770646 Z" id="Combined-Shape" stroke="#FFFFFF" stroke-width="9" fill-rule="nonzero"></path>
        <path xmlns="http://www.w3.org/2000/svg" d="M283.258476,71.1756783 L318.95112,46.4506266 L318.95112,86.8726889 C352.630783,107.797395 374.597993,142.150782 374.597993,180.98234 C374.597993,214.192027 358.53099,244.126344 332.811522,265.186581 C349.162111,284.819069 358.997426,310.068758 358.997426,337.615608 C358.997426,400.160878 308.294467,450.863837 245.749198,450.863837 C199.372897,450.863837 159.507477,422.987444 141.995117,383.076839 C141.303732,395.755379 136.38106,403.426137 127.227104,406.089121 C114.300819,405.604836 106.847093,395.049689 104.865927,374.423679 C102.022531,344.820958 108.605904,302.391917 153.24401,272.269994 C154.154212,270.983832 155.090561,269.717486 156.052284,268.471729 C127.901902,247.30221 110.079825,215.958852 110.079825,180.98234 C110.079825,162.100028 115.273989,144.276582 124.483255,128.541107 L124.483255,69.6480692 L157.430045,92.47101 C180.403721,75.6640121 210.017348,65.54455 242.338909,65.54455 C256.620535,65.54455 270.373461,67.5202821 283.258476,71.1756766 Z" id="Combined-Shape" stroke="#FFFFFF" stroke-width="9" stroke-linejoin="round" fill-rule="nonzero"></path>
        <path xmlns="http://www.w3.org/2000/svg" d="M327.615099,246.521642 C372.167725,236.288028 402.447423,224.691283 418.454196,211.731406 C442.464354,192.29159 452.489928,187.724085 461.690312,193.790577 C473.445938,204.553899 471.093674,215.362287 452.182616,230.941965 C447.05907,235.162944 441.262283,239.955356 434.103927,244.986614 C414.840719,258.525779 385.717655,273.794554 333.321235,284.311813" id="arm" stroke="#FFFFFF" stroke-width="9" fill-rule="nonzero" transform="translate(398.241907, 237.798798) rotate(-17.000000) translate(-398.241907, -237.798798) "></path>
        <path xmlns="http://www.w3.org/2000/svg" d="M156.572266,407.916016 C145.559245,397.537109 140.052734,382.475911 140.052734,362.732422 C140.052734,342.988932 145.559245,328.294271 156.572266,318.648438" id="Path-2" stroke="#FFFFFF" stroke-width="9" stroke-linecap="round" fill-rule="nonzero"></path>
        <g xmlns="http://www.w3.org/2000/svg" id="mouth" transform="translate(215.526724, 195.230898)">
            <g xmlns="http://www.w3.org/2000/svg" id="Group-10" transform="translate(43.718508, 12.962351)">
                <mask xmlns="http://www.w3.org/2000/svg" id="mask-2" fill="white">
                    <use xmlns="http://www.w3.org/2000/svg" xmlns:xlink="http://www.w3.org/1999/xlink" xlink:href="#path-1"></use>
                </mask>
                <g xmlns="http://www.w3.org/2000/svg" id="Rectangle-5" fill-rule="nonzero"></g>
                <path xmlns="http://www.w3.org/2000/svg" d="M7.21529553,3.23091163 C9.2132032,9.89697408 18.6706522,14.945358 30.0361251,14.945358 C40.0349646,14.945358 48.5570506,11.0380599 51.8223297,5.5594468 C52.0777328,6.41160494 52.2112331,7.29019896 52.2112331,8.1880619 C52.2112331,16.109516 41.8198817,22.5311234 29.0015001,22.5311234 C16.1831185,22.5311234 5.79176702,16.109516 5.79176702,8.1880619 C5.79176702,6.44565208 6.29452947,4.77580901 7.21529553,3.23091163 Z" id="Combined-Shape" fill="#FFFFFF" fill-rule="nonzero" mask="url(#mask-2)"></path>
            </g>
            <g xmlns="http://www.w3.org/2000/svg" id="Group-10" transform="translate(27.872246, 29.462351) scale(-1, 1) translate(-27.872246, -29.462351) translate(0.372246, 12.962351)">
                <mask xmlns="http://www.w3.org/2000/svg" id="mask-4" fill="white">
                    <use xmlns="http://www.w3.org/2000/svg" xmlns:xlink="http://www.w3.org/1999/xlink" xlink:href="#path-3"></use>
                </mask>
                <g xmlns="http://www.w3.org/2000/svg" id="Rectangle-5" fill-rule="nonzero"></g>
                <path xmlns="http://www.w3.org/2000/svg" d="M7.21529553,3.23091163 C9.2132032,9.89697408 18.6706522,14.945358 30.0361251,14.945358 C40.0349646,14.945358 48.5570506,11.0380599 51.8223297,5.5594468 C52.0777328,6.41160494 52.2112331,7.29019896 52.2112331,8.1880619 C52.2112331,16.109516 41.8198817,22.5311234 29.0015001,22.5311234 C16.1831185,22.5311234 5.79176702,16.109516 5.79176702,8.1880619 C5.79176702,6.44565208 6.29452947,4.77580901 7.21529553,3.23091163 Z" id="Combined-Shape" fill="#FFFFFF" fill-rule="nonzero" mask="url(#mask-4)"></path>
            </g>
            <polygon xmlns="http://www.w3.org/2000/svg" id="Path-24" fill="#FFFFFF" fill-rule="nonzero" points="39.4884259 0 59.5743147 0 49.5313703 20.9052923"></polygon>
        </g>
        <path xmlns="http://www.w3.org/2000/svg" d="M220.369093,184.521595 C208.486912,184.521595 198.854501,174.889184 198.854501,163.007003 C198.854501,151.124822 208.486912,141.492411 220.369093,141.492411 C232.251274,141.492411 241.883685,151.124822 241.883685,163.007003 C241.883685,174.889184 232.251274,184.521595 220.369093,184.521595 Z M221.594696,177.350064 C225.555423,177.350064 228.766227,170.928457 228.766227,163.007003 C228.766227,155.085549 225.555423,148.663941 221.594696,148.663941 C217.633969,148.663941 214.423166,155.085549 214.423166,163.007003 C214.423166,170.928457 217.633969,177.350064 221.594696,177.350064 Z" id="Combined-Shape" fill="#FFFFFF" fill-rule="nonzero"></path>
        <path xmlns="http://www.w3.org/2000/svg" d="M302.841696,184.521595 C290.959515,184.521595 281.327104,174.889184 281.327104,163.007003 C281.327104,151.124822 290.959515,141.492411 302.841696,141.492411 C314.723878,141.492411 324.356289,151.124822 324.356289,163.007003 C324.356289,174.889184 314.723878,184.521595 302.841696,184.521595 Z M304.0673,177.350064 C308.028027,177.350064 311.238831,170.928457 311.238831,163.007003 C311.238831,155.085549 308.028027,148.663941 304.0673,148.663941 C300.106573,148.663941 296.895769,155.085549 296.895769,163.007003 C296.895769,170.928457 300.106573,177.350064 304.0673,177.350064 Z" id="Combined-Shape" fill="#FFFFFF" fill-rule="nonzero"></path>
        <polygon xmlns="http://www.w3.org/2000/svg" id="ear-left" fill="#FFFFFF" fill-rule="nonzero" points="136.947567 92.596472 136.947567 143.231401 170.81274 117.913937"></polygon>
        <polyline xmlns="http://www.w3.org/2000/svg" id="ear-right" fill="#FFFFFF" fill-rule="nonzero" points="286.067248 83.7904096 308.077334 65.5796939 308.077334 100.878823 286.067248 86.2888896"></polyline>
        <path xmlns="http://www.w3.org/2000/svg" d="M282.252244,69.1821284 L260.691565,10.1479279 C222.498066,-2.00843468 187.489012,7.66322944 155.664401,39.1629203 C155.664401,52.0974914 155.664401,52.0974914 155.664401,98.4040727 C180.277203,104.468722 222.473151,94.7280742 282.252244,69.1821284 Z" id="Path-14" fill="#FFFFFF" fill-rule="nonzero" transform="translate(218.958322, 52.609876) rotate(2.000000) translate(-218.958322, -52.609876) "></path>
        <g xmlns="http://www.w3.org/2000/svg" id="bow" transform="translate(200.000000, 261.000000)" fill="#FFFFFF" fill-rule="nonzero">
            <polygon xmlns="http://www.w3.org/2000/svg" id="Path-3" points="0.0824604699 0.485986828 0.0824604699 61.9692568 119.432865 0.485986828 119.432865 61.9692568"></polygon>
            <circle xmlns="http://www.w3.org/2000/svg" id="Oval" stroke="#FFFFFF" cx="59.7576626" cy="31.2276218" r="11.9760004"></circle>
        </g>
        <g xmlns="http://www.w3.org/2000/svg" id="whiskers" transform="translate(98.286481, 164.359442)" fill-rule="nonzero" stroke="#FFFFFF" stroke-linecap="round" stroke-width="9">
            <path xmlns="http://www.w3.org/2000/svg" d="M263.285617,6.64340189 L292.810195,0.169406214" id="Path-26"></path>
            <path xmlns="http://www.w3.org/2000/svg" d="M259.37948,34.7208561 L289.544801,36.6357287" id="Path-26"></path>
            <path xmlns="http://www.w3.org/2000/svg" d="M24.7788705,47.4971718 L0.984979814,49.7606782" id="Path-26"></path>
            <path xmlns="http://www.w3.org/2000/svg" d="M24.1262318,21.4086639 L3.88761473,19.6127342" id="Path-27"></path>
        </g>
    </g>
</svg>