<svg id="b22ed3e5-87c6-4948-a12d-e9a9fca349ea" xmlns="http://www.w3.org/2000/svg" width="18" height="18" viewBox="0 0 18 18"><defs><linearGradient id="bcef103b-843d-4013-b1c2-e8a2aae470a0" x1="-28.849" y1="86.754" x2="-28.849" y2="90.154" gradientTransform="matrix(0.996, 0.094, 0.094, -0.996, 27.113, 101.637)" gradientUnits="userSpaceOnUse"><stop offset="0" stop-color="#5e9624" /><stop offset="0.82" stop-color="#86d633" /></linearGradient><linearGradient id="ea571810-8d90-40aa-999d-651c193a1569" x1="7.82" y1="16.227" x2="7.82" y2="19.627" gradientTransform="matrix(1, 0.011, 0.011, -1, 3.112, 33.079)" gradientUnits="userSpaceOnUse"><stop offset="0" stop-color="#5e9624" /><stop offset="0.82" stop-color="#86d633" /></linearGradient><linearGradient id="fa592d4d-7ce2-44f1-a7bf-5d222d3b4636" x1="-20.227" y1="87.696" x2="-20.227" y2="91.096" gradientTransform="matrix(0.997, 0.091, 0.091, -0.997, 27.793, 101.286)" gradientUnits="userSpaceOnUse"><stop offset="0" stop-color="#5e9624" /><stop offset="0.82" stop-color="#86d633" /></linearGradient><linearGradient id="e1fa3ab3-0d79-400b-9c04-fd67eb2c16ce" x1="-33.251" y1="80.916" x2="-33.251" y2="84.316" gradientTransform="matrix(0.997, 0.091, 0.091, -0.997, 27.799, 101.286)" gradientUnits="userSpaceOnUse"><stop offset="0" stop-color="#5e9624" /><stop offset="0.82" stop-color="#86d633" /></linearGradient></defs><polygon points="2.59 16.55 1.53 15.61 6.71 9.81 11.12 14.35 15.28 9.94 16.31 10.91 11.13 16.4 6.76 11.88 2.59 16.55" fill="#76bc2d" /><circle cx="6.732" cy="10.857" r="1.7" fill="url(#bcef103b-843d-4013-b1c2-e8a2aae470a0)" /><circle cx="11.122" cy="15.236" r="1.7" fill="url(#ea571810-8d90-40aa-999d-651c193a1569)" /><circle cx="15.799" cy="10.277" r="1.7" fill="url(#fa592d4d-7ce2-44f1-a7bf-5d222d3b4636)" /><circle cx="2.203" cy="15.8" r="1.7" fill="url(#e1fa3ab3-0d79-400b-9c04-fd67eb2c16ce)" /><path d="M14.18,8.308,11,11.529,7.791,8.308a4.45,4.45,0,0,1-.086-6.293c.028-.029.057-.057.086-.085a4.47,4.47,0,0,1,6.323-.066l.066.066a4.471,4.471,0,0,1,.055,6.323Z" fill="#0078d4" fill-rule="evenodd" /><path d="M8.26,4.233a2.878,2.878,0,0,0,.291,2.241,2.778,2.778,0,0,0,.522.636,2.919,2.919,0,0,0,.656.469,3.306,3.306,0,0,0,.761.26,2.7,2.7,0,0,0,.823,0l-.072-.781a.167.167,0,0,0-.157-.146,1.938,1.938,0,0,1-.417,0,2.3,2.3,0,0,1-.51-.177,1.944,1.944,0,0,1-.449-.313,1.826,1.826,0,0,1-.354-.438,1.742,1.742,0,0,1-.25-.709,2.055,2.055,0,0,1,0-.75l.271.448a.166.166,0,0,0,.219,0l.365-.094a.167.167,0,0,0,.052-.219l-.9-1.469a.165.165,0,0,0-.2-.1l-1.521.9a.166.166,0,0,0,0,.219l.187.323a.167.167,0,0,0,.219.062Z" fill="#fff" /><path d="M11.418,3.118a1.746,1.746,0,0,1,.51.177,1.883,1.883,0,0,1,.8.74,1.865,1.865,0,0,1,.25.719,2.071,2.071,0,0,1,0,.761l-.26-.448A.167.167,0,0,0,12.5,5l-.323.2a.157.157,0,0,0-.068.211l0,.008.907,1.512a.157.157,0,0,0,.21.067l.009,0,1.511-.907a.156.156,0,0,0,0-.219l-.188-.323a.168.168,0,0,0-.219,0l-.521.313A2.824,2.824,0,0,0,13.9,4.713a2.686,2.686,0,0,0-.375-1.1,2.773,2.773,0,0,0-.511-.646,3.254,3.254,0,0,0-.667-.459,2.752,2.752,0,0,0-.761-.26,2.766,2.766,0,0,0-.646-.1.166.166,0,0,0-.146.177v.615a.168.168,0,0,0,.157.146A1.8,1.8,0,0,1,11.418,3.118Z" fill="#fff" /></svg>