<svg width="40" height="40" viewBox="0 0 40 40" xmlns="http://www.w3.org/2000/svg">  <g id="Icon-Architecture/32/Arch_AWS-Thinkbox-XMesh_32" stroke="none" stroke-width="1" fill="none" fill-rule="evenodd">  <g id="Icon-Service/32/AWS-ThinkBox-XMesh_32" transform="translate(6.000000, 6.000000)" fill="#FFFFFF"> <path d="M19.715,14.58 L17.558,15.851 L23.757,19.571 C23.907,19.661 23.999,19.823 24,19.998 L24,22.615 L26,21.238 L26,18.286 L19.715,14.58 Z M13.754,17.232 L23,22.689 L23.001,20.284 L16.429,16.34 C16.304,16.306 16.196,16.224 16.131,16.112 C16.015,15.915 16.037,15.647 16.2,15.487 C16.271,15.416 16.357,15.368 16.447,15.345 L25.56,9.974 L23.486,8.591 L3.757,20.429 C3.678,20.476 3.589,20.5 3.5,20.5 C3.403,20.5 3.307,20.472 3.223,20.416 L1,18.934 L1,21.238 L3.507,22.974 L13.246,17.232 C13.403,17.14 13.598,17.14 13.754,17.232 L13.754,17.232 Z M7.285,13.419 L9.442,12.148 L3.243,8.429 C3.093,8.339 3.001,8.177 3,8.002 L2.989,5.385 L1,6.762 L1,9.714 L7.285,13.419 Z M13.246,10.767 L3.989,5.31 L3.999,7.716 L10.677,11.724 C10.828,11.814 10.921,11.978 10.92,12.154 C10.919,12.33 10.826,12.494 10.674,12.583 L1.441,18.026 L3.514,19.409 L23.243,7.571 C23.408,7.471 23.616,7.476 23.777,7.584 L26,9.066 L26,6.762 L23.493,5.026 L13.754,10.767 C13.598,10.86 13.403,10.86 13.246,10.767 L13.246,10.767 Z M26.754,10.431 L20.699,14 L26.754,17.569 C26.906,17.659 27,17.823 27,18 L27,21.5 C27,21.664 26.92,21.818 26.784,21.911 L23.799,23.978 C23.714,24.037 23.614,24.067 23.515,24.067 C23.427,24.067 23.339,24.044 23.261,23.997 L13.5,18.244 L3.739,23.997 C3.573,24.097 3.361,24.089 3.201,23.978 L0.216,21.911 C0.08,21.818 0,21.664 0,21.5 L0,18 C0,17.823 0.094,17.659 0.246,17.569 L6.301,14 L0.246,10.431 C0.094,10.341 0,10.177 0,10 L0,6.5 C0,6.336 0.08,6.182 0.216,6.089 L3.201,4.022 C3.361,3.911 3.573,3.903 3.739,4.002 L13.5,9.756 L23.261,4.002 C23.427,3.903 23.639,3.911 23.799,4.022 L26.784,6.089 C26.92,6.182 27,6.336 27,6.5 L27,10 C27,10.177 26.906,10.341 26.754,10.431 L26.754,10.431 Z M16,25.232 L13.5,26.899 L11.402,25.5 L13.778,23.916 C13.916,23.823 14,23.667 14,23.5 L14,20 L13,20 L13,23.232 L11,24.566 L11,22 L10,22 L10,25.5 C10,25.667 10.084,25.823 10.223,25.916 L13.223,27.916 C13.307,27.972 13.403,28 13.5,28 C13.597,28 13.694,27.972 13.778,27.916 L16.777,25.916 C16.916,25.823 17,25.667 17,25.5 L17,22 L16,22 L16,25.232 Z M11,6 L10,6 L10,2.5 C10,2.333 10.084,2.177 10.223,2.084 L13.223,0.084 C13.391,-0.028 13.61,-0.028 13.778,0.084 L16.777,2.084 C16.916,2.177 17,2.333 17,2.5 L17,6 L16,6 L16,3.434 L14,4.767 L14,8 L13,8 L13,4.5 C13,4.333 13.084,4.177 13.223,4.084 L15.599,2.5 L13.5,1.101 L11,2.767 L11,6 Z" id="AWS-ThinkBox-Mesh_32_Squid"></path> </g> </g></svg>