<svg id="Layer_1" data-name="Layer 1" xmlns="http://www.w3.org/2000/svg" viewBox="0 0 356.98001 294.48001"><defs><style>.cls-1{fill:#fff;}.cls-2{fill:#5f224a;}</style></defs><path class="cls-1" d="M305.04962,60.25259A17.66336,17.66336,0,0,0,285.014,75.171l-2.60633,17.71484L178.62,113.60721,74.83228,92.88589,72.226,75.17111a17.66334,17.66334,0,0,0-34.95019,5.14368L41.69507,110.342a17.66417,17.66417,0,0,0,14.01666,14.74963l73.12793,14.60029,9.96423,61.30938a35.372,35.372,0,0,0,35.28821,33.66248h9.05408A35.37306,35.37306,0,0,0,218.424,201.20486L229.66864,139.648c.01318-.0719.01587-.14313.02826-.215l71.83142-14.3413a17.66412,17.66412,0,0,0,14.0166-14.7497l4.41919-30.02722.004-.02661A17.66337,17.66337,0,0,0,305.04962,60.25259ZM183.43433,196.163a17.65959,17.65959,0,0,0-.28809,3.17469h-9.05408a17.5322,17.5322,0,0,0-.22943-2.834l-8.03424-49.42682,9.33307,1.86335a17.68063,17.68063,0,0,0,6.91693,0l10.36066-2.06855Z"/><path class="cls-2" d="M178.62,149.28177a17.67882,17.67882,0,0,1-3.45844-.34155l-9.33307-1.86335,8.03424,49.42682a17.5322,17.5322,0,0,1,.22943,2.834h9.05408a17.65959,17.65959,0,0,1,.28809-3.17469l9.00482-49.29132-10.36066,2.06855A17.679,17.679,0,0,1,178.62,149.28177Z"/><path class="cls-2" d="M313.86163,6.87H43.3786A36.423,36.423,0,0,0,7.06219,43.18643V251.55356A36.42308,36.42308,0,0,0,43.3786,287.87h270.483a36.423,36.423,0,0,0,36.31623-36.31647V43.18643A36.423,36.423,0,0,0,313.86163,6.87Zm6.10645,73.41815-.004.02661L315.54492,110.342a17.66412,17.66412,0,0,1-14.0166,14.7497L229.6969,139.433c-.01239.0719-.01508.14313-.02826.215L218.424,201.20486a35.37306,35.37306,0,0,1-35.27783,33.45893H174.0921a35.372,35.372,0,0,1-35.28821-33.66248l-9.96423-61.30938L55.71173,125.09164A17.66417,17.66417,0,0,1,41.69507,110.342L37.27576,80.31479A17.66334,17.66334,0,0,1,72.226,75.17111l2.60633,17.71478L178.62,113.60721,282.40771,92.88589,285.014,75.171a17.66331,17.66331,0,1,1,34.954,5.11713Z"/></svg>