<svg xmlns="http://www.w3.org/2000/svg" width="18" height="18" viewBox="0 0 1000 1002" xmlns:v="https://vecta.io/nano"><path d="M499.125 232.75l2.689-.002c14.579.018 28.8.721 43.186 3.252l2.993.52C593.502 244.684 635.449 264.466 671 294l1.703 1.396C686.049 306.36 698.428 318.311 709 332l2.344 2.898c7.331 9.211 13.578 19.03 19.656 29.102l1.263 2.091c24.014 40.196 35.95 86.794 35.987 133.472l.002 2.313c-.02 14.525-.998 28.76-3.252 43.125l-.456 2.949c-8.095 49.775-32.19 96.612-66.224 133.508-1.916 2.1-3.75 4.236-5.57 6.418C655.715 730.287 597.688 757.186 543 766l-2.058.339c-13.493 2.191-26.971 2.899-40.629 2.911l-2.167.002A264.44 264.44 0 0 1 457 766l-3.008-.456C410.389 758.7 368.491 739.303 334 712l-2.871-2.227c-55.077-43.701-89.029-108.532-98.186-177.815C227.154 480.485 236.753 428.555 259 382l1.111-2.352C272.214 354.386 289.656 332.064 309 312l2.504-2.629c5.458-5.615 11.379-10.495 17.496-15.371l3.438-2.848c46.89-38.684 106.213-58.361 166.688-58.402zm8.222 116.533c-4.613 5.877-5.285 14.08-6.398 21.221l-.543 3.344-1.136 7.062-2.993 18.402-.597 3.64c-1.697 10.285-3.611 20.51-5.655 30.732-1.633 8.188-3.088 16.393-4.463 24.628-1.907 11.397-4.186 22.685-6.587 33.986-2.036 9.618-3.727 19.203-5.038 28.952-1.603 11.91-4.421 23.269-7.937 34.75-3.927 0-4.756-.322-8-2-6.123-1.262-12.394-1.063-18.609-.93l-5.477.023-8.483.108c-18.206.464-18.206.464-25.763-6.39-1.946-1.891-3.802-3.84-5.668-5.812-1.418-1.183-2.861-2.339-4.34-3.445l-1.842-1.383-1.756-1.297-1.838-1.414c-3.662-2.712-6.515-4.404-11.225-4.461-13.804 4.892-27.185 15.693-39.246 23.859-9.711 6.531-19.848 11.983-30.315 17.195-11.217 4.932-11.217 4.932-18.439 13.945.739 2.638.739 2.638 2 5 3.979 1.989 7.577 1.401 11.719.234 19.844-7.116 37.399-19.896 54.742-31.586l3.294-2.214 6.376-4.317 2.931-1.976 2.598-1.765c2.233-1.313 3.76-2.177 6.34-2.376 1.748.969 1.748.969 3.504 2.5l1.978 1.68 2.081 1.82 4.324 3.617 2.13 1.772c13.179 10.703 24.996 12.048 41.358 12.173l7.379.092 4.561.044c3.698.055 6.616.124 9.685 2.302 2.172 2.828 4.146 5.712 6.113 8.682 2.875 4.214 5.744 7.308 9.887 10.318 2.681.497 2.681.497 5-1 4.6-6.082 5.37-12.562 5.986-19.961.459-4.487 1.427-8.469 2.865-12.746 2.721-8.505 3.906-17.209 5.241-26.019 3.087-20.265 6.715-40.409 10.658-60.524l.704-3.631c6.58-33.875 6.58-33.875 11.546-38.119l3 1c1.233 3.182 1.284 6.621 1.543 10l.307 3.8.165 2.061c1.494 18.501 3.622 36.92 5.828 55.349 1.352 11.36 2.579 22.71 3.475 34.116.449 5.589 1.129 11.084 2.057 16.613 1.451 8.993 2.34 18.005 3.196 27.07 1.414 14.94 3.064 29.829 5.101 44.698l.767 5.674 1.097 7.937.312 2.356c.713 4.88 1.878 8.931 4.153 13.328 2.544 1.505 2.544 1.505 5 2 3.597-2.746 4.538-6.729 5.863-10.863l.783-2.401c2.745-8.63 4.873-17.396 6.914-26.214l1.914-8.153 5.326-23.795.712-3.439c.482-3.101.578-6.003.487-9.135 9.763-.628 19.469-1.067 29.254-.965l7.72.011 5.226.08c10.558.451 10.558.451 20.106-3.305 2.484-2.485 4.583-5.021 6.695-7.821 1.219-1.158 2.464-2.292 3.75-3.375l1.941-1.66L645 551l3.152-2.746c5.899-5.131 11.859-10.192 17.973-15.066l1.612-1.329c3.626-2.838 3.626-2.838 6.353-2.925 8.58 4.79 14.917 17.237 20.179 25.214 6.329 10.1 6.329 10.1 15.731 16.852 2.643.088 2.643.088 5-1 1.47-2.169 1.47-2.169 2-5-3.474-10.936-11.304-20.832-18-30l-1.311-1.795c-8.841-13.181-8.841-13.181-20.654-23.162-10.463-.221-23.601 14.59-31.035 20.957l-1.949 1.665-6.97 5.988-3.222 2.709c-1.973 1.673-1.973 1.673-3.93 3.96-6.946 7.035-12.756 7.649-22.336 7.781l-9.03-.103-6.049-.004c-2.915.003-5.83.004-8.745-.009-12.338-.604-12.338-.604-23.768 3.013-3.852 6.248-5.995 13.608-8.203 20.566C551 579 551 579 550 581h-4c-3.559-10.417-4.352-21.248-5.5-32.125l-.654-5.994-.968-8.877-2.503-21.066c-1.319-10.574-2.192-21.175-3.063-31.793-.832-10.11-1.845-20.16-3.189-30.217-.975-7.4-1.701-14.81-2.378-22.243-1.06-11.62-2.441-23.12-4.262-34.645-1.494-9.609-2.515-19.243-3.356-28.93-.703-7.969-.703-7.969-4.127-15.109-3.152-2.101-5.371-3.265-8.653-.717zM104 741c2.309 2.238 2.309 2.238 4.438 5.313l1.171 1.657c2.345 3.357 4.536 6.806 6.704 10.28 10.148 16.261 22.777 31.484 35.711 45.594 1.858 2.026 3.673 4.081 5.477 6.156 7.408 8.482 15.016 16.679 22.993 24.624l4.712 4.718C205.266 859.418 228.098 875.823 252 891l1.867 1.191c8.787 5.59 17.855 10.648 26.993 15.634l5.605 3.131C333.378 936.959 387.037 952.563 440 960l3.483.496c46.494 6.269 94.127 3.141 140.317-3.87l2.159-.326 5.784-.889L595 955l2.749-.374c2.251.374 2.251.374 3.952 2.533a59.76 59.76 0 0 1 3.088 8.298l.914 3.123.922 3.232.945 3.197c1.641 5.678 2.904 11.101 3.43 16.99l-11.566 2.454-5.807 1.238c-31.333 6.571-63.174 6.498-95.038 6.496a7321.67 7321.67 0 0 0-4.645.001C425.612 1002.23 361.733 990.172 299 962l-3.461-1.543C258.407 943.822 223.909 923.288 192 898l-2.555-2.004c-16.655-13.17-32.03-27.505-47.083-42.459l-3.428-3.395c-6.372-6.301-12.39-12.676-17.981-19.697-2.173-2.72-4.446-5.328-6.756-7.931C106.966 814.363 100.378 805.829 94 797l-1.544-2.135c-22.558-31.313-22.558-31.313-22.394-37.037 3.416-6.661 13.212-10.137 19.688-13.266l2.184-1.073c4.083-1.904 7.495-3.407 12.066-2.489zM729.121 57.032l3.797 1.94C760.956 73.194 787.384 90.471 812 110l1.627 1.288c6.689 5.321 13.076 10.936 19.373 16.712l2.988 2.707c10.509 9.559 21.047 19.35 30.219 30.219 1.975 2.285 4.025 4.488 6.087 6.694 4.968 5.319 9.756 10.715 14.312 16.396l5.383 6.594a403.76 403.76 0 0 1 33.845 47.502c.981 1.587 2.017 3.139 3.065 4.681C930 245 930 245 929.847 246.956c-1.169 2.823-2.643 3.477-5.292 4.954l-2.766 1.561-2.914 1.592-2.844 1.604L908 261l-1.995 1.074c-4.329 2.13-7.423 2.464-12.005.926a41.74 41.74 0 0 1-4.625-7c-3.597-6.224-7.456-12.015-11.875-17.687l-1.673-2.151-3.278-4.184-5.561-7.23a516.64 516.64 0 0 0-12.801-16.092L850 203.469c-9.157-11.516-19.513-22.04-29.875-32.469l-1.495-1.51c-2.57-2.57-2.57-2.57-5.63-4.49v-2l-1.633-.66c-3.185-1.803-5.625-4.257-8.242-6.777-6.71-6.319-13.789-11.992-21.125-17.562l-1.918-1.469a486.64 486.64 0 0 0-62.106-40.447l-3.92-2.168C661.523 64.67 601.585 48.737 542 43l-2.927-.29c-12.247-1.047-24.54-.953-36.823-.96l-3.63-.003c-30.956.018-62.581 1.567-92.791 8.884-2.674.54-4.346.538-6.83-.631-3.557-5.65-4.688-12.129-6.187-18.562l-.826-3.404C389.559 17.796 389.559 17.796 390 14c3.019-2.013 4.652-2.493 8.145-3.148l3.192-.602 3.476-.625 3.638-.66C422.243 6.524 436.09 4.63 450 3l3.895-.462c90.873-10.478 183.821 9.895 275.226 54.494zM474.438 70.797l4.432-.021L493 70.75l2.422-.002c23.638-.012 47.106.123 70.578 3.252l3.119.39c39.115 5.079 79 19.654 114.881 35.61l2.634 1.167 7.866 3.583 2.341 1.07c4.666 2.215 8.327 4.712 12.159 8.18-1.647 11.322-10.691 22.912-17.422 31.898C690 157 690 157 687.7 156.696c-2.669-.688-4.973-1.582-7.473-2.735l-2.724-1.248-2.878-1.338-3.001-1.375-12.527-5.903c-75.543-36.776-170.041-43.385-290.7-11.229C325.449 148.183 285.238 171.101 250 200l-1.609 1.313C239.232 208.821 230.594 216.858 222 225c-4.101-1.622-6.831-4.577-9.859-7.664l-1.664-1.673-5.226-5.288-3.559-3.586L193 198c1.797-3.92 4.305-6.368 7.5-9.187l1.633-1.465 3.309-2.955 4.081-3.725c5.799-5.347 11.889-10.23 18.121-15.055 2.726-2.111 5.388-4.288 8.043-6.488 15.759-12.628 33.335-23.329 50.922-33.207l6.531-3.805C319.841 106.216 351.023 94.177 381 86l3.343-.916c15.514-4.186 31.081-7.732 46.907-10.522l2.142-.381c13.712-2.412 27.114-3.344 41.045-3.385z" fill="#004e6d"/><path d="M760.383 800.344c7.429 4.701 13.47 11.378 19.617 17.594l2.348 2.361L788 826c-4.074 4.29-8.505 7.893-13.187 11.5l-2.393 1.849c-86.312 66.342-185.687 98.336-335.413 92.539C398.291 926.536 359.792 913.366 324 898l-3.008-1.29C291.899 884.123 291.899 884.123 289 877l1.617-1.992c5.492-7.013 9.939-14.251 14.107-22.126l1.209-2.268 1.064-2.038C308 847 308 847 310 846c2.164.817 2.164.817 4.84 2.133l2.975 1.445 3.123 1.547C354.091 867.348 387.863 879.359 424 887l2.745.609c36.92 8.151 77.128 6.87 114.63 4.078l2.442-.178c16.842-1.263 33.387-3.674 49.745-7.947l1.935-.502c29.952-7.826 59.095-19.07 86.276-33.868 2.099-1.125 4.215-2.202 6.347-3.263 16.715-8.385 32.035-19.215 47.004-30.367 5.523-4.109 11.043-8.211 16.75-12.062l3.242-2.219C758 800 758 800 760.383 800.344z" fill="#858785"/><path d="M944 271c31.245 53.741 47.351 117.617 54 179l.261 2.285c1.841 16.364 2.098 32.634 2.051 49.09l-.006 4.015c-.038 19.72-.589 39.059-3.307 58.61l-.52 3.991c-6.017 46.093-18.167 90.857-37.257 133.282l-3.54 8.012c-3.595 8.178-7.346 16.24-11.496 24.152l-1.094 2.097c-2.045 3.818-4.259 7.16-7.094 10.465-6.124-.442-10.71-3.291-15.937-6.25l-2.631-1.449c-5.057-2.821-9.79-5.84-14.432-9.301 3.184-8.688 6.786-17.027 10.788-25.37C935.405 658.424 949.416 611.608 956 562l.279-2.096c4.927-37.787 4.759-77.156-.279-114.904l-.52-4.047C950.906 405.735 942.419 371.291 930 338l-.893-2.402c-4.406-11.725-9.554-22.997-15.159-34.198l-1.507-3.048-1.353-2.693c-1.181-2.887-1.686-5.574-2.088-8.659 27.286-16.535 27.286-16.535 35-16z" fill="#21a2c9"/><path d="M64 257c3.893.577 6.579 1.72 9.906 3.801l2.754 1.713 2.84 1.799 2.84 1.764L90 271l3.219 1.98C95 275 95 275 94.812 278.167c-.856 4.039-2.238 7.5-4.023 11.189l-2.008 4.282-1.066 2.248C62.708 348.714 47.016 403.843 41 462l-.317 2.965C37.797 496.191 38.833 528.917 43 560l.287 2.144c6.887 50.594 21.935 98.993 43.717 145.146l1.195 2.554 1.057 2.225C90 714 90 714 90 717c-6.27 5.632-14.231 9.503-21.625 13.438l-3.043 1.639L58 736C23.217 704.558 9.833 614.334 3.75 571.063l-.458-3.256L2 557l-.264-2.342c-1.771-16.142-2.08-32.241-2.051-48.461l-.021-8.351c-.17-26.21 1.546-52.049 6.086-77.909l.382-2.228C10.322 393.315 16.268 369.52 24 346l1.022-3.168c7.519-23.209 17.147-45.434 27.978-67.27l1.599-3.229C57.365 266.866 60.275 261.869 64 257z" fill="#858785"/><path d="M80.582 507.707l2.467.013 7.763.093 5.279.041L109 508l.028 2.278C110.256 589.892 135.829 670.069 184 734l1.225 1.642c13.523 18.084 28.791 34.434 44.712 50.421l2.365 2.379c6.879 6.86 14.102 13.194 21.697 19.246l1.92 1.536c4.747 3.774 9.584 7.414 14.455 11.026 8.971 6.703 8.971 6.703 13.188 10.188l2.129 1.746C287 834 287 834 286.969 836.273c-1.267 3.566-3.058 6.705-5.031 9.914l-1.216 1.991c-9.204 14.813-9.204 14.813-14.12 16.783-3.573.054-5.078-1.149-7.977-3.211l-3.187-2.246L252 857l-3.625-2.598c-11.681-8.422-23.14-17.09-33.68-26.918a221.73 221.73 0 0 0-6.238-5.516c-5.306-4.628-10.272-9.598-15.247-14.574l-4.923-4.883c-6.55-6.516-12.533-13.27-18.287-20.512l-2.828-3.285C105.456 707.94 74.196 614.486 67 522l-.273-3.473-.102-2.59-.148-2.66C67 511 67 511 68.996 509.376c3.896-1.785 7.389-1.752 11.586-1.669z" fill="#21a2c9"/><path d="M481.688 142.938L493 143v36l-9.937.25c-12.888.476-25.401 2.379-38.062 4.75l-2.577.481C413.076 190.076 385.919 199.101 359 212l-2.313 1.098C333.667 224.069 311.366 237.182 293 255l-4 3.5c-12.805 11.141-25.41 22.641-35.969 35.973-1.871 2.328-3.82 4.521-5.844 6.715-4.32 4.779-8.101 9.938-11.888 15.141-5.883 8.014-5.883 8.014-9.3 10.671-5.554.221-10.257-3.062-14.937-5.75l-2.342-1.305c-4.803-2.712-9.287-5.663-13.721-8.945.606-3.038 1.547-5.097 3.336-7.617l1.459-2.068 1.58-2.19 1.63-2.28c7.329-10.176 14.953-19.974 23.51-29.15 1.918-2.081 3.768-4.186 5.609-6.332 4.203-4.818 8.678-9.352 13.198-13.872l4.231-4.271c6.171-6.184 12.613-11.785 19.445-17.221l3.906-3.266c9.918-8.272 20.279-15.681 31.094-22.734l2.488-1.625C352.28 168.708 403.669 149.871 458 144l2.616-.292c7.037-.722 14.002-.826 21.072-.77z" fill="#858785"/><path d="M773 676c3.779.577 6.464 1.635 9.723 3.617l2.631 1.59 2.709 1.668 2.721 1.645c3.87 2.354 7.626 4.714 11.217 7.48-1.327 17.953-19.533 34.543-31.367 47.156-1.988 2.148-3.907 4.317-5.812 6.535-4.472 5.131-9.261 9.933-14.07 14.746l-2.66 2.697c-6.049 6.063-12.403 11.522-19.09 16.865l-5.437 4.688C709.149 796.684 693.261 806.722 677 816l-2.796 1.605C622.278 847.217 566.135 859.901 507 864c-.084-19.641-.084-19.641.438-27.5l.119-2.16c.313-5.08.313-5.08 1.443-7.34 2.429-.571 2.429-.571 5.652-1.016l3.585-.502 14.504-1.774C590.026 816.842 645.666 796.912 692 762l1.642-1.225c3.833-2.867 7.609-5.799 11.358-8.775l2.965-2.336c7.331-5.982 14.074-12.497 20.785-19.164l2.652-2.624c5.954-5.983 11.369-12.252 16.598-18.876l1.838-2.312 5.037-6.437 1.784-2.294c5.587-7.217 10.996-14.559 16.341-21.956z" fill="#21a2c9"/><path d="M892 521h39c0 11.687-.029 22.344-1.625 33.75l-.536 3.961C922.983 600.971 911.41 641.013 894 680l-1.151 2.598C886.771 696.221 879.497 709.115 872 722l-1.25 2.172C858.756 744.995 844.484 764.642 829 783l-1.374 1.631C820.613 792.939 813.405 801.041 806 809c-3.958-1.608-6.689-4.35-9.676-7.305l-1.604-1.577-3.331-3.303-5.141-5.03-3.236-3.215-1.568-1.509c-1.417-1.436-1.417-1.436-3.443-4.061.118-4.078 2.775-6.208 5.5-9.062l2.766-2.969 1.404-1.512c3.64-3.987 6.975-8.232 10.33-12.457l1.531-1.917c14.126-17.735 26.823-36.015 38.093-55.697l3.544-5.972C872.301 641.419 885.353 580.473 892 521z" fill="#004e6d"/><path d="M516 143c14.828-.257 28.501.017 43 3l2.945.586c50.126 10.086 100.13 27.09 141.339 58.126l5.63 4.151c11.885 8.729 22.974 18.23 33.879 28.148 1.936 1.744 3.906 3.431 5.895 5.113 9.39 8.183 18.403 17.253 26.313 26.875l1.316 1.561c6.788 8.054 13.182 16.326 19.247 24.939l1.768 2.497c9.415 13.553 9.415 13.553 8.67 21.003l-1.66.559c-6.534 2.39-12.233 5.626-18.073 9.355-3.405 2.136-6.245 3.634-10.267 4.086-4.756-5.668-9.065-11.49-13.187-17.625C747.759 293.154 728.69 272.131 708 255l-2.328-1.992C651.683 207.586 584.903 186.531 516 178v-35z" fill="#21a2c9"/><path d="M818.539 337.949c3.593 1.534 4.601 4.163 6.148 7.551l1.01 2.125C845.241 389.645 856.654 435.779 860 482l.203 2.652C864.425 543.12 849.563 608.26 824 661l-1.149 2.408c-1.139 2.122-2.178 3.86-3.851 5.592-5.715 1.251-9.942-.985-14.875-3.625l-2.111-1.092c-5.238-2.753-10.238-5.781-15.014-9.283.51-6.001 2.407-10.542 5-15.937 32.72-70.665 39.648-154.288 17-229.062l-.772-2.559c-2.677-8.714-5.727-17.259-9.083-25.734l-.753-1.902-3.748-9.302c-2.23-5.524-4.243-10.532-4.644-16.503l11.793-7.371 7.32-4.664 2.574-1.652 2.199-1.449C816 338 816 338 818.539 337.949z" fill="#858785"/><path d="M181 332c3.761 1.17 7.105 2.46 10.496 4.461l2.443 1.43 2.498 1.484 4.934 2.898 2.371 1.409a140.02 140.02 0 0 0 4.38 2.455c4.779 2.563 4.779 2.563 5.878 5.862-1.105 2.894-1.105 2.894-2.832 6.457l-1.906 4.015-1.026 2.141c-20.975 44.015-30.455 90.972-30.486 139.637l-.002 2.962c.017 15.147.602 29.841 3.252 44.788l.52 3.058c5.015 28.941 14.01 57.251 26.093 84.02 3.284 7.43 3.284 7.43 2.387 10.923-4.139 4.236-8.888 6.71-14.187 9.25l-2.154 1.063c-9.779 4.784-9.779 4.784-15.658 3.688-5.167-6.307-8.001-14.384-10.812-21.937l-1.289-3.421c-6.305-16.911-12.102-33.948-16.757-51.392l-1.492-5.49c-6.03-23.401-6.132-47.017-6.041-71.011l-.01-13.539c-.089-27.317.479-54.608 7.401-81.21l.686-2.677C157.059 385.108 169.168 358.562 181 332z" fill="#004e6d"/></svg>