<svg width="90" height="90" viewBox="0 0 90 90" fill="none" xmlns="http://www.w3.org/2000/svg">
<rect x="18" width="54" height="23.1429" rx="2" fill="#326CE5"/>
<rect x="27.6924" y="66.8572" width="34.6154" height="23.1429" rx="2" fill="#326CE5"/>
<path fill-rule="evenodd" clip-rule="evenodd" d="M40.1238 43.3534C40.1257 43.9076 39.6778 44.358 39.1247 44.358L33.5811 44.358C32.8073 44.358 32.3272 45.2015 32.7212 45.8688L42.7628 62.8722C43.1439 63.5175 44.0717 63.5293 44.4691 62.8938L55.1017 45.8904C55.5186 45.2237 55.0404 44.358 54.2553 44.358L48.7435 44.358C48.1918 44.358 47.7447 43.9099 47.7447 43.3571L47.7447 30.5688C47.7447 30.016 47.2975 29.568 46.7458 29.568L41.0784 29.568C40.5253 29.568 40.0774 30.0183 40.0793 30.5726L40.1238 43.3534Z" fill="#326CE5"/>
</svg>
