<svg width="40" height="40" viewBox="0 0 40 40" fill="none" xmlns="http://www.w3.org/2000/svg">
<g clip-path="url(#clip0_23296_3762)">
<path d="M40 0H0V40H40V0Z" fill="#7AA116" fill-opacity="0.12"/>
<path fill-rule="evenodd" clip-rule="evenodd" d="M8.369 17H9.369V14H8.369V17ZM12.369 17H13.369V14H12.369V17ZM12.369 11H13.369V8H12.369V11ZM18.369 14H19.369V11H18.369V14ZM22.369 14H23.369V11H22.369V14ZM7.869 18H9.869C10.145 18 10.369 17.776 10.369 17.5V16H11.369V17.5C11.369 17.776 11.592 18 11.869 18H13.869C14.145 18 14.369 17.776 14.369 17.5V16H15.869C16.145 16 16.369 15.776 16.369 15.5V13H17.369V14.5C17.369 14.776 17.592 15 17.869 15H19.869C20.145 15 20.369 14.776 20.369 14.5V13H21.369V14.5C21.369 14.776 21.592 15 21.869 15H23.869C24.145 15 24.369 14.776 24.369 14.5V10.5C24.369 10.224 24.145 10 23.869 10H21.869C21.592 10 21.369 10.224 21.369 10.5V12H20.369V10.5C20.369 10.224 20.145 10 19.869 10H17.869C17.592 10 17.369 10.224 17.369 10.5V12H16.369V10.5C16.369 10.224 16.145 10 15.869 10H14.369V7.5C14.369 7.224 14.145 7 13.869 7H11.869C11.592 7 11.369 7.224 11.369 7.5V11.5C11.369 11.776 11.592 12 11.869 12H13.869C14.145 12 14.369 11.776 14.369 11.5V11H15.369V15H14.369V13.5C14.369 13.224 14.145 13 13.869 13H11.869C11.592 13 11.369 13.224 11.369 13.5V15H10.369V13.5C10.369 13.224 10.145 13 9.869 13H7.869C7.592 13 7.369 13.224 7.369 13.5V17.5C7.369 17.776 7.592 18 7.869 18ZM16.511 8.505L16.261 7.537C17.429 7.234 18.644 7.103 19.86 7.154C24.289 7.331 28.309 9.889 30.351 13.829L29.462 14.289C27.585 10.667 23.891 8.316 19.821 8.153C18.691 8.112 17.585 8.227 16.511 8.505ZM28.914 25.674L29.754 26.217C28.48 28.188 26.682 29.749 24.555 30.734L24.135 29.827C26.09 28.922 27.743 27.485 28.914 25.674ZM8 19.534C8.002 21.005 8.284 22.439 8.836 23.795L7.91 24.172C7.309 22.696 7.002 21.136 7 19.535L8 19.534ZM16.36 29.004C15.268 29.004 14.379 28.116 14.379 27.024C14.379 25.932 15.268 25.044 16.36 25.044C17.452 25.044 18.34 25.932 18.34 27.024C18.34 28.116 17.452 29.004 16.36 29.004ZM16.36 24.044C14.716 24.044 13.379 25.38 13.379 27.024C13.379 28.667 14.716 30.004 16.36 30.004C18.003 30.004 19.34 28.667 19.34 27.024C19.34 25.38 18.003 24.044 16.36 24.044ZM22.061 27.727L21.56 27.698C21.332 27.695 21.097 27.849 21.043 28.088C20.924 28.619 20.716 29.122 20.424 29.584C20.293 29.791 20.331 30.062 20.514 30.224L20.888 30.558L19.894 31.552L19.562 31.18C19.399 30.997 19.129 30.959 18.921 31.09C18.46 31.382 17.956 31.591 17.423 31.711C17.185 31.765 17.021 31.984 17.035 32.227L17.063 32.725H15.657L15.685 32.227C15.699 31.983 15.535 31.765 15.296 31.711C14.764 31.59 14.26 31.381 13.799 31.089C13.591 30.959 13.321 30.997 13.159 31.179L12.826 31.552L11.831 30.558L12.204 30.225C12.387 30.063 12.425 29.792 12.294 29.585C12.003 29.126 11.795 28.622 11.674 28.087C11.62 27.849 11.403 27.695 11.159 27.698L10.659 27.727V26.321L11.16 26.349C11.421 26.357 11.622 26.198 11.676 25.961C11.797 25.43 12.005 24.927 12.297 24.466C12.428 24.259 12.39 23.989 12.207 23.826L11.831 23.49L12.826 22.495L13.161 22.871C13.324 23.053 13.594 23.09 13.801 22.961C14.262 22.671 14.765 22.463 15.296 22.342C15.535 22.289 15.699 22.07 15.685 21.826L15.657 21.323H17.063L17.035 21.827C17.021 22.07 17.185 22.289 17.423 22.343C17.954 22.463 18.457 22.672 18.917 22.963C19.124 23.093 19.395 23.055 19.557 22.873L19.894 22.495L20.888 23.49L20.513 23.824C20.331 23.987 20.292 24.257 20.423 24.464C20.714 24.925 20.923 25.429 21.044 25.962C21.098 26.199 21.307 26.367 21.56 26.349L22.061 26.321V27.727ZM22.533 25.293L21.91 25.328C21.8 24.972 21.658 24.628 21.483 24.299L21.949 23.884C22.051 23.793 22.112 23.663 22.116 23.525C22.119 23.388 22.067 23.255 21.969 23.157L20.227 21.414C20.129 21.317 19.96 21.269 19.86 21.268C19.722 21.272 19.592 21.332 19.5 21.435L19.082 21.902C18.754 21.728 18.411 21.586 18.056 21.477L18.091 20.851C18.099 20.714 18.05 20.579 17.955 20.48C17.861 20.38 17.73 20.323 17.592 20.323H15.127C14.99 20.323 14.859 20.38 14.764 20.48C14.669 20.579 14.62 20.714 14.628 20.851L14.663 21.476C14.308 21.585 13.964 21.727 13.636 21.901L13.219 21.435C13.127 21.332 12.997 21.272 12.86 21.268C12.748 21.272 12.59 21.317 12.493 21.414L10.75 23.157C10.653 23.255 10.6 23.388 10.604 23.525C10.608 23.663 10.668 23.792 10.771 23.884L11.238 24.3C11.062 24.629 10.919 24.972 10.811 25.328L10.187 25.293C10.049 25.286 9.916 25.334 9.815 25.428C9.715 25.523 9.659 25.654 9.659 25.792V28.256C9.659 28.394 9.715 28.526 9.815 28.62C9.916 28.715 10.063 28.765 10.187 28.755L10.808 28.72C10.917 29.078 11.059 29.422 11.235 29.751L10.771 30.164C10.668 30.256 10.608 30.385 10.604 30.523C10.6 30.66 10.653 30.794 10.75 30.891L12.493 32.633C12.59 32.731 12.744 32.78 12.86 32.78C12.997 32.776 13.127 32.715 13.219 32.613L13.633 32.149C13.962 32.325 14.307 32.468 14.663 32.577L14.628 33.196C14.62 33.334 14.669 33.468 14.764 33.568C14.859 33.668 14.99 33.725 15.127 33.725H17.592C17.73 33.725 17.861 33.668 17.955 33.568C18.05 33.468 18.099 33.334 18.091 33.196L18.056 32.577C18.413 32.468 18.758 32.326 19.087 32.15L19.5 32.613C19.592 32.715 19.722 32.776 19.859 32.78C19.992 32.783 20.129 32.731 20.227 32.633L21.969 30.891C22.067 30.794 22.119 30.66 22.116 30.523C22.112 30.385 22.051 30.256 21.949 30.164L21.484 29.75C21.66 29.421 21.802 29.076 21.91 28.72L22.533 28.755C22.655 28.765 22.804 28.714 22.905 28.62C23.004 28.526 23.061 28.394 23.061 28.256V25.792C23.061 25.654 23.004 25.523 22.905 25.428C22.804 25.334 22.668 25.286 22.533 25.293ZM28.868 20.837C28.639 20.974 28.374 21.013 28.119 20.951C27.863 20.888 27.646 20.73 27.509 20.504C27.371 20.277 27.331 20.012 27.394 19.755C27.456 19.499 27.616 19.282 27.842 19.145C28.002 19.048 28.178 19.002 28.353 19.002C28.688 19.002 29.015 19.172 29.201 19.478C29.483 19.944 29.333 20.554 28.868 20.837ZM30.056 18.96C29.488 18.022 28.263 17.721 27.325 18.29C26.869 18.565 26.549 19.001 26.422 19.517C26.296 20.033 26.378 20.568 26.654 21.022C26.929 21.476 27.365 21.796 27.881 21.922C28.039 21.962 28.2 21.981 28.358 21.981C28.717 21.981 29.071 21.883 29.385 21.692C30.323 21.124 30.623 19.898 30.056 18.961V18.96ZM31.673 21.767L30.56 21.605C30.42 21.585 30.284 21.623 30.176 21.709L29.634 22.141C29.524 22.229 29.455 22.359 29.447 22.501L29.376 23.629L27.701 23.718L27.507 22.592C27.483 22.455 27.404 22.334 27.286 22.257L26.721 21.89C26.639 21.837 26.544 21.81 26.449 21.81C26.407 21.81 26.366 21.815 26.324 21.825L25.219 22.109L24.617 20.544L25.619 20.016C25.744 19.951 25.834 19.836 25.87 19.699L26.044 19.029C26.078 18.895 26.056 18.753 25.982 18.635L25.38 17.687L26.683 16.63L27.496 17.422C27.596 17.518 27.723 17.577 27.869 17.563L28.549 17.53C28.69 17.524 28.821 17.458 28.91 17.349L29.635 16.472L31.043 17.384L30.539 18.407C30.477 18.533 30.471 18.679 30.522 18.81L30.77 19.445C30.821 19.574 30.922 19.677 31.052 19.728L32.106 20.146L31.673 21.767ZM32.887 19.38L31.622 18.879L31.534 18.651L32.137 17.428C32.249 17.2 32.173 16.925 31.96 16.787L29.805 15.391C29.594 15.253 29.311 15.295 29.148 15.492L28.28 16.542L28.038 16.554L27.062 15.603C26.88 15.426 26.595 15.414 26.398 15.573L24.404 17.191C24.207 17.351 24.16 17.633 24.297 17.847L25.022 18.988L24.957 19.234L23.758 19.866C23.534 19.984 23.433 20.251 23.524 20.488L24.446 22.884C24.536 23.121 24.786 23.251 25.037 23.189L26.361 22.849L26.558 22.977L26.789 24.325C26.831 24.567 27.04 24.741 27.283 24.741C27.291 24.741 27.3 24.741 27.309 24.74L29.873 24.604C30.127 24.59 30.33 24.389 30.346 24.136L30.431 22.784L30.63 22.626L31.969 22.82C32.227 22.86 32.458 22.698 32.525 22.454L33.187 19.973C33.252 19.728 33.123 19.473 32.887 19.38Z" fill="#7AA116"/>
</g>
<rect x="0.5" y="0.5" width="39" height="39" stroke="#7AA116"/>
<defs>
<clipPath id="clip0_23296_3762">
<rect width="40" height="40" fill="white"/>
</clipPath>
</defs>
</svg>
