<svg width="40" height="40"  viewBox="0 0 40 40" xmlns="http://www.w3.org/2000/svg">  <g id="Icon-Architecture/32/Arch_Amazon-DataZone_32" stroke="none" stroke-width="1" fill="none" fill-rule="evenodd">  <path d="M16.35325,11.365 L15.64625,10.658 L19.66325,6.641 C19.85025,6.453 20.18225,6.453 20.37025,6.641 L24.38725,10.658 L23.68025,11.365 L20.01625,7.701 L16.35325,11.365 Z M33.38725,20.365 L29.38725,24.365 L28.68025,23.658 L32.32725,20.011 L28.68025,16.365 L29.38725,15.658 L33.38725,19.658 C33.58225,19.853 33.58225,20.17 33.38725,20.365 L33.38725,20.365 Z M23.64625,28.692 L24.35325,29.399 L20.37025,33.382 C20.27625,33.476 20.14925,33.529 20.01625,33.529 C19.88325,33.529 19.75625,33.476 19.66325,33.382 L15.64625,29.365 L16.35325,28.658 L20.01625,32.322 L23.64625,28.692 Z M11.35325,23.658 L10.64625,24.365 L6.64625,20.365 C6.45125,20.17 6.45125,19.853 6.64625,19.658 L10.64625,15.658 L11.35325,16.365 L7.70725,20.011 L11.35325,23.658 Z M26.49925,28.011 C25.67225,28.011 24.99925,27.339 24.99925,26.511 C24.99925,25.684 25.67225,25.011 26.49925,25.011 C27.32725,25.011 27.99925,25.684 27.99925,26.511 C27.99925,27.339 27.32725,28.011 26.49925,28.011 L26.49925,28.011 Z M15.47625,25.011 C15.33825,24.833 15.17925,24.674 14.99925,24.539 L14.99925,15.489 C15.18125,15.352 15.34125,15.192 15.47925,15.011 L24.52725,15.011 C24.66225,15.191 24.82125,15.35 24.99925,15.488 L24.99925,24.524 C24.81525,24.664 24.65225,24.827 24.51225,25.011 L15.47625,25.011 Z M13.50925,28.011 C12.68825,28.011 12.01925,27.343 12.01925,26.521 C12.01925,25.7 12.68825,25.032 13.50925,25.032 C14.33125,25.032 14.99925,25.7 14.99925,26.521 C14.99925,27.343 14.33125,28.011 13.50925,28.011 L13.50925,28.011 Z M12.01325,13.505 C12.01325,12.681 12.68325,12.011 13.50625,12.011 C14.33025,12.011 14.99925,12.681 14.99925,13.505 C14.99925,14.328 14.33025,14.998 13.50625,14.998 C12.68325,14.998 12.01325,14.328 12.01325,13.505 L12.01325,13.505 Z M26.50925,12.032 C27.33125,12.032 27.99925,12.7 27.99925,13.521 C27.99925,14.343 27.33125,15.011 26.50925,15.011 C25.68825,15.011 25.01925,14.343 25.01925,13.521 C25.01925,12.7 25.68825,12.032 26.50925,12.032 L26.50925,12.032 Z M26.49925,24.011 C26.32825,24.011 26.16125,24.029 25.99925,24.062 L25.99925,15.958 C26.16425,15.993 26.33525,16.011 26.50925,16.011 C27.88225,16.011 28.99925,14.894 28.99925,13.521 C28.99925,12.148 27.88225,11.032 26.50925,11.032 C25.13625,11.032 24.01925,12.148 24.01925,13.521 C24.01925,13.689 24.03725,13.853 24.06925,14.011 L15.94725,14.011 C15.98125,13.848 15.99925,13.678 15.99925,13.505 C15.99925,12.13 14.88125,11.011 13.50625,11.011 C12.13125,11.011 11.01325,12.13 11.01325,13.505 C11.01325,14.879 12.13125,15.998 13.50625,15.998 C13.67525,15.998 13.84025,15.98 13.99925,15.948 L13.99925,24.081 C13.84125,24.049 13.67725,24.032 13.50925,24.032 C12.13625,24.032 11.01925,25.148 11.01925,26.521 C11.01925,27.894 12.13625,29.011 13.50925,29.011 C14.88225,29.011 15.99925,27.894 15.99925,26.521 C15.99925,26.347 15.98125,26.176 15.94625,26.011 L24.05025,26.011 C24.01725,26.173 23.99925,26.34 23.99925,26.511 C23.99925,27.89 25.12125,29.011 26.49925,29.011 C27.87825,29.011 28.99925,27.89 28.99925,26.511 C28.99925,25.133 27.87825,24.011 26.49925,24.011 L26.49925,24.011 Z" id="Fill-1" fill="#FFFFFF"></path> </g></svg>