<svg width="90" height="90" viewBox="0 0 90 90" fill="none" xmlns="http://www.w3.org/2000/svg">
<path fill-rule="evenodd" clip-rule="evenodd" d="M44.3473 41.0749C54.6614 41.0749 63.0227 37.0455 63.0227 32.075C63.0227 27.1044 54.6614 23.075 44.3473 23.075C34.0331 23.075 25.6719 27.1044 25.6719 32.075C25.6719 37.0455 34.0331 41.0749 44.3473 41.0749ZM25.6789 58.225V35.4305C27.5765 39.4608 35.216 42.475 44.3516 42.475C53.4959 42.475 61.1413 39.455 63.0297 35.4189V58.225C63.0297 63.1955 54.6684 67.225 44.3543 67.225C34.0402 67.225 25.6789 63.1955 25.6789 58.225Z" fill="white"/>
<rect x="12.2" y="1.2" width="65.6" height="87.6" stroke="white" stroke-width="2.4"/>
</svg>
