<svg width="40" height="40" viewBox="0 0 40 40" fill="none" xmlns="http://www.w3.org/2000/svg">
<g clip-path="url(#clip0_23310_9544)">
<path d="M40 0H0V40H40V0Z" fill="#DD344C" fill-opacity="0.12"/>
<path fill-rule="evenodd" clip-rule="evenodd" d="M16 22.079V10.21L21 11.996V20.079H22V11.643C22 11.432 21.867 11.243 21.668 11.172L15.668 9.03C15.561 8.991 15.439 8.991 15.332 9.03L9.332 11.172C9.133 11.243 9 11.432 9 11.643V21.072C9 22.579 10.54 26.715 15.5 26.715V25.715C10.956 25.715 10 21.835 10 21.072V11.996L15 10.21V22.079H16ZM31.605 30.671H30.605C30.605 31.995 29.528 33.072 28.204 33.072C26.88 33.072 25.803 31.995 25.803 30.671H24.803C24.803 31.995 23.726 33.072 22.401 33.072C21.077 33.072 20 31.995 20 30.671H19C19 31.995 17.923 33.072 16.599 33.072V34.072C17.825 34.072 18.901 33.42 19.5 32.444C20.099 33.42 21.175 34.072 22.401 34.072C23.628 34.072 24.704 33.42 25.303 32.444C25.901 33.42 26.978 34.072 28.204 34.072C29.431 34.072 30.507 33.42 31.105 32.444C31.704 33.42 32.78 34.072 34.007 34.072V33.072C32.683 33.072 31.605 31.995 31.605 30.671ZM31.605 26.306H30.605C30.605 27.63 29.528 28.707 28.204 28.707C26.88 28.707 25.803 27.63 25.803 26.306H24.803C24.803 27.63 23.726 28.707 22.401 28.707C21.077 28.707 20 27.63 20 26.306H19C19 27.63 17.923 28.707 16.599 28.707V29.707C17.825 29.707 18.901 29.055 19.5 28.079C20.099 29.055 21.175 29.707 22.401 29.707C23.628 29.707 24.704 29.055 25.303 28.079C25.901 29.055 26.978 29.707 28.204 29.707C29.431 29.707 30.507 29.055 31.105 28.079C31.704 29.055 32.78 29.707 34.007 29.707V28.707C32.683 28.707 31.605 27.63 31.605 26.306ZM31.605 21.855H30.605C30.605 23.18 29.528 24.257 28.204 24.257C26.88 24.257 25.803 23.18 25.803 21.855H24.803C24.803 23.18 23.726 24.257 22.401 24.257C21.077 24.257 20 23.18 20 21.855H19C19 23.18 17.923 24.257 16.599 24.257V25.257C17.825 25.257 18.901 24.605 19.5 23.629C20.099 24.605 21.175 25.257 22.401 25.257C23.628 25.257 24.704 24.605 25.303 23.629C25.901 24.605 26.978 25.257 28.204 25.257C29.431 25.257 30.507 24.605 31.105 23.629C31.704 24.605 32.78 25.257 34.007 25.257V24.257C32.683 24.257 31.605 23.18 31.605 21.855ZM15.5 28.715V29.715C7.985 29.715 6 23.5 6 20.215V9.929C6 9.721 6.128 9.535 6.322 9.461L15.322 6.033C15.436 5.989 15.564 5.989 15.678 6.033L24.678 9.461C24.872 9.535 25 9.721 25 9.929V20.079H24V10.273L15.5 7.036L7 10.273V20.215C7 20.562 7.097 28.715 15.5 28.715Z" fill="#DD344C"/>
</g>
<rect x="0.5" y="0.5" width="39" height="39" stroke="#DD344C"/>
<defs>
<clipPath id="clip0_23310_9544">
<rect width="40" height="40" fill="white"/>
</clipPath>
</defs>
</svg>
