<svg width="40" height="40" viewBox="0 0 40 40" xmlns="http://www.w3.org/2000/svg">  <g id="Icon-Architecture/32/Arch_AWS-IoT-FleetWise_32" stroke="none" stroke-width="1" fill="none" fill-rule="evenodd">  <g id="Icon-Service/32/AWS-IoT-FleetWise_32" transform="translate(6.300000, 6.000000)" fill="#FFFFFF"> <path d="M14.69,25.0324057 L14.69,21.7674057 C14.69,20.7874057 15.356,19.9904057 16.174,19.9904057 L19.492,19.9904057 C18.941,22.4264057 17.08,24.3654057 14.69,25.0324057 M11.676,25.1764057 L11.676,21.7674057 C11.676,20.2364057 10.302,18.9904057 8.614,18.9904057 L6.095,18.9904057 C6.083,18.8244057 6.07,18.6594057 6.07,18.4904057 C6.07,18.3214057 6.083,18.1564057 6.095,17.9904057 L8.266,17.9904057 C9.366,17.9894057 10.378,17.5224057 10.975,16.7404057 C11.456,16.1114057 12.184,15.7504057 12.975,15.7504057 C13.766,15.7504057 14.495,16.1114057 14.975,16.7414057 C15.573,17.5234057 16.586,17.9904057 17.684,17.9904057 L19.639,17.9904057 C19.651,18.1564057 19.665,18.3214057 19.665,18.4904057 C19.665,18.6594057 19.651,18.8244057 19.639,18.9904057 L16.174,18.9904057 C14.804,18.9904057 13.69,20.2364057 13.69,21.7674057 L13.69,25.2334057 C13.42,25.2654057 13.147,25.2874057 12.868,25.2874057 C12.461,25.2874057 12.064,25.2454057 11.676,25.1764057 M6.242,19.9904057 L8.614,19.9904057 C9.752,19.9904057 10.676,20.7874057 10.676,21.7674057 L10.676,24.9184057 C8.464,24.1624057 6.765,22.2994057 6.242,19.9904057 M12.868,11.6934057 C16.1,11.6934057 18.807,13.9624057 19.492,16.9904057 L17.684,16.9904057 C16.895,16.9904057 16.179,16.6704057 15.77,16.1344057 C15.099,15.2554057 14.081,14.7504057 12.975,14.7504057 C11.871,14.7504057 10.851,15.2544057 10.18,16.1344057 C9.771,16.6694057 9.055,16.9894057 8.266,16.9904057 L6.242,16.9904057 C6.928,13.9624057 9.636,11.6934057 12.868,11.6934057 M12.868,10.6934057 C8.568,10.6934057 5.07,14.1914057 5.07,18.4904057 C5.07,22.7894057 8.568,26.2874057 12.868,26.2874057 C17.167,26.2874057 20.665,22.7894057 20.665,18.4904057 C20.665,14.1914057 17.167,10.6934057 12.868,10.6934057 M22.938,17.9904057 L22.724,17.9894057 C22.461,12.7734057 18.148,8.60840571 12.868,8.60840571 C7.843,8.60840571 3.69,12.3804057 3.073,17.2404057 C1.949,16.4344057 1.161,15.0414057 1.024,13.5514057 C1.007,13.3724057 1,13.1864057 1,12.9934057 C1,11.5684057 2.021,9.56640571 3.94,9.51340571 C4.192,9.50640571 4.4,9.31240571 4.424,9.06140571 L4.476,8.52140571 C4.479,8.48640571 4.479,8.45040571 4.474,8.41440571 C4.443,8.14640571 4.426,7.87240571 4.426,7.59440571 C4.426,5.13140571 6.092,2.48240571 8.218,1.56340571 C11.891,-0.023594293 14.492,2.06340571 15.441,3.03440571 C16.215,3.82640571 16.819,4.83840571 17.235,6.04240571 C17.296,6.21840571 17.45,6.34540571 17.634,6.37340571 C17.819,6.40040571 18.003,6.32340571 18.113,6.17140571 C18.711,5.34440571 19.685,4.98140571 20.593,5.24040571 C21.723,5.56540571 22.461,6.73140571 22.565,8.30640571 C22.523,8.57540571 22.705,8.82840571 22.973,8.87540571 C24.179,9.08740571 26.986,9.95440571 26.986,13.4364057 C26.986,17.5844057 23.061,17.9774057 22.938,17.9904057 M12.868,27.3724057 C7.969,27.3724057 3.985,23.3884057 3.985,18.4904057 C3.985,13.5924057 7.969,9.60840571 12.868,9.60840571 C17.765,9.60840571 21.75,13.5924057 21.75,18.4904057 C21.75,23.3884057 17.765,27.3724057 12.868,27.3724057 M23.538,7.97140571 C23.323,6.07240571 22.34,4.70240571 20.87,4.28040571 C19.823,3.97940571 18.718,4.24140571 17.884,4.95340571 C17.442,3.93740571 16.863,3.05940571 16.156,2.33640571 C13.881,0.00640570702 10.764,-0.627594293 7.822,0.645405707 C5.316,1.72840571 3.426,4.71640571 3.426,7.59440571 C3.426,7.89340571 3.443,8.18940571 3.475,8.47840571 L3.468,8.55240571 C1.314,8.86940571 0,11.0234057 0,12.9934057 C0,13.2174057 0.009,13.4334057 0.028,13.6424057 C0.213,15.6564057 1.348,17.4644057 2.991,18.3734057 C2.99,18.4124057 2.985,18.4514057 2.985,18.4904057 C2.985,23.9394057 7.419,28.3724057 12.868,28.3724057 C18.149,28.3724057 22.463,24.2054057 22.724,18.9884057 L22.977,18.9894057 C23.028,18.9844057 27.986,18.5144057 27.986,13.4364057 C27.986,9.49540571 24.959,8.31040571 23.538,7.97140571" id="Fill-5"></path> </g> </g></svg>