<svg width="24px" height="24px" viewBox="0 0 24 24" fill="none" xmlns="http://www.w3.org/2000/svg">
<g clip-path="url(#clip0_24126_24166)">
<path d="M12.9 17.6002C13.2 18.8002 14.3 19.7002 15.6 19.7002C17.2 19.7002 18.4 18.4002 18.4 16.9002C18.4 15.4002 17.1 14.1002 15.6 14.1002C14.3 14.1002 13.2 15.0002 12.9 16.2002H5.59995V17.7002H12.9V17.6002ZM21.7999 21.8002H2.19995V11.2002H7.39995L8.99995 12.8002H12H15L16.5 11.3002H21.7V21.8002H21.7999ZM7.89995 17.6002H6.39995V19.1002H7.89995V17.6002ZM10.1 17.6002H8.59995V19.1002H10.1V17.6002ZM14.2 16.9002C14.2 17.7002 14.8 18.3002 15.6 18.3002C16.4 18.3002 17 17.7002 17 16.9002C17 16.1002 16.4 15.5002 15.6 15.5002C14.8 15.5002 14.2 16.1002 14.2 16.9002Z" fill="white"/>
<path d="M11.2 12H9.40005L8.10005 10.5H3.80005V7.5H11.2V12Z" fill="white"/>
<path d="M15.8 10.8002L14.5 12.0002H12V6.8002H6V5.2002H15.8V10.8002Z" fill="white"/>
<path d="M20.2 10.5H16.5V4.5H9.80005V3H20.2V10.5Z" fill="white"/>
</g>
<defs>
<clipPath id="clip0_24126_24166">
<rect width="24" height="24" fill="white"/>
</clipPath>
</defs>
</svg>
