<svg width="25" height="22" viewBox="0 0 25 22" fill="none" xmlns="http://www.w3.org/2000/svg">
<g clip-path="url(#clip0_24222_18194)">
<path d="M5.38721 11.1737L8.96834 17.3739L16.1948 17.4058L19.8081 11.2016L16.2029 4.96545H9.01116L5.38721 11.1737ZM12.6003 7.88275C13.256 7.88248 13.897 8.07542 14.4423 8.43717C14.9876 8.79891 15.4127 9.31321 15.6638 9.91501C15.9149 10.5168 15.9807 11.1791 15.853 11.8181C15.7252 12.457 15.4096 13.044 14.9461 13.5048C14.4825 13.9655 13.8919 14.2793 13.2488 14.4065C12.6058 14.5337 11.9392 14.4686 11.3334 14.2193C10.7277 13.9701 10.2099 13.5479 9.84558 13.0063C9.48128 12.4646 9.28684 11.8278 9.28684 11.1763C9.28684 10.303 9.63589 9.46551 10.2573 8.84788C10.8786 8.23026 11.7214 7.8831 12.6003 7.88275Z" fill="#DDDDDD"/>
<path d="M19.0571 1.31425C18.9391 1.11285 18.7703 0.945566 18.5672 0.828955C18.3642 0.712344 18.134 0.650454 17.8995 0.649414L10.855 0.658722V0.650744L7.26718 0.66404C7.03246 0.664981 6.80206 0.726817 6.59879 0.843427C6.39552 0.960036 6.22643 1.12737 6.10826 1.32887L2.89648 6.8563L5.06443 10.6139L8.68705 4.40573H20.8798L19.0571 1.31425Z" fill="white"/>
<path d="M14.3535 21.69L17.9668 21.6727C18.201 21.672 18.4309 21.6103 18.6336 21.4936C18.8363 21.3769 19.0046 21.2095 19.1217 21.0079L22.6386 14.9433V14.9513L24.4211 11.8531C24.5375 11.6507 24.5987 11.4215 24.5987 11.1883C24.5987 10.9551 24.5375 10.726 24.4211 10.5235L21.1986 4.9668H16.8467L20.4519 11.2043L16.8386 17.4112H16.8547L14.3535 21.69Z" fill="white"/>
<path d="M6.08719 21.0185C6.20515 21.2199 6.37401 21.3872 6.57705 21.5038C6.78008 21.6204 7.01026 21.6823 7.24477 21.6834L13.7004 21.7007L15.8858 17.9616L8.64189 17.935L8.5616 17.7954L2.57565 7.43066L0.777057 10.5368C0.660768 10.7393 0.599609 10.9684 0.599609 11.2016C0.599609 11.4348 0.660768 11.6639 0.777057 11.8664L4.28994 17.9271H4.28057L6.08719 21.0185Z" fill="white"/>
<g filter="url(#filter0_d_24222_18194)">
<path d="M12.6001 14.4685C14.4301 14.4685 15.9136 12.9946 15.9136 11.1763C15.9136 9.35803 14.4301 7.88403 12.6001 7.88403C10.7701 7.88403 9.28662 9.35803 9.28662 11.1763C9.28662 12.9946 10.7701 14.4685 12.6001 14.4685Z" fill="white"/>
</g>
</g>
<defs>
<filter id="filter0_d_24222_18194" x="8.28662" y="7.88403" width="8.62695" height="8.58447" filterUnits="userSpaceOnUse" color-interpolation-filters="sRGB">
<feFlood flood-opacity="0" result="BackgroundImageFix"/>
<feColorMatrix in="SourceAlpha" type="matrix" values="0 0 0 0 0 0 0 0 0 0 0 0 0 0 0 0 0 0 127 0" result="hardAlpha"/>
<feOffset dy="1"/>
<feGaussianBlur stdDeviation="0.5"/>
<feComposite in2="hardAlpha" operator="out"/>
<feColorMatrix type="matrix" values="0 0 0 0 0 0 0 0 0 0 0 0 0 0 0 0 0 0 0.05 0"/>
<feBlend mode="normal" in2="BackgroundImageFix" result="effect1_dropShadow_24222_18194"/>
<feBlend mode="normal" in="SourceGraphic" in2="effect1_dropShadow_24222_18194" result="shape"/>
</filter>
<clipPath id="clip0_24222_18194">
<rect width="24" height="21.0526" fill="white" transform="translate(0.600098 0.64917)"/>
</clipPath>
</defs>
</svg>
