<svg id="Layer_1" xmlns="http://www.w3.org/2000/svg" width="800" height="800" version="1.1" viewBox="0 0 800 800"><path d="M532,255.7l69.5-69.5,4.6-29.3c-126.7-115.2-328.2-102.2-442.4,27.3-31.7,35.9-55.3,80.8-67.8,127l24.9-3.5,139.1-22.9,10.7-11c61.9-67.9,166.5-77.1,237.9-19.3l23.4,1.2Z" fill="#fff" opacity=".8"/><path d="M700.6,309.1c-16-58.9-48.8-111.8-94.4-152.3l-97.6,97.6c41.2,33.7,64.7,84.4,63.7,137.6v17.3c48,0,86.9,38.9,86.9,86.9s-38.9,85.9-86.9,85.9h-174l-17.1,18.5v104.2l17.1,16.3h174c124.8,1,226.7-98.4,227.7-223.2.6-75.6-36.7-146.5-99.4-188.9" fill="#fff" opacity=".6"/><path d="M224.6,721.2h173.7v-139.1h-173.7c-12.4,0-24.4-2.7-35.6-7.8l-24.6,7.6-70,69.5-6.1,23.7c39.3,29.7,87.2,46.3,136.4,46.1" fill="#fff" opacity=".8"/><path d="M224.6,270.1C99.8,270.8-.7,372.6,0,497.4c.4,69.7,33,135.3,88.2,177.8l100.8-100.8c-43.7-19.8-63.2-71.2-43.4-114.9,19.7-43.7,71.2-63.1,114.9-43.4,19.3,8.7,34.7,24.1,43.4,43.4l100.8-100.8c-42.9-56.1-109.5-88.8-180.1-88.6" fill="#fff"/></svg>