<svg width="40" height="40" viewBox="0 0 40 40" xmlns="http://www.w3.org/2000/svg">  <g id="Icon-Architecture/32/Arch_Amazon-Location-Service_32" stroke="none" stroke-width="1" fill="none" fill-rule="evenodd">  <g id="Icon-Service/32/Amazon-Location-Service_32" transform="translate(7.000000, 7.000000)" fill="#FFFFFF"> <path d="M13.0002336,20.957 L1.6582336,15.48 L4.6552336,14.058 L12.7822336,17.985 C12.8522336,18.019 12.9262336,18.035 13.0002336,18.035 C13.0742336,18.035 13.1482336,18.019 13.2182336,17.985 L21.3442336,14.059 L24.3422336,15.48 L13.0002336,20.957 Z M24.2692336,19.588 L13.0002336,25.049 L1.7312336,19.588 L5.0682336,18.238 L12.7822336,21.962 C12.8522336,21.996 12.9262336,22.012 13.0002336,22.012 C13.0742336,22.012 13.1482336,21.996 13.2182336,21.962 L20.9322336,18.238 L24.2692336,19.588 Z M26.0004672,15.475 C25.9992336,15.282 25.8892336,15.107 25.7142336,15.025 L22.4992336,13.5 L25.7182336,11.945 C25.8912336,11.861 26.0004672,11.686 26.0004672,11.495 C26.0004672,11.303 25.8912336,11.128 25.7182336,11.044 L17.4532336,7.05 L17.4732336,7.169 C17.5272336,7.496 17.4922336,7.824 17.3902336,8.131 L24.3512336,11.495 L13.0002336,16.98 L1.6492336,11.495 L8.6112336,8.13 C8.5082336,7.821 8.4732336,7.492 8.5282336,7.163 L8.5482336,7.05 L0.282233596,11.044 C0.109233596,11.128 1.77635684e-15,11.303 1.77635684e-15,11.495 C1.77635684e-15,11.686 0.109233596,11.861 0.282233596,11.945 L3.5002336,13.5 L0.286233596,15.025 C0.111233596,15.107 0.00123359565,15.282 1.77635684e-15,15.475 C-0.000766404351,15.667 0.109233596,15.843 0.282233596,15.927 L3.8542336,17.651 L0.312233596,19.084 C0.129233596,19.158 0.00723359565,19.333 1.77635684e-15,19.531 C-0.00576640435,19.728 0.104233596,19.911 0.282233596,19.997 L12.7822336,26.055 C12.8512336,26.088 12.9262336,26.105 13.0002336,26.105 C13.0742336,26.105 13.1492336,26.088 13.2182336,26.055 L25.7182336,19.997 C25.8962336,19.911 26.0062336,19.728 26.0004672,19.531 C25.9932336,19.333 25.8712336,19.158 25.6882336,19.084 L22.1462336,17.651 L25.7182336,15.927 C25.8912336,15.843 26.0012336,15.667 26.0004672,15.475 L26.0004672,15.475 Z M14.5532336,4.301 C14.5052336,4.396 14.4892336,4.503 14.5072336,4.607 L14.9092336,7 L11.0932336,7 L11.5052336,4.597 C11.5222336,4.492 11.5072336,4.383 11.4592336,4.288 L9.8112336,1 L16.1932336,1 L14.5532336,4.301 Z M17.4252336,0.237 C17.3342336,0.09 17.1732336,0 17.0002336,0 L9.0002336,0 C8.8262336,0 8.6662336,0.09 8.5742336,0.238 C8.4832336,0.385 8.4762336,0.57 8.5532336,0.725 L10.4912336,4.589 L10.0072336,7.416 C9.9822336,7.561 10.0222336,7.71 10.1182336,7.823 C10.2132336,7.936 10.3532336,8 10.5002336,8 L12.5002336,8 L12.5002336,12 L13.5002336,12 L13.5002336,8 L15.5002336,8 C15.6472336,8 15.7872336,7.936 15.8822336,7.823 C15.9772336,7.711 16.0182336,7.562 15.9932336,7.417 L15.5202336,4.601 L17.4472336,0.723 C17.5242336,0.568 17.5172336,0.384 17.4252336,0.237 L17.4252336,0.237 Z" id="Fill-5"></path> </g> </g></svg>