<svg xmlns="http://www.w3.org/2000/svg" width="18" height="18" viewBox="0 0 18 18"><defs><radialGradient id="a" cx="9" cy="7.35" r="6.42" gradientUnits="userSpaceOnUse"><stop offset="0" stop-color="#b77af4"/><stop offset=".21" stop-color="#b378f2"/><stop offset=".43" stop-color="#a672ed"/><stop offset=".65" stop-color="#9267e4"/><stop offset=".88" stop-color="#7559d8"/><stop offset="1" stop-color="#624fd0"/></radialGradient><linearGradient id="b" x1="9.02" y1="3.91" x2="9.08" y2="11.49" gradientUnits="userSpaceOnUse"><stop offset="0" stop-color="#f2f2f2"/><stop offset=".23" stop-color="#f1f1f2" stop-opacity=".99"/><stop offset=".37" stop-color="#ededf1" stop-opacity=".95"/><stop offset=".48" stop-color="#e7e5f0" stop-opacity=".89"/><stop offset=".58" stop-color="#dedbee" stop-opacity=".81"/><stop offset=".67" stop-color="#d3ceeb" stop-opacity=".7"/><stop offset=".76" stop-color="#c4bee8" stop-opacity=".57"/><stop offset=".84" stop-color="#b4abe5" stop-opacity=".41"/><stop offset=".92" stop-color="#a095e1" stop-opacity=".22"/><stop offset=".99" stop-color="#8b7ddc" stop-opacity=".02"/><stop offset="1" stop-color="#897bdc" stop-opacity="0"/></linearGradient></defs><path d="M10.23 17.39l.81-.87V14.2H7v2.32l.81.87a.32.32 0 00.19.11h2a.32.32 0 00.23-.11z" fill="#cecece"/><path d="M9 .5a5.89 5.89 0 00-5.91 6.57c.27 2.47 2.62 3.62 3.29 6.75a.49.49 0 00.47.38h4.3a.49.49 0 00.47-.38c.67-3.13 3-4.28 3.29-6.75A5.89 5.89 0 009 .5zM7 14.2" fill="url(#a)"/><path d="M11.46 3.79a1.4 1.4 0 00-1.35 1.44V6H8v-.77a1.41 1.41 0 00-1.41-1.44 1.4 1.4 0 00-1.35 1.44 1.41 1.41 0 001.35 1.45h.64v6a.36.36 0 00.72 0v-6h2.16v6a.36.36 0 10.72 0v-6h.63a1.4 1.4 0 001.35-1.45 1.4 1.4 0 00-1.35-1.44zM7.23 6h-.68a.74.74 0 01-.68-.77.74.74 0 01.68-.77.74.74 0 01.68.77zm4.28 0h-.68v-.81a.68.68 0 111.35 0 .73.73 0 01-.67.81z" fill="url(#b)"/><path fill="#999" d="M6.96 15.8l4.08-.79v-.45l-4.08.8v.44zM11.04 16.11v-.44l-4.08.81v.04l.31.34 3.77-.75z"/></svg>