<svg width="90" height="90" viewBox="0 0 90 90" fill="none" xmlns="http://www.w3.org/2000/svg">
<path fill-rule="evenodd" clip-rule="evenodd" d="M41.1163 37.3387C60.5104 37.3387 76.2324 29.7637 76.2324 20.4194C76.2324 11.0751 60.5104 3.5 41.1163 3.5C21.7223 3.5 6.00024 11.0751 6.00024 20.4194C6.00024 29.7637 21.7223 37.3387 41.1163 37.3387ZM6.00024 69.5803V26.7224C9.56378 34.3019 23.9316 39.9712 41.1139 39.9712C58.304 39.9712 72.6771 34.2968 76.2324 26.7121V51.7368C74.7397 51.2583 73.1485 51 71.4969 51C62.9366 51 55.9971 57.9396 55.9971 66.5C55.9971 73.354 60.4458 79.169 66.6132 81.2149C60.2131 84.4699 51.1568 86.5002 41.1163 86.5002C21.7223 86.5002 6.00024 78.9251 6.00024 69.5808V69.5803ZM83.9998 66.5C83.9998 73.4035 78.4034 78.9999 71.4999 78.9999C64.5965 78.9999 59.0001 73.4035 59.0001 66.5C59.0001 59.5964 64.5965 54 71.4999 54C78.4034 54 83.9998 59.5964 83.9998 66.5ZM73.5314 63.6999C73.5314 63.1774 73.3583 62.7582 73.012 62.4423C72.6657 62.1264 72.2071 61.9685 71.636 61.9685C71.2837 61.9685 70.9648 62.0444 70.6792 62.1963C70.3937 62.3482 70.1477 62.5699 69.9411 62.8615C69.7467 63.141 69.4825 63.302 69.1484 63.3445C68.8142 63.387 68.5257 63.2989 68.2827 63.0802C68.1126 62.9223 68.0184 62.7279 68.0002 62.497C67.982 62.2662 68.0397 62.0475 68.1733 61.8409C68.5621 61.2577 69.0572 60.8051 69.6587 60.4832C70.2601 60.1612 70.9192 60.0002 71.636 60.0002C72.8146 60.0002 73.7714 60.3343 74.5064 61.0026C75.2415 61.6708 75.609 62.5456 75.609 63.627C75.609 64.1737 75.4936 64.6658 75.2628 65.1032C75.0319 65.5406 74.6067 66.057 73.987 66.6523C73.5375 67.0776 73.2337 67.4087 73.0758 67.6456C72.9179 67.8825 72.8146 68.1528 72.766 68.4566C72.7174 68.7482 72.5928 68.9912 72.3924 69.1856C72.1919 69.38 71.9519 69.4772 71.6725 69.4772C71.393 69.4772 71.1531 69.383 70.9526 69.1947C70.7521 69.0064 70.6519 68.7725 70.6519 68.493C70.6519 68.0192 70.7552 67.5848 70.9617 67.19C71.1683 66.7951 71.5145 66.3789 72.0005 65.9415C72.6202 65.3948 73.0302 64.9726 73.2307 64.6749C73.4312 64.3772 73.5314 64.0522 73.5314 63.6999ZM71.636 73.8512C71.2351 73.8512 70.8919 73.7084 70.6063 73.4229C70.3208 73.1374 70.1781 72.7941 70.1781 72.3932C70.1781 71.9922 70.3208 71.649 70.6063 71.3635C70.8919 71.078 71.2351 70.9352 71.636 70.9352C72.037 70.9352 72.3802 71.078 72.6657 71.3635C72.9513 71.649 73.094 71.9922 73.094 72.3932C73.094 72.7941 72.9513 73.1374 72.6657 73.4229C72.3802 73.7084 72.037 73.8512 71.636 73.8512Z" fill="white"/>
</svg>
