<svg width="109" height="109" viewBox="0 0 109 109" fill="none" xmlns="http://www.w3.org/2000/svg">
<g clip-path="url(#clip0_26446_21381)">
<path d="M54.5 109C43.7209 109 33.1839 105.804 24.2214 99.8151C15.259 93.8266 8.27357 85.3148 4.14859 75.3563C0.0236139 65.3977 -1.05567 54.4396 1.04723 43.8676C3.15012 33.2956 8.34074 23.5847 15.9627 15.9627C23.5847 8.34074 33.2956 3.15012 43.8676 1.04723C54.4396 -1.05567 65.3977 0.0236139 75.3563 4.14859C85.3148 8.27357 93.8266 15.259 99.8151 24.2214C105.804 33.1839 109 43.7209 109 54.5C108.984 68.9494 103.237 82.8025 93.0198 93.0198C82.8025 103.237 68.9494 108.984 54.5 109ZM54.5 4.00002C44.5121 4.00002 34.7484 6.9618 26.4437 12.5108C18.139 18.0598 11.6663 25.9468 7.84411 35.1745C4.02188 44.4022 3.02181 54.556 4.97037 64.3521C6.91892 74.1481 11.7286 83.1464 18.7911 90.2089C25.8537 97.2715 34.8519 102.081 44.648 104.03C54.444 105.978 64.5979 104.978 73.8255 101.156C83.0532 97.3337 90.9402 90.861 96.4892 82.5563C102.038 74.2516 105 64.488 105 54.5C104.987 41.1107 99.662 28.2735 90.1943 18.8058C80.7266 9.33803 67.8894 4.01326 54.5 4.00002ZM54.5 13C61.5075 12.9996 68.401 14.7735 74.5378 18.1565C80.6745 21.5395 85.8547 26.4214 89.5954 32.347C93.336 38.2725 95.5153 45.0488 95.93 52.044C96.3448 59.0392 94.9814 66.0255 91.9671 72.3515C88.9528 78.6775 84.3857 84.1373 78.6916 88.2217C72.9975 92.3061 66.362 94.8821 59.4035 95.7096C52.4451 96.5372 45.3904 95.5892 38.8972 92.9541C32.4041 90.319 26.6839 86.0827 22.27 80.64L54.5 54.5V13Z" fill="#326CE5"/>
</g>
<defs>
<clipPath id="clip0_26446_21381">
<rect width="109" height="109" fill="white"/>
</clipPath>
</defs>
</svg>
