<svg width="64" height="64" viewBox="0 0 64 64" fill="none" xmlns="http://www.w3.org/2000/svg">
<path d="M43.1484 51L20.8516 51C15.5867 51 10.5373 48.9982 6.81441 45.435C3.0915 41.8719 1 37.0391 1 32C1 26.9609 3.0915 22.1281 6.81441 18.565C10.5373 15.0018 15.5867 13 20.8516 13L43.1484 13C48.4133 13 53.4627 15.0018 57.1856 18.565C60.9085 22.1281 63 26.9609 63 32C63 37.0391 60.9085 41.8719 57.1856 45.435C53.4627 48.9982 48.4133 51 43.1484 51ZM43.2348 18.004C40.3426 18.004 37.5154 18.8248 35.1105 20.3627C32.7058 21.9007 30.8314 24.0865 29.7246 26.644C28.6178 29.2014 28.3282 32.0155 28.8924 34.7305C29.4567 37.4454 30.8495 39.9393 32.8945 41.8967C34.9397 43.8541 37.5453 45.1871 40.3819 45.7271C43.2186 46.2671 46.1589 45.99 48.831 44.9307C51.503 43.8713 53.787 42.0774 55.3937 39.7758C57.0006 37.4741 57.8582 34.7681 57.8582 32C57.8593 30.1592 57.4807 28.3363 56.7442 26.6358C56.0077 24.9353 54.9278 23.3907 53.5663 22.0904C52.2049 20.7901 50.5887 19.7599 48.8104 19.0587C47.0321 18.3574 45.1267 17.999 43.2034 18.004H43.2348Z" fill="#231F20"/>
</svg>