<svg width="40" height="40" viewBox="0 0 40 40" fill="none" xmlns="http://www.w3.org/2000/svg">
<g clip-path="url(#clip0_23298_3986)">
<path d="M40 0H0V40H40V0Z" fill="#01A88D" fill-opacity="0.12"/>
<path fill-rule="evenodd" clip-rule="evenodd" d="M30.9982 26.6845L20.021 32.9214L9.00175 26.6845V13.2245L20.021 7.07698L30.9982 13.2235V26.6845ZM31.7436 12.4911L20.2655 6.06359C20.1132 5.9783 19.9279 5.97931 19.7776 6.06359L8.25745 12.4911C8.09917 12.5794 8 12.7479 8 12.9295V26.9765C8 27.1571 8.09717 27.3247 8.25445 27.413L19.7746 33.9348C19.8507 33.9789 19.9359 34 20.021 34C20.1062 34 20.1913 33.9789 20.2685 33.9348L31.7466 27.413C31.9028 27.3237 32 27.1571 32 26.9765V12.9295C32 12.7479 31.9018 12.5804 31.7436 12.4911ZM21.0498 12.9015C21.0498 13.4704 20.588 13.9329 20.021 13.9329C19.454 13.9329 18.9922 13.4704 18.9922 12.9015C18.9922 12.3325 19.454 11.87 20.021 11.87C20.588 11.87 21.0498 12.3325 21.0498 12.9015ZM27.4781 18.4199C27.4781 18.9888 27.0163 19.4514 26.4493 19.4514C25.8813 19.4514 25.4195 18.9888 25.4195 18.4199C25.4195 17.851 25.8813 17.3885 26.4493 17.3885C27.0163 17.3885 27.4781 17.851 27.4781 18.4199ZM24.001 23.7437C23.991 23.7437 23.983 23.7457 23.973 23.7457L22.6717 21.6537L25.0368 19.8778C25.1841 20.0213 25.3574 20.1376 25.5437 20.231L24.5189 23.819C24.3526 23.7748 24.1803 23.7437 24.001 23.7437ZM24.001 26.81C23.432 26.81 22.9702 26.3474 22.9702 25.7785C22.9702 25.2096 23.432 24.7471 24.001 24.7471C24.568 24.7471 25.0298 25.2096 25.0298 25.7785C25.0298 26.3474 24.568 26.81 24.001 26.81ZM21.8683 22.2577L22.9722 24.0327C22.835 24.1149 22.7037 24.2093 22.5875 24.3206L20.8555 23.0183L21.8683 22.2577ZM17.4535 24.3206C17.3383 24.2093 17.2071 24.1149 17.0699 24.0327L18.1738 22.2577L19.1866 23.0183L17.4535 24.3206ZM16.0411 26.81C15.4741 26.81 15.0123 26.3474 15.0123 25.7785C15.0123 25.2096 15.4741 24.7471 16.0411 24.7471C16.6101 24.7471 17.0719 25.2096 17.0719 25.7785C17.0719 26.3474 16.6101 26.81 16.0411 26.81ZM14.4984 20.231C14.6847 20.1376 14.858 20.0213 15.0053 19.8778L17.3704 21.6537L16.0691 23.7457C16.0591 23.7457 16.0511 23.7437 16.0411 23.7437C15.8618 23.7437 15.6895 23.7748 15.5232 23.819L14.4984 20.231ZM12.564 18.4199C12.564 17.851 13.0258 17.3885 13.5928 17.3885C14.1608 17.3885 14.6226 17.851 14.6226 18.4199C14.6226 18.9888 14.1608 19.4514 13.5928 19.4514C13.0258 19.4514 12.564 18.9888 12.564 18.4199ZM19.5202 16.4553C18.6426 16.6801 17.9905 17.4717 17.9905 18.4199C17.9905 18.9497 18.1978 19.4293 18.5304 19.7905L17.9023 20.7999L15.5262 19.0149C15.5833 18.8253 15.6243 18.6286 15.6243 18.4199C15.6243 17.9042 15.425 17.4366 15.1074 17.0774L18.7478 14.4737C18.9712 14.6563 19.2317 14.7918 19.5202 14.866V16.4553ZM19.3699 20.3373C19.5753 20.4086 19.7916 20.4547 20.021 20.4547C20.2504 20.4547 20.4668 20.4086 20.6722 20.3373L21.3353 21.4039L20.021 22.3922L18.7057 21.4039L19.3699 20.3373ZM20.021 17.3885C20.588 17.3885 21.0498 17.851 21.0498 18.4199C21.0498 18.9888 20.588 19.4514 20.021 19.4514C19.454 19.4514 18.9922 18.9888 18.9922 18.4199C18.9922 17.851 19.454 17.3885 20.021 17.3885ZM21.2943 14.4737L24.9346 17.0774C24.6171 17.4366 24.4177 17.9042 24.4177 18.4199C24.4177 18.6286 24.4588 18.8253 24.5159 19.0149L22.1397 20.7999L21.5116 19.7905C21.8442 19.4293 22.0516 18.9497 22.0516 18.4199C22.0516 17.4717 21.3994 16.6801 20.5219 16.4553V14.866C20.8104 14.7918 21.0709 14.6563 21.2943 14.4737ZM17.9905 12.9015C17.9905 13.1744 18.0456 13.4332 18.1438 13.672L14.2199 16.4794L14.2349 16.4995C14.0316 16.4313 13.8192 16.3851 13.5928 16.3851C12.4728 16.3851 11.5622 17.2982 11.5622 18.4199C11.5622 19.5166 12.4338 20.4076 13.5197 20.4477L14.6256 24.3236C14.2469 24.6939 14.0105 25.2076 14.0105 25.7785C14.0105 26.9003 14.9211 27.8133 16.0411 27.8133C17.161 27.8133 18.0736 26.9003 18.0736 25.7785C18.0736 25.5698 18.0336 25.3722 17.9745 25.1825L20.021 23.6454L22.0676 25.1825C22.0085 25.3722 21.9684 25.5698 21.9684 25.7785C21.9684 26.9003 22.88 27.8133 24.001 27.8133C25.121 27.8133 26.0316 26.9003 26.0316 25.7785C26.0316 25.2076 25.7951 24.6939 25.4165 24.3236L26.5224 20.4477C27.6083 20.4076 28.4798 19.5166 28.4798 18.4199C28.4798 17.2982 27.5692 16.3851 26.4493 16.3851C26.2229 16.3851 26.0105 16.4313 25.8072 16.4995L25.8222 16.4794L21.8983 13.672C21.9965 13.4332 22.0516 13.1744 22.0516 12.9015C22.0516 11.7797 21.141 10.8666 20.021 10.8666C18.9011 10.8666 17.9905 11.7797 17.9905 12.9015Z" fill="#01A88D"/>
</g>
<rect x="0.5" y="0.5" width="39" height="39" stroke="#01A88D"/>
<defs>
<clipPath id="clip0_23298_3986">
<rect width="40" height="40" fill="white"/>
</clipPath>
</defs>
</svg>
