<svg width="40" height="40" viewBox="0 0 40 40" xmlns="http://www.w3.org/2000/svg">  <g id="Icon-Architecture/32/Arch_AWS-Panorama_32" stroke="none" stroke-width="1" fill="none" fill-rule="evenodd">  <g id="Icon-Service/32/AWS-Panorama_32" transform="translate(6.000000, 6.000000)" fill="#FFFFFF"> <path d="M23.5,21.0127268 L18,21.0127268 L18,22.0109087 L23.5,22.0109087 C24.879,22.0109087 26,23.1308688 26,24.5063634 C26,25.881858 24.879,27.0018181 23.5,27.0018181 L3.5,27.0018181 C2.121,27.0018181 1,25.881858 1,24.5063634 C1,23.1308688 2.121,22.0109087 3.5,22.0109087 L8.992,22.0109087 L8.992,21.0127268 L3.5,21.0127268 C1.57,21.0127268 0,22.5798724 0,24.5063634 C0,26.4328544 1.57,28 3.5,28 L23.5,28 C25.43,28 27,26.4328544 27,24.5063634 C27,22.5798724 25.43,21.0127268 23.5,21.0127268 L23.5,21.0127268 Z M5.5,7.03818046 C6.327,7.03818046 7,6.36640405 7,5.54090763 C7,4.71541122 6.327,4.04363481 5.5,4.04363481 C4.673,4.04363481 4,4.71541122 4,5.54090763 C4,6.36640405 4.673,7.03818046 5.5,7.03818046 L5.5,7.03818046 Z M11,12.5281808 L11,25.0054544 L10,25.0054544 L10,12.9374354 L5.402,12.0191081 C5.168,11.9721935 5,11.7675662 5,11.5299989 L5,7.98545506 C3.86,7.75387687 3,6.74571317 3,5.54090763 C3,4.165413 4.121,3.04545293 5.5,3.04545293 C6.879,3.04545293 8,4.165413 8,5.54090763 C8,6.74571317 7.14,7.75387687 6,7.98545506 L6,11.1207444 L10.598,12.0390717 C10.832,12.0859862 11,12.2906135 11,12.5281808 L11,12.5281808 Z M15.1,2.49545471 C15.1,1.66995829 14.427,0.998181883 13.6,0.998181883 C12.772,0.998181883 12.1,1.66995829 12.1,2.49545471 C12.1,3.32095112 12.772,3.99272753 13.6,3.99272753 C14.427,3.99272753 15.1,3.32095112 15.1,2.49545471 L15.1,2.49545471 Z M14,4.94998396 L14,22.0109087 L13,22.0109087 L13,4.91005668 C11.911,4.64054757 11.1,3.66432569 11.1,2.49545471 C11.1,1.11896189 12.221,-1.77635684e-15 13.6,-1.77635684e-15 C14.979,-1.77635684e-15 16.1,1.11896189 16.1,2.49545471 C16.1,3.73419842 15.187,4.75733485 14,4.94998396 L14,4.94998396 Z M23,10.531817 C23,9.70632063 22.327,9.03454422 21.5,9.03454422 C20.673,9.03454422 20,9.70632063 20,10.531817 C20,11.3573135 20.673,12.0290899 21.5,12.0290899 C22.327,12.0290899 23,11.3573135 23,10.531817 L23,10.531817 Z M24,10.531817 C24,11.9073117 22.879,13.0272718 21.5,13.0272718 C20.292,13.0272718 19.283,12.1688353 19.051,11.030908 L17,11.030908 L17,25.0054544 L16,25.0054544 L16,10.531817 C16,10.2563188 16.224,10.0327261 16.5,10.0327261 L19.051,10.0327261 C19.283,8.89479876 20.292,8.03636234 21.5,8.03636234 C22.879,8.03636234 24,9.15632241 24,10.531817 L24,10.531817 Z M19,25.0054544 L21,25.0054544 L21,24.0072725 L19,24.0072725 L19,25.0054544 Z M22,25.0054544 L24,25.0054544 L24,24.0072725 L22,24.0072725 L22,25.0054544 Z" id="Fill-7"></path> </g> </g></svg>