<svg width="40" height="40" viewBox="0 0 40 40" fill="none" xmlns="http://www.w3.org/2000/svg">
<g clip-path="url(#clip0_23295_3051)">
<path d="M40 0H0V40H40V0Z" fill="#ED7100" fill-opacity="0.12"/>
<path fill-rule="evenodd" clip-rule="evenodd" d="M30 20.7415H31V19.7613H30V20.7415ZM29 21.7216H32V18.7812H29V21.7216ZM22 20.7415H23V19.7613H22V20.7415ZM21 21.7216H24V18.7812H21V21.7216ZM14 20.7415H15V19.7613H14V20.7415ZM13 21.7216H16V18.7812H13V21.7216ZM33 22.7017H28V20.7415H25V22.7017H20V20.7415H17V22.7017H12V17.8011H17V19.7613H20V17.8011H25V19.7613H28V17.8011H33V22.7017ZM33.201 16.821H27.799C27.358 16.821 27 17.1719 27 17.6041V18.7812H26V17.6041C26 17.1719 25.642 16.821 25.201 16.821H19.799C19.358 16.821 19 17.1719 19 17.6041V18.7812H18V17.6041C18 17.1719 17.642 16.821 17.201 16.821H11.799C11.358 16.821 11 17.1719 11 17.6041V22.8977C11 23.3299 11.358 23.6818 11.799 23.6818H17.201C17.642 23.6818 18 23.3299 18 22.8977V21.7216H19V22.8977C19 23.3299 19.358 23.6818 19.799 23.6818H25.201C25.642 23.6818 26 23.3299 26 22.8977V21.7216H27V22.8977C27 23.3299 27.358 23.6818 27.799 23.6818H33.201C33.642 23.6818 34 23.3299 34 22.8977V17.6041C34 17.1719 33.642 16.821 33.201 16.821ZM15.5 8.98011C19.793 8.98011 23 10.2739 23 11.4304C23 12.5869 19.793 13.8807 15.5 13.8807C11.207 13.8807 8 12.5869 8 11.4304C8 10.2739 11.207 8.98011 15.5 8.98011ZM23 28.454C23 29.6673 19.92 31.0199 15.5 31.0199C11.08 31.0199 8 29.6673 8 28.454V24.5747C9.318 25.7273 11.693 26.6927 14.902 26.6927C18.744 26.6927 20.756 25.8067 20.84 25.7684L20.423 24.8775C20.404 24.8863 18.502 25.7126 14.902 25.7126C11.306 25.7126 8.738 24.3855 8 23.0506V18.8469C8.407 19.236 8.947 19.5908 9.712 19.8741L10.065 18.9577C8.813 18.4941 8.331 17.8109 8 17.1895V13.1025C9.526 14.2521 12.574 14.8608 15.5 14.8608C18.426 14.8608 21.474 14.2521 23 13.1025V15.8409H24V10.9403H23.918C23.325 9.02814 19.306 8 15.5 8C11.694 8 7.675 9.02814 7.082 10.9403H7V28.454C7 30.7562 11.38 32 15.5 32C19.62 32 24 30.7562 24 28.454V24.6619H23V28.454Z" fill="#ED7100"/>
</g>
<rect x="0.5" y="0.5" width="39" height="39" stroke="#ED7100"/>
<defs>
<clipPath id="clip0_23295_3051">
<rect width="40" height="40" fill="white"/>
</clipPath>
</defs>
</svg>
