<svg width="40" height="40" viewBox="0 0 40 40" fill="none" xmlns="http://www.w3.org/2000/svg">
<g clip-path="url(#clip0_23298_4097)">
<path d="M40 0H0V40H40V0Z" fill="#E7157B" fill-opacity="0.12"/>
<path fill-rule="evenodd" clip-rule="evenodd" d="M25.1033 24H27.1033V25H25.1033V27H24.1033V25H22.1033V24H24.1033V22H25.1033V24ZM28.1033 18H32.1032V14H28.1033V18ZM32.6032 13H27.6033C27.3273 13 27.1033 13.224 27.1033 13.5V18.5C27.1033 18.776 27.3273 19 27.6033 19H32.6032C32.8792 19 33.1032 18.776 33.1032 18.5V13.5C33.1032 13.224 32.8792 13 32.6032 13ZM31.1033 31H33.1032V32H31.1033V34H30.1033V32H28.1033V31H30.1033V29H31.1033V31ZM20.1033 32H25.1033V31H20.1033V32ZM22.8603 17.771L21.7652 16.676L23.6073 14.834L24.7022 15.929L22.8603 17.771ZM8.30125 32.329L7.20725 31.234L21.0583 17.383L22.1532 18.478L8.30125 32.329ZM25.7623 15.576L23.9603 13.773C23.8673 13.68 23.7403 13.627 23.6073 13.627C23.4743 13.627 23.3473 13.68 23.2533 13.773L6.14625 30.88C5.95125 31.076 5.95125 31.392 6.14625 31.587L7.94825 33.39C8.04125 33.483 8.16825 33.536 8.30125 33.536C8.43425 33.536 8.56125 33.483 8.65525 33.39L25.7623 16.283C25.9573 16.087 25.9573 15.771 25.7623 15.576ZM13.1032 16H11.1032V15H13.1032V13H14.1032V15H16.1033V16H14.1032V18H13.1032V16ZM21.1033 11H25.1033V7H21.1033V11ZM20.6033 12H25.6033C25.8793 12 26.1033 11.776 26.1033 11.5V6.5C26.1033 6.224 25.8793 6 25.6033 6H20.6033C20.3273 6 20.1033 6.224 20.1033 6.5V11.5C20.1033 11.776 20.3273 12 20.6033 12ZM11.1032 9H14.1032V8H11.1032V9ZM6.10325 9H10.1032V8H6.10325V9ZM28.1033 11H32.1032V7H28.1033V11ZM32.6032 6H27.6033C27.3273 6 27.1033 6.224 27.1033 6.5V11.5C27.1033 11.776 27.3273 12 27.6033 12H32.6032C32.8792 12 33.1032 11.776 33.1032 11.5V6.5C33.1032 6.224 32.8792 6 32.6032 6Z" fill="#E7157B"/>
</g>
<rect x="0.5" y="0.5" width="39" height="39" stroke="#E7157B"/>
<defs>
<clipPath id="clip0_23298_4097">
<rect width="40" height="40" fill="white"/>
</clipPath>
</defs>
</svg>
