<svg width="40" height="40" viewBox="0 0 40 40" fill="none" xmlns="http://www.w3.org/2000/svg">
<g clip-path="url(#clip0_23295_3277)">
<path d="M40 0H0V40H40V0Z" fill="#ED7100" fill-opacity="0.12"/>
<path fill-rule="evenodd" clip-rule="evenodd" d="M28.82 27.9926H12.7C10.638 27.9926 8.432 26.0231 8.059 23.963H13.439C13.643 23.963 13.828 23.8371 13.903 23.6467C13.979 23.4552 13.932 23.2366 13.784 23.0946C13.549 22.8699 13.421 22.5687 13.421 22.2474C13.421 21.8776 13.589 21.5371 13.881 21.3125C14.176 21.0848 14.548 21.0153 14.924 21.1191C15.281 21.2178 15.583 21.5079 15.691 21.8595C15.833 22.3149 15.72 22.7763 15.388 23.0946C15.241 23.2366 15.194 23.4563 15.27 23.6467C15.346 23.8371 15.53 23.963 15.734 23.963H21.114C21.037 24.1876 20.997 24.4264 20.997 24.6712C20.997 25.3572 21.307 25.9899 21.849 26.4069C22.392 26.824 23.09 26.958 23.763 26.7716C24.451 26.5822 25.01 26.0413 25.221 25.3613C25.369 24.8908 25.359 24.4032 25.209 23.963H32.966C32.662 26.9046 30.385 27.9926 28.82 27.9926ZM11.192 19.2544C11.436 19.1939 11.598 18.9582 11.568 18.7063C11.54 18.4615 11.525 18.2167 11.525 17.9629C11.525 15.7446 13.104 13.353 15.12 12.5199C16.244 12.0555 17.397 11.9134 18.5 12.0766V17.5297C18.5 17.7362 18.625 17.9206 18.814 17.9981C19.004 18.0737 19.219 18.0263 19.362 17.8772C19.84 17.3715 20.702 17.4209 21.123 17.9629C21.35 18.255 21.424 18.6217 21.333 18.9945C21.243 19.3581 20.959 19.6724 20.608 19.7933C20.153 19.9505 19.686 19.8407 19.362 19.4972C19.222 19.347 19.006 19.3017 18.814 19.3763C18.625 19.4518 18.5 19.6382 18.5 19.8437V22.9556H16.632C16.782 22.5153 16.792 22.0288 16.646 21.5583C16.434 20.8773 15.875 20.3363 15.187 20.1469C14.515 19.9606 13.816 20.0945 13.273 20.5116C12.731 20.9287 12.421 21.5613 12.421 22.2474C12.421 22.4922 12.461 22.7309 12.538 22.9556H8.008C8.14 20.3988 10.042 19.5405 11.192 19.2544ZM19.5 12.3123C20.409 12.6105 21.26 13.1293 22.004 13.8567C22.719 14.5558 23.306 15.4957 23.702 16.5737C23.764 16.7459 23.916 16.8698 24.096 16.898C24.272 16.9232 24.457 16.8507 24.568 16.7056C25.009 16.1234 25.665 15.7889 26.365 15.7889C27.399 15.7889 28.652 16.5545 28.778 18.7104C28.792 18.9391 28.956 19.1294 29.178 19.1748C30.85 19.5133 32.83 20.4461 32.989 22.9556H24.31C24.106 22.9556 23.923 23.0815 23.846 23.2719C23.77 23.4623 23.817 23.6819 23.965 23.824C24.297 24.1423 24.41 24.6037 24.267 25.059C24.158 25.4106 23.857 25.7018 23.5 25.7995C23.125 25.9032 22.753 25.8337 22.457 25.6061C22.165 25.3814 21.997 25.0409 21.997 24.6712C21.997 24.3498 22.126 24.0486 22.36 23.824C22.508 23.6819 22.555 23.4633 22.479 23.2719C22.404 23.0815 22.219 22.9556 22.015 22.9556H19.5V20.7524C19.952 20.9105 20.453 20.9136 20.934 20.7463C21.607 20.5126 22.132 19.9344 22.303 19.2372C22.468 18.5663 22.325 17.8762 21.911 17.3423C21.347 16.617 20.352 16.3238 19.5 16.623V12.3123ZM29.743 18.2691C29.316 14.6787 26.078 14.0944 24.342 15.5038C23.918 14.58 23.367 13.7852 22.7 13.1334C20.528 11.0057 17.551 10.4285 14.74 11.587C12.338 12.5813 10.525 15.3225 10.525 17.9629C10.525 18.1089 10.529 18.253 10.538 18.3951C9.221 18.8212 7 20.019 7 23.2437C7 23.3696 7.005 23.4845 7.011 23.5993C7.162 26.3243 9.98 29 12.7 29H28.82C30.823 29 34 27.4486 34 23.286C34 20.7131 32.492 18.9441 29.743 18.2691Z" fill="#ED7100"/>
</g>
<rect x="0.5" y="0.5" width="39" height="39" stroke="#ED7100"/>
<defs>
<clipPath id="clip0_23295_3277">
<rect width="40" height="40" fill="white"/>
</clipPath>
</defs>
</svg>
