<svg width="90" height="90" viewBox="0 0 90 90" fill="none" xmlns="http://www.w3.org/2000/svg">
<path fill-rule="evenodd" clip-rule="evenodd" d="M44.6458 2.68411L9.13431 9.28862C8.18701 9.4648 7.5 10.2914 7.5 11.2549V41.3889C7.5 57.5047 16.3733 72.3115 30.5851 79.9105L44.057 87.1139C44.6462 87.429 45.3538 87.429 45.9431 87.1139L59.4149 79.9105C73.6267 72.3115 82.5 57.5047 82.5 41.3889V10.8381C82.5 9.86611 81.8011 9.03482 80.8436 8.86786L45.355 2.68012C45.1202 2.63918 44.88 2.64053 44.6458 2.68411ZM55.401 27.8267C57.0896 26.3374 59.6335 26.3729 61.2798 27.9088L61.5369 28.1486C63.4045 29.891 63.3872 32.8556 61.4994 34.5761L50.4567 44.6401C48.7294 46.2143 46.0692 46.1529 44.4163 44.5008L43.9958 44.0805C43.8555 43.9402 43.7267 43.7928 43.6095 43.6396H40.2953C40.6502 44.5497 41.1957 45.4039 41.9338 46.1417L42.3543 46.562C45.109 49.3155 49.5427 49.4177 52.4215 46.7941L63.4642 36.7302C66.6106 33.8626 66.6394 28.9216 63.5267 26.0176L63.2696 25.7778C60.5257 23.218 56.2859 23.1588 53.4715 25.6409L42.2654 35.5244C42.0713 35.6956 41.8885 35.8747 41.7172 36.0608H46.0649L55.401 27.8267ZM29.2017 58.5973C30.848 60.1332 33.3919 60.1687 35.0805 58.6794L44.4166 50.4453H48.7643C48.593 50.6314 48.4102 50.8105 48.2161 50.9817L37.01 60.8651C34.1956 63.3473 29.9558 63.2881 27.2119 60.7283L26.9548 60.4884C23.8421 57.5845 23.8709 52.6434 27.0173 49.7759L38.06 39.712C40.9388 37.0883 45.3725 37.1906 48.1272 39.9441L48.5477 40.3644C49.2858 41.1021 49.8313 41.9564 50.1862 42.8665H46.872C46.7548 42.7132 46.626 42.5659 46.4857 42.4256L46.0652 42.0053C44.4123 40.3531 41.7521 40.2918 40.0248 41.866L28.9821 51.9299C27.0943 53.6504 27.077 56.6151 28.9446 58.3575L29.2017 58.5973Z" fill="#326CE5"/>
</svg>
