<svg width="90" height="90" viewBox="0 0 90 90" fill="none" xmlns="http://www.w3.org/2000/svg">
<rect x="4.61583" y="4.61583" width="80.7683" height="80.7683" stroke="white" stroke-width="3.23167" stroke-dasharray="6.46 6.46"/>
<ellipse cx="39.3568" cy="33.2326" rx="13.0482" ry="13.0099" fill="white"/>
<path fill-rule="evenodd" clip-rule="evenodd" d="M43.9186 49.6308C42.246 49.1143 40.4908 48.8447 38.7076 48.8447C34.0358 48.8447 29.5553 50.6951 26.2519 53.9889C22.9484 57.2827 21.0925 61.75 21.0925 66.4081L38.7076 66.4081H44.9838C43.0221 63.8679 41.8556 60.6856 41.8556 57.2317C41.8556 54.4592 42.6073 51.8617 43.9186 49.6308Z" fill="white"/>
<path fill-rule="evenodd" clip-rule="evenodd" d="M56.9546 69.7764C63.5561 69.7764 68.9077 64.4406 68.9077 57.8584C68.9077 51.2763 63.5561 45.9404 56.9546 45.9404C50.3531 45.9404 45.0015 51.2763 45.0015 57.8584C45.0015 64.4406 50.3531 69.7764 56.9546 69.7764ZM56.4468 63.0478L64.1534 54.2661L62.3347 52.6701L55.3895 60.5842L50.7871 56.9131L49.2783 58.8047L54.783 63.1956L55.6854 63.9154L56.4468 63.0478Z" fill="white"/>
</svg>
