<svg width="40" height="40" viewBox="0 0 40 40" xmlns="http://www.w3.org/2000/svg">  <g id="Icon-Architecture/32/Arch_AWS-Resilience-Hub_32" stroke="none" stroke-width="1" fill="none" fill-rule="evenodd">  <path d="M30.222,14.9836935 C30.242,13.4566935 29.366,12.1446935 27.912,11.5766935 C26.687,11.0966935 25.364,11.2746935 24.439,11.9836935 C23.989,10.9536935 23.395,10.0636935 22.669,9.33269346 C20.361,7.00669346 17.201,6.37369346 14.217,7.64369346 C11.672,8.72669346 9.753,11.7146935 9.753,14.5956935 C9.753,14.7686935 9.759,14.9406935 9.77,15.1096935 C8.381,15.5676935 6,16.8676935 6,20.3966935 C6,20.5846935 6.008,20.7666935 6.022,20.9426935 C6.271,24.1506935 7.929,25.9916935 10.571,25.9946935 L13.069,25.9946935 L13.069,24.9946935 L10.572,24.9946935 C7.759,24.9916935 7.138,22.4056935 7.018,20.8656935 C7.006,20.7136935 7,20.5576935 7,20.3966935 C7,17.3006935 9.149,16.2876935 10.429,15.9596935 C10.672,15.8976935 10.831,15.6656935 10.801,15.4166935 C10.77,15.1476935 10.753,14.8736935 10.753,14.5956935 C10.753,12.1326935 12.447,9.48369346 14.608,8.56369346 C18.347,6.97569346 20.994,9.06469346 21.96,10.0366935 C22.746,10.8296935 23.359,11.8406935 23.783,13.0456935 C23.844,13.2196935 23.997,13.3466935 24.181,13.3736935 C24.362,13.3966935 24.547,13.3246935 24.657,13.1756935 C25.364,12.2146935 26.651,12.1576935 27.548,12.5076935 C28.458,12.8636935 29.371,13.7766935 29.198,15.3066935 C29.156,15.5766935 29.337,15.8306935 29.607,15.8766935 C30.844,16.0906935 33.719,16.9626935 33.689,20.4356935 C33.677,21.8846935 33.125,22.7806935 32.664,23.2766935 L33.397,23.9576935 C33.979,23.3316935 34.675,22.2126935 34.6892675,20.4436935 C34.722,16.5436935 31.693,15.3376935 30.222,14.9836935 L30.222,14.9836935 Z M25.576,27.4946935 L25.576,28.4946935 L28.705,28.4946935 C27.613,30.6626935 25.381,32.0776935 22.909,32.0776935 C19.325,32.0776935 16.409,29.1616935 16.409,25.5776935 C16.409,21.9936935 19.325,19.0776935 22.909,19.0776935 C26.265,19.0776935 29.111,21.6946935 29.387,25.0356935 L30.383,24.9536935 C30.065,21.0976935 26.782,18.0776935 22.909,18.0776935 C18.773,18.0776935 15.409,21.4416935 15.409,25.5776935 C15.409,29.7136935 18.773,33.0776935 22.909,33.0776935 C25.744,33.0776935 28.306,31.4666935 29.576,28.9906935 L29.576,32.4946935 L30.576,32.4946935 L30.576,27.4946935 L25.576,27.4946935 Z M21.45,27.8636935 L26.041,22.9046935 L26.776,23.5846935 L21.847,28.9066935 C21.748,29.0126935 21.615,29.0666935 21.48,29.0666935 C21.36,29.0666935 21.24,29.0236935 21.144,28.9376935 L18.49,26.5316935 L19.161,25.7906935 L21.45,27.8636935 Z" id="Icon-Service/32/AWS-Resilience-Hub_32_Squid" fill="#FFFFFF"></path> </g></svg>