<svg width="24px" height="24px" viewBox="0 0 24 24" fill="none" xmlns="http://www.w3.org/2000/svg">
<path d="M18.4638 13.9407L22.0625 17.5918L18.4599 21.1924L17.4291 20.1307L19.2275 18.3327L2.0625 18.333V16.8427L19.2465 16.8427L17.4252 14.9945L18.4638 13.9407ZM10.3711 7.57506C13.5874 7.57506 16.1947 10.2231 16.1947 13.4896C16.1947 14.4259 15.9805 15.3113 15.5991 16.0982H5.14295C4.76159 15.3113 4.54738 14.4259 4.54738 13.4896C4.54738 10.2231 7.15473 7.57506 10.3711 7.57506ZM4.04047 5.41767L5.78143 7.20785L4.73586 8.25455L2.9949 6.46438L4.04047 5.41767ZM16.7808 5.41015L17.8125 6.47097L16.048 8.23732L15.0164 7.1765L16.7808 5.41015ZM9.68221 3.19238L11.151 3.20236L11.1344 5.71721L9.66561 5.70722L9.68221 3.19238Z" fill="white"/>
</svg>
