<svg width="40" height="40" viewBox="0 0 40 40" xmlns="http://www.w3.org/2000/svg">  <g id="Icon-Architecture/32/Arch_Amazon-FSx-for-OpenZFS_32" stroke="none" stroke-width="1" fill="none" fill-rule="evenodd">  <path d="M28,21.993 L28,20.993 L23,20.993 L23,21.993 L26.747,21.993 L23,26.993 L23,27.993 L28,27.993 L28,26.993 L24.25,26.993 L28,21.993 Z M17.999,22.178 L19.307,22.178 L21.128,19.518 L21.166,19.464 L20.568,18.62 L17.999,22.178 Z M15.929,17.247 L14.5,16.699 C14.038,16.524 13.677,16.359 13.427,16.206 C13.189,16.06 13.016,15.896 12.912,15.718 C12.809,15.541 12.758,15.304 12.758,15.011 C12.758,14.484 12.926,14.091 13.272,13.809 C13.617,13.526 14.127,13.383 14.788,13.383 C15.476,13.383 16.279,13.542 17.172,13.858 L17.298,13.902 L17.298,13.027 L17.242,13.002 C16.854,12.831 16.438,12.696 16.002,12.602 C15.567,12.508 15.145,12.46 14.747,12.46 C13.865,12.46 13.141,12.699 12.596,13.171 C12.047,13.646 11.768,14.274 11.768,15.037 C11.768,15.601 11.938,16.083 12.272,16.468 C12.601,16.847 13.121,17.177 13.819,17.449 L15.367,18.049 C15.887,18.249 16.265,18.475 16.494,18.72 C16.717,18.959 16.829,19.252 16.829,19.591 C16.829,20.162 16.625,20.601 16.204,20.932 C15.783,21.264 15.208,21.433 14.494,21.433 C13.724,21.433 12.868,21.264 11.948,20.932 L11.822,20.886 L11.822,21.759 L11.876,21.785 C12.66,22.164 13.563,22.356 14.56,22.356 C15.53,22.356 16.327,22.101 16.924,21.599 C17.527,21.093 17.833,20.422 17.833,19.604 C17.833,19.042 17.677,18.566 17.371,18.189 C17.068,17.818 16.583,17.501 15.929,17.247 L15.929,17.247 Z M6,22.129 L6.976,22.129 L6.976,17.829 L10.701,17.829 L10.701,16.933 L6.976,16.933 L6.976,13.583 L11.383,13.583 L11.383,12.687 L6,12.687 L6,22.129 Z M22.202,19.993 L23.554,19.993 L22.206,18.076 L24.841,14.402 L23.548,14.402 L21.493,17.337 L20.912,18.144 L22.202,19.993 Z M21.235,16.752 L19.589,14.402 L18.239,14.402 L20.551,17.662 L21.235,16.752 Z M29,21.993 L32,21.993 L32,20.993 L29,20.993 L29,21.993 Z M29,27.993 L32,27.993 L32,26.993 L29,26.993 L29,27.993 Z M29,24.993 L34,24.993 L34,23.993 L29,23.993 L29,24.993 Z" id="Fill-5" fill="#FFFFFF"></path> </g></svg>