<svg id="e05edd6a-dffa-4a9e-adfc-074459961b66" data-name="Layer 1" xmlns="http://www.w3.org/2000/svg" viewBox="0 0 380.02979 254.45239"><defs><style>.affe17a5-e018-4fb8-946a-80e9e7a0f193{fill:#aecafd;}.bd7f78c4-983c-4558-abc0-f31949656785{fill:#8db5fd;}.a420176a-ccaf-4429-8679-b18aca0cb755{fill:#5d96fc;}.b8ae33db-75d5-437d-8c10-67af67b148bc{fill:#7dabfd;}.b11c092e-d932-44b0-977b-8e2f110ec233{fill:#9ec0fd;}.ad11967c-0e48-4554-a428-6a247e848d90{fill:#70a2fc;}.b737eea3-a650-4373-a194-fc2c441e650d{fill:none;stroke:#7dabfd;stroke-linecap:round;stroke-linejoin:round;stroke-width:0;}.b058768a-ff48-432e-8c18-c4fbc1a8ee95{fill:#75a6fc;}.ec237433-d426-4fad-89c9-1b1fea2c95b7{fill:#6da0fc;}.a1b2063c-5498-4ce8-9032-b8f63d7f74c3{fill:#639afc;}</style></defs><path class="affe17a5-e018-4fb8-946a-80e9e7a0f193" d="M62.24353,222.76538a5.8752,5.8752,0,0,1,5.87506-5.87506H30.03186a5.87509,5.87509,0,1,1,0,11.75018H68.11859A5.87513,5.87513,0,0,1,62.24353,222.76538Z" transform="translate(-11.21912 -69)"/><path class="bd7f78c4-983c-4558-abc0-f31949656785" d="M62.24353,167.25586a5.875,5.875,0,0,1,5.87512-5.87506H15.97406q-.82617,2.92089-1.516,5.89715c-.06958.30079-.13135.60456-.19879.90619-.15735.70362-.31488,1.40711-.46045,2.115-.08039.39075-.152.78479-.22876,1.17695-.10785.5509-.21631,1.1015-.31708,1.65484H68.11865A5.875,5.875,0,0,1,62.24353,167.25586Z" transform="translate(-11.21912 -69)"/><path class="a420176a-ccaf-4429-8679-b18aca0cb755" d="M69.33411,161.3808H68.11865a5.87509,5.87509,0,1,0,0,11.75018h26.5307a109.71438,109.71438,0,0,1,3.18433-11.75018Z" transform="translate(-11.21912 -69)"/><path class="b8ae33db-75d5-437d-8c10-67af67b148bc" d="M89.18787,142.3374a5.8751,5.8751,0,1,1,0,11.75019h11.35846a109.90711,109.90711,0,0,1,5.68847-11.75019Z" transform="translate(-11.21912 -69)"/><path class="a420176a-ccaf-4429-8679-b18aca0cb755" d="M95.063,148.21246a5.87486,5.87486,0,0,0-5.87512-5.87506H23.0708a126.1908,126.1908,0,0,0-4.78461,11.75019H89.18787A5.87492,5.87492,0,0,0,95.063,148.21246Z" transform="translate(-11.21912 -69)"/><path class="b11c092e-d932-44b0-977b-8e2f110ec233" d="M82.09735,129.97943a5.875,5.875,0,0,1,5.87506-5.87512H40.56647a5.87506,5.87506,0,0,1,.00122,11.75012h47.4035A5.87492,5.87492,0,0,1,82.09735,129.97943Z" transform="translate(-11.21912 -69)"/><path class="a420176a-ccaf-4429-8679-b18aca0cb755" d="M46.44159,129.97943a5.875,5.875,0,0,0-5.87512-5.87512H33.50793a127.00613,127.00613,0,0,0-7.1853,11.75018H40.56647l.00122-.00006A5.875,5.875,0,0,0,46.44159,129.97943Z" transform="translate(-11.21912 -69)"/><path class="a420176a-ccaf-4429-8679-b18aca0cb755" d="M105.80029,124.10431H87.97241a5.87506,5.87506,0,0,0-.00122,11.75012l.00122.00006h22.18891a110.59414,110.59414,0,0,1,8.83947-11.75018Z" transform="translate(-11.21912 -69)"/><path class="bd7f78c4-983c-4558-abc0-f31949656785" d="M95.063,92.703a5.875,5.875,0,0,1,5.87506-5.87506H73.29828c-.10663.06354-.21417.12573-.32062.18958q-1.89532,1.1368-3.74792,2.33648c-.23066.14948-.45887.30225-.68848.45319-1.24219.81641-2.47314,1.6485-3.68445,2.5069-.04095.029-.08276.05676-.12372.08581-1.234.87665-2.44635,1.78125-3.64709,2.70026-.23139.17712-.46362.35327-.69373.53192q-1.7373,1.34858-3.42663,2.75458c-.07593.06329-.15064.128-.22638.1914h44.19879A5.87508,5.87508,0,0,1,95.063,92.703Z" transform="translate(-11.21912 -69)"/><path class="b11c092e-d932-44b0-977b-8e2f110ec233" d="M101.34326,86.82794a5.87506,5.87506,0,1,1,0,11.75012h49.74622A108.75862,108.75862,0,0,1,188.697,86.82794Z" transform="translate(-11.21912 -69)"/><path class="ad11967c-0e48-4554-a428-6a247e848d90" d="M107.21851,92.703a5.875,5.875,0,0,0-5.87525-5.87506h-.40521a5.87506,5.87506,0,0,0,0,11.75012h.40521A5.87513,5.87513,0,0,0,107.21851,92.703Z" transform="translate(-11.21912 -69)"/><path class="a420176a-ccaf-4429-8679-b18aca0cb755" d="M138.2146,69A126.58109,126.58109,0,0,0,87.50842,79.53461H188.92078A126.58109,126.58109,0,0,0,138.2146,69Z" transform="translate(-11.21912 -69)"/><line class="b737eea3-a650-4373-a194-fc2c441e650d" x1="20.43347" y1="122.36407" x2="0.0658" y2="122.36407"/><path class="b8ae33db-75d5-437d-8c10-67af67b148bc" d="M31.65259,179.61377l.00122.00006h1.57995a5.87509,5.87509,0,0,1,0,11.75018H31.65381l-.00122.00006H92.33905a111.14775,111.14775,0,0,1,1.129-11.7503Z" transform="translate(-11.21912 -69)"/><path class="a420176a-ccaf-4429-8679-b18aca0cb755" d="M11.21912,198.25208q.10243,5.94561.7409,11.75018H93.07935a111.54717,111.54717,0,0,1-.827-11.75018Z" transform="translate(-11.21912 -69)"/><path class="b058768a-ff48-432e-8c18-c4fbc1a8ee95" d="M68.11859,216.89032a5.87509,5.87509,0,0,0,0,11.75018H97.05707a109.77965,109.77965,0,0,1-2.89478-11.75018Z" transform="translate(-11.21912 -69)"/><path class="b8ae33db-75d5-437d-8c10-67af67b148bc" d="M23.75159,222.76538a5.87513,5.87513,0,0,1,5.87512-5.87506h-16.72c.04675.28284.09192.56628.1405.84845q.12286.71328.25293,1.42425.14978.81374.311,1.6233c.0935.47308.18792.94586.28668,1.41705.11267.53772.23071,1.07342.35016,1.60864.10449.4682.209.93634.3186,1.40253.12659.53845.25946,1.07458.39294,1.61035.11353.45575.226.91193.34443,1.36554.0393.15057.082.29974.12182.45007H29.62671A5.87507,5.87507,0,0,1,23.75159,222.76538Z" transform="translate(-11.21912 -69)"/><path class="ec237433-d426-4fad-89c9-1b1fea2c95b7" d="M35.907,222.76538a5.87525,5.87525,0,0,0-5.87512-5.87506h-.40515a5.87509,5.87509,0,1,0,0,11.75018h.40515A5.87518,5.87518,0,0,0,35.907,222.76538Z" transform="translate(-11.21912 -69)"/><path class="b11c092e-d932-44b0-977b-8e2f110ec233" d="M90.80865,235.52856a5.8751,5.8751,0,1,1,0,11.75019h13.89283a109.80014,109.80014,0,0,1-5.27832-11.75019Z" transform="translate(-11.21912 -69)"/><polygon class="b11c092e-d932-44b0-977b-8e2f110ec233" points="79.589 178.279 79.59 178.279 79.59 178.279 79.589 178.279"/><polygon class="b11c092e-d932-44b0-977b-8e2f110ec233" points="79.59 166.529 79.589 166.529 79.59 166.529 79.59 166.529"/><path class="ad11967c-0e48-4554-a428-6a247e848d90" d="M92.70038,235.84564a5.85322,5.85322,0,0,1,.90875.392A5.85074,5.85074,0,0,0,92.70038,235.84564Z" transform="translate(-11.21912 -69)"/><path class="ad11967c-0e48-4554-a428-6a247e848d90" d="M96.41968,239.65662a5.88209,5.88209,0,0,0-1.87384-2.78644A5.88252,5.88252,0,0,1,96.41968,239.65662Z" transform="translate(-11.21912 -69)"/><path class="ad11967c-0e48-4554-a428-6a247e848d90" d="M96.41968,243.1507a5.86251,5.86251,0,0,1-1.07746,1.99A5.862,5.862,0,0,0,96.41968,243.1507Z" transform="translate(-11.21912 -69)"/><path class="ad11967c-0e48-4554-a428-6a247e848d90" d="M96.41968,243.1507a5.90916,5.90916,0,0,0,0-3.49408,5.91045,5.91045,0,0,1,0,3.49408Z" transform="translate(-11.21912 -69)"/><path class="ad11967c-0e48-4554-a428-6a247e848d90" d="M94.54584,245.93713a5.9085,5.9085,0,0,0,.79638-.79644A5.919,5.919,0,0,1,94.54584,245.93713Z" transform="translate(-11.21912 -69)"/><path class="ad11967c-0e48-4554-a428-6a247e848d90" d="M93.60913,236.23767a5.88419,5.88419,0,0,1,.93671.63251A5.88821,5.88821,0,0,0,93.60913,236.23767Z" transform="translate(-11.21912 -69)"/><path class="ad11967c-0e48-4554-a428-6a247e848d90" d="M84.93359,241.40363a5.87513,5.87513,0,0,1,5.87506-5.87507H17.46393c.0661.20221.13.40534.19708.60706q.2547.76584.52045,1.52673c.16589.47821.33282.95594.50421,1.43152.18335.50873.37158,1.015.56122,1.52069.17608.46961.353.93885.53442,1.40583.19574.50366.39655,1.00463.59851,1.50512.18775.46533.3761.93048.56922,1.39307.20605.49365.41723.98444.62933,1.47485q.19189.44367.38733.88532h68.843A5.87514,5.87514,0,0,1,84.93359,241.40363Z" transform="translate(-11.21912 -69)"/><path class="ec237433-d426-4fad-89c9-1b1fea2c95b7" d="M25.895,255.38239c.09418.17773.18665.3565.28162.53375q.4617.86178.93792,1.7146c.21375.3847.42646.77.64411,1.15222.33984.5968.68768,1.18848,1.03686,1.7793.20441.34582.40576.69366.61334,1.03735.40613.67242.82221,1.33813,1.24036,2.00238.16083.25543.317.5141.47962.76831q.87789,1.37283,1.789,2.7215l.02826.04071h85.0307a110.54521,110.54521,0,0,1-8.60425-11.75012Z" transform="translate(-11.21912 -69)"/><path class="b8ae33db-75d5-437d-8c10-67af67b148bc" d="M87.97241,285.77075a5.87509,5.87509,0,0,1,0-11.75018h36.28308l-.00006-.00006H37.95685c.04669.05987.09173.12091.13849.18066q1.09515,1.4004,2.22815,2.77088c.14611.17657.29675.34918.44384.5249q.93027,1.11135,1.88459,2.20178c.24743.28241.49756.5622.74743.84235q.85611.95974,1.73133,1.90149c.24633.26519.49121.53155.7398.79467q1.11668,1.182,2.26136,2.33582c.06494.06537.12805.13257.19311.19775h89.68811l-.00012-.00006Z" transform="translate(-11.21912 -69)"/><path class="a420176a-ccaf-4429-8679-b18aca0cb755" d="M82.09735,279.89563a5.87509,5.87509,0,0,0,5.87506,5.87512h50.04053a110.485,110.485,0,0,1-13.75745-11.75018H87.97241A5.87508,5.87508,0,0,0,82.09735,279.89563Z" transform="translate(-11.21912 -69)"/><path class="bd7f78c4-983c-4558-abc0-f31949656785" d="M122.21,298.53387a5.87514,5.87514,0,0,1,5.87512-5.87506h20.7594l-.00012-.00006H55.78076c.12848.10974.25812.21808.387.32721q1.62075,1.37265,3.285,2.69574c.07794.06171.15411.12555.23224.18707,1.16388.91663,2.34881,1.80787,3.54516,2.68427q.35835.26257.7179.52356,1.77447,1.28109,3.59216,2.50458c.18921.12695.38123.25006.57123.376q1.71963,1.14039,3.477,2.2262c.12085.07458.24017.15131.36127.22552H98.09943a5.87512,5.87512,0,1,1,.00488,0H128.0827A5.875,5.875,0,0,1,122.21,298.53387Z" transform="translate(-11.21912 -69)"/><path class="bd7f78c4-983c-4558-abc0-f31949656785" d="M158.0708,304.40887h22.93628a108.66883,108.66883,0,0,1-17.16248-4.8255A5.873,5.873,0,0,1,158.0708,304.40887Z" transform="translate(-11.21912 -69)"/><path class="a420176a-ccaf-4429-8679-b18aca0cb755" d="M103.977,298.53387a5.87509,5.87509,0,1,0-5.87756,5.875l.00244.00013.00244-.00013A5.875,5.875,0,0,0,103.977,298.53387Z" transform="translate(-11.21912 -69)"/><path class="a420176a-ccaf-4429-8679-b18aca0cb755" d="M163.8446,299.58337a109.04841,109.04841,0,0,1-15.00006-6.92456h-20.7594a5.875,5.875,0,0,0-.00244,11.75006l.00244.00013h29.98322l.00244-.00013A5.873,5.873,0,0,0,163.8446,299.58337Z" transform="translate(-11.21912 -69)"/><path class="a420176a-ccaf-4429-8679-b18aca0cb755" d="M88.43445,312.91772a127.38435,127.38435,0,0,0,99.5603,0Z" transform="translate(-11.21912 -69)"/><path class="a420176a-ccaf-4429-8679-b18aca0cb755" d="M39.10883,185.489a5.875,5.875,0,0,0-5.87507-5.87512H12.2439q-.74772,5.79666-.959,11.75018H33.23376A5.87493,5.87493,0,0,0,39.10883,185.489Z" transform="translate(-11.21912 -69)"/><path class="a420176a-ccaf-4429-8679-b18aca0cb755" d="M94.54584,245.93713a5.87906,5.87906,0,0,0-.93671-9.69946,6.04687,6.04687,0,0,0-2.80048-.70911h0a5.8751,5.8751,0,0,0,0,11.75019h0a5.85258,5.85258,0,0,0,3.73719-1.34162Z" transform="translate(-11.21912 -69)"/><path class="a1b2063c-5498-4ce8-9032-b8f63d7f74c3" d="M49.56647,105.06085c-.14929.14551-.29883.29059-.44739.43683q-.9385.92377-1.85712,1.86743c-.2359.242-.47424.48151-.70819.72528q-1.23916,1.29144-2.44421,2.61548c-.11554.12738-.22742.25806-.34247.38593q-1.032,1.14678-2.03595,2.31866c-.24518.28607-.48724.575-.72992.86322q-.8324.98877-1.64471,1.99469-.219.271-.43714.54279h86.98328a110.40392,110.40392,0,0,1,14.4162-11.75031Z" transform="translate(-11.21912 -69)"/><path class="a420176a-ccaf-4429-8679-b18aca0cb755" d="M264.22528,69.40515a126.43631,126.43631,0,0,0-62.854,16.62073c.21924-.00128.43713-.00836.65667-.00836,53.558,0,98.1518,38.49121,107.84089,89.41455H262.34857a63.96573,63.96573,0,1,0-15.73352,65.84735H219.01617V210.78217h89.084v89.41436H277.93689V275.84821A109.19889,109.19889,0,0,1,202.028,306.43488c-.46063,0-.91845-.01185-1.37774-.01752A127.03074,127.03074,0,1,0,264.22528,69.40515Z" transform="translate(-11.21912 -69)"/></svg>
