<svg xmlns="http://www.w3.org/2000/svg" xmlns:xlink="http://www.w3.org/1999/xlink" x="0" y="0" version="1.1" viewBox="0 0 626 606" xml:space="preserve" style="enable-background:new 0 0 626 606"><style type="text/css">.st0{display:none}.st1{display:inline;fill:#3c494e;stroke:#3c494e;stroke-miterlimit:10}.st2,.st3{opacity:.8;fill:#fff}.st3{opacity:.6}</style><g id="Layer_2" class="st0"><rect width="1255" height="919" x="-351" y="-138" class="st1"/></g><g id="Layer_1"><g><path d="M1,140c1.5-8.1,2.9-16.2,4.5-25.1c1.9,1.7,3,2.6,4,3.6c22.6,22.6,45.3,45.1,67.8,67.9 c2.7,2.8,5.1,3.4,8.8,2.4c21.7-6,43.4-11.8,65.1-17.4c3.1-0.8,4.4-2.2,5.1-5.1c5.9-22.4,12.1-44.7,17.9-67.1 c0.4-1.5-0.3-4-1.4-5.1c-21.8-22-43.7-43.9-65.6-65.7c-2.3-2.3-4.9-4.3-8-7.1c12.7-4.3,24.5-5.1,36.2-5.1 c31.1,0.1,58.9,10.3,83.1,29.6c19.7,15.7,33.4,35.8,41.7,59.8c8.4,24.4,9.5,49.2,3.8,74.3c-1,4.3,0.2,6.9,3.3,10 c34.1,33.9,68.1,68,102.1,102c28.4,28.3,56.8,56.6,85.2,84.9c24.8,24.8,49.6,49.7,74.4,74.5c16.9,17,34.7,33.1,50.5,51.1 c27.6,31.3,17.3,82.5-23.6,98.8c-27.3,10.9-51.4,3.9-72-16.8c-59.7-59.9-119.6-119.7-179.4-179.6c-32.4-32.4-64.7-64.9-97-97.3 c-9.4-9.4-19-18.7-28.2-28.3c-2.8-2.9-5.4-2.3-8.6-1.5c-26.4,7.2-52.8,6.9-78.7-1.9C62.8,265.9,39.7,248,22.8,222 c-11.8-18.3-18.6-38.2-21-59.7c-0.1-1.1-0.5-2.2-0.8-3.3C1,152.7,1,146.3,1,140z M561.3,553.1c0-13.5-10.4-24.1-23.9-24.1 c-13,0-23.8,10.7-24,23.7c-0.2,13,10.9,24.3,23.9,24.4C550.7,577.1,561.3,566.6,561.3,553.1z" class="st2"/><path d="M627,97c-25.5,25.4-50.9,50.7-76.4,76.1c-29,28.9-57.9,57.9-86.8,86.9c-0.9,0.9-1.9,1.8-2.8,2.9 c-3,3.8-6.7,5.2-11.7,4.9c-11-0.6-21.5,2.1-31,7.8c-4.4,2.6-7,2-10.6-1.6c-17.5-17.6-35.2-34.9-52.9-52.2 c-1.9-1.8-4.2-3.3-6.3-4.9c0.7-0.2,1.3-0.4,2-0.7c3-8.9,6.2-17.7,8.8-26.8c1-3.6,1.1-7.6,0.8-11.4c-0.3-4.2,1-7.2,3.9-10.1 c32.2-32,64.4-64.1,96.5-96.2C484.1,48.2,507.5,24.6,531,1c0.3,0,0.7,0,1,0c5.1,5.4,10.1,10.9,15.4,16.2 c19.3,19.5,38.7,38.9,58.1,58.2c7,7,14.3,13.7,21.5,20.6C627,96.3,627,96.7,627,97z" class="st3"/><path d="M34,607c-3.1-3.4-5.9-7.1-9.4-10.1c-3-2.6-3.3-4.7-1.1-8c10.1-15.6,20.1-31.4,30.1-47.1 c6-9.4,11.6-19,18-28.1c3.4-4.8,7.6-9.1,12.1-13c7.7-6.8,15.9-13,23.8-19.3c0.7,0.2,1.1,0.3,1.3,0.5c5.5,5.1,5.6,5.1,10.9-0.2 c33-33,66-66,98.9-99c1.2-1.2,2-2.7,3.4-4.5c8.9,9.8,17.2,18.8,25.4,27.9c-34.7,34.4-70.8,70.3-107.2,106.4c3,3.5,4.6,5.4,6.7,7.9 c-5.4,6.8-11.4,13.3-16.3,20.5c-8.8,13.3-22.7,19.6-35.3,27.8c-18.4,12-37.1,23.5-55.6,35.3c-1.4,0.9-2.5,2.1-3.8,3.1 C35.3,607,34.7,607,34,607z" class="st3"/></g></g></svg>