<svg width="40" height="40"  viewBox="0 0 40 40" xmlns="http://www.w3.org/2000/svg">  <g id="Icon-Architecture/32/Arch_Savings-Plans_32" stroke="none" stroke-width="1" fill="none" fill-rule="evenodd">  <g id="Icon-Service/32/AWS-Savings-Plans_32" transform="translate(6.000000, 6.000000)" fill="#FFFFFF"> <path d="M28,14.792 L25.14,16.764 C25.056,16.822 24.956,16.852 24.855,16.852 C24.822,16.852 24.788,16.849 24.754,16.841 C24.619,16.813 24.503,16.731 24.432,16.615 L22.627,13.691 L23.477,13.168 L24.697,15.146 C24.843,14.4 24.941,13.645 24.941,12.879 C24.941,6.327 19.571,0.997 12.97,0.997 C6.368,0.997 0.998,6.327 0.998,12.879 C0.998,14.181 1.208,15.46 1.623,16.68 L0.678,17 C0.229,15.677 0,14.29 0,12.879 C0,5.778 5.818,0 12.97,0 C20.121,0 25.939,5.778 25.939,12.879 C25.939,13.641 25.865,14.398 25.732,15.145 L27.433,13.972 L28,14.792 Z M14.976,11.231 C16.464,12.239 20.417,14.916 20.417,19.526 C20.417,24.137 17.367,27.001 12.458,27.001 C7.55,27.001 4.5,24.137 4.5,19.526 C4.5,14.916 8.453,12.239 9.941,11.231 C10.075,11.141 10.188,11.064 10.276,11 L14.641,11 C14.729,11.064 14.842,11.141 14.976,11.231 L14.976,11.231 Z M10.546,7.739 C10.672,7.771 10.804,7.752 10.916,7.688 C10.985,7.648 11.028,7.623 12.502,6.126 L13.979,7.607 C14.104,7.731 14.283,7.783 14.454,7.739 L16.735,7.167 L14.57,10 L10.216,10 L8.191,7.149 L10.546,7.739 Z M23.211,10.074 C22.894,9.927 22.637,9.661 22.447,9.283 C22.075,8.541 21.562,8.353 21.195,8.326 C20.173,8.254 19.068,9.451 18.642,10.004 L15.827,10.004 L18.397,6.639 C18.526,6.47 18.534,6.238 18.418,6.06 C18.302,5.883 18.085,5.797 17.879,5.85 L14.486,6.7 L12.854,5.063 C12.76,4.969 12.633,4.916 12.5,4.916 L12.498,4.916 C12.365,4.917 12.237,4.97 12.144,5.065 C11.506,5.714 10.799,6.428 10.529,6.704 L7.121,5.85 C6.919,5.798 6.705,5.881 6.587,6.053 C6.469,6.226 6.471,6.454 6.593,6.625 L9.311,10.452 C7.795,11.479 3.5,14.46 3.5,19.526 C3.5,24.674 7.017,28 12.458,28 C17.9,28 21.417,24.674 21.417,19.526 C21.417,15.169 18.241,12.357 16.387,11 L18.895,11 C19.058,11 19.21,10.921 19.304,10.789 C19.738,10.174 20.577,9.296 21.122,9.32 C21.18,9.324 21.356,9.337 21.553,9.729 C21.842,10.305 22.27,10.737 22.789,10.977 L23.211,10.074 Z M14.5,21.437 C14.5,22.375 13.86,23.158 13,23.383 L13,19.57 C13.779,19.853 14.5,20.447 14.5,21.437 L14.5,21.437 Z M10.5,16.4 C10.5,15.463 11.14,14.68 12,14.454 L12,18.267 C11.221,17.984 10.5,17.39 10.5,16.4 L10.5,16.4 Z M9.5,16.4 C9.5,17.783 10.491,18.906 12,19.311 L12,23.383 C11.14,23.158 10.5,22.375 10.5,21.437 L9.5,21.437 C9.5,22.929 10.584,24.163 12,24.404 L12,24.888 L13,24.888 L13,24.404 C14.416,24.163 15.5,22.929 15.5,21.437 C15.5,20.054 14.509,18.931 13,18.526 L13,14.454 C13.86,14.68 14.5,15.463 14.5,16.4 L15.5,16.4 C15.5,14.909 14.416,13.674 13,13.433 L13,12.888 L12,12.888 L12,13.433 C10.584,13.674 9.5,14.909 9.5,16.4 L9.5,16.4 Z" id="AWS-Savings-Plans_32_Squid"></path> </g> </g></svg>