<svg width="40" height="40" viewBox="0 0 40 40" fill="none" xmlns="http://www.w3.org/2000/svg">
<g clip-path="url(#clip0_23300_4264)">
<path d="M40 0H0V40H40V0Z" fill="#ED7100" fill-opacity="0.12"/>
<path fill-rule="evenodd" clip-rule="evenodd" d="M13.9547 24.394V21.512L16.4581 20.262L18.9614 21.512V24.394L16.4581 25.644L13.9547 24.394ZM26.9933 21.512V24.394L24.4899 25.644L21.9865 24.394V21.512L24.4899 20.262L26.9933 21.512ZM30.9986 25.933L27.9946 24.397V21.203C27.9946 21.014 27.8865 20.841 27.7172 20.756L24.7132 19.256C24.573 19.186 24.4068 19.186 24.2656 19.256L21.2615 20.756C21.0923 20.841 20.9852 21.014 20.9852 21.203V24.703C20.9852 24.893 21.0923 25.065 21.2615 25.15L24.2656 26.65C24.4068 26.721 24.573 26.721 24.7132 26.65L27.4909 25.264L30.4769 26.79L20.9852 32.607V27.5H19.9838V32.605L10.516 26.788L13.458 25.264L16.2337 26.65C16.3048 26.686 16.3819 26.703 16.4581 26.703C16.5342 26.703 16.6113 26.686 16.6824 26.65L19.6864 25.15C19.8556 25.065 19.9628 24.893 19.9628 24.703V21.203C19.9628 21.014 19.8556 20.841 19.6864 20.756L16.6824 19.256C16.5412 19.186 16.3749 19.186 16.2337 19.256L13.2297 20.756C13.0605 20.841 12.9533 21.014 12.9533 21.203V24.399L10.0013 25.928V14.438L13.6963 16.915L14.2541 16.085L10.464 13.544L19.9838 8.344V12.152L17.2561 13.514C17.0869 13.599 16.9798 13.772 16.9798 13.961V17.461C16.9798 17.65 17.0859 17.823 17.2551 17.908L20.2592 19.419C20.4004 19.491 20.5676 19.491 20.7088 19.419L23.7128 17.908C23.8821 17.823 23.9892 17.65 23.9892 17.461V13.961C23.9892 13.772 23.8811 13.599 23.7118 13.514L20.9852 12.152V8.343L30.4539 13.5L25.7516 16.061L26.2312 16.939L30.9986 14.343V25.933ZM20.4845 13.02L22.9879 14.27V17.153L20.4845 18.413L17.9811 17.153V14.27L20.4845 13.02ZM31.7386 13.061L20.7238 7.061C20.5736 6.979 20.3934 6.98 20.2432 7.062L9.26035 13.062C9.09913 13.149 9 13.318 9 13.5V26.75C9 26.924 9.09012 27.085 9.23832 27.176L20.2221 33.926C20.3022 33.976 20.3934 34 20.4845 34C20.5746 34 20.6657 33.976 20.7458 33.927L31.7607 27.177C31.9099 27.086 32 26.924 32 26.75V13.5C32 13.317 31.8999 13.149 31.7386 13.061Z" fill="#ED7100"/>
</g>
<rect x="0.5" y="0.5" width="39" height="39" stroke="#ED7100"/>
<defs>
<clipPath id="clip0_23300_4264">
<rect width="40" height="40" fill="white"/>
</clipPath>
</defs>
</svg>
