<svg width="24" height="24" viewBox="0 0 24 24" fill="none" xmlns="http://www.w3.org/2000/svg">
<path d="M12.0308 10.0809L10.2139 11.8984L12.0314 13.7154L13.8484 11.8978L12.0308 10.0809Z" fill="white"/>
<path fill-rule="evenodd" clip-rule="evenodd" d="M17.8701 11.8901L17.8001 11.9501L14.0301 15.7301L12.9701 14.6801L15.7701 11.8901L10.0601 6.18008V4.08008L10.1301 4.15008L17.8701 11.8901Z" fill="white"/>
<path fill-rule="evenodd" clip-rule="evenodd" d="M10.06 6.18008L4.36 11.8901L11.11 18.6501L10.06 19.7001L10 19.6301L2.25 11.8901L10.06 4.08008V6.18008Z" fill="white"/>
<path fill-rule="evenodd" clip-rule="evenodd" d="M13.9399 17.5998V19.6998L13.8799 19.6298L6.12988 11.8998L9.96988 8.0498L11.0299 9.1098L8.22988 11.8998L13.9399 17.5998Z" fill="white"/>
<path d="M13.9399 17.6001L19.6399 11.9001L12.8899 5.14008L13.9399 4.08008L13.9999 4.15008L21.7499 11.9001L21.6799 11.9601L13.9399 19.7001V17.6001Z" fill="white"/>
</svg>
