<svg width="40" height="40"  viewBox="0 0 40 40" xmlns="http://www.w3.org/2000/svg">  <g id="Icon-Architecture/32/Arch_Amazon-Pinpoint_32" stroke="none" stroke-width="1" fill="none" fill-rule="evenodd">  <g id="Icon-Service/32/Amazon-Pinpoint" transform="translate(6.000000, 6.000000)" fill="#FFFFFF"> <path d="M21.882454,4.50697974 C21.882454,5.40496814 22.6130718,6.13558594 23.510058,6.13558594 C24.4080464,6.13558594 25.137662,5.40496814 25.137662,4.50697974 C25.137662,3.60899134 24.4080464,2.87837354 23.510058,2.87837354 C22.6130718,2.87837354 21.882454,3.60899134 21.882454,4.50697974 L21.882454,4.50697974 Z M13.6452144,13.6462166 L16.4935214,10.7969074 C15.8029923,10.2577135 14.9440905,9.9229723 14.0020044,9.9229723 C11.755029,9.9229723 9.92597895,11.7510201 9.92597895,13.9979956 C9.92597895,16.244971 11.755029,18.074021 14.0020044,18.074021 C16.2489799,18.074021 18.0770277,16.244971 18.0770277,13.9979956 C18.0770277,13.0549073 17.7422865,12.1970077 17.2020903,11.5054764 L14.3537834,14.3547856 L13.6452144,13.6462166 Z M20.0473907,8.66117832 L17.9106593,10.7979097 C18.6302527,11.6738492 19.0792469,12.779297 19.0792469,13.9979956 C19.0792469,16.798196 16.8022049,19.0762402 14.0020044,19.0762402 C11.201804,19.0762402 8.92375975,16.798196 8.92375975,13.9979956 C8.92375975,11.1987973 11.201804,8.9207531 14.0020044,8.9207531 C15.2217052,8.9207531 16.3261508,9.37074952 17.2020903,10.0893407 L19.3388217,7.95260935 C17.913666,6.69281982 16.048536,5.92211325 14.0020044,5.92211325 C9.54814232,5.92211325 5.92511991,9.54513566 5.92511991,13.9979956 C5.92511991,18.4518577 9.54814232,22.0748801 14.0020044,22.0748801 C18.4548643,22.0748801 22.0778867,18.4518577 22.0778867,13.9979956 C22.0778867,11.951464 21.3071802,10.086334 20.0473907,8.66117832 L20.0473907,8.66117832 Z M21.3242179,5.96721311 C21.0445988,5.54928771 20.8802348,5.04717589 20.8802348,4.50697974 C20.8802348,3.05676856 22.0598468,1.87615434 23.510058,1.87615434 C24.9602692,1.87615434 26.1398812,3.05676856 26.1398812,4.50697974 C26.1398812,5.95719092 24.9602692,7.13780514 23.510058,7.13780514 C22.9608419,7.13780514 22.4517145,6.96742788 22.0297802,6.67878875 L20.7559596,7.95260935 C22.1951464,9.56016895 23.0801059,11.6748515 23.0801059,13.9979956 C23.0801059,19.0040805 19.0080893,23.0770993 14.0020044,23.0770993 C8.99591954,23.0770993 4.92290071,19.0040805 4.92290071,13.9979956 C4.92290071,8.99191066 8.99591954,4.91989405 14.0020044,4.91989405 C16.3251485,4.91989405 18.4398311,5.80385139 20.0473907,7.24404038 L21.3242179,5.96721311 Z M28,14 C28,21.7190923 21.7190923,28 14,28 C6.28090772,28 0,21.7190923 0,14 C0,6.28090772 6.28090772,0 14,0 C15.9603408,0 17.8565395,0.398883241 19.6394874,1.18562531 L19.2335887,2.10265588 C17.5809292,1.3730403 15.8200301,1.0022192 14,1.0022192 C6.83212828,1.0022192 1.0022192,6.8331305 1.0022192,14 C1.0022192,21.1668695 6.83212828,26.9977808 14,26.9977808 C21.1668695,26.9977808 26.9977808,21.1668695 26.9977808,14 C26.9977808,12.1759611 26.6289641,10.4230797 25.9043597,8.79146682 L26.820388,8.38456582 C27.6031212,10.145465 28,12.0346481 28,14 L28,14 Z" id="Amazon-Pinpoint-Icon_32_Squid"></path> </g> </g></svg>