<svg width="40" height="40" viewBox="0 0 40 40" xmlns="http://www.w3.org/2000/svg">  <g id="Icon-Architecture/32/Arch_AWS-Parallel-Cluster_32" stroke="none" stroke-width="1" fill="none" fill-rule="evenodd">  <g id="Icon-Service/32/AWS-ParallelClusters_32" transform="translate(7.000000, 8.000000)" fill="#FFFFFF"> <path d="M17.2963781,23 L21.2973781,23 L21.2973781,19 L17.2963781,19 L17.2963781,23 Z M22.2973781,18.5 L22.2973781,23.5 C22.2973781,23.776 22.0733781,24 21.7973781,24 L16.7963781,24 C16.5193781,24 16.2963781,23.776 16.2963781,23.5 L16.2963781,18.5 C16.2963781,18.224 16.5193781,18 16.7963781,18 L21.7973781,18 C22.0733781,18 22.2973781,18.224 22.2973781,18.5 L22.2973781,18.5 Z M24.7973781,15 L19.7973781,15 C19.5203781,15 19.2973781,15.224 19.2973781,15.5 L19.2973781,16.5 C19.2973781,16.776 19.5203781,17 19.7973781,17 C20.0733781,17 20.2973781,16.776 20.2973781,16.5 L20.2973781,16 L24.2973781,16 L24.2973781,20 L23.7973781,20 C23.5203781,20 23.2973781,20.224 23.2973781,20.5 C23.2973781,20.776 23.5203781,21 23.7973781,21 L24.7973781,21 C25.0733781,21 25.2973781,20.776 25.2973781,20.5 L25.2973781,15.5 C25.2973781,15.224 25.0733781,15 24.7973781,15 L24.7973781,15 Z M5.29737813,5 L9.29737813,5 L9.29737813,1 L5.29737813,1 L5.29737813,5 Z M4.29737813,5.5 L4.29737813,0.5 C4.29737813,0.224 4.52037813,0 4.79737813,0 L9.79737813,0 C10.0733781,0 10.2973781,0.224 10.2973781,0.5 L10.2973781,5.5 C10.2973781,5.776 10.0733781,6 9.79737813,6 L4.79737813,6 C4.52037813,6 4.29737813,5.776 4.29737813,5.5 L4.29737813,5.5 Z M0.797378135,9 L5.79737813,9 C6.07337813,9 6.29737813,8.776 6.29737813,8.5 L6.29737813,7.5 C6.29737813,7.224 6.07337813,7 5.79737813,7 C5.52037813,7 5.29737813,7.224 5.29737813,7.5 L5.29737813,8 L1.29737813,8 L1.29737813,4 L1.79737813,4 C2.07337813,4 2.29737813,3.776 2.29737813,3.5 C2.29737813,3.224 2.07337813,3 1.79737813,3 L0.797378135,3 C0.520378135,3 0.297378135,3.224 0.297378135,3.5 L0.297378135,8.5 C0.297378135,8.776 0.520378135,9 0.797378135,9 L0.797378135,9 Z M26.3733781,13.982 C26.2983781,14.248 26.0203781,14.403 25.7553781,14.327 C25.4893781,14.252 25.3353781,13.976 25.4103781,13.71 C25.7993781,12.341 25.5483781,10.839 24.7553781,9.79 C24.0133781,8.809 22.8793781,8.291 21.4743781,8.291 C17.8523781,8.291 15.8693781,10.311 13.9093781,12.582 C15.1383781,13.986 16.4343781,15.364 18.0523781,16.14 C18.3013781,16.26 18.4053781,16.558 18.2863781,16.807 C18.1993781,16.986 18.0203781,17.091 17.8353781,17.091 C17.7613781,17.091 17.6883781,17.075 17.6183781,17.042 C15.8683781,16.201 14.5173781,14.791 13.2493781,13.347 C11.3323781,15.585 9.30437813,17.818 5.79437813,17.818 C3.84137813,17.818 2.17337813,17.025 1.09737813,15.584 C0.0713781345,14.209 -0.260621865,12.443 0.209378135,10.86 C0.287378135,10.596 0.562378135,10.444 0.831378135,10.522 C1.09537813,10.601 1.24637813,10.879 1.16837813,11.144 C0.793378135,12.408 1.07337813,13.88 1.89937813,14.986 C2.78137813,16.167 4.16437813,16.818 5.79437813,16.818 C8.90837813,16.818 10.7093781,14.779 12.5863781,12.586 C11.1703781,10.956 9.81637813,9.435 8.03237813,8.717 C7.77637813,8.614 7.65137813,8.323 7.75537813,8.067 C7.85737813,7.81 8.14837813,7.687 8.40537813,7.79 C10.3623781,8.577 11.8373781,10.202 13.2453781,11.819 C15.2593781,9.496 17.4773781,7.291 21.4743781,7.291 C23.1793781,7.291 24.6283781,7.964 25.5533781,9.187 C26.5303781,10.48 26.8443781,12.318 26.3733781,13.982 L26.3733781,13.982 Z" id="AWS-ParallelCluster_Icon_32_Squid"></path> </g> </g></svg>