<svg id="svg192014" xmlns="http://www.w3.org/2000/svg" xmlns:xlink="http://www.w3.org/1999/xlink" viewBox="0 0 500 500"><defs><style>.cls-1{fill:#41a500;}.cls-2{fill:#fff;}.cls-3{stroke:#61bd00;fill:url(#radial-gradient);}.cls-3,.cls-7{stroke-miterlimit:4.26667;stroke-width:2.51121px;}.cls-3,.cls-4,.cls-6{fill-rule:evenodd;}.cls-4{fill:#0e232e;}.cls-5,.cls-7,.cls-8{fill:none;}.cls-5{stroke-miterlimit:11.81197;stroke-width:2.51121px;stroke:url(#linear-gradient);}.cls-6{opacity:0.984;isolation:isolate;fill:url(#radial-gradient-2);}.cls-7{stroke:url(#linear-gradient-2);}.cls-8{stroke:#327e00;stroke-miterlimit:4.26667;stroke-width:2.51121px;}</style><radialGradient id="radial-gradient" cx="-966.61968" cy="1687.56203" r="83.25627" gradientTransform="matrix(2.21433, -0.04275, -0.03932, -2.03669, 2456.58791, 3629.83786)" gradientUnits="userSpaceOnUse"><stop offset="0" stop-color="#4cfd00"/><stop offset="1" stop-color="#5bd900"/></radialGradient><linearGradient id="linear-gradient" x1="-1309.93712" y1="-376.53" x2="-1248.14736" y2="-157.27117" gradientTransform="translate(4081.69491 1096.38807) rotate(-1.10611) scale(2.95299)" gradientUnits="userSpaceOnUse"><stop offset="0" stop-color="#fff" stop-opacity="0.51969"/><stop offset="1" stop-color="#fff" stop-opacity="0.08661"/></linearGradient><radialGradient id="radial-gradient-2" cx="-1291.74944" cy="-304.61994" r="56.33016" gradientTransform="matrix(2.95244, -0.057, 0.05224, 2.70562, 4079.56272, 985.95615)" gradientUnits="userSpaceOnUse"><stop offset="0" stop-color="#fff"/><stop offset="1" stop-color="#fff" stop-opacity="0"/></radialGradient><linearGradient id="linear-gradient-2" x1="-1874.28877" y1="-1039.08438" x2="-1812.46879" y2="-819.71835" gradientTransform="matrix(3.80398, -0.07345, -0.07345, -3.80398, 6209.88694, 347.44524)" xlink:href="#linear-gradient"/></defs><g id="layer1"><g id="g6271"><g id="g6159"><path id="circle1456" class="cls-1" d="M487.14792,244.32476c2.52777,130.91988-101.55462,239.10056-232.4745,241.62832S15.57286,384.39849,13.04508,253.47862,114.5997,14.37806,245.51957,11.8503,484.62015,113.40488,487.14792,244.32476Z"/><path id="circle1458" class="cls-2" d="M457.04613,244.906c2.20671,114.29516-88.65882,208.73849-202.95391,210.94527S45.35369,367.19257,43.14686,252.89742,131.8056,44.15881,246.10072,41.952h0C360.39589,39.74525,454.83934,130.6108,457.04613,244.906Z"/><path id="path1460" class="cls-3" d="M252.14266,64.445c-2.296.04577-4.41009.08535-6.24777.1784-14.70308.64506-45.86336,2.79607-48.29624,22.13082s20.16617,67.077,30.40651,82.65209c10.24026,15.57565,31.23993,15.94749,40.886-.78907,9.6461-16.7363,30.67505-67.1432,27.32815-85.92582-2.92847-16.435-28.00283-18.43569-44.07672-18.24692Zm-96.378,31.43641c-14.31481.11581-30.866,16.87184-38.9433,25.68952-9.94117,10.852-30.45738,34.41086-18.506,49.80293,11.95137,15.39232,61.69859,33.16562,79.95309,36.93775,18.25432,3.77276,33.36456-10.81153,28.35095-29.4667C201.60556,160.189,180.82815,109.67285,165.18,98.758a15.83637,15.83637,0,0,0-9.41539-2.87648Zm181.24607-2.34015a16.99085,16.99085,0,0,0-9.38316,3.58412c-15.392,11.9517-33.16559,61.69053-36.93791,79.94479s10.81194,33.36463,29.46731,28.35106c18.65527-5.0142,69.17188-25.78334,80.08664-41.4308,10.915-15.64809-11.96036-38.41752-22.81254-48.35869C368.61353,107.55447,351.40882,92.49353,337.01068,93.54128ZM87.75689,202.42188a24.83857,24.83857,0,0,0-3.875.35C65.099,206.11878,65.17048,238.4014,65.81465,253.10466c.645,14.70338,2.80458,45.8634,22.13933,48.296,19.3346,2.43333,67.06818-20.17376,82.6435-30.41457,15.57524-10.2403,15.94724-31.23133-.78926-40.87765-15.69045-9.043-60.97551-28.10047-82.05141-27.68855Zm320.54506-6.189c-21.233.5185-64.10625,20.98205-78.70811,30.58235-15.57524,10.24031-15.94708,31.24.78941,40.88562,16.73646,9.64632,67.14336,30.675,85.9262,27.3286,18.78284-3.34706,18.71153-35.621,18.06745-50.32434s-2.79644-45.872-22.13109-48.30458a27.17867,27.17867,0,0,0-3.94386-.17068Zm-93.03612,92.68126c-15.05275.52-26.07236,13.721-21.68539,30.04412,5.01369,18.65518,25.78273,69.17208,41.43086,80.087,15.64812,10.91457,38.41755-11.96055,48.35872-22.81242,9.94116-10.85236,30.45737-34.41149,18.506-49.80381-11.95135-15.39194-61.69012-33.16525-79.9446-36.93737a28.14737,28.14737,0,0,0-6.66557-.57793Zm-128.45319,2.48011a28.359,28.359,0,0,0-6.77855.97113c-18.65529,5.01357-69.17187,25.7827-80.08673,41.4308s11.9606,38.42612,22.81286,48.36715,34.41123,30.449,49.80326,18.4979c15.392-11.95133,33.16558-61.69053,36.93789-79.94479C212.80221,304.74377,202.05029,291.1774,186.81264,291.39423Z"/><path id="path1462" class="cls-4" d="M249.12453,198.67706c-.84532.01454-1.68787.03047-2.52675.11746-.81549.07624-1.62769.13427-2.43206.23023-.77209.0899-1.53515.20192-2.29582.33164-.06091.00114-.10979.002-.16322.00417-.80933.13655-1.61115.2889-2.4066.465a49.85607,49.85607,0,0,0-11.54148,4.067c-.70295.34617-1.39615.71358-2.07936,1.0944-.03812.00063-.06856.06094-.10834.06094q-.94581.53406-1.865,1.10288c-.08928.06094-.18063.1067-.26989.16006-.62747.39649-1.24168.80437-1.85,1.22476a1.65234,1.65234,0,0,1-.18229.12428c-.56191.38878-1.112.79855-1.657,1.21236-.11519.08762-.23332.17069-.34766.25919-.47882.37058-.94594.75405-1.41049,1.14055-.17152.1411-.34692.28132-.51694.42317-.37206.31722-.73192.65037-1.09438.979-.25007.22872-.50548.44606-.75174.67857-.00207.00619-.01451.00025-.01451.00038q-.8749.82573-1.71486,1.69647c-.56191.58476-1.10818,1.18582-1.64155,1.79649-.23635.26842-.46052.54821-.69.82384-.29887.356-.60154.71055-.89088,1.07594-.13029.16323-.25313.3377-.38121.50093-.38884.507-.77273,1.0107-1.14256,1.53059q-.69879.98012-1.34782,1.99625c-.077.122-.14791.244-.22415.36514-.36977.587-.73269,1.18139-1.07884,1.78523a49.893,49.893,0,0,0-6.22168,18.49537h-.00291q-.15439,1.20788-.2516,2.43269c-.061.80867-.109,1.62075-.13342,2.43915-.02287.84166-.03812,1.68421-.01533,2.52929a50.23611,50.23611,0,0,0,29.55421,44.82185c.02279,1.23449-.0145,2.45861-.02279,3.68855-.48871,18.66-6.74925,47.80175-12.90592,72.43531-4.23861,14.89354-8.74917,29.76015-12.23719,44.84322a23.43331,23.43331,0,0,0-.4018,2.91061c-.3408,3.3798.49176,4.63655,5.69544,5.38086q2.2427.55036,4.66635,1.03574a177.53089,177.53089,0,0,0,32.30585,3.04387c.16552-.00025.32936,0,.49559,0,1.42047.0311,2.83782,0,4.25957-.02074.75785-.02073,1.51288-.02275,2.27187-.04551.76089-.02074,1.517-.02276,2.27622-.04552,1.42153-.02276,2.83774-.11391,4.25684-.15121h.49558a177.38836,177.38836,0,0,0,32.16428-4.28861q2.39887-.57047,4.62286-1.21514c5.1713-.94484,5.95445-2.23268,5.48352-5.59668a23.38922,23.38922,0,0,0-.51388-2.893c-4.06767-14.93716-9.14869-29.61868-13.959-44.33736-7.10281-24.37778-14.48336-53.25619-15.69244-71.8833-.05345-1.2288-.13961-2.45052-.16322-3.685a50.2366,50.2366,0,0,0,27.802-45.92941c-.01451-.848-.06091-1.68927-.11578-2.52676-.05345-.817-.13279-1.62631-.228-2.43219q-.14418-1.21926-.34538-2.42132h-.00209a49.89155,49.89155,0,0,0-6.931-18.24136c-.369-.5893-.754-1.16988-1.14684-1.74212-.08079-.11884-.15617-.23794-.23785-.35679q-.69075-.98807-1.42392-1.94277c-.3896-.5032-.79261-.99591-1.20073-1.48533-.13484-.16323-.26305-.32708-.40029-.48563-.30268-.35528-.61911-.69525-.93168-1.0408-.24016-.26449-.47577-.53519-.72124-.79678-.555-.58854-1.12383-1.16786-1.70959-1.73187-.58555-.56339-1.1867-1.10933-1.7962-1.64123-.25388-.21885-.51844-.43151-.77712-.64885-.3751-.31406-.74719-.6328-1.13129-.936-.17464-.14022-.35607-.26842-.53295-.40257-.4788-.36981-.961-.73419-1.45347-1.0853-.11746-.08445-.2394-.16158-.35759-.24553-.56038-.39106-1.12563-.77731-1.70257-1.1475a.67838.67838,0,0,0-.18684-.11063c-.62366-.395-1.25365-.78237-1.89592-1.15181-.09072-.06094-.18457-.09988-.276-.14931-.62748-.35528-1.26211-.70221-1.90607-1.03069-.03812.00064-.07624-.06094-.10977-.06094q-1.04645-.53064-2.12006-1.01336A49.86255,49.86255,0,0,0,258.998,199.443c-.80154-.14565-1.60874-.26765-2.42276-.37209-.06091.001-.10979.002-.16385.00417-.765-.09381-1.53188-.18294-2.30688-.24173-.80748-.06853-1.62168-.10671-2.43915-.13655-.84079-.04577-1.68374-.03047-2.53368-.01454Z"/><path id="path1468" class="cls-5" d="M346.98909,397.11975a11.69359,11.69359,0,0,1-9.3781-1.813c-5.89609-4.1131-15.54246-19.27671-23.20016-35.356-7.65772-16.08-14.06561-33.37377-16.43093-42.17477-1.86556-6.94189-.45876-12.73637,2.78563-17.02595a18.85029,18.85029,0,0,1,14.658-7.29593,25.13489,25.13489,0,0,1,5.58857.49705c8.54274,1.76543,25.53474,7.12625,41.48236,13.85226,15.94744,6.726,31.16071,15.4624,35.78049,21.41218a12.71067,12.71067,0,0,1,2.6156,9.56146,33.20962,33.20962,0,0,1-4.07923,12.11051c-4.50765,8.47929-11.87323,16.90453-16.78863,22.27033C372.70757,381.14309,357.79818,395.24394,346.98909,397.11975ZM160.21018,399.673c-10.972-.95955-26.3325-13.495-34.38084-20.86787-5.32444-4.87681-13.51858-12.90151-18.81439-21.146a33.98389,33.98389,0,0,1-5.14731-11.87635,11.683,11.683,0,0,1,1.813-9.3781c4.11257-5.89643,19.28465-15.53946,35.36724-23.20038,16.0826-7.66022,33.37422-14.08767,42.17435-16.45262a23.40124,23.40124,0,0,1,5.67526-.81535c12.49169-.167,20.94873,10.31445,18.14979,23.8587-1.76527,8.54187-7.12346,25.54327-13.852,41.49356-6.72857,15.951-15.47375,31.16163-21.42337,35.78071a12.70145,12.70145,0,0,1-9.56167,2.60441ZM88.53325,296.88255a12.71432,12.71432,0,0,1-8.60908-4.91983,33.17387,33.17387,0,0,1-5.68783-11.44021c-2.808-9.18175-3.55293-20.34841-3.87166-27.61844-.31591-7.21407-.43482-18.68549,1.65-28.26278a34.02447,34.02447,0,0,1,4.75266-12.04509,11.69373,11.69373,0,0,1,7.90687-5.33954,20.83763,20.83763,0,0,1,3.16489-.28446c9.10265-.17785,25.693,4.26229,41.386,10.02278,15.6932,5.76049,30.90477,12.79549,38.30673,17.06155,7.11787,4.10281,10.19893,10.15652,10.24043,16.30393.04132,6.14741-3.07071,12.47823-9.67925,16.82226-7.28868,4.79267-23.09071,13.023-39.12357,19.54239S96.00737,297.8235,88.53325,296.88255Zm326.9759-6.31317c-7.0775,1.26113-24.61768-2.65585-41.40358-8.6116-16.78607-5.955-33.54738-13.63787-41.44286-18.18848-7.11715-4.10213-10.19886-10.153-10.24042-16.30393-.04139-6.15091,3.07119-12.48944,9.679-16.83416,6.83253-4.49259,21.15858-12.02577,36.12265-18.30816,14.96407-6.2831,30.95529-11.30541,40.18568-11.53054l.08942-.00172a22.85126,22.85126,0,0,1,3.17307.13968,12.71052,12.71052,0,0,1,8.60908,4.91983,33.22612,33.22612,0,0,1,5.68805,11.45211c2.80578,9.18459,3.5419,20.34792,3.86047,27.61865.31591,7.21407.43467,18.67779-1.65026,28.25158a34.02763,34.02763,0,0,1-4.75266,12.0451,11.69378,11.69378,0,0,1-7.91785,5.351ZM179.19351,203.86263c-8.54222-1.76545-25.54029-7.12335-41.49355-13.85135-15.95327-6.7287-31.17248-15.47407-35.7919-21.42316a12.70994,12.70994,0,0,1-2.61561-9.56146,33.19226,33.19226,0,0,1,4.07923-12.11051c4.51034-8.47654,11.88378-16.89283,16.8-22.26a134.13307,134.13307,0,0,1,16.54837-15.56645c6.569-5.02313,13.684-8.60325,19.07937-8.6472a10.84347,10.84347,0,0,1,6.77272,2.065c5.89661,4.11308,15.53982,19.27606,23.20016,35.356,7.66052,16.08,14.07716,33.37355,16.44213,42.17456,2.13222,7.93379.031,14.38163-4.287,18.75775C193.60967,203.17258,186.93856,205.46352,179.19351,203.86263Zm129.07286-2.58943c-9.448-2.39562-15.52024-11.64387-13.11943-23.26126,1.76528-8.54187,7.12346-25.54327,13.85205-41.49356,6.72857-15.951,15.47359-31.16093,21.42336-35.78141a12.2279,12.2279,0,0,1,6.92828-2.64318c5.49267-.39872,12.69753,2.51632,19.50289,6.90593a136.92369,136.92369,0,0,1,17.51136,14.00141c5.32373,4.87613,13.51018,12.90167,18.80319,21.14622a33.99716,33.99716,0,0,1,5.14731,11.87636,11.68757,11.68757,0,0,1-1.813,9.37809c-4.11257,5.89573-19.27619,15.5421-35.356,23.19947-16.07985,7.65807-33.37355,14.07716-42.17455,16.44283h0a21.27061,21.27061,0,0,1-10.70472.26409Zm-59.62706-24.68227c-6.15079.03824-12.49053-3.07275-16.83416-9.679-4.79142-7.28729-13.02557-23.08732-19.54239-39.12356s-11.087-32.97267-10.14645-40.44766a12.71567,12.71567,0,0,1,4.91982-8.60908,33.16473,33.16473,0,0,1,11.44021-5.68782c9.18162-2.80572,20.34741-3.54154,27.61866-3.86047l.03447-.00067c1.72627-.09074,3.804-.13086,6.10211-.17523,7.8166-.0879,17.7665.41666,25.60578,2.7096A27.23343,27.23343,0,0,1,287.45,76.3934a11.321,11.321,0,0,1,4.29348,7.10927c1.26113,7.07749-2.65551,24.61749-8.6109,41.40356-5.95521,16.78607-13.63788,33.54738-18.18849,41.44286-4.10279,7.11874-10.15318,10.19938-16.30392,10.24042Z"/><path id="path1470" class="cls-6" d="M259.34389,82.75693c-2.28232-.14565-8.68812,74.73563-10.9747,74.7637-2.28627.04577-11.17087-74.39565-13.44747-74.19108-2.27653.20507,2.16589,75.02617-.09073,75.38511-2.25632.35831-20.44935-72.84457-22.67013-72.30723-1.3767.33088,3.50075,29.02849,6.92738,51.12719,5.40831,11.91946,11.13381,22.62036,14.70761,28.05609,3.93662,5.98786,9.50742,8.622,14.82739,8.58644,5.31988-.03047,10.51839-2.56621,14.2436-9.03009,3.89667-6.76037,10.31482-20.68569,15.8449-35.31726,3.13158-20.78734,6.82124-44.17287,5.56965-44.43674-2.231-.47273-20.46055,74.00952-22.72418,73.72113-2.26356-.289.06856-76.21363-2.21362-76.35713Zm68.79531,23.89494c-5.05707,6.46274-11.69954,18.36033-16.94075,30.78426-3.787,8.97749-7.03754,18.16019-9.54524,26.07982C308.27235,148.54161,323.63022,117.82752,328.1392,106.65187ZM146.05567,117.83865c-1.79391,1.41238,43.72628,62.279,42.04118,63.82573-1.68525,1.545-57.57616-47.953-59.1283-46.28038-1.55207,1.67334,51.57018,54.4329,50.13651,56.20827s-65.00652-39.84937-66.30272-37.966c-1.06861,1.55336,39.64908,32.26416,53.48416,44.21245,5.33719,1.65222,10.15311,3.00518,13.38815,3.67338,7.02063,1.45107,12.81718-.60915,16.55122-4.3943,3.73412-3.7849,5.62562-9.2693,3.68976-16.47168-.54667-2.03481-1.36214-4.6301-2.33821-7.52554-8.06743-6.85507-49.86929-56.58277-51.52177-55.28215Zm203.544-1.96376c-1.7448-1.29985-44.6835,51.8691-50.426,55.86425-.70218,2.55268-1.31051,4.92583-1.68472,6.73774-2.17626,10.53,3.1508,18.39068,11.36834,20.47416h0a18.30528,18.30528,0,0,0,9.49815-.24085c3.47772-.935,8.62528-2.68341,14.33385-4.78852,14.43788-12.57287,52.2636-41.86244,51.18036-43.34309-1.348-1.84276-63.618,41.05718-65.11288,39.32682s51.23165-56.11383,49.63338-57.748c-1.59805-1.63314-57.41185,49.497-59.13128,47.99178-1.71926-1.50506,42.17239-62.92616,40.34051-64.28974ZM174.52082,122.137c5.14446,10.57219,11.15639,22.65614,16.37259,33.35072-2.23284-5.44837-4.63325-11.054-7.27748-16.60456C180.77193,132.91375,177.63014,127.29482,174.52082,122.137ZM86.92605,220.74618c-.56724.06853-.87792.14249-.90195.28662-.385,2.25531,73.99139,17.15429,73.784,19.42958-.20738,2.27491-75.97193,2.49136-76.03063,4.76955-.061,2.27946,74.69578,5.51134,74.80274,7.78991.10674,2.27908-74.72932,14.09032-74.46248,16.36.26685,2.26909,76.10749-4.54792,76.54016-2.30955.43229,2.23837-71.40753,24.19407-70.807,26.397.23864.8753,11.98164-1.47825,25.97692-4.46776,4.0294-1.327,8.16761-2.82893,12.24757-4.48786,15.89508-6.46376,31.68625-14.70351,38.7132-19.32413,5.99044-3.93851,8.62233-9.50257,8.58648-14.81895-.03812-5.3165-2.57593-10.51846-9.03831-14.24355a232.5353,232.5353,0,0,0-22.08269-10.54678c-20.17945-1.787-51.5515-5.37428-57.32807-4.83315Zm322.41787-4.05749c-10.65115.61295-43.83913,5.673-61.20494,7.60912-6.23671,3.19546-11.45106,6.15766-14.73629,8.317-5.98928,3.938-8.62231,9.49916-8.58647,14.81908.03812,5.32042,2.57721,10.52756,9.0386,14.25164,7.64742,4.40771,24.39548,12.11164,41.04745,18.01985,13.62962,4.83543,27.83546,8.09727,35.79859,8.56811.06091-.06095.18911-.06095.1997-.0899.54818-2.21321-72.14906-22.415-71.75083-24.66086.398-2.24583,76.65842,3.78135,76.8744,1.50683.21575-2.27428-75.47773-11.66622-75.4342-13.95263.04577-2.28717,75.84912-7.68788,75.72856-9.96557-.12118-2.27756-76.43267-1.22122-76.71088-3.48437S413.1413,219.13745,412.6918,216.9c-.05345-.27979-1.2686-.33163-3.348-.21038Zm-222.42256,81.6438a21.08779,21.08779,0,0,0-5.086.72812c-8.52358,2.29071-25.80857,8.70048-41.76282,16.29986-2.29108,1.091-4.54222,2.23356-6.76522,3.3989-13.28149,9.42051-25.11972,17.9436-24.58289,18.79146,1.22423,1.93228,67.19864-36.25438,68.56-34.41946,1.36122,1.83455-55.43879,52.3388-53.95588,54.07561,1.48291,1.7363,59.91978-45.72585,61.51713-44.0974,1.59736,1.62795-46.43525,59.32725-44.72589,60.83775,1.7095,1.51,53.24927-53.66382,55.0742-52.291s-37.52289,66.07143-35.60228,67.30706c1.358.87429,22.99537-29.45621,36.4607-47.21738a207.09843,207.09843,0,0,0,6.65816-22.43615C205.24836,307.03044,197.98681,298.18089,186.92136,298.33249Zm128.57932-2.48264a16.42,16.42,0,0,0-12.83357,6.33922c-2.80131,3.70372-4.08492,8.666-2.39132,14.96839a250.74409,250.74409,0,0,0,9.89609,27.33391c13.89355,17.61766,32.69318,42.37006,33.91452,41.54,1.89156-1.28519-38.95976-64.13182-37.17614-65.55773,1.78368-1.42541,54.01662,52.36724,55.69549,50.82451,1.67894-1.54324-47.52151-58.67-45.96477-60.33821,1.5568-1.66942,60.87937,44.30487,62.30724,42.521s-55.295-51.01466-53.99615-52.89067c1.29894-1.87488,66.94423,34.59115,68.11538,32.62929.62215-1.04155-16.91887-12.82611-33.45-24.00543-15.23871-6.28587-31.18566-11.2916-39.08389-12.92423a21.46194,21.46194,0,0,0-5.03292-.44226Z"/><path id="circle5903" class="cls-7" d="M479.82558,244.46575c2.44961,126.87592-98.41777,231.71484-225.29363,234.1646S22.817,380.21271,20.36723,253.33691,118.78494,21.62182,245.66085,19.17219,477.37585,117.58983,479.82558,244.46575Z"/><path id="circle5917" class="cls-8" d="M484.73985,244.37088c2.50208,129.58993-100.523,236.67177-230.113,239.17386h0c-129.59,2.50208-236.67177-100.52307-239.17385-230.113h0C12.9509,123.84182,115.976,16.76,245.566,14.25789h0c129.59-2.50209,236.67178,100.52307,239.17387,230.113Z"/></g></g></g></svg>