<svg width="40" height="40" viewBox="0 0 40 40" fill="none" xmlns="http://www.w3.org/2000/svg">
<g clip-path="url(#clip0_23296_3572)">
<path d="M40 0H0V40H40V0Z" fill="#C925D1" fill-opacity="0.12"/>
<path fill-rule="evenodd" clip-rule="evenodd" d="M34 19.8363C34 23.2185 31.6322 24.4596 30.2192 24.8992L29.9183 23.9598C31.3224 23.5221 32.9971 22.4525 32.9971 19.8363C32.9971 16.528 30.2212 15.7019 29.0278 15.4998C28.757 15.4544 28.5745 15.2031 28.6176 14.9359C28.5163 13.4592 27.7953 12.3541 26.6911 12.0377C25.7815 11.7765 24.8117 12.1225 24.215 12.917C24.1047 13.0639 23.9272 13.1349 23.7377 13.1122C23.5542 13.0846 23.4007 12.9604 23.3385 12.7889C22.9274 11.6424 22.3307 10.6793 21.5655 9.92518C20.6258 8.99854 18.0444 7.01021 14.412 8.52241C12.309 9.39778 10.6623 11.9184 10.6623 14.2616C10.6623 14.5258 10.6784 14.7871 10.7085 15.0424C10.7395 15.2878 10.5791 15.5175 10.3354 15.5787C9.09083 15.8902 7.00287 16.8533 7.00287 19.7948C7.00287 19.8915 7.00587 19.9861 7.00989 20.0788C7.10415 21.9705 8.52321 23.598 10.4597 24.0347L10.2361 24.9958C7.86232 24.4606 6.12335 22.4575 6.00903 20.1261C6.00301 20.0176 6 19.9072 6 19.7948C6 16.4264 8.31562 15.1814 9.6745 14.7417C9.66347 14.583 9.65946 14.4223 9.65946 14.2616C9.65946 11.5074 11.5338 8.64957 14.0199 7.6145C16.9332 6.40297 20.0211 7.0043 22.2765 9.22921C22.9755 9.91926 23.5491 10.7572 23.9874 11.7252C24.8218 11.0391 25.9239 10.7907 26.9729 11.0914C28.413 11.5054 29.3768 12.8086 29.5914 14.6077C31.0034 14.932 34 16.0686 34 19.8363ZM28.4973 31.1876L24.9893 32.7431L24.9993 27.9128L28.4973 26.3888V31.1876ZM19.4986 31.1422L16.0026 32.7352V27.9295L19.4986 26.3848V31.1422ZM15.4991 27.0719L12.1977 25.6336L15.5001 24.151L18.7835 25.6198L15.4991 27.0719ZM11.4777 26.3976L14.9997 27.9315V32.7431L11.4777 31.1777V26.3976ZM19.985 16.2924L23.2613 17.7267L20 19.1748L16.7166 17.7257L19.985 16.2924ZM21.2195 25.6297L24.4868 24.1491L27.7762 25.6248L24.4989 27.0532L21.2195 25.6297ZM20.5014 26.3966L23.9964 27.9128L23.9864 32.7343L20.5014 31.1422V26.3966ZM23.9844 23.2904L20.5014 24.8697V20.0334L23.9844 18.4877V23.2904ZM16.0006 23.2924L15.9915 18.4867L19.4986 20.0344V24.8569L16.0006 23.2924ZM29.2023 25.195L29.2073 25.1831L24.9872 23.2895V17.7237C24.9872 17.5561 24.901 17.4004 24.7576 17.3097C24.7355 17.2959 24.7074 17.2959 24.6844 17.286L24.6894 17.2742L20.1895 15.3026C20.0602 15.2455 19.9117 15.2455 19.7804 15.3026L15.2835 17.2742L15.2895 17.286C15.2645 17.2969 15.2374 17.2959 15.2153 17.3107C15.0729 17.4014 14.9867 17.5571 14.9867 17.7247L14.9977 23.2934L10.7676 25.192L10.7726 25.2038C10.7496 25.2137 10.7235 25.2137 10.7034 25.2275C10.561 25.3182 10.4748 25.474 10.4748 25.6406V31.4961C10.4748 31.6893 10.5901 31.8648 10.7696 31.9446L15.2946 33.9556L15.3006 33.9428C15.3658 33.9704 15.4309 34 15.5011 34C15.5723 34 15.6446 33.9852 15.7117 33.9537L19.999 31.9998L24.2742 33.9537L24.2812 33.9409C24.3464 33.9704 24.4136 34 24.4858 34C24.556 34 24.6252 33.9852 24.6924 33.9556L29.2053 31.9545C29.3838 31.8756 29.5001 31.7002 29.5001 31.506V25.6317C29.5001 25.4651 29.4139 25.3093 29.2715 25.2186C29.2504 25.2048 29.2244 25.2048 29.2023 25.195Z" fill="#C925D1"/>
</g>
<rect x="0.5" y="0.5" width="39" height="39" stroke="#C925D1"/>
<defs>
<clipPath id="clip0_23296_3572">
<rect width="40" height="40" fill="white"/>
</clipPath>
</defs>
</svg>
