<?xml version="1.0" encoding="UTF-8"?>
<svg width="1200px" height="1200px" viewBox="0 0 1200 1200" version="1.1" xmlns="http://www.w3.org/2000/svg" xmlns:xlink="http://www.w3.org/1999/xlink">
    <title>logo avatar (includes whitespace surround)</title>
    <defs>
        <polygon id="path-1" points="0.314060448 255.102725 437.707741 509.628627 872.974293 253.154869 437.707741 0.576824352"></polygon>
    </defs>
    <g id="logo-avatar-(includes-whitespace-surround)" stroke="none" stroke-width="1" fill="none" fill-rule="evenodd">
        <g id="mesh-logo" transform="translate(145.000000, 70.000000)">
            <g id="dot-grid" transform="translate(67.695992, 709.009532)" fill="#B6E2D6" fill-rule="nonzero" stroke="#FFFFFF" stroke-width="4">
                <ellipse id="Oval-9" cx="65.110338" cy="81.3986351" rx="62.9622269" ry="33.7292248"></ellipse>
                <ellipse id="Oval-9" cx="389.921473" cy="276.277196" rx="62.9622269" ry="33.7292248"></ellipse>
                <ellipse id="Oval-9" cx="714.732607" cy="81.3905149" rx="62.9622269" ry="33.7292248"></ellipse>
                <ellipse id="Oval-9" cx="224.267794" cy="175.593864" rx="62.9622269" ry="33.7292248"></ellipse>
                <ellipse id="Oval-9" cx="555.575151" cy="175.585744" rx="62.9622269" ry="33.7292248"></ellipse>
                <ellipse id="Oval-9" cx="389.921473" cy="113.871628" rx="62.9622269" ry="33.7292248"></ellipse>
                <ellipse id="Oval-9" cx="224.267794" cy="35.9250763" rx="62.9622269" ry="33.7292248"></ellipse>
                <ellipse id="Oval-9" cx="555.575151" cy="35.916956" rx="62.9622269" ry="33.7292248"></ellipse>
            </g>
            <polygon id="Path-8" fill="#1128A9" fill-rule="nonzero" points="18.494482 635.525784 455.888163 890.051685 891.154714 633.577927 455.888163 380.999883"></polygon>
            <g id="mesh" transform="translate(18.180422, 250.000060)">
                <polygon id="Path-8" fill="#87E3CB" fill-rule="nonzero" points="0.314060448 255.102725 437.707741 509.628627 872.974293 253.154869 437.707741 0.576824352"></polygon>
                <mask id="mask-2" fill="white">
                    <use xlink:href="#path-1"></use>
                </mask>
                <use id="Path-8" fill="#C8FCEE" fill-rule="nonzero" xlink:href="#path-1"></use>
                <line x1="-274.472506" y1="440.043045" x2="1079.55576" y2="-354.322605" id="Path-2" stroke="#6ED3B9" stroke-width="45" fill-rule="nonzero" mask="url(#mask-2)"></line>
                <line x1="-313.429146" y1="618.430822" x2="1040.59912" y2="-175.934828" id="Path-2" stroke="#6ED3B9" stroke-width="45" fill-rule="nonzero" mask="url(#mask-2)"></line>
                <line x1="37.4001492" y1="564.914489" x2="1391.42842" y2="-229.451161" id="Path-2" stroke="#6ED3B9" stroke-width="45" fill-rule="nonzero" mask="url(#mask-2)"></line>
                <line x1="29.6199799" y1="731.409748" x2="1383.64825" y2="-62.9559023" id="Path-2" stroke="#6ED3B9" stroke-width="45" fill-rule="nonzero" mask="url(#mask-2)"></line>
                <line x1="203.895408" y1="790.87234" x2="1557.92367" y2="-3.49330984" id="Path-2" stroke="#6ED3B9" stroke-width="45" fill-rule="nonzero" mask="url(#mask-2)"></line>
                <line x1="554.724703" y1="737.356007" x2="1908.75297" y2="-57.009643" id="Path-2" stroke="#6ED3B9" stroke-width="45" fill-rule="nonzero" mask="url(#mask-2)"></line>
                <line x1="548.778444" y1="903.851266" x2="1902.80671" y2="109.485616" id="Path-2" stroke="#6ED3B9" stroke-width="45" fill-rule="nonzero" mask="url(#mask-2)"></line>
                <g id="lines" mask="url(#mask-2)" fill-rule="nonzero" stroke="#6ED3B9" stroke-width="45">
                    <g transform="translate(806.249750, 227.587220) scale(-1, 1) translate(-806.249750, -227.587220) translate(-305.250250, -401.912780)" id="Path-2">
                        <line x1="6.54627103" y1="794.385751" x2="1360.57454" y2="0.020101099"></line>
                        <line x1="0.600011789" y1="972.773528" x2="1354.62828" y2="178.407878"></line>
                        <line x1="351.429307" y1="919.257195" x2="1705.45757" y2="124.891545"></line>
                        <line x1="345.483048" y1="1085.75245" x2="1699.51131" y2="291.386804"></line>
                        <line x1="517.924566" y1="1145.21505" x2="1871.95283" y2="350.849396"></line>
                        <line x1="868.753861" y1="1091.69871" x2="2222.78213" y2="297.333063"></line>
                        <line x1="862.807602" y1="1258.19397" x2="2216.83587" y2="463.828322"></line>
                    </g>
                </g>
            </g>
            <g id="shapes" transform="translate(129.637675, 68.695502)" fill-rule="nonzero">
                <polygon id="Path-4" fill="#1128A9" points="0.833910035 416.790392 0.833910035 62.3259453 265.83391 569.255762"></polygon>
                <polygon id="Path-26" fill="#569CF5" points="325.83391 438.925408 545.858629 312.468376 545.858629 0.656299551 325.83391 123.602441"></polygon>
                <g id="orange" transform="translate(414.362325, 140.925408)" fill="#FB8143">
                    <polygon id="Path-25" points="-2.14612124e-14 245.023614 178.007865 349.772512 178.007865 106.338847 -2.14612124e-14 -6.21320795e-13"></polygon>
                </g>
                <polygon id="Path-26" fill="#569CF5" style="mix-blend-mode: overlay;" points="325.83391 438.925408 545.858629 312.468376 545.858629 0.656299551 325.83391 123.602441"></polygon>
            </g>
        </g>
    </g>
</svg>