<svg width="90" height="90" viewBox="0 0 90 90" fill="none" xmlns="http://www.w3.org/2000/svg">
<path fill-rule="evenodd" clip-rule="evenodd" d="M56.2322 24.2C57.2511 22.3435 57.8314 20.2069 57.8314 17.9333C57.8314 10.7904 52.1046 5 45.0403 5C37.9761 5 32.2493 10.7904 32.2493 17.9333C32.2493 20.2069 32.8296 22.3435 33.8485 24.2H33.8265L43.3941 40.8165V52.726H17.5512C15.559 52.726 13.944 54.3411 13.944 56.3333V69H7.00049C5.89592 69 5.00049 69.8954 5.00049 71V82.9999C5.00049 84.1045 5.89592 84.9999 7.00049 84.9999H24.9782C26.0827 84.9999 26.9782 84.1045 26.9782 82.9999V71C26.9782 69.8954 26.0827 69 24.9782 69H17.1585V56.3333C17.1585 56.1164 17.3343 55.9406 17.5512 55.9406H43.3941V69H36.0112C34.9066 69 34.0112 69.8954 34.0112 71V82.9999C34.0112 84.1045 34.9066 84.9999 36.0112 84.9999H53.9889C55.0934 84.9999 55.9889 84.1045 55.9889 82.9999V71C55.9889 69.8954 55.0934 69 53.9889 69H46.6086V55.9406H72.0119C72.2288 55.9406 72.4046 56.1164 72.4046 56.3333V69H65.0219C63.9173 69 63.0219 69.8954 63.0219 71V82.9999C63.0219 84.1045 63.9173 84.9999 65.0219 84.9999H82.9996C84.1041 84.9999 84.9996 84.1045 84.9996 82.9999V71C84.9996 69.8954 84.1041 69 82.9995 69H75.6191V56.3333C75.6191 54.3411 74.0041 52.726 72.0119 52.726H46.6086V40.9339L56.2437 24.2H56.2322ZM49.6645 18.0667C49.6645 20.5703 47.6572 22.6 45.181 22.6C42.7049 22.6 40.6976 20.5703 40.6976 18.0667C40.6976 15.563 42.7049 13.5333 45.181 13.5333C47.6572 13.5333 49.6645 15.563 49.6645 18.0667Z" fill="#326CE5"/>
</svg>
