<svg width="48px" height="48px" viewBox="0 0 48 48" version="1.1" xmlns="http://www.w3.org/2000/svg" xmlns:xlink="http://www.w3.org/1999/xlink">
    <title>Icon-Resource/Storage/Res_Amazon-Elastic-File-System_File-System_48</title>
    <g id="Icon-Resource/Storage/Res_Amazon-Elastic-File-System_File-System_48" stroke="none" stroke-width="1" fill="none" fill-rule="evenodd">
        <path d="M37.2366623,11.621 L42.2336623,11.621 L42.2336623,6.624 L37.2366623,6.624 L37.2366623,11.621 Z M36.1116623,13.595 L36.1116623,15.245 L38.1116623,15.245 L38.1116623,13.621 L38.7356623,13.621 L38.7356623,15.245 L40.7356623,15.245 L40.7356623,13.621 L41.3596623,13.621 L41.3596623,15.245 L43.3596623,15.245 L43.3596623,13.595 C43.8066623,13.537 44.1496623,13.193 44.2076623,12.746 L45.8576623,12.746 L45.8576623,10.746 L44.2336623,10.746 L44.2336623,10.123 L45.8576623,10.123 L45.8576623,8.123 L44.2336623,8.123 L44.2336623,7.499 L45.8576623,7.499 L45.8576623,5.499 L44.2076623,5.499 C44.1496623,5.051 43.8066623,4.708 43.3596623,4.649 L43.3596623,3 L41.3596623,3 L41.3596623,4.624 L40.7356623,4.624 L40.7356623,3 L38.7356623,3 L38.7356623,4.624 L38.1116623,4.624 L38.1116623,3 L36.1116623,3 L36.1116623,4.649 C35.6626623,4.708 35.3206623,5.05 35.2616623,5.499 L33.6126623,5.499 L33.6126623,7.499 L35.2366623,7.499 L35.2366623,8.123 L33.6126623,8.123 L33.6126623,10.123 L35.2366623,10.123 L35.2366623,10.746 L33.6126623,10.746 L33.6126623,12.746 L35.2616623,12.746 C35.3206623,13.194 35.6626623,13.537 36.1116623,13.595 L36.1116623,13.595 Z M22.3676623,11.621 L27.3646623,11.621 L27.3646623,6.624 L22.3676623,6.624 L22.3676623,11.621 Z M21.2426623,13.595 L21.2426623,15.245 L23.2426623,15.245 L23.2426623,13.621 L23.8666623,13.621 L23.8666623,15.245 L25.8666623,15.245 L25.8666623,13.621 L26.4906623,13.621 L26.4906623,15.245 L28.4906623,15.245 L28.4906623,13.595 C28.9376623,13.537 29.2806623,13.193 29.3386623,12.746 L30.9886623,12.746 L30.9886623,10.746 L29.3646623,10.746 L29.3646623,10.123 L30.9886623,10.123 L30.9886623,8.123 L29.3646623,8.123 L29.3646623,7.499 L30.9886623,7.499 L30.9886623,5.499 L29.3386623,5.499 C29.2806623,5.051 28.9376623,4.708 28.4906623,4.649 L28.4906623,3 L26.4906623,3 L26.4906623,4.624 L25.8666623,4.624 L25.8666623,3 L23.8666623,3 L23.8666623,4.624 L23.2426623,4.624 L23.2426623,3 L21.2426623,3 L21.2426623,4.649 C20.7936623,4.708 20.4506623,5.05 20.3926623,5.499 L18.7426623,5.499 L18.7426623,7.499 L20.3676623,7.499 L20.3676623,8.123 L18.7426623,8.123 L18.7426623,10.123 L20.3676623,10.123 L20.3676623,10.746 L18.7426623,10.746 L18.7426623,12.746 L20.3926623,12.746 C20.4506623,13.194 20.7936623,13.537 21.2426623,13.595 L21.2426623,13.595 Z M7.49866234,11.621 L12.4956623,11.621 L12.4956623,6.624 L7.49866234,6.624 L7.49866234,11.621 Z M6.37266234,13.595 L6.37266234,15.245 L8.37266234,15.245 L8.37266234,13.621 L8.99666234,13.621 L8.99666234,15.245 L10.9966623,15.245 L10.9966623,13.621 L11.6206623,13.621 L11.6206623,15.245 L13.6206623,15.245 L13.6206623,13.595 C14.0696623,13.537 14.4116623,13.194 14.4706623,12.746 L16.1196623,12.746 L16.1196623,10.746 L14.4956623,10.746 L14.4956623,10.123 L16.1196623,10.123 L16.1196623,8.123 L14.4956623,8.123 L14.4956623,7.499 L16.1196623,7.499 L16.1196623,5.499 L14.4706623,5.499 C14.4116623,5.05 14.0696623,4.708 13.6206623,4.649 L13.6206623,3 L11.6206623,3 L11.6206623,4.624 L10.9966623,4.624 L10.9966623,3 L8.99666234,3 L8.99666234,4.624 L8.37266234,4.624 L8.37266234,3 L6.37266234,3 L6.37266234,4.649 C5.92566234,4.708 5.58166234,5.051 5.52466234,5.499 L3.87466234,5.499 L3.87466234,7.499 L5.49866234,7.499 L5.49866234,8.123 L3.87466234,8.123 L3.87466234,10.123 L5.49866234,10.123 L5.49866234,10.746 L3.87466234,10.746 L3.87466234,12.746 L5.52466234,12.746 C5.58166234,13.193 5.92566234,13.537 6.37266234,13.595 L6.37266234,13.595 Z M37.3346623,28.477 L43.4426623,42.23 L10.6516623,42.23 L4.53866234,28.477 L37.3346623,28.477 Z M6.87666234,24.979 L39.8116623,24.979 L41.7386623,33.463 L38.8996623,27.071 C38.7396623,26.709 38.3806623,26.477 37.9856623,26.477 L7.21766234,26.477 L6.87666234,24.979 Z M10.9966623,22.361 C10.9966623,21.828 11.4186623,21.393 11.9386623,21.393 L31.4436623,21.393 C31.9956623,21.393 32.4436623,20.946 32.4436623,20.393 L32.4436623,18.25 C32.4436623,18.092 32.5546623,17.973 32.7026623,17.973 L36.9456623,17.973 C37.0956623,17.973 37.2126623,18.094 37.2126623,18.25 L37.2126623,20.393 C37.2126623,20.946 37.6596623,21.393 38.2126623,21.393 L43.0406623,21.393 C43.5606623,21.393 43.9826623,21.828 43.9826623,22.361 L43.9826623,34.311 L41.5846623,23.757 C41.4816623,23.302 41.0756623,22.979 40.6096623,22.979 L10.9966623,22.979 L10.9966623,22.361 Z M43.0406623,19.393 L39.2126623,19.393 L39.2126623,18.25 C39.2126623,16.995 38.1956623,15.973 36.9456623,15.973 L32.7026623,15.973 C31.4566623,15.973 30.4436623,16.995 30.4436623,18.25 L30.4436623,19.393 L11.9386623,19.393 C10.3166623,19.393 8.99666234,20.724 8.99666234,22.361 L8.99666234,22.979 L5.62366234,22.979 C5.31966234,22.979 5.03266234,23.118 4.84266234,23.355 C4.65266234,23.593 4.58066234,23.904 4.64966234,24.201 L5.16666234,26.477 L2.99966234,26.477 C2.66066234,26.477 2.34566234,26.648 2.16066234,26.932 C1.97766234,27.216 1.94866234,27.574 2.08566234,27.883 L9.07266234,43.604 C9.22066234,43.97 9.57666234,44.23 9.99666234,44.23 L44.9826623,44.23 C45.5346623,44.23 45.9826623,43.783 45.9826623,43.23 L45.9826623,22.361 C45.9826623,20.724 44.6626623,19.393 43.0406623,19.393 L43.0406623,19.393 Z" id="AWS-Amazon-Elastic-File-System_File-system_Resource-Icon_light-bg" fill="#7AA116"></path>
    </g>
</svg>