<svg id="Layer_1" data-name="Layer 1" xmlns="http://www.w3.org/2000/svg" viewBox="0 0 360 360"><defs><style>.cls-1{fill:#c00;}.cls-2{fill:#fff;}</style></defs><g id="Page-1"><path id="Fill-1" class="cls-1" d="M179.432,5.88043A173.22942,173.22942,0,1,1,6.20259,179.10984,173.22942,173.22942,0,0,1,179.432,5.88043"/><path id="Fill-5" class="cls-2" d="M77.65462,205.60375,218.48,26.26036c3.13849,6.1955,0,9.70085-1.22281,13.41-12.7986,35.09424-25.39341,70.433-38.80338,105.32348-3.30154,8.8449-1.87495,10.92365,7.4183,10.92365H276.522c2.44559,0,5.74716-1.2228,7.21448,1.46736s-1.67117,4.72814-3.09775,6.80688L165.20682,317.00046c-1.8342,2.48636-3.6684,6.19549-7.0107,4.36131s-1.2228-5.58411,0-8.68184c8.88565-32.60789,17.32294-64.849,26.61618-97.253,2.32331-7.62211,0-9.29325-6.96993-9.08947H91.71678Z"/></g></svg>
