<svg width="40" height="40" viewBox="0 0 40 40" fill="none" xmlns="http://www.w3.org/2000/svg">
<g clip-path="url(#clip0_23311_9671)">
<path d="M40 0H0V40H40V0Z" fill="#7AA116" fill-opacity="0.12"/>
<path fill-rule="evenodd" clip-rule="evenodd" d="M29.92 29.641C30.131 29.577 30.274 29.383 30.274 29.163V23.909H29.274V27.524L27.063 24.236C26.94 24.054 26.71 23.971 26.502 24.037C26.291 24.101 26.148 24.296 26.148 24.516V29.537H27.148V26.154L29.359 29.442C29.454 29.583 29.611 29.663 29.774 29.663C29.823 29.663 29.872 29.656 29.92 29.641ZM20.463 20.223L20.947 20.906L19.155 23.524H18.08L20.463 20.223ZM21.986 19.517L22.835 20.724C22.671 21.065 22.544 21.423 22.465 21.796L20.922 19.587L21.464 18.835L23.492 15.941H24.551L21.986 19.517ZM20.45 18.945L18.319 15.941H19.437L21.015 18.193L20.45 18.945ZM17.196 19.691C17.489 20.051 17.636 20.503 17.636 21.045C17.636 21.837 17.345 22.478 16.762 22.967C16.18 23.456 15.412 23.701 14.46 23.701C13.473 23.701 12.592 23.514 11.818 23.14V22.46C12.752 22.798 13.611 22.967 14.394 22.967C15.132 22.967 15.721 22.794 16.162 22.447C16.602 22.1 16.822 21.628 16.822 21.032C16.822 20.667 16.702 20.356 16.462 20.098C16.222 19.84 15.835 19.609 15.301 19.404L13.753 18.804C13.068 18.537 12.566 18.219 12.245 17.85C11.925 17.481 11.765 17.025 11.765 16.482C11.765 15.744 12.03 15.145 12.559 14.687C13.088 14.229 13.784 14 14.647 14C15.039 14 15.45 14.047 15.881 14.14C16.313 14.233 16.72 14.365 17.102 14.534V15.214C16.195 14.894 15.39 14.734 14.687 14.734C14.002 14.734 13.477 14.883 13.113 15.181C12.748 15.479 12.566 15.904 12.566 16.455C12.566 16.767 12.621 17.018 12.732 17.209C12.843 17.401 13.026 17.574 13.279 17.73C13.533 17.885 13.895 18.052 14.367 18.23L15.795 18.777C16.435 19.026 16.902 19.331 17.196 19.691ZM6 23.474H6.787V19.177H10.51V18.47H6.787V14.934H11.191V14.227H6V23.474ZM31.698 27.145L31.616 26.148C31.761 26.135 33.047 25.974 33.047 24.59C33.047 23.442 32.155 23.117 31.624 23.026C31.361 22.981 31.18 22.736 31.213 22.471C31.178 22.016 30.953 21.641 30.612 21.541C30.346 21.463 30.068 21.566 29.889 21.81C29.777 21.959 29.596 22.034 29.413 22.008C29.23 21.981 29.077 21.855 29.015 21.681C28.857 21.233 28.629 20.858 28.339 20.566C27.986 20.214 27.023 19.453 25.658 20.031C24.889 20.357 24.263 21.335 24.263 22.212C24.263 22.314 24.27 22.413 24.281 22.512C24.31 22.761 24.15 22.993 23.908 23.054C23.37 23.191 22.73 23.566 22.73 24.572C22.73 24.642 22.733 24.709 22.738 24.775C22.811 25.537 23.505 26.138 24.319 26.139V27.139C22.994 27.137 21.862 26.139 21.742 24.865C21.734 24.768 21.73 24.672 21.73 24.572C21.73 23.467 22.295 22.612 23.263 22.216V22.212C23.263 20.928 24.125 19.594 25.268 19.11C26.601 18.544 28.015 18.826 29.047 19.861C29.29 20.105 29.5 20.388 29.673 20.706C30.045 20.51 30.478 20.461 30.893 20.581C31.558 20.776 32.019 21.343 32.167 22.127C33.133 22.413 34.047 23.177 34.047 24.59C34.047 26.459 32.511 27.078 31.698 27.145Z" fill="#7AA116"/>
</g>
<rect x="0.5" y="0.5" width="39" height="39" stroke="#7AA116"/>
<defs>
<clipPath id="clip0_23311_9671">
<rect width="40" height="40" fill="white"/>
</clipPath>
</defs>
</svg>
