<svg xmlns="http://www.w3.org/2000/svg" role="img" viewBox="-3.29 29.96 366.08 298.83"><path fill="#fff" d="M352.55889 97.39379s-7.05237-20.54541-17.3512-31.56921c-7.454-7.9787-15.59729-14.91431-25.21423-19.69989l.10132-.01581c-.28809-.12244-.57593-.24164-.86377-.36133-.79492-.38153-1.59766-.752-2.41638-1.10028-26.83484-11.41351-52.9552-9.76221-77.99671 5.45874a67.83649 67.83649 0 0 0-8.09851 5.89813c-7.58667 6.3244-43.62158 31.893-37.59314 44.45478 2.94409 6.13263 19.30249 21.19519 26.09424 21.17266 6.94714-.02331 34.9574-25.89068 43.06128-29.93719 16.57556-8.27472 36.14831-8.381 47.57422 5.95636 11.81323 14.82342 9.92383 36.18005-4.44483 48.18762-19.63232 16.408-38.66381 33.58618-59.081 49.00739-7.85645 5.934-15.63879 8.45062-22.98584 8.38092 15.83423-5.28308 14.62231-35.90308 4.967-52.73658-12.69067-22.126-31.54578-35.88977-56.58252-40.67071-25.19531-4.81122-47.92529 1.15527-67.81226 17.31018-17.11145 13.898-34.96264 26.9823-50.98876 42.12177-10.1233 9.56195-19.69825 19.83575-26.18335 31.1701C5.17876 220.64.05059 237.55883 7.441 261.65923c0 0 9.0437 22.20911 18.27161 31.56916 8.4967 8.61627 16.39 16.46313 27.47277 21.17736 26.83472 11.41352 52.95545 9.76215 77.99659-5.45874a67.83717 67.83717 0 0 0 8.09863-5.89819c7.58667-6.3244 43.62158-31.89288 37.593-44.45471-2.9441-6.13263-19.30249-21.19525-26.09424-21.17273-6.947.02325-34.95728 25.89075-43.061 29.93726-16.57568 8.27465-36.14819 8.381-47.57422-5.95643-11.81347-14.82336-9.9237-36.18005 4.44458-48.18756 19.63245-16.40808 38.66382-33.58624 59.08106-49.0075 9.90625-7.482 19.69433-9.533 28.64062-7.81189a44.74387 44.74387 0 0 0-7.34069 53.62927c12.68908 22.126 30.54113 34.81628 55.57751 39.598l1.54639.254c23.67505 3.52783 45.114-2.61969 63.98974-17.95313 17.11158-13.898 34.96289-26.9823 50.989-42.12176 10.12317-9.56189 19.69824-19.83576 26.18335-31.17011 11.56564-20.21845 16.69369-37.13734 9.30319-61.23774z"/></svg>