<svg width="90" height="90" viewBox="0 0 90 90" fill="none" xmlns="http://www.w3.org/2000/svg">
<path fill-rule="evenodd" clip-rule="evenodd" d="M41.6177 37.3387C61.012 37.3387 76.7342 29.7637 76.7342 20.4194C76.7342 11.0751 61.012 3.5 41.6177 3.5C22.2234 3.5 6.50122 11.0751 6.50122 20.4194C6.50122 29.7637 22.2234 37.3387 41.6177 37.3387ZM6.50122 69.5805V26.7221C10.0651 34.3014 24.4329 39.9705 41.6151 39.9705C58.8057 39.9705 73.1791 34.2959 76.7342 26.7111V52.5327C75.2474 51.1154 73.2445 50.2465 71.0423 50.2465C66.4581 50.2465 62.7378 54.0115 62.7378 58.6507V61.0583H61.0767C59.2496 61.0583 57.755 63.5253 57.755 65.3743V82.1828C57.755 83.0293 58.0682 83.8054 58.5833 84.3981C53.5542 85.7377 47.7708 86.5001 41.6177 86.5001C22.2234 86.5001 6.50122 78.9251 6.50122 69.5808V69.5805ZM79.2047 63.1863H80.6362C82.2107 63.1863 83.4988 64.4823 83.4988 66.0661V80.4634C83.4988 82.0472 82.2107 83.3432 80.6362 83.3432H63.4598C61.8852 83.3432 60.5972 82.0472 60.5972 80.4634V66.0661C60.5972 64.4823 61.8852 63.1863 63.4598 63.1863H64.8913V60.3069C64.8913 56.3332 68.0974 53.1083 72.048 53.1083C75.9986 53.1083 79.2047 56.3332 79.2047 60.3069V63.1863ZM69.1854 73.2647C69.1854 74.8485 70.4734 76.1441 72.048 76.1441C73.6226 76.1441 74.9106 74.8485 74.9106 73.2647C74.9106 71.6809 73.6226 70.3854 72.048 70.3854C70.4734 70.3854 69.1854 71.6809 69.1854 73.2647ZM67.6104 60.3069V63.1863H76.4856V60.3069C76.4856 57.8451 74.4955 55.8434 72.048 55.8434C69.6004 55.8434 67.6104 57.8451 67.6104 60.3069Z" fill="white"/>
</svg>
