<svg width="90" height="90" viewBox="0 0 90 90" fill="none" xmlns="http://www.w3.org/2000/svg">
<path fill-rule="evenodd" clip-rule="evenodd" d="M24.9362 2.70874H30.9399V4.30874V5.90874H26.5162V10.4345H24.9162H23.3162V4.32874C23.3162 3.43404 24.0415 2.70874 24.9362 2.70874ZM33.9417 4.30874V2.70874H45.9492V4.30874V5.90874H33.9417V4.30874ZM48.951 4.30874V2.70874H60.9585V4.30874V5.90874H48.951V4.30874ZM63.9603 4.30874V2.70874H75.9678V4.30874V5.90874H63.9603V4.30874ZM78.9697 4.30874V2.70874H84.9734C85.8681 2.70874 86.5934 3.43404 86.5934 4.32874V10.4345H84.9934H83.3934V5.90874H78.9697V4.30874ZM84.9934 13.4874H86.5934V25.699H84.9934H83.3934V13.4874H84.9934ZM84.9934 28.7519H86.5934V40.9634H84.9934H83.3934V28.7519H84.9934ZM84.9934 44.0163H86.5934V56.2279H84.9934H83.3934V44.0163H84.9934ZM84.9934 59.2808H86.5934V65.3865C86.5934 66.2812 85.8681 67.0065 84.9734 67.0065H78.9696V65.4065V63.8065H83.3934V59.2808H84.9934ZM20.9399 12.7087H14.9362C14.0415 12.7087 13.3162 13.434 13.3162 14.3287V20.4345H14.9162H16.5162V15.9087H20.9399V14.3087V12.7087ZM23.9417 12.7087V14.3087V15.9087H35.9492V14.3087V12.7087H23.9417ZM38.951 12.7087V14.3087V15.9087H50.9585V14.3087V12.7087H38.951ZM53.9603 12.7087V14.3087V15.9087H65.9678V14.3087V12.7087H53.9603ZM68.9697 12.7087V14.3087V15.9087H73.3934V20.4345H74.9934H76.5934V14.3287C76.5934 13.434 75.8681 12.7087 74.9734 12.7087H68.9697ZM76.5934 23.4874H74.9934H73.3934V35.699H74.9934H76.5934V23.4874ZM76.5934 38.7519H74.9934H73.3934V50.9634H74.9934H76.5934V38.7519ZM76.5934 54.0163H74.9934H73.3934V66.2279H74.9934H76.5934V54.0163ZM76.5934 69.2808H74.9934H73.3934V73.8065H68.9696V75.4065V77.0065H74.9734C75.8681 77.0065 76.5934 76.2812 76.5934 75.3865V69.2808ZM3.40625 22.9936H66.6834V49.0626C66.5354 49.0171 66.3782 48.9927 66.2152 48.9927H51.886V43.5889C51.886 42.1297 50.0866 41.4392 49.1104 42.5238L38.5154 54.2961C37.9704 54.9016 37.9704 55.8208 38.5154 56.4263L49.1105 68.1986C50.0866 69.2832 51.886 68.5927 51.886 67.1335V61.7298H66.2152C66.3782 61.7298 66.5354 61.7053 66.6834 61.6598V87.2914H3.40625V22.9936Z" fill="#326CE5"/>
</svg>
