<svg width="24" height="24" viewBox="0 0 24 24" fill="none" xmlns="http://www.w3.org/2000/svg">
<path d="M12 6.23047L7.28003 8.33047V11.4805C7.2947 12.5151 7.54773 13.5324 8.01947 14.4533C8.49121 15.3743 9.16896 16.174 10 16.7905C10.5948 17.2515 11.2743 17.5912 12 17.7905V6.23047Z" fill="#DDDDDD"/>
<path d="M12 17.7705C13.3641 17.3786 14.5632 16.5524 15.415 15.4172C16.2669 14.2819 16.7251 12.8998 16.72 11.4805V8.33047L12 6.23047V17.7705Z" fill="white"/>
<path d="M17.08 11.6201C17.08 11.8801 17.08 12.1301 17.02 12.3801H19.4V11.6201H17.08Z" fill="white"/>
<path d="M6.9201 11.6201C6.9201 11.8801 6.9201 12.1301 6.9801 12.3801H4.6001V11.6201H6.9201Z" fill="white"/>
<path d="M3.59001 12.7299C3.3964 12.7299 3.21072 12.653 3.07382 12.5161C2.93692 12.3792 2.86001 12.1935 2.86001 11.9999C2.86001 11.8063 2.93692 11.6206 3.07382 11.4837C3.21072 11.3468 3.3964 11.2699 3.59001 11.2699V10.6699C3.41535 10.6699 3.2424 10.7043 3.08104 10.7712C2.91968 10.838 2.77306 10.936 2.64956 11.0595C2.52606 11.183 2.42809 11.3296 2.36125 11.491C2.29441 11.6523 2.26001 11.8253 2.26001 11.9999C2.26001 12.1746 2.29441 12.3475 2.36125 12.5089C2.42809 12.6703 2.52606 12.8169 2.64956 12.9404C2.77306 13.0639 2.91968 13.1618 3.08104 13.2287C3.2424 13.2955 3.41535 13.3299 3.59001 13.3299V12.7299Z" fill="#CCCCCC"/>
<path d="M14.22 14.2704C14.2174 14.4172 14.1573 14.557 14.0525 14.6599C13.9478 14.7628 13.8068 14.8204 13.66 14.8204H10.34H10.24C10.1146 14.7992 10.0007 14.7344 9.9184 14.6374C9.83607 14.5405 9.79062 14.4176 9.79004 14.2904V11.5004C9.79004 11.4281 9.80427 11.3566 9.83191 11.2899C9.85955 11.2232 9.90006 11.1625 9.95113 11.1115C10.0022 11.0604 10.0628 11.0199 10.1296 10.9922C10.1963 10.9646 10.2678 10.9504 10.34 10.9504H10.62V10.3904C10.6496 10.0434 10.8082 9.72008 11.0647 9.48449C11.3212 9.24889 11.6568 9.11816 12.005 9.11816C12.3533 9.11816 12.6889 9.24889 12.9453 9.48449C13.2018 9.72008 13.3605 10.0434 13.39 10.3904V11.0004H13.66C13.7094 10.9889 13.7607 10.9889 13.81 11.0004C13.9061 11.0283 13.9924 11.0824 14.0595 11.1566C14.1266 11.2307 14.1718 11.322 14.19 11.4204C14.1958 11.4535 14.1958 11.4873 14.19 11.5204L14.22 14.2704ZM12 9.54037H11.9C11.71 9.5614 11.5326 9.64588 11.3966 9.78015C11.2605 9.91442 11.1736 10.0907 11.15 10.2804C11.15 10.2804 11.15 10.3504 11.15 10.3804V11.0004H12.87V10.4404C12.8686 10.3193 12.8413 10.2 12.79 10.0904C12.7306 9.92878 12.6229 9.78936 12.4816 9.69099C12.3403 9.59261 12.1722 9.54003 12 9.54037Z" fill="#4285F4"/>
<path d="M12.2499 11.5801L11.1499 13.0501H11.7799V14.1601L12.8499 12.6701H12.2499V11.5801Z" fill="white"/>
<path d="M3.59009 13.33C3.76512 13.3313 3.93866 13.2978 4.10063 13.2314C4.26259 13.1651 4.40974 13.0671 4.53351 12.9434C4.65728 12.8196 4.75519 12.6725 4.82156 12.5105C4.88793 12.3485 4.92142 12.175 4.92009 12C4.92142 11.8249 4.88793 11.6514 4.82156 11.4894C4.75519 11.3275 4.65728 11.1803 4.53351 11.0565C4.40974 10.9328 4.26259 10.8349 4.10063 10.7685C3.93866 10.7021 3.76512 10.6686 3.59009 10.67V11.27C3.7837 11.27 3.96937 11.3469 4.10628 11.4838C4.24318 11.6207 4.32009 11.8064 4.32009 12C4.32009 12.1936 4.24318 12.3792 4.10628 12.5161C3.96937 12.653 3.7837 12.73 3.59009 12.73V13.33Z" fill="#DDDDDD"/>
<path d="M20.4101 12.7299C20.2165 12.7299 20.0308 12.653 19.8939 12.5161C19.757 12.3792 19.6801 12.1935 19.6801 11.9999C19.6801 11.8063 19.757 11.6206 19.8939 11.4837C20.0308 11.3468 20.2165 11.2699 20.4101 11.2699V10.6699C20.0573 10.6699 19.719 10.81 19.4696 11.0595C19.2202 11.3089 19.0801 11.6472 19.0801 11.9999C19.0801 12.3527 19.2202 12.691 19.4696 12.9404C19.719 13.1898 20.0573 13.3299 20.4101 13.3299V12.7299Z" fill="#CCCCCC"/>
<path d="M20.4099 13.33C20.5858 13.3326 20.7604 13.3001 20.9235 13.2344C21.0867 13.1686 21.235 13.0709 21.3598 12.947C21.4847 12.8231 21.5835 12.6755 21.6505 12.5128C21.7175 12.3502 21.7513 12.1758 21.7499 12C21.7499 11.8245 21.7152 11.6507 21.6477 11.4887C21.5803 11.3267 21.4814 11.1796 21.3568 11.056C21.2323 10.9323 21.0845 10.8346 20.922 10.7683C20.7594 10.7021 20.5854 10.6686 20.4099 10.67V11.27C20.6035 11.27 20.7892 11.3469 20.9261 11.4838C21.063 11.6207 21.1399 11.8064 21.1399 12C21.1399 12.1936 21.063 12.3792 20.9261 12.5161C20.7892 12.653 20.6035 12.73 20.4099 12.73V13.33Z" fill="#DDDDDD"/>
</svg>
