<svg width="40" height="40" viewBox="0 0 40 40" xmlns="http://www.w3.org/2000/svg">  <g id="Icon-Architecture/32/Arch_Amazon-Corretto_32" stroke="none" stroke-width="1" fill="none" fill-rule="evenodd">  <g id="Icon-Service/32/Amazon-Corretto_32" transform="translate(6.000000, 6.000000)" fill="#FFFFFF"> <path d="M11,3.039 L13.031,3.039 L13.031,1 L11,1 L11,3.039 Z M10,3.539 L10,0.5 C10,0.224 10.224,0 10.5,0 L13.531,0 C13.808,0 14.031,0.224 14.031,0.5 L14.031,3.539 C14.031,3.815 13.808,4.039 13.531,4.039 L10.5,4.039 C10.224,4.039 10,3.815 10,3.539 L10,3.539 Z M17,6.039 L19.047,6.039 L19.047,4.007 L17,4.007 L17,6.039 Z M16,6.539 L16,3.507 C16,3.231 16.224,3.007 16.5,3.007 L19.547,3.007 C19.823,3.007 20.047,3.231 20.047,3.507 L20.047,6.539 C20.047,6.815 19.823,7.039 19.547,7.039 L16.5,7.039 C16.224,7.039 16,6.815 16,6.539 L16,6.539 Z M10,9.022 L12.029,9.022 L12.029,7.039 L10,7.039 L10,9.022 Z M9,9.522 L9,6.539 C9,6.263 9.224,6.039 9.5,6.039 L12.529,6.039 C12.806,6.039 13.029,6.263 13.029,6.539 L13.029,9.522 C13.029,9.798 12.806,10.022 12.529,10.022 L9.5,10.022 C9.224,10.022 9,9.798 9,9.522 L9,9.522 Z M12.53,17.039 L22.554,17.039 L22.554,16.039 L12.53,16.039 L12.53,17.039 Z M4.055,18.039 L5.581,18.039 C5.211,16.98 5,15.847 5,14.665 L5,11.057 L4.055,11.057 C2.342,11.057 1,12.585 1,14.536 C1,16.5 2.342,18.039 4.055,18.039 L4.055,18.039 Z M4.055,19.039 C1.781,19.039 0,17.061 0,14.536 C0,12.024 1.781,10.057 4.055,10.057 L5,10.057 L5,9.539 C5,9.263 5.224,9.039 5.5,9.039 L8,9.039 L8,10.039 L6,10.039 L6,14.665 C6,15.133 6.047,15.589 6.113,16.039 L11.025,16.039 L11.025,17.039 L6.32,17.039 C7.391,21.06 11.094,24.039 15.5,24.039 C20.772,24.039 25.062,19.834 25.062,14.665 L25.062,14.021 L8.164,14.021 L8.164,13.021 L25.062,13.021 L25.062,10.039 L14.033,10.039 L14.033,9.039 L25.562,9.039 C25.838,9.039 26.062,9.263 26.062,9.539 L26.062,14.665 C26.062,20.385 21.323,25.039 15.5,25.039 C11.293,25.039 7.667,22.577 5.992,19.039 L4.055,19.039 Z M28.033,23.763 C28.033,26.464 21.661,28.078 15.5,28.078 C9.563,28.078 3.555,26.596 3.555,23.763 C3.555,23.007 4.044,21.905 6.374,20.943 L6.755,21.868 C5.356,22.445 4.555,23.135 4.555,23.763 C4.555,25.364 8.953,27.078 15.5,27.078 C22.101,27.078 27.033,25.328 27.033,23.763 C27.033,23.136 26.231,22.445 24.834,21.867 L25.215,20.943 C27.544,21.905 28.033,23.007 28.033,23.763 L28.033,23.763 Z" id="Fill-4"></path> </g> </g></svg>