<svg width="40" height="40" viewBox="0 0 40 40" fill="none" xmlns="http://www.w3.org/2000/svg">
<g clip-path="url(#clip0_23295_3205)">
<path d="M40 0H0V40H40V0Z" fill="#ED7100" fill-opacity="0.12"/>
<path fill-rule="evenodd" clip-rule="evenodd" d="M21.7567 20.3382C22.4057 19.8652 22.8337 19.1682 22.9587 18.3752C23.0837 17.5812 22.8927 16.7862 22.4197 16.1362C21.9467 15.4862 21.2507 15.0592 20.4567 14.9342C20.2977 14.9092 20.1397 14.8972 19.9817 14.8972C19.3517 14.8972 18.7377 15.0952 18.2187 15.4732C17.5687 15.9452 17.1417 16.6432 17.0167 17.4362C16.8907 18.2302 17.0817 19.0252 17.5547 19.6742C18.0277 20.3242 18.7247 20.7512 19.5187 20.8772C20.3177 21.0022 21.1087 20.8102 21.7567 20.3382ZM22.7207 20.8132L25.0337 23.9952L24.2257 24.5832L21.9177 21.4092C21.3257 21.7372 20.6707 21.9142 19.9957 21.9142C19.7857 21.9142 19.5737 21.8982 19.3617 21.8642C18.3047 21.6972 17.3757 21.1292 16.7457 20.2622C16.1157 19.3972 15.8607 18.3382 16.0277 17.2802C16.1947 16.2232 16.7647 15.2942 17.6307 14.6642C18.4957 14.0342 19.5527 13.7772 20.6127 13.9462C21.6697 14.1132 22.5997 14.6822 23.2287 15.5482C23.8587 16.4142 24.1127 17.4732 23.9457 18.5302C23.8057 19.4202 23.3677 20.2072 22.7207 20.8132ZM8.99272 32.9882H30.9927V30.9882H8.99272V32.9882ZM31.9927 30.4882V33.4882C31.9927 33.7652 31.7697 33.9882 31.4927 33.9882H8.49272C8.21672 33.9882 7.99272 33.7652 7.99272 33.4882V30.4882C7.99272 30.2122 8.21672 29.9882 8.49272 29.9882H9.99272V18.9882C9.99272 18.4372 10.4417 17.9882 10.9927 17.9882H14.9927V18.9882H10.9927V29.9882H28.9927V18.9882H24.9927V17.9882H28.9927C29.5447 17.9882 29.9927 18.4372 29.9927 18.9882V29.9882H31.4927C31.7697 29.9882 31.9927 30.2122 31.9927 30.4882ZM33.9927 18.8552L33.9907 19.1442C33.9907 19.2112 33.9787 21.0632 32.7277 22.6382L31.9447 22.0162C32.9727 20.7222 32.9907 19.1492 32.9907 19.1322L32.9927 18.8552C32.9937 15.5822 30.7607 14.8142 29.0807 14.5212L28.8457 14.4522C28.5977 14.3742 28.4507 14.1182 28.5087 13.8642C28.8057 12.5582 28.4217 11.5652 27.4547 11.1392C26.4047 10.6772 25.0517 11.0292 24.4337 11.9212C24.3257 12.0772 24.1407 12.1592 23.9547 12.1322C23.7687 12.1072 23.6117 11.9792 23.5507 11.8012C23.1507 10.6552 22.5717 9.69217 21.8297 8.93717C20.9207 8.01217 18.4297 6.02517 14.9057 7.53617C12.6657 8.49917 11.2747 10.4162 11.2747 12.5402L11.3227 14.0982C11.3297 14.3322 11.1747 14.5392 10.9487 14.5982L10.8237 14.6302C9.17072 15.0572 7.29672 15.5412 7.00572 18.6492C6.99172 18.7912 7.00072 19.1312 7.00772 19.2852L6.00772 19.3252C6.00072 19.1402 5.99372 18.7282 6.00972 18.5562C6.34872 14.9422 8.64572 14.1702 10.3117 13.7302L10.2747 12.5552C10.2747 10.0092 11.8987 7.74017 14.5117 6.61717C17.3477 5.40017 20.3497 6.00517 22.5427 8.23617C23.2187 8.92317 23.7747 9.75717 24.1987 10.7202C25.1827 9.92017 26.6457 9.68917 27.8577 10.2242C29.1517 10.7942 29.7717 12.0362 29.5697 13.5992C32.4857 14.1852 33.9937 15.9572 33.9927 18.8552Z" fill="#ED7100"/>
</g>
<rect x="0.5" y="0.5" width="39" height="39" stroke="#ED7100"/>
<defs>
<clipPath id="clip0_23295_3205">
<rect width="40" height="40" fill="white"/>
</clipPath>
</defs>
</svg>
