<svg xmlns="http://www.w3.org/2000/svg" role="img" viewBox="-1.61 2.89 434.72 428.97"><path fill="#FFF" d="M216.412 11.432c114.637.024 208.732 92.935 208.588 205.963-.146 114.745-93.856 206.367-210.985 206.285C99.504 423.599 6.92 330.592 7 215.719c.079-112.328 94.369-204.311 209.412-204.287zm-63.368 72.341c2.628 12.861.075 24.855-3.811 36.653-2.691 8.17-6.411 16.036-8.632 24.317-3.66 13.644-7.813 27.369-9.336 41.324-2.19 20.067 5.743 37.741 19.317 55.316l-62.396-13.06c.109 1.96-.007 2.702.208 3.331 5.914 17.272 16.322 31.824 27.988 45.541 1.234 1.451 4.045 2.197 6.126 2.201 62.214.114 124.428.108 186.642.028 1.93-.002 4.505-.365 5.689-1.603 13.335-13.936 23.531-29.806 29.906-49.802l-66.055 12.859c4.357-8.489 9.331-15.954 12.19-24.156 9.78-28.058 5.726-55.186-8.311-80.771-11.266-20.532-21.657-40.975-16.037-65.72-11.896 11.679-16.465 26.548-19.364 41.871-2.856 15.092-4.539 30.406-6.75 45.718-.314-.462-.722-.804-.785-1.201-.256-1.607-.494-3.226-.581-4.848-1.343-25.081-6.271-49.246-16.671-72.326-6.122-13.586-12.873-27.476-6.562-43.682-4.271 2.239-8.13 4.464-10.897 7.641-8.258 9.482-11.673 20.871-12.551 33.341-.751 10.653-1.779 21.357-3.766 31.833-2.088 11.008-5.399 21.799-12.838 31.917-3.009-21.616-3.342-42.991-22.723-56.722zm160.411 214.562H118.323v33.699h195.132v-33.699zm-156.441 51.108c-.161 28.061 28.59 48.967 64.123 47.45 29.447-1.257 55.509-24.289 53.268-47.45H157.014z"/></svg>