<svg width="40" height="40" viewBox="0 0 40 40" fill="none" xmlns="http://www.w3.org/2000/svg">
<g clip-path="url(#clip0_23295_3008)">
<path d="M40 0H0V40H40V0Z" fill="#E7157B" fill-opacity="0.12"/>
<path fill-rule="evenodd" clip-rule="evenodd" d="M6 22H18V21H6V22ZM11 19H19V18H11V19ZM22.424 19.751C22.672 19.691 22.835 19.455 22.803 19.202C22.794 19.13 22.789 19.056 22.789 18.98C22.789 18.326 23.289 17.594 23.903 17.349C24.193 17.232 24.461 17.187 24.703 17.187C25.392 17.187 25.877 17.558 26.089 17.758C26.321 17.979 26.504 18.262 26.63 18.602C26.693 18.771 26.844 18.893 27.022 18.92C27.201 18.947 27.381 18.877 27.492 18.734C27.626 18.563 27.84 18.49 28.042 18.553C28.288 18.628 28.444 18.883 28.473 19.157C28.43 19.429 28.615 19.685 28.887 19.729C29.307 19.797 30.012 20.036 30.012 20.868C30.012 21.851 29.071 21.985 28.924 22H22.752C22.093 22 21.532 21.517 21.5 20.854C21.5 20.126 22.002 19.852 22.424 19.751ZM22.751 23H28.962C29.671 22.945 31.012 22.429 31.012 20.868C31.012 19.708 30.242 19.073 29.416 18.826C29.273 18.213 28.886 17.765 28.333 17.597C27.978 17.488 27.606 17.517 27.283 17.662C27.14 17.427 26.971 17.216 26.776 17.032C25.889 16.191 24.675 15.962 23.532 16.42C22.562 16.808 21.823 17.868 21.79 18.907C20.975 19.245 20.5 19.948 20.5 20.854L20.504 20.983C20.561 22.109 21.548 22.999 22.751 23ZM23 9H24V8H23V9ZM25 9H29V8H25V9ZM31.5 33H20.5C19.771 33 19 32.229 19 31.5V30H33V31.5C33 32.229 32.229 33 31.5 33ZM19 10V8.5C19 7.771 19.771 7 20.5 7H31.5C32.229 7 33 7.771 33 8.5V10H19ZM31.5 6H20.5C19.215 6 18 7.215 18 8.5V17H19V11H33V29H19V23H18V31.5C18 32.785 19.215 34 20.5 34H31.5C32.785 34 34 32.785 34 31.5V8.5C34 7.215 32.785 6 31.5 6Z" fill="#E7157B"/>
</g>
<rect x="0.5" y="0.5" width="39" height="39" stroke="#E7157B"/>
<defs>
<clipPath id="clip0_23295_3008">
<rect width="40" height="40" fill="white"/>
</clipPath>
</defs>
</svg>
