<svg width="40" height="40" viewBox="0 0 40 40" fill="none" xmlns="http://www.w3.org/2000/svg">
<g clip-path="url(#clip0_23311_9580)">
<path d="M40 0H0V40H40V0Z" fill="#DD344C" fill-opacity="0.12"/>
<path fill-rule="evenodd" clip-rule="evenodd" d="M31.5 20C30.673 20 30 19.327 30 18.5C30 17.673 30.673 17 31.5 17C32.327 17 33 17.673 33 18.5C33 19.327 32.327 20 31.5 20ZM34 18.5C34 17.122 32.879 16 31.5 16C31.466 16 31.434 16.009 31.399 16.01C31.107 15.221 30.751 14.462 30.314 13.763L29.467 14.292C29.848 14.903 30.159 15.567 30.421 16.255C29.584 16.659 29 17.509 29 18.5C29 19.753 29.93 20.784 31.135 20.963C31.001 23.155 30.254 25.229 28.943 26.995L29.746 27.59C31.197 25.636 32.012 23.336 32.137 20.908C33.206 20.624 34 19.657 34 18.5ZM27.5 13C26.673 13 26 12.327 26 11.5C26 10.673 26.673 10 27.5 10C28.327 10 29 10.673 29 11.5C29 12.327 28.327 13 27.5 13ZM30 11.5C30 10.122 28.879 9 27.5 9C26.121 9 25 10.122 25 11.5C25 12.878 26.121 14 27.5 14C28.879 14 30 12.878 30 11.5ZM15.5 8C16.327 8 17 8.673 17 9.5C17 10.327 16.327 11 15.5 11C14.673 11 14 10.327 14 9.5C14 8.673 14.673 8 15.5 8ZM15.5 12C16.879 12 18 10.878 18 9.5C18 8.122 16.879 7 15.5 7C14.121 7 13 8.122 13 9.5C13 10.878 14.121 12 15.5 12ZM19.023 8.935L18.953 7.937C21.099 7.79 23.276 8.201 25.223 9.156L24.781 10.053C22.995 9.177 20.995 8.796 19.023 8.935ZM8.5 19C7.673 19 7 18.327 7 17.5C7 16.673 7.673 16 8.5 16C9.327 16 10 16.673 10 17.5C10 18.327 9.327 19 8.5 19ZM12.703 11.419L12.078 10.639C10.611 11.815 9.457 13.325 8.662 15.017C8.607 15.013 8.556 15 8.5 15C7.121 15 6 16.122 6 17.5C6 18.516 6.611 19.388 7.482 19.779C7.477 19.938 7.466 20.095 7.466 20.255C7.466 23.828 9.016 27.225 11.718 29.576L12.374 28.821C9.891 26.661 8.466 23.538 8.466 20.255C8.466 20.168 8.473 20.084 8.476 19.998C8.483 19.998 8.491 20 8.5 20C9.879 20 11 18.878 11 17.5C11 16.534 10.443 15.703 9.639 15.287C10.365 13.796 11.4 12.464 12.703 11.419ZM25.759 27.831C24.948 30.957 21.052 31.775 19.849 31.956C19.551 30.95 18.876 27.995 20.194 25.157C20.277 24.98 20.365 24.804 20.462 24.63C21.212 23.29 21.817 22.038 21.62 20.296C21.524 19.456 21.006 18.319 20.497 17.372C21.905 18.537 23.574 20.759 22.968 24.534C22.936 24.738 23.032 24.941 23.211 25.045C23.391 25.149 23.615 25.132 23.775 25.002C23.824 24.963 24.825 24.135 25.263 22.109C25.866 22.883 26.6 24.569 25.759 27.831ZM14.802 24.612C14.848 24.535 14.894 24.458 14.945 24.378C15.972 22.769 15.6 20.526 15.271 19.294C16.205 19.799 17.053 21.066 17.354 21.626C17.449 21.8 17.633 21.908 17.834 21.887C18.031 21.872 18.201 21.741 18.267 21.555C19.202 18.895 18.608 16.955 17.929 15.781C18.194 15.906 18.434 16.057 18.658 16.226C19.206 17.064 20.493 19.237 20.626 20.409C20.791 21.857 20.277 22.913 19.588 24.145C19.48 24.339 19.383 24.534 19.289 24.732C18.02 27.464 18.389 30.22 18.733 31.658C17.741 31.239 16.818 30.748 16.112 30.256C14.298 28.995 13.721 26.519 14.802 24.612ZM25.154 20.677C25.006 20.596 24.83 20.594 24.682 20.672C24.533 20.75 24.434 20.897 24.417 21.064C24.354 21.673 24.233 22.182 24.092 22.601C23.902 17.642 19.903 15.704 19.257 15.422C18.542 14.887 17.685 14.533 16.634 14.349C16.415 14.312 16.19 14.426 16.096 14.631C16 14.835 16.055 15.08 16.228 15.226C16.319 15.302 18.262 16.982 17.614 20.177C16.956 19.271 15.84 18.081 14.523 18.081C14.358 18.081 14.204 18.163 14.111 18.299C14.018 18.435 13.998 18.608 14.058 18.762C14.069 18.794 15.286 21.983 14.104 23.837C14.047 23.925 13.994 24.015 13.929 24.125C12.598 26.47 13.307 29.524 15.541 31.077C16.124 31.483 17.39 32.268 19.322 32.963C19.326 32.965 19.329 32.966 19.333 32.967C19.336 32.968 19.339 32.97 19.342 32.971L19.343 32.969C19.396 32.988 19.453 33 19.511 33C19.525 33 19.541 33 19.557 32.998C20.175 32.941 25.627 32.324 26.728 28.082C28.188 22.412 25.278 20.745 25.154 20.677Z" fill="#DD344C"/>
</g>
<rect x="0.5" y="0.5" width="39" height="39" stroke="#DD344C"/>
<defs>
<clipPath id="clip0_23311_9580">
<rect width="40" height="40" fill="white"/>
</clipPath>
</defs>
</svg>
