<svg width="40" height="40" viewBox="0 0 40 40" fill="none" xmlns="http://www.w3.org/2000/svg">
<g clip-path="url(#clip0_23295_2989)">
<path d="M40 0H0V40H40V0Z" fill="#E7157B" fill-opacity="0.12"/>
<path fill-rule="evenodd" clip-rule="evenodd" d="M14.3422 22.3494L15.8467 20.9061C15.9428 20.8142 15.9969 20.6872 15.9999 20.5553C16.0019 20.4224 15.9518 20.2934 15.8597 20.1985L14.3552 18.6432L13.635 19.3379L14.3112 20.0375H11.9913V21.037H14.2651L13.6481 21.6287L14.3422 22.3494ZM26.3579 22.3534L27.9075 20.9001C28.0067 20.8082 28.0627 20.6792 28.0647 20.5443C28.0668 20.4094 28.0137 20.2784 27.9185 20.1835L26.369 18.6373L25.6608 19.3439L26.3549 20.0375H24.0111V21.037H26.2988L25.6718 21.6247L26.3579 22.3534ZM17.5875 23.3609C18.3388 23.057 19.1621 22.8941 20.0045 22.8941C20.8469 22.8941 21.6702 23.057 22.4215 23.3609C21.7524 21.5898 21.7524 19.3899 22.4215 17.6188C20.919 18.2265 19.09 18.2265 17.5875 17.6188C18.2566 19.3899 18.2566 21.5898 17.5875 23.3609ZM15.6443 25.3409C15.5462 25.2439 15.4971 25.116 15.4971 24.988C15.4971 24.8601 15.5462 24.7322 15.6443 24.6342C17.5845 22.6982 17.5845 18.2824 15.6443 16.3454C15.5462 16.2485 15.4971 16.1205 15.4971 15.9926C15.4971 15.8647 15.5462 15.7367 15.6443 15.6388C15.8397 15.4439 16.1572 15.4439 16.3525 15.6388C17.274 16.5583 18.6052 17.086 20.0045 17.086C21.4048 17.086 22.736 16.5583 23.6575 15.6388C23.8528 15.4439 24.1704 15.4439 24.3657 15.6388C24.4628 15.7367 24.5119 15.8647 24.5119 15.9926C24.5119 16.1205 24.4628 16.2485 24.3657 16.3454C22.4245 18.2824 22.4245 22.6982 24.3657 24.6342C24.4628 24.7322 24.5119 24.8601 24.5119 24.988C24.5119 25.116 24.4628 25.2439 24.3657 25.3409C24.2675 25.4388 24.1393 25.4878 24.0111 25.4878C23.8829 25.4878 23.7547 25.4388 23.6575 25.3409C22.736 24.4213 21.4048 23.8936 20.0045 23.8936C18.6052 23.8936 17.274 24.4213 16.3525 25.3409C16.1572 25.5358 15.8397 25.5358 15.6443 25.3409ZM32.5421 19.4359C32.2366 19.132 31.8369 18.9801 31.4363 18.9801C31.0366 18.9801 30.637 19.132 30.3315 19.4359C29.7215 20.0445 29.7215 21.034 30.3315 21.6417C30.9415 22.2504 31.9321 22.2504 32.5421 21.6417C33.1511 21.034 33.1511 20.0445 32.5421 19.4359ZM33.2503 22.3494C32.7504 22.8481 32.0934 23.098 31.4363 23.098C30.7802 23.098 30.1231 22.8481 29.6233 22.3494C28.6237 21.3509 28.6237 19.7277 29.6233 18.7292C30.623 17.7317 32.2506 17.7317 33.2503 18.7292C34.2499 19.7277 34.2499 21.3509 33.2503 22.3494ZM9.66853 19.4468C9.36302 19.143 8.96337 18.9911 8.56271 18.9911C8.16305 18.9911 7.7634 19.143 7.4579 19.4468C6.84889 20.0555 6.84889 21.045 7.4579 21.6527C8.0679 22.2614 9.05852 22.2614 9.66853 21.6527C10.2775 21.045 10.2775 20.0555 9.66853 19.4468ZM10.3767 22.3594C9.87687 22.8581 9.21979 23.108 8.56271 23.108C7.90663 23.108 7.24955 22.8581 6.74973 22.3594C5.75009 21.3619 5.75009 19.7387 6.74973 18.7402C7.74937 17.7427 9.37705 17.7427 10.3767 18.7402C11.3763 19.7387 11.3763 21.3619 10.3767 22.3594ZM27.4337 28.9101C25.4364 30.9031 22.7821 32.0005 19.9574 32.0005C17.1328 32.0005 14.4784 30.9031 12.4821 28.9101C11.166 27.5977 10.4077 26.4693 9.94498 25.136L8.99843 25.4628C9.50726 26.9291 10.3627 28.2104 11.774 29.6167C13.9586 31.7986 16.8664 33 19.9574 33C23.0495 33 25.9563 31.7986 28.1419 29.6167C29.2828 28.4783 30.4206 27.1869 31.0116 25.4608L30.064 25.138C29.5392 26.6702 28.4894 27.8566 27.4337 28.9101ZM9.94498 15.8597L8.99843 15.5318C9.51027 14.0646 10.3657 12.7832 11.776 11.3759C16.2864 6.87519 23.6265 6.87419 28.1379 11.3759C29.2186 12.4534 30.4036 13.7897 31.0116 15.5318L30.064 15.8597C29.5241 14.3094 28.4293 13.0801 27.4297 12.0826C25.4344 10.0916 22.7811 8.99612 19.9574 8.99612C17.1338 8.99612 14.4804 10.0916 12.4852 12.0826C11.187 13.3779 10.4037 14.5423 9.94498 15.8597Z" fill="#E7157B"/>
</g>
<rect x="0.5" y="0.5" width="39" height="39" stroke="#E7157B"/>
<defs>
<clipPath id="clip0_23295_2989">
<rect width="40" height="40" fill="white"/>
</clipPath>
</defs>
</svg>
