<svg width="150" height="151" viewBox="0 0 150 151" fill="none" xmlns="http://www.w3.org/2000/svg">
<path d="M44.3564 32.5184C44.3564 29.02 43.1188 26.0332 40.6436 23.558C38.1683 21.0828 35.1815 19.8451 31.6832 19.8451C28.1848 19.8451 25.198 21.0828 22.7228 23.558C20.2475 26.0332 19.0099 29.02 19.0099 32.5184C19.0099 36.0167 20.2475 39.0035 22.7228 41.4788C25.198 43.954 28.1848 45.1917 31.6832 45.1917C35.1815 45.1917 38.1683 43.954 40.6436 41.4788C43.1188 39.0035 44.3564 36.0167 44.3564 32.5184ZM150 89.5481C150 93.0464 148.779 96.0167 146.337 98.459L97.7228 147.172C95.1485 149.614 92.1452 150.835 88.7129 150.835C85.2145 150.835 82.2442 149.614 79.802 147.172L9.0099 76.2808C6.50165 73.8385 4.37294 70.5052 2.62376 66.2808C0.874588 62.0563 0 58.195 0 54.6966V13.5085C0 10.0761 1.25413 7.10586 3.76238 4.59761C6.27063 2.08936 9.24092 0.83522 12.6733 0.83522H53.8614C57.3597 0.83522 61.2211 1.70981 65.4455 3.45898C69.67 5.20816 73.0363 7.33687 75.5445 9.84512L146.337 80.5382C148.779 83.1124 150 86.1157 150 89.5481Z" fill="url(#paint0_linear_23369_10079)"/>
<path fill-rule="evenodd" clip-rule="evenodd" d="M51.5238 100.713C50.8568 100.713 50.1899 100.18 49.7897 99.646L44.0541 93.2435C43.654 92.8433 43.3872 92.1764 43.3872 91.5095C43.3872 90.1756 44.4543 89.2419 45.7882 89.2419H47.7889V55.3619C47.7889 52.294 50.3233 49.7596 53.5245 49.7596H97.4086C100.476 49.7596 103.144 52.294 103.144 55.4952V89.3753H105.145H105.278C106.212 89.3753 107.012 89.9088 107.413 90.8425L107.427 90.8801C107.694 91.6805 107.546 92.7099 107.012 93.3769L101.677 99.9128C101.143 100.446 100.476 100.713 99.8095 100.713H51.5238ZM98.609 95.6444L100.076 93.777H50.9902L52.5908 95.6444H98.609ZM98.2089 89.1085V55.3619C98.2089 54.8283 97.8087 54.2948 97.2752 54.2948H53.5245C52.991 54.2948 52.5908 54.8283 52.5908 55.3619V89.1085H98.2089Z" fill="#FBFBFB"/>
<path opacity="0.8" fill-rule="evenodd" clip-rule="evenodd" d="M59.7269 82.1725C59.1718 82.1725 58.6394 81.952 58.2468 81.5594L57.9195 81.2321C57.4968 80.8093 57.2593 80.236 57.2593 79.6382V79.6382C57.2593 79.0403 57.4968 78.467 57.9195 78.0442L68.1969 67.7668C68.5971 67.3666 69.264 67.0999 69.931 67.0999C70.4645 67.0999 71.1314 67.3666 71.5316 67.7668L76.4669 72.7021L86.0707 63.0983H79.8789C79.275 63.0983 78.6958 62.8584 78.2688 62.4314V62.4314C77.8417 62.0043 77.6018 61.4252 77.6018 60.8212V60.5734C77.6018 59.9695 77.8417 59.3903 78.2688 58.9633V58.9633C78.6958 58.5363 79.275 58.2964 79.8789 58.2964H91.8063C93.1401 58.2964 94.2072 59.3635 94.2072 60.6973V72.6247C94.2072 73.2286 93.9673 73.8078 93.5403 74.2348V74.2348C93.1133 74.6619 92.5341 74.9018 91.9302 74.9018H91.6824C91.0784 74.9018 90.4993 74.6619 90.0722 74.2348V74.2348C89.6452 73.8078 89.4053 73.2286 89.4053 72.6247V66.4329L78.2009 77.7707C77.8007 78.1709 77.1338 78.4377 76.4669 78.4377C75.9333 78.4377 75.2664 78.1709 74.8662 77.7707L69.931 72.8355L61.207 81.5594C60.8145 81.952 60.2821 82.1725 59.7269 82.1725V82.1725Z" fill="#FBFBFB"/>
<defs>
<linearGradient id="paint0_linear_23369_10079" x1="75" y1="150.835" x2="75" y2="0.83522" gradientUnits="userSpaceOnUse">
<stop stop-color="#00B39F"/>
<stop offset="1" stop-color="#00D3A9" stop-opacity="0.6"/>
</linearGradient>
</defs>
</svg>
