<svg width="150" height="150" viewBox="0 0 150 150" fill="none" xmlns="http://www.w3.org/2000/svg">
<path d="M44.3564 31.6832C44.3564 28.1848 43.1188 25.198 40.6436 22.7228C38.1683 20.2475 35.1815 19.0099 31.6832 19.0099C28.1848 19.0099 25.198 20.2475 22.7228 22.7228C20.2475 25.198 19.0099 28.1848 19.0099 31.6832C19.0099 35.1815 20.2475 38.1683 22.7228 40.6436C25.198 43.1188 28.1848 44.3564 31.6832 44.3564C35.1815 44.3564 38.1683 43.1188 40.6436 40.6436C43.1188 38.1683 44.3564 35.1815 44.3564 31.6832ZM150 88.7129C150 92.2112 148.779 95.1815 146.337 97.6238L97.7228 146.337C95.1485 148.779 92.1452 150 88.7129 150C85.2145 150 82.2442 148.779 79.802 146.337L9.0099 75.4456C6.50165 73.0033 4.37294 69.67 2.62376 65.4456C0.874588 61.2211 0 57.3597 0 53.8614V12.6733C0 9.24094 1.25413 6.27066 3.76238 3.76241C6.27063 1.25415 9.24092 1.52588e-05 12.6733 1.52588e-05H53.8614C57.3597 1.52588e-05 61.2211 0.874603 65.4455 2.62378C69.67 4.37296 73.0363 6.50168 75.5445 9.00992L146.337 79.703C148.779 82.2772 150 85.2805 150 88.7129Z" fill="url(#paint0_linear_10995_33998)"/>
<g clip-path="url(#clip0_10995_33998)">
<path d="M83.7265 51.2714C83.422 50.1447 82.6894 49.1824 81.6857 48.5906C81.1858 48.3007 80.6338 48.1128 80.0612 48.0375C79.4887 47.9623 78.9069 48.0012 78.3494 48.152C77.7919 48.3029 77.2697 48.5627 76.8127 48.9166C76.3557 49.2704 75.9729 49.7113 75.6864 50.2139L75.0173 51.395L74.3493 50.2139C73.7604 49.2047 72.7988 48.4686 71.6726 48.1648C70.5464 47.861 69.3461 48.0139 68.3316 48.5906C67.3233 49.1796 66.5888 50.1449 66.2886 51.2754C65.9883 52.4058 66.1469 53.6095 66.7295 54.6231L69.9497 60.2146L58.0559 80.8163H49.3984C48.2319 80.8163 47.1131 81.2808 46.2883 82.1077C45.4634 82.9346 45 84.0561 45 85.2254C45 86.3948 45.4634 87.5163 46.2883 88.3432C47.1131 89.1701 48.2319 89.6346 49.3984 89.6346H82.8121L77.7273 80.8163H68.2083L83.2866 54.6256C83.583 54.1256 83.7749 53.5705 83.8506 52.9938C83.9262 52.4172 83.884 51.8312 83.7265 51.2714Z" fill="white"/>
<path opacity="0.8" d="M100.6 80.8162H91.9442L82.1085 63.7416L77.0237 72.5612L92.2954 99.0719C92.5808 99.5766 92.9649 100.018 93.4246 100.371C93.8843 100.723 94.4103 100.979 94.9709 101.123C95.3432 101.227 95.728 101.28 96.1146 101.281C96.8878 101.282 97.6471 101.075 98.3132 100.682C99.32 100.096 100.054 99.1335 100.354 98.0059C100.655 96.8784 100.497 95.6775 99.9153 94.6664L97.029 89.6333H100.603C101.769 89.6333 102.888 89.1688 103.713 88.3419C104.538 87.515 105.001 86.3936 105.001 85.2242C105.001 84.0548 104.538 82.9333 103.713 82.1064C102.888 81.2795 101.769 80.815 100.603 80.815L100.6 80.8162Z" fill="white"/>
<path d="M50.9477 93.1629L50.0851 94.6615C49.7959 95.1626 49.6084 95.7161 49.5333 96.2902C49.4582 96.8642 49.497 97.4475 49.6475 98.0065C49.798 98.5654 50.0572 99.0891 50.4102 99.5473C50.7631 100.006 51.203 100.389 51.7044 100.677C52.3717 101.065 53.1313 101.266 53.903 101.259C54.6766 101.259 55.4367 101.056 56.1072 100.669C56.7777 100.282 57.3351 99.7253 57.7234 99.0546L61.1014 93.1629H50.9477Z" fill="white"/>
</g>
<defs>
<linearGradient id="paint0_linear_10995_33998" x1="75" y1="150" x2="75" y2="1.52588e-05" gradientUnits="userSpaceOnUse">
<stop stop-color="#00B39F"/>
<stop offset="1" stop-color="#00D3A9" stop-opacity="0.6"/>
</linearGradient>
<clipPath id="clip0_10995_33998">
<rect width="60" height="53.2759" fill="white" transform="translate(45 48)"/>
</clipPath>
</defs>
</svg>
