<svg width="150" height="151" viewBox="0 0 150 151" fill="none" xmlns="http://www.w3.org/2000/svg">
<path d="M44.3564 32.5184C44.3564 29.02 43.1188 26.0332 40.6436 23.558C38.1683 21.0828 35.1815 19.8451 31.6832 19.8451C28.1848 19.8451 25.198 21.0828 22.7228 23.558C20.2475 26.0332 19.0099 29.02 19.0099 32.5184C19.0099 36.0167 20.2475 39.0035 22.7228 41.4788C25.198 43.954 28.1848 45.1917 31.6832 45.1917C35.1815 45.1917 38.1683 43.954 40.6436 41.4788C43.1188 39.0035 44.3564 36.0167 44.3564 32.5184ZM150 89.5481C150 93.0464 148.779 96.0167 146.337 98.459L97.7228 147.172C95.1485 149.614 92.1452 150.835 88.7129 150.835C85.2145 150.835 82.2442 149.614 79.802 147.172L9.0099 76.2808C6.50165 73.8385 4.37294 70.5052 2.62376 66.2808C0.874588 62.0563 0 58.195 0 54.6966V13.5085C0 10.0761 1.25413 7.10586 3.76238 4.59761C6.27063 2.08936 9.24092 0.83522 12.6733 0.83522H53.8614C57.3597 0.83522 61.2211 1.70981 65.4455 3.45898C69.67 5.20816 73.0363 7.33687 75.5445 9.84512L146.337 80.5382C148.779 83.1124 150 86.1157 150 89.5481Z" fill="url(#paint0_linear_25088_17696)"/>
<path d="M76.7 72.46C62.46 72.46 50.46 67.31 47 60.35V98.79C47 107.19 60.32 114 76.7 114C93.08 114 106.4 107.17 106.4 98.77V60.35C102.94 67.31 90.94 72.46 76.7 72.46Z" fill="#F6F8F8"/>
<path d="M76.7 41C60.32 41 47 47.83 47 56.23C47 64.63 60.32 71.46 76.7 71.46C93.08 71.46 106.4 64.63 106.4 56.23C106.4 47.83 93.08 41 76.7 41Z" fill="#F6F8F8"/>
<defs>
<linearGradient id="paint0_linear_25088_17696" x1="75" y1="150.835" x2="75" y2="0.83522" gradientUnits="userSpaceOnUse">
<stop stop-color="#00B39F"/>
<stop offset="1" stop-color="#00D3A9" stop-opacity="0.6"/>
</linearGradient>
</defs>
</svg>
