<svg width="150" height="150" viewBox="0 0 150 150" fill="none" xmlns="http://www.w3.org/2000/svg">
<path d="M44.3564 31.6832C44.3564 28.1848 43.1188 25.198 40.6436 22.7228C38.1683 20.2475 35.1815 19.0099 31.6832 19.0099C28.1848 19.0099 25.198 20.2475 22.7228 22.7228C20.2475 25.198 19.0099 28.1848 19.0099 31.6832C19.0099 35.1815 20.2475 38.1683 22.7228 40.6436C25.198 43.1188 28.1848 44.3564 31.6832 44.3564C35.1815 44.3564 38.1683 43.1188 40.6436 40.6436C43.1188 38.1683 44.3564 35.1815 44.3564 31.6832ZM150 88.7129C150 92.2112 148.779 95.1815 146.337 97.6238L97.7228 146.337C95.1485 148.779 92.1452 150 88.7129 150C85.2145 150 82.2442 148.779 79.802 146.337L9.0099 75.4456C6.50165 73.0033 4.37294 69.67 2.62376 65.4456C0.874588 61.2211 0 57.3597 0 53.8614V12.6733C0 9.24094 1.25413 6.27066 3.76238 3.76241C6.27063 1.25415 9.24092 1.52588e-05 12.6733 1.52588e-05H53.8614C57.3597 1.52588e-05 61.2211 0.874603 65.4455 2.62378C69.67 4.37296 73.0363 6.50168 75.5445 9.00992L146.337 79.703C148.779 82.2772 150 85.2805 150 88.7129Z" fill="url(#paint0_linear_10995_34009)"/>
<path d="M81.0995 77.7662L84.2487 79.3385C85.1925 79.8814 85.6037 81.0326 85.2299 82.0621C84.3982 84.327 82.7629 86.4048 81.249 88.2205C80.5575 89.0534 79.3614 89.2593 78.4176 88.7165L75.6983 87.1442C74.2031 88.4264 72.465 89.4465 70.568 90.111V93.2557C70.568 94.3414 69.7924 95.2773 68.7271 95.4645C66.4283 95.8576 64.0174 95.8763 61.6345 95.4645C60.5598 95.2773 59.7655 94.3508 59.7655 93.2557V90.111C57.8685 89.4372 56.1304 88.4264 54.6353 87.1442L51.916 88.7072C50.9815 89.25 49.776 89.0441 49.0845 88.2111C47.5707 86.3954 45.9727 84.3177 45.141 82.0621C44.7673 81.0419 45.1784 79.8907 46.1222 79.3385L49.234 77.7662C48.8696 75.8101 48.8696 73.7979 49.234 71.8324L46.1222 70.2507C45.1784 69.7079 44.7579 68.5567 45.141 67.5365C45.9727 65.2716 47.5707 63.1938 49.0845 61.3781C49.776 60.5452 50.9721 60.3393 51.916 60.8821L54.6353 62.4545C56.1304 61.1722 57.8685 60.1521 59.7655 59.4876V56.3335C59.7655 55.2572 60.5318 54.3213 61.5971 54.1341C63.8959 53.741 66.3162 53.7223 68.6991 54.1247C69.7737 54.3119 70.568 55.2385 70.568 56.3335V59.4782C72.465 60.1521 74.2031 61.1629 75.6983 62.4451L78.4176 60.8728C79.352 60.3299 80.5575 60.5358 81.249 61.3688C82.7629 63.1845 84.3515 65.2622 85.1831 67.5272C85.5569 68.5473 85.1925 69.6985 84.2487 70.2507L81.0995 71.8231C81.4639 73.7885 81.4639 75.8007 81.0995 77.7662ZM70.1101 79.741C75.6422 72.5344 67.4282 64.3076 60.2328 69.8483C54.7007 77.0549 62.9147 85.2817 70.1101 79.741Z" fill="#FBFBFB"/>
<path opacity="0.8" d="M93.0541 68.8656L92.2878 70.204C92.0075 70.7001 91.4094 70.906 90.8768 70.7094C89.7741 70.2976 88.7649 69.708 87.8771 68.9686C87.4473 68.6129 87.3351 67.9859 87.6155 67.4992L88.3817 66.1608C87.737 65.4121 87.2324 64.5417 86.8959 63.5964H85.3541C84.7934 63.5964 84.3075 63.1939 84.214 62.6324C84.0271 61.5093 84.0178 60.33 84.214 59.1601C84.3075 58.5986 84.7934 58.1867 85.3541 58.1867H86.8959C87.2324 57.2415 87.737 56.371 88.3817 55.6223L87.6155 54.2839C87.3351 53.7973 87.4379 53.1702 87.8771 52.8145C88.7649 52.0752 89.7835 51.4855 90.8768 51.0737C91.4094 50.8772 92.0075 51.0831 92.2878 51.5791L93.0541 52.9175C94.0353 52.7397 95.0352 52.7397 96.0164 52.9175L96.7826 51.5791C97.063 51.0831 97.661 50.8772 98.1937 51.0737C99.2964 51.4855 100.306 52.0752 101.193 52.8145C101.623 53.1702 101.735 53.7973 101.455 54.2839L100.689 55.6223C101.334 56.371 101.838 57.2415 102.175 58.1867H103.716C104.277 58.1867 104.763 58.5892 104.856 59.1507C105.043 60.2739 105.053 61.4531 104.856 62.623C104.763 63.1846 104.277 63.5964 103.716 63.5964H102.175C101.838 64.5417 101.334 65.4121 100.689 66.1608L101.455 67.4992C101.735 67.9859 101.633 68.6129 101.193 68.9686C100.306 69.708 99.287 70.2976 98.1937 70.7094C97.661 70.906 97.063 70.7001 96.7826 70.204L96.0164 68.8656C95.0445 69.0435 94.0353 69.0435 93.0541 68.8656ZM92.0729 63.3624C95.6706 66.1327 99.773 62.024 97.0069 58.4207C93.4092 55.641 89.3069 59.7591 92.0729 63.3624ZM93.0541 96.8404L92.2878 98.1788C92.0075 98.6748 91.4094 98.8808 90.8768 98.6842C89.7741 98.2724 88.7649 97.6828 87.8771 96.9434C87.4473 96.5877 87.3351 95.9607 87.6155 95.474L88.3817 94.1356C87.737 93.3869 87.2324 92.5165 86.8959 91.5712H85.3541C84.7934 91.5712 84.3075 91.1687 84.214 90.6072C84.0271 89.4841 84.0178 88.3048 84.214 87.1349C84.3075 86.5733 84.7934 86.1615 85.3541 86.1615H86.8959C87.2324 85.2162 87.737 84.3458 88.3817 83.5971L87.6155 82.2587C87.3351 81.772 87.4379 81.145 87.8771 80.7893C88.7649 80.0499 89.7835 79.4603 90.8768 79.0485C91.4094 78.852 92.0075 79.0579 92.2878 79.5539L93.0541 80.8923C94.0353 80.7145 95.0352 80.7145 96.0164 80.8923L96.7826 79.5539C97.063 79.0579 97.661 78.852 98.1937 79.0485C99.2964 79.4603 100.306 80.0499 101.193 80.7893C101.623 81.145 101.735 81.772 101.455 82.2587L100.689 83.5971C101.334 84.3458 101.838 85.2162 102.175 86.1615H103.716C104.277 86.1615 104.763 86.564 104.856 87.1255C105.043 88.2486 105.053 89.4279 104.856 90.5978C104.763 91.1594 104.277 91.5712 103.716 91.5712H102.175C101.838 92.5165 101.334 93.3869 100.689 94.1356L101.455 95.474C101.735 95.9607 101.633 96.5877 101.193 96.9434C100.306 97.6828 99.287 98.2724 98.1937 98.6842C97.661 98.8808 97.063 98.6748 96.7826 98.1788L96.0164 96.8404C95.0445 97.0183 94.0353 97.0183 93.0541 96.8404ZM92.0729 91.3278C95.6706 94.0982 99.773 89.9895 97.0069 86.3862C93.4092 83.6158 89.3069 87.7245 92.0729 91.3278Z" fill="#FBFBFB"/>
<defs>
<linearGradient id="paint0_linear_10995_34009" x1="75" y1="150" x2="75" y2="1.52588e-05" gradientUnits="userSpaceOnUse">
<stop stop-color="#00B39F"/>
<stop offset="1" stop-color="#00D3A9" stop-opacity="0.6"/>
</linearGradient>
</defs>
</svg>
