<svg width="150" height="151" viewBox="0 0 150 151" fill="none" xmlns="http://www.w3.org/2000/svg">
<path d="M44.3564 32.6007C44.3564 29.1024 43.1188 26.1156 40.6436 23.6403C38.1683 21.1651 35.1815 19.9275 31.6832 19.9275C28.1848 19.9275 25.198 21.1651 22.7228 23.6403C20.2475 26.1156 19.0099 29.1024 19.0099 32.6007C19.0099 36.0991 20.2475 39.0859 22.7228 41.5611C25.198 44.0364 28.1848 45.274 31.6832 45.274C35.1815 45.274 38.1683 44.0364 40.6436 41.5611C43.1188 39.0859 44.3564 36.0991 44.3564 32.6007ZM150 89.6304C150 93.1288 148.779 96.0991 146.337 98.5413L97.7228 147.254C95.1485 149.696 92.1452 150.918 88.7129 150.918C85.2145 150.918 82.2442 149.696 79.802 147.254L9.0099 76.3631C6.50165 73.9209 4.37294 70.5875 2.62376 66.3631C0.874588 62.1387 0 58.2773 0 54.7789V13.5908C0 10.1585 1.25413 7.1882 3.76238 4.67995C6.27063 2.1717 9.24092 0.917557 12.6733 0.917557H53.8614C57.3597 0.917557 61.2211 1.79215 65.4455 3.54132C69.67 5.2905 73.0363 7.41921 75.5445 9.92746L146.337 80.6205C148.779 83.1948 150 86.1981 150 89.6304Z" fill="url(#paint0_linear_11016_34090)"/>
<path d="M100.657 80.4956L105.338 82.8328C106.741 83.6397 107.352 85.3508 106.796 86.8811C105.56 90.2478 103.129 93.3362 100.879 96.0352C99.8514 97.2733 98.0735 97.5794 96.6706 96.7725L92.6288 94.4353C90.4064 96.3412 87.823 97.8576 85.0034 98.8453V103.52C85.0034 105.134 83.8505 106.525 82.2671 106.803C78.8502 107.387 75.2667 107.415 71.7249 106.803C70.1276 106.525 68.9469 105.147 68.9469 103.52V98.8453C66.1273 97.8437 63.5439 96.3412 61.3215 94.4353L57.2796 96.7586C55.8907 97.5655 54.0989 97.2594 53.0711 96.0212C50.821 93.3223 48.4458 90.2339 47.2096 86.8811C46.6541 85.3647 47.2652 83.6536 48.6681 82.8328L53.2933 80.4956C52.7516 77.588 52.7516 74.597 53.2933 71.6755L48.6681 69.3244C47.2652 68.5175 46.6402 66.8063 47.2096 65.2899C48.4458 61.9232 50.821 58.8348 53.0711 56.1359C54.0989 54.8977 55.8768 54.5917 57.2796 55.3986L61.3215 57.7358C63.5439 55.8298 66.1273 54.3134 68.9469 53.3257V48.6374C68.9469 47.0375 70.0859 45.6463 71.6693 45.3681C75.0862 44.7838 78.6836 44.756 82.2254 45.3542C83.8227 45.6324 85.0034 47.0097 85.0034 48.6374V53.3118C87.823 54.3134 90.4064 55.8159 92.6288 57.7219L96.6706 55.3847C98.0596 54.5778 99.8514 54.8838 100.879 56.122C103.129 58.8209 105.491 61.9093 106.727 65.276C107.282 66.7924 106.741 68.5036 105.338 69.3244L100.657 71.6615C101.199 74.583 101.199 77.5741 100.657 80.4956Z" fill="#FBFBFB"/>
<circle cx="76.9996" cy="76.0159" r="17.5057" fill="url(#paint1_linear_11016_34090)"/>
<path opacity="0.6" d="M77.5239 66.7618V75.1229L84.7756 70.928L77.5239 66.7618Z" fill="#FBFBFB"/>
<path opacity="0.8" d="M92.4492 84.275C93.6911 81.9611 94.3927 79.3961 94.5013 76.7725L86.9358 81.0955L92.4492 84.275Z" fill="#FBFBFB"/>
<path opacity="0.6" d="M86.3816 80.2117L93.6771 76.0421L86.3816 71.8506V80.2117Z" fill="#FBFBFB"/>
<path opacity="0.8" d="M85.3379 70.0475V61.7572L78.1116 65.8964L85.3379 70.0475Z" fill="#FBFBFB"/>
<path opacity="0.8" d="M85.3382 80.1746V71.8068L78.095 75.9983L85.3382 80.1746Z" fill="#FBFBFB"/>
<path opacity="0.6" d="M85.2903 60.5815C82.898 59.2964 80.2387 58.5872 77.5239 58.5102V65.0311L85.2903 60.5815Z" fill="#FBFBFB"/>
<path opacity="0.6" d="M91.9034 66.8022C90.5063 64.5503 88.6188 62.6425 86.3816 61.2208V69.9918L91.9034 66.8022Z" fill="#FBFBFB"/>
<path opacity="0.8" d="M94.5054 75.3151C94.4037 72.6527 93.6925 70.0491 92.4263 67.7045L86.8572 70.9245L94.5054 75.3151Z" fill="#FBFBFB"/>
<path d="M76.2369 67.5914L73.615 67.7359L74.1931 78.2234L83.6731 83.2235L84.8656 81.0013L76.7427 76.768L76.2369 67.5914Z" fill="#FBFBFB"/>
<defs>
<linearGradient id="paint0_linear_11016_34090" x1="75" y1="150.918" x2="75" y2="0.917557" gradientUnits="userSpaceOnUse">
<stop stop-color="#00B39F"/>
<stop offset="1" stop-color="#00D3A9" stop-opacity="0.6"/>
</linearGradient>
<linearGradient id="paint1_linear_11016_34090" x1="76.9996" y1="58.5102" x2="76.9996" y2="93.5217" gradientUnits="userSpaceOnUse">
<stop stop-color="#00B39F"/>
<stop offset="1" stop-color="#00D3A9" stop-opacity="0.6"/>
</linearGradient>
</defs>
</svg>
