<svg width="150" height="151" viewBox="0 0 150 151" fill="none" xmlns="http://www.w3.org/2000/svg">
<path d="M44.3564 32.5184C44.3564 29.02 43.1188 26.0332 40.6436 23.558C38.1683 21.0828 35.1815 19.8451 31.6832 19.8451C28.1848 19.8451 25.198 21.0828 22.7228 23.558C20.2475 26.0332 19.0099 29.02 19.0099 32.5184C19.0099 36.0167 20.2475 39.0035 22.7228 41.4788C25.198 43.954 28.1848 45.1917 31.6832 45.1917C35.1815 45.1917 38.1683 43.954 40.6436 41.4788C43.1188 39.0035 44.3564 36.0167 44.3564 32.5184ZM150 89.5481C150 93.0464 148.779 96.0167 146.337 98.459L97.7228 147.172C95.1485 149.614 92.1452 150.835 88.7129 150.835C85.2145 150.835 82.2442 149.614 79.802 147.172L9.0099 76.2808C6.50165 73.8385 4.37294 70.5052 2.62376 66.2808C0.874588 62.0563 0 58.195 0 54.6966V13.5085C0 10.0761 1.25413 7.10586 3.76238 4.59761C6.27063 2.08936 9.24092 0.83522 12.6733 0.83522H53.8614C57.3597 0.83522 61.2211 1.70981 65.4455 3.45898C69.67 5.20816 73.0363 7.33687 75.5445 9.84512L146.337 80.5382C148.779 83.1124 150 86.1157 150 89.5481Z" fill="url(#paint0_linear_11071_34241)"/>
<path d="M55.1203 53.845L51.842 57.0519L59.0543 66.9322C59.3579 67.3483 59.7588 67.6873 60.2236 67.921C60.6884 68.1548 61.2035 68.2764 61.7261 68.2759H61.9556C62.3866 68.2755 62.8135 68.3583 63.2118 68.5196C63.61 68.6808 63.9719 68.9173 64.2766 69.2155L73.0461 77.7938L64.4668 86.3048C62.9994 85.8822 61.4515 85.8 59.946 86.0646C58.4404 86.3292 57.0186 86.9333 55.7934 87.829C54.5681 88.7248 53.573 89.8875 52.8872 91.2249C52.2013 92.5624 51.8435 94.0378 51.842 95.5341C51.844 96.9128 52.1489 98.2751 52.7361 99.5285C53.3232 100.782 54.179 101.897 55.2453 102.799C56.3116 103.701 57.5635 104.367 58.9163 104.754C60.2691 105.141 61.6912 105.24 63.0861 105.042C64.481 104.844 65.8162 104.356 67.0013 103.609C68.1864 102.863 69.1935 101.876 69.9547 100.716C70.7158 99.5552 71.213 98.2483 71.4126 96.8835C71.6123 95.5186 71.5097 94.1277 71.1119 92.8051L79.8125 84.4127L82.9859 87.517L81.986 90.448C81.7938 91.013 81.7663 91.6191 81.9064 92.1985C82.0465 92.7779 82.3488 93.3078 82.7793 93.7286L93.4994 104.215C93.8031 104.514 94.1642 104.751 94.562 104.913C94.9598 105.075 95.3863 105.158 95.8171 105.158C96.2479 105.158 96.6745 105.075 97.0722 104.913C97.47 104.751 97.8311 104.514 98.1349 104.215L103.334 99.129C103.64 98.8318 103.882 98.4786 104.048 98.0895C104.213 97.7004 104.298 97.2831 104.298 96.8617C104.298 96.4403 104.213 96.0231 104.048 95.634C103.882 95.2449 103.64 94.8916 103.334 94.5945L92.6142 84.1081C92.184 83.6869 91.6423 83.3913 91.05 83.2542C90.4577 83.1171 89.8381 83.1441 89.2605 83.332L86.2642 84.3101L83.117 81.2315L91.9028 72.7558C93.3603 73.1364 94.8877 73.1845 96.3672 72.8963C97.8467 72.6082 99.2387 71.9915 100.436 71.0939C101.633 70.1962 102.604 69.0416 103.273 67.719C103.942 66.3964 104.292 64.9412 104.295 63.4656C104.295 62.6029 104.18 61.7659 103.96 60.9739L96.9448 67.8397L91.1816 66.6724L89.9883 61.038L97.0071 54.1721C95.3375 53.733 93.579 53.7322 91.9089 54.1697C90.2388 54.6073 88.7162 55.4679 87.4944 56.6646C86.2727 57.8613 85.3951 59.3519 84.95 60.9862C84.505 62.6205 84.5082 64.3407 84.9594 65.9733L76.3047 74.5613L67.5549 66.0086C66.9401 65.4073 66.5946 64.5918 66.5944 63.7414V63.5137C66.5944 63.003 66.4698 62.4997 66.2309 62.0457C65.992 61.5917 65.6457 61.2 65.2208 60.9033L55.1203 53.845ZM86.7428 87.9852C86.8951 87.8358 87.0759 87.7174 87.2751 87.6365C87.4742 87.5557 87.6877 87.5141 87.9033 87.5141C88.1189 87.5141 88.3324 87.5557 88.5315 87.6365C88.7307 87.7174 88.9116 87.8358 89.0638 87.9852L98.6168 97.3331C98.9154 97.6355 99.0806 98.0406 99.0768 98.461C99.0731 98.8814 98.9007 99.2836 98.5968 99.5808C98.2929 99.8781 97.8818 100.047 97.452 100.05C97.0222 100.054 96.6082 99.8924 96.299 99.6004L86.7428 90.2556C86.5901 90.1067 86.469 89.9297 86.3864 89.7349C86.3038 89.5401 86.2612 89.3313 86.2612 89.1204C86.2612 88.9095 86.3038 88.7006 86.3864 88.5058C86.469 88.311 86.5901 88.1341 86.7428 87.9852ZM61.6769 89.1204L63.221 89.8964L64.9552 89.9798L65.8961 91.4069L67.3549 92.3272L67.4402 94.0237L68.2335 95.5341L67.4402 97.0445L67.3549 98.7409L65.8961 99.6613L64.9552 101.088L63.221 101.172L61.6769 101.948L60.1329 101.172L58.3986 101.088L57.4578 99.6613L55.9989 98.7409L55.9137 97.0445L55.1203 95.5341L55.9137 94.0237L55.9989 92.3272L57.4578 91.4069L58.3986 89.9798L60.1329 89.8964L61.6769 89.1204Z" fill="#FBFBFB"/>
<defs>
<linearGradient id="paint0_linear_11071_34241" x1="75" y1="150.835" x2="75" y2="0.83522" gradientUnits="userSpaceOnUse">
<stop stop-color="#00B39F"/>
<stop offset="1" stop-color="#00D3A9" stop-opacity="0.6"/>
</linearGradient>
</defs>
</svg>
