<svg width="131" height="117" viewBox="0 0 131 117" fill="none" xmlns="http://www.w3.org/2000/svg">
<g clip-path="url(#clip0_14139_18254)">
<path d="M65.5622 117C47.1918 117 28.8214 117 10.451 117C5.57333 117 1.89924 114.432 0.505627 110.067C0.188896 108.976 -0.00114299 107.756 -0.00114299 106.601C-0.00114299 88.1135 -0.0644892 69.562 -0.00114299 51.0747C-0.00114299 49.5341 0.252242 47.9935 0.695666 46.5171C5.31994 32.138 9.94422 17.8232 14.5685 3.50838C15.4553 0.81231 15.8354 0.555542 18.686 0.555542C49.599 0.555542 80.5119 0.555542 111.488 0.555542C114.275 0.555542 114.656 0.81231 115.479 3.37999C119.85 16.4752 124.157 29.6346 128.528 42.7297C128.908 43.8852 129.542 44.9765 129.922 46.1319C130.365 47.6725 130.999 49.2131 130.999 50.7538C131.062 69.4978 131.062 88.3061 130.999 107.05C130.999 112.571 126.565 116.936 120.99 116.936C102.493 117 84.0593 117 65.5622 117ZM84.3127 40.6114C97.1086 40.6114 109.841 40.6114 122.701 40.6114C122.574 40.0337 122.51 39.7127 122.384 39.3276C118.773 28.4149 115.162 17.5664 111.615 6.65379C111.235 5.43414 110.475 5.30576 109.461 5.30576C79.8785 5.30576 50.2324 5.30576 20.6497 5.30576C19.3828 5.30576 18.8127 5.7551 18.4326 6.97475C15.0119 17.759 11.5279 28.5433 8.04383 39.2634C7.91714 39.7127 7.79044 40.1621 7.66375 40.6756C20.7764 40.6756 33.7624 40.6756 46.685 40.6756C47.3185 45.6184 48.7121 46.9022 53.5898 46.9022C61.5714 46.9022 69.553 46.9022 77.4713 46.9022C82.2223 46.9664 83.8059 45.6184 84.3127 40.6114ZM47.5719 81.8227C48.0153 80.2179 48.4587 78.7415 48.8388 77.2651C49.599 74.3122 48.142 71.552 45.4815 70.7817C42.6942 70.0114 40.097 71.4878 39.2102 74.4406C38.1333 78.0354 37.0564 81.6943 36.0429 85.3533C35.0293 89.0122 37.3098 92.0293 41.0472 92.0293C57.8973 92.0293 74.6841 92.0293 91.5342 92.0293C94.8282 92.0293 97.2987 89.0764 96.4118 85.8668C95.2082 81.6943 93.8146 77.6502 92.3577 73.5419C91.5975 71.4236 89.6338 70.4607 87.4167 70.5891C85.3896 70.7175 83.5525 72.0655 83.1091 74.0555C82.8557 75.2751 83.0458 76.559 83.2358 77.8428C83.4892 79.1908 83.996 80.4105 84.5027 81.8227C72.0235 81.8227 59.9244 81.8227 47.5719 81.8227Z" fill="#00B39F"/>
<path d="M65.0566 30.6616C80.133 30.6616 95.2728 30.6616 110.349 30.6616C111.046 30.6616 111.996 30.6616 112.44 31.0467C113.01 31.6245 113.58 32.6515 113.516 33.4218C113.453 34.7057 112.44 35.3476 111.236 35.3476C108.766 35.4118 106.295 35.3476 103.824 35.3476C75.8255 35.3476 47.8898 35.3476 19.8907 35.3476C19.574 35.3476 19.2573 35.3476 18.9406 35.3476C17.2302 35.2834 16.1533 34.3847 16.1533 32.9083C16.1533 31.4961 17.2302 30.5332 19.0039 30.5332C26.6054 30.5332 34.207 30.5332 41.8085 30.5332C49.5368 30.6616 57.265 30.6616 65.0566 30.6616Z" fill="#3C494E"/>
<path d="M64.8662 20.6477C78.9291 20.6477 93.0553 20.6477 107.118 20.6477C107.752 20.6477 108.385 20.6477 109.019 20.7119C110.285 20.9045 111.046 21.6106 111.109 22.9586C111.172 24.3067 110.412 25.1412 109.082 25.4621C108.575 25.5905 108.005 25.5263 107.498 25.5263C78.9291 25.5263 50.4233 25.5263 21.8541 25.5263C21.2207 25.5263 20.3972 25.5905 20.0171 25.2695C19.3836 24.6276 18.6235 23.6005 18.6868 22.8944C18.7502 22.1241 19.7637 21.418 20.5239 20.8403C20.9039 20.5835 21.6641 20.7119 22.2342 20.7119C36.4871 20.6477 50.6767 20.6477 64.8662 20.6477Z" fill="#3C494E"/>
<path d="M64.8665 15.4481C51.8172 15.4481 38.8312 15.4481 25.7819 15.4481C25.3385 15.4481 24.8317 15.5123 24.3883 15.3839C23.1214 15.1271 22.2979 14.2926 22.2979 12.9446C22.2979 11.5966 23.1214 10.8263 24.4516 10.5695C24.8317 10.5053 25.2751 10.5053 25.7185 10.5053C51.8172 10.5053 77.9158 10.5053 104.014 10.5053C104.458 10.5053 104.838 10.4411 105.281 10.5695C106.548 10.8263 107.372 11.5966 107.435 12.9446C107.499 14.1001 106.485 15.2555 105.155 15.4481C104.711 15.5123 104.331 15.4481 103.888 15.4481C90.9652 15.4481 77.9158 15.4481 64.8665 15.4481Z" fill="#3C494E"/>
</g>
<defs>
<clipPath id="clip0_14139_18254">
<rect width="131" height="116.444" fill="white" transform="translate(0 0.555542)"/>
</clipPath>
</defs>
</svg>
