<svg width="52" height="52" viewBox="0 0 52 52" fill="none" xmlns="http://www.w3.org/2000/svg">
<path d="M44.6523 52H7.34803C6.41193 52 5.65234 51.2404 5.65234 50.3043V1.69569C5.65234 0.759586 6.41193 0 7.34803 0H31.0871C31.5365 0 31.9681 0.178852 32.286 0.496844L45.8512 14.062C46.1692 14.3799 46.348 14.8115 46.348 15.2609V50.3043C46.348 51.2404 45.5884 52 44.6523 52Z" fill="#00B39F"/>
<path d="M32.2858 0.496844C31.9679 0.178852 31.5363 0 31.087 0H26V52H44.6522C45.5883 52 46.3478 51.2404 46.3478 50.3043V15.2609C46.3478 14.8116 46.169 14.3799 45.851 14.062L32.2858 0.496844Z" fill="#00B39F"/>
<path d="M45.8516 14.0622L32.2861 0.496844C31.9681 0.17875 31.5366 0 31.0868 0H29.3916L29.3917 15.2609C29.3917 16.1973 30.1509 16.9566 31.0874 16.9566H46.3482V15.2609C46.3482 14.8113 46.1695 14.3801 45.8516 14.0622Z" fill="#00D3A9"/>
<path d="M27.6956 41.8261H14.1303C13.1942 41.8261 12.4346 41.0665 12.4346 40.1304C12.4346 39.1943 13.1942 38.4347 14.1303 38.4347H27.6955C28.6316 38.4347 29.3911 39.1943 29.3911 40.1304C29.3911 41.0666 28.6317 41.8261 27.6956 41.8261Z" fill="white"/>
<path d="M37.8695 35.0434H14.1303C13.1942 35.0434 12.4346 34.2838 12.4346 33.3477C12.4346 32.4116 13.1942 31.652 14.1303 31.652H37.8695C38.8056 31.652 39.5652 32.4116 39.5652 33.3477C39.5651 34.2839 38.8056 35.0434 37.8695 35.0434Z" fill="white"/>
<path d="M37.8695 28.2609H14.1303C13.1942 28.2609 12.4346 27.5013 12.4346 26.5652C12.4346 25.6291 13.1942 24.8695 14.1303 24.8695H37.8695C38.8056 24.8695 39.5652 25.6291 39.5652 26.5652C39.5651 27.5013 38.8056 28.2609 37.8695 28.2609Z" fill="white"/>
<path opacity="0.5" d="M27.6957 38.4348H26V41.8261H27.6957C28.6318 41.8261 29.3914 41.0665 29.3914 40.1304C29.3913 39.1943 28.6318 38.4348 27.6957 38.4348Z" fill="#C8FFF4"/>
<path opacity="0.5" d="M37.8696 31.6522H26V35.0434H37.8696C38.8057 35.0434 39.5653 34.2838 39.5653 33.3477C39.5652 32.4117 38.8057 31.6522 37.8696 31.6522Z" fill="#C8FFF4"/>
<path opacity="0.5" d="M37.8696 24.8696H26V28.2609H37.8696C38.8057 28.2609 39.5653 27.5013 39.5653 26.5652C39.5652 25.6291 38.8057 24.8696 37.8696 24.8696Z" fill="#C8FFF4"/>
</svg>
