<svg xmlns="http://www.w3.org/2000/svg" xmlns:xlink="http://www.w3.org/1999/xlink" width="700" zoomAndPan="magnify" viewBox="0 0 525 89.249998" height="119" preserveAspectRatio="xMidYMid meet" version="1.0"><defs><clipPath id="c9d51b3a9b"><path d="M 449 4.125 L 472 4.125 L 472 36 L 449 36 Z M 449 4.125 " clip-rule="nonzero"/></clipPath><clipPath id="0e4a4f312c"><path d="M 450 4.125 L 455 4.125 L 455 11 L 450 11 Z M 450 4.125 " clip-rule="nonzero"/></clipPath><clipPath id="dd211148dc"><path d="M 440.183594 48 L 450 48 L 450 56 L 440.183594 56 Z M 440.183594 48 " clip-rule="nonzero"/></clipPath><clipPath id="6596f15c8d"><path d="M 462 75 L 471 75 L 471 84.453125 L 462 84.453125 Z M 462 75 " clip-rule="nonzero"/></clipPath><clipPath id="80df4c5de3"><path d="M 30 4.125 L 48 4.125 L 48 20 L 30 20 Z M 30 4.125 " clip-rule="nonzero"/></clipPath><clipPath id="c469d77098"><path d="M 49 4.125 L 68 4.125 L 68 20 L 49 20 Z M 49 4.125 " clip-rule="nonzero"/></clipPath><clipPath id="508fe1dc9b"><path d="M 8.824219 45 L 27 45 L 27 64 L 8.824219 64 Z M 8.824219 45 " clip-rule="nonzero"/></clipPath><clipPath id="02b737e8ed"><path d="M 8.824219 25 L 27 25 L 27 43 L 8.824219 43 Z M 8.824219 25 " clip-rule="nonzero"/></clipPath><clipPath id="5f1dee786a"><path d="M 30 69 L 48 69 L 48 84.453125 L 30 84.453125 Z M 30 69 " clip-rule="nonzero"/></clipPath><clipPath id="4fac16eaba"><path d="M 49 69 L 68 69 L 68 84.453125 L 49 84.453125 Z M 49 69 " clip-rule="nonzero"/></clipPath><clipPath id="972f04d9f0"><path d="M 399 27 L 440.199219 27 L 440.199219 69 L 399 69 Z M 399 27 " clip-rule="nonzero"/></clipPath></defs><path fill="#f9a50d" d="M 500.914062 54.367188 C 500.914062 70.730469 489.621094 82.46875 472.511719 82.46875 C 455.398438 82.46875 441.527344 72.261719 441.527344 55.894531 C 441.527344 39.53125 455.398438 26.265625 472.511719 26.265625 C 489.621094 26.265625 500.914062 38 500.914062 54.367188 " fill-opacity="1" fill-rule="nonzero"/><path fill="#fac711" d="M 495.117188 49.472656 C 495.117188 61.464844 486.84375 70.066406 474.304688 70.066406 C 461.765625 70.066406 451.601562 62.585938 451.601562 50.59375 C 451.601562 38.601562 461.765625 28.882812 474.304688 28.882812 C 486.84375 28.882812 495.117188 37.484375 495.117188 49.472656 " fill-opacity="1" fill-rule="nonzero"/><path fill="#9a79c3" d="M 504.488281 47.527344 C 499.460938 53.53125 503.441406 55.574219 505.535156 55.496094 C 507.632812 55.421875 507.210938 49.785156 510.355469 50.398438 C 513.4375 51 518.117188 68.527344 479.386719 61.699219 C 479.410156 61.933594 479.425781 62.167969 479.425781 62.402344 C 479.425781 62.789062 479.390625 63.164062 479.332031 63.53125 C 483.152344 64.46875 507.035156 69.824219 514.546875 59.410156 C 522.714844 48.074219 509.515625 41.523438 504.488281 47.527344 " fill-opacity="1" fill-rule="nonzero"/><path fill="#1d212b" d="M 463.601562 52.679688 C 463.4375 50.878906 463.433594 49.066406 463.613281 47.269531 C 463.796875 45.441406 464.203125 42.964844 465.824219 41.835938 C 469.503906 39.273438 470.105469 48.019531 470.472656 49.828125 C 470.597656 50.4375 471.535156 50.28125 471.535156 49.683594 C 471.535156 46.808594 470.378906 38.78125 465.875 40.546875 C 463.769531 41.371094 463.023438 43.929688 462.707031 45.949219 C 462.359375 48.160156 462.390625 50.453125 462.621094 52.679688 C 462.683594 53.300781 463.660156 53.3125 463.601562 52.679688 " fill-opacity="1" fill-rule="nonzero"/><path fill="#1d212b" d="M 479.878906 48.738281 C 479.503906 47.003906 479.605469 45.054688 480.320312 43.421875 C 481.039062 41.765625 482.886719 40.589844 484.550781 41.738281 C 486.019531 42.75 486.597656 45.042969 487.011719 46.660156 C 487.238281 47.554688 487.40625 48.460938 487.550781 49.371094 C 487.667969 50.125 487.636719 51.007812 487.914062 51.722656 C 488.074219 52.132812 488.773438 52.253906 488.871094 51.722656 C 489.03125 50.871094 488.785156 49.910156 488.65625 49.066406 C 488.472656 47.839844 488.214844 46.625 487.867188 45.429688 C 487.324219 43.5625 486.425781 41.265625 484.53125 40.398438 C 482.574219 39.503906 480.515625 40.75 479.546875 42.464844 C 478.488281 44.328125 478.261719 46.972656 478.964844 48.992188 C 479.164062 49.570312 480.011719 49.339844 479.878906 48.738281 " fill-opacity="1" fill-rule="nonzero"/><path fill="#1d212b" d="M 476.921875 70.488281 C 478.5625 70.242188 480.375 69.632812 481.445312 68.285156 C 482.238281 67.28125 482.589844 65.992188 482.066406 64.777344 C 481.6875 63.894531 480.804688 63.414062 479.886719 63.308594 C 478.714844 63.179688 477.523438 63.792969 476.621094 64.476562 C 476.902344 64.839844 477.183594 65.207031 477.464844 65.570312 C 477.925781 64.996094 478.5 64.511719 479.011719 63.984375 C 479.621094 63.359375 480.257812 62.667969 480.613281 61.859375 C 480.976562 61.035156 480.996094 60.042969 480.253906 59.410156 C 479.898438 59.109375 479.445312 58.949219 478.976562 58.980469 C 478.503906 59.011719 478.078125 59.199219 477.652344 59.394531 C 477.0625 59.664062 476.53125 60.046875 476.023438 60.441406 C 475.636719 60.742188 475.027344 61.160156 475.011719 61.703125 C 475.0625 61.582031 475.109375 61.460938 475.160156 61.339844 C 475.15625 61.347656 475.148438 61.351562 475.144531 61.355469 C 474.675781 61.824219 475.398438 62.546875 475.867188 62.082031 C 475.875 62.078125 475.878906 62.070312 475.882812 62.066406 C 475.765625 62.117188 475.644531 62.164062 475.523438 62.214844 C 475.640625 62.214844 475.699219 62.191406 475.804688 62.144531 C 475.84375 62.128906 475.9375 62.089844 475.765625 62.160156 C 475.910156 62.097656 476.007812 62.050781 476.132812 61.953125 C 476.15625 61.933594 476.183594 61.910156 476.210938 61.890625 C 476.070312 62.003906 476.175781 61.917969 476.203125 61.894531 C 476.3125 61.8125 476.421875 61.738281 476.523438 61.652344 C 476.59375 61.59375 476.660156 61.539062 476.730469 61.484375 C 476.855469 61.386719 476.625 61.566406 476.75 61.46875 C 476.789062 61.4375 476.828125 61.410156 476.867188 61.382812 C 477.042969 61.25 477.222656 61.125 477.40625 61.007812 C 477.582031 60.894531 477.757812 60.789062 477.941406 60.691406 C 478.03125 60.644531 478.121094 60.597656 478.214844 60.554688 C 478.257812 60.53125 478.304688 60.511719 478.347656 60.492188 C 478.191406 60.5625 478.390625 60.484375 478.421875 60.476562 C 478.511719 60.445312 478.601562 60.421875 478.691406 60.402344 C 478.734375 60.390625 478.777344 60.382812 478.820312 60.375 C 478.976562 60.34375 478.660156 60.390625 478.8125 60.375 C 478.894531 60.363281 478.976562 60.363281 479.058594 60.363281 C 479.097656 60.363281 479.136719 60.363281 479.175781 60.367188 C 479.300781 60.375 478.996094 60.332031 479.179688 60.371094 C 479.21875 60.378906 479.253906 60.390625 479.289062 60.402344 C 479.421875 60.449219 479.136719 60.332031 479.257812 60.394531 C 479.292969 60.410156 479.324219 60.433594 479.355469 60.453125 C 479.191406 60.34375 479.292969 60.40625 479.335938 60.441406 C 479.363281 60.46875 479.390625 60.5 479.417969 60.53125 C 479.515625 60.644531 479.324219 60.398438 479.40625 60.519531 C 479.425781 60.550781 479.445312 60.585938 479.464844 60.621094 C 479.523438 60.726562 479.40625 60.453125 479.464844 60.628906 C 479.476562 60.664062 479.484375 60.699219 479.492188 60.734375 C 479.523438 60.871094 479.476562 60.554688 479.488281 60.695312 C 479.496094 60.769531 479.492188 60.84375 479.484375 60.921875 C 479.507812 60.675781 479.476562 60.941406 479.460938 61.007812 C 479.445312 61.066406 479.332031 61.359375 479.417969 61.160156 C 479.34375 61.328125 479.253906 61.492188 479.15625 61.648438 C 479.101562 61.730469 479.046875 61.8125 478.992188 61.894531 C 478.960938 61.9375 478.929688 61.976562 478.902344 62.019531 C 478.855469 62.078125 478.859375 62.074219 478.914062 62 C 478.894531 62.027344 478.871094 62.054688 478.851562 62.082031 C 478.574219 62.433594 478.265625 62.757812 477.957031 63.078125 C 477.464844 63.578125 476.921875 64.039062 476.480469 64.585938 C 476.28125 64.832031 476.199219 65.140625 476.371094 65.429688 C 476.546875 65.734375 477.019531 65.90625 477.324219 65.679688 C 477.652344 65.4375 477.996094 65.21875 478.363281 65.039062 C 478.414062 65.015625 478.683594 64.894531 478.46875 64.984375 C 478.542969 64.953125 478.621094 64.925781 478.695312 64.898438 C 478.851562 64.84375 479.007812 64.800781 479.167969 64.765625 C 479.238281 64.75 479.304688 64.738281 479.375 64.726562 C 479.109375 64.765625 479.355469 64.730469 479.421875 64.726562 C 479.554688 64.714844 479.691406 64.71875 479.828125 64.730469 C 480.042969 64.746094 479.675781 64.703125 479.839844 64.730469 C 479.898438 64.742188 479.953125 64.753906 480.007812 64.769531 C 480.0625 64.78125 480.113281 64.800781 480.164062 64.816406 C 480.359375 64.882812 480.011719 64.738281 480.191406 64.828125 C 480.285156 64.871094 480.375 64.925781 480.460938 64.984375 C 480.589844 65.074219 480.308594 64.855469 480.457031 64.984375 C 480.5 65.023438 480.542969 65.0625 480.582031 65.105469 C 480.617188 65.140625 480.648438 65.179688 480.679688 65.21875 C 480.507812 65.003906 480.632812 65.160156 480.671875 65.214844 C 480.730469 65.308594 480.78125 65.40625 480.824219 65.507812 C 480.707031 65.234375 480.839844 65.566406 480.859375 65.652344 C 480.875 65.703125 480.882812 65.753906 480.894531 65.808594 C 480.902344 65.863281 480.914062 65.984375 480.882812 65.722656 C 480.886719 65.757812 480.890625 65.792969 480.894531 65.828125 C 480.902344 65.941406 480.902344 66.050781 480.894531 66.160156 C 480.890625 66.230469 480.859375 66.453125 480.898438 66.171875 C 480.886719 66.238281 480.875 66.304688 480.859375 66.375 C 480.84375 66.453125 480.820312 66.53125 480.796875 66.605469 C 480.78125 66.644531 480.769531 66.683594 480.753906 66.722656 C 480.746094 66.742188 480.742188 66.761719 480.734375 66.78125 C 480.6875 66.902344 480.808594 66.609375 480.753906 66.730469 C 480.679688 66.902344 480.585938 67.070312 480.480469 67.226562 C 480.457031 67.265625 480.429688 67.304688 480.402344 67.34375 C 480.292969 67.492188 480.480469 67.246094 480.402344 67.34375 C 480.332031 67.433594 480.257812 67.515625 480.183594 67.597656 C 480.027344 67.765625 479.855469 67.914062 479.679688 68.058594 C 479.648438 68.085938 479.488281 68.210938 479.652344 68.085938 C 479.605469 68.121094 479.558594 68.15625 479.507812 68.1875 C 479.398438 68.269531 479.28125 68.34375 479.164062 68.414062 C 478.925781 68.5625 478.675781 68.691406 478.417969 68.804688 C 478.566406 68.738281 478.351562 68.828125 478.324219 68.839844 C 478.257812 68.867188 478.1875 68.890625 478.121094 68.917969 C 477.957031 68.976562 477.796875 69.027344 477.628906 69.078125 C 477.292969 69.179688 476.949219 69.257812 476.601562 69.324219 C 476.28125 69.386719 476.101562 69.769531 476.183594 70.066406 C 476.277344 70.410156 476.597656 70.535156 476.921875 70.488281 " fill-opacity="1" fill-rule="nonzero"/><g clip-path="url(#c9d51b3a9b)"><path fill="#9a79c3" d="M 471.21875 26.292969 C 471.21875 26.292969 465.378906 31.007812 459.066406 33.863281 C 456.867188 34.863281 454.609375 35.632812 452.523438 35.898438 C 451.515625 36.027344 450.546875 36.039062 449.644531 35.902344 C 449.644531 35.902344 449.691406 33.351562 449.804688 29.695312 C 449.824219 29.082031 449.84375 28.433594 449.867188 27.761719 C 449.945312 25.425781 450.050781 22.792969 450.1875 20.152344 C 450.222656 19.4375 450.261719 18.726562 450.304688 18.019531 C 450.453125 15.429688 450.632812 12.914062 450.847656 10.753906 C 450.964844 9.570312 451.089844 8.496094 451.230469 7.574219 C 451.515625 5.675781 451.847656 4.425781 452.234375 4.226562 C 452.433594 4.128906 452.769531 4.25 453.21875 4.5625 C 453.605469 4.828125 454.074219 5.226562 454.605469 5.738281 C 455.78125 6.867188 457.269531 8.527344 458.867188 10.425781 C 459.242188 10.863281 459.621094 11.320312 460 11.785156 C 461.015625 13.015625 462.058594 14.3125 463.078125 15.601562 C 463.449219 16.074219 463.820312 16.542969 464.183594 17.011719 C 465.8125 19.097656 467.335938 21.097656 468.542969 22.703125 C 468.945312 23.234375 469.308594 23.722656 469.628906 24.152344 C 470.617188 25.476562 471.21875 26.292969 471.21875 26.292969 " fill-opacity="1" fill-rule="nonzero"/></g><g clip-path="url(#0e4a4f312c)"><path fill="#4f5ab2" d="M 454.605469 5.738281 C 454.363281 6.144531 454.109375 6.546875 453.847656 6.941406 C 452.941406 8.304688 451.949219 9.589844 450.847656 10.757812 C 450.964844 9.570312 451.089844 8.496094 451.230469 7.574219 C 451.78125 6.84375 452.296875 6.082031 452.773438 5.304688 C 452.925781 5.058594 453.074219 4.8125 453.21875 4.5625 C 453.605469 4.828125 454.074219 5.226562 454.605469 5.738281 " fill-opacity="1" fill-rule="nonzero"/></g><path fill="#4f5ab2" d="M 460 11.785156 C 459.355469 12.484375 458.6875 13.164062 457.996094 13.824219 C 455.5625 16.140625 452.933594 18.230469 450.1875 20.152344 C 450.222656 19.4375 450.261719 18.726562 450.304688 18.019531 C 452.488281 16.398438 454.582031 14.671875 456.542969 12.792969 C 457.34375 12.027344 458.121094 11.242188 458.867188 10.425781 C 459.242188 10.863281 459.621094 11.320312 460 11.785156 " fill-opacity="1" fill-rule="nonzero"/><path fill="#4f5ab2" d="M 464.183594 17.011719 C 462.851562 18.730469 461.433594 20.378906 459.863281 21.875 C 456.757812 24.839844 453.359375 27.378906 449.804688 29.695312 C 449.824219 29.082031 449.84375 28.433594 449.867188 27.761719 C 452.976562 25.609375 455.949219 23.28125 458.636719 20.644531 C 460.246094 19.070312 461.707031 17.375 463.078125 15.601562 C 463.449219 16.074219 463.816406 16.542969 464.183594 17.011719 " fill-opacity="1" fill-rule="nonzero"/><path fill="#4f5ab2" d="M 469.628906 24.152344 C 468.03125 26.046875 466.300781 27.835938 464.484375 29.519531 C 462.765625 31.117188 460.953125 32.554688 459.066406 33.867188 C 456.863281 34.863281 454.609375 35.632812 452.523438 35.898438 C 456.304688 33.839844 459.871094 31.40625 463.039062 28.441406 C 464.96875 26.636719 466.839844 24.738281 468.542969 22.703125 C 468.945312 23.234375 469.308594 23.722656 469.628906 24.152344 " fill-opacity="1" fill-rule="nonzero"/><path fill="#abdb3c" d="M 496.253906 15.261719 C 494.992188 16.664062 493.492188 18.285156 492.226562 19.199219 C 491.421875 19.78125 490.644531 20.179688 489.945312 20.410156 C 488.773438 20.792969 487.753906 20.554688 486.640625 21.140625 C 487.941406 22.390625 488.78125 24.125 488.84375 26.027344 C 490.800781 26.066406 492.917969 25.179688 494.472656 24.253906 C 496.742188 22.902344 498.558594 20.9375 500.265625 18.953125 C 498.960938 17.691406 497.617188 16.46875 496.253906 15.261719 " fill-opacity="1" fill-rule="nonzero"/><g clip-path="url(#dd211148dc)"><path fill="#4f5ab2" d="M 449.257812 53.0625 C 449.246094 52.273438 449.269531 51.484375 449.261719 50.695312 C 449.007812 50.609375 448.726562 50.574219 448.417969 50.609375 C 447.402344 50.730469 446.625 50.644531 445.675781 50.300781 C 444.691406 49.945312 443.984375 48.964844 443.132812 48.386719 C 442.984375 48.285156 442.835938 48.207031 442.683594 48.148438 C 442.464844 48.582031 442.226562 49.011719 441.960938 49.441406 C 441.386719 50.367188 440.769531 51.269531 440.210938 52.203125 C 441.148438 53.464844 442.699219 54.253906 444.109375 54.824219 C 445.667969 55.457031 447.402344 55.425781 449.027344 55.152344 C 449.160156 55.128906 449.285156 55.09375 449.398438 55.054688 C 449.3125 54.394531 449.265625 53.730469 449.257812 53.0625 " fill-opacity="1" fill-rule="nonzero"/></g><path fill="#f257b3" d="M 453.445312 21.058594 C 454.082031 19.804688 454.734375 18.558594 455.359375 17.296875 C 455.285156 17.210938 455.199219 17.125 455.101562 17.050781 C 453.796875 16.011719 452.246094 15.382812 450.734375 14.714844 C 449.042969 13.96875 447.089844 13.121094 445.207031 13.183594 C 445.191406 13.183594 445.175781 13.1875 445.160156 13.1875 C 445.285156 14.101562 445.242188 15.050781 445.019531 15.992188 C 444.835938 16.769531 444.664062 17.546875 444.496094 18.328125 C 444.503906 18.328125 444.507812 18.328125 444.511719 18.332031 C 445.914062 18.75 447.316406 19.03125 448.699219 19.546875 C 450.269531 20.132812 451.746094 20.929688 453.445312 21.058594 " fill-opacity="1" fill-rule="nonzero"/><g clip-path="url(#6596f15c8d)"><path fill="#256dbb" d="M 462.691406 82.238281 C 463.785156 82.957031 464.886719 83.691406 465.976562 84.453125 C 465.980469 84.449219 465.980469 84.449219 465.984375 84.445312 C 466.679688 83.261719 467.394531 82.074219 468.253906 81 C 469.003906 80.066406 470.226562 79.273438 470.753906 78.1875 C 469.445312 77.347656 468.136719 76.511719 466.816406 75.6875 C 466.054688 76.3125 465.421875 77.207031 464.855469 77.949219 C 463.886719 79.21875 463.109375 80.636719 462.382812 82.058594 C 462.488281 82.113281 462.589844 82.171875 462.691406 82.238281 " fill-opacity="1" fill-rule="nonzero"/></g><path fill="#f3632f" d="M 449.363281 71.605469 C 449.359375 72.230469 449.558594 72.730469 449.867188 73.105469 C 450.441406 73.027344 451.011719 72.949219 451.585938 72.871094 C 452.378906 72.765625 453.175781 72.671875 453.972656 72.59375 C 454.097656 72.308594 454.171875 71.980469 454.175781 71.605469 C 454.183594 69.703125 454.320312 67.777344 454.179688 65.878906 C 452.550781 65.8125 450.921875 65.699219 449.300781 65.539062 C 449.367188 67.5625 449.367188 69.574219 449.363281 71.605469 " fill-opacity="1" fill-rule="nonzero"/><path fill="#00d3a9" d="M 49.992188 23.125 L 49.992188 42.242188 L 66.554688 32.65625 Z M 49.992188 23.125 " fill-opacity="1" fill-rule="nonzero"/><path fill="#00d3a9" d="M 49.992188 46.25 L 49.992188 65.464844 L 66.710938 55.894531 Z M 49.992188 46.25 " fill-opacity="1" fill-rule="nonzero"/><path fill="#00b39f" d="M 47.613281 42.113281 L 47.613281 23.285156 L 31.265625 32.671875 Z M 47.613281 42.113281 " fill-opacity="1" fill-rule="nonzero"/><path fill="#00b39f" d="M 14.804688 65.394531 C 18.015625 70.5625 22.363281 74.9375 27.496094 78.167969 L 27.496094 58.03125 L 14.804688 65.378906 Z M 14.804688 65.394531 " fill-opacity="1" fill-rule="nonzero"/><path fill="#00b39f" d="M 47.613281 65.367188 L 47.613281 46.390625 L 31.222656 55.894531 Z M 47.613281 65.367188 " fill-opacity="1" fill-rule="nonzero"/><path fill="#00d3a9" d="M 29.875 76.976562 L 46.480469 67.476562 L 29.875 57.875 Z M 29.875 76.976562 " fill-opacity="1" fill-rule="nonzero"/><path fill="#00b39f" d="M 67.84375 77.078125 L 67.84375 58.003906 L 51.269531 67.488281 Z M 67.84375 77.078125 " fill-opacity="1" fill-rule="nonzero"/><path fill="#00b39f" d="M 84.074219 63.183594 C 86.828125 58.03125 88.503906 52.203125 88.761719 46.019531 L 71.484375 55.90625 Z M 84.074219 63.183594 " fill-opacity="1" fill-rule="nonzero"/><path fill="#00d3a9" d="M 70.222656 53.882812 L 86.886719 44.355469 L 70.222656 34.765625 Z M 70.222656 53.882812 " fill-opacity="1" fill-rule="nonzero"/><path fill="#00b39f" d="M 67.84375 30.632812 L 67.84375 11.671875 L 51.339844 21.144531 Z M 67.84375 30.632812 " fill-opacity="1" fill-rule="nonzero"/><path fill="#00b39f" d="M 67.84375 53.796875 L 67.84375 34.667969 L 51.296875 44.253906 Z M 67.84375 53.796875 " fill-opacity="1" fill-rule="nonzero"/><path fill="#00d3a9" d="M 29.875 34.621094 L 29.875 53.914062 L 46.535156 44.253906 Z M 29.875 34.621094 " fill-opacity="1" fill-rule="nonzero"/><g clip-path="url(#80df4c5de3)"><path fill="#00b39f" d="M 47.613281 4.253906 C 41.273438 4.441406 35.324219 6.105469 30.0625 8.902344 L 47.613281 19.007812 Z M 47.613281 4.253906 " fill-opacity="1" fill-rule="nonzero"/></g><path fill="#00d3a9" d="M 29.875 11.542969 L 29.875 30.703125 L 46.550781 21.144531 Z M 29.875 11.542969 " fill-opacity="1" fill-rule="nonzero"/><path fill="#00b39f" d="M 27.496094 10.382812 C 22.363281 13.625 18.015625 18.003906 14.804688 23.167969 L 27.496094 30.503906 Z M 27.496094 10.382812 " fill-opacity="1" fill-rule="nonzero"/><g clip-path="url(#c469d77098)"><path fill="#00d3a9" d="M 67.730469 8.988281 C 62.421875 6.132812 56.402344 4.441406 49.992188 4.253906 L 49.992188 19.164062 Z M 67.730469 8.988281 " fill-opacity="1" fill-rule="nonzero"/></g><g clip-path="url(#508fe1dc9b)"><path fill="#00d3a9" d="M 8.824219 45.6875 C 9.042969 52.0625 10.746094 58.058594 13.613281 63.34375 L 26.460938 55.894531 Z M 8.824219 45.6875 " fill-opacity="1" fill-rule="nonzero"/></g><g clip-path="url(#02b737e8ed)"><path fill="#00d3a9" d="M 13.601562 25.222656 C 10.761719 30.488281 9.054688 36.445312 8.824219 42.789062 L 26.476562 32.65625 Z M 13.601562 25.222656 " fill-opacity="1" fill-rule="nonzero"/></g><g clip-path="url(#5f1dee786a)"><path fill="#00b39f" d="M 30.019531 79.644531 C 35.296875 82.460938 41.261719 84.125 47.613281 84.3125 L 47.613281 69.585938 Z M 30.019531 79.644531 " fill-opacity="1" fill-rule="nonzero"/></g><path fill="#00d3a9" d="M 82.839844 23.214844 C 79.660156 18.058594 75.34375 13.699219 70.238281 10.453125 L 70.238281 30.519531 Z M 82.839844 23.214844 " fill-opacity="1" fill-rule="nonzero"/><path fill="#00d3a9" d="M 70.222656 78.109375 C 75.355469 74.851562 79.703125 70.445312 82.882812 65.25 L 70.222656 57.929688 Z M 70.222656 78.109375 " fill-opacity="1" fill-rule="nonzero"/><path fill="#00b39f" d="M 88.777344 42.6875 C 88.535156 36.402344 86.84375 30.503906 84.03125 25.28125 L 71.328125 32.640625 Z M 88.777344 42.6875 " fill-opacity="1" fill-rule="nonzero"/><g clip-path="url(#4fac16eaba)"><path fill="#00d3a9" d="M 49.992188 84.3125 C 56.316406 84.125 62.28125 82.472656 67.542969 79.675781 L 49.992188 69.511719 Z M 49.992188 84.3125 " fill-opacity="1" fill-rule="nonzero"/></g><path fill="#00b39f" d="M 27.496094 53.726562 L 27.496094 34.824219 L 11.089844 44.238281 Z M 27.496094 53.726562 " fill-opacity="1" fill-rule="nonzero"/><path fill="#ffffff" d="M 313.089844 33.605469 L 313.089844 68.222656 L 352.003906 68.222656 L 352.003906 60.011719 L 321.292969 60.011719 L 321.292969 51.789062 L 344.894531 51.789062 L 344.894531 43.566406 L 321.292969 43.566406 L 321.292969 35.355469 L 352.003906 35.355469 L 352.003906 27.132812 L 313.089844 27.132812 Z M 313.089844 33.605469 " fill-opacity="1" fill-rule="nonzero"/><path fill="#ffffff" d="M 163.382812 33.605469 L 163.382812 68.222656 L 202.296875 68.222656 L 202.296875 60.011719 L 171.597656 60.011719 L 171.597656 51.789062 L 195.183594 51.789062 L 195.183594 43.566406 L 171.597656 43.566406 L 171.597656 35.355469 L 202.296875 35.355469 L 202.296875 27.132812 L 163.382812 27.132812 Z M 163.382812 33.605469 " fill-opacity="1" fill-rule="nonzero"/><path fill="#ffffff" d="M 256.164062 57.484375 C 256.164062 58.964844 255.878906 60.355469 255.320312 61.648438 C 254.761719 62.96875 253.988281 64.101562 252.996094 65.0625 C 252.007812 66.039062 250.875 66.800781 249.570312 67.359375 C 248.25 67.921875 246.859375 68.207031 245.382812 68.207031 L 206.957031 68.207031 L 206.957031 59.554688 L 245.382812 59.554688 C 245.972656 59.554688 246.457031 59.351562 246.859375 58.949219 C 247.261719 58.546875 247.460938 58.058594 247.460938 57.472656 L 247.460938 54.128906 C 247.460938 53.539062 247.261719 53.050781 246.859375 52.648438 C 246.457031 52.246094 245.972656 52.046875 245.382812 52.046875 L 217.738281 52.046875 C 216.261719 52.046875 214.871094 51.757812 213.582031 51.199219 C 212.261719 50.640625 211.113281 49.851562 210.140625 48.875 C 209.148438 47.882812 208.375 46.738281 207.816406 45.429688 C 207.257812 44.136719 206.96875 42.746094 206.96875 41.269531 L 206.96875 37.925781 C 206.96875 36.445312 207.257812 35.039062 207.816406 33.734375 C 208.375 32.441406 209.148438 31.292969 210.140625 30.304688 C 211.128906 29.3125 212.277344 28.539062 213.582031 27.976562 C 214.871094 27.417969 216.261719 27.132812 217.738281 27.132812 L 256.164062 27.132812 L 256.164062 35.84375 L 217.738281 35.84375 C 217.152344 35.84375 216.664062 36.042969 216.261719 36.445312 C 215.859375 36.847656 215.660156 37.335938 215.660156 37.925781 L 215.660156 41.269531 C 215.660156 41.855469 215.859375 42.34375 216.261719 42.746094 C 216.664062 43.148438 217.152344 43.347656 217.738281 43.347656 L 245.382812 43.347656 C 246.859375 43.347656 248.25 43.636719 249.570312 44.195312 C 250.859375 44.753906 252.007812 45.546875 252.996094 46.519531 C 253.988281 47.511719 254.761719 48.644531 255.320312 49.953125 C 255.878906 51.273438 256.164062 52.664062 256.164062 54.140625 Z M 256.164062 57.484375 " fill-opacity="1" fill-rule="nonzero"/><path fill="#ffffff" d="M 307.957031 68.222656 L 300.128906 68.222656 L 300.128906 52.0625 L 269.601562 52.0625 L 269.601562 68.222656 L 261.773438 68.222656 L 261.773438 43.347656 L 300.128906 43.347656 L 300.128906 27.132812 L 307.957031 27.132812 Z M 269.601562 39.488281 L 261.773438 39.488281 L 261.773438 27.132812 L 269.601562 27.132812 Z M 269.601562 39.488281 " fill-opacity="1" fill-rule="nonzero"/><g clip-path="url(#972f04d9f0)"><path fill="#ffffff" d="M 419.667969 41.511719 L 409.417969 27.132812 L 399.148438 27.132812 L 415.566406 51.789062 L 415.566406 68.222656 L 423.785156 68.222656 L 423.785156 51.789062 L 440.199219 27.132812 L 430.0625 27.132812 Z M 419.667969 41.511719 " fill-opacity="1" fill-rule="nonzero"/></g><path fill="#ffffff" d="M 365.96875 34.96875 L 387.035156 34.96875 L 387.035156 43.519531 L 370.070312 43.519531 L 370.070312 51.359375 C 370.070312 51.359375 373.957031 51.359375 373.957031 51.359375 L 388.839844 68.234375 L 398.976562 68.234375 L 384.09375 51.359375 L 389.902344 51.359375 C 393.429688 51.359375 396.28125 48.5 396.28125 44.972656 L 396.28125 33.519531 C 396.28125 29.988281 393.429688 27.132812 389.902344 27.132812 L 357.925781 27.132812 L 357.925781 68.222656 L 366.140625 68.222656 Z M 365.96875 34.96875 " fill-opacity="1" fill-rule="nonzero"/><path fill="#ffffff" d="M 157.070312 68.222656 L 148.367188 68.222656 L 148.367188 38.253906 C 148.367188 37.925781 148.296875 37.609375 148.183594 37.320312 C 148.054688 37.035156 147.882812 36.777344 147.667969 36.5625 C 147.449219 36.34375 147.191406 36.171875 146.90625 36.042969 C 146.621094 35.914062 146.304688 35.855469 145.972656 35.855469 L 105.738281 35.855469 L 105.738281 27.144531 L 145.972656 27.144531 C 147.492188 27.144531 148.929688 27.433594 150.277344 28.019531 C 151.625 28.609375 152.8125 29.398438 153.832031 30.402344 C 154.835938 31.421875 155.625 32.613281 156.210938 33.960938 C 156.800781 35.3125 157.085938 36.746094 157.085938 38.269531 L 157.085938 68.234375 Z M 114.429688 68.222656 L 105.726562 68.222656 L 105.726562 35.84375 L 114.429688 35.84375 Z M 135.722656 68.222656 L 127.019531 68.222656 L 127.019531 40.40625 L 135.722656 40.40625 Z M 135.722656 68.222656 " fill-opacity="1" fill-rule="nonzero"/></svg>