<svg xmlns="http://www.w3.org/2000/svg" xmlns:xlink="http://www.w3.org/1999/xlink" width="700" zoomAndPan="magnify" viewBox="0 0 525 89.249998" height="119" preserveAspectRatio="xMidYMid meet" version="1.0"><defs><clipPath id="a902854aeb"><path d="M 449 4.125 L 472 4.125 L 472 36 L 449 36 Z M 449 4.125 " clip-rule="nonzero"/></clipPath><clipPath id="602851367d"><path d="M 450 4.125 L 455 4.125 L 455 11 L 450 11 Z M 450 4.125 " clip-rule="nonzero"/></clipPath><clipPath id="0b367f2291"><path d="M 440.183594 48 L 450 48 L 450 56 L 440.183594 56 Z M 440.183594 48 " clip-rule="nonzero"/></clipPath><clipPath id="a71ed0ed87"><path d="M 462 75 L 471 75 L 471 84.453125 L 462 84.453125 Z M 462 75 " clip-rule="nonzero"/></clipPath><clipPath id="de94e1a729"><path d="M 28 4.089844 L 47 4.089844 L 47 19 L 28 19 Z M 28 4.089844 " clip-rule="nonzero"/></clipPath><clipPath id="4590dde9ed"><path d="M 48 4.089844 L 67 4.089844 L 67 20 L 48 20 Z M 48 4.089844 " clip-rule="nonzero"/></clipPath><clipPath id="675139649b"><path d="M 7.253906 45 L 25 45 L 25 64 L 7.253906 64 Z M 7.253906 45 " clip-rule="nonzero"/></clipPath><clipPath id="540f94f4e6"><path d="M 7.253906 25 L 25 25 L 25 43 L 7.253906 43 Z M 7.253906 25 " clip-rule="nonzero"/></clipPath><clipPath id="e451934f7a"><path d="M 28 69 L 47 69 L 47 84.414062 L 28 84.414062 Z M 28 69 " clip-rule="nonzero"/></clipPath><clipPath id="42ef213ea0"><path d="M 48 69 L 67 69 L 67 84.414062 L 48 84.414062 Z M 48 69 " clip-rule="nonzero"/></clipPath><clipPath id="e262cc25bd"><path d="M 398 27 L 440.117188 27 L 440.117188 69 L 398 69 Z M 398 27 " clip-rule="nonzero"/></clipPath></defs><path fill="#f9a50d" d="M 500.914062 54.367188 C 500.914062 70.730469 489.621094 82.46875 472.511719 82.46875 C 455.398438 82.46875 441.527344 72.261719 441.527344 55.894531 C 441.527344 39.53125 455.398438 26.265625 472.511719 26.265625 C 489.621094 26.265625 500.914062 38 500.914062 54.367188 " fill-opacity="1" fill-rule="nonzero"/><path fill="#fac711" d="M 495.117188 49.472656 C 495.117188 61.464844 486.84375 70.066406 474.304688 70.066406 C 461.765625 70.066406 451.601562 62.585938 451.601562 50.59375 C 451.601562 38.601562 461.765625 28.882812 474.304688 28.882812 C 486.84375 28.882812 495.117188 37.484375 495.117188 49.472656 " fill-opacity="1" fill-rule="nonzero"/><path fill="#9a79c3" d="M 504.488281 47.527344 C 499.460938 53.53125 503.441406 55.574219 505.535156 55.496094 C 507.632812 55.421875 507.210938 49.785156 510.355469 50.398438 C 513.4375 51 518.117188 68.527344 479.386719 61.699219 C 479.410156 61.933594 479.425781 62.167969 479.425781 62.402344 C 479.425781 62.789062 479.390625 63.164062 479.332031 63.53125 C 483.152344 64.46875 507.035156 69.824219 514.546875 59.410156 C 522.714844 48.074219 509.515625 41.523438 504.488281 47.527344 " fill-opacity="1" fill-rule="nonzero"/><path fill="#1d212b" d="M 463.601562 52.679688 C 463.4375 50.878906 463.433594 49.066406 463.613281 47.269531 C 463.796875 45.441406 464.203125 42.964844 465.824219 41.835938 C 469.503906 39.273438 470.105469 48.019531 470.472656 49.828125 C 470.597656 50.4375 471.535156 50.28125 471.535156 49.683594 C 471.535156 46.808594 470.378906 38.78125 465.875 40.546875 C 463.769531 41.371094 463.023438 43.929688 462.707031 45.949219 C 462.359375 48.160156 462.390625 50.453125 462.621094 52.679688 C 462.683594 53.300781 463.660156 53.3125 463.601562 52.679688 " fill-opacity="1" fill-rule="nonzero"/><path fill="#1d212b" d="M 479.878906 48.738281 C 479.503906 47.003906 479.605469 45.054688 480.320312 43.421875 C 481.039062 41.765625 482.886719 40.589844 484.550781 41.738281 C 486.019531 42.75 486.597656 45.042969 487.011719 46.660156 C 487.238281 47.554688 487.40625 48.460938 487.550781 49.371094 C 487.667969 50.125 487.636719 51.007812 487.914062 51.722656 C 488.074219 52.132812 488.773438 52.253906 488.871094 51.722656 C 489.03125 50.871094 488.785156 49.910156 488.65625 49.066406 C 488.472656 47.839844 488.214844 46.625 487.867188 45.429688 C 487.324219 43.5625 486.425781 41.265625 484.53125 40.398438 C 482.574219 39.503906 480.515625 40.75 479.546875 42.464844 C 478.488281 44.328125 478.261719 46.972656 478.964844 48.992188 C 479.164062 49.570312 480.011719 49.339844 479.878906 48.738281 " fill-opacity="1" fill-rule="nonzero"/><path fill="#1d212b" d="M 476.921875 70.488281 C 478.5625 70.242188 480.375 69.632812 481.445312 68.285156 C 482.238281 67.28125 482.589844 65.992188 482.066406 64.777344 C 481.6875 63.894531 480.804688 63.414062 479.886719 63.308594 C 478.714844 63.179688 477.523438 63.792969 476.621094 64.476562 C 476.902344 64.839844 477.183594 65.207031 477.464844 65.570312 C 477.925781 64.996094 478.5 64.511719 479.011719 63.984375 C 479.621094 63.359375 480.257812 62.667969 480.613281 61.859375 C 480.976562 61.035156 480.996094 60.042969 480.253906 59.410156 C 479.898438 59.109375 479.445312 58.949219 478.976562 58.980469 C 478.503906 59.011719 478.078125 59.199219 477.652344 59.394531 C 477.0625 59.664062 476.53125 60.046875 476.023438 60.441406 C 475.636719 60.742188 475.027344 61.160156 475.011719 61.703125 C 475.0625 61.582031 475.109375 61.460938 475.160156 61.339844 C 475.15625 61.347656 475.148438 61.351562 475.144531 61.355469 C 474.675781 61.824219 475.398438 62.546875 475.867188 62.082031 C 475.875 62.078125 475.878906 62.070312 475.882812 62.066406 C 475.765625 62.117188 475.644531 62.164062 475.523438 62.214844 C 475.640625 62.214844 475.699219 62.191406 475.804688 62.144531 C 475.84375 62.128906 475.9375 62.089844 475.765625 62.160156 C 475.910156 62.097656 476.007812 62.050781 476.132812 61.953125 C 476.15625 61.933594 476.183594 61.910156 476.210938 61.890625 C 476.070312 62.003906 476.175781 61.917969 476.203125 61.894531 C 476.3125 61.8125 476.421875 61.738281 476.523438 61.652344 C 476.59375 61.59375 476.660156 61.539062 476.730469 61.484375 C 476.855469 61.386719 476.625 61.566406 476.75 61.46875 C 476.789062 61.4375 476.828125 61.410156 476.867188 61.382812 C 477.042969 61.25 477.222656 61.125 477.40625 61.007812 C 477.582031 60.894531 477.757812 60.789062 477.941406 60.691406 C 478.03125 60.644531 478.121094 60.597656 478.214844 60.554688 C 478.257812 60.53125 478.304688 60.511719 478.347656 60.492188 C 478.191406 60.5625 478.390625 60.484375 478.421875 60.476562 C 478.511719 60.445312 478.601562 60.421875 478.691406 60.402344 C 478.734375 60.390625 478.777344 60.382812 478.820312 60.375 C 478.976562 60.34375 478.660156 60.390625 478.8125 60.375 C 478.894531 60.363281 478.976562 60.363281 479.058594 60.363281 C 479.097656 60.363281 479.136719 60.363281 479.175781 60.367188 C 479.300781 60.375 478.996094 60.332031 479.179688 60.371094 C 479.21875 60.378906 479.253906 60.390625 479.289062 60.402344 C 479.421875 60.449219 479.136719 60.332031 479.257812 60.394531 C 479.292969 60.410156 479.324219 60.433594 479.355469 60.453125 C 479.191406 60.34375 479.292969 60.40625 479.335938 60.441406 C 479.363281 60.46875 479.390625 60.5 479.417969 60.53125 C 479.515625 60.644531 479.324219 60.398438 479.40625 60.519531 C 479.425781 60.550781 479.445312 60.585938 479.464844 60.621094 C 479.523438 60.726562 479.40625 60.453125 479.464844 60.628906 C 479.476562 60.664062 479.484375 60.699219 479.492188 60.734375 C 479.523438 60.871094 479.476562 60.554688 479.488281 60.695312 C 479.496094 60.769531 479.492188 60.84375 479.484375 60.921875 C 479.507812 60.675781 479.476562 60.941406 479.460938 61.007812 C 479.445312 61.066406 479.332031 61.359375 479.417969 61.160156 C 479.34375 61.328125 479.253906 61.492188 479.15625 61.648438 C 479.101562 61.730469 479.046875 61.8125 478.992188 61.894531 C 478.960938 61.9375 478.929688 61.976562 478.902344 62.019531 C 478.855469 62.078125 478.859375 62.074219 478.914062 62 C 478.894531 62.027344 478.871094 62.054688 478.851562 62.082031 C 478.574219 62.433594 478.265625 62.757812 477.957031 63.078125 C 477.464844 63.578125 476.921875 64.039062 476.480469 64.585938 C 476.28125 64.832031 476.199219 65.140625 476.371094 65.429688 C 476.546875 65.734375 477.019531 65.90625 477.324219 65.679688 C 477.652344 65.4375 477.996094 65.21875 478.363281 65.039062 C 478.414062 65.015625 478.683594 64.894531 478.46875 64.984375 C 478.542969 64.953125 478.621094 64.925781 478.695312 64.898438 C 478.851562 64.84375 479.007812 64.800781 479.167969 64.765625 C 479.238281 64.75 479.304688 64.738281 479.375 64.726562 C 479.109375 64.765625 479.355469 64.730469 479.421875 64.726562 C 479.554688 64.714844 479.691406 64.71875 479.828125 64.730469 C 480.042969 64.746094 479.675781 64.703125 479.839844 64.730469 C 479.898438 64.742188 479.953125 64.753906 480.007812 64.769531 C 480.0625 64.78125 480.113281 64.800781 480.164062 64.816406 C 480.359375 64.882812 480.011719 64.738281 480.191406 64.828125 C 480.285156 64.871094 480.375 64.925781 480.460938 64.984375 C 480.589844 65.074219 480.308594 64.855469 480.457031 64.984375 C 480.5 65.023438 480.542969 65.0625 480.582031 65.105469 C 480.617188 65.140625 480.648438 65.179688 480.679688 65.21875 C 480.507812 65.003906 480.632812 65.160156 480.671875 65.214844 C 480.730469 65.308594 480.78125 65.40625 480.824219 65.507812 C 480.707031 65.234375 480.839844 65.566406 480.859375 65.652344 C 480.875 65.703125 480.882812 65.753906 480.894531 65.808594 C 480.902344 65.863281 480.914062 65.984375 480.882812 65.722656 C 480.886719 65.757812 480.890625 65.792969 480.894531 65.828125 C 480.902344 65.941406 480.902344 66.050781 480.894531 66.160156 C 480.890625 66.230469 480.859375 66.453125 480.898438 66.171875 C 480.886719 66.238281 480.875 66.304688 480.859375 66.375 C 480.84375 66.453125 480.820312 66.53125 480.796875 66.605469 C 480.78125 66.644531 480.769531 66.683594 480.753906 66.722656 C 480.746094 66.742188 480.742188 66.761719 480.734375 66.78125 C 480.6875 66.902344 480.808594 66.609375 480.753906 66.730469 C 480.679688 66.902344 480.585938 67.070312 480.480469 67.226562 C 480.457031 67.265625 480.429688 67.304688 480.402344 67.34375 C 480.292969 67.492188 480.480469 67.246094 480.402344 67.34375 C 480.332031 67.433594 480.257812 67.515625 480.183594 67.597656 C 480.027344 67.765625 479.855469 67.914062 479.679688 68.058594 C 479.648438 68.085938 479.488281 68.210938 479.652344 68.085938 C 479.605469 68.121094 479.558594 68.15625 479.507812 68.1875 C 479.398438 68.269531 479.28125 68.34375 479.164062 68.414062 C 478.925781 68.5625 478.675781 68.691406 478.417969 68.804688 C 478.566406 68.738281 478.351562 68.828125 478.324219 68.839844 C 478.257812 68.867188 478.1875 68.890625 478.121094 68.917969 C 477.957031 68.976562 477.796875 69.027344 477.628906 69.078125 C 477.292969 69.179688 476.949219 69.257812 476.601562 69.324219 C 476.28125 69.386719 476.101562 69.769531 476.183594 70.066406 C 476.277344 70.410156 476.597656 70.535156 476.921875 70.488281 " fill-opacity="1" fill-rule="nonzero"/><g clip-path="url(#a902854aeb)"><path fill="#9a79c3" d="M 471.21875 26.292969 C 471.21875 26.292969 465.378906 31.007812 459.066406 33.863281 C 456.867188 34.863281 454.609375 35.632812 452.523438 35.898438 C 451.515625 36.027344 450.546875 36.039062 449.644531 35.902344 C 449.644531 35.902344 449.691406 33.351562 449.804688 29.695312 C 449.824219 29.082031 449.84375 28.433594 449.867188 27.761719 C 449.945312 25.425781 450.050781 22.792969 450.1875 20.152344 C 450.222656 19.4375 450.261719 18.726562 450.304688 18.019531 C 450.453125 15.429688 450.632812 12.914062 450.847656 10.753906 C 450.964844 9.570312 451.089844 8.496094 451.230469 7.574219 C 451.515625 5.675781 451.847656 4.425781 452.234375 4.226562 C 452.433594 4.128906 452.769531 4.25 453.21875 4.5625 C 453.605469 4.828125 454.074219 5.226562 454.605469 5.738281 C 455.78125 6.867188 457.269531 8.527344 458.867188 10.425781 C 459.242188 10.863281 459.621094 11.320312 460 11.785156 C 461.015625 13.015625 462.058594 14.3125 463.078125 15.601562 C 463.449219 16.074219 463.820312 16.542969 464.183594 17.011719 C 465.8125 19.097656 467.335938 21.097656 468.542969 22.703125 C 468.945312 23.234375 469.308594 23.722656 469.628906 24.152344 C 470.617188 25.476562 471.21875 26.292969 471.21875 26.292969 " fill-opacity="1" fill-rule="nonzero"/></g><g clip-path="url(#602851367d)"><path fill="#4f5ab2" d="M 454.605469 5.738281 C 454.363281 6.144531 454.109375 6.546875 453.847656 6.941406 C 452.941406 8.304688 451.949219 9.589844 450.847656 10.757812 C 450.964844 9.570312 451.089844 8.496094 451.230469 7.574219 C 451.78125 6.84375 452.296875 6.082031 452.773438 5.304688 C 452.925781 5.058594 453.074219 4.8125 453.21875 4.5625 C 453.605469 4.828125 454.074219 5.226562 454.605469 5.738281 " fill-opacity="1" fill-rule="nonzero"/></g><path fill="#4f5ab2" d="M 460 11.785156 C 459.355469 12.484375 458.6875 13.164062 457.996094 13.824219 C 455.5625 16.140625 452.933594 18.230469 450.1875 20.152344 C 450.222656 19.4375 450.261719 18.726562 450.304688 18.019531 C 452.488281 16.398438 454.582031 14.671875 456.542969 12.792969 C 457.34375 12.027344 458.121094 11.242188 458.867188 10.425781 C 459.242188 10.863281 459.621094 11.320312 460 11.785156 " fill-opacity="1" fill-rule="nonzero"/><path fill="#4f5ab2" d="M 464.183594 17.011719 C 462.851562 18.730469 461.433594 20.378906 459.863281 21.875 C 456.757812 24.839844 453.359375 27.378906 449.804688 29.695312 C 449.824219 29.082031 449.84375 28.433594 449.867188 27.761719 C 452.976562 25.609375 455.949219 23.28125 458.636719 20.644531 C 460.246094 19.070312 461.707031 17.375 463.078125 15.601562 C 463.449219 16.074219 463.816406 16.542969 464.183594 17.011719 " fill-opacity="1" fill-rule="nonzero"/><path fill="#4f5ab2" d="M 469.628906 24.152344 C 468.03125 26.046875 466.300781 27.835938 464.484375 29.519531 C 462.765625 31.117188 460.953125 32.554688 459.066406 33.867188 C 456.863281 34.863281 454.609375 35.632812 452.523438 35.898438 C 456.304688 33.839844 459.871094 31.40625 463.039062 28.441406 C 464.96875 26.636719 466.839844 24.738281 468.542969 22.703125 C 468.945312 23.234375 469.308594 23.722656 469.628906 24.152344 " fill-opacity="1" fill-rule="nonzero"/><path fill="#abdb3c" d="M 496.253906 15.261719 C 494.992188 16.664062 493.492188 18.285156 492.226562 19.199219 C 491.421875 19.78125 490.644531 20.179688 489.945312 20.410156 C 488.773438 20.792969 487.753906 20.554688 486.640625 21.140625 C 487.941406 22.390625 488.78125 24.125 488.84375 26.027344 C 490.800781 26.066406 492.917969 25.179688 494.472656 24.253906 C 496.742188 22.902344 498.558594 20.9375 500.265625 18.953125 C 498.960938 17.691406 497.617188 16.46875 496.253906 15.261719 " fill-opacity="1" fill-rule="nonzero"/><g clip-path="url(#0b367f2291)"><path fill="#4f5ab2" d="M 449.257812 53.0625 C 449.246094 52.273438 449.269531 51.484375 449.261719 50.695312 C 449.007812 50.609375 448.726562 50.574219 448.417969 50.609375 C 447.402344 50.730469 446.625 50.644531 445.675781 50.300781 C 444.691406 49.945312 443.984375 48.964844 443.132812 48.386719 C 442.984375 48.285156 442.835938 48.207031 442.683594 48.148438 C 442.464844 48.582031 442.226562 49.011719 441.960938 49.441406 C 441.386719 50.367188 440.769531 51.269531 440.210938 52.203125 C 441.148438 53.464844 442.699219 54.253906 444.109375 54.824219 C 445.667969 55.457031 447.402344 55.425781 449.027344 55.152344 C 449.160156 55.128906 449.285156 55.09375 449.398438 55.054688 C 449.3125 54.394531 449.265625 53.730469 449.257812 53.0625 " fill-opacity="1" fill-rule="nonzero"/></g><path fill="#f257b3" d="M 453.445312 21.058594 C 454.082031 19.804688 454.734375 18.558594 455.359375 17.296875 C 455.285156 17.210938 455.199219 17.125 455.101562 17.050781 C 453.796875 16.011719 452.246094 15.382812 450.734375 14.714844 C 449.042969 13.96875 447.089844 13.121094 445.207031 13.183594 C 445.191406 13.183594 445.175781 13.1875 445.160156 13.1875 C 445.285156 14.101562 445.242188 15.050781 445.019531 15.992188 C 444.835938 16.769531 444.664062 17.546875 444.496094 18.328125 C 444.503906 18.328125 444.507812 18.328125 444.511719 18.332031 C 445.914062 18.75 447.316406 19.03125 448.699219 19.546875 C 450.269531 20.132812 451.746094 20.929688 453.445312 21.058594 " fill-opacity="1" fill-rule="nonzero"/><g clip-path="url(#a71ed0ed87)"><path fill="#256dbb" d="M 462.691406 82.238281 C 463.785156 82.957031 464.886719 83.691406 465.976562 84.453125 C 465.980469 84.449219 465.980469 84.449219 465.984375 84.445312 C 466.679688 83.261719 467.394531 82.074219 468.253906 81 C 469.003906 80.066406 470.226562 79.273438 470.753906 78.1875 C 469.445312 77.347656 468.136719 76.511719 466.816406 75.6875 C 466.054688 76.3125 465.421875 77.207031 464.855469 77.949219 C 463.886719 79.21875 463.109375 80.636719 462.382812 82.058594 C 462.488281 82.113281 462.589844 82.171875 462.691406 82.238281 " fill-opacity="1" fill-rule="nonzero"/></g><path fill="#f3632f" d="M 449.363281 71.605469 C 449.359375 72.230469 449.558594 72.730469 449.867188 73.105469 C 450.441406 73.027344 451.011719 72.949219 451.585938 72.871094 C 452.378906 72.765625 453.175781 72.671875 453.972656 72.59375 C 454.097656 72.308594 454.171875 71.980469 454.175781 71.605469 C 454.183594 69.703125 454.320312 67.777344 454.179688 65.878906 C 452.550781 65.8125 450.921875 65.699219 449.300781 65.539062 C 449.367188 67.5625 449.367188 69.574219 449.363281 71.605469 " fill-opacity="1" fill-rule="nonzero"/><path fill="#00d3a9" d="M 48.570312 23.023438 L 48.570312 42.203125 L 65.1875 32.582031 Z M 48.570312 23.023438 " fill-opacity="1" fill-rule="nonzero"/><path fill="#00d3a9" d="M 48.570312 46.21875 L 48.570312 65.496094 L 65.34375 55.894531 Z M 48.570312 46.21875 " fill-opacity="1" fill-rule="nonzero"/><path fill="#00b39f" d="M 46.179688 42.070312 L 46.179688 23.183594 L 29.777344 32.597656 Z M 46.179688 42.070312 " fill-opacity="1" fill-rule="nonzero"/><path fill="#00b39f" d="M 13.261719 65.425781 C 16.484375 70.609375 20.84375 75 25.996094 78.238281 L 25.996094 58.039062 L 13.261719 65.410156 Z M 13.261719 65.425781 " fill-opacity="1" fill-rule="nonzero"/><path fill="#00b39f" d="M 46.179688 65.394531 L 46.179688 46.363281 L 29.734375 55.894531 Z M 46.179688 65.394531 " fill-opacity="1" fill-rule="nonzero"/><path fill="#00d3a9" d="M 28.382812 77.042969 L 45.042969 67.511719 L 28.382812 57.878906 Z M 28.382812 77.042969 " fill-opacity="1" fill-rule="nonzero"/><path fill="#00b39f" d="M 66.480469 77.144531 L 66.480469 58.011719 L 49.847656 67.527344 Z M 66.480469 77.144531 " fill-opacity="1" fill-rule="nonzero"/><path fill="#00b39f" d="M 82.769531 63.207031 C 85.53125 58.039062 87.214844 52.195312 87.472656 45.988281 L 70.136719 55.90625 Z M 82.769531 63.207031 " fill-opacity="1" fill-rule="nonzero"/><path fill="#00d3a9" d="M 68.871094 53.878906 L 85.585938 44.316406 L 68.871094 34.699219 Z M 68.871094 53.878906 " fill-opacity="1" fill-rule="nonzero"/><path fill="#00b39f" d="M 66.480469 30.554688 L 66.480469 11.535156 L 49.921875 21.035156 Z M 66.480469 30.554688 " fill-opacity="1" fill-rule="nonzero"/><path fill="#00b39f" d="M 66.480469 53.792969 L 66.480469 34.597656 L 49.878906 44.21875 Z M 66.480469 53.792969 " fill-opacity="1" fill-rule="nonzero"/><path fill="#00d3a9" d="M 28.382812 34.554688 L 28.382812 53.90625 L 45.101562 44.21875 Z M 28.382812 34.554688 " fill-opacity="1" fill-rule="nonzero"/><g clip-path="url(#de94e1a729)"><path fill="#00b39f" d="M 46.179688 4.089844 C 39.820312 4.277344 33.851562 5.949219 28.570312 8.753906 L 46.179688 18.890625 Z M 46.179688 4.089844 " fill-opacity="1" fill-rule="nonzero"/></g><path fill="#00d3a9" d="M 28.382812 11.40625 L 28.382812 30.625 L 45.117188 21.035156 Z M 28.382812 11.40625 " fill-opacity="1" fill-rule="nonzero"/><path fill="#00b39f" d="M 25.996094 10.238281 C 20.84375 13.492188 16.484375 17.882812 13.261719 23.066406 L 25.996094 30.425781 Z M 25.996094 10.238281 " fill-opacity="1" fill-rule="nonzero"/><g clip-path="url(#4590dde9ed)"><path fill="#00d3a9" d="M 66.367188 8.84375 C 61.042969 5.976562 55 4.277344 48.570312 4.089844 L 48.570312 19.050781 Z M 66.367188 8.84375 " fill-opacity="1" fill-rule="nonzero"/></g><g clip-path="url(#675139649b)"><path fill="#00d3a9" d="M 7.261719 45.65625 C 7.476562 52.050781 9.191406 58.066406 12.066406 63.367188 L 24.957031 55.894531 Z M 7.261719 45.65625 " fill-opacity="1" fill-rule="nonzero"/></g><g clip-path="url(#540f94f4e6)"><path fill="#00d3a9" d="M 12.054688 25.125 C 9.203125 30.410156 7.492188 36.386719 7.261719 42.75 L 24.972656 32.582031 Z M 12.054688 25.125 " fill-opacity="1" fill-rule="nonzero"/></g><g clip-path="url(#e451934f7a)"><path fill="#00b39f" d="M 28.527344 79.722656 C 33.820312 82.542969 39.804688 84.214844 46.179688 84.402344 L 46.179688 69.628906 Z M 28.527344 79.722656 " fill-opacity="1" fill-rule="nonzero"/></g><path fill="#00d3a9" d="M 81.53125 23.109375 C 78.335938 17.941406 74.003906 13.5625 68.882812 10.308594 L 68.882812 30.4375 Z M 81.53125 23.109375 " fill-opacity="1" fill-rule="nonzero"/><path fill="#00d3a9" d="M 68.871094 78.179688 C 74.019531 74.914062 78.378906 70.492188 81.574219 65.28125 L 68.871094 57.9375 Z M 68.871094 78.179688 " fill-opacity="1" fill-rule="nonzero"/><path fill="#00b39f" d="M 87.488281 42.648438 C 87.242188 36.339844 85.542969 30.425781 82.722656 25.183594 L 69.976562 32.570312 Z M 87.488281 42.648438 " fill-opacity="1" fill-rule="nonzero"/><g clip-path="url(#42ef213ea0)"><path fill="#00d3a9" d="M 48.570312 84.402344 C 54.914062 84.214844 60.898438 82.558594 66.179688 79.75 L 48.570312 69.558594 Z M 48.570312 84.402344 " fill-opacity="1" fill-rule="nonzero"/></g><path fill="#00b39f" d="M 25.996094 53.71875 L 25.996094 34.757812 L 9.535156 44.203125 Z M 25.996094 53.71875 " fill-opacity="1" fill-rule="nonzero"/><path fill="#3c494f" d="M 312.5625 33.535156 L 312.5625 68.261719 L 351.613281 68.261719 L 351.613281 60.027344 L 320.792969 60.027344 L 320.792969 51.777344 L 344.476562 51.777344 L 344.476562 43.527344 L 320.792969 43.527344 L 320.792969 35.289062 L 351.613281 35.289062 L 351.613281 27.039062 L 312.5625 27.039062 Z M 312.5625 33.535156 " fill-opacity="1" fill-rule="nonzero"/><path fill="#3c494f" d="M 162.34375 33.535156 L 162.34375 68.261719 L 201.390625 68.261719 L 201.390625 60.027344 L 170.589844 60.027344 L 170.589844 51.777344 L 194.257812 51.777344 L 194.257812 43.527344 L 170.589844 43.527344 L 170.589844 35.289062 L 201.390625 35.289062 L 201.390625 27.039062 L 162.34375 27.039062 Z M 162.34375 33.535156 " fill-opacity="1" fill-rule="nonzero"/><path fill="#3c494f" d="M 255.445312 57.492188 C 255.445312 58.976562 255.160156 60.371094 254.597656 61.667969 C 254.035156 62.992188 253.257812 64.128906 252.265625 65.09375 C 251.273438 66.074219 250.136719 66.835938 248.828125 67.398438 C 247.503906 67.960938 246.109375 68.246094 244.625 68.246094 L 206.066406 68.246094 L 206.066406 59.566406 L 244.625 59.566406 C 245.214844 59.566406 245.707031 59.363281 246.109375 58.960938 C 246.511719 58.558594 246.714844 58.066406 246.714844 57.476562 L 246.714844 54.121094 C 246.714844 53.53125 246.511719 53.042969 246.109375 52.640625 C 245.707031 52.238281 245.214844 52.035156 244.625 52.035156 L 216.886719 52.035156 C 215.40625 52.035156 214.011719 51.746094 212.714844 51.1875 C 211.390625 50.625 210.242188 49.832031 209.261719 48.851562 C 208.285156 47.875 207.492188 46.707031 206.929688 45.398438 C 206.371094 44.101562 206.082031 42.707031 206.082031 41.222656 L 206.082031 37.867188 C 206.082031 36.386719 206.371094 34.972656 206.929688 33.664062 C 207.492188 32.367188 208.269531 31.214844 209.261719 30.222656 C 210.253906 29.230469 211.40625 28.453125 212.714844 27.890625 C 214.011719 27.328125 215.40625 27.039062 216.886719 27.039062 L 255.445312 27.039062 L 255.445312 35.78125 L 216.886719 35.78125 C 216.296875 35.78125 215.808594 35.980469 215.40625 36.386719 C 215.003906 36.789062 214.800781 37.277344 214.800781 37.867188 L 214.800781 41.222656 C 214.800781 41.8125 215.003906 42.300781 215.40625 42.707031 C 215.808594 43.109375 216.296875 43.308594 216.886719 43.308594 L 244.625 43.308594 C 246.109375 43.308594 247.503906 43.597656 248.828125 44.160156 C 250.121094 44.722656 251.273438 45.511719 252.265625 46.492188 C 253.257812 47.484375 254.035156 48.621094 254.597656 49.933594 C 255.160156 51.257812 255.445312 52.652344 255.445312 54.136719 Z M 255.445312 57.492188 " fill-opacity="1" fill-rule="nonzero"/><path fill="#3c494f" d="M 307.414062 68.261719 L 299.558594 68.261719 L 299.558594 52.050781 L 268.925781 52.050781 L 268.925781 68.261719 L 261.070312 68.261719 L 261.070312 43.308594 L 299.558594 43.308594 L 299.558594 27.039062 L 307.414062 27.039062 Z M 268.925781 39.4375 L 261.070312 39.4375 L 261.070312 27.039062 L 268.925781 27.039062 Z M 268.925781 39.4375 " fill-opacity="1" fill-rule="nonzero"/><g clip-path="url(#e262cc25bd)"><path fill="#3c494f" d="M 419.507812 41.46875 L 409.21875 27.039062 L 398.917969 27.039062 L 415.390625 51.777344 L 415.390625 68.261719 L 423.636719 68.261719 L 423.636719 51.777344 L 440.109375 27.039062 L 429.9375 27.039062 Z M 419.507812 41.46875 " fill-opacity="1" fill-rule="nonzero"/></g><path fill="#3c494f" d="M 365.625 34.902344 L 386.761719 34.902344 L 386.761719 43.484375 L 369.738281 43.484375 L 369.738281 51.34375 C 369.738281 51.34375 373.640625 51.34375 373.640625 51.34375 L 388.574219 68.277344 L 398.746094 68.277344 L 383.8125 51.34375 L 389.636719 51.34375 C 393.175781 51.34375 396.039062 48.480469 396.039062 44.9375 L 396.039062 33.449219 C 396.039062 29.90625 393.175781 27.039062 389.636719 27.039062 L 357.554688 27.039062 L 357.554688 68.261719 L 365.796875 68.261719 Z M 365.625 34.902344 " fill-opacity="1" fill-rule="nonzero"/><path fill="#3c494f" d="M 156.015625 68.261719 L 147.28125 68.261719 L 147.28125 38.199219 C 147.28125 37.867188 147.210938 37.550781 147.09375 37.261719 C 146.964844 36.976562 146.792969 36.714844 146.574219 36.5 C 146.359375 36.285156 146.101562 36.109375 145.8125 35.980469 C 145.527344 35.851562 145.210938 35.792969 144.878906 35.792969 L 104.507812 35.792969 L 104.507812 27.054688 L 144.878906 27.054688 C 146.402344 27.054688 147.84375 27.34375 149.195312 27.933594 C 150.546875 28.523438 151.742188 29.316406 152.761719 30.324219 C 153.769531 31.34375 154.5625 32.539062 155.152344 33.894531 C 155.742188 35.246094 156.027344 36.6875 156.027344 38.214844 L 156.027344 68.277344 Z M 113.226562 68.261719 L 104.492188 68.261719 L 104.492188 35.78125 L 113.226562 35.78125 Z M 134.589844 68.261719 L 125.859375 68.261719 L 125.859375 40.359375 L 134.589844 40.359375 Z M 134.589844 68.261719 " fill-opacity="1" fill-rule="nonzero"/></svg>