<svg width="24px" height="24px" viewBox="0 0 24 24" fill="none" xmlns="http://www.w3.org/2000/svg">
<path d="M16.1843 12.4179L20.125 14.2055V16.887C20.125 17.9507 19.8141 18.983 19.2843 19.859L18.0146 18.563C18.575 17.6959 18.4831 16.5161 17.7343 15.7519C16.8805 14.8804 15.4925 14.8804 14.6387 15.7519C13.7849 16.6233 13.7849 18.0401 14.6387 18.9115C15.3875 19.6758 16.5434 19.7741 17.3928 19.1976L18.7589 20.5919C18.0802 21.4009 17.1914 21.9997 16.1843 22.25C13.925 21.6869 12.2437 19.3674 12.2437 16.887V14.2055L16.1843 12.4179ZM16.2206 2.25L16.3603 2.25605C17.14 2.32391 17.7609 2.95458 17.8313 3.74109L17.8379 3.89029L17.843 12.452L16.22 11.714L16.2206 3.89029H5.76237V17.0126L11.677 17.012L11.6789 17.072C11.7003 17.6118 11.7903 18.1429 11.9402 18.6527L5.75418 18.6529C4.90103 18.6529 4.20217 17.9904 4.13097 17.1536L4.125 17.0126L4.13319 3.89029C4.13319 3.03561 4.78714 2.32815 5.62169 2.25605L5.76237 2.25H16.2206ZM11.674 13.7128V15.3435H7.35349V13.7128H11.674ZM14.4751 10.4514V12.0821H7.35349V10.4514H14.4751ZM13.5731 7.19005V8.77278H7.35349V7.19005H13.5731ZM16.1843 18.6747C16.9098 18.6747 17.4979 18.0744 17.4979 17.3339C17.4979 16.5935 16.9098 15.9932 16.1843 15.9932C15.4589 15.9932 14.8708 16.5935 14.8708 17.3339C14.8708 18.0744 15.4589 18.6747 16.1843 18.6747Z" fill="white"/>
</svg>
