<svg xmlns="http://www.w3.org/2000/svg" width="18" height="18" viewBox="0 0 18 18"><defs><radialGradient id="a" cx="-36.63" cy="17.12" r="11.18" gradientTransform="matrix(.94 0 0 .94 41.88 -7.4)" gradientUnits="userSpaceOnUse"><stop offset=".27" stop-color="#ffd70f"/><stop offset=".49" stop-color="#ffcb12"/><stop offset=".88" stop-color="#feac19"/><stop offset="1" stop-color="#fea11b"/></radialGradient></defs><path d="M13.56 7.19a2.07 2.07 0 000-2.93L10 .69a2.06 2.06 0 00-2.92 0L3.52 4.26a2.09 2.09 0 000 2.93l3 3a.61.61 0 01.17.41v5.52a.7.7 0 00.2.5l1.35 1.35a.45.45 0 00.66 0l1.31-1.31.77-.77a.26.26 0 000-.38l-.55-.56a.29.29 0 010-.42l.55-.56a.26.26 0 000-.38L10.4 13a.28.28 0 010-.41L11 12a.26.26 0 000-.38l-.77-.78v-.28zm-5-5.64a1.18 1.18 0 11-1.19 1.18 1.17 1.17 0 011.17-1.18z" fill="url(#a)"/><path d="M7.62 16.21A.25.25 0 008 16v-4.45a.27.27 0 00-.11-.22.25.25 0 00-.39.22V16a.27.27 0 00.12.21z" fill="#ff9300" opacity=".75"/><rect x="5.69" y="5.45" width="5.86" height=".69" rx=".32" fill="#ff9300" opacity=".75"/><rect x="5.69" y="6.57" width="5.86" height=".69" rx=".32" fill="#ff9300" opacity=".75"/></svg>