<svg id="图层_1" data-name="图层 1" xmlns="http://www.w3.org/2000/svg" xmlns:xlink="http://www.w3.org/1999/xlink" viewBox="0 0 56.69 56.69"><defs><style>.cls-1,.cls-2{fill:#fff;}.cls-2{opacity:0.7;}.cls-3{fill:url(#未命名的渐变_5);}</style><linearGradient id="未命名的渐变_5" x1="11.77" y1="35.48" x2="44.79" y2="35.48" gradientUnits="userSpaceOnUse"><stop offset="0" stop-color="#fff" stop-opacity="0"/><stop offset="1" stop-color="#fff"/></linearGradient></defs><title>openkruise</title><path class="cls-1" d="M28.35,2A26.17,26.17,0,1,0,54.51,28.16,26.17,26.17,0,0,0,28.35,2ZM44.79,37.64A16.58,16.58,0,1,1,27.27,18.91a7.83,7.83,0,0,1,1.09,0,9.28,9.28,0,0,1,8.51,13,16.56,16.56,0,0,0-6.55-21.72,14.38,14.38,0,0,0-2-1A16.58,16.58,0,0,1,44.79,37.64Z"/><path class="cls-2" d="M49,16.16a16.53,16.53,0,0,0-20.69-7,14.38,14.38,0,0,1,2,1A16.54,16.54,0,0,1,36.4,32.79a6.21,6.21,0,0,1-.81,1.13A9.21,9.21,0,0,1,20.2,32.56a2.18,2.18,0,0,0,.09.23A16.61,16.61,0,1,0,49,16.16Z"/><path class="cls-3" d="M43,38.88A16.58,16.58,0,0,1,20.3,32.81s0,0,0,0a9.28,9.28,0,0,1,7.3-13.9A16.57,16.57,0,1,0,44.79,37.64,15.58,15.58,0,0,1,43,38.88Z"/></svg>