<svg width="24px" height="24px" viewBox="0 0 24 24" fill="none" xmlns="http://www.w3.org/2000/svg">
<path fill-rule="evenodd" clip-rule="evenodd" d="M12.3465 2C13.0559 2 13.6561 2.39326 14.1464 3.05722C14.5458 3.5981 14.8907 4.34424 15.1767 5.25989C15.7389 7.06025 16.0566 9.46503 16.0566 12.0236C16.0566 14.5821 15.7389 16.9869 15.1767 18.7873C14.8907 19.7029 14.5458 20.4491 14.1464 20.9899C13.6561 21.6539 13.0559 22.0472 12.3465 22.0472C10.7233 22.0472 9.71939 20.629 9.18392 18.2085C9.16763 18.1349 9.16353 18.0616 9.17032 17.9904L10.8003 17.9906C11.0202 18.9695 11.2962 19.9313 11.6033 20.2496C11.8079 20.4618 12.0157 20.5377 12.3465 20.5377C12.3525 20.5377 12.36 20.5365 12.3723 20.5325C12.3951 20.5251 12.424 20.511 12.4589 20.4881C12.5595 20.4222 12.6766 20.3056 12.8002 20.1382C13.0885 19.7477 13.3684 19.1422 13.6102 18.3681C14.1267 16.7143 14.426 14.4485 14.426 12.0236C14.426 9.59869 14.1267 7.33282 13.6102 5.67912C13.3684 4.90501 13.0885 4.29943 12.8002 3.909C12.6766 3.74158 12.5595 3.62497 12.4589 3.55905C12.424 3.53621 12.3951 3.52205 12.3723 3.51463C12.36 3.51066 12.3525 3.50943 12.3465 3.50943C12.081 3.50943 11.8465 3.634 11.5903 3.97295C11.2639 4.40475 10.9795 5.11005 10.7598 6.10291L9.0989 6.1025C9.36411 4.76996 9.74434 3.7823 10.2542 3.10765C10.8025 2.38225 11.522 2 12.3465 2ZM12.566 14.5V16.0094H4.64151C4.22469 16.0094 3.88679 15.6715 3.88679 15.2547C3.88679 14.8379 4.22469 14.5 4.64151 14.5H12.566ZM21.2453 12.8963C21.6621 12.8963 22 13.2342 22 13.651C22 14.0678 21.6621 14.4057 21.2453 14.4057L17.5018 14.4066C17.5638 13.915 17.6082 13.4104 17.6339 12.8967L21.2453 12.8963ZM12.566 11.2925V12.8019H2.75472C2.3379 12.8019 2 12.464 2 12.0472C2 11.6304 2.3379 11.2925 2.75472 11.2925H12.566ZM17.5506 9.68764L21.2453 9.68872C21.6621 9.68872 22 10.0266 22 10.4434C22 10.8255 21.7161 11.1413 21.3477 11.1913L21.2453 11.1982L17.6509 11.1978C17.6356 10.6853 17.6019 10.1807 17.5506 9.68764ZM12.566 8.08491V9.59434H4.64151C4.22469 9.59434 3.88679 9.25644 3.88679 8.83962C3.88679 8.45754 4.17072 8.14177 4.5391 8.0918L4.64151 8.08491H12.566Z" fill="white"/>
</svg>
