<svg id="Layer_1" data-name="Layer 1" xmlns="http://www.w3.org/2000/svg" width="18px" height="18px" viewBox="0 0 360 360"><defs><style>.cls-1{fill:#fff;}.cls-2{fill:#f9c606;}.cls-3{fill:#87752d;}</style></defs><circle class="cls-1" cx="179.05272" cy="179.8942" r="166.80176"/><path class="cls-2" d="M180.06188,1.9227A178.03865,178.03865,0,1,0,358.10053,179.96135,178.03863,178.03863,0,0,0,180.06188,1.9227ZM92.295,96.65287l33.99268,19.62373v47.04779L92.295,182.94933Zm0,101.88539,33.99268-19.62441v39.248L92.295,237.78728Zm81.48652,94.09507L99.0459,249.47889l33.99337-19.6239,40.74222,23.51984Zm0-156.72869-33.99285,19.62511v-39.2535l33.99285-19.62459Zm13.501-39.25264,33.98939,19.62408v39.25315L187.28249,135.906Zm0,195.98133v-39.2516l40.73894-23.52622,33.99371,19.62666Zm81.48323-54.84312-33.99284-19.62839v-39.249l33.99284,19.62528Zm0-54.84088-33.99284-19.62546V116.2766l33.99284-19.62373Z"/><path class="cls-3" d="M228.02229,104.58722,180.53207,77.16833l-47.49384,27.41889L78.794,73.27V253.37742l101.73809,58.73993L282.26672,253.381V73.27ZM187.28249,96.652l33.98939,19.62408v39.25315L187.28249,135.906Zm-47.49385,19.62425,33.99285-19.62459v39.253l-33.99285,19.62511ZM92.295,96.65287l33.99268,19.62373v47.04779L92.295,182.94933Zm0,101.88539,33.99268-19.62441v39.248L92.295,237.78728Zm81.48652,94.09507L99.0459,249.47889l33.99337-19.6239,40.74222,23.51984Zm0-54.84519L139.78864,218.163V178.91385l33.99285,19.62562Zm-27.24157-70.56591,33.993-19.62442,33.99284,19.62528-33.99267,19.62339Zm74.732,11.69506v39.24643l-33.98939,19.631V198.53826Zm-33.98939,113.716v-39.2516l40.73894-23.52622,33.99371,19.62666Zm81.48323-54.84312-33.99284-19.62839v-39.249l33.99284,19.62528Zm0-54.84088-33.99284-19.62546V116.2766l33.99284-19.62373Z"/></svg>