<svg width="90" height="90" viewBox="0 0 90 90" fill="none" xmlns="http://www.w3.org/2000/svg">
<g clip-path="url(#clip0_26091_16472)">
<path fill-rule="evenodd" clip-rule="evenodd" d="M79.4359 51.232H74.7657L82.3836 60.0737L90.0016 51.232H85.6625C85.2875 48.5767 84.2134 46.056 82.534 43.9393C80.412 41.2647 77.4494 39.3937 74.1314 38.6325C70.8134 37.8713 67.3365 38.2651 64.2702 39.7494C61.2039 41.2337 58.7299 43.7206 57.2533 46.8027C55.7767 49.8848 55.385 53.3796 56.1424 56.7147C56.8998 60.0498 58.7613 63.0276 61.4223 65.1604C64.0832 67.2932 67.3857 68.4546 70.7891 68.4545C74.1924 68.4544 77.4949 67.2928 80.1557 65.1598L76.3387 60.3492C74.7622 61.613 72.8054 62.3013 70.7889 62.3014C68.7723 62.3014 66.8155 61.6133 65.2389 60.3495C63.6623 59.0858 62.5593 57.3214 62.1105 55.3453C61.6617 53.3693 61.8938 51.2986 62.7687 49.4724C63.6436 47.6461 65.1095 46.1727 66.9264 45.2932C68.7432 44.4137 70.8033 44.1804 72.7693 44.6314C74.7352 45.0824 76.4906 46.191 77.7479 47.7757C78.5587 48.7977 79.1314 49.9786 79.4359 51.232Z" fill="#326CE5"/>
<path fill-rule="evenodd" clip-rule="evenodd" d="M22.727 56.7049L22.7446 56.7358L22.7658 56.7736C24.5049 59.8984 23.3967 63.8498 20.2906 65.5994C17.1845 67.349 13.2566 66.2341 11.5175 63.1093C9.77839 59.9845 10.8866 56.0331 13.9927 54.2835C15.2359 53.5833 16.6107 53.3419 17.9241 53.5045L24.602 42.4464C22.5195 40.8812 20.8199 38.8461 19.6456 36.4958C18.2194 33.6414 17.6265 30.4388 17.9355 27.2593C18.2446 24.0797 19.4429 21.0533 21.3916 18.5308C23.3404 16.0084 25.9597 14.0931 28.9462 13.0069C31.9327 11.9208 35.1639 11.7083 38.2656 12.394C41.3672 13.0797 44.2121 14.6356 46.4708 16.8813C48.7294 19.127 50.3092 21.9707 51.0271 25.0827C51.745 28.1947 51.5717 31.4477 50.5271 34.4646L44.6491 32.4049C45.3067 30.5055 45.4159 28.4575 44.9639 26.4983C44.5119 24.5391 43.5173 22.7488 42.0953 21.3349C40.6734 19.9211 38.8823 18.9416 36.9296 18.5099C34.9769 18.0782 32.9426 18.212 31.0624 18.8958C29.1822 19.5796 27.5331 20.7854 26.3062 22.3735C25.0794 23.9615 24.3249 25.8669 24.1304 27.8686C23.9358 29.8704 24.3091 31.8866 25.207 33.6837C25.9371 35.1451 26.9899 36.4129 28.2788 37.3933L32.7419 40.121L22.727 56.7049ZM34.7508 35.6731C34.7765 35.6745 34.8021 35.6757 34.8278 35.6768L43.4165 53.051L48.06 50.7278C48.8325 50.4326 49.6353 50.23 50.4518 50.1231C50.7069 47.8847 51.296 45.7511 52.1668 43.7759C50 43.7305 47.8459 44.1073 45.8235 44.8841L40.0922 33.2904C40.9254 32.2618 41.4534 30.9675 41.5286 29.541C41.717 25.9648 38.988 22.912 35.4331 22.7225C31.8783 22.5329 28.8437 25.2783 28.6553 28.8546C28.4669 32.4308 31.1959 35.4836 34.7508 35.6731ZM63.6063 72.7217C61.5553 71.8895 59.6624 70.7359 57.9865 69.3217C56.8567 70.1376 55.5731 70.725 54.2069 71.0438C52.2593 71.4982 50.2236 71.3881 48.3357 70.7262C46.4477 70.0643 44.7849 68.8778 43.5398 67.3041L38.6698 71.2037C40.6474 73.7033 43.2886 75.588 46.2874 76.6393C49.2861 77.6906 52.5196 77.8655 55.6132 77.1437C58.6333 76.439 61.3993 74.9079 63.6063 72.7217ZM54.8052 65.9876C53.0222 66.7548 50.9165 66.7071 49.0973 65.674C47.8568 64.9694 46.9374 63.9134 46.3929 62.7001L33.5284 62.7071C33.2808 65.3087 32.4359 67.8253 31.051 70.0546C29.368 72.7638 26.9563 74.9377 24.0954 76.3244C21.2346 77.7112 18.0417 78.2539 14.8867 77.8898C11.7318 77.5257 8.744 76.2697 6.2696 74.2673C3.79519 72.2648 1.93549 69.598 0.906005 66.5758C-0.123478 63.5536 -0.280599 60.2998 0.452855 57.1915C1.18631 54.0831 2.78031 51.2475 5.05013 49.0132C7.31995 46.7789 10.1727 45.2375 13.2777 44.5674L14.5831 50.69C12.6283 51.1118 10.8323 52.0823 9.40326 53.4889C7.97426 54.8956 6.97072 56.6808 6.50896 58.6377C6.0472 60.5947 6.14611 62.6432 6.79425 64.5458C7.44238 66.4485 8.61319 68.1275 10.171 69.3882C11.7288 70.6488 13.6098 71.4396 15.5961 71.6688C17.5824 71.898 19.5925 71.5563 21.3936 70.6833C23.1947 69.8102 24.7131 68.4416 25.7726 66.736C26.6362 65.346 27.1662 63.7785 27.3278 62.1573L27.325 56.9192L46.6145 56.9089L46.6261 56.8878L46.6529 56.8395C47.4914 55.3452 48.8308 54.3141 50.3396 53.8391C50.5809 58.4128 52.2111 62.6076 54.8052 65.9876Z" fill="#326CE5"/>
</g>
<defs>
<clipPath id="clip0_26091_16472">
<rect width="90" height="90" fill="white"/>
</clipPath>
</defs>
</svg>
