<svg width="40" height="40" viewBox="0 0 40 40" fill="none" xmlns="http://www.w3.org/2000/svg">
<g clip-path="url(#clip0_23296_3540)">
<path d="M40 0H0V40H40V0Z" fill="#C925D1" fill-opacity="0.12"/>
<path fill-rule="evenodd" clip-rule="evenodd" d="M33 15.9959V19.0102H32.0005V17.6221L28.1836 21.0738H25.2122L23.715 22.7071L22.9794 22.0296L24.7734 20.0731H27.7988L31.201 16.9966H29.9896V15.9959H33ZM32.0005 20.011H33V22.0006H30.9891V20.9998H31.3009L30.1475 19.8349L30.8552 19.1303L32.0005 20.2862V20.011ZM28.1466 24.0041H31.052L30.5743 23.2926L31.4039 22.7341L32.5892 24.5025L31.4059 26.2919L30.5723 25.7395L31.059 25.0049H27.8358L26.4935 24.0812L24.9773 25.142L20.6886 21.8014L21.3013 21.0118L25.0083 23.8981L26.4895 22.8632L28.1466 24.0041ZM25.7679 16.8926H28.7133L29.5678 17.8053L28.8402 18.4898L28.2795 17.8933H26.2167L24.9923 19.2754L23.769 17.8933H20.9945V16.8926H24.2177L24.9923 17.7672L25.7679 16.8926ZM16.6238 7.00079C21.797 7.00079 24.9983 8.55901 24.9983 10.0031C24.9983 11.4413 21.866 12.9304 16.6238 12.9304C11.2967 12.9304 7.99946 11.4103 7.99946 10.0031C7.99946 8.55301 11.4656 7.00079 16.6238 7.00079ZM20.058 16.0079H19.0585V27.4599C19.0585 27.7361 19.2814 27.9603 19.5582 27.9603H24.9983V30.0189C24.9983 31.452 21.797 32.9992 16.6238 32.9992C11.4656 32.9992 7.99946 31.458 7.99946 30.0189V25.6194C9.73053 26.9795 13.2936 27.9603 16.9966 27.9603V26.9595C12.4631 26.9595 8.6701 25.4963 7.99946 24.1563V18.673C9.74652 20.012 13.2866 20.9568 16.9966 20.9568V19.956C12.593 19.956 8.78704 18.5469 7.99946 17.2488V11.8396C9.65857 13.2167 13.1527 13.9312 16.6238 13.9312C20.4767 13.9312 23.5131 13.1416 24.9983 11.8806V15.0071H25.9978V10.0031C25.9978 7.68332 22.0559 6 16.6238 6C11.8414 6 7 7.37508 7 10.0031V30.0189C7 32.6049 11.9583 34 16.6238 34C22.0559 34 25.9978 32.3257 25.9978 30.0189V27.9603H32.988V26.9595H20.058V16.0079Z" fill="#C925D1"/>
</g>
<rect x="0.5" y="0.5" width="39" height="39" stroke="#C925D1"/>
<defs>
<clipPath id="clip0_23296_3540">
<rect width="40" height="40" fill="white"/>
</clipPath>
</defs>
</svg>
