<svg width="32" height="32" viewBox="0 0 97 106" fill="none" xmlns="http://www.w3.org/2000/svg">
<path d="M9.9026 27.323L7.51855 23.2999L21.5844 16.1477L23.9685 20.1708L9.9026 27.323ZM32.3127 15.9242L29.9286 11.9012L42.5641 5.41953L44.9481 9.44261L32.3127 15.9242Z" fill="white"/>
<path d="M45.1865 48.3324L32.551 42.0743L34.6967 38.0512L47.3321 44.3094L45.1865 48.3324ZM23.9685 37.8277L11.333 31.5696L13.4787 27.5465L26.1141 33.8046L23.9685 37.8277Z" fill="white"/>
<path d="M54.484 47.8858L52.3384 43.8627L65.2122 38.0516L67.3579 42.0747L54.484 47.8858ZM75.9405 38.0516L73.7948 34.0285L86.6687 28.2174L88.8143 32.2405L75.9405 38.0516Z" fill="white"/>
<path d="M43.7562 100.856L29.4519 93.7042L31.5975 89.6811L45.9018 96.8333L43.7562 100.856ZM22.2997 90.5751L9.66428 84.317L11.8099 80.2939L24.4454 86.5521L22.2997 90.5751Z" fill="white"/>
<path d="M9.42608 33.1348H4.65799V50.3446H9.42608V33.1348Z" fill="white"/>
<path d="M51.385 77.6118H46.6169V95.2687H51.385V77.6118Z" fill="white"/>
<path d="M7.04194 34.9227C5.37311 34.9227 3.70427 34.2522 2.51225 33.1347C1.32023 32.0172 0.605011 30.4526 0.605011 28.8881C0.605011 27.3236 1.32023 25.759 2.51225 24.6415C4.8963 22.4065 9.18758 22.4065 11.5716 24.6415C12.7637 25.759 13.4789 27.3236 13.4789 28.8881C13.4789 30.4526 12.7637 32.0172 11.5716 33.1347C10.3796 34.2522 8.71077 34.9227 7.04194 34.9227ZM7.04194 27.3236C6.56513 27.3236 6.08832 27.5471 5.84992 27.7706C5.61151 27.9941 5.37311 28.4411 5.37311 28.8881C5.37311 29.3351 5.61151 29.7821 5.84992 30.0056C6.56513 30.6761 7.51875 30.6761 8.23396 30.0056C8.47237 29.7821 8.71077 29.3351 8.71077 28.8881C8.71077 28.4411 8.47237 27.9941 8.23396 27.7706C7.99556 27.5471 7.51875 27.3236 7.04194 27.3236Z" fill="white"/>
<path d="M7.04194 84.9873C5.37311 84.9873 3.70427 84.3168 2.51225 83.1992C1.32023 82.0817 0.605011 80.5172 0.605011 78.9527C0.605011 77.3881 1.32023 75.8236 2.51225 74.7061C4.8963 72.471 9.18758 72.471 11.5716 74.7061C12.7637 75.8236 13.4789 77.3881 13.4789 78.9527C13.4789 80.5172 12.7637 82.0817 11.5716 83.1992C10.3796 84.3168 8.71077 84.9873 7.04194 84.9873ZM7.04194 77.3881C6.56513 77.3881 6.08832 77.6116 5.84992 77.8351C5.61151 78.0586 5.37311 78.5056 5.37311 78.9527C5.37311 79.3997 5.61151 79.8467 5.84992 80.0702C6.56513 80.7407 7.51875 80.7407 8.23396 80.0702C8.47237 79.8467 8.71077 79.3997 8.71077 78.9527C8.71077 78.5056 8.47237 78.0586 8.23396 77.8351C7.99556 77.6116 7.51875 77.3881 7.04194 77.3881Z" fill="white"/>
<path d="M49.0013 105.103C47.3325 105.103 45.6636 104.433 44.4716 103.315C43.2796 102.198 42.5644 100.633 42.5644 99.0685C42.5644 97.504 43.2796 95.9395 44.4716 94.8219C47.0941 92.3634 51.1469 92.3634 53.531 94.8219C56.1534 97.2805 56.1534 101.08 53.531 103.315C52.1006 104.433 50.6701 105.103 49.0013 105.103ZM49.0013 97.2805C48.5245 97.2805 48.0477 97.504 47.8093 97.7275C47.0941 98.398 47.0941 99.292 47.8093 99.9625C48.5245 100.633 49.4781 100.633 50.1933 99.9625C50.9085 99.292 50.9085 98.398 50.1933 97.7275C49.7165 97.504 49.2397 97.2805 49.0013 97.2805Z" fill="white"/>
<path d="M49.0013 54.8146C47.3325 54.8146 45.6636 54.1441 44.4716 53.0265C43.2796 51.909 42.5644 50.3445 42.5644 48.78C42.5644 47.2154 43.2796 45.6509 44.4716 44.5334C47.0941 42.0748 51.1469 42.0748 53.531 44.5334C56.1534 46.9919 56.1534 50.7915 53.531 53.0265C52.1006 54.3676 50.6701 54.8146 49.0013 54.8146ZM49.0013 47.2154C48.5245 47.2154 48.0477 47.4389 47.8093 47.6624C47.0941 48.3329 47.0941 49.227 47.8093 49.8975C48.5245 50.568 49.4781 50.568 50.1933 49.8975C50.9085 49.227 50.9085 48.3329 50.1933 47.6624C49.7165 47.4389 49.2397 47.2154 49.0013 47.2154Z" fill="white"/>
<path d="M90.2452 84.9873C88.5764 84.9873 86.9076 84.3168 85.7155 83.1992C83.0931 80.7407 83.0931 76.9411 85.7155 74.7061C88.0996 72.471 92.3909 72.471 94.7749 74.7061C95.9669 75.8236 96.6822 77.3881 96.6822 78.9527C96.6822 80.5172 95.9669 82.0817 94.7749 83.1992C93.5829 84.3168 91.9141 84.9873 90.2452 84.9873ZM90.2452 77.3881C89.7684 77.3881 89.2916 77.6116 89.0532 77.8351C88.338 78.5056 88.338 79.3997 89.0532 80.0702C89.7684 80.7407 90.722 80.7407 91.4372 80.0702C92.1525 79.3997 92.1525 78.5056 91.4372 77.8351C91.1988 77.6116 90.722 77.3881 90.2452 77.3881Z" fill="white"/>
<path d="M90.2452 34.9227C88.5764 34.9227 86.9076 34.2522 85.7156 33.1347C83.0931 30.6761 83.0931 26.8766 85.7156 24.6415C88.0996 22.4065 92.3909 22.4065 94.7749 24.6415C97.3974 27.1001 97.3974 30.8996 94.7749 33.1347C93.5829 34.2522 91.9141 34.9227 90.2452 34.9227ZM90.2452 27.3236C89.7684 27.3236 89.2916 27.5471 89.0532 27.7706C88.338 28.4411 88.338 29.3351 89.0532 30.0056C89.7684 30.6761 90.7221 30.6761 91.4373 30.0056C92.1525 29.3351 92.1525 28.4411 91.4373 27.7706C91.1989 27.5471 90.7221 27.3236 90.2452 27.3236Z" fill="white"/>
<path d="M49.0013 12.1251C47.3325 12.1251 45.6637 11.4546 44.4716 10.3371C43.2796 9.21956 42.5644 7.65503 42.5644 6.0905C42.5644 4.52597 43.2796 2.96144 44.4716 1.84391C47.0941 -0.614637 51.147 -0.614637 53.531 1.84391C56.1535 4.30246 56.1535 8.10204 53.531 10.3371C52.1006 11.4546 50.6702 12.1251 49.0013 12.1251ZM49.0013 4.52597C48.5245 4.52597 48.0477 4.74947 47.8093 4.97298C47.0941 5.64349 47.0941 6.53751 47.8093 7.20802C48.5245 7.87853 49.4781 7.87853 50.1933 7.20802C50.9086 6.53751 50.9086 5.64349 50.1933 4.97298C49.7165 4.52597 49.2397 4.52597 49.0013 4.52597Z" fill="white"/>
<path d="M9.42611 54.8145H4.65802V74.0359H9.42611V54.8145Z" fill="white"/>
<path d="M92.3909 33.1348H87.6228V50.3446H92.3909V33.1348Z" fill="white"/>
<path d="M92.3909 54.8145H87.6228V74.0359H92.3909V54.8145Z" fill="white"/>
<path d="M74.034 19.9475L76.4181 15.9244L90.0071 22.8531L87.6231 26.8762L74.034 19.9475ZM51.1472 8.3253L53.5312 4.30222L68.0739 11.6779L65.6898 15.7009L51.1472 8.3253Z" fill="white"/>
<path d="M51.385 53.0269H46.6169V70.6837H51.385V53.0269Z" fill="white"/>
<path d="M52.1004 97.0568L65.9279 90.3516L68.0736 94.3747L54.2461 101.08L52.1004 97.0568ZM72.8416 86.9991L86.4307 80.2939L88.5764 84.317L74.9873 91.0222L72.8416 86.9991Z" fill="white"/>
</svg>
