<svg width="32" height="32" viewBox="0 0 32 32" fill="none" xmlns="http://www.w3.org/2000/svg">
    <g clip-path="url(#clip0_109_345)">
        <path
            d="M18.4528 11.586H13.4313L10.9126 15.9393L13.4313 20.2624H18.4528L20.9904 15.9377L18.4528 11.586ZM17.7961 19.1028H14.1165L12.245 15.9456L14.1069 12.7456H17.7961L19.6566 15.9456L17.7961 19.1028Z"
            fill="white" />
        <path
            d="M18.4528 20.922H13.4313L10.9126 25.2713L13.4313 29.5984H18.4528L20.9904 25.2713L18.4528 20.922ZM17.7961 28.4366H14.1165L12.245 25.2793L14.1069 22.0775H17.7961L19.6566 25.2793L17.7961 28.4366Z"
            fill="white" />
        <path
            d="M18.4528 2.25H13.4313L10.9126 6.60485L13.4313 10.9264H18.4528L20.9904 6.60485L18.4528 2.25ZM17.7961 9.77084H14.1165L12.245 6.60485L14.1069 3.40717H17.7961L19.6502 6.60485L17.7961 9.77084Z"
            fill="white" />
        <path
            d="M26.6568 16.2541H21.6338L19.1167 20.6073L21.6338 24.9305H26.6568L29.1945 20.6073L26.6568 16.2541ZM25.9922 23.7697H22.3126L20.4506 20.6136L22.3126 17.4085H25.9922L27.8543 20.6073L25.9922 23.7697Z"
            fill="white" />
        <path
            d="M26.6568 6.91801H21.6338L19.1167 11.2951L21.6338 15.6451H26.6568L29.1945 11.2951L26.6568 6.91801ZM25.9922 14.4804H22.3126L20.4506 11.3047L22.3126 8.08598H25.9922L27.8543 11.3047L25.9922 14.4804Z"
            fill="white" />
        <path
            d="M10.2615 16.2541H5.26524L2.75926 20.6073L5.26524 24.9305H10.2615L12.7864 20.6073L10.2615 16.2541ZM9.60184 23.7697H5.9407L4.08801 20.6136L5.9407 17.4085H9.60184L11.4545 20.6136L9.60184 23.7697Z"
            fill="white" />
        <path
            d="M10.2615 6.91801H5.26524L2.75926 11.2951L5.26524 15.6451H10.2615L12.7864 11.2951L10.2615 6.91801ZM9.60184 14.4804H5.9407L4.088 11.3015L5.9407 8.08278H9.60184L11.4545 11.3015L9.60184 14.4804Z"
            fill="white" />
    </g>
    <defs>
        <clipPath id="clip0_109_345">
            <rect width="27.5" height="27.5" fill="white" transform="translate(2.25 2.25)" />
        </clipPath>
    </defs>
</svg>