<svg width="32" height="32" viewBox="0 0 78 76" fill="none" xmlns="http://www.w3.org/2000/svg">
<path fill-rule="evenodd" clip-rule="evenodd" d="M37.1185 45.6021C32.6041 45.6021 29.0926 42.0654 29.0926 37.518C29.0926 32.9706 32.6041 29.4335 37.1185 29.4335C41.633 29.4335 45.1441 32.9706 45.1441 37.518C45.1441 42.0654 41.633 45.6021 37.1185 45.6021Z" fill="white"/>
<path fill-rule="evenodd" clip-rule="evenodd" d="M52.7934 41.3077C50.7875 41.3077 49.0315 39.665 49.0315 37.518C49.0315 35.4967 50.6615 33.7283 52.7934 33.7283C54.7993 33.7283 56.5556 35.3706 56.5556 37.518C56.5556 39.665 54.7997 41.3073 52.7934 41.3073V41.3077ZM66.3371 44.8432C65.8356 46.8637 63.8286 47.9993 61.8223 47.4942C59.8164 46.989 58.6871 44.9685 59.1889 42.948C59.6904 40.9275 61.6963 39.788 63.7034 40.2931C65.581 40.7982 66.8366 42.5662 66.4596 44.5887C66.4596 44.5887 66.4596 44.714 66.3352 44.8401L66.3371 44.8432ZM63.6995 35.2398C61.692 35.745 59.6858 34.4817 59.1843 32.4604C58.6828 30.4399 59.9365 28.4182 61.9432 27.9127C63.9491 27.4075 65.9558 28.6711 66.4572 30.6928C66.5824 31.198 66.5824 31.7031 66.4572 32.2082C66.3317 33.5983 65.3283 34.8608 63.6983 35.2398H63.6995ZM76.9894 44.3342C76.6123 46.3547 74.7308 47.7448 72.7249 47.3661C70.719 46.9871 69.339 45.0922 69.716 43.0713C70.0916 41.0508 71.9727 39.6607 73.979 40.0394C75.8605 40.4184 77.2405 42.1868 77.115 44.0816C76.9906 44.2077 76.9906 44.2077 76.9906 44.3342H76.9894ZM73.986 34.9916C71.9801 35.3706 70.0986 33.9813 69.7227 31.96C69.3464 29.9395 70.7256 28.0442 72.7323 27.6652C74.7382 27.2865 76.6197 28.6754 76.9956 30.6968C76.9956 31.0758 77.1212 31.3284 76.9956 31.707C76.8704 33.3493 75.6164 34.739 73.986 34.9916ZM71.3526 57.3493C70.3497 59.1177 68.0923 59.7497 66.3367 58.7387C64.5812 57.7284 63.9537 55.4545 64.9575 53.6862C65.9604 51.9178 68.2178 51.2858 69.9734 52.2968C71.2275 53.0545 71.9793 54.4438 71.8541 55.8335C71.7289 56.3387 71.6034 56.8438 71.3526 57.3489V57.3493ZM69.9734 22.9921C68.2178 24.0024 65.9604 23.3708 64.9575 21.602C63.9545 19.8337 64.5812 17.5602 66.3367 16.5495C68.0923 15.5393 70.3493 16.1705 71.3526 17.9396C71.7289 18.6969 71.8541 19.3285 71.8541 20.0862C71.7289 21.2234 71.1019 22.3601 69.9734 22.9917" fill="white"/>
<path d="M37.2437 75.2858C27.2119 75.2858 17.9322 71.3701 10.7845 64.2967C3.88741 57.0956 0 47.6195 0 37.6421C0 27.5356 3.88741 18.1887 10.9096 10.9876C17.9322 3.91575 27.3371 0 37.2437 0C45.52 0 53.4204 2.65214 59.9412 7.7062L55.3031 13.7682C50.0356 9.72908 43.7653 7.58129 37.2461 7.58129C29.3461 7.58129 21.822 10.7393 16.179 16.4231C10.5384 22.1076 7.52836 29.5604 7.52836 37.6441C7.52836 45.6021 10.6632 53.181 16.3061 58.8651C21.9491 64.5492 29.3484 67.5808 37.3736 67.5808C44.0199 67.5808 50.2899 65.4334 55.4306 61.3912L59.9454 67.4528C53.4251 72.5041 45.5251 75.2843 37.2484 75.2843L37.2437 75.2858Z" fill="white"/>
</svg>
