<svg width="32" height="32" viewBox="0 0 32 32" fill="none" xmlns="http://www.w3.org/2000/svg">
    <path
        d="M12.7516 18.6584C12.7918 18.6503 12.8329 18.647 12.8739 18.6489C12.9446 18.6528 13.014 18.6713 13.0777 18.7034C13.2013 18.7649 13.2971 18.8731 13.3451 19.0056C13.3931 19.1381 13.3897 19.2846 13.3355 19.4145L13.3392 19.42L12.1197 22.4561C10.9529 21.6889 10.0674 20.5428 9.60337 19.199L12.7462 18.6517L12.7516 18.6584ZM17.6417 19.0888C17.6682 18.9691 17.7328 18.862 17.8253 18.7847C17.9179 18.7074 18.0329 18.6642 18.1519 18.6623C18.1871 18.6619 18.2223 18.665 18.2568 18.6718L18.2621 18.6652L21.3776 19.2103C20.9097 20.5434 20.028 21.6802 18.8691 22.4443L17.6618 19.4382L17.6714 19.4264C17.6267 19.32 17.6163 19.2017 17.6417 19.0888ZM15.0325 20.2678C15.078 20.1803 15.1456 20.1073 15.2283 20.0564C15.3109 20.0056 15.4055 19.9787 15.5017 19.9788C15.5979 19.9789 15.6924 20.0059 15.7748 20.057C15.8574 20.1082 15.9249 20.1814 15.9702 20.2689H15.9728L17.5049 23.1237C16.4079 23.5086 15.2286 23.571 14.099 23.3042C13.8896 23.2551 13.685 23.1962 13.4852 23.1275L15.0209 20.2676L15.0325 20.2678ZM10.1825 13.6362L12.5397 15.8103L12.5384 15.8173C12.6108 15.8825 12.6647 15.9667 12.6944 16.0609C12.7241 16.1553 12.7285 16.2561 12.7071 16.3527C12.6857 16.4494 12.6393 16.5382 12.5728 16.6099C12.5064 16.6815 12.4224 16.7333 12.3296 16.7597L12.3268 16.7728L9.27347 17.6791C9.14148 16.2655 9.46064 14.8462 10.1825 13.6365V13.6362ZM14.5618 13.8798C14.5574 13.9788 14.527 14.0748 14.4739 14.1574C14.4208 14.2401 14.3471 14.3063 14.2603 14.3493C14.1736 14.3923 14.0773 14.4101 13.9815 14.4011C13.8856 14.3922 13.794 14.3566 13.7162 14.2983L13.707 14.3025L11.1276 12.4177C12.1094 11.4268 13.38 10.7956 14.7439 10.6213L14.5647 13.8789L14.5618 13.8798ZM17.2934 14.3104C17.2155 14.3687 17.1238 14.4041 17.028 14.413C16.9322 14.4219 16.8359 14.4038 16.7492 14.3606C16.6626 14.3176 16.5889 14.2511 16.5361 14.1683C16.4832 14.0855 16.4531 13.9894 16.449 13.8904L16.4359 13.8839L16.2566 10.6213C16.4729 10.6481 16.6878 10.6862 16.9003 10.7355C18.031 10.9974 19.0681 11.5798 19.8946 12.4168L17.2983 14.3133L17.2934 14.3104ZM18.6774 16.7755C18.5845 16.7494 18.5001 16.6978 18.4335 16.6262C18.3668 16.5545 18.3202 16.4656 18.2988 16.3688C18.2773 16.2721 18.2817 16.1711 18.3116 16.0767C18.3414 15.9824 18.3956 15.8982 18.4683 15.833L18.4658 15.8201L20.836 13.6355C21.5591 14.8483 21.8695 16.2748 21.718 17.6897L18.6798 16.7863L18.6774 16.7755ZM16.3752 17.7352L15.5008 18.1685L14.6291 17.7362L14.4125 16.7663L15.016 15.9888H15.9869L16.592 16.7651L16.3752 17.7352Z"
        fill="white" />
    <path
        d="M1.04612 19.6462L3.53764 8.49418C3.60464 8.20565 3.73296 7.93607 3.91332 7.70485C4.09367 7.47362 4.32159 7.28656 4.58062 7.1571L14.6659 2.19524C14.9272 2.06671 15.2133 2 15.5029 2C15.7924 2 16.0784 2.06671 16.3398 2.19524L26.423 7.15976C26.6821 7.2891 26.9101 7.47616 27.0906 7.70735C27.2709 7.93857 27.3993 8.20815 27.4663 8.49668L29.9538 19.6484C30.0152 19.9302 30.0154 20.2227 29.9544 20.5046C29.9364 20.5905 29.913 20.6751 29.8842 20.7578C29.8355 20.8989 29.7711 21.0338 29.6921 21.1596C29.658 21.2133 29.6219 21.2656 29.5827 21.3164L22.6033 30.2582C22.5727 30.2972 22.5392 30.3327 22.5058 30.3688C22.3964 30.489 22.2727 30.5945 22.1377 30.6832C21.9671 30.7938 21.7811 30.8772 21.5862 30.9303C21.4263 30.9754 21.2614 30.9989 21.0956 31H20.9871L9.90318 30.9974C9.8358 30.997 9.76851 30.9929 9.70154 30.9851C9.6055 30.9739 9.51041 30.9553 9.41709 30.9294C9.3502 30.9113 9.2843 30.8895 9.2196 30.8642C9.16912 30.8444 9.11876 30.8245 9.07013 30.8004C8.99731 30.7646 8.92668 30.724 8.85862 30.6794C8.68303 30.5655 8.52664 30.4229 8.3957 30.2571L8.1829 29.9845L1.41866 21.3134C1.28901 21.1458 1.18715 20.9574 1.11719 20.7556C1.08798 20.6726 1.06409 20.5877 1.04569 20.5015C0.98458 20.2196 0.984773 19.9273 1.04626 19.6455L1.04612 19.6462ZM11.5069 23.9835C11.4786 24.0693 11.445 24.1531 11.4064 24.2345C11.4681 24.3458 11.4849 24.4775 11.4531 24.6014C11.3064 24.9477 11.1272 25.2784 10.918 25.5888C10.8009 25.7475 10.6929 25.913 10.5944 26.0845C10.5701 26.131 10.5383 26.2029 10.5153 26.252C10.4718 26.3267 10.444 26.4101 10.4338 26.4967C10.4235 26.5832 10.4308 26.671 10.4554 26.7544C10.48 26.8379 10.5212 26.9151 10.5766 26.9811C10.6319 27.0471 10.6999 27.1004 10.7764 27.1377C10.8529 27.175 10.9361 27.1953 11.0208 27.1975C11.1053 27.1996 11.1894 27.1834 11.2676 27.1501C11.3457 27.1167 11.4163 27.0669 11.4746 27.0037C11.533 26.9406 11.5779 26.8656 11.6065 26.7835C11.6295 26.7348 11.6615 26.67 11.6811 26.6241C11.75 26.4377 11.8086 26.2474 11.8562 26.0541C11.9609 25.6924 12.0997 25.3421 12.2705 25.0081C12.3447 24.9049 12.4553 24.8358 12.5785 24.8156C12.5978 24.7812 12.6693 24.6463 12.7077 24.5764C14.5029 25.277 16.4858 25.2718 18.2776 24.5616L18.4141 24.8167C18.5116 24.8323 18.6024 24.8778 18.6743 24.9472C18.8801 25.2953 19.0374 25.6715 19.1417 26.0647C19.189 26.258 19.2471 26.4483 19.3158 26.6347C19.3351 26.6804 19.3675 26.7443 19.3905 26.7928V26.7941L19.3915 26.7954C19.42 26.8775 19.4649 26.9526 19.5233 27.0159C19.5816 27.079 19.6522 27.129 19.7305 27.1624C19.8088 27.1957 19.893 27.2118 19.9777 27.2096C20.0623 27.2073 20.1456 27.187 20.2221 27.1495C20.2987 27.1121 20.3667 27.0585 20.4219 26.9923C20.4771 26.9261 20.5183 26.8487 20.5426 26.7652C20.5671 26.6815 20.5742 26.5936 20.5636 26.5071C20.553 26.4204 20.5249 26.3372 20.4811 26.2624C20.4583 26.2131 20.4279 26.1416 20.4039 26.0951C20.3055 25.9232 20.1974 25.7573 20.0804 25.5981C19.8674 25.2795 19.6845 24.9407 19.5341 24.5863C19.5181 24.4661 19.5368 24.3438 19.5879 24.2345L19.478 23.9633C21.13 22.9587 22.368 21.3658 22.9586 19.4853L23.2216 19.5314C23.3236 19.4568 23.444 19.4131 23.5689 19.4054C23.9287 19.4764 24.281 19.5832 24.6208 19.7244C24.7973 19.8062 24.9781 19.8776 25.1624 19.9381C25.206 19.9505 25.2689 19.9629 25.3187 19.9741C25.3227 19.9756 25.3262 19.9774 25.3302 19.9784C25.3332 19.9788 25.3363 19.9792 25.3394 19.9793C25.4195 20.0064 25.5043 20.0161 25.5882 20.0075C25.6722 19.9989 25.7535 19.9725 25.8268 19.9297C25.9003 19.8869 25.9642 19.8288 26.0146 19.7591C26.065 19.6895 26.1007 19.6097 26.1193 19.525C26.1381 19.4402 26.1394 19.3524 26.1234 19.2671C26.1073 19.1818 26.0741 19.1008 26.0259 19.0296C25.9777 18.9582 25.9156 18.898 25.8436 18.8529C25.7715 18.8078 25.6911 18.7786 25.6075 18.7673L25.5987 18.7651L25.5934 18.7636C25.543 18.7514 25.4783 18.7342 25.4323 18.725C25.2403 18.6976 25.0469 18.6815 24.8531 18.677C24.4875 18.6523 24.1253 18.591 23.7713 18.4939C23.6665 18.4251 23.5778 18.333 23.512 18.2242L23.2592 18.1482C23.5334 16.1854 23.0948 14.1875 22.0275 12.5375L22.221 12.3598C22.2281 12.2307 22.27 12.1064 22.3423 12.0007C22.6202 11.7546 22.9209 11.5369 23.2399 11.3509C23.4122 11.2603 23.5793 11.1597 23.7403 11.0494C23.7769 11.0212 23.8255 10.9789 23.8653 10.9456L23.8743 10.9392C24.0116 10.8375 24.1043 10.684 24.1321 10.5122C24.1599 10.3404 24.1206 10.1643 24.0227 10.0222C23.965 9.94931 23.8913 9.89147 23.8078 9.85336C23.7242 9.81526 23.633 9.79798 23.5418 9.80293C23.3883 9.80973 23.2407 9.86707 23.1211 9.96654C23.08 9.9997 23.0238 10.044 22.9873 10.0763C22.8469 10.2132 22.7141 10.3584 22.5898 10.5111C22.3432 10.7903 22.0706 11.0441 21.776 11.2689C21.6657 11.3287 21.537 11.3414 21.4175 11.3046C21.3457 11.3587 21.2731 11.4118 21.1998 11.4641C20.1393 10.3024 18.7658 9.4939 17.256 9.14246C16.8967 9.05859 16.5321 9.00084 16.1649 8.96956L16.1506 8.70666C16.0569 8.62083 15.9889 8.50916 15.9547 8.38481C15.9415 8.0075 15.964 7.6297 16.0219 7.25689C16.0602 7.06149 16.0878 6.86399 16.1043 6.66535C16.1058 6.62012 16.1034 6.55761 16.1028 6.50604C16.1028 6.50015 16.1043 6.49437 16.1043 6.48865C16.1128 6.4017 16.1036 6.31387 16.0772 6.23081C16.0508 6.14776 16.0078 6.07135 15.9509 6.0065C15.8941 5.94163 15.8247 5.88977 15.7472 5.85428C15.6696 5.81876 15.5858 5.80041 15.501 5.80038C15.4162 5.80033 15.3323 5.81859 15.2548 5.85404C15.1773 5.88944 15.1078 5.94126 15.0509 6.00606C14.994 6.07086 14.9509 6.14724 14.9244 6.23024C14.8979 6.31329 14.8886 6.40109 14.8972 6.48807C14.8972 6.54259 14.894 6.61496 14.8958 6.66489C14.9124 6.8635 14.94 7.06095 14.9786 7.25628C15.0368 7.62921 15.0597 8.00705 15.047 8.38452C15.0231 8.51072 14.9523 8.6223 14.8498 8.69548C14.8477 8.74042 14.8405 8.89044 14.8352 8.97312C12.9271 9.15192 11.1469 10.0383 9.82525 11.4676L9.59556 11.2986C9.47222 11.3204 9.3454 11.3062 9.22947 11.2576C8.935 11.0325 8.66246 10.7784 8.41575 10.499C8.29116 10.3462 8.15806 10.2011 8.01718 10.0642C7.98012 10.0315 7.92421 9.98758 7.88329 9.9543C7.82272 9.89274 7.75032 9.84501 7.67068 9.81423C7.59105 9.78341 7.50602 9.77019 7.42113 9.77543C7.3362 9.78066 7.25333 9.80424 7.17786 9.8446C7.10235 9.885 7.03596 9.94128 6.98294 10.0098C6.92993 10.0784 6.89152 10.1576 6.87015 10.2425C6.84879 10.3273 6.84501 10.4158 6.859 10.5023C6.87298 10.5887 6.90449 10.6712 6.95137 10.7443C6.99829 10.8174 7.05963 10.8795 7.13135 10.9266C7.17185 10.9604 7.22531 11.0074 7.26421 11.0372C7.4256 11.1475 7.59305 11.2482 7.76574 11.3386C8.08475 11.5248 8.38538 11.7424 8.66344 11.9886C8.74436 12.0862 8.78501 12.2126 8.77669 12.3408C8.8103 12.3726 8.92827 12.4803 8.99077 12.5387C7.92042 14.1828 7.473 16.1746 7.73341 18.1361L7.48976 18.2092C7.42884 18.3222 7.33874 18.4156 7.22947 18.4791C6.87533 18.5763 6.51284 18.6378 6.14717 18.6626C5.95354 18.6671 5.76036 18.6831 5.56851 18.7103C5.51777 18.7199 5.44442 18.7408 5.39262 18.753C5.30902 18.7644 5.22859 18.7935 5.15657 18.8387C5.08454 18.8839 5.02244 18.9442 4.97427 19.0155C4.92612 19.0868 4.89294 19.1677 4.87688 19.2531C4.86081 19.3384 4.86222 19.4262 4.88099 19.5109C4.89977 19.5957 4.93551 19.6754 4.98593 19.7451C5.03633 19.8148 5.10031 19.8728 5.17377 19.9156C5.2472 19.9582 5.32849 19.9847 5.41243 19.9932C5.49637 20.0018 5.58111 19.992 5.66123 19.9649L5.66992 19.9636C5.67393 19.9626 5.67763 19.9604 5.68179 19.9594C5.73155 19.9482 5.79406 19.937 5.83769 19.9252C6.02198 19.8642 6.20271 19.7922 6.37899 19.7098C6.71909 19.5684 7.07176 19.4615 7.43194 19.3907C7.5566 19.3866 7.67787 19.433 7.76975 19.5199C7.85558 19.5031 7.94156 19.4876 8.02773 19.4733C8.61134 21.3656 9.84957 22.9708 11.5069 23.9835Z"
        fill="white" />
</svg>