<svg width="32" height="32" viewBox="0 0 32 32" fill="none" xmlns="http://www.w3.org/2000/svg">
    <g clip-path="url(#clip0_7013_29309)">
        <path
            d="M12.9673 18.3817C13.0117 18.3727 13.057 18.3691 13.1022 18.3712C13.1803 18.3755 13.2568 18.3959 13.3271 18.4313C13.4635 18.4992 13.5692 18.6186 13.6222 18.7648C13.6752 18.911 13.6714 19.0726 13.6116 19.216L13.6157 19.222L12.27 22.5722C10.9825 21.7257 10.0054 20.461 9.49339 18.9782L12.9613 18.3743L12.9673 18.3817ZM18.3633 18.8566C18.3925 18.7245 18.4638 18.6063 18.5659 18.521C18.668 18.4357 18.7949 18.3881 18.9263 18.386C18.9651 18.3855 19.0039 18.389 19.042 18.3965L19.0478 18.3892L22.4856 18.9906C21.9694 20.4617 20.9964 21.7161 19.7177 22.5592L18.3855 19.2421L18.396 19.2291C18.3467 19.1117 18.3353 18.9812 18.3633 18.8566ZM15.4841 20.1575C15.5344 20.061 15.609 19.9804 15.7002 19.9243C15.7914 19.8682 15.8957 19.8386 16.0019 19.8387C16.1081 19.8388 16.2123 19.8686 16.3033 19.925C16.3944 19.9814 16.4689 20.0622 16.5189 20.1588H16.5217L18.2123 23.3089C17.0018 23.7336 15.7005 23.8025 14.4541 23.5081C14.223 23.4539 13.9973 23.3889 13.7768 23.3131L15.4714 20.1573L15.4841 20.1575ZM10.1324 12.8399L12.7335 15.2389L12.732 15.2466C12.8119 15.3186 12.8714 15.4115 12.9042 15.5155C12.937 15.6196 12.9418 15.7308 12.9182 15.8374C12.8946 15.9441 12.8434 16.0421 12.77 16.1212C12.6967 16.2003 12.604 16.2574 12.5016 16.2865L12.4985 16.301L9.12936 17.301C8.98371 15.7412 9.33589 14.1751 10.1324 12.8403V12.8399ZM14.9648 13.1087C14.9599 13.218 14.9264 13.3239 14.8678 13.415C14.8092 13.5063 14.7278 13.5794 14.6321 13.6268C14.5364 13.6742 14.4301 13.6939 14.3244 13.684C14.2186 13.6741 14.1175 13.6349 14.0317 13.5705L14.0215 13.5751L11.1753 11.4954C12.2587 10.402 13.6607 9.7055 15.1657 9.51318L14.968 13.1077L14.9648 13.1087ZM17.9789 13.5839C17.893 13.6482 17.7918 13.6873 17.6861 13.6971C17.5804 13.7069 17.4741 13.6869 17.3785 13.6393C17.2829 13.5918 17.2016 13.5184 17.1433 13.4271C17.0849 13.3357 17.0517 13.2297 17.0472 13.1204L17.0327 13.1133L16.8349 9.51318C17.0736 9.54268 17.3107 9.58477 17.5452 9.6392C18.7928 9.92817 19.9372 10.5708 20.8492 11.4944L17.9844 13.5871L17.9789 13.5839ZM19.5061 16.304C19.4036 16.2752 19.3105 16.2182 19.237 16.1392C19.1634 16.0601 19.112 15.962 19.0883 15.8552C19.0646 15.7485 19.0695 15.6371 19.1025 15.5329C19.1354 15.4288 19.1952 15.3359 19.2754 15.264L19.2726 15.2498L21.888 12.8391C22.6859 14.1774 23.0284 15.7515 22.8613 17.3127L19.5088 16.3159L19.5061 16.304ZM16.9658 17.363L16.0009 17.8411L15.039 17.3641L14.8 16.2938L15.4659 15.4359H16.5373L17.205 16.2925L16.9658 17.363Z"
            fill="white" />
        <path
            d="M0.0508876 19.4717L2.80016 7.16599C2.87409 6.84761 3.01568 6.55015 3.2147 6.29501C3.41371 6.03986 3.66521 5.83345 3.95103 5.69059L15.0796 0.215438C15.368 0.0736072 15.6836 0 16.0032 0C16.3227 0 16.6383 0.0736072 16.9267 0.215438L28.053 5.69353C28.3389 5.83625 28.5905 6.04266 28.7896 6.29776C28.9886 6.55291 29.1303 6.85037 29.2042 7.16875L31.9491 19.4741C32.0168 19.7851 32.017 20.1078 31.9497 20.4189C31.9299 20.5137 31.904 20.607 31.8722 20.6983C31.8185 20.854 31.7474 21.0028 31.6603 21.1416C31.6226 21.2009 31.5828 21.2586 31.5396 21.3146L23.8381 31.1815C23.8044 31.2245 23.7674 31.2637 23.7306 31.3035C23.6098 31.4361 23.4733 31.5526 23.3244 31.6504C23.1361 31.7725 22.9309 31.8645 22.7158 31.9231C22.5394 31.9729 22.3574 31.9988 22.1745 32H22.0547L9.82421 31.9971C9.74986 31.9967 9.6756 31.9922 9.60171 31.9836C9.49573 31.9712 9.3908 31.9507 9.28783 31.9221C9.21402 31.9021 9.1413 31.8781 9.06991 31.8502C9.01421 31.8283 8.95864 31.8063 8.90498 31.7798C8.82463 31.7402 8.74669 31.6955 8.67159 31.6462C8.47783 31.5206 8.30527 31.3632 8.16078 31.1803L7.92597 30.8794L0.461967 21.3113C0.318906 21.1264 0.206506 20.9185 0.129314 20.6958C0.0970817 20.6043 0.0707249 20.5106 0.0504132 20.4155C-0.0170154 20.1044 -0.0168022 19.7818 0.0510437 19.4709L0.0508876 19.4717ZM11.5938 24.2577C11.5626 24.3523 11.5255 24.4448 11.4829 24.5346C11.551 24.6574 11.5695 24.8028 11.5345 24.9395C11.3726 25.3216 11.1748 25.6865 10.944 26.029C10.8148 26.2041 10.6956 26.3868 10.5869 26.576C10.5601 26.6273 10.525 26.7066 10.4996 26.7608C10.4517 26.8433 10.421 26.9353 10.4097 27.0308C10.3983 27.1263 10.4064 27.2232 10.4336 27.3152C10.4607 27.4073 10.5062 27.4925 10.5673 27.5653C10.6283 27.6382 10.7034 27.697 10.7878 27.7381C10.8722 27.7793 10.964 27.8017 11.0574 27.8041C11.1507 27.8064 11.2435 27.7886 11.3298 27.7518C11.416 27.715 11.4939 27.66 11.5582 27.5903C11.6226 27.5207 11.6722 27.4379 11.7037 27.3473C11.7291 27.2936 11.7644 27.2221 11.786 27.1714C11.8621 26.9657 11.9267 26.7557 11.9793 26.5424C12.0948 26.1433 12.2479 25.7568 12.4364 25.3883C12.5183 25.2744 12.6403 25.1981 12.7763 25.1758C12.7976 25.1379 12.8765 24.989 12.9188 24.9119C14.8998 25.685 17.0878 25.6792 19.0649 24.8956L19.2156 25.1771C19.3232 25.1943 19.4233 25.2445 19.5027 25.3211C19.7298 25.7052 19.9034 26.1203 20.0184 26.5541C20.0706 26.7674 20.1348 26.9774 20.2106 27.1831C20.2319 27.2335 20.2676 27.3041 20.293 27.3576V27.359L20.2941 27.3604C20.3255 27.451 20.3751 27.5339 20.4395 27.6037C20.5039 27.6734 20.5818 27.7285 20.6682 27.7654C20.7546 27.8022 20.8475 27.8199 20.9409 27.8175C21.0343 27.815 21.1262 27.7925 21.2106 27.7512C21.2951 27.7099 21.3702 27.6508 21.4311 27.5777C21.492 27.5047 21.5374 27.4193 21.5643 27.3271C21.5913 27.2348 21.5991 27.1378 21.5874 27.0423C21.5757 26.9467 21.5447 26.8548 21.4964 26.7723C21.4713 26.7179 21.4377 26.639 21.4112 26.5877C21.3026 26.398 21.1834 26.2149 21.0542 26.0393C20.8192 25.6877 20.6174 25.3139 20.4514 24.9228C20.4338 24.7902 20.4544 24.6552 20.5108 24.5346L20.3895 24.2354C22.2124 23.1268 23.5785 21.3692 24.2302 19.2941L24.5204 19.345C24.633 19.2627 24.7658 19.2145 24.9036 19.206C25.3007 19.2843 25.6894 19.4022 26.0644 19.558C26.2591 19.6482 26.4586 19.727 26.662 19.7938C26.7101 19.8075 26.7795 19.8211 26.8345 19.8335C26.8389 19.8351 26.8427 19.8371 26.8471 19.8382C26.8505 19.8387 26.8539 19.8391 26.8573 19.8392C26.9457 19.8691 27.0393 19.8798 27.1318 19.8703C27.2245 19.8609 27.3142 19.8317 27.3951 19.7845C27.4762 19.7373 27.5467 19.6732 27.6023 19.5963C27.6579 19.5194 27.6973 19.4314 27.7179 19.3379C27.7386 19.2444 27.7401 19.1475 27.7224 19.0534C27.7046 18.9592 27.668 18.8699 27.6148 18.7913C27.5616 18.7125 27.4931 18.6461 27.4136 18.5963C27.3341 18.5465 27.2454 18.5143 27.1531 18.5019L27.1434 18.4994L27.1376 18.4978C27.0819 18.4843 27.0106 18.4653 26.9598 18.4552C26.7479 18.4249 26.5345 18.4072 26.3207 18.4022C25.9173 18.375 25.5176 18.3073 25.127 18.2002C25.0113 18.1242 24.9135 18.0226 24.8408 17.9026L24.5619 17.8187C24.8645 15.6529 24.3805 13.4483 23.2028 11.6276L23.4163 11.4315C23.4241 11.2891 23.4704 11.1519 23.5501 11.0353C23.8568 10.7637 24.1886 10.5235 24.5406 10.3182C24.7307 10.2183 24.9151 10.1073 25.0928 9.98553C25.1332 9.95446 25.1868 9.9078 25.2307 9.87104L25.2406 9.8639C25.3921 9.75175 25.4944 9.58238 25.5251 9.39282C25.5558 9.20325 25.5124 9.00886 25.4044 8.85213C25.3407 8.77165 25.2594 8.70783 25.1672 8.66578C25.075 8.62373 24.9744 8.60467 24.8737 8.61013C24.7043 8.61763 24.5415 8.68091 24.4095 8.79066C24.3642 8.82725 24.3022 8.87616 24.2619 8.9118C24.1069 9.06288 23.9604 9.22304 23.8233 9.39151C23.5511 9.69963 23.2503 9.97971 22.9253 10.2277C22.8036 10.2937 22.6615 10.3078 22.5297 10.2671C22.4504 10.3268 22.3703 10.3854 22.2895 10.4431C21.1192 9.16125 19.6037 8.26913 17.9377 7.88133C17.5412 7.78879 17.1389 7.72506 16.7337 7.69055L16.7179 7.40045C16.6145 7.30574 16.5395 7.18252 16.5017 7.04531C16.4872 6.62897 16.512 6.21208 16.5759 5.80071C16.6182 5.58509 16.6486 5.36716 16.6668 5.14797C16.6685 5.09806 16.6658 5.02909 16.6652 4.97218C16.6652 4.96568 16.6668 4.95931 16.6668 4.95299C16.6762 4.85705 16.6661 4.76013 16.6369 4.66848C16.6078 4.57684 16.5603 4.49252 16.4976 4.42097C16.4349 4.34939 16.3583 4.29216 16.2728 4.253C16.1872 4.2138 16.0947 4.19356 16.0011 4.19352C15.9075 4.19347 15.815 4.21362 15.7294 4.25273C15.6439 4.2918 15.5672 4.34898 15.5045 4.42048C15.4417 4.49198 15.3941 4.57626 15.3649 4.66785C15.3356 4.75949 15.3254 4.85638 15.3348 4.95235C15.3348 5.01251 15.3313 5.09237 15.3333 5.14747C15.3516 5.36662 15.3821 5.5845 15.4247 5.80003C15.4889 6.21154 15.5142 6.62847 15.5002 7.04499C15.4738 7.18424 15.3957 7.30736 15.2825 7.38812C15.2802 7.43771 15.2723 7.60324 15.2664 7.69448C13.161 7.89177 11.1966 8.86984 9.73822 10.447L9.48476 10.2605C9.34866 10.2846 9.20872 10.2689 9.0808 10.2153C8.75587 9.96692 8.45513 9.68653 8.1829 9.37818C8.04542 9.20962 7.89856 9.04946 7.7431 8.89847C7.70221 8.86234 7.64051 8.81388 7.59536 8.77716C7.52852 8.70923 7.44863 8.65656 7.36076 8.6226C7.27289 8.58859 7.17906 8.574 7.08539 8.57978C6.99168 8.58556 6.90023 8.61158 6.81695 8.65611C6.73363 8.70069 6.66037 8.76279 6.60187 8.83845C6.54338 8.91406 6.50099 9.00154 6.47741 9.09517C6.45384 9.18876 6.44967 9.28645 6.46511 9.38184C6.48054 9.47723 6.5153 9.5682 6.56703 9.64886C6.61881 9.72953 6.68649 9.79809 6.76563 9.85008C6.81032 9.8873 6.86931 9.93919 6.91224 9.97203C7.09032 10.0938 7.2751 10.2049 7.46565 10.3047C7.81766 10.5101 8.14939 10.7502 8.45622 11.0219C8.54551 11.1296 8.59036 11.2691 8.58118 11.4105C8.61827 11.4456 8.74844 11.5645 8.81741 11.6289C7.63633 13.4431 7.14263 15.6409 7.42998 17.8054L7.16112 17.886C7.0939 18.0107 6.99448 18.1138 6.8739 18.1838C6.48313 18.2911 6.08314 18.3589 5.67964 18.3863C5.46598 18.3913 5.25282 18.4089 5.04112 18.4389C4.98513 18.4495 4.90419 18.4726 4.84703 18.4861C4.75478 18.4986 4.66604 18.5308 4.58656 18.5806C4.50708 18.6305 4.43856 18.697 4.38541 18.7757C4.33227 18.8544 4.29566 18.9437 4.27794 19.0379C4.26021 19.132 4.26176 19.2289 4.28248 19.3224C4.3032 19.4159 4.34264 19.5039 4.39827 19.5808C4.45388 19.6577 4.52448 19.7217 4.60554 19.7689C4.68657 19.816 4.77627 19.8452 4.86889 19.8546C4.96152 19.864 5.05502 19.8532 5.14343 19.8233L5.15302 19.8219C5.15745 19.8208 5.16153 19.8184 5.16612 19.8173C5.22103 19.8049 5.29 19.7925 5.33815 19.7795C5.5415 19.7122 5.74093 19.6328 5.93544 19.5418C6.31073 19.3858 6.69988 19.2679 7.09732 19.1897C7.23488 19.1852 7.36869 19.2364 7.47007 19.3323C7.56478 19.3138 7.65966 19.2967 7.75474 19.2809C8.39873 21.3689 9.76505 23.1402 11.5938 24.2577Z"
            fill="white" />
    </g>
    <defs>
        <clipPath id="clip0_7013_29309">
            <rect width="32" height="32" fill="white" />
        </clipPath>
    </defs>
</svg>