<svg width="32" height="32" viewBox="0 0 31 31" fill="none" xmlns="http://www.w3.org/2000/svg">
    <path
        d="M12.7516 17.6584C12.7918 17.6503 12.8329 17.647 12.8739 17.6489C12.9446 17.6528 13.014 17.6713 13.0777 17.7034C13.2013 17.7649 13.2971 17.8731 13.3451 18.0056C13.3931 18.1381 13.3897 18.2846 13.3355 18.4145L13.3392 18.42L12.1197 21.4561C10.9529 20.6889 10.0674 19.5428 9.60337 18.199L12.7462 17.6517L12.7516 17.6584ZM17.6417 18.0888C17.6682 17.9691 17.7328 17.862 17.8253 17.7847C17.9179 17.7074 18.0329 17.6642 18.1519 17.6623C18.1871 17.6619 18.2223 17.665 18.2568 17.6718L18.2621 17.6652L21.3776 18.2103C20.9097 19.5434 20.028 20.6802 18.8691 21.4443L17.6618 18.4382L17.6714 18.4264C17.6267 18.32 17.6163 18.2017 17.6417 18.0888ZM15.0325 19.2678C15.078 19.1803 15.1456 19.1073 15.2283 19.0564C15.3109 19.0056 15.4055 18.9787 15.5017 18.9788C15.5979 18.9789 15.6924 19.0059 15.7748 19.057C15.8574 19.1082 15.9249 19.1814 15.9702 19.2689H15.9728L17.5049 22.1237C16.4079 22.5086 15.2286 22.571 14.099 22.3042C13.8896 22.2551 13.685 22.1962 13.4852 22.1275L15.0209 19.2676L15.0325 19.2678ZM10.1825 12.6362L12.5397 14.8103L12.5384 14.8173C12.6108 14.8825 12.6647 14.9667 12.6944 15.0609C12.7241 15.1553 12.7285 15.2561 12.7071 15.3527C12.6857 15.4494 12.6393 15.5382 12.5728 15.6099C12.5064 15.6815 12.4224 15.7333 12.3296 15.7597L12.3268 15.7728L9.27347 16.6791C9.14148 15.2655 9.46064 13.8462 10.1825 12.6365V12.6362ZM14.5618 12.8798C14.5574 12.9788 14.527 13.0748 14.4739 13.1574C14.4208 13.2401 14.3471 13.3063 14.2603 13.3493C14.1736 13.3923 14.0773 13.4101 13.9815 13.4011C13.8856 13.3922 13.794 13.3566 13.7162 13.2983L13.707 13.3025L11.1276 11.4177C12.1094 10.4268 13.38 9.7956 14.7439 9.6213L14.5647 12.8789L14.5618 12.8798ZM17.2934 13.3104C17.2155 13.3687 17.1238 13.4041 17.028 13.413C16.9322 13.4219 16.8359 13.4038 16.7492 13.3606C16.6626 13.3176 16.5889 13.2511 16.5361 13.1683C16.4832 13.0855 16.4531 12.9894 16.449 12.8904L16.4359 12.8839L16.2566 9.6213C16.4729 9.6481 16.6878 9.6862 16.9003 9.7355C18.031 9.9974 19.0681 10.5798 19.8946 11.4168L17.2983 13.3133L17.2934 13.3104ZM18.6774 15.7755C18.5845 15.7494 18.5001 15.6978 18.4335 15.6262C18.3668 15.5545 18.3202 15.4656 18.2988 15.3688C18.2773 15.2721 18.2817 15.1711 18.3116 15.0767C18.3414 14.9824 18.3956 14.8982 18.4683 14.833L18.4658 14.8201L20.836 12.6355C21.5591 13.8483 21.8695 15.2748 21.718 16.6897L18.6798 15.7863L18.6774 15.7755ZM16.3752 16.7352L15.5008 17.1685L14.6291 16.7362L14.4125 15.7663L15.016 14.9888H15.9869L16.592 15.7651L16.3752 16.7352Z"
        fill="white" />
    <path
        d="M1.04612 18.6462L3.53764 7.49418C3.60464 7.20565 3.73296 6.93607 3.91332 6.70485C4.09367 6.47362 4.32159 6.28656 4.58062 6.1571L14.6659 1.19524C14.9272 1.06671 15.2133 1 15.5029 1C15.7924 1 16.0784 1.06671 16.3398 1.19524L26.423 6.15976C26.6821 6.2891 26.9101 6.47616 27.0906 6.70735C27.2709 6.93857 27.3993 7.20815 27.4663 7.49668L29.9538 18.6484C30.0152 18.9302 30.0154 19.2227 29.9544 19.5046C29.9364 19.5905 29.913 19.6751 29.8842 19.7578C29.8355 19.8989 29.7711 20.0338 29.6921 20.1596C29.658 20.2133 29.6219 20.2656 29.5827 20.3164L22.6033 29.2582C22.5727 29.2972 22.5392 29.3327 22.5058 29.3688C22.3964 29.489 22.2727 29.5945 22.1377 29.6832C21.9671 29.7938 21.7811 29.8772 21.5862 29.9303C21.4263 29.9754 21.2614 29.9989 21.0956 30H20.9871L9.90318 29.9974C9.8358 29.997 9.76851 29.9929 9.70154 29.9851C9.6055 29.9739 9.51041 29.9553 9.41709 29.9294C9.3502 29.9113 9.2843 29.8895 9.2196 29.8642C9.16912 29.8444 9.11876 29.8245 9.07013 29.8004C8.99731 29.7646 8.92668 29.724 8.85862 29.6794C8.68303 29.5655 8.52664 29.4229 8.3957 29.2571L8.1829 28.9845L1.41866 20.3134C1.28901 20.1458 1.18715 19.9574 1.11719 19.7556C1.08798 19.6726 1.06409 19.5877 1.04569 19.5015C0.984579 19.2196 0.984772 18.9273 1.04626 18.6455L1.04612 18.6462ZM11.5069 22.9835C11.4786 23.0693 11.445 23.1531 11.4064 23.2345C11.4681 23.3458 11.4849 23.4775 11.4531 23.6014C11.3064 23.9477 11.1272 24.2784 10.918 24.5888C10.8009 24.7475 10.6929 24.913 10.5944 25.0845C10.5701 25.131 10.5383 25.2029 10.5153 25.252C10.4718 25.3267 10.444 25.4101 10.4338 25.4967C10.4235 25.5832 10.4308 25.671 10.4554 25.7544C10.48 25.8379 10.5212 25.9151 10.5766 25.9811C10.6319 26.0471 10.6999 26.1004 10.7764 26.1377C10.8529 26.175 10.9361 26.1953 11.0208 26.1975C11.1053 26.1996 11.1894 26.1834 11.2676 26.1501C11.3457 26.1167 11.4163 26.0669 11.4746 26.0037C11.533 25.9406 11.5779 25.8656 11.6065 25.7835C11.6295 25.7348 11.6615 25.67 11.6811 25.6241C11.75 25.4377 11.8086 25.2474 11.8562 25.0541C11.9609 24.6924 12.0997 24.3421 12.2705 24.0081C12.3447 23.9049 12.4553 23.8358 12.5785 23.8156C12.5978 23.7812 12.6693 23.6463 12.7077 23.5764C14.5029 24.277 16.4858 24.2718 18.2776 23.5616L18.4141 23.8167C18.5116 23.8323 18.6024 23.8778 18.6743 23.9472C18.8801 24.2953 19.0374 24.6715 19.1417 25.0647C19.189 25.258 19.2471 25.4483 19.3158 25.6347C19.3351 25.6804 19.3675 25.7443 19.3905 25.7928V25.7941L19.3915 25.7954C19.42 25.8775 19.4649 25.9526 19.5233 26.0159C19.5816 26.079 19.6522 26.129 19.7305 26.1624C19.8088 26.1957 19.893 26.2118 19.9777 26.2096C20.0623 26.2073 20.1456 26.187 20.2221 26.1495C20.2987 26.1121 20.3667 26.0585 20.4219 25.9923C20.4771 25.9261 20.5183 25.8487 20.5426 25.7652C20.5671 25.6815 20.5742 25.5936 20.5636 25.5071C20.553 25.4204 20.5249 25.3372 20.4811 25.2624C20.4583 25.2131 20.4279 25.1416 20.4039 25.0951C20.3055 24.9232 20.1974 24.7573 20.0804 24.5981C19.8674 24.2795 19.6845 23.9407 19.5341 23.5863C19.5181 23.4661 19.5368 23.3438 19.5879 23.2345L19.478 22.9633C21.13 21.9587 22.368 20.3658 22.9586 18.4853L23.2216 18.5314C23.3236 18.4568 23.444 18.4131 23.5689 18.4054C23.9287 18.4764 24.281 18.5832 24.6208 18.7244C24.7973 18.8062 24.9781 18.8776 25.1624 18.9381C25.206 18.9505 25.2689 18.9629 25.3187 18.9741C25.3227 18.9756 25.3262 18.9774 25.3302 18.9784C25.3332 18.9788 25.3363 18.9792 25.3394 18.9793C25.4195 19.0064 25.5043 19.0161 25.5882 19.0075C25.6722 18.9989 25.7535 18.9725 25.8268 18.9297C25.9003 18.8869 25.9642 18.8288 26.0146 18.7591C26.065 18.6895 26.1007 18.6097 26.1193 18.525C26.1381 18.4402 26.1394 18.3524 26.1234 18.2671C26.1073 18.1818 26.0741 18.1008 26.0259 18.0296C25.9777 17.9582 25.9156 17.898 25.8436 17.8529C25.7715 17.8078 25.6911 17.7786 25.6075 17.7673L25.5987 17.7651L25.5934 17.7636C25.543 17.7514 25.4783 17.7342 25.4323 17.725C25.2403 17.6976 25.0469 17.6815 24.8531 17.677C24.4875 17.6523 24.1253 17.591 23.7713 17.4939C23.6665 17.4251 23.5778 17.333 23.512 17.2242L23.2592 17.1482C23.5334 15.1854 23.0948 13.1875 22.0275 11.5375L22.221 11.3598C22.2281 11.2307 22.27 11.1064 22.3423 11.0007C22.6202 10.7546 22.9209 10.5369 23.2399 10.3509C23.4122 10.2603 23.5793 10.1597 23.7403 10.0494C23.7769 10.0212 23.8255 9.9789 23.8653 9.9456L23.8743 9.9392C24.0116 9.8375 24.1043 9.684 24.1321 9.5122C24.1599 9.3404 24.1206 9.1643 24.0227 9.0222C23.965 8.94931 23.8913 8.89147 23.8078 8.85336C23.7242 8.81526 23.633 8.79798 23.5418 8.80293C23.3883 8.80973 23.2407 8.86707 23.1211 8.96654C23.08 8.9997 23.0238 9.044 22.9873 9.0763C22.8469 9.2132 22.7141 9.3584 22.5898 9.5111C22.3432 9.7903 22.0706 10.0441 21.776 10.2689C21.6657 10.3287 21.537 10.3414 21.4175 10.3046C21.3457 10.3587 21.2731 10.4118 21.1998 10.4641C20.1393 9.3024 18.7658 8.4939 17.256 8.14246C16.8967 8.05859 16.5321 8.00084 16.1649 7.96956L16.1506 7.70666C16.0569 7.62083 15.9889 7.50916 15.9547 7.38481C15.9415 7.0075 15.964 6.6297 16.0219 6.25689C16.0602 6.06149 16.0878 5.86399 16.1043 5.66535C16.1058 5.62012 16.1034 5.55761 16.1028 5.50604C16.1028 5.50015 16.1043 5.49437 16.1043 5.48865C16.1128 5.4017 16.1036 5.31387 16.0772 5.23081C16.0508 5.14776 16.0078 5.07135 15.9509 5.0065C15.8941 4.94163 15.8247 4.88977 15.7472 4.85428C15.6696 4.81876 15.5858 4.80041 15.501 4.80038C15.4162 4.80033 15.3323 4.81859 15.2548 4.85404C15.1773 4.88944 15.1078 4.94126 15.0509 5.00606C14.994 5.07086 14.9509 5.14724 14.9244 5.23024C14.8979 5.31329 14.8886 5.40109 14.8972 5.48807C14.8972 5.54259 14.894 5.61496 14.8958 5.66489C14.9124 5.8635 14.94 6.06095 14.9786 6.25628C15.0368 6.62921 15.0597 7.00705 15.047 7.38452C15.0231 7.51072 14.9523 7.6223 14.8498 7.69548C14.8477 7.74042 14.8405 7.89044 14.8352 7.97312C12.9271 8.15192 11.1469 9.0383 9.82525 10.4676L9.59556 10.2986C9.47222 10.3204 9.3454 10.3062 9.22947 10.2576C8.935 10.0325 8.66246 9.7784 8.41575 9.499C8.29116 9.3462 8.15806 9.2011 8.01718 9.0642C7.98012 9.0315 7.92421 8.98758 7.88329 8.9543C7.82272 8.89274 7.75032 8.84501 7.67068 8.81423C7.59105 8.78341 7.50602 8.77019 7.42113 8.77543C7.3362 8.78066 7.25333 8.80424 7.17786 8.8446C7.10235 8.885 7.03596 8.94128 6.98294 9.0098C6.92993 9.0784 6.89152 9.1576 6.87015 9.2425C6.84879 9.3273 6.84501 9.4158 6.859 9.5023C6.87298 9.5887 6.90449 9.6712 6.95137 9.7443C6.99829 9.8174 7.05963 9.8795 7.13135 9.9266C7.17185 9.9604 7.22531 10.0074 7.26421 10.0372C7.4256 10.1475 7.59305 10.2482 7.76574 10.3386C8.08475 10.5248 8.38538 10.7424 8.66344 10.9886C8.74436 11.0862 8.78501 11.2126 8.77669 11.3408C8.8103 11.3726 8.92827 11.4803 8.99077 11.5387C7.92042 13.1828 7.473 15.1746 7.73341 17.1361L7.48976 17.2092C7.42884 17.3222 7.33874 17.4156 7.22947 17.4791C6.87533 17.5763 6.51284 17.6378 6.14717 17.6626C5.95354 17.6671 5.76036 17.6831 5.56851 17.7103C5.51777 17.7199 5.44442 17.7408 5.39262 17.753C5.30902 17.7644 5.22859 17.7935 5.15657 17.8387C5.08454 17.8839 5.02244 17.9442 4.97427 18.0155C4.92612 18.0868 4.89294 18.1677 4.87688 18.2531C4.86081 18.3384 4.86222 18.4262 4.88099 18.5109C4.89977 18.5957 4.93551 18.6754 4.98593 18.7451C5.03633 18.8148 5.10031 18.8728 5.17377 18.9156C5.2472 18.9582 5.32849 18.9847 5.41243 18.9932C5.49637 19.0018 5.58111 18.992 5.66123 18.9649L5.66992 18.9636C5.67393 18.9626 5.67763 18.9604 5.68179 18.9594C5.73155 18.9482 5.79406 18.937 5.83769 18.9252C6.02198 18.8642 6.20271 18.7922 6.37899 18.7098C6.71909 18.5684 7.07176 18.4615 7.43194 18.3907C7.5566 18.3866 7.67787 18.433 7.76975 18.5199C7.85558 18.5031 7.94156 18.4876 8.02773 18.4733C8.61134 20.3656 9.84957 21.9708 11.5069 22.9835Z"
        fill="white" />
</svg>