<svg width="32" height="32" viewBox="0 0 75 84" fill="none" xmlns="http://www.w3.org/2000/svg">
<path d="M8.791 0.178772C4.29558 1.13986 1.3813 4.33317 0.637235 9.07661C0.079182 12.735 1.16428 15.6802 4.97764 20.6717L6.77581 23.0279L6.21776 24.7021C1.90835 37.2893 1.56732 38.4674 1.56732 40.0795C1.56732 43.7069 3.33449 48.0473 6.80682 52.8837C9.07003 56.077 12.0153 59.1463 20.9441 67.6411C24.6955 71.2065 29.966 76.2599 32.6632 78.8642C35.3605 81.4374 37.6857 83.5766 37.8407 83.5766C37.9958 83.5766 40.538 81.3134 43.4833 78.5542C46.4285 75.7949 49.5598 72.9116 50.3969 72.1366C65.4333 58.4333 69.6807 53.8138 72.502 48.1093C73.9901 45.133 74.3932 43.5519 74.4242 40.7926C74.4242 39.0564 74.0832 37.7853 71.9129 31.6467C70.5178 27.7094 69.1847 23.803 68.9367 22.9039L68.4716 21.3228L69.8668 19.3386C72.998 14.9052 73.8351 12.3009 73.2151 8.9216C72.719 6.22434 71.8819 4.51918 70.2078 2.81403C68.1926 0.829834 66.0534 0.085762 62.178 0.0547638C58.5507 0.0237579 56.6285 0.58181 54.4273 2.25597L53.0012 3.34107L49.0638 2.41099C44.3514 1.26388 43.5763 1.13986 43.1422 1.41889C42.8942 1.5429 43.2042 3.21706 44.0413 6.56538C46.1495 14.7812 48.9398 25.6012 49.6218 28.0814C50.769 32.2978 50.924 33.4449 50.8 35.7081C50.5519 39.6765 48.2267 43.1178 44.7234 44.761C43.1112 45.536 42.5842 45.5981 38.3058 45.6911C34.1514 45.7841 33.4383 45.7221 31.8882 45.133C27.4858 43.4899 24.4165 38.4984 24.9125 33.8169C25.0365 32.4838 28.3848 18.8115 32.0432 4.61219C32.4462 3.03104 32.7253 1.66692 32.6322 1.57391C32.1052 1.04686 27.6718 1.75993 22.8973 3.15505L21.1302 3.68211L19.9521 2.65901C18.0299 0.95385 15.9837 0.209778 12.8524 0.0237579C11.3332 -0.0382462 9.50407 0.0237579 8.791 0.178772Z" fill="white"/>
<path d="M33.2523 24.9811C32.8802 25.1361 32.4772 25.5082 32.3532 25.7562C32.0741 26.5002 33.0972 34.871 33.5313 35.3981C33.8103 35.7391 34.8024 35.8321 37.8717 35.8321C41.654 35.8321 41.8711 35.8011 42.3051 35.1191C42.7702 34.375 43.5452 26.5933 43.2042 25.7562C43.1112 25.4771 42.6771 25.1051 42.2741 24.9501C41.313 24.5781 34.1823 24.6091 33.2523 24.9811Z" fill="white"/>
</svg>
