<svg width="32" height="32" viewBox="0 0 32 32" fill="none" xmlns="http://www.w3.org/2000/svg">
    <path d="M15.9275 8.83545V15.7632L21.9316 12.2875L15.9275 8.83545Z" fill="white" />
    <path d="M15.9275 17.2112V24.1733L21.9874 20.7084L15.9275 17.2112Z" fill="white" />
    <path d="M15.0639 15.7161V8.89355L9.13504 12.2941L15.0639 15.7161Z" fill="white" fill-opacity="0.8" />
    <path d="M3.16962 24.1474C4.33275 26.0185 5.90529 27.6013 7.76881 28.7767V21.4858L3.16962 24.1474Z" fill="white"
        fill-opacity="0.8" />
    <path d="M15.064 24.1389V17.2627L9.12004 20.704L15.064 24.1389Z" fill="white" fill-opacity="0.8" />
    <path d="M8.63455 28.3427L14.6537 24.9014L8.63455 21.4214V28.3427Z" fill="white" />
    <path d="M22.3977 28.3793V21.4688L16.3872 24.9058L22.3977 28.3793Z" fill="white" fill-opacity="0.8" />
    <path d="M28.2815 23.3463C29.309 21.4286 29.8899 19.3034 29.9807 17.1296L23.7231 20.7127L28.2815 23.3463Z"
        fill="white" fill-opacity="0.8" />
    <path d="M23.2634 19.9779L29.304 16.5237L23.2634 13.0522V19.9779Z" fill="white" />
    <path d="M22.3978 11.5595V4.6897L16.4152 8.12029L22.3978 11.5595Z" fill="white" fill-opacity="0.8" />
    <path d="M22.3977 19.9479V13.0159L16.4023 16.4872L22.3977 19.9479Z" fill="white" fill-opacity="0.8" />
    <path d="M8.63455 13.0029V19.9865L14.6752 16.4894L8.63455 13.0029Z" fill="white" />
    <path d="M15.064 2C12.8403 2.0626 10.6613 2.63824 8.69684 3.682L15.064 7.33384V2Z" fill="white"
        fill-opacity="0.8" />
    <path d="M8.63455 4.64233V11.5851L14.6794 8.11803L8.63455 4.64233Z" fill="white" />
    <path d="M7.76881 4.22119C5.90576 5.39707 4.33333 6.97979 3.16962 8.85043L7.76881 11.5055V4.22119Z" fill="white"
        fill-opacity="0.8" />
    <path d="M22.359 3.71852C20.3783 2.65264 18.1759 2.06417 15.9275 2V7.40259L22.359 3.71852Z" fill="white" />
    <path d="M1 17.0093C1.07508 19.2457 1.66852 21.4342 2.73356 23.4022L7.39291 20.7041L1 17.0093Z" fill="white" />
    <path d="M2.73356 9.59814C1.67188 11.5574 1.07852 13.736 1 15.9631L7.39936 12.2919L2.73356 9.59814Z" fill="white" />
    <path d="M8.68608 29.3094C10.6528 30.3583 12.8359 30.937 15.0639 31V25.6619L8.68608 29.3094Z" fill="white"
        fill-opacity="0.8" />
    <path d="M27.8347 8.87403C26.6782 7.00882 25.1156 5.42861 23.2634 4.25122V11.5163L27.8347 8.87403Z" fill="white" />
    <path d="M23.2634 28.7533C25.1251 27.5675 26.6939 25.9752 27.8519 24.0961L23.2634 21.4453V28.7533Z" fill="white" />
    <path d="M30 15.9222C29.9177 13.7167 29.3297 11.5596 28.2815 9.61743L23.6608 12.2854L30 15.9222Z" fill="white"
        fill-opacity="0.8" />
    <path d="M15.9275 31C18.1505 30.9377 20.3289 30.362 22.2925 29.318L15.9275 25.6296V31Z" fill="white" />
    <path d="M7.76884 19.9245V13.0762L1.82275 16.4853L7.76884 19.9245Z" fill="white" fill-opacity="0.8" />
</svg>