<svg width="32" height="32" viewBox="0 0 94 98" fill="none" xmlns="http://www.w3.org/2000/svg">
    <g clip-path="url(#clip0_6908_16410)">
        <path d="M48.4036 23.2085V46.3149L67.8722 34.7223L48.4036 23.2085Z" fill="white" />
        <path d="M48.4035 51.1438V74.3648L68.0533 62.8081L48.4035 51.1438Z" fill="white" />
        <path d="M45.6034 46.1572V23.4019L26.3785 34.7437L45.6034 46.1572Z" fill="white" fill-opacity="0.8" />
        <path d="M7.03516 74.2788C10.8067 80.5196 15.9058 85.7988 21.9484 89.7189V65.4016L7.03516 74.2788Z" fill="white"
            fill-opacity="0.8" />
        <path d="M45.6035 74.2506V51.3162L26.3298 62.7941L45.6035 74.2506Z" fill="white" fill-opacity="0.8" />
        <path d="M24.7556 88.2719L44.2731 76.7939L24.7556 65.187V88.2719Z" fill="white" />
        <path d="M69.3838 88.3938V65.3447L49.8942 76.8084L69.3838 88.3938Z" fill="white" fill-opacity="0.8" />
        <path d="M88.4624 71.6064C91.7942 65.21 93.6777 58.1219 93.9721 50.8716L73.6815 62.8224L88.4624 71.6064Z"
            fill="white" fill-opacity="0.8" />
        <path d="M72.1909 60.3722L91.778 48.8512L72.1909 37.2729V60.3722Z" fill="white" />
        <path d="M69.3838 32.2936V9.38062L49.9848 20.8228L69.3838 32.2936Z" fill="white" fill-opacity="0.8" />
        <path d="M69.3838 60.2721V37.1514L49.943 48.7296L69.3838 60.2721Z" fill="white" fill-opacity="0.8" />
        <path d="M24.7556 37.1082V60.4008L44.3427 48.7366L24.7556 37.1082Z" fill="white" />
        <path d="M45.6035 0.410156C38.3932 0.618935 31.3274 2.5389 24.9576 6.02018L45.6035 18.2003V0.410156Z"
            fill="white" fill-opacity="0.8" />
        <path d="M24.7556 9.2229V32.3795L44.3566 20.8155L24.7556 9.2229Z" fill="white" />
        <path d="M21.9484 7.81885C15.9073 11.7408 10.8086 17.0197 7.03516 23.2589L21.9484 32.1146V7.81885Z" fill="white"
            fill-opacity="0.8" />
        <path d="M69.2583 6.14198C62.8355 2.58692 55.6942 0.624168 48.4035 0.410156V18.4296L69.2583 6.14198Z"
            fill="white" />
        <path d="M0 50.4702C0.24346 57.9295 2.16774 65.2287 5.62119 71.7926L20.7295 62.7936L0 50.4702Z" fill="white" />
        <path d="M5.62119 25.752C2.17862 32.2868 0.254598 39.5532 0 46.9812L20.7504 34.7366L5.62119 25.752Z"
            fill="white" />
        <path d="M24.9227 91.4961C31.3 94.9944 38.3788 96.9245 45.6034 97.1348V79.3303L24.9227 91.4961Z" fill="white"
            fill-opacity="0.8" />
        <path d="M87.0136 23.3373C83.2634 17.1162 78.1966 11.8457 72.1909 7.9187V32.15L87.0136 23.3373Z" fill="white" />
        <path d="M72.1909 89.6404C78.2276 85.6855 83.3145 80.3747 87.0693 74.1072L72.1909 65.2659V89.6404Z"
            fill="white" />
        <path d="M94.0347 46.8453C93.7678 39.4892 91.8613 32.2946 88.4623 25.8167L73.4794 34.7153L94.0347 46.8453Z"
            fill="white" fill-opacity="0.8" />
        <path d="M48.4036 97.1346C55.6117 96.9268 62.6755 95.0067 69.0425 91.5246L48.4036 79.2227V97.1346Z"
            fill="white" />
        <path d="M21.9485 60.1934V37.3521L2.66785 48.7226L21.9485 60.1934Z" fill="white" fill-opacity="0.8" />
    </g>
    <defs>
        <clipPath id="clip0_6908_16410">
            <rect y="0.410156" width="94" height="96.7388" rx="25" fill="white" />
        </clipPath>
    </defs>
</svg>