<svg width="32" height="32" viewBox="0 0 31 31" fill="none" xmlns="http://www.w3.org/2000/svg">
    <path d="M15.9275 7.83538V14.7632L21.9316 11.2875L15.9275 7.83538Z" fill="white" />
    <path d="M15.9275 16.211V23.1731L21.9875 19.7082L15.9275 16.211Z" fill="white" />
    <path d="M15.064 14.7158V7.89335L9.13504 11.2939L15.064 14.7158Z" fill="white" fill-opacity="0.8" />
    <path d="M3.16961 23.1473C4.33276 25.0185 5.9053 26.6013 7.76879 27.7766V20.4858L3.16961 23.1473Z" fill="white"
        fill-opacity="0.8" />
    <path d="M15.064 23.1389V16.2626L9.12005 19.704L15.064 23.1389Z" fill="white" fill-opacity="0.8" />
    <path d="M8.63454 27.3427L14.6537 23.9014L8.63454 20.4214V27.3427Z" fill="white" />
    <path d="M22.3977 27.3793V20.4687L16.3872 23.9057L22.3977 27.3793Z" fill="white" fill-opacity="0.8" />
    <path d="M28.2816 22.3461C29.3091 20.4283 29.8899 18.3031 29.9808 16.1293L23.7232 19.7124L28.2816 22.3461Z"
        fill="white" fill-opacity="0.8" />
    <path d="M23.2635 18.9779L29.3041 15.5236L23.2635 12.0522V18.9779Z" fill="white" />
    <path d="M22.3978 10.5592V3.68948L16.4152 7.12006L22.3978 10.5592Z" fill="white" fill-opacity="0.8" />
    <path d="M22.3977 18.9478V12.0157L16.4023 15.4871L22.3977 18.9478Z" fill="white" fill-opacity="0.8" />
    <path d="M8.63454 12.0028V18.9864L14.6752 15.4892L8.63454 12.0028Z" fill="white" />
    <path d="M15.064 1C12.8403 1.06259 10.6613 1.63824 8.69682 2.68199L15.064 6.33382V1Z" fill="white"
        fill-opacity="0.8" />
    <path d="M8.63454 3.64221V10.585L14.6794 7.11791L8.63454 3.64221Z" fill="white" />
    <path d="M7.76879 3.22128C5.90576 4.39716 4.33333 5.97987 3.16961 7.85051L7.76879 10.5056V3.22128Z" fill="white"
        fill-opacity="0.8" />
    <path d="M22.3591 2.71849C20.3783 1.65262 18.176 1.06415 15.9275 1V6.40255L22.3591 2.71849Z" fill="white" />
    <path d="M1 16.009C1.07508 18.2455 1.66853 20.4339 2.73358 22.4019L7.39289 19.7039L1 16.009Z" fill="white" />
    <path d="M2.73358 8.59797C1.67187 10.5573 1.07854 12.7359 1 14.9629L7.39935 11.2917L2.73358 8.59797Z"
        fill="white" />
    <path d="M8.6861 28.3094C10.6528 29.3583 12.8359 29.937 15.064 30V24.6619L8.6861 28.3094Z" fill="white"
        fill-opacity="0.8" />
    <path d="M27.8347 7.87401C26.6782 6.00878 25.1156 4.42861 23.2635 3.25119V10.5162L27.8347 7.87401Z" fill="white" />
    <path d="M23.2635 27.753C25.1252 26.5672 26.694 24.975 27.8519 23.0959L23.2635 20.445V27.753Z" fill="white" />
    <path d="M30 14.9222C29.9177 12.7167 29.3297 10.5596 28.2814 8.61738L23.6608 11.2854L30 14.9222Z" fill="white"
        fill-opacity="0.8" />
    <path d="M15.9275 30C18.1505 29.9377 20.3289 29.362 22.2925 28.318L15.9275 24.6296V30Z" fill="white" />
    <path d="M7.76886 18.9242V12.0759L1.82279 15.485L7.76886 18.9242Z" fill="white" fill-opacity="0.8" />
</svg>