<svg width="32" height="32" viewBox="0 0 88 91" fill="none" xmlns="http://www.w3.org/2000/svg">
<path d="M63.3529 36.8311L50.5364 43.2499C50.8657 43.9798 51.0029 44.8105 50.9755 45.6412C50.948 46.4215 50.7559 47.1767 50.4266 47.8563L62.5295 54.6023C63.6273 53.3437 65.2465 52.5131 67.0304 52.3872L67.5793 39.2475C67.4421 39.2224 67.3323 39.1972 67.1951 39.172C65.5759 38.8196 64.2585 37.9638 63.3529 36.8311Z" fill="white"/>
<path d="M85.1161 21.1488L46.7489 0.835239C45.1845 -0.0206006 43.236 -0.0206006 41.6442 0.835239L3.3044 21.1488C1.71262 21.9795 0.752069 23.515 0.752069 25.2015V65.8287C0.724624 66.6594 0.971624 67.4649 1.41073 68.1697C1.84984 68.8745 2.50851 69.4786 3.27695 69.8814L41.6442 90.195C43.2085 91.0508 45.1571 91.0508 46.7489 90.195L85.1161 69.8814C86.7079 69.0507 87.6684 67.5152 87.6684 65.8287V25.2015C87.6684 23.5402 86.7079 21.9795 85.1161 21.1488ZM69.1435 52.1101C72.6838 52.6387 75.0989 55.7097 74.5226 58.9568C73.9462 62.204 70.598 64.4191 67.0577 63.8905C63.5174 63.3619 61.1023 60.2909 61.6786 57.0438C61.7609 56.5907 61.8982 56.1879 62.0628 55.7852L49.7129 49.4419C48.5327 50.927 46.6116 51.8836 44.471 51.8836C42.3303 51.8836 40.4092 50.927 39.2291 49.4671L26.8791 55.7852C27.181 56.4648 27.3457 57.22 27.3457 58.0003C27.3457 58.8561 27.1536 59.6616 26.7968 60.3916L39.3663 67.2635C40.5464 65.8791 42.4126 64.998 44.471 64.998C48.0662 64.998 50.9753 67.6663 50.9753 70.9638C50.9753 74.2613 48.0662 76.9295 44.471 76.9295C40.8758 76.9295 37.9667 74.2613 37.9667 70.9638C37.9667 70.1079 38.1588 69.3024 38.5155 68.5724L25.946 61.7006C24.7659 63.085 22.9271 63.966 20.8414 63.966C17.2461 63.966 14.337 61.2978 14.337 58.0003C14.337 54.7028 17.2461 52.0346 20.8414 52.0346C22.982 52.0346 24.9031 52.9911 26.0832 54.4511L38.4332 48.1078C38.1313 47.4282 37.9667 46.673 37.9667 45.8927C37.9667 42.8469 40.4366 40.3549 43.6476 39.9773V25.9567C41.8912 25.7553 40.3543 24.8994 39.3114 23.666L26.2479 30.6638C26.5772 31.3686 26.7693 32.1741 26.7693 32.9796C26.7693 36.2771 23.8602 38.9453 20.265 38.9453C16.6698 38.9453 13.7607 36.2771 13.7607 32.9796C13.7607 29.6821 16.6698 27.0139 20.265 27.0139C22.3782 27.0139 24.2445 27.9201 25.4246 29.3548L38.4881 22.3571C38.1588 21.6523 37.9667 20.8468 37.9667 20.0413C37.9667 16.7438 40.8758 14.0756 44.471 14.0756C48.0662 14.0756 50.9753 16.7438 50.9753 20.0413C50.9753 23.0871 48.5053 25.5791 45.2943 25.9567V39.9773C47.0233 40.1787 48.5602 41.0094 49.5756 42.1924L62.1452 35.3457C61.6512 34.2885 61.4865 33.0803 61.7335 31.8468C62.4196 28.5997 65.8227 26.4853 69.363 27.1146C72.9034 27.7438 75.2087 30.8651 74.5226 34.1123C73.9737 36.705 71.6684 38.5929 68.9514 38.8949V52.0598C69.0062 52.0849 69.0886 52.1101 69.1435 52.1101Z" fill="white"/>
</svg>
