<svg width="32" height="32" viewBox="0 0 32 32" fill="none" xmlns="http://www.w3.org/2000/svg">
    <path
        d="M21.8484 13.3803L17.9753 15.32C18.0748 15.5406 18.1163 15.7916 18.108 16.0427C18.0997 16.2785 18.0416 16.5067 17.9421 16.7121L21.5996 18.7507C21.9313 18.3704 22.4207 18.1193 22.9597 18.0813L23.1256 14.1105C23.0842 14.1029 23.051 14.0953 23.0095 14.0877C22.5202 13.9812 22.1221 13.7226 21.8484 13.3803Z"
        fill="white" />
    <path
        d="M28.4252 8.64111L16.8307 2.5024C16.358 2.24377 15.7691 2.24377 15.2881 2.5024L3.70188 8.64111C3.22085 8.89215 2.93057 9.35617 2.93057 9.86583V22.1433C2.92228 22.3943 2.99692 22.6377 3.12962 22.8507C3.26232 23.0637 3.46136 23.2463 3.69359 23.368L15.2881 29.5067C15.7608 29.7653 16.3497 29.7653 16.8307 29.5067L28.4252 23.368C28.9062 23.117 29.1965 22.6529 29.1965 22.1433V9.86583C29.1965 9.36379 28.9062 8.89215 28.4252 8.64111ZM23.5983 17.9976C24.6682 18.1573 25.398 19.0853 25.2239 20.0666C25.0497 21.0479 24.0379 21.7173 22.968 21.5576C21.8981 21.3978 21.1683 20.4698 21.3424 19.4885C21.3673 19.3516 21.4088 19.2299 21.4585 19.1082L17.7264 17.1912C17.3698 17.64 16.7892 17.9291 16.1423 17.9291C15.4954 17.9291 14.9149 17.64 14.5582 17.1988L10.8261 19.1082C10.9173 19.3135 10.9671 19.5418 10.9671 19.7776C10.9671 20.0362 10.9091 20.2796 10.8012 20.5002L14.5997 22.5769C14.9563 22.1585 15.5203 21.8922 16.1423 21.8922C17.2288 21.8922 18.1079 22.6986 18.1079 23.6951C18.1079 24.6916 17.2288 25.4979 16.1423 25.4979C15.0559 25.4979 14.1768 24.6916 14.1768 23.6951C14.1768 23.4364 14.2348 23.193 14.3426 22.9724L10.5441 20.8958C10.1875 21.3141 9.63182 21.5804 9.00152 21.5804C7.91503 21.5804 7.03591 20.7741 7.03591 19.7776C7.03591 18.7811 7.91503 17.9747 9.00152 17.9747C9.64841 17.9747 10.229 18.2638 10.5856 18.705L14.3177 16.7881C14.2265 16.5827 14.1768 16.3545 14.1768 16.1187C14.1768 15.1982 14.9232 14.4452 15.8935 14.331V10.0941C15.3627 10.0332 14.8983 9.77454 14.5831 9.40181L10.6354 11.5165C10.7349 11.7295 10.7929 11.9729 10.7929 12.2164C10.7929 13.2129 9.9138 14.0192 8.82734 14.0192C7.74088 14.0192 6.86175 13.2129 6.86175 12.2164C6.86175 11.2199 7.74088 10.4135 8.82734 10.4135C9.46594 10.4135 10.0299 10.6874 10.3866 11.1209L14.3343 9.00626C14.2348 8.79327 14.1768 8.54985 14.1768 8.30643C14.1768 7.30993 15.0559 6.50361 16.1423 6.50361C17.2288 6.50361 18.1079 7.30993 18.1079 8.30643C18.1079 9.22686 17.3615 9.97994 16.3911 10.0941V14.331C16.9136 14.3919 17.3781 14.6429 17.6849 15.0004L21.4834 12.9314C21.3342 12.6119 21.2844 12.2468 21.359 11.874C21.5664 10.8928 22.5948 10.2538 23.6646 10.444C24.7345 10.6341 25.4312 11.5774 25.2239 12.5587C25.058 13.3422 24.3613 13.9127 23.5403 14.0039V17.9824C23.5568 17.9899 23.5817 17.9976 23.5983 17.9976Z"
        fill="white" />
</svg>