<svg width="32" height="32" viewBox="0 0 120 117" fill="none" xmlns="http://www.w3.org/2000/svg">
<path d="M92.3348 62.0581C95.3262 63.771 98.3177 65.4839 101.309 67.1968C101.95 67.5637 102.592 67.9288 103.294 68.3289C103.07 68.4618 102.884 68.5749 102.695 68.684C96.0041 72.5592 89.3126 76.4342 82.6209 80.309C75.2604 84.571 67.9007 88.8343 60.5417 93.0989C60.2769 93.2525 60.0846 93.2864 59.7919 93.1187C45.6165 84.9999 31.4372 76.8878 17.2538 68.7826C17.1264 68.7097 17.0012 68.6331 16.8029 68.5155C20.5163 66.3968 24.1833 64.3046 27.8503 62.2123C27.9984 62.2799 28.1532 62.3364 28.2939 62.4166C31.5992 64.3027 34.9036 66.1905 38.207 68.0798C45.3422 72.1604 52.4757 76.2436 59.6077 80.3294C59.9877 80.5474 60.2763 80.5806 60.6798 80.3462C70.1553 74.8407 79.6371 69.3458 89.1253 63.8614C90.1871 63.2474 91.2157 62.5743 92.3348 62.0581Z" fill="white"/>
<path d="M92.3348 62.0581C91.2157 62.5743 90.1871 63.2474 89.1253 63.8614C79.6383 69.3476 70.1564 74.8425 60.6798 80.3461C60.2763 80.5806 59.9876 80.5474 59.6077 80.3294C52.478 76.2396 45.3445 72.1564 38.207 68.0798C34.9036 66.1905 31.5992 64.3028 28.2939 62.4166C28.1532 62.3363 27.9984 62.2799 27.8503 62.2123C26.8301 61.495 25.7097 60.9409 24.6324 60.3174C22.1602 58.8867 19.6731 57.4807 17.1928 56.0634C17.0813 55.9996 16.9775 55.9228 16.7932 55.8014C20.5183 53.6757 24.1909 51.58 27.8635 49.4843C27.8689 50.7984 27.8862 52.1126 27.8714 53.4264C27.8677 53.7569 27.9544 53.9863 28.256 54.1297C27.1847 54.5964 26.2282 55.2627 25.2112 55.8239C24.6866 56.1134 24.6918 56.1411 25.1984 56.4326C27.8526 57.9593 30.5126 59.4765 33.1611 61.0126C33.395 61.1482 33.5363 61.0991 33.7341 60.9846C34.8249 60.3532 35.9224 59.7329 37.0176 59.1088C38.5343 59.8805 39.9941 60.7501 41.4643 61.6019C40.2708 62.2913 39.0772 62.9807 37.8335 63.699C40.6277 65.3126 43.3379 66.8769 46.0465 68.4439C46.201 68.5333 46.3372 68.561 46.5029 68.4625C47.6563 67.7767 48.8117 67.0943 49.9691 66.4152C51.1521 67.0744 52.3354 67.7331 53.5189 68.3913C53.6714 68.4759 53.8061 68.6146 54.0083 68.5783C54.0041 68.6358 54.0273 68.648 54.0763 68.6177L54.023 68.5657C53.922 68.3459 53.8286 68.1223 53.7186 67.9069C53.254 66.997 52.7122 66.1255 52.3184 65.1805C52.4173 65.0195 52.5904 64.951 52.7435 64.8624C53.5806 64.3777 54.4197 63.8965 55.2607 63.4185C55.3744 63.3536 55.5396 63.3051 55.5444 63.1731C55.5496 63.0288 55.3661 63.0065 55.2581 62.9441C53.9952 62.2131 52.7363 61.4752 51.4634 60.7613C50.7528 60.3628 50.088 59.8792 49.3075 59.6058C48.6219 58.3208 47.9263 57.0409 47.2537 55.7493C46.6563 54.6021 45.9859 53.4914 45.4657 52.3055C45.9684 52.4349 46.377 52.7477 46.8053 53.0083C47.1115 53.1947 47.3275 53.161 47.6125 52.9938C49.0564 52.1464 50.5112 51.3169 51.9612 50.4795C53.1668 49.7832 54.3709 49.0846 55.6196 48.3616C55.4593 48.2512 55.3466 48.1612 55.2228 48.09C52.5344 46.542 49.8466 44.9932 47.1593 43.4436C46.9419 43.3175 46.7952 43.373 46.6182 43.4764C45.5973 44.0721 44.5867 44.686 43.548 45.2502C43.0773 45.5059 42.664 45.8798 42.1126 45.9851C41.9983 45.9321 41.9656 45.8193 41.9136 45.7211C41.3259 44.6094 40.7384 43.4974 40.1512 42.3854C41.2662 41.8913 42.2823 41.2234 43.3362 40.6234C48.9179 37.4464 54.4951 34.2618 60.0679 31.0698C60.0685 32.6253 60.069 34.1808 60.0695 35.7363C57.1753 37.4025 54.2811 39.0688 51.3279 40.7691C52.3524 41.3585 53.3024 41.9072 54.2546 42.4523C56.1921 43.5614 58.1302 44.6695 60.069 45.7766C60.0696 47.4931 60.0703 49.2096 60.0709 50.9261C60.0218 50.932 59.9738 50.9443 59.9281 50.9629C57.9925 52.0757 56.0577 53.1898 54.1237 54.3053C53.3047 54.7778 52.4884 55.2547 51.6239 55.7569C51.7114 55.8179 51.7496 55.849 51.7919 55.8734C54.4362 57.4001 57.08 58.9277 59.7231 60.4563C59.991 60.6117 60.2031 60.5736 60.4541 60.4271C62.0843 59.4752 63.7206 58.5334 65.3552 57.5888C66.3899 56.9908 67.4249 56.3936 68.5324 55.7542C67.1867 54.9929 65.9061 54.2683 64.6254 53.5437C65.6077 52.9863 66.5987 52.4429 67.5687 51.8653C68.0535 51.5766 68.6046 51.384 69.0013 50.9596L69.0443 50.9539L69.0877 50.9546C69.208 51.1454 69.4221 51.2124 69.6027 51.317C73.9184 53.8171 78.2366 56.3131 82.5571 58.8051C83.8773 59.564 85.1668 60.3762 86.5318 61.0588C86.6752 61.0787 86.7868 61.0001 86.8989 60.9356C89.7004 59.3245 92.5008 57.7115 95.3 56.0967C95.7518 55.8355 95.7432 55.7983 95.2626 55.5212C93.9407 54.7591 92.618 53.9984 91.2945 53.2391C89.7145 52.336 88.1329 51.4358 86.5497 50.5383C86.5497 49.0495 86.5497 47.5607 86.5498 46.0719C90.1891 48.1437 93.8285 50.2155 97.4678 52.2873C99.2518 53.3028 101.035 54.3192 102.818 55.3363C102.97 55.4227 103.162 55.4662 103.247 55.6742C100.649 57.1796 98.0457 58.6774 95.4542 60.1938C94.4087 60.8055 93.3197 61.3481 92.3348 62.0581ZM69.281 71.0879C69.2413 71.0362 69.196 70.989 69.1459 70.947C66.2311 69.2665 63.3165 67.5855 60.4022 65.9042C60.3028 65.836 60.1843 65.7996 60.0631 65.8001C59.9418 65.8007 59.8237 65.838 59.7249 65.9071C56.856 67.5684 53.9835 69.224 51.1077 70.8738C50.8221 71.0377 50.7645 71.1639 51.093 71.3293C51.1953 71.3808 51.2878 71.4509 51.3872 71.5083C54.1442 73.1013 56.9004 74.6957 59.6558 76.2915C59.7468 76.3568 59.8565 76.3921 59.9692 76.3922C60.0819 76.3922 60.1916 76.357 60.2826 76.2917C62.3102 75.1098 64.3459 73.9412 66.3786 72.7677C67.3417 72.2117 68.3036 71.6537 69.281 71.0879ZM82.1424 63.6748C82.1015 63.6181 82.0886 63.5821 82.063 63.5673C79.1191 61.8681 76.1752 60.169 73.2312 58.47C73.0033 58.3382 72.8341 58.3576 72.6022 58.4928C70.7579 59.5674 68.9012 60.6214 67.0504 61.6852C66.216 62.1648 65.3863 62.6523 64.5125 63.1605C64.6406 63.248 64.7162 63.3072 64.7987 63.3549C67.6829 65.0261 70.567 66.6975 73.451 68.369C73.6869 68.5061 73.8649 68.4497 74.0859 68.3214C75.7474 67.3565 77.4187 66.4082 79.0843 65.4502C80.1051 64.8631 81.1211 64.2681 82.1424 63.6748Z" fill="white"/>
<path d="M28.2562 54.1301C27.9546 53.9867 27.8679 53.7572 27.8716 53.4268C27.8864 52.113 27.8691 50.7988 27.8636 49.4847C27.8737 49.2747 27.8926 49.0647 27.8926 48.8547C27.8941 39.1013 27.8945 29.3344 27.8939 19.5538C28.1169 19.6454 28.1495 19.8502 28.2306 20.0025C32.1354 27.3345 36.0376 34.6677 39.9373 42.0023C40.0059 42.1314 40.0798 42.2577 40.1513 42.3855C40.7388 43.4977 41.3263 44.6097 41.9138 45.7215C41.9657 45.8197 41.9985 45.9325 42.1128 45.9853C42.115 46.1566 42.2194 46.2878 42.2951 46.4301C43.0197 47.7934 43.7401 49.1589 44.4717 50.5185C44.7946 51.1187 45.0633 51.7484 45.4659 52.3059C45.9861 53.4918 46.6565 54.6025 47.2539 55.7497C47.9265 57.0413 48.6221 58.3212 49.3077 59.6063C50.0847 61.0721 50.8573 62.5401 51.6415 64.0021C51.8554 64.4009 52.0207 64.8282 52.3186 65.1809C52.7124 66.1259 53.2542 66.9974 53.7188 67.9073C53.8288 68.1227 53.9221 68.3463 54.0232 68.5661L54.008 68.5791C53.8063 68.615 53.6716 68.4763 53.5191 68.3917C52.3346 67.7351 51.1514 67.0764 49.9693 66.4156C49.6187 66.2075 49.2722 65.9925 48.917 65.7925C46.4338 64.394 43.9497 62.9973 41.4645 61.6023C39.9943 60.7505 38.5345 59.8809 37.0177 59.1092C36.9872 59.0723 36.9522 59.0392 36.9134 59.0106C34.0283 57.3827 31.1425 55.7559 28.2562 54.1301Z" fill="white"/>
<path d="M60.0694 35.7369C60.0689 34.1814 60.0684 32.626 60.0679 31.0705C60.0726 29.3188 60.0886 27.567 60.0727 25.8154C60.0694 25.454 60.1995 25.2746 60.5116 25.1037C67.5094 21.2738 74.5034 17.4372 81.4937 13.594C81.9506 13.3432 81.9563 13.3452 81.9563 13.8777C81.9561 20.8043 81.9552 27.7308 81.9536 34.6574C81.7759 34.6575 81.6514 34.5404 81.5123 34.4589C77.4232 32.0613 73.3341 29.6635 69.2453 27.2654C69.1427 27.2053 69.0532 27.0826 68.9047 27.1518C68.8999 27.1694 68.8966 27.1874 68.8948 27.2056C68.8928 34.991 68.8916 42.7763 68.8913 50.5617C68.8913 50.7007 68.8447 50.8597 69.0012 50.9603C68.6045 51.3846 68.0534 51.5773 67.5686 51.866C66.5987 52.4436 65.6076 52.9869 64.6252 53.5445C63.265 54.303 61.9048 55.0614 60.5446 55.8197C60.0918 56.072 60.0895 56.0711 60.0873 55.5437C60.0809 54.0047 60.0755 52.4657 60.0708 50.9267C60.0702 49.2102 60.0695 47.4937 60.0689 45.7772C60.0691 42.4305 60.0692 39.0837 60.0694 35.7369Z" fill="white"/>
<path d="M69.0014 50.9599C68.8449 50.8593 68.8914 50.7003 68.8914 50.5612C68.891 42.7759 68.8922 34.9905 68.8949 27.2052C68.8967 27.187 68.9 27.169 68.9048 27.1514C69.0533 27.0822 69.1429 27.2049 69.2454 27.265C73.3351 29.6617 77.4241 32.0596 81.5125 34.4585C81.6515 34.54 81.776 34.657 81.9538 34.657C81.9701 34.6833 81.9787 34.7135 81.9786 34.7444C81.9753 37.5487 81.967 40.353 81.9745 43.1573C81.9755 43.5357 81.8761 43.7806 81.5127 43.9749C80.4723 44.531 79.4565 45.1314 78.4302 45.7128C76.306 46.916 74.1813 48.1182 72.0559 49.3192C71.0717 49.8732 70.0775 50.4102 69.0878 50.9549L69.0444 50.9542L69.0014 50.9599Z" fill="white"/>
<path d="M69.0878 50.9551C70.0775 50.4104 71.0717 49.8734 72.0559 49.3194C74.1834 48.122 76.3081 46.9199 78.4301 45.713C79.4565 45.1316 80.4723 44.5312 81.5127 43.9751C81.8761 43.7808 81.9755 43.5359 81.9745 43.1575C81.967 40.3533 81.9753 37.5489 81.9786 34.7446C83.4252 35.585 84.8689 36.4302 86.3211 37.2611C86.5643 37.4003 86.5336 37.5978 86.5336 37.8047C86.5338 40.3663 86.5341 42.9279 86.5344 45.4895C86.5345 45.6838 86.5445 45.878 86.5498 46.0723C86.5498 47.5612 86.5498 49.05 86.5497 50.5389C86.5438 54.0458 86.5378 57.5526 86.5319 61.0593C85.1668 60.3766 83.8774 59.5645 82.5572 58.8056C78.233 56.3197 73.9148 53.8237 69.6028 51.3175C69.4221 51.2128 69.2081 51.1458 69.0878 50.9551Z" fill="white"/>
<path d="M28.1134 80.5406C29.856 80.5339 31.5209 80.8145 32.9958 81.8078C33.3076 82.022 33.5834 82.2828 33.8132 82.5808C34.3721 83.2914 34.2876 84.1565 33.6129 84.875C32.7189 85.827 31.5391 86.2286 30.3009 86.4845C28.5868 86.8481 26.8069 86.7781 25.1278 86.2811C24.1285 85.9865 23.1648 85.581 22.5222 84.7134C21.8216 83.7675 22.0131 82.7619 22.9538 82.0284C23.9811 81.2272 25.1751 80.8639 26.4386 80.6416C26.9961 80.5435 27.5533 80.5529 28.1134 80.5406Z" fill="white"/>
<path d="M76.813 95.8503C75.0001 95.8717 73.3626 95.5479 71.8923 94.5942C71.6049 94.4029 71.3505 94.1676 71.1388 93.8972C70.5085 93.1132 70.5688 92.2366 71.2852 91.4909C72.1372 90.6041 73.2437 90.1816 74.413 89.9366C76.5023 89.4988 78.5662 89.6091 80.5669 90.3986C81.1867 90.628 81.7447 90.9942 82.1981 91.4688C83.1086 92.4635 82.9106 93.6544 81.7845 94.4795C80.7691 95.2235 78.8786 95.9155 76.813 95.8503Z" fill="white"/>
<path d="M60.1002 99.5301C62.1026 99.5239 63.7757 99.7996 65.228 100.822C65.9458 101.327 66.5165 101.96 66.3091 102.935C66.1817 103.534 65.7955 103.973 65.3017 104.325C64.1893 105.118 62.9176 105.439 61.5733 105.6C59.7666 105.816 58.0309 105.608 56.3614 104.901C55.706 104.624 55.1237 104.241 54.6871 103.666C54.1267 102.928 54.1765 102.007 54.8407 101.322C55.7053 100.43 56.8174 100.008 58.0067 99.7424C58.7804 99.5698 59.5644 99.4931 60.1002 99.5301Z" fill="white"/>
<path d="M44.1424 95.8491C42.2403 95.8728 40.6755 95.5807 39.2556 94.726C38.8339 94.4721 38.448 94.1734 38.1831 93.7456C37.581 92.7731 37.8905 91.761 39.0479 90.9753C39.9881 90.337 41.0516 89.9893 42.1649 89.8245C43.9458 89.5608 45.7092 89.652 47.4118 90.2888C48.1237 90.555 48.7852 90.9015 49.3252 91.4575C50.2072 92.3657 50.138 93.474 49.1537 94.2946C48.137 95.1422 46.9303 95.5158 45.6535 95.7451C45.1543 95.8267 44.6483 95.8615 44.1424 95.8491Z" fill="white"/>
<path d="M92.3784 80.5434C94.0949 80.5166 95.5637 80.8063 96.935 81.5196C97.3005 81.708 97.6329 81.9528 97.9195 82.2446C98.8302 83.1752 98.7173 84.3917 97.6881 85.2011C96.6607 86.0091 95.4598 86.3851 94.1979 86.5725C92.3288 86.85 90.4889 86.7206 88.7203 85.9954C88.2471 85.803 87.8036 85.5463 87.4028 85.2329C86.139 84.2398 86.2331 82.7711 87.616 81.8235C88.554 81.1807 89.6242 80.8622 90.7316 80.6531C91.2746 80.5559 91.827 80.5191 92.3784 80.5434Z" fill="white"/>
<path d="M69.2809 71.0881C68.3035 71.6539 67.3416 72.2118 66.3785 72.7678C64.3458 73.9413 62.3102 75.11 60.2826 76.2919C60.1916 76.3572 60.0818 76.3924 59.9691 76.3923C59.8564 76.3923 59.7467 76.357 59.6557 76.2916C56.9033 74.6911 54.147 73.0967 51.3871 71.5085C51.2877 71.4511 51.1952 71.381 51.0929 71.3295C50.7645 71.1641 50.822 71.0379 51.1076 70.874C53.9833 69.2238 56.8557 67.5682 59.7249 65.9073C59.8237 65.8382 59.9418 65.8008 60.063 65.8003C60.1843 65.7998 60.3027 65.8361 60.4021 65.9044C63.3137 67.5903 66.2282 69.2712 69.1458 70.9472C69.196 70.9891 69.2413 71.0364 69.2809 71.0881Z" fill="white"/>
<path d="M82.1424 63.675C81.1211 64.2683 80.1051 64.8633 79.0844 65.4504C77.4188 66.4084 75.7474 67.3567 74.0859 68.3216C73.8649 68.4499 73.687 68.5062 73.451 68.3692C70.5686 66.6951 67.6845 65.0237 64.7987 63.3551C64.7162 63.3074 64.6406 63.2482 64.5125 63.1607C65.3863 62.6525 66.216 62.165 67.0504 61.6854C68.9013 60.6216 70.758 59.5676 72.6022 58.493C72.8342 58.3578 73.0033 58.3384 73.2312 58.4702C76.1734 60.1722 79.1174 61.8713 82.063 63.5675C82.0886 63.5823 82.1015 63.6183 82.1424 63.675Z" fill="white"/>
<path d="M45.4658 52.3057C45.0632 51.7483 44.7945 51.1185 44.4716 50.5184C43.74 49.1587 43.0196 47.7932 42.295 46.4299C42.2193 46.2876 42.1149 46.1564 42.1127 45.9852C42.6641 45.88 43.0774 45.5061 43.5481 45.2504C44.5868 44.6862 45.5974 44.0723 46.6183 43.4766C46.7953 43.3733 46.942 43.3177 47.1594 43.4438C49.8429 44.9998 52.5307 46.5486 55.2229 48.0902C55.3467 48.1615 55.4594 48.2514 55.6197 48.3618C54.371 49.0848 53.1669 49.7834 51.9613 50.4797C50.5113 51.3171 49.0565 52.1467 47.6126 52.994C47.3276 53.1612 47.1116 53.1949 46.8054 53.0086C46.3771 52.7479 45.9685 52.4351 45.4658 52.3057Z" fill="white"/>
<path d="M60.0709 50.9263C60.0763 52.4652 60.0818 54.0042 60.0874 55.5432C60.0896 56.0707 60.0919 56.0715 60.5447 55.8192C61.9051 55.0613 63.2653 54.3029 64.6253 53.544C65.9061 54.2685 67.1868 54.9931 68.5324 55.7544C67.4249 56.3938 66.3899 56.991 65.3553 57.589C63.7207 58.5336 62.0843 59.4753 60.4541 60.4272C60.2032 60.5738 59.991 60.6119 59.7232 60.4565C57.0825 58.9238 54.4387 57.3962 51.7919 55.8736C51.7497 55.8492 51.7115 55.8181 51.6239 55.7571C52.4885 55.2548 53.3048 54.778 54.1237 54.3055C56.0576 53.1897 57.9924 52.0756 59.9281 50.9631C59.9738 50.9445 60.0219 50.9322 60.0709 50.9263Z" fill="white"/>
<path d="M86.5317 61.0595C86.5377 57.5527 86.5436 54.0459 86.5496 50.5391C88.1313 51.439 89.7129 52.3392 91.2944 53.2397C92.6191 53.997 93.9418 54.7577 95.2625 55.5218C95.7431 55.7989 95.7517 55.8362 95.2999 56.0973C92.5021 57.7146 89.7018 59.3276 86.8989 60.9363C86.7867 61.0008 86.6752 61.0793 86.5317 61.0595Z" fill="white"/>
<path d="M60.0695 35.7367C60.0693 39.0835 60.0692 42.4302 60.069 45.777C58.1308 44.669 56.1927 43.5609 54.2546 42.4527C53.3025 41.9076 52.3524 41.3589 51.3279 40.7695C54.2811 39.0692 57.1753 37.403 60.0695 35.7367Z" fill="white"/>
<path d="M41.4644 61.602C43.9488 62.9983 46.4329 64.3951 48.9168 65.7922C49.272 65.9922 49.6186 66.2072 49.9691 66.4153C48.8133 67.097 47.658 67.7794 46.503 68.4626C46.3372 68.5611 46.2011 68.5334 46.0465 68.444C43.338 66.877 40.6278 65.3127 37.8336 63.6991C39.0773 62.9808 40.2708 62.2914 41.4644 61.602Z" fill="white"/>
<path d="M28.2559 54.1299C31.1419 55.7563 34.0277 57.3831 36.9132 59.0103C36.9519 59.0389 36.9869 59.0721 37.0175 59.109C35.9223 59.7331 34.8248 60.3533 33.734 60.9848C33.5362 61.0993 33.3949 61.1484 33.1611 61.0128C30.5125 59.4766 27.8526 57.9595 25.1984 56.4327C24.6917 56.1413 24.6865 56.1136 25.2111 55.8241C26.2281 55.2629 27.1847 54.5966 28.2559 54.1299Z" fill="white"/>
<path d="M54.0229 68.5659L54.0758 68.618C54.0272 68.6482 54.0041 68.6361 54.0083 68.5786C54.0078 68.5789 54.0229 68.5659 54.0229 68.5659Z" fill="white"/>
</svg>
