<svg width="32" height="32" viewBox="0 0 79 49" fill="none" xmlns="http://www.w3.org/2000/svg">
<path d="M28.4898 0.35278L28.6041 0.41387L38.2993 5.91118C38.6254 6.09591 38.9933 6.19296 39.3676 6.19296C39.7419 6.19296 40.1098 6.09591 40.4359 5.91118L50.0552 0.474156C50.7999 0.0493786 51.6809 -0.0640105 52.508 0.158445C53.3351 0.3809 54.0421 0.921373 54.4766 1.66329C54.911 2.40522 55.0381 3.28913 54.8303 4.12439C54.6226 4.95966 54.0967 5.67934 53.366 6.12821L53.2557 6.19332L47.7035 9.33706C47.5356 9.43242 47.3958 9.57094 47.2986 9.73845C47.2014 9.90595 47.1501 10.0964 47.1501 10.2904C47.1501 10.4843 47.2014 10.6748 47.2986 10.8423C47.3958 11.0098 47.5356 11.1483 47.7035 11.2437L62.6927 19.7401C63.0186 19.9254 63.3866 20.0228 63.761 20.0228C64.1354 20.0228 64.5035 19.9254 64.8294 19.7401L74.1017 14.4855C74.8463 14.056 75.7293 13.9389 76.5592 14.1596C77.3891 14.3803 78.0991 14.921 78.5353 15.6645C78.9715 16.408 79.0988 17.2945 78.8895 18.1317C78.6802 18.9689 78.1513 19.6894 77.4173 20.1372L77.3062 20.2031L72.085 23.1563C71.917 23.2515 71.7772 23.39 71.6799 23.5574C71.5827 23.7249 71.5314 23.9153 71.5314 24.1092C71.5314 24.3031 71.5827 24.4936 71.6799 24.661C71.7772 24.8285 71.917 24.9669 72.085 25.0621L77.3302 28.0363C78.0774 28.4568 78.6303 29.1557 78.8698 29.9824C79.1092 30.809 79.016 31.6972 78.6103 32.4554C78.2046 33.2137 77.5188 33.7812 76.7008 34.0356C75.8828 34.2901 74.9982 34.2111 74.2376 33.8157L74.1241 33.753L64.8262 28.4824C64.5003 28.2974 64.1324 28.2002 63.7582 28.2002C63.384 28.2002 63.0162 28.2974 62.6903 28.4824L47.5341 37.0728C47.3661 37.1679 47.2263 37.3063 47.129 37.4737C47.0317 37.6411 46.9804 37.8314 46.9804 38.0253C46.9804 38.2192 47.0317 38.4096 47.129 38.577C47.2263 38.7444 47.3661 38.8827 47.5341 38.9778L53.7953 42.5275C54.5351 42.9517 55.0808 43.65 55.3157 44.4732C55.5506 45.2964 55.4562 46.1794 55.0527 46.9336C54.6492 47.6878 53.9684 48.2535 53.1558 48.51C52.3432 48.7664 51.4632 48.6933 50.7034 48.3062L50.5899 48.2443L40.2785 42.3965C39.9523 42.2119 39.5844 42.1149 39.2102 42.1149C38.8359 42.1149 38.468 42.2119 38.1418 42.3965L27.7368 48.3013C26.9924 48.7263 26.1117 48.8401 25.2847 48.6181C24.4576 48.3962 23.7504 47.8563 23.3156 47.1148C22.8807 46.3734 22.753 45.4898 22.9599 44.6545C23.1669 43.8193 23.692 43.0992 24.422 42.6497L24.5323 42.5838L30.8814 38.977C31.0059 38.9066 31.1152 38.8121 31.2033 38.6991C31.2914 38.5861 31.3566 38.4567 31.3949 38.3184C31.4333 38.1801 31.4442 38.0355 31.427 37.893C31.4098 37.7504 31.3648 37.6126 31.2947 37.4876C31.198 37.3131 31.0549 37.1692 30.8814 37.072L15.8611 28.5604C15.5349 28.3758 15.167 28.2788 14.7927 28.2788C14.4185 28.2788 14.0506 28.3758 13.7244 28.5604L4.88054 33.5641C4.13553 33.9918 3.253 34.1072 2.42398 33.8854C1.59496 33.6636 0.886154 33.1225 0.450987 32.379C0.0158197 31.6356 -0.110697 30.7497 0.0988234 29.9132C0.308344 29.0766 0.837043 28.3567 1.57048 27.9093L1.67999 27.845L6.46243 25.1385C6.63083 25.0436 6.77103 24.9053 6.86861 24.7378C6.96619 24.5703 7.01763 24.3797 7.01763 24.1856C7.01763 23.9915 6.96619 23.8009 6.86861 23.6334C6.77103 23.4659 6.63083 23.3276 6.46243 23.2327L1.68878 20.5246C0.948939 20.1004 0.403313 19.4021 0.168382 18.5789C-0.0665495 17.7557 0.027826 16.8727 0.431362 16.1185C0.834898 15.3643 1.51562 14.7986 2.32822 14.5421C3.14082 14.2857 4.02091 14.3588 4.78063 14.7459L4.89493 14.8078L13.73 19.8164C14.0557 20.0014 14.4235 20.0986 14.7975 20.0986C15.1716 20.0986 15.5393 20.0014 15.8651 19.8164L31.0309 11.2349C31.1989 11.1395 31.3386 11.001 31.4358 10.8335C31.5331 10.666 31.5843 10.4755 31.5843 10.2815C31.5843 10.0876 31.5331 9.89711 31.4358 9.7296C31.3386 9.5621 31.1989 9.42358 31.0309 9.32821L25.398 6.13304C24.6581 5.7088 24.1125 5.01054 23.8776 4.18732C23.6426 3.3641 23.737 2.48115 24.1406 1.72694C24.5441 0.97273 25.2248 0.407024 26.0374 0.150582C26.85 -0.10586 27.7301 -0.0327201 28.4898 0.354387V0.35278ZM38.2969 14.6543L23.1287 23.2367C22.9605 23.3319 22.8205 23.4703 22.7231 23.6379C22.6257 23.8054 22.5744 23.996 22.5744 24.19C22.5744 24.3841 22.6257 24.5746 22.7231 24.7422C22.8205 24.9097 22.9605 25.0481 23.1287 25.1433L38.1402 33.6526C38.4663 33.8375 38.8342 33.9347 39.2086 33.9347C39.5829 33.9347 39.9509 33.8375 40.2769 33.6526L55.4315 25.0621C55.5995 24.9669 55.7393 24.8285 55.8365 24.661C55.9338 24.4936 55.9851 24.3031 55.9851 24.1092C55.9851 23.9153 55.9338 23.7249 55.8365 23.5574C55.7393 23.39 55.5995 23.2515 55.4315 23.1563L40.4311 14.6543C40.1053 14.4697 39.7376 14.3727 39.3636 14.3727C38.9896 14.3727 38.622 14.4697 38.2961 14.6543H38.2969Z" fill="white"/>
</svg>
