<svg width="24px" height="24px" viewBox="0 0 24 24" fill="none" xmlns="http://www.w3.org/2000/svg">
<path d="M10.53 11.6798L7.92997 10.1098C7.96881 9.99682 7.99235 9.87911 7.99997 9.75985C8.00195 9.48805 7.92303 9.2218 7.77326 8.99498C7.62348 8.76816 7.40962 8.59101 7.15889 8.48608C6.90815 8.38115 6.63186 8.35318 6.36518 8.40572C6.0985 8.45827 5.85347 8.58895 5.66127 8.78115C5.46908 8.97334 5.33839 9.21837 5.28585 9.48505C5.23331 9.75173 5.26128 10.028 5.36621 10.2788C5.47114 10.5295 5.64828 10.7434 5.8751 10.8931C6.10193 11.0429 6.36817 11.1218 6.63997 11.1198C6.98307 11.1208 7.31305 10.9881 7.55997 10.7498L10.17 12.3198C10.2256 12.3589 10.292 12.3799 10.36 12.3798C10.4409 12.3768 10.5187 12.3479 10.582 12.2975C10.6454 12.2471 10.691 12.1778 10.7122 12.0997C10.7334 12.0215 10.7291 11.9387 10.6999 11.8632C10.6707 11.7876 10.6182 11.7234 10.55 11.6798H10.53ZM6.61997 10.3698C6.45819 10.3698 6.30304 10.3056 6.18864 10.1912C6.07424 10.0768 6.00997 9.92163 6.00997 9.75985C6.00997 9.59806 6.07424 9.44291 6.18864 9.32851C6.30304 9.21411 6.45819 9.14985 6.61997 9.14985C6.78176 9.14985 6.93691 9.21411 7.05131 9.32851C7.16571 9.44291 7.22997 9.59806 7.22997 9.75985C7.22997 9.92163 7.16571 10.0768 7.05131 10.1912C6.93691 10.3056 6.78176 10.3698 6.61997 10.3698Z" fill="#DDDDDD"/>
<path d="M9.20009 18.8299C7.84798 18.8358 6.52453 18.4403 5.39741 17.6934C4.27028 16.9465 3.39019 15.8819 2.86864 14.6344C2.3471 13.387 2.20755 12.0127 2.46769 10.6859C2.72783 9.35902 3.37595 8.13922 4.32993 7.18103C5.28392 6.22283 6.50085 5.56935 7.82655 5.30337C9.15225 5.0374 10.5271 5.17089 11.7768 5.68694C13.0266 6.203 14.0951 7.07839 14.8469 8.20221C15.5987 9.32604 16.0001 10.6477 16.0001 11.9999C15.9949 13.8045 15.2777 15.5342 14.0044 16.813C12.7312 18.0919 11.0047 18.8167 9.20009 18.8299ZM9.20009 6.67986C8.14507 6.67788 7.11319 6.98905 6.23514 7.57396C5.3571 8.15886 4.67239 8.99119 4.26774 9.96553C3.86308 10.9399 3.75669 12.0124 3.96203 13.0472C4.16737 14.0821 4.67521 15.0327 5.42122 15.7787C6.16724 16.5247 7.11787 17.0326 8.15272 17.2379C9.18757 17.4433 10.2601 17.3369 11.2344 16.9322C12.2088 16.5276 13.0411 15.8429 13.626 14.9648C14.2109 14.0868 14.5221 13.0549 14.5201 11.9999C14.5174 10.5897 13.9561 9.23809 12.959 8.24097C11.9619 7.24385 10.6102 6.6825 9.20009 6.67986Z" fill="#DDDDDD"/>
<path d="M19.7701 15.5402C19.3729 15.5402 18.9866 15.6701 18.6701 15.9102L12.9101 12.6102C12.9604 12.4104 12.9905 12.206 13.0001 12.0002C12.9938 11.7947 12.967 11.5904 12.9201 11.3902L18.6801 8.09021C18.9966 8.33028 19.3829 8.46022 19.7801 8.46021C20.1475 8.45823 20.5062 8.34747 20.8107 8.14189C21.1153 7.93632 21.3521 7.64514 21.4914 7.3051C21.6306 6.96506 21.666 6.59139 21.5931 6.23125C21.5202 5.87111 21.3423 5.54062 21.0818 5.2815C20.8213 5.02237 20.4898 4.84621 20.1293 4.77525C19.7688 4.70429 19.3953 4.7417 19.056 4.88277C18.7167 5.02384 18.4268 5.26224 18.2229 5.56789C18.0189 5.87355 17.9101 6.23276 17.9101 6.60021C17.9057 6.66347 17.9057 6.72695 17.9101 6.79021L12.0901 10.1202C11.731 9.81422 11.2918 9.61746 10.8244 9.55322C10.3571 9.48897 9.88105 9.55992 9.45272 9.75767C9.02439 9.95543 8.66166 10.2717 8.40742 10.6691C8.15318 11.0665 8.01807 11.5284 8.01807 12.0002C8.01807 12.472 8.15318 12.9339 8.40742 13.3313C8.66166 13.7287 9.02439 14.045 9.45272 14.2427C9.88105 14.4405 10.3571 14.5114 10.8244 14.4472C11.2918 14.383 11.731 14.1862 12.0901 13.8802L17.9101 17.2102C17.9057 17.2735 17.9057 17.337 17.9101 17.4002C17.9101 17.7681 18.0192 18.1277 18.2236 18.4336C18.4279 18.7394 18.7184 18.9778 19.0583 19.1186C19.3982 19.2594 19.7722 19.2962 20.133 19.2245C20.4938 19.1527 20.8252 18.9756 21.0853 18.7154C21.3454 18.4553 21.5226 18.1239 21.5944 17.7631C21.6661 17.4023 21.6293 17.0283 21.4885 16.6884C21.3477 16.3485 21.1093 16.0581 20.8035 15.8537C20.4976 15.6493 20.138 15.5402 19.7701 15.5402Z" fill="white"/>
</svg>
