<svg width="500" height="500" viewBox="0 0 500 500" xmlns="http://www.w3.org/2000/svg" xmlns:xlink="http://www.w3.org/1999/xlink"><defs><path id="a" d="M0 .697h54.611v31.575H0z"/><path id="c" d="M0 .697h54.611v31.575H0z"/></defs><g fill="none" fill-rule="evenodd"><path d="M105.949 331.623c-7.316-1.802-14.138-6.311-20.466-13.528-18.133-16.97-12.128-38.584-3.356-54.697 4.728-8.281 3.54-14.22-3.563-17.813-8.07-3.686-15.223.27-21.459 11.87-9.353 17.397-11.107 46.804 5.176 68.52 16.283 21.714 23.202 25.533 40.717 32.084m102.947 87.549a124.77 124.77 0 0 1-30.443-15.28v49.093c0 8.009 6.492 14.5 14.5 14.5h1.443c8.008 0 14.5-6.491 14.5-14.5v-33.813ZM320.69 427.77a124.934 124.934 0 0 1-30.444 16.556v35.095c0 8.009 6.492 14.5 14.5 14.5h1.444c8.008 0 14.5-6.491 14.5-14.5v-51.65Z" stroke="#FFF" stroke-width="9"/><path d="m283.258 71.176 35.693-24.725v40.422c33.68 20.924 55.647 55.278 55.647 94.11 0 33.209-16.067 63.143-41.786 84.204 16.35 19.632 26.185 44.882 26.185 72.429 0 62.545-50.703 113.248-113.248 113.248-46.376 0-86.242-27.877-103.754-67.787-.691 12.678-5.614 20.35-14.768 23.012-12.926-.484-20.38-11.04-22.361-31.665-2.843-29.603 3.74-72.032 48.378-102.154a113.75 113.75 0 0 1 2.808-3.798c-28.15-21.17-45.972-52.513-45.972-87.49 0-18.882 5.194-36.705 14.403-52.44V69.647L157.43 92.47c22.974-16.807 52.587-26.926 84.909-26.926 14.282 0 28.034 1.975 40.92 5.63Z" stroke="#FFF" stroke-width="9" stroke-linejoin="round"/><path d="M333.251 266.79c39.615-22.813 65.18-42.755 76.7-59.829 17.277-25.61 25.528-32.91 36.1-29.797 14.389 6.855 15.3 17.879 1.77 38.307-3.666 5.534-7.807 11.812-13.183 18.717-14.462 18.58-37.849 41.696-84.881 67.073" stroke="#FFF" stroke-width="9"/><path d="M156.572 407.916c-11.013-10.379-16.52-25.44-16.52-45.184 0-19.743 5.507-34.438 16.52-44.084" stroke="#FFF" stroke-width="9" stroke-linecap="round"/><g transform="translate(259.246 208.192)"><mask id="b" fill="#fff"><use xlink:href="#a"/></mask><g fill-rule="nonzero"/><path d="M7.215 3.23c1.998 6.667 11.456 11.715 22.821 11.715 9.999 0 18.521-3.907 21.786-9.386.256.853.39 1.731.39 2.63 0 7.92-10.392 14.342-23.21 14.342-12.819 0-23.21-6.421-23.21-14.343 0-1.742.503-3.412 1.423-4.957Z" fill="#FFF" fill-rule="nonzero" mask="url(#b)"/></g><g transform="matrix(-1 0 0 1 270.899 208.192)"><mask id="d" fill="#fff"><use xlink:href="#c"/></mask><g fill-rule="nonzero"/><path d="M7.215 3.23c1.998 6.667 11.456 11.715 22.821 11.715 9.999 0 18.521-3.907 21.786-9.386.256.853.39 1.731.39 2.63 0 7.92-10.392 14.342-23.21 14.342-12.819 0-23.21-6.421-23.21-14.343 0-1.742.503-3.412 1.423-4.957Z" fill="#FFF" fill-rule="nonzero" mask="url(#d)"/></g><path fill="#FFF" fill-rule="nonzero" d="M255.015 195.23h20.086l-10.043 20.905zm-34.645-10.708c-11.883 0-21.515-9.633-21.515-21.515 0-11.882 9.632-21.515 21.514-21.515s21.515 9.633 21.515 21.515c0 11.882-9.633 21.515-21.515 21.515Zm1.225-7.172c3.96 0 7.171-6.422 7.171-14.343s-3.21-14.343-7.171-14.343c-3.961 0-7.172 6.422-7.172 14.343s3.211 14.343 7.172 14.343Zm81.247 7.172c-11.882 0-21.515-9.633-21.515-21.515 0-11.882 9.633-21.515 21.515-21.515 11.882 0 21.514 9.633 21.514 21.515 0 11.882-9.632 21.515-21.514 21.515Zm1.225-7.172c3.961 0 7.172-6.422 7.172-14.343s-3.211-14.343-7.172-14.343c-3.96 0-7.171 6.422-7.171 14.343s3.21 14.343 7.171 14.343ZM136.948 92.596v50.635l33.865-25.317zm149.119-8.806 22.01-18.21v35.299l-22.01-14.59m-4.432-14.909-19.487-59.75c-37.746-13.48-73.071-5.038-105.976 25.332l-2.068 59.205c24.387 6.92 66.898-1.342 127.531-24.786Z"/><g transform="translate(200 261)" fill="#FFF" fill-rule="nonzero"><path d="M.082.486v61.483L119.432.486v61.483z"/><circle stroke="#FFF" cx="59.758" cy="31.228" r="11.976"/></g><path d="m361.572 171.003 29.524-6.473m-33.43 34.55 30.165 1.916m-264.766 10.861-23.794 2.264m23.141-28.352-20.238-1.796" stroke="#FFF" stroke-linecap="round" stroke-width="9"/></g></svg>