<svg width="40" height="40" viewBox="0 0 40 40" fill="none" xmlns="http://www.w3.org/2000/svg">
<g clip-path="url(#clip0_23310_9472)">
<path d="M40 0H0V40H40V0Z" fill="#8C4FFF" fill-opacity="0.12"/>
<path fill-rule="evenodd" clip-rule="evenodd" d="M15 27C11.141 27 8 23.86 8 20C8 16.14 11.141 13 15 13C18.859 13 22 16.14 22 20C22 23.86 18.859 27 15 27ZM29 28C30.103 28 31 28.897 31 30C31 31.103 30.103 32 29 32C27.897 32 27 31.103 27 30C27 28.897 27.897 28 29 28ZM29 8C30.103 8 31 8.897 31 10C31 11.103 30.103 12 29 12C27.897 12 27 11.103 27 10C27 8.897 27.897 8 29 8ZM30 18.5C31.103 18.5 32 19.397 32 20.5C32 21.603 31.103 22.5 30 22.5C28.897 22.5 28 21.603 28 20.5C28 19.397 28.897 18.5 30 18.5ZM22.931 21H27.051C27.29 22.416 28.517 23.5 30 23.5C31.654 23.5 33 22.154 33 20.5C33 18.846 31.654 17.5 30 17.5C28.517 17.5 27.29 18.584 27.051 20H23C23 18.511 22.584 17.12 21.872 15.925L26.699 11.902C27.25 12.567 28.071 13 29 13C30.654 13 32 11.654 32 10C32 8.346 30.654 7 29 7C27.346 7 26 8.346 26 10C26 10.361 26.074 10.702 26.191 11.022L21.306 15.094C19.84 13.215 17.562 12 15 12C10.589 12 7 15.589 7 20C7 24.411 10.589 28 15 28C17.562 28 19.84 26.785 21.306 24.906L26.191 28.978C26.074 29.298 26 29.639 26 30C26 31.654 27.346 33 29 33C30.654 33 32 31.654 32 30C32 28.346 30.654 27 29 27C28.071 27 27.25 27.433 26.699 28.098L21.872 24.075C22.422 23.152 22.791 22.113 22.931 21Z" fill="#8C4FFF"/>
</g>
<rect x="0.5" y="0.5" width="39" height="39" stroke="#8C4FFF"/>
<defs>
<clipPath id="clip0_23310_9472">
<rect width="40" height="40" fill="white"/>
</clipPath>
</defs>
</svg>
