<svg width="40" height="40" viewBox="0 0 40 40" xmlns="http://www.w3.org/2000/svg">  <g id="Icon-Architecture/32/Arch_AWS-Mainframe-Modernization_32" stroke="none" stroke-width="1" fill="none" fill-rule="evenodd">  <g id="Icon-Service/32/AWS-Mainframe-Modernization_32" transform="translate(6.000000, 5.500000)" fill="#FFFFFF"> <path d="M27.935,12.664 C27.935,12.829 27.928,12.991 27.914,13.152 C27.675,15.977 25.172,18.191 22.216,18.191 L22.216,17.191 C24.657,17.191 26.722,15.379 26.918,13.067 C26.93,12.934 26.935,12.799 26.935,12.664 C26.935,10.225 25.283,8.385 23.091,8.385 C22.815,8.385 22.591,8.162 22.591,7.885 C22.591,6.237 21.696,4.476 19.181,4.476 L18.747,4.476 C18.565,4.476 18.397,4.377 18.309,4.218 C17.194,2.203 15.083,1 12.664,1 C9.108,1 6.214,3.894 6.214,7.451 C6.214,7.727 5.991,7.951 5.714,7.951 C3.115,7.951 1,10.065 1,12.664 C1,13.129 1.128,17.205 5.542,17.205 L5.542,18.205 C1.714,18.205 0,15.422 0,12.664 C0,9.677 2.305,7.218 5.23,6.972 C5.477,3.085 8.717,1.13686838e-13 12.664,1.13686838e-13 C15.348,1.13686838e-13 17.707,1.293 19.035,3.476 L19.181,3.476 C21.698,3.476 23.378,5.003 23.573,7.409 C26.091,7.655 27.935,9.832 27.935,12.664 L27.935,12.664 Z M21.373,22.697 L23.686,24.503 L18.6,28.476 L9.367,28.476 L4.281,24.503 L6.594,22.697 L7.209,23.485 L5.906,24.503 L9.71,27.476 L18.256,27.476 L22.061,24.503 L20.758,23.485 L21.373,22.697 Z M21.373,17.697 L23.686,19.503 L18.6,23.476 L9.367,23.476 L4.281,19.503 L6.594,17.697 L7.209,18.485 L5.906,19.503 L9.71,22.476 L18.256,22.476 L22.061,19.503 L20.758,18.485 L21.373,17.697 Z M9.697,11.476 L18.314,11.476 L22.153,14.476 L18.314,17.476 L9.697,17.476 L5.857,14.476 L9.697,11.476 Z M18.658,18.476 L23.778,14.476 L18.658,10.476 L9.353,10.476 L4.232,14.476 L9.353,18.476 L18.658,18.476 Z" id="Fill-5"></path> </g> </g></svg>