<svg width="40" height="40" viewBox="0 0 40 40" fill="none" xmlns="http://www.w3.org/2000/svg">
<g clip-path="url(#clip0_23298_4092)">
<path d="M40 0H0V40H40V0Z" fill="#E7157B" fill-opacity="0.12"/>
<path fill-rule="evenodd" clip-rule="evenodd" d="M7 22.7357H8.99078V21.7545H7V22.7357ZM25.3968 15.6965C25.3391 15.4974 25.1619 15.3541 24.9529 15.3404C24.7339 15.3256 24.5478 15.4404 24.4622 15.6298L20.9096 23.5108L18.3952 18.5538C18.3146 18.3948 18.1534 18.2918 17.9742 18.283C17.8 18.2643 17.6238 18.3615 17.5283 18.5116L15.4549 21.7545H9.98618V22.7357H15.7296C15.9008 22.7357 16.0591 22.6493 16.1506 22.507L17.9005 19.7715L20.4905 24.8796C20.5752 25.0454 20.7474 25.1504 20.9355 25.1504H20.9474C21.1395 25.1465 21.3117 25.0327 21.3904 24.859L24.8125 17.2694L26.2758 22.3785C26.3365 22.5895 26.5316 22.7357 26.7545 22.7357H33.8756V21.7545H27.1308L25.3968 15.6965ZM21.3934 31.7362L14.2723 23.3636L13.5099 23.9945L21.0211 32.8253C21.1156 32.9362 21.256 33 21.4023 33H21.4073C21.5566 32.999 21.697 32.9313 21.7905 32.8165L28.9802 23.9857L28.2048 23.3715L21.3934 31.7362ZM10.8094 20.9852L9.16896 18.2545C8.62747 17.2694 8.35771 16.2696 8.35771 15.2658C8.35771 11.9062 11.2881 8 15.0676 8C17.8518 8 20.2437 9.64351 21.2421 11.9719C22.2404 9.64351 24.6324 8 27.4165 8C31.184 8 34 11.8365 34 15.2658C34 16.4226 33.786 17.3822 33.346 18.1986C33.1947 18.4822 33.0106 18.7647 32.7866 19.063L32.3646 19.5536L31.1592 21.0411L30.3818 20.4289L32.0072 18.4527C32.1814 18.2202 32.3377 17.9788 32.4661 17.7394C32.8294 17.0673 33.0046 16.2578 33.0046 15.2658C33.0046 12.3595 30.5639 8.9812 27.4165 8.9812C24.287 8.9812 21.7398 11.4097 21.7398 14.3955C21.7398 14.6663 21.5168 14.8861 21.2421 14.8861C20.9673 14.8861 20.7444 14.6663 20.7444 14.3955C20.7444 11.4097 18.1972 8.9812 15.0676 8.9812C11.8486 8.9812 9.35311 12.3595 9.35311 15.2658C9.35311 16.1047 9.58205 16.9476 10.0349 17.7698L11.6664 20.4848L10.8094 20.9852Z" fill="#E7157B"/>
</g>
<rect x="0.5" y="0.5" width="39" height="39" stroke="#E7157B"/>
<defs>
<clipPath id="clip0_23298_4092">
<rect width="40" height="40" fill="white"/>
</clipPath>
</defs>
</svg>
