<svg width="40" height="40" viewBox="0 0 40 40" fill="none" xmlns="http://www.w3.org/2000/svg">
<g clip-path="url(#clip0_23296_3767)">
<path d="M40 0H0V40H40V0Z" fill="#7AA116" fill-opacity="0.12"/>
<path fill-rule="evenodd" clip-rule="evenodd" d="M29 20V19H28V18H29.5C29.776 18 30 18.224 30 18.5V20H29ZM29 28H30V29.5C30 29.776 29.776 30 29.5 30H28V29H29V28ZM18.5 18H20V19H19V20H18V18.5C18 18.224 18.224 18 18.5 18ZM22 19H26V18H22V19ZM12 23H22V29V30V33H12V23ZM34 18.9485C34 15.1455 31.0023 13.9991 29.5925 13.6714C29.3764 11.8646 28.4178 10.5519 26.987 10.13C25.9324 9.81932 24.8258 10.0688 23.9873 10.7673C23.549 9.79026 22.9747 8.94448 22.2743 8.24702C20.02 6.00632 16.9362 5.39705 14.0206 6.61961C11.5342 7.6638 9.65809 10.5478 9.65809 13.3277C9.65809 13.488 9.66309 13.6473 9.6741 13.8067C8.31432 14.2506 6 15.5082 6 18.9074C6 19.1248 6.01001 19.3343 6.02802 19.5347C6.25715 21.9578 8.40637 23.9449 10.9548 24.2506V33.4989C10.9548 33.7755 11.179 34 11.4551 34H22.4614C22.7376 34 22.9617 33.7755 22.9617 33.4989V29.9916H25.9634V28.9895H22.9617V22.4758C22.9617 22.1993 22.7376 21.9748 22.4614 21.9748H11.4551C11.179 21.9748 10.9548 22.1993 10.9548 22.4758V23.2495C8.90966 22.9559 7.20669 21.3665 7.02459 19.4405C7.00858 19.2691 7.00057 19.0928 7.00057 18.9074C7.00057 15.9792 9.04074 14.9962 10.2895 14.6685C10.3105 14.6655 10.3335 14.6605 10.3545 14.6534C10.5886 14.5833 10.7367 14.3548 10.7067 14.1123C10.6757 13.8548 10.6587 13.5932 10.6587 13.3277C10.6587 10.9667 12.3056 8.4264 14.4078 7.54355C18.0509 6.01534 20.6294 8.02355 21.5679 8.95851C22.3333 9.72011 22.9307 10.6901 23.3419 11.8446C23.4029 12.0179 23.556 12.1442 23.7381 12.1712C23.9182 12.1963 24.1043 12.1231 24.2134 11.9748C24.8148 11.1691 25.7873 10.8214 26.7038 11.091C27.8015 11.4147 28.5199 12.527 28.6209 14.0051C28.5769 14.2767 28.76 14.5332 29.0302 14.5793C30.2238 14.7827 32.9994 15.6155 32.9994 18.9485C32.9994 21.6471 31.0913 22.7083 29.9657 23.1022V21.9748H28.9651V25.9832H29.9657V24.1564C31.2444 23.7826 34 22.557 34 18.9485Z" fill="#7AA116"/>
</g>
<rect x="0.5" y="0.5" width="39" height="39" stroke="#7AA116"/>
<defs>
<clipPath id="clip0_23296_3767">
<rect width="40" height="40" fill="white"/>
</clipPath>
</defs>
</svg>
