<svg width="24" height="24" viewBox="0 0 24 24" fill="none" xmlns="http://www.w3.org/2000/svg">
<path d="M8.38 14.5391L3 19.9191L4.93 21.8491" stroke="#DDDDDD" stroke-width="2" stroke-miterlimit="10"/>
<path d="M16.4196 15.3291C15.6074 16.1425 14.5722 16.6968 13.4449 16.9218C12.3176 17.1467 11.1489 17.0322 10.0868 16.5927C9.02464 16.1532 8.11668 15.4086 7.47785 14.4529C6.83903 13.4973 6.49805 12.3736 6.49805 11.2241C6.49805 10.0746 6.83903 8.95088 7.47785 7.99523C8.11668 7.03958 9.02464 6.29491 10.0868 5.85543C11.1489 5.41596 12.3176 5.30145 13.4449 5.52638C14.5722 5.75132 15.6074 6.30559 16.4196 7.11906C16.9593 7.65778 17.3875 8.29764 17.6796 9.00203C17.9718 9.70641 18.1221 10.4615 18.1221 11.2241C18.1221 11.9866 17.9718 12.7417 17.6796 13.4461C17.3875 14.1505 16.9593 14.7904 16.4196 15.3291Z" stroke="white" stroke-width="2" stroke-miterlimit="10"/>
<path d="M9.45898 11.4075L11.229 13.2475L15.169 9.1875" stroke="white" stroke-miterlimit="10"/>
<path d="M12.3105 3V5.36" stroke="white" stroke-width="2" stroke-miterlimit="10"/>
<path d="M6.5 5.41016L8.17 7.07016" stroke="white" stroke-width="2" stroke-miterlimit="10"/>
<path d="M4.09961 11.2188H6.44961" stroke="white" stroke-width="2" stroke-miterlimit="10"/>
<path d="M12.3105 19.4398V17.0898" stroke="white" stroke-width="2" stroke-miterlimit="10"/>
<path d="M18.129 17.0311L16.459 15.3711" stroke="white" stroke-width="2" stroke-miterlimit="10"/>
<path d="M20.5297 11.2188H18.1797" stroke="white" stroke-width="2" stroke-miterlimit="10"/>
<path d="M18.129 5.41016L16.459 7.07016" stroke="white" stroke-width="2" stroke-miterlimit="10"/>
<path d="M5.76953 17.9297L7.30953 19.4697" stroke="white" stroke-width="2" stroke-miterlimit="10"/>
</svg>
