<svg xmlns="http://www.w3.org/2000/svg" width="18" height="18" viewBox="0 0 18 18"><defs><linearGradient id="a" x1="9" y1="15.427" x2="9" y2="5.973" gradientUnits="userSpaceOnUse"><stop offset="0" stop-color="#32bedd"/><stop offset=".175" stop-color="#32caea"/><stop offset=".41" stop-color="#32d2f2"/><stop offset=".775" stop-color="#32d4f5"/></linearGradient></defs><path d="M1 5.973h16v8.92a.535.535 0 01-.535.535H1.535A.535.535 0 011 14.893v-8.92z" fill="url(#a)"/><path d="M1.538 2.563h14.924A.535.535 0 0117 3.1v2.873H1V3.1a.535.535 0 01.538-.537z" fill="#198ab3"/><path d="M1 5.973h4.194v9.455H1.536A.532.532 0 011 14.895V5.973z" fill="#9cebff"/><path d="M5.194 13.356H17V14.9a.532.532 0 01-.532.532H5.194v-2.076z" fill="#32bedd"/></svg>