<svg width="90" height="68" viewBox="0 0 90 68" fill="none" xmlns="http://www.w3.org/2000/svg">
<path fill-rule="evenodd" clip-rule="evenodd" d="M16.5859 20.4898H64.984V16.3418H16.5859V20.4898ZM47.2963 48.0497C47.8542 49.5529 48.6342 50.9488 49.5966 52.1977H16.5859V48.0497H47.2963ZM47.5759 36.3437C48.2242 34.8249 49.1034 33.4277 50.1694 32.1957H16.5859V36.3437H47.5759Z" fill="white"/>
<path fill-rule="evenodd" clip-rule="evenodd" d="M62.5424 52.6252C68.2008 52.6252 72.7879 48.0516 72.7879 42.4098C72.7879 36.7679 68.2008 32.1943 62.5424 32.1943C56.8839 32.1943 52.2969 36.7679 52.2969 42.4098C52.2969 48.0516 56.8839 52.6252 62.5424 52.6252ZM62.1071 46.8574L68.7128 39.3302L67.1539 37.9622L61.2009 44.7457L57.256 41.5991L55.9627 43.2205L60.6811 46.9841L61.4545 47.601L62.1071 46.8574Z" fill="white"/>
<rect x="1.38266" y="1.88266" width="87.2347" height="64.2347" fill="#326CE5" fill-opacity="0.1" stroke="white" stroke-width="2.76532" stroke-dasharray="5.53 5.53"/>
</svg>
