<svg version="1.1" id="Layer_1" xmlns="http://www.w3.org/2000/svg" xmlns:xlink="http://www.w3.org/1999/xlink" x="0px" y="0px"
         viewBox="0 0 735 593.5" style="enable-background:new 0 0 735 593.5;" xml:space="preserve" width='735' height='593.5'>
<style type="text/css">
        .st0{fill:#FFFFFF;}
        .st1{opacity:0.8;fill:#FFFFFF;}
</style>
<path class="st0" d="M297.5,1.5L65.7,113.1c-4.1,2-7.1,5.7-8.1,10.2L0.4,374.1c-1,4.5,0.1,9.1,2.9,12.7l160.4,201.1
        c2.9,3.6,7.2,5.7,11.7,5.7h257.2c4.6,0,8.9-2.1,11.7-5.7l160.4-201.1c2.9-3.6,3.9-8.3,2.9-12.7l-57.2-250.8c-1-4.5-4-8.2-8.1-10.2
        L310.5,1.5C306.4-0.5,301.6-0.5,297.5,1.5"/>
<path d="M221.8,210.5h51.1v100.8h1c5.1-8.8,10.5-16.9,15.6-25l51.7-75.7h63.2l-75.4,97l79.5,130.9h-60.2L292.5,340l-19.6,24v74.4
        h-51.1L221.8,210.5L221.8,210.5z"/>
<path class="st1" d="M585.3,1.3l-91.1,33.2c-1.7,0.6-3.1,1.8-3.9,3.3l-48.5,84c-0.9,1.5-1.2,3.3-0.9,5.1l16.8,95.5
        c0.3,1.7,1.2,3.3,2.6,4.5l74.3,62.3c1.4,1.1,3.1,1.8,4.8,1.8h97c1.8,0,3.5-0.6,4.8-1.8l74.3-62.3c1.4-1.1,2.3-2.7,2.6-4.5l16.8-95.5
        c0.3-1.7,0-3.5-0.9-5.1l-48.5-84c-0.9-1.5-2.3-2.7-3.9-3.3L590.5,1.3C588.8,0.7,587,0.7,585.3,1.3"/>
<path d="M570.2,111.9c1.8-1.7,3.7-3.3,5.7-4.8c1.9-1.5,4-2.7,6.2-3.8c2.2-1.1,4.6-1.9,7.1-2.5c2.5-0.6,5.3-0.9,8.3-0.9
        c4.9,0,9.3,0.8,13.1,2.5c3.8,1.7,7,4.1,9.6,7.1c2.6,3,4.6,6.7,5.9,10.9c1.3,4.2,2,8.8,2,13.9v57.4h-24.1v-57.4c0-5-1.2-8.9-3.5-11.7
        c-2.3-2.8-5.8-4.2-10.4-4.2c-3.4,0-6.6,0.7-9.6,2.2c-3,1.5-5.8,3.5-8.5,6.1v65h-24.2v-90.4h14.9c3,0,5.1,1.4,6.1,4.2L570.2,111.9
        L570.2,111.9z"/>
</svg>