<svg width="40" height="40" viewBox="0 0 40 40" xmlns="http://www.w3.org/2000/svg">  <g id="Icon-Architecture/32/Arch_AWS-HealthLake_32" stroke="none" stroke-width="1" fill="none" fill-rule="evenodd">  <g id="Icon-Service/32/AWS-HealthLake_32" transform="translate(6.000000, 6.000000)" fill="#FFFFFF"> <path d="M23,18 L24,18 L24,15 L23,15 L23,18 Z M26,23 L24.5,23 C24.224,23 24,22.776 24,22.5 L24,21 L22,21 L22,22.5 C22,22.776 21.776,23 21.5,23 L20,23 L20,25 L21.5,25 C21.776,25 22,25.224 22,25.5 L22,27 L24,27 L24,25.5 C24,25.224 24.224,25 24.5,25 L26,25 L26,23 Z M27,22.5 L27,25.5 C27,25.776 26.776,26 26.5,26 L25,26 L25,27.5 C25,27.776 24.776,28 24.5,28 L21.5,28 C21.224,28 21,27.776 21,27.5 L21,26 L19.5,26 C19.224,26 19,25.776 19,25.5 L19,22.5 C19,22.224 19.224,22 19.5,22 L21,22 L21,20.5 C21,20.224 21.224,20 21.5,20 L24.5,20 C24.776,20 25,20.224 25,20.5 L25,22 L26.5,22 C26.776,22 27,22.224 27,22.5 L27,22.5 Z M11,4 L17,4 L17,1 L11,1 L11,4 Z M10,4.5 L10,0.5 C10,0.224 10.224,0 10.5,0 L17.5,0 C17.776,0 18,0.224 18,0.5 L18,4.5 C18,4.776 17.776,5 17.5,5 L10.5,5 C10.224,5 10,4.776 10,4.5 L10,4.5 Z M5,2.738 C5,2.331 5.331,2 5.738,2 L9,2 L9,1 L5.738,1 C4.78,1 4,1.78 4,2.738 L4,10 L5,10 L5,2.738 Z M23,2.738 L23,10 L24,10 L24,2.738 C24,1.78 23.22,1 22.262,1 L19,1 L19,2 L22.262,2 C22.669,2 23,2.331 23,2.738 L23,2.738 Z M5,26.262 L5,15 L4,15 L4,26.262 C4,27.22 4.78,28 5.738,28 L19,28 L19,27 L5.738,27 C5.331,27 5,26.669 5,26.262 L5,26.262 Z M19.299,12 L17.563,7.373 C17.494,7.186 17.32,7.059 17.122,7.048 C16.926,7.036 16.738,7.146 16.648,7.324 L13.924,12.772 L11.312,9.114 C11.213,8.977 11.038,8.891 10.885,8.905 C10.716,8.912 10.563,9.003 10.476,9.147 L8.765,12 L0,12 L0,13 L9.048,13 C9.224,13 9.387,12.908 9.477,12.757 L10.94,10.316 L13.593,14.029 C13.688,14.161 13.839,14.238 14,14.238 C14.013,14.238 14.026,14.238 14.039,14.237 C14.214,14.223 14.369,14.119 14.447,13.962 L17.03,8.797 L18.484,12.675 C18.558,12.871 18.744,13 18.952,13 L28,13 L28,12 L19.299,12 Z M7,21 L15,21 L15,20 L7,20 L7,21 Z M7,24 L15,24 L15,23 L7,23 L7,24 Z" id="Fill-3"></path> </g> </g></svg>