<svg id="Layer_1" data-name="Layer 1" xmlns="http://www.w3.org/2000/svg" viewBox="0 0 400 400"><defs><style>.cls-1{fill:#551a8b;}</style></defs><g id="Layer_2" data-name="Layer 2"><g id="Layer_1-2" data-name="Layer 1-2"><path class="cls-1" d="M200.58667,50.94973C90.454,50.94973,1.17345,140.22212,1.17345,250.363a199.15086,199.15086,0,0,0,10.76182,64.76753h128.0936l-1.55612-2.457c-7.8953-12.408-20.16409-41.442-20.9176-44.07927a1.09012,1.09012,0,0,1-.04094-.172v-4.64381a1.69536,1.69536,0,0,1,1.69537-1.68717h74.35817V244.7691H113.34544a139.51074,139.51074,0,0,0,15.97895-32.02341c.07371-.20475.14741-.4095.213-.61426.131-.37675.25389-.76167.37674-1.13842s.3276-.96643.48321-1.44966a1.15724,1.15724,0,0,1,.10648-.35217c.22932-.7371.46684-1.47422.688-2.21953h0q1.638-5.43008,2.8092-11.04029h59.56681V178.59288H156.61387a1.13855,1.13855,0,0,1-.4095-.07371.31162.31162,0,0,1,.06551-.13923h-.06551a124.80926,124.80926,0,0,0,11.04847-51.71247v-2.023h.08191v-.04095h26.233V71.25306l64.37439,19.8283-50.32832,15.91341V124.5626h26.26574v.04095h.08191v2.023a124.80974,124.80974,0,0,0,11.04027,51.72066h-.06551s.041.09009.06551.13923a1.14643,1.14643,0,0,1-.4177.07371H207.61382V195.915h59.5668q1.18758,5.61841,2.80921,11.04029h0c.22115.7453.45045,1.48241.688,2.21953l.10647.35217c.15562.48321.31943.96643.48324,1.44966s.24569.76167.37676,1.13842c.06554.20476.13922.40951.213.61426a139.5107,139.5107,0,0,0,15.97894,32.02341H207.61382v17.33851h74.35a1.69534,1.69534,0,0,1,1.69536,1.68716v4.64382a1.087,1.087,0,0,1-.04094.172c-.75348,2.63722-13.02233,31.67124-20.91757,44.07928l-1.548,2.457H389.23807A199.15115,199.15115,0,0,0,399.99991,250.363C399.99991,140.22212,310.71932,50.94973,200.58667,50.94973Z"/></g></g></svg>