<svg xmlns="http://www.w3.org/2000/svg" width="18" height="18" viewBox="0 0 18 18"><defs><linearGradient id="a" x1="9" y1="13.83" x2="9" y2="1.07" gradientUnits="userSpaceOnUse"><stop offset="0" stop-color="#0078d4"/><stop offset=".82" stop-color="#5ea0ef"/></linearGradient></defs><path d="M18 9.83A4 4 0 0014.49 6a5.1 5.1 0 00-5.25-4.93 5.23 5.23 0 00-5 3.41A4.83 4.83 0 000 9.12a4.9 4.9 0 005.07 4.71h8.65a.78.78 0 00.22 0 4.09 4.09 0 004.06-4z" fill="url(#a)"/><path d="M6.63 6.82h5.06v7H6.63z" fill="#f2f2f2"/><path d="M12.61 6.37l-3.49-2a.25.25 0 00-.31.15v12.16a.25.25 0 00.24.25h.08l3.49-2.06a.25.25 0 00.17-.23v-8a.26.26 0 00-.18-.27z" fill="#50e6ff"/></svg>