<svg xmlns="http://www.w3.org/2000/svg" role="img" viewBox="0.11 1.86 358.28 358.28"><style>svg {enable-background:new 0 0 360 360}</style><path fill="#fff" fill-rule="evenodd" d="M12.1 8.9h28.3c2.7 0 5 2.2 5 5v28.3c0 2.7-2.2 5-5 5H12.1c-2.7 0-5-2.2-5-5V13.9c.1-2.7 2.3-5 5-5zm76.6 0h258c2.7 0 5 2.2 5 5v28.3c0 2.7-2.2 5-5 5h-258c-2.7 0-5-2.2-5-5V13.9c0-2.7 2.2-5 5-5zm258 76.6h-28.3c-2.7 0-5 2.2-5 5v28.3c0 2.8 2.2 5 5 5h28.3c2.7 0 5-2.2 5-5V90.5c0-2.8-2.3-5-5-5zm-153.1 0H12.1c-2.7 0-5 2.3-5 5v28.3c0 2.7 2.2 5 5 5h181.5c2.7 0 5-2.2 5-5V90.5c0-2.8-2.2-5-5-5zm76.6 0h-28.3c-2.7 0-5 2.2-5 5v28.3c0 2.8 2.2 5 5 5h28.3c2.7 0 5-2.2 5-5V90.5c-.1-2.8-2.3-5-5-5zm0 76.5H88.7c-2.7 0-5 2.2-5 5v28.3c0 2.7 2.2 5 5 5h181.5c2.7 0 5-2.2 5-5V167c-.1-2.8-2.3-5-5-5zm76.5 0h-28.3c-2.7 0-5 2.2-5 5v28.3c0 2.8 2.2 5 5 5h28.3c2.7 0 5-2.2 5-5V167c0-2.8-2.3-5-5-5zm-306.3 0H12.1c-2.7 0-5 2.2-5 5v28.3c0 2.8 2.2 5 5 5h28.3c2.7 0 5-2.2 5-5V167c0-2.8-2.2-5-5-5zm-28.3 76.5h28.3c2.7 0 5 2.2 5 5v28.3c0 2.7-2.2 5-5 5H12.1c-2.7 0-5-2.2-5-5v-28.3c.1-2.7 2.3-5 5-5zm153.1 0h181.5c2.7 0 5 2.2 5 5v28.3c0 2.7-2.2 5-5 5H165.2c-2.7 0-5-2.2-5-5v-28.3c0-2.7 2.2-5 5-5zm-76.5 0H117c2.7 0 5 2.2 5 5v28.3c0 2.7-2.2 5-5 5H88.7c-2.7 0-5-2.2-5-5v-28.3c0-2.7 2.2-5 5-5zm258 76.7h-28.3c-2.7 0-5 2.2-5 5v28.3c0 2.8 2.2 5 5 5h28.3c2.7 0 5-2.2 5-5v-28.3c0-2.8-2.3-5-5-5zm-76.5 0h-258c-2.7 0-5 2.2-5 5v28.3c0 2.7 2.2 5 5 5h258c2.7 0 5-2.2 5-5v-28.3c-.1-2.8-2.3-5-5-5z" clip-rule="evenodd"/></svg>