<svg xmlns="http://www.w3.org/2000/svg" xmlns:xlink="http://www.w3.org/1999/xlink" id="Layer_1" x="0" y="0" version="1.1" viewBox="0 0 36 40" xml:space="preserve" style="enable-background:new 0 0 36 40"><style type="text/css">.st0{fill:#fff;enable-background:new}</style><path d="M34.6,9.2L19,0.3c-0.6-0.4-1.4-0.4-2.1,0l-15.5,9c-0.7,0.4-1,1-1,1.8V29c0,0.4,0.1,0.7,0.3,1        c0.2,0.3,0.4,0.6,0.8,0.7l15.5,9c0.6,0.4,1.4,0.4,2.1,0l15.5-9c0.6-0.4,1-1,1-1.8V11C35.6,10.3,35.2,9.6,34.6,9.2z M27,26.9        c0,1.1-0.9,1.9-2.3,1.9c-0.9,0-2.1-0.4-2.7-1.2l-9-10.7v9.9c0,1.1-0.9,2-2,2c-1.1,0-2-0.9-2-2V13.1c0-1.1,0.9-1.9,2.3-1.9        c0.9,0,2.1,0.4,2.7,1.2l0.6,0.7l8.4,10v-9.9c0-1.1,0.9-2,2-2c1.1,0,2,0.9,2,2V26.9z" class="st0"/></svg>