<svg width="24px" height="24px" viewBox="0 0 24 24" fill="none" xmlns="http://www.w3.org/2000/svg">
<path d="M19.4999 20.06H18.7999V18.56H19.4999C19.698 18.5574 19.8873 18.4776 20.0274 18.3375C20.1675 18.1974 20.2473 18.0081 20.2499 17.81V13.5C20.2473 13.3019 20.1675 13.1126 20.0274 12.9725C19.8873 12.8324 19.698 12.7526 19.4999 12.75H15.8899V11.25H19.4999C20.0966 11.25 20.6689 11.4871 21.0909 11.909C21.5128 12.331 21.7499 12.9033 21.7499 13.5V17.81C21.7499 18.4067 21.5128 18.979 21.0909 19.401C20.6689 19.8229 20.0966 20.06 19.4999 20.06Z" fill="white"/>
<path d="M11.5499 20.0596H6.6499V18.5596H11.5499V20.0596Z" fill="white"/>
<path fill-rule="evenodd" clip-rule="evenodd" d="M8.12 12.7504H4.5C3.90326 12.7504 3.33097 12.5134 2.90901 12.0914C2.48705 11.6695 2.25 11.0972 2.25 10.5004V6.19043C2.25 5.59369 2.48705 5.0214 2.90901 4.59944C3.33097 4.17748 3.90326 3.94043 4.5 3.94043H5.5V5.44043H4.5C4.30109 5.44043 4.11032 5.51945 3.96967 5.6601C3.82902 5.80075 3.75 5.99152 3.75 6.19043V10.5004C3.75259 10.6985 3.83244 10.8878 3.97253 11.0279C4.11263 11.168 4.30189 11.2478 4.5 11.2504H8.12V12.7504Z" fill="#DDDDDD"/>
<path d="M17.3001 5.44043H11.8201V3.94043H17.3001V5.44043Z" fill="white"/>
<path d="M8.63 3.94043V2.44043H5.63C5.33203 2.44042 5.04612 2.5581 4.83448 2.76786C4.62285 2.97761 4.50264 3.26247 4.5 3.56043V5.81043C4.5 6.11012 4.61905 6.39754 4.83097 6.60946C5.04289 6.82138 5.33031 6.94043 5.63 6.94043H8.63V5.44043H6V3.94043H8.63Z" fill="white"/>
<path fill-rule="evenodd" clip-rule="evenodd" d="M12.7499 3.56043V5.81043C12.7499 6.1084 12.6322 6.39431 12.4225 6.60595C12.2127 6.81758 11.9278 6.93779 11.6299 6.94043H8.62988V5.44043H11.2499V3.94043H8.62988V2.44043H11.6299C11.9269 2.44043 12.2118 2.55843 12.4218 2.76847C12.6319 2.97851 12.7499 3.26339 12.7499 3.56043Z" fill="#DDDDDD"/>
<path d="M19.3101 7.13C18.8275 7.13 18.3558 6.9869 17.9545 6.71879C17.5533 6.45068 17.2405 6.0696 17.0559 5.62375C16.8712 5.1779 16.8229 4.68729 16.917 4.21398C17.0111 3.74067 17.2435 3.3059 17.5848 2.96466C17.926 2.62342 18.3608 2.39103 18.8341 2.29688C19.3074 2.20274 19.798 2.25106 20.2439 2.43574C20.6897 2.62041 21.0708 2.93315 21.3389 3.33441C21.607 3.73567 21.7501 4.20741 21.7501 4.69C21.7475 5.33632 21.4896 5.95541 21.0326 6.41243C20.5755 6.86945 19.9564 7.12737 19.3101 7.13ZM19.3101 3.75C19.1242 3.75 18.9425 3.80513 18.7879 3.90842C18.6333 4.01171 18.5128 4.15852 18.4417 4.33028C18.3705 4.50204 18.3519 4.69104 18.3882 4.87339C18.4245 5.05573 18.514 5.22322 18.6454 5.35468C18.7769 5.48614 18.9444 5.57567 19.1267 5.61194C19.3091 5.64821 19.4981 5.62959 19.6698 5.55845C19.8416 5.4873 19.9884 5.36682 20.0917 5.21224C20.195 5.05765 20.2501 4.87592 20.2501 4.69C20.2501 4.4407 20.1511 4.2016 19.9748 4.02532C19.7985 3.84904 19.5594 3.75 19.3101 3.75Z" fill="white"/>
<path d="M4.68999 21.7501C4.20698 21.7521 3.73426 21.6107 3.33169 21.3438C2.92912 21.0769 2.61482 20.6965 2.42861 20.2508C2.2424 19.8051 2.19265 19.3142 2.28566 18.8402C2.37868 18.3663 2.61027 17.9306 2.95111 17.5883C3.29195 17.2461 3.7267 17.0127 4.20028 16.9177C4.67387 16.8228 5.16498 16.8705 5.61141 17.0549C6.05785 17.2393 6.43952 17.552 6.70807 17.9535C6.97663 18.3549 7.11999 18.8271 7.11999 19.3101C7.12 19.9555 6.8643 20.5746 6.40887 21.0319C5.95344 21.4892 5.33539 21.7475 4.68999 21.7501ZM4.68999 18.3701C4.50366 18.3681 4.32095 18.4216 4.16506 18.5236C4.00917 18.6257 3.88713 18.7718 3.81445 18.9434C3.74177 19.115 3.72172 19.3043 3.75685 19.4873C3.79198 19.6703 3.88071 19.8387 4.01177 19.9712C4.14282 20.1036 4.31029 20.1942 4.4929 20.2312C4.67551 20.2683 4.86502 20.2503 5.03737 20.1795C5.20971 20.1086 5.35711 19.9881 5.46085 19.8334C5.56459 19.6786 5.61998 19.4964 5.61999 19.3101C5.62001 19.0625 5.52234 18.8249 5.34822 18.6489C5.17409 18.4729 4.93756 18.3727 4.68999 18.3701Z" fill="white"/>
<path d="M4.68999 21.7501C4.20698 21.7521 3.73426 21.6107 3.33169 21.3438C2.92912 21.0769 2.61482 20.6965 2.42861 20.2508C2.2424 19.8051 2.19265 19.3142 2.28566 18.8402C2.37868 18.3663 2.61027 17.9306 2.95111 17.5883C3.29195 17.2461 3.7267 17.0127 4.20028 16.9177C4.67387 16.8228 5.16498 16.8705 5.61141 17.0549C6.05785 17.2393 6.43952 17.552 6.70807 17.9535C6.97663 18.3549 7.11999 18.8271 7.11999 19.3101C7.12 19.9555 6.8643 20.5746 6.40887 21.0319C5.95344 21.4892 5.33539 21.7475 4.68999 21.7501ZM4.68999 18.3701C4.50366 18.3681 4.32095 18.4216 4.16506 18.5236C4.00917 18.6257 3.88713 18.7718 3.81445 18.9434C3.74177 19.115 3.72172 19.3043 3.75685 19.4873C3.79198 19.6703 3.88071 19.8387 4.01177 19.9712C4.14282 20.1036 4.31029 20.1942 4.4929 20.2312C4.67551 20.2683 4.86502 20.2503 5.03737 20.1795C5.20971 20.1086 5.35711 19.9881 5.46085 19.8334C5.56459 19.6786 5.61998 19.4964 5.61999 19.3101C5.62001 19.0625 5.52234 18.8249 5.34822 18.6489C5.17409 18.4729 4.93756 18.3727 4.68999 18.3701Z" fill="white"/>
<path d="M15.36 18.5703V17.0703H12.36C12.062 17.0729 11.7772 17.1932 11.5674 17.4048C11.3577 17.6164 11.24 17.9023 11.24 18.2003V20.4503C11.24 20.7474 11.358 21.0322 11.568 21.2423C11.7781 21.4523 12.0629 21.5703 12.36 21.5703H15.36V20.0703H12.74V18.5703H15.36Z" fill="white"/>
<path fill-rule="evenodd" clip-rule="evenodd" d="M19.4901 18.2003V20.4503C19.4875 20.7483 19.3673 21.0331 19.1556 21.2429C18.944 21.4526 18.6581 21.5703 18.3601 21.5703H15.3601V20.0703H18.0001V18.5703H15.3601V17.0703H18.3601C18.659 17.0729 18.9449 17.1928 19.1563 17.4042C19.3676 17.6155 19.4875 17.9014 19.4901 18.2003Z" fill="#DDDDDD"/>
<path d="M12.0001 11.25V9.75H9.00012C8.70215 9.74999 8.41623 9.86767 8.2046 10.0774C7.99297 10.2872 7.87275 10.572 7.87012 10.87V13.12C7.87012 13.4197 7.98917 13.7071 8.20109 13.919C8.413 14.1309 8.70042 14.25 9.00012 14.25H12.0001V12.75H9.37012V11.25H12.0001Z" fill="white"/>
<path fill-rule="evenodd" clip-rule="evenodd" d="M16.12 10.87V13.12C16.12 13.418 16.0023 13.7039 15.7926 13.9155C15.5828 14.1271 15.298 14.2474 15 14.25H12V12.75H14.62V11.25H12V9.75H15C15.297 9.75 15.5819 9.868 15.792 10.078C16.002 10.2881 16.12 10.573 16.12 10.87Z" fill="#DDDDDD"/>
</svg>
