<svg xmlns="http://www.w3.org/2000/svg" role="img" viewBox="2.11 0.36 354.53 358.28"><defs><style>.cls-1,.cls-3{fill:#fff}.cls-3{fill-rule:evenodd}</style></defs><path d="M261.64217 222.44292a91.03429 91.03429 0 1 1 3.603-78.25885H350a172.29318 172.29318 0 1 0-1.74279 78.25885z" class="cls-1"/><path d="M348.25721 222.44292h-86.615a91.04766 91.04766 0 0 1-171.35963-42.34679c-.0023.32058-.01378.63877-.01378.9599 0 86.93451 74.89662 151.11716 168.005 152.71721a172.7037 172.7037 0 0 0 89.98341-111.33032z" class="cls-1"/><path fill="#fff" d="M90.33585 176.89814c-.00688.22478-.01139.45019-.01708.67524q.00717-.33798.01708-.67524z" opacity=".59"/><path d="M126.98919 252.6178c.18362.13677.37533.2628.56005.39829-.18472-.1354-.37643-.26161-.56005-.39829zm3.55742 2.52036c.23616.159.482.3045.71979.46139-.23782-.1568-.48353-.30239-.71979-.46139zm7.48239 4.53073c.34759.18821.70675.3576 1.05709.5414-.35037-.1839-.70953-.3531-1.05709-.5414zm-3.80013-2.1782c.28769.17426.58595.33243.87576.50356-.28972-.17113-.58807-.3293-.87576-.50356zm7.71264 4.17631c.41482.19933.84186.37652 1.26018.56979-.41832-.19323-.84536-.37051-1.26018-.56979zm-24.69903-17.44186c-.04116-.04088-.08479-.07918-.12594-.12006.04115.04097.08478.07918.12594.12006zm6.31918 5.71008c.13089.10756.26822.20732.39976.31415-.13154-.10683-.26887-.20659-.39976-.31415zm-9.45241-8.96722l.0282.02948zm6.15953 6.12766c.084.076.1726.14687.25692.22256-.08432-.07569-.17287-.1466-.25692-.22256zm144.89168 83.02178q-.74238.41433-1.48909.8212.74694-.40714 1.48909-.8212zm-93.13327-59.98407c.99049.1004 1.993.1591 2.99269.22753-.99967-.06843-2.00211-.12713-2.99269-.22753zm4.61635.35063q2.32332.11753 4.67641.11822-2.35252-.00001-4.67641-.11822z" class="cls-1"/><path d="M258.27379 333.77324c-93.10837-1.60005-168.005-65.7827-168.005-152.71721 0-.32113.01148-.63932.01378-.9599v.0011c-.0011-.18289-.01378-.363-.01378-.54618A91.06714 91.06714 0 0 1 167.02267 89.626v-.646C92.16408 101.758 39.09956 165.693 39.09956 249.53252A108.2249 108.2249 0 0 0 45 284.95635a172.425 172.425 0 0 0 213.27921 48.81405z" class="cls-1"/><path d="M145.96189 263.47974c.47958.20227.97193.37964 1.45565.57392-.48372-.19428-.97607-.37166-1.45565-.57392zm21.51911 6.07686c.86226.13145 1.73682.224 2.6068.33124-.87004-.10711-1.74451-.19984-2.6068-.33124zm-4.473-.7974c.742.15156 1.49644.26748 2.24488.40086-.74846-.13338-1.50288-.2493-2.24488-.40086zm-12.92378-3.65801c.55179.20163 1.11671.37515 1.67345.56621-.55674-.19106-1.12167-.36467-1.67345-.56621zm8.52778 2.64529c.67965.17453 1.37216.31589 2.05777.475-.68571-.15902-1.37812-.30048-2.05777-.475zm-4.30991-1.22133c.62748.19465 1.2679.35843 1.90107.53984-.63316-.18141-1.27369-.34519-1.90107-.53984zm174.56456 2.06907c.24894-.41161.49153-.82689.73706-1.2407-.24544.41372-.48822.82928-.73706 1.2407zm-3.91125 6.16009c.22193-.33418.44909-.66422.66872-.99995-.21963.33573-.44679.66586-.66872.99995zm7.33392-12.08851c.1636-.29651.33326-.58908.49511-.8866-.16185.29762-.3316.59009-.49511.8866zm3.33109-6.34288c.2211-.44348.43678-.88981.65411-1.33541-.21724.4456-.43301.89202-.65411 1.33541zm3.03705-6.42068c.10481-.234.2155-.46461.31929-.69912-.10375.23451-.21448.46516-.31929.69912zM307.602 296.77388c.3351-.36081.673-.7185 1.005-1.08225-.332.36366-.67.72153-1.005 1.08225zm4.98464-5.59351c.28586-.33583.56446-.67753.84775-1.01557-.2832.33794-.56189.67993-.84775 1.01557zm4.12491-5.04706c.27778-.35236.55968-.70105.83479-1.0557-.27511.35456-.55701.70339-.83479 1.0557zm4.46037-5.90343c.27089-.37561.53488-.75608.80274-1.134-.26786.37774-.53194.75849-.80274 1.134zm24.92758-50.16057q.22458-.73358.44192-1.4698-.21825.73619-.44192 1.4698zm-4.71721 13.39469c.18739-.46892.37064-.93969.554-1.41064-.18345.47096-.36661.94182-.554 1.41064zm-53.06268 71.1532c-.42548.33758-.85491.67046-1.28369 1.00409.42887-.33372.85808-.66642 1.28369-1.00409zm-5.59048 4.25342c-.23368.17039-.46259.34694-.6971.51614.2346-.1692.46342-.34576.6971-.51614zm-5.6523 3.9491q-.69733.46708-1.40063.926.70242-.4606 1.40063-.926zm16.70007-12.71864c-.2718.23432-.53837.47453-.81155.70711.27327-.23268.53975-.47279.81155-.70711zm-22.87145 16.67067c-.16415.1-.32472.20539-.48923.305.16451-.0997.32508-.20487.48923-.305zm27.93927-21.21275c-.37983.35439-.76452.70344-1.14757 1.05442.38305-.35112.76774-.69999 1.14757-1.05442zm45.15328-69.06019c.05006-.14284.10444-.28356.15414-.42658-.0497.14302-.10414.28377-.15414.42658zm-40.82868 64.88866c.28651-.2865.56575-.57989.85023-.86841-.28439.28843-.56382.582-.85023.86841z" class="cls-1"/><path d="M239.0439 181.79658a23.6557 23.6557 0 0 0-9.31049-9.35642q-6.39777-3.77145-21.18506-7.45646-5.97477-1.43943-7.56788-3.10925a4.96889 4.96889 0 0 1-1.643-3.62741 6.287 6.287 0 0 1 1.99154-4.69259q1.99155-1.92885 5.92484-1.92889a10.40617 10.40617 0 0 1 7.4932 2.591q2.71355 2.591 3.5599 8.29134l21.25984-1.43949q-1.39412-13.128-8.738-19.14483t-21.33451-6.01688q-11.4017 0-17.94877 3.31069a22.58686 22.58686 0 0 0-9.80845 9.09738 24.65557 24.65557 0 0 0-3.26118 12.293q0 9.90355 6.373 16.29471 6.32322 6.39115 21.16026 10.24889 9.06156 2.30322 11.551 4.89421a8.25693 8.25693 0 0 1 2.4894 5.87294 8.345 8.345 0 0 1-2.61387 6.07457q-2.61392 2.61971-7.44341 2.61975a11.32522 11.32522 0 0 1-9.9578-5.12449q-2.14091-3.16671-2.83791-9.21248l-21.459 1.55458q.946 12.78243 8.11552 21.07364t25.79057 8.29134q10.60515 0 17.57546-3.54107a25.51186 25.51186 0 0 0 10.854-10.39293 29.8412 29.8412 0 0 0 3.88351-14.97032 26.60831 26.60831 0 0 0-2.91271-12.49453z" class="cls-3"/><path d="M179.981 177.41943a24.58161 24.58161 0 0 1-4.06419-7.18162H148.695v-14.71717h26.05915a29.73158 29.73158 0 0 1 12.005-18.109h-60.68586v84.27876H148.695v-34.43589h31.286z" class="cls-3"/></svg>
