<svg width="40" height="40" viewBox="0 0 40 40" fill="none" xmlns="http://www.w3.org/2000/svg">
<g clip-path="url(#clip0_23296_3437)">
<path d="M40 0H0V40H40V0Z" fill="#C925D1" fill-opacity="0.12"/>
<path fill-rule="evenodd" clip-rule="evenodd" d="M28 28.848C27.173 28.848 26.5 28.175 26.5 27.348C26.5 26.521 27.173 25.848 28 25.848C28.827 25.848 29.5 26.521 29.5 27.348C29.5 28.175 28.827 28.848 28 28.848ZM28 24.848C26.621 24.848 25.5 25.97 25.5 27.348C25.5 28.726 26.621 29.848 28 29.848C29.379 29.848 30.5 28.726 30.5 27.348C30.5 25.97 29.379 24.848 28 24.848ZM33 27.912L32.616 27.89C32.371 27.884 32.154 28.04 32.101 28.279C31.995 28.744 31.813 29.184 31.558 29.589C31.428 29.796 31.465 30.066 31.647 30.229L31.935 30.485L31.137 31.282L30.883 30.997C30.721 30.814 30.448 30.776 30.243 30.907C29.838 31.162 29.396 31.345 28.931 31.451C28.692 31.505 28.528 31.723 28.542 31.967L28.563 32.348H27.437L27.458 31.966C27.472 31.722 27.308 31.503 27.069 31.45C26.605 31.345 26.164 31.162 25.758 30.906C25.552 30.776 25.281 30.815 25.118 30.996L24.863 31.282L24.065 30.485L24.352 30.23C24.533 30.067 24.571 29.797 24.441 29.591C24.187 29.185 24.005 28.744 23.899 28.279C23.847 28.04 23.628 27.884 23.384 27.89L23 27.912V26.784L23.385 26.806C23.628 26.819 23.847 26.657 23.9 26.418C24.007 25.953 24.189 25.513 24.444 25.109C24.574 24.903 24.537 24.632 24.354 24.469L24.065 24.211L24.863 23.413L25.121 23.702C25.283 23.884 25.555 23.922 25.761 23.792C26.164 23.538 26.604 23.355 27.069 23.251C27.308 23.197 27.472 22.979 27.458 22.735L27.437 22.348H28.563L28.542 22.735C28.528 22.979 28.692 23.197 28.931 23.251C29.396 23.356 29.836 23.539 30.239 23.793C30.445 23.923 30.717 23.886 30.879 23.703L31.137 23.414L31.935 24.211L31.646 24.468C31.464 24.631 31.426 24.902 31.557 25.108C31.812 25.512 31.994 25.952 32.1 26.417C32.152 26.656 32.371 26.819 32.615 26.806L33 26.784V27.912ZM33.844 25.891C33.743 25.797 33.606 25.753 33.472 25.756L32.964 25.785C32.872 25.494 32.756 25.214 32.615 24.944L32.995 24.605C33.098 24.513 33.158 24.384 33.162 24.246C33.166 24.108 33.113 23.975 33.016 23.878L31.47 22.332C31.373 22.235 31.24 22.191 31.102 22.186C30.965 22.19 30.835 22.25 30.743 22.353L30.402 22.735C30.134 22.594 29.853 22.478 29.563 22.387L29.592 21.876C29.6 21.739 29.551 21.604 29.456 21.505C29.361 21.405 29.23 21.348 29.093 21.348H26.907C26.77 21.348 26.639 21.405 26.544 21.505C26.449 21.604 26.4 21.739 26.408 21.876L26.437 22.386C26.147 22.477 25.866 22.594 25.597 22.734L25.257 22.353C25.165 22.25 25.035 22.19 24.897 22.186C24.8 22.195 24.628 22.235 24.53 22.332L22.984 23.878C22.887 23.975 22.834 24.108 22.838 24.246C22.842 24.383 22.902 24.513 23.005 24.605L23.386 24.945C23.245 25.214 23.129 25.495 23.037 25.785L22.528 25.756C22.396 25.753 22.257 25.797 22.156 25.891C22.057 25.986 22 26.117 22 26.255V28.441C22 28.579 22.057 28.71 22.156 28.805C22.257 28.9 22.396 28.952 22.528 28.94L23.035 28.911C23.126 29.202 23.242 29.483 23.384 29.753L23.005 30.091C22.902 30.183 22.842 30.312 22.838 30.45C22.834 30.587 22.887 30.721 22.984 30.818L24.53 32.364C24.628 32.461 24.769 32.518 24.898 32.51C25.035 32.506 25.165 32.446 25.257 32.343L25.595 31.965C25.865 32.106 26.146 32.223 26.437 32.314L26.408 32.82C26.4 32.957 26.449 33.091 26.544 33.191C26.639 33.291 26.77 33.348 26.907 33.348H29.093C29.23 33.348 29.361 33.291 29.456 33.191C29.551 33.091 29.6 32.957 29.592 32.82L29.563 32.315C29.854 32.223 30.136 32.107 30.406 31.965L30.743 32.343C30.834 32.446 30.964 32.506 31.102 32.51C31.244 32.522 31.373 32.461 31.47 32.364L33.016 30.818C33.113 30.721 33.166 30.588 33.162 30.45C33.158 30.312 33.098 30.183 32.995 30.091L32.616 29.753C32.757 29.483 32.873 29.202 32.965 28.911L33.472 28.94C33.606 28.952 33.743 28.9 33.844 28.805C33.943 28.71 34 28.579 34 28.441V26.255C34 26.117 33.943 25.986 33.844 25.891ZM15 15.848C15 13.918 16.57 12.348 18.5 12.348C20.43 12.348 22 13.918 22 15.848C22 17.778 20.43 19.348 18.5 19.348C16.57 19.348 15 17.778 15 15.848ZM18.003 20.646C19.053 20.646 20.461 21.287 21.677 22.32L22.323 21.557C21.564 20.913 20.748 20.415 19.952 20.087C21.719 19.479 23 17.819 23 15.848C23 13.367 20.981 11.348 18.5 11.348C16.019 11.348 14 13.367 14 15.848C14 17.608 15.025 19.119 16.501 19.858C13.574 20.678 11.371 23.847 11.087 27.831L7 25.625V12.945L18 7.131L29 12.945V19.348H30V12.343L18 6L6 12.343V26.222L17.986 32.692L21.216 31.142L20.784 30.241L18.014 31.57L12.061 28.356C12.193 24.018 14.772 20.646 18.003 20.646Z" fill="#C925D1"/>
</g>
<rect x="0.5" y="0.5" width="39" height="39" stroke="#C925D1"/>
<defs>
<clipPath id="clip0_23296_3437">
<rect width="40" height="40" fill="white"/>
</clipPath>
</defs>
</svg>
