<svg width="90" height="90" viewBox="0 0 90 90" fill="none" xmlns="http://www.w3.org/2000/svg">
<path fill-rule="evenodd" clip-rule="evenodd" d="M83.4362 43.7461C83.4362 45.4101 83.339 47.0514 83.1497 48.6645C80.9547 46.4768 77.9267 45.1245 74.5828 45.1245H73.8243C67.1217 45.1245 61.6882 50.558 61.6882 57.2605V59.0993C58.5549 59.3375 56.0867 61.9554 56.0867 65.1497V82.9501C51.6072 84.5945 46.7676 85.4921 41.7185 85.4921C18.6784 85.4921 0.000732422 66.8018 0.000732422 43.7461C0.000732422 20.6903 18.6784 2 41.7185 2C64.7586 2 83.4362 20.6903 83.4362 43.7461ZM37.2459 32.2767L49.4096 18.0241L62.9929 32.2767H53.6779V48.7217H46.0085V32.2767H37.2459ZM34.0736 69.5524L21.91 55.2998H30.6726V38.8543H38.3419V55.2998H47.657L34.0736 69.5524ZM84.3436 61.5893H86.2289C88.3027 61.5893 89.9991 63.2874 89.9991 65.3625V84.2267C89.9991 86.3019 88.3027 88 86.2289 88H63.6068C61.5331 88 59.8367 86.3019 59.8367 84.2267V65.3625C59.8367 63.2874 61.5331 61.5893 63.6068 61.5893H65.4922V57.8166C65.4922 52.61 69.7148 48.3845 74.9179 48.3845C80.1209 48.3845 84.3436 52.61 84.3436 57.8166V61.5893ZM71.1477 74.7946C71.1477 76.8698 72.8441 78.5673 74.9179 78.5673C76.9917 78.5673 78.688 76.8698 78.688 74.7946C78.688 72.7194 76.9917 71.0219 74.9179 71.0219C72.8441 71.0219 71.1477 72.7194 71.1477 74.7946ZM69.0734 61.5893H80.7624V57.8166C80.7624 54.5909 78.1414 51.9681 74.9179 51.9681C71.6944 51.9681 69.0734 54.5909 69.0734 57.8166V61.5893Z" fill="#326CE5"/>
</svg>
