<svg width="90" height="90" viewBox="0 0 90 90" fill="none" xmlns="http://www.w3.org/2000/svg">
<path fill-rule="evenodd" clip-rule="evenodd" d="M45.0081 44.8831C56.1488 44.8831 65.1801 35.8518 65.1801 24.7111C65.1801 13.5704 56.1488 4.53906 45.0081 4.53906C33.8674 4.53906 24.8361 13.5704 24.8361 24.7111C24.8361 35.8518 33.8674 44.8831 45.0081 44.8831ZM30.3872 45.9442C30.7929 45.8851 31.203 45.9906 31.5499 46.2092C35.1824 48.498 39.8427 49.8733 44.9246 49.8733C50.0356 49.8733 54.7202 48.4822 58.3616 46.1697C58.701 45.9542 59.1018 45.847 59.5006 45.8982C69.2512 47.1502 76.7862 55.4814 76.7862 65.5725V73.3866C76.7862 80.0552 71.3802 85.4612 64.7115 85.4612H25.5121C18.8435 85.4612 13.4375 80.0552 13.4375 73.3866V65.5725C13.4375 55.5976 20.8 47.3422 30.3872 45.9442Z" fill="#326CE5"/>
</svg>
