<svg width="40" height="40" viewBox="0 0 40 40" fill="none" xmlns="http://www.w3.org/2000/svg">
<g clip-path="url(#clip0_23296_3783)">
<path d="M40 0H0V40H40V0Z" fill="#01A88D" fill-opacity="0.12"/>
<path fill-rule="evenodd" clip-rule="evenodd" d="M16.516 32.9332L14.293 31.6632L17.724 29.9472L17.277 29.0532L13.277 31.0532L13.297 31.0942L10 29.2102V25.8092L13.724 23.9472L13.277 23.0532L9.536 24.9232L7 23.2322V20.8092L10.724 18.9472L10.277 18.0532L7 19.6912V16.7672L9.523 15.0862L13 17.0382V20.1912L11.277 21.0532L11.724 21.9472L13.5 21.0592L15.277 21.9472L15.724 21.0532L14 20.1912V16.7672L16.778 14.9162C16.916 14.8232 17 14.6672 17 14.5002V11.0002H16V14.2322L13.278 16.0472L10 14.2072V10.0352L13 8.65721V13.0002H14V8.19821L16.492 7.05421L20 8.80921V23.1912L12.277 27.0532L12.724 27.9472L20 24.3092V31.1912L16.516 32.9332ZM31.5 25.5002C31.5 26.0512 31.052 26.5002 30.5 26.5002C29.949 26.5002 29.5 26.0512 29.5 25.5002C29.5 24.9492 29.949 24.5002 30.5 24.5002C31.052 24.5002 31.5 24.9492 31.5 25.5002ZM26.5 30.0002C26.5 30.5512 26.052 31.0002 25.5 31.0002C24.949 31.0002 24.5 30.5512 24.5 30.0002C24.5 29.4492 24.949 29.0002 25.5 29.0002C26.052 29.0002 26.5 29.4492 26.5 30.0002ZM25.5 10.0002C25.5 9.44921 25.949 9.00021 26.5 9.00021C27.052 9.00021 27.5 9.44921 27.5 10.0002C27.5 10.5512 27.052 11.0002 26.5 11.0002C25.949 11.0002 25.5 10.5512 25.5 10.0002ZM32 17.5002C32.552 17.5002 33 17.9492 33 18.5002C33 19.0512 32.552 19.5002 32 19.5002C31.449 19.5002 31 19.0512 31 18.5002C31 17.9492 31.449 17.5002 32 17.5002ZM30.071 19.0002C30.295 19.8602 31.071 20.5002 32 20.5002C33.103 20.5002 34 19.6032 34 18.5002C34 17.3972 33.103 16.5002 32 16.5002C31.071 16.5002 30.295 17.1402 30.071 18.0002H21V15.0002H26.5C26.777 15.0002 27 14.7762 27 14.5002V11.9292C27.86 11.7052 28.5 10.9292 28.5 10.0002C28.5 8.89721 27.603 8.00021 26.5 8.00021C25.398 8.00021 24.5 8.89721 24.5 10.0002C24.5 10.9292 25.14 11.7052 26 11.9292V14.0002H21V8.50021C21 8.31021 20.893 8.13821 20.724 8.05321L16.724 6.05321C16.588 5.98521 16.43 5.98221 16.291 6.04521L9.291 9.26021C9.115 9.34121 9 9.51921 9 9.71421V14.2322L6.223 16.0842C6.084 16.1772 6 16.3332 6 16.5002V23.5002C6 23.6672 6.084 23.8232 6.223 23.9162L9 25.7672V29.5002C9 29.6792 9.096 29.8452 9.252 29.9342L16.252 33.9342C16.329 33.9782 16.414 34.0002 16.5 34.0002C16.577 34.0002 16.654 33.9822 16.724 33.9472L20.724 31.9472C20.893 31.8622 21 31.6892 21 31.5002V27.0002H25V28.0712C24.14 28.2952 23.5 29.0712 23.5 30.0002C23.5 31.1032 24.398 32.0002 25.5 32.0002C26.603 32.0002 27.5 31.1032 27.5 30.0002C27.5 29.0712 26.86 28.2952 26 28.0712V26.5002C26 26.2242 25.777 26.0002 25.5 26.0002H21V23.0002H27.293L28.784 24.4902C28.608 24.7882 28.5 25.1302 28.5 25.5002C28.5 26.6032 29.398 27.5002 30.5 27.5002C31.603 27.5002 32.5 26.6032 32.5 25.5002C32.5 24.3972 31.603 23.5002 30.5 23.5002C30.131 23.5002 29.788 23.6082 29.491 23.7832L27.854 22.1462C27.76 22.0532 27.633 22.0002 27.5 22.0002H21V19.0002H30.071Z" fill="#01A88D"/>
</g>
<rect x="0.5" y="0.5" width="39" height="39" stroke="#01A88D"/>
<defs>
<clipPath id="clip0_23296_3783">
<rect width="40" height="40" fill="white"/>
</clipPath>
</defs>
</svg>
