<svg width="40" height="40" viewBox="0 0 40 40" fill="none" xmlns="http://www.w3.org/2000/svg">
<g clip-path="url(#clip0_23311_9717)">
<path d="M40 0H0V40H40V0Z" fill="#7AA116" fill-opacity="0.12"/>
<path fill-rule="evenodd" clip-rule="evenodd" d="M18 12H22V11H18V12ZM14 23H26V18H14V23ZM26.5 17H13.5C13.224 17 13 17.224 13 17.5V23.5C13 23.776 13.224 24 13.5 24H26.5C26.776 24 27 23.776 27 23.5V17.5C27 17.224 26.776 17 26.5 17ZM33 27.923C33 29.068 32.119 30 31.036 30H8.964C7.881 30 7 29.068 7 27.923V12.077C7 10.932 7.881 10 8.964 10H31.036C32.119 10 33 10.932 33 12.077V27.923ZM31.036 9H8.964C7.33 9 6 10.38 6 12.077V27.923C6 29.62 7.33 31 8.964 31H31.036C32.67 31 34 29.62 34 27.923V12.077C34 10.38 32.67 9 31.036 9ZM30 26.373C30 26.719 29.713 27 29.36 27H10.64C10.287 27 10 26.719 10 26.373V13.627C10 13.281 10.287 13 10.64 13H15.191L16.053 14.724C16.138 14.893 16.311 15 16.5 15H23.5C23.689 15 23.862 14.893 23.947 14.724L24.809 13H29.36C29.713 13 30 13.281 30 13.627V26.373ZM29.36 12H24.5C24.311 12 24.138 12.107 24.053 12.276L23.191 14H16.809L15.947 12.276C15.862 12.107 15.689 12 15.5 12H10.64C9.735 12 9 12.73 9 13.627V26.373C9 27.27 9.735 28 10.64 28H29.36C30.265 28 31 27.27 31 26.373V13.627C31 12.73 30.265 12 29.36 12Z" fill="#7AA116"/>
</g>
<rect x="0.5" y="0.5" width="39" height="39" stroke="#7AA116"/>
<defs>
<clipPath id="clip0_23311_9717">
<rect width="40" height="40" fill="white"/>
</clipPath>
</defs>
</svg>
