<svg width="40" height="40" viewBox="0 0 40 40" xmlns="http://www.w3.org/2000/svg">  <g id="Icon-Architecture/32/Arch_AWS-Resource-Explorer_32" stroke="none" stroke-width="1" fill="none" fill-rule="evenodd">  <path d="M32.746,30.4265 L27.315,24.9475 C26.745,25.8545 25.991,26.6335 25.098,27.2245 L30.444,32.7395 C30.658,32.9515 30.937,33.0395 31.277,32.9855 C31.647,32.9285 32.037,32.7125 32.374,32.3755 C32.95,31.7985 33.263,30.9445 32.746,30.4265 L32.746,30.4265 Z M26.396,30.0005 L24.195,27.7295 C23.22,28.1955 22.134,28.4645 20.983,28.4645 C20.649,28.4645 20.323,28.4345 20,28.3925 L20,32.7415 L26.396,30.0005 Z M7,27.1805 L19,32.7185 L19,28.1895 C15.837,27.3165 13.504,24.4215 13.504,20.9855 C13.504,19.4605 13.965,18.0425 14.751,16.8595 L7,13.2825 L7,27.1805 Z M7.693,12.5005 L15.38,16.0475 C16.752,14.4935 18.752,13.5055 20.983,13.5055 C22.734,13.5055 24.342,14.1145 25.618,15.1255 L31.306,12.5005 L19.5,7.0515 L7.693,12.5005 Z M27.463,20.9855 C27.463,17.4125 24.557,14.5055 20.983,14.5055 C17.41,14.5055 14.504,17.4125 14.504,20.9855 C14.504,24.5575 17.41,27.4645 20.983,27.4645 C24.557,27.4645 27.463,24.5575 27.463,20.9855 L27.463,20.9855 Z M31.296,27.5425 L32,27.1915 L32,13.2815 L26.415,15.8595 C27.681,17.1995 28.463,19.0005 28.463,20.9855 C28.463,22.0685 28.226,23.0955 27.81,24.0255 L31.296,27.5425 Z M33.455,29.7205 C34.319,30.5865 34.162,32.0005 33.081,33.0825 C32.595,33.5685 32.008,33.8855 31.43,33.9745 C31.315,33.9915 31.203,34.0005 31.094,34.0005 C30.572,34.0005 30.098,33.8075 29.731,33.4405 L27.141,30.7695 L19.697,33.9595 C19.634,33.9865 19.567,34.0005 19.5,34.0005 C19.429,34.0005 19.356,33.9855 19.29,33.9545 L6.29,27.9545 C6.113,27.8725 6,27.6955 6,27.5005 L6,12.5005 C6,12.3055 6.113,12.1285 6.29,12.0465 L19.29,6.0465 C19.425,5.9845 19.575,5.9845 19.71,6.0465 L32.71,12.0465 C32.887,12.1285 33,12.3055 33,12.5005 L33,27.5005 C33,27.6895 32.892,27.8625 32.724,27.9475 L32.037,28.2905 L33.455,29.7205 Z M19,22.9995 L20,22.9995 L20,20.9995 L19,20.9995 L19,22.9995 Z M19,25.9995 L20,25.9995 L20,23.9995 L19,23.9995 L19,25.9995 Z M22.415,16.6045 L22.835,17.5125 L24.102,16.9265 L23.683,16.0185 L22.415,16.6045 Z M21.062,17.2275 L21.482,18.1355 L20,18.8205 L20,19.9995 L19,19.9995 L19,18.8205 L17.033,17.9125 L17.453,17.0045 L19.5,17.9495 L21.062,17.2275 Z" id="Fill-1" fill="#FFFFFF"></path> </g></svg>