<svg width="40" height="40" viewBox="0 0 40 40" fill="none" xmlns="http://www.w3.org/2000/svg">
<g clip-path="url(#clip0_23296_3425)">
<path d="M40 0H0V40H40V0Z" fill="#C925D1" fill-opacity="0.12"/>
<path fill-rule="evenodd" clip-rule="evenodd" d="M29.654 28.335C29.536 28.45 29.482 28.615 29.509 28.777L30.165 32.597L26.734 30.794C26.662 30.755 26.582 30.736 26.502 30.736C26.422 30.736 26.341 30.755 26.269 30.794L22.839 32.597L23.494 28.777C23.521 28.615 23.467 28.45 23.349 28.335L20.574 25.629L24.41 25.072C24.572 25.048 24.714 24.946 24.786 24.798L26.502 21.323L28.217 24.798C28.289 24.946 28.43 25.048 28.592 25.072L32.429 25.629L29.654 28.335ZM33.979 25.126C33.921 24.945 33.763 24.813 33.576 24.786L28.997 24.12L26.95 19.972C26.866 19.801 26.692 19.693 26.502 19.693C26.311 19.693 26.137 19.801 26.053 19.972L24.006 24.12L19.427 24.786C19.239 24.813 19.083 24.945 19.024 25.126C18.966 25.307 19.014 25.505 19.151 25.638L22.464 28.868L21.681 33.427C21.649 33.614 21.726 33.804 21.881 33.916C22.035 34.028 22.239 34.043 22.407 33.954L26.502 31.801L30.596 33.954C30.67 33.992 30.749 34.011 30.829 34.011C30.932 34.011 31.036 33.979 31.123 33.916C31.277 33.804 31.354 33.614 31.322 33.427L30.54 28.868L33.852 25.638C33.989 25.505 34.038 25.307 33.979 25.126ZM12.828 12.367C12.828 9.407 15.236 7 18.196 7C21.155 7 23.562 9.407 23.562 12.367C23.562 15.326 21.155 17.734 18.196 17.734C15.236 17.734 12.828 15.326 12.828 12.367ZM17.908 18.968C19.703 18.968 21.483 19.439 23.055 20.329L23.548 19.459C22.597 18.92 21.574 18.537 20.52 18.289C22.883 17.357 24.562 15.057 24.562 12.367C24.562 8.856 21.707 6 18.196 6C14.684 6 11.828 8.856 11.828 12.367C11.828 14.973 13.404 17.216 15.652 18.2C10.162 19.313 6 24.415 6 30.511C6 30.788 6.223 31.011 6.5 31.011H20V30.011H7.009C7.258 23.886 12.051 18.968 17.908 18.968Z" fill="#C925D1"/>
</g>
<rect x="0.5" y="0.5" width="39" height="39" stroke="#C925D1"/>
<defs>
<clipPath id="clip0_23296_3425">
<rect width="40" height="40" fill="white"/>
</clipPath>
</defs>
</svg>
