<svg width="40" height="40" viewBox="0 0 40 40" fill="none" xmlns="http://www.w3.org/2000/svg">
<g clip-path="url(#clip0_23295_3014)">
<path d="M40 0H0V40H40V0Z" fill="#E7157B" fill-opacity="0.12"/>
<path fill-rule="evenodd" clip-rule="evenodd" d="M31.8489 22H21.8839L22.9559 18H32.9209L31.8489 22ZM33.5729 17H22.5729C22.3459 17 22.1479 17.152 22.0889 17.371L20.7489 22.371C20.7089 22.521 20.7419 22.681 20.8359 22.804C20.9309 22.928 21.0779 23 21.2329 23H32.2329C32.4589 23 32.6579 22.848 32.7159 22.629L34.0559 17.629C34.0959 17.479 34.0639 17.319 33.9689 17.196C33.8739 17.072 33.7279 17 33.5729 17ZM21.4029 31.5C21.4029 32.327 20.7299 33 19.9029 33C19.0759 33 18.4029 32.327 18.4029 31.5C18.4029 30.673 19.0759 30 19.9029 30C20.7299 30 21.4029 30.673 21.4029 31.5ZM6.15187 24L6.68886 22H15.6539L15.1169 24H6.15187ZM6.15187 18L6.68886 16H10.4029H11.4029H15.6539L15.1169 18H6.15187ZM18.4029 8.5C18.4029 7.673 19.0759 7 19.9029 7C20.7299 7 21.4029 7.673 21.4029 8.5C21.4029 9.327 20.7299 10 19.9029 10C19.0759 10 18.4029 9.327 18.4029 8.5ZM27.4029 27H11.4029V25H15.4999C15.7269 25 15.9239 24.848 15.9839 24.629L16.7879 21.629C16.8279 21.479 16.7959 21.319 16.7019 21.196C16.6069 21.072 16.4599 21 16.3049 21H11.4029V19H15.4999C15.7269 19 15.9239 18.848 15.9839 18.629L16.7879 15.629C16.8279 15.479 16.7959 15.319 16.7019 15.196C16.6069 15.072 16.4599 15 16.3049 15H11.4029V13H27.4029V15H28.4029V12.5C28.4029 12.224 28.1789 12 27.9029 12H20.4029V10.949C21.5419 10.717 22.4029 9.707 22.4029 8.5C22.4029 7.122 21.2819 6 19.9029 6C18.5239 6 17.4029 7.122 17.4029 8.5C17.4029 9.707 18.2629 10.717 19.4029 10.949V12H10.9029C10.6259 12 10.4029 12.224 10.4029 12.5V15H6.30486C6.07786 15 5.88086 15.152 5.82186 15.371L5.01686 18.371C4.97686 18.521 5.00886 18.681 5.10386 18.804C5.19886 18.928 5.34486 19 5.49986 19H10.4029V21H6.30486C6.07786 21 5.88086 21.152 5.82186 21.371L5.01686 24.371C4.97686 24.521 5.00886 24.681 5.10386 24.804C5.19886 24.928 5.34486 25 5.49986 25H10.4029V27.5C10.4029 27.776 10.6259 28 10.9029 28H19.4029V29.051C18.2629 29.283 17.4029 30.293 17.4029 31.5C17.4029 32.878 18.5239 34 19.9029 34C21.2819 34 22.4029 32.878 22.4029 31.5C22.4029 30.293 21.5419 29.283 20.4029 29.051V28H27.9029C28.1789 28 28.4029 27.776 28.4029 27.5V25H27.4029V27Z" fill="#E7157B"/>
</g>
<rect x="0.5" y="0.5" width="39" height="39" stroke="#E7157B"/>
<defs>
<clipPath id="clip0_23295_3014">
<rect width="40" height="40" fill="white"/>
</clipPath>
</defs>
</svg>
