<svg width="40" height="40" viewBox="0 0 40 40" fill="none" xmlns="http://www.w3.org/2000/svg">
<g clip-path="url(#clip0_23296_3773)">
<path d="M40 0H0V40H40V0Z" fill="#7AA116" fill-opacity="0.12"/>
<path fill-rule="evenodd" clip-rule="evenodd" d="M13.9727 18.7963C14.6617 18.7963 15.2237 19.3582 15.2237 20.0471C15.2237 20.737 14.6617 21.2979 13.9727 21.2979C13.2837 21.2979 12.7218 20.737 12.7218 20.0471C12.7218 19.3582 13.2837 18.7963 13.9727 18.7963ZM17.9246 14.827C18.2006 15.4839 18.7805 15.9788 19.4855 16.1448L19.4965 25.4551C18.9755 25.4081 18.4606 25.3082 17.9806 25.1142V19.9591C17.9806 19.6821 17.7566 19.4592 17.4806 19.4592H16.1356C15.9516 18.7853 15.4697 18.2344 14.8337 17.9694C15.3877 16.5347 16.5006 15.4019 17.9246 14.827ZM20.0005 12.7084C20.6905 12.7084 21.2515 13.2703 21.2515 13.9601C21.2515 14.65 20.6905 15.2109 20.0005 15.2109C19.3115 15.2109 18.7495 14.65 18.7495 13.9601C18.7495 13.2703 19.3115 12.7084 20.0005 12.7084ZM25.1673 17.9694C24.5253 18.2364 24.0384 18.7963 23.8604 19.4792H22.5214C22.2444 19.4792 22.0214 19.7031 22.0214 19.9791V25.1142C21.5414 25.3102 21.0225 25.4091 20.4965 25.4561L20.4855 16.1548C21.2055 15.9958 21.7974 15.4929 22.0764 14.826C23.5014 15.4009 24.6143 16.5327 25.1673 17.9694ZM27.2802 20.0471C27.2802 20.737 26.7183 21.2979 26.0293 21.2979C25.3393 21.2979 24.7783 20.737 24.7783 20.0471C24.7783 19.3582 25.3393 18.7963 26.0293 18.7963C26.7183 18.7963 27.2802 19.3582 27.2802 20.0471ZM23.0214 24.5943V20.479H23.8224C23.9634 21.2049 24.4543 21.8038 25.1123 22.0987C24.6843 23.1155 23.9494 23.9884 23.0214 24.5943ZM15.7457 23.5085L15.6637 23.4075C15.3407 23.0046 15.1017 22.5576 14.9057 22.0897C15.5607 21.7898 16.0466 21.1869 16.1826 20.459H16.9806V24.5933C16.5216 24.2953 16.1006 23.9354 15.7457 23.5085ZM13.9097 22.2917C14.1487 22.9136 14.4577 23.5035 14.8687 24.0134C14.9067 24.0644 14.9497 24.1164 14.9857 24.1574C15.5347 24.8192 16.2196 25.3582 16.9806 25.7531V28.8865H17.9806V26.176C18.4676 26.338 18.9745 26.441 19.4975 26.481L19.5005 28.9485L20.5005 28.9475L20.4975 26.481C21.0245 26.442 21.5344 26.339 22.0214 26.176V28.8865H23.0214V25.7551C24.4313 25.0182 25.5403 23.7714 26.1083 22.2907C27.3122 22.2477 28.2802 21.2609 28.2802 20.0471C28.2802 18.8553 27.3462 17.8865 26.1723 17.8115C25.5243 15.9488 24.0864 14.495 22.2384 13.8212C22.1644 12.6454 21.1955 11.7085 20.0005 11.7085C18.8075 11.7085 17.8366 12.6454 17.7636 13.8212C15.9156 14.495 14.4777 15.9518 13.8287 17.8115C12.6568 17.8865 11.7218 18.8553 11.7218 20.0471C11.7218 21.2669 12.6988 22.2577 13.9097 22.2917ZM9.04689 31.0002H30.9541V10.0008H9.04689V31.0002ZM34 17.9344V16.9346H31.9541V14.938H33.969V13.9381H31.9541V11.9095H33.969V10.9097H31.9541V9.49991C31.9541 9.22396 31.7311 9 31.4541 9H8.54691C8.27092 9 8.04693 9.22396 8.04693 9.49991V10.9407L6.002 10.9377L6 11.9375L8.04693 11.9405V13.9381H6.001V14.938H8.04693V16.9346H6.001V17.9344H8.04693V19.9621H6.001V20.9619H8.04693V22.9896H6.001V23.9894H8.04693V26.017H6.001V27.0169H8.04693V28.9515H6.001V29.9514H8.04693V31.5001C8.04693 31.776 8.27092 32 8.54691 32H31.4541C31.7311 32 31.9541 31.776 31.9541 31.5001V29.9514H33.939V28.9515H31.9541V26.9859H33.969V25.986H31.9541V23.9584H34V22.9586H31.9541V20.9619H33.969V19.9621H31.9541V17.9344H34Z" fill="#7AA116"/>
</g>
<rect x="0.5" y="0.5" width="39" height="39" stroke="#7AA116"/>
<defs>
<clipPath id="clip0_23296_3773">
<rect width="40" height="40" fill="white"/>
</clipPath>
</defs>
</svg>
