<svg id="Layer_1" data-name="Layer 1" xmlns="http://www.w3.org/2000/svg" xmlns:xlink="http://www.w3.org/1999/xlink" viewBox="0 0 900 900"><defs><style>.cls-1{fill:none;}.cls-2{clip-path:url(#clip-path);}.cls-3{fill:#f7d186;}.cls-4{clip-path:url(#clip-path-2);}.cls-5{isolation:isolate;}.cls-6{clip-path:url(#clip-path-3);}.cls-7{clip-path:url(#clip-path-4);}.cls-8{clip-path:url(#clip-path-5);}.cls-9{fill:#ffcd3c;}.cls-10{clip-path:url(#clip-path-7);}.cls-11{clip-path:url(#clip-path-8);}.cls-12{fill:#f3807b;}.cls-13{clip-path:url(#clip-path-11);}.cls-14{clip-path:url(#clip-path-12);}.cls-15{fill:#35d0ba;}.cls-16{clip-path:url(#clip-path-14);}.cls-17{fill:#d8ae64;}</style><clipPath id="clip-path"><path class="cls-1" d="M447.73,309.78a46.75981,46.75981,0,0,0-46.76,46.76V796.58a46.76,46.76,0,0,0,93.52,0V356.55a46.75555,46.75555,0,0,0-46.76-46.77"/></clipPath><clipPath id="clip-path-2"><path class="cls-1" d="M263.62,234.54q-.195,4.305-.2,8.68c0,3.19.07,6.35.24,9.5-.07,1.55-.24,3.08-.24,4.66V563.56c0,58.55,47.91,106.46,106.46,106.46H530.1c58.56,0,106.46-47.91,106.46-106.46V257.37c0-1.78-.18-3.51-.28-5.26.14-2.95.22-5.92.22-8.89,0-2.92-.07-5.8-.2-8.68C631.8,135.53,550.1,56.66,449.98,56.66,349.85,56.66,268.14,135.53,263.62,234.54Z"/></clipPath><clipPath id="clip-path-3"><rect class="cls-1" x="142.32001" y="97.05" width="606.10999" height="606.10997"/></clipPath><clipPath id="clip-path-4"><rect class="cls-1" x="121.45167" y="305.6912" width="654.37372" height="195.51814" transform="translate(-153.87924 435.4032) rotate(-45)"/></clipPath><clipPath id="clip-path-5"><rect class="cls-1" x="260.91" y="50.92997" width="382.11002" height="619.28997"/></clipPath><clipPath id="clip-path-7"><rect class="cls-1" x="-22.38" y="-67.66" width="639.04998" height="639.05002"/></clipPath><clipPath id="clip-path-8"><rect class="cls-1" x="-32.95044" y="128.3843" width="654.3837" height="241.17767" transform="translate(-89.86928 280.98264) rotate(-45)"/></clipPath><clipPath id="clip-path-11"><rect class="cls-1" x="280.67001" y="235.39999" width="606.11002" height="606.11002"/></clipPath><clipPath id="clip-path-12"><rect class="cls-1" x="258.77901" y="443.79101" width="654.39197" height="193.81798" transform="translate(-210.70418 572.72293) rotate(-45.00062)"/></clipPath><clipPath id="clip-path-14"><polygon class="cls-1" points="412.96 670.01 494.5 752.9 494.5 670.01 412.96 670.01"/></clipPath></defs><g class="cls-2"><rect class="cls-3" x="368.03" y="276.84" width="159.41" height="599.44003"/></g><g class="cls-4"><g class="cls-5"><g class="cls-6"><g class="cls-7"><g class="cls-8"><rect class="cls-9" x="115.65" y="70.36997" width="665.66" height="665.65997"/></g></g></g></g></g><g class="cls-4"><g class="cls-5"><g class="cls-10"><g class="cls-11"><g class="cls-8"><rect class="cls-12" x="-55.32999" y="-100.60001" width="699.14" height="699.14004"/></g></g></g></g></g><g class="cls-4"><g class="cls-5"><g class="cls-13"><g class="cls-14"><g class="cls-8"><rect class="cls-15" x="253.14" y="207.87" width="665.65999" height="665.65997"/></g></g></g></g></g><g class="cls-16"><rect class="cls-17" x="380.69" y="636.90997" width="147.02997" height="147.66998"/></g></svg>