<svg width="24px" height="24px" viewBox="0 0 24 24" fill="none" xmlns="http://www.w3.org/2000/svg">
<path fill-rule="evenodd" clip-rule="evenodd" d="M10.1894 2C10.3728 2.00077 10.5258 2.13096 10.5618 2.30439L10.5698 2.38112V4.33245H12.6188L12.6185 2.38171C12.619 2.19768 12.7494 2.04436 12.9226 2.00831L12.9992 2.00029L13.6211 2C13.8048 2.00077 13.9578 2.13119 13.9936 2.30468L14.0015 2.38142V4.33245H16.0505L16.0502 2.38171C16.051 2.19768 16.1814 2.04458 16.3544 2.00859L16.4309 2.00059L17.0525 2.00029C17.2362 2.00107 17.3892 2.13125 17.4254 2.30469L17.4335 2.38142L17.4332 4.33245H19.2543C19.4622 4.3335 19.6348 4.48348 19.6715 4.68151L19.6786 4.75782V6.57493H21.619C21.8027 6.57545 21.9559 6.70605 21.992 6.87979L22 6.95664V7.57877C21.9995 7.76306 21.8689 7.91663 21.6956 7.95254L21.619 7.96048H19.6786V10.013H21.619C21.8029 10.0135 21.9565 10.1441 21.9922 10.318L22 10.395V11.0168C21.9995 11.2009 21.8689 11.3544 21.6956 11.3901L21.619 11.3979L19.6786 11.3982V13.451H21.619C21.8029 13.4516 21.9565 13.5824 21.9922 13.756L22 13.8328V14.4549C21.9995 14.6389 21.8689 14.7925 21.6956 14.8282L21.619 14.836L19.6786 14.8363L19.6783 16.654C19.6775 16.8625 19.5276 17.0357 19.3299 17.0723L19.2538 17.0794H17.4335L17.4332 19.0295C17.433 19.2138 17.3024 19.3676 17.1289 19.4036L17.0522 19.4115H16.4315C16.2476 19.411 16.0941 19.2802 16.0584 19.1064L16.0505 19.0295L16.0502 17.0794H14.0015L14.0012 19.0295C14.001 19.2138 13.8706 19.3674 13.6974 19.4035L13.6208 19.4115H12.9995C12.8156 19.411 12.6623 19.2802 12.6266 19.1064L12.6188 19.0295L12.6182 17.0794L11.606 17.079L11.6076 17.1292C11.6076 19.7466 9.57152 21.8818 7.01776 21.9953L6.80378 22C4.15073 22 2 19.8193 2 17.1292C2 14.4391 4.15073 12.2584 6.80378 12.2584C6.85036 12.2584 6.89677 12.259 6.94303 12.2604L6.94201 11.3982H5.00194C4.81824 11.3977 4.66498 11.2671 4.62934 11.0936L4.62152 11.0168L4.62123 10.3944C4.62174 10.2104 4.75188 10.057 4.92505 10.021L5.00164 10.013L6.94201 10.0133L6.94171 7.96048H5.00194C4.81824 7.9597 4.66521 7.82929 4.62942 7.656L4.62152 7.57936L4.62093 6.95605C4.6217 6.77227 4.75187 6.61899 4.92485 6.58275L5.00135 6.57464H6.94171V4.75752C6.9425 4.54907 7.09264 4.37604 7.2904 4.33954L7.36659 4.33245H9.18712L9.18682 2.38171C9.1876 2.19768 9.31777 2.04436 9.49094 2.00831L9.56754 2.00029L10.1894 2ZM6.72944 14.4905L6.00155 15.2285L7.5452 16.7943L4.0702 16.7942V17.8379L7.5452 17.8383L6.00155 19.402L6.72921 20.1403L9.5162 17.3161L6.72944 14.4905ZM18.2468 5.76018L8.37417 5.76047L8.37494 12.5248C9.80176 13.0253 10.9236 14.1885 11.3824 15.6513L18.2459 15.651L18.2468 5.76018ZM15.3046 8.2826C15.5127 8.28312 15.6856 8.43352 15.7219 8.63164L15.7289 8.70797V12.7038C15.7281 12.9123 15.5782 13.0858 15.3803 13.1224L15.304 13.1295H11.3158C11.1078 13.1285 10.9348 12.9782 10.8983 12.7802L10.8913 12.7038L10.891 8.70797C10.8917 8.49951 11.0417 8.32625 11.2394 8.28991L11.3155 8.2829L15.3046 8.2826Z" fill="white"/>
</svg>
