<svg width="40" height="40" viewBox="0 0 40 40" fill="none" xmlns="http://www.w3.org/2000/svg">
<g clip-path="url(#clip0_23295_3190)">
<path d="M40 0H0V40H40V0Z" fill="#ED7100" fill-opacity="0.12"/>
<path fill-rule="evenodd" clip-rule="evenodd" d="M15.077 16.3743L11.252 20.1761L15.077 23.9729L15.7786 23.2755L12.6564 20.1761L15.7786 17.0717L15.077 16.3743ZM6.99245 32.0135H18.9019V8.33862H6.99245V32.0135ZM6 33H19.8943V7.35216H6V33ZM7.6296 19.6829C7.6296 25.2918 12.2207 29.8552 17.8647 29.8552V28.8687C12.7685 28.8687 8.62205 24.7473 8.62205 19.6829C8.62205 14.6174 12.7685 10.497 17.8647 10.497V9.51053C12.2207 9.51053 7.6296 14.0729 7.6296 19.6829ZM21.4614 24.8765V25.863C24.8516 25.863 27.6086 23.1216 27.6086 19.7529C27.6086 16.3832 24.8516 13.6418 21.4614 13.6418V14.6283C24.3038 14.6283 26.6162 16.9277 26.6162 19.7529C26.6162 22.5781 24.3038 24.8765 21.4614 24.8765ZM34 17.7099V21.7968C34 22.3502 33.5474 22.8001 32.9907 22.8001H31.2321C31.0346 23.4452 30.7726 24.0716 30.452 24.6694L31.6965 25.9064C32.0905 26.298 32.0905 26.9343 31.6965 27.3259L28.7886 30.2162C28.3956 30.6069 27.7535 30.6069 27.3605 30.2162L26.115 28.9782C25.5146 29.2978 24.8843 29.5583 24.2363 29.7546V31.5016C24.2363 32.056 23.7827 32.5068 23.226 32.5068H21.1706V31.5203H23.226L23.2438 29.0029L23.613 28.9052C24.4288 28.6902 25.2158 28.3656 25.9512 27.9405L26.2817 27.7491L28.0622 29.5188L30.9949 26.6285L29.2144 24.8351L29.4059 24.5066C29.8347 23.7747 30.1622 22.9924 30.3785 22.1806L30.4768 21.8136H32.9907L33.0075 17.7099L30.4768 17.6912L30.3785 17.3252C30.1622 16.5134 29.8347 15.7311 29.4059 14.9992L29.2144 14.6717L30.9949 12.902L28.087 9.98699L26.2817 11.7567L25.9512 11.5653C25.2158 11.1392 24.4288 10.8146 23.613 10.5996L23.2438 10.5029V8.00323L21.2123 7.98646V7H23.226C23.7827 7 24.2363 7.44982 24.2363 8.00323V9.75122C24.8843 9.94753 25.5145 10.208 26.116 10.5266L27.3605 9.28956C27.7535 8.89893 28.3956 8.89794 28.7886 9.28956L31.6965 12.1799C32.0905 12.5715 32.0905 13.2087 31.6965 13.5994L30.452 14.8364C30.7726 15.4342 31.0346 16.0606 31.2321 16.7047H32.9907C33.5474 16.7047 34 17.1556 34 17.7099Z" fill="#ED7100"/>
</g>
<rect x="0.5" y="0.5" width="39" height="39" stroke="#ED7100"/>
<defs>
<clipPath id="clip0_23295_3190">
<rect width="40" height="40" fill="white"/>
</clipPath>
</defs>
</svg>
