<svg width="40" height="40" viewBox="0 0 40 40" fill="none" xmlns="http://www.w3.org/2000/svg">
<g clip-path="url(#clip0_23296_3594)">
<path d="M40 0H0V40H40V0Z" fill="#C925D1" fill-opacity="0.12"/>
<path fill-rule="evenodd" clip-rule="evenodd" d="M28.6835 26.854L30.6686 24.854C30.8621 24.659 30.8621 24.342 30.6686 24.147L28.6835 22.147L27.9818 22.854L29.6155 24.5L27.9818 26.147L28.6835 26.854ZM22.0265 26.854L22.7283 26.147L21.0945 24.5L22.7283 22.854L22.0265 22.147L20.0415 24.147C19.8479 24.342 19.8479 24.659 20.0415 24.854L22.0265 26.854ZM33.2591 11L30.1197 8H29.5311L26.5535 11H33.2591ZM28.1267 8H22.5834L25.3545 10.793L28.1267 8ZM25.3545 17.035L20.1516 19H30.5584L25.3545 17.035ZM17.9105 29H32.7986V20H17.9105V29ZM24.1565 11L21.3844 8.208L18.6132 11H24.1565ZM17.3775 10.831L20.1864 8H13.8669L17.3775 10.831ZM15.9998 11L12.4694 8.155L9.30218 11H14.4366H15.9998ZM13.9403 12H9.85304L13.9403 15.433V12ZM13.9403 17.708L9.21682 22.467L13.9403 26.433V17.708ZM13.9403 28.611L9.02228 33H13.9403V28.611ZM8.97762 31.704L13.6753 27.512L8.97762 23.568V31.704ZM8.97762 21.293L13.7021 16.534L8.97762 12.568V21.293ZM8.97762 9.952L11.1493 8H8.97762V9.952ZM6.99254 12H7.98508V7H6.99254V12ZM34.9653 11.686C34.8898 11.876 34.7072 12 34.5037 12H25.8508V16.154L33.4695 19.032L33.4685 19.036C33.6571 19.107 33.7911 19.286 33.7911 19.5V29.5C33.7911 29.777 33.5698 30 33.2948 30H17.4142C17.1403 30 16.9179 29.777 16.9179 29.5V19.5C16.9179 19.286 17.0529 19.107 17.2415 19.036L17.2405 19.032L24.8583 16.154V12H14.9329V33.5C14.9329 33.777 14.7115 34 14.4366 34H8.48135C8.20741 34 7.98508 33.777 7.98508 33.5V13H6.49627C6.22233 13 6 12.777 6 12.5V6.5C6 6.224 6.22233 6 6.49627 6H8.48135C8.75628 6 8.97762 6.224 8.97762 6.5V7H12.4366H12.4406H30.3172C30.4443 7 30.5663 7.05 30.6587 7.138L34.8452 11.138C34.9921 11.278 35.0397 11.496 34.9653 11.686ZM24.3263 28.52L23.4062 28.148L26.0533 21.481L26.9734 21.853L24.3263 28.52Z" fill="#C925D1"/>
</g>
<rect x="0.5" y="0.5" width="39" height="39" stroke="#C925D1"/>
<defs>
<clipPath id="clip0_23296_3594">
<rect width="40" height="40" fill="white"/>
</clipPath>
</defs>
</svg>
