<svg width="90" height="90" viewBox="0 0 90 90" fill="none" xmlns="http://www.w3.org/2000/svg">
<rect width="19.2584" height="19.2584" rx="2" transform="matrix(-0.708871 -0.705338 0.708871 -0.705338 22.1511 89)" fill="#326CE5"/>
<rect width="19.2584" height="19.2584" rx="2" transform="matrix(-0.708871 -0.705338 0.708871 -0.705338 67.8489 89)" fill="#326CE5"/>
<rect width="19.2584" height="19.2584" rx="2" transform="matrix(-0.708871 -0.705338 0.708871 -0.705338 44.0349 28.167)" fill="#326CE5"/>
<line x1="22.1511" y1="75.4146" x2="67.8432" y2="75.4146" stroke="#326CE5" stroke-width="3.84458"/>
<line x1="44.6861" y1="77.3369" x2="44.6861" y2="54.9249" stroke="#326CE5" stroke-width="3.84458"/>
<line x1="44.6861" y1="42.1182" x2="44.6861" y2="16.5044" stroke="#326CE5" stroke-width="3.84458"/>
<path d="M45.0016 41.3841C48.7947 41.3841 51.8594 44.442 51.8594 48.2018C51.8594 51.9615 48.7947 55.0195 45.0016 55.0195C41.2086 55.0195 38.1439 51.9615 38.1439 48.2018C38.1439 44.442 41.2086 41.3841 45.0016 41.3841Z" stroke="#326CE5" stroke-width="2.3732"/>
</svg>
