<svg version="1.1" id="Layer_1" xmlns:v="https://vecta.io/nano"
	 xmlns="http://www.w3.org/2000/svg" xmlns:xlink="http://www.w3.org/1999/xlink" x="0px" y="0px" viewBox="0 0 38 72"
	 style="enable-background:new 0 0 38 72;" xml:space="preserve">
<style type="text/css">
	.st0{fill:#FFFFFF;}
	.st1{fill:#C72C48;}
</style>
<path class="st0" d="M28,3.5L37.5,19c0,0.1,0,0.1,0,0.2c-0.1,0.1-0.2,0.1-0.2,0c0,0,0,0,0,0L25,6.4L28,3.5z"/>
<path class="st1" d="M7.2,45.1c2.1-4.4,4.9-8.4,8.3-11.8c1.3-1.3,2.7-2.5,4.2-3.6v9L7.2,45.1z M0,53.4l19.7-10v22.9l4.4,5.8v-31
	l2.7-1.4c6.6-3.3,9.2-11.3,5.9-17.9c-0.6-1.2-1.3-2.2-2.2-3.2L20.3,8c-0.8-0.9-0.8-2.3,0.1-3.2C21.4,4,22.8,4,23.6,4.9l1.4,1.5
	l3-2.9c-3.6-4.7-8-4.1-10.5-1.7c-2.6,2.4-2.7,6.5-0.3,9.1l10.2,10.7c3.4,3.7,3.2,9.5-0.5,12.9c-0.5,0.4-1,0.8-1.5,1.2l-1.4,0.7V21.9
	C11.7,28.2,2.9,39.8,0,53.4L0,53.4z"/>
<path class="st0" d="M24.1,41.1v4.7L19.7,48v-4.7L24.1,41.1z"/>
</svg>