<svg width="40" height="40" viewBox="0 0 40 40" fill="none" xmlns="http://www.w3.org/2000/svg">
<g clip-path="url(#clip0_23298_3896)">
<path d="M40 0H0V40H40V0Z" fill="#01A88D" fill-opacity="0.12"/>
<path fill-rule="evenodd" clip-rule="evenodd" d="M32.6871 30.298L26.2297 24.011C25.6017 24.8587 24.8531 25.6087 24.0048 26.238L30.3047 32.6885C30.6147 32.9987 30.9865 33.0256 31.2327 32.9917C31.6215 32.9419 32.0252 32.7254 32.3701 32.3804C32.9652 31.784 33.2653 30.8774 32.6871 30.298ZM17.668 27.348C23 27.348 27.3392 23.0077 27.3392 17.6721C27.3392 12.3376 23 7.9973 17.668 7.9973C12.335 7.9973 7.99682 12.3376 7.99682 17.6721C7.99682 23.0077 12.335 27.348 17.668 27.348ZM33.0749 33.0855C32.5755 33.5861 31.9654 33.9043 31.3593 33.9811C31.2607 33.994 31.165 34 31.0683 34C30.5091 34 29.9947 33.7886 29.596 33.3896L23.1635 26.8025C21.5556 27.7748 19.6796 28.3453 17.668 28.3453C11.7857 28.3453 7 23.5572 7 17.6721C7 11.7871 11.7857 7 17.668 7C23.5502 7 28.336 11.7871 28.336 17.6721C28.336 19.6837 27.7658 21.5616 26.7949 23.1693L33.3869 29.5879C34.3109 30.5124 34.1774 31.9815 33.0749 33.0855ZM24.4534 17.6721C24.4534 13.8654 21.4729 10.8835 17.668 10.8835C13.8631 10.8835 10.8826 13.8654 10.8826 17.6721C10.8826 21.4789 13.8631 24.4608 17.668 24.4608C21.4729 24.4608 24.4534 21.4789 24.4534 17.6721ZM25.4502 17.6721C25.4502 22.0383 22.0321 25.4581 17.668 25.4581C13.3039 25.4581 9.8858 22.0383 9.8858 17.6721C9.8858 13.306 13.3039 9.8862 17.668 9.8862C22.0321 9.8862 25.4502 13.306 25.4502 17.6721ZM15.2188 19.6139H14.222V21.6085H16.2156V20.6112H15.2188V19.6139ZM14.222 15.6247H15.2188V14.6274H16.2156V13.6301H14.222V15.6247ZM19.2061 14.6274H20.2029V15.6247H21.1997V13.6301H19.2061V14.6274ZM20.2029 19.6139H21.1997V21.6085H19.2061V20.6112H20.2029V19.6139Z" fill="#01A88D"/>
</g>
<rect x="0.5" y="0.5" width="39" height="39" stroke="#01A88D"/>
<defs>
<clipPath id="clip0_23298_3896">
<rect width="40" height="40" fill="white"/>
</clipPath>
</defs>
</svg>
