<svg height="180" viewBox="0 0 190 180" width="190" xmlns="http://www.w3.org/2000/svg" xmlns:xlink="http://www.w3.org/1999/xlink"><defs><rect id="a" height="28.444445" rx="1" width="34.909092" x="75.877274" y="91.102562"/><filter id="b" height="1.281" width="1.229" x="-.115" y="-.07"><feOffset dx="0" dy="2" in="SourceAlpha" result="shadowOffsetOuter1"/><feGaussianBlur in="shadowOffsetOuter1" result="shadowBlurOuter1" stdDeviation="1"/><feColorMatrix in="shadowBlurOuter1" type="matrix" values="0 0 0 0 0   0 0 0 0 0   0 0 0 0 0  0 0 0 0.25427423 0"/></filter><rect id="c" height="28.444445" rx="1" width="34.909092" x="118.93182" y="91.102562"/><filter id="d" height="1.281" width="1.229" x="-.115" y="-.07"><feOffset dx="0" dy="2" in="SourceAlpha" result="shadowOffsetOuter1"/><feGaussianBlur in="shadowOffsetOuter1" result="shadowBlurOuter1" stdDeviation="1"/><feColorMatrix in="shadowBlurOuter1" type="matrix" values="0 0 0 0 0   0 0 0 0 0   0 0 0 0 0  0 0 0 0.25427423 0"/></filter><rect id="e" height="28.444445" rx="1" width="34.909092" x="118.93182" y="55.094017"/><filter id="f" height="1.246" width="1.201" y="-.088"><feOffset dx="0" dy="1" in="SourceAlpha" result="shadowOffsetOuter1"/><feGaussianBlur in="shadowOffsetOuter1" result="shadowBlurOuter1" stdDeviation="1"/><feColorMatrix in="shadowBlurOuter1" type="matrix" values="0 0 0 0 0   0 0 0 0 0   0 0 0 0 0  0 0 0 0.101987092 0"/></filter><ellipse id="g" cx="94.331818" cy="70.410255" rx="16.290909" ry="15.316239"/><filter id="h" height="1.229" width="1.215" x="-.107" y="-.082"><feOffset dx="0" dy="1" in="SourceAlpha" result="shadowOffsetOuter1"/><feGaussianBlur in="shadowOffsetOuter1" result="shadowBlurOuter1" stdDeviation="1"/><feColorMatrix in="shadowBlurOuter1" type="matrix" values="0 0 0 0 0   0 0 0 0 0   0 0 0 0 0  0 0 0 0.101987092 0"/></filter><path id="i" d="m114.7902 102.12593 28.06074 67.83988h-55.432256l-32.575446-47.82075z"/><filter id="j" height="1.162" width="1.125" x="-.062" y="-.066"><feMorphology in="SourceAlpha" operator="dilate" radius="0.5" result="shadowSpreadOuter1"/><feOffset dx="0" dy="1" in="shadowSpreadOuter1" result="shadowOffsetOuter1"/><feGaussianBlur in="shadowOffsetOuter1" result="shadowBlurOuter1" stdDeviation="1.5"/><feComposite in="shadowBlurOuter1" in2="SourceAlpha" operator="out" result="shadowBlurOuter1"/><feColorMatrix in="shadowBlurOuter1" type="matrix" values="0 0 0 0 0.160909878   0 0 0 0 0.252651212   0 0 0 0 0.527875213  0 0 0 0.35326087 0"/></filter><path id="k" d="m115.44091 102.12593 64.06657 19.8997-36.98618 47.94018-27.08039-.38712z"/><filter id="l" height="1.221" width="1.234" x="-.117" y="-.081"><feMorphology in="SourceAlpha" operator="dilate" radius="0.5" result="shadowSpreadOuter1"/><feOffset dx="0" dy="2" in="shadowSpreadOuter1" result="shadowOffsetOuter1"/><feGaussianBlur in="shadowOffsetOuter1" result="shadowBlurOuter1" stdDeviation="2"/><feComposite in="shadowBlurOuter1" in2="SourceAlpha" operator="out" result="shadowBlurOuter1"/><feColorMatrix in="shadowBlurOuter1" type="matrix" values="0 0 0 0 0.235294118   0 0 0 0 0.380392157   0 0 0 0 0.815686275  0 0 0 0.15942029 0"/></filter><rect id="m" height="143.31624" rx="1" width="37.236362" x=".240909" y="31.02564"/><filter id="n" height="1.091" width="1.349" x="-.201" y="-.031"><feMorphology in="SourceAlpha" operator="erode" radius="0.5" result="shadowSpreadOuter1"/><feOffset dx="-1" dy="2" in="shadowSpreadOuter1" result="shadowOffsetOuter1"/><feGaussianBlur in="shadowOffsetOuter1" result="shadowBlurOuter1" stdDeviation="2"/><feColorMatrix in="shadowBlurOuter1" type="matrix" values="0 0 0 0 0.628029337   0 0 0 0 0.25783008   0 0 0 0 0.0713793602  0 0 0 0.311141304 0"/></filter><path id="o" d="m1.9503745 32.112037h176.4183955c.55228 0 1-.447715 1-1 0-.472816-.33115-.881018-.79381-.97851l-141.152125-29.74414269c-.301476-.0635281-.615404.0154574-.850918.21409358l-35.2662644 29.74414211c-.42217598.35607-.47576538.986963-.1196953 1.409139.1900054.225281.4697082.355278.7644172.355278z"/><filter id="p" height="1.315" width="1.056" x="-.028" y="-.095"><feMorphology in="SourceAlpha" operator="erode" radius="0.5" result="shadowSpreadOuter1"/><feOffset dx="0" dy="2" in="shadowSpreadOuter1" result="shadowOffsetOuter1"/><feGaussianBlur in="shadowOffsetOuter1" result="shadowBlurOuter1" stdDeviation="1.5"/><feColorMatrix in="shadowBlurOuter1" type="matrix" values="0 0 0 0 0.589896896   0 0 0 0 0.444269767   0 0 0 0 0.0232174145  0 0 0 0.213966259 0"/></filter><path id="q" d="m37.719306.61748155 70.065454 31.36921745 70.89294.448186c.55227.0035 1.00281-.441385 1.0063-.993658.003-.474949-.32849-.886485-.79318-.984706z"/><filter id="r" height="1.126" width="1.028" x="-.021" y="-.063"><feOffset dx="-1" dy="0" in="SourceAlpha" result="shadowOffsetOuter1"/><feGaussianBlur in="shadowOffsetOuter1" result="shadowBlurOuter1" stdDeviation=".5"/><feColorMatrix in="shadowBlurOuter1" type="matrix" values="0 0 0 0 0.781329719   0 0 0 0 0.53013306   0 0 0 0 0.202916359  0 0 0 0.311962183 0"/></filter></defs><g fill="none" fill-rule="evenodd" transform="translate(5.120167 1)"><use fill="#000" filter="url(#b)" height="100%" width="100%" xlink:href="#a"/><use fill="#b2dce9" fill-rule="evenodd" height="100%" width="100%" xlink:href="#a"/><use fill="#000" filter="url(#d)" height="100%" width="100%" xlink:href="#c"/><use fill="#b2dce9" fill-rule="evenodd" height="100%" width="100%" xlink:href="#c"/><use fill="#000" filter="url(#f)" height="100%" width="100%" xlink:href="#e"/><use fill="#b2dce9" fill-rule="evenodd" height="100%" width="100%" xlink:href="#e"/><use fill="#000" filter="url(#h)" height="100%" width="100%" xlink:href="#g"/><use fill="#c8d8e4" fill-rule="evenodd" height="100%" width="100%" xlink:href="#g"/><g fill-rule="nonzero"><g stroke-linejoin="round"><use fill="#000" filter="url(#j)" height="100%" width="100%" xlink:href="#i"/><use fill="#3b87ec" height="100%" stroke="#3b87ec" width="100%" xlink:href="#i"/></g><g stroke-linejoin="round"><use fill="#000" filter="url(#l)" height="100%" width="100%" xlink:href="#k"/><use fill="#3c61d0" height="100%" stroke="#3c61d0" width="100%" xlink:href="#k"/></g><use fill="#000" filter="url(#n)" height="100%" width="100%" xlink:href="#m"/><use fill="#f6961f" height="100%" width="100%" xlink:href="#m"/><rect fill="#ffd16a" height="54.700855" rx="1" width="37.236362" x=".240909" y="31.02564"/><path d="m.240909 78.068376h37.236364v47.042734h-37.236364z" fill="#f9b861"/><use fill="#000" filter="url(#p)" height="100%" width="100%" xlink:href="#o"/><use fill="#f6961f" height="100%" width="100%" xlink:href="#o"/></g><path d="m37.156815.59058141v31.73411659h70.978205z" fill="#f9b861"/><use fill="#000" filter="url(#r)" height="100%" width="100%" xlink:href="#q"/><use fill="#ffd16a" fill-rule="evenodd" height="100%" width="100%" xlink:href="#q"/></g></svg>
