<svg width="40" height="40" viewBox="0 0 40 40" fill="none" xmlns="http://www.w3.org/2000/svg">
<g clip-path="url(#clip0_23293_2631)">
<path d="M40 0H0V40H40V0Z" fill="#8C4FFF" fill-opacity="0.12"/>
<path fill-rule="evenodd" clip-rule="evenodd" d="M16.3533 11.365L15.6462 10.658L19.6632 6.641C19.8502 6.453 20.1823 6.453 20.3703 6.641L24.3873 10.658L23.6803 11.365L20.0163 7.701L16.3533 11.365ZM33.3872 20.365L29.3873 24.365L28.6803 23.658L32.3273 20.011L28.6803 16.365L29.3873 15.658L33.3872 19.658C33.5822 19.853 33.5822 20.17 33.3872 20.365ZM23.6462 28.692L24.3533 29.399L20.3703 33.382C20.2763 33.476 20.1493 33.529 20.0163 33.529C19.8833 33.529 19.7562 33.476 19.6632 33.382L15.6462 29.365L16.3533 28.658L20.0163 32.322L23.6462 28.692ZM11.3532 23.658L10.6462 24.365L6.64625 20.365C6.45125 20.17 6.45125 19.853 6.64625 19.658L10.6462 15.658L11.3532 16.365L7.70725 20.011L11.3532 23.658ZM26.4993 28.011C25.6723 28.011 24.9993 27.339 24.9993 26.511C24.9993 25.684 25.6723 25.011 26.4993 25.011C27.3273 25.011 27.9993 25.684 27.9993 26.511C27.9993 27.339 27.3273 28.011 26.4993 28.011ZM15.4762 25.011C15.3382 24.833 15.1793 24.674 14.9993 24.539V15.489C15.1813 15.352 15.3412 15.192 15.4792 15.011H24.5273C24.6623 15.191 24.8213 15.35 24.9993 15.488V24.524C24.8153 24.664 24.6523 24.827 24.5123 25.011H15.4762ZM13.5092 28.011C12.6882 28.011 12.0192 27.343 12.0192 26.521C12.0192 25.7 12.6882 25.032 13.5092 25.032C14.3312 25.032 14.9993 25.7 14.9993 26.521C14.9993 27.343 14.3312 28.011 13.5092 28.011ZM12.0133 13.505C12.0133 12.681 12.6833 12.011 13.5063 12.011C14.3303 12.011 14.9993 12.681 14.9993 13.505C14.9993 14.328 14.3303 14.998 13.5063 14.998C12.6833 14.998 12.0133 14.328 12.0133 13.505ZM26.5093 12.032C27.3313 12.032 27.9993 12.7 27.9993 13.521C27.9993 14.343 27.3313 15.011 26.5093 15.011C25.6883 15.011 25.0193 14.343 25.0193 13.521C25.0193 12.7 25.6883 12.032 26.5093 12.032ZM26.4993 24.011C26.3283 24.011 26.1613 24.029 25.9993 24.062V15.958C26.1643 15.993 26.3353 16.011 26.5093 16.011C27.8823 16.011 28.9993 14.894 28.9993 13.521C28.9993 12.148 27.8823 11.032 26.5093 11.032C25.1363 11.032 24.0193 12.148 24.0193 13.521C24.0193 13.689 24.0373 13.853 24.0693 14.011H15.9473C15.9813 13.848 15.9993 13.678 15.9993 13.505C15.9993 12.13 14.8813 11.011 13.5063 11.011C12.1313 11.011 11.0133 12.13 11.0133 13.505C11.0133 14.879 12.1313 15.998 13.5063 15.998C13.6753 15.998 13.8403 15.98 13.9993 15.948V24.081C13.8413 24.049 13.6772 24.032 13.5092 24.032C12.1362 24.032 11.0192 25.148 11.0192 26.521C11.0192 27.894 12.1362 29.011 13.5092 29.011C14.8822 29.011 15.9993 27.894 15.9993 26.521C15.9993 26.347 15.9812 26.176 15.9462 26.011H24.0502C24.0172 26.173 23.9993 26.34 23.9993 26.511C23.9993 27.89 25.1213 29.011 26.4993 29.011C27.8783 29.011 28.9993 27.89 28.9993 26.511C28.9993 25.133 27.8783 24.011 26.4993 24.011Z" fill="#8C4FFF"/>
</g>
<rect x="0.5" y="0.5" width="39" height="39" stroke="#8C4FFF"/>
<defs>
<clipPath id="clip0_23293_2631">
<rect width="40" height="40" fill="white"/>
</clipPath>
</defs>
</svg>
