<svg width="40" height="40" viewBox="0 0 40 40" xmlns="http://www.w3.org/2000/svg">  <g id="Icon-Architecture/32/Arch_AWS-Command-Line-Interface_32" stroke="none" stroke-width="1" fill="none" fill-rule="evenodd">  <path d="M6,7 L6,34 L23,34 L23,33 L7,33 L7,12 L33,12 L33,33 L30,33 L30,34 L34,34 L34,7 L6,7 Z M7,11 L33,11 L33,8 L7,8 L7,11 Z M13,10 L14,10 L14,9 L13,9 L13,10 Z M11,10 L12,10 L12,9 L11,9 L11,10 Z M9,10 L10,10 L10,9 L9,9 L9,10 Z M10.647,18.354 L15.293,23 L10.647,27.647 L11.353,28.353 L16.707,23 L11.353,17.646 L10.647,18.354 Z M19,26 L28,26 L28,25 L19,25 L19,26 Z" id="AWS-Command-Line-Interface_Icon_32_Squid" fill="#FFFFFF"></path> </g></svg>