<svg width="40" height="40" viewBox="0 0 40 40" fill="none" xmlns="http://www.w3.org/2000/svg">
<g clip-path="url(#clip0_23298_4125)">
<path d="M40 0H0V40H40V0Z" fill="#E7157B" fill-opacity="0.12"/>
<path fill-rule="evenodd" clip-rule="evenodd" d="M28.9857 32.001H32.0017V28.9622H28.9857V32.001ZM18.9606 32.001H22.0384V28.9622H18.9606V32.001ZM8.99832 32.001H12.0352V28.9622H8.99832V32.001ZM32.5008 27.9633H31.0034V25.4659C31.0034 25.1902 30.7797 24.9664 30.5042 24.9664H21.0201V22.9685H20.0218V24.9664H10.5377C10.2612 24.9664 10.0386 25.1902 10.0386 25.4659V27.9633H8.49916C8.22263 27.9633 8 28.1871 8 28.4628V32.5005C8 32.7762 8.22263 33 8.49916 33H12.5344C12.8099 33 13.0335 32.7762 13.0335 32.5005V28.4628C13.0335 28.1871 12.8099 27.9633 12.5344 27.9633H11.0369V25.9654H20.0218V27.9633H18.4614C18.1859 27.9633 17.9623 28.1871 17.9623 28.4628V32.5005C17.9623 32.7762 18.1859 33 18.4614 33H22.5376C22.8141 33 23.0367 32.7762 23.0367 32.5005V28.4628C23.0367 28.1871 22.8141 27.9633 22.5376 27.9633H21.0201V25.9654H30.005V27.9633H28.4866C28.211 27.9633 27.9874 28.1871 27.9874 28.4628V32.5005C27.9874 32.7762 28.211 33 28.4866 33H32.5008C32.7764 33 33 32.7762 33 32.5005V28.4628C33 28.1871 32.7764 27.9633 32.5008 27.9633ZM20.5369 9.04016L25.3249 11.0231L20.522 13.4196L15.747 11.0241L20.5369 9.04016ZM21.0341 20.64L21.0211 14.2866L26.0277 11.7883V17.6701L21.0341 20.64ZM15.0462 11.7903L20.0228 14.2866L20.0358 20.638L15.0462 17.6701V11.7903ZM20.2814 21.9466C20.3602 21.9926 20.4491 22.0165 20.5369 22.0165C20.6248 22.0165 20.7136 21.9926 20.7925 21.9466L26.7824 18.3843C26.9332 18.2944 27.026 18.1306 27.026 17.9548V10.9811C27.026 10.7793 26.9042 10.5965 26.7186 10.5196L20.7286 8.03821C20.6058 7.98726 20.4691 7.98726 20.3463 8.03821L14.3563 10.5196C14.1696 10.5965 14.0478 10.7793 14.0478 10.9811V17.9548C14.0478 18.1306 14.1407 18.2944 14.2914 18.3843L20.2814 21.9466Z" fill="#E7157B"/>
</g>
<rect x="0.5" y="0.5" width="39" height="39" stroke="#E7157B"/>
<defs>
<clipPath id="clip0_23298_4125">
<rect width="40" height="40" fill="white"/>
</clipPath>
</defs>
</svg>
