<svg width="40" height="40" viewBox="0 0 40 40" fill="none" xmlns="http://www.w3.org/2000/svg">
<g clip-path="url(#clip0_23298_3844)">
<path d="M40 0H0V40H40V0Z" fill="#01A88D" fill-opacity="0.12"/>
<path fill-rule="evenodd" clip-rule="evenodd" d="M23.744 23.4516C23.744 23.6604 23.825 23.8562 23.973 24.0028C24.267 24.2989 24.777 24.2989 25.072 24.0038V24.0028C25.22 23.8562 25.301 23.6604 25.301 23.4516C25.301 23.2428 25.22 23.047 25.072 22.8984C24.926 22.7508 24.73 22.6695 24.522 22.6695C24.314 22.6695 24.119 22.7508 23.973 22.8984C23.825 23.047 23.744 23.2428 23.744 23.4516ZM23.265 24.7135C22.93 24.3762 22.744 23.9285 22.744 23.4516C22.744 22.9747 22.93 22.526 23.265 22.1886C23.959 21.4929 25.086 21.4929 25.779 22.1886C26.115 22.526 26.301 22.9747 26.301 23.4516C26.301 23.9285 26.115 24.3762 25.779 24.7135C25.443 25.0509 24.997 25.2366 24.522 25.2366C24.048 25.2366 23.601 25.0509 23.265 24.7135ZM21.074 23.2548L21.306 24.7286L22.328 24.6864C22.473 24.6694 22.603 24.7346 22.702 24.833L23.143 25.2768C23.242 25.3761 23.295 25.5127 23.29 25.6522L23.248 26.6793L24.717 26.9142L24.99 25.9343C25.028 25.7968 25.122 25.6834 25.248 25.6201L25.821 25.333C25.944 25.2707 26.088 25.2627 26.219 25.3119L27.165 25.6633L27.841 24.332L26.994 23.7678C26.879 23.6905 26.801 23.568 26.778 23.4305L26.677 22.805C26.654 22.6655 26.69 22.5239 26.777 22.4125L27.411 21.6073L26.359 20.5522L25.559 21.1877C25.45 21.276 25.307 21.3132 25.169 21.2901L24.547 21.1877C24.409 21.1656 24.288 21.0873 24.211 20.9708L23.646 20.1205L22.321 20.7972L22.672 21.7449C22.72 21.8764 22.712 22.021 22.649 22.1455L22.361 22.7207C22.299 22.8472 22.185 22.9406 22.05 22.9787L21.074 23.2548ZM20.388 25.328L20.016 22.9707C19.977 22.7187 20.132 22.4778 20.376 22.4085L21.567 22.0722L21.658 21.8905L21.228 20.7279C21.14 20.489 21.244 20.2209 21.471 20.1055L23.589 19.0222C23.813 18.9088 24.09 18.979 24.231 19.1919L24.922 20.2319L25.111 20.2631L26.088 19.487C26.287 19.3294 26.572 19.3465 26.752 19.5262L28.432 21.2138C28.612 21.3935 28.629 21.6796 28.472 21.8794L27.699 22.8623L27.729 23.053L28.765 23.7447C28.976 23.8853 29.049 24.1634 28.933 24.3903L27.853 26.5166C27.737 26.7435 27.475 26.8489 27.234 26.7586L26.074 26.3279L25.893 26.4192L25.559 27.6149C25.498 27.8348 25.299 27.9814 25.078 27.9814C25.053 27.9814 25.026 27.9794 25 27.9753L22.652 27.6009C22.401 27.5617 22.221 27.3399 22.23 27.0849L22.281 25.8309L22.15 25.6994L20.902 25.7506C20.638 25.7687 20.428 25.5789 20.388 25.328ZM33 18.0654L16.015 18.0434L16 18.0584V29.0717L24 29.0867C24.262 29.0867 24.49 29.1831 24.697 29.3819L28 32.6909V30.1057C28 29.5435 28.456 29.0867 29.015 29.0867H32.978L33 18.0654ZM34 18.0654V29.0646C34 29.678 33.59 30.0907 32.978 30.0907H29.015L29 33.1888C29 33.5161 28.81 33.8093 28.516 33.9357C28.416 33.9789 28.311 34 28.208 34C28.015 34 27.825 33.9257 27.675 33.7831L23.999 30.1007L16.015 30.0907C15.456 30.0907 15 29.6329 15 29.0717V18.0584C15 17.4962 15.456 17.0394 16.015 17.0394H32.978C33.59 17.0414 34 17.453 34 18.0654ZM18 15.0315H20V14.0276H18V15.0315ZM9 15.0315H17V14.0276H9V15.0315ZM16 13.0236H21V12.0197H16V13.0236ZM9 13.0236H14V12.0197H9V13.0236ZM19 11.0158H21V10.0118H19V11.0158ZM9 11.0158H18V10.0118H9V11.0158ZM12.744 18.5513L13.469 19.2431L10.366 22.5139C10.181 22.6806 9.965 22.7649 9.756 22.7649C9.646 22.7649 9.54 22.7418 9.439 22.6976C9.169 22.5751 9 22.3081 9 22.0009V19.0473H7C6.411 19.0473 6 18.6347 6 18.0434V8.00394C6 7.41262 6.411 7 7 7H22.984C23.544 7 24 7.45679 24 8.019V15.0315H23V8.019L7 8.00394V18.0434H9C9.589 18.0434 10 18.456 10 19.0473V21.4457L12.744 18.5513Z" fill="#01A88D"/>
</g>
<rect x="0.5" y="0.5" width="39" height="39" stroke="#01A88D"/>
<defs>
<clipPath id="clip0_23298_3844">
<rect width="40" height="40" fill="white"/>
</clipPath>
</defs>
</svg>
