<svg id="Layer_2" data-name="Layer 2" xmlns="http://www.w3.org/2000/svg" viewBox="0 0 51.02 59.39">
  <defs>
    <style>
      .cls-1 {
        fill: #d9d9d9;
      }

      .cls-1, .cls-2 {
        isolation: isolate;
        stroke-width: 0px;
      }

      .cls-2 {
        fill: #5ce1e6;
      }
    </style>
  </defs>
  <g id="Layer_1-2" data-name="Layer 1">
    <g>
      <path class="cls-1" d="M47.07,26.69c-1.17-1.03-2.54-1.74-3.97-2.32-3.35-1.35-6.75-2.56-10.16-3.73-1.71-.59-3.42-1.17-5.12-1.76-.85-.29-1.71-.59-2.56-.89-.43-.15-.85-.3-1.28-.45-.47-.17-.52-.15-.52-.64,0-2.84-2.3-5.14-5.14-5.14s-5.14,2.3-5.14,5.14,2.3,5.14,5.14,5.14c1.61,0,3.05-.74,3.99-1.9,0,0,14.11,5.1,15.24,5.51,2.16.76,4.56,1.45,6.19,3.15,1.88,1.96,2,5.03.27,7.14-1.01,1.23-2.41,1.95-3.76,2.72-3.24,1.82-6.63,3.42-9.97,5.06-5.98,2.93-12.14,5.47-18.25,8.09-.1.04-.6.17-.65.28-.82-1.75-2.6-2.96-4.66-2.96-2.84,0-5.14,2.3-5.14,5.14s2.3,5.14,5.14,5.14c2.54,0,4.65-1.84,5.06-4.26.04-.26,1.78-.49,2.05-.57,3.47-1.06,6.76-2.61,10.03-4.18,3.05-1.47,6.2-2.9,9.29-4.34,3.06-1.43,6.21-2.81,9.11-4.56,4.54-2.73,10.16-8.73,5.61-13.99-.25-.28-.51-.55-.79-.8ZM18.32,19.07c-1.2,0-2.18-.98-2.18-2.18s.98-2.18,2.18-2.18,2.18.98,2.18,2.18-.98,2.18-2.18,2.18ZM6.72,56.43c-1.2,0-2.18-.98-2.18-2.18s.98-2.18,2.18-2.18,2.18.98,2.18,2.18-.98,2.18-2.18,2.18Z"/>
      <path class="cls-2" d="M16.84,37.82c-.29.16-.59.31-.89.46-1.24.63-2.5,1.19-3.73,1.84-.63.32-1.25.64-1.88.96s-1.24.7-1.88.96c0,0-3.78,1.54-4.2-.42,0,0-.52-3.66.88-6.17,2.84,0,5.14-2.3,5.14-5.14s-2.3-5.14-5.14-5.14S0,27.49,0,30.33c0,1.5.64,2.84,1.66,3.78.12.11-.58,2.05-.65,2.33-.72,3.16-.83,7.95,3,9.08,0,0,3.39,1.08,8.54-1.4,5.14-2.48,12.25-6.12,15.71-7.66s12-5.46,12-5.46c-1.31-.39-2.61-.82-3.92-1.22,0,0-14.8,5.88-14.81,5.88-1.2-.89-1.77-2.43-2.53-3.67-1.97-3.22-4.1-6.33-6.18-9.48-.63-.96-1.27-1.95-1.92-2.92-1.93-2.91-4.19-5.66-5.52-8.92-.54-1.32-.92-2.72-1.05-4.14-.03-.37-.05-.74-.05-1.11,0-.24.01-.48.09-.7.28-.75,1.18-.68,1.8-.48,2.59.84,24.32,8.57,24.32,8.57,0,0,9.42,3.48,10.48,4.24-.16.5-.25,1.02-.25,1.57,0,2.84,2.3,5.14,5.14,5.14s5.14-2.3,5.14-5.14-2.3-5.14-5.14-5.14c-.97,0-1.87.27-2.64.73,0-.15-1.15-.65-1.26-.71-6.46-3.48-13.41-5.87-20.31-8.3-3.51-1.24-7.01-2.5-10.53-3.69C8.94.76,6.5-.34,4.13.1-.59.98-.19,8.01,1.19,11.36c1.32,3.2,3.56,5.9,5.45,8.77,1.95,2.96,3.86,5.94,5.76,8.93,1.43,2.24,2.84,4.49,4.26,6.74.18.31.35.63.53.94.09.17.25.36.31.55.07.26-.43.4-.62.5-.01,0-.03.02-.04.02ZM45.88,16.44c1.2,0,2.18.98,2.18,2.18s-.98,2.18-2.18,2.18-2.18-.98-2.18-2.18.98-2.18,2.18-2.18ZM5.14,28.15c1.2,0,2.18.98,2.18,2.18s-.98,2.18-2.18,2.18-2.18-.98-2.18-2.18.98-2.18,2.18-2.18Z"/>
    </g>
  </g>
</svg>