<svg version="1.1" id="Layer_1" xmlns="http://www.w3.org/2000/svg" xmlns:xlink="http://www.w3.org/1999/xlink" x="0px" y="0px"
         viewBox="0 0 83.7 63.8" style="enable-background:new 0 0 83.7 63.8;" xml:space="preserve">
<style type="text/css">
        .st0{fill:#FFFFFF;}
</style>
<path class="st0" d="M83.1,21.7c2.1-6.3-1.4-13.2-7.8-14.8c-2.6-0.6-6-1-7.8,1.2c-2.5,3.1,3.3,6.9,3.7,8.7c0.4,1.6,0.7,5.3-4.1,10.7
        c-4.8,5.6-13.6,10.3-13.2,10.7c0.5,0.5,2.1,3,2.6,2.9c9.3-0.6,17.6-5,22.9-12.3C81,26.6,82.2,24.2,83.1,21.7z"/>
<path class="st0" d="M57.5,49.4c-1.3-2.2-2.9-4.1-4.7-5.9c-11.9-11.6-24.4-19-28.1-20.2c-0.9-0.3,0.9-2.7,1.4-2.6
        c3.1,0.8,19.6,9.4,24.8,15.2c0.5,0.6,14.9-8.8,16.5-16.3c0.2-1.1,0-2.2-0.7-3.1C60.4,7.4,43.4,2,35.1,0.1c-2.5-0.6-4.9,1-5.5,3.4
        v0.2c-0.9,5.7-3.3,11-6.8,15.6v-0.1c-1.4,2.1-4.5,0.8-4.5,0.8c-8.5-3.6-15.2-4.3-17.5-1.1C-3,24.1,7,37.9,23.1,49.8
        s32.4,17.2,36.2,12C60.9,59.4,60.5,54.6,57.5,49.4z M42.4,52.2c-1.4,1.9-8.8-1.1-16.4-6.7c-7.8-5.7-12.9-11.7-11.5-13.6
        s8.7,1.1,16.4,6.7C38.7,44.2,43.8,50.4,42.4,52.2z"/>
</svg>