<svg width="20" height="20" viewBox="0 0 32 25" fill="none" xmlns="http://www.w3.org/2000/svg"><path d="M7.988 23.935c0-2.284.946-4.474 2.63-6.089 1.683-1.615 3.967-2.522 6.348-2.522s4.664.907 6.348 2.522c1.683 1.615 2.63 3.805 2.63 6.09H7.988Zm8.978-9.687c-3.72 0-6.734-2.89-6.734-6.459 0-3.569 3.014-6.459 6.734-6.459s6.733 2.89 6.733 6.459c0 3.568-3.013 6.459-6.733 6.459Zm8.263 2.403a8.47 8.47 0 0 1 4.382 2.663 7.9 7.9 0 0 1 1.925 4.621h-3.348c0-2.81-1.122-5.367-2.96-7.284Zm-2.27-2.45a8.616 8.616 0 0 0 2.206-2.9c.513-1.1.78-2.299.779-3.512a8.3 8.3 0 0 0-1.14-4.202 5.656 5.656 0 0 1 3.236 1.867 5.201 5.201 0 0 1 .77 5.635 5.404 5.404 0 0 1-1.413 1.826 5.682 5.682 0 0 1-2.074 1.104 5.835 5.835 0 0 1-2.364.182ZM4.924 13.55h2.903v1.833H4.924v2.75H2.988v-2.75H.085V13.55h2.903V10.8h1.936v2.75Z" fill="#fff"/></svg>