<svg width="121" height="151" viewBox="0 0 121 151" fill="none" xmlns="http://www.w3.org/2000/svg">
<rect x="2.5791" y="3.15723" width="115" height="145" rx="22.5" fill="#326CE5" stroke="#326CE5" stroke-width="5"/>
<path d="M39.234 106C39.234 99.9379 41.7446 94.1241 46.2135 89.8376C50.6824 85.551 56.7435 83.1429 63.0635 83.1429C69.3835 83.1429 75.4446 85.551 79.9135 89.8376C84.3823 94.1241 86.8929 99.9379 86.8929 106H39.234ZM63.0635 80.2857C53.1892 80.2857 45.1914 72.6143 45.1914 63.1429C45.1914 53.6714 53.1892 46 63.0635 46C72.9378 46 80.9356 53.6714 80.9356 63.1429C80.9356 72.6143 72.9378 80.2857 63.0635 80.2857ZM84.9955 86.6657C89.5518 87.789 93.6226 90.2624 96.6282 93.7338C99.6339 97.2052 101.421 101.498 101.736 106H92.8503C92.8503 98.5429 89.8716 91.7543 84.9955 86.6657ZM78.9696 80.1629C81.4658 78.0214 83.462 75.3981 84.8274 72.465C86.1929 69.5319 86.8967 66.3551 86.8929 63.1429C86.8993 59.2385 85.8581 55.3982 83.8696 51.9914C87.2433 52.6417 90.2782 54.3925 92.4585 56.9463C94.6387 59.5001 95.8297 62.6992 95.829 66C95.8298 68.0356 95.3769 70.0479 94.5008 71.9019C93.6247 73.756 92.3455 75.409 90.749 76.7501C89.1525 78.0913 87.2756 79.0896 85.244 79.6782C83.2125 80.2668 81.0732 80.432 78.9696 80.1629Z" fill="white"/>
<path d="M31.1003 78.4324H38.8059V83.2973H31.1003V90.5946H25.9631V83.2973H18.2574V78.4324H25.9631V71.1351H31.1003V78.4324Z" fill="white"/>
<path d="M39.234 106C39.234 99.9379 41.7446 94.1241 46.2135 89.8376C50.6824 85.551 56.7435 83.1429 63.0635 83.1429C69.3835 83.1429 75.4446 85.551 79.9135 89.8376C84.3823 94.1241 86.8929 99.9379 86.8929 106H39.234ZM63.0635 80.2857C53.1892 80.2857 45.1914 72.6143 45.1914 63.1429C45.1914 53.6714 53.1892 46 63.0635 46C72.9378 46 80.9356 53.6714 80.9356 63.1429C80.9356 72.6143 72.9378 80.2857 63.0635 80.2857ZM84.9955 86.6657C89.5518 87.789 93.6226 90.2624 96.6282 93.7338C99.6339 97.2052 101.421 101.498 101.736 106H92.8503C92.8503 98.5429 89.8716 91.7543 84.9955 86.6657ZM78.9696 80.1629C81.4658 78.0214 83.462 75.3981 84.8274 72.465C86.1929 69.5319 86.8967 66.3551 86.8929 63.1429C86.8993 59.2385 85.8581 55.3982 83.8696 51.9914C87.2433 52.6417 90.2782 54.3925 92.4585 56.9463C94.6387 59.5001 95.8297 62.6992 95.829 66C95.8298 68.0356 95.3769 70.0479 94.5008 71.9019C93.6247 73.756 92.3455 75.409 90.749 76.7501C89.1525 78.0913 87.2756 79.0896 85.244 79.6782C83.2125 80.2668 81.0732 80.432 78.9696 80.1629Z" stroke="black"/>
<path d="M31.1003 78.4324H38.8059V83.2973H31.1003V90.5946H25.9631V83.2973H18.2574V78.4324H25.9631V71.1351H31.1003V78.4324Z" stroke="black"/>
</svg>
