<svg id="Layer_1" data-name="Layer 1" xmlns="http://www.w3.org/2000/svg" viewBox="-55 -25 598.917 232.342">
    <defs>
        <style>
            .cls-1 {
                fill: #0068b5;
            }

            #path8 {
                fill: white;
            }

            #path6 {
                fill: white;
            }
        </style>
    </defs>
    <rect id="rect4" class="cls-1" y="2.95" width="39.41" height="39.41" />
    <g id="g10">
        <path id="path6"
            d="M116.2,452.67V310.73H78.89V452.67Zm248,1.4V419.29a86.84,86.84,0,0,1-13.47-.85,15.23,15.23,0,0,1-8.83-3.92c-2-2-3.23-4.77-3.93-8.42a90.81,90.81,0,0,1-.84-13.74V342.71h27.07v-32H337.1v-55.4H299.65V392.64c0,11.64,1,21.46,2.94,29.31s5.33,14,10,18.79,10.8,8.14,18.24,10.24,17.11,3.09,28.47,3.09Zm214.3-1.4V244.39H541V452.67ZM263.6,324.61c-10.38-11.22-25-16.83-43.48-16.83a54.9,54.9,0,0,0-24.54,5.47,52.6,52.6,0,0,0-18.51,15.15L175,331.07V310.73H138.08V452.67h37.16V379.73c.42-13.32,3.65-23.14,9.82-29.45a32.16,32.16,0,0,1,23.7-10.1c10.8,0,19.08,3.37,24.55,9.82s8.13,15.57,8.13,27.21h0v.28h0v75h37.73V372C279.31,351.82,274,335.83,263.6,324.61Zm258.07,56.81a78.15,78.15,0,0,0-5.33-28.76,76.91,76.91,0,0,0-15-23.42,68.38,68.38,0,0,0-23.14-15.71,76,76,0,0,0-29.73-5.61,73.86,73.86,0,0,0-28.89,5.75,75.69,75.69,0,0,0-23.43,15.71,73,73,0,0,0-15.7,23.43,71.27,71.27,0,0,0-5.76,28.89,76.32,76.32,0,0,0,5.47,28.89A72.09,72.09,0,0,0,395.44,434a70.09,70.09,0,0,0,23.71,15.71,77.36,77.36,0,0,0,30.43,5.89c31.7,0,51.33-14.44,63.11-27.91l-26.92-20.48c-5.61,6.74-19.08,15.85-35.91,15.85-10.52,0-19.21-2.38-25.81-7.29A36,36,0,0,1,410.59,396l-.42-1.26h111.5ZM410.45,368.37c0-10.38,11.92-28.47,37.59-28.61s37.73,18.09,37.73,28.47Z"
            transform="translate(-77.77 -244.39)" />

    </g>
</svg>