<svg xmlns="http://www.w3.org/2000/svg" width="32" height="32" viewBox="0 0 130 152" fill="none"><path d="M125.396 32.486c-.014-2.41-1.163-4.19-3.343-5.198-1.579-.728-3.198-1.365-4.809-2.046l-21.018-8.767C86.715 12.513 77.206 8.547 67.7 4.58c-1.718-.722-3.382-.801-5.126-.053-4.201 1.797-8.432 3.53-12.648 5.29l-19.814 8.26a58366.63 58366.63 0 0 0-21.489 8.972c-2.573 1.073-3.86 2.955-3.864 5.748 0 6.526.023 13.051 0 19.58-.043 8.132-.04 16.259 1.454 24.304a99.046 99.046 0 0 0 3.024 12.23 94.13 94.13 0 0 0 20.216 34.93 93.527 93.527 0 0 0 32.938 23.173c1.55.655 3.114.924 4.721.261a92.815 92.815 0 0 0 22.63-13.221 93.983 93.983 0 0 0 19.398-20.888 93.68 93.68 0 0 0 14.906-37.081 85.37 85.37 0 0 0 1.277-12.335c.11-4.988.026-9.983.026-14.974h.046c0-5.43.029-10.859 0-16.289Z" fill="#326CE5" stroke="#326CE5" stroke-width="8" stroke-miterlimit="10"/><path d="M86.75 61.333h-3.542V54.25c0-9.775-7.933-17.708-17.708-17.708-9.775 0-17.708 7.933-17.708 17.708v7.083H44.25c-3.896 0-7.083 3.188-7.083 7.084v35.416c0 3.896 3.187 7.084 7.083 7.084h42.5c3.896 0 7.083-3.188 7.083-7.084V68.417c0-3.896-3.187-7.084-7.083-7.084ZM65.5 93.208c-3.896 0-7.083-3.187-7.083-7.083 0-3.896 3.187-7.083 7.083-7.083 3.896 0 7.083 3.187 7.083 7.083 0 3.896-3.187 7.083-7.083 7.083Zm10.98-31.875H54.52V54.25c0-6.056 4.924-10.98 10.98-10.98s10.98 4.924 10.98 10.98v7.083Z" fill="#fff"/></svg>