<svg xmlns="http://www.w3.org/2000/svg" width="18" height="18" viewBox="0 0 18 18"><defs><linearGradient id="a" x1="9" y1="11.95" x2="9" gradientUnits="userSpaceOnUse"><stop offset="0" stop-color="#0078d4"/><stop offset=".16" stop-color="#1380da"/><stop offset=".53" stop-color="#3c91e5"/><stop offset=".82" stop-color="#559cec"/><stop offset="1" stop-color="#5ea0ef"/></linearGradient></defs><path d="M17.43 8.21a3.78 3.78 0 00-3.29-3.64A4.77 4.77 0 009.22 0a4.91 4.91 0 00-4.68 3.19 4.52 4.52 0 00-4 4.35A4.6 4.6 0 005.32 12h8.31a3.84 3.84 0 003.8-3.79z" fill="url(#a)"/><path d="M6.36 6.46L9 3.87a.3.3 0 01.43 0L12 6.46a.13.13 0 01-.1.23h-1.62a.15.15 0 00-.14.14v3.24a.11.11 0 01-.11.11H8.29a.11.11 0 01-.11-.11V6.83a.14.14 0 00-.13-.14h-1.6a.13.13 0 01-.09-.23z" fill="#f2f2f2"/><path d="M14 11.37a.13.13 0 00-.09-.13L9.16 9.65H9V18h.13l4.71-1.88A.13.13 0 0014 16z" fill="#a67af4"/><path d="M9 9.68l-4.51.83a.14.14 0 00-.12.13v6.23a.15.15 0 00.11.14L9 18a.13.13 0 00.16-.13v-8A.14.14 0 009 9.68z" fill="#552f99"/><path fill="#b77af4" opacity=".75" d="M6.92 10.92v5.81l1.57.25v-6.33l-1.57.27zM4.98 11.24v5.08l1.37.28v-5.59l-1.37.23z"/></svg>