<svg xmlns="http://www.w3.org/2000/svg" id="Layer_1" data-name="Layer 1" viewBox="0 0 361 359"><title>meshsync-white</title><g style="opacity:.6000000000000001"><path d="M63.5,108.5a133.13,133.13,0,0,1,94-67.5l-8-46A181.53,181.53,0,0,0,22,86Z" style="fill:#fff"/></g><path d="M65.5,242a133.42,133.42,0,0,1-19-69A130.14,130.14,0,0,1,55,126.5l-44-16A184.54,184.54,0,0,0,0,173a182.54,182.54,0,0,0,25.5,93Z" style="fill:#fff"/><g style="opacity:.6000000000000001"><path d="M182,307h-1.5C139,307,102,288,77,258L41,288a181.18,181.18,0,0,0,139.5,66h2Z" style="fill:#fff"/></g><path d="M297,239a134.07,134.07,0,0,1-95,66l7.5,46.5a180.18,180.18,0,0,0,128-89.5Z" style="fill:#fff"/><g style="opacity:.8"><path d="M296,105.5A133.46,133.46,0,0,1,314,173a128,128,0,0,1-9,48l44,17a184.66,184.66,0,0,0,12-64.5,180.8,180.8,0,0,0-24.5-91Z" style="fill:#fff"/></g><rect width="44" height="67.8" x="251.3" y="12.85" style="fill:none"/><polygon points="261.4 80.65 251.3 70.55 275.1 46.75 251.3 22.95 261.4 12.85 295.3 46.75 261.4 80.65" style="fill:#fff"/><rect width="44" height="67.8" x="183.5" y="12.85" style="fill:none"/><polygon points="193.6 80.65 183.5 70.55 207.3 46.75 183.5 22.95 193.6 12.85 227.5 46.75 193.6 80.65" style="fill:#fff"/></svg>