<svg width="50" height="57" viewBox="0 0 50 57" fill="none" xmlns="http://www.w3.org/2000/svg">
<path d="M35 48.5383C35 50.2676 30.5228 51.6694 25 51.6694C19.4772 51.6694 15 50.2676 15 48.5383C15 46.8091 19.4772 45.4072 25 45.4072C30.5228 45.4072 35 46.8091 35 48.5383ZM20.9466 48.5383C20.9466 49.2392 22.7614 49.8075 25 49.8075C27.2386 49.8075 29.0534 49.2392 29.0534 48.5383C29.0534 47.8374 27.2386 47.2692 25 47.2692C22.7614 47.2692 20.9466 47.8374 20.9466 48.5383Z" fill="#524B66"/>
<path d="M45 48.5385C45 51.997 36.0457 54.8007 25 54.8007C13.9543 54.8007 5 51.997 5 48.5385C5 45.08 13.9543 42.2764 25 42.2764C36.0457 42.2764 45 45.08 45 48.5385ZM9.83109 48.5385C9.83109 51.1616 16.6224 53.288 25 53.288C33.3776 53.288 40.1689 51.1616 40.1689 48.5385C40.1689 45.9155 33.3776 43.789 25 43.789C16.6224 43.789 9.83109 45.9155 9.83109 48.5385Z" fill="#626784"/>
<rect x="42" y="47.5996" width="7" height="1.87865" rx="0.939325" fill="#626784"/>
<rect width="5.1867" height="4.44575" rx="2" transform="matrix(0.954315 -0.298804 0.954315 0.298804 35 43.8271)" fill="#626784"/>
<rect x="21.5703" y="43.1914" width="2.19176" height="6" rx="1.09588" transform="rotate(-90 21.5703 43.1914)" fill="#626784"/>
<rect width="5.1867" height="4.44575" rx="2" transform="matrix(0.954315 0.298804 0.954315 -0.298804 35.4297 53.251)" fill="#626784"/>
<rect width="2.19176" height="6" rx="1.09588" transform="matrix(0 1 1 0 22 53.8867)" fill="#626784"/>
<rect x="8" y="49.4785" width="7" height="1.87865" rx="0.939325" transform="rotate(180 8 49.4785)" fill="#626784"/>
<rect width="5.1867" height="4.44575" rx="2" transform="matrix(-0.954315 0.298804 -0.954315 -0.298804 15 53.251)" fill="#626784"/>
<rect width="5.1867" height="4.44575" rx="2" transform="matrix(-0.954315 -0.298804 -0.954315 0.298804 15 43.8516)" fill="#626784"/>
<path d="M35 47.5383C35 49.2676 30.5228 50.6694 25 50.6694C19.4772 50.6694 15 49.2676 15 47.5383C15 45.8091 19.4772 44.4072 25 44.4072C30.5228 44.4072 35 45.8091 35 47.5383ZM20.9466 47.5383C20.9466 48.2392 22.7614 48.8075 25 48.8075C27.2386 48.8075 29.0534 48.2392 29.0534 47.5383C29.0534 46.8374 27.2386 46.2692 25 46.2692C22.7614 46.2692 20.9466 46.8374 20.9466 47.5383Z" fill="#524B66"/>
<path d="M45 47.5385C45 50.997 36.0457 53.8007 25 53.8007C13.9543 53.8007 5 50.997 5 47.5385C5 44.08 13.9543 41.2764 25 41.2764C36.0457 41.2764 45 44.08 45 47.5385ZM9.83109 47.5385C9.83109 50.1616 16.6224 52.288 25 52.288C33.3776 52.288 40.1689 50.1616 40.1689 47.5385C40.1689 44.9155 33.3776 42.789 25 42.789C16.6224 42.789 9.83109 44.9155 9.83109 47.5385Z" fill="#7D8089"/>
<rect x="42" y="46.5996" width="7" height="1.87865" rx="0.939325" fill="#7D8089"/>
<rect width="5.1867" height="4.44575" rx="2" transform="matrix(0.954315 -0.298804 0.954315 0.298804 35 42.8271)" fill="#7D8089"/>
<rect x="21.5703" y="42.1914" width="2.19176" height="6" rx="1.09588" transform="rotate(-90 21.5703 42.1914)" fill="#7D8089"/>
<rect width="5.1867" height="4.44575" rx="2" transform="matrix(0.954315 0.298804 0.954315 -0.298804 35.4297 52.251)" fill="#7D8089"/>
<rect width="2.19176" height="6" rx="1.09588" transform="matrix(0 1 1 0 22 52.8867)" fill="#7D8089"/>
<rect x="8" y="48.4785" width="7" height="1.87865" rx="0.939325" transform="rotate(180 8 48.4785)" fill="#7D8089"/>
<rect width="5.1867" height="4.44575" rx="2" transform="matrix(-0.954315 0.298804 -0.954315 -0.298804 15 52.251)" fill="#7D8089"/>
<rect width="5.1867" height="4.44575" rx="2" transform="matrix(-0.954315 -0.298804 -0.954315 0.298804 15 42.8516)" fill="#7D8089"/>
<path d="M17.202 34.998C17.202 34.998 16.8711 35.9941 16.3719 36.4918C16.2262 36.6543 16.0469 36.7831 15.8464 36.8693C15.6459 36.9554 15.4291 36.9968 15.2109 36.9906C14.3919 37.2105 13.5594 37.3767 12.7188 37.4883C12.7188 37.4883 13.8816 37.6547 15.2109 37.8207C15.7082 37.8207 15.7082 37.8207 16.0406 37.9871C16.8711 37.9871 17.202 37.4883 17.202 37.4883V34.998ZM32.4793 34.998C32.4793 34.998 32.8117 35.9941 33.3094 36.4918C33.4554 36.6542 33.635 36.783 33.8358 36.8691C34.0365 36.9552 34.2535 36.9967 34.4719 36.9906C35.2902 37.2106 36.1221 37.3768 36.9621 37.4883C36.9621 37.4883 35.8008 37.6547 34.3059 37.8207C33.8082 37.8207 33.8082 37.8207 33.4754 37.9871C32.4793 37.9871 32.3129 37.4883 32.3129 37.4883L32.4793 34.998Z" fill="#E9654B"/>
<path d="M42.9414 18.558C42.9414 28.4623 34.9121 36.4916 25.0078 36.4916C15.1031 36.4916 7.07422 28.4623 7.07422 18.558C7.07422 8.65488 15.1031 0.625977 25.0078 0.625977C34.9121 0.625977 42.9414 8.65488 42.9414 18.558Z" fill="#B6CFEA"/>
<path d="M42.2766 18.5578C42.2766 28.0961 34.5449 35.8273 25.0066 35.8273C15.4699 35.8273 7.73828 28.0961 7.73828 18.5578C7.73828 9.02109 15.4699 1.28906 25.0066 1.28906C34.5449 1.28906 42.2762 9.0207 42.2762 18.5574L42.2766 18.5578Z" fill="#E6F5F8"/>
<path d="M39.1191 18.8908C39.1191 26.6861 32.8008 33.0049 25.0051 33.0049C17.2105 33.0049 10.8906 26.6861 10.8906 18.8904C10.8906 11.0963 17.2109 4.77637 25.0051 4.77637C32.8008 4.77637 39.1191 11.0971 39.1191 18.8908Z" fill="#D0E8F0"/>
<path d="M16.7043 25.5322C16.7043 25.5322 17.8668 44.2959 17.8668 44.6287C17.8668 44.7936 18.0332 45.126 17.2016 45.4588C16.3715 45.79 13.7148 46.4549 13.7148 46.4549H17.7004C19.527 46.4549 19.527 44.96 19.527 44.6287C19.527 44.2959 20.0246 37.1564 20.0246 37.1564C20.0246 37.1564 20.1906 45.6252 20.1906 45.9561C20.1906 46.2889 20.0246 46.7861 18.8633 47.1189C18.0332 47.2854 15.5414 47.783 15.5414 47.783H19.3609C21.6863 47.783 21.6863 46.2889 21.6863 46.2889L22.1836 38.8166C22.1836 38.8166 22.35 46.2889 22.35 47.1189C22.35 47.783 21.8523 48.2818 20.0246 48.6127C18.8633 48.9455 17.368 49.2779 17.368 49.2779H21.6863C23.8437 49.1119 24.1766 47.6162 24.1766 47.6162L27.8293 29.0189L16.7043 25.5322Z" fill="#EE794B"/>
<path d="M33.3098 25.5324C33.3098 25.5324 32.1484 44.2961 32.1484 44.6289C32.1484 44.7937 31.982 45.1262 32.8125 45.459C33.6422 45.7902 36.2988 46.4551 36.2988 46.4551H32.3133C30.4867 46.4551 30.4867 44.9602 30.4867 44.6289C30.4867 44.2961 29.9895 37.1566 29.9895 37.1566C29.9895 37.1566 29.823 45.6254 29.823 45.9562C29.823 46.2891 29.9895 46.7863 31.152 47.1191L34.4723 47.7832H30.6535C28.3293 47.7832 28.3293 46.2891 28.3293 46.2891L27.8305 38.8168C27.8305 38.8168 27.6641 46.2891 27.6641 47.1191C27.6641 47.7832 28.1633 48.282 29.9898 48.6129C31.1523 48.9457 32.6461 49.2781 32.6461 49.2781H28.3293C26.1699 49.1121 25.8371 47.6164 25.8371 47.6164L22.1848 29.0195L33.3098 25.5324ZM33.4758 16.4C33.4758 21.0496 29.6566 24.7023 25.1734 24.7023C20.6906 24.7023 16.8711 20.8832 16.8711 16.4C16.8711 11.9172 20.6906 8.09766 25.1734 8.09766C29.6566 8.09766 33.4758 11.7508 33.4758 16.4Z" fill="#EE794B"/>
<mask id="mask0_1126_1881" style="mask-type:luminance" maskUnits="userSpaceOnUse" x="16" y="16" width="18" height="20">
<path d="M16.4062 16.0156H33.5938V35.9375H16.4062V16.0156Z" fill="white"/>
</mask>
<g mask="url(#mask0_1126_1881)">
<mask id="mask1_1126_1881" style="mask-type:luminance" maskUnits="userSpaceOnUse" x="16" y="16" width="18" height="23">
<path d="M33.4738 16.0674L32.4777 38.8166H17.5332L16.7031 16.0674" fill="white"/>
</mask>
<g mask="url(#mask1_1126_1881)">
<path d="M39.9508 20.8822C39.9508 29.0443 33.3348 35.6607 25.1727 35.6607C17.0109 35.6607 10.3945 29.0443 10.3945 20.8826C10.3945 12.7205 17.0109 6.10449 25.1727 6.10449C33.3348 6.10449 39.9508 12.7201 39.9508 20.8822Z" fill="#EE794B"/>
</g>
</g>
<mask id="mask2_1126_1881" style="mask-type:luminance" maskUnits="userSpaceOnUse" x="0" y="0" width="50" height="50">
<path d="M0 0H50V50H0V0Z" fill="black" fill-opacity="0.22"/>
</mask>
<g mask="url(#mask2_1126_1881)">
<mask id="mask3_1126_1881" style="mask-type:luminance" maskUnits="userSpaceOnUse" x="0" y="0" width="50" height="50">
<path d="M0 0H50V50H0V0Z" fill="white"/>
</mask>
<g mask="url(#mask3_1126_1881)">
<path d="M32.9789 25.5324C32.9789 25.5324 33.975 16.7312 32.6461 13.4109C30.1559 7.59879 24.3438 8.09762 24.3438 8.09762C24.3438 8.09762 27.6641 9.42536 27.8305 14.4074C27.9969 17.8941 27.8305 23.0422 27.8305 23.0422L32.9789 25.5324Z" fill="#E34E3B"/>
</g>
</g>
<mask id="mask4_1126_1881" style="mask-type:luminance" maskUnits="userSpaceOnUse" x="0" y="0" width="50" height="50">
<path d="M0 0H50V50H0V0Z" fill="black" fill-opacity="0.502"/>
</mask>
<g mask="url(#mask4_1126_1881)">
<mask id="mask5_1126_1881" style="mask-type:luminance" maskUnits="userSpaceOnUse" x="0" y="0" width="50" height="50">
<path d="M0 0H50V50H0V0Z" fill="white"/>
</mask>
<g mask="url(#mask5_1126_1881)">
<path d="M22.8469 11.9172C22.8468 12.0697 22.8167 12.2208 22.7582 12.3617C22.6998 12.5026 22.6141 12.6307 22.5062 12.7385C22.3983 12.8463 22.2702 12.9318 22.1292 12.9901C21.9882 13.0484 21.8371 13.0784 21.6846 13.0783C21.532 13.0782 21.381 13.0481 21.24 12.9897C21.0991 12.9312 20.9711 12.8456 20.8633 12.7376C20.7555 12.6297 20.67 12.5016 20.6116 12.3606C20.5533 12.2197 20.5234 12.0686 20.5234 11.916C20.5236 11.6079 20.6461 11.3125 20.8641 11.0947C21.0821 10.877 21.3776 10.7547 21.6857 10.7549C21.9938 10.755 22.2893 10.8776 22.507 11.0956C22.7248 11.3135 22.847 11.6091 22.8469 11.9172Z" fill="#FBDFC3"/>
</g>
</g>
<path d="M27.9941 28.8523C27.9941 31.6754 26.6652 33.5035 25.0051 33.5035C23.3449 33.5035 22.0156 31.3441 22.0156 28.5215C22.0156 28.5215 23.3449 31.1777 25.1711 31.1777C26.9977 31.1777 27.9941 28.8523 27.9941 28.8523Z" fill="#010101"/>
<path d="M27.9957 28.8523C27.9957 30.6805 26.6668 31.6754 25.0066 31.6754C23.3465 31.6754 22.1836 30.3477 22.1836 28.6875C22.1836 28.6875 23.5125 30.3477 25.3391 30.3477C27.1656 30.3477 27.9957 28.8523 27.9957 28.8523Z" fill="white"/>
<path d="M35.9645 21.0498C35.9645 23.8924 33.6605 26.1963 30.818 26.1963C27.975 26.1963 25.6695 23.8924 25.6695 21.0498C25.6695 18.2068 27.975 15.9014 30.818 15.9014C33.6605 15.9014 35.9645 18.2068 35.9645 21.0498ZM24.3418 21.0498C24.3418 23.8924 22.0363 26.1963 19.1934 26.1963C16.3508 26.1963 14.0469 23.8924 14.0469 21.0498C14.0469 18.2068 16.3508 15.9014 19.1938 15.9014C22.0363 15.9014 24.3418 18.2068 24.3418 21.0498Z" fill="#E9654B"/>
<path d="M34.8055 21.05C34.8055 23.2504 33.0203 25.0355 30.8199 25.0355C28.6195 25.0355 26.834 23.2504 26.834 21.05C26.834 18.848 28.6191 17.0645 30.8199 17.0645C33.0199 17.0645 34.8055 18.848 34.8055 21.05ZM22.8484 21.05C22.8484 23.2504 21.0648 25.0355 18.8645 25.0355C16.6625 25.0355 14.8789 23.2504 14.8789 21.05C14.8788 20.5266 14.9818 20.0083 15.1821 19.5247C15.3823 19.0411 15.6759 18.6017 16.046 18.2316C16.4161 17.8615 16.8555 17.5679 17.3391 17.3676C17.8227 17.1674 18.341 17.0644 18.8645 17.0645C21.0648 17.0645 22.8484 18.848 22.8484 21.05Z" fill="white"/>
<path d="M20.0234 20.5504C20.0235 20.703 19.9935 20.8541 19.9352 20.9952C19.8769 21.1362 19.7913 21.2643 19.6835 21.3723C19.5756 21.4803 19.4476 21.5659 19.3066 21.6244C19.1656 21.6829 19.0145 21.713 18.8619 21.7131C18.7093 21.7132 18.5582 21.6832 18.4171 21.6248C18.2761 21.5665 18.148 21.481 18.04 21.3731C17.932 21.2653 17.8464 21.1372 17.7879 20.9962C17.7294 20.8553 17.6993 20.7042 17.6992 20.5516C17.699 20.2434 17.8212 19.9477 18.039 19.7296C18.2568 19.5115 18.5523 19.3889 18.8605 19.3887C19.1688 19.3885 19.4644 19.5107 19.6825 19.7285C19.9006 19.9463 20.0232 20.2422 20.0234 20.5504ZM31.9801 20.5504C31.9829 20.7048 31.955 20.8583 31.8979 21.0018C31.8408 21.1453 31.7556 21.276 31.6474 21.3862C31.5392 21.4964 31.4102 21.584 31.2677 21.6438C31.1253 21.7036 30.9724 21.7344 30.818 21.7344C30.6635 21.7344 30.5106 21.7037 30.3682 21.6439C30.2257 21.5842 30.0966 21.4967 29.9884 21.3865C29.8802 21.2763 29.795 21.1456 29.7378 21.0021C29.6807 20.8586 29.6527 20.7052 29.6555 20.5508C29.6609 20.2462 29.7858 19.956 30.0031 19.7425C30.2204 19.529 30.5128 19.4093 30.8174 19.4092C31.122 19.4091 31.4145 19.5286 31.6319 19.7419C31.8494 19.9553 31.9744 20.2458 31.9801 20.5504Z" fill="#010101"/>
<path d="M6.74176 23.0418C6.63097 23.0486 6.51999 23.0318 6.41617 22.9926C6.31236 22.9533 6.21808 22.8924 6.13959 22.8139C6.06109 22.7354 6.00018 22.6411 5.96089 22.5373C5.9216 22.4335 5.90483 22.3225 5.91169 22.2117V15.5699C5.90475 15.4591 5.92144 15.348 5.96063 15.2441C5.99982 15.1402 6.06063 15.0458 6.13903 14.9672C6.21768 14.8888 6.31208 14.8279 6.41598 14.7888C6.51989 14.7496 6.63093 14.7329 6.74176 14.7398C6.85256 14.733 6.96354 14.7497 7.06735 14.789C7.17117 14.8283 7.26545 14.8892 7.34394 14.9677C7.42243 15.0462 7.48334 15.1405 7.52263 15.2443C7.56192 15.3481 7.5787 15.4591 7.57184 15.5699V22.2121C7.58551 22.4347 7.50153 22.6547 7.34294 22.8136C7.26452 22.8921 7.17036 22.953 7.06667 22.9924C6.96297 23.0318 6.8521 23.0488 6.74137 23.0422L6.74176 23.0418ZM42.9402 23.0418C42.8294 23.0485 42.7185 23.0315 42.6148 22.992C42.5111 22.9526 42.4169 22.8915 42.3386 22.8129C42.2602 22.7345 42.1993 22.6404 42.1599 22.5368C42.1205 22.4331 42.1036 22.3223 42.1101 22.2117V15.5699C42.1035 15.4589 42.1204 15.3479 42.1599 15.244C42.1994 15.1401 42.2604 15.0457 42.339 14.9672C42.4174 14.8888 42.5115 14.828 42.6152 14.7888C42.7188 14.7496 42.8296 14.7329 42.9402 14.7398C43.0508 14.7329 43.1616 14.7496 43.2653 14.7888C43.3689 14.828 43.463 14.8888 43.5414 14.9672C43.7015 15.1261 43.7836 15.3461 43.7703 15.5699V22.2121C43.7772 22.3229 43.7603 22.4339 43.7209 22.5376C43.6814 22.6414 43.6202 22.7355 43.5414 22.8136C43.463 22.8922 43.3689 22.9532 43.2652 22.9926C43.1615 23.032 43.0506 23.0489 42.9398 23.0422L42.9402 23.0418Z" fill="#B6CFEA"/>
<path d="M20.1899 5.27539C20.1899 5.49554 20.1025 5.70667 19.9468 5.86234C19.7911 6.01801 19.58 6.10547 19.3599 6.10547C19.1397 6.10547 18.9286 6.01801 18.7729 5.86234C18.6172 5.70667 18.5298 5.49554 18.5298 5.27539C18.5298 5.05524 18.6172 4.84411 18.7729 4.68844C18.9286 4.53277 19.1397 4.44531 19.3599 4.44531C19.58 4.44531 19.7911 4.53277 19.9468 4.68844C20.1025 4.84411 20.1899 5.05524 20.1899 5.27539ZM13.3829 27.6918C13.2926 27.7032 13.2008 27.6942 13.1144 27.6655C13.028 27.6367 12.9492 27.589 12.8837 27.5258C10.8911 25.0355 9.89462 21.8801 9.89462 18.7246C9.88572 16.1012 10.5735 13.5225 11.8876 11.252C13.2197 9.09078 15.0392 7.27141 17.2005 5.93945C17.3392 5.87724 17.4939 5.85979 17.643 5.88954C17.7921 5.9193 17.9283 5.99477 18.0325 6.10547C18.0941 6.24406 18.1112 6.39837 18.0813 6.54707C18.0514 6.69577 17.9761 6.83151 17.8657 6.93555C15.8058 8.09935 14.0908 9.78778 12.8949 11.8292C11.699 13.8706 11.065 16.1923 11.0571 18.5582C11.0525 21.5116 12.0475 24.3797 13.8802 26.6957C14.0466 26.8621 14.0466 27.3598 13.7138 27.5258C13.5477 27.6922 13.5477 27.6918 13.3829 27.6918Z" fill="white"/>
<mask id="mask6_1126_1881" style="mask-type:luminance" maskUnits="userSpaceOnUse" x="0" y="0" width="50" height="50">
<path d="M0 0H50V50H0V0Z" fill="black" fill-opacity="0.251"/>
</mask>
<g mask="url(#mask6_1126_1881)">
<mask id="mask7_1126_1881" style="mask-type:luminance" maskUnits="userSpaceOnUse" x="0" y="0" width="50" height="50">
<path d="M0 0H50V50H0V0Z" fill="white"/>
</mask>
<g mask="url(#mask7_1126_1881)">
<path d="M32.4773 35.4949V34.168C30.1531 35.4953 27.6613 36.8242 24.6738 36.8242C21.352 36.8242 19.193 35.3305 17.0352 34.168L17.2 35.4953C17.2 35.4953 19.6922 38.1535 24.8387 38.1535C29.6543 37.9871 32.4773 35.4949 32.4773 35.4949Z" fill="#E9654B"/>
</g>
</g>
</svg>
