<svg id="Layer_1" data-name="Layer 1" xmlns="http://www.w3.org/2000/svg" viewBox="0 0 40 40"><defs><style>.cls-1,.cls-2,.cls-3,.cls-4{fill:#fff;}.cls-2{opacity:0.8;}.cls-3{opacity:0.6;}.cls-4{opacity:0.4;}.cls-5{opacity:0.16;}</style></defs><polygon class="cls-1" points="32.22 3.29 27.18 9.1 30.41 8.5 30.41 11.63 32.22 10.28 34.02 11.63 34.02 8.5 37.26 9.1 32.22 3.29"/><polygon class="cls-1" points="32.22 11.04 32.22 11.04 32.21 11.04 32.21 11.04 30.41 12.39 30.41 13.54 32.22 12.19 34.02 13.54 34.02 12.39 32.22 11.04 32.22 11.04"/><polygon class="cls-2" points="32.22 12.97 32.22 12.97 32.21 12.97 32.21 12.97 30.41 14.32 30.41 15.47 32.22 14.12 34.02 15.47 34.02 14.32 32.22 12.97 32.22 12.97"/><polygon class="cls-3" points="32.22 14.9 32.22 14.9 32.21 14.9 32.21 14.9 30.41 16.25 30.41 17.4 32.22 16.05 34.02 17.4 34.02 16.25 32.22 14.9 32.22 14.9"/><polygon class="cls-4" points="32.22 16.82 32.22 16.83 32.21 16.82 32.21 16.83 30.41 18.18 30.41 19.33 32.22 17.98 34.02 19.33 34.02 18.18 32.22 16.83 32.22 16.82"/><g class="cls-5"><polygon class="cls-1" points="32.22 16.82 32.22 16.83 32.22 17.98 34.02 19.33 34.02 18.18 32.22 16.83 32.22 16.82"/><polygon class="cls-1" points="32.22 14.9 32.22 14.9 32.22 16.05 34.02 17.4 34.02 16.25 32.22 14.9 32.22 14.9"/><polygon class="cls-1" points="32.22 11.04 32.22 11.04 32.22 12.19 34.02 13.54 34.02 12.39 32.22 11.04 32.22 11.04"/><polygon class="cls-1" points="34.02 11.63 34.02 8.5 37.26 9.1 32.22 3.29 32.22 10.28 34.02 11.63"/><polygon class="cls-1" points="32.22 12.97 32.22 12.97 32.22 14.12 34.02 15.47 34.02 14.32 32.22 12.97 32.22 12.97"/></g><path class="cls-1" d="M21,12.29a10.49,10.49,0,0,0-2.84.42l-.07,0a10.41,10.41,0,0,0-1.77-.17,5.82,5.82,0,0,0-3.1.76,12,12,0,0,0-4.37-.68,5.31,5.31,0,0,0-3.67,1.53,6.61,6.61,0,0,0-1.45,5,19.92,19.92,0,0,0,.51,3,36.11,36.11,0,0,0,1.23,4.29,9.4,9.4,0,0,0,2,3.55,2.47,2.47,0,0,0,1.78.77,2.36,2.36,0,0,0,1.36-.57,1.56,1.56,0,0,0,.58.46,3.1,3.1,0,0,0,.7.28,5,5,0,0,0,2,.1,3.58,3.58,0,0,0,.9-.28c0,.34,0,.68,0,1a9.62,9.62,0,0,0,.39,2.93,3.73,3.73,0,0,0,.75,1.51,3,3,0,0,0,2.9.78,4.16,4.16,0,0,0,2.74-1.58c.73-1,1.06-2.54,1.12-5,0-.13,0-.24.06-.34H23a6.11,6.11,0,0,0,2.8-.49,3.84,3.84,0,0,0,1.74-1.32,1.37,1.37,0,0,0,.24-.67,1.29,1.29,0,0,0-.46-1.05,1.39,1.39,0,0,0-1.41-.21,6.56,6.56,0,0,1-1.24.15,24,24,0,0,0,2.54-6,13.37,13.37,0,0,0,.46-3,3.57,3.57,0,0,0-.6-2.39,7.4,7.4,0,0,0-5.89-2.77Zm-.05.66a6.7,6.7,0,0,1,5.54,2.5,3.08,3.08,0,0,1,.46,1.95,13,13,0,0,1-.45,2.88,23.39,23.39,0,0,1-3,6.71l.16.09A4.39,4.39,0,0,0,26,27a.9.9,0,0,1,.85.07.53.53,0,0,1,.19.44.71.71,0,0,1-.13.35A3.59,3.59,0,0,1,25.44,29a5.85,5.85,0,0,1-2.19.43,3.57,3.57,0,0,1-1-.12h0c-.11,1.1-.37,3.26-.54,4.25a3.54,3.54,0,0,1-.83,1.9,3.68,3.68,0,0,1-2,.94,2.66,2.66,0,0,1-2.36-.44,3.27,3.27,0,0,1-.87-1.33,4.25,4.25,0,0,1-.19-1c0-.41-.08-.91-.11-1.48,0-.87,0-1.74,0-2.6a3.13,3.13,0,0,1-1.6.78A4.37,4.37,0,0,1,12,30.24a2.74,2.74,0,0,1-.54-.21,1,1,0,0,1-.45-.41.54.54,0,0,1-.06-.39.7.7,0,0,1,.23-.35,2,2,0,0,1,.88-.34,2.92,2.92,0,0,0,1.16-.38,7.54,7.54,0,0,0,.56-.65v0a3,3,0,0,1-1.37-.37c-.16.17-1,1-1.91,2.16a1.9,1.9,0,0,1-1.33.79,1.78,1.78,0,0,1-1.27-.57,9.37,9.37,0,0,1-1.81-3.29A35,35,0,0,1,4.86,22a19,19,0,0,1-.49-2.85,5.9,5.9,0,0,1,1.25-4.52,4.66,4.66,0,0,1,3.21-1.33,11.48,11.48,0,0,1,4.43.76,5.08,5.08,0,0,1,3-.82,7.28,7.28,0,0,1,1.74.22h0a6.61,6.61,0,0,1,.76-.22A10.35,10.35,0,0,1,20.91,13Zm.16.69h-.15a9.49,9.49,0,0,0-1.76.2,7.64,7.64,0,0,1,2.94,2.33,8.4,8.4,0,0,1,1.17,2,4.75,4.75,0,0,1,.24.68c0,.09,0,.17,0,.25a.82.82,0,0,1,0,.14v0c0,.9-.19,1.52-.22,2.38,0,.63.14,1.36.18,2.17A4.06,4.06,0,0,1,23,26.18l.11.15a22.55,22.55,0,0,0,2.73-6.22,11.9,11.9,0,0,0,.42-2.72,2.72,2.72,0,0,0-.3-1.51,6,6,0,0,0-4.84-2.24Zm-4.95.27a4.14,4.14,0,0,0-2.76.92A5.08,5.08,0,0,0,11.91,17a9.14,9.14,0,0,0-.53,2.49h0a5.59,5.59,0,0,1,1.37-.53,2.66,2.66,0,0,1,1.58,0,1.8,1.8,0,0,1,1.08,1.36,7.41,7.41,0,0,1-.58,5.56A9.19,9.19,0,0,0,14.51,27l.13,0a1.12,1.12,0,0,1,.56.11,1.39,1.39,0,0,1,.73.81,1.37,1.37,0,0,1,.07.29.3.3,0,0,1,0,.13c0,1.29,0,2.58,0,3.86,0,.56.05,1.05.1,1.44a3.44,3.44,0,0,0,.15.77A2.5,2.5,0,0,0,17,35.39a1.9,1.9,0,0,0,1.77.3,3,3,0,0,0,1.61-.75A2.79,2.79,0,0,0,21,33.4c.18-1.08.56-4.23.6-4.82a2,2,0,0,1,.19-1,1.21,1.21,0,0,1,.57-.52,1.3,1.3,0,0,1,.27-.1c-.08-.12-.17-.23-.25-.34a4.23,4.23,0,0,1-.69-1.13,4.82,4.82,0,0,0-.27-.5c-.13-.25-.31-.56-.49-.91a11.22,11.22,0,0,1-1-2.36,2.45,2.45,0,0,1,.29-2.28,2.8,2.8,0,0,1,2.5-.63,2.36,2.36,0,0,0-.12-.34,7.57,7.57,0,0,0-1.07-1.82,6.67,6.67,0,0,0-5.32-2.69ZM9.26,14H8.87a3.94,3.94,0,0,0-2.74,1.11c-.71.75-1.17,2-1.07,4a23.21,23.21,0,0,0,.47,2.74,36.12,36.12,0,0,0,1.18,4.11,8.92,8.92,0,0,0,1.65,3,1.06,1.06,0,0,0,.75.37,1.21,1.21,0,0,0,.82-.53c.6-.73,1.23-1.43,1.87-2.12a3.6,3.6,0,0,1-1.2-3.25,14.11,14.11,0,0,0,.11-2.05c0-.55-.06-.91-.06-1.14v0h0a10.38,10.38,0,0,1,.61-3.49,5.89,5.89,0,0,1,1.37-2.18,11.59,11.59,0,0,0-3-.59Zm12.81,5.46a1.66,1.66,0,0,0-1.3.43,1.87,1.87,0,0,0-.14,1.65,10.51,10.51,0,0,0,.91,2.21c.17.34.34.64.48.89a5.59,5.59,0,0,1,.3.57c.06.14.12.26.18.38a3.51,3.51,0,0,0,.3-1.73c0-.72-.21-1.47-.18-2.22s.2-1.45.21-2.13A6.33,6.33,0,0,0,22.07,19.42Zm-8.51.12a2.79,2.79,0,0,0-.64.07,4.84,4.84,0,0,0-1.19.47,3.61,3.61,0,0,0-.36.23l0,0c0,.15,0,.52.05,1.06a13.09,13.09,0,0,1-.12,2.15,2.74,2.74,0,0,0,2.54,3.23,11.24,11.24,0,0,1,.38-1.11,6.53,6.53,0,0,0,.55-5.18,1,1,0,0,0-.65-.86,1.39,1.39,0,0,0-.54-.08Zm8.18.21h.05l.19,0a.3.3,0,0,1,.14.06.15.15,0,0,1,.08.11h0a.23.23,0,0,1,0,.14.58.58,0,0,1-.11.15.67.67,0,0,1-.4.22.62.62,0,0,1-.42-.1.86.86,0,0,1-.14-.13A.26.26,0,0,1,21,20.1a.17.17,0,0,1,0-.13.34.34,0,0,1,.12-.09,1,1,0,0,1,.39-.12Zm-8.08.17.17,0a1.17,1.17,0,0,1,.41.12l.14.11a.23.23,0,0,1,0,.18.27.27,0,0,1-.08.16.86.86,0,0,1-.14.13.66.66,0,0,1-.47.12.74.74,0,0,1-.43-.24.66.66,0,0,1-.12-.17.23.23,0,0,1,0-.18.25.25,0,0,1,.19-.2.71.71,0,0,1,.32,0ZM23,27.51h0c-.15.06-.28.08-.38.12a.47.47,0,0,0-.25.23,1.32,1.32,0,0,0-.1.68.36.36,0,0,0,.15.08,2.85,2.85,0,0,0,.8.08,5.45,5.45,0,0,0,1.9-.36,4,4,0,0,0,1-.64h0a4.88,4.88,0,0,1-2.75,0,2,2,0,0,1-.35-.21Zm-8.3.1h0s-.13,0-.29.19a6.22,6.22,0,0,1-.78.89,3.12,3.12,0,0,1-1.45.52,2.51,2.51,0,0,0-.48.15l.08.06a1.66,1.66,0,0,0,.37.14,3.55,3.55,0,0,0,1.44.09,2.46,2.46,0,0,0,1.66-1.08.52.52,0,0,0,0-.49.76.76,0,0,0-.34-.41.79.79,0,0,0-.22-.06Z"/></svg>