<svg id="Layer_1" data-name="Layer 1" xmlns="http://www.w3.org/2000/svg" viewBox="0 0 40 40"><defs><style>.cls-1{fill:#666766;}.cls-2{fill:#fff;}.cls-3{fill:#33658d;}</style></defs><path class="cls-1" d="M7,23.26c0,2.31,5.85,4.19,13,4.19s13-1.88,13-4.18h0V19.92c-2.68,2-7.87,2.87-13,2.87S9.64,21.88,7,19.92Z"/><path class="cls-1" d="M33,26.44c-2.68,2-7.87,2.88-13,2.88S9.64,28.4,7,26.44v3.81H7C7.68,32.34,13.29,34,20,34s12.32-1.63,13-3.72h0Z"/><path class="cls-1" d="M7,16.74c0,2.31,5.85,4.19,13,4.19s13-1.88,13-4.18V13.4c-2.68,2-7.87,2.87-13,2.87S9.64,15.36,7,13.4Z"/><ellipse class="cls-1" cx="20" cy="10.22" rx="13.04" ry="4.19"/><path class="cls-2" d="M28.66,26.44a1.07,1.07,0,0,1-.18.5,2.87,2.87,0,0,1-1.29,1,4.53,4.53,0,0,1-2.09.36H25c0,.08,0,.16-.05.26a6.64,6.64,0,0,1-.84,3.7,3.13,3.13,0,0,1-2,1.17,2.24,2.24,0,0,1-2.16-.58,3,3,0,0,1-.56-1.12A7.1,7.1,0,0,1,19,29.52l0-.75a2.44,2.44,0,0,1-.67.2,3.64,3.64,0,0,1-1.5-.07,2.46,2.46,0,0,1-.52-.21,1.17,1.17,0,0,1-.43-.34,1.78,1.78,0,0,1-1,.42,1.84,1.84,0,0,1-1.33-.57,7.05,7.05,0,0,1-1.47-2.64,29.46,29.46,0,0,1-.92-3.19,14.63,14.63,0,0,1-.37-2.22,4.9,4.9,0,0,1,1.07-3.73,3.93,3.93,0,0,1,2.73-1.14,8.64,8.64,0,0,1,3.25.51,4.33,4.33,0,0,1,2.31-.57,8.31,8.31,0,0,1,1.32.12h.05A7.59,7.59,0,0,1,23.62,15h.13a5.52,5.52,0,0,1,4.38,2.06,2.65,2.65,0,0,1,.45,1.78,9.52,9.52,0,0,1-.35,2.26,17.35,17.35,0,0,1-1.89,4.49,4.22,4.22,0,0,0,.93-.11,1.05,1.05,0,0,1,1.05.15A1,1,0,0,1,28.66,26.44Z"/><path class="cls-3" d="M19.4,26.76a.61.61,0,0,0-.26-.3L19,26.41h0s-.1,0-.22.15a4.57,4.57,0,0,1-.58.66,2.44,2.44,0,0,1-1.08.39,1.3,1.3,0,0,0-.35.11l.05,0a1.08,1.08,0,0,0,.28.11,2.74,2.74,0,0,0,1.07.06,1.84,1.84,0,0,0,1.24-.8A.42.42,0,0,0,19.4,26.76Zm8.06-.28a3.47,3.47,0,0,1-2.05,0,1,1,0,0,1-.25-.15h0l-.29.09a.33.33,0,0,0-.18.17,1,1,0,0,0-.08.51l.11.05a2.29,2.29,0,0,0,.6.07A4.12,4.12,0,0,0,26.74,27a3.12,3.12,0,0,0,.72-.48ZM19,21.11a.76.76,0,0,0-.48-.64,1.34,1.34,0,0,0-.4-.06,1.84,1.84,0,0,0-.47.06,3.56,3.56,0,0,0-.89.34,1.59,1.59,0,0,0-.27.18h0c0,.11,0,.39,0,.79a9.43,9.43,0,0,1-.09,1.6,2,2,0,0,0,1.89,2.4A8.27,8.27,0,0,1,18.6,25,4.87,4.87,0,0,0,19,21.11Zm-.23-.1a.23.23,0,0,1-.06.12.52.52,0,0,1-.11.1.52.52,0,0,1-.34.09.6.6,0,0,1-.33-.18L17.84,21a.32.32,0,0,1,0-.14.19.19,0,0,1,.15-.15.58.58,0,0,1,.23,0h.13a.66.66,0,0,1,.3.09l.11.08A.2.2,0,0,1,18.77,21Zm6.09.93c0-.65.15-1.08.16-1.58a3.64,3.64,0,0,0-.57,0,1.25,1.25,0,0,0-1,.32,1.37,1.37,0,0,0-.1,1.23,7.75,7.75,0,0,0,.67,1.64c.13.25.26.48.36.66s.18.32.23.43a2.39,2.39,0,0,0,.13.28A2.63,2.63,0,0,0,25,23.6C25,23.06,24.84,22.5,24.86,21.94Zm-.32-1.22a.12.12,0,0,1,0,.1.94.94,0,0,1-.09.12.56.56,0,0,1-.29.16.51.51,0,0,1-.32-.08l-.1-.09a.31.31,0,0,1,0-.1.19.19,0,0,1,0-.1l.09-.07a1.1,1.1,0,0,1,.29-.09h.3l.11.05s.05.05.06.08Zm-8.63,2.6A9.38,9.38,0,0,0,16,21.8c0-.41,0-.68,0-.85v0h0a7.4,7.4,0,0,1,.45-2.59,4.52,4.52,0,0,1,1-1.62,8.37,8.37,0,0,0-2.22-.44h-.58a2.92,2.92,0,0,0-2,.83,3.9,3.9,0,0,0-.8,3,16.61,16.61,0,0,0,.36,2A22.82,22.82,0,0,0,13,25.17a6.53,6.53,0,0,0,1.22,2.26.75.75,0,0,0,.56.28.91.91,0,0,0,.61-.4c.45-.54.91-1.06,1.39-1.57A2.7,2.7,0,0,1,15.91,23.32Zm8.25,1.48c-.06-.13-.13-.25-.2-.37l-.37-.68A8.1,8.1,0,0,1,22.88,22a1.81,1.81,0,0,1,.21-1.69A2.11,2.11,0,0,1,25,19.83l-.09-.25a6.39,6.39,0,0,0-.8-1.36,5,5,0,0,0-4-2H20a3.08,3.08,0,0,0-2.05.69,3.86,3.86,0,0,0-1.08,1.6,6.79,6.79,0,0,0-.39,1.86h0a3.68,3.68,0,0,1,1-.39,2.06,2.06,0,0,1,1.18,0,1.35,1.35,0,0,1,.8,1,5.52,5.52,0,0,1-.43,4.13c-.1.26-.18.52-.26.78l.1,0a1,1,0,0,1,1,.68.87.87,0,0,1,.05.22.18.18,0,0,1,0,.1c0,1,0,1.92,0,2.87,0,.42,0,.78.08,1.07a2.77,2.77,0,0,0,.11.58,1.92,1.92,0,0,0,.5.78,1.39,1.39,0,0,0,1.31.22,2.2,2.2,0,0,0,1.2-.55,2.12,2.12,0,0,0,.48-1.15c.14-.8.42-3.14.45-3.59a1.6,1.6,0,0,1,.14-.78.85.85,0,0,1,.43-.38,1,1,0,0,1,.2-.08l-.19-.25A3.43,3.43,0,0,1,24.16,24.8Zm3.14-7.11A4.4,4.4,0,0,0,23.71,16h-.12a7.2,7.2,0,0,0-1.31.15,5.82,5.82,0,0,1,2.19,1.73,6.12,6.12,0,0,1,.87,1.48,2.64,2.64,0,0,1,.18.51,1.13,1.13,0,0,1,0,.18.49.49,0,0,1,0,.11h0c0,.67-.15,1.13-.17,1.77,0,.47.11,1,.13,1.61a3,3,0,0,1-.4,1.78l.09.11a16.69,16.69,0,0,0,2-4.63,9,9,0,0,0,.31-2A2,2,0,0,0,27.3,17.69Zm0,0A4.4,4.4,0,0,0,23.71,16h-.12a7.2,7.2,0,0,0-1.31.15,5.82,5.82,0,0,1,2.19,1.73,6.12,6.12,0,0,1,.87,1.48,2.64,2.64,0,0,1,.18.51,1.13,1.13,0,0,1,0,.18.49.49,0,0,1,0,.11h0c0,.67-.15,1.13-.17,1.77,0,.47.11,1,.13,1.61a3,3,0,0,1-.4,1.78l.09.11a16.69,16.69,0,0,0,2-4.63,9,9,0,0,0,.31-2A2,2,0,0,0,27.3,17.69Zm-1.89,8.8a1,1,0,0,1-.25-.15h0l-.29.09a.33.33,0,0,0-.18.17,1,1,0,0,0-.08.51l.11.05a2.29,2.29,0,0,0,.6.07A4.12,4.12,0,0,0,26.74,27a3.12,3.12,0,0,0,.72-.48h0A3.47,3.47,0,0,1,25.41,26.49ZM25,20.36a3.64,3.64,0,0,0-.57,0,1.25,1.25,0,0,0-1,.32,1.37,1.37,0,0,0-.1,1.23,7.75,7.75,0,0,0,.67,1.64c.13.25.26.48.36.66s.18.32.23.43a2.39,2.39,0,0,0,.13.28A2.63,2.63,0,0,0,25,23.6c0-.54-.15-1.1-.13-1.66S25,20.86,25,20.36Zm-.48.36a.12.12,0,0,1,0,.1.94.94,0,0,1-.09.12.56.56,0,0,1-.29.16.51.51,0,0,1-.32-.08l-.1-.09a.31.31,0,0,1,0-.1.19.19,0,0,1,0-.1l.09-.07a1.1,1.1,0,0,1,.29-.09h.3l.11.05s.05.05.06.08Zm.32,5.17-.19-.25a3.43,3.43,0,0,1-.51-.84c-.06-.13-.13-.25-.2-.37l-.37-.68A8.1,8.1,0,0,1,22.88,22a1.81,1.81,0,0,1,.21-1.69A2.11,2.11,0,0,1,25,19.83l-.09-.25a6.39,6.39,0,0,0-.8-1.36,5,5,0,0,0-4-2H20a3.08,3.08,0,0,0-2.05.69,3.86,3.86,0,0,0-1.08,1.6,6.79,6.79,0,0,0-.39,1.86h0a3.68,3.68,0,0,1,1-.39,2.06,2.06,0,0,1,1.18,0,1.35,1.35,0,0,1,.8,1,5.52,5.52,0,0,1-.43,4.13c-.1.26-.18.52-.26.78l.1,0a1,1,0,0,1,1,.68.87.87,0,0,1,.05.22.18.18,0,0,1,0,.1c0,1,0,1.92,0,2.87,0,.42,0,.78.08,1.07a2.77,2.77,0,0,0,.11.58,1.92,1.92,0,0,0,.5.78,1.39,1.39,0,0,0,1.31.22,2.2,2.2,0,0,0,1.2-.55,2.12,2.12,0,0,0,.48-1.15c.14-.8.42-3.14.45-3.59a1.6,1.6,0,0,1,.14-.78.85.85,0,0,1,.43-.38A1,1,0,0,1,24.86,25.89Zm-5.72.57L19,26.41h0s-.1,0-.22.15a4.57,4.57,0,0,1-.58.66,2.44,2.44,0,0,1-1.08.39,1.3,1.3,0,0,0-.35.11l.05,0a1.08,1.08,0,0,0,.28.11,2.74,2.74,0,0,0,1.07.06,1.84,1.84,0,0,0,1.24-.8.42.42,0,0,0,0-.37A.61.61,0,0,0,19.14,26.46Zm-.83-.67A8.27,8.27,0,0,1,18.6,25a4.87,4.87,0,0,0,.4-3.85.76.76,0,0,0-.48-.64,1.34,1.34,0,0,0-.4-.06,1.84,1.84,0,0,0-.47.06,3.56,3.56,0,0,0-.89.34,1.59,1.59,0,0,0-.27.18h0c0,.11,0,.39,0,.79a9.43,9.43,0,0,1-.09,1.6A2,2,0,0,0,18.31,25.79Zm-.5-4.91a.19.19,0,0,1,.15-.15.58.58,0,0,1,.23,0h.13a.66.66,0,0,1,.3.09l.11.08a.2.2,0,0,1,0,.13.23.23,0,0,1-.06.12.52.52,0,0,1-.11.1.52.52,0,0,1-.34.09.6.6,0,0,1-.33-.18L17.84,21A.32.32,0,0,1,17.81,20.88Zm-1.9,2.44A9.38,9.38,0,0,0,16,21.8c0-.41,0-.68,0-.85v0h0a7.4,7.4,0,0,1,.45-2.59,4.52,4.52,0,0,1,1-1.62,8.37,8.37,0,0,0-2.22-.44h-.58a2.92,2.92,0,0,0-2,.83,3.9,3.9,0,0,0-.8,3,16.61,16.61,0,0,0,.36,2A22.82,22.82,0,0,0,13,25.17a6.53,6.53,0,0,0,1.22,2.26.75.75,0,0,0,.56.28.91.91,0,0,0,.61-.4c.45-.54.91-1.06,1.39-1.57A2.7,2.7,0,0,1,15.91,23.32Zm12.41,2.33a1.05,1.05,0,0,0-1.05-.15,4.22,4.22,0,0,1-.93.11,17.35,17.35,0,0,0,1.89-4.49,9.52,9.52,0,0,0,.35-2.26,2.65,2.65,0,0,0-.45-1.78A5.52,5.52,0,0,0,23.75,15h-.13a7.59,7.59,0,0,0-2.11.31h-.05a8.31,8.31,0,0,0-1.32-.12,4.33,4.33,0,0,0-2.31.57,8.64,8.64,0,0,0-3.25-.51,3.93,3.93,0,0,0-2.73,1.14,4.9,4.9,0,0,0-1.07,3.73,14.63,14.63,0,0,0,.37,2.22,29.46,29.46,0,0,0,.92,3.19,7.05,7.05,0,0,0,1.47,2.64,1.84,1.84,0,0,0,1.33.57,1.78,1.78,0,0,0,1-.42,1.17,1.17,0,0,0,.43.34,2.46,2.46,0,0,0,.52.21,3.64,3.64,0,0,0,1.5.07,2.44,2.44,0,0,0,.67-.2l0,.75a7.1,7.1,0,0,0,.29,2.18,3,3,0,0,0,.56,1.12A2.24,2.24,0,0,0,22,33.4a3.13,3.13,0,0,0,2-1.17,6.64,6.64,0,0,0,.84-3.7c0-.1,0-.18.05-.26h.14a4.53,4.53,0,0,0,2.09-.36,2.87,2.87,0,0,0,1.29-1,1.07,1.07,0,0,0,.18-.5A1,1,0,0,0,28.32,25.65Zm-.29,1a2.52,2.52,0,0,1-1.08.81,4.18,4.18,0,0,1-1.62.31,2.28,2.28,0,0,1-.76-.08h0c-.09.82-.28,2.43-.41,3.16a2.55,2.55,0,0,1-.62,1.41,2.68,2.68,0,0,1-1.46.71,2,2,0,0,1-1.75-.33,2.38,2.38,0,0,1-.65-1,3.21,3.21,0,0,1-.15-.71c0-.31-.06-.68-.07-1.11,0-.64,0-1.29,0-1.94a2.35,2.35,0,0,1-1.19.59,3.2,3.2,0,0,1-1.29-.07,3.25,3.25,0,0,1-.4-.15.7.7,0,0,1-.33-.31.42.42,0,0,1-.05-.29.56.56,0,0,1,.17-.26,1.47,1.47,0,0,1,.66-.25,2.07,2.07,0,0,0,.86-.29,4.54,4.54,0,0,0,.41-.48v0a2.25,2.25,0,0,1-1-.27c-.12.12-.71.74-1.42,1.61a1.45,1.45,0,0,1-1,.58,1.29,1.29,0,0,1-.94-.43,6.79,6.79,0,0,1-1.35-2.44,27.72,27.72,0,0,1-.9-3.13,16.7,16.7,0,0,1-.36-2.13,4.36,4.36,0,0,1,.94-3.36,3.44,3.44,0,0,1,2.38-1,8.66,8.66,0,0,1,3.3.56,3.69,3.69,0,0,1,2.22-.61,5.07,5.07,0,0,1,1.29.17h0A4.74,4.74,0,0,1,22,15.7a7.68,7.68,0,0,1,1.59-.19h0a5,5,0,0,1,4.12,1.86,2.32,2.32,0,0,1,.34,1.45A9.81,9.81,0,0,1,27.72,21a17.3,17.3,0,0,1-2.23,5l.12.07a3.26,3.26,0,0,0,1.75,0c.25-.05.44-.09.63.06a.37.37,0,0,1,.14.32A.46.46,0,0,1,28,26.62ZM24.47,17.9a6.12,6.12,0,0,1,.87,1.48,2.64,2.64,0,0,1,.18.51,1.13,1.13,0,0,1,0,.18.49.49,0,0,1,0,.11h0c0,.67-.15,1.13-.17,1.77,0,.47.11,1,.13,1.61a3,3,0,0,1-.4,1.78l.09.11a16.69,16.69,0,0,0,2-4.63,9,9,0,0,0,.31-2,2,2,0,0,0-.23-1.12A4.4,4.4,0,0,0,23.71,16h-.12a7.2,7.2,0,0,0-1.31.15A5.82,5.82,0,0,1,24.47,17.9Zm.94,8.59a1,1,0,0,1-.25-.15h0l-.29.09a.33.33,0,0,0-.18.17,1,1,0,0,0-.08.51l.11.05a2.29,2.29,0,0,0,.6.07A4.12,4.12,0,0,0,26.74,27a3.12,3.12,0,0,0,.72-.48h0A3.47,3.47,0,0,1,25.41,26.49ZM25,20.36a3.64,3.64,0,0,0-.57,0,1.25,1.25,0,0,0-1,.32,1.37,1.37,0,0,0-.1,1.23,7.75,7.75,0,0,0,.67,1.64c.13.25.26.48.36.66s.18.32.23.43a2.39,2.39,0,0,0,.13.28A2.63,2.63,0,0,0,25,23.6c0-.54-.15-1.1-.13-1.66S25,20.86,25,20.36Zm-.48.36a.12.12,0,0,1,0,.1.94.94,0,0,1-.09.12.56.56,0,0,1-.29.16.51.51,0,0,1-.32-.08l-.1-.09a.31.31,0,0,1,0-.1.19.19,0,0,1,0-.1l.09-.07a1.1,1.1,0,0,1,.29-.09h.3l.11.05s.05.05.06.08Zm.32,5.17-.19-.25a3.43,3.43,0,0,1-.51-.84c-.06-.13-.13-.25-.2-.37l-.37-.68A8.1,8.1,0,0,1,22.88,22a1.81,1.81,0,0,1,.21-1.69A2.11,2.11,0,0,1,25,19.83l-.09-.25a6.39,6.39,0,0,0-.8-1.36,5,5,0,0,0-4-2H20a3.08,3.08,0,0,0-2.05.69,3.86,3.86,0,0,0-1.08,1.6,6.79,6.79,0,0,0-.39,1.86h0a3.68,3.68,0,0,1,1-.39,2.06,2.06,0,0,1,1.18,0,1.35,1.35,0,0,1,.8,1,5.52,5.52,0,0,1-.43,4.13c-.1.26-.18.52-.26.78l.1,0a1,1,0,0,1,1,.68.87.87,0,0,1,.05.22.18.18,0,0,1,0,.1c0,1,0,1.92,0,2.87,0,.42,0,.78.08,1.07a2.77,2.77,0,0,0,.11.58,1.92,1.92,0,0,0,.5.78,1.39,1.39,0,0,0,1.31.22,2.2,2.2,0,0,0,1.2-.55,2.12,2.12,0,0,0,.48-1.15c.14-.8.42-3.14.45-3.59a1.6,1.6,0,0,1,.14-.78.85.85,0,0,1,.43-.38A1,1,0,0,1,24.86,25.89Zm-5.72.57L19,26.41h0s-.1,0-.22.15a4.57,4.57,0,0,1-.58.66,2.44,2.44,0,0,1-1.08.39,1.3,1.3,0,0,0-.35.11l.05,0a1.08,1.08,0,0,0,.28.11,2.74,2.74,0,0,0,1.07.06,1.84,1.84,0,0,0,1.24-.8.42.42,0,0,0,0-.37A.61.61,0,0,0,19.14,26.46ZM18.6,25a4.87,4.87,0,0,0,.4-3.85.76.76,0,0,0-.48-.64,1.34,1.34,0,0,0-.4-.06,1.84,1.84,0,0,0-.47.06,3.56,3.56,0,0,0-.89.34,1.59,1.59,0,0,0-.27.18h0c0,.11,0,.39,0,.79a9.43,9.43,0,0,1-.09,1.6,2,2,0,0,0,1.89,2.4A8.27,8.27,0,0,1,18.6,25Zm-.34-3.64a.6.6,0,0,1-.33-.18L17.84,21a.32.32,0,0,1,0-.14.19.19,0,0,1,.15-.15.58.58,0,0,1,.23,0h.13a.66.66,0,0,1,.3.09l.11.08a.2.2,0,0,1,0,.13.23.23,0,0,1-.06.12.52.52,0,0,1-.11.1A.52.52,0,0,1,18.26,21.32Zm-2.35,2A9.38,9.38,0,0,0,16,21.8c0-.41,0-.68,0-.85v0h0a7.4,7.4,0,0,1,.45-2.59,4.52,4.52,0,0,1,1-1.62,8.37,8.37,0,0,0-2.22-.44h-.58a2.92,2.92,0,0,0-2,.83,3.9,3.9,0,0,0-.8,3,16.61,16.61,0,0,0,.36,2A22.82,22.82,0,0,0,13,25.17a6.53,6.53,0,0,0,1.22,2.26.75.75,0,0,0,.56.28.91.91,0,0,0,.61-.4c.45-.54.91-1.06,1.39-1.57A2.7,2.7,0,0,1,15.91,23.32Z"/></svg>