<svg id="SvgjsSvg1001" width="288" height="288" xmlns="http://www.w3.org/2000/svg" version="1.1" xmlns:xlink="http://www.w3.org/1999/xlink" xmlns:svgjs="http://svgjs.com/svgjs"><defs id="SvgjsDefs1002"></defs><g id="SvgjsG1008"><svg xmlns="http://www.w3.org/2000/svg" viewBox="0 0 512 512" width="288" height="288"><path fill="#b3b3b3" d="M206.000000,1.000003 
	C239.687561,1.000000 273.375122,1.000000 307.463684,1.425805 
	C308.709991,2.228487 309.529205,2.849989 310.404785,2.943458 
	C317.282745,3.677718 324.226990,3.961192 331.046112,5.043408 
	C348.720245,7.848363 366.512146,10.232671 383.943665,14.171725 
	C412.263245,20.571177 439.907135,29.097490 462.954834,48.004848 
	C471.473816,54.993450 476.951080,63.686050 476.992157,75.107819 
	C477.028076,85.105583 476.580200,95.125542 477.102386,105.096092 
	C477.809814,118.603317 472.669067,128.882538 462.305817,137.319122 
	C445.342621,151.128677 425.607971,158.969177 404.655853,165.027939 
	C396.014221,153.543915 386.259460,143.708008 373.873901,136.752380 
	C345.676300,120.916893 315.934692,120.436684 285.366180,127.833496 
	C282.725647,128.472443 279.806122,128.560364 277.099365,128.227524 
	C257.525055,125.820404 238.201996,125.577209 220.091019,134.956863 
	C216.961456,136.577667 214.402740,136.552979 211.215759,135.557068 
	C193.482605,130.015503 175.370804,126.748657 156.715164,127.992233 
	C132.983765,129.574158 113.323189,138.563324 100.590172,159.732849 
	C100.038010,160.650864 98.976738,161.262650 97.937645,161.705933 
	C80.824135,155.601089 64.744690,148.362564 50.946960,136.606995 
	C42.215248,129.167633 36.769070,120.470230 36.961430,108.642128 
	C37.142799,97.489929 37.061882,86.332024 36.982788,75.177429 
	C36.903934,64.056465 41.895824,54.927471 50.269043,48.702930 
	C59.949432,41.506653 70.566734,35.295395 81.447044,30.044283 
	C106.207458,18.094273 132.961426,12.542882 159.874924,8.130608 
	C174.461212,5.739289 189.264069,4.675465 203.955688,2.900774 
	C204.702774,2.810531 205.321518,1.657960 206.000000,1.000003 
z" class="color336791 svgShape"></path><path d="M205.531342 1.000003C205.321518 1.65796 204.702774 2.810531 203.955688 2.900774 189.264069 4.675465 174.461212 5.739289 159.874924 8.130608 132.961426 12.542882 106.207458 18.094273 81.447044 30.044283 70.566734 35.295395 59.949432 41.506653 50.269043 48.70293 41.895824 54.927471 36.903934 64.056465 36.982788 75.177429 37.061882 86.332024 37.142799 97.489929 36.96143 108.642128 36.76907 120.47023 42.215248 129.167633 50.94696 136.606995 64.74469 148.362564 80.824135 155.601089 97.77417 162.053223 92.977409 173.625336 89.975586 184.969421 89.514297 196.826721 71.142471 190.122253 53.59219 182.531082 37.001534 170.669907 37.001534 173.474213 37.001534 175.07637 37.001534 176.678528 37.001511 189.994797 37.405899 203.326691 36.891624 216.623077 36.339497 230.898254 43.449673 240.75563 53.897671 248.936981 67.666565 259.71875 83.59716 266.300659 100.074326 272.425812 102.144363 279.484009 104.014404 286.193329 105.976288 292.875702 107.937462 299.555542 109.990509 306.208405 111.618683 312.900574 91.439362 307.328583 71.966072 300.861084 53.852989 290.914185 48.327427 287.879761 43.058178 284.378601 37.001484 280.682281 37.001484 296.795532 37.333115 312.083893 36.901131 327.350677 36.526093 340.604919 42.998421 350.143433 52.606777 357.764984 66.140495 368.500183 81.784737 375.425995 98.028976 381.098083 129.381668 392.045624 161.889755 397.441742 194.737793 400.849243 209.36058 402.366119 224.142609 402.347931 238.918762 403.469727 240.051865 410.443573 240.481415 417.166626 242.37851 423.446381 244.018005 428.873474 247.325211 433.796783 249.433548 438.964172 233.758575 438.327454 218.539627 437.775665 203.334152 436.969574 194.770752 436.515625 186.16153 436.104462 177.693161 434.857544 162.116394 432.563965 146.578964 429.925537 131.114609 426.963684 106.18486 422.188965 82.026665 414.820862 59.219311 403.540466 51.802231 399.872009 44.813641 395.337189 37.000034 390.836273 37.000034 393.288422 37.000042 395.074738 37.000031 396.861084 36.999966 410.849609 37.064934 424.838501 36.979164 438.826508 36.911022 449.939301 41.874439 459.062744 50.238655 465.283569 59.910355 472.476837 70.518227 478.688599 81.392006 483.93219 106.166611 495.878967 132.928635 501.454193 159.855652 505.870026 174.447449 508.263 189.256454 509.32486 203.953949 511.099274 204.701569 511.189514 205.320923 512.342041 206 513 137.699097 513 69.398201 513 1.04865 513 1.04865 342.446777 1.04865 171.893539 1.04865 1 69.020515 1 137.041595 1 205.531342 1.000003zM404.996521 165.124359C425.607971 158.969177 445.342621 151.128677 462.305817 137.319122 472.669067 128.882538 477.809814 118.603317 477.102386 105.096092 476.5802 95.125542 477.028076 85.105583 476.992157 75.107819 476.95108 63.68605 471.473816 54.99345 462.954834 48.004848 439.907135 29.09749 412.263245 20.571177 383.943665 14.171725 366.512146 10.232671 348.720245 7.848363 331.046112 5.043408 324.22699 3.961192 317.282745 3.677718 310.404785 2.943458 309.529205 2.849989 308.709991 2.228487 307.932343 1.425805 376.300903 1 444.601807 1 512.951355 1 512.951355 171.553253 512.951355 342.106506 512.951355 513 444.979492 513 376.958405 513 308.401489 512.574219 308.710907 511.771606 309.530029 511.150055 310.405548 511.05658 317.285675 510.322418 324.232178 510.039459 331.053345 508.956879 348.727814 506.151672 366.520813 503.769684 383.951538 499.826385 412.270691 493.41983 439.914459 484.884613 462.983521 466.01123 471.364807 459.154236 476.861053 450.592468 476.966949 439.403564 477.102539 425.075623 476.999908 410.745392 476.999908 396.416168 476.999908 394.709167 476.999878 393.002167 476.999878 390.297028 474.569672 391.83313 473.197205 392.668945 471.856506 393.552948 458.736694 402.203552 444.629639 408.838531 429.854034 414.097931 396.224243 426.068542 361.343414 432.085571 326.11377 435.555023 334.963165 424.36264 338.413574 411.38446 341.48645 398.052551 345.345306 397.637726 348.838501 397.540741 352.199768 396.824585 367.096039 393.650726 382.049744 390.674072 396.804657 386.925507 420.047485 381.020508 442.318878 372.556519 461.463318 357.672607 471.166565 350.128815 477.500854 340.4599 477.09259 327.23468 476.671692 313.60144 477.007568 299.945068 476.988098 286.298859 476.985687 284.603088 476.834961 282.907501 476.723846 280.60968 453.973907 296.116119 429.739807 305.911041 403.586914 312.075623 395.836456 308.204163 388.233643 310.16452 380.683472 311.047882 377.543396 311.415253 374.41391 311.873077 370.766479 312.358002 376.187744 300.994812 381.197479 290.494232 386.594055 280.002014 390.783356 278.997711 394.611206 278.071167 398.384003 276.958069 418.470093 271.032043 438.123413 264.225067 455.639435 252.200073 469.826813 242.460281 478.513977 230.511429 477.188477 212.208023 476.220184 198.837021 476.998993 185.339523 476.998993 171.456131 475.715546 171.890778 474.906097 172.041199 474.219147 172.416077 463.694275 178.159744 453.512695 184.676468 442.579926 189.487839 431.835999 194.216095 420.333038 197.219681 409.089478 200.517853 409.229523 188.233124 409.57309 176.395676 404.996521 165.124359z" opacity="0" fill="#000000" class="color000 svgShape"></path><path fill="#b3b3b3" d="
M325.997253,435.878174 
	C361.343414,432.085571 396.224243,426.068542 429.854034,414.097931 
	C444.629639,408.838531 458.736694,402.203552 471.856506,393.552948 
	C473.197205,392.668945 474.569672,391.833130 476.999878,390.297028 
	C476.999878,393.002167 476.999908,394.709167 476.999908,396.416168 
	C476.999908,410.745392 477.102539,425.075623 476.966949,439.403564 
	C476.861053,450.592468 471.364807,459.154236 462.983521,466.011230 
	C439.914459,484.884613 412.270691,493.419830 383.951538,499.826385 
	C366.520813,503.769684 348.727814,506.151672 331.053345,508.956879 
	C324.232178,510.039459 317.285675,510.322418 310.405548,511.056580 
	C309.530029,511.150055 308.710907,511.771606 307.932831,512.574219 
	C274.312439,513.000000 240.624878,513.000000 206.468658,513.000000 
	C205.320923,512.342041 204.701569,511.189514 203.953949,511.099274 
	C189.256454,509.324860 174.447449,508.263000 159.855652,505.870026 
	C132.928635,501.454193 106.166611,495.878967 81.392006,483.932190 
	C70.518227,478.688599 59.910355,472.476837 50.238655,465.283569 
	C41.874439,459.062744 36.911022,449.939301 36.979164,438.826508 
	C37.064934,424.838501 36.999966,410.849609 37.000031,396.861084 
	C37.000042,395.074738 37.000034,393.288422 37.000034,390.836273 
	C44.813641,395.337189 51.802231,399.872009 59.219311,403.540466 
	C82.026665,414.820862 106.184860,422.188965 131.114609,426.963684 
	C146.578964,429.925537 162.116394,432.563965 177.693161,434.857544 
	C186.161530,436.104462 194.770752,436.515625 203.334152,436.969574 
	C218.539627,437.775665 233.758575,438.327454 249.645660,439.230591 
	C256.190857,446.343201 262.977875,451.947357 272.266510,453.068604 
	C290.444336,455.262848 306.835693,450.728943 321.213043,439.235413 
	C322.731781,438.021271 324.398956,436.992798 325.997253,435.878174 
z" class="color336791 svgShape"></path><path fill="#fcfdfd" d="
M326.113770,435.555054 
	C324.398956,436.992798 322.731781,438.021271 321.213043,439.235413 
	C306.835693,450.728943 290.444336,455.262848 272.266510,453.068604 
	C262.977875,451.947357 256.190857,446.343201 250.107330,439.209198 
	C247.325211,433.796783 244.018005,428.873474 242.378510,423.446381 
	C240.481415,417.166626 240.051865,410.443573 238.991501,403.043701 
	C238.318604,391.511475 237.639374,380.848480 236.939453,369.860626 
	C227.086884,373.525299 217.501648,374.774689 207.583969,373.551666 
	C197.708496,372.333832 188.485489,369.665314 181.922134,363.059387 
	C176.386200,365.279877 171.670746,368.041443 166.609131,369.029205 
	C154.193588,371.452057 144.734573,365.491272 136.829422,356.638611 
	C127.394051,346.072266 121.658310,333.351868 116.207901,320.474915 
	C115.085381,317.822876 113.418991,315.401031 112.003281,312.873108 
	C109.990509,306.208405 107.937462,299.555542 105.976288,292.875702 
	C104.014404,286.193329 102.144363,279.484009 100.228943,272.029419 
	C99.971283,269.798523 99.799553,268.305481 99.454117,266.853729 
	C93.986031,243.873276 88.402054,220.911041 89.836929,196.980957 
	C89.975586,184.969421 92.977409,173.625336 97.989166,162.364395 
	C98.976738,161.262650 100.038010,160.650864 100.590172,159.732849 
	C113.323189,138.563324 132.983765,129.574158 156.715164,127.992233 
	C175.370804,126.748657 193.482605,130.015503 211.215759,135.557068 
	C214.402740,136.552979 216.961456,136.577667 220.091019,134.956863 
	C238.201996,125.577209 257.525055,125.820404 277.099365,128.227524 
	C279.806122,128.560364 282.725647,128.472443 285.366180,127.833496 
	C315.934692,120.436684 345.676300,120.916893 373.873901,136.752380 
	C386.259460,143.708008 396.014221,153.543915 404.655853,165.027939 
	C409.573090,176.395676 409.229523,188.233124 408.929504,200.887024 
	C408.593750,202.313034 408.250977,202.886185 408.108337,203.505402 
	C404.623688,218.632080 401.666931,233.904205 397.521667,248.846802 
	C394.577820,259.458710 390.035889,269.627258 386.207214,279.993683 
	C381.197479,290.494232 376.187744,300.994812 370.766479,312.358002 
	C374.413910,311.873077 377.543396,311.415253 380.683472,311.047882 
	C388.233643,310.164520 395.836456,308.204163 403.567444,312.429077 
	C413.214325,325.039948 412.574310,334.232269 400.167358,343.782501 
	C393.195648,349.149017 385.169312,353.974670 376.846405,356.547089 
	C366.389374,359.779114 355.142517,360.455627 343.384918,362.373871 
	C343.098724,366.755157 342.732849,372.340881 342.369263,377.926758 
	C341.931854,384.646210 341.496368,391.365814 341.060089,398.085358 
	C338.413574,411.384460 334.963165,424.362640 326.113770,435.555054 
M193.863724,218.139999 
	C203.881866,213.348755 214.162521,209.756424 225.549179,210.958160 
	C235.119141,211.968155 241.591125,217.052048 244.850967,225.983521 
	C246.150894,229.545105 246.783234,233.371048 247.511795,237.117035 
	C251.510071,257.674744 251.077057,277.775208 241.839142,297.151276 
	C238.718124,303.697418 236.449799,310.650116 233.744751,317.536835 
	C249.056381,319.966736 253.875839,326.113739 254.121933,341.202271 
	C254.491165,363.841583 254.970947,386.492004 256.119080,409.101410 
	C256.993347,426.318115 268.851715,436.929504 284.551849,435.834961 
	C304.843170,434.420258 316.719452,425.620667 319.634674,407.376160 
	C323.255005,384.719025 325.676483,361.854218 328.032135,339.018890 
	C329.005096,329.587158 331.146271,321.652893 341.023529,318.101898 
	C341.224243,318.029694 341.302673,317.617249 340.964203,318.251068 
	C335.934265,309.399261 331.049774,301.113312 326.472382,292.661072 
	C321.881470,284.183838 317.228363,275.706757 313.272552,266.927673 
	C308.481750,256.295502 304.532318,245.336746 304.950562,233.321426 
	C305.343994,222.020462 310.722351,214.024384 321.579437,211.204742 
	C328.512665,209.404129 335.870636,209.239029 343.243622,208.314911 
	C343.141724,207.859619 343.091797,207.018097 342.771912,206.296158 
	C327.511200,171.854156 302.788055,149.372803 264.139648,145.323166 
	C242.100647,143.013901 222.688156,148.582611 209.125534,167.558762 
	C198.464798,182.474731 194.069733,199.589569 192.376404,217.905594 
	C192.629745,217.985245 192.883087,218.064880 193.863724,218.139999 
M112.760284,176.358078 
	C107.926003,189.273666 106.651001,202.775269 108.378510,216.218613 
	C112.631020,249.311478 120.873787,281.490753 133.039810,312.587616 
	C137.710373,324.525787 142.889313,336.322632 152.117004,345.635468 
	C158.806854,352.387054 164.656845,352.469604 170.973969,345.581512 
	C179.969086,335.773254 188.560684,325.595001 197.497833,315.376831 
	C196.355515,314.179352 195.198593,313.015442 194.095520,311.802612 
	C184.756180,301.533722 180.728729,289.391296 181.405716,275.613861 
	C181.936508,264.812073 182.599930,254.015991 183.035019,243.210556 
	C183.496384,231.752151 182.975098,220.195480 184.283661,208.843170 
	C186.428680,190.234268 192.528107,172.900116 204.658096,158.151505 
	C205.882904,156.662277 207.125381,155.187607 208.600586,153.417007 
	C191.261169,147.873688 174.187637,144.533615 156.510406,145.929749 
	C136.434158,147.515350 120.858315,156.000839 112.760284,176.358078 
M385.114716,223.670303 
	C386.729370,213.013763 388.575958,202.385941 389.899048,191.693329 
	C391.494751,178.797653 385.907410,169.028061 376.267517,160.773773 
	C358.530792,145.586502 337.792511,140.457230 315.071747,141.561096 
	C309.256897,141.843613 303.472900,142.760406 297.674713,143.385788 
	C314.843597,152.852737 328.629364,165.055099 339.393250,180.705658 
	C350.028931,196.169815 357.601410,212.399048 353.114288,231.988708 
	C350.441437,243.657761 351.254395,255.383179 352.853638,267.200653 
	C354.725769,281.034760 354.416931,294.790924 347.145660,307.455811 
	C346.856201,307.959961 347.252197,308.857635 347.358002,309.843842 
	C357.484985,300.134399 378.893219,251.292206 385.114716,223.670303 
M203.510620,308.018433 
	C209.309937,310.697052 215.041168,313.540497 220.940140,315.977966 
	C223.511154,317.040283 225.077408,315.578094 225.970016,312.837769 
	C227.820206,307.157562 229.495560,301.316345 232.212860,296.041016 
	C242.930405,275.234161 242.046616,253.673996 237.017761,231.795593 
	C235.179749,223.799179 230.239868,220.147507 221.950485,219.959885 
	C212.647461,219.749329 204.453018,223.254089 196.392044,227.399490 
	C193.042709,229.121902 191.868042,231.266800 191.866653,235.196854 
	C191.861969,248.493103 191.563019,261.805542 190.819336,275.080597 
	C190.105103,287.830261 193.654953,298.698181 203.510620,308.018433 
M342.297089,257.087433 
	C343.013031,244.417023 343.728973,231.746597 344.450500,218.977783 
	C341.798065,218.735336 339.317413,218.379379 336.828064,218.301620 
	C317.941864,217.711685 311.198883,225.743958 315.014343,244.233063 
	C315.181122,245.041367 315.414612,245.855942 315.753937,246.605637 
	C322.244720,260.945618 328.720825,275.292480 335.290314,289.596436 
	C336.762268,292.801453 338.576172,295.849396 340.686798,299.825165 
	C341.630402,297.108948 342.354797,295.438385 342.792847,293.695831 
	C345.790436,281.771637 343.849304,269.888702 342.297089,257.087433 
M214.994644,345.702820 
	C209.211166,347.259277 203.427673,348.815735 196.230591,350.752655 
	C197.870544,351.594330 198.289429,351.855804 198.741104,352.034393 
	C211.572586,357.108459 230.281616,357.080444 241.970520,342.664185 
	C245.910980,337.804291 245.646332,332.796783 241.082932,329.189575 
	C237.296570,326.196564 235.235260,326.839630 230.546448,332.569855 
	C226.340881,337.709534 222.541611,343.304749 214.994644,345.702820 
M380.839905,334.438904 
	C383.017487,332.906067 385.195068,331.373260 388.505951,329.042694 
	C386.287598,329.162140 385.628510,329.136932 384.990448,329.240906 
	C372.502808,331.275940 360.120453,333.305298 347.978302,327.014069 
	C346.223633,326.104889 341.743225,327.789459 340.284943,329.652222 
	C338.473419,331.966248 337.967896,335.724731 338.027405,338.837769 
	C338.046570,339.839691 341.583282,341.459320 343.607300,341.626282 
	C356.386627,342.680573 368.770660,341.172943 380.839905,334.438904 
z" class="colorFCFDFD svgShape"></path><path fill="#b3b3b3" d="M111.618683 312.900574C113.418991 315.401031 115.085381 317.822876 116.207901 320.474915 121.65831 333.351868 127.394051 346.072266 136.829422 356.638611 144.734573 365.491272 154.193588 371.452057 166.609131 369.029205 171.670746 368.041443 176.3862 365.279877 181.922134 363.059387 188.485489 369.665314 197.708496 372.333832 207.583969 373.551666 217.501648 374.774689 227.086884 373.525299 236.939453 369.860626 237.639374 380.84848 238.318604 391.511475 238.925095 402.600464 224.142609 402.347931 209.36058 402.366119 194.737793 400.849243 161.889755 397.441742 129.381668 392.045624 98.028976 381.098083 81.784737 375.425995 66.140495 368.500183 52.606777 357.764984 42.998421 350.143433 36.526093 340.604919 36.901131 327.350677 37.333115 312.083893 37.001484 296.795532 37.001484 280.682281 43.058178 284.378601 48.327427 287.879761 53.852989 290.914185 71.966072 300.861084 91.439362 307.328583 111.618683 312.900574zM89.514297 196.826721C88.402054 220.911041 93.986031 243.873276 99.454117 266.853729 99.799553 268.305481 99.971283 269.798523 100.069206 271.668762 83.59716 266.300659 67.666565 259.71875 53.897671 248.936981 43.449673 240.75563 36.339497 230.898254 36.891624 216.623077 37.405899 203.326691 37.001511 189.994797 37.001534 176.678528 37.001534 175.07637 37.001534 173.474213 37.001534 170.669907 53.59219 182.531082 71.142471 190.122253 89.514297 196.826721z" class="color346791 svgShape"></path><path fill="#b3b3b3" d="M341.48645 398.052551C341.496368 391.365814 341.931854 384.64621 342.369263 377.926758 342.732849 372.340881 343.098724 366.755157 343.384918 362.373871 355.142517 360.455627 366.389374 359.779114 376.846405 356.547089 385.169312 353.97467 393.195648 349.149017 400.167358 343.782501 412.57431 334.232269 413.214325 325.039948 403.963013 312.50592 429.739807 305.911041 453.973907 296.116119 476.723846 280.60968 476.834961 282.907501 476.985687 284.603088 476.988098 286.298859 477.007568 299.945068 476.671692 313.60144 477.09259 327.23468 477.500854 340.4599 471.166565 350.128815 461.463318 357.672607 442.318878 372.556519 420.047485 381.020508 396.804657 386.925507 382.049744 390.674072 367.096039 393.650726 352.199768 396.824585 348.838501 397.540741 345.345306 397.637726 341.48645 398.052551zM386.594055 280.002014C390.035889 269.627258 394.57782 259.45871 397.521667 248.846802 401.666931 233.904205 404.623688 218.63208 408.108337 203.505402 408.250977 202.886185 408.59375 202.313034 409.003235 201.349274 420.333038 197.219681 431.835999 194.216095 442.579926 189.487839 453.512695 184.676468 463.694275 178.159744 474.219147 172.416077 474.906097 172.041199 475.715546 171.890778 476.998993 171.456131 476.998993 185.339523 476.220184 198.837021 477.188477 212.208023 478.513977 230.511429 469.826813 242.460281 455.639435 252.200073 438.123413 264.225067 418.470093 271.032043 398.384003 276.958069 394.611206 278.071167 390.783356 278.997711 386.594055 280.002014z" class="color336791 svgShape"></path><path fill="#b3b3b3" d="
M192.616043,217.610275 
	C194.069733,199.589569 198.464798,182.474731 209.125534,167.558762 
	C222.688156,148.582611 242.100647,143.013901 264.139648,145.323166 
	C302.788055,149.372803 327.511200,171.854156 342.771912,206.296158 
	C343.091797,207.018097 343.141724,207.859619 343.243622,208.314911 
	C335.870636,209.239029 328.512665,209.404129 321.579437,211.204742 
	C310.722351,214.024384 305.343994,222.020462 304.950562,233.321426 
	C304.532318,245.336746 308.481750,256.295502 313.272552,266.927673 
	C317.228363,275.706757 321.881470,284.183838 326.472382,292.661072 
	C331.049774,301.113312 335.934265,309.399261 340.964203,318.251068 
	C341.302673,317.617249 341.224243,318.029694 341.023529,318.101898 
	C331.146271,321.652893 329.005096,329.587158 328.032135,339.018890 
	C325.676483,361.854218 323.255005,384.719025 319.634674,407.376160 
	C316.719452,425.620667 304.843170,434.420258 284.551849,435.834961 
	C268.851715,436.929504 256.993347,426.318115 256.119080,409.101410 
	C254.970947,386.492004 254.491165,363.841583 254.121933,341.202271 
	C253.875839,326.113739 249.056381,319.966736 233.744751,317.536835 
	C236.449799,310.650116 238.718124,303.697418 241.839142,297.151276 
	C251.077057,277.775208 251.510071,257.674744 247.511795,237.117035 
	C246.783234,233.371048 246.150894,229.545105 244.850967,225.983521 
	C241.591125,217.052048 235.119141,211.968155 225.549179,210.958160 
	C214.162521,209.756424 203.881866,213.348755 193.370361,218.008331 
	C192.877014,217.876648 192.616043,217.610275 192.616043,217.610275 
z" class="color346891 svgShape"></path><path fill="#b3b3b3" d="
M112.863922,175.983612 
	C120.858315,156.000839 136.434158,147.515350 156.510406,145.929749 
	C174.187637,144.533615 191.261169,147.873688 208.600586,153.417007 
	C207.125381,155.187607 205.882904,156.662277 204.658096,158.151505 
	C192.528107,172.900116 186.428680,190.234268 184.283661,208.843170 
	C182.975098,220.195480 183.496384,231.752151 183.035019,243.210556 
	C182.599930,254.015991 181.936508,264.812073 181.405716,275.613861 
	C180.728729,289.391296 184.756180,301.533722 194.095520,311.802612 
	C195.198593,313.015442 196.355515,314.179352 197.497833,315.376831 
	C188.560684,325.595001 179.969086,335.773254 170.973969,345.581512 
	C164.656845,352.469604 158.806854,352.387054 152.117004,345.635468 
	C142.889313,336.322632 137.710373,324.525787 133.039810,312.587616 
	C120.873787,281.490753 112.631020,249.311478 108.378510,216.218613 
	C106.651001,202.775269 107.926003,189.273666 112.863922,175.983612 
z" class="color346892 svgShape"></path><path fill="#b3b3b3" d="
M385.037476,224.078094 
	C378.893219,251.292206 357.484985,300.134399 347.358002,309.843842 
	C347.252197,308.857635 346.856201,307.959961 347.145660,307.455811 
	C354.416931,294.790924 354.725769,281.034760 352.853638,267.200653 
	C351.254395,255.383179 350.441437,243.657761 353.114288,231.988708 
	C357.601410,212.399048 350.028931,196.169815 339.393250,180.705658 
	C328.629364,165.055099 314.843597,152.852737 297.674713,143.385788 
	C303.472900,142.760406 309.256897,141.843613 315.071747,141.561096 
	C337.792511,140.457230 358.530792,145.586502 376.267517,160.773773 
	C385.907410,169.028061 391.494751,178.797653 389.899048,191.693329 
	C388.575958,202.385941 386.729370,213.013763 385.037476,224.078094 
z" class="color356992 svgShape"></path><path fill="#b3b3b3" d="
M203.241974,307.785126 
	C193.654953,298.698181 190.105103,287.830261 190.819336,275.080597 
	C191.563019,261.805542 191.861969,248.493103 191.866653,235.196854 
	C191.868042,231.266800 193.042709,229.121902 196.392044,227.399490 
	C204.453018,223.254089 212.647461,219.749329 221.950485,219.959885 
	C230.239868,220.147507 235.179749,223.799179 237.017761,231.795593 
	C242.046616,253.673996 242.930405,275.234161 232.212860,296.041016 
	C229.495560,301.316345 227.820206,307.157562 225.970016,312.837769 
	C225.077408,315.578094 223.511154,317.040283 220.940140,315.977966 
	C215.041168,313.540497 209.309937,310.697052 203.241974,307.785126 
M230.405746,234.109894 
	C232.946503,232.023300 234.493332,229.098557 230.868683,227.483704 
	C227.333618,225.908798 222.981155,225.323364 219.092987,225.631943 
	C215.448257,225.921188 214.934250,228.797501 217.160553,231.837097 
	C220.268921,236.081024 224.061172,236.950333 230.405746,234.109894 
z" class="color356892 svgShape"></path><path fill="#b3b3b3" d="
M342.349426,257.546295 
	C343.849304,269.888702 345.790436,281.771637 342.792847,293.695831 
	C342.354797,295.438385 341.630402,297.108948 340.686798,299.825165 
	C338.576172,295.849396 336.762268,292.801453 335.290314,289.596436 
	C328.720825,275.292480 322.244720,260.945618 315.753937,246.605637 
	C315.414612,245.855942 315.181122,245.041367 315.014343,244.233063 
	C311.198883,225.743958 317.941864,217.711685 336.828064,218.301620 
	C339.317413,218.379379 341.798065,218.735336 344.450500,218.977783 
	C343.728973,231.746597 343.013031,244.417023 342.349426,257.546295 
M334.146851,229.583908 
	C334.584167,227.722382 335.021515,225.860840 335.458832,223.999313 
	C331.948578,223.900177 328.385559,223.415054 324.952911,223.883972 
	C323.494446,224.083206 322.142639,226.168365 321.129242,227.659393 
	C320.905884,227.988083 322.142242,229.677078 323.015717,230.318344 
	C326.523071,232.893250 330.088196,232.826477 334.146851,229.583908 
z" class="color376A93 svgShape"></path><path fill="#b3b3b3" d="
M215.358337,345.563660 
	C222.541611,343.304749 226.340881,337.709534 230.546448,332.569855 
	C235.235260,326.839630 237.296570,326.196564 241.082932,329.189575 
	C245.646332,332.796783 245.910980,337.804291 241.970520,342.664185 
	C230.281616,357.080444 211.572586,357.108459 198.741104,352.034393 
	C198.289429,351.855804 197.870544,351.594330 196.230591,350.752655 
	C203.427673,348.815735 209.211166,347.259277 215.358337,345.563660 
z" class="color396B94 svgShape"></path><path fill="#b3b3b3" d="
M380.523376,334.625275 
	C368.770660,341.172943 356.386627,342.680573 343.607300,341.626282 
	C341.583282,341.459320 338.046570,339.839691 338.027405,338.837769 
	C337.967896,335.724731 338.473419,331.966248 340.284943,329.652222 
	C341.743225,327.789459 346.223633,326.104889 347.978302,327.014069 
	C360.120453,333.305298 372.502808,331.275940 384.990448,329.240906 
	C385.628510,329.136932 386.287598,329.162140 388.505951,329.042694 
	C385.195068,331.373260 383.017487,332.906067 380.523376,334.625275 
z" class="color396C94 svgShape"></path><path fill="#b3b3b3" d="
M193.006714,218.010590 
	C192.883087,218.064880 192.629745,217.985245 192.496216,217.757935 
	C192.616043,217.610275 192.877014,217.876648 193.006714,218.010590 
z" class="color346891 svgShape"></path><path fill="#f9fbfc" d="
M230.125946,234.375488 
	C224.061172,236.950333 220.268921,236.081024 217.160553,231.837097 
	C214.934250,228.797501 215.448257,225.921188 219.092987,225.631943 
	C222.981155,225.323364 227.333618,225.908798 230.868683,227.483704 
	C234.493332,229.098557 232.946503,232.023300 230.125946,234.375488 
z" class="colorF9FBFC svgShape"></path><path fill="#f9fafc" d="
M333.842529,229.837021 
	C330.088196,232.826477 326.523071,232.893250 323.015717,230.318344 
	C322.142242,229.677078 320.905884,227.988083 321.129242,227.659393 
	C322.142639,226.168365 323.494446,224.083206 324.952911,223.883972 
	C328.385559,223.415054 331.948578,223.900177 335.458862,223.999298 
	C335.021515,225.860840 334.584167,227.722382 333.842529,229.837021 
z" class="colorF9FAFC svgShape"></path></svg></g></svg>