<svg id="Layer_1" data-name="Layer 1" xmlns="http://www.w3.org/2000/svg" viewBox="0 0 40 40"><defs><style>.cls-1{fill:#fff;}</style></defs><path class="cls-1" d="M7.13,23.26c0,2.31,5.85,4.19,13,4.19s13-1.88,13-4.18h0V19.92c-2.68,2-7.87,2.87-13,2.87s-10.36-.91-13-2.87Z"/><path class="cls-1" d="M33.21,26.44c-2.68,2-7.87,2.88-13,2.88s-10.36-.92-13-2.88v3.81h0c.72,2.09,6.33,3.72,13,3.72s12.32-1.63,13-3.72h0Z"/><path class="cls-1" d="M7.13,16.74c0,2.31,5.85,4.19,13,4.19s13-1.88,13-4.18V13.4c-2.68,2-7.87,2.87-13,2.87s-10.36-.91-13-2.87Z"/><ellipse class="cls-1" cx="20.17" cy="10.22" rx="13.04" ry="4.19"/><path class="cls-1" d="M23.8,15a8.07,8.07,0,0,0-2.13.31l-.05,0a8.2,8.2,0,0,0-1.32-.13,4.33,4.33,0,0,0-2.31.57,9,9,0,0,0-3.27-.51A4,4,0,0,0,12,16.4a4.89,4.89,0,0,0-1.08,3.75,14.43,14.43,0,0,0,.37,2.22,29.76,29.76,0,0,0,.92,3.21,7.19,7.19,0,0,0,1.48,2.65A1.84,1.84,0,0,0,15,28.8a1.67,1.67,0,0,0,1-.43,1.2,1.2,0,0,0,.44.35,2.27,2.27,0,0,0,.52.21,3.67,3.67,0,0,0,1.51.07,2.66,2.66,0,0,0,.67-.2l0,.75a7.17,7.17,0,0,0,.29,2.19A3,3,0,0,0,20,32.87a2.24,2.24,0,0,0,2.16.58,3.14,3.14,0,0,0,2.05-1.18,6.77,6.77,0,0,0,.84-3.71c0-.1,0-.18,0-.26h.15A4.64,4.64,0,0,0,27.37,28a2.92,2.92,0,0,0,1.3-1,1.07,1.07,0,0,0,.18-.5,1,1,0,0,0-.34-.79,1,1,0,0,0-1.06-.15,4.73,4.73,0,0,1-.93.11,17.51,17.51,0,0,0,1.9-4.51,9.6,9.6,0,0,0,.35-2.27,2.65,2.65,0,0,0-.45-1.78A5.55,5.55,0,0,0,23.92,15Zm0,.49a5,5,0,0,1,4.14,1.87,2.32,2.32,0,0,1,.33,1.45A9.4,9.4,0,0,1,27.9,21a17.32,17.32,0,0,1-2.23,5l.12.07a3.26,3.26,0,0,0,1.75,0c.26-.05.44-.09.64.06a.4.4,0,0,1,.14.33.64.64,0,0,1-.1.26,2.74,2.74,0,0,1-1.08.8,4.28,4.28,0,0,1-1.64.32,2.45,2.45,0,0,1-.75-.09h0c-.08.81-.28,2.43-.41,3.17a2.55,2.55,0,0,1-.62,1.41,2.72,2.72,0,0,1-1.46.71,2,2,0,0,1-1.76-.33,2.38,2.38,0,0,1-.65-1,2.72,2.72,0,0,1-.15-.72c0-.3-.06-.68-.08-1.1,0-.65,0-1.3,0-1.95a2.35,2.35,0,0,1-1.2.59,3.2,3.2,0,0,1-1.29-.07,2,2,0,0,1-.4-.16.81.81,0,0,1-.34-.3.45.45,0,0,1,0-.3.44.44,0,0,1,.17-.25,1.36,1.36,0,0,1,.66-.26,1.93,1.93,0,0,0,.86-.29,5,5,0,0,0,.42-.47v0a2.28,2.28,0,0,1-1-.27c-.12.12-.71.74-1.43,1.61a1.44,1.44,0,0,1-1,.59,1.33,1.33,0,0,1-.94-.43,6.76,6.76,0,0,1-1.36-2.46,27.14,27.14,0,0,1-.9-3.13,17.06,17.06,0,0,1-.36-2.14,4.39,4.39,0,0,1,.94-3.37,3.47,3.47,0,0,1,2.39-1,8.47,8.47,0,0,1,3.31.57,3.8,3.8,0,0,1,2.23-.62,5.72,5.72,0,0,1,1.3.17h0c.19-.06.38-.12.57-.16a7.87,7.87,0,0,1,1.6-.2Zm.12.52h-.11a7.21,7.21,0,0,0-1.32.15,5.76,5.76,0,0,1,2.2,1.73,6.69,6.69,0,0,1,.87,1.48,4.68,4.68,0,0,1,.18.51l0,.19a.49.49,0,0,1,0,.11h0c0,.67-.14,1.13-.16,1.78,0,.46.1,1,.13,1.61a3.09,3.09,0,0,1-.4,1.79l.09.11a17,17,0,0,0,2-4.64,9.22,9.22,0,0,0,.32-2,2.09,2.09,0,0,0-.23-1.13A4.45,4.45,0,0,0,23.88,16Zm-3.7.2a3.11,3.11,0,0,0-2.06.69A3.83,3.83,0,0,0,17,18.51a6.44,6.44,0,0,0-.39,1.86h0a4,4,0,0,1,1-.4,2.15,2.15,0,0,1,1.18,0,1.38,1.38,0,0,1,.81,1,5.58,5.58,0,0,1-.43,4.15,7.92,7.92,0,0,0-.26.78l.1,0a1.07,1.07,0,0,1,.42.08,1,1,0,0,1,.54.61,1.29,1.29,0,0,1,.05.21.2.2,0,0,1,0,.1c0,1,0,1.93,0,2.89,0,.41,0,.78.08,1.07a2.93,2.93,0,0,0,.11.58,2,2,0,0,0,.5.79,1.44,1.44,0,0,0,1.32.21,2.2,2.2,0,0,0,1.2-.55,2,2,0,0,0,.48-1.15c.14-.81.42-3.16.46-3.6a1.44,1.44,0,0,1,.14-.79,1,1,0,0,1,.42-.39l.2-.07-.18-.25a3.08,3.08,0,0,1-.52-.85l-.2-.37c-.1-.18-.23-.41-.36-.67A7.91,7.91,0,0,1,23.05,22a1.83,1.83,0,0,1,.21-1.7,2.09,2.09,0,0,1,1.87-.47,1.09,1.09,0,0,0-.09-.25,5.71,5.71,0,0,0-.8-1.37,5,5,0,0,0-4-2Zm-5.12,0h-.29a2.94,2.94,0,0,0-2,.83,3.87,3.87,0,0,0-.79,3,15.75,15.75,0,0,0,.35,2.05,25,25,0,0,0,.88,3.07,6.86,6.86,0,0,0,1.23,2.27.82.82,0,0,0,.56.28.9.9,0,0,0,.61-.4c.45-.54.92-1.07,1.4-1.58a2.7,2.7,0,0,1-.9-2.43,9.44,9.44,0,0,0,.08-1.53c0-.41,0-.68,0-.85h0a7.52,7.52,0,0,1,.46-2.61,4.5,4.5,0,0,1,1-1.63,9,9,0,0,0-2.23-.43Zm9.56,4.07a1.27,1.27,0,0,0-1,.32,1.37,1.37,0,0,0-.1,1.23,7.83,7.83,0,0,0,.67,1.65l.37.67a4.47,4.47,0,0,1,.22.43,1.71,1.71,0,0,0,.14.27,2.59,2.59,0,0,0,.22-1.28c0-.54-.16-1.1-.14-1.66s.15-1.08.16-1.59A3.64,3.64,0,0,0,24.62,20.32Zm-6.35.09a1.84,1.84,0,0,0-.47.06,3.56,3.56,0,0,0-.89.34,1.27,1.27,0,0,0-.27.18l0,0c0,.11,0,.38,0,.78a9.55,9.55,0,0,1-.09,1.61,2,2,0,0,0,1.9,2.41,6.24,6.24,0,0,1,.28-.83,4.89,4.89,0,0,0,.41-3.86.73.73,0,0,0-.48-.64,1.14,1.14,0,0,0-.41-.07Zm6.11.16h.18a.31.31,0,0,1,.1.05.16.16,0,0,1,.06.08h0a.19.19,0,0,1,0,.1.83.83,0,0,1-.08.12.59.59,0,0,1-.3.16A.42.42,0,0,1,24,21a.41.41,0,0,1-.1-.09.31.31,0,0,1-.05-.1.14.14,0,0,1,0-.1.2.2,0,0,1,.09-.06.59.59,0,0,1,.29-.09Zm-6,.13h.13a.88.88,0,0,1,.3.09.39.39,0,0,1,.1.08.17.17,0,0,1,0,.13.23.23,0,0,1-.06.12.27.27,0,0,1-.11.1.46.46,0,0,1-.34.09.54.54,0,0,1-.33-.18L18,21a.32.32,0,0,1,0-.14c0-.08.08-.12.15-.15a1,1,0,0,1,.24,0Zm7,5.66h0l-.28.09a.39.39,0,0,0-.19.17.92.92,0,0,0-.07.51.24.24,0,0,0,.11.06,2.3,2.3,0,0,0,.6.06A4.12,4.12,0,0,0,26.92,27a3.14,3.14,0,0,0,.73-.47h0a3.55,3.55,0,0,1-2.06,0,.79.79,0,0,1-.25-.15Zm-6.2.07h0s-.1,0-.21.15a6.36,6.36,0,0,1-.58.67,2.51,2.51,0,0,1-1.09.38,1.83,1.83,0,0,0-.35.11s0,0,.05.05a1.33,1.33,0,0,0,.28.1A2.57,2.57,0,0,0,18.3,28a1.85,1.85,0,0,0,1.23-.81.37.37,0,0,0,0-.37.59.59,0,0,0-.25-.3.42.42,0,0,0-.16,0Z"/></svg>