<svg id="Layer_1" data-name="Layer 1" xmlns="http://www.w3.org/2000/svg" viewBox="0 0 40 40"><defs><style>.cls-1,.cls-2,.cls-3,.cls-4{fill:#0065a6;}.cls-2{opacity:0.8;}.cls-3{opacity:0.6;}.cls-4{opacity:0.4;}.cls-5{opacity:0.16;}.cls-6{fill:#010101;}</style></defs><polygon class="cls-1" points="32.34 3.29 27.3 9.1 30.54 8.5 30.54 11.63 32.34 10.28 34.15 11.63 34.15 8.5 37.38 9.1 32.34 3.29"/><polygon class="cls-1" points="32.35 11.04 32.34 11.04 32.34 11.04 32.34 11.04 30.54 12.39 30.54 13.54 32.34 12.19 34.15 13.54 34.15 12.39 32.35 11.04 32.35 11.04"/><polygon class="cls-2" points="32.35 12.97 32.34 12.97 32.34 12.97 32.34 12.97 30.54 14.32 30.54 15.47 32.34 14.12 34.15 15.47 34.15 14.32 32.35 12.97 32.35 12.97"/><polygon class="cls-3" points="32.35 14.9 32.34 14.9 32.34 14.9 32.34 14.9 30.54 16.25 30.54 17.4 32.34 16.05 34.15 17.4 34.15 16.25 32.35 14.9 32.35 14.9"/><polygon class="cls-4" points="32.35 16.82 32.34 16.83 32.34 16.82 32.34 16.83 30.54 18.18 30.54 19.33 32.34 17.98 34.15 19.33 34.15 18.18 32.35 16.83 32.35 16.82"/><g class="cls-5"><polygon class="cls-1" points="32.35 16.82 32.34 16.83 32.34 17.98 34.15 19.33 34.15 18.18 32.35 16.83 32.35 16.82"/><polygon class="cls-1" points="32.35 14.9 32.34 14.9 32.34 16.05 34.15 17.4 34.15 16.25 32.35 14.9 32.35 14.9"/><polygon class="cls-1" points="32.35 11.04 32.34 11.04 32.34 12.19 34.15 13.54 34.15 12.39 32.35 11.04 32.35 11.04"/><polygon class="cls-1" points="34.15 11.63 34.15 8.5 37.38 9.1 32.34 3.29 32.34 10.28 34.15 11.63"/><polygon class="cls-1" points="32.35 12.97 32.34 12.97 32.34 14.12 34.15 15.47 34.15 14.32 32.35 12.97 32.35 12.97"/></g><path class="cls-6" d="M21.09,12.29a10.62,10.62,0,0,0-2.85.42l-.06,0a10.51,10.51,0,0,0-1.77-.17,5.8,5.8,0,0,0-3.1.76,12,12,0,0,0-4.38-.68,5.31,5.31,0,0,0-3.66,1.53,6.61,6.61,0,0,0-1.45,5,19.92,19.92,0,0,0,.51,3,34.32,34.32,0,0,0,1.23,4.29,9.4,9.4,0,0,0,2,3.55,2.43,2.43,0,0,0,1.78.77,2.3,2.3,0,0,0,1.35-.57,1.67,1.67,0,0,0,.59.46A2.93,2.93,0,0,0,12,31a5,5,0,0,0,2,.1,3.71,3.71,0,0,0,.9-.28c0,.34,0,.68,0,1a9.62,9.62,0,0,0,.39,2.93,3.73,3.73,0,0,0,.75,1.51A3,3,0,0,0,19,37a4.14,4.14,0,0,0,2.73-1.58c.74-1,1.07-2.54,1.13-5,0-.13,0-.24.06-.34h.19a6.13,6.13,0,0,0,2.81-.49,3.76,3.76,0,0,0,1.73-1.32,1.27,1.27,0,0,0,.25-.67,1.32,1.32,0,0,0-.46-1.05A1.39,1.39,0,0,0,26,26.38a6.57,6.57,0,0,1-1.25.15,23.61,23.61,0,0,0,2.54-6,13.43,13.43,0,0,0,.47-3,3.57,3.57,0,0,0-.6-2.39,7.43,7.43,0,0,0-5.89-2.77ZM21,13a6.7,6.7,0,0,1,5.54,2.5A3,3,0,0,1,27,17.4a12.4,12.4,0,0,1-.44,2.88,23.39,23.39,0,0,1-3,6.71l.16.09a4.39,4.39,0,0,0,2.35,0,.9.9,0,0,1,.85.07.53.53,0,0,1,.19.44.64.64,0,0,1-.14.35A3.45,3.45,0,0,1,25.56,29a5.8,5.8,0,0,1-2.18.43,3.57,3.57,0,0,1-1-.12h0c-.11,1.1-.37,3.26-.54,4.25a3.54,3.54,0,0,1-.83,1.9,3.68,3.68,0,0,1-2,.94,2.66,2.66,0,0,1-2.36-.44,3.27,3.27,0,0,1-.87-1.33,3.75,3.75,0,0,1-.19-1c-.05-.41-.08-.91-.11-1.48,0-.87,0-1.74,0-2.6a3.13,3.13,0,0,1-1.6.78,4.35,4.35,0,0,1-1.73-.09,2.52,2.52,0,0,1-.54-.21,1,1,0,0,1-.45-.41.54.54,0,0,1-.06-.39.62.62,0,0,1,.22-.35,2.07,2.07,0,0,1,.89-.34,2.92,2.92,0,0,0,1.16-.38,8,8,0,0,0,.55-.65v0a3,3,0,0,1-1.37-.37c-.16.17-.95,1-1.92,2.16a1.87,1.87,0,0,1-1.32.79A1.76,1.76,0,0,1,8,29.48a9.37,9.37,0,0,1-1.81-3.29A37,37,0,0,1,5,22a22,22,0,0,1-.49-2.85,5.94,5.94,0,0,1,1.26-4.52A4.65,4.65,0,0,1,9,13.28a11.54,11.54,0,0,1,4.44.76,5.08,5.08,0,0,1,3-.82,7.28,7.28,0,0,1,1.74.22h0a6.61,6.61,0,0,1,.76-.22A10.27,10.27,0,0,1,21,13Zm.16.69h-.15a9.49,9.49,0,0,0-1.76.2,7.71,7.71,0,0,1,2.94,2.33,8.4,8.4,0,0,1,1.17,2,4.75,4.75,0,0,1,.24.68c0,.09,0,.17,0,.25a.42.42,0,0,1,0,.14v0c0,.9-.19,1.52-.22,2.38,0,.63.14,1.36.18,2.17a4.15,4.15,0,0,1-.55,2.39l.12.15a22.55,22.55,0,0,0,2.73-6.22,11.9,11.9,0,0,0,.42-2.72,2.72,2.72,0,0,0-.3-1.51,6,6,0,0,0-4.84-2.24Zm-4.95.27a4.14,4.14,0,0,0-2.76.92A5.08,5.08,0,0,0,12,17a9.14,9.14,0,0,0-.53,2.49h0a5.68,5.68,0,0,1,1.38-.53,2.66,2.66,0,0,1,1.58,0,1.8,1.8,0,0,1,1.08,1.36A7.46,7.46,0,0,1,15,25.9,9.19,9.19,0,0,0,14.64,27l.13,0a1.15,1.15,0,0,1,.56.11,1.42,1.42,0,0,1,.73.81,1.37,1.37,0,0,1,.07.29.59.59,0,0,1,0,.13c0,1.29,0,2.58,0,3.86,0,.56.06,1.05.11,1.44a3.65,3.65,0,0,0,.14.77,2.63,2.63,0,0,0,.68,1.06,1.9,1.9,0,0,0,1.77.3,3,3,0,0,0,1.61-.75,2.79,2.79,0,0,0,.64-1.54c.19-1.08.57-4.23.61-4.82a2,2,0,0,1,.19-1,1.16,1.16,0,0,1,.57-.52,1.3,1.3,0,0,1,.27-.1c-.08-.12-.17-.23-.26-.34a4.47,4.47,0,0,1-.68-1.13c-.09-.17-.17-.34-.27-.5s-.31-.56-.49-.91a11.24,11.24,0,0,1-1-2.36,2.5,2.5,0,0,1,.29-2.28,2.82,2.82,0,0,1,2.51-.63c0-.11-.06-.2-.12-.34a8.29,8.29,0,0,0-1.07-1.82,6.67,6.67,0,0,0-5.32-2.69ZM9.39,14H9a3.92,3.92,0,0,0-2.73,1.11c-.71.75-1.17,2-1.07,4a21.2,21.2,0,0,0,.47,2.74,34.18,34.18,0,0,0,1.18,4.11,9.11,9.11,0,0,0,1.64,3,1.07,1.07,0,0,0,.76.37,1.21,1.21,0,0,0,.82-.53c.6-.73,1.22-1.43,1.87-2.12a3.61,3.61,0,0,1-1.21-3.25,11.75,11.75,0,0,0,.11-2.05c0-.55-.05-.91-.05-1.14v0h0a10.38,10.38,0,0,1,.61-3.49,5.89,5.89,0,0,1,1.37-2.18,11.68,11.68,0,0,0-3-.59ZM22.2,19.42a1.66,1.66,0,0,0-1.3.43,1.81,1.81,0,0,0-.14,1.65,11,11,0,0,0,.9,2.21c.18.34.35.64.49.89a5.59,5.59,0,0,1,.3.57c.06.14.12.26.18.38a3.5,3.5,0,0,0,.29-1.73c0-.72-.2-1.47-.18-2.22s.21-1.45.22-2.13A6.47,6.47,0,0,0,22.2,19.42Zm-8.51.12a2.73,2.73,0,0,0-.64.07,4.84,4.84,0,0,0-1.19.47,2.21,2.21,0,0,0-.36.23l0,0c0,.15,0,.52,0,1.06a14.3,14.3,0,0,1-.12,2.15A2.74,2.74,0,0,0,14,26.77a9.13,9.13,0,0,1,.38-1.11,6.57,6.57,0,0,0,.55-5.18,1,1,0,0,0-.65-.86,1.42,1.42,0,0,0-.54-.08Zm8.18.21h.05l.19,0a.35.35,0,0,1,.14.06.15.15,0,0,1,.08.11h0a.23.23,0,0,1,0,.14.58.58,0,0,1-.11.15.67.67,0,0,1-.4.22.66.66,0,0,1-.43-.1.8.8,0,0,1-.13-.13.27.27,0,0,1-.07-.13A.24.24,0,0,1,21.2,20a.27.27,0,0,1,.12-.09,1,1,0,0,1,.38-.12Zm-8.08.17.17,0a1.17,1.17,0,0,1,.41.12.47.47,0,0,1,.13.11.2.2,0,0,1,.06.18.35.35,0,0,1-.08.16.64.64,0,0,1-.15.13.62.62,0,0,1-.46.12.72.72,0,0,1-.43-.24.66.66,0,0,1-.12-.17.29.29,0,0,1-.05-.18.27.27,0,0,1,.2-.2.69.69,0,0,1,.32,0Zm9.36,7.59h0c-.15.06-.28.08-.38.12a.47.47,0,0,0-.25.23,1.29,1.29,0,0,0-.11.68.48.48,0,0,0,.16.08,2.81,2.81,0,0,0,.8.08,5.45,5.45,0,0,0,1.9-.36,4.24,4.24,0,0,0,1-.64h0a4.92,4.92,0,0,1-2.76,0,1.94,1.94,0,0,1-.34-.21Zm-8.3.1h0c-.05,0-.13,0-.29.19a6.91,6.91,0,0,1-.78.89,3.17,3.17,0,0,1-1.45.52,2.1,2.1,0,0,0-.48.15l.07.06a2,2,0,0,0,.38.14,3.55,3.55,0,0,0,1.44.09,2.46,2.46,0,0,0,1.66-1.08.52.52,0,0,0,0-.49.82.82,0,0,0-.35-.41.65.65,0,0,0-.21-.06Z"/></svg>