<svg width="105" height="98" viewBox="0 0 105 98" fill="none" xmlns="http://www.w3.org/2000/svg">
<path fill-rule="evenodd" clip-rule="evenodd" d="M71.7873 61.2701C76.7095 54.0042 79.2379 45.0519 78.362 35.6313C76.3542 14.0396 57.2231 -1.83646 35.6313 0.171264C14.0395 2.17899 -1.83646 21.3101 0.171265 42.9019C2.17899 64.4937 21.3102 80.3697 42.9019 78.362C52.4732 77.472 60.9214 73.2172 67.1865 66.8748L71.279 70.617C69.1239 73.1763 69.3553 77.0035 71.8472 79.2821L90.1021 95.9743C92.6585 98.3118 96.6257 98.1344 98.9632 95.5781L102.808 91.3737C105.145 88.8174 104.968 84.8501 102.411 82.5126L84.1565 65.8205C81.9247 63.7797 78.6175 63.6559 76.2583 65.3584L71.7873 61.2701ZM68.9306 36.5083C70.454 52.8913 58.4079 67.4073 42.0249 68.9307C25.6419 70.454 11.126 58.4079 9.60258 42.025C8.07919 25.642 20.1253 11.126 36.5083 9.6026C52.8913 8.07922 67.4073 20.1253 68.9306 36.5083ZM48.944 29.3246C48.944 34.5713 44.6907 38.8246 39.444 38.8246C34.1973 38.8246 29.944 34.5713 29.944 29.3246C29.944 24.0779 34.1973 19.8246 39.444 19.8246C44.6907 19.8246 48.944 24.0779 48.944 29.3246ZM53.944 55.3246C53.944 51.479 52.4163 47.7909 49.6971 45.0716C46.9778 42.3523 43.2896 40.8246 39.444 40.8246C35.5984 40.8246 31.9102 42.3523 29.191 45.0716C26.4717 47.7909 24.944 51.479 24.944 55.3246H39.444H53.944Z" fill="#326CE5"/>
</svg>
