<svg width="86" height="110" viewBox="0 0 86 110" fill="none" xmlns="http://www.w3.org/2000/svg">
<path fill-rule="evenodd" clip-rule="evenodd" d="M0 0H65L85 20V110H0V0ZM44.1019 32.3673C50.0521 38.3175 50.8188 47.4882 46.402 54.2684L55.0691 62.9355L57.4026 60.6021C58.6913 59.3133 60.7807 59.3133 62.0695 60.6021C63.3582 61.8908 63.3582 63.9802 62.0695 65.269L59.736 67.6024L61.1361 69.0025L63.4695 66.669C64.7583 65.3803 66.8477 65.3803 68.1365 66.669C69.4252 67.9578 69.4252 70.0472 68.1365 71.3359L65.7563 73.7161C66.6052 74.9974 66.4652 76.7407 65.3363 77.8696L64.8696 78.3363C63.5809 79.625 61.4914 79.625 60.2027 78.3363L41.2684 59.402C34.4882 63.8188 25.3175 63.0521 19.3673 57.1019C12.537 50.2716 12.537 39.1976 19.3673 32.3673C26.1976 25.537 37.2716 25.537 44.1019 32.3673ZM39.9017 52.9017C44.4122 48.3911 44.4122 41.0781 39.9017 36.5675C35.3911 32.0569 28.0781 32.0569 23.5675 36.5675C19.057 41.0781 19.057 48.3911 23.5675 52.9017C28.0781 57.4122 35.3911 57.4122 39.9017 52.9017Z" fill="white"/>
<path d="M84.9993 20.1685L65 19.9993L65.1692 -1.4216e-05L84.9993 20.1685Z" fill="#DBDBDB"/>
</svg>
