<svg width="86" height="110" viewBox="0 0 86 110" fill="none" xmlns="http://www.w3.org/2000/svg">
<path fill-rule="evenodd" clip-rule="evenodd" d="M65 0H0V110H85V20L65 0Z" fill="#326CE5"/>
<path d="M84.9993 20.1685L65 19.9993L65.1692 -1.4216e-05L84.9993 20.1685Z" fill="#CADBFF"/>
<path fill-rule="evenodd" clip-rule="evenodd" d="M46.402 54.2684C50.8188 47.4882 50.0521 38.3175 44.1019 32.3673C37.2716 25.537 26.1976 25.537 19.3673 32.3673C12.537 39.1976 12.537 50.2716 19.3673 57.1019C25.3175 63.0521 34.4882 63.8188 41.2684 59.402L60.2027 78.3363C61.4914 79.625 63.5809 79.625 64.8696 78.3363L65.3363 77.8696C66.4652 76.7407 66.6052 74.9974 65.7563 73.7161L68.1365 71.3359C69.4252 70.0472 69.4252 67.9578 68.1365 66.669C66.8477 65.3803 64.7583 65.3803 63.4695 66.669L61.1361 69.0025L59.736 67.6024L62.0695 65.269C63.3582 63.9802 63.3582 61.8908 62.0695 60.6021C60.7807 59.3133 58.6913 59.3133 57.4026 60.6021L55.0691 62.9355L46.402 54.2684ZM39.9017 36.5675C44.4122 41.0781 44.4122 48.3911 39.9017 52.9017C35.3911 57.4122 28.0781 57.4122 23.5675 52.9017C19.057 48.3911 19.057 41.0781 23.5675 36.5675C28.0781 32.057 35.3911 32.0569 39.9017 36.5675Z" fill="white"/>
</svg>
