<svg width="40" height="40" viewBox="0 0 40 40" xmlns="http://www.w3.org/2000/svg">  <g id="Icon-Architecture/32/Arch_Red-Hat-OpenShift-Service-on-AWS_32" stroke="none" stroke-width="1" fill="none" fill-rule="evenodd">  <g id="Icon-Service/32/Red-Hat-OpenShift-Service-on-AWS_32" transform="translate(5.800000, 6.000000)" fill="#FFFFFF"> <path d="M24.0144267,7.87611345 C23.7904267,7.51511345 23.5444267,7.17511345 23.2784267,6.85711345 L26.5554267,5.49711345 C26.7554267,5.81211345 27.0514267,6.28511345 27.2844267,6.68611345 L24.0144267,7.87611345 Z M21.4804267,14.1371135 C21.4634267,12.8841135 21.1754267,11.6491135 20.6324267,10.5051135 L23.8714267,9.32611345 C24.3764267,10.4701135 24.7014267,11.6741135 24.8394267,12.9161135 L21.4804267,14.1371135 Z M26.9954267,13.1951135 C27.0424267,15.0591135 26.6574267,16.9161135 25.8684267,18.6051135 C23.0354267,24.6821135 15.7874267,27.3171135 9.71142674,24.4871135 C8.01942674,23.6971135 6.52942674,22.5221135 5.36942674,21.0661135 L8.85242674,19.7971135 C9.53242674,20.4441135 10.3074267,20.9741135 11.1634267,21.3731135 C13.2714267,22.3561135 15.6384267,22.4591135 17.8314267,21.6611135 C20.0234267,20.8631135 21.7714267,19.2621135 22.7544267,17.1541135 C23.1544267,16.2981135 23.4004267,15.3951135 23.5044267,14.4651135 L26.9954267,13.1951135 Z M1.10242674,17.6141135 L4.34142674,16.4351135 C4.66042674,17.6571135 5.23342674,18.7891135 6.02842674,19.7621135 L4.39342674,20.3571135 C4.39342674,20.3571135 4.39342674,20.3581135 4.39242674,20.3581135 L2.66842674,20.9851135 C1.97742674,19.9471135 1.45242674,18.8161135 1.10242674,17.6141135 L1.10242674,17.6141135 Z M7.91942674,12.5721135 C7.92442674,12.9471135 7.95342674,13.3241135 8.00842674,13.7001135 L4.72742674,14.8951135 C4.65042674,14.5251135 4.59142674,14.1581135 4.55042674,13.7981135 L7.91942674,12.5721135 Z M19.4924267,10.4731135 C20.2374267,11.8111135 20.5724267,13.3151135 20.4584267,14.8221135 C20.4464267,14.9911135 20.5204267,15.1551135 20.6564267,15.2571135 C20.7434267,15.3241135 20.8504267,15.3591135 20.9574267,15.3591135 C21.0154267,15.3591135 21.0734267,15.3491135 21.1284267,15.3291135 L22.4434267,14.8511135 C22.3274267,15.4981135 22.1304267,16.1271135 21.8484267,16.7301135 C20.9784267,18.5981135 19.4304267,20.0151135 17.4904267,20.7211135 C15.5504267,21.4271135 13.4544267,21.3371135 11.5854267,20.4661135 C10.7414267,20.0721135 9.98542674,19.5361135 9.33742674,18.8711135 C9.20142674,18.7291135 8.99142674,18.6811135 8.80842674,18.7501135 L7.04742674,19.3911135 C6.13142674,18.3691135 5.50042674,17.1331135 5.22342674,15.7781135 L8.74142674,14.4981135 C8.97142674,14.4141135 9.10742674,14.1741135 9.06142674,13.9331135 C8.92942674,13.2511135 8.88842674,12.5621135 8.94042674,11.8881135 C8.95242674,11.7191135 8.87842674,11.5541135 8.74342674,11.4521135 C8.60842674,11.3491135 8.42942674,11.3231135 8.27042674,11.3801135 L7.20242674,11.7691135 C7.31742674,11.1171135 7.51142674,10.4881135 7.78842674,9.89311345 C9.58742674,6.03411345 14.1894267,4.35711345 18.0524267,6.15711345 C18.8824267,6.54411345 19.6374267,7.08211345 20.2954267,7.75611345 C20.4394267,7.90211345 20.6574267,7.94611345 20.8444267,7.86811345 L22.3034267,7.26211345 C22.6434267,7.63411345 22.9434267,8.05511345 23.2124267,8.50211345 L19.7574267,9.76011345 C19.6194267,9.81011345 19.5114267,9.91811345 19.4594267,10.0551135 C19.4094267,10.1921135 19.4204267,10.3451135 19.4924267,10.4731135 L19.4924267,10.4731135 Z M2.63842674,13.4301135 C2.59342674,11.5671135 2.98042674,9.70911345 3.76942674,8.01811345 C6.60242674,1.94211345 13.8524267,-0.695886546 19.9254267,2.13711345 C21.5574267,2.89911345 22.9924267,4.03711345 24.1334267,5.41911345 L20.7674267,6.81711345 C20.0834267,6.16811345 19.3144267,5.64211345 18.4744267,5.25111345 C14.1184267,3.21811345 8.91342674,5.11011345 6.88242674,9.47011345 C6.48942674,10.3141135 6.24542674,11.2181135 6.13942674,12.1561135 L2.63842674,13.4301135 Z M28.4504267,6.74011345 C28.1304267,6.08111345 27.2074267,4.66211345 27.1684267,4.60211345 C27.0364267,4.40011345 26.7774267,4.32011345 26.5584267,4.41311345 L25.1034267,5.01711345 C23.8394267,3.41111345 22.2064267,2.09911345 20.3484267,1.23111345 C13.7754267,-1.83288655 5.92842674,1.02011345 2.86342674,7.59511345 C1.90842674,9.64311345 1.49642674,11.9171135 1.67542674,14.1701135 C1.68742674,14.3261135 1.77242674,14.4671135 1.90342674,14.5511135 C2.03542674,14.6361135 2.19842674,14.6551135 2.34442674,14.6011135 L3.58542674,14.1491135 C3.64742674,14.6081135 3.74242674,15.0781135 3.85542674,15.5481135 L0.328426737,16.8321135 C0.0874267368,16.9191135 -0.0475732632,17.1751135 0.0154267368,17.4231135 C0.420426737,19.0331135 1.11242674,20.5311135 2.06942674,21.8761135 C2.16442674,22.0111135 2.31842674,22.0871135 2.47642674,22.0871135 C2.53442674,22.0871135 2.59142674,22.0771135 2.64742674,22.0571135 L4.40242674,21.4181135 C5.68442674,23.1141135 7.35742674,24.4921135 9.28942674,25.3931135 C11.0824267,26.2291135 12.9694267,26.6251135 14.8284267,26.6251135 C19.7864267,26.6251135 24.5444267,23.8101135 26.7744267,19.0291135 C27.7304267,16.9831135 28.1394267,14.7101135 27.9574267,12.4551135 C27.9464267,12.2991135 27.8614267,12.1581135 27.7304267,12.0741135 C27.5984267,11.9891135 27.4364267,11.9711135 27.2884267,12.0251135 L25.9534267,12.5111135 L25.8044267,12.5651135 C25.6304267,11.2251135 25.2474267,9.92911345 24.6774267,8.69811345 L28.1704267,7.42711345 C28.3034267,7.37911345 28.4104267,7.27611345 28.4624267,7.14611345 C28.5164267,7.01511345 28.5114267,6.86711345 28.4504267,6.74011345 L28.4504267,6.74011345 Z" id="Fill-3"></path> </g> </g></svg>