<svg width="151" height="151" viewBox="0 0 151 151" fill="none" xmlns="http://www.w3.org/2000/svg">
<path d="M44.3774 32.5184C44.3774 29.02 43.1398 26.0332 40.6646 23.558C38.1893 21.0828 35.2025 19.8451 31.7042 19.8451C28.2058 19.8451 25.219 21.0828 22.7438 23.558C20.2685 26.0332 19.0309 29.02 19.0309 32.5184C19.0309 36.0167 20.2685 39.0035 22.7438 41.4788C25.219 43.954 28.2058 45.1917 31.7042 45.1917C35.2025 45.1917 38.1893 43.954 40.6646 41.4788C43.1398 39.0035 44.3774 36.0167 44.3774 32.5184ZM150.021 89.5481C150.021 93.0464 148.8 96.0167 146.358 98.459L97.7438 147.172C95.1695 149.614 92.1662 150.835 88.7339 150.835C85.2355 150.835 82.2652 149.614 79.823 147.172L9.0309 76.2808C6.52265 73.8385 4.39393 70.5052 2.64476 66.2808C0.895584 62.0563 0.0209961 58.195 0.0209961 54.6966V13.5085C0.0209961 10.0761 1.27512 7.10586 3.78337 4.59761C6.29162 2.08936 9.26192 0.83522 12.6943 0.83522H53.8824C57.3807 0.83522 61.2421 1.70981 65.4665 3.45898C69.691 5.20816 73.0573 7.33687 75.5655 9.84512L146.358 80.5382C148.8 83.1124 150.021 86.1157 150.021 89.5481Z" fill="url(#paint0_linear_23367_9470)"/>
<g clip-path="url(#clip0_23367_9470)" filter="url(#filter0_d_23367_9470)">
<path fill-rule="evenodd" clip-rule="evenodd" d="M55.625 101.75C55 101.75 54.375 101.5 54 101L48.625 95C48.25 94.625 48 94 48 93.375C48 92.125 49 91.25 50.25 91.25H52.125V59.5C52.125 56.625 54.5 54.25 57.5 54.25H98.625C101.5 54.25 104 56.625 104 59.625V91.375H105.875H106C106.875 91.375 107.625 91.875 108 92.75V92.875C108.25 93.625 108.125 94.5 107.625 95.125L102.625 101.25C102.125 101.75 101.5 102 100.875 102H55.625V101.75ZM99.75 97.25L101.125 95.5H55.125L56.625 97.25H99.75ZM99.375 91.125V59.5C99.375 59 99 58.5 98.5 58.5H57.5C57 58.5 56.625 59 56.625 59.5V91.125H99.375ZM62.5 84.625L61 83.125V81.375L71.25 71.125C71.625 70.75 72.25 70.5 72.875 70.5C73.375 70.5 74 70.75 74.375 71.125L79 75.75L88 66.75H84.125L82.875 65.5V63.5L84.125 62.25H93.375C94.625 62.25 95.625 63.25 95.625 64.5V73.75L94.375 75H92.375L91.125 73.75V69.875L80.625 80.5C80.25 80.875 79.625 81.125 79 81.125C78.5 81.125 77.875 80.875 77.5 80.5L72.875 75.875L64.125 84.625H62.5Z" fill="white"/>
<path fill-rule="evenodd" clip-rule="evenodd" d="M95.125 63V72.625H93V65.625L79.875 78.75C79.5 79.125 78.875 79.125 78.375 78.75L72.75 73.125L62.75 83.125L61.25 81.625L72 70.875C72.375 70.5 73 70.5 73.5 70.875L79.125 76.5L91.5 64.125H84.5V62H94.125C94.625 62 95.125 62.375 95.125 63ZM101.25 98.375H55.125L51.5 94.125H104.75L101.25 98.375ZM54.5 57.75C54.5 56.5 55.375 55.5 56.625 55.5H99.5C100.75 55.625 101.625 56.625 101.625 57.75V91.875H54.5V57.75ZM108 92.625C107.875 92.25 107.375 92 106.875 92H103.625V57.75C103.625 55.375 101.75 53.5 99.375 53.5H56.625C54.25 53.5 52.25 55.375 52.25 57.75V92H49.125C48.5 92 48 92.5 48 93.125C48 93.375 48.125 93.625 48.25 93.875L53.875 100.125C54.125 100.375 54.375 100.5 54.625 100.5H101.75C102.125 100.5 102.375 100.375 102.625 100.125L107.75 93.875C108 93.5 108.125 93 108 92.625Z" fill="white"/>
</g>
<defs>
<filter id="filter0_d_23367_9470" x="46" y="45" width="62" height="62" filterUnits="userSpaceOnUse" color-interpolation-filters="sRGB">
<feFlood flood-opacity="0" result="BackgroundImageFix"/>
<feColorMatrix in="SourceAlpha" type="matrix" values="0 0 0 0 0 0 0 0 0 0 0 0 0 0 0 0 0 0 127 0" result="hardAlpha"/>
<feOffset dx="-1" dy="-1"/>
<feGaussianBlur stdDeviation="0.5"/>
<feComposite in2="hardAlpha" operator="out"/>
<feColorMatrix type="matrix" values="0 0 0 0 0 0 0 0 0 0 0 0 0 0 0 0 0 0 0.25 0"/>
<feBlend mode="normal" in2="BackgroundImageFix" result="effect1_dropShadow_23367_9470"/>
<feBlend mode="normal" in="SourceGraphic" in2="effect1_dropShadow_23367_9470" result="shape"/>
</filter>
<linearGradient id="paint0_linear_23367_9470" x1="123.021" y1="123" x2="0.0209916" y2="1.00001" gradientUnits="userSpaceOnUse">
<stop stop-color="#51636B"/>
<stop offset="1" stop-color="#51636B" stop-opacity="0.6"/>
</linearGradient>
<clipPath id="clip0_23367_9470">
<rect width="60" height="60" fill="white" transform="translate(48 47)"/>
</clipPath>
</defs>
</svg>
