<svg width="150" height="151" viewBox="0 0 150 151" fill="none" xmlns="http://www.w3.org/2000/svg">
<path d="M44.3564 32.5184C44.3564 29.02 43.1188 26.0332 40.6436 23.558C38.1683 21.0828 35.1815 19.8451 31.6832 19.8451C28.1848 19.8451 25.198 21.0828 22.7228 23.558C20.2475 26.0332 19.0099 29.02 19.0099 32.5184C19.0099 36.0167 20.2475 39.0035 22.7228 41.4788C25.198 43.954 28.1848 45.1917 31.6832 45.1917C35.1815 45.1917 38.1683 43.954 40.6436 41.4788C43.1188 39.0035 44.3564 36.0167 44.3564 32.5184ZM150 89.5481C150 93.0464 148.779 96.0167 146.337 98.459L97.7228 147.172C95.1485 149.614 92.1452 150.835 88.7129 150.835C85.2145 150.835 82.2442 149.614 79.802 147.172L9.0099 76.2808C6.50165 73.8385 4.37294 70.5052 2.62376 66.2808C0.874588 62.0563 0 58.195 0 54.6966V13.5085C0 10.0761 1.25413 7.10586 3.76238 4.59761C6.27063 2.08936 9.24092 0.83522 12.6733 0.83522H53.8614C57.3597 0.83522 61.2211 1.70981 65.4455 3.45898C69.67 5.20816 73.0363 7.33687 75.5445 9.84512L146.337 80.5382C148.779 83.1124 150 86.1157 150 89.5481Z" fill="url(#paint0_linear_23369_10129)"/>
<path fill-rule="evenodd" clip-rule="evenodd" d="M51.5238 100.878C50.8568 100.878 50.1899 100.344 49.7897 99.8108L44.0541 93.4083C43.654 93.0081 43.3872 92.3412 43.3872 91.6743C43.3872 90.3404 44.4543 89.4067 45.7882 89.4067H47.7889V55.5267C47.7889 52.4588 50.3233 49.9244 53.5245 49.9244H97.4086C100.476 49.9244 103.144 52.4588 103.144 55.66V89.5401H105.145H105.278C106.212 89.5401 107.012 90.0736 107.413 91.0073L107.427 91.0449C107.694 91.8452 107.546 92.8747 107.012 93.5417L101.677 100.078C101.143 100.611 100.476 100.878 99.8095 100.878H51.5238ZM98.609 95.8092L100.076 93.9418H50.9902L52.5908 95.8092H98.609ZM98.2089 89.2733V55.5267C98.2089 54.9931 97.8087 54.4596 97.2752 54.4596H53.5245C52.991 54.4596 52.5908 54.9931 52.5908 55.5267V89.2733H98.2089Z" fill="#FBFBFB"/>
<path opacity="0.8" fill-rule="evenodd" clip-rule="evenodd" d="M59.7269 82.3373C59.1718 82.3373 58.6394 82.1168 58.2468 81.7242L57.9195 81.3969C57.4968 80.9741 57.2593 80.4008 57.2593 79.8029V79.8029C57.2593 79.2051 57.4968 78.6318 57.9195 78.209L68.1969 67.9316C68.5971 67.5314 69.264 67.2647 69.931 67.2647C70.4645 67.2647 71.1314 67.5314 71.5316 67.9316L76.4669 72.8669L86.0707 63.2631H79.8789C79.275 63.2631 78.6958 63.0232 78.2688 62.5961V62.5961C77.8417 62.1691 77.6018 61.5899 77.6018 60.986V60.7382C77.6018 60.1343 77.8417 59.5551 78.2688 59.1281V59.1281C78.6958 58.7011 79.275 58.4612 79.8789 58.4612H91.8063C93.1401 58.4612 94.2072 59.5283 94.2072 60.8621V72.7895C94.2072 73.3934 93.9673 73.9726 93.5403 74.3996V74.3996C93.1133 74.8267 92.5341 75.0666 91.9302 75.0666H91.6824C91.0784 75.0666 90.4993 74.8267 90.0722 74.3996V74.3996C89.6452 73.9726 89.4053 73.3934 89.4053 72.7895V66.5977L78.2009 77.9355C77.8007 78.3357 77.1338 78.6025 76.4669 78.6025C75.9333 78.6025 75.2664 78.3357 74.8662 77.9355L69.931 73.0003L61.207 81.7242C60.8145 82.1168 60.2821 82.3373 59.7269 82.3373V82.3373Z" fill="#FBFBFB"/>
<defs>
<linearGradient id="paint0_linear_23369_10129" x1="123" y1="123" x2="-4.52051e-06" y2="1.00001" gradientUnits="userSpaceOnUse">
<stop stop-color="#51636B"/>
<stop offset="1" stop-color="#51636B" stop-opacity="0.6"/>
</linearGradient>
</defs>
</svg>
