<svg width="151" height="151" viewBox="0 0 151 151" fill="none" xmlns="http://www.w3.org/2000/svg">
<path d="M44.3774 32.5184C44.3774 29.02 43.1398 26.0332 40.6646 23.558C38.1893 21.0828 35.2025 19.8451 31.7042 19.8451C28.2058 19.8451 25.219 21.0828 22.7438 23.558C20.2685 26.0332 19.0309 29.02 19.0309 32.5184C19.0309 36.0167 20.2685 39.0035 22.7438 41.4788C25.219 43.954 28.2058 45.1917 31.7042 45.1917C35.2025 45.1917 38.1893 43.954 40.6646 41.4788C43.1398 39.0035 44.3774 36.0167 44.3774 32.5184ZM150.021 89.5481C150.021 93.0464 148.8 96.0167 146.358 98.459L97.7438 147.172C95.1695 149.614 92.1662 150.835 88.7339 150.835C85.2355 150.835 82.2652 149.614 79.823 147.172L9.0309 76.2808C6.52265 73.8385 4.39393 70.5052 2.64476 66.2808C0.895584 62.0563 0.0209961 58.195 0.0209961 54.6966V13.5085C0.0209961 10.0761 1.27512 7.10586 3.78337 4.59761C6.29162 2.08936 9.26192 0.83522 12.6943 0.83522H53.8824C57.3807 0.83522 61.2421 1.70981 65.4665 3.45898C69.691 5.20816 73.0573 7.33687 75.5655 9.84512L146.358 80.5382C148.8 83.1124 150.021 86.1157 150.021 89.5481Z" fill="url(#paint0_linear_23367_9472)"/>
<defs>
<linearGradient id="paint0_linear_23367_9472" x1="123.021" y1="123" x2="0.0209916" y2="1.00001" gradientUnits="userSpaceOnUse">
<stop stop-color="#51636B"/>
<stop offset="1" stop-color="#51636B" stop-opacity="0.6"/>
</linearGradient>
</defs>
</svg>
