<?xml version="1.0" encoding="utf-8"?>
<!-- Generator: Adobe Illustrator 25.3.1, SVG Export Plug-In . SVG Version: 6.00 Build 0)  -->
<svg version="1.1" id="Layer_1" xmlns="http://www.w3.org/2000/svg" xmlns:xlink="http://www.w3.org/1999/xlink" x="0px" y="0px"
	 width="48px" height="48px" viewBox="0 0 48 48" style="enable-background:new 0 0 48 48;" xml:space="preserve">
<style type="text/css">
	.st0{fill-rule:evenodd;clip-rule:evenodd;fill:#FFFFFF;}
</style>
<path class="st0" d="M6.1,43c-0.5,0-1-0.2-1.3-0.6l-4.3-4.8C0.2,37.3,0,36.8,0,36.3c0-1,0.8-1.7,1.8-1.7l1.5,0V9.2
	C3.3,6.9,5.2,5,7.6,5h32.9c2.3,0,4.3,1.9,4.3,4.3v25.4h1.5l0.1,0c0.7,0,1.3,0.4,1.6,1.1l0,0.1c0.2,0.6,0.1,1.3-0.3,1.8l-4,4.9
	c-0.4,0.4-0.9,0.6-1.4,0.6H6.1z M41.4,39.4l1.1-1.4H5.7l1.2,1.4H41.4z M41.1,34.5V9.2c0-0.4-0.3-0.8-0.7-0.8l-32.8,0
	c-0.4,0-0.7,0.4-0.7,0.8v25.3H41.1z M11.6,29.3l-1.2-1.2v-1.4l8.2-8.2c0.3-0.3,0.8-0.5,1.3-0.5c0.4,0,0.9,0.2,1.2,0.5l3.7,3.7L32,15
	h-3.1l-1-1v-1.6l1-1h7.4c1,0,1.8,0.8,1.8,1.8v7.4l-1,1h-1.6l-1-1v-3.1L26.1,26c-0.3,0.3-0.8,0.5-1.3,0.5c-0.4,0-0.9-0.2-1.2-0.5
	l-3.7-3.7l-7,7L11.6,29.3z"/>
<path id="Analytics_Category-Icon" class="st0" d="M37.7,12.8v7.7H36v-5.6L25.5,25.4c-0.3,0.3-0.8,0.3-1.2,0c0,0,0,0,0,0l-4.5-4.5
	l-8,8l-1.2-1.2l8.6-8.6c0.3-0.3,0.8-0.3,1.2,0c0,0,0,0,0,0l4.5,4.5l9.9-9.9h-5.6V12h7.7C37.3,12,37.7,12.3,37.7,12.8z M42.6,41.1
	H5.7l-2.9-3.4h42.6L42.6,41.1z M5.2,8.6c0-1,0.7-1.8,1.7-1.8h34.3c1,0.1,1.7,0.9,1.7,1.8v27.3H5.2V8.6z M48,36.5
	c-0.1-0.3-0.5-0.5-0.9-0.5h-2.6V8.6c0-1.9-1.5-3.4-3.4-3.4H6.9C5,5.2,3.4,6.7,3.4,8.6V36H0.9C0.4,36,0,36.4,0,36.9
	c0,0.2,0.1,0.4,0.2,0.6l4.5,5c0.2,0.2,0.4,0.3,0.6,0.3H43c0.3,0,0.5-0.1,0.7-0.3l4.1-5C48,37.2,48.1,36.8,48,36.5L48,36.5z"/>
</svg>
