<svg width="150" height="151" viewBox="0 0 150 151" fill="none" xmlns="http://www.w3.org/2000/svg">
<path d="M44.3564 32.5184C44.3564 29.02 43.1188 26.0332 40.6436 23.558C38.1683 21.0827 35.1815 19.8451 31.6832 19.8451C28.1848 19.8451 25.198 21.0827 22.7228 23.558C20.2475 26.0332 19.0099 29.02 19.0099 32.5184C19.0099 36.0167 20.2475 39.0035 22.7228 41.4788C25.198 43.954 28.1848 45.1917 31.6832 45.1917C35.1815 45.1917 38.1683 43.954 40.6436 41.4788C43.1188 39.0035 44.3564 36.0167 44.3564 32.5184ZM150 89.5481C150 93.0464 148.779 96.0167 146.337 98.459L97.7228 147.172C95.1485 149.614 92.1452 150.835 88.7129 150.835C85.2145 150.835 82.2442 149.614 79.802 147.172L9.0099 76.2808C6.50165 73.8385 4.37294 70.5052 2.62376 66.2808C0.874588 62.0563 0 58.195 0 54.6966V13.5085C0 10.0761 1.25413 7.10586 3.76238 4.59761C6.27063 2.08936 9.24092 0.835223 12.6733 0.835223H53.8614C57.3597 0.835223 61.2211 1.70981 65.4455 3.45898C69.67 5.20816 73.0363 7.33688 75.5445 9.84513L146.337 80.5382C148.779 83.1124 150 86.1157 150 89.5481Z" fill="url(#paint0_linear_11952_34739)"/>
<g clip-path="url(#clip0_11952_34739)">
<g filter="url(#filter0_d_11952_34739)">
<path d="M97.05 69.9552C96.0423 64.8484 93.2928 60.2498 89.2712 56.9449C85.2496 53.6401 80.2053 51.834 75 51.8352C66.33 51.8352 58.8 56.7552 55.05 63.9552C50.6407 64.4317 46.563 66.5208 43.6005 69.8212C40.6379 73.1215 38.9995 77.4002 39 81.8352C39 91.7652 47.07 99.8352 57 99.8352H96C104.28 99.8352 111 93.1152 111 84.8352C111 76.9152 104.85 70.4952 97.05 69.9552Z" fill="#FBFBFB"/>
</g>
<mask id="mask0_11952_34739" style="mask-type:alpha" maskUnits="userSpaceOnUse" x="63" y="63" width="24" height="26">
<rect x="63" y="66.468" width="9.82648" height="10.0356" rx="1.5" fill="#CCCCCC"/>
<rect x="63" y="78.5944" width="9.82648" height="10.0356" rx="1.5" fill="#CCCCCC"/>
<rect x="73.4353" y="69.9484" width="9.82648" height="10.0356" rx="1.5" transform="rotate(-45 73.4353 69.9484)" fill="#CCCCCC"/>
<rect x="75.3354" y="78.5944" width="9.82648" height="10.0356" rx="1.5" fill="#CCCCCC"/>
</mask>
<g mask="url(#mask0_11952_34739)">
<path d="M44.0546 32.1931C44.0546 28.6947 42.817 25.7079 40.3417 23.2327C37.8665 20.7574 34.8797 19.5198 31.3813 19.5198C27.883 19.5198 24.8962 20.7574 22.4209 23.2327C19.9457 25.7079 18.7081 28.6947 18.7081 32.1931C18.7081 35.6914 19.9457 38.6782 22.4209 41.1535C24.8962 43.6287 27.883 44.8663 31.3813 44.8663C34.8797 44.8663 37.8665 43.6287 40.3417 41.1535C42.817 38.6782 44.0546 35.6914 44.0546 32.1931ZM149.698 89.2228C149.698 92.7211 148.477 95.6914 146.035 98.1337L97.4209 146.847C94.8467 149.289 91.8434 150.51 88.411 150.51C84.9127 150.51 81.9424 149.289 79.5001 146.847L8.70807 75.9555C6.19982 73.5132 4.0711 70.1799 2.32193 65.9555C0.572753 61.731 -0.301835 57.8696 -0.301835 54.3713V13.1832C-0.301835 9.75084 0.95229 6.78056 3.46054 4.27231C5.96879 1.76406 8.93909 0.509918 12.3714 0.509918H53.5595C57.0579 0.509918 60.9193 1.38451 65.1437 3.13368C69.3681 4.88286 72.7345 7.01157 75.2427 9.51982L146.035 80.2129C148.477 82.7871 149.698 85.7904 149.698 89.2228Z" fill="url(#paint1_linear_11952_34739)"/>
</g>
</g>
<defs>
<filter id="filter0_d_11952_34739" x="38" y="49.8352" width="74" height="50" filterUnits="userSpaceOnUse" color-interpolation-filters="sRGB">
<feFlood flood-opacity="0" result="BackgroundImageFix"/>
<feColorMatrix in="SourceAlpha" type="matrix" values="0 0 0 0 0 0 0 0 0 0 0 0 0 0 0 0 0 0 127 0" result="hardAlpha"/>
<feOffset dy="-1"/>
<feGaussianBlur stdDeviation="0.5"/>
<feComposite in2="hardAlpha" operator="out"/>
<feColorMatrix type="matrix" values="0 0 0 0 0.317647 0 0 0 0 0.388235 0 0 0 0 0.419608 0 0 0 0.75 0"/>
<feBlend mode="normal" in2="BackgroundImageFix" result="effect1_dropShadow_11952_34739"/>
<feBlend mode="normal" in="SourceGraphic" in2="effect1_dropShadow_11952_34739" result="shape"/>
</filter>
<linearGradient id="paint0_linear_11952_34739" x1="123" y1="123" x2="-4.52051e-06" y2="1.00001" gradientUnits="userSpaceOnUse">
<stop stop-color="#51636B"/>
<stop offset="1" stop-color="#51636B" stop-opacity="0.6"/>
</linearGradient>
<linearGradient id="paint1_linear_11952_34739" x1="122.698" y1="122.675" x2="-0.301762" y2="0.674693" gradientUnits="userSpaceOnUse">
<stop stop-color="#51636B"/>
<stop offset="1" stop-color="#51636B" stop-opacity="0.6"/>
</linearGradient>
<clipPath id="clip0_11952_34739">
<rect width="72" height="72" fill="white" transform="translate(39 39.8352)"/>
</clipPath>
</defs>
</svg>
