<svg width="150" height="151" viewBox="0 0 150 151" fill="none" xmlns="http://www.w3.org/2000/svg">
<path d="M44.3564 32.5184C44.3564 29.02 43.1188 26.0332 40.6436 23.558C38.1683 21.0827 35.1815 19.8451 31.6832 19.8451C28.1848 19.8451 25.198 21.0827 22.7228 23.558C20.2475 26.0332 19.0099 29.02 19.0099 32.5184C19.0099 36.0167 20.2475 39.0035 22.7228 41.4788C25.198 43.954 28.1848 45.1917 31.6832 45.1917C35.1815 45.1917 38.1683 43.954 40.6436 41.4788C43.1188 39.0035 44.3564 36.0167 44.3564 32.5184ZM150 89.5481C150 93.0464 148.779 96.0167 146.337 98.459L97.7228 147.172C95.1485 149.614 92.1452 150.835 88.7129 150.835C85.2145 150.835 82.2442 149.614 79.802 147.172L9.0099 76.2808C6.50165 73.8385 4.37294 70.5052 2.62376 66.2808C0.874588 62.0563 0 58.195 0 54.6966V13.5085C0 10.0761 1.25413 7.10586 3.76238 4.59761C6.27063 2.08936 9.24092 0.835223 12.6733 0.835223H53.8614C57.3597 0.835223 61.2211 1.70981 65.4455 3.45898C69.67 5.20816 73.0363 7.33688 75.5445 9.84513L146.337 80.5382C148.779 83.1124 150 86.1157 150 89.5481Z" fill="url(#paint0_linear_10906_34091)"/>
<path opacity="0.8" d="M75 82.0001C77.2778 82.0001 80.1244 81.7634 83.54 81.2901C86.9578 80.819 90.25 80.0556 93.4167 79.0001C96.5833 77.9445 99.3056 76.5701 101.583 74.8767C103.861 73.1812 105 71.1112 105 68.6667V77.0001C105 79.4445 103.861 81.5145 101.583 83.2101C99.3056 84.9034 96.5833 86.2779 93.4167 87.3334C90.25 88.389 86.9578 89.1523 83.54 89.6234C80.1244 90.0967 77.2778 90.3334 75 90.3334C72.7222 90.3334 69.8756 90.0967 66.46 89.6234C63.0422 89.1523 59.75 88.389 56.5833 87.3334C53.4167 86.2779 50.6944 84.9034 48.4167 83.2101C46.1389 81.5145 45 79.4445 45 77.0001V68.6667C45 71.1112 46.1389 73.1812 48.4167 74.8767C50.6944 76.5701 53.4167 77.9445 56.5833 79.0001C59.75 80.0556 63.0422 80.819 66.46 81.2901C69.8756 81.7634 72.7222 82.0001 75 82.0001Z" fill="#FBFBFB"/>
<path d="M75 73.6667C83.3333 73.6667 90.4167 72.3611 96.25 69.75C102.083 67.1389 105 64 105 60.3333C105 56.6667 102.083 53.5278 96.25 50.9167C90.4167 48.3056 83.3333 47 75 47C66.6667 47 59.5833 48.3056 53.75 50.9167C47.9167 53.5278 45 56.6667 45 60.3333C45 64 47.9167 67.1389 53.75 69.75C59.5833 72.3611 66.6667 73.6667 75 73.6667ZM75 98.6667C77.2778 98.6667 80.1244 98.4311 83.54 97.96C86.9578 97.4867 90.25 96.7222 93.4167 95.6667C96.5833 94.6111 99.3056 93.2367 101.583 91.5433C103.861 89.8478 105 87.7778 105 85.3333V93.6667C105 96.1111 103.861 98.1811 101.583 99.8767C99.3056 101.57 96.5833 102.944 93.4167 104C90.25 105.056 86.9578 105.82 83.54 106.293C80.1244 106.764 77.2778 107 75 107C72.7222 107 69.8756 106.764 66.46 106.293C63.0422 105.82 59.75 105.056 56.5833 104C53.4167 102.944 50.6944 101.57 48.4167 99.8767C46.1389 98.1811 45 96.1111 45 93.6667V85.3333C45 87.7778 46.1389 89.8478 48.4167 91.5433C50.6944 93.2367 53.4167 94.6111 56.5833 95.6667C59.75 96.7222 63.0422 97.4867 66.46 97.96C69.8756 98.4311 72.7222 98.6667 75 98.6667Z" fill="#FBFBFB"/>
<defs>
<linearGradient id="paint0_linear_10906_34091" x1="123" y1="123" x2="-4.52051e-06" y2="1.00001" gradientUnits="userSpaceOnUse">
<stop stop-color="#51636B"/>
<stop offset="1" stop-color="#51636B" stop-opacity="0.6"/>
</linearGradient>
</defs>
</svg>
