<svg width="150" height="151" viewBox="0 0 150 151" fill="none" xmlns="http://www.w3.org/2000/svg">
<path d="M44.3564 32.5184C44.3564 29.02 43.1188 26.0332 40.6436 23.558C38.1683 21.0828 35.1815 19.8451 31.6832 19.8451C28.1848 19.8451 25.198 21.0828 22.7228 23.558C20.2475 26.0332 19.0099 29.02 19.0099 32.5184C19.0099 36.0167 20.2475 39.0035 22.7228 41.4788C25.198 43.954 28.1848 45.1917 31.6832 45.1917C35.1815 45.1917 38.1683 43.954 40.6436 41.4788C43.1188 39.0035 44.3564 36.0167 44.3564 32.5184ZM150 89.5481C150 93.0464 148.779 96.0167 146.337 98.459L97.7228 147.172C95.1485 149.614 92.1452 150.835 88.7129 150.835C85.2145 150.835 82.2442 149.614 79.802 147.172L9.0099 76.2808C6.50165 73.8385 4.37294 70.5052 2.62376 66.2808C0.874588 62.0563 0 58.195 0 54.6966V13.5085C0 10.0761 1.25413 7.10586 3.76238 4.59761C6.27063 2.08936 9.24092 0.83522 12.6733 0.83522H53.8614C57.3597 0.83522 61.2211 1.70981 65.4455 3.45898C69.67 5.20816 73.0363 7.33687 75.5445 9.84512L146.337 80.5382C148.779 83.1124 150 86.1157 150 89.5481Z" fill="url(#paint0_linear_10906_34053)"/>
<line opacity="0.8" x1="68.8" y1="107" x2="68.8" y2="89" stroke="#FBFBFB" stroke-width="2" stroke-linecap="round"/>
<line opacity="0.8" x1="72.8" y1="107" x2="72.8" y2="89" stroke="#FBFBFB" stroke-width="2" stroke-linecap="round"/>
<line opacity="0.8" x1="76.8" y1="107" x2="76.8" y2="89" stroke="#FBFBFB" stroke-width="2" stroke-linecap="round"/>
<line opacity="0.8" x1="80.8" y1="107" x2="80.8" y2="89" stroke="#FBFBFB" stroke-width="2" stroke-linecap="round"/>
<line opacity="0.8" x1="68.8" y1="59" x2="68.8" y2="41" stroke="#FBFBFB" stroke-width="2" stroke-linecap="round"/>
<line opacity="0.8" x1="72.8" y1="59" x2="72.8" y2="41" stroke="#FBFBFB" stroke-width="2" stroke-linecap="round"/>
<line opacity="0.8" x1="76.8" y1="59" x2="76.8" y2="41" stroke="#FBFBFB" stroke-width="2" stroke-linecap="round"/>
<line opacity="0.8" x1="80.8" y1="59" x2="80.8" y2="41" stroke="#FBFBFB" stroke-width="2" stroke-linecap="round"/>
<g opacity="0.8">
<line x1="41" y1="67.1467" x2="59" y2="67.1467" stroke="#FBFBFB" stroke-width="2" stroke-linecap="round"/>
<line x1="41" y1="71.1467" x2="59" y2="71.1467" stroke="#FBFBFB" stroke-width="2" stroke-linecap="round"/>
<line x1="41" y1="75.1467" x2="59" y2="75.1467" stroke="#FBFBFB" stroke-width="2" stroke-linecap="round"/>
<line x1="41" y1="79.1467" x2="59" y2="79.1467" stroke="#FBFBFB" stroke-width="2" stroke-linecap="round"/>
</g>
<line opacity="0.8" x1="91" y1="67" x2="109" y2="67" stroke="#FBFBFB" stroke-width="2" stroke-linecap="round"/>
<line opacity="0.8" x1="91" y1="71" x2="109" y2="71" stroke="#FBFBFB" stroke-width="2" stroke-linecap="round"/>
<line opacity="0.8" x1="91" y1="75" x2="109" y2="75" stroke="#FBFBFB" stroke-width="2" stroke-linecap="round"/>
<line opacity="0.8" x1="91" y1="79" x2="109" y2="79" stroke="#FBFBFB" stroke-width="2" stroke-linecap="round"/>
<rect x="48" y="47" width="54" height="54" rx="4" fill="#FBFBFB"/>
<path d="M66.1111 57.522C67.6364 56.334 69.6311 55.6777 71.6129 55.6777C72.7991 55.6777 73.7579 56.0847 74.4858 56.7318C74.6819 56.906 74.8561 57.0948 75.0119 57.2892C75.1678 57.0948 75.3419 56.906 75.5381 56.7318C76.2659 56.0847 77.2248 55.6777 78.4109 55.6777C80.3928 55.6777 82.3893 56.334 83.9109 57.522C85.0989 58.4442 86.0284 59.7183 86.3933 61.2565C87.1633 61.3848 87.8471 61.7772 88.4008 62.296C89.2808 63.1228 89.9096 64.3182 90.3038 65.5483C90.7053 66.7968 90.9051 68.1993 90.8446 69.5468C90.8134 70.2362 90.7126 70.9402 90.5201 71.613L90.6393 71.668C91.3176 71.987 91.8676 72.4875 92.2801 73.153C93.0593 74.4088 93.3343 76.2165 93.3343 78.521C93.3343 81.1702 92.3204 82.9687 91.0188 84.0852C90.3408 84.6666 89.5472 85.0978 88.6904 85.3502C88.3796 86.7828 87.7407 88.1239 86.8241 89.268C85.4986 90.9253 83.4379 92.326 80.6696 92.326C78.4513 92.326 76.7041 91.0977 75.5821 89.9243C75.3831 89.7146 75.1935 89.4963 75.0138 89.2698C74.8334 89.4957 74.6431 89.7134 74.4436 89.9225C73.3216 91.0995 71.5744 92.326 69.3561 92.326C66.5859 92.326 64.5252 90.9253 63.2016 89.268C62.2836 88.1243 61.6435 86.7832 61.3316 85.3502C60.4754 85.0976 59.6825 84.6665 59.0051 84.0852C57.7034 82.9668 56.6914 81.1702 56.6914 78.521C56.6914 76.2165 56.9664 74.4088 57.7437 73.153C58.1562 72.4693 58.7713 71.931 59.5037 71.613C59.3154 70.9393 59.2065 70.2459 59.1792 69.5468C59.1187 68.1993 59.3186 66.7968 59.7201 65.5483C60.1142 64.32 60.7412 63.1228 61.6231 62.296C62.1746 61.7584 62.8733 61.3967 63.6306 61.2565C63.9972 59.7165 64.9249 58.4442 66.1111 57.522ZM67.8014 59.6908C66.8004 60.47 66.2137 61.5077 66.2137 62.703C66.2136 62.9208 66.1617 63.1354 66.0624 63.3291C65.963 63.5229 65.8191 63.6904 65.6424 63.8176C65.4657 63.9449 65.2614 64.0284 65.0461 64.0612C64.8308 64.0941 64.6108 64.0753 64.4042 64.0065C64.1531 63.9222 63.8872 63.9423 63.5059 64.3017C63.0806 64.6995 62.6497 65.42 62.3381 66.388C62.0263 67.3686 61.8874 68.3959 61.9274 69.424C61.9732 70.4433 62.2152 71.2903 62.5966 71.8623C62.6597 71.9571 62.7108 72.0593 62.7487 72.1667H64.7324C66.0523 72.1664 67.3235 72.6657 68.2904 73.5642C69.2573 74.4627 69.8483 75.6939 69.9446 77.0103C70.7344 77.3255 71.39 77.9053 71.7994 78.6506C72.2088 79.3959 72.3465 80.2602 72.1888 81.0958C72.0311 81.9314 71.5879 82.6862 70.9351 83.231C70.2822 83.7759 69.4603 84.0768 68.61 84.0825C67.7597 84.0881 66.9339 83.7981 66.2739 83.2619C65.6139 82.7258 65.1607 81.977 64.992 81.1436C64.8232 80.3102 64.9494 79.444 65.3488 78.6934C65.7483 77.9427 66.3962 77.3543 67.1817 77.0287C67.0947 76.4414 66.7994 75.905 66.3498 75.5173C65.9001 75.1296 65.3261 74.9164 64.7324 74.9167H59.9199C59.6449 75.5547 59.4414 76.6565 59.4414 78.521C59.4414 80.3928 60.1216 81.4195 60.7962 81.9988C61.5351 82.6313 62.3472 82.7963 62.5819 82.7963C62.9466 82.7963 63.2963 82.9412 63.5542 83.1991C63.812 83.4569 63.9569 83.8067 63.9569 84.1713C63.9569 84.9413 64.3822 86.3402 65.3502 87.5502C66.2816 88.718 67.6089 89.576 69.3561 89.576C70.5239 89.576 71.5983 88.9197 72.4544 88.025C72.8688 87.5887 73.1914 87.1358 73.4041 86.7692C73.4846 86.632 73.555 86.4893 73.6149 86.342L73.6259 86.3163V68.9583H71.9833C71.6642 69.7472 71.0806 70.4004 70.3327 70.8062C69.5848 71.212 68.719 71.345 67.8838 71.1825C67.0485 71.0199 66.2958 70.572 65.7546 69.9153C65.2134 69.2587 64.9175 68.4343 64.9175 67.5833C64.9175 66.7324 65.2134 65.908 65.7546 65.2514C66.2958 64.5947 67.0485 64.1467 67.8838 63.9842C68.719 63.8216 69.5848 63.9547 70.3327 64.3605C71.0806 64.7662 71.6642 65.4195 71.9833 66.2083H73.6259V61.5553L73.6204 61.4508C73.5891 60.8862 73.4779 60.3288 73.2904 59.7953C73.1254 59.3553 72.9109 59.0125 72.6579 58.787C72.4324 58.5853 72.1208 58.4277 71.6129 58.4277C70.2086 58.4277 68.8171 58.9007 67.7996 59.6927L67.8014 59.6908ZM76.3998 83.1667V86.3163L76.4089 86.342C76.4456 86.4392 76.5153 86.584 76.6216 86.7692C76.8324 87.1358 77.1551 87.5887 77.5713 88.025C78.4256 88.9197 79.5018 89.576 80.6696 89.576C82.4149 89.576 83.7423 88.718 84.6754 87.5502C85.6416 86.3402 86.0688 84.9395 86.0688 84.1713C86.0688 83.8067 86.2136 83.4569 86.4715 83.1991C86.7294 82.9412 87.0791 82.7963 87.4438 82.7963C87.6784 82.7963 88.4888 82.6313 89.2294 81.9988C89.9023 81.4195 90.5824 80.3928 90.5824 78.521C90.5824 76.3063 90.2928 75.166 89.9426 74.6032C89.833 74.4085 89.6667 74.2519 89.4659 74.154C89.2808 74.066 89.0021 74 88.5713 74C88.3224 74 88.0782 73.9324 87.8647 73.8045C87.6512 73.6766 87.4765 73.4932 87.359 73.2738C87.2416 73.0544 87.186 72.8072 87.198 72.5586C87.21 72.3101 87.2892 72.0694 87.4273 71.8623C87.8086 71.2885 88.0506 70.4433 88.0983 69.424C88.1377 68.3957 87.9981 67.3685 87.6858 66.388C87.3741 65.42 86.9433 64.7013 86.5198 64.3017C86.1366 63.9423 85.8708 63.9222 85.6214 64.0065C85.4147 64.0757 85.1945 64.0947 84.979 64.062C84.7635 64.0294 84.5589 63.9459 84.3819 63.8186C84.205 63.6913 84.0609 63.5238 83.9615 63.3298C83.862 63.1358 83.8102 62.921 83.8101 62.703C83.8101 61.5077 83.2234 60.47 82.2224 59.6908C81.2086 58.9007 79.8153 58.4258 78.4091 58.4258C77.9031 58.4258 77.5933 58.5853 77.3659 58.7852C77.0789 59.0667 76.8627 59.4122 76.7353 59.7935C76.5297 60.359 76.4164 60.9539 76.3998 61.5553V80.4167H77.5658C78.2222 80.4167 78.8517 80.1559 79.3158 79.6918C79.78 79.2276 80.0408 78.5981 80.0408 77.9417V74.6508C79.2519 74.3317 78.5987 73.7482 78.1929 73.0003C77.7871 72.2524 77.6541 71.3866 77.8166 70.5513C77.9791 69.7161 78.4271 68.9634 79.0838 68.4222C79.7404 67.881 80.5648 67.5851 81.4158 67.5851C82.2667 67.5851 83.0911 67.881 83.7477 68.4222C84.4044 68.9634 84.8524 69.7161 85.0149 70.5513C85.1775 71.3866 85.0444 72.2524 84.6386 73.0003C84.2329 73.7482 83.5796 74.3317 82.7908 74.6508V77.9417C82.7908 79.3274 82.2403 80.6564 81.2604 81.6363C80.2805 82.6162 78.9515 83.1667 77.5658 83.1667H76.3998ZM68.5824 66.6667C68.3393 66.6667 68.1061 66.7632 67.9342 66.9352C67.7623 67.1071 67.6657 67.3402 67.6657 67.5833C67.6657 67.8265 67.7623 68.0596 67.9342 68.2315C68.1061 68.4034 68.3393 68.5 68.5824 68.5C68.8255 68.5 69.0587 68.4034 69.2306 68.2315C69.4025 68.0596 69.4991 67.8265 69.4991 67.5833C69.4991 67.3402 69.4025 67.1071 69.2306 66.9352C69.0587 66.7632 68.8255 66.6667 68.5824 66.6667ZM67.6657 80.4167C67.6657 80.6598 67.7623 80.8929 67.9342 81.0648C68.1061 81.2368 68.3393 81.3333 68.5824 81.3333C68.8255 81.3333 69.0587 81.2368 69.2306 81.0648C69.4025 80.8929 69.4991 80.6598 69.4991 80.4167C69.4991 80.1736 69.4025 79.9404 69.2306 79.7685C69.0587 79.5966 68.8255 79.5 68.5824 79.5C68.3393 79.5 68.1061 79.5966 67.9342 79.7685C67.7623 79.9404 67.6657 80.1736 67.6657 80.4167ZM80.4991 71.25C80.4991 71.4931 80.5957 71.7263 80.7676 71.8982C80.9395 72.0701 81.1726 72.1667 81.4158 72.1667C81.6589 72.1667 81.892 72.0701 82.0639 71.8982C82.2358 71.7263 82.3324 71.4931 82.3324 71.25C82.3324 71.0069 82.2358 70.7737 82.0639 70.6018C81.892 70.4299 81.6589 70.3333 81.4158 70.3333C81.1726 70.3333 80.9395 70.4299 80.7676 70.6018C80.5957 70.7737 80.4991 71.0069 80.4991 71.25Z" fill="#51636B"/>
<defs>
<linearGradient id="paint0_linear_10906_34053" x1="123" y1="123" x2="-4.52051e-06" y2="1.00001" gradientUnits="userSpaceOnUse">
<stop stop-color="#51636B"/>
<stop offset="1" stop-color="#51636B" stop-opacity="0.6"/>
</linearGradient>
</defs>
</svg>
