<svg width="150" height="151" viewBox="0 0 150 151" fill="none" xmlns="http://www.w3.org/2000/svg">
<path d="M44.3564 32.5184C44.3564 29.02 43.1188 26.0332 40.6436 23.558C38.1683 21.0828 35.1815 19.8451 31.6832 19.8451C28.1848 19.8451 25.198 21.0828 22.7228 23.558C20.2475 26.0332 19.0099 29.02 19.0099 32.5184C19.0099 36.0167 20.2475 39.0035 22.7228 41.4788C25.198 43.954 28.1848 45.1917 31.6832 45.1917C35.1815 45.1917 38.1683 43.954 40.6436 41.4788C43.1188 39.0035 44.3564 36.0167 44.3564 32.5184ZM150 89.5481C150 93.0464 148.779 96.0167 146.337 98.459L97.7228 147.172C95.1485 149.614 92.1452 150.835 88.7129 150.835C85.2145 150.835 82.2442 149.614 79.802 147.172L9.0099 76.2808C6.50165 73.8385 4.37294 70.5052 2.62376 66.2808C0.874588 62.0563 0 58.195 0 54.6966V13.5085C0 10.0761 1.25413 7.10586 3.76238 4.59761C6.27063 2.08936 9.24092 0.83522 12.6733 0.83522H53.8614C57.3597 0.83522 61.2211 1.70981 65.4455 3.45898C69.67 5.20816 73.0363 7.33687 75.5445 9.84512L146.337 80.5382C148.779 83.1124 150 86.1157 150 89.5481Z" fill="url(#paint0_linear_10904_33978)"/>
<g clip-path="url(#clip0_10904_33978)">
<path opacity="0.2" d="M61.884 59.9654H65.8115V74.3663H61.884V59.9654Z" fill="#CCCCCC"/>
<path d="M61.2296 59.9654V63.2383H57.9567C57.7831 63.2383 57.6166 63.3073 57.4938 63.4301C57.3711 63.5528 57.3021 63.7193 57.3021 63.8929V73.7117H56.6475C56.4739 73.7117 56.3074 73.7807 56.1846 73.9034C56.0619 74.0262 55.9929 74.1927 55.9929 74.3663C55.9929 74.5399 56.0619 74.7064 56.1846 74.8292C56.3074 74.9519 56.4739 75.0209 56.6475 75.0209H71.0484C71.222 75.0209 71.3885 74.9519 71.5112 74.8292C71.634 74.7064 71.703 74.5399 71.703 74.3663C71.703 74.1927 71.634 74.0262 71.5112 73.9034C71.3885 73.7807 71.222 73.7117 71.0484 73.7117H70.3938V66.5113C70.3938 66.3377 70.3248 66.1712 70.2021 66.0484C70.0793 65.9256 69.9128 65.8567 69.7392 65.8567H66.4663V59.9654C66.4663 59.7918 66.3973 59.6253 66.2746 59.5026C66.1518 59.3798 65.9853 59.3108 65.8117 59.3108H61.8842C61.7106 59.3108 61.5441 59.3798 61.4213 59.5026C61.2986 59.6253 61.2296 59.7918 61.2296 59.9654ZM58.6113 64.5475H61.2296V73.7117H58.6113V64.5475ZM69.0846 67.1659V73.7117H66.4663V67.1659H69.0846ZM65.1571 60.62V73.7117H62.5388V60.62H65.1571Z" fill="#CCCCCC"/>
<path d="M83.2361 46.8657H82.9775V51.5205H87.6324V51.2619C87.6324 50.0959 87.1692 48.9777 86.3447 48.1533C85.5203 47.3288 84.4021 46.8657 83.2361 46.8657Z" fill="#CCCCCC"/>
<path d="M87.1539 51.3912H83.1063V47.3436C82.5242 47.4818 81.9895 47.7729 81.5575 48.1868C81.1254 48.6006 80.8117 49.1223 80.6486 49.6979C80.4855 50.2735 80.4789 50.8823 80.6296 51.4613C80.7804 52.0402 81.0828 52.5685 81.5059 52.9916C81.9289 53.4146 82.4572 53.7171 83.0362 53.8678C83.6152 54.0185 84.2239 54.012 84.7996 53.8489C85.3752 53.6858 85.8969 53.372 86.3107 52.94C86.7246 52.508 87.0157 51.9733 87.1539 51.3912Z" fill="#FBFBFB"/>
<path d="M86.3399 69.5094C85.4097 69.5094 84.5176 69.1399 83.8599 68.4822C83.2021 67.8244 82.8326 66.9323 82.8326 66.0021C82.8326 65.0719 83.2021 64.1799 83.8599 63.5221C84.5176 62.8644 85.4097 62.4949 86.3399 62.4949C87.2701 62.4949 88.1622 62.8644 88.8199 63.5221C89.4777 64.1799 89.8472 65.0719 89.8472 66.0021C89.8472 66.9323 89.4777 67.8244 88.8199 68.4822C88.1622 69.1399 87.2701 69.5094 86.3399 69.5094ZM93.7854 66.9742C93.8255 66.6535 93.8555 66.3328 93.8555 66.0021C93.8555 65.6714 93.8255 65.3408 93.7854 65.0001L95.8998 63.3667C96.0902 63.2163 96.1403 62.9458 96.02 62.7253L94.0159 59.2581C93.8956 59.0377 93.625 58.9475 93.4046 59.0377L90.9094 60.0398C90.3883 59.6489 89.8472 59.3082 89.2159 59.0577L88.8451 56.4022C88.8248 56.2842 88.7633 56.1772 88.6716 56.1001C88.5799 56.0231 88.4638 55.981 88.3441 55.9813H84.3357C84.0852 55.9813 83.8748 56.1617 83.8347 56.4022L83.4639 59.0577C82.8326 59.3082 82.2915 59.6489 81.7704 60.0398L79.2752 59.0377C79.0548 58.9475 78.7842 59.0377 78.664 59.2581L76.6598 62.7253C76.5295 62.9458 76.5897 63.2163 76.7801 63.3667L78.8944 65.0001C78.8544 65.3408 78.8243 65.6714 78.8243 66.0021C78.8243 66.3328 78.8544 66.6535 78.8944 66.9742L76.7801 68.6376C76.5897 68.7879 76.5295 69.0585 76.6598 69.2789L78.664 72.7461C78.7842 72.9666 79.0548 73.0468 79.2752 72.9666L81.7704 71.9545C82.2915 72.3553 82.8326 72.696 83.4639 72.9466L83.8347 75.6021C83.8748 75.8426 84.0852 76.0229 84.3357 76.0229H88.3441C88.5946 76.0229 88.805 75.8426 88.8451 75.6021L89.2159 72.9466C89.8472 72.686 90.3883 72.3553 90.9094 71.9545L93.4046 72.9666C93.625 73.0468 93.8956 72.9666 94.0159 72.7461L96.02 69.2789C96.1403 69.0585 96.0902 68.7879 95.8998 68.6376L93.7854 66.9742Z" fill="#CCCCCC"/>
<path d="M79.4859 106.732C79.2038 106.732 78.9237 106.697 78.6561 106.628L69.8472 104.365C69.3234 104.229 68.8683 103.969 68.5467 103.622C68.2251 103.275 68.0533 102.858 68.0558 102.432V92.3162C68.0534 92.3121 68.05 92.3083 68.0459 92.3052L49.5104 75.6365C49.0994 75.2668 48.8344 74.8139 48.7469 74.3314C48.6594 73.8489 48.7531 73.3572 49.0168 72.9146C49.2806 72.472 49.7033 72.0971 50.2347 71.8345C50.7662 71.5718 51.3841 71.4324 52.0151 71.4329H98.1698C98.8008 71.4324 99.4187 71.5718 99.9502 71.8345C100.482 72.0971 100.904 72.472 101.168 72.9146C101.432 73.3572 101.525 73.8489 101.438 74.3314C101.35 74.8139 101.086 75.2668 100.675 75.6365L82.1335 92.3069C82.1297 92.3103 82.1264 92.314 82.1236 92.3179V104.695C82.1246 104.963 82.0571 105.228 81.9249 105.476C81.7927 105.723 81.5985 105.948 81.3533 106.137C81.1082 106.327 80.817 106.476 80.4965 106.579C80.176 106.681 79.8326 106.733 79.4859 106.732Z" fill="#FBFBFB"/>
<path d="M68.9842 53.5669C68.3214 53.4381 67.737 53.0513 67.3595 52.4916C66.9819 51.9318 66.8422 51.2451 66.971 50.5823C67.0999 49.9196 67.4867 49.3352 68.0464 48.9577C68.6061 48.5801 69.2929 48.4404 69.9556 48.5692C70.6183 48.6981 71.2028 49.0849 71.5803 49.6446C71.9578 50.2043 72.0975 50.8911 71.9687 51.5538C71.8399 52.2165 71.4531 52.8009 70.8934 53.1785C70.3337 53.556 69.6469 53.6957 68.9842 53.5669ZM74.64 52.7917C74.7129 52.5688 74.7787 52.3445 74.8245 52.1089C74.8703 51.8733 74.8947 51.6335 74.9133 51.3852L76.646 50.5143C76.8025 50.4336 76.8756 50.2478 76.8205 50.074L75.8728 47.3262C75.8176 47.1525 75.6373 47.0508 75.4678 47.0845L73.5513 47.4529C73.2341 47.1023 72.8958 46.7846 72.4807 46.5187L72.5843 44.5753C72.5861 44.4884 72.5571 44.4037 72.5025 44.3361C72.4478 44.2685 72.371 44.2224 72.2856 44.2061L69.4298 43.651C69.2513 43.6163 69.0764 43.7156 69.0145 43.8814L68.3826 45.7221C67.8981 45.8131 67.4654 45.9809 67.04 46.1872L65.401 45.1277C65.2564 45.0329 65.0512 45.0597 64.935 45.2001L63.0269 47.3928C62.9036 47.5319 62.9089 47.733 63.0238 47.8664L64.304 49.323C64.2282 49.5602 64.161 49.7916 64.1152 50.0272C64.0694 50.2628 64.0464 50.4955 64.0306 50.7295L62.2938 51.6218C62.1373 51.7025 62.057 51.887 62.1193 52.0621L63.067 54.8099C63.1222 54.9837 63.3038 55.0782 63.472 55.0517L65.3899 54.6761C65.7057 55.0339 66.044 55.3516 66.4591 55.6175L66.3555 57.5608C66.3508 57.7377 66.4757 57.8954 66.6542 57.9301L69.51 58.4852C69.6885 58.5199 69.8634 58.4205 69.9253 58.2547L70.5572 56.4141C71.0431 56.3159 71.4744 56.1552 71.9012 55.9418L73.5388 57.0084C73.6847 57.0961 73.8886 57.0764 74.0048 56.936L75.9129 54.7433C76.0291 54.6029 76.0309 54.4032 75.916 54.2697L74.64 52.7917Z" fill="#CCCCCC"/>
</g>
<defs>
<linearGradient id="paint0_linear_10904_33978" x1="123" y1="123" x2="-4.52051e-06" y2="1.00001" gradientUnits="userSpaceOnUse">
<stop stop-color="#51636B"/>
<stop offset="1" stop-color="#51636B" stop-opacity="0.6"/>
</linearGradient>
<clipPath id="clip0_10904_33978">
<rect width="76.1854" height="69" fill="white" transform="translate(37 40.8352)"/>
</clipPath>
</defs>
</svg>
