<svg width="150" height="150" viewBox="0 0 150 150" fill="none" xmlns="http://www.w3.org/2000/svg">
<path d="M44.3564 31.6832C44.3564 28.1848 43.1188 25.198 40.6436 22.7228C38.1683 20.2475 35.1815 19.0099 31.6832 19.0099C28.1848 19.0099 25.198 20.2475 22.7228 22.7228C20.2475 25.198 19.0099 28.1848 19.0099 31.6832C19.0099 35.1815 20.2475 38.1683 22.7228 40.6436C25.198 43.1188 28.1848 44.3564 31.6832 44.3564C35.1815 44.3564 38.1683 43.1188 40.6436 40.6436C43.1188 38.1683 44.3564 35.1815 44.3564 31.6832ZM150 88.7129C150 92.2112 148.779 95.1815 146.337 97.6238L97.7228 146.337C95.1485 148.779 92.1452 150 88.7129 150C85.2145 150 82.2442 148.779 79.802 146.337L9.0099 75.4456C6.50165 73.0033 4.37294 69.67 2.62376 65.4456C0.874588 61.2211 0 57.3597 0 53.8614V12.6733C0 9.24094 1.25413 6.27065 3.76238 3.7624C6.27063 1.25415 9.24092 1.77744e-05 12.6733 1.77744e-05H53.8614C57.3597 1.77744e-05 61.2211 0.874604 65.4455 2.62378C69.67 4.37295 73.0363 6.50167 75.5445 9.00992L146.337 79.703C148.779 82.2772 150 85.2805 150 88.7129Z" fill="url(#paint0_linear_10906_34148)"/>
<path opacity="0.8" d="M40 81.732L49.6444 87.2838V76.2393L40 70.6938V81.7382V81.732ZM98.0222 77.6876L88.3778 83.2393V94.2745L98.0222 88.7273V77.6876ZM52.1333 88.7227L61.7778 94.2745V83.2393L52.1333 77.6876V88.732V88.7227ZM73.9111 90.2393L64.2667 84.686V95.7305L73.9111 101.284V90.2393ZM85.8889 84.6907L76.4 90.2393V101.274L85.8889 95.7273V84.6907ZM110 70.7187L100.511 76.2658V87.3009L110 81.7538V70.7187Z" fill="#FBFBFB"/>
<path d="M84.6446 54.5533L75.078 60.1067L65.4708 54.5533L75.078 49L84.6446 54.5533ZM99.2171 62.9829L89.61 68.5362L99.2171 74.0896L108.784 68.5362L99.2171 62.9829ZM53.4231 75.5269L63.0302 81.0802L72.5969 75.5269L63.0302 69.9736L53.4231 75.5269ZM75.1262 62.9938L65.5191 68.5471L75.1262 74.1004L84.6929 68.5471L75.1262 62.9938ZM63.0053 56.0031L53.3982 61.5564L63.0053 67.1098L72.572 61.5564L63.0053 56.0031ZM87.1973 69.986L77.5902 75.5393L87.1973 81.0927L96.764 75.5393L87.1973 69.986ZM87.1444 55.9907L77.5373 61.544L87.1444 67.0973L96.7111 61.544L87.1444 55.9907ZM50.9622 62.9829L41.3535 68.5362L50.9606 74.0896L60.5273 68.5362L50.9622 62.9829ZM65.4942 82.53L75.1013 88.0833L84.668 82.53L75.1013 76.9767L65.4942 82.53Z" fill="#FBFBFB"/>
<defs>
<linearGradient id="paint0_linear_10906_34148" x1="123" y1="122.165" x2="-4.52051e-06" y2="0.164805" gradientUnits="userSpaceOnUse">
<stop stop-color="#51636B"/>
<stop offset="1" stop-color="#51636B" stop-opacity="0.6"/>
</linearGradient>
</defs>
</svg>
