<svg width="150" height="150" viewBox="0 0 150 150" fill="none" xmlns="http://www.w3.org/2000/svg">
<path d="M44.3564 31.6831C44.3564 28.1848 43.1188 25.198 40.6436 22.7227C38.1683 20.2475 35.1815 19.0099 31.6832 19.0099C28.1848 19.0099 25.198 20.2475 22.7228 22.7227C20.2475 25.198 19.0099 28.1848 19.0099 31.6831C19.0099 35.1815 20.2475 38.1683 22.7228 40.6435C25.198 43.1188 28.1848 44.3564 31.6832 44.3564C35.1815 44.3564 38.1683 43.1188 40.6436 40.6435C43.1188 38.1683 44.3564 35.1815 44.3564 31.6831ZM150 88.7128C150 92.2112 148.779 95.1815 146.337 97.6237L97.7228 146.337C95.1485 148.779 92.1452 150 88.7129 150C85.2145 150 82.2442 148.779 79.802 146.337L9.0099 75.4455C6.50165 73.0032 4.37294 69.6699 2.62376 65.4455C0.874588 61.2211 0 57.3597 0 53.8613V12.6732C0 9.24088 1.25413 6.27059 3.76238 3.76234C6.27063 1.25409 9.24092 -4.32607e-05 12.6733 -4.32607e-05H53.8614C57.3597 -4.32607e-05 61.2211 0.874543 65.4455 2.62372C69.67 4.37289 73.0363 6.50161 75.5445 9.00986L146.337 79.7029C148.779 82.2772 150 85.2805 150 88.7128Z" fill="url(#paint0_linear_10906_34129)"/>
<g opacity="0.8" filter="url(#filter0_d_10906_34129)">
<path d="M84.3284 83.2415L82.8741 85.8066C82.342 86.7573 81.207 87.152 80.1961 86.7753C78.1034 85.986 76.188 84.8559 74.5032 83.4388C73.6874 82.7572 73.4745 81.5553 74.0066 80.6225L75.4609 78.0574C74.2371 76.6224 73.2795 74.9541 72.641 73.1424H69.7147C68.6506 73.1424 67.7284 72.371 67.551 71.2948C67.1963 69.1422 67.1786 66.882 67.551 64.6397C67.7284 63.5635 68.6506 62.7742 69.7147 62.7742H72.641C73.2795 60.9624 74.2371 59.2942 75.4609 57.8592L74.0066 55.294C73.4745 54.3613 73.6696 53.1594 74.5032 52.4778C76.188 51.0607 78.1211 49.9306 80.1961 49.1413C81.207 48.7646 82.342 49.1592 82.8741 50.1099L84.3284 52.6751C86.1905 52.3343 88.0882 52.3343 89.9504 52.6751L91.4046 50.1099C91.9367 49.1592 93.0717 48.7646 94.0826 49.1413C96.1754 49.9306 98.0908 51.0607 99.7756 52.4778C100.591 53.1594 100.804 54.3613 100.272 55.294L98.8179 57.8592C100.042 59.2942 100.999 60.9624 101.638 62.7742H104.564C105.628 62.7742 106.55 63.5455 106.728 64.6218C107.082 66.7744 107.1 69.0346 106.728 71.2768C106.55 72.3531 105.628 73.1424 104.564 73.1424H101.638C100.999 74.9541 100.042 76.6224 98.8179 78.0574L100.272 80.6225C100.804 81.5553 100.609 82.7572 99.7756 83.4388C98.0908 84.8559 96.1576 85.986 94.0826 86.7753C93.0717 87.152 91.9367 86.7573 91.4046 85.8066L89.9504 83.2415C88.1059 83.5823 86.1905 83.5823 84.3284 83.2415ZM82.4662 72.6939C89.2942 78.0036 97.0799 70.1288 91.8303 63.2226C85.0023 57.895 77.2166 65.7878 82.4662 72.6939Z" fill="#FBFBFB"/>
</g>
<g filter="url(#filter1_d_10906_34129)">
<path d="M92.4651 74.6809C90.6917 65.8563 82.7894 59.2314 73.2962 59.2314C65.759 59.2314 59.2129 63.4263 55.9529 69.5652C48.1028 70.3837 42 76.9063 42 84.8101C42 93.2766 49.0156 100.157 57.6481 100.157H91.5523C98.7505 100.157 104.592 94.4276 104.592 87.3679C104.592 80.6152 99.246 75.1413 92.4651 74.6809Z" fill="#FBFBFB"/>
</g>
<path d="M49.8259 86.9166L59.8259 92.6901V81.1431L49.8259 86.9166ZM96.7702 86.9166L86.7702 81.1431V92.6901L96.7702 86.9166ZM58.8259 87.9166H87.7702V85.9166H58.8259V87.9166Z" fill="url(#paint1_linear_10906_34129)"/>
<defs>
<filter id="filter0_d_10906_34129" x="65.2783" y="47" width="41.7222" height="39.9166" filterUnits="userSpaceOnUse" color-interpolation-filters="sRGB">
<feFlood flood-opacity="0" result="BackgroundImageFix"/>
<feColorMatrix in="SourceAlpha" type="matrix" values="0 0 0 0 0 0 0 0 0 0 0 0 0 0 0 0 0 0 127 0" result="hardAlpha"/>
<feOffset dx="-1" dy="-1"/>
<feGaussianBlur stdDeviation="0.5"/>
<feComposite in2="hardAlpha" operator="out"/>
<feColorMatrix type="matrix" values="0 0 0 0 0.317647 0 0 0 0 0.388235 0 0 0 0 0.419608 0 0 0 0.75 0"/>
<feBlend mode="normal" in2="BackgroundImageFix" result="effect1_dropShadow_10906_34129"/>
<feBlend mode="normal" in="SourceGraphic" in2="effect1_dropShadow_10906_34129" result="shape"/>
</filter>
<filter id="filter1_d_10906_34129" x="40" y="57.2314" width="64.5925" height="42.9258" filterUnits="userSpaceOnUse" color-interpolation-filters="sRGB">
<feFlood flood-opacity="0" result="BackgroundImageFix"/>
<feColorMatrix in="SourceAlpha" type="matrix" values="0 0 0 0 0 0 0 0 0 0 0 0 0 0 0 0 0 0 127 0" result="hardAlpha"/>
<feOffset dx="-1" dy="-1"/>
<feGaussianBlur stdDeviation="0.5"/>
<feComposite in2="hardAlpha" operator="out"/>
<feColorMatrix type="matrix" values="0 0 0 0 0.317647 0 0 0 0 0.388235 0 0 0 0 0.419608 0 0 0 0.75 0"/>
<feBlend mode="normal" in2="BackgroundImageFix" result="effect1_dropShadow_10906_34129"/>
<feBlend mode="normal" in="SourceGraphic" in2="effect1_dropShadow_10906_34129" result="shape"/>
</filter>
<linearGradient id="paint0_linear_10906_34129" x1="123" y1="122.165" x2="-4.52051e-06" y2="0.164744" gradientUnits="userSpaceOnUse">
<stop stop-color="#51636B"/>
<stop offset="1" stop-color="#51636B" stop-opacity="0.6"/>
</linearGradient>
<linearGradient id="paint1_linear_10906_34129" x1="88.3203" y1="87.1021" x2="88.2851" y2="88.7414" gradientUnits="userSpaceOnUse">
<stop stop-color="#51636B"/>
<stop offset="1" stop-color="#51636B" stop-opacity="0.6"/>
</linearGradient>
</defs>
</svg>
