<svg width="150" height="150" viewBox="0 0 150 150" fill="none" xmlns="http://www.w3.org/2000/svg">
<path d="M44.3564 31.6831C44.3564 28.1848 43.1188 25.198 40.6436 22.7227C38.1683 20.2475 35.1815 19.0099 31.6832 19.0099C28.1848 19.0099 25.198 20.2475 22.7228 22.7227C20.2475 25.198 19.0099 28.1848 19.0099 31.6831C19.0099 35.1815 20.2475 38.1683 22.7228 40.6435C25.198 43.1188 28.1848 44.3564 31.6832 44.3564C35.1815 44.3564 38.1683 43.1188 40.6436 40.6435C43.1188 38.1683 44.3564 35.1815 44.3564 31.6831ZM150 88.7128C150 92.2112 148.779 95.1815 146.337 97.6237L97.7228 146.337C95.1485 148.779 92.1452 150 88.7129 150C85.2145 150 82.2442 148.779 79.802 146.337L9.0099 75.4455C6.50165 73.0032 4.37294 69.6699 2.62376 65.4455C0.874588 61.2211 0 57.3597 0 53.8613V12.6732C0 9.24088 1.25413 6.27059 3.76238 3.76234C6.27063 1.25409 9.24092 -4.32607e-05 12.6733 -4.32607e-05H53.8614C57.3597 -4.32607e-05 61.2211 0.874543 65.4455 2.62372C69.67 4.37289 73.0363 6.50161 75.5445 9.00986L146.337 79.7029C148.779 82.2772 150 85.2805 150 88.7128Z" fill="url(#paint0_linear_10906_34129)"/>
<path opacity="0.8" d="M85.3284 83.2415L83.8741 85.8066C83.342 86.7573 82.207 87.152 81.1961 86.7753C79.1034 85.986 77.188 84.8559 75.5032 83.4388C74.6874 82.7572 74.4745 81.5553 75.0066 80.6225L76.4609 78.0574C75.2371 76.6224 74.2795 74.9541 73.641 73.1424H70.7147C69.6506 73.1424 68.7284 72.371 68.551 71.2948C68.1963 69.1422 68.1786 66.882 68.551 64.6397C68.7284 63.5635 69.6506 62.7742 70.7147 62.7742H73.641C74.2795 60.9624 75.2371 59.2942 76.4609 57.8592L75.0066 55.294C74.4745 54.3613 74.6696 53.1594 75.5032 52.4778C77.188 51.0607 79.1211 49.9306 81.1961 49.1413C82.207 48.7646 83.342 49.1592 83.8741 50.1099L85.3284 52.6751C87.1905 52.3343 89.0882 52.3343 90.9504 52.6751L92.4046 50.1099C92.9367 49.1592 94.0717 48.7646 95.0826 49.1413C97.1754 49.9306 99.0908 51.0607 100.776 52.4778C101.591 53.1594 101.804 54.3613 101.272 55.294L99.8179 57.8592C101.042 59.2942 101.999 60.9624 102.638 62.7742H105.564C106.628 62.7742 107.55 63.5455 107.728 64.6218C108.082 66.7744 108.1 69.0346 107.728 71.2768C107.55 72.3531 106.628 73.1424 105.564 73.1424H102.638C101.999 74.9541 101.042 76.6224 99.8179 78.0574L101.272 80.6225C101.804 81.5553 101.609 82.7572 100.776 83.4388C99.0908 84.8559 97.1576 85.986 95.0826 86.7753C94.0717 87.152 92.9367 86.7573 92.4046 85.8066L90.9504 83.2415C89.1059 83.5823 87.1905 83.5823 85.3284 83.2415ZM83.4662 72.6939C90.2942 78.0036 98.0799 70.1288 92.8303 63.2226C86.0023 57.895 78.2166 65.7878 83.4662 72.6939Z" fill="#FBFBFB"/>
<path d="M93.4651 74.6809C91.6917 65.8563 83.7894 59.2314 74.2962 59.2314C66.759 59.2314 60.2129 63.4263 56.9529 69.5652C49.1028 70.3837 43 76.9063 43 84.8101C43 93.2766 50.0156 100.157 58.6481 100.157H92.5523C99.7505 100.157 105.592 94.4276 105.592 87.3679C105.592 80.6152 100.246 75.1413 93.4651 74.6809Z" fill="#FBFBFB"/>
<path d="M50.8259 86.9166L60.8259 92.6901V81.1431L50.8259 86.9166ZM97.7702 86.9166L87.7702 81.1431V92.6901L97.7702 86.9166ZM59.8259 87.9166H88.7702V85.9166H59.8259V87.9166Z" fill="url(#paint1_linear_10906_34129)"/>
<defs>
<linearGradient id="paint0_linear_10906_34129" x1="123" y1="122.165" x2="-4.52051e-06" y2="0.164744" gradientUnits="userSpaceOnUse">
<stop stop-color="#51636B"/>
<stop offset="1" stop-color="#51636B" stop-opacity="0.6"/>
</linearGradient>
<linearGradient id="paint1_linear_10906_34129" x1="89.3203" y1="87.1021" x2="89.2851" y2="88.7414" gradientUnits="userSpaceOnUse">
<stop stop-color="#51636B"/>
<stop offset="1" stop-color="#51636B" stop-opacity="0.6"/>
</linearGradient>
</defs>
</svg>
