<svg width="150" height="151" viewBox="0 0 150 151" fill="none" xmlns="http://www.w3.org/2000/svg">
<path d="M44.3564 32.6007C44.3564 29.1024 43.1188 26.1156 40.6436 23.6404C38.1683 21.1651 35.1815 19.9275 31.6832 19.9275C28.1848 19.9275 25.198 21.1651 22.7228 23.6404C20.2475 26.1156 19.0099 29.1024 19.0099 32.6007C19.0099 36.0991 20.2475 39.0859 22.7228 41.5611C25.198 44.0364 28.1848 45.274 31.6832 45.274C35.1815 45.274 38.1683 44.0364 40.6436 41.5611C43.1188 39.0859 44.3564 36.0991 44.3564 32.6007ZM150 89.6304C150 93.1288 148.779 96.0991 146.337 98.5413L97.7228 147.254C95.1485 149.696 92.1452 150.918 88.7129 150.918C85.2145 150.918 82.2442 149.696 79.802 147.254L9.0099 76.3631C6.50165 73.9209 4.37294 70.5875 2.62376 66.3631C0.874588 62.1387 0 58.2773 0 54.779V13.5908C0 10.1585 1.25413 7.18821 3.76238 4.67996C6.27063 2.17171 9.24092 0.917572 12.6733 0.917572H53.8614C57.3597 0.917572 61.2211 1.79216 65.4455 3.54134C69.67 5.29051 73.0363 7.41922 75.5445 9.92747L146.337 80.6205C148.779 83.1948 150 86.1981 150 89.6304Z" fill="url(#paint0_linear_10906_34110)"/>
<path d="M98.657 80.578L103.338 82.9152C104.741 83.7221 105.352 85.4333 104.796 86.9636C103.56 90.3303 101.129 93.4187 98.8792 96.1176C97.8514 97.3558 96.0735 97.6618 94.6707 96.8549L90.6288 94.5177C88.4064 96.4237 85.823 97.94 83.0034 98.9278V103.602C83.0034 105.216 81.8505 106.607 80.2671 106.885C76.8502 107.47 73.2667 107.498 69.7249 106.885C68.1276 106.607 66.9469 105.23 66.9469 103.602V98.9278C64.1273 97.9261 61.5439 96.4237 59.3215 94.5177L55.2796 96.841C53.8907 97.6479 52.0989 97.3418 51.0711 96.1037C48.821 93.4048 46.4458 90.3163 45.2096 86.9636C44.6541 85.4472 45.2652 83.736 46.6681 82.9152L51.2933 80.578C50.7516 77.6704 50.7516 74.6794 51.2933 71.7579L46.6681 69.4068C45.2652 68.5999 44.6402 66.8887 45.2096 65.3724C46.4458 62.0057 48.821 58.9172 51.0711 56.2183C52.0989 54.9802 53.8768 54.6741 55.2796 55.481L59.3215 57.8182C61.5439 55.9123 64.1273 54.3959 66.9469 53.4081V48.7198C66.9469 47.12 68.0859 45.7288 69.6693 45.4505C73.0862 44.8663 76.6836 44.8384 80.2254 45.4366C81.8227 45.7149 83.0034 47.0922 83.0034 48.7198V53.3942C85.823 54.3959 88.4064 55.8984 90.6288 57.8043L94.6707 55.4671C96.0596 54.6602 97.8514 54.9663 98.8792 56.2044C101.129 58.9033 103.491 61.9918 104.727 65.3584C105.282 66.8748 104.741 68.586 103.338 69.4068L98.657 71.744C99.1987 74.6655 99.1987 77.6565 98.657 80.578Z" fill="#FBFBFB"/>
<circle cx="74.9996" cy="76.0984" r="17.5057" fill="url(#paint1_linear_10906_34110)"/>
<path opacity="0.6" d="M75.5239 66.8442V75.2053L82.7756 71.0104L75.5239 66.8442Z" fill="#FBFBFB"/>
<path opacity="0.8" d="M90.4492 84.3575C91.6911 82.0435 92.3927 79.4785 92.5013 76.8549L84.9358 81.178L90.4492 84.3575Z" fill="#FBFBFB"/>
<path opacity="0.6" d="M84.3816 80.2942L91.6771 76.1246L84.3816 71.9331V80.2942Z" fill="#FBFBFB"/>
<path opacity="0.8" d="M83.3379 70.1299V61.8396L76.1116 65.9789L83.3379 70.1299Z" fill="#FBFBFB"/>
<path opacity="0.8" d="M83.3382 80.2571V71.8892L76.095 76.0807L83.3382 80.2571Z" fill="#FBFBFB"/>
<path opacity="0.6" d="M83.2903 60.664C80.898 59.3789 78.2387 58.6696 75.5239 58.5927V65.1136L83.2903 60.664Z" fill="#FBFBFB"/>
<path opacity="0.6" d="M89.9034 66.8846C88.5063 64.6328 86.6188 62.7249 84.3816 61.3033V70.0742L89.9034 66.8846Z" fill="#FBFBFB"/>
<path opacity="0.8" d="M92.5054 75.3975C92.4037 72.7351 91.6925 70.1315 90.4263 67.787L84.8572 71.007L92.5054 75.3975Z" fill="#FBFBFB"/>
<path d="M74.2369 67.6738L71.615 67.8184L72.1931 78.3059L81.6731 83.306L82.8656 81.0838L74.7427 76.8504L74.2369 67.6738Z" fill="#FBFBFB"/>
<defs>
<linearGradient id="paint0_linear_10906_34110" x1="123" y1="123.082" x2="-4.52051e-06" y2="1.08236" gradientUnits="userSpaceOnUse">
<stop stop-color="#51636B"/>
<stop offset="1" stop-color="#51636B" stop-opacity="0.6"/>
</linearGradient>
<linearGradient id="paint1_linear_10906_34110" x1="86.2033" y1="65.0897" x2="57.4939" y2="93.5656" gradientUnits="userSpaceOnUse">
<stop stop-color="#51636B"/>
<stop offset="1" stop-color="#51636B" stop-opacity="0.6"/>
</linearGradient>
</defs>
</svg>
