<svg width="151" height="151" viewBox="0 0 151 151" fill="none" xmlns="http://www.w3.org/2000/svg">
<path d="M44.3882 32.5184C44.3882 29.02 43.1505 26.0332 40.6753 23.558C38.2001 21.0827 35.2133 19.8451 31.7149 19.8451C28.2166 19.8451 25.2298 21.0827 22.7545 23.558C20.2793 26.0332 19.0416 29.02 19.0416 32.5184C19.0416 36.0167 20.2793 39.0035 22.7545 41.4788C25.2298 43.954 28.2166 45.1917 31.7149 45.1917C35.2133 45.1917 38.2001 43.954 40.6753 41.4788C43.1505 39.0035 44.3882 36.0167 44.3882 32.5184ZM150.032 89.5481C150.032 93.0464 148.811 96.0167 146.368 98.459L97.7545 147.172C95.1802 149.614 92.1769 150.835 88.7446 150.835C85.2463 150.835 82.276 149.614 79.8337 147.172L9.04164 76.2808C6.53339 73.8385 4.40468 70.5052 2.6555 66.2808C0.906326 62.0563 0.0317383 58.195 0.0317383 54.6966V13.5085C0.0317383 10.0761 1.28586 7.10587 3.79411 4.59761C6.30236 2.08936 9.27266 0.83522 12.705 0.83522H53.8931C57.3915 0.83522 61.2529 1.70981 65.4773 3.45898C69.7017 5.20816 73.068 7.33687 75.5763 9.84512L146.368 80.5382C148.811 83.1124 150.032 86.1157 150.032 89.5481Z" fill="url(#paint0_linear_11858_34728)"/>
<path d="M75.0342 116.753C104.478 102.007 104 74.549 104 74.549L103.936 53.8643C78.8793 54.1083 75.0342 43.5586 75.0342 43.5586C75.0342 43.5586 71.1939 54.1083 46.1323 53.8643L46.0639 74.549C46.0639 74.549 45.5857 102.007 75.0342 116.753Z" fill="#FBFBFB"/>
<path d="M84.8567 73.6268H83.749V69.4889C83.749 64.4873 80.1332 60.569 74.9657 60.569C69.7982 60.569 66.3141 64.5702 66.3141 69.4889V73.6268H65.226C64.6511 73.6274 64.0819 73.7417 63.5513 73.963C63.0207 74.1844 62.539 74.5084 62.1341 74.9166C61.7291 75.3247 61.4089 75.8088 61.1917 76.3412C60.9745 76.8735 60.8646 77.4435 60.8685 78.0184V91.0958C60.8685 92.2515 61.3276 93.3598 62.1448 94.177C62.962 94.9942 64.0703 95.4533 65.226 95.4533H84.8567C86.0119 95.452 87.1195 94.9925 87.9364 94.1756C88.7533 93.3587 89.2129 92.2511 89.2141 91.0958V78.0184C89.2142 76.8596 88.7562 75.7477 87.94 74.9251C87.1237 74.1025 86.0155 73.6358 84.8567 73.6268ZM68.51 69.4694C68.51 65.756 71.0474 62.7306 75.0047 62.7306C78.9621 62.7306 81.5873 65.6877 81.5873 69.4694V73.6268H68.4953L68.51 69.4694Z" fill="url(#paint1_linear_11858_34728)"/>
<defs>
<linearGradient id="paint0_linear_11858_34728" x1="123.032" y1="123" x2="0.0317338" y2="1.00001" gradientUnits="userSpaceOnUse">
<stop stop-color="#51636B"/>
<stop offset="1" stop-color="#51636B" stop-opacity="0.6"/>
</linearGradient>
<linearGradient id="paint1_linear_11858_34728" x1="84.1119" y1="67.0424" x2="56.1588" y2="89.5714" gradientUnits="userSpaceOnUse">
<stop stop-color="#51636B"/>
<stop offset="1" stop-color="#51636B" stop-opacity="0.6"/>
</linearGradient>
</defs>
</svg>
