<svg width="151" height="151" viewBox="0 0 151 151" fill="none" xmlns="http://www.w3.org/2000/svg">
<path d="M45.1565 32.5184C45.1565 29.02 43.9189 26.0332 41.4436 23.558C38.9684 21.0827 35.9816 19.8451 32.4832 19.8451C28.9849 19.8451 25.9981 21.0827 23.5228 23.558C21.0476 26.0332 19.8099 29.02 19.8099 32.5184C19.8099 36.0167 21.0476 39.0035 23.5228 41.4788C25.9981 43.954 28.9849 45.1917 32.4832 45.1917C35.9816 45.1917 38.9684 43.954 41.4436 41.4788C43.9189 39.0035 45.1565 36.0167 45.1565 32.5184ZM150.8 89.5481C150.8 93.0464 149.579 96.0167 147.137 98.459L98.5228 147.172C95.9486 149.614 92.9453 150.835 89.5129 150.835C86.0146 150.835 83.0443 149.614 80.602 147.172L9.80995 76.2808C7.3017 73.8385 5.17299 70.5052 3.42381 66.2808C1.67464 62.0563 0.800049 58.195 0.800049 54.6966V13.5085C0.800049 10.0761 2.05417 7.10586 4.56242 4.59761C7.07068 2.08936 10.041 0.835223 13.4733 0.835223H54.6614C58.1598 0.835223 62.0212 1.70981 66.2456 3.45898C70.47 5.20816 73.8363 7.33688 76.3446 9.84513L147.137 80.5382C149.579 83.1124 150.8 86.1157 150.8 89.5481Z" fill="url(#paint0_linear_10906_33985)"/>
<g clip-path="url(#clip0_10906_33985)">
<path opacity="0.8" d="M50.5504 84.3221C49.4422 84.3221 48.5715 85.1963 48.5715 86.309V94.7732L61.1177 84.3221H50.5504Z" fill="#FBFBFB"/>
<path d="M50.55 97.1575H97.7268C98.835 97.1575 99.7057 96.2833 99.7057 95.1706V86.309C99.7057 85.1964 98.835 84.3221 97.7268 84.3221H64.0065L49.2043 96.6409C49.5605 96.9588 50.0355 97.1575 50.55 97.1575ZM91.7109 88.3357C93.017 88.3357 94.1252 89.4086 94.1252 90.7597C94.1252 92.0711 93.0566 93.1837 91.7109 93.1837C90.4049 93.1837 89.2967 92.1108 89.2967 90.7597C89.2967 89.4086 90.3653 88.3357 91.7109 88.3357ZM85.2993 88.3357C86.6054 88.3357 87.7136 89.4086 87.7136 90.7597C87.7136 92.0711 86.645 93.1837 85.2993 93.1837C83.9933 93.1837 82.8851 92.1108 82.8851 90.7597C82.9247 89.4086 83.9933 88.3357 85.2993 88.3357Z" fill="#FBFBFB"/>
<path d="M91.9489 61.0754L87.1204 65.0889H97.6876C98.7958 65.0889 99.6665 64.2147 99.6665 63.102V54.6378L93.9673 59.3666C93.7299 60.2806 92.9383 60.9562 91.9489 61.0754Z" fill="#FBFBFB"/>
<path d="M97.7262 81.1431C98.8344 81.1431 99.7051 80.2689 99.7051 79.1562V70.2946C99.7051 69.1819 98.8344 68.3077 97.7262 68.3077H83.2803L67.845 81.1431H97.7262ZM91.7104 72.3213C93.0165 72.3213 94.1247 73.3942 94.1247 74.7453C94.1247 76.0566 93.0561 77.1693 91.7104 77.1693C90.4043 77.1693 89.2962 76.0964 89.2962 74.7453C89.2962 73.3942 90.3648 72.3213 91.7104 72.3213ZM85.2988 72.3213C86.6049 72.3213 87.713 73.3942 87.713 74.7453C87.713 76.0566 86.6444 77.1693 85.2988 77.1693C83.9927 77.1693 82.8845 76.0964 82.8845 74.7453C82.9241 73.3942 83.9927 72.3213 85.2988 72.3213Z" fill="#FBFBFB"/>
<path opacity="0.8" d="M89.2971 58.6911C89.2971 57.3797 90.3657 56.2671 91.7114 56.2671C92.5029 56.2671 93.2153 56.6645 93.6507 57.2605L99.0333 52.8099C98.6771 52.492 98.2021 52.2933 97.6876 52.2933H50.5504C49.4422 52.2933 48.5715 53.1675 48.5715 54.2802V63.1418C48.5715 64.2544 49.4422 65.1287 50.5504 65.1287H84.2707L89.9699 60.3601C89.5742 59.923 89.2971 59.3269 89.2971 58.6911ZM85.2998 61.0754C83.9937 61.0754 82.8855 60.0024 82.8855 58.6514C82.8855 57.34 83.9541 56.2273 85.2998 56.2273C86.6058 56.2273 87.714 57.3003 87.714 58.6514C87.714 60.0024 86.6454 61.0754 85.2998 61.0754Z" fill="#FBFBFB"/>
<path opacity="0.8" d="M50.5504 68.3077C49.4422 68.3077 48.5715 69.1819 48.5715 70.2946V79.1562C48.5715 80.2689 49.4422 81.1431 50.5504 81.1431H64.9963L80.4317 68.3077H50.5504Z" fill="#FBFBFB"/>
<path d="M47.5833 99.8597L104.417 52.5714" stroke="#FBFBFB" stroke-width="4" stroke-miterlimit="10" stroke-linecap="round"/>
</g>
<defs>
<linearGradient id="paint0_linear_10906_33985" x1="123.8" y1="123" x2="0.800044" y2="1.00001" gradientUnits="userSpaceOnUse">
<stop stop-color="#51636B"/>
<stop offset="1" stop-color="#51636B" stop-opacity="0.6"/>
</linearGradient>
<clipPath id="clip0_10906_33985">
<rect width="60" height="50.4673" fill="white" transform="translate(45.9993 50.9819)"/>
</clipPath>
</defs>
</svg>
