<svg width="150" height="151" viewBox="0 0 150 151" fill="none" xmlns="http://www.w3.org/2000/svg">
<path d="M44.3564 32.5184C44.3564 29.02 43.1188 26.0332 40.6436 23.558C38.1683 21.0828 35.1815 19.8451 31.6832 19.8451C28.1848 19.8451 25.198 21.0828 22.7228 23.558C20.2475 26.0332 19.0099 29.02 19.0099 32.5184C19.0099 36.0167 20.2475 39.0035 22.7228 41.4788C25.198 43.954 28.1848 45.1917 31.6832 45.1917C35.1815 45.1917 38.1683 43.954 40.6436 41.4788C43.1188 39.0035 44.3564 36.0167 44.3564 32.5184ZM150 89.5481C150 93.0464 148.779 96.0167 146.337 98.459L97.7228 147.172C95.1485 149.614 92.1452 150.835 88.7129 150.835C85.2145 150.835 82.2442 149.614 79.802 147.172L9.0099 76.2808C6.50165 73.8385 4.37294 70.5052 2.62376 66.2808C0.874588 62.0563 0 58.195 0 54.6966V13.5085C0 10.0761 1.25413 7.10586 3.76238 4.59761C6.27063 2.08936 9.24092 0.83522 12.6733 0.83522H53.8614C57.3597 0.83522 61.2211 1.70981 65.4455 3.45898C69.67 5.20816 73.0363 7.33687 75.5445 9.84512L146.337 80.5382C148.779 83.1124 150 86.1157 150 89.5481Z" fill="url(#paint0_linear_11071_34218)"/>
<path d="M53.1203 53.845L49.842 57.0519L57.0543 66.9322C57.3579 67.3483 57.7588 67.6873 58.2236 67.921C58.6884 68.1548 59.2035 68.2764 59.7261 68.2759H59.9556C60.3866 68.2755 60.8135 68.3583 61.2118 68.5196C61.61 68.6808 61.9719 68.9173 62.2766 69.2155L71.0461 77.7938L62.4668 86.3048C60.9994 85.8822 59.4515 85.8 57.946 86.0646C56.4404 86.3292 55.0186 86.9333 53.7934 87.829C52.5681 88.7248 51.573 89.8875 50.8872 91.2249C50.2013 92.5624 49.8435 94.0378 49.842 95.5341C49.844 96.9128 50.1489 98.2751 50.7361 99.5285C51.3232 100.782 52.179 101.897 53.2453 102.799C54.3116 103.701 55.5635 104.367 56.9163 104.754C58.2691 105.141 59.6912 105.24 61.0861 105.042C62.481 104.844 63.8162 104.356 65.0013 103.609C66.1864 102.863 67.1936 101.876 67.9547 100.716C68.7158 99.5552 69.213 98.2483 69.4126 96.8835C69.6123 95.5186 69.5097 94.1277 69.1119 92.8051L77.8125 84.4127L80.9859 87.517L79.986 90.448C79.7938 91.013 79.7663 91.6191 79.9064 92.1985C80.0465 92.7779 80.3488 93.3078 80.7793 93.7286L91.4994 104.215C91.8031 104.514 92.1642 104.751 92.562 104.913C92.9598 105.075 93.3863 105.158 93.8171 105.158C94.2479 105.158 94.6745 105.075 95.0722 104.913C95.47 104.751 95.8311 104.514 96.1349 104.215L101.334 99.129C101.64 98.8318 101.882 98.4786 102.048 98.0895C102.213 97.7004 102.298 97.2831 102.298 96.8617C102.298 96.4403 102.213 96.0231 102.048 95.634C101.882 95.2449 101.64 94.8916 101.334 94.5945L90.6142 84.1081C90.184 83.6869 89.6423 83.3913 89.05 83.2542C88.4577 83.1171 87.8381 83.1441 87.2605 83.332L84.2642 84.3101L81.117 81.2315L89.9028 72.7558C91.3603 73.1364 92.8877 73.1845 94.3672 72.8963C95.8467 72.6082 97.2387 71.9915 98.4361 71.0939C99.6334 70.1962 100.604 69.0416 101.273 67.719C101.942 66.3964 102.292 64.9412 102.295 63.4656C102.295 62.6029 102.18 61.7659 101.96 60.9739L94.9448 67.8397L89.1816 66.6724L87.9883 61.038L95.0071 54.1721C93.3375 53.733 91.579 53.7322 89.9089 54.1697C88.2388 54.6073 86.7162 55.4679 85.4944 56.6646C84.2727 57.8613 83.3951 59.3519 82.95 60.9862C82.505 62.6205 82.5082 64.3407 82.9594 65.9733L74.3047 74.5613L65.5549 66.0086C64.9401 65.4073 64.5946 64.5918 64.5944 63.7414V63.5137C64.5944 63.003 64.4698 62.4997 64.2309 62.0457C63.992 61.5917 63.6457 61.2 63.2208 60.9033L53.1203 53.845ZM84.7428 87.9852C84.8951 87.8358 85.0759 87.7174 85.2751 87.6365C85.4742 87.5557 85.6877 87.5141 85.9033 87.5141C86.1189 87.5141 86.3324 87.5557 86.5315 87.6365C86.7307 87.7174 86.9116 87.8358 87.0638 87.9852L96.6168 97.3331C96.9154 97.6355 97.0806 98.0406 97.0768 98.461C97.0731 98.8814 96.9007 99.2836 96.5968 99.5808C96.2929 99.8781 95.8818 100.047 95.452 100.05C95.0222 100.054 94.6082 99.8924 94.299 99.6004L84.7428 90.2556C84.5901 90.1067 84.469 89.9297 84.3864 89.7349C84.3038 89.5401 84.2612 89.3313 84.2612 89.1204C84.2612 88.9095 84.3038 88.7006 84.3864 88.5058C84.469 88.311 84.5901 88.1341 84.7428 87.9852ZM59.6769 89.1204L61.221 89.8964L62.9552 89.9798L63.8961 91.4069L65.3549 92.3272L65.4402 94.0237L66.2335 95.5341L65.4402 97.0445L65.3549 98.7409L63.8961 99.6613L62.9552 101.088L61.221 101.172L59.6769 101.948L58.1329 101.172L56.3986 101.088L55.4578 99.6613L53.9989 98.7409L53.9137 97.0445L53.1203 95.5341L53.9137 94.0237L53.9989 92.3272L55.4578 91.4069L56.3986 89.9798L58.1329 89.8964L59.6769 89.1204Z" fill="#FBFBFB"/>
<defs>
<linearGradient id="paint0_linear_11071_34218" x1="123" y1="123" x2="-4.52051e-06" y2="1.00001" gradientUnits="userSpaceOnUse">
<stop stop-color="#51636B"/>
<stop offset="1" stop-color="#51636B" stop-opacity="0.6"/>
</linearGradient>
</defs>
</svg>
