<svg width="150" height="151" viewBox="0 0 150 151" fill="none" xmlns="http://www.w3.org/2000/svg">
<path d="M44.3564 32.5184C44.3564 29.02 43.1188 26.0332 40.6436 23.558C38.1683 21.0828 35.1815 19.8451 31.6832 19.8451C28.1848 19.8451 25.198 21.0828 22.7228 23.558C20.2475 26.0332 19.0099 29.02 19.0099 32.5184C19.0099 36.0167 20.2475 39.0035 22.7228 41.4788C25.198 43.954 28.1848 45.1917 31.6832 45.1917C35.1815 45.1917 38.1683 43.954 40.6436 41.4788C43.1188 39.0035 44.3564 36.0167 44.3564 32.5184ZM150 89.5481C150 93.0464 148.779 96.0167 146.337 98.459L97.7228 147.172C95.1485 149.614 92.1452 150.835 88.7129 150.835C85.2145 150.835 82.2442 149.614 79.802 147.172L9.0099 76.2808C6.50165 73.8385 4.37294 70.5052 2.62376 66.2808C0.874588 62.0563 0 58.195 0 54.6966V13.5085C0 10.0761 1.25413 7.10586 3.76238 4.59761C6.27063 2.08936 9.24092 0.83522 12.6733 0.83522H53.8614C57.3597 0.83522 61.2211 1.70981 65.4455 3.45898C69.67 5.20816 73.0363 7.33687 75.5445 9.84512L146.337 80.5382C148.779 83.1124 150 86.1157 150 89.5481Z" fill="url(#paint0_linear_10906_34072)"/>
<path fill-rule="evenodd" clip-rule="evenodd" d="M75 46C83.284 46 90.7852 49.3586 96.2133 54.7867C101.641 60.216 105 67.716 105 76C105 84.284 101.641 91.7852 96.2133 97.2133C90.7852 102.641 83.284 106 75 106C66.716 106 59.216 102.641 53.7867 97.2133C48.3586 91.7852 45 84.284 45 76C45 67.716 48.3586 60.216 53.7867 54.7867C59.216 49.3586 66.716 46 75 46ZM72.4324 81.4715V81.2289C72.4512 79.6211 72.6094 78.3473 72.9187 77.4004C73.2223 76.4535 73.6594 75.6836 74.2289 75.1C74.7996 74.5117 75.4852 73.9773 76.2867 73.4922C76.8023 73.1641 77.2699 72.8008 77.6824 72.3941C78.0949 71.9934 78.423 71.5258 78.6645 70.9984C78.907 70.4758 79.0289 69.8945 79.0289 69.2512C79.0289 68.4859 78.8473 67.8238 78.4828 67.2602C78.1254 66.7012 77.6402 66.2711 77.0449 65.9617C76.4438 65.6582 75.777 65.5059 75.0422 65.5059C74.3801 65.5059 73.7496 65.6406 73.1426 65.9195C72.5426 66.1926 72.0387 66.6227 71.6437 67.2051C71.25 67.7887 71.0191 68.5352 70.9582 69.4445H67.0254C67.0875 67.8965 67.4812 66.5863 68.2031 65.5129C68.9309 64.4395 69.8906 63.625 71.0801 63.073C72.2754 62.5211 73.5984 62.248 75.0422 62.248C76.6324 62.248 78.0164 62.5387 79.2047 63.134C80.3941 63.7223 81.3234 64.5473 81.9844 65.6043C82.6395 66.659 82.9734 67.8859 82.9734 69.2934C82.9734 70.2578 82.8223 71.1262 82.5187 71.8961C82.2152 72.6672 81.7898 73.3586 81.232 73.9598C80.673 74.5668 80.0121 75.1 79.2363 75.5617C78.5016 76.0234 77.9062 76.4957 77.4574 76.9879C77.0027 77.4789 76.6746 78.0625 76.4684 78.7293C76.2621 79.402 76.1461 80.234 76.1285 81.2289V81.4715H72.4324ZM74.3871 89.7531C73.677 89.7531 73.0699 89.4977 72.5602 88.9937C72.0516 88.491 71.802 87.8769 71.802 87.1621C71.802 86.4578 72.0504 85.8508 72.5602 85.3469C73.0699 84.843 73.677 84.5887 74.3871 84.5887C75.0844 84.5887 75.6902 84.8453 76.2012 85.3469C76.7156 85.852 76.9723 86.4578 76.9723 87.1621C76.9723 87.6355 76.8492 88.0715 76.6137 88.4605C76.377 88.8531 76.0676 89.1719 75.6797 89.4016C75.2918 89.6312 74.8605 89.7531 74.3871 89.7531Z" fill="#FBFBFB"/>
<defs>
<linearGradient id="paint0_linear_10906_34072" x1="123" y1="123" x2="-4.52051e-06" y2="1.00001" gradientUnits="userSpaceOnUse">
<stop stop-color="#51636B"/>
<stop offset="1" stop-color="#51636B" stop-opacity="0.6"/>
</linearGradient>
</defs>
</svg>
