<svg width="575" height="575" viewBox="0 0 575 575" fill="none" xmlns="http://www.w3.org/2000/svg">
<path d="M287.5 0C128.984 0 0 128.55 0 287.5C0 446.016 128.55 575 287.5 575C446.016 575 575 446.45 575 287.5C575 128.55 446.016 0 287.5 0ZM481.628 337.878C481.628 355.249 471.639 370.449 452.096 373.924C418.221 379.999 346.998 383.478 287.5 383.478C228.002 383.478 156.779 379.999 122.904 373.924C103.361 370.449 93.3724 355.249 93.3724 337.878V225.831C93.3724 208.459 106.835 192.39 122.904 189.785C132.893 188.048 156.344 186.31 174.585 186.31C181.533 186.31 187.179 191.522 187.179 199.773V278.38L287.934 276.208L388.69 278.38V199.773C388.69 191.522 394.335 186.31 401.284 186.31C419.524 186.31 442.976 188.048 452.965 189.785C469.468 192.39 482.496 208.459 482.496 225.831C481.628 262.745 481.628 300.529 481.628 337.878Z" fill="white"/>
</svg>