<svg xmlns="http://www.w3.org/2000/svg" role="img" viewBox="-0.80 35.45 431.60 352.35"><defs><clipPath id="clip-path"><path d="M322.25 273.623v84.987a13.423 13.423 0 0 0 13.383 13.383 15.23 15.23 0 0 0 6.692-1.673l73.61-42.493a13.495 13.495 0 0 0 6.692-11.71V231.13a13.423 13.423 0 0 0-13.384-13.383 15.23 15.23 0 0 0-6.692 1.673l-73.61 42.827a13.363 13.363 0 0 0-6.692 11.376z" class="cls-1"/></clipPath><clipPath id="clip-path-2"><path d="M295.482 45.767l-73.61 42.493a13.495 13.495 0 0 0-6.692 11.71v84.987a13.423 13.423 0 0 0 13.384 13.383 15.23 15.23 0 0 0 6.691-1.673l73.61-42.493a13.495 13.495 0 0 0 6.692-11.71V57.143a13.423 13.423 0 0 0-13.383-13.384 12.064 12.064 0 0 0-6.692 2.008z" class="cls-1"/></clipPath><clipPath id="clip-path-3"><path d="M108.11 273.623v84.987a13.423 13.423 0 0 0 13.384 13.383 15.23 15.23 0 0 0 6.692-1.673l73.61-42.493a13.495 13.495 0 0 0 6.692-11.71V231.13a13.423 13.423 0 0 0-13.383-13.383 15.23 15.23 0 0 0-6.692 1.673l-73.61 42.827a13.363 13.363 0 0 0-6.692 11.376z" class="cls-1"/></clipPath><style>.cls-1{fill:#fff}</style></defs><path d="M315.557 262.247l-73.61-42.493a13.519 13.519 0 0 0-18.402 4.684 15.23 15.23 0 0 0-1.673 6.692v84.986a14.368 14.368 0 0 0 6.692 11.711l86.993 50.189a13.625 13.625 0 0 0 13.384 0l86.994-50.189a13.495 13.495 0 0 0 6.691-11.71V231.13a13.423 13.423 0 0 0-13.383-13.383 15.23 15.23 0 0 0-6.692 1.673l-73.61 42.827a13.625 13.625 0 0 1-13.384 0z" class="cls-1"/><path d="M322.25 273.623v84.987a13.423 13.423 0 0 0 13.383 13.383 15.23 15.23 0 0 0 6.692-1.673l73.61-42.493a13.495 13.495 0 0 0 6.692-11.71V231.13a13.423 13.423 0 0 0-13.384-13.383 15.23 15.23 0 0 0-6.692 1.673l-73.61 42.827a13.363 13.363 0 0 0-6.692 11.376z" class="cls-1"/><g clip-path="url(#clip-path)"><rect width="100.377" x="322.249" y="217.747" class="cls-1"/><path d="M322.249 217.747h100.377v2.706H322.249zm0 2.706h100.377v2.706H322.249zm0 2.706h100.377v2.706H322.249zm0 2.706h100.377v2.706H322.249zm0 2.706h100.377v2.706H322.249zm0 2.706h100.377v2.706H322.249zm0 2.706h100.377v2.706H322.249zm0 2.706h100.377v2.706H322.249zm0 2.706h100.377v2.706H322.249zm0 2.706h100.377v2.706H322.249zm0 2.706h100.377v2.706H322.249zm0 2.707h100.377v2.706H322.249zm0 2.706h100.377v2.706H322.249zm0 2.706h100.377v2.706H322.249zm0 2.706h100.377v2.706H322.249zm0 2.706h100.377v2.706H322.249zm0 2.706h100.377v2.706H322.249zm0 2.706h100.377v2.706H322.249zm0 2.706h100.377v2.706H322.249zm0 2.706h100.377v2.706H322.249zm0 2.706h100.377v2.706H322.249zm0 2.706h100.377v2.706H322.249zm0 2.706h100.377v2.706H322.249zm0 2.706h100.377v2.706H322.249zm0 2.707h100.377v2.706H322.249zm0 2.706h100.377v2.706H322.249zm0 2.706h100.377v2.706H322.249z" class="cls-1"/><path d="M322.249 290.811h100.377v2.706H322.249zm0 2.706h100.377v2.706H322.249zm0 2.706h100.377v2.706H322.249z" class="cls-1"/><path d="M322.249 298.929h100.377v2.706H322.249zm0 2.706h100.377v2.706H322.249zm0 2.706h100.377v2.706H322.249zm0 2.706h100.377v2.706H322.249z" class="cls-1"/><path d="M322.249 309.753h100.377v2.706H322.249zm0 2.706h100.377v2.706H322.249zm0 2.707h100.377v2.706H322.249zm0 2.706h100.377v2.706H322.249z" class="cls-1"/><path d="M322.249 320.578h100.377v2.706H322.249zm0 2.706h100.377v2.706H322.249zm0 2.706h100.377v2.706H322.249zm0 2.706h100.377v2.706H322.249z" class="cls-1"/><path d="M322.249 331.402h100.377v2.706H322.249zm0 2.706h100.377v2.706H322.249zm0 2.706h100.377v2.706H322.249z" class="cls-1"/><path d="M322.249 339.52h100.377v2.706H322.249zm0 2.706h100.377v2.706H322.249zm0 2.706h100.377v2.706H322.249z" class="cls-1"/><path d="M322.249 347.638h100.377v2.706H322.249zm0 2.707h100.377v2.706H322.249zm0 2.706h100.377v2.706H322.249zm0 2.706h100.377v2.706H322.249zm0 2.706h100.377v2.706H322.249z" class="cls-1"/><path d="M322.249 361.169h100.377v2.706H322.249zm0 2.706h100.377v2.706H322.249zm0 2.706h100.377v2.706H322.249z" class="cls-1"/><path d="M322.249 369.287h100.377v2.706H322.249z" class="cls-1"/></g><path d="M295.482 45.767l-73.61 42.493a13.625 13.625 0 0 1-13.384 0l-73.61-42.493a13.519 13.519 0 0 0-18.402 4.684 15.23 15.23 0 0 0-1.673 6.692v84.986a14.368 14.368 0 0 0 6.691 11.71l86.994 50.19a13.625 13.625 0 0 0 13.384 0l86.993-50.19a13.495 13.495 0 0 0 6.692-11.71V57.143a13.423 13.423 0 0 0-13.383-13.384 12.064 12.064 0 0 0-6.692 2.008z" class="cls-1"/><path d="M295.482 45.767l-73.61 42.493a13.495 13.495 0 0 0-6.692 11.71v84.987a13.423 13.423 0 0 0 13.384 13.383 15.23 15.23 0 0 0 6.691-1.673l73.61-42.493a13.495 13.495 0 0 0 6.692-11.71V57.143a13.423 13.423 0 0 0-13.383-13.384 12.064 12.064 0 0 0-6.692 2.008z" class="cls-1"/><g clip-path="url(#clip-path-2)"><rect width="100.377" x="215.18" y="43.759" class="cls-1"/><path d="M215.18 43.759h100.377v2.708H215.18zm0 2.709h100.377v2.708H215.18zm0 2.708h100.377v2.708H215.18zm0 2.708h100.377v2.708H215.18zm0 2.709h100.377v2.708H215.18zm0 2.708h100.377v2.708H215.18zm0 2.708h100.377v2.708H215.18zm0 2.709h100.377v2.708H215.18zm0 2.708h100.377v2.708H215.18zm0 2.708h100.377v2.708H215.18zm0 2.709h100.377v2.708H215.18zm0 2.708h100.377v2.708H215.18zm0 2.708h100.377v2.708H215.18zm0 2.709h100.377v2.708H215.18zm0 2.708h100.377v2.708H215.18zm0 2.708h100.377v2.708H215.18zm0 2.709h100.377v2.708H215.18zm0 2.708h100.377v2.708H215.18zm0 2.708h100.377v2.708H215.18zm0 2.709h100.377v2.708H215.18zm0 2.708h100.377v2.708H215.18zm0 2.708h100.377v2.708H215.18zm0 2.709h100.377v2.708H215.18zm0 2.708h100.377v2.708H215.18zm0 2.709h100.377v2.708H215.18zm0 2.708h100.377v2.708H215.18zm0 2.708h100.377v2.708H215.18zm0 2.709h100.377v2.708H215.18zm0 2.708h100.377v2.708H215.18zm0 2.708h100.377v2.708H215.18zm0 2.709h100.377v2.708H215.18zm0 2.708h100.377v2.708H215.18z" class="cls-1"/><path d="M215.18 130.426h100.377v2.708H215.18zm0 2.709h100.377v2.708H215.18zm0 2.708h100.377v2.708H215.18zm0 2.708h100.377v2.708H215.18zm0 2.709h100.377v2.708H215.18zm0 2.708h100.377v2.708H215.18zm0 2.708h100.377v2.708H215.18zm0 2.709h100.377v2.708H215.18zm0 2.708h100.377v2.708H215.18zm0 2.708h100.377v2.708H215.18zm0 2.709h100.377v2.708H215.18zm0 2.708h100.377v2.708H215.18zm0 2.708h100.377v2.708H215.18zm0 2.709h100.377v2.708H215.18zm0 2.708h100.377v2.708H215.18zm0 2.708h100.377v2.708H215.18zm0 2.709h100.377v2.708H215.18zm0 2.708h100.377v2.708H215.18zm0 2.709h100.377v2.708H215.18zm0 2.708h100.377v2.708H215.18zm0 2.708h100.377v2.708H215.18zm0 2.709h100.377v2.708H215.18zm0 2.708h100.377v2.708H215.18zm0 2.708h100.377v2.708H215.18zm0 2.709h100.377v2.708H215.18zm0 2.708h100.377v.205H215.18z" class="cls-1"/></g><path d="M101.419 262.247l-73.61-42.493a13.519 13.519 0 0 0-18.403 4.684 15.23 15.23 0 0 0-1.673 6.692v84.986a14.368 14.368 0 0 0 6.692 11.711l86.994 50.189a13.625 13.625 0 0 0 13.384 0l86.993-50.189a13.495 13.495 0 0 0 6.692-11.71V231.13a13.423 13.423 0 0 0-13.383-13.383 15.23 15.23 0 0 0-6.692 1.673l-73.61 42.827a13.625 13.625 0 0 1-13.384 0z" class="cls-1"/><path d="M108.11 273.623v84.987a13.423 13.423 0 0 0 13.384 13.383 15.23 15.23 0 0 0 6.692-1.673l73.61-42.493a13.495 13.495 0 0 0 6.692-11.71V231.13a13.423 13.423 0 0 0-13.383-13.383 15.23 15.23 0 0 0-6.692 1.673l-73.61 42.827a13.363 13.363 0 0 0-6.692 11.376z" class="cls-1"/><g clip-path="url(#clip-path-3)"><rect width="100.377" x="108.111" y="217.747" class="cls-1"/><path d="M108.111 217.747h100.377v2.706H108.111zm0 2.706h100.377v2.706H108.111zm0 2.706h100.377v2.706H108.111zm0 2.706h100.377v2.706H108.111zm0 2.706h100.377v2.706H108.111zm0 2.706h100.377v2.706H108.111zm0 2.706h100.377v2.706H108.111zm0 2.706h100.377v2.706H108.111zm0 2.706h100.377v2.706H108.111zm0 2.706h100.377v2.706H108.111zm0 2.706h100.377v2.706H108.111zm0 2.707h100.377v2.706H108.111zm0 2.706h100.377v2.706H108.111zm0 2.706h100.377v2.706H108.111zm0 2.706h100.377v2.706H108.111zm0 2.706h100.377v2.706H108.111zm0 2.706h100.377v2.706H108.111zm0 2.706h100.377v2.706H108.111zm0 2.706h100.377v2.706H108.111zm0 2.706h100.377v2.706H108.111zm0 2.706h100.377v2.706H108.111zm0 2.706h100.377v2.706H108.111zm0 2.706h100.377v2.706H108.111zm0 2.706h100.377v2.706H108.111zm0 2.707h100.377v2.706H108.111zm0 2.706h100.377v2.706H108.111zm0 2.706h100.377v2.706H108.111z" class="cls-1"/><path d="M108.111 290.811h100.377v2.706H108.111zm0 2.706h100.377v2.706H108.111zm0 2.706h100.377v2.706H108.111z" class="cls-1"/><path d="M108.111 298.929h100.377v2.706H108.111zm0 2.706h100.377v2.706H108.111zm0 2.706h100.377v2.706H108.111zm0 2.706h100.377v2.706H108.111z" class="cls-1"/><path d="M108.111 309.753h100.377v2.706H108.111zm0 2.706h100.377v2.706H108.111zm0 2.707h100.377v2.706H108.111zm0 2.706h100.377v2.706H108.111z" class="cls-1"/><path d="M108.111 320.578h100.377v2.706H108.111zm0 2.706h100.377v2.706H108.111zm0 2.706h100.377v2.706H108.111zm0 2.706h100.377v2.706H108.111z" class="cls-1"/><path d="M108.111 331.402h100.377v2.706H108.111zm0 2.706h100.377v2.706H108.111zm0 2.706h100.377v2.706H108.111z" class="cls-1"/><path d="M108.111 339.52h100.377v2.706H108.111zm0 2.706h100.377v2.706H108.111zm0 2.706h100.377v2.706H108.111z" class="cls-1"/><path d="M108.111 347.638h100.377v2.706H108.111zm0 2.707h100.377v2.706H108.111zm0 2.706h100.377v2.706H108.111zm0 2.706h100.377v2.706H108.111zm0 2.706h100.377v2.706H108.111z" class="cls-1"/><path d="M108.111 361.169h100.377v2.706H108.111zm0 2.706h100.377v2.706H108.111zm0 2.706h100.377v2.706H108.111z" class="cls-1"/><path d="M108.111 369.287h100.377v2.706H108.111z" class="cls-1"/></g></svg>