<svg width="40" height="40" viewBox="0 0 40 40" xmlns="http://www.w3.org/2000/svg">  <g id="Icon-Architecture/32/Arch_AWS-Thinkbox-Frost_32" stroke="none" stroke-width="1" fill="none" fill-rule="evenodd">  <g id="Icon-Service/32/AWS-ThinkBox-Frost_32" transform="translate(6.800000, 6.000000)" fill="#FFFFFF"> <path d="M18.232,23.566 L13.232,20.233 L13.232,17.809 L15.726,16.562 L18.232,17.88 L18.232,23.566 Z M7.232,23.566 L7.232,17.88 L9.738,16.562 L12.232,17.809 L12.232,20.233 L7.232,23.566 Z M1.724,14 L6.816,11.03 L9.232,12.302 L9.232,15.698 L6.816,16.97 L1.724,14 Z M7.232,4.434 L12.232,7.768 L12.232,10.191 L9.738,11.438 L7.232,10.12 L7.232,4.434 Z M12.732,16.941 L10.232,15.691 L10.232,12.309 L12.732,11.059 L15.232,12.309 L15.232,15.691 L12.732,16.941 Z M18.232,4.434 L18.232,10.12 L15.726,11.438 L13.232,10.191 L13.232,7.768 L18.232,4.434 Z M23.74,14 L18.648,16.97 L16.232,15.698 L16.232,12.302 L18.648,11.03 L23.74,14 Z M25.454,18.448 L25.01,17.552 L22.297,18.891 L19.692,17.52 L24.984,14.432 C25.137,14.342 25.232,14.178 25.232,14 C25.232,13.822 25.137,13.658 24.984,13.568 L19.692,10.481 L22.297,9.109 L25.01,10.448 L25.454,9.552 L23.391,8.534 L25.464,7.442 L25,6.558 L22.903,7.661 L23.155,5.447 L22.161,5.334 L21.832,8.225 L19.232,9.593 L19.232,3.5 C19.232,3.316 19.13,3.146 18.968,3.059 C18.806,2.973 18.609,2.982 18.455,3.084 L13.232,6.566 L13.232,3.741 L15.544,1.891 L14.919,1.109 L13.232,2.46 L13.232,0 L12.232,0 L12.232,2.46 L10.545,1.109 L9.919,1.891 L12.232,3.741 L12.232,6.566 L7.009,3.084 C6.855,2.982 6.659,2.973 6.496,3.059 C6.334,3.146 6.232,3.316 6.232,3.5 L6.232,9.593 L3.632,8.225 L3.303,5.334 L2.309,5.447 L2.561,7.661 L0.464,6.558 L0,7.442 L2.073,8.534 L0.01,9.552 L0.454,10.448 L3.167,9.109 L5.772,10.481 L0.48,13.568 C0.327,13.658 0.232,13.822 0.232,14 C0.232,14.178 0.327,14.342 0.48,14.432 L5.772,17.52 L3.167,18.891 L0.454,17.552 L0.01,18.448 L2.073,19.466 L0,20.558 L0.464,21.442 L2.561,20.339 L2.309,22.553 L3.303,22.666 L3.632,19.775 L6.232,18.407 L6.232,24.5 C6.232,24.685 6.334,24.854 6.496,24.941 C6.659,25.028 6.855,25.018 7.009,24.916 L12.232,21.435 L12.232,24.259 L9.919,26.109 L10.545,26.891 L12.232,25.54 L12.232,28 L13.232,28 L13.232,25.54 L14.919,26.891 L15.544,26.109 L13.232,24.259 L13.232,21.435 L18.455,24.916 C18.539,24.972 18.635,25 18.732,25 C18.813,25 18.894,24.981 18.968,24.941 C19.13,24.854 19.232,24.685 19.232,24.5 L19.232,18.407 L21.832,19.775 L22.161,22.666 L23.155,22.553 L22.903,20.339 L25,21.442 L25.464,20.558 L23.391,19.466 L25.454,18.448 Z" id="AWS-ThinkBox-Frost_32_Squid"></path> </g> </g></svg>