<svg width="40" height="40" viewBox="0 0 40 40" fill="none" xmlns="http://www.w3.org/2000/svg">
<g clip-path="url(#clip0_23298_4002)">
<path d="M40 0H0V40H40V0Z" fill="#01A88D" fill-opacity="0.12"/>
<path fill-rule="evenodd" clip-rule="evenodd" d="M23.772 10.785C23.772 11.336 24.22 11.785 24.772 11.785C25.324 11.785 25.772 11.336 25.772 10.785C25.772 10.234 25.324 9.785 24.772 9.785C24.22 9.785 23.772 10.234 23.772 10.785ZM22.772 10.785C22.772 9.682 23.669 8.785 24.772 8.785C25.875 8.785 26.772 9.682 26.772 10.785C26.772 11.888 25.875 12.785 24.772 12.785C23.669 12.785 22.772 11.888 22.772 10.785ZM31.544 21.936C31.544 28.428 26.263 33.708 19.772 33.708C13.281 33.708 8 28.428 8 21.936C8 18.713 9.277 15.705 11.596 13.466L19.398 6L20.089 6.723L12.29 14.187C10.168 16.234 9 18.987 9 21.936C9 27.876 13.832 32.708 19.772 32.708C25.712 32.708 30.544 27.876 30.544 21.936C30.544 18.957 29.355 16.185 27.196 14.131L27.885 13.406C30.245 15.651 31.544 18.681 31.544 21.936Z" fill="#01A88D"/>
</g>
<rect x="0.5" y="0.5" width="39" height="39" stroke="#01A88D"/>
<defs>
<clipPath id="clip0_23298_4002">
<rect width="40" height="40" fill="white"/>
</clipPath>
</defs>
</svg>
