<svg width="40" height="40" viewBox="0 0 40 40" fill="none" xmlns="http://www.w3.org/2000/svg">
<g clip-path="url(#clip0_23296_3582)">
<path d="M40 0H0V40H40V0Z" fill="#C925D1" fill-opacity="0.12"/>
<path fill-rule="evenodd" clip-rule="evenodd" d="M24 30.0011H30V29.0011H24V30.0011ZM18.854 29.8551L22.854 25.8551C23.049 25.6591 23.049 25.3431 22.854 25.1471L18.854 21.1471L18.147 21.8551L21.793 25.5011L18.147 29.1471L18.854 29.8551ZM14 33.0011H33V18.0011H14V33.0011ZM34 17.5011V33.5011C34 33.7771 33.776 34.0011 33.5 34.0011H13.5C13.224 34.0011 13 33.7771 13 33.5011V17.5011C13 17.2251 13.224 17.0011 13.5 17.0011H33.5C33.776 17.0011 34 17.2251 34 17.5011ZM12.178 8.05009C10.88 8.60209 9.863 10.1921 9.863 11.6711L9.895 12.1941C9.908 12.4331 9.752 12.6481 9.521 12.7081C8.766 12.9011 7.5 13.4991 7.5 15.3181C7.5 16.6901 8.242 17.4471 8.864 17.8401C8.94 17.8821 9.266 17.9621 9.543 18.0071L11 18.0011V19.0011H9.463C9.155 18.9581 8.598 18.8541 8.331 18.6861C7.647 18.2541 6.5 17.2421 6.5 15.3181C6.5 13.6651 7.379 12.3991 8.873 11.8611L8.864 11.7001C8.863 9.79009 10.12 7.83809 11.787 7.13009C13.736 6.30209 15.806 6.71309 17.314 8.23109C17.733 8.65309 18.085 9.15509 18.364 9.73009C18.959 9.32309 19.718 9.20109 20.424 9.43409C21.382 9.74809 21.989 10.6061 22.095 11.7631C22.75 11.9371 23.759 12.3471 24.399 13.2961C24.788 13.8731 24.985 14.5621 24.985 15.3451H23.985C23.985 14.7651 23.846 14.2631 23.57 13.8551C22.989 12.9951 21.943 12.7331 21.521 12.6601C21.25 12.6131 21.067 12.3571 21.112 12.0861C21.111 11.2301 20.747 10.5921 20.112 10.3841C19.553 10.2001 18.94 10.4031 18.584 10.8891C18.475 11.0381 18.29 11.1121 18.108 11.0871C17.925 11.0601 17.772 10.9341 17.71 10.7591C17.452 10.0271 17.08 9.41409 16.606 8.93709C16.023 8.35209 14.428 7.09509 12.178 8.05009Z" fill="#C925D1"/>
</g>
<rect x="0.5" y="0.5" width="39" height="39" stroke="#C925D1"/>
<defs>
<clipPath id="clip0_23296_3582">
<rect width="40" height="40" fill="white"/>
</clipPath>
</defs>
</svg>
