<svg width="90" height="90" viewBox="0 0 90 90" fill="none" xmlns="http://www.w3.org/2000/svg">
<path fill-rule="evenodd" clip-rule="evenodd" d="M81.9907 19.235C81.9907 29.0297 65.4276 36.97 44.9961 36.97C24.5645 36.97 8.00146 29.0297 8.00146 19.235C8.00146 9.44022 24.5645 1.5 44.9961 1.5C65.4276 1.5 81.9907 9.44022 81.9907 19.235ZM8.00932 25.8447V70.7651H8.00937C8.0095 80.5598 24.5725 88.5 45.004 88.5C65.4355 88.5 81.9986 80.5598 81.9986 70.765L81.9985 70.7368V25.8271C78.2557 33.7791 63.112 39.7288 44.9998 39.7288C26.9009 39.7288 11.7662 33.7879 8.00932 25.8447ZM29.3709 47.2037H59.939C60.1314 47.2037 60.2874 47.3597 60.2874 47.5521V77.9148C60.2874 78.1073 60.1315 78.2633 59.939 78.2633H29.3709C29.1785 78.2633 29.0225 78.1073 29.0225 77.9148V47.5521C29.0225 47.3597 29.1785 47.2037 29.3709 47.2037ZM27.5802 47.5521C27.5802 46.5631 28.3819 45.7614 29.3709 45.7614H59.939C60.928 45.7614 61.7298 46.5631 61.7298 47.5521V77.9148C61.7298 78.9038 60.928 79.7056 59.939 79.7056H29.3709C28.3819 79.7056 27.5802 78.9038 27.5802 77.9148V47.5521ZM35.9291 54.1153C34.9401 54.1153 34.1383 54.9171 34.1383 55.9061V60.7562C34.1383 61.7452 34.9401 62.547 35.9291 62.547H41.3104C42.2994 62.547 43.1012 61.7452 43.1012 60.7562V55.9061C43.1012 54.9171 42.2994 54.1153 41.3104 54.1153H35.9291ZM34.1383 66.0943C34.1383 65.1053 34.9401 64.3035 35.9291 64.3035H41.3104C42.2994 64.3035 43.1012 65.1053 43.1012 66.0943V70.9444C43.1012 71.9334 42.2994 72.7352 41.3104 72.7352H35.9291C34.9401 72.7352 34.1383 71.9334 34.1383 70.9444V66.0943ZM44.9697 55.8259C44.2422 56.496 44.2422 57.5823 44.9697 58.2524L48.808 61.788C49.5354 62.458 50.7148 62.458 51.4422 61.788L55.1457 58.3766C55.8731 57.7066 55.8731 56.6202 55.1457 55.9501L51.3074 52.4145C50.58 51.7445 49.4006 51.7445 48.6731 52.4145L44.9697 55.8259ZM45.3967 66.0943C45.3967 65.1053 46.1984 64.3035 47.1874 64.3035H52.5688C53.5578 64.3035 54.3596 65.1053 54.3596 66.0943V70.9444C54.3596 71.9334 53.5578 72.7352 52.5688 72.7352H47.1874C46.1984 72.7352 45.3967 71.9334 45.3967 70.9444V66.0943Z" fill="white"/>
</svg>
