<svg width="40" height="40" viewBox="0 0 40 40" xmlns="http://www.w3.org/2000/svg">  <g id="Icon-Architecture/32/Arch_Amazon-FSx-for-WFS_32" stroke="none" stroke-width="1" fill="none" fill-rule="evenodd">  <g id="Icon-Service/32/Amazon-FSx-for-WFS_32" transform="translate(6.000000, 14.000000)" fill="#FFFFFF"> <path d="M27,11 L21,11 L21,11.5 C21,11.776 21.225,12 21.5,12 L26.5,12 C26.775,12 27,11.776 27,11.5 L27,11 Z M22,10 L26,10 L26,7 L22,7 L22,10 Z M28,10.5 L28,11.5 C28,12.327 27.327,13 26.5,13 L21.5,13 C20.673,13 20,12.327 20,11.5 L20,10.5 C20,10.224 20.224,10 20.5,10 L21,10 L21,6.5 C21,6.224 21.224,6 21.5,6 L26.5,6 C26.776,6 27,6.224 27,6.5 L27,10 L27.5,10 C27.776,10 28,10.224 28,10.5 L28,10.5 Z M11.414,5.773 L9.75,5.112 C9.2,4.897 8.777,4.695 8.482,4.507 C8.188,4.319 7.975,4.109 7.845,3.878 C7.715,3.647 7.65,3.344 7.65,2.967 C7.65,2.301 7.863,1.787 8.288,1.427 C8.713,1.067 9.324,0.887 10.123,0.887 C10.941,0.887 11.88,1.081 12.937,1.467 L12.937,0.645 C12.491,0.441 12.018,0.282 11.515,0.169 C11.012,0.057 10.532,0 10.076,0 C9.07,0 8.26,0.277 7.643,0.831 C7.025,1.384 6.718,2.107 6.718,2.999 C6.718,3.655 6.904,4.206 7.277,4.652 C7.65,5.099 8.236,5.482 9.034,5.805 L10.838,6.531 C11.46,6.778 11.911,7.058 12.191,7.369 C12.471,7.681 12.611,8.057 12.611,8.498 C12.611,9.218 12.354,9.788 11.841,10.207 C11.328,10.626 10.642,10.836 9.781,10.836 C8.868,10.836 7.868,10.632 6.779,10.224 L6.779,11.046 C7.682,11.497 8.708,11.723 9.858,11.723 C10.968,11.723 11.861,11.428 12.541,10.836 C13.22,10.245 13.56,9.471 13.56,8.514 C13.56,7.858 13.389,7.313 13.046,6.877 C12.704,6.442 12.16,6.074 11.414,5.773 L11.414,5.773 Z M14.077,11.509 L15.329,11.509 L17.417,8.346 L16.854,7.52 L14.077,11.509 Z M0,11.449 L0.917,11.449 L0.917,6.257 L5.256,6.257 L5.256,5.402 L0.917,5.402 L0.917,1.129 L6.049,1.129 L6.049,0.274 L0,0.274 L0,11.449 Z M17.496,5.067 L15.658,2.346 L14.354,2.346 L16.838,5.976 L17.496,5.067 Z M20.21,9 L19,9 L17.389,6.751 L20.383,2.346 L21.617,2.346 L18.629,6.667 L20.21,9 Z" id="Amazon-FSx-for-WFS_Icon_32_Squid"></path> </g> </g></svg>