<svg version="1.1" viewBox="0 0 1024 1024" xmlns="http://www.w3.org/2000/svg">
 <path d="m511.6 101.6c-12.01 1.278-21.28 11.35-21.28 23.59 0 0.837 0.043 1.664 0.128 2.479l-9e-3 -0.102c0 0.231 0.038 0.442 0.058 0.673-0.02 1.943-0.115 4.309-0.058 6.021 0.635 7.54 1.732 15.04 3.213 22.45 1.115 7.002 1.905 14.04 2.328 21.1-2.655 6.348-5.194 13.02-8.522 18.56-1.866 3.097-7.098 13.62-12.64 24.04-4.328 3.463-9.137 2.347-15.5-3.367-5.771-5.194-10.68-11.39-16.72-16.2-9.81-7.83-16.08-5.713-19.78 5.983-2.212 7.002-3.943 14.16-6.213 21.14-3.347 10.29-9.272 12.79-18.47 7.637-6.348-3.578-12.45-7.695-18.6-11.6-4.693-2.982-9.368-7.502-15.2-4.04-5.425 3.193-5.328 9.272-5.636 15.02-0.385 6.887-1.347 13.77-2.308 20.6-1.443 10.31-7.31 12.93-16.62 9.368-8.06-3.078-16.08-6.252-24.24-9.041-9.368-3.193-14.27 0.462-13.85 10.39 0.346 9.06 1.443 18.1 1.77 27.16 0.25 6.521-2.039 10.91-7.213 12.02-12.52-2.116-30.38-5.56-40.72-7.31-6.521-5.675-12.74-11.66-18.56-18.06-4.848-5.771-10.02-11.29-15.52-16.48-1.423-1.231-3.635-2.905-5.232-4.193-4.476-3.631-10.17-5.923-16.39-6.192l-0.058-2e-3c-7.233-0.385-14.24 2.693-18.8 8.33-2.881 4.022-4.608 9.041-4.608 14.46 0 8.326 4.068 15.7 10.33 20.25l0.072 0.05 0.385 0.27c1.539 1.25 3.424 2.885 4.867 3.925 6.29 4.193 12.81 8.002 19.54 11.44 9.27 5.304 17.14 10.56 24.64 16.28l-0.533-0.39c0.058 1.52 0.385 3.174 1.039 5.002 2.751 7.695 5.944 15.27 9.118 22.83 4.828 11.44 2.116 16.93-10.04 18.93-7.656 1.27-15.58 1.212-23.1 2.924-12.24 2.77-14.52 8.983-7.695 19.18 4.078 6.098 8.58 11.93 12.6 18.06 5.944 9.041 4.193 15.24-5.578 19.18-6.752 2.732-13.76 4.925-20.68 7.272-5.252 1.789-11.7 2.616-12.66 9.349-0.885 6.213 3.905 9.945 8.214 13.79 5.155 4.578 9.888 9.657 14.62 14.68 7.156 7.56 5.521 13.77-3.078 18.83-7.406 4.347-14.91 8.657-22.18 13.27-8.348 5.31-8.56 11.41-0.577 17.31 7.31 5.367 15.04 10.16 22.33 15.58 6.771 5.002 8.137 11.12 1.655 17.37-5.081 4.956-10.46 9.695-16.07 14.15l-0.432 0.332c-3.308 2.558-6.848 5.06-8.368 8.637-0.731 0.654-1.365 1.25-1.808 1.732l-0.654 0.635c-7.887 1.385-15.81 2.385-23.8 2.924-7.58 0.173-15.14 0.77-22.64 1.808-1.808 0.346-4.328 0.962-6.29 1.481l-0.212 0.038-0.327 0.096c-11.58 1.665-20.39 11.52-20.39 23.43 0 13.07 10.59 23.66 23.66 23.66 2.568 0 5.041-0.409 7.357-1.166l-0.167 0.047 0.365-0.058 0.442-0.154c1.943-0.442 4.386-0.904 6.098-1.365 7.195-2.308 14.27-5.002 21.16-8.118 8.263-3.469 18.35-6.797 28.72-9.392l1.522-0.322c1.459 1.217 3.173 2.186 5.044 2.814l0.111 0.032c7.733 2.693 15.62 5.002 23.49 7.272 11.93 3.463 14.48 8.983 8.387 19.72-3.828 6.733-8.848 12.89-12.25 19.81-5.54 11.24-2.116 16.93 10.08 18.02 7.31 0.673 14.66 0.827 21.97 1.558 10.77 1.077 14.47 6.329 11.41 16.39-2.135 7.002-4.848 13.81-7.368 20.68-1.905 5.194-5.31 10.73-0.693 15.7 4.29 4.617 10.2 3.232 15.89 2.308 6.81-1.115 13.74-1.616 20.62-2.155 10.39-0.788 14.18 4.386 12.7 14.24-1.289 8.522-2.655 17.04-3.655 25.58-1.115 9.849 3.501 13.85 13.12 11.35 8.772-2.308 17.37-5.29 26.16-7.56 8.156-2.116 13.76 0.673 14.54 9.657 0.231 2.578 0.385 5.194 0.538 7.772-0.385 12.2-0.847 24.24-0.615 29.39-3.751 6.829-7.81 13.46-12.24 19.89-4.578 6.04-8.81 12.33-12.66 18.85-0.943 1.77-2.116 4.502-3.02 6.348-2.107 3.469-3.353 7.662-3.353 12.15 0 13.08 10.6 23.68 23.68 23.68 10.18 0 18.86-6.427 22.21-15.45l0.053-0.163 0.038-0.038v-0.058c0.904-1.847 2.173-4.27 2.924-5.983 2.269-5.679 4.6-12.89 6.512-20.26l0.298-1.357c1.923-7.002 4.309-13.85 7.118-20.51 1.923-0.27 4.001-1.115 6.195-2.635 6.771-4.617 13.27-9.618 19.78-14.62 9.849-7.58 15.81-6.348 20.87 4.886 3.174 7.079 5.136 14.76 8.695 21.6 5.79 11.14 12.39 11.74 20.51 2.558 4.867-5.502 9.349-11.35 14.27-16.79 7.233-8.041 13.66-7.925 19.95 0.52 4.367 5.848 8.272 12.06 12.31 18.16 3.078 4.617 5.502 10.64 12.25 9.849 6.252-0.712 8.637-6.31 11.25-11.44 3.117-6.155 6.829-12.02 10.46-17.89 5.502-8.848 11.93-8.848 18.99-1.808 6.117 6.06 12.16 12.22 18.47 18.08 7.29 6.733 13.24 5.386 16.91-3.847 3.328-8.464 6.021-17.16 9.387-25.58 3.135-7.81 8.695-10.68 16.39-6.002 6.252 3.809 12.39 7.848 18.2 12.27 1.847 1.405 3.713 2.885 5.636 4.04 1.771 1.61 3.687 3.228 5.663 4.775l0.223 0.168c1.25 0.904 2.5 1.923 3.77 2.885 2.808 6.829 5.31 13.81 7.425 20.93 1.866 7.329 4.155 14.54 6.848 21.62 0.77 1.732 2.02 4.193 2.924 6.04 3.376 9.237 12.09 15.71 22.31 15.71 13.09 0 23.7-10.61 23.7-23.7 0-4.495-1.251-8.697-3.425-12.28l0.059 0.105c-0.904-1.866-2.155-4.578-3.078-6.348-3.847-6.502-8.08-12.77-12.66-18.8-2.838-4.04-5.967-8.938-8.902-13.96l-0.562-1.041c0.923-1.673 1.5-3.809 1.616-6.445 0.423-8.175 0.385-16.39 0.327-24.58-0.077-12.43 4.52-16.45 16.54-13.66 7.54 1.77 14.83 4.848 22.45 6.155 12.37 2.135 16.85-2.751 14.45-14.77-1.443-7.195-3.367-14.31-4.732-21.51-2.02-10.64 1.962-15.68 12.5-15.58 7.29 0.058 14.6 0.712 21.89 1.193 5.54 0.365 11.81 2.058 15.26-3.79 3.213-5.405 0.212-10.7-2.308-15.89-2.982-6.213-5.425-12.7-7.887-19.16-3.713-9.715 0.192-14.83 10.06-16.22 8.522-1.173 17.08-2.27 25.56-3.751 9.753-1.732 12.31-7.272 7.156-15.77-4.693-7.772-10-15.16-14.66-22.95-4.328-7.233-3.251-13.41 5.136-16.7 6.81-2.674 13.74-5.098 20.78-7.06 5.04-1.385 10.39-2.462 12.81-7.118 10.18 2.5 20.16 5.694 29.89 9.618 6.887 3.135 13.96 5.867 21.16 8.175 1.712 0.442 4.136 0.865 6.098 1.308l0.462 0.154 0.327 0.038c2.171 0.725 4.67 1.143 7.267 1.143 13.07 0 23.66-10.59 23.66-23.66 0-11.93-8.823-21.79-20.3-23.42l-0.126-0.015c-2.02-0.462-4.886-1.25-6.848-1.616-7.502-1.039-15.06-1.655-22.62-1.827-8.965-0.577-17.89-1.789-26.72-3.463-0.69-2.744-2.152-5.081-4.14-6.835l-0.015-0.013c-5.626-5.36-11.58-10.73-17.68-15.94l-0.609-0.508c-9.407-8.118-9.407-14.24 0.615-21.41 6.31-4.54 13.43-8.002 19.43-12.87 9.733-7.887 9.022-14.48-1.616-20.58-6.348-3.655-12.96-6.925-19.3-10.62-9.33-5.482-10.5-11.81-3.501-19.66 4.848-5.463 10.16-10.52 15.31-15.7 3.925-3.943 9.33-7.522 7.213-13.98-1.962-5.963-7.906-7.195-13.46-8.715-6.656-1.847-13.16-4.29-19.62-6.695-9.772-3.617-11.06-9.907-5.578-18.24 4.713-7.195 9.541-14.35 14-21.74 5.136-8.464 2.635-14.02-7.156-15.77-8.925-1.577-17.99-2.443-26.93-4.059-6.925-1.27-10.81-4.905-10.1-11.02l0.712-1.462c1.385-5.155 10.1-22.78 16.41-36.01 5.475-3.983 11.83-8.104 18.4-11.9l1.066-0.568c6.733-3.424 13.29-7.252 19.6-11.43 1.52-1.155 3.597-2.924 5.194-4.193 6.673-4.273 11.03-11.65 11.03-20.04 0-13.1-10.62-23.72-23.72-23.72-6.509 0-12.4 2.621-16.69 6.866l2e-3 -2e-3c-1.616 1.27-3.809 2.924-5.232 4.175-5.475 5.166-10.57 10.54-15.34 16.2l-0.238 0.289c-4.405 4.798-8.86 9.253-13.5 13.51l-0.16 0.146c-6.348 1.673-12.89 3.713-19.18 4.502-3.27 0.423-13.66 2.5-24.24 4.367-5.694-0.962-8.041-5.348-7.772-14.04 0.25-7.772 1.827-15.52 1.635-23.26-0.327-12.54-6.002-15.97-17.31-11.27-6.771 2.828-13.37 6.098-20.18 8.848-10.02 4.059-15.76 1.155-17.72-9.195-1.365-7.175-2.155-14.47-3.117-21.74-0.731-5.482-0.288-11.96-6.695-14.22-5.925-2.078-10.52 1.905-15.12 5.386-5.502 4.136-11.41 7.81-17.26 11.48-8.81 5.521-14.6 2.712-17.87-6.695-2.828-8.137-5.578-16.31-8.675-24.35-3.597-9.233-9.541-10.62-16.87-3.925-6.713 6.117-12.93 12.77-19.64 18.85-5.29 4.809-10.58 5.617-15.04 1.155-5.79-11.35-14.52-29.76-20.16-41.2 0.442-7.137 1.231-14.27 2.366-21.35 1.5-7.387 2.578-14.87 3.213-22.41 0.077-1.905-0.038-4.655-0.038-6.713 0.077-0.719 0.121-1.551 0.121-2.395 0-13.09-10.61-23.7-23.7-23.7-0.855 0-1.701 0.045-2.533 0.134l0.103-9e-3zm-27.08 182.7-7.021 123.7-0.52 0.25c-0.476 11.1-9.588 19.91-20.76 19.91-4.599 0-8.849-1.494-12.29-4.024l0.058 0.04-0.192 0.115-101.5-71.94c37.26-36.66 86.36-61.39 141-67.96l1.159-0.113zm59.1 0c55.49 7.072 104.2 31.76 141.4 68.19l-0.04-0.039-100.8 71.46-0.385-0.154c-3.387 2.486-7.638 3.978-12.24 3.978-11.16 0-20.26-8.776-20.79-19.8l-2e-3 -0.047-0.115-0.058zm-238.1 114.3 92.64 82.85-0.115 0.5c4.399 3.83 7.163 9.44 7.163 15.7 0 9.533-6.421 17.57-15.17 20.01l-0.146 0.034-0.096 0.404-118.7 34.26c-0.934-7.996-1.467-17.26-1.467-26.65 0-47.03 13.37-90.94 36.52-128.1l-0.597 1.03zm416.4 0.057c23.02 36.88 36.67 81.66 36.67 129.6 0 8.34-0.412 16.58-1.218 24.71l0.083-1.028-119.3-34.38-0.115-0.52c-8.88-2.508-15.28-10.54-15.28-20.06 0-6.242 2.747-11.84 7.099-15.66l0.024-0.021-0.058-0.231zm-226.8 89.2h37.94l23.58 29.47-8.464 36.78-34.05 16.41-34.18-16.43-8.464-36.8zm121.7 100.9c1.616-0.077 3.213 0.038 4.79 0.346l0.192-0.25 122.8 20.76c-18.82 51.92-53.18 94.42-97.38 123l-0.955 0.578-47.67-115.2 0.135-0.192c-1.08-2.434-1.709-5.274-1.709-8.26 0-11.12 8.723-20.21 19.7-20.78l0.051-2e-3zm-206.3 0.5c11.35 0.166 20.48 9.404 20.48 20.77 0 2.963-0.62 5.78-1.737 8.331l0.052-0.134 0.365 0.462-47.19 114c-44.85-29.02-79.04-71.18-97.46-121l-0.547-1.691 121.8-20.68 0.192 0.27c1.347-0.25 2.712-0.385 4.078-0.346zm105.6 50.05c7.091 0.688 13.08 4.849 16.3 10.74l0.054 0.108h0.462l60.02 108.4c-6.071 2.155-14.1 4.464-22.28 6.376l-1.712 0.338c-16.38 3.921-35.18 6.169-54.5 6.169-28.14 0-55.17-4.766-80.32-13.54l1.711 0.52 59.88-108.3h0.115c3.591-6.574 10.46-10.96 18.34-10.96 0.68 0 1.353 0.032 2.016 0.096z" fill="#fff" stroke="#000" stroke-opacity=".9996"/>
</svg>