<svg width="40" height="40" viewBox="0 0 40 40" xmlns="http://www.w3.org/2000/svg">  <g id="Icon-Architecture/32/Arch_AWS-Signer_32" stroke="none" stroke-width="1" fill="none" fill-rule="evenodd">  <g id="Icon-Service/32/AWS-Signer_32" transform="translate(6.000000, 6.000000)" fill="#FFFFFF"> <path d="M17.29,20.44 C17.558,20.615 17.914,20.541 18.089,20.276 C18.263,20.011 18.188,19.653 17.924,19.479 C17.826,19.414 17.717,19.383 17.607,19.383 C17.421,19.383 17.237,19.475 17.126,19.642 C16.952,19.907 17.025,20.265 17.29,20.44 L17.29,20.44 Z M24.078,16.641 L18.298,12.829 L13,16.902 L13,25.862 L16.352,20.901 C15.965,20.384 15.916,19.661 16.292,19.091 C16.523,18.74 16.878,18.5 17.29,18.416 C17.702,18.332 18.122,18.412 18.475,18.644 C19.199,19.122 19.4,20.101 18.924,20.826 L18.923,20.827 C18.691,21.178 18.337,21.418 17.924,21.502 C17.817,21.524 17.71,21.535 17.604,21.535 C17.458,21.535 17.312,21.512 17.173,21.472 L13.83,26.42 L22.19,22.929 L24.078,16.641 Z M25.112,16.673 L23.08,23.442 C23.037,23.586 22.933,23.703 22.794,23.76 L12.692,27.978 C12.631,28.004 12.565,28 12.5,28 L0,28 L0,27 L12,27 L12,16.656 C12,16.501 12.072,16.354 12.195,16.259 L17.876,11.892 L20.836,6.167 L21.725,6.626 L18.923,12.044 L24.557,15.759 L27.208,12.364 L27.997,12.979 L25.112,16.673 Z M24.796,0.688 L23.907,0.228 L21.556,4.77 L22.444,5.23 L24.796,0.688 Z M6.501,9.916 C6.638,9.916 6.769,9.859 6.863,9.76 L11.065,5.345 L10.341,4.655 L6.501,8.69 L4.761,6.865 L4.036,7.555 L6.139,9.761 C6.233,9.859 6.364,9.916 6.501,9.916 L6.501,9.916 Z M1,7.5 C1,8.03 1.377,8.489 1.895,8.593 C2.081,8.63 2.229,8.768 2.279,8.95 C2.399,9.383 2.572,9.798 2.791,10.183 C2.881,10.341 2.878,10.537 2.782,10.692 C2.672,10.873 2.615,11.066 2.615,11.269 C2.615,12.087 3.58,12.665 4.309,12.217 C4.389,12.169 4.479,12.144 4.57,12.144 C4.656,12.144 4.741,12.166 4.818,12.21 C5.203,12.429 5.617,12.601 6.05,12.72 C6.232,12.771 6.37,12.919 6.407,13.105 C6.511,13.624 6.971,14 7.5,14 C8.029,14 8.489,13.624 8.593,13.105 C8.63,12.919 8.768,12.771 8.95,12.72 C9.383,12.601 9.797,12.429 10.182,12.21 C10.341,12.12 10.536,12.123 10.691,12.217 C10.872,12.329 11.066,12.385 11.269,12.385 C11.885,12.385 12.385,11.884 12.385,11.269 C12.385,11.066 12.328,10.873 12.218,10.692 C12.122,10.537 12.119,10.341 12.209,10.183 C12.428,9.798 12.601,9.383 12.721,8.95 C12.77,8.768 12.919,8.63 13.104,8.593 C13.623,8.489 14,8.03 14,7.5 C14,6.97 13.623,6.511 13.104,6.407 C12.919,6.37 12.77,6.232 12.721,6.05 C12.601,5.617 12.428,5.202 12.209,4.817 C12.119,4.659 12.122,4.463 12.218,4.308 C12.328,4.128 12.385,3.934 12.385,3.731 C12.385,2.913 11.425,2.332 10.691,2.783 C10.536,2.879 10.341,2.882 10.182,2.791 C9.797,2.571 9.383,2.399 8.95,2.28 C8.768,2.23 8.63,2.081 8.593,1.896 C8.489,1.377 8.029,1 7.5,1 C6.971,1 6.511,1.377 6.407,1.896 C6.37,2.081 6.232,2.23 6.05,2.28 C5.617,2.399 5.203,2.571 4.818,2.791 C4.66,2.882 4.465,2.879 4.309,2.783 C3.575,2.333 2.615,2.914 2.615,3.731 C2.615,3.934 2.672,4.128 2.782,4.308 C2.878,4.463 2.881,4.659 2.791,4.817 C2.572,5.202 2.399,5.617 2.279,6.05 C2.229,6.232 2.081,6.37 1.895,6.407 C1.377,6.511 1,6.97 1,7.5 L1,7.5 Z M0,7.5 C0,6.601 0.572,5.808 1.398,5.51 C1.504,5.184 1.636,4.867 1.791,4.565 C1.676,4.3 1.615,4.017 1.615,3.731 C1.615,2.565 2.564,1.615 3.73,1.615 C4.016,1.615 4.3,1.675 4.564,1.791 C4.867,1.635 5.184,1.503 5.511,1.398 C5.809,0.572 6.601,1.77635684e-15 7.5,1.77635684e-15 C8.399,1.77635684e-15 9.191,0.572 9.489,1.398 C9.816,1.503 10.133,1.635 10.436,1.791 C10.7,1.675 10.984,1.615 11.269,1.615 C12.436,1.615 13.385,2.565 13.385,3.731 C13.385,4.017 13.324,4.3 13.209,4.565 C13.364,4.867 13.496,5.184 13.602,5.51 C14.428,5.808 15,6.601 15,7.5 C15,8.399 14.428,9.192 13.602,9.49 C13.496,9.816 13.364,10.133 13.209,10.436 C13.324,10.7 13.385,10.983 13.385,11.269 C13.385,12.436 12.436,13.385 11.269,13.385 C10.983,13.385 10.7,13.325 10.436,13.209 C10.132,13.365 9.815,13.497 9.489,13.602 C9.191,14.428 8.399,15 7.5,15 C6.601,15 5.809,14.428 5.511,13.602 C5.185,13.497 4.868,13.365 4.564,13.209 C4.3,13.325 4.017,13.385 3.73,13.385 C2.564,13.385 1.615,12.436 1.615,11.269 C1.615,10.983 1.676,10.7 1.791,10.436 C1.636,10.133 1.504,9.816 1.398,9.49 C0.572,9.192 0,8.399 0,7.5 L0,7.5 Z M5,15 L5,20.293 L7.146,18.147 C7.34,17.953 7.652,17.951 7.85,18.143 L10.35,20.586 L9.65,21.301 L7.504,19.203 L4.853,21.854 C4.758,21.949 4.63,22 4.5,22 C4.436,22 4.37,21.988 4.309,21.962 C4.122,21.885 4,21.702 4,21.5 L4,15 L5,15 Z" id="Fill-5"></path> </g> </g></svg>