<svg width="24" height="24" viewBox="0 0 24 24" fill="none" xmlns="http://www.w3.org/2000/svg">
<path d="M5.99994 7.84957V11.6296C5.98505 11.8793 5.98505 12.1298 5.99994 12.3796C6.2294 14.1546 7.07958 15.7912 8.39994 16.9996C9.35452 17.9177 10.5397 18.5604 11.8299 18.8596H11.9999V15.1196C11.1725 15.1196 10.3789 14.7909 9.79377 14.2057C9.20865 13.6206 8.87994 12.827 8.87994 11.9996C8.87994 11.1721 9.20865 10.3785 9.79377 9.7934C10.3789 9.20828 11.1725 8.87957 11.9999 8.87957V5.05957L5.99994 7.84957Z" fill="#DDDDDD"/>
<path d="M20.2199 11.2197C20.4268 11.2197 20.6252 11.3019 20.7715 11.4482C20.9178 11.5945 20.9999 11.7929 20.9999 11.9997C20.9999 12.2066 20.9178 12.405 20.7715 12.5513C20.6252 12.6975 20.4268 12.7797 20.2199 12.7797C20.0131 12.7797 19.8147 12.6975 19.6684 12.5513C19.5221 12.405 19.4399 12.2066 19.4399 11.9997C19.4399 11.7929 19.5221 11.5945 19.6684 11.4482C19.8147 11.3019 20.0131 11.2197 20.2199 11.2197ZM20.2199 10.4697C19.9173 10.4697 19.6215 10.5595 19.3699 10.7276C19.1183 10.8957 18.9222 11.1346 18.8064 11.4142C18.6906 11.6938 18.6603 12.0014 18.7193 12.2982C18.7784 12.595 18.9241 12.8676 19.1381 13.0816C19.352 13.2956 19.6247 13.4413 19.9215 13.5003C20.2182 13.5594 20.5259 13.5291 20.8054 13.4133C21.085 13.2975 21.324 13.1014 21.4921 12.8497C21.6602 12.5981 21.7499 12.3023 21.7499 11.9997C21.7499 11.5939 21.5887 11.2048 21.3018 10.9179C21.0149 10.6309 20.6257 10.4697 20.2199 10.4697Z" fill="#DDDDDD"/>
<path d="M12 5.05957V8.87957C12.8275 8.87957 13.6211 9.20828 14.2062 9.7934C14.7913 10.3785 15.12 11.1721 15.12 11.9996C15.12 12.827 14.7913 13.6206 14.2062 14.2057C13.6211 14.7909 12.8275 15.1196 12 15.1196V18.8796H12.17C13.4623 18.5747 14.6478 17.9249 15.6 16.9996C16.8941 15.7872 17.7221 14.1594 17.94 12.3996C17.9549 12.1498 17.9549 11.8993 17.94 11.6496V7.84957L12 5.05957Z" fill="white"/>
<path d="M20.2199 4.70996C20.3224 4.70996 20.4238 4.73014 20.5184 4.76933C20.6131 4.80853 20.6991 4.86599 20.7715 4.93842C20.8439 5.01085 20.9014 5.09683 20.9406 5.19147C20.9798 5.2861 20.9999 5.38753 20.9999 5.48996C20.9999 5.59239 20.9798 5.69382 20.9406 5.78845C20.9014 5.88309 20.8439 5.96907 20.7715 6.0415C20.6991 6.11393 20.6131 6.17139 20.5184 6.21059C20.4238 6.24979 20.3224 6.26996 20.2199 6.26996C20.0131 6.26996 19.8147 6.18778 19.6684 6.0415C19.5221 5.89523 19.4399 5.69683 19.4399 5.48996C19.4399 5.28309 19.5221 5.0847 19.6684 4.93842C19.8147 4.79214 20.0131 4.70996 20.2199 4.70996ZM20.2199 3.95996C19.9173 3.95996 19.6215 4.04969 19.3699 4.21781C19.1183 4.38593 18.9222 4.62488 18.8064 4.90446C18.6906 5.18403 18.6603 5.49166 18.7193 5.78845C18.7784 6.08524 18.9241 6.35786 19.1381 6.57183C19.352 6.78581 19.6247 6.93153 19.9215 6.99056C20.2182 7.0496 20.5259 7.0193 20.8054 6.9035C21.085 6.78769 21.324 6.59159 21.4921 6.33998C21.6602 6.08838 21.7499 5.79257 21.7499 5.48996C21.7421 5.09032 21.5771 4.70986 21.2907 4.43098C21.0043 4.15211 20.6197 3.99725 20.2199 3.99996V3.95996Z" fill="white"/>
<path d="M3.77999 17.7295C3.98686 17.7295 4.18526 17.8117 4.33153 17.958C4.47781 18.1043 4.55999 18.3027 4.55999 18.5095C4.55999 18.7164 4.47781 18.9148 4.33153 19.0611C4.18526 19.2073 3.98686 19.2895 3.77999 19.2895C3.67756 19.2895 3.57613 19.2693 3.4815 19.2302C3.38686 19.191 3.30088 19.1335 3.22845 19.0611C3.15602 18.9886 3.09856 18.9027 3.05936 18.808C3.02017 18.7134 2.99999 18.612 2.99999 18.5095C2.99999 18.4071 3.02017 18.3057 3.05936 18.211C3.09856 18.1164 3.15602 18.0304 3.22845 17.958C3.30088 17.8856 3.38686 17.8281 3.4815 17.7889C3.57613 17.7497 3.67756 17.7295 3.77999 17.7295ZM3.77999 16.9795C3.47697 16.9775 3.18018 17.0656 2.92726 17.2325C2.67434 17.3994 2.47668 17.6377 2.35935 17.9171C2.24201 18.1964 2.21028 18.5044 2.26818 18.8018C2.32608 19.0993 2.47101 19.3728 2.68458 19.5878C2.89815 19.8028 3.17074 19.9495 3.46781 20.0094C3.76487 20.0692 4.07301 20.0395 4.35316 19.924C4.63332 19.8085 4.87286 19.6124 5.04143 19.3606C5.20999 19.1088 5.29998 18.8126 5.29999 18.5095C5.29476 18.1089 5.13263 17.7264 4.84842 17.4441C4.56421 17.1617 4.1806 17.0021 3.77999 16.9995V16.9795Z" fill="white"/>
<path d="M3.77999 11.2198C3.98686 11.2198 4.18526 11.3019 4.33153 11.4482C4.47781 11.5945 4.55999 11.7929 4.55999 11.9998C4.55999 12.2066 4.47781 12.405 4.33153 12.5513C4.18526 12.6976 3.98686 12.7798 3.77999 12.7798C3.57312 12.7798 3.37473 12.6976 3.22845 12.5513C3.08217 12.405 2.99999 12.2066 2.99999 11.9998C2.99999 11.7929 3.08217 11.5945 3.22845 11.4482C3.37473 11.3019 3.57312 11.2198 3.77999 11.2198ZM3.77999 10.4698C3.47697 10.4678 3.18018 10.5558 2.92726 10.7227C2.67434 10.8896 2.47668 11.1279 2.35935 11.4073C2.24201 11.6867 2.21028 11.9946 2.26818 12.2921C2.32608 12.5895 2.47101 12.8631 2.68458 13.078C2.89815 13.293 3.17074 13.4397 3.46781 13.4996C3.76487 13.5594 4.07301 13.5297 4.35316 13.4142C4.63332 13.2987 4.87286 13.1026 5.04143 12.8508C5.20999 12.599 5.29998 12.3028 5.29999 11.9998C5.3 11.5957 5.14018 11.2081 4.85541 10.9214C4.57063 10.6348 4.18404 10.4724 3.77999 10.4698Z" fill="#DDDDDD"/>
<path d="M18.75 11.6299H18C18.0149 11.8797 18.0149 12.1301 18 12.3799H18.81C18.7582 12.2581 18.7213 12.1305 18.7 11.9999C18.7012 11.8749 18.718 11.7507 18.75 11.6299Z" fill="white"/>
<path d="M5.25 12.3799H6.06C6.04511 12.1301 6.04511 11.8797 6.06 11.6299H5.25C5.26527 11.7527 5.26527 11.877 5.25 11.9999C5.26463 12.1261 5.26463 12.2536 5.25 12.3799Z" fill="white"/>
<path d="M6.87 5.11035H5.25C5.26529 5.23656 5.26529 5.36415 5.25 5.49035C5.26527 5.61321 5.26527 5.73749 5.25 5.86035H6.65L8.15 6.86035L9 6.48035L6.87 5.11035Z" fill="white"/>
<path d="M18.75 5.11035H17.13L15.05 6.48035L15.85 6.86035L17.35 5.86035H18.75C18.718 5.73958 18.7012 5.61529 18.7 5.49035C18.7012 5.36212 18.718 5.23452 18.75 5.11035Z" fill="white"/>
<path d="M9 17.49C8.79134 17.3376 8.59105 17.174 8.4 17L6.65 18.14H5.25C5.26527 18.2629 5.26527 18.3871 5.25 18.51C5.26529 18.6362 5.26529 18.7638 5.25 18.89H6.87L9 17.49Z" fill="white"/>
<path d="M18.75 18.14H17.35L15.6 17C15.4127 17.1805 15.2158 17.3508 15.01 17.51L17.13 18.91H18.75C18.718 18.7858 18.7012 18.6582 18.7 18.53C18.6995 18.3984 18.7163 18.2672 18.75 18.14Z" fill="white"/>
<path d="M11.9999 10.3799C11.6795 10.3799 11.3663 10.4749 11.0999 10.6529C10.8335 10.8309 10.6258 11.0839 10.5032 11.3799C10.3806 11.676 10.3485 12.0017 10.411 12.3159C10.4735 12.6302 10.6278 12.9188 10.8544 13.1454C11.0809 13.372 11.3696 13.5262 11.6838 13.5888C11.9981 13.6513 12.3238 13.6192 12.6198 13.4966C12.9158 13.374 13.1689 13.1663 13.3469 12.8999C13.5249 12.6335 13.6199 12.3203 13.6199 11.9999C13.6173 11.571 13.4457 11.1605 13.1425 10.8573C12.8393 10.554 12.4287 10.3825 11.9999 10.3799Z" fill="white"/>
<path d="M20.2199 17.7305C20.3224 17.7305 20.4238 17.7506 20.5184 17.7898C20.6131 17.829 20.6991 17.8865 20.7715 17.9589C20.8439 18.0314 20.9014 18.1173 20.9406 18.212C20.9798 18.3066 20.9999 18.408 20.9999 18.5105C20.9999 18.6129 20.9798 18.7143 20.9406 18.809C20.9014 18.9036 20.8439 18.9896 20.7715 19.062C20.6991 19.1344 20.6131 19.1919 20.5184 19.2311C20.4238 19.2703 20.3224 19.2905 20.2199 19.2905C20.0131 19.2905 19.8147 19.2083 19.6684 19.062C19.5221 18.9157 19.4399 18.7173 19.4399 18.5105C19.4399 18.3036 19.5221 18.1052 19.6684 17.9589C19.8147 17.8126 20.0131 17.7305 20.2199 17.7305ZM20.2199 16.9805C19.9173 16.9805 19.6215 17.0702 19.3699 17.2383C19.1183 17.4064 18.9222 17.6454 18.8064 17.925C18.6906 18.2045 18.6603 18.5122 18.7193 18.809C18.7784 19.1057 18.9241 19.3784 19.1381 19.5923C19.352 19.8063 19.6247 19.952 19.9215 20.0111C20.2182 20.0701 20.5259 20.0398 20.8054 19.924C21.085 19.8082 21.324 19.6121 21.4921 19.3605C21.6602 19.1089 21.7499 18.8131 21.7499 18.5105C21.7447 18.1082 21.5812 17.7241 21.2948 17.4415C21.0084 17.1589 20.6223 17.0004 20.2199 17.0005V16.9805Z" fill="white"/>
<path d="M3.77999 4.70999C3.98686 4.70999 4.18526 4.79217 4.33153 4.93845C4.47781 5.08473 4.55999 5.28312 4.55999 5.48999C4.55999 5.69686 4.47781 5.89526 4.33153 6.04154C4.18526 6.18782 3.98686 6.26999 3.77999 6.26999C3.57312 6.26999 3.37473 6.18782 3.22845 6.04154C3.08217 5.89526 2.99999 5.69686 2.99999 5.48999C2.99999 5.28312 3.08217 5.08473 3.22845 4.93845C3.37473 4.79217 3.57312 4.70999 3.77999 4.70999ZM3.77999 3.95999C3.47697 3.95801 3.18018 4.04606 2.92726 4.21297C2.67434 4.37988 2.47668 4.61813 2.35935 4.89753C2.24201 5.17692 2.21028 5.48486 2.26818 5.7823C2.32608 6.07975 2.47101 6.35331 2.68458 6.56828C2.89815 6.78326 3.17074 6.92997 3.46781 6.98982C3.76487 7.04967 4.07301 7.01996 4.35316 6.90446C4.63332 6.78896 4.87286 6.59287 5.04143 6.34105C5.20999 6.08923 5.29998 5.79302 5.29999 5.48999C5.29214 5.09209 5.12853 4.71313 4.84432 4.43453C4.56012 4.15593 4.17798 3.99992 3.77999 3.99999V3.95999Z" fill="white"/>
</svg>
