<svg width="40" height="40" viewBox="0 0 40 40" xmlns="http://www.w3.org/2000/svg">  <g id="Icon-Architecture/32/Arch_Amazon-FSx_32" stroke="none" stroke-width="1" fill="none" fill-rule="evenodd">  <g id="Icon-Service/32/Amazon-FSx_32" transform="translate(6.000000, 13.000000)" fill="#FFFFFF"> <path d="M21.537,9.267 L17.989,14.182 L19.589,14.182 L22.258,10.284 L21.537,9.267 Z M26.313,14.182 L28,14.182 L23.806,8.216 L27.625,2.891 L26.047,2.891 L23.028,7.201 L22.221,8.319 L26.313,14.182 Z M22.358,6.245 L20.01,2.891 L18.344,2.891 L21.517,7.364 L22.358,6.245 Z M11.545,7.154 C10.525,6.756 9.777,6.283 9.3,5.733 C8.823,5.183 8.585,4.504 8.585,3.696 C8.585,2.597 8.978,1.706 9.766,1.023 C10.555,0.341 11.592,0 12.877,0 C13.46,0 14.072,0.07 14.715,0.208 C15.357,0.348 15.963,0.543 16.533,0.795 L16.533,1.808 C15.182,1.331 13.982,1.093 12.936,1.093 C11.916,1.093 11.135,1.315 10.592,1.759 C10.048,2.203 9.777,2.835 9.777,3.656 C9.777,4.12 9.859,4.494 10.025,4.779 C10.19,5.064 10.463,5.322 10.84,5.554 C11.218,5.786 11.757,6.034 12.459,6.299 L14.586,7.114 C15.539,7.485 16.235,7.938 16.672,8.475 C17.109,9.012 17.328,9.684 17.328,10.492 C17.328,11.671 16.893,12.625 16.026,13.353 C15.158,14.082 14.016,14.446 12.599,14.446 C11.128,14.446 9.816,14.168 8.664,13.612 L8.664,12.598 C10.055,13.102 11.333,13.353 12.499,13.353 C13.599,13.353 14.476,13.095 15.132,12.578 C15.788,12.061 16.115,11.36 16.115,10.472 C16.115,9.929 15.936,9.465 15.579,9.081 C15.222,8.697 14.645,8.352 13.85,8.048 L11.545,7.154 Z M0,14.108 L0,0.338 L7.729,0.338 L7.729,1.391 L1.172,1.391 L1.172,6.657 L6.717,6.657 L6.717,7.71 L1.172,7.71 L1.172,14.108 L0,14.108 Z" id="Amazon-FSx_32_Squid"></path> </g> </g></svg>