<svg xmlns="http://www.w3.org/2000/svg" width="725" height="230"><g fill="#290B53" fill-rule="nonzero"><path d="M169.17 67.71a1.52 1.52 0 01.24-1.44c6.06-7.65 11.56-16.45 11.56-23.2 0-15-8.56-27.19-27.19-27.19-9.23 0-16 3-20.45 7.83a1.56 1.56 0 01-1.63.44A138.83 138.83 0 00109.94 19a1.52 1.52 0 00-1.67 1.9c1.54 5.77 10.78 42.43 18.22 70.34 4.5 16.89-7.16 33.48-24.64 33.43H91.03c-17.66 0-28.38-16.65-24.31-33.25C73.59 63.37 83 27 84.53 21a1.51 1.51 0 00-1.65-1.89 118.92 118.92 0 00-25.21 5.77 1.55 1.55 0 01-1.71-.47c-4.45-5.23-11.39-8.5-21-8.5-18.63 0-27.19 12.17-27.19 27.19 0 7.87 7.48 18.54 14.6 26.9.343.412.449.971.28 1.48l-12.12 35.2a.36.36 0 000 .11c-.32 1.23-5 22 30.56 55.06 10.64 9.91 47.71 45.62 54.37 52a1.5 1.5 0 002.07 0c6.85-6.37 45.3-42.06 56-52 38.42-35.83 29.27-55.17 29.27-55.17l-13.63-38.97z"/><path d="M103.72 101.36H89.24A4.34 4.34 0 0184.9 97l-1.8-17.83a4.34 4.34 0 014.35-4.34h18a4.34 4.34 0 014.35 4.34L108.07 97a4.34 4.34 0 01-4.35 4.36zM349.4 53.3h-31.91l-37.38 49.19h-7.58V53.3h-28.74v123.42h28.74v-52.37h7.93l37.03 52.37h33.85l-47.78-65.42zM421.56 155.19h-23c-4.76 0-6.35-.53-7.93-2.12s-2.12-3.88-2.12-7.93v-65.4h-27.12v68.41c0 14.11 1.76 19.22 5.64 23.28 3.7 3.7 9 5.46 17.46 5.46h11.81c8.81 0 12.87-1.94 25.21-13v12.88h27.15v-97h-27.1v75.42zM606.64 85c-3.7-3.7-9-5.46-17.28-5.46h-8.28c-9.17 0-13.23 1.94-26.45 14.1a16.27 16.27 0 00-4.58-8.64c-3.71-3.7-9-5.46-17.28-5.46h-8.29c-9 0-12.87 1.76-25.39 13v-12.8h-27v97h26.93v-75.65h19.44c4.76 0 6.52.7 8.11 2.29 1.41 1.41 2.11 3.7 2.11 7.93v65.42h27v-75.64h19.05c4.76 0 6.52.7 8.11 2.29 1.41 1.41 2.12 3.7 2.12 7.93v65.42h27.33v-68.42c0-14.31-1.59-19.4-5.65-23.31zM710.14 85.23c-3.52-3.7-9.34-5.47-19.21-5.47H661c-8.82 0-12.9 1.3-25.07 12.38V101l44.26.08c4.06 0 5.82.35 7.06 1.41 1.23 1.41 1.78 3.16 1.78 12.68v5.13a125.21 125.21 0 00-26.53-2.82c-17.46 0-23.1 2.11-27.51 6.52-3.83 3.84-5.63 10.29-5.94 20.38v3.69c0 14.1 1.76 19.21 5.64 23.27 3.71 3.7 9 5.47 17.46 5.47h11.81c8.78 0 12.84-1.93 25.07-12.92v12.86h27v-65.6c-.03-16.4-1.48-21.51-5.89-25.92zm-43.92 69.93c-4.76 0-6.34-.53-7.93-2.12-1.59-1.59-2.12-3.87-2.12-7.93v-11.22l32.82-.15v21.4l-22.77.02z"/></g></svg>