<svg xmlns="http://www.w3.org/2000/svg" width="188" height="64" viewBox="0 0 188 64"><defs><filter id="opg41ysdwa"><feColorMatrix in="SourceGraphic" values="0 0 0 0 0.000000 0 0 0 0 0.000000 0 0 0 0 0.000000 0 0 0 1.000000 0"/></filter><filter id="2fngm7lc6b"><feColorMatrix in="SourceGraphic" values="0 0 0 0 0.615686 0 0 0 0 0.058824 0 0 0 0 0.690196 0 0 0 1.000000 0"/></filter></defs><g fill="none" fill-rule="evenodd"><g><g><g><g><g><path fill="#000" fill-rule="nonzero" d="M39.497 46.175c2.111 0 3.775.688 4.991 2.065 1.216 1.377 1.824 3.258 1.824 5.645 0 .413-.08.711-.24.895-.161.183-.448.275-.861.275H33.37l.008.37c.08 2.07.644 3.679 1.695 4.828 1.113 1.216 2.68 1.824 4.699 1.824 1.1 0 2.013-.15 2.736-.448.723-.298 1.428-.688 2.117-1.17.482-.321.791-.482.93-.482.16 0 .297.063.412.19.115.126.172.27.172.43 0 .23-.086.453-.258.67-.172.219-.476.466-.912.74-1.652.988-3.362 1.481-5.129 1.481-2.5 0-4.469-.769-5.903-2.306-1.434-1.538-2.151-3.649-2.151-6.333 0-1.721.321-3.236.964-4.544.642-1.308 1.549-2.323 2.719-3.046 1.17-.723 2.513-1.084 4.027-1.084zm17.004 0c.849 0 1.663.114 2.444.344.78.23 1.468.55 2.065.964.436.32.751.602.946.843.195.24.293.488.293.74 0 .16-.057.304-.172.43-.115.126-.253.19-.413.19-.184 0-.482-.173-.895-.517-.597-.459-1.222-.837-1.876-1.136-.654-.298-1.474-.447-2.461-.447-1.285 0-2.323.304-3.115.912-.792.608-1.188 1.406-1.188 2.392 0 .597.127 1.084.379 1.463s.683.706 1.29.981c.609.275 1.475.54 2.6.792 1.583.39 2.799.786 3.648 1.187.849.402 1.451.884 1.807 1.446.356.562.534 1.28.534 2.151 0 1.377-.568 2.484-1.704 3.322-1.136.837-2.645 1.256-4.526 1.256-.895 0-1.79-.132-2.685-.396s-1.698-.625-2.41-1.084c-.459-.298-.768-.545-.929-.74-.16-.195-.241-.419-.241-.671 0-.16.057-.304.172-.43.115-.127.253-.19.413-.19.115 0 .27.063.465.19l.396.258c.665.481 1.36.877 2.082 1.187.723.31 1.635.465 2.737.465 1.491 0 2.638-.276 3.442-.826.803-.551 1.204-1.331 1.204-2.34 0-.597-.143-1.09-.43-1.48-.287-.391-.757-.73-1.411-1.016-.654-.287-1.59-.568-2.805-.844-2.02-.459-3.465-1.044-4.337-1.755-.872-.711-1.308-1.652-1.308-2.823 0-1.422.556-2.581 1.669-3.476s2.553-1.342 4.32-1.342zm11.565-7.366c.23 0 .407.069.533.206.127.138.19.333.19.585v9.913l.131-.264c.501-.95 1.215-1.688 2.14-2.214 1.01-.574 2.169-.86 3.477-.86 1.996 0 3.505.533 4.526 1.6 1.021 1.067 1.532 2.645 1.532 4.733v10.12l-.008.144c-.02.184-.08.33-.181.44-.127.138-.305.207-.534.207-.23 0-.407-.069-.534-.206-.126-.138-.189-.333-.189-.586V52.68l-.004-.33c-.042-1.62-.396-2.813-1.063-3.577-.711-.814-1.859-1.222-3.442-1.222-1.767 0-3.184.545-4.25 1.635-1.068 1.09-1.601 2.542-1.601 4.355v9.086l-.008.145c-.02.184-.08.33-.182.44-.126.138-.304.207-.533.207-.207 0-.379-.074-.516-.224-.138-.149-.207-.338-.207-.568V39.6l.008-.144c.02-.184.08-.33.181-.44.127-.138.304-.207.534-.207zm-46.433 7.366c3.672 0 5.507 2.11 5.507 6.333v10.12l-.007.132c-.02.171-.081.316-.182.435-.126.15-.304.224-.534.224-.229 0-.407-.074-.533-.224-.126-.149-.19-.338-.19-.568V52.68l-.003-.33c-.038-1.62-.358-2.813-.96-3.577-.643-.814-1.664-1.222-3.064-1.222-1.606 0-2.885.54-3.837 1.618-.953 1.079-1.429 2.536-1.429 4.372v9.086l-.007.133c-.02.171-.081.316-.182.435-.126.15-.304.224-.534.224-.23 0-.407-.074-.533-.224-.126-.149-.19-.338-.19-.568V52.68l-.003-.33c-.038-1.62-.358-2.813-.96-3.577-.643-.814-1.664-1.222-3.064-1.222-1.629 0-2.914.54-3.855 1.618-.94 1.079-1.41 2.536-1.41 4.372v9.086l-.008.133c-.02.171-.081.316-.182.435-.126.15-.304.224-.534.224-.23 0-.407-.074-.533-.224-.126-.149-.19-.338-.19-.568V47.035l.005-.126c.037-.444.277-.666.718-.666.23 0 .402.07.517.207.114.138.172.333.172.585v2.478l.12-.264c.454-.95 1.097-1.688 1.928-2.214.906-.574 1.979-.86 3.218-.86 2.685 0 4.406 1.113 5.163 3.338.459-1.032 1.182-1.847 2.168-2.443.987-.597 2.123-.895 3.408-.895zm17.864 1.342c-1.744 0-3.15.545-4.216 1.635-1.067 1.09-1.693 2.61-1.876 4.56h11.53c-.045-1.996-.539-3.527-1.48-4.594-.94-1.067-2.26-1.601-3.958-1.601zM95.552 0c.57 0 1.061.19 1.473.571.385.343.597.802.636 1.376l.006.196v18.815l10.817-9.756c.35-.297.722-.446 1.12-.446.508 0 .953.196 1.334.587.397.39.595.828.595 1.313 0 .383-.146.736-.437 1.06l-.134.136-8.649 7.622 9.459 9.803c.35.36.524.767.524 1.22 0 .5-.207.946-.62 1.337-.397.39-.857.586-1.382.586-.494 0-.925-.173-1.294-.519l-.135-.138-11.198-11.726v10.217c0 .666-.222 1.198-.665 1.595-.428.38-.935.571-1.522.571-.586 0-1.085-.182-1.497-.547-.371-.343-.575-.815-.612-1.415l-.006-.204V2.143c0-.667.214-1.19.642-1.572.443-.38.958-.571 1.545-.571zm-8.605 10.326c.57 0 1.061.198 1.473.593.385.355.597.83.636 1.426l.006.203v19.626c0 .69-.222 1.242-.665 1.654-.428.395-.935.592-1.522.592-.586 0-1.085-.19-1.497-.568-.371-.355-.575-.844-.612-1.466l-.006-.212V12.548c0-.691.214-1.234.641-1.63.444-.394.96-.592 1.546-.592zM81.167 0l-.001.003.074.003c.767.07 1.368.714 1.368 1.5 0 .77-.577 1.404-1.323 1.495l-.142.01h-2.232c-.667 0-1.187.064-1.559.19-.372.109-.705.408-1 .816-.279.393-.38 1.138-.488 1.89-.084.664-.13 1.544-.138 2.64l-.002.373v1.406h3.873c.713 0 1.29.578 1.29 1.29 0 .714-.577 1.292-1.29 1.292l-3.873-.001v19.347c0 .6-.18 1.09-.539 1.472l-.126.123c-.428.38-.935.571-1.522.571-.586 0-1.085-.182-1.497-.547-.37-.343-.575-.815-.612-1.415l-.006-.204V12.907H67.98c-.713 0-1.29-.577-1.29-1.29 0-.713.577-1.29 1.29-1.29l3.441-.001V7.767c0-2.809.59-4.801 1.768-5.978C74.302.663 75.816.069 77.731.006L78.073 0h3.093zM55.752 10.326c2.241 0 4.325.578 5.878 1.627 1.232.831 2.233 2.113 2.637 3.376.232.726.268.994.27 2.047 0 .656-.017 1.098-.053 1.303-.363 2.07-1.229 3.505-2.732 4.526-1.209.822-2.727 1.303-4.713 1.493-1 .096-2.828.087-4.013-.02-1.005-.09-2.24-.25-2.766-.356-.155-.031-.444-.084-.753-.138l-.312-.054c-.465-.079-.89-.148-.897-.141-.006.006-.078.464-.16 1.02-.131.887-.15 1.108-.153 1.816-.003.72.008.846.093 1.179.275 1.068.88 1.783 1.979 2.335 1.08.544 2.214.78 3.925.815.758.017 1.146.005 1.62-.046 1.15-.124 1.674-.26 3.2-.83.381-.142.77-.272.864-.288.201-.034.577.037.796.15.396.204.728.749.726 1.19-.002.514-.173.826-.674 1.231-1.199.97-2.73 1.564-4.556 1.77-.652.073-2.139.084-2.857.02-2.024-.178-3.428-.53-4.712-1.179-1.002-.507-1.766-1.135-2.337-1.922l-.264-.362c-.006-.006-.099.105-.207.248-.48.63-1.215 1.306-1.932 1.78-1.035.684-2.522 1.206-4.026 1.414-.449.062-1.937.113-2.319.08-2.636-.231-4.65-1.04-6.116-2.455-1.49-1.44-2.13-3.316-1.878-5.51.29-2.524 1.47-4.307 3.54-5.347 1.594-.802 3.185-1.107 5.776-1.107 1.84-.001 3.383.152 5.736.568.582.103 1.085.187 1.119.187.05 0 .088-.188.195-.94.193-1.362.228-1.832.175-2.377-.061-.635-.141-.937-.378-1.429-.61-1.27-2.059-2.046-4.386-2.35-.665-.088-2.201-.1-2.868-.024-1.117.129-1.74.292-3.13.822-.813.31-.817.31-1.141.291-.558-.033-.938-.29-1.183-.797-.1-.209-.118-.295-.118-.577 0-.422.109-.647.485-1.005.846-.804 2.268-1.489 3.704-1.783.92-.188 1.372-.227 2.583-.225 1.254.003 2.055.073 3.169.284 1.852.35 3.259.967 4.32 1.895.314.276.79.818.992 1.134.063.097.127.176.143.176.016 0 .119-.117.228-.258 1.606-2.081 4.311-3.259 7.48-3.257zm-26.939 0c.536 0 .955.193 1.256.578.319.386.478.835.478 1.35 0 .481-.143.899-.427 1.252-.285.338-.696.506-1.232.506-2.261 0-3.805.562-5.061 1.687-1.215 1.101-1.86 2.565-1.885 4.39v12.085c0 .69-.222 1.242-.666 1.654-.428.395-.935.592-1.521.592-.586 0-1.086-.19-1.498-.568-.396-.38-.602-.911-.617-1.596V12.548c0-.691.213-1.234.641-1.63.444-.394.959-.592 1.545-.592.57 0 1.062.198 1.474.593.41.379.624.895.64 1.547l.002.082v3.03c.419-1.494 1.256-2.738 2.513-3.734 1.273-1.012 2.582-1.518 4.358-1.518zM6.637 3.442c.528 0 .984.17 1.369.513.4.356.599.833.599 1.431v4.94h4.733c.668 0 1.218.508 1.284 1.159l.007.132c0 .668-.508 1.218-1.16 1.284l-.131.007-4.733-.001V25.5l.001.373c.009 1.096.055 1.976.139 2.64.108.753.209 1.498.488 1.89.295.408.628.707 1 .817.326.11.764.172 1.315.185l.243.003 2.234.001c.812.022 1.464.687 1.464 1.505 0 .74-.533 1.354-1.235 1.482l-.134.018-.073.003v.003h-3.093l-.342-.005c-1.915-.063-3.43-.657-4.542-1.784-1.127-1.125-1.715-2.998-1.764-5.616l-.003-.362-.001-13.746H1.291c-.669 0-1.218-.507-1.284-1.158L0 11.617c0-.669.508-1.218 1.159-1.284l.132-.007h3.1l.342-4.94c0-.626.185-1.11.556-1.453.37-.327.82-.491 1.348-.491zm32.334 19.7c-1.602.093-2.255.236-3.217.706-.492.241-.833.503-1.102.848-.386.494-.619.986-.781 1.648-.118.482-.13 1.744-.02 2.151.184.685.404 1.073.897 1.586.675.703 1.566 1.172 2.67 1.406.565.12.548.12 1.494.105.686-.011.942-.03 1.223-.094 1.192-.27 2.254-.88 3.024-1.737.704-.78 1.28-1.95 1.598-3.24.179-.726.476-2.75.41-2.79-.026-.017-.183-.043-.35-.059-.165-.015-.639-.072-1.05-.127-2.45-.324-3.954-.45-4.796-.402zm14.941-9.705c-.872.164-1.61.463-2.26.916-1.202.836-2.031 2.098-2.493 3.79-.181.666-.23.92-.391 2.067l-.15 1.058.2.022c.604.07 1.965.239 2.755.344l.17.022.348.043c.346.042.673.078.838.091.64.052 1.728.053 2.458.008l.255-.02v.001c.992-.09 1.602-.249 2.352-.611.624-.302.986-.61 1.33-1.13.504-.767.701-1.492.696-2.57-.004-.768-.067-1.087-.324-1.639-.576-1.231-1.928-2.114-3.7-2.415-.443-.075-1.63-.062-2.084.023zM86.933 0c.765 0 1.383.211 1.853.634.471.409.706.954.706 1.635 0 .668-.235 1.213-.706 1.635-.47.41-1.095.614-1.875.614s-1.405-.205-1.876-.614c-.47-.422-.706-.967-.706-1.635s.236-1.213.706-1.635C85.521.21 86.153 0 86.933 0z" transform="translate(-626 -268) translate(0 56) translate(626 212) translate(74.537)"/></g></g><g><g><path fill="#9D0FB0" fill-rule="nonzero" d="M22.524.285l.09.048 7.67 4.324c.525.296 1.165.296 1.69.001L39.58.378c1.242-.7 2.817-.259 3.516.984.682 1.213.279 2.742-.897 3.464l-.087.051L37.72 7.35c-.414.233-.56.758-.328 1.172.077.137.19.25.328.328l11.857 6.684c.525.296 1.166.296 1.69 0L58.6 11.4c1.242-.7 2.816-.26 3.517.981.683 1.213.28 2.742-.894 3.465l-.088.052-4.125 2.325c-.414.234-.56.758-.327 1.172.077.137.19.25.327.327l4.149 2.34c1.242.7 1.681 2.274.981 3.516-.683 1.212-2.2 1.66-3.427 1.03l-.09-.049-7.355-4.146c-.524-.296-1.165-.296-1.69 0L37.589 29.17c-.414.233-.56.758-.327 1.172.077.137.19.25.327.327l4.953 2.792c1.242.7 1.682 2.274.981 3.516-.683 1.213-2.2 1.66-3.427 1.03l-.09-.049-8.158-4.6c-.525-.295-1.166-.295-1.69 0L21.928 38c-1.242.7-2.816.26-3.516-.981-.684-1.212-.281-2.742.894-3.465l.087-.052 5.023-2.831c.414-.234.56-.758.327-1.172-.077-.137-.19-.25-.327-.327l-11.882-6.698c-.524-.296-1.165-.296-1.69-.001l-6.996 3.937c-1.243.7-2.817.259-3.516-.984-.682-1.212-.279-2.741.897-3.464l.087-.051 3.783-2.129c.414-.233.56-.758.328-1.172-.078-.137-.19-.25-.328-.327l-3.776-2.13c-1.242-.7-1.681-2.274-.981-3.516.683-1.212 2.2-1.66 3.427-1.03l.09.049 6.989 3.94c.524.295 1.164.296 1.689 0l11.999-6.751c.414-.233.561-.758.328-1.172-.077-.137-.19-.25-.327-.328l-4.459-2.513c-1.242-.7-1.681-2.275-.981-3.517.683-1.212 2.2-1.66 3.427-1.029zm7.758 11.25l-11.999 6.751c-.414.233-.561.758-.328 1.172.077.137.19.25.327.328l11.876 6.694c.524.296 1.165.296 1.69 0l11.988-6.758c.414-.233.56-.758.327-1.172-.078-.137-.19-.25-.327-.327L31.97 11.535c-.524-.295-1.164-.296-1.689 0z" transform="translate(-626 -268) translate(0 56) translate(626 212) translate(.533 15.489)"/></g></g></g></g></g></g></svg>