<svg width="40" height="40" viewBox="0 0 40 40" xmlns="http://www.w3.org/2000/svg">  <g id="Icon-Architecture/32/Arch_AWS-Telco-Network-Builder_32" stroke="none" stroke-width="1" fill="none" fill-rule="evenodd">  <path d="M21.986,26.3234854 C21.978,25.9234854 21.814,25.5494854 21.525,25.2714854 C21.235,24.9924854 20.86,24.8544854 20.486,24.8544854 C20.092,24.8544854 19.699,25.0084854 19.405,25.3134854 C19.128,25.6024854 18.978,25.9824854 18.986,26.3834854 C18.994,26.7834854 19.158,27.1564854 19.447,27.4344854 C20.042,28.0074854 20.994,27.9894854 21.567,27.3924854 C21.844,27.1044854 21.994,26.7244854 21.986,26.3234854 L21.986,26.3234854 Z M22.218,24.5514854 C22.7,25.0134854 22.972,25.6364854 22.985,26.3034854 C22.999,26.9714854 22.751,27.6044854 22.288,28.0864854 C21.798,28.5954854 21.142,28.8524854 20.486,28.8524854 C19.862,28.8524854 19.238,28.6204854 18.754,28.1554854 C18.272,27.6934854 18,27.0704854 17.987,26.4024854 C17.973,25.7344854 18.221,25.1014854 18.684,24.6204854 C19.64,23.6274854 21.224,23.5964854 22.218,24.5514854 L22.218,24.5514854 Z M27.398,26.7364854 L25.385,25.8104854 C25.257,25.7524854 25.161,25.6424854 25.118,25.5084854 L24.77,24.4194854 C24.728,24.2874854 24.743,24.1434854 24.811,24.0224854 L25.894,22.0954854 L23.126,20.0814854 L21.64,21.6924854 C21.547,21.7944854 21.415,21.8524854 21.276,21.8534854 L20.112,21.8604854 C19.955,21.8534854 19.837,21.8024854 19.741,21.6984854 L18.249,20.0774854 L15.477,22.0884854 L16.563,24.0234854 C16.632,24.1444854 16.646,24.2894854 16.603,24.4234854 L16.252,25.5004854 C16.208,25.6324854 16.111,25.7414854 15.984,25.7994854 L13.965,26.7254854 L15.021,29.9834854 L17.18,29.5514854 C17.32,29.5244854 17.463,29.5554854 17.576,29.6394854 L18.511,30.3324854 C18.622,30.4144854 18.694,30.5394854 18.711,30.6764854 L18.964,32.8534854 L22.388,32.8564854 L22.644,30.6644854 C22.661,30.5264854 22.734,30.4014854 22.846,30.3194854 L23.771,29.6424854 C23.884,29.5594854 24.026,29.5294854 24.165,29.5554854 L26.339,29.9914854 L27.398,26.7364854 Z M28.487,26.6224854 L27.152,30.7244854 C27.073,30.9644854 26.83,31.1114854 26.578,31.0594854 L24.183,30.5794854 L23.613,30.9974854 L23.33,33.4154854 C23.299,33.6674854 23.087,33.8574854 22.833,33.8574854 L18.518,33.8534854 C18.264,33.8534854 18.05,33.6624854 18.021,33.4104854 L17.742,31.0074854 L17.159,30.5744854 L14.78,31.0514854 C14.533,31.0994854 14.284,30.9564854 14.207,30.7154854 L12.877,26.6104854 C12.798,26.3684854 12.913,26.1074854 13.144,26.0014854 L15.369,24.9814854 L15.585,24.3214854 L14.387,22.1894854 C14.262,21.9684854 14.324,21.6894854 14.529,21.5404854 L18.021,19.0074854 C18.228,18.8584854 18.51,18.8874854 18.683,19.0734854 L20.327,20.8584854 L21.052,20.8544854 L22.693,19.0764854 C22.865,18.8884854 23.15,18.8624854 23.354,19.0114854 L26.842,21.5494854 C27.048,21.6984854 27.109,21.9774854 26.984,22.1984854 L25.79,24.3234854 L26.004,24.9944854 L28.22,26.0134854 C28.451,26.1194854 28.565,26.3814854 28.487,26.6224854 L28.487,26.6224854 Z M9.358,7.2574854 C10.468,6.8084854 11.721,6.9524854 12.707,7.6394854 L13.279,6.8194854 C12.012,5.9384854 10.408,5.7554854 8.983,6.3304854 C7.556,6.9074854 6.529,8.1564854 6.234,9.6694854 L7.216,9.8614854 C7.446,8.6804854 8.247,7.7074854 9.358,7.2574854 L9.358,7.2574854 Z M11.008,11.8824854 C13.062,11.0524854 15.381,11.3154854 17.206,12.5894854 L17.778,11.7684854 C15.673,10.3014854 13.003,9.9974854 10.633,10.9554854 C8.262,11.9144854 6.554,13.9904854 6.063,16.5084854 L7.046,16.6994854 C7.471,14.5154854 8.953,12.7144854 11.008,11.8824854 L11.008,11.8824854 Z M24.423,7.0604854 C27.97,7.3134854 31.15,9.1564854 33.145,12.1174854 L33.975,11.5594854 C31.806,8.3414854 28.35,6.3374854 24.493,6.0634854 C21.306,5.8324854 18.194,6.8234854 15.719,8.8414854 L16.35,9.6164854 C18.629,7.7614854 21.482,6.8514854 24.423,7.0604854 L24.423,7.0604854 Z M33.966,25.4444854 C33.966,28.1464854 32.412,29.6264854 31.484,30.2674854 C31.008,30.5954854 30.147,30.8534854 29.523,30.8534854 L28.986,30.8534854 L28.986,29.8534854 L29.523,29.8534854 C29.95,29.8534854 30.6,29.6624854 30.916,29.4444854 C31.851,28.7974854 32.966,27.5784854 32.966,25.4444854 C32.966,22.4544854 30.886,21.4734854 29.647,21.1554854 C29.415,21.0954854 29.257,20.8804854 29.272,20.6414854 L29.323,19.7904854 C29.322,17.4384854 27.681,14.8754854 25.587,13.9854854 C21.964,12.4474854 19.396,14.4704854 18.461,15.4114854 C17.699,16.1774854 17.104,17.1564854 16.693,18.3224854 C16.632,18.4964854 16.478,18.6234854 16.295,18.6504854 C16.113,18.6734854 15.928,18.6014854 15.819,18.4524854 C15.199,17.6104854 14.13,17.2594854 13.16,17.5764854 C12.062,17.9374854 11.432,19.0134854 11.432,20.5304854 C11.47,20.7974854 11.292,21.0314854 11.025,21.0774854 C10.081,21.2404854 7,22.0384854 7,25.4854854 C7,29.4904854 10.656,29.8424854 10.811,29.8544854 L11.986,29.8534854 L11.986,30.8534854 L10.771,30.8534854 C10.685,30.8474854 6,30.4264854 6,25.4854854 C6,21.6794854 9.01,20.5144854 10.442,20.1764854 C10.546,18.4064854 11.428,17.0934854 12.847,16.6274854 C13.962,16.2614854 15.162,16.5114854 16.045,17.2454854 C16.482,16.2594854 17.054,15.4074854 17.752,14.7064854 C19.998,12.4464854 23.073,11.8334854 25.977,13.0654854 C28.454,14.1174854 30.322,17.0214854 30.322,19.8204854 L30.294,20.3034854 C31.645,20.7474854 33.966,22.0114854 33.966,25.4444854 L33.966,25.4444854 Z" id="Fill-4" fill="#FFFFFF"></path> </g></svg>