<svg width="40" height="40"  viewBox="0 0 40 40" xmlns="http://www.w3.org/2000/svg">  <g id="Icon-Architecture/32/Arch_AWS-Supply-Chain_32" stroke="none" stroke-width="1" fill="none" fill-rule="evenodd">  <path d="M28.996,18.05975 L28.996,25.12375 C28.996,25.30175 28.902,25.46575 28.749,25.55575 L22.999,28.92075 L22.999,27.76175 L27.996,24.83675 L27.996,18.93175 L22.999,21.85675 L22.999,20.69775 L28.243,17.62775 C28.398,17.53775 28.59,17.53675 28.745,17.62575 C28.9,17.71475 28.996,17.88075 28.996,18.05975 L28.996,18.05975 Z M12.002,24.83675 L17.011,27.77075 L17.011,28.92975 L11.249,25.55575 C11.096,25.46575 11.002,25.30175 11.002,25.12375 L11.002,18.05975 C11.002,17.88075 11.098,17.71475 11.253,17.62575 C11.408,17.53775 11.6,17.53875 11.755,17.62775 L17.011,20.70675 L17.011,21.86575 L12.002,18.93175 L12.002,24.83675 Z M25.246,24.04875 L20.241,26.84475 C20.165,26.88675 20.081,26.90775 19.997,26.90775 C19.913,26.90775 19.829,26.88675 19.753,26.84475 L14.749,24.04875 L14.749,22.90375 L19.997,25.83475 L25.246,22.90375 L25.246,24.04875 Z M20.496,32.57775 L20.497,29.61875 L19.497,29.61875 L19.496,32.57775 L9,26.12775 L9,13.77475 L19.497,19.63775 L19.497,21.91275 L20.497,21.91275 L20.497,19.63775 L30.994,13.77475 L30.994,26.12775 L20.496,32.57775 Z M19.997,7.07375 L30.469,12.92275 L19.997,18.77075 L9.525,12.92275 L19.997,7.07375 Z M31.738,12.48575 L20.241,6.06375 C20.089,5.97875 19.905,5.97875 19.753,6.06375 L8.256,12.48575 C8.098,12.57475 8,12.74175 8,12.92275 L8,26.40775 C8,26.58175 8.09,26.74275 8.238,26.83375 L19.735,33.89775 C19.815,33.94675 19.906,33.97175 19.997,33.97175 C20.088,33.97175 20.179,33.94675 20.259,33.89775 L31.756,26.83375 C31.904,26.74275 31.994,26.58175 31.994,26.40775 L31.994,12.92275 C31.994,12.74175 31.896,12.57475 31.738,12.48575 L31.738,12.48575 Z" id="Fill-9" fill="#FFFFFF"></path> </g></svg>