<svg width="40" height="40" viewBox="0 0 40 40" fill="none" xmlns="http://www.w3.org/2000/svg">
<g clip-path="url(#clip0_23296_3629)">
<path d="M40 0H0V40H40V0Z" fill="#C925D1" fill-opacity="0.12"/>
<path fill-rule="evenodd" clip-rule="evenodd" d="M22.9569 26.925H20.9853V22.8749H19.9995V26.925H18.0279V23.8874H17.0422V26.925H16.0564V27.9375H17.0422H18.0279H19.9995H20.9853H22.9569H23.9426V26.925V20.8499H22.9569V26.925ZM26.9 24.8999C26.9 20.9917 23.8036 17.8124 19.9995 17.8124C16.1954 17.8124 13.099 20.9917 13.099 24.8999C13.099 28.8082 16.1954 31.9875 19.9995 31.9875C23.8036 31.9875 26.9 28.8082 26.9 24.8999ZM27.8858 24.8999C27.8858 29.3661 24.3478 33 19.9995 33C15.6512 33 12.1133 29.3661 12.1133 24.8999C12.1133 20.4338 15.6512 16.7999 19.9995 16.7999C24.3478 16.7999 27.8858 20.4338 27.8858 24.8999ZM33 19.0973C33 21.8736 31.5154 23.6789 28.9277 24.0515L28.7907 23.0491C30.2605 22.8375 32.0142 21.9799 32.0142 19.0973C32.0142 16.3888 30.019 15.4097 28.3451 15.0655C28.1253 15.0199 27.9627 14.8275 27.9498 14.5977C27.8414 12.6203 26.7137 11.7353 25.6441 11.7353C24.9718 11.7353 24.3448 12.0603 23.9239 12.6263C23.8165 12.7742 23.641 12.845 23.4596 12.8207C23.2822 12.7934 23.1323 12.6689 23.0702 12.4957C22.6897 11.4397 22.1258 10.5183 21.4378 9.8308C19.6318 8.02044 17.1605 7.52937 14.8301 8.51758C12.894 9.33366 11.3779 11.6806 11.3779 13.8616C11.3779 14.1076 11.3926 14.3486 11.4212 14.5845C11.4528 14.8397 11.2931 15.0786 11.0506 15.1404C9.90609 15.431 7.9848 16.3281 7.9848 19.0588C7.9848 19.1621 7.98973 19.2542 7.99465 19.3524C8.08042 20.9532 9.42601 22.4233 11.2675 22.9276L11.0131 23.9057C8.76554 23.2901 7.12027 21.4412 7.01084 19.4081C7.00394 19.2917 7 19.1813 7 19.0588C7 15.8856 9.13323 14.701 10.4039 14.2777C10.396 14.141 10.3921 14.0013 10.3921 13.8616C10.3921 11.2574 12.1379 8.55706 14.4555 7.58101C17.1585 6.43586 20.0291 7.00388 22.1258 9.10483C22.7538 9.7336 23.291 10.5244 23.7011 11.4225C25.373 10.0505 28.493 10.6266 28.9011 14.1552C31.5479 14.8194 33 16.563 33 19.0973Z" fill="#C925D1"/>
</g>
<rect x="0.5" y="0.5" width="39" height="39" stroke="#C925D1"/>
<defs>
<clipPath id="clip0_23296_3629">
<rect width="40" height="40" fill="white"/>
</clipPath>
</defs>
</svg>
