<svg width="40" height="40" viewBox="0 0 40 40" fill="none" xmlns="http://www.w3.org/2000/svg">
<g clip-path="url(#clip0_23296_3805)">
<path d="M40 0H0V40H40V0Z" fill="#01A88D" fill-opacity="0.12"/>
<path fill-rule="evenodd" clip-rule="evenodd" d="M33.0008 27H30.5008C30.2248 27 30.0008 26.776 30.0008 26.5V24H27.0008V26.5C27.0008 26.776 26.7768 27 26.5008 27H24.0008V30H26.5008C26.7768 30 27.0008 30.224 27.0008 30.5V33H30.0008V30.5C30.0008 30.224 30.2248 30 30.5008 30H33.0008V27ZM34.0008 26.5V30.5C34.0008 30.776 33.7768 31 33.5008 31H31.0008V33.5C31.0008 33.776 30.7768 34 30.5008 34H26.5008C26.2248 34 26.0008 33.776 26.0008 33.5V31H23.5008C23.2248 31 23.0008 30.776 23.0008 30.5V26.5C23.0008 26.224 23.2248 26 23.5008 26H26.0008V23.5C26.0008 23.224 26.2248 23 26.5008 23H30.5008C30.7768 23 31.0008 23.224 31.0008 23.5V26H33.5008C33.7768 26 34.0008 26.224 34.0008 26.5ZM7.0968 9.986L11.0008 27.867V9.185L10.8758 9.208L7.0968 9.986ZM26.0008 7.174V10H29.1178L26.0008 7.174ZM12.0008 32H23.0008V33H11.5008C11.2618 33 11.0708 32.829 11.0218 32.604L11.0128 32.606L6.0118 9.705C5.9828 9.574 6.0078 9.438 6.0808 9.326C6.1528 9.213 6.2688 9.135 6.3988 9.108L11.0008 8.177V6.5C11.0008 6.224 11.2248 6 11.5008 6H26.0008C26.1248 6 26.2448 6.046 26.3368 6.129L30.8368 10.208C30.9408 10.303 31.0008 10.438 31.0008 10.579V22H30.0008V11H25.5008C25.2248 11 25.0008 10.776 25.0008 10.5V7H12.0008V32ZM14.0008 25H22.0008V24H14.0008V25ZM14.0008 22H26.0008V21H14.0008V22ZM14.0008 13H23.0008V12H14.0008V13ZM14.0008 19H27.0008V18H14.0008V19ZM18.0008 16H27.0008V15H18.0008V16ZM14.0008 16H17.0008V15H14.0008V16Z" fill="#01A88D"/>
</g>
<rect x="0.5" y="0.5" width="39" height="39" stroke="#01A88D"/>
<defs>
<clipPath id="clip0_23296_3805">
<rect width="40" height="40" fill="white"/>
</clipPath>
</defs>
</svg>
