<svg version="1.1" id="Layer_1" xmlns="http://www.w3.org/2000/svg" x="0" y="0" viewBox="0 0 105 105" style="enable-background:new 0 0 105 105" xml:space="preserve"><style>.st0{fill:#7497f7}.st1{fill:#fff}</style><path class="st0" d="M84.3 19.8C75.7 11.3 64.4 6.6 52.4 6.6c-11.9 0-23.3 4.7-31.8 13.1-8.6 8.6-13.3 20-13.3 32.2 0 11.9 4.8 23.3 13.2 31.7 8.5 8.5 19.8 13.2 31.9 13.2V34.9c6.1 0 10.9 2.5 13.5 6.6.6.7 1 1.5 1.5 2.3.7 1.3 2.4 1.8 3.7 1.2 1.6-.7 1.8-2.3 1.3-3.5-1-1.8-2.3-3.6-3.5-5.3-.5-1-.4-2.3.4-3.2 1.1-1.2 3-1.2 4.1 0 3.9 4.4 6.5 10 7 16.1.1 1.4 1.4 2.6 2.8 2.6 1.7 0 3-1.4 2.8-3.1-.2-2.1-.6-4.1-1.1-6-.4-1.4.3-2.9 1.7-3.4h.1c1.5-.6 3.2.3 3.6 1.9 1 3.4 1.5 7 1.5 10.7 0 5.5-1.2 11-3.4 16-.6 1.4-.1 3 1.3 3.7 1.4.8 3.2.2 3.9-1.3 2.5-5.7 3.9-12 3.9-18.3 0-12.2-4.7-23.6-13.2-32.1z"/><path class="st1" d="M62.3 101.8c-6.5 0-18.6-2.2-27.1-16.8l-1.9-3.3 2 .2c-2.5-.6-4.7-1.2-6.7-1.9-6.3-2.2-10-5-11-8.3-.5-1.6-.7-4.8 3.5-8 2.6-2 5.7-3 9.3-3 4.2 0 7.5 1.4 7.6 1.4l2.8 1.2-6.4 6.2-1-.2c-.4-.1-.8-.1-1.2-.1-1.5 0-2.5.5-2.8.8.3.4 1.8 1.6 7.2 2.4 4.2.6 9.1 1.1 14.7 1.7 5.9.6 12.7 1.4 19.9 2.4 4.9.7 8.6 2 11.1 3.8 3.2 2.4 3.7 5.1 3.6 7-.2 3.6-3 7.3-7.6 10.1-4.8 2.9-10.4 4.4-16 4.4zM51.1 84.2c2.1.9 5.5 2.1 8.5 2.1.9 0 1.7-.1 2.3-.3.3-.1.5-.2.7-.3-1.4-.4-4.2-1-9.3-1.4-.7 0-1.5 0-2.2-.1z"/><path class="st0" d="M30.3 62.7c3.8 0 7.8 1.5 7.8 1.5l-3.3 3.2c-.5-.1-1.1-.2-1.6-.2-6.7-.3-10.7 4.4 2.9 7.2 8.9 1.3 20.9 2.2 34.6 4.1 24.5 3.4 10 21.3-8.4 21.3-8.8 0-18.6-4.1-25.4-15.9l11.1 1s6.3 3.4 11.6 3.4c1 0 2-.1 2.9-.4 5.8-1.9 4.6-4.5-9.1-5.5-28.8-2.1-39.7-10.2-31.3-17.1 2.7-2 5.6-2.6 8.2-2.6zm0-4c-4.1 0-7.6 1.1-10.6 3.4-5.1 3.9-4.8 8-4.1 10.1 1.6 5.3 8.3 8.6 16.1 10.8l1.7 3c3.6 6.1 8.1 10.8 13.4 13.8 4.5 2.5 9.9 4 15.4 4 6 0 12-1.6 16.8-4.7 5.1-3.2 8.2-7.4 8.5-11.6.2-3.4-1.3-6.5-4.4-8.8-2.8-2-6.8-3.4-12-4.2-7.2-1-14-1.7-19.9-2.4-5.6-.6-9.3-1.1-13.5-1.7-.2 0-.3-.1-.5-.1l.2-.2 3.2-3 4.6-4.6-5.6-2.3c-.2-.1-4.8-1.5-9.3-1.5z"/><path class="st1" d="M51.9 83.4c-1.7 0-3.2-.8-4.1-2.2-1-1.5-1.4-3.4-1.2-5.4-.5.7-1.4 1.2-3 1.5-.3 0-.5.1-.8.1-1.9 0-3.6-1-4.6-2.6-1.2-2-1.1-4.6.1-6.7 1.2-2.1 4-3.2 6.1-3.2.4 0 .8 0 1.1.1-.9-.9-1.5-1.9-1.9-2.8-.6-1.4-.7-2.6-.3-3.7h-.7c.2.9.7 3.4-2.2 4.3-.4.1-.7.2-1.1.2-1.4 0-2.7-.8-3.5-2.1-1.1-1.8-.9-4.2.3-6.4 1.2-2 3.7-3.3 5.3-3.3.2 0 .5 0 .6.1-.2-1.1-.3-2.2-.2-3.4.2-2.8 1.4-5.6 3.2-7.7 1.1-1.2 1.5-4.9 1.9-7.9.3-2.2.6-4.3 1-5.9.2-.9 1-3.5 3.3-3.7h.5c1.6 0 2.9.6 3.9 1.8 1.2 1.5 1.8 3.7 1.7 6.3.8-2.6 1.9-5.3 4.5-5.3.3 0 .6.1 1 .1 1.5.4 2.8 1.6 3.5 3.2 1 2.5.8 5.7-.7 8.5-1.7 3.1-4 4.8-5.9 5.6.5.3 1 .7 1.5 1.2 3 2.8 3.9 6.3 2.5 9.9-.6 1.7-1.8 3-3.4 3.9 3.1.2 4.8 2.1 7 5.5 2.1 3.3 2.9 6.5 2 8.5-.4 1-1.3 1.7-2.3 1.9-.4.1-.8.1-1.1.1-1.2 0-2.1-.4-2.7-1.2-.1.8-.4 1.5-.8 2.2-.7 1.2-1.7 1.9-3.1 2.2-.4.1-.9.2-1.3.2-.8 0-1.4-.2-1.8-.4.4 1.7 1.2 5.3-2.6 6.6-.4-.2-1.1-.1-1.7-.1zm-4.6-11.2c-.1.1-.1.5-.1 1v.1c0-.1.1-.2.1-.2.1-.3.3-.7.5-1-.2-.1-.4 0-.5.1zm3.2-4.4c.3.4.5.9.4 1.4.8-.4 1.6-.6 2.2-.7-.3-.1-.7-.2-1-.3-.5-.1-1-.2-1.6-.4zm-5.6-11.7c.1.2.1.4.1.5.2-.1.3-.1.5-.1-.3-.1-.4-.3-.6-.4zm6.6-9.7c-.2 0-.3.2-.4.3 0 .1.1.2.1.3.1.1.1.1.2.1.2 0 .4-.2.4-.3.1-.2-.1-.4-.3-.4z"/><path class="st0" d="M51.9 23.7c3.3 0 4.9 3.8 3.9 9.1-1 5.5-3.9 7.6-3.9 7.6h.1c.4 0 3-.2 5.7-5.9 1.3-2.8 1.9-8 4.4-8 .2 0 .4 0 .6.1 3 .8 4 5.6 1.8 9.6-3.1 5.6-8.4 5.9-8.4 5.9s8.4 3.8 6.4 11c-1.2 3.2-4.7 4.4-8.2 4.4-3.8 0-8-2.5-9.5-4.4-2.3-2.9-2-8.4 1.4-12.3 2.9-3.4 1.7-16.8 5.3-17.1h.4zM41.5 52.4c1.1 2 2.8 3.4 2.5 3.8-.3.4-.6.7-1 .7-.3 0-.7-.2-1-.2-.2 0-.3 0-.5.2-1.4.9 1.3 3.5-1.5 4.4-.2.1-.4.1-.7.1-2.1 0-3.8-3-1.8-6.4.9-1.6 2.9-2.6 4-2.6zm4.6 5c.9 0 2.3 1.3 4.5 1.8 1.4.3 2.9.4 3.7.4 1.6 0 2.6-.3 4.8-.5.3 0 .6-.1.9-.1 2.7 0 4.2 1.4 6.3 4.8 2.4 3.9 3 7.7.6 8.2-.3.1-.6.1-.8.1-2 0-2.5-1.8-3.4-5-.8-2.6-2-3.7-2.7-3.7-.2 0-.3.1-.4.2-.7 1 1.3 2 2.2 5.2.8 2.9.2 6-2.4 6.6-.3.1-.7.1-.9.1-1.6 0-2-1.1-2.7-1.1-1.3 0 2.1 7.3-3.6 7.6-3.3 0-4.9-4.3-3.2-8.4 1.6-4.2 6.2-3.1 6.6-4.6.4-1.6-1.5-1.7-4.7-2.6-4.4-1.3-6.8-5.8-5.8-7.6.1-.7.5-1.4 1-1.4zm-1.6 8.8c.7 0 1.3.1 1.6.4 1.6 1.4 3.7 1.5 3.4 2.7-.4 1.4-2.3 1-3.1 1.8-1.4 1.5 1 4.1-2.9 4.6h-.6c-3.6 0-4.4-3.7-3.2-6.6.9-1.5 3.1-2.9 4.8-2.9zm7.4-45.5h-.6c-1.3.1-2.5.8-3.4 2-.5.7-.9 1.6-1.2 2.8-.5 1.8-.8 3.9-1.1 6.1-.2 1.7-.4 3.4-.8 4.8-.4 1.8-.8 2.3-.8 2.3-2.8 3.3-3.5 6.8-3.2 10.9-1.9.4-4.6 1.5-5.8 3.7-1.5 2.7-1.7 5.6-.3 7.9 1 1.8 2.8 2.9 4.7 2.9.5 0 1.2-.2 1.7-.3-1.5.6-3.1 2.1-4 3.6-1.3 2.2-1.4 5.3 0 7.8 1.2 2.1 3.3 3.4 5.8 3.4.3 0 .6 0 1-.1.3 0 .8-.1 1.4-.3.2 1.3.7 2.6 1.4 3.6 1.2 1.8 3.2 2.9 5.4 2.9.8 0 1.5-.1 2.3-.4 2.2-.7 3.2-2.1 3.8-4.2.1-.6.2-1.4.2-2 .5 0 1.1 0 1.6-.1 1.7-.4 3.1-1.4 4-2.9l.3-.6c.7.3 1.3.3 1.9.3.4 0 .9-.1 1.4-.2 1.5-.3 2.8-1.3 3.4-2.8 1.5-3.5-1-8-2.1-9.8-1.3-2.1-3.3-4.3-5.5-5.4.7-.8 1.2-1.7 1.6-2.7 1.6-4.3 0-8.2-3.2-11.1 1.9-1.3 4.3-3.3 5.5-5.4 1.7-3.1 2-6.9.8-9.7-.9-2.1-2.4-3.5-4.4-4.1-.4-.1-.9-.2-1.4-.2-1.1 0-2.5.3-3.8 1.9-.3-.9-.8-1.7-1.3-2.3-1.5-1.4-3.3-2.3-5.3-2.3zm-10.3 43c.4-.2.7-.4 1-.6.1.1.1.2.2.3l-1.2.3z"/><path d="M53.6 47c0 1-.9 1.9-1.9 1.9-1.1 0-1.9-.9-1.9-2 0-1 .9-1.9 1.9-1.9 1 0 1.9.9 1.9 2z" style="fill:#72ccb8"/></svg>