<svg width="360" height="360" viewBox="0 0 360 360" fill="none" xmlns="http://www.w3.org/2000/svg"><rect x="26" y="26" width="308" height="308" rx="66" fill="#fff" stroke="#000" stroke-width="52"/><path fill-rule="evenodd" clip-rule="evenodd" d="M164 108a8 8 0 0 0-8 8v29.287a4 4 0 0 0 4 4h9a4 4 0 0 1 4 4v22.209a4 4 0 0 1-4 4h-9a4 4 0 0 0-4 4v31.681a4 4 0 0 0 2.659 3.769L173 224.047c-1.588 4.368-6 27.953-6 27.953h17l19.253-26.909a3.999 3.999 0 0 0 .747-2.327V116a8 8 0 0 0-8-8h-32Z" fill="#0F0F0F"/></svg>