<svg width="90" height="90" viewBox="0 0 90 90" fill="none" xmlns="http://www.w3.org/2000/svg">
<path d="M51.3968 11.6013C50.5197 10.2715 51.4733 8.5 53.0663 8.5H67.6031C68.2845 8.5 68.9191 8.84696 69.2868 9.42064L74.116 16.9539C74.5314 17.6019 74.5381 18.4308 74.1332 19.0854L69.283 26.9265C68.9185 27.5158 68.275 27.8744 67.5821 27.8744H52.9949C51.4166 27.8744 50.4602 26.1319 51.3076 24.8005L54.9312 19.1076C55.3546 18.4424 55.3477 17.5905 54.9135 16.9324L51.3968 11.6013Z" fill="#326CE5"/>
<path d="M23.4236 9.50546C23.78 8.88358 24.442 8.5 25.1588 8.5H43.469C44.1504 8.5 44.7849 8.84696 45.1527 9.42064L49.9819 16.9539C50.3973 17.6019 50.404 18.4308 49.9991 19.0854L45.1489 26.9265C44.7844 27.5158 44.1408 27.8744 43.4479 27.8744H36.3152C35.5964 27.8744 34.9329 28.2602 34.5772 28.8848L14.1852 64.6991C13.4296 66.0262 11.5255 66.051 10.7356 64.7441L1.60658 49.6403C1.23071 49.0184 1.22169 48.2416 1.58302 47.6112L23.4236 9.50546Z" fill="#326CE5"/>
<path d="M38.3832 78.3987C39.2603 79.7285 38.3067 81.5 36.7137 81.5H22.1769C21.4955 81.5 20.861 81.153 20.4932 80.5794L15.664 73.0461C15.2486 72.3981 15.2419 71.5692 15.6469 70.9146L20.4971 63.0735C20.8616 62.4842 21.5051 62.1256 22.198 62.1256H36.7852C38.3634 62.1256 39.3199 63.8681 38.4724 65.1995L34.8488 70.8924C34.4254 71.5576 34.4324 72.4095 34.8665 73.0676L38.3832 78.3987Z" fill="#326CE5"/>
<path d="M66.5764 80.4945C66.22 81.1164 65.558 81.5 64.8412 81.5H46.531C45.8496 81.5 45.2151 81.153 44.8473 80.5794L40.0181 73.0461C39.6027 72.3981 39.596 71.5692 40.0009 70.9146L44.8511 63.0735C45.2156 62.4842 45.8592 62.1256 46.5521 62.1256H53.6848C54.4036 62.1256 55.0671 61.7398 55.4228 61.1152L75.8148 25.3009C76.5704 23.9738 78.4745 23.949 79.2644 25.2559L88.3934 40.3597C88.7693 40.9816 88.7783 41.7584 88.417 42.3888L66.5764 80.4945Z" fill="#326CE5"/>
</svg>
