<svg width="40" height="40" viewBox="0 0 40 40" xmlns="http://www.w3.org/2000/svg">  <g id="Icon-Architecture/32/Arch_Amazon-Security-Lake_32" stroke="none" stroke-width="1" fill="none" fill-rule="evenodd">  <path d="M16,22.079 L16,10.21 L21,11.996 L21,20.079 L22,20.079 L22,11.643 C22,11.432 21.867,11.243 21.668,11.172 L15.668,9.03 C15.561,8.991 15.439,8.991 15.332,9.03 L9.332,11.172 C9.133,11.243 9,11.432 9,11.643 L9,21.072 C9,22.579 10.54,26.715 15.5,26.715 L15.5,25.715 C10.956,25.715 10,21.835 10,21.072 L10,11.996 L15,10.21 L15,22.079 L16,22.079 Z M31.605,30.671 L30.605,30.671 C30.605,31.995 29.528,33.072 28.204,33.072 C26.88,33.072 25.803,31.995 25.803,30.671 L24.803,30.671 C24.803,31.995 23.726,33.072 22.401,33.072 C21.077,33.072 20,31.995 20,30.671 L19,30.671 C19,31.995 17.923,33.072 16.599,33.072 L16.599,34.072 C17.825,34.072 18.901,33.42 19.5,32.444 C20.099,33.42 21.175,34.072 22.401,34.072 C23.628,34.072 24.704,33.42 25.303,32.444 C25.901,33.42 26.978,34.072 28.204,34.072 C29.431,34.072 30.507,33.42 31.105,32.444 C31.704,33.42 32.78,34.072 34.007,34.072 L34.007,33.072 C32.683,33.072 31.605,31.995 31.605,30.671 L31.605,30.671 Z M31.605,26.306 L30.605,26.306 C30.605,27.63 29.528,28.707 28.204,28.707 C26.88,28.707 25.803,27.63 25.803,26.306 L24.803,26.306 C24.803,27.63 23.726,28.707 22.401,28.707 C21.077,28.707 20,27.63 20,26.306 L19,26.306 C19,27.63 17.923,28.707 16.599,28.707 L16.599,29.707 C17.825,29.707 18.901,29.055 19.5,28.079 C20.099,29.055 21.175,29.707 22.401,29.707 C23.628,29.707 24.704,29.055 25.303,28.079 C25.901,29.055 26.978,29.707 28.204,29.707 C29.431,29.707 30.507,29.055 31.105,28.079 C31.704,29.055 32.78,29.707 34.007,29.707 L34.007,28.707 C32.683,28.707 31.605,27.63 31.605,26.306 L31.605,26.306 Z M31.605,21.855 L30.605,21.855 C30.605,23.18 29.528,24.257 28.204,24.257 C26.88,24.257 25.803,23.18 25.803,21.855 L24.803,21.855 C24.803,23.18 23.726,24.257 22.401,24.257 C21.077,24.257 20,23.18 20,21.855 L19,21.855 C19,23.18 17.923,24.257 16.599,24.257 L16.599,25.257 C17.825,25.257 18.901,24.605 19.5,23.629 C20.099,24.605 21.175,25.257 22.401,25.257 C23.628,25.257 24.704,24.605 25.303,23.629 C25.901,24.605 26.978,25.257 28.204,25.257 C29.431,25.257 30.507,24.605 31.105,23.629 C31.704,24.605 32.78,25.257 34.007,25.257 L34.007,24.257 C32.683,24.257 31.605,23.18 31.605,21.855 L31.605,21.855 Z M15.5,28.715 L15.5,29.715 C7.985,29.715 6,23.5 6,20.215 L6,9.929 C6,9.721 6.128,9.535 6.322,9.461 L15.322,6.033 C15.436,5.989 15.564,5.989 15.678,6.033 L24.678,9.461 C24.872,9.535 25,9.721 25,9.929 L25,20.079 L24,20.079 L24,10.273 L15.5,7.036 L7,10.273 L7,20.215 C7,20.562 7.097,28.715 15.5,28.715 L15.5,28.715 Z" id="Fill-4" fill="#FFFFFF"></path> </g></svg>