<svg width="40" height="40" viewBox="0 0 40 40" xmlns="http://www.w3.org/2000/svg">  <g id="Icon-Architecture/32/Arch_AWS-HealthImaging_32" stroke="none" stroke-width="1" fill="none" fill-rule="evenodd">  <g id="Icon-Service/32/AWS-HealthImaging_32" transform="translate(6.030000, 6.000000)" fill="#FFFFFF"> <path d="M12.9667235,20.9923865 L13.9667235,20.9923865 L13.9667235,18.9923865 L12.9667235,18.9923865 L12.9667235,20.9923865 Z M12.9667235,16.9923865 L13.9667235,16.9923865 L13.9667235,8.99238654 L12.9667235,8.99238654 L12.9667235,16.9923865 Z M8.96672348,24.9923865 L9.96672348,24.9923865 L9.96672348,22.9923865 L8.96672348,22.9923865 L8.96672348,24.9923865 Z M8.96672348,20.9923865 L9.96672348,20.9923865 L9.96672348,15.9923865 L8.96672348,15.9923865 L8.96672348,20.9923865 Z M4.96672348,26.8493865 L4.96672348,14.1353865 C4.96672348,14.0563865 5.02972348,13.9923865 5.10972348,13.9923865 L10.9667235,13.9923865 L10.9667235,12.9923865 L5.10972348,12.9923865 C4.47972348,12.9923865 3.96672348,13.5053865 3.96672348,14.1353865 L3.96672348,26.8493865 C3.96672348,27.4793865 4.47972348,27.9923865 5.10972348,27.9923865 L17.9667235,27.9923865 L17.9667235,26.9923865 L5.10972348,26.9923865 C5.02972348,26.9923865 4.96672348,26.9283865 4.96672348,26.8493865 L4.96672348,26.8493865 Z M23.9667235,14.8873865 L23.9667235,13.9923865 C23.9667235,13.9533865 23.9617235,13.9153865 23.9527235,13.8773865 C23.8807235,13.5713865 23.5517235,12.9923865 22.8237235,12.9923865 L14.9667235,12.9923865 L14.9667235,13.9923865 L22.8237235,13.9923865 C22.8567235,13.9923865 22.9267235,13.9923865 22.9667235,14.0733865 L22.9667235,14.8873865 L23.9667235,14.8873865 Z M26.9667235,20.9923865 L24.4667235,20.9923865 C24.1907235,20.9923865 23.9667235,20.7683865 23.9667235,20.4923865 L23.9667235,17.9923865 L20.9667235,17.9923865 L20.9667235,20.4923865 C20.9667235,20.7683865 20.7427235,20.9923865 20.4667235,20.9923865 L17.9667235,20.9923865 L17.9667235,23.9923865 L20.4667235,23.9923865 C20.7427235,23.9923865 20.9667235,24.2163865 20.9667235,24.4923865 L20.9667235,26.9923865 L23.9667235,26.9923865 L23.9667235,24.4923865 C23.9667235,24.2163865 24.1907235,23.9923865 24.4667235,23.9923865 L26.9667235,23.9923865 L26.9667235,20.9923865 Z M27.9667235,20.4923865 L27.9667235,24.4923865 C27.9667235,24.7683865 27.7427235,24.9923865 27.4667235,24.9923865 L24.9667235,24.9923865 L24.9667235,27.4923865 C24.9667235,27.7683865 24.7427235,27.9923865 24.4667235,27.9923865 L20.4667235,27.9923865 C20.1907235,27.9923865 19.9667235,27.7683865 19.9667235,27.4923865 L19.9667235,24.9923865 L17.4667235,24.9923865 C17.1907235,24.9923865 16.9667235,24.7683865 16.9667235,24.4923865 L16.9667235,20.4923865 C16.9667235,20.2163865 17.1907235,19.9923865 17.4667235,19.9923865 L19.9667235,19.9923865 L19.9667235,17.4923865 C19.9667235,17.2163865 20.1907235,16.9923865 20.4667235,16.9923865 L24.4667235,16.9923865 C24.7427235,16.9923865 24.9667235,17.2163865 24.9667235,17.4923865 L24.9667235,19.9923865 L27.4667235,19.9923865 C27.7427235,19.9923865 27.9667235,20.2163865 27.9667235,20.4923865 L27.9667235,20.4923865 Z M1.00572348,12.4633865 C0.991723482,12.6023865 1.00072348,12.9373865 1.00772348,13.0873865 L0.00772348198,13.1283865 C0.000723481981,12.9463865 -0.00627651802,12.5393865 0.00972348198,12.3693865 C0.346723482,8.80838654 2.62772348,8.04538654 4.28272348,7.61238654 L4.24672348,6.46238654 C4.24672348,3.95138654 5.86072348,1.71438654 8.45972348,0.607386538 C11.2797235,-0.590613462 14.2607235,0.00538653827 16.4407235,2.20238654 C17.1117235,2.87838654 17.6627235,3.69838654 18.0847235,4.64638654 C19.0677235,3.85438654 20.5277235,3.63038654 21.7387235,4.16638654 C23.0117235,4.73238654 23.6217235,5.95138654 23.4267235,7.48338654 C26.3217235,8.06038654 27.8197235,9.80738654 27.8197235,12.6653865 L27.8177235,12.9503865 C27.8177235,12.9743865 27.8147235,13.7993865 27.4477235,14.8023865 L26.5087235,14.4593865 C26.8107235,13.6313865 26.8177235,12.9453865 26.8177235,12.9383865 L26.8197235,12.6653865 C26.8197235,9.44838654 24.6037235,8.69338654 22.9367235,8.40538654 L22.7017235,8.33638654 C22.4527235,8.25838654 22.3057235,8.00238654 22.3637235,7.74738654 C22.7647235,6.00338654 21.8897235,5.32838654 21.3327235,5.08038654 C20.2927235,4.61938654 18.9397235,4.95938654 18.3177235,5.84438654 C18.2117235,5.99738654 18.0337235,6.07838654 17.8407235,6.05338654 C17.6547235,6.02738654 17.4997235,5.90038654 17.4377235,5.72338654 C17.0407235,4.59538654 16.4667235,3.64738654 15.7317235,2.90638654 C14.8267235,1.99638654 12.3517235,0.0403865383 8.85172348,1.52738654 C6.62872348,2.47438654 5.24672348,4.35938654 5.24672348,6.44638654 L5.29472348,7.98138654 C5.30172348,8.21538654 5.14672348,8.42238654 4.91972348,8.48138654 L4.79472348,8.51338654 C3.15372348,8.93238654 1.29472348,9.40938654 1.00572348,12.4633865 L1.00572348,12.4633865 Z" id="Fill-4"></path> </g> </g></svg>