<svg xmlns="http://www.w3.org/2000/svg" role="img" viewBox="-4.20 -3.70 439.14 439.14"><defs><style>.cls-1{fill:#fff}</style></defs><path d="M215.493 4.858C99.061 4.858 4.338 99.582 4.338 216.014S99.06 427.17 215.493 427.17 426.65 332.446 426.65 216.014 331.925 4.858 215.493 4.858zm0 413.005c-111.3 0-201.85-90.549-201.85-201.85 0-111.3 90.55-201.849 201.85-201.849s201.85 90.55 201.85 201.85-90.55 201.85-201.85 201.85z" class="cls-1"/><circle cx="329.643" cy="220.8" r="34.947" class="cls-1"/><circle cx="214.666" cy="354.187" r="34.947" class="cls-1"/><path d="M329.643 159.78a60.44 60.44 0 0 0-27.758 6.715l-59.643-56.66a34.953 34.953 0 1 0-4.39 4.388l58.457 55.534a60.813 60.813 0 0 0-27.463 49.657h-13.111l-23.712-67.749-26.339 65.423h-29.413l-24.993 57.842-22.046-55.117-.064.025v-.592h-22.287a34.958 34.958 0 1 0-.278 6.204h18.2l26.254 65.632 29.292-67.79h29.525l21.743-54.005 19.716 56.331h17.707a60.828 60.828 0 0 0 25.476 44.59l-57.134 57.135 4.386 4.386 58.118-58.118a60.807 60.807 0 1 0 29.757-113.83zm0 115.422a54.609 54.609 0 1 1 54.61-54.61 54.67 54.67 0 0 1-54.61 54.61z" class="cls-1"/></svg>