<svg id="图层_1" data-name="图层 1" xmlns="http://www.w3.org/2000/svg" viewBox="0 0 117.24 117.24"><defs><style>.cls-1,.cls-2{fill:#fff;}.cls-2{opacity:0.3;}</style></defs><path class="cls-1" d="M81.05,30.27H38.82a22,22,0,0,0-19,11L9.8,58.62,19.84,76A22,22,0,0,0,38.82,87H81.05A20.7,20.7,0,0,1,75.51,73c0-9.42,5.39-14.39,5.39-14.39s-5.39-5-5.39-14.39A20.71,20.71,0,0,1,81.05,30.27Zm-12.52,49H38.82a14.24,14.24,0,0,1-12.3-7.1L18.71,58.62l7.81-13.53A14.24,14.24,0,0,1,38.82,38H68.53a25.16,25.16,0,0,0-.84,6.24,25.84,25.84,0,0,0,4.2,14.39A25.78,25.78,0,0,0,67.69,73,25.24,25.24,0,0,0,68.53,79.25Zm38.91-31.37V69.36h-4.53V64.19H93.26a11,11,0,0,0-3.79,8.17,17.2,17.2,0,0,0,8,14.6H87.91a20.09,20.09,0,0,1-6-13.95,20.65,20.65,0,0,1,5.4-14.39,20.68,20.68,0,0,1-5.4-14.39,20.1,20.1,0,0,1,6-14h9.56a17.2,17.2,0,0,0-8,14.61,11,11,0,0,0,3.79,8.17h9.65V47.88Z"/><path class="cls-2" d="M38.82,79.25H68.53A25.24,25.24,0,0,1,67.69,73a25.78,25.78,0,0,1,4.2-14.38H18.71l7.81,13.53A14.24,14.24,0,0,0,38.82,79.25Z"/></svg>