<svg xmlns="http://www.w3.org/2000/svg" width="28" height="28" viewBox="0 0 28 28" fill="none">
  <path d="M13.0064 10.0312C12.5024 7.03522 9.87043 4.73926 6.73448 4.73926C3.20654 4.73926 0.350586 7.59521 0.350586 11.1232C0.350586 14.2871 2.64655 16.8911 5.6425 17.395V12.3831C5.6425 11.0952 6.67848 10.0312 7.99446 10.0312H13.0064Z" fill="#EAEFF1"/>
  <path d="M12.9219 18.459C12.5019 17.731 12.5019 16.835 12.9219 16.107L15.5258 11.5991H7.96595C7.54596 11.5991 7.20996 11.9351 7.20996 12.3551V22.4349C7.20996 22.8549 7.54596 23.1909 7.96595 23.1909H18.0458C18.4658 23.1909 18.8018 22.8549 18.8018 22.4349V19.635H14.9658C14.1258 19.635 13.3419 19.187 12.9219 18.459Z" fill="#EAEFF1"/>
  <path d="M26.8385 16.9188L21.2386 7.20294C20.9586 6.69895 20.2026 6.69895 19.9226 7.20294L14.3227 16.9188C14.0427 17.4228 14.4067 18.0668 14.9947 18.0668H26.2225C26.7825 18.0668 27.1465 17.4228 26.8385 16.9188Z" fill="#EAEFF1"/>
</svg>