<svg width="40" height="40" viewBox="0 0 40 40" fill="none" xmlns="http://www.w3.org/2000/svg">
<g clip-path="url(#clip0_23311_9600)">
<path d="M40 0H0V40H40V0Z" fill="#DD344C" fill-opacity="0.12"/>
<path fill-rule="evenodd" clip-rule="evenodd" d="M33.0089 29.006H28.0089H27.0089H26.0089V26.006H31.5089H33.0089V29.006ZM27.0089 33.006H21.0089V30.006H25.0089H25.5089H27.0089V33.006ZM16.7519 31.266C14.6609 31.266 12.7399 30.211 11.6149 28.443C10.7189 27.033 10.7029 25.213 11.6049 23.641C12.6539 22.048 12.2769 19.834 11.9409 18.614C12.9049 19.107 13.7789 20.369 14.0879 20.925C14.1829 21.096 14.3549 21.198 14.5659 21.181C14.7599 21.166 14.9289 21.038 14.9949 20.854C15.9619 18.199 15.3049 16.243 14.5949 15.078C16.6649 15.777 20.2549 17.678 20.2549 22.457C20.2549 22.593 20.3109 22.723 20.4089 22.818C20.5079 22.912 20.6359 22.965 20.7769 22.956C21.3669 22.931 22.4279 22.483 22.9369 21.07C22.9809 21.203 23.0089 21.349 23.0089 21.506V25.006H17.5089C17.2329 25.006 17.0089 25.23 17.0089 25.506V29.506C17.0089 29.782 17.2329 30.006 17.5089 30.006H20.0089V30.39C19.1539 30.951 18.0099 31.266 16.7519 31.266ZM9.06087 22.657C8.08487 22.011 6.92188 20.783 6.92188 18.598C6.92188 15.61 9.00087 14.63 10.2399 14.311C10.4729 14.252 10.6299 14.036 10.6149 13.797L10.5659 12.976C10.5659 10.646 12.3009 6.94995 16.9569 6.94995C18.8529 6.94995 20.3559 7.49495 21.4229 8.56895C22.1859 9.33495 22.7789 10.314 23.1899 11.478C23.2509 11.653 23.4039 11.779 23.5869 11.807C23.7739 11.833 23.9539 11.758 24.0639 11.609C24.6839 10.767 25.7539 10.415 26.7229 10.734C27.8209 11.094 28.4489 12.171 28.4459 13.67C28.4079 13.938 28.5899 14.187 28.8569 14.233C31.6509 14.714 33.0089 16.06 33.0089 18.346C33.0089 19.668 32.6679 20.679 31.9929 21.43C31.9559 21.192 31.7579 21.006 31.5089 21.006H23.9499C23.7439 20.069 23.0289 19.507 22.9939 19.48C22.8509 19.37 22.6609 19.345 22.4919 19.418C22.3259 19.489 22.2119 19.645 22.1939 19.825C22.0699 21.006 21.6049 21.533 21.2319 21.769C20.7669 14.939 13.4039 13.733 13.3259 13.721C13.1029 13.687 12.8859 13.807 12.7949 14.014C12.7029 14.22 12.7629 14.463 12.9379 14.605C13.0309 14.681 15.0239 16.345 14.3469 19.509C13.6769 18.618 12.5229 17.411 11.1869 17.411C11.0209 17.411 10.8649 17.494 10.7729 17.631C10.6799 17.769 10.6609 17.943 10.7229 18.097C10.7359 18.129 11.9239 21.165 10.8159 23.006H10.2519C9.81787 23.006 9.40487 22.885 9.06087 22.657ZM25.5089 25.006H24.0089V22.006H31.0089V25.006H26.0089H25.5089ZM25.0089 29.006H18.0089V26.006H23.5089H25.0089V29.006ZM33.5089 25.006H32.0089V22.765C33.3329 21.802 34.0089 20.319 34.0089 18.346C34.0089 16.478 33.2029 14.125 29.4389 13.327C29.3339 11.561 28.4519 10.25 27.0349 9.78395C25.9229 9.41795 24.7219 9.66695 23.8379 10.402C23.4019 9.41595 22.8299 8.56495 22.1319 7.86295C20.8699 6.59395 19.1289 5.94995 16.9569 5.94995C11.8589 5.94995 9.56587 10.059 9.56687 13.006L9.59387 13.459C8.24187 13.903 5.92188 15.167 5.92188 18.598C5.92188 21.366 7.54187 22.852 8.50887 23.491C9.01787 23.828 9.62087 24.006 10.2519 24.006H10.3269C9.68588 25.662 9.83087 27.501 10.7719 28.98C12.0809 31.037 14.3179 32.266 16.7519 32.266C17.9549 32.266 19.0769 32.006 20.0089 31.54V33.506C20.0089 33.782 20.2329 34.006 20.5089 34.006H27.5089C27.7849 34.006 28.0089 33.782 28.0089 33.506V30.006H33.5089C33.7849 30.006 34.0089 29.782 34.0089 29.506V25.506C34.0089 25.23 33.7849 25.006 33.5089 25.006Z" fill="#DD344C"/>
</g>
<rect x="0.5" y="0.5" width="39" height="39" stroke="#DD344C"/>
<defs>
<clipPath id="clip0_23311_9600">
<rect width="40" height="40" fill="white"/>
</clipPath>
</defs>
</svg>
