<svg width="24" height="24" viewBox="0 0 24 24" fill="none" xmlns="http://www.w3.org/2000/svg">
<path d="M22 6V17.8868H18.0377C17.9335 17.8868 17.8491 17.8023 17.8491 17.6981V16.566C17.8491 16.4618 17.9335 16.3774 18.0377 16.3774L20.4901 16.377V7.509L18.0377 7.50943C17.9335 7.50943 17.8491 7.42496 17.8491 7.32075V6.18868C17.8491 6.08447 17.9335 6 18.0377 6H22ZM6.3091 6C6.41331 6 6.49778 6.08447 6.49778 6.18868V7.32075C6.49778 7.42496 6.41331 7.50943 6.3091 7.50943L3.509 7.509V16.377L6.29245 16.3774C6.39666 16.3774 6.48113 16.4618 6.48113 16.566V17.6981C6.48113 17.8023 6.39666 17.8868 6.29245 17.8868H2V6H6.3091ZM17.4271 9.86792V11.3241L17.4879 11.3485L18.8382 10.8713L19.1179 11.6911L17.7555 12.1561L17.719 12.254L18.6557 13.5144L17.9502 14.0283L17.0379 12.768H16.9527L16.0404 14.0283L15.3349 13.5144L16.2594 12.254L16.235 12.1561L14.8726 11.6911L15.1524 10.8713L16.4905 11.3485L16.5635 11.3241V9.86792H17.4271ZM7.19598 9.86792V11.3096L7.2568 11.3339L8.60702 10.8614L8.88679 11.6731L7.52441 12.1335L7.48792 12.2304L8.42456 13.4783L7.71904 13.9871L6.80673 12.7392H6.72158L5.80927 13.9871L5.10375 13.4783L6.02822 12.2304L6.00389 12.1335L4.64151 11.6731L4.92128 10.8614L6.25934 11.3339L6.33232 11.3096V9.86792H7.19598ZM12.2903 9.86792V11.3096L12.3511 11.3339L13.7014 10.8614L13.9811 11.6731L12.6187 12.1335L12.5823 12.2304L13.5189 13.4783L12.8134 13.9871L11.9011 12.7392H11.8159L10.9036 13.9871L10.1981 13.4783L11.1226 12.2304L11.0982 12.1335L9.73585 11.6731L10.0156 10.8614L11.3537 11.3339L11.4267 11.3096V9.86792H12.2903Z" fill="white"/>
</svg>
