<svg id="Graph" xmlns="http://www.w3.org/2000/svg" viewBox="0 0 512 512"><g id="Cpedia_-_Graph_-_Color_Dark" data-name="Cpedia - Graph - Color Dark"><rect id="Frame" width="512" height="512" fill="none"/><path id="Secondary" d="M476,221.051A274.908,274.908,0,0,0,428.269,256,282.438,282.438,0,0,1,395.7,220.752,322.971,322.971,0,0,1,452,179.482ZM362.4,256a334.139,334.139,0,0,0-53.2,92.145A329.953,329.953,0,0,0,295.32,394.6a322.932,322.932,0,0,0-7.587,69.4h48a274.957,274.957,0,0,1,6.4-58.813,282.32,282.32,0,0,1,14.238-45.835,285.94,285.94,0,0,1,39.323-68.1A330.2,330.2,0,0,1,362.4,256ZM169.865,405.189a274.9,274.9,0,0,1,6.4,58.811h48a322.893,322.893,0,0,0-7.589-69.4A282.46,282.46,0,0,0,169.865,405.189ZM179.94,300.03A333.961,333.961,0,0,0,149.6,256a330,330,0,0,0-33.291-35.248A322.915,322.915,0,0,0,60,179.482L36,221.051A274.964,274.964,0,0,1,83.733,256a282.3,282.3,0,0,1,32.576,35.248,286.331,286.331,0,0,1,22.054,32.768,286.3,286.3,0,0,1,17.264,35.339A330.144,330.144,0,0,1,202.8,348.148,334.156,334.156,0,0,0,179.94,300.03ZM169.865,106.811a274.966,274.966,0,0,1-54.132-23.862l-24,41.569a322.934,322.934,0,0,0,63.894,28.127A282.241,282.241,0,0,0,169.865,106.811Zm186.507,45.836a322.994,322.994,0,0,0,63.895-28.129l-24-41.569a275.02,275.02,0,0,1-54.133,23.864A282.293,282.293,0,0,1,295.32,117.4a286.278,286.278,0,0,1-39.307,2.716h-.1a286.366,286.366,0,0,1-39.237-2.718,330.245,330.245,0,0,1-13.88,46.455,334.129,334.129,0,0,0,53.1,4.263h.115a333.931,333.931,0,0,0,53.187-4.261A329.92,329.92,0,0,0,356.372,152.647Z" fill="#1b1c1d"/><path id="Primary" d="M211.993,256l22-38.1h44l22,38.1-22,38.105h-44ZM342.134,106.813A274.957,274.957,0,0,1,335.733,48h-48a322.932,322.932,0,0,0,7.587,69.4A282.293,282.293,0,0,0,342.134,106.813ZM428.269,256A282.438,282.438,0,0,1,395.7,220.752a285.92,285.92,0,0,1-39.323-68.105A329.92,329.92,0,0,1,309.2,163.854,334.125,334.125,0,0,0,362.4,256,330.2,330.2,0,0,0,395.7,291.248,322.971,322.971,0,0,0,452,332.518l24-41.569A274.908,274.908,0,0,1,428.269,256ZM149.6,256a333.961,333.961,0,0,0,30.34-44.03A334.156,334.156,0,0,0,202.8,163.852a330.245,330.245,0,0,0,13.88-46.455A322.893,322.893,0,0,0,224.267,48h-48a274.9,274.9,0,0,1-6.4,58.811,282.241,282.241,0,0,1-14.238,45.834,286.3,286.3,0,0,1-17.264,35.339,286.331,286.331,0,0,1-22.054,32.768A330,330,0,0,1,149.6,256Zm-65.867,0A274.964,274.964,0,0,1,36,290.949l24,41.569a322.915,322.915,0,0,0,56.309-41.27A282.3,282.3,0,0,0,83.733,256ZM255.9,343.885a334.129,334.129,0,0,0-53.1,4.263,330.144,330.144,0,0,0-47.171,11.207,322.934,322.934,0,0,0-63.894,28.127l24,41.569a274.966,274.966,0,0,1,54.132-23.862A282.46,282.46,0,0,1,216.678,394.6a286.366,286.366,0,0,1,39.237-2.718h.1A286.278,286.278,0,0,1,295.32,394.6a329.953,329.953,0,0,1,13.88-46.456,334.028,334.028,0,0,0-53.187-4.26Zm86.236,61.3a275.027,275.027,0,0,1,54.133,23.864l24-41.569a322.991,322.991,0,0,0-63.895-28.13A282.32,282.32,0,0,0,342.134,405.187Z" fill="#33de72"/></g></svg>