<svg xmlns="http://www.w3.org/2000/svg" viewBox="0 0 21 21" fill="none" height="22" width="22"> <path d="M12.0564 3.25C13.8942 3.24998 15.3498 3.24997 16.489 3.40314C17.6614 3.56076 18.6104 3.89288 19.3588 4.64124C20.1071 5.38961 20.4392 6.33856 20.5969 7.51098C20.75 8.65018 20.75 10.1058 20.75 11.9435V12.0564C20.75 13.8942 20.75 15.3498 20.5969 16.489C20.4392 17.6614 20.1071 18.6104 19.3588 19.3588C18.6104 20.1071 17.6614 20.4392 16.489 20.5969C15.3498 20.75 13.8942 20.75 12.0565 20.75H11.9436C10.1059 20.75 8.65018 20.75 7.51098 20.5969C6.33856 20.4392 5.38961 20.1071 4.64124 19.3588C3.89288 18.6104 3.56076 17.6614 3.40314 16.489C3.24997 15.3498 3.24998 13.8942 3.25 12.0564V11.9436C3.24998 10.1058 3.24997 8.65019 3.40314 7.51098C3.56076 6.33856 3.89288 5.38961 4.64124 4.64124C5.38961 3.89288 6.33856 3.56076 7.51098 3.40314C8.65019 3.24997 10.1058 3.24998 11.9436 3.25H12.0564ZM19.1748 15.6711C19.0653 15.2971 18.8469 14.9557 18.5356 14.6963L17.622 13.935C16.9536 13.378 16.0018 13.317 15.2679 13.7841L12.6873 15.4262C11.7554 16.0192 10.5193 15.7445 9.92625 14.8127L9.19922 13.6702C8.27584 12.2192 6.32407 11.8399 4.92452 12.8396L4.7509 12.9636C4.75486 14.377 4.7761 15.4437 4.88976 16.2892C5.02503 17.2952 5.27869 17.8749 5.7019 18.2981C6.12511 18.7213 6.70476 18.975 7.71085 19.1102C8.73851 19.2484 10.0932 19.25 12 19.25C13.9068 19.25 15.2615 19.2484 16.2892 19.1102C17.2952 18.975 17.8749 18.7213 18.2981 18.2981C18.7213 17.8749 18.975 17.2952 19.1102 16.2892C19.1363 16.0953 19.1575 15.8898 19.1748 15.6711ZM15 10C16.1046 10 17 9.10457 17 8C17 6.89543 16.1046 6 15 6C13.8954 6 13 6.89543 13 8C13 9.10457 13.8954 10 15 10Z" fill="white"></path> </svg>