<svg width="40" height="40"  viewBox="0 0 40 40" xmlns="http://www.w3.org/2000/svg">  <g id="Icon-Architecture/32/Arch_Amazon-Kinesis-Data-Streams_32" stroke="none" stroke-width="1" fill="none" fill-rule="evenodd">  <g id="Icon-Service/32/Amazon-Kinesis-Data-Streams" transform="translate(7.000000, 7.000000)" fill="#FFFFFF"> <path d="M1,6.706 L0,6.706 C0,10.238 4.767,12.479 14.172,13.413 C4.767,14.345 0,16.587 0,20.119 L1,20.119 C1,17.801 4.233,13.913 25.888,13.913 L25.888,12.913 C4.233,12.913 1,9.024 1,6.706 L1,6.706 Z M3.874,2.874 L2.874,2.874 C2.874,7.385 5.608,11.997 25.888,11.997 L25.888,10.997 C6.489,10.997 3.874,6.891 3.874,2.874 L3.874,2.874 Z M6.748,-1.77635684e-15 L5.748,-1.77635684e-15 C5.748,5.101 7.303,10.081 25.888,10.081 L25.888,9.081 C6.748,9.081 6.748,3.616 6.748,-1.77635684e-15 L6.748,-1.77635684e-15 Z M18.987,23.871 L19.891,23.871 L19.891,22.797 L18.987,22.797 L18.987,23.871 Z M20.891,22.297 L20.891,24.371 C20.891,24.647 20.667,24.871 20.391,24.871 L18.486,24.871 C18.21,24.871 17.986,24.647 17.986,24.371 L17.986,22.297 C17.986,22.02 18.21,21.797 18.486,21.797 L20.391,21.797 C20.667,21.797 20.891,22.02 20.891,22.297 L20.891,22.297 Z M18.011,20.893 L19.914,20.893 L19.914,19.893 L18.011,19.893 L18.011,20.893 Z M21.842,18.941 L22.863,18.941 L22.863,17.949 L21.842,17.949 L21.842,18.941 Z M24.739,20.836 C24.739,19.819 24.41,18.881 23.863,18.108 L23.863,19.441 C23.863,19.717 23.64,19.941 23.363,19.941 L21.342,19.941 C21.065,19.941 20.842,19.717 20.842,19.441 L20.842,17.449 C20.842,17.172 21.065,16.949 21.342,16.949 L22.699,16.949 C21.932,16.413 21.002,16.093 19.996,16.093 C18.453,16.093 17.094,16.845 16.227,17.989 L19.914,17.989 L19.914,18.989 L15.628,18.989 C15.506,19.277 15.412,19.58 15.349,19.893 L17.059,19.893 L17.059,20.893 L15.259,20.893 C15.267,21.553 15.41,22.179 15.663,22.749 L17.059,22.749 L17.059,23.749 L16.28,23.749 C17.149,24.855 18.483,25.58 19.996,25.58 C21.509,25.58 22.843,24.855 23.712,23.749 L21.818,23.749 L21.818,22.749 L24.329,22.749 C24.589,22.163 24.739,21.518 24.739,20.836 L24.739,20.836 Z M25.739,20.836 C25.739,24.003 23.163,26.58 19.996,26.58 C16.829,26.58 14.253,24.003 14.253,20.836 C14.253,17.669 16.829,15.093 19.996,15.093 C23.163,15.093 25.739,17.669 25.739,20.836 L25.739,20.836 Z M15.879,15.36 L15.875,15.326 C4.419,16.662 2.874,20.435 2.874,23.951 L3.874,23.951 C3.874,21.008 5.215,17.853 14.688,16.496 C15.036,16.07 15.439,15.692 15.879,15.36 L15.879,15.36 Z M13.82,17.866 C13.646,18.227 13.501,18.606 13.392,18.999 C6.758,20.8 6.748,24.119 6.748,26.825 L5.748,26.825 C5.748,24.011 5.772,19.82 13.82,17.866 L13.82,17.866 Z" id="Amazon-Kinesis-Data-Streams_Icon_32_Squid"></path> </g> </g></svg>