<svg width="24px" height="24px" viewBox="0 0 24 24" fill="none" xmlns="http://www.w3.org/2000/svg">
<path d="M11.8972 16.1936C12.7067 16.1936 13.3629 16.8218 13.3629 17.5968C13.3629 18.3718 12.7067 19 11.8972 19C11.0877 19 10.4314 18.3718 10.4314 17.5968C10.4314 16.8218 11.0877 16.1936 11.8972 16.1936ZM13.934 14.374L14.655 15.5766L15.4933 15.5758C15.6911 15.0248 16.2372 14.6288 16.8798 14.6288C17.6893 14.6288 18.3455 15.2571 18.3455 16.032C18.3455 16.807 17.6893 17.4353 16.8798 17.4353C16.2472 17.4353 15.7083 17.0516 15.5029 16.5141L14.5545 16.5137C14.2611 16.5095 13.9922 16.3561 13.8487 16.1111L13.049 14.779H10.744L9.94603 16.1108C9.80255 16.356 9.53361 16.5094 9.24012 16.5137L8.29146 16.5141C8.08608 17.0516 7.5471 17.4353 6.91452 17.4353C6.10503 17.4353 5.4488 16.807 5.4488 16.032C5.4488 15.2571 6.10503 14.6288 6.91452 14.6288C7.55717 14.6288 8.10321 15.0248 8.30101 15.5758L9.1392 15.5764L9.885 14.332L8.732 12.417L6.8475 12.4178C6.66091 12.9214 6.18246 13.2928 5.60688 13.3454L5.46572 13.3518C4.65623 13.3518 4 12.7236 4 11.9486C4 11.1737 4.65623 10.5454 5.46572 10.5454C6.10348 10.5454 6.64611 10.9354 6.84764 11.4798L8.66 11.48L9.845 9.546L9.13908 8.36886L8.2963 8.36917C8.09465 8.91341 7.55213 9.30317 6.91452 9.30317C6.10503 9.30317 5.4488 8.67493 5.4488 7.89996C5.4488 7.125 6.10503 6.49676 6.91452 6.49676C7.55213 6.49676 8.09465 6.88652 8.2963 7.43075L9.24012 7.4316C9.53324 7.43583 9.80191 7.5889 9.9456 7.83351L10.716 9.117H13.078L13.8483 7.83422C13.9919 7.58926 14.2608 7.4359 14.5542 7.4316L15.498 7.43075C15.6997 6.88652 16.2422 6.49676 16.8798 6.49676C17.6893 6.49676 18.3455 7.125 18.3455 7.89996C18.3455 8.67493 17.6893 9.30317 16.8798 9.30317C16.2422 9.30317 15.6997 8.91341 15.498 8.36917L14.6554 8.36862L13.923 9.588L15.063 11.48L17.1524 11.4798C17.3388 10.976 17.8174 10.6045 18.3931 10.5518L18.5343 10.5454C19.3438 10.5454 20 11.1737 20 11.9486C20 12.7236 19.3438 13.3518 18.5343 13.3518C17.8967 13.3518 17.3541 12.9621 17.1525 12.4178L15.134 12.417L13.934 14.374ZM11.8972 5C12.7067 5 13.3629 5.62824 13.3629 6.4032C13.3629 7.17817 12.7067 7.80641 11.8972 7.80641C11.0877 7.80641 10.4314 7.17817 10.4314 6.4032C10.4314 5.62824 11.0877 5 11.8972 5Z" fill="white"/>
</svg>
