<svg width="40" height="40" viewBox="0 0 40 40" fill="none" xmlns="http://www.w3.org/2000/svg">
<g clip-path="url(#clip0_23295_3158)">
<path d="M40 0H0V40H40V0Z" fill="#7AA116" fill-opacity="0.12"/>
<path fill-rule="evenodd" clip-rule="evenodd" d="M21.9876 21.0723H25.9917V20.073H21.9876V21.0723ZM28.9948 21.0723H31.9979V20.073H28.9948V21.0723ZM21.9876 19.0267H26.9927V18.0274H21.9876V19.0267ZM8.50159 32.0007C7.74381 32.0007 7.00104 31.2592 7.00104 30.5037C7.00104 29.7483 7.74381 29.0058 8.50159 29.0058C9.25737 29.0058 10.0011 29.7483 10.0011 30.5037C10.0011 31.2592 9.25737 32.0007 8.50159 32.0007ZM8.50159 24.9845C7.74381 24.9845 7.00104 24.2431 7.00104 23.4876C7.00104 22.7321 7.74381 21.9896 8.50159 21.9896C9.25737 21.9896 10.0011 22.7321 10.0011 23.4876C10.0011 24.2431 9.25737 24.9845 8.50159 24.9845ZM8.50159 17.9544C7.74381 17.9544 7.00104 17.2129 7.00104 16.4575C7.00104 15.702 7.74381 14.9605 8.50159 14.9605C9.25737 14.9605 10.0011 15.702 10.0011 16.4575C10.0011 17.2129 9.25737 17.9544 8.50159 17.9544ZM8.50159 10.9942C7.77183 10.9942 7.00104 10.2248 7.00104 9.49727C7.00104 8.76978 7.77183 7.99931 8.50159 7.99931C9.22934 7.99931 10.0011 8.76978 10.0011 9.49727C10.0011 10.2248 9.22934 10.9942 8.50159 10.9942ZM25.9917 23.9872V22.9879H15.9033V9.49727C15.9033 9.22146 15.68 8.99762 15.4027 8.99762H10.9391C10.6778 7.91637 9.61775 7 8.50159 7C7.21526 7 6 8.21416 6 9.49727C6 10.7804 7.21526 11.9935 8.50159 11.9935C9.61775 11.9935 10.6778 11.0782 10.9391 9.99693H14.9022V16.0547H10.9571C10.7449 14.9165 9.6738 13.9612 8.50159 13.9612C7.19223 13.9612 6 15.1514 6 16.4575C6 17.7645 7.19223 18.9537 8.50159 18.9537C9.60573 18.9537 10.6188 18.1043 10.9101 17.054H14.9022V22.9879H10.9421C10.6889 21.8927 9.63977 20.9903 8.50159 20.9903C7.19223 20.9903 6 22.1805 6 23.4876C6 24.7947 7.19223 25.9839 8.50159 25.9839C9.63977 25.9839 10.6889 25.0825 10.9421 23.9872H14.9022V30.0041H10.9421C10.6889 28.9088 9.63977 28.0065 8.50159 28.0065C7.19223 28.0065 6 29.1966 6 30.5037C6 31.8098 7.19223 33 8.50159 33C9.63977 33 10.6889 32.0986 10.9421 31.0034H15.4027C15.68 31.0034 15.9033 30.7795 15.9033 30.5037V23.9872H25.9917ZM27.9938 23.9872H31.9979V22.9879H27.9938V23.9872ZM28.9948 19.0267H31.9979V18.0274H28.9948V19.0267ZM28.9788 10.8663L29.8067 11.8486L32.4244 14.9515H28.9788V10.8663ZM33.992 15.4072C33.99 15.3892 33.987 15.3742 33.984 15.3572C33.967 15.2743 33.9379 15.1943 33.8829 15.1294L28.8607 9.17549C28.8016 9.10454 28.7215 9.06057 28.6354 9.03259C28.6104 9.0236 28.5884 9.0206 28.5634 9.0166C28.5343 9.01161 28.5083 8.99762 28.4783 8.99762H20.444C20.1677 8.99762 19.9434 9.22146 19.9434 9.49727V21.9676H20.9445V9.99693H27.9778V15.4511C27.9778 15.727 28.201 15.9508 28.4783 15.9508H32.999V30.0041H20.9445V24.9656H19.9434V30.5037C19.9434 30.7795 20.1677 31.0034 20.444 31.0034H33.4995C33.7768 31.0034 34 30.7795 34 30.5037V15.4511C34 15.4362 33.994 15.4222 33.992 15.4072Z" fill="#7AA116"/>
</g>
<rect x="0.5" y="0.5" width="39" height="39" stroke="#7AA116"/>
<defs>
<clipPath id="clip0_23295_3158">
<rect width="40" height="40" fill="white"/>
</clipPath>
</defs>
</svg>
