<svg id="Layer_1" xmlns="http://www.w3.org/2000/svg" viewBox="0 0 2146.76137 2088"><defs><style>.cls-1{fill:#fff;}</style></defs><path class="cls-1" d="M881.98663,1186.05017c-2.41522-.02887-4.82324,.18518-7.19275,.63989l-.3656-.48358-214.63354,36.45789c32.2204,89.14075,92.9566,165.15784,172.78595,216.2597l83.17072-200.97705-.62067-.80823c1.88599-4.3938,2.89154-9.11481,2.9613-13.89471,.30072-20.24176-15.86481-36.89325-36.10541-37.19391Z"/><path class="cls-1" d="M845.82343,1059.88794c6.98346-1.90637,13.24518-5.83826,17.99622-11.29895,13.28845-15.27185,11.68152-38.42444-3.58911-51.71167l.1756-.88757-163.30798-146.06482v.00964c-49.8197,81.08862-71.20532,176.46655-60.77472,271.06372l209.33405-60.40063,.16595-.70972Z"/><polygon class="cls-1" points="1064.67639 1152.99261 1124.74146 1124.08228 1139.64893 1059.24695 1098.06836 1007.26221 1031.18335 1007.26221 989.49463 1059.15918 1004.43091 1124.02332 1064.67639 1152.99261"/><path class="cls-1" d="M2068.99536,1255.28046l.00977,.06018-173.63965-754.22943c-9.4552-39.51135-36.13232-72.69946-72.68701-90.42786L1119.81726,75.10498c-36.89392-17.60596-79.76624-17.60596-116.66016,0L300.43561,410.86279c-36.56372,17.71704-63.24988,50.90369-72.70697,90.41772L54.36798,1255.48999c-4.2757,19.06396-4.28931,38.83673-.03986,57.90643,1.25146,5.80933,2.88623,11.52948,4.89362,17.1228,3.3927,9.54498,7.88464,18.66278,13.38531,27.16919,2.38202,3.63794,4.89362,7.17603,7.62451,10.60455l486.41443,604.75885c2.12292,2.63129,4.46509,5.03326,6.78735,7.47504,7.6322,8.12762,16.25037,15.26929,25.65424,21.25891,11.89362,7.48566,24.85535,13.12128,38.44153,16.71417,11.14111,3.0545,22.63373,4.63947,34.18579,4.71429h7.5647l772.45844-.17944c4.69592-.02069,9.38721-.29688,14.0531-.82715,6.69299-.75677,13.3197-2.01611,19.82373-3.76746,4.66174-1.22748,9.25586-2.69794,13.76404-4.40533,3.51807-1.3454,7.02649-2.69104,10.41504-4.31555,5.07495-2.42993,9.99756-5.16583,14.74084-8.19269,12.23889-7.69568,23.13684-17.34119,32.26208-28.55463l14.83057-18.43842,471.41455-586.44012c9.0354-11.33026,16.13452-24.07684,21.00977-37.724,2.03564-5.61218,3.70068-11.35199,4.9834-17.18256,4.26025-19.06848,4.24658-38.84375-.03979-57.90643Zm-273.73315-8.78998c-7.18774,21.90228-30.76978,33.83032-52.67261,26.64246l-.5918-.08899c-.27417-.0788-.5293-.19666-.81787-.27545-3.44727-.75897-7.73401-1.50769-10.73853-2.29614-12.70874-4.07806-25.17212-8.888-37.32507-14.40521-23.42322-9.44855-47.71008-16.59314-72.5188-21.33276-8.58313-.26581-16.9281,2.83557-23.25476,8.64148-3.04309-.62067-12.41528-2.25647-17.79419-3.11346-40.20923,126.52057-125.52344,233.84637-239.71167,301.55939,1.95337,5.73431,4.26514,11.33936,6.92798,16.78015-4.24097,7.44287-5.38843,16.25458-3.19214,24.53461,10.1106,23.15375,22.46094,45.26465,36.87036,66.01703,8.06592,10.60925,15.51123,21.67676,22.29736,33.14661,1.64551,3.1134,3.83215,7.91193,5.4198,11.19318,1.39758,2.33459,2.56189,4.80035,3.48083,7.3623,7.7821,21.72119-3.51929,45.63812-25.2417,53.41962-21.72241,7.78143-45.63879-3.51935-53.41846-25.24121-1.59741-3.271-3.79602-7.58722-5.14319-10.66095-4.75342-12.46216-8.78284-25.18768-12.07117-38.11292-7.2168-24.18091-16.78137-47.59808-28.55432-69.91833-5.1167-6.91602-12.73999-11.55042-21.23413-12.90778-1.30139-2.27625-6.22803-11.28217-8.86938-15.99231-123.68799,46.84216-260.29633,46.49518-383.74377-.97546l-9.42987,17.04657c-6.71881,1.04706-12.96613,4.09613-17.92401,8.74976-14.18097,23.271-25.02051,48.41901-32.20117,74.70721-3.2572,12.92584-7.26489,25.65198-12.00146,38.1123-1.32788,3.04486-3.56512,7.31116-5.14319,10.56293v.09863l-.06732,.0788c-.92377,2.56854-2.09766,5.04089-3.50256,7.38092-11.87878,19.7691-37.53192,26.16675-57.30103,14.28979-19.7691-11.87701-26.16553-37.53137-14.28918-57.30048,1.58771-3.28119,3.68536-8.07977,5.34039-11.21301,6.78619-11.49512,14.23145-22.58844,22.29736-33.22473,14.67169-21.29486,27.27454-43.94226,37.6402-67.63306,1.09937-8.03467-.19244-16.21545-3.71417-23.52002l7.57758-18.1297c-113.82269-67.16992-199.12958-173.67059-239.82965-299.41174l-18.13092,3.10382c-7.02185-4.9928-15.30432-7.91803-23.90186-8.44421-24.80157,4.74377-49.08356,11.88837-72.50195,21.3327-12.15302,5.47034-24.60675,10.2442-37.30341,14.297-3.0166,.81793-7.33221,1.6358-10.76019,2.42365-.27661,.04932-.51239,.18762-.789,.24658l-.62067,.09863c-2.47052,.81244-5.01562,1.39221-7.59442,1.73138-22.85309,3.00458-43.81775-13.08759-46.82233-35.94244-3.00458-22.85425,13.08636-43.81775,35.94183-46.82349l.5918-.17566,.36322-.07935c3.47852-.86725,7.91437-1.99066,11.10419-2.58118,13.22595-1.83789,26.54803-2.90961,39.89667-3.21271,25.18884-1.66223,50.15161-5.77698,74.54187-12.2865,7.22156-4.59589,13.32935-10.74579,17.87347-18.00342l17.40924-5.06372c-18.89832-131.23065,11.31586-264.81891,84.84741-375.14386l-13.31256-11.90283c-.4931-8.61926-3.39185-16.92688-8.3642-23.98376-19.14844-16.46851-39.86053-31.02954-61.84039-43.47119-11.86914-6.05969-23.37988-12.79785-34.47681-20.18042-2.52106-1.84277-5.87207-4.6897-8.59277-6.91614l-.63989-.45471c-19.6897-14.14355-24.26031-41.53601-10.22614-61.30627,8.07312-9.89661,20.38251-15.34888,33.13696-14.68127,10.58215,.45459,20.74091,4.28674,28.98724,10.93701,2.83862,2.26721,6.70923,5.22241,9.24231,7.38989,9.67041,9.15686,18.80682,18.86108,27.36108,29.06787,16.99786,18.66736,35.77588,35.63403,56.06702,50.65442,7.60162,3.99573,16.46381,4.85571,24.6933,2.39478,4.96515,3.61926,9.97595,7.17346,15.03491,10.6615,73.06726-77.66675,167.68134-131.72375,271.69403-155.22876,18.48212-4.18579,37.19275-7.21436,56.00201-9.43237v-176.12476l320.21954,220.7124-320.21954,237.40601v-171.77197c-10.5509,1.55872-21.06085,3.36292-31.46747,5.70605-77.89764,17.50293-149.35315,56.43372-206.29816,112.396l178.87689,126.83093,.34399-.19714c5.83838,4.24219,12.79773,6.66821,20.00488,6.97241,1.83307,1.48682,6.75006,.31042,13.48572-2.03979,.52441-.18042,1.04163-.35608,1.55402-.56055,14.56342-5.23462,36.69635-14.19531,55.07831-16.36157,62.94983-7.41882,88.28735,2.71582,118.73962,14.3866,1.65515,.80225,3.32935,1.51794,5.07581,2.06165,62.474,28.52905,93.02393,86.84155,101.2655,124.11853,.02405,4.53809,.84436,8.93909,2.45129,13.05872,1.96533,12.88794,1.93164,21.18359,1.93164,21.18359l232.96655,62.42371c10.64673-96.73694-19.26074-205.23865-85.33557-306.78503l89.72266-63.98828c100.1554,170.40332,109.19727,280.29614,101.70398,401.34106l16.78857,4.88696c4.19299,7.55957,10.40186,13.80688,17.93372,18.05029,24.4071,6.49268,49.3866,10.5918,74.58752,12.23846,13.34143,.31268,26.64917,1.3844,39.8678,3.21265,3.47852,.63989,8.54224,2.03992,12.09045,2.85785h-.00244c2.55713,.33917,5.07593,.91412,7.5271,1.71759,21.90283,7.18787,33.82983,30.76984,26.64185,52.67267Z"/><path class="cls-1" d="M1096.94482,1293.41083c-3.40625-6.30261-8.58545-11.47046-14.89526-14.86652-17.84949-9.60669-40.10596-2.92401-49.71387,14.92548h-.17554l-105.55957,190.87775c75.5835,25.72595,156.83447,29.89844,234.65527,12.05078v.01984c14.46472-3.29144,28.56628-7.22937,42.2998-11.81439l-105.82178-191.19293h-.78906Z"/><path class="cls-1" d="M1254.0946,1185.79272c-2.77368-.54126-5.60266-.75049-8.42444-.62061-4.87842,.25861-9.65356,1.49866-14.04126,3.64685-17.67871,8.53864-25.50659,29.47925-17.76538,47.52173l-.25732,.36444,84.02954,203.02661v.01025c80.39941-51.30756,141.40259-127.9483,173.36804-217.80652l-216.54602-36.59497-.36316,.45221Z"/></svg>
