<svg width="24px" height="24px" viewBox="0 0 24 24" fill="none" xmlns="http://www.w3.org/2000/svg">
<g clip-path="url(#clip0_24126_23895)">
<path fill-rule="evenodd" clip-rule="evenodd" d="M20.9001 13.5002L22.8001 15.0002C23.0001 15.2002 23.1001 15.5002 22.9001 15.7002L20.7001 19.6002C20.6001 19.8002 20.3001 19.9002 20.0001 19.8002L17.8001 18.9002C17.0001 19.5002 16.1001 20.0002 15.2001 20.4002L14.9001 22.8002C14.9001 23.1002 14.6001 23.3002 14.3001 23.3002H9.70009C9.40009 23.3002 9.20009 23.1002 9.10009 22.8002L8.80009 20.4002C7.90009 20.1002 7.00009 19.5002 6.20009 18.9002L4.00009 19.8002C3.70009 19.9002 3.50009 19.8002 3.30009 19.6002L1.10009 15.7002C1.00009 15.4002 1.00009 15.1002 1.30009 15.0002L3.20009 13.5002C3.00009 12.5002 3.00009 11.5002 3.20009 10.5002L1.30009 9.0002C1.00009 8.9002 1.00009 8.6002 1.10009 8.3002L3.30009 4.4002C3.40009 4.2002 3.70009 4.1002 4.00009 4.2002L6.20009 5.1002C7.00009 4.4002 7.90009 3.9002 8.90009 3.6002L9.20009 1.2002C9.20009 0.900195 9.50009 0.700195 9.80009 0.700195H14.3001C14.6001 0.700195 14.8001 0.900195 14.9001 1.2002L15.2001 3.6002C16.1001 3.9002 17.0001 4.5002 17.8001 5.1002L20.0001 4.2002C20.3001 4.1002 20.5001 4.2002 20.7001 4.4002L22.9001 8.3002C23.0001 8.6002 23.0001 8.9002 22.7001 9.0002L20.8001 10.5002C21.0001 11.5002 21.0001 12.5002 20.9001 13.5002ZM12.0001 18.0002C12.8001 18.0002 13.5001 17.3002 13.5001 16.5002H10.5001C10.5001 17.3002 11.2001 18.0002 12.0001 18.0002ZM15.8001 11.2002C15.8001 8.9002 15.3001 7.7002 13.2001 7.2002V6.8002C13.2001 6.2002 12.7001 5.7002 12.1001 5.7002C11.5001 5.7002 10.9001 6.1002 10.9001 6.8002V7.3002C8.70009 7.8002 8.30009 9.0002 8.30009 11.3002V13.5002L6.80009 15.0002V15.8002H17.3001V15.0002L15.8001 13.5002V11.2002Z" fill="#DDDDDD"/>
<path fill-rule="evenodd" clip-rule="evenodd" d="M12 23.1998V17.9998C12.8 17.9998 13.5 17.2998 13.5 16.4998H12V15.6998H17.2V14.9998L15.7 13.4998V11.2998C15.7 8.9998 15.2 7.7998 13.1 7.2998V6.7998C13.1 6.1998 12.6 5.6998 12 5.6998V0.799805H14.2C14.5 0.799805 14.7 0.999805 14.8 1.2998L15.1 3.6998C16 3.9998 16.9 4.5998 17.7 5.1998L19.9 4.2998C20.2 4.1998 20.4 4.2998 20.6 4.4998L22.8 8.3998C23 8.5998 23 8.8998 22.7 8.9998L20.8 10.4998C21 11.4998 21 12.4998 20.8 13.4998L22.7 14.9998C22.9 15.1998 23 15.4998 22.8 15.6998L20.6 19.5998C20.5 19.7998 20.2 19.8998 19.9 19.7998L17.7 18.8998C16.9 19.4998 16 19.9998 15.1 20.3998L14.8 22.7998C14.8 23.0998 14.5 23.2998 14.2 23.2998H12V23.1998Z" fill="white"/>
</g>
<defs>
<clipPath id="clip0_24126_23895">
<rect width="24" height="24" fill="white"/>
</clipPath>
</defs>
</svg>
