<svg width="40" height="40" viewBox="0 0 40 40" xmlns="http://www.w3.org/2000/svg">  <g id="Icon-Architecture/32/Arch_AWS-Professional-Services_32" stroke="none" stroke-width="1" fill="none" fill-rule="evenodd">  <g id="Icon-Service/32/AWS-Professional-Services_32" transform="translate(6.000000, 6.000000)" fill="#FFFFFF"> <path d="M23.654,22.335 C23.536,22.45 23.482,22.615 23.509,22.777 L24.165,26.597 L20.734,24.794 C20.662,24.755 20.582,24.736 20.502,24.736 C20.422,24.736 20.341,24.755 20.269,24.794 L16.839,26.597 L17.494,22.777 C17.521,22.615 17.467,22.45 17.349,22.335 L14.574,19.629 L18.41,19.072 C18.572,19.048 18.714,18.946 18.786,18.798 L20.502,15.323 L22.217,18.798 C22.289,18.946 22.43,19.048 22.592,19.072 L26.429,19.629 L23.654,22.335 Z M27.979,19.126 C27.921,18.945 27.763,18.813 27.576,18.786 L22.997,18.12 L20.95,13.972 C20.866,13.801 20.692,13.693 20.502,13.693 C20.311,13.693 20.137,13.801 20.053,13.972 L18.006,18.12 L13.427,18.786 C13.239,18.813 13.083,18.945 13.024,19.126 C12.966,19.307 13.014,19.505 13.151,19.638 L16.464,22.868 L15.681,27.427 C15.649,27.614 15.726,27.804 15.881,27.916 C16.035,28.028 16.239,28.043 16.407,27.954 L20.502,25.801 L24.596,27.954 C24.67,27.992 24.749,28.011 24.829,28.011 C24.932,28.011 25.036,27.979 25.123,27.916 C25.277,27.804 25.354,27.614 25.322,27.427 L24.54,22.868 L27.852,19.638 C27.989,19.505 28.038,19.307 27.979,19.126 L27.979,19.126 Z M6.828,6.367 C6.828,3.407 9.236,1 12.196,1 C15.155,1 17.562,3.407 17.562,6.367 C17.562,9.326 15.155,11.734 12.196,11.734 C9.236,11.734 6.828,9.326 6.828,6.367 L6.828,6.367 Z M11.908,12.968 C13.703,12.968 15.483,13.439 17.055,14.329 L17.548,13.459 C16.597,12.92 15.574,12.537 14.52,12.289 C16.883,11.357 18.562,9.057 18.562,6.367 C18.562,2.856 15.707,0 12.196,0 C8.684,0 5.828,2.856 5.828,6.367 C5.828,8.973 7.404,11.216 9.652,12.2 C4.162,13.313 0,18.415 0,24.511 C0,24.788 0.223,25.011 0.5,25.011 L14,25.011 L14,24.011 L1.009,24.011 C1.258,17.886 6.051,12.968 11.908,12.968 L11.908,12.968 Z" id="AWS-Professional-Services_32_Squid"></path> </g> </g></svg>