<svg width="40" height="40" viewBox="0 0 40 40" xmlns="http://www.w3.org/2000/svg">  <g id="Icon-Architecture/32/Arch_AWS-Proton_32" stroke="none" stroke-width="1" fill="none" fill-rule="evenodd">  <g id="Icon-Service/32/AWS-Proton_32" transform="translate(6.000000, 6.000000)" fill="#FFFFFF"> <path d="M11.133,7.812 L8.657,4.717 L9.439,4.092 L11.764,7 L20.293,7 L19.147,5.853 L19.854,5.146 L21.854,7.146 C22.049,7.341 22.049,7.658 21.854,7.853 L19.854,9.853 L19.147,9.146 L20.293,7.999 L11.524,7.999 C11.371,7.999 11.228,7.931 11.133,7.812 L11.133,7.812 Z M21.854,20.146 C22.049,20.341 22.049,20.658 21.854,20.853 L19.854,22.853 L19.147,22.146 L20.293,21 L11.764,21 L9.439,23.907 L8.657,23.282 L11.133,20.187 C11.228,20.068 11.371,20 11.524,20 L20.293,20 L19.147,18.853 L19.854,18.146 L21.854,20.146 Z M27.854,14.353 L25.854,16.353 L25.147,15.646 L26.293,14.499 L15,14.499 L15,13.499 L26.293,13.499 L25.147,12.353 L25.854,11.646 L27.854,13.646 C28.049,13.841 28.049,14.158 27.854,14.353 L27.854,14.353 Z M3,26.999 C1.898,26.999 1,26.103 1,24.999 C1,23.896 1.898,23 3,23 C4.103,23 5,23.896 5,24.999 C5,26.103 4.103,26.999 3,26.999 L3,26.999 Z M10,11.999 C11.103,11.999 12,12.896 12,13.999 C12,15.103 11.103,16 10,16 C8.898,16 8,15.103 8,13.999 C8,12.896 8.898,11.999 10,11.999 L10,11.999 Z M1,3 C1,1.896 1.898,1 3,1 C4.103,1 5,1.896 5,3 C5,4.103 4.103,4.999 3,4.999 C1.898,4.999 1,4.103 1,3 L1,3 Z M4.947,22.737 L9.339,16.92 C9.553,16.969 9.773,17 10,17 C11.654,17 13,15.654 13,13.999 C13,12.345 11.654,11 10,11 C9.773,11 9.553,11.03 9.339,11.079 L4.947,5.262 C5.586,4.712 6,3.907 6,3 C6,1.345 4.654,1.77635684e-15 3,1.77635684e-15 C1.346,1.77635684e-15 0,1.345 0,3 C0,4.654 1.346,6 3,6 C3.404,6 3.787,5.917 4.139,5.772 L4.101,5.801 L8.387,11.478 C7.556,12.012 7,12.94 7,13.999 C7,15.059 7.556,15.987 8.387,16.521 L4.101,22.198 L4.139,22.227 C3.787,22.082 3.404,22 3,22 C1.346,22 0,23.345 0,24.999 C0,26.654 1.346,27.999 3,27.999 C4.654,27.999 6,26.654 6,24.999 C6,24.092 5.586,23.287 4.947,22.737 L4.947,22.737 Z" id="Fill-3"></path> </g> </g></svg>