<svg xmlns="http://www.w3.org/2000/svg" width="18" height="18" viewBox="0 0 18 18"><defs><linearGradient id="a" x1="2.59" y1="10.16" x2="15.41" y2="10.16" gradientUnits="userSpaceOnUse"><stop offset="0" stop-color="#005ba1"/><stop offset=".07" stop-color="#0060a9"/><stop offset=".36" stop-color="#0071c8"/><stop offset=".52" stop-color="#0078d4"/><stop offset=".64" stop-color="#0074cd"/><stop offset=".82" stop-color="#006abb"/><stop offset="1" stop-color="#005ba1"/></linearGradient></defs><path d="M9 5.14c-3.54 0-6.41-1-6.41-2.32v12.36c0 1.27 2.82 2.3 6.32 2.32H9c3.54 0 6.41-1 6.41-2.32V2.82c0 1.29-2.87 2.32-6.41 2.32z" fill="url(#a)"/><path d="M15.41 2.82c0 1.29-2.87 2.32-6.41 2.32s-6.41-1-6.41-2.32S5.46.5 9 .5s6.41 1 6.41 2.32" fill="#e8e8e8"/><path d="M13.92 2.63c0 .82-2.21 1.48-4.92 1.48s-4.92-.66-4.92-1.48S6.29 1.16 9 1.16s4.92.66 4.92 1.47" fill="#50e6ff"/><path d="M9 3a11.55 11.55 0 00-3.89.57A11.42 11.42 0 009 4.11a11.15 11.15 0 003.89-.58A11.84 11.84 0 009 3z" fill="#198ab3"/><path d="M14.25 6.32c-.33 0 .06.25-1.11.3s-1.58 1.25-2.34 2.26a4.93 4.93 0 01-3 1.41 3.67 3.67 0 00-1.88 1.39.92.92 0 01-.71.52c-.27 0-.86.08-.86.08a3.36 3.36 0 00-.71.24c.08.33.74.19.74.19a5.25 5.25 0 01-.52.47 2.8 2.8 0 001 .05c.43 0 .76-.41 1.55-.84s2.61 0 2.9 0 .72-.76.82-1c.08.54-.82 2-.82 2a2.11 2.11 0 001.66-1c.08-.1.33-.62.36-.57s.16.19.21.17a1.88 1.88 0 00.25-.27 7.58 7.58 0 001.14-2.48C13 9 13 8.13 13.6 7.77s.68-.69.68-.72V7a1.63 1.63 0 01-.39-.35.11.11 0 010-.11.77.77 0 00.48.38s.21-.6-.12-.6zM13 7.38h-.06a.36.36 0 01-.3-.08.48.48 0 01.52-.3.3.3 0 01-.16.38zm.56 0a2.81 2.81 0 01.33-.58 3.12 3.12 0 00-.35.62zm.36-.51a1.81 1.81 0 00-.08.51 1.69 1.69 0 010-.38 1.4 1.4 0 00-.16.39 1.34 1.34 0 01.22-.48zM12.21 11.52s-.49.46-.51.62.54.41.89.32a7.58 7.58 0 01-.38-.94z" fill="#f2f2f2"/></svg>