<svg width="90" height="66" viewBox="0 0 90 66" fill="none" xmlns="http://www.w3.org/2000/svg">
<path fill-rule="evenodd" clip-rule="evenodd" d="M-0.00170898 2.5C-0.00170898 1.39543 0.893721 0.5 1.99829 0.5H6.73628C7.84085 0.5 8.73628 1.39543 8.73628 2.5V7.28379C8.73628 8.38836 7.84085 9.28379 6.73628 9.28379H1.99829C0.893722 9.28379 -0.00170898 8.38836 -0.00170898 7.28379V2.5ZM-0.00170898 28.8514C-0.00170898 27.7468 0.893721 26.8514 1.99829 26.8514H6.73628C7.84085 26.8514 8.73628 27.7468 8.73628 28.8514V33.6352C8.73628 34.7398 7.84085 35.6352 6.73628 35.6352H1.99829C0.893722 35.6352 -0.00170898 34.7398 -0.00170898 33.6352V28.8514ZM1.99829 53.2028C0.893721 53.2028 -0.00170898 54.0982 -0.00170898 55.2028V59.9866C-0.00170898 61.0911 0.893722 61.9866 1.99829 61.9866H6.73628C7.84085 61.9866 8.73628 61.0911 8.73628 59.9866V55.2028C8.73628 54.0982 7.84085 53.2028 6.73628 53.2028H1.99829ZM17.4751 2.5C17.4751 1.39543 18.3705 0.5 19.4751 0.5H81.8838C82.9884 0.5 83.8838 1.39543 83.8838 2.5V7.28379C83.8838 8.38836 82.9884 9.28379 81.8838 9.28379H19.4751C18.3705 9.28379 17.4751 8.38836 17.4751 7.28379V2.5ZM19.4751 26.8514C18.3705 26.8514 17.4751 27.7468 17.4751 28.8514V33.6352C17.4751 34.7398 18.3705 35.6352 19.4751 35.6352H48.507C50.0851 32.194 52.4446 29.1894 55.3568 26.8514H19.4751ZM47.4168 53C48.4464 56.2867 50.1562 59.2703 52.3802 61.7838H19.9983C18.8937 61.7838 17.9983 60.8884 17.9983 59.7838V55C17.9983 53.8954 18.8937 53 19.9983 53H47.4168Z" fill="white"/>
<path fill-rule="evenodd" clip-rule="evenodd" d="M70.778 65.5002C81.3949 65.5002 90.0016 56.8484 90.0016 46.1759C90.0016 35.5034 81.3949 26.8516 70.778 26.8516C60.1611 26.8516 51.5544 35.5034 51.5544 46.1759C51.5544 56.8484 60.1611 65.5002 70.778 65.5002ZM69.727 35.9867V46.5273V47.2814L70.3571 47.6956L79.4447 53.6685L80.9804 51.332L72.5231 45.7732V35.9867H69.727Z" fill="white"/>
</svg>
