<svg width="279" height="35" viewBox="0 0 279 35" fill="none" xmlns="http://www.w3.org/2000/svg">
<path d="M172.5 5.82001V7.28V14.1V22.44V34.59H204.87V27.76H179.33V22.44V20.94H198.95V14.1H179.33V7.28H204.87V0.440002H172.5V5.82001Z" fill="#3C494F"/>
<path d="M47.96 5.82001V7.28V14.1V22.44V34.59H80.34V27.76H54.79V22.44V20.94H74.42V14.1H54.79V7.28H80.34V0.440002H47.96V5.82001Z" fill="#3C494F"/>
<path d="M125.15 25.67C125.16 26.8594 124.921 28.0378 124.45 29.13C123.993 30.1961 123.334 31.1639 122.51 31.98C121.686 32.783 120.724 33.4301 119.67 33.89C118.567 34.3626 117.38 34.6042 116.18 34.6H84.18V27.4H116.18C116.408 27.4052 116.635 27.3635 116.847 27.2775C117.058 27.1915 117.25 27.063 117.41 26.9C117.574 26.7412 117.704 26.5497 117.79 26.3379C117.876 26.126 117.917 25.8985 117.91 25.67V22.89C117.913 22.6621 117.87 22.4359 117.784 22.2248C117.698 22.0137 117.57 21.8219 117.409 21.6607C117.248 21.4995 117.056 21.3722 116.845 21.2862C116.634 21.2002 116.408 21.1573 116.18 21.16H93.18C91.9905 21.1705 90.8119 20.932 89.72 20.46C87.5563 19.537 85.833 17.8136 84.91 15.65C84.438 14.5581 84.1995 13.3795 84.21 12.19V9.41999C84.2015 8.22096 84.4397 7.03299 84.91 5.92999C85.3709 4.86897 86.0292 3.90521 86.85 3.08999C87.672 2.26358 88.6467 1.6047 89.72 1.14999C90.8119 0.677947 91.9905 0.439512 93.18 0.449992H125.18V7.67999H93.18C92.9507 7.67426 92.7228 7.7167 92.5109 7.80455C92.299 7.89239 92.108 8.02371 91.95 8.19C91.787 8.34994 91.6585 8.54161 91.5725 8.75317C91.4865 8.96473 91.4448 9.19168 91.45 9.41999V12.19C91.4448 12.4183 91.4865 12.6453 91.5725 12.8568C91.6585 13.0684 91.787 13.2601 91.95 13.42C92.1088 13.5845 92.3003 13.7139 92.5121 13.8C92.724 13.8862 92.9514 13.927 93.18 13.92H116.18C117.38 13.9158 118.567 14.1574 119.67 14.63C120.727 15.0935 121.69 15.7477 122.51 16.56C123.331 17.3789 123.989 18.346 124.45 19.41C124.92 20.5095 125.159 21.6942 125.15 22.89V25.67Z" fill="#3C494F"/>
<path d="M168.23 34.6H161.72V21.16H136.32V34.6H129.81V13.92H161.72V0.449997H168.23V34.6ZM136.32 10.72H129.81V0.449997H136.32V10.72Z" fill="#3C494F"/>
<path d="M261.17 12.4L252.63 0.440002H244.09L257.75 20.94V34.59H264.58V20.94L278.24 0.440002H269.81L261.17 12.4Z" fill="#3C494F"/>
<path d="M216.49 7H234V14.1H219.9V20.61H223.13L235.52 34.61H244L231.61 20.61H236.45C237.146 20.61 237.835 20.4729 238.478 20.2066C239.121 19.9402 239.705 19.5498 240.198 19.0577C240.69 18.5655 241.08 17.9813 241.347 17.3382C241.613 16.6952 241.75 16.006 241.75 15.31V5.78999C241.75 5.09399 241.613 4.40481 241.347 3.76178C241.08 3.11875 240.69 2.53448 240.198 2.04233C239.705 1.55018 239.121 1.15978 238.478 0.893433C237.835 0.627083 237.146 0.490005 236.45 0.490005H209.8V34.6H216.63L216.49 7Z" fill="#3C494F"/>
<path d="M42.71 34.6H35.47V9.69C35.4721 9.42164 35.4175 9.15587 35.31 8.91C35.2084 8.67436 35.0624 8.46046 34.88 8.27999C34.6975 8.09291 34.48 7.94343 34.24 7.83999C33.9958 7.73965 33.7341 7.68867 33.47 7.69H0V0.44999H33.47C34.6966 0.444198 35.9115 0.689215 37.04 1.16999C38.1545 1.6464 39.1716 2.32442 40.04 3.16999C40.8923 4.033 41.5712 5.05137 42.04 6.16999C42.5286 7.29991 42.7772 8.51899 42.77 9.74999L42.71 34.6ZM7.24 34.6H0V7.69L7.24 5.69V34.6ZM24.95 34.6H17.71V11.48H25L24.95 34.6Z" fill="#3C494F"/>
</svg>
