<?xml version="1.0" standalone="no"?>
<!DOCTYPE svg PUBLIC "-//W3C//DTD SVG 20010904//EN"
 "http://www.w3.org/TR/2001/REC-SVG-20010904/DTD/svg10.dtd">
<svg version="1.0" xmlns="http://www.w3.org/2000/svg"
 width="588.000000pt" height="159.000000pt" viewBox="0 0 588.000000 159.000000"
 preserveAspectRatio="xMidYMid meet">

<g transform="translate(0.000000,159.000000) scale(0.100000,-0.100000)"
fill="#3C494F" stroke="none">
<path d="M130 780 l0 -350 75 0 75 0 0 275 0 275 278 0 c203 0 281 -3 290 -12
9 -9 12 -84 12 -275 l0 -263 75 0 76 0 -3 288 -3 289 -27 40 c-16 24 -44 49
-70 62 -43 20 -58 21 -411 21 l-367 0 0 -350z"/>
<path d="M1120 780 l0 -350 335 0 335 0 0 70 0 70 -265 0 -265 0 0 70 0 70
205 0 205 0 0 70 0 70 -205 0 -205 0 0 70 0 70 265 0 265 0 0 70 0 70 -335 0
-335 0 0 -350z"/>
<path d="M1972 1109 c-64 -32 -96 -85 -100 -169 -5 -78 9 -127 45 -171 53 -62
62 -64 358 -67 168 -2 274 -7 282 -14 16 -13 17 -80 1 -96 -9 -9 -100 -12
-350 -12 l-338 0 0 -75 0 -75 349 0 c223 0 360 4 378 11 34 13 80 55 99 91 9
17 14 58 14 108 0 50 -5 91 -14 108 -19 36 -65 78 -99 91 -17 7 -127 11 -283
11 -157 0 -263 4 -275 10 -25 14 -28 104 -3 114 9 3 164 6 345 6 l329 0 0 75
0 75 -347 0 c-336 0 -350 -1 -391 -21z"/>
<path d="M2810 1025 l0 -105 70 0 70 0 0 105 0 105 -70 0 -70 0 0 -105z"/>
<path d="M3470 990 l0 -140 -330 0 -330 0 0 -210 0 -210 70 0 70 0 0 135 0
135 260 0 260 0 0 -135 0 -135 65 0 65 0 0 350 0 350 -65 0 -65 0 0 -140z"/>
<path d="M3690 780 l0 -350 335 0 335 0 0 70 0 70 -265 0 -265 0 0 70 0 70
205 0 205 0 0 70 0 70 -205 0 -205 0 0 70 0 70 265 0 265 0 0 70 0 70 -335 0
-335 0 0 -350z"/>
<path d="M4460 780 l0 -350 70 0 70 0 0 285 0 285 180 0 180 0 0 -75 0 -75
-145 0 -145 0 0 -65 0 -65 33 0 c29 0 45 -15 160 -145 l128 -145 85 0 86 0
-34 39 c-18 22 -72 84 -120 139 -49 55 -88 102 -88 106 0 3 27 6 60 6 124 0
143 30 138 218 l-3 134 -33 29 -32 29 -295 0 -295 0 0 -350z"/>
<path d="M5310 920 l140 -210 0 -140 0 -140 70 0 70 0 0 138 0 137 140 210
140 210 -77 3 c-42 2 -82 1 -88 -2 -6 -2 -49 -56 -95 -120 -46 -63 -87 -113
-91 -110 -4 2 -44 56 -89 119 l-82 115 -89 0 -89 0 140 -210z"/>
<path d="M500 665 l0 -235 75 0 75 0 0 235 0 235 -75 0 -75 0 0 -235z"/>
</g>
</svg>
