<svg xmlns="http://www.w3.org/2000/svg" role="img" viewBox="-3.82 -1.32 367.64 359.14"><defs><style>.cls-1{fill:#fff}</style></defs><path d="M38.46928 75.41621L176.22 326.36693 319.42588 75.41621 178.94674 5.85917" class="cls-1"/><path d="M257.72325 348.70051h-155.1855l-96.761-121.3301L40.3105 76.07285 180.12966 8.73963l139.81916 67.33321 34.53376 151.29757zm-146.21166-18.63945h137.23613l85.565-107.29539L303.77384 88.9714 180.12966 29.42746 56.48551 88.97141 25.94664 222.76567z" class="cls-1"/><path d="M258.76416 350.85917h-157.269L3.44264 227.9034 38.43753 74.57749 180.12966 6.342l.93565.45111 140.75816 67.78437 34.9949 153.32592zm-155.18886-4.31735H256.684l95.46111-119.7044-34.06926-149.2692-137.94619-66.43434-137.9462 66.431L8.11419 226.83406zM249.787 332.2214H110.474L23.60918 223.29865l31-135.82261 125.52048-60.44617 125.5188 60.44618 31 135.82429zm-137.23445-4.319h135.15424l84.26844-105.6697-30.07439-131.7676-121.77118-58.64171L58.35847 90.4651 28.28408 222.23268z" class="cls-1"/></svg>