<svg width="380" height="380" viewBox="0 0 380 380" fill="none" xmlns="http://www.w3.org/2000/svg">
<path d="M335.007 159.975L334.586 158.901L293.892 52.6984C293.065 50.6169 291.598 48.8511 289.705 47.6544C287.81 46.4781 285.6 45.9116 283.372 46.0313C281.145 46.151 279.008 46.9512 277.251 48.3239C275.512 49.7359 274.251 51.6493 273.639 53.8037L246.162 137.869H134.899L107.422 53.8037C106.826 51.6376 105.563 49.7146 103.811 48.3083C102.053 46.9356 99.916 46.1354 97.6888 46.0157C95.4617 45.896 93.2514 46.4626 91.3565 47.6389C89.467 48.8404 88.0023 50.6046 87.1688 52.6828L46.397 158.839L45.9922 159.913C40.1341 175.219 39.411 192.015 43.932 207.768C48.4529 223.522 57.9728 237.378 71.0562 247.248L71.1963 247.357L71.5699 247.622L133.561 294.045L164.229 317.256L182.91 331.36C185.095 333.02 187.764 333.918 190.507 333.918C193.251 333.918 195.919 333.02 198.104 331.36L216.786 317.256L247.454 294.045L309.818 247.342L309.974 247.217C323.028 237.345 332.526 223.503 337.04 207.771C341.554 192.039 340.84 175.267 335.007 159.975Z" fill="#E24329"/>
<path d="M335.007 159.976L334.587 158.902C314.758 162.972 296.073 171.371 279.866 183.499L190.492 251.078C220.927 274.103 247.423 294.107 247.423 294.107L309.788 247.404L309.943 247.28C323.016 237.408 332.528 223.557 337.049 207.812C341.569 192.067 340.853 175.279 335.007 159.976Z" fill="#FC6D26"/>
<path d="M133.561 294.107L164.229 317.319L182.91 331.423C185.095 333.082 187.764 333.98 190.507 333.98C193.251 333.98 195.919 333.082 198.104 331.423L216.786 317.319L247.454 294.107C247.454 294.107 220.927 274.041 190.492 251.078C160.057 274.041 133.561 294.107 133.561 294.107Z" fill="#FCA326"/>
<path d="M101.102 183.499C84.9083 171.346 66.2271 162.925 46.397 158.839L45.9922 159.914C40.1341 175.22 39.411 192.016 43.932 207.769C48.4529 223.522 57.9728 237.378 71.0562 247.248L71.1963 247.357L71.5699 247.622L133.561 294.045C133.561 294.045 160.026 274.04 190.492 251.016L101.102 183.499Z" fill="#FC6D26"/>
</svg>
