<svg width="40" height="40" viewBox="0 0 40 40" fill="none" xmlns="http://www.w3.org/2000/svg">
<g clip-path="url(#clip0_23295_3200)">
<path d="M40 0H0V40H40V0Z" fill="#ED7100" fill-opacity="0.12"/>
<path fill-rule="evenodd" clip-rule="evenodd" d="M16.1698 21.5H18.2075V20.5H16.1698V21.5ZM13.1132 21.5H15.1509V20.5H13.1132V21.5ZM10.0566 21.5H12.0943V20.5H10.0566V21.5ZM7 21.5H9.03774V20.5H7V21.5ZM30.1782 24.142L31.1614 23.82L30.1782 23.499L29.8512 22.534L29.5231 23.499L28.5409 23.82L29.5231 24.142L29.8512 25.106L30.1782 24.142ZM18.6671 25.826L18.339 26.791L17.3558 27.113L18.339 27.435L18.6671 28.399L18.9941 27.435L19.9773 27.113L18.9941 26.791L18.6671 25.826ZM18.6671 13.386L18.339 14.351L17.3558 14.673L18.339 14.994L18.6671 15.959L18.9941 14.994L19.9773 14.673L18.9941 14.351L18.6671 13.386ZM20.5438 21.002C22.4134 22.205 23.7278 24.551 24.2698 27.662C25.3121 26.321 26.9729 23.753 26.9729 21.002C26.9729 18.264 25.5047 15.858 24.2729 14.322C23.7349 17.442 22.4185 19.796 20.5438 21.002ZM19.2723 21.461C19.0848 21.383 18.9635 21.202 18.9635 21.002C18.9635 20.802 19.0848 20.621 19.2723 20.542C21.4985 19.605 23.0105 16.888 23.417 13.088C23.4384 12.892 23.5749 12.726 23.7655 12.665C23.956 12.603 24.1669 12.658 24.3014 12.805C25.6799 14.301 27.9917 17.355 27.9917 21.002C27.9917 24.875 25.1674 28.251 24.3014 29.194C24.2046 29.302 24.066 29.36 23.9234 29.36C23.8714 29.36 23.8185 29.352 23.7665 29.335C23.576 29.274 23.4384 29.109 23.417 28.913C23.0074 25.114 21.4975 22.398 19.2723 21.461ZM34 20.5C34 26.841 28.7437 32 22.283 32C17.0623 32 12.4255 28.561 11.0072 23.636L11.9884 23.364C13.2834 27.86 17.5168 31 22.283 31C28.1823 31 32.9811 26.29 32.9811 20.5C32.9811 14.71 28.1823 10 22.283 10C17.1184 10 12.6934 13.613 11.7622 18.59L10.7586 18.41C11.7795 12.958 16.6263 9 22.283 9C28.7437 9 34 14.159 34 20.5Z" fill="#ED7100"/>
</g>
<rect x="0.5" y="0.5" width="39" height="39" stroke="#ED7100"/>
<defs>
<clipPath id="clip0_23295_3200">
<rect width="40" height="40" fill="white"/>
</clipPath>
</defs>
</svg>
