<svg width="40" height="40" viewBox="0 0 40 40" fill="none" xmlns="http://www.w3.org/2000/svg">
<g clip-path="url(#clip0_23295_3340)">
<path d="M40 0H0V40H40V0Z" fill="#ED7100" fill-opacity="0.12"/>
<path fill-rule="evenodd" clip-rule="evenodd" d="M30.5348 19.0376C28.1638 20.5176 24.8588 22.0216 21.2298 23.2726C18.7238 24.1366 16.1598 24.8356 13.8588 25.2756C15.7608 30.2946 19.3598 33.5626 22.8568 32.9706C26.0728 32.4276 28.4618 28.6016 28.7998 23.4506L29.7978 23.5166C29.4228 29.2266 26.7638 33.3256 23.0228 33.9566C22.7018 34.0116 22.3798 34.0376 22.0588 34.0376C18.3778 34.0376 14.7628 30.5606 12.8628 25.4516C11.6048 25.6546 10.4408 25.7756 9.45279 25.7756C7.63279 25.7756 6.37679 25.3956 6.07079 24.5096C5.70679 23.4536 6.74779 22.1276 9.16479 20.5676L9.70779 21.4076C7.35179 22.9286 6.90779 23.8676 7.01579 24.1836C7.23379 24.8136 9.27879 24.9996 12.5378 24.4906C12.2368 23.5416 11.9868 22.5496 11.8118 21.5136C11.1898 17.8306 11.5018 14.2106 12.6878 11.3196C13.9068 8.34864 15.9068 6.48764 18.3178 6.07964C21.2178 5.59264 24.3218 7.35964 26.6008 10.8156L25.7668 11.3666C23.7108 8.25064 20.9878 6.64064 18.4838 7.06664C16.4268 7.41364 14.6958 9.05864 13.6128 11.6996C12.4968 14.4196 12.2078 17.8466 12.7988 21.3466C12.9728 22.3846 13.2248 23.3756 13.5298 24.3206C15.6168 23.9326 18.1108 23.2896 20.9038 22.3276C24.4638 21.1006 27.6958 19.6306 30.0058 18.1896C32.6028 16.5676 33.1008 15.5666 32.9848 15.2306C32.8848 14.9406 32.0478 14.4946 29.5488 14.6706L29.4778 13.6736C32.0838 13.4876 33.5848 13.9026 33.9308 14.9046C34.3088 16.0046 33.1668 17.3946 30.5348 19.0376Z" fill="#ED7100"/>
</g>
<rect x="0.5" y="0.5" width="39" height="39" stroke="#ED7100"/>
<defs>
<clipPath id="clip0_23295_3340">
<rect width="40" height="40" fill="white"/>
</clipPath>
</defs>
</svg>
