<svg width="24" height="24" viewBox="0 0 24 24" fill="none" xmlns="http://www.w3.org/2000/svg">
<path d="M12 19.8189C12.5997 19.8189 13.0858 20.3072 13.0858 20.9095C13.0858 21.5118 12.5997 22 12 22C11.4003 22 10.9142 21.5118 10.9142 20.9095C10.9142 20.3072 11.4003 19.8189 12 19.8189ZM13.3388 5.45679C13.4992 5.45679 13.6463 5.57457 13.6597 5.73161L13.9137 7.45901C14.3282 7.61605 14.7026 7.83852 15.0502 8.10025L16.7082 7.44593C16.8687 7.39358 17.0425 7.44593 17.1227 7.58988L18.4598 9.85383C18.54 9.99778 18.4999 10.1679 18.3796 10.2726L16.9623 11.3588C17.0024 11.5681 17.0158 11.7775 17.0158 12C17.0158 12.2225 16.989 12.4319 16.9623 12.6412L18.3929 13.7274C18.5133 13.8321 18.5534 14.0022 18.4732 14.1462L17.1361 16.4101C17.0425 16.5541 16.8687 16.6064 16.7216 16.5541L15.0502 15.8998C14.716 16.1615 14.3282 16.3709 13.9271 16.541L13.673 18.2684C13.6463 18.4254 13.4992 18.5432 13.3388 18.5432H10.6646C10.4908 18.5432 10.3571 18.4254 10.3303 18.2684L10.0763 16.541C9.6618 16.3839 9.28742 16.1615 8.93978 15.8998L7.2818 16.5541C7.12135 16.6064 6.94753 16.5541 6.8673 16.4101L5.53022 14.1462C5.44999 14.0022 5.49011 13.8321 5.61044 13.7274L7.02775 12.6412C7.00101 12.4319 6.98764 12.2225 6.98764 12C6.98764 11.7775 7.00101 11.5681 7.02775 11.3588L5.61044 10.2726C5.47674 10.1679 5.44999 9.99778 5.53022 9.85383L6.8673 7.58988C6.9609 7.44593 7.13472 7.39358 7.2818 7.44593L8.93978 8.10025C9.28742 7.83852 9.67517 7.62914 10.0763 7.45901L10.3303 5.73161C10.3571 5.57457 10.5042 5.45679 10.6646 5.45679H13.3388ZM3.5596 15.452C4.0841 15.1601 4.74496 15.3504 5.0357 15.8771C5.32643 16.4039 5.13693 17.0677 4.61243 17.3597C4.08794 17.6516 3.42707 17.4613 3.13634 16.9346C2.84561 16.4078 3.03511 15.744 3.5596 15.452ZM18.9643 15.8771C19.255 15.3504 19.9159 15.1601 20.4404 15.452C20.9649 15.744 21.1544 16.4078 20.8637 16.9346C20.5729 17.4613 19.9121 17.6516 19.3876 17.3597C18.8631 17.0677 18.6736 16.4039 18.9643 15.8771ZM12.0017 10.037C10.8919 10.037 9.99607 10.9138 9.99607 12C9.99607 13.0862 10.8919 13.963 12.0017 13.963C13.1115 13.963 14.0073 13.0862 14.0073 12C14.0073 10.9138 13.1115 10.037 12.0017 10.037ZM19.3876 6.64035C19.9121 6.34835 20.5729 6.53868 20.8637 7.06545C21.1544 7.59222 20.9649 8.25596 20.4404 8.54796C19.9159 8.83995 19.255 8.64962 18.9643 8.12285C18.6736 7.59608 18.8631 6.93234 19.3876 6.64035ZM3.13634 7.06545C3.42707 6.53868 4.08794 6.34835 4.61243 6.64035C5.13693 6.93234 5.32643 7.59608 5.0357 8.12285C4.74496 8.64962 4.0841 8.83995 3.5596 8.54796C3.03511 8.25596 2.84561 7.59222 3.13634 7.06545ZM12 2C12.5997 2 13.0858 2.48825 13.0858 3.09053C13.0858 3.69282 12.5997 4.18107 12 4.18107C11.4003 4.18107 10.9142 3.69282 10.9142 3.09053C10.9142 2.48825 11.4003 2 12 2Z" fill="white"/>
</svg>
