<svg width="150" height="151" viewBox="0 0 150 151" fill="none" xmlns="http://www.w3.org/2000/svg">
<path fill-rule="evenodd" clip-rule="evenodd" d="M22.1052 132.215C20.6212 132.215 19.1371 131.028 18.2467 129.841L5.48403 115.594C4.59361 114.704 4 113.22 4 111.736C4 108.768 6.37445 106.69 9.34251 106.69H13.7946V31.3011C13.7946 24.4745 19.4339 18.8352 26.5573 18.8352H124.207C131.033 18.8352 136.969 24.4745 136.969 31.5979V106.987H141.421H141.718C143.796 106.987 145.577 108.174 146.467 110.252L146.5 110.335C147.094 112.116 146.764 114.407 145.577 115.891L133.704 130.434C132.517 131.622 131.033 132.215 129.549 132.215H22.1052ZM126.878 120.937L130.143 116.781H20.918L24.4796 120.937H126.878ZM125.987 106.393V31.3011C125.987 30.1138 125.097 28.9266 123.91 28.9266H26.5573C25.3701 28.9266 24.4796 30.1138 24.4796 31.3011V106.393H125.987Z" fill="#3C494F"/>
<path fill-rule="evenodd" clip-rule="evenodd" d="M40.3586 90.9591C39.1233 90.9591 37.9386 90.4684 37.0652 89.595L36.3368 88.8666C35.3961 87.9259 34.8677 86.6501 34.8677 85.3198V85.3198C34.8677 83.9895 35.3961 82.7137 36.3368 81.7731L59.2058 58.9041C60.0962 58.0136 61.5802 57.42 63.0643 57.42C64.2515 57.42 65.7355 58.0136 66.626 58.9041L77.6078 69.8859L98.9779 48.5158H88.8756C87.5318 48.5158 86.243 47.982 85.2928 47.0318V47.0318C84.3426 46.0816 83.8088 44.7928 83.8088 43.449V42.8976C83.8088 41.5538 84.3426 40.2651 85.2928 39.3148V39.3148C86.243 38.3646 87.5318 37.8308 88.8756 37.8308H111.741C114.709 37.8308 117.083 40.2053 117.083 43.1733V66.0383C117.083 67.3821 116.549 68.6708 115.599 69.621V69.621C114.649 70.5712 113.36 71.1051 112.016 71.1051H111.465C110.121 71.1051 108.832 70.5712 107.882 69.621V69.621C106.932 68.6708 106.398 67.3821 106.398 66.0383V55.936L81.4663 81.1645C80.5759 82.0549 79.0918 82.6486 77.6078 82.6486C76.4206 82.6486 74.9365 82.0549 74.0461 81.1645L63.0643 70.1827L43.652 89.595C42.7785 90.4684 41.5939 90.9591 40.3586 90.9591V90.9591Z" fill="#51636B"/>
</svg>
