<svg width="150" height="151" viewBox="0 0 150 151" fill="none" xmlns="http://www.w3.org/2000/svg">
<path opacity="0.8" d="M75 85.0584C79.138 85.0584 84.3094 84.6275 90.5143 83.7657C96.7233 82.908 102.704 81.5182 108.457 79.5964C114.21 77.6746 119.155 75.1722 123.293 72.0892C127.431 69.0022 129.5 65.2335 129.5 60.783V75.9551C129.5 80.4056 127.431 84.1744 123.293 87.2614C119.155 90.3444 114.21 92.8468 108.457 94.7686C102.704 96.6904 96.7233 98.0802 90.5143 98.9379C84.3094 99.7997 79.138 100.231 75 100.231C70.862 100.231 65.6906 99.7997 59.4857 98.9379C53.2767 98.0802 47.2958 96.6904 41.5431 94.7686C35.7903 92.8468 30.8449 90.3444 26.7069 87.2614C22.569 84.1744 20.5 80.4056 20.5 75.9551V60.783C20.5 65.2335 22.569 69.0022 26.7069 72.0892C30.8449 75.1722 35.7903 77.6746 41.5431 79.5964C47.2958 81.5182 53.2767 82.908 59.4857 83.7657C65.6906 84.6275 70.862 85.0584 75 85.0584Z" fill="#51636B"/>
<path d="M75 69.7797C90.1389 69.7797 103.007 67.4079 113.604 62.6644C124.201 57.9209 129.5 52.2185 129.5 45.5574C129.5 38.8963 124.201 33.194 113.604 28.4505C103.007 23.707 90.1389 21.3352 75 21.3352C59.8611 21.3352 46.9931 23.707 36.3958 28.4505C25.7986 33.194 20.5 38.8963 20.5 45.5574C20.5 52.2185 25.7986 57.9209 36.3958 62.6644C46.9931 67.4079 59.8611 69.7797 75 69.7797ZM75 115.196C79.138 115.196 84.3094 114.768 90.5143 113.913C96.7233 113.053 102.704 111.664 108.457 109.746C114.21 107.829 119.155 105.332 123.293 102.256C127.431 99.1753 129.5 95.4148 129.5 90.9741V106.113C129.5 110.554 127.431 114.314 123.293 117.394C119.155 120.471 114.21 122.968 108.457 124.885C102.704 126.803 96.7233 128.192 90.5143 129.051C84.3094 129.907 79.138 130.335 75 130.335C70.862 130.335 65.6906 129.907 59.4857 129.051C53.2767 128.192 47.2958 126.803 41.5431 124.885C35.7903 122.968 30.8449 120.471 26.7069 117.394C22.569 114.314 20.5 110.554 20.5 106.113V90.9741C20.5 95.4148 22.569 99.1753 26.7069 102.256C30.8449 105.332 35.7903 107.829 41.5431 109.746C47.2958 111.664 53.2767 113.053 59.4857 113.913C65.6906 114.768 70.862 115.196 75 115.196Z" fill="#3C494F"/>
</svg>
