<svg width="151" height="151" viewBox="0 0 151 151" fill="none" xmlns="http://www.w3.org/2000/svg">
<g clip-path="url(#clip0_10904_34050)">
<path opacity="0.2" d="M46.7761 42.4225H55.3142V73.7288H46.7761V42.4225Z" fill="#51636B"/>
<path d="M45.3536 42.4225V49.5376H38.2385C37.8611 49.5376 37.4992 49.6875 37.2323 49.9544C36.9654 50.2212 36.8155 50.5832 36.8155 50.9606V72.3058H35.3925C35.0151 72.3058 34.6531 72.4557 34.3863 72.7226C34.1194 72.9894 33.9695 73.3514 33.9695 73.7288C33.9695 74.1062 34.1194 74.4681 34.3863 74.735C34.6531 75.0019 35.0151 75.1518 35.3925 75.1518H66.6988C67.0762 75.1518 67.4381 75.0019 67.705 74.735C67.9719 74.4681 68.1218 74.1062 68.1218 73.7288C68.1218 73.3514 67.9719 72.9894 67.705 72.7226C67.4381 72.4557 67.0762 72.3058 66.6988 72.3058H65.2758V56.6526C65.2758 56.2752 65.1258 55.9133 64.859 55.6464C64.5921 55.3795 64.2302 55.2296 63.8527 55.2296H56.7377V42.4225C56.7377 42.0451 56.5878 41.6831 56.3209 41.4163C56.054 41.1494 55.6921 40.9995 55.3147 40.9995H46.7766C46.3992 40.9995 46.0372 41.1494 45.7704 41.4163C45.5035 41.6831 45.3536 42.0451 45.3536 42.4225ZM39.6615 52.3836H45.3536V72.3058H39.6615V52.3836ZM62.4297 58.0756V72.3058H56.7377V58.0756H62.4297ZM53.8917 43.8455V72.3058H48.1996V43.8455H53.8917Z" fill="#51636B"/>
<path d="M93.1913 13.9449H92.6292V24.0642H102.748V23.502C102.748 20.9673 101.741 18.5364 99.9492 16.7441C98.1569 14.9518 95.726 13.9449 93.1913 13.9449Z" fill="#51636B"/>
<path d="M101.708 23.783H92.9092V14.9838C91.6438 15.2843 90.4815 15.9171 89.5423 16.8168C88.603 17.7166 87.921 18.8506 87.5664 20.102C87.2118 21.3533 87.1976 22.6766 87.5252 23.9353C87.8528 25.194 88.5104 26.3425 89.4301 27.2621C90.3498 28.1818 91.4982 28.8394 92.7569 29.167C94.0156 29.4946 95.3389 29.4804 96.5903 29.1259C97.8416 28.7713 98.9757 28.0892 99.8754 27.15C100.775 26.2108 101.408 25.0485 101.708 23.783Z" fill="#3C494F"/>
<path d="M99.9411 63.1705C97.9189 63.1705 95.9796 62.3672 94.5497 60.9373C93.1199 59.5074 92.3166 57.5681 92.3166 55.5459C92.3166 53.5238 93.1199 51.5844 94.5497 50.1546C95.9796 48.7247 97.9189 47.9214 99.9411 47.9214C101.963 47.9214 103.903 48.7247 105.332 50.1546C106.762 51.5844 107.566 53.5238 107.566 55.5459C107.566 57.5681 106.762 59.5074 105.332 60.9373C103.903 62.3672 101.963 63.1705 99.9411 63.1705ZM116.127 57.659C116.214 56.9619 116.279 56.2648 116.279 55.5459C116.279 54.827 116.214 54.1082 116.127 53.3675L120.723 49.8166C121.137 49.4899 121.246 48.9017 120.985 48.4224L116.628 40.885C116.367 40.4058 115.778 40.2097 115.299 40.4058L109.875 42.5842C108.742 41.7346 107.566 40.994 106.193 40.4493L105.387 34.6765C105.343 34.4199 105.209 34.1873 105.01 34.0198C104.811 33.8523 104.558 33.7608 104.298 33.7615H95.5842C95.0396 33.7615 94.5821 34.1537 94.495 34.6765L93.689 40.4493C92.3166 40.994 91.1402 41.7346 90.0074 42.5842L84.5831 40.4058C84.1038 40.2097 83.5157 40.4058 83.2543 40.885L78.8974 48.4224C78.6142 48.9017 78.7449 49.4899 79.1588 49.8166L83.7553 53.3675C83.6682 54.1082 83.6028 54.827 83.6028 55.5459C83.6028 56.2648 83.6682 56.9619 83.7553 57.659L79.1588 61.2752C78.7449 61.602 78.6142 62.1902 78.8974 62.6694L83.2543 70.2068C83.5157 70.6861 84.1038 70.8604 84.5831 70.6861L90.0074 68.4859C91.1402 69.3572 92.3166 70.0979 93.689 70.6425L94.495 76.4154C94.5821 76.9382 95.0396 77.3303 95.5842 77.3303H104.298C104.843 77.3303 105.3 76.9382 105.387 76.4154L106.193 70.6425C107.566 70.0761 108.742 69.3572 109.875 68.4859L115.299 70.6861C115.778 70.8604 116.367 70.6861 116.628 70.2068L120.985 62.6694C121.246 62.1902 121.137 61.602 120.723 61.2752L116.127 57.659Z" fill="#51636B"/>
<path d="M85.0404 144.089C84.4272 144.089 83.8181 144.012 83.2365 143.862L64.0867 138.943C62.9479 138.647 61.9586 138.082 61.2595 137.328C60.5603 136.573 60.1869 135.668 60.1922 134.74V112.75C60.187 112.742 60.1797 112.733 60.1707 112.726L19.8761 76.4902C18.9827 75.6866 18.4066 74.7019 18.2164 73.653C18.0263 72.6042 18.2299 71.5352 18.8032 70.573C19.3765 69.6108 20.2954 68.7959 21.4508 68.2249C22.6061 67.654 23.9494 67.3509 25.3212 67.3519H125.658C127.029 67.3509 128.373 67.654 129.528 68.2249C130.683 68.7959 131.602 69.6108 132.176 70.573C132.749 71.5352 132.952 72.6042 132.762 73.653C132.572 74.7019 131.996 75.6866 131.103 76.4902L90.7961 112.73C90.7878 112.738 90.7806 112.746 90.7746 112.754V139.662C90.7768 140.244 90.6299 140.82 90.3426 141.358C90.0552 141.896 89.6329 142.385 89.1 142.796C88.5671 143.208 87.9341 143.534 87.2374 143.756C86.5406 143.977 85.794 144.091 85.0404 144.089Z" fill="#3C494F"/>
<path d="M62.2129 28.5127C60.7721 28.2327 59.5017 27.3918 58.6809 26.175C57.8602 24.9582 57.5565 23.4653 57.8365 22.0245C58.1166 20.5838 58.9575 19.3134 60.1742 18.4926C61.391 17.6719 62.884 17.3682 64.3247 17.6482C65.7654 17.9283 67.0359 18.7692 67.8566 19.9859C68.6773 21.2027 68.9811 22.6957 68.701 24.1364C68.421 25.5771 67.5801 26.8476 66.3633 27.6683C65.1466 28.489 63.6536 28.7928 62.2129 28.5127ZM74.5081 26.8276C74.6667 26.343 74.8098 25.8554 74.9093 25.3432C75.0089 24.831 75.0619 24.3098 75.1024 23.77L78.869 21.8767C79.2092 21.7012 79.3682 21.2972 79.2484 20.9195L77.1881 14.946C77.0682 14.5683 76.6763 14.3472 76.3077 14.4205L72.1413 15.2213C71.4519 14.4592 70.7164 13.7685 69.814 13.1905L70.0392 8.96583C70.0432 8.77689 69.9802 8.59264 69.8613 8.44571C69.7425 8.29878 69.5755 8.19867 69.3899 8.16311L63.1816 6.95634C62.7935 6.88091 62.4133 7.09693 62.2788 7.45736L60.9051 11.4587C59.8518 11.6567 58.9111 12.0215 57.9864 12.4699L54.4234 10.1666C54.1091 9.96056 53.6629 10.0188 53.4103 10.324L49.2623 15.0908C48.9941 15.3931 49.0058 15.8302 49.2554 16.1204L52.0386 19.2868C51.8739 19.8025 51.7278 20.3056 51.6282 20.8178C51.5287 21.33 51.4787 21.8357 51.4442 22.3444L47.6685 24.2843C47.3284 24.4598 47.1538 24.8607 47.2892 25.2414L49.3495 31.215C49.4694 31.5926 49.8643 31.7983 50.2299 31.7405L54.3993 30.9241C55.0857 31.7018 55.8212 32.3924 56.7236 32.9705L56.4984 37.1951C56.4881 37.5797 56.7597 37.9224 57.1477 37.9978L63.356 39.2046C63.744 39.28 64.1243 39.064 64.2588 38.7036L65.6325 34.7022C66.6888 34.4887 67.6264 34.1395 68.5542 33.6755L72.1141 35.9943C72.4315 36.1849 72.8747 36.1422 73.1273 35.8369L77.2753 31.0701C77.5279 30.7649 77.5318 30.3307 77.2821 30.0406L74.5081 26.8276Z" fill="#51636B"/>
</g>
<defs>
<clipPath id="clip0_10904_34050">
<rect width="150" height="150" fill="white" transform="translate(0.48999 0.835205)"/>
</clipPath>
</defs>
</svg>
