<svg width="150" height="114" viewBox="0 0 150 114" fill="none" xmlns="http://www.w3.org/2000/svg">
<path d="M0 71.1214L20.6667 83.018V59.3514L0 47.468V71.1347V71.1214ZM124.333 62.4547L103.667 74.3513V97.998L124.333 86.1114V62.4547ZM26 86.1013L46.6667 97.998V74.3513L26 62.4547V86.1214V86.1013ZM72.6667 89.3513L52 77.4514V101.118L72.6667 113.018V89.3513ZM98.3333 77.4614L78 89.3513V112.998L98.3333 101.111V77.4614ZM150 47.5214L129.667 59.408V83.0547L150 71.168V47.5214Z" fill="#51636B"/>
<path d="M95.6671 12.8813L75.1671 24.7813L54.5804 12.8813L75.1671 0.981323L95.6671 12.8813ZM126.894 30.9447L106.307 42.8447L126.894 54.7447L147.394 42.8447L126.894 30.9447ZM28.7637 57.8247L49.3504 69.7247L69.8504 57.8247L49.3504 45.9247L28.7637 57.8247ZM75.2704 30.968L54.6837 42.868L75.2704 54.768L95.7704 42.868L75.2704 30.968ZM49.2971 15.988L28.7104 27.888L49.2971 39.788L69.7971 27.888L49.2971 15.988ZM101.137 45.9513L80.5504 57.8513L101.137 69.7513L121.637 57.8513L101.137 45.9513ZM101.024 15.9613L80.4371 27.8613L101.024 39.7613L121.524 27.8613L101.024 15.9613ZM23.4904 30.9447L2.90039 42.8447L23.4871 54.7447L43.9871 42.8447L23.4904 30.9447ZM54.6304 72.8313L75.2171 84.7313L95.7171 72.8313L75.2171 60.9313L54.6304 72.8313Z" fill="#3C494F"/>
</svg>
