<svg width="152" height="128" viewBox="0 0 152 128" fill="none" xmlns="http://www.w3.org/2000/svg">
<g clip-path="url(#clip0_10814_33982)">
<path d="M11.7 84.2352C8.89995 84.2352 6.69995 86.4352 6.69995 89.2352V110.535L38.4 84.2352H11.7Z" fill="#51636B"/>
<path d="M11.6996 116.535H130.9C133.7 116.535 135.9 114.335 135.9 111.535V89.2352C135.9 86.4352 133.7 84.2352 130.9 84.2352H45.6996L8.29956 115.235C9.19956 116.035 10.3996 116.535 11.6996 116.535ZM115.7 94.3352C119 94.3352 121.8 97.0352 121.8 100.435C121.8 103.735 119.1 106.535 115.7 106.535C112.4 106.535 109.6 103.835 109.6 100.435C109.6 97.0352 112.3 94.3352 115.7 94.3352ZM99.4996 94.3352C102.8 94.3352 105.6 97.0352 105.6 100.435C105.6 103.735 102.9 106.535 99.4996 106.535C96.1996 106.535 93.3996 103.835 93.3996 100.435C93.4996 97.0352 96.1996 94.3352 99.4996 94.3352Z" fill="#3C494F"/>
<path d="M116.3 25.7352L104.1 35.8352H130.8C133.6 35.8352 135.8 33.6352 135.8 30.8352V9.53519L121.4 21.4352C120.8 23.7352 118.8 25.4352 116.3 25.7352Z" fill="#3C494F"/>
<path d="M130.899 76.2352C133.699 76.2352 135.899 74.0352 135.899 71.2352V48.9352C135.899 46.1352 133.699 43.9352 130.899 43.9352H94.3992L55.3992 76.2352H130.899ZM115.699 54.0352C118.999 54.0352 121.799 56.7352 121.799 60.1352C121.799 63.4352 119.099 66.2352 115.699 66.2352C112.399 66.2352 109.599 63.5352 109.599 60.1352C109.599 56.7352 112.299 54.0352 115.699 54.0352ZM99.4992 54.0352C102.799 54.0352 105.599 56.7352 105.599 60.1352C105.599 63.4352 102.899 66.2352 99.4992 66.2352C96.1992 66.2352 93.3992 63.5352 93.3992 60.1352C93.4992 56.7352 96.1992 54.0352 99.4992 54.0352Z" fill="#3C494F"/>
<path d="M109.6 19.7352C109.6 16.4352 112.3 13.6352 115.7 13.6352C117.7 13.6352 119.5 14.6352 120.6 16.1352L134.2 4.93519C133.3 4.13519 132.1 3.63519 130.8 3.63519H11.7C8.89995 3.63519 6.69995 5.83519 6.69995 8.63519V30.9352C6.69995 33.7352 8.89995 35.9352 11.7 35.9352H96.8999L111.3 23.9352C110.3 22.8352 109.6 21.3352 109.6 19.7352ZM99.5 25.7352C96.2 25.7352 93.3999 23.0352 93.3999 19.6352C93.3999 16.3352 96.1 13.5352 99.5 13.5352C102.8 13.5352 105.6 16.2352 105.6 19.6352C105.6 23.0352 102.9 25.7352 99.5 25.7352Z" fill="#51636B"/>
<path d="M11.7 43.9352C8.89995 43.9352 6.69995 46.1352 6.69995 48.9352V71.2352C6.69995 74.0352 8.89995 76.2352 11.7 76.2352H48.2L87.2 43.9352H11.7Z" fill="#51636B"/>
<path d="M4.19995 123.335L147.8 4.33521" stroke="#3C494F" stroke-width="8" stroke-miterlimit="10" stroke-linecap="round"/>
</g>
<defs>
<clipPath id="clip0_10814_33982">
<rect width="151.6" height="127" fill="white" transform="translate(0.199951 0.335205)"/>
</clipPath>
</defs>
</svg>
