<svg width="152" height="128" viewBox="0 0 152 128" fill="none" xmlns="http://www.w3.org/2000/svg">
<g clip-path="url(#clip0_10814_33982)">
<path d="M11.6992 84.7533C8.89922 84.7533 6.69922 86.9533 6.69922 89.7533V111.053L38.3992 84.7533H11.6992Z" fill="#51636B"/>
<path d="M11.6988 117.053H130.899C133.699 117.053 135.899 114.853 135.899 112.053V89.7533C135.899 86.9533 133.699 84.7533 130.899 84.7533H45.6988L8.29883 115.753C9.19883 116.553 10.3988 117.053 11.6988 117.053ZM115.699 94.8533C118.999 94.8533 121.799 97.5533 121.799 100.953C121.799 104.253 119.099 107.053 115.699 107.053C112.399 107.053 109.599 104.353 109.599 100.953C109.599 97.5533 112.299 94.8533 115.699 94.8533ZM99.4988 94.8533C102.799 94.8533 105.599 97.5533 105.599 100.953C105.599 104.253 102.899 107.053 99.4988 107.053C96.1988 107.053 93.3988 104.353 93.3988 100.953C93.4988 97.5533 96.1988 94.8533 99.4988 94.8533Z" fill="#3C494F"/>
<path d="M116.3 26.2533L104.1 36.3533H130.8C133.6 36.3533 135.8 34.1533 135.8 31.3533V10.0533L121.4 21.9533C120.8 24.2533 118.8 25.9533 116.3 26.2533Z" fill="#3C494F"/>
<path d="M130.898 76.7533C133.698 76.7533 135.898 74.5533 135.898 71.7533V49.4533C135.898 46.6533 133.698 44.4533 130.898 44.4533H94.3984L55.3984 76.7533H130.898ZM115.698 54.5533C118.998 54.5533 121.798 57.2533 121.798 60.6533C121.798 63.9533 119.098 66.7533 115.698 66.7533C112.398 66.7533 109.598 64.0533 109.598 60.6533C109.598 57.2533 112.298 54.5533 115.698 54.5533ZM99.4984 54.5533C102.798 54.5533 105.598 57.2533 105.598 60.6533C105.598 63.9533 102.898 66.7533 99.4984 66.7533C96.1984 66.7533 93.3984 64.0533 93.3984 60.6533C93.4984 57.2533 96.1984 54.5533 99.4984 54.5533Z" fill="#3C494F"/>
<path d="M109.599 20.2533C109.599 16.9533 112.299 14.1533 115.699 14.1533C117.699 14.1533 119.499 15.1533 120.599 16.6533L134.199 5.45327C133.299 4.65327 132.099 4.15327 130.799 4.15327H11.6992C8.89922 4.15327 6.69922 6.35327 6.69922 9.15327V31.4533C6.69922 34.2533 8.89922 36.4533 11.6992 36.4533H96.8992L111.299 24.4533C110.299 23.3533 109.599 21.8533 109.599 20.2533ZM99.4992 26.2533C96.1992 26.2533 93.3992 23.5533 93.3992 20.1533C93.3992 16.8533 96.0992 14.0533 99.4992 14.0533C102.799 14.0533 105.599 16.7533 105.599 20.1533C105.599 23.5533 102.899 26.2533 99.4992 26.2533Z" fill="#51636B"/>
<path d="M11.6992 44.4533C8.89922 44.4533 6.69922 46.6533 6.69922 49.4533V71.7533C6.69922 74.5533 8.89922 76.7533 11.6992 76.7533H48.1992L87.1992 44.4533H11.6992Z" fill="#51636B"/>
<path d="M4.19922 123.853L147.799 4.85327" stroke="#3C494F" stroke-width="8" stroke-miterlimit="10" stroke-linecap="round"/>
</g>
<defs>
<clipPath id="clip0_10814_33982">
<rect width="151.6" height="127" fill="white" transform="translate(0.199219 0.853271)"/>
</clipPath>
</defs>
</svg>
