<svg xmlns="http://www.w3.org/2000/svg" data-name="fluent_icons" width="18" height="18" viewBox="0 0 18 18"><defs><linearGradient id="a" x1="9" y1="15.63" x2="9" y2="-2.51" gradientUnits="userSpaceOnUse"><stop offset="0" stop-color="#0078d4"/><stop offset=".16" stop-color="#1380da"/><stop offset=".53" stop-color="#3c91e5"/><stop offset=".82" stop-color="#559cec"/><stop offset="1" stop-color="#5ea0ef"/></linearGradient><linearGradient id="b" x1="12.26" y1="7.17" x2="12.26" y2="17.21" gradientUnits="userSpaceOnUse"><stop offset="0" stop-color="#ffd70f"/><stop offset=".27" stop-color="#ffd310"/><stop offset=".54" stop-color="#ffc613"/><stop offset=".83" stop-color="#feb217"/><stop offset="1" stop-color="#fea11b"/></linearGradient></defs><path d="M17.41 8.4a3.77 3.77 0 00-3.28-3.63A4.76 4.76 0 009.22.21 4.92 4.92 0 004.53 3.4 4.48 4.48 0 00.59 7.73a4.58 4.58 0 004.74 4.4 2.75 2.75 0 00.41 0h7.67a.64.64 0 00.2 0 3.82 3.82 0 003.8-3.73z" fill="url(#a)"/><path data-name="Path 1036" d="M8.14 16v-.6l-.61-.21-.16-.41.31-.62v-.07l-.19-.19-.23-.23h-.08l-.6.3-.41-.11-.26-.67h-.59l-.2.61-.45.2-.67-.38-.44.38v.08l.3.59-.17.41-.69.3V16h.09l.63.21.17.41-.32.69.42.42h.08l.6-.3.41.17.26.72h.59v-.09l.21-.63.4-.17.7.32.42-.42v-.08l-.3-.59.11-.42zm-2.51.55a.84.84 0 11.83-.84.84.84 0 01-.83.8z" fill="#76bc2d"/><path data-name="Path 1036" d="M17.28 12.64v-1.17l-.06-.05L16 11l-.31-.8.62-1.2.06-.13-.37-.4-.44-.47-.16.08-1.17.6-.8-.23-.51-1.3h-1.16l-.06.06-.4 1.19-.82.31-1.35-.64-.82.82.08.16.61 1.16-.33.8-1.41.51v1.17l.17.05 1.24.41L9 14l-.64 1.35.82.83.16-.07 1.17-.6.8.33.51 1.41H13V17l.41-1.24.79-.33 1.37.63.82-.82-.08-.16-.57-1.08.23-.82zm-4.91 1.08A1.64 1.64 0 1114 12.07a1.65 1.65 0 01-1.63 1.65z" fill="url(#b)"/><path d="M12.37 13.72A1.64 1.64 0 1114 12.07a1.65 1.65 0 01-1.63 1.65z" fill="#fff"/></svg>