<svg width="90" height="90" viewBox="0 0 90 90" fill="none" xmlns="http://www.w3.org/2000/svg">
<path fill-rule="evenodd" clip-rule="evenodd" d="M37.5197 49.1494C49.8841 49.1494 59.9075 39.0423 59.9075 26.5747C59.9075 14.107 49.8841 4 37.5197 4C25.1552 4 15.1318 14.107 15.1318 26.5747C15.1318 39.0423 25.1552 49.1494 37.5197 49.1494ZM41.7028 24.5126C41.7028 26.2944 40.6992 27.8398 39.2309 28.6055L40.6763 35.5543H33.8137L35.3745 28.7624C33.7269 28.0671 32.5693 26.4262 32.5693 24.5126C32.5693 21.9694 34.6139 19.9077 37.1361 19.9077C39.6582 19.9077 41.7028 21.9694 41.7028 24.5126Z" fill="white"/>
<path fill-rule="evenodd" clip-rule="evenodd" d="M49.7269 56.8764C45.5713 54.7833 40.9532 53.6641 36.2206 53.6641C28.2048 53.6641 20.5174 56.8749 14.8493 62.5902C9.18133 68.3056 5.99707 76.0572 5.99707 84.1399L36.2206 84.1399H51.7181C48.0366 80.2988 45.7715 75.0685 45.7715 69.3048C45.7715 64.6683 47.2372 60.377 49.7269 56.8764Z" fill="white"/>
<path fill-rule="evenodd" clip-rule="evenodd" d="M67.3964 85.9997C76.5678 85.9997 84.0027 78.5027 84.0027 69.2547C84.0027 60.0067 76.5678 52.5098 67.3964 52.5098C58.225 52.5098 50.79 60.0067 50.79 69.2547C50.79 78.5027 58.225 85.9997 67.3964 85.9997ZM67.094 76.7886L77.8008 64.4502L75.281 62.2636L65.629 73.3866L59.2338 68.2278L57.1392 70.8244L64.7868 76.9936L66.0394 78.004L67.094 76.7886Z" fill="white"/>
</svg>
