<svg width="40" height="40" viewBox="0 0 40 40" xmlns="http://www.w3.org/2000/svg">  <g id="Icon-Architecture/32/Arch_AWS-Private-5G_32" stroke="none" stroke-width="1" fill="none" fill-rule="evenodd">  <path d="M15.244,9.811 L10.766,6.408 L11.372,5.612 L15.849,9.015 L15.244,9.811 Z M24.188,9.799 L23.583,9.003 L28.06,5.6 L28.666,6.396 L24.188,9.799 Z M28.06,17.471 L23.583,14.067 L24.188,13.271 L28.666,16.675 L28.06,17.471 Z M25,11.985 L32,11.985 L32,10.985 L25,10.985 L25,11.985 Z M15.244,13.284 L15.849,14.08 L11.372,17.483 L10.766,16.687 L15.244,13.284 Z M8,11.985 L15,11.985 L15,10.985 L8,10.985 L8,11.985 Z M24,32.791 L24,23.985 L16,23.985 L16,32.777 C11.627,32.498 8.915,31.81 8.502,31.379 C8.702,25.264 13.68,20.485 19.868,20.485 C25.807,20.485 30.883,25.449 31.223,31.568 C30.794,31.999 28.167,32.559 24,32.791 L24,32.791 Z M23,32.839 C22.055,32.877 21.047,32.9 19.971,32.9 C18.915,32.9 17.929,32.874 17,32.831 L17,24.985 L23,24.985 L23,32.839 Z M18,12.354 C18,11.251 18.897,10.354 20,10.354 C21.102,10.354 22,11.251 22,12.354 C22,13.457 21.102,14.354 20,14.354 C18.897,14.354 18,13.457 18,12.354 L18,12.354 Z M20.5,19.518 L20.5,15.303 C21.916,15.064 23,13.837 23,12.354 C23,10.7 21.654,9.354 20,9.354 C18.346,9.354 17,10.7 17,12.354 C17,13.837 18.084,15.064 19.5,15.303 L19.5,19.503 C12.911,19.691 7.67,24.857 7.5,31.447 C7.5,33.459 16.502,33.9 19.971,33.9 C22.017,33.9 32.227,33.791 32.227,31.634 L32.226,31.61 C31.917,25.144 26.717,19.859 20.5,19.518 L20.5,19.518 Z" id="Fill-5" fill="#FFFFFF"></path> </g></svg>