<svg width="40" height="40" viewBox="0 0 40 40" fill="none" xmlns="http://www.w3.org/2000/svg">
<g clip-path="url(#clip0_23296_3442)">
<path d="M40 0H0V40H40V0Z" fill="#C925D1" fill-opacity="0.12"/>
<path fill-rule="evenodd" clip-rule="evenodd" d="M10.053 19.2188C10.053 17.2888 11.623 15.7188 13.553 15.7188C15.483 15.7188 17.053 17.2888 17.053 19.2188C17.053 21.1488 15.483 22.7188 13.553 22.7188C11.623 22.7188 10.053 21.1488 10.053 19.2188ZM32.553 12.7568H6.553C6.277 12.7188 6.053 12.9428 6.053 13.2188V26.8378C6.036 26.8608 6.017 26.8808 6 26.9038L6.053 26.9408V27.7248C6.053 27.9028 6.147 28.0658 6.3 28.1558L17.418 34.6878C17.496 34.7338 17.583 34.7568 17.671 34.7568C17.758 34.7568 17.844 34.7348 17.921 34.6898L25.67 30.2068L24.671 29.6298L21.935 31.2128C21.821 29.9908 21.474 28.7998 20.883 27.7098L20.596 27.2568L19.73 27.7568L20.021 28.2158C20.607 29.2968 20.924 30.5208 20.969 31.7708L17.673 33.6778L7.053 27.4388V27.1848C8.533 25.2928 10.821 24.1628 13.266 24.1628C14.681 24.1628 16.057 24.5498 17.249 25.2808L17.584 25.5308L18.519 24.9908L17.944 24.5588C17.912 24.5248 17.877 24.4938 17.838 24.4698C17.023 23.9598 16.125 23.6118 15.193 23.3988C16.864 22.7408 18.053 21.1208 18.053 19.2188C18.053 16.7378 16.034 14.7188 13.553 14.7188C11.072 14.7188 9.053 16.7378 9.053 19.2188C9.053 21.0378 10.143 22.6008 11.7 23.3088C9.944 23.6248 8.324 24.4568 7.053 25.6948V13.7188H32.053V16.1798L33.053 16.7568V13.2188C33.053 12.9428 32.829 12.7188 32.553 12.7568ZM33.053 18.8598V25.5108C33.053 25.6888 32.957 25.8538 32.803 25.9428L26.803 29.4068C26.726 29.4518 26.639 29.4738 26.553 29.4738C26.471 29.4738 26.389 29.4538 26.315 29.4138L21.503 26.7328L22.456 26.1818L26.545 28.4008L32.053 25.2208V19.1488L26.553 15.9728L21.053 19.1488V23.5278L20.053 24.1058V18.8598C20.053 18.6808 20.149 18.5158 20.303 18.4268L26.303 14.9638C26.457 14.8738 26.649 14.8738 26.803 14.9638L32.803 18.4268C32.957 18.5158 33.053 18.6808 33.053 18.8598ZM7.914 11.7188L17.537 6.01476L27.352 11.7188H29.22L17.769 5.06276C17.623 4.97776 17.445 4.97976 17.299 5.06476L6.073 11.7188H7.914ZM15.446 29.0588L14.946 28.1938L25.28 22.2278L25.78 23.0938L15.446 29.0588Z" fill="#C925D1"/>
</g>
<rect x="0.5" y="0.5" width="39" height="39" stroke="#C925D1"/>
<defs>
<clipPath id="clip0_23296_3442">
<rect width="40" height="40" fill="white"/>
</clipPath>
</defs>
</svg>
