<svg width="40" height="40" viewBox="0 0 40 40" fill="none" xmlns="http://www.w3.org/2000/svg">
<g clip-path="url(#clip0_23310_9513)">
<path d="M40 0H0V40H40V0Z" fill="#DD344C" fill-opacity="0.12"/>
<path fill-rule="evenodd" clip-rule="evenodd" d="M25.485 28.053C24.933 28.053 24.485 27.604 24.485 27.053C24.485 26.502 24.933 26.053 25.485 26.053C26.037 26.053 26.485 26.502 26.485 27.053C26.485 27.604 26.037 28.053 25.485 28.053ZM21.004 27.053C21.004 27.604 20.555 28.053 20.005 28.053C19.454 28.053 19.006 27.604 19.006 27.053C19.006 26.502 19.454 26.053 20.005 26.053C20.555 26.053 21.004 26.502 21.004 27.053ZM15.506 27.053C15.506 27.604 15.057 28.053 14.506 28.053C13.954 28.053 13.506 27.604 13.506 27.053C13.506 26.502 13.954 26.053 14.506 26.053C15.057 26.053 15.506 26.502 15.506 27.053ZM18.006 18.053C18.006 16.95 18.903 16.053 20.006 16.053C21.108 16.053 22.006 16.95 22.006 18.053C22.006 19.156 21.108 20.053 20.006 20.053C18.903 20.053 18.006 19.156 18.006 18.053ZM25.985 25.124V22.553C25.985 22.277 25.761 22.053 25.485 22.053H20.506V21.002C21.922 20.763 23.006 19.536 23.006 18.053C23.006 16.399 21.66 15.053 20.006 15.053C18.351 15.053 17.006 16.399 17.006 18.053C17.006 19.536 18.089 20.763 19.506 21.002V22.053H14.506C14.229 22.053 14.006 22.277 14.006 22.553V25.124C13.145 25.347 12.506 26.124 12.506 27.053C12.506 28.156 13.403 29.053 14.506 29.053C15.608 29.053 16.506 28.156 16.506 27.053C16.506 26.124 15.866 25.347 15.006 25.124V23.053H19.506V25.124C18.645 25.347 18.006 26.123 18.006 27.053C18.006 28.156 18.902 29.053 20.005 29.053C21.107 29.053 22.004 28.156 22.004 27.053C22.004 26.124 21.365 25.348 20.506 25.124V23.053H24.985V25.124C24.125 25.347 23.485 26.124 23.485 27.053C23.485 28.156 24.382 29.053 25.485 29.053C26.588 29.053 27.485 28.156 27.485 27.053C27.485 26.124 26.845 25.347 25.985 25.124ZM20.006 32.053C14.933 32.053 11 30.444 11 29.06V10.607C13.031 11.948 17.693 12.13 20.006 12.13C22.316 12.13 26.971 11.949 29.006 10.611V29.06C29.006 30.444 25.074 32.053 20.006 32.053ZM20.006 7C25.849 7 29.003 8.065 29.003 9.067C29.003 10.067 25.849 11.13 20.006 11.13C14.162 11.13 11.008 10.067 11.008 9.067C11.008 8.065 14.162 7 20.006 7ZM30.006 9.053C29.981 6.299 23.006 6 20.006 6C17.006 6 10.025 6.299 10 9.053V29.06C10 31.526 15.193 33.053 20.006 33.053C24.815 33.053 30.006 31.526 30.006 29.06V9.053Z" fill="#DD344C"/>
</g>
<rect x="0.5" y="0.5" width="39" height="39" stroke="#DD344C"/>
<defs>
<clipPath id="clip0_23310_9513">
<rect width="40" height="40" fill="white"/>
</clipPath>
</defs>
</svg>
