<svg id="Layer_1" data-name="Layer 1" xmlns="http://www.w3.org/2000/svg" viewBox="0 0 360 360"><defs><style>.cls-1{fill:#fff;}</style></defs><path class="cls-1" d="M169.735,320.51965l-108.0587-61.799a19.8167,19.8167,0,0,1-9.84537-17.04208V118.06088a19.76459,19.76459,0,0,1,9.73878-17.03331L169.84425,39.2979a19.718,19.718,0,0,1,9.7945-2.63067,18.77915,18.77915,0,0,1,9.8831,2.55434l108.14294,61.79634a19.81706,19.81706,0,0,1,9.84626,17.043V241.67857a19.76276,19.76276,0,0,1-9.73834,17.03243L189.499,320.53018a19.90962,19.90962,0,0,1-9.905,2.639A19.54838,19.54838,0,0,1,169.735,320.51965Z"/><path class="cls-1" d="M334.46255,118.04816a47.00033,47.00033,0,0,0-23.41238-40.3891L202.8967,15.94738a46.68479,46.68479,0,0,0-46.52951-.00658L48.1058,77.75293a46.61868,46.61868,0,0,0-23.31587,40.30795v123.63a46.99753,46.99753,0,0,0,23.4115,40.38867l108.16268,61.80685a46.56567,46.56567,0,0,0,46.5203.00174l108.26751-61.81476a46.74717,46.74717,0,0,0,23.3106-40.30532Zm-4.49191,123.71991A42.235,42.235,0,0,1,308.913,278.17892L200.65425,339.98929a42.07447,42.07447,0,0,1-42.0591-.00177L50.43554,278.18243a42.48306,42.48306,0,0,1-21.15369-36.50386V118.06088A42.11259,42.11259,0,0,1,50.33947,81.65L158.60085,19.83789a42.18579,42.18579,0,0,1,42.05691.00394L308.81738,81.55659a42.48675,42.48675,0,0,1,21.15326,36.50429Z"/><path class="cls-1" d="M297.77271,258.711a19.76278,19.76278,0,0,0,9.73834-17.03244V118.06088a19.81706,19.81706,0,0,0-9.84626-17.043L189.52184,39.22157a18.77909,18.77909,0,0,0-9.88311-2.55434,19.71793,19.71793,0,0,0-9.79449,2.63067L61.56971,101.02756a19.76459,19.76459,0,0,0-9.73878,17.03331v123.6177a19.81669,19.81669,0,0,0,9.84537,17.0421l108.05872,61.799a19.54833,19.54833,0,0,0,9.859,2.64954,19.90968,19.90968,0,0,0,9.905-2.639Z"/></svg>