<svg width="90" height="90" viewBox="0 0 90 90" fill="none" xmlns="http://www.w3.org/2000/svg">
<rect x="25.4849" y="12" width="39.3155" height="16.9445" rx="1.45613" fill="white"/>
<rect x="32.5396" y="60.9509" width="25.2022" height="16.9445" rx="1.45613" fill="white"/>
<rect x="64.7974" y="61.0554" width="25.2022" height="16.9445" rx="1.45613" fill="white"/>
<rect x="0.000488281" y="61.0554" width="25.2022" height="16.9445" rx="1.45613" fill="white"/>
<path fill-rule="evenodd" clip-rule="evenodd" d="M41.5789 43.0103C41.5817 43.8198 40.931 44.4777 40.1277 44.4777L38.0868 44.4777C36.963 44.4777 36.2655 45.7098 36.8376 46.6842L42.8979 57.0039C43.4511 57.946 44.7984 57.9628 45.3755 57.0348L51.7924 46.7151C52.3978 45.7416 51.7038 44.4778 50.564 44.4777L48.5798 44.4777C47.779 44.4777 47.1299 43.8237 47.1299 43.0168L47.1299 35.1099C47.1299 34.3029 46.4809 33.6489 45.68 33.6489L43.0028 33.6489C42.1994 33.6489 41.5488 34.3069 41.5516 35.1164L41.5789 43.0103Z" fill="white"/>
<path fill-rule="evenodd" clip-rule="evenodd" d="M63.7284 43.6028C64.2021 44.2536 64.0615 45.1636 63.4142 45.6365L61.7474 46.8544C60.8405 47.5171 60.9989 48.9184 62.0315 49.3685L72.966 54.1347C73.9667 54.5708 75.0694 53.7927 74.994 52.7035L74.1533 40.562C74.074 39.4166 72.7654 38.8037 71.8412 39.479L70.2516 40.6405C69.6013 41.1157 68.687 40.969 68.2134 40.3135L63.6012 33.93C63.1275 33.2745 62.2133 33.1278 61.563 33.603L59.3968 35.1858C58.7495 35.6588 58.6089 36.5688 59.0826 37.2196L63.7284 43.6028Z" fill="white"/>
<path fill-rule="evenodd" clip-rule="evenodd" d="M26.7647 43.6028C26.2911 44.2536 26.4317 45.1636 27.0789 45.6365L28.7457 46.8544C29.6526 47.5171 29.4943 48.9184 28.4616 49.3685L17.5272 54.1347C16.5264 54.5708 15.4238 53.7927 15.4992 52.7035L16.3399 40.562C16.4192 39.4166 17.7278 38.8037 18.652 39.479L20.2416 40.6405C20.8919 41.1157 21.8061 40.969 22.2798 40.3135L26.892 33.93C27.3656 33.2745 28.2799 33.1278 28.9302 33.603L31.0964 35.1858C31.7437 35.6588 31.8843 36.5688 31.4106 37.2196L26.7647 43.6028Z" fill="white"/>
</svg>
