<svg width="40" height="40" viewBox="0 0 40 40" fill="none" xmlns="http://www.w3.org/2000/svg">
<g clip-path="url(#clip0_23296_3778)">
<path d="M40 0H0V40H40V0Z" fill="#01A88D" fill-opacity="0.12"/>
<path fill-rule="evenodd" clip-rule="evenodd" d="M26.193 32.7632C26.04 30.8842 25.032 29.1632 23.486 28.1882C22.63 27.6482 21.646 27.3632 20.643 27.3632C17.731 27.3632 15.333 29.7432 15.092 32.7632H26.193ZM20.653 26.3632C22.318 26.3632 23.672 25.0082 23.672 23.3432C23.672 21.6782 22.318 20.3232 20.653 20.3232C18.988 20.3232 17.632 21.6782 17.632 23.3432C17.632 25.0082 18.988 26.3632 20.653 26.3632ZM27.214 33.2632C27.214 33.5392 26.99 33.7632 26.714 33.7632H14.573C14.297 33.7632 14.073 33.5392 14.073 33.2632C14.073 30.2382 15.938 27.6682 18.523 26.7392C17.391 26.0272 16.632 24.7762 16.632 23.3432C16.632 21.1262 18.436 19.3232 20.653 19.3232C22.87 19.3232 24.672 21.1262 24.672 23.3432C24.672 24.7832 23.906 26.0382 22.765 26.7482C23.2 26.9042 23.623 27.0932 24.019 27.3432C25.99 28.5842 27.214 30.8532 27.214 33.2632ZM13.549 23.4512L13.036 22.5942L10.257 24.2612L7 22.6142V20.3732L10.352 18.3302L9.833 17.4762L7 19.2022V16.3482L10.5 15.2282L14 16.8222V18.2792L10.937 20.1162L11.451 20.9732L14.444 19.1782L16.158 20.3212L16.713 19.4892L15 18.3472V16.5862L17.749 15.0112C17.904 14.9222 18 14.7562 18 14.5772V10.8802H17V14.2872L14.276 15.8482L11 14.3572V10.6022L13 9.40918V12.4662H14V8.81218L16.856 7.10918L20 8.62018V17.8802H21V8.30618C21 8.11418 20.889 7.93918 20.716 7.85518L17.047 6.09118C16.897 6.01918 16.717 6.02618 16.575 6.11318L10.244 9.88818C10.092 9.97818 10 10.1412 10 10.3182V14.3382L6.347 15.5072C6.14 15.5732 6 15.7662 6 15.9832V22.9222C6 23.1102 6.106 23.2832 6.274 23.3682L10 25.2512V28.7832C10 28.9402 10.074 29.0892 10.2 29.1832L12.759 31.1032L13.359 30.3032L11 28.5332V24.9822L13.549 23.4512ZM25.691 21.2502C25.858 20.6992 25.943 20.1332 25.943 19.5692C25.943 16.9982 24.221 14.7182 21.757 14.0252L21.486 14.9882C23.521 15.5602 24.943 17.4442 24.943 19.5692C24.943 20.0342 24.873 20.5022 24.734 20.9602L25.691 21.2502ZM33.602 21.8982L31.765 26.7042C31.716 26.8332 31.616 26.9352 31.489 26.9882C31.362 27.0402 31.217 27.0382 31.092 26.9812L29.528 26.2752C29.461 26.3822 29.397 26.4852 29.336 26.5852C28.903 27.2912 28.529 27.9012 27.676 28.5442L27.075 27.7462C27.776 27.2172 28.073 26.7322 28.484 26.0622C28.617 25.8462 28.758 25.6152 28.924 25.3662C29.059 25.1612 29.324 25.0862 29.547 25.1872L31.021 25.8522L32.479 22.0352L30.93 21.5432C30.697 21.4692 30.551 21.2362 30.587 20.9942C30.759 19.8162 30.726 18.6162 30.489 17.4272C30.441 17.1872 30.574 16.9482 30.802 16.8612L32.316 16.2882L30.643 12.5572L29.206 13.3052C28.99 13.4182 28.723 13.3582 28.576 13.1632C27.848 12.1982 26.974 11.3732 25.979 10.7122C25.775 10.5762 25.699 10.3132 25.799 10.0902L26.465 8.60918L22.604 7.13818L22.044 8.45018L21.124 8.05718L21.873 6.30418C21.978 6.05618 22.26 5.93718 22.51 6.03318L27.317 7.86318C27.446 7.91218 27.548 8.01218 27.601 8.13918C27.654 8.26618 27.652 8.41018 27.595 8.53518L26.882 10.1212C27.714 10.7192 28.462 11.4252 29.113 12.2262L30.652 11.4262C30.774 11.3622 30.919 11.3522 31.047 11.3972C31.176 11.4422 31.283 11.5392 31.339 11.6652L33.445 16.3632C33.502 16.4882 33.504 16.6322 33.451 16.7592C33.398 16.8862 33.295 16.9862 33.166 17.0352L31.546 17.6492C31.712 18.6722 31.74 19.7002 31.63 20.7162L33.287 21.2422C33.418 21.2842 33.526 21.3782 33.586 21.5022C33.645 21.6262 33.652 21.7692 33.602 21.8982Z" fill="#01A88D"/>
</g>
<rect x="0.5" y="0.5" width="39" height="39" stroke="#01A88D"/>
<defs>
<clipPath id="clip0_23296_3778">
<rect width="40" height="40" fill="white"/>
</clipPath>
</defs>
</svg>
