<svg width="24px" height="24px" viewBox="0 0 24 24" fill="none" xmlns="http://www.w3.org/2000/svg">
<path d="M19.73 6.55969C19.2884 6.57228 18.8684 6.75332 18.556 7.06569C18.2437 7.37806 18.0626 7.7981 18.05 8.23969C18.0651 8.54058 18.1542 8.8331 18.3095 9.09128C18.4647 9.34946 18.6813 9.56531 18.94 9.71969V16.6197L13.78 19.6797L14.58 20.9597L20.13 17.7097C20.2487 17.6368 20.3473 17.5356 20.4171 17.4152C20.487 17.2947 20.5258 17.1588 20.53 17.0197V9.71969C20.8014 9.58019 21.0284 9.36778 21.1856 9.10633C21.3428 8.84487 21.424 8.54475 21.42 8.23969C21.4301 8.01554 21.3932 7.79177 21.3116 7.58273C21.2301 7.37368 21.1058 7.18399 20.9467 7.0258C20.7876 6.86762 20.5971 6.74444 20.3876 6.66417C20.1781 6.5839 19.9541 6.54831 19.73 6.55969Z" fill="white"/>
<path d="M18.0001 5.48003L12.3901 2.32003C12.1346 2.22926 11.8556 2.22926 11.6001 2.32003L5.25007 6.00003C4.99666 5.82914 4.7023 5.72886 4.39727 5.70951C4.09224 5.69016 3.78756 5.75244 3.5146 5.88995C3.24163 6.02745 3.01023 6.2352 2.84422 6.49183C2.67821 6.74846 2.58358 7.04469 2.57007 7.35003C2.59024 7.78802 2.77596 8.20201 3.08968 8.50831C3.4034 8.8146 3.82172 8.99036 4.26007 9.00003C4.69667 8.98787 5.1125 8.81101 5.42411 8.50497C5.73572 8.19892 5.92004 7.78634 5.94007 7.35003L12.0001 3.90003L17.1501 6.90003L18.0001 5.48003Z" fill="white"/>
<path d="M11.2001 18.4999C10.8808 18.5038 10.5703 18.605 10.3101 18.7899L5.15006 15.7899V9.91992H3.56006V16.2299C3.56433 16.3691 3.60312 16.505 3.67295 16.6254C3.74277 16.7459 3.84143 16.8471 3.96006 16.9199L9.52006 19.9999V20.0899C9.55278 20.5144 9.7445 20.9109 10.0569 21.2001C10.3693 21.4893 10.7793 21.65 11.2051 21.65C11.6308 21.65 12.0408 21.4893 12.3532 21.2001C12.6656 20.9109 12.8573 20.5144 12.8901 20.0899C12.8744 19.6558 12.6882 19.2453 12.3718 18.9477C12.0554 18.65 11.6343 18.4891 11.2001 18.4999Z" fill="white"/>
<path d="M16.9599 8.63027L12.0999 5.78027L7.12988 8.63027L12.0999 11.4003L16.9599 8.63027Z" fill="#DDDDDD"/>
<path d="M12.1001 12.3803L6.84009 9.32031V11.7903L12.1001 14.7503V12.3803Z" fill="#DDDDDD"/>
<path d="M12.1001 15.7297L6.84009 12.6797V14.7497L12.1001 17.8097V15.7297Z" fill="#DDDDDD"/>
<path d="M12.0901 12.3801V14.7501L17.3501 11.6901V9.33008L12.0901 12.3801ZM16.4101 11.4401C16.3093 11.4401 16.2127 11.4 16.1414 11.3288C16.0701 11.2575 16.0301 11.1609 16.0301 11.0601C16.0301 10.9593 16.0701 10.8626 16.1414 10.7914C16.2127 10.7201 16.3093 10.6801 16.4101 10.6801C16.5109 10.6801 16.6075 10.7201 16.6788 10.7914C16.7501 10.8626 16.7901 10.9593 16.7901 11.0601C16.7901 11.1609 16.7501 11.2575 16.6788 11.3288C16.6075 11.4 16.5109 11.4401 16.4101 11.4401Z" fill="white"/>
<path d="M12.0901 15.7297V17.7997L17.3501 14.7497V12.6797L12.0901 15.7297ZM16.4101 14.6597C16.3093 14.6597 16.2127 14.6197 16.1414 14.5484C16.0701 14.4771 16.0301 14.3805 16.0301 14.2797C16.0301 14.1789 16.0701 14.0823 16.1414 14.011C16.2127 13.9397 16.3093 13.8997 16.4101 13.8997C16.5109 13.8997 16.6075 13.9397 16.6788 14.011C16.7501 14.0823 16.7901 14.1789 16.7901 14.2797C16.7901 14.3805 16.7501 14.4771 16.6788 14.5484C16.6075 14.6197 16.5109 14.6597 16.4101 14.6597Z" fill="white"/>
</svg>
