<svg width="90" height="48" viewBox="0 0 90 48" fill="none" xmlns="http://www.w3.org/2000/svg">
<path fill-rule="evenodd" clip-rule="evenodd" d="M72.6203 0H17.4656V19.3813H10.1341V15.0857L0 23.9159L10.1341 32.7461V28.4501H17.4656V48H72.6203V28.4501H79.8659V32.7461L90 23.9159L79.8659 15.0857V19.3813H72.6203V0ZM45.498 24.7352C45.498 24.4814 45.7038 24.2756 45.9577 24.2756H65.2663C65.5201 24.2756 65.7259 24.4814 65.7259 24.7352V38.3974C65.7259 38.6512 65.5201 38.857 65.2663 38.857H45.9577C45.7038 38.857 45.498 38.6512 45.498 38.3974V24.7352ZM49.2623 35.3722C49.5105 35.3722 49.7174 35.1429 49.7174 34.8678V28.219C49.7174 27.9439 49.5105 27.7146 49.2623 27.7146C49.0141 27.7146 48.8073 27.9439 48.8073 28.219V34.8678C48.8073 35.1429 49.0141 35.3722 49.2623 35.3722ZM53.4816 35.3722C53.7298 35.3722 53.9367 35.1429 53.9367 34.8678V28.219C53.9367 27.9439 53.7298 27.7146 53.4816 27.7146C53.2334 27.7146 53.0266 27.9439 53.0266 28.219V34.8678C53.0266 35.1429 53.2334 35.3722 53.4816 35.3722ZM57.701 35.3722C57.9491 35.3722 58.156 35.1429 58.156 34.8678V28.219C58.156 27.9439 57.9491 27.7146 57.701 27.7146C57.4528 27.7146 57.2459 27.9439 57.2459 28.219V34.8678C57.2459 35.1429 57.4528 35.3722 57.701 35.3722ZM61.9203 35.3722C62.1685 35.3722 62.3753 35.1429 62.3753 34.8678V28.219C62.3753 27.9439 62.1685 27.7146 61.9203 27.7146C61.6721 27.7146 61.4652 27.9439 61.4652 28.219V34.8678C61.4652 35.1429 61.6721 35.3722 61.9203 35.3722ZM35.368 8.68571C35.1142 8.68571 34.9084 8.89149 34.9084 9.14533V22.8075C34.9084 23.0614 35.1142 23.2672 35.368 23.2672H54.6766C54.9305 23.2672 55.1363 23.0614 55.1363 22.8075V9.14533C55.1363 8.89149 54.9305 8.68571 54.6766 8.68571H35.368ZM39.1277 19.3237C39.1277 19.5989 38.9209 19.8281 38.6727 19.8281C38.4245 19.8281 38.2177 19.5989 38.2177 19.3237V12.675C38.2177 12.3999 38.4245 12.1706 38.6727 12.1706C38.9209 12.1706 39.1277 12.3999 39.1277 12.675V19.3237ZM43.3884 19.3237C43.3884 19.5989 43.1816 19.8281 42.9334 19.8281C42.6852 19.8281 42.4783 19.5989 42.4783 19.3237V12.675C42.4783 12.3999 42.6852 12.1706 42.9334 12.1706C43.1816 12.1706 43.3884 12.3999 43.3884 12.675V19.3237ZM47.6077 19.3237C47.6077 19.5989 47.4009 19.8281 47.1527 19.8281C46.9045 19.8281 46.6976 19.5989 46.6976 19.3237V12.675C46.6976 12.3999 46.9045 12.1706 47.1527 12.1706C47.4009 12.1706 47.6077 12.3999 47.6077 12.675V19.3237ZM51.827 19.3237C51.827 19.5989 51.6202 19.8281 51.372 19.8281C51.1238 19.8281 50.917 19.5989 50.917 19.3237V12.675C50.917 12.3999 51.1238 12.1706 51.372 12.1706C51.6202 12.1706 51.827 12.3999 51.827 12.675V19.3237ZM24.3599 24.7352C24.3599 24.4814 24.5656 24.2756 24.8195 24.2756H44.1281C44.382 24.2756 44.5877 24.4814 44.5877 24.7352V38.3974C44.5877 38.6512 44.3819 38.857 44.1281 38.857H24.8195C24.5656 38.857 24.3599 38.6512 24.3599 38.3974V24.7352ZM28.1241 35.3722C28.3723 35.3722 28.5792 35.1429 28.5792 34.8678V28.219C28.5792 27.9439 28.3723 27.7146 28.1241 27.7146C27.876 27.7146 27.6691 27.9439 27.6691 28.219V34.8678C27.6691 35.1429 27.876 35.3722 28.1241 35.3722ZM32.3435 35.3722C32.5917 35.3722 32.7985 35.1429 32.7985 34.8678V28.219C32.7985 27.9439 32.5917 27.7146 32.3435 27.7146C32.0953 27.7146 31.8884 27.9439 31.8884 28.219V34.8678C31.8884 35.1429 32.0953 35.3722 32.3435 35.3722ZM36.5628 35.3722C36.811 35.3722 37.0178 35.1429 37.0178 34.8678V28.219C37.0178 27.9439 36.811 27.7146 36.5628 27.7146C36.3146 27.7146 36.1077 27.9439 36.1077 28.219V34.8678C36.1077 35.1429 36.3146 35.3722 36.5628 35.3722ZM40.8234 35.3722C41.0716 35.3722 41.2785 35.1429 41.2785 34.8678V28.219C41.2785 27.9439 41.0716 27.7146 40.8234 27.7146C40.5752 27.7146 40.3684 27.9439 40.3684 28.219V34.8678C40.3684 35.1429 40.5752 35.3722 40.8234 35.3722Z" fill="white"/>
</svg>
