<svg width="20" height="20" viewBox="0 0 20 20" fill="none" xmlns="http://www.w3.org/2000/svg">
<path d="M5.41083 4.55074C5.44331 4.51053 5.46364 4.48841 5.47988 4.46429C5.81702 3.95577 6.28823 3.60602 6.83863 3.35275C7.61245 2.99499 8.42893 2.78995 9.27586 2.70754C10.5696 2.58293 11.8106 2.78995 13.0028 3.29448C13.3703 3.45127 13.7238 3.64221 14.0142 3.91759C14.1808 4.07438 14.3168 4.25929 14.4652 4.43215C14.4956 4.46834 14.522 4.50652 14.5566 4.55274C14.7068 4.47235 14.8511 4.39595 14.9952 4.31557C16.0148 3.7387 16.756 2.90654 17.268 1.86735C17.4954 1.40706 17.7005 0.936721 17.9199 0.472382C17.9645 0.379921 18.0174 0.287459 18.0785 0.205062C18.1615 0.0945054 18.2448 0.0965138 18.2978 0.223159C18.3626 0.375905 18.4195 0.536708 18.4439 0.699519C18.6449 2.05831 18.4541 3.35275 17.6905 4.51457C17.146 5.34268 16.4536 6.0462 15.6371 6.62308C15.57 6.67132 15.5476 6.71153 15.568 6.79393C15.6594 7.16377 15.6939 7.53966 15.6959 7.91954C15.698 8.50245 15.7101 9.08538 15.7162 9.66828C15.7162 9.72859 15.7325 9.76074 15.7914 9.79088C15.9519 9.8713 16.0493 10.014 16.1225 10.1728C16.2361 10.418 16.2687 10.6793 16.2829 10.9446C16.3682 12.4542 15.7589 13.6903 14.7454 14.7698C14.6967 14.82 14.6601 14.8883 14.6398 14.9567C14.2315 16.2874 13.5126 17.4009 12.3386 18.1928C11.6562 18.6532 10.8986 18.9205 10.07 18.9466C9.40787 18.9686 8.78233 18.802 8.19129 18.5123C7.12704 17.9938 6.36135 17.1739 5.81095 16.1466C5.60376 15.7606 5.44535 15.3567 5.32145 14.9366C5.30522 14.8782 5.26865 14.82 5.22804 14.7758C4.51717 14.0381 4.00737 13.1919 3.77584 12.1928C3.64383 11.622 3.63774 11.0432 3.74335 10.4683C3.78195 10.2653 3.86116 10.0763 4.00537 9.92154C4.03988 9.88535 4.07441 9.83712 4.11909 9.82306C4.25314 9.77884 4.2511 9.68235 4.25314 9.56979C4.25721 8.93662 4.25517 8.30347 4.28157 7.67029C4.29377 7.3708 4.35265 7.07332 4.40344 6.77585C4.41765 6.69142 4.40142 6.65121 4.33438 6.60298C3.51791 6.02409 2.8375 5.30852 2.27697 4.48641C1.82605 3.82513 1.60672 3.07337 1.51328 2.28544C1.44424 1.70655 1.44221 1.12767 1.57219 0.556812C1.59656 0.446254 1.63516 0.337731 1.68187 0.235205C1.74484 0.0965129 1.83012 0.0904899 1.92152 0.217109C1.98043 0.297524 2.03121 0.387976 2.07385 0.478429C2.2993 0.956799 2.51052 1.44322 2.74816 1.9176C3.20514 2.82815 3.84288 3.58995 4.71622 4.14269C4.94165 4.28141 5.17321 4.41205 5.41083 4.55074ZM7.79118 11.9215C8.19536 11.9155 8.4858 11.821 8.74373 11.6281C9.00776 11.4311 9.1601 11.1678 9.19664 10.8401C9.20478 10.7557 9.18651 10.7075 9.09103 10.6974C9.01385 10.6894 8.93871 10.6652 8.86357 10.6492C7.86227 10.4462 6.86301 10.2452 5.86173 10.0421C5.74595 10.018 5.71344 10.0441 5.75204 10.1527C5.81095 10.3115 5.87185 10.4763 5.9653 10.615C6.28214 11.0813 6.70053 11.4431 7.19001 11.7245C7.3992 11.8472 7.62463 11.9275 7.79118 11.9215ZM12.0929 11.9215C12.2838 11.9235 12.4646 11.8853 12.6332 11.8009C13.214 11.5135 13.6852 11.0974 14.0427 10.5627C14.1239 10.4401 14.1727 10.2914 14.2214 10.1507C14.2559 10.0502 14.2214 10.022 14.1138 10.0441C13.0312 10.2632 11.9487 10.4843 10.8661 10.7014C10.7869 10.7175 10.7565 10.7597 10.7748 10.826C10.8194 10.9828 10.8458 11.1537 10.9271 11.2884C11.187 11.7185 11.6034 11.8934 12.0929 11.9215Z" fill="#326CE5"/>
</svg>
