<svg width="40" height="40" viewBox="0 0 40 40" fill="none" xmlns="http://www.w3.org/2000/svg">
<g clip-path="url(#clip0_23296_3634)">
<path d="M40 0H0V40H40V0Z" fill="#01A88D" fill-opacity="0.12"/>
<path fill-rule="evenodd" clip-rule="evenodd" d="M20.9999 20V32.35L7.76879 20H20.9999ZM21.6989 33.958C21.8819 33.879 21.9999 33.699 21.9999 33.5V19.5C21.9999 19.224 21.7759 19 21.4999 19H6.49978C6.29478 19 6.10978 19.125 6.03478 19.316C5.95978 19.508 6.00878 19.726 6.15878 19.866L21.1589 33.866C21.2529 33.954 21.3759 34 21.4999 34C21.5669 34 21.6349 33.986 21.6989 33.958ZM34.5 34C34.379 34 34.259 33.956 34.164 33.871L23.6639 24.371L24.3359 23.629L34 32.374V7H7.70679L17.3539 16.646L16.6459 17.354L6.14578 6.854C6.00378 6.71 5.96078 6.496 6.03778 6.309C6.11478 6.122 6.29778 6 6.49978 6H34.5C34.776 6 35 6.224 35 6.5V33.5C35 33.698 34.884 33.877 34.703 33.957C34.638 33.986 34.568 34 34.5 34Z" fill="#01A88D"/>
</g>
<rect x="0.5" y="0.5" width="39" height="39" stroke="#01A88D"/>
<defs>
<clipPath id="clip0_23296_3634">
<rect width="40" height="40" fill="white"/>
</clipPath>
</defs>
</svg>
