<svg width="167" height="156" viewBox="0 0 167 156" fill="none" xmlns="http://www.w3.org/2000/svg">
<path d="M97.8186 7.0188C89.9326 1.28931 79.2542 1.28931 71.3682 7.01881L16.02 47.2316C8.13404 52.9611 4.83424 63.1169 7.84642 72.3874L28.9875 137.453C31.9997 146.723 40.6387 153 50.3863 153H118.8C128.548 153 137.187 146.723 140.199 137.453L161.34 72.3874C164.352 63.1169 161.053 52.9611 153.167 47.2316L97.8186 7.0188Z" fill="#326CE5" fill-opacity="0.1" stroke="#326CE5" stroke-width="5"/>
<path fill-rule="evenodd" clip-rule="evenodd" d="M12.3021 129.51C2.17112 124.682 -2.10988 112.591 2.74012 102.505C5.06912 97.6612 9.23512 93.9371 14.3221 92.1518C19.4091 90.3664 25.0001 90.6661 29.8641 92.9849C39.9951 97.8134 44.2761 109.904 39.4261 119.99C34.5761 130.077 22.4331 134.339 12.3021 129.51Z" fill="#326CE5"/>
<path d="M20.8901 99.1018C20.6621 99.1132 20.4381 99.1696 20.2321 99.2676L11.2521 103.539C11.0201 103.65 10.8161 103.811 10.6551 104.01C10.4941 104.209 10.3811 104.441 10.3231 104.69L8.10811 114.284C8.05711 114.505 8.05111 114.734 8.09111 114.958C8.13111 115.181 8.21611 115.394 8.34111 115.584C8.37111 115.631 8.40411 115.676 8.43811 115.719L14.6541 123.412C14.8151 123.611 15.0191 123.772 15.2511 123.883C15.4841 123.993 15.7391 124.05 15.9961 124.05L25.9641 124.048C26.2221 124.048 26.4761 123.991 26.7091 123.881C26.9411 123.771 27.1461 123.61 27.3071 123.411L33.5201 115.717C33.6811 115.518 33.7941 115.285 33.8521 115.037C33.9091 114.788 33.9091 114.53 33.8521 114.282L31.6331 104.687C31.5751 104.439 31.4621 104.207 31.3011 104.007C31.1401 103.808 30.9361 103.648 30.7041 103.537L21.7231 99.2676C21.4641 99.1443 21.1771 99.0873 20.8901 99.1018Z" fill="white"/>
<path d="M20.9791 102.367C20.6821 102.367 20.4421 102.634 20.4421 102.962C20.4421 102.967 20.4431 102.972 20.4431 102.977C20.4421 103.021 20.4401 103.075 20.4421 103.114C20.4491 103.303 20.4901 103.448 20.5151 103.623C20.5601 103.996 20.5981 104.306 20.5751 104.593C20.5521 104.702 20.4721 104.801 20.4001 104.87L20.3881 105.096C20.0651 105.123 19.7401 105.172 19.4161 105.245C18.0201 105.561 16.8191 106.276 15.9041 107.242C15.8451 107.202 15.7411 107.128 15.7101 107.105C15.6141 107.118 15.5171 107.148 15.3911 107.074C15.1501 106.913 14.9311 106.691 14.6661 106.423C14.5441 106.294 14.4571 106.172 14.3121 106.049C14.2791 106.021 14.2291 105.983 14.1931 105.954C14.0801 105.864 13.9471 105.818 13.8181 105.813C13.6531 105.808 13.4941 105.872 13.3901 106.002C13.2051 106.233 13.2641 106.586 13.5221 106.791C13.5251 106.793 13.5271 106.795 13.5301 106.797C13.5661 106.825 13.6091 106.862 13.6421 106.886C13.7951 106.998 13.9351 107.056 14.0871 107.145C14.4091 107.343 14.6751 107.507 14.8861 107.704C14.9691 107.792 14.9831 107.946 14.9941 108.013L15.1671 108.166C14.2441 109.548 13.8181 111.254 14.0701 112.993L13.8451 113.058C13.7851 113.135 13.7021 113.255 13.6141 113.291C13.3371 113.377 13.0261 113.409 12.6501 113.448C12.4741 113.463 12.3221 113.454 12.1351 113.49C12.0941 113.497 12.0361 113.512 11.9911 113.523C11.9901 113.523 11.9881 113.523 11.9871 113.524C11.9841 113.524 11.9811 113.526 11.9791 113.526C11.6621 113.602 11.4581 113.892 11.5241 114.178C11.5891 114.463 11.8991 114.637 12.2171 114.569C12.2201 114.568 12.2231 114.568 12.2251 114.568C12.2291 114.567 12.2321 114.565 12.2361 114.564C12.2801 114.555 12.3361 114.544 12.3751 114.533C12.5591 114.484 12.6921 114.412 12.8571 114.349C13.2131 114.222 13.5071 114.116 13.7941 114.075C13.9141 114.066 14.0401 114.148 14.1031 114.183L14.3371 114.143C14.8771 115.808 16.0061 117.152 17.4371 117.996L17.3401 118.23C17.3751 118.32 17.4141 118.443 17.3871 118.532C17.2831 118.802 17.1041 119.086 16.9011 119.403C16.8021 119.549 16.7011 119.663 16.6131 119.83C16.5911 119.87 16.5641 119.932 16.5441 119.974C16.4061 120.269 16.5071 120.607 16.7721 120.735C17.0391 120.863 17.3711 120.728 17.5141 120.433C17.5141 120.432 17.5151 120.432 17.5151 120.432C17.5361 120.39 17.5651 120.334 17.5821 120.294C17.6581 120.121 17.6831 119.972 17.7371 119.804C17.8791 119.448 17.9571 119.075 18.1531 118.843C18.2071 118.779 18.2941 118.755 18.3851 118.73L18.5061 118.511C19.7541 118.988 21.1501 119.115 22.5441 118.8C22.8631 118.728 23.1701 118.635 23.4671 118.524C23.5011 118.584 23.5641 118.7 23.5811 118.729C23.6741 118.759 23.7741 118.775 23.8561 118.895C24.0021 119.144 24.1031 119.439 24.2251 119.795C24.2781 119.963 24.3051 120.112 24.3811 120.285C24.3981 120.325 24.4271 120.381 24.4471 120.423C24.5911 120.718 24.9231 120.854 25.1901 120.726C25.4561 120.598 25.5571 120.259 25.4191 119.965C25.3981 119.923 25.3701 119.861 25.3491 119.821C25.2601 119.654 25.1591 119.541 25.0611 119.395C24.8571 119.078 24.6881 118.815 24.5841 118.545C24.5401 118.406 24.5911 118.32 24.6251 118.23C24.6051 118.206 24.5611 118.075 24.5361 118.014C26.0231 117.14 27.1191 115.744 27.6341 114.133C27.7041 114.144 27.8251 114.165 27.8641 114.173C27.9451 114.12 28.0191 114.051 28.1651 114.062C28.4521 114.104 28.7461 114.21 29.1021 114.337C29.2671 114.4 29.4011 114.473 29.5841 114.522C29.6231 114.532 29.6791 114.542 29.7231 114.552C29.7271 114.553 29.7301 114.554 29.7341 114.555C29.7361 114.556 29.7391 114.556 29.7421 114.556C30.0601 114.625 30.3701 114.451 30.4351 114.165C30.5011 113.88 30.2971 113.59 29.9811 113.514C29.9351 113.503 29.8691 113.485 29.8241 113.477C29.6371 113.442 29.4851 113.45 29.3091 113.436C28.9331 113.397 28.6221 113.365 28.3451 113.278C28.2321 113.234 28.1521 113.101 28.1131 113.046L27.8961 112.983C28.0091 112.172 27.9781 111.329 27.7841 110.485C27.5871 109.633 27.2401 108.854 26.7761 108.167C26.8321 108.117 26.9371 108.024 26.9671 107.997C26.9761 107.901 26.9681 107.8 27.0681 107.694C27.2801 107.496 27.5461 107.333 27.8671 107.135C28.0201 107.046 28.1611 106.988 28.3141 106.875C28.3491 106.85 28.3961 106.81 28.4331 106.781C28.6901 106.576 28.7501 106.223 28.5651 105.992C28.3791 105.761 28.0211 105.739 27.7631 105.944C27.7261 105.973 27.6761 106.01 27.6441 106.039C27.4991 106.162 27.4101 106.284 27.2891 106.412C27.0241 106.68 26.8051 106.904 26.5641 107.065C26.4601 107.126 26.3071 107.105 26.2381 107.101L26.0331 107.246C24.8681 106.029 23.2811 105.251 21.5721 105.1C21.5671 105.029 21.5611 104.9 21.5591 104.861C21.4891 104.794 21.4051 104.737 21.3831 104.593C21.3601 104.306 21.3991 103.996 21.4441 103.623C21.4691 103.448 21.5111 103.303 21.5181 103.114C21.5191 103.071 21.5171 103.008 21.5171 102.962C21.5161 102.634 21.2761 102.367 20.9791 102.367ZM20.3061 106.518L20.1461 109.324L20.1351 109.33C20.1241 109.581 19.9171 109.782 19.6621 109.782C19.5571 109.782 19.4611 109.748 19.3831 109.691L19.3781 109.694L17.0661 108.062C17.7771 107.367 18.6861 106.853 19.7331 106.616C19.9241 106.573 20.1161 106.541 20.3061 106.518ZM21.6531 106.518C22.8761 106.667 24.0071 107.219 24.8731 108.063L22.5771 109.685L22.5681 109.681C22.3651 109.829 22.0771 109.793 21.9181 109.594C21.8531 109.513 21.8191 109.417 21.8151 109.321L21.8131 109.32L21.6531 106.518ZM16.2281 109.111L18.3391 110.99L18.3361 111.002C18.5271 111.167 18.5551 111.453 18.3961 111.651C18.3311 111.732 18.2441 111.787 18.1501 111.812L18.1481 111.821L15.4421 112.599C15.3051 111.345 15.6011 110.127 16.2281 109.111ZM25.7151 109.112C26.0291 109.618 26.2661 110.183 26.4081 110.796C26.5471 111.401 26.5831 112.006 26.5251 112.59L23.8051 111.81L23.8031 111.799C23.5601 111.732 23.4101 111.486 23.4671 111.238C23.4901 111.137 23.5441 111.051 23.6171 110.988L23.6161 110.982L25.7151 109.112ZM20.5461 111.135H21.4111L21.9481 111.804L21.7551 112.639L20.9791 113.01L20.2001 112.638L20.0071 111.803L20.5461 111.135ZM23.3181 113.424C23.3551 113.422 23.3921 113.426 23.4281 113.432L23.4321 113.427L26.2311 113.898C25.8211 115.043 25.0381 116.036 23.9901 116.7L22.9041 114.087L22.9071 114.083C22.8071 113.852 22.9071 113.581 23.1371 113.471C23.1961 113.443 23.2571 113.427 23.3181 113.424ZM18.6181 113.436C18.8311 113.439 19.0231 113.586 19.0731 113.803C19.0961 113.904 19.0851 114.004 19.0461 114.093L19.0541 114.103L17.9791 116.69C16.9741 116.048 16.1741 115.086 15.7451 113.907L18.5201 113.438L18.5251 113.444C18.5561 113.438 18.5871 113.435 18.6181 113.436ZM20.9621 114.569C21.0361 114.566 21.1121 114.581 21.1831 114.616C21.2781 114.661 21.3501 114.732 21.3961 114.817H21.4061L22.7741 117.277C22.5971 117.337 22.4141 117.387 22.2271 117.429C21.1811 117.666 20.1391 117.594 19.1941 117.274L20.5591 114.818H20.5611C20.6431 114.666 20.7981 114.575 20.9621 114.569Z" fill="#326CE5" stroke="#326CE5" stroke-width="0.25"/>
</svg>
