<svg width="150" height="150" viewBox="0 0 150 150" fill="none" xmlns="http://www.w3.org/2000/svg">
<rect width="150" height="150" rx="75" fill="black"/>
<path d="M43.7135 87.1392H37.1692L35.1672 82.335H24.2604L22.4365 87.1392H16L25.8334 62.8749H32.8781L43.7135 87.1392ZM29.4454 68.6729L25.8695 78.1007H33.3792L29.4454 68.6729ZM67.4858 62.8749H72.7781V87.1392H66.6983V71.983L60.1186 79.5959H59.1892L52.6099 71.983V87.1389H46.5301V62.8749H51.8224L59.6535 71.8759L67.4858 62.8749ZM88.1828 62.8749C97.0865 62.8749 101.663 68.3887 101.663 75.0417C101.663 82.0147 97.2294 87.1392 87.503 87.1392H77.4186V62.8749H88.1828ZM83.4979 82.692H87.4666C93.5815 82.692 95.4054 78.5641 95.4054 75.0057C95.4054 70.8427 93.1522 67.3215 87.395 67.3215H83.4978L83.4979 82.692ZM113.758 68.6282L106.093 61H134V88.7664L126.334 81.1391V68.6282H113.758ZM113.749 70.1567L105.857 78.0086V89H116.903L124.795 81.1481H113.749V70.1567Z" fill="white"/>
</svg>
