<svg width="40" height="40" viewBox="0 0 40 40" xmlns="http://www.w3.org/2000/svg">  <g id="Icon-Architecture/32/Arch_AWS-IQ_32" stroke="none" stroke-width="1" fill="none" fill-rule="evenodd">  <g id="Icon-Service/32/AWS-IQ_32" transform="translate(6.000000, 6.000000)" fill="#FFFFFF"> <path d="M6.004,21.608 L10.271,18.117 L10.903,18.89 L6.039,22.872 L2.91,20.589 L3.5,19.781 L6.004,21.608 Z M3.5,4.474 C3.5,2.558 5.07,1 7,1 C8.93,1 10.5,2.558 10.5,4.474 C10.5,6.39 8.93,7.948 7,7.948 C5.07,7.948 3.5,6.39 3.5,4.474 L3.5,4.474 Z M7.022,8.979 C7.038,8.98 8.717,8.94 10.324,9.934 L10.85,9.083 C10.289,8.736 9.729,8.509 9.209,8.348 C10.57,7.578 11.5,6.139 11.5,4.474 C11.5,2.007 9.482,1.77635684e-15 7,1.77635684e-15 C4.519,1.77635684e-15 2.5,2.007 2.5,4.474 C2.5,6.124 3.413,7.551 4.753,8.327 C1.313,9.376 0.336,12.722 0.103,13.88 L1.083,14.078 C1.391,12.551 2.583,8.98 7.022,8.979 L7.022,8.979 Z M13,23.979 L13,16.61 C14.507,15.532 16.186,14.979 18,14.979 C19.638,14.979 21.286,15.437 22.643,16.268 C25.117,17.784 26.821,20.837 26.986,23.979 L13,23.979 Z M12,24.17 L6.5,26.979 L1,24.17 L1,16.788 L6.5,13.979 L12,16.788 L12,24.17 Z M13.25,9.229 C13.25,6.61 15.381,4.479 18,4.479 C20.619,4.479 22.75,6.61 22.75,9.229 C22.75,11.848 20.619,13.979 18,13.979 C15.381,13.979 13.25,11.848 13.25,9.229 L13.25,9.229 Z M28,24.479 C28,20.773 26.102,17.214 23.164,15.415 C22.39,14.941 21.529,14.579 20.631,14.336 C22.481,13.379 23.75,11.451 23.75,9.229 C23.75,6.059 21.171,3.479 18,3.479 C14.829,3.479 12.25,6.059 12.25,9.229 C12.25,11.46 13.529,13.393 15.391,14.346 C14.318,14.652 13.303,15.153 12.351,15.845 L6.5,12.979 L-1.77635684e-15,16.17 L-1.77635684e-15,24.788 L6.5,27.979 L12.618,24.979 L28,24.979 L28,24.479 Z" id="AWS-IQ_32_Squid"></path> </g> </g></svg>