<svg xmlns="http://www.w3.org/2000/svg" xmlns:xlink="http://www.w3.org/1999/xlink" xmlns:svg="http://www.w3.org/2000/svg" xmlns:rdf="http://www.w3.org/1999/02/22-rdf-syntax-ns#" xmlns:dc="http://purl.org/dc/elements/1.1/" version="1.1" viewBox="0 0 279.2 187.5">
  <defs>
    <clipPath id="clippath">
      <rect x="108" y="30.5" width="57.4" height="57.3" fill="none"/>
    </clipPath>
  </defs>
  <g>
    <path d="M33.3,154.5c2.3,0,4.4.5,5.5,1.6.2,1.7-1.3,4.4-2.3,4.4-1.1-.4-2.2-.7-3.5-.7-5.5,0-8.2,5.6-8.2,11.2s1.2,5.6,4,5.6,5.9-2,7.6-3.5c.4.3,1,1.3,1,2.3s-.4,2.3-1.4,3.4c-1.9,1.9-5.2,3.5-9.8,3.5s-9.1-3.1-9.1-10.2c0-9.4,6.2-17.8,16.3-17.8h0Z" fill="#373535"/>
    <path d="M51,176.4c2.9,0,8.3-5.2,9.8-15,0-.6.1-.8.2-1.4-.7-.2-1.6-.4-2.5-.4-2.2,0-4.5.7-6.5,3.4-2.1,2.9-3,6.6-3,9.5s.7,3.8,1.9,3.8h0ZM41.3,173.7c0-3.5,1.2-9.7,5.7-14.2,3.8-4,8.5-4.9,12.8-4.9s6.7.9,9.1,1.4c-.6,2.6-2,12.6-2.7,18.4-.3,2.5-.4,5.9-.3,7.1-2,.8-5.7,1.1-6.7,1.1s-.7-2.5-.5-4.8c0-.8.2-1.9.2-2.4-2.3,3.9-7,7.2-11.8,7.2s-5.8-2.9-5.8-8.8h0Z" fill="#373535"/>
    <path d="M83.8,154.5c2.5,0,4.8.9,5.9,2,0,1.7-1.4,4.5-3.5,3.7-.9-.3-1.8-.5-3-.5s-3,.7-3,2.2.8,2,4.9,4.8c2.9,2.1,4,4,4,6.6,0,4.4-4.1,9.1-11.3,9.1s-5.5-1.1-6.4-2.3c-1.1-1.8-.2-5.3,1-4.7,1.6.8,4.1,1.6,6.2,1.6s3.2-.9,3.2-2.1-.9-1.9-4.6-4.5c-3.1-2.3-4-4.4-4-6.8,0-5,4.3-9.1,10.5-9.1h0Z" fill="#373535"/>
    <path d="M104.5,154.5c2.5,0,4.8.9,5.9,2,0,1.7-1.4,4.5-3.5,3.7-.9-.3-1.8-.5-3-.5s-3,.7-3,2.2.8,2,4.9,4.8c2.9,2.1,4,4,4,6.6,0,4.4-4.1,9.1-11.3,9.1s-5.5-1.1-6.4-2.3c-1.1-1.8-.2-5.3,1-4.7,1.6.8,4.1,1.6,6.2,1.6s3.2-.9,3.2-2.1-.9-1.9-4.6-4.5c-3.1-2.3-4-4.4-4-6.8,0-5,4.3-9.1,10.5-9.1h0Z" fill="#373535"/>
    <path d="M123.4,176.4c2.9,0,8.3-5.2,9.8-15,0-.6.1-.8.2-1.4-.7-.2-1.6-.4-2.5-.4-2.2,0-4.5.7-6.5,3.4-2.1,2.9-3,6.6-3,9.5s.7,3.8,1.9,3.8h0ZM113.7,173.7c0-3.5,1.2-9.7,5.7-14.2,3.8-4,8.5-4.9,12.8-4.9s6.7.9,9.1,1.4c-.6,2.6-2,12.6-2.7,18.4-.3,2.5-.4,5.9-.3,7.1-2,.8-5.7,1.1-6.7,1.1s-.7-2.5-.5-4.8c0-.8.2-1.9.2-2.4-2.3,3.9-7,7.2-11.8,7.2s-5.8-2.9-5.8-8.8h0Z" fill="#373535"/>
    <path d="M154.8,162.3c2.8-4.4,6.4-7.8,11.4-7.8s5.6,4,4.9,9.6c-.4,2.6-1.1,6.4-1.6,9.9-.4,2.9-.7,5.6-.7,7.4-1.6.8-6.1,1.1-7.1,1.1s-.5-3.3,0-6.8c.5-2.9,1.5-8.1,2-11.1.3-1.7.2-3.8-1.4-3.8s-7.5,3.5-10.1,18.1c-.2,1.2-.7,1.9-1.3,2.3-.9.5-2.8,1-6.7,1.1.7-3.7,1.9-11.2,2.7-16.7.8-5,1.1-8.3.9-9.5,1-.4,6.4-1.5,7-1.5s.8,1.9.2,6.4c0,.4-.1,1.1-.2,1.4h.2Z" fill="#373535"/>
    <path d="M185.3,176.3c2.6,0,8-4.9,9.5-13.6,0-.5.2-1.4.4-1.9-.8-.7-1.8-1.2-3.4-1.2-6.1,0-8.8,7.3-8.8,12.5s1,4.3,2.3,4.3h0ZM181.3,182.5c-3.8,0-6.2-3.4-6.2-9.3,0-9.7,6.1-18.7,16.3-18.7s3.4.5,4.4,1.1c.5-2.8,1.8-11.3,1.9-13.8,1.7-.3,5.3-.8,6.9-.8s.8.7.6,2.2c-1.4,9-4,26.3-4.5,30.1-.4,3.2-.4,6.4-.4,8.2-1.9.8-5.8,1-6.8,1s-.7-2.8-.5-5.2c0-.8.2-1.9.2-2.1-3,4.9-7.1,7.3-11.7,7.3h0Z" fill="#373535"/>
    <path d="M216.5,163.2c3.2-7.1,7-8.6,9.4-8.6s2,.5,2.5,1.1c.2,2-1.3,5.9-2.7,7.4-.7-.4-1.6-.7-2.6-.7-2,0-6.1,3.2-8.6,16.9-.2,1.1-.5,1.6-1.2,1.9-1,.6-5,1.1-7,1.1.9-4.9,2.5-14.9,3.1-20.8.2-1.5.2-4.3.1-5.3,1.1-.5,5.6-1.6,6.7-1.6s1,3.3.1,8.6h.2Z" fill="#373535"/>
    <path d="M237.7,176.4c2.9,0,8.3-5.2,9.8-15,0-.6.1-.8.2-1.4-.7-.2-1.6-.4-2.5-.4-2.2,0-4.5.7-6.5,3.4-2.1,2.9-3,6.6-3,9.5s.7,3.8,1.9,3.8h0ZM228,173.7c0-3.5,1.2-9.7,5.7-14.2,3.8-4,8.5-4.9,12.8-4.9s6.7.9,9.1,1.4c-.6,2.6-2,12.6-2.7,18.4-.3,2.5-.4,5.9-.3,7.1-2,.8-5.7,1.1-6.7,1.1s-.7-2.5-.5-4.8c0-.8.2-1.9.2-2.4-2.3,3.9-7,7.2-11.8,7.2s-5.8-2.9-5.8-8.8h0Z" fill="#373535"/>
  </g>
  <path d="M220,52.8c2,23.1-34.3,45-81.1,49-46.8,4-86.3-11.4-88.2-34.5-2-23.1,34.3-45,81.1-49,46.8-4,86.3,11.4,88.2,34.5" fill="#bbe6fb"/>
  <path d="M133.2,21c-17.8-.3-38.7,6.8-54.2,13.4-1.6,4.7-2.5,9.6-2.5,14.7,0,27.4,24.7,49.5,55.2,49.5s55.2-22.2,55.2-49.5-2.5-16.8-6.8-23.9c-12.4-1.9-29.5-4-46.8-4.3" fill="#fff"/>
  <path d="M106.3,44.1c1.2-2.7,3-4,4.8-6.2-.2-.5-.6-2.3-.6-2.9,0-2.7,2.2-4.9,4.9-4.9s1.2.1,1.8.3c8.1-6.2,18.7-8.8,29.4-6.5,1,.2,1.9.5,2.9.8-10.6-1.5-22.5,2.3-30.6,8.8.2.6.9,2.3.9,2.9,0,2.7-1.7,3.4-4.4,3.4s-1.2-.1-1.7-.3c-1.8,2.5-4.1,7.1-5.2,10.1,4.5,4,8.5,5.5,13.8,7.4,0-.3.2-.5.2-.7,0-8.1,7.2-14.7,15.3-14.7s13.3,5.3,14.5,12.2c3.6-2.3,7.2-4.1,9.8-7.5-.6-.8-1.3-2.9-1.3-4,0-2.4,2-4.4,4.4-4.4s.7,0,1,.1c1.4-2.8,2.4-5.8,3-8.8-12.7-9.4-37.3-8.1-37.3-8.1,0,0-19.6-1-32.8,5.4.9,6.4,3.4,12.5,7.2,17.6" fill="#373535"/>
  <path d="M167.1,40.4c.9.8,1.4,1.5,1.8,2.2,1.2,2.1-1.2,4.1-3.6,4.1s-.5,0-.7,0c-2.8,4.3-7.6,9.8-11.9,12.6,6.6,1.1,12.8,3.7,17.7,7.8,3.6-6.4,6.4-15.7,6.4-23.6s-2.7-10.4-6.7-13.7c-.2,3.2-1.9,7.7-2.9,10.7" fill="#373535"/>
  <path d="M113.7,81.2c2.2-6.1,7.6-10.7,12.7-14.9-.7-1-1.9-3.6-2.3-4.7-6.2-1.9-11.7-5.4-16-10.1,0,.1,0,.3-.1.4-.8,3.6-1,7.2-.6,10.7,3,.6,5.2,3.2,5.2,6.3s-1.6,4.6-2.9,5.7c1.4,3,2.3,4.4,4,6.6" fill="#373535"/>
  <path d="M113.3,86.3c-2.6-2.6-4.4-7.8-6.1-11-.3,0-.6,0-1,0-3.5,0-7.3-3-6.4-6.4.5-1.9,1.8-3.2,3.9-4.2-.5-3.9-.6-9.6.3-13.7.3-1.2.8-1.7,1.2-2.8-3.9-5.7-6.4-13.2-6.4-20.7s0-.5,0-.8c-6.6,3.3-11.6,8.5-11.6,16.8,0,18.2,10.5,36,26.1,43h0" fill="#373535"/>
  <path d="M151.6,61.1c-2,5.7-7.5,9.8-13.9,9.8s-6.6-1.2-9.1-3.2c-5.2,4-9.8,11.1-12.2,17.2,1.1,1.1,1.8,2.1,3,3.1,3.6.9,8.6,0,12.5,0,15.7,0,29.6-7,37.6-19.2-5.3-3.7-11.6-7.2-17.9-7.8" fill="#373535"/>
  <path d="M105.9,46.2c1.2-2.7,2.7-5.2,4.5-7.4-.2-.5-.3-1.1-.3-1.7,0-2.7,2.2-4.9,4.9-4.9s1.2.1,1.8.3c8.1-6.2,18.7-8.8,29.4-6.5,1,.2,1.9.5,2.9.8-10.6-1.5-21.5,1.8-29.6,8.3.2.6.4,1.2.4,1.9,0,2.7-2.2,4.9-4.9,4.9s-1.2-.1-1.7-.3c-1.8,2.5-3.3,5.2-4.4,8.1,3.8,4.1,8.6,7.4,13.8,9.4,0-.3,0-.5,0-.8,0-8.1,6.6-14.7,14.7-14.7s13.3,5.3,14.5,12.2c3.6-2.3,6.9-5.3,9.5-8.7-.6-.8-1-1.7-1-2.8,0-2.4,2-4.4,4.4-4.4s.7,0,1,.1c1.4-2.8,2.4-5.8,3-8.8-12.7-9.4-37.3-8.1-37.3-8.1,0,0-19.6-1-32.8,5.4.9,6.4,3.4,12.5,7.2,17.6" fill="#1287b1"/>
  <path d="M167.7,41.1c.9.8,1.5,2,1.5,3.3,0,2.4-2,4.4-4.4,4.4s-.5,0-.7,0c-2.8,4.3-6.4,8-10.7,10.8,6.3,1,12.3,3.7,17.2,7.8,3.6-6.4,5.6-13.9,5.6-21.8s-2.7-10.4-6.7-13.7c-.2,3.2-.8,6.3-1.8,9.3" fill="#1287b1"/>
  <path d="M114.4,82.6c2.2-6.1,6-11.5,11.1-15.6-.7-1-1.4-2.1-1.8-3.3-6.2-1.9-11.7-5.4-16-10.1,0,.1,0,.3-.1.4-.8,3.6-1,7.2-.6,10.7,3,.6,5.2,3.2,5.2,6.3s-.8,3.5-2.1,4.7c1.1,2.4,2.6,4.8,4.2,6.9" fill="#1287b1"/>
  <path d="M113.3,86.2c-2.6-2.6-4.8-5.6-6.5-8.8-.3,0-.6,0-1,0-3.5,0-6.4-2.9-6.4-6.4s1.5-4.7,3.6-5.8c-.5-3.9-.3-8,.6-12.1.3-1.2.6-2.3,1-3.4-3.9-5.7-6.2-12.6-6.2-20.1s0-.5,0-.8c-6.6,3.3-11.6,8.5-11.6,16.8,0,18.2,10.9,33.8,26.4,40.8h0" fill="#1287b1"/>
  <path d="M151.2,63.2c-2,5.7-7.5,9.8-13.9,9.8s-6.6-1.2-9.1-3.2c-5.2,4-9.1,9.5-11.4,15.6,1.1,1.1,2.2,2.2,3.4,3.2,3.6.9,7.4,1.4,11.3,1.4,15.7,0,29.5-8.1,37.5-20.4-5.3-3.7-11.5-6-17.8-6.6" fill="#1287b1"/>
  <g clip-path="url(#clippath)">
    <polygon points="151.7 59.5 165.3 56.2 151.7 55.5 162.8 47 150.2 51.5 158.7 39.7 146.9 47.5 151.1 33.6 142.9 45.1 142.7 30.6 137.4 43.5 132.9 30.5 133.2 45.8 125.5 32.1 129.6 46.7 117.1 37.6 126.9 49.9 111.4 44.2 123.7 53.2 108 53.7 124 57.9 108 61.3 123.8 62.5 110.4 71.1 124.2 66.1 114.7 78.2 126.7 68.4 122.4 84.7 131.7 71.5 130.4 87.1 135.7 72.9 140.2 87.8 141.3 72.9 148 85.6 144 71 156.3 80.5 148.4 68.4 161.8 73.7 151.5 63.6 165.3 64.7 151.7 59.5" fill="#fff"/>
  </g>
  <path d="M7,85.5C49.1,43.3,82.8,30.3,113.4,24.3c4-.8,4.8-9.6,4.8-9.6,0,0,.6,6.5,3.4,7.4,2.8.9,6.5-10.2,6.5-10.2,0,0-3.4,9.9,0,10.5,3.4.6,9.6-9.6,9.6-9.6,0,0-2.5,8.8-.8,9.3,1.7.6,10.2-12.7,10.2-12.7,0,0-5.1,8.8-.3,9.6,4.8.8,11.8-6,11.8-6,0,0-5.5,6.3-3.1,7.1,10.5,3.7,18.9-9.9,18.9-9.9,0,0-2,6-7.1,12.5,11,2.8,19.2-13.8,19.2-13.8l-8.2,16.6c4.2,2.3,21.2-17.3,21.2-17.3,0,0-8.8,15.3-13.9,18.4,2.8,2.3,13-6.8,13-6.8,0,0-8.2,10.2-5.1,10.8,4.5,3.7,21.2-19,21.2-19,0,0-6.5,13.3-16.1,23.8,8,4,28-21.8,28-21.8,0,0-.6,8.2-15,21.2,10.8-1.4,24.6-21.8,24.6-21.8,0,0-5.1,15.3-17.3,26,10.6-1.1,27.5-27.2,27.5-27.2,0,0-6.5,18.1-19.8,28.6,14.7,3.3,35.9-18.7,35.9-18.7,0,0-8.3,15.6-19.2,21.9,12.2,4.7,28.9-14.6,28.9-14.6,0,0-16.7,25.8-43.3,24.6-8.7-.4-35.1-26.5-91.7-24.3C62.7,32.3,46.9,64,7,85.5" fill="#373535"/>
  <path d="M8.7,82.3C50.9,40.1,84.5,27.1,115.1,21.1c4-.8,4.8-9.6,4.8-9.6,0,0,.6,6.5,3.4,7.4,2.8.8,6.5-10.2,6.5-10.2,0,0-3.4,9.9,0,10.5,3.4.6,9.6-9.6,9.6-9.6,0,0-2.5,8.8-.8,9.3,1.7.6,10.2-12.7,10.2-12.7,0,0-5.1,8.8-.3,9.6,4.8.9,11.8-6,11.8-6,0,0-5.5,6.3-3.1,7.1,10.5,3.7,18.9-9.9,18.9-9.9,0,0-2,6-7.1,12.5,11,2.8,19.2-13.8,19.2-13.8l-8.2,16.6c4.2,2.3,21.2-17.3,21.2-17.3,0,0-8.8,15.3-13.9,18.4,2.8,2.3,13-6.8,13-6.8,0,0-8.2,10.2-5.1,10.8,4.5,3.7,21.2-19,21.2-19,0,0-6.5,13.3-16.1,23.8,8,4,28-21.8,28-21.8,0,0-.6,8.2-15,21.2,10.8-1.4,24.6-21.8,24.6-21.8,0,0-5.1,15.3-17.3,26,10.6-1.1,27.5-27.2,27.5-27.2,0,0-6.5,18.1-19.8,28.6,14.7,3.3,35.9-18.7,35.9-18.7,0,0-8.3,15.6-19.2,21.9,12.2,4.7,28.9-14.6,28.9-14.6,0,0-16.7,25.8-43.3,24.6-8.7-.4-35.1-26.5-91.7-24.3C64.4,29.1,48.6,60.8,8.7,82.3" fill="#373535"/>
  <path d="M5.8,90.1c22.3,11.2,42.7-1.7,68.4,5.5,19.5,5.5,43.3,12.3,75.6,7.6,32.3-4.7,59.9-18.7,73-43.7,4.1-11.2,20.8,2.5,20.8,2.5,0,0-12.2-5.1-11.9-2.7.3,2.4,18.3,10.8,18.3,10.8,0,0-16.3-5.1-15.3-1.3,1,3.8,20.4,19.1,20.4,19.1,0,0-21.9-16.7-23.8-14.4-1.8,2.3,9.3,11.5,9.3,11.5,0,0-18.5-11.5-25.1-8.1-4.7,2.4,19.2,18.1,19.2,18.1,0,0-15.6-11.9-19.2-8.8-3.7,3.1,17.5,28.6,17.5,28.6,0,0-24.1-26-26.5-24.8-2.4,1.3,6.7,13.7,6.7,13.7,0,0-11.9-13-15.1-10.8-3.3,2.3,17,36.1,17,36.1,0,0-21.9-34.7-31-28.9,14.2,31.2,8.9,35.7,8.9,35.7,0,0-1.8-31.8-19.5-31-8.9.4,4.2,23.8,4.2,23.8,0,0-12.1-21.3-20.2-20.9,14.9,28.1,9.6,39.6,9.6,39.6,0,0,2.5-24-17.7-37.4,7.6,6.8-4.8,37.4-4.8,37.4,0,0,10.9-45.1-8.1-36.5-3,1.4-.2,22.5-.2,22.5,0,0-3.8-24.2-9.6-22.9-3.3.7-21.2,33.5-21.2,33.5,0,0,14.6-35.5,10.2-34-3.2,1.1-9.3,15.7-9.3,15.7,0,0,3-14.4,0-15.3-3-.8-19.5,15.3-19.5,15.3,0,0,12.3-14.4,10.2-17.4-3.2-4.5-7-4.7-11.5-3-6.5,2.5-15.3,14.4-15.3,14.4,0,0,8.7-12,7.2-16.6-2.5-7.2-27.6,14-27.6,14,0,0,14.9-14,11.5-17-3.4-3-21.8-2.1-27.6-2.1-17,0-22.9-4-28-8.1" fill="#373535"/>
</svg>