<svg width="101" height="102" viewBox="0 0 101 102" fill="none" xmlns="http://www.w3.org/2000/svg">
<g clip-path="url(#clip0_42_113)">
<path d="M61.6408 29.2296C57.9882 30.0826 54.25 30.5104 50.4999 30.5046C46.75 30.5085 43.012 30.0807 39.3591 29.2296C42.3458 24.4736 46.1126 20.2597 50.4999 16.7664C54.8839 20.2633 58.6502 24.4766 61.6408 29.2296ZM95.2219 1.81707C90.6539 0.606468 85.9489 -0.00424717 81.2245 0.000195164C70.2881 -0.010347 59.5948 3.24011 50.4999 9.33957C41.4068 3.2366 30.7124 -0.0141867 19.7754 0.000195164C15.0191 -0.0125421 10.2815 0.598242 5.68272 1.81707C3.75618 2.30152 1.85918 2.89752 0.00121236 3.60207C-0.0323721 3.64226 -0.0507812 3.69304 -0.0507812 3.74551C-0.0507813 3.79797 -0.0323721 3.84876 0.00121236 3.88895C0.793567 5.60121 1.67287 7.27153 2.63565 8.89332C2.67291 8.91937 2.71722 8.93334 2.76261 8.93334C2.80801 8.93334 2.85232 8.91937 2.88957 8.89332C4.77003 8.20914 6.68821 7.63444 8.63456 7.17207C21.2066 4.29935 34.3983 6.44825 45.4215 13.1646C40.6521 17.2142 36.5961 22.0417 33.4237 27.4446C32.7889 28.4646 32.2493 29.5164 31.678 30.6321C31.1067 31.7477 30.9797 32.0664 30.6305 32.8314C30.2814 33.5964 29.6466 35.1264 29.234 36.2739C25.4608 46.4594 24.7395 57.5313 27.1592 68.1236C29.5789 78.7159 35.0337 88.365 42.8505 95.8802C43.6758 96.6771 44.5328 97.4421 45.4215 98.2071C46.3102 98.9721 46.8181 99.3864 47.5481 99.9283C48.2781 100.47 49.4208 101.331 50.373 101.968C50.4102 101.994 50.4545 102.008 50.4999 102.008C50.5453 102.008 50.5896 101.994 50.6269 101.968C51.5791 101.299 52.5313 100.63 53.4518 99.9283C54.3723 99.2271 54.8801 98.8127 55.5784 98.2071C56.2767 97.6014 57.3241 96.6771 58.1493 95.8802C63.5504 90.6853 67.8479 84.4457 70.7828 77.5377C73.7176 70.6296 75.2289 63.1963 75.2256 55.6858C75.237 49.0595 74.0652 42.4849 71.7659 36.2739C71.3215 35.0946 70.8454 33.9471 70.3376 32.7996C69.8298 31.6521 69.6393 31.3014 69.2902 30.6002C68.941 29.8989 68.1793 28.4964 67.5445 27.4127C64.3677 22.013 60.3122 17.1862 55.5466 13.1327C66.5959 6.45161 79.7996 4.34834 92.3653 7.2677C94.3122 7.72826 96.2304 8.30299 98.1103 8.98895C98.1476 9.015 98.1919 9.02896 98.2373 9.02896C98.2827 9.02896 98.327 9.015 98.3642 8.98895C99.2953 7.37395 100.163 5.71645 100.967 4.01645C101.001 3.97626 101.019 3.92547 101.019 3.87301C101.019 3.82054 101.001 3.76976 100.967 3.72957C99.0893 2.98393 97.1713 2.34542 95.2219 1.81707Z" fill="#151F34"/>
<path d="M69.2584 55.6851C69.2775 68.3598 64.4485 80.5578 55.7688 89.7594C54.2585 84.932 53.4879 79.902 53.4835 74.8419C53.4611 62.1666 58.2905 49.9674 66.9731 40.7676C68.4853 45.5946 69.2559 50.6248 69.2584 55.6851Z" fill="#348540"/>
<path d="M47.6113 74.8419C47.6123 79.9024 46.8416 84.9333 45.326 89.7594C39.2757 83.34 35.046 75.4116 33.0758 66.7969C31.1056 58.1821 31.4668 49.1949 34.1217 40.7676C42.8043 49.9674 47.6338 62.1666 47.6113 74.8419Z" fill="#7DBC42"/>
</g>
<defs>
<clipPath id="clip0_42_113">
<rect width="101" height="102" fill="white"/>
</clipPath>
</defs>
</svg>