<svg width="125" height="152" viewBox="0 0 125 152" fill="none" xmlns="http://www.w3.org/2000/svg">
<path d="M1.90234 38.7379C4.21768 45.4282 10.4193 51.3451 19.0964 55.8651C30.2562 61.6783 45.6387 65.2589 62.6023 65.2589C79.566 65.2589 94.9484 61.6783 106.108 55.8651C114.785 51.3451 120.987 45.4282 123.302 38.7379V119.12C123.302 127.643 116.661 135.482 105.646 141.219C94.6561 146.944 79.4386 150.5 62.6023 150.5C45.7661 150.5 30.5486 146.944 19.5584 141.219C8.54381 135.482 1.90234 127.643 1.90234 119.12V38.7379Z" fill="#00B39F" stroke="white"/>
<path d="M1.90234 32.8795C1.90234 24.3569 8.54381 16.5183 19.5584 10.7807C30.5486 5.05586 45.7661 1.5 62.6023 1.5C79.4386 1.5 94.6561 5.05586 105.646 10.7807C116.661 16.5183 123.302 24.3569 123.302 32.8795C123.302 41.4021 116.661 49.2407 105.646 54.9783C94.6561 60.7032 79.4386 64.259 62.6023 64.259C45.7661 64.259 30.5486 60.7032 19.5584 54.9783C8.54381 49.2407 1.90234 41.4021 1.90234 32.8795Z" fill="#00B39F" stroke="white"/>
<path d="M123.802 32.8795C123.802 50.4861 96.4022 64.759 62.6023 64.759C28.8025 64.759 1.40234 50.4861 1.40234 32.8795M123.802 32.8795C123.802 15.273 96.4022 1 62.6023 1C28.8025 1 1.40234 15.273 1.40234 32.8795M123.802 32.8795V119.121C123.802 136.727 96.4022 151 62.6023 151C28.8025 151 1.40234 136.727 1.40234 119.121V32.8795" stroke="white" stroke-miterlimit="10" stroke-linejoin="round"/>
</svg>
