<svg width="40" height="40" viewBox="0 0 40 40" fill="none" xmlns="http://www.w3.org/2000/svg">
<g clip-path="url(#clip0_23293_2676)">
<path d="M40 0H0V40H40V0Z" fill="#8C4FFF" fill-opacity="0.12"/>
<path fill-rule="evenodd" clip-rule="evenodd" d="M9.88643 31.1073H10.8908C10.8908 27.064 13.5171 22.9313 33 22.9313V21.9247C12.6323 21.9247 9.88643 26.5668 9.88643 31.1073ZM12.7729 34H13.7772C13.7772 30.3604 13.7772 24.8598 33 24.8598V23.8532C14.3346 23.8532 12.7729 28.8657 12.7729 34ZM8.00433 13.7497H7C7 17.3048 11.7876 19.5604 21.2333 20.4995C11.7876 21.4386 7 23.6952 7 27.2492H8.00433C8.00433 24.9171 11.2513 21.0028 33 21.0028V19.9962C11.2513 19.9962 8.00433 16.0829 8.00433 13.7497ZM10.8908 9.89275H9.88643C9.88643 14.4332 12.6323 19.0743 33 19.0743V18.0677C13.5171 18.0677 10.8908 13.9349 10.8908 9.89275ZM33 16.1392V17.1458C14.3346 17.1458 12.7729 12.1333 12.7729 7H13.7772C13.7772 10.6396 13.7772 16.1392 33 16.1392Z" fill="#8C4FFF"/>
</g>
<rect x="0.5" y="0.5" width="39" height="39" stroke="#8C4FFF"/>
<defs>
<clipPath id="clip0_23293_2676">
<rect width="40" height="40" fill="white"/>
</clipPath>
</defs>
</svg>
