<svg width="40" height="40" viewBox="0 0 40 40" fill="none" xmlns="http://www.w3.org/2000/svg">
<g clip-path="url(#clip0_23295_3141)">
<path d="M40 0H0V40H40V0Z" fill="#7AA116" fill-opacity="0.12"/>
<path fill-rule="evenodd" clip-rule="evenodd" d="M7.04669 18H11.1087C11.3067 16.29 11.9967 14.61 13.0457 13.329L13.0437 8.015C9.55169 10.226 7.36269 13.929 7.04669 18ZM32.9987 19H33.9987C33.9987 22.976 32.2997 26.778 29.3357 29.432C26.9927 31.53 24.1147 32.735 21.0437 32.956V33H20.0537C20.0427 33 20.0317 33.001 20.0217 33.001C19.4867 33.001 18.9487 32.972 18.4067 32.912C11.9697 32.201 6.78769 27.012 6.08469 20.573C5.46369 14.878 8.29669 9.433 13.3047 6.702L14.0437 6.298L14.0467 19H13.0467L13.0457 15.118C12.4087 16.29 12.0437 17.659 12.0437 19C12.0437 23.411 15.6327 27 20.0437 27C24.4547 27 28.0437 23.411 28.0437 19H29.0437C29.0437 23.962 25.0067 28 20.0437 28C15.0807 28 11.0437 23.962 11.0437 19H7.04369V18.046C6.98469 18.842 6.98969 19.65 7.07869 20.465C7.73169 26.441 12.5417 31.258 18.5167 31.918C19.0287 31.975 19.5377 31.996 20.0437 31.995V28H21.0437V31.95C23.8687 31.731 26.5127 30.618 28.6687 28.687C31.4207 26.223 32.9987 22.691 32.9987 19ZM33.0437 17H34.0437V10H33.0437V17ZM28.0437 17H29.0437V6H28.0437V17ZM23.0437 22H24.0437V12H23.0437V22ZM18.0437 24H19.0437V9H18.0437V24Z" fill="#7AA116"/>
</g>
<rect x="0.5" y="0.5" width="39" height="39" stroke="#7AA116"/>
<defs>
<clipPath id="clip0_23295_3141">
<rect width="40" height="40" fill="white"/>
</clipPath>
</defs>
</svg>
<svg width="40" height="40" viewBox="0 0 40 40" fill="none" xmlns="http://www.w3.org/2000/svg">
<g clip-path="url(#clip0_23295_3141)">
<path d="M40 0H0V40H40V0Z" fill="#7AA116" fill-opacity="0.12"/>
<path fill-rule="evenodd" clip-rule="evenodd" d="M7.04669 18H11.1087C11.3067 16.29 11.9967 14.61 13.0457 13.329L13.0437 8.015C9.55169 10.226 7.36269 13.929 7.04669 18ZM32.9987 19H33.9987C33.9987 22.976 32.2997 26.778 29.3357 29.432C26.9927 31.53 24.1147 32.735 21.0437 32.956V33H20.0537C20.0427 33 20.0317 33.001 20.0217 33.001C19.4867 33.001 18.9487 32.972 18.4067 32.912C11.9697 32.201 6.78769 27.012 6.08469 20.573C5.46369 14.878 8.29669 9.433 13.3047 6.702L14.0437 6.298L14.0467 19H13.0467L13.0457 15.118C12.4087 16.29 12.0437 17.659 12.0437 19C12.0437 23.411 15.6327 27 20.0437 27C24.4547 27 28.0437 23.411 28.0437 19H29.0437C29.0437 23.962 25.0067 28 20.0437 28C15.0807 28 11.0437 23.962 11.0437 19H7.04369V18.046C6.98469 18.842 6.98969 19.65 7.07869 20.465C7.73169 26.441 12.5417 31.258 18.5167 31.918C19.0287 31.975 19.5377 31.996 20.0437 31.995V28H21.0437V31.95C23.8687 31.731 26.5127 30.618 28.6687 28.687C31.4207 26.223 32.9987 22.691 32.9987 19ZM33.0437 17H34.0437V10H33.0437V17ZM28.0437 17H29.0437V6H28.0437V17ZM23.0437 22H24.0437V12H23.0437V22ZM18.0437 24H19.0437V9H18.0437V24Z" fill="#7AA116"/>
</g>
<rect x="0.5" y="0.5" width="39" height="39" stroke="#7AA116"/>
<defs>
<clipPath id="clip0_23295_3141">
<rect width="40" height="40" fill="white"/>
</clipPath>
</defs>
</svg>
