<svg width="40" height="40" viewBox="0 0 40 40" fill="none" xmlns="http://www.w3.org/2000/svg">
<g clip-path="url(#clip0_23296_3648)">
<path d="M40 0H0V40H40V0Z" fill="#01A88D" fill-opacity="0.12"/>
<path fill-rule="evenodd" clip-rule="evenodd" d="M16.0016 23.9967H23.9913V15.9832H16.0016V23.9967ZM14.9972 24.3503V15.6296C14.9972 15.2711 15.2895 14.9788 15.6481 14.9788H24.3439C24.7035 14.9788 24.9958 15.2711 24.9958 15.6296V24.3503C24.9958 24.7089 24.7035 25.0011 24.3439 25.0011H15.6481C15.2895 25.0011 14.9972 24.7089 14.9972 24.3503ZM33.9357 14.9989H28.0354V16.0033H32.9955V32.9956H16.0027V28.0356H14.9982V33.4335L15.0615 34H33.4335L34 33.9357V15.5644L33.9357 14.9989ZM7.00448 23.9967H11.9636V25.0011H6.06831L6 24.4306V6.06931L6.57055 6H24.9325L25.0018 6.57153V11.9644H23.9973V7.00445H7.00448V23.9967Z" fill="#01A88D"/>
</g>
<rect x="0.5" y="0.5" width="39" height="39" stroke="#01A88D"/>
<defs>
<clipPath id="clip0_23296_3648">
<rect width="40" height="40" fill="white"/>
</clipPath>
</defs>
</svg>
