<svg width="90" height="90" viewBox="0 0 90 90" fill="none" xmlns="http://www.w3.org/2000/svg">
<path fill-rule="evenodd" clip-rule="evenodd" d="M24.9362 2.70386H30.9399V4.30386V5.90386H26.5162V10.4296H24.9162H23.3162V4.32386C23.3162 3.42916 24.0415 2.70386 24.9362 2.70386ZM33.9417 4.30386V2.70386H45.9492V4.30386V5.90386H33.9417V4.30386ZM48.951 4.30386V2.70386H60.9585V4.30386V5.90386H48.951V4.30386ZM63.9603 4.30386V2.70386H75.9678V4.30386V5.90386H63.9603V4.30386ZM78.9697 4.30386V2.70386H84.9734C85.8681 2.70386 86.5934 3.42916 86.5934 4.32386V10.4296H84.9934H83.3934V5.90386H78.9697V4.30386ZM84.9934 13.4825H86.5934V25.6941H84.9934H83.3934V13.4825H84.9934ZM84.9934 28.747H86.5934V40.9585H84.9934H83.3934V28.747H84.9934ZM84.9934 44.0114H86.5934V56.223H84.9934H83.3934V44.0114H84.9934ZM84.9934 59.2759H86.5934V65.3817C86.5934 66.2764 85.8681 67.0017 84.9734 67.0017H78.9696V65.4017V63.8017H83.3934V59.2759H84.9934ZM20.9399 12.7039H14.9362C14.0415 12.7039 13.3162 13.4292 13.3162 14.3239V20.4296H14.9162H16.5162V15.9039H20.9399V14.3039V12.7039ZM23.9417 12.7039V14.3039V15.9039H35.9492V14.3039V12.7039H23.9417ZM38.951 12.7039V14.3039V15.9039H50.9585V14.3039V12.7039H38.951ZM53.9603 12.7039V14.3039V15.9039H65.9678V14.3039V12.7039H53.9603ZM68.9697 12.7039V14.3039V15.9039H73.3934V20.4296H74.9934H76.5934V14.3239C76.5934 13.4292 75.8681 12.7039 74.9734 12.7039H68.9697ZM76.5934 23.4825H74.9934H73.3934V35.6941H74.9934H76.5934V23.4825ZM76.5934 38.747H74.9934H73.3934V50.9585H74.9934H76.5934V38.747ZM76.5934 54.0114H74.9934H73.3934V66.223H74.9934H76.5934V54.0114ZM76.5934 69.2759H74.9934H73.3934V73.8017H68.9696V75.4017V77.0017H74.9734C75.8681 77.0017 76.5934 76.2764 76.5934 75.3817V69.2759ZM3.40625 22.9985H66.6834V49.0675C66.5354 49.022 66.3782 48.9975 66.2152 48.9975H51.886V43.5938C51.886 42.1346 50.0866 41.4441 49.1104 42.5287L38.5154 54.301C37.9704 54.9065 37.9704 55.8257 38.5154 56.4312L49.1104 68.2035C50.0866 69.2881 51.886 68.5976 51.886 67.1384V61.7346H66.2152C66.3782 61.7346 66.5354 61.7102 66.6834 61.6647V87.2962H3.40625V22.9985Z" fill="white"/>
</svg>
