<svg width="40" height="40" viewBox="0 0 40 40" fill="none" xmlns="http://www.w3.org/2000/svg">
<g clip-path="url(#clip0_23295_3210)">
<path d="M40 0H0V40H40V0Z" fill="#ED7100" fill-opacity="0.12"/>
<path fill-rule="evenodd" clip-rule="evenodd" d="M14.163 26.544L13.456 25.837L7 32.293V29H6V33.5C6 33.776 6.224 34 6.5 34H11V33H7.707L14.163 26.544ZM33.5 6H29V7H32.293L26.146 13.147L26.853 13.854L33 7.707V11H34V6.5C34 6.224 33.776 6 33.5 6ZM22 30H30V22H22V30ZM31 21.5V30.5C31 30.776 30.776 31 30.5 31H21.5C21.224 31 21 30.776 21 30.5V21.5C21 21.224 21.224 21 21.5 21H30.5C30.776 21 31 21.224 31 21.5ZM10 18H18V10H10V18ZM19 9.5V18.5C19 18.776 18.776 19 18.5 19H9.5C9.224 19 9 18.776 9 18.5V9.5C9 9.224 9.224 9 9.5 9H18.5C18.776 9 19 9.224 19 9.5ZM18.5 21H9.5C9.224 21 9 21.224 9 21.5V28.172L10 27.172V22H18V30H12.828L11.828 31H18.5C18.776 31 19 30.776 19 30.5V21.5C19 21.224 18.776 21 18.5 21ZM30 12.828L31 11.828V18.5C31 18.776 30.776 19 30.5 19H21.5C21.224 19 21 18.776 21 18.5V9.5C21 9.224 21.224 9 21.5 9H28.172L27.172 10H22V18H30V12.828Z" fill="#ED7100"/>
</g>
<rect x="0.5" y="0.5" width="39" height="39" stroke="#ED7100"/>
<defs>
<clipPath id="clip0_23295_3210">
<rect width="40" height="40" fill="white"/>
</clipPath>
</defs>
</svg>
