<svg width="40" height="40" viewBox="0 0 40 40" fill="none" xmlns="http://www.w3.org/2000/svg">
<g clip-path="url(#clip0_23310_9549)">
<path d="M40 0H0V40H40V0Z" fill="#DD344C" fill-opacity="0.12"/>
<path fill-rule="evenodd" clip-rule="evenodd" d="M25 24H29V25H25V27H29V28H25V30H24V28V27V25V24V22H25V24ZM33 26.961L32.284 26.92C32.048 26.914 31.821 27.071 31.769 27.31C31.621 27.962 31.364 28.582 31.005 29.153C30.875 29.36 30.913 29.63 31.095 29.793L31.63 30.27L30.27 31.629L29.795 31.097C29.632 30.914 29.362 30.876 29.154 31.007C28.587 31.366 27.966 31.623 27.31 31.771C27.071 31.825 26.907 32.043 26.921 32.288L26.961 33H25.039L25.079 32.287C25.093 32.043 24.929 31.825 24.69 31.771C24.036 31.623 23.415 31.365 22.847 31.005C22.64 30.876 22.368 30.913 22.206 31.096L21.73 31.629L20.37 30.27L20.904 29.794C21.087 29.631 21.125 29.361 20.994 29.154C20.636 28.586 20.379 27.965 20.23 27.309C20.177 27.07 19.963 26.914 19.715 26.92L19 26.961V25.039L19.718 25.08C19.963 25.097 20.18 24.93 20.233 24.691C20.382 24.037 20.64 23.417 20.998 22.85C21.129 22.643 21.091 22.372 20.908 22.209L20.37 21.73L21.73 20.371L22.209 20.907C22.371 21.09 22.642 21.128 22.849 20.998C23.418 20.639 24.037 20.383 24.69 20.235C24.929 20.182 25.093 19.963 25.079 19.719L25.039 19H26.961L26.921 19.72C26.907 19.964 27.071 20.182 27.31 20.236C27.963 20.384 28.582 20.641 29.149 20.999C29.356 21.129 29.627 21.091 29.789 20.909L30.27 20.37L31.63 21.73L31.093 22.208C30.91 22.371 30.872 22.642 31.003 22.849C31.361 23.416 31.619 24.035 31.768 24.691C31.821 24.93 32.048 25.097 32.283 25.08L33 25.039V26.961ZM33.844 24.146C33.743 24.051 33.615 24.005 33.472 24.01L32.636 24.058C32.496 23.579 32.305 23.118 32.065 22.681L32.69 22.124C32.793 22.032 32.854 21.902 32.857 21.765C32.861 21.627 32.809 21.494 32.711 21.397L30.603 19.289C30.506 19.192 30.381 19.139 30.234 19.143C30.098 19.146 29.968 19.207 29.876 19.31L29.316 19.937C28.88 19.698 28.42 19.507 27.942 19.368L27.989 18.528C27.997 18.391 27.948 18.256 27.854 18.157C27.759 18.057 27.628 18 27.49 18H24.51C24.372 18 24.241 18.057 24.146 18.157C24.052 18.256 24.003 18.391 24.011 18.528L24.058 19.366C23.58 19.506 23.12 19.696 22.683 19.936L22.124 19.31C22.032 19.207 21.902 19.147 21.766 19.143C21.641 19.143 21.495 19.192 21.397 19.289L19.289 21.397C19.191 21.494 19.139 21.627 19.143 21.765C19.146 21.902 19.207 22.032 19.31 22.124L19.937 22.683C19.696 23.12 19.505 23.58 19.365 24.058L18.528 24.01C18.398 24.005 18.257 24.051 18.156 24.146C18.057 24.24 18 24.372 18 24.509V27.491C18 27.628 18.057 27.76 18.156 27.854C18.257 27.949 18.412 27.998 18.528 27.99L19.362 27.942C19.502 28.422 19.692 28.883 19.933 29.321L19.31 29.876C19.207 29.968 19.146 30.098 19.143 30.235C19.139 30.373 19.191 30.506 19.289 30.603L21.397 32.711C21.494 32.808 21.637 32.868 21.766 32.857C21.903 32.853 22.032 32.793 22.124 32.69L22.679 32.067C23.117 32.308 23.578 32.5 24.058 32.64L24.011 33.472C24.003 33.609 24.052 33.744 24.146 33.843C24.241 33.943 24.372 34 24.51 34H27.49C27.628 34 27.759 33.943 27.854 33.843C27.948 33.744 27.997 33.609 27.989 33.472L27.942 32.641C28.423 32.5 28.884 32.309 29.322 32.069L29.876 32.69C29.968 32.793 30.098 32.853 30.234 32.857C30.384 32.871 30.506 32.809 30.603 32.711L32.711 30.603C32.809 30.506 32.861 30.373 32.857 30.235C32.854 30.098 32.793 29.968 32.69 29.876L32.066 29.32C32.307 28.881 32.498 28.42 32.637 27.942L33.472 27.99C33.615 27.998 33.743 27.949 33.844 27.854C33.943 27.76 34 27.628 34 27.491V24.509C34 24.372 33.943 24.24 33.844 24.146ZM15.52 17.767L11.732 21.554C11.639 21.647 11.512 21.7 11.379 21.7C11.246 21.7 11.119 21.647 11.025 21.554L9.133 19.661L9.84 18.954L11.379 20.493L14.812 17.06L15.52 17.767ZM15.52 10.544L11.732 14.331C11.639 14.424 11.512 14.477 11.379 14.477C11.246 14.477 11.119 14.424 11.025 14.331L9.133 12.437L9.84 11.73L11.379 13.27L14.812 9.837L15.52 10.544ZM14.572 25.866L12.796 27.643L14.572 29.419L13.865 30.126L12.089 28.35L10.312 30.126L9.605 29.419L11.382 27.643L9.605 25.866L10.312 25.159L12.089 26.936L13.865 25.159L14.572 25.866ZM24.927 10H22V7.383L24.927 10ZM7 7H21V10.5C21 10.776 21.224 11 21.5 11H26V17H27V10.735C27 10.593 26.939 10.458 26.833 10.363L22.096 6.127C22.067 6.102 22.033 6.087 22 6.069V6H21.763H21H6.5C6.224 6 6 6.224 6 6.5V33.5C6 33.776 6.224 34 6.5 34H20V33H7V7Z" fill="#DD344C"/>
</g>
<rect x="0.5" y="0.5" width="39" height="39" stroke="#DD344C"/>
<defs>
<clipPath id="clip0_23310_9549">
<rect width="40" height="40" fill="white"/>
</clipPath>
</defs>
</svg>
