<svg width="313" height="256" viewBox="0 0 313 256" fill="none" xmlns="http://www.w3.org/2000/svg">
<path d="M0 8C0 3.58172 3.58172 0 8 0H305C309.418 0 313 3.58172 313 8V248.001C313 252.42 309.418 256.001 305 256.001H8.00001C3.58173 256.001 0 252.42 0 248.001V8Z" fill="#F6F8F8"/>
<path d="M30.8795 26.6953C30.4417 26.5308 30.6889 25.8652 31.1267 26.0299C32.6164 26.5952 33.6259 28.0409 33.6259 29.6725V45.3021C33.6259 46.9267 34.8332 48.2862 36.4077 48.458C36.8666 48.5081 36.7888 49.2237 36.3301 49.1666C34.4028 48.9519 32.92 47.2774 32.92 45.2948L32.9197 29.6723C32.9197 28.3412 32.0867 27.1533 30.8795 26.6953ZM24.0098 36.3781L24.5392 37.3084L25.1181 38.3244C25.2592 38.5678 25.0829 38.8611 24.8145 38.8611L24.0097 38.8613V47.0195C25.4359 47.2986 25.9937 49.1022 24.9487 50.154C23.798 51.3135 21.8281 50.4834 21.8281 48.8374C21.8281 47.9428 22.4565 47.1843 23.3036 47.0126V38.8543H22.4988C22.2376 38.8543 22.0399 38.5681 22.2093 38.289L22.7741 37.3014L23.3035 36.3711V33.6016C23.3035 33.1294 24.0095 33.1294 24.0095 33.6016L24.0098 36.3781ZM43.2415 36.3781L44.35 38.3247C44.4911 38.568 44.3148 38.8613 44.0464 38.8613H43.2415V40.5932C43.2415 41.0654 42.5355 41.0654 42.5355 40.5932V38.8613H41.7308C41.4696 38.8613 41.2718 38.5678 41.4412 38.3032L42.5355 36.3853V33.3652C40.3469 33.0717 39.4149 30.3451 40.9894 28.7422C41.3989 28.3271 41.9354 28.0481 42.5355 27.9692V25.8654H36.9085C36.5837 25.8654 36.4143 25.4503 36.6967 25.2214L42.6625 20.0833C42.8886 19.8901 43.2414 20.0546 43.2414 20.3553V27.9698C44.5617 28.1488 45.5713 29.2937 45.5713 30.6677C45.5713 32.0489 44.5546 33.1869 43.2414 33.3656L43.2415 36.3781Z" fill="#647176"/>
<path d="M21.4933 23.3652C19.5022 25.3834 19.5022 28.6609 21.4933 30.6788C23.4844 32.697 26.7177 32.697 28.7084 30.6788C30.6995 28.6605 30.6995 25.3831 28.7084 23.3652C26.7174 21.347 23.484 21.347 21.4933 23.3652ZM39.2916 43.1743C37.3005 45.1925 37.3005 48.4699 39.2916 50.4878C41.2826 52.506 44.516 52.506 46.5067 50.4878C48.4978 48.4696 48.4978 45.1922 46.5067 43.1743C44.5228 41.156 41.2894 41.156 39.2916 43.1743ZM22.6721 26.815C22.4391 26.4071 23.0532 26.0492 23.2793 26.4571L24.1689 28.0242L26.9718 25.1831C27.2966 24.8466 27.7979 25.3548 27.4732 25.6913L24.3455 28.8616C24.1832 29.0261 23.9077 28.9904 23.7878 28.79L22.6721 26.815ZM40.4773 46.624C40.2444 46.2162 40.8585 45.8583 41.0845 46.2661L41.9741 47.8333L44.777 44.9921C45.1018 44.6629 45.6031 45.1638 45.2784 45.5003L42.1507 48.6706C41.9884 48.8351 41.7129 48.7994 41.593 48.599L40.4773 46.624Z" fill="#293B43"/>
<path d="M62.1094 35.7969H66.375V41.5312C65.776 41.7292 65.1562 41.8828 64.5156 41.9922C63.875 42.1016 63.1562 42.1562 62.3594 42.1562C61.1979 42.1562 60.2135 41.9271 59.4062 41.4688C58.6042 41.0052 57.9948 40.3359 57.5781 39.4609C57.1615 38.5807 56.9531 37.5208 56.9531 36.2812C56.9531 35.0885 57.1849 34.0547 57.6484 33.1797C58.112 32.2995 58.7865 31.6198 59.6719 31.1406C60.5573 30.6562 61.6302 30.4141 62.8906 30.4141C63.5104 30.4141 64.1094 30.4766 64.6875 30.6016C65.2708 30.7214 65.8047 30.888 66.2891 31.1016L65.6328 32.6484C65.2474 32.4661 64.8151 32.3125 64.3359 32.1875C63.8568 32.0625 63.3594 32 62.8438 32C62.026 32 61.3203 32.1771 60.7266 32.5312C60.138 32.8854 59.6849 33.3854 59.3672 34.0312C59.0495 34.6719 58.8906 35.4297 58.8906 36.3047C58.8906 37.1536 59.0182 37.8984 59.2734 38.5391C59.5286 39.1797 59.9271 39.6797 60.4688 40.0391C61.0156 40.3932 61.7214 40.5703 62.5859 40.5703C63.0182 40.5703 63.3854 40.5469 63.6875 40.5C63.9896 40.4531 64.2682 40.401 64.5234 40.3438V37.3984H62.1094V35.7969ZM75.5781 42H69.1094V30.5781H75.5781V32.1562H70.9844V35.2578H75.2891V36.8281H70.9844V40.4141H75.5781V42ZM82.0078 42H80.125V32.1719H76.7812V30.5781H85.3438V32.1719H82.0078V42ZM97.8438 38.8906C97.8438 39.5677 97.6771 40.151 97.3438 40.6406C97.0156 41.1302 96.5417 41.5052 95.9219 41.7656C95.3073 42.026 94.5729 42.1562 93.7188 42.1562C93.3021 42.1562 92.9036 42.1328 92.5234 42.0859C92.1432 42.0391 91.7839 41.9714 91.4453 41.8828C91.112 41.7891 90.8073 41.6771 90.5312 41.5469V39.7812C90.9948 39.9844 91.513 40.1693 92.0859 40.3359C92.6589 40.4974 93.2422 40.5781 93.8359 40.5781C94.3203 40.5781 94.7214 40.5156 95.0391 40.3906C95.362 40.2604 95.6016 40.0781 95.7578 39.8438C95.9141 39.6042 95.9922 39.3255 95.9922 39.0078C95.9922 38.6693 95.901 38.3828 95.7188 38.1484C95.5365 37.9141 95.2604 37.7005 94.8906 37.5078C94.526 37.3099 94.0677 37.099 93.5156 36.875C93.1406 36.724 92.7812 36.5521 92.4375 36.3594C92.099 36.1667 91.7969 35.9401 91.5312 35.6797C91.2656 35.4193 91.0547 35.112 90.8984 34.7578C90.7474 34.3984 90.6719 33.9766 90.6719 33.4922C90.6719 32.8464 90.8255 32.2943 91.1328 31.8359C91.4453 31.3776 91.8828 31.026 92.4453 30.7812C93.013 30.5365 93.6745 30.4141 94.4297 30.4141C95.0286 30.4141 95.5911 30.4766 96.1172 30.6016C96.6484 30.7266 97.1693 30.9036 97.6797 31.1328L97.0859 32.6406C96.6172 32.4479 96.1615 32.2943 95.7188 32.1797C95.2812 32.0651 94.8333 32.0078 94.375 32.0078C93.9792 32.0078 93.6432 32.0677 93.3672 32.1875C93.0911 32.3073 92.8802 32.4766 92.7344 32.6953C92.5938 32.9089 92.5234 33.1641 92.5234 33.4609C92.5234 33.7943 92.6042 34.0755 92.7656 34.3047C92.9323 34.5286 93.1875 34.7344 93.5312 34.9219C93.8802 35.1094 94.3281 35.3177 94.875 35.5469C95.5052 35.8073 96.0391 36.0807 96.4766 36.3672C96.9193 36.6536 97.2578 36.9974 97.4922 37.3984C97.7266 37.7943 97.8438 38.2917 97.8438 38.8906ZM104.008 42H102.125V32.1719H98.7812V30.5781H107.344V32.1719H104.008V42ZM116.172 42L115.055 38.8281H110.688L109.57 42H107.594L111.844 30.5312H113.922L118.164 42H116.172ZM114.57 37.2188L113.484 34.0938C113.443 33.9583 113.383 33.7682 113.305 33.5234C113.227 33.2734 113.148 33.0208 113.07 32.7656C112.992 32.5052 112.927 32.2865 112.875 32.1094C112.823 32.3229 112.758 32.5625 112.68 32.8281C112.607 33.0885 112.534 33.3333 112.461 33.5625C112.393 33.7917 112.341 33.9688 112.305 34.0938L111.211 37.2188H114.57ZM122.883 30.5781C123.867 30.5781 124.68 30.6979 125.32 30.9375C125.966 31.1771 126.445 31.5417 126.758 32.0312C127.076 32.5208 127.234 33.1432 127.234 33.8984C127.234 34.4609 127.13 34.9401 126.922 35.3359C126.714 35.7318 126.44 36.0599 126.102 36.3203C125.763 36.5807 125.401 36.7891 125.016 36.9453L128.258 42H126.141L123.383 37.4219H121.547V42H119.672V30.5781H122.883ZM122.758 32.1406H121.547V35.875H122.844C123.714 35.875 124.344 35.7135 124.734 35.3906C125.13 35.0677 125.328 34.5911 125.328 33.9609C125.328 33.2995 125.117 32.8307 124.695 32.5547C124.279 32.2786 123.633 32.1406 122.758 32.1406ZM133.852 42H131.969V32.1719H128.625V30.5781H137.188V32.1719H133.852V42ZM145.406 42H138.938V30.5781H145.406V32.1562H140.812V35.2578H145.117V36.8281H140.812V40.4141H145.406V42ZM157.148 36.1797C157.148 37.4661 156.909 38.5417 156.43 39.4062C155.951 40.2656 155.255 40.9141 154.344 41.3516C153.432 41.7839 152.333 42 151.047 42H147.875V30.5781H151.391C152.573 30.5781 153.594 30.7917 154.453 31.2188C155.312 31.6406 155.977 32.2682 156.445 33.1016C156.914 33.9297 157.148 34.9557 157.148 36.1797ZM155.195 36.2344C155.195 35.2969 155.047 34.526 154.75 33.9219C154.458 33.3177 154.026 32.8698 153.453 32.5781C152.885 32.2812 152.185 32.1328 151.352 32.1328H149.75V40.4297H151.078C152.458 40.4297 153.49 40.0781 154.172 39.375C154.854 38.6719 155.195 37.625 155.195 36.2344Z" fill="#000D12"/>
<path d="M25.3037 83.9072C25.3037 85.0329 25.0986 85.974 24.6885 86.7305C24.2783 87.4824 23.6836 88.0498 22.9043 88.4326C22.1296 88.8109 21.1885 89 20.0811 89H17.3672V79.0059H20.3818C21.3981 79.0059 22.2731 79.1927 23.0068 79.5664C23.7406 79.9355 24.3057 80.4847 24.7021 81.2139C25.1032 81.9385 25.3037 82.8363 25.3037 83.9072ZM24.0801 83.9482C24.0801 83.0505 23.9297 82.3099 23.6289 81.7266C23.3327 81.1432 22.8952 80.7103 22.3164 80.4277C21.7422 80.1406 21.0381 79.9971 20.2041 79.9971H18.5293V88.002H19.9443C21.3206 88.002 22.3529 87.6624 23.041 86.9834C23.7337 86.3044 24.0801 85.2926 24.0801 83.9482ZM33.8145 85.2402C33.8145 85.8555 33.7347 86.4046 33.5752 86.8877C33.4157 87.3708 33.1855 87.7786 32.8848 88.1113C32.584 88.444 32.2194 88.6992 31.791 88.877C31.3672 89.0501 30.8864 89.1367 30.3486 89.1367C29.8473 89.1367 29.387 89.0501 28.9678 88.877C28.5531 88.6992 28.193 88.444 27.8877 88.1113C27.5869 87.7786 27.3522 87.3708 27.1836 86.8877C27.0195 86.4046 26.9375 85.8555 26.9375 85.2402C26.9375 84.4199 27.0765 83.7227 27.3545 83.1484C27.6325 82.5697 28.029 82.1299 28.5439 81.8291C29.0635 81.5238 29.681 81.3711 30.3965 81.3711C31.0801 81.3711 31.6771 81.5238 32.1875 81.8291C32.7025 82.1344 33.1012 82.5765 33.3838 83.1553C33.6709 83.7295 33.8145 84.4245 33.8145 85.2402ZM28.1133 85.2402C28.1133 85.8418 28.193 86.3636 28.3525 86.8057C28.512 87.2477 28.7581 87.5895 29.0908 87.8311C29.4235 88.0726 29.8519 88.1934 30.376 88.1934C30.8955 88.1934 31.3216 88.0726 31.6543 87.8311C31.9915 87.5895 32.2399 87.2477 32.3994 86.8057C32.5589 86.3636 32.6387 85.8418 32.6387 85.2402C32.6387 84.6432 32.5589 84.1283 32.3994 83.6953C32.2399 83.2578 31.9938 82.9206 31.6611 82.6836C31.3285 82.4466 30.8978 82.3281 30.3691 82.3281C29.5898 82.3281 29.0179 82.5856 28.6533 83.1006C28.2933 83.6156 28.1133 84.3288 28.1133 85.2402ZM39.3242 81.3711C40.2129 81.3711 40.8851 81.5898 41.3408 82.0273C41.7965 82.4603 42.0244 83.1576 42.0244 84.1191V89H40.9033V84.1943C40.9033 83.57 40.7598 83.1029 40.4727 82.793C40.1901 82.4831 39.7549 82.3281 39.167 82.3281C38.3376 82.3281 37.7542 82.5628 37.417 83.0322C37.0798 83.5016 36.9111 84.1829 36.9111 85.0762V89H35.7764V81.5078H36.6924L36.8633 82.5879H36.9248C37.0843 82.3236 37.2871 82.1025 37.5332 81.9248C37.7793 81.7425 38.055 81.6058 38.3604 81.5146C38.6657 81.4189 38.987 81.3711 39.3242 81.3711ZM45.2578 79.0059L45.3604 79.1562C45.2783 79.4889 45.1735 79.8467 45.0459 80.2295C44.9183 80.6077 44.7793 80.986 44.6289 81.3643C44.4785 81.7425 44.3281 82.098 44.1777 82.4307H43.3438C43.4121 82.1709 43.4805 81.8929 43.5488 81.5967C43.6217 81.3005 43.6901 80.9997 43.7539 80.6943C43.8177 80.389 43.8747 80.0928 43.9248 79.8057C43.9795 79.5186 44.0251 79.252 44.0615 79.0059H45.2578ZM49.1611 88.207C49.348 88.207 49.5394 88.1911 49.7354 88.1592C49.9313 88.1273 50.0908 88.0885 50.2139 88.043V88.9248C50.0817 88.984 49.8971 89.0342 49.6602 89.0752C49.4277 89.1162 49.1999 89.1367 48.9766 89.1367C48.5801 89.1367 48.2201 89.0684 47.8965 88.9316C47.5729 88.7904 47.3132 88.5534 47.1172 88.2207C46.9258 87.888 46.8301 87.4277 46.8301 86.8398V82.3965H45.7637V81.8428L46.8369 81.3984L47.2881 79.7715H47.9717V81.5078H50.166V82.3965H47.9717V86.8057C47.9717 87.2751 48.0788 87.626 48.293 87.8584C48.5117 88.0908 48.8011 88.207 49.1611 88.207ZM56.4961 78.3633V83.8867C56.4961 84.069 56.4893 84.2923 56.4756 84.5566C56.4619 84.8164 56.4505 85.0465 56.4414 85.2471H56.4893C56.585 85.1286 56.724 84.9531 56.9062 84.7207C57.0931 84.4883 57.2503 84.3014 57.3779 84.1602L59.8662 81.5078H61.1992L58.1846 84.707L61.418 89H60.0508L57.4053 85.4521L56.4961 86.2861V89H55.3682V78.3633H56.4961ZM66.2715 81.3711C67.1602 81.3711 67.8324 81.5898 68.2881 82.0273C68.7438 82.4603 68.9717 83.1576 68.9717 84.1191V89H67.8506V84.1943C67.8506 83.57 67.707 83.1029 67.4199 82.793C67.1374 82.4831 66.7021 82.3281 66.1143 82.3281C65.2848 82.3281 64.7015 82.5628 64.3643 83.0322C64.027 83.5016 63.8584 84.1829 63.8584 85.0762V89H62.7236V81.5078H63.6396L63.8105 82.5879H63.8721C64.0316 82.3236 64.2344 82.1025 64.4805 81.9248C64.7266 81.7425 65.0023 81.6058 65.3076 81.5146C65.613 81.4189 65.9342 81.3711 66.2715 81.3711ZM77.7695 85.2402C77.7695 85.8555 77.6898 86.4046 77.5303 86.8877C77.3708 87.3708 77.1406 87.7786 76.8398 88.1113C76.5391 88.444 76.1745 88.6992 75.7461 88.877C75.3223 89.0501 74.8415 89.1367 74.3037 89.1367C73.8024 89.1367 73.3421 89.0501 72.9229 88.877C72.5081 88.6992 72.1481 88.444 71.8428 88.1113C71.542 87.7786 71.3073 87.3708 71.1387 86.8877C70.9746 86.4046 70.8926 85.8555 70.8926 85.2402C70.8926 84.4199 71.0316 83.7227 71.3096 83.1484C71.5876 82.5697 71.984 82.1299 72.499 81.8291C73.0186 81.5238 73.6361 81.3711 74.3516 81.3711C75.0352 81.3711 75.6322 81.5238 76.1426 81.8291C76.6576 82.1344 77.0563 82.5765 77.3389 83.1553C77.626 83.7295 77.7695 84.4245 77.7695 85.2402ZM72.0684 85.2402C72.0684 85.8418 72.1481 86.3636 72.3076 86.8057C72.4671 87.2477 72.7132 87.5895 73.0459 87.8311C73.3786 88.0726 73.807 88.1934 74.3311 88.1934C74.8506 88.1934 75.2767 88.0726 75.6094 87.8311C75.9466 87.5895 76.195 87.2477 76.3545 86.8057C76.514 86.3636 76.5938 85.8418 76.5938 85.2402C76.5938 84.6432 76.514 84.1283 76.3545 83.6953C76.195 83.2578 75.9489 82.9206 75.6162 82.6836C75.2835 82.4466 74.8529 82.3281 74.3242 82.3281C73.5449 82.3281 72.973 82.5856 72.6084 83.1006C72.2484 83.6156 72.0684 84.3288 72.0684 85.2402ZM85.8291 88.9863L84.4961 84.625C84.4368 84.4382 84.3799 84.2559 84.3252 84.0781C84.2751 83.8958 84.2272 83.7227 84.1816 83.5586C84.1406 83.39 84.1019 83.235 84.0654 83.0938C84.0335 82.9479 84.0062 82.8226 83.9834 82.7178H83.9355C83.9173 82.8226 83.8923 82.9479 83.8604 83.0938C83.8285 83.235 83.7897 83.39 83.7441 83.5586C83.7031 83.7272 83.6576 83.9049 83.6074 84.0918C83.5573 84.2741 83.5003 84.4587 83.4365 84.6455L82.042 88.9863H80.7637L78.6992 81.4941H79.875L80.9551 85.6299C81.028 85.9033 81.0964 86.1745 81.1602 86.4434C81.2285 86.7077 81.2855 86.9583 81.3311 87.1953C81.3812 87.4277 81.4176 87.6305 81.4404 87.8037H81.4951C81.5225 87.6898 81.5521 87.5531 81.584 87.3936C81.6204 87.234 81.6592 87.0654 81.7002 86.8877C81.7458 86.7054 81.7936 86.5254 81.8438 86.3477C81.8939 86.1654 81.944 85.9945 81.9941 85.835L83.375 81.4941H84.5986L85.9316 85.8281C86 86.0469 86.0661 86.2747 86.1299 86.5117C86.1982 86.7487 86.2598 86.9788 86.3145 87.2021C86.3691 87.4209 86.4079 87.6169 86.4307 87.79H86.4854C86.5036 87.6351 86.5378 87.4437 86.5879 87.2158C86.638 86.988 86.695 86.7373 86.7588 86.4639C86.8271 86.1904 86.8978 85.9124 86.9707 85.6299L88.0645 81.4941H89.2197L87.1484 88.9863H85.8291ZM100.321 88.9863L98.9883 84.625C98.929 84.4382 98.8721 84.2559 98.8174 84.0781C98.7673 83.8958 98.7194 83.7227 98.6738 83.5586C98.6328 83.39 98.5941 83.235 98.5576 83.0938C98.5257 82.9479 98.4984 82.8226 98.4756 82.7178H98.4277C98.4095 82.8226 98.3844 82.9479 98.3525 83.0938C98.3206 83.235 98.2819 83.39 98.2363 83.5586C98.1953 83.7272 98.1497 83.9049 98.0996 84.0918C98.0495 84.2741 97.9925 84.4587 97.9287 84.6455L96.5342 88.9863H95.2559L93.1914 81.4941H94.3672L95.4473 85.6299C95.5202 85.9033 95.5885 86.1745 95.6523 86.4434C95.7207 86.7077 95.7777 86.9583 95.8232 87.1953C95.8734 87.4277 95.9098 87.6305 95.9326 87.8037H95.9873C96.0146 87.6898 96.0443 87.5531 96.0762 87.3936C96.1126 87.234 96.1514 87.0654 96.1924 86.8877C96.238 86.7054 96.2858 86.5254 96.3359 86.3477C96.3861 86.1654 96.4362 85.9945 96.4863 85.835L97.8672 81.4941H99.0908L100.424 85.8281C100.492 86.0469 100.558 86.2747 100.622 86.5117C100.69 86.7487 100.752 86.9788 100.807 87.2021C100.861 87.4209 100.9 87.6169 100.923 87.79H100.978C100.996 87.6351 101.03 87.4437 101.08 87.2158C101.13 86.988 101.187 86.7373 101.251 86.4639C101.319 86.1904 101.39 85.9124 101.463 85.6299L102.557 81.4941H103.712L101.641 88.9863H100.321ZM106.214 78.3633V81.542C106.214 81.7243 106.209 81.9089 106.2 82.0957C106.191 82.278 106.175 82.4466 106.152 82.6016H106.228C106.382 82.3372 106.578 82.1162 106.815 81.9385C107.057 81.7562 107.33 81.6195 107.636 81.5283C107.941 81.4326 108.265 81.3848 108.606 81.3848C109.208 81.3848 109.709 81.4805 110.11 81.6719C110.516 81.8633 110.819 82.1595 111.02 82.5605C111.225 82.9616 111.327 83.4811 111.327 84.1191V89H110.206V84.1943C110.206 83.57 110.062 83.1029 109.775 82.793C109.493 82.4831 109.058 82.3281 108.47 82.3281C107.914 82.3281 107.469 82.4352 107.137 82.6494C106.809 82.859 106.572 83.1689 106.426 83.5791C106.285 83.9893 106.214 84.4906 106.214 85.083V89H105.079V78.3633H106.214ZM116.55 81.3711C117.188 81.3711 117.735 81.5124 118.19 81.7949C118.646 82.0775 118.995 82.474 119.236 82.9844C119.478 83.4902 119.599 84.0827 119.599 84.7617V85.4658H114.424C114.438 86.3454 114.656 87.0153 115.08 87.4756C115.504 87.9359 116.101 88.166 116.871 88.166C117.345 88.166 117.764 88.1227 118.129 88.0361C118.493 87.9495 118.872 87.8219 119.264 87.6533V88.6514C118.885 88.82 118.509 88.943 118.136 89.0205C117.767 89.098 117.329 89.1367 116.823 89.1367C116.103 89.1367 115.474 88.9909 114.937 88.6992C114.403 88.403 113.989 87.9701 113.692 87.4004C113.396 86.8307 113.248 86.1335 113.248 85.3086C113.248 84.502 113.382 83.8047 113.651 83.2168C113.925 82.6243 114.308 82.1686 114.8 81.8496C115.297 81.5306 115.88 81.3711 116.55 81.3711ZM116.536 82.3008C115.93 82.3008 115.447 82.499 115.087 82.8955C114.727 83.292 114.513 83.8457 114.444 84.5566H118.409C118.405 84.11 118.334 83.7181 118.197 83.3809C118.065 83.0391 117.862 82.7747 117.589 82.5879C117.315 82.3965 116.965 82.3008 116.536 82.3008ZM124.931 81.3711C125.081 81.3711 125.238 81.3802 125.402 81.3984C125.566 81.4121 125.712 81.4326 125.84 81.46L125.696 82.5127C125.573 82.4808 125.437 82.4557 125.286 82.4375C125.136 82.4193 124.994 82.4102 124.862 82.4102C124.562 82.4102 124.277 82.4717 124.008 82.5947C123.743 82.7132 123.511 82.8864 123.311 83.1143C123.11 83.3376 122.953 83.6087 122.839 83.9277C122.725 84.2422 122.668 84.5931 122.668 84.9805V89H121.526V81.5078H122.47L122.593 82.8887H122.641C122.796 82.6107 122.982 82.3577 123.201 82.1299C123.42 81.8975 123.673 81.7129 123.96 81.5762C124.252 81.4395 124.575 81.3711 124.931 81.3711ZM130.14 81.3711C130.778 81.3711 131.325 81.5124 131.78 81.7949C132.236 82.0775 132.585 82.474 132.826 82.9844C133.068 83.4902 133.188 84.0827 133.188 84.7617V85.4658H128.014C128.027 86.3454 128.246 87.0153 128.67 87.4756C129.094 87.9359 129.691 88.166 130.461 88.166C130.935 88.166 131.354 88.1227 131.719 88.0361C132.083 87.9495 132.462 87.8219 132.854 87.6533V88.6514C132.475 88.82 132.099 88.943 131.726 89.0205C131.356 89.098 130.919 89.1367 130.413 89.1367C129.693 89.1367 129.064 88.9909 128.526 88.6992C127.993 88.403 127.578 87.9701 127.282 87.4004C126.986 86.8307 126.838 86.1335 126.838 85.3086C126.838 84.502 126.972 83.8047 127.241 83.2168C127.515 82.6243 127.897 82.1686 128.39 81.8496C128.886 81.5306 129.47 81.3711 130.14 81.3711ZM130.126 82.3008C129.52 82.3008 129.037 82.499 128.677 82.8955C128.317 83.292 128.103 83.8457 128.034 84.5566H131.999C131.994 84.11 131.924 83.7181 131.787 83.3809C131.655 83.0391 131.452 82.7747 131.179 82.5879C130.905 82.3965 130.554 82.3008 130.126 82.3008ZM141.173 88.207C141.36 88.207 141.551 88.1911 141.747 88.1592C141.943 88.1273 142.103 88.0885 142.226 88.043V88.9248C142.093 88.984 141.909 89.0342 141.672 89.0752C141.439 89.1162 141.212 89.1367 140.988 89.1367C140.592 89.1367 140.232 89.0684 139.908 88.9316C139.585 88.7904 139.325 88.5534 139.129 88.2207C138.938 87.888 138.842 87.4277 138.842 86.8398V82.3965H137.775V81.8428L138.849 81.3984L139.3 79.7715H139.983V81.5078H142.178V82.3965H139.983V86.8057C139.983 87.2751 140.09 87.626 140.305 87.8584C140.523 88.0908 140.813 88.207 141.173 88.207ZM150.203 85.2402C150.203 85.8555 150.123 86.4046 149.964 86.8877C149.804 87.3708 149.574 87.7786 149.273 88.1113C148.973 88.444 148.608 88.6992 148.18 88.877C147.756 89.0501 147.275 89.1367 146.737 89.1367C146.236 89.1367 145.776 89.0501 145.356 88.877C144.942 88.6992 144.582 88.444 144.276 88.1113C143.976 87.7786 143.741 87.3708 143.572 86.8877C143.408 86.4046 143.326 85.8555 143.326 85.2402C143.326 84.4199 143.465 83.7227 143.743 83.1484C144.021 82.5697 144.418 82.1299 144.933 81.8291C145.452 81.5238 146.07 81.3711 146.785 81.3711C147.469 81.3711 148.066 81.5238 148.576 81.8291C149.091 82.1344 149.49 82.5765 149.772 83.1553C150.06 83.7295 150.203 84.4245 150.203 85.2402ZM144.502 85.2402C144.502 85.8418 144.582 86.3636 144.741 86.8057C144.901 87.2477 145.147 87.5895 145.479 87.8311C145.812 88.0726 146.241 88.1934 146.765 88.1934C147.284 88.1934 147.71 88.0726 148.043 87.8311C148.38 87.5895 148.629 87.2477 148.788 86.8057C148.948 86.3636 149.027 85.8418 149.027 85.2402C149.027 84.6432 148.948 84.1283 148.788 83.6953C148.629 83.2578 148.382 82.9206 148.05 82.6836C147.717 82.4466 147.286 82.3281 146.758 82.3281C145.979 82.3281 145.407 82.5856 145.042 83.1006C144.682 83.6156 144.502 84.3288 144.502 85.2402ZM160.648 86.9492C160.648 87.4277 160.528 87.8311 160.286 88.1592C160.049 88.4827 159.707 88.7266 159.261 88.8906C158.819 89.0547 158.29 89.1367 157.675 89.1367C157.151 89.1367 156.697 89.0957 156.314 89.0137C155.932 88.9316 155.597 88.8154 155.31 88.665V87.6191C155.615 87.7695 155.979 87.9062 156.403 88.0293C156.827 88.1523 157.26 88.2139 157.702 88.2139C158.349 88.2139 158.819 88.109 159.11 87.8994C159.402 87.6898 159.548 87.4049 159.548 87.0449C159.548 86.8398 159.489 86.6598 159.37 86.5049C159.256 86.3454 159.062 86.1927 158.789 86.0469C158.516 85.8965 158.137 85.7324 157.654 85.5547C157.176 85.3724 156.761 85.1924 156.41 85.0146C156.064 84.8324 155.795 84.6113 155.604 84.3516C155.417 84.0918 155.323 83.7546 155.323 83.3398C155.323 82.7064 155.578 82.221 156.089 81.8838C156.604 81.542 157.278 81.3711 158.112 81.3711C158.563 81.3711 158.985 81.4167 159.377 81.5078C159.773 81.5944 160.143 81.7129 160.484 81.8633L160.102 82.7725C159.792 82.6403 159.461 82.5286 159.11 82.4375C158.759 82.3464 158.402 82.3008 158.037 82.3008C157.513 82.3008 157.11 82.3874 156.827 82.5605C156.549 82.7337 156.41 82.9707 156.41 83.2715C156.41 83.5039 156.474 83.6953 156.602 83.8457C156.734 83.9961 156.943 84.1374 157.23 84.2695C157.518 84.4017 157.896 84.5566 158.365 84.7344C158.835 84.9076 159.24 85.0876 159.582 85.2744C159.924 85.4567 160.186 85.68 160.368 85.9443C160.555 86.2041 160.648 86.5391 160.648 86.9492ZM164.894 88.207C165.08 88.207 165.272 88.1911 165.468 88.1592C165.664 88.1273 165.823 88.0885 165.946 88.043V88.9248C165.814 88.984 165.63 89.0342 165.393 89.0752C165.16 89.1162 164.932 89.1367 164.709 89.1367C164.312 89.1367 163.952 89.0684 163.629 88.9316C163.305 88.7904 163.046 88.5534 162.85 88.2207C162.658 87.888 162.562 87.4277 162.562 86.8398V82.3965H161.496V81.8428L162.569 81.3984L163.021 79.7715H163.704V81.5078H165.898V82.3965H163.704V86.8057C163.704 87.2751 163.811 87.626 164.025 87.8584C164.244 88.0908 164.534 88.207 164.894 88.207ZM170.267 81.3848C171.16 81.3848 171.823 81.5853 172.256 81.9863C172.689 82.3874 172.905 83.0277 172.905 83.9072V89H172.078L171.859 87.8926H171.805C171.595 88.166 171.376 88.3962 171.148 88.583C170.921 88.7653 170.656 88.9043 170.355 89C170.059 89.0911 169.695 89.1367 169.262 89.1367C168.806 89.1367 168.4 89.057 168.045 88.8975C167.694 88.738 167.416 88.4964 167.211 88.1729C167.01 87.8493 166.91 87.4391 166.91 86.9424C166.91 86.195 167.206 85.6208 167.799 85.2197C168.391 84.8187 169.294 84.5999 170.506 84.5635L171.798 84.5088V84.0508C171.798 83.4036 171.659 82.9502 171.381 82.6904C171.103 82.4307 170.711 82.3008 170.205 82.3008C169.813 82.3008 169.439 82.3577 169.084 82.4717C168.729 82.5856 168.391 82.7201 168.072 82.875L167.724 82.0137C168.061 81.8405 168.448 81.6924 168.886 81.5693C169.323 81.4463 169.784 81.3848 170.267 81.3848ZM171.784 85.3086L170.643 85.3564C169.708 85.3929 169.05 85.5456 168.667 85.8145C168.284 86.0833 168.093 86.4639 168.093 86.9561C168.093 87.3844 168.223 87.7012 168.482 87.9062C168.742 88.1113 169.086 88.2139 169.515 88.2139C170.18 88.2139 170.725 88.0293 171.148 87.6602C171.572 87.291 171.784 86.7373 171.784 85.999V85.3086ZM178.647 81.3711C178.798 81.3711 178.955 81.3802 179.119 81.3984C179.283 81.4121 179.429 81.4326 179.557 81.46L179.413 82.5127C179.29 82.4808 179.153 82.4557 179.003 82.4375C178.853 82.4193 178.711 82.4102 178.579 82.4102C178.278 82.4102 177.993 82.4717 177.725 82.5947C177.46 82.7132 177.228 82.8864 177.027 83.1143C176.827 83.3376 176.67 83.6087 176.556 83.9277C176.442 84.2422 176.385 84.5931 176.385 84.9805V89H175.243V81.5078H176.187L176.31 82.8887H176.357C176.512 82.6107 176.699 82.3577 176.918 82.1299C177.137 81.8975 177.39 81.7129 177.677 81.5762C177.968 81.4395 178.292 81.3711 178.647 81.3711ZM183.392 88.207C183.578 88.207 183.77 88.1911 183.966 88.1592C184.162 88.1273 184.321 88.0885 184.444 88.043V88.9248C184.312 88.984 184.128 89.0342 183.891 89.0752C183.658 89.1162 183.43 89.1367 183.207 89.1367C182.811 89.1367 182.451 89.0684 182.127 88.9316C181.803 88.7904 181.544 88.5534 181.348 88.2207C181.156 87.888 181.061 87.4277 181.061 86.8398V82.3965H179.994V81.8428L181.067 81.3984L181.519 79.7715H182.202V81.5078H184.396V82.3965H182.202V86.8057C182.202 87.2751 182.309 87.626 182.523 87.8584C182.742 88.0908 183.032 88.207 183.392 88.207ZM187.261 87.373L187.35 87.5303C187.268 87.863 187.163 88.2184 187.035 88.5967C186.912 88.9749 186.775 89.3532 186.625 89.7314C186.479 90.1143 186.331 90.472 186.181 90.8047H185.333C185.429 90.4401 185.522 90.055 185.613 89.6494C185.704 89.2484 185.786 88.8519 185.859 88.46C185.937 88.0635 185.998 87.7012 186.044 87.373H187.261ZM194.363 89H193.222V78.3633H194.363V89ZM199.647 81.3711C200.285 81.3711 200.832 81.5124 201.288 81.7949C201.744 82.0775 202.092 82.474 202.334 82.9844C202.576 83.4902 202.696 84.0827 202.696 84.7617V85.4658H197.521C197.535 86.3454 197.754 87.0153 198.178 87.4756C198.602 87.9359 199.199 88.166 199.969 88.166C200.443 88.166 200.862 88.1227 201.227 88.0361C201.591 87.9495 201.969 87.8219 202.361 87.6533V88.6514C201.983 88.82 201.607 88.943 201.233 89.0205C200.864 89.098 200.427 89.1367 199.921 89.1367C199.201 89.1367 198.572 88.9909 198.034 88.6992C197.501 88.403 197.086 87.9701 196.79 87.4004C196.494 86.8307 196.346 86.1335 196.346 85.3086C196.346 84.502 196.48 83.8047 196.749 83.2168C197.022 82.6243 197.405 82.1686 197.897 81.8496C198.394 81.5306 198.978 81.3711 199.647 81.3711ZM199.634 82.3008C199.028 82.3008 198.545 82.499 198.185 82.8955C197.825 83.292 197.61 83.8457 197.542 84.5566H201.507C201.502 84.11 201.432 83.7181 201.295 83.3809C201.163 83.0391 200.96 82.7747 200.687 82.5879C200.413 82.3965 200.062 82.3008 199.634 82.3008ZM207.427 81.3848C208.32 81.3848 208.983 81.5853 209.416 81.9863C209.849 82.3874 210.065 83.0277 210.065 83.9072V89H209.238L209.02 87.8926H208.965C208.755 88.166 208.536 88.3962 208.309 88.583C208.081 88.7653 207.816 88.9043 207.516 89C207.219 89.0911 206.855 89.1367 206.422 89.1367C205.966 89.1367 205.561 89.057 205.205 88.8975C204.854 88.738 204.576 88.4964 204.371 88.1729C204.171 87.8493 204.07 87.4391 204.07 86.9424C204.07 86.195 204.367 85.6208 204.959 85.2197C205.551 84.8187 206.454 84.5999 207.666 84.5635L208.958 84.5088V84.0508C208.958 83.4036 208.819 82.9502 208.541 82.6904C208.263 82.4307 207.871 82.3008 207.365 82.3008C206.973 82.3008 206.6 82.3577 206.244 82.4717C205.889 82.5856 205.551 82.7201 205.232 82.875L204.884 82.0137C205.221 81.8405 205.608 81.6924 206.046 81.5693C206.483 81.4463 206.944 81.3848 207.427 81.3848ZM208.944 85.3086L207.803 85.3564C206.868 85.3929 206.21 85.5456 205.827 85.8145C205.444 86.0833 205.253 86.4639 205.253 86.9561C205.253 87.3844 205.383 87.7012 205.643 87.9062C205.902 88.1113 206.246 88.2139 206.675 88.2139C207.34 88.2139 207.885 88.0293 208.309 87.6602C208.732 87.291 208.944 86.7373 208.944 85.999V85.3086ZM215.808 81.3711C215.958 81.3711 216.115 81.3802 216.279 81.3984C216.443 81.4121 216.589 81.4326 216.717 81.46L216.573 82.5127C216.45 82.4808 216.313 82.4557 216.163 82.4375C216.013 82.4193 215.871 82.4102 215.739 82.4102C215.438 82.4102 215.154 82.4717 214.885 82.5947C214.62 82.7132 214.388 82.8864 214.188 83.1143C213.987 83.3376 213.83 83.6087 213.716 83.9277C213.602 84.2422 213.545 84.5931 213.545 84.9805V89H212.403V81.5078H213.347L213.47 82.8887H213.518C213.673 82.6107 213.859 82.3577 214.078 82.1299C214.297 81.8975 214.55 81.7129 214.837 81.5762C215.129 81.4395 215.452 81.3711 215.808 81.3711ZM221.68 81.3711C222.568 81.3711 223.241 81.5898 223.696 82.0273C224.152 82.4603 224.38 83.1576 224.38 84.1191V89H223.259V84.1943C223.259 83.57 223.115 83.1029 222.828 82.793C222.546 82.4831 222.11 82.3281 221.522 82.3281C220.693 82.3281 220.11 82.5628 219.772 83.0322C219.435 83.5016 219.267 84.1829 219.267 85.0762V89H218.132V81.5078H219.048L219.219 82.5879H219.28C219.44 82.3236 219.643 82.1025 219.889 81.9248C220.135 81.7425 220.41 81.6058 220.716 81.5146C221.021 81.4189 221.342 81.3711 221.68 81.3711ZM233.157 81.3848C234.05 81.3848 234.714 81.5853 235.146 81.9863C235.579 82.3874 235.796 83.0277 235.796 83.9072V89H234.969L234.75 87.8926H234.695C234.486 88.166 234.267 88.3962 234.039 88.583C233.811 88.7653 233.547 88.9043 233.246 89C232.95 89.0911 232.585 89.1367 232.152 89.1367C231.697 89.1367 231.291 89.057 230.936 88.8975C230.585 88.738 230.307 88.4964 230.102 88.1729C229.901 87.8493 229.801 87.4391 229.801 86.9424C229.801 86.195 230.097 85.6208 230.689 85.2197C231.282 84.8187 232.184 84.5999 233.396 84.5635L234.688 84.5088V84.0508C234.688 83.4036 234.549 82.9502 234.271 82.6904C233.993 82.4307 233.602 82.3008 233.096 82.3008C232.704 82.3008 232.33 82.3577 231.975 82.4717C231.619 82.5856 231.282 82.7201 230.963 82.875L230.614 82.0137C230.951 81.8405 231.339 81.6924 231.776 81.5693C232.214 81.4463 232.674 81.3848 233.157 81.3848ZM234.675 85.3086L233.533 85.3564C232.599 85.3929 231.94 85.5456 231.558 85.8145C231.175 86.0833 230.983 86.4639 230.983 86.9561C230.983 87.3844 231.113 87.7012 231.373 87.9062C231.633 88.1113 231.977 88.2139 232.405 88.2139C233.071 88.2139 233.615 88.0293 234.039 87.6602C234.463 87.291 234.675 86.7373 234.675 85.999V85.3086ZM239.269 78.3633V81.0225C239.269 81.3278 239.259 81.624 239.241 81.9111C239.228 82.1982 239.216 82.4215 239.207 82.5811H239.269C239.474 82.2438 239.77 81.959 240.157 81.7266C240.545 81.4941 241.039 81.3779 241.641 81.3779C242.579 81.3779 243.327 81.7038 243.883 82.3555C244.443 83.0026 244.724 83.9665 244.724 85.2471C244.724 86.0902 244.596 86.8011 244.341 87.3799C244.086 87.9587 243.726 88.3962 243.261 88.6924C242.796 88.9886 242.247 89.1367 241.613 89.1367C241.021 89.1367 240.533 89.0273 240.15 88.8086C239.772 88.5853 239.48 88.3141 239.275 87.9951H239.187L238.954 89H238.134V78.3633H239.269ZM241.456 82.3281C240.914 82.3281 240.483 82.4352 240.164 82.6494C239.845 82.859 239.615 83.1781 239.474 83.6064C239.337 84.0303 239.269 84.568 239.269 85.2197V85.2812C239.269 86.2246 239.426 86.9469 239.74 87.4482C240.055 87.945 240.627 88.1934 241.456 88.1934C242.153 88.1934 242.675 87.9382 243.021 87.4277C243.372 86.9173 243.548 86.1882 243.548 85.2402C243.548 84.2741 243.375 83.5472 243.028 83.0596C242.687 82.5719 242.162 82.3281 241.456 82.3281ZM253.166 85.2402C253.166 85.8555 253.086 86.4046 252.927 86.8877C252.767 87.3708 252.537 87.7786 252.236 88.1113C251.936 88.444 251.571 88.6992 251.143 88.877C250.719 89.0501 250.238 89.1367 249.7 89.1367C249.199 89.1367 248.739 89.0501 248.319 88.877C247.905 88.6992 247.545 88.444 247.239 88.1113C246.938 87.7786 246.704 87.3708 246.535 86.8877C246.371 86.4046 246.289 85.8555 246.289 85.2402C246.289 84.4199 246.428 83.7227 246.706 83.1484C246.984 82.5697 247.381 82.1299 247.896 81.8291C248.415 81.5238 249.033 81.3711 249.748 81.3711C250.432 81.3711 251.029 81.5238 251.539 81.8291C252.054 82.1344 252.453 82.5765 252.735 83.1553C253.022 83.7295 253.166 84.4245 253.166 85.2402ZM247.465 85.2402C247.465 85.8418 247.545 86.3636 247.704 86.8057C247.864 87.2477 248.11 87.5895 248.442 87.8311C248.775 88.0726 249.203 88.1934 249.728 88.1934C250.247 88.1934 250.673 88.0726 251.006 87.8311C251.343 87.5895 251.591 87.2477 251.751 86.8057C251.91 86.3636 251.99 85.8418 251.99 85.2402C251.99 84.6432 251.91 84.1283 251.751 83.6953C251.591 83.2578 251.345 82.9206 251.013 82.6836C250.68 82.4466 250.249 82.3281 249.721 82.3281C248.941 82.3281 248.369 82.5856 248.005 83.1006C247.645 83.6156 247.465 84.3288 247.465 85.2402ZM261.314 81.5078V89H260.385L260.221 87.9473H260.159C260.004 88.207 259.804 88.4258 259.558 88.6035C259.312 88.7812 259.034 88.9134 258.724 89C258.418 89.0911 258.092 89.1367 257.746 89.1367C257.154 89.1367 256.657 89.041 256.256 88.8496C255.855 88.6582 255.552 88.362 255.347 87.9609C255.146 87.5599 255.046 87.0449 255.046 86.416V81.5078H256.194V86.334C256.194 86.9583 256.336 87.4255 256.618 87.7354C256.901 88.0407 257.331 88.1934 257.91 88.1934C258.466 88.1934 258.908 88.0885 259.236 87.8789C259.569 87.6693 259.808 87.3617 259.954 86.9561C260.1 86.5459 260.173 86.0446 260.173 85.4521V81.5078H261.314ZM266.134 88.207C266.321 88.207 266.512 88.1911 266.708 88.1592C266.904 88.1273 267.063 88.0885 267.187 88.043V88.9248C267.054 88.984 266.87 89.0342 266.633 89.0752C266.4 89.1162 266.173 89.1367 265.949 89.1367C265.553 89.1367 265.193 89.0684 264.869 88.9316C264.546 88.7904 264.286 88.5534 264.09 88.2207C263.898 87.888 263.803 87.4277 263.803 86.8398V82.3965H262.736V81.8428L263.81 81.3984L264.261 79.7715H264.944V81.5078H267.139V82.3965H264.944V86.8057C264.944 87.2751 265.051 87.626 265.266 87.8584C265.484 88.0908 265.774 88.207 266.134 88.207ZM21.7627 113L18.4062 104.154H18.3516C18.3698 104.341 18.3857 104.569 18.3994 104.838C18.4131 105.107 18.4245 105.401 18.4336 105.72C18.4427 106.034 18.4473 106.355 18.4473 106.684V113H17.3672V103.006H19.0898L22.2549 111.318H22.3027L25.5156 103.006H27.2246V113H26.0762V106.602C26.0762 106.305 26.0807 106.009 26.0898 105.713C26.099 105.412 26.1104 105.13 26.124 104.865C26.1377 104.596 26.1514 104.364 26.165 104.168H26.1104L22.7129 113H21.7627ZM32.6729 105.371C33.3109 105.371 33.8577 105.512 34.3135 105.795C34.7692 106.077 35.1178 106.474 35.3594 106.984C35.6009 107.49 35.7217 108.083 35.7217 108.762V109.466H30.5469C30.5605 110.345 30.7793 111.015 31.2031 111.476C31.627 111.936 32.224 112.166 32.9941 112.166C33.4681 112.166 33.8874 112.123 34.252 112.036C34.6165 111.95 34.9948 111.822 35.3867 111.653V112.651C35.0085 112.82 34.6325 112.943 34.2588 113.021C33.8896 113.098 33.4521 113.137 32.9463 113.137C32.2262 113.137 31.5973 112.991 31.0596 112.699C30.5264 112.403 30.1117 111.97 29.8154 111.4C29.5192 110.831 29.3711 110.133 29.3711 109.309C29.3711 108.502 29.5055 107.805 29.7744 107.217C30.0479 106.624 30.4307 106.169 30.9229 105.85C31.4196 105.531 32.0029 105.371 32.6729 105.371ZM32.6592 106.301C32.0531 106.301 31.57 106.499 31.21 106.896C30.8499 107.292 30.6357 107.846 30.5674 108.557H34.5322C34.5277 108.11 34.457 107.718 34.3203 107.381C34.1882 107.039 33.9854 106.775 33.7119 106.588C33.4385 106.396 33.0876 106.301 32.6592 106.301ZM42.4961 110.949C42.4961 111.428 42.3753 111.831 42.1338 112.159C41.8968 112.483 41.555 112.727 41.1084 112.891C40.6663 113.055 40.1377 113.137 39.5225 113.137C38.9984 113.137 38.5449 113.096 38.1621 113.014C37.7793 112.932 37.4443 112.815 37.1572 112.665V111.619C37.4626 111.77 37.8271 111.906 38.251 112.029C38.6748 112.152 39.1077 112.214 39.5498 112.214C40.1969 112.214 40.6663 112.109 40.958 111.899C41.2497 111.69 41.3955 111.405 41.3955 111.045C41.3955 110.84 41.3363 110.66 41.2178 110.505C41.1038 110.345 40.9102 110.193 40.6367 110.047C40.3633 109.896 39.985 109.732 39.502 109.555C39.0234 109.372 38.6087 109.192 38.2578 109.015C37.9115 108.832 37.6426 108.611 37.4512 108.352C37.2643 108.092 37.1709 107.755 37.1709 107.34C37.1709 106.706 37.4261 106.221 37.9365 105.884C38.4515 105.542 39.126 105.371 39.96 105.371C40.4111 105.371 40.8327 105.417 41.2246 105.508C41.6211 105.594 41.9902 105.713 42.332 105.863L41.9492 106.772C41.6393 106.64 41.3089 106.529 40.958 106.438C40.6071 106.346 40.2493 106.301 39.8848 106.301C39.3607 106.301 38.9574 106.387 38.6748 106.561C38.3968 106.734 38.2578 106.971 38.2578 107.271C38.2578 107.504 38.3216 107.695 38.4492 107.846C38.5814 107.996 38.791 108.137 39.0781 108.27C39.3652 108.402 39.7435 108.557 40.2129 108.734C40.6823 108.908 41.0879 109.088 41.4297 109.274C41.7715 109.457 42.0335 109.68 42.2158 109.944C42.4027 110.204 42.4961 110.539 42.4961 110.949ZM45.4561 102.363V105.542C45.4561 105.724 45.4515 105.909 45.4424 106.096C45.4333 106.278 45.4173 106.447 45.3945 106.602H45.4697C45.6247 106.337 45.8206 106.116 46.0576 105.938C46.2992 105.756 46.5726 105.619 46.8779 105.528C47.1833 105.433 47.5068 105.385 47.8486 105.385C48.4502 105.385 48.9515 105.48 49.3525 105.672C49.7581 105.863 50.0612 106.16 50.2617 106.561C50.4668 106.962 50.5693 107.481 50.5693 108.119V113H49.4482V108.194C49.4482 107.57 49.3047 107.103 49.0176 106.793C48.735 106.483 48.2998 106.328 47.7119 106.328C47.1559 106.328 46.7116 106.435 46.3789 106.649C46.0508 106.859 45.8138 107.169 45.668 107.579C45.5267 107.989 45.4561 108.491 45.4561 109.083V113H44.3213V102.363H45.4561ZM55.792 105.371C56.43 105.371 56.9769 105.512 57.4326 105.795C57.8883 106.077 58.237 106.474 58.4785 106.984C58.7201 107.49 58.8408 108.083 58.8408 108.762V109.466H53.666C53.6797 110.345 53.8984 111.015 54.3223 111.476C54.7461 111.936 55.3431 112.166 56.1133 112.166C56.5872 112.166 57.0065 112.123 57.3711 112.036C57.7357 111.95 58.1139 111.822 58.5059 111.653V112.651C58.1276 112.82 57.7516 112.943 57.3779 113.021C57.0088 113.098 56.5713 113.137 56.0654 113.137C55.3454 113.137 54.7165 112.991 54.1787 112.699C53.6455 112.403 53.2308 111.97 52.9346 111.4C52.6383 110.831 52.4902 110.133 52.4902 109.309C52.4902 108.502 52.6247 107.805 52.8936 107.217C53.167 106.624 53.5498 106.169 54.042 105.85C54.5387 105.531 55.1221 105.371 55.792 105.371ZM55.7783 106.301C55.1722 106.301 54.6891 106.499 54.3291 106.896C53.9691 107.292 53.7549 107.846 53.6865 108.557H57.6514C57.6468 108.11 57.5762 107.718 57.4395 107.381C57.3073 107.039 57.1045 106.775 56.8311 106.588C56.5576 106.396 56.2067 106.301 55.7783 106.301ZM64.1729 105.371C64.3232 105.371 64.4805 105.38 64.6445 105.398C64.8086 105.412 64.9544 105.433 65.082 105.46L64.9385 106.513C64.8154 106.481 64.6787 106.456 64.5283 106.438C64.3779 106.419 64.2367 106.41 64.1045 106.41C63.8037 106.41 63.5189 106.472 63.25 106.595C62.9857 106.713 62.7533 106.886 62.5527 107.114C62.3522 107.338 62.195 107.609 62.0811 107.928C61.9671 108.242 61.9102 108.593 61.9102 108.98V113H60.7686V105.508H61.7119L61.835 106.889H61.8828C62.0378 106.611 62.2246 106.358 62.4434 106.13C62.6621 105.897 62.915 105.713 63.2021 105.576C63.4938 105.439 63.8174 105.371 64.1729 105.371ZM65.3145 105.508H66.5312L68.1855 109.855C68.2812 110.111 68.3701 110.357 68.4521 110.594C68.5342 110.826 68.6071 111.049 68.6709 111.264C68.7347 111.478 68.7848 111.685 68.8213 111.886H68.8691C68.9329 111.658 69.0241 111.359 69.1426 110.99C69.2611 110.617 69.3887 110.236 69.5254 109.849L71.0908 105.508H72.3145L69.0537 114.101C68.8805 114.561 68.6777 114.962 68.4453 115.304C68.2174 115.646 67.9395 115.908 67.6113 116.09C67.2832 116.277 66.8867 116.37 66.4219 116.37C66.2077 116.37 66.0186 116.356 65.8545 116.329C65.6904 116.306 65.5492 116.279 65.4307 116.247V115.338C65.5309 115.361 65.6517 115.381 65.793 115.399C65.9388 115.418 66.0892 115.427 66.2441 115.427C66.5267 115.427 66.7705 115.372 66.9756 115.263C67.1852 115.158 67.3652 115.003 67.5156 114.798C67.666 114.593 67.7959 114.349 67.9053 114.066L68.3154 113.014L65.3145 105.508ZM80.1484 113.137C79.474 113.137 78.8792 112.998 78.3643 112.72C77.8493 112.442 77.4482 112.018 77.1611 111.448C76.874 110.879 76.7305 110.161 76.7305 109.295C76.7305 108.388 76.8809 107.647 77.1816 107.073C77.487 106.494 77.9062 106.066 78.4395 105.788C78.9727 105.51 79.5788 105.371 80.2578 105.371C80.6315 105.371 80.9915 105.41 81.3379 105.487C81.6888 105.56 81.9759 105.654 82.1992 105.768L81.8574 106.718C81.6296 106.627 81.3652 106.545 81.0645 106.472C80.7682 106.399 80.4902 106.362 80.2305 106.362C79.7109 106.362 79.278 106.474 78.9316 106.697C78.5898 106.921 78.3324 107.249 78.1592 107.682C77.9906 108.115 77.9062 108.648 77.9062 109.281C77.9062 109.887 77.9883 110.405 78.1523 110.833C78.321 111.261 78.5693 111.59 78.8975 111.817C79.2301 112.041 79.6449 112.152 80.1416 112.152C80.5381 112.152 80.8958 112.111 81.2148 112.029C81.5339 111.943 81.8232 111.842 82.083 111.729V112.74C81.8324 112.868 81.5521 112.966 81.2422 113.034C80.9368 113.103 80.5723 113.137 80.1484 113.137ZM85.002 113H83.8604V102.363H85.002V113ZM93.8613 109.24C93.8613 109.855 93.7816 110.405 93.6221 110.888C93.4626 111.371 93.2324 111.779 92.9316 112.111C92.6309 112.444 92.2663 112.699 91.8379 112.877C91.4141 113.05 90.9333 113.137 90.3955 113.137C89.8942 113.137 89.4339 113.05 89.0146 112.877C88.5999 112.699 88.2399 112.444 87.9346 112.111C87.6338 111.779 87.3991 111.371 87.2305 110.888C87.0664 110.405 86.9844 109.855 86.9844 109.24C86.9844 108.42 87.1234 107.723 87.4014 107.148C87.6794 106.57 88.0758 106.13 88.5908 105.829C89.1104 105.524 89.7279 105.371 90.4434 105.371C91.127 105.371 91.724 105.524 92.2344 105.829C92.7493 106.134 93.1481 106.576 93.4307 107.155C93.7178 107.729 93.8613 108.424 93.8613 109.24ZM88.1602 109.24C88.1602 109.842 88.2399 110.364 88.3994 110.806C88.5589 111.248 88.805 111.59 89.1377 111.831C89.4704 112.073 89.8988 112.193 90.4229 112.193C90.9424 112.193 91.3685 112.073 91.7012 111.831C92.0384 111.59 92.2868 111.248 92.4463 110.806C92.6058 110.364 92.6855 109.842 92.6855 109.24C92.6855 108.643 92.6058 108.128 92.4463 107.695C92.2868 107.258 92.0407 106.921 91.708 106.684C91.3753 106.447 90.9447 106.328 90.416 106.328C89.6367 106.328 89.0648 106.586 88.7002 107.101C88.3402 107.616 88.1602 108.329 88.1602 109.24ZM102.01 105.508V113H101.08L100.916 111.947H100.854C100.7 112.207 100.499 112.426 100.253 112.604C100.007 112.781 99.7288 112.913 99.4189 113C99.1136 113.091 98.7878 113.137 98.4414 113.137C97.849 113.137 97.3522 113.041 96.9512 112.85C96.5501 112.658 96.2471 112.362 96.042 111.961C95.8415 111.56 95.7412 111.045 95.7412 110.416V105.508H96.8896V110.334C96.8896 110.958 97.0309 111.425 97.3135 111.735C97.596 112.041 98.0267 112.193 98.6055 112.193C99.1615 112.193 99.6035 112.089 99.9316 111.879C100.264 111.669 100.504 111.362 100.649 110.956C100.795 110.546 100.868 110.045 100.868 109.452V105.508H102.01ZM107.075 113.137C106.127 113.137 105.375 112.813 104.819 112.166C104.268 111.519 103.992 110.557 103.992 109.281C103.992 107.992 104.275 107.019 104.84 106.362C105.405 105.701 106.157 105.371 107.096 105.371C107.492 105.371 107.839 105.424 108.135 105.528C108.431 105.633 108.686 105.774 108.9 105.952C109.115 106.125 109.295 106.324 109.44 106.547H109.522C109.504 106.406 109.486 106.212 109.468 105.966C109.45 105.72 109.44 105.519 109.44 105.364V102.363H110.575V113H109.659L109.488 111.934H109.44C109.299 112.157 109.119 112.36 108.9 112.542C108.686 112.724 108.429 112.87 108.128 112.979C107.832 113.084 107.481 113.137 107.075 113.137ZM107.253 112.193C108.055 112.193 108.622 111.965 108.955 111.51C109.288 111.054 109.454 110.377 109.454 109.479V109.274C109.454 108.322 109.295 107.59 108.976 107.08C108.661 106.57 108.087 106.314 107.253 106.314C106.556 106.314 106.034 106.583 105.688 107.121C105.341 107.654 105.168 108.383 105.168 109.309C105.168 110.229 105.339 110.94 105.681 111.441C106.027 111.943 106.551 112.193 107.253 112.193ZM117.753 102.363V105.022C117.753 105.328 117.744 105.624 117.726 105.911C117.712 106.198 117.701 106.422 117.691 106.581H117.753C117.958 106.244 118.254 105.959 118.642 105.727C119.029 105.494 119.523 105.378 120.125 105.378C121.064 105.378 121.811 105.704 122.367 106.355C122.928 107.003 123.208 107.966 123.208 109.247C123.208 110.09 123.08 110.801 122.825 111.38C122.57 111.959 122.21 112.396 121.745 112.692C121.28 112.989 120.731 113.137 120.098 113.137C119.505 113.137 119.018 113.027 118.635 112.809C118.257 112.585 117.965 112.314 117.76 111.995H117.671L117.438 113H116.618V102.363H117.753ZM119.94 106.328C119.398 106.328 118.967 106.435 118.648 106.649C118.329 106.859 118.099 107.178 117.958 107.606C117.821 108.03 117.753 108.568 117.753 109.22V109.281C117.753 110.225 117.91 110.947 118.225 111.448C118.539 111.945 119.111 112.193 119.94 112.193C120.638 112.193 121.16 111.938 121.506 111.428C121.857 110.917 122.032 110.188 122.032 109.24C122.032 108.274 121.859 107.547 121.513 107.06C121.171 106.572 120.647 106.328 119.94 106.328ZM124.008 105.508H125.225L126.879 109.855C126.975 110.111 127.063 110.357 127.146 110.594C127.228 110.826 127.3 111.049 127.364 111.264C127.428 111.478 127.478 111.685 127.515 111.886H127.562C127.626 111.658 127.717 111.359 127.836 110.99C127.954 110.617 128.082 110.236 128.219 109.849L129.784 105.508H131.008L127.747 114.101C127.574 114.561 127.371 114.962 127.139 115.304C126.911 115.646 126.633 115.908 126.305 116.09C125.977 116.277 125.58 116.37 125.115 116.37C124.901 116.37 124.712 116.356 124.548 116.329C124.384 116.306 124.243 116.279 124.124 116.247V115.338C124.224 115.361 124.345 115.381 124.486 115.399C124.632 115.418 124.783 115.427 124.938 115.427C125.22 115.427 125.464 115.372 125.669 115.263C125.879 115.158 126.059 115.003 126.209 114.798C126.359 114.593 126.489 114.349 126.599 114.066L127.009 113.014L124.008 105.508ZM138.842 113.137C138.167 113.137 137.573 112.998 137.058 112.72C136.543 112.442 136.142 112.018 135.854 111.448C135.567 110.879 135.424 110.161 135.424 109.295C135.424 108.388 135.574 107.647 135.875 107.073C136.18 106.494 136.6 106.066 137.133 105.788C137.666 105.51 138.272 105.371 138.951 105.371C139.325 105.371 139.685 105.41 140.031 105.487C140.382 105.56 140.669 105.654 140.893 105.768L140.551 106.718C140.323 106.627 140.059 106.545 139.758 106.472C139.462 106.399 139.184 106.362 138.924 106.362C138.404 106.362 137.971 106.474 137.625 106.697C137.283 106.921 137.026 107.249 136.853 107.682C136.684 108.115 136.6 108.648 136.6 109.281C136.6 109.887 136.682 110.405 136.846 110.833C137.014 111.261 137.263 111.59 137.591 111.817C137.924 112.041 138.338 112.152 138.835 112.152C139.231 112.152 139.589 112.111 139.908 112.029C140.227 111.943 140.517 111.842 140.776 111.729V112.74C140.526 112.868 140.245 112.966 139.936 113.034C139.63 113.103 139.266 113.137 138.842 113.137ZM143.695 113H142.554V102.363H143.695V113ZM147.229 105.508V113H146.095V105.508H147.229ZM146.676 102.705C146.863 102.705 147.022 102.767 147.154 102.89C147.291 103.008 147.359 103.195 147.359 103.45C147.359 103.701 147.291 103.888 147.154 104.011C147.022 104.134 146.863 104.195 146.676 104.195C146.48 104.195 146.316 104.134 146.184 104.011C146.056 103.888 145.992 103.701 145.992 103.45C145.992 103.195 146.056 103.008 146.184 102.89C146.316 102.767 146.48 102.705 146.676 102.705ZM152.637 113.137C151.962 113.137 151.368 112.998 150.853 112.72C150.338 112.442 149.937 112.018 149.649 111.448C149.362 110.879 149.219 110.161 149.219 109.295C149.219 108.388 149.369 107.647 149.67 107.073C149.975 106.494 150.395 106.066 150.928 105.788C151.461 105.51 152.067 105.371 152.746 105.371C153.12 105.371 153.48 105.41 153.826 105.487C154.177 105.56 154.464 105.654 154.688 105.768L154.346 106.718C154.118 106.627 153.854 106.545 153.553 106.472C153.257 106.399 152.979 106.362 152.719 106.362C152.199 106.362 151.766 106.474 151.42 106.697C151.078 106.921 150.821 107.249 150.647 107.682C150.479 108.115 150.395 108.648 150.395 109.281C150.395 109.887 150.477 110.405 150.641 110.833C150.809 111.261 151.058 111.59 151.386 111.817C151.718 112.041 152.133 112.152 152.63 112.152C153.026 112.152 153.384 112.111 153.703 112.029C154.022 111.943 154.312 111.842 154.571 111.729V112.74C154.321 112.868 154.04 112.966 153.73 113.034C153.425 113.103 153.061 113.137 152.637 113.137ZM157.477 102.363V107.887C157.477 108.069 157.47 108.292 157.456 108.557C157.442 108.816 157.431 109.047 157.422 109.247H157.47C157.565 109.129 157.704 108.953 157.887 108.721C158.074 108.488 158.231 108.301 158.358 108.16L160.847 105.508H162.18L159.165 108.707L162.398 113H161.031L158.386 109.452L157.477 110.286V113H156.349V102.363H157.477ZM164.839 105.508V113H163.704V105.508H164.839ZM164.285 102.705C164.472 102.705 164.632 102.767 164.764 102.89C164.9 103.008 164.969 103.195 164.969 103.45C164.969 103.701 164.9 103.888 164.764 104.011C164.632 104.134 164.472 104.195 164.285 104.195C164.089 104.195 163.925 104.134 163.793 104.011C163.665 103.888 163.602 103.701 163.602 103.45C163.602 103.195 163.665 103.008 163.793 102.89C163.925 102.767 164.089 102.705 164.285 102.705ZM170.793 105.371C171.682 105.371 172.354 105.59 172.81 106.027C173.265 106.46 173.493 107.158 173.493 108.119V113H172.372V108.194C172.372 107.57 172.229 107.103 171.941 106.793C171.659 106.483 171.224 106.328 170.636 106.328C169.806 106.328 169.223 106.563 168.886 107.032C168.549 107.502 168.38 108.183 168.38 109.076V113H167.245V105.508H168.161L168.332 106.588H168.394C168.553 106.324 168.756 106.103 169.002 105.925C169.248 105.743 169.524 105.606 169.829 105.515C170.134 105.419 170.456 105.371 170.793 105.371ZM177.923 116.363C176.938 116.363 176.18 116.179 175.646 115.81C175.113 115.445 174.847 114.932 174.847 114.271C174.847 113.802 174.995 113.401 175.291 113.068C175.592 112.736 176.007 112.515 176.535 112.405C176.339 112.314 176.171 112.177 176.029 111.995C175.893 111.813 175.824 111.603 175.824 111.366C175.824 111.093 175.899 110.854 176.05 110.648C176.205 110.439 176.439 110.238 176.754 110.047C176.362 109.887 176.043 109.618 175.797 109.24C175.555 108.857 175.435 108.413 175.435 107.907C175.435 107.369 175.546 106.911 175.77 106.533C175.993 106.15 176.316 105.859 176.74 105.658C177.164 105.458 177.677 105.357 178.278 105.357C178.41 105.357 178.543 105.364 178.675 105.378C178.812 105.387 178.941 105.403 179.064 105.426C179.188 105.444 179.295 105.467 179.386 105.494H181.956V106.226L180.575 106.396C180.712 106.574 180.826 106.788 180.917 107.039C181.008 107.29 181.054 107.568 181.054 107.873C181.054 108.62 180.801 109.215 180.295 109.657C179.789 110.095 179.094 110.313 178.21 110.313C178 110.313 177.786 110.295 177.567 110.259C177.344 110.382 177.173 110.519 177.055 110.669C176.941 110.819 176.884 110.993 176.884 111.188C176.884 111.334 176.927 111.451 177.014 111.537C177.105 111.624 177.235 111.688 177.403 111.729C177.572 111.765 177.775 111.783 178.012 111.783H179.331C180.147 111.783 180.771 111.954 181.204 112.296C181.642 112.638 181.86 113.137 181.86 113.793C181.86 114.622 181.523 115.258 180.849 115.7C180.174 116.142 179.199 116.363 177.923 116.363ZM177.957 115.475C178.577 115.475 179.09 115.411 179.495 115.283C179.905 115.16 180.211 114.98 180.411 114.743C180.616 114.511 180.719 114.233 180.719 113.909C180.719 113.608 180.65 113.381 180.514 113.226C180.377 113.075 180.176 112.975 179.912 112.925C179.648 112.87 179.324 112.843 178.941 112.843H177.643C177.305 112.843 177.011 112.895 176.761 113C176.51 113.105 176.316 113.26 176.18 113.465C176.048 113.67 175.981 113.925 175.981 114.23C175.981 114.636 176.152 114.944 176.494 115.153C176.836 115.368 177.324 115.475 177.957 115.475ZM178.251 109.486C178.793 109.486 179.201 109.35 179.475 109.076C179.748 108.803 179.885 108.404 179.885 107.88C179.885 107.319 179.746 106.9 179.468 106.622C179.19 106.34 178.78 106.198 178.237 106.198C177.718 106.198 177.317 106.344 177.034 106.636C176.756 106.923 176.617 107.344 176.617 107.9C176.617 108.411 176.758 108.803 177.041 109.076C177.324 109.35 177.727 109.486 178.251 109.486ZM189.489 112.207C189.676 112.207 189.868 112.191 190.063 112.159C190.259 112.127 190.419 112.089 190.542 112.043V112.925C190.41 112.984 190.225 113.034 189.988 113.075C189.756 113.116 189.528 113.137 189.305 113.137C188.908 113.137 188.548 113.068 188.225 112.932C187.901 112.79 187.641 112.553 187.445 112.221C187.254 111.888 187.158 111.428 187.158 110.84V106.396H186.092V105.843L187.165 105.398L187.616 103.771H188.3V105.508H190.494V106.396H188.3V110.806C188.3 111.275 188.407 111.626 188.621 111.858C188.84 112.091 189.129 112.207 189.489 112.207ZM193.194 102.363V105.542C193.194 105.724 193.19 105.909 193.181 106.096C193.172 106.278 193.156 106.447 193.133 106.602H193.208C193.363 106.337 193.559 106.116 193.796 105.938C194.037 105.756 194.311 105.619 194.616 105.528C194.922 105.433 195.245 105.385 195.587 105.385C196.188 105.385 196.69 105.48 197.091 105.672C197.496 105.863 197.799 106.16 198 106.561C198.205 106.962 198.308 107.481 198.308 108.119V113H197.187V108.194C197.187 107.57 197.043 107.103 196.756 106.793C196.473 106.483 196.038 106.328 195.45 106.328C194.894 106.328 194.45 106.435 194.117 106.649C193.789 106.859 193.552 107.169 193.406 107.579C193.265 107.989 193.194 108.491 193.194 109.083V113H192.06V102.363H193.194ZM203.53 105.371C204.168 105.371 204.715 105.512 205.171 105.795C205.627 106.077 205.975 106.474 206.217 106.984C206.458 107.49 206.579 108.083 206.579 108.762V109.466H201.404C201.418 110.345 201.637 111.015 202.061 111.476C202.484 111.936 203.081 112.166 203.852 112.166C204.326 112.166 204.745 112.123 205.109 112.036C205.474 111.95 205.852 111.822 206.244 111.653V112.651C205.866 112.82 205.49 112.943 205.116 113.021C204.747 113.098 204.31 113.137 203.804 113.137C203.084 113.137 202.455 112.991 201.917 112.699C201.384 112.403 200.969 111.97 200.673 111.4C200.377 110.831 200.229 110.133 200.229 109.309C200.229 108.502 200.363 107.805 200.632 107.217C200.905 106.624 201.288 106.169 201.78 105.85C202.277 105.531 202.86 105.371 203.53 105.371ZM203.517 106.301C202.91 106.301 202.427 106.499 202.067 106.896C201.707 107.292 201.493 107.846 201.425 108.557H205.39C205.385 108.11 205.314 107.718 205.178 107.381C205.046 107.039 204.843 106.775 204.569 106.588C204.296 106.396 203.945 106.301 203.517 106.301ZM213.278 102.363V105.022C213.278 105.328 213.269 105.624 213.251 105.911C213.237 106.198 213.226 106.422 213.217 106.581H213.278C213.483 106.244 213.78 105.959 214.167 105.727C214.554 105.494 215.049 105.378 215.65 105.378C216.589 105.378 217.337 105.704 217.893 106.355C218.453 107.003 218.733 107.966 218.733 109.247C218.733 110.09 218.606 110.801 218.351 111.38C218.095 111.959 217.735 112.396 217.271 112.692C216.806 112.989 216.257 113.137 215.623 113.137C215.031 113.137 214.543 113.027 214.16 112.809C213.782 112.585 213.49 112.314 213.285 111.995H213.196L212.964 113H212.144V102.363H213.278ZM215.466 106.328C214.924 106.328 214.493 106.435 214.174 106.649C213.855 106.859 213.625 107.178 213.483 107.606C213.347 108.03 213.278 108.568 213.278 109.22V109.281C213.278 110.225 213.436 110.947 213.75 111.448C214.064 111.945 214.636 112.193 215.466 112.193C216.163 112.193 216.685 111.938 217.031 111.428C217.382 110.917 217.558 110.188 217.558 109.24C217.558 108.274 217.384 107.547 217.038 107.06C216.696 106.572 216.172 106.328 215.466 106.328ZM226.902 105.508V113H225.973L225.809 111.947H225.747C225.592 112.207 225.392 112.426 225.146 112.604C224.899 112.781 224.621 112.913 224.312 113C224.006 113.091 223.68 113.137 223.334 113.137C222.742 113.137 222.245 113.041 221.844 112.85C221.443 112.658 221.14 112.362 220.935 111.961C220.734 111.56 220.634 111.045 220.634 110.416V105.508H221.782V110.334C221.782 110.958 221.924 111.425 222.206 111.735C222.489 112.041 222.919 112.193 223.498 112.193C224.054 112.193 224.496 112.089 224.824 111.879C225.157 111.669 225.396 111.362 225.542 110.956C225.688 110.546 225.761 110.045 225.761 109.452V105.508H226.902ZM231.722 112.207C231.909 112.207 232.1 112.191 232.296 112.159C232.492 112.127 232.651 112.089 232.774 112.043V112.925C232.642 112.984 232.458 113.034 232.221 113.075C231.988 113.116 231.76 113.137 231.537 113.137C231.141 113.137 230.781 113.068 230.457 112.932C230.133 112.79 229.874 112.553 229.678 112.221C229.486 111.888 229.391 111.428 229.391 110.84V106.396H228.324V105.843L229.397 105.398L229.849 103.771H230.532V105.508H232.727V106.396H230.532V110.806C230.532 111.275 230.639 111.626 230.854 111.858C231.072 112.091 231.362 112.207 231.722 112.207ZM236.712 112.207C236.899 112.207 237.09 112.191 237.286 112.159C237.482 112.127 237.642 112.089 237.765 112.043V112.925C237.632 112.984 237.448 113.034 237.211 113.075C236.979 113.116 236.751 113.137 236.527 113.137C236.131 113.137 235.771 113.068 235.447 112.932C235.124 112.79 234.864 112.553 234.668 112.221C234.477 111.888 234.381 111.428 234.381 110.84V106.396H233.314V105.843L234.388 105.398L234.839 103.771H235.522V105.508H237.717V106.396H235.522V110.806C235.522 111.275 235.63 111.626 235.844 111.858C236.062 112.091 236.352 112.207 236.712 112.207ZM245.742 109.24C245.742 109.855 245.662 110.405 245.503 110.888C245.343 111.371 245.113 111.779 244.812 112.111C244.512 112.444 244.147 112.699 243.719 112.877C243.295 113.05 242.814 113.137 242.276 113.137C241.775 113.137 241.315 113.05 240.896 112.877C240.481 112.699 240.121 112.444 239.815 112.111C239.515 111.779 239.28 111.371 239.111 110.888C238.947 110.405 238.865 109.855 238.865 109.24C238.865 108.42 239.004 107.723 239.282 107.148C239.56 106.57 239.957 106.13 240.472 105.829C240.991 105.524 241.609 105.371 242.324 105.371C243.008 105.371 243.605 105.524 244.115 105.829C244.63 106.134 245.029 106.576 245.312 107.155C245.599 107.729 245.742 108.424 245.742 109.24ZM240.041 109.24C240.041 109.842 240.121 110.364 240.28 110.806C240.44 111.248 240.686 111.59 241.019 111.831C241.351 112.073 241.78 112.193 242.304 112.193C242.823 112.193 243.249 112.073 243.582 111.831C243.919 111.59 244.168 111.248 244.327 110.806C244.487 110.364 244.566 109.842 244.566 109.24C244.566 108.643 244.487 108.128 244.327 107.695C244.168 107.258 243.922 106.921 243.589 106.684C243.256 106.447 242.826 106.328 242.297 106.328C241.518 106.328 240.946 106.586 240.581 107.101C240.221 107.616 240.041 108.329 240.041 109.24ZM251.252 105.371C252.141 105.371 252.813 105.59 253.269 106.027C253.724 106.46 253.952 107.158 253.952 108.119V113H252.831V108.194C252.831 107.57 252.688 107.103 252.4 106.793C252.118 106.483 251.683 106.328 251.095 106.328C250.265 106.328 249.682 106.563 249.345 107.032C249.007 107.502 248.839 108.183 248.839 109.076V113H247.704V105.508H248.62L248.791 106.588H248.853C249.012 106.324 249.215 106.103 249.461 105.925C249.707 105.743 249.983 105.606 250.288 105.515C250.593 105.419 250.915 105.371 251.252 105.371ZM18.3311 126.363V129.022C18.3311 129.328 18.3219 129.624 18.3037 129.911C18.29 130.198 18.2786 130.422 18.2695 130.581H18.3311C18.5361 130.244 18.8324 129.959 19.2197 129.727C19.6071 129.494 20.1016 129.378 20.7031 129.378C21.6419 129.378 22.3893 129.704 22.9453 130.355C23.5059 131.003 23.7861 131.966 23.7861 133.247C23.7861 134.09 23.6585 134.801 23.4033 135.38C23.1481 135.959 22.7881 136.396 22.3232 136.692C21.8584 136.989 21.3092 137.137 20.6758 137.137C20.0833 137.137 19.5957 137.027 19.2129 136.809C18.8346 136.585 18.543 136.314 18.3379 135.995H18.249L18.0166 137H17.1963V126.363H18.3311ZM20.5186 130.328C19.9762 130.328 19.5456 130.435 19.2266 130.649C18.9076 130.859 18.6774 131.178 18.5361 131.606C18.3994 132.03 18.3311 132.568 18.3311 133.22V133.281C18.3311 134.225 18.4883 134.947 18.8027 135.448C19.1172 135.945 19.6891 136.193 20.5186 136.193C21.2158 136.193 21.7376 135.938 22.084 135.428C22.4349 134.917 22.6104 134.188 22.6104 133.24C22.6104 132.274 22.4372 131.547 22.0908 131.06C21.749 130.572 21.2249 130.328 20.5186 130.328ZM28.6533 129.371C29.2913 129.371 29.8382 129.512 30.2939 129.795C30.7497 130.077 31.0983 130.474 31.3398 130.984C31.5814 131.49 31.7021 132.083 31.7021 132.762V133.466H26.5273C26.541 134.345 26.7598 135.015 27.1836 135.476C27.6074 135.936 28.2044 136.166 28.9746 136.166C29.4486 136.166 29.8678 136.123 30.2324 136.036C30.597 135.95 30.9753 135.822 31.3672 135.653V136.651C30.9889 136.82 30.613 136.943 30.2393 137.021C29.8701 137.098 29.4326 137.137 28.9268 137.137C28.2067 137.137 27.5778 136.991 27.04 136.699C26.5068 136.403 26.0921 135.97 25.7959 135.4C25.4997 134.831 25.3516 134.133 25.3516 133.309C25.3516 132.502 25.486 131.805 25.7549 131.217C26.0283 130.624 26.4111 130.169 26.9033 129.85C27.4001 129.531 27.9834 129.371 28.6533 129.371ZM28.6396 130.301C28.0335 130.301 27.5505 130.499 27.1904 130.896C26.8304 131.292 26.6162 131.846 26.5479 132.557H30.5127C30.5081 132.11 30.4375 131.718 30.3008 131.381C30.1686 131.039 29.9658 130.775 29.6924 130.588C29.4189 130.396 29.068 130.301 28.6396 130.301ZM34.7715 137H33.6299V126.363H34.7715V137ZM43.6309 133.24C43.6309 133.855 43.5511 134.405 43.3916 134.888C43.2321 135.371 43.002 135.779 42.7012 136.111C42.4004 136.444 42.0358 136.699 41.6074 136.877C41.1836 137.05 40.7028 137.137 40.165 137.137C39.6637 137.137 39.2035 137.05 38.7842 136.877C38.3695 136.699 38.0094 136.444 37.7041 136.111C37.4033 135.779 37.1686 135.371 37 134.888C36.8359 134.405 36.7539 133.855 36.7539 133.24C36.7539 132.42 36.8929 131.723 37.1709 131.148C37.4489 130.57 37.8454 130.13 38.3604 129.829C38.8799 129.524 39.4974 129.371 40.2129 129.371C40.8965 129.371 41.4935 129.524 42.0039 129.829C42.5189 130.134 42.9176 130.576 43.2002 131.155C43.4873 131.729 43.6309 132.424 43.6309 133.24ZM37.9297 133.24C37.9297 133.842 38.0094 134.364 38.1689 134.806C38.3285 135.248 38.5745 135.59 38.9072 135.831C39.2399 136.073 39.6683 136.193 40.1924 136.193C40.7119 136.193 41.138 136.073 41.4707 135.831C41.8079 135.59 42.0563 135.248 42.2158 134.806C42.3753 134.364 42.4551 133.842 42.4551 133.24C42.4551 132.643 42.3753 132.128 42.2158 131.695C42.0563 131.258 41.8102 130.921 41.4775 130.684C41.1449 130.447 40.7142 130.328 40.1855 130.328C39.4062 130.328 38.8343 130.586 38.4697 131.101C38.1097 131.616 37.9297 132.329 37.9297 133.24ZM51.6904 136.986L50.3574 132.625C50.2982 132.438 50.2412 132.256 50.1865 132.078C50.1364 131.896 50.0885 131.723 50.043 131.559C50.002 131.39 49.9632 131.235 49.9268 131.094C49.8949 130.948 49.8675 130.823 49.8447 130.718H49.7969C49.7786 130.823 49.7536 130.948 49.7217 131.094C49.6898 131.235 49.651 131.39 49.6055 131.559C49.5645 131.727 49.5189 131.905 49.4688 132.092C49.4186 132.274 49.3617 132.459 49.2979 132.646L47.9033 136.986H46.625L44.5605 129.494H45.7363L46.8164 133.63C46.8893 133.903 46.9577 134.174 47.0215 134.443C47.0898 134.708 47.1468 134.958 47.1924 135.195C47.2425 135.428 47.279 135.631 47.3018 135.804H47.3564C47.3838 135.69 47.4134 135.553 47.4453 135.394C47.4818 135.234 47.5205 135.065 47.5615 134.888C47.6071 134.705 47.6549 134.525 47.7051 134.348C47.7552 134.165 47.8053 133.994 47.8555 133.835L49.2363 129.494H50.46L51.793 133.828C51.8613 134.047 51.9274 134.275 51.9912 134.512C52.0596 134.749 52.1211 134.979 52.1758 135.202C52.2305 135.421 52.2692 135.617 52.292 135.79H52.3467C52.3649 135.635 52.3991 135.444 52.4492 135.216C52.4993 134.988 52.5563 134.737 52.6201 134.464C52.6885 134.19 52.7591 133.912 52.832 133.63L53.9258 129.494H55.0811L53.0098 136.986H51.6904ZM56.2773 136.289C56.2773 135.97 56.3548 135.744 56.5098 135.612C56.6647 135.476 56.8538 135.407 57.0771 135.407C57.3096 135.407 57.5055 135.476 57.665 135.612C57.8245 135.744 57.9043 135.97 57.9043 136.289C57.9043 136.604 57.8245 136.834 57.665 136.979C57.5055 137.121 57.3096 137.191 57.0771 137.191C56.8538 137.191 56.6647 137.121 56.5098 136.979C56.3548 136.834 56.2773 136.604 56.2773 136.289Z" fill="#000D12"/>
<g clip-path="url(#clip0_32363_131196)">
<rect x="16" y="164" width="237" height="16" rx="8" fill="white"/>
<path d="M17 172.336C17 167.365 21.0294 163.336 26 163.336H53V181.336H26C21.0294 181.336 17 177.307 17 172.336Z" fill="#00D3A9"/>
</g>
<rect x="16.5" y="164.5" width="236" height="15" rx="7.5" stroke="#00B39F"/>
<path d="M273.915 177H272.808V169.918C272.808 169.649 272.808 169.419 272.808 169.228C272.812 169.032 272.817 168.854 272.821 168.694C272.83 168.53 272.842 168.364 272.855 168.195C272.714 168.341 272.582 168.466 272.459 168.571C272.336 168.672 272.183 168.797 272.001 168.947L270.859 169.863L270.265 169.091L272.972 167.006H273.915V177ZM280.86 170.889C281.539 170.889 282.13 171.005 282.631 171.237C283.132 171.465 283.52 171.798 283.793 172.235C284.071 172.673 284.21 173.204 284.21 173.828C284.21 174.512 284.062 175.102 283.766 175.599C283.469 176.091 283.043 176.471 282.487 176.74C281.931 177.005 281.266 177.137 280.491 177.137C279.972 177.137 279.489 177.091 279.042 177C278.595 176.909 278.219 176.772 277.914 176.59V175.51C278.247 175.71 278.65 175.87 279.124 175.988C279.598 176.107 280.058 176.166 280.505 176.166C281.011 176.166 281.453 176.086 281.831 175.927C282.214 175.763 282.51 175.517 282.72 175.188C282.934 174.856 283.041 174.439 283.041 173.938C283.041 173.272 282.836 172.759 282.426 172.399C282.02 172.035 281.378 171.853 280.498 171.853C280.215 171.853 279.906 171.875 279.568 171.921C279.231 171.966 278.953 172.017 278.734 172.071L278.16 171.695L278.543 167.006H283.513V168.045H279.514L279.261 171.06C279.434 171.023 279.657 170.987 279.931 170.95C280.204 170.909 280.514 170.889 280.86 170.889ZM287.751 166.862C288.435 166.862 288.952 167.136 289.303 167.683C289.658 168.225 289.836 168.993 289.836 169.986C289.836 170.98 289.665 171.755 289.323 172.311C288.981 172.862 288.457 173.138 287.751 173.138C287.095 173.138 286.591 172.862 286.24 172.311C285.894 171.755 285.721 170.98 285.721 169.986C285.721 168.993 285.887 168.225 286.22 167.683C286.552 167.136 287.063 166.862 287.751 166.862ZM287.751 167.676C287.382 167.676 287.111 167.869 286.938 168.257C286.764 168.64 286.678 169.216 286.678 169.986C286.678 170.757 286.764 171.338 286.938 171.729C287.111 172.121 287.382 172.317 287.751 172.317C288.134 172.317 288.419 172.121 288.605 171.729C288.792 171.338 288.886 170.757 288.886 169.986C288.886 169.221 288.792 168.644 288.605 168.257C288.423 167.869 288.138 167.676 287.751 167.676ZM294.081 167.006L288.537 177H287.539L293.083 167.006H294.081ZM293.814 170.868C294.493 170.868 295.011 171.142 295.366 171.688C295.722 172.231 295.899 172.999 295.899 173.992C295.899 174.981 295.729 175.754 295.387 176.31C295.045 176.861 294.521 177.137 293.814 177.137C293.154 177.137 292.65 176.861 292.304 176.31C291.957 175.754 291.784 174.981 291.784 173.992C291.784 172.999 291.948 172.231 292.276 171.688C292.609 171.142 293.122 170.868 293.814 170.868ZM293.814 171.688C293.445 171.688 293.174 171.88 293.001 172.263C292.828 172.646 292.741 173.222 292.741 173.992C292.741 174.762 292.828 175.343 293.001 175.735C293.174 176.123 293.445 176.316 293.814 176.316C294.197 176.316 294.482 176.125 294.669 175.742C294.856 175.355 294.949 174.771 294.949 173.992C294.949 173.227 294.856 172.652 294.669 172.27C294.487 171.882 294.202 171.688 293.814 171.688Z" fill="#000D12"/>
<rect x="16" y="200" width="70" height="40" rx="8" fill="#00B39F"/>
<path d="M40.2734 222.891C40.2734 223.568 40.1068 224.151 39.7734 224.641C39.4453 225.13 38.9714 225.505 38.3516 225.766C37.737 226.026 37.0026 226.156 36.1484 226.156C35.7318 226.156 35.3333 226.133 34.9531 226.086C34.5729 226.039 34.2135 225.971 33.875 225.883C33.5417 225.789 33.237 225.677 32.9609 225.547V223.781C33.4245 223.984 33.9427 224.169 34.5156 224.336C35.0885 224.497 35.6719 224.578 36.2656 224.578C36.75 224.578 37.151 224.516 37.4688 224.391C37.7917 224.26 38.0312 224.078 38.1875 223.844C38.3438 223.604 38.4219 223.326 38.4219 223.008C38.4219 222.669 38.3307 222.383 38.1484 222.148C37.9661 221.914 37.6901 221.701 37.3203 221.508C36.9557 221.31 36.4974 221.099 35.9453 220.875C35.5703 220.724 35.2109 220.552 34.8672 220.359C34.5286 220.167 34.2266 219.94 33.9609 219.68C33.6953 219.419 33.4844 219.112 33.3281 218.758C33.1771 218.398 33.1016 217.977 33.1016 217.492C33.1016 216.846 33.2552 216.294 33.5625 215.836C33.875 215.378 34.3125 215.026 34.875 214.781C35.4427 214.536 36.1042 214.414 36.8594 214.414C37.4583 214.414 38.0208 214.477 38.5469 214.602C39.0781 214.727 39.599 214.904 40.1094 215.133L39.5156 216.641C39.0469 216.448 38.5911 216.294 38.1484 216.18C37.7109 216.065 37.263 216.008 36.8047 216.008C36.4089 216.008 36.0729 216.068 35.7969 216.188C35.5208 216.307 35.3099 216.477 35.1641 216.695C35.0234 216.909 34.9531 217.164 34.9531 217.461C34.9531 217.794 35.0339 218.076 35.1953 218.305C35.362 218.529 35.6172 218.734 35.9609 218.922C36.3099 219.109 36.7578 219.318 37.3047 219.547C37.9349 219.807 38.4688 220.081 38.9062 220.367C39.349 220.654 39.6875 220.997 39.9219 221.398C40.1562 221.794 40.2734 222.292 40.2734 222.891ZM45.5078 224.672C45.7474 224.672 45.9844 224.651 46.2188 224.609C46.4531 224.562 46.6667 224.508 46.8594 224.445V225.836C46.6562 225.924 46.3932 226 46.0703 226.062C45.7474 226.125 45.4115 226.156 45.0625 226.156C44.5729 226.156 44.1328 226.076 43.7422 225.914C43.3516 225.747 43.0417 225.464 42.8125 225.062C42.5833 224.661 42.4688 224.107 42.4688 223.398V218.75H41.2891V217.93L42.5547 217.281L43.1562 215.43H44.3125V217.352H46.7891V218.75H44.3125V223.375C44.3125 223.812 44.4219 224.138 44.6406 224.352C44.8594 224.565 45.1484 224.672 45.5078 224.672ZM52.0078 217.188C53.1016 217.188 53.9271 217.43 54.4844 217.914C55.0469 218.398 55.3281 219.154 55.3281 220.18V226H54.0234L53.6719 224.773H53.6094C53.3646 225.086 53.112 225.344 52.8516 225.547C52.5911 225.75 52.2891 225.901 51.9453 226C51.6068 226.104 51.1927 226.156 50.7031 226.156C50.1875 226.156 49.7266 226.062 49.3203 225.875C48.9141 225.682 48.5938 225.391 48.3594 225C48.125 224.609 48.0078 224.115 48.0078 223.516C48.0078 222.625 48.3385 221.956 49 221.508C49.6667 221.06 50.6719 220.812 52.0156 220.766L53.5156 220.711V220.258C53.5156 219.659 53.375 219.232 53.0938 218.977C52.8177 218.721 52.4271 218.594 51.9219 218.594C51.4896 218.594 51.0703 218.656 50.6641 218.781C50.2578 218.906 49.862 219.06 49.4766 219.242L48.8828 217.945C49.3047 217.721 49.7839 217.539 50.3203 217.398C50.862 217.258 51.4245 217.188 52.0078 217.188ZM53.5078 221.867L52.3906 221.906C51.474 221.938 50.8307 222.094 50.4609 222.375C50.0911 222.656 49.9062 223.042 49.9062 223.531C49.9062 223.958 50.0339 224.271 50.2891 224.469C50.5443 224.661 50.8802 224.758 51.2969 224.758C51.9323 224.758 52.4583 224.578 52.875 224.219C53.2969 223.854 53.5078 223.32 53.5078 222.617V221.867ZM62.2812 217.188C62.4271 217.188 62.5859 217.195 62.7578 217.211C62.9297 217.227 63.0781 217.247 63.2031 217.273L63.0312 218.992C62.9219 218.961 62.7865 218.938 62.625 218.922C62.4688 218.906 62.3281 218.898 62.2031 218.898C61.875 218.898 61.5625 218.953 61.2656 219.062C60.9688 219.167 60.7057 219.328 60.4766 219.547C60.2474 219.76 60.0677 220.029 59.9375 220.352C59.8073 220.674 59.7422 221.049 59.7422 221.477V226H57.8984V217.352H59.3359L59.5859 218.875H59.6719C59.8438 218.568 60.0573 218.286 60.3125 218.031C60.5677 217.776 60.8594 217.573 61.1875 217.422C61.5208 217.266 61.8854 217.188 62.2812 217.188ZM68.0234 224.672C68.263 224.672 68.5 224.651 68.7344 224.609C68.9688 224.562 69.1823 224.508 69.375 224.445V225.836C69.1719 225.924 68.9089 226 68.5859 226.062C68.263 226.125 67.9271 226.156 67.5781 226.156C67.0885 226.156 66.6484 226.076 66.2578 225.914C65.8672 225.747 65.5573 225.464 65.3281 225.062C65.099 224.661 64.9844 224.107 64.9844 223.398V218.75H63.8047V217.93L65.0703 217.281L65.6719 215.43H66.8281V217.352H69.3047V218.75H66.8281V223.375C66.8281 223.812 66.9375 224.138 67.1562 224.352C67.375 224.565 67.6641 224.672 68.0234 224.672Z" fill="#FDFDFD"/>
<defs>
<clipPath id="clip0_32363_131196">
<rect x="16" y="164" width="237" height="16" rx="8" fill="white"/>
</clipPath>
</defs>
</svg>
