<svg width="40" height="40" viewBox="0 0 40 40" fill="none" xmlns="http://www.w3.org/2000/svg">
<g clip-path="url(#clip0_23310_9539)">
<path d="M40 0H0V40H40V0Z" fill="#DD344C" fill-opacity="0.12"/>
<path fill-rule="evenodd" clip-rule="evenodd" d="M28.0021 20.9049C27.0123 20.1144 26.1804 19.4536 25.4795 18.9093C26.3054 17.3998 27.2682 15.6861 27.7021 15.3103C28.9589 16.1222 32.8003 23.0189 33.0312 24.6856C32.1104 24.1893 29.7698 22.3173 28.0021 20.9049ZM20.4514 24.994C20.1644 24.8551 19.5665 23.9891 18.8776 22.8637C19.0156 22.638 19.1616 22.3959 19.3185 22.1375C20.2104 20.6638 21.6861 18.2271 22.2221 17.888C22.533 17.9922 23.2789 18.512 24.1807 19.1922C23.0569 21.2572 21.0653 24.894 20.4514 24.994ZM16.504 24.6407C16.1681 24.2342 15.5752 23.1343 15.2002 22.4388C14.2404 20.6567 13.8825 20.0388 13.3675 20.0214H13.3665C13.3595 20.0204 13.3535 20.0204 13.3455 20.0204C12.9386 20.0204 12.4617 20.4289 10.699 22.0885C10.0241 22.7248 9.03826 23.6521 8.33938 24.2097C9.35121 21.9527 12.3127 16.5757 13.3165 15.2286C13.7755 15.8986 14.6913 17.5438 15.4512 18.9123C16.363 20.5515 17.0969 21.8485 17.6998 22.8606C17.2319 23.6174 16.774 24.3271 16.504 24.6407ZM33.2952 22.5297C32.3794 20.4014 29.0279 14.2502 27.6881 14.2502C26.9903 14.2502 26.3354 15.2582 24.6716 18.2924C23.3589 17.3069 22.632 16.8688 22.2181 16.8545C22.2101 16.8545 22.2021 16.8545 22.1931 16.8545C21.4592 16.8545 20.6493 17.9983 18.4687 21.6003C18.4117 21.6933 18.3537 21.7903 18.2937 21.8883C17.6018 20.7108 16.881 19.4138 16.32 18.4078C14.1324 14.4718 13.8265 14.0194 13.3485 14.001C13.3455 14 13.3435 14 13.3405 14C12.1927 14 7.46953 23.6521 7.17658 24.4129C7.0336 24.7847 6.85663 25.2483 7.19157 25.5435C7.81547 26.094 8.72832 25.3331 11.3769 22.8391C12.0268 22.2274 12.8806 21.4237 13.2826 21.1295C13.5445 21.4819 14.0034 22.3346 14.3244 22.9311C15.4282 24.9787 15.9001 25.7539 16.497 25.7712C16.9259 25.7426 17.2949 25.3985 18.2867 23.8196C19.2935 25.4117 19.8705 26 20.3644 26H20.3714C21.4822 25.9867 22.699 24.0065 24.9876 19.8111C25.7875 20.432 26.6393 21.1122 27.3862 21.7096C32.4513 25.758 33.2232 26.2288 33.7671 25.6262C34.0691 25.2892 34.222 24.6805 33.2952 22.5297Z" fill="#DD344C"/>
</g>
<rect x="0.5" y="0.5" width="39" height="39" stroke="#DD344C"/>
<defs>
<clipPath id="clip0_23310_9539">
<rect width="40" height="40" fill="white"/>
</clipPath>
</defs>
</svg>
