<svg width="64" height="64" viewBox="0 0 64 64" fill="none" xmlns="http://www.w3.org/2000/svg">
<path d="M20.8516 51L43.1484 51C48.4133 51 53.4627 48.9982 57.1856 45.435C60.9085 41.8719 63 37.0391 63 32C63 26.9609 60.9085 22.1281 57.1856 18.565C53.4627 15.0018 48.4133 13 43.1484 13L20.8516 13C15.5867 13 10.5373 15.0018 6.81437 18.565C3.09146 22.1281 0.999999 26.9609 0.999999 32C0.999999 37.0391 3.09146 41.8719 6.81437 45.435C10.5373 48.9982 15.5867 51 20.8516 51ZM20.7652 18.004C23.6574 18.004 26.4846 18.8248 28.8895 20.3627C31.2942 21.9007 33.1686 24.0865 34.2754 26.644C35.3822 29.2014 35.6718 32.0155 35.1076 34.7305C34.5433 37.4454 33.1505 39.9393 31.1055 41.8967C29.0603 43.8541 26.4547 45.1871 23.6181 45.7271C20.7814 46.2671 17.8411 45.99 15.169 44.9307C12.497 43.8713 10.213 42.0774 8.60628 39.7758C6.99944 37.4741 6.14177 34.7681 6.14177 32C6.14075 30.1592 6.51931 28.3363 7.25582 26.6358C7.99226 24.9353 9.07219 23.3907 10.4337 22.0904C11.7951 20.7901 13.4113 19.7599 15.1896 19.0587C16.9679 18.3574 18.8733 17.999 20.7966 18.004H20.7652Z" fill="white"/>
</svg>