<svg xmlns="http://www.w3.org/2000/svg" viewBox="0 0 145 145">
        <path fill="#31006f" d="M94 86.2c-4.3 0-7.8 3.5-7.8 7.8v15.7c0 4.3 3.5 7.8 7.8 7.8 1.6 0 3.1-.5 4.4-1.4l-7.3-7.3 5.5-5.5 5.2 5.2V94.1c0-4.4-3.5-7.9-7.8-7.9zM51 27.4h-7.9v31.3H51c4.3 0 7.7-3.5 7.8-7.8V35.3c0-4.3-3.5-7.8-7.8-7.9z"></path>
        <path fill="#31006f" d="M0 0v145h145V0H0zm66.6 86.2H54.9v31.3h11.8v7.8H35.3v-7.8H47V86.2H35.3v-7.8h31.4v7.8zm0-35.2c0 8.6-7 15.6-15.6 15.7H35.3v-47H51c8.6 0 15.6 7 15.6 15.6V51zm11.8 2c0-7.6 6.1-13.7 13.7-13.8H96c3.2 0 5.9-2.6 5.9-5.9 0-3.2-2.6-5.9-5.9-5.9H78.4v-7.8H96c7.6.4 13.4 6.8 13.1 14.3-.3 7.1-6 12.7-13.1 13.1h-3.9c-3.2 0-5.9 2.6-5.9 5.9v5.9h23.5v7.8H78.3l.1-13.6zm31.5 74.8l-5.9-5.9c-6.7 5.5-16.6 4.6-22.1-2.1-2.3-2.8-3.6-6.3-3.6-10V94.1c.2-8.7 7.4-15.5 16.1-15.3 8.3.2 15.1 6.9 15.3 15.3v15.7c0 1.9-.3 3.8-1 5.6l6.8 6.8-5.6 5.6z"></path>
    </svg>