<svg width="24" height="24" viewBox="0 0 24 24" fill="none" xmlns="http://www.w3.org/2000/svg">
<path d="M13.8245 16.2626L14.7806 17.2183C14.8651 17.2025 14.9522 17.1942 15.0413 17.1942C15.8161 17.1942 16.4442 17.8223 16.4442 18.5971C16.4442 19.3719 15.8161 20 15.0413 20C14.2665 20 13.6384 19.3719 13.6384 18.5971C13.6384 18.5084 13.6466 18.4216 13.6624 18.3374L12.7061 17.381L13.8245 16.2626ZM15.0413 4C15.8161 4 16.4442 4.62811 16.4442 5.40292C16.4442 6.17773 15.8161 6.80584 15.0413 6.80584C14.9522 6.80584 14.8651 6.79753 14.7806 6.78166L9.56221 12L11.9584 14.3962L13.608 12.7473L14.726 13.8659L10.3237 18.2688C10.3489 18.3741 10.3623 18.484 10.3623 18.5971C10.3623 19.3719 9.73416 20 8.95935 20C8.18454 20 7.55644 19.3719 7.55644 18.5971C7.55644 17.8223 8.18454 17.1942 8.95935 17.1942C9.02337 17.1942 9.08639 17.1985 9.14813 17.2068L10.8405 15.5149L5.66357 10.3374C5.57911 10.3533 5.49199 10.3616 5.40292 10.3616C4.62811 10.3616 4 9.73351 4 8.95869C4 8.18388 4.62811 7.55578 5.40292 7.55578C6.17773 7.55578 6.80584 8.18388 6.80584 8.95869C6.80584 9.04778 6.79753 9.13492 6.78166 9.21939L8.44357 10.8814L10.8405 8.48512L9.14813 6.79325C9.08639 6.80155 9.02337 6.80584 8.95935 6.80584C8.18454 6.80584 7.55644 6.17773 7.55644 5.40292C7.55644 4.62811 8.18454 4 8.95935 4C9.73416 4 10.3623 4.62811 10.3623 5.40292C10.3623 5.51596 10.3489 5.62589 10.3237 5.73119L11.9584 7.36648L13.6624 5.66258C13.6466 5.57843 13.6384 5.49164 13.6384 5.40292C13.6384 4.62811 14.2665 4 15.0413 4ZM18.5971 7.55578C19.3719 7.55578 20 8.18388 20 8.95869C20 9.73351 19.3719 10.3616 18.5971 10.3616C18.484 10.3616 18.3741 10.3482 18.2688 10.323L16.592 12L18.2688 13.677C18.3741 13.6518 18.484 13.6384 18.5971 13.6384C19.3719 13.6384 20 14.2665 20 15.0413C20 15.8161 19.3719 16.4442 18.5971 16.4442C17.8223 16.4442 17.1942 15.8161 17.1942 15.0413C17.1942 14.9774 17.1984 14.9145 17.2067 14.8529L12.7057 10.3511L13.8244 9.23242L15.4733 10.8814L17.2067 9.14706C17.1984 9.08545 17.1942 9.02257 17.1942 8.95869C17.1942 8.18388 17.8223 7.55578 18.5971 7.55578ZM6.5779 12.7469L7.69631 13.8653L6.78166 14.7806C6.79753 14.8651 6.80584 14.9522 6.80584 15.0413C6.80584 15.8161 6.17773 16.4442 5.40292 16.4442C4.62811 16.4442 4 15.8161 4 15.0413C4 14.2665 4.62811 13.6384 5.40292 13.6384C5.49164 13.6384 5.57843 13.6466 5.66258 13.6624L6.5779 12.7469Z" fill="white"/>
</svg>
