<svg id="Layer_1" data-name="Layer 1" xmlns="http://www.w3.org/2000/svg" viewBox="0 0 449.70001 512.20001"><defs><style>.cls-1{fill:#221f1f;}.cls-2,.cls-7{fill:none;}.cls-3{fill:#fff;}.cls-4{fill:#67cfe3;}.cls-5{fill:#dfcaa3;}.cls-6{fill:#648c1a;}.cls-7{stroke:#dfcaa3;stroke-linecap:round;stroke-linejoin:round;stroke-width:0;}</style></defs><path class="cls-1" d="M80.86432,496.156c-5.906,1.28554-10.39046,3.72107-10.01635,5.44s5.46523,2.07033,11.371.78479c5.906-1.28532,10.39047-3.72085,10.01613-5.43981C91.861,495.222,86.7701,494.87065,80.86432,496.156Z"/><path class="cls-1" d="M55.96457,494.75672c-6.337.50454-11.36432,2.2895-11.22921,3.98684s5.38162,2.66428,11.71859,2.15973c6.33675-.50454,11.3641-2.28949,11.229-3.98683S62.30132,494.25218,55.96457,494.75672Z"/><path class="cls-1" d="M35.63913,492.92093c-4.21781.57455-7.491,2.11159-7.31105,3.4328.18014,1.32144,3.74515,1.92653,7.963,1.352,4.21781-.57477,7.491-2.11158,7.311-3.433C43.42194,492.95148,39.85694,492.34616,35.63913,492.92093Z"/><path class="cls-1" d="M20.72942,491.06686c-4.07267.5915-7.24863,1.93679-7.09345,3.005.15495,1.06795,3.5824,1.45454,7.65529.863,4.07267-.59127,7.24862-1.93656,7.09345-3.00473C28.22975,490.862,24.80231,490.47559,20.72942,491.06686Z"/><path class="cls-1" d="M17.90127,490.7195c4.07289-.59127,7.24884-1.93656,7.09367-3.00472s-3.5824-1.45454-7.65529-.86327c-4.07289.59149-7.24862,1.93678-7.09367,3.005C10.40115,490.92462,13.8286,491.311,17.90127,490.7195Z"/><path class="cls-1" d="M16.97691,485.70375c3.53981-.51413,6.3-1.68329,6.1653-2.61167-.13489-.92837-3.11375-1.26413-6.65334-.75023-3.53982.51391-6.3,1.68329-6.1653,2.61166C10.45845,485.88189,13.43732,486.21765,16.97691,485.70375Z"/><path class="cls-1" d="M193.99476,475.52932c-6.00188,0-10.86737,1.58809-10.86737,3.547s4.86549,3.54695,10.86737,3.54695c6.00165,0,10.86713-1.58809,10.86713-3.54695S199.99641,475.52932,193.99476,475.52932Z"/><path class="cls-1" d="M221.97549,475.06915c-4.00044,0-7.2435,1.449-7.2435,3.23637s3.24306,3.23638,7.2435,3.23638c4.00065,0,7.24372-1.449,7.24372-3.23638S225.97614,475.06915,221.97549,475.06915Z"/><ellipse class="cls-1" cx="244.55743" cy="475.99328" rx="7.93755" ry="2.61902"/><path class="cls-1" d="M261.9778,470.28749c-3.19156,0-5.7787,1.243-5.7787,2.7762s2.58714,2.7762,5.7787,2.7762,5.77893-1.243,5.77893-2.7762S265.16936,470.28749,261.9778,470.28749Z"/><ellipse class="cls-1" cx="277.00568" cy="469.90401" rx="5.85919" ry="2.69951"/><path class="cls-2" d="M298.34355,103.67729a.04473.04473,0,0,1-.02052-.00112l.02988.01494Z"/><path class="cls-2" d="M45.75113,154.80916a14.95375,14.95375,0,0,0,.66484,5.61438A15.02674,15.02674,0,0,1,45.75113,154.80916Z"/><path class="cls-2" d="M298.28,103.64005l.00647.00647a.04653.04653,0,0,1,.03523.00178l.00579.00491-.00379-.0058A.13218.13218,0,0,1,298.28,103.64005Z"/><path class="cls-2" d="M65.24273,158.77615a37.39156,37.39156,0,0,0-2.88211-4.58435,25.884,25.884,0,0,0-1.90668-2.3022,21.40346,21.40346,0,0,1,1.90312,2.3022A37.74322,37.74322,0,0,1,65.24273,158.77615Z"/><path class="cls-2" d="M53.40374,147.83945l.28493.03656c.18149.0272.36007.06867.54022.10278-.18126-.03522-.35963-.078-.54022-.10635l-.28493-.03656-.37991-.00736a9.79746,9.79746,0,0,0-1.44652.12419,9.79427,9.79427,0,0,1,1.44652-.1204Z"/><polygon class="cls-2" points="51.577 147.953 51.263 148.04 50.945 148.124 51.263 148.041 51.577 147.953"/><path class="cls-2" d="M298.48445,103.88486a4.62684,4.62684,0,0,1,.36163,1.60347,18.89375,18.89375,0,0,1-.21872,3.54539,19.09019,19.09019,0,0,0,.22251-3.54539A4.69719,4.69719,0,0,0,298.48445,103.88486Z"/><path class="cls-2" d="M299.80678,97.5325l.4274.14982-.4274-.15339-.85836-.29229a12.25519,12.25519,0,0,0-1.82286-.40911,11.82825,11.82825,0,0,1,1.82286.41268Z"/><path class="cls-2" d="M70.71821,174.77141c-.0457-.31592-.10256-.67554-.18616-1.08065-.02743-.14068-.06912-.278-.09766-.41848.02787.14135.06733.28025.09409.42205C70.61387,174.097,70.67184,174.45549,70.71821,174.77141Z"/><path class="cls-2" d="M277.15907,121.74355a39.98011,39.98011,0,0,1,1.24207-7.15966,35.36415,35.36415,0,0,1,4.11681-9.68371,20.91539,20.91539,0,0,1,1.89108-2.59449,20.91706,20.91706,0,0,0-1.8913,2.59449,35.3971,35.3971,0,0,0-4.12038,9.68371,40.78716,40.78716,0,0,0-1.24185,7.1561c-.08762.86929-.08048,1.56691-.09877,2.03087-.00356.231-.00156.40823.00112.53063-.00268-.12174-.00446-.29831-.00089-.53063C277.075,123.3069,277.06788,122.60928,277.15907,121.74355Z"/><path class="cls-2" d="M289.75921,97.99624a14.0104,14.0104,0,0,0-3.08454,2.03489,20.94357,20.94357,0,0,0-2.26564,2.27456,20.92581,20.92581,0,0,1,2.26586-2.27456A14.009,14.009,0,0,1,289.75921,97.99624Z"/><path class="cls-2" d="M294.32015,103.19081a8.94028,8.94028,0,0,0-3.7514,1.70959,20.81423,20.81423,0,0,0-3.43368,3.33492,20.82677,20.82677,0,0,1,3.43725-3.33492,8.90084,8.90084,0,0,1,3.75162-1.70959q.47322-.05787.94844-.09855l-.00245-.00022C294.95222,103.11768,294.63808,103.15067,294.32015,103.19081Z"/><path class="cls-2" d="M304.55544,105.57974a20.151,20.151,0,0,1-1.311,5.52186,20.254,20.254,0,0,0,1.31475-5.52565,10.76661,10.76661,0,0,0-.229-2.79984A10.68341,10.68341,0,0,1,304.55544,105.57974Z"/><path class="cls-2" d="M52.87936,154.17307l-.05262-.01047a.12584.12584,0,0,0,.051.01092Z"/><polygon class="cls-2" points="298.459 103.742 298.45 103.738 298.422 103.735 298.459 103.742"/><path class="cls-2" d="M289.75921,97.99624a14.01687,14.01687,0,0,1,3.50905-1.15779A14.01393,14.01393,0,0,0,289.75921,97.99624Z"/><path class="cls-2" d="M298.37119,103.71675l.00379.00357a.24963.24963,0,0,0,.04749.01471A.11108.11108,0,0,1,298.37119,103.71675Z"/><polygon class="cls-2" points="70.901 176.175 70.893 176.102 70.901 176.174 70.901 176.175"/><polygon class="cls-2" points="298.36 103.694 298.353 103.691 298.354 103.692 298.36 103.694"/><path class="cls-2" d="M51.59627,170.21159c.02051.02653.03723.05574.05774.08205.23455.31391.4595.58458.66083.81912-.20066-.23432-.4245-.50543-.657-.81912C51.63885,170.26911,51.61566,170.23656,51.59627,170.21159Z"/><path class="cls-2" d="M54.32431,154.96634a5.38665,5.38665,0,0,0-1.2608-.73507A5.45964,5.45964,0,0,1,54.32431,154.96634Z"/><path class="cls-2" d="M52.34026,171.14286c.19463.22608.36854.42.501.579.2885.31771.453.48225.453.48225l-.00089-.00469c-.00134-.00133-.16454-.161-.45215-.48113C52.70857,171.56268,52.53489,171.36938,52.34026,171.14286Z"/><path class="cls-2" d="M48.08432,164.60546c.0107.0214.01583.045.02653.06644.02341.04682.05329.08985.07692.13667-.0243-.04816-.04905-.08807-.07335-.13667C48.10416,164.65116,48.09458,164.62641,48.08432,164.60546Z"/><path class="cls-2" d="M51.64309,163.51767c.4129,2.52761.86951,4.70474,1.16893,6.23888C52.5126,168.21884,52.056,166.04528,51.64309,163.51767Z"/><polygon class="cls-2" points="303.325 100.116 303.314 100.097 303.294 100.072 303.314 100.097 303.325 100.116"/><path class="cls-2" d="M189.10363,288.719c-.548.06934-1.096.14247-1.65119.23388a38.3278,38.3278,0,0,0-7.878,2.18382,38.36808,38.36808,0,0,1,7.88158-2.18382C188.0076,288.865,188.55561,288.7883,189.10363,288.719Z"/><path class="cls-2" d="M196.942,288.57159c-.17189-.01538-.33353-.04459-.50721-.0573q-1.83335-.12875-3.67047-.07736,1.835-.05117,3.67047.07759C196.60843,288.52723,196.77007,288.55643,196.942,288.57159Z"/><polygon class="cls-2" points="298.302 103.668 298.302 103.668 298.057 103.556 298.302 103.668"/><path class="cls-2" d="M214.36657,339.52287l-2.47655-.0622-.012-.00023c-2.778-.06933-5.40592-.13823-7.57458-.13823l-.00981-.00022H204.292a33.76128,33.76128,0,0,0-4.04369.15339q-1.60124.214-3.178.57344.35817,2.32494.86149,4.62269c.02007.0923.04258.18416.0631.27646.31792,1.46123.68713,2.99291,1.13192,4.4887,1.19079,3.99619,2.8529,7.6564,5.05188,8.4782h-.00357a8.09249,8.09249,0,0,0,1.88818.40756c3.42678.36809,9.24739-.66485,9.1435-8.88576q-.00737-.58893-.05128-1.1763C214.85239,344.20576,214.58573,341.43335,214.36657,339.52287Z"/><path class="cls-2" d="M193.46859,349.43667c-.01137-.05953-.0272-.11527-.039-.17458-.237-1.20015-.5333-2.35058-.84231-3.42945-.03723-.13132-.07157-.2633-.10969-.3944-.42339-1.43314-.85926-2.69794-1.2006-3.61406a83.47177,83.47177,0,0,0-14.29726,7.61249l-.18617.11682c.65548,3.03371,2.36753,8.79525,6.25092,11.243a7.878,7.878,0,0,0,6.74586.71635,5.23573,5.23573,0,0,0,3.43793-3.07139C194.28526,356.01889,194.0875,352.63291,193.46859,349.43667Z"/><path class="cls-2" d="M295.23715,123.92425l.00112-.00111c.00312-.01383.2283-.993.65637-2.64712C295.46345,122.9417,295.23715,123.92425,295.23715,123.92425Z"/><path class="cls-2" d="M298.31568,103.67573c.01583.014.02408.03076.04459.041-.02029-.01026-.02787-.02675-.0408-.0408Z"/><path class="cls-2" d="M254.05118,311.24963a9.59552,9.59552,0,0,0-.44479-1.68775,11.49739,11.49739,0,0,0-1.81305-3.19513c-2.00946-2.5479-5.2396-4.78433-9.50423-6.52849-6.78354-2.77263-15.70364-4.22271-26.51259-4.31769l-4.74866-.03657a7.32238,7.32238,0,0,1,.89493,3.61629c-.08762,6.22081-8.00331,12.43806-18.76834,14.648q-.76417.16053-1.53414.29229c-7.973,1.32256-15.28538.08562-19.81176-2.80184a9.80461,9.80461,0,0,1-4.26374-4.87908l-.00044-.00112-3.89029,1.3152c-1.55577.52639-10.889,3.87-17.88813,10.1383a25.5708,25.5708,0,0,0-6.18849,7.90522,17.59325,17.59325,0,0,0-1.5736,5.2396,16.94661,16.94661,0,0,0,.48961,7.05421,16.05017,16.05017,0,0,0,3.37148,6.07055c3.83188,4.37967,10.09639,6.99512,16.752,6.99512a20.01475,20.01475,0,0,0,9.669-2.30131c1.69867-.93863,3.51417-2.07479,5.43557-3.27651,4.93126-3.09324,10.76659-6.751,17.55861-8.937a40.36893,40.36893,0,0,1,7.11262-1.61975q.33276-.0438.77588-.07669c.51635-.03835,1.17651-.062,1.91114-.078.52461-.01137,1.07129-.02052,1.7038-.02052h.00112q3.83556.02475,7.66978.14247c1.62019.04013,3.34874.08405,5.11809.11772,1.76868.03389,3.57838.05752,5.36022.05752h.00178c3.93556,0,7.28118-.1146,10.15191-.35851a33.928,33.928,0,0,0,10.92488-2.36641c7.93331-3.54472,12.37051-10.02906,12.33283-17.73719a21.20459,21.20459,0,0,0-.23432-2.69817C254.07905,311.69665,254.08931,311.47882,254.05118,311.24963Zm-6.6034,6.96257a11.16842,11.16842,0,0,1-1.356,2.95145,12.03651,12.03651,0,0,1-1.56045,1.92452,14.54158,14.54158,0,0,1-2.19942,1.80457,19.35589,19.35589,0,0,1-2.93606,1.61128c-3.93778,1.75709-11.068,2.16977-18.46513,2.16977-6.50574,0-13.21951-.31771-18.14363-.31771a43.34184,43.34184,0,0,0-5.2309.23009,50.89,50.89,0,0,0-14.6667,4.39528c-7.3057,3.36279-13.20724,7.697-17.70486,10.18335a13.77564,13.77564,0,0,1-6.56773,1.49757c-5.85584,0-12.35534-2.88166-13.97955-8.51767a10.01213,10.01213,0,0,1-.38325-2.79627,11.775,11.775,0,0,1,.10568-1.54417c1.32924-9.98447,16.81171-16.36581,20.54237-17.765.24859-.0932.44524-.16432.58168-.21292.14559-.05173.22318-.078.22318-.078,2.54611,3.14519,6.8783,6.76883,17.8879,6.76883q2.27981,0,4.96092-.223c.17167-.0136.34245-.03567.51412-.05039,1.47751-.13354,3.029-.30923,4.70184-.55582,6.46562-.95312,11.03346-3.04419,14.258-5.469a20.03462,20.03462,0,0,0,6.76549-8.78076c.2-.5168.35784-.99414.4818-1.41953a13.06625,13.06625,0,0,0,.4245-1.93746c.01226-.09564.0165-.14626.0165-.14626,22.34093.19,31.37808,6.59337,32.00636,10.37041.03567.21292.06889.43944.09809.67755a14.52864,14.52864,0,0,1,.10747,1.558A12.40964,12.40964,0,0,1,247.44778,318.2122Z"/><path class="cls-3" d="M266.16128,203.5211a41.775,41.775,0,0,0-12.06149-3.08632,42.54948,42.54948,0,0,0-4.29674-.21694h-.00022a42.02785,42.02785,0,1,0,0,84.05568h.00022a42.48524,42.48524,0,0,0,4.29674-.21693,42.03759,42.03759,0,0,0,12.06149-80.53549Zm-22.03861,65.98763A13.25262,13.25262,0,1,1,257.37518,256.256,13.25266,13.25266,0,0,1,244.12267,269.50873Z"/><path class="cls-3" d="M126.38181,313.94467a41.89093,41.89093,0,0,0,4.31569-.8869c.68914-.18951,1.34819-.474,2.02708-.69873,1.07574-.35673,2.16754-.67934,3.20271-1.11833.81132-.344,1.57738-.79327,2.36753-1.18878.845-.42317,1.715-.78992,2.53273-1.2715a42.08161,42.08161,0,0,0,19.67911-45.73464q-.35215-1.525-.81311-3.00651a42.03321,42.03321,0,0,0-82.16638,12.494v.00357a42.01309,42.01309,0,0,0,47.7158,41.63722C125.62734,314.12192,125.99922,314.00755,126.38181,313.94467Zm-10.613-39.89552a13.25251,13.25251,0,0,1,0,26.505l-.00179-.00022a13.25229,13.25229,0,0,1,0-26.50457Z"/><path class="cls-1" d="M117.76693,455.28526c-7.196,1.64382-28.36421,13.15039-46.65766,16.64606-18.28989,3.49589-34.11772,5.34416-39.67012,7.40067-5.545,2.05652-9.86251,6.166,1.03026,10.27543,10.89278,4.11324,63.71664,5.5524,68.44345,0,4.72681-5.54861-3.25845-7.95226-14.79779-7.8098-8.21891.10234-7.21429-2.76148-7.196-3.083,0,0,.515-3.59421,13.15753-5.34394,12.61687-1.7426,68.44345-6.988,67.41318-12.94952C158.46352,454.46345,124.95937,453.64165,117.76693,455.28526Z"/><path class="cls-1" d="M227.52432,461.03854h-.00022c-12.54017.61735-40.90081-.8218-44.80939,5.75685-3.905,6.57508,11.51013,9.04094,35.76511,6.988,24.25475-2.05673,58.57691-4.72681,60.01629-12.12749,1.43916-7.40067-6.37063-5.96152-7.19623-10.68833-.81823-4.72681,8.63539-4.72681,10.48366-11.71458,1.8485-6.988-12.74105-6.16619-25.69034-6.16619s-34.5304,1.23114-36.58691,8.01447c-2.05673,6.78332,9.86631,6.78332,18.29346,8.42715,8.42715,1.6436,5.96129,4.72681,5.96129,4.72681C243.34836,458.57269,240.0607,460.42118,227.52432,461.03854Z"/><path class="cls-1" d="M422.05663,385.0301v.00357a30.592,30.592,0,0,1-7.78036,11.93374c-6.137,5.80813-11.51014,9.28574-16.31364,10.55679,26.53421-3.72954,42.28534-8.37587,42.28534-13.41325C440.248,390.87814,433.7313,387.80608,422.05663,385.0301Z"/><path class="cls-1" d="M21.41945,394.111c0,3.50681,7.64169,6.81988,21.223,9.76776a67.46813,67.46813,0,0,1,.5333-19.65235C29.26581,387.20723,21.41945,390.56043,21.41945,394.111Z"/><path class="cls-4" d="M376.67,377.6622c-1.68753-12.3685-6.96592-17.91711-11.616-22.8156-4.336-4.55892-8.43071-8.86547-7.11218-16.76668,1.21643-7.31305,7.03192-11.80955,16.53281-12.97849-5.77135-39.00149-14.22413-88.20549-25.09506-130.184-5.428-20.96354-14.01233-35.52388-25.526-45.204C310.67771,156.453,294.828,163.861,277.13365,171.53548q-19.1283,8.27977-38.53038,15.90452c-10.10375,10.84173-21.14257,21.52627-27.90783,24.56912a31.21262,31.21262,0,0,1-12.82132,3.03193,19.75473,19.75473,0,0,1-16.12368-7.63456,52.42567,52.42567,0,0,1-7.14874,1.50493c-1.98338.20824-4.90584.45661-8.55869.71969a11.25822,11.25822,0,0,1-1.84828,11.2252c-2.9588,3.5688-7.73309,5.36245-14.5017,5.36245-9.7312,0-23.59013-3.71126-42.11747-11.196q-3.74894-1.519-7.53222-2.95145-2.12595.01071-4.25549.01093h-.01092c-17.70531,0-31.53883-.55538-42.38412-1.44295-11.87911,24.5874-6.71755,51.86315-2.37065,74.39025,4.16787,21.592,18.62588,60.00916,32.03557,93.01613,4.97139,12.2481,9.80053,23.74352,13.90642,33.36525,36.302,3.21452,82.83925,5.13949,133.58452,5.13949,60.39264,0,114.78719-2.73607,153.09106-7.10838-2.7907-11.4845-6.32672-27.46951-6.93315-31.53147ZM266.16128,280.97093a41.79662,41.79662,0,0,1-12.06149,3.08566,42.48524,42.48524,0,0,1-4.29674.21693h-.00022a42.02785,42.02785,0,1,1,0-84.05568h.00022a42.54948,42.54948,0,0,1,4.29674.21694,42.038,42.038,0,0,1,12.06149,80.53615ZM77.52717,272.53687v-.00357a42.03492,42.03492,0,0,1,82.16638-12.494q.46052,1.48052.81311,3.00651a42.04,42.04,0,0,1-19.67911,45.73464c-.81778.48158-1.68774.84833-2.53273,1.2715-.79015.39551-1.55621.84476-2.36753,1.18878-1.03517.439-2.127.7616-3.20271,1.11833-.67889.22473-1.33794.50922-2.02708.69873a41.89093,41.89093,0,0,1-4.31569.8869c-.38259.06288-.75447.17725-1.13884.22942a42.01309,42.01309,0,0,1-47.7158-41.63722Zm112.26315,88.976a7.878,7.878,0,0,1-6.74586-.71635c-3.88339-2.44779-5.59544-8.20933-6.25092-11.243l.18617-.11682a83.47177,83.47177,0,0,1,14.29726-7.61249c.34134.91612.77721,2.18092,1.2006,3.61406.03812.1311.07246.26308.10969.3944.309,1.07887.60531,2.2293.84231,3.42945.01182.05931.02765.115.039.17458.61891,3.19624.81667,6.58222-.24034,9.00482A5.23573,5.23573,0,0,1,189.79032,361.51288Zm16.27306-3.19045a8.09249,8.09249,0,0,1-1.88818-.40756h.00357c-2.199-.8218-3.86109-4.482-5.05188-8.4782-.44479-1.49579-.814-3.02747-1.13192-4.4887-.02052-.0923-.043-.18416-.0631-.27646q-.5-2.29752-.86149-4.62269,1.57516-.35884,3.178-.57344a33.76128,33.76128,0,0,1,4.04369-.15339h.00156l.00981.00022c2.16866,0,4.79659.0689,7.57458.13823l.012.00023,2.47655.0622c.21916,1.91048.48582,4.68289.789,8.7375q.04415.58725.05128,1.1763C215.31077,357.65758,209.49016,358.69052,206.06338,358.32243Zm35.94793-25.96279a33.928,33.928,0,0,1-10.92488,2.36641c-2.87073.24391-6.21635.35851-10.15191.35851h-.00178c-1.78184,0-3.59154-.02363-5.36022-.05752-1.76935-.03367-3.4979-.07759-5.11809-.11772q-3.83389-.11772-7.66978-.14247h-.00112c-.63251,0-1.17919.00915-1.7038.02052-.73463.01605-1.39479.03968-1.91114.078q-.44278.03277-.77588.07669a40.36893,40.36893,0,0,0-7.11262,1.61975c-6.792,2.186-12.62735,5.8438-17.55861,8.937-1.9214,1.20172-3.7369,2.33788-5.43557,3.27651a20.01475,20.01475,0,0,1-9.669,2.30131c-6.65557,0-12.92008-2.61545-16.752-6.99512a16.05017,16.05017,0,0,1-3.37148-6.07055,16.94661,16.94661,0,0,1-.48961-7.05421,17.59325,17.59325,0,0,1,1.5736-5.2396A25.5708,25.5708,0,0,1,145.766,317.812c6.99914-6.2683,16.33236-9.61191,17.88813-10.1383l3.89029-1.3152a7.22014,7.22014,0,0,1-.29586-1.16158c-.88311-5.335,4.28715-10.86134,12.32592-14.06026a38.3278,38.3278,0,0,1,7.878-2.18382c.55516-.09141,1.10317-.16454,1.65119-.23388q1.8233-.23074,3.66065-.282,1.835-.05117,3.67047.07736c.17368.01271.33532.04192.50721.0573,5.867.52082,10.68878,2.52159,13.16979,5.552a8.53683,8.53683,0,0,1,.91611,1.36045l4.74866.03657c10.80895.095,19.72905,1.54506,26.51259,4.31769,4.26463,1.74416,7.49477,3.98059,9.50423,6.52849a11.49739,11.49739,0,0,1,1.81305,3.19513,9.59552,9.59552,0,0,1,.44479,1.68775c.03813.22919.02787.447.05864.67465a21.20459,21.20459,0,0,1,.23432,2.69817C254.38182,322.33058,249.94462,328.81492,242.01131,332.35964Z"/><path d="M304.33026,102.77611a7.92079,7.92079,0,0,0-.2205-1.03561,5.36251,5.36251,0,0,0-.482-1.09581l-.30322-.52884-.01092-.01895-.0194-.02475-.39708-.50142a6.91464,6.91464,0,0,0-2.04558-1.60347l-.16075-.08406-.0767-.04392-.30321-.12775-.02564-.01092-.05106-.01829-.4274-.14982-.85836-.29229a11.82825,11.82825,0,0,0-1.82286-.41268,16.60171,16.60171,0,0,0-1.91405-.14626,18.4614,18.4614,0,0,0-1.94325.15718,14.01078,14.01078,0,0,0-6.59337,3.19268,20.91808,20.91808,0,0,0-4.15694,4.86905,35.36415,35.36415,0,0,0-4.11681,9.68371,39.98011,39.98011,0,0,0-1.24207,7.15966c-.09119.86573-.084,1.56335-.10211,2.02731-.00357.23232-.00179.40889.00089.53063.00267.12507.00624.19263.00624.19263l1.315-2.38894c.83652-1.50492,2.00546-3.63813,3.452-6.09663a61.08309,61.08309,0,0,1,5.304-7.77323,20.81423,20.81423,0,0,1,3.43368-3.33492,8.94028,8.94028,0,0,1,3.7514-1.70959c.31793-.04014.63207-.07313.94978-.09877l.00245.00022.00134-.00022c.32506.03656.64656,0,.97519.05863.33242.08027.66128.0767,1.00462.18617l.80352.21916.24458.1117c-.01338-.0078-.02831-.01628-.02608-.02163l.01092.00045-.00647-.00647a.13218.13218,0,0,0,.0437.00736l.00379.0058c.01672.00847.03233.0185.02966.02475l-.0136-.00067.00936.01382.00713.00312.02587.00781.0729.03656-.00914-.00089.00936.00468-.03656-.00736a.24963.24963,0,0,1-.04749-.01471.42157.42157,0,0,1,.10947.16454,4.69719,4.69719,0,0,1,.36542,1.60347,19.09019,19.09019,0,0,1-.22251,3.54539c-.04659.33777-.07491.67688-.132,1.00975-.25573,1.53792-.58079,3.03192-.90586,4.42-.65749,2.77621-1.2822,5.13593-1.69488,6.81253-.42807,1.65409-.65325,2.63329-.65637,2.64712a24.59877,24.59877,0,0,0,1.80323-2.081,42.32149,42.32149,0,0,0,4.02563-6.02707,36.664,36.664,0,0,0,2.10021-4.47487c.02809-.07469.04927-.1632.07714-.23856a20.151,20.151,0,0,0,1.311-5.52186A10.68341,10.68341,0,0,0,304.33026,102.77611Z"/><path d="M298.36762,103.71318l-.01828-.02207.00446.00134-.00089-.00134-.02988-.01494-.00356-.00022c.01293.014.02051.03054.0408.0408l.01092.00268.00379.00089-.00379-.00357Z"/><polygon class="cls-1" points="42.964 180.96 43.541 180.96 42.964 179.919 42.964 180.96"/><path class="cls-1" d="M46.416,160.42354a27.17617,27.17617,0,0,0,1.66835,4.18192c.01026.02095.01984.0457.0301.06644.0243.0486.049.08851.07335.13667.42517.84454.89292,1.66634,1.38832,2.47031.09186.14893.18483.30879.27557.45081.544.85234,1.12368,1.68217,1.74461,2.4819.01939.025.04258.05752.06153.08205.23254.31369.45638.5848.657.81912l.02542.0301c.19463.22652.36831.41982.501.57544.28761.32016.45081.4798.45215.48113-.00134-.0078-.06956-.37255-.18728-.97341-.07692-.39239-.17056-.86527-.29408-1.46947-.29942-1.53414-.756-3.71127-1.16893-6.23888-.20445-1.26391-.39084-2.61924-.48225-3.99263-.03523-.61869-.04593-1.255-.02765-1.86811.00179-.0544-.00468-.1117-.00245-.16588a8.18343,8.18343,0,0,1,.24948-1.81974,3.0401,3.0401,0,0,1,.52952-1.13973,1.33328,1.33328,0,0,1,.5955-.34334l.19731-.03657.31771-.06577c.04838-.00758.0408.00557.02118.02163l-.01471.01092-.03568.02586a.20709.20709,0,0,1-.10969.02921l-.002-.00045-.00157.00045a.12584.12584,0,0,1-.051-.01092l.0437.02185a.443.443,0,0,0,.17546.03656l.01761.01026a5.38665,5.38665,0,0,1,1.2608.73507,20.77418,20.77418,0,0,1,3.13426,3.09747c1.01533,1.21286,2.009,2.48392,2.95144,3.75519,1.87748,2.557,3.61629,5.05187,5.14307,7.196q1.8564,2.63328,3.80646,5.19813c.94844,1.25165,1.53971,1.95975,1.541,1.96109l-.008-.07269-.06822-.58435c-.03144-.19977-.064-.45483-.10613-.74578-.04637-.31592-.10434-.67443-.18973-1.07708-.02676-.1418-.06622-.2807-.09409-.42205-.22183-1.09269-.47087-2.17824-.75982-3.25287-.07781-.28873-.17078-.57344-.25394-.8606q-.34146-1.18989-.74-2.36129c-.31971-.94777-.67889-1.88082-1.05122-2.80853-.17279-.43029-.32885-.86661-.51279-1.29223-.57455-1.32968-1.1919-2.64109-1.87391-3.92061a37.74322,37.74322,0,0,0-2.88567-4.58435,21.40346,21.40346,0,0,0-1.90312-2.3022,19.07684,19.07684,0,0,0-2.29039-2.09219A11.25,11.25,0,0,0,56.608,148.834a10.05412,10.05412,0,0,0-1.80525-.74243c-.18638-.045-.38147-.07536-.57387-.11282-.18015-.03411-.35873-.07558-.54022-.10278l-.28493-.03656-.37991-.00714a9.79427,9.79427,0,0,0-1.44652.1204l-.31414.08784-.3177.08383-.41648.12418-.12061.05128-.24458.10947a7.05077,7.05077,0,0,0-3.2803,2.83462,7.75366,7.75366,0,0,0-.78412,1.7825,8.28838,8.28838,0,0,0-.34825,1.78273A15.02674,15.02674,0,0,0,46.416,160.42354Z"/><path class="cls-5" d="M67.49276,422.84793c9.85538,0,16.79232-5.36245,21.6616-12.32458-5.57426-12.9203-14.74294-34.69114-23.43674-57.60551a43.14336,43.14336,0,0,0-8.01447,9.58494c-7.324,11.34961-13.35484,37.76321-5.75685,51.7062C55.11334,420.02424,60.20178,422.84793,67.49276,422.84793Z"/><path class="cls-5" d="M415.33908,357.39985c-5.77157-14.94-18.056-25.55166-29.86936-25.79647l-.42-.03656a39.55353,39.55353,0,0,0-5.33681-.34335c-6.43262,0-14.33,1.37361-15.41871,7.91213-.75982,4.53686,1.22735,6.86,5.42443,11.27626,4.79637,5.041,11.36053,11.95225,13.333,26.38105,2.25026,16.52188,6.283,24.90131,11.985,24.90131,2.66651,0,7.5213-1.59611,15.54646-9.19767C420.47144,383.13055,419.52166,368.22686,415.33908,357.39985Z"/><path class="cls-1" d="M102.51633,287.30166a13.25246,13.25246,0,0,0,13.25072,13.25228l.00179.00022a13.25251,13.25251,0,0,0,0-26.505l-.00179.00022A13.25262,13.25262,0,0,0,102.51633,287.30166Z"/><path class="cls-1" d="M244.12267,243.0035a13.25262,13.25262,0,1,0,13.25251,13.2525A13.2526,13.2526,0,0,0,244.12267,243.0035Z"/><path class="cls-6" d="M319.481,122.32078c-1.68753,10.04533-4.93126,21.08058-7.07918,24.09044l-2.01638,2.82012c9.13212-4.44567,17.27791-8.6646,24.19277-12.5404,24.04317-13.4788,27.03118-19.38191,27.37809-20.87234.223-.97519-.01449-1.27841-.11682-1.40259-.26286-.32886-1.95061-1.9689-9.54481-1.9689-8.2994,0-19.91544,1.89956-32.03913,4.5295Q319.92711,119.65705,319.481,122.32078Z"/><path class="cls-6" d="M310.10428,149.37l-3.46669-.28493q-7.51862-.52874-15.06065-.51123c-8.9678,0-20.79208.53687-30.49407,2.83462a11.26166,11.26166,0,0,1-1.47929,12.09092c-2.37444,2.86382-6.39248,7.63433-11.20691,13.10625q13.15206-5.3358,26.17615-10.9804Q292.51156,157.88122,310.10428,149.37Z"/><path class="cls-6" d="M79.82113,139.2627v-.00379a133.923,133.923,0,0,0,34.74956,4.20822c20.43781,0,63.82633-3.97078,124.81425-30.56341l1.37361-.59907a36.3938,36.3938,0,0,1,.84008-10.04534,31.4539,31.4539,0,0,1,7.32019-14.81607,49.58223,49.58223,0,0,0-1.51942-4.96046c-7.03905-3.75162-65.05724-25.36171-95.31387-25.36171a39.992,39.992,0,0,0-7.84636.672c-26.81558,5.47214-67.563,52.08968-69.02423,58.70133-.43833,2.85668-.30679,11.83519.01471,21.52626Z"/><path class="cls-6" d="M173.9295,202.508a42.55732,42.55732,0,0,0,5.56333-1.15066,11.27266,11.27266,0,0,1,19.00957-8.931,11.80569,11.80569,0,0,0,2.94409-.97185c5.5524-2.64087,25.59559-24.03559,40.82434-42.35825a11.19373,11.19373,0,0,1,1.80814-1.73145c-34.79348,15.035-83.4129,31.46548-129.70537,31.46548a165.05073,165.05073,0,0,1-21.0623-1.27841l1.01533,2.988L88.537,182.75711c-.04013.01829-1.0374.40176-2.70307,1.09581q11.17759,2.60822,30.17971,10.27186c23.15916,9.35129,32.01371,9.70935,34.22718,9.57781a11.26885,11.26885,0,0,1,10.21344-.146C166.45948,203.17285,171.13145,202.8003,173.9295,202.508Z"/><path class="cls-6" d="M79.29875,205.45967a22.87731,22.87731,0,0,0-2.62638-.4274,11.17895,11.17895,0,0,1-11.91189-10.95141c-3.04285,1.72431-6.0857,3.59087-8.93481,5.56333L50.75908,203.151l-3.72576-4.90584a130.9118,130.9118,0,0,1-11.09009-17.67967C26.96807,184.8027,19.95466,189.431,18.24149,193.818a1.65218,1.65218,0,0,0,.146,1.77158C19.84876,197.73371,28.54256,204.29074,79.29875,205.45967Z"/><path class="cls-5" d="M241.95669,118.8066c-24.36467,10.62613-77.762,31.10051-127.386,31.10051a140.18855,140.18855,0,0,1-36.42973-4.431q1.80825,2.73965,3.57972,5.84447A151.26672,151.26672,0,0,1,90.86373,170.699a152.44449,152.44449,0,0,0,23.50987,1.69132c28.50311,0,73.05321-6.524,134.18-34.03723.9607-3.01364,2.23933-6.78689,3.821-10.98419-.12418.00736-.2448.02921-.369.02921a9.20479,9.20479,0,0,1-1.92876-.208C246.278,126.35354,243.47254,123.25941,241.95669,118.8066Z"/><path class="cls-4" d="M43.54122,180.9599a128.80816,128.80816,0,0,0,8.62067,13.3914c14.7648-10.22437,34.0738-17.60676,34.0738-17.60676s-.497-1.45744-1.42467-3.83545q-1.26714-3.25164-2.68858-6.44-1.03172-2.31558-2.13321-4.59905-.45482-.93674-.92413-1.86656l-.24837-.49317q-.56987-1.11767-1.1763-2.25383l-.13154-.24836q-2.27546-4.2623-4.946-8.29561c-5.92853-8.88732-13.44246-16.44875-21.8549-16.44518a15.72243,15.72243,0,0,0-8.20442,2.44757c-15.455,9.35128-7.47737,30.74957.4604,45.204Zm2.20991-26.15074a8.28838,8.28838,0,0,1,.34825-1.78273,7.75366,7.75366,0,0,1,.78412-1.7825,7.05077,7.05077,0,0,1,3.2803-2.83462l.24458-.10947.12061-.05128.41648-.12418.3177-.084.31414-.08762a9.79746,9.79746,0,0,1,1.44652-.12419l.37991.00736.28493.03656c.18059.02832.359.07113.54022.10635.1924.03746.38749.06778.57387.11282a10.05412,10.05412,0,0,1,1.80525.74243,11.25,11.25,0,0,1,1.55554.96337,19.07684,19.07684,0,0,1,2.29039,2.09219,25.884,25.884,0,0,1,1.90668,2.3022,37.39156,37.39156,0,0,1,2.88211,4.58435c.682,1.27952,1.29936,2.59093,1.87391,3.92061.18394.42562.34.86194.51279,1.29223.37233.92771.73151,1.86076,1.05122,2.80853q.396,1.17218.74,2.36129c.08316.28716.17613.57187.25394.8606.28895,1.07463.538,2.16018.75982,3.25287.02854.14046.07023.2778.09766.41848.0836.40511.14046.76473.18616,1.08065.04214.291.07469.546.10613.74578l.06822.58435.00847.07313-.00044-.00044c-.00134-.00134-.59261-.70944-1.541-1.96109q-1.95-2.5644-3.80646-5.19813c-1.52678-2.14414-3.26559-4.639-5.14307-7.196-.94242-1.27127-1.93611-2.54233-2.95144-3.75519a20.77418,20.77418,0,0,0-3.13426-3.09747,5.45964,5.45964,0,0,0-1.2608-.73507l-.01761-.01026a.443.443,0,0,1-.17546-.03656l-.0437-.02185.05262.01047.002.00045a.20709.20709,0,0,0,.10969-.02921l.03568-.02586.01471-.01092c.01962-.01606.0272-.02921-.02118-.02163l-.31771.06577-.19731.03657a1.33328,1.33328,0,0,0-.5955.34334,3.0401,3.0401,0,0,0-.52952,1.13973,8.18343,8.18343,0,0,0-.24948,1.81974c-.00223.05418.00424.11148.00245.16588-.01828.61312-.00758,1.24942.02765,1.86811.09141,1.37339.2778,2.72872.48225,3.99263.4129,2.52761.86951,4.70117,1.16893,6.23888.12352.6042.21716,1.07708.29408,1.46947.11772.60086.18594.96561.18728.97341l.00089.00469s-.16454-.16454-.453-.48225c-.13243-.159-.30634-.35293-.501-.579l-.02542-.0301c-.20133-.23454-.42628-.50521-.66083-.81912-.02051-.02631-.03723-.05552-.05774-.08205-.62093-.79973-1.2006-1.62956-1.74461-2.4819-.09074-.142-.18371-.30188-.27557-.45081-.4954-.804-.96315-1.62577-1.38832-2.47031-.02363-.04682-.05351-.08985-.07692-.13667-.0107-.02141-.01583-.045-.02653-.06644a27.17617,27.17617,0,0,1-1.66835-4.18192A14.95375,14.95375,0,0,1,45.75113,154.80916Z"/><path class="cls-5" d="M257.82086,82.97216v-.00357a8.97445,8.97445,0,0,1,1.92876.2118c4.72681,1.04119,7.91949,5.589,8.99322,11.89741,9.00794-12.65344,18.83412-19.04971,29.33249-19.04971a21.64209,21.64209,0,0,1,11.57212,3.05756c5.53791-6.73962,9.06278-11.38595,9.06278-11.38595-4.1643.75983-12.87259,1.89577-12.87259,1.89577,32.94142-12.11657,30.2894-45.058,30.2894-45.058,0,5.68037-17.0369,19.309-17.0369,19.309.75626-4.92033-1.89219-11.36031-1.89219-11.36031.75625,6.44-19.68891,23.097-19.68891,23.097,1.51228-3.02814.37634-8.32838.37634-8.32838-1.13238,6.06007-10.22058,8.32838-10.22058,8.32838,5.68016-6.81253,16.28064-42.78208,8.32838-45.05419S277.06409,34.002,277.06409,34.002c-.37991-6.05627-3.788-6.05627-3.788-6.05627,1.51585,18.92909-13.62885,34.07379-13.62885,34.07379-1.13594-3.78439-7.196-5.67659-7.196-5.67659,1.94325,4.21179-.27044,23.39282-.94978,28.83553A10.97588,10.97588,0,0,1,257.82086,82.97216Z"/><path d="M249.75177,119.82951a4.39961,4.39961,0,0,0,.5041.47489c.0622.04749.128.08026.19374.12418a2.70263,2.70263,0,0,0,1.00819.4711,2.99818,2.99818,0,0,0,1.05925.01828,6.34349,6.34349,0,0,0,3.17439-1.78607q1.53-3.58073,3.21809-7.09033,1.58887-3.28743,3.21453-6.27543c1.61462-8.56248-.55894-15.59418-3.75875-16.29536a2.47615,2.47615,0,0,0-.548-.05864c-3.28386,0-8.05816,5.71672-9.92851,14.22792-1.35889,6.1769-.73039,11.66732.86952,14.73559a6.8487,6.8487,0,0,0,.96783,1.42466v.00357Z"/><path class="cls-4" d="M298.34934,103.69111l.01828.02207.00357.00357a.11108.11108,0,0,0,.05128.01828l.0272.00268.00914.00089-.0729-.03656-.02587-.00781-.00624-.00178Z"/><polygon class="cls-4" points="298.075 82.468 298.077 82.468 298.079 82.468 298.075 82.468"/><path class="cls-4" d="M298.07734,82.46829c-18.75318.00133-32.549,28.22575-39.75952,47.40277q-2.85334,7.59385-5.12879,15.38593a11.13807,11.13807,0,0,1,2.64466.90229c10.92577-3.26937,25.06585-4.02919,35.74325-4.02919,9.03715,0,15.5866.53709,15.5866.53709C310.00194,138.69283,326.47165,82.47141,298.07734,82.46829Zm5.16714,28.63331c-.02787.07536-.04905.16387-.07714.23856a36.664,36.664,0,0,1-2.10021,4.47487,42.32149,42.32149,0,0,1-4.02563,6.02707,24.59877,24.59877,0,0,1-1.80323,2.081l-.00112.00111s.2263-.98255.65749-2.64823c.41268-1.6766,1.03739-4.03632,1.69488-6.81253.32507-1.3881.65013-2.8821.90586-4.42.05707-.33287.08539-.672.132-1.00975a18.89375,18.89375,0,0,0,.21872-3.54539,4.62684,4.62684,0,0,0-.36163-1.60347.42157.42157,0,0,0-.10947-.16454l-.00379-.00089-.01092-.00268c-.02051-.01026-.02876-.027-.04459-.041l.00379.00022.00356.00022a.04473.04473,0,0,0,.02052.00112l.0136.00067c.00267-.00625-.01294-.01628-.02966-.02475l-.00579-.00491a.04653.04653,0,0,0-.03523-.00178l-.01092-.00045c-.00223.00535.0127.01383.02608.02163l.00067.00045-.24525-.11215-.80352-.21916c-.34334-.10947-.6722-.1059-1.00462-.18617-.32863-.05863-.65013-.02207-.97519-.05863l-.00134.00022q-.47523.0408-.94844.09855a8.90084,8.90084,0,0,0-3.75162,1.70959,20.82677,20.82677,0,0,0-3.43725,3.33492,61.08309,61.08309,0,0,0-5.304,7.77323c-1.44651,2.4585-2.61545,4.59171-3.452,6.09663l-1.315,2.38894s-.00357-.06756-.00624-.19263c-.00268-.1224-.00468-.29965-.00112-.53063.01829-.464.01115-1.16158.09877-2.03087a40.78716,40.78716,0,0,1,1.24185-7.1561,35.3971,35.3971,0,0,1,4.12038-9.68371,20.93213,20.93213,0,0,1,4.15694-4.86905,14.01285,14.01285,0,0,1,6.59359-3.19268,18.4614,18.4614,0,0,1,1.94325-.15718,16.60171,16.60171,0,0,1,1.91405.14626,12.25519,12.25519,0,0,1,1.82286.40911l.85836.29229.4274.15339.05106.01829.02564.01092.30321.12775.0767.04392.16075.08406a6.91464,6.91464,0,0,1,2.04558,1.60347l.39708.50142.0194.02452.01092.01918.30322.52884a5.36251,5.36251,0,0,1,.482,1.09581,7.92079,7.92079,0,0,1,.2205,1.03561,10.76661,10.76661,0,0,1,.229,2.79984A20.254,20.254,0,0,1,303.24448,111.1016Z"/><path d="M197.87769,208.22473a24.72125,24.72125,0,0,0,10.0197-2.42907c7.47-3.36056,25.70885-21.67229,46.46436-46.65053a4.454,4.454,0,0,0-6.84352-5.70245l-.00936.01137c-9.03336,10.87071-34.39886,40.00589-43.14015,44.15927l-.12418.05841a18.75549,18.75549,0,0,1-4.68668,1.48664l-3.324.52238-2.43286-2.31959a4.5007,4.5007,0,0,0-3.07563-1.22,4.45515,4.45515,0,0,0-3.74782,6.84909C187.3209,203.52356,190.52071,208.22473,197.87769,208.22473Z"/><path d="M153.4335,209.72252l-1.30784.69405-1.47929.08762q-.53107.0301-1.063.02921c-4.16052,0-14.38132-1.31141-36.12674-10.08926-23.97-9.68371-33.46737-11.13022-36.996-11.13022a7.06957,7.06957,0,0,0-1.24563.08762,4.44992,4.44992,0,0,0-3.58352,5.17628,4.49338,4.49338,0,0,0,4.6247,3.65285l.48938-.02943.49317.04035c2.64466.21917,11.14115,1.68017,32.88658,10.46159,17.58112,7.10126,30.89226,10.703,39.57135,10.703,4.54421,0,7.6564-.979,9.2563-2.90039a4.45888,4.45888,0,0,0-3.42633-7.30213A4.51522,4.51522,0,0,0,153.4335,209.72252Z"/><path class="cls-5" d="M247.72447,312.30531c-.62828-3.777-9.66543-10.18045-32.00636-10.37041,0,0-.00424.05062-.0165.14626a13.06625,13.06625,0,0,1-.4245,1.93746c-.124.42539-.28181.90273-.4818,1.41953a20.03462,20.03462,0,0,1-6.76549,8.78076c-3.22456,2.42482-7.7924,4.51589-14.258,5.469-1.67281.24659-3.22433.42228-4.70184.55582-.17167.01472-.34245.03679-.51412.05039q-2.67978.22339-4.96092.223c-11.0096,0-15.34179-3.62364-17.8879-6.76883,0,0-.07759.02631-.22318.078-.13644.0486-.33309.11972-.58168.21292-3.73066,1.39924-19.21313,7.78058-20.54237,17.765a11.775,11.775,0,0,0-.10568,1.54417,10.01213,10.01213,0,0,0,.38325,2.79627c1.62421,5.636,8.12371,8.51767,13.97955,8.51767a13.77564,13.77564,0,0,0,6.56773-1.49757c4.49762-2.48637,10.39916-6.82056,17.70486-10.18335a50.89,50.89,0,0,1,14.6667-4.39528,43.34184,43.34184,0,0,1,5.2309-.23009c4.92412,0,11.63789.31771,18.14363.31771,7.39711,0,14.52735-.41268,18.46513-2.16977a19.35589,19.35589,0,0,0,2.93606-1.61128,14.54158,14.54158,0,0,0,2.19942-1.80457,12.03651,12.03651,0,0,0,1.56045-1.92452,11.16842,11.16842,0,0,0,1.356-2.95145,12.40964,12.40964,0,0,0,.48225-3.67135,14.52864,14.52864,0,0,0-.10747-1.558C247.79336,312.74475,247.76014,312.51823,247.72447,312.30531Z"/><path class="cls-7" d="M215.70161,302.08116a13.06625,13.06625,0,0,1-.4245,1.93746"/><path class="cls-1" d="M171.80855,311.2387c4.52638,2.88746,11.83877,4.1244,19.81176,2.80184q.76986-.13176,1.53414-.29229c10.765-2.2099,18.68072-8.42715,18.76834-14.648a7.32238,7.32238,0,0,0-.89493-3.61629,8.53683,8.53683,0,0,0-.91611-1.36045c-2.481-3.03037-7.3028-5.03114-13.16979-5.552-.17189-.01516-.33353-.04436-.50721-.05707q-1.83335-.12876-3.67047-.07759-1.835.05149-3.66065.282c-.548.06934-1.096.146-1.64762.23388a38.36808,38.36808,0,0,0-7.88158,2.18382c-8.03877,3.19892-13.209,8.72523-12.32592,14.06026a7.22014,7.22014,0,0,0,.29586,1.16158l.00044.00112A9.80461,9.80461,0,0,0,171.80855,311.2387Z"/></svg>