<svg width="90" height="90" viewBox="0 0 90 90" fill="none" xmlns="http://www.w3.org/2000/svg">
<path fill-rule="evenodd" clip-rule="evenodd" d="M4 6C4 4.89543 4.89543 4 6 4H84C85.1046 4 86 4.89543 86 6V84C86 85.1046 85.1046 86 84 86H6C4.89543 86 4 85.1046 4 84V6ZM19.8201 21C18.2626 21 17 22.2626 17 23.8201V60.3345C17 61.892 18.2626 63.1547 19.8201 63.1547H38.0033C36.0523 60.0111 34.9248 56.2957 34.9248 52.315C34.9248 41.0069 44.0241 31.8398 55.2486 31.8398C56.4752 31.8398 57.6765 31.9493 58.8432 32.1591V23.8201C58.8432 22.2626 57.5806 21 56.0231 21H19.8201ZM55.2812 35.4531C55.2704 35.4531 55.2595 35.4531 55.2486 35.4531C46.0049 35.4531 38.5113 43.0024 38.5113 52.315C38.5113 56.4425 39.9834 60.2237 42.4275 63.1547H42.4452C45.5155 66.8366 50.1196 69.1768 55.2663 69.1768C64.5101 69.1768 72.0036 61.6275 72.0036 52.315C72.0036 43.0074 64.5181 35.4612 55.2812 35.4531Z" fill="#326CE5"/>
</svg>
