<svg xmlns="http://www.w3.org/2000/svg" viewBox="0 0 104.1 101.6" style="enable-background:new 0 0 104.1 101.6" xml:space="preserve"><path d="m50.8.3-39.5 19c-.8.4-1.4 1.1-1.6 2L.1 63.9c-.2.8 0 1.7.6 2.4L28 100.5c.5.7 1.4 1.1 2.2 1.1H74c.9 0 1.7-.4 2.2-1.1l27.3-34.2c.5-.7.7-1.6.6-2.4l-9.7-42.7c-.2-.9-.8-1.6-1.6-2L53.4.2c-.9-.3-1.8-.3-2.6.1z" style="fill:#fff"/><linearGradient id="a" gradientUnits="userSpaceOnUse" x1="-.001" y1="50.811" x2="104.073" y2="50.811"><stop offset="0" style="stop-color:#f52d28"/><stop offset=".25" style="stop-color:#dc0032"/><stop offset=".5" style="stop-color:#be0028"/><stop offset=".75" style="stop-color:#aa052d"/><stop offset="1" style="stop-color:#960528"/></linearGradient><path d="M53.6 39.9c-.1-.1-.1-.2-.1-.3V24.3c0-.1.1-.3.2-.4.1-.1.2-.1.3-.1 4.9 1.1 9.3 6.3 12 14v.4c-.1.1-.2.2-.3.2-3.8 1-7.8 1.5-11.7 1.6-.1 0-.3 0-.4-.1zm-3.5 3c-4.2-.1-8.5-.7-12.6-1.8h-.1c-.1 0-.2 0-.2.1-.1.1-.2.2-.2.3-.7 3.1-1.2 6.2-1.3 9.3 0 .2.2.5.4.5H50c.3 0 .5-.2.5-.5v-7.5c.1-.2-.1-.4-.4-.4zm0-19H50c-4.9 1.1-9.3 6.3-12 13.9-.1.1-.1.3 0 .4.1.1.2.2.3.2 3.9 1 7.8 1.5 11.8 1.6.3 0 .5-.2.5-.5V24.3c0-.2-.2-.4-.5-.4zm0 30.3H36.2c-.1 0-.2.1-.3.1-.1.1-.1.2-.1.3.1 3.1.5 6.2 1.3 9.3 0 .1.1.2.2.3.1 0 .2.1.2.1h.1c4.1-1.1 8.3-1.6 12.6-1.8.3 0 .5-.2.5-.5v-7.5c-.1-.1-.3-.3-.6-.3zM35.2 68.5c-.1-.2-.2-.3-.4-.3h-.2c-1.7.6-3.4 1.4-5 2.3-.1.1-.2.2-.2.3 0 .1 0 .3.1.4 2.8 3.4 6.4 6.1 10.4 8h.2c.1 0 .3-.1.4-.2.1-.2.1-.4 0-.6-2.3-2.9-4.1-6.3-5.3-9.9zm-2.4-17.6c.1-3.5.6-6.9 1.4-10.3.1-.2-.1-.5-.3-.5-2.1-.7-4.1-1.6-6-2.8-.1 0-.2-.1-.2-.1-.2 0-.3.1-.4.2-2.5 4-4 8.6-4.3 13.4 0 .1 0 .2.1.3.1.1.2.2.3.2h8.9c.3 0 .5-.2.5-.4zm17.3 14.6c-4 .1-7.9.7-11.7 1.6-.1 0-.2.1-.3.2v.4c2.6 7.6 7.1 12.8 12 13.9h.1c.1 0 .2 0 .3-.1.1-.1.2-.2.2-.4V66c0-.1-.1-.2-.1-.3-.2-.2-.3-.2-.5-.2zm15.6 1.6c-3.8-1-7.7-1.5-11.7-1.6-.1 0-.2 0-.3.1-.1.1-.1.2-.1.3v15.2c0 .1.1.3.2.4.1.1.2.1.3.1h.1c4.9-1.1 9.3-6.3 11.9-13.9 0-.2-.1-.5-.4-.6zm4.2-26.5c.8 3.4 1.3 6.8 1.4 10.3 0 .3.2.5.5.5h8.9c.1 0 .3-.1.3-.2.1-.1.1-.2.1-.3-.3-4.7-1.8-9.3-4.3-13.4-.1-.1-.2-.2-.4-.2-.1 0-.2 0-.2.1-1.9 1.1-3.9 2-6 2.8-.3-.1-.4.2-.3.4zm25.4 21.3c.1.6 0 1.2-.4 1.6l-23 28.8c-.4.5-.9.7-1.5.7H33.6c-.6 0-1.1-.3-1.5-.7l-23-28.8c-.4-.5-.5-1-.4-1.6L17 26c.1-.6.5-1 1-1.3l33.2-16c.5-.3 1.1-.3 1.6 0l33.2 16c.5.3.9.7 1 1.3l8.3 35.9zM84 52.8c0-17.7-14.3-32-32-32s-32 14.3-32 32 14.3 32 32 32 32-14.4 32-32zm19.4 13.5-27.2 34.2c-.5.7-1.4 1.1-2.2 1.1H30.2c-.9 0-1.7-.4-2.2-1.1L.6 66.3c-.5-.7-.8-1.6-.6-2.4l9.7-42.7c.2-.9.8-1.6 1.6-2L50.8.2c.8-.4 1.7-.4 2.5 0l39.4 19c.8.4 1.4 1.1 1.6 2l9.7 42.7c.2.8 0 1.7-.6 2.4zm-4.8-5.2-8.2-35.9c-.4-1.6-1.4-2.9-2.9-3.6l-33.2-16c-1.5-.7-3.2-.7-4.6 0l-33.2 16c-1.5.7-2.5 2-2.9 3.6l-8.2 36c-.4 1.6 0 3.3 1 4.5l23 28.8c1 1.3 2.6 2 4.2 2h36.8c1.6 0 3.2-.7 4.2-2l23-28.8c1-1.3 1.4-3 1-4.6zm-30.7-6.9h-14c-.3 0-.5.2-.5.5v7.5c0 .3.2.5.5.5 4.2.1 8.5.7 12.6 1.7h.1c.1 0 .2 0 .2-.1.1-.1.2-.2.2-.3.7-3.1 1.2-6.2 1.3-9.3 0-.1 0-.2-.1-.3-.1-.2-.2-.2-.3-.2zm6.7-19.5c0-.1 0-.3-.1-.4-2.8-3.4-6.4-6.2-10.4-8h-.2c-.1 0-.3.1-.4.2-.1.2-.1.4 0 .6 2.3 3 4.1 6.4 5.3 10 .1.2.2.3.4.3h.2c1.7-.6 3.4-1.4 5-2.3.2-.1.2-.3.2-.4zm6 19.5h-8.9c-.3 0-.5.2-.5.5-.1 3.5-.6 6.9-1.4 10.3-.1.2.1.5.3.6 2.1.7 4.1 1.6 6 2.8.1 0 .1.1.2.1.2 0 .3-.1.4-.2 2.5-4 4-8.6 4.3-13.4 0-.1 0-.3-.1-.3 0-.3-.2-.4-.3-.4z" style="fill:url(#a)"/></svg>