<svg width="24px" height="24px" viewBox="0 0 24 24" fill="none" xmlns="http://www.w3.org/2000/svg">
<path fill-rule="evenodd" clip-rule="evenodd" d="M6.34436 13.507C8.70917 13.507 10.6262 15.4222 10.6262 17.7847C10.6262 20.1473 8.70917 22.0625 6.34436 22.0625C3.97956 22.0625 2.0625 20.1473 2.0625 17.7847C2.0625 15.4222 3.97956 13.507 6.34436 13.507ZM6.31007 15.3728L5.65864 16.0267L7.03712 17.4117L3.93012 17.411V18.3387L7.03912 18.3397L5.65864 19.7246L6.30987 20.3787L8.80416 17.8764L6.31007 15.3728ZM22.0625 2.0625V14.5857L17.743 14.5855L17.7433 18.9009L11.4661 18.9014C11.5492 18.5315 11.593 18.1467 11.593 17.7517C11.593 17.5213 11.5781 17.2943 11.5492 17.0718L15.912 17.0715L15.9123 12.7565H20.231V3.8915H11.358L11.3583 8.20686L7.03804 8.2065L7.03808 12.5657C6.81556 12.5369 6.58866 12.522 6.35827 12.522C5.9629 12.522 5.57776 12.5658 5.20746 12.6488L5.20804 6.37762L9.52704 6.3775L9.52729 2.0625H22.0625ZM18.4475 5.67407V10.9742L14.128 10.9735L14.1282 15.2893L10.9772 15.2886C10.4886 14.376 9.73694 13.6251 8.8234 13.137L8.82306 9.98919L13.142 9.9885L13.1423 5.67407H18.4475Z" fill="white"/>
</svg>
