<svg width="40" height="40" viewBox="0 0 40 40" fill="none" xmlns="http://www.w3.org/2000/svg">
<g clip-path="url(#clip0_23299_4190)">
<path d="M40 0H0V40H40V0Z" fill="#ED7100" fill-opacity="0.12"/>
<path fill-rule="evenodd" clip-rule="evenodd" d="M7.435 17.0224C7.43 16.9308 7.427 16.8381 7.427 16.7435C7.427 13.9349 9.321 12.8657 10.477 12.4745C10.471 12.3621 10.468 12.2478 10.468 12.1335C10.468 9.80782 12.048 7.39441 14.143 6.51932C16.598 5.49443 19.196 6.00589 21.096 7.88222C21.661 8.44098 22.127 9.11405 22.491 9.88961C23.194 9.35056 24.098 9.16332 24.962 9.41264C26.177 9.76248 26.995 10.8504 27.192 12.3543C27.822 12.506 28.746 12.843 29.513 13.5437C29.431 13.5398 29.35 13.5319 29.268 13.5319C28.824 13.5319 28.393 13.5861 27.978 13.6807C27.45 13.4186 26.936 13.2973 26.633 13.2451C26.366 13.2008 26.183 12.9524 26.224 12.6873C26.141 11.5058 25.564 10.6129 24.682 10.3587C23.962 10.1517 23.191 10.4277 22.715 11.0613C22.605 11.2082 22.428 11.2801 22.239 11.2564C22.056 11.2298 21.903 11.1057 21.841 10.9332C21.502 9.98914 21.013 9.19683 20.387 8.57796C19.619 7.81915 17.507 6.18525 14.534 7.42693C12.815 8.14435 11.468 10.2119 11.468 12.1335C11.468 12.3503 11.482 12.5651 11.506 12.7741C11.537 13.0194 11.376 13.2481 11.134 13.3092C10.123 13.5644 8.427 14.3479 8.427 16.7435C8.427 16.8224 8.43 16.9002 8.433 16.9761C8.449 17.2855 8.518 17.5812 8.614 17.8679H7.569C7.498 17.592 7.449 17.3102 7.435 17.0224ZM28.905 30.2749V28.1966L30.556 29.2363L28.905 30.2749ZM28.674 26.882C28.52 26.7854 28.325 26.7795 28.164 26.8652C28.004 26.952 27.905 27.1175 27.905 27.2979V31.1747C27.905 31.354 28.004 31.5196 28.164 31.6063C28.24 31.6467 28.322 31.6674 28.405 31.6674C28.498 31.6674 28.592 31.6408 28.674 31.5896L31.754 29.6511C31.898 29.5605 31.985 29.4038 31.985 29.2363C31.985 29.0677 31.898 28.9111 31.754 28.8204L28.674 26.882ZM29.268 33.0145C27.21 33.0145 25.536 31.3649 25.536 29.3368C25.536 27.3087 27.21 25.658 29.268 25.658C31.326 25.658 33 27.3087 33 29.3368C33 31.3649 31.326 33.0145 29.268 33.0145ZM7 28.7081H17V19.8389H7V28.7081ZM29.268 15.5028C31.326 15.5028 33 17.1525 33 19.1806C33 21.2087 31.326 22.8593 29.268 22.8593C27.21 22.8593 25.536 21.2087 25.536 19.1806C25.536 17.1525 27.21 15.5028 29.268 15.5028ZM29.268 24.6726C26.875 24.6726 24.913 26.4385 24.6 28.713L18 26.3183V23.6792L24.858 20.8342C25.538 22.5893 27.251 23.8448 29.268 23.8448C31.877 23.8448 34 21.7526 34 19.1806C34 16.6095 31.877 14.5174 29.268 14.5174C26.659 14.5174 24.536 16.6095 24.536 19.1806C24.536 19.4161 24.572 19.6418 24.606 19.8684L18 22.609V19.3461C18 19.0741 17.777 18.8534 17.5 18.8534H6.5C6.224 18.8534 6 19.0741 6 19.3461V29.2008C6 29.4738 6.224 29.6935 6.5 29.6935H17.5C17.777 29.6935 18 29.4738 18 29.2008V27.3688L24.579 29.7556C24.797 32.1286 26.804 34 29.268 34C31.877 34 34 31.9079 34 29.3368C34 26.7647 31.877 24.6726 29.268 24.6726ZM29 18.2424L30.577 19.2663L29 20.2902V18.2424ZM28.263 21.6393C28.337 21.6777 28.419 21.6975 28.5 21.6975C28.596 21.6975 28.693 21.6699 28.776 21.6166L31.76 19.6772C31.901 19.5866 31.985 19.4319 31.985 19.2663C31.985 19.1008 31.901 18.946 31.76 18.8544L28.776 16.916C28.622 16.8174 28.426 16.8086 28.263 16.8933C28.101 16.98 28 17.1456 28 17.3279V21.2047C28 21.386 28.101 21.5526 28.263 21.6393ZM10.933 23.087L13.408 24.2804L10.933 25.5082V23.087ZM10.433 26.8012C10.51 26.8012 10.587 26.7844 10.658 26.7489L14.756 24.714C14.926 24.6302 15.033 24.4577 15.032 24.2705C15.031 24.0842 14.922 23.9138 14.751 23.831L10.653 21.8541C10.498 21.7812 10.316 21.7881 10.168 21.8788C10.022 21.9694 9.933 22.1271 9.933 22.2976V26.3084C9.933 26.4799 10.023 26.6386 10.17 26.7283C10.251 26.7765 10.342 26.8012 10.433 26.8012Z" fill="#ED7100"/>
</g>
<rect x="0.5" y="0.5" width="39" height="39" stroke="#ED7100"/>
<defs>
<clipPath id="clip0_23299_4190">
<rect width="40" height="40" fill="white"/>
</clipPath>
</defs>
</svg>
