<svg id="Layer_1" data-name="Layer 1" xmlns="http://www.w3.org/2000/svg" viewBox="0 0 200 200"><defs><style>.cls-1{fill:none;}.cls-2{fill:#39509f;}</style></defs><path class="cls-1" d="M162.6936,33.7683C143.94688,26.76337,127.43143,32.51,112.957,45.04809c-3.21262,2.78287-4.84626,3.6438-8.3228.34919-5.66616-5.36978-11.62165-10.67-19.09866-13.51585-16.59018-6.31442-31.10506-1.66-43.23674,10.00192C29.74638,53.94989,26.01,69.084,30.22592,86.09322c.587,2.36826,1.97572,2.753,4.06835,2.72307,5.79569-.08295,11.60885-.28446,17.38467.06446,3.77032.22775,5.66651-1.10821,7.24659-4.4783,3.95868-8.44335,8.349-16.68471,12.76835-25.40609,4.45035,13.20619,8.67172,25.73309,13.6134,40.39729l9.7245-13.747,16.29695.83524,7.52338,14.6842,3.36235,7.06432,1.11759,2.34792c2.72637-8.05005,5.4717-18.45041,8.17375-26.50861,2.72376-8.12306,5.40444-16.26051,8.356-25.15046,5.58657,9.32669,13.36613,22.29382,18.47048,30.93608l24.42419-1.0247c2.44128.04007,3.46825-.73757,4.25884-3.19283C193.44652,65.665,182.41,41.1355,162.6936,33.7683Z"/><path class="cls-1" d="M152.04227,95.56949l-2.95727-4.9051-7.23665-12.00345c-6.22865,18.70912-12.11311,36.38415-18.2804,54.90888-5.27566-12.18278-12.28559-27.74935-17.20569-38.98976-.05411-.12363-.11151-.25405-.16514-.37666l-.61168-.0124-3.73346-.07548-3.16927-.064s-.15082.2272-.41748.62852c-1.97975,2.97939-10.56154,15.88775-14.74153,22.06257-.12494-.36358-.25673-.71894-.383-1.08088C79.057,103.963,74.28133,93.11369,70.22128,81.29942l-2.21176,3.677-5.90932,9.8241-1.202,1.99832c-.72524.12069-1.78419.215-3.05268.28926-3.10953.182-7.51337.23987-11.6048.24467q-.95831.00112-1.88516-.00144c-2.52458-.0063-4.815-.02925-6.44963-.05028-1.55788-.02007-2.52224-.03822-2.52224-.03822s.49968.58078,1.31006,1.51836c3.05289,3.532,10.58284,12.2058,13.10926,14.767.1472.14925.28358.28522.39482.39063,11.37972,10.77963,20.57838,19.4269,29.954,28.25164,7.94326,7.47645,16.01324,15.08,25.64808,24.21925,2.15792,2.04694,3.36907,2.36716,5.71932.13329,21.12163-20.076,42.39019-39.99782,63.58662-59.99549a30.29685,30.29685,0,0,0,6.8267-9.08729c-8.84412,0-20.38338.52235-28.32383.72771Z"/><path class="cls-2" d="M175.89027,31.607c-18.36143-13.31043-42.90316-12.26449-62.16258,2.01208-4.01671,2.97748-6.72375,3.62073-10.04069-.213a16.40046,16.40046,0,0,0-2.58753-2.1399c-11.74357-8.91392-24.691-13.15926-39.38874-9.45264C32.90955,29.07684,12.40342,54.554,21.98019,88.39805L4.93662,88.7306c-3.453-.20432-3.43139,1.74735-3.41564,4.19493.01644,2.55266-.25042,4.788,3.59723,4.58522,5.40581-.28487,10.84477.091,16.25633-.1337l2.9996-.1246a133.44,133.44,0,0,0,13.56592,16.738c18.82406,19.774,44.60736,42.02832,66.73034,63.23078,3.00014,2.87528,4.50549,2.883,7.49721.04377,22.362-21.22259,45.0756-42.07675,67.34091-63.3988,11.18917-10.71511,17.80709-23.84869,17.47989-39.85131C196.79223,56.49878,190.0143,41.84574,175.89027,31.607Zm-.78436,74.92046c-21.19643,19.99767-42.465,39.91945-63.58662,59.99549-2.35025,2.23387-3.5614,1.91365-5.71932-.13329-9.63484-9.13928-17.70482-16.7428-25.64808-24.21925-9.37566-8.82474-18.57432-17.472-29.954-28.25164-.11124-.10541-.24762-.24138-.39482-.39063-2.52642-2.56115-10.05637-11.23493-13.10926-14.767-.81038-.93758-1.31006-1.51836-1.31006-1.51836s.96436.01815,2.52224.03822c1.63467.021,3.92505.044,6.44963.05028q.92572.00237,1.88516.00144c4.09143-.0048,8.49527-.06268,11.6048-.24467,1.26849-.07425,2.32744-.16857,3.05268-.28926l1.202-1.99832,5.90932-9.8241,2.21176-3.677C74.28133,93.11369,79.057,103.963,83.14066,115.66169c.12631.36194.2581.7173.383,1.08088,4.18-6.17482,12.76178-19.08318,14.74153-22.06257.26666-.40132.41748-.62852.41748-.62852l3.16927.064,3.73346.07548.61168.0124c.05363.12261.111.253.16514.37666,4.9201,11.24041,11.93,26.807,17.20569,38.98976,6.16729-18.52473,12.05175-36.19976,18.2804-54.90888L149.085,90.66439l2.95727,4.9051,1.56651,2.59842c7.94045-.20536,19.47971-.72771,28.32383-.72771A30.29685,30.29685,0,0,1,175.10591,106.52749Zm11.90935-20.88964c-.79059,2.45526-1.81756,3.2329-4.25884,3.19283l-24.42419,1.0247c-5.10435-8.64226-12.88391-21.60939-18.47048-30.93608-2.95151,8.89-5.63219,17.0274-8.356,25.15046-2.702,8.0582-5.44738,18.45856-8.17375,26.50861l-1.11759-2.34792-3.36235-7.06432-7.52338-14.6842-16.29695-.83524-9.7245,13.747c-4.94168-14.6642-9.16305-27.1911-13.6134-40.39729-4.41932,8.72138-8.80967,16.96274-12.76835,25.40609-1.58008,3.37009-3.47627,4.70605-7.24659,4.4783-5.77582-.34892-11.589-.14741-17.38467-.06446-2.09263.02994-3.48133-.35481-4.06835-2.72307C26.01,69.084,29.74638,53.94989,42.29883,41.88335,54.43051,30.22142,68.94539,25.567,85.53557,31.88143c7.477,2.84582,13.4325,8.14607,19.09866,13.51585,3.47654,3.29461,5.11018,2.43368,8.3228-.34919C127.43143,32.51,143.94688,26.76337,162.6936,33.7683,182.41,41.1355,193.44652,65.665,187.01526,85.63785Z"/></svg>