<svg viewBox="0 0 141 155" fill="none" xmlns="http://www.w3.org/2000/svg">
        <path d="M60.6025 8.2735C66.7906 4.70085 74.4145 4.70085 80.6025 8.2735L125.554 34.2265C131.742 37.7992 135.554 44.4017 135.554 51.547V103.453C135.554 110.598 131.742 117.201 125.554 120.774L80.6025 146.727C74.4145 150.299 66.7906 150.299 60.6025 146.727L15.6506 120.773C9.46261 117.201 5.65063 110.598 5.65063 103.453V51.547C5.65063 44.4017 9.46261 37.7992 15.6506 34.2265L60.6025 8.2735Z" fill="#00B39F"/>
        <path d="M81.8525 6.10844C74.891 2.0892 66.3141 2.0892 59.3525 6.10844L14.4006 32.0614C7.43911 36.0807 3.15063 43.5085 3.15063 51.547V103.453C3.15063 111.491 7.43911 118.919 14.4006 122.939L59.3525 148.892C66.3141 152.911 74.891 152.911 81.8525 148.892L126.804 122.939C133.766 118.919 138.054 111.491 138.054 103.453V51.547C138.054 43.5085 133.766 36.0807 126.804 32.0614L81.8525 6.10844Z" stroke="#00B39F" stroke-opacity="0.5" stroke-width="5"/>
</svg>