<svg width="24px" height="24px" viewBox="0 0 24 24" fill="none" xmlns="http://www.w3.org/2000/svg">
<path d="M11.85 7C10.8413 7 9.85528 7.29911 9.01659 7.85951C8.1779 8.4199 7.52422 9.21641 7.13822 10.1483C6.75221 11.0802 6.65121 12.1057 6.848 13.095C7.04478 14.0843 7.53051 14.993 8.24376 15.7062C8.95701 16.4195 9.86574 16.9052 10.855 17.102C11.8443 17.2988 12.8698 17.1978 13.8017 16.8118C14.7336 16.4258 15.5301 15.7721 16.0905 14.9334C16.6509 14.0947 16.95 13.1087 16.95 12.1C16.95 10.7474 16.4127 9.45019 15.4562 8.49376C14.4998 7.53732 13.2026 7 11.85 7ZM11.85 16.08C11.0589 16.08 10.2855 15.8454 9.62772 15.4059C8.96992 14.9664 8.45723 14.3416 8.15448 13.6107C7.85173 12.8798 7.77252 12.0756 7.92686 11.2996C8.0812 10.5237 8.46217 9.81098 9.02158 9.25157C9.58099 8.69216 10.2937 8.3112 11.0696 8.15686C11.8456 8.00252 12.6498 8.08173 13.3807 8.38448C14.1116 8.68723 14.7364 9.19992 15.1759 9.85772C15.6154 10.5155 15.85 11.2889 15.85 12.08C15.8513 12.6061 15.7488 13.1273 15.5484 13.6138C15.348 14.1003 15.0535 14.5424 14.682 14.9149C14.3104 15.2874 13.869 15.5829 13.383 15.7846C12.8971 15.9862 12.3761 16.09 11.85 16.09V16.08Z" fill="white"/>
<path d="M13.7701 12.7101C13.6832 12.6289 13.5895 12.5553 13.4901 12.4901C13.1018 12.2559 12.667 12.1096 12.2161 12.0612C11.7652 12.0128 11.3093 12.0636 10.8801 12.2101C10.5525 12.2994 10.2486 12.4599 9.99012 12.6801C9.88348 12.7536 9.79482 12.8502 9.73076 12.9627C9.66669 13.0753 9.62887 13.2009 9.62012 13.3301V14.3301H14.0901V13.5101C14.0998 13.3613 14.0761 13.2122 14.0207 13.0738C13.9653 12.9354 13.8797 12.8111 13.7701 12.7101Z" fill="white"/>
<path d="M11.8497 11.5299C12.0791 11.5279 12.3028 11.458 12.4925 11.3289C12.6821 11.1998 12.8292 11.0173 12.9152 10.8046C13.0011 10.5919 13.0221 10.3585 12.9754 10.1338C12.9287 9.90923 12.8164 9.7035 12.6528 9.54268C12.4892 9.38186 12.2816 9.27316 12.0562 9.23034C11.8308 9.18753 11.5978 9.2125 11.3866 9.30212C11.1754 9.39174 10.9955 9.54197 10.8697 9.73381C10.7439 9.92566 10.6778 10.1505 10.6797 10.3799C10.685 10.6867 10.8106 10.9792 11.0294 11.1943C11.2483 11.4094 11.5429 11.53 11.8497 11.5299Z" fill="white"/>
<path d="M20.7798 10.7202H19.7398L20.5098 11.4902H18.2998V12.3902H20.5098L19.7398 13.1702H20.7798L21.9998 11.9402L20.7798 10.7202Z" fill="white"/>
<path d="M17.5397 8.50004L18.1797 9.14004L19.1597 8.17004V9.26004L19.8897 8.52004V6.79004H18.1597L17.4297 7.53004H18.5197L17.5397 8.50004Z" fill="white"/>
<path d="M19.1597 15.8302L18.1797 14.8602L17.5397 15.4902L18.5197 16.4702H17.4297L18.1597 17.2002H19.8897V15.4702L19.1597 14.7402V15.8302Z" fill="white"/>
<path d="M3.34977 10.6499C3.0832 10.6519 2.82318 10.7328 2.60249 10.8823C2.3818 11.0318 2.21033 11.2434 2.10968 11.4902C2.00903 11.7371 1.98372 12.0082 2.03694 12.2694C2.09015 12.5306 2.21951 12.7702 2.4087 12.958C2.59789 13.1458 2.83845 13.2734 3.10005 13.3247C3.36165 13.376 3.63257 13.3487 3.87867 13.2462C4.12477 13.1437 4.33502 12.9707 4.48293 12.7489C4.63083 12.5271 4.70976 12.2665 4.70977 11.9999C4.70977 11.8218 4.67452 11.6454 4.60606 11.481C4.53759 11.3166 4.43725 11.1673 4.31083 11.0418C4.18441 10.9163 4.03441 10.8171 3.86946 10.7498C3.70451 10.6826 3.52789 10.6486 3.34977 10.6499ZM3.34977 12.7499C3.19903 12.7499 3.0517 12.7051 2.92651 12.6211C2.80132 12.5372 2.70393 12.4179 2.64671 12.2784C2.58949 12.139 2.57504 11.9856 2.60518 11.838C2.63533 11.6903 2.70871 11.5549 2.816 11.449C2.92329 11.3431 3.05964 11.2715 3.20772 11.2433C3.3558 11.2152 3.50892 11.2316 3.6476 11.2907C3.78629 11.3498 3.90428 11.4487 3.98657 11.575C4.06887 11.7013 4.11175 11.8492 4.10977 11.9999C4.10714 12.1998 4.02591 12.3905 3.88366 12.5309C3.74142 12.6713 3.54961 12.75 3.34977 12.7499Z" fill="white"/>
</svg>
