<svg width="90" height="68" viewBox="0 0 90 68" fill="none" xmlns="http://www.w3.org/2000/svg">
<path fill-rule="evenodd" clip-rule="evenodd" d="M16.5859 19.8003H64.984V15.6523H16.5859V19.8003ZM47.2963 47.3602C47.8542 48.8635 48.6342 50.2593 49.5966 51.5082H16.5859V47.3602H47.2963ZM47.5759 35.6543C48.2242 34.1355 49.1034 32.7382 50.1694 31.5063H16.5859V35.6543H47.5759Z" fill="#326CE5"/>
<path fill-rule="evenodd" clip-rule="evenodd" d="M62.5424 51.9357C68.2008 51.9357 72.7879 47.3621 72.7879 41.7203C72.7879 36.0785 68.2008 31.5049 62.5424 31.5049C56.8839 31.5049 52.2969 36.0785 52.2969 41.7203C52.2969 47.3621 56.8839 51.9357 62.5424 51.9357ZM62.1071 46.168L68.7128 38.6408L67.1539 37.2728L61.2009 44.0563L57.256 40.9097L55.9627 42.5311L60.6811 46.2947L61.4545 46.9116L62.1071 46.168Z" fill="#326CE5"/>
<rect x="1.38266" y="1.88266" width="87.2347" height="64.2347" fill="#326CE5" fill-opacity="0.1" stroke="#326CE5" stroke-width="2.76532" stroke-dasharray="5.53 5.53"/>
</svg>
