<?xml version="1.0" encoding="UTF-8"?><!DOCTYPE svg><svg xmlns="http://www.w3.org/2000/svg" width="20" height="20" viewBox="0 0 50 50" fill="none" xmlns="http://www.w3.org/2000/svg">
<path xmlns="http://www.w3.org/2000/svg" fill-rule="evenodd" clip-rule="evenodd" d="M25 0C11.1898 0 0 11.4724 0 25.6315C0 36.9538 7.16146 46.5656 17.098 49.9531C18.3512 50.1867 18.807 49.4024 18.807 48.7183C18.807 48.1092 18.7826 46.4989 18.7744 44.3629C11.8164 45.9065 10.3516 40.9253 10.3516 40.9253C9.21224 37.9634 7.5765 37.1707 7.5765 37.1707C5.30599 35.5854 7.7474 35.6188 7.7474 35.6188C10.2539 35.8024 11.5723 38.2554 11.5723 38.2554C13.8021 42.1769 17.4235 41.0421 18.8477 40.3913C19.0755 38.731 19.7266 37.6046 20.4346 36.9621C14.8844 36.3197 9.04948 34.117 9.04948 24.2965C9.04948 21.4931 10.026 19.207 11.6211 17.4131C11.3688 16.7706 10.5062 14.1591 11.8652 10.6297C11.8652 10.6297 13.9648 9.94557 18.7419 13.258C20.7357 12.6906 22.876 12.4069 25 12.3986C27.124 12.4069 29.2643 12.6906 31.2581 13.258C36.0352 9.94557 38.1266 10.6297 38.1266 10.6297C39.4938 14.1591 38.6393 16.7706 38.3789 17.4131C39.9821 19.207 40.9424 21.4931 40.9424 24.2965C40.9424 34.142 35.0993 36.303 29.5329 36.9454C30.4281 37.7297 31.2256 39.2983 31.2256 41.6846C31.2256 45.1138 31.2012 47.8755 31.2012 48.7183C31.2012 49.4024 31.6488 50.2034 32.9183 49.9531C42.8467 46.5573 50 36.9538 50 25.6315C50 11.4724 38.8102 0 25 0Z" fill="white"></path>
</svg>