<svg width="40" height="40" viewBox="0 0 40 40" fill="none" xmlns="http://www.w3.org/2000/svg">
<g clip-path="url(#clip0_23294_2746)">
<path d="M40 0H0V40H40V0Z" fill="#8C4FFF" fill-opacity="0.12"/>
<path fill-rule="evenodd" clip-rule="evenodd" d="M27.163 15.543C25.324 15.9547 22.49 16.0378 20.5 16.0378C18.523 16.0378 15.715 15.9557 13.875 15.552L19.414 23.7488C19.47 23.8319 19.5 23.9301 19.5 24.0303V25.0981C20.201 25.3004 20.849 25.3034 21.5 25.1051V24.0303C21.5 23.9291 21.53 23.8309 21.587 23.7478L27.163 15.543ZM28.853 14.7717L28.883 14.7918L22.5 24.1835V25.4597C22.5 25.664 22.376 25.8483 22.186 25.9244C21.641 26.1438 21.093 26.253 20.533 26.253C19.977 26.253 19.412 26.1448 18.827 25.9295C18.631 25.8573 18.5 25.669 18.5 25.4597V24.1835L12.105 14.7186C12.043 14.6225 12 14.5203 12 14.4101C12 12.9847 16.692 12.7213 19.488 12.6902L19.5 13.6919C16.157 13.728 14.079 14.1016 13.288 14.3911C14.231 14.7006 16.821 15.0362 20.5 15.0362C23.95 15.0362 26.443 14.7407 27.517 14.4492C27.017 14.316 26.101 14.1337 24.439 13.9303L24.56 12.9356C28.682 13.4395 29 13.8642 29 14.4101C29 14.5413 28.94 14.6605 28.853 14.7717ZM16.5 11.0084H17.5V10.0067H16.5V11.0084ZM15.5 11.5092V9.50589C15.5 9.22842 15.724 9.00504 16 9.00504H18C18.276 9.00504 18.5 9.22842 18.5 9.50589V11.5092C18.5 11.7857 18.276 12.0101 18 12.0101H16C15.724 12.0101 15.5 11.7857 15.5 11.5092ZM20.5 8.00336H21.5V7.00168H20.5V8.00336ZM19.5 8.5042V6.50084C19.5 6.22337 19.724 6 20 6H22C22.276 6 22.5 6.22337 22.5 6.50084V8.5042C22.5 8.78067 22.276 9.00504 22 9.00504H20C19.724 9.00504 19.5 8.78067 19.5 8.5042ZM21.5 13.0118H22.5V12.0101H21.5V13.0118ZM21 11.0084H23C23.276 11.0084 23.5 11.2318 23.5 11.5092V13.5126C23.5 13.7891 23.276 14.0135 23 14.0135H21C20.724 14.0135 20.5 13.7891 20.5 13.5126V11.5092C20.5 11.2318 20.724 11.0084 21 11.0084ZM24.424 29.3332C24.505 29.5115 24.474 29.7218 24.345 29.8691L20.876 33.8287C20.781 33.9379 20.643 34 20.5 34C20.356 34 20.219 33.9379 20.124 33.8287L16.655 29.8691C16.526 29.7218 16.495 29.5115 16.576 29.3332C16.657 29.1529 16.835 29.0387 17.031 29.0387H18.484V28.037H19.484V29.5395C19.484 29.816 19.261 30.0404 18.984 30.0404H18.135L20.5 32.7389L22.865 30.0404H22C21.724 30.0404 21.5 29.816 21.5 29.5395V28.037H22.5V29.0387H23.969C24.165 29.0387 24.343 29.1529 24.424 29.3332Z" fill="#8C4FFF"/>
</g>
<rect x="0.5" y="0.5" width="39" height="39" stroke="#8C4FFF"/>
<defs>
<clipPath id="clip0_23294_2746">
<rect width="40" height="40" fill="white"/>
</clipPath>
</defs>
</svg>