<svg width="32" height="32" viewBox="0 0 32 32" fill="none" xmlns="http://www.w3.org/2000/svg"><g clip-path="url(#a)" fill="#fff"><path d="M3.095 8.319 2.3 7.094l4.682-2.178.794 1.225L3.095 8.32Zm7.46-3.47L9.76 3.622l4.205-1.973.794 1.225-4.206 1.973Zm4.285 9.866-4.207-1.905.715-1.225 4.206 1.906-.715 1.224Zm-7.063-3.198L3.57 9.612l.714-1.225 4.206 1.905-.714 1.225Zm10.157 3.063-.714-1.225 4.285-1.77.714 1.225-4.285 1.77Zm7.142-2.995-.714-1.225 4.285-1.769.714 1.225-4.285 1.77ZM14.363 30.707l-4.761-2.178.714-1.224 4.761 2.177-.714 1.225Zm-7.142-3.13-4.206-1.905.715-1.226 4.205 1.906-.714 1.225ZM2.936 10.088H1.35v5.24h1.587v-5.24ZM16.903 23.63h-1.587v5.376h1.587V23.63Z"/><path d="M2.143 10.633a2.36 2.36 0 0 1-1.508-.545C.238 9.748 0 9.272 0 8.795c0-.476.238-.952.635-1.293.793-.68 2.222-.68 3.015 0 .397.34.635.817.635 1.293 0 .477-.238.953-.635 1.293a2.36 2.36 0 0 1-1.507.545Zm0-2.314a.662.662 0 0 0-.397.136.484.484 0 0 0-.159.34c0 .136.08.273.159.34a.59.59 0 0 0 .793 0 .484.484 0 0 0 .16-.34.484.484 0 0 0-.16-.34.662.662 0 0 0-.396-.136Zm0 17.556a2.36 2.36 0 0 1-1.508-.544C.238 24.991 0 24.515 0 24.038c0-.476.238-.953.635-1.293.793-.68 2.222-.68 3.015 0 .397.34.635.817.635 1.293 0 .477-.238.953-.635 1.293a2.36 2.36 0 0 1-1.507.544Zm0-2.313a.662.662 0 0 0-.397.136.484.484 0 0 0-.159.34c0 .136.08.272.159.34a.59.59 0 0 0 .793 0 .484.484 0 0 0 .16-.34.484.484 0 0 0-.16-.34.663.663 0 0 0-.396-.136ZM16.11 32a2.36 2.36 0 0 1-1.509-.544c-.396-.34-.635-.817-.635-1.293 0-.477.239-.953.635-1.293.873-.749 2.222-.749 3.016 0 .873.748.873 1.905 0 2.586-.476.34-.952.544-1.508.544Zm0-2.382a.662.662 0 0 0-.398.137c-.238.204-.238.476 0 .68a.59.59 0 0 0 .794 0c.238-.204.238-.476 0-.68-.159-.069-.317-.137-.397-.137Zm0-12.929a2.36 2.36 0 0 1-1.509-.544c-.396-.34-.635-.817-.635-1.293 0-.477.239-.953.635-1.293.873-.749 2.222-.749 3.016 0 .873.748.873 1.905 0 2.586-.476.408-.952.544-1.508.544Zm0-2.314a.662.662 0 0 0-.398.136c-.238.205-.238.477 0 .681a.59.59 0 0 0 .794 0c.238-.204.238-.476 0-.68-.159-.069-.317-.137-.397-.137Zm13.728 11.5a2.36 2.36 0 0 1-1.508-.544c-.873-.748-.873-1.905 0-2.586.793-.68 2.222-.68 3.015 0 .397.34.635.817.635 1.293 0 .477-.238.953-.635 1.293a2.36 2.36 0 0 1-1.507.544Zm0-2.313a.662.662 0 0 0-.397.136c-.238.204-.238.476 0 .68a.59.59 0 0 0 .793 0c.238-.204.238-.476 0-.68a.663.663 0 0 0-.396-.136Zm0-12.929a2.36 2.36 0 0 1-1.508-.545c-.873-.748-.873-1.905 0-2.586.793-.68 2.222-.68 3.015 0 .873.749.873 1.906 0 2.586a2.36 2.36 0 0 1-1.507.545Zm0-2.314a.663.663 0 0 0-.397.136c-.238.204-.238.476 0 .68a.59.59 0 0 0 .793 0c.238-.204.238-.476 0-.68a.662.662 0 0 0-.396-.136ZM16.11 3.692a2.36 2.36 0 0 1-1.509-.545c-.396-.34-.635-.816-.635-1.293 0-.476.239-.952.635-1.293.873-.748 2.222-.748 3.016 0 .873.749.873 1.906 0 2.586-.476.34-.952.545-1.508.545Zm0-2.314a.662.662 0 0 0-.398.136c-.238.204-.238.476 0 .68a.59.59 0 0 0 .794 0c.238-.204.238-.476 0-.68-.159-.136-.317-.136-.397-.136Z"/><path d="M2.936 16.689H1.35v5.852h1.587V16.69Zm27.616-6.601h-1.587v5.24h1.587v-5.24Zm0 6.601h-1.587v5.852h1.587V16.69Zm-6.11-10.616.793-1.225 4.523 2.11-.793 1.225-4.523-2.11Zm-7.619-3.538.794-1.225 4.84 2.245-.793 1.225-4.84-2.245Zm.08 13.61h-1.587v5.376h1.587v-5.376Zm.237 13.405 4.603-2.041.715 1.225-4.603 2.041-.714-1.225Zm6.905-3.062 4.523-2.041.714 1.225-4.523 2.04-.714-1.224Z"/></g><defs><clipPath id="a"><path fill="#fff" d="M0 0h32v32H0z"/></clipPath></defs></svg>