<svg xmlns="http://www.w3.org/2000/svg" xmlns:xlink="http://www.w3.org/1999/xlink" style="enable-background:new 0 0 50 50" id="Layer_1" x="0" y="0" version="1.1" viewBox="0 0 50 50" xml:space="preserve"><style type="text/css">.st0{fill:#ef9337}</style><g id="ICONS_-_EDIT"><g><g><g><g><g><path d="M8.9,13.8l-1-1.8l5.9-3.2l1,1.8L8.9,13.8z M18.3,8.7l-1-1.8L22.6,4l1,1.8L18.3,8.7z" class="st0"/><path d="M23.7,23.2l-5.3-2.8l0.9-1.8l5.3,2.8L23.7,23.2z M14.8,18.5l-5.3-2.8l0.9-1.8l5.3,2.8L14.8,18.5z" class="st0"/><path d="M27.6,23l-0.9-1.8l5.4-2.6l0.9,1.8L27.6,23z M36.6,18.6l-0.9-1.8l5.4-2.6L42,16L36.6,18.6z" class="st0"/></g><g><path d="M23.1,46.7l-6-3.2l0.9-1.8l6,3.2L23.1,46.7z M14.1,42.1l-5.3-2.8l0.9-1.8l5.3,2.8L14.1,42.1z" class="st0"/></g><rect width="2" height="7.7" x="6.7" y="16.4" class="st0"/><rect width="2" height="7.9" x="24.3" y="36.3" class="st0"/><g><path d="M7.7,17.2c-0.7,0-1.4-0.3-1.9-0.8C5.3,15.9,5,15.2,5,14.5s0.3-1.4,0.8-1.9c1-1,2.8-1,3.8,0l0,0 c0.5,0.5,0.8,1.2,0.8,1.9s-0.3,1.4-0.8,1.9S8.4,17.2,7.7,17.2z M7.7,13.8c-0.2,0-0.4,0.1-0.5,0.2C7.1,14.1,7,14.3,7,14.5 s0.1,0.4,0.2,0.5c0.3,0.3,0.7,0.3,1,0c0.1-0.1,0.2-0.3,0.2-0.5S8.3,14.1,8.2,14S7.9,13.8,7.7,13.8z" class="st0"/></g><g><path d="M7.7,39.6c-0.7,0-1.4-0.3-1.9-0.8S5,37.6,5,36.9c0-0.7,0.3-1.4,0.8-1.9c1-1,2.8-1,3.8,0l0,0l0,0l0,0 c0.5,0.5,0.8,1.2,0.8,1.9s-0.3,1.4-0.8,1.9C9.1,39.3,8.4,39.6,7.7,39.6z M7.7,36.2c-0.2,0-0.4,0.1-0.5,0.2 C7.1,36.5,7,36.7,7,36.9s0.1,0.4,0.2,0.5c0.3,0.3,0.7,0.3,1,0c0.1-0.1,0.2-0.3,0.2-0.5s-0.1-0.4-0.2-0.5l0,0 C8.1,36.3,7.9,36.2,7.7,36.2z" class="st0"/></g><g><path d="M25.3,48.6c-0.7,0-1.4-0.3-1.9-0.8s-0.8-1.2-0.8-1.9s0.3-1.4,0.8-1.9c1.1-1.1,2.8-1.1,3.8,0 c1.1,1.1,1.1,2.8,0,3.8C26.6,48.3,26,48.6,25.3,48.6z M25.3,45.1c-0.2,0-0.4,0.1-0.5,0.2c-0.3,0.3-0.3,0.7,0,1s0.7,0.3,1,0 s0.3-0.7,0-1C25.6,45.2,25.4,45.1,25.3,45.1z" class="st0"/></g><g><path d="M25.3,26.1c-0.7,0-1.4-0.3-1.9-0.8s-0.8-1.2-0.8-1.9c0-0.7,0.3-1.4,0.8-1.9c1.1-1.1,2.8-1.1,3.8,0 c1.1,1.1,1.1,2.8,0,3.8C26.6,25.9,26,26.1,25.3,26.1z M25.3,22.7c-0.2,0-0.4,0.1-0.5,0.2c-0.3,0.3-0.3,0.7,0,1s0.7,0.3,1,0 s0.3-0.7,0-1C25.6,22.8,25.4,22.7,25.3,22.7z" class="st0"/></g><g><path d="M42.6,39.6c-0.7,0-1.4-0.3-1.9-0.8c-1.1-1.1-1.1-2.8,0-3.8c1-1,2.8-1,3.8,0c0.5,0.5,0.8,1.2,0.8,1.9 s-0.3,1.4-0.8,1.9C44,39.3,43.3,39.6,42.6,39.6z M42.6,36.2c-0.2,0-0.4,0.1-0.5,0.2c-0.3,0.3-0.3,0.7,0,1s0.7,0.3,1,0 s0.3-0.7,0-1C43,36.3,42.8,36.2,42.6,36.2z" class="st0"/></g><g><path d="M42.6,17.2c-0.7,0-1.4-0.3-1.9-0.8c-1.1-1.1-1.1-2.8,0-3.8c1-1,2.8-1,3.8,0l0,0c1.1,1.1,1.1,2.8,0,3.8 C44,16.9,43.3,17.2,42.6,17.2z M42.6,13.8c-0.2,0-0.4,0.1-0.5,0.2c-0.3,0.3-0.3,0.7,0,1s0.7,0.3,1,0s0.3-0.7,0-1 C43,13.9,42.8,13.8,42.6,13.8z" class="st0"/></g><g><path d="M25.3,7c-0.7,0-1.4-0.3-1.9-0.8S22.6,5,22.6,4.3s0.3-1.4,0.8-1.9c1.1-1.1,2.8-1.1,3.8,0 c1.1,1.1,1.1,2.8,0,3.8C26.6,6.7,26,7,25.3,7z M25.3,3.6c-0.2,0-0.4,0.1-0.5,0.2c-0.3,0.3-0.3,0.7,0,1s0.7,0.3,1,0 s0.3-0.7,0-1C25.6,3.6,25.4,3.6,25.3,3.6z" class="st0"/></g></g></g><rect width="2" height="8.6" x="6.7" y="26.1" class="st0"/><rect width="2" height="7.7" x="41.5" y="16.4" class="st0"/><rect width="2" height="8.6" x="41.5" y="26.1" class="st0"/><path d="M35.8,10.5l1-1.8l5.7,3.1l-1,1.8L35.8,10.5z M26.2,5.3l1-1.8l6.1,3.3l-1,1.8L26.2,5.3z" class="st0"/><rect width="2" height="7.9" x="24.3" y="25.3" class="st0"/><g><path d="M26.6,45l5.8-3l0.9,1.8l-5.8,3L26.6,45z M35.3,40.5l5.7-3l0.9,1.8l-5.7,3L35.3,40.5z" class="st0"/></g></g></g></g></svg>