<svg xmlns="http://www.w3.org/2000/svg" xmlns:xlink="http://www.w3.org/1999/xlink" id="Layer_1" x="0" y="0" enable-background="new 0 0 144 144" version="1.1" viewBox="0 0 144 144" xml:space="preserve"><style type="text/css">.st0{fill:#fff}</style><g id="black"><g id="Ciricle_copy_10"><path d="M144,72c0,39.8-32.2,72-72,72c-39.8,0-72-32.2-72-72S32.2,0,72,0C111.8,0,144,32.2,144,72"/></g><g id="Logo_symbol_copy_10"><g><path d="M45.5,59c2.1,0,3.9-1.7,3.9-3.9s-1.7-3.9-3.9-3.9c-2.1,0-3.9,1.7-3.9,3.9S43.3,59,45.5,59" class="st0"/><rect width="6.2" height="22.6" x="42.4" y="60.7" class="st0"/><path d="M95.8,84.9c-2.1,0-3.9,1.7-3.9,3.9c0,2.1,1.7,3.9,3.9,3.9c2.1,0,3.9-1.7,3.9-3.9 C99.7,86.7,98,84.9,95.8,84.9" class="st0"/><rect width="6.2" height="22.6" x="92.7" y="60.7" class="st0"/><path d="M36.1,75l-0.2,0.3c-0.7,0.9-1.5,1.5-2.3,1.9c-0.9,0.4-1.8,0.6-2.8,0.6c-1.7,0-3-0.5-4.1-1.6 c-1.1-1-1.6-2.4-1.6-4c0-1.8,0.5-3.2,1.6-4.3c1-1.1,2.4-1.6,4.1-1.6c1,0,1.9,0.2,2.8,0.6c1,0.4,1.7,1,2.3,1.9l0.2,0.3l3.4-5.2 l-0.2-0.1c-1.8-1.6-3.7-2.7-5.8-3.1c-1-0.2-2.1-0.4-3.4-0.4c-3.3,0-6.1,1.1-8.3,3.4c-2.2,2.2-3.3,5.1-3.3,8.4s1.1,6.2,3.3,8.4 c2.2,2.2,5,3.3,8.3,3.3c1.3,0,2.5-0.1,3.4-0.4c1-0.3,3.7-1.1,5.9-3.5l0.1-0.1L36.1,75z" class="st0"/><polygon points="51.2 60.7 51.2 66.3 57.2 66.3 57.2 83.3 63.4 83.3 63.4 66.3 69.3 66.3 69.3 60.7" class="st0"/><path d="M84.2,74.4c1.5-0.4,2.7-1.1,3.5-2.1c0.9-1.1,1.3-2.6,1.3-4.3c0-2.5-0.8-4.4-2.3-5.5 c-1.5-1.2-4.1-1.7-7.7-1.7h-7v22.6h6.3v-8l4.7,8h7.4L84.2,74.4z M81.7,70.6c-0.6,0.4-1.5,0.6-2.7,0.6h-0.8v-5.4h0.9 c1.2,0,2.1,0.2,2.6,0.7c0.5,0.4,0.7,1.2,0.7,2.2C82.5,69.6,82.3,70.2,81.7,70.6z" class="st0"/><polygon points="112 76.2 116.7 83.3 123.9 83.3 115.9 71.4 123.1 60.7 115.9 60.7 112 66.6 108.1 60.7 100.9 60.7 108.2 71.4 100.2 83.3 107.4 83.3" class="st0"/><path d="M126.7,60.6c-1.5,0-2.8,1.2-2.8,2.8c0,1.5,1.2,2.8,2.8,2.8c1.5,0,2.8-1.2,2.8-2.8 C129.4,61.9,128.2,60.6,126.7,60.6z M126.7,65.7c-1.3,0-2.3-1-2.3-2.3c0-1.3,1-2.3,2.3-2.3c1.3,0,2.3,1,2.3,2.3 C129,64.7,127.9,65.7,126.7,65.7z" class="st0"/><path d="M127.3,63.6c0.6-0.1,0.7-0.6,0.7-0.9c0-0.8-0.6-0.9-1-0.9h-1.4v3.1h0.5v-1.3h0.7l0.8,1.2l0,0h0.6L127.3,63.6 z M126.1,63.2v-0.9h0.8c0.4,0,0.6,0.1,0.6,0.5s-0.2,0.5-0.6,0.5H126.1z" class="st0"/></g></g></g></svg>