<svg id="Layer_1" data-name="Layer 1" xmlns="http://www.w3.org/2000/svg" viewBox="0 0 145 145"><title>failing</title><path d="M72.45.5A72.08,72.08,0,0,1,144.5,72.4c.1,39.61-32.22,72-71.95,72.1a72,72,0,1,1-.1-144Zm.2,124A52,52,0,1,0,20.55,73,52,52,0,0,0,72.65,124.5Z" style="fill:#b33700"/><path d="M72.49,86.41C67.39,92,63.29,96.71,59,101c-5.1,5.1-11.3,5.2-15.8.5C38.79,97,39,91,43.79,86c4.1-4.3,8.4-8.6,12.5-12.9.1-.1.1-.3.5-1-4-4-8.1-8.3-12.3-12.5-5.4-5.6-5.9-11.5-1.3-16.3s11-4.5,16.6,1.2c4.1,4.1,7.9,8.5,13,14.1,4.1-4.8,7.3-8.8,10.9-12.4,7.1-7.2,12.8-8.1,18-3s4.3,11.1-2.7,18c-3.7,3.6-7.7,6.8-12.7,11.2,5.7,5.2,10.4,9.2,14.7,13.5,5.1,5,5.2,11.4.6,15.9s-10.6,4.4-15.8-.9C81.69,96.61,77.69,92,72.49,86.41Z" style="fill:#d43800"/></svg>