<svg xmlns="http://www.w3.org/2000/svg" viewBox="0 0 143.9 143.6"><defs><style>.cls-1{fill:#7a848e;}.cls-2{fill:#969696;}</style></defs><g id="Layer_2" data-name="Layer 2"><g id="Layer_1-2" data-name="Layer 1"><path class="cls-1" d="M71.9,0a72,72,0,0,1,72,71.7c.1,39.5-32.2,71.8-71.9,71.9A71.8,71.8,0,1,1,71.9,0Zm.3,123.7A52,52,0,1,0,20.1,72.2,52,52,0,0,0,72.2,123.7Z"/><path class="cls-2" d="M52.79,52.52h6.06a1.25,1.25,0,0,1,1.38,1.37V89.71a1.25,1.25,0,0,1-1.38,1.37H54.72A1.9,1.9,0,0,1,53,90.2L39.84,69.6V89.71a1.24,1.24,0,0,1-1.38,1.37H32.4A1.24,1.24,0,0,1,31,89.71V53.89a1.24,1.24,0,0,1,1.37-1.37h4.14a1.89,1.89,0,0,1,1.7.88L51.41,74V53.89A1.25,1.25,0,0,1,52.79,52.52Z"/><path class="cls-2" d="M62.28,96.59c-.66,0-1-.38-.72-1L82.88,47.67a.94.94,0,0,1,1-.66h1.44c.66,0,1,.38.71,1L64.7,95.93a.93.93,0,0,1-1,.66Z"/><path class="cls-2" d="M115.87,91.08h-6.78a1.43,1.43,0,0,1-1.54-1.15L106.1,85H92.58l-1.45,4.91a1.43,1.43,0,0,1-1.54,1.15H82.81c-1,0-1.49-.55-1.16-1.54L93.33,53.67a1.55,1.55,0,0,1,1.6-1.15h8.82a1.53,1.53,0,0,1,1.59,1.15L117,89.54C117.35,90.53,116.86,91.08,115.87,91.08ZM103.65,76.76l-4.31-14.6L95,76.76Z"/></g></g></svg>