<svg xmlns="http://www.w3.org/2000/svg" xmlns:xlink="http://www.w3.org/1999/xlink" id="Layer_1" x="0" y="0" version="1.1" viewBox="0 0 318 361" xml:space="preserve" style="enable-background:new 0 0 318 361"><style type="text/css">.st0{fill:#009639}.st1{fill:none;stroke:#fff;stroke-width:6.0241;stroke-miterlimit:10}.st2{fill:#fff}.st3{fill:#989898}</style><g><g><path d="M3.1127,270.0055c1.6271,2.8325,3.9871,5.1744,6.832,6.7797l139.7648,80.6932l0.0044-0.0044 c5.7342,3.368,12.8423,3.368,18.5765,0l139.7691-80.6932c5.7819-3.2802,9.3345-9.4337,9.2839-16.0811V99.3134l-0.0044-0.0044 c0.05-6.6494-3.5043-12.8047-9.2883-16.0854L168.2817,2.5304V2.526c-5.7295-3.3681-12.834-3.3681-18.5635,0v0.0044L9.9535,83.2236 c-5.7869,3.2783-9.3434,9.4346-9.2926,16.0854l-0.0044,0.0044v161.3864c-0.0314,3.2656,0.8154,6.4796,2.4519,9.3057" class="st0"/><g><polyline points="160.009 181.571 73.852 229.643 160.009 281.123" class="st1"/><polyline points="71.834 130.357 160.009 78.877 160.009 181.571 246.166 130.357 246.166 229.643 160.009 181.571" class="st1"/><circle cx="71.834" cy="130.357" r="23.657" class="st2"/><circle cx="246.166" cy="130.357" r="23.657" class="st2"/><circle cx="160.009" cy="78.877" r="23.657" class="st2"/><circle cx="160.009" cy="181.571" r="23.657" class="st2"/><circle cx="73.852" cy="229.643" r="23.657" class="st2"/><circle cx="160.009" cy="281.123" r="23.657" class="st2"/><circle cx="246.166" cy="229.643" r="23.657" class="st2"/></g></g><path d="M300.4747,326.5712h2.2967v-5.1155h1.8168c1.201,0,2.0626,0.1171,2.5518,0.4261 c0.803,0.4706,1.2128,1.4796,1.2128,2.9756v1.0489l0.0515,0.391c0.0281,0.0866,0.0281,0.1217,0.0352,0.1639 c0.0117,0.0632,0.0164,0.0819,0.0515,0.11h2.1281l-0.0773-0.1452c-0.0632-0.0983-0.0983-0.3207-0.103-0.6649 c-0.0305-0.3676-0.0305-0.6813-0.0305-0.9716v-0.9692c0-0.6508-0.2434-1.3157-0.7117-2.0275 c-0.4823-0.6859-1.2408-1.0933-2.2663-1.2736c0.8101-0.1358,1.4469-0.3512,1.8893-0.6134 c0.8686-0.5478,1.2689-1.4375,1.2689-2.5753c0-1.6365-0.6461-2.7556-2.0087-3.3034c-0.7515-0.3091-1.9291-0.4659-3.5609-0.4659 h-4.5442L300.4747,326.5712L300.4747,326.5712z M307.0066,319.5571c-0.4612,0.199-1.194,0.2903-2.1843,0.2903h-2.0508v-4.7362 h1.9572c1.2689,0,2.189,0.1803,2.7603,0.508c0.5829,0.3254,0.8639,0.9552,0.8639,1.8987 C308.3528,318.5246,307.9149,319.1848,307.0066,319.5571 M313.6766,311.7375c-2.3365-2.3061-5.1319-3.4485-8.4353-3.4485 c-3.2332,0-6.0543,1.1425-8.3369,3.4485c-2.3365,2.3131-3.4673,5.1108-3.4673,8.3954c0,3.28,1.1191,6.0894,3.4251,8.3908 c2.2896,2.3365,5.1154,3.4954,8.3791,3.4954c3.3034,0,6.0988-1.1589,8.4353-3.4954c2.2897-2.3131,3.4719-5.1342,3.4719-8.3908 C317.1485,316.8249,315.9663,314.0506,313.6766,311.7375 M312.4709,312.9152c1.9993,1.9525,2.9779,4.3874,2.9779,7.2178 c0,2.8024-0.9786,5.2559-2.9779,7.253c-1.969,1.9876-4.3874,3.0084-7.2296,3.0084c-2.8211,0-5.2255-1.0208-7.2202-3.0084 c-1.9572-1.997-2.9639-4.4506-2.9639-7.253c0-2.8305,1.0067-5.2653,2.9639-7.2178c2.0228-2.0321,4.4178-3.0295,7.2202-3.0295 C308.0718,309.8857,310.4785,310.883,312.4709,312.9152" class="st3"/></g></svg>