<svg xmlns="http://www.w3.org/2000/svg" xmlns:xlink="http://www.w3.org/1999/xlink" id="Layer_1" x="0" y="0" version="1.1" viewBox="0 0 174.4 198.3" xml:space="preserve" style="enable-background:new 0 0 174.4 198.3"><style type="text/css">.st0{fill:#009639}.st1{fill:#fff}</style><title>NGINX Logo White Endorsement RGB</title><path d="M1.4,148.7c0.9,1.6,2.2,2.8,3.8,3.7l77,44.4l0,0c3.2,1.9,7.1,1.9,10.2,0l77-44.4c3.2-1.8,5.1-5.2,5.1-8.9V54.7	l0,0c0-3.7-1.9-7.1-5.1-8.9l-77-44.4l0,0c-3.2-1.9-7.1-1.9-10.2,0l0,0l-77,44.4C1.9,47.6,0,51,0,54.7l0,0v88.9	C0,145.4,0.4,147.1,1.4,148.7" class="st0"/><path d="M62.6,133c0,5.5-4.4,9.9-9.9,9.9s-9.9-4.4-9.9-9.9l0,0V65.1c0-5.3,4.7-9.6,11.2-9.6c4.7,0,10.2,1.9,13.5,6	l3,3.6l41.4,49.5V65.3l0,0c0-5.5,4.4-9.9,9.9-9.9s9.9,4.4,9.9,9.9l0,0v67.9c0,5.3-4.7,9.6-11.2,9.6c-4.7,0-10.2-1.9-13.5-6l-44.4-53	V133L62.6,133z" class="st1"/></svg>