<svg height="1200" viewBox="0 0 1200 1200" width="1200" xmlns="http://www.w3.org/2000/svg" xmlns:xlink="http://www.w3.org/1999/xlink"><defs><path id="a" d="m.31406045 255.102725 437.39368055 254.525902 435.266552-256.473758-435.266552-252.57804465z"/><mask id="b" fill="#fff"><use fill="#fff" fill-rule="evenodd" xlink:href="#a"/></mask></defs><g fill="none" fill-rule="nonzero" transform="translate(145 70)"><g fill="#b6e2d6" stroke="#fff" stroke-width="4"><ellipse cx="132.80633" cy="790.408167" rx="62.962227" ry="33.729225"/><ellipse cx="457.617465" cy="985.286728" rx="62.962227" ry="33.729225"/><ellipse cx="782.428599" cy="790.400047" rx="62.962227" ry="33.729225"/><ellipse cx="291.963786" cy="884.603396" rx="62.962227" ry="33.729225"/><ellipse cx="623.271143" cy="884.595276" rx="62.962227" ry="33.729225"/><ellipse cx="457.617465" cy="822.88116" rx="62.962227" ry="33.729225"/><ellipse cx="291.963786" cy="744.934608" rx="62.962227" ry="33.729225"/><ellipse cx="623.271143" cy="744.926488" rx="62.962227" ry="33.729225"/></g><path d="m18.494482 635.525784 437.393681 254.525901 435.266551-256.473758-435.266551-252.578044z" fill="#1128a9"/><g transform="translate(18.180422 250.00006)"><path d="m.31406045 255.102725 437.39368055 254.525902 435.266552-256.473758-435.266552-252.57804465z" fill="#87e3cb"/><use fill="#c8fcee" xlink:href="#a"/><g stroke="#6ed3b9" stroke-width="45"><path d="m-274.472506 440.043045 1354.028266-794.36565" mask="url(#b)"/><path d="m-313.429146 618.430822 1354.028266-794.36565" mask="url(#b)"/><path d="m37.400149 564.914489 1354.028271-794.36565" mask="url(#b)"/><path d="m29.61998 731.409748 1354.02827-794.36565" mask="url(#b)"/><path d="m203.895408 790.87234 1354.028262-794.36565" mask="url(#b)"/><path d="m554.724703 737.356007 1354.028267-794.36565" mask="url(#b)"/><path d="m548.778444 903.851266 1354.028266-794.36565" mask="url(#b)"/><g mask="url(#b)"><g transform="matrix(-1 0 0 1 1917.74975 -401.91278)"><path d="m6.546271 794.385751 1354.028269-794.36565"/><path d="m.600012 972.773528 1354.028268-794.36565"/><path d="m351.429307 919.257195 1354.028263-794.36565"/><path d="m345.483048 1085.75245 1354.028262-794.365646"/><path d="m517.924566 1145.21505 1354.028264-794.365654"/><path d="m868.753861 1091.69871 1354.028269-794.365647"/><path d="m862.807602 1258.19397 1354.028268-794.365648"/></g></g></g></g><g transform="translate(129.637675 68.695502)"><path d="m.83391004 416.790392v-354.4644467l264.99999996 506.9298167z" fill="#1128a9"/><path d="m325.83391 438.925408 220.024719-126.457032v-311.81207645l-220.024719 122.94614145z" fill="#569cf5"/><path d="m0 245.023614 178.007865 104.748898v-243.433665l-178.007865-106.338847z" fill="#fb8143" transform="translate(414.362325 140.925408)"/><path d="m325.83391 438.925408 220.024719-126.457032v-311.81207645l-220.024719 122.94614145z" fill="#569cf5"/></g></g></svg>