<svg id="Layer_1" data-name="Layer 1" xmlns="http://www.w3.org/2000/svg" viewBox="0 0 145 145"><title>passing</title><path d="M.5,72.35A72.31,72.31,0,0,1,72.6.5c39.45.1,72,32.62,71.9,72.15S111.75,144.6,72.3,144.5A72.24,72.24,0,0,1,.5,72.35Zm72,52.1a52,52,0,1,0-52-52.1A52.07,52.07,0,0,0,72.5,124.45Z" style="fill:#00b39f"/><path d="M63.42,76.64c10.3-10.6,19.3-20,28.4-29.2a9.65,9.65,0,0,1,11.9-2.1c4.3,2.1,6.6,5.8,5.8,10.6a12.72,12.72,0,0,1-3.3,6.4c-11.5,11.8-23.2,23.4-34.9,35-4.7,4.6-10.4,4.7-15.1.1q-9-8.7-17.7-17.7c-4.3-4.5-4.2-10.6,0-14.7s10.2-4.3,14.7.1C56.52,68.44,59.42,72.14,63.42,76.64Z" style="fill:#00d3a9"/></svg>