<svg width="40" height="40" viewBox="0 0 40 40" fill="none" xmlns="http://www.w3.org/2000/svg">
<g clip-path="url(#clip0_23295_3317)">
<path d="M40 0H0V40H40V0Z" fill="#ED7100" fill-opacity="0.12"/>
<path fill-rule="evenodd" clip-rule="evenodd" d="M25.715 20.58L23.558 21.851L29.757 25.571C29.907 25.661 29.999 25.823 30 25.998V28.615L32 27.238V24.286L25.715 20.58ZM19.754 23.232L29 28.689L29.001 26.284L22.429 22.34C22.304 22.306 22.196 22.224 22.131 22.112C22.015 21.915 22.037 21.647 22.2 21.487C22.271 21.416 22.357 21.368 22.447 21.345L31.56 15.974L29.486 14.591L9.757 26.429C9.678 26.476 9.589 26.5 9.5 26.5C9.403 26.5 9.307 26.472 9.223 26.416L7 24.934V27.238L9.507 28.974L19.246 23.232C19.403 23.14 19.598 23.14 19.754 23.232ZM13.285 19.419L15.442 18.148L9.243 14.429C9.093 14.339 9.001 14.177 9 14.002L8.989 11.385L7 12.762V15.714L13.285 19.419ZM19.246 16.767L9.989 11.31L9.999 13.716L16.677 17.724C16.828 17.814 16.921 17.978 16.92 18.154C16.919 18.33 16.826 18.494 16.674 18.583L7.441 24.026L9.514 25.409L29.243 13.571C29.408 13.471 29.616 13.476 29.777 13.584L32 15.066V12.762L29.493 11.026L19.754 16.767C19.598 16.86 19.403 16.86 19.246 16.767ZM32.754 16.431L26.699 20L32.754 23.569C32.906 23.659 33 23.823 33 24V27.5C33 27.664 32.92 27.818 32.784 27.911L29.799 29.978C29.714 30.037 29.614 30.067 29.515 30.067C29.427 30.067 29.339 30.044 29.261 29.997L19.5 24.244L9.739 29.997C9.573 30.097 9.361 30.089 9.201 29.978L6.216 27.911C6.08 27.818 6 27.664 6 27.5V24C6 23.823 6.094 23.659 6.246 23.569L12.301 20L6.246 16.431C6.094 16.341 6 16.177 6 16V12.5C6 12.336 6.08 12.182 6.216 12.089L9.201 10.022C9.361 9.911 9.573 9.903 9.739 10.002L19.5 15.756L29.261 10.002C29.427 9.903 29.639 9.911 29.799 10.022L32.784 12.089C32.92 12.182 33 12.336 33 12.5V16C33 16.177 32.906 16.341 32.754 16.431ZM22 31.232L19.5 32.899L17.402 31.5L19.778 29.916C19.916 29.823 20 29.667 20 29.5V26H19V29.232L17 30.566V28H16V31.5C16 31.667 16.084 31.823 16.223 31.916L19.223 33.916C19.307 33.972 19.403 34 19.5 34C19.597 34 19.694 33.972 19.778 33.916L22.777 31.916C22.916 31.823 23 31.667 23 31.5V28H22V31.232ZM17 12H16V8.5C16 8.333 16.084 8.177 16.223 8.084L19.223 6.084C19.391 5.972 19.61 5.972 19.778 6.084L22.777 8.084C22.916 8.177 23 8.333 23 8.5V12H22V9.434L20 10.767V14H19V10.5C19 10.333 19.084 10.177 19.223 10.084L21.599 8.5L19.5 7.101L17 8.767V12Z" fill="#ED7100"/>
</g>
<rect x="0.5" y="0.5" width="39" height="39" stroke="#ED7100"/>
<defs>
<clipPath id="clip0_23295_3317">
<rect width="40" height="40" fill="white"/>
</clipPath>
</defs>
</svg>
