<svg width="40" height="40" viewBox="0 0 40 40" fill="none" xmlns="http://www.w3.org/2000/svg">
<g clip-path="url(#clip0_23296_3599)">
<path d="M40 0H0V40H40V0Z" fill="#C925D1" fill-opacity="0.12"/>
<path fill-rule="evenodd" clip-rule="evenodd" d="M24.0953 21.416L21.679 23L24.0953 24.584L23.5308 25.416L20.48 23.416C20.3397 23.323 20.2542 23.167 20.2542 23C20.2542 22.833 20.3397 22.677 20.48 22.584L23.5308 20.584L24.0953 21.416ZM29.6325 24.584L32.0488 23L29.6325 21.416L30.1969 20.584L33.2478 22.584C33.3892 22.677 33.4746 22.833 33.4746 23C33.4746 23.167 33.3892 23.323 33.2478 23.416L30.1969 25.416L29.6325 24.584ZM12.6271 14H11.6102V10.5C11.6102 10.224 11.8369 10 12.1186 10H15.678V11H13.3461L16.0369 13.646L15.318 14.354L12.6271 11.707V14ZM29.362 19.704L26.0651 26.946L25.1366 26.538L28.4346 19.296L29.362 19.704ZM35 11.5V33.5C35 33.776 34.7722 34 34.4915 34H18.2132C18.078 34 17.9488 33.947 17.8532 33.854C17.7586 33.759 17.7047 33.632 17.7047 33.499L17.7119 26.999L18.7288 27L18.7227 33H33.9831V12H18.7288V11H34.4915C34.7722 11 35 11.224 35 11.5ZM16.1864 17.25C16.1864 16.147 17.0986 15.25 18.2203 15.25C19.341 15.25 20.2542 16.147 20.2542 17.25C20.2542 18.353 19.341 19.25 18.2203 19.25C17.0986 19.25 16.1864 18.353 16.1864 17.25ZM8.05085 33C6.92915 33 6.01695 32.103 6.01695 31C6.01695 29.897 6.92915 29 8.05085 29C9.17153 29 10.0847 29.897 10.0847 31C10.0847 32.103 9.17153 33 8.05085 33ZM6.01695 21C6.01695 19.897 6.92915 19 8.05085 19C9.17153 19 10.0847 19.897 10.0847 21C10.0847 22.103 9.17153 23 8.05085 23C6.92915 23 6.01695 22.103 6.01695 21ZM6.01695 9C6.01695 7.897 6.92915 7 8.05085 7C9.17153 7 10.0847 7.897 10.0847 9C10.0847 10.103 9.17153 11 8.05085 11C6.92915 11 6.01695 10.103 6.01695 9ZM18.7288 23.597V20.199C20.1688 19.96 21.2712 18.733 21.2712 17.25C21.2712 15.596 19.9024 14.25 18.2203 14.25C16.5373 14.25 15.1695 15.596 15.1695 17.25C15.1695 18.733 16.2719 19.96 17.7119 20.199V23.597C17.7119 24.184 17.3203 24.714 16.7153 24.95L11.4475 27.006C10.6827 27.305 10.1051 27.871 9.8061 28.554C9.44102 28.3 9.01797 28.127 8.55932 28.051V23.949C9.99932 23.71 11.1017 22.483 11.1017 21C11.1017 19.517 9.99932 18.29 8.55932 18.051V11.949C9.99932 11.71 11.1017 10.483 11.1017 9C11.1017 7.346 9.73288 6 8.05085 6C6.3678 6 5 7.346 5 9C5 10.483 6.10237 11.71 7.54237 11.949V18.051C6.10237 18.29 5 19.517 5 21C5 22.483 6.10237 23.71 7.54237 23.949V28.051C6.10237 28.29 5 29.517 5 31C5 32.654 6.3678 34 8.05085 34C9.73288 34 11.1017 32.654 11.1017 31C11.1017 30.414 10.9227 29.871 10.6268 29.409C10.7092 28.766 11.1485 28.199 11.8237 27.936L17.0905 25.88C18.0861 25.492 18.7288 24.596 18.7288 23.597Z" fill="#C925D1"/>
</g>
<rect x="0.5" y="0.5" width="39" height="39" stroke="#C925D1"/>
<defs>
<clipPath id="clip0_23296_3599">
<rect width="40" height="40" fill="white"/>
</clipPath>
</defs>
</svg>
