<svg width="40" height="40"  viewBox="0 0 40 40" xmlns="http://www.w3.org/2000/svg">  <g id="Icon-Architecture/32/Arch_AWS-Glue-Elastic-Views_32" stroke="none" stroke-width="1" fill="none" fill-rule="evenodd">  <g id="Icon-Service/32/AWS-Glue-Elastic-Views_32" transform="translate(6.000000, 6.000000)" fill="#FFFFFF"> <path d="M15,12 L18,12 L18,13 L15,13 L15,16 L14,16 L14,13 L11,13 L11,12 L14,12 L14,9 L15,9 L15,12 Z M24.933,8.043 C23.627,8.043 23.049,7.698 23,7.597 L22.996,1.467 C23.051,1.347 23.633,1 24.933,1 C26.183,1 26.888,1.325 27,1.475 L27.008,7.559 C26.919,7.722 26.198,8.043 24.933,8.043 L24.933,8.043 Z M14.5,18 C11.468,18 9,15.533 9,12.5 C9,9.467 11.468,7 14.5,7 C17.532,7 20,9.467 20,12.5 C20,15.533 17.532,18 14.5,18 L14.5,18 Z M24.446,15 C25.362,15 25.867,15.208 26,15.311 L26.026,19.667 C25.955,19.756 25.447,20 24.446,20 C23.525,20 23.054,19.786 23,19.763 L22.979,15.315 C23.054,15.217 23.526,15 24.446,15 L24.446,15 Z M19,26.82 C18.865,26.893 18.513,27 17.959,27 C17.404,27 17.108,26.894 17,26.833 L17,23.168 C17.109,23.108 17.405,23 17.959,23 C18.512,23 18.864,23.108 19,23.182 L19,26.82 Z M3.419,24 C1.63,24 1,23.501 1,23.395 L1,16.606 C1.035,16.434 1.806,16 3.419,16 C5.043,16 5.913,16.436 6,16.617 L6.002,23.381 C5.936,23.557 5.069,24 3.419,24 L3.419,24 Z M5,7.82 C4.865,7.893 4.513,8 3.959,8 C3.404,8 3.108,7.894 3,7.833 L3,4.168 C3.109,4.108 3.405,4 3.959,4 C4.512,4 4.864,4.108 5,4.182 L5,7.82 Z M24.933,0 C23.151,0 22,0.567 22,1.446 L22,5.124 L18.949,7.774 C17.785,6.678 16.222,6 14.5,6 C12.219,6 10.213,7.184 9.053,8.966 L6,6.408 L6,4.064 C6,3.417 5.199,3 3.959,3 C2.751,3 2,3.408 2,4.064 L2,7.936 C2,8.592 2.751,9 3.959,9 C5.218,9 6,8.592 6,7.936 L6,7.713 L8.564,9.862 C8.205,10.669 8,11.561 8,12.5 C8,13.961 8.49,15.306 9.308,16.393 L7,18.435 L7,16.605 C7,15.497 5.201,15 3.419,15 C1.342,15 0,15.63 0,16.605 L0,23.395 C0,24.37 1.342,25 3.419,25 C5.071,25 7,24.58 7,23.395 L7,19.77 L9.964,17.147 C11.137,18.292 12.736,19 14.5,19 C14.881,19 15.252,18.96 15.614,18.897 L17.187,22.068 C16.44,22.208 16,22.563 16,23.064 L16,26.936 C16,27.592 16.751,28 17.959,28 C19.218,28 20,27.592 20,26.936 L20,23.064 C20,22.475 19.332,22.08 18.276,22.014 L16.605,18.644 C17.837,18.22 18.9,17.437 19.673,16.419 L22,17.436 L22,19.763 C22,20.526 22.937,21 24.446,21 C25.624,21 27,20.676 27,19.763 L27,15.237 C27,14.324 25.624,14 24.446,14 C22.937,14 22,14.474 22,15.237 L22,16.345 L20.227,15.57 C20.719,14.655 21,13.61 21,12.5 C21,10.997 20.482,9.616 19.623,8.514 L22,6.448 L22,7.597 C22,8.475 23.151,9.043 24.933,9.043 C26.348,9.043 28,8.664 28,7.597 L28,1.446 C28,0.447 26.459,0 24.933,0 L24.933,0 Z" id="Fill-5"></path> </g> </g></svg>