<svg width="40" height="40" viewBox="0 0 40 40" fill="none" xmlns="http://www.w3.org/2000/svg">
<g clip-path="url(#clip0_23295_3250)">
<path d="M40 0H0V40H40V0Z" fill="#ED7100" fill-opacity="0.12"/>
<path fill-rule="evenodd" clip-rule="evenodd" d="M16.771 23H19.4C19.551 23 19.695 23.069 19.79 23.187C19.885 23.306 19.921 23.46 19.888 23.608L19.221 26.61L23.228 21H20.599C20.448 21 20.304 20.931 20.209 20.813C20.114 20.694 20.078 20.54 20.111 20.392L20.778 17.39L16.771 23ZM18.2 29.4C18.131 29.4 18.062 29.386 17.996 29.356C17.779 29.26 17.66 29.023 17.711 28.792L18.777 24H15.799C15.612 24 15.441 23.896 15.355 23.729C15.269 23.562 15.284 23.362 15.392 23.209L21.392 14.81C21.531 14.617 21.786 14.548 22.003 14.644C22.22 14.74 22.339 14.977 22.288 15.208L21.222 20H24.2C24.387 20 24.558 20.104 24.644 20.271C24.73 20.438 24.715 20.638 24.607 20.791L18.607 29.19C18.51 29.325 18.357 29.4 18.2 29.4ZM12 33H28V13.5C28 13.224 28.223 13 28.5 13H30V7H27V9.5C27 9.776 26.776 10 26.5 10H22.5C22.223 10 22 9.776 22 9.5V7H18V9.5C18 9.776 17.776 10 17.5 10H13.5C13.223 10 13 9.776 13 9.5V7H10V13H11.5C11.776 13 12 13.224 12 13.5V33ZM28.5 34H11.5C11.223 34 11 33.776 11 33.5V14H9.5C9.223 14 9 13.776 9 13.5V6.5C9 6.224 9.223 6 9.5 6H13.5C13.776 6 14 6.224 14 6.5V9H17V6.5C17 6.224 17.223 6 17.5 6H22.5C22.776 6 23 6.224 23 6.5V9H26V6.5C26 6.224 26.223 6 26.5 6H30.5C30.776 6 31 6.224 31 6.5V13.5C31 13.776 30.776 14 30.5 14H29V33.5C29 33.776 28.776 34 28.5 34Z" fill="#ED7100"/>
</g>
<rect x="0.5" y="0.5" width="39" height="39" stroke="#ED7100"/>
<defs>
<clipPath id="clip0_23295_3250">
<rect width="40" height="40" fill="white"/>
</clipPath>
</defs>
</svg>
