<svg width="40" height="40"  viewBox="0 0 40 40" xmlns="http://www.w3.org/2000/svg">  <g id="Icon-Architecture/32/Arch_AWS-Application-Cost-Profiler_32" stroke="none" stroke-width="1" fill="none" fill-rule="evenodd">  <g id="Icon-Service/32/AWS-Application-Cost-Profiler_32" transform="translate(6.000000, 6.000000)" fill="#FFFFFF"> <path d="M1.04669107,12 L5.10869107,12 C5.30669107,10.29 5.99669107,8.61 7.04569107,7.329 L7.04369107,2.015 C3.55169107,4.226 1.36269107,7.929 1.04669107,12 L1.04669107,12 Z M26.9986911,13 L27.9986911,13 C27.9986911,16.976 26.2996911,20.778 23.3356911,23.432 C20.9926911,25.53 18.1146911,26.735 15.0436911,26.956 L15.0436911,27 L14.0536911,27 C14.0426911,27 14.0316911,27.001 14.0216911,27.001 C13.4866911,27.001 12.9486911,26.972 12.4066911,26.912 C5.96969107,26.201 0.787691069,21.012 0.0846910688,14.573 C-0.536308931,8.878 2.29669107,3.433 7.30469107,0.702 L8.04369107,0.298 L8.04669107,13 L7.04669107,13 L7.04569107,9.118 C6.40869107,10.29 6.04369107,11.659 6.04369107,13 C6.04369107,17.411 9.63269107,21 14.0436911,21 C18.4546911,21 22.0436911,17.411 22.0436911,13 L23.0436911,13 C23.0436911,17.962 19.0066911,22 14.0436911,22 C9.08069107,22 5.04369107,17.962 5.04369107,13 L1.04369107,13 L1.04369107,12.046 C0.984691069,12.842 0.989691069,13.65 1.07869107,14.465 C1.73169107,20.441 6.54169107,25.258 12.5166911,25.918 C13.0286911,25.975 13.5376911,25.996 14.0436911,25.995 L14.0436911,22 L15.0436911,22 L15.0436911,25.95 C17.8686911,25.731 20.5126911,24.618 22.6686911,22.687 C25.4206911,20.223 26.9986911,16.691 26.9986911,13 L26.9986911,13 Z M27.0436911,11 L28.0436911,11 L28.0436911,4 L27.0436911,4 L27.0436911,11 Z M22.0436911,11 L23.0436911,11 L23.0436911,0 L22.0436911,0 L22.0436911,11 Z M17.0436911,16 L18.0436911,16 L18.0436911,6 L17.0436911,6 L17.0436911,16 Z M12.0436911,18 L13.0436911,18 L13.0436911,3 L12.0436911,3 L12.0436911,18 Z" id="Fill-4"></path> </g> </g></svg>