<svg width="90" height="90" viewBox="0 0 90 90" fill="none" xmlns="http://www.w3.org/2000/svg">
<path fill-rule="evenodd" clip-rule="evenodd" d="M2 80.6879V73.5503H3.81214H5.62427V78.8757H10.4022V80.6879V82.5H3.81213C2.81132 82.5 2 81.6887 2 80.6879ZM3.81214 69.9815H2V55.7064H3.81214H5.62427V69.9815H3.81214ZM3.81214 52.1376H2V37.8624H3.81214H5.62427V52.1376H3.81214ZM3.81214 34.2936H2V20.0185H3.81214H5.62427V34.2936H3.81214ZM3.81214 16.4497H2V9.31213C2 8.31132 2.81132 7.5 3.81214 7.5H10.4022V9.31214V11.1243H5.62427V16.4497H3.81214ZM13.6972 9.31214V7.5H26.8773V9.31214V11.1243H13.6972V9.31214ZM30.1724 9.31214V7.5H43.3525V9.31214V11.1243H30.1724V9.31214ZM46.6475 9.31214V7.5H59.8276V9.31214V11.1243H46.6475V9.31214ZM63.1227 9.31214V7.5H76.3028V9.31214V11.1243H63.1227V9.31214ZM79.5978 9.31214V7.5H86.1879C87.1887 7.5 88 8.31132 88 9.31214V16.4497H86.1879H84.3757V11.1243H79.5978V9.31214ZM86.1879 20.0185H88V34.2936H86.1879H84.3757V20.0185H86.1879ZM86.1879 37.8624H88V52.1376H86.1879H84.3757V37.8624H86.1879ZM86.1879 55.7064H88V69.9815H86.1879H84.3757V55.7064H86.1879ZM86.1879 73.5503H88V80.6879C88 81.6887 87.1887 82.5 86.1879 82.5H79.5978V80.6879V78.8757H84.3757V73.5503H86.1879ZM76.3028 80.6879V82.5H63.1227V80.6879V78.8757H76.3028V80.6879ZM59.8276 80.6879V82.5H46.6475V80.6879V78.8757H59.8276V80.6879ZM43.3525 80.6879V82.5H30.1724V80.6879V78.8757H43.3525V80.6879ZM26.8773 80.6879V82.5H13.6972V80.6879V78.8757H26.8773V80.6879ZM45.7092 46.1452C45.7092 45.7506 46.0292 45.4306 46.4238 45.4306H76.5349C76.9296 45.4306 77.2495 45.7506 77.2495 46.1452V67.4995C77.2495 67.8942 76.9296 68.2141 76.5349 68.2141H46.4238C46.0292 68.2141 45.7092 67.8942 45.7092 67.4995V46.1452ZM51.5787 62.769C51.9657 62.769 52.2882 62.4108 52.2882 61.9809V51.5922C52.2882 51.1623 51.9657 50.8041 51.5787 50.8041C51.1917 50.8041 50.8692 51.1623 50.8692 51.5922V61.9809C50.8692 62.4108 51.1917 62.769 51.5787 62.769ZM58.1576 62.769C58.5446 62.769 58.8671 62.4108 58.8671 61.9809V51.5922C58.8671 51.1623 58.5446 50.8041 58.1576 50.8041C57.7707 50.8041 57.4482 51.1623 57.4482 51.5922V61.9809C57.4482 62.4108 57.7707 62.769 58.1576 62.769ZM64.7366 62.769C65.1236 62.769 65.4461 62.4108 65.4461 61.9809V51.5922C65.4461 51.1623 65.1236 50.8041 64.7366 50.8041C64.3496 50.8041 64.0271 51.1623 64.0271 51.5922V61.9809C64.0271 62.4108 64.3496 62.769 64.7366 62.769ZM71.3156 62.769C71.7026 62.769 72.0251 62.4108 72.0251 61.9809V51.5922C72.0251 51.1623 71.7026 50.8041 71.3156 50.8041C70.9286 50.8041 70.6061 51.1623 70.6061 51.5922V61.9809C70.6061 62.4108 70.9286 62.769 71.3156 62.769ZM29.912 21.072C29.5173 21.072 29.1974 21.392 29.1974 21.7866V43.1409C29.1974 43.5356 29.5173 43.8555 29.912 43.8555H60.0231C60.4178 43.8555 60.7377 43.5356 60.7377 43.1409V21.7866C60.7377 21.392 60.4178 21.072 60.0231 21.072H29.912ZM35.7763 37.6939C35.7763 38.1238 35.4538 38.4821 35.0668 38.4821C34.6798 38.4821 34.3573 38.1238 34.3573 37.6939V27.3052C34.3573 26.8754 34.6798 26.5171 35.0668 26.5171C35.4538 26.5171 35.7763 26.8754 35.7763 27.3052V37.6939ZM42.4198 37.6939C42.4198 38.1238 42.0973 38.4821 41.7103 38.4821C41.3233 38.4821 41.0008 38.1238 41.0008 37.6939V27.3052C41.0008 26.8754 41.3233 26.5171 41.7103 26.5171C42.0973 26.5171 42.4198 26.8754 42.4198 27.3052V37.6939ZM48.9988 37.6939C48.9988 38.1238 48.6763 38.4821 48.2893 38.4821C47.9023 38.4821 47.5798 38.1238 47.5798 37.6939V27.3052C47.5798 26.8754 47.9023 26.5171 48.2893 26.5171C48.6763 26.5171 48.9988 26.8754 48.9988 27.3052V37.6939ZM55.5777 37.6939C55.5777 38.1238 55.2552 38.4821 54.8682 38.4821C54.4812 38.4821 54.1587 38.1238 54.1587 37.6939V27.3052C54.1587 26.8754 54.4812 26.5171 54.8682 26.5171C55.2552 26.5171 55.5777 26.8754 55.5777 27.3052V37.6939ZM12.7497 46.1452C12.7497 45.7506 13.0696 45.4306 13.4643 45.4306H43.5754C43.9701 45.4306 44.29 45.7506 44.29 46.1452V67.4995C44.29 67.8942 43.9701 68.2141 43.5754 68.2141H13.4643C13.0696 68.2141 12.7497 67.8942 12.7497 67.4995V46.1452ZM18.6191 62.769C19.0061 62.769 19.3286 62.4108 19.3286 61.9809V51.5922C19.3286 51.1623 19.0061 50.8041 18.6191 50.8041C18.2321 50.8041 17.9096 51.1623 17.9096 51.5922V61.9809C17.9096 62.4108 18.2321 62.769 18.6191 62.769ZM25.1981 62.769C25.5851 62.769 25.9076 62.4108 25.9076 61.9809V51.5922C25.9076 51.1623 25.5851 50.8041 25.1981 50.8041C24.8111 50.8041 24.4886 51.1623 24.4886 51.5922V61.9809C24.4886 62.4108 24.8111 62.769 25.1981 62.769ZM31.7771 62.769C32.1641 62.769 32.4866 62.4108 32.4866 61.9809V51.5922C32.4866 51.1623 32.1641 50.8041 31.7771 50.8041C31.3901 50.8041 31.0676 51.1623 31.0676 51.5922V61.9809C31.0676 62.4108 31.3901 62.769 31.7771 62.769ZM38.4205 62.769C38.8075 62.769 39.13 62.4108 39.13 61.9809V51.5922C39.13 51.1623 38.8075 50.8041 38.4205 50.8041C38.0335 50.8041 37.711 51.1623 37.711 51.5922V61.9809C37.711 62.4108 38.0335 62.769 38.4205 62.769Z" fill="white"/>
</svg>
