<svg version="1.1" id="Layer_1" xmlns="http://www.w3.org/2000/svg" xmlns:xlink="http://www.w3.org/1999/xlink" x="0px" y="0px"
         viewBox="0 0 77.7 48.5" style="enable-background:new 0 0 77.7 48.5;" xml:space="preserve">
<style type="text/css">
        .st0{fill:#FFFFFF;}
</style>
<path class="st0" d="M25.9,21.2h25.9V27H25.9V21.2z"/>
<path class="st0" d="M64.8,0H47.6l4.1,5.8l12.5,3.8c2.3,0.7,3.8,2.8,3.8,5.2l0,0v18.7c0,2.4-1.5,4.5-3.8,5.2l-12.5,3.8l-4.1,5.9
        h17.1c7.1,0,12.9-5.8,12.9-12.9V12.9C77.7,5.8,71.9,0,64.8,0L64.8,0z M12.9,0h17.1l-4.1,5.8L13.4,9.7c-2.3,0.7-3.8,2.8-3.8,5.2v18.7
        c0,2.4,1.5,4.5,3.8,5.2l12.5,3.8l4.1,5.9H12.9C5.8,48.5,0,42.7,0,35.5l0,0V12.9C0,5.8,5.8,0,12.9,0C12.9,0,12.9,0,12.9,0L12.9,0z"/>
</svg>