<svg width="40" height="40" viewBox="0 0 40 40" fill="none" xmlns="http://www.w3.org/2000/svg">
<g clip-path="url(#clip0_23296_3658)">
<path d="M40 0H0V40H40V0Z" fill="#DD344C" fill-opacity="0.12"/>
<path fill-rule="evenodd" clip-rule="evenodd" d="M20.0005 27.957L8.65845 22.48L11.6554 21.058L19.7824 24.985C19.8524 25.019 19.9265 25.035 20.0005 25.035C20.0745 25.035 20.1485 25.019 20.2185 24.985L28.3444 21.059L31.3424 22.48L20.0005 27.957ZM31.2694 26.588L20.0005 32.049L8.73145 26.588L12.0684 25.238L19.7824 28.962C19.8524 28.996 19.9265 29.012 20.0005 29.012C20.0745 29.012 20.1485 28.996 20.2185 28.962L27.9324 25.238L31.2694 26.588ZM33.0007 22.475C32.9994 22.282 32.8894 22.107 32.7144 22.025L29.4994 20.5L32.7184 18.945C32.8914 18.861 33.0007 18.686 33.0007 18.495C33.0007 18.303 32.8914 18.128 32.7184 18.044L24.4534 14.05L24.4734 14.169C24.5274 14.496 24.4924 14.824 24.3904 15.131L31.3514 18.495L20.0005 23.98L8.64945 18.495L15.6115 15.13C15.5085 14.821 15.4735 14.492 15.5285 14.163L15.5485 14.05L7.28245 18.044C7.10945 18.128 7.00022 18.303 7.00022 18.495C7.00022 18.686 7.10945 18.861 7.28245 18.945L10.5004 20.5L7.28645 22.025C7.11145 22.107 7.00145 22.282 7.00022 22.475C6.99945 22.667 7.10945 22.843 7.28245 22.927L10.8544 24.651L7.31245 26.084C7.12945 26.158 7.00745 26.333 7.00022 26.531C6.99445 26.728 7.10445 26.911 7.28245 26.997L19.7824 33.055C19.8514 33.088 19.9265 33.105 20.0005 33.105C20.0745 33.105 20.1495 33.088 20.2185 33.055L32.7184 26.997C32.8964 26.911 33.0064 26.728 33.0007 26.531C32.9934 26.333 32.8714 26.158 32.6884 26.084L29.1465 24.651L32.7184 22.927C32.8914 22.843 33.0014 22.667 33.0007 22.475ZM21.5534 11.301C21.5054 11.396 21.4895 11.503 21.5075 11.607L21.9095 14H18.0935L18.5055 11.597C18.5225 11.492 18.5074 11.383 18.4594 11.288L16.8115 8H23.1934L21.5534 11.301ZM24.4254 7.237C24.3344 7.09 24.1734 7 24.0004 7H16.0005C15.8265 7 15.6665 7.09 15.5745 7.238C15.4835 7.385 15.4764 7.57 15.5534 7.725L17.4915 11.589L17.0075 14.416C16.9825 14.561 17.0225 14.71 17.1185 14.823C17.2135 14.936 17.3535 15 17.5005 15H19.5005V19H20.5005V15H22.5005C22.6475 15 22.7875 14.936 22.8825 14.823C22.9775 14.711 23.0185 14.562 22.9935 14.417L22.5204 11.601L24.4474 7.723C24.5244 7.568 24.5174 7.384 24.4254 7.237Z" fill="#DD344C"/>
</g>
<rect x="0.5" y="0.5" width="39" height="39" stroke="#DD344C"/>
<defs>
<clipPath id="clip0_23296_3658">
<rect width="40" height="40" fill="white"/>
</clipPath>
</defs>
</svg>
