<svg width="40" height="40" viewBox="0 0 40 40" fill="none" xmlns="http://www.w3.org/2000/svg">
<g clip-path="url(#clip0_23310_9357)">
<path d="M40 0H0V40H40V0Z" fill="#01A88D" fill-opacity="0.12"/>
<path fill-rule="evenodd" clip-rule="evenodd" d="M20.438 21.9108C19.611 21.9108 18.938 21.2378 18.938 20.4108C18.938 19.5838 19.611 18.9108 20.438 18.9108C21.265 18.9108 21.938 19.5838 21.938 20.4108C21.938 21.2378 21.265 21.9108 20.438 21.9108ZM20.438 17.9108C19.059 17.9108 17.938 19.0328 17.938 20.4108C17.938 21.7888 19.059 22.9108 20.438 22.9108C21.817 22.9108 22.938 21.7888 22.938 20.4108C22.938 19.0328 21.817 17.9108 20.438 17.9108ZM24.395 23.6397C24.282 23.6897 24.192 23.7807 24.141 23.8937L20.486 32.1168L16.855 23.9468C16.804 23.8338 16.714 23.7438 16.601 23.6928L8.732 20.1958L16.839 16.5927C16.953 16.5417 17.042 16.4517 17.093 16.3387L20.486 8.70475L23.903 16.3918C23.954 16.5048 24.043 16.5958 24.157 16.6458L32.144 20.1958L24.395 23.6397ZM28.809 28.7467L23.915 26.8647L24.977 24.4757L26.846 23.6448L28.809 28.7467ZM12.067 28.6287L13.991 23.6278L16.019 24.5287L16.999 26.7327L12.067 28.6287ZM12.253 12.1927L17.026 14.0278L16.257 15.7568L14.008 16.7557L12.253 12.1927ZM28.623 12.0747L26.829 16.7388L24.739 15.8097L23.887 13.8948L28.623 12.0747ZM33.579 19.7388L27.744 17.1447L29.959 11.3837C30.031 11.1987 29.986 10.9898 29.846 10.8498C29.706 10.7098 29.497 10.6647 29.313 10.7367L23.481 12.9798L20.943 7.27075C20.783 6.90975 20.189 6.90975 20.029 7.27075L17.432 13.1128L11.563 10.8547C11.379 10.7837 11.169 10.8277 11.03 10.9688C10.89 11.1077 10.845 11.3167 10.917 11.5017L13.093 17.1628L7.297 19.7388C7.117 19.8188 7 19.9978 7 20.1958C7 20.3928 7.117 20.5718 7.297 20.6528L13.076 23.2208L10.73 29.3197C10.659 29.5047 10.704 29.7138 10.843 29.8528C10.939 29.9488 11.067 29.9998 11.197 29.9998C11.257 29.9998 11.318 29.9887 11.376 29.9667L17.405 27.6478L20.029 33.5508C20.109 33.7318 20.289 33.8477 20.486 33.8477C20.683 33.8477 20.863 33.7318 20.943 33.5508L23.508 27.7808L29.5 30.0847C29.558 30.1067 29.619 30.1178 29.679 30.1178C29.809 30.1178 29.937 30.0668 30.033 29.9718C30.172 29.8318 30.217 29.6227 30.146 29.4377L27.761 23.2388L33.579 20.6528C33.759 20.5718 33.876 20.3928 33.876 20.1958C33.876 19.9978 33.759 19.8188 33.579 19.7388Z" fill="#01A88D"/>
</g>
<rect x="0.5" y="0.5" width="39" height="39" stroke="#01A88D"/>
<defs>
<clipPath id="clip0_23310_9357">
<rect width="40" height="40" fill="white"/>
</clipPath>
</defs>
</svg>
