<svg width="40" height="40" viewBox="0 0 40 40" fill="none" xmlns="http://www.w3.org/2000/svg">
<g clip-path="url(#clip0_23296_3817)">
<path d="M40 0H0V40H40V0Z" fill="#01A88D" fill-opacity="0.12"/>
<path fill-rule="evenodd" clip-rule="evenodd" d="M18.9982 23.769L12.6486 27.4887L12.1417 26.6322L15.9989 24.3719V22.2031L12.5086 19.9349L9.2523 22.1803L8.68243 21.3625L11.9997 19.0753V16.6439L9.34628 15.0313L7.00079 16.6101V18.6157L8.97236 17.4199L9.49325 18.2685L6.99979 19.7817V22.8398L9.51525 24.6833L12.7226 22.5553L13.2764 23.383L10.0001 25.5568V28.9959L12.7176 30.7051L15.542 28.8238L16.0988 29.6505L13.6424 31.2861L16.2188 32.9067L18.9982 30.9986V23.769ZM28.9961 21.4769C28.9961 21.2023 28.7711 20.9795 28.4962 20.9795C28.2212 20.9795 27.9963 21.2023 27.9963 21.4769C27.9963 21.7515 28.2212 21.9743 28.4962 21.9743C28.7711 21.9743 28.9961 21.7515 28.9961 21.4769ZM26.9965 12.5233C26.9965 12.2487 26.7715 12.0259 26.4966 12.0259C26.2217 12.0259 25.9967 12.2487 25.9967 12.5233C25.9967 12.7979 26.2217 13.0207 26.4966 13.0207C26.7715 13.0207 26.9965 12.7979 26.9965 12.5233ZM23.9971 18.4924C23.9971 18.7669 24.2221 18.9898 24.497 18.9898C24.772 18.9898 24.9969 18.7669 24.9969 18.4924C24.9969 18.2178 24.772 17.9949 24.497 17.9949C24.2221 17.9949 23.9971 18.2178 23.9971 18.4924ZM19.998 25.4772V31.2602C19.998 31.4234 19.917 31.5766 19.782 31.6691L16.5147 33.9115C16.4288 33.9702 16.3298 34 16.2298 34C16.1378 34 16.0448 33.9741 15.9629 33.9234L9.23231 29.6913C9.08834 29.5998 9.00036 29.4406 9.00036 29.2705V25.5418L6.20296 23.4915C6.07498 23.3979 6 23.2497 6 23.0915L6.001 16.3455C6.001 16.1803 6.08298 16.0261 6.22095 15.9336L9.00036 14.0633V10.1396C9.00036 9.95461 9.10433 9.78449 9.2693 9.69893L16.2698 6.0578C16.4368 5.96826 16.6427 5.98418 16.7957 6.0956L19.5321 8.07435L23.1263 6.06477C23.2713 5.98418 23.4483 5.9802 23.5982 6.05482L30.7227 9.65715C30.8907 9.74171 30.9956 9.91382 30.9956 10.1008V13.7927L33.827 16.2967C33.933 16.3913 33.995 16.5266 33.995 16.6688V24.9579C33.995 25.1419 33.893 25.31 33.7311 25.3966C33.5691 25.4831 33.3721 25.4732 33.2182 25.3717L29.27 22.7543C29.0451 22.8906 28.7791 22.9692 28.4962 22.9692C27.6694 22.9692 26.9965 22.2996 26.9965 21.4769C26.9965 20.6542 27.6694 19.9846 28.4962 19.9846C29.323 19.9846 29.9959 20.6542 29.9959 21.4769C29.9959 21.654 29.9649 21.8241 29.9079 21.9813L32.9952 24.0287V16.8917L30.1638 14.3876C30.0578 14.2931 29.9959 14.1578 29.9959 14.0156V13.0207H27.9103C27.7043 13.5997 27.1485 14.0156 26.4966 14.0156C25.6698 14.0156 24.9969 13.346 24.9969 12.5233C24.9969 11.7006 25.6698 11.031 26.4966 11.031C27.1485 11.031 27.7043 11.4469 27.9103 12.0259H29.9959V10.4053L23.3833 7.06259L19.998 8.95479V14.4284L23.7542 17.1971C23.9731 17.0717 24.2261 17.0001 24.497 17.0001C25.3239 17.0001 25.9967 17.6696 25.9967 18.4924C25.9967 19.3151 25.3239 19.9846 24.497 19.9846C23.6702 19.9846 22.9974 19.3151 22.9974 18.4924C22.9974 18.3023 23.0334 18.1203 23.0993 17.9522L19.2002 15.0791C19.0732 14.9845 18.9982 14.8363 18.9982 14.6791V8.91698L16.4588 7.08249L12.9995 8.88117V12.0259H11.9997V9.40147L10.0001 10.4411V14.2633L12.5026 15.7844L15.9989 13.7161V11.031H16.9986V13.9987C16.9986 14.1737 16.9057 14.3369 16.7547 14.4254L12.9995 16.6479V19.0664L16.7717 21.5177C16.9137 21.6092 16.9986 21.7654 16.9986 21.9335V23.7859L18.9982 22.615V20.2244L15.8529 17.7204L16.4778 16.9434L19.81 19.5966C19.929 19.6911 19.998 19.8334 19.998 19.9846V24.4823H21.9976V25.4772H19.998ZM32.3084 26.9814L31.9454 26.6401L27.8023 30.4215C27.6894 30.3917 27.5744 30.3708 27.4524 30.3708C26.7046 30.3708 26.0957 30.9767 26.0957 31.7218C26.0957 32.4659 26.7046 33.0728 27.4524 33.0728C28.2012 33.0728 28.8101 32.4659 28.8101 31.7218C28.8101 31.5795 28.7821 31.4442 28.7411 31.3159L32.3084 26.9814ZM28.9121 27.1963L29.213 26.2472C28.6391 26.0681 28.0473 25.9766 27.4524 25.9766C23.9652 25.9766 20.9058 29.2198 20.9058 32.9176H21.9056C21.9056 29.75 24.498 26.9714 27.4524 26.9714C27.9453 26.9714 28.4362 27.047 28.9121 27.1963ZM34 32.9176H33.0002C33.0002 31.7795 32.6613 30.6474 32.0184 29.6446L32.8622 29.1103C33.6061 30.2733 34 31.5895 34 32.9176Z" fill="#01A88D"/>
</g>
<rect x="0.5" y="0.5" width="39" height="39" stroke="#01A88D"/>
<defs>
<clipPath id="clip0_23296_3817">
<rect width="40" height="40" fill="white"/>
</clipPath>
</defs>
</svg>
