<svg width="40" height="40" viewBox="0 0 40 40" fill="none" xmlns="http://www.w3.org/2000/svg">
<g clip-path="url(#clip0_23298_4130)">
<path d="M40 0H0V40H40V0Z" fill="#E7157B" fill-opacity="0.12"/>
<path fill-rule="evenodd" clip-rule="evenodd" d="M17.133 13.812L14.657 10.717L15.439 10.092L17.764 13H26.293L25.147 11.853L25.854 11.146L27.854 13.146C28.049 13.341 28.049 13.658 27.854 13.853L25.854 15.853L25.147 15.146L26.293 13.999H17.524C17.371 13.999 17.228 13.931 17.133 13.812ZM27.854 26.146C28.049 26.341 28.049 26.658 27.854 26.853L25.854 28.853L25.147 28.146L26.293 27H17.764L15.439 29.907L14.657 29.282L17.133 26.187C17.228 26.068 17.371 26 17.524 26H26.293L25.147 24.853L25.854 24.146L27.854 26.146ZM33.854 20.353L31.854 22.353L31.147 21.646L32.293 20.499H21V19.499H32.293L31.147 18.353L31.854 17.646L33.854 19.646C34.049 19.841 34.049 20.158 33.854 20.353ZM9 32.999C7.898 32.999 7 32.103 7 30.999C7 29.896 7.898 29 9 29C10.103 29 11 29.896 11 30.999C11 32.103 10.103 32.999 9 32.999ZM16 17.999C17.103 17.999 18 18.896 18 19.999C18 21.103 17.103 22 16 22C14.898 22 14 21.103 14 19.999C14 18.896 14.898 17.999 16 17.999ZM7 9C7 7.896 7.898 7 9 7C10.103 7 11 7.896 11 9C11 10.103 10.103 10.999 9 10.999C7.898 10.999 7 10.103 7 9ZM10.947 28.737L15.339 22.92C15.553 22.969 15.773 23 16 23C17.654 23 19 21.654 19 19.999C19 18.345 17.654 17 16 17C15.773 17 15.553 17.03 15.339 17.079L10.947 11.262C11.586 10.712 12 9.907 12 9C12 7.345 10.654 6 9 6C7.346 6 6 7.345 6 9C6 10.654 7.346 12 9 12C9.404 12 9.787 11.917 10.139 11.772L10.101 11.801L14.387 17.478C13.556 18.012 13 18.94 13 19.999C13 21.059 13.556 21.987 14.387 22.521L10.101 28.198L10.139 28.227C9.787 28.082 9.404 28 9 28C7.346 28 6 29.345 6 30.999C6 32.654 7.346 33.999 9 33.999C10.654 33.999 12 32.654 12 30.999C12 30.092 11.586 29.287 10.947 28.737Z" fill="#E7157B"/>
</g>
<rect x="0.5" y="0.5" width="39" height="39" stroke="#E7157B"/>
<defs>
<clipPath id="clip0_23298_4130">
<rect width="40" height="40" fill="white"/>
</clipPath>
</defs>
</svg>
