 <svg viewBox="0 0 41 40" fill="none" xmlns="http://www.w3.org/2000/svg">
      <path d="M26.6242 2H14.3248C13.3572 2 12.4405 2.3719 11.7529 3.04132L3.06951 11.4959C2.38197 12.1653 2 13.0579 2 14V25.9752C2 26.9174 2.38197 27.8099 3.06951 28.4793L11.7784 36.9587C12.4659 37.6281 13.3827 38 14.3503 38H26.6497C27.6173 38 28.5341 37.6281 29.2216 36.9587L37.9305 28.4793C38.618 27.8099 39 26.9174 39 25.9752V14C39 13.0579 38.618 12.1653 37.9305 11.4959L29.1961 3.04132C28.5086 2.3719 27.5919 2 26.6242 2Z" fill="#00B39F" fill-opacity="0.1" stroke="#00B39F" stroke-miterlimit="10"/>
</svg>