<svg id="Layer_1" data-name="Layer 1" xmlns="http://www.w3.org/2000/svg" viewBox="0 0 360 360"><defs><style>.cls-1{fill:#172d73;}.cls-2{fill:#fefefe;}.cls-3{fill:#4ccaf8;}.cls-4{fill:#f488a5;}.cls-5{fill:#4bcaf8;}.cls-6{fill:#4bcbf9;}.cls-7{fill:#f589a5;}.cls-8{fill:#f489a5;}.cls-9{fill:#10a5f5;}.cls-10{fill:#ef5e7f;}.cls-11{fill:#13a5f6;}.cls-12{fill:#ef5e80;}.cls-13{fill:#12a5f5;}.cls-14{fill:#f05f7f;}.cls-15{fill:#ef5f80;}.cls-16{fill:#13a6f6;}</style></defs><path class="cls-1" d="M351.65433,263.99074c-1.17667-2.99112-3.68268-3.54445-6.77036-2.59809-6.22232,1.907-12.56444,3.43733-18.744,5.46582a4.36763,4.36763,0,0,1-3.94538.00256,24.23135,24.23135,0,0,0-17.045-13.24143,6.63182,6.63182,0,0,1-1.62334-4.11587A203.20835,203.20835,0,0,0,293.63,210.175a6.55258,6.55258,0,0,1-.4118-4.82981,24.18277,24.18277,0,0,0,10.36841-17.45573,10.398,10.398,0,0,1,6.65365-3.12c12.60706-2.48385,24.99775-5.894,37.29437-9.61966,3.12658-.94718,5.28386-2.8986,4.2845-6.39358-1.01021-3.53343-3.82031-3.95763-7.00439-3.00972-1.55531.4631-3.11371.91582-4.66654,1.38668-11.43845,3.46771-23.05622,6.233-34.71584,8.83586a4.48427,4.48427,0,0,1-3.81581-.32995,24.01319,24.01319,0,0,0-24.8164-14.21134,4.3327,4.3327,0,0,1-1.79835-2.66919,269.11778,269.11778,0,0,1-8.09626-37.58969,5.86176,5.86176,0,0,1,.9135-4.77953,24.20774,24.20774,0,0,0,16.21616-20.69359l63.6178-16.36344c3.20973-.98323,5.08629-3.01327,4.13277-6.47989-.94729-3.44508-3.8107-3.38543-6.64869-2.95517a15.62445,15.62445,0,0,0-2.07747.63405,556.87145,556.87145,0,0,1-57.00594,13.53127,6.363,6.363,0,0,1-3.90741-.11081,24.28531,24.28531,0,0,0-14.72775-13.38988c-.15489-.05038-.31556-.08649-.47163-.13377.18674-1.23681,1.65057-10.93009,2.163-14.25676a169.80235,169.80235,0,0,1,11.50773-43.52458c1.34966-3.07637,1.32269-5.707-1.99253-7.31855-3.43731-1.67111-5.44674.24286-6.85512,3.1767-.46977.9783-.89926,1.97656-1.32654,2.97455C262.92023,29.04589,259.96955,47.435,256.23328,66.337a5.69948,5.69948,0,0,1-1.619,3.656,24.20993,24.20993,0,0,0-18.48762,19.739,3.8918,3.8918,0,0,1-3.56737,1.72441c-11.76253.73806-23.51357,1.6579-35.26874,2.51236l-5.44894.0445a7.3914,7.3914,0,0,1-7.43061-2.02586A24.251,24.251,0,0,0,167.804,75.676a4.95154,4.95154,0,0,1-.83587-4.24418c.91833-5.70884,1.58478-11.462,2.64149-17.14372a182.30892,182.30892,0,0,1,12.7652-41.88948c1.46418-3.24483.9056-5.696-2.295-7.19658-3.19263-1.49671-5.134.34027-6.51308,3.01165-.57919,1.1218-1.042,2.30451-1.53812,3.46785A191.13181,191.13181,0,0,0,157.5471,70.89717a7.5095,7.5095,0,0,1-1.51377,4.44089,24.24762,24.24762,0,0,0-17.7421,16.09738c-3.96086,2.20734-9.1891,1.00075-14.08378.91739-.90575-.01524-1.81041-.1212-2.71454-.19777a4.74684,4.74684,0,1,0-.69885,9.44545c4.69956.35228,9.38919.85415,14.09231,1.14041a4.31815,4.31815,0,0,1,2.66631.86845,24.2128,24.2128,0,0,0,20.54316,19.25946,4.28861,4.28861,0,0,1,1.29353,2.90373,211.98426,211.98426,0,0,0,8.5378,37.45657,4.14826,4.14826,0,0,1-1.76088,5.596q-.105.05469-.21289.10335a27.53994,27.53994,0,0,0-12.0265,16.81856c-.74456,3.25706-2.16689,3.94228-5.20123,3.80392-12.31942-.56168-24.61046-1.41024-36.87979-2.66272A5.03835,5.03835,0,0,1,107.54,184.81a24.168,24.168,0,0,0-26.11417-22.05063q-.212.01787-.42372.0395c-1.52522-.70847-2.17874-2.10242-2.77548-4.19646a275.46487,275.46487,0,0,1-8.0061-37.04779c-.59281-4.20005-1.27771-8.19251.65561-11.05021A23.47764,23.47764,0,0,0,84.20854,99.58876a69.41625,69.41625,0,0,1,14.61463-.4101c2.91347.108,5.0365-.88406,5.57337-3.81039.60689-3.307-1.40186-5.12873-4.39639-5.75132a50.5337,50.5337,0,0,0-8.62-1.15512c-2.18719-.06976-3.55095-.6136-4.30789-2.12862a23.15038,23.15038,0,0,0-2.067-7.85651A21.98843,21.98843,0,0,0,72.6682,66.04293a3.84,3.84,0,0,1-2.69026-4.71738q.0356-.13008.08026-.25744a209.53436,209.53436,0,0,1,5.3736-24.8806,192.10039,192.10039,0,0,1,8.72989-24.45932,4.48166,4.48166,0,0,0-2.1514-6.38972,4.41865,4.41865,0,0,0-6.41279,2.097,38.98474,38.98474,0,0,0-2.531,5.39189A205.34835,205.34835,0,0,0,60.23021,60.32277C59.808,63.00483,59.12052,64.27589,56.325,64.996a19.60634,19.60634,0,0,0-12.74979,9.47381c-2.04228,3.7783-4.37143,3.35625-7.532,2.31754C28.99591,74.47117,21.928,72.20555,14.80393,70.141c-2.82094-.81741-6.03494-1.26766-7.21052,2.5635-1.15078,3.75027.91349,5.72184,4.35007,6.76244,7.95943,2.41007,15.85483,5.04458,23.87068,7.24587a4.30259,4.30259,0,0,1,3.8073,4.15058,22.64038,22.64038,0,0,0,12.69918,17.708,23.20883,23.20883,0,0,0,4.79271,2.04941,6.73938,6.73938,0,0,1,2.81552,5.92954,197.76091,197.76091,0,0,0,8.22443,41.94341,15.22267,15.22267,0,0,1,1.02772,8.899,24.27756,24.27756,0,0,0-8.084,10.32811,5.14639,5.14639,0,0,1-3.67974.13114,430.92843,430.92843,0,0,1-41.79481-11.668c-3.35445-1.133-6.6648-1.80236-8.01366,2.43657-1.30751,4.10952,1.52431,5.65351,4.98363,6.83886a414.22634,414.22634,0,0,0,41.77572,11.72239c1.798.41229,3.81024.3179,5.04781,2.07049a24.20679,24.20679,0,0,0,24.05252,21.76921c.65576,0,1.29989-.047,1.94259-.09841a3.36233,3.36233,0,0,1,2.22579,2.44912,206.562,206.562,0,0,1,10.53782,45.31006,5.12012,5.12012,0,0,1-.6629,3.97638A24.2476,24.2476,0,0,0,81.02814,276.418c-3.45562,1.9186-7.77035.48651-12.044-.35136-2.65992-.52153-5.28031-1.2413-7.93665-1.78329A350.24621,350.24621,0,0,1,14.528,261.49669c-3.01033-1.06144-5.52921-.69931-6.79469,2.33567-1.35925,3.26049.18179,5.58345,3.3124,6.89741.99923.41943,2.06476.67962,3.09466,1.02869a406.26906,406.26906,0,0,0,60.46313,15.21191A6.9087,6.9087,0,0,1,79.185,289.2067a24.20778,24.20778,0,0,0,15.743,19.64322c1.56755,1.85521,1.46169,4.17012.73308,7.2781a281.50376,281.50376,0,0,1-8.22,31.42675c-1.02183,2.84016-1.086,5.95171,2.57962,7.21967,3.89208,1.34638,5.63088-1.15265,6.82429-4.30186.31942-.84306.69636-1.66923.94992-2.53143a227.737,227.737,0,0,0,8.00716-34.28171,6.2245,6.2245,0,0,1,1.34051-3.70065,24.2176,24.2176,0,0,0,18.49073-15.01016,4.75874,4.75874,0,0,1,4.15493-1.1869,420.982,420.982,0,0,0,45.11413,1.77136,4.59227,4.59227,0,0,1,3.29986.97782,24.235,24.235,0,0,0,15.43312,16.92674,3.82055,3.82055,0,0,1,.31447,3.20485,257.64691,257.64691,0,0,1-7.73217,29.88322c-1.174,3.29924-2.08677,6.59817,2.12194,8.16308,4.07017,1.51362,5.7789-1.15481,6.98937-4.63322a195.11873,195.11873,0,0,0,7.9622-30.90684,7.204,7.204,0,0,1,2.15124-4.65585,24.07285,24.07285,0,0,0,11.58987-5.22876,15.70152,15.70152,0,0,0,2.1635-2.059,24.116,24.116,0,0,0,6.04455-11.41861c.07255-.33385.10835-.67994.1676-1.01847l13.65278-2.82958a4.46834,4.46834,0,0,0,3.85853-5.00438q-.006-.04644-.013-.09272a4.12761,4.12761,0,0,0-4.66251-4.20019c-3.26187.08292-6.52826.527-9.75574.663-2.68562.1133-3.07766.28286-4.04192-.5657a24.24144,24.24144,0,0,0-16.46193-15.38725,3.61777,3.61777,0,0,1-1.16536-2.64983,193.63589,193.63589,0,0,0-6.86056-39.42622c-.59167-1.99472.23479-2.8972,1.78066-3.9296a30.527,30.527,0,0,0,13.58876-20.117,3.45072,3.45072,0,0,1,3.50037-3.40038q.14066.002.28078.01552,16.79942-1.28842,33.54537-3.23151a6.28867,6.28867,0,0,1,4.9689.96748,24.04091,24.04091,0,0,0,24.55635,13.87875,5.34573,5.34573,0,0,1,2.13357,3.11829,266.27411,266.27411,0,0,1,9.85767,38.83033,3.01218,3.01218,0,0,1-.52293,2.73152,24.22151,24.22151,0,0,0-17.26431,20.78827c-2.63867,3.15638-6.89062,3.65106-11.5068,4.15059-1.6235.1756-3.25971.29014-4.86367.57872-3.22532.58013-5.47017,2.14613-4.91035,5.84167.5336,3.523,3.15637,4.1743,6.10437,3.81628,4.48952-.5451,8.97653-1.18163,13.41826-2.022a5.57524,5.57524,0,0,1,3.938.26069,24.27054,24.27054,0,0,0,14.81905,12.891,7.14877,7.14877,0,0,1,.59516,5.97712,238.12049,238.12049,0,0,1-10.086,42.08832,4.44267,4.44267,0,0,0,2.72436,6.18218,4.58453,4.58453,0,0,0,6.49775-2.98833c.28456-.663.58849-1.3219.81385-2.00555a221.08133,221.08133,0,0,0,9.8261-43.82481,7.13059,7.13059,0,0,1,2.0398-4.9914,24.18934,24.18934,0,0,0,18.75173-22.25721,5.35415,5.35415,0,0,1,3.66361-2.32731c6.65334-1.7242,13.26856-3.60921,19.84564-5.605a4.7324,4.7324,0,0,0,3.60011-6.70111ZM225.71081,292.28833c.03844-.54463.09177-1.08553.09177-1.64008A13.76039,13.76039,0,0,1,225.71081,292.28833Zm-47.40651-7.896s-8.08822.96263-10.8258,1.11173c-12.29753.6697-24.59541-.71636-36.90084-1.19915a4.22178,4.22178,0,0,1-3.48617-1.29353A24.20235,24.20235,0,0,0,109.16476,262.759a5.12818,5.12818,0,0,1-1.3622-3.48832,187.15808,187.15808,0,0,0-10.427-47.45728,6.66281,6.66281,0,0,1-.36546-4.95205,24.3346,24.3346,0,0,0,7.947-8.98963c3.04862-1.83413,6.97322-1.46325,11.2864-.94775,10.7693,1.287,21.65112,1.69373,32.497,2.248,2.71309.13854,4.12844.74735,4.92274,3.61942,4.22389,15.27392,16.531,24.43019,32.10926,23.57029,3.82617-.21124,4.81238.9521,5.6239,4.30574a226.41277,226.41277,0,0,1,5.58462,33.04851c.14414,1.6035.05609,2.62038-.67683,3.36913A24.227,24.227,0,0,0,178.3043,284.3923ZM255.449,183.71992a3.14547,3.14547,0,0,1-2.54645,1.17047c-10.99131,1.01438-21.96944,2.17757-32.942,3.38076-3.04691.33416-4.53852-.23387-5.71457-3.69507a30.88548,30.88548,0,0,0-31.71589-21.36,4.97567,4.97567,0,0,1-5.86316-3.89073q-.04311-.21313-.06746-.42943a320.61371,320.61371,0,0,1-7.46409-32.69386,5.10079,5.10079,0,0,1,.836-4.75022A24.24691,24.24691,0,0,0,184.54,105.36493a4.14087,4.14087,0,0,1,3.99729-1.83629,425.995,425.995,0,0,0,43.46027-2.37534,4.62159,4.62159,0,0,1,5.59834,1.51778,24.22867,24.22867,0,0,0,18.30954,14.683,4.65794,4.65794,0,0,1,1.34331,3.30776,197.61437,197.61437,0,0,0,8.54884,40.71792,5.50782,5.50782,0,0,1,.08525,4.12641,24.1639,24.1639,0,0,0-10.43393,18.21376Z"/><path class="cls-2" d="M184.18975,172.92115a21.76175,21.76175,0,0,0-21.88964,21.63313q-.00136.2308.00217.46156a21.49477,21.49477,0,0,0,21.39145,21.59762q.15672.00076.31344-.00077a21.21831,21.21831,0,0,0,22.02218-20.38275q.02527-.65433.01019-1.30925A21.518,21.518,0,0,0,185.01115,172.924Q184.6005,172.91472,184.18975,172.92115Z"/><path class="cls-3" d="M279.57824,171.69922a13.3843,13.3843,0,0,0-13.76912,12.98808q-.0095.32583-.00314.65182a13.73084,13.73084,0,0,0,27.461.2006q.00041-.05821.00035-.11644A13.42235,13.42235,0,0,0,280.15284,171.7Q279.86559,171.69345,279.57824,171.69922Zm4.87551,14.37408a4.41353,4.41353,0,0,1-5.15088,4.26714,4.4689,4.4689,0,0,1-4.63475-5.33129c.19044-3.15554,2.55157-4.39764,4.915-5.55788,3.04315,1.47812,5.25267,3.18162,4.8706,6.622Z"/><path class="cls-4" d="M103.35048,272.22215a14.08492,14.08492,0,0,0-13.979,13.75893,13.77158,13.77158,0,1,0,13.97888-13.75893Zm-.05672,19.186c-3.59945.08075-5.10873-2.02166-5.14215-5.57636a4.66172,4.66172,0,0,1,5.246-5.19722,5.38978,5.38978,0,0,1-.104,10.77355Z"/><path class="cls-5" d="M83.30522,173.13145a13.8328,13.8328,0,0,0-13.52663,14.10874A14.15641,14.15641,0,0,0,83.751,201.02456a13.99775,13.99775,0,0,0,13.46291-14.23074,13.72839,13.72839,0,0,0-13.79308-13.6634Zm.0485,19.34715c-3.33257-.03689-4.70667-2.13155-4.84445-5.182.02712-3.46415,1.48338-5.63615,5.1084-5.56767,3.29924.06217,4.776,2.04711,4.80961,5.23491.03612,3.42731-1.47364,5.55453-5.07355,5.51468Z"/><path class="cls-4" d="M76.98448,87.53946A13.86473,13.86473,0,1,0,63.07175,101.356q.05851.00021.11706-.00008A13.76552,13.76552,0,0,0,76.98453,87.6207Q76.98462,87.58006,76.98448,87.53946ZM63.12634,92.59735c-3.17493-.16676-5.14747-1.51981-5.20125-4.79859-.05889-3.58442,2.08136-5.05106,5.41763-5.08036,3.1585.08463,5.46464,1.38853,5.26094,4.71164a4.81142,4.81142,0,0,1-5.47732,5.16731Z"/><path class="cls-6" d="M175.48888,99.30734a13.94523,13.94523,0,1,0-27.8848-.56191q-.00626.31012.00129.62031a13.94564,13.94564,0,0,0,27.88351-.0584Zm-19.36147-.31168A5.1202,5.1202,0,0,1,161.1659,93.795q.06356-.001.12711-.00044a4.885,4.885,0,0,1,5.41839,5.36551c.00543,3.14549-1.99654,4.82309-5.27456,5.37036-2.94679-.56406-5.34043-2.25173-5.30943-5.53468Z"/><path class="cls-7" d="M259.53205,107.39051A13.88924,13.88924,0,1,0,246.0996,93.50293,13.8876,13.8876,0,0,0,259.53205,107.39051Zm-5.31933-14.42367a5.5124,5.5124,0,0,1,6.2155-4.70538q.05959.00825.119.01778c3.36915.3616,4.501,2.61079,4.28047,5.91809-.62722,2.80667-2.25553,5.15737-5.4666,4.57572C256.51089,98.2566,253.47311,96.62073,254.21272,92.96684Z"/><path class="cls-8" d="M300.48919,263.40176a13.92587,13.92587,0,1,0,13.76,14.08976q.00117-.095.001-.18994A13.96371,13.96371,0,0,0,300.48919,263.40176ZM300.38,282.68433c-3.68345.09407-5.06951-2.21448-5.03216-6.00921a4.46756,4.46756,0,0,1,5.01232-4.72649,5.37618,5.37618,0,1,1,.01984,10.73574Z"/><path class="cls-5" d="M187.67544,290.64344a14.42469,14.42469,0,0,0,13.98938,13.87084,14.20209,14.20209,0,0,0,13.91553-13.87812,13.71086,13.71086,0,0,0-13.8065-13.61453l-.11037.00121a13.90647,13.90647,0,0,0-13.988,13.62064Zm14.15508-5.22822a4.8759,4.8759,0,0,1,5.16359,5.18188c-.22008,3.14766-1.75061,5.55323-4.75289,5.26185-4.0514-.13964-5.94316-1.71029-5.95295-5.02441a5.12011,5.12011,0,0,1,5.54225-5.41932Z"/><path class="cls-9" d="M279.58305,179.45125c-2.3634,1.16024-4.72465,2.4022-4.915,5.55788a4.46894,4.46894,0,0,0,4.63475,5.33129,4.41351,4.41351,0,0,0,5.15088-4.26714C284.83578,182.63287,282.62626,180.92936,279.58305,179.45125Z"/><path class="cls-10" d="M103.39773,280.63461a4.6617,4.6617,0,0,0-5.246,5.19722c.03331,3.55466,1.54259,5.65707,5.14214,5.57636a5.38978,5.38978,0,0,0,.104-10.77355Z"/><path class="cls-11" d="M83.61766,181.72888c-3.625-.06856-5.0812,2.1035-5.1084,5.56767.13779,3.05046,1.51189,5.14513,4.84445,5.182,3.59991.03985,5.10967-2.08732,5.07358-5.51479C88.39362,183.77591,86.9169,181.791,83.61766,181.72888Z"/><path class="cls-12" d="M63.34271,82.7184c-3.33626.0293-5.47652,1.49594-5.41763,5.08036.05378,3.27878,2.02638,4.63174,5.20125,4.79859a4.8114,4.8114,0,0,0,5.47734-5.1673C68.80745,84.10694,66.5012,82.803,63.34271,82.7184Z"/><path class="cls-13" d="M166.7114,99.16006a4.88491,4.88491,0,0,0-5.41839-5.36537,5.1202,5.1202,0,0,0-5.166,5.074q-.00059.06356.00043.12711c-.031,3.28295,2.36264,4.9706,5.30943,5.53463C164.71486,103.98311,166.71685,102.30551,166.7114,99.16006Z"/><path class="cls-14" d="M259.3611,98.773c3.21105.58166,4.83936-1.76905,5.4666-4.57572.22056-3.3073-.91132-5.55649-4.28047-5.91809a5.51241,5.51241,0,0,0-6.31673,4.5686q-.00952.0594-.01778.119C253.47311,96.62073,256.51089,98.2566,259.3611,98.773Z"/><path class="cls-15" d="M300.36,271.94867a4.46736,4.46736,0,0,0-5.01232,4.72649c-.03736,3.79473,1.34871,6.10328,5.03216,6.00921a5.3762,5.3762,0,1,0-.01984-10.73574Z"/><path class="cls-16" d="M202.24124,295.859c3.00228.29138,4.53271-2.11419,4.75289-5.26185a4.87592,4.87592,0,0,0-5.16359-5.18188,5.12019,5.12019,0,0,0-5.54225,5.41932C196.298,294.14866,198.18979,295.71916,202.24124,295.859Z"/></svg>