<svg width="40" height="40" viewBox="0 0 40 40" fill="none" xmlns="http://www.w3.org/2000/svg">
<g clip-path="url(#clip0_23296_3708)">
<path d="M40 0H0V40H40V0Z" fill="#7AA116" fill-opacity="0.12"/>
<path fill-rule="evenodd" clip-rule="evenodd" d="M20.979 19C20.151 19 19.479 19.671 19.479 20.5C19.479 21.329 20.151 22 20.979 22C21.807 22 22.479 21.329 22.479 20.5C22.479 19.671 21.807 19 20.979 19ZM27.979 23C29.358 23 30.479 21.878 30.479 20.5C30.479 19.122 29.358 18 27.979 18C26.6 18 25.479 19.122 25.479 20.5C25.479 21.878 26.6 23 27.979 23ZM27.979 24C26.049 24 24.479 22.43 24.479 20.5C24.479 18.57 26.049 17 27.979 17C29.909 17 31.479 18.57 31.479 20.5C31.479 22.43 29.909 24 27.979 24ZM13.479 25.998L27.479 26C30.471 25.998 33 23.479 33 20.499C33 17.52 30.471 15.002 27.479 15.002L13.479 15C10.509 15.002 8 17.52 8 20.499C8 23.48 10.509 25.998 13.479 25.998ZM27.479 26.998L13.479 27C9.966 26.998 7 24.021 7 20.499C7 16.977 9.966 14.002 13.479 14.002L27.479 14C31.013 14.002 34 16.979 34 20.499C34 24.022 31.013 26.998 27.479 26.998ZM8.479 8H13.479V7H7.979C7.703 7 7.479 7.224 7.479 7.5V13H8.479V8ZM32.479 13H33.479V7.5C33.479 7.224 33.255 7 32.979 7H27.479V8H32.479V13ZM8.479 27H7.479V32.5C7.479 32.776 7.703 33 7.979 33H13.479V32H8.479V27ZM32.479 27H33.479V32.5C33.479 32.776 33.255 33 32.979 33H27.479V32H32.479V27Z" fill="#7AA116"/>
</g>
<rect x="0.5" y="0.5" width="39" height="39" stroke="#7AA116"/>
<defs>
<clipPath id="clip0_23296_3708">
<rect width="40" height="40" fill="white"/>
</clipPath>
</defs>
</svg>
