<svg width="24" height="24" viewBox="0 0 24 24" fill="none" xmlns="http://www.w3.org/2000/svg">
<path d="M12.4723 3L21.3618 18.3309L22 19.4324L10.412 19.4324C9.71842 20.9471 8.18437 22 6.40335 22C3.97145 22 2 20.0369 2 17.6154C2 15.1938 3.97145 13.2308 6.40335 13.2308C6.44869 13.2308 6.49386 13.2315 6.53886 13.2328L12.4723 3ZM6.33521 15.2401L5.668 15.9045L7.07864 17.3099L3.89764 17.3093V18.2534L7.08264 18.2539L5.668 19.6613L6.335 20.3259L8.88967 17.7837L6.33521 15.2401ZM12.4723 15.8481L10.6962 16.6351C10.7685 16.9503 10.8067 17.2784 10.8067 17.6154C10.8067 17.7327 10.8021 17.849 10.793 17.964L17.2476 17.963L12.4723 15.8481ZM12.4723 11.4653L9.46344 14.4626C9.7166 14.7062 9.94048 14.9799 10.1293 15.2777L12.4723 14.2408L17.4886 16.462L12.4723 11.4653ZM12.4723 5.93601L8.05713 13.5505C8.11227 13.5728 8.16685 13.5961 8.22085 13.6205L12.4723 9.38169L17.2046 14.1L12.4723 5.93601Z" fill="white"/>
</svg>
