<svg width="40" height="40" viewBox="0 0 40 40" fill="none" xmlns="http://www.w3.org/2000/svg">
<g clip-path="url(#clip0_23295_3173)">
<path d="M40 0H0V40H40V0Z" fill="#7AA116" fill-opacity="0.12"/>
<path fill-rule="evenodd" clip-rule="evenodd" d="M34 20.792L31.14 22.764C31.056 22.822 30.956 22.852 30.855 22.852C30.822 22.852 30.788 22.849 30.754 22.841C30.619 22.813 30.503 22.731 30.432 22.615L28.627 19.691L29.477 19.168L30.697 21.146C30.843 20.4 30.941 19.645 30.941 18.879C30.941 12.327 25.571 6.997 18.97 6.997C12.368 6.997 6.998 12.327 6.998 18.879C6.998 20.181 7.208 21.46 7.623 22.68L6.678 23C6.229 21.677 6 20.29 6 18.879C6 11.778 11.818 6 18.97 6C26.121 6 31.939 11.778 31.939 18.879C31.939 19.641 31.865 20.398 31.732 21.145L33.433 19.972L34 20.792ZM20.976 17.231C22.464 18.239 26.417 20.916 26.417 25.526C26.417 30.137 23.367 33.001 18.458 33.001C13.55 33.001 10.5 30.137 10.5 25.526C10.5 20.916 14.453 18.239 15.941 17.231C16.075 17.141 16.188 17.064 16.276 17H20.641C20.729 17.064 20.842 17.141 20.976 17.231ZM16.546 13.739C16.672 13.771 16.804 13.752 16.916 13.688C16.985 13.648 17.028 13.623 18.502 12.126L19.979 13.607C20.104 13.731 20.283 13.783 20.454 13.739L22.735 13.167L20.57 16H16.216L14.191 13.149L16.546 13.739ZM29.211 16.074C28.894 15.927 28.637 15.661 28.447 15.283C28.075 14.541 27.562 14.353 27.195 14.326C26.173 14.254 25.068 15.451 24.642 16.004H21.827L24.397 12.639C24.526 12.47 24.534 12.238 24.418 12.06C24.302 11.883 24.085 11.797 23.879 11.85L20.486 12.7L18.854 11.063C18.76 10.969 18.633 10.916 18.5 10.916H18.498C18.365 10.917 18.237 10.97 18.144 11.065C17.506 11.714 16.799 12.428 16.529 12.704L13.121 11.85C12.919 11.798 12.705 11.881 12.587 12.053C12.469 12.226 12.471 12.454 12.593 12.625L15.311 16.452C13.795 17.479 9.5 20.46 9.5 25.526C9.5 30.674 13.017 34 18.458 34C23.9 34 27.417 30.674 27.417 25.526C27.417 21.169 24.241 18.357 22.387 17H24.895C25.058 17 25.21 16.921 25.304 16.789C25.738 16.174 26.577 15.296 27.122 15.32C27.18 15.324 27.356 15.337 27.553 15.729C27.842 16.305 28.27 16.737 28.789 16.977L29.211 16.074ZM20.5 27.437C20.5 28.375 19.86 29.158 19 29.383V25.57C19.779 25.853 20.5 26.447 20.5 27.437ZM16.5 22.4C16.5 21.463 17.14 20.68 18 20.454V24.267C17.221 23.984 16.5 23.39 16.5 22.4ZM15.5 22.4C15.5 23.783 16.491 24.906 18 25.311V29.383C17.14 29.158 16.5 28.375 16.5 27.437H15.5C15.5 28.929 16.584 30.163 18 30.404V30.888H19V30.404C20.416 30.163 21.5 28.929 21.5 27.437C21.5 26.054 20.509 24.931 19 24.526V20.454C19.86 20.68 20.5 21.463 20.5 22.4H21.5C21.5 20.909 20.416 19.674 19 19.433V18.888H18V19.433C16.584 19.674 15.5 20.909 15.5 22.4Z" fill="#7AA116"/>
</g>
<rect x="0.5" y="0.5" width="39" height="39" stroke="#7AA116"/>
<defs>
<clipPath id="clip0_23295_3173">
<rect width="40" height="40" fill="white"/>
</clipPath>
</defs>
</svg>
