<?xml version="1.0" encoding="UTF-8"?><!DOCTYPE svg>
    <svg width="20" height="20" viewBox="0 0 31 32" fill="none" xmlns="http://www.w3.org/2000/svg">
<g clip-path="url(#clip0_36_54)">
<path d="M21.6839 13.0061L17.2575 15.2229C17.3712 15.475 17.4186 15.7618 17.4091 16.0488C17.3997 16.3183 17.3333 16.5791 17.2195 16.8138L21.3995 19.1437C21.7786 18.709 22.3379 18.4221 22.9539 18.3786L23.1435 13.8406C23.0962 13.8319 23.0583 13.8232 23.0109 13.8145C22.4517 13.6928 21.9967 13.3973 21.6839 13.0061Z" fill="white"/>
<path d="M29.2002 7.58985L15.9494 0.574176C15.4091 0.278599 14.7361 0.278599 14.1864 0.574176L0.945009 7.58985C0.39526 7.87675 0.0635114 8.40706 0.0635114 8.98953V23.0209C0.0540372 23.3078 0.13934 23.5859 0.290997 23.8294C0.442655 24.0728 0.670129 24.2815 0.935534 24.4206L14.1864 31.4362C14.7266 31.7318 15.3997 31.7318 15.9494 31.4362L29.2002 24.4206C29.7499 24.1337 30.0817 23.6033 30.0817 23.0209V8.98953C30.0817 8.41577 29.7499 7.87675 29.2002 7.58985ZM23.6838 18.283C24.9065 18.4655 25.7406 19.5261 25.5416 20.6475C25.3425 21.769 24.1862 22.5341 22.9634 22.3515C21.7407 22.1689 20.9066 21.1083 21.1056 19.9869C21.1341 19.8304 21.1815 19.6913 21.2383 19.5522L16.973 17.3614C16.5655 17.8743 15.9019 18.2047 15.1626 18.2047C14.4233 18.2047 13.7599 17.8743 13.3522 17.3701L9.08698 19.5522C9.1912 19.7869 9.24812 20.0478 9.24812 20.3173C9.24812 20.6128 9.18183 20.891 9.05852 21.1431L13.3997 23.5165C13.8072 23.0383 14.4518 22.7339 15.1626 22.7339C16.4043 22.7339 17.409 23.6555 17.409 24.7944C17.409 25.9333 16.4043 26.8547 15.1626 26.8547C13.921 26.8547 12.9163 25.9333 12.9163 24.7944C12.9163 24.4987 12.9826 24.2206 13.1058 23.9685L8.76469 21.5952C8.35715 22.0733 7.72208 22.3776 7.00174 22.3776C5.76004 22.3776 4.75533 21.4561 4.75533 20.3173C4.75533 19.1784 5.76004 18.2568 7.00174 18.2568C7.74104 18.2568 8.40457 18.5872 8.81212 19.0914L13.0774 16.9007C12.9731 16.6659 12.9163 16.4051 12.9163 16.1357C12.9163 15.0837 13.7694 14.2231 14.8783 14.0926V9.25041C14.2717 9.18081 13.7409 8.88519 13.3807 8.45922L8.86903 10.876C8.98275 11.1194 9.04903 11.3976 9.04903 11.6759C9.04903 12.8147 8.04435 13.7362 6.80268 13.7362C5.56101 13.7362 4.55629 12.8147 4.55629 11.6759C4.55629 10.537 5.56101 9.61543 6.80268 9.61543C7.53251 9.61543 8.17703 9.92846 8.58469 10.4239L13.0963 8.00716C12.9826 7.76374 12.9163 7.48555 12.9163 7.20735C12.9163 6.0685 13.921 5.14699 15.1626 5.14699C16.4043 5.14699 17.409 6.0685 17.409 7.20735C17.409 8.25927 16.556 9.11994 15.447 9.25041V14.0926C16.0441 14.1622 16.575 14.449 16.9256 14.8576L21.2667 12.493C21.0962 12.1279 21.0393 11.7106 21.1246 11.2846C21.3616 10.1632 22.5369 9.43292 23.7595 9.65029C24.9823 9.86755 25.7785 10.9456 25.5416 12.0671C25.352 12.9625 24.5558 13.6145 23.6175 13.7187V18.2656C23.6363 18.2742 23.6648 18.283 23.6838 18.283Z" fill="white"/>
</g>
<defs>
<clipPath id="clip0_36_54">
<rect width="31" height="32" fill="white"/>
</clipPath>
</defs>
</svg>