<?xml version="1.0" encoding="UTF-8"?><!DOCTYPE svg>
<svg width="18" height="18" viewBox="0 0 32 32" fill="none" xmlns="http://www.w3.org/2000/svg">
<g clip-path="url(#clip0_36_80)">
<path d="M16.4632 7.69351V15.2015L22.9702 11.4346L16.4632 7.69351Z" fill="white"/>
<path d="M16.4632 16.7705V24.3157L23.0307 20.5607L16.4632 16.7705Z" fill="white"/>
<path d="M15.5274 15.1502V7.75632L9.10194 11.4416L15.5274 15.1502Z" fill="white" fill-opacity="0.8"/>
<path d="M2.63699 24.2878C3.89756 26.3157 5.60178 28.031 7.62134 29.3047V21.4033L2.63699 24.2878Z" fill="white" fill-opacity="0.8"/>
<path d="M15.5274 24.2785V16.8264L9.08579 20.556L15.5274 24.2785Z" fill="white" fill-opacity="0.8"/>
<path d="M8.55965 28.8344L15.0829 25.1049L8.55965 21.3335V28.8344Z" fill="white"/>
<path d="M23.4753 28.8742V21.3848L16.9615 25.1096L23.4753 28.8742Z" fill="white" fill-opacity="0.8"/>
<path d="M29.852 23.4194C30.9655 21.341 31.5949 19.0378 31.6935 16.6819L24.9119 20.5651L29.852 23.4194Z" fill="white" fill-opacity="0.8"/>
<path d="M24.4136 19.7691L30.96 16.0256L24.4136 12.2634V19.7691Z" fill="white"/>
<path d="M23.4755 10.6455V3.20041L16.9919 6.91827L23.4755 10.6455Z" fill="white" fill-opacity="0.8"/>
<path d="M23.4754 19.7364V12.2239L16.9779 15.986L23.4754 19.7364Z" fill="white" fill-opacity="0.8"/>
<path d="M8.55965 12.2099V19.7784L15.1061 15.9882L8.55965 12.2099Z" fill="white"/>
<path d="M15.5274 0.285706C13.1176 0.353534 10.756 0.977397 8.6271 2.10855L15.5274 6.06621V0.285706Z" fill="white" fill-opacity="0.8"/>
<path d="M8.55965 3.1492V10.6734L15.1107 6.91597L8.55965 3.1492Z" fill="white"/>
<path d="M7.62134 2.69299C5.60228 3.96735 3.89818 5.6826 2.63699 7.7099L7.62134 10.5873V2.69299Z" fill="white" fill-opacity="0.8"/>
<path d="M23.4335 2.14811C21.2869 0.992986 18.9001 0.355226 16.4632 0.285706V6.14069L23.4335 2.14811Z" fill="white"/>
<path d="M0.285713 16.5517C0.367085 18.9754 1.01023 21.3471 2.16447 23.4799L7.21396 20.5559L0.285713 16.5517Z" fill="white"/>
<path d="M2.16447 8.51996C1.01384 10.6433 0.370833 13.0043 0.285713 15.4178L7.22097 11.4393L2.16447 8.51996Z" fill="white"/>
<path d="M8.61544 29.8822C10.7469 31.0189 13.1128 31.6461 15.5274 31.7143V25.9291L8.61544 29.8822Z" fill="white" fill-opacity="0.8"/>
<path d="M29.3675 7.73539C28.1143 5.71396 26.4208 4.00147 24.4136 2.72543V10.5987L29.3675 7.73539Z" fill="white"/>
<path d="M24.4136 29.2791C26.4312 27.994 28.1314 26.2684 29.3863 24.2321L24.4136 21.3591V29.2791Z" fill="white"/>
<path d="M31.7143 15.3738C31.6251 12.9835 30.9879 10.6458 29.8518 8.54102L24.8441 11.4325L31.7143 15.3738Z" fill="white" fill-opacity="0.8"/>
<path d="M16.4632 31.7143C18.8725 31.6467 21.2333 31.0229 23.3613 29.8914L16.4632 25.8942V31.7143Z" fill="white"/>
<path d="M7.62141 19.711V12.2892L1.17738 15.9838L7.62141 19.711Z" fill="white" fill-opacity="0.8"/>
</g>
<defs>
<clipPath id="clip0_36_80">
<rect width="32" height="32" fill="white"/>
</clipPath>
</defs>
</svg>