<?xml version="1.0" encoding="utf-8"?>
<!-- Generator: Adobe Illustrator 25.2.3, SVG Export Plug-In . SVG Version: 6.00 Build 0)  -->
<svg version="1.1" id="Layer_1" xmlns="http://www.w3.org/2000/svg" xmlns:xlink="http://www.w3.org/1999/xlink" x="0px" y="0px"
	 viewBox="0 0 105 105" style="enable-background:new 0 0 105 105;" xml:space="preserve">
<style type="text/css">
	.st0{fill:#00C1D5;}
	.st1{fill:#1D428A;}
	.st2{fill:#717074;}
</style>
<path class="st0" d="M29.3,81.1L29.3,81.1L29.3,81.1L29.3,81.1z"/>
<path class="st0" d="M25.2,77.2L25.2,77.2L25.2,77.2z"/>
<path class="st1" d="M78,61.5c-0.8,3.5-2,6.9-3.7,10.2c3.1,1,6.1,2.3,8.9,3.9C85.9,71,88,66,89.4,60.8c0-0.2,0.1-0.4,0.2-0.6
	l-5.4,0.6C82.1,61,80.1,61.3,78,61.5z"/>
<path class="st1" d="M71.3,76.6c-5.3,7-13.8,11.6-26.2,12.2c-1.6,0.1-3.1,0.1-4.5,0.1c4.1,1.7,8.5,2.5,13,2.3
	c12.1-0.6,19.6-4.2,24.9-9.5c0.5-0.5,0.9-1,1.4-1.5l0,0C77.1,78.7,74.3,77.5,71.3,76.6z"/>
<path class="st1" d="M80.5,44c-0.1,1.2-0.2,2.4-0.3,3.6c-0.3,2.7-0.6,5.4-1,8.1l4.7-0.5c2.5-0.3,4.9-0.5,7.3-0.8c1-4,1.9-8.2,3-12.4
	C89.6,42.7,85.1,43.4,80.5,44z"/>
<path class="st1" d="M75.2,39c0.2-3.7,0.4-7.5,0.7-11.3c-3.6,0.5-7.2,0.9-10.8,1.3c-0.3,3.8-0.6,7.6-1,11.4c0,0.1,0,0.2,0,0.3h0.3
	C68,40.1,71.6,39.5,75.2,39z"/>
<path class="st1" d="M59.8,23.9c0.3-4.5,0.7-9,1.1-13.3c-3.8,1.1-7.5,2.2-11.1,3.2c-0.1,1.8-0.1,3.7-0.2,5.6s-0.2,4.1-0.2,6.1
	c2.2-0.4,4.4-0.8,6.6-1.2C57.2,24.3,58.5,24.1,59.8,23.9z"/>
<path class="st1" d="M74.5,47.3c0.1-0.8,0.1-1.7,0.2-2.5c-3.3,0.5-6.5,0.9-9.7,1.5l-1.7,0.3c-0.5,3.8-1.2,7.7-2.1,11.4
	c4-0.7,8-1.2,12-1.7C73.8,53.4,74.2,50.4,74.5,47.3z"/>
<path class="st1" d="M72,62.2c-4.2,0.5-8.4,1.2-12.5,1.9c-0.8,2.2-1.6,4.3-2.7,6.4c3.9-0.5,7.9-0.6,11.8-0.1
	C70.1,67.9,71.2,65.1,72,62.2z"/>
<path class="st1" d="M58.5,40.1c0.3-3.4,0.6-6.8,0.9-10.3c-1,0.1-1.9,0.2-2.9,0.4c-2.6,0.4-5,0.8-7.4,1.4c-0.3,4.3-0.6,8.6-1.1,12.9
	c3.3-1,6.8-1.9,10.4-2.6C58.4,41.2,58.4,40.6,58.5,40.1z"/>
<path class="st1" d="M43.3,33c-3.3,0.9-6.4,2.3-9.3,4c0.8,4.3,1,8.8,0.6,13.2c2.3-1.4,4.8-2.7,7.4-3.7C42.5,42,42.9,37.5,43.3,33z"
	/>
<path class="st1" d="M28.2,55c0.9-4.6,1.2-9.3,0.8-13.9l0,0c-4.2,4.4-6.7,10.6-6.7,20.4v1.7C23.8,60.2,25.9,57.4,28.2,55L28.2,55z"
	/>
<path class="st1" d="M25.5,70.2c4-2.5,8.3-4.6,12.7-6.2c1.1-3.6,2-7.2,2.7-10.8c-1.7,0.8-3.3,1.7-4.8,2.8
	C30.9,59.4,27.2,63.8,25.5,70.2z"/>
<path class="st1" d="M46,83.1c9-0.6,14.7-3.3,18.7-7.4c-4.1-0.1-8.1,0.3-12.1,1.3C50.8,79.3,48.5,81.4,46,83.1z"/>
<path class="st1" d="M25.2,77.2c1,1.6,2.4,3,4.1,3.9h0.1c0.3,0.2,0.6,0.3,0.9,0.4c2.1-3.3,3.8-6.8,5.3-10.4
	C31.9,72.8,28.4,74.8,25.2,77.2L25.2,77.2z"/>
<path class="st1" d="M50.8,70.1c0.9-1.5,1.6-3,2.3-4.6c-3.6,0.8-7.1,1.8-10.4,2.9c-1.6,4.6-3.6,9-6,13.2
	C43.3,79.6,47.5,75.6,50.8,70.1z"/>
<path class="st1" d="M77,16.6L77,16.6L77,16.6c-3.3-2.2-6.8-4-10.5-5.2c-0.4,3.9-0.8,7.9-1.1,12c3.7-0.4,7.3-0.9,10.9-1.3
	C76.5,20.2,76.8,18.4,77,16.6z"/>
<path class="st1" d="M43.6,27c0.1-2.5,0.2-5,0.3-7.4c0-1.3,0.1-2.6,0.1-3.9l-1.5,0.5c-5,1.7-9.9,4-14.3,6.9c1.7,2.7,3.1,5.5,4.2,8.4
	C35.9,29.6,39.7,28,43.6,27z"/>
<path class="st1" d="M27.6,34.8c-1-2.8-2.3-5.5-3.9-8c-0.5,0.5-0.9,0.9-1.4,1.4c-5,5.6-8.1,13.3-8.1,25.5c0.1,4.1,1,8.1,2.6,11.8
	c-0.1-1.2-0.1-2.4-0.1-3.7C16.6,49.2,20.9,40.4,27.6,34.8z"/>
<path class="st1" d="M87,26L87,26L87,26c-1.8,0.3-3.6,0.7-5.4,0.9c-0.3,3.7-0.5,7.5-0.8,11.4c4.1-0.6,8.2-1.2,12.1-1.8
	C91.4,32.7,89.4,29.2,87,26z"/>
<path class="st1" d="M57.5,47.7c-3.6,0.8-7.1,1.7-10.5,2.9c-0.6,3.8-1.4,7.5-2.4,11.2c3.4-1,7-1.9,10.5-2.6
	C56.2,55.4,57,51.6,57.5,47.7z"/>
<path class="st0" d="M94.8,42.4c0.1,0.6,0.3,1.1,0.4,1.7C95.1,43.6,94.9,43,94.8,42.4z"/>
<path class="st0" d="M95.3,44.6c0.1,0.5,0.2,1,0.3,1.6C95.5,45.6,95.4,45.1,95.3,44.6z"/>
<path class="st0" d="M94.3,40.3c0.2,0.6,0.3,1.2,0.5,1.8C94.6,41.5,94.4,40.9,94.3,40.3z"/>
<path class="st0" d="M95.8,56.7c-0.1,1.4-0.3,2.7-0.6,4C95.5,59.4,95.6,58,95.8,56.7z"/>
<path class="st0" d="M95.9,54.6c0,0.6,0,1.1-0.1,1.7C95.9,55.7,95.9,55.2,95.9,54.6z"/>
<path class="st0" d="M95.9,49.3c0,0.3,0.1,0.7,0.1,1C95.9,50,95.9,49.7,95.9,49.3z"/>
<path class="st0" d="M93.6,38.3c0.2,0.6,0.4,1.2,0.6,1.9C94.1,39.6,93.9,39,93.6,38.3z"/>
<path class="st0" d="M93.6,38.3c-0.2-0.6-0.4-1.2-0.7-1.9l0,0C93.2,37.1,93.4,37.7,93.6,38.3z"/>
<path class="st0" d="M95.6,46.9c0.1,0.4,0.1,0.9,0.2,1.3C95.7,47.8,95.6,47.3,95.6,46.9z"/>
<path class="st0" d="M87,26c-1.4-1.8-2.9-3.5-4.5-5C84.1,22.5,85.6,24.2,87,26z"/>
<path class="st0" d="M79.8,18.7c0.8,0.7,1.7,1.4,2.5,2.2C81.5,20.1,80.6,19.3,79.8,18.7z"/>
<path class="st0" d="M79.7,18.6c-0.9-0.7-1.8-1.4-2.7-2l0,0C77.9,17.2,78.8,17.9,79.7,18.6z"/>
<path class="st0" d="M95.9,50.3c0-0.3-0.1-0.7-0.1-1s0-0.7-0.1-1.1s-0.1-0.9-0.2-1.3l-0.1-0.7c-0.1-0.5-0.2-1.1-0.3-1.6
	c0-0.2,0-0.3-0.1-0.4c-0.1-0.6-0.2-1.2-0.4-1.7l-0.1-0.2c-0.1-0.6-0.3-1.2-0.5-1.8v-0.1c-0.2-0.6-0.4-1.2-0.6-1.9l0,0
	c-0.2-0.6-0.4-1.2-0.7-1.9c-3.9,0.7-8,1.3-12.1,1.8c0.3-3.8,0.5-7.6,0.8-11.4c1.8-0.3,3.5-0.6,5.3-0.9h0.1c-1.4-1.8-2.9-3.5-4.5-5
	l-0.2-0.2c-0.8-0.8-1.6-1.5-2.5-2.2l-0.1-0.1c-0.9-0.7-1.8-1.4-2.7-2l0,0c-0.3,1.8-0.5,3.5-0.7,5.3c-3.6,0.5-7.2,0.9-10.9,1.3
	c0.3-4.1,0.6-8.1,1.1-12c-22.5-7.6-47.2,4.5-54.9,27.3S15.8,86,38.6,93.7s47.5-4.4,55.2-27.2c0.6-1.9,1.2-3.8,1.5-5.8
	c0.2-1.3,0.4-2.7,0.6-4v-0.4c0.1-0.5,0.1-1.1,0.1-1.7c0-0.7,0.1-1.4,0.1-2.1S96,51.1,95.9,50.3z M64.1,40.3c0.4-3.8,0.7-7.6,1-11.4
	c3.6-0.4,7.2-0.8,10.8-1.3c-0.3,3.8-0.5,7.6-0.7,11.3c-3.6,0.5-7.2,1-10.8,1.6h-0.3C64.1,40.6,64.1,40.5,64.1,40.3L64.1,40.3z
	 M63.4,46.6l1.7-0.3c3.2-0.5,6.4-1,9.7-1.5c-0.1,0.8-0.1,1.7-0.2,2.5c-0.3,3.1-0.7,6.2-1.2,9c-4,0.5-8,1-12,1.7
	C62.2,54.2,62.9,50.4,63.4,46.6L63.4,46.6z M56.8,70.6c1-2.1,1.9-4.2,2.7-6.4c4.1-0.8,8.2-1.4,12.5-1.9c-0.8,2.9-1.9,5.6-3.3,8.2
	C64.7,70,60.8,70,56.8,70.6L56.8,70.6z M64.8,75.7c-4,4.1-9.8,6.8-18.7,7.4c2.5-1.7,4.8-3.8,6.7-6.1C56.6,76.1,60.7,75.6,64.8,75.7
	L64.8,75.7z M49.6,19.5c0.1-1.9,0.1-3.8,0.2-5.6c3.6-1.1,7.4-2.1,11.1-3.2c-0.5,4.4-0.8,8.8-1.1,13.3c-1.3,0.2-2.6,0.4-3.9,0.5
	c-2.2,0.3-4.4,0.7-6.6,1.2C49.4,23.5,49.5,21.5,49.6,19.5z M49.1,31.5c2.4-0.5,4.9-1,7.4-1.4c1-0.1,1.9-0.3,2.9-0.4
	c-0.3,3.5-0.5,6.9-0.9,10.3c-0.1,0.6-0.1,1.2-0.2,1.7c-3.6,0.7-7.1,1.6-10.4,2.6C48.4,40,48.8,35.7,49.1,31.5L49.1,31.5z M47.1,50.6
	c3.4-1.2,6.9-2.1,10.5-2.9c-0.6,3.9-1.3,7.7-2.4,11.4c-3.6,0.7-7.1,1.6-10.6,2.6C45.6,58.1,46.4,54.3,47.1,50.6L47.1,50.6z
	 M42.5,16.2l1.6-0.5c0,1.3-0.1,2.6-0.1,3.9c-0.1,2.5-0.2,4.9-0.3,7.5c-3.9,1-7.7,2.6-11.2,4.5c-1.1-2.9-2.5-5.8-4.2-8.4
	C32.6,20.2,37.4,17.9,42.5,16.2z M34.5,50.2c0.5-4.4,0.3-8.8-0.6-13.2c2.9-1.7,6-3.1,9.3-4c-0.3,4.5-0.7,9.1-1.3,13.5
	C39.4,47.5,36.9,48.8,34.5,50.2z M40.8,53.1c-0.7,3.7-1.6,7.3-2.7,10.9c-4.4,1.7-8.7,3.7-12.7,6.2c1.7-6.4,5.4-10.8,10.5-14.3
	C37.5,54.9,39.1,53.9,40.8,53.1z M16.8,65.5c-1.6-3.7-2.5-7.7-2.6-11.8c0-12.2,3.2-20,8.1-25.5c0.4-0.5,0.9-1,1.4-1.4
	c1.7,2.5,3,5.2,3.9,8c-6.7,5.7-11,14.4-11,27C16.6,63.1,16.7,64.3,16.8,65.5z M22.3,61.5c0-9.8,2.5-16,6.6-20.4l0,0
	c0.4,4.6,0.2,9.3-0.8,13.9h0.1c-2.4,2.4-4.5,5.1-6,8.2L22.3,61.5z M30.2,81.5c-0.3-0.1-0.6-0.3-0.9-0.4l0,0l0,0
	c-1.7-0.9-3.1-2.2-4.1-3.9l0,0l0,0c3.2-2.4,6.7-4.4,10.3-6C34.1,74.8,32.3,78.2,30.2,81.5L30.2,81.5z M42.6,68.4
	c3.3-1.1,6.8-2.1,10.4-2.9c-0.6,1.6-1.4,3.1-2.3,4.6c-3.2,5.5-7.5,9.5-14.1,11.5C39.1,77.4,41.1,73,42.6,68.4z M78.5,81.8
	c-5.3,5.3-12.8,8.9-24.9,9.5c-4.5,0.2-8.9-0.6-13-2.3c1.4,0,3,0,4.5-0.1c12.4-0.7,20.9-5.2,26.2-12.2c3,0.8,5.9,2,8.6,3.6l0,0
	C79.4,80.8,78.9,81.3,78.5,81.8L78.5,81.8z M89.5,60.8C88.1,66,86,70.9,83.3,75.6c-2.8-1.6-5.8-2.9-8.9-3.9
	c1.6-3.2,2.8-6.7,3.7-10.2c2.1-0.2,4.1-0.5,6.2-0.7l5.4-0.6C89.5,60.4,89.5,60.6,89.5,60.8L89.5,60.8z M91.2,54.3
	c-2.4,0.3-4.8,0.5-7.3,0.8l-4.7,0.5c0.4-2.7,0.8-5.4,1-8.1c0.1-1.2,0.2-2.4,0.3-3.6c4.6-0.6,9.2-1.3,13.6-2
	C93.1,46.2,92.2,50.3,91.2,54.3L91.2,54.3z"/>
<path class="st2" d="M95.2,44.1c0,0.2,0,0.3,0.1,0.4C95.2,44.4,95.2,44.3,95.2,44.1z"/>
<path class="st2" d="M94.7,42.2l0.1,0.2L94.7,42.2z"/>
<path class="st2" d="M93.6,38.3L93.6,38.3z"/>
<path class="st2" d="M94.2,40.2L94.2,40.2L94.2,40.2z"/>
<path class="st2" d="M79.7,18.6L79.7,18.6L79.7,18.6z"/>
<path class="st2" d="M95.8,56.3v0.4V56.3z"/>
<path class="st2" d="M95.5,46.2l0.1,0.7L95.5,46.2z"/>
<path class="st2" d="M52.5,0C23.5,0,0,23.5,0,52.5S23.5,105,52.5,105S105,81.5,105,52.5S81.5,0,52.5,0z M95.8,56.3v0.4
	c-0.1,1.4-0.3,2.7-0.6,4c-4.5,23.6-27.3,39-50.9,34.5S5.3,67.9,9.8,44.3s27.3-39,50.9-34.5c5.8,1.1,11.4,3.4,16.3,6.8
	c0.9,0.6,1.8,1.3,2.7,2l0.1,0.1c0.8,0.7,1.7,1.4,2.5,2.2l0.2,0.2c1.6,1.5,3.1,3.2,4.5,5c2.5,3.2,4.5,6.7,6,10.5
	c0.2,0.6,0.5,1.2,0.7,1.9l0,0c0.2,0.6,0.4,1.2,0.6,1.9v0.1c0.2,0.6,0.3,1.2,0.5,1.8l0.1,0.2c0.1,0.6,0.3,1.1,0.4,1.7
	c0,0.2,0,0.3,0.1,0.4c0.1,0.5,0.2,1,0.3,1.6l0.1,0.7c0,0.4,0.1,0.9,0.2,1.3s0.1,0.7,0.1,1.1s0.1,0.7,0.1,1c0,0.7,0.1,1.4,0.1,2.2
	s0,1.4-0.1,2.1C95.9,55.2,95.9,55.7,95.8,56.3z"/>
<path class="st2" d="M82.3,20.8l0.2,0.2L82.3,20.8z"/>
<path class="st2" d="M96,52.5c0,0.7,0,1.4-0.1,2.1C96,53.9,96,53.2,96,52.5z"/>
<path class="st2" d="M95.8,48.2c0,0.4,0.1,0.7,0.1,1.1C95.9,49,95.8,48.6,95.8,48.2z"/>
<path class="st2" d="M95.9,50.3c0,0.7,0.1,1.4,0.1,2.2C96,51.8,96,51.1,95.9,50.3z"/>
</svg>