<?xml version="1.0" encoding="utf-8"?>
<!-- Generator: Adobe Illustrator 25.2.3, SVG Export Plug-In . SVG Version: 6.00 Build 0)  -->
<svg version="1.1" id="Layer_1" xmlns="http://www.w3.org/2000/svg" xmlns:xlink="http://www.w3.org/1999/xlink" x="0px" y="0px"
	 viewBox="0 0 105 105" style="enable-background:new 0 0 105 105;" xml:space="preserve">
<style type="text/css">
	.st0{fill:#FFFFFF;}
</style>
<path class="st0" d="M25.2,77.2L25.2,77.2c1,1.6,2.4,3,4.1,3.9l0,0l0,0c0.3,0.2,0.6,0.3,0.9,0.4c2.1-3.3,3.8-6.8,5.3-10.4
	C31.8,72.7,28.4,74.8,25.2,77.2L25.2,77.2z"/>
<path class="st0" d="M78,61.5c-0.8,3.5-2,6.9-3.7,10.2c3.1,1,6.1,2.3,8.9,3.9C85.9,71,88,66,89.4,60.8c0-0.2,0.1-0.4,0.2-0.6
	l-5.4,0.6C82.1,61,80.1,61.3,78,61.5z"/>
<path class="st0" d="M71.3,76.6c-5.3,7-13.8,11.6-26.2,12.2c-1.6,0.1-3.1,0.1-4.5,0.1c4.1,1.7,8.5,2.5,13,2.3
	c12.1-0.6,19.6-4.2,24.9-9.5c0.5-0.5,0.9-1,1.4-1.5l0,0C77.1,78.7,74.3,77.5,71.3,76.6z"/>
<path class="st0" d="M80.2,47.6c-0.3,2.7-0.6,5.4-1,8.1l4.7-0.5c2.5-0.3,4.9-0.5,7.3-0.8c1-4,1.9-8.2,3-12.4
	c-4.5,0.8-9.1,1.4-13.7,2C80.4,45.2,80.3,46.4,80.2,47.6z"/>
<path class="st0" d="M75.2,39c0.2-3.7,0.4-7.5,0.7-11.3c-3.6,0.5-7.2,0.9-10.8,1.3c-0.3,3.8-0.6,7.6-1,11.4c0,0.1,0,0.2,0,0.3h0.3
	C68,40.1,71.6,39.5,75.2,39z"/>
<path class="st0" d="M59.8,23.9c0.3-4.5,0.7-9,1.1-13.3c-3.8,1.1-7.5,2.2-11.1,3.2c-0.1,1.8-0.1,3.7-0.2,5.6s-0.2,4.1-0.2,6.1
	c2.2-0.4,4.4-0.8,6.6-1.2C57.2,24.3,58.5,24.1,59.8,23.9z"/>
<path class="st0" d="M74.5,47.3c0.1-0.8,0.1-1.7,0.2-2.5c-3.3,0.5-6.5,0.9-9.7,1.5l-1.7,0.3c-0.5,3.8-1.2,7.7-2.1,11.4
	c4-0.7,8-1.2,12-1.7C73.8,53.4,74.2,50.4,74.5,47.3z"/>
<path class="st0" d="M72,62.2c-4.2,0.5-8.4,1.2-12.5,1.9c-0.8,2.2-1.6,4.3-2.7,6.4c3.9-0.5,7.9-0.6,11.8-0.1
	C70.1,67.9,71.2,65.1,72,62.2z"/>
<path class="st0" d="M58.5,40.1c0.3-3.4,0.6-6.8,0.9-10.3c-1,0.1-1.9,0.2-2.9,0.4c-2.6,0.4-5,0.8-7.4,1.4c-0.3,4.3-0.6,8.6-1.1,12.9
	c3.3-1,6.8-1.9,10.4-2.6C58.4,41.2,58.4,40.6,58.5,40.1z"/>
<path class="st0" d="M43.3,33c-3.3,0.9-6.4,2.3-9.3,4c0.8,4.3,1,8.8,0.6,13.2c2.3-1.4,4.8-2.7,7.4-3.7C42.5,42,42.9,37.5,43.3,33z"
	/>
<path class="st0" d="M28.2,55c0.9-4.6,1.2-9.3,0.8-13.9c-4.2,4.4-6.7,10.6-6.7,20.4v1.7C23.8,60.2,25.9,57.4,28.2,55L28.2,55z"/>
<path class="st0" d="M25.5,70.2c4-2.5,8.3-4.6,12.7-6.2c1.1-3.6,2-7.2,2.7-10.8c-1.7,0.8-3.3,1.7-4.8,2.8
	C30.9,59.4,27.2,63.8,25.5,70.2z"/>
<path class="st0" d="M46,83.1c9-0.6,14.7-3.3,18.7-7.4c-4.1-0.1-8.1,0.3-12.1,1.3C50.8,79.3,48.5,81.4,46,83.1z"/>
<path class="st0" d="M50.8,70.1c0.9-1.5,1.6-3,2.3-4.6c-3.6,0.8-7.1,1.8-10.4,2.9c-1.6,4.6-3.6,9-6,13.2
	C43.3,79.6,47.5,75.6,50.8,70.1z"/>
<path class="st0" d="M43.6,27c0.1-2.5,0.2-5,0.3-7.4c0-1.3,0.1-2.6,0.1-3.9l-1.5,0.5c-5,1.7-9.9,4-14.3,6.9c1.7,2.7,3.1,5.5,4.2,8.4
	C35.9,29.6,39.7,28,43.6,27z"/>
<path class="st0" d="M27.6,34.8c-1-2.8-2.3-5.5-3.9-8c-0.5,0.5-0.9,0.9-1.4,1.4c-5,5.6-8.1,13.3-8.1,25.5c0.1,4.1,0.9,8.1,2.6,11.8
	c-0.1-1.2-0.1-2.4-0.1-3.7C16.6,49.2,20.9,40.4,27.6,34.8z"/>
<path class="st0" d="M57.5,47.7c-3.6,0.8-7.1,1.7-10.5,2.9c-0.6,3.8-1.4,7.5-2.4,11.2c3.4-1,7-1.9,10.5-2.6
	C56.2,55.4,57,51.6,57.5,47.7z"/>
<path class="st0" d="M52.5,0C23.5,0,0,23.5,0,52.5S23.5,105,52.5,105S105,81.5,105,52.5S81.5,0,52.5,0z M95.8,56.3v0.4
	c-0.1,1.4-0.3,2.7-0.6,4c-4.5,23.6-27.3,39.1-50.9,34.5S5.3,67.9,9.8,44.3S37.1,5.2,60.7,9.8c2,0.4,3.9,0.9,5.8,1.5
	c-0.4,3.9-0.8,7.9-1.1,12c3.7-0.4,7.3-0.9,10.9-1.3c0.2-1.8,0.4-3.6,0.7-5.3l0,0c0.9,0.6,1.8,1.3,2.7,2l0.1,0.1
	c0.8,0.7,1.7,1.4,2.5,2.2l0.2,0.2c1.6,1.5,3.1,3.2,4.5,5h-0.1c-1.7,0.3-3.5,0.7-5.3,0.9c-0.3,3.7-0.5,7.5-0.8,11.4
	c4.1-0.6,8.2-1.2,12.1-1.8c0.2,0.6,0.5,1.2,0.7,1.9l0,0c0.2,0.6,0.4,1.2,0.6,1.9v0.1c0.2,0.6,0.3,1.2,0.5,1.8l0.1,0.2
	c0.1,0.6,0.3,1.1,0.4,1.7c0,0.2,0,0.3,0.1,0.4c0.1,0.5,0.2,1,0.3,1.6l0.1,0.7c0.1,0.4,0.1,0.9,0.2,1.3S96,49,96,49.4s0.1,0.7,0.1,1
	c0,0.7,0.1,1.4,0.1,2.2s0,1.4-0.1,2.1C95.9,55.2,95.9,55.7,95.8,56.3z"/>
</svg>