<svg width="32" height="32" viewBox="0 0 32 32" fill="none" xmlns="http://www.w3.org/2000/svg"><path d="M11.493 22.464c0-1.285.532-2.517 1.48-3.425a5.16 5.16 0 0 1 3.57-1.42c1.34 0 2.624.511 3.571 1.42a4.746 4.746 0 0 1 1.48 3.425h-10.1Zm5.05-5.45c-2.092 0-3.787-1.626-3.787-3.633s1.695-3.633 3.787-3.633c2.093 0 3.788 1.626 3.788 3.633s-1.695 3.633-3.788 3.633Zm4.648 1.352a4.765 4.765 0 0 1 2.465 1.498 4.444 4.444 0 0 1 1.083 2.6h-1.883c0-1.58-.632-3.02-1.665-4.098Zm-1.277-1.378a4.847 4.847 0 0 0 1.241-1.631 4.67 4.67 0 0 0-.203-4.34 3.183 3.183 0 0 1 1.82 1.05 2.925 2.925 0 0 1 .433 3.17 3.023 3.023 0 0 1-.794 1.028 3.197 3.197 0 0 1-1.167.62c-.431.125-.884.16-1.33.103ZM9.77 16.621h1.633v1.031H9.77V19.2H8.68v-1.547H7.049v-1.03H8.68v-1.547h1.09v1.546Z" fill="#fff"/></svg>