<svg width="32" height="32" viewBox="0 0 32 32" fill="none" xmlns="http://www.w3.org/2000/svg"><path d="M15.91 26c-5.497 0-9.967-4.47-9.967-9.967a9.883 9.883 0 0 1 3.05-7.176.797.797 0 0 1 1.13.02.797.797 0 0 1-.02 1.131 8.308 8.308 0 0 0-2.556 6.025c0 4.61 3.753 8.362 8.362 8.362 4.61 0 8.362-3.752 8.362-8.362 0-4.34-3.323-7.923-7.564-8.327v3.12a.802.802 0 1 1-1.605 0V6.869c0-.444.359-.802.802-.802 5.497 0 9.967 4.47 9.967 9.966 0 5.497-4.465 9.967-9.962 9.967Z" fill="#fff"/><path d="m11.918 11.344 4.958 3.563A1.5 1.5 0 1 1 14.783 17l-3.563-4.958a.501.501 0 0 1 .698-.698Z" fill="#fff"/></svg>