<svg width="32" height="32" viewBox="0 0 151 151" fill="none" xmlns="http://www.w3.org/2000/svg"><path fill-rule="evenodd" clip-rule="evenodd" d="M42.702 143.288C5.35 125.405-10.434 80.624 7.447 43.268A74.986 74.986 0 0 1 50.15 4.923a74.974 74.974 0 0 1 57.306 3.085c37.353 17.884 53.137 62.665 35.255 100.021-17.881 37.357-62.657 53.143-100.009 35.259Z" fill="#326CE5"/><path d="M75.072 122.688c-25.937 0-47.03-21.094-47.03-47.03 0-12.887 5.102-24.904 14.39-33.863a3.761 3.761 0 0 1 5.339.094 3.761 3.761 0 0 1-.094 5.338c-7.784 7.525-12.064 17.613-12.064 28.43 0 21.752 17.707 39.459 39.46 39.459 21.75 0 39.458-17.707 39.458-39.459 0-20.482-15.685-37.39-35.697-39.294v14.72a3.783 3.783 0 0 1-3.785 3.787 3.783 3.783 0 0 1-3.786-3.786V32.412a3.783 3.783 0 0 1 3.785-3.785c25.938 0 47.031 21.093 47.031 47.03s-21.07 47.031-47.007 47.031Z" fill="#fff"/><path d="m56.236 53.53 23.398 16.813c3.175 2.28 3.927 6.701 1.646 9.876-2.28 3.175-6.702 3.927-9.876 1.646a6.838 6.838 0 0 1-1.646-1.646L52.944 56.82c-.752-1.058-.517-2.54.541-3.292a2.366 2.366 0 0 1 2.751 0Z" fill="#fff"/></svg>