<svg width="32" height="32" viewBox="0 0 150 150" fill="none" xmlns="http://www.w3.org/2000/svg"><path fill="#326CE5" stroke="#326CE5" d="M2.5 2.5h145v145H2.5z"/><path d="M76.289 29.008a6.376 6.376 0 0 0-2.427.614l-33.109 15.82a6.322 6.322 0 0 0-2.203 1.742 6.257 6.257 0 0 0-1.223 2.518L29.16 85.238a6.227 6.227 0 0 0 .86 4.814c.111.173.232.34.36.5l22.917 28.494a6.327 6.327 0 0 0 2.203 1.742 6.378 6.378 0 0 0 2.747.621l36.75-.009a6.374 6.374 0 0 0 2.747-.619 6.325 6.325 0 0 0 2.204-1.739l22.909-28.498a6.265 6.265 0 0 0 1.223-2.519 6.224 6.224 0 0 0 0-2.796l-8.181-35.535a6.248 6.248 0 0 0-1.222-2.518 6.323 6.323 0 0 0-2.203-1.742L79.359 29.622a6.377 6.377 0 0 0-3.07-.614Z" fill="#fff"/><path d="M76.617 41.102c-1.095 0-1.982.986-1.982 2.202 0 .018.004.036.004.054-.001.166-.01.365-.004.509.026.701.18 1.238.271 1.884.167 1.383.307 2.53.22 3.595-.083.402-.38.77-.643 1.025l-.047.838c-1.19.099-2.386.28-3.582.55a25.492 25.492 0 0 0-12.95 7.398 34.994 34.994 0 0 1-.715-.508c-.354.048-.711.157-1.177-.114-.887-.597-1.695-1.421-2.672-2.414-.448-.474-.772-.927-1.304-1.384-.121-.104-.306-.245-.44-.352a2.357 2.357 0 0 0-1.381-.52c-.61-.022-1.196.217-1.58.698-.682.856-.463 2.164.488 2.922l.03.021c.13.106.29.242.41.33.564.417 1.08.63 1.643.962 1.185.731 2.168 1.338 2.947 2.07.304.325.358.896.398 1.143l.635.568c-3.4 5.117-4.974 11.438-4.044 17.878l-.83.241c-.218.283-.527.727-.85.86-1.02.321-2.168.439-3.554.584-.65.054-1.211.022-1.9.153-.153.028-.364.084-.53.122l-.017.005-.03.008c-1.168.282-1.918 1.356-1.677 2.414.242 1.058 1.383 1.701 2.558 1.448l.03-.004c.013-.003.025-.01.038-.013.164-.036.369-.076.512-.114.678-.182 1.17-.448 1.779-.682 1.31-.47 2.397-.863 3.455-1.016.442-.035.907.272 1.14.402l.863-.148c1.988 6.163 6.154 11.144 11.429 14.27l-.36.864c.13.335.273.789.176 1.12-.385.998-1.043 2.051-1.794 3.224-.363.543-.735.964-1.063 1.584-.078.149-.178.377-.254.534-.509 1.089-.135 2.345.843 2.816.985.474 2.207-.026 2.736-1.118 0-.002.003-.003.004-.005v-.004c.075-.155.182-.358.245-.504.281-.643.375-1.194.572-1.816.524-1.317.812-2.699 1.534-3.561.198-.235.52-.326.854-.415l.45-.813a25.612 25.612 0 0 0 18.288.046c.126.224.36.654.423.762.34.111.71.168 1.012.614.54.923.91 2.014 1.36 3.333.197.622.295 1.173.575 1.816.064.147.17.353.246.509.528 1.095 1.754 1.597 2.74 1.122.978-.472 1.352-1.727.843-2.816-.076-.157-.18-.385-.259-.534-.328-.62-.7-1.037-1.063-1.579-.75-1.174-1.372-2.149-1.757-3.146-.16-.515.027-.835.152-1.17-.075-.085-.235-.571-.33-.8 5.482-3.236 9.526-8.404 11.425-14.371.256.04.702.119.847.148.298-.197.572-.453 1.109-.41 1.058.152 2.144.545 3.455 1.015.61.234 1.101.505 1.779.686.143.039.349.075.512.11.014.004.025.01.038.013l.03.004c1.175.253 2.316-.39 2.558-1.448.241-1.058-.509-2.132-1.677-2.413-.17-.04-.411-.105-.576-.136-.69-.13-1.251-.098-1.901-.152-1.386-.145-2.533-.264-3.553-.585-.416-.161-.712-.656-.855-.86l-.801-.232a25.593 25.593 0 0 0-.415-9.253 25.638 25.638 0 0 0-3.713-8.583c.205-.186.593-.53.703-.63.032-.356.004-.73.372-1.123.78-.732 1.762-1.339 2.947-2.07.563-.332 1.083-.545 1.648-.962.127-.094.302-.243.436-.351.95-.759 1.169-2.067.487-2.922-.683-.856-2.005-.936-2.956-.178-.135.107-.319.247-.44.352-.532.457-.861.91-1.309 1.384-.977.993-1.785 1.821-2.672 2.418-.384.224-.947.146-1.202.131l-.754.538c-4.298-4.507-10.15-7.388-16.451-7.948-.018-.264-.04-.741-.047-.885-.258-.247-.57-.458-.647-.99-.087-1.066.057-2.213.224-3.596.092-.646.245-1.183.271-1.884.006-.16-.004-.391-.004-.563 0-1.217-.888-2.203-1.982-2.202Zm-2.481 15.37-.589 10.396-.042.022a1.747 1.747 0 0 1-2.774 1.338l-.017.008-8.524-6.043a20.415 20.415 0 0 1 9.833-5.356c.705-.16 1.41-.28 2.113-.364Zm4.967 0a20.587 20.587 0 0 1 11.873 5.726l-8.469 6.004-.03-.012a1.749 1.749 0 0 1-2.777-1.334l-.009-.004-.588-10.38Zm-20.004 9.605 7.783 6.961-.009.042a1.745 1.745 0 0 1-.686 3.003l-.008.034-9.977 2.879a20.41 20.41 0 0 1 2.897-12.92Zm34.981.004a20.665 20.665 0 0 1 2.553 6.237 20.63 20.63 0 0 1 .432 6.644l-10.027-2.888-.008-.042a1.748 1.748 0 0 1-.686-3.002l-.005-.022 7.741-6.927Zm-19.06 7.495h3.19l1.98 2.477-.71 3.091-2.863 1.376-2.871-1.38-.711-3.091 1.986-2.473Zm10.223 8.477c.135-.007.27.006.402.03l.017-.021 10.32 1.744a20.437 20.437 0 0 1-8.262 10.38l-4.006-9.677.013-.017a1.749 1.749 0 0 1 1.516-2.439Zm-17.332.043a1.748 1.748 0 0 1 1.58 2.434l.029.039-3.963 9.578A20.52 20.52 0 0 1 57.32 83.84l10.23-1.736.018.021a1.9 1.9 0 0 1 .343-.03Zm8.642 4.196c.275-.01.553.046.818.174.347.167.615.43.783.745h.038l5.044 9.112c-.655.22-1.328.407-2.016.564-3.857.875-7.702.61-11.183-.576l5.03-9.096h.009a1.75 1.75 0 0 1 1.478-.923Z" fill="#326CE5" stroke="#326CE5"/></svg>