<?xml version="1.0" encoding="UTF-8"?><!DOCTYPE svg>
<svg width="32" height="32" viewBox="0 0 120 120" fill="none" xmlns="http://www.w3.org/2000/svg"><rect x="2.5" y="2.5" width="115" height="115" rx="22.5" fill="#326CE5" stroke="#326CE5"/><path d="M59.431 23.206a5.101 5.101 0 0 0-1.94.492L31.002 36.354a5.057 5.057 0 0 0-1.763 1.394 5.006 5.006 0 0 0-.978 2.014L21.727 68.19a4.984 4.984 0 0 0 .688 3.852c.09.138.186.271.288.4l18.334 22.795a5.057 5.057 0 0 0 1.762 1.393 5.098 5.098 0 0 0 2.198.497l29.4-.007c.761 0 1.512-.168 2.198-.495a5.058 5.058 0 0 0 1.763-1.392l18.326-22.798a4.982 4.982 0 0 0 .979-4.252L91.12 39.755a5.007 5.007 0 0 0-.978-2.014 5.06 5.06 0 0 0-1.763-1.394l-26.49-12.65a5.102 5.102 0 0 0-2.457-.49Z" fill="#fff"/><path d="M59.694 32.881c-.876 0-1.586.789-1.586 1.762 0 .015.003.029.004.044-.002.132-.008.291-.004.406.021.561.143.99.217 1.508.133 1.106.245 2.023.176 2.876-.067.321-.304.615-.515.82l-.037.67c-.951.08-1.91.224-2.866.44a20.394 20.394 0 0 0-10.36 5.919c-.174-.12-.48-.34-.572-.407-.283.039-.569.126-.942-.091-.709-.478-1.355-1.137-2.137-1.931-.358-.38-.618-.742-1.043-1.108-.097-.083-.245-.195-.353-.28a1.886 1.886 0 0 0-1.104-.418 1.528 1.528 0 0 0-1.264.56c-.545.684-.37 1.73.39 2.337.008.006.016.01.024.017.104.084.232.193.328.264.452.334.864.504 1.315.769.948.586 1.734 1.071 2.357 1.657.244.259.286.716.319.914l.508.454a20.515 20.515 0 0 0-3.235 14.302l-.664.194c-.175.225-.422.581-.681.687-.816.257-1.734.352-2.842.468-.52.043-.97.017-1.521.122-.122.023-.29.067-.424.098l-.013.003-.024.007c-.934.226-1.535 1.085-1.342 1.931.194.847 1.107 1.361 2.047 1.159l.023-.004c.01-.002.02-.007.03-.01.132-.029.296-.06.41-.091.543-.146.936-.359 1.423-.546 1.05-.376 1.918-.69 2.765-.813.353-.027.726.218.911.322l.691-.119c1.59 4.93 4.923 8.916 9.143 11.417l-.288.69c.104.269.218.632.141.897-.307.798-.835 1.64-1.435 2.58-.29.433-.588.77-.85 1.266-.063.12-.143.302-.203.427-.408.872-.109 1.876.674 2.253.787.379 1.765-.02 2.188-.894 0-.002.003-.003.004-.004v-.003c.06-.124.145-.287.196-.403.225-.515.3-.956.457-1.454.42-1.053.65-2.159 1.228-2.848.158-.189.416-.261.683-.333l.359-.65a20.485 20.485 0 0 0 14.631.037c.101.18.288.523.339.61.271.088.568.134.81.491.431.738.727 1.611 1.087 2.666.158.498.236.939.46 1.454.052.117.137.282.197.406.422.876 1.403 1.278 2.192.898.782-.377 1.082-1.381.674-2.253-.06-.126-.144-.308-.207-.427-.262-.496-.56-.83-.85-1.263-.6-.94-1.098-1.72-1.406-2.517-.129-.412.022-.668.122-.935-.06-.07-.188-.458-.264-.64a20.631 20.631 0 0 0 9.14-11.498c.205.032.561.095.677.119.239-.158.458-.363.888-.33.846.123 1.715.438 2.764.814.488.187.88.403 1.423.549.114.03.279.059.41.088.01.002.02.007.03.01.007.002.017.002.024.003.94.203 1.853-.312 2.046-1.158.193-.846-.407-1.706-1.342-1.931-.136-.031-.328-.084-.46-.109-.552-.104-1-.078-1.521-.121-1.109-.117-2.027-.211-2.843-.468-.332-.129-.569-.525-.684-.688l-.64-.186a20.476 20.476 0 0 0-.332-7.402 20.523 20.523 0 0 0-2.97-6.867c.163-.149.474-.424.561-.504.026-.285.004-.583.299-.898.623-.585 1.41-1.07 2.357-1.657.45-.264.866-.435 1.318-.768.102-.076.242-.195.349-.282.76-.606.936-1.653.39-2.337-.547-.685-1.605-.75-2.365-.142-.108.085-.255.197-.352.28-.426.367-.689.729-1.047 1.108-.782.795-1.428 1.457-2.138 1.935-.307.179-.757.117-.962.105l-.603.43c-3.438-3.605-8.12-5.91-13.16-6.358a38.3 38.3 0 0 1-.038-.708c-.206-.198-.455-.367-.518-.793-.069-.853.046-1.77.18-2.876.073-.517.195-.947.216-1.508.005-.127-.003-.312-.003-.45 0-.973-.71-1.762-1.586-1.762Zm-1.986 12.297-.47 8.317-.034.017a1.398 1.398 0 0 1-2.22 1.07l-.013.007-6.819-4.834a16.332 16.332 0 0 1 7.866-4.286 16.708 16.708 0 0 1 1.69-.29Zm3.974 0a16.47 16.47 0 0 1 9.499 4.58l-6.775 4.804-.024-.01a1.399 1.399 0 0 1-2.222-1.068l-.007-.003-.47-8.303ZM45.68 52.861l6.227 5.57-.007.033a1.396 1.396 0 0 1-.55 2.402l-.006.027-7.981 2.304a16.329 16.329 0 0 1 2.317-10.336Zm27.985.004a16.535 16.535 0 0 1 2.043 4.99 16.5 16.5 0 0 1 .345 5.315l-8.022-2.31-.006-.035a1.398 1.398 0 0 1-.55-2.401l-.003-.017 6.193-5.542ZM58.416 58.86h2.551l1.586 1.981-.57 2.473-2.29 1.101-2.296-1.104-.57-2.473 1.59-1.978Zm8.178 6.782a1.39 1.39 0 0 1 .322.023l.013-.017 8.256 1.396a16.35 16.35 0 0 1-6.61 8.303l-3.204-7.74.01-.014a1.4 1.4 0 0 1 1.213-1.951Zm-13.865.034a1.398 1.398 0 0 1 1.263 1.947l.024.03-3.17 7.663a16.416 16.416 0 0 1-6.59-8.245l8.185-1.389.013.017c.092-.017.185-.025.275-.023Zm6.914 3.357c.22-.009.442.036.654.138.277.134.491.344.626.597h.03l4.035 7.29c-.523.175-1.062.325-1.612.45-3.086.7-6.162.489-8.947-.46l4.025-7.277h.007c.24-.451.699-.72 1.182-.738Z" fill="#326CE5" stroke="#326CE5"/></svg>