<svg viewBox="0 0 149 136" fill="none" xmlns="http://www.w3.org/2000/svg"><path d="M97.029 15.75c-10.2-17.667-35.7-17.667-45.9 0l-45.033 78c-10.2 17.667 2.55 39.75 22.95 39.75h90.066c20.4 0 33.15-22.083 22.95-39.75l-45.033-78Z" fill="#326CE5" stroke="#326CE5"/><path d="M83.275 87.083a1.63 1.63 0 0 0-.37-.027 1.66 1.66 0 0 0-.614.152 1.56 1.56 0 0 0-.807.84c-.145.37-.135.777.029 1.138l-.012.015 3.68 8.448c3.522-2.134 6.194-5.323 7.594-9.062l-9.484-1.523-.016.019ZM68.518 88.28a1.517 1.517 0 0 0-.554-.846 1.658 1.658 0 0 0-1.302-.314l-.017-.018-9.401 1.516c1.412 3.71 4.072 6.873 7.57 8.999l3.643-8.365-.029-.032a1.44 1.44 0 0 0 .09-.94Zm7.874 3.28a1.562 1.562 0 0 0-.591-.588 1.67 1.67 0 0 0-1.65.002 1.56 1.56 0 0 0-.59.59h-.007l-4.623 7.943a19.768 19.768 0 0 0 10.277.502c.633-.136 1.25-.3 1.853-.492l-4.635-7.957h-.034Zm14.636-18.45-7.114 6.049.004.02a1.524 1.524 0 0 0-.47.678c-.09.262-.104.542-.04.811.066.269.206.516.406.716.2.199.454.343.734.416l.009.037 9.214 2.522c.398-3.933-.565-7.883-2.743-11.248v-.001Zm-13.216.678c.013.275.105.542.265.772.16.23.383.415.645.534a1.681 1.681 0 0 0 1.642-.142l.028.012 7.784-5.244c-2.963-2.758-6.798-4.514-10.913-4.999l.54 9.064.009.002Zm-8.243 1.198a1.68 1.68 0 0 0 1.642.14 1.58 1.58 0 0 0 .643-.536c.16-.23.25-.497.263-.773l.04-.018.54-9.078c-.652.075-1.3.18-1.942.318-3.412.729-6.542 2.349-9.036 4.678l7.835 5.277.015-.008Zm-4.177 6.859c.28-.073.535-.217.736-.416.201-.2.342-.447.407-.716.065-.27.051-.55-.039-.813a1.522 1.522 0 0 0-.473-.678l.008-.035-7.153-6.08c-2.182 3.375-3.119 7.344-2.662 11.281l9.169-2.513.007-.03Zm6.948 2.67 2.638 1.205 2.631-1.202.653-2.7-1.82-2.162h-2.93l-1.827 2.16.655 2.699Z" fill="#fff"/><path d="m118.598 89.83-7.518-31.029a5.484 5.484 0 0 0-1.134-2.196 5.825 5.825 0 0 0-2.014-1.524L77.498 41.275a6.121 6.121 0 0 0-2.526-.543 6.12 6.12 0 0 0-2.526.543L42.018 55.09c-.782.36-1.47.88-2.014 1.523a5.468 5.468 0 0 0-1.134 2.196l-7.507 31.029a5.195 5.195 0 0 0-.002 2.382 5.33 5.33 0 0 0 .792 1.823c.103.15.212.295.33.436l21.062 24.88c.092.108.193.207.294.307a5.7 5.7 0 0 0 1.11.875c.516.308 1.077.54 1.665.688.483.125.98.191 1.48.194h.328l33.448-.008a6.075 6.075 0 0 0 1.467-.189c.202-.05.4-.111.596-.181a5.93 5.93 0 0 0 .451-.178c.22-.099.433-.212.638-.337a5.65 5.65 0 0 0 1.397-1.174l.642-.759 20.413-24.126c.391-.467.699-.991.91-1.552.088-.231.16-.467.216-.707a5.18 5.18 0 0 0-.002-2.382v.002ZM87.031 101.9c.085.239.186.472.303.698a1.3 1.3 0 0 0-.141 1.021c.443.964.984 1.884 1.615 2.748.353.441.68.902.976 1.379.074.129.17.329.24.466a1.656 1.656 0 0 1 .18 1.398 1.709 1.709 0 0 1-.366.63 1.823 1.823 0 0 1-.603.436 1.928 1.928 0 0 1-1.482.035 1.837 1.837 0 0 1-.625-.408 1.721 1.721 0 0 1-.398-.612c-.07-.136-.166-.316-.225-.444a13.975 13.975 0 0 1-.529-1.586 15.679 15.679 0 0 0-1.25-2.91 1.453 1.453 0 0 0-.93-.536c-.057-.095-.273-.471-.389-.665a24.736 24.736 0 0 1-16.808-.041l-.413.709c-.294.044-.567.17-.785.364a11.79 11.79 0 0 0-1.41 3.109 13.885 13.885 0 0 1-.526 1.586c-.058.127-.155.305-.225.44v.003l-.003.004a1.731 1.731 0 0 1-.398.613 1.834 1.834 0 0 1-.625.408 1.914 1.914 0 0 1-1.483-.036 1.821 1.821 0 0 1-.603-.437 1.718 1.718 0 0 1-.365-.632 1.656 1.656 0 0 1 .186-1.399c.069-.138.16-.336.233-.466a14.5 14.5 0 0 1 .976-1.383 16.659 16.659 0 0 0 1.649-2.815 1.643 1.643 0 0 0-.162-.979l.331-.754c-4.985-2.796-8.721-7.227-10.504-12.46l-.793.128a2.088 2.088 0 0 0-1.048-.35c-1.086.197-2.15.495-3.175.888-.532.227-1.078.426-1.634.594-.132.035-.321.069-.472.1-.012.004-.022.01-.034.012a.264.264 0 0 1-.028.002 1.918 1.918 0 0 1-1.471-.137 1.803 1.803 0 0 1-.566-.475 1.7 1.7 0 0 1-.317-.651 1.654 1.654 0 0 1 .282-1.379 1.8 1.8 0 0 1 .55-.491 1.89 1.89 0 0 1 .713-.239l.026-.006.016-.004c.153-.034.348-.082.487-.107.58-.077 1.163-.121 1.748-.134a17.825 17.825 0 0 0 3.264-.51c.316-.19.584-.447.783-.75l.762-.211c-.827-5.461.497-11.02 3.718-15.611l-.584-.495a1.861 1.861 0 0 0-.366-.999 17.022 17.022 0 0 0-2.71-1.808 15.424 15.424 0 0 1-1.51-.839c-.11-.078-.257-.196-.377-.289l-.027-.018a1.825 1.825 0 0 1-.778-1.188 1.763 1.763 0 0 1 .33-1.363c.175-.203.397-.364.65-.47.251-.106.526-.154.802-.14a2.24 2.24 0 0 1 1.27.455c.123.092.293.216.403.305.424.381.824.785 1.2 1.21a16.727 16.727 0 0 0 2.455 2.109c.333.166.722.202 1.082.1.217.15.436.297.657.443 3.2-3.232 7.345-5.482 11.901-6.46a24.924 24.924 0 0 1 3.293-.48l.043-.732c.283-.24.488-.55.592-.896.04-1.05-.029-2.1-.203-3.138a13.838 13.838 0 0 1-.249-1.646c-.005-.126.003-.3.004-.443 0-.017-.004-.033-.004-.049a1.657 1.657 0 0 1 .082-.717c.08-.231.21-.444.38-.624a1.83 1.83 0 0 1 .616-.424 1.912 1.912 0 0 1 1.486 0c.233.098.443.242.615.422s.302.393.382.624c.08.231.108.476.082.717 0 .152.01.354.004.493-.05.552-.133 1.102-.25 1.645a15.416 15.416 0 0 0-.206 3.14c.072.35.285.66.595.864.006.126.028.543.044.773 5.758.498 11.13 2.964 15.118 6.94l.694-.47c.372.061.754.022 1.104-.114a16.783 16.783 0 0 0 2.456-2.11c.376-.425.778-.83 1.203-1.21.112-.091.28-.213.404-.306.182-.171.401-.304.641-.39a1.92 1.92 0 0 1 1.488.085c.227.112.428.269.588.46a1.687 1.687 0 0 1 .374 1.37 1.68 1.68 0 0 1-.279.673 1.8 1.8 0 0 1-.543.507c-.122.094-.284.225-.401.308-.487.307-.993.587-1.514.839a17.078 17.078 0 0 0-2.708 1.808 1.324 1.324 0 0 0-.342.98c-.102.089-.458.388-.646.55 3.23 4.575 4.58 10.117 3.794 15.575l.735.204c.184.314.456.574.786.75 1.068.27 2.162.442 3.266.51.584.014 1.167.058 1.746.134.153.026.375.085.531.119.252.031.495.112.712.238.218.126.405.293.55.492a1.676 1.676 0 0 1 .282 1.378 1.705 1.705 0 0 1-.317.652 1.797 1.797 0 0 1-.567.474 1.921 1.921 0 0 1-1.471.137l-.026-.003c-.012-.003-.023-.009-.036-.012-.15-.031-.339-.062-.47-.095a15.69 15.69 0 0 1-1.634-.6 17.704 17.704 0 0 0-3.177-.887 1.485 1.485 0 0 0-1.02.36 29.34 29.34 0 0 0-.778-.13c-1.761 5.265-5.498 9.731-10.5 12.549Z" fill="#fff"/></svg>