<svg width="90" height="90" viewBox="0 0 90 90" fill="none" xmlns="http://www.w3.org/2000/svg">
<path d="M50.4822 8.5H68.7342C69.4156 8.5 70.0502 8.84696 70.4179 9.42064L75.2471 16.9539C75.6625 17.6019 75.6692 18.4308 75.2643 19.0854L70.4141 26.9265C70.0496 27.5158 69.4061 27.8744 68.7132 27.8744H50.4822L56.7583 18.0142L50.4822 8.5Z" fill="white"/>
<path d="M23.4236 9.50546C23.78 8.88358 24.442 8.5 25.1588 8.5H44.5625L50.6616 18.0142L44.5625 27.8744H35.1525L14.1852 64.6991C13.4296 66.0262 11.5255 66.051 10.7356 64.7441L1.60658 49.6403C1.23071 49.0184 1.22169 48.2416 1.58302 47.6112L23.4236 9.50546Z" fill="white"/>
<path d="M39.5178 81.5H20.1723L14.0732 71.9858L20.1723 62.1256H39.5178L33.2417 71.9858L39.5178 81.5Z" fill="white"/>
<path d="M66.0001 81.5H45.4375L39.3384 71.9858L45.4375 62.1256H54.8475L77.5013 22.3389L89.0024 41.3673L66.0001 81.5Z" fill="white"/>
</svg>
