<svg width="40" height="40" viewBox="0 0 40 40" fill="none" xmlns="http://www.w3.org/2000/svg">
<g clip-path="url(#clip0_23294_2735)">
<path d="M40 0H0V40H40V0Z" fill="#8C4FFF" fill-opacity="0.12"/>
<path fill-rule="evenodd" clip-rule="evenodd" d="M31.5002 31H30.5353C30.3083 31 30.0183 30.72 30.0183 30.5V29.047H32.0001V30.5C32.0001 30.724 31.7251 31 31.5002 31ZM11.0205 29.029H29.0185V28H11.0205V29.029ZM9.44372 31H8.53782C8.19586 31 7.99988 30.818 7.99988 30.5V29.042H10.0207V30.5C10.0207 30.74 9.79968 31 9.44372 31ZM8.54182 16H9.52071C9.74468 16 10.0207 16.276 10.0207 16.5V18H7.99988V16.5C7.99988 16.285 8.30885 16 8.54182 16ZM11.0205 19H29.0185V18.016H11.0205V19ZM19.0086 14H20.9874L20.9864 17.016H19.0076L19.0086 14ZM16.4899 13C16.3019 13 16.1269 13.11 16.042 13.279C16.027 13.307 15.686 13.971 15.0161 13.971C14.1112 13.971 14.0142 12.937 14.0142 12.492C14.0142 10.979 14.7161 10.979 15.0161 10.979C15.677 10.979 16.026 11.668 16.039 11.695C16.1219 11.869 16.2979 11.979 16.4899 11.979H23.4541C23.6321 11.979 23.7971 11.884 23.8861 11.73C23.8911 11.723 24.341 10.982 25.0219 10.982C25.2679 10.982 26.0128 10.982 26.0128 12.518C26.0128 13.498 25.6798 13.994 25.0219 13.994C24.34 13.994 23.8891 13.253 23.8861 13.248C23.7961 13.094 23.6321 13 23.4541 13H16.4899ZM19.0346 10.516C19.0346 9.991 19.2406 9 20.0195 9C20.7854 9 20.9894 9.943 20.9894 10.5V10.979H19.0346V10.516ZM30.0183 28.047H32.0001V19H30.0183V28.047ZM11.0205 27H29.0185V20H11.0205V27ZM7.99988 28.042H10.0207V19H7.99988V28.042ZM30.5183 16H31.4712C31.6991 16 32.0001 16.314 32.0001 16.5V18H30.0183V16.5C30.0183 16.31 30.2973 16 30.5183 16ZM31.4712 15H30.5183C29.7614 15 29.0185 15.743 29.0185 16.5V17.016H21.9863L21.9873 14H23.1951C23.4801 14.363 24.105 14.994 25.0219 14.994C26.2688 14.994 27.0127 14.068 27.0127 12.518C27.0127 10.93 26.2688 9.982 25.0219 9.982C24.105 9.982 23.4791 10.615 23.1941 10.979H21.9893V10.5C21.9893 9.028 21.1794 8 20.0195 8C18.8516 8 18.0347 9.035 18.0347 10.516V10.979H16.7709C16.5079 10.6 15.937 9.979 15.0161 9.979C14.4141 9.979 13.0143 10.224 13.0143 12.492C13.0143 13.998 13.8002 14.971 15.0161 14.971C15.937 14.971 16.5049 14.37 16.7679 14H18.0087L18.0077 17.016H11.0205V16.5C11.0205 15.729 10.2916 15 9.52071 15H8.54182C7.74891 15 7 15.729 7 16.5V30.5C7 31.369 7.64693 32 8.53782 32H9.44372C10.3136 32 11.0205 31.327 11.0205 30.5V30.029H29.0185V30.5C29.0185 31.271 29.7554 32 30.5353 32H31.5002C32.2711 32 33 31.271 33 30.5V16.5C33 15.743 32.2421 15 31.4712 15Z" fill="#8C4FFF"/>
</g>
<rect x="0.5" y="0.5" width="39" height="39" stroke="#8C4FFF"/>
<defs>
<clipPath id="clip0_23294_2735">
<rect width="40" height="40" fill="white"/>
</clipPath>
</defs>
</svg>
