<svg width="40" height="40" viewBox="0 0 40 40" xmlns="http://www.w3.org/2000/svg">  <g id="Icon-Architecture/32/Arch_AWS-SimSpace-Weaver_32" stroke="none" stroke-width="1" fill="none" fill-rule="evenodd">  <path d="M30,29.96025 L30,25.77625 L33,24.04225 L33,28.34825 L30,29.96025 Z M32.511,33.02425 L25.299,33.02425 L24.325,29.02325 L25.197,29.02325 C25.221,29.04325 25.235,29.07225 25.264,29.08725 L29.264,31.23625 C29.337,31.27625 29.419,31.29625 29.5,31.29625 C29.581,31.29625 29.663,31.27625 29.736,31.23625 L31.149,30.47725 L32.511,33.02425 Z M8.856,30.48025 L10.264,31.23625 C10.337,31.27625 10.419,31.29625 10.5,31.29625 C10.581,31.29625 10.663,31.27625 10.736,31.23625 L14.736,29.08725 C14.765,29.07225 14.779,29.04325 14.803,29.02325 L15.888,29.02325 L14.615,33.02425 L7.438,33.02425 L8.856,30.48025 Z M7,24.29025 L10,25.97625 L10,29.96025 L7,28.34825 L7,24.29025 Z M10.5,21.73125 L13.349,23.26225 L10.325,25.01125 L7.427,23.38225 L10.5,21.73125 Z M15.479,18.81825 L18.602,20.49625 L17.479,24.02325 L15,24.02325 L15,23.31325 C15,23.12925 14.898,22.96025 14.736,22.87325 L13.343,22.12425 L15.479,18.81825 Z M15.068,9.98625 L15,10.10525 L15,10.02325 L15.068,9.98625 Z M20.5,7.06825 L25.258,9.62425 L20.653,12.28625 L15.9,9.54025 L20.5,7.06825 Z M21,20.11225 L21,13.24125 L26,10.35125 L26,17.42525 L21,20.11225 Z M26.711,22.06925 L26.721,22.08925 L25.264,22.87325 C25.102,22.96025 25,23.12925 25,23.31325 L25,24.02325 L23.109,24.02325 L22.268,20.56625 L25.056,19.06825 L26.711,22.06925 Z M26,28.02325 L26,25.02325 L26,24.30025 L29,25.98625 L29,29.96025 L26,28.34825 L26,28.02325 Z M20.264,21.38925 C20.337,21.42925 20.419,21.44925 20.5,21.44925 C20.581,21.44925 20.663,21.42925 20.736,21.38925 L21.359,21.05525 L22.081,24.02325 L18.529,24.02325 L19.498,20.97825 L20.264,21.38925 Z M15,17.42525 L15,10.17525 L20,13.06425 L20,20.11225 L15,17.42525 Z M15,25.02325 L17.161,25.02325 L16.207,28.02325 L15,28.02325 L15,25.02325 Z M14,28.34825 L11,29.96025 L11,25.77625 L14,24.04225 L14,25.02325 L14,28.02325 L14,28.34825 Z M23.297,29.02325 L24.27,33.02425 L15.665,33.02425 L16.938,29.02325 L23.297,29.02325 Z M17.256,28.02325 L18.211,25.02325 L22.324,25.02325 L23.054,28.02325 L17.256,28.02325 Z M24.082,28.02325 L23.353,25.02325 L25,25.02325 L25,28.02325 L24.082,28.02325 Z M29.5,21.73125 L32.349,23.26225 L29.316,25.01625 L26.418,23.38725 L29.5,21.73125 Z M33.736,22.87325 L29.736,20.72325 C29.59,20.64425 29.41,20.64425 29.264,20.72325 L27.594,21.62125 L25.936,18.59525 L26.736,18.16525 C26.898,18.07825 27,17.90825 27,17.72425 L27,9.72425 C27,9.54025 26.898,9.37125 26.736,9.28425 L20.736,6.05925 C20.59,5.98025 20.41,5.98025 20.264,6.05925 L14.264,9.28425 C14.102,9.37125 14,9.54025 14,9.72425 L14,17.72425 C14,17.90825 14.102,18.07825 14.264,18.16525 L14.595,18.34325 L12.459,21.64925 L10.736,20.72325 C10.59,20.64425 10.41,20.64425 10.264,20.72325 L6.264,22.87325 C6.102,22.96025 6,23.12925 6,23.31325 L6,28.64725 C6,28.83125 6.102,29.00025 6.264,29.08725 L7.976,30.00725 L6.152,33.27425 C6.066,33.42725 6.067,33.61425 6.155,33.76625 C6.242,33.91925 6.402,34.01425 6.578,34.01825 L33.159,34.02425 L33.346,34.02325 C33.521,34.02325 33.684,33.93025 33.774,33.77925 C33.864,33.62925 33.868,33.44225 33.785,33.28725 L32.029,30.00425 L33.736,29.08725 C33.898,29.00025 34,28.83125 34,28.64725 L34,23.31325 C34,23.12925 33.898,22.96025 33.736,22.87325 L33.736,22.87325 Z" id="Fill-5" fill="#FFFFFF"></path> </g></svg>