<svg xmlns="http://www.w3.org/2000/svg" id="Layer_1" data-name="Layer 1" viewBox="0 0 124.5 124.5"><title>connection-wizard-green</title><path d="M101.1,64.5a11.1,11.1,0,1,0,0-4.6H91c.06.78.1,1.56.1,2.35s0,1.51-.1,2.25Z" style="fill:#fff;opacity:.8"/><path d="M80.73,40.07A29.38,29.38,0,0,1,84,43.36L106.9,20.6a10.9,10.9,0,0,0,6.1,1.8,11.17,11.17,0,0,0,7.9-19.1,11.2,11.2,0,0,0-19.1,7.9,10.9,10.9,0,0,0,1.8,6.1ZM108.3,6.8A6.41,6.41,0,0,1,113,4.9a6.83,6.83,0,0,1,4.7,1.9,6.52,6.52,0,0,1,0,9.3A6.41,6.41,0,0,1,113,18a6.83,6.83,0,0,1-4.7-1.9A6.52,6.52,0,0,1,108.3,6.8Z" style="fill:#fff;opacity:.6"/><path d="M59.6,23.2V33.36c.81-.07,1.62-.11,2.45-.11s1.44,0,2.15.09V23.2a11.1,11.1,0,1,0-4.6,0Z" style="fill:#fff;opacity:.8"/><path d="M11.2,22.6a10.9,10.9,0,0,0,6.1-1.8L39.92,43.52a29.28,29.28,0,0,1,3.13-3.17L20.3,17.5a10.9,10.9,0,0,0,1.8-6.1,11.12,11.12,0,0,0-3.3-7.9A9.88,9.88,0,0,0,11.2.3a11.1,11.1,0,0,0-7.9,19A11.12,11.12,0,0,0,11.2,22.6ZM6.6,6.6a6.52,6.52,0,0,1,9.3,0,6.41,6.41,0,0,1,1.9,4.7A6.65,6.65,0,0,1,15.9,16a6.52,6.52,0,0,1-9.3,0,6.41,6.41,0,0,1-1.9-4.7A6.83,6.83,0,0,1,6.6,6.6Z" style="fill:#fff;opacity:.6"/><path d="M22.9,60.2a11.1,11.1,0,1,0,0,4.6H33.17q-.12-1.26-.12-2.55c0-.69,0-1.37.08-2Z" style="fill:#fff;opacity:.8"/><path d="M121.2,105.4a13.3,13.3,0,0,0-8.4-3.3,10.9,10.9,0,0,0-6.1,1.8L84,81.14a28.21,28.21,0,0,1-3.14,3.14l.1-.08,22.9,23a10.9,10.9,0,0,0-1.8,6.1,11.2,11.2,0,1,0,19.1-7.9Zm-3.7,12.5a6.52,6.52,0,0,1-9.3,0,6.41,6.41,0,0,1-1.9-4.7,6.83,6.83,0,0,1,1.9-4.7,6.52,6.52,0,0,1,9.3,0,6.41,6.41,0,0,1,1.9,4.7A6.65,6.65,0,0,1,117.5,117.9Z" style="fill:#fff;opacity:.6"/><path d="M64.6,101.4V91.13q-1.26.12-2.55.12c-.69,0-1.37,0-2-.08V101.4a11.1,11.1,0,1,0,4.6,0Z" style="fill:#fff;opacity:.8"/><path d="M43.32,84.38a29.28,29.28,0,0,1-3.17-3.13L17.2,104.1a10.9,10.9,0,0,0-6.1-1.8,11.12,11.12,0,0,0-7.9,3.3A9.53,9.53,0,0,0,0,113.1,11.17,11.17,0,0,0,19.1,121a11.12,11.12,0,0,0,3.3-7.9,10.9,10.9,0,0,0-1.8-6.1ZM15.7,117.8a6.41,6.41,0,0,1-4.7,1.9,6.83,6.83,0,0,1-4.7-1.9,6.52,6.52,0,0,1,0-9.3,6.41,6.41,0,0,1,4.7-1.9,6.83,6.83,0,0,1,4.7,1.9A6.52,6.52,0,0,1,15.7,117.8Z" style="fill:#fff;opacity:.6"/><polygon points="62.84 47.18 62.84 60.8 74.64 53.97 62.84 47.18" style="fill:#00d3a9"/><polygon points="62.84 63.64 62.84 77.33 74.75 70.52 62.84 63.64" style="fill:#00d3a9"/><polygon points="61.14 60.7 61.14 47.3 49.49 53.98 61.14 60.7" style="fill:#00b39f"/><path d="M37.76,77.28a28.77,28.77,0,0,0,9,9.1V72.05Z" style="fill:#00b39f"/><polygon points="61.14 77.26 61.14 63.74 49.46 70.51 61.14 77.26" style="fill:#00b39f"/><polygon points="48.51 85.52 60.34 78.76 48.51 71.92 48.51 85.52" style="fill:#00d3a9"/><polygon points="75.56 85.59 75.56 72.01 63.74 78.77 75.56 85.59" style="fill:#00b39f"/><path d="M87.12,75.7a28.38,28.38,0,0,0,3.34-12.22l-12.3,7.05Z" style="fill:#00b39f"/><polygon points="77.26 69.08 89.13 62.29 77.26 55.47 77.26 69.08" style="fill:#00d3a9"/><polygon points="75.56 52.53 75.56 39.03 63.8 45.77 75.56 52.53" style="fill:#00b39f"/><polygon points="75.56 69.02 75.56 55.4 63.77 62.22 75.56 69.02" style="fill:#00b39f"/><polygon points="48.51 55.37 48.51 69.1 60.38 62.23 48.51 55.37" style="fill:#00d3a9"/><path d="M61.14,33.75a28.33,28.33,0,0,0-12.51,3.3l12.51,7.18Z" style="fill:#00b39f"/><polygon points="48.51 38.94 48.51 52.59 60.39 45.77 48.51 38.94" style="fill:#00d3a9"/><path d="M46.8,38.11a28.67,28.67,0,0,0-9,9.1l9,5.22Z" style="fill:#00b39f"/><path d="M75.48,37.12a28.34,28.34,0,0,0-12.64-3.37V44.36Z" style="fill:#00d3a9"/><path d="M33.5,63.25a28.36,28.36,0,0,0,3.41,12.56l9.16-5.3Z" style="fill:#00d3a9"/><path d="M36.91,48.68A28.24,28.24,0,0,0,33.5,61.19L46.08,54Z" style="fill:#00d3a9"/><path d="M48.61,87.42a28.41,28.41,0,0,0,12.53,3.33V80.25Z" style="fill:#00b39f"/><path d="M86.24,47.26a28.55,28.55,0,0,0-9-9.09V52.45Z" style="fill:#00d3a9"/><path d="M77.26,86.33a28.76,28.76,0,0,0,9-9.15l-9-5.21Z" style="fill:#00d3a9"/><path d="M90.5,61.11a28.32,28.32,0,0,0-3.38-12.39L78,54Z" style="fill:#00b39f"/><path d="M62.84,90.75a28.47,28.47,0,0,0,12.51-3.31L62.84,80.19Z" style="fill:#00d3a9"/><polygon points="46.8 68.98 46.8 55.52 35.12 62.22 46.8 68.98" style="fill:#00b39f"/></svg>