<svg width="40" height="40" viewBox="0 0 40 40" fill="none" xmlns="http://www.w3.org/2000/svg">
<g clip-path="url(#clip0_23296_3822)">
<path d="M40 0H0V40H40V0Z" fill="#01A88D" fill-opacity="0.12"/>
<path fill-rule="evenodd" clip-rule="evenodd" d="M25 30H28V15H25V30ZM24 31H29V14H24V31ZM17 30H20V19H17V30ZM16 31H21V18H16V31ZM10 30H13V24H10V30ZM9 31H14V23H9V31ZM30 8V9H32.138L28.601 12H23.342C23.161 12 22.994 12.098 22.905 12.256L20.811 16H15.631C15.431 16 15.249 16.12 15.171 16.304L13.599 20H9V21H13.93C14.13 21 14.312 20.88 14.39 20.696L15.962 17H21.104C21.284 17 21.451 16.902 21.54 16.744L23.635 13H28.784C28.902 13 29.018 12.958 29.107 12.881L33 9.58V12H34V8H30ZM31 14H32V33H6V9H27V10H7V32H31V14Z" fill="#01A88D"/>
</g>
<rect x="0.5" y="0.5" width="39" height="39" stroke="#01A88D"/>
<defs>
<clipPath id="clip0_23296_3822">
<rect width="40" height="40" fill="white"/>
</clipPath>
</defs>
</svg>
