<svg width="40" height="40" viewBox="0 0 40 40" fill="none" xmlns="http://www.w3.org/2000/svg">
<g clip-path="url(#clip0_23299_4201)">
<path d="M40 0H0V40H40V0Z" fill="#ED7100" fill-opacity="0.12"/>
<path fill-rule="evenodd" clip-rule="evenodd" d="M32.888 20.913C11.234 20.913 8 24.801 8 27.119H7C7 23.587 11.767 21.346 21.172 20.413C11.767 19.48 7 17.238 7 13.706H8C8 16.024 11.234 19.913 32.888 19.913V20.913ZM15.908 23.792V24.854C11.51 26.491 10.874 28.836 10.874 30.952H9.874C9.874 28.575 10.592 25.653 15.908 23.792ZM15.908 26.838V28.078C13.754 29.82 13.748 31.931 13.748 33.826H12.748C12.748 31.746 12.752 28.951 15.908 26.838ZM31.931 31.775C31.931 32.379 31.44 32.871 30.835 32.871H20.028C19.423 32.871 18.931 32.379 18.931 31.775V24.967C18.931 24.363 19.423 23.871 20.028 23.871H30.835C31.44 23.871 31.931 24.363 31.931 24.967V31.775ZM30.835 22.871H20.028C18.871 22.871 17.931 23.811 17.931 24.967V31.775C17.931 32.931 18.871 33.871 20.028 33.871H30.835C31.991 33.871 32.931 32.931 32.931 31.775V24.967C32.931 23.811 31.991 22.871 30.835 22.871ZM9.874 9.874H10.874C10.874 13.891 13.49 17.997 32.888 17.997V18.997C12.609 18.997 9.874 14.386 9.874 9.874ZM12.748 7H13.748C13.748 10.617 13.748 16.081 32.888 16.081V17.081C14.303 17.081 12.748 12.101 12.748 7ZM24.405 29.588V27.177L26.797 28.382L24.405 29.588ZM28.133 27.935L24.129 25.918C23.976 25.84 23.791 25.848 23.642 25.939C23.494 26.031 23.405 26.192 23.405 26.365V30.4C23.405 30.574 23.494 30.735 23.643 30.826C23.723 30.875 23.814 30.9 23.905 30.9C23.982 30.9 24.059 30.883 24.129 30.847L28.133 28.828C28.302 28.743 28.409 28.571 28.409 28.382C28.409 28.193 28.302 28.02 28.133 27.935Z" fill="#ED7100"/>
</g>
<rect x="0.5" y="0.5" width="39" height="39" stroke="#ED7100"/>
<defs>
<clipPath id="clip0_23299_4201">
<rect width="40" height="40" fill="white"/>
</clipPath>
</defs>
</svg>
