<svg xmlns="http://www.w3.org/2000/svg" viewBox="0 0 333334 71436" shape-rendering="geometricPrecision" text-rendering="geometricPrecision" image-rendering="optimizeQuality" fill-rule="evenodd" clip-rule="evenodd"><path d="M62460 69726c-1883 0-3736-733-5122-2120L14483 24747v37738c0 4001-3242 7242-7242 7242-3998 0-7242-3242-7242-7242V7263c0-2931 1767-5570 4472-6691C5349 207 6292 19 7244 19c1920 0 3762 765 5118 2123l42855 42859V7263c0-4001 3242-7242 7242-7242 4001 0 7242 3242 7242 7242v55222c-2 3998-3244 7240-7242 7242M95994 91l-1990 3714-15390 27970-1990 3532 1990 3528 15391 27067 2079 3710h40284l1990-4072 11496-23174 5159-10500h-11676l-29419 90c-3826-52-7346 3415-7346 7242 0 3826 3520 7296 7346 7242l17742-90-4344 8780h-22812L93186 35215l11407-20639h24265l5657 11609h14576l-9187-22017-1993-4076H95994m73363-90c-3795 46-7201 3540-7152 7332v18872h14483V7334c46-3854-3482-7381-7332-7332m23214 69865c-3997-2-7239-3245-7239-7242V7403c0-4000 3242-7241 7242-7241 4001 0 7242 3241 7242 7242v37737l42856-42859c2704 1122 4469 3763 4469 6691v55224c0 3999-3242 7241-7242 7241-4001 0-7242-3242-7242-7242V24888l-42856 42859c-1356 1357-3197 2120-5116 2120h-5m123995-34908l22528-22445c2833-2821 2841-7407 17-10243-2821-2833-7404-2839-10239-18l-22562 22484-22562-22484c-2836-2824-7419-2815-10239 18-2824 2835-2816 7422 15 10243l22527 22446-22461 22382c-2836 2825-2842 7407-18 10240 1352 1364 3195 2132 5117 2132h13c1848 0 3696-704 5109-2114l22499-22417 22496 22417c1352 1353 3190 2114 5104 2114h9c1859 0 3714-709 5130-2132 2821-2833 2815-7415-18-10239l-22463-22383M169359 69662c-3795-46-7201-3539-7152-7331V32017h14483v30314c46 3850-3482 7377-7332 7331z" fill="#090"/></svg>