<svg id="Layer_1" data-name="Layer 1" xmlns="http://www.w3.org/2000/svg" viewBox="0 0 208.8 208.8"><defs><style>.cls-1{fill:#654fef;}.cls-2{fill:#fff;}</style></defs><path class="cls-1" d="M105.38609,62.10581a6.17006,6.17006,0,0,0,6.11694-6.2923,6.138,6.138,0,0,0-12.27447.11847A6.18419,6.18419,0,0,0,105.38609,62.10581Z"/><path class="cls-1" d="M69.27726,159.13974a6.16776,6.16776,0,0,0,.07764,12.3349,6.16759,6.16759,0,1,0-.07764-12.3349Z"/><path class="cls-1" d="M134.68858,165.45963a6.24791,6.24791,0,0,0,6.33814,6.01269,6.16126,6.16126,0,1,0-6.33814-6.01269Z"/><path class="cls-1" d="M126.41612,107.92929a2.08739,2.08739,0,0,1-1.77734-2.41375,7.00319,7.00319,0,0,0-9.078-6.683,2.67793,2.67793,0,0,1-2.72558-.54419,12.50753,12.50753,0,0,0-10.41284-2.52838,12.82422,12.82422,0,0,0-10.19379,10.20069c-.33417,1.69647-1.1919,2.24212-2.84375,1.86065a9.89035,9.89035,0,0,0-4.72528-.016,9.75318,9.75318,0,0,0-7.35315,10.308,9.64914,9.64914,0,0,0,9.77368,8.80139c1.44489.00226,2.88886.04255,4.335.02985,5.42163-.04761,10.84394-.0191,16.26593-.02051q3.91865,0,7.83716,0c2.6405-.00018,5.281.00476,7.92151-.00494a10.52348,10.52348,0,0,0,1.78332-.09528,9.70227,9.70227,0,0,0,1.19312-18.89441Z"/><path class="cls-1" d="M139.41881,109.308a1.95779,1.95779,0,0,1-2.14551-.33734,1.84045,1.84045,0,0,1-.57056-1.8584,2.14366,2.14366,0,0,1,1.54395-1.54846q3.67528-1.44654,7.35107-2.89124c1.67761-.65985,3.3551-1.32013,5.15625-2.02881-14.51367-10.92328-28.91772-21.764-43.44385-32.69684,0,4.3769.00074,8.51856-.00049,12.66022-.00048,1.33411.022,2.66919-.02026,4.00208a1.93526,1.93526,0,0,1-3.70959.67389,3.65507,3.65507,0,0,1-.17286-1.50965c-.00451-5.05365.00672-10.10736.005-15.16107-.00024-.19794.14673-.45575-.19861-.6239Q80.87815,84.19215,58.37718,100.516c4.26373,1.73175,8.38531,3.39948,12.50128,5.08106a1.97605,1.97605,0,1,1-1.44824,3.63635c-2.38989-.96673-4.77258-1.95129-7.1604-2.92334-1.50745-.61365-3.01868-1.21789-4.68573-1.88989,5.63684,16.79047,11.21509,33.40655,16.83337,50.14184.38532-.44738.67926-.78649.97083-1.12762q5.83639-6.82746,11.67376-13.65417c.9303-1.08655,2.05408-1.25715,2.97455-.47791a2.00486,2.00486,0,0,1,.012,3.007q-4.92783,5.75556-9.856,11.51086c-.7417.867-1.47363,1.74225-2.30689,2.72828,18.041.21466,35.8974.42712,53.89057.64123-.34278-.50519-.57776-.85638-.81763-1.20428q-4.78107-6.93384-9.56042-13.869a2.00852,2.00852,0,0,1,.33886-2.92859,1.98276,1.98276,0,0,1,2.91284.74957q3.68867,5.36416,7.38855,10.72064c.92676,1.34394,1.85621,2.686,2.88233,4.17084,5.57373-16.83075,11.0896-33.48706,16.65723-50.29956-1.63379.63794-3.10254,1.20813-4.56885,1.78479Q143.21245,107.8071,139.41881,109.308Zm-2.22193,9.81408a13.64311,13.64311,0,0,1-11.27893,11.532,11.862,11.862,0,0,1-1.9458.1643c-3.0658.00714-6.13147.00226-9.19714.002q-4.556-.00038-9.11182-.00006v.00293c-5.73309,0-11.4671-.06147-17.199.022-3.71991.05414-7.14233-.63727-10.08624-3.05939a13.49243,13.49243,0,0,1-4.46045-14.32422c1.736-5.55438,5.59162-8.78869,11.33179-9.72015a14.60273,14.60273,0,0,1,2.80408-.04382c.48565.01629.71454-.067.89526-.59418A16.7366,16.7366,0,0,1,105.40147,91.621a15.9,15.9,0,0,1,8.709,2.7785,2.02446,2.02446,0,0,0,1.64941.39044,10.903,10.903,0,0,1,12.59131,8.72455,1.64466,1.64466,0,0,0,1.0769,1.398A13.60465,13.60465,0,0,1,137.19688,119.1221Z"/><path class="cls-1" d="M198.03892,9.13645q-35.69714.10355-71.39477.04773a36.79571,36.79571,0,0,1-1.31519,7.99664A21.79317,21.79317,0,0,1,82.88963,10.664c-.01208-.49328-.02692-.98651-.04047-1.47979H9.73369c-.77631.41174-.348,1.127-.34815,1.67022q-.03662,94.35938-.02295,188.71882H176.192c7.36108,0,14.72217.01,22.083-.02314.48169-.00213,1.15063.41925,1.48462-.348q0-94.10751.0354-188.21509C199.796,9.569,199.6317,9.13181,198.03892,9.13645Zm-27.34826,96.3211a10.12153,10.12153,0,0,1-15.469.8313c-.297.21424-.31946.57318-.41955.87116q-2.56824,7.64007-5.10938,15.28924-5.3108,16.08234-10.60705,32.16944c-.21827.65979-.16285.79449.57946.721a9.90472,9.90472,0,0,1,11.11109,8.46259,9.61559,9.61559,0,0,1-2.23145,7.90881,10.03291,10.03291,0,0,1-17.25574-9.54547c.10315-.31952.2201-.63452.37281-1.07239-17.83386-.213-35.58783-.425-53.44446-.63824,1.63977,3.56409,1.64038,7.02374-.46942,10.33a9.7072,9.7072,0,0,1-6.687,4.42993,10.09688,10.09688,0,1,1-.53992-19.97778c-5.49823-16.37934-10.98419-32.722-16.51379-49.19477a10.34533,10.34533,0,0,1-5.35145,3.19672A10.05546,10.05546,0,1,1,44.654,89.53647a9.98586,9.98586,0,0,1,11.40619,7.06909c.21454.71241.40094.45276.75946.19281q10.78107-7.81751,21.571-15.62262c3.99994-2.8908,8.02142-5.75183,12.0188-8.646,3.39727-2.45972,6.77417-4.94757,10.15838-7.42523a1.06656,1.06656,0,0,0,.15723-.182,10.17715,10.17715,0,0,1-4.91119-12.13818,10.07077,10.07077,0,0,1,19.25262.48639,10.16536,10.16536,0,0,1-5.19885,11.70574c14.30871,10.76935,28.56555,21.49958,42.90417,32.29145a10.03836,10.03836,0,0,1,7.15845-7.51721,9.6035,9.6035,0,0,1,7.93506,1.09637A10.04732,10.04732,0,0,1,170.69066,105.45755Z"/><path class="cls-1" d="M46.41032,93.28849a6.14438,6.14438,0,1,0,6.139,6.14862A6.14167,6.14167,0,0,0,46.41032,93.28849Z"/><path class="cls-1" d="M162.67637,93.28983a6.14464,6.14464,0,1,0,6.08985,6.19952A6.0984,6.0984,0,0,0,162.67637,93.28983Z"/><path class="cls-2" d="M167.86534,90.84708a9.6035,9.6035,0,0,0-7.93506-1.09637,10.03836,10.03836,0,0,0-7.15845,7.51721c-14.33862-10.79187-28.59546-21.5221-42.90417-32.29145a10.16536,10.16536,0,0,0,5.19885-11.70574,10.07077,10.07077,0,0,0-19.25262-.48639,10.17715,10.17715,0,0,0,4.91119,12.13818,1.06656,1.06656,0,0,1-.15723.182C97.18364,67.58213,93.80674,70.07,90.40947,72.5297c-3.99738,2.89422-8.01886,5.75525-12.0188,8.646q-10.79325,7.80048-21.571,15.62262c-.35852.25995-.54492.5196-.75946-.19281a10.05406,10.05406,0,0,0-19.49371,4.86408,10.10328,10.10328,0,0,0,12.08929,7.76947,10.34533,10.34533,0,0,0,5.35145-3.19672c5.5296,16.47272,11.01556,32.81543,16.51379,49.19477a10.09688,10.09688,0,1,0,.53992,19.97778,9.7072,9.7072,0,0,0,6.687-4.42993c2.1098-3.30628,2.10919-6.76593.46942-10.33,17.85663.21326,35.6106.42529,53.44446.63824-.15271.43787-.26966.75287-.37281,1.07239a10.03291,10.03291,0,0,0,17.25574,9.54547,9.61559,9.61559,0,0,0,2.23145-7.90881,9.90472,9.90472,0,0,0-11.11109-8.46259c-.74231.07349-.79773-.06121-.57946-.721q5.31975-16.07933,10.60705-32.16944,2.52723-7.65362,5.10938-15.28924c.10009-.298.12255-.65692.41955-.87116a10.07371,10.07371,0,1,0,12.64368-15.44177ZM46.393,105.57724a6.14441,6.14441,0,0,1,.01733-12.28875,6.14438,6.14438,0,1,1-.01733,12.28875ZM99.22856,55.932a6.138,6.138,0,0,1,12.27447-.11847,6.13825,6.13825,0,1,1-12.27447.11847ZM69.3549,171.47464a6.16759,6.16759,0,1,1,6.14417-6.20831A6.19124,6.19124,0,0,1,69.3549,171.47464Zm71.2641-12.318a6.16121,6.16121,0,0,1,.40772,12.31567,6.24791,6.24791,0,0,1-6.33814-6.01269A6.1817,6.1817,0,0,1,140.619,159.15665Zm-5.69824-4.32782c-1.02612-1.4848-1.95557-2.8269-2.88233-4.17084q-3.696-5.35913-7.38855-10.72064a1.98276,1.98276,0,0,0-2.91284-.74957,2.00852,2.00852,0,0,0-.33886,2.92859q4.77155,6.94052,9.56042,13.869c.23987.3479.47485.69909.81763,1.20428-17.99317-.21411-35.84955-.42657-53.89057-.64123.83326-.986,1.56519-1.86133,2.30689-2.72828q4.92581-5.75737,9.856-11.51086a2.00486,2.00486,0,0,0-.012-3.007c-.92047-.77924-2.04425-.60864-2.97455.47791q-5.8417,6.823-11.67376,13.65417c-.29157.34113-.58551.68024-.97083,1.12762-5.61828-16.73529-11.19653-33.35137-16.83337-50.14184,1.667.672,3.17828,1.27624,4.68573,1.88989,2.38782.972,4.77051,1.95661,7.1604,2.92334a1.97605,1.97605,0,1,0,1.44824-3.63635c-4.116-1.68158-8.23755-3.34931-12.50128-5.08106Q80.93211,84.153,103.21336,67.9885c.34534.16815.19837.426.19861.6239.00171,5.05371-.00952,10.10742-.005,15.16107a3.65507,3.65507,0,0,0,.17286,1.50965,1.93526,1.93526,0,0,0,3.70959-.67389c.04224-1.33289.01978-2.668.02026-4.00208.00123-4.14166.00049-8.28332.00049-12.66022,14.52613,10.9328,28.93018,21.77356,43.44385,32.69684-1.80115.70868-3.47864,1.369-5.15625,2.02881q-3.67548,1.44572-7.35107,2.89124a2.14366,2.14366,0,0,0-1.54395,1.54846,1.84045,1.84045,0,0,0,.57056,1.8584,1.95779,1.95779,0,0,0,2.14551.33734q3.7932-1.50238,7.59033-2.994c1.46631-.57666,2.93506-1.14685,4.56885-1.78479C146.01036,121.34177,140.49449,137.99808,134.92076,154.82883ZM162.72618,105.578a6.14467,6.14467,0,1,1-.04981-12.28815,6.14464,6.14464,0,0,1,.04981,12.28815Z"/><path class="cls-2" d="M129.42808,104.91251a1.64466,1.64466,0,0,1-1.0769-1.398A10.903,10.903,0,0,0,115.75987,94.79a2.02446,2.02446,0,0,1-1.64941-.39044,15.9,15.9,0,0,0-8.709-2.7785,16.7366,16.7366,0,0,0-16.45288,11.48248c-.18072.52722-.40961.61047-.89526.59418a14.60273,14.60273,0,0,0-2.80408.04382c-5.74017.93146-9.59583,4.16577-11.33179,9.72015a13.49243,13.49243,0,0,0,4.46045,14.32422c2.94391,2.42212,6.36633,3.11353,10.08624,3.05939,5.73194-.08344,11.46595-.022,17.199-.022v-.00293q4.556,0,9.11182.00006c3.06567.00024,6.13134.00512,9.19714-.002a11.862,11.862,0,0,0,1.9458-.1643,13.58118,13.58118,0,0,0,3.51013-25.74158ZM125.223,126.8237a10.52348,10.52348,0,0,1-1.78332.09528c-2.6405.0097-5.281.00476-7.92151.00494q-3.91845.0002-7.83716,0c-5.422.00141-10.8443-.0271-16.26593.02051-1.44616.0127-2.89013-.02759-4.335-.02985a9.64914,9.64914,0,0,1-9.77368-8.80139,9.75318,9.75318,0,0,1,7.35315-10.308,9.89035,9.89035,0,0,1,4.72528.016c1.65185.38147,2.50958-.16418,2.84375-1.86065a12.82422,12.82422,0,0,1,10.19379-10.20069,12.50753,12.50753,0,0,1,10.41284,2.52838,2.67793,2.67793,0,0,0,2.72558.54419,7.00319,7.00319,0,0,1,9.078,6.683,2.08739,2.08739,0,0,0,1.77734,2.41375A9.70227,9.70227,0,0,1,125.223,126.8237Z"/></svg>