<svg width="40" height="40" viewBox="0 0 40 40" xmlns="http://www.w3.org/2000/svg">  <g id="Icon-Architecture/32/Arch_Amazon-Lookout-for-Vision_32" stroke="none" stroke-width="1" fill="none" fill-rule="evenodd">  <g id="Icon-Service/32/Amazon-Lookout-for-Vision_32" transform="translate(6.000000, 6.000000)" fill="#FFFFFF"> <path d="M3,4.5 C3,3.673 3.673,3 4.5,3 C5.327,3 6,3.673 6,4.5 C6,5.327 5.327,6 4.5,6 C3.673,6 3,5.327 3,4.5 L3,4.5 Z M7,4.5 C7,3.122 5.879,2 4.5,2 C3.121,2 2,3.122 2,4.5 C2,5.878 3.121,7 4.5,7 C5.879,7 7,5.878 7,4.5 L7,4.5 Z M22.5,26 C21.121,26 20,24.878 20,23.5 C20,22.122 21.121,21 22.5,21 C23.879,21 25,22.122 25,23.5 C25,24.878 23.879,26 22.5,26 L22.5,26 Z M15,12.5 C15.827,12.5 16.5,13.173 16.5,14 C16.5,14.827 15.827,15.5 15,15.5 C14.173,15.5 13.5,14.827 13.5,14 C13.5,13.173 14.173,12.5 15,12.5 L15,12.5 Z M12.909,12.637 C12.652,13.029 12.5,13.497 12.5,14 C12.5,15.378 13.621,16.5 15,16.5 C16.379,16.5 17.5,15.378 17.5,14 C17.5,12.622 16.379,11.5 15,11.5 C14.486,11.5 14.009,11.656 13.611,11.923 L11.758,10.225 C12.634,9.472 13.758,9 15,9 C17.757,9 20,11.243 20,14 C20,16.757 17.757,19 15,19 C12.243,19 10,16.757 10,14 C10,12.846 10.408,11.796 11.067,10.949 L12.909,12.637 Z M15,26 C8.383,26 3,20.617 3,14 C3,12.236 3.384,10.544 4.119,8.961 C4.246,8.973 4.369,9 4.5,9 C5.697,9 6.779,8.523 7.587,7.758 L10.316,10.26 C9.494,11.287 9,12.586 9,14 C9,17.309 11.691,20 15,20 C18.309,20 21,17.309 21,14 C21,10.691 18.309,8 15,8 C13.465,8 12.068,8.584 11.006,9.535 L8.238,6.999 C8.719,6.283 9,5.424 9,4.5 C9,4.215 8.967,3.938 8.916,3.667 C12.318,1.665 16.699,1.517 20.246,3.233 C20.092,3.627 20,4.052 20,4.5 C20,6.43 21.57,8 23.5,8 C24.092,8 24.641,7.839 25.13,7.579 C26.35,9.499 27,11.708 27,14 C27,16.495 26.239,18.867 24.812,20.894 C24.194,20.344 23.39,20 22.5,20 C20.57,20 19,21.57 19,23.5 C19,24.096 19.163,24.648 19.427,25.14 C18.021,25.7 16.54,26 15,26 L15,26 Z M1,4.5 C1,2.57 2.57,1 4.5,1 C6.43,1 8,2.57 8,4.5 C8,6.43 6.43,8 4.5,8 C2.57,8 1,6.43 1,4.5 L1,4.5 Z M23.5,2 C24.879,2 26,3.122 26,4.5 C26,5.878 24.879,7 23.5,7 C22.121,7 21,5.878 21,4.5 C21,3.122 22.121,2 23.5,2 L23.5,2 Z M28,14 C28,11.5 27.286,9.088 25.945,6.998 C26.594,6.361 27,5.479 27,4.5 C27,2.57 25.43,1 23.5,1 C22.377,1 21.388,1.541 20.746,2.366 C16.964,0.507 12.296,0.628 8.617,2.698 C7.921,1.113 6.34,0 4.5,0 C2.019,0 0,2.019 0,4.5 C0,6.497 1.315,8.174 3.119,8.761 C2.389,10.413 2,12.169 2,14 C2,21.168 7.832,27 15,27 C16.751,27 18.434,26.641 20.024,25.971 C20.658,26.606 21.534,27 22.5,27 C24.43,27 26,25.43 26,23.5 C26,22.834 25.803,22.217 25.479,21.687 C27.126,19.445 28,16.792 28,14 L28,14 Z" id="Fill-5"></path> </g> </g></svg>