<svg width="40" height="40" viewBox="0 0 40 40" fill="none" xmlns="http://www.w3.org/2000/svg">
<g clip-path="url(#clip0_23298_3878)">
<path d="M40 0H0V40H40V0Z" fill="#01A88D" fill-opacity="0.12"/>
<path fill-rule="evenodd" clip-rule="evenodd" d="M21.9992 17.4461C21.9992 18.279 21.3265 18.9561 20.5 18.9561C19.6735 18.9561 19.0008 18.279 19.0008 17.4461C19.0008 16.6132 19.6735 15.9362 20.5 15.9362C21.3265 15.9362 21.9992 16.6132 21.9992 17.4461ZM23.6915 23.0366H17.2985C17.4332 22.0468 18.0093 19.9681 20.4708 19.9681C22.9766 19.9681 23.5568 22.0479 23.6915 23.0366ZM17.9953 17.4461C17.9953 18.1657 18.2989 18.8124 18.7816 19.2718C16.8249 20.0815 16.2517 22.2675 16.2517 23.5426C16.2517 23.822 16.4769 24.0487 16.7545 24.0487H24.2345C24.511 24.0487 24.7362 23.823 24.7372 23.5436C24.7372 23.4576 24.7272 21.4184 23.3999 20.0774C23.055 19.7303 22.6518 19.4712 22.2023 19.284C22.693 18.8235 23.0047 18.1728 23.0047 17.4461C23.0047 16.0556 21.8816 14.9241 20.5 14.9241C19.1184 14.9241 17.9953 16.0556 17.9953 17.4461ZM32.5893 20.3608L32.5591 20.3426C32.5058 20.4144 32.4394 20.4772 32.354 20.5126C32.2916 20.5389 32.2263 20.5511 32.1609 20.5511C32.0312 20.5511 31.9025 20.4994 31.806 20.4023L29.9287 18.5128L30.6396 17.7973L31.5828 18.7466C31.1011 14.6428 28.3641 11.046 24.4708 9.55933L24.8277 8.61308C29.0257 10.2161 31.9829 14.071 32.5551 18.4835L33.1433 17.519L34 18.0493L32.5893 20.3608ZM16.5664 30.5297L16.2085 31.476C12.0215 29.876 9.07035 26.0373 8.48715 21.638L7.8567 22.6733L7 22.143L8.40973 19.8315L8.43486 19.8467C8.48615 19.7303 8.56357 19.6281 8.68524 19.5775C8.87226 19.4985 9.08945 19.5421 9.23324 19.6868L11.1105 21.5773L10.3996 22.2928L9.45546 21.3435C9.93811 25.4463 12.6741 29.042 16.5664 30.5297ZM30.9382 24.0233L31.8784 24.3826C30.2394 28.7243 26.2425 31.7472 21.7056 32.2016L22.8167 33.2683L22.1239 34L20.1732 32.1287L20.1853 32.1156C20.135 32.068 20.0827 32.0225 20.0546 31.9557C19.9771 31.7664 20.0204 31.5499 20.1642 31.4041L22.0425 29.5147L22.7534 30.2302L21.8102 31.1795C25.8865 30.6947 29.4601 27.9409 30.9382 24.0233ZM10.102 16.0667L9.16084 15.7074C10.8079 11.3446 14.838 8.31149 19.401 7.87935L18.2064 6.73271L18.8992 6L20.8489 7.87227L20.8067 7.9168C20.8831 7.97043 20.9464 8.04229 20.9837 8.13337C21.0611 8.32262 21.0178 8.54021 20.8751 8.68493L18.9978 10.5744L18.2869 9.85889L19.23 8.9096C15.1527 9.39437 11.5801 12.1481 10.102 16.0667ZM27.4873 20.0005C27.4873 23.8786 24.3531 27.0342 20.5 27.0342C16.6469 27.0342 13.5127 23.8786 13.5127 20.0005C13.5127 16.1224 16.6469 12.9669 20.5 12.9669C24.3531 12.9669 27.4873 16.1224 27.4873 20.0005ZM12.5072 20.0005C12.5072 24.4363 16.0928 28.0462 20.5 28.0462C24.9072 28.0462 28.4928 24.4363 28.4928 20.0005C28.4928 15.5648 24.9072 11.9548 20.5 11.9548C16.0928 11.9548 12.5072 15.5648 12.5072 20.0005Z" fill="#01A88D"/>
</g>
<rect x="0.5" y="0.5" width="39" height="39" stroke="#01A88D"/>
<defs>
<clipPath id="clip0_23298_3878">
<rect width="40" height="40" fill="white"/>
</clipPath>
</defs>
</svg>
