<svg xmlns="http://www.w3.org/2000/svg" viewBox="0 0 81.98 93.65"><defs><style>.cls-1{fill:#fff;}</style></defs><g id="Layer_2" data-name="Layer 2"><g id="Layer_1-2" data-name="Layer 1"><path class="cls-1" d="M79.26,21.37,44.11.84a6.21,6.21,0,0,0-6.24,0L2.72,21.37A5.5,5.5,0,0,0,0,26.11V67.49a5.61,5.61,0,0,0,2.79,4.85L38,92.83a6.06,6.06,0,0,0,6.08,0L79.19,72.34A5.61,5.61,0,0,0,82,67.49V26.11A5.5,5.5,0,0,0,79.26,21.37ZM71.45,62.06a1.08,1.08,0,0,1-.54.93L41.54,80.11a1.08,1.08,0,0,1-1.1,0L11.08,63a1.13,1.13,0,0,1-.55-1V31.56a1.08,1.08,0,0,1,.54-.93l10.66-6.24a1.11,1.11,0,0,1,1.09,0,1.08,1.08,0,0,1,.55.94V53.91L33,48.32V18.47a1.07,1.07,0,0,1,.54-.94l6.95-4.06a1.08,1.08,0,0,1,1.1,0l7,4.07a1.09,1.09,0,0,1,.53.94V48.3l9.58,5.58V25.3a1.08,1.08,0,0,1,.55-.94,1.09,1.09,0,0,1,1.09,0l10.66,6.26a1.08,1.08,0,0,1,.54.93Z"/></g></g></svg>