<svg width="40" height="40" viewBox="0 0 40 40" fill="none" xmlns="http://www.w3.org/2000/svg">
<g clip-path="url(#clip0_23298_3901)">
<path d="M40 0H0V40H40V0Z" fill="#01A88D" fill-opacity="0.12"/>
<path fill-rule="evenodd" clip-rule="evenodd" d="M27.2146 12.9796C27.2146 13.4116 26.862 13.7635 26.4294 13.7635C25.9957 13.7635 25.6442 13.4116 25.6442 12.9796C25.6442 12.5476 25.9957 12.1956 26.4294 12.1956C26.862 12.1956 27.2146 12.5476 27.2146 12.9796ZM23.6822 17.9594C23.6822 17.5274 24.0337 17.1755 24.4674 17.1755C24.9 17.1755 25.2526 17.5274 25.2526 17.9594C25.2526 18.3914 24.9 18.7434 24.4674 18.7434C24.0337 18.7434 23.6822 18.3914 23.6822 17.9594ZM23.4648 28.0212C23.4648 27.5892 23.8164 27.2372 24.249 27.2372C24.6827 27.2372 25.0342 27.5892 25.0342 28.0212C25.0342 28.4531 24.6827 28.8051 24.249 28.8051C23.8164 28.8051 23.4648 28.4531 23.4648 28.0212ZM29.2978 21.0453C29.2978 21.4773 28.9462 21.8293 28.5136 21.8293C28.0799 21.8293 27.7284 21.4773 27.7284 21.0453C27.7284 20.6134 28.0799 20.2614 28.5136 20.2614C28.9462 20.2614 29.2978 20.6134 29.2978 21.0453ZM32.9985 22.6383L30.2943 21.0953C30.2943 21.0783 30.2993 21.0623 30.2993 21.0453C30.2993 20.0624 29.4981 19.2614 28.5136 19.2614C27.5281 19.2614 26.7268 20.0624 26.7268 21.0453C26.7268 22.0283 27.5281 22.8293 28.5136 22.8293C29.1185 22.8293 29.6523 22.5253 29.9748 22.0643L32.5478 23.5333L30.2182 25.0842C30.079 25.1772 29.9948 25.3332 29.9948 25.5002V29.2001L22.9931 32.929L19.9795 31.2101V28.5211H22.5434C22.7617 29.2601 23.4388 29.8051 24.249 29.8051C25.2335 29.8051 26.0358 29.0041 26.0358 28.0212C26.0358 27.0382 25.2335 26.2372 24.249 26.2372C23.4388 26.2372 22.7617 26.7822 22.5434 27.5212H19.9795V20.5004C19.9795 20.3484 19.9104 20.2054 19.7922 20.1094L17.2883 18.1094L16.6624 18.8914L18.9779 20.7404V23.2033L15.9733 24.8382V22.5003C15.9733 22.3663 15.9202 22.2373 15.8231 22.1433L13.9282 20.2904V17.5964L16.7305 15.9305C16.8827 15.8395 16.9749 15.6765 16.9749 15.5005V11.5006H15.9733V15.2165L13.4304 16.7285L10.9456 15.2195V10.7976L12.9266 9.72265V13.5005H13.9282V9.17967L16.0024 8.0547L18.9769 9.29866L18.9779 15.5005C18.9779 15.6805 19.0741 15.8455 19.2303 15.9345L22.6856 17.9054C22.6856 17.9244 22.6806 17.9404 22.6806 17.9594C22.6806 18.9424 23.4818 19.7434 24.4674 19.7434C25.4519 19.7434 26.2541 18.9424 26.2541 17.9594C26.2541 16.9765 25.4519 16.1755 24.4674 16.1755C23.8634 16.1755 23.3306 16.4785 23.0071 16.9375L19.9795 15.2105L19.9785 9.30066L22.9751 8.0467L29.0143 10.8206V12.4796H28.136C27.9177 11.7406 27.2386 11.1956 26.4294 11.1956C25.4439 11.1956 24.6426 11.9966 24.6426 12.9796C24.6426 13.9625 25.4439 14.7635 26.4294 14.7635C27.2386 14.7635 27.9177 14.2185 28.136 13.4796H29.0143V15.5005C29.0143 15.6895 29.1205 15.8625 29.2898 15.9475L32.9985 17.8084V22.6383ZM15.9833 32.919L13.9602 31.6751L16.2087 30.3471L15.6979 29.4861L12.9957 31.0831L9.96409 29.2211V25.7802L12.1985 24.4113L11.6737 23.5583L9.47634 24.9052L7.00154 23.2343V20.8084L10.2165 18.9324L9.7117 18.0684L7.00154 19.6504V17.8074L10.4228 16.0725L12.9266 17.5934V20.2294L10.6932 21.6743L11.239 22.5133L13.3643 21.1373L14.9718 22.7103V25.3832L12.7514 26.5922L13.2301 27.4702L18.9779 24.3423V31.2101L15.9833 32.919ZM33.7246 17.0535L30.0159 15.1925V10.5006C30.0159 10.3056 29.9027 10.1276 29.7244 10.0466L23.1934 7.04672C23.0652 6.98772 22.919 6.98372 22.7908 7.03972L19.4797 8.42568L16.1676 7.03972C16.0254 6.97972 15.8682 6.98872 15.735 7.06172L10.2065 10.0616C10.0442 10.1486 9.94406 10.3176 9.94406 10.5006V15.1935L6.27442 17.0545C6.10616 17.1405 6 17.3124 6 17.5004V23.5003C6 23.6663 6.08213 23.8213 6.22034 23.9143L8.96255 25.7662V29.5001C8.96255 29.6741 9.05269 29.8351 9.20192 29.9261L15.7119 33.926C15.792 33.975 15.8832 34 15.9733 34C16.0594 34 16.1446 33.978 16.2217 33.934L19.4787 32.076L22.7357 33.934C22.8128 33.978 22.898 34 22.9841 34C23.0652 34 23.1463 33.98 23.2204 33.941L30.732 29.9411C30.8952 29.8541 30.9964 29.6851 30.9964 29.5001V25.7682L33.7777 23.9163C33.9159 23.8233 34 23.6673 34 23.5003V17.5004C34 17.3114 33.8938 17.1385 33.7246 17.0535Z" fill="#01A88D"/>
</g>
<rect x="0.5" y="0.5" width="39" height="39" stroke="#01A88D"/>
<defs>
<clipPath id="clip0_23298_3901">
<rect width="40" height="40" fill="white"/>
</clipPath>
</defs>
</svg>
