<svg width="40" height="40" viewBox="0 0 40 40" xmlns="http://www.w3.org/2000/svg">  <g id="Icon-Architecture/32/Arch_AWS-CloudShell_32" stroke="none" stroke-width="1" fill="none" fill-rule="evenodd">  <g id="Icon-Service/32/AWS-CloudShell_32" transform="translate(6.500000, 6.710000)" fill="#FFFFFF"> <path d="M17.5,23.2910633 L23.5,23.2910633 L23.5,22.2910633 L17.5,22.2910633 L17.5,23.2910633 Z M12.354,23.1450633 L16.354,19.1450633 C16.549,18.9490633 16.549,18.6330633 16.354,18.4370633 L12.354,14.4370633 L11.647,15.1450633 L15.293,18.7910633 L11.647,22.4370633 L12.354,23.1450633 Z M7.5,26.2910633 L26.5,26.2910633 L26.5,11.2910633 L7.5,11.2910633 L7.5,26.2910633 Z M27.5,10.7910633 L27.5,26.7910633 C27.5,27.0670633 27.276,27.2910633 27,27.2910633 L7,27.2910633 C6.724,27.2910633 6.5,27.0670633 6.5,26.7910633 L6.5,10.7910633 C6.5,10.5150633 6.724,10.2910633 7,10.2910633 L27,10.2910633 C27.276,10.2910633 27.5,10.5150633 27.5,10.7910633 L27.5,10.7910633 Z M5.678,1.34006327 C4.38,1.89206327 3.363,3.48206327 3.363,4.96106327 L3.395,5.48406327 C3.408,5.72306327 3.252,5.93806327 3.021,5.99806327 C2.266,6.19106327 1,6.78906327 1,8.60806327 C1,9.98006327 1.742,10.7370633 2.364,11.1300633 C2.44,11.1720633 2.766,11.2520633 3.043,11.2970633 L4.5,11.2910633 L4.5,12.2910633 L2.963,12.2910633 C2.655,12.2480633 2.098,12.1440633 1.831,11.9760633 C1.147,11.5440633 1.77635684e-15,10.5320633 1.77635684e-15,8.60806327 C1.77635684e-15,6.95506327 0.879,5.68906327 2.373,5.15106327 L2.364,4.99006327 C2.363,3.08006327 3.62,1.12806327 5.287,0.420063271 C7.236,-0.407936729 9.306,0.0030632712 10.814,1.52106327 C11.233,1.94306327 11.585,2.44506327 11.864,3.02006327 C12.459,2.61306327 13.218,2.49106327 13.924,2.72406327 C14.882,3.03806327 15.489,3.89606327 15.595,5.05306327 C16.25,5.22706327 17.259,5.63706327 17.899,6.58606327 C18.288,7.16306327 18.485,7.85206327 18.485,8.63506327 L17.485,8.63506327 C17.485,8.05506327 17.346,7.55306327 17.07,7.14506327 C16.489,6.28506327 15.443,6.02306327 15.021,5.95006327 C14.75,5.90306327 14.567,5.64706327 14.612,5.37606327 C14.611,4.52006327 14.247,3.88206327 13.612,3.67406327 C13.053,3.49006327 12.44,3.69306327 12.084,4.17906327 C11.975,4.32806327 11.79,4.40206327 11.608,4.37706327 C11.425,4.35006327 11.272,4.22406327 11.21,4.04906327 C10.952,3.31706327 10.58,2.70406327 10.106,2.22706327 C9.523,1.64206327 7.928,0.385063271 5.678,1.34006327 L5.678,1.34006327 Z" id="Fill-3"></path> </g> </g></svg>