<svg version="1.1"
	 id="Layer_1" xmlns:sodipodi="http://sodipodi.sourceforge.net/DTD/sodipodi-0.dtd" xmlns:svg="http://www.w3.org/2000/svg" xmlns:inkscape="http://www.inkscape.org/namespaces/inkscape" inkscape:version="1.1.1 (3bf5ae0d25, 2021-09-20)" sodipodi:docname="keycloak_icon_512px.svg"
	 xmlns="http://www.w3.org/2000/svg" xmlns:xlink="http://www.w3.org/1999/xlink" x="0px" y="0px" viewBox="0 0 498.1 415.8"
	 style="enable-background:new 0 0 498.1 415.8;" xml:space="preserve">
<style type="text/css">
	.st0{fill:#4D4D4D;}
	.st1{fill:#E2E2E2;}
	.st2{fill:none;}
	.st3{fill:#E1E1E1;}
	.st4{fill:#C8C8C8;}
	.st5{fill:#C2C2C2;}
	.st6{fill:#C7C7C7;}
	.st7{fill:#CECECE;}
	.st8{fill:#D3D3D3;}
	.st9{fill:#C6C6C6;}
	.st10{fill:#D5D5D5;}
	.st11{fill:#D0D0D0;}
	.st12{fill:#BFBFBF;}
	.st13{fill:#D9D9D9;}
	.st14{fill:#D4D4D4;}
	.st15{fill:#D8D8D8;}
	.st16{fill:#E4E4E4;}
	.st17{fill:#DEDEDE;}
	.st18{fill:#C5C5C5;}
	.st19{fill:#D1D1D1;}
	.st20{fill:#DDDDDD;}
	.st21{fill:#E3E3E3;}
	.st22{fill:#00B8E3;}
	.st23{fill:#33C6E9;}
	.st24{fill:#008AAA;}
</style>
<sodipodi:namedview  bordercolor="#666666" borderopacity="1.0" id="namedview113" inkscape:current-layer="g110" inkscape:cx="279.92681" inkscape:cy="239.33742" inkscape:pagecheckerboard="0" inkscape:pageopacity="0.0" inkscape:pageshadow="2" inkscape:window-height="1011" inkscape:window-maximized="1" inkscape:window-width="1920" inkscape:window-x="0" inkscape:window-y="0" inkscape:zoom="2.1434174" pagecolor="#ffffff" showgrid="false">
	</sodipodi:namedview>
<g id="g110">
	<path id="path38" sodipodi:nodetypes="ccccccccccccccccsssscc" class="st0" d="M421.8,104c-1.4,0-2.6-0.7-3.3-1.9L360.7,1.9
		c-0.7-1.2-2-1.9-3.4-1.9H121.7c-1.4,0-2.6,0.7-3.3,1.9l-60,104L2.5,206c-0.7,1.2-0.7,2.6,0,3.8L58.3,310l60,104
		c0.7,1.2,2,1.9,3.3,1.9h235.7c1.4,0,2.6-0.7,3.4-1.9l57.8-100.1c0.7-1.2,2-1.9,3.3-1.9h71.9c2.4,0,4.3-1.9,4.3-4.3V108.3
		c0-2.4-1.9-4.3-4.3-4.3H421.8L421.8,104z"/>
	<path id="path27674" class="st1" d="M56.2,109.6L1,208l5.9,12.9l54.8,89.6l35.8,1.5l287.3,0h59.5l38.3-9.7l15.5-42.8l0-49.4v-45.7
		l-4.3-60.4h-72l-22.1,0h-49.2H131.3L56.2,109.6"/>
	<path id="path40" class="st2" d="M493.8,104H61.7c-1.4,0-2.6,0.7-3.3,1.9v0.1l-2.1,3.7l-26.5,45.8L0.5,206.1
		c-0.7,1.2-0.7,2.6,0,3.8l6.4,11L58.3,310c0.7,1.2,2,1.9,3.3,1.9h432.2c2.4,0,4.2-1.9,4.2-4.3V108.3
		C498.1,105.9,496.2,104,493.8,104C493.8,104,493.8,104,493.8,104z"/>
	<path id="path42" class="st3" d="M71.4,197.5L6.9,220.9l-6.4-11c-0.7-1.2-0.7-2.6,0-3.8l29.2-50.6L71.4,197.5z"/>
	<polygon id="polygon44" class="st4" points="455.5,216.2 498.1,210.1 498.1,259.4 	"/>
	<path id="path46" class="st5" d="M455.5,216.2l42.6,43.3v48.2c0,2.4-1.9,4.3-4.2,4.3h-49.5L455.5,216.2z"/>
	<polygon id="polygon48" class="st6" points="455.5,216.2 444.3,311.9 384.8,311.9 366.8,268.5 	"/>
	<polygon id="polygon50" class="st7" points="455.5,216.2 498.1,164.4 498.1,210.1 	"/>
	<path id="path52" class="st8" d="M498.1,108.3v56.1l-42.5,51.8L423.5,104h70.3C496.2,104,498.1,105.9,498.1,108.3
		C498.1,108.3,498.1,108.3,498.1,108.3z"/>
	<polygon id="polygon54" class="st9" points="384.8,311.9 353.4,311.9 345.3,300.3 366.8,268.5 	"/>
	<polygon id="polygon56" class="st10" points="455.5,216.2 337.8,166.4 399.7,104 423.5,104 	"/>
	<path id="path58" class="st11" d="M337.8,166.4l29,102.1l88.8-52.3L337.8,166.4z"/>
	<polygon id="polygon60" class="st12" points="353.4,311.9 344.9,311.9 345.3,300.3 	"/>
	<polygon id="polygon62" class="st13" points="399.7,104 337.8,166.4 326.6,110.6 350.5,104 	"/>
	<path id="path64" class="st14" d="M337.8,166.4l-143,33l150.5,100.9L337.8,166.4z"/>
	<path id="path66" class="st11" d="M337.8,166.4l7.5,133.9l21.5-31.8L337.8,166.4z"/>
	<path id="path68" class="st13" d="M326.6,110.6l-131.8,88.8l143-33L326.6,110.6z"/>
	<polygon id="polygon70" class="st15" points="194.8,199.3 132.8,311.9 97.5,311.9 71.4,197.5 	"/>
	<path id="path72" class="st1" d="M131.3,104l-59.8,93.5l-15.2-87.9l2.2-3.7v-0.1c0.7-1.2,2-1.9,3.3-1.9H131.3z"/>
	<path id="path74" class="st15" d="M97.5,312H61.7c-1.4,0-2.7-0.8-3.3-2L6.9,220.9l64.6-23.4L97.5,312z"/>
	<polygon id="polygon76" class="st16" points="29.7,155.4 56.2,109.6 71.4,197.5 	"/>
	<polygon id="polygon78" class="st17" points="260.1,104 218.9,104 155.7,104 194.8,199.3 326.6,110.6 286.9,104 	"/>
	<polygon id="polygon80" class="st17" points="139.4,104 131.3,104 71.4,197.5 194.8,199.3 155.7,104 	"/>
	<polygon id="polygon82" class="st18" points="316.6,311.9 339.6,311.9 344.9,311.9 345.3,300.3 	"/>
	<polygon id="polygon84" class="st11" points="345.3,300.3 194.8,199.3 221.9,311.9 260.1,311.9 316.6,311.9 	"/>
	<polygon id="polygon86" class="st19" points="132.8,311.9 139.4,311.9 218.9,311.9 221.9,311.9 194.8,199.3 	"/>
	<polygon id="polygon88" class="st20" points="327,104 326.6,110.6 350.5,104 339.6,104 	"/>
	<polygon id="polygon90" class="st21" points="286.9,104 326.6,110.6 322.9,104 	"/>
	<polygon id="polygon92" class="st1" points="322.9,104 326.6,110.6 327,104 	"/>
	<path id="path94" class="st22" d="M218.5,105.8l-58.1,100.7c-0.3,0.5-0.4,1.1-0.4,1.6h-40.5l79.7-138.2c0.5,0.3,0.9,0.7,1.2,1.2
		l0.1,0.1l18.1,31.4C219,103.6,219,104.8,218.5,105.8z"/>
	<path id="path96" class="st23" d="M218.4,313.8l-18,31.3c-0.3,0.5-0.7,0.9-1.2,1.1l-79.9-138.2l0,0h40.6c0,0.5,0.1,1.1,0.4,1.6
		c0,0.1,0,0.1,0.1,0.2l58,100.6C219,311.5,219,312.8,218.4,313.8z"/>
	<path id="path98" class="st24" d="M199.1,69.9l-79.7,138.2l0,0l0,0l-20,34.7l-19.1-33.1c-0.3-0.5-0.4-1-0.4-1.6
		c0-0.6,0.1-1.1,0.4-1.6L99.6,173l58.8-101.7c0.6-1.1,1.8-1.8,3-1.8h36C198,69.5,198.6,69.6,199.1,69.9z"/>
	<path id="path100" class="st22" d="M199.1,346.3c-0.5,0.3-1.1,0.4-1.7,0.5h-36.1c-1.2,0-2.4-0.7-3-1.8l-53.7-93l-5.3-9.2l20-34.7
		L199.1,346.3z"/>
	<path id="path102" class="st24" d="M359.5,208.1l-79.8,138.2c-0.5-0.3-0.9-0.7-1.2-1.1l-0.1-0.1l-18.1-31.3c-0.5-1-0.5-2.2,0-3.2
		l58.1-100.7c0.3-0.5,0.5-1.1,0.5-1.8H359.5L359.5,208.1z"/>
	<path id="path104" class="st22" d="M399,208.1c0,0.6-0.2,1.2-0.5,1.8l-78.1,135.3c-0.6,1-1.7,1.6-2.9,1.6h-36
		c-0.6,0-1.2-0.2-1.8-0.5l79.8-138.2l20-34.6l19,32.9C398.8,206.9,399,207.4,399,208.1z"/>
	<path id="path106" class="st22" d="M359.5,208.1H319c0-0.6-0.2-1.2-0.5-1.7l-58-100.5c-0.6-1.1-0.6-2.4,0-3.5L278.6,71
		c0.3-0.5,0.7-0.9,1.2-1.2L359.5,208.1z"/>
	<path id="path108" class="st23" d="M379.5,173.4L379.5,173.4l-20,34.6L279.7,69.9c0.5-0.3,1.1-0.4,1.8-0.4h36
		c1.2,0,2.3,0.6,2.9,1.6L379.5,173.4z"/>
</g>
</svg>