<svg xmlns="http://www.w3.org/2000/svg" width="18" height="18" viewBox="0 0 50 50" class="fxs-portal-svg" data-type="1"><g class="msportalfx-svg-c04" fill="#7a7a7a"><path d="M25.776 36.503h4.957c1.803 0 2.817.807 3.605 2.422h-8.563c-1.352 0-2.253 1.587-2.253 2.939s1.014 2.713 2.253 2.713h8.563C33.55 46.193 32.536 47 30.734 47h-4.957c-2.704 0-4.845-2.544-4.845-5.248-.001-2.705 2.253-5.249 4.844-5.249zm19.492 2.422h-8.563c.789-1.615 1.803-2.422 3.605-2.422h4.957c2.704 0 4.732 2.657 4.732 5.361C50 44.568 47.859 47 45.268 47H40.31c-1.803 0-2.817-.807-3.605-2.422h8.563c1.352 0 2.253-1.587 2.253-2.713 0-1.353-.788-2.94-2.253-2.94z"/><path d="M41.663 42.963H29.494c-.676 0-2.141-.535-2.141-1.211s1.465-1.211 2.141-1.211h12.168c.676 0 2.591.31 2.591.986.001.901-1.914 1.436-2.59 1.436z"/></g><path d="M49.7 22.075c.5-.5.4-1.3 0-1.8l-2.4-2.4-10.8-10.5c-.5-.5-1.2-.5-1.7 0s-.6 1.3 0 1.8l11.3 11.1c.5.5.5 1.3 0 1.8l-11.5 11.5c-.5.5-.5 1.3 0 1.8s1.3.4 1.7 0l10.7-10.6.1-.1 2.6-2.6zm-49.4 0c-.5-.5-.4-1.3 0-1.8l2.4-2.4 10.8-10.5c.5-.5 1.2-.5 1.7 0s.6 1.3 0 1.8l-11.1 11.1c-.5.5-.5 1.3 0 1.8l11.3 11.5c.5.5.5 1.3 0 1.8s-1.3.4-1.7 0l-10.9-10.5-.1-.1-2.4-2.7z" class="msportalfx-svg-c16" fill="#3999c6"/><circle cx="35.2" cy="21.175" r="3.3" class="msportalfx-svg-c14" fill="#7fba00"/><circle cx="24.9" cy="21.175" r="3.3" class="msportalfx-svg-c14" fill="#7fba00"/><circle cx="14.8" cy="21.175" r="3.3" class="msportalfx-svg-c14" fill="#7fba00"/></svg>