<svg width="40" height="40" viewBox="0 0 40 40" fill="none" xmlns="http://www.w3.org/2000/svg">
<g clip-path="url(#clip0_23296_3718)">
<path d="M40 0H0V40H40V0Z" fill="#7AA116" fill-opacity="0.12"/>
<path fill-rule="evenodd" clip-rule="evenodd" d="M20.0311 15.98C21.1369 15.98 22.0363 15.082 22.0363 13.9778C22.0363 12.8735 21.1369 11.9755 20.0311 11.9755C18.9252 11.9755 18.0259 12.8735 18.0259 13.9778C18.0259 15.082 18.9252 15.98 20.0311 15.98ZM13.0129 20.9855C13.0129 19.8813 12.1136 18.9833 11.0078 18.9833C9.90191 18.9833 9.00259 19.8813 9.00259 20.9855C9.00259 22.0898 9.90191 22.9878 11.0078 22.9878C12.1136 22.9878 13.0129 22.0898 13.0129 20.9855ZM26.986 20.9855C26.986 22.0898 27.8864 22.9878 28.9922 22.9878C30.0971 22.9878 30.9974 22.0898 30.9974 20.9855C30.9974 19.8813 30.0971 18.9833 28.9922 18.9833C27.8864 18.9833 26.986 19.8813 26.986 20.9855ZM30.5583 24.4894H31.5609V25.929C31.5609 27.4187 30.7297 28.7592 29.3923 29.4269L20.2527 33.9479C20.1825 33.983 20.1063 34 20.0301 34C19.9539 34 19.8777 33.983 19.8075 33.9479L10.6719 29.4279C9.33244 28.7592 8.5013 27.4187 8.5013 25.929V24.4894H9.50389V25.929C9.50389 27.0373 10.1225 28.0344 11.1181 28.5319L16.522 31.2049V21.4861H13.9644C13.7248 22.9037 12.4946 23.9889 11.0078 23.9889C9.34949 23.9889 8 22.6414 8 20.9855C8 19.3297 9.34949 17.9822 11.0078 17.9822C12.4946 17.9822 13.7248 19.0674 13.9644 20.485H17.0233C17.3 20.485 17.5246 20.7092 17.5246 20.9855V31.7014L19.5288 32.6925L19.5298 16.93C18.1101 16.6908 17.0233 15.4624 17.0233 13.9778C17.0233 12.3219 18.3728 10.9744 20.0311 10.9744C21.6894 10.9744 23.0389 12.3219 23.0389 13.9778C23.0389 15.4624 21.952 16.6908 20.5324 16.93L20.5314 32.6925L22.4754 31.7315V20.9855C22.4754 20.7092 22.699 20.485 22.9767 20.485H26.0346C26.2752 19.0674 27.5044 17.9822 28.9922 17.9822C30.6505 17.9822 32 19.3297 32 20.9855C32 22.6414 30.6505 23.9889 28.9922 23.9889C27.5044 23.9889 26.2752 22.9037 26.0346 21.4861H23.478V31.2349L28.9461 28.5309C29.9397 28.0344 30.5583 27.0373 30.5583 25.929V24.4894ZM9.50389 17.4816H8.5013V10.1665C8.5013 9.89121 8.72287 9.66796 8.99858 9.66596C14.6432 9.61691 19.2511 8.21435 19.5288 7.49555C19.5298 7.47653 19.5318 7.45651 19.5348 7.43749C19.5599 7.18621 19.7714 7 20.0311 7C20.3078 7 20.5314 7.23526 20.5314 7.51257C20.5955 8.13226 24.258 9.61591 31.0636 9.66596C31.3383 9.66796 31.5609 9.89121 31.5609 10.1665V17.4816H30.5583V10.6611C26.0426 10.576 21.4197 9.7941 19.982 8.42358C18.3547 9.73204 13.422 10.562 9.50389 10.6591V17.4816Z" fill="#7AA116"/>
</g>
<rect x="0.5" y="0.5" width="39" height="39" stroke="#7AA116"/>
<defs>
<clipPath id="clip0_23296_3718">
<rect width="40" height="40" fill="white"/>
</clipPath>
</defs>
</svg>
