<svg width="40" height="40" viewBox="0 0 40 40" fill="none" xmlns="http://www.w3.org/2000/svg">
<g clip-path="url(#clip0_23299_4195)">
<path d="M40 0H0V40H40V0Z" fill="#ED7100" fill-opacity="0.12"/>
<path fill-rule="evenodd" clip-rule="evenodd" d="M24 32.9123V26.8503L29.25 29.8813L24 32.9123ZM23.75 25.5513C23.596 25.4623 23.404 25.4623 23.25 25.5513C23.096 25.6403 23 25.8053 23 25.9843V33.7783C23 33.9573 23.096 34.1223 23.25 34.2113C23.327 34.2563 23.414 34.2783 23.5 34.2783C23.586 34.2783 23.673 34.2563 23.75 34.2113L30.5 30.3143C30.654 30.2253 30.75 30.0603 30.75 29.8813C30.75 29.7033 30.654 29.5373 30.5 29.4483L23.75 25.5513ZM33 23.1703L27.75 20.1393L33 17.1083V23.1703ZM17 25.1173V15.1623L25.622 20.1403L17 25.1173ZM16 13.4283L10.75 10.3973L16 7.36632V13.4283ZM16 32.9143L10.75 29.8833L16 26.8523V32.9143ZM33.75 15.8083C33.596 15.7203 33.404 15.7203 33.25 15.8083L26.686 19.5993L17 14.0073V6.49932C17 6.32132 16.904 6.15632 16.75 6.06632C16.596 5.97732 16.404 5.97732 16.25 6.06632L9.5 9.96432C9.346 10.0533 9.25 10.2183 9.25 10.3973C9.25 10.5763 9.346 10.7413 9.5 10.8303L16 14.5833V25.6973L9.5 29.4503C9.346 29.5393 9.25 29.7043 9.25 29.8833C9.25 30.0623 9.346 30.2273 9.5 30.3163L16.25 34.2143C16.327 34.2583 16.414 34.2813 16.5 34.2813C16.586 34.2813 16.673 34.2583 16.75 34.2143C16.904 34.1243 17 33.9593 17 33.7813V26.2723L26.687 20.6803L33.25 24.4703C33.404 24.5583 33.596 24.5583 33.75 24.4703C33.904 24.3803 34 24.2153 34 24.0373V16.2423C34 16.0633 33.904 15.8983 33.75 15.8083ZM7 23.1703V17.1083L12.25 20.1393L7 23.1703ZM13.75 20.1393C13.75 19.9603 13.654 19.7953 13.5 19.7063L6.75 15.8083C6.596 15.7203 6.404 15.7203 6.25 15.8083C6.096 15.8983 6 16.0633 6 16.2423V24.0363C6 24.2153 6.096 24.3803 6.25 24.4693C6.327 24.5143 6.414 24.5363 6.5 24.5363C6.586 24.5363 6.673 24.5143 6.75 24.4693L13.5 20.5723C13.654 20.4833 13.75 20.3183 13.75 20.1393ZM24 7.36632L29.25 10.3973L24 13.4283V7.36632ZM23.5 14.7943C23.586 14.7943 23.673 14.7723 23.75 14.7273L30.5 10.8303C30.654 10.7413 30.75 10.5763 30.75 10.3973C30.75 10.2183 30.654 10.0533 30.5 9.96432L23.75 6.06632C23.596 5.97732 23.404 5.97732 23.25 6.06632C23.096 6.15632 23 6.32132 23 6.49932V14.2943C23 14.4733 23.096 14.6383 23.25 14.7273C23.327 14.7723 23.414 14.7943 23.5 14.7943Z" fill="#ED7100"/>
</g>
<rect x="0.5" y="0.5" width="39" height="39" stroke="#ED7100"/>
<defs>
<clipPath id="clip0_23299_4195">
<rect width="40" height="40" fill="white"/>
</clipPath>
</defs>
</svg>
