<svg width="40" height="40" viewBox="0 0 40 40" fill="none" xmlns="http://www.w3.org/2000/svg">
<g clip-path="url(#clip0_23310_9508)">
<path d="M40 0H0V40H40V0Z" fill="#C925D1" fill-opacity="0.12"/>
<path fill-rule="evenodd" clip-rule="evenodd" d="M15.6368 32.9999H18.7131V22.0167H15.6368V32.9999ZM10.0601 15.9981H13.4137C13.2302 17.8883 13.5513 19.3454 13.9325 20.3305C12.3964 19.4354 10.3689 17.9163 10.0601 15.9981ZM16.5888 13.9979H16.9803H17.388H17.8905L18.4328 14.998H16.0038L16.5888 13.9979ZM17.1841 12.0046L17.6867 12.4977L17.1841 12.9907L16.6816 12.4977L17.1841 12.0046ZM21.2726 19.8415C21.8057 18.8794 22.2114 17.5882 22.0809 15.9981H24.6262C24.3408 17.5572 22.7802 18.8904 21.2726 19.8415ZM17.6938 15.9981H21.0606C21.3328 18.8674 19.5398 20.5976 19.0413 21.0166H17.6938V15.9981ZM15.4003 21.0166C15.0599 20.4856 14.1404 18.7474 14.432 15.9981H16.6745V21.0166H15.4003ZM25.6914 15.498C25.6914 15.222 25.463 14.998 25.1817 14.998H19.5877L18.6469 13.2628C18.6132 13.1998 18.5582 13.1548 18.5021 13.1128L18.5633 13.0518C18.6591 12.9577 18.7131 12.8307 18.7131 12.6977V12.2977C18.7131 12.1647 18.6591 12.0376 18.5633 11.9436L17.7488 11.1436C17.653 11.0505 17.5236 10.9975 17.388 10.9975H16.9803C16.8447 10.9975 16.7152 11.0505 16.6194 11.1436L15.804 11.9436C15.7092 12.0376 15.6551 12.1647 15.6551 12.2977V12.6977C15.6551 12.8307 15.7092 12.9577 15.804 13.0518L15.9283 13.1738C15.9039 13.1998 15.8712 13.2168 15.8519 13.2488L14.8275 14.998H9.50966C9.22731 14.998 9 15.222 9 15.498C9 18.7724 12.9794 21.0376 14.6175 21.8317V33.4999C14.6175 33.776 14.8458 34 15.1271 34H19.2228C19.5041 34 19.7324 33.776 19.7324 33.4999V21.8307C22.086 20.7126 25.6914 18.5103 25.6914 15.498ZM20.8812 11.3686L19.9669 11.8126C19.4429 10.7765 18.3849 10.1324 17.2055 10.1324C16.0272 10.1324 14.9691 10.7765 14.4442 11.8126L13.5309 11.3686C14.2291 9.98843 15.6368 9.13234 17.2055 9.13234C18.7743 9.13234 20.1819 9.98843 20.8812 11.3686ZM21.396 11.1105C20.5968 9.54138 18.9914 8.56627 17.2055 8.56627C15.4156 8.56627 13.8092 9.54438 13.0131 11.1185L12.0998 10.6735C13.0701 8.7563 15.0272 7.56617 17.2055 7.56617C19.3797 7.56617 21.3348 8.7533 22.3072 10.6645L21.396 11.1105ZM11.5819 10.4205L10.6696 9.97543C11.9122 7.52316 14.4167 6 17.2055 6C19.9862 6 22.4877 7.51716 23.7333 9.95842L22.821 10.4055C21.7486 8.30525 19.5979 7.00011 17.2055 7.00011C14.8071 7.00011 12.6522 8.31025 11.5819 10.4205ZM25.9849 23.1578C26.465 22.3257 26.8881 21.2396 26.8677 19.9985H29.892C29.47 21.2156 27.6077 22.3418 25.9849 23.1578ZM21.7711 32.9999H23.8097V24.999H21.7711V32.9999ZM31 19.4984C31 19.2224 30.7717 18.9984 30.4903 18.9984H24.829V19.9985H25.8218C25.8555 21.9677 24.5283 23.5519 24.1033 23.9989H21.7711V21.9987H20.7517V33.4999C20.7517 33.776 20.9791 34 21.2614 34H24.3194C24.6007 34 24.829 33.776 24.829 33.4999V24.817C27.1602 23.7539 31 21.9857 31 19.4984Z" fill="#C925D1"/>
</g>
<rect x="0.5" y="0.5" width="39" height="39" stroke="#C925D1"/>
<defs>
<clipPath id="clip0_23310_9508">
<rect width="40" height="40" fill="white"/>
</clipPath>
</defs>
</svg>
