<svg id="图层_1" data-name="图层 1" xmlns="http://www.w3.org/2000/svg" viewBox="0 0 153.66 153.66"><defs><style>.cls-1{fill:#fff;}.cls-2{fill:#2c55ff;}</style></defs><title>Inclavare </title><rect class="cls-1" x="-0.81" y="-1.25" width="155.27" height="155.27"/><path class="cls-2" d="M109.43,74.81h17.79v-33L76.83,20.13,26.43,41.84V89.39a26,26,0,0,0,13,22.55l37.38,21.58,37.37-21.58a26,26,0,0,0,13-22.55v-2.1L109.43,74.81V84.1a16.51,16.51,0,0,1-8.26,14.3l-24.34,14-24.34-14a16.51,16.51,0,0,1-8.26-14.3V53.16l32.6-13L109.08,53,76.83,74.81Z"/></svg>