<svg id="Layer_1" data-name="Layer 1" xmlns="http://www.w3.org/2000/svg" viewBox="0 0 576 576"><defs><style>.cls-1{fill:#ccc;}.cls-2{fill:#fff;}</style></defs><g id="编组-2"><g id="编组备份"><path id="路径" class="cls-1" d="M427.03534,267.999l-.49828.21009a214.731,214.731,0,0,0-48.64139,28.63512c-51.42673,40.59189-81.12612,104.26817-81.22473,196.048q-.02374,22.36192,1.88532,42.105H229.86214q-1.73144-20.2515-1.71061-42.17824c.1213-112.35038,39.10843-195.93984,107.29208-249.75823a285.38747,285.38747,0,0,1,73.54532-41.70162Q421.301,231.16346,427.03534,267.999Z"/><path id="路径-2" data-name="路径" class="cls-2" d="M241.57064,243.06078C309.75429,296.87917,348.74143,380.46863,348.86273,492.819q.0228,21.92221-1.71062,42.17824H278.458q1.91366-19.75305,1.88532-42.105c-.0986-91.77986-29.798-155.45614-81.22472-196.048a213.85173,213.85173,0,0,0-46.00424-27.4895q6.90805-36.564,20.09285-65.92886A284.18909,284.18909,0,0,1,241.57064,243.06078Z"/><path id="路径-3" data-name="路径" class="cls-2" d="M111.98705,41.11407l54.77588,45.66367c-97.68037,92.47033-99.55874,292.1429-61.00248,448.21846H37.224C-6.14547,379.84387-.08009,157.34621,111.98705,41.11407Z"/><path id="路径-4" data-name="路径" class="cls-1" d="M465.95031,39.77036C579.275,155.62464,585.55553,379.24516,542.018,534.99925H473.48028c38.72926-156.76706,36.66328-357.5261-62.30932-449.44838Z"/></g></g></svg>
