<svg width="40" height="40" viewBox="0 0 40 40" fill="none" xmlns="http://www.w3.org/2000/svg">
<g clip-path="url(#clip0_23310_9407)">
<path d="M40 0H0V40H40V0Z" fill="#8C4FFF" fill-opacity="0.12"/>
<path fill-rule="evenodd" clip-rule="evenodd" d="M19.0535 26.5931C19.0535 26.8691 19.2785 27.0931 19.5535 27.0931C19.8285 27.0931 20.0535 26.8691 20.0535 26.5931C20.0535 26.3171 19.8285 26.0931 19.5535 26.0931C19.2785 26.0931 19.0535 26.3171 19.0535 26.5931ZM18.0535 26.5931C18.0535 25.7661 18.7265 25.0931 19.5535 25.0931C20.3805 25.0931 21.0535 25.7661 21.0535 26.5931C21.0535 27.2441 20.6345 27.7941 20.0535 28.0011V29.0931H19.0535V28.0011C18.4725 27.7941 18.0535 27.2441 18.0535 26.5931ZM24.0535 24.0931H15.0535V30.0931H24.0535V29.0931H22.0535V28.0931H24.0535V26.0931H22.0535V25.0931H24.0535V24.0931ZM16.0535 23.0931H23.0535V20.6371C23.0535 20.0201 22.7285 19.3941 22.1605 18.9191C21.5085 18.3731 20.5905 18.0721 19.5745 18.0721C17.3715 18.0721 16.0545 19.3771 16.0535 20.6381V23.0931ZM25.0535 23.5931V25.0931V26.0931V28.0931V29.0931V30.5931C25.0535 30.8691 24.8295 31.0931 24.5535 31.0931H14.5535C14.2775 31.0931 14.0535 30.8691 14.0535 30.5931V23.5931C14.0535 23.3171 14.2775 23.0931 14.5535 23.0931H15.0535V20.6371C15.0545 18.8851 16.7455 17.0721 19.5745 17.0721C20.8245 17.0721 21.9715 17.4561 22.8035 18.1521C23.5985 18.8181 24.0545 19.7241 24.0535 20.6381V23.0931H24.5535C24.8295 23.0931 25.0535 23.3171 25.0535 23.5931ZM34.1065 21.1471C34.1065 22.6351 33.6585 23.8331 32.7755 24.7091C31.3375 26.1351 29.2645 26.1671 29.0865 26.1671H29.0775L27.0805 26.1641L27.0825 25.1641L29.0825 25.1671C29.1165 25.1671 30.9105 25.1551 32.0765 23.9931C32.7595 23.3131 33.1065 22.3551 33.1065 21.1471C33.1065 17.5101 29.6905 16.7381 29.0045 16.6201C28.8715 16.5971 28.7535 16.5221 28.6765 16.4101C28.6005 16.2981 28.5735 16.1601 28.5995 16.0281C28.8805 14.6451 28.0695 13.7461 27.2145 13.3661C26.3675 12.9901 25.1485 13.0001 24.4725 13.9151C24.3625 14.0641 24.1855 14.1361 23.9955 14.1131C23.8135 14.0851 23.6595 13.9591 23.5985 13.7841C23.2575 12.8171 22.6395 11.8931 21.7085 10.9601C20.2325 9.47808 17.3855 8.22208 14.2285 9.56208C11.9055 10.5451 10.5175 13.3681 10.5175 15.5301L10.5105 15.8671C10.5035 16.1131 10.4925 16.3971 10.5135 16.5731C10.5435 16.8221 10.3835 17.0541 10.1405 17.1161C8.00055 17.6611 7.00355 18.9421 7.00355 21.1471L7.00155 21.3041C7.00055 21.4141 6.99755 21.5391 7.00255 21.6191C7.15655 24.0541 9.45255 25.1641 11.5235 25.1641L12.0315 25.1661L12.0275 26.1661L11.5215 26.1641C9.00055 26.1641 6.19855 24.7601 6.00455 21.6801C5.99855 21.5801 5.99955 21.4261 6.00155 21.2901L6.00355 21.1471C6.00355 18.6261 7.18055 16.9831 9.50355 16.2561C9.50355 16.1181 9.50755 15.9741 9.51055 15.8391L9.51755 15.5301C9.51755 13.0431 11.1335 9.78608 13.8375 8.64108C16.8155 7.37908 20.1825 8.01308 22.4175 10.2541C23.2305 11.0701 23.8325 11.8881 24.2435 12.7391C25.1495 12.0571 26.4375 11.9261 27.6205 12.4521C28.9845 13.0591 29.7425 14.3141 29.6465 15.7341C31.8015 16.2641 34.1065 17.9401 34.1065 21.1471Z" fill="#8C4FFF"/>
</g>
<rect x="0.5" y="0.5" width="39" height="39" stroke="#8C4FFF"/>
<defs>
<clipPath id="clip0_23310_9407">
<rect width="40" height="40" fill="white"/>
</clipPath>
</defs>
</svg>
