<svg xmlns="http://www.w3.org/2000/svg" role="img" viewBox="20.55 -3.95 390.16 439.66"><style>svg {enable-background:new 0 0 432 432}</style><style>.st2{fill:#fff}</style><path d="M215.7 327.8c-1.5 0-3-.6-4.1-1.9-1.9-2.2-1.6-5.6.6-7.5l177.1-151.2c2-5.8 2.3-10.9 2.3-11.5 0-33.1-21.9-61.4-22.2-61.7-.1-.1-.2-.3-.3-.4-30.3-47.3-72.9-62.4-93.4-69.6-11.6-4.1-54.1-16.4-112.1-2.1-47.1 11.6-87.5 43.3-110.8 86.8-11.1 20.8-13.2 36.1-13 45.4 0 1.9.2 3.5.4 5 9.3-9.9 28-24.6 56.2-23.3 2.7.1 37.9 1.5 58.2 34.4 7.8-12.3 25.6-32.5 59.3-34.5 1.2-.1 12.2-.7 25.8 4 11.3 3.9 26.3 12.3 37.8 30.2 7.6-12.2 24.8-32.3 57.6-34.2 2.9-.2 5.5 2.1 5.6 5 .2 2.9-2.1 5.5-5 5.6-39.4 2.2-52.5 35.2-53 36.6-.8 2-2.6 3.3-4.8 3.4-2.1.1-4.1-1.1-5-3-19.5-39.9-57.8-37.2-58.2-37.1h-.1c-40.8 2.4-54.4 35.8-55 37.2-.8 2-2.7 3.3-4.8 3.4-2.2 0-4.1-1.2-5-3.1-16.4-36.3-53.2-37.3-53.6-37.3H96c-35.2-1.8-53.4 26.6-53.6 26.9-1 1.6-2.8 2.6-4.7 2.5-1.9-.1-3.6-1.1-4.5-2.8-.6-1-13.4-25.4 10.3-69.6 24.6-46 67.5-79.6 117.6-91.9 60.9-15 105.8-1.9 118.2 2.4 19.9 7 66.5 23.5 98.7 73.7 2.3 3 24.3 32.5 24.3 68.2 0 .4-.2 8-3.4 16.5-.3.8-.8 1.6-1.5 2.2l-178.2 152c-1 .9-2.3 1.3-3.5 1.3z" class="st2"/><path d="M214.8 326.9c-1.2 0-2.5-.4-3.5-1.3l-176.9-151c-2.2-1.9-2.5-5.3-.6-7.5s5.3-2.5 7.5-.6l176.9 151c2.2 1.9 2.5 5.3.6 7.5-1 1.3-2.5 1.9-4 1.9z" class="st2"/><path d="M215.3 326.9c-2.1 0-4-1.2-4.9-3.2l-60.7-139.9c-1.2-2.7.1-5.9 2.8-7 2.7-1.2 5.9.1 7 2.8l60.7 139.9c1.2 2.7-.1 5.9-2.8 7-.7.3-1.4.4-2.1.4z" class="st2"/><path d="M215.7 327.8c-.7 0-1.4-.1-2.1-.5-2.7-1.2-3.9-4.3-2.7-7l62-141.2c1.2-2.7 4.3-3.9 7-2.7 2.7 1.2 3.9 4.3 2.7 7l-62 141.2c-.9 2-2.8 3.2-4.9 3.2z" class="st2"/><path d="M278.1 427.5H151.8c-3 0-5.3-2.4-5.3-5.3v-99.4c0-3 2.4-5.3 5.3-5.3h31.4c3 0 5.3 2.4 5.3 5.3 0 3-2.4 5.3-5.3 5.3h-26v88.8h115.6V328h-56.3c-3 0-5.3-2.4-5.3-5.3 0-3 2.4-5.3 5.3-5.3h61.6c3 0 5.3 2.4 5.3 5.3v99.4c0 3-2.4 5.4-5.3 5.4z" class="st2"/><circle cx="180.4" cy="322.7" r="12.1" class="st2"/><circle cx="337.1" cy="141" r="12.1" class="st2"/><path d="M252.7 404.8c-3 0-5.3-2.4-5.3-5.3v-54.6c0-2.2 1.3-4.1 3.3-4.9 2-.8 4.3-.4 5.8 1.2l11.7 11.7c2.1 2.1 2.1 5.5 0 7.6-2.1 2.1-5.5 2.1-7.6 0l-2.6-2.6v41.7c0 2.8-2.4 5.2-5.3 5.2z" class="st2"/><path d="M241 361.9c-1.4 0-2.7-.5-3.8-1.6-2.1-2.1-2.1-5.5 0-7.6l11.7-11.7c2.1-2.1 5.5-2.1 7.6 0 2.1 2.1 2.1 5.5 0 7.6l-11.7 11.7c-1.1 1-2.4 1.6-3.8 1.6z" class="st2"/></svg>