<svg xmlns="http://www.w3.org/2000/svg" viewBox="0 0 359.1 98.12"><defs><style>.cls-1{fill:#fff;}</style></defs><g id="Layer_2" data-name="Layer 2"><g id="Layer_1-2" data-name="Layer 1"><path class="cls-1" d="M176.13,78.81h2.21L189.7,94.48V78.81h2v19h-1.84L178.08,81.68V97.82h-2Z"/><path class="cls-1" d="M196.5,78.81h12.57v1.92H198.53V87h10.28v1.9H198.53v7h10.64v1.85H196.5Z"/><path class="cls-1" d="M219.25,80.73h-7.13V78.81h16.29v1.92h-7.13V97.82h-2Z"/><path class="cls-1" d="M230.87,78.81H233l5,15.72,5.11-15.72h1.74l5.08,15.72,5-15.72h2L250.75,98H249l-5.13-15.83L238.77,98H237Z"/><path class="cls-1" d="M258.68,88.3c0-6.77,3.46-9.8,9.54-9.8s9.59,3,9.59,9.8-3.48,9.82-9.59,9.82S258.68,95.1,258.68,88.3Zm17.11,0c0-5.13-2.39-7.9-7.57-7.9s-7.52,2.77-7.52,7.9,2.36,7.92,7.52,7.92S275.79,93.48,275.79,88.33Z"/><path class="cls-1" d="M289.61,90.07h-5.69v7.75h-2v-19h8.21c4.41,0,6.41,1.77,6.41,5.54,0,3.28-1.56,5.21-4.87,5.64l4.59,7.83h-2.15Zm.57-1.85c2.69,0,4.36-.82,4.36-3.82s-1.62-3.72-4.44-3.72h-6.18v7.54Z"/><path class="cls-1" d="M306.65,87.74l-3.8,4.15v5.93h-2v-19h2V89.3l9.62-10.49h2.33L308,86.28l7.75,11.54h-2.29Z"/><path class="cls-1" d="M317.42,95.89l1-1.53a12.35,12.35,0,0,0,6.8,1.92c3.93,0,5.67-1.1,5.67-3.72s-2.26-3.08-5.67-3.69c-4.1-.72-6.87-1.42-6.87-5.26,0-3.67,2.36-5.11,6.87-5.11a11.5,11.5,0,0,1,6.62,1.7l-1.08,1.64a10.34,10.34,0,0,0-5.54-1.49c-3.41,0-4.87,1-4.87,3.21s2,2.87,5.36,3.48c4.15.75,7.16,1.36,7.16,5.44,0,3.77-2.42,5.59-7.6,5.59A13.74,13.74,0,0,1,317.42,95.89Z"/><path class="cls-1" d="M352.76.25c-26.72,0-27.86,12-27.86,28.87V70.58h6.3V29.12c0-12.73-.5-22.94,21.56-22.94a54.64,54.64,0,0,1,6.34.34v-6C357.16.35,355.06.25,352.76.25Z"/><path class="cls-1" d="M41.1,43.61v-42h6.43V43.73c0,12.1-.13,22.31,22,22.31S91.14,55.83,91.14,43.1V1.64h6.3V43.1C97.44,60,96.3,72,69.58,72S41.1,60,41.1,43.61Z"/><path class="cls-1" d="M164.44,28.61v42H158V28.48c0-12.09.13-22.3-22.06-22.3S114.4,16.39,114.4,29.12V70.58h-6.3V29.12C108.1,12.23,109.24.25,136,.25S164.44,12.23,164.44,28.61Z"/><path class="cls-1" d="M176.13,1.77h6.17V70.58h-6.17Z"/><path class="cls-1" d="M193.86,1.77h32.21c16,0,23.22,7.94,23.22,22.05S242.14,46.67,226,46.67H200V70.58h-6.17Zm32.31,38.71c11.13,0,16.66-5.42,16.66-16.38s-6-16.16-16.94-16.16H200V40.48Z"/><path class="cls-1" d="M256.47,35.92c0-20.29,5.8-35.92,31.77-35.92,26.84,0,27.72,18,27.6,37.05H262.65c.13,16.77,4.28,29.25,26.09,29.25,11.59,0,16.89-3.16,22.56-7.31l3.53,4.66c-6.3,4.66-13.74,8.32-26.09,8.32C261.52,72,256.47,56.21,256.47,35.92Zm6.31-4.66h46.88C309,17.52,308.15,5.8,288.11,5.8,268.83,5.8,263.53,16.26,262.78,31.26Z"/><path class="cls-1" d="M2.4,85.51c26.72,0,27.85-12,27.85-28.86v-55H24v55c0,12.73.5,22.94-21.55,22.94-.84,0-1.63,0-2.4,0v5.94C.78,85.5,1.57,85.51,2.4,85.51Z"/><path class="cls-1" d="M345,70.88a4.35,4.35,0,1,1,4.35-4.35A4.35,4.35,0,0,1,345,70.88Zm0-8.14a3.79,3.79,0,1,0,3.78,3.79A3.79,3.79,0,0,0,345,62.74Z"/><path class="cls-1" d="M345.28,67.11h-1.4V69h-.66V64h2.22c1.27,0,1.76.52,1.76,1.51A1.37,1.37,0,0,1,346,67.06l1.13,2h-.72Zm.15-.63c.69,0,1.08-.19,1.08-.92s-.38-.89-1.1-.89h-1.53v1.81Z"/></g></g></svg>