<svg width="40" height="40" viewBox="0 0 40 40" fill="none" xmlns="http://www.w3.org/2000/svg">
<g clip-path="url(#clip0_23310_9467)">
<path d="M40 0H0V40H40V0Z" fill="#8C4FFF" fill-opacity="0.12"/>
<path fill-rule="evenodd" clip-rule="evenodd" d="M16.173 31.531L15.827 32.469C12.509 31.243 9.851 28.587 8.533 25.18L9.467 24.82C10.68 27.959 13.125 30.405 16.173 31.531ZM9.467 16.18L8.533 15.82C9.851 12.414 12.509 9.757 15.827 8.531L16.173 9.469C13.125 10.596 10.68 13.042 9.467 16.18ZM31.533 24.82L32.467 25.18C31.15 28.587 28.491 31.243 25.173 32.469L24.827 31.531C27.875 30.405 30.32 27.959 31.533 24.82ZM20.5 33C19.673 33 19 32.327 19 31.5C19 30.673 19.673 30 20.5 30C21.327 30 22 30.673 22 31.5C22 32.327 21.327 33 20.5 33ZM20.5 29C19.121 29 18 30.122 18 31.5C18 32.879 19.121 34 20.5 34C21.879 34 23 32.879 23 31.5C23 30.122 21.879 29 20.5 29ZM8.5 22C7.673 22 7 21.327 7 20.5C7 19.673 7.673 19 8.5 19C9.327 19 10 19.673 10 20.5C10 21.327 9.327 22 8.5 22ZM11 20.5C11 19.122 9.879 18 8.5 18C7.121 18 6 19.122 6 20.5C6 21.879 7.121 23 8.5 23C9.879 23 11 21.879 11 20.5ZM24.827 9.469L25.173 8.531C28.491 9.757 31.15 12.414 32.467 15.82L31.533 16.18C30.32 13.042 27.875 10.596 24.827 9.469ZM20.5 7C21.327 7 22 7.673 22 8.5C22 9.327 21.327 10 20.5 10C19.673 10 19 9.327 19 8.5C19 7.673 19.673 7 20.5 7ZM20.5 11C21.879 11 23 9.879 23 8.5C23 7.122 21.879 6 20.5 6C19.121 6 18 7.122 18 8.5C18 9.879 19.121 11 20.5 11ZM31.5 22C30.673 22 30 21.327 30 20.5C30 19.673 30.673 19 31.5 19C32.327 19 33 19.673 33 20.5C33 21.327 32.327 22 31.5 22ZM31.5 18C30.121 18 29 19.122 29 20.5C29 21.879 30.121 23 31.5 23C32.879 23 34 21.879 34 20.5C34 19.122 32.879 18 31.5 18ZM19.212 23.666L17.098 21.677L17.783 20.948L19.257 22.335L22.683 19.519L23.318 20.291L19.212 23.666ZM17 15.269C17 14.57 17.747 14 18.666 14H21.334C22.253 14 23 14.57 23 15.269V17H17V15.269ZM25 18.055V24.946C25 24.976 24.976 25 24.945 25L15 24.946L15.055 18L25 18.055ZM16 17H15.055C14.473 17 14 17.473 14 18.055V24.946C14 25.527 14.473 26 15.055 26H24.945C25.527 26 26 25.527 26 24.946V18.055C26 17.473 25.527 17 24.945 17H24V15.269C24 14.018 22.804 13 21.334 13H18.666C17.196 13 16 14.018 16 15.269V17Z" fill="#8C4FFF"/>
</g>
<rect x="0.5" y="0.5" width="39" height="39" stroke="#8C4FFF"/>
<defs>
<clipPath id="clip0_23310_9467">
<rect width="40" height="40" fill="white"/>
</clipPath>
</defs>
</svg>
