<svg width="24" height="24" viewBox="0 0 24 24" fill="none" xmlns="http://www.w3.org/2000/svg">
<path fill-rule="evenodd" clip-rule="evenodd" d="M14.7111 8.84508C14.7717 8.84508 14.8232 8.8872 14.8413 8.94564L14.8483 8.99214V9.80097C14.8483 9.86591 14.809 9.92106 14.7545 9.94053L14.7111 9.94803H14.162V11.3972C14.162 11.4394 14.1689 11.4811 14.1823 11.5204L14.2071 11.5775L17.9098 18.3984C18.0129 18.5897 18.0276 18.8191 17.954 19.0213L17.9098 19.1198L16.5667 21.6393C16.4636 21.8306 16.2855 21.959 16.0852 21.9917L15.9834 22H8.01656C7.8103 22 7.61751 21.899 7.49086 21.7295L7.4333 21.6393L6.09024 19.1198C5.98711 18.9285 5.97238 18.6991 6.04604 18.4969L6.09024 18.3984L9.78311 11.5775C9.80278 11.541 9.8206 11.5011 9.83029 11.4599L9.83795 11.3972V9.94803H9.28886C9.22824 9.94803 9.17676 9.90586 9.15859 9.84743L9.15159 9.80097V8.99214C9.15159 8.92714 9.19095 8.87202 9.24549 8.85257L9.28886 8.84508H14.7111ZM13.1325 9.94803H10.8675V11.622C10.8675 11.717 10.85 11.8108 10.8163 11.898L10.7773 11.9828L7.23721 18.5909C7.18911 18.6802 7.17949 18.7861 7.20838 18.882L7.23728 18.9517L8.15267 20.6501C8.20077 20.7394 8.28155 20.8012 8.37354 20.8224L8.4443 20.8304L9.572 20.83L8.57528 18.9792C8.52718 18.8899 8.51756 18.7841 8.54642 18.6882L8.57528 18.6185L9.44379 17.0069L15.913 17.006L15.399 16.047L13.0053 16.0472L12.616 15.3249L15.012 15.324L14.292 13.979L11.8745 13.9792L11.4852 13.2569L13.904 13.256L13.2227 11.9828C13.1784 11.9005 13.1498 11.81 13.1382 11.7164L13.1325 11.622V9.94803ZM16.347 17.815L13.9561 17.8157L14.3454 18.551L16.741 18.55L16.347 17.815ZM10.6306 5.77278C11.0025 5.77278 11.3041 6.09587 11.3041 6.49433C11.3041 6.89279 11.0025 7.21581 10.6306 7.21581C10.2587 7.21581 9.95715 6.89279 9.95715 6.49433C9.95715 6.09587 10.2587 5.77278 10.6306 5.77278ZM13.1716 4.22466C13.7295 4.22466 14.1819 4.70915 14.1819 5.30687C14.1819 5.90452 13.7295 6.38908 13.1716 6.38908C12.6137 6.38908 12.1614 5.90452 12.1614 5.30687C12.1614 4.70915 12.6137 4.22466 13.1716 4.22466ZM11.6408 2C12.0127 2 12.3143 2.32309 12.3143 2.72155C12.3143 3.12001 12.0127 3.44302 11.6408 3.44302C11.2689 3.44302 10.9673 3.12001 10.9673 2.72155C10.9673 2.32309 11.2689 2 11.6408 2Z" fill="white"/>
</svg>
