<svg xmlns="http://www.w3.org/2000/svg" xmlns:xlink="http://www.w3.org/1999/xlink" id="Layer_1" x="0" y="0" version="1.1" viewBox="0 0 460 322.1" xml:space="preserve" style="enable-background:new 0 0 460 322.1"><style type="text/css">.st0{fill:#099cec}</style><g id="_x39_7-docker"><g><g><rect width="47.5" height="43.2" x="204" y="52.3" class="st0"/><rect width="47.5" height="42.7" x="204" y="104.1" class="st0"/><rect width="47.5" height="43.2" x="147.9" y="52.3" class="st0"/><rect width="47.5" height="42.7" x="260.2" y="104.1" class="st0"/><rect width="47.5" height="43.6" x="204" class="st0"/><rect width="47.5" height="43.2" x="91.7" y="52.3" class="st0"/><rect width="47.5" height="42.7" x="147.9" y="104.1" class="st0"/><path d="M450.4,124.1c-10.4-7-34.2-9.5-52.5-6c-2.4-17.2-12-32.3-29.5-45.8l-10.1-6.7l-6.7,10.1 c-13.2,20-16.8,52.9-2.7,74.6c-6.3,3.4-18.5,8-34.8,7.7H1.8c-6.3,36.5,4.2,83.9,31.6,116.5C60,306,100,322.1,152.3,322.1 c113.1,0,196.9-52.1,236-146.8c15.4,0.3,48.6,0.1,65.6-32.5c1.1-1.8,4.7-9.5,6.1-12.3L450.4,124.1z" class="st0"/><polygon points="83.2 104.1 83.1 104.1 35.7 104.1 35.7 146.8 83.2 146.8" class="st0"/><rect width="47.5" height="42.7" x="91.7" y="104.1" class="st0"/></g></g></g></svg>