<svg width="40" height="40" viewBox="0 0 40 40" fill="none" xmlns="http://www.w3.org/2000/svg">
<g clip-path="url(#clip0_23311_9585)">
<path d="M40 0H0V40H40V0Z" fill="#DD344C" fill-opacity="0.12"/>
<path fill-rule="evenodd" clip-rule="evenodd" d="M33.131 31.9553L26.133 24.9573C25.98 24.8043 25.943 24.5693 26.041 24.3763C26.986 22.5273 26.671 20.1043 25.309 18.7423C24.29 17.7243 22.885 17.2373 21.454 17.4123C20.022 17.5853 18.758 18.4133 17.988 19.6823C17.086 21.1723 17.126 23.0823 18.091 24.5503C19.445 26.6103 22.068 27.3313 24.185 26.2313C24.38 26.1313 24.615 26.1673 24.769 26.3223L25.963 27.5163C26.066 27.6193 26.118 27.7603 26.109 27.9053L26.02 29.1643L27.4 29.1613C27.532 29.1613 27.66 29.2143 27.754 29.3083L28.352 29.9053C28.444 29.9973 28.496 30.1223 28.498 30.2523L28.515 31.6583L29.746 31.5523C29.895 31.5403 30.038 31.5923 30.143 31.6963L31.24 32.7933L33.001 33.2433L33.131 31.9553ZM34.15 31.8203L33.937 33.9213C33.922 34.0663 33.845 34.1973 33.726 34.2803C33.641 34.3403 33.541 34.3713 33.44 34.3713C33.399 34.3713 33.357 34.3663 33.316 34.3553L30.86 33.7283C30.773 33.7063 30.693 33.6613 30.63 33.5983L29.601 32.5683L28.064 32.7013C27.923 32.7133 27.788 32.6663 27.685 32.5733C27.582 32.4793 27.523 32.3483 27.521 32.2083L27.5 30.4683L27.194 30.1623L25.485 30.1663H25.484C25.345 30.1663 25.213 30.1083 25.118 30.0073C25.024 29.9063 24.975 29.7693 24.985 29.6313L25.095 28.0623L24.312 27.2793C21.797 28.3793 18.821 27.4813 17.255 25.1003C16.079 23.3113 16.031 20.9813 17.133 19.1633C18.064 17.6303 19.595 16.6293 21.334 16.4193C23.071 16.2093 24.778 16.7983 26.016 18.0353C27.816 19.8353 27.914 22.5703 27.088 24.4983L34.006 31.4163C34.112 31.5223 34.165 31.6703 34.15 31.8203ZM22.737 21.2083C22.53 21.0013 22.255 20.8883 21.963 20.8883C21.671 20.8883 21.396 21.0013 21.189 21.2083C20.762 21.6363 20.762 22.3303 21.189 22.7583C21.603 23.1723 22.323 23.1723 22.737 22.7583C23.164 22.3303 23.164 21.6363 22.737 21.2083ZM23.444 20.5013C24.261 21.3183 24.261 22.6483 23.444 23.4653C23.036 23.8733 22.499 24.0783 21.963 24.0783C21.427 24.0783 20.89 23.8733 20.482 23.4653C19.665 22.6483 19.665 21.3183 20.482 20.5013C21.298 19.6853 22.628 19.6843 23.444 20.5013ZM9.662 13.3123C9.662 13.5753 9.678 13.8323 9.709 14.0903C9.712 14.1113 9.713 14.1323 9.713 14.1533C9.713 14.4043 9.527 14.6143 9.286 14.6503C8.035 14.9813 6 15.9683 6 18.8823C6 18.9893 6.006 19.0953 6.011 19.1973C6.146 21.6583 8.498 22.9913 10.644 22.9963H15V23.9963H10.643C7.58 23.9893 5.16 21.9493 5.013 19.2513C5.006 19.1313 5 19.0063 5 18.8823C5 15.4933 7.318 14.2353 8.677 13.7883C8.667 13.6373 8.662 13.4763 8.662 13.3123C8.662 10.5353 10.538 7.65931 13.026 6.62231C15.936 5.39631 19.018 6.00431 21.271 8.24731C21.862 8.82831 22.619 9.69831 23.151 10.7583C23.717 10.2433 24.358 9.99031 25.092 9.99031C26.547 9.99031 28.178 11.2073 28.468 13.8693C31.476 14.5853 33 16.2993 33 18.9693C33 21.8973 31.719 23.5393 29.084 23.9893L28.916 23.0033C30.352 22.7583 32 22.0793 32 18.9693C32 15.9513 29.66 15.1263 27.901 14.7683C27.678 14.7233 27.514 14.5333 27.501 14.3073C27.388 12.3543 26.398 10.9903 25.092 10.9903C24.428 10.9903 23.906 11.2923 23.401 11.9713C23.291 12.1193 23.115 12.1923 22.926 12.1663C22.744 12.1393 22.592 12.0143 22.529 11.8413C22.092 10.6213 21.221 9.60031 20.568 8.95831C18.61 7.00831 15.934 6.48231 13.411 7.54431C11.309 8.42131 9.662 10.9543 9.662 13.3123Z" fill="#DD344C"/>
</g>
<rect x="0.5" y="0.5" width="39" height="39" stroke="#DD344C"/>
<defs>
<clipPath id="clip0_23311_9585">
<rect width="40" height="40" fill="white"/>
</clipPath>
</defs>
</svg>
