<svg width="40" height="40"  viewBox="0 0 40 40" xmlns="http://www.w3.org/2000/svg">  <g id="Icon-Architecture/32/Arch_AWS-Compute-Optimizer_32" stroke="none" stroke-width="1" fill="none" fill-rule="evenodd">  <g id="Icon-Service/32/AWS-Compute-Optimizer_32" transform="translate(6.000000, 6.000000)" fill="#FFFFFF"> <path d="M15.024,17.031549 L15.024,16.027549 C16.802,15.781549 18.155,14.257549 18.155,12.389549 C18.155,10.522549 16.802,8.997549 15.024,8.752549 L15.024,7.747549 C17.361,7.998549 19.155,9.968549 19.155,12.389549 C19.155,14.810549 17.361,16.780549 15.024,17.031549 L15.024,17.031549 Z M16.026,1.605549 L15.024,1.605549 L15.024,0.605548998 L16.554,0.605548998 C16.692,0.605548998 16.823,0.662548998 16.918,0.761548998 C17.012,0.862548998 17.061,0.996548998 17.053,1.133549 L16.972,2.593549 C17.808,2.819549 18.609,3.149549 19.361,3.579549 L20.333,2.487549 C20.423,2.385549 20.553,2.324549 20.691,2.320549 C20.814,2.313549 20.961,2.368549 21.059,2.466549 L24.234,5.633549 C24.331,5.730549 24.384,5.863549 24.38,6.001549 C24.377,6.138549 24.316,6.268549 24.213,6.360549 L23.125,7.333549 C23.556,8.082549 23.889,8.882549 24.117,9.720549 L25.574,9.636549 C25.709,9.635549 25.846,9.677549 25.946,9.771549 C26.046,9.865549 26.103,9.997549 26.103,10.135549 L26.109,14.618549 C26.109,14.756549 26.052,14.887549 25.953,14.982549 C25.853,15.077549 25.717,15.128549 25.581,15.118549 L24.128,15.037549 C23.866,16.011549 23.461,16.937549 22.92,17.794549 L22.075,17.261549 C22.629,16.380549 23.026,15.419549 23.253,14.405549 C23.307,14.167549 23.489,13.997549 23.77,14.015549 L25.108,14.090549 L25.104,10.665549 L23.761,10.742549 C23.514,10.758549 23.298,10.593549 23.245,10.354549 C23.013,9.338549 22.615,8.379549 22.06,7.505549 C21.928,7.298549 21.966,7.027549 22.149,6.864549 L23.153,5.967549 L20.727,3.548549 L19.832,4.553549 C19.67,4.737549 19.401,4.775549 19.192,4.644549 C18.314,4.091549 17.354,3.696549 16.34,3.468549 C16.102,3.414549 15.937,3.196549 15.951,2.952549 L16.026,1.605549 Z M9.608,25.352549 L8.032,24.406549 L11.332,21.931549 L10.732,21.132549 L7.106,23.851549 L4.026,22.003549 L4.026,18.331549 L6.291,16.959549 L5.773,16.104549 L3.48,17.493549 L1.001,16.501549 L1,13.491549 L3.76,11.821549 L3.243,10.965549 L1,12.323549 L1.001,10.485549 L3.503,9.114549 L6.052,10.801549 L6.052,12.262549 L4.757,13.114549 L5.306,13.949549 L6.585,13.109549 L8.013,13.838549 L8.013,15.531549 L9.013,15.531549 L9.013,13.531549 C9.013,13.343549 8.908,13.172549 8.741,13.086549 L7.052,12.225549 L7.052,10.801549 L9.853,8.948549 C9.994,8.856549 10.078,8.699549 10.078,8.531549 L10.078,5.531549 L9.078,5.531549 L9.078,8.262549 L6.552,9.932549 L4.026,8.263549 L4.026,4.399549 L6.011,3.075549 L6.011,5.531549 L7.011,5.531549 L7.011,2.408549 L9.031,1.062549 L13.001,2.654549 L13.001,12.153549 L10.796,10.664549 L10.236,11.493549 L13.001,13.360549 L13.001,14.812549 L8.725,18.137549 L9.338,18.926549 L13.001,16.078549 L13.001,23.782549 L9.608,25.352549 Z M13.687,1.852549 L9.159,0.0365489975 C9.003,-0.0264510025 8.832,-0.00645100248 8.695,0.0845489975 L3.249,3.715549 C3.11,3.808549 3.026,3.964549 3.026,4.131549 L3.026,8.235549 L0.26,9.750549 C0.1,9.838549 0.001,10.006549 0.001,10.189549 L-1.77635684e-15,13.062549 L0.001,16.840549 C0.001,17.044549 0.126,17.228549 0.315,17.304549 L3.026,18.388549 L3.026,22.286549 C3.026,22.462549 3.118,22.624549 3.269,22.715549 L9.321,26.345549 C9.399,26.393549 9.489,26.417549 9.578,26.417549 C9.649,26.417549 9.721,26.402549 9.788,26.370549 L13.711,24.555549 C13.887,24.473549 14.001,24.296549 14.001,24.101549 L14.001,2.316549 C14.001,2.112549 13.877,1.927549 13.687,1.852549 L13.687,1.852549 Z M24.153,24.519549 L17.11,24.519549 C16.983,24.519549 16.885,24.497549 16.819,24.456549 C16.496,24.252549 16.111,23.859549 16.111,23.143549 C16.111,22.256549 16.674,21.925549 17.148,21.803549 C17.378,21.743549 17.536,21.529549 17.522,21.290549 L17.504,20.993549 C17.504,20.211549 18.06,19.338549 18.743,19.049549 C19.057,18.915549 19.348,18.862549 19.612,18.862549 C20.364,18.862549 20.895,19.293549 21.127,19.527549 C21.382,19.783549 21.591,20.128549 21.73,20.524549 C21.792,20.698549 21.945,20.825549 22.128,20.852549 C22.315,20.878549 22.495,20.803549 22.604,20.654549 C22.762,20.441549 23.032,20.349549 23.275,20.430549 C23.56,20.523549 23.723,20.827549 23.725,21.217549 C23.688,21.484549 23.87,21.733549 24.135,21.779549 C24.614,21.861549 25.417,22.150549 25.417,23.159549 C25.417,24.335549 24.343,24.499549 24.153,24.519549 L24.153,24.519549 Z M24.696,20.887549 C24.573,20.085549 24.066,19.637549 23.587,19.480549 C23.184,19.348549 22.756,19.386549 22.392,19.564549 C22.236,19.286549 22.05,19.037549 21.836,18.822549 C20.885,17.865549 19.584,17.607549 18.352,18.128549 C17.315,18.569549 16.529,19.770549 16.505,20.967549 C15.625,21.340549 15.111,22.128549 15.111,23.143549 C15.111,24.376549 15.847,25.025549 16.286,25.302549 C16.515,25.446549 16.793,25.519549 17.11,25.519549 L24.176,25.519549 C24.188,25.519549 24.201,25.518549 24.212,25.517549 C24.975,25.462549 26.417,24.897549 26.417,23.159549 C26.417,21.870549 25.586,21.163549 24.696,20.887549 L24.696,20.887549 Z" id="AWS-Compute-Optimizer_Icon_32_Squid"></path> </g> </g></svg>