<svg width="40" height="40" viewBox="0 0 40 40" fill="none" xmlns="http://www.w3.org/2000/svg">
<g clip-path="url(#clip0_23296_3555)">
<path d="M40 0H0V40H40V0Z" fill="#C925D1" fill-opacity="0.12"/>
<path fill-rule="evenodd" clip-rule="evenodd" d="M17 9.039H19.031V7H17V9.039ZM16 9.539V6.5C16 6.224 16.224 6 16.5 6H19.531C19.808 6 20.031 6.224 20.031 6.5V9.539C20.031 9.815 19.808 10.039 19.531 10.039H16.5C16.224 10.039 16 9.815 16 9.539ZM23 12.039H25.047V10.007H23V12.039ZM22 12.539V9.507C22 9.231 22.224 9.007 22.5 9.007H25.547C25.823 9.007 26.047 9.231 26.047 9.507V12.539C26.047 12.815 25.823 13.039 25.547 13.039H22.5C22.224 13.039 22 12.815 22 12.539ZM16 15.022H18.029V13.039H16V15.022ZM15 15.522V12.539C15 12.263 15.224 12.039 15.5 12.039H18.529C18.806 12.039 19.029 12.263 19.029 12.539V15.522C19.029 15.798 18.806 16.022 18.529 16.022H15.5C15.224 16.022 15 15.798 15 15.522ZM18.53 23.039H28.554V22.039H18.53V23.039ZM10.055 24.039H11.581C11.211 22.98 11 21.847 11 20.665V17.057H10.055C8.342 17.057 7 18.585 7 20.536C7 22.5 8.342 24.039 10.055 24.039ZM10.055 25.039C7.781 25.039 6 23.061 6 20.536C6 18.024 7.781 16.057 10.055 16.057H11V15.539C11 15.263 11.224 15.039 11.5 15.039H14V16.039H12V20.665C12 21.133 12.047 21.589 12.113 22.039H17.025V23.039H12.32C13.391 27.06 17.094 30.039 21.5 30.039C26.772 30.039 31.062 25.834 31.062 20.665V20.021H14.164V19.021H31.062V16.039H20.033V15.039H31.562C31.838 15.039 32.062 15.263 32.062 15.539V20.665C32.062 26.385 27.323 31.039 21.5 31.039C17.293 31.039 13.667 28.577 11.992 25.039H10.055ZM34.033 29.763C34.033 32.464 27.661 34.078 21.5 34.078C15.563 34.078 9.555 32.596 9.555 29.763C9.555 29.007 10.044 27.905 12.374 26.943L12.755 27.868C11.356 28.445 10.555 29.135 10.555 29.763C10.555 31.364 14.953 33.078 21.5 33.078C28.101 33.078 33.033 31.328 33.033 29.763C33.033 29.136 32.231 28.445 30.834 27.867L31.215 26.943C33.544 27.905 34.033 29.007 34.033 29.763Z" fill="#C925D1"/>
</g>
<rect x="0.5" y="0.5" width="39" height="39" stroke="#C925D1"/>
<defs>
<clipPath id="clip0_23296_3555">
<rect width="40" height="40" fill="white"/>
</clipPath>
</defs>
</svg>
