<svg width="90" height="90" viewBox="0 0 90 90" fill="none" xmlns="http://www.w3.org/2000/svg">
<path fill-rule="evenodd" clip-rule="evenodd" d="M24.0461 16.9755H22.1948V7.5C22.1948 6.39543 23.0903 5.5 24.1948 5.5H32.2385V7.35132V9.20263H25.8975V16.9755H24.0461ZM35.9509 7.35132V5.5H52.0382V7.35132V9.20263H35.9509V7.35132ZM55.7507 7.35132V5.5H71.8379V7.35132V9.20263H55.7507V7.35132ZM75.5504 7.35132V5.5H83.594C84.6986 5.5 85.594 6.39543 85.594 7.5V16.9755H83.7427H81.8914V9.20263H75.5504V7.35132ZM83.7427 21.3489H85.594V40.2999H83.7427H81.8914V21.3489H83.7427ZM83.7427 44.6732H85.594V54.1488C85.594 55.2533 84.6986 56.1488 83.594 56.1488H76.2737V52.4461H81.8914V44.6732H83.7427Z" fill="white"/>
<mask id="path-2-inside-1_26091_15973" fill="white">
<rect x="12.8745" y="18.8327" width="63.3992" height="50.6488" rx="2"/>
</mask>
<rect x="12.8745" y="18.8327" width="63.3992" height="50.6488" rx="2" stroke="white" stroke-width="7.40526" stroke-linejoin="round" stroke-dasharray="15.64 3.61" mask="url(#path-2-inside-1_26091_15973)"/>
<rect x="4.40576" y="32.1666" width="63.3992" height="50.6488" rx="3.38711" fill="#326CE5"/>
<path fill-rule="evenodd" clip-rule="evenodd" d="M6.40576 31.9865C5.30119 31.9865 4.40576 32.882 4.40576 33.9865V82.5C4.40576 83.6046 5.30119 84.5 6.40576 84.5H66.0683C67.1729 84.5 68.0683 83.6046 68.0683 82.5V33.9865C68.0683 32.882 67.1729 31.9865 66.0683 31.9865H6.40576ZM52.7494 61.7394L52.2576 61.503C50.9043 60.8526 50.2032 59.3683 50.2032 57.8667C50.2032 56.3652 50.9043 54.8809 52.2576 54.2305L52.7494 53.9941C53.585 53.5235 53.9077 52.5424 53.5767 51.673C52.8404 49.7426 51.4339 47.9718 50.0936 46.4244C49.4813 45.7145 48.414 45.539 47.5867 46.0016L47.1994 46.2172C45.9809 46.8954 44.4887 46.7237 43.284 46.0213C43.1422 45.9387 42.9988 45.8583 42.8538 45.7803C41.5786 45.0937 40.6368 43.84 40.6368 42.3917V42.133C40.6368 41.1998 39.9336 40.4101 38.9821 40.2506C36.8724 39.9076 34.7295 39.9235 32.6942 40.2585C31.751 40.4181 31.0726 41.2157 31.0726 42.133V42.3888C31.0726 43.8423 30.1238 45.0996 28.845 45.7907C28.7032 45.8674 28.5629 45.9463 28.4242 46.0274C27.2203 46.7313 25.7285 46.9034 24.51 46.2251L24.1227 46.0096C23.2871 45.547 22.2281 45.7225 21.6159 46.4324C20.2755 47.9798 18.8607 49.7506 18.1244 51.6809C17.7852 52.5504 18.1575 53.5315 18.9931 53.9941L19.467 54.226C20.8134 54.8848 21.5067 56.3705 21.5062 57.8695C21.5057 59.3724 20.8083 60.8565 19.4567 61.5139L18.9931 61.7394C18.1575 62.21 17.7934 63.1911 18.1244 64.0605C18.8607 65.9829 20.2755 67.7537 21.6159 69.3011C22.2281 70.011 23.2954 70.1865 24.1227 69.7239L24.5126 69.5082C25.7301 68.8346 27.2183 69.0077 28.42 69.709C28.5636 69.7928 28.7088 69.8742 28.8556 69.9532C30.1308 70.6398 31.0726 71.8935 31.0726 73.3418V73.6005C31.0726 74.5337 31.7758 75.3234 32.7273 75.4829C34.8371 75.8339 36.9716 75.818 39.0069 75.4829C39.9501 75.3234 40.6368 74.5258 40.6368 73.6005V73.3527C40.6368 71.8991 41.5857 70.6419 42.8644 69.9507C43.0062 69.8741 43.1465 69.7952 43.2852 69.7141C44.4891 69.0102 45.9809 68.8381 47.1994 69.5163L47.5867 69.7318C48.4223 70.1945 49.4813 70.019 50.0936 69.3091C51.4339 67.7616 52.8818 65.9909 53.6181 64.0605C53.9491 63.1831 53.585 62.202 52.7494 61.7394ZM39.8664 62.3396C40.1105 62.1763 40.33 61.9646 40.5014 61.7261C44.7647 55.7919 38.0062 49.2784 31.8513 53.3939C31.6072 53.5572 31.3877 53.7689 31.2163 54.0074C26.9529 59.9416 33.7115 66.4551 39.8664 62.3396Z" fill="white"/>
</svg>
