<svg width="40" height="40" viewBox="0 0 40 40" fill="none" xmlns="http://www.w3.org/2000/svg">
<g clip-path="url(#clip0_23293_2644)">
<mask id="mask0_23293_2644" style="mask-type:luminance" maskUnits="userSpaceOnUse" x="0" y="0" width="40" height="40">
<path d="M40 0H0V40H40V0Z" fill="white"/>
</mask>
<g mask="url(#mask0_23293_2644)">
<path d="M40 0H0V40H40V0Z" fill="#8C4FFF" fill-opacity="0.12"/>
<path fill-rule="evenodd" clip-rule="evenodd" d="M23.4349 14.4325V15.4436C23.0924 15.4436 22.7679 15.5699 22.5219 15.7995C22.4015 15.9127 22.2302 15.9582 22.0729 15.9188C21.9126 15.8814 21.7812 15.7661 21.7214 15.6104C21.2246 14.3142 19.9362 13.4426 18.5174 13.4426C17.5367 13.4426 16.6037 13.8531 15.9556 14.569C15.4 15.1807 15.0943 15.9643 15.0943 16.7752C15.0943 16.9956 14.9529 17.1958 14.7449 17.2625C13.9015 17.5314 13.2733 18.2251 13.108 19.0734C13.0831 19.2169 13.0672 19.3635 13.0672 19.5182C13.0672 20.8286 14.1624 21.8953 15.5105 21.8953H21.1927V22.9064H15.5105C13.6148 22.9064 12.0715 21.3857 12.0715 19.5182C12.0715 19.3009 12.0924 19.0936 12.1303 18.8873C12.3443 17.7822 13.0911 16.8692 14.1136 16.4233C14.1923 15.483 14.5786 14.5942 15.2238 13.8845C16.0581 12.9613 17.2589 12.4315 18.5174 12.4315C20.1324 12.4315 21.6169 13.3152 22.3845 14.6812C22.7071 14.5184 23.0656 14.4325 23.4349 14.4325ZM33.4532 33.4278C32.7155 34.178 31.5147 34.176 30.7759 33.4288L24.6198 27.1792C25.6373 26.3946 26.5294 25.4543 27.2453 24.3785L33.4552 30.713C34.19 31.4622 34.189 32.6796 33.4532 33.4278ZM6.99566 17.7943C6.99566 11.8481 11.7589 7.01109 17.6143 7.01109C23.4698 7.01109 28.233 11.8481 28.233 17.7943C28.233 23.7405 23.4698 28.5776 17.6143 28.5776C11.7589 28.5776 6.99566 23.7405 6.99566 17.7943ZM34.1612 29.9992L27.778 23.4898C28.7 21.7992 29.2287 19.859 29.2287 17.7943C29.2287 11.291 24.0184 6 17.6143 6C11.2113 6 6 11.291 6 17.7943C6 24.2976 11.2113 29.5887 17.6143 29.5887C19.8854 29.5887 21.9992 28.9143 23.7894 27.7657L30.072 34.1436C30.6355 34.7149 31.3753 35 32.1151 35C32.8539 35 33.5936 34.7149 34.1572 34.1426C35.2793 33.0011 35.2813 31.1427 34.1612 29.9992ZM17.6143 25.8133C13.2603 25.8133 9.71878 22.2158 9.71878 17.7943C9.71878 13.3728 13.2603 9.77641 17.6143 9.77641C21.9683 9.77641 25.5109 13.3728 25.5109 17.7943C25.5109 22.2158 21.9683 25.8133 17.6143 25.8133ZM17.6143 8.76532C12.7107 8.76532 8.72312 12.8157 8.72312 17.7943C8.72312 22.7739 12.7107 26.8244 17.6143 26.8244C22.5179 26.8244 26.5065 22.7739 26.5065 17.7943C26.5065 12.8157 22.5179 8.76532 17.6143 8.76532Z" fill="#8C4FFF"/>
</g>
<path d="M39.5 0.5H0.5V39.5H39.5V0.5Z" stroke="#8C4FFF"/>
</g>
<defs>
<clipPath id="clip0_23293_2644">
<rect width="40" height="40" fill="white"/>
</clipPath>
</defs>
</svg>
