<svg xmlns="http://www.w3.org/2000/svg" width="18" height="18" viewBox="0 0 18 18"><defs><linearGradient id="e5346724-0496-49d2-97aa-409d5dde5658" x1="6.136" y1="0.665" x2="6.274" y2="13.402" gradientUnits="userSpaceOnUse"><stop offset="0" stop-color="#5ea0ef" /><stop offset="1" stop-color="#0078d4" /></linearGradient><linearGradient id="bacccc09-fc2a-4128-950c-4c49db529edc" x1="13.259" y1="5.363" x2="13.259" y2="17.405" gradientUnits="userSpaceOnUse"><stop offset="0.001" stop-color="#ffbd02" /><stop offset="1" stop-color="#ffd400" /></linearGradient></defs><g id="b8a41aff-a2cf-48a6-89f9-ffaa320314bd"><g><path d="M11.579,12.4,9.592,10.425l-.053-.052a1.778,1.778,0,0,1,.052-2.511l.73-.732-.565-.822a.48.48,0,0,1-.084-.272V2.008a.239.239,0,0,1,.239-.239h.224a.479.479,0,0,0,.479-.479V1.074A.478.478,0,0,0,10.135.6H4.827a.479.479,0,0,0-.479.479V1.29a.48.48,0,0,0,.479.479h.224a.24.24,0,0,1,.24.239V6.026a.485.485,0,0,1-.084.271l-4.172,6.08c-.218.318.01.934.4.934H11.579Z" fill="url(#e5346724-0496-49d2-97aa-409d5dde5658)" /><path d="M16.631,10.123a1.356,1.356,0,0,0,.042-1.917l-.042-.042L14.218,5.778A1.355,1.355,0,0,0,12.3,5.743l-.035.035L9.887,8.164a1.354,1.354,0,0,0-.042,1.916l.042.043,2,1.986A.365.365,0,0,1,12,12.38v3.694a.474.474,0,0,0,.135.332l.9.9a.305.305,0,0,0,.431.017l.016-.017.874-.874.516-.515a.191.191,0,0,0,0-.258l-.373-.373a.2.2,0,0,1,0-.277l.373-.373a.191.191,0,0,0,0-.258l-.373-.373a.2.2,0,0,1,0-.277l.373-.373a.184.184,0,0,0,0-.251l-.516-.522v-.19Zm-3.389-2.2a.787.787,0,0,1-.014-1.573h.014a.787.787,0,0,1,0,1.573Z" fill="url(#bacccc09-fc2a-4128-950c-4c49db529edc)" /><path id="a2cd5748-fd2e-4455-acaf-2a9c7fab7a05" d="M12.625,16.128h0A.17.17,0,0,0,12.91,16V13.017a.182.182,0,0,0-.081-.149h0a.17.17,0,0,0-.258.149V16A.166.166,0,0,0,12.625,16.128Z" fill="#faa21d" /><rect id="e31a42b9-ba07-4758-b569-f148ae0eaf90" x="11.337" y="8.957" width="3.911" height="0.461" rx="0.21" fill="#faa21d" /><rect id="b67ac19b-5cb6-4ce5-aea5-460edf7cdf34" x="11.337" y="9.709" width="3.911" height="0.461" rx="0.21" fill="#faa21d" /><path d="M9.638,10.382c-.018-.017-.036-.035-.053-.053a1.7,1.7,0,0,1-.022-2.338l-.7-1.011a.783.783,0,0,1-.137-.442V4.551a.368.368,0,0,0-.368-.368h-1.8a.369.369,0,0,0-.369.368V6.412a1.163,1.163,0,0,1-.2.656l-3.169,4.62a.276.276,0,0,0,.227.432h8.337Z" fill="#fff" /></g></g></svg>