<svg width="40" height="40" viewBox="0 0 40 40" fill="none" xmlns="http://www.w3.org/2000/svg">
<g clip-path="url(#clip0_23300_4299)">
<path d="M40 0H0V40H40V0Z" fill="#01A88D" fill-opacity="0.12"/>
<path fill-rule="evenodd" clip-rule="evenodd" d="M33.935 18.164C33.935 18.329 33.928 18.491 33.914 18.652C33.675 21.477 31.172 23.691 28.216 23.691V22.691C30.657 22.691 32.722 20.879 32.918 18.567C32.93 18.434 32.935 18.299 32.935 18.164C32.935 15.725 31.283 13.885 29.091 13.885C28.815 13.885 28.591 13.662 28.591 13.385C28.591 11.737 27.696 9.976 25.181 9.976H24.747C24.565 9.976 24.397 9.877 24.309 9.718C23.194 7.703 21.083 6.5 18.664 6.5C15.108 6.5 12.214 9.394 12.214 12.951C12.214 13.227 11.991 13.451 11.714 13.451C9.115 13.451 7 15.565 7 18.164C7 18.629 7.128 22.705 11.542 22.705V23.705C7.714 23.705 6 20.922 6 18.164C6 15.177 8.305 12.718 11.23 12.472C11.477 8.585 14.717 5.5 18.664 5.5C21.348 5.5 23.707 6.793 25.035 8.976H25.181C27.698 8.976 29.378 10.503 29.573 12.909C32.091 13.155 33.935 15.332 33.935 18.164ZM27.373 28.197L29.686 30.003L24.6 33.976H15.367L10.281 30.003L12.594 28.197L13.209 28.985L11.906 30.003L15.71 32.976H24.256L28.061 30.003L26.758 28.985L27.373 28.197ZM27.373 23.197L29.686 25.003L24.6 28.976H15.367L10.281 25.003L12.594 23.197L13.209 23.985L11.906 25.003L15.71 27.976H24.256L28.061 25.003L26.758 23.985L27.373 23.197ZM15.697 16.976H24.314L28.153 19.976L24.314 22.976H15.697L11.857 19.976L15.697 16.976ZM24.658 23.976L29.778 19.976L24.658 15.976H15.353L10.232 19.976L15.353 23.976H24.658Z" fill="#01A88D"/>
</g>
<rect x="0.5" y="0.5" width="39" height="39" stroke="#01A88D"/>
<defs>
<clipPath id="clip0_23300_4299">
<rect width="40" height="40" fill="white"/>
</clipPath>
</defs>
</svg>
