<svg width="40" height="40"  viewBox="0 0 40 40" xmlns="http://www.w3.org/2000/svg">  <g id="Icon-Architecture/32/Arch_Amazon-Lightsail-for-Research_32" stroke="none" stroke-width="1" fill="none" fill-rule="evenodd">  <path d="M21.7567235,20.3381742 C22.4057235,19.8651742 22.8337235,19.1681742 22.9587235,18.3751742 C23.0837235,17.5811742 22.8927235,16.7861742 22.4197235,16.1361742 C21.9467235,15.4861742 21.2507235,15.0591742 20.4567235,14.9341742 C20.2977235,14.9091742 20.1397235,14.8971742 19.9817235,14.8971742 C19.3517235,14.8971742 18.7377235,15.0951742 18.2187235,15.4731742 C17.5687235,15.9451742 17.1417235,16.6431742 17.0167235,17.4361742 C16.8907235,18.2301742 17.0817235,19.0251742 17.5547235,19.6741742 C18.0277235,20.3241742 18.7247235,20.7511742 19.5187235,20.8771742 C20.3177235,21.0021742 21.1087235,20.8101742 21.7567235,20.3381742 L21.7567235,20.3381742 Z M22.7207235,20.8131742 L25.0337235,23.9951742 L24.2257235,24.5831742 L21.9177235,21.4091742 C21.3257235,21.7371742 20.6707235,21.9141742 19.9957235,21.9141742 C19.7857235,21.9141742 19.5737235,21.8981742 19.3617235,21.8641742 C18.3047235,21.6971742 17.3757235,21.1291742 16.7457235,20.2621742 C16.1157235,19.3971742 15.8607235,18.3381742 16.0277235,17.2801742 C16.1947235,16.2231742 16.7647235,15.2941742 17.6307235,14.6641742 C18.4957235,14.0341742 19.5527235,13.7771742 20.6127235,13.9461742 C21.6697235,14.1131742 22.5997235,14.6821742 23.2287235,15.5481742 C23.8587235,16.4141742 24.1127235,17.4731742 23.9457235,18.5301742 C23.8057235,19.4201742 23.3677235,20.2071742 22.7207235,20.8131742 L22.7207235,20.8131742 Z M8.99272348,32.9881742 L30.9927235,32.9881742 L30.9927235,30.9881742 L8.99272348,30.9881742 L8.99272348,32.9881742 Z M31.9927235,30.4881742 L31.9927235,33.4881742 C31.9927235,33.7651742 31.7697235,33.9881742 31.4927235,33.9881742 L8.49272348,33.9881742 C8.21672348,33.9881742 7.99272348,33.7651742 7.99272348,33.4881742 L7.99272348,30.4881742 C7.99272348,30.2121742 8.21672348,29.9881742 8.49272348,29.9881742 L9.99272348,29.9881742 L9.99272348,18.9881742 C9.99272348,18.4371742 10.4417235,17.9881742 10.9927235,17.9881742 L14.9927235,17.9881742 L14.9927235,18.9881742 L10.9927235,18.9881742 L10.9927235,29.9881742 L28.9927235,29.9881742 L28.9927235,18.9881742 L24.9927235,18.9881742 L24.9927235,17.9881742 L28.9927235,17.9881742 C29.5447235,17.9881742 29.9927235,18.4371742 29.9927235,18.9881742 L29.9927235,29.9881742 L31.4927235,29.9881742 C31.7697235,29.9881742 31.9927235,30.2121742 31.9927235,30.4881742 L31.9927235,30.4881742 Z M33.992724,18.8551742 L33.9907235,19.1441742 C33.9907235,19.2111742 33.9787235,21.0631742 32.7277235,22.6381742 L31.9447235,22.0161742 C32.9727235,20.7221742 32.9907235,19.1491742 32.9907235,19.1321742 L32.9927235,18.8551742 C32.9937235,15.5821742 30.7607235,14.8141742 29.0807235,14.5211742 L28.8457235,14.4521742 C28.5977235,14.3741742 28.4507235,14.1181742 28.5087235,13.8641742 C28.8057235,12.5581742 28.4217235,11.5651742 27.4547235,11.1391742 C26.4047235,10.6771742 25.0517235,11.0291742 24.4337235,11.9211742 C24.3257235,12.0771742 24.1407235,12.1591742 23.9547235,12.1321742 C23.7687235,12.1071742 23.6117235,11.9791742 23.5507235,11.8011742 C23.1507235,10.6551742 22.5717235,9.69217419 21.8297235,8.93717419 C20.9207235,8.01217419 18.4297235,6.02517419 14.9057235,7.53617419 C12.6657235,8.49917419 11.2747235,10.4161742 11.2747235,12.5401742 L11.3227235,14.0981742 C11.3297235,14.3321742 11.1747235,14.5391742 10.9487235,14.5981742 L10.8237235,14.6301742 C9.17072348,15.0571742 7.29672348,15.5411742 7.00572348,18.6491742 C6.99172348,18.7911742 7.00072348,19.1311742 7.00772348,19.2851742 L6.00772348,19.3251742 C6.00072348,19.1401742 5.99372348,18.7281742 6.00972348,18.5561742 C6.34872348,14.9421742 8.64572348,14.1701742 10.3117235,13.7301742 L10.2747235,12.5551742 C10.2747235,10.0091742 11.8987235,7.74017419 14.5117235,6.61717419 C17.3477235,5.40017419 20.3497235,6.00517419 22.5427235,8.23617419 C23.2187235,8.92317419 23.7747235,9.75717419 24.1987235,10.7201742 C25.1827235,9.92017419 26.6457235,9.68917419 27.8577235,10.2241742 C29.1517235,10.7941742 29.7717235,12.0361742 29.5697235,13.5991742 C32.4857235,14.1851742 33.9937235,15.9571742 33.992724,18.8551742 L33.992724,18.8551742 Z" id="Fill-6" fill="#FFFFFF"></path> </g></svg>