<svg xmlns="http://www.w3.org/2000/svg" role="img" viewBox="-0.34 -1.34 289.44 290.94"><path fill="#c42227" d="M283.678 137.856C281.508 56.688 202.595-7.98 122.864 6.414 42.094 20.996-7.756 94.37 8.488 174.757c15.275 75.58 97.371 125.352 171.32 104.756a119.281 119.281 0 0 0 9.261-3.481l-5.124-25.414s-6.446 2.464-9.805 3.603c-14.928 4.563-30.55 5.092-45.762 2.784-63.7-9.665-108.14-71.163-96.03-132.002 13.277-66.695 75.9-107.005 140.988-90.751 80.552 20.115 112.46 125.032 56.228 184.495-1-3.624-1.659-5.285-2.194-7.67-7.927-35.323-15.866-70.644-23.554-106.019-1.981-9.111-3.912-18.198-15.146-19.393-11.126-1.183-15.45 6.676-18.917 15.617-7.914 20.406-16.43 42.35-25.303 61.972-3.125-5.5-3.5-6.25-5.18-9.032-7.709-12.772-14.685-25.974-22.12-38.909-3.427-5.962-8.43-9.842-15.632-9.09-6.448.675-11.324 4.26-13.23 10.554-7.625 25.18-14.407 50.433-22.204 76.755l26.747-1.157s1.89-7.247 2.972-12.761c2.385-12.152 6.09-24.044 9.875-38.56 8.162 15.573 15.05 28.675 21.898 41.798 4.022 7.708 9.755 13.366 18.953 12.778 9.077-.58 12.778-8.808 15.944-16.02 2.223-5.063 14.627-37.54 21.263-55.893.834 4.333 1.388 5.962 1.904 8.461 8.448 40.893 17.446 81.682 25.067 122.727.799 4.302 2.36 10.961 2.36 10.961a88.615 88.615 0 0 0 10.147-6.13c41.244-30.18 61.84-70.422 60.464-121.88z" data-name="Layer 2"/></svg>