<svg xmlns="http://www.w3.org/2000/svg" role="img" viewBox="-4.21 49.54 439.92 332.67"><style>svg {enable-background:new 0 0 432 432}</style><path fill="#b31aab" d="M109.8 210.6l.6 25.4 26.8 16.6-.6-25.4zm65.4 105.8l-.6-24.9-23.5-14.6c-.3-.2-.7-.5-1-.7l.6 25 24.5 15.2zM91.5 350l-61.3-38-1.5-63.7 30.1-13-.6-25.5-48 20.7c-3.7 1.6-5.9 5-5.8 8.9l1.8 76.5c.1 3.9 2.5 7.8 6.3 10.2L86 371.7c3.4 2.1 7.6 2.7 11 1.6.4-.1.7-.2 1-.4l45.1-19.4-24.5-15.2L91.5 350z"/><path fill="#d163ce" d="M289.6 209.1c-.1-4.6-2.9-9.1-7.3-11.9L193 141.9l-2.8 1.2.6 26.8 70.7 43.8 1.7 71.6 27 16.7 1.5-.6-2.1-92.3zM182.7 334.8l-82.9-51.4-2-86.3 37.8-16.3-.7-29.7-58.7 25.3c-4.3 1.9-6.9 5.8-6.8 10.4L71.7 288c.1 4.6 2.9 9.1 7.3 11.8l97.2 60.3c4 2.5 8.8 3.1 12.9 1.9.4-.1.8-.3 1.2-.5l57.4-24.7-28.6-17.7-36.4 15.7z"/><path fill="#e13eaf" d="M415.9 138.3L291.3 61c-4.6-2.8-10.1-3.6-14.8-2.1-.5.1-.9.3-1.4.5l-121.6 52.4c-4.9 2.1-7.9 6.6-7.8 11.9l3.1 129.6c.1 5.3 3.3 10.4 8.4 13.5L281.8 344c4.6 2.8 10.1 3.6 14.7 2.1.5-.1.9-.3 1.4-.5l121.6-52.4c4.9-2.1 7.9-6.7 7.8-11.9l-3-129.6c-.1-5.1-3.3-10.3-8.4-13.4zM289.3 315.2L181 248.1l-2.7-112.7 105.6-45.5L392.2 157l2.7 112.7-105.6 45.5z"/></svg>