<svg width="40" height="40" viewBox="0 0 40 40" fill="none" xmlns="http://www.w3.org/2000/svg">
<g clip-path="url(#clip0_23311_9683)">
<path d="M40 0H0V40H40V0Z" fill="#7AA116" fill-opacity="0.12"/>
<path fill-rule="evenodd" clip-rule="evenodd" d="M33 25H27V25.5C27 25.776 27.225 26 27.5 26H32.5C32.775 26 33 25.776 33 25.5V25ZM28 24H32V21H28V24ZM34 24.5V25.5C34 26.327 33.327 27 32.5 27H27.5C26.673 27 26 26.327 26 25.5V24.5C26 24.224 26.224 24 26.5 24H27V20.5C27 20.224 27.224 20 27.5 20H32.5C32.776 20 33 20.224 33 20.5V24H33.5C33.776 24 34 24.224 34 24.5ZM17.414 19.773L15.75 19.112C15.2 18.897 14.777 18.695 14.482 18.507C14.188 18.319 13.975 18.109 13.845 17.878C13.715 17.647 13.65 17.344 13.65 16.967C13.65 16.301 13.863 15.787 14.288 15.427C14.713 15.067 15.324 14.887 16.123 14.887C16.941 14.887 17.88 15.081 18.937 15.467V14.645C18.491 14.441 18.018 14.282 17.515 14.169C17.012 14.057 16.532 14 16.076 14C15.07 14 14.26 14.277 13.643 14.831C13.025 15.384 12.718 16.107 12.718 16.999C12.718 17.655 12.904 18.206 13.277 18.652C13.65 19.099 14.236 19.482 15.034 19.805L16.838 20.531C17.46 20.778 17.911 21.058 18.191 21.369C18.471 21.681 18.611 22.057 18.611 22.498C18.611 23.218 18.354 23.788 17.841 24.207C17.328 24.626 16.642 24.836 15.781 24.836C14.868 24.836 13.868 24.632 12.779 24.224V25.046C13.682 25.497 14.708 25.723 15.858 25.723C16.968 25.723 17.861 25.428 18.541 24.836C19.22 24.245 19.56 23.471 19.56 22.514C19.56 21.858 19.389 21.313 19.046 20.877C18.704 20.442 18.16 20.074 17.414 19.773ZM20.077 25.509H21.329L23.417 22.346L22.854 21.52L20.077 25.509ZM6 25.449H6.917V20.257H11.256V19.402H6.917V15.129H12.049V14.274H6V25.449ZM23.496 19.067L21.658 16.346H20.354L22.838 19.976L23.496 19.067ZM26.21 23H25L23.389 20.751L26.383 16.346H27.617L24.629 20.667L26.21 23Z" fill="#7AA116"/>
</g>
<rect x="0.5" y="0.5" width="39" height="39" stroke="#7AA116"/>
<defs>
<clipPath id="clip0_23311_9683">
<rect width="40" height="40" fill="white"/>
</clipPath>
</defs>
</svg>
