<svg version="1.1" id="Layer_1" xmlns="http://www.w3.org/2000/svg" xmlns:xlink="http://www.w3.org/1999/xlink" x="0px" y="0px"
         viewBox="0 0 44 44" style="enable-background:new 0 0 44 44;" xml:space="preserve">
<style type="text/css">
        .st0{fill-rule:evenodd;clip-rule:evenodd;fill:#FFFFFF;}
</style>
<g id="Icon-Architecture_x2F_48_x2F_Arch_x5F_-Amazon-API-Gateway_x5F_48">
        <g id="Icon-Service_x2F_48_x2F_Amazon-API-Gateway_x5F_48" transform="translate(8.000000, 8.000000)">
                <path id="Amazon-API-Gateway_Icon_48_Squid" class="st0" d="M10,26h3v-2h-3V26z M15,26h3v-2h-3V26z M10,4h3V2h-3V4z M15,4h3V2h-3
                        V4z M4-5.3L-6,0.6v27.8l10,5V-5.3z M6,2h2v2H6v20h2v2H6v9c0,0.3-0.2,0.7-0.5,0.9C5.4,36,5.2,36,5,36c-0.2,0-0.3,0-0.4-0.1l-12-6
                        C-7.8,29.7-8,29.4-8,29V0c0-0.4,0.2-0.7,0.5-0.9l12-7c0.3-0.2,0.7-0.2,1,0C5.8-7.7,6-7.4,6-7V2z M34,0.6L24-5.3v38.6l10-5V0.6z
                         M36,0v29c0,0.4-0.2,0.7-0.6,0.9l-12,6C23.3,36,23.2,36,23,36c-0.2,0-0.4,0-0.5-0.1C22.2,35.7,22,35.3,22,35v-9h-2v-2h2V4h-2V2h2
                        v-9c0-0.4,0.2-0.7,0.5-0.9c0.3-0.2,0.7-0.2,1,0l12,7C35.8-0.7,36-0.4,36,0L36,0z M16.9,9.3l-1.9-0.7l-4,11l1.9,0.7L16.9,9.3z
                         M21.7,14.7c0.4-0.4,0.4-1,0-1.4l-3-3l-1.4,1.4l2.3,2.3l-2.3,2.3l1.4,1.4L21.7,14.7z M9.3,17.7l-3-3c-0.4-0.4-0.4-1,0-1.4l3-3
                        l1.4,1.4L8.4,14l2.3,2.3L9.3,17.7z"/>
        </g>
</g>
</svg>
