<svg xmlns="http://www.w3.org/2000/svg" width="120" height="60"><path d="M111.446 18.73l-7.46 10.37 7.84 12.17h-8.1l-3.76-6.64-4.76 6.64h-8.2l9.03-12.2-6.92-10.34h8.27l2.67 4.78 3.1-4.78zm-32.38 0h6.77zm3.4 24.44a4.23 4.23 0 1 1-3.023 1.221 4.23 4.23 0 0 1 3.023-1.221zM70.686 32.3l6.9 9h-8.52l-4.3-6.73v6.73h-6.76V18.73h8.86a8.48 8.48 0 0 1 6.16 2.14 6.83 6.83 0 0 1 1.88 5 6.39 6.39 0 0 1-4.21 6.42zm-1.84-6a2.34 2.34 0 0 0-.6-1.73c-.8-.8-2.34-.9-3.5-.92v5.3c2.9-.07 4.1-.84 4.1-2.7zm-17.82 14.97h-6.73V24.62h-5.14v-5.9h17v5.9h-5.14zm-20.45-22.54h6.76v22.54h-6.76V21.84zm3.38-10.36a4.24 4.24 0 1 1-4.24 4.19 4.24 4.24 0 0 1 4.24-4.19zm-5.44 13.47l-3.56 5.72a5.89 5.89 0 0 0-5-2.73 5 5 0 0 0-4.88 5.18 5 5 0 0 0 4.92 5.14 5.89 5.89 0 0 0 5-2.73l3.56 5.76a11.82 11.82 0 1 1-.04-16.34z"/><path d="M85.836 41.27h-6.76V18.73h6.76z"/></svg>