<?xml version="1.0" encoding="iso-8859-1"?>
<!-- Generator: Adobe Illustrator 21.1.0, SVG Export Plug-In . SVG Version: 6.00 Build 0)  -->
<svg version="1.1" id="Layer_1" xmlns="http://www.w3.org/2000/svg" xmlns:xlink="http://www.w3.org/1999/xlink" x="0px" y="0px"
	 viewBox="0 0 143.998 144" style="enable-background:new 0 0 143.998 144;" xml:space="preserve">
<g id="black">
	<g id="Ciricle_copy_10">
		<path d="M143.998,72c0,39.765-32.235,72-72,72c-39.764,0-72-32.235-72-72s32.236-72,72-72C111.763,0,143.998,32.235,143.998,72"/>
	</g>
	<g id="Logo_symbol_copy_10">
		<g>
			<path style="fill:#FFFFFF;" d="M45.467,59.027c2.135,0,3.872-1.734,3.872-3.866s-1.737-3.865-3.872-3.865
				c-2.135,0-3.87,1.733-3.87,3.865S43.333,59.027,45.467,59.027"/>
			<rect x="42.37" y="60.692" style="fill:#FFFFFF;" width="6.24" height="22.624"/>
			<path style="fill:#FFFFFF;" d="M95.823,84.938c-2.135,0-3.87,1.734-3.87,3.866c0,2.132,1.736,3.865,3.87,3.865
				c2.135,0,3.872-1.733,3.872-3.865C99.695,86.672,97.958,84.938,95.823,84.938"/>
			<rect x="92.679" y="60.692" style="fill:#FFFFFF;" width="6.24" height="22.624"/>
			<path style="fill:#FFFFFF;" d="M36.067,74.983l-0.197,0.252c-0.676,0.865-1.475,1.518-2.313,1.888
				c-0.908,0.398-1.835,0.6-2.766,0.6c-1.667,0-3.05-0.526-4.108-1.563c-1.056-1.036-1.592-2.387-1.592-4.014
				c0-1.751,0.529-3.182,1.575-4.252c1.043-1.07,2.431-1.613,4.126-1.613c0.956,0,1.892,0.202,2.78,0.597
				c0.986,0.438,1.693,1.019,2.292,1.881l0.204,0.296l3.417-5.197l-0.154-0.14c-1.788-1.619-3.725-2.676-5.753-3.149
				c-1.003-0.232-2.148-0.351-3.403-0.351c-3.298,0-6.078,1.134-8.268,3.369c-2.183,2.237-3.29,5.077-3.29,8.445
				s1.104,6.199,3.286,8.416c2.183,2.216,4.965,3.34,8.272,3.34c1.345,0,2.453-0.12,3.386-0.359c1.027-0.268,3.665-1.146,5.884-3.54
				l0.135-0.148L36.067,74.983z"/>
			<polygon style="fill:#FFFFFF;" points="51.224,60.692 51.224,66.252 57.164,66.252 57.164,83.316 63.424,83.316 63.424,66.252 
				69.336,66.252 69.336,60.692 			"/>
			<path style="fill:#FFFFFF;" d="M84.229,74.395c1.491-0.38,2.653-1.097,3.466-2.135c0.872-1.116,1.315-2.567,1.315-4.315
				c0-2.497-0.765-4.354-2.276-5.518c-1.492-1.151-4.094-1.736-7.731-1.736h-7.007v22.624h6.259V75.36l4.7,7.956h7.395
				L84.229,74.395z M81.727,70.619c-0.556,0.425-1.454,0.64-2.666,0.64h-0.805v-5.392h0.906c1.246,0,2.131,0.217,2.632,0.65
				c0.493,0.423,0.741,1.151,0.741,2.16C82.535,69.57,82.271,70.204,81.727,70.619z"/>
			<polygon style="fill:#FFFFFF;" points="112.017,76.16 116.674,83.315 123.882,83.315 115.866,71.36 123.11,60.692 
				115.885,60.692 112.026,66.625 108.149,60.692 100.924,60.692 108.171,71.36 100.155,83.315 107.361,83.315 			"/>
			<path style="fill:#FFFFFF;" d="M126.681,60.644c-1.523,0-2.762,1.234-2.762,2.752c0,1.519,1.238,2.756,2.762,2.756
				c1.519,0,2.756-1.237,2.756-2.756C129.438,61.879,128.201,60.644,126.681,60.644z M126.681,65.693
				c-1.27,0-2.303-1.03-2.303-2.297c0-1.265,1.033-2.293,2.303-2.293c1.267,0,2.3,1.027,2.3,2.293
				C128.981,64.663,127.948,65.693,126.681,65.693z"/>
			<path style="fill:#FFFFFF;" d="M127.31,63.614c0.571-0.125,0.658-0.591,0.658-0.864c0-0.785-0.629-0.902-1.003-0.902h-1.392
				v3.062h0.487v-1.26h0.688l0.787,1.237l0.014,0.023h0.587L127.31,63.614z M126.06,63.215v-0.931h0.844
				c0.4,0,0.577,0.144,0.577,0.466s-0.177,0.465-0.577,0.465H126.06z"/>
		</g>
	</g>
</g>
<g id="Layer_1_1_">
</g>
</svg>
