<svg xmlns="http://www.w3.org/2000/svg" xmlns:xlink="http://www.w3.org/1999/xlink" id="Layer_1" x="0" y="0" enable-background="new 0 0 174 201" version="1.1" viewBox="0 0 174 201" xml:space="preserve"><style type="text/css">svg{fill:rgba(255,255,255,.7)}.st12,.st13{fill:none;stroke:rgba(255,255,255,.7);stroke-miterlimit:10}.st13{stroke-width:.5}</style><title>octarine</title><g id="Layer_2_1_"><g id="Layer_2-2"><path d="M169.2,126.7c0,0,0,0.1,0,0.2c-2.4,6.9-5.5,13.6-9.3,19.9c5.3-25.1,1.9-62.2-27.2-88.9l-0.1-0.1 c-0.3-0.3-0.5-0.5-0.8-0.8c1.4,1.2,2.8,2.5,4.2,3.8c0.6,0.6,1.3,1.2,1.9,1.8c13.1,13,25.9,30.6,30.3,46.8l0.3,1.1 c0.1,0.4,0.2,0.7,0.2,1.1s0.1,0.7,0.2,1.1c1.2,5,1.2,10.2,0,15.3C169,127.4,169.1,127.1,169.2,126.7L169.2,126.7z" class="st0"/><path d="M132.7,57.9c29.1,26.7,32.5,63.8,27.2,88.9c-4.9,8.1-10.7,15.6-17.4,22.4C154.7,147.6,162.2,88.1,132.7,57.9 L132.7,57.9z" class="st1"/><path d="M132.7,57.9c29.4,30.3,22,89.8,9.8,111.3c-8.9,9.2-19.3,16.9-30.7,22.8c26.2-26.9,47.2-107,17.6-136.9 c1.1,0.9,2.1,1.8,3.1,2.7L132.7,57.9z" class="st2"/><path d="M120.8,48.5c3,2,5.9,4.2,8.7,6.5c29.5,29.9,8.6,110-17.6,136.9c-18.9,9.5-38.7,11.9-54.1,2.8 c-26.1-15.4-46.6-75-52.2-97.8c7,7.3,15.2,13.2,24.3,17.6l1.2,0.6c12.2,5.7,25.6,8.4,39,7.7c21.8-0.5,43.1-10.7,54.1-21.8 c0.4-0.4,0.8-0.8,1.2-1.2C137.3,87.7,141.7,63.8,120.8,48.5L120.8,48.5z" class="st3"/><path d="M102.6,18.4c0.1,0,0.2,0.1,0.2,0.1l-0.7-0.3C102.4,18.3,102.5,18.4,102.6,18.4z" class="st4"/><path d="M122.8,102.2c-49.7,41.9-109-14-122.2-35.6c-0.3-7.4,0.2-14.8,1.5-22c12.9,22.7,71.7,99.6,121.5,57 C123.3,101.8,123,102,122.8,102.2L122.8,102.2z" class="st5"/><path d="M83.2,103.2c25.6,15.5,42.1-3.9,42.1-3.2l-1.1,1l-0.7,0.6C73.8,144.2,15,67.3,2.1,44.6 C5,29.1,12.4,14.4,27.6,5.8C52.9-8.6,85,10.1,102.2,18.3c-0.5-0.2-1.1-0.5-1.7-0.8c-8.5-3.9-17.4-6.8-26.5-8.7l-0.8-0.2 c-6.6-1.2-13-1.5-18.5-0.3l-0.5,0.1c-4.8,1.1-8.5,3.2-10.7,6.5c-0.1,0.1-0.2,0.3-0.3,0.4c-1.6,2.2-2.7,4.7-3.3,7.4l-0.1,0.3 c-0.1,0.5-0.2,0.9-0.3,1.4c-1,3.5-1.1,8.1-0.3,13.2c1.3,7.9,3.8,15.5,7.4,22.7c0.2,0.4,0.4,0.7,0.6,1.1c5,10.1,11.4,19.4,19,27.6 c0.4,0.4,0.8,0.9,1.2,1.3c0.2,0.2,0.4,0.4,0.6,0.6c1.5,1.5,3.1,3,4.7,4.4c0.3,0.3,0.6,0.6,0.9,0.8 C76.6,98.8,79.8,101.1,83.2,103.2z" class="st6"/><path d="M82.2,50.1c-11,8-21.8,34.6,1,53.1c-35.9-27.1-18.4-78.3,1.2-91.7c5.5,1.7,10.9,3.7,16.2,6 c0.6,0.2,1.1,0.5,1.7,0.8l0.7,0.3c28,14,58.4,37.5,67.1,64.4c6.8,21,1.9,35.9-0.8,43.7c0.9-4.7,0.8-9.6-0.3-14.2 c-0.1-0.3-0.1-0.7-0.2-1.1s-0.2-0.7-0.2-1.1l-0.3-1.1c-4-15-15.3-32.3-30.3-46.8c-0.6-0.6-1.3-1.2-1.9-1.8c-1.6-1.5-3.2-3-4.8-4.3 c-1.4-1.3-2.8-2.6-4.3-3.7c-1.9-1.6-4-3-6.2-4.2l-0.1,0C112.3,43.6,97.9,39,82.2,50.1L82.2,50.1z" class="st4"/><path d="M0.6,66.6c13.1,21.6,72.5,77.5,122.2,35.6C73.2,144.6,16.2,103.6,2.1,82C1.3,76.9,0.8,71.8,0.6,66.6z" class="st7"/><path d="M84.4,11.5c-19.6,13.4-37.1,64.7-1.2,91.7c-0.6-0.5-1.3-1-1.9-1.4c-35-27-32.7-75.4-15.1-93.9 c2.3,0.2,4.7,0.5,7,0.9L74,8.9C77.5,9.5,81,10.4,84.4,11.5z" class="st8"/><path d="M81.3,101.7c0.6,0.5,1.3,1,1.9,1.4c-3.3-2.1-6.5-4.5-9.5-7.1c-0.3-0.2-0.6-0.5-0.9-0.8 c-0.8-0.7-1.6-1.4-2.3-2.2s-1.5-1.4-2.3-2.2c-0.2-0.2-0.4-0.4-0.6-0.6L66.2,89c-7.6-8.3-14-17.5-19.1-27.6 c-0.2-0.4-0.4-0.7-0.6-1.1c-3.6-7.2-6.1-14.8-7.4-22.7c-0.7-4.4-0.6-8.9,0.3-13.2c0-0.1,0.1-0.2,0.1-0.4c0.1-0.3,0.1-0.7,0.2-1 l0.1-0.3c0.7-2.6,1.8-5.1,3.3-7.4c2.5-3.3,6-5.7,10.1-6.7C40,32.9,44.3,73.7,81.3,101.7z" class="st9"/><path d="M123.6,101.5l0.7-0.6l1.1-1c-0.4,0.4-0.8,0.8-1.2,1.2c-6.5,6.3-23.6,18.8-48.4,21.3 c-1.4,0.2-3.4,0.3-5.8,0.4h-2.9c-12.4,0-24.7-2.7-36-7.8l-1.2-0.6c-9-4.5-17.2-10.4-24.3-17.6C4,92.1,2.9,87.1,2.1,82 c14.1,21.6,71.1,62.7,120.7,20.3C123,102,123.3,101.8,123.6,101.5z" class="st10"/><path d="M66.2,7.8c-17.6,18.5-19.9,66.9,15.1,93.9c-37-28-41.2-68.8-28-93l1-0.3l0.5-0.1C58.5,7.6,62.4,7.4,66.2,7.8 L66.2,7.8z" class="st11"/><path d="M73.7,96.1c3,2.7,6.1,5,9.5,7.1c25.6,15.5,42.1-3.9,42.1-3.2 M68.1,90.9c0.8,0.8,1.6,1.5,2.3,2.2 s1.6,1.5,2.3,2.2 M47.2,61.4c5.1,10,11.5,19.3,19.1,27.6l1.2,1.3 M39.8,23.1c-0.1,0.5-0.2,0.9-0.3,1.4c-0.9,4.4-1,8.8-0.3,13.2 c1.3,7.9,3.8,15.5,7.4,22.7 M54.2,8.5c-4.8,1.1-8.5,3.2-10.7,6.5c-0.1,0.1-0.2,0.3-0.3,0.4c-1.5,2.3-2.6,4.7-3.3,7.4 M73.2,8.7 c-2.3-0.4-4.7-0.7-7-0.9c-3.8-0.3-7.7-0.2-11.5,0.6 M100.6,17.5c-8.5-3.9-17.4-6.8-26.5-8.7 M102.9,18.6l-0.7-0.3" class="st12"/><path d="M2.1,44.6C5,29.1,12.4,14.4,27.6,5.8C52.9-8.6,85,10.1,102.2,18.3 M29.8,114.6c-9-4.5-17.2-10.5-24.3-17.6 C4,92.1,2.9,87.1,2.1,82c-0.8-5.1-1.3-10.2-1.5-15.3c-0.3-7.4,0.2-14.8,1.5-22 M124.1,101.2c-6.5,6.3-23.6,18.8-48.4,21.3 c-1.4,0.2-3.4,0.3-5.8,0.4c-13.4,0.6-26.8-2-39-7.7" class="st12"/><path d="M122.8,102.2C73.2,144.6,16.2,103.6,2.1,82 M124.3,100.9l-0.7,0.6c-0.3,0.2-0.5,0.5-0.8,0.7 c-49.7,41.9-109-14-122.2-35.6" class="st13"/><path d="M2.1,44.6L2.1,44.6" class="st12"/><path d="M125.3,100l-1.1,1l-0.7,0.6C73.8,144.2,15,67.3,2.1,44.6" class="st13"/><path d="M168.5,110.4c0.1,0.4,0.2,0.7,0.2,1.1s0.1,0.7,0.2,1.1c1.2,5,1.2,10.2,0,15.3c0.1-0.3,0.2-0.7,0.4-1 c2.6-7.8,7.5-22.7,0.8-43.7c-8.7-26.9-39.1-50.4-67.1-64.4c-0.1,0-0.2-0.1-0.2-0.1c-0.1-0.1-0.3-0.1-0.4-0.2 c-0.5-0.2-1.1-0.5-1.7-0.8c-5.3-2.3-10.7-4.3-16.2-6c-3.4-1.1-6.8-2-10.3-2.6l-0.8-0.2c-6.6-1.2-13-1.5-18.5-0.3l-0.5,0.1l-1,0.3 c-4,1-7.6,3.4-10.1,6.7c-1.6,2.2-2.7,4.7-3.3,7.4l-0.1,0.3c-0.1,0.3-0.2,0.6-0.2,1c0,0.1-0.1,0.2-0.1,0.4c-1,3.5-1.1,8.1-0.3,13.2 c1.4,7.9,3.9,15.5,7.4,22.7c0.2,0.4,0.4,0.7,0.6,1.1c5,10.1,11.4,19.3,19,27.5c0.4,0.4,0.8,0.9,1.2,1.3c0.2,0.2,0.4,0.4,0.6,0.6 c1.5,1.5,3.1,3,4.7,4.4c0.3,0.3,0.6,0.6,0.9,0.8c3,2.6,6.2,5,9.5,7.1c-22.9-18.5-12.1-45.1-1-53.1c15.7-11.1,30.2-6.5,38.4-1.7 M137.9,62.5c15,14.5,26.3,31.7,30.3,46.8" class="st12"/><path d="M125.5,51.8c0.1,0.1,0.2,0.2,0.3,0.3c1.2,0.9,2.4,1.9,3.6,2.8c0.8,0.7,1.6,1.3,2.4,2 c1.4,1.2,2.8,2.5,4.2,3.8 M122,49.3c1.2,0.8,2.3,1.5,3.1,2.2" class="st12"/><path d="M81.3,101.7c-37-28-41.2-68.8-28-93 M83.2,103.2c-0.6-0.5-1.3-1-1.9-1.4c-35-27-32.7-75.4-15.1-93.9 M83.2,103.2c-35.9-27.1-18.4-78.3,1.2-91.7" class="st13"/><path d="M129,54.5c-1.2-1-2.4-1.9-3.5-2.7l-0.4-0.3c-1.4-1-2.8-2-4.1-2.8 M120.7,48.5c21,15.3,16.6,39.3,4.7,51.5 c-0.4,0.4-0.8,0.8-1.2,1.2c-11.1,11.1-32.4,21.2-54.1,21.8h-2.9c-12.4,0-24.7-2.7-36-7.8l-1.2-0.6c-9.1-4.4-17.3-10.4-24.3-17.6 c5.7,22.8,26.2,82.4,52.2,97.8c15.4,9.1,35.2,6.7,54.1-2.8c11.4-5.9,21.8-13.6,30.7-22.8c6.6-6.8,12.5-14.3,17.4-22.4 c3.8-6.3,6.9-12.9,9.3-19.9c0,0,0-0.1,0-0.2c0.9-4.7,0.8-9.6-0.3-14.2c-0.1-0.3-0.1-0.7-0.2-1.1s-0.2-0.7-0.2-1.1l-0.3-1.1 c-4.4-16.2-17.1-33.8-30.3-46.8c-0.6-0.6-1.3-1.2-1.9-1.8c-1.6-1.5-3.2-3-4.8-4.3c-0.7-0.6-1.5-1.2-2.2-1.8" class="st12"/><path d="M132.7,57.9c29.1,26.7,32.5,63.8,27.2,88.9 M120.8,48.5c3,2,5.9,4.2,8.7,6.5c1.1,0.9,2.1,1.8,3.1,2.7" class="st13"/><path d="M122,49.3c1.7,1,3.4,2.2,5,3.4c1.5,1.2,2.9,2.4,4.3,3.7c0.2,0.2,0.4,0.4,0.6,0.6s0.6,0.5,0.8,0.8l0.1,0.1 c29.4,30.2,22,89.8,9.8,111.3" class="st13"/><path d="M120.8,48.5c0.1,0,0.1,0.1,0.2,0.1c0.3,0.2,0.7,0.4,1,0.6" class="st12"/><path d="M120.7,48.5L120.7,48.5 M120.6,48.4L120.6,48.4c2.3,1.2,4.4,2.6,6.3,4.2c0.7,0.6,1.4,1.2,2.1,1.8l0.1,0 l0.4,0.4c0,0,0.1,0.1,0.1,0.1c29.5,29.9,8.6,110-17.7,136.9" class="st13"/></g></g></svg>