<svg xmlns="http://www.w3.org/2000/svg" xmlns:xlink="http://www.w3.org/1999/xlink" id="Layer_1" x="0" y="0" enable-background="new 0 0 163.1 127.1" version="1.1" viewBox="0 0 163.1 127.1" xml:space="preserve"><g><path d="M81.6,126.5c-20.3,0-40.6-0.1-61,0c-4.8,0-7.9-2-10.1-6.2C3.1,106.5-0.4,91.8,0.7,76.1c1.2-16.9,7-32.1,17.8-45.2 c13.2-16.2,30-26.2,50.8-29.4c17.5-2.7,34.1,0.1,49.8,8.3c12.9,6.7,23.1,16.4,31,28.6c6.5,10.2,10.5,21.3,12,33.3 c2,16.2-0.8,31.6-8.1,46.2c-0.5,1-1.1,2.1-1.6,3.1c-2,3.7-4.9,5.6-9.3,5.6C122.5,126.5,102.1,126.5,81.6,126.5z M81.5,113 c19.2,0,38.3,0,57.5,0c1.4,0,2.4-0.1,3.2-1.7c4.1-8.7,6.5-17.8,6.8-27.4c0.3-9.5-1.3-18.7-4.8-27.5c-5.3-13.2-13.9-23.7-25.7-31.4 c-12.9-8.3-27-12-42.5-10.7c-11.7,1-22.4,4.5-31.9,11.1c-18.8,12.9-28.7,31-29.9,53.7c-0.6,11.1,2,21.6,6.6,31.7 c0.8,1.7,1.8,2.2,3.6,2.2C43.4,113,62.4,113,81.5,113z"/><path d="M81.5,99.5c-4.5,0-9-0.1-13.5,0c-1.5,0-2.2-0.5-2.9-1.8c-4.8-9.9,1.6-22.6,12.4-24.7c2.4-0.5,4.7-0.8,7.1-0.1 c1.6,0.5,2.5-0.6,3.3-1.7c5.4-6.9,10.7-13.8,16-20.7c1.1-1.4,2.2-2.7,3.2-4.1c2.7-3.5,6.7-4.2,10-1.7c3,2.2,3.3,6.7,0.7,10 c-2.5,3.2-5,6.4-7.6,9.6c-4.1,5.3-8.2,10.7-12.5,15.9c-0.9,1.1-0.7,1.8-0.2,2.9c2.3,4.8,2.3,9.6,0.2,14.4c-0.6,1.4-1.4,2-3,2 C90.5,99.4,86,99.5,81.5,99.5z"/></g></svg>