<?xml version="1.0" encoding="UTF-8"?>
<svg width="25px" height="25px" viewBox="0 0 25 25" version="1.1" xmlns="http://www.w3.org/2000/svg" xmlns:xlink="http://www.w3.org/1999/xlink">
    <!-- Generator: Sketch 58 (84663) - https://sketch.com -->
    <title>Group</title>
    <desc>Created with Sketch.</desc>
    <g id="Page-1" stroke="none" stroke-width="1" fill="none" fill-rule="evenodd">
        <g id="z" transform="translate(-111.000000, -91.000000)" fill="#FFFFFF">
            <g id="Group" transform="translate(111.000000, 91.000000)">
                <path d="M1.20967742,0 L23.7903226,0 C24.458409,0 25,0.541591028 25,1.20967742 L25,23.7903226 C25,24.458409 24.458409,25 23.7903226,25 L1.20967742,25 C0.541591028,25 0,24.458409 0,23.7903226 L0,1.20967742 C0,0.541591028 0.541591028,0 1.20967742,0 Z M1.41129032,1.41129032 L1.41129032,23.5887097 L23.5887097,23.5887097 L23.5887097,1.41129032 L1.41129032,1.41129032 Z" id="Rectangle" fill-rule="nonzero"></path>
                <polygon id="Line" fill-rule="nonzero" points="11.2384067 0.0488938296 9.82711964 0.051794747 9.88054489 24.0015098 11.291832 23.9986089"></polygon>
                <path d="M14.9060587,7.08056766 L14.9244206,7.06151739 C15.1937292,6.79220881 15.6265618,6.78608816 15.9033033,7.04315544 L15.9223536,7.06151739 L20.8407374,11.9799013 C20.9812184,12.1203822 21.0500849,12.3053586 21.047337,12.4894646 C21.0499301,12.66385 20.9882581,12.8390297 20.8623219,12.9764239 L20.8407374,12.9989665 L15.9223536,17.9173503 C15.646782,18.1929219 15.1999922,18.1929219 14.9244206,17.9173503 C14.655112,17.6480418 14.6489914,17.2152091 14.9060587,16.9384677 L14.9244206,16.9194174 L19.3543347,12.4894153 L14.9244206,8.05945035 C14.655112,7.79014176 14.6489914,7.35730916 14.9060587,7.08056766 L14.9244206,7.06151739 L14.9060587,7.08056766 Z" id="Combined-Shape" fill-rule="nonzero" transform="translate(17.882579, 12.489434) scale(-1, 1) translate(-17.882579, -12.489434) "></path>
                <rect id="Rectangle" x="4" y="5" width="3" height="3" rx="1"></rect>
                <rect id="Rectangle" x="4" y="11" width="3" height="3" rx="1"></rect>
                <rect id="Rectangle" x="4" y="17" width="3" height="3" rx="1"></rect>
            </g>
        </g>
    </g>
</svg>