<svg width="40" height="40" viewBox="0 0 40 40" fill="none" xmlns="http://www.w3.org/2000/svg">
<g clip-path="url(#clip0_23299_4156)">
<path d="M40 0H0V40H40V0Z" fill="#E7157B" fill-opacity="0.12"/>
<path fill-rule="evenodd" clip-rule="evenodd" d="M24 26.9992H29V27.9993H24V28.9994H23V27.9993H21V26.9992H23V25.9991H24V26.9992ZM28 21.9986H29V22.9987H28V23.9988H27V22.9987H21V21.9986H27V20.9985H28V21.9986ZM10.357 22.9987H15V23.9988H10.357C9.826 23.9988 9.276 23.9988 8.71 23.6458C7.698 23.0187 6 21.5495 6 18.7642C6 15.3878 8.33 14.1486 9.689 13.7146L9.663 13.2765C9.662 10.4942 11.538 7.64388 14.026 6.61575C16.934 5.40261 20.014 6.00468 22.269 8.22194C22.97 8.90903 23.546 9.74712 23.987 10.7202C24.883 9.98615 26.102 9.74012 27.232 10.1182C28.63 10.5842 29.502 11.8624 29.612 13.5726C31.243 13.8466 34 14.4327 34 17.9981H33C33 15.3588 31.309 14.8657 29.266 14.5287L29.028 14.4897C28.893 14.4667 28.771 14.3887 28.695 14.2727C28.619 14.1576 28.594 14.0166 28.626 13.8816C28.624 12.4784 28.001 11.4293 26.916 11.0663C25.927 10.7382 24.843 11.0803 24.213 11.9194C24.104 12.0664 23.927 12.1384 23.739 12.1134C23.558 12.0864 23.406 11.9614 23.344 11.7894C22.928 10.6432 22.331 9.68412 21.568 8.93503C19.609 7.0088 16.934 6.48774 14.41 7.53886C12.308 8.40797 10.662 10.9143 10.662 13.2465L10.712 14.0546C10.727 14.2957 10.567 14.5117 10.334 14.5707C9.089 14.8797 7 15.8368 7 18.7642C7 20.9505 8.217 22.1636 9.238 22.7967C9.547 22.9887 9.864 22.9987 10.357 22.9987ZM33 26.1591L32.118 26.1091C31.887 26.1011 31.656 26.2591 31.602 26.4981C31.434 27.2472 31.14 27.9573 30.729 28.6084C30.598 28.8154 30.636 29.0854 30.818 29.2484L31.478 29.8355L29.836 31.4767L29.251 30.8206C29.088 30.6376 28.817 30.5996 28.61 30.7296C27.96 31.1417 27.249 31.4367 26.498 31.6057C26.26 31.6597 26.095 31.8777 26.109 32.1228L26.16 32.9999H23.84L23.891 32.1218C23.905 31.8777 23.74 31.6597 23.502 31.6047C22.753 31.4357 22.042 31.1417 21.39 30.7286C21.184 30.6006 20.913 30.6366 20.75 30.8196L20.164 31.4767L18.522 29.8365L19.181 29.2494C19.363 29.0874 19.401 28.8164 19.271 28.6094C18.86 27.9613 18.566 27.2502 18.396 26.4981C18.343 26.2601 18.151 26.1031 17.881 26.1091L17 26.1591V23.8388L17.884 23.8888C18.155 23.8948 18.346 23.7378 18.399 23.4998C18.569 22.7517 18.863 22.0426 19.274 21.3925C19.405 21.1865 19.367 20.9154 19.185 20.7524L18.522 20.1624L20.164 18.5212L20.754 19.1832C20.916 19.3643 21.187 19.4013 21.394 19.2723C22.045 18.8622 22.754 18.5682 23.502 18.4002C23.74 18.3461 23.904 18.1271 23.891 17.8831L23.84 16.998H26.16L26.109 17.8841C26.096 18.1281 26.26 18.3471 26.498 18.4011C27.246 18.5702 27.955 18.8642 28.605 19.2743C28.812 19.4043 29.084 19.3673 29.245 19.1842L29.836 18.5212L31.478 20.1624L30.816 20.7514C30.634 20.9144 30.596 21.1855 30.727 21.3925C31.138 22.0406 31.432 22.7497 31.602 23.4998C31.655 23.7378 31.847 23.9048 32.117 23.8888L33 23.8388V26.1591ZM33.472 22.8107L32.472 22.8677C32.309 22.2936 32.08 21.7435 31.79 21.2235L32.538 20.5554C32.641 20.4644 32.701 20.3344 32.705 20.1964C32.709 20.0593 32.656 19.9263 32.559 19.8293L30.169 17.439C30.072 17.342 29.946 17.292 29.801 17.293C29.664 17.297 29.534 17.357 29.442 17.46L28.772 18.2111C28.253 17.9211 27.703 17.6931 27.131 17.531L27.188 16.5269C27.196 16.3889 27.147 16.2549 27.053 16.1549C26.959 16.0549 26.827 15.9979 26.689 15.9979H23.311C23.173 15.9979 23.041 16.0549 22.947 16.1549C22.853 16.2549 22.804 16.3889 22.812 16.5269L22.869 17.529C22.297 17.6921 21.747 17.9191 21.227 18.2091L20.558 17.46C20.466 17.357 20.336 17.297 20.199 17.293C20.063 17.295 19.928 17.343 19.831 17.439L17.441 19.8293C17.344 19.9263 17.291 20.0593 17.295 20.1964C17.299 20.3344 17.359 20.4634 17.462 20.5554L18.211 21.2245C17.921 21.7455 17.693 22.2946 17.53 22.8677L16.528 22.8107C16.394 22.8077 16.257 22.8517 16.156 22.9457C16.057 23.0407 16 23.1717 16 23.3097V26.6881C16 26.8261 16.057 26.9572 16.156 27.0522C16.257 27.1462 16.394 27.1972 16.528 27.1872L17.526 27.1302C17.689 27.7063 17.918 28.2573 18.207 28.7774L17.462 29.4425C17.359 29.5335 17.299 29.6635 17.295 29.8015C17.291 29.9385 17.344 30.0715 17.441 30.1685L19.831 32.5588C19.928 32.6558 20.06 32.7018 20.199 32.7048C20.337 32.7008 20.466 32.6408 20.558 32.5378L21.222 31.7917C21.744 32.0838 22.296 32.3118 22.869 32.4758L22.812 33.4709C22.804 33.608 22.853 33.743 22.947 33.843C23.041 33.943 23.173 34 23.311 34H26.689C26.827 34 26.959 33.943 27.053 33.843C27.147 33.743 27.196 33.608 27.188 33.4709L27.131 32.4768C27.706 32.3128 28.258 32.0838 28.779 31.7927L29.442 32.5378C29.534 32.6408 29.663 32.7008 29.801 32.7048C29.95 32.7058 30.072 32.6558 30.169 32.5588L32.559 30.1685C32.656 30.0715 32.709 29.9385 32.705 29.8015C32.701 29.6635 32.641 29.5335 32.538 29.4425L31.791 28.7764C32.082 28.2543 32.31 27.7043 32.473 27.1302L33.472 27.1872C33.606 27.1972 33.743 27.1462 33.844 27.0522C33.943 26.9572 34 26.8261 34 26.6881V23.3097C34 23.1717 33.943 23.0407 33.844 22.9457C33.743 22.8517 33.606 22.8077 33.472 22.8107Z" fill="#E7157B"/>
</g>
<rect x="0.5" y="0.5" width="39" height="39" stroke="#E7157B"/>
<defs>
<clipPath id="clip0_23299_4156">
<rect width="40" height="40" fill="white"/>
</clipPath>
</defs>
</svg>
