<svg id="Layer_1" data-name="Layer 1" xmlns="http://www.w3.org/2000/svg" viewBox="0 0 300 300"><defs><style>.cls-1{fill:#fff;}</style></defs><path class="cls-1" d="M76.48263,103.73116v31.34008H224.93675a26.46864,26.46864,0,0,1,26.43878,26.43945v38.1769a26.46851,26.46851,0,0,1-26.4388,26.43879H4v11.92916A30.78477,30.78477,0,0,0,34.69457,268.75H263.30542A30.78478,30.78478,0,0,0,294,238.05554V103.73116Z"/><path class="cls-1" d="M221.51806,196.26885V164.92871H73.06389A26.46915,26.46915,0,0,1,46.6251,138.48924V100.31248A26.469,26.469,0,0,1,73.06389,73.87369H294V61.94456A30.78479,30.78479,0,0,0,263.30542,31.25H34.69457A30.78477,30.78477,0,0,0,4,61.9445V196.26885Z"/></svg>
