<svg width="90" height="90" viewBox="0 0 90 90" fill="none" xmlns="http://www.w3.org/2000/svg">
<path fill-rule="evenodd" clip-rule="evenodd" d="M4.73193 7.5C4.73193 6.39543 5.62736 5.5 6.73193 5.5H73.17C74.2745 5.5 75.17 6.39543 75.17 7.5V18.2296L57.5626 33.5889L57.5634 33.5897L55.3004 41.4861H54.4781C53.3261 41.4861 52.4807 42.1063 51.9387 42.7064C51.4039 43.2984 51.0137 44.0277 50.7254 44.6702C50.4295 45.3295 50.1908 46.014 50.0026 46.5752C49.9696 46.6738 49.9387 46.7664 49.9099 46.8533C49.5653 46.4767 49.2224 46.0459 48.8671 45.5995L48.8636 45.5952C48.7905 45.5033 48.7168 45.4108 48.6426 45.3179C48.4298 45.0521 48.2025 44.7727 47.9872 44.5358C47.8104 44.3411 47.4956 44.0065 47.1068 43.785C45.3983 42.8117 43.6905 42.643 42.107 43.1779C40.6049 43.6852 39.4107 44.7591 38.4876 45.8952C36.7004 48.095 35.4947 51.0803 34.821 52.9C33.2401 50.6379 30.9889 48.4717 28.3995 46.9294C25.7701 45.3632 22.6697 44.3712 19.5014 44.7301L17.7543 44.9281L18.1501 48.4224L19.8973 48.2245C22.0844 47.9767 24.4144 48.649 26.5999 49.9508C28.7808 51.2497 30.696 53.1067 32.0046 55.0099C32.0973 55.1447 32.1867 55.2827 32.292 55.4453L32.2921 55.4455L32.3578 55.5468C32.4857 55.7439 32.6348 55.9713 32.7994 56.1987C33.1272 56.6514 33.5687 57.1798 34.1871 57.6065C34.5953 57.8883 35.1961 58.1064 35.8839 57.9446C36.5072 57.798 36.8989 57.4069 37.1029 57.1502C37.4861 56.6683 37.6784 56.0629 37.7788 55.707C37.897 55.2882 37.9796 54.8587 38.0348 54.5531C38.0518 54.4596 38.0633 54.3939 38.0733 54.3371L38.0734 54.3365C38.0832 54.2808 38.0915 54.2337 38.1018 54.1772L38.1056 54.1573C38.7701 52.3599 39.8144 49.8391 41.217 48.1128C41.9249 47.2415 42.6077 46.7206 43.2323 46.5096C43.7593 46.3317 44.4043 46.3164 45.2836 46.7948C45.3045 46.8153 45.3378 46.8493 45.3844 46.9006C45.5183 47.048 45.6851 47.2507 45.8969 47.5153C45.9581 47.5918 46.0228 47.6732 46.0905 47.7583L46.092 47.7602L46.0921 47.7603C46.4617 48.2253 46.9198 48.8016 47.3809 49.2984C47.659 49.5979 47.9732 49.9078 48.3105 50.174C48.6333 50.4289 49.0696 50.7183 49.593 50.8736C50.1615 51.0423 50.8887 51.0622 51.5865 50.6589C52.2306 50.2867 52.5997 49.695 52.819 49.172C52.9527 48.8529 53.1003 48.4069 53.2376 47.9921C53.2714 47.8898 53.3047 47.7894 53.3369 47.6932C53.5187 47.151 53.7125 46.6032 53.9339 46.1099C53.9705 46.0282 54.0067 45.9508 54.0424 45.8776L66.3684 42.3667L66.3679 42.3662L75.17 34.688V82.5C75.17 83.6046 74.2745 84.5 73.17 84.5H6.73193C5.62736 84.5 4.73193 83.6046 4.73193 82.5V7.5ZM49.5525 47.8613C49.5525 47.8612 49.5538 47.8586 49.5568 47.8538C49.5541 47.8591 49.5526 47.8615 49.5525 47.8613Z" fill="#326CE5"/>
<path fill-rule="evenodd" clip-rule="evenodd" d="M79.7476 17.5238L59.3191 35.344L64.6019 40.6107L84.9254 22.8821C85.3622 22.5011 85.3846 21.8296 84.9741 21.4204L81.111 17.5692C80.739 17.1983 80.1435 17.1785 79.7476 17.5238ZM59.316 35.344L64.5988 40.6106L56.6746 43.244L59.316 35.344Z" fill="#326CE5"/>
</svg>
