<svg width="24" height="24" viewBox="0 0 24 24" fill="none" xmlns="http://www.w3.org/2000/svg">
<path d="M16.791 6.375C17.0137 6.37685 17.2266 6.46696 17.3829 6.62556C17.5393 6.78416 17.6263 6.9983 17.625 7.221V17.64C17.6328 17.7398 17.6186 17.8401 17.5835 17.9338C17.5483 18.0276 17.493 18.1125 17.4215 18.1825C17.35 18.2526 17.2641 18.3061 17.1696 18.3394C17.0752 18.3726 16.9746 18.3848 16.875 18.375H4.68802L2.25002 20.812V7.221C2.24868 6.9983 2.33574 6.78416 2.49209 6.62556C2.64844 6.46696 2.86131 6.37685 3.08402 6.375H16.791Z" fill="white"/>
<path d="M15.188 11.4385H12.375V16.3135H15.188V11.4385Z" fill="#4285F4"/>
<path d="M11.438 8.625H8.625V16.313H11.438V8.625Z" fill="#4285F4"/>
<path d="M7.688 10.125H4.875V16.313H7.688V10.125Z" fill="#4285F4"/>
<path d="M20.916 3.18848C21.1309 3.18978 21.3371 3.27349 21.4921 3.42233C21.6471 3.57118 21.739 3.77382 21.749 3.98848V17.6255L19.499 15.3755H18.749V6.07548C18.7485 5.85738 18.6614 5.64841 18.5069 5.49447C18.3524 5.34053 18.1431 5.25421 17.925 5.25448H6.37501V4.03348C6.37373 3.81666 6.45622 3.60773 6.60528 3.45028C6.75435 3.29284 6.95846 3.19904 7.17502 3.18848H20.916Z" fill="#DDDDDD"/>
</svg>
