<svg data-name="fluent_icons" xmlns="http://www.w3.org/2000/svg" width="18" height="18" viewBox="0 0 18 18"><defs><radialGradient id="a" cx="9" cy="9" r="8.5" gradientUnits="userSpaceOnUse"><stop offset=".18" stop-color="#5ea0ef"/><stop offset="1" stop-color="#0078d4"/></radialGradient><clipPath id="b"><path data-name="Path 1237" d="M14.21 15.72A8.5 8.5 0 013.79 2.28l.09-.06a8.5 8.5 0 0110.33 13.5" fill="none"/></clipPath></defs><path data-name="Path 1237" d="M14.21 15.72A8.5 8.5 0 013.79 2.28l.09-.06a8.5 8.5 0 0110.33 13.5" fill="url(#a)"/><g clip-path="url(#b)"><path d="M4.13 7.05a.28.28 0 00.2.48h6.12A1.55 1.55 0 0111.6 8a1.61 1.61 0 01.43.92 1.43 1.43 0 01-.36 1.15 1.41 1.41 0 01-1.12.54H8.44a.08.08 0 00-.09.06L7.81 12c-.12.29-.25.59-.37.89a.08.08 0 000 .09L9 14.48l2.59 2.59.46.49 2.14-1.19-.47-.37-1.43-1.44L10.74 13h-.07l.52-.07A3.84 3.84 0 0014 10.65a3.85 3.85 0 000-3.08 3.93 3.93 0 00-.73-1.12 3.67 3.67 0 00-1.24-.89 4 4 0 00-1.66-.34h-3V4.05A.14.14 0 007.18 4z" fill="#f2f2f2"/></g></svg>