<svg width="40" height="40" viewBox="0 0 40 40" xmlns="http://www.w3.org/2000/svg">  <g id="Icon-Architecture/32/Arch_Amazon-File-Cache_32" stroke="none" stroke-width="1" fill="none" fill-rule="evenodd">  <path d="M21.5,21.5 L21.5,21.499 L22,21.5 L21.5,21.5 Z M21.5,20.5 C20.948,20.5 20.5,20.949 20.5,21.5 C20.5,22.051 20.948,22.5 21.5,22.5 C22.052,22.5 22.5,22.051 22.5,21.5 C22.5,20.949 22.052,20.5 21.5,20.5 L21.5,20.5 Z M26,26.293 L24.854,25.146 C24.739,25.033 24.58,24.979 24.42,25.006 C24.262,25.032 24.125,25.133 24.053,25.276 L23.191,27 L19.809,27 L18.947,25.276 C18.875,25.133 18.738,25.032 18.58,25.006 C18.421,24.979 18.261,25.033 18.146,25.146 L17,26.293 L17,23.741 L18.812,22.296 C18.931,22.201 19,22.057 19,21.905 C19,18.394 20.751,16.057 21.5,15.218 C22.249,16.057 24,18.394 24,21.905 C24,22.057 24.069,22.201 24.188,22.296 L26,23.741 L26,26.293 Z M24.997,21.662 C24.9,16.906 21.959,14.239 21.832,14.126 C21.643,13.958 21.357,13.958 21.168,14.126 C21.041,14.239 18.1,16.906 18.003,21.662 L16.188,23.109 C16.069,23.204 16,23.348 16,23.5 L16,27.5 C16,27.702 16.122,27.885 16.309,27.962 C16.494,28.04 16.71,27.997 16.854,27.854 L18.363,26.344 L19.053,27.724 C19.138,27.893 19.311,28 19.5,28 L23.5,28 C23.689,28 23.862,27.893 23.947,27.724 L24.637,26.344 L26.146,27.854 C26.242,27.949 26.37,28 26.5,28 C26.564,28 26.63,27.988 26.691,27.962 C26.878,27.885 27,27.702 27,27.5 L27,23.5 C27,23.348 26.931,23.204 26.812,23.109 L24.997,21.662 Z M24,33 L25,33 L25,30 L24,30 L24,33 Z M18,33 L19,33 L19,30 L18,30 L18,33 Z M21,34 L22,34 L22,29 L21,29 L21,34 Z M31,11 L9.5,11 C9.224,11 9,11.224 9,11.5 L9,27 C9,27.551 8.552,28 8,28 C7.448,28 7,27.551 7,27 L7,7 L13.293,7 L15.146,8.854 C15.24,8.947 15.367,9 15.5,9 L31,9 L31,11 Z M33.5,11 L32,11 L32,8.5 C32,8.224 31.776,8 31.5,8 L15.707,8 L13.854,6.146 C13.76,6.053 13.633,6 13.5,6 L6.5,6 C6.224,6 6,6.224 6,6.5 L6,27 C6,28.103 6.897,29 8,29 L14,29 L14,28 L9.722,28 C9.894,27.705 10,27.366 10,27 L10,12 L33,12 L33,28 L29,28 L29,29 L33.5,29 C33.776,29 34,28.776 34,28.5 L34,11.5 C34,11.224 33.776,11 33.5,11 L33.5,11 Z" id="Fill-5" fill="#FFFFFF"></path> </g></svg>