<svg width="40" height="40" viewBox="0 0 40 40" fill="none" xmlns="http://www.w3.org/2000/svg">
<g clip-path="url(#clip0_23298_3991)">
<path d="M40 0H0V40H40V0Z" fill="#01A88D" fill-opacity="0.12"/>
<path fill-rule="evenodd" clip-rule="evenodd" d="M29.5 27.0127H24V28.0109H29.5C30.879 28.0109 32 29.1309 32 30.5064C32 31.8819 30.879 33.0018 29.5 33.0018H9.5C8.121 33.0018 7 31.8819 7 30.5064C7 29.1309 8.121 28.0109 9.5 28.0109H14.992V27.0127H9.5C7.57 27.0127 6 28.5799 6 30.5064C6 32.4329 7.57 34 9.5 34H29.5C31.43 34 33 32.4329 33 30.5064C33 28.5799 31.43 27.0127 29.5 27.0127ZM11.5 13.0382C12.327 13.0382 13 12.3664 13 11.5409C13 10.7154 12.327 10.0436 11.5 10.0436C10.673 10.0436 10 10.7154 10 11.5409C10 12.3664 10.673 13.0382 11.5 13.0382ZM17 18.5282V31.0055H16V18.9374L11.402 18.0191C11.168 17.9722 11 17.7676 11 17.53V13.9855C9.86 13.7539 9 12.7457 9 11.5409C9 10.1654 10.121 9.04545 11.5 9.04545C12.879 9.04545 14 10.1654 14 11.5409C14 12.7457 13.14 13.7539 12 13.9855V17.1207L16.598 18.0391C16.832 18.086 17 18.2906 17 18.5282ZM21.1 8.49545C21.1 7.66996 20.427 6.99818 19.6 6.99818C18.772 6.99818 18.1 7.66996 18.1 8.49545C18.1 9.32095 18.772 9.99273 19.6 9.99273C20.427 9.99273 21.1 9.32095 21.1 8.49545ZM20 10.95V28.0109H19V10.9101C17.911 10.6405 17.1 9.66433 17.1 8.49545C17.1 7.11896 18.221 6 19.6 6C20.979 6 22.1 7.11896 22.1 8.49545C22.1 9.7342 21.187 10.7573 20 10.95ZM29 16.5318C29 15.7063 28.327 15.0345 27.5 15.0345C26.673 15.0345 26 15.7063 26 16.5318C26 17.3573 26.673 18.0291 27.5 18.0291C28.327 18.0291 29 17.3573 29 16.5318ZM30 16.5318C30 17.9073 28.879 19.0273 27.5 19.0273C26.292 19.0273 25.283 18.1688 25.051 17.0309H23V31.0055H22V16.5318C22 16.2563 22.224 16.0327 22.5 16.0327H25.051C25.283 14.8948 26.292 14.0364 27.5 14.0364C28.879 14.0364 30 15.1563 30 16.5318ZM25 31.0055H27V30.0073H25V31.0055ZM28 31.0055H30V30.0073H28V31.0055Z" fill="#01A88D"/>
</g>
<rect x="0.5" y="0.5" width="39" height="39" stroke="#01A88D"/>
<defs>
<clipPath id="clip0_23298_3991">
<rect width="40" height="40" fill="white"/>
</clipPath>
</defs>
</svg>
