<svg width="40" height="40" viewBox="0 0 40 40" fill="none" xmlns="http://www.w3.org/2000/svg">
<g clip-path="url(#clip0_23293_2710)">
<path d="M40 0H0V40H40V0Z" fill="#8C4FFF" fill-opacity="0.12"/>
<path fill-rule="evenodd" clip-rule="evenodd" d="M23 26C20.794 26 19 24.206 19 22C19 19.794 20.794 18 23 18C25.206 18 27 19.794 27 22C27 24.206 25.206 26 23 26ZM23 17C20.243 17 18 19.243 18 22C18 24.757 20.243 27 23 27C25.757 27 28 24.757 28 22C28 19.243 25.757 17 23 17ZM32.284 30.308C31.974 30.652 31.438 30.68 31.093 30.371L27.624 27.241C28.046 26.869 28.424 26.449 28.746 25.986L32.221 29.116C32.565 29.428 32.594 29.963 32.284 30.308ZM17 22C17 18.691 19.691 16 23 16C26.309 16 29 18.691 29 22C29 25.309 26.309 28 23 28C19.691 28 17 25.309 17 22ZM29.264 25.106C29.73 24.168 30 23.116 30 22C30 18.14 26.859 15 23 15C19.141 15 16 18.14 16 22C16 25.86 19.141 29 23 29C24.408 29 25.718 28.578 26.817 27.86L30.424 31.114C30.775 31.43 31.216 31.585 31.656 31.585C32.16 31.585 32.663 31.38 33.027 30.977C33.705 30.223 33.644 29.055 32.892 28.374L29.264 25.106ZM34 9.5V26H33V10H29V15H28V9.5C28 9.224 28.224 9 28.5 9H33.5C33.776 9 34 9.224 34 9.5ZM26 32H27V33.5C27 33.776 26.776 34 26.5 34H21.5C21.224 34 21 33.776 21 33.5V31H22V33H26V32ZM22 13H21V6.5C21 6.224 21.224 6 21.5 6H26.5C26.776 6 27 6.224 27 6.5V13H26V7H22V13ZM19 30H20V33.5C20 33.776 19.776 34 19.5 34H14.5C14.224 34 14 33.776 14 33.5V26H15V33H19V30ZM15 16H14V10.5C14 10.224 14.224 10 14.5 10H19.5C19.776 10 20 10.224 20 10.5V13H19V11H15V16ZM8 33H12V16H8V33ZM12.5 15H7.5C7.224 15 7 15.224 7 15.5V33.5C7 33.776 7.224 34 7.5 34H12.5C12.776 34 13 33.776 13 33.5V15.5C13 15.224 12.776 15 12.5 15Z" fill="#8C4FFF"/>
</g>
<rect x="0.5" y="0.5" width="39" height="39" stroke="#8C4FFF"/>
<defs>
<clipPath id="clip0_23293_2710">
<rect width="40" height="40" fill="white"/>
</clipPath>
</defs>
</svg>
