<svg width="24px" height="24px" viewBox="0 0 24 24" fill="none" xmlns="http://www.w3.org/2000/svg">
<g clip-path="url(#clip0_24132_24398)">
<mask id="mask0_24132_24398" style="mask-type:luminance" maskUnits="userSpaceOnUse" x="1" y="6" width="22" height="15">
<path fill-rule="evenodd" clip-rule="evenodd" d="M18.4001 11.5002C20.7001 11.7002 22.5001 13.5002 22.5001 15.8002C22.5001 18.2002 20.5001 20.1002 18.1001 20.1002H6.8001C3.9001 20.1002 1.6001 17.8002 1.6001 14.9002C1.6001 12.2002 3.6001 10.0002 6.3001 9.8002C7.3001 7.7002 9.5001 6.2002 12.0001 6.2002C15.2001 6.2002 17.8001 8.5002 18.4001 11.5002ZM18.1001 18.3002C19.6001 18.3002 20.7001 17.1002 20.7001 15.7002C20.7001 14.3002 19.5001 13.1002 18.1001 13.1002H16.8001V12.7002C16.8001 10.1002 14.7001 8.0002 12.0001 8.0002C9.8001 8.0002 7.9001 9.4002 7.4001 11.4002H6.8001C4.8001 11.4002 3.2001 13.0002 3.2001 14.9002C3.2001 16.8002 4.8001 18.3002 6.7001 18.3002H18.1001Z" fill="white"/>
</mask>
<g mask="url(#mask0_24132_24398)">
<path fill-rule="evenodd" clip-rule="evenodd" d="M0 25H24V1H0V25Z" fill="white"/>
</g>
</g>
<defs>
<clipPath id="clip0_24132_24398">
<rect width="24" height="24" fill="white"/>
</clipPath>
</defs>
</svg>
