<svg id="图层_1" data-name="图层 1" xmlns="http://www.w3.org/2000/svg" viewBox="0 0 122.5 122.5"><defs><style>.cls-1{fill:#fff;}</style></defs><title>KubeVela </title><path class="cls-1" d="M32.05,96.24a11.58,11.58,0,0,0,10,5.79,11.34,11.34,0,0,0,5.62-1.47,6,6,0,0,1,5.89,0A11.33,11.33,0,0,0,59.19,102a11.52,11.52,0,0,0,5.27-1.27,6.17,6.17,0,0,1,5.7,0,11.55,11.55,0,0,0,15.28-4.52Z"/><path class="cls-1" d="M91.52,76.27,91.38,74C90,51.79,81.7,30.91,68.07,15.23h0v60Z"/><path class="cls-1" d="M64.86,75.05V27.8A79.26,79.26,0,0,0,42,74Z"/><path class="cls-1" d="M43.87,78.38,42,74,20.35,73l6,14.12h0a10.16,10.16,0,0,0,8.79,5.08A10,10,0,0,0,40,91a7.32,7.32,0,0,1,7.17,0,10,10,0,0,0,9.78,0,7.3,7.3,0,0,1,7.17,0,10,10,0,0,0,9.78,0,7.32,7.32,0,0,1,7.17,0A10,10,0,0,0,86,92.23a10.16,10.16,0,0,0,8.79-5.08l2.46-5L46,79.84A2.38,2.38,0,0,1,43.87,78.38Z"/></svg>