<svg width="40" height="40" viewBox="0 0 40 40" fill="none" xmlns="http://www.w3.org/2000/svg">
<g clip-path="url(#clip0_23295_3305)">
<path d="M40 0H0V40H40V0Z" fill="#ED7100" fill-opacity="0.12"/>
<path fill-rule="evenodd" clip-rule="evenodd" d="M15.78 21.4493L16.768 22.0782L16.231 22.9223L15.053 22.1722C14.392 22.7992 13.684 23.4053 12.903 23.9743L20 28.4102L27.096 23.9743C26.315 23.4053 25.607 22.7992 24.946 22.1722L23.768 22.9223L23.231 22.0782L24.219 21.4493C23.699 20.9013 23.22 20.3322 22.785 19.7432L20.277 21.4163C20.193 21.4723 20.096 21.5002 20 21.5002C19.903 21.5002 19.806 21.4723 19.722 21.4163L17.215 19.7432C16.779 20.3322 16.301 20.9013 15.78 21.4493ZM17.784 18.9222L20 20.3993L22.216 18.9222C21.191 17.3502 20.441 15.6523 20 13.8203C19.558 15.6523 18.808 17.3502 17.784 18.9222ZM10.665 18.6283C12.451 17.0203 14.5 14.8142 14.5 12.0002H15.5C15.5 13.5712 16.046 14.7873 16.927 16.2413L16.072 16.7592C15.616 16.0082 15.251 15.3092 14.982 14.5942C14.303 16.3242 13.052 17.7622 11.817 18.9272L14.924 20.9043C17.96 17.7703 19.5 13.9392 19.5 9.46525C19.5 9.18825 19.723 8.96525 20 8.96525C20.276 8.96525 20.5 9.18825 20.5 9.46525C20.5 13.9392 22.04 17.7703 25.076 20.9043L28.182 18.9272C26.947 17.7622 25.696 16.3232 25.017 14.5942C24.749 15.3092 24.384 16.0072 23.927 16.7592L23.072 16.2413C23.954 14.7873 24.5 13.5712 24.5 12.0002H25.5C25.5 14.8142 27.549 17.0203 29.335 18.6283C29.451 18.7333 29.511 18.8863 29.498 19.0413C29.485 19.1973 29.4 19.3382 29.268 19.4222L25.81 21.6222C26.557 22.3132 27.379 22.9702 28.282 23.5872C28.421 23.6822 28.503 23.8413 28.5 24.0103C28.496 24.1783 28.408 24.3342 28.264 24.4242L20.264 29.4242C20.183 29.4742 20.092 29.5002 20 29.5002C19.908 29.5002 19.816 29.4742 19.735 29.4242L11.735 24.4242C11.592 24.3342 11.504 24.1783 11.5 24.0103C11.497 23.8413 11.579 23.6822 11.718 23.5872C12.621 22.9702 13.442 22.3132 14.189 21.6222L10.731 19.4222C10.599 19.3382 10.514 19.1973 10.502 19.0413C10.488 18.8863 10.549 18.7333 10.665 18.6283ZM20 7.57425L22.039 8.72725L22.531 7.85725L20.246 6.56525C20.093 6.47825 19.906 6.47825 19.754 6.56525L17.468 7.85725L17.961 8.72725L20 7.57425ZM31.746 13.0652L29.509 11.8012L29.017 12.6712L31 13.7913V26.2083L20 32.4263L9 26.2083V13.7913L10.982 12.6712L10.49 11.8012L8.254 13.0652C8.096 13.1532 8 13.3202 8 13.5002V26.5002C8 26.6802 8.096 26.8462 8.254 26.9352L19.754 33.4352C19.83 33.4782 19.915 33.5002 20 33.5002C20.085 33.5002 20.17 33.4782 20.246 33.4352L31.746 26.9352C31.903 26.8462 32 26.6802 32 26.5002V13.5002C32 13.3202 31.903 13.1532 31.746 13.0652ZM27.245 10.5202L24.756 9.11425L24.263 9.98425L26.753 11.3903L27.245 10.5202ZM15.736 9.98425L15.244 9.11425L12.755 10.5202L13.247 11.3903L15.736 9.98425ZM19.722 24.9163L18.222 23.9163L18.777 23.0842L20 23.8993L21.222 23.0842L21.777 23.9163L20.277 24.9163C20.193 24.9723 20.096 25.0002 20 25.0002C19.903 25.0002 19.806 24.9723 19.722 24.9163Z" fill="#ED7100"/>
</g>
<rect x="0.5" y="0.5" width="39" height="39" stroke="#ED7100"/>
<defs>
<clipPath id="clip0_23295_3305">
<rect width="40" height="40" fill="white"/>
</clipPath>
</defs>
</svg>
