<svg width="40" height="40" viewBox="0 0 40 40" fill="none" xmlns="http://www.w3.org/2000/svg">
<g clip-path="url(#clip0_23293_2715)">
<path d="M40 0H0V40H40V0Z" fill="#8C4FFF" fill-opacity="0.12"/>
<path fill-rule="evenodd" clip-rule="evenodd" d="M32.9993 13C32.9993 12.449 32.551 12 31.9987 12C31.4463 12 30.998 12.449 30.998 13C30.998 13.551 31.4463 14 31.9987 14C32.551 14 32.9993 13.551 32.9993 13ZM21.5097 24C21.5097 23.448 21.0604 23 20.509 23C19.9566 23 19.5083 23.448 19.5083 24C19.5083 24.551 19.9566 25 20.509 25C21.0604 25 21.5097 24.551 21.5097 24ZM20.509 17C21.0604 17 21.5097 16.551 21.5097 16C21.5097 15.448 21.0604 15 20.509 15C19.9566 15 19.5083 15.448 19.5083 16C19.5083 16.551 19.9566 17 20.509 17ZM10.002 27C10.002 26.448 9.5527 26 9.00133 26C8.44897 26 8.00067 26.448 8.00067 27C8.00067 27.551 8.44897 28 9.00133 28C9.5527 28 10.002 27.551 10.002 27ZM34 13C34 14.103 33.1024 15 31.9987 15C31.6234 15 31.2752 14.89 30.975 14.709L22.049 22.738C22.3322 23.083 22.5103 23.519 22.5103 24C22.5103 25.103 21.6117 26 20.509 26C19.4053 26 18.5077 25.103 18.5077 24C18.5077 23.07 19.1471 22.294 20.0087 22.071V17.928C19.7075 17.85 19.4363 17.704 19.2081 17.507L10.7185 25.99C10.8946 26.288 11.0027 26.63 11.0027 27C11.0027 28.103 10.1041 29 9.00133 29C7.8976 29 7 28.103 7 27C7 25.896 7.8976 25 9.00133 25C9.37158 25 9.71281 25.107 10.011 25.283L18.6318 16.669C18.5557 16.458 18.5077 16.235 18.5077 16C18.5077 14.896 19.4053 14 20.509 14C21.6117 14 22.5103 14.896 22.5103 16C22.5103 16.929 21.8699 17.705 21.0093 17.928V22.071C21.0814 22.089 21.1514 22.11 21.2205 22.136L30.2725 13.995C30.1024 13.701 29.9973 13.364 29.9973 13C29.9973 11.897 30.8949 11 31.9987 11C33.1024 11 34 11.897 34 13ZM9.00133 9H32.0167V10H33.0173V8.5C33.0173 8.223 32.7932 8 32.517 8H8.501C8.22382 8 8.00067 8.223 8.00067 8.5V24H9.00133V9ZM32.0167 16H33.0173V32.5C33.0173 32.776 32.7932 33 32.517 33H8.501C8.22382 33 8.00067 32.776 8.00067 32.5V30H9.00133V32H32.0167V16Z" fill="#8C4FFF"/>
</g>
<rect x="0.5" y="0.5" width="39" height="39" stroke="#8C4FFF"/>
<defs>
<clipPath id="clip0_23293_2715">
<rect width="40" height="40" fill="white"/>
</clipPath>
</defs>
</svg>
