<svg id="Layer_1" data-name="Layer 1" xmlns="http://www.w3.org/2000/svg" viewBox="0 0 100 100"><defs><style>.cls-1{fill:none;}.cls-2{fill:#0087ac;}.cls-3{fill:#ffd100;}</style></defs><path class="cls-1" d="M41.70494,10.52828l2.05835-.41182a11.40126,11.40126,0,0,1,3.70512-.41157c.41157-.41157.41157-.82339.82339-.82339H42.52833a13.41467,13.41467,0,0,0-5.35165,1.64678l-2.05834,1.235h.82338C38.00007,11.35167,39.6466,10.93985,41.70494,10.52828Z"/><path class="cls-1" d="M65.99352,87.51046a53.97983,53.97983,0,0,0-6.175,1.235c-.82339.82339-2.05835.82339-3.29331.82339-.82339,0-1.64677-.41182-2.05834,0-.41182,0-.82339,0-.82339.41157a11.793,11.793,0,0,0,9.88016-.41157,14.63184,14.63184,0,0,0,4.11669-.82339,6.96,6.96,0,0,0,2.05835-.82339H67.6403A3.1131,3.1131,0,0,0,65.99352,87.51046Z"/><path class="cls-1" d="M15.35827,69.39692c-.41182-2.05835-1.235-2.05835-2.05835-3.70512-.41182-.82314-.41182-1.235-.82339-2.05835a76.75932,76.75932,0,0,1-2.05834-7.82156c0-.41182-.41157-.82339-.41157-1.235a2.474,2.474,0,0,0-.41182,1.64653c.41182,2.05834,1.23521,4.11669,1.64677,6.175l.41157.82339.41182,1.64678a9.69023,9.69023,0,0,0,.82314,3.2933,30.7026,30.7026,0,0,0,5.76347,6.99843,2.13831,2.13831,0,0,0-.82339-1.64678A36.18821,36.18821,0,0,1,15.35827,69.39692Z"/><path class="cls-1" d="M21.5333,24.11331c.41157-.41157,2.05835-.82339,2.05835-1.235,0-.41182.82339-.82339,1.235-.82339a22.85773,22.85773,0,0,0,3.2933-2.46991c.41182-.41182.82339-.41182,1.235-.82339A5.65573,5.65573,0,0,0,24.415,20.40819a26.44556,26.44556,0,0,0-5.3519,4.11669l-.82314.82339-.82339,1.235A12.50508,12.50508,0,0,0,15.35827,29.465a9.778,9.778,0,0,0-1.235,4.94008v.82339q1.23471-2.47017,2.46991-4.94008c.82339-1.235,1.235-2.05835,2.05835-3.2933A9.61809,9.61809,0,0,1,21.5333,24.11331Z"/><path class="cls-1" d="M80.81376,22.87835a27.67684,27.67684,0,0,0,2.88149,4.52826l.82339,1.64678V26.99505A9.01149,9.01149,0,0,0,80.81376,22.87835Z"/><path class="cls-2" d="M97.28028,57.87023c-.41157-.41182-1.64653.41157-2.05835,1.64653A5.99462,5.99462,0,0,1,92.752,63.22188c-.82339.41157.82339-2.88173,0-4.11669s-1.235-.82339-1.64678.41157a30.51856,30.51856,0,0,1-3.05611,7.04415c-.37991.93721-.83645,1.97644-1.06058,2.42444l.41182-1.23521c.247-.37061.42011-.80128.64876-1.18923a9.39179,9.39179,0,0,0,.5862-1.69225,34.30436,34.30436,0,0,0,1.64677-6.175c0-1.23521.41157-2.47016.41157-3.70512l.82339-2.05835v4.94008a1.4338,1.4338,0,0,0,2.05835-.41182,5.94963,5.94963,0,0,0,.82339-2.88148,41.94117,41.94117,0,0,0-.82339-14.40842,44.8235,44.8235,0,0,0-4.11669-10.29173C86.577,25.34827,84.9302,19.58505,84.51864,19.58505s-.41157-1.23521-.41157-1.64678a22.64127,22.64127,0,0,0-2.88174-3.70512c-.82339-.82314-5.35165-3.2933-2.88173,0a6.63705,6.63705,0,0,1,1.64678,2.88173A6.04867,6.04867,0,0,1,77.932,14.645a8.61516,8.61516,0,0,0-2.47017-1.64678,20.05766,20.05766,0,0,0-2.88148-1.23495,13.71057,13.71057,0,0,1-2.47017-1.235A4.1122,4.1122,0,0,1,68.05187,8.8815a3.51664,3.51664,0,0,0-2.88148,0h-.41182L64.347,8.46993V8.05811A2.13931,2.13931,0,0,0,62.70022,7.235l-1.235-.82339c-1.23495-.82339-2.88173-2.05835-4.11669-2.88174a7.31353,7.31353,0,0,0-4.11669-1.64677c-.82339,0-2.88173-.82314-3.2933-.41157a1.25194,1.25194,0,0,0,0,1.64677,12.87788,12.87788,0,0,1,4.11669,2.05835l.41157.41157H52.82006a44.75476,44.75476,0,0,0-7.41.41157c-.82338,0-1.235.41182-2.05834.41182A27.80349,27.80349,0,0,1,37.5885,7.235a3.71163,3.71163,0,0,0-2.05834.41156c-.41182.41157-.41182.82339-.82339.82339a19.38655,19.38655,0,0,0-3.70513,1.235,5.65678,5.65678,0,0,0-3.2933,2.05835c-1.235.82338-4.52851,2.88173-4.94008,3.70512a1.51247,1.51247,0,0,0-1.235.41157,21.57613,21.57613,0,0,0-4.52851,4.11669,22.6037,22.6037,0,0,0-2.88148,3.70512l-.82339,1.235a28.46842,28.46842,0,0,0-4.11669,7.82156c0,.82339-.82339,4.94008.41157,3.70513,0-.82339.41182-1.235,1.23521-1.64678a1.43676,1.43676,0,0,1-.41182.82339c0,.41182.41182.82339.41182,1.23495a3.12119,3.12119,0,0,1-.82339,1.64678q-.61773,2.47017-1.23521,4.94008a17.6847,17.6847,0,0,0,0,6.58661H8.35984a3.122,3.122,0,0,0-.82339,1.64677c0,1.235-.41157,2.05835-.41157,1.64653a17.50246,17.50246,0,0,0-.82339-4.52826c-.82338-1.235-.82338-2.88173-.82338-4.52826,0-.82339.41182-2.05835.41182-2.88173V38.9333c0-1.64653.41156-5.35165.41156-5.76322.41182-1.64677,2.47017-4.52851,1.64678-6.175-.82339-1.64678-1.64678,0-2.05834.41156-.41182.41182-.82339.82339-.82339,1.235a43.73712,43.73712,0,0,0-1.64678,7.82182c-.41157,2.05834-.41157,4.11669-.82314,6.175V49.225a35.67569,35.67569,0,0,1,.82314,4.11669c0,2.05835,2.88173,7.41025,2.47017,7.82182a1.25194,1.25194,0,0,0,0,1.64677,45.76865,45.76865,0,0,0,7.41,13.9966c.82339.82339,3.70512,4.52851,4.11669,4.94008A2.13908,2.13908,0,0,1,18.24,83.39377l.41157.41157,7.41-9.46834c2.88174-3.70512,4.52852-4.52851,6.99843-8.23338,2.05835-2.47017,4.11669-6.175,5.76347-5.35165A4.31225,4.31225,0,0,1,40.47,61.98692c.82339.82339.41182,2.46992-1.23495,4.1167-2.88174,3.70487-4.52826,5.76321-7.41,9.46834L26.885,81.747l1.64678.82339v.82339a1.3144,1.3144,0,0,0,1.235,1.235A27.30043,27.30043,0,0,0,37.5885,88.3336l2.46992.41182c1.64677.41157,1.235,1.235,2.88173,1.64653.41157,0,.82339.82338,1.235,1.2352-2.46992.82314-4.11669-1.64677-4.94008-.41182a1.838,1.838,0,0,0,0,2.05835c-.41157,0-1.235-.41157-1.64653-.41157-.41182-.41182-1.23521-.82339-1.64678-1.235l-.82338-.41182-.41157-.41156a8.96227,8.96227,0,0,0-3.29331-2.05835c-.41182,0-1.2352-1.235-2.05834-1.64678C27.70834,86.27525,26.885,85.45212,25.65,85.0403l-1.64678,1.64677c.82339.82339,2.05834,1.64653,2.88173,2.46992,1.64678,1.235,2.88174,2.47016,4.52851,3.70512a19.22834,19.22834,0,0,0,4.1167,2.05835l1.23495.41157a6.637,6.637,0,0,1,2.88174,1.64677c.41157.41157,2.88148.82339,3.2933,1.235,1.235,1.235,6.58661,1.235,4.94008-.82339A8.96452,8.96452,0,0,0,44.58668,95.332H55.70179c.82339.41182,2.88174-.82339,4.1167-1.235s3.2933-.41157,3.70512-.82339a22.29455,22.29455,0,0,1,6.175-1.64653c.41156,0,.41156,0,.82338-.41182q1.23471-.61734,2.46992-1.23495c2.05834-.41157,2.88173-1.235,4.94008-1.64678.41157,0,1.235-.41157,1.235-.82314v-.82339c0-.41182.41157-.41182.82339-.41182,2.05834-.82313,4.93982-2.05834,5.35164-4.52826,0-.82339-.41156-1.23495-1.235-.82339A10.79241,10.79241,0,0,1,80.40194,82.982l.41157-.41157c.41182-.41182,1.23521-1.235,1.64678-1.64678a13.048,13.048,0,0,0,2.05835-2.46991c.41156-.82339,1.64677-1.64678,2.46991-2.47017a7.22506,7.22506,0,0,0,1.64678-2.05834,18.22814,18.22814,0,0,1,4.94008-6.175,8.96341,8.96341,0,0,0,2.05834-3.2933A4.76422,4.76422,0,0,1,97.6921,61.5751C97.6921,60.34015,97.6921,58.2818,97.28028,57.87023ZM37.17668,10.52828A13.41467,13.41467,0,0,1,42.52833,8.8815H48.2918c-.41182,0-.41182.41182-.82339.82339a11.40126,11.40126,0,0,0-3.70512.41157l-2.05835.41182c-2.05834.41157-3.70487.82339-5.76322,1.235h-.82338ZM12.8881,68.162a9.69023,9.69023,0,0,1-.82314-3.2933l-.41182-1.64678-.41157-.82339c-.41156-2.05834-1.23495-4.11669-1.64677-6.175a2.474,2.474,0,0,1,.41182-1.64653c0,.41157.41157.82314.41157,1.235a76.75932,76.75932,0,0,0,2.05834,7.82156c.41157.82339.41157,1.23521.82339,2.05835.82339,1.64677,1.64653,1.64677,2.05835,3.70512a36.18821,36.18821,0,0,0,2.46991,4.11669,2.13831,2.13831,0,0,1,.82339,1.64678A30.7026,30.7026,0,0,1,12.8881,68.162Zm3.70512-37.87361q-1.23508,2.47017-2.46991,4.94008V34.405a9.778,9.778,0,0,1,1.235-4.94008,12.50508,12.50508,0,0,1,2.05834-2.88173l.82339-1.235.82314-.82339a26.44556,26.44556,0,0,1,5.3519-4.11669,5.65573,5.65573,0,0,1,4.93983-1.64653c-.41157.41157-.82314.41157-1.235.82339a22.85773,22.85773,0,0,1-3.2933,2.46991c-.41157,0-1.235.41157-1.235.82339,0,.41157-1.64678.82339-2.05835,1.235a9.61809,9.61809,0,0,0-2.88173,2.88174C17.82818,28.23,17.41661,29.05339,16.59322,30.28835ZM67.6403,88.74542a14.63184,14.63184,0,0,1-4.11669.82339,11.793,11.793,0,0,1-9.88016.41157c0-.41157.41157-.41157.82339-.41157.41157-.41182,1.235,0,2.05834,0,1.235,0,2.46992,0,3.29331-.82339a53.97983,53.97983,0,0,1,6.175-1.235,3.1131,3.1131,0,0,1,1.64678.41157h2.05835A6.96,6.96,0,0,1,67.6403,88.74542Zm13.585-44.872a5.25078,5.25078,0,0,1-2.88173,2.05835c-2.46992.41182-10.7033,4.11669-12.76165,4.11669a12.0222,12.0222,0,0,0-3.70512.82339c-.82339.41156-3.70512.41156-4.52826.82338-.41182.41157-1.64678,0-1.64678.82339,0,.82314,1.235,1.64653,1.64678,2.46992.41157.82339,2.88148,2.46991,3.2933,2.88173A24.63664,24.63664,0,0,1,63.11179,60.752a5.67535,5.67535,0,0,1,1.235,1.64652c.41182.82339,1.2352,1.235,1.64677,1.64678,3.70513,3.70487,4.11669,4.52826,4.94008,5.35165s1.235,1.64678,2.05835,2.46991c0,.41182,0,1.23521-.41157,1.23521a2.47614,2.47614,0,0,1-1.64678.41157,3.14345,3.14345,0,0,1-2.05834-.82339c-1.64678-1.64652-1.64678-.82339-3.29331-2.88173-.82338-.82314-.82338-1.235-4.11669-4.93983-.41182-.41182-2.05834-2.05835-2.05834-2.47017,0-.41157-1.23521-1.235-1.64678-1.64652-.82339-1.23521-2.05835-2.05835-2.88173-3.29356-.41157-.41157-1.235-.82313-1.64653-1.23495-1.64678-.41157-3.29355,2.05834-3.29355,2.88173a27.18578,27.18578,0,0,0-.41157,5.76347,39.6829,39.6829,0,0,1,0,9.87991v5.35165c0,.41182-.41157.82338-.41157,1.2352l-.41182.41157c-.41157.41157-1.64653,0-1.64653-.41157-.41182-.82338-.82339-1.2352-.82339-2.05834,0-2.47017,0-15.64363.41157-18.93693a7.0036,7.0036,0,0,0,.41182-2.88174s.82339-2.05834,0-3.2933-2.47016-.41157-3.29355-.41157a43.35332,43.35332,0,0,0-7.41,1.235c-4.52826.82339-12.76164,3.2933-16.05494,2.05834a.40325.40325,0,0,0-.41182-.41156,1.83792,1.83792,0,0,1,0-2.05835c.41182-.82339,1.23495-1.23521,1.64677-1.64678a5.81158,5.81158,0,0,1,3.70488-.41157c1.64677,0,16.05519-2.47016,16.46676-2.47016a6.63521,6.63521,0,0,0,2.88174-1.64653c.82338-.82339-2.46992-3.29355-2.46992-3.29355s.41157.41182-3.2933-2.46992a6.05109,6.05109,0,0,0-2.47017-2.05834A24.84609,24.84609,0,0,1,33.06,37.28677,29.03346,29.03346,0,0,1,29.35487,34.405a1.99012,1.99012,0,0,1,0-2.88173,1.81029,1.81029,0,0,1,2.05834-.41157,20.61181,20.61181,0,0,1,3.29356,2.88173c.82313.82314,2.88148,2.88148,5.76321,5.35165,3.70513,2.88173,3.70513,3.70487,4.94008,4.52826.41157.41182,1.235.82339,1.64678,1.235.82314.41182.41157-1.64653.41157-2.05835,0-1.64652-.41157-2.88148-.41157-4.52826-.41182-2.05834-.82339-13.17346-.82339-15.23181a7.42208,7.42208,0,0,1,.82339-4.11669,2.26361,2.26361,0,0,1,2.05835-1.235c.82314-.41157,1.235.82339,1.235.82339v.41157a99.15409,99.15409,0,0,0,0,15.64338v9.05677c0,2.05835,2.46991,0,2.46991,0l.41182-.41157a37.102,37.102,0,0,1,3.70487-4.11669c.82339-1.235,7.41-10.70355,8.23338-11.52669,1.235-1.64677,2.05835-2.05834,3.29331-3.70512,0-.41157.82339-.82339,1.23521-.82339a.88543.88543,0,0,1,.82313.82339v1.235q-1.2347,1.85244-2.46991,3.70512c-.82339,1.235-7.82182,11.11512-8.64495,12.35008-.41182.82338-1.23521,1.64652-1.64678,2.46991-.82339.82339-2.88173,1.64678-3.2933,3.2933-.41182,1.64678.82339,2.47017,2.05834,2.05835a38.10013,38.10013,0,0,1,4.11669-1.235c4.1167-1.235,14.82-4.52826,18.93669-5.35165h.82338c.41157,0,.82339,0,.82339.41157Zm3.29331-14.82-.82339-1.64678a27.67684,27.67684,0,0,1-2.88149-4.52826,9.01149,9.01149,0,0,1,3.70488,4.1167Z"/><path class="cls-2" d="M86.98855,68.98535c.22413-.448.68067-1.48723,1.06058-2.42444-.22865.38795-.40177.81862-.64876,1.18923Z"/><path class="cls-3" d="M80.40194,42.63842h-.82338c-4.1167.82339-14.82,4.11669-18.93669,5.35165a38.10013,38.10013,0,0,0-4.11669,1.235c-1.23495.41182-2.47016-.41157-2.05834-2.05835.41157-1.64652,2.46991-2.46991,3.2933-3.2933.41157-.82339,1.235-1.64653,1.64678-2.46991.82313-1.235,7.82156-11.11512,8.64495-12.35008s1.64678-2.47016,2.46991-3.70512v-1.235a.88543.88543,0,0,0-.82313-.82339c-.41182,0-1.23521.41182-1.23521.82339-1.235,1.64678-2.05835,2.05835-3.29331,3.70512-.82338.82314-7.41,10.29173-8.23338,11.52669a37.102,37.102,0,0,0-3.70487,4.11669l-.41182.41157s-2.46991,2.05835-2.46991,0V34.81661a99.15409,99.15409,0,0,1,0-15.64338v-.41157s-.41182-1.235-1.235-.82339a2.26361,2.26361,0,0,0-2.05835,1.235,7.42208,7.42208,0,0,0-.82339,4.11669c0,2.05835.41157,13.17347.82339,15.23181,0,1.64678.41157,2.88174.41157,4.52826,0,.41182.41157,2.47017-.41157,2.05835-.41182-.41157-1.23521-.82314-1.64678-1.235-1.235-.82339-1.235-1.64653-4.94008-4.52826-2.88173-2.47017-4.94008-4.52851-5.76321-5.35165a20.61181,20.61181,0,0,0-3.29356-2.88173,1.81029,1.81029,0,0,0-2.05834.41157,1.99012,1.99012,0,0,0,0,2.88173A29.03346,29.03346,0,0,0,33.06,37.28677a24.84609,24.84609,0,0,0,3.2933,3.29331,6.05109,6.05109,0,0,1,2.47017,2.05834c3.70487,2.88174,3.2933,2.46992,3.2933,2.46992s3.2933,2.47016,2.46992,3.29355a6.63521,6.63521,0,0,1-2.88174,1.64653c-.41157,0-14.82,2.47016-16.46676,2.47016a5.81158,5.81158,0,0,0-3.70488.41157c-.41182.41157-1.235.82339-1.64677,1.64678a1.83792,1.83792,0,0,0,0,2.05835.40325.40325,0,0,1,.41182.41156c3.2933,1.235,11.52668-1.235,16.05494-2.05834a43.35332,43.35332,0,0,1,7.41-1.235c.82339,0,2.47016-.82339,3.29355.41157s0,3.2933,0,3.2933a7.0036,7.0036,0,0,1-.41182,2.88174c-.41157,3.2933-.41157,16.46676-.41157,18.93693,0,.82314.41157,1.235.82339,2.05834,0,.41157,1.235.82314,1.64653.41157l.41182-.41157c0-.41182.41157-.82338.41157-1.2352V74.74857a39.6829,39.6829,0,0,0,0-9.87991,27.18578,27.18578,0,0,1,.41157-5.76347c0-.82339,1.64677-3.2933,3.29355-2.88173.41157.41182,1.235.82338,1.64653,1.23495.82338,1.23521,2.05834,2.05835,2.88173,3.29356.41157.41157,1.64678,1.23495,1.64678,1.64652,0,.41182,1.64652,2.05835,2.05834,2.47017,3.29331,3.70487,3.29331,4.11669,4.11669,4.93983,1.64653,2.05834,1.64653,1.23521,3.29331,2.88173a3.14345,3.14345,0,0,0,2.05834.82339,2.47614,2.47614,0,0,0,1.64678-.41157c.41157,0,.41157-.82339.41157-1.23521-.82339-.82313-1.235-1.64652-2.05835-2.46991s-1.23495-1.64678-4.94008-5.35165c-.41157-.41182-1.23495-.82339-1.64677-1.64678a5.67535,5.67535,0,0,0-1.235-1.64652,24.63664,24.63664,0,0,0-2.46992-2.88174c-.41182-.41182-2.88173-2.05834-3.2933-2.88173-.41182-.82339-1.64678-1.64678-1.64678-2.46992,0-.82339,1.235-.41182,1.64678-.82339.82314-.41182,3.70487-.41182,4.52826-.82338a12.0222,12.0222,0,0,1,3.70512-.82339c2.05835,0,10.29173-3.70487,12.76165-4.11669a5.25078,5.25078,0,0,0,2.88173-2.05835V43.05C81.22533,42.63842,80.81351,42.63842,80.40194,42.63842Z"/></svg>