<svg width="182" height="122" viewBox="0 0 182 122" fill="none" xmlns="http://www.w3.org/2000/svg">
<path d="M178.994 2.5H21.2642V119H178.994V2.5Z" fill="#326CE5" fill-opacity="0.1" stroke="#326CE5" stroke-width="5" stroke-dasharray="10 10"/>
<path fill-rule="evenodd" clip-rule="evenodd" d="M12.5604 99.2605C2.42941 94.4319 -1.85158 82.3411 2.99842 72.2548C5.32742 67.4112 9.49342 63.6871 14.5804 61.9018C19.6664 60.1164 25.2574 60.4161 30.1224 62.7349C40.2534 67.5634 44.5344 79.6542 39.6844 89.7405C34.8344 99.8268 22.6904 104.089 12.5604 99.2605Z" fill="#326CE5"/>
<path d="M21.1483 68.8518C20.9193 68.8633 20.6963 68.9196 20.4903 69.0176L11.5103 73.289C11.2783 73.3995 11.0733 73.5603 10.9123 73.7594C10.7523 73.9585 10.6383 74.1909 10.5813 74.4392L8.36533 84.0338C8.31433 84.2549 8.30934 84.4838 8.34934 84.7071C8.38934 84.9304 8.47434 85.1435 8.59934 85.3338C8.62934 85.3803 8.66134 85.4253 8.69634 85.4687L14.9123 93.162C15.0733 93.3611 15.2773 93.5218 15.5093 93.6323C15.7423 93.7427 15.9963 93.8001 16.2543 93.8L26.2223 93.7977C26.4803 93.7979 26.7343 93.7408 26.9673 93.6305C27.1993 93.5203 27.4033 93.3598 27.5643 93.1609L33.7773 85.4664C33.9383 85.2672 34.0523 85.0348 34.1093 84.7864C34.1673 84.538 34.1673 84.28 34.1093 84.0315L31.8913 74.4369C31.8333 74.1886 31.7203 73.9562 31.5593 73.7571C31.3983 73.558 31.1943 73.3972 30.9613 73.2867L21.9803 69.0176C21.7213 68.8944 21.4353 68.8373 21.1483 68.8518Z" fill="white"/>
<path d="M21.2377 72.1172C20.9407 72.1173 20.6996 72.3834 20.6996 72.7118C20.6996 72.7168 20.7007 72.7216 20.7007 72.7266C20.7007 72.7712 20.6986 72.825 20.6996 72.8638C20.7066 73.0532 20.7486 73.1981 20.7736 73.3726C20.8186 73.746 20.8567 74.0556 20.8327 74.3433C20.8107 74.4518 20.7296 74.551 20.6586 74.6199L20.6456 74.8463C20.3236 74.8729 19.9987 74.9216 19.6747 74.9949C18.2787 75.3104 17.0776 76.0261 16.1626 76.9923C16.1026 76.952 15.9986 76.8778 15.9686 76.8551C15.8726 76.868 15.7756 76.8975 15.6486 76.8242C15.4086 76.6631 15.1897 76.4406 14.9247 76.1726C14.8027 76.0444 14.7146 75.9223 14.5706 75.7987C14.5376 75.7706 14.4877 75.7327 14.4507 75.7038C14.3387 75.6143 14.2056 75.5676 14.0766 75.5632C13.9116 75.5575 13.7526 75.6219 13.6486 75.7518C13.4636 75.9829 13.5227 76.336 13.7807 76.5407C13.7827 76.5428 13.7856 76.5444 13.7886 76.5464C13.8236 76.575 13.8676 76.6117 13.8996 76.6356C14.0526 76.7482 14.1927 76.8058 14.3457 76.8951C14.6667 77.0928 14.9337 77.2566 15.1447 77.4542C15.2277 77.5418 15.2417 77.6961 15.2527 77.7629L15.4247 77.9161C14.5027 79.2977 14.0756 81.0043 14.3286 82.7432L14.1037 82.8083C14.0437 82.8846 13.9596 83.0046 13.8726 83.0404C13.5956 83.1271 13.2846 83.159 12.9086 83.1982C12.7326 83.2128 12.5797 83.2041 12.3927 83.2394C12.3517 83.2471 12.2946 83.262 12.2496 83.2725C12.2476 83.2729 12.2466 83.2733 12.2446 83.2737C12.2426 83.2742 12.2396 83.2754 12.2366 83.2759C11.9196 83.3521 11.7166 83.642 11.7816 83.9276C11.8476 84.2133 12.1566 84.387 12.4756 84.3186C12.4776 84.3181 12.4817 84.318 12.4837 84.3175C12.4877 84.3167 12.4906 84.315 12.4946 84.3141C12.5386 84.3044 12.5946 84.2936 12.6326 84.2832C12.8166 84.2342 12.9506 84.1622 13.1156 84.0991C13.4706 83.9722 13.7657 83.8661 14.0527 83.8247C14.1727 83.8154 14.2986 83.8984 14.3616 83.9334L14.5957 83.8933C15.1347 85.5574 16.2646 86.9024 17.6956 87.7463L17.5977 87.9795C17.6327 88.0701 17.6716 88.1926 17.6456 88.2821C17.5416 88.5514 17.3627 88.8357 17.1597 89.1526C17.0607 89.299 16.9596 89.4126 16.8706 89.5802C16.8496 89.6203 16.8226 89.6819 16.8016 89.7242C16.6636 90.0185 16.7657 90.3574 17.0307 90.4845C17.2977 90.6125 17.6286 90.4775 17.7726 90.1827L17.7736 90.1816V90.1804C17.7936 90.1386 17.8227 90.0837 17.8407 90.0444C17.9167 89.8707 17.9416 89.7219 17.9956 89.5539C18.1376 89.1983 18.2156 88.8251 18.4116 88.5926C18.4646 88.5289 18.5527 88.5045 18.6427 88.4803L18.7646 88.2608C20.0116 88.7374 21.4077 88.8653 22.8027 88.5501C23.1207 88.4781 23.4277 88.3851 23.7247 88.2734C23.7597 88.3338 23.8226 88.4499 23.8396 88.4792C23.9316 88.509 24.0327 88.5244 24.1147 88.6449C24.2607 88.8941 24.3606 89.1888 24.4826 89.5447C24.5366 89.7127 24.5627 89.8615 24.6387 90.0352C24.6567 90.0748 24.6857 90.1305 24.7057 90.1724C24.8487 90.4682 25.1817 90.6036 25.4487 90.4754C25.7137 90.3481 25.8157 90.0093 25.6777 89.7151C25.6567 89.6727 25.6286 89.6111 25.6076 89.571C25.5186 89.4035 25.4176 89.291 25.3186 89.1446C25.1156 88.8277 24.9466 88.5644 24.8426 88.2951C24.7986 88.1562 24.8496 88.0698 24.8836 87.9795C24.8636 87.9563 24.8196 87.8251 24.7946 87.7635C26.2806 86.8895 27.3777 85.4943 27.8927 83.8831C27.9627 83.8939 28.0836 83.9152 28.1226 83.9231C28.2036 83.87 28.2776 83.8007 28.4236 83.8122C28.7106 83.8535 29.0047 83.9596 29.3607 84.0866C29.5257 84.1496 29.6586 84.2228 29.8426 84.2718C29.8816 84.2821 29.9376 84.2918 29.9816 84.3015C29.9856 84.3024 29.9887 84.3041 29.9917 84.3049C29.9947 84.3055 29.9977 84.3056 30.0007 84.3061C30.3187 84.3744 30.6286 84.2008 30.6936 83.9151C30.7596 83.6294 30.5556 83.3395 30.2386 83.2634C30.1926 83.2529 30.1277 83.2352 30.0827 83.2268C29.8957 83.1915 29.7437 83.2002 29.5677 83.1856C29.1917 83.1464 28.8807 83.1146 28.6037 83.0279C28.4907 82.9843 28.4106 82.8507 28.3716 82.7958L28.1546 82.7329C28.2666 81.9223 28.2367 81.0788 28.0417 80.2347C27.8457 79.3828 27.4977 78.6037 27.0347 77.9173C27.0907 77.8669 27.1956 77.7742 27.2256 77.7469C27.2346 77.6509 27.2266 77.5502 27.3266 77.4439C27.5376 77.2463 27.8047 77.0825 28.1257 76.8848C28.2787 76.7955 28.4196 76.7379 28.5726 76.6253C28.6076 76.5999 28.6546 76.5595 28.6906 76.5304C28.9486 76.3257 29.0076 75.9725 28.8226 75.7415C28.6376 75.5105 28.2797 75.4888 28.0217 75.6935C27.9847 75.7224 27.9347 75.7602 27.9017 75.7884C27.7577 75.912 27.6686 76.0341 27.5466 76.1623C27.2816 76.4303 27.0626 76.6539 26.8226 76.8151C26.7176 76.8755 26.5656 76.8546 26.4966 76.8505L26.2917 76.9957C25.1257 75.7789 23.5386 75.0009 21.8296 74.8497C21.8256 74.7785 21.8187 74.6496 21.8177 74.6108C21.7477 74.5441 21.6626 74.4872 21.6416 74.3433C21.6186 74.0556 21.6577 73.746 21.7027 73.3726C21.7277 73.1981 21.7686 73.0532 21.7756 72.8638C21.7776 72.8208 21.7746 72.7583 21.7746 72.7118C21.7746 72.3834 21.5347 72.1172 21.2377 72.1172ZM20.5646 76.2675L20.4046 79.0743L20.3936 79.08C20.3826 79.3311 20.1746 79.5316 19.9196 79.5316C19.8156 79.5316 19.7197 79.4982 19.6407 79.4413L19.6367 79.4436L17.3246 77.8121C18.0346 77.1165 18.9437 76.6025 19.9917 76.3658C20.1827 76.3225 20.3736 76.2904 20.5646 76.2675ZM21.9116 76.2675C23.1346 76.4172 24.2657 76.9684 25.1317 77.8132L22.8347 79.4344L22.8266 79.431C22.6226 79.5792 22.3356 79.5425 22.1766 79.3441C22.1116 79.2628 22.0777 79.1673 22.0737 79.0709L22.0717 79.0697L21.9116 76.2675ZM16.4866 78.8605L18.5966 80.7401L18.5946 80.7515C18.7856 80.9164 18.8136 81.2025 18.6546 81.4009C18.5896 81.4822 18.5026 81.5367 18.4086 81.5621L18.4066 81.5713L15.7007 82.3487C15.5627 81.0951 15.8596 79.8765 16.4866 78.8605ZM25.9736 78.8616C26.2876 79.3677 26.5247 79.9329 26.6667 80.5457C26.8057 81.1512 26.8406 81.7555 26.7836 82.3396L24.0636 81.5598L24.0616 81.5484C23.8176 81.4821 23.6687 81.2355 23.7247 80.9882C23.7487 80.8869 23.8027 80.8011 23.8757 80.7378L23.8746 80.7321L25.9736 78.8616ZM20.8047 80.8853H21.6696L22.2066 81.5541L22.0137 82.3887L21.2377 82.7603L20.4586 82.3876L20.2657 81.553L20.8047 80.8853ZM23.5766 83.1742C23.6136 83.1723 23.6507 83.1756 23.6857 83.1822L23.6906 83.1765L26.4897 83.6475C26.0797 84.7931 25.2957 85.7856 24.2487 86.4498L23.1626 83.8373L23.1656 83.8327C23.0656 83.6019 23.1656 83.3312 23.3956 83.2211C23.4536 83.1929 23.5156 83.1773 23.5766 83.1742ZM18.8766 83.1856C19.0896 83.1886 19.2817 83.3362 19.3307 83.5526C19.3547 83.654 19.3427 83.7544 19.3047 83.843L19.3127 83.8533L18.2377 86.4395C17.2327 85.7975 16.4316 84.8361 16.0036 83.6567L18.7787 83.1879L18.7827 83.1936C18.8147 83.1879 18.8456 83.1852 18.8766 83.1856ZM21.2207 84.3187C21.2947 84.3159 21.3696 84.3311 21.4416 84.3655C21.5356 84.4106 21.6086 84.4816 21.6546 84.5667H21.6647L23.0327 87.0272C22.8547 87.0864 22.6727 87.137 22.4857 87.1792C21.4397 87.4157 20.3967 87.344 19.4527 87.0237L20.8166 84.5679H20.8197C20.9017 84.4155 21.0567 84.3246 21.2207 84.3187Z" fill="#326CE5" stroke="#326CE5" stroke-width="0.25"/>
</svg>