<svg width="24px" height="24px" viewBox="0 0 24 24" fill="none" xmlns="http://www.w3.org/2000/svg">
<path d="M8.35996 7.79969C8.1655 7.95734 7.98484 8.13131 7.81996 8.31969L7.58996 8.08969L6.70996 7.20969L7.23996 6.67969L8.11996 7.55969L8.35996 7.79969Z" fill="white"/>
<path d="M17.32 16.7599L16.79 17.2899L15.7 16.1899C15.8912 16.0321 16.0685 15.8581 16.23 15.6699L17.32 16.7599Z" fill="white"/>
<path d="M6.58012 11.5996C6.56989 11.7327 6.56989 11.8665 6.58012 11.9996C6.56989 12.1161 6.56989 12.2332 6.58012 12.3496H4.87012V11.5996H6.58012Z" fill="white"/>
<path d="M19.13 11.5996V12.3496H17.47C17.47 12.2396 17.47 12.1196 17.47 11.9996C17.47 11.8796 17.47 11.7296 17.47 11.5996H19.13Z" fill="white"/>
<path d="M7.78993 15.6504C7.95127 15.8417 8.12858 16.019 8.31993 16.1804L7.20993 17.2904L6.67993 16.7604L7.78993 15.6504Z" fill="white"/>
<path d="M15.8999 7.53969L16.7599 6.67969L17.2899 7.20969L16.1999 8.29969C16.0386 8.10833 15.8613 7.93103 15.6699 7.76969L15.8999 7.53969Z" fill="white"/>
<path d="M11.9999 17.4702H12.3799V19.1402H11.6299V17.4502L11.9999 17.4702Z" fill="white"/>
<path d="M12.3999 4.87012V6.56012C12.2868 6.55017 12.173 6.55017 12.0599 6.56012C11.9268 6.55015 11.7931 6.55015 11.6599 6.56012V4.87012H12.3999Z" fill="white"/>
<path fill-rule="evenodd" clip-rule="evenodd" d="M17.9201 11.5996C17.8315 10.2896 17.307 9.04691 16.4301 8.06961C16.2626 7.88372 16.0822 7.70995 15.8901 7.54961C14.9209 6.69085 13.6925 6.18051 12.4001 6.09961H12.0001H11.6301C10.33 6.18119 9.09454 6.6951 8.12012 7.55961C7.93358 7.72612 7.75663 7.90308 7.59012 8.08961C6.72525 9.06473 6.20825 10.2992 6.12012 11.5996C6.12012 11.7296 6.12012 11.8696 6.12012 11.9996C6.12012 12.1296 6.12012 12.2396 6.12012 12.3496C6.1955 13.6534 6.70205 14.8951 7.56012 15.8796C7.72405 16.0686 7.90116 16.2457 8.09012 16.4096C9.07662 17.2906 10.3302 17.8153 11.6501 17.8996H12.4001C13.704 17.8136 14.9423 17.2965 15.9201 16.4296C16.1115 16.2683 16.2888 16.091 16.4501 15.8996C17.3272 14.9164 17.8453 13.6651 17.9201 12.3496C17.9201 12.2396 17.9201 12.1196 17.9201 11.9996C17.9201 11.8796 17.9301 11.7296 17.9201 11.5996ZM12.0001 17.1596C10.9796 17.1596 9.98193 16.857 9.13338 16.29C8.28482 15.723 7.62345 14.9171 7.2329 13.9743C6.84235 13.0314 6.74017 11.9939 6.93927 10.9929C7.13836 9.992 7.62981 9.07258 8.35145 8.35094C9.07309 7.6293 9.99251 7.13786 10.9935 6.93876C11.9944 6.73966 13.0319 6.84184 13.9748 7.23239C14.9176 7.62294 15.7235 8.28431 16.2905 9.13287C16.8575 9.98142 17.1601 10.9791 17.1601 11.9996C17.1601 13.3681 16.6165 14.6806 15.6488 15.6483C14.6811 16.616 13.3686 17.1596 12.0001 17.1596ZM12.0001 8.06961C11.226 8.0834 10.4731 8.32556 9.83613 8.76569C9.19912 9.20582 8.70631 9.82432 8.41956 10.5435C8.13281 11.2628 8.0649 12.0506 8.22436 12.8083C8.38381 13.566 8.76352 14.2597 9.31583 14.8023C9.86813 15.345 10.5684 15.7124 11.3288 15.8584C12.0892 16.0045 12.8757 15.9227 13.5898 15.6233C14.3038 15.3239 14.9135 14.8202 15.3423 14.1756C15.7712 13.5309 16 12.7739 16.0001 11.9996C15.9989 11.478 15.894 10.9617 15.6917 10.4809C15.4893 10.0001 15.1935 9.56426 14.8214 9.19867C14.4493 8.83307 14.0083 8.54501 13.524 8.35119C13.0397 8.15738 12.5217 8.06166 12.0001 8.06961Z" fill="white"/>
<path fill-rule="evenodd" clip-rule="evenodd" d="M12 4.99996C11.6505 4.97034 11.3247 4.81054 11.0874 4.55219C10.85 4.29385 10.7183 3.9558 10.7183 3.60496C10.7183 3.25412 10.85 2.91607 11.0874 2.65773C11.3247 2.39939 11.6505 2.23959 12 2.20996V2.99996C11.8428 3.01958 11.6982 3.09595 11.5933 3.21473C11.4884 3.33351 11.4305 3.48651 11.4305 3.64496C11.4305 3.80342 11.4884 3.95641 11.5933 4.07519C11.6982 4.19397 11.8428 4.27034 12 4.28996V4.99996Z" fill="#DDDDDD"/>
<path fill-rule="evenodd" clip-rule="evenodd" d="M12 5V4.29C12.1572 4.27038 12.3019 4.19401 12.4068 4.07523C12.5117 3.95645 12.5695 3.80345 12.5695 3.645C12.5695 3.48655 12.5117 3.33355 12.4068 3.21477C12.3019 3.09599 12.1572 3.01962 12 3V2.25C12.3198 2.31126 12.6082 2.48206 12.8157 2.73302C13.0231 2.98398 13.1366 3.2994 13.1366 3.625C13.1366 3.9506 13.0231 4.26602 12.8157 4.51698C12.6082 4.76794 12.3198 4.93874 12 5Z" fill="white"/>
<path fill-rule="evenodd" clip-rule="evenodd" d="M11.9999 21.75C11.6801 21.6887 11.3917 21.5179 11.1842 21.267C10.9768 21.016 10.8633 20.7006 10.8633 20.375C10.8633 20.0494 10.9768 19.734 11.1842 19.483C11.3917 19.2321 11.6801 19.0613 11.9999 19V19.75C11.8641 19.7888 11.7446 19.8708 11.6595 19.9836C11.5744 20.0963 11.5284 20.2337 11.5284 20.375C11.5284 20.5163 11.5744 20.6537 11.6595 20.7664C11.7446 20.8792 11.8641 20.9612 11.9999 21V21.75Z" fill="#DDDDDD"/>
<path fill-rule="evenodd" clip-rule="evenodd" d="M12 21.75V21C12.1572 20.9804 12.3019 20.904 12.4068 20.7852C12.5117 20.6665 12.5695 20.5135 12.5695 20.355C12.5695 20.1965 12.5117 20.0435 12.4068 19.9248C12.3019 19.806 12.1572 19.7296 12 19.71V19C12.3496 19.0296 12.6753 19.1894 12.9127 19.4478C13.1501 19.7061 13.2818 20.0442 13.2818 20.395C13.2818 20.7458 13.1501 21.0839 12.9127 21.3422C12.6753 21.6006 12.3496 21.7604 12 21.79V21.75Z" fill="white"/>
<path fill-rule="evenodd" clip-rule="evenodd" d="M6.08995 7.4802C5.7213 7.4802 5.36775 7.33375 5.10707 7.07307C4.8464 6.8124 4.69995 6.45885 4.69995 6.0902C4.69995 5.72154 4.8464 5.36799 5.10707 5.10732C5.36775 4.84664 5.7213 4.7002 6.08995 4.7002V5.4502C5.92021 5.4502 5.75743 5.51762 5.6374 5.63765C5.51738 5.75767 5.44995 5.92046 5.44995 6.0902C5.44995 6.25993 5.51738 6.42272 5.6374 6.54274C5.75743 6.66277 5.92021 6.7302 6.08995 6.7302V7.4802Z" fill="#DDDDDD"/>
<path fill-rule="evenodd" clip-rule="evenodd" d="M6.09009 7.4802V6.7302C6.25983 6.7302 6.42261 6.66277 6.54264 6.54274C6.66266 6.42272 6.73009 6.25993 6.73009 6.0902C6.73009 5.92046 6.66266 5.75767 6.54264 5.63765C6.42261 5.51762 6.25983 5.4502 6.09009 5.4502V4.7002C6.45874 4.7002 6.81229 4.84664 7.07297 5.10732C7.33364 5.36799 7.48009 5.72154 7.48009 6.0902C7.48009 6.45885 7.33364 6.8124 7.07297 7.07307C6.81229 7.33375 6.45874 7.4802 6.09009 7.4802Z" fill="white"/>
<path fill-rule="evenodd" clip-rule="evenodd" d="M17.91 19.2995C17.5414 19.2995 17.1878 19.1531 16.9271 18.8924C16.6665 18.6317 16.52 18.2782 16.52 17.9095C16.52 17.5409 16.6665 17.1873 16.9271 16.9267C17.1878 16.666 17.5414 16.5195 17.91 16.5195V17.2695C17.7403 17.2695 17.5775 17.337 17.4575 17.457C17.3374 17.577 17.27 17.7398 17.27 17.9095C17.27 18.0793 17.3374 18.2421 17.4575 18.3621C17.5775 18.4821 17.7403 18.5495 17.91 18.5495V19.2995Z" fill="#DDDDDD"/>
<path fill-rule="evenodd" clip-rule="evenodd" d="M17.9099 19.2995V18.5495C18.0797 18.5495 18.2424 18.4821 18.3625 18.3621C18.4825 18.2421 18.5499 18.0793 18.5499 17.9095C18.5499 17.7398 18.4825 17.577 18.3625 17.457C18.2424 17.337 18.0797 17.2695 17.9099 17.2695V16.5195C18.2786 16.5195 18.6321 16.666 18.8928 16.9267C19.1535 17.1873 19.2999 17.5409 19.2999 17.9095C19.2999 18.2782 19.1535 18.6317 18.8928 18.8924C18.6321 19.1531 18.2786 19.2995 17.9099 19.2995Z" fill="white"/>
<path fill-rule="evenodd" clip-rule="evenodd" d="M3.64 13.3904C3.27135 13.3904 2.9178 13.2439 2.65712 12.9832C2.39645 12.7226 2.25 12.369 2.25 12.0004C2.25 11.6317 2.39645 11.2781 2.65712 11.0175C2.9178 10.7568 3.27135 10.6104 3.64 10.6104V11.3604C3.55595 11.3604 3.47273 11.3769 3.39508 11.4091C3.31743 11.4412 3.24688 11.4884 3.18745 11.5478C3.12802 11.6072 3.08088 11.6778 3.04872 11.7554C3.01655 11.8331 3 11.9163 3 12.0004C3 12.0844 3.01655 12.1676 3.04872 12.2453C3.08088 12.3229 3.12802 12.3935 3.18745 12.4529C3.24688 12.5123 3.31743 12.5595 3.39508 12.5916C3.47273 12.6238 3.55595 12.6404 3.64 12.6404V13.3904Z" fill="#DDDDDD"/>
<path fill-rule="evenodd" clip-rule="evenodd" d="M3.63989 13.3904V12.6404C3.72394 12.6404 3.80716 12.6238 3.88481 12.5916C3.96246 12.5595 4.03301 12.5123 4.09244 12.4529C4.15187 12.3935 4.19901 12.3229 4.23118 12.2453C4.26334 12.1676 4.27989 12.0844 4.27989 12.0004C4.27989 11.9163 4.26334 11.8331 4.23118 11.7554C4.19901 11.6778 4.15187 11.6072 4.09244 11.5478C4.03301 11.4884 3.96246 11.4412 3.88481 11.4091C3.80716 11.3769 3.72394 11.3604 3.63989 11.3604V10.6104C4.00854 10.6104 4.3621 10.7568 4.62277 11.0175C4.88345 11.2781 5.02989 11.6317 5.02989 12.0004C5.02989 12.369 4.88345 12.7226 4.62277 12.9832C4.3621 13.2439 4.00854 13.3904 3.63989 13.3904Z" fill="white"/>
<path fill-rule="evenodd" clip-rule="evenodd" d="M20.3601 13.3904C20.1751 13.3941 19.9912 13.3607 19.8195 13.2919C19.6477 13.2232 19.4914 13.1207 19.3601 12.9904C19.1185 12.7182 18.9897 12.3641 19.0001 12.0004C19.0027 11.6308 19.1514 11.2773 19.4137 11.0169C19.6759 10.7565 20.0305 10.6103 20.4001 10.6104V11.3604C20.2294 11.3603 20.0656 11.4274 19.944 11.5472C19.8224 11.6669 19.7527 11.8297 19.7501 12.0004C19.7514 12.1696 19.8198 12.3314 19.9401 12.4504C19.9987 12.5131 20.0701 12.5625 20.1495 12.5953C20.2288 12.6281 20.3143 12.6434 20.4001 12.6404L20.3601 13.3904Z" fill="#DDDDDD"/>
<path fill-rule="evenodd" clip-rule="evenodd" d="M20.3601 13.3904V12.6404C20.5298 12.6404 20.6926 12.5729 20.8127 12.4529C20.9327 12.3329 21.0001 12.1701 21.0001 12.0004C21.0001 11.8306 20.9327 11.6678 20.8127 11.5478C20.6926 11.4278 20.5298 11.3604 20.3601 11.3604V10.6104C20.7288 10.6104 21.0823 10.7568 21.343 11.0175C21.6037 11.2781 21.7501 11.6317 21.7501 12.0004C21.7501 12.369 21.6037 12.7226 21.343 12.9832C21.0823 13.2439 20.7288 13.3904 20.3601 13.3904Z" fill="white"/>
<path fill-rule="evenodd" clip-rule="evenodd" d="M6.05993 19.3C5.87361 19.3006 5.68907 19.2638 5.51728 19.1916C5.34549 19.1195 5.18996 19.0135 5.05993 18.88C4.93082 18.7487 4.83037 18.5921 4.76496 18.4199C4.69955 18.2478 4.6706 18.064 4.67993 17.88C4.69548 17.5069 4.8554 17.1544 5.12594 16.8969C5.39648 16.6394 5.75647 16.4971 6.12993 16.5V17.25C5.95194 17.2472 5.77972 17.3132 5.64927 17.4343C5.51882 17.5555 5.44023 17.7223 5.42993 17.9C5.42523 17.9813 5.43796 18.0626 5.46728 18.1385C5.49661 18.2143 5.54184 18.2831 5.59993 18.34C5.72567 18.4625 5.89443 18.5307 6.06993 18.53L6.05993 19.3Z" fill="#DDDDDD"/>
<path fill-rule="evenodd" clip-rule="evenodd" d="M6.06006 19.2995V18.5495C6.23805 18.5524 6.41027 18.4864 6.54073 18.3653C6.67118 18.2441 6.74976 18.0773 6.76006 17.8995C6.76543 17.8182 6.75301 17.7368 6.72365 17.6608C6.69428 17.5848 6.6487 17.5161 6.59006 17.4595C6.46432 17.3371 6.29556 17.2689 6.12006 17.2695V16.5195C6.30638 16.5189 6.49093 16.5558 6.66271 16.628C6.8345 16.7001 6.99003 16.8061 7.12006 16.9395C7.24968 17.0705 7.35046 17.2271 7.4159 17.3993C7.48135 17.5715 7.51002 17.7556 7.50006 17.9395C7.47959 18.3074 7.31889 18.6535 7.05102 18.9064C6.78315 19.1594 6.42851 19.3001 6.06006 19.2995Z" fill="white"/>
<path fill-rule="evenodd" clip-rule="evenodd" d="M17.91 7.4802C17.5414 7.4802 17.1878 7.33375 16.9271 7.07307C16.6665 6.8124 16.52 6.45885 16.52 6.0902C16.52 5.72154 16.6665 5.36799 16.9271 5.10732C17.1878 4.84664 17.5414 4.7002 17.91 4.7002V5.4502C17.7403 5.4502 17.5775 5.51762 17.4575 5.63765C17.3374 5.75767 17.27 5.92046 17.27 6.0902C17.27 6.25993 17.3374 6.42272 17.4575 6.54274C17.5775 6.66277 17.7403 6.7302 17.91 6.7302V7.4802Z" fill="#DDDDDD"/>
<path fill-rule="evenodd" clip-rule="evenodd" d="M17.9099 7.4802V6.7302C18.0797 6.7302 18.2424 6.66277 18.3625 6.54274C18.4825 6.42272 18.5499 6.25993 18.5499 6.0902C18.5499 5.92046 18.4825 5.75767 18.3625 5.63765C18.2424 5.51762 18.0797 5.4502 17.9099 5.4502V4.7002C18.2786 4.7002 18.6321 4.84664 18.8928 5.10732C19.1535 5.36799 19.2999 5.72154 19.2999 6.0902C19.2999 6.45885 19.1535 6.8124 18.8928 7.07307C18.6321 7.33375 18.2786 7.4802 17.9099 7.4802Z" fill="white"/>
<path fill-rule="evenodd" clip-rule="evenodd" d="M12 8.07043V15.9204C11.4679 15.9473 10.9359 15.8657 10.4363 15.6806C9.93672 15.4954 9.47999 15.2107 9.09387 14.8436C8.70775 14.4765 8.40031 14.0347 8.19024 13.545C7.98016 13.0554 7.87183 12.5282 7.87183 11.9954C7.87183 11.4626 7.98016 10.9354 8.19024 10.4458C8.40031 9.9562 8.70775 9.51441 9.09387 9.1473C9.47999 8.78018 9.93672 8.49541 10.4363 8.31029C10.9359 8.12517 11.4679 8.04356 12 8.07043Z" fill="white"/>
<path fill-rule="evenodd" clip-rule="evenodd" d="M16 12C16.0001 12.5215 15.8961 13.0379 15.6941 13.5188C15.4922 13.9997 15.1962 14.4354 14.8237 14.8005C14.4512 15.1656 14.0096 15.4526 13.5247 15.6448C13.0398 15.8371 12.5215 15.9306 12 15.92V8.06996C12.522 8.06066 13.0405 8.15545 13.5255 8.34878C14.0104 8.54211 14.4519 8.83012 14.8243 9.19599C15.1967 9.56185 15.4924 9.99824 15.6943 10.4797C15.8962 10.9611 16.0001 11.4779 16 12Z" fill="#DDDDDD"/>
<path d="M14.13 13.04H12.02V13.79H14.13V13.04Z" fill="#4285F4"/>
<path d="M14.13 11.6699H12.02V12.4199H14.13V11.6699Z" fill="#4285F4"/>
<path d="M14.13 10.3096H12.02V11.0596H14.13V10.3096Z" fill="#4285F4"/>
<path d="M12.0199 13.04H9.90991V13.79H12.0199V13.04Z" fill="#4285F4"/>
<path d="M12.0199 11.6699H9.90991V12.4199H12.0199V11.6699Z" fill="#4285F4"/>
<path d="M12.0199 10.3096H9.90991V11.0596H12.0199V10.3096Z" fill="#4285F4"/>
</svg>
