<svg width="40" height="40" viewBox="0 0 40 40" xmlns="http://www.w3.org/2000/svg">  <g id="Icon-Architecture/32/Arch_Amazon-Lookout-for-Metrics_32" stroke="none" stroke-width="1" fill="none" fill-rule="evenodd">  <g id="Icon-Service/32/Amazon-Lookout-for-Metrics_32" transform="translate(6.000000, 6.000000)" fill="#FFFFFF"> <path d="M15.75,15.131 L16.25,15.996 C18.563,14.659 20,12.17 20,9.5 C20,5.364 16.636,2 12.5,2 C8.364,2 5,5.364 5,9.5 C5,12.17 6.437,14.659 8.75,15.996 L9.25,15.131 C7.245,13.971 6,11.814 6,9.5 C6,5.916 8.916,3 12.5,3 C16.084,3 19,5.916 19,9.5 C19,11.814 17.755,13.971 15.75,15.131 L15.75,15.131 Z M20.563,14.523 C20.117,15.239 19.578,15.896 18.951,16.474 L24.51,20.967 C25.036,21.381 25.709,21.024 26.109,20.514 C26.529,19.984 26.689,19.236 26.184,18.837 L20.563,14.523 Z M3,9.5 C3,4.262 7.262,0 12.5,0 C17.738,0 22,4.262 22,9.5 C22,10.964 21.652,12.365 21.042,13.63 L26.798,18.048 C27.689,18.753 27.729,20.078 26.895,21.134 C26.371,21.797 25.685,22.148 25.023,22.148 C24.62,22.148 24.227,22.017 23.886,21.748 L18.159,17.119 C17.749,17.423 17.32,17.705 16.856,17.945 L16.397,17.056 C17.821,16.32 18.974,15.225 19.77,13.914 L19.765,13.91 L19.785,13.884 C20.565,12.587 21,11.081 21,9.5 C21,4.813 17.187,1 12.5,1 C7.813,1 4,4.813 4,9.5 C4,12.926 6.039,16.001 9.194,17.334 L8.806,18.255 C5.278,16.765 3,13.329 3,9.5 L3,9.5 Z M1,27 L1,0 L0,0 L0,28 L28,28 L28,27 L1,27 Z M2.938,24.739 L2.062,24.261 L5.062,18.761 C5.146,18.604 5.309,18.505 5.487,18.5 C5.643,18.499 5.833,18.587 5.926,18.738 L9.227,24.101 L12.007,7.418 C12.046,7.182 12.247,7.006 12.486,7 L12.5,7 C12.733,7 12.937,7.162 12.988,7.392 L16.79,24.503 L19.146,22.147 C19.342,21.951 19.658,21.951 19.854,22.147 L22.5,24.793 L24.146,23.147 L24.854,23.854 L22.854,25.854 C22.658,26.049 22.342,26.049 22.146,25.854 L19.5,23.207 L16.854,25.854 C16.725,25.982 16.534,26.03 16.36,25.98 C16.185,25.929 16.052,25.787 16.012,25.609 L12.57,10.121 L9.993,25.582 C9.959,25.788 9.801,25.951 9.596,25.991 C9.563,25.997 9.532,26 9.5,26 C9.328,26 9.166,25.912 9.074,25.762 L5.526,19.997 L2.938,24.739 Z" id="Fill-8"></path> </g> </g></svg>