<svg width="90" height="90" viewBox="0 0 90 90" fill="none" xmlns="http://www.w3.org/2000/svg">
<path fill-rule="evenodd" clip-rule="evenodd" d="M62.2543 24.8361C62.2543 35.9768 53.223 45.0081 42.0823 45.0081C30.9416 45.0081 21.9103 35.9768 21.9103 24.8361C21.9103 13.6954 30.9416 4.66406 42.0823 4.66406C53.223 4.66406 62.2543 13.6954 62.2543 24.8361ZM44.4441 26.3043C46.2522 25.3388 47.4825 23.434 47.4825 21.242C47.4825 18.0743 44.9132 15.5064 41.7439 15.5064C38.5746 15.5064 36.0053 18.0743 36.0053 21.242C36.0053 23.4337 37.2353 25.3383 39.043 26.3039L37.5889 32.1172C37.2702 33.3915 38.234 34.6261 39.5476 34.6261H43.9394C45.253 34.6261 46.2168 33.3915 45.8981 32.1172L44.4441 26.3043ZM27.4614 46.0692C27.8672 46.0101 28.2773 46.1156 28.6242 46.3342C32.2566 48.623 36.9169 49.9983 41.9988 49.9983C47.1098 49.9983 51.7944 48.6072 55.4358 46.2947C55.7752 46.0792 56.176 45.972 56.5748 46.0232C62.3169 46.7605 67.2906 49.9528 70.4096 54.5139C69.5706 54.3849 68.711 54.318 67.8359 54.318C58.5641 54.318 51.0478 61.8303 51.0478 71.0973C51.0478 77.2756 54.3887 82.674 59.3633 85.5862H22.5864C15.9177 85.5862 10.5117 80.1802 10.5117 73.5116V65.6975C10.5117 55.7226 17.8742 47.4672 27.4614 46.0692ZM67.9392 82.9135C74.41 82.9135 79.6557 77.6705 79.6557 71.203C79.6557 64.7355 74.41 59.4925 67.9392 59.4925C61.4683 59.4925 56.2226 64.7355 56.2226 71.203C56.2226 77.6705 61.4683 82.9135 67.9392 82.9135ZM67.4972 75.5681L73.888 69.1773L72.1845 67.4738L66.7135 72.9448L64.3646 70.2045L62.5354 71.7723L65.7309 75.5003C65.9492 75.7551 66.2639 75.9072 66.5992 75.9201C66.9345 75.933 67.2599 75.8054 67.4972 75.5681Z" fill="#326CE5"/>
</svg>
