<svg width="142" height="149" viewBox="0 0 142 149" fill="none" xmlns="http://www.w3.org/2000/svg">
<path fill-rule="evenodd" clip-rule="evenodd" d="M43.7061 25.7534C48.8036 22.8103 51.3132 17.1063 50.4364 11.6209C56.8818 9.47778 63.7759 8.31738 70.9411 8.31738C106.807 8.31738 135.882 37.3925 135.882 73.2584C135.882 91.4253 128.422 107.85 116.399 119.636C111.137 114.835 103.175 113.753 96.6776 117.504C90.15 121.273 87.1086 128.761 88.6846 135.746C83.0448 137.344 77.0928 138.199 70.9411 138.199C35.0751 138.199 6 109.124 6 73.2584C6 53.825 14.536 36.3853 28.0632 24.4841C32.3769 28.0136 38.5934 28.7052 43.7061 25.7534ZM91.0567 141.307C84.6794 143.189 77.9282 144.199 70.9411 144.199C31.7614 144.199 0 112.438 0 73.2584C0 51.9082 9.43158 32.7608 24.3556 19.7554C21.2676 13.3149 23.6175 5.48192 29.9062 1.85115C36.209 -1.78776 44.1891 0.110258 48.2141 6.036C55.3489 3.62468 62.9923 2.31738 70.9411 2.31738C110.121 2.31738 141.882 34.0788 141.882 73.2584C141.882 93.3757 133.508 111.537 120.056 124.448C124.079 132.353 121.249 142.113 113.476 146.601C105.734 151.071 95.9117 148.677 91.0567 141.307ZM96.1069 41.182H51.9045C51.7699 41.182 51.6352 41.2065 51.5128 41.2616C51.3903 41.3167 51.274 41.384 51.1761 41.4881C51.0843 41.5799 51.0108 41.6901 50.9557 41.8248C50.9006 41.9533 50.8761 42.0819 50.8761 42.2165V53.9573C50.8761 54.2328 50.9863 54.496 51.1761 54.6919C51.3659 54.8878 51.6291 54.9979 51.9045 54.9979H81.7217V83.3154C81.7217 83.4501 81.7462 83.5847 81.8013 83.7071C81.8564 83.8296 81.9237 83.9459 82.0217 84.0438C82.1196 84.1418 82.2298 84.2152 82.3583 84.2703C82.4808 84.3254 82.6154 84.3499 82.7501 84.3499H96.1131C96.3885 84.3499 96.6517 84.2397 96.8415 84.0438C97.0313 83.8479 97.1414 83.5847 97.1414 83.3093V42.2165C97.1414 41.9411 97.0313 41.6778 96.8354 41.482C96.6334 41.2861 96.3824 41.182 96.1069 41.182ZM51.3409 68.8015H65.8302C66.0873 68.8015 66.2954 69.0096 66.2893 69.2728V109.76C66.2893 110.023 66.0812 110.231 65.8241 110.231H51.3409C51.0838 110.231 50.8757 110.023 50.8757 109.76V69.2728C50.8757 69.0096 51.0838 68.8015 51.3409 68.8015Z" fill="url(#paint0_linear)"/>
<defs>
<linearGradient id="paint0_linear" x1="-6.16716" y1="123.817" x2="131.188" y2="115.571" gradientUnits="userSpaceOnUse">
<stop stop-color="white"/>
<stop offset="1" stop-color="white"/>
</linearGradient>
</defs>
</svg>