<svg width="90" height="90" viewBox="0 0 90 90" fill="none" xmlns="http://www.w3.org/2000/svg">
<ellipse cx="83.4746" cy="77.6224" rx="3.52437" ry="3.52673" fill="white"/>
<ellipse cx="6.52534" cy="77.6224" rx="3.52437" ry="3.52673" fill="white"/>
<path fill-rule="evenodd" clip-rule="evenodd" d="M19.9652 37.6242C16.7472 21.5226 29.054 6.5 45.4628 6.5C61.8716 6.5 74.1783 21.5226 70.9603 37.6242L70.8511 38.1707C70.377 40.5427 69.4166 42.7905 68.0304 44.7722L48.5012 72.691C49.6386 73.4312 50.504 74.5547 50.9143 75.8786H77.6063V79.3856H50.9081C50.1596 81.7703 47.9332 83.5 45.3031 83.5C42.673 83.5 40.4467 81.7703 39.6981 79.3856H12.4055V75.8786H39.6919C40.1287 74.4696 41.0808 73.2875 42.3278 72.553L22.8951 44.7722C21.5089 42.7905 20.5485 40.5427 20.0744 38.1707L19.9652 37.6242ZM57.04 30.0119C57.04 36.5048 51.7803 41.7682 45.2921 41.7682C38.8039 41.7682 33.5442 36.5048 33.5442 30.0119C33.5442 23.5191 38.8039 18.2557 45.2921 18.2557C51.7803 18.2557 57.04 23.5191 57.04 30.0119Z" fill="white"/>
</svg>
