<svg width="24px" height="24px" viewBox="0 0 24 24" fill="none" xmlns="http://www.w3.org/2000/svg">
<path d="M6.42007 13C5.41597 13.0508 4.46976 13.4854 3.77702 14.214C3.08429 14.9427 2.698 15.9096 2.698 16.915C2.698 17.9204 3.08429 18.8873 3.77702 19.616C4.46976 20.3446 5.41597 20.7792 6.42007 20.83C7.42417 20.7792 8.37039 20.3446 9.06312 19.616C9.75585 18.8873 10.1421 17.9204 10.1421 16.915C10.1421 15.9096 9.75585 14.9427 9.06312 14.214C8.37039 13.4854 7.42417 13.0508 6.42007 13ZM6.00007 17.09L5.37007 19.2L4.54007 19.62L5.16007 17.09L4.54007 14.57L5.37007 14.99L6.00007 17.09ZM6.00007 19.62L6.83007 17.09L6.00007 14.57L9.32007 17.09L6.00007 19.62Z" fill="#DDDDDD"/>
<path d="M12.75 3.12988L7.46997 12.4199C7.91231 12.5236 8.3369 12.692 8.72997 12.9199L12.73 5.85988L17.05 13.4299L12.75 9.05988L8.85997 12.9999C9.23704 13.2434 9.57433 13.5436 9.85997 13.8899L12.75 10.9999L17.32 15.6399L12.75 13.5699L10.4 14.6199C10.6305 15.0152 10.7991 15.4435 10.9 15.8899L12.75 15.0599L17.11 17.0599H11C10.9943 17.5216 10.9201 17.9799 10.78 18.4199H21.43L12.75 3.12988Z" fill="white"/>
</svg>
