<svg version="1.1" id="Layer_1" xmlns="http://www.w3.org/2000/svg" xmlns:xlink="http://www.w3.org/1999/xlink" x="0px" y="0px"
	 viewBox="0 0 255.1 255.1" style="enable-background:new 0 0 255.1 255.1;" xml:space="preserve">
<style type="text/css">
	.st0{fill:#FFFFFF;}
</style>
<path class="st0" d="M255.1,127.6c0,70.5-57.1,127.6-127.6,127.6C57.1,255.1,0,198,0,127.6C0,57.1,57.1,0,127.6,0
	C198,0,255.1,57.1,255.1,127.6"/>
<path d="M129.7,77.9l33,81.5l-49.9-39.3L129.7,77.9L129.7,77.9z M188.4,178.2L137.6,56c-1.4-3.5-4.3-5.4-7.9-5.4
	c-3.5,0-6.6,1.9-8.1,5.4L65.9,190H85l22.1-55.3l65.8,53.2c2.6,2.1,4.6,3.1,7,3.1c5,0,9.3-3.7,9.3-9.1
	C189.2,181.1,188.9,179.7,188.4,178.2L188.4,178.2z"/>
</svg>