<svg width="40" height="40" viewBox="0 0 40 40" fill="none" xmlns="http://www.w3.org/2000/svg">
<g clip-path="url(#clip0_23296_3746)">
<path d="M40 0H0V40H40V0Z" fill="#7AA116" fill-opacity="0.12"/>
<path fill-rule="evenodd" clip-rule="evenodd" d="M11.5 10.0034C12.327 10.0034 13 10.6772 13 11.5052C13 12.3331 12.327 13.0069 11.5 13.0069C10.673 13.0069 10 12.3331 10 11.5052C10 10.6772 10.673 10.0034 11.5 10.0034ZM11.5 14.008C12.02 14.008 12.502 13.8479 12.901 13.5756L25.295 26.0218H24V27.023H26.5C26.776 27.023 27 26.7987 27 26.5224V24.0195H26V25.311L13.598 12.8567C13.85 12.4663 14 12.0037 14 11.5052C14 10.1256 12.879 9.0023 11.5 9.0023C10.121 9.0023 9 10.1256 9 11.5052C9 12.8848 10.121 14.008 11.5 14.008ZM26 22.0172H27V19.0138H26V22.0172ZM26 18.0126H27V15.0092H26V18.0126ZM19 27.023H22V26.0218H19V27.023ZM15 27.023H18V26.0218H15V27.023ZM8 26.5224C8 25.6945 8.673 25.0207 9.5 25.0207C10.327 25.0207 11 25.6945 11 26.5224C11 27.3504 10.327 28.0241 9.5 28.0241C8.673 28.0241 8 27.3504 8 26.5224ZM26.5 11.0046C25.673 11.0046 25 10.3308 25 9.50287C25 8.67492 25.673 8.00115 26.5 8.00115C27.327 8.00115 28 8.67492 28 9.50287C28 10.3308 27.327 11.0046 26.5 11.0046ZM28.875 10.2437C28.949 10.0075 29 9.76217 29 9.50287C29 8.12329 27.879 7 26.5 7C25.121 7 24 8.12329 24 9.50287C24 10.7113 24.86 11.7224 26 11.9547V14.008H27V11.9547C27.549 11.8426 28.024 11.5442 28.379 11.1357C31.275 13.6436 33 17.0255 33 20.3313C33 27.0801 27.034 32.9989 20.233 32.9989C16.926 32.9989 13.649 31.3229 11.131 28.4036C11.539 28.0482 11.838 27.5726 11.949 27.023H14V26.0218H11.949C11.717 24.8805 10.708 24.0195 9.5 24.0195C8.121 24.0195 7 25.1428 7 26.5224C7 27.902 8.121 29.0253 9.5 29.0253C9.759 29.0253 10.004 28.9742 10.239 28.9001C12.966 32.1379 16.572 34 20.233 34C27.567 34 34 27.6127 34 20.3313C34 16.6761 32.085 12.9508 28.875 10.2437Z" fill="#7AA116"/>
</g>
<rect x="0.5" y="0.5" width="39" height="39" stroke="#7AA116"/>
<defs>
<clipPath id="clip0_23296_3746">
<rect width="40" height="40" fill="white"/>
</clipPath>
</defs>
</svg>
