<svg id="Layer_1" data-name="Layer 1" xmlns="http://www.w3.org/2000/svg" viewBox="0 0 360 360" width='360' height='360'><defs><style>.cls-1,.cls-3{fill:none;}.cls-2{fill:#fff;}.cls-3{stroke:#000;stroke-linecap:round;stroke-linejoin:round;stroke-width:0;}</style></defs><path class="cls-1" d="M196.98106,263.71589a226.41737,226.41737,0,0,0-5.5846-33.04852c-.81152-3.35364-1.79773-4.517-5.6239-4.30573-15.57824.85993-27.88537-8.29632-32.10925-23.57025-.79431-2.87207-2.20966-3.48089-4.92279-3.61944-10.84589-.5542-21.72766-.96094-32.49695-2.24793-4.31323-.5155-8.23779-.88641-11.28644.94776a24.33517,24.33517,0,0,1-7.947,8.98956,6.6627,6.6627,0,0,0,.36548,4.95209,187.155,187.155,0,0,1,10.42694,47.45727,5.12822,5.12822,0,0,0,1.36224,3.48828,24.20238,24.20238,0,0,1,17.9267,20.25238,4.222,4.222,0,0,0,3.48621,1.29352c12.30542.48279,24.60327,1.86884,36.90081,1.19916,2.73761-.14911,10.82581-1.11176,10.82581-1.11176A24.22709,24.22709,0,0,1,196.30424,267.085C197.03715,266.33632,197.12522,265.31941,196.98106,263.71589Z"/><path class="cls-1" d="M265.79759,161.37971a197.61367,197.61367,0,0,1-8.54889-40.71789,4.65761,4.65761,0,0,0-1.34326-3.30774,24.22885,24.22885,0,0,1-18.30957-14.683,4.62163,4.62163,0,0,0-5.59833-1.51782,425.98981,425.98981,0,0,1-43.46027,2.37537,4.14081,4.14081,0,0,0-3.99731,1.8363,24.24682,24.24682,0,0,1-14.56861,16.08685,5.10089,5.10089,0,0,0-.836,4.75025,320.60439,320.60439,0,0,0,7.46411,32.69385q.02426.21606.06744.42944a4.9757,4.9757,0,0,0,5.86316,3.89075,30.88537,30.88537,0,0,1,31.71588,21.36c1.17609,3.46124,2.66766,4.02924,5.7146,3.69507,10.97253-1.20319,21.95062-2.36633,32.942-3.38074a3.14537,3.14537,0,0,0,2.54644-1.17047h-.00006a24.16388,24.16388,0,0,1,10.4339-18.2138A5.50767,5.50767,0,0,0,265.79759,161.37971Z"/><path class="cls-2" d="M102.20042,280.629c-.10156.01269-.19367.048-.29285.06689.14984-.02862.298-.06262.45185-.07641C102.3065,280.62422,102.25321,280.62239,102.20042,280.629Z"/><path class="cls-2" d="M98.15153,285.82844l.00006.00336a10.15933,10.15933,0,0,0,.12616,1.55713,10.1523,10.1523,0,0,1-.126-1.55713Z"/><path class="cls-2" d="M103.29374,291.40815a5.9675,5.9675,0,0,1-2.55469-.43371A5.96733,5.96733,0,0,0,103.29374,291.40815Z"/><path class="cls-2" d="M103.39787,280.63466a5.40143,5.40143,0,0,1,1.00067.13885,5.41235,5.41235,0,0,0-1.00092-.139,4.65217,4.65217,0,0,0-.83221-.0274,4.6532,4.6532,0,0,1,.83234.02746Z"/><path class="cls-2" d="M196.28831,290.83229l-.00006.00226a7.13672,7.13672,0,0,0,.09247,1.16168,7.143,7.143,0,0,1-.09241-1.16168Z"/><path class="cls-2" d="M196.97679,293.64686c.877,1.41248,2.60565,2.12042,5.2644,2.2121a4.9608,4.9608,0,0,0,.54572.0235,4.95972,4.95972,0,0,1-.54566-.0235C199.5825,295.76716,197.8538,295.05934,196.97679,293.64686Z"/><path class="cls-2" d="M206.99522,289.9842c-.00385-.06244-.02344-.11938-.02954-.18109a4.84971,4.84971,0,0,1,.02844.79395A4.88967,4.88967,0,0,0,206.99522,289.9842Z"/><path class="cls-2" d="M201.08116,285.40681c-.04761.00293-.09089.01843-.13807.02265.11255-.01.2262-.01557.34-.02039C201.21574,285.4106,201.14842,285.40266,201.08116,285.40681Z"/><path class="cls-2" d="M61.10136,92.275a5.36165,5.36165,0,0,1-.93036-.37635A5.36165,5.36165,0,0,0,61.10136,92.275Z"/><path class="cls-2" d="M64.21391,92.629c.11566-.00977.22186-.04492.33478-.06256-.13447.02106-.26532.05493-.40271.06445C64.16862,92.62935,64.19132,92.63093,64.21391,92.629Z"/><path class="cls-2" d="M225.71079,292.28834c.03846-.54468.0918-1.08557.0918-1.64013A13.76113,13.76113,0,0,1,225.71079,292.28834Z"/><path class="cls-2" d="M166.70616,98.08674c-.01319-.11426-.0514-.2182-.07215-.32959.02362.12671.06153.24878.07508.37836C166.70738,98.11927,166.708,98.10292,166.70616,98.08674Z"/><path class="cls-2" d="M108.55857,286.24379c.00232-.0561-.00207-.11078-.00146-.16651-.0008.0744-.0025.14862-.00629.22235C108.5518,286.28053,108.55778,286.263,108.55857,286.24379Z"/><path class="cls-2" d="M161.29569,93.79451l-.00268.00006q-.06354-.00055-.12714.00042c-.15509.00245-.30072.03687-.45208.0528a5.03926,5.03926,0,0,1,.57922-.0531Z"/><path class="cls-2" d="M164.94529,103.13478a6.76486,6.76486,0,0,1-2.47955,1.175A6.76391,6.76391,0,0,0,164.94529,103.13478Z"/><path class="cls-2" d="M164.94529,103.13478a4.49115,4.49115,0,0,0,1.08978-1.23761A4.49029,4.49029,0,0,1,164.94529,103.13478Z"/><path class="cls-2" d="M166.62077,100.27144a4.76708,4.76708,0,0,1-.5857,1.62573A4.76754,4.76754,0,0,0,166.62077,100.27144Z"/><path class="cls-2" d="M78.50926,187.29652v.00006c.09045,2.00189.71331,3.5921,2.07269,4.45923C79.22257,190.88868,78.59971,189.29841,78.50926,187.29652Z"/><path class="cls-2" d="M264.54441,95.22358a10.40656,10.40656,0,0,0,.28327-1.02624,10.843,10.843,0,0,0,.01757-1.189,10.84194,10.84194,0,0,1-.01757,1.189A10.40773,10.40773,0,0,1,264.54441,95.22358Z"/><path class="cls-2" d="M260.4282,88.26149c-.07141-.00989-.14191-.01148-.213-.01856.11011.01093.21979.01831.3305.03607Q260.487,88.26958,260.4282,88.26149Z"/><path class="cls-2" d="M300.36,271.94862h.00012a4.47,4.47,0,0,0-.84809-.0249c-.00824.00055-.01574.00342-.024.004a4.477,4.477,0,0,1,.87195.02093Z"/><path class="cls-2" d="M300.97782,282.68324c.05707-.0033.11206-.01325.16864-.01825-.06237.00549-.12371.01495-.1867.01831C300.9658,282.683,300.97178,282.68361,300.97782,282.68324Z"/><path class="cls-2" d="M274.58976,186.12983c.00568.10059.034.19342.04614.292-.01751-.14234-.04162-.28309-.04522-.42823C274.59184,186.03907,274.5872,186.08442,274.58976,186.12983Z"/><path class="cls-2" d="M306.03629,277.00715c-.00347-.06054-.01391-.11877-.01934-.17871.006.06647.01593.13184.01947.19892C306.03605,277.02058,306.03666,277.014,306.03629,277.00715Z"/><path class="cls-2" d="M279.30131,190.3404l.00159.00007a4.423,4.423,0,0,0,.65387.06134c.03924.00073.0758-.0091.11486-.0094a4.40391,4.40391,0,0,1-.76879-.052Z"/><path class="cls-2" d="M284.45371,186.07325l-.00024.00263.00031-.00257h-.00007q.0358-.32253.04169-.62512Q284.48927,185.751,284.45371,186.07325Z"/><path class="cls-2" d="M352.05686,265.328a4.73274,4.73274,0,0,0-.40258-1.33722h.00006c-1.1767-2.99115-3.68268-3.54443-6.77039-2.59808-6.22229,1.907-12.56439,3.43732-18.744,5.46582a4.36777,4.36777,0,0,1-3.94537.00256,24.23138,24.23138,0,0,0-17.045-13.24145,6.63154,6.63154,0,0,1-1.62335-4.11585,203.20885,203.20885,0,0,0-9.89637-39.32879,6.55282,6.55282,0,0,1-.4118-4.82977,24.18259,24.18259,0,0,0,10.36841-17.45575,10.39818,10.39818,0,0,1,6.65368-3.12006c12.60706-2.48383,24.99775-5.894,37.29438-9.61963,3.12658-.9472,5.28387-2.89862,4.28448-6.39361-1.01019-3.53339-3.82031-3.95765-7.00439-3.00971-1.5553.46307-3.11371.91583-4.66651,1.38666-11.43847,3.46771-23.05621,6.233-34.71588,8.83587a4.48406,4.48406,0,0,1-3.81579-.32995,24.01309,24.01309,0,0,0-24.81641-14.2113,4.333,4.333,0,0,1-1.79834-2.66919,269.12413,269.12413,0,0,1-8.09625-37.58973,5.86158,5.86158,0,0,1,.91351-4.77954,24.20772,24.20772,0,0,0,16.21613-20.6936l63.61779-16.3634c3.20978-.98322,5.08631-3.01331,4.13282-6.47992-.94733-3.44507-3.81073-3.38538-6.64875-2.95514a15.62467,15.62467,0,0,0-2.07745.634,556.87465,556.87465,0,0,1-57.00592,13.53131,6.36355,6.36355,0,0,1-3.90741-.11084,24.28556,24.28556,0,0,0-14.72778-13.38989c-.15485-.05035-.31556-.08649-.47162-.13379.18677-1.23676,1.65057-10.93,2.163-14.25671a169.805,169.805,0,0,1,11.50769-43.5246c1.34967-3.07636,1.3227-5.707-1.99249-7.31854-3.43732-1.67115-5.44678.24286-6.8551,3.17669-.46979.97827-.89929,1.97657-1.3266,2.97455-7.52313,17.56653-10.47382,35.95557-14.21008,54.85767a5.69943,5.69943,0,0,1-1.619,3.656,24.20992,24.20992,0,0,0-18.48767,19.739,3.89168,3.89168,0,0,1-3.56732,1.72436c-11.76258.7381-23.51362,1.6579-35.26874,2.51239l-5.449.0445a7.39145,7.39145,0,0,1-7.4306-2.02588A24.25105,24.25105,0,0,0,167.804,75.676a4.95165,4.95165,0,0,1-.83588-4.24414c.91833-5.70887,1.58478-11.462,2.64148-17.14374a182.30756,182.30756,0,0,1,12.76526-41.88947c1.46417-3.24481.90558-5.696-2.29505-7.19659-3.19262-1.49671-5.134.34027-6.51312,3.01166-.57916,1.12176-1.042,2.3045-1.53809,3.46783a191.13224,191.13224,0,0,0-14.4815,59.21564,7.50953,7.50953,0,0,1-1.5138,4.44092,24.24752,24.24752,0,0,0-17.74206,16.09735c-3.96088,2.20733-9.18909,1.00073-14.0838.91742-.90576-.01526-1.81043-.12122-2.71454-.19782a4.74685,4.74685,0,1,0-.69885,9.4455c4.69958.35223,9.38922.85412,14.09234,1.14038a4.31776,4.31776,0,0,1,2.66626.86847,24.213,24.213,0,0,0,20.54322,19.25946,4.28893,4.28893,0,0,1,1.29351,2.90368,211.98456,211.98456,0,0,0,8.53778,37.45661,4.14826,4.14826,0,0,1-1.76086,5.596q-.105.05464-.21289.10333a27.53972,27.53972,0,0,0-12.02649,16.8186c-.74457,3.257-2.16693,3.94226-5.20123,3.8039-12.31946-.56171-24.61048-1.41022-36.87982-2.66272A5.03827,5.03827,0,0,1,107.54,184.81a24.168,24.168,0,0,0-26.1142-22.05066q-.212.01794-.4237.03955c-1.52521-.7085-2.17878-2.10242-2.77552-4.19647a275.47513,275.47513,0,0,1-8.0061-37.04779c-.59277-4.20008-1.27771-8.19251.65564-11.05023a23.47756,23.47756,0,0,0,13.3324-10.91565,69.41817,69.41817,0,0,1,14.61462-.4101c2.91345.108,5.0365-.88409,5.57336-3.81036.60694-3.307-1.40185-5.12879-4.39636-5.75134a50.5414,50.5414,0,0,0-8.62-1.15516c-2.1872-.0697-3.551-.61358-4.30786-2.1286a23.15277,23.15277,0,0,0-2.067-7.8565,21.98864,21.98864,0,0,0-12.3371-12.43378A3.83994,3.83994,0,0,1,69.978,61.32557q.03561-.13009.08026-.25744A209.53492,209.53492,0,0,1,75.4318,36.18751a192.09912,192.09912,0,0,1,8.72986-24.45935,4.48174,4.48174,0,0,0-2.15137-6.38971A4.41852,4.41852,0,0,0,75.59751,7.4355a38.98835,38.98835,0,0,0-2.531,5.39184A205.35068,205.35068,0,0,0,60.2302,60.32277C59.808,63.00483,59.12052,64.27589,56.325,64.996A19.60632,19.60632,0,0,0,43.57517,74.4698c-2.04229,3.77826-4.37139,3.3562-7.53192,2.3175-7.04736-2.31616-14.11529-4.58178-21.23932-6.64636-2.82092-.81738-6.035-1.26764-7.21051,2.56354-1.15081,3.75024.91346,5.7218,4.35,6.76239,7.95947,2.41009,15.85486,5.04462,23.87073,7.24591a4.30249,4.30249,0,0,1,3.80725,4.15057,22.64042,22.64042,0,0,0,12.69922,17.708,23.20914,23.20914,0,0,0,4.79266,2.04944,6.73915,6.73915,0,0,1,2.81555,5.9295,197.76322,197.76322,0,0,0,8.22443,41.94343,15.22256,15.22256,0,0,1,1.02771,8.89892,24.27829,24.27829,0,0,0-8.084,10.32813,5.14633,5.14633,0,0,1-3.67968.13116,430.93278,430.93278,0,0,1-41.79486-11.668C12.268,165.051,8.95762,164.3816,7.6088,168.6205c-1.30755,4.10955,1.5243,5.6535,4.98359,6.83886a414.239,414.239,0,0,0,41.77575,11.72241c1.798.4123,3.81024.31788,5.04779,2.0705a24.2068,24.2068,0,0,0,24.05255,21.76917c.65577,0,1.29987-.047,1.94257-.09839a3.36226,3.36226,0,0,1,2.22577,2.44909A206.56287,206.56287,0,0,1,98.17466,258.6822a5.12,5.12,0,0,1-.6629,3.97638A24.24763,24.24763,0,0,0,81.02812,276.418c-3.45557,1.91858-7.77033.48651-12.044-.35138-2.65991-.52154-5.28033-1.24133-7.93665-1.78332a350.23433,350.23433,0,0,1-46.5194-12.78669c-3.01038-1.0614-5.52924-.69928-6.79474,2.3357-1.35926,3.2605.18182,5.58343,3.31244,6.8974.9992.41943,2.06475.67962,3.09466,1.02868a406.26645,406.26645,0,0,0,60.46314,15.21192,6.9087,6.9087,0,0,1,4.58142,2.23633,24.20778,24.20778,0,0,0,15.743,19.64325c1.5675,1.85516,1.46167,4.1701.733,7.27807a281.491,281.491,0,0,1-8.22,31.42676c-1.02179,2.84015-1.08594,5.95172,2.57965,7.21967,3.89209,1.34637,5.63086-1.15265,6.82428-4.30188.31946-.843.69635-1.66919.95-2.53144a227.74519,227.74519,0,0,0,8.00714-34.28167,6.22469,6.22469,0,0,1,1.34052-3.70069,24.21747,24.21747,0,0,0,18.49072-15.01013,4.75862,4.75862,0,0,1,4.15491-1.18689,420.99515,420.99515,0,0,0,45.11413,1.77136,4.59224,4.59224,0,0,1,3.29987.97779,24.23513,24.23513,0,0,0,15.4331,16.92675,3.82036,3.82036,0,0,1,.31452,3.20484,257.64779,257.64779,0,0,1-7.73218,29.88324c-1.17407,3.29925-2.08679,6.59814,2.12195,8.16308,4.07013,1.51361,5.77887-1.15484,6.98938-4.63324a195.12061,195.12061,0,0,0,7.96216-30.9068,7.2042,7.2042,0,0,1,2.15124-4.65588,24.07294,24.07294,0,0,0,11.58991-5.22876,15.69932,15.69932,0,0,0,2.16345-2.059,24.11534,24.11534,0,0,0,6.04455-11.41858c.07258-.33386.10834-.67993.16761-1.01849l13.65277-2.82959a4.46836,4.46836,0,0,0,3.85858-5.0044q-.006-.04641-.013-.09271a4.12781,4.12781,0,0,0-4.66254-4.2002c-3.26184.08295-6.52826.527-9.75573.66309-2.68561.11328-3.07764.28284-4.04194-.56573a24.24117,24.24117,0,0,0-16.46191-15.38721,3.6178,3.6178,0,0,1-1.16534-2.64984,193.63839,193.63839,0,0,0-6.86054-39.42627c-.59167-1.99469.23474-2.89716,1.78064-3.92957a30.527,30.527,0,0,0,13.58875-20.117,3.45074,3.45074,0,0,1,3.50036-3.40039q.14063.002.28076.0155,16.79947-1.28843,33.54541-3.23151a6.28889,6.28889,0,0,1,4.96888.96747,24.041,24.041,0,0,0,24.55639,13.87879,5.34584,5.34584,0,0,1,2.13355,3.11828,266.27824,266.27824,0,0,1,9.85766,38.83033,3.0121,3.0121,0,0,1-.523,2.7315,24.22158,24.22158,0,0,0-17.26428,20.78827c-2.63867,3.15637-6.89062,3.65106-11.50683,4.15057-1.62348.1756-3.25971.29017-4.86365.57874-3.22534.58014-5.47016,2.14612-4.91034,5.84167.53357,3.523,3.15637,4.17432,6.10437,3.81629,4.4895-.54511,8.9765-1.18164,13.41827-2.022a5.57485,5.57485,0,0,1,3.93793.26068,24.27054,24.27054,0,0,0,14.819,12.891,7.14865,7.14865,0,0,1,.59516,5.97711,238.1196,238.1196,0,0,1-10.086,42.08832,4.44268,4.44268,0,0,0,2.72436,6.18219,4.58452,4.58452,0,0,0,6.49774-2.98834c.28455-.663.5885-1.3219.81385-2.00556a221.0801,221.0801,0,0,0,9.82611-43.82477,7.1303,7.1303,0,0,1,2.03979-4.99139A24.18933,24.18933,0,0,0,324.5449,278.6241a5.35435,5.35435,0,0,1,3.66364-2.32727c6.65332-1.72425,13.26855-3.60926,19.84564-5.605A4.73255,4.73255,0,0,0,352.05686,265.328ZM63.18882,101.356q-.0585.00027-.11706.00006A13.86474,13.86474,0,1,1,76.98448,87.53944q.00018.04065.00006.08124A13.76558,13.76558,0,0,1,63.18882,101.356ZM225.80259,290.64821c0,.55456-.05334,1.09545-.0918,1.64013A13.76113,13.76113,0,0,0,225.80259,290.64821ZM259.99467,79.61958a13.88922,13.88922,0,1,1-13.89508,13.88336A13.88751,13.88751,0,0,1,259.99467,79.61958Zm-98.09119,33.33014a13.9456,13.9456,0,0,1-14.29809-13.584q-.0076-.31008-.00128-.6203a13.94522,13.94522,0,1,1,14.29937,14.20429ZM83.751,201.02455A14.15641,14.15641,0,0,1,69.7786,187.24019a13.83283,13.83283,0,0,1,13.52662-14.10877q.05776-.00073.11554-.001a13.72836,13.72836,0,0,1,13.79309,13.66339A13.99773,13.99773,0,0,1,83.751,201.02455Zm19.28179,98.95569A13.92534,13.92534,0,0,1,89.3715,285.98109a14.08485,14.08485,0,0,1,13.97894-13.759h0a13.88087,13.88087,0,0,1-.31769,27.75812Zm75.27155-15.588s-8.0882.96265-10.82581,1.11176c-12.29754.66968-24.59539-.71637-36.90081-1.19916a4.222,4.222,0,0,1-3.48621-1.29352,24.20238,24.20238,0,0,0-17.9267-20.25238,5.12822,5.12822,0,0,1-1.36224-3.48828,187.155,187.155,0,0,0-10.42694-47.45727,6.6627,6.6627,0,0,1-.36548-4.95209,24.33517,24.33517,0,0,0,7.947-8.98956c3.04865-1.83417,6.97321-1.46326,11.28644-.94776,10.76929,1.287,21.65106,1.69373,32.497,2.24793,2.71313.13855,4.12848.74737,4.92279,3.61944,4.22388,15.27393,16.531,24.43018,32.10925,23.57025,3.82617-.21124,4.81238.95209,5.6239,4.30573a226.41737,226.41737,0,0,1,5.5846,33.04852c.14416,1.60352.05609,2.62043-.67682,3.36914A24.22709,24.22709,0,0,0,178.3043,284.39228Zm23.35919-7.36944.11035-.00122a13.71087,13.71087,0,0,1,13.80652,13.6145,14.20207,14.20207,0,0,1-13.91552,13.87811,14.42457,14.42457,0,0,1-13.98938-13.87079A13.9064,13.9064,0,0,1,201.66349,277.02284Zm4.36585-80.79291a21.21831,21.21831,0,0,1-22.02216,20.38275q-.15673.00156-.31348.0008a21.4948,21.4948,0,0,1-21.39141-21.59766q-.00357-.23072-.0022-.46155a21.76175,21.76175,0,0,1,21.88965-21.63312q.4107-.0065.82141.00281a21.518,21.518,0,0,1,21.02838,21.99671Q206.05464,195.57536,206.02934,196.22993Zm49.41955-12.51h.00006a3.14537,3.14537,0,0,1-2.54644,1.17047c-10.99134,1.01441-21.96943,2.17755-32.942,3.38074-3.04694.33417-4.53851-.23383-5.7146-3.69507a30.88537,30.88537,0,0,0-31.71588-21.36,4.9757,4.9757,0,0,1-5.86316-3.89075q-.04313-.21313-.06744-.42944a320.60439,320.60439,0,0,1-7.46411-32.69385,5.10089,5.10089,0,0,1,.836-4.75025A24.24682,24.24682,0,0,0,184.54,105.36494a4.14081,4.14081,0,0,1,3.99731-1.8363,425.98981,425.98981,0,0,0,43.46027-2.37537,4.62163,4.62163,0,0,1,5.59833,1.51782,24.22885,24.22885,0,0,0,18.30957,14.683,4.65761,4.65761,0,0,1,1.34326,3.30774,197.61367,197.61367,0,0,0,8.54889,40.71789,5.50767,5.50767,0,0,1,.0852,4.12641A24.16388,24.16388,0,0,0,255.44889,183.71992Zm23.98725,15.45A13.73075,13.73075,0,0,1,265.806,185.33912q-.00641-.32592.00311-.65179a13.38426,13.38426,0,0,1,13.76911-12.9881q.28728-.00576.57464.00073a13.4223,13.4223,0,0,1,13.11438,13.72333q.00009.05823-.0003.11646A13.73083,13.73083,0,0,1,279.43614,199.16987Zm34.813,78.32166a13.92466,13.92466,0,1,1,.001-.18994Q314.25034,277.39653,314.24919,277.49153Z"/><path class="cls-2" d="M284.4954,185.44819a5.31552,5.31552,0,0,0-.21362-1.65313,4.75794,4.75794,0,0,0-.66754-1.36652,5.77729,5.77729,0,0,0-.66291-.78125,9.32465,9.32465,0,0,0-1.756-1.33087c-.33355-.202-.68536-.396-1.05188-.585q-.27494-.14174-.56036-.28016c-2.3634,1.16028-4.72455,2.40235-4.915,5.55793l-.00024.00177a4.46567,4.46567,0,0,0-.07593.79376c-.0011.06335-.00287.126-.00128.1889.0036.14514.02771.28589.04522.42823a4.4412,4.4412,0,0,0,.07679.486c.03265.137.07965.26868.12481.40124.04755.13959.093.27845.15381.41211s.135.2602.20844.387c.07049.12158.13916.24255.22064.35693.08319.11682.17792.22449.272.333.09461.109.18787.21722.293.31695.101.09583.212.18109.322.26746a4.39281,4.39281,0,0,0,.35474.26062c.12292.07806.25488.14313.38629.20941.12531.06317.248.128.38056.17963a4.52139,4.52139,0,0,0,.47015.14355c.13867.03723.2749.08063.41827.10443.062.01032.12433.01728.18665.025a4.45755,4.45755,0,0,0,.79724.03527h.00153a4.40391,4.40391,0,0,0,.76879.052,4.34124,4.34124,0,0,0,.47559-.03876c.13446-.01563.27-.026.40118-.05365a4.332,4.332,0,0,0,.42365-.12268c.13458-.04291.27093-.08136.40015-.13672.12823-.055.24713-.12488.36926-.19147.1264-.06891.25488-.13415.37384-.2149.11609-.0788.2204-.17127.32855-.26074s.21918-.17572.31867-.27546c.10125-.10138.18841-.21484.27966-.32611.08832-.10766.17969-.21228.25781-.32855.07794-.11609.14069-.24182.20776-.3659a4.33933,4.33933,0,0,0,.20032-.39539c.05115-.123.08643-.25317.12671-.38208a4.19281,4.19281,0,0,0,.21869-1.22412l.00024-.00263Q284.48952,185.75072,284.4954,185.44819Z"/><path class="cls-3" d="M281.37205,190.17732a4.332,4.332,0,0,1-.42365.12268"/><path class="cls-3" d="M283.7,188.44337c.07794-.11609.14069-.24182.20776-.3659"/><path class="cls-3" d="M277.429,190.03218c-.13257-.05164-.25525-.11646-.38056-.17963"/><path class="cls-3" d="M283.16252,189.098c.10125-.10138.18841-.21484.27966-.32611"/><path class="cls-3" d="M275.98539,189.11506c-.1051-.09973-.19836-.20794-.293-.31695"/><path class="cls-3" d="M284.23478,187.3c-.04028.12891-.07556.25909-.12671.38208"/><path class="cls-3" d="M276.66215,189.64314a4.39281,4.39281,0,0,1-.35474-.26062"/><path class="cls-3" d="M282.84385,189.37349c-.10815.08947-.21246.18194-.32855.26074"/><path class="cls-3" d="M280.07163,190.39241a4.34124,4.34124,0,0,0,.47559-.03876"/><path class="cls-2" d="M278.18217,190.2621c.04468.00885.09033.01056.13525.01806-.14337-.0238-.2796-.0672-.41827-.10443C277.99516,190.20149,278.08323,190.2425,278.18217,190.2621Z"/><path class="cls-3" d="M282.14146,189.84913c-.12213.06659-.241.13648-.36926.19147"/><path class="cls-2" d="M284.39237,186.72718a4.421,4.421,0,0,0,.0611-.6513,4.41368,4.41368,0,0,1-.09155.7619C284.36942,186.79963,284.38584,186.7657,284.39237,186.72718Z"/><path class="cls-3" d="M274.99131,187.7212c-.06085-.13366-.10626-.27252-.15381-.41211"/><path class="cls-3" d="M274.6359,186.42183a4.4412,4.4412,0,0,0,.07679.486"/><path class="cls-3" d="M281.19535,180.31642a9.32465,9.32465,0,0,1,1.756,1.33087"/><path class="cls-3" d="M274.59068,185.9936c-.00159-.06292.00018-.12555.00128-.1889"/><path class="cls-3" d="M275.42039,188.46516c-.08148-.11438-.15015-.23535-.22064-.35693"/><path class="cls-3" d="M283.61424,182.42854a4.75794,4.75794,0,0,1,.66754,1.36652"/><path class="cls-2" d="M284.28178,183.79506a5.31552,5.31552,0,0,1,.21362,1.65313A5.31552,5.31552,0,0,0,284.28178,183.79506Z"/><path class="cls-3" d="M282.95133,181.64729a5.77729,5.77729,0,0,1,.66291.78125"/><path class="cls-2" d="M279.58311,179.45124h-.00006c-2.36341,1.16028-4.72467,2.40223-4.915,5.55787l-.00018.00183.00024-.00177C274.85856,181.85359,277.21971,180.61152,279.58311,179.45124Z"/><path class="cls-3" d="M279.30131,190.3404a4.45755,4.45755,0,0,1-.79724-.03527"/><path class="cls-2" d="M108.44657,284.92982c-.00872-.04248-.01733-.08465-.027-.12677a5.35431,5.35431,0,0,0-.27148-.84576c-.01739-.04181-.03509-.08283-.05347-.12409a5.37077,5.37077,0,0,0-.41626-.76391c-.02472-.03772-.05029-.074-.07592-.111a5.416,5.416,0,0,0-.54847-.67285c-.02874-.0299-.05865-.05774-.08807-.087a5.41085,5.41085,0,0,0-.67242-.57007c-.02845-.02026-.05805-.03809-.08686-.0578a5.37445,5.37445,0,0,0-.78949-.45007c-.02392-.011-.04876-.01954-.07281-.03016a5.35041,5.35041,0,0,0-.89838-.30761c-.01556-.00379-.03174-.00562-.04736-.00928a5.40143,5.40143,0,0,0-1.00067-.13885l-.00012-.00007a4.6532,4.6532,0,0,0-.83234-.02746c-.06915.00311-.13751.00616-.206.01233-.15381.01379-.302.04779-.45185.07641a4.63966,4.63966,0,0,0-.49591.11328c-.141.04352-.27594.10035-.41144.15668-.14117.05866-.28119.11615-.4154.18805-.13562.07269-.26331.15759-.39087.2431-.12109.08118-.241.16132-.354.25342-.11682.09516-.22406.20105-.33129.30713-.10627.10523-.21088.20978-.307.32507-.09363.11243-.17627.23383-.25934.35517-.08594.12567-.17065.25024-.24438.38476-.07343.1341-.13379.27619-.19416.41846-.0567.13348-.11413.265-.15857.40509a4.71343,4.71343,0,0,0-.119.49939c-.02967.14813-.0647.29443-.07984.44659-.00689.0694-.01056.139-.0144.20862a4.64155,4.64155,0,0,0,.01953.82776l.00018.00336a10.1523,10.1523,0,0,0,.126,1.55713,5.87486,5.87486,0,0,0,.62524,1.90014,3.95737,3.95737,0,0,0,.72809.95209,3.71143,3.71143,0,0,0,.46271.37537,3.9539,3.9539,0,0,0,.64526.35791,5.9675,5.9675,0,0,0,2.55469.43371l-.00012-.00006a5.40357,5.40357,0,0,0,1.00391-.11957c.01532-.00329.03131-.00476.04657-.00817a5.34,5.34,0,0,0,.90588-.29078c.0235-.00982.048-.01776.07135-.028a5.36087,5.36087,0,0,0,.801-.43634c.0279-.01831.05683-.035.08435-.05383a5.39282,5.39282,0,0,0,.68683-.55982c.02869-.0274.05823-.05395.08625-.082a5.40862,5.40862,0,0,0,.56506-.66668c.02478-.03443.04993-.06855.074-.10364a5.38526,5.38526,0,0,0,.43463-.76245q.02683-.05731.05237-.11524a5.34427,5.34427,0,0,0,.29041-.84808c.00982-.03912.01861-.07861.02759-.1181a5.36537,5.36537,0,0,0,.12707-.91584c.00379-.07373.00549-.14795.00629-.22235.00085-.07953.00043-.15863-.00214-.23736A5.4053,5.4053,0,0,0,108.44657,284.92982Z"/><path class="cls-3" d="M98.132,285.00068a4.64155,4.64155,0,0,0,.01953.82776"/><path class="cls-3" d="M108.05338,288.29689a5.38526,5.38526,0,0,1-.43463.76245"/><path class="cls-3" d="M108.39616,287.33357a5.34427,5.34427,0,0,1-.29041.84808"/><path class="cls-2" d="M98.15733,284.63466c-.007.05224-.00568.105-.01093.1574.01514-.15216.05017-.29846.07984-.44659C98.20664,284.44343,98.17082,284.53425,98.15733,284.63466Z"/><path class="cls-3" d="M105.25,290.98957a5.34,5.34,0,0,1-.90588.29078"/><path class="cls-3" d="M106.89347,289.91163a5.39282,5.39282,0,0,1-.68683.55982"/><path class="cls-3" d="M107.54478,289.163a5.40862,5.40862,0,0,1-.56506.66668"/><path class="cls-3" d="M108.55082,286.29963a5.36537,5.36537,0,0,1-.12707.91584"/><path class="cls-3" d="M106.12229,290.52528a5.36087,5.36087,0,0,1-.801.43634"/><path class="cls-3" d="M107.05393,282.28547c-.02874-.0299-.05865-.05774-.08807-.087"/><path class="cls-3" d="M106.29344,281.62843c-.02845-.02026-.05805-.03809-.08686-.0578"/><path class="cls-3" d="M104.39854,280.77351c.01562.00366.0318.00549.04736.00928"/><path class="cls-3" d="M102.56541,280.60713c-.06915.00311-.13751.00616-.206.01233"/><path class="cls-3" d="M105.34428,281.0904c.02405.01062.04889.01917.07281.03016"/><path class="cls-3" d="M108.14805,283.95729c-.01739-.04181-.03509-.08283-.05347-.12409"/><path class="cls-3" d="M108.44657,284.92982c-.00872-.04248-.01733-.08465-.027-.12677"/><path class="cls-2" d="M108.555,285.83992c.00257.07873.003.15783.00214.23736.00061-.05951.00635-.11773.005-.17767C108.56169,285.87916,108.55564,285.8603,108.555,285.83992Z"/><path class="cls-3" d="M98.34525,283.84608c.04444-.14007.10187-.27161.15857-.40509"/><path class="cls-2" d="M103.29374,291.40815h.00012a5.41019,5.41019,0,0,0,1.00367-.11963,5.40357,5.40357,0,0,1-1.00391.11957Z"/><path class="cls-3" d="M107.67832,283.06929c-.02472-.03772-.05029-.074-.07592-.111"/><path class="cls-3" d="M98.94236,282.63777c-.08594.12567-.17065.25024-.24438.38476"/><path class="cls-3" d="M99.83994,281.6504c.113-.0921.23292-.17224.354-.25342"/><path class="cls-3" d="M101.90757,280.69587a4.63966,4.63966,0,0,0-.49591.11328"/><path class="cls-3" d="M101.00022,280.96583c-.14117.05866-.28119.11615-.4154.18805"/><path class="cls-3" d="M99.50865,281.95753c-.10627.10523-.21088.20978-.307.32507"/><path class="cls-2" d="M87.8704,184.18971c-.03955-.08624-.06579-.18463-.10974-.26679a4.15369,4.15369,0,0,0-.30328-.48468,4.54811,4.54811,0,0,0-3.83973-1.70935,6.13939,6.13939,0,0,0-2.32366.35389,3.809,3.809,0,0,0-1.9314,1.63775,5.72854,5.72854,0,0,0-.73041,2.1181,9.94971,9.94971,0,0,0-.12292,1.45789c.09045,2.00189.71331,3.59216,2.07269,4.45929a4.50593,4.50593,0,0,0,1.61249.61462,6.70644,6.70644,0,0,0,1.1593.10816v-.00012a4.6766,4.6766,0,0,0,4.00879-1.61689,4.13755,4.13755,0,0,0,.31909-.47869,5.58194,5.58194,0,0,0,.64471-1.98517,9.22473,9.22473,0,0,0,.101-1.4339,7.99889,7.99889,0,0,0-.14978-1.50012A5.82268,5.82268,0,0,0,87.8704,184.18971Z"/><path class="cls-2" d="M83.35374,192.47847v.00012a4.67641,4.67641,0,0,0,4.00879-1.617A4.6766,4.6766,0,0,1,83.35374,192.47847Z"/><path class="cls-3" d="M87.68162,190.38289a4.13755,4.13755,0,0,1-.31909.47869"/><path class="cls-3" d="M81.294,182.08278a6.13939,6.13939,0,0,1,2.32366-.35389"/><path class="cls-3" d="M88.32633,188.39772a9.22473,9.22473,0,0,0,.101-1.4339"/><path class="cls-2" d="M87.45738,183.43824a4.54771,4.54771,0,0,0-3.83973-1.70935A4.54811,4.54811,0,0,1,87.45738,183.43824Z"/><path class="cls-3" d="M87.45738,183.43824a4.15369,4.15369,0,0,1,.30328.48468"/><path class="cls-3" d="M79.36259,183.72053a3.809,3.809,0,0,1,1.9314-1.63775"/><path class="cls-3" d="M88.42729,186.96382a7.99889,7.99889,0,0,0-.14978-1.50012"/><path class="cls-2" d="M87.8704,184.18971a5.82268,5.82268,0,0,1,.40711,1.274A5.82268,5.82268,0,0,0,87.8704,184.18971Z"/><path class="cls-3" d="M78.50926,187.29652a9.94971,9.94971,0,0,1,.12292-1.45789"/><path class="cls-2" d="M66.86,83.59663a4.82312,4.82312,0,0,0-.85651-.41724,6.54631,6.54631,0,0,0-.985-.27954,8.97209,8.97209,0,0,0-1.094-.15112q-.28556-.02251-.58179-.03033a9.77266,9.77266,0,0,0-1.19311.07971,5.99614,5.99614,0,0,0-2.00275.59552c-1.4364.75189-2.25861,2.16491-2.2218,4.40515a5.01856,5.01856,0,0,0,.83221,2.91516,3.71806,3.71806,0,0,0,.77069.79071,4.29255,4.29255,0,0,0,.643.394,5.36165,5.36165,0,0,0,.93036.37635,8.756,8.756,0,0,0,2.025.32232,4.81227,4.81227,0,0,0,.88635.03723c.0445-.00183.08912-.00061.13331-.00366.13739-.00952.26824-.04339.40271-.06445a4.81144,4.81144,0,0,0,.55609-.10388c.14459-.04059.28033-.10181.41961-.1554.15064-.058.30341-.10882.44684-.18121.1424-.072.27307-.163.40741-.24835.12659-.08057.25635-.15448.37488-.2464.12231-.09485.23035-.20618.34314-.31238s.22912-.207.33142-.324c.09814-.11212.17987-.23822.26752-.35955a4.721,4.721,0,0,0,.27215-.393c.07959-.13733.13965-.28711.20575-.43323.06195-.13684.13129-.26812.18061-.412a4.88384,4.88384,0,0,0,.13568-.54761c.029-.13355.07049-.26264.08807-.39972.00562-.04382.007-.08826.01135-.13239a4.8041,4.8041,0,0,0,.01447-.88726,5.754,5.754,0,0,0-.038-1.15308A3.5953,3.5953,0,0,0,66.86,83.59663Z"/><path class="cls-3" d="M68.60368,87.43007a4.8041,4.8041,0,0,1-.01447.88726"/><path class="cls-3" d="M68.35411,89.397c-.04932.14392-.11866.2752-.18061.412"/><path class="cls-3" d="M64.146,92.63093c-.04419.003-.08881.00183-.13331.00366"/><path class="cls-2" d="M68.572,88.51765c.00324-.02252.00293-.04535.00586-.06793-.01758.13708-.05908.26617-.08807.39972C68.51408,88.73732,68.55546,88.63295,68.572,88.51765Z"/><path class="cls-3" d="M65.10478,92.4626a4.81144,4.81144,0,0,1-.55609.10388"/><path class="cls-3" d="M62.14964,82.79811a5.99614,5.99614,0,0,0-2.00275.59552"/><path class="cls-3" d="M66.37864,91.87764c.12659-.08057.25635-.15448.37488-.2464"/><path class="cls-3" d="M66.00352,83.17939a4.82312,4.82312,0,0,1,.85651.41724"/><path class="cls-3" d="M65.97123,92.126c-.14343.07239-.2962.12323-.44684.18121"/><path class="cls-3" d="M67.09666,91.31886c.11279-.10626.22912-.207.33142-.324"/><path class="cls-2" d="M63.34269,82.7184a9.77166,9.77166,0,0,0-1.193.07971,9.77266,9.77266,0,0,1,1.19311-.07971Z"/><path class="cls-3" d="M68.56565,86.277a5.754,5.754,0,0,1,.038,1.15308"/><path class="cls-3" d="M66.86,83.59663A3.5953,3.5953,0,0,1,68.56565,86.277"/><path class="cls-3" d="M67.96775,90.24232a4.721,4.721,0,0,1-.27215.393"/><path class="cls-2" d="M166.634,97.75715a4.89052,4.89052,0,0,0-.12774-.58386c-.04621-.14539-.11445-.28033-.17365-.41986a2.911,2.911,0,0,0-.46918-.85773c-.085-.12378-.16211-.25207-.258-.36743-.10126-.12183-.21991-.22748-.33264-.33911-.11084-.10974-.21509-.22455-.33625-.32349-.118-.09643-.25073-.17456-.37793-.25988a4.79316,4.79316,0,0,0-.40436-.262,4.90821,4.90821,0,0,0-.45953-.19763c-.13721-.05615-.26831-.12176-.41193-.16565a4.96708,4.96708,0,0,0-.59588-.12427c-.12335-.02148-.24225-.05737-.36817-.06927-.0379-.0036-.07592-.00305-.11383-.00574a4.886,4.886,0,0,0-.90918.01325l-.00268.00018a5.03926,5.03926,0,0,0-.57922.0531,5.17539,5.17539,0,0,0-.51557.06024,4.99341,4.99341,0,0,0-.48254.14508c-.15973.05036-.323.0907-.47559.15589-.15527.06634-.29718.15515-.44409.236-.142.07806-.2887.14709-.42212.23785-.13806.094-.26.20764-.38806.31433-.1239.10334-.25366.19861-.36731.313-.11566.11646-.21253.2497-.31665.37677-.1037.12659-.21405.24616-.30548.38245-.09125.136-.16095.28625-.23908.43115-.07849.14563-.16491.28534-.22931.439-.06475.15455-.10492.32044-.15448.48224-.0487.15876-.10675.31263-.14.47766a5.21528,5.21528,0,0,0-.05743.52259,5.029,5.029,0,0,0-.04865.57373v.00006a5.53006,5.53006,0,0,0,.28644,1.869,4.70455,4.70455,0,0,0,1.20672,1.87536,5.37684,5.37684,0,0,0,.42292.3653,7.94346,7.94346,0,0,0,3.39337,1.425q.53778-.08982,1.02887-.22058a6.76486,6.76486,0,0,0,2.47955-1.175,4.49029,4.49029,0,0,0,1.08978-1.23761,4.76708,4.76708,0,0,0,.5857-1.62573,6.40739,6.40739,0,0,0,.09063-1.11139,4.88251,4.88251,0,0,0,.00428-.91425c-.003-.03674-.00275-.07379-.00659-.11029C166.69554,98.00593,166.65763,97.88386,166.634,97.75715Z"/><path class="cls-2" d="M162.36613,93.78938c-.01575-.00165-.03168-.00086-.04743-.00238.12592.0119.24482.04779.36817.06927C162.57847,93.83741,162.47721,93.8011,162.36613,93.78938Z"/><path class="cls-3" d="M161.29569,93.79451a4.886,4.886,0,0,1,.90918-.01325"/><path class="cls-3" d="M160.19822,93.908a5.17539,5.17539,0,0,1,.51557-.06024"/><path class="cls-3" d="M157.30186,95.6869c-.1037.12659-.21405.24616-.30548.38245"/><path class="cls-3" d="M156.7573,96.5005c-.07849.14563-.16491.28534-.22931.439"/><path class="cls-3" d="M163.28275,93.98054c.14362.04389.27472.1095.41193.16565"/><path class="cls-3" d="M156.2335,97.89936c.03326-.165.09131-.3189.14-.47766"/><path class="cls-3" d="M158.37388,94.68281c.13342-.09076.28009-.15979.42212-.23785"/><path class="cls-3" d="M157.98582,94.99714c-.1239.10334-.25366.19861-.36731.313"/><path class="cls-3" d="M159.24009,94.209c.15259-.06519.31586-.10553.47559-.15589"/><path class="cls-2" d="M157.62058,102.74012a4.70455,4.70455,0,0,1-1.20672-1.87536A4.70455,4.70455,0,0,0,157.62058,102.74012Z"/><path class="cls-2" d="M156.12742,98.99568a5.029,5.029,0,0,1,.04865-.57373c-.01453.14959-.04767.29358-.04908.44671q-.00063.06363.00043.12714a5.52942,5.52942,0,0,0,.28644,1.869,5.53006,5.53006,0,0,1-.28644-1.869Z"/><path class="cls-3" d="M158.0435,103.10542a5.37684,5.37684,0,0,1-.42292-.3653"/><path class="cls-3" d="M166.13468,96.30543a4.88835,4.88835,0,0,1,.19794.448"/><path class="cls-3" d="M165.86344,95.8957c-.085-.12378-.16211-.25207-.258-.36743"/><path class="cls-3" d="M166.50627,97.17329a4.89052,4.89052,0,0,1,.12774.58386"/><path class="cls-3" d="M166.71568,98.2458c-.003-.03674-.00275-.07379-.00659-.11029"/><path class="cls-3" d="M164.15421,94.34382a4.79316,4.79316,0,0,1,.40436.262"/><path class="cls-3" d="M164.9365,94.86567c.12116.09894.22541.21375.33625.32349"/><path class="cls-2" d="M259.36112,98.773a4.31339,4.31339,0,0,0,2.5644-.23822,3.75853,3.75853,0,0,0,.79-.47479,5.19767,5.19767,0,0,0,1.445-1.8819,8.23306,8.23306,0,0,0,.38391-.95453,10.40773,10.40773,0,0,0,.28327-1.0263,10.84194,10.84194,0,0,0,.01757-1.189,6.492,6.492,0,0,0-.38665-2.04156,3.84062,3.84062,0,0,0-1.79016-2.07538,5.673,5.673,0,0,0-2.12122-.61212l-.00153-.00025c-.11071-.01776-.22039-.02514-.3305-.03607-.09772-.00976-.19537-.021-.29248-.02551-.08856-.00409-.17615-.00214-.2641-.002-.09638.00013-.19287-.00115-.28839.004-.08875.00476-.17621.01544-.264.02448-.09271.00958-.18555.01764-.277.0318-.08862.01373-.17554.033-.26288.051-.08838.01813-.177.03485-.264.05725-.08729.02252-.17261.05042-.25837.077-.08429.02618-.16888.0509-.25158.081-.08478.03089-.16718.067-.25013.10187-.08044.03388-.16131.06628-.23992.10388-.08075.03858-.15888.08209-.23755.12451-.07691.04145-.15436.08161-.22919.12659-.07562.04553-.14826.0957-.22162.14472s-.14764.0971-.21869.14965c-.06982.0517-.13617.10767-.20349.16254-.06958.0567-.13971.1123-.20648.17242-.06409.05762-.12445.11933-.18585.18-.06421.06347-.12921.126-.19037.19262-.05853.06385-.113.13147-.16858.19806-.058.06952-.1167.138-.17133.21045-.05249.0697-.10064.143-.15.2154-.051.07489-.10291.14868-.15033.22631-.04614.0755-.08746.15448-.13013.23255-.04339.07959-.088.15814-.12762.24023s-.07391.16724-.10956.25159c-.03491.08264-.071.16431-.10211.24914-.03223.08832-.05878.17957-.08673.27015-.02643.08581-.05438.17059-.07678.25836-.02344.09179-.04071.18628-.05964.28015-.02227.11078-.04779.22028-.06347.33374a5.72957,5.72957,0,0,0-.0954.66162,4.80924,4.80924,0,0,0-.01263.61572,4.02893,4.02893,0,0,0,.19964,1.0987C254.98026,97.36866,257.22349,98.38569,259.36112,98.773Z"/><path class="cls-3" d="M256.39518,89.29316c.07105-.05255.1452-.10052.21869-.14965"/><path class="cls-3" d="M255.98521,89.62812c.06677-.06012.1369-.11572.20648-.17242"/><path class="cls-3" d="M254.96879,90.851c.04742-.07763.0993-.15142.15033-.22631"/><path class="cls-2" d="M262.66844,88.89137a5.67189,5.67189,0,0,0-2.12122-.61218l-.00153-.00019.00153.00025A5.673,5.673,0,0,1,262.66844,88.89137Z"/><path class="cls-3" d="M255.26908,90.40925c.05463-.07245.11335-.14093.17133-.21045"/><path class="cls-3" d="M255.609,90.00074c.06116-.06665.12616-.12915.19037-.19262"/><path class="cls-2" d="M264.4586,90.96675a6.492,6.492,0,0,1,.38665,2.04156A6.49168,6.49168,0,0,0,264.4586,90.96675Z"/><path class="cls-3" d="M257.30223,88.74769c.07861-.0376.15948-.07.23992-.10388"/><path class="cls-3" d="M254.33586,92.353c.0224-.08777.05035-.17255.07678-.25836"/><path class="cls-3" d="M257.79228,88.54194c.0827-.03009.16729-.05481.25158-.081"/><path class="cls-3" d="M258.82914,88.27571c.09149-.01416.18433-.02222.277-.0318"/><path class="cls-3" d="M258.30223,88.38392c.087-.0224.17565-.03912.264-.05725"/><path class="cls-3" d="M256.83549,88.99879c.07483-.045.15228-.08514.22919-.12659"/><path class="cls-3" d="M254.711,91.32374c.03967-.08209.08423-.16064.12762-.24023"/><path class="cls-3" d="M259.92271,88.21742c.09711.00452.19476.01575.29248.02551"/><path class="cls-3" d="M254.49937,91.82447c.03107-.08483.0672-.1665.10211-.24914"/><path class="cls-3" d="M259.37022,88.21943c.09552-.00518.192-.0039.28839-.004"/><path class="cls-2" d="M254.27622,92.63313c-.01446.0719-.034.1416-.04571.21466q-.00952.05942-.01776.119a5.73054,5.73054,0,0,0-.0954.66168,5.72957,5.72957,0,0,1,.0954-.66162C254.22843,92.85341,254.254,92.74391,254.27622,92.63313Z"/><path class="cls-3" d="M254.10472,94.24421a4.80924,4.80924,0,0,1,.01263-.61572"/><path class="cls-2" d="M306.017,276.82844c-.01044-.116-.01972-.23218-.03748-.34607-.01062-.06787-.02716-.13366-.04028-.20074-.02106-.10767-.04059-.21582-.06806-.32123-.0205-.07874-.04718-.155-.07116-.23242-.02771-.08948-.05316-.17987-.08539-.26734-.03259-.08856-.07153-.174-.10858-.26031-.03125-.07269-.05982-.14661-.09412-.21759-.04419-.09155-.09454-.17938-.14368-.268-.03466-.06244-.06671-.12616-.10376-.18707-.053-.08716-.11175-.17035-.16955-.25421-.04028-.05853-.07843-.11859-.121-.17548-.05835-.07794-.122-.15161-.18445-.22625-.04865-.05823-.0954-.11792-.14649-.174-.06048-.06646-.12567-.12835-.18939-.19171-.0592-.0589-.11676-.11914-.17871-.17529-.06091-.05511-.12591-.10577-.18933-.15814-.07025-.058-.13922-.11731-.21246-.17182-.06165-.04583-.1269-.087-.19055-.13031-.07935-.05389-.15754-.10907-.23987-.15875-.06592-.03979-.13507-.07452-.20282-.11151-.084-.0459-.16706-.09338-.25385-.13489-.07525-.036-.15368-.06628-.23089-.09887-.0824-.03473-.16346-.07166-.24793-.10236-.09186-.03339-.18677-.06012-.28094-.08856-.07318-.02216-.1449-.04724-.21942-.06629-.11023-.02826-.22358-.04876-.33661-.07006-.062-.01172-.12275-.02692-.18555-.0365-.11859-.01807-.24-.02753-.36115-.03778-.0614-.00513-.1217-.01423-.18353-.01728a5.35724,5.35724,0,0,0-.57977.001H300.36v.00006a4.477,4.477,0,0,0-.87195-.02093,4.38634,4.38634,0,0,0-.62152.10424c-.0857.0185-.17572.02295-.25977.04639a4.40233,4.40233,0,0,0-.48419.186c-.11.04511-.22638.07636-.332.12989-.09857.04992-.18476.11926-.27918.17621a2.76139,2.76139,0,0,0-.82538.64032c-.07891.07757-.16784.1441-.241.22747a4.4832,4.4832,0,0,0-.36029.50037c-.0445.06757-.1.1264-.14087.19659-.0644.11054-.10681.23468-.16181.35138a4.36968,4.36968,0,0,0-.20172.44526c-.0296.08654-.04046.18151-.06488.27063a4.427,4.427,0,0,0-.13727.6,4.48025,4.48025,0,0,0-.03033.87262c-.03736,3.79474,1.34875,6.10327,5.03216,6.00922a5.433,5.433,0,0,0,.57978-.001c.063-.00336.12433-.01282.1867-.01831.11975-.01056.23957-.02039.35706-.0387.065-.01019.12823-.02606.1925-.03857.11048-.02142.2212-.04169.32923-.06983.07709-.02008.15179-.04626.22754-.06964.091-.02813.18286-.05407.27179-.08679.08776-.03235.17236-.07092.25793-.1076.07349-.0315.14813-.06049.21991-.09516.091-.04394.17835-.094.26648-.14288.06287-.03485.12708-.0672.18835-.10443.08716-.053.17029-.11188.25422-.16962.05847-.04028.11847-.07825.17529-.12079.07794-.05835.15161-.122.22632-.18444.05822-.04871.118-.09546.17413-.14661.06647-.06049.1283-.12561.19165-.18933.05884-.05921.11914-.11676.17523-.17865.05561-.0614.10669-.127.15949-.191.05743-.06958.11621-.13776.17016-.21027.04663-.06268.08857-.129.13251-.19385.05316-.0783.10761-.15545.15668-.23669.04065-.06732.07617-.13806.114-.20727.045-.08252.09155-.16382.13226-.249.037-.07727.06824-.15771.10157-.23706.03381-.08038.06982-.15942.09979-.24182.03424-.09418.06189-.19165.09094-.28833.0213-.07068.04553-.13995.064-.21191.029-.11335.05029-.22968.072-.34589.011-.0589.02551-.11645.0346-.17609.01868-.12249.02869-.248.03907-.37329.00476-.05755.01336-.11407.01623-.17218.005-.09851.00135-.19519.001-.29266-.00031-.08917.00275-.17908-.00189-.26733C306.03288,276.96028,306.02293,276.89491,306.017,276.82844Z"/><path class="cls-3" d="M305.27293,280.09016c-.04907.08124-.10352.15839-.15668.23669"/><path class="cls-3" d="M304.98374,280.5207c-.05395.07251-.11273.14069-.17016.21027"/><path class="cls-3" d="M305.51914,279.63392c-.04071.08515-.08728.16645-.13226.249"/><path class="cls-3" d="M305.51188,274.98274c.0343.071.06287.1449.09412.21759"/><path class="cls-3" d="M304.97392,274.098c.04254.05689.08069.117.121.17548"/><path class="cls-3" d="M303.88676,281.621c-.05682.04254-.11682.08051-.17529.12079"/><path class="cls-3" d="M303.45725,281.91139c-.06127.03723-.12548.06958-.18835.10443"/><path class="cls-3" d="M305.7205,279.155c-.03.0824-.066.16144-.09979.24182"/><path class="cls-3" d="M305.26444,274.52766c.03705.06091.0691.12463.10376.18707"/><path class="cls-3" d="M304.65409,280.922c-.05609.06189-.11639.11944-.17523.17865"/><path class="cls-3" d="M306.03831,277.29469c-.00031-.08917.00275-.17908-.00189-.26733"/><path class="cls-3" d="M305.97947,276.48237c.01776.11389.027.23011.03748.34607"/><path class="cls-2" d="M295.34782,276.67512a4.48025,4.48025,0,0,1,.03033-.87262c-.0011.00849-.00457.01605-.00561.02454a4.46492,4.46492,0,0,0-.02484.84808c-.03736,3.79474,1.34869,6.10333,5.03216,6.00922H300.38C296.69657,282.77839,295.31046,280.46986,295.34782,276.67512Z"/><path class="cls-2" d="M300.38,282.68434a5.3574,5.3574,0,0,0,.57978-.001,5.433,5.433,0,0,1-.57978.001Z"/><path class="cls-3" d="M305.71458,275.46064c.03223.08747.05768.17786.08539.26734"/><path class="cls-2" d="M306.03727,277.60493c.00031-.00592-.00024-.01166.00006-.01758-.00287.05811-.01147.11463-.01623.17218C306.02537,277.70765,306.03446,277.6573,306.03727,277.60493Z"/><path class="cls-3" d="M305.87541,278.6548c-.01844.072-.04267.14123-.064.21191"/><path class="cls-3" d="M305.982,278.13282c-.00909.05964-.02362.11719-.0346.17609"/><path class="cls-3" d="M305.87113,275.9604c.02747.10541.047.21356.06806.32123"/><path class="cls-3" d="M304.28721,281.28993c-.05609.05115-.11591.0979-.17413.14661"/><path class="cls-3" d="M297.51139,272.57045c.09442-.05695.18061-.12629.27918-.17621"/><path class="cls-3" d="M298.86656,272.032a4.38634,4.38634,0,0,1,.62152-.10424"/><path class="cls-3" d="M303.44267,272.71168c.08233.04968.16052.10486.23987.15875"/><path class="cls-3" d="M303.87309,273.00074c.07324.05451.14221.11377.21246.17182"/><path class="cls-3" d="M298.1226,272.26435a4.40233,4.40233,0,0,1,.48419-.186"/><path class="cls-2" d="M300.95786,271.94752c-.006-.0003-.0119.00037-.01788.00006.06183.003.12213.01215.18353.01728C301.06791,271.96016,301.014,271.95051,300.95786,271.94752Z"/><path class="cls-3" d="M302.00682,272.1092c.07452.019.14624.04413.21942.06629"/><path class="cls-3" d="M302.50718,272.26405c.08447.0307.16553.06763.24793.10236"/><path class="cls-3" d="M302.986,272.46528c.08679.04151.1698.089.25385.13489"/><path class="cls-3" d="M301.48466,272.00264c.0628.00958.12353.02478.18555.0365"/><path class="cls-3" d="M303.00242,282.1587c-.07178.03467-.14642.06366-.21991.09516"/><path class="cls-3" d="M302.02525,282.51789c-.108.02814-.21875.04841-.32923.06983"/><path class="cls-3" d="M302.52458,282.36146c-.08893.03272-.18079.05866-.27179.08679"/><path class="cls-3" d="M296.686,273.21077a4.48232,4.48232,0,0,1,.37909-.35718"/><path class="cls-3" d="M304.643,273.6977c.05109.0561.09784.11579.14649.174"/><path class="cls-3" d="M295.51542,275.20247c.02442-.08912.03528-.18409.06488-.27063"/><path class="cls-3" d="M304.27488,273.3307c.062.05615.11951.11639.17871.17529"/><path class="cls-3" d="M295.782,274.48658c.055-.1167.09741-.24084.16181-.35138"/><path class="cls-3" d="M301.50352,282.62629c-.11749.01831-.23731.02814-.35706.0387"/><path class="cls-3" d="M296.0847,273.93861a4.4832,4.4832,0,0,1,.36029-.50037"/><path class="cls-2" d="M196.28831,290.83455a7.143,7.143,0,0,0,.09241,1.16168,4.509,4.509,0,0,0,.59607,1.65063c.877,1.41248,2.60571,2.1203,5.26446,2.2121a4.95972,4.95972,0,0,0,.54566.0235,4.06042,4.06042,0,0,0,.98895-.13117,3.50544,3.50544,0,0,0,1.23053-.59924,3.8743,3.8743,0,0,0,.6546-.6344,4.77817,4.77817,0,0,0,.52417-.79559,6.94071,6.94071,0,0,0,.64319-1.88587c.01221-.06128.02411-.12274.03515-.18493a9.96976,9.96976,0,0,0,.12507-.9975c.00146-.01917.00421-.03748.00555-.0567a4.84971,4.84971,0,0,0-.02844-.79395,4.78269,4.78269,0,0,0-.08295-.50873c-.03119-.15033-.0625-.30041-.1073-.44555a4.80075,4.80075,0,0,0-.17181-.45362c-.0611-.1444-.12232-.28863-.1966-.42572-.07409-.13684-.15912-.2644-.2456-.39312-.088-.13074-.17621-.26105-.27613-.38257-.09887-.1203-.20727-.22955-.3172-.33985-.10919-.10968-.21868-.21868-.338-.31768-.12146-.10077-.251-.189-.38214-.2779-.12769-.08648-.25549-.17224-.39166-.24664-.13721-.075-.28046-.13654-.4256-.19836a4.80566,4.80566,0,0,0-.45239-.17316c-.14533-.04529-.29474-.07721-.4458-.10907a5.209,5.209,0,0,0-1.30194-.11591,4.30025,4.30025,0,0,0-.54749-.00616c-.11377.00482-.22742.01044-.34.02039a5.00685,5.00685,0,0,0-.54406.08917c-.15479.03094-.31128.0567-.46106.10144a5.02919,5.02919,0,0,0-.47736.18133c-.15173.06263-.30554.12061-.44989.197-.14325.07587-.27453.16761-.40954.25641-.13941.09162-.28119.17969-.41083.28431-.12671.10217-.23871.2185-.35523.33221-.1167.114-.23639.22473-.342.34961-.10711.12665-.19732.26532-.29205.4024-.092.13312-.18738.26349-.26678.40564-.07923.14191-.14032.29309-.20612.44324a5.03553,5.03553,0,0,0-.19287.47546c-.04767.148-.07684.30262-.11121.45655a5.09108,5.09108,0,0,0-.10174.54376c-.01252.1123-.02057.22577-.028.33942a5.13475,5.13475,0,0,0-.0061.54486Z"/><path class="cls-3" d="M206.407,287.96949c-.07409-.13684-.15912-.2644-.2456-.39312"/><path class="cls-3" d="M205.56809,286.854c.10993.1103.21833.21955.3172.33985"/><path class="cls-3" d="M204.62962,295.40168a3.52451,3.52451,0,0,1-.85376.34961"/><path class="cls-3" d="M206.82835,291.83619c.01221-.06128.02411-.12274.03515-.18493"/><path class="cls-3" d="M205.23008,286.53627c-.12146-.10077-.251-.189-.38214-.2779"/><path class="cls-3" d="M206.60362,288.39521a4.80075,4.80075,0,0,1,.17181.45362"/><path class="cls-3" d="M206.88273,289.29438a4.78269,4.78269,0,0,1,.08295.50873"/><path class="cls-2" d="M206.99412,290.59712v-.00006c-.00134.01922-.00409.03753-.00555.0567C206.99,290.63466,206.99278,290.61628,206.99412,290.59712Z"/><path class="cls-2" d="M203.77586,295.75129a4.06042,4.06042,0,0,1-.98895.13117A4.06,4.06,0,0,0,203.77586,295.75129Z"/><path class="cls-3" d="M197.20109,287.62336c.09473-.13708.18494-.27575.29205-.4024"/><path class="cls-3" d="M196.93431,288.029c-.07923.14191-.14032.29309-.20612.44324"/><path class="cls-3" d="M196.53532,288.9477c-.04767.148-.07684.30262-.11121.45655"/><path class="cls-3" d="M197.83512,286.87135c.11652-.11371.22852-.23.35523-.33221"/><path class="cls-2" d="M196.29667,290.08522c-.00568.06726.00073.13482-.00226.20221.00739-.11365.01544-.22712.028-.33942C196.31712,289.995,196.3007,290.03779,196.29667,290.08522Z"/><path class="cls-2" d="M196.28831,290.83229a5.13475,5.13475,0,0,1,.0061-.54486A4.30856,4.30856,0,0,0,196.28831,290.83229Z"/><path class="cls-2" d="M202.4434,285.41633a4.87812,4.87812,0,0,0-.61285-.0011,4.85377,4.85377,0,0,1,.79394.03125C202.56278,285.44014,202.50584,285.42036,202.4434,285.41633Z"/><path class="cls-3" d="M203.57829,285.64021c-.14533-.04529-.29474-.07721-.4458-.10907"/><path class="cls-3" d="M204.03068,285.81337c.14514.06182.28839.12341.4256.19836"/><path class="cls-3" d="M200.399,285.51863a5.00685,5.00685,0,0,1,.54406-.08917"/><path class="cls-3" d="M199.46061,285.8014a5.02919,5.02919,0,0,1,.47736-.18133"/><path class="cls-3" d="M198.60118,286.25483c.135-.0888.26629-.18054.40954-.25641"/></svg>