<svg width="24" height="24" viewBox="0 0 24 24" fill="none" xmlns="http://www.w3.org/2000/svg">
<path d="M20.8835 10.5441C20.9781 11.1487 21.0047 11.7602 20.9643 12.3696C20.7317 15.8773 18.3215 19.0006 14.8061 20.2111C13.8104 20.5539 12.7831 20.7247 11.7634 20.7265L11.5601 21.8911C11.5626 21.9271 11.5456 21.9614 11.5152 21.9818C11.4847 22.0022 11.4451 22.0057 11.4105 21.9911L9.81091 20.5185L9.64364 20.4823L9.66891 20.3875L8.78958 19.5781C8.76153 19.5538 8.74817 19.5175 8.75426 19.4822C8.76035 19.4468 8.78501 19.4174 8.81951 19.4043L12.0321 17.9733C12.0749 17.9334 12.1426 17.9313 12.1898 17.9683C12.2369 18.0053 12.2487 18.0699 12.2172 18.1186L12.0155 19.2795C12.7947 19.2565 13.5771 19.115 14.3385 18.8529C17.2682 17.8441 19.2768 15.2412 19.4706 12.3179C19.4976 11.9122 19.4888 11.5054 19.4439 11.1012L19.4034 10.7986L20.8835 10.5441ZM4.16158 15.3539C5.12965 14.605 6.54994 14.7476 7.33387 15.6724C8.11781 16.5972 7.96853 17.9539 7.00045 18.7028C6.03237 19.4517 4.61209 19.3091 3.82816 18.3843C3.04422 17.4595 3.1935 16.1027 4.16158 15.3539ZM13.8249 10.7362C14.5244 11.699 14.2744 13.073 13.2667 13.8051C12.2589 14.5373 10.8749 14.3505 10.1754 13.3877C9.47599 12.425 9.72594 11.051 10.7337 10.3188C11.7415 9.58665 13.1255 9.77353 13.8249 10.7362ZM12.7013 2.00889L15.3222 4.42185C15.3503 4.44619 15.3636 4.48246 15.3576 4.51782C15.3515 4.55317 15.3268 4.58261 15.2923 4.59569L12.0798 6.02671C12.0369 6.06656 11.9692 6.0687 11.9221 6.03168C11.8749 5.99466 11.8631 5.93015 11.8946 5.88139L12.0755 4.84238C11.2665 4.85667 10.4529 4.99874 9.66188 5.2711C6.25624 6.44375 4.14783 9.74677 4.56696 13.112L4.59454 13.31L3.11397 13.5614C2.47891 9.4395 5.02703 5.34779 9.19422 3.91292C10.2192 3.55997 11.2775 3.38946 12.3262 3.39775L12.5517 2.10894C12.5492 2.0729 12.5662 2.03858 12.5967 2.01819C12.6271 1.99784 12.6667 1.99431 12.7013 2.00889ZM11.1559 10.8999C10.484 11.388 10.3174 12.304 10.7837 12.9458C11.25 13.5876 12.1727 13.7122 12.8445 13.2241C13.5164 12.736 13.683 11.82 13.2167 11.1782C12.7504 10.5363 11.8277 10.4118 11.1559 10.8999ZM16.9493 5.71839C17.8894 4.93769 19.3141 5.03285 20.1313 5.93094C20.9486 6.82903 20.8489 8.18996 19.9088 8.97066C18.9687 9.75136 17.5441 9.6562 16.7268 8.75811C15.9096 7.86001 16.0092 6.49908 16.9493 5.71839Z" fill="white"/>
</svg>
