<svg width="40" height="40" viewBox="0 0 40 40" fill="none" xmlns="http://www.w3.org/2000/svg">
<g clip-path="url(#clip0_23295_3265)">
<path d="M40 0H0V40H40V0Z" fill="#ED7100" fill-opacity="0.12"/>
<path fill-rule="evenodd" clip-rule="evenodd" d="M32.9939 25.4862C32.9939 24.6592 32.3209 23.9862 31.4939 23.9862H12.4939C11.6669 23.9862 10.9939 24.6592 10.9939 25.4862V27.4862C10.9939 28.3132 11.6669 28.9862 12.4939 28.9862H31.4939C32.3209 28.9862 32.9939 28.3132 32.9939 27.4862V25.4862ZM33.9939 25.4862V27.4862C33.9939 28.8642 32.8729 29.9862 31.4939 29.9862H12.4939C11.1149 29.9862 9.99388 28.8642 9.99388 27.4862V25.4862C9.99388 24.1082 11.1149 22.9862 12.4939 22.9862H31.4939C32.8729 22.9862 33.9939 24.1082 33.9939 25.4862ZM13.9939 26.9862H14.9939V25.9862H13.9939V26.9862ZM15.9939 26.9862H18.9939V25.9862H15.9939V26.9862ZM19.9939 26.9862H29.9939V25.9862H19.9939V26.9862ZM9.61387 15.7832C9.61387 15.9662 9.62587 16.1472 9.64587 16.3232C9.67687 16.5722 9.51687 16.8052 9.27387 16.8672C8.44187 17.0792 7.04688 17.7342 7.04688 19.7352L7.05187 19.9332C7.09587 20.8422 7.42787 22.4092 9.13987 22.6412L9.00588 23.6322C7.25788 23.3952 6.15288 22.0292 6.05288 19.9782L6.04688 19.7352C6.04688 17.9542 6.99988 16.5922 8.61888 16.0212C8.61588 15.9422 8.61387 15.8632 8.61387 15.7832C8.61387 13.7602 9.96887 11.6622 11.7649 10.9012C13.8719 10.0112 16.0949 10.4542 17.7229 12.0862C18.1849 12.5502 18.5719 13.1052 18.8759 13.7412C19.4769 13.3102 20.2349 13.1662 20.9559 13.3782C21.9959 13.6812 22.7009 14.6132 22.8859 15.9012C23.9639 16.1422 25.9939 16.9482 25.9939 20.7262H24.9939C24.9939 17.6812 23.6479 17.0392 22.3319 16.8132C22.0629 16.7672 21.8819 16.5152 21.9229 16.2452C21.8539 15.2852 21.3879 14.5462 20.6749 14.3382C20.1029 14.1692 19.4799 14.3952 19.0979 14.9112C18.9889 15.0602 18.8099 15.1332 18.6219 15.1092C18.4389 15.0822 18.2859 14.9552 18.2239 14.7812C17.9429 13.9842 17.5359 13.3152 17.0149 12.7922C16.3759 12.1522 14.6219 10.7752 12.1559 11.8222C10.7299 12.4252 9.61387 14.1652 9.61387 15.7832Z" fill="#ED7100"/>
</g>
<rect x="0.5" y="0.5" width="39" height="39" stroke="#ED7100"/>
<defs>
<clipPath id="clip0_23295_3265">
<rect width="40" height="40" fill="white"/>
</clipPath>
</defs>
</svg>
