<svg xmlns="http://www.w3.org/2000/svg" xmlns:xlink="http://www.w3.org/1999/xlink" viewBox="0 0 512 512"><defs><style>.cls-1{fill:#fff;}.cls-2{fill:red;}</style><symbol id="Prompt" data-name="Prompt" viewBox="0 0 482 482"><rect width="482" height="482"/><path class="cls-1" d="M180.4,202.8l-83-46c-4.2-2.3-6.9-4.4-8.3-6.2a11.21,11.21,0,0,1-2.1-7,13.33,13.33,0,0,1,13-13.1c2.2,0,5.5,1.2,10,3.6l123.6,68.8L110,271.7c-4.5,2.5-7.8,3.8-10,3.8a12.42,12.42,0,0,1-9.1-3.9,12.76,12.76,0,0,1-3.9-9.4,11.21,11.21,0,0,1,2.1-7c1.4-1.8,4.1-3.9,8.3-6.2Z"/><path class="cls-1" d="M377.9,352.6H237.2c-6.2,0-10.6-1.2-13.2-3.5a11.72,11.72,0,0,1-3.9-9.2,12.08,12.08,0,0,1,3.9-9.3q3.9-3.6,13.2-3.6H378c6.1,0,10.4,1.2,13.1,3.6a11.75,11.75,0,0,1,3.9,9.3,11.87,11.87,0,0,1-3.9,9.2C388.5,351.4,384.1,352.6,377.9,352.6Z"/></symbol><symbol id="red-2" data-name="red" viewBox="0 0 512 512"><use width="482" height="482" transform="translate(15 15)" xlink:href="#Prompt"/><path class="cls-2" d="M482,30V482H30V30H482M512,0H0V512H512Z"/></symbol></defs><g id="Layer_2" data-name="Layer 2"><g id="Red"><use width="512" height="512" xlink:href="#red-2"/></g></g></svg>