<svg width="40" height="40" viewBox="0 0 40 40" fill="none" xmlns="http://www.w3.org/2000/svg">
<g clip-path="url(#clip0_23296_3566)">
<path d="M40 0H0V40H40V0Z" fill="#C925D1" fill-opacity="0.12"/>
<path fill-rule="evenodd" clip-rule="evenodd" d="M7.05654 24.1334C6.86954 23.0974 7.13654 22.0844 7.80954 21.2794C8.49754 20.4564 9.50654 19.9834 10.5775 19.9834H22.6865L20.3185 22.3514L21.0255 23.0584L24.2465 19.8374C24.4425 19.6414 24.4425 19.3254 24.2465 19.1304L21.0255 15.9084L20.3185 16.6154L22.6865 18.9834H10.5775C9.20854 18.9834 7.92054 19.5864 7.04154 20.6384C6.18854 21.6594 5.83454 22.9984 6.07254 24.3114C6.45054 26.4044 8.44154 27.9834 10.7025 27.9834H11.9645V26.9834H10.7025C8.91654 26.9834 7.34954 25.7584 7.05654 24.1334ZM33.9965 22.6104C33.9965 27.5584 29.0235 27.9784 28.9725 27.9824L15.3975 27.9834L17.8035 30.3904L17.0965 31.0974L13.8365 27.8374C13.6415 27.6414 13.6415 27.3254 13.8365 27.1304L17.0965 23.8694L17.8035 24.5764L15.3975 26.9834H28.9365C29.0665 26.9714 32.9965 26.6204 32.9965 22.6104C32.9965 21.8774 32.8605 21.2174 32.5895 20.6484C32.2425 19.9164 31.6695 19.3194 30.8905 18.8754C30.6025 18.7104 30.2865 18.5684 29.9525 18.4514C29.6305 18.3394 29.2985 18.2534 28.9655 18.1954C28.6995 18.1494 28.5175 17.8994 28.5555 17.6324C28.5585 17.2524 28.5155 16.8824 28.4305 16.5494C28.1635 15.5034 27.4795 14.8004 26.5535 14.6194C25.6575 14.4444 24.7185 14.8164 24.1645 15.5674C24.0555 15.7164 23.8775 15.7884 23.6885 15.7654C23.5055 15.7384 23.3525 15.6124 23.2905 15.4374C22.8795 14.2714 22.2855 13.2904 21.5215 12.5234C20.5845 11.5804 18.0115 9.55639 14.3865 11.0954C12.2785 11.9904 10.4965 14.7164 10.4965 17.0484H9.49654C9.49654 14.3114 11.5155 11.2284 13.9955 10.1754C16.9015 8.94239 19.9805 9.55439 22.2305 11.8184C22.9295 12.5204 23.5025 13.3744 23.9405 14.3624C24.7165 13.7224 25.7475 13.4454 26.7445 13.6374C28.0455 13.8914 29.0385 14.8874 29.3995 16.3014C29.4785 16.6124 29.5285 16.9454 29.5485 17.2944C29.7955 17.3524 30.0415 17.4234 30.2825 17.5074C30.6735 17.6434 31.0445 17.8114 31.3865 18.0064C32.3465 18.5534 33.0555 19.2984 33.4935 20.2194C33.8275 20.9234 33.9965 21.7274 33.9965 22.6104Z" fill="#C925D1"/>
</g>
<rect x="0.5" y="0.5" width="39" height="39" stroke="#C925D1"/>
<defs>
<clipPath id="clip0_23296_3566">
<rect width="40" height="40" fill="white"/>
</clipPath>
</defs>
</svg>
