<svg width="40" height="40" viewBox="0 0 40 40" fill="none" xmlns="http://www.w3.org/2000/svg">
<g clip-path="url(#clip0_23298_4036)">
<path d="M40 0H0V40H40V0Z" fill="#E7157B" fill-opacity="0.12"/>
<path fill-rule="evenodd" clip-rule="evenodd" d="M24.023 21.7309V18.7359L21.005 20.2619V23.6019L24.023 21.7309ZM16.987 21.2489L20.005 23.5019V20.2349L16.987 18.3909V21.2489ZM17.519 17.5438L20.529 19.3819L23.491 17.8839L20.482 16.0688L17.519 17.5438ZM24.781 17.4948C24.931 17.5848 25.023 17.7478 25.023 17.9229V22.0089C25.023 22.1819 24.933 22.3429 24.787 22.4339L20.769 24.9239C20.688 24.9749 20.596 24.9999 20.505 24.9999C20.4 24.9999 20.294 24.9659 20.207 24.8999L16.188 21.8999C16.061 21.8059 15.987 21.6569 15.987 21.4999V17.4998C15.987 17.3098 16.094 17.1358 16.264 17.0518L20.283 15.0518C20.436 14.9758 20.616 14.9818 20.763 15.0708L24.781 17.4948ZM34 19.4539H29.096L31.377 16.8268L30.622 16.1718L27.622 19.6259C27.461 19.8119 27.459 20.0879 27.618 20.2759L30.618 23.8219L31.381 23.1769L29.078 20.4539H34V19.4539ZM10.377 16.1718L9.622 16.8268L11.903 19.4539H7V20.4539H11.921L9.618 23.1769L10.381 23.8219L13.381 20.2759C13.541 20.0879 13.539 19.8119 13.377 19.6259L10.377 16.1718ZM21.005 32.166V26.4999H20.005V32.172L17.376 29.17L16.624 29.829L20.128 33.829C20.223 33.938 20.36 34 20.504 34C20.649 34 20.786 33.937 20.881 33.829L24.377 29.829L23.623 29.17L21.005 32.166ZM17.385 10.9538L16.719 10.2078L20.171 7.12675C20.361 6.95775 20.648 6.95775 20.837 7.12675L24.292 10.2078L23.626 10.9538L21.005 8.61576V13.4998H20.005V8.61477L17.385 10.9538Z" fill="#E7157B"/>
</g>
<rect x="0.5" y="0.5" width="39" height="39" stroke="#E7157B"/>
<defs>
<clipPath id="clip0_23298_4036">
<rect width="40" height="40" fill="white"/>
</clipPath>
</defs>
</svg>
