<svg
   width="106.39133mm"
   height="115.09025mm"
   viewBox="0 0 106.39133 115.09025"
   version="1.1"
   id="svg201550"
   inkscape:version="1.2-dev (c68a1cf202, 2021-08-16)"
   sodipodi:docname="confidential-containers-logo-only.svg"
   inkscape:export-filename="/home/tigert/Documents/design-temp/confidential-containers/logo/confidential-containers-logo-stacked.png"
   inkscape:export-xdpi="88.529999"
   inkscape:export-ydpi="88.529999"
   xmlns:inkscape="http://www.inkscape.org/namespaces/inkscape"
   xmlns:sodipodi="http://sodipodi.sourceforge.net/DTD/sodipodi-0.dtd"
   xmlns="http://www.w3.org/2000/svg"
   xmlns:svg="http://www.w3.org/2000/svg">
  <sodipodi:namedview
     id="namedview201552"
     pagecolor="#ffffff"
     bordercolor="#666666"
     borderopacity="1.0"
     inkscape:pageshadow="2"
     inkscape:pageopacity="0.0"
     inkscape:pagecheckerboard="0"
     inkscape:document-units="mm"
     showgrid="false"
     fit-margin-top="10"
     fit-margin-left="10"
     fit-margin-right="10"
     lock-margins="true"
     fit-margin-bottom="10"
     inkscape:zoom="0.68589358"
     inkscape:cx="1134.2868"
     inkscape:cy="325.12332"
     inkscape:window-width="3840"
     inkscape:window-height="1136"
     inkscape:window-x="0"
     inkscape:window-y="27"
     inkscape:window-maximized="1"
     inkscape:current-layer="layer1" />
  <defs
     id="defs201547" />
  <g
     inkscape:label="Layer 1"
     inkscape:groupmode="layer"
     id="layer1"
     transform="translate(463.92245,-100.21543)">
    <g
       id="g203500"
       transform="translate(-317.21501,-40.129347)">
      <path
         id="path1439"
         style="opacity:1;fill:#ffffff;stroke:#005c94;stroke-width:21.8871;stroke-linecap:round;stroke-linejoin:round;stop-color:#000000;stop-opacity:1"
         inkscape:transform-center-x="-2.0702374e-05"
         inkscape:transform-center-y="-3.2239512e-06"
         transform="matrix(0.22489192,0,0,0.22489192,297.191,30.9734)"
         d="m -1737.2913,942.67731 c -20.0469,0 -163.5883,-82.87365 -173.6118,-100.23483 -10.0235,-17.36118 -10.0235,-183.10848 0,-200.46967 10.0235,-17.36118 153.5649,-100.23483 173.6118,-100.23483 20.047,0 163.5884,82.87364 173.6119,100.23482 10.0234,17.36119 10.0234,183.10849 0,200.46967 -10.0235,17.36118 -153.5649,100.23484 -173.6119,100.23484 z" />
      <path
         id="path1441"
         style="fill:#ff4d4d;fill-opacity:1;stroke-width:2.26361;stroke-linecap:round;stroke-linejoin:round;stop-color:#000000"
         d="m -93.5108,223.4354 c -0.7664,0 -21.7398,-12.109 -22.1229,-12.7727 -0.3832,-0.6638 -0.3832,-24.8819 0,-25.5456 0.3831,-0.6637 21.3565,-12.7727 22.1229,-12.7727 0.7664,0 21.7398,12.109 22.1231,12.7727 0.3831,0.6637 0.3831,24.8818 0,25.5456 -0.3833,0.6637 -21.3567,12.7727 -22.1231,12.7727 z" />
      <path
         id="path1449"
         style="fill:#b50000;stroke-width:2.26362;stroke-linecap:round;stroke-linejoin:round;stop-color:#000000"
         d="m -71.3875,185.1171 c -0.7664,0 -21.7402,12.1088 -22.1233,12.7725 -0.3833,0.6637 -0.3833,24.882 0,25.5458 0.7662,0 21.74,-12.1088 22.1233,-12.7726 0.3831,-0.6637 0.3831,-24.8822 0,-25.5457 z" />
    </g>
  </g>
</svg>