<svg width="40" height="40" viewBox="0 0 40 40" fill="none" xmlns="http://www.w3.org/2000/svg">
<g clip-path="url(#clip0_23296_3713)">
<path d="M40 0H0V40H40V0Z" fill="#7AA116" fill-opacity="0.12"/>
<path fill-rule="evenodd" clip-rule="evenodd" d="M30.0118 24.3611C30.0118 23.8021 29.5631 23.3465 29.0102 23.3465C28.4573 23.3465 28.0086 23.8021 28.0086 24.3611C28.0086 24.9202 28.4573 25.3757 29.0102 25.3757C29.5631 25.3757 30.0118 24.9202 30.0118 24.3611ZM28.4113 26.2869C27.7582 26.0779 27.2514 25.5442 27.0781 24.8684H25.5046V30.3129C27.015 29.5184 28.1198 28.0503 28.4113 26.2869ZM24.503 30.7167V24.3611C24.503 24.0811 24.7274 23.8538 25.0038 23.8538H27.0781C27.1963 23.3922 27.4688 22.9944 27.8394 22.7225C27.1893 21.5101 26.1066 20.5746 24.8255 20.116C24.5781 20.671 24.0934 21.089 23.5014 21.2452V30.9074C23.846 30.874 24.1785 30.8111 24.503 30.7167ZM22.4998 30.9074V21.2452C21.9079 21.089 21.4231 20.671 21.1757 20.116C19.8946 20.5746 18.8119 21.5101 18.1619 22.7225C18.5325 22.9944 18.8049 23.3922 18.9231 23.8538H20.9974C21.2739 23.8538 21.4982 24.0811 21.4982 24.3611V30.7167C21.8227 30.8111 22.1553 30.874 22.4998 30.9074ZM20.4966 30.3129V24.8684H18.9231C18.7498 25.5442 18.243 26.0779 17.59 26.2869C17.8814 28.0503 18.9862 29.5184 20.4966 30.3129ZM16.991 25.3757C17.5439 25.3757 17.9926 24.9202 17.9926 24.3611C17.9926 23.8021 17.5439 23.3465 16.991 23.3465C16.4381 23.3465 15.9894 23.8021 15.9894 24.3611C15.9894 24.9202 16.4381 25.3757 16.991 25.3757ZM21.999 19.288C21.999 19.8471 22.4477 20.3027 23.0006 20.3027C23.5535 20.3027 24.0022 19.8471 24.0022 19.288C24.0022 18.729 23.5535 18.2734 23.0006 18.2734C22.4477 18.2734 21.999 18.729 21.999 19.288ZM31.0134 24.3611C31.0134 25.3331 30.3354 26.1448 29.4349 26.3427C29.0954 28.656 27.5569 30.5736 25.5046 31.4513V34H24.503V31.7831C24.1765 31.8632 23.843 31.919 23.5014 31.9464V34H22.4998V31.9464C22.1583 31.919 21.8247 31.8632 21.4982 31.7831V34H20.4966V31.4513C18.4443 30.5736 16.9059 28.656 16.5663 26.3427C15.6659 26.1448 14.9878 25.3331 14.9878 24.3611C14.9878 23.242 15.8862 22.3319 16.991 22.3319C17.0701 22.3319 17.1462 22.3471 17.2234 22.3552C18.0136 20.814 19.3878 19.635 21.0164 19.1044C21.1086 18.0725 21.9579 17.2588 23.0006 17.2588C24.0433 17.2588 24.8926 18.0725 24.9848 19.1044C26.6134 19.635 27.9876 20.814 28.7779 22.3552C28.855 22.3471 28.9311 22.3319 29.0102 22.3319C30.115 22.3319 31.0134 23.242 31.0134 24.3611ZM33.9992 19.216C34.0243 20.6973 33.4443 22.1351 32.4477 23.0847L31.7606 22.3461C32.5559 21.5882 33.0186 20.4335 32.9976 19.2586C32.9976 16.9879 31.352 15.1525 29.1685 14.9465C28.8981 14.9201 28.6977 14.6796 28.7158 14.4047L28.7268 14.2302C28.7268 12.7661 27.5579 11.5749 26.1216 11.5749C25.4495 11.5749 24.8125 11.8367 24.3247 12.3115C24.2015 12.4292 24.0293 12.4789 23.866 12.4394C23.7017 12.4018 23.5675 12.2831 23.5084 12.1228C22.603 9.6654 20.2662 8.01462 17.6961 8.01462C14.2696 8.01462 11.4822 10.8545 11.4822 14.3458C11.4822 14.566 11.343 14.7628 11.1366 14.8308C9.26162 15.4528 8.0016 17.2192 8.0016 19.2272C8.0016 21.7789 10.0389 23.8538 12.5419 23.8538V24.8684C9.48598 24.8684 7 22.338 7 19.2272C7 16.9006 8.38822 14.84 10.4896 13.9897C10.6729 10.1027 13.8359 7 17.6961 7C20.4565 7 22.9836 8.63759 24.1815 11.1386C24.7564 10.7622 25.4265 10.5603 26.1216 10.5603C28.0337 10.5603 29.6042 12.0832 29.7214 13.9998C32.1903 14.4544 33.9992 16.6196 33.9992 19.216Z" fill="#7AA116"/>
</g>
<rect x="0.5" y="0.5" width="39" height="39" stroke="#7AA116"/>
<defs>
<clipPath id="clip0_23296_3713">
<rect width="40" height="40" fill="white"/>
</clipPath>
</defs>
</svg>
