<svg width="40" height="40" viewBox="0 0 40 40" fill="none" xmlns="http://www.w3.org/2000/svg">
<g clip-path="url(#clip0_23298_3906)">
<path d="M40 0H0V40H40V0Z" fill="#01A88D" fill-opacity="0.12"/>
<path fill-rule="evenodd" clip-rule="evenodd" d="M20.7857 24.5395C20.7857 24.9793 20.4332 25.3377 20.0005 25.3377C19.5678 25.3377 19.2163 24.9793 19.2163 24.5395C19.2163 24.0996 19.5678 23.7412 20.0005 23.7412C20.4332 23.7412 20.7857 24.0996 20.7857 24.5395ZM18.2148 24.5395C18.2148 25.5403 19.015 26.3558 20.0005 26.3558C20.985 26.3558 21.7872 25.5403 21.7872 24.5395C21.7872 23.5386 20.985 22.7231 20.0005 22.7231C19.015 22.7231 18.2148 23.5386 18.2148 24.5395ZM18.9779 29.9855H20.981V28.9673H18.9779V29.9855ZM17.9293 31.0209H22.0707V27.9329H17.9293V31.0209ZM16.9278 27.4238V31.53C16.9278 31.811 17.1521 32.0391 17.4286 32.0391H22.5714C22.8489 32.0391 23.0722 31.811 23.0722 31.53V27.4238C23.0722 27.1418 22.8489 26.9148 22.5714 26.9148H17.4286C17.1521 26.9148 16.9278 27.1418 16.9278 27.4238ZM23.9996 32.9819H16.0014V24.0905L20.0005 21.3761L23.9996 24.0905V32.9819ZM20.2779 20.3396C20.1097 20.2256 19.8903 20.2256 19.7221 20.3396L15.2222 23.3941C15.0829 23.4887 14.9998 23.6486 14.9998 23.8186V33.4909C14.9998 33.7719 15.2232 34 15.5006 34H24.5004C24.7768 34 25.0012 33.7719 25.0012 33.4909V23.8186C25.0012 23.6486 24.9181 23.4887 24.7778 23.3941L20.2779 20.3396ZM28.5136 21.0982C28.0799 21.0982 27.7284 20.7408 27.7284 20.2999C27.7284 19.8601 28.0799 19.5027 28.5136 19.5027C28.9452 19.5027 29.2978 19.8601 29.2978 20.2999C29.2978 20.7408 28.9452 21.0982 28.5136 21.0982ZM26.4294 12.8859C25.9957 12.8859 25.6442 12.5285 25.6442 12.0887C25.6442 11.6478 25.9957 11.2904 26.4294 11.2904C26.862 11.2904 27.2146 11.6478 27.2146 12.0887C27.2146 12.5285 26.862 12.8859 26.4294 12.8859ZM24.4674 16.3608C24.9 16.3608 25.2526 16.7181 25.2526 17.158C25.2526 17.5988 24.9 17.9562 24.4674 17.9562C24.0337 17.9562 23.6822 17.5988 23.6822 17.158C23.6822 16.7181 24.0337 16.3608 24.4674 16.3608ZM33.7246 16.2366L30.0159 14.3408V9.56469C30.0159 9.36514 29.9027 9.18493 29.7244 9.10144L23.1934 6.04703C23.0652 5.98696 22.919 5.9839 22.7908 6.04092L19.4797 7.45104L16.1676 6.04092C16.0254 5.97983 15.8682 5.98899 15.735 6.0623L10.2065 9.11671C10.0442 9.20529 9.94406 9.37736 9.94406 9.56469V14.3428L6.27442 16.2376C6.10616 16.3241 6 16.4992 6 16.6917V22.8005C6 22.9695 6.08213 23.1273 6.22034 23.222L8.96255 25.1066V28.9093C8.96255 29.0783 9.04668 29.2382 9.18589 29.3329L13.6928 32.3873L14.2487 31.5392L9.96409 28.6364V24.8368C9.96409 24.6667 9.88196 24.5089 9.74475 24.4142L7.00154 22.5297V20.0597L10.2165 18.1486L9.7117 17.27L7.00154 18.8796V17.0032L10.4228 15.2367L12.9266 16.7853V19.5038L10.6501 21.3873L11.2821 22.1764L13.4324 20.3977L15.6638 22.1825L16.2838 21.3812L13.9282 19.4976V16.7884L16.7305 15.0922C16.8827 15.0005 16.9749 14.8346 16.9749 14.6554V10.5828H15.9733V14.3652L13.4304 15.9057L10.9456 14.3683V9.86708L12.9266 8.77258V12.6191H13.9282V8.21872L16.0024 7.07331L18.9769 8.34089L18.9779 14.6554C18.9779 14.8376 19.0741 15.0066 19.2303 15.0973L22.6846 17.104C22.6846 17.1223 22.6806 17.1396 22.6806 17.158C22.6806 18.1598 23.4818 18.9743 24.4674 18.9743C25.4519 18.9743 26.2541 18.1598 26.2541 17.158C26.2541 16.1571 25.4519 15.3426 24.4674 15.3426C23.8634 15.3426 23.3306 15.6501 23.0071 16.1184L19.9795 14.3591L19.9785 8.34191L22.9751 7.06517L29.0143 9.8905V11.5796H28.136C27.9177 10.8262 27.2386 10.2723 26.4294 10.2723C25.4439 10.2723 24.6426 11.0868 24.6426 12.0887C24.6426 13.0895 25.4439 13.904 26.4294 13.904C27.2386 13.904 27.9177 13.3501 28.136 12.5977H29.0143V14.6554C29.0143 14.8468 29.1205 15.0229 29.2898 15.1095L32.9985 17.0052V21.9218L30.2943 20.3508C30.2943 20.3346 30.2993 20.3183 30.2993 20.2999C30.2993 19.2991 29.4981 18.4846 28.5136 18.4846C27.5281 18.4846 26.7268 19.2991 26.7268 20.2999C26.7268 21.3018 27.5281 22.1163 28.5136 22.1163C29.1185 22.1163 29.6523 21.8068 29.9748 21.3384L32.5478 22.8331L30.2182 24.4122C30.079 24.5069 29.9948 24.6667 29.9948 24.8368V28.6364L25.7113 31.5392L26.2671 32.3873L30.774 29.3329C30.9123 29.2382 30.9964 29.0783 30.9964 28.9093V25.1086L33.7777 23.224C33.9159 23.1293 34 22.9695 34 22.8005V16.6917C34 16.4992 33.8938 16.3231 33.7246 16.2366Z" fill="#01A88D"/>
</g>
<rect x="0.5" y="0.5" width="39" height="39" stroke="#01A88D"/>
<defs>
<clipPath id="clip0_23298_3906">
<rect width="40" height="40" fill="white"/>
</clipPath>
</defs>
</svg>
