<svg xmlns="http://www.w3.org/2000/svg" width="18" height="18" viewBox="0 0 18 18"><defs><linearGradient id="a" x1="9" y1="15.834" x2="9" y2="5.788" gradientUnits="userSpaceOnUse"><stop offset="0" stop-color="#0078d4"/><stop offset=".502" stop-color="#4093e6"/><stop offset=".775" stop-color="#5ea0ef"/></linearGradient></defs><path d="M.5 5.788h17v9.478a.568.568 0 01-.568.568H1.068a.568.568 0 01-.568-.568V5.788z" fill="url(#a)"/><path d="M1.071 2.166h15.858a.568.568 0 01.568.568v3.054H.5V2.734a.568.568 0 01.571-.568z" fill="#0078d4"/><rect x="2.304" y="7.121" width="3.65" height="1.85" rx=".283" fill="#fff" opacity=".9"/><rect x="7.2" y="7.095" width="3.65" height="1.85" rx=".283" fill="#fff" opacity=".9"/><rect x="12.096" y="7.095" width="3.65" height="1.85" rx=".283" fill="#fff" opacity=".9"/><rect x="2.358" y="9.767" width="3.65" height="1.85" rx=".283" fill="#fff" opacity=".9"/><rect x="7.254" y="9.741" width="3.65" height="1.85" rx=".283" fill="#ffd400"/><rect x="12.15" y="9.741" width="3.65" height="1.85" rx=".283" fill="#ffd400"/><rect x="2.358" y="12.439" width="3.65" height="1.85" rx=".283" fill="#ffd400"/><rect x="7.254" y="12.413" width="3.65" height="1.85" rx=".283" fill="#ffd400"/><rect x="12.15" y="12.413" width="3.65" height="1.85" rx=".283" fill="#ffd400"/></svg>