<svg width="40" height="40" viewBox="0 0 40 40" xmlns="http://www.w3.org/2000/svg">  <g id="Icon-Architecture/32/Arch_Amazon-VPC-Lattice_32" stroke="none" stroke-width="1" fill="none" fill-rule="evenodd">  <path d="M27,21.964 C27,23.606 26.495,28.964 20,28.964 C13.338,28.964 13,23.133 13,21.964 L13,13.737 L20,11.07 L27,13.737 L27,21.964 Z M7,10 L10,10 L10,7 L7,7 L7,10 Z M30,10 L33,10 L33,7 L30,7 L30,10 Z M30,33 L33,33 L33,30 L30,30 L30,33 Z M7,33 L10,33 L10,30 L7,30 L7,33 Z M33.5,11 C33.776,11 34,10.776 34,10.5 L34,6.5 C34,6.223 33.776,6 33.5,6 L29.5,6 C29.224,6 29,6.223 29,6.5 L29,10.293 L26.728,12.564 L20.178,10.068 C20.064,10.024 19.936,10.024 19.822,10.068 L13.272,12.564 L11,10.293 L11,6.5 C11,6.223 10.776,6 10.5,6 L6.5,6 C6.224,6 6,6.223 6,6.5 L6,10.5 C6,10.776 6.224,11 6.5,11 L10.293,11 L12.264,12.971 C12.109,13.058 12,13.211 12,13.393 L12,21.964 C12,23.394 12.32,24.914 13.049,26.244 L10.293,29 L6.5,29 C6.224,29 6,29.223 6,29.5 L6,33.5 C6,33.776 6.224,34 6.5,34 L10.5,34 C10.776,34 11,33.776 11,33.5 L11,29.707 L13.605,27.102 C14.852,28.768 16.895,29.964 20,29.964 C23.34,29.964 25.288,28.682 26.424,27.13 L29,29.707 L29,33.5 C29,33.776 29.224,34 29.5,34 L33.5,34 C33.776,34 34,33.776 34,33.5 L34,29.5 C34,29.223 33.776,29 33.5,29 L29.707,29 L26.962,26.254 C27.902,24.481 28,22.607 28,21.964 L28,13.393 C28,13.211 27.891,13.058 27.736,12.971 L29.707,11 L33.5,11 Z M24,21.964 C24,24.477 22.843,25.769 20.5,25.931 L20.5,14.471 L24,15.804 L24,21.964 Z M16,21.964 L16,15.804 L19.5,14.471 L19.5,25.93 C17.187,25.762 16,24.44 16,21.964 L16,21.964 Z M19.822,13.278 L15.322,14.992 C15.128,15.066 15,15.252 15,15.46 L15,21.964 C15,25.188 16.775,26.964 20,26.964 C23.271,26.964 25,25.235 25,21.964 L25,15.46 C25,15.252 24.872,15.066 24.678,14.992 L20.178,13.278 C20.064,13.235 19.936,13.235 19.822,13.278 L19.822,13.278 Z" id="Fill-4" fill="#FFFFFF"></path> </g></svg>