<svg xmlns="http://www.w3.org/2000/svg" width="18" height="18" viewBox="0 0 18 18"><defs><linearGradient id="a" x1="9" y1=".81" x2="9" y2="21.28" gradientUnits="userSpaceOnUse"><stop offset="0" stop-color="#ffd70f"/><stop offset=".34" stop-color="#eeb309"/><stop offset=".77" stop-color="#dc8c03"/><stop offset="1" stop-color="#d57d01"/></linearGradient></defs><path d="M17.5 2.5v10.83a.58.58 0 01-.59.58h-4.52a.14.14 0 00-.14.14v1.75a.28.28 0 01-.45.22l-2.72-2.08H1.09a.58.58 0 01-.59-.58V2.5a.58.58 0 01.59-.58h15.82a.58.58 0 01.59.58z" fill="url(#a)"/><path d="M2.05 9l3 2.52a.29.29 0 00.47-.22v-1.1h11.96V8.5H2.23a.29.29 0 00-.18.5z" fill="#ffe452"/><path d="M16.24 6.46l-3.11-2.52a.29.29 0 00-.47.22v1.1H.5V7h15.56a.29.29 0 00.18-.54z" fill="#fff"/></svg>