<svg width="40" height="40" viewBox="0 0 40 40" xmlns="http://www.w3.org/2000/svg">  <g id="Icon-Architecture/32/Arch_Open-3D-Engine_32" stroke="none" stroke-width="1" fill="none" fill-rule="evenodd">  <g id="Icon-Service/32/Open-3D-Engine_32" transform="translate(6.000000, 6.000000)" fill="#FFFFFF"> <path d="M24.502,20.248 C24.916,20.248 25.252,19.912 25.252,19.498 C25.252,19.084 24.916,18.748 24.502,18.748 C24.088,18.748 23.752,19.084 23.752,19.498 C23.752,19.912 24.088,20.248 24.502,20.248 L24.502,20.248 Z M27.000012,25.841 L27.000012,21.941 C26.364,22.592 25.48,23 24.5,23 C23.992,23 23.511,22.885 23.075,22.689 C23.083,22.707 23.089,22.723 23.097,22.741 C23.72,24.23 24.879,27 25.861,27 C26.227,27 26.496,26.907 26.683,26.716 C27.007,26.385 27.000012,25.846 27.000012,25.841 L27.000012,25.841 Z M16.904,22.741 C16.911,22.723 16.918,22.707 16.926,22.689 C16.489,22.885 16.009,23 15.5,23 C14.521,23 13.636,22.592 12.9999881,21.941 L12.9999881,25.827 C12.9999881,25.846 12.993,26.385 13.318,26.716 C13.504,26.907 13.774,27 14.14,27 C15.121,27 16.281,24.23 16.904,22.741 L16.904,22.741 Z M13,19.5 C13,20.878 14.121,22 15.5,22 C16.879,22 18,20.878 18,19.5 C18,18.121 16.879,17 15.5,17 C14.121,17 13,18.121 13,19.5 L13,19.5 Z M21,19.5 C21,18.961 21.133,18.456 21.351,18 L18.649,18 C18.868,18.456 19,18.961 19,19.5 C19,20.039 18.868,20.543 18.649,21 L21.351,21 C21.133,20.543 21,20.039 21,19.5 L21,19.5 Z M22,19.5 C22,20.878 23.121,22 24.5,22 C25.879,22 27,20.878 27,19.5 C27,18.121 25.879,17 24.5,17 C23.121,17 22,18.121 22,19.5 L22,19.5 Z M27.407,27.406 C27.026,27.8 26.506,28 25.861,28 C24.213,28 23.082,25.298 22.174,23.128 C21.996,22.702 21.834,22.314 21.688,22 L18.313,22 C18.166,22.314 18.004,22.702 17.826,23.128 C16.918,25.298 15.787,28 14.14,28 C13.494,28 12.975,27.8 12.594,27.406 C11.986,26.777 11.997,25.907 12,25.81 L12,19.5 C12,17.57 13.571,16 15.5,16 C16.45,16 17.311,16.383 17.942,17 L22.059,17 C22.69,16.383 23.55,16 24.5,16 C26.43,16 28,17.57 28,19.5 L28,25.827 C28.003,25.907 28.015,26.777 27.407,27.406 L27.407,27.406 Z M15,21 L16,21 L16,20 L17,20 L17,19 L16,19 L16,18 L15,18 L15,19 L14,19 L14,20 L15,20 L15,21 Z M21.424,15.071 C21.475,14.717 21.5,14.357 21.5,14 C21.5,9.864 18.136,6.5 14,6.5 C9.865,6.5 6.5,9.864 6.5,14 C6.5,16.748 8.001,19.274 10.417,20.59 L10.896,19.712 C8.801,18.571 7.5,16.382 7.5,14 C7.5,10.416 10.416,7.5 14,7.5 C17.584,7.5 20.5,10.416 20.5,14 C20.5,14.31 20.478,14.622 20.434,14.929 L21.424,15.071 Z M9.642,24.353 C10.134,24.719 10.6,25.064 11.128,25.204 L10.872,26.171 C10.158,25.982 9.593,25.562 9.046,25.157 C8.886,25.038 8.726,24.92 8.564,24.808 L7.195,26.177 C6.994,26.378 6.727,26.488 6.443,26.488 C6.159,26.488 5.892,26.378 5.692,26.177 L2.51,22.996 C2.309,22.795 2.199,22.528 2.199,22.244 C2.199,21.96 2.31,21.693 2.51,21.493 L3.895,20.109 C3.532,19.435 3.239,18.728 3.019,18 L1.063,18 C0.477,18 0,17.523 0,16.937 L0,12.062 C0,11.476 0.477,11 1.063,11 L2.82,11 C3.03,10.207 3.311,9.438 3.66,8.704 L2.288,7.139 C1.939,6.739 1.939,6.138 2.287,5.738 L5.262,2.348 C5.664,1.888 6.457,1.888 6.86,2.348 L8.073,3.732 C8.69,3.358 9.335,3.054 10,2.826 L10,1.062 C10,0.476 10.477,0 11.063,0 L15.938,0 C16.524,0 17,0.476 17,1.062 L17,3.099 C17.791,3.328 18.559,3.636 19.29,4.019 L20.825,2.539 C21.237,2.141 21.886,2.14 22.298,2.539 L25.732,5.852 C25.941,6.054 26.056,6.325 26.056,6.616 C26.056,6.907 25.941,7.179 25.731,7.381 L24.246,8.814 C24.635,9.513 24.95,10.245 25.185,11 L26.938,11 C27.524,11 28,11.476 28,12.062 L28,16 L27,16 L27,12.062 L24.811,12 C24.586,12 24.388,11.849 24.328,11.632 C24.075,10.709 23.692,9.819 23.189,8.984 C23.069,8.784 23.103,8.529 23.27,8.366 L25.036,6.661 L21.604,3.259 L19.721,4.992 C19.563,5.146 19.322,5.175 19.129,5.069 C18.262,4.582 17.336,4.211 16.376,3.966 C16.156,3.909 16,3.71 16,3.481 L16,1.062 L11.063,1 L11,3.19 C11,3.41 10.856,3.605 10.645,3.668 C9.812,3.919 9.008,4.3 8.255,4.8 C8.045,4.936 7.767,4.901 7.603,4.713 L6.108,3.008 L3.04,6.397 L4.633,8.296 C4.768,8.45 4.795,8.671 4.702,8.853 C4.259,9.722 3.921,10.65 3.699,11.613 C3.646,11.839 3.444,12 3.211,12 L1.063,12 L1,16.937 L3.397,17 C3.623,17 3.823,17.153 3.88,17.372 C4.117,18.269 4.477,19.134 4.948,19.943 C5.062,20.139 5.03,20.387 4.869,20.548 L3.217,22.2 L6.399,25.47 L8.14,23.818 C8.301,23.657 8.548,23.624 8.745,23.739 C9.054,23.919 9.347,24.135 9.642,24.353 L9.642,24.353 Z" id="Fill-9"></path> </g> </g></svg>