<svg width="40" height="40" viewBox="0 0 40 40" fill="none" xmlns="http://www.w3.org/2000/svg">
<g clip-path="url(#clip0_23310_9524)">
<path d="M40 0H0V40H40V0Z" fill="#DD344C" fill-opacity="0.12"/>
<path fill-rule="evenodd" clip-rule="evenodd" d="M13.466 13.2879C14.289 13.5449 15.267 13.9489 16.331 14.3879C18.165 15.1439 20.244 16.0019 21.457 16.0019C22.727 16.0019 24.842 15.1339 26.708 14.3679C27.748 13.9409 28.705 13.5479 29.514 13.2939L27.664 12.3349C26.719 12.6719 22.896 14.0019 21.457 14.0019C20.085 14.0019 16.277 12.6949 15.255 12.3349L13.466 13.2879ZM15.904 11.5019C17.475 12.0439 20.458 13.0019 21.457 13.0019C22.516 13.0019 25.454 12.0499 27.004 11.5079L24.591 7.1589C24.499 7.0129 24.276 6.9619 24.11 7.0619L22.158 8.2319C21.727 8.4919 21.188 8.4919 20.756 8.2319L18.806 7.0619C18.627 6.9569 18.396 7.0059 18.273 7.0739L15.904 11.5019ZM26.347 15.5959C24.541 16.3299 22.747 17.0019 21.457 17.0019C20.212 17.0019 18.445 16.3329 16.661 15.6039C17.29 18.1409 19.678 22.0019 21.473 22.0019C23.339 22.0019 25.732 18.1589 26.347 15.5959ZM11.515 13.6229C11.459 13.3999 11.563 13.1679 11.765 13.0599L14.802 11.4429L17.445 6.5009C17.473 6.4489 17.511 6.4009 17.556 6.3619C17.953 6.0109 18.704 5.8369 19.32 6.2049L21.27 7.3749C21.385 7.4439 21.528 7.4439 21.645 7.3749L23.595 6.2049C24.228 5.8249 25.06 6.0259 25.452 6.6509L28.11 11.4389L31.231 13.0579C31.435 13.1639 31.54 13.3959 31.486 13.6209C31.431 13.8439 31.231 14.0019 31 14.0019C30.292 14.0019 28.874 14.5619 27.444 15.1469C27.029 17.9639 24.19 23.0019 21.473 23.0019C18.781 23.0019 15.968 17.9679 15.557 15.1499C14.124 14.5609 12.71 14.0019 12 14.0019C11.771 14.0019 11.57 13.8459 11.515 13.6229ZM29.112 24.0969L29.354 23.8559C29.447 23.7619 29.5 23.6349 29.5 23.5019C29.5 23.3699 29.447 23.2419 29.354 23.1479L27.354 21.1479L26.647 21.8549L28.293 23.5019L24.642 27.1479C24.548 27.2419 24.495 27.3689 24.495 27.5019C24.495 27.6349 24.548 27.7619 24.642 27.8559L26.294 29.5029L23.152 32.6649L23.861 33.3699L27.355 29.8539C27.549 29.6589 27.549 29.3429 27.354 29.1479L25.703 27.5019L28.197 25.0099C30.578 25.0979 32.971 26.7609 32.971 29.5019V33.5019H33.971V29.5019C33.971 26.7689 31.91 24.5649 29.112 24.0969ZM18.698 31.4139L15.895 28.5979C15.619 28.9449 15.305 29.2569 14.947 29.5199L17.77 32.3409C18.014 32.5839 18.42 32.5739 18.676 32.3189C18.931 32.0639 18.941 31.6579 18.698 31.4139ZM12 29.5019C14.206 29.5019 16 27.7069 16 25.5019C16 23.2959 14.206 21.5019 12 21.5019C9.794 21.5019 8 23.2959 8 25.5019C8 27.7069 9.794 29.5019 12 29.5019ZM19.407 30.7089C20.037 31.3419 20.027 32.3809 19.383 33.0259C19.056 33.3519 18.627 33.5169 18.202 33.5169C17.787 33.5169 17.375 33.3609 17.063 33.0479L14.06 30.0459C13.43 30.3319 12.737 30.5019 12 30.5019C9.243 30.5019 7 28.2589 7 25.5019C7 22.7449 9.243 20.5019 12 20.5019C14.757 20.5019 17 22.7449 17 25.5019C17 26.3089 16.789 27.0609 16.448 27.7369L19.407 30.7089ZM24.167 23.6159L21.458 26.2809L18.852 23.6219L18.137 24.3229L21.094 27.3379C21.188 27.4329 21.314 27.4869 21.446 27.4879H21.451C21.582 27.4879 21.708 27.4369 21.802 27.3449L24.868 24.3289L24.167 23.6159ZM29 33.5019H30V29.5019H29V33.5019Z" fill="#DD344C"/>
</g>
<rect x="0.5" y="0.5" width="39" height="39" stroke="#DD344C"/>
<defs>
<clipPath id="clip0_23310_9524">
<rect width="40" height="40" fill="white"/>
</clipPath>
</defs>
</svg>
