<svg width="40" height="40" viewBox="0 0 40 40" fill="none" xmlns="http://www.w3.org/2000/svg">
<g clip-path="url(#clip0_23295_3038)">
<path d="M40 0H0V40H40V0Z" fill="#ED7100" fill-opacity="0.12"/>
<path fill-rule="evenodd" clip-rule="evenodd" d="M10.29 16.7L9.374 16.3C11.046 12.472 14.824 10 19 10C23.176 10 26.954 12.472 28.626 16.3L27.71 16.7C26.197 13.237 22.778 11 19 11C15.222 11 11.803 13.237 10.29 16.7ZM27.229 25.249L28.095 25.75C26.222 28.988 22.736 31 19 31C15.264 31 11.778 28.988 9.905 25.75L10.77 25.249C12.466 28.179 15.619 30 19 30C22.381 30 25.534 28.179 27.229 25.249ZM26 22.5H23V19.5H26V20.5V21.5V22.5ZM16 22.5H19V19.5H16V22.5ZM9 22.5H12V19.5H9V22.5ZM32.175 20.7L30.4 18.325L29.6 18.924L30.777 20.5H27V19C27 18.723 26.776 18.5 26.5 18.5H22.5C22.224 18.5 22 18.723 22 19V20.5H20V19C20 18.723 19.776 18.5 19.5 18.5H15.5C15.224 18.5 15 18.723 15 19V20.5H13V19C13 18.723 12.776 18.5 12.5 18.5H8.5C8.224 18.5 8 18.723 8 19V23C8 23.276 8.224 23.5 8.5 23.5H12.5C12.776 23.5 13 23.276 13 23V21.5H15V23C15 23.276 15.224 23.5 15.5 23.5H19.5C19.776 23.5 20 23.276 20 23V21.5H22V23C22 23.276 22.224 23.5 22.5 23.5H26.5C26.776 23.5 27 23.276 27 23V21.5H30.777L29.6 23.075L30.4 23.674L32.175 21.299C32.308 21.121 32.308 20.878 32.175 20.7Z" fill="#ED7100"/>
</g>
<rect x="0.5" y="0.5" width="39" height="39" stroke="#ED7100"/>
<defs>
<clipPath id="clip0_23295_3038">
<rect width="40" height="40" fill="white"/>
</clipPath>
</defs>
</svg>
