<svg width="40" height="40" viewBox="0 0 40 40" fill="none" xmlns="http://www.w3.org/2000/svg">
<g clip-path="url(#clip0_23293_2720)">
<path d="M40 0H0V40H40V0Z" fill="#8C4FFF" fill-opacity="0.12"/>
<path fill-rule="evenodd" clip-rule="evenodd" d="M25.912 17.5868C25.384 17.5868 24.953 17.1577 24.953 16.6297C24.953 16.1008 25.384 15.6717 25.912 15.6717C26.441 15.6717 26.872 16.1008 26.872 16.6297C26.872 17.1577 26.441 17.5868 25.912 17.5868ZM23.479 23.4132C22.951 23.4132 22.52 22.984 22.52 22.4551C22.52 21.9271 22.951 21.498 23.479 21.498C24.009 21.498 24.439 21.9271 24.439 22.4551C24.439 22.984 24.009 23.4132 23.479 23.4132ZM17.641 22.4421C17.113 22.4421 16.683 22.013 16.683 21.484C16.683 20.9561 17.113 20.5269 17.641 20.5269C18.171 20.5269 18.601 20.9561 18.601 21.484C18.601 22.013 18.171 22.4421 17.641 22.4421ZM15.21 27.7824C14.681 27.7824 14.25 27.3533 14.25 26.8253C14.25 26.2974 14.681 25.8673 15.21 25.8673C15.738 25.8673 16.169 26.2974 16.169 26.8253C16.169 27.3533 15.738 27.7824 15.21 27.7824ZM25.912 14.6737C24.832 14.6737 23.953 15.5509 23.953 16.6297C23.953 17.2904 24.285 17.8733 24.79 18.2275L23.877 20.5399C23.748 20.514 23.615 20.5 23.479 20.5C22.62 20.5 21.897 21.0589 21.634 21.8283L19.589 21.3643C19.525 20.3423 18.682 19.5289 17.641 19.5289C16.561 19.5289 15.683 20.4062 15.683 21.484C15.683 21.988 15.88 22.4441 16.194 22.7904L15.302 24.8792C15.27 24.8772 15.241 24.8693 15.21 24.8693C14.129 24.8693 13.25 25.7465 13.25 26.8253C13.25 27.9032 14.129 28.7804 15.21 28.7804C16.29 28.7804 17.169 27.9032 17.169 26.8253C17.169 26.1327 16.805 25.5279 16.261 25.1796L17.048 23.3383C17.236 23.3982 17.433 23.4401 17.641 23.4401C18.412 23.4401 19.073 22.99 19.393 22.3433L21.558 22.8343C21.736 23.7315 22.529 24.4112 23.479 24.4112C24.56 24.4112 25.439 23.5339 25.439 22.4551C25.439 21.8723 25.178 21.3543 24.77 20.996L25.729 18.5659C25.791 18.5719 25.85 18.5848 25.912 18.5848C26.993 18.5848 27.872 17.7076 27.872 16.6297C27.872 15.5509 26.993 14.6737 25.912 14.6737ZM20.5 33.002C15.635 33.002 12 31.5419 12 30.2365V11.5898C13.663 12.9281 17.153 13.6387 20.5 13.6387C23.847 13.6387 27.337 12.9281 29 11.5898V30.2365C29 31.5419 25.365 33.002 20.5 33.002ZM20.5 6.998C25.509 6.998 29 8.48403 29 9.81936C29 11.1537 25.509 12.6407 20.5 12.6407C15.491 12.6407 12 11.1537 12 9.81936C12 8.48403 15.491 6.998 20.5 6.998ZM30 9.81936C30 7.33832 25.105 6 20.5 6C15.894 6 11 7.33832 11 9.81936C11 9.82335 11.002 9.82734 11.002 9.83134H11V30.2365C11 32.6806 15.894 34 20.5 34C25.105 34 30 32.6806 30 30.2365V9.83134H29.998C29.998 9.82734 30 9.82335 30 9.81936Z" fill="#8C4FFF"/>
</g>
<rect x="0.5" y="0.5" width="39" height="39" stroke="#8C4FFF"/>
<defs>
<clipPath id="clip0_23293_2720">
<rect width="40" height="40" fill="white"/>
</clipPath>
</defs>
</svg>
