<svg width="24" height="24" viewBox="0 0 24 24" fill="none" xmlns="http://www.w3.org/2000/svg">
<path d="M21.5865 13.2539L19.0332 12.457C19.142 12.9572 19.1973 13.4676 19.1978 13.9795C19.1978 14.3395 19.171 14.6995 19.1181 15.0558H21.5889C21.6906 15.0403 21.7834 14.9901 21.8523 14.9142C21.9217 14.8383 21.9624 14.7408 21.9685 14.6386V13.6744C21.9624 13.5717 21.9212 13.4747 21.8523 13.3987C21.7829 13.3228 21.6901 13.2726 21.5889 13.2572" fill="white"/>
<path d="M12.0298 6.76516C12.5323 6.76563 13.0339 6.81813 13.5256 6.92172L12.6092 4.37969C12.5937 4.27797 12.5431 4.18422 12.4667 4.11532C12.3903 4.04594 12.2923 4.00517 12.1892 4H11.8067C11.7036 4.00517 11.6056 4.04548 11.5287 4.11486C11.4523 4.18423 11.4022 4.27797 11.3867 4.37969L10.5898 6.91142C11.0619 6.8158 11.5428 6.76797 12.0247 6.76797" fill="white"/>
<path d="M4.77078 13.9807C4.77032 13.4675 4.82469 12.9551 4.93297 12.4531L2.37969 13.25C2.27797 13.2659 2.18422 13.3161 2.11532 13.3925C2.04594 13.4689 2.00516 13.5668 2 13.67V14.6342C2.0061 14.7368 2.04735 14.8339 2.11625 14.9098C2.18516 14.9857 2.27844 15.0354 2.37969 15.0514H4.85047C4.79703 14.6951 4.77032 14.3356 4.77078 13.9751V13.9807Z" fill="white"/>
<path fill-rule="evenodd" clip-rule="evenodd" d="M16.3049 9.66077C15.1588 8.51468 13.6044 7.87109 11.9839 7.87109C10.7755 7.87109 9.59376 8.22921 8.58876 8.90046C7.58423 9.57218 6.80095 10.5266 6.33829 11.6431C5.87564 12.7597 5.7547 13.9883 5.99048 15.1737C6.22626 16.3592 6.80845 17.4481 7.66298 18.3026C8.51751 19.1572 9.60642 19.7389 10.7919 19.9747C11.9769 20.2104 13.206 20.0895 14.3225 19.6273C15.4391 19.1647 16.3935 18.3814 17.0647 17.3764C17.7364 16.3719 18.0946 15.1901 18.0946 13.9817C18.0946 12.3608 17.451 10.8064 16.3049 9.66077ZM15.155 10.7183L13.2842 12.0495L13.2777 12.0467C13.1113 12.1686 12.8774 12.1386 12.748 11.9755C12.695 11.9089 12.6674 11.8302 12.6641 11.7509L12.6617 11.75L12.5319 9.44843C13.528 9.57171 14.4496 10.0241 15.155 10.7183ZM12.3346 13.2411L12.7724 13.7905L12.6153 14.4762L11.983 14.7814L11.3483 14.4753L11.1913 13.7895L11.63 13.2411H12.3346ZM10.9677 9.52906C11.1238 9.4939 11.2794 9.46765 11.4346 9.44843L11.3047 11.7537L11.2953 11.7584C11.2864 11.9647 11.1172 12.1297 10.9096 12.1297C10.8247 12.1297 10.746 12.102 10.6822 12.0551L10.6785 12.057L8.79548 10.7173C9.37392 10.1459 10.1146 9.72359 10.9677 9.52906ZM7.47267 14.443C7.36017 13.4136 7.60204 12.4128 8.11251 11.5784L9.83189 13.122L9.83001 13.1314C9.98519 13.2669 10.0081 13.5017 9.87876 13.6648C9.82579 13.7314 9.75454 13.7764 9.67861 13.797L9.67673 13.8045L7.47267 14.443ZM10.4146 15.679L9.53892 17.803C8.72048 17.2756 8.06845 16.4862 7.71923 15.5173L9.97954 15.1325L9.98329 15.1372C10.0086 15.1325 10.0344 15.1301 10.0592 15.1306C10.2331 15.133 10.3892 15.2544 10.4296 15.432C10.4488 15.515 10.4394 15.5975 10.408 15.6706L10.4146 15.679ZM12.9997 18.4105C12.1475 18.605 11.2981 18.5459 10.5289 18.283L11.6403 16.2659H11.6422C11.7088 16.1408 11.8353 16.0662 11.9689 16.0611C12.0294 16.0587 12.0908 16.0714 12.1494 16.0995C12.2258 16.1365 12.2853 16.1951 12.3224 16.265H12.3308L13.445 18.2858C13.3006 18.3345 13.1516 18.3758 12.9997 18.4105ZM14.436 17.8114L13.551 15.6659L13.5538 15.6622C13.4722 15.4723 13.5538 15.2501 13.7408 15.1597C13.7886 15.1367 13.8388 15.1236 13.8885 15.1212C13.9185 15.1198 13.948 15.1222 13.9775 15.1278L13.9813 15.1231L16.2613 15.5098C15.9275 16.4511 15.2891 17.2658 14.436 17.8114ZM16.5008 14.4359L14.285 13.7951L14.2831 13.7858C14.0849 13.7314 13.963 13.5289 14.0094 13.3259C14.0281 13.2425 14.0722 13.1722 14.1317 13.1201L14.1308 13.1155L15.8408 11.5794C16.0963 11.9947 16.2899 12.4592 16.4052 12.9622C16.5191 13.4595 16.5477 13.9559 16.5008 14.4359Z" fill="white"/>
</svg>
