<svg width="40" height="40" viewBox="0 0 40 40" xmlns="http://www.w3.org/2000/svg">  <g id="Icon-Architecture/32/Arch_AWS-WAF_32" stroke="none" stroke-width="1" fill="none" fill-rule="evenodd">  <g id="Icon-Service/32/AWS-WAF_32" transform="translate(7.000000, 7.000000)" fill="#FFFFFF"> <path d="M1.138,14 L0,14 L0,13 L1.139,13 C1.24,10.564 2.031,8.246 3.461,6.27 L4.272,6.855 C2.965,8.661 2.239,10.776 2.139,13 L4,13 L4,14 L2.138,14 C2.231,16.237 2.958,18.365 4.272,20.18 L3.461,20.766 C2.024,18.78 1.232,16.449 1.138,14 L1.138,14 Z M20.747,23.556 C18.768,24.99 16.443,25.782 14,25.878 L14,27 L13,27 L13,25.879 C10.558,25.782 8.233,24.991 6.251,23.557 L6.837,22.746 C8.648,24.056 10.77,24.783 13,24.879 L13,23 L14,23 L14,24.878 C16.231,24.783 18.353,24.056 20.161,22.747 L20.747,23.556 Z M6.251,3.479 C8.233,2.045 10.558,1.253 13,1.157 L13,0 L14,0 L14,1.157 C16.443,1.254 18.768,2.045 20.747,3.479 L20.161,4.289 C18.353,2.98 16.231,2.253 14,2.157 L14,4 L13,4 L13,2.157 C10.77,2.253 8.648,2.979 6.837,4.29 L6.251,3.479 Z M27,13 L27,14 L25.861,14 C25.768,16.45 24.975,18.781 23.538,20.766 L22.728,20.18 C24.041,18.366 24.768,16.237 24.861,14 L23,14 L23,13 L24.86,13 C24.76,10.775 24.034,8.66 22.728,6.855 L23.538,6.27 C24.968,8.245 25.76,10.563 25.86,13 L27,13 Z M20.706,5.604 L24.486,1.824 L25.193,2.531 L21.413,6.312 L20.706,5.604 Z M6.293,21.431 L2.513,25.211 L1.806,24.504 L5.586,20.724 L6.293,21.431 Z M7.341,8.048 L0.186,0.894 L0.893,0.187 L8.048,7.341 L7.341,8.048 Z M20.356,19.649 L26.813,26.106 L26.106,26.813 L19.649,20.356 L20.356,19.649 Z M8.941,14.364 C8.983,14.29 9.028,14.216 9.074,14.144 C10.001,12.685 9.699,10.676 9.403,9.519 C10.22,10.004 10.956,11.11 11.224,11.607 C11.319,11.781 11.49,11.893 11.703,11.868 C11.901,11.853 12.071,11.723 12.136,11.536 C12.966,9.178 12.498,7.429 11.904,6.327 C12.657,6.733 13.237,7.339 13.614,8.123 C14.385,9.726 14.214,11.917 13.167,13.841 C11.727,16.491 12.046,19.272 12.375,20.721 C11.532,20.362 10.783,19.955 10.139,19.506 C8.485,18.354 7.958,16.095 8.941,14.364 L8.941,14.364 Z M16.279,14.207 C16.246,14.411 16.343,14.614 16.522,14.718 C16.7,14.821 16.924,14.806 17.086,14.675 C17.13,14.64 18.035,13.892 18.452,12.072 C18.991,12.806 19.597,14.343 18.849,17.24 C18.123,20.054 14.659,20.821 13.482,21.002 C13.194,19.977 12.576,17.022 14.046,14.319 C15.108,12.367 15.365,10.152 14.779,8.359 C15.816,9.507 16.736,11.36 16.279,14.207 L16.279,14.207 Z M8.072,13.87 C6.836,16.046 7.493,18.882 9.567,20.327 C10.509,20.984 11.652,21.555 12.962,22.024 C13.018,22.043 13.075,22.053 13.131,22.053 C13.141,22.053 13.151,22.048 13.16,22.047 L13.16,22.052 C13.389,22.034 18.765,21.567 19.818,17.49 C21.172,12.241 18.469,10.689 18.353,10.625 C18.206,10.544 18.029,10.543 17.88,10.621 C17.733,10.699 17.633,10.846 17.616,11.012 C17.567,11.474 17.483,11.874 17.381,12.215 C17.111,7.909 13.707,6.179 13.056,5.887 C12.379,5.368 11.557,5.012 10.602,4.842 C10.387,4.803 10.159,4.918 10.063,5.124 C9.967,5.328 10.022,5.573 10.195,5.719 C10.278,5.788 12.016,7.293 11.477,10.157 C10.86,9.327 9.846,8.283 8.652,8.283 C8.487,8.283 8.332,8.365 8.24,8.5 C8.146,8.637 8.126,8.81 8.186,8.964 C8.197,8.993 9.306,11.916 8.23,13.607 C8.174,13.694 8.121,13.781 8.072,13.87 L8.072,13.87 Z" id="AWS-WAF_Icon_32_Squid"></path> </g> </g></svg>