<svg width="40" height="40" viewBox="0 0 40 40" fill="none" xmlns="http://www.w3.org/2000/svg">
<g clip-path="url(#clip0_23293_2725)">
<path d="M40 0H0V40H40V0Z" fill="#8C4FFF" fill-opacity="0.12"/>
<path fill-rule="evenodd" clip-rule="evenodd" d="M31.5 30C30.673 30 30 29.327 30 28.5C30 27.673 30.673 27 31.5 27C32.327 27 33 27.673 33 28.5C33 29.327 32.327 30 31.5 30ZM31.5 26C30.981 26 30.499 26.159 30.099 26.431L27.834 24.166L27.127 24.873L29.403 27.148C29.15 27.539 29 28.001 29 28.5C29 29.878 30.121 31 31.5 31C32.879 31 34 29.878 34 28.5C34 27.122 32.879 26 31.5 26ZM31.5 10C32.327 10 33 10.673 33 11.5C33 12.327 32.327 13 31.5 13C30.673 13 30 12.327 30 11.5C30 10.673 30.673 10 31.5 10ZM27.834 15.834L30.099 13.569C30.499 13.841 30.981 14 31.5 14C32.879 14 34 12.878 34 11.5C34 10.122 32.879 9 31.5 9C30.121 9 29 10.122 29 11.5C29 11.999 29.15 12.461 29.403 12.852L27.127 15.127L27.834 15.834ZM8.5 30C7.673 30 7 29.327 7 28.5C7 27.673 7.673 27 8.5 27C9.327 27 10 27.673 10 28.5C10 29.327 9.327 30 8.5 30ZM12.166 24.166L9.901 26.431C9.501 26.159 9.019 26 8.5 26C7.121 26 6 27.122 6 28.5C6 29.878 7.121 31 8.5 31C9.879 31 11 29.878 11 28.5C11 28.001 10.85 27.539 10.597 27.148L12.873 24.873L12.166 24.166ZM7 11.5C7 10.673 7.673 10 8.5 10C9.327 10 10 10.673 10 11.5C10 12.327 9.327 13 8.5 13C7.673 13 7 12.327 7 11.5ZM11 11.5C11 10.122 9.879 9 8.5 9C7.121 9 6 10.122 6 11.5C6 12.878 7.121 14 8.5 14C9.019 14 9.501 13.841 9.901 13.569L12.166 15.834L12.873 15.127L10.597 12.852C10.85 12.461 11 11.999 11 11.5ZM20 21C20.275 21 20.5 21.224 20.5 21.5C20.5 21.776 20.275 22 20 22C19.725 22 19.5 21.776 19.5 21.5C19.5 21.224 19.725 21 20 21ZM19.5 22.908V24H20.5V22.908C21.081 22.701 21.5 22.151 21.5 21.5C21.5 20.673 20.827 20 20 20C19.173 20 18.5 20.673 18.5 21.5C18.5 22.151 18.919 22.701 19.5 22.908ZM15 26H25V19H15V26ZM17 15.401C17 14.628 17.628 14 18.4 14H21.584C22.365 14 23 14.635 23 15.416V18H17V15.401ZM21.5 31.501C21.5 32.328 20.827 33.001 20 33.001C19.173 33.001 18.5 32.328 18.5 31.501C18.5 30.674 19.173 30.001 20 30.001C20.827 30.001 21.5 30.674 21.5 31.501ZM18.5 8.5C18.5 7.673 19.173 7 20 7C20.827 7 21.5 7.673 21.5 8.5C21.5 9.327 20.827 10 20 10C19.173 10 18.5 9.327 18.5 8.5ZM25.145 18H24V15.416C24 14.083 22.916 13 21.584 13H20.5V10.949C21.64 10.717 22.5 9.707 22.5 8.5C22.5 7.122 21.379 6 20 6C18.621 6 17.5 7.122 17.5 8.5C17.5 9.707 18.36 10.717 19.5 10.949V13H18.4C17.077 13 16 14.077 16 15.401V18H14.855C14.384 18 14 18.375 14 18.837V26.163C14 26.625 14.384 27 14.855 27H19.5V29.052C18.36 29.284 17.5 30.294 17.5 31.501C17.5 32.879 18.621 34.001 20 34.001C21.379 34.001 22.5 32.879 22.5 31.501C22.5 30.294 21.64 29.284 20.5 29.052V27H25.5C25.776 27 26 26.776 26 26.5V18.837C26 18.375 25.616 18 25.145 18Z" fill="#8C4FFF"/>
</g>
<rect x="0.5" y="0.5" width="39" height="39" stroke="#8C4FFF"/>
<defs>
<clipPath id="clip0_23293_2725">
<rect width="40" height="40" fill="white"/>
</clipPath>
</defs>
</svg>
