<svg width="40" height="40" viewBox="0 0 40 40" fill="none" xmlns="http://www.w3.org/2000/svg">
<g clip-path="url(#clip0_23310_9529)">
<path d="M40 0H0V40H40V0Z" fill="#DD344C" fill-opacity="0.12"/>
<path fill-rule="evenodd" clip-rule="evenodd" d="M25 21.814C24.999 22.004 24.926 26.289 21 26.632V14.594L25 16.328V21.814ZM16 21.799V16.328L20 14.594V26.632C16.073 26.288 16.001 21.989 16 21.799ZM25.699 15.541L20.699 13.374C20.572 13.319 20.428 13.319 20.301 13.374L15.301 15.541C15.118 15.62 15 15.8 15 16V21.799C15 21.858 15.062 27.666 20.5 27.666C25.937 27.666 26 21.874 26 21.815V16C26 15.8 25.882 15.62 25.699 15.541ZM34 22.752L32.206 22.65C31.931 22.636 31.744 22.801 31.69 23.039C31.402 24.311 30.904 25.515 30.208 26.616C30.077 26.823 30.115 27.094 30.298 27.256L31.64 28.453L28.452 31.638L27.261 30.302C27.098 30.12 26.827 30.082 26.621 30.212C25.518 30.909 24.313 31.408 23.039 31.695C22.801 31.749 22.637 31.968 22.65 32.212L22.753 34H18.247L18.35 32.211C18.363 31.967 18.199 31.749 17.961 31.694C16.69 31.407 15.486 30.908 14.383 30.21C14.176 30.081 13.905 30.118 13.742 30.299L12.548 31.638L9.36 28.452L10.699 27.258C10.882 27.096 10.92 26.825 10.789 26.619C10.093 25.515 9.595 24.311 9.31 23.04C9.256 22.802 9.065 22.646 8.793 22.65L7 22.752V18.246L8.797 18.349C9.069 18.361 9.259 18.197 9.312 17.96C9.601 16.691 10.101 15.489 10.797 14.388C10.928 14.181 10.89 13.91 10.707 13.748L9.36 12.547L12.548 9.36L13.747 10.705C13.909 10.886 14.181 10.925 14.387 10.795C15.49 10.1 16.692 9.603 17.961 9.316C18.199 9.263 18.363 9.044 18.35 8.8L18.247 7H22.753L22.65 8.802C22.637 9.045 22.801 9.264 23.039 9.318C24.307 9.605 25.509 10.102 26.61 10.798C26.817 10.928 27.088 10.89 27.25 10.708L28.452 9.36L31.64 12.547L30.296 13.745C30.113 13.908 30.075 14.178 30.206 14.385C30.901 15.487 31.4 16.69 31.688 17.96C31.742 18.198 31.954 18.371 32.204 18.349L34 18.246V22.752ZM34.844 17.354C34.742 17.259 34.618 17.217 34.472 17.218L32.563 17.327C32.275 16.234 31.843 15.19 31.272 14.214L32.7 12.94C32.803 12.849 32.863 12.719 32.867 12.582C32.871 12.444 32.818 12.311 32.721 12.214L28.785 8.279C28.688 8.183 28.569 8.137 28.417 8.133C28.28 8.137 28.15 8.197 28.059 8.3L26.781 9.731C25.806 9.161 24.764 8.729 23.672 8.443L23.781 6.528C23.789 6.391 23.74 6.256 23.646 6.156C23.551 6.056 23.42 6 23.282 6H17.718C17.58 6 17.449 6.056 17.354 6.156C17.26 6.256 17.211 6.391 17.219 6.528L17.328 8.441C16.236 8.727 15.193 9.159 14.217 9.729L12.941 8.3C12.85 8.197 12.72 8.137 12.583 8.133C12.463 8.14 12.312 8.183 12.215 8.279L8.279 12.214C8.182 12.311 8.129 12.444 8.133 12.582C8.137 12.719 8.197 12.849 8.3 12.94L9.73 14.216C9.159 15.191 8.726 16.234 8.438 17.327L6.528 17.218C6.399 17.217 6.258 17.259 6.156 17.354C6.057 17.448 6 17.579 6 17.717V23.282C6 23.419 6.057 23.551 6.156 23.645C6.258 23.74 6.399 23.793 6.528 23.781L8.434 23.672C8.72 24.766 9.151 25.812 9.723 26.789L8.3 28.059C8.197 28.15 8.137 28.28 8.133 28.418C8.129 28.555 8.182 28.688 8.279 28.785L12.215 32.72C12.312 32.817 12.459 32.867 12.583 32.866C12.72 32.862 12.85 32.802 12.941 32.699L14.211 31.276C15.188 31.849 16.234 32.282 17.327 32.569L17.219 34.471C17.211 34.608 17.26 34.743 17.354 34.843C17.448 34.943 17.58 35 17.718 35H23.282C23.42 35 23.552 34.943 23.646 34.843C23.74 34.743 23.789 34.608 23.781 34.471L23.673 32.57C24.769 32.283 25.814 31.85 26.792 31.278L28.059 32.699C28.15 32.802 28.28 32.862 28.417 32.866C28.573 32.87 28.688 32.817 28.785 32.72L32.721 28.785C32.818 28.688 32.871 28.555 32.867 28.418C32.863 28.28 32.803 28.15 32.7 28.059L31.274 26.787C31.846 25.812 32.278 24.767 32.564 23.672L34.472 23.781C34.618 23.793 34.742 23.74 34.844 23.645C34.943 23.551 35 23.419 35 23.282V17.717C35 17.579 34.943 17.448 34.844 17.354Z" fill="#DD344C"/>
</g>
<rect x="0.5" y="0.5" width="39" height="39" stroke="#DD344C"/>
<defs>
<clipPath id="clip0_23310_9529">
<rect width="40" height="40" fill="white"/>
</clipPath>
</defs>
</svg>
