<svg width="40" height="40" viewBox="0 0 40 40" xmlns="http://www.w3.org/2000/svg">  <g id="Icon-Architecture/32/Arch_AWS-Managed-Services_32" stroke="none" stroke-width="1" fill="none" fill-rule="evenodd">  <g id="Icon-Service/32/AWS-Managed-Services" transform="translate(6.000000, 7.000000)" fill="#FFFFFF"> <path d="M16.336,22.772 L16.598,23.737 C15.614,24.005 14.584,24.141 13.538,24.141 C8.978,24.141 5.39,22.035 3.435,18.212 L4.325,17.757 C6.101,21.229 9.372,23.141 13.538,23.141 C14.496,23.141 15.437,23.017 16.336,22.772 L16.336,22.772 Z M27.709,14.075 L27,14.78 L25.782,13.554 C25.64,14.631 25.31,15.735 24.834,16.66 L23.945,16.203 C24.352,15.412 24.634,14.473 24.77,13.55 L23.206,14.816 L22.577,14.039 L25.05,12.035 C25.247,11.874 25.538,11.889 25.719,12.071 L27.709,14.075 Z M4.74,10.855 L2.74,12.866 C2.643,12.964 2.515,13.014 2.386,13.014 C2.259,13.014 2.133,12.966 2.035,12.87 L-1.77635684e-15,10.87 L0.701,10.157 L1.941,11.376 C2.496,5.103 7.565,-1.77635684e-15 13.51,-1.77635684e-15 C17.913,-1.77635684e-15 22.259,2.715 24.325,6.757 L23.435,7.212 C21.565,3.555 17.483,1 13.51,1 C8.152,1 3.573,5.565 2.961,11.227 L4.031,10.149 L4.74,10.855 Z M13.345,14.288 C12.149,14.288 11.176,13.315 11.176,12.119 C11.176,10.923 12.149,9.95 13.345,9.95 C14.541,9.95 15.515,10.923 15.515,12.119 C15.515,13.315 14.541,14.288 13.345,14.288 L13.345,14.288 Z M13.345,8.95 C11.598,8.95 10.176,10.372 10.176,12.119 C10.176,13.867 11.598,15.288 13.345,15.288 C15.093,15.288 16.515,13.867 16.515,12.119 C16.515,10.372 15.093,8.95 13.345,8.95 L13.345,8.95 Z M16.763,16.617 C16.601,16.435 16.328,16.396 16.123,16.527 C15.621,16.843 15.075,17.07 14.498,17.2 C14.26,17.254 14.096,17.472 14.109,17.716 L14.142,18.292 L12.548,18.292 L12.581,17.716 C12.596,17.472 12.431,17.253 12.192,17.199 C11.617,17.07 11.071,16.843 10.568,16.526 C10.362,16.396 10.092,16.435 9.929,16.616 L9.544,17.047 L8.417,15.92 L8.849,15.536 C9.031,15.373 9.069,15.102 8.939,14.895 C8.622,14.396 8.397,13.85 8.267,13.272 C8.213,13.034 7.99,12.869 7.75,12.883 L7.172,12.916 L7.172,11.322 L7.752,11.355 C8.015,11.368 8.214,11.204 8.268,10.967 C8.399,10.39 8.626,9.845 8.941,9.346 C9.072,9.139 9.034,8.869 8.852,8.706 L8.417,8.318 L9.544,7.19 L9.932,7.625 C10.094,7.807 10.365,7.844 10.571,7.715 C11.071,7.399 11.617,7.174 12.192,7.044 C12.431,6.99 12.595,6.772 12.581,6.528 L12.548,5.946 L14.142,5.946 L14.109,6.528 C14.096,6.772 14.26,6.99 14.498,7.044 C15.073,7.175 15.618,7.401 16.118,7.716 C16.324,7.847 16.597,7.809 16.758,7.626 L17.147,7.191 L18.273,8.318 L17.84,8.705 C17.657,8.867 17.619,9.138 17.75,9.345 C18.065,9.844 18.292,10.39 18.423,10.967 C18.477,11.204 18.678,11.378 18.939,11.355 L19.518,11.322 L19.518,12.916 L18.94,12.883 C18.695,12.869 18.477,13.034 18.424,13.272 C18.293,13.848 18.067,14.394 17.751,14.895 C17.62,15.101 17.658,15.372 17.841,15.535 L18.273,15.92 L17.147,17.047 L16.763,16.617 Z M19.355,16.253 C19.452,16.156 19.505,16.023 19.501,15.886 C19.497,15.748 19.437,15.619 19.334,15.527 L18.812,15.061 C19.011,14.692 19.171,14.305 19.291,13.904 L19.989,13.944 C20.117,13.957 20.261,13.904 20.361,13.809 C20.461,13.714 20.518,13.583 20.518,13.445 L20.518,10.793 C20.518,10.655 20.461,10.524 20.361,10.43 C20.261,10.335 20.131,10.293 19.989,10.294 L19.289,10.334 C19.169,9.933 19.009,9.546 18.811,9.179 L19.334,8.711 C19.437,8.62 19.497,8.49 19.501,8.353 C19.505,8.215 19.452,8.082 19.355,7.985 L17.48,6.109 C17.382,6.012 17.217,5.963 17.112,5.963 C16.975,5.967 16.845,6.027 16.753,6.13 L16.284,6.656 C15.916,6.458 15.53,6.297 15.131,6.177 L15.17,5.475 C15.178,5.337 15.129,5.203 15.034,5.103 C14.94,5.003 14.809,4.946 14.671,4.946 L12.019,4.946 C11.881,4.946 11.749,5.003 11.655,5.103 C11.561,5.203 11.512,5.337 11.52,5.475 L11.56,6.177 C11.159,6.296 10.774,6.456 10.405,6.654 L9.938,6.13 C9.846,6.027 9.716,5.967 9.578,5.963 C9.482,5.967 9.309,6.013 9.211,6.109 L7.336,7.985 C7.238,8.082 7.186,8.215 7.19,8.353 C7.193,8.49 7.254,8.62 7.357,8.711 L7.881,9.179 C7.682,9.547 7.522,9.933 7.401,10.334 L6.7,10.294 C6.568,10.293 6.43,10.335 6.328,10.43 C6.229,10.524 6.172,10.655 6.172,10.793 L6.172,13.445 C6.172,13.583 6.229,13.714 6.328,13.809 C6.43,13.904 6.582,13.957 6.7,13.944 L7.398,13.904 C7.519,14.306 7.679,14.693 7.878,15.062 L7.357,15.527 C7.254,15.619 7.193,15.748 7.19,15.886 C7.186,16.023 7.238,16.156 7.336,16.253 L9.211,18.128 C9.309,18.226 9.451,18.273 9.579,18.275 C9.716,18.271 9.846,18.21 9.938,18.108 L10.402,17.586 C10.773,17.786 11.159,17.946 11.56,18.066 L11.52,18.763 C11.512,18.9 11.561,19.035 11.655,19.135 C11.749,19.235 11.881,19.292 12.019,19.292 L14.671,19.292 C14.809,19.292 14.94,19.235 15.034,19.135 C15.129,19.035 15.178,18.9 15.17,18.763 L15.131,18.067 C15.532,17.947 15.919,17.787 16.289,17.587 L16.753,18.108 C16.845,18.21 16.975,18.271 17.111,18.275 C17.248,18.277 17.383,18.226 17.48,18.128 L19.355,16.253 Z M22.484,21.91 C22.19,22.217 21.699,22.227 21.392,21.932 C21.242,21.789 21.158,21.597 21.154,21.39 C21.15,21.184 21.227,20.988 21.37,20.839 C21.514,20.69 21.706,20.606 21.912,20.602 L21.928,20.602 C22.128,20.602 22.317,20.678 22.463,20.818 C22.612,20.961 22.696,21.153 22.7,21.359 C22.704,21.566 22.628,21.762 22.484,21.91 L22.484,21.91 Z M20.649,20.146 C19.972,20.851 19.994,21.976 20.698,22.653 C21.031,22.973 21.466,23.148 21.926,23.148 C21.938,23.148 21.95,23.147 21.962,23.147 C22.436,23.138 22.877,22.945 23.205,22.604 C23.533,22.262 23.709,21.814 23.7,21.34 C23.69,20.867 23.497,20.425 23.156,20.097 C22.45,19.42 21.327,19.441 20.649,20.146 L20.649,20.146 Z M25.012,23.214 L23.949,23.001 C23.811,22.974 23.669,23.004 23.555,23.087 L23.024,23.476 C22.913,23.558 22.84,23.683 22.824,23.821 L22.698,24.892 L21.111,24.89 L20.988,23.829 C20.972,23.691 20.899,23.567 20.789,23.484 L20.252,23.086 C20.139,23.003 19.996,22.971 19.857,22.998 L18.802,23.209 L18.313,21.699 L19.3,21.247 C19.427,21.188 19.524,21.08 19.567,20.947 L19.769,20.328 C19.812,20.195 19.797,20.05 19.729,19.929 L19.198,18.983 L20.482,18.052 L21.211,18.843 C21.307,18.946 21.458,19.008 21.582,19.004 L22.251,19 C22.39,18.999 22.522,18.941 22.615,18.839 L23.339,18.054 L24.622,18.987 L24.094,19.928 C24.025,20.049 24.011,20.193 24.053,20.325 L24.252,20.951 C24.295,21.085 24.392,21.194 24.52,21.253 L25.503,21.705 L25.012,23.214 Z M26.325,20.981 L25.138,20.437 L25.071,20.229 L25.712,19.09 C25.837,18.869 25.775,18.589 25.57,18.44 L23.567,16.983 C23.364,16.834 23.078,16.862 22.906,17.049 L22.027,18.001 L21.797,18.002 L20.917,17.047 C20.745,16.86 20.462,16.833 20.255,16.981 L18.25,18.435 C18.045,18.584 17.983,18.863 18.108,19.084 L18.75,20.227 L18.685,20.429 L17.492,20.976 C17.262,21.082 17.147,21.343 17.225,21.584 L17.987,23.94 C18.065,24.181 18.315,24.328 18.561,24.277 L19.835,24.022 L20.02,24.159 L20.169,25.447 C20.198,25.699 20.412,25.889 20.665,25.89 L23.142,25.892 L23.143,25.892 C23.397,25.892 23.609,25.702 23.64,25.45 L23.791,24.154 L23.969,24.024 L25.251,24.282 C25.502,24.333 25.746,24.187 25.825,23.946 L26.592,21.591 C26.67,21.35 26.556,21.087 26.325,20.981 L26.325,20.981 Z" id="AWS-Managed-Services_Icon_32_Squid"></path> </g> </g></svg>