<svg version="1.1" id="shardingsphere_1" xmlns="http://www.w3.org/2000/svg" xmlns:xlink="http://www.w3.org/1999/xlink" x="0px"
         y="0px" viewBox="0 0 511.4 508" style="enable-background:new 0 0 511.4 508;" xml:space="preserve">
<style type="text/css">
        .st0{fill:url(#SVGID_1_);}
        .st1{fill:url(#SVGID_00000048479137264441295800000015305632511679783579_);}
        .st2{fill:url(#SVGID_00000079444439365617513470000008873537078183004807_);}
        .st3{fill:url(#SVGID_00000085244092594126811220000004870925416882340480_);}
        .st4{fill:url(#SVGID_00000156551785585636839420000004672876962229801646_);}
        .st5{fill:url(#SVGID_00000143596517035859543620000017165593322986315165_);}
        .st6{fill:url(#SVGID_00000119116509585978813410000002870741405830441398_);}
        .st7{fill:url(#SVGID_00000180335030621544976450000001730413184683921575_);}
        .st8{fill:url(#SVGID_00000016792197068337254320000005485720738200154270_);}
        .st9{fill:url(#SVGID_00000146473823591516210430000016330170840428982962_);}
        .st10{fill:url(#SVGID_00000085227331647079081970000003660941282163252357_);}
        .st11{fill:url(#SVGID_00000149346140678229851860000005578301544471231644_);}
</style>
<linearGradient id="SVGID_1_" gradientUnits="userSpaceOnUse" x1="-1134.8152" y1="853.1163" x2="-1133.6351" y2="853.1163" gradientTransform="matrix(-0.9999 1.029720e-02 1.029720e-02 0.9999 -734.8176 -531.4161)">
        <stop  offset="0" style="stop-color:#BED630"/>
        <stop  offset="1" style="stop-color:#58A947;stop-opacity:0.97"/>
</linearGradient>
<path class="st0" d="M407.6,312.3c0.4-1.5,0.8-3.1,1.1-4.7C408.3,309.2,408,310.8,407.6,312.3z"/>
<linearGradient id="SVGID_00000016788694437581376790000018212529496731700357_" gradientUnits="userSpaceOnUse" x1="-1137.8751" y1="841.6879" x2="-1135.8451" y2="841.6879" gradientTransform="matrix(-0.9999 1.029720e-02 1.029720e-02 0.9999 -734.8176 -531.4161)">
        <stop  offset="0" style="stop-color:#BED630"/>
        <stop  offset="1" style="stop-color:#58A947;stop-opacity:0.97"/>
</linearGradient>
<path style="fill:url(#SVGID_00000016788694437581376790000018212529496731700357_);" d="M409.7,303.3c0.7-3.2,1.3-6.4,1.9-9.6
        C411,297,410.4,300.2,409.7,303.3z"/>
<linearGradient id="SVGID_00000173139842408622046590000005020073825911816601_" gradientUnits="userSpaceOnUse" x1="-1131.9252" y1="862.5554" x2="-1131.3654" y2="862.5554" gradientTransform="matrix(-0.9999 1.029720e-02 1.029720e-02 0.9999 -734.8176 -531.4161)">
        <stop  offset="0" style="stop-color:#BED630"/>
        <stop  offset="1" style="stop-color:#58A947;stop-opacity:0.97"/>
</linearGradient>
<path style="fill:url(#SVGID_00000173139842408622046590000005020073825911816601_);" d="M405.4,320.4c0.2-0.6,0.4-1.3,0.5-1.9
        L405.4,320.4z"/>
<linearGradient id="SVGID_00000091017207141570692330000004232413531517249980_" gradientUnits="userSpaceOnUse" x1="-939.5352" y1="697.3776" x2="-922.8535" y2="697.3776" gradientTransform="matrix(-0.9999 1.029720e-02 1.029720e-02 0.9999 -734.8176 -531.4161)">
        <stop  offset="0" style="stop-color:#BED630"/>
        <stop  offset="1" style="stop-color:#58A947;stop-opacity:0.97"/>
</linearGradient>
<path style="fill:url(#SVGID_00000091017207141570692330000004232413531517249980_);" d="M195.2,152.6c5.4,2.9,11,5.4,16.8,7.5
        C206.5,157.3,200.9,154.8,195.2,152.6z"/>
<linearGradient id="SVGID_00000022522355804184397130000015095511671258988205_" gradientUnits="userSpaceOnUse" x1="-1238.1216" y1="795.8593" x2="-893.9634" y2="795.8593" gradientTransform="matrix(-0.9999 1.029720e-02 1.029720e-02 0.9999 -734.8176 -531.4161)">
        <stop  offset="0" style="stop-color:#F6C214"/>
        <stop  offset="1" style="stop-color:#EC7D23;stop-opacity:0.97"/>
</linearGradient>
<path style="fill:url(#SVGID_00000022522355804184397130000015095511671258988205_);" d="M266.4,73.1c0,0,158.2,48.3,145.3,220.6
        c-0.6,3.3-1.2,6.5-1.9,9.6c-0.3,1.4-0.7,2.9-1,4.3c-0.4,1.6-0.7,3.2-1.1,4.7c-0.5,2.1-1.1,4.1-1.6,6.1c-0.2,0.6-0.3,1.3-0.5,1.9
        c-27.2,95.6-98.5,142.2-155.7,161.5c-19.6,6.6-39.9,10.4-60.5,11.5c-6.5,0.4-13,0.3-19.4-0.1c28.4,10.1,58.4,15.1,88.6,14.7
        c141.2-1.4,254.5-116.1,253.1-256.2c-0.4-43.3-12-85.7-33.6-123.2c1.6,7,3.1,14.1,4.5,21.6c24.6,125.7-52.1,190.9-52.1,190.9
        s50.1-53.7,10-197.7c-21.8-78.2-58.4-108.2-60.8-110.9C344.8,3.7,317.3-5.2,288.1,2.8C207.6,44.3,266.4,73.1,266.4,73.1z"/>
<linearGradient id="SVGID_00000049937548423928793210000002938534346364514951_" gradientUnits="userSpaceOnUse" x1="-1138.8734" y1="789.5358" x2="-773.9839" y2="789.5358" gradientTransform="matrix(-0.9999 1.029720e-02 1.029720e-02 0.9999 -734.8176 -531.4161)">
        <stop  offset="0" style="stop-color:#EB7D23"/>
        <stop  offset="1" style="stop-color:#CB6526"/>
</linearGradient>
<path style="fill:url(#SVGID_00000049937548423928793210000002938534346364514951_);" d="M169.7,493.3c0.9,0,187.5,14.7,235.7-172.9
        c0.2-0.6,0.4-1.3,0.5-1.9c0.6-2,1.1-4.1,1.6-6.1c0.4-1.5,0.8-3.1,1.1-4.7c0.3-1.4,0.7-2.8,1-4.3c0.7-3.2,1.3-6.4,1.9-9.6
        C424.6,121.4,266.4,73.1,266.4,73.1s-58.8-28.8,21.7-70.2c-37,10-62.1,29.2-61.9,51c0.1,15.1,12.4,28.6,32.3,38.6
        c5.8,2.1,11.5,4.5,17.1,7.1c24.6,11.2,46.7,27.1,65.1,46.9c27.9,30.2,44.7,68.3,45.2,109.9c1,99.7-92.6,181.4-209.1,182.6
        c-47.9,0.5-92.2-12.7-127.9-35.4C79.2,444.9,121.4,476.1,169.7,493.3z"/>
<linearGradient id="SVGID_00000134943453715727181270000003671591662654011016_" gradientUnits="userSpaceOnUse" x1="-1133.6351" y1="858.5318" x2="-1131.9252" y2="858.5318" gradientTransform="matrix(-0.9999 1.029720e-02 1.029720e-02 0.9999 -734.8176 -531.4161)">
        <stop  offset="0" style="stop-color:#BED630"/>
        <stop  offset="1" style="stop-color:#58A947;stop-opacity:0.97"/>
</linearGradient>
<path style="fill:url(#SVGID_00000134943453715727181270000003671591662654011016_);" d="M405.9,318.5c0.6-2,1.1-4.1,1.6-6.1
        C407,314.4,406.5,316.4,405.9,318.5z"/>
<linearGradient id="SVGID_00000126284252159219576130000009521538708747432090_" gradientUnits="userSpaceOnUse" x1="-1135.8451" y1="848.6325" x2="-1134.8152" y2="848.6325" gradientTransform="matrix(-0.9999 1.029720e-02 1.029720e-02 0.9999 -734.8176 -531.4161)">
        <stop  offset="0" style="stop-color:#BED630"/>
        <stop  offset="1" style="stop-color:#58A947;stop-opacity:0.97"/>
</linearGradient>
<path style="fill:url(#SVGID_00000126284252159219576130000009521538708747432090_);" d="M408.7,307.6c0.3-1.4,0.7-2.8,1-4.3
        C409.4,304.8,409,306.2,408.7,307.6z"/>
<linearGradient id="SVGID_00000169536039413351168190000010882704550492390033_" gradientUnits="userSpaceOnUse" x1="133.6252" y1="499.9456" x2="133.6252" y2="499.9456" gradientTransform="matrix(1 0 0 -1 0 704.0111)">
        <stop  offset="0" style="stop-color:#BED630"/>
        <stop  offset="1" style="stop-color:#58A947;stop-opacity:0.97"/>
</linearGradient>
<path style="fill:url(#SVGID_00000169536039413351168190000010882704550492390033_);" d="M133.6,204.1"/>
<linearGradient id="SVGID_00000096774566774790217440000002753567093049692549_" gradientUnits="userSpaceOnUse" x1="5.161326e-03" y1="495.9446" x2="288.7552" y2="495.9446" gradientTransform="matrix(1 0 0 -1 0 704.0111)">
        <stop  offset="0" style="stop-color:#F89E1D"/>
        <stop  offset="1" style="stop-color:#F26F23;stop-opacity:0.97"/>
</linearGradient>
<path style="fill:url(#SVGID_00000096774566774790217440000002753567093049692549_);" d="M211.9,160.1c-5.8-2.1-11.4-4.6-16.8-7.5
        c-28.5-15.4-47.1-40.4-47.4-68.8c0-1.4,0-2.9,0.1-4.3c1.9-33.7,29.8-62.7,69.1-75.7C118.4,18.6,38.5,89.2,10.7,181.8
        c12.1-5.1,25.1-7.7,38.2-7.7c53.8,0,97.5,43.3,97.5,96.7s-43.6,96.7-97.5,96.7c-7.9,0-15.7-1-23.4-2.8c1.2,2.4,2.4,4.8,3.7,7.2
        c3,5.7,6.2,11.2,9.5,16.6c15.4,21.9,56.4,23.8,89.2,23.9c92.2,0.4,161.6-64.8,160.9-139.2C288.3,225.3,257.6,183.5,211.9,160.1z"/>
<linearGradient id="SVGID_00000118383706173138645060000005765569012560404635_" gradientUnits="userSpaceOnUse" x1="0" y1="433.1856" x2="288.75" y2="433.1856" gradientTransform="matrix(1 0 0 -1 0 704.0111)">
        <stop  offset="0" style="stop-color:#BED630"/>
        <stop  offset="1" style="stop-color:#58A947;stop-opacity:0.97"/>
</linearGradient>
<path style="fill:url(#SVGID_00000118383706173138645060000005765569012560404635_);" d="M146.3,270.8c0-53.4-43.6-96.7-97.5-96.7
        c-13.1,0-26.1,2.6-38.2,7.7c-2.2,7.3-4.1,14.7-5.6,22.3c-11,54.3-3.8,110.7,20.4,160.5c7.7,1.9,15.5,2.8,23.4,2.8
        C102.7,367.5,146.3,324.2,146.3,270.8z"/>
<linearGradient id="SVGID_00000144320157633982040090000008634866747267698359_" gradientUnits="userSpaceOnUse" x1="-48.6548" y1="433.1856" x2="146.3252" y2="433.1856" gradientTransform="matrix(1 0 0 -1 0 704.0111)">
        <stop  offset="0" style="stop-color:#ED7452;stop-opacity:0.97"/>
        <stop  offset="3.000000e-02" style="stop-color:#EC7350;stop-opacity:0.97"/>
        <stop  offset="1" style="stop-color:#DC4227;stop-opacity:0.97"/>
</linearGradient>
<path style="fill:url(#SVGID_00000144320157633982040090000008634866747267698359_);" d="M146.3,270.8c0-53.4-43.6-96.7-97.5-96.7
        c-13.1,0-26.1,2.6-38.2,7.7c-2.2,7.3-4.1,14.7-5.6,22.3c-11,54.3-3.8,110.7,20.4,160.5c7.7,1.9,15.5,2.8,23.4,2.8
        C102.7,367.5,146.3,324.2,146.3,270.8z"/>
</svg>
