<svg width="167" height="156" viewBox="0 0 167 156" fill="none" xmlns="http://www.w3.org/2000/svg">
<path d="M93.8185 7.01848C85.9325 1.28899 75.2541 1.28899 67.3681 7.01849L12.0199 47.2313C4.13391 52.9608 0.834115 63.1166 3.84629 72.3871L24.9874 137.453C27.9996 146.723 36.6386 153 46.3862 153H114.8C124.548 153 133.187 146.723 136.199 137.453L157.34 72.3871C160.352 63.1166 157.053 52.9608 149.167 47.2313L93.8185 7.01848Z" fill="#326CE5" fill-opacity="0.1" stroke="#326CE5" stroke-width="5"/>
<path fill-rule="evenodd" clip-rule="evenodd" d="M137.302 129.51C127.171 124.682 122.89 112.591 127.74 102.505C130.069 97.6612 134.235 93.9371 139.322 92.1518C144.409 90.3664 150 90.6661 154.864 92.9849C164.995 97.8134 169.276 109.904 164.426 119.99C159.576 130.077 147.433 134.339 137.302 129.51Z" fill="#326CE5"/>
<path d="M145.89 99.1022C145.662 99.1136 145.438 99.17 145.232 99.268L136.252 103.539C136.02 103.65 135.816 103.811 135.655 104.01C135.494 104.209 135.381 104.441 135.323 104.69L133.108 114.284C133.057 114.505 133.051 114.734 133.091 114.958C133.131 115.181 133.216 115.394 133.341 115.584C133.371 115.631 133.404 115.676 133.438 115.719L139.654 123.412C139.815 123.611 140.019 123.772 140.251 123.883C140.484 123.993 140.739 124.05 140.996 124.05L150.964 124.048C151.222 124.048 151.476 123.991 151.709 123.881C151.941 123.771 152.146 123.61 152.307 123.411L158.52 115.717C158.681 115.518 158.794 115.285 158.852 115.037C158.909 114.788 158.909 114.53 158.852 114.282L156.633 104.687C156.575 104.439 156.462 104.207 156.301 104.007C156.14 103.808 155.936 103.648 155.704 103.537L146.723 99.268C146.464 99.1447 146.177 99.0877 145.89 99.1022Z" fill="white"/>
<path d="M145.979 102.367C145.682 102.367 145.442 102.634 145.442 102.962C145.442 102.967 145.443 102.972 145.443 102.977C145.442 103.021 145.44 103.075 145.442 103.114C145.449 103.303 145.49 103.448 145.515 103.623C145.56 103.996 145.598 104.306 145.575 104.593C145.552 104.702 145.472 104.801 145.4 104.87L145.388 105.096C145.065 105.123 144.74 105.172 144.416 105.245C143.02 105.561 141.819 106.276 140.904 107.242C140.845 107.202 140.741 107.128 140.71 107.105C140.614 107.118 140.517 107.148 140.391 107.074C140.15 106.913 139.931 106.691 139.666 106.423C139.544 106.294 139.457 106.172 139.312 106.049C139.279 106.021 139.229 105.983 139.193 105.954C139.08 105.864 138.947 105.818 138.818 105.813C138.653 105.808 138.494 105.872 138.39 106.002C138.205 106.233 138.264 106.586 138.522 106.791C138.525 106.793 138.527 106.795 138.53 106.797C138.566 106.825 138.609 106.862 138.642 106.886C138.795 106.998 138.935 107.056 139.087 107.145C139.409 107.343 139.675 107.507 139.886 107.704C139.969 107.792 139.983 107.946 139.994 108.013L140.167 108.166C139.244 109.548 138.818 111.254 139.07 112.993L138.845 113.058C138.785 113.135 138.702 113.255 138.614 113.291C138.337 113.377 138.026 113.409 137.65 113.448C137.474 113.463 137.322 113.454 137.135 113.49C137.094 113.497 137.036 113.512 136.991 113.523C136.99 113.523 136.988 113.523 136.987 113.524C136.984 113.524 136.981 113.526 136.979 113.526C136.662 113.602 136.458 113.892 136.524 114.178C136.589 114.463 136.899 114.637 137.217 114.569C137.22 114.568 137.223 114.568 137.225 114.568C137.229 114.567 137.232 114.565 137.236 114.564C137.28 114.555 137.336 114.544 137.375 114.533C137.559 114.484 137.692 114.412 137.857 114.349C138.213 114.222 138.507 114.116 138.794 114.075C138.914 114.066 139.04 114.148 139.103 114.183L139.337 114.143C139.877 115.808 141.006 117.152 142.437 117.996L142.34 118.23C142.375 118.32 142.414 118.443 142.387 118.532C142.283 118.802 142.104 119.086 141.901 119.403C141.802 119.549 141.701 119.663 141.613 119.83C141.591 119.87 141.564 119.932 141.544 119.974C141.406 120.269 141.507 120.607 141.772 120.735C142.039 120.863 142.371 120.728 142.514 120.433C142.514 120.432 142.515 120.432 142.515 120.432C142.515 120.431 142.515 120.431 142.515 120.431C142.536 120.389 142.565 120.334 142.582 120.294C142.658 120.121 142.683 119.972 142.737 119.804C142.879 119.448 142.957 119.075 143.153 118.843C143.207 118.779 143.294 118.755 143.385 118.73L143.506 118.511C144.754 118.988 146.15 119.115 147.544 118.8C147.863 118.728 148.17 118.635 148.467 118.524C148.501 118.584 148.564 118.7 148.581 118.729C148.674 118.759 148.774 118.775 148.856 118.895C149.002 119.144 149.103 119.439 149.225 119.795C149.278 119.963 149.305 120.112 149.381 120.285C149.398 120.325 149.427 120.381 149.447 120.423C149.591 120.718 149.923 120.854 150.19 120.726C150.456 120.598 150.557 120.259 150.419 119.965C150.398 119.923 150.37 119.861 150.349 119.821C150.26 119.654 150.159 119.541 150.061 119.395C149.857 119.078 149.688 118.815 149.584 118.545C149.54 118.406 149.591 118.32 149.625 118.23C149.605 118.206 149.561 118.075 149.536 118.014C151.023 117.14 152.119 115.744 152.634 114.133C152.704 114.144 152.825 114.165 152.864 114.173C152.945 114.12 153.019 114.051 153.165 114.062C153.452 114.104 153.746 114.21 154.102 114.337C154.267 114.4 154.401 114.473 154.584 114.522C154.623 114.532 154.679 114.542 154.723 114.552C154.727 114.553 154.73 114.554 154.734 114.555C154.736 114.556 154.739 114.556 154.742 114.556C155.06 114.625 155.37 114.451 155.435 114.165C155.501 113.88 155.297 113.59 154.981 113.514C154.935 113.503 154.869 113.485 154.824 113.477C154.637 113.442 154.485 113.45 154.309 113.436C153.933 113.397 153.622 113.365 153.345 113.278C153.232 113.234 153.152 113.101 153.113 113.046L152.896 112.983C153.009 112.172 152.978 111.329 152.784 110.485C152.587 109.633 152.24 108.854 151.776 108.167C151.832 108.117 151.937 108.024 151.967 107.997C151.976 107.901 151.968 107.8 152.068 107.694C152.28 107.496 152.546 107.333 152.867 107.135C153.02 107.046 153.161 106.988 153.314 106.875C153.349 106.85 153.396 106.81 153.433 106.781C153.69 106.576 153.75 106.223 153.565 105.992C153.379 105.761 153.021 105.739 152.763 105.944C152.726 105.973 152.676 106.01 152.644 106.039C152.499 106.162 152.41 106.284 152.289 106.412C152.024 106.68 151.805 106.904 151.564 107.065C151.46 107.126 151.307 107.105 151.238 107.101L151.033 107.246C149.868 106.029 148.281 105.251 146.572 105.1C146.567 105.029 146.561 104.9 146.559 104.861C146.489 104.794 146.405 104.737 146.383 104.593C146.36 104.306 146.399 103.996 146.444 103.623C146.469 103.448 146.511 103.303 146.518 103.114C146.519 103.071 146.517 103.008 146.517 102.962C146.516 102.634 146.276 102.367 145.979 102.367H145.979ZM145.306 106.518L145.146 109.324L145.135 109.33C145.124 109.581 144.917 109.782 144.662 109.782C144.557 109.782 144.461 109.748 144.383 109.691L144.378 109.694L142.066 108.062C142.777 107.367 143.686 106.853 144.733 106.616C144.924 106.573 145.116 106.541 145.306 106.518ZM146.653 106.518C147.876 106.667 149.007 107.219 149.873 108.063L147.577 109.685L147.568 109.681C147.365 109.829 147.077 109.793 146.918 109.594C146.853 109.513 146.819 109.417 146.815 109.321L146.813 109.32L146.653 106.518ZM141.228 109.111L143.339 110.99L143.336 111.002C143.527 111.167 143.555 111.453 143.396 111.651C143.331 111.732 143.244 111.787 143.15 111.812L143.148 111.821L140.442 112.599C140.305 111.345 140.601 110.127 141.228 109.111ZM150.715 109.112C151.029 109.618 151.266 110.183 151.408 110.796C151.547 111.401 151.583 112.006 151.525 112.59L148.805 111.81L148.803 111.799C148.56 111.732 148.41 111.486 148.467 111.238C148.49 111.137 148.544 111.051 148.617 110.988L148.616 110.982L150.715 109.112H150.715ZM145.546 111.135H146.411L146.948 111.804L146.755 112.639L145.979 113.01L145.2 112.638L145.007 111.803L145.546 111.135ZM148.318 113.424C148.355 113.422 148.392 113.426 148.428 113.432L148.432 113.427L151.231 113.898C150.821 115.043 150.038 116.036 148.99 116.7L147.904 114.087L147.907 114.083C147.807 113.852 147.907 113.581 148.137 113.471C148.196 113.443 148.257 113.427 148.318 113.424H148.318ZM143.618 113.436C143.831 113.439 144.023 113.586 144.073 113.803C144.096 113.904 144.085 114.004 144.046 114.093L144.054 114.103L142.979 116.69C141.974 116.048 141.174 115.086 140.745 113.907L143.52 113.438L143.525 113.444C143.556 113.438 143.587 113.435 143.618 113.436V113.436ZM145.962 114.569C146.036 114.566 146.112 114.581 146.183 114.616C146.278 114.661 146.35 114.732 146.396 114.817H146.406L147.774 117.277C147.597 117.337 147.414 117.387 147.227 117.429C146.181 117.666 145.139 117.594 144.194 117.274L145.559 114.818H145.561C145.643 114.666 145.798 114.575 145.962 114.569Z" fill="#326CE5" stroke="#326CE5" stroke-width="0.25"/>
</svg>
