<svg version="1.1" id="Layer_1" xmlns="http://www.w3.org/2000/svg" xmlns:xlink="http://www.w3.org/1999/xlink" x="0px" y="0px"
         viewBox="0 0 800 565.1" style="enable-background:new 0 0 800 565.1;" xml:space="preserve">
<style type="text/css">
        .st0{fill:#FFFFFF;}
</style>
<path class="st0" d="M800,180.1H604.5C551.6,78.7,495.7,0,419.7,0c-99,0-145.6,86.4-190.6,170.5l-3.9,7.3H0v50h131.1
        c46.3,0,55.8,15.6,55.8,15.6c-36.3,56.4-80,112.1-152.8,112.1H0V408h34.3c141.1,0,202.8-114.5,252.2-206.4
        c45.4-84.7,77-136,133.1-136c58.2,0,119.5,126.7,173.4,238.6c7.9,16.3,15.9,32.9,24,49.4c-206.7,6.6-305.2,55-385.3,94.4
        c-58.6,28.9-104.9,64.7-181.1,64.7H0v52.5h50.2c91.8,0,149-28.3,209.8-58.4c84.3-41.4,179.9-88.4,405.2-88.4h130.2v-52.5H722
        c-12.3,0.9-24.2-3.9-32.4-13.1c-13.1-25.6-25.6-51.4-37.8-77.4l-17-34.9c0,0,12.2-13.1,46-13.1H800V180.1z"/>
</svg>