<svg xmlns="http://www.w3.org/2000/svg" viewBox="-2.23 -2.1 109.2 109.08" enable-background="new 0 0 105 105"><path d="M29.3 81.1zm-4.1-3.9z" fill="#00c1d5"/><path fill="#1d428a" d="M78 61.5c-.8 3.5-2 6.9-3.7 10.2 3.1 1 6.1 2.3 8.9 3.9a60.25 60.25 0 0 0 6.2-14.8c0-.2.1-.4.2-.6l-5.4.6c-2.1.2-4.1.5-6.2.7zm-6.7 15.1c-5.3 7-13.8 11.6-26.2 12.2-1.6.1-3.1.1-4.5.1a30.3 30.3 0 0 0 13 2.3c12.1-.6 19.6-4.2 24.9-9.5.5-.5.9-1 1.4-1.5-2.8-1.5-5.6-2.7-8.6-3.6zM80.5 44l-.3 3.6-1 8.1 4.7-.5 7.3-.8 3-12.4-13.7 2zm-5.3-5l.7-11.3c-3.6.5-7.2.9-10.8 1.3l-1 11.4v.3h.3L75.2 39zM59.8 23.9c.3-4.5.7-9 1.1-13.3l-11.1 3.2c-.1 1.8-.1 3.7-.2 5.6s-.2 4.1-.2 6.1l6.6-1.2c1.2 0 2.5-.2 3.8-.4zm14.7 23.4c.1-.8.1-1.7.2-2.5-3.3.5-6.5.9-9.7 1.5l-1.7.3c-.5 3.8-1.2 7.7-2.1 11.4 4-.7 8-1.2 12-1.7.6-2.9 1-5.9 1.3-9zM72 62.2c-4.2.5-8.4 1.2-12.5 1.9-.8 2.2-1.6 4.3-2.7 6.4 3.9-.5 7.9-.6 11.8-.1 1.5-2.5 2.6-5.3 3.4-8.2zM58.5 40.1l.9-10.3c-1 .1-1.9.2-2.9.4-2.6.4-5 .8-7.4 1.4-.3 4.3-.6 8.6-1.1 12.9 3.3-1 6.8-1.9 10.4-2.6 0-.7 0-1.3.1-1.8zM43.3 33c-3.3.9-6.4 2.3-9.3 4 .8 4.3 1 8.8.6 13.2 2.3-1.4 4.8-2.7 7.4-3.7.5-4.5.9-9 1.3-13.5zM28.2 55c.9-4.6 1.2-9.3.8-13.9-4.2 4.4-6.7 10.6-6.7 20.4v1.7c1.5-3 3.6-5.8 5.9-8.2zm-2.7 15.2c4-2.5 8.3-4.6 12.7-6.2a106.52 106.52 0 0 0 2.7-10.8c-1.7.8-3.3 1.7-4.8 2.8-5.2 3.4-8.9 7.8-10.6 14.2zM46 83.1c9-.6 14.7-3.3 18.7-7.4-4.1-.1-8.1.3-12.1 1.3-1.8 2.3-4.1 4.4-6.6 6.1zm-20.8-5.9c1 1.6 2.4 3 4.1 3.9h.1c.3.2.6.3.9.4 2.1-3.3 3.8-6.8 5.3-10.4-3.7 1.7-7.2 3.7-10.4 6.1zm25.6-7.1c.9-1.5 1.6-3 2.3-4.6-3.6.8-7.1 1.8-10.4 2.9-1.6 4.6-3.6 9-6 13.2 6.6-2 10.8-6 14.1-11.5zM77 16.6c-3.3-2.2-6.8-4-10.5-5.2l-1.1 12 10.9-1.3c.2-1.9.5-3.7.7-5.5zM43.6 27l.3-7.4c0-1.3.1-2.6.1-3.9l-1.5.5c-5 1.7-9.9 4-14.3 6.9 1.7 2.7 3.1 5.5 4.2 8.4 3.5-1.9 7.3-3.5 11.2-4.5zm-16 7.8c-1-2.8-2.3-5.5-3.9-8l-1.4 1.4c-5 5.6-8.1 13.3-8.1 25.5a31.67 31.67 0 0 0 2.6 11.8c-.1-1.2-.1-2.4-.1-3.7-.1-12.6 4.2-21.4 10.9-27zM87 26c-1.8.3-3.6.7-5.4.9l-.8 11.4 12.1-1.8c-1.5-3.8-3.5-7.3-5.9-10.5zM57.5 47.7c-3.6.8-7.1 1.7-10.5 2.9-.6 3.8-1.4 7.5-2.4 11.2 3.4-1 7-1.9 10.5-2.6 1.1-3.8 1.9-7.6 2.4-11.5z"/><g fill="#00c1d5"><path d="M94.8 42.4c.1.6.3 1.1.4 1.7l-.4-1.7zm.5 2.2l.3 1.6-.3-1.6zm-1-4.3c.2.6.3 1.2.5 1.8-.2-.6-.4-1.2-.5-1.8zm1.5 16.4c-.1 1.4-.3 2.7-.6 4 .3-1.3.4-2.7.6-4zm.1-2.1c0 .6 0 1.1-.1 1.7.1-.6.1-1.1.1-1.7zm0-5.3c0 .3.1.7.1 1-.1-.3-.1-.6-.1-1zm-2.3-11l.6 1.9c-.1-.6-.3-1.2-.6-1.9zm0 0l-.7-1.9c.3.7.5 1.3.7 1.9zm2 8.6c.1.4.1.9.2 1.3-.1-.4-.2-.9-.2-1.3zM87 26c-1.4-1.8-2.9-3.5-4.5-5 1.6 1.5 3.1 3.2 4.5 5zm-7.2-7.3l2.5 2.2c-.8-.8-1.7-1.6-2.5-2.2zm-.1-.1l-2.7-2c.9.6 1.8 1.3 2.7 2z"/><path d="M95.9 50.3c0-.3-.1-.7-.1-1s0-.7-.1-1.1-.1-.9-.2-1.3l-.1-.7-.3-1.6c0-.2 0-.3-.1-.4-.1-.6-.2-1.2-.4-1.7l-.1-.2c-.1-.6-.3-1.2-.5-1.8v-.1l-.6-1.9-.7-1.9c-3.9.7-8 1.3-12.1 1.8l.8-11.4 5.3-.9h.1c-1.4-1.8-2.9-3.5-4.5-5l-.2-.2a26.22 26.22 0 0 0-2.5-2.2l-.1-.1c-.9-.7-1.8-1.4-2.7-2-.3 1.8-.5 3.5-.7 5.3-3.6.5-7.2.9-10.9 1.3.3-4.1.6-8.1 1.1-12-22.5-7.6-47.2 4.5-54.9 27.3S15.8 86 38.6 93.7s47.5-4.4 55.2-27.2c.6-1.9 1.2-3.8 1.5-5.8l.6-4v-.4c.1-.5.1-1.1.1-1.7 0-.7.1-1.4.1-2.1s-.1-1.4-.2-2.2zm-31.8-10c.4-3.8.7-7.6 1-11.4l10.8-1.3c-.3 3.8-.5 7.6-.7 11.3l-10.8 1.6h-.3v-.2zm-.7 6.3l1.7-.3 9.7-1.5c-.1.8-.1 1.7-.2 2.5-.3 3.1-.7 6.2-1.2 9-4 .5-8 1-12 1.7.8-3.8 1.5-7.6 2-11.4zm-6.6 24c1-2.1 1.9-4.2 2.7-6.4 4.1-.8 8.2-1.4 12.5-1.9-.8 2.9-1.9 5.6-3.3 8.2-4-.5-7.9-.5-11.9.1zm8 5.1c-4 4.1-9.8 6.8-18.7 7.4 2.5-1.7 4.8-3.8 6.7-6.1 3.8-.9 7.9-1.4 12-1.3zM49.6 19.5c.1-1.9.1-3.8.2-5.6 3.6-1.1 7.4-2.1 11.1-3.2-.5 4.4-.8 8.8-1.1 13.3-1.3.2-2.6.4-3.9.5-2.2.3-4.4.7-6.6 1.2l.3-6.2zm-.5 12c2.4-.5 4.9-1 7.4-1.4 1-.1 1.9-.3 2.9-.4L58.5 40c-.1.6-.1 1.2-.2 1.7-3.6.7-7.1 1.6-10.4 2.6.5-4.3.9-8.6 1.2-12.8zm-2 19.1c3.4-1.2 6.9-2.1 10.5-2.9-.6 3.9-1.3 7.7-2.4 11.4-3.6.7-7.1 1.6-10.6 2.6 1-3.6 1.8-7.4 2.5-11.1zm-4.6-34.4l1.6-.5c0 1.3-.1 2.6-.1 3.9l-.3 7.5c-3.9 1-7.7 2.6-11.2 4.5-1.1-2.9-2.5-5.8-4.2-8.4 4.3-3 9.1-5.3 14.2-7zm-8 34c.5-4.4.3-8.8-.6-13.2 2.9-1.7 6-3.1 9.3-4-.3 4.5-.7 9.1-1.3 13.5-2.5 1-5 2.3-7.4 3.7zm6.3 2.9c-.7 3.7-1.6 7.3-2.7 10.9-4.4 1.7-8.7 3.7-12.7 6.2 1.7-6.4 5.4-10.8 10.5-14.3 1.6-1 3.2-2 4.9-2.8zm-24 12.4a31.67 31.67 0 0 1-2.6-11.8c0-12.2 3.2-20 8.1-25.5.4-.5.9-1 1.4-1.4a31.2 31.2 0 0 1 3.9 8c-6.7 5.7-11 14.4-11 27 0 1.3.1 2.5.2 3.7zm5.5-4c0-9.8 2.5-16 6.6-20.4.4 4.6.2 9.3-.8 13.9h.1c-2.4 2.4-4.5 5.1-6 8.2l.1-1.7zm7.9 20c-.3-.1-.6-.3-.9-.4-1.7-.9-3.1-2.2-4.1-3.9 3.2-2.4 6.7-4.4 10.3-6-1.4 3.6-3.2 7-5.3 10.3zm12.4-13.1c3.3-1.1 6.8-2.1 10.4-2.9-.6 1.6-1.4 3.1-2.3 4.6-3.2 5.5-7.5 9.5-14.1 11.5 2.5-4.2 4.5-8.6 6-13.2zm35.9 13.4c-5.3 5.3-12.8 8.9-24.9 9.5a30.3 30.3 0 0 1-13-2.3c1.4 0 3 0 4.5-.1 12.4-.7 20.9-5.2 26.2-12.2 3 .8 5.9 2 8.6 3.6-.5.5-1 1-1.4 1.5zm11-21C88.1 66 86 70.9 83.3 75.6c-2.8-1.6-5.8-2.9-8.9-3.9 1.6-3.2 2.8-6.7 3.7-10.2 2.1-.2 4.1-.5 6.2-.7l5.4-.6c-.2.2-.2.4-.2.6zm1.7-6.5c-2.4.3-4.8.5-7.3.8l-4.7.5c.4-2.7.8-5.4 1-8.1l.3-3.6c4.6-.6 9.2-1.3 13.6-2l-2.9 12.4z"/></g><g fill="#717074"><path d="M95.2 44.1c0 .2 0 .3.1.4-.1-.1-.1-.2-.1-.4zm-.5-1.9l.1.2-.1-.2zm-1.1-3.9zm.6 1.9zM79.7 18.6zm16.1 37.7v.4-.4zm-.3-10.1l.1.7-.1-.7z"/><path d="M52.5 0C23.5 0 0 23.5 0 52.5S23.5 105 52.5 105 105 81.5 105 52.5 81.5 0 52.5 0zm43.3 56.3v.4c-.1 1.4-.3 2.7-.6 4-4.5 23.6-27.3 39-50.9 34.5S5.3 67.9 9.8 44.3s27.3-39 50.9-34.5c5.8 1.1 11.4 3.4 16.3 6.8.9.6 1.8 1.3 2.7 2l.1.1c.8.7 1.7 1.4 2.5 2.2l.2.2c1.6 1.5 3.1 3.2 4.5 5a42.03 42.03 0 0 1 6 10.5c.2.6.5 1.2.7 1.9.2.6.4 1.2.6 1.9v.1c.2.6.3 1.2.5 1.8l.1.2c.1.6.3 1.1.4 1.7 0 .2 0 .3.1.4l.3 1.6.1.7c0 .4.1.9.2 1.3s.1.7.1 1.1.1.7.1 1c0 .7.1 1.4.1 2.2s0 1.4-.1 2.1c-.3.6-.3 1.1-.4 1.7zM82.3 20.8l.2.2-.2-.2zM96 52.5l-.1 2.1c.1-.7.1-1.4.1-2.1zm-.2-4.3c0 .4.1.7.1 1.1 0-.3-.1-.7-.1-1.1zm.1 2.1l.1 2.2-.1-2.2z"/></g></svg>