<svg xmlns="http://www.w3.org/2000/svg" width="18" height="18" viewBox="0 0 18 18"><defs><linearGradient id="a" x1="4589.72" y1="-5180.02" x2="4589.72" y2="-5184.21" gradientTransform="matrix(.5 0 0 -.5 -2275.31 -2589.32)" gradientUnits="userSpaceOnUse"><stop offset="0" stop-color="#c69aeb"/><stop offset="1" stop-color="#6f4bb2"/></linearGradient><linearGradient id="b" x1="4587.99" y1="-5188.47" x2="4587.99" y2="-5192.65" href="#a"/></defs><path d="M12.7 8.15v-.6H8.18L6.06 9.66H4.5L8.12 6h2.47v-.57H7.87L3.65 9.66h-.6v.6h1.81L7 12.37h5.1v-.6H7.22l-1.51-1.51h3.67v-.6H6.92l1.5-1.51z" fill="#32bedd"/><circle cx="9.98" cy="9.96" r=".87" fill="#fff"/><circle cx="10.89" cy="5.74" r=".87" fill="#fff"/><circle cx="13" cy="7.85" r=".87" fill="#fff"/><circle cx="12.1" cy="12.07" r=".87" fill="#fff"/><circle cx="10.86" cy="5.74" r="1.05" fill="#50e6ff"/><circle cx="12.97" cy="7.85" r="1.05" fill="url(#a)"/><circle cx="12.1" cy="12.07" r="1.05" fill="url(#b)"/><circle cx="9.98" cy="9.96" r="1.05" fill="#50e6ff"/><g fill="#999"><path d="M1.07 1.43h1.29V5a.29.29 0 01-.29.29H.79A.29.29 0 01.5 5V2a.57.57 0 01.57-.57z"/><path d="M1.07 1.43h1.29V5a.29.29 0 01-.29.29H.79A.29.29 0 01.5 5V2a.57.57 0 01.57-.57z" opacity=".5"/></g><g fill="#999"><path d="M15.64 1.43h1.29a.57.57 0 01.57.57v3a.29.29 0 01-.29.29h-1.29a.29.29 0 01-.28-.29V1.43z"/><path d="M15.64 1.43h1.29a.57.57 0 01.57.57v3a.29.29 0 01-.29.29h-1.29a.29.29 0 01-.28-.29V1.43z" opacity=".5"/></g><path d="M17.5 2v1.25H.5V2a.57.57 0 01.57-.57h15.87a.57.57 0 01.56.57z" fill="#949494"/><g fill="#999"><path d="M.79 12.68h1.29a.29.29 0 01.29.29v3.6h-1.3A.57.57 0 01.5 16v-3a.29.29 0 01.29-.32z"/><path d="M.79 12.68h1.29a.29.29 0 01.29.29v3.6h-1.3A.57.57 0 01.5 16v-3a.29.29 0 01.29-.32z" opacity=".5"/></g><g fill="#999"><path d="M15.92 12.68h1.29a.29.29 0 01.29.29v3a.57.57 0 01-.57.57h-1.29V13a.29.29 0 01.28-.32z"/><path d="M15.92 12.68h1.29a.29.29 0 01.29.29v3a.57.57 0 01-.57.57h-1.29V13a.29.29 0 01.28-.32z" opacity=".5"/></g><path d="M.5 16v-1.25h17V16a.57.57 0 01-.57.57H1.07A.57.57 0 01.5 16z" fill="#949494"/></svg>