<svg id="Layer_1" xmlns="http://www.w3.org/2000/svg" version="1.1" viewBox="0 0 39.6 23.7">
  <path d="M11.1,8.6c0,.5,0,.9.1,1.2.1.3.2.6.4.9,0,.1,0,.2,0,.3,0,.1,0,.3-.3.4l-.8.6c-.1,0-.2.1-.3.1s-.3,0-.4-.2c-.2-.2-.3-.4-.5-.6-.1-.2-.3-.5-.4-.8-1,1.2-2.3,1.8-3.9,1.8s-2-.3-2.6-.9c-.6-.6-1-1.5-1-2.5s.4-2,1.2-2.7c.8-.7,1.9-1,3.2-1s.9,0,1.4.1,1,.2,1.5.3v-1c0-1-.2-1.7-.6-2.1-.4-.4-1.1-.6-2.1-.6s-.9,0-1.4.2-1,.3-1.4.4c-.2,0-.4.1-.5.2,0,0-.2,0-.2,0-.2,0-.3-.1-.3-.4v-.6c0-.2,0-.4,0-.5s.2-.2.4-.3c.5-.2,1-.4,1.7-.6C5.2.1,5.9,0,6.6,0c1.6,0,2.7.4,3.4,1.1.7.7,1.1,1.8,1.1,3.2v4.3h0ZM5.8,10.6c.4,0,.9,0,1.4-.2.5-.2.9-.4,1.3-.8.2-.3.4-.5.4-.8s.1-.7.1-1.1v-.6c-.4,0-.8-.2-1.2-.2s-.8,0-1.2,0c-.9,0-1.5.2-2,.5-.4.4-.6.9-.6,1.5s.2,1.1.5,1.4c.3.3.8.5,1.4.5ZM16.4,12c-.2,0-.4,0-.5-.1-.1,0-.2-.3-.3-.5L12.5,1.2c0-.3-.1-.4-.1-.5,0-.2.1-.3.3-.3h1.3c.3,0,.4,0,.5.1.1,0,.2.3.3.5l2.2,8.7L19,1c0-.3.1-.4.2-.5.1,0,.3-.1.5-.1h1.1c.2,0,.4,0,.5.1.1,0,.2.3.2.5l2.1,8.8L26,1c0-.3.2-.4.3-.5.1,0,.3-.1.5-.1h1.2c.2,0,.3.1.3.3s0,.1,0,.2c0,0,0,.2,0,.3l-3.2,10.2c0,.3-.2.4-.3.5s-.3.1-.5.1h-1.1c-.2,0-.4,0-.5-.1s-.2-.3-.2-.5l-2-8.5-2,8.5c0,.3-.1.4-.2.5-.1,0-.3.1-.5.1h-1.1ZM33.3,12.4c-.7,0-1.4,0-2-.2-.7-.2-1.2-.3-1.5-.5-.2-.1-.4-.3-.4-.4,0-.1,0-.3,0-.4v-.7c0-.3.1-.4.3-.4s.2,0,.2,0c0,0,.2,0,.3.1.4.2.9.4,1.4.5.5.1,1,.2,1.6.2.8,0,1.5-.1,1.9-.4.4-.3.7-.7.7-1.3s-.1-.7-.4-.9c-.2-.3-.7-.5-1.3-.7l-1.9-.6c-1-.3-1.7-.8-2.1-1.3-.4-.6-.7-1.2-.7-1.9s.1-1,.4-1.5c.2-.4.6-.8.9-1.1.4-.3.8-.5,1.4-.7.5-.2,1.1-.2,1.7-.2s.6,0,.9,0c.3,0,.6,0,.9.1.3,0,.5.1.8.2.2,0,.4.2.6.2.2.1.3.2.4.3,0,.1.1.2.1.4v.6c0,.3-.1.4-.3.4s-.3,0-.5-.2c-.8-.3-1.6-.5-2.5-.5s-1.3.1-1.8.4-.6.6-.6,1.2.1.7.4.9c.3.3.7.5,1.4.7l1.9.6c.9.3,1.6.7,2,1.3.4.5.6,1.2.6,1.8s-.1,1.1-.3,1.5c-.2.4-.6.8-1,1.2-.4.3-.9.6-1.5.7-.6.2-1.2.3-1.9.3Z" fill="#00b39f"/>
  <g>
    <path d="M35.8,18.8c-4.3,3.2-10.6,4.9-16,4.9S5.3,20.9.2,16.2c-.4-.4,0-.9.4-.6,5.6,3.2,12.5,5.2,19.6,5.2s10.1-1,14.9-3.1c.7-.3,1.3.5.6,1Z" fill="#00b39f" fill-rule="evenodd"/>
    <path d="M37.6,16.7c-.6-.7-3.7-.3-5.1-.2-.4,0-.5-.3-.1-.6,2.5-1.7,6.5-1.2,7-.7.5.6-.1,4.7-2.4,6.6-.4.3-.7.1-.5-.2.5-1.3,1.7-4.2,1.1-4.9Z" fill="#00b39f" fill-rule="evenodd"/>
  </g>
</svg>