<svg width="161" height="206" viewBox="0 0 161 206" fill="none" xmlns="http://www.w3.org/2000/svg">
<g clip-path="url(#clip0)">
<path d="M160.9 45.7V103.7C160.9 138.4 130.3 176.1 85.4 198.4V130.1L98 131.4C106.2 132.2 119.8 127.6 130 114.4C130.5 113.7 130.9 113.1 131.3 112.6C131.9 111.7 132.4 110.8 132.8 109.8L132.9 109.7C132.9 109.7 134.3 107.1 134.7 106.2C139.5 94.9 140.6 75.9 127.5 63.8C131.3 86.3 113.9 91.8 113.9 91.8C113.9 91.8 114 91.6 114.2 91.3C117 86.4 116.6 80.3 113.4 75.7C109.3 83.8 106.3 85.5 101.8 86.5L85.5 79.4V0L160.9 45.7Z" fill="#436DB4"/>
<path d="M75.5 59.8001L26.1 143.2H42.7L73.9 128.9L75.5 129.1V205.8C30.6 183.5 0 145.7 0 111.1V53.0001L75.5 17.1001V59.8001Z" fill="#26BECD"/>
<path d="M94.8 104.9C97.3957 104.9 99.5 102.796 99.5 100.2C99.5 97.6043 97.3957 95.5 94.8 95.5C92.2043 95.5 90.1 97.6043 90.1 100.2C90.1 102.796 92.2043 104.9 94.8 104.9Z" fill="#436DB4"/>
</g>
<defs>
<clipPath id="clip0">
<rect width="160.9" height="205.8" fill="white"/>
</clipPath>
</defs>
</svg>