<svg xmlns="http://www.w3.org/2000/svg" role="img" viewBox="-0.99 -1.99 363.48 363.23"><style>svg {enable-background:new 0 0 360 360}</style><style>.st1{fill:#fff}</style><path fill="none" d="M118.188 168.275h9.149v-14.05c0-5.57 4.558-10.129 10.129-10.129 5.57 0 10.127 4.558 10.127 10.13v14.049h9.149v-32.892h-38.554v32.892z"/><path d="M171.227 135.383v-9.455l-30.85-30.187v-2.124a2.92 2.92 0 0 0-2.911-2.911 2.92 2.92 0 0 0-2.912 2.911v2.124l-30.851 30.187v9.455h5.555v32.892h-5.555v16.118h8.82l-2.038 23.03 57.2 25.207-3.944-48.237h7.486v-16.118h-5.554v-32.892h5.554zm-14.485 32.892h-9.15v-14.05c0-5.57-4.555-10.129-10.126-10.129s-10.129 4.558-10.129 10.13v14.049h-9.15v-32.892h38.555v32.892zm-49.607 77.005l63.888 28.156-.959-11.725-61.968-27.305zm-.712 8.056l-.963 10.873 67.23 29.628-.956-11.72zm3.35-37.859l-.963 10.877 60.544 26.677-.958-11.721z" class="st1"/><path d="M351.334 171.608l-23.994-1.722-7.185-.516-147.465-10.583 144.67 50.191 2.098.728c-14.079 63.474-70.785 111.1-138.436 111.1-2.057 0-4.101-.054-6.137-.141l-1.484-18.147-68.654-30.253-2.194 24.795c-38.163-25.444-63.36-68.872-63.36-118.079 0-78.202 63.626-141.824 141.83-141.824 27.466 0 53.106 7.887 74.85 21.463l-.843.877-82.34 85.632 113.38-58.677c6.342 7.354 11.98 15.323 16.727 23.868.096.172.178.354.274.53l-128.148 41.18 141.98-4.834a140.97 140.97 0 0 1 3.252 22.173l7.185.516 23.994 1.722a170.382 170.382 0 0 0-3.138-25.478 169.426 169.426 0 0 0-15.746-44.72 171.283 171.283 0 0 0-19.082-29.084A172.142 172.142 0 0 0 277.11 38.89c-.455-.312-.91-.626-1.368-.933-27.163-18.242-59.827-28.898-94.934-28.898-94.14 0-170.727 76.587-170.727 170.726s76.587 170.727 170.727 170.727c80.563 0 148.264-56.095 166.116-131.276.058-.242.121-.481.178-.724a170.624 170.624 0 0 0 4.232-46.903z" class="st1"/><path d="M180.808 5.058C84.463 5.058 6.08 83.439 6.08 179.784s78.382 174.727 174.727 174.727 174.726-78.382 174.726-174.727S277.152 5.058 180.808 5.058zm166.116 214.177c-17.852 75.181-85.553 131.276-166.116 131.276-94.14 0-170.727-76.588-170.727-170.727S86.668 9.058 180.808 9.058c35.107 0 67.77 10.656 94.934 28.898.458.307.913.62 1.368.933a172.142 172.142 0 0 1 36.258 33.437 171.283 171.283 0 0 1 19.082 29.083 169.426 169.426 0 0 1 15.746 44.721 170.382 170.382 0 0 1 3.138 25.478 170.624 170.624 0 0 1-4.233 46.903c-.056.243-.12.482-.177.724z" class="st1"/></svg>