<svg width="32" height="32" viewBox="0 0 122 122" fill="none" xmlns="http://www.w3.org/2000/svg"><path fill-rule="evenodd" clip-rule="evenodd" d="M34.667 116.007C4.287 101.462-8.551 65.04 5.992 34.657A60.98 60.98 0 0 1 87.333 5.98c30.38 14.544 43.218 50.966 28.675 81.35-14.544 30.383-50.962 43.222-81.341 28.677Z" fill="#F49322"/><path d="m29.488 41.005-1.92-3.24 11.328-5.76 1.92 3.24-11.328 5.76Zm18.048-9.18-1.92-3.24 10.176-5.22 1.92 3.24-10.176 5.22Zm10.368 26.1-10.176-5.04 1.728-3.24 10.176 5.04-1.728 3.24Zm-17.088-8.46-10.176-5.04 1.728-3.24 10.176 5.04-1.728 3.24Zm24.576 8.1-1.728-3.24 10.368-4.68 1.728 3.24-10.368 4.68Zm17.28-7.92-1.728-3.24 10.368-4.68 1.728 3.24-10.368 4.68Zm-25.92 50.58-11.52-5.76 1.728-3.24 11.52 5.76-1.728 3.24Zm-17.28-8.28-10.176-5.04 1.728-3.24 10.176 5.04-1.728 3.24Zm-10.368-46.26h-3.84v13.86h3.84v-13.86Zm33.792 35.82h-3.84v14.22h3.84v-14.22Z" fill="#fff"/><path d="M27.184 47.125a5.425 5.425 0 0 1-3.648-1.44c-.96-.9-1.536-2.16-1.536-3.42 0-1.26.576-2.52 1.536-3.42 1.92-1.8 5.376-1.8 7.296 0 .96.9 1.536 2.16 1.536 3.42 0 1.26-.576 2.52-1.536 3.42-.96.9-2.304 1.44-3.648 1.44Zm0-6.12c-.384 0-.768.18-.96.36-.192.18-.384.54-.384.9s.192.72.384.9c.576.54 1.344.54 1.92 0 .192-.18.384-.54.384-.9s-.192-.72-.384-.9a1.52 1.52 0 0 0-.96-.36Zm0 46.44a5.425 5.425 0 0 1-3.648-1.44c-.96-.9-1.536-2.16-1.536-3.42 0-1.26.576-2.52 1.536-3.42 1.92-1.8 5.376-1.8 7.296 0 .96.9 1.536 2.16 1.536 3.42 0 1.26-.576 2.52-1.536 3.42-.96.9-2.304 1.44-3.648 1.44Zm0-6.12c-.384 0-.768.18-.96.36-.192.18-.384.54-.384.9s.192.72.384.9c.576.54 1.344.54 1.92 0 .192-.18.384-.54.384-.9s-.192-.72-.384-.9a1.52 1.52 0 0 0-.96-.36Zm33.792 22.32a5.425 5.425 0 0 1-3.648-1.44c-.96-.9-1.536-2.16-1.536-3.42 0-1.26.576-2.52 1.536-3.42 2.112-1.98 5.376-1.98 7.296 0 2.112 1.98 2.112 5.04 0 6.84-1.152.9-2.304 1.44-3.648 1.44Zm0-6.3c-.384 0-.768.18-.96.36-.576.54-.576 1.26 0 1.8s1.344.54 1.92 0c.576-.54.576-1.26 0-1.8-.384-.18-.768-.36-.96-.36Zm0-34.2a5.425 5.425 0 0 1-3.648-1.44c-.96-.9-1.536-2.16-1.536-3.42 0-1.26.576-2.52 1.536-3.42 2.112-1.98 5.376-1.98 7.296 0 2.112 1.98 2.112 5.04 0 6.84-1.152 1.08-2.304 1.44-3.648 1.44Zm0-6.12c-.384 0-.768.18-.96.36-.576.54-.576 1.26 0 1.8s1.344.54 1.92 0c.576-.54.576-1.26 0-1.8-.384-.18-.768-.36-.96-.36Zm33.216 30.42a5.425 5.425 0 0 1-3.648-1.44c-2.112-1.98-2.112-5.04 0-6.84 1.92-1.8 5.376-1.8 7.296 0 .96.9 1.536 2.16 1.536 3.42 0 1.26-.576 2.52-1.536 3.42-.96.9-2.304 1.44-3.648 1.44Zm0-6.12c-.384 0-.768.18-.96.36-.576.54-.576 1.26 0 1.8s1.344.54 1.92 0c.576-.54.576-1.26 0-1.8a1.52 1.52 0 0 0-.96-.36Zm0-34.2a5.425 5.425 0 0 1-3.648-1.44c-2.112-1.98-2.112-5.04 0-6.84 1.92-1.8 5.376-1.8 7.296 0 2.112 1.98 2.112 5.04 0 6.84-.96.9-2.304 1.44-3.648 1.44Zm0-6.12c-.384 0-.768.18-.96.36-.576.54-.576 1.26 0 1.8s1.344.54 1.92 0c.576-.54.576-1.26 0-1.8a1.52 1.52 0 0 0-.96-.36Zm-33.216-12.24a5.425 5.425 0 0 1-3.648-1.44c-.96-.9-1.536-2.16-1.536-3.42 0-1.26.576-2.52 1.536-3.42 2.112-1.98 5.376-1.98 7.296 0 2.112 1.98 2.112 5.04 0 6.84-1.152.9-2.304 1.44-3.648 1.44Zm0-6.12c-.384 0-.768.18-.96.36-.576.54-.576 1.26 0 1.8s1.344.54 1.92 0c.576-.54.576-1.26 0-1.8-.384-.36-.768-.36-.96-.36Z" fill="#fff"/><path d="M29.104 63.145h-3.84v15.48h3.84v-15.48Zm66.816-17.46h-3.84v13.86h3.84v-13.86Zm0 17.46h-3.84v15.48h3.84v-15.48Zm-14.784-28.08 1.92-3.24L94 37.405l-1.92 3.24-10.944-5.58Zm-18.432-9.36 1.92-3.24 11.712 5.94-1.92 3.24-11.712-5.94Zm.192 36h-3.84v14.22h3.84v-14.22Zm.576 35.46 11.136-5.4 1.728 3.24-11.136 5.4-1.728-3.24Zm16.704-8.1 10.944-5.4 1.728 3.24-10.944 5.4-1.728-3.24Z" fill="#fff"/></svg>