<svg width="40" height="40" viewBox="0 0 40 40" fill="none" xmlns="http://www.w3.org/2000/svg">
<g clip-path="url(#clip0_23296_3511)">
<path d="M40 0H0V40H40V0Z" fill="#C925D1" fill-opacity="0.12"/>
<path fill-rule="evenodd" clip-rule="evenodd" d="M15.26 13.09C10.393 13.09 7 11.749 7 10.545C7 9.341 10.393 8 15.26 8C20.077 8 23.06 9.321 23.06 10.545C23.06 11.769 20.077 13.09 15.26 13.09ZM22.943 20.591C23.892 20.591 24.838 20.697 25.755 20.906L25.978 19.931C25.33 19.783 24.667 19.701 24 19.65V10.991C24.036 10.846 24.06 10.698 24.06 10.545C24.06 8.425 20.524 7 15.26 7C10.658 7 6 8.218 6 10.545V30.163C6 31.577 7.534 32.718 10.321 33.377L10.551 32.403C8.361 31.886 7 31.027 7 30.163V26.024C7.649 26.439 8.477 26.804 9.499 27.088L9.767 26.124C8.498 25.771 7.544 25.294 7 24.771V19.018C8.589 20.055 11.351 20.754 14.627 20.89L14.668 19.891C11.12 19.744 8.161 18.91 7 17.757V12.232C8.612 13.455 11.946 14.09 15.26 14.09C18.816 14.09 21.579 13.438 23 12.362V19.594C22.981 19.594 22.962 19.591 22.943 19.591C17.874 19.591 13.247 22.382 10.867 26.874L11.75 27.341C13.956 23.178 18.245 20.591 22.943 20.591ZM29.411 22.372C28.613 21.896 27.761 21.507 26.879 21.218L27.192 20.268C28.143 20.58 29.062 20.999 29.923 21.513L29.411 22.372ZM24.614 33.074C24.549 32.468 24.317 31.917 23.956 31.464L29.416 26.301C31.23 28.021 32.358 30.503 32.488 33.074H24.614ZM21.505 31.263C22.573 31.263 23.453 32.051 23.614 33.074H19.396C19.557 32.051 20.437 31.263 21.505 31.263ZM30.141 25.616L32.023 23.837L31.335 23.111L23.223 30.78C22.729 30.456 22.139 30.263 21.505 30.263C19.886 30.263 18.565 31.499 18.396 33.074H12.901C13.157 27.818 17.452 23.622 22.695 23.622C24.105 23.622 25.466 23.915 26.739 24.492L27.153 23.581C25.748 22.944 24.248 22.622 22.695 22.622C16.736 22.622 11.888 27.535 11.888 33.574V34.074H33.5V33.574C33.5 30.576 32.244 27.632 30.141 25.616Z" fill="#C925D1"/>
</g>
<rect x="0.5" y="0.5" width="39" height="39" stroke="#C925D1"/>
<defs>
<clipPath id="clip0_23296_3511">
<rect width="40" height="40" fill="white"/>
</clipPath>
</defs>
</svg>
