<svg width="24" height="24" viewBox="0 0 24 24" fill="none" xmlns="http://www.w3.org/2000/svg">
<path fill-rule="evenodd" clip-rule="evenodd" d="M16.38 5.76953L11.29 18.2195L12.71 5.76953H16.38Z" fill="#DDDDDD"/>
<path fill-rule="evenodd" clip-rule="evenodd" d="M12.7101 5.76953L11.2901 18.2195H7.62012L12.7101 5.76953Z" fill="white"/>
<path fill-rule="evenodd" clip-rule="evenodd" d="M3.71 14.6504L2.25 18.2204H4.82L5.23 14.6504H3.71Z" fill="white"/>
<path fill-rule="evenodd" clip-rule="evenodd" d="M5.8301 9.49023L5.4201 13.0702H4.3501L5.8301 9.49023Z" fill="white"/>
<path fill-rule="evenodd" clip-rule="evenodd" d="M9.47992 9.49023L9.46992 9.52024L8.01992 13.0702H5.41992L5.82992 9.49023H9.47992Z" fill="#DDDDDD"/>
<path fill-rule="evenodd" clip-rule="evenodd" d="M21.7499 5.76953L16.6499 18.2295L18.0799 5.76953H21.7499Z" fill="#DDDDDD"/>
<path fill-rule="evenodd" clip-rule="evenodd" d="M18.08 5.76953L16.65 18.2295H12.98L18.08 5.76953Z" fill="white"/>
<path fill-rule="evenodd" clip-rule="evenodd" d="M7.38007 14.6504L5.91007 18.2204H4.82007L5.23007 14.6504H7.38007Z" fill="#DDDDDD"/>
</svg>
