<svg width="40" height="40" viewBox="0 0 40 40" xmlns="http://www.w3.org/2000/svg">  <g id="Icon-Architecture/32/Arch_AWS-Outposts-servers_32" stroke="none" stroke-width="1" fill="none" fill-rule="evenodd">  <g id="Icon-Service/32/AWS-Outposts-servers_32" transform="translate(6.050000, 10.450000)" fill="#FFFFFF"> <path d="M26.947,15.0361754 C26.947,14.2091754 26.274,13.5361754 25.447,13.5361754 L6.447,13.5361754 C5.62,13.5361754 4.947,14.2091754 4.947,15.0361754 L4.947,17.0361754 C4.947,17.8631754 5.62,18.5361754 6.447,18.5361754 L25.447,18.5361754 C26.274,18.5361754 26.947,17.8631754 26.947,17.0361754 L26.947,15.0361754 Z M27.947,15.0361754 L27.947,17.0361754 C27.947,18.4141754 26.826,19.5361754 25.447,19.5361754 L6.447,19.5361754 C5.068,19.5361754 3.947,18.4141754 3.947,17.0361754 L3.947,15.0361754 C3.947,13.6581754 5.068,12.5361754 6.447,12.5361754 L25.447,12.5361754 C26.826,12.5361754 27.947,13.6581754 27.947,15.0361754 L27.947,15.0361754 Z M7.947,16.5361754 L8.947,16.5361754 L8.947,15.5361754 L7.947,15.5361754 L7.947,16.5361754 Z M9.947,16.5361754 L12.947,16.5361754 L12.947,15.5361754 L9.947,15.5361754 L9.947,16.5361754 Z M13.947,16.5361754 L23.947,16.5361754 L23.947,15.5361754 L13.947,15.5361754 L13.947,16.5361754 Z M3.567,5.3331754 C3.567,5.5161754 3.579,5.6971754 3.599,5.8731754 C3.63,6.1221754 3.47,6.3551754 3.227,6.4171754 C2.395,6.6291754 1,7.2841754 1,9.2851754 L1.005,9.4831754 C1.049,10.3921754 1.381,11.9591754 3.093,12.1911754 L2.959,13.1821754 C1.211,12.9451754 0.106,11.5791754 0.006,9.5281754 L1.77635684e-15,9.2851754 C1.77635684e-15,7.5041754 0.953,6.1421754 2.572,5.5711754 C2.569,5.4921754 2.567,5.4131754 2.567,5.3331754 C2.567,3.3101754 3.922,1.2121754 5.718,0.451175401 C7.825,-0.438824599 10.048,0.00417540088 11.676,1.6361754 C12.138,2.1001754 12.525,2.6551754 12.829,3.2911754 C13.43,2.8601754 14.188,2.7161754 14.909,2.9281754 C15.949,3.2311754 16.654,4.1631754 16.839,5.4511754 C17.917,5.6921754 19.947,6.4981754 19.947,10.2761754 L18.947,10.2761754 C18.947,7.2311754 17.601,6.5891754 16.285,6.3631754 C16.016,6.3171754 15.835,6.0651754 15.876,5.7951754 C15.807,4.8351754 15.341,4.0961754 14.628,3.8881754 C14.056,3.7191754 13.433,3.9451754 13.051,4.4611754 C12.942,4.6101754 12.763,4.6831754 12.575,4.6591754 C12.392,4.6321754 12.239,4.5051754 12.177,4.3311754 C11.896,3.5341754 11.489,2.8651754 10.968,2.3421754 C10.329,1.7021754 8.575,0.325175401 6.109,1.3721754 C4.683,1.9751754 3.567,3.7151754 3.567,5.3331754 L3.567,5.3331754 Z" id="Fill-3"></path> </g> </g></svg>