<svg width="90" height="90" viewBox="0 0 90 90" fill="none" xmlns="http://www.w3.org/2000/svg">
<path fill-rule="evenodd" clip-rule="evenodd" d="M9.5 90C9.5 80.9069 13.2402 72.1861 19.8977 65.7563C26.5553 59.3265 35.5848 55.7143 45 55.7143C54.4152 55.7143 63.4448 59.3265 70.1023 65.7563C76.7598 72.1861 80.5 80.9069 80.5 90H9.5ZM45 51.4286C30.2897 51.4286 18.375 39.9214 18.375 25.7143C18.375 11.5071 30.2897 0 45 0C59.7103 0 71.625 11.5071 71.625 25.7143C71.625 39.9214 59.7103 51.4286 45 51.4286ZM50.2667 65.3093C51.2299 64.4512 52.6811 64.4717 53.6202 65.3566L53.7669 65.4948C54.8323 66.4986 54.8224 68.2067 53.7455 69.1979L47.4463 74.9962C46.4609 75.9031 44.9434 75.8678 44.0006 74.916L43.7607 74.6738C43.6803 74.5926 43.6065 74.5073 43.5394 74.4186H41.6493C41.8517 74.9434 42.163 75.436 42.5844 75.8613L42.8243 76.1035C44.3957 77.6899 46.9249 77.7488 48.5671 76.2372L54.8663 70.4389C56.6612 68.7868 56.6776 65.9401 54.9019 64.267L54.7553 64.1288C53.1901 62.654 50.7715 62.6199 49.166 64.05L42.7736 69.7442C42.6632 69.8425 42.5593 69.9453 42.4619 70.0521H44.9423L50.2667 65.3093ZM35.3331 83.038C36.2723 83.9229 37.7234 83.9434 38.6867 83.0854L44.011 78.3425H46.4914C46.394 78.4493 46.2901 78.5521 46.1798 78.6504L39.7873 84.3447C38.1819 85.7747 35.7633 85.7406 34.1981 84.2658L34.0514 84.1276C32.2758 82.4545 32.2922 79.6078 34.087 77.9557L40.3863 72.1574C42.0285 70.6458 44.5577 70.7047 46.1291 72.2911L46.369 72.5333C46.7903 72.9587 47.1017 73.4513 47.3041 73.976H45.4139C45.3469 73.8873 45.2731 73.802 45.1927 73.7208L44.9528 73.4787C44.0099 72.5268 42.4924 72.4915 41.5071 73.3984L35.2079 79.1967C34.131 80.188 34.1211 81.896 35.1865 82.8999L35.3331 83.038Z" fill="white"/>
</svg>
