<svg width="40" height="40" viewBox="0 0 40 40" fill="none" xmlns="http://www.w3.org/2000/svg">
<g clip-path="url(#clip0_23296_3669)">
<path d="M40 0H0V40H40V0Z" fill="#DD344C" fill-opacity="0.12"/>
<path fill-rule="evenodd" clip-rule="evenodd" d="M25.1324 25.6956L25.6391 26.5599L23.5861 27.7627L23.0793 26.8984L25.1324 25.6956ZM15.7134 25.6796L17.7845 26.8493L17.2918 27.7216L15.2207 26.5519L15.7134 25.6796ZM25.1324 14.0753L23.0793 12.8735L23.5861 12.0082L25.6391 13.211L25.1324 14.0753ZM15.7134 14.0923L15.2207 13.219L17.2918 12.0493L17.7845 12.9216L15.7134 14.0923ZM28.0467 20.9746H29.0482V18.9976H28.0467V20.9746ZM12.0009 20.9746H13.0024V19.0096H12.0009V20.9746ZM31.9985 26.4568L20.5416 32.9244L9.00148 26.4558V13.5435L20.5416 7.07485L31.9985 13.5425V26.4568ZM32.7466 12.8144L20.7889 6.06435C20.6377 5.97922 20.4494 5.97822 20.2982 6.06335L8.25538 12.8134C8.09714 12.9025 8 13.0688 8 13.2501V26.7492C8 26.9305 8.09714 27.0967 8.25538 27.1858L20.2982 33.9359C20.3733 33.978 20.4584 34 20.5426 34C20.6277 34 20.7128 33.978 20.7889 33.9349L32.7466 27.1848C32.9039 27.0957 33 26.9295 33 26.7492V13.2501C33 13.0698 32.9039 12.9035 32.7466 12.8144ZM12.6339 25.4052C12.1121 25.4052 11.6885 24.9806 11.6885 24.4598C11.6885 23.938 12.1121 23.5144 12.6339 23.5144C13.1546 23.5144 13.5793 23.938 13.5793 24.4598C13.5793 24.9806 13.1546 25.4052 12.6339 25.4052ZM12.6339 22.5129C11.5603 22.5129 10.687 23.3862 10.687 24.4598C10.687 25.5334 11.5603 26.4067 12.6339 26.4067C13.7074 26.4067 14.5807 25.5334 14.5807 24.4598C14.5807 23.3862 13.7074 22.5129 12.6339 22.5129ZM28.3381 25.4052C27.8173 25.4052 27.3927 24.9806 27.3927 24.4598C27.3927 23.938 27.8173 23.5144 28.3381 23.5144C28.8599 23.5144 29.2845 23.938 29.2845 24.4598C29.2845 24.9806 28.8599 25.4052 28.3381 25.4052ZM28.3381 22.5129C27.2645 22.5129 26.3912 23.3862 26.3912 24.4598C26.3912 25.5334 27.2645 26.4067 28.3381 26.4067C29.4117 26.4067 30.286 25.5334 30.286 24.4598C30.286 23.3862 29.4117 22.5129 28.3381 22.5129ZM21.4319 10.8585C21.4319 11.3793 21.0073 11.8029 20.4855 11.8029C19.9647 11.8029 19.5411 11.3793 19.5411 10.8585C19.5411 10.3367 19.9647 9.91209 20.4855 9.91209C21.0073 9.91209 21.4319 10.3367 21.4319 10.8585ZM18.5396 10.8585C18.5396 11.9311 19.4129 12.8044 20.4855 12.8044C21.5601 12.8044 22.4334 11.9311 22.4334 10.8585C22.4334 9.78389 21.5601 8.91059 20.4855 8.91059C19.4129 8.91059 18.5396 9.78389 18.5396 10.8585ZM28.3381 14.4468C28.8599 14.4468 29.2845 14.8705 29.2845 15.3923C29.2845 15.913 28.8599 16.3377 28.3381 16.3377C27.8173 16.3377 27.3927 15.913 27.3927 15.3923C27.3927 14.8705 27.8173 14.4468 28.3381 14.4468ZM20.4855 20.8885C19.9647 20.8885 19.5411 20.4638 19.5411 19.943C19.5411 19.4213 19.9647 18.9976 20.4855 18.9976C21.0073 18.9976 21.4319 19.4213 21.4319 19.943C21.4319 20.4638 21.0073 20.8885 20.4855 20.8885ZM21.4319 28.9925C21.4319 29.5133 21.0073 29.9379 20.4855 29.9379C19.9647 29.9379 19.5411 29.5133 19.5411 28.9925C19.5411 28.4708 19.9647 28.0471 20.4855 28.0471C21.0073 28.0471 21.4319 28.4708 21.4319 28.9925ZM12.6339 16.3377C12.1121 16.3377 11.6885 15.913 11.6885 15.3923C11.6885 14.8705 12.1121 14.4468 12.6339 14.4468C13.1546 14.4468 13.5793 14.8705 13.5793 15.3923C13.5793 15.913 13.1546 16.3377 12.6339 16.3377ZM21.7894 18.5069C21.4429 18.1924 20.9882 17.9961 20.4855 17.9961C19.9577 17.9961 19.478 18.2095 19.1275 18.553L14.5126 15.875C14.5527 15.7197 14.5807 15.5595 14.5807 15.3923C14.5807 14.3187 13.7074 13.4454 12.6339 13.4454C11.5603 13.4454 10.687 14.3187 10.687 15.3923C10.687 16.4659 11.5603 17.3392 12.6339 17.3392C13.1787 17.3392 13.6714 17.1128 14.0249 16.7503L18.6207 19.4173C18.5736 19.5855 18.5396 19.7598 18.5396 19.943C18.5396 20.8634 19.1836 21.6316 20.0418 21.8349V27.1007C19.1836 27.303 18.5396 28.0722 18.5396 28.9925C18.5396 30.0661 19.4129 30.9394 20.4855 30.9394C21.5601 30.9394 22.4334 30.0661 22.4334 28.9925C22.4334 28.1142 21.8445 27.3781 21.0433 27.1358V21.7988C21.8445 21.5574 22.4334 20.8214 22.4334 19.943C22.4334 19.7347 22.3923 19.5384 22.3312 19.3502L26.906 16.7022C27.2635 17.0908 27.7703 17.3392 28.3381 17.3392C29.4117 17.3392 30.286 16.4659 30.286 15.3923C30.286 14.3187 29.4117 13.4454 28.3381 13.4454C27.2645 13.4454 26.3912 14.3187 26.3912 15.3923C26.3912 15.5375 26.4092 15.6787 26.4413 15.8159L21.7894 18.5069Z" fill="#DD344C"/>
</g>
<rect x="0.5" y="0.5" width="39" height="39" stroke="#DD344C"/>
<defs>
<clipPath id="clip0_23296_3669">
<rect width="40" height="40" fill="white"/>
</clipPath>
</defs>
</svg>
