<svg xmlns="http://www.w3.org/2000/svg" role="img" viewBox="8.14 0.64 198.21 213.46"><style>svg {enable-background:new 0 0 216 216}</style><style/><path fill="#00b0ad" d="M163.4 46.3l-.8-.5-55.8-40.6-93.5 70.2 17.8 13.1 76.7 56 93.6-70.3-38-27.9zM38.8 62.1l50.4-37.9 14 10.2-50.4 38-14-10.3zm82.7 39.8l-13.9 10.4-50.8-37.1 50.4-37.8 32.8 24-36.5 27.4 18 13.1zm22.4-37.7l14 10.2L125.4 99l-14-10.2 32.5-24.6zm20.7 11.3l.9-.8.3-.2-18-13.1L161.7 51l32 23.3-50.4 37.9-13.9-10.2 35.2-26.5zm-20.7-17.1L93.1 21.3l13.8-10.4L157.7 48l-13.8 10.4zM34.9 65l14 10.2-13.8 10.4-14-10.3L34.9 65zm18 13.2l50.9 37.2L90 125.7 39.1 88.5l13.8-10.3zm72.6 26.6l13.9 10.2-31.6 23.7-13.9-10.2 31.6-23.7z"/><linearGradient id="SVGID_1_" x1="334.519" x2="334.519" y1="-293.069" y2="-92.05" gradientTransform="matrix(1 0 0 -1 -227.1 -26.74)" gradientUnits="userSpaceOnUse"><stop offset="0" stop-color="#d1e1d7"/><stop offset="1" stop-color="#00b0ad"/></linearGradient><path fill="url(#SVGID_1_)" d="M107.4 210.2c-.5 0-1-.2-1.5-.5l-92.1-66c-1.7-1.5-2-4.1-.5-5.8l.5-.5 46-33 2.9 6.3-41.6 29.8 86.2 61.8 86.2-61.8-41.5-29.8 2.9-6.3 46 33c1.7 1.5 2 4.1.5 5.8l-.5.5-92.1 66c-.3.3-.9.5-1.4.5z"/><linearGradient id="SVGID_2_" x1="334.519" x2="334.519" y1="-293.069" y2="-92.05" gradientTransform="matrix(1 0 0 -1 -227.1 -26.74)" gradientUnits="userSpaceOnUse"><stop offset="0" stop-color="#d1e1d7"/><stop offset="1" stop-color="#00b0ad"/></linearGradient><path fill="url(#SVGID_2_)" d="M107.4 144.2c-.5 0-1-.2-1.5-.5l-92.1-66c-1.7-1.5-2-4.1-.5-5.8l.5-.5 92.1-66c.9-.7 2.1-.7 2.9 0l92.1 66c1.7 1.5 2 4.1.5 5.8l-.5.5-92.1 66c-.3.3-.9.5-1.4.5zM21.3 74.6l86.2 61.8 86.2-61.8-86.2-61.8-86.2 61.8z"/><linearGradient id="SVGID_3_" x1="15.362" x2="15.362" y1="-49.218" y2="151.801" gradientTransform="matrix(1 0 0 -1 0 217.1)" gradientUnits="userSpaceOnUse"><stop offset="0" stop-color="#d1e1d7"/><stop offset="1" stop-color="#00b0ad"/></linearGradient><path fill="url(#SVGID_3_)" d="M12.4 74.6h5.9v66h-5.9z"/></svg>
