<svg xmlns="http://www.w3.org/2000/svg" role="img" viewBox="-3.78 101.47 365.56 156.81"><defs><clipPath id="clip-path"><path d="M10.448 115.797h34.468v34.468H10.448z" class="cls-1" transform="rotate(-45.213 27.682 133.032)"/></clipPath><clipPath id="clip-path-2"><path d="M84.176 122.635h20.218v20.218H84.176z" class="cls-1" transform="rotate(-45.213 94.285 132.743)"/></clipPath><style>.cls-1{fill:none}.cls-2{fill:#244b5a}.cls-4{fill:#75caca}.cls-5{fill:#74cbca}.cls-6{fill:#73cbca}.cls-7{fill:#72c9c9}.cls-8{fill:#70caca}.cls-9{fill:#6fcac8}.cls-10{fill:#6ec8c8}.cls-11{fill:#6cc9c9}.cls-12{fill:#6dc9c8}.cls-13{fill:#69c7c8}.cls-14{fill:#69c8c7}.cls-15{fill:#68c8c7}.cls-16{fill:#67c7c7}.cls-17{fill:#65c7c7}.cls-18{fill:#64c7c7}.cls-19{fill:#63c6c6}.cls-20{fill:#60c6c6}.cls-21{fill:#60c6c5}.cls-22{fill:#5fc6c5}.cls-23{fill:#5cc5c4}.cls-24{fill:#5ac5c4}.cls-25{fill:#57c4c4}.cls-26{fill:#58c4c3}.cls-27{fill:#55c4c3}.cls-28{fill:#53c3c2}.cls-29{fill:#52c3c2}.cls-30{fill:#50c3c2}.cls-31{fill:#50c1c0}.cls-34{fill:#47c1be}.cls-35{fill:#46c0be}.cls-36{fill:#43c0be}.cls-37{fill:#40bfbd}.cls-38{fill:#3bbfbd}.cls-39{fill:#39bfbc}.cls-40{fill:#34bebd}.cls-41{fill:#32bebb}.cls-42{fill:#2dbdbb}.cls-43{fill:#24bcbb}.cls-44{fill:#21bcb9}.cls-45{fill:#18bbb9}.cls-47{fill:#03bbb8}.cls-48{fill:#06b8b6}.cls-49{fill:#03b7b5}.cls-50{fill:#04b7b4}.cls-51{fill:#00b6b5}.cls-52{fill:#03b6b4}.cls-53{fill:#05b6b2}.cls-54{fill:#01b5b1}.cls-55{fill:#00b4b1}.cls-56{fill:#00b3b0}.cls-62{fill:#00afac}</style></defs><path d="M42.241 232.21a27.645 27.645 0 0 0 9.905 8.2 29.688 29.688 0 0 0 13.579 3.082 29.168 29.168 0 0 0 11.151-1.902 19.357 19.357 0 0 0 7.412-5.181 19.987 19.987 0 0 0 4.068-7.676 34.278 34.278 0 0 0 1.246-9.379v-11.02h-.262a23.66 23.66 0 0 1-10.234 8.92 31.568 31.568 0 0 1-12.725 2.624 33.097 33.097 0 0 1-12.529-2.361 31.868 31.868 0 0 1-10.168-6.494 29.88 29.88 0 0 1-6.822-9.905 31.084 31.084 0 0 1-2.493-12.463 32.602 32.602 0 0 1 2.362-12.464 32.038 32.038 0 0 1 6.494-10.102 29.29 29.29 0 0 1 9.84-6.756 31.698 31.698 0 0 1 12.529-2.428 35.035 35.035 0 0 1 5.837.525 27.644 27.644 0 0 1 6.166 1.837 28.405 28.405 0 0 1 11.743 9.446h.262V158.48h8.659v60.874a49.392 49.392 0 0 1-1.247 10.626 26.247 26.247 0 0 1-4.854 10.364 27.642 27.642 0 0 1-10.036 7.872q-6.43 3.147-16.793 3.148a42.18 42.18 0 0 1-16.399-3.017 38.112 38.112 0 0 1-13.12-9.315zm1.574-43.818a23.507 23.507 0 0 0 1.772 9.117 23.952 23.952 0 0 0 4.853 7.479 23.472 23.472 0 0 0 7.216 5.117 21.233 21.233 0 0 0 8.987 1.902 24.066 24.066 0 0 0 16.53-6.494 20.9 20.9 0 0 0 5.051-7.413 23.878 23.878 0 0 0 1.64-9.708 26.12 26.12 0 0 0-1.574-9.118 21.9 21.9 0 0 0-4.592-7.478 22.19 22.19 0 0 0-7.347-5.116 23.914 23.914 0 0 0-9.708-1.902 21.253 21.253 0 0 0-8.987 1.902 23.537 23.537 0 0 0-7.216 5.116 24.006 24.006 0 0 0-4.853 7.478 23.526 23.526 0 0 0-1.772 9.118zm89.735 31.486h-9.445v-92.885h28.6q14.168 0 22.368 6.166 8.198 6.17 8.2 18.63a23.21 23.21 0 0 1-6.1 16.334q-6.102 6.626-17.646 7.674l26.763 44.081h-11.545l-25.452-43.162H133.55zm0-51.821h16.793a37.748 37.748 0 0 0 10.692-1.312 19.857 19.857 0 0 0 7.019-3.476 12.696 12.696 0 0 0 3.805-5.117 16.977 16.977 0 0 0 1.18-6.363 16.63 16.63 0 0 0-1.18-6.231 13.202 13.202 0 0 0-3.805-5.183 18.556 18.556 0 0 0-7.02-3.476 39.7 39.7 0 0 0-10.691-1.247H133.55zm69.006-41.064h27.027q14.167 0 22.367 6.166 8.198 6.17 8.2 18.63 0 12.465-8.2 18.695-8.2 6.232-22.367 6.232h-17.58v43.162h-9.447zm9.447 41.064h15.218a37.758 37.758 0 0 0 10.692-1.312 19.868 19.868 0 0 0 7.02-3.476 12.7 12.7 0 0 0 3.803-5.117 16.964 16.964 0 0 0 1.181-6.363 16.618 16.618 0 0 0-1.18-6.231 13.207 13.207 0 0 0-3.805-5.183 18.565 18.565 0 0 0-7.019-3.476 39.71 39.71 0 0 0-10.692-1.247h-15.218zM355 205.185a36.025 36.025 0 0 1-5.837 6.69 36.897 36.897 0 0 1-7.938 5.445 45.27 45.27 0 0 1-9.642 3.608 44.556 44.556 0 0 1-10.955 1.312 49.688 49.688 0 0 1-19.22-3.673 46.107 46.107 0 0 1-25.517-25.583 53.854 53.854 0 0 1 0-39.096 46.101 46.101 0 0 1 25.518-25.582 49.676 49.676 0 0 1 19.219-3.674 46.957 46.957 0 0 1 17.317 3.411 34.933 34.933 0 0 1 14.825 11.283l-8.265 6.166a22.616 22.616 0 0 0-3.936-4.46 28.736 28.736 0 0 0-5.706-3.936 35.626 35.626 0 0 0-6.888-2.755 26.65 26.65 0 0 0-7.347-1.05 37.68 37.68 0 0 0-16.005 3.28 36.35 36.35 0 0 0-12.004 8.79 38.667 38.667 0 0 0-7.545 12.791 45.832 45.832 0 0 0 0 30.568 38.65 38.65 0 0 0 7.545 12.79 36.304 36.304 0 0 0 12.004 8.79 37.64 37.64 0 0 0 16.005 3.28 40.558 40.558 0 0 0 7.28-.654 30.242 30.242 0 0 0 7.086-2.23 26.807 26.807 0 0 0 6.56-4.265 31.615 31.615 0 0 0 5.706-6.756z" class="cls-2"/><g clip-path="url(#clip-path)"><path d="M3.74 108.66l-.431 3.816v-3.816h.431z" class="cls-4"/><path d="M4.311 108.66l-1.002 8.86v-5.044l.431-3.816h.571z" class="cls-5"/><path d="M4.88 108.66l-1.571 13.902v-5.042l1.002-8.86h.569z" class="cls-5"/><path d="M5.45 108.66l-2.141 18.945v-5.043L4.88 108.66h.57z" class="cls-6"/><path d="M6.02 108.66l-2.711 23.988v-5.043L5.45 108.66h.57z" class="cls-6"/><path d="M6.59 108.66l-3.281 29.032v-5.044L6.02 108.66h.57z" class="cls-7"/><path d="M7.16 108.66l-3.851 34.075v-5.043L6.59 108.66h.57z" class="cls-7"/><path d="M7.729 108.66l-4.42 39.118v-5.043L7.16 108.66h.569z" class="cls-8"/><path d="M8.299 108.66l-4.99 44.161v-5.043l4.42-39.118h.57z" class="cls-8"/><path d="M8.87 108.66l-5.505 48.714-.056-.006v-4.547l4.99-44.161h.571z" class="cls-9"/><path d="M9.439 108.66l-5.508 48.744h-.302l-.264-.03L8.87 108.66h.569z" class="cls-10"/><path d="M10.008 108.66l-5.507 48.744h-.57l5.508-48.744h.569z" class="cls-10"/><path d="M10.579 108.66l-5.508 48.744h-.57l5.507-48.744h.571z" class="cls-11"/><path d="M11.149 108.66l-5.508 48.744h-.57l5.508-48.744h.57z" class="cls-12"/><path d="M11.718 108.66l-5.507 48.744h-.57l5.508-48.744h.569z" class="cls-13"/><path d="M12.288 108.66L6.78 157.404h-.569l5.507-48.744h.57z" class="cls-13"/><path d="M12.858 108.66L7.35 157.404h-.57l5.508-48.744h.57z" class="cls-14"/><path d="M13.428 108.66L7.92 157.404h-.57l5.508-48.744h.57z" class="cls-15"/><path d="M13.997 108.66L8.49 157.404h-.57l5.508-48.744h.569z" class="cls-16"/><path d="M14.567 108.66L9.06 157.404h-.57l5.507-48.744h.57z" class="cls-17"/><path d="M15.138 108.66l-5.509 48.744H9.06l5.507-48.744h.571z" class="cls-18"/><path d="M15.707 108.66l-5.508 48.744h-.57l5.509-48.744h.569z" class="cls-19"/><path d="M16.277 108.66l-5.507 48.744h-.571l5.508-48.744h.57z" class="cls-20"/><path d="M16.846 108.66l-5.507 48.744h-.569l5.507-48.744h.569z" class="cls-21"/><path d="M17.417 108.66l-5.508 48.744h-.57l5.507-48.744h.571z" class="cls-22"/><path d="M17.987 108.66l-5.508 48.744h-.57l5.508-48.744h.57z" class="cls-23"/><path d="M18.556 108.66l-5.507 48.744h-.57l5.508-48.744h.569zm.57 0l-5.508 48.744h-.569l5.507-48.744h.57z" class="cls-24"/><path d="M19.696 108.66l-5.508 48.744h-.57l5.508-48.744h.57z" class="cls-25"/><path d="M20.266 108.66l-5.508 48.744h-.57l5.508-48.744h.57z" class="cls-26"/><path d="M20.835 108.66l-5.507 48.744h-.57l5.508-48.744h.569z" class="cls-27"/><path d="M21.405 108.66l-5.508 48.744h-.569l5.507-48.744h.57z" class="cls-28"/><path d="M21.975 108.66l-5.508 48.744h-.57l5.508-48.744h.57z" class="cls-29"/><path d="M22.545 108.66l-5.508 48.744h-.57l5.508-48.744h.57z" class="cls-30"/><path d="M23.114 108.66l-5.507 48.744h-.57l5.508-48.744h.569z" class="cls-31"/><path fill="#4bc2c0" d="M23.685 108.66l-5.508 48.744h-.57l5.507-48.744h.571z"/><path fill="#4cc1c0" d="M24.255 108.66l-5.508 48.744h-.57l5.508-48.744h.57z"/><path d="M24.824 108.66l-5.508 48.744h-.569l5.508-48.744h.569z" class="cls-34"/><path d="M25.394 108.66l-5.507 48.744h-.571l5.508-48.744h.57z" class="cls-35"/><path d="M25.964 108.66l-5.508 48.744h-.569l5.507-48.744h.57z" class="cls-36"/><path d="M26.534 108.66l-5.508 48.744h-.57l5.508-48.744h.57z" class="cls-37"/><path d="M27.104 108.66l-5.508 48.744h-.57l5.508-48.744h.57z" class="cls-38"/><path d="M27.673 108.66l-5.507 48.744h-.57l5.508-48.744h.569z" class="cls-39"/><path d="M28.243 108.66l-5.508 48.744h-.569l5.507-48.744h.57z" class="cls-40"/><path d="M28.813 108.66l-5.508 48.744h-.57l5.508-48.744h.57z" class="cls-41"/><path d="M29.383 108.66l-5.507 48.744h-.571l5.508-48.744h.57z" class="cls-42"/><path d="M29.952 108.66l-5.507 48.744h-.569l5.507-48.744h.569z" class="cls-43"/><path d="M30.523 108.66l-5.509 48.744h-.569l5.507-48.744h.571z" class="cls-44"/><path d="M31.093 108.66l-5.509 48.744h-.57l5.509-48.744h.57z" class="cls-45"/><path fill="#0fbab9" d="M31.662 108.66l-5.507 48.744h-.571l5.509-48.744h.569z"/><path d="M32.231 108.66l-5.507 48.744h-.569l5.507-48.744h.569z" class="cls-47"/><path d="M32.802 108.66l-5.508 48.744h-.57l5.507-48.744h.571z" class="cls-48"/><path d="M33.372 108.66l-5.508 48.744h-.57l5.508-48.744h.57z" class="cls-48"/><path d="M33.941 108.66l-5.507 48.744h-.57l5.508-48.744h.569z" class="cls-49"/><path d="M34.511 108.66l-5.507 48.744h-.57l5.507-48.744h.57z" class="cls-50"/><path d="M35.081 108.66l-5.508 48.744h-.569l5.507-48.744h.57z" class="cls-51"/><path d="M35.651 108.66l-5.508 48.744h-.57l5.508-48.744h.57z" class="cls-52"/><path d="M36.221 108.66l-5.508 48.744h-.57l5.508-48.744h.57z" class="cls-53"/><path d="M36.79 108.66l-5.507 48.744h-.57l5.508-48.744h.569z" class="cls-54"/><path d="M37.361 108.66l-5.509 48.744h-.569l5.507-48.744h.571z" class="cls-54"/><path d="M37.93 108.66l-5.508 48.744h-.57l5.509-48.744h.569z" class="cls-55"/><path d="M38.5 108.66l-5.507 48.744h-.571l5.508-48.744h.57z" class="cls-56"/><path d="M39.07 108.66l-5.508 48.744h-.569L38.5 108.66h.57z" class="cls-56"/><path fill="#00b2af" d="M39.64 108.66l-5.508 48.744h-.57l5.508-48.744h.57z"/><path fill="#00b2ae" d="M40.21 108.66l-5.509 48.744h-.569l5.508-48.744h.57z"/><path fill="#00b1ae" d="M40.779 108.66l-5.507 48.744h-.571l5.509-48.744h.569z"/><path fill="#00b1ad" d="M41.349 108.66l-5.508 48.744h-.569l5.507-48.744h.57z"/><path fill="#00b0ac" d="M41.919 108.66l-5.508 48.744h-.57l5.508-48.744h.57z"/><path d="M42.489 108.66l-5.507 48.744h-.571l5.508-48.744h.57z" class="cls-62"/><path d="M51.735 108.66l.319.035v48.709H36.982l5.507-48.744h9.246z" class="cls-62"/></g><g clip-path="url(#clip-path-2)"><path d="M108.581 126.799l-.389-8.352h.389v8.352z" class="cls-4"/><path d="M108.581 135.574l-.797-17.127h.408l.389 8.352v8.775z" class="cls-5"/><path d="M108.581 144.349l-1.207-25.902h.41l.797 17.127v8.775z" class="cls-5"/><path d="M108.298 147.04l-1.332-28.593h.408l1.207 25.902v2.691h-.283z" class="cls-6"/><path d="M107.888 147.04l-1.331-28.593h.409l1.332 28.593h-.41z" class="cls-7"/><path d="M107.48 147.04l-1.331-28.593h.408l1.331 28.593h-.408z" class="cls-7"/><path d="M107.071 147.04l-1.331-28.593h.409l1.331 28.593h-.409z" class="cls-8"/><path d="M106.663 147.04l-1.332-28.593h.409l1.331 28.593h-.408z" class="cls-9"/><path d="M106.254 147.04l-1.332-28.593h.409l1.332 28.593h-.409zm-.409 0l-1.331-28.593h.408l1.332 28.593h-.409z" class="cls-10"/><path d="M105.437 147.04l-1.333-28.593h.41l1.331 28.593h-.408z" class="cls-11"/><path d="M105.028 147.04l-1.332-28.593h.408l1.333 28.593h-.409z" class="cls-12"/><path d="M104.62 147.04l-1.333-28.593h.409l1.332 28.593h-.408zm-.41 0l-1.331-28.593h.408l1.333 28.593h-.41z" class="cls-13"/><path d="M103.802 147.04l-1.332-28.593h.409l1.331 28.593h-.408z" class="cls-14"/><path d="M103.393 147.04l-1.332-28.593h.409l1.332 28.593h-.409z" class="cls-15"/><path d="M102.985 147.04l-1.333-28.593h.409l1.332 28.593h-.408z" class="cls-16"/><path d="M102.576 147.04l-1.332-28.593h.408l1.333 28.593h-.409z" class="cls-17"/><path d="M102.167 147.04l-1.331-28.593h.408l1.332 28.593h-.409z" class="cls-18"/><path d="M101.758 147.04l-1.331-28.593h.409l1.331 28.593h-.409z" class="cls-19"/><path d="M101.349 147.04l-1.331-28.593h.409l1.331 28.593h-.409z" class="cls-20"/><path d="M100.94 147.04l-1.331-28.593h.409l1.331 28.593h-.409z" class="cls-21"/><path d="M100.532 147.04L99.2 118.447h.409l1.331 28.593h-.408z" class="cls-22"/><path d="M100.123 147.04l-1.332-28.593h.409l1.332 28.593h-.409z" class="cls-22"/><path d="M99.715 147.04l-1.332-28.593h.408l1.332 28.593h-.408z" class="cls-23"/><path d="M99.305 147.04l-1.331-28.593h.409l1.332 28.593h-.41z" class="cls-24"/><path d="M98.897 147.04l-1.331-28.593h.408l1.331 28.593h-.408z" class="cls-24"/><path d="M98.489 147.04l-1.333-28.593h.41l1.331 28.593h-.408z" class="cls-25"/><path d="M98.08 147.04l-1.332-28.593h.408l1.333 28.593h-.409z" class="cls-26"/><path d="M97.672 147.04l-1.333-28.593h.409l1.332 28.593h-.408z" class="cls-27"/><path d="M97.262 147.04l-1.331-28.593h.408l1.333 28.593h-.41z" class="cls-28"/><path d="M96.854 147.04l-1.332-28.593h.409l1.331 28.593h-.408z" class="cls-28"/><path d="M96.444 147.04l-1.331-28.593h.409l1.332 28.593h-.41z" class="cls-29"/><path d="M96.036 147.04l-1.332-28.593h.409l1.331 28.593h-.408z" class="cls-30"/><path d="M95.627 147.04l-1.331-28.593h.408l1.332 28.593h-.409z" class="cls-31"/><path fill="#4dc2c1" d="M95.219 147.04l-1.332-28.593h.409l1.331 28.593h-.408z"/><path fill="#4cc2c0" d="M94.81 147.04l-1.332-28.593h.409l1.332 28.593h-.409z"/><path fill="#4bc0bf" d="M94.401 147.04l-1.331-28.593h.408l1.332 28.593h-.409z"/><path d="M93.992 147.04l-1.331-28.593h.409l1.331 28.593h-.409z" class="cls-34"/><path d="M93.584 147.04l-1.332-28.593h.409l1.331 28.593h-.408z" class="cls-35"/><path d="M93.175 147.04l-1.332-28.593h.409l1.332 28.593h-.409z" class="cls-36"/><path fill="#41c0be" d="M92.767 147.04l-1.332-28.593h.408l1.332 28.593h-.408z"/><path d="M92.357 147.04l-1.331-28.593h.409l1.332 28.593h-.41z" class="cls-37"/><path d="M91.949 147.04l-1.331-28.593h.408l1.331 28.593h-.408z" class="cls-38"/><path fill="#3cbfbc" d="M91.54 147.04l-1.332-28.593h.41l1.331 28.593h-.409z"/><path d="M91.132 147.04L89.8 118.447h.408l1.332 28.593h-.408z" class="cls-39"/><path d="M90.722 147.04l-1.331-28.593h.409l1.332 28.593h-.41z" class="cls-40"/><path d="M90.314 147.04l-1.331-28.593h.408l1.331 28.593h-.408z" class="cls-41"/><path fill="#2fbebc" d="M89.906 147.04l-1.332-28.593h.409l1.331 28.593h-.408z"/><path d="M89.497 147.04l-1.332-28.593h.409l1.332 28.593h-.409z" class="cls-42"/><path fill="#2bbdba" d="M89.088 147.04l-1.332-28.593h.409l1.332 28.593h-.409z"/><path d="M88.679 147.04l-1.331-28.593h.408l1.332 28.593h-.409z" class="cls-43"/><path d="M88.271 147.04l-1.333-28.593h.41l1.331 28.593h-.408z" class="cls-44"/><path d="M87.862 147.04l-1.332-28.593h.408l1.333 28.593h-.409z" class="cls-45"/><path fill="#16bab9" d="M87.453 147.04l-1.332-28.593h.409l1.332 28.593h-.409z"/><path fill="#11bab7" d="M87.044 147.04l-1.331-28.593h.408l1.332 28.593h-.409z"/><path d="M86.636 147.04l-1.332-28.593h.409l1.331 28.593h-.408z" class="cls-47"/><path d="M86.227 147.04l-1.332-28.593h.409l1.332 28.593h-.409z" class="cls-48"/><path d="M85.819 147.04l-1.332-28.593h.408l1.332 28.593h-.408z" class="cls-48"/><path d="M85.409 147.04l-1.331-28.593h.409l1.332 28.593h-.41z" class="cls-48"/><path fill="#00b7b6" d="M85.001 147.04l-1.331-28.593h.408l1.331 28.593h-.408z"/><path d="M84.592 147.04l-1.331-28.593h.409l1.331 28.593h-.409z" class="cls-49"/><path d="M84.183 147.04l-1.331-28.593h.409l1.331 28.593h-.409z" class="cls-50"/><path d="M83.774 147.04l-1.331-28.593h.409l1.331 28.593h-.409z" class="cls-51"/><path d="M83.366 147.04l-1.332-28.593h.409l1.331 28.593h-.408z" class="cls-51"/><path d="M82.957 147.04l-1.332-28.593h.409l1.332 28.593h-.409z" class="cls-51"/><path d="M82.549 147.04l-1.332-28.593h.408l1.332 28.593h-.408z" class="cls-52"/><path d="M82.14 147.04l-1.332-28.593h.409l1.332 28.593h-.409z" class="cls-52"/><path d="M81.731 147.04L80.4 118.447h.408l1.332 28.593h-.409z" class="cls-53"/><path d="M81.323 147.04l-1.333-28.593h.41l1.331 28.593h-.408z" class="cls-54"/><path d="M80.914 147.04l-.925-19.852v-8.741h.001l1.333 28.593h-.409z" class="cls-54"/><path d="M80.506 147.04l-.517-11.077v-8.775l.925 19.852h-.408z" class="cls-54"/><path d="M80.096 147.04l-.107-2.302v-8.775l.517 11.077h-.41z" class="cls-55"/><path d="M79.989 144.738l.107 2.302h-.107v-2.302z" class="cls-55"/></g><path d="M28.663 118.295L13.959 133.11l14.813 14.704 12.533-.046-13.142-13.037 64.895-.24-5.688 5.726 6.267-.023 7.353-7.408-7.408-7.351-6.266.022 5.73 5.685-64.895.241 13.044-13.135-12.532.047z" class="cls-2"/></svg>