<svg width="24px" height="24px" viewBox="0 0 24 24" fill="none" xmlns="http://www.w3.org/2000/svg">
<path d="M13.172 3C13.3717 3 13.5569 3.12403 13.6128 3.29974L13.6285 3.378L13.8937 5.11972C14.7143 5.43399 15.4639 5.88498 16.1129 6.4438L17.9651 5.736C18.1648 5.673 18.3791 5.72025 18.506 5.86569L18.5547 5.934L20.4567 9.048C20.5566 9.22125 20.5254 9.42206 20.4013 9.56603L20.3426 9.624L18.5711 10.937C18.6126 11.2471 18.6341 11.5634 18.6341 11.8846C18.6341 12.2642 18.6041 12.637 18.5464 13.0009L16.414 11.808L16.4141 11.7883C16.3003 9.12027 14.0458 7 11.27 7C8.42105 7 6.12133 9.23333 6.12133 12C6.12133 14.7667 8.42105 17 11.27 17C12.0839 17 12.8531 16.8177 13.5366 16.4927L15.6024 17.7277C15.0969 18.0917 14.5425 18.3953 13.9505 18.6275L13.6475 20.622C13.6142 20.811 13.4499 20.9587 13.2564 20.9926L13.172 21H9.36795C9.1516 21 8.97893 20.876 8.91366 20.7003L8.89245 20.622L8.60314 18.7227C7.81464 18.4458 7.08772 18.044 6.44774 17.5418L4.55584 18.264C4.35613 18.327 4.14185 18.2797 4.01495 18.1343L3.96621 18.066L2.06419 14.952C1.96434 14.7787 1.99554 14.5779 2.11958 14.434L2.17831 14.376L3.78303 13.186C3.70444 12.7638 3.66341 12.3289 3.66341 11.8846C3.66341 11.5116 3.69233 11.1452 3.74812 10.7874L2.17831 9.624C2.01189 9.498 1.96196 9.30309 2.02853 9.12369L2.06419 9.048L3.96621 5.934C4.08271 5.76075 4.28658 5.68397 4.4759 5.71571L4.55584 5.736L6.25496 6.38396C6.95002 5.80026 7.75686 5.33871 8.6401 5.03368L8.89245 3.378C8.92573 3.189 9.09008 3.04134 9.28355 3.00738L9.36795 3H13.172ZM8.86048 9.00167C10.1165 8.06152 11.9264 7.89521 13.3672 8.76953C14.736 9.60013 15.3934 11.0692 15.1775 12.4945L21.7331 16.4727C22.0078 16.5907 22.1024 16.9886 21.8638 17.2816L20.8284 18.8906C20.6484 19.1705 20.2972 19.2492 20.009 19.0744L13.4534 15.0962C12.2288 15.9095 10.581 15.9797 9.21225 15.149C7.77145 14.2747 7.07344 12.6352 7.45148 11.1136L10.6077 12.9803L11.9582 10.8815L8.86048 9.00167Z" fill="white"/>
</svg>
