<svg width="40" height="40" viewBox="0 0 40 40" xmlns="http://www.w3.org/2000/svg">  <g id="Icon-Architecture/32/Arch_AWS-Private-Certificate-Authority_32" stroke="none" stroke-width="1" fill="none" fill-rule="evenodd">  <path d="M33.5,9 L33,9 L33,33 L30,33 L30,34 L33.5,34 C33.776,34 34,33.776 34,33.5 L34,9.5 C34,9.224 33.776,9 33.5,9 L33.5,9 Z M9,33.5 C9,33.776 9.224,34 9.5,34 L26,34 L26,33 L9,33 L9,33.5 Z M17.5,20 C17.628,20 17.756,19.951 17.854,19.854 L21.854,15.854 L21.146,15.146 L17.5,18.793 L15.854,17.146 L15.146,17.854 L17.146,19.854 C17.244,19.951 17.372,20 17.5,20 L17.5,20 Z M13,17.5 C13,20.533 15.468,23 18.5,23 C21.532,23 24,20.533 24,17.5 C24,14.467 21.532,12 18.5,12 C15.468,12 13,14.467 13,17.5 L13,17.5 Z M12,17.5 C12,13.916 14.916,11 18.5,11 C22.084,11 25,13.916 25,17.5 C25,21.084 22.084,24 18.5,24 C14.916,24 12,21.084 12,17.5 L12,17.5 Z M7,9 L30,9 L30,7 L7,7 L7,9 Z M30,30 L30,10 L7,10 L7,30 L23,30 L23,31 L6.5,31 C6.224,31 6,30.776 6,30.5 L6,6.5 C6,6.224 6.224,6 6.5,6 L30.5,6 C30.776,6 31,6.224 31,6.5 L31,30.5 C31,30.776 30.776,31 30.5,31 L27,31 L27,30 L30,30 Z M13.22,28.914 C13.082,28.821 13,28.666 13,28.5 L13,24 L14,24 L14,27.762 L18.314,26.036 C18.434,25.988 18.566,25.988 18.686,26.036 L23,27.762 L23,24 L24,24 L24,28.5 C24,28.666 23.918,28.821 23.78,28.914 C23.696,28.971 23.599,29 23.5,29 C23.437,29 23.374,28.988 23.314,28.964 L18.5,27.039 L13.686,28.964 C13.532,29.025 13.356,29.006 13.22,28.914 L13.22,28.914 Z" id="Fill-4" fill="#FFFFFF"></path> </g></svg>