<?xml version="1.0" encoding="utf-8"?>
<!-- Generator: Adobe Illustrator 22.0.1, SVG Export Plug-In . SVG Version: 6.00 Build 0)  -->
<svg version="1.1" id="Layer_1" xmlns="http://www.w3.org/2000/svg" xmlns:xlink="http://www.w3.org/1999/xlink" x="0px" y="0px"
	 viewBox="0 0 400 400" style="enable-background:new 0 0 400 400;" xml:space="preserve">
<style type="text/css">
	.st0{fill:#FFFFFF;}
	.st1{fill:#647881;}
</style>
<g id="Dark_Blue">
	<path class="st0" d="M350,400H50c-27.6,0-50-22.4-50-50V50C0,22.4,22.4,0,50,0h300c27.6,0,50,22.4,50,50v300
		C400,377.6,377.6,400,350,400z"/>
</g>
<path class="st1" d="M326.7,166.2c2-1.6,5-0.1,5,2.4v106c0,13.7-11.1,24.9-24.9,24.9H91.2c-13.7,0-24.9-11.1-24.9-24.9v-106
	c0-2.6,3-4,5-2.4c11.6,9,27,20.5,79.9,58.9c10.9,8,29.4,24.8,47.8,24.7c18.5,0.2,37.3-17,47.8-24.7
	C299.7,186.7,315.1,175.2,326.7,166.2z M199,233.2c12,0.2,29.3-15.1,38.1-21.5c68.8-49.9,74-54.3,89.9-66.7c3-2.3,4.8-6,4.8-9.8
	v-9.8c0-13.7-11.1-24.9-24.9-24.9H91.2c-13.7,0-24.9,11.1-24.9,24.9v9.8c0,3.8,1.8,7.4,4.8,9.8c15.9,12.4,21.1,16.8,89.9,66.7
	C169.7,218,187,233.4,199,233.2L199,233.2z"/>
</svg>
