<svg width="745" height="1053" viewBox="0 0 745 1053" fill="none" xmlns="http://www.w3.org/2000/svg">
<path d="M67.9964 995.738C65.4822 990.21 63.4251 985.23 63.4251 984.673C63.4251 984.115 54.6718 938.08 53.6744 926.25C49.3198 874.6 42.452 869.654 44.3694 823.604C45.531 795.708 41.6604 786.193 49.8951 763.38C66.8539 716.4 79.2883 697.915 101.327 686.92C119.206 678.001 135.98 679.213 151.725 690.56C155.874 693.551 169.797 702.973 182.665 711.498C195.532 720.023 210.814 730.358 216.625 734.465C222.436 738.572 232.129 744.499 238.164 747.635C248.81 753.168 249.204 753.252 251.363 750.458C256.107 744.32 267.558 727.092 273.75 718.869C304.765 677.68 275.555 682.258 268.256 680.11C256.78 676.732 251.946 671.783 241.219 659.211C216.307 630.012 204.5 597.527 202.756 557.386C200.73 510.773 205.417 473.18 225.886 451.785C234.659 442.614 253.229 429.297 270.207 420.001C284.586 412.128 372.771 395.674 380.51 399.092C384.376 400.8 365.205 350.128 376.237 284.244C378.429 271.156 393.315 230.655 394.888 227.899C398.772 221.094 462.769 199.19 480.974 188.499C501.315 176.554 545.303 147.779 548.617 126.379C555.9 79.3495 557.192 59.2524 560.228 57.4866C564.746 54.8587 594.947 117.125 574.505 175.836C570.47 187.423 551.231 214.325 542.616 225.578C536.413 233.681 549.885 237.468 557.635 249.166C564.683 259.805 569.317 285.813 570.221 299.29C571.145 313.051 566.791 341.286 562.891 346.824C561.311 349.068 560.664 351.272 561.444 351.752C562.22 352.231 567.478 351.604 573.127 350.361C578.777 349.117 591.023 347.137 600.34 345.96C616.927 343.866 617.521 343.895 628.778 347.358C645.664 352.552 727.803 372.397 675.39 601.916C658.025 677.957 576.992 778.297 566.803 770.528L541.712 751.397L512.796 794.268C498.037 809.426 482.123 824.055 472.737 831.093C457.926 842.198 428.292 859.693 424.29 859.693C423.26 859.693 417.422 862.088 411.318 865.015C393.669 873.479 367.234 880.417 339.232 882.256C230.811 889.28 272.173 876.189 182.399 832.717C175.318 829.288 159.018 846.587 139.373 864.462C118.399 883.546 107.389 898.07 99.069 917.631C96.2525 924.252 91.8678 934.41 89.3253 940.204C82.4071 955.969 76.716 977.782 75.8704 991.775C75.4568 998.619 74.5446 1004.57 73.8431 1005C73.1417 1005.44 70.5107 1001.27 67.9964 995.738ZM187.191 802.597C201.087 799.083 202.609 798.307 217.556 787.122C228.266 779.108 234.903 764.637 237.752 763.373C256.399 755.099 223.833 747.652 211.658 739.439C199.483 731.227 183.651 725.156 172.865 716.923C162.08 708.689 152.741 702.27 152.112 702.658C151.483 703.045 150.956 708.571 150.941 714.937C150.898 733.503 148.408 752.134 144.928 759.929C143.156 763.896 141.368 771.544 140.954 776.924C139.994 789.387 142.894 795.38 153.208 802.252C161.899 808.044 165.509 808.08 187.191 802.597ZM690.801 450.949C686.276 420.555 690.023 378.754 666.339 363.538C611.699 328.434 605.701 363.245 602.349 370.938C596.835 383.594 593.44 393.946 597.626 407.86C610.484 450.607 626.934 488.46 634.743 518.843C643.704 553.714 653.582 575.768 654.57 603.11C655.272 622.521 655.088 624.562 652.231 629.046C648.169 635.421 586.802 651.038 555.899 660.143C545.288 663.27 554.687 685.898 553.471 693.347C552.256 700.796 535.646 742.432 540.988 750.803C593.699 833.403 710.259 581.652 690.801 450.949ZM577.259 654.033C585.505 652.05 593.213 649.631 594.39 648.657C595.567 647.684 598.558 647.041 601.037 647.229C605.473 647.566 622.839 642.099 624.174 639.945C624.55 639.339 640.044 631.255 636.944 629.202C633.845 627.149 573.281 582.629 564.597 578.102C464.595 525.961 412.027 522.372 379.007 529.024C322.444 540.42 273.592 569.1 267.715 576.175C265.941 578.311 356.27 548.152 420.389 579.839C432.235 585.693 456.694 595.754 475.083 615.442C491.88 633.426 507.197 652.455 519.252 655.669C532.323 659.153 559.107 658.398 577.259 654.033ZM456.696 439.065C488.359 433.524 537.414 367.745 533.597 361.587C533.08 360.754 543.085 344.151 541.46 343.827C482.207 332.012 483.635 273.012 482.78 272.485C481.926 271.959 395.419 313.337 375.484 321.955C358.568 329.268 377.903 372.869 388.102 399.93C392.64 411.97 417.625 428.024 427.681 434.57C439.578 442.313 453.991 439.538 456.696 439.065ZM524.934 238.315C542.031 224.841 587.568 157.395 582.737 130.026C563.053 18.5182 554.568 87.5505 553.304 97.5015C552.781 101.623 551.291 110.751 549.992 117.786C548.693 124.822 547.037 134.98 546.312 140.36C545.588 145.74 543.584 155.22 541.859 161.428C540.135 167.636 537.411 177.954 535.807 184.359C534.203 190.764 528.803 206.54 523.807 219.418C518.811 232.296 514.724 243.14 514.724 243.515C514.724 245.395 518.19 243.63 524.934 238.315Z" fill="url(#paint0_linear_27249_7320)"/>
<path fill-rule="evenodd" clip-rule="evenodd" d="M72.48 992.207C99.2079 881.477 123.39 869.068 187.028 828.021C173.028 820.067 138.573 793.694 138.663 779.657C138.904 738.672 145.679 667.235 100.481 696.928C14.7189 753.267 45.7521 932.387 72.48 992.207Z" fill="url(#paint1_linear_27249_7320)"/>
<path fill-rule="evenodd" clip-rule="evenodd" d="M166.52 813.84C204.306 842.39 237.703 867.63 261.406 881.017C492.548 892.702 550.265 764.927 554.463 660.174C533.891 661.119 498.833 656.081 479.94 627.609C432.76 643.095 289.922 686.521 287.437 696.281C274.544 746.914 236.215 787.809 166.52 813.84Z" fill="url(#paint2_linear_27249_7320)"/>
<path fill-rule="evenodd" clip-rule="evenodd" d="M567.633 771.173C707.245 667.26 689.275 459.181 691.53 448.527C697.264 421.439 663.555 329.671 623.065 346.508C555.65 374.541 670.507 533.489 655.098 620.666C651.886 638.837 596.243 652.231 558.419 658.103C554.056 658.78 557.929 717.404 538.954 744.387C536.237 748.25 565.081 773.073 567.633 771.173Z" fill="url(#paint3_linear_27249_7320)"/>
<path fill-rule="evenodd" clip-rule="evenodd" d="M587.105 756.909C765.874 581.268 675.379 267.719 612.964 359.299C698.69 341.963 712.328 629.675 587.105 756.909Z" fill="url(#paint4_linear_27249_7320)"/>
<path fill-rule="evenodd" clip-rule="evenodd" d="M247.654 759.366C250.961 754.904 189.253 733.775 151.958 700.194C147.823 696.471 147.156 754.518 143.248 778.722C140.82 793.76 166.355 808.901 172.192 810.787C177.033 812.352 234.078 777.683 247.654 759.366Z" fill="url(#paint5_linear_27249_7320)"/>
<path fill-rule="evenodd" clip-rule="evenodd" d="M198.716 592.084C177.264 483.359 216.298 419.429 372.711 396.969C373.47 399.362 546.544 341.2 607.432 340.805C590.928 367.028 607.614 431.778 627.664 485.007C627.664 485.007 481.142 523.239 198.716 592.084Z" fill="url(#paint6_linear_27249_7320)"/>
<path fill-rule="evenodd" clip-rule="evenodd" d="M274.738 574.758C293.298 568.108 346.288 552.081 409.592 574.119C452.949 589.213 477.828 627.268 496.544 641.903C540.63 676.379 622.011 638.082 636.731 638.313C642.779 638.408 527.486 534.811 440.562 529.57C323.709 522.523 250.775 583.344 274.738 574.758Z" fill="url(#paint7_linear_27249_7320)"/>
<path fill-rule="evenodd" clip-rule="evenodd" d="M559.86 59.5628C559.217 94.9189 548.094 179.31 512.29 236.986C495.913 263.367 573.377 202.166 581.716 149.56C586.303 120.626 560.392 31.3853 559.86 59.5628Z" fill="url(#paint8_linear_27249_7320)"/>
<path fill-rule="evenodd" clip-rule="evenodd" d="M443.588 445.228C482.459 425.38 517.87 399.279 540.314 350.811C544.114 342.605 521.804 350.564 504.657 326.223C487.678 302.122 491.685 277.661 477.143 279.618C431.705 285.731 371.121 328.578 371.121 328.578C371.121 328.578 374.606 375.462 386.887 394.518C412.209 433.809 443.588 445.228 443.588 445.228Z" fill="url(#paint9_linear_27249_7320)"/>
<path opacity="0.552238" fill-rule="evenodd" clip-rule="evenodd" d="M503.754 321.857C515.221 363.46 578.949 355.92 565.626 274.938C559.882 283.336 545.533 329.448 503.754 321.857Z" fill="url(#paint10_linear_27249_7320)"/>
<path fill-rule="evenodd" clip-rule="evenodd" d="M438.096 441.767C416.636 427.173 398.111 409.017 386.243 389.811C374.376 370.604 369.166 272.655 389.133 248.311C400.106 221.539 438.95 195.663 482.097 184.234C400.081 279.335 426.657 423.477 499.235 409.461C502.862 408.76 445.276 441.982 438.096 441.767Z" fill="url(#paint11_linear_27249_7320)"/>
<path fill-rule="evenodd" clip-rule="evenodd" d="M151.332 697.328C167.356 709.187 236.478 762.687 251.712 754.221C216.329 840.713 123.171 767.441 151.332 697.328Z" fill="url(#paint12_linear_27249_7320)"/>
<path d="M436.299 211.545C419.692 221.223 399.727 232.049 395.762 241.836C382.459 269.785 377.472 319.943 381.523 317.062C421.002 288.989 466.71 281.206 483.342 266.171C532.628 221.616 551.761 129.51 541.405 143.163C507.878 187.361 453.431 201.56 436.299 211.545ZM177.949 830.033C177.949 830.033 131.331 797.789 132.19 787.444C139.329 701.482 124.073 696.466 116.384 697.378C107.094 698.479 58.8218 728.954 49.4048 815C42.5714 877.439 67.2433 974.993 71.0017 980.272C90.4499 928.004 82.8622 885.936 177.949 830.033ZM687.247 449.2C684.928 384.757 646.128 340.448 619.777 350.825C608.597 355.228 601.091 385.234 605.016 403.84C608.498 420.342 632.221 484.201 633.926 489.599C637.96 502.364 665.188 580.597 660.348 618.187C656.105 651.135 560.6 662.535 560.6 662.535C560.6 662.535 558.995 689.353 555.703 707.474C551.655 729.75 543.631 747.232 543.631 747.232C543.631 747.232 564.425 766.603 565.265 766.581C566.105 766.56 696.14 696.27 687.247 449.2ZM587.554 648.824C594.276 646.942 633.966 636.448 631.839 635.052C617.11 625.391 600.349 613.23 572.276 591.396C416.423 470.18 274.859 572.275 277.648 571.347C303.528 562.739 330.857 557.876 368.825 560.412C399.407 562.454 447.481 577.956 489.594 628.156C505.258 646.828 523.031 659.497 587.554 648.824ZM518.032 385.712C522.748 381.632 539.137 350.737 536.186 350.019C494.827 339.961 490.799 321.662 486.751 301.753C482.959 283.105 483.544 280.445 475.709 283.033C412.406 303.942 394.895 315.433 385.209 323.472C370.035 336.065 380.679 369.903 386.612 383.351C394.881 402.095 425.284 436.013 439.429 438.745C460.06 442.729 508.818 400.462 518.032 385.712ZM564.04 271.528C560.61 257.497 549.588 239.425 546.651 239.425C543.885 239.425 514.598 262.087 507.033 269.984C489.865 287.904 498.232 320.38 517.277 331.519C549.512 350.373 573.184 308.923 564.04 271.528ZM539.736 217.861C553.839 203.773 572.587 180.648 577.572 145.506C579.526 131.733 580.66 119.617 572.094 92.3855C570.109 86.0739 564.074 67.922 563.848 70.3135C559.393 117.533 552.864 169.964 522.046 225.688C512.372 243.178 517.574 239.999 539.736 217.861ZM208.98 499.096C192.179 569.568 236.702 662.122 272.768 667.397C307.633 672.497 407.583 642.319 460.003 627.743C473.737 623.924 481.126 625.916 450.742 600.462C403.107 568.078 364.661 563.908 326.307 568.261C284.002 573.063 252.301 585.585 255.266 583.102C274.663 566.86 309.212 537.817 375.959 524.665C404.971 518.949 449.742 518.447 503.796 539.558C570.843 565.745 605.764 604.58 634.111 617.741C644.205 622.428 647.811 620.249 651.799 608.536C658.481 588.912 617.863 466.382 603.147 430.651C580.689 376.124 606.891 350.062 601.164 351.325C573.386 357.448 548.891 375.302 528.356 393.687C478.163 438.627 447.569 448.2 443.029 447.814C428.695 446.595 401.874 421.225 392.129 408.342C385.911 400.122 274.628 421.601 241.812 450.11C241.061 450.763 215.74 467.002 208.98 499.096ZM173.325 805.912C210.029 790.512 245.963 757.786 242.855 757.245C223.8 753.931 153.523 705.777 153.572 706.276C155.986 731.127 150.57 753.457 148.099 778.088C147.068 788.36 160.761 804.274 173.325 805.912ZM291.761 698.191C284.739 713.843 277.408 775.395 175.939 814.894C173 816.038 260.973 876.193 265.76 876.403C556.277 889.156 553.815 667.924 549.959 662.347C549.401 661.539 524.553 662.405 505.307 653.272C503.839 652.576 490.784 645.847 483 635.711C480.36 632.273 479.949 630.405 470.165 633.248C424.886 646.407 289.701 694.911 291.761 698.191ZM201.258 590.282C149.379 409.015 331.438 400.605 360.304 393.626C382.626 388.228 377.762 386.129 373.055 365.016C366.446 335.372 368.505 309.531 374.171 281.833C379.528 255.641 382.292 242.396 393.607 229.263C402.728 218.677 454.121 194.468 466.861 188.358C521.154 162.317 541.898 133.694 547.949 111.181C552.215 95.3093 558.457 56.1903 555.651 28.2287C554.961 21.3464 559.401 32.1305 581.491 100.765C592.779 135.835 587.22 177.944 551.621 215.962C546.787 221.125 549.131 222.147 555.633 232.891C569.141 255.211 576.608 283.123 574.504 303.429C572.781 320.065 565.669 335.796 575.84 334.573C577.311 334.397 622.237 327.595 652.992 347.142C673.819 360.38 703.487 385.755 695.786 491.754C678.922 723.865 565.515 774.38 564.72 774.407C562.8 774.473 541.583 752.443 540.327 755.037C475.299 889.373 341.12 884.547 266.286 885.959C251.324 886.242 189.109 833.856 183.866 837.44C117.634 882.703 99.2466 894.007 73.7088 1009.69C72.73 1007.86 38.2935 946.774 39.723 823.923C40.8941 723.268 95.8841 675.766 120.33 678.506C150.008 681.832 164.902 697.315 206.698 724.775C214.159 729.676 240.518 745.616 246.516 745.471C261.46 745.118 271.655 717.663 274.094 699.888C276.554 681.958 278.932 686.292 264.939 681.476C247.297 675.405 216.867 642.367 201.258 590.282Z" fill="#2C3B54"/>
<path fill-rule="evenodd" clip-rule="evenodd" d="M293.492 696.507C320.734 681.642 475.377 633.294 476.765 630.259C477.779 628.044 295.374 703.078 254.063 675.264C251.573 673.587 263.711 682.505 274.687 684.757C275.458 684.915 275.406 713.752 265.007 730.069C262.092 734.644 287.167 699.958 293.492 696.507Z" fill="url(#paint13_linear_27249_7320)"/>
<path fill-rule="evenodd" clip-rule="evenodd" d="M545.472 239.417C528.521 251.25 505.149 267.783 500.37 280.534C497.551 288.054 495.648 259.534 514.892 242.544C525.734 232.971 548.94 236.996 545.472 239.417Z" fill="url(#paint14_linear_27249_7320)"/>
<path fill-rule="evenodd" clip-rule="evenodd" d="M522.678 334.68C541.904 340.413 556.755 328.671 564.896 303.37C565.858 300.38 562.517 325.527 550.568 334.875C539.177 343.788 518.624 333.472 522.678 334.68Z" fill="url(#paint15_linear_27249_7320)"/>
<path fill-rule="evenodd" clip-rule="evenodd" d="M571.479 360.796C598.721 345.931 626.613 348.206 650.386 349.277C666.167 349.988 620.659 331.585 568.959 334.462C563.437 339.163 547.029 366.587 523.903 394.358C520.431 398.527 565.154 364.247 571.479 360.796Z" fill="url(#paint16_linear_27249_7320)"/>
<path fill-rule="evenodd" clip-rule="evenodd" d="M312.195 419.585C328.19 416.293 348.253 410.856 361.531 409.518C372.603 408.401 386.476 402.166 397.134 413.63C391.2 405.495 379.85 389.066 376.314 378.305C379.534 390.949 365.145 392.732 361.568 393.3C281.141 406.007 232.759 427.665 208.348 467.942C254.585 432.171 309.176 420.207 312.195 419.585Z" fill="url(#paint17_linear_27249_7320)"/>
<defs>
<linearGradient id="paint0_linear_27249_7320" x1="447.301" y1="207.501" x2="572.73" y2="636.661" gradientUnits="userSpaceOnUse">
<stop stop-color="#0F3060"/>
<stop offset="0.271152" stop-color="#0575CE"/>
<stop offset="0.732747" stop-color="#0575CE"/>
<stop offset="1" stop-color="#0F3060"/>
</linearGradient>
<linearGradient id="paint1_linear_27249_7320" x1="207.074" y1="752.261" x2="58.314" y2="1003.84" gradientUnits="userSpaceOnUse">
<stop stop-color="#092D61"/>
<stop offset="1" stop-color="#0575CE"/>
</linearGradient>
<linearGradient id="paint2_linear_27249_7320" x1="345.953" y1="898.973" x2="432.375" y2="336.626" gradientUnits="userSpaceOnUse">
<stop stop-color="#0F3060"/>
<stop offset="0.456982" stop-color="#0575CE"/>
<stop offset="0.738284" stop-color="#0575CE"/>
<stop offset="1" stop-color="#0F3060"/>
</linearGradient>
<linearGradient id="paint3_linear_27249_7320" x1="394.349" y1="771.277" x2="311.017" y2="416.388" gradientUnits="userSpaceOnUse">
<stop stop-color="#FF8000"/>
<stop offset="0.662721" stop-color="#FFF4E1"/>
<stop offset="0.75" stop-color="#FFF4E1"/>
<stop offset="1" stop-color="#FF8400"/>
</linearGradient>
<linearGradient id="paint4_linear_27249_7320" x1="821.38" y1="443.007" x2="525.408" y2="507.75" gradientUnits="userSpaceOnUse">
<stop stop-color="white"/>
<stop offset="1" stop-color="white" stop-opacity="0"/>
</linearGradient>
<linearGradient id="paint5_linear_27249_7320" x1="195.434" y1="709.761" x2="143.086" y2="794.639" gradientUnits="userSpaceOnUse">
<stop stop-color="#FFC768"/>
<stop offset="0.378421" stop-color="#FF8400"/>
<stop offset="0.774204" stop-color="#FF8400"/>
<stop offset="1" stop-color="#FFC768"/>
</linearGradient>
<linearGradient id="paint6_linear_27249_7320" x1="341.565" y1="329.033" x2="383.007" y2="573.409" gradientUnits="userSpaceOnUse">
<stop stop-color="white"/>
<stop offset="1" stop-color="white" stop-opacity="0"/>
</linearGradient>
<linearGradient id="paint7_linear_27249_7320" x1="415.131" y1="560.447" x2="475.288" y2="681.062" gradientUnits="userSpaceOnUse">
<stop stop-color="#FF8000"/>
<stop offset="0.341448" stop-color="#FFC768"/>
<stop offset="0.71198" stop-color="#FFC768"/>
<stop offset="1" stop-color="#FF8400"/>
</linearGradient>
<linearGradient id="paint8_linear_27249_7320" x1="531.891" y1="156.563" x2="597.328" y2="148.728" gradientUnits="userSpaceOnUse">
<stop stop-color="#FF8000"/>
<stop offset="0.5" stop-color="#FFF4E1"/>
<stop offset="0.75" stop-color="#FFF4E1"/>
<stop offset="1" stop-color="#FF8400"/>
</linearGradient>
<linearGradient id="paint9_linear_27249_7320" x1="489.351" y1="413.781" x2="410.701" y2="309.667" gradientUnits="userSpaceOnUse">
<stop stop-color="#FF8000"/>
<stop offset="0.341448" stop-color="#FFC768"/>
<stop offset="0.71198" stop-color="#FFC768"/>
<stop offset="1" stop-color="#FF8400"/>
</linearGradient>
<linearGradient id="paint10_linear_27249_7320" x1="586.926" y1="391.961" x2="522.127" y2="299.47" gradientUnits="userSpaceOnUse">
<stop stop-color="white"/>
<stop offset="1" stop-color="white" stop-opacity="0"/>
</linearGradient>
<linearGradient id="paint11_linear_27249_7320" x1="255.615" y1="401.289" x2="474.264" y2="332.192" gradientUnits="userSpaceOnUse">
<stop stop-color="white"/>
<stop offset="1" stop-color="white" stop-opacity="0"/>
</linearGradient>
<linearGradient id="paint12_linear_27249_7320" x1="261.809" y1="775.429" x2="151.332" y2="697.328" gradientUnits="userSpaceOnUse">
<stop stop-color="white"/>
<stop offset="1" stop-color="white" stop-opacity="0"/>
</linearGradient>
<linearGradient id="paint13_linear_27249_7320" x1="298.681" y1="671.883" x2="312.536" y2="720.166" gradientUnits="userSpaceOnUse">
<stop stop-color="#212A3A"/>
<stop offset="1" stop-color="#404E67" stop-opacity="0"/>
</linearGradient>
<linearGradient id="paint14_linear_27249_7320" x1="498.605" y1="281.771" x2="553.531" y2="268.584" gradientUnits="userSpaceOnUse">
<stop stop-color="#212A3A"/>
<stop offset="1" stop-color="#404E67" stop-opacity="0"/>
</linearGradient>
<linearGradient id="paint15_linear_27249_7320" x1="551.103" y1="338.605" x2="524.776" y2="334.853" gradientUnits="userSpaceOnUse">
<stop stop-color="#212A3A"/>
<stop offset="1" stop-color="#404E67" stop-opacity="0"/>
</linearGradient>
<linearGradient id="paint16_linear_27249_7320" x1="549.94" y1="355.503" x2="660.524" y2="334.116" gradientUnits="userSpaceOnUse">
<stop stop-color="#212A3A"/>
<stop offset="1" stop-color="#404E67" stop-opacity="0"/>
</linearGradient>
<linearGradient id="paint17_linear_27249_7320" x1="304.132" y1="411.088" x2="229.772" y2="446.849" gradientUnits="userSpaceOnUse">
<stop stop-color="#212A3A"/>
<stop offset="1" stop-color="#404E67" stop-opacity="0"/>
</linearGradient>
</defs>
</svg>
