<svg width="40" height="40" viewBox="0 0 40 40" fill="none" xmlns="http://www.w3.org/2000/svg">
<g clip-path="url(#clip0_23300_4259)">
<path d="M40 0H0V40H40V0Z" fill="#ED7100" fill-opacity="0.12"/>
<path fill-rule="evenodd" clip-rule="evenodd" d="M14.0001 26.2322L11.5001 27.8992L9.00013 26.2322V23.7673L11.5001 22.1013L14.0001 23.7673V26.2322ZM11.7771 21.0844C11.6091 20.9714 11.3911 20.9714 11.2231 21.0844L8.22314 23.0843C8.08414 23.1763 8.00014 23.3333 8.00014 23.5003V26.5002C8.00014 26.6672 8.08414 26.8232 8.22314 26.9162L11.2231 28.9161C11.3071 28.9721 11.4031 29.0001 11.5001 29.0001C11.5971 29.0001 11.6931 28.9721 11.7771 28.9161L14.7771 26.9162C14.9161 26.8232 15.0001 26.6672 15.0001 26.5002V23.5003C15.0001 23.3333 14.9161 23.1763 14.7771 23.0843L11.7771 21.0844ZM30.9999 26.2322L28.4999 27.8992L25.9999 26.2322V23.7673L28.4999 22.1013L30.9999 23.7673V26.2322ZM28.7769 21.0844C28.6089 20.9714 28.3909 20.9714 28.2229 21.0844L25.2229 23.0843C25.0839 23.1763 24.9999 23.3333 24.9999 23.5003V26.5002C24.9999 26.6672 25.0839 26.8232 25.2229 26.9162L28.2229 28.9161C28.3069 28.9721 28.4029 29.0001 28.4999 29.0001C28.5969 29.0001 28.6929 28.9721 28.7769 28.9161L31.7769 26.9162C31.9159 26.8232 31.9999 26.6672 31.9999 26.5002V23.5003C31.9999 23.3333 31.9159 23.1763 31.7769 23.0843L28.7769 21.0844ZM25.4159 30.2221C25.5689 30.4521 25.5069 30.7621 25.2769 30.9161L20.782 33.912C20.703 33.966 20.607 33.999 20.505 34H20.503H20.502H20.5H20.498H20.496H20.495C20.393 33.999 20.297 33.966 20.218 33.912L15.7231 30.9161C15.4931 30.7621 15.4311 30.4521 15.5841 30.2221C15.738 29.9921 16.05 29.9321 16.277 30.0841L20 32.565V28.0002C20 27.7232 20.224 27.5002 20.5 27.5002C20.776 27.5002 21 27.7232 21 28.0002V32.565L24.7229 30.0841C24.9499 29.9311 25.2619 29.9911 25.4159 30.2221ZM8.00014 18.5004V13.9956C7.99814 13.9136 8.01714 13.8306 8.05814 13.7536C8.06214 13.7476 8.06414 13.7406 8.06714 13.7346C8.06714 13.7346 8.07114 13.7406 8.06814 13.7336C8.06914 13.7326 8.06914 13.7326 8.06914 13.7326C8.11814 13.6496 8.18714 13.5866 8.26614 13.5446L12.7581 11.0626C13.0011 10.9286 13.3051 11.0166 13.4381 11.2586C13.5711 11.5006 13.4831 11.8046 13.2421 11.9376L9.52912 13.9886L13.2441 16.0635C13.4851 16.1985 13.5711 16.5035 13.4371 16.7435C13.3001 16.9855 12.9951 17.0685 12.7561 16.9365L9.00013 14.8385V18.5004C9.00013 18.7764 8.77613 19.0004 8.50014 19.0004C8.22414 19.0004 8.00014 18.7764 8.00014 18.5004ZM31.9999 13.9856V18.5004C31.9999 18.7764 31.7759 19.0004 31.4999 19.0004C31.2239 19.0004 30.9999 18.7764 30.9999 18.5004V14.8305L27.2439 16.9365C27.0039 17.0715 26.6989 16.9855 26.5629 16.7445C26.4289 16.5035 26.5149 16.1985 26.7559 16.0645L30.4709 13.9806L26.7589 11.9386C26.5169 11.8046 26.4289 11.5016 26.5619 11.2586C26.6959 11.0166 27.0009 10.9306 27.2409 11.0626L31.7339 13.5346C31.8119 13.5756 31.8789 13.6376 31.9269 13.7166H31.9279V13.7176C31.9339 13.7276 31.9389 13.7376 31.9439 13.7476C31.9829 13.8236 32.0019 13.9056 31.9999 13.9856ZM18 9.76767L20.5 8.10172L23 9.76767V12.2326L20.5 13.8996L18 12.2326V9.76767ZM20.223 14.9165C20.307 14.9725 20.403 15.0005 20.5 15.0005C20.597 15.0005 20.693 14.9725 20.777 14.9165L23.777 12.9166C23.916 12.8236 24 12.6676 24 12.5006V9.50068C24 9.33369 23.916 9.17669 23.777 9.08469L20.777 7.08475C20.609 6.97175 20.391 6.97175 20.223 7.08475L17.223 9.08469C17.084 9.17669 17 9.33369 17 9.50068V12.5006C17 12.6676 17.084 12.8236 17.223 12.9166L20.223 14.9165ZM18 17.3355L23.91 20.5004L18 23.6653V17.3355ZM17.5 25.0002C17.581 25.0002 17.662 24.9803 17.736 24.9403L25.2059 20.9404C25.3679 20.8534 25.4699 20.6844 25.4699 20.5004C25.4699 20.3154 25.3679 20.1464 25.2059 20.0594L17.736 16.0595C17.58 15.9765 17.395 15.9815 17.243 16.0705C17.093 16.1615 17 16.3245 17 16.5005V24.5003C17 24.6753 17.093 24.8383 17.243 24.9293C17.322 24.9763 17.411 25.0002 17.5 25.0002Z" fill="#ED7100"/>
</g>
<rect x="0.5" y="0.5" width="39" height="39" stroke="#ED7100"/>
<defs>
<clipPath id="clip0_23300_4259">
<rect width="40" height="40" fill="white"/>
</clipPath>
</defs>
</svg>
