<svg width="40" height="40"  viewBox="0 0 40 40" xmlns="http://www.w3.org/2000/svg">  <g id="Icon-Architecture/32/Arch_AWS-Wickr_32" stroke="none" stroke-width="1" fill="none" fill-rule="evenodd">  <path d="M13,23.5 C13,24.327 13.673,25 14.5,25 L25.5,25 C26.327,25 27,24.327 27,23.5 L27,14.5 C27,13.673 26.327,13 25.5,13 L14.5,13 C13.673,13 13,13.673 13,14.5 L13,23.5 Z M16,12 L24,12 L24,9.75 C24,8.233 22.584,7 20.844,7 L19.156,7 C17.416,7 16,8.233 16,9.75 L16,12 Z M14.5,12 L15,12 L15,9.75 C15,7.682 16.864,6 19.156,6 L20.844,6 C23.136,6 25,7.682 25,9.75 L25,12 L25.5,12 C26.879,12 28,13.122 28,14.5 L28,23.5 C28,24.878 26.879,26 25.5,26 L14.5,26 C13.121,26 12,24.878 12,23.5 L12,14.5 C12,13.122 13.121,12 14.5,12 L14.5,12 Z M30.5,10 L26,10 L26,11 L30.5,11 C31.327,11 32,11.673 32,12.5 L32,27.5 C32,28.327 31.327,29 30.5,29 L18.5,29 C18.224,29 18,29.224 18,29.5 L18,32.459 L13.812,29.109 C13.724,29.039 13.613,29 13.5,29 L9.5,29 C8.673,29 8,28.327 8,27.5 L8,12.5 C8,11.673 8.673,11 9.5,11 L14,11 L14,10 L9.5,10 C8.121,10 7,11.122 7,12.5 L7,27.5 C7,28.878 8.121,30 9.5,30 L13.324,30 L18.187,33.891 C18.278,33.963 18.389,34 18.5,34 C18.573,34 18.647,33.984 18.717,33.951 C18.89,33.867 19,33.692 19,33.5 L19,30 L30.5,30 C31.879,30 33,28.878 33,27.5 L33,12.5 C33,11.122 31.879,10 30.5,10 L30.5,10 Z M18.854,22.854 L24.854,16.854 L24.146,16.146 L18.146,22.146 L18.854,22.854 Z M15.854,21.854 L15.146,21.146 L21.146,15.146 L21.854,15.854 L15.854,21.854 Z" id="Fill-1" fill="#FFFFFF"></path> </g></svg>