<svg width="90" height="90" viewBox="0 0 90 90" fill="none" xmlns="http://www.w3.org/2000/svg">
<path fill-rule="evenodd" clip-rule="evenodd" d="M81.9907 19.235C81.9907 29.0298 65.4276 36.97 44.9961 36.97C24.5645 36.97 8.00146 29.0298 8.00146 19.235C8.00146 9.44023 24.5645 1.5 44.9961 1.5C65.4276 1.5 81.9907 9.44023 81.9907 19.235ZM8.00932 25.8447V70.7651H8.00937C8.00952 80.5598 24.5725 88.5 45.004 88.5C65.4355 88.5 81.9986 80.5598 81.9986 70.765L81.9985 70.7368V25.8271C78.2557 33.7791 63.112 39.7288 44.9998 39.7288C26.9009 39.7288 11.7662 33.7879 8.00932 25.8447ZM29.3705 47.2037H59.9386C60.131 47.2037 60.287 47.3597 60.287 47.5521V77.9148C60.287 78.1073 60.131 78.2633 59.9386 78.2633H29.3705C29.1781 78.2633 29.0221 78.1073 29.0221 77.9148V47.5521C29.0221 47.3597 29.178 47.2037 29.3705 47.2037ZM27.5797 47.5521C27.5797 46.5631 28.3815 45.7614 29.3705 45.7614H59.9386C60.9276 45.7614 61.7293 46.5631 61.7293 47.5521V77.9148C61.7293 78.9039 60.9276 79.7056 59.9386 79.7056H29.3705C28.3815 79.7056 27.5797 78.9039 27.5797 77.9148V47.5521ZM35.9285 54.1153C34.9395 54.1153 34.1377 54.9171 34.1377 55.9061V60.7562C34.1377 61.7452 34.9395 62.5469 35.9285 62.5469H41.3098C42.2988 62.5469 43.1006 61.7452 43.1006 60.7562V55.9061C43.1006 54.9171 42.2988 54.1153 41.3098 54.1153H35.9285ZM34.1377 66.0943C34.1377 65.1053 34.9395 64.3036 35.9285 64.3036H41.3098C42.2988 64.3036 43.1006 65.1053 43.1006 66.0943V70.9444C43.1006 71.9334 42.2988 72.7352 41.3098 72.7352H35.9285C34.9395 72.7352 34.1377 71.9334 34.1377 70.9444V66.0943ZM44.969 55.8259C44.2416 56.4959 44.2416 57.5823 44.969 58.2524L48.8073 61.7879C49.5347 62.458 50.7141 62.458 51.4416 61.7879L55.145 58.3766C55.8724 57.7065 55.8724 56.6202 55.145 55.9501L51.3067 52.4145C50.5793 51.7445 49.3999 51.7445 48.6724 52.4145L44.969 55.8259ZM45.396 66.0943C45.396 65.1053 46.1977 64.3036 47.1868 64.3036H52.5681C53.5571 64.3036 54.3589 65.1053 54.3589 66.0943V70.9444C54.3589 71.9334 53.5571 72.7352 52.5681 72.7352H47.1868C46.1977 72.7352 45.396 71.9334 45.396 70.9444V66.0943Z" fill="#326CE5"/>
</svg>
