<svg width="40" height="40" viewBox="0 0 40 40" xmlns="http://www.w3.org/2000/svg">  <g id="Icon-Architecture/32/Arch_AWS-Cloud-Control-API_32" stroke="none" stroke-width="1" fill="none" fill-rule="evenodd">  <g id="Icon-Service/32/AWS-Cloud-Control-API_32" transform="translate(6.000000, 9.550000)" fill="#FFFFFF"> <path d="M1.05653567,14.5833999 C0.869535669,13.5473999 1.13653567,12.5343999 1.80953567,11.7293999 C2.49753567,10.9063999 3.50653567,10.4333999 4.57753567,10.4333999 L16.6865357,10.4333999 L14.3185357,12.8013999 L15.0255357,13.5083999 L18.2465357,10.2873999 C18.4425357,10.0913999 18.4425357,9.77539988 18.2465357,9.58039988 L15.0255357,6.35839988 L14.3185357,7.06539988 L16.6865357,9.43339988 L4.57753567,9.43339988 C3.20853567,9.43339988 1.92053567,10.0363999 1.04153567,11.0883999 C0.188535669,12.1093999 -0.165464331,13.4483999 0.072535669,14.7613999 C0.450535669,16.8543999 2.44153567,18.4333999 4.70253567,18.4333999 L5.96453567,18.4333999 L5.96453567,17.4333999 L4.70253567,17.4333999 C2.91653567,17.4333999 1.34953567,16.2083999 1.05653567,14.5833999 M27.9965357,13.0603999 C27.9965357,18.0083999 23.0235357,18.4283999 22.9725357,18.4323999 L9.39753567,18.4333999 L11.8035357,20.8403999 L11.0965357,21.5473999 L7.83653567,18.2873999 C7.64153567,18.0913999 7.64153567,17.7753999 7.83653567,17.5803999 L11.0965357,14.3193999 L11.8035357,15.0263999 L9.39753567,17.4333999 L22.9365357,17.4333999 C23.0665357,17.4213999 26.9965357,17.0703999 26.9965357,13.0603999 C26.9965357,12.3273999 26.8605357,11.6673999 26.5895357,11.0983999 C26.2425357,10.3663999 25.6695357,9.76939988 24.8905357,9.32539988 C24.6025357,9.16039988 24.2865357,9.01839988 23.9525357,8.90139988 C23.6305357,8.78939988 23.2985357,8.70339988 22.9655357,8.64539988 C22.6995357,8.59939988 22.5175357,8.34939988 22.5555357,8.08239988 C22.5585357,7.70239988 22.5155357,7.33239988 22.4305357,6.99939988 C22.1635357,5.95339988 21.4795357,5.25039988 20.5535357,5.06939988 C19.6575357,4.89439988 18.7185357,5.26639988 18.1645357,6.01739988 C18.0555357,6.16639988 17.8775357,6.23839988 17.6885357,6.21539988 C17.5055357,6.18839988 17.3525357,6.06239988 17.2905357,5.88739988 C16.8795357,4.72139988 16.2855357,3.74039988 15.5215357,2.97339988 C14.5845357,2.03039988 12.0115357,0.00639988496 8.38653567,1.54539988 C6.27853567,2.44039988 4.49653567,5.16639988 4.49653567,7.49839988 L3.49653567,7.49839988 C3.49653567,4.76139988 5.51553567,1.67839988 7.99553567,0.625399885 C10.9015357,-0.607600115 13.9805357,0.00439988496 16.2305357,2.26839988 C16.9295357,2.97039988 17.5025357,3.82439988 17.9405357,4.81239988 C18.7165357,4.17239988 19.7475357,3.89539988 20.7445357,4.08739988 C22.0455357,4.34139988 23.0385357,5.33739988 23.3995357,6.75139988 C23.4785357,7.06239988 23.5285357,7.39539988 23.5485357,7.74439988 C23.7955357,7.80239988 24.0415357,7.87339988 24.2825357,7.95739988 C24.6735357,8.09339988 25.0445357,8.26139988 25.3865357,8.45639988 C26.3465357,9.00339988 27.0555357,9.74839988 27.4935357,10.6693999 C27.8275357,11.3733999 27.9965357,12.1773999 27.9965357,13.0603999" id="Fill-6"></path> </g> </g></svg>