<svg width="40" height="40" viewBox="0 0 40 40" fill="none" xmlns="http://www.w3.org/2000/svg">
<g clip-path="url(#clip0_23298_4055)">
<path d="M40 0H0V40H40V0Z" fill="#E7157B" fill-opacity="0.12"/>
<path fill-rule="evenodd" clip-rule="evenodd" d="M31.5 28V24C32.327 24 33 24.897 33 26C33 27.103 32.327 28 31.5 28ZM9.5 28C8.673 28 8 27.103 8 26C8 24.897 8.673 24 9.5 24V28ZM31.5 23V22.944C31.5 21.321 30.229 20 28.667 20H20.5V21H28.667C29.678 21 30.5 21.872 30.5 22.944V29.056C30.5 30.128 29.678 31 28.667 31H12.333C11.322 31 10.5 30.128 10.5 29.056V22.944C10.5 21.872 11.322 21 12.333 21H15.5V20H12.333C10.771 20 9.5 21.321 9.5 22.944V23C8.121 23 7 24.346 7 26C7 27.654 8.121 29 9.5 29V29.056C9.5 30.679 10.771 32 12.333 32H17.5V34H18.5V32H22.5V34H23.5V32H28.667C30.229 32 31.5 30.679 31.5 29.056V29C32.879 29 34 27.654 34 26C34 24.346 32.879 23 31.5 23ZM20.5 11H22.5V10H20.5V11ZM16.5 11H18.5V10H16.5V11ZM12.5 11H14.5V10H12.5V11ZM16 27C15.173 27 14.5 26.327 14.5 25.5C14.5 24.673 15.173 24 16 24C16.827 24 17.5 24.673 17.5 25.5C17.5 26.327 16.827 27 16 27ZM16 23C14.621 23 13.5 24.122 13.5 25.5C13.5 26.878 14.621 28 16 28C17.379 28 18.5 26.878 18.5 25.5C18.5 24.122 17.379 23 16 23ZM23.5 25.5C23.5 24.673 24.173 24 25 24C25.827 24 26.5 24.673 26.5 25.5C26.5 26.327 25.827 27 25 27C24.173 27 23.5 26.327 23.5 25.5ZM27.5 25.5C27.5 24.122 26.379 23 25 23C23.621 23 22.5 24.122 22.5 25.5C22.5 26.878 23.621 28 25 28C26.379 28 27.5 26.878 27.5 25.5ZM10.5 7.455C10.5 7.204 10.704 7 10.955 7H24.067C24.306 7 24.5 7.194 24.5 7.432V14.529C24.5 14.789 24.289 15 24.029 15H18C17.724 15 17.5 15.224 17.5 15.5V18.261L15.298 15.208C15.204 15.077 15.054 15 14.893 15H10.955C10.704 15 10.5 14.796 10.5 14.545V7.455ZM10.955 16H14.637L17.595 20.102C17.69 20.235 17.843 20.31 18 20.31C18.051 20.31 18.104 20.302 18.153 20.285C18.36 20.219 18.5 20.026 18.5 19.81V16H24.029C24.84 16 25.5 15.34 25.5 14.529V7.432C25.5 6.643 24.857 6 24.067 6H10.955C10.152 6 9.5 6.652 9.5 7.455V14.545C9.5 15.348 10.152 16 10.955 16Z" fill="#E7157B"/>
</g>
<rect x="0.5" y="0.5" width="39" height="39" stroke="#E7157B"/>
<defs>
<clipPath id="clip0_23298_4055">
<rect width="40" height="40" fill="white"/>
</clipPath>
</defs>
</svg>
