<svg xmlns="http://www.w3.org/2000/svg" role="img" viewBox="0.92 -5.08 357.16 368.16"><defs><style>.cls-1{fill:#fff}</style></defs><g id="_编组_" data-name="编组"><g id="_编组_2" data-name="编组 2"><path id="_路径_" d="M228.765 30.362L179.644 2l-49.093 28.362 49.093 28.335 49.121-28.335z" class="cls-1" data-name="路径"/><path id="_路径_2" d="M152.896 215.413l7.001 129.366 19.747 11.405 19.774-11.405 7.002-129.366-26.776-15.453-26.748 15.453z" class="cls-1" data-name="路径 2"/><path id="_路径_3" d="M265.496 108.474L351.24 58.97l-35.91-20.758a27.35 27.35 0 0 0-13.676-3.802 25.819 25.819 0 0 0-13.183 3.555l-72.532 41.9z" class="cls-1" data-name="路径 3"/><path id="_路径_4" d="M265.414 150.43l85.743 49.503-35.938 20.759a27.35 27.35 0 0 1-13.675 3.802 25.818 25.818 0 0 1-13.183-3.556l-72.505-41.873z" class="cls-1" data-name="路径 4"/><path id="_路径_5" d="M130.086 129.424L8.049 199.906l35.938 20.731a27.35 27.35 0 0 0 13.675 3.802 25.818 25.818 0 0 0 13.183-3.556L179.7 157.978z" class="cls-1" data-name="路径 5"/><path id="_路径_6" d="M179.644 158.033L8.049 58.97l35.91-20.758a27.35 27.35 0 0 1 13.676-3.802 25.819 25.819 0 0 1 13.183 3.555l158.412 91.46z" class="cls-1" data-name="路径 6"/><path id="_路径_7" d="M130.086 129.424L8.049 199.906l35.938 20.731a27.35 27.35 0 0 0 13.675 3.802 25.818 25.818 0 0 0 13.183-3.556l78.769-45.51a19.774 19.774 0 0 0 .793-34.243 1040.537 1040.537 0 0 1-20.321-11.706z" class="cls-1" data-name="路径 7"/></g></g></svg>