<svg width="40" height="40" viewBox="0 0 40 40" fill="none" xmlns="http://www.w3.org/2000/svg">
<g clip-path="url(#clip0_23300_4274)">
<path d="M40 0H0V40H40V0Z" fill="#ED7100" fill-opacity="0.12"/>
<path fill-rule="evenodd" clip-rule="evenodd" d="M9.00124 17.1858H8V13.2323C8 13.0573 8.09412 12.8952 8.24631 12.8063L13.9404 9.50012L14.448 10.3521L9.00124 13.5149V17.1858ZM33 17.1858H31.9988V13.5149L26.551 10.3511L27.0596 9.49914L32.7537 12.8063C32.9059 12.8952 33 13.0573 33 13.2323V17.1858ZM24.2742 31.4492L23.7655 30.5972L31.9988 25.7986V21.1394H33V26.0813C33 26.2562 32.9059 26.4183 32.7537 26.5073L24.2742 31.4492ZM16.7569 31.4492L8.24631 26.5073C8.09412 26.4183 8 26.2562 8 26.0813V21.1394H9.00124V25.7986L17.2655 30.5972L16.7569 31.4492ZM18.0124 12.6244L20.5155 13.8599L23.0186 12.6244V9.28169L20.5155 8.04621L18.0124 9.28169V12.6244ZM12.2753 17.0563L20.5135 21.1295L28.4704 17.0534L22.9405 13.768L21.0161 14.7178V17.1858H20.0149V14.7178L18.0945 13.77L12.2753 17.0563ZM12.2302 22.6595L20.5115 26.7979L28.4393 22.6941L24.1741 20.3674L21.0161 21.9844L21.0171 23.1161H20.0159L20.0149 21.9884L16.2823 20.1431L12.2302 22.6595ZM20.0159 33L20.0149 27.6578L10.9887 23.1468C10.8275 23.0667 10.7234 22.9066 10.7154 22.7287C10.7064 22.5508 10.7955 22.3828 10.9477 22.2879L15.236 19.6252L10.9907 17.5268C10.8255 17.4458 10.7194 17.2807 10.7142 17.0988C10.7094 16.917 10.8065 16.746 10.9667 16.656L17.0913 13.1987C17.0392 13.1196 17.0112 13.0267 17.0112 12.9298V8.97628C17.0112 8.78947 17.1183 8.61848 17.2875 8.53447L20.2912 7.05189C20.4324 6.9827 20.5986 6.9827 20.7398 7.05189L23.7435 8.53447C23.9127 8.61848 24.0199 8.78947 24.0199 8.97628V12.9298C24.0199 13.0297 23.9898 13.1255 23.9348 13.2056L29.754 16.662C29.9092 16.7539 30.0023 16.9219 29.9963 17.1008C29.9903 17.2797 29.8861 17.4408 29.7259 17.5238L25.2424 19.8209L29.738 22.273C29.8992 22.361 29.9983 22.53 29.9963 22.7109C29.9943 22.8928 29.8911 23.0588 29.7279 23.1438L21.0161 27.6528L21.0171 33H20.0159Z" fill="#ED7100"/>
</g>
<rect x="0.5" y="0.5" width="39" height="39" stroke="#ED7100"/>
<defs>
<clipPath id="clip0_23300_4274">
<rect width="40" height="40" fill="white"/>
</clipPath>
</defs>
</svg>
