<svg id="图层_1" data-name="图层 1" xmlns="http://www.w3.org/2000/svg" viewBox="0 0 916.9 916.9"><defs><style>.cls-1{fill:#fff;}</style></defs><title>未标题-1</title><path class="cls-1" d="M635.75,434.78h0a13.05,13.05,0,0,0,0,26.1,44.9,44.9,0,0,1-.05,89.79H292A60.27,60.27,0,0,1,279.65,431.4a13.05,13.05,0,1,0-5.29-25.56A86.38,86.38,0,0,0,292,576.78h343.7a71,71,0,0,0,.08-142Z"/><path class="cls-1" d="M467.38,343.58A13,13,0,0,0,484,335.52a60.19,60.19,0,1,1,108.78,50.1,13.05,13.05,0,1,0,22.49,13.25A86.28,86.28,0,1,0,459.31,327a13.05,13.05,0,0,0,8.07,16.6Z"/><path class="cls-1" d="M306.12,392.48h.19a13,13,0,0,0,13-12.88,44.87,44.87,0,0,1,79.26-28.23,13,13,0,0,0,20-16.81,71,71,0,0,0-125.32,44.7,13.05,13.05,0,0,0,12.87,13.22Z"/><path class="cls-1" d="M211.53,364.65c.94-.6,1.9-1.2,2.86-1.79A19.92,19.92,0,0,0,211.53,364.65Z"/><path class="cls-1" d="M292,600.6a110.18,110.18,0,0,1-59.09-203.19c.55-.31,1.07-.64,1.58-1a19.57,19.57,0,0,0,8.46-16.12,19.7,19.7,0,0,0-2.87-10.2A19.62,19.62,0,0,0,216.42,362a18.36,18.36,0,0,0-3.07,1.54l-1.82,1.15a150,150,0,0,0-68.9,125.75c0,82.33,67,149.33,149.34,149.33H410.89a19.57,19.57,0,0,0,19.57-19.56h0a19.57,19.57,0,0,0-19.57-19.57Z"/><path class="cls-1" d="M429.86,274.09l-1.29-3.27A18.53,18.53,0,0,0,429.86,274.09Z"/><path class="cls-1" d="M462.08,278.26,461,279.4C461.37,279,461.73,278.66,462.08,278.26Z"/><path class="cls-1" d="M687.68,382.32a148.65,148.65,0,0,0,2.5-27.12c0-82.35-67-149.34-149.33-149.34a149.25,149.25,0,0,0-107.57,45.85l-.3.32a19.57,19.57,0,0,0-4.41,18.79l1.29,3.27a19.6,19.6,0,0,0,27.08,8.33l1.58-1a20.12,20.12,0,0,0,2.47-2l1.09-1.14A109.63,109.63,0,0,1,539.68,245c60.89-.63,111.05,48.74,111.35,109.63A109.55,109.55,0,0,1,635.78,411,94.84,94.84,0,0,1,657.3,598.12a19.53,19.53,0,0,0-15.07,19h0a19.59,19.59,0,0,0,24.14,19c59.12-13.91,103.27-67.09,103.27-130.4A134.18,134.18,0,0,0,687.68,382.32Z"/><path class="cls-1" d="M481.22,634.67a14.32,14.32,0,0,1-14.31-14.32v-.23a14.31,14.31,0,1,1,28.62,0v.23A14.31,14.31,0,0,1,481.22,634.67Z"/><path class="cls-1" d="M481.22,728.79a14.31,14.31,0,0,1-14.31-14.31V714a14.31,14.31,0,1,1,28.62,0v.47A14.31,14.31,0,0,1,481.22,728.79Zm0-47.06a14.31,14.31,0,0,1-14.31-14.31V667a14.31,14.31,0,1,1,28.62,0v.47A14.31,14.31,0,0,1,481.22,681.73Z"/><path class="cls-1" d="M481.14,775.62h0a14.23,14.23,0,0,1-14.23-14.23h0A14.51,14.51,0,0,1,481,746.76a14.72,14.72,0,0,1,14.76,14.77A14.51,14.51,0,0,1,481.14,775.62Z"/><path class="cls-1" d="M632.31,775.62h-.49a14.31,14.31,0,1,1,0-28.62h.49a14.31,14.31,0,1,1,0,28.62Zm-50.28,0h-.5a14.31,14.31,0,1,1,0-28.62h.5a14.31,14.31,0,1,1,0,28.62Zm-50.29,0h-.49a14.31,14.31,0,1,1,0-28.62h.49a14.31,14.31,0,1,1,0,28.62Z"/><path class="cls-1" d="M682.34,775.62h-.24a14.31,14.31,0,1,1,0-28.62h.24a14.31,14.31,0,1,1,0,28.62Z"/><path class="cls-1" d="M589.11,629.76a14.31,14.31,0,0,1-14.31-14.31v-.24a14.32,14.32,0,1,1,28.63,0v.24A14.32,14.32,0,0,1,589.11,629.76Z"/><path class="cls-1" d="M589.06,692.94h0a14.25,14.25,0,0,1-14.26-14.25h0a14.51,14.51,0,0,1,14.08-14.61,14.72,14.72,0,0,1,14.78,14.79A14.49,14.49,0,0,1,589.06,692.94Z"/><path class="cls-1" d="M777,692.94h-.47a14.31,14.31,0,1,1,0-28.62H777a14.31,14.31,0,1,1,0,28.62Z"/><path class="cls-1" d="M820.64,692.83h-.47a14.32,14.32,0,0,1,0-28.63h.47a14.32,14.32,0,0,1,0,28.63Z"/><path class="cls-1" d="M730.05,692.94h-.46a14.31,14.31,0,0,1,0-28.62h.46a14.31,14.31,0,1,1,0,28.62Z"/><path class="cls-1" d="M683.15,692.94h-.46a14.31,14.31,0,0,1,0-28.62h.46a14.31,14.31,0,1,1,0,28.62Z"/><path class="cls-1" d="M636.25,692.94h-.46a14.31,14.31,0,1,1,0-28.62h.46a14.31,14.31,0,1,1,0,28.62Z"/><path class="cls-1" d="M738.64,790.54a29.23,29.23,0,1,1,29.23-29.23A29.26,29.26,0,0,1,738.64,790.54Zm0-42.24a13,13,0,1,0,13,13A13,13,0,0,0,738.64,748.3Z"/><path class="cls-1" d="M878.65,707.86a29.23,29.23,0,1,1,29.23-29.23A29.27,29.27,0,0,1,878.65,707.86Zm0-42.24a13,13,0,1,0,13,13A13,13,0,0,0,878.65,665.62Z"/><path class="cls-1" d="M389.31,295.28A14.31,14.31,0,0,1,375,281v-.24a14.32,14.32,0,0,1,28.63,0V281A14.32,14.32,0,0,1,389.31,295.28Z"/><path class="cls-1" d="M389.31,251.15A14.32,14.32,0,0,1,375,236.83v-.43a14.32,14.32,0,1,1,28.63,0v.43A14.32,14.32,0,0,1,389.31,251.15Z"/><path class="cls-1" d="M389.55,206.81A14.72,14.72,0,0,1,374.76,192,14.51,14.51,0,0,1,389.37,178h0a14.26,14.26,0,0,1,14.26,14.26h0A14.51,14.51,0,0,1,389.55,206.81Z"/><path class="cls-1" d="M339.29,206.57h-.5a14.31,14.31,0,1,1,0-28.62h.5a14.31,14.31,0,1,1,0,28.62Zm-50.29,0h-.49a14.31,14.31,0,1,1,0-28.62H289a14.31,14.31,0,1,1,0,28.62Zm-50.28,0h-.5a14.31,14.31,0,0,1,0-28.62h.5a14.31,14.31,0,1,1,0,28.62Z"/><path class="cls-1" d="M276.65,342.66a14.31,14.31,0,0,1-14.31-14.32v-.24a14.31,14.31,0,0,1,28.62,0v.24A14.32,14.32,0,0,1,276.65,342.66Z"/><path class="cls-1" d="M276.88,299a14.72,14.72,0,0,1-14.78-14.78,14.51,14.51,0,0,1,14.6-14.08h0A14.25,14.25,0,0,1,291,284.43h0A14.49,14.49,0,0,1,276.88,299Z"/><path class="cls-1" d="M232.81,298.8h-.43a14.32,14.32,0,1,1,0-28.63h.43a14.32,14.32,0,1,1,0,28.63Zm-44,0h-.43a14.32,14.32,0,1,1,0-28.63h.43a14.32,14.32,0,1,1,0,28.63Zm-44,0h-.44a14.32,14.32,0,0,1,0-28.63h.44a14.32,14.32,0,0,1,0,28.63Zm-44,0h-.44a14.32,14.32,0,0,1,0-28.63h.44a14.32,14.32,0,0,1,0,28.63Z"/><path class="cls-1" d="M178.65,221.49a29.23,29.23,0,1,1,29.24-29.23A29.26,29.26,0,0,1,178.65,221.49Zm0-42.24a13,13,0,1,0,13,13A13,13,0,0,0,178.65,179.25Z"/><path class="cls-1" d="M42.13,313.72a29.24,29.24,0,1,1,29.24-29.24A29.27,29.27,0,0,1,42.13,313.72Zm0-42.25a13,13,0,1,0,13,13A13,13,0,0,0,42.13,271.47Z"/><rect class="cls-1" x="487.64" y="428.51" width="37.32" height="32.57"/><rect class="cls-1" x="487.64" y="470.44" width="37.32" height="32.57"/><rect class="cls-1" x="534.59" y="470.44" width="37.32" height="32.57"/><rect class="cls-1" x="441.14" y="428.51" width="37.32" height="32.57"/><rect class="cls-1" x="441.14" y="470.44" width="37.32" height="32.57"/><rect class="cls-1" x="394.73" y="428.51" width="37.32" height="32.57"/><rect class="cls-1" x="394.73" y="470.44" width="37.32" height="32.57"/><rect class="cls-1" x="350.07" y="470.44" width="37.32" height="32.57"/><rect class="cls-1" x="487.64" y="386.58" width="37.32" height="32.57"/></svg>