<svg width="24px" height="24px" viewBox="0 0 24 24" fill="none" xmlns="http://www.w3.org/2000/svg">
<path d="M19.6555 20.9178L20.1324 21.5083C19.7289 21.8247 19.2288 22 18.7025 22C18.5957 22 18.4898 21.9928 18.3853 21.9786L18.4902 21.231C18.56 21.2405 18.6309 21.2453 18.7025 21.2453C19.0539 21.2453 19.3863 21.1288 19.6555 20.9178ZM13.2919 17.3791C14.558 17.3791 15.5844 18.3904 15.5844 19.6379C15.5844 20.8855 14.558 21.8968 13.2919 21.8968C12.0257 21.8968 10.9994 20.8855 10.9994 19.6379C10.9994 18.3904 12.0257 17.3791 13.2919 17.3791ZM17.2016 20.0402C17.287 20.4518 17.545 20.8094 17.9082 21.0269L17.5103 21.6718C16.9661 21.3459 16.5795 20.81 16.4511 20.1914L17.2016 20.0402ZM10.3971 2C11.5991 2 12.6162 2.76528 13.0046 3.8221H15.9449C16.9621 3.8221 17.7942 4.64205 17.7942 5.6442V11.1105H15.9449V5.6442H14.0957V8.37736H6.69856V5.6442H4.84928V19.31H9.47247V21.1321H4.84928C3.83218 21.1321 3 20.3121 3 19.31V5.6442C3 4.64205 3.83218 3.8221 4.84928 3.8221H7.78963C8.17798 2.76528 9.19508 2 10.3971 2ZM20.8598 18.9546C20.9472 19.1889 20.9949 19.4369 21 19.6978C21.0004 20.0933 20.9155 20.4469 20.7476 20.769L20.0663 20.4242C20.1779 20.2101 20.2343 19.9751 20.2341 19.7056C20.2307 19.5359 20.199 19.3708 20.1409 19.215L20.8598 18.9546ZM17.5211 17.7935L17.9153 18.4406C17.5509 18.6561 17.291 19.0124 17.2033 19.4234L16.4537 19.2682C16.5855 18.6504 16.975 18.1165 17.5211 17.7935ZM18.7025 17.4717C19.3501 17.4717 19.9554 17.7376 20.3873 18.1961L19.8258 18.7095C19.5374 18.4033 19.1348 18.2264 18.7025 18.2264C18.639 18.227 18.5619 18.2314 18.4999 18.2394L18.3998 17.4912C18.4927 17.4791 18.6079 17.4725 18.7025 17.4717ZM18.5597 12.1887C19.8258 12.1887 20.8522 13.2 20.8522 14.4475C20.8522 15.695 19.8258 16.7063 18.5597 16.7063C17.2936 16.7063 16.2672 15.695 16.2672 14.4475C16.2672 13.2 17.2936 12.1887 18.5597 12.1887ZM13.2919 12.1887C14.558 12.1887 15.5844 13.2 15.5844 14.4475C15.5844 15.695 14.558 16.7063 13.2919 16.7063C12.0257 16.7063 10.9994 15.695 10.9994 14.4475C10.9994 13.2 12.0257 12.1887 13.2919 12.1887ZM10.3971 3.8221C9.88856 3.8221 9.47247 4.23208 9.47247 4.73315C9.47247 5.23423 9.88856 5.6442 10.3971 5.6442C10.9057 5.6442 11.3218 5.23423 11.3218 4.73315C11.3218 4.23208 10.9057 3.8221 10.3971 3.8221Z" fill="white"/>
</svg>
