<svg width="132" height="109" viewBox="0 0 132 109" fill="none" xmlns="http://www.w3.org/2000/svg"> <g filter="url(#filter0_d_1_31)"> <path d="M96 65.2444L74 52.5444C72.1 51.4444 69.6 52.0444 68.5 54.0444C68.1 54.6444 68 55.3444 68 56.0444V81.4444C68 82.8444 68.8 84.1444 70 84.9444L96 99.9444C97.2 100.644 98.8 100.644 100 99.9444L126 84.9444C127.2 84.2444 128 82.9444 128 81.4444V56.0444C128 53.8444 126.2 52.0444 124 52.0444C123.3 52.0444 122.6 52.2444 122 52.5444L100 65.2444C98.8 65.9444 97.3 65.9444 96 65.2444Z" fill="#DE156C"/> <path d="M98 68.7444V94.1444C98 96.3444 99.8 98.1444 102 98.1444C102.7 98.1444 103.4 97.9444 104 97.6444L126 84.9444C127.2 84.2444 128 82.9444 128 81.4444V56.0444C128 53.8444 126.2 52.0444 124 52.0444C123.3 52.0444 122.6 52.2444 122 52.5444L100 65.2444C98.8 65.9444 98 67.3444 98 68.7444Z" fill="url(#paint0_linear_1_31)"/> <path d="M90 0.544444L68 13.2444C66.8 13.9444 65.2 13.9444 64 13.2444L42 0.544444C40.1 -0.555556 37.6 0.0444446 36.5 2.04444C36.1 2.64444 36 3.34444 36 4.04444V29.4444C36 30.8444 36.8 32.1444 38 32.9444L64 47.9444C65.2 48.6444 66.8 48.6444 68 47.9444L94 32.9444C95.2 32.2444 96 30.9444 96 29.4444V4.04444C96 1.84444 94.2 0.0444445 92 0.0444445C91.3 0.0444445 90.6 0.244444 90 0.544444Z" fill="#47529D"/> <path d="M90 0.544441L68 13.2444C66.8 13.9444 66 15.2444 66 16.7444V42.1444C66 44.3444 67.8 46.1444 70 46.1444C70.7 46.1444 71.4 45.9444 72 45.6444L94 32.9444C95.2 32.2444 96 30.9444 96 29.4444V4.04444C96 1.84444 94.2 0.0444412 92 0.0444412C91.3 0.0444412 90.6 0.244441 90 0.544441Z" fill="url(#paint1_linear_1_31)"/> <path d="M32 65.2444L10 52.5444C8.1 51.4444 5.6 52.0444 4.5 54.0444C4.1 54.6444 4 55.3444 4 56.0444V81.4444C4 82.8444 4.8 84.1444 6 84.9444L32 99.9444C33.2 100.644 34.8 100.644 36 99.9444L62 84.9444C63.2 84.2444 64 82.9444 64 81.4444V56.0444C64 53.8444 62.2 52.0444 60 52.0444C59.3 52.0444 58.6 52.2444 58 52.5444L36 65.2444C34.8 65.9444 33.3 65.9444 32 65.2444Z" fill="#252960"/> <path d="M34 68.7444V94.1444C34 96.3444 35.8 98.1444 38 98.1444C38.7 98.1444 39.4 97.9444 40 97.6444L62 84.9444C63.2 84.2444 64 82.9444 64 81.4444V56.0444C64 53.8444 62.2 52.0444 60 52.0444C59.3 52.0444 58.6 52.2444 58 52.5444L36 65.2444C34.8 65.9444 34 67.3444 34 68.7444Z" fill="url(#paint2_linear_1_31)"/> </g> <defs> <filter id="filter0_d_1_31" x="0" y="0" width="132" height="108.469" filterUnits="userSpaceOnUse" color-interpolation-filters="sRGB"> <feFlood flood-opacity="0" result="BackgroundImageFix"/> <feColorMatrix in="SourceAlpha" type="matrix" values="0 0 0 0 0 0 0 0 0 0 0 0 0 0 0 0 0 0 127 0" result="hardAlpha"/> <feOffset dy="4"/> <feGaussianBlur stdDeviation="2"/> <feComposite in2="hardAlpha" operator="out"/> <feColorMatrix type="matrix" values="0 0 0 0 0 0 0 0 0 0 0 0 0 0 0 0 0 0 0.25 0"/> <feBlend mode="normal" in2="BackgroundImageFix" result="effect1_dropShadow_1_31"/> <feBlend mode="normal" in="SourceGraphic" in2="effect1_dropShadow_1_31" result="shape"/> </filter> <linearGradient id="paint0_linear_1_31" x1="113.04" y1="52.0218" x2="113.04" y2="98.1604" gradientUnits="userSpaceOnUse"> <stop stop-color="#FC72C7"/> <stop offset="1" stop-color="#DE156C"/> </linearGradient> <linearGradient id="paint1_linear_1_31" x1="81.0396" y1="0.0218024" x2="81.0396" y2="46.1604" gradientUnits="userSpaceOnUse"> <stop stop-color="#8896DB"/> <stop offset="1" stop-color="#47529D"/> </linearGradient> <linearGradient id="paint2_linear_1_31" x1="49.0396" y1="52.02" x2="49.0396" y2="98.1586" gradientUnits="userSpaceOnUse"> <stop stop-color="#757CBA"/> <stop offset="1" stop-color="#252960"/> </linearGradient> </defs> </svg>