<svg width="40" height="40" viewBox="0 0 40 40" fill="none" xmlns="http://www.w3.org/2000/svg">
<g clip-path="url(#clip0_23300_4289)">
<path d="M40 0H0V40H40V0Z" fill="#01A88D" fill-opacity="0.12"/>
<path fill-rule="evenodd" clip-rule="evenodd" d="M29.592 17.7397C29.376 15.9097 28.413 14.5837 26.974 14.1627C25.924 13.8557 24.821 14.1107 23.988 14.8087C23.55 13.8227 22.976 12.9707 22.276 12.2677C20.021 10.0057 16.934 9.39165 14.02 10.6257C11.534 11.6787 9.659 14.5857 9.659 17.3867C9.659 17.5517 9.664 17.7147 9.675 17.8757C8.317 18.3237 6 19.5907 6 23.0177C6 23.2007 6.008 23.3787 6.022 23.5497C6.231 26.2217 7.509 27.9817 9.53 28.3777L9.721 27.3957C7.605 26.9817 7.119 24.7597 7.018 23.4707C7.006 23.3247 7 23.1737 7 23.0177C7 20.0227 9.089 19.0427 10.333 18.7257C10.576 18.6637 10.737 18.4307 10.706 18.1817C10.676 17.9227 10.659 17.6567 10.659 17.3867C10.659 15.0027 12.307 12.4377 14.41 11.5467C18.048 10.0057 20.628 12.0317 21.567 12.9737C22.332 13.7417 22.93 14.7217 23.341 15.8877C23.403 16.0617 23.556 16.1887 23.738 16.2157C23.926 16.2387 24.104 16.1667 24.215 16.0187C24.814 15.2087 25.787 14.8567 26.694 15.1227C27.797 15.4457 28.519 16.5707 28.62 18.0817C28.582 18.3497 28.764 18.5997 29.03 18.6457C30.224 18.8507 33 19.6917 33 23.0587C33 27.0727 29.116 27.5477 28.992 27.5597H22.638V28.4607L29.032 28.4647C29.082 28.4597 34 28.0037 34 23.0587C34 19.2247 31.001 18.0707 29.592 17.7397ZM17.638 25.5597H18.638V21.5597H14.638V22.5597H16.931L10.284 29.2067L10.991 29.9137L17.638 23.2667V25.5597ZM25.638 21.2667L16.991 29.9137L16.284 29.2067L24.931 20.5597H20.638V19.5597H26.638V25.5597H25.638V21.2667Z" fill="#01A88D"/>
</g>
<rect x="0.5" y="0.5" width="39" height="39" stroke="#01A88D"/>
<defs>
<clipPath id="clip0_23300_4289">
<rect width="40" height="40" fill="white"/>
</clipPath>
</defs>
</svg>
