<svg
    xmlns="http://www.w3.org/2000/svg"
    fill="#ddd"
    viewBox="0 0 18 18"
  >
    <g id="Layer_2" data-name="Layer 2">
      <g id="Layer_1-2" data-name="Layer 1">
        <path d="M18,2.1A2.1,2.1,0,0,1,14,3c-.83.52-2.81,2.11-3.65,5.89l-.07.34c-.49,2.28-1.16,5.38-6.09,6.38a2.28,2.28,0,0,1,0,.26,2.1,2.1,0,0,1-4,.9,2.1,2.1,0,0,1,1.91-3A2.09,2.09,0,0,1,4,14.91C8.49,14,9.08,11.29,9.55,9.09l.07-.34c1-4.38,3.35-6,4.18-6.48a1,1,0,0,1,0-.17A2.11,2.11,0,0,1,18,2.1Z" />
      </g>
    </g>
</svg>