<svg
    xmlns="http://www.w3.org/2000/svg"
    viewBox="0 0 18 18"
    fill="#ddd"
  >
    <g clipPath="url(#clip0_23756_538)">
      <path d="M18.0003 2.10002C18.0022 2.51819 17.8799 2.92751 17.6488 3.27602C17.4177 3.62454 17.0883 3.89653 16.7023 4.05747C16.3164 4.21841 15.8913 4.26104 15.4811 4.17994C15.0709 4.09885 14.694 3.89768 14.3983 3.602C14.1026 3.30631 13.9014 2.92942 13.8203 2.51919C13.7392 2.10896 13.7819 1.68389 13.9428 1.29793C14.1037 0.911974 14.3757 0.582541 14.7242 0.351453C15.0728 0.120366 15.4821 -0.00195357 15.9003 2.35957e-05C16.4572 2.35957e-05 16.9913 0.221273 17.3852 0.615099C17.779 1.00893 18.0003 1.54307 18.0003 2.10002Z" />
      <path d="M4.21046 15.8901C4.21174 16.3679 4.05003 16.8318 3.75204 17.2053C3.45405 17.5788 3.0376 17.8396 2.57145 17.9444C2.10529 18.0493 1.61731 17.9921 1.18806 17.7822C0.758811 17.5724 0.413968 17.2224 0.210464 16.7901C0.0581668 16.469 -0.010171 16.1146 0.0118487 15.7599C0.0338685 15.4052 0.145526 15.062 0.336367 14.7622C0.527208 14.4625 0.790992 14.216 1.10302 14.046C1.41505 13.876 1.76512 13.7879 2.12046 13.7901C2.67568 13.7927 3.20726 14.0151 3.59893 14.4087C3.99059 14.8022 4.21047 15.3349 4.21046 15.8901Z" />
      <path
        d="M2.59082 14.11L15.3108 3.72998"
        stroke="#ddd"
        strokeWidth="0.35"
        strokeMiterlimit="10"
      />
      <path
        d="M3.83008 15.32L14.2201 2.75"
        stroke="#ddd"
        strokeWidth="0.35"
        strokeMiterlimit="10"
      />
      <path
        d="M3.4209 14.9602L14.9709 2.7002"
        stroke="#ddd"
        strokeWidth="0.35"
        strokeMiterlimit="10"
      />
    </g>
    <defs>
      <clipPath id="clip0_23756_538">
        <rect width="18" height="18" fill="#ddd" />
      </clipPath>
    </defs>
</svg>