<svg width="40" height="40" viewBox="0 0 40 40" fill="none" xmlns="http://www.w3.org/2000/svg">
<g clip-path="url(#clip0_23296_3588)">
<path d="M40 0H0V40H40V0Z" fill="#C925D1" fill-opacity="0.12"/>
<path fill-rule="evenodd" clip-rule="evenodd" d="M18.082 22.9966L21.032 16.4056L21.944 16.8136L18.994 23.4046L18.082 22.9966ZM23.213 20.9886L24.983 19.6966L23.424 18.1146L24.137 17.4126L26.103 19.4076C26.204 19.5106 26.256 19.6536 26.244 19.7986C26.232 19.9436 26.158 20.0766 26.041 20.1626L23.803 21.7956L23.213 20.9886ZM17.813 18.1576L16.018 19.4686L17.582 21.0506L16.871 21.7536L14.898 19.7586C14.796 19.6556 14.744 19.5126 14.756 19.3676C14.768 19.2226 14.842 19.0896 14.959 19.0036L17.224 17.3506L17.813 18.1576ZM18.035 6.86057L8 12.7936V23.8636H7V12.5086C7 12.3316 7.094 12.1676 7.245 12.0786L17.525 5.99957L18.035 6.86057ZM34 14.8636V27.3836C34 27.5616 33.904 27.7276 33.749 27.8166L23.478 33.7306L22.979 32.8646L33 27.0946V14.8636H34ZM28 24.2776L20.46 28.5656L13 24.1936V15.5316L20.455 11.2446L28 15.6186V24.2776ZM29 24.5686V15.3306C29 15.1526 28.905 14.9876 28.751 14.8976L20.707 10.2346C20.553 10.1456 20.363 10.1446 20.207 10.2336L12.251 14.8086C12.096 14.8986 12 15.0636 12 15.2426V24.4796C12 24.6576 12.094 24.8216 12.247 24.9116L20.203 29.5736C20.281 29.6196 20.368 29.6426 20.456 29.6426C20.541 29.6426 20.627 29.6206 20.703 29.5776L28.747 25.0026C28.903 24.9136 29 24.7476 29 24.5686Z" fill="#C925D1"/>
</g>
<rect x="0.5" y="0.5" width="39" height="39" stroke="#C925D1"/>
<defs>
<clipPath id="clip0_23296_3588">
<rect width="40" height="40" fill="white"/>
</clipPath>
</defs>
</svg>
