<svg xmlns="http://www.w3.org/2000/svg" width="18" height="18" viewBox="0 0 18 18"><defs><linearGradient id="bf5fc184-d6f4-42f0-ac55-f069b76e3064" x1="9.004" x2="9.004" y2="13.433" gradientUnits="userSpaceOnUse"><stop offset="0" stop-color="#a67af4" /><stop offset="0.999" stop-color="#773adc" /></linearGradient></defs><g id="f0be493b-fc10-49e5-8c1a-711b8b850a0b"><g><path d="M17.547,15.2c-.161.7-1.035,1.391-2.617,1.928a21.589,21.589,0,0,1-12.121.017C1.352,16.627.566,15.971.443,15.3c-.021-.118,0-1.966,0-1.966l17.131-.159S17.566,15.11,17.547,15.2Z" fill="#5ea0ef" /><ellipse cx="9.001" cy="13.295" rx="8.573" ry="2.964" transform="translate(-0.133 0.091) rotate(-0.575)" fill="#50e6ff" /></g><path d="M13.364,12.978a.482.482,0,0,1-.5.455H5.146a.482.482,0,0,1-.5-.455V.456A.48.48,0,0,1,5.146,0h7.715a.481.481,0,0,1,.5.455Z" fill="url(#bf5fc184-d6f4-42f0-ac55-f069b76e3064)" /><path d="M11.212,6.791H6.872a1,1,0,0,1-.947-1.044h0A1,1,0,0,1,6.872,4.7h4.34a1,1,0,0,1,.948,1.045A1,1,0,0,1,11.212,6.791ZM12.16,2.64A1,1,0,0,0,11.212,1.6H6.872A1,1,0,0,0,5.925,2.64h0a1,1,0,0,0,.947,1.045h4.34A1,1,0,0,0,12.16,2.64Z" fill="#552f99" /><path d="M10.94,1.939a.7.7,0,1,1-.7.7A.7.7,0,0,1,10.94,1.939Zm-.7,3.8a.7.7,0,1,0,.7-.7A.7.7,0,0,0,10.239,5.743Z" fill="#50e6ff" /></g></svg>