<svg width="591" height="208" viewBox="0 0 591 208" fill="none" xmlns="http://www.w3.org/2000/svg">
<path d="M124.7 72.9H154.8V39.6C154.8 30.3 150.4 25.6 141.4 25.6H138C129.1 25.6 124.6 30.3 124.6 39.6L124.7 72.9ZM124.7 94.2L124.8 130.8C124.8 140.1 129.3 144.7 138.2 144.7H142.1C151 144.7 155.5 140.1 155.5 130.8V112.8H176V129.9C176 153.4 164.6 165.4 142 165.4H137.5C114.9 165.4 103.5 153.5 103.5 132.7V43.2C103.5 16.9 114.9 5 137.5 5H142C164.6 5 176 16.9 176 40.4L175.9 94.1L124.7 94.2Z" fill="white"/>
<path d="M210.899 136.302C216.699 141.502 223.399 144.402 230.399 144.402C238.199 144.402 242.699 140.602 242.699 131.602V38.6016C242.699 29.6016 238.199 25.8016 230.399 25.8016C223.399 25.8016 216.699 28.7016 210.899 33.9016V136.302ZM189.699 6.80156H210.899V17.0016C215.899 11.5016 224.499 5.10156 236.799 5.10156C254.899 5.10156 263.799 17.6016 263.799 36.2016V134.402C263.799 153.002 254.899 165.502 236.799 165.502C224.499 165.502 215.899 159.402 210.899 154.202V204.802H189.699V6.80156Z" fill="white"/>
<path d="M327.3 137.202V85.5016L308.1 93.1016C300.3 96.3016 297.8 100.402 297.8 109.402V133.202C297.8 140.802 301.4 144.502 308.1 144.502C314.5 144.502 320.4 142.202 327.3 137.202ZM276.6 109.002C276.6 89.5016 282.7 81.7016 298.9 75.9016L327.3 65.7016V39.6016C327.3 30.3016 322.8 25.4016 313.9 25.4016H310.5C301.6 25.4016 297.1 30.3016 297.1 39.6016V61.8016H276.5V40.5016C276.5 17.0016 287.9 5.10156 310.5 5.10156H314.5C337.1 5.10156 348.5 17.0016 348.5 40.5016V163.702H327.3V153.802C321.5 159.602 313.6 165.402 301.4 165.402C284.4 165.402 276.6 155.202 276.6 137.802V109.002Z" fill="white"/>
<path d="M434.099 163.7H412.899V37.3C412.899 29.5 409.299 26 402.899 26C397.099 26 390.899 28.3 383.399 33.8V163.7H362.199V6.8H383.399V17C389.599 10.9 397.599 5 409.299 5C420.199 5 427.399 9.7 431.299 17.8C438.899 11.1 447.799 5 459.999 5C476.399 5 484.799 15.5 484.799 32.6V163.6H463.599V37.3C463.599 29.5 459.999 26 453.599 26C447.799 26 441.599 28.3 434.099 33.8V163.7Z" fill="white"/>
<path d="M22 75.1992V96.3992L76.4 149.699V120.199L40.8 85.4992L76.4 50.0992V21.1992L22 75.1992Z" fill="#00ABCD"/>
<path d="M511.699 50.0992L547.299 85.4992L511.699 120.299V149.699L566.099 96.3992V75.1992L511.699 21.1992V50.0992Z" fill="#00ABCD"/>
</svg>
