<svg width="40" height="40" viewBox="0 0 40 40" fill="none" xmlns="http://www.w3.org/2000/svg">
<g clip-path="url(#clip0_23298_4080)">
<path d="M40 0H0V40H40V0Z" fill="#E7157B" fill-opacity="0.12"/>
<path fill-rule="evenodd" clip-rule="evenodd" d="M33 9H31.5C30.175 9 30.016 10.352 30 10.53V16H29V11H27V18H29.5C29.763 18 29.98 18.203 29.999 18.464C30.012 18.62 30.162 20 31.5 20H33V9ZM7 16H15V13H7V16ZM34 8.5V20.5C34 20.776 33.776 21 33.5 21H31.5C29.961 21 29.289 19.868 29.076 19H26.5H25V18H26V11H17.5C16.673 11 16 11.673 16 12.5V13V16V16.5C16 17.327 16.673 18 17.5 18H19V19H17.5C16.292 19 15.283 18.14 15.051 17H7V19H6V16.5V12.5V10H7V12H15.051C15.283 10.86 16.292 10 17.5 10H26.5H27H29.076C29.289 9.132 29.961 8 31.5 8H33.5C33.776 8 34 8.224 34 8.5ZM29.5 26H33V27H29.839L27.964 31.686C27.889 31.876 27.704 32 27.5 32H27.489C27.281 31.996 27.098 31.863 27.028 31.667L21.514 16.041L16.975 29.658C16.909 29.855 16.729 29.991 16.521 30C16.318 30.012 16.121 29.887 16.04 29.697L13.507 23.786L11.467 28.692C11.389 28.878 11.207 29 11.005 29H7V28H10.671L13.038 22.308C13.115 22.123 13.296 22.001 13.497 22H13.5C13.7 22 13.881 22.119 13.96 22.303L16.441 28.094L21.025 14.342C21.093 14.139 21.282 14.002 21.496 14C21.718 13.984 21.901 14.133 21.972 14.333L27.529 30.081L29.036 26.314C29.111 26.125 29.296 26 29.5 26Z" fill="#E7157B"/>
</g>
<rect x="0.5" y="0.5" width="39" height="39" stroke="#E7157B"/>
<defs>
<clipPath id="clip0_23298_4080">
<rect width="40" height="40" fill="white"/>
</clipPath>
</defs>
</svg>
