<svg width="40" height="40" viewBox="0 0 40 40" fill="none" xmlns="http://www.w3.org/2000/svg">
<g clip-path="url(#clip0_23311_9737)">
<path d="M40 0H0V40H40V0Z" fill="#7AA116" fill-opacity="0.12"/>
<path fill-rule="evenodd" clip-rule="evenodd" d="M34 20C34 27.72 27.655 34 19.857 34C13.876 34 8.521 30.25 6.529 24.668L7.471 24.332C9.32 29.517 14.298 33 19.857 33C27.104 33 33 27.168 33 20C33 12.832 27.104 7 19.857 7C14.733 7 10.045 9.977 7.914 14.585L7.006 14.165C9.301 9.205 14.345 6 19.857 6C27.655 6 34 12.28 34 20ZM6 22H9V21H6V22ZM6 20H9V19H6V20ZM7 18H9V17H7V18ZM27.5 26C26.673 26 26 25.327 26 24.5C26 23.673 26.673 23 27.5 23C28.327 23 29 23.673 29 24.5C29 25.327 28.327 26 27.5 26ZM19.5 26C18.673 26 18 25.327 18 24.5C18 23.673 18.673 23 19.5 23C20.327 23 21 23.673 21 24.5C21 25.327 20.327 26 19.5 26ZM14.5 23C15.327 23 16 23.673 16 24.5C16 25.327 15.327 26 14.5 26C13.673 26 13 25.327 13 24.5C13 23.673 13.673 23 14.5 23ZM24.5 15H10.5C10.224 15 10 15.224 10 15.5V23.5C10 23.776 10.224 24 10.5 24H12.051C12.018 24.162 12 24.329 12 24.5C12 25.878 13.121 27 14.5 27C15.879 27 17 25.878 17 24.5C17 23.122 15.879 22 14.5 22C13.687 22 12.97 22.396 12.513 23H11V16H24V23H21.487C21.03 22.396 20.313 22 19.5 22C18.121 22 17 23.122 17 24.5C17 25.878 18.121 27 19.5 27C20.879 27 22 25.878 22 24.5C22 24.329 21.982 24.162 21.949 24H24.5C24.776 24 25 23.776 25 23.5V19H27.833C29.109 19 30 19.908 30 21.208V23H29.487C29.03 22.396 28.313 22 27.5 22C26.121 22 25 23.122 25 24.5C25 25.878 26.121 27 27.5 27C28.879 27 30 25.878 30 24.5C30 24.329 29.982 24.162 29.949 24H30.5C30.776 24 31 23.776 31 23.5V21.208C31 19.35 29.668 18 27.833 18H25V15.5C25 15.224 24.776 15 24.5 15Z" fill="#7AA116"/>
</g>
<rect x="0.5" y="0.5" width="39" height="39" stroke="#7AA116"/>
<defs>
<clipPath id="clip0_23311_9737">
<rect width="40" height="40" fill="white"/>
</clipPath>
</defs>
</svg>
