<svg width="40" height="40" viewBox="0 0 40 40" fill="none" xmlns="http://www.w3.org/2000/svg">
<g clip-path="url(#clip0_23296_3827)">
<path d="M40 0H0V40H40V0Z" fill="#01A88D" fill-opacity="0.12"/>
<path fill-rule="evenodd" clip-rule="evenodd" d="M27.8151 11.274L26.8435 11.037L27.4079 8.726L28.3785 8.963L27.8151 11.274ZM30.2267 13.007L31.8708 11.007L32.6443 11.642L31.0012 13.642L30.2267 13.007ZM22.6418 11.79L21.6621 9.623L22.5747 9.211L23.5544 11.378L22.6418 11.79ZM26.013 21.5C26.013 21.776 25.7898 22 25.5126 22C25.2365 22 25.0123 21.776 25.0123 21.5C25.0123 21.224 25.2365 21 25.5126 21C25.7898 21 26.013 21.224 26.013 21.5ZM25.0123 20H26.013V16H25.0123V20ZM32.7253 26.794C32.4952 27.024 32.1459 27.172 31.9358 26.962L29.2731 24.238C29.6163 23.986 29.9325 23.702 30.2187 23.389L32.8974 25.994C32.9795 26.076 33.0115 26.179 32.9955 26.307C32.9735 26.467 32.8754 26.645 32.7253 26.794ZM19.928 19.005C19.928 15.972 22.3976 13.505 25.4316 13.505C28.4656 13.505 30.9352 15.972 30.9352 19.005C30.9352 22.038 28.4656 24.505 25.4316 24.505C22.3976 24.505 19.928 22.038 19.928 19.005ZM17.5075 27C16.6799 27 16.0065 26.327 16.0065 25.5C16.0065 24.673 16.6799 24 17.5075 24C18.335 24 19.0084 24.673 19.0084 25.5C19.0084 26.327 18.335 27 17.5075 27ZM10.0356 29.54L12.7694 23.686L15.1009 24.856C15.0449 25.063 15.0058 25.276 15.0058 25.5C15.0058 25.843 15.0769 26.17 15.202 26.467L10.4349 29.932C10.3158 29.787 10.1837 29.656 10.0356 29.54ZM8.50162 33C7.67408 33 7.00065 32.327 7.00065 31.5C7.00065 30.673 7.67408 30 8.50162 30C9.32916 30 10.0026 30.673 10.0026 31.5C10.0026 32.327 9.32916 33 8.50162 33ZM10.7601 21.558C10.9112 21.235 11.0032 20.879 11.0032 20.5C11.0032 19.945 10.8161 19.437 10.5079 19.021L12.195 17.451L13.5489 19.651L12.2981 22.33L10.7601 21.558ZM8.50162 22C7.67408 22 7.00065 21.327 7.00065 20.5C7.00065 19.673 7.67408 19 8.50162 19C9.32916 19 10.0026 19.673 10.0026 20.5C10.0026 21.327 9.32916 22 8.50162 22ZM9.30814 10.855C9.79846 10.687 10.2207 10.376 10.5209 9.964L14.1633 11.651C14.0672 11.917 14.0052 12.201 14.0052 12.5C14.0052 13.045 14.1853 13.545 14.4825 13.957L12.4072 15.887L9.30814 10.855ZM7.00065 8.5C7.00065 7.673 7.67408 7 8.50162 7C9.32916 7 10.0026 7.673 10.0026 8.5C10.0026 9.327 9.32916 10 8.50162 10C7.67408 10 7.00065 9.327 7.00065 8.5ZM16.5068 11C17.3343 11 18.0078 11.673 18.0078 12.5C18.0078 13.327 17.3343 14 16.5068 14C15.6793 14 15.0058 13.327 15.0058 12.5C15.0058 11.673 15.6793 11 16.5068 11ZM15.223 14.634C15.3961 14.738 15.5812 14.819 15.7783 14.879L14.0562 18.566L12.9425 16.756L15.223 14.634ZM15.5502 23.962L13.1937 22.779L14.1773 20.671L15.9535 23.556C15.8044 23.676 15.6683 23.812 15.5502 23.962ZM20.6245 14.641C19.5748 15.796 18.9274 17.325 18.9274 19.005C18.9274 20.44 19.4017 21.763 20.1922 22.84L19.1295 23.612C18.6922 23.236 18.1289 23 17.5075 23C17.2783 23 17.0592 23.041 16.848 23.1L14.6846 19.586L16.841 14.966C17.6255 14.86 18.29 14.394 18.6682 13.735L20.6245 14.641ZM33.5999 25.282L30.8441 22.602C31.5325 21.571 31.9358 20.335 31.9358 19.005C31.9358 15.421 29.0179 12.505 25.4316 12.505C23.9146 12.505 22.5207 13.031 21.413 13.904L18.9804 12.778C18.9914 12.686 19.0084 12.595 19.0084 12.5C19.0084 11.122 17.8867 10 16.5068 10C15.7893 10 15.1469 10.308 14.6896 10.793L10.9372 9.055C10.9772 8.876 11.0032 8.691 11.0032 8.5C11.0032 7.122 9.88152 6 8.50162 6C7.12173 6 6 7.122 6 8.5C6 9.776 6.96563 10.82 8.20343 10.97L11.6597 16.583L9.75844 18.351C9.3882 18.133 8.96192 18 8.50162 18C7.12173 18 6 19.122 6 20.5C6 21.878 7.12173 23 8.50162 23C9.13403 23 9.7054 22.757 10.1467 22.369L11.8748 23.237L9.14104 29.093C8.9359 29.038 8.72377 29 8.50162 29C7.12173 29 6 30.122 6 31.5C6 32.878 7.12173 34 8.50162 34C9.88152 34 11.0032 32.878 11.0032 31.5C11.0032 31.266 10.9602 31.044 10.9002 30.829L15.7683 27.291C16.2196 27.728 16.831 28 17.5075 28C18.8874 28 20.0091 26.878 20.0091 25.5C20.0091 25.105 19.909 24.735 19.7439 24.402L20.8406 23.605C22.0184 24.778 23.6414 25.505 25.4316 25.505C26.5023 25.505 27.5119 25.24 28.4035 24.78L31.2243 27.665C31.4885 27.929 31.8287 28.059 32.183 28.059C32.6122 28.059 33.0625 27.87 33.4328 27.501C33.739 27.195 33.9361 26.818 33.9861 26.439C34.0462 26.001 33.9101 25.591 33.5999 25.282Z" fill="#01A88D"/>
</g>
<rect x="0.5" y="0.5" width="39" height="39" stroke="#01A88D"/>
<defs>
<clipPath id="clip0_23296_3827">
<rect width="40" height="40" fill="white"/>
</clipPath>
</defs>
</svg>
