<svg width="811" height="362" viewBox="0 0 811 362" fill="none" xmlns="http://www.w3.org/2000/svg">
<path d="M205.665 181.06L583.219 181.06" stroke="#326CE5" stroke-width="11.499" stroke-dasharray="7.67 7.67"/>
<path d="M566.854 162.066L604.5 180.419L566.854 199.715L579.385 180.725L566.854 162.066Z" fill="#CCCCCC"/>
<rect x="81.25" y="119.102" width="124.241" height="124.241" rx="62.1205" fill="#326CE5"/>
<path fill-rule="evenodd" clip-rule="evenodd" d="M140.273 181.234C148.572 181.234 155.3 174.507 155.3 166.208C155.3 157.909 148.572 151.182 140.273 151.182C131.974 151.182 125.247 157.909 125.247 166.208C125.247 174.507 131.974 181.234 140.273 181.234ZM129.381 182.025C129.684 181.981 129.989 182.06 130.248 182.223C132.954 183.928 136.425 184.953 140.211 184.953C144.019 184.953 147.509 183.916 150.222 182.193C150.474 182.033 150.773 181.953 151.07 181.991C158.333 182.924 163.946 189.13 163.946 196.647V202.467C163.946 207.435 159.919 211.462 154.951 211.462H125.75C120.783 211.462 116.756 207.435 116.756 202.467V196.647C116.756 189.216 122.24 183.067 129.381 182.025Z" fill="white"/>
<path fill-rule="evenodd" clip-rule="evenodd" d="M164.363 210.337C165.671 208.673 166.452 206.575 166.452 204.294V195.986C166.452 189.731 162.879 184.311 157.664 181.654C164.91 182.85 170.405 188.721 170.333 195.649V202.197C170.333 205.889 167.869 209.038 164.363 210.337ZM157.828 166.208C157.828 170.023 156.674 173.569 154.696 176.516C159.85 174.788 163.564 169.92 163.564 164.185C163.564 157.004 157.742 151.182 150.562 151.182C150.423 151.182 150.284 151.185 150.146 151.189C154.8 154.553 157.828 160.027 157.828 166.208Z" fill="white"/>
<path d="M605.509 118.161H729.75V195.341C729.75 217.526 729.75 228.618 722.858 235.51C715.966 242.402 704.874 242.402 682.689 242.402H652.57C630.385 242.402 619.293 242.402 612.401 235.51C605.509 228.618 605.509 217.526 605.509 195.341V118.161Z" fill="#326CE5"/>
<path fill-rule="evenodd" clip-rule="evenodd" d="M647.454 146.115C644.015 146.115 641.228 148.903 641.228 152.342V208.277C641.228 211.716 644.015 214.504 647.454 214.504H687.151C690.59 214.504 693.378 211.716 693.378 208.277V152.342C693.378 148.903 690.59 146.115 687.151 146.115H647.454ZM658.311 154.188C658.311 153.161 659.144 152.327 660.172 152.327H673.417C674.444 152.327 675.278 153.161 675.278 154.188C675.278 155.216 674.444 156.049 673.417 156.049H660.172C659.144 156.049 658.311 155.216 658.311 154.188ZM667.183 186.79C673.055 186.79 677.814 182.03 677.814 176.159C677.814 170.288 673.055 165.528 667.183 165.528C661.312 165.528 656.552 170.288 656.552 176.159C656.552 182.03 661.312 186.79 667.183 186.79ZM659.476 187.349C659.69 187.318 659.906 187.374 660.089 187.489C662.003 188.695 664.459 189.42 667.137 189.42C669.831 189.42 672.3 188.687 674.219 187.468C674.398 187.354 674.609 187.298 674.819 187.325C679.958 187.985 683.929 192.375 683.929 197.694V201.812C683.929 205.326 681.08 208.175 677.565 208.175H656.907C653.392 208.175 650.543 205.326 650.543 201.812V197.694C650.543 192.437 654.423 188.086 659.476 187.349Z" fill="white"/>
<rect x="341.497" y="145.456" width="75.2975" height="75.2975" rx="11.7652" fill="#326CE5"/>
<path d="M365.681 178.974H369.863V181.763H365.681V185.946H362.892V181.763H358.71V178.974H362.892V174.792H365.681V178.974Z" fill="white"/>
<path fill-rule="evenodd" clip-rule="evenodd" d="M381.363 183.052C386.393 183.052 390.47 178.975 390.47 173.945C390.47 168.916 386.393 164.838 381.363 164.838C376.334 164.838 372.256 168.916 372.256 173.945C372.256 178.975 376.334 183.052 381.363 183.052ZM374.762 183.532C374.945 183.505 375.13 183.553 375.287 183.651C376.927 184.685 379.031 185.306 381.325 185.306C383.633 185.306 385.748 184.678 387.392 183.633C387.546 183.536 387.726 183.488 387.907 183.511C392.308 184.076 395.71 187.837 395.71 192.393V195.921C395.71 198.931 393.269 201.372 390.259 201.372H372.561C369.551 201.372 367.11 198.931 367.11 195.921V192.393C367.11 187.89 370.434 184.163 374.762 183.532Z" fill="white"/>
<path fill-rule="evenodd" clip-rule="evenodd" d="M395.964 200.69C396.756 199.682 397.229 198.41 397.229 197.028V191.992C397.229 188.202 395.064 184.917 391.903 183.307C396.295 184.032 399.625 187.589 399.582 191.788V195.757C399.582 197.994 398.088 199.903 395.964 200.69ZM392.003 173.945C392.003 176.257 391.303 178.406 390.105 180.192C393.228 179.145 395.479 176.195 395.479 172.719C395.479 168.367 391.951 164.839 387.599 164.839C387.514 164.839 387.431 164.84 387.347 164.843C390.167 166.882 392.003 170.199 392.003 173.945Z" fill="white"/>
</svg>
