<svg width="811" height="362" viewBox="0 0 811 362" fill="none" xmlns="http://www.w3.org/2000/svg">
<path d="M639.504 180.07L242.326 180.07" stroke="#326CE5" stroke-width="12.0967" stroke-dasharray="8.06 8.06"/>
<path d="M254.097 159.595L214.494 178.902L254.097 199.201L240.914 179.224L254.097 159.595Z" fill="#CCCCCC"/>
<mask id="path-3-outside-1_27332_21784" maskUnits="userSpaceOnUse" x="218.582" y="129.765" width="94" height="28" fill="black">
<rect fill="white" x="218.582" y="129.765" width="94" height="28"/>
<path d="M231.832 143.394C233.454 144.346 234.329 145.917 234.329 147.745C234.329 151.065 231.883 153.125 227.867 153.125C223.877 153.125 221.406 151.065 221.406 147.745C221.406 145.917 222.307 144.346 223.903 143.394C222.744 142.596 222.024 141.334 222.024 139.661C222.024 136.186 224.727 134.409 227.867 134.409C231.034 134.409 233.737 136.186 233.737 139.661C233.737 141.334 232.99 142.596 231.832 143.394ZM227.867 137.73C226.529 137.73 225.551 138.528 225.551 139.867C225.551 141.154 226.529 141.978 227.867 141.978C229.206 141.978 230.184 141.154 230.184 139.867C230.184 138.528 229.206 137.73 227.867 137.73ZM227.867 149.778C229.567 149.778 230.802 148.903 230.802 147.307C230.802 145.711 229.567 144.81 227.867 144.81C226.168 144.81 224.933 145.711 224.933 147.307C224.933 148.903 226.168 149.778 227.867 149.778ZM243.323 153.125C238.715 153.125 236.115 149.315 236.115 143.754C236.115 138.194 238.715 134.409 243.323 134.409C247.905 134.409 250.531 138.194 250.531 143.754C250.531 149.315 247.905 153.125 243.323 153.125ZM243.323 149.675C245.717 149.675 246.978 147.564 246.978 143.754C246.978 139.944 245.717 137.859 243.323 137.859C240.903 137.859 239.642 139.944 239.642 143.754C239.642 147.564 240.903 149.675 243.323 149.675ZM253.411 155.339H252.794C252.485 155.339 252.33 155.159 252.459 154.85L262.422 132.479C262.525 132.247 262.653 132.17 262.885 132.17H263.503C263.812 132.17 263.966 132.35 263.838 132.659L253.875 155.03C253.772 155.262 253.643 155.339 253.411 155.339ZM276.824 134.744C277.235 134.744 277.441 134.976 277.441 135.362V137.55C277.441 137.936 277.235 138.142 276.824 138.142H273.091V152.172C273.091 152.559 272.885 152.765 272.499 152.765H270.182C269.77 152.765 269.564 152.559 269.564 152.172V138.142H265.831C265.445 138.142 265.213 137.936 265.213 137.55V135.362C265.213 134.976 265.445 134.744 265.831 134.744H273.091H276.824ZM286.966 153.125C281.508 153.125 277.569 149.032 277.569 143.754C277.569 138.503 281.508 134.409 286.966 134.409C290.982 134.409 294.431 136.881 295.538 140.511C295.641 140.922 295.409 141.18 294.998 141.18H292.5C292.166 141.18 291.96 141.025 291.805 140.717C291.007 138.966 289.128 137.859 286.966 137.859C283.439 137.859 281.122 140.305 281.122 143.754C281.122 147.23 283.439 149.675 286.966 149.675C289.128 149.675 291.007 148.568 291.805 146.818C291.96 146.509 292.166 146.329 292.5 146.329H294.998C295.409 146.329 295.641 146.586 295.538 146.972C294.457 150.602 291.007 153.125 286.966 153.125ZM304.496 134.744C307.894 134.744 310.571 137.421 310.571 140.742C310.571 144.037 307.894 146.715 304.496 146.715H301.304V152.172C301.304 152.559 301.098 152.765 300.686 152.765H298.369C297.983 152.765 297.777 152.559 297.777 152.172V135.362C297.777 134.976 297.983 134.744 298.369 134.744H301.304H304.496ZM304.496 143.394C305.937 143.394 307.044 142.235 307.044 140.742C307.044 139.249 305.937 138.065 304.496 138.065H301.304V143.394H304.496Z"/>
</mask>
<path d="M231.832 143.394C233.454 144.346 234.329 145.917 234.329 147.745C234.329 151.065 231.883 153.125 227.867 153.125C223.877 153.125 221.406 151.065 221.406 147.745C221.406 145.917 222.307 144.346 223.903 143.394C222.744 142.596 222.024 141.334 222.024 139.661C222.024 136.186 224.727 134.409 227.867 134.409C231.034 134.409 233.737 136.186 233.737 139.661C233.737 141.334 232.99 142.596 231.832 143.394ZM227.867 137.73C226.529 137.73 225.551 138.528 225.551 139.867C225.551 141.154 226.529 141.978 227.867 141.978C229.206 141.978 230.184 141.154 230.184 139.867C230.184 138.528 229.206 137.73 227.867 137.73ZM227.867 149.778C229.567 149.778 230.802 148.903 230.802 147.307C230.802 145.711 229.567 144.81 227.867 144.81C226.168 144.81 224.933 145.711 224.933 147.307C224.933 148.903 226.168 149.778 227.867 149.778ZM243.323 153.125C238.715 153.125 236.115 149.315 236.115 143.754C236.115 138.194 238.715 134.409 243.323 134.409C247.905 134.409 250.531 138.194 250.531 143.754C250.531 149.315 247.905 153.125 243.323 153.125ZM243.323 149.675C245.717 149.675 246.978 147.564 246.978 143.754C246.978 139.944 245.717 137.859 243.323 137.859C240.903 137.859 239.642 139.944 239.642 143.754C239.642 147.564 240.903 149.675 243.323 149.675ZM253.411 155.339H252.794C252.485 155.339 252.33 155.159 252.459 154.85L262.422 132.479C262.525 132.247 262.653 132.17 262.885 132.17H263.503C263.812 132.17 263.966 132.35 263.838 132.659L253.875 155.03C253.772 155.262 253.643 155.339 253.411 155.339ZM276.824 134.744C277.235 134.744 277.441 134.976 277.441 135.362V137.55C277.441 137.936 277.235 138.142 276.824 138.142H273.091V152.172C273.091 152.559 272.885 152.765 272.499 152.765H270.182C269.77 152.765 269.564 152.559 269.564 152.172V138.142H265.831C265.445 138.142 265.213 137.936 265.213 137.55V135.362C265.213 134.976 265.445 134.744 265.831 134.744H273.091H276.824ZM286.966 153.125C281.508 153.125 277.569 149.032 277.569 143.754C277.569 138.503 281.508 134.409 286.966 134.409C290.982 134.409 294.431 136.881 295.538 140.511C295.641 140.922 295.409 141.18 294.998 141.18H292.5C292.166 141.18 291.96 141.025 291.805 140.717C291.007 138.966 289.128 137.859 286.966 137.859C283.439 137.859 281.122 140.305 281.122 143.754C281.122 147.23 283.439 149.675 286.966 149.675C289.128 149.675 291.007 148.568 291.805 146.818C291.96 146.509 292.166 146.329 292.5 146.329H294.998C295.409 146.329 295.641 146.586 295.538 146.972C294.457 150.602 291.007 153.125 286.966 153.125ZM304.496 134.744C307.894 134.744 310.571 137.421 310.571 140.742C310.571 144.037 307.894 146.715 304.496 146.715H301.304V152.172C301.304 152.559 301.098 152.765 300.686 152.765H298.369C297.983 152.765 297.777 152.559 297.777 152.172V135.362C297.777 134.976 297.983 134.744 298.369 134.744H301.304H304.496ZM304.496 143.394C305.937 143.394 307.044 142.235 307.044 140.742C307.044 139.249 305.937 138.065 304.496 138.065H301.304V143.394H304.496Z" fill="#000D12"/>
<path d="M231.832 143.394L230.697 141.747L228.111 143.528L230.819 145.118L231.832 143.394ZM223.903 143.394L224.928 145.111L227.604 143.515L225.038 141.747L223.903 143.394ZM230.819 145.118C231.824 145.708 232.329 146.619 232.329 147.745H236.329C236.329 145.214 235.084 142.984 232.845 141.669L230.819 145.118ZM232.329 147.745C232.329 148.875 231.934 149.634 231.322 150.145C230.667 150.692 229.554 151.125 227.867 151.125V155.125C230.197 155.125 232.314 154.528 233.886 153.215C235.501 151.866 236.329 149.935 236.329 147.745H232.329ZM227.867 151.125C226.196 151.125 225.081 150.693 224.42 150.143C223.802 149.629 223.406 148.869 223.406 147.745H219.406C219.406 149.941 220.245 151.872 221.86 153.217C223.433 154.527 225.548 155.125 227.867 155.125V151.125ZM223.406 147.745C223.406 146.635 223.924 145.71 224.928 145.111L222.878 141.676C220.689 142.983 219.406 145.198 219.406 147.745H223.406ZM225.038 141.747C224.43 141.328 224.024 140.688 224.024 139.661H220.024C220.024 141.981 221.059 143.863 222.768 145.041L225.038 141.747ZM224.024 139.661C224.024 138.495 224.452 137.759 225.038 137.277C225.673 136.755 226.652 136.409 227.867 136.409V132.409C225.942 132.409 224 132.952 222.498 134.187C220.947 135.462 220.024 137.351 220.024 139.661H224.024ZM227.867 136.409C229.099 136.409 230.085 136.757 230.722 137.279C231.309 137.76 231.737 138.496 231.737 139.661H235.737C235.737 137.351 234.813 135.46 233.258 134.185C231.751 132.95 229.802 132.409 227.867 132.409V136.409ZM231.737 139.661C231.737 140.664 231.325 141.315 230.697 141.747L232.967 145.041C234.656 143.877 235.737 142.005 235.737 139.661H231.737ZM227.867 135.73C226.81 135.73 225.725 136.048 224.877 136.803C224.002 137.582 223.551 138.678 223.551 139.867H227.551C227.551 139.778 227.566 139.748 227.563 139.756C227.559 139.765 227.549 139.78 227.537 139.79C227.513 139.812 227.586 139.73 227.867 139.73V135.73ZM223.551 139.867C223.551 141.051 224.017 142.133 224.877 142.899C225.715 143.645 226.794 143.978 227.867 143.978V139.978C227.602 139.978 227.523 139.899 227.537 139.912C227.543 139.917 227.553 139.929 227.558 139.94C227.562 139.951 227.551 139.932 227.551 139.867H223.551ZM227.867 143.978C228.941 143.978 230.02 143.645 230.858 142.899C231.718 142.133 232.184 141.051 232.184 139.867H228.184C228.184 139.932 228.173 139.951 228.177 139.94C228.182 139.929 228.191 139.917 228.198 139.912C228.212 139.899 228.133 139.978 227.867 139.978V143.978ZM232.184 139.867C232.184 138.678 231.733 137.582 230.858 136.803C230.01 136.048 228.925 135.73 227.867 135.73V139.73C228.149 139.73 228.222 139.812 228.198 139.79C228.186 139.78 228.176 139.765 228.172 139.756C228.169 139.748 228.184 139.778 228.184 139.867H232.184ZM227.867 151.778C229.036 151.778 230.254 151.479 231.224 150.701C232.246 149.88 232.802 148.674 232.802 147.307H228.802C228.802 147.444 228.777 147.506 228.769 147.524C228.762 147.539 228.751 147.556 228.72 147.581C228.647 147.64 228.398 147.778 227.867 147.778V151.778ZM232.802 147.307C232.802 145.942 232.249 144.735 231.235 143.909C230.269 143.122 229.049 142.81 227.867 142.81V146.81C228.385 146.81 228.632 146.948 228.709 147.01C228.742 147.038 228.756 147.059 228.766 147.081C228.777 147.103 228.802 147.17 228.802 147.307H232.802ZM227.867 142.81C226.686 142.81 225.466 143.122 224.5 143.909C223.486 144.735 222.933 145.942 222.933 147.307H226.933C226.933 147.17 226.958 147.103 226.969 147.081C226.979 147.059 226.993 147.038 227.026 147.01C227.103 146.948 227.35 146.81 227.867 146.81V142.81ZM222.933 147.307C222.933 148.674 223.489 149.88 224.511 150.701C225.481 151.479 226.699 151.778 227.867 151.778V147.778C227.337 147.778 227.088 147.64 227.015 147.581C226.984 147.556 226.973 147.539 226.966 147.524C226.958 147.506 226.933 147.444 226.933 147.307H222.933ZM243.323 151.125C241.641 151.125 240.438 150.463 239.595 149.331C238.703 148.131 238.115 146.254 238.115 143.754H234.115C234.115 146.815 234.827 149.623 236.386 151.719C237.996 153.882 240.397 155.125 243.323 155.125V151.125ZM238.115 143.754C238.115 141.255 238.703 139.385 239.593 138.194C240.433 137.069 241.635 136.409 243.323 136.409V132.409C240.402 132.409 238 133.642 236.388 135.8C234.827 137.89 234.115 140.693 234.115 143.754H238.115ZM243.323 136.409C244.995 136.409 246.199 137.067 247.045 138.196C247.938 139.389 248.531 141.259 248.531 143.754H252.531C252.531 140.689 251.811 137.887 250.246 135.798C248.633 133.644 246.233 132.409 243.323 132.409V136.409ZM248.531 143.754C248.531 146.25 247.938 148.128 247.042 149.329C246.195 150.465 244.99 151.125 243.323 151.125V155.125C246.238 155.125 248.637 153.88 250.248 151.721C251.811 149.627 252.531 146.82 252.531 143.754H248.531ZM243.323 151.675C245.229 151.675 246.783 150.775 247.754 149.188C248.645 147.733 248.978 145.825 248.978 143.754H244.978C244.978 145.493 244.681 146.546 244.343 147.099C244.085 147.521 243.811 147.675 243.323 147.675V151.675ZM248.978 143.754C248.978 141.684 248.645 139.78 247.751 138.329C246.775 136.744 245.219 135.859 243.323 135.859V139.859C243.821 139.859 244.093 140.016 244.346 140.427C244.681 140.971 244.978 142.014 244.978 143.754H248.978ZM243.323 135.859C241.422 135.859 239.858 136.737 238.874 138.325C237.974 139.778 237.642 141.685 237.642 143.754H241.642C241.642 142.014 241.939 140.973 242.275 140.431C242.527 140.024 242.804 139.859 243.323 139.859V135.859ZM237.642 143.754C237.642 145.825 237.975 147.735 238.871 149.192C239.85 150.782 241.412 151.675 243.323 151.675V147.675C242.814 147.675 242.535 147.513 242.278 147.095C241.939 146.544 241.642 145.494 241.642 143.754H237.642ZM252.459 154.85L250.632 154.036L250.622 154.058L250.613 154.081L252.459 154.85ZM262.422 132.479L264.249 133.292L264.249 133.291L262.422 132.479ZM263.838 132.659L265.665 133.472L265.674 133.45L265.684 133.428L263.838 132.659ZM253.875 155.03L252.048 154.216L252.047 154.218L253.875 155.03ZM253.411 153.339H252.794V157.339H253.411V153.339ZM252.794 153.339C252.952 153.339 253.604 153.382 254.077 154.03C254.59 154.732 254.384 155.429 254.305 155.619L250.613 154.081C250.405 154.58 250.212 155.521 250.847 156.39C251.443 157.205 252.326 157.339 252.794 157.339V153.339ZM254.286 155.663L264.249 133.292L260.595 131.665L250.632 154.036L254.286 155.663ZM264.249 133.291C264.215 133.368 264.067 133.672 263.698 133.912C263.324 134.156 262.979 134.17 262.885 134.17V130.17C262.559 130.17 262.034 130.222 261.513 130.562C260.995 130.899 260.731 131.357 260.594 131.666L264.249 133.291ZM262.885 134.17H263.503V130.17H262.885V134.17ZM263.503 134.17C263.345 134.17 262.693 134.126 262.22 133.478C261.707 132.776 261.912 132.08 261.991 131.89L265.684 133.428C265.892 132.929 266.084 131.988 265.449 131.118C264.854 130.303 263.97 130.17 263.503 130.17V134.17ZM262.011 131.845L252.048 154.216L255.702 155.844L265.665 133.472L262.011 131.845ZM252.047 154.218C252.081 154.14 252.229 153.837 252.599 153.596C252.972 153.353 253.317 153.339 253.411 153.339V157.339C253.737 157.339 254.262 157.287 254.784 156.947C255.301 156.609 255.565 156.151 255.702 155.842L252.047 154.218ZM273.091 138.142V136.142H271.091V138.142H273.091ZM269.564 138.142H271.564V136.142H269.564V138.142ZM276.824 136.744C276.659 136.744 276.229 136.69 275.851 136.3C275.484 135.921 275.441 135.508 275.441 135.362H279.441C279.441 134.829 279.296 134.107 278.723 133.516C278.139 132.914 277.4 132.744 276.824 132.744V136.744ZM275.441 135.362V137.55H279.441V135.362H275.441ZM275.441 137.55C275.441 137.402 275.486 136.951 275.895 136.554C276.294 136.169 276.721 136.142 276.824 136.142V140.142C277.338 140.142 278.074 140.013 278.679 139.427C279.294 138.831 279.441 138.085 279.441 137.55H275.441ZM276.824 136.142H273.091V140.142H276.824V136.142ZM271.091 138.142V152.172H275.091V138.142H271.091ZM271.091 152.172C271.091 152.024 271.134 151.59 271.525 151.199C271.916 150.808 272.351 150.765 272.499 150.765V154.765C273.033 154.765 273.763 154.618 274.354 154.027C274.944 153.437 275.091 152.707 275.091 152.172H271.091ZM272.499 150.765H270.182V154.765H272.499V150.765ZM270.182 150.765C270.284 150.765 270.712 150.791 271.11 151.177C271.519 151.573 271.564 152.024 271.564 152.172H267.564C267.564 152.707 267.712 153.454 268.327 154.05C268.931 154.635 269.667 154.765 270.182 154.765V150.765ZM271.564 152.172V138.142H267.564V152.172H271.564ZM269.564 136.142H265.831V140.142H269.564V136.142ZM265.831 136.142C265.977 136.142 266.374 136.184 266.747 136.533C267.138 136.901 267.213 137.337 267.213 137.55H263.213C263.213 138.149 263.404 138.881 264.008 139.449C264.593 139.998 265.299 140.142 265.831 140.142V136.142ZM267.213 137.55V135.362H263.213V137.55H267.213ZM267.213 135.362C267.213 135.57 267.143 135.971 266.792 136.322C266.44 136.674 266.039 136.744 265.831 136.744V132.744C265.237 132.744 264.527 132.93 263.963 133.494C263.399 134.058 263.213 134.768 263.213 135.362H267.213ZM265.831 136.744H273.091V132.744H265.831V136.744ZM273.091 136.744H276.824V132.744H273.091V136.744ZM295.538 140.511L297.478 140.025L297.466 139.976L297.451 139.927L295.538 140.511ZM291.805 140.717L289.986 141.546L290 141.579L290.016 141.611L291.805 140.717ZM291.805 146.818L290.016 145.923L290 145.955L289.986 145.988L291.805 146.818ZM295.538 146.972L297.455 147.543L297.463 147.515L297.471 147.488L295.538 146.972ZM286.966 151.125C282.631 151.125 279.569 147.945 279.569 143.754H275.569C275.569 150.118 280.385 155.125 286.966 155.125V151.125ZM279.569 143.754C279.569 139.593 282.627 136.409 286.966 136.409V132.409C280.389 132.409 275.569 137.413 275.569 143.754H279.569ZM286.966 136.409C290.162 136.409 292.792 138.362 293.625 141.094L297.451 139.927C296.07 135.399 291.801 132.409 286.966 132.409V136.409ZM293.598 140.996C293.54 140.766 293.505 140.223 293.924 139.719C294.321 139.243 294.813 139.18 294.998 139.18V143.18C295.594 143.18 296.407 142.988 296.997 142.28C297.61 141.545 297.639 140.667 297.478 140.025L293.598 140.996ZM294.998 139.18H292.5V143.18H294.998V139.18ZM292.5 139.18C292.659 139.18 292.937 139.223 293.216 139.415C293.473 139.59 293.577 139.787 293.594 139.822L290.016 141.611C290.188 141.955 290.473 142.383 290.954 142.714C291.459 143.06 292.008 143.18 292.5 143.18V139.18ZM293.625 139.887C292.453 137.316 289.786 135.859 286.966 135.859V139.859C288.47 139.859 289.562 140.616 289.986 141.546L293.625 139.887ZM286.966 135.859C284.724 135.859 282.728 136.646 281.291 138.114C279.861 139.577 279.122 141.575 279.122 143.754H283.122C283.122 142.484 283.541 141.534 284.151 140.912C284.755 140.294 285.68 139.859 286.966 139.859V135.859ZM279.122 143.754C279.122 145.943 279.858 147.947 281.289 149.415C282.726 150.888 284.724 151.675 286.966 151.675V147.675C285.681 147.675 284.756 147.24 284.153 146.622C283.544 145.997 283.122 145.041 283.122 143.754H279.122ZM286.966 151.675C289.786 151.675 292.453 150.218 293.625 147.647L289.986 145.988C289.562 146.918 288.47 147.675 286.966 147.675V151.675ZM293.594 147.712C293.59 147.721 293.504 147.895 293.278 148.063C293.016 148.258 292.724 148.329 292.5 148.329V144.329C291.942 144.329 291.38 144.49 290.893 144.852C290.441 145.187 290.176 145.605 290.016 145.923L293.594 147.712ZM292.5 148.329H294.998V144.329H292.5V148.329ZM294.998 148.329C294.814 148.329 294.337 148.267 293.942 147.807C293.514 147.308 293.529 146.744 293.606 146.457L297.471 147.488C297.65 146.814 297.601 145.929 296.979 145.204C296.392 144.519 295.593 144.329 294.998 144.329V148.329ZM293.621 146.401C292.807 149.134 290.175 151.125 286.966 151.125V155.125C291.84 155.125 296.107 152.07 297.455 147.543L293.621 146.401ZM301.304 146.715V144.715H299.304V146.715H301.304ZM301.304 138.065V136.065H299.304V138.065H301.304ZM301.304 143.394H299.304V145.394H301.304V143.394ZM304.496 136.744C306.806 136.744 308.571 138.543 308.571 140.742H312.571C312.571 136.3 308.982 132.744 304.496 132.744V136.744ZM308.571 140.742C308.571 142.911 306.812 144.715 304.496 144.715V148.715C308.976 148.715 312.571 145.164 312.571 140.742H308.571ZM304.496 144.715H301.304V148.715H304.496V144.715ZM299.304 146.715V152.172H303.304V146.715H299.304ZM299.304 152.172C299.304 152.024 299.348 151.573 299.757 151.177C300.156 150.791 300.583 150.765 300.686 150.765V154.765C301.2 154.765 301.936 154.635 302.541 154.05C303.156 153.454 303.304 152.707 303.304 152.172H299.304ZM300.686 150.765H298.369V154.765H300.686V150.765ZM298.369 150.765C298.517 150.765 298.951 150.808 299.342 151.199C299.733 151.59 299.777 152.024 299.777 152.172H295.777C295.777 152.707 295.923 153.437 296.514 154.027C297.104 154.618 297.835 154.765 298.369 154.765V150.765ZM299.777 152.172V135.362H295.777V152.172H299.777ZM299.777 135.362C299.777 135.508 299.735 135.905 299.386 136.277C299.018 136.669 298.581 136.744 298.369 136.744V132.744C297.77 132.744 297.038 132.935 296.47 133.539C295.921 134.123 295.777 134.83 295.777 135.362H299.777ZM298.369 136.744H301.304V132.744H298.369V136.744ZM301.304 136.744H304.496V132.744H301.304V136.744ZM304.496 145.394C307.119 145.394 309.044 143.261 309.044 140.742H305.044C305.044 140.987 304.957 141.15 304.867 141.243C304.781 141.334 304.662 141.394 304.496 141.394V145.394ZM309.044 140.742C309.044 138.249 307.144 136.065 304.496 136.065V140.065C304.648 140.065 304.766 140.121 304.858 140.219C304.955 140.321 305.044 140.495 305.044 140.742H309.044ZM304.496 136.065H301.304V140.065H304.496V136.065ZM299.304 138.065V143.394H303.304V138.065H299.304ZM301.304 145.394H304.496V141.394H301.304V145.394Z" fill="white" mask="url(#path-3-outside-1_27332_21784)"/>
<rect x="68.5959" y="114.893" width="142.58" height="142.58" rx="21.7831" fill="#326CE5" fill-opacity="0.1"/>
<rect x="68.5959" y="114.893" width="142.58" height="142.58" rx="21.7831" stroke="#326CE5" stroke-width="5.94083"/>
<rect x="47.8032" y="186.183" width="35.645" height="35.645" rx="17.8225" fill="#326CE5"/>
<g clip-path="url(#clip0_27332_21784)">
<path d="M66.4559 204.505C66.3247 204.505 66.2183 204.612 66.2183 204.743V211.847C66.2183 211.979 66.3247 212.085 66.4559 212.085H76.1989C76.3301 212.085 76.4365 211.979 76.4365 211.847V204.743C76.4365 204.612 76.3301 204.505 76.1989 204.505H66.4559ZM68.3497 210.011C68.3497 210.154 68.2452 210.274 68.1198 210.274C67.9944 210.274 67.89 210.154 67.89 210.011V206.555C67.89 206.412 67.9944 206.293 68.1198 206.293C68.2452 206.293 68.3497 206.412 68.3497 206.555V210.011ZM70.4811 210.011C70.4811 210.154 70.3766 210.274 70.2512 210.274C70.1258 210.274 70.0214 210.154 70.0214 210.011V206.555C70.0214 206.412 70.1258 206.293 70.2512 206.293C70.3766 206.293 70.4811 206.412 70.4811 206.555V210.011ZM72.6125 210.011C72.6125 210.154 72.508 210.274 72.3826 210.274C72.2573 210.274 72.1528 210.154 72.1528 210.011V206.555C72.1528 206.412 72.2573 206.293 72.3826 206.293C72.508 206.293 72.6125 206.412 72.6125 206.555V210.011ZM74.7439 210.011C74.7439 210.154 74.6394 210.274 74.514 210.274C74.3887 210.274 74.2842 210.154 74.2842 210.011V206.555C74.2842 206.412 74.3887 206.293 74.514 206.293C74.6394 206.293 74.7439 206.412 74.7439 206.555V210.011Z" fill="white"/>
<path d="M60.7435 195.926C60.6122 195.926 60.5059 196.032 60.5059 196.164V203.268C60.5059 203.399 60.6122 203.506 60.7435 203.506H70.4865C70.6177 203.506 70.7241 203.399 70.7241 203.268V196.164C70.7241 196.032 70.6177 195.926 70.4865 195.926H60.7435ZM62.6373 201.456C62.6373 201.599 62.5328 201.718 62.4074 201.718C62.282 201.718 62.1776 201.599 62.1776 201.456V198C62.1776 197.857 62.282 197.737 62.4074 197.737C62.5328 197.737 62.6373 197.857 62.6373 198V201.456ZM64.7896 201.456C64.7896 201.599 64.6851 201.718 64.5597 201.718C64.4343 201.718 64.3299 201.599 64.3299 201.456V198C64.3299 197.857 64.4343 197.737 64.5597 197.737C64.6851 197.737 64.7896 197.857 64.7896 198V201.456ZM66.921 201.456C66.921 201.599 66.8165 201.718 66.6911 201.718C66.5658 201.718 66.4613 201.599 66.4613 201.456V198C66.4613 197.857 66.5658 197.737 66.6911 197.737C66.8165 197.737 66.921 197.857 66.921 198V201.456ZM69.0524 201.456C69.0524 201.599 68.9479 201.718 68.8225 201.718C68.6972 201.718 68.5927 201.599 68.5927 201.456V198C68.5927 197.857 68.6972 197.737 68.8225 197.737C68.9479 197.737 69.0524 197.857 69.0524 198V201.456Z" fill="white"/>
<path d="M55.0521 204.505C54.9208 204.505 54.8145 204.612 54.8145 204.743V211.847C54.8145 211.979 54.9208 212.085 55.0521 212.085H64.7951C64.9263 212.085 65.0327 211.979 65.0327 211.847V204.743C65.0327 204.612 64.9263 204.505 64.7951 204.505H55.0521ZM56.9459 210.011C56.9459 210.154 56.8414 210.274 56.716 210.274C56.5906 210.274 56.4861 210.154 56.4861 210.011V206.555C56.4861 206.412 56.5906 206.293 56.716 206.293C56.8414 206.293 56.9459 206.412 56.9459 206.555V210.011ZM59.0773 210.011C59.0773 210.154 58.9728 210.274 58.8474 210.274C58.722 210.274 58.6176 210.154 58.6176 210.011V206.555C58.6176 206.412 58.722 206.293 58.8474 206.293C58.9728 206.293 59.0773 206.412 59.0773 206.555V210.011ZM61.2087 210.011C61.2087 210.154 61.1042 210.274 60.9788 210.274C60.8534 210.274 60.749 210.154 60.749 210.011V206.555C60.749 206.412 60.8534 206.293 60.9788 206.293C61.1042 206.293 61.2087 206.412 61.2087 206.555V210.011ZM63.361 210.011C63.361 210.154 63.2565 210.274 63.1311 210.274C63.0058 210.274 62.9013 210.154 62.9013 210.011V206.555C62.9013 206.412 63.0058 206.293 63.1311 206.293C63.2565 206.293 63.361 206.412 63.361 206.555V210.011Z" fill="white"/>
</g>
<path d="M650.079 108.046C654.859 99.2386 667.499 99.2386 672.279 108.046L736.731 226.806C741.298 235.221 735.206 245.459 725.631 245.459H596.727C587.152 245.459 581.06 235.221 585.627 226.806L650.079 108.046Z" fill="#326CE5"/>
<path fill-rule="evenodd" clip-rule="evenodd" d="M648.754 140.232C647.592 140.232 646.65 141.175 646.65 142.337V165.965C646.65 167.128 647.592 168.07 648.754 168.07H657.793V180.456H631.198H628.737V182.916V193.434H619.081C617.918 193.434 616.976 194.376 616.976 195.538V219.166C616.976 220.329 617.918 221.271 619.081 221.271H642.691C643.854 221.271 644.796 220.329 644.796 219.166V195.538C644.796 194.376 643.854 193.434 642.691 193.434H633.658V185.377H660.254H689.013V193.434H679.666C678.504 193.434 677.562 194.376 677.562 195.538V219.166C677.562 220.329 678.504 221.271 679.666 221.271H703.276C704.439 221.271 705.381 220.329 705.381 219.166V195.538C705.381 194.376 704.439 193.434 703.276 193.434H693.935V182.916V180.456H691.474H662.714V168.07H672.364C673.527 168.07 674.469 167.128 674.469 165.965V142.337C674.469 141.175 673.527 140.232 672.364 140.232H648.754Z" fill="white"/>
<defs>
<clipPath id="clip0_27332_21784">
<rect width="21.387" height="21.387" fill="white" transform="translate(54.9321 193.312)"/>
</clipPath>
</defs>
</svg>
