<svg width="811" height="362" viewBox="0 0 811 362" fill="none" xmlns="http://www.w3.org/2000/svg">
<rect x="114.667" y="46.9188" width="581.667" height="267.667" fill="#326CE5" fill-opacity="0.1"/>
<rect x="114.667" y="46.9188" width="581.667" height="267.667" stroke="#326CE5" stroke-width="7.33333"/>
<rect x="78" y="180.752" width="66" height="66" rx="33" fill="#326CE5"/>
<g clip-path="url(#clip0_27402_24390)">
<rect x="95.539" y="200.75" width="34.9284" height="26.0039" fill="white" fill-opacity="0.1" stroke="white" stroke-width="1.10724" stroke-dasharray="2.21 2.21"/>
<path fill-rule="evenodd" clip-rule="evenodd" d="M93.5384 222.345C91.2951 221.268 90.3471 218.57 91.421 216.319C91.9368 215.238 92.8593 214.407 93.9857 214.009C95.1122 213.611 96.3502 213.677 97.4275 214.195C99.6709 215.272 100.619 217.97 99.5449 220.221C98.471 222.471 95.7818 223.422 93.5384 222.345V222.345Z" fill="white"/>
<path d="M95.4393 215.56C95.3887 215.563 95.3392 215.575 95.2935 215.597L93.305 216.55C93.2535 216.575 93.2083 216.611 93.1727 216.655C93.1371 216.7 93.112 216.751 93.0993 216.807L92.6087 218.948C92.5973 218.997 92.5961 219.048 92.6049 219.098C92.6138 219.148 92.6326 219.195 92.6603 219.238C92.667 219.248 92.6742 219.258 92.6819 219.268L94.0583 220.985C94.0939 221.029 94.1392 221.065 94.1906 221.089C94.2421 221.114 94.2985 221.127 94.3556 221.127L96.5629 221.126C96.62 221.126 96.6763 221.114 96.7278 221.089C96.7793 221.065 96.8245 221.029 96.8602 220.984L98.236 219.267C98.2717 219.223 98.2968 219.171 98.3095 219.116C98.3222 219.06 98.3222 219.003 98.3095 218.947L97.8182 216.806C97.8055 216.751 97.7804 216.699 97.7447 216.655C97.7091 216.61 97.6639 216.574 97.6124 216.55L95.6236 215.597C95.5663 215.57 95.5029 215.557 95.4393 215.56V215.56Z" fill="#326CE5"/>
<path d="M95.4603 216.289C95.3946 216.289 95.3413 216.348 95.3413 216.422C95.3413 216.423 95.3415 216.424 95.3415 216.425C95.3414 216.435 95.341 216.447 95.3413 216.455C95.3429 216.498 95.352 216.53 95.3576 216.569C95.3676 216.652 95.376 216.721 95.3708 216.786C95.3658 216.81 95.348 216.832 95.3321 216.847L95.3293 216.898C95.2579 216.904 95.186 216.915 95.1142 216.931C94.8051 217.001 94.539 217.161 94.3365 217.377C94.3233 217.368 94.3003 217.351 94.2935 217.346C94.2722 217.349 94.2508 217.356 94.2228 217.339C94.1695 217.303 94.121 217.254 94.0623 217.194C94.0354 217.165 94.0159 217.138 93.984 217.11C93.9767 217.104 93.9656 217.096 93.9575 217.089C93.9325 217.069 93.9031 217.059 93.8746 217.058C93.838 217.057 93.8028 217.071 93.7798 217.1C93.7388 217.151 93.7519 217.23 93.809 217.276C93.8096 217.276 93.8102 217.277 93.8108 217.277C93.8186 217.284 93.8282 217.292 93.8355 217.297C93.8694 217.322 93.9003 217.335 93.9341 217.355C94.0053 217.399 94.0643 217.436 94.1111 217.48C94.1294 217.499 94.1326 217.534 94.135 217.549L94.1732 217.583C93.969 217.891 93.8745 218.272 93.9303 218.66L93.8805 218.674C93.8673 218.691 93.8488 218.718 93.8293 218.726C93.7681 218.746 93.6992 218.753 93.616 218.761C93.5769 218.765 93.5432 218.763 93.5018 218.771C93.4927 218.772 93.48 218.776 93.47 218.778C93.4696 218.778 93.4693 218.778 93.469 218.778C93.4684 218.778 93.4677 218.779 93.4672 218.779C93.397 218.796 93.352 218.86 93.3665 218.924C93.381 218.988 93.4495 219.027 93.5201 219.011C93.5206 219.011 93.5213 219.011 93.5219 219.011C93.5227 219.011 93.5234 219.011 93.5242 219.01C93.534 219.008 93.5463 219.006 93.5549 219.004C93.5957 218.993 93.6251 218.977 93.6618 218.962C93.7405 218.934 93.8057 218.91 93.8693 218.901C93.8958 218.899 93.9238 218.918 93.9377 218.925L93.9896 218.917C94.109 219.288 94.3592 219.588 94.676 219.776L94.6544 219.828C94.6622 219.849 94.6708 219.876 94.6649 219.896C94.6418 219.956 94.6023 220.019 94.5572 220.09C94.5354 220.123 94.5131 220.148 94.4934 220.185C94.4887 220.194 94.4827 220.208 94.4781 220.218C94.4475 220.283 94.47 220.359 94.5287 220.387C94.5879 220.416 94.6613 220.386 94.693 220.32C94.6931 220.32 94.6932 220.32 94.6933 220.32C94.6933 220.32 94.6932 220.319 94.6933 220.319C94.6978 220.31 94.7042 220.298 94.708 220.289C94.7249 220.25 94.7305 220.217 94.7424 220.18C94.7739 220.1 94.7912 220.017 94.8345 219.965C94.8464 219.951 94.8657 219.945 94.8858 219.94L94.9128 219.891C95.189 219.997 95.4981 220.026 95.8069 219.956C95.8774 219.94 95.9454 219.919 96.0112 219.894C96.0187 219.907 96.0328 219.933 96.0366 219.94C96.057 219.946 96.0792 219.95 96.0974 219.977C96.1298 220.032 96.152 220.098 96.179 220.178C96.1909 220.215 96.1967 220.248 96.2136 220.287C96.2175 220.296 96.2238 220.308 96.2284 220.318C96.2601 220.384 96.3337 220.414 96.3929 220.385C96.4517 220.357 96.4741 220.281 96.4435 220.216C96.439 220.206 96.4327 220.192 96.428 220.183C96.4083 220.146 96.386 220.121 96.3642 220.088C96.3191 220.018 96.2817 219.959 96.2586 219.899C96.249 219.868 96.2603 219.848 96.2678 219.828C96.2633 219.823 96.2536 219.794 96.2479 219.78C96.5772 219.585 96.82 219.274 96.9341 218.914C96.9495 218.917 96.9763 218.921 96.985 218.923C97.0029 218.911 97.0193 218.896 97.0516 218.898C97.1151 218.908 97.1804 218.931 97.2591 218.96C97.2957 218.974 97.3252 218.99 97.3659 219.001C97.3745 219.003 97.3869 219.005 97.3967 219.008C97.3975 219.008 97.3982 219.008 97.399 219.008C97.3995 219.008 97.4003 219.009 97.4008 219.009C97.4714 219.024 97.5399 218.985 97.5544 218.921C97.5689 218.858 97.5238 218.793 97.4537 218.776C97.4435 218.774 97.429 218.77 97.4191 218.768C97.3777 218.76 97.344 218.762 97.3049 218.759C97.2217 218.75 97.1528 218.743 97.0915 218.723C97.0666 218.714 97.0488 218.684 97.0401 218.672L96.9921 218.658C97.017 218.477 97.0103 218.288 96.9672 218.1C96.9236 217.91 96.8467 217.736 96.7441 217.583C96.7564 217.572 96.7797 217.551 96.7863 217.545C96.7883 217.524 96.7866 217.501 96.8087 217.477C96.8555 217.433 96.9145 217.397 96.9857 217.353C97.0195 217.333 97.0507 217.32 97.0847 217.295C97.0923 217.289 97.1028 217.28 97.1108 217.274C97.1679 217.228 97.1811 217.149 97.1401 217.098C97.0991 217.046 97.0197 217.041 96.9626 217.087C96.9545 217.093 96.9434 217.102 96.9361 217.108C96.9042 217.136 96.8844 217.163 96.8575 217.191C96.7988 217.251 96.7503 217.301 96.6971 217.337C96.674 217.351 96.6402 217.346 96.6248 217.345L96.5796 217.377C96.3214 217.106 95.97 216.932 95.5915 216.899C95.5905 216.883 95.5891 216.854 95.5887 216.845C95.5732 216.83 95.5545 216.818 95.5498 216.786C95.5447 216.721 95.5533 216.652 95.5633 216.569C95.5688 216.53 95.578 216.498 95.5796 216.455C95.5799 216.446 95.5794 216.432 95.5793 216.422C95.5793 216.348 95.526 216.289 95.4603 216.289H95.4603ZM95.3113 217.215L95.2759 217.841L95.2734 217.842C95.271 217.899 95.225 217.943 95.1686 217.943C95.1455 217.943 95.1241 217.936 95.1068 217.923L95.1058 217.924L94.5938 217.56C94.7512 217.404 94.9524 217.29 95.1844 217.237C95.2267 217.227 95.2691 217.22 95.3113 217.215ZM95.6096 217.215C95.8804 217.248 96.1308 217.371 96.3227 217.56L95.8141 217.922L95.8123 217.921C95.7671 217.954 95.7035 217.946 95.6683 217.901C95.6539 217.883 95.6464 217.862 95.6455 217.84L95.6449 217.84L95.6096 217.215ZM94.4082 217.794L94.8756 218.213L94.8751 218.215C94.9173 218.252 94.9235 218.316 94.8883 218.36C94.8739 218.379 94.8546 218.391 94.8339 218.396L94.8334 218.398L94.2342 218.572C94.2037 218.292 94.2695 218.02 94.4082 217.794ZM96.5091 217.794C96.5786 217.907 96.6312 218.033 96.6625 218.17C96.6934 218.305 96.7012 218.44 96.6884 218.57L96.0862 218.396L96.0857 218.393C96.0318 218.379 95.9986 218.323 96.0112 218.268C96.0163 218.246 96.0283 218.227 96.0445 218.212L96.0442 218.211L96.5091 217.794H96.5091ZM95.3644 218.245H95.5559L95.675 218.395L95.6322 218.581L95.4603 218.664L95.2879 218.581L95.2452 218.394L95.3644 218.245ZM95.9784 218.756C95.9865 218.756 95.9946 218.756 96.0025 218.758L96.0035 218.757L96.6233 218.862C96.5326 219.117 96.359 219.339 96.1271 219.487L95.8866 218.904L95.8873 218.903C95.8652 218.851 95.8873 218.791 95.9382 218.767C95.9512 218.76 95.9648 218.757 95.9784 218.756H95.9784ZM94.9374 218.759C94.9847 218.759 95.0271 218.792 95.0381 218.841C95.0433 218.863 95.0408 218.886 95.0323 218.905L95.0341 218.908L94.796 219.485C94.5735 219.341 94.3962 219.127 94.3014 218.864L94.9158 218.759L94.9168 218.76C94.9237 218.759 94.9307 218.759 94.9374 218.759V218.759ZM95.4565 219.011C95.473 219.011 95.4897 219.014 95.5056 219.022C95.5264 219.032 95.5425 219.048 95.5526 219.067H95.5549L95.8578 219.616C95.8185 219.629 95.7781 219.64 95.7368 219.65C95.5051 219.702 95.2742 219.687 95.0651 219.615L95.3672 219.067H95.3677C95.3859 219.033 95.4202 219.013 95.4565 219.011Z" fill="white" stroke="white" stroke-width="0.0553618"/>
</g>
<rect x="179.582" y="100.752" width="160" height="160" rx="35" fill="#326CE5"/>
<g clip-path="url(#clip1_27402_24390)">
<path fill-rule="evenodd" clip-rule="evenodd" d="M259.59 180.636C270.73 180.636 279.762 171.604 279.762 160.464C279.762 149.323 270.73 140.291 259.59 140.291C248.449 140.291 239.418 149.323 239.418 160.464C239.418 171.604 248.449 180.636 259.59 180.636ZM244.969 181.697C245.374 181.637 245.785 181.743 246.131 181.962C249.764 184.25 254.424 185.626 259.506 185.626C264.617 185.626 269.302 184.235 272.943 181.922C273.283 181.707 273.683 181.599 274.082 181.651C283.833 182.903 291.368 191.234 291.368 201.325V209.139C291.368 215.808 285.962 221.214 279.293 221.214H240.094C233.425 221.214 228.019 215.808 228.019 209.139V201.325C228.019 191.35 235.382 183.095 244.969 181.697Z" fill="white"/>
</g>
<path d="M484.751 107.419H631.418V188.085C631.418 219.198 631.418 234.754 621.753 244.42C612.087 254.085 596.531 254.085 565.418 254.085H550.751C519.639 254.085 504.082 254.085 494.417 244.42C484.751 234.754 484.751 219.198 484.751 188.085V107.419Z" fill="#326CE5"/>
<path fill-rule="evenodd" clip-rule="evenodd" d="M542.932 149.127C541.92 149.127 541.099 149.948 541.099 150.96V152.794C541.099 153.806 541.92 154.627 542.932 154.627H596.534C597.547 154.627 598.368 153.806 598.368 152.794V150.96C598.368 149.948 597.547 149.127 596.534 149.127H542.932ZM519.585 149.127C518.573 149.127 517.752 149.948 517.752 150.96V152.793C517.752 153.806 518.573 154.626 519.585 154.626H529.942C530.954 154.626 531.775 153.806 531.775 152.793V150.96C531.775 149.948 530.954 149.127 529.942 149.127H519.585ZM562.19 170.327C562.19 169.315 563.01 168.494 564.023 168.494H596.584C597.597 168.494 598.417 169.315 598.417 170.327V172.044C598.417 173.056 597.597 173.877 596.584 173.877H564.023C563.01 173.877 562.19 173.056 562.19 172.044V170.327ZM540.791 168.377C539.779 168.377 538.958 169.198 538.958 170.21V171.926C538.958 172.939 539.779 173.76 540.791 173.76H551.148C552.16 173.76 552.981 172.939 552.981 171.926V170.21C552.981 169.198 552.16 168.377 551.148 168.377H540.791ZM562.19 189.578C562.19 188.565 563.01 187.744 564.023 187.744H596.584C597.597 187.744 598.417 188.565 598.417 189.578V191.294C598.417 192.306 597.597 193.127 596.584 193.127H564.023C563.01 193.127 562.19 192.306 562.19 191.294V189.578ZM540.791 187.627C539.779 187.627 538.958 188.448 538.958 189.46V191.176C538.958 192.189 539.779 193.01 540.791 193.01H551.148C552.16 193.01 552.981 192.189 552.981 191.176V189.46C552.981 188.448 552.16 187.627 551.148 187.627H540.791ZM541.099 208.71C541.099 207.698 541.92 206.877 542.932 206.877H596.534C597.547 206.877 598.368 207.698 598.368 208.71V210.544C598.368 211.556 597.547 212.377 596.534 212.377H542.932C541.92 212.377 541.099 211.556 541.099 210.544V208.71ZM519.585 206.877C518.573 206.877 517.752 207.698 517.752 208.71V210.543C517.752 211.556 518.573 212.376 519.585 212.376H529.942C530.955 212.376 531.775 211.556 531.775 210.543V208.71C531.775 207.698 530.955 206.877 529.942 206.877H519.585Z" fill="white"/>
<defs>
<clipPath id="clip0_27402_24390">
<rect width="40" height="40" fill="white" transform="translate(91 193.752)"/>
</clipPath>
<clipPath id="clip1_27402_24390">
<rect width="90" height="90" fill="white" transform="translate(214.582 135.752)"/>
</clipPath>
</defs>
</svg>
