<svg width="811" height="362" viewBox="0 0 811 362" fill="none" xmlns="http://www.w3.org/2000/svg">
<path d="M111.61 137.776C115.382 130.827 125.355 130.827 129.127 137.776L179.981 231.48C183.584 238.12 178.777 246.198 171.222 246.198H69.5146C61.9601 246.198 57.1531 238.12 60.7566 231.48L111.61 137.776Z" fill="#326CE5"/>
<path fill-rule="evenodd" clip-rule="evenodd" d="M110.565 163.172C109.648 163.172 108.904 163.916 108.904 164.833V183.476C108.904 184.393 109.648 185.137 110.565 185.137H117.697V194.909H96.7127H94.7712V196.851V205.149H87.1525C86.2353 205.149 85.4917 205.892 85.4917 206.81V225.452C85.4917 226.37 86.2353 227.113 87.1525 227.113H105.781C106.698 227.113 107.442 226.37 107.442 225.452V206.81C107.442 205.892 106.698 205.149 105.781 205.149H98.6541V198.792H119.639H142.33V205.149H134.956C134.038 205.149 133.295 205.892 133.295 206.81V225.452C133.295 226.37 134.038 227.113 134.956 227.113H153.584C154.501 227.113 155.245 226.37 155.245 225.452V206.81C155.245 205.892 154.501 205.149 153.584 205.149H146.213V196.851V194.909H144.272H121.58V185.137H129.194C130.111 185.137 130.855 184.393 130.855 183.476V164.833C130.855 163.916 130.111 163.172 129.194 163.172H110.565Z" fill="white"/>
<path d="M157.398 189.759H566.719" stroke="#326CE5" stroke-width="12.4666" stroke-dasharray="8.31 8.31"/>
<path d="M548.976 169.168L589.79 189.065L548.976 209.984L562.562 189.396L548.976 169.168Z" fill="#CCCCCC"/>
<mask id="path-5-outside-1_27410_24464" maskUnits="userSpaceOnUse" x="461.842" y="137.854" width="97" height="29" fill="black">
<rect fill="white" x="461.842" y="137.854" width="97" height="29"/>
<path d="M475.436 152.197C477.108 153.178 478.01 154.797 478.01 156.681C478.01 160.103 475.489 162.225 471.35 162.225C467.238 162.225 464.691 160.103 464.691 156.681C464.691 154.797 465.62 153.178 467.265 152.197C466.071 151.374 465.328 150.074 465.328 148.35C465.328 144.768 468.114 142.938 471.35 142.938C474.614 142.938 477.399 144.768 477.399 148.35C477.399 150.074 476.63 151.374 475.436 152.197ZM471.35 146.36C469.971 146.36 468.963 147.183 468.963 148.562C468.963 149.889 469.971 150.738 471.35 150.738C472.73 150.738 473.738 149.889 473.738 148.562C473.738 147.183 472.73 146.36 471.35 146.36ZM471.35 158.776C473.102 158.776 474.375 157.874 474.375 156.229C474.375 154.585 473.102 153.656 471.35 153.656C469.599 153.656 468.326 154.585 468.326 156.229C468.326 157.874 469.599 158.776 471.35 158.776ZM487.278 162.225C482.529 162.225 479.85 158.299 479.85 152.568C479.85 146.838 482.529 142.938 487.278 142.938C492.001 142.938 494.707 146.838 494.707 152.568C494.707 158.299 492.001 162.225 487.278 162.225ZM487.278 158.67C489.746 158.67 491.046 156.495 491.046 152.568C491.046 148.642 489.746 146.493 487.278 146.493C484.785 146.493 483.485 148.642 483.485 152.568C483.485 156.495 484.785 158.67 487.278 158.67ZM497.675 164.507H497.039C496.72 164.507 496.561 164.321 496.694 164.003L506.961 140.948C507.067 140.709 507.2 140.629 507.439 140.629H508.075C508.394 140.629 508.553 140.815 508.42 141.134L498.153 164.189C498.047 164.427 497.914 164.507 497.675 164.507ZM521.803 143.283C522.228 143.283 522.44 143.521 522.44 143.919V146.174C522.44 146.572 522.228 146.785 521.803 146.785H517.956V161.244C517.956 161.642 517.744 161.854 517.346 161.854H514.958C514.534 161.854 514.322 161.642 514.322 161.244V146.785H510.475C510.077 146.785 509.838 146.572 509.838 146.174V143.919C509.838 143.521 510.077 143.283 510.475 143.283H517.956H521.803ZM532.255 162.225C526.631 162.225 522.572 158.007 522.572 152.568C522.572 147.156 526.631 142.938 532.255 142.938C536.394 142.938 539.949 145.485 541.09 149.225C541.196 149.65 540.958 149.915 540.533 149.915H537.96C537.615 149.915 537.402 149.756 537.243 149.438C536.421 147.634 534.484 146.493 532.255 146.493C528.621 146.493 526.233 149.013 526.233 152.568C526.233 156.15 528.621 158.67 532.255 158.67C534.484 158.67 536.421 157.529 537.243 155.725C537.402 155.407 537.615 155.221 537.96 155.221H540.533C540.958 155.221 541.196 155.487 541.09 155.885C539.976 159.625 536.421 162.225 532.255 162.225ZM550.322 143.283C553.824 143.283 556.583 146.042 556.583 149.464C556.583 152.86 553.824 155.619 550.322 155.619H547.032V161.244C547.032 161.642 546.82 161.854 546.395 161.854H544.007C543.609 161.854 543.397 161.642 543.397 161.244V143.919C543.397 143.521 543.609 143.283 544.007 143.283H547.032H550.322ZM550.322 152.197C551.807 152.197 552.948 151.003 552.948 149.464C552.948 147.925 551.807 146.705 550.322 146.705H547.032V152.197H550.322Z"/>
</mask>
<path d="M475.436 152.197C477.108 153.178 478.01 154.797 478.01 156.681C478.01 160.103 475.489 162.225 471.35 162.225C467.238 162.225 464.691 160.103 464.691 156.681C464.691 154.797 465.62 153.178 467.265 152.197C466.071 151.374 465.328 150.074 465.328 148.35C465.328 144.768 468.114 142.938 471.35 142.938C474.614 142.938 477.399 144.768 477.399 148.35C477.399 150.074 476.63 151.374 475.436 152.197ZM471.35 146.36C469.971 146.36 468.963 147.183 468.963 148.562C468.963 149.889 469.971 150.738 471.35 150.738C472.73 150.738 473.738 149.889 473.738 148.562C473.738 147.183 472.73 146.36 471.35 146.36ZM471.35 158.776C473.102 158.776 474.375 157.874 474.375 156.229C474.375 154.585 473.102 153.656 471.35 153.656C469.599 153.656 468.326 154.585 468.326 156.229C468.326 157.874 469.599 158.776 471.35 158.776ZM487.278 162.225C482.529 162.225 479.85 158.299 479.85 152.568C479.85 146.838 482.529 142.938 487.278 142.938C492.001 142.938 494.707 146.838 494.707 152.568C494.707 158.299 492.001 162.225 487.278 162.225ZM487.278 158.67C489.746 158.67 491.046 156.495 491.046 152.568C491.046 148.642 489.746 146.493 487.278 146.493C484.785 146.493 483.485 148.642 483.485 152.568C483.485 156.495 484.785 158.67 487.278 158.67ZM497.675 164.507H497.039C496.72 164.507 496.561 164.321 496.694 164.003L506.961 140.948C507.067 140.709 507.2 140.629 507.439 140.629H508.075C508.394 140.629 508.553 140.815 508.42 141.134L498.153 164.189C498.047 164.427 497.914 164.507 497.675 164.507ZM521.803 143.283C522.228 143.283 522.44 143.521 522.44 143.919V146.174C522.44 146.572 522.228 146.785 521.803 146.785H517.956V161.244C517.956 161.642 517.744 161.854 517.346 161.854H514.958C514.534 161.854 514.322 161.642 514.322 161.244V146.785H510.475C510.077 146.785 509.838 146.572 509.838 146.174V143.919C509.838 143.521 510.077 143.283 510.475 143.283H517.956H521.803ZM532.255 162.225C526.631 162.225 522.572 158.007 522.572 152.568C522.572 147.156 526.631 142.938 532.255 142.938C536.394 142.938 539.949 145.485 541.09 149.225C541.196 149.65 540.958 149.915 540.533 149.915H537.96C537.615 149.915 537.402 149.756 537.243 149.438C536.421 147.634 534.484 146.493 532.255 146.493C528.621 146.493 526.233 149.013 526.233 152.568C526.233 156.15 528.621 158.67 532.255 158.67C534.484 158.67 536.421 157.529 537.243 155.725C537.402 155.407 537.615 155.221 537.96 155.221H540.533C540.958 155.221 541.196 155.487 541.09 155.885C539.976 159.625 536.421 162.225 532.255 162.225ZM550.322 143.283C553.824 143.283 556.583 146.042 556.583 149.464C556.583 152.86 553.824 155.619 550.322 155.619H547.032V161.244C547.032 161.642 546.82 161.854 546.395 161.854H544.007C543.609 161.854 543.397 161.642 543.397 161.244V143.919C543.397 143.521 543.609 143.283 544.007 143.283H547.032H550.322ZM550.322 152.197C551.807 152.197 552.948 151.003 552.948 149.464C552.948 147.925 551.807 146.705 550.322 146.705H547.032V152.197H550.322Z" fill="#000D12"/>
<path d="M475.436 152.197L474.302 150.55L471.716 152.331L474.423 153.921L475.436 152.197ZM467.265 152.197L468.29 153.914L470.965 152.317L468.399 150.55L467.265 152.197ZM474.423 153.921C475.478 154.541 476.01 155.499 476.01 156.681H480.01C480.01 154.094 478.738 151.816 476.449 150.472L474.423 153.921ZM476.01 156.681C476.01 157.862 475.596 158.662 474.95 159.201C474.261 159.777 473.099 160.225 471.35 160.225V164.225C473.741 164.225 475.908 163.613 477.514 162.271C479.163 160.894 480.01 158.922 480.01 156.681H476.01ZM471.35 160.225C469.618 160.225 468.453 159.778 467.759 159.2C467.107 158.656 466.691 157.855 466.691 156.681H462.691C462.691 158.928 463.549 160.9 465.199 162.273C466.806 163.612 468.97 164.225 471.35 164.225V160.225ZM466.691 156.681C466.691 155.515 467.237 154.542 468.29 153.914L466.24 150.479C464.002 151.815 462.691 154.078 462.691 156.681H466.691ZM468.399 150.55C467.757 150.107 467.328 149.428 467.328 148.35H463.328C463.328 150.721 464.385 152.642 466.13 153.844L468.399 150.55ZM467.328 148.35C467.328 147.131 467.777 146.355 468.396 145.845C469.063 145.297 470.087 144.938 471.35 144.938V140.938C469.377 140.938 467.39 141.494 465.855 142.756C464.272 144.057 463.328 145.987 463.328 148.35H467.328ZM471.35 144.938C472.631 144.938 473.661 145.298 474.331 145.847C474.951 146.356 475.399 147.131 475.399 148.35H479.399C479.399 145.987 478.455 144.056 476.867 142.754C475.328 141.492 473.334 140.938 471.35 140.938V144.938ZM475.399 148.35C475.399 149.404 474.964 150.093 474.302 150.55L476.571 153.844C478.296 152.656 479.399 150.745 479.399 148.35H475.399ZM471.35 144.36C470.272 144.36 469.17 144.684 468.309 145.45C467.422 146.24 466.963 147.353 466.963 148.562H470.963C470.963 148.463 470.98 148.424 470.98 148.423C470.981 148.422 470.98 148.424 470.977 148.429C470.973 148.433 470.97 148.436 470.969 148.437C470.958 148.448 471.049 148.36 471.35 148.36V144.36ZM466.963 148.562C466.963 149.765 467.436 150.863 468.309 151.641C469.16 152.398 470.257 152.738 471.35 152.738V148.738C471.21 148.738 471.112 148.716 471.052 148.695C470.993 148.675 470.971 148.655 470.969 148.654C470.968 148.653 470.969 148.654 470.972 148.657C470.974 148.66 470.975 148.662 470.975 148.662C470.975 148.662 470.972 148.656 470.969 148.641C470.966 148.627 470.963 148.601 470.963 148.562H466.963ZM471.35 152.738C472.444 152.738 473.541 152.398 474.392 151.641C475.265 150.863 475.738 149.765 475.738 148.562H471.738C471.738 148.601 471.735 148.627 471.732 148.641C471.729 148.656 471.726 148.662 471.726 148.662C471.726 148.662 471.727 148.66 471.729 148.657C471.732 148.654 471.733 148.653 471.732 148.654C471.73 148.655 471.708 148.675 471.649 148.695C471.589 148.716 471.491 148.738 471.35 148.738V152.738ZM475.738 148.562C475.738 147.353 475.279 146.24 474.392 145.45C473.531 144.684 472.428 144.36 471.35 144.36V148.36C471.652 148.36 471.743 148.448 471.732 148.437C471.731 148.436 471.728 148.433 471.724 148.429C471.721 148.424 471.72 148.422 471.721 148.423C471.721 148.424 471.738 148.463 471.738 148.562H475.738ZM471.35 160.776C472.545 160.776 473.786 160.47 474.771 159.68C475.81 158.846 476.375 157.621 476.375 156.229H472.375C472.375 156.379 472.347 156.452 472.335 156.479C472.323 156.504 472.306 156.529 472.268 156.56C472.179 156.631 471.907 156.776 471.35 156.776V160.776ZM476.375 156.229C476.375 154.841 475.812 153.614 474.783 152.775C473.801 151.975 472.558 151.656 471.35 151.656V155.656C471.894 155.656 472.164 155.801 472.256 155.876C472.298 155.91 472.318 155.94 472.332 155.971C472.347 156.003 472.375 156.08 472.375 156.229H476.375ZM471.35 151.656C470.143 151.656 468.9 151.975 467.918 152.775C466.889 153.614 466.326 154.841 466.326 156.229H470.326C470.326 156.08 470.354 156.003 470.369 155.971C470.383 155.94 470.403 155.91 470.445 155.876C470.537 155.801 470.807 155.656 471.35 155.656V151.656ZM466.326 156.229C466.326 157.621 466.891 158.846 467.93 159.68C468.915 160.47 470.156 160.776 471.35 160.776V156.776C470.794 156.776 470.522 156.631 470.433 156.56C470.394 156.529 470.378 156.504 470.366 156.479C470.354 156.452 470.326 156.379 470.326 156.229H466.326ZM487.278 160.225C485.526 160.225 484.268 159.534 483.388 158.352C482.458 157.102 481.85 155.153 481.85 152.568H477.85C477.85 155.714 478.582 158.594 480.179 160.74C481.826 162.953 484.282 164.225 487.278 164.225V160.225ZM481.85 152.568C481.85 149.984 482.458 148.043 483.386 146.801C484.263 145.626 485.521 144.938 487.278 144.938V140.938C484.287 140.938 481.831 142.199 480.181 144.407C478.582 146.548 477.85 149.422 477.85 152.568H481.85ZM487.278 144.938C489.02 144.938 490.28 145.624 491.163 146.803C492.094 148.046 492.707 149.988 492.707 152.568H496.707C496.707 149.418 495.967 146.544 494.364 144.405C492.714 142.201 490.259 140.938 487.278 140.938V144.938ZM492.707 152.568C492.707 155.149 492.094 157.098 491.161 158.35C490.275 159.536 489.015 160.225 487.278 160.225V164.225C490.264 164.225 492.718 162.951 494.367 160.742C495.967 158.597 496.707 155.719 496.707 152.568H492.707ZM487.278 160.67C489.221 160.67 490.803 159.753 491.793 158.136C492.703 156.65 493.046 154.697 493.046 152.568H489.046C489.046 154.366 488.739 155.464 488.382 156.048C488.105 156.499 487.803 156.67 487.278 156.67V160.67ZM493.046 152.568C493.046 150.44 492.703 148.491 491.79 147.009C490.795 145.394 489.211 144.493 487.278 144.493V148.493C487.813 148.493 488.113 148.666 488.385 149.107C488.739 149.682 489.046 150.77 489.046 152.568H493.046ZM487.278 144.493C485.341 144.493 483.748 145.387 482.746 147.005C481.827 148.489 481.485 150.44 481.485 152.568H485.485C485.485 150.77 485.792 149.684 486.147 149.111C486.418 148.673 486.722 148.493 487.278 148.493V144.493ZM481.485 152.568C481.485 154.697 481.827 156.652 482.743 158.14C483.741 159.761 485.331 160.67 487.278 160.67V156.67C486.732 156.67 486.426 156.492 486.15 156.044C485.792 155.462 485.485 154.366 485.485 152.568H481.485ZM496.694 164.003L494.867 163.189L494.857 163.211L494.848 163.234L496.694 164.003ZM506.961 140.948L508.788 141.761L508.789 141.76L506.961 140.948ZM508.42 141.134L510.247 141.947L510.257 141.925L510.266 141.903L508.42 141.134ZM498.153 164.189L496.326 163.375L496.325 163.376L498.153 164.189ZM497.675 162.507H497.039V166.507H497.675V162.507ZM497.039 162.507C497.192 162.507 497.84 162.549 498.312 163.194C498.823 163.894 498.617 164.587 498.54 164.772L494.848 163.234C494.638 163.737 494.445 164.683 495.082 165.554C495.68 166.372 496.567 166.507 497.039 166.507V162.507ZM498.521 164.817L508.788 141.761L505.134 140.134L494.867 163.189L498.521 164.817ZM508.789 141.76C508.756 141.834 508.61 142.135 508.243 142.374C507.871 142.616 507.529 142.629 507.439 142.629V138.629C507.109 138.629 506.581 138.682 506.058 139.024C505.538 139.363 505.272 139.823 505.133 140.136L508.789 141.76ZM507.439 142.629H508.075V138.629H507.439V142.629ZM508.075 142.629C507.922 142.629 507.274 142.587 506.802 141.942C506.291 141.243 506.497 140.55 506.574 140.364L510.266 141.903C510.476 141.399 510.669 140.454 510.032 139.582C509.434 138.765 508.547 138.629 508.075 138.629V142.629ZM506.593 140.32L496.326 163.375L499.98 165.002L510.247 141.947L506.593 140.32ZM496.325 163.376C496.358 163.303 496.504 163.002 496.871 162.762C497.243 162.52 497.585 162.507 497.675 162.507V166.507C498.005 166.507 498.533 166.454 499.056 166.113C499.576 165.774 499.842 165.313 499.981 165.001L496.325 163.376ZM517.956 146.785V144.785H515.956V146.785H517.956ZM514.322 146.785H516.322V144.785H514.322V146.785ZM521.803 145.283C521.645 145.283 521.22 145.231 520.845 144.844C520.481 144.468 520.44 144.06 520.44 143.919H524.44C524.44 143.381 524.293 142.654 523.717 142.059C523.13 141.454 522.386 141.283 521.803 141.283V145.283ZM520.44 143.919V146.174H524.44V143.919H520.44ZM520.44 146.174C520.44 146.032 520.483 145.586 520.889 145.192C521.284 144.809 521.707 144.785 521.803 144.785V148.785C522.324 148.785 523.065 148.654 523.673 148.065C524.291 147.466 524.44 146.715 524.44 146.174H520.44ZM521.803 144.785H517.956V148.785H521.803V144.785ZM515.956 146.785V161.244H519.956V146.785H515.956ZM515.956 161.244C515.956 161.102 515.999 160.672 516.386 160.284C516.774 159.896 517.204 159.854 517.346 159.854V163.854C517.886 163.854 518.621 163.706 519.215 163.112C519.808 162.519 519.956 161.784 519.956 161.244H515.956ZM517.346 159.854H514.958V163.854H517.346V159.854ZM514.958 159.854C515.055 159.854 515.477 159.879 515.873 160.262C516.279 160.655 516.322 161.101 516.322 161.244H512.322C512.322 161.784 512.471 162.536 513.089 163.135C513.697 163.723 514.438 163.854 514.958 163.854V159.854ZM516.322 161.244V146.785H512.322V161.244H516.322ZM514.322 144.785H510.475V148.785H514.322V144.785ZM510.475 144.785C510.615 144.785 511.008 144.824 511.377 145.171C511.765 145.536 511.838 145.968 511.838 146.174H507.838C507.838 146.779 508.03 147.516 508.638 148.086C509.226 148.639 509.937 148.785 510.475 148.785V144.785ZM511.838 146.174V143.919H507.838V146.174H511.838ZM511.838 143.919C511.838 144.121 511.77 144.518 511.421 144.866C511.073 145.214 510.677 145.283 510.475 145.283V141.283C509.875 141.283 509.16 141.47 508.593 142.037C508.026 142.604 507.838 143.319 507.838 143.919H511.838ZM510.475 145.283H517.956V141.283H510.475V145.283ZM517.956 145.283H521.803V141.283H517.956V145.283ZM541.09 149.225L543.03 148.74L543.018 148.691L543.003 148.642L541.09 149.225ZM537.243 149.438L535.423 150.267L535.438 150.3L535.454 150.332L537.243 149.438ZM537.243 155.725L535.454 154.831L535.438 154.863L535.423 154.896L537.243 155.725ZM541.09 155.885L543.007 156.456L543.015 156.428L543.023 156.4L541.09 155.885ZM532.255 160.225C527.754 160.225 524.572 156.921 524.572 152.568H520.572C520.572 159.093 525.508 164.225 532.255 164.225V160.225ZM524.572 152.568C524.572 148.246 527.75 144.938 532.255 144.938V140.938C525.512 140.938 520.572 146.066 520.572 152.568H524.572ZM532.255 144.938C535.575 144.938 538.31 146.966 539.177 149.809L543.003 148.642C541.589 144.003 537.214 140.938 532.255 140.938V144.938ZM539.15 149.71C539.094 149.487 539.057 148.949 539.474 148.449C539.868 147.976 540.355 147.915 540.533 147.915V151.915C541.135 151.915 541.954 151.721 542.547 151.01C543.163 150.271 543.192 149.388 543.03 148.74L539.15 149.71ZM540.533 147.915H537.96V151.915H540.533V147.915ZM537.96 147.915C538.113 147.915 538.387 147.957 538.663 148.146C538.916 148.32 539.017 148.513 539.032 148.543L535.454 150.332C535.629 150.681 535.916 151.113 536.401 151.445C536.909 151.794 537.462 151.915 537.96 151.915V147.915ZM539.063 148.608C537.867 145.983 535.142 144.493 532.255 144.493V148.493C533.826 148.493 534.975 149.284 535.423 150.267L539.063 148.608ZM532.255 144.493C529.96 144.493 527.919 145.299 526.452 146.799C524.99 148.293 524.233 150.336 524.233 152.568H528.233C528.233 151.245 528.67 150.251 529.311 149.596C529.946 148.947 530.916 148.493 532.255 148.493V144.493ZM524.233 152.568C524.233 154.81 524.987 156.86 526.449 158.359C527.918 159.864 529.96 160.67 532.255 160.67V156.67C530.917 156.67 529.947 156.216 529.313 155.566C528.673 154.91 528.233 153.908 528.233 152.568H524.233ZM532.255 160.67C535.142 160.67 537.867 159.18 539.063 156.555L535.423 154.896C534.975 155.879 533.826 156.67 532.255 156.67V160.67ZM539.032 156.62C539.03 156.624 538.947 156.794 538.724 156.959C538.466 157.152 538.178 157.221 537.96 157.221V153.221C537.396 153.221 536.83 153.384 536.339 153.748C535.884 154.087 535.616 154.508 535.454 154.831L539.032 156.62ZM537.96 157.221H540.533V153.221H537.96V157.221ZM540.533 157.221C540.356 157.221 539.883 157.162 539.492 156.705C539.067 156.209 539.083 155.65 539.158 155.369L543.023 156.4C543.204 155.721 543.153 154.83 542.529 154.102C541.939 153.414 541.134 153.221 540.533 153.221V157.221ZM539.173 155.314C538.326 158.158 535.588 160.225 532.255 160.225V164.225C537.253 164.225 541.626 161.093 543.007 156.456L539.173 155.314ZM547.032 155.619V153.619H545.032V155.619H547.032ZM547.032 146.705V144.705H545.032V146.705H547.032ZM547.032 152.197H545.032V154.197H547.032V152.197ZM550.322 145.283C552.736 145.283 554.583 147.163 554.583 149.464H558.583C558.583 144.92 554.911 141.283 550.322 141.283V145.283ZM554.583 149.464C554.583 151.733 552.741 153.619 550.322 153.619V157.619C554.906 157.619 558.583 153.987 558.583 149.464H554.583ZM550.322 153.619H547.032V157.619H550.322V153.619ZM545.032 155.619V161.244H549.032V155.619H545.032ZM545.032 161.244C545.032 161.101 545.075 160.655 545.481 160.262C545.876 159.879 546.299 159.854 546.395 159.854V163.854C546.916 163.854 547.657 163.723 548.264 163.135C548.883 162.536 549.032 161.784 549.032 161.244H545.032ZM546.395 159.854H544.007V163.854H546.395V159.854ZM544.007 159.854C544.149 159.854 544.579 159.896 544.967 160.284C545.355 160.672 545.397 161.102 545.397 161.244H541.397C541.397 161.784 541.545 162.519 542.139 163.112C542.732 163.706 543.467 163.854 544.007 163.854V159.854ZM545.397 161.244V143.919H541.397V161.244H545.397ZM545.397 143.919C545.397 144.059 545.357 144.452 545.011 144.821C544.646 145.209 544.214 145.283 544.007 145.283V141.283C543.403 141.283 542.666 141.475 542.095 142.082C541.543 142.67 541.397 143.381 541.397 143.919H545.397ZM544.007 145.283H547.032V141.283H544.007V145.283ZM547.032 145.283H550.322V141.283H547.032V145.283ZM550.322 154.197C552.989 154.197 554.948 152.029 554.948 149.464H550.948C550.948 149.732 550.853 149.915 550.749 150.023C550.648 150.128 550.51 150.197 550.322 150.197V154.197ZM554.948 149.464C554.948 146.926 553.014 144.705 550.322 144.705V148.705C550.496 148.705 550.633 148.77 550.74 148.882C550.851 149 550.948 149.194 550.948 149.464H554.948ZM550.322 144.705H547.032V148.705H550.322V144.705ZM545.032 146.705V152.197H549.032V146.705H545.032ZM547.032 154.197H550.322V150.197H547.032V154.197Z" fill="white" mask="url(#path-5-outside-1_27410_24464)"/>
<rect x="608.23" y="107.282" width="146.939" height="146.939" fill="#326CE5" fill-opacity="0.1"/>
<rect x="608.23" y="107.282" width="146.939" height="146.939" stroke="#326CE5" stroke-width="6.12247"/>
<rect x="586.802" y="180.752" width="36.7348" height="36.7348" rx="18.3674" fill="#326CE5"/>
<g clip-path="url(#clip0_27410_24464)">
<path d="M614.178 195.604L607.263 190.614C606.283 189.906 604.96 189.906 603.98 190.614L597.066 195.604C596.076 196.318 595.662 197.59 596.041 198.75L598.676 206.805C599.053 207.957 600.128 208.737 601.341 208.737H609.902C611.115 208.737 612.19 207.957 612.568 206.805L615.202 198.75C615.581 197.59 615.167 196.318 614.178 195.604Z" fill="white" fill-opacity="0.1" stroke="white" stroke-width="0.623256"/>
<path fill-rule="evenodd" clip-rule="evenodd" d="M596.311 205.821C595.045 205.222 594.511 203.722 595.116 202.47C595.407 201.869 595.928 201.407 596.563 201.186C597.198 200.964 597.897 201.001 598.504 201.289C599.77 201.888 600.304 203.388 599.699 204.64C599.093 205.891 597.576 206.42 596.311 205.821V205.821Z" fill="white"/>
<path d="M597.382 202.048C597.353 202.049 597.325 202.056 597.3 202.069L596.178 202.599C596.149 202.612 596.123 202.632 596.103 202.657C596.083 202.682 596.069 202.71 596.062 202.741L595.785 203.932C595.779 203.959 595.778 203.988 595.783 204.015C595.788 204.043 595.799 204.07 595.814 204.093C595.818 204.099 595.822 204.104 595.826 204.11L596.603 205.064C596.623 205.089 596.648 205.109 596.677 205.123C596.707 205.137 596.738 205.144 596.771 205.144L598.016 205.143C598.048 205.143 598.08 205.136 598.109 205.123C598.138 205.109 598.163 205.089 598.183 205.064L598.959 204.11C598.979 204.085 598.994 204.056 599.001 204.025C599.008 203.994 599.008 203.962 599.001 203.932L598.724 202.741C598.716 202.71 598.702 202.681 598.682 202.657C598.662 202.632 598.637 202.612 598.608 202.598L597.486 202.069C597.453 202.053 597.418 202.046 597.382 202.048V202.048Z" fill="#326CE5"/>
<path d="M597.392 202.453C597.354 202.453 597.324 202.486 597.324 202.527C597.324 202.528 597.325 202.528 597.325 202.529C597.325 202.535 597.324 202.541 597.324 202.546C597.325 202.57 597.33 202.587 597.334 202.609C597.339 202.655 597.344 202.694 597.341 202.73C597.338 202.743 597.328 202.755 597.319 202.764L597.318 202.792C597.277 202.795 597.237 202.801 597.196 202.81C597.022 202.85 596.872 202.938 596.758 203.058C596.75 203.053 596.737 203.044 596.733 203.041C596.721 203.043 596.709 203.047 596.694 203.037C596.663 203.017 596.636 202.99 596.603 202.957C596.588 202.941 596.577 202.926 596.559 202.91C596.555 202.907 596.548 202.902 596.544 202.898C596.53 202.887 596.513 202.881 596.497 202.881C596.476 202.88 596.457 202.888 596.444 202.904C596.421 202.933 596.428 202.977 596.46 203.002C596.46 203.003 596.461 203.003 596.461 203.003C596.466 203.007 596.471 203.011 596.475 203.014C596.494 203.028 596.512 203.035 596.531 203.046C596.571 203.071 596.604 203.091 596.631 203.116C596.641 203.126 596.643 203.146 596.644 203.154L596.666 203.173C596.55 203.344 596.497 203.556 596.529 203.772L596.5 203.78C596.493 203.789 596.483 203.804 596.472 203.809C596.437 203.82 596.398 203.823 596.351 203.828C596.329 203.83 596.31 203.829 596.287 203.833C596.282 203.834 596.275 203.836 596.269 203.838C596.269 203.838 596.269 203.838 596.268 203.838C596.268 203.838 596.268 203.838 596.267 203.838C596.228 203.847 596.202 203.883 596.211 203.919C596.219 203.954 596.257 203.976 596.297 203.967C596.297 203.967 596.298 203.967 596.298 203.967C596.299 203.967 596.299 203.967 596.299 203.967C596.305 203.966 596.312 203.964 596.317 203.963C596.34 203.957 596.356 203.948 596.377 203.94C596.421 203.924 596.458 203.911 596.494 203.906C596.509 203.905 596.525 203.915 596.533 203.92L596.562 203.915C596.629 204.121 596.77 204.288 596.949 204.393L596.937 204.422C596.941 204.433 596.946 204.448 596.943 204.459C596.93 204.493 596.908 204.528 596.882 204.567C596.87 204.585 596.857 204.599 596.846 204.62C596.843 204.625 596.84 204.633 596.838 204.638C596.82 204.675 596.833 204.717 596.866 204.732C596.899 204.748 596.941 204.732 596.959 204.695C596.959 204.695 596.959 204.695 596.959 204.695C596.959 204.695 596.959 204.695 596.959 204.695C596.961 204.689 596.965 204.683 596.967 204.678C596.977 204.656 596.98 204.638 596.987 204.617C597.004 204.573 597.014 204.527 597.039 204.498C597.045 204.49 597.056 204.487 597.067 204.484L597.083 204.456C597.238 204.516 597.413 204.532 597.587 204.492C597.627 204.483 597.665 204.472 597.702 204.458C597.707 204.466 597.714 204.48 597.717 204.484C597.728 204.487 597.741 204.489 597.751 204.504C597.769 204.535 597.782 204.572 597.797 204.616C597.804 204.637 597.807 204.655 597.816 204.677C597.819 204.682 597.822 204.688 597.825 204.694C597.843 204.73 597.884 204.747 597.918 204.731C597.951 204.715 597.963 204.673 597.946 204.637C597.944 204.632 597.94 204.624 597.937 204.619C597.926 204.598 597.914 204.584 597.901 204.566C597.876 204.527 597.855 204.494 597.842 204.461C597.836 204.444 597.843 204.433 597.847 204.422C597.844 204.419 597.839 204.402 597.836 204.395C598.022 204.286 598.159 204.113 598.223 203.913C598.232 203.915 598.247 203.917 598.252 203.918C598.262 203.912 598.271 203.903 598.289 203.905C598.325 203.91 598.362 203.923 598.406 203.939C598.427 203.946 598.443 203.955 598.466 203.962C598.471 203.963 598.478 203.964 598.484 203.965C598.484 203.965 598.485 203.966 598.485 203.966C598.485 203.966 598.486 203.966 598.486 203.966C598.526 203.974 598.565 203.953 598.573 203.917C598.581 203.882 598.556 203.846 598.516 203.836C598.51 203.835 598.502 203.833 598.496 203.832C598.473 203.827 598.454 203.829 598.432 203.827C598.385 203.822 598.346 203.818 598.312 203.807C598.298 203.802 598.288 203.785 598.283 203.778L598.256 203.771C598.27 203.67 598.266 203.565 598.242 203.461C598.217 203.355 598.174 203.258 598.116 203.173C598.123 203.167 598.136 203.155 598.14 203.152C598.141 203.14 598.14 203.128 598.152 203.114C598.179 203.09 598.212 203.069 598.252 203.045C598.271 203.034 598.289 203.027 598.308 203.013C598.312 203.01 598.318 203.005 598.323 203.001C598.355 202.976 598.362 202.932 598.339 202.903C598.316 202.874 598.271 202.872 598.239 202.897C598.234 202.901 598.228 202.905 598.224 202.909C598.206 202.924 598.195 202.939 598.18 202.955C598.147 202.989 598.119 203.016 598.089 203.036C598.076 203.044 598.057 203.041 598.048 203.041L598.023 203.059C597.877 202.908 597.679 202.811 597.466 202.792C597.465 202.784 597.464 202.768 597.464 202.763C597.455 202.755 597.445 202.747 597.442 202.73C597.439 202.694 597.444 202.655 597.45 202.609C597.453 202.587 597.458 202.57 597.459 202.546C597.459 202.541 597.459 202.533 597.459 202.527C597.459 202.486 597.429 202.453 597.392 202.453H597.392ZM597.307 202.968L597.288 203.317L597.286 203.317C597.285 203.348 597.259 203.373 597.227 203.373C597.214 203.373 597.202 203.369 597.192 203.362L597.192 203.362L596.903 203.16C596.992 203.074 597.105 203.01 597.236 202.981C597.26 202.975 597.284 202.971 597.307 202.968ZM597.476 202.968C597.629 202.987 597.77 203.055 597.878 203.16L597.591 203.361L597.59 203.361C597.565 203.379 597.529 203.375 597.509 203.35C597.501 203.34 597.497 203.328 597.496 203.316L597.496 203.316L597.476 202.968ZM596.798 203.29L597.062 203.523L597.061 203.525C597.085 203.545 597.089 203.581 597.069 203.605C597.061 203.615 597.05 203.622 597.038 203.625L597.038 203.626L596.7 203.723C596.683 203.567 596.72 203.416 596.798 203.29ZM597.983 203.29C598.022 203.353 598.052 203.423 598.07 203.499C598.087 203.574 598.091 203.649 598.084 203.722L597.745 203.625L597.744 203.624C597.714 203.615 597.695 203.585 597.702 203.554C597.705 203.542 597.712 203.531 597.721 203.523L597.721 203.522L597.983 203.29H597.983ZM597.337 203.541H597.445L597.513 203.624L597.489 203.728L597.392 203.774L597.294 203.728L597.27 203.624L597.337 203.541ZM597.684 203.825C597.688 203.825 597.693 203.826 597.697 203.826L597.698 203.826L598.048 203.884C597.996 204.026 597.898 204.149 597.768 204.232L597.632 203.908L597.632 203.907C597.62 203.878 597.632 203.845 597.661 203.831C597.668 203.828 597.676 203.826 597.684 203.825H597.684ZM597.097 203.827C597.123 203.827 597.147 203.845 597.153 203.872C597.156 203.885 597.155 203.897 597.15 203.908L597.151 203.91L597.017 204.231C596.891 204.151 596.791 204.032 596.738 203.885L597.084 203.827L597.085 203.828C597.089 203.827 597.093 203.827 597.097 203.827V203.827ZM597.389 203.967C597.399 203.967 597.408 203.969 597.417 203.973C597.429 203.979 597.438 203.988 597.444 203.998H597.445L597.616 204.303C597.594 204.311 597.571 204.317 597.547 204.322C597.417 204.352 597.287 204.343 597.169 204.303L597.339 203.998H597.339C597.35 203.979 597.369 203.968 597.389 203.967Z" fill="white" stroke="white" stroke-width="0.0311628"/>
</g>
<defs>
<clipPath id="clip0_27410_24464">
<rect width="22.0409" height="22.0409" fill="white" transform="translate(594.149 188.099)"/>
</clipPath>
</defs>
</svg>
