<svg width="811" height="362" viewBox="0 0 811 362" fill="none" xmlns="http://www.w3.org/2000/svg">
<path d="M596.5 174.64L247.44 174.64" stroke="#326CE5" stroke-width="12.0967" stroke-dasharray="8.06 8.06"/>
<path d="M259.21 155.395L219.608 174.701L259.21 195L246.028 175.023L259.21 155.395Z" fill="#CCCCCC"/>
<mask id="path-3-outside-1_27349_21490" maskUnits="userSpaceOnUse" x="223.696" y="124.334" width="94" height="28" fill="black">
<rect fill="white" x="223.696" y="124.334" width="94" height="28"/>
<path d="M236.946 137.963C238.568 138.916 239.443 140.486 239.443 142.314C239.443 145.635 236.998 147.694 232.982 147.694C228.991 147.694 226.52 145.635 226.52 142.314C226.52 140.486 227.421 138.916 229.017 137.963C227.859 137.165 227.138 135.904 227.138 134.23C227.138 130.755 229.841 128.979 232.982 128.979C236.148 128.979 238.851 130.755 238.851 134.23C238.851 135.904 238.105 137.165 236.946 137.963ZM232.982 132.3C231.643 132.3 230.665 133.098 230.665 134.436C230.665 135.724 231.643 136.547 232.982 136.547C234.32 136.547 235.299 135.724 235.299 134.436C235.299 133.098 234.32 132.3 232.982 132.3ZM232.982 144.348C234.681 144.348 235.917 143.472 235.917 141.876C235.917 140.28 234.681 139.379 232.982 139.379C231.283 139.379 230.047 140.28 230.047 141.876C230.047 143.472 231.283 144.348 232.982 144.348ZM248.437 147.694C243.829 147.694 241.229 143.884 241.229 138.324C241.229 132.763 243.829 128.979 248.437 128.979C253.02 128.979 255.645 132.763 255.645 138.324C255.645 143.884 253.02 147.694 248.437 147.694ZM248.437 144.245C250.831 144.245 252.093 142.134 252.093 138.324C252.093 134.514 250.831 132.428 248.437 132.428C246.017 132.428 244.756 134.514 244.756 138.324C244.756 142.134 246.017 144.245 248.437 144.245ZM258.526 149.908H257.908C257.599 149.908 257.444 149.728 257.573 149.419L267.536 127.048C267.639 126.816 267.768 126.739 267.999 126.739H268.617C268.926 126.739 269.081 126.919 268.952 127.228L258.989 149.599C258.886 149.831 258.757 149.908 258.526 149.908ZM281.938 129.313C282.35 129.313 282.556 129.545 282.556 129.931V132.119C282.556 132.506 282.35 132.712 281.938 132.712H278.205V146.742C278.205 147.128 277.999 147.334 277.613 147.334H275.296C274.884 147.334 274.678 147.128 274.678 146.742V132.712H270.945C270.559 132.712 270.327 132.506 270.327 132.119V129.931C270.327 129.545 270.559 129.313 270.945 129.313H278.205H281.938ZM292.08 147.694C286.622 147.694 282.683 143.601 282.683 138.324C282.683 133.072 286.622 128.979 292.08 128.979C296.096 128.979 299.545 131.45 300.652 135.08C300.755 135.492 300.524 135.749 300.112 135.749H297.615C297.28 135.749 297.074 135.595 296.92 135.286C296.122 133.535 294.242 132.428 292.08 132.428C288.553 132.428 286.236 134.874 286.236 138.324C286.236 141.799 288.553 144.245 292.08 144.245C294.242 144.245 296.122 143.138 296.92 141.387C297.074 141.078 297.28 140.898 297.615 140.898H300.112C300.524 140.898 300.755 141.155 300.652 141.542C299.571 145.171 296.122 147.694 292.08 147.694ZM309.61 129.313C313.008 129.313 315.685 131.991 315.685 135.312C315.685 138.607 313.008 141.284 309.61 141.284H306.418V146.742C306.418 147.128 306.212 147.334 305.8 147.334H303.483C303.097 147.334 302.891 147.128 302.891 146.742V129.931C302.891 129.545 303.097 129.313 303.483 129.313H306.418H309.61ZM309.61 137.963C311.052 137.963 312.159 136.805 312.159 135.312C312.159 133.819 311.052 132.634 309.61 132.634H306.418V137.963H309.61Z"/>
</mask>
<path d="M236.946 137.963C238.568 138.916 239.443 140.486 239.443 142.314C239.443 145.635 236.998 147.694 232.982 147.694C228.991 147.694 226.52 145.635 226.52 142.314C226.52 140.486 227.421 138.916 229.017 137.963C227.859 137.165 227.138 135.904 227.138 134.23C227.138 130.755 229.841 128.979 232.982 128.979C236.148 128.979 238.851 130.755 238.851 134.23C238.851 135.904 238.105 137.165 236.946 137.963ZM232.982 132.3C231.643 132.3 230.665 133.098 230.665 134.436C230.665 135.724 231.643 136.547 232.982 136.547C234.32 136.547 235.299 135.724 235.299 134.436C235.299 133.098 234.32 132.3 232.982 132.3ZM232.982 144.348C234.681 144.348 235.917 143.472 235.917 141.876C235.917 140.28 234.681 139.379 232.982 139.379C231.283 139.379 230.047 140.28 230.047 141.876C230.047 143.472 231.283 144.348 232.982 144.348ZM248.437 147.694C243.829 147.694 241.229 143.884 241.229 138.324C241.229 132.763 243.829 128.979 248.437 128.979C253.02 128.979 255.645 132.763 255.645 138.324C255.645 143.884 253.02 147.694 248.437 147.694ZM248.437 144.245C250.831 144.245 252.093 142.134 252.093 138.324C252.093 134.514 250.831 132.428 248.437 132.428C246.017 132.428 244.756 134.514 244.756 138.324C244.756 142.134 246.017 144.245 248.437 144.245ZM258.526 149.908H257.908C257.599 149.908 257.444 149.728 257.573 149.419L267.536 127.048C267.639 126.816 267.768 126.739 267.999 126.739H268.617C268.926 126.739 269.081 126.919 268.952 127.228L258.989 149.599C258.886 149.831 258.757 149.908 258.526 149.908ZM281.938 129.313C282.35 129.313 282.556 129.545 282.556 129.931V132.119C282.556 132.506 282.35 132.712 281.938 132.712H278.205V146.742C278.205 147.128 277.999 147.334 277.613 147.334H275.296C274.884 147.334 274.678 147.128 274.678 146.742V132.712H270.945C270.559 132.712 270.327 132.506 270.327 132.119V129.931C270.327 129.545 270.559 129.313 270.945 129.313H278.205H281.938ZM292.08 147.694C286.622 147.694 282.683 143.601 282.683 138.324C282.683 133.072 286.622 128.979 292.08 128.979C296.096 128.979 299.545 131.45 300.652 135.08C300.755 135.492 300.524 135.749 300.112 135.749H297.615C297.28 135.749 297.074 135.595 296.92 135.286C296.122 133.535 294.242 132.428 292.08 132.428C288.553 132.428 286.236 134.874 286.236 138.324C286.236 141.799 288.553 144.245 292.08 144.245C294.242 144.245 296.122 143.138 296.92 141.387C297.074 141.078 297.28 140.898 297.615 140.898H300.112C300.524 140.898 300.755 141.155 300.652 141.542C299.571 145.171 296.122 147.694 292.08 147.694ZM309.61 129.313C313.008 129.313 315.685 131.991 315.685 135.312C315.685 138.607 313.008 141.284 309.61 141.284H306.418V146.742C306.418 147.128 306.212 147.334 305.8 147.334H303.483C303.097 147.334 302.891 147.128 302.891 146.742V129.931C302.891 129.545 303.097 129.313 303.483 129.313H306.418H309.61ZM309.61 137.963C311.052 137.963 312.159 136.805 312.159 135.312C312.159 133.819 311.052 132.634 309.61 132.634H306.418V137.963H309.61Z" fill="#000D12"/>
<path d="M236.946 137.963L235.812 136.316L233.226 138.098L235.933 139.688L236.946 137.963ZM229.017 137.963L230.042 139.681L232.718 138.084L230.152 136.316L229.017 137.963ZM235.933 139.688C236.938 140.278 237.443 141.189 237.443 142.314H241.443C241.443 139.783 240.198 137.554 237.959 136.239L235.933 139.688ZM237.443 142.314C237.443 143.445 237.049 144.203 236.436 144.714C235.782 145.261 234.668 145.694 232.982 145.694V149.694C235.311 149.694 237.429 149.097 239.001 147.784C240.615 146.436 241.443 144.504 241.443 142.314H237.443ZM232.982 145.694C231.311 145.694 230.195 145.263 229.534 144.713C228.916 144.198 228.52 143.438 228.52 142.314H224.52C224.52 144.511 225.359 146.441 226.975 147.786C228.547 149.096 230.663 149.694 232.982 149.694V145.694ZM228.52 142.314C228.52 141.205 229.038 140.28 230.042 139.681L227.992 136.246C225.804 137.552 224.52 139.768 224.52 142.314H228.52ZM230.152 136.316C229.545 135.898 229.138 135.257 229.138 134.23H225.138C225.138 136.55 226.173 138.433 227.883 139.61L230.152 136.316ZM229.138 134.23C229.138 133.065 229.566 132.328 230.152 131.846C230.787 131.324 231.766 130.979 232.982 130.979V126.979C231.057 126.979 229.114 127.521 227.612 128.757C226.062 130.031 225.138 131.921 225.138 134.23H229.138ZM232.982 130.979C234.213 130.979 235.199 131.326 235.836 131.848C236.424 132.33 236.851 133.065 236.851 134.23H240.851C240.851 131.921 239.927 130.03 238.372 128.755C236.866 127.52 234.916 126.979 232.982 126.979V130.979ZM236.851 134.23C236.851 135.233 236.439 135.884 235.812 136.316L238.081 139.61C239.77 138.446 240.851 136.575 240.851 134.23H236.851ZM232.982 130.3C231.924 130.3 230.839 130.617 229.991 131.372C229.117 132.151 228.665 133.247 228.665 134.436H232.665C232.665 134.348 232.68 134.318 232.677 134.325C232.673 134.334 232.663 134.349 232.651 134.36C232.627 134.381 232.701 134.3 232.982 134.3V130.3ZM228.665 134.436C228.665 135.62 229.131 136.702 229.991 137.468C230.829 138.214 231.908 138.547 232.982 138.547V134.547C232.716 134.547 232.637 134.468 232.651 134.481C232.658 134.487 232.667 134.499 232.672 134.51C232.676 134.52 232.665 134.502 232.665 134.436H228.665ZM232.982 138.547C234.055 138.547 235.134 138.214 235.972 137.468C236.833 136.702 237.299 135.62 237.299 134.436H233.299C233.299 134.502 233.287 134.52 233.292 134.51C233.297 134.499 233.306 134.487 233.312 134.481C233.326 134.468 233.247 134.547 232.982 134.547V138.547ZM237.299 134.436C237.299 133.247 236.847 132.151 235.972 131.372C235.124 130.617 234.039 130.3 232.982 130.3V134.3C233.263 134.3 233.336 134.381 233.312 134.36C233.3 134.349 233.29 134.334 233.286 134.325C233.283 134.318 233.299 134.348 233.299 134.436H237.299ZM232.982 146.348C234.15 146.348 235.368 146.048 236.338 145.27C237.361 144.45 237.917 143.244 237.917 141.876H233.917C233.917 142.013 233.891 142.076 233.883 142.093C233.876 142.109 233.865 142.126 233.835 142.151C233.761 142.209 233.512 142.348 232.982 142.348V146.348ZM237.917 141.876C237.917 140.512 237.363 139.305 236.35 138.479C235.383 137.691 234.163 137.379 232.982 137.379V141.379C233.499 141.379 233.747 141.517 233.823 141.58C233.857 141.607 233.871 141.629 233.881 141.65C233.891 141.673 233.917 141.739 233.917 141.876H237.917ZM232.982 137.379C231.8 137.379 230.58 137.691 229.614 138.479C228.6 139.305 228.047 140.512 228.047 141.876H232.047C232.047 141.739 232.072 141.673 232.083 141.65C232.093 141.629 232.107 141.607 232.141 141.58C232.217 141.517 232.464 141.379 232.982 141.379V137.379ZM228.047 141.876C228.047 143.244 228.603 144.45 229.625 145.27C230.595 146.048 231.813 146.348 232.982 146.348V142.348C232.451 142.348 232.202 142.209 232.129 142.151C232.098 142.126 232.088 142.109 232.08 142.093C232.072 142.076 232.047 142.013 232.047 141.876H228.047ZM248.437 145.694C246.755 145.694 245.552 145.032 244.71 143.9C243.817 142.701 243.229 140.823 243.229 138.324H239.229C239.229 141.385 239.941 144.192 241.501 146.288C243.11 148.451 245.511 149.694 248.437 149.694V145.694ZM243.229 138.324C243.229 135.824 243.817 133.955 244.707 132.763C245.547 131.638 246.75 130.979 248.437 130.979V126.979C245.516 126.979 243.115 128.211 241.503 130.369C239.941 132.46 239.229 135.262 239.229 138.324H243.229ZM248.437 130.979C250.109 130.979 251.314 131.636 252.159 132.765C253.053 133.958 253.645 135.828 253.645 138.324H257.645C257.645 135.258 256.925 132.456 255.36 130.367C253.747 128.213 251.348 126.979 248.437 126.979V130.979ZM253.645 138.324C253.645 140.819 253.053 142.697 252.157 143.898C251.309 145.034 250.104 145.694 248.437 145.694V149.694C251.353 149.694 253.752 148.449 255.363 146.29C256.925 144.196 257.645 141.389 257.645 138.324H253.645ZM248.437 146.245C250.343 146.245 251.897 145.344 252.869 143.757C253.759 142.302 254.093 140.394 254.093 138.324H250.093C250.093 140.063 249.795 141.116 249.457 141.669C249.199 142.09 248.925 142.245 248.437 142.245V146.245ZM254.093 138.324C254.093 136.253 253.76 134.349 252.866 132.898C251.889 131.314 250.333 130.428 248.437 130.428V134.428C248.935 134.428 249.207 134.586 249.46 134.996C249.795 135.54 250.093 136.584 250.093 138.324H254.093ZM248.437 130.428C246.537 130.428 244.972 131.306 243.989 132.894C243.089 134.347 242.756 136.254 242.756 138.324H246.756C246.756 136.583 247.054 135.542 247.389 135C247.642 134.593 247.918 134.428 248.437 134.428V130.428ZM242.756 138.324C242.756 140.394 243.089 142.304 243.986 143.761C244.964 145.351 246.527 146.245 248.437 146.245V142.245C247.928 142.245 247.649 142.082 247.392 141.665C247.053 141.114 246.756 140.063 246.756 138.324H242.756ZM257.573 149.419L255.746 148.606L255.736 148.628L255.727 148.65L257.573 149.419ZM267.536 127.048L269.363 127.862L269.364 127.86L267.536 127.048ZM268.952 127.228L270.779 128.042L270.789 128.02L270.798 127.997L268.952 127.228ZM258.989 149.599L257.162 148.786L257.161 148.787L258.989 149.599ZM258.526 147.908H257.908V151.908H258.526V147.908ZM257.908 147.908C258.066 147.908 258.718 147.952 259.191 148.6C259.704 149.302 259.498 149.998 259.419 150.188L255.727 148.65C255.519 149.149 255.326 150.09 255.962 150.96C256.557 151.775 257.441 151.908 257.908 151.908V147.908ZM259.4 150.233L269.363 127.862L265.709 126.234L255.746 148.606L259.4 150.233ZM269.364 127.86C269.329 127.938 269.181 128.241 268.812 128.482C268.438 128.725 268.093 128.739 267.999 128.739V124.739C267.674 124.739 267.148 124.791 266.627 125.131C266.109 125.469 265.846 125.927 265.708 126.236L269.364 127.86ZM267.999 128.739H268.617V124.739H267.999V128.739ZM268.617 128.739C268.459 128.739 267.807 128.695 267.334 128.048C266.821 127.346 267.026 126.649 267.106 126.459L270.798 127.997C271.006 127.498 271.199 126.557 270.563 125.688C269.968 124.873 269.084 124.739 268.617 124.739V128.739ZM267.125 126.415L257.162 148.786L260.816 150.413L270.779 128.042L267.125 126.415ZM257.161 148.787C257.196 148.71 257.344 148.406 257.713 148.165C258.087 147.922 258.432 147.908 258.526 147.908V151.908C258.851 151.908 259.377 151.856 259.898 151.516C260.416 151.178 260.679 150.721 260.817 150.412L257.161 148.787ZM278.205 132.712V130.712H276.205V132.712H278.205ZM274.678 132.712H276.678V130.712H274.678V132.712ZM281.938 131.313C281.773 131.313 281.343 131.26 280.965 130.87C280.598 130.491 280.556 130.078 280.556 129.931H284.556C284.556 129.399 284.41 128.677 283.837 128.085C283.253 127.483 282.514 127.313 281.938 127.313V131.313ZM280.556 129.931V132.119H284.556V129.931H280.556ZM280.556 132.119C280.556 131.971 280.6 131.52 281.01 131.124C281.408 130.738 281.835 130.712 281.938 130.712V134.712C282.452 134.712 283.189 134.582 283.793 133.997C284.408 133.401 284.556 132.654 284.556 132.119H280.556ZM281.938 130.712H278.205V134.712H281.938V130.712ZM276.205 132.712V146.742H280.205V132.712H276.205ZM276.205 146.742C276.205 146.594 276.249 146.159 276.64 145.768C277.03 145.378 277.465 145.334 277.613 145.334V149.334C278.147 149.334 278.878 149.187 279.468 148.597C280.058 148.007 280.205 147.276 280.205 146.742H276.205ZM277.613 145.334H275.296V149.334H277.613V145.334ZM275.296 145.334C275.399 145.334 275.826 145.36 276.224 145.746C276.633 146.143 276.678 146.593 276.678 146.742H272.678C272.678 147.276 272.826 148.023 273.441 148.619C274.045 149.204 274.782 149.334 275.296 149.334V145.334ZM276.678 146.742V132.712H272.678V146.742H276.678ZM274.678 130.712H270.945V134.712H274.678V130.712ZM270.945 130.712C271.091 130.712 271.489 130.753 271.861 131.103C272.253 131.471 272.327 131.907 272.327 132.119H268.327C268.327 132.718 268.518 133.451 269.122 134.018C269.707 134.567 270.413 134.712 270.945 134.712V130.712ZM272.327 132.119V129.931H268.327V132.119H272.327ZM272.327 129.931C272.327 130.139 272.257 130.54 271.906 130.892C271.554 131.243 271.153 131.313 270.945 131.313V127.313C270.351 127.313 269.641 127.499 269.077 128.063C268.514 128.627 268.327 129.337 268.327 129.931H272.327ZM270.945 131.313H278.205V127.313H270.945V131.313ZM278.205 131.313H281.938V127.313H278.205V131.313ZM300.652 135.08L302.593 134.595L302.58 134.545L302.565 134.497L300.652 135.08ZM296.92 135.286L295.1 136.116L295.115 136.148L295.131 136.18L296.92 135.286ZM296.92 141.387L295.131 140.493L295.115 140.525L295.1 140.558L296.92 141.387ZM300.652 141.542L302.569 142.113L302.577 142.085L302.585 142.057L300.652 141.542ZM292.08 145.694C287.745 145.694 284.683 142.515 284.683 138.324H280.683C280.683 144.688 285.5 149.694 292.08 149.694V145.694ZM284.683 138.324C284.683 134.162 287.741 130.979 292.08 130.979V126.979C285.503 126.979 280.683 131.982 280.683 138.324H284.683ZM292.08 130.979C295.276 130.979 297.906 132.931 298.739 135.663L302.565 134.497C301.185 129.969 296.915 126.979 292.08 126.979V130.979ZM298.712 135.565C298.655 135.335 298.619 134.792 299.039 134.289C299.436 133.813 299.928 133.749 300.112 133.749V137.749C300.708 137.749 301.522 137.557 302.112 136.849C302.724 136.114 302.753 135.237 302.593 134.595L298.712 135.565ZM300.112 133.749H297.615V137.749H300.112V133.749ZM297.615 133.749C297.773 133.749 298.051 133.792 298.331 133.984C298.587 134.16 298.691 134.357 298.708 134.391L295.131 136.18C295.303 136.524 295.587 136.953 296.069 137.283C296.573 137.629 297.122 137.749 297.615 137.749V133.749ZM298.739 134.456C297.567 131.885 294.9 130.428 292.08 130.428V134.428C293.584 134.428 294.676 135.185 295.1 136.116L298.739 134.456ZM292.08 130.428C289.838 130.428 287.842 131.216 286.406 132.684C284.975 134.146 284.236 136.144 284.236 138.324H288.236C288.236 137.053 288.656 136.104 289.265 135.481C289.869 134.864 290.795 134.428 292.08 134.428V130.428ZM284.236 138.324C284.236 140.512 284.972 142.517 286.404 143.984C287.84 145.457 289.838 146.245 292.08 146.245V142.245C290.795 142.245 289.87 141.81 289.267 141.191C288.658 140.567 288.236 139.611 288.236 138.324H284.236ZM292.08 146.245C294.9 146.245 297.567 144.788 298.739 142.217L295.1 140.558C294.676 141.488 293.584 142.245 292.08 142.245V146.245ZM298.708 142.282C298.704 142.291 298.619 142.464 298.392 142.632C298.13 142.827 297.838 142.898 297.615 142.898V138.898C297.057 138.898 296.494 139.059 296.007 139.421C295.555 139.757 295.29 140.175 295.131 140.493L298.708 142.282ZM297.615 142.898H300.112V138.898H297.615V142.898ZM300.112 142.898C299.929 142.898 299.451 142.836 299.057 142.377C298.628 141.877 298.643 141.313 298.72 141.026L302.585 142.057C302.764 141.384 302.715 140.498 302.094 139.773C301.507 139.088 300.707 138.898 300.112 138.898V142.898ZM298.736 140.971C297.922 143.704 295.289 145.694 292.08 145.694V149.694C296.954 149.694 301.221 146.639 302.569 142.113L298.736 140.971ZM306.418 141.284V139.284H304.418V141.284H306.418ZM306.418 132.634V130.634H304.418V132.634H306.418ZM306.418 137.963H304.418V139.963H306.418V137.963ZM309.61 131.313C311.92 131.313 313.685 133.112 313.685 135.312H317.685C317.685 130.869 314.096 127.313 309.61 127.313V131.313ZM313.685 135.312C313.685 137.48 311.926 139.284 309.61 139.284V143.284C314.09 143.284 317.685 139.734 317.685 135.312H313.685ZM309.61 139.284H306.418V143.284H309.61V139.284ZM304.418 141.284V146.742H308.418V141.284H304.418ZM304.418 146.742C304.418 146.593 304.462 146.143 304.872 145.746C305.27 145.36 305.697 145.334 305.8 145.334V149.334C306.314 149.334 307.051 149.204 307.655 148.619C308.27 148.023 308.418 147.276 308.418 146.742H304.418ZM305.8 145.334H303.483V149.334H305.8V145.334ZM303.483 145.334C303.631 145.334 304.066 145.378 304.456 145.768C304.847 146.159 304.891 146.594 304.891 146.742H300.891C300.891 147.276 301.038 148.007 301.628 148.597C302.218 149.187 302.949 149.334 303.483 149.334V145.334ZM304.891 146.742V129.931H300.891V146.742H304.891ZM304.891 129.931C304.891 130.077 304.849 130.475 304.5 130.847C304.132 131.239 303.696 131.313 303.483 131.313V127.313C302.884 127.313 302.152 127.504 301.584 128.108C301.035 128.693 300.891 129.399 300.891 129.931H304.891ZM303.483 131.313H306.418V127.313H303.483V131.313ZM306.418 131.313H309.61V127.313H306.418V131.313ZM309.61 139.963C312.233 139.963 314.159 137.831 314.159 135.312H310.159C310.159 135.556 310.072 135.719 309.982 135.813C309.895 135.903 309.776 135.963 309.61 135.963V139.963ZM314.159 135.312C314.159 132.819 312.258 130.634 309.61 130.634V134.634C309.762 134.634 309.88 134.69 309.973 134.788C310.07 134.891 310.159 135.065 310.159 135.312H314.159ZM309.61 130.634H306.418V134.634H309.61V130.634ZM304.418 132.634V137.963H308.418V132.634H304.418ZM306.418 139.963H309.61V135.963H306.418V139.963Z" fill="white" mask="url(#path-3-outside-1_27349_21490)"/>
<rect x="73.7102" y="109.462" width="142.58" height="142.58" rx="21.7831" fill="#326CE5" fill-opacity="0.1"/>
<rect x="73.7102" y="109.462" width="142.58" height="142.58" rx="21.7831" stroke="#326CE5" stroke-width="5.94083"/>
<rect x="52.9175" y="180.752" width="35.645" height="35.645" rx="17.8225" fill="#326CE5"/>
<g clip-path="url(#clip0_27349_21490)">
<path d="M71.5701 199.075C71.4389 199.075 71.3325 199.181 71.3325 199.312V206.417C71.3325 206.548 71.4389 206.654 71.5701 206.654H81.3131C81.4444 206.654 81.5508 206.548 81.5508 206.417V199.312C81.5508 199.181 81.4444 199.075 81.3131 199.075H71.5701ZM73.4639 204.581C73.4639 204.724 73.3594 204.843 73.2341 204.843C73.1087 204.843 73.0042 204.724 73.0042 204.581V201.125C73.0042 200.982 73.1087 200.862 73.2341 200.862C73.3594 200.862 73.4639 200.982 73.4639 201.125V204.581ZM75.5953 204.581C75.5953 204.724 75.4909 204.843 75.3655 204.843C75.2401 204.843 75.1356 204.724 75.1356 204.581V201.125C75.1356 200.982 75.2401 200.862 75.3655 200.862C75.4909 200.862 75.5953 200.982 75.5953 201.125V204.581ZM77.7268 204.581C77.7268 204.724 77.6223 204.843 77.4969 204.843C77.3715 204.843 77.267 204.724 77.267 204.581V201.125C77.267 200.982 77.3715 200.862 77.4969 200.862C77.6223 200.862 77.7268 200.982 77.7268 201.125V204.581ZM79.8582 204.581C79.8582 204.724 79.7537 204.843 79.6283 204.843C79.5029 204.843 79.3984 204.724 79.3984 204.581V201.125C79.3984 200.982 79.5029 200.862 79.6283 200.862C79.7537 200.862 79.8582 200.982 79.8582 201.125V204.581Z" fill="white"/>
<path d="M65.8577 190.495C65.7265 190.495 65.6201 190.602 65.6201 190.733V197.837C65.6201 197.969 65.7265 198.075 65.8577 198.075H75.6007C75.732 198.075 75.8383 197.969 75.8383 197.837V190.733C75.8383 190.602 75.732 190.495 75.6007 190.495H65.8577ZM67.7515 196.025C67.7515 196.168 67.647 196.287 67.5217 196.287C67.3963 196.287 67.2918 196.168 67.2918 196.025V192.569C67.2918 192.426 67.3963 192.307 67.5217 192.307C67.647 192.307 67.7515 192.426 67.7515 192.569V196.025ZM69.9038 196.025C69.9038 196.168 69.7994 196.287 69.674 196.287C69.5486 196.287 69.4441 196.168 69.4441 196.025V192.569C69.4441 192.426 69.5486 192.307 69.674 192.307C69.7994 192.307 69.9038 192.426 69.9038 192.569V196.025ZM72.0352 196.025C72.0352 196.168 71.9308 196.287 71.8054 196.287C71.68 196.287 71.5755 196.168 71.5755 196.025V192.569C71.5755 192.426 71.68 192.307 71.8054 192.307C71.9308 192.307 72.0352 192.426 72.0352 192.569V196.025ZM74.1667 196.025C74.1667 196.168 74.0622 196.287 73.9368 196.287C73.8114 196.287 73.7069 196.168 73.7069 196.025V192.569C73.7069 192.426 73.8114 192.307 73.9368 192.307C74.0622 192.307 74.1667 192.426 74.1667 192.569V196.025Z" fill="white"/>
<path d="M60.1663 199.075C60.0351 199.075 59.9287 199.181 59.9287 199.312V206.417C59.9287 206.548 60.0351 206.654 60.1663 206.654H69.9093C70.0406 206.654 70.1469 206.548 70.1469 206.417V199.312C70.1469 199.181 70.0406 199.075 69.9093 199.075H60.1663ZM62.0601 204.581C62.0601 204.724 61.9556 204.843 61.8303 204.843C61.7049 204.843 61.6004 204.724 61.6004 204.581V201.125C61.6004 200.982 61.7049 200.862 61.8303 200.862C61.9556 200.862 62.0601 200.982 62.0601 201.125V204.581ZM64.1915 204.581C64.1915 204.724 64.0871 204.843 63.9617 204.843C63.8363 204.843 63.7318 204.724 63.7318 204.581V201.125C63.7318 200.982 63.8363 200.862 63.9617 200.862C64.0871 200.862 64.1915 200.982 64.1915 201.125V204.581ZM66.3229 204.581C66.3229 204.724 66.2185 204.843 66.0931 204.843C65.9677 204.843 65.8632 204.724 65.8632 204.581V201.125C65.8632 200.982 65.9677 200.862 66.0931 200.862C66.2185 200.862 66.3229 200.982 66.3229 201.125V204.581ZM68.4752 204.581C68.4752 204.724 68.3708 204.843 68.2454 204.843C68.12 204.843 68.0155 204.724 68.0155 204.581V201.125C68.0155 200.982 68.12 200.862 68.2454 200.862C68.3708 200.862 68.4752 200.982 68.4752 201.125V204.581Z" fill="white"/>
</g>
<rect x="594.71" y="109.462" width="142.58" height="142.58" rx="21.7831" fill="#326CE5" fill-opacity="0.1"/>
<rect x="594.71" y="109.462" width="142.58" height="142.58" rx="21.7831" stroke="#326CE5" stroke-width="5.94083"/>
<rect x="573.917" y="180.752" width="35.645" height="35.645" rx="17.8225" fill="#326CE5"/>
<g clip-path="url(#clip1_27349_21490)">
<path d="M592.57 199.075C592.439 199.075 592.333 199.181 592.333 199.312V206.417C592.333 206.548 592.439 206.654 592.57 206.654H602.313C602.444 206.654 602.551 206.548 602.551 206.417V199.312C602.551 199.181 602.444 199.075 602.313 199.075H592.57ZM594.464 204.581C594.464 204.724 594.359 204.843 594.234 204.843C594.109 204.843 594.004 204.724 594.004 204.581V201.125C594.004 200.982 594.109 200.862 594.234 200.862C594.359 200.862 594.464 200.982 594.464 201.125V204.581ZM596.595 204.581C596.595 204.724 596.491 204.843 596.365 204.843C596.24 204.843 596.136 204.724 596.136 204.581V201.125C596.136 200.982 596.24 200.862 596.365 200.862C596.491 200.862 596.595 200.982 596.595 201.125V204.581ZM598.727 204.581C598.727 204.724 598.622 204.843 598.497 204.843C598.372 204.843 598.267 204.724 598.267 204.581V201.125C598.267 200.982 598.372 200.862 598.497 200.862C598.622 200.862 598.727 200.982 598.727 201.125V204.581ZM600.858 204.581C600.858 204.724 600.754 204.843 600.628 204.843C600.503 204.843 600.398 204.724 600.398 204.581V201.125C600.398 200.982 600.503 200.862 600.628 200.862C600.754 200.862 600.858 200.982 600.858 201.125V204.581Z" fill="white"/>
<path d="M586.858 190.495C586.727 190.495 586.62 190.602 586.62 190.733V197.837C586.62 197.969 586.727 198.075 586.858 198.075H596.601C596.732 198.075 596.838 197.969 596.838 197.837V190.733C596.838 190.602 596.732 190.495 596.601 190.495H586.858ZM588.752 196.025C588.752 196.168 588.647 196.287 588.522 196.287C588.396 196.287 588.292 196.168 588.292 196.025V192.569C588.292 192.426 588.396 192.307 588.522 192.307C588.647 192.307 588.752 192.426 588.752 192.569V196.025ZM590.904 196.025C590.904 196.168 590.799 196.287 590.674 196.287C590.549 196.287 590.444 196.168 590.444 196.025V192.569C590.444 192.426 590.549 192.307 590.674 192.307C590.799 192.307 590.904 192.426 590.904 192.569V196.025ZM593.035 196.025C593.035 196.168 592.931 196.287 592.805 196.287C592.68 196.287 592.576 196.168 592.576 196.025V192.569C592.576 192.426 592.68 192.307 592.805 192.307C592.931 192.307 593.035 192.426 593.035 192.569V196.025ZM595.167 196.025C595.167 196.168 595.062 196.287 594.937 196.287C594.811 196.287 594.707 196.168 594.707 196.025V192.569C594.707 192.426 594.811 192.307 594.937 192.307C595.062 192.307 595.167 192.426 595.167 192.569V196.025Z" fill="white"/>
<path d="M581.166 199.075C581.035 199.075 580.929 199.181 580.929 199.312V206.417C580.929 206.548 581.035 206.654 581.166 206.654H590.909C591.041 206.654 591.147 206.548 591.147 206.417V199.312C591.147 199.181 591.041 199.075 590.909 199.075H581.166ZM583.06 204.581C583.06 204.724 582.956 204.843 582.83 204.843C582.705 204.843 582.6 204.724 582.6 204.581V201.125C582.6 200.982 582.705 200.862 582.83 200.862C582.956 200.862 583.06 200.982 583.06 201.125V204.581ZM585.192 204.581C585.192 204.724 585.087 204.843 584.962 204.843C584.836 204.843 584.732 204.724 584.732 204.581V201.125C584.732 200.982 584.836 200.862 584.962 200.862C585.087 200.862 585.192 200.982 585.192 201.125V204.581ZM587.323 204.581C587.323 204.724 587.218 204.843 587.093 204.843C586.968 204.843 586.863 204.724 586.863 204.581V201.125C586.863 200.982 586.968 200.862 587.093 200.862C587.218 200.862 587.323 200.982 587.323 201.125V204.581ZM589.475 204.581C589.475 204.724 589.371 204.843 589.245 204.843C589.12 204.843 589.016 204.724 589.016 204.581V201.125C589.016 200.982 589.12 200.862 589.245 200.862C589.371 200.862 589.475 200.982 589.475 201.125V204.581Z" fill="white"/>
</g>
<path fill-rule="evenodd" clip-rule="evenodd" d="M387.845 211.999C367.964 202.48 359.562 178.644 369.08 158.76C373.651 149.211 381.827 141.869 391.81 138.35C401.793 134.83 412.765 135.421 422.313 139.992C442.195 149.511 450.596 173.347 441.078 193.231C431.56 213.115 407.727 221.518 387.845 211.999V211.999Z" fill="#326CE5"/>
<path d="M404.701 151.52C404.253 151.542 403.813 151.653 403.409 151.846L385.786 160.267C385.33 160.485 384.929 160.802 384.613 161.194C384.297 161.587 384.075 162.045 383.962 162.534L379.614 181.449C379.514 181.885 379.503 182.337 379.581 182.777C379.66 183.217 379.827 183.637 380.072 184.012C380.131 184.104 380.195 184.193 380.264 184.278L392.462 199.445C392.778 199.837 393.178 200.154 393.635 200.372C394.091 200.59 394.59 200.703 395.097 200.702L414.659 200.698C415.165 200.698 415.664 200.586 416.12 200.368C416.576 200.151 416.977 199.835 417.293 199.443L429.487 184.274C429.803 183.881 430.026 183.423 430.138 182.933C430.251 182.443 430.251 181.935 430.138 181.445L425.784 162.53C425.671 162.04 425.449 161.582 425.133 161.19C424.817 160.797 424.417 160.48 423.96 160.263L406.335 151.846C405.826 151.603 405.264 151.491 404.701 151.52V151.52Z" fill="white"/>
<path d="M404.875 157.957C404.293 157.957 403.82 158.481 403.82 159.129C403.82 159.139 403.822 159.148 403.822 159.158C403.822 159.246 403.817 159.352 403.82 159.428C403.834 159.802 403.916 160.087 403.965 160.431C404.053 161.168 404.128 161.778 404.082 162.345C404.037 162.559 403.88 162.754 403.739 162.89L403.714 163.337C403.081 163.389 402.444 163.485 401.807 163.63C399.069 164.252 396.71 165.662 394.915 167.567C394.798 167.488 394.595 167.342 394.534 167.297C394.346 167.322 394.155 167.38 393.907 167.236C393.435 166.918 393.005 166.48 392.485 165.951C392.247 165.699 392.074 165.458 391.791 165.214C391.727 165.159 391.629 165.084 391.557 165.027C391.335 164.851 391.074 164.759 390.822 164.75C390.498 164.739 390.185 164.866 389.981 165.122C389.618 165.577 389.734 166.274 390.24 166.677C390.245 166.681 390.251 166.684 390.256 166.688C390.326 166.745 390.411 166.817 390.475 166.864C390.775 167.086 391.05 167.2 391.349 167.376C391.98 167.765 392.503 168.088 392.918 168.478C393.08 168.651 393.108 168.955 393.13 169.086L393.468 169.389C391.658 172.112 390.82 175.477 391.315 178.905L390.874 179.033C390.757 179.183 390.593 179.42 390.421 179.491C389.878 179.662 389.267 179.724 388.53 179.802C388.183 179.83 387.885 179.813 387.518 179.883C387.437 179.898 387.324 179.927 387.236 179.948C387.233 179.949 387.23 179.95 387.227 179.95C387.222 179.952 387.216 179.954 387.211 179.955C386.589 180.105 386.19 180.677 386.319 181.24C386.447 181.803 387.054 182.145 387.68 182.011C387.684 182.009 387.691 182.009 387.696 182.008C387.703 182.007 387.709 182.003 387.716 182.001C387.803 181.982 387.912 181.961 387.989 181.941C388.35 181.844 388.611 181.702 388.935 181.578C389.633 181.327 390.211 181.118 390.775 181.037C391.01 181.018 391.258 181.182 391.381 181.251L391.841 181.172C392.899 184.453 395.116 187.104 397.924 188.768L397.732 189.228C397.801 189.406 397.878 189.648 397.826 189.824C397.621 190.355 397.271 190.915 396.871 191.54C396.678 191.829 396.48 192.053 396.306 192.383C396.264 192.462 396.211 192.584 396.17 192.667C395.899 193.247 396.098 193.915 396.619 194.166C397.143 194.418 397.793 194.152 398.075 193.571C398.075 193.57 398.077 193.569 398.077 193.569C398.078 193.568 398.077 193.567 398.077 193.566C398.117 193.484 398.174 193.376 398.208 193.298C398.357 192.956 398.407 192.662 398.512 192.331C398.791 191.63 398.945 190.895 399.329 190.436C399.434 190.311 399.606 190.262 399.783 190.215L400.022 189.782C402.47 190.722 405.21 190.974 407.947 190.352C408.572 190.211 409.174 190.027 409.757 189.807C409.824 189.926 409.949 190.155 409.982 190.213C410.163 190.271 410.36 190.302 410.521 190.539C410.809 191.03 411.005 191.611 411.245 192.313C411.35 192.644 411.402 192.938 411.551 193.28C411.585 193.358 411.642 193.468 411.682 193.551C411.963 194.134 412.615 194.401 413.14 194.148C413.661 193.897 413.86 193.229 413.589 192.649C413.548 192.566 413.493 192.444 413.451 192.365C413.277 192.035 413.079 191.813 412.886 191.524C412.486 190.9 412.155 190.381 411.95 189.85C411.865 189.576 411.965 189.406 412.031 189.228C411.991 189.182 411.906 188.923 411.855 188.802C414.774 187.079 416.926 184.328 417.937 181.152C418.073 181.173 418.31 181.215 418.387 181.231C418.546 181.126 418.692 180.99 418.978 181.012C419.541 181.093 420.119 181.303 420.817 181.553C421.142 181.677 421.403 181.822 421.764 181.918C421.84 181.939 421.949 181.958 422.036 181.977C422.043 181.978 422.05 181.982 422.057 181.983C422.061 181.985 422.068 181.985 422.073 181.986C422.698 182.12 423.305 181.778 423.434 181.215C423.562 180.652 423.163 180.08 422.541 179.93C422.451 179.91 422.323 179.875 422.235 179.858C421.868 179.788 421.569 179.806 421.223 179.777C420.485 179.7 419.875 179.637 419.332 179.466C419.11 179.38 418.953 179.117 418.876 179.008L418.45 178.884C418.671 177.286 418.612 175.623 418.23 173.959C417.844 172.28 417.162 170.744 416.253 169.391C416.362 169.291 416.569 169.109 416.627 169.055C416.644 168.866 416.629 168.667 416.825 168.458C417.24 168.068 417.763 167.745 418.394 167.355C418.694 167.179 418.97 167.066 419.271 166.844C419.339 166.794 419.432 166.714 419.503 166.657C420.009 166.253 420.126 165.557 419.762 165.102C419.399 164.646 418.695 164.603 418.189 165.007C418.117 165.064 418.019 165.138 417.955 165.194C417.671 165.438 417.497 165.678 417.258 165.931C416.738 166.459 416.308 166.9 415.836 167.218C415.631 167.337 415.332 167.296 415.196 167.288L414.795 167.574C412.507 165.175 409.392 163.641 406.038 163.343C406.029 163.203 406.016 162.949 406.013 162.872C405.876 162.741 405.71 162.629 405.668 162.345C405.623 161.778 405.699 161.168 405.788 160.431C405.837 160.087 405.918 159.802 405.932 159.428C405.935 159.344 405.93 159.22 405.93 159.129C405.93 158.481 405.458 157.957 404.875 157.957H404.875ZM403.554 166.138L403.241 171.672L403.218 171.683C403.197 172.178 402.79 172.573 402.29 172.573C402.085 172.573 401.896 172.508 401.742 172.395L401.733 172.4L397.196 169.183C398.59 167.812 400.374 166.799 402.43 166.332C402.805 166.247 403.18 166.184 403.554 166.138ZM406.198 166.138C408.598 166.434 410.817 167.52 412.518 169.186L408.01 172.382L407.995 172.375C407.594 172.667 407.031 172.595 406.719 172.204C406.591 172.043 406.524 171.855 406.516 171.665L406.511 171.663L406.198 166.138ZM395.551 171.25L399.693 174.956L399.689 174.978C400.063 175.303 400.118 175.867 399.806 176.258C399.678 176.419 399.507 176.526 399.324 176.576L399.319 176.594L394.009 178.127C393.739 175.656 394.321 173.253 395.551 171.25ZM414.17 171.253C414.786 172.25 415.252 173.365 415.529 174.573C415.804 175.766 415.872 176.958 415.759 178.109L410.422 176.572L410.417 176.549C409.94 176.419 409.646 175.932 409.757 175.445C409.803 175.245 409.909 175.076 410.052 174.951L410.05 174.94L414.17 171.253H414.17ZM404.025 175.242H405.723L406.777 176.561L406.399 178.206L404.875 178.938L403.347 178.204L402.968 176.558L404.025 175.242ZM409.466 179.754C409.538 179.751 409.61 179.757 409.68 179.77L409.689 179.759L415.182 180.687C414.378 182.946 412.84 184.902 410.785 186.212L408.653 181.062L408.659 181.053C408.464 180.597 408.66 180.064 409.11 179.847C409.226 179.791 409.346 179.76 409.466 179.754H409.466ZM400.241 179.777C400.66 179.783 401.036 180.074 401.134 180.5C401.179 180.7 401.157 180.898 401.082 181.073L401.098 181.093L398.988 186.192C397.015 184.926 395.444 183.031 394.604 180.705L400.049 179.781L400.058 179.793C400.119 179.781 400.181 179.776 400.241 179.777V179.777ZM404.841 182.011C404.987 182.005 405.135 182.035 405.276 182.103C405.461 182.192 405.604 182.332 405.693 182.5H405.714L408.398 187.35C408.05 187.467 407.691 187.567 407.325 187.65C405.272 188.116 403.226 187.975 401.372 187.343L404.05 182.502H404.055C404.215 182.202 404.52 182.022 404.841 182.011Z" fill="#326CE5" stroke="#326CE5" stroke-width="0.13307"/>
<defs>
<clipPath id="clip0_27349_21490">
<rect width="21.387" height="21.387" fill="white" transform="translate(60.0464 187.881)"/>
</clipPath>
<clipPath id="clip1_27349_21490">
<rect width="21.387" height="21.387" fill="white" transform="translate(581.046 187.881)"/>
</clipPath>
</defs>
</svg>
