<svg width="40" height="40" viewBox="0 0 40 40" fill="none" xmlns="http://www.w3.org/2000/svg">
<g clip-path="url(#clip0_23295_3077)">
<path d="M40 0H0V40H40V0Z" fill="#DD344C" fill-opacity="0.12"/>
<path fill-rule="evenodd" clip-rule="evenodd" d="M17 22.811L19.996 24.548L27 20.602L26.993 23.978L20 28.033L17 26.294V22.811ZM16.097 14.058L19.06 15.822L16 17.597V25.714L13 23.975V15.853L16.097 14.058ZM17 18.173L20.043 16.408L23 18.169V21.708L20.004 23.397L17 21.655V18.173ZM27 19.454L24 21.145V17.601L17.087 13.484L20 11.795L27 15.853V19.454ZM31 26.294L27.993 28.038L28 15.277L20 10.639L12 15.277V24.551L20 29.189L26.993 25.135V28.617L20 32.672L9 26.294V13.534L20 7.156L31 13.534V26.294ZM20 6L8 12.958V26.87L20 33.828L32 26.87V12.958L20 6Z" fill="#DD344C"/>
</g>
<rect x="0.5" y="0.5" width="39" height="39" stroke="#DD344C"/>
<defs>
<clipPath id="clip0_23295_3077">
<rect width="40" height="40" fill="white"/>
</clipPath>
</defs>
</svg>
