<svg width="40" height="40" viewBox="0 0 40 40" fill="none" xmlns="http://www.w3.org/2000/svg">
<g clip-path="url(#clip0_23296_3757)">
<path d="M40 0H0V40H40V0Z" fill="#7AA116" fill-opacity="0.12"/>
<path fill-rule="evenodd" clip-rule="evenodd" d="M28.4335 25.4617L25.4543 23.8769L26.4205 23.3608C26.8751 23.9935 27.603 24.4092 28.4305 24.4092C29.2561 24.4092 29.9829 23.9955 30.4366 23.3648L31.4296 23.9134L28.4335 25.4617ZM29.9261 21.8743C29.9261 22.7139 29.2551 23.3953 28.4305 23.3953C27.606 23.3953 26.9349 22.7139 26.9349 21.8743C26.9349 21.0358 27.606 20.3534 28.4305 20.3534C29.2551 20.3534 29.9261 21.0358 29.9261 21.8743ZM20.4671 17.3196C18.486 17.3196 16.8748 15.681 16.8748 13.6673C16.8748 11.6525 18.486 10.014 20.4671 10.014C22.4472 10.014 24.0585 11.6525 24.0585 13.6673C24.0585 15.681 22.4472 17.3196 20.4671 17.3196ZM22.0145 25.8136C22.0145 26.6815 21.3196 27.3862 20.4671 27.3862C19.6136 27.3862 18.9207 26.6815 18.9207 25.8136C18.9207 24.9466 19.6136 24.2409 20.4671 24.2409C21.3196 24.2409 22.0145 24.9466 22.0145 25.8136ZM20.4661 29.91L17.9885 28.4752L18.9955 27.9155C19.4122 28.2187 19.9177 28.4002 20.4671 28.4002C21.0165 28.4002 21.521 28.2187 21.9378 27.9165L22.9288 28.4732L20.4661 29.91ZM14.4539 23.8941L11.4827 25.4607L8.56338 23.8992L9.49662 23.3922C9.95227 24.0057 10.6681 24.4092 11.4807 24.4092C12.3063 24.4092 13.0351 23.9945 13.4888 23.3638L14.4539 23.8941ZM11.4807 20.3534C12.3053 20.3534 12.9763 21.0358 12.9763 21.8743C12.9763 22.7139 12.3053 23.3953 11.4807 23.3953C10.6562 23.3953 9.98517 22.7139 9.98517 21.8743C9.98517 21.0358 10.6562 20.3534 11.4807 20.3534ZM32.7388 23.4814L30.8553 22.4421C30.8962 22.2586 30.9231 22.071 30.9231 21.8743C30.9231 20.4771 29.8054 19.3394 28.4305 19.3394C28.1673 19.3394 27.919 19.3931 27.6807 19.4692L24.1951 16.3675C24.7325 15.604 25.0555 14.6752 25.0555 13.6673C25.0555 11.0938 22.9976 9 20.4671 9C17.9366 9 15.8777 11.0938 15.8777 13.6673C15.8777 14.5271 16.124 15.3231 16.5248 16.0166L12.2495 19.4753C12.0052 19.3952 11.7509 19.3394 11.4807 19.3394C10.1058 19.3394 8.98812 20.4771 8.98812 21.8743C8.98812 22.0832 9.02003 22.2829 9.06689 22.4766L7.26423 23.4551C7.10072 23.5433 6.99902 23.7167 7.00001 23.9043C7.00101 24.0919 7.10271 24.2642 7.26722 24.3514L11.2494 26.4808C11.3212 26.5193 11.401 26.5386 11.4807 26.5386C11.5595 26.5386 11.6383 26.5203 11.7111 26.4818L15.7511 24.3524C15.9146 24.2663 16.0183 24.0949 16.0203 23.9063C16.0223 23.7187 15.9206 23.5453 15.7581 23.4561L13.9056 22.4411C13.9474 22.2586 13.9734 22.07 13.9734 21.8743C13.9734 21.1432 13.6623 20.4872 13.1727 20.0248L17.116 16.8329C17.8469 17.6319 18.8459 18.1571 19.9686 18.2818V23.2787C18.804 23.5149 17.9236 24.5613 17.9236 25.8136C17.9236 26.3033 18.0662 26.7566 18.2995 27.1479L16.7262 28.02C16.5677 28.1082 16.468 28.2765 16.466 28.461C16.464 28.6446 16.5607 28.8149 16.7182 28.9062L20.2208 30.9341C20.2966 30.9777 20.3824 31 20.4671 31C20.5529 31 20.6386 30.9777 20.7154 30.9331L24.1921 28.9051C24.3476 28.8139 24.4433 28.6446 24.4423 28.461C24.4413 28.2785 24.3426 28.1102 24.1851 28.022L22.6347 27.15C22.869 26.7586 23.0116 26.3043 23.0116 25.8136C23.0116 24.5613 22.1312 23.5149 20.9656 23.2776V18.2818C21.9457 18.1733 22.8301 17.7586 23.526 17.1198L26.7655 20.0025C26.2609 20.4659 25.9379 21.1301 25.9379 21.8743C25.9379 22.069 25.9638 22.2556 26.0037 22.4371L24.1482 23.4287C23.9837 23.5169 23.882 23.6893 23.882 23.8779C23.882 24.0675 23.9847 24.2399 24.1492 24.3271L28.2002 26.4808C28.272 26.5193 28.3508 26.5386 28.4305 26.5386C28.5083 26.5386 28.5851 26.5203 28.6568 26.4838L32.7278 24.3798C32.8933 24.2936 32.997 24.1223 33 23.9347C33.002 23.7461 32.9013 23.5717 32.7388 23.4814Z" fill="#7AA116"/>
</g>
<rect x="0.5" y="0.5" width="39" height="39" stroke="#7AA116"/>
<defs>
<clipPath id="clip0_23296_3757">
<rect width="40" height="40" fill="white"/>
</clipPath>
</defs>
</svg>
