<svg width="40" height="40" viewBox="0 0 40 40" fill="none" xmlns="http://www.w3.org/2000/svg">
<g clip-path="url(#clip0_23298_3861)">
<path d="M40 0H0V40H40V0Z" fill="#01A88D" fill-opacity="0.12"/>
<path fill-rule="evenodd" clip-rule="evenodd" d="M9 10.5C9 9.673 9.673 9 10.5 9C11.327 9 12 9.673 12 10.5C12 11.327 11.327 12 10.5 12C9.673 12 9 11.327 9 10.5ZM13 10.5C13 9.122 11.879 8 10.5 8C9.121 8 8 9.122 8 10.5C8 11.878 9.121 13 10.5 13C11.879 13 13 11.878 13 10.5ZM28.5 32C27.121 32 26 30.878 26 29.5C26 28.122 27.121 27 28.5 27C29.879 27 31 28.122 31 29.5C31 30.878 29.879 32 28.5 32ZM21 18.5C21.827 18.5 22.5 19.173 22.5 20C22.5 20.827 21.827 21.5 21 21.5C20.173 21.5 19.5 20.827 19.5 20C19.5 19.173 20.173 18.5 21 18.5ZM18.909 18.637C18.652 19.029 18.5 19.497 18.5 20C18.5 21.378 19.621 22.5 21 22.5C22.379 22.5 23.5 21.378 23.5 20C23.5 18.622 22.379 17.5 21 17.5C20.486 17.5 20.009 17.656 19.611 17.923L17.758 16.225C18.634 15.472 19.758 15 21 15C23.757 15 26 17.243 26 20C26 22.757 23.757 25 21 25C18.243 25 16 22.757 16 20C16 18.846 16.408 17.796 17.067 16.949L18.909 18.637ZM21 32C14.383 32 9 26.617 9 20C9 18.236 9.384 16.544 10.119 14.961C10.246 14.973 10.369 15 10.5 15C11.697 15 12.779 14.523 13.587 13.758L16.316 16.26C15.494 17.287 15 18.586 15 20C15 23.309 17.691 26 21 26C24.309 26 27 23.309 27 20C27 16.691 24.309 14 21 14C19.465 14 18.068 14.584 17.006 15.535L14.238 12.999C14.719 12.283 15 11.424 15 10.5C15 10.215 14.967 9.938 14.916 9.667C18.318 7.665 22.699 7.517 26.246 9.233C26.092 9.627 26 10.052 26 10.5C26 12.43 27.57 14 29.5 14C30.092 14 30.641 13.839 31.13 13.579C32.35 15.499 33 17.708 33 20C33 22.495 32.239 24.867 30.812 26.894C30.194 26.344 29.39 26 28.5 26C26.57 26 25 27.57 25 29.5C25 30.096 25.163 30.648 25.427 31.14C24.021 31.7 22.54 32 21 32ZM7 10.5C7 8.57 8.57 7 10.5 7C12.43 7 14 8.57 14 10.5C14 12.43 12.43 14 10.5 14C8.57 14 7 12.43 7 10.5ZM29.5 8C30.879 8 32 9.122 32 10.5C32 11.878 30.879 13 29.5 13C28.121 13 27 11.878 27 10.5C27 9.122 28.121 8 29.5 8ZM34 20C34 17.5 33.286 15.088 31.945 12.998C32.594 12.361 33 11.479 33 10.5C33 8.57 31.43 7 29.5 7C28.377 7 27.388 7.541 26.746 8.366C22.964 6.507 18.296 6.628 14.617 8.698C13.921 7.113 12.34 6 10.5 6C8.019 6 6 8.019 6 10.5C6 12.497 7.315 14.174 9.119 14.761C8.389 16.413 8 18.169 8 20C8 27.168 13.832 33 21 33C22.751 33 24.434 32.641 26.024 31.971C26.658 32.606 27.534 33 28.5 33C30.43 33 32 31.43 32 29.5C32 28.834 31.803 28.217 31.479 27.687C33.126 25.445 34 22.792 34 20Z" fill="#01A88D"/>
</g>
<rect x="0.5" y="0.5" width="39" height="39" stroke="#01A88D"/>
<defs>
<clipPath id="clip0_23298_3861">
<rect width="40" height="40" fill="white"/>
</clipPath>
</defs>
</svg>
