<svg width="24px" height="24px" viewBox="0 0 24 24" fill="none" xmlns="http://www.w3.org/2000/svg">
<path d="M5.76001 8.64047V12.5205C5.79564 14.323 6.42723 16.063 7.55612 17.4687C8.68502 18.8744 10.2477 19.8666 12 20.2905V5.73047L5.76001 8.64047Z" fill="#DDDDDD"/>
<path d="M12 20.2905L12.66 20.1005C14.259 19.5679 15.6539 18.5533 16.653 17.1961C17.6522 15.8388 18.2066 14.2055 18.24 12.5205V8.64047L12 5.73047V20.2905Z" fill="white"/>
<path d="M17.7901 4.14016C17.6935 4.13523 17.5967 4.13523 17.5001 4.14016L18.3301 3.14016L17.7601 2.66016L16.0901 4.66016L18.0901 6.32016L18.5701 5.75016L17.5701 4.90016C17.6567 4.89525 17.7435 4.89525 17.8301 4.90016C18.5303 4.90016 19.2018 5.1783 19.6968 5.67339C20.1919 6.16849 20.4701 6.83998 20.4701 7.54016C20.4703 7.95435 20.3709 8.36252 20.1801 8.73016L20.7301 9.29016L20.8201 9.16016C21.0821 8.6603 21.2193 8.10451 21.2201 7.54016C21.2214 7.09075 21.1334 6.64556 20.9612 6.23047C20.7889 5.81539 20.5358 5.4387 20.2166 5.12232C19.8975 4.80594 19.5186 4.55618 19.102 4.38757C18.6854 4.21895 18.2395 4.13485 17.7901 4.14016Z" fill="white"/>
<path d="M5.66994 17.7005L5.05994 18.1405L5.81994 19.2005C5.73001 19.2054 5.63987 19.2054 5.54994 19.2005C5.11426 19.0879 4.71459 18.8657 4.38889 18.5552C4.06319 18.2447 3.82228 17.8561 3.68903 17.4262C3.55577 16.9964 3.5346 16.5397 3.62752 16.0993C3.72044 15.659 3.92437 15.2498 4.21994 14.9105L3.82994 14.2305C3.79081 14.2646 3.75406 14.3013 3.71994 14.3405C3.31989 14.7705 3.0388 15.2974 2.90439 15.8691C2.76998 16.4409 2.78688 17.0378 2.95343 17.6011C3.11998 18.1643 3.43043 18.6744 3.85418 19.0812C4.27793 19.4879 4.80034 19.7771 5.36994 19.9205C5.46571 19.942 5.5625 19.9587 5.65994 19.9705L4.65994 20.7105L5.09994 21.3205L7.20994 19.8205L5.66994 17.7005Z" fill="#DDDDDD"/>
</svg>
