<svg width="40" height="40" viewBox="0 0 40 40" fill="none" xmlns="http://www.w3.org/2000/svg">
<g clip-path="url(#clip0_23311_9637)">
<path d="M40 0H0V40H40V0Z" fill="#DD344C" fill-opacity="0.12"/>
<path fill-rule="evenodd" clip-rule="evenodd" d="M23.29 26.44C23.558 26.615 23.914 26.541 24.089 26.276C24.263 26.011 24.188 25.653 23.924 25.479C23.826 25.414 23.717 25.383 23.607 25.383C23.421 25.383 23.237 25.475 23.126 25.642C22.952 25.907 23.025 26.265 23.29 26.44ZM30.078 22.641L24.298 18.829L19 22.902V31.862L22.352 26.901C21.965 26.384 21.916 25.661 22.292 25.091C22.523 24.74 22.878 24.5 23.29 24.416C23.702 24.332 24.122 24.412 24.475 24.644C25.199 25.122 25.4 26.101 24.924 26.826L24.923 26.827C24.691 27.178 24.337 27.418 23.924 27.502C23.817 27.524 23.71 27.535 23.604 27.535C23.458 27.535 23.312 27.512 23.173 27.472L19.83 32.42L28.19 28.929L30.078 22.641ZM31.112 22.673L29.08 29.442C29.037 29.586 28.933 29.703 28.794 29.76L18.692 33.978C18.631 34.004 18.565 34 18.5 34H6V33H18V22.656C18 22.501 18.072 22.354 18.195 22.259L23.876 17.892L26.836 12.167L27.725 12.626L24.923 18.044L30.557 21.759L33.208 18.364L33.997 18.979L31.112 22.673ZM30.796 6.688L29.907 6.228L27.556 10.77L28.444 11.23L30.796 6.688ZM12.501 15.916C12.638 15.916 12.769 15.859 12.863 15.76L17.065 11.345L16.341 10.655L12.501 14.69L10.761 12.865L10.036 13.555L12.139 15.761C12.233 15.859 12.364 15.916 12.501 15.916ZM7 13.5C7 14.03 7.377 14.489 7.895 14.593C8.081 14.63 8.229 14.768 8.279 14.95C8.399 15.383 8.572 15.798 8.791 16.183C8.881 16.341 8.878 16.537 8.782 16.692C8.672 16.873 8.615 17.066 8.615 17.269C8.615 18.087 9.58 18.665 10.309 18.217C10.389 18.169 10.479 18.144 10.57 18.144C10.656 18.144 10.741 18.166 10.818 18.21C11.203 18.429 11.617 18.601 12.05 18.72C12.232 18.771 12.37 18.919 12.407 19.105C12.511 19.624 12.971 20 13.5 20C14.029 20 14.489 19.624 14.593 19.105C14.63 18.919 14.768 18.771 14.95 18.72C15.383 18.601 15.797 18.429 16.182 18.21C16.341 18.12 16.536 18.123 16.691 18.217C16.872 18.329 17.066 18.385 17.269 18.385C17.885 18.385 18.385 17.884 18.385 17.269C18.385 17.066 18.328 16.873 18.218 16.692C18.122 16.537 18.119 16.341 18.209 16.183C18.428 15.798 18.601 15.383 18.721 14.95C18.77 14.768 18.919 14.63 19.104 14.593C19.623 14.489 20 14.03 20 13.5C20 12.97 19.623 12.511 19.104 12.407C18.919 12.37 18.77 12.232 18.721 12.05C18.601 11.617 18.428 11.202 18.209 10.817C18.119 10.659 18.122 10.463 18.218 10.308C18.328 10.128 18.385 9.934 18.385 9.731C18.385 8.913 17.425 8.332 16.691 8.783C16.536 8.879 16.341 8.882 16.182 8.791C15.797 8.571 15.383 8.399 14.95 8.28C14.768 8.23 14.63 8.081 14.593 7.896C14.489 7.377 14.029 7 13.5 7C12.971 7 12.511 7.377 12.407 7.896C12.37 8.081 12.232 8.23 12.05 8.28C11.617 8.399 11.203 8.571 10.818 8.791C10.66 8.882 10.465 8.879 10.309 8.783C9.575 8.333 8.615 8.914 8.615 9.731C8.615 9.934 8.672 10.128 8.782 10.308C8.878 10.463 8.881 10.659 8.791 10.817C8.572 11.202 8.399 11.617 8.279 12.05C8.229 12.232 8.081 12.37 7.895 12.407C7.377 12.511 7 12.97 7 13.5ZM6 13.5C6 12.601 6.572 11.808 7.398 11.51C7.504 11.184 7.636 10.867 7.791 10.565C7.676 10.3 7.615 10.017 7.615 9.731C7.615 8.565 8.564 7.615 9.73 7.615C10.016 7.615 10.3 7.675 10.564 7.791C10.867 7.635 11.184 7.503 11.511 7.398C11.809 6.572 12.601 6 13.5 6C14.399 6 15.191 6.572 15.489 7.398C15.816 7.503 16.133 7.635 16.436 7.791C16.7 7.675 16.984 7.615 17.269 7.615C18.436 7.615 19.385 8.565 19.385 9.731C19.385 10.017 19.324 10.3 19.209 10.565C19.364 10.867 19.496 11.184 19.602 11.51C20.428 11.808 21 12.601 21 13.5C21 14.399 20.428 15.192 19.602 15.49C19.496 15.816 19.364 16.133 19.209 16.436C19.324 16.7 19.385 16.983 19.385 17.269C19.385 18.436 18.436 19.385 17.269 19.385C16.983 19.385 16.7 19.325 16.436 19.209C16.132 19.365 15.815 19.497 15.489 19.602C15.191 20.428 14.399 21 13.5 21C12.601 21 11.809 20.428 11.511 19.602C11.185 19.497 10.868 19.365 10.564 19.209C10.3 19.325 10.017 19.385 9.73 19.385C8.564 19.385 7.615 18.436 7.615 17.269C7.615 16.983 7.676 16.7 7.791 16.436C7.636 16.133 7.504 15.816 7.398 15.49C6.572 15.192 6 14.399 6 13.5ZM11 21V26.293L13.146 24.147C13.34 23.953 13.652 23.951 13.85 24.143L16.35 26.586L15.65 27.301L13.504 25.203L10.853 27.854C10.758 27.949 10.63 28 10.5 28C10.436 28 10.37 27.988 10.309 27.962C10.122 27.885 10 27.702 10 27.5V21H11Z" fill="#DD344C"/>
</g>
<rect x="0.5" y="0.5" width="39" height="39" stroke="#DD344C"/>
<defs>
<clipPath id="clip0_23311_9637">
<rect width="40" height="40" fill="white"/>
</clipPath>
</defs>
</svg>
