<?xml version="1.0" standalone="no"?>
<!DOCTYPE svg PUBLIC "-//W3C//DTD SVG 20010904//EN"
 "http://www.w3.org/TR/2001/REC-SVG-20010904/DTD/svg10.dtd">
<svg version="1.0" xmlns="http://www.w3.org/2000/svg"
 width="2880.000000pt" height="1800.000000pt" viewBox="0 0 2880.000000 1800.000000"
 preserveAspectRatio="xMidYMid meet">
<metadata>
Created by potrace 1.16, written by Peter Selinger 2001-2019
</metadata>
<g transform="translate(0.000000,1800.000000) scale(0.100000,-0.100000)"
fill="#000000" stroke="none">
<path d="M0 9000 l0 -9000 14400 0 14400 0 0 9000 0 9000 -14400 0 -14400 0 0
-9000z m27300 6795 c0 -63 -2 -115 -5 -115 -15 0 -274 155 -267 161 25 22 185
66 245 68 l27 1 0 -115z m232 81 c39 -14 75 -29 80 -34 6 -6 -33 -34 -99 -72
-59 -34 -123 -71 -140 -82 l-33 -20 0 123 0 122 61 -7 c33 -3 92 -17 131 -30z
m-564 -306 l-3 -80 -93 54 c-51 29 -95 56 -99 59 -9 10 82 116 140 165 l52 42
3 -80 c2 -44 2 -116 0 -160z m842 113 c33 -36 60 -69 60 -74 0 -6 -159 -103
-192 -117 -4 -2 -8 69 -8 158 l0 162 40 -32 c21 -17 66 -61 100 -97z m-608 -1
c38 -20 67 -41 65 -45 -1 -4 -60 -41 -130 -82 l-127 -74 0 155 0 155 63 -36
c34 -19 92 -52 129 -73z m428 -47 c0 -80 -3 -145 -6 -145 -5 0 -244 137 -252
145 -4 3 240 145 251 145 4 0 7 -65 7 -145z m-22340 -45 l0 -160 21 21 c73 73
239 79 320 12 58 -49 63 -74 67 -330 l4 -233 -51 0 -51 0 -1 208 c0 133 -4
219 -12 241 -19 53 -55 74 -126 74 -75 -1 -116 -23 -145 -78 -19 -36 -21 -60
-24 -242 l-3 -203 -50 0 -49 0 0 425 0 425 50 0 50 0 0 -160z m3510 0 l0 -160
21 21 c73 73 239 79 320 12 58 -49 63 -74 67 -330 l4 -233 -51 0 -51 0 -1 208
c0 133 -4 219 -12 241 -19 53 -55 74 -126 74 -75 -1 -116 -23 -145 -78 -19
-36 -21 -60 -24 -242 l-3 -203 -50 0 -49 0 0 425 0 425 50 0 50 0 0 -160z
m-267 95 c26 -9 47 -21 47 -26 0 -4 -8 -24 -17 -44 -14 -29 -22 -35 -38 -30
-142 41 -174 43 -256 19 -71 -21 -139 -89 -165 -165 -25 -74 -25 -205 0 -282
37 -112 132 -177 255 -177 50 0 78 5 169 25 22 5 23 3 20 -42 -3 -48 -3 -48
-48 -60 -65 -17 -226 -16 -284 2 -137 42 -214 144 -236 317 -32 238 68 421
259 475 61 17 231 10 294 -12z m-6786 -14 c90 -40 126 -101 125 -211 0 -79
-11 -107 -57 -158 -53 -60 -120 -84 -242 -90 l-103 -5 0 -153 0 -154 -55 0
-55 0 0 393 c0 217 3 397 8 401 4 4 79 6 167 4 140 -3 166 -7 212 -27z m3163
-101 l0 -70 85 0 85 0 0 -40 0 -40 -85 0 -85 0 0 -194 c0 -192 0 -195 24 -223
22 -25 30 -28 85 -27 l61 1 0 -38 c0 -36 -2 -39 -35 -45 -58 -10 -143 1 -173
23 -56 41 -62 68 -62 296 l0 207 -45 0 c-41 0 -45 2 -45 25 0 20 9 30 44 47
41 20 46 26 63 85 17 61 19 63 50 63 l33 0 0 -70z m5650 0 l0 -70 85 0 85 0 0
-40 0 -40 -85 0 -85 0 0 -194 c0 -192 0 -195 24 -223 22 -25 30 -28 85 -27
l61 1 0 -38 c0 -36 -2 -39 -35 -45 -58 -10 -143 1 -173 23 -56 41 -62 68 -62
296 l0 207 -45 0 c-41 0 -45 2 -45 25 0 20 9 30 44 47 41 20 46 26 63 85 17
61 19 63 50 63 l33 0 0 -70z m16738 -194 l-3 -75 -128 74 -129 73 99 57 c54
32 112 66 128 76 l30 18 3 -74 c2 -41 2 -108 0 -149z m180 149 c67 -38 122
-73 122 -76 0 -4 -225 -137 -252 -147 -4 -2 -8 65 -8 148 0 83 4 150 8 148 4
-1 63 -34 130 -73z m-633 -13 c121 -71 125 -53 -31 -143 -76 -43 -139 -79
-141 -79 -16 0 16 156 48 231 24 55 14 56 124 -9z m1073 1 c18 -45 33 -101 46
-181 4 -24 2 -32 -7 -30 -21 5 -257 140 -257 147 0 8 171 110 186 110 6 1 21
-20 32 -46z m-25548 -22 c0 -10 -3 -31 -6 -47 -5 -28 -7 -29 -67 -29 -78 0
-119 -27 -153 -99 -22 -48 -24 -63 -24 -233 l0 -183 -50 0 -50 0 0 300 0 300
45 0 45 0 0 -52 0 -53 31 38 c45 54 92 76 167 77 54 0 62 -2 62 -19z m476 -5
c101 -47 154 -145 154 -286 0 -194 -103 -310 -275 -310 -171 0 -275 117 -275
309 0 112 22 174 85 236 58 59 93 73 190 74 54 1 82 -5 121 -23z m674 8 c22
-9 51 -30 65 -47 l24 -31 20 26 c70 88 270 91 339 4 33 -43 42 -113 42 -336
l0 -210 -50 0 -50 0 0 203 c0 218 -7 261 -45 297 -31 29 -116 32 -162 5 -63
-37 -68 -58 -71 -292 l-3 -213 -50 0 -49 0 0 210 c0 282 -15 317 -133 313 -57
-1 -92 -23 -122 -74 -18 -30 -20 -56 -23 -241 l-4 -208 -49 0 -49 0 0 301 0
300 42 -3 c34 -2 44 -7 46 -23 7 -43 11 -45 37 -19 14 14 40 31 58 39 43 19
138 19 187 -1z m1025 -19 c70 -44 105 -111 112 -215 l6 -80 -207 0 c-230 0
-216 6 -191 -76 16 -53 53 -96 98 -113 41 -16 146 -13 203 4 27 8 52 15 57 15
4 0 7 -20 7 -44 l0 -44 -64 -17 c-86 -23 -214 -17 -272 13 -102 52 -150 156
-142 306 6 106 28 163 87 220 51 50 100 67 187 63 59 -2 79 -7 119 -32z m1690
0 c70 -44 105 -111 112 -215 l6 -80 -207 0 c-230 0 -216 6 -191 -76 16 -53 53
-96 98 -113 41 -16 146 -13 203 4 27 8 52 15 57 15 4 0 7 -20 7 -44 l0 -44
-64 -17 c-86 -23 -214 -17 -272 13 -102 52 -150 156 -142 306 6 106 28 163 87
220 51 50 100 67 187 63 59 -2 79 -7 119 -32z m1260 20 c33 -9 61 -18 64 -20
2 -3 -4 -23 -14 -45 -13 -30 -23 -39 -34 -35 -115 45 -250 37 -267 -17 -14
-44 4 -68 74 -100 244 -109 255 -120 250 -225 -4 -55 -8 -67 -38 -98 -50 -51
-112 -69 -229 -63 -126 6 -161 23 -161 77 0 21 2 40 6 43 3 3 28 -3 57 -15 62
-24 177 -28 223 -9 56 24 64 82 17 124 -10 10 -65 38 -122 62 -118 51 -157 83
-172 140 -21 76 24 152 107 181 52 19 166 18 239 0z m2249 -15 c69 -42 76 -71
76 -342 l0 -238 -40 0 c-33 0 -40 3 -40 19 0 48 -10 51 -56 16 -49 -38 -104
-50 -190 -43 -94 8 -154 72 -154 164 0 136 76 192 278 202 l102 5 0 48 c0 40
-5 55 -29 81 -28 31 -33 33 -93 32 -42 0 -80 -8 -112 -22 -27 -12 -51 -21 -52
-19 -2 2 -10 20 -19 40 -15 37 -15 37 12 49 112 45 251 49 317 8z m606 11 c0
-10 -3 -31 -6 -47 -5 -28 -7 -29 -67 -29 -78 0 -119 -27 -153 -99 -22 -48 -24
-63 -24 -233 l0 -183 -50 0 -50 0 0 300 0 300 45 0 45 0 0 -52 0 -53 31 38
c45 54 92 76 167 77 54 0 62 -2 62 -19z m805 4 c33 -9 61 -18 64 -20 2 -3 -4
-23 -14 -45 -13 -30 -23 -39 -34 -35 -115 45 -250 37 -267 -17 -14 -44 4 -68
74 -100 244 -109 255 -120 250 -225 -4 -55 -8 -67 -38 -98 -50 -51 -112 -69
-229 -63 -126 6 -161 23 -161 77 0 21 2 40 6 43 3 3 28 -3 57 -15 62 -24 177
-28 223 -9 56 24 64 82 17 124 -10 10 -65 38 -122 62 -118 51 -157 83 -172
140 -21 76 24 152 107 181 52 19 166 18 239 0z m-4563 -212 c3 -131 9 -229 16
-245 17 -42 58 -63 121 -63 68 0 116 25 146 75 18 32 20 55 23 243 l4 207 49
0 49 0 0 -301 0 -300 -42 3 c-40 3 -43 5 -46 35 l-3 33 -37 -29 c-51 -40 -102
-54 -180 -49 -92 5 -140 31 -172 94 -24 47 -25 56 -29 281 l-3 233 50 0 50 0
4 -217z m20376 -97 l-3 -73 -115 66 c-63 36 -121 70 -128 75 -10 6 19 26 95
68 59 33 117 67 128 74 19 14 20 12 23 -61 2 -41 2 -108 0 -149z m177 153 c69
-39 125 -75 125 -78 0 -7 -243 -151 -254 -151 -3 0 -6 68 -6 150 0 83 2 150 5
150 3 0 61 -32 130 -71z m483 -154 l-3 -75 -127 73 c-71 39 -128 74 -128 77 0
3 57 38 128 77 l127 73 3 -75 c2 -41 2 -109 0 -150z m229 121 c40 -22 73 -44
73 -47 0 -4 -226 -137 -252 -147 -4 -2 -8 65 -8 148 l0 152 58 -32 c31 -18 90
-51 129 -74z m-1042 -155 l137 -79 -103 -61 -104 -60 -18 35 c-32 62 -71 244
-53 244 2 0 66 -36 141 -79z m485 -82 c0 -82 -3 -148 -7 -146 -37 21 -213 123
-231 134 -23 14 -20 16 100 88 68 40 126 73 131 74 4 1 7 -67 7 -150z m176 79
c68 -40 124 -75 124 -78 0 -4 -226 -137 -252 -148 -5 -2 -8 64 -8 147 0 83 3
151 6 151 3 0 61 -33 130 -72z m488 40 c-16 -97 -57 -228 -72 -228 -9 0 -192
105 -192 110 0 6 252 150 262 150 4 0 5 -15 2 -32z m-697 -305 c2 -4 -27 -25
-65 -45 -37 -21 -95 -54 -129 -73 l-63 -36 0 155 0 155 127 -74 c70 -41 129
-78 130 -82z m-299 -95 l-3 -83 -99 97 c-54 53 -96 102 -94 108 2 6 46 35 98
65 l95 54 3 -80 c2 -43 2 -116 0 -161z m662 91 l0 -151 -52 31 c-29 17 -88 50
-130 74 -43 23 -78 44 -78 47 0 6 240 148 253 149 4 1 7 -67 7 -150z m146 96
c52 -31 94 -59 94 -64 0 -12 -115 -136 -160 -171 l-40 -32 0 161 c0 89 3 161
6 161 3 0 48 -25 100 -55z m-476 -251 l0 -117 -57 7 c-64 8 -215 56 -215 70 1
7 247 152 265 155 4 1 7 -51 7 -115z m187 39 c73 -42 130 -80 126 -84 -18 -16
-155 -58 -212 -65 l-61 -7 0 117 c0 64 3 116 7 116 3 0 66 -35 140 -77z
m-24703 -252 c18 -8 23 -15 19 -31 -5 -17 -11 -20 -33 -15 -33 7 -66 -18 -76
-57 -6 -26 -4 -28 23 -28 36 0 42 -5 36 -31 -4 -14 -14 -19 -38 -19 -39 0 -35
10 -70 -160 -49 -237 -61 -260 -137 -260 -34 0 -38 3 -38 25 0 21 5 25 30 25
19 0 33 7 40 19 5 11 24 86 40 168 17 81 33 156 36 166 4 13 -1 17 -20 17 -36
0 -34 28 3 41 20 7 31 20 40 48 14 49 45 88 74 94 38 7 45 7 71 -2z m111 -13
c-2 -7 -23 -101 -45 -208 -23 -107 -44 -205 -47 -217 -4 -18 -12 -23 -35 -23
-26 0 -29 3 -25 23 3 12 24 110 47 217 22 107 43 201 45 208 2 6 18 12 34 12
20 0 29 -4 26 -12z m-1325 -33 c49 -26 70 -69 70 -149 0 -85 -14 -134 -52
-181 -49 -59 -98 -78 -212 -83 l-99 -4 6 24 c9 35 87 408 87 415 0 12 170 -7
200 -22z m2509 14 c32 -11 37 -23 22 -48 -7 -11 -18 -11 -59 -2 -43 11 -55 10
-81 -3 -34 -18 -48 -54 -32 -84 6 -11 33 -34 60 -51 27 -18 57 -43 65 -56 20
-31 20 -87 1 -125 -28 -54 -122 -82 -203 -61 -38 11 -42 15 -42 42 0 26 3 30
18 23 25 -11 99 -17 127 -10 33 8 59 49 51 81 -4 15 -29 40 -66 65 -69 47 -80
64 -80 119 0 43 35 95 74 111 30 12 108 12 145 -1z m2681 -14 c49 -26 70 -69
70 -149 0 -85 -14 -134 -52 -181 -49 -59 -98 -78 -212 -83 l-99 -4 6 24 c9 35
87 408 87 415 0 12 170 -7 200 -22z m-4613 -50 l-6 -35 40 0 c39 0 44 -5 33
-34 -4 -11 -19 -16 -44 -16 l-39 0 -17 -77 c-10 -43 -18 -96 -18 -118 -1 -39
0 -40 32 -39 27 2 32 -1 32 -21 0 -40 -70 -44 -112 -7 -25 21 -22 72 17 239 4
17 0 22 -17 25 -34 5 -32 26 5 41 21 9 38 26 46 46 9 20 20 31 34 31 17 0 19
-5 14 -35z m-241 -56 l22 -21 11 21 c11 20 51 30 51 14 1 -5 -14 -79 -32 -165
-31 -148 -34 -158 -55 -158 -17 0 -23 6 -23 21 l0 20 -28 -20 c-90 -63 -168
-16 -165 100 3 84 43 166 96 196 36 20 98 16 123 -8z m540 0 l22 -21 11 21
c11 20 51 30 51 14 1 -5 -14 -79 -32 -165 -31 -148 -34 -158 -55 -158 -17 0
-23 6 -23 21 l0 20 -28 -20 c-90 -63 -168 -16 -165 100 3 84 43 166 96 196 36
20 98 16 123 -8z m710 -13 c31 -31 34 -39 34 -92 0 -138 -94 -233 -201 -204
-57 16 -82 57 -81 133 2 117 68 197 164 197 43 0 54 -4 84 -34z m146 -91 l3
-124 56 122 c53 115 58 122 88 125 24 3 31 -1 32 -15 1 -10 4 -67 8 -127 l6
-110 55 127 c51 118 57 127 83 127 15 0 27 -5 27 -12 0 -7 -32 -80 -70 -163
-68 -148 -70 -150 -104 -153 l-34 -3 -6 73 c-4 40 -7 96 -9 125 l-2 52 -55
-122 -56 -122 -37 -3 -37 -3 0 53 c0 29 -3 104 -7 166 l-6 112 31 0 31 0 3
-125z m1058 105 c24 -24 26 -77 4 -109 -22 -31 -90 -61 -141 -61 -24 0 -43 -4
-43 -9 0 -27 26 -74 45 -81 21 -8 81 0 104 14 7 5 11 -3 11 -22 0 -27 -4 -31
-48 -41 -59 -15 -116 1 -145 41 -46 61 -6 224 65 268 45 27 121 27 148 0z
m286 -1 l22 -21 11 21 c14 26 51 28 50 4 0 -10 -22 -117 -48 -238 -47 -218
-47 -220 -74 -223 -32 -4 -33 3 -12 98 8 36 14 68 15 72 0 4 -18 -2 -41 -13
-49 -26 -91 -18 -123 24 -46 62 -6 233 66 277 44 27 105 26 134 -1z m226 16
c3 -3 -5 -51 -18 -108 -28 -123 -29 -150 -8 -168 13 -11 22 -10 52 6 48 26 76
79 98 186 17 87 19 89 46 89 15 0 28 -3 28 -7 0 -5 -14 -79 -32 -165 -31 -148
-34 -158 -55 -158 -18 0 -23 6 -23 27 l0 27 -31 -30 c-24 -23 -39 -29 -76 -29
-54 0 -83 28 -83 81 0 30 30 184 46 237 5 16 43 24 56 12z m478 -15 c24 -24
26 -77 4 -109 -22 -31 -90 -61 -141 -61 -24 0 -43 -4 -43 -9 0 -27 26 -74 45
-81 21 -8 81 0 104 14 7 5 11 -3 11 -22 0 -27 -4 -31 -48 -41 -59 -15 -116 1
-145 41 -46 61 -6 224 65 268 45 27 121 27 148 0z m170 0 c0 -20 0 -20 33 0
44 27 108 26 133 -1 24 -27 23 -74 -5 -203 -12 -52 -21 -98 -21 -101 0 -3 -13
-5 -30 -5 -16 0 -30 2 -30 5 0 3 11 58 25 122 29 131 27 153 -14 153 -57 0
-99 -52 -121 -150 -29 -132 -28 -130 -61 -130 -24 0 -29 4 -25 18 6 18 66 299
66 307 0 3 11 5 25 5 18 0 25 -5 25 -20z m477 12 c7 -4 10 -17 7 -30 -6 -19
-11 -21 -51 -15 -27 4 -53 1 -67 -6 -51 -28 -85 -131 -61 -187 15 -37 47 -48
96 -34 19 6 35 10 37 10 2 0 2 -12 0 -27 -2 -23 -9 -29 -42 -35 -46 -10 -106
5 -130 31 -58 64 -24 228 57 280 33 21 129 29 154 13z m263 -12 c24 -24 26
-77 4 -109 -22 -31 -90 -61 -141 -61 -24 0 -43 -4 -43 -9 0 -27 26 -74 45 -81
21 -8 81 0 104 14 7 5 11 -3 11 -22 0 -27 -4 -31 -48 -41 -59 -15 -116 1 -145
41 -46 61 -6 224 65 268 45 27 121 27 148 0z m730 17 c0 -8 -61 -293 -66 -309
-4 -12 -15 -18 -35 -18 -24 0 -29 4 -25 18 6 18 66 299 66 307 0 3 14 5 30 5
17 0 30 -2 30 -3z m266 -18 l22 -21 11 21 c11 20 51 30 51 14 1 -5 -14 -79
-32 -165 -31 -148 -34 -158 -55 -158 -17 0 -23 6 -23 21 l0 20 -28 -20 c-90
-63 -168 -16 -165 100 3 84 43 166 96 196 36 20 98 16 123 -8z m407 15 c12
-12 -5 -33 -31 -39 -25 -5 -27 -10 -27 -54 0 -35 -6 -56 -20 -71 -25 -28 -75
-50 -113 -50 -27 0 -61 -24 -50 -35 2 -3 29 -9 59 -15 73 -14 103 -37 107 -83
4 -43 -9 -71 -44 -94 -60 -39 -199 -33 -229 10 -25 36 -19 82 16 111 17 14 34
26 38 26 4 0 6 14 3 31 -3 21 2 37 16 52 18 20 19 24 6 41 -30 42 -5 134 45
161 26 14 211 22 224 9z m107 -15 l0 -20 26 20 c27 21 104 30 104 12 0 -26
-15 -41 -40 -41 -33 0 -75 -31 -95 -70 -8 -16 -22 -62 -30 -102 -23 -108 -23
-108 -56 -108 -24 0 -29 4 -25 18 6 18 66 299 66 307 0 3 11 5 25 5 19 0 25
-5 25 -21z m356 0 l22 -21 11 21 c11 20 51 30 51 14 1 -5 -14 -79 -32 -165
-31 -148 -34 -158 -55 -158 -17 0 -23 6 -23 21 l0 20 -28 -20 c-90 -63 -168
-16 -165 100 3 84 43 166 96 196 36 20 98 16 123 -8z m224 0 l0 -20 29 20 c18
13 45 21 70 21 35 0 44 -4 60 -31 15 -24 21 -28 27 -17 28 46 120 64 156 31
24 -22 23 -80 -4 -210 -21 -101 -22 -103 -50 -103 -34 0 -34 0 -8 120 27 122
24 154 -13 158 -56 7 -96 -62 -127 -220 -11 -55 -13 -58 -41 -58 -16 0 -29 2
-29 5 0 3 11 58 25 122 14 64 23 124 19 135 -9 28 -56 23 -86 -9 -33 -36 -43
-56 -58 -123 -29 -132 -28 -130 -61 -130 -24 0 -29 4 -25 18 6 18 66 299 66
307 0 3 11 5 25 5 19 0 25 -5 25 -21z m1698 -1484 l3 -40 42 3 c69 5 81 -11
86 -112 3 -82 2 -86 -18 -86 -19 0 -21 6 -21 68 0 85 -15 111 -57 97 -27 -10
-28 -13 -31 -88 -3 -69 -5 -77 -22 -77 -19 0 -20 8 -20 141 0 128 2 140 18
137 12 -2 18 -14 20 -43z m6990 0 l3 -40 42 3 c69 5 81 -11 86 -112 3 -82 2
-86 -18 -86 -19 0 -21 6 -21 68 0 85 -15 111 -57 97 -27 -10 -28 -13 -31 -88
-3 -69 -5 -77 -22 -77 -19 0 -20 8 -20 141 0 128 2 140 18 137 12 -2 18 -14
20 -43z m7480 28 c-2 -11 -12 -18 -27 -18 -15 0 -27 -8 -32 -22 -7 -20 -5 -23
16 -23 16 0 25 -6 25 -15 0 -9 -9 -15 -25 -15 -25 0 -25 -1 -25 -85 0 -78 -2
-85 -20 -85 -18 0 -20 7 -20 85 0 69 -3 85 -15 85 -19 0 -20 16 -1 27 8 4 21
25 29 46 15 34 19 37 57 37 34 0 41 -3 38 -17z m-15126 -68 c15 -38 32 -83 38
-100 11 -30 12 -29 50 65 39 97 55 118 84 107 14 -6 16 -23 14 -134 -3 -120
-4 -128 -23 -128 -18 0 -20 8 -25 85 l-5 85 -33 -88 c-45 -118 -58 -117 -105
6 l-36 92 0 -92 c-1 -86 -2 -93 -21 -93 -19 0 -20 7 -20 128 0 71 3 132 7 136
4 4 16 6 27 4 15 -2 28 -22 48 -73z m6463 65 c47 -11 65 -32 65 -76 0 -48 -28
-75 -83 -81 l-47 -6 0 -48 c0 -42 -3 -49 -20 -49 -19 0 -20 7 -20 128 0 71 3
132 7 135 9 10 50 8 98 -3z m8129 0 c17 -6 24 -14 20 -25 -5 -12 -17 -14 -60
-9 -50 6 -55 5 -83 -24 -56 -55 -33 -151 39 -167 49 -11 70 1 70 41 0 31 -2
34 -30 34 -20 0 -30 5 -30 15 0 11 12 15 50 15 l51 0 -3 -67 -3 -68 -45 -7
c-63 -9 -114 6 -145 44 -24 29 -27 38 -23 94 3 44 10 69 23 85 39 43 113 61
169 39z m-14220 -79 c9 -10 20 -35 23 -55 l6 -36 -67 0 c-72 0 -83 -11 -46
-45 15 -14 29 -16 60 -11 31 5 40 3 40 -8 0 -21 -17 -29 -66 -29 -51 0 -80 21
-92 67 -10 38 0 91 24 117 23 26 94 26 118 0z m193 11 c22 -14 -2 -35 -32 -28
-30 8 -65 0 -65 -15 0 -6 17 -17 38 -26 49 -20 72 -41 72 -68 0 -35 -34 -58
-85 -57 -50 0 -65 7 -65 27 0 11 13 14 52 12 41 -2 53 1 56 14 2 11 -10 22
-37 32 -22 9 -48 28 -57 42 -15 23 -15 27 0 50 14 21 24 25 64 25 26 0 52 -4
59 -8z m407 -11 c9 -10 20 -35 23 -55 l6 -36 -67 0 c-72 0 -83 -11 -46 -45 15
-14 29 -16 60 -11 31 5 40 3 40 -8 0 -21 -17 -29 -66 -29 -51 0 -80 21 -92 67
-10 38 0 91 24 117 23 26 94 26 118 0z m96 7 c0 -9 3 -9 12 0 7 7 35 12 64 12
l52 0 22 -62 c13 -35 26 -66 29 -70 4 -4 17 24 30 62 18 53 29 70 43 70 10 0
18 -6 18 -12 0 -16 -65 -190 -86 -229 -25 -48 -94 -70 -94 -29 0 15 7 20 25
20 18 0 28 7 36 27 8 22 4 41 -22 107 -32 81 -49 111 -49 87 0 -7 -5 -9 -10
-6 -6 4 -22 -1 -35 -9 -23 -15 -25 -23 -25 -86 0 -63 -2 -70 -20 -70 -19 0
-20 7 -20 100 0 82 3 100 15 100 8 0 15 -5 15 -12z m5805 -14 c27 -30 34 -98
14 -136 -15 -28 -70 -49 -104 -39 -65 17 -90 116 -44 175 29 37 99 37 134 0z
m95 14 c0 -9 3 -9 12 0 7 7 28 12 48 12 20 0 41 -5 48 -12 9 -9 15 -9 24 0 17
17 78 15 100 -5 15 -13 18 -31 18 -100 0 -76 -2 -83 -20 -83 -18 0 -20 7 -20
73 0 71 -10 97 -36 97 -30 0 -44 -31 -44 -101 0 -62 -2 -69 -20 -69 -17 0 -19
8 -22 76 -2 60 -7 79 -20 88 -13 8 -23 8 -35 0 -14 -9 -19 -28 -21 -88 -3 -68
-5 -76 -22 -76 -19 0 -20 7 -20 100 0 82 3 100 15 100 8 0 15 -5 15 -12z m444
-7 c9 -10 20 -35 23 -55 l6 -36 -67 0 c-72 0 -83 -11 -46 -45 15 -14 29 -16
60 -11 31 5 40 3 40 -8 0 -21 -17 -29 -66 -29 -51 0 -80 21 -92 67 -10 38 0
91 24 117 23 26 94 26 118 0z m550 0 c9 -10 20 -35 23 -55 l6 -36 -67 0 c-72
0 -83 -11 -46 -45 15 -14 29 -16 60 -11 31 5 40 3 40 -8 0 -21 -17 -29 -66
-29 -51 0 -80 21 -92 67 -10 38 0 91 24 117 23 26 94 26 118 0z m96 -47 c0
-76 12 -104 44 -104 36 0 48 23 54 101 4 57 8 69 21 67 13 -3 17 -20 19 -96 2
-80 0 -93 -15 -99 -9 -4 -18 -2 -20 4 -3 8 -12 7 -31 -3 -28 -14 -69 -9 -91
12 -10 9 -16 43 -19 99 -4 81 -4 85 17 85 19 0 21 -5 21 -66z m307 58 c22 -14
-2 -35 -32 -28 -30 8 -65 0 -65 -15 0 -6 17 -17 38 -26 49 -20 72 -41 72 -68
0 -35 -34 -58 -85 -57 -50 0 -65 7 -65 27 0 11 13 14 52 12 41 -2 53 1 56 14
2 11 -10 22 -37 32 -22 9 -48 28 -57 42 -15 23 -15 27 0 50 14 21 24 25 64 25
26 0 52 -4 59 -8z m6590 -22 c7 -14 13 -58 13 -99 l0 -73 -27 5 c-15 3 -37 1
-50 -4 -25 -9 -72 4 -85 24 -28 43 18 97 83 97 43 0 44 2 28 31 -9 17 -17 19
-49 14 -25 -4 -40 -2 -45 5 -12 19 16 30 70 28 41 -3 52 -7 62 -28z m320 0 c7
-14 13 -58 13 -99 l0 -73 -27 5 c-15 3 -37 1 -50 -4 -25 -9 -72 4 -85 24 -28
43 18 97 83 97 43 0 44 2 28 31 -9 17 -17 19 -49 14 -25 -4 -40 -2 -45 5 -12
19 16 30 70 28 41 -3 52 -7 62 -28z m93 18 c0 -9 3 -9 12 0 16 16 80 15 104
-2 16 -12 20 -29 23 -100 3 -82 2 -86 -18 -86 -19 0 -21 6 -21 68 0 85 -15
111 -57 97 -27 -10 -28 -13 -31 -88 -3 -69 -5 -77 -22 -77 -19 0 -20 7 -20
100 0 82 3 100 15 100 8 0 15 -5 15 -12z m327 -18 c7 -14 13 -58 13 -99 l0
-73 -27 5 c-15 3 -37 1 -50 -4 -25 -9 -72 4 -85 24 -28 43 18 97 83 97 43 0
44 2 28 31 -9 17 -17 19 -49 14 -25 -4 -40 -2 -45 5 -12 19 16 30 70 28 41 -3
52 -7 62 -28z m-21729 -116 c14 -4 22 -13 20 -23 -3 -13 -14 -15 -53 -13 -29
1 -57 -3 -66 -10 -45 -36 -52 -111 -15 -155 21 -24 31 -28 75 -27 43 0 51 -2
51 -18 0 -13 -8 -19 -27 -20 -83 -5 -121 8 -146 52 -22 37 -22 123 0 161 29
48 96 70 161 53z m376 -83 c9 -10 20 -35 23 -55 l6 -36 -67 0 c-72 0 -83 -11
-46 -45 15 -14 29 -16 60 -11 31 5 40 3 40 -8 0 -21 -17 -29 -66 -29 -51 0
-80 21 -92 67 -10 38 0 91 24 117 23 26 94 26 118 0z m96 7 c0 -9 3 -9 12 0
16 16 80 15 104 -2 16 -12 20 -29 23 -100 3 -82 2 -86 -18 -86 -19 0 -21 6
-21 68 0 85 -15 111 -57 97 -27 -10 -28 -13 -31 -88 -3 -69 -5 -77 -22 -77
-19 0 -20 7 -20 100 0 82 3 100 15 100 8 0 15 -5 15 -12z m5795 -138 c37 -14
26 -36 -16 -32 -88 8 -108 -36 -33 -73 63 -31 74 -43 74 -86 0 -50 -32 -73
-100 -72 -54 1 -70 7 -70 29 0 13 9 14 53 9 42 -5 56 -3 66 9 21 25 8 50 -34
70 -58 27 -75 45 -75 82 0 59 66 90 135 64z m199 -79 c9 -10 20 -35 23 -55 l6
-36 -67 0 c-72 0 -83 -11 -46 -45 15 -14 29 -16 60 -11 31 5 40 3 40 -8 0 -21
-17 -29 -66 -29 -51 0 -80 21 -92 67 -10 38 0 91 24 117 23 26 94 26 118 0z
m106 7 c0 -9 3 -9 12 0 7 7 33 12 59 12 l48 0 22 -70 c13 -38 26 -70 29 -70 3
0 16 32 29 70 18 53 29 70 43 70 25 0 23 -12 -15 -110 -29 -74 -37 -85 -57
-85 -21 0 -28 11 -53 77 -16 42 -36 79 -44 83 -9 3 -26 -2 -39 -10 -21 -14
-24 -23 -24 -85 0 -63 -2 -70 -20 -70 -19 0 -20 7 -20 100 0 82 3 100 15 100
8 0 15 -5 15 -12z m424 -7 c9 -10 20 -35 23 -55 l6 -36 -67 0 c-72 0 -83 -11
-46 -45 15 -14 29 -16 60 -11 31 5 40 3 40 -8 0 -21 -17 -29 -66 -29 -51 0
-80 21 -92 67 -10 38 0 91 24 117 23 26 94 26 118 0z m5856 7 c0 -9 3 -9 12 0
16 16 80 15 104 -2 16 -12 20 -29 23 -100 3 -82 2 -86 -18 -86 -19 0 -21 6
-21 68 0 85 -15 111 -57 97 -27 -10 -28 -13 -31 -88 -3 -69 -5 -77 -22 -77
-19 0 -20 7 -20 100 0 82 3 100 15 100 8 0 15 -5 15 -12z m307 4 c22 -14 -2
-35 -32 -28 -30 8 -65 0 -65 -15 0 -6 17 -17 38 -26 49 -20 72 -41 72 -68 0
-35 -34 -58 -85 -57 -50 0 -65 7 -65 27 0 11 13 14 52 12 41 -2 53 1 56 14 2
11 -10 22 -37 32 -22 9 -48 28 -57 42 -15 23 -15 27 0 50 14 21 24 25 64 25
26 0 52 -4 59 -8z m320 -22 c7 -14 13 -58 13 -99 l0 -73 -27 5 c-15 3 -37 1
-50 -4 -25 -9 -72 4 -85 24 -28 43 18 97 83 97 43 0 44 2 28 31 -9 17 -17 19
-49 14 -25 -4 -40 -2 -45 5 -12 19 16 30 70 28 41 -3 52 -7 62 -28z m93 18 c0
-9 3 -9 12 0 16 16 80 15 104 -2 16 -12 20 -29 23 -100 3 -82 2 -86 -18 -86
-19 0 -21 6 -21 68 0 85 -15 111 -57 97 -27 -10 -28 -13 -31 -88 -3 -69 -5
-77 -22 -77 -19 0 -20 7 -20 100 0 82 3 100 15 100 8 0 15 -5 15 -12z m494 -7
c9 -10 20 -35 23 -55 l6 -36 -67 0 c-72 0 -83 -11 -46 -45 15 -14 29 -16 60
-11 31 5 40 3 40 -8 0 -21 -17 -29 -66 -29 -51 0 -80 21 -92 67 -10 38 0 91
24 117 23 26 94 26 118 0z m6476 7 c0 -9 3 -9 12 0 16 16 80 15 104 -2 16 -12
20 -29 23 -100 3 -82 2 -86 -18 -86 -19 0 -21 6 -21 68 0 85 -15 111 -57 97
-27 -10 -28 -13 -31 -88 -3 -69 -5 -77 -22 -77 -19 0 -20 7 -20 100 0 82 3
100 15 100 8 0 15 -5 15 -12z m307 4 c22 -14 -2 -35 -32 -28 -30 8 -65 0 -65
-15 0 -6 17 -17 38 -26 49 -20 72 -41 72 -68 0 -35 -34 -58 -85 -57 -50 0 -65
7 -65 27 0 11 13 14 52 12 41 -2 53 1 56 14 2 11 -10 22 -37 32 -22 9 -48 28
-57 42 -15 23 -15 27 0 50 14 21 24 25 64 25 26 0 52 -4 59 -8z m320 -22 c7
-14 13 -58 13 -99 l0 -73 -27 5 c-15 3 -37 1 -50 -4 -25 -9 -72 4 -85 24 -28
43 18 97 83 97 43 0 44 2 28 31 -9 17 -17 19 -49 14 -25 -4 -40 -2 -45 5 -12
19 16 30 70 28 41 -3 52 -7 62 -28z m93 18 c0 -9 3 -9 12 0 16 16 80 15 104
-2 16 -12 20 -29 23 -100 3 -82 2 -86 -18 -86 -19 0 -21 6 -21 68 0 85 -15
111 -57 97 -27 -10 -28 -13 -31 -88 -3 -69 -5 -77 -22 -77 -19 0 -20 7 -20
100 0 82 3 100 15 100 8 0 15 -5 15 -12z m494 -7 c9 -10 20 -35 23 -55 l6 -36
-67 0 c-72 0 -83 -11 -46 -45 15 -14 29 -16 60 -11 31 5 40 3 40 -8 0 -21 -17
-29 -66 -29 -51 0 -80 21 -92 67 -10 38 0 91 24 117 23 26 94 26 118 0z
m-12954 -123 c0 -80 -3 -98 -15 -98 -10 0 -15 10 -15 30 0 27 -3 30 -29 30
-39 0 -61 24 -61 66 0 48 28 73 79 71 l41 -1 0 -98z m1196 77 c35 -47 5 -115
-52 -115 -31 0 -34 -2 -34 -30 0 -16 -4 -30 -10 -30 -6 0 -10 40 -10 99 l0 99
46 -2 c32 -1 50 -7 60 -21z m1964 10 c0 -8 -4 -15 -10 -15 -5 0 -10 -11 -10
-25 0 -19 -8 -29 -32 -39 -29 -13 -30 -14 -10 -15 59 -2 82 -46 40 -75 -26
-18 -61 -20 -89 -6 -19 11 -26 44 -10 54 12 8 20 55 10 62 -14 8 -10 41 7 58
21 22 104 22 104 1z m-2530 -328 l0 -94 -44 -1 c-54 -2 -76 16 -76 64 0 43 32
78 66 71 21 -4 24 0 24 24 0 19 5 29 15 29 12 0 15 -17 15 -93z m-9030 -236
l0 -139 -37 10 c-39 10 -153 6 -185 -7 -17 -7 -18 2 -18 103 0 60 3 124 6 141
l7 31 113 0 114 0 0 -139z m6370 -172 l0 -311 30 -11 c17 -6 30 -15 30 -18 0
-7 -153 -99 -165 -99 -3 0 -5 26 -5 58 0 81 -16 99 -22 23 -2 -33 -7 -63 -10
-67 -8 -7 -148 75 -148 87 0 5 11 11 25 15 l25 6 0 314 0 314 120 0 120 0 0
-311z m6750 203 c0 -60 -3 -143 -6 -185 l-7 -77 -113 0 -114 0 0 185 0 185
120 0 120 0 0 -108z m7690 -1477 l0 -1585 -120 0 -120 0 0 1585 0 1585 120 0
120 0 0 -1585z m-12822 1377 l3 -90 -53 1 c-47 2 -54 5 -66 30 -27 56 15 119
68 102 17 -5 20 -2 20 25 0 21 4 30 13 28 8 -3 13 -34 15 -96z m-166 31 c20
-18 24 -73 8 -104 -8 -13 -21 -19 -45 -19 -32 0 -35 -2 -35 -30 0 -20 -5 -30
-15 -30 -12 0 -15 17 -15 93 0 52 2 96 4 98 13 12 83 6 98 -8z m-7820 -143
c104 -39 174 -128 185 -234 26 -253 -312 -400 -513 -223 -162 142 -108 387
103 463 57 20 163 17 225 -6z m4372 -6 c20 -20 21 -58 1 -74 -13 -11 -13 -16
5 -45 24 -38 25 -45 6 -45 -8 0 -24 16 -36 35 -12 19 -28 35 -36 35 -9 0 -14
-11 -14 -35 0 -24 -5 -35 -15 -35 -12 0 -15 16 -15 83 0 46 3 87 7 90 13 13
82 7 97 -9z m-2684 -39 c0 -8 -4 -15 -10 -15 -5 0 -10 -11 -10 -25 0 -19 -8
-29 -32 -39 -29 -13 -30 -14 -10 -15 59 -2 82 -46 40 -75 -26 -18 -61 -20 -89
-6 -19 11 -26 44 -10 54 12 8 20 55 10 62 -14 8 -10 41 7 58 21 22 104 22 104
1z m6134 -71 c20 -20 21 -58 1 -74 -13 -11 -13 -16 5 -45 24 -38 25 -45 6 -45
-8 0 -24 16 -36 35 -12 19 -28 35 -36 35 -9 0 -14 -11 -14 -35 0 -24 -5 -35
-15 -35 -12 0 -15 16 -15 83 0 46 3 87 7 90 13 13 82 7 97 -9z m-5528 -239
c35 -47 5 -115 -52 -115 -31 0 -34 -2 -34 -30 0 -16 -4 -30 -10 -30 -6 0 -10
40 -10 99 l0 99 46 -2 c32 -1 50 -7 60 -21z m286 8 c20 -18 24 -73 8 -104 -8
-13 -21 -19 -45 -19 -32 0 -35 -2 -35 -30 0 -20 -5 -30 -15 -30 -12 0 -15 17
-15 93 0 52 2 96 4 98 13 12 83 6 98 -8z m2021 11 c3 -3 2 -14 -3 -23 -5 -9
-11 -24 -14 -33 -3 -10 -20 -24 -38 -32 -31 -14 -32 -14 -7 -15 37 -1 61 -23
57 -51 -4 -31 -47 -48 -85 -34 -24 8 -28 15 -26 44 2 19 3 55 3 79 0 24 5 50
11 58 11 13 90 19 102 7z m8272 -37 c37 -52 7 -127 -50 -127 -31 0 -34 -3 -37
-32 -2 -21 -8 -33 -18 -33 -12 0 -16 20 -18 107 l-3 107 31 -1 c17 -1 33 1 36
4 10 11 45 -4 59 -25z m-6733 -33 c34 -19 67 -39 71 -44 7 -6 -128 -90 -147
-90 -3 0 -6 38 -6 85 0 47 4 85 9 85 5 0 38 -16 73 -36z m1896 -82 l3 -90 -53
1 c-47 2 -54 5 -66 30 -27 56 15 119 68 102 17 -5 20 -2 20 25 0 21 4 30 13
28 8 -3 13 -34 15 -96z m-1645 -65 l29 -20 -69 -39 c-100 -59 -93 -62 -93 34
0 47 3 88 6 91 7 6 71 -27 127 -66z m-6566 -14 l43 -6 0 -121 0 -121 -60 -32
-60 -32 0 165 c0 152 1 166 17 160 9 -4 36 -10 60 -13z m163 -56 c0 -35 -3
-98 -6 -140 -6 -71 -8 -76 -26 -66 -11 6 -26 8 -33 5 -21 -8 -25 17 -25 139
l0 114 33 4 c17 2 38 5 45 5 8 2 12 -17 12 -61z m6156 -19 c86 -49 88 -40 -28
-106 l-58 -33 0 90 c0 50 2 91 5 91 3 0 39 -19 81 -42z m205 -119 c38 -23 69
-43 69 -44 0 -6 -139 -85 -149 -85 -7 0 -11 31 -11 85 0 54 4 85 11 85 6 0 42
-19 80 -41z m-6371 -355 c0 -127 -3 -245 -6 -262 -6 -31 -7 -31 -35 -16 -16 8
-33 12 -38 9 -5 -2 -11 2 -15 10 -3 8 -1 15 4 15 6 0 10 99 10 259 l0 259 40
-21 40 -22 0 -231z m6165 240 c36 -20 67 -39 69 -43 4 -6 -102 -70 -146 -89
-5 -2 -8 35 -8 82 0 49 4 86 10 86 5 0 39 -16 75 -36z m-6275 -237 l0 -253
-65 -32 -65 -32 0 218 c0 291 -1 286 69 322 31 16 57 29 59 30 1 0 2 -114 2
-253z m13270 148 c0 -8 -5 -15 -11 -15 -5 0 -7 -4 -4 -10 10 -16 -13 -47 -42
-56 l-28 -8 34 -5 c41 -7 61 -33 45 -58 -15 -24 -55 -37 -88 -29 -33 8 -43 32
-27 58 8 13 10 37 6 68 -8 57 5 69 73 70 31 0 42 -4 42 -15z m-6770 -2155 l0
-1930 -120 0 -120 0 0 1925 0 1924 78 -5 c42 -4 93 -2 112 4 19 6 38 11 43 11
4 1 7 -867 7 -1929z m6741 1178 c1 -611 5 -728 25 -748 23 -23 43 1 46 53 2
29 8 52 16 55 9 3 12 -15 12 -66 l0 -69 -47 -2 c-26 -1 -49 -3 -51 -6 -3 -3
-7 -122 -10 -265 l-5 -260 -113 0 -114 0 0 958 c0 527 3 962 7 965 3 4 57 7
120 7 l113 0 1 -622z m-13186 515 l45 -28 0 -70 c1 -177 -71 -4790 -76 -4862
l-6 -83 -114 0 -114 0 0 138 c2 496 79 4857 86 4859 5 2 36 19 69 37 33 19 61
35 62 35 1 1 23 -11 48 -26z m3605 -826 l0 -94 -44 -1 c-54 -2 -76 16 -76 64
0 43 32 78 66 71 21 -4 24 0 24 24 0 19 5 29 15 29 12 0 15 -17 15 -93z m750
0 l0 -94 -44 -1 c-54 -2 -76 16 -76 64 0 43 32 78 66 71 21 -4 24 0 24 24 0
19 5 29 15 29 12 0 15 -17 15 -93z m-1289 73 c20 -11 26 -54 8 -65 -7 -5 -4
-14 8 -27 16 -18 16 -22 2 -46 -12 -23 -22 -27 -67 -30 l-52 -3 0 90 0 91 41
0 c22 0 49 -5 60 -10z m8059 -380 c0 -27 2 -29 29 -24 57 12 92 -61 55 -114
-12 -18 -24 -22 -60 -20 l-44 1 0 94 c0 55 4 93 10 93 6 0 10 -13 10 -30z
m618 -68 l3 -90 -53 1 c-47 2 -54 5 -66 30 -27 56 15 119 68 102 17 -5 20 -2
20 25 0 21 4 30 13 28 8 -3 13 -34 15 -96z m1020 0 l3 -90 -53 1 c-47 2 -54 5
-66 30 -27 56 15 119 68 102 17 -5 20 -2 20 25 0 21 4 30 13 28 8 -3 13 -34
15 -96z m2590 0 l3 -90 -53 1 c-47 2 -54 5 -66 30 -27 56 15 119 68 102 17 -5
20 -2 20 25 0 21 4 30 13 28 8 -3 13 -34 15 -96z m-549 78 c25 -13 33 -37 21
-60 -7 -13 -7 -21 0 -25 5 -3 10 -19 10 -35 0 -36 -23 -50 -84 -50 l-46 0 0
83 c0 46 3 87 7 90 10 10 72 8 92 -3z m1821 -50 c12 -33 25 -60 29 -60 3 0 15
26 27 58 15 43 26 58 42 60 21 3 22 0 22 -87 0 -74 -3 -91 -15 -91 -12 0 -15
14 -16 63 l0 62 -23 -60 c-30 -77 -46 -80 -71 -13 l-20 53 -3 -52 c-2 -38 -7
-53 -18 -53 -11 0 -14 18 -14 90 0 81 2 90 19 90 14 0 25 -16 41 -60z m710 10
c0 -7 6 -7 19 0 41 22 59 13 79 -42 l19 -52 17 52 c17 50 28 62 40 43 6 -9
-49 -158 -66 -178 -13 -16 -58 -17 -58 -2 0 6 9 13 19 16 31 8 33 33 10 90
-15 38 -27 53 -40 53 -22 0 -39 -36 -39 -81 0 -16 -4 -29 -10 -29 -6 0 -10 30
-10 70 0 40 4 70 10 70 6 0 10 -5 10 -10z m-4160 -1595 l0 -865 -120 0 -120 0
0 423 c0 232 3 621 7 865 l6 442 114 0 113 0 0 -865z m7628 117 c28 -21 42
-75 31 -117 -12 -44 -45 -65 -106 -65 l-53 0 0 100 0 100 53 0 c34 0 60 -6 75
-18z m-5730 -480 l3 -90 -53 1 c-47 2 -54 5 -66 30 -27 56 15 119 68 102 17
-5 20 -2 20 25 0 21 4 30 13 28 8 -3 13 -34 15 -96z m2598 23 c35 -47 5 -115
-52 -115 -31 0 -34 -2 -34 -30 0 -16 -4 -30 -10 -30 -6 0 -10 40 -10 99 l0 99
46 -2 c32 -1 50 -7 60 -21z m309 3 l16 -23 18 21 c10 12 29 22 44 22 23 0 29
-8 45 -51 l19 -51 17 52 c17 50 28 62 40 43 6 -9 -49 -158 -66 -178 -13 -16
-58 -17 -58 -2 0 6 9 13 19 16 11 3 22 12 26 20 5 15 -34 133 -45 133 -3 0
-13 -12 -22 -28 -15 -26 -15 -29 3 -52 23 -30 24 -40 4 -40 -8 0 -19 9 -26 21
l-11 21 -22 -21 c-36 -34 -51 -26 -26 15 l23 36 -21 28 c-19 26 -20 40 -1 40
4 0 15 -10 24 -22z m1058 16 c3 -3 2 -14 -3 -23 -5 -9 -11 -24 -14 -33 -3 -10
-20 -24 -38 -32 -31 -14 -32 -14 -7 -15 37 -1 61 -23 57 -51 -4 -31 -47 -48
-85 -34 -24 8 -28 15 -26 44 2 19 3 55 3 79 0 24 5 50 11 58 11 13 90 19 102
7z m-12593 -1964 l0 -1350 -120 0 -120 0 0 1350 0 1350 120 0 120 0 0 -1350z
m6727 908 c-4 -244 -7 -548 -7 -675 l0 -233 -115 0 -115 0 0 675 0 675 122 0
121 0 -6 -442z m-11627 49 l0 -94 -44 -1 c-54 -2 -76 16 -76 64 0 43 32 78 66
71 21 -4 24 0 24 24 0 19 5 29 15 29 12 0 15 -17 15 -93z m740 0 l0 -94 -44
-1 c-54 -2 -76 16 -76 64 0 43 32 78 66 71 21 -4 24 0 24 24 0 19 5 29 15 29
12 0 15 -17 15 -93z m1058 -5 l3 -90 -53 1 c-47 2 -54 5 -66 30 -27 56 15 119
68 102 17 -5 20 -2 20 25 0 21 4 30 13 28 8 -3 13 -34 15 -96z m122 68 c0 -28
2 -30 25 -24 36 9 65 -20 65 -63 0 -58 -14 -73 -70 -73 l-50 0 0 95 c0 78 3
95 15 95 10 0 15 -10 15 -30z m-1719 10 c20 -11 26 -54 8 -65 -7 -5 -4 -14 8
-27 16 -18 16 -22 2 -46 -12 -23 -22 -27 -67 -30 l-52 -3 0 90 0 91 41 0 c22
0 49 -5 60 -10z m19139 -1180 l0 -1190 -120 0 -120 0 0 1190 0 1190 120 0 120
0 0 -1190z m-13388 536 c41 -31 45 -125 7 -149 -18 -11 -18 -12 3 -34 l21 -23
-24 0 c-13 0 -30 9 -37 20 -7 11 -23 20 -36 20 -61 0 -89 108 -41 155 27 28
79 33 107 11z m2481 3 c44 -20 59 -77 32 -128 -17 -34 -33 -41 -91 -41 l-44 0
0 83 c0 46 3 87 7 90 10 11 70 8 96 -4z m980 -35 c3 -3 2 -14 -3 -23 -5 -9
-11 -24 -14 -33 -3 -10 -20 -24 -38 -32 -31 -14 -32 -14 -7 -15 37 -1 61 -23
57 -51 -4 -31 -47 -48 -85 -34 -24 8 -28 15 -26 44 2 19 3 55 3 79 0 24 5 50
11 58 11 13 90 19 102 7z m-3473 -337 l0 -94 -44 -1 c-54 -2 -76 16 -76 64 0
43 32 78 66 71 21 -4 24 0 24 24 0 19 5 29 15 29 12 0 15 -17 15 -93z m-4510
28 c15 -13 20 -31 20 -66 0 -61 -31 -89 -96 -89 l-44 0 0 91 0 92 50 -5 c28
-3 59 -13 70 -23z m1920 -30 c0 -8 -4 -15 -10 -15 -5 0 -10 -11 -10 -25 0 -19
-8 -29 -32 -39 -29 -13 -30 -14 -10 -15 59 -2 82 -46 40 -75 -26 -18 -61 -20
-89 -6 -19 11 -26 44 -10 54 12 8 20 55 10 62 -14 8 -10 41 7 58 21 22 104 22
104 1z m-3704 -310 c35 -47 5 -115 -52 -115 -31 0 -34 -2 -34 -30 0 -16 -4
-30 -10 -30 -6 0 -10 40 -10 99 l0 99 46 -2 c32 -1 50 -7 60 -21z m11932 -273
c28 -21 42 -75 31 -117 -12 -44 -45 -65 -106 -65 l-53 0 0 100 0 100 53 0 c34
0 60 -6 75 -18z m-13783 -162 c0 -12 -10 -14 -43 -12 -56 5 -82 -17 -82 -69 0
-47 21 -69 66 -69 30 0 34 3 34 25 0 18 -5 25 -20 25 -11 0 -20 7 -20 15 0 10
11 15 35 15 l35 0 0 -55 0 -55 -58 0 c-67 0 -96 19 -107 70 -18 80 27 133 109
128 37 -2 51 -7 51 -18z m431 -66 c11 -27 12 -40 1 -71 -12 -36 -14 -38 -55
-38 -42 0 -42 0 -42 -37 0 -27 -4 -38 -15 -38 -12 0 -15 19 -15 109 l0 110 30
-1 c17 -1 33 1 36 4 13 14 47 -8 60 -38z m174 -524 l0 -50 -115 0 -115 0 0 50
0 50 115 0 115 0 0 -50z m13220 10 l0 -40 -120 0 -120 0 0 40 0 40 120 0 120
0 0 -40z m-3030 -233 l0 -94 -44 -1 c-54 -2 -76 16 -76 64 0 43 32 78 66 71
21 -4 24 0 24 24 0 19 5 29 15 29 12 0 15 -17 15 -93z m-1580 23 c12 -33 25
-60 29 -60 3 0 15 26 27 58 15 43 26 58 42 60 21 3 22 0 22 -87 0 -74 -3 -91
-15 -91 -12 0 -15 14 -16 63 l0 62 -23 -60 c-30 -77 -46 -80 -71 -13 l-20 53
-3 -52 c-2 -38 -7 -53 -18 -53 -11 0 -14 18 -14 90 0 81 2 90 19 90 14 0 25
-16 41 -60z m808 -32 l19 -52 17 52 c17 50 28 62 40 43 6 -9 -49 -158 -66
-178 -13 -16 -58 -17 -58 -2 0 6 9 13 20 16 30 8 32 34 7 96 -22 54 -24 56
-47 44 -21 -10 -26 -21 -28 -60 -2 -33 -7 -47 -18 -47 -11 0 -14 15 -14 63 0
35 2 66 4 68 3 2 27 5 54 7 l50 3 20 -53z m-1210 -296 l3 -90 -53 1 c-47 2
-54 5 -66 30 -27 56 15 119 68 102 17 -5 20 -2 20 25 0 21 4 30 13 28 8 -3 13
-34 15 -96z"/>
<path d="M1470 15454 l0 -157 93 5 c113 6 166 29 192 84 22 46 16 124 -12 162
-27 38 -102 61 -195 62 l-78 0 0 -156z"/>
<path d="M2681 15420 c-46 -11 -81 -39 -105 -86 -17 -31 -21 -57 -21 -134 0
-83 3 -101 25 -139 32 -58 79 -85 145 -85 66 0 113 27 145 85 22 38 25 56 25
139 0 83 -3 101 -25 139 -38 68 -111 99 -189 81z"/>
<path d="M4365 15420 c-43 -13 -84 -59 -100 -114 l-14 -46 151 0 151 0 -6 40
c-12 94 -93 147 -182 120z"/>
<path d="M6055 15420 c-43 -13 -84 -59 -100 -114 l-14 -46 151 0 151 0 -6 40
c-12 94 -93 147 -182 120z"/>
<path d="M9574 15180 c-112 -16 -160 -81 -119 -160 21 -41 80 -58 143 -41 80
21 122 78 122 166 l0 45 -47 -1 c-27 -1 -71 -5 -99 -9z"/>
<path d="M1420 14427 c0 -3 -56 -263 -65 -304 -5 -19 -1 -23 20 -23 53 0 115
23 148 55 72 70 77 228 8 265 -17 9 -111 15 -111 7z"/>
<path d="M6610 14427 c0 -3 -56 -263 -65 -304 -5 -19 -1 -23 20 -23 53 0 115
23 148 55 72 70 77 228 8 265 -17 9 -111 15 -111 7z"/>
<path d="M1798 14303 c-34 -36 -49 -76 -50 -137 -1 -37 3 -52 17 -62 24 -18
24 -18 63 6 57 35 97 163 63 204 -21 25 -64 20 -93 -11z"/>
<path d="M2338 14303 c-34 -36 -49 -76 -50 -137 -1 -37 3 -52 17 -62 24 -18
24 -18 63 6 57 35 97 163 63 204 -21 25 -64 20 -93 -11z"/>
<path d="M3022 14314 c-29 -20 -41 -43 -51 -101 -7 -35 -6 -57 4 -80 12 -29
18 -33 53 -33 44 0 72 25 91 79 36 108 -21 188 -97 135z"/>
<path d="M4538 14303 c-34 -36 -49 -76 -50 -137 -1 -37 3 -52 17 -62 24 -18
24 -18 63 6 57 35 97 163 63 204 -21 25 -64 20 -93 -11z"/>
<path d="M7148 14303 c-34 -36 -49 -76 -50 -137 -1 -37 3 -52 17 -62 24 -18
24 -18 63 6 57 35 97 163 63 204 -21 25 -64 20 -93 -11z"/>
<path d="M7395 14048 c-45 -25 -49 -73 -7 -89 56 -22 142 11 142 55 0 39 -88
61 -135 34z"/>
<path d="M8018 14303 c-34 -36 -49 -76 -50 -137 -1 -37 3 -52 17 -62 24 -18
24 -18 63 6 57 35 97 163 63 204 -21 25 -64 20 -93 -11z"/>
</g>
</svg>
