<svg width="90" height="90" viewBox="0 0 90 90" fill="none" xmlns="http://www.w3.org/2000/svg">
<path fill-rule="evenodd" clip-rule="evenodd" d="M31.9087 14.0645V22.1306H58.7628V14.0645H31.9087ZM25.8409 12.379V22.1306H3.3484C2.6037 22.1306 2 22.7343 2 23.479V80.6549C2 81.3996 2.60369 82.0033 3.34839 82.0033H86.6516C87.3963 82.0033 88 81.3996 88 80.6549V23.479C88 22.7343 87.3963 22.1306 86.6516 22.1306H64.8306V12.379C64.8306 9.95873 62.8685 7.9967 60.4483 7.9967H30.2232C27.8029 7.9967 25.8409 9.95872 25.8409 12.379ZM45.6651 53.1469C45.6651 52.7746 45.9669 52.4727 46.3393 52.4727H74.56C74.9323 52.4727 75.2341 52.7746 75.2341 53.1469V73.2565C75.2341 73.6288 74.9323 73.9306 74.56 73.9306H46.3393C45.9669 73.9306 45.6651 73.6288 45.6651 73.2565V53.1469ZM51.1677 68.8023C51.5305 68.8023 51.8329 68.4649 51.8329 68.0601V58.2758C51.8329 57.8709 51.5305 57.5336 51.1677 57.5336C50.8049 57.5336 50.5026 57.8709 50.5026 58.2758V68.0601C50.5026 68.4649 50.8049 68.8023 51.1677 68.8023ZM57.3355 68.8023C57.6983 68.8023 58.0006 68.4649 58.0006 68.0601V58.2758C58.0006 57.8709 57.6983 57.5336 57.3355 57.5336C56.9727 57.5336 56.6703 57.8709 56.6703 58.2758V68.0601C56.6703 68.4649 56.9727 68.8023 57.3355 68.8023ZM63.5033 68.8023C63.8661 68.8023 64.1684 68.4649 64.1684 68.0601V58.2758C64.1684 57.8709 63.8661 57.5336 63.5033 57.5336C63.1405 57.5336 62.8381 57.8709 62.8381 58.2758V68.0601C62.8381 68.4649 63.1405 68.8023 63.5033 68.8023ZM69.671 68.8023C70.0339 68.8023 70.3362 68.4649 70.3362 68.0601V58.2758C70.3362 57.8709 70.0339 57.5336 69.671 57.5336C69.3082 57.5336 69.0059 57.8709 69.0059 58.2758V68.0601C69.0059 68.4649 69.3082 68.8023 69.671 68.8023ZM30.8591 29.5305C30.4868 29.5305 30.185 29.8324 30.185 30.2047V50.3142C30.185 50.6866 30.4868 50.9884 30.8591 50.9884H59.0798C59.4522 50.9884 59.754 50.6866 59.754 50.3142V30.2047C59.754 29.8324 59.4522 29.5305 59.0798 29.5305H30.8591ZM36.3527 45.1853C36.3527 45.5902 36.0504 45.9276 35.6876 45.9276C35.3248 45.9276 35.0224 45.5902 35.0224 45.1853V35.4011C35.0224 34.9962 35.3248 34.6588 35.6876 34.6588C36.0504 34.6588 36.3527 34.9962 36.3527 35.4011V45.1853ZM42.581 45.1853C42.581 45.5902 42.2786 45.9276 41.9158 45.9276C41.553 45.9276 41.2507 45.5902 41.2507 45.1853V35.4011C41.2507 34.9962 41.553 34.6588 41.9158 34.6588C42.2786 34.6588 42.581 34.9962 42.581 35.4011V45.1853ZM48.7488 45.1853C48.7488 45.5902 48.4464 45.9276 48.0836 45.9276C47.7208 45.9276 47.4185 45.5902 47.4185 45.1853V35.4011C47.4185 34.9962 47.7208 34.6588 48.0836 34.6588C48.4464 34.6588 48.7488 34.9962 48.7488 35.4011V45.1853ZM54.9165 45.1853C54.9165 45.5902 54.6142 45.9276 54.2514 45.9276C53.8886 45.9276 53.5862 45.5902 53.5862 45.1853V35.4011C53.5862 34.9962 53.8886 34.6588 54.2514 34.6588C54.6142 34.6588 54.9165 34.9962 54.9165 35.4011V45.1853ZM14.7652 53.1469C14.7652 52.7746 15.067 52.4727 15.4394 52.4727H43.66C44.0324 52.4727 44.3342 52.7746 44.3342 53.1469V73.2565C44.3342 73.6288 44.0324 73.9306 43.66 73.9306H15.4394C15.067 73.9306 14.7652 73.6288 14.7652 73.2565V53.1469ZM20.2678 68.8023C20.6306 68.8023 20.933 68.4649 20.933 68.0601V58.2758C20.933 57.8709 20.6306 57.5336 20.2678 57.5336C19.905 57.5336 19.6026 57.8709 19.6026 58.2758V68.0601C19.6026 68.4649 19.905 68.8023 20.2678 68.8023ZM26.4356 68.8023C26.7984 68.8023 27.1007 68.4649 27.1007 68.0601V58.2758C27.1007 57.8709 26.7984 57.5336 26.4356 57.5336C26.0728 57.5336 25.7704 57.8709 25.7704 58.2758V68.0601C25.7704 68.4649 26.0728 68.8023 26.4356 68.8023ZM32.6034 68.8023C32.9662 68.8023 33.2685 68.4649 33.2685 68.0601V58.2758C33.2685 57.8709 32.9662 57.5336 32.6034 57.5336C32.2405 57.5336 31.9382 57.8709 31.9382 58.2758V68.0601C31.9382 68.4649 32.2405 68.8023 32.6034 68.8023ZM38.8316 68.8023C39.1944 68.8023 39.4968 68.4649 39.4968 68.0601V58.2758C39.4968 57.8709 39.1944 57.5336 38.8316 57.5336C38.4688 57.5336 38.1664 57.8709 38.1664 58.2758V68.0601C38.1664 68.4649 38.4688 68.8023 38.8316 68.8023Z" fill="#326CE5"/>
</svg>
