<svg xmlns="http://www.w3.org/2000/svg" viewBox="0 0 95.7 100.47"><defs><style>.cls-1{fill:#fff;}</style></defs><g id="Layer_2" data-name="Layer 2"><g id="Layer_1-2" data-name="Layer 1"><path class="cls-1" d="M62.49,79.8v9.4a6.51,6.51,0,0,1-3.25,5.63L51,99.6a6.5,6.5,0,0,1-6.3.11l-9.3-4.93A6.48,6.48,0,0,1,31.92,89V80a6.48,6.48,0,0,1,3.45-5.74l9.3-4.93a6.5,6.5,0,0,1,6.3.11l8.27,4.77A6.51,6.51,0,0,1,62.49,79.8ZM86.85,50.7a6.5,6.5,0,0,0,6.5-6.5V26a6.5,6.5,0,0,0-6.5-6.5H68.65a6.5,6.5,0,0,0-6.5,6.5V44.2a6.5,6.5,0,0,0,6.5,6.5Zm6,6.5L91.1,54.11a8,8,0,0,1-1.91.23h-7l3.9,6.76A13,13,0,0,1,74.87,80.6h-10v7.8h10A20.8,20.8,0,0,0,92.88,57.2ZM9.57,61.1l4.51-7.81a20.42,20.42,0,0,1-7.39-2.8L2.82,57.2a20.8,20.8,0,0,0,18,31.2h8.94V80.6H20.83A13,13,0,0,1,9.57,61.1ZM18,16.9a16.9,16.9,0,1,0,16.9,16.9A16.9,16.9,0,0,0,18,16.9Zm15.13,3.48,3.51-6.08a13,13,0,0,1,22.52,0l2.79,4.83a7.75,7.75,0,0,1,5.45-2.23h2.27l-3.76-6.5a20.79,20.79,0,0,0-36,0l-2.88,5A20.17,20.17,0,0,1,33.08,20.38Z"/></g></g></svg>