<svg width="162" height="206" viewBox="0 0 162 206" fill="none" xmlns="http://www.w3.org/2000/svg">
<g clip-path="url(#clip0)">
<path d="M161.3 45.7V103.7C161.3 138.4 130.7 176.1 85.7999 198.4V130.1L98.3999 131.4C106.6 132.2 120.2 127.6 130.4 114.4C130.9 113.7 131.3 113.1 131.7 112.6C132.3 111.7 132.8 110.8 133.2 109.8L133.3 109.7C133.3 109.7 134.7 107.1 135.1 106.2C139.9 94.9 141 75.9 127.9 63.8C131.7 86.3 114.3 91.8 114.3 91.8C114.3 91.8 114.4 91.6 114.6 91.3C117.4 86.4 117 80.3 113.8 75.7C109.7 83.8 106.7 85.5 102.2 86.5L85.8999 79.4V0L161.3 45.7Z" fill="white"/>
<path d="M75.8999 59.8L26.4999 143.3H43.0999L74.2999 129L75.8999 129.2V205.9C30.9999 183.6 0.399902 145.8 0.399902 111.2V53.0999L75.8999 17.2V59.8V59.8Z" fill="white"/>
<path d="M95.1999 104.9C97.7957 104.9 99.8999 102.796 99.8999 100.2C99.8999 97.6042 97.7957 95.5 95.1999 95.5C92.6042 95.5 90.4999 97.6042 90.4999 100.2C90.4999 102.796 92.6042 104.9 95.1999 104.9Z" fill="white"/>
</g>
<defs>
<clipPath id="clip0">
<rect width="160.9" height="205.9" fill="white" transform="translate(0.399902)"/>
</clipPath>
</defs>
</svg>