<svg width="40" height="40" viewBox="0 0 40 40" fill="none" xmlns="http://www.w3.org/2000/svg">
<g clip-path="url(#clip0_23311_9649)">
<path d="M40 0H0V40H40V0Z" fill="#7AA116" fill-opacity="0.12"/>
<path fill-rule="evenodd" clip-rule="evenodd" d="M33 28H34V34H28V33H32.293L27.646 28.354L28.354 27.646L33 32.293V28ZM13.354 28.354L8.707 33H13V34H7V28H8V32.293L12.646 27.646L13.354 28.354ZM34 6V12H33V7.707L28.354 12.354L27.646 11.646L32.293 7H28V6H34ZM8.707 7L13.354 11.646L12.646 12.354L8 7.707V12H7V6H13V7H8.707ZM20.5 15.5C16.928 15.5 15 14.46 15 14.036V14C15 13.374 17.093 12.5 20.5 12.5C23.907 12.5 26 13.374 26 14V14.036C26 14.46 24.072 15.5 20.5 15.5ZM20.5 27.5C17.093 27.5 15 26.626 15 26V15.389C16.228 16.116 18.404 16.5 20.5 16.5C22.596 16.5 24.772 16.116 26 15.389V26C26 26.626 23.907 27.5 20.5 27.5ZM20.5 11.5C17.265 11.5 14 12.273 14 14V26C14 27.727 17.265 28.5 20.5 28.5C23.735 28.5 27 27.727 27 26V14C27 12.273 23.735 11.5 20.5 11.5Z" fill="#7AA116"/>
</g>
<rect x="0.5" y="0.5" width="39" height="39" stroke="#7AA116"/>
<defs>
<clipPath id="clip0_23311_9649">
<rect width="40" height="40" fill="white"/>
</clipPath>
</defs>
</svg>
