<svg xmlns="http://www.w3.org/2000/svg" width="26" height="26" viewBox="0 0 26 26" fill="none">
  <path d="M2.44855 16.676H10.018C9.4639 18.895 8.91232 21.1038 8.35821 23.3228H0.783691L2.44855 16.676Z" fill="#EAEFF1"/>
  <path d="M20.6002 15.4443L25.1522 19.9982L20.6002 24.5501L16.0464 19.9982L20.6002 15.4443Z" fill="#EAEFF1"/>
  <path d="M15.8486 1.94995H25.3502V8.6018H15.8486C15.8486 6.38283 15.8486 4.16892 15.8486 1.94995Z" fill="#EAEFF1"/>
  <path d="M3.97709 1.94995H6.82934C8.66961 1.94995 10.1515 3.4318 10.1515 5.27461C10.1515 7.11489 8.66961 8.6018 6.82934 8.6018H3.97709C2.13682 8.6018 0.649902 7.11489 0.649902 5.27461C0.649902 3.4318 2.13682 1.94995 3.97709 1.94995Z" fill="#EAEFF1"/>
  <path d="M10.2853 19.5232L10.0479 20.4731H15.1761L15.1811 19.5232H10.2853Z" fill="#EAEFF1"/>
  <path d="M20.128 9.55176L20.1255 14.5767L21.0779 14.5786V9.55176H20.128Z" fill="#EAEFF1"/>
  <path d="M4.92725 9.54932C4.92725 11.6074 4.92725 13.6656 4.92725 15.7237H5.87968V9.55185L4.92725 9.54932Z" fill="#EAEFF1"/>
  <path d="M14.8984 4.7998H11.0767C11.0938 4.95559 11.1039 5.11391 11.1039 5.27476C11.1039 5.43561 11.0938 5.59392 11.0767 5.74971H14.8984V4.7998Z" fill="#EAEFF1"/>
</svg>