<svg width="40" height="40" viewBox="0 0 40 40" fill="none" xmlns="http://www.w3.org/2000/svg">
<g clip-path="url(#clip0_23295_3153)">
<path d="M40 0H0V40H40V0Z" fill="#7AA116" fill-opacity="0.12"/>
<path fill-rule="evenodd" clip-rule="evenodd" d="M23.971 13.969V11.627L20.559 15.039C20.38 15.219 20.093 15.236 19.893 15.075L17.873 13.459L14.872 16.46L14.165 15.753L17.483 12.436C17.663 12.256 17.95 12.24 18.149 12.399L20.168 14.015L23.264 10.92H21.019V9.92H24.471C24.747 9.92 24.971 10.144 24.971 10.42V13.969H23.971ZM13.05 20.969H12.05V6.5C12.05 6.224 12.274 6 12.55 6H27.55C27.826 6 28.05 6.224 28.05 6.5V20.969H27.05V7H13.05V20.969ZM8 32.131V20.914L14.184 25.12L8 32.131ZM20.019 28.985C20.117 28.985 20.215 28.956 20.3 28.898L24.961 25.727L31.42 32.953H8.608L15.017 25.687L19.738 28.898C19.823 28.956 19.92 28.985 20.019 28.985ZM25.796 25.16L32.037 20.914V32.143L25.796 25.16ZM32.862 19.589L29.343 16.589L28.695 17.349L31.714 19.924L20.019 27.88L8.324 19.924L11.343 17.349L10.695 16.589L7.176 19.589C7.065 19.683 7 19.823 7 19.969V33.453C7 33.73 7.224 33.953 7.5 33.953H32.537C32.814 33.953 33.037 33.73 33.037 33.453V19.969C33.037 19.823 32.973 19.683 32.862 19.589Z" fill="#7AA116"/>
</g>
<rect x="0.5" y="0.5" width="39" height="39" stroke="#7AA116"/>
<defs>
<clipPath id="clip0_23295_3153">
<rect width="40" height="40" fill="white"/>
</clipPath>
</defs>
</svg>
