<svg width="40" height="40" viewBox="0 0 40 40" fill="none" xmlns="http://www.w3.org/2000/svg">
<g clip-path="url(#clip0_23299_4212)">
<path d="M40 0H0V40H40V0Z" fill="#ED7100" fill-opacity="0.12"/>
<path fill-rule="evenodd" clip-rule="evenodd" d="M22.941 26.044L20.5 27.441L18.058 26.044V23.257L20.5 21.86L22.941 23.257V26.044ZM23.941 22.967C23.941 22.788 23.845 22.623 23.689 22.533L20.748 20.85C20.595 20.762 20.404 20.762 20.252 20.85L17.31 22.533C17.154 22.623 17.058 22.788 17.058 22.967V24.046H8V25.046H17.058V26.334C17.058 26.513 17.154 26.679 17.31 26.768L20 28.307V31.984H21V28.307L23.689 26.768C23.845 26.679 23.941 26.513 23.941 26.334V25.046H33V24.046H23.941V22.967ZM10 14H13V13H10V14ZM23 14H31V13H23V14ZM8 17H33V9H8V17ZM33.5 8H7.5C7.223 8 7 8.223 7 8.5V17.5C7 17.776 7.223 18 7.5 18H33.5C33.776 18 34 17.776 34 17.5V8.5C34 8.223 33.776 8 33.5 8Z" fill="#ED7100"/>
</g>
<rect x="0.5" y="0.5" width="39" height="39" stroke="#ED7100"/>
<defs>
<clipPath id="clip0_23299_4212">
<rect width="40" height="40" fill="white"/>
</clipPath>
</defs>
</svg>
