<svg width="90" height="90" viewBox="0 0 90 90" fill="none" xmlns="http://www.w3.org/2000/svg">
<mask id="path-1-inside-1_26091_16721" fill="white">
<rect x="4" y="4" width="82" height="82" rx="2"/>
</mask>
<rect x="4" y="4" width="82" height="82" rx="2" stroke="white" stroke-width="6.48576" stroke-dasharray="16 4" mask="url(#path-1-inside-1_26091_16721)"/>
<mask id="path-2-inside-2_26091_16721" fill="white">
<path d="M18 23C18 21.8954 18.8954 21 20 21H58.9407C60.0453 21 60.9407 21.8954 60.9407 23V60.1515C60.9407 61.2561 60.0453 62.1515 58.9407 62.1515H20C18.8954 62.1515 18 61.2561 18 60.1515V23Z"/>
</mask>
<path d="M18 23C18 21.8954 18.8954 21 20 21H58.9407C60.0453 21 60.9407 21.8954 60.9407 23V60.1515C60.9407 61.2561 60.0453 62.1515 58.9407 62.1515H20C18.8954 62.1515 18 61.2561 18 60.1515V23Z" fill="#326CE5"/>
<path d="M20 60.5301C19.7909 60.5301 19.6214 60.3606 19.6214 60.1515H16.3786C16.3786 62.1516 17.9999 63.7729 20 63.7729V60.5301ZM19.6214 60.1515V52.7212H16.3786V60.1515H19.6214ZM19.6214 49.0061V34.1455H16.3786V49.0061H19.6214ZM19.6214 30.4303V23H16.3786V30.4303H19.6214ZM19.6214 23C19.6214 22.7909 19.7909 22.6214 20 22.6214V19.3786C17.9999 19.3786 16.3786 20.9999 16.3786 23H19.6214ZM20 22.6214H27.7881V19.3786H20V22.6214ZM31.6822 22.6214H47.2585V19.3786H31.6822V22.6214ZM51.1526 22.6214H58.9407V19.3786H51.1526V22.6214ZM58.9407 22.6214C59.1498 22.6214 59.3193 22.7909 59.3193 23H62.5621C62.5621 20.9999 60.9408 19.3786 58.9407 19.3786V22.6214ZM59.3193 23V30.4303H62.5621V23H59.3193ZM59.3193 34.1455V49.0061H62.5621V34.1455H59.3193ZM59.3193 52.7212V60.1515H62.5621V52.7212H59.3193ZM59.3193 60.1515C59.3193 60.3606 59.1498 60.5301 58.9407 60.5301V63.7729C60.9408 63.7729 62.5621 62.1516 62.5621 60.1515H59.3193ZM58.9407 60.5301H51.1526V63.7729H58.9407V60.5301ZM47.2585 60.5301H31.6822V63.7729H47.2585V60.5301ZM27.7881 60.5301H20V63.7729H27.7881V60.5301ZM20 58.9086C20.6864 58.9086 21.2429 59.4651 21.2429 60.1515H14.7571C14.7571 63.0471 17.1044 65.3944 20 65.3944V58.9086ZM21.2429 60.1515V52.7212H14.7571V60.1515H21.2429ZM21.2429 49.0061V34.1455H14.7571V49.0061H21.2429ZM21.2429 30.4303V23H14.7571V30.4303H21.2429ZM21.2429 23C21.2429 23.6864 20.6864 24.2429 20 24.2429V17.7571C17.1044 17.7571 14.7571 20.1044 14.7571 23H21.2429ZM20 24.2429H27.7881V17.7571H20V24.2429ZM31.6822 24.2429H47.2585V17.7571H31.6822V24.2429ZM51.1526 24.2429H58.9407V17.7571H51.1526V24.2429ZM58.9407 24.2429C58.2543 24.2429 57.6978 23.6864 57.6978 23H64.1836C64.1836 20.1044 61.8363 17.7571 58.9407 17.7571V24.2429ZM57.6978 23V30.4303H64.1836V23H57.6978ZM57.6978 34.1455V49.0061H64.1836V34.1455H57.6978ZM57.6978 52.7212V60.1515H64.1836V52.7212H57.6978ZM57.6978 60.1515C57.6978 59.4651 58.2543 58.9086 58.9407 58.9086V65.3944C61.8363 65.3944 64.1836 63.0471 64.1836 60.1515H57.6978ZM58.9407 58.9086H51.1526V65.3944H58.9407V58.9086ZM47.2585 58.9086H31.6822V65.3944H47.2585V58.9086ZM27.7881 58.9086H20V65.3944H27.7881V58.9086Z" fill="white" mask="url(#path-2-inside-2_26091_16721)"/>
<path d="M74.6207 51.57C74.6207 47.5156 73.232 43.7746 70.8974 40.7652L69.6163 41.759C68.5423 40.3746 67.2467 39.1574 65.7799 38.1557L66.6943 36.8167C63.621 34.7178 59.8666 33.4879 55.823 33.4879C51.7794 33.4879 48.025 34.7178 44.9517 36.8167L45.8661 38.1557C44.3993 39.1574 43.1037 40.3746 42.0297 41.759L40.7486 40.7652C38.414 43.7746 37.0253 47.5156 37.0253 51.57C37.0253 55.6243 38.414 59.3653 40.7486 62.3748L42.0297 61.3809C43.1037 62.7654 44.3993 63.9826 45.8661 64.9843L44.9517 66.3233C48.025 68.4221 51.7794 69.652 55.823 69.652C59.8666 69.652 63.621 68.4221 66.6943 66.3233L65.7799 64.9843C67.2467 63.9826 68.5423 62.7654 69.6163 61.3809L70.8974 62.3748C73.232 59.3653 74.6207 55.6243 74.6207 51.57Z" fill="#326CE5" stroke="white" stroke-width="3.24288" stroke-dasharray="16 4"/>
</svg>
