<svg width="40" height="40" viewBox="0 0 40 40" fill="none" xmlns="http://www.w3.org/2000/svg">
<g clip-path="url(#clip0_23294_2897)">
<path d="M40 0H0V40H40V0Z" fill="#8C4FFF" fill-opacity="0.12"/>
<path fill-rule="evenodd" clip-rule="evenodd" d="M21 18H24V19H21V22H20V19H17V18H20V15H21V18ZM30.933 14.043C29.627 14.043 29.049 13.698 29 13.597L28.996 7.467C29.051 7.347 29.633 7 30.933 7C32.183 7 32.888 7.325 33 7.475L33.008 13.559C32.919 13.722 32.198 14.043 30.933 14.043ZM20.5 24C17.468 24 15 21.533 15 18.5C15 15.467 17.468 13 20.5 13C23.532 13 26 15.467 26 18.5C26 21.533 23.532 24 20.5 24ZM30.446 21C31.362 21 31.867 21.208 32 21.311L32.026 25.667C31.955 25.756 31.447 26 30.446 26C29.525 26 29.054 25.786 29 25.763L28.979 21.315C29.054 21.217 29.526 21 30.446 21ZM25 32.82C24.865 32.893 24.513 33 23.959 33C23.404 33 23.108 32.894 23 32.833V29.168C23.109 29.108 23.405 29 23.959 29C24.512 29 24.864 29.108 25 29.182V32.82ZM9.419 30C7.63 30 7 29.501 7 29.395V22.606C7.035 22.434 7.806 22 9.419 22C11.043 22 11.913 22.436 12 22.617L12.002 29.381C11.936 29.557 11.069 30 9.419 30ZM11 13.82C10.865 13.893 10.513 14 9.959 14C9.404 14 9.108 13.894 9 13.833V10.168C9.109 10.108 9.405 10 9.959 10C10.512 10 10.864 10.108 11 10.182V13.82ZM30.933 6C29.151 6 28 6.567 28 7.446V11.124L24.949 13.774C23.785 12.678 22.222 12 20.5 12C18.219 12 16.213 13.184 15.053 14.966L12 12.408V10.064C12 9.417 11.199 9 9.959 9C8.751 9 8 9.408 8 10.064V13.936C8 14.592 8.751 15 9.959 15C11.218 15 12 14.592 12 13.936V13.713L14.564 15.862C14.205 16.669 14 17.561 14 18.5C14 19.961 14.49 21.306 15.308 22.393L13 24.435V22.605C13 21.497 11.201 21 9.419 21C7.342 21 6 21.63 6 22.605V29.395C6 30.37 7.342 31 9.419 31C11.071 31 13 30.58 13 29.395V25.77L15.964 23.147C17.137 24.292 18.736 25 20.5 25C20.881 25 21.252 24.96 21.614 24.897L23.187 28.068C22.44 28.208 22 28.563 22 29.064V32.936C22 33.592 22.751 34 23.959 34C25.218 34 26 33.592 26 32.936V29.064C26 28.475 25.332 28.08 24.276 28.014L22.605 24.644C23.837 24.22 24.9 23.437 25.673 22.419L28 23.436V25.763C28 26.526 28.937 27 30.446 27C31.624 27 33 26.676 33 25.763V21.237C33 20.324 31.624 20 30.446 20C28.937 20 28 20.474 28 21.237V22.345L26.227 21.57C26.719 20.655 27 19.61 27 18.5C27 16.997 26.482 15.616 25.623 14.514L28 12.448V13.597C28 14.475 29.151 15.043 30.933 15.043C32.348 15.043 34 14.664 34 13.597V7.446C34 6.447 32.459 6 30.933 6Z" fill="#8C4FFF"/>
</g>
<rect x="0.5" y="0.5" width="39" height="39" stroke="#8C4FFF"/>
<defs>
<clipPath id="clip0_23294_2897">
<rect width="40" height="40" fill="white"/>
</clipPath>
</defs>
</svg>
