<svg xmlns="http://www.w3.org/2000/svg" width="100" height="100" viewBox="0 0 100 100"><g fill="none" fill-rule="evenodd" transform="translate(3.125 19.531)"><ellipse cx="38.723" cy="20.313" fill="#E6E6E6" rx="20.38" ry="20.313"/><path fill="#E6E6E6" d="M72.147 6.094h18.75a2.849 2.849 0 0 1 2.853 2.843v18.688a2.849 2.849 0 0 1-2.853 2.844h-18.75a2.849 2.849 0 0 1-2.854-2.844V8.937a2.849 2.849 0 0 1 2.854-2.843z"/><path fill="#F0F0F0" d="M76.63 20.313a2.849 2.849 0 0 1 2.854 2.843v17.469c0 11.218-9.125 20.313-20.38 20.313-11.257 0-20.381-9.095-20.381-20.313 0-11.106 8.943-20.13 20.043-20.31l.337-.003H76.63z"/><path fill="#FCFCFC" d="M76.63 20.313a2.853 2.853 0 0 1 2.854 2.853v7.302h-7.337a2.853 2.853 0 0 1-2.854-2.853v-7.302h7.337z"/><path fill="#FFF" d="M59.103 20.313l-.003.346c-.185 11.058-9.237 19.966-20.377 19.966 0-11.103 8.937-20.125 20.033-20.31l.347-.003z"/><ellipse cx="14.266" cy="34.531" fill="#EBEBEB" rx="14.266" ry="14.219"/><path fill="#FAFAFA" d="M18.352 20.904c5.888 1.751 10.18 7.19 10.18 13.627a14.22 14.22 0 0 1-.354 3.167c-5.711-3.449-9.586-9.612-9.824-16.694z"/></g></svg>
