<svg width="40" height="40" viewBox="0 0 40 40" xmlns="http://www.w3.org/2000/svg">  <g id="Icon-Architecture/32/Arch_AWS-HealthScribe_32" stroke="none" stroke-width="1" fill="none" fill-rule="evenodd">  <g id="Icon-Service/32/AWS-HealthScribe_32" transform="translate(6.720000, 6.000000)" fill="#FFFFFF"> <path d="M10.813,20.996 C10.299,20.471 9.39,20.111 8.274,20.027 L8.274,17.736 L9.727,16.546 C9.925,16.469 10.147,16.507 10.308,16.654 C10.548,16.873 10.8,17.147 11.066,17.437 C11.893,18.335 12.912,19.443 14.158,19.538 C13.539,20.087 11.945,20.976 10.813,20.996 L10.813,20.996 Z M7.774,23 C6.247,23 5.274,22.407 5.274,22 C5.274,21.592 6.247,21 7.774,21 C9.3,21 10.274,21.592 10.274,22 C10.274,22.407 9.3,23 7.774,23 L7.774,23 Z M9.441,24.299 C9.441,24.669 8.712,25.1 7.774,25.1 C6.835,25.1 6.107,24.669 6.107,24.299 C6.107,24.155 6.23,23.994 6.433,23.856 C6.843,23.947 7.293,24 7.774,24 C8.254,24 8.704,23.947 9.114,23.856 C9.317,23.994 9.441,24.155 9.441,24.299 L9.441,24.299 Z M4.734,20.996 C3.615,20.976 1.956,20.088 1.279,19.532 C2.499,19.409 3.501,18.32 4.315,17.435 C4.58,17.147 4.832,16.872 5.072,16.654 C5.244,16.496 5.49,16.461 5.621,16.519 L7.274,17.751 L7.274,20.027 C6.158,20.111 5.248,20.471 4.734,20.996 L4.734,20.996 Z M6.274,12.5 C6.274,11.672 6.947,11 7.774,11 C8.601,11 9.274,11.672 9.274,12.5 C9.274,13.327 8.601,14 7.774,14 C6.947,14 6.274,13.327 6.274,12.5 L6.274,12.5 Z M14.986,18.668 C14.819,18.585 14.604,18.544 14.329,18.544 C13.444,18.544 12.572,17.596 11.802,16.76 C11.515,16.447 11.24,16.151 10.982,15.915 C10.501,15.477 9.817,15.381 9.237,15.671 C9.203,15.688 9.172,15.708 9.144,15.731 L8.274,16.444 L8.274,14.949 C9.414,14.717 10.274,13.707 10.274,12.5 C10.274,11.121 9.153,10 7.774,10 C6.395,10 5.274,11.121 5.274,12.5 C5.274,13.707 6.134,14.717 7.274,14.949 L7.274,16.507 L6.144,15.671 C5.564,15.381 4.88,15.477 4.398,15.915 C4.139,16.15 3.865,16.446 3.579,16.758 C2.809,17.595 1.937,18.544 1.051,18.544 C0.784,18.544 0.575,18.583 0.413,18.661 C0.155,18.786 1.77635684e-15,19.023 1.77635684e-15,19.294 C1.77635684e-15,20.282 2.576,21.701 4.281,21.956 C4.28,21.971 4.274,21.984 4.274,22 C4.274,22.603 4.703,23.123 5.395,23.483 C5.212,23.732 5.107,24.009 5.107,24.299 C5.107,25.193 6.026,25.912 7.274,26.067 L7.274,28 L8.274,28 L8.274,26.067 C9.521,25.912 10.441,25.193 10.441,24.299 C10.441,24.009 10.335,23.732 10.152,23.483 C10.844,23.123 11.274,22.603 11.274,22 C11.274,21.984 11.267,21.969 11.266,21.954 C12.918,21.694 15.398,20.288 15.398,19.309 C15.398,19.036 15.243,18.796 14.986,18.668 L14.986,18.668 Z M15.274,12 L18.274,12 L18.274,11 L15.274,11 L15.274,12 Z M15.274,6 L19.274,6 L19.274,5 L15.274,5 L15.274,6 Z M15.274,9 L24.274,9 L24.274,8 L15.274,8 L15.274,9 Z M18.274,15 L24.274,15 L24.274,14 L18.274,14 L18.274,15 Z M20.274,12 L24.274,12 L24.274,11 L20.274,11 L20.274,12 Z M22.274,1.69 L25.646,5 L22.274,5 L22.274,1.69 Z M27.124,5.049 L22.124,0.143 C22.031,0.051 21.905,0 21.774,0 L12.774,0 C12.497,0 12.274,0.223 12.274,0.5 L12.274,14 L13.274,14 L13.274,1 L21.274,1 L21.274,5.5 C21.274,5.776 21.497,6 21.774,6 L26.274,6 L26.274,21 L18.274,21 L18.274,22 L26.774,22 C27.05,22 27.274,21.776 27.274,21.5 L27.274,5.406 C27.274,5.272 27.22,5.143 27.124,5.049 L27.124,5.049 Z" id="Fill-3"></path> </g> </g></svg>