<svg xmlns="http://www.w3.org/2000/svg" role="img" viewBox="16.74 -5.76 392.52 442.52"><style>svg {enable-background:new 0 0 432 432}</style><style>.st2{fill:#0082ca}</style><path d="M213.2 328.2c-1.5 0-3-.6-4.1-1.9-1.9-2.3-1.7-5.7.6-7.6l178.1-152c2-5.9 2.3-11 2.3-11.6 0-33.3-22.1-61.8-22.3-62-.1-.1-.2-.3-.3-.4-30.5-47.6-73.4-62.7-94-70-11.7-4.1-54.4-16.5-112.7-2.2-47.4 11.7-88 43.5-111.5 87.3-11.2 20.9-13.3 36.4-13 45.7 0 1.9.2 3.6.4 5.1 9.4-10 28.1-24.8 56.5-23.4 2.7.1 38.1 1.6 58.5 34.6 7.9-12.4 25.8-32.7 59.7-34.7 1.2-.1 12.3-.8 26 4 11.3 3.9 26.4 12.4 38 30.4 7.6-12.3 25-32.5 58-34.4 2.9-.2 5.5 2.1 5.7 5.1.2 3-2.1 5.5-5.1 5.7-39.6 2.2-52.8 35.4-53.3 36.9-.8 2-2.6 3.4-4.8 3.5-2.1.1-4.1-1.1-5.1-3-19.7-40.1-58.2-37.4-58.6-37.4h-.1c-41.1 2.4-54.8 36-55.3 37.4-.8 2-2.7 3.4-4.9 3.4s-4.1-1.2-5-3.1C130.4 147.1 93.3 146 93 146h-.2c-35.5-1.9-53.8 26.7-54 27-1 1.6-2.8 2.6-4.7 2.5-1.9-.1-3.6-1.1-4.6-2.8-.6-1-13.5-25.5 10.3-70 24.9-46.5 68-80.3 118.4-92.7 61.2-15.1 106.5-1.9 118.9 2.5 20 7.1 66.9 23.7 99.3 74.2 2.3 3 24.4 32.7 24.4 68.6 0 .5-.2 8.1-3.5 16.5-.3.8-.8 1.6-1.5 2.2L216.6 327c-.9.8-2.2 1.2-3.4 1.2z"/><path d="M212.2 327.3c-1.2 0-2.5-.4-3.5-1.3l-178-151.9c-2.3-1.9-2.5-5.3-.6-7.6s5.3-2.5 7.6-.6l178 151.9c2.3 1.9 2.5 5.3.6 7.6-1 1.3-2.6 1.9-4.1 1.9z"/><path d="M212.8 327.4c-2.1 0-4.1-1.2-4.9-3.2l-61.1-140.8c-1.2-2.7.1-5.9 2.8-7.1 2.7-1.2 5.9.1 7.1 2.8l61.1 140.8c1.2 2.7-.1 5.9-2.8 7.1-.8.2-1.5.4-2.2.4z"/><path d="M213.2 328.2c-.7 0-1.5-.1-2.2-.5-2.7-1.2-4-4.4-2.8-7.1l62.4-142.1c1.2-2.7 4.4-4 7.1-2.8 2.7 1.2 4 4.4 2.8 7.1L218.1 325c-.9 2-2.9 3.2-4.9 3.2z"/><path d="M275.9 428.5h-127c-3 0-5.4-2.4-5.4-5.4v-100c0-3 2.4-5.4 5.4-5.4h31.6c3 0 5.4 2.4 5.4 5.4s-2.4 5.4-5.4 5.4h-26.2v89.3h116.3v-89.3H214c-3 0-5.4-2.4-5.4-5.4s2.4-5.4 5.4-5.4h62c3 0 5.4 2.4 5.4 5.4v100c-.1 3-2.5 5.4-5.5 5.4z"/><circle cx="177.6" cy="323.1" r="12.1" class="st2"/><circle cx="335.3" cy="140.3" r="12.1" class="st2"/><path d="M250.4 405.6c-3 0-5.4-2.4-5.4-5.4v-54.9c0-2.2 1.3-4.1 3.3-5 2-.8 4.3-.4 5.9 1.2l11.7 11.7c2.1 2.1 2.1 5.5 0 7.6-2.1 2.1-5.5 2.1-7.6 0l-2.6-2.6v41.9c0 3.1-2.4 5.5-5.3 5.5z"/><path d="M238.6 362.5c-1.4 0-2.8-.5-3.8-1.6-2.1-2.1-2.1-5.5 0-7.6l11.8-11.8c2.1-2.1 5.5-2.1 7.6 0 2.1 2.1 2.1 5.5 0 7.6l-11.8 11.8c-1 1-2.4 1.6-3.8 1.6z"/></svg>