<?xml version="1.0" encoding="UTF-8"?>
<svg id="Layer_1" data-name="Layer 1" xmlns="http://www.w3.org/2000/svg" viewBox="0 0 233.27 28.63">
  <defs>
    <style>
      .cls-1 {
        fill: #fff;
      }
    </style>
  </defs>
  <polygon class="cls-1" points="144.62 4.51 144.62 5.73 144.62 11.45 144.62 18.44 144.62 28.63 171.76 28.63 171.76 22.9 150.34 22.9 150.34 18.44 150.34 17.18 166.8 17.18 166.8 11.45 150.34 11.45 150.34 5.73 171.76 5.73 171.76 0 144.62 0 144.62 4.51"/>
  <polygon class="cls-1" points="40.21 4.51 40.21 5.73 40.21 11.45 40.21 18.44 40.21 28.63 67.35 28.63 67.35 22.9 45.94 22.9 45.94 18.44 45.94 17.18 62.39 17.18 62.39 11.45 45.94 11.45 45.94 5.73 67.35 5.73 67.35 0 40.21 0 40.21 4.51"/>
  <path class="cls-1" d="m104.92,21.15c0,1.03-.2,2-.59,2.9-.39.92-.93,1.71-1.62,2.38-.69.68-1.48,1.21-2.39,1.6-.92.39-1.89.59-2.92.59h-26.8v-6.03h26.8c.41,0,.75-.14,1.03-.42s.42-.62.42-1.03v-2.33c0-.41-.14-.75-.42-1.03s-.62-.42-1.03-.42h-19.28c-1.03,0-2-.2-2.9-.59-.92-.39-1.72-.94-2.4-1.62s-1.23-1.49-1.62-2.4c-.39-.9-.59-1.87-.59-2.9v-2.33c0-1.03.2-2.01.59-2.92.39-.9.93-1.7,1.62-2.39.69-.69,1.49-1.23,2.4-1.62C76.13.2,77.1,0,78.13,0h26.8v6.07h-26.8c-.41,0-.75.14-1.03.42-.28.28-.42.62-.42,1.03v2.33c0,.41.14.75.42,1.03.28.28.62.42,1.03.42h19.28c1.03,0,2,.2,2.92.59.9.39,1.7.94,2.39,1.62.69.69,1.23,1.48,1.62,2.39.39.92.59,1.89.59,2.92v2.33Z"/>
  <path class="cls-1" d="m141.04,28.63h-5.46v-11.26h-21.29v11.26h-5.46V11.3h26.75V0h5.46v28.63Zm-26.75-20.02h-5.46V0h5.46v8.61Z"/>
  <polygon class="cls-1" points="218.95 10.02 211.8 0 204.64 0 216.09 17.18 216.09 28.63 221.82 28.63 221.82 17.18 233.27 0 226.2 0 218.95 10.02"/>
  <path class="cls-1" d="m181.5,5.46h14.69v5.96h-11.83v5.46h2.71l10.38,11.76h7.07l-10.38-11.76h4.05c2.46,0,4.45-1.99,4.45-4.45v-7.98c0-2.46-1.99-4.45-4.45-4.45h-22.3v28.63h5.73l-.12-23.17Z"/>
  <path class="cls-1" d="m35.81,28.63h-6.07V7.75c0-.23-.05-.45-.13-.65-.09-.2-.21-.38-.36-.53s-.33-.27-.53-.36c-.2-.09-.42-.13-.65-.13H0V0h28.06c1.06,0,2.06.2,3,.61.94.41,1.77.96,2.48,1.66.7.71,1.25,1.54,1.66,2.48.41.94.61,1.94.61,3v20.88Zm-29.74,0H0V6.07l6.07-1.66v24.22Zm14.85,0h-6.07V9.25h6.07v19.38Z"/>
</svg>