<svg width="24px" height="24px" viewBox="0 0 24 24" fill="none" xmlns="http://www.w3.org/2000/svg">
<path d="M19.8571 15C19.9155 15 19.9732 15.0024 20.0304 15.0072L19.8571 15C19.9365 15 20.0148 15.0045 20.0919 15.0133C20.1296 15.0177 20.1673 15.023 20.2046 15.0294C20.2228 15.0326 20.2405 15.0358 20.2582 15.0393C20.3005 15.0477 20.3429 15.0576 20.3848 15.0687C20.3946 15.0713 20.4038 15.0738 20.413 15.0764C21.3269 15.3333 22 16.2091 22 17.25C22 18.4926 21.0406 19.5 19.8571 19.5C18.6737 19.5 17.7143 18.4926 17.7143 17.25C17.7143 16.3781 18.1866 15.622 18.8773 15.2485L18.9101 15.2311C18.9443 15.2134 18.9791 15.1965 19.0144 15.1807L18.8773 15.2485C18.936 15.2167 18.9962 15.1878 19.0579 15.1617C19.0927 15.147 19.1278 15.1333 19.1633 15.1206C19.18 15.1146 19.197 15.1087 19.2141 15.1031C19.244 15.0932 19.274 15.0841 19.3043 15.0756C19.3276 15.0691 19.351 15.063 19.3745 15.0573C19.409 15.0489 19.4444 15.0414 19.4801 15.0347C19.4952 15.0319 19.5102 15.0293 19.5253 15.0268C19.5673 15.02 19.6095 15.0144 19.6521 15.0102C19.6645 15.0089 19.6769 15.0078 19.6893 15.0068C19.7445 15.0023 19.8006 15 19.8571 15ZM4.14286 15C4.20454 15 4.2656 15.0027 4.32596 15.0081L4.14286 15C4.22099 15 4.29815 15.0044 4.37412 15.013C4.41378 15.0174 4.4534 15.0231 4.49266 15.0298C4.51623 15.0339 4.53921 15.0383 4.56207 15.043C4.59933 15.0508 4.63632 15.0596 4.67293 15.0694C4.69228 15.0745 4.71116 15.0799 4.72993 15.0855C4.78499 15.1019 4.83981 15.1208 4.8936 15.142C4.89843 15.1439 4.90348 15.1459 4.90853 15.1479C4.95627 15.1671 5.00298 15.1879 5.0488 15.2104C5.05576 15.2138 5.06263 15.2172 5.06948 15.2207C5.7892 15.5839 6.28571 16.356 6.28571 17.25C6.28571 18.4926 5.32632 19.5 4.14286 19.5C2.95939 19.5 2 18.4926 2 17.25C2 16.1316 2.77716 15.2038 3.79537 15.0294C3.80957 15.027 3.82404 15.0247 3.83856 15.0225C3.84496 15.0216 3.85125 15.0206 3.85754 15.0198C3.95079 15.0067 4.04607 15 4.14286 15ZM15.4598 11.25C15.7927 11.25 16.0625 11.527 16.0625 11.8687C16.0625 11.964 16.0415 12.0542 16.0041 12.1348L16.0055 12.1377L12.8638 17.298C12.8066 17.4201 12.7305 17.531 12.6393 17.6269C12.4205 17.8571 12.1149 18 11.7768 18C11.1111 18 10.5714 17.446 10.5714 16.7625C10.5714 16.4545 10.681 16.1728 10.8623 15.9562L10.9104 15.904L10.9058 15.8998L15.0687 11.3939C15.1765 11.3047 15.3119 11.25 15.4598 11.25ZM15.1085 6.75C18.0134 7.96417 20.1205 10.8309 20.3847 14.2449C20.2133 14.2116 20.0371 14.1944 19.8571 14.1944C19.5048 14.1944 19.167 14.2602 18.8544 14.3807C18.6458 11.6497 16.9939 9.34567 14.7001 8.30941C14.9225 7.91941 15.0637 7.47141 15.0995 6.99213L15.1085 6.75ZM9.29347 6.56744C9.29008 6.62784 9.28836 6.68871 9.28836 6.75C9.28836 7.25747 9.40618 7.73604 9.61466 8.15721C7.13741 9.10125 5.3207 11.4943 5.09294 14.3615C4.79577 14.2532 4.47585 14.1944 4.14286 14.1944C3.94392 14.1944 3.74965 14.2154 3.56193 14.2553C3.82171 10.8396 5.92769 7.96933 8.83193 6.74546L9.07893 6.64609L9.29347 6.56744ZM12.1984 4.5C13.2881 4.5 14.1878 5.35402 14.3236 6.45937C14.3232 6.45927 14.3226 6.45892 14.3236 6.45937L14.3343 6.56717C14.3389 6.62748 14.3413 6.68845 14.3413 6.75C14.3413 6.81121 14.3389 6.87185 14.3344 6.93182L14.3413 6.75C14.3413 6.832 14.3371 6.91297 14.3289 6.99269C14.3249 7.03216 14.3199 7.07111 14.314 7.10973C14.3105 7.13265 14.3067 7.15535 14.3026 7.17794C14.2961 7.21325 14.2888 7.24837 14.2808 7.28317C14.2755 7.30582 14.27 7.32805 14.2642 7.35013C14.2178 7.52646 14.1516 7.69411 14.068 7.85023C14.0619 7.86163 14.0558 7.87297 14.0495 7.88424C14.0269 7.92478 14.0032 7.96446 13.9783 8.00328C13.9729 8.01175 13.9676 8.01989 13.9623 8.02799C13.5756 8.61525 12.9298 9 12.1984 9C11.3127 9 10.5525 8.4358 10.2261 7.63103C10.2176 7.6095 10.2092 7.58788 10.2011 7.5661C10.1914 7.54067 10.1825 7.51527 10.174 7.48965C10.1652 7.46272 10.1567 7.43541 10.1487 7.40788C10.1236 7.3218 10.1033 7.23327 10.0881 7.14287C10.0854 7.12676 10.0828 7.11035 10.0804 7.09388C10.064 6.98157 10.0556 6.86683 10.0556 6.75C10.0556 6.61879 10.0663 6.4902 10.0868 6.36515C10.0886 6.35406 10.0905 6.34308 10.0924 6.33213C10.279 5.28915 11.1509 4.5 12.1984 4.5Z" fill="white"/>
</svg>
