<svg width="40" height="40" viewBox="0 0 40 40" xmlns="http://www.w3.org/2000/svg">  <g id="Icon-Architecture/32/Arch_AWS-Network-Firewall_32" stroke="none" stroke-width="1" fill="none" fill-rule="evenodd">  <g id="Icon-Service/32/AWS-Network-Firewall_32" transform="translate(5.920000, 5.950000)" fill="#FFFFFF"> <path d="M27.087,23.056 L22.087,23.056 L21.087,23.056 L20.087,23.056 L20.087,20.056 L25.587,20.056 L27.087,20.056 L27.087,23.056 Z M21.087,27.056 L15.087,27.056 L15.087,24.056 L19.087,24.056 L19.587,24.056 L21.087,24.056 L21.087,27.056 Z M10.83,25.316 C8.739,25.316 6.818,24.261 5.693,22.493 C4.797,21.083 4.781,19.263 5.683,17.691 C6.732,16.098 6.355,13.884 6.019,12.664 C6.983,13.157 7.857,14.419 8.166,14.975 C8.261,15.146 8.433,15.248 8.644,15.231 C8.838,15.216 9.007,15.088 9.073,14.904 C10.04,12.249 9.383,10.293 8.673,9.128 C10.743,9.827 14.333,11.728 14.333,16.507 C14.333,16.643 14.389,16.773 14.487,16.868 C14.586,16.962 14.714,17.015 14.855,17.006 C15.445,16.981 16.506,16.533 17.015,15.12 C17.059,15.253 17.087,15.399 17.087,15.556 L17.087,19.056 L11.587,19.056 C11.311,19.056 11.087,19.28 11.087,19.556 L11.087,23.556 C11.087,23.832 11.311,24.056 11.587,24.056 L14.087,24.056 L14.087,24.44 C13.232,25.001 12.088,25.316 10.83,25.316 L10.83,25.316 Z M3.139,16.707 C2.163,16.061 1,14.833 1,12.648 C1,9.66 3.079,8.68 4.318,8.361 C4.551,8.302 4.708,8.086 4.693,7.847 L4.644,7.026 C4.644,4.696 6.379,1 11.035,1 C12.931,1 14.434,1.545 15.501,2.619 C16.264,3.385 16.857,4.364 17.268,5.528 C17.329,5.703 17.482,5.829 17.665,5.857 C17.852,5.883 18.032,5.808 18.142,5.659 C18.762,4.817 19.832,4.465 20.801,4.784 C21.899,5.144 22.527,6.221 22.524,7.72 C22.486,7.988 22.668,8.237 22.935,8.283 C25.729,8.764 27.087,10.11 27.087,12.396 C27.087,13.718 26.746,14.729 26.071,15.48 C26.034,15.242 25.836,15.056 25.587,15.056 L18.028,15.056 C17.822,14.119 17.107,13.557 17.072,13.53 C16.929,13.42 16.739,13.395 16.57,13.468 C16.404,13.539 16.29,13.695 16.272,13.875 C16.148,15.056 15.683,15.583 15.31,15.819 C14.845,8.989 7.482,7.783 7.404,7.771 C7.181,7.737 6.964,7.857 6.873,8.064 C6.781,8.27 6.841,8.513 7.016,8.655 C7.109,8.731 9.102,10.395 8.425,13.559 C7.755,12.668 6.601,11.461 5.265,11.461 C5.099,11.461 4.943,11.544 4.851,11.681 C4.758,11.819 4.739,11.993 4.801,12.147 C4.814,12.179 6.002,15.215 4.894,17.056 L4.33,17.056 C3.896,17.056 3.483,16.935 3.139,16.707 L3.139,16.707 Z M19.587,19.056 L18.087,19.056 L18.087,16.056 L25.087,16.056 L25.087,19.056 L20.087,19.056 L19.587,19.056 Z M19.087,23.056 L12.087,23.056 L12.087,20.056 L17.587,20.056 L19.087,20.056 L19.087,23.056 Z M27.587,19.056 L26.087,19.056 L26.087,16.815 C27.411,15.852 28.087,14.369 28.087,12.396 C28.087,10.528 27.281,8.175 23.517,7.377 C23.412,5.611 22.53,4.3 21.113,3.834 C20.001,3.468 18.8,3.717 17.916,4.452 C17.48,3.466 16.908,2.615 16.21,1.913 C14.948,0.644 13.207,-1.77635684e-15 11.035,-1.77635684e-15 C5.937,-1.77635684e-15 3.644,4.109 3.645,7.056 L3.672,7.509 C2.32,7.953 1.77635684e-15,9.217 1.77635684e-15,12.648 C1.77635684e-15,15.416 1.62,16.902 2.587,17.541 C3.096,17.878 3.699,18.056 4.33,18.056 L4.405,18.056 C3.764,19.712 3.909,21.551 4.85,23.03 C6.159,25.087 8.396,26.316 10.83,26.316 C12.033,26.316 13.155,26.056 14.087,25.59 L14.087,27.556 C14.087,27.832 14.311,28.056 14.587,28.056 L21.587,28.056 C21.863,28.056 22.087,27.832 22.087,27.556 L22.087,24.056 L27.587,24.056 C27.863,24.056 28.087,23.832 28.087,23.556 L28.087,19.556 C28.087,19.28 27.863,19.056 27.587,19.056 L27.587,19.056 Z" id="Fill-5"></path> </g> </g></svg>