<svg version="1.1" id="Layer_1" xmlns="http://www.w3.org/2000/svg" xmlns:xlink="http://www.w3.org/1999/xlink" x="0px" y="0px" width="24px" height="24px" viewBox="0 0 24 24" style="enable-background:new 0 0 24 24;" xml:space="preserve"><style type="text/css">.st0{fill:#fff;}.st1{fill:#fff;}.st2{fill:#fff;}.st3{fill:#fff;}</style><polygon class="st0" points="6,15.8 12,5.3 18,15.8 23,20.8 23.2,21 23.2,21 12,1.6 0.8,21 0.8,21 1,20.8 "/><g><g><polygon class="st1" points="12,9.7 1,20.8 5.6,18.7 12,12.3 18.4,18.7 23,20.8 "/></g></g><polygon class="st2" points="6,20.6 1.8,22.4 22.2,22.4 18,20.6 "/><polygon class="st3" points="23,20.8 12,15.8 1,20.8 0,22.4 1.8,22.4 12,17.8 22.2,22.4 24,22.4 "/></svg>