<svg xmlns="http://www.w3.org/2000/svg" role="img" viewBox="-7.43 -4.93 464.36 287.86"><defs><style>.cls-2{fill:#fff}</style></defs><path fill="none" d="M177.378 61.332c3.34.28 6.272-2.593 6.407-6.274a6.488 6.488 0 0 0-6.399-6.397 6.362 6.362 0 0 0-6.339 6.385c.002 3.028 2.566 6.583 6.33 6.286zm-23.953 119.196a4.068 4.068 0 1 0-4.068-4.067 4.068 4.068 0 0 0 4.068 4.067zM282.793 56.973a2.927 2.927 0 0 0-.023-5.852 3.022 3.022 0 0 0-2.874 2.945 2.964 2.964 0 0 0 2.897 2.907zm-47.346-11.22a4.673 4.673 0 0 0 4.644-4.699 4.59 4.59 0 0 0-4.632-4.501 4.486 4.486 0 0 0-4.598 4.49 4.572 4.572 0 0 0 4.586 4.71zm-129.26 70.02a18.047 18.047 0 0 0-3.775-.743c-3.156-.322-6.318-.176-9.476-.21-.397-.003-.832-.097-1.155.3v18.887c3.295 0 6.395.062 9.49-.026a13.738 13.738 0 0 0 4.782-1.032 8.422 8.422 0 0 0 5.269-5.93 12.998 12.998 0 0 0 .35-4.356c-.3-3.695-1.924-5.735-5.485-6.89zm83.19 104.079a2.835 2.835 0 0 0-2.921 2.84 2.881 2.881 0 0 0 5.76.077 2.833 2.833 0 0 0-2.839-2.917zM32.096 129.081a7.745 7.745 0 0 0 7.133-8.78 5.45 5.45 0 0 0-3.904-5.093 14.184 14.184 0 0 0-4.47-.797q-3.687-.03-7.373-.03c-.337 0-.711-.077-.965.26-.174 1.649-.16 12.824.05 14.605 3.228-.053 6.392.203 9.529-.165zm6.567 15.886a12.962 12.962 0 0 0-3.717-1 92.744 92.744 0 0 0-12.111-.246c-.097.002-.193.113-.29.175-.192 1.43-.206 15.015.013 16.894 3.716-.06 7.34.145 10.959-.146a13.16 13.16 0 0 0 5.072-1.309 7.34 7.34 0 0 0 4.196-6.26 14.15 14.15 0 0 0-.011-2.458 6.423 6.423 0 0 0-4.111-5.65zm322.86-21.192a13.883 13.883 0 0 0-9.33-7.637 31.81 31.81 0 0 0-8.339-1.026c-.391.005-.83-.125-1.2.332l-.001 44.507a6.021 6.021 0 0 0 .814.116 31.446 31.446 0 0 0 9.169-1.332 13.977 13.977 0 0 0 7.496-5.514 20.82 20.82 0 0 0 3.14-7.567 45.336 45.336 0 0 0 .575-13.113 23.38 23.38 0 0 0-2.324-8.766zm-85.988-8.996q-3.24 14.52-6.464 29.045a103.587 103.587 0 0 0 14.177-.094c-2.603-9.82-4.603-19.782-7.027-29.734a.823.823 0 0 0-.686.783z"/><path d="M225.038 44.553a9.062 9.062 0 0 1-.42-1.833 9.046 9.046 0 0 0 .42 1.834zm21.43-2.498a6.312 6.312 0 0 0 .019-.99 6.313 6.313 0 0 1-.02.989 8.577 8.577 0 0 0-.356 2.53 8.566 8.566 0 0 1 .357-2.53zm-21.849.665c-.262-1.552.164-3.077.033-4.613.13 1.536-.296 3.06-.033 4.613zm107.877 62.2a4.233 4.233 0 1 0 4.307 4.219 4.329 4.329 0 0 0-4.307-4.218zm-96.274 63.59a5.965 5.965 0 0 0 .076-.625q.008-14.856.01-29.715a5.301 5.301 0 0 0-.285-1.721 7.396 7.396 0 0 0-7.159-5.213c-7.092-.024-14.184-.008-21.276-.002-.338 0-.708-.088-.987.2a149.5 149.5 0 0 0 .101 16.614h11.208v10.783a8.819 8.819 0 0 1-3.863 1.296 28.46 28.46 0 0 1-8.048-.414 16.14 16.14 0 0 1-9.929-5.838 19.237 19.237 0 0 1-3.098-6.067 35.972 35.972 0 0 1-1.304-13.563 25.36 25.36 0 0 1 1.697-7.512 18.67 18.67 0 0 1 7.047-8.98 17.038 17.038 0 0 1 9.088-2.876 17.274 17.274 0 0 1 10.25 2.452c1.276.823 2.489 1.741 3.892 2.73 3.761-4.233 7.446-8.377 11.154-12.552a16.422 16.422 0 0 0-3.183-2.961 33.82 33.82 0 0 0-17.973-7.315 41.553 41.553 0 0 0-13.788 1.008c-15.245 3.874-24.568 13.614-28.332 28.79a51.248 51.248 0 0 0-1.033 15.028 41.264 41.264 0 0 0 2.822 13.34 33.798 33.798 0 0 0 19.27 19.608 43.815 43.815 0 0 0 18.055 3.043 43.141 43.141 0 0 0 20.105-5.588 27.79 27.79 0 0 0 5.483-3.95zm27.668-69.937l-23.788 77.984h21.166q.973-4.11 1.937-8.194c.64-2.724 1.27-5.451 1.894-8.122 2.221-.283 20.6-.21 21.956.082 1.372 5.379 2.456 10.869 3.872 16.243h21.596c-.085-1.344-22.882-76.262-23.725-77.993zm5.18 45.25q3.23-14.524 6.465-29.044a.823.823 0 0 1 .686-.783c2.424 9.952 4.423 19.914 7.027 29.734a103.587 103.587 0 0 1-14.177.094zm178.78 15.636a.46.46 0 0 0-.153-.064q-14.773-.026-29.544-.049c-.176 0-.351-.016-.526-.029a.56.56 0 0 1-.172-.03.655.655 0 0 1-.138-.104c-.044-.038-.086-.078-.13-.118-.295-3.772-.165-12.423.246-13.749h25.017a149.846 149.846 0 0 0-.04-17.225h-15.059c-1.701 0-3.4.028-5.1-.009a30.956 30.956 0 0 1-5.087-.15v-12.124c.773 0 1.405 0 2.038.002q12.925 0 25.853-.01c.613-.002 1.287.213 1.828-.242v-16.81c-.194-.097-.294-.19-.394-.19q-24.445-.03-48.889-.041a8.515 8.515 0 0 0-.873.07.303.303 0 0 0-.14.088 1.282 1.282 0 0 0-.116.13c-.241 2.845-.145 76.317.1 77.66 1.829.3 50.137.245 51.406-.06.284-2.533.187-15.73-.127-16.946z" class="cls-2"/><path d="M383.27 122.371c-2.873-9.292-8.542-16.169-17.564-20.092a46.085 46.085 0 0 0-16.897-3.665c-5.328-.188-10.667-.09-16-.094a11.112 11.112 0 0 0-4.456.857 10.974 10.974 0 0 0-6.524 10.382q.025 13.98.006 27.96h.045v4.22q0 10.991-.005 21.982a21.882 21.882 0 0 0 .216 4.552 10.153 10.153 0 0 0 10.47 8.347c3.103-.106 6.205-.101 9.306-.17 1.875-.042 3.751-.009 5.627-.024a49.28 49.28 0 0 0 12.834-1.818 32.6 32.6 0 0 0 14.548-8.172c5.268-5.215 8.146-11.657 9.475-18.85a60.218 60.218 0 0 0 .776-14.179 45.993 45.993 0 0 0-1.856-11.236zm-50.727-8.985a4.233 4.233 0 1 1-.047-8.465 4.233 4.233 0 1 1 .047 8.465zm30.73 32.268a20.82 20.82 0 0 1-3.141 7.567 13.977 13.977 0 0 1-7.496 5.514 31.446 31.446 0 0 1-9.17 1.332 6.021 6.021 0 0 1-.813-.116v-44.507c.372-.457.81-.327 1.201-.332a31.81 31.81 0 0 1 8.339 1.026 13.883 13.883 0 0 1 9.33 7.637 23.38 23.38 0 0 1 2.324 8.767 45.336 45.336 0 0 1-.574 13.112zm-243.903.726c.801-.518 1.451-.912 2.074-1.346a22.988 22.988 0 0 0 9.583-13.43 34.83 34.83 0 0 0 .622-12.402 21.4 21.4 0 0 0-2.879-8.781 22.11 22.11 0 0 0-12.498-9.698 41.686 41.686 0 0 0-12.954-2.135c-10.375-.108-20.752-.061-31.127-.07-.39 0-.833-.115-1.122.295-.256 3.117-.15 76.333.126 77.727a3.9 3.9 0 0 0 .644.096q9.76-.017 19.517-.052c.046 0 .091-.066.135-.103.044-.038.086-.08.129-.12a.77.77 0 0 0 .038-.17l.052-24.792a3.7 3.7 0 0 1 .05-.524c.008-.051.062-.097.097-.144.035-.046.073-.09.142-.178h7.722l13.386 25.993h23.05c-2.8-5.22-5.671-10.168-8.441-15.171-2.768-5-5.637-9.947-8.345-14.996zm-8.048-19.36a8.422 8.422 0 0 1-5.27 5.93 13.738 13.738 0 0 1-4.78 1.031c-3.096.088-6.196.026-9.491.026v-18.886c.323-.398.758-.304 1.155-.3 3.158.033 6.32-.113 9.476.209a18.047 18.047 0 0 1 3.775.743c3.561 1.155 5.185 3.195 5.485 6.89a12.998 12.998 0 0 1-.35 4.357zm-55.345 11.914a25.298 25.298 0 0 0-7.405-3.136 5.07 5.07 0 0 1-1.963-.632c.356-.613.914-.616 1.383-.785a16.69 16.69 0 0 0 10.798-11.413 19.461 19.461 0 0 0 .217-9.733 15.409 15.409 0 0 0-6.208-9.473 20.631 20.631 0 0 0-5.445-2.808 45.283 45.283 0 0 0-14.848-2.388c-9.846-.11-19.694-.046-29.54-.048-.395 0-.823-.107-1.225.304a4.648 4.648 0 0 0-.066.6q.02 38.417.05 76.836c0 .049.055.098.09.144.035.046.077.089.21.242h1.82c9.026 0 18.053-.02 27.08.01a60.174 60.174 0 0 0 10.152-.712 33.41 33.41 0 0 0 11.127-3.634 20.345 20.345 0 0 0 9.794-11.502 23.003 23.003 0 0 0 .535-12.484 14.502 14.502 0 0 0-6.556-9.388zm-33.46-24.294c.254-.336.628-.26.965-.26q3.686.006 7.372.03a14.184 14.184 0 0 1 4.47.798 5.45 5.45 0 0 1 3.905 5.094 7.745 7.745 0 0 1-7.133 8.78c-3.137.367-6.301.11-9.529.164-.21-1.781-.224-12.956-.05-14.606zm20.268 38.435a7.34 7.34 0 0 1-4.196 6.26 13.16 13.16 0 0 1-5.072 1.309c-3.618.291-7.243.086-10.96.146-.218-1.879-.204-15.463-.012-16.894.097-.062.193-.173.29-.175a92.744 92.744 0 0 1 12.11.246 12.962 12.962 0 0 1 3.718 1 6.423 6.423 0 0 1 4.11 5.65 14.15 14.15 0 0 1 .012 2.458zm100.304-38.717q-.007 28.335 0 56.668c0 .324.017.648.037.972v-58.612c-.02.324-.037.648-.037.972zm55.317 110.578c.045-.467.102-.93.134-1.396a9.238 9.238 0 0 0-13.6-8.99 3.776 3.776 0 0 1-1.765.71 1.855 1.855 0 0 1-.628 1.21 9.258 9.258 0 0 0-2.263 4.262 9.875 9.875 0 0 0 1.549 7.47c-.21.386-.341.644-.488.893q-4.216 7.208-8.43 14.417a12.75 12.75 0 0 0-1.483 2.98 3.895 3.895 0 0 0 6.313 3.99 8.347 8.347 0 0 0 1.572-2.103q3.362-5.772 6.736-11.536c.944-1.614 1.905-3.218 2.813-4.75a3.291 3.291 0 0 1 .637-.165 9.315 9.315 0 0 0 4.966-1.548 1.404 1.404 0 0 1 .986-.277 5.197 5.197 0 0 1 .113-.517.354.354 0 0 1 .082-.127 11.557 11.557 0 0 0 2.756-4.523zm-9.192.603a2.905 2.905 0 0 1-2.758-2.848 2.835 2.835 0 0 1 2.921-2.84 2.833 2.833 0 0 1 2.84 2.918 2.878 2.878 0 0 1-3.003 2.77zM224.619 42.72a9.062 9.062 0 0 0 .42 1.834 10.975 10.975 0 0 0 20.371 1.216c.212-.408.295-.893.701-1.187a8.577 8.577 0 0 1 .357-2.53 6.313 6.313 0 0 0 .018-.988c-.053-.98-.289-1.94-.404-2.913v-.001a11.481 11.481 0 0 0-6.3-7.178V9.253c0-.469.018-.939-.01-1.406a3.954 3.954 0 0 0-7.849-.566 10.188 10.188 0 0 0-.122 1.922q-.012 9.758-.01 19.517a4.896 4.896 0 0 1-.164 1.985c-.15.084-.343.207-.55.303a11.312 11.312 0 0 0-5.986 6.359 5.053 5.053 0 0 1-.44.74c.132 1.536-.294 3.06-.032 4.613zm10.84-6.167a4.59 4.59 0 0 1 4.632 4.501 4.673 4.673 0 0 1-4.644 4.699 4.572 4.572 0 0 1-4.586-4.71 4.486 4.486 0 0 1 4.598-4.49zm11.364 201.682a13.383 13.383 0 0 0-.386-4.152l-.262-.647c-1.732-4.282-4.874-6.81-9.49-7.139-4.682-.333-8.205 1.724-10.527 5.815-.256.454-.533.896-.8 1.343a21.622 21.622 0 0 0-.368 4.71l.004.341.015 1.234a5.546 5.546 0 0 1 .404.772 10.912 10.912 0 0 0 5.408 6.416 4.175 4.175 0 0 1 .515.366 4.92 4.92 0 0 1 .163 1.981c.013 6.564.01 13.128.025 19.692a11.917 11.917 0 0 0 .159 2.274 3.955 3.955 0 0 0 3.977 3.077 4.007 4.007 0 0 0 3.755-3.36 11.49 11.49 0 0 0 .047-1.58l.01-19.868a3.764 3.764 0 0 1 .168-1.875 1.76 1.76 0 0 1 .305-.22 11.303 11.303 0 0 0 6.357-6.668 1.297 1.297 0 0 1 .207-.283c-.203-.784.335-1.46.314-2.229zm-10.84 3.573a4.616 4.616 0 1 1-.118-9.23 4.616 4.616 0 0 1 .119 9.23zm37.561-189.335c-.002.64-.037 1.284.001 1.922a9.26 9.26 0 0 0 13.537 7.862c.517-.258.979-.655 1.614-.39-.002-.013 0-.025 0-.039a1.358 1.358 0 0 1 .44-1.209 9.616 9.616 0 0 0 2.57-3.818c.032-.09.178-.137.27-.203h.001a2.414 2.414 0 0 1-.048-1.214 8.917 8.917 0 0 0-1.1-5.924c-.187-.352-.51-.661-.4-1.227.063-.113.176-.316.293-.517q4.528-7.734 9.06-15.467a8.477 8.477 0 0 0 .978-2.055 3.89 3.89 0 0 0-3.286-4.871 4.01 4.01 0 0 0-4.195 2.265q-2.512 4.334-5.058 8.646c-1.657 2.823-3.319 5.642-5.008 8.51a11.01 11.01 0 0 0-6.846 2.435 13.8 13.8 0 0 0-2.823 5.294zm9.226-1.352a2.927 2.927 0 0 1 .023 5.852 2.964 2.964 0 0 1-2.897-2.907 3.022 3.022 0 0 1 2.874-2.945zm27.176 193.252c-1.793-3.091-3.623-6.162-5.41-9.258a15.542 15.542 0 0 1-1.525-2.855 13.03 13.03 0 0 0 3.617-8.515 12.451 12.451 0 0 0-3.166-8.874 12.71 12.71 0 0 0-22.067 10.523 12.455 12.455 0 0 0 3.722 7.03 13.283 13.283 0 0 0 10.623 3.537c.276.438.502.776.707 1.126q3.198 5.461 6.39 10.924a11.576 11.576 0 0 0 1.584 2.315 3.888 3.888 0 0 0 6.519-3.905 12.005 12.005 0 0 0-.994-2.048zM294 229.623a6.305 6.305 0 1 1-.11-12.61c3.41-.312 6.485 3.029 6.424 6.219a6.257 6.257 0 0 1-6.314 6.39zM167.455 44.33a5.483 5.483 0 0 1 .842 1.77 12.61 12.61 0 0 0-3.642 8.37 12.404 12.404 0 0 0 2.881 8.633 12.725 12.725 0 1 0 18.189-17.666 13.181 13.181 0 0 0-10.126-3.08c-.3-.461-.57-.838-.803-1.236q-3.284-5.613-6.56-11.23a8.299 8.299 0 0 0-1.396-2.015 3.745 3.745 0 0 0-4.22-.818 3.707 3.707 0 0 0-2.426 3.544 5.296 5.296 0 0 0 .95 2.964q3.165 5.377 6.31 10.764zm9.931 4.331a6.488 6.488 0 0 1 6.399 6.397c-.135 3.681-3.067 6.554-6.407 6.274-3.765.297-6.329-3.258-6.33-6.286a6.362 6.362 0 0 1 6.338-6.385zm47.972 184.794zm-73.155-67.289c-.227.039-.441.096-.662.145a10.102 10.102 0 0 1 5.444.464 8.627 8.627 0 0 0-4.782-.61zm-7.43 4.662a10.37 10.37 0 0 1 3.215-3.138 9.604 9.604 0 0 0-3.215 3.138z" class="cls-2"/><path d="M163.825 176.504V108.89a10.35 10.35 0 0 0-20.242-3.048 10.33 10.33 0 1 1 19.364 7.14.934.934 0 0 1 .706-.37c.03.581.084 1.164.084 1.746q.006 28.335 0 56.668c0 .582-.054 1.165-.084 1.746a.956.956 0 0 1-.772-.46 10.328 10.328 0 0 1-18.02 9.924 10.348 10.348 0 0 0 18.964-5.732z" class="cls-2"/><path d="M160.09 168.577a10.372 10.372 0 0 1 2.06 2.373 8.37 8.37 0 0 0-2.06-2.373zm-16.184-55.583a10.284 10.284 0 0 1-.78-3.424v3.816c.016-.258.034-.516.047-.774a.993.993 0 0 1 .733.382zm-.733 59.778c-.013-.258-.031-.516-.047-.774v3.87a10.255 10.255 0 0 1 1.017-3.918c-.21.422-.442.781-.97.822zm1.547-58.25a9.52 9.52 0 0 0 4.274 3.84 10.34 10.34 0 0 0 3.08.856 10.328 10.328 0 0 1-7.354-4.696z" class="cls-2"/><path d="M143.173 172.772c.527-.04.76-.4.97-.822l.023-.041a10.953 10.953 0 0 1 .607-1.08 9.604 9.604 0 0 1 3.215-3.139 10.254 10.254 0 0 1 2.874-1.225l.122-.031c.184-.045.369-.088.557-.123.22-.049.435-.106.662-.145a8.627 8.627 0 0 1 4.782.609 10.309 10.309 0 0 1 3.106 1.802 8.37 8.37 0 0 1 2.06 2.373 10.295 10.295 0 0 1 .73 1.362.956.956 0 0 0 .772.46c.03-.581.084-1.164.084-1.746q.006-28.334 0-56.668c0-.582-.054-1.165-.084-1.746a.934.934 0 0 0-.706.37 10.14 10.14 0 0 1-1.592 2.57l-.01.011a10.2 10.2 0 0 1-.655.722 10.159 10.159 0 0 1-.805.73c-.05.04-.1.077-.15.116-.17.13-.34.26-.517.38-.097.066-.198.126-.298.19-.144.09-.286.184-.435.267-.255.145-.516.28-.783.403l-.021.01c-.245.11-.496.21-.75.301-.07.026-.14.054-.212.078-.193.065-.388.121-.586.175-.152.041-.304.083-.46.118a11 11 0 0 1-.37.074c-.253.046-.507.09-.765.117l-.11.011c-.33.032-.664.05-1.003.05-.035 0-.068-.006-.103-.006a10.415 10.415 0 0 1-1.245-.08l-.003-.001a10.34 10.34 0 0 1-3.08-.855 9.52 9.52 0 0 1-4.274-3.84 10.285 10.285 0 0 1-.814-1.53.993.993 0 0 0-.733-.381c-.013.258-.031.516-.047.774v58.612c.016.258.034.516.047.774zm-.047 3.095c-.012.198-.03.393-.03.594a10.281 10.281 0 0 0 1.764 5.775 10.298 10.298 0 0 1-1.734-5.732z" class="cls-2"/><path d="M153.425 186.79a10.322 10.322 0 0 0 9.456-14.478 3.223 3.223 0 0 1-.295-.56 7.328 7.328 0 0 0-.436-.802 10.372 10.372 0 0 0-2.06-2.373 11.874 11.874 0 0 0-1.231-.859 13.258 13.258 0 0 0-1.874-.943 10.102 10.102 0 0 0-5.444-.464c-.188.035-.373.078-.557.123l-.122.031a11.364 11.364 0 0 0-2.874 1.225 10.167 10.167 0 0 0-3.845 4.26 10.255 10.255 0 0 0-1.017 3.917v.637a10.262 10.262 0 0 0 10.299 10.286zm0-14.397a4.068 4.068 0 1 1-4.068 4.068 4.068 4.068 0 0 1 4.068-4.068z" class="cls-2"/><path d="M144.143 171.95a10.308 10.308 0 0 1 .63-1.122 10.953 10.953 0 0 0-.607 1.08c-.007.015-.015.028-.023.042zm6.719-5.485a10.254 10.254 0 0 0-2.874 1.225 11.364 11.364 0 0 1 2.874-1.225zm7.997 1.253a11.874 11.874 0 0 1 1.232.86 10.309 10.309 0 0 0-3.106-1.803 13.258 13.258 0 0 1 1.874.943zm3.727 4.034a3.223 3.223 0 0 0 .295.56 10.295 10.295 0 0 0-.73-1.362 7.328 7.328 0 0 1 .435.802zm-19.003-65.91a10.315 10.315 0 0 0-.487 3.135c0 .2.018.396.03.593v-.68a10.347 10.347 0 0 1 .457-3.048z" class="cls-2"/><path d="M144.403 113.952c.098.195.207.383.317.57a10.328 10.328 0 0 0 7.354 4.696h.003a10.415 10.415 0 0 0 1.245.081c.035 0 .068.007.103.007.339 0 .673-.019 1.004-.05l.109-.012c.258-.028.512-.07.764-.117.125-.023.249-.047.372-.074.155-.035.307-.077.46-.118.197-.054.392-.11.585-.175.071-.024.141-.052.212-.078.254-.092.505-.19.75-.301l.02-.01c.268-.123.529-.258.784-.403.149-.083.29-.177.435-.267.1-.064.2-.124.298-.19.177-.12.348-.25.517-.38.05-.039.1-.076.15-.116a10.159 10.159 0 0 0 .805-.73 10.2 10.2 0 0 0 .655-.722l.01-.01a9.77 9.77 0 0 0 1.144-1.759 4.485 4.485 0 0 1 .448-.811 10.335 10.335 0 1 0-19.821-4.093v.68a10.284 10.284 0 0 0 .78 3.424 5.302 5.302 0 0 1 .497.958z" class="cls-2"/><path d="M161.355 115.552a10.14 10.14 0 0 0 1.592-2.57 4.485 4.485 0 0 0-.448.812 9.77 9.77 0 0 1-1.144 1.758zm-17.449-2.558a10.285 10.285 0 0 0 .814 1.528 9.55 9.55 0 0 1-.317-.57 5.302 5.302 0 0 0-.497-.958zm173.34-28.357a109.23 109.23 0 0 0-8.877-12.643 6.253 6.253 0 0 0-.859-.876 3.116 3.116 0 0 0-4.776 3.826 6.873 6.873 0 0 0 .766 1.175 109.167 109.167 0 0 1 8.174 11.637 5.418 5.418 0 0 0 .972 1.24 3 3 0 0 0 3.262.63 3.04 3.04 0 0 0 1.987-2.84 3.687 3.687 0 0 0-.649-2.149zm-92.251 153.869c-.002-.114-.004-.228-.004-.342a21.623 21.623 0 0 1 .367-4.709c-1.545-.267-3.083-.603-4.638-.785a3.223 3.223 0 0 0-3.682 2.692 3.182 3.182 0 0 0 2.645 3.546 34.302 34.302 0 0 0 5.326.835v-.002l-.014-1.235zm49.326-11.156a6.665 6.665 0 0 0-1.354.365q-3.218 1.178-6.422 2.395a5.097 5.097 0 0 0-1.087.563 3.085 3.085 0 0 0-1.227 3.402 3.192 3.192 0 0 0 3 2.295 4.773 4.773 0 0 0 1.719-.33q3.294-1.224 6.576-2.477a4.583 4.583 0 0 0 1.074-.59 3.12 3.12 0 0 0 .994-3.771 3.084 3.084 0 0 0-3.273-1.852zm-8.725-178.144a65.229 65.229 0 0 0 7.947 3.266 13.829 13.829 0 0 1 2.823-5.293 4.207 4.207 0 0 0-.824-.637c-2.421-1.042-4.854-2.055-7.285-3.072a2.558 2.558 0 0 0-.508-.134 3.152 3.152 0 0 0-3.796 2.049 2.999 2.999 0 0 0 1.643 3.82zm-19.128-7.151a8.566 8.566 0 0 0-.357 2.528c.458.082.915.182 1.375.242 1.385.176 2.77.435 4.16.476a3.1 3.1 0 0 0 3.153-2.705 3.186 3.186 0 0 0-2.169-3.4 10.591 10.591 0 0 0-1.876-.386c-1.554-.234-3.114-.441-4.671-.658.114.973.35 1.933.404 2.913a6.312 6.312 0 0 1-.02.99zm-26.676 2.887a13.88 13.88 0 0 0 1.927-.101c1.107-.088 2.213-.19 3.32-.288a9.046 9.046 0 0 1-.42-1.833c-.263-1.552.163-3.077.033-4.613-1.572.157-3.146.299-4.715.481a4.231 4.231 0 0 0-1.174.347 3.124 3.124 0 0 0 1.029 6.007zm32.038 188.721a12.945 12.945 0 0 0-1.743.076c-1.217.103-2.431.228-3.648.344a13.383 13.383 0 0 1 .386 4.152c.02.769-.517 1.445-.314 2.23l1.014-.145a.849.849 0 0 1 .156-.208c.16-.147.334-.107.522.162a16.645 16.645 0 0 0 4.158-.4 3.07 3.07 0 0 0 2.553-3.429 3.171 3.171 0 0 0-3.084-2.782zm-45.551-5.262c-2.58-1.25-5.178-2.47-7.873-3.465a11.557 11.557 0 0 1-2.756 4.524.352.352 0 0 0-.082.126c-.06.148-.067.353-.113.517a2.829 2.829 0 0 0 1.388 1.02c.473.232.956.444 1.438.658 1.659.737 3.316 1.477 4.98 2.203a3.418 3.418 0 0 0 3.056.06 3.136 3.136 0 0 0-.038-5.643zm85.428-171.599a9.616 9.616 0 0 1-2.57 3.818 1.357 1.357 0 0 0-.442 1.208l.001.039a22.694 22.694 0 0 0 3.853 3 3.06 3.06 0 0 0 4.237-.623 3.106 3.106 0 0 0-.479-4.4 28.475 28.475 0 0 0-4.33-3.245c-.092.066-.237.114-.27.203zM168.958 200.69q-1.748-2.423-3.535-4.817a13.226 13.226 0 0 0-1.159-1.317 2.917 2.917 0 0 0-2-.809 3.158 3.158 0 0 0-3.016 4.182 5.845 5.845 0 0 0 .769 1.373q1.9 2.639 3.854 5.237a6.9 6.9 0 0 0 1.2 1.27 3.032 3.032 0 0 0 3.751 0 3.103 3.103 0 0 0 .964-3.776 8.3 8.3 0 0 0-.828-1.343zm11.326 20.04a9.259 9.259 0 0 1 2.263-4.261 1.855 1.855 0 0 0 .629-1.21 10.116 10.116 0 0 0-4.417-3.492 2.939 2.939 0 0 0-3.372 1.209c-1.025 1.462-.755 3.168.804 4.49 1.33 1.13 2.726 2.18 4.093 3.265zm16.964-168.977a4.788 4.788 0 0 0 1.704-.383c2.071-.814 4.143-1.623 6.205-2.46a5.999 5.999 0 0 0 1.377-.765 3.107 3.107 0 0 0-1.904-5.565 4.738 4.738 0 0 0-1.714.327c-2.118.852-4.247 1.68-6.36 2.546a5.677 5.677 0 0 0-1.36.787 3.047 3.047 0 0 0-.948 3.486 3.095 3.095 0 0 0 3 2.027z" class="cls-2"/><path d="M291.706 56.8a9.616 9.616 0 0 1-2.57 3.82 1.358 1.358 0 0 0-.44 1.208 1.357 1.357 0 0 1 .441-1.208 9.616 9.616 0 0 0 2.57-3.818c.033-.09.178-.137.27-.203-.093.065-.24.113-.271.202zm-18.163-4.328h.001a13.8 13.8 0 0 1 2.823-5.293 13.829 13.829 0 0 0-2.824 5.293zM225.01 239.74l-.015-1.234.014 1.234zm-26.604-14.803v-.001a11.557 11.557 0 0 1-2.756 4.523.354.354 0 0 0-.082.127.352.352 0 0 1 .082-.126 11.557 11.557 0 0 0 2.756-4.523zm26.952 8.518a21.623 21.623 0 0 0-.368 4.71 21.622 21.622 0 0 1 .368-4.71zm21.129-192.39c-.054-.98-.29-1.94-.404-2.913.114.973.35 1.933.404 2.913zm1.038 199.255a.493.493 0 0 0 .677-.045c-.188-.268-.361-.31-.521-.163a.855.855 0 0 0-.156.208z" class="cls-2"/><path d="M247.525 240.32a.855.855 0 0 1 .156-.208.849.849 0 0 0-.156.208z" class="cls-2"/></svg>