<svg width="40" height="40" viewBox="0 0 40 40" fill="none" xmlns="http://www.w3.org/2000/svg">
<g clip-path="url(#clip0_23311_9742)">
<path d="M40 0H0V40H40V0Z" fill="#DD344C" fill-opacity="0.12"/>
<path fill-rule="evenodd" clip-rule="evenodd" d="M8.138 21H7V20H8.139C8.24 17.564 9.031 15.246 10.461 13.27L11.272 13.855C9.965 15.661 9.239 17.776 9.139 20H11V21H9.138C9.231 23.237 9.958 25.365 11.272 27.18L10.461 27.766C9.024 25.78 8.232 23.449 8.138 21ZM27.747 30.556C25.768 31.99 23.443 32.782 21 32.878V34H20V32.879C17.558 32.782 15.233 31.991 13.251 30.557L13.837 29.746C15.648 31.056 17.77 31.783 20 31.879V30H21V31.878C23.231 31.783 25.353 31.056 27.161 29.747L27.747 30.556ZM13.251 10.479C15.233 9.045 17.558 8.253 20 8.157V7H21V8.157C23.443 8.254 25.768 9.045 27.747 10.479L27.161 11.289C25.353 9.98 23.231 9.253 21 9.157V11H20V9.157C17.77 9.253 15.648 9.979 13.837 11.29L13.251 10.479ZM34 20V21H32.861C32.768 23.45 31.975 25.781 30.538 27.766L29.728 27.18C31.041 25.366 31.768 23.237 31.861 21H30V20H31.86C31.76 17.775 31.034 15.66 29.728 13.855L30.538 13.27C31.968 15.245 32.76 17.563 32.86 20H34ZM27.706 12.604L31.486 8.824L32.193 9.531L28.413 13.312L27.706 12.604ZM13.293 28.431L9.513 32.211L8.806 31.504L12.586 27.724L13.293 28.431ZM14.341 15.048L7.186 7.894L7.893 7.187L15.048 14.341L14.341 15.048ZM27.356 26.649L33.813 33.106L33.106 33.813L26.649 27.356L27.356 26.649ZM15.941 21.364C15.983 21.29 16.028 21.216 16.074 21.144C17.001 19.685 16.699 17.676 16.403 16.519C17.22 17.004 17.956 18.11 18.224 18.607C18.319 18.781 18.49 18.893 18.703 18.868C18.901 18.853 19.071 18.723 19.136 18.536C19.966 16.178 19.498 14.429 18.904 13.327C19.657 13.733 20.237 14.339 20.614 15.123C21.385 16.726 21.214 18.917 20.167 20.841C18.727 23.491 19.046 26.272 19.375 27.721C18.532 27.362 17.783 26.955 17.139 26.506C15.485 25.354 14.958 23.095 15.941 21.364ZM23.279 21.207C23.246 21.411 23.343 21.614 23.522 21.718C23.7 21.821 23.924 21.806 24.086 21.675C24.13 21.64 25.035 20.892 25.452 19.072C25.991 19.806 26.597 21.343 25.849 24.24C25.123 27.054 21.659 27.821 20.482 28.002C20.194 26.977 19.576 24.022 21.046 21.319C22.108 19.367 22.365 17.152 21.779 15.359C22.816 16.507 23.736 18.36 23.279 21.207ZM15.072 20.87C13.836 23.046 14.493 25.882 16.567 27.327C17.509 27.984 18.652 28.555 19.962 29.024C20.018 29.043 20.075 29.053 20.131 29.053C20.141 29.053 20.151 29.048 20.16 29.047V29.052C20.389 29.034 25.765 28.567 26.818 24.49C28.172 19.241 25.469 17.689 25.353 17.625C25.206 17.544 25.029 17.543 24.88 17.621C24.733 17.699 24.633 17.846 24.616 18.012C24.567 18.474 24.483 18.874 24.381 19.215C24.111 14.909 20.707 13.179 20.056 12.887C19.379 12.368 18.557 12.012 17.602 11.842C17.387 11.803 17.159 11.918 17.063 12.124C16.967 12.328 17.022 12.573 17.195 12.719C17.278 12.788 19.016 14.293 18.477 17.157C17.86 16.327 16.846 15.283 15.652 15.283C15.487 15.283 15.332 15.365 15.24 15.5C15.146 15.637 15.126 15.81 15.186 15.964C15.197 15.993 16.306 18.916 15.23 20.607C15.174 20.694 15.121 20.781 15.072 20.87Z" fill="#DD344C"/>
</g>
<rect x="0.5" y="0.5" width="39" height="39" stroke="#DD344C"/>
<defs>
<clipPath id="clip0_23311_9742">
<rect width="40" height="40" fill="white"/>
</clipPath>
</defs>
</svg>
