<svg width="40" height="40" viewBox="0 0 40 40" fill="none" xmlns="http://www.w3.org/2000/svg">
<g clip-path="url(#clip0_23298_4070)">
<path d="M40 0H0V40H40V0Z" fill="#E7157B" fill-opacity="0.12"/>
<path fill-rule="evenodd" clip-rule="evenodd" d="M29.765 24.0186L30.7098 24.3523L30.1177 26.0319C30.0455 26.2344 29.8552 26.3666 29.6448 26.3666C29.6267 26.3666 29.6097 26.3656 29.5917 26.3636L27.6771 26.1592L27.7823 25.1631L28.69 25.2593C28.2361 24.6259 27.5007 24.217 26.6852 24.217C25.516 24.217 24.497 25.0488 24.2636 26.1953L23.2808 25.9948C23.6104 24.3834 25.0421 23.2149 26.6852 23.2149C27.8424 23.2149 28.8853 23.8021 29.5225 24.7071L29.765 24.0186ZM29.1078 27.1844L30.0896 27.3848C29.76 28.9953 28.3283 30.1648 26.6852 30.1648C25.5981 30.1648 24.6103 29.6457 23.967 28.8329L23.8468 29.3771L22.868 29.1596L23.2627 27.3828C23.3198 27.1263 23.5673 26.9589 23.8248 26.996L25.6332 27.2656L25.4859 28.2567L24.6954 28.1394C25.1513 28.7608 25.8787 29.1626 26.6852 29.1626C27.8554 29.1626 28.8733 28.3309 29.1078 27.1844ZM32.9981 27.5432L32.404 27.5091C32.1435 27.4921 31.9411 27.6604 31.887 27.8989C31.7548 28.4832 31.5253 29.0384 31.2047 29.5485C31.0745 29.7549 31.1125 30.0265 31.2939 30.1888L31.7377 30.5847L30.5845 31.7382L30.1908 31.2962C30.0285 31.1138 29.755 31.0757 29.5496 31.206C29.0396 31.5277 28.4856 31.7582 27.8995 31.8905C27.66 31.9446 27.4957 32.1631 27.5097 32.4076L27.5428 32.9979H25.9127L25.9468 32.4076C25.9618 32.1621 25.7965 31.9436 25.5581 31.8895C24.9729 31.7582 24.4179 31.5277 23.9089 31.205C23.7015 31.0757 23.43 31.1128 23.2677 31.2952L22.872 31.7382L21.7188 30.5857L22.1616 30.1908C22.345 30.0275 22.3831 29.7569 22.2518 29.5495C21.9312 29.0414 21.7018 28.4862 21.5685 27.8999C21.5174 27.6614 21.318 27.5021 21.0525 27.5091L20.4594 27.5432V25.9127L21.0545 25.9457C21.3221 25.9608 21.5174 25.7944 21.5705 25.5569C21.7038 24.9727 21.9352 24.4175 22.2558 23.9104C22.3871 23.7029 22.349 23.4314 22.1656 23.268L21.7188 22.8701L22.872 21.7177L23.2697 22.1626C23.432 22.345 23.7025 22.3831 23.9099 22.2528C24.4179 21.9331 24.9719 21.7037 25.5581 21.5714C25.7965 21.5173 25.9608 21.2988 25.9468 21.0543L25.9127 20.457H27.5428L27.5097 21.0543C27.4957 21.2998 27.66 21.5173 27.8995 21.5724C28.4846 21.7036 29.0376 21.9331 29.5446 22.2538C29.751 22.3851 30.0245 22.347 30.1858 22.1636L30.5845 21.7167L31.7377 22.8701L31.2919 23.267C31.1095 23.4304 31.0715 23.7019 31.2027 23.9094C31.5243 24.4175 31.7538 24.9717 31.886 25.5559C31.9401 25.7944 32.1405 25.9708 32.403 25.9457L32.9981 25.9127V27.5432ZM33.8427 25.0178C33.7425 24.9235 33.6063 24.8795 33.47 24.8815L32.7546 24.9225C32.6324 24.5137 32.4691 24.1188 32.2657 23.742L32.7997 23.265C32.9029 23.1738 32.963 23.0435 32.967 22.9052C32.9711 22.7679 32.918 22.6346 32.8208 22.5364L30.9182 20.6334C30.821 20.5361 30.6567 20.4921 30.5505 20.487C30.4122 20.49 30.283 20.5512 30.1908 20.6544L29.7109 21.1916C29.3352 20.9881 28.9424 20.8248 28.5337 20.7025L28.5737 19.984C28.5808 19.8467 28.5327 19.7114 28.4375 19.6122C28.3423 19.511 28.2111 19.4548 28.0738 19.4548H25.3827C25.2445 19.4548 25.1122 19.511 25.019 19.6122C24.9239 19.7124 24.8748 19.8467 24.8828 19.985L24.9239 20.7015C24.5151 20.8238 24.1203 20.9871 23.7446 21.1906L23.2667 20.6544C23.1746 20.5512 23.0443 20.49 22.907 20.487C22.7688 20.4951 22.6355 20.5361 22.5384 20.6334L20.6358 22.5364C20.5376 22.6346 20.4845 22.7679 20.4885 22.9052C20.4925 23.0435 20.5536 23.1738 20.6558 23.265L21.1918 23.744C20.9894 24.1198 20.8251 24.5137 20.7029 24.9225L19.9865 24.8815C19.8533 24.8795 19.715 24.9235 19.6138 25.0178C19.5146 25.112 19.4575 25.2442 19.4575 25.3815V28.0733C19.4575 28.2116 19.5146 28.3429 19.6138 28.4381C19.715 28.5333 19.8533 28.5854 19.9865 28.5734L20.6999 28.5333C20.8221 28.9442 20.9854 29.339 21.1888 29.7158L20.6558 30.1908C20.5536 30.282 20.4925 30.4123 20.4885 30.5506C20.4845 30.6879 20.5376 30.8212 20.6358 30.9184L22.5384 32.8225C22.6355 32.9197 22.7648 32.9668 22.907 32.9688C23.0443 32.9648 23.1746 32.9047 23.2667 32.8014L23.7416 32.2683C24.1183 32.4727 24.5141 32.6371 24.9239 32.7593L24.8828 33.4709C24.8748 33.6082 24.9239 33.7435 25.019 33.8437C25.1122 33.9439 25.2445 34 25.3827 34H28.0738C28.2111 34 28.3423 33.9439 28.4375 33.8437C28.5327 33.7435 28.5808 33.6082 28.5737 33.4709L28.5337 32.7603C28.9434 32.6371 29.3382 32.4737 29.7159 32.2693L30.1908 32.8014C30.283 32.9047 30.4122 32.9648 30.5505 32.9688C30.6597 32.9698 30.822 32.9197 30.9182 32.8225L32.8208 30.9184C32.918 30.8212 32.9711 30.6879 32.967 30.5506C32.963 30.4123 32.9029 30.282 32.7997 30.1908L32.2667 29.7138C32.4701 29.337 32.6334 28.9422 32.7556 28.5333L33.47 28.5734C33.6063 28.5854 33.7425 28.5333 33.8427 28.4381C33.9429 28.3429 34 28.2116 34 28.0733V25.3815C34 25.2442 33.9429 25.112 33.8427 25.0178ZM8.00189 27.9731H17.051V28.9752H7.50095C7.22442 28.9752 7 28.7508 7 28.4742V6.50107C7 6.22448 7.22442 6 7.50095 6H30.6076C30.8841 6 31.1085 6.22448 31.1085 6.50107V17.9847H30.1066V7.00215H8.00189V27.9731ZM24.5491 14.9782H24.0552V12.9699H24.5491H26.5369H27.101V14.9782H26.5369H24.5491ZM25.0501 11.9688H26.036V9.98654H25.0501V11.9688ZM27.0378 17.9847V15.9804H27.6019C27.8784 15.9804 28.1029 15.7559 28.1029 15.4793V12.4689C28.1029 12.1923 27.8784 11.9678 27.6019 11.9678H27.0378V9.48547C27.0378 9.20787 26.8144 8.9844 26.5369 8.9844H24.5491C24.2726 8.9844 24.0482 9.20787 24.0482 9.48547V11.9678H23.5543C23.2767 11.9678 23.0533 12.1923 23.0533 12.4689V15.4793C23.0533 15.7559 23.2767 15.9804 23.5543 15.9804H24.0482V17.9847H25.0501V15.9804H26.036V17.9847H27.0378ZM17.5199 18.9397H16.9508V17.0296H17.5199H19.5557H20.0567V18.9397H19.5557H17.5199ZM18.0208 16.0275H19.0538V9.98654H18.0208V16.0275ZM20.0567 21.9301V19.9419H20.5576C20.8341 19.9419 21.0586 19.7174 21.0586 19.4408V16.5286C21.0586 16.252 20.8341 16.0275 20.5576 16.0275H20.0567V9.48547C20.0567 9.20787 19.8322 8.9844 19.5557 8.9844H17.5199C17.2433 8.9844 17.0189 9.20787 17.0189 9.48547V16.0275H16.4499C16.1733 16.0275 15.9489 16.252 15.9489 16.5286V19.4408C15.9489 19.7174 16.1733 19.9419 16.4499 19.9419H17.0189V25.8956H18.0208V19.9419H19.0548V21.9301H20.0567ZM10.9855 13.0521H11.9724V9.98654H10.9855V13.0521ZM10.9855 25.0308H11.9724V16.9485H10.9855V25.0308ZM9.99165 14.0543H10.4846H12.4733H12.9663V15.9453H12.4733H10.4846H9.99165V14.0543ZM10.4846 26.0329H12.4733C12.7509 26.0329 12.9743 25.8084 12.9743 25.5319V16.9475H13.4672C13.7447 16.9475 13.9682 16.724 13.9682 16.4464V13.5532C13.9682 13.2756 13.7447 13.0521 13.4672 13.0521H12.9743V9.48547C12.9743 9.20787 12.7509 8.9844 12.4733 8.9844H10.4846C10.2071 8.9844 9.98364 9.20787 9.98364 9.48547V13.0521H9.4907C9.21318 13.0521 8.98976 13.2756 8.98976 13.5532V16.4464C8.98976 16.724 9.21318 16.9475 9.4907 16.9475H9.98364V25.5319C9.98364 25.8084 10.2071 26.0329 10.4846 26.0329Z" fill="#E7157B"/>
</g>
<rect x="0.5" y="0.5" width="39" height="39" stroke="#E7157B"/>
<defs>
<clipPath id="clip0_23298_4070">
<rect width="40" height="40" fill="white"/>
</clipPath>
</defs>
</svg>
