<svg width="40" height="40" viewBox="0 0 40 40" fill="none" xmlns="http://www.w3.org/2000/svg">
<g clip-path="url(#clip0_23310_9402)">
<path d="M40 0H0V40H40V0Z" fill="#8C4FFF" fill-opacity="0.12"/>
<path fill-rule="evenodd" clip-rule="evenodd" d="M31.66 27.0818C31.241 27.4988 30.513 27.4978 30.098 27.0818C29.889 26.8738 29.774 26.5958 29.774 26.3008C29.774 26.0058 29.889 25.7278 30.098 25.5198C30.306 25.3108 30.583 25.1957 30.879 25.1957C31.174 25.1957 31.451 25.3108 31.66 25.5198C32.091 25.9498 32.091 26.6508 31.66 27.0818ZM31.438 24.2967V20.9837H30.438V24.2638C30.049 24.3418 29.681 24.5228 29.39 24.8118C28.993 25.2098 28.774 25.7378 28.774 26.3008C28.774 26.6318 28.858 26.9487 29.003 27.2367L26.303 28.5327L26.736 29.4347L29.676 28.0228C30.026 28.2688 30.441 28.4048 30.879 28.4048C31.44 28.4048 31.97 28.1857 32.367 27.7887C33.187 26.9677 33.187 25.6328 32.367 24.8118C32.107 24.5528 31.783 24.3867 31.438 24.2967ZM9.323 27.0818C9.114 26.8738 9 26.5958 9 26.3008C9 26.0058 9.114 25.7278 9.323 25.5198C9.531 25.3108 9.808 25.1957 10.104 25.1957C10.399 25.1957 10.677 25.3108 10.886 25.5198C11.316 25.9498 11.316 26.6508 10.886 27.0818C10.467 27.4988 9.738 27.4978 9.323 27.0818ZM11.593 24.8118C11.276 24.4968 10.867 24.3117 10.438 24.2467V20.9837H9.438V24.3277C9.134 24.4237 8.848 24.5798 8.616 24.8118C8.219 25.2098 8 25.7378 8 26.3008C8 26.8628 8.219 27.3917 8.616 27.7887C9.014 28.1857 9.542 28.4048 10.104 28.4048C10.542 28.4048 10.958 28.2687 11.308 28.0217L14.223 29.4097L14.653 28.5068L11.979 27.2337C12.37 26.4467 12.247 25.4678 11.593 24.8118ZM9.323 12.7058C9.531 12.4978 9.808 12.3827 10.104 12.3827C10.399 12.3827 10.677 12.4978 10.886 12.7058C11.316 13.1368 11.316 13.8378 10.886 14.2688C10.467 14.6858 9.738 14.6838 9.323 14.2688C9.114 14.0598 9 13.7817 9 13.4867C9 13.1917 9.114 12.9148 9.323 12.7058ZM9.438 15.4747V18.9837H10.438V15.5588C10.749 15.5098 11.043 15.3948 11.301 15.2148L13.674 16.4287L14.129 15.5387L11.973 14.4358C12.275 13.8368 12.274 13.1297 11.969 12.5317L14.125 11.3938L13.658 10.5098L11.294 11.7577C10.484 11.2167 9.319 11.2957 8.616 11.9987C8.219 12.3957 8 12.9247 8 13.4867C8 14.0497 8.219 14.5777 8.616 14.9757C8.85 15.2097 9.133 15.3727 9.438 15.4747ZM21.22 8.88475C20.79 9.31475 20.087 9.31475 19.657 8.88475C19.448 8.67675 19.334 8.39875 19.334 8.10375C19.334 7.80875 19.448 7.53075 19.657 7.32275C19.872 7.10775 20.155 6.99975 20.438 6.99975C20.722 6.99975 21.005 7.10775 21.22 7.32275C21.429 7.53075 21.543 7.80875 21.543 8.10375C21.543 8.39875 21.429 8.67675 21.22 8.88475ZM21.927 6.61575C21.106 5.79475 19.77 5.79475 18.95 6.61575C18.569 6.99675 18.357 7.49975 18.341 8.03675L16.311 9.10775L16.778 9.99175L18.566 9.04775C18.666 9.24475 18.789 9.43075 18.95 9.59175C19.36 10.0018 19.899 10.2067 20.438 10.2067C20.977 10.2067 21.516 10.0018 21.927 9.59175C22.102 9.41575 22.237 9.21075 22.34 8.99175L24.451 10.1108L24.92 9.22775L22.528 7.95875C22.494 7.45175 22.29 6.97775 21.927 6.61575ZM21.22 32.6538C20.79 33.0828 20.087 33.0828 19.657 32.6538C19.448 32.4448 19.334 32.1667 19.334 31.8727C19.334 31.5777 19.448 31.2997 19.657 31.0907C19.872 30.8757 20.155 30.7687 20.438 30.7687C20.722 30.7687 21.005 30.8757 21.22 31.0907C21.429 31.2997 21.543 31.5777 21.543 31.8727C21.543 32.1667 21.429 32.4448 21.22 32.6538ZM24.221 29.5327L22.074 30.5627C22.025 30.5027 21.982 30.4398 21.927 30.3838C21.644 30.1028 21.3 29.9238 20.938 29.8358V27.4867H19.938V29.8358C19.577 29.9238 19.232 30.1028 18.95 30.3838C18.913 30.4208 18.886 30.4647 18.851 30.5037L16.808 29.5317L16.379 30.4357L18.393 31.3937C18.357 31.5497 18.334 31.7087 18.334 31.8727C18.334 32.4347 18.553 32.9627 18.95 33.3607C19.36 33.7707 19.899 33.9757 20.438 33.9757C20.977 33.9757 21.516 33.7707 21.927 33.3607C22.324 32.9627 22.543 32.4347 22.543 31.8727C22.543 31.7347 22.529 31.5987 22.503 31.4667L24.654 30.4347L24.221 29.5327ZM30.879 12.3827C31.174 12.3827 31.451 12.4978 31.66 12.7058C32.091 13.1368 32.091 13.8378 31.66 14.2688C31.241 14.6858 30.513 14.6838 30.098 14.2688C29.889 14.0598 29.774 13.7817 29.774 13.4867C29.774 13.1917 29.889 12.9148 30.098 12.7058C30.306 12.4978 30.583 12.3827 30.879 12.3827ZM27.272 16.4298L29.681 15.2137C29.91 15.3737 30.166 15.4858 30.438 15.5428V18.9837H31.438V15.5068C31.785 15.4118 32.106 15.2367 32.367 14.9757C33.187 14.1547 33.187 12.8197 32.367 11.9987C31.664 11.2957 30.5 11.2177 29.69 11.7577L27.57 10.6327L27.101 11.5168L29.014 12.5308C28.863 12.8248 28.774 13.1467 28.774 13.4867C28.774 13.8227 28.861 14.1427 29.009 14.4327L26.821 15.5378L27.272 16.4298ZM21.22 20.6637C20.79 21.0937 20.087 21.0937 19.657 20.6637C19.448 20.4557 19.334 20.1777 19.334 19.8827C19.334 19.5877 19.448 19.3097 19.657 19.1017C19.872 18.8867 20.155 18.7787 20.438 18.7787C20.722 18.7787 21.005 18.8867 21.22 19.1017C21.429 19.3097 21.543 19.5877 21.543 19.8827C21.543 20.1777 21.429 20.4557 21.22 20.6637ZM21.636 18.1567C20.918 17.6587 19.961 17.6588 19.243 18.1548L16.666 16.8368L16.211 17.7278L18.569 18.9338C18.421 19.2258 18.334 19.5457 18.334 19.8827C18.334 20.4447 18.553 20.9738 18.95 21.3708C19.232 21.6528 19.577 21.8308 19.938 21.9188V25.4867H20.938V21.9188C21.3 21.8308 21.644 21.6528 21.927 21.3708C22.324 20.9738 22.543 20.4447 22.543 19.8827C22.543 19.5467 22.456 19.2277 22.309 18.9357L24.664 17.7477L24.213 16.8547L21.636 18.1567Z" fill="#8C4FFF"/>
</g>
<rect x="0.5" y="0.5" width="39" height="39" stroke="#8C4FFF"/>
<defs>
<clipPath id="clip0_23310_9402">
<rect width="40" height="40" fill="white"/>
</clipPath>
</defs>
</svg>
