<svg width="40" height="40" viewBox="0 0 40 40" fill="none" xmlns="http://www.w3.org/2000/svg">
<g clip-path="url(#clip0_23296_3545)">
<path d="M40 0H0V40H40V0Z" fill="#C925D1" fill-opacity="0.12"/>
<path fill-rule="evenodd" clip-rule="evenodd" d="M22.024 33H23.024V30.0035H22.024V33ZM17.005 33H18.005V30.0035H17.005V33ZM26 32.0012H27V29.0046H26V32.0012ZM13 32.0012H14V29.0046H13V32.0012ZM20.018 17.0414C16.301 17.0414 14 16.0825 14 15.1935V11.6456C15.173 12.5306 17.304 13.064 20.018 13.064C22.622 13.064 24.8 12.4807 26 11.5737V15.1935C26 16.1025 23.762 17.0414 20.018 17.0414ZM20.018 22.0596C16.471 22.0596 14 20.9759 14 20.003V16.7997C15.34 17.6917 17.805 18.0403 20.018 18.0403C22.743 18.0403 24.843 17.5778 26 16.7897V20.003C26 20.9759 23.544 22.0596 20.018 22.0596ZM20.018 27.0658C16.527 27.0658 14 25.5626 14 24.5497V21.6501C15.294 22.578 17.664 23.0585 20.018 23.0585C22.653 23.0585 24.811 22.5111 26 21.6421V24.5497C26 25.5506 23.614 27.0658 20.018 27.0658ZM20.018 7.99885C23.713 7.99885 26 8.98771 26 9.90365C26 10.8066 23.724 12.0652 20.018 12.0652C16.588 12.0652 14 11.1362 14 9.90365C14 9.12555 16.143 7.99885 20.018 7.99885ZM20.018 7C16.638 7 13 7.90895 13 9.90365V24.5497C13 26.4226 16.279 28.0647 20.018 28.0647C23.737 28.0647 27 26.4226 27 24.5497V9.90365C27 7.89796 23.493 7 20.018 7Z" fill="#C925D1"/>
</g>
<rect x="0.5" y="0.5" width="39" height="39" stroke="#C925D1"/>
<defs>
<clipPath id="clip0_23296_3545">
<rect width="40" height="40" fill="white"/>
</clipPath>
</defs>
</svg>
