<?xml version="1.0" encoding="UTF-8"?><!DOCTYPE svg>
    <svg width="20" height="20" viewBox="0 0 32 25" fill="none" xmlns="http://www.w3.org/2000/svg">
    <path
        d="M7.98809 23.9352C7.98809 21.6514 8.93372 19.461 10.6178 17.8462C12.3011 16.2311 14.5849 15.3239 16.966 15.3239C19.347 15.3239 21.6301 16.2311 23.3142 17.8462C24.9975 19.461 25.9435 21.6514 25.9435 23.9352H7.98809ZM16.966 14.2476C13.2456 14.2476 10.2324 11.3571 10.2324 7.78897C10.2324 4.22004 13.246 1.33038 16.9656 1.33038C20.686 1.33038 23.6992 4.22041 23.6992 7.78897C23.6992 11.3571 20.686 14.2476 16.9656 14.2476H16.966ZM25.2288 16.6512C26.9453 17.0743 28.479 18.006 29.6111 19.3141C30.7436 20.6217 31.4169 22.2391 31.5356 23.9352H28.1878C28.1878 21.1258 27.0658 18.5681 25.2288 16.6512ZM22.9585 14.2012C23.8924 13.4028 24.6448 12.414 25.1651 11.301C25.6784 10.2014 25.9441 9.0025 25.9435 7.78897C25.9445 6.31196 25.5513 4.86146 24.8046 3.5871C26.0754 3.83199 27.2188 4.49167 28.0401 5.45389C28.8618 6.41648 29.3105 7.62207 29.3105 8.86534C29.3105 9.63239 29.1402 10.3904 28.8102 11.0889C28.4761 11.7925 27.9939 12.4156 27.3966 12.9154C26.7897 13.4235 26.0833 13.7993 25.3226 14.0185C24.5555 14.2405 23.751 14.3027 22.9589 14.2012H22.9585ZM4.92362 13.5491H7.82684V15.3819H4.92362V18.1314H2.98827V15.3819H0.0850525V13.5491H2.98827V10.7999H4.92362V13.5491Z"
        fill="white" />
</svg>