<?xml version="1.0" encoding="UTF-8"?><!DOCTYPE svg>
<svg width="32" height="32" viewBox="0 0 121 151" fill="none" xmlns="http://www.w3.org/2000/svg"><rect x="2.579" y="3.157" width="115" height="145" rx="22.5" fill="#326CE5" stroke="#326CE5" stroke-width="5"/><path d="M29.08 106.657c0-6.365 2.49-12.47 6.923-16.97 4.433-4.501 10.445-7.03 16.714-7.03 6.27 0 12.282 2.529 16.715 7.03 4.433 4.5 6.924 10.605 6.924 16.97H29.079Zm23.637-27c-9.795 0-17.728-8.055-17.728-18s7.933-18 17.728-18c9.795 0 17.729 8.055 17.729 18s-7.934 18-17.729 18Zm21.756 6.7a22.139 22.139 0 0 1 11.54 7.42 22.707 22.707 0 0 1 5.066 12.88h-8.814c0-7.83-2.955-14.958-7.792-20.3Zm-5.977-6.829a23.925 23.925 0 0 0 5.81-8.083 24.253 24.253 0 0 0 2.05-9.788 24.179 24.179 0 0 0-3-11.709 14.736 14.736 0 0 1 8.52 5.203 15.142 15.142 0 0 1 3.344 9.506c0 2.138-.449 4.25-1.318 6.197a14.984 14.984 0 0 1-3.721 5.09 14.709 14.709 0 0 1-5.461 3.075 14.558 14.558 0 0 1-6.224.51Z" fill="#fff"/></svg>
