<?xml version="1.0" encoding="UTF-8"?><!DOCTYPE svg>
<svg width="32" height="32" viewBox="0 0 150 150" fill="none" xmlns="http://www.w3.org/2000/svg">
<path fill-rule="evenodd" clip-rule="evenodd" d="M42.6229 142.631C5.27082 124.748 -10.5136 79.967 7.36776 42.6105C15.9548 24.6712 31.3155 10.8783 50.071 4.26587C68.8264 -2.34652 89.44 -1.2366 107.377 7.35132C144.729 25.2348 160.514 70.0157 142.632 107.372C124.751 144.729 79.9752 160.515 42.6229 142.631Z" fill="#326CE5"/>
<path d="M44.939 106.221C44.939 99.8555 47.4294 93.751 51.8624 89.2501C56.2954 84.7493 62.3079 82.2207 68.5771 82.2207C74.8464 82.2207 80.8589 84.7493 85.2919 89.2501C89.7249 93.751 92.2153 99.8555 92.2153 106.221H44.939ZM68.5771 79.2207C58.7821 79.2207 50.8485 71.1657 50.8485 61.2207C50.8485 51.2757 58.7821 43.2207 68.5771 43.2207C78.3722 43.2207 86.3058 51.2757 86.3058 61.2207C86.3058 71.1657 78.3722 79.2207 68.5771 79.2207ZM90.3331 85.9197C94.8529 87.0991 98.891 89.6962 101.872 93.3412C104.854 96.9862 106.627 101.493 106.939 106.221H98.1249C98.1249 98.3907 95.1701 91.2627 90.3331 85.9197ZM84.3556 79.0917C86.8317 76.8431 88.8119 74.0887 90.1664 71.0089C91.5209 67.9292 92.2191 64.5936 92.2153 61.2207C92.2216 57.1211 91.1888 53.0888 89.2162 49.5117C92.5629 50.1945 95.5735 52.0328 97.7362 54.7143C99.8989 57.3958 101.08 60.7549 101.08 64.2207C101.08 66.3581 100.631 68.471 99.7621 70.4177C98.893 72.3645 97.6241 74.1001 96.0405 75.5083C94.4568 76.9165 92.5949 77.9648 90.5797 78.5828C88.5644 79.2008 86.4423 79.3743 84.3556 79.0917V79.0917Z" fill="white"/>
</svg>