<svg width="32" height="32" viewBox="0 0 32 32" fill="none" xmlns="http://www.w3.org/2000/svg">
    <g clip-path="url(#clip0_21_9)">
        <path
            d="M8.04111 32C8.04111 28.7669 9.00327 25.6661 10.7168 23.3803C12.4295 21.0939 14.7532 19.8096 17.1759 19.8096C19.5985 19.8096 21.9215 21.0939 23.635 23.3803C25.3477 25.6661 26.3102 28.7669 26.3102 32H8.04111ZM17.1759 18.2859C13.3905 18.2859 10.3246 14.1941 10.3246 9.14293C10.3246 4.09067 13.3909 0 17.1755 0C20.9609 0 24.0267 4.0912 24.0267 9.14293C24.0267 14.1941 20.9609 18.2859 17.1755 18.2859H17.1759ZM25.5831 21.6885C27.3295 22.2875 28.89 23.6064 30.042 25.4581C31.1942 27.3093 31.8793 29.5989 32 32H28.5937C28.5937 28.0229 27.4522 24.4021 25.5831 21.6885ZM23.2731 18.2203C24.2233 17.0901 24.9888 15.6902 25.5183 14.1147C26.0405 12.558 26.3109 10.8608 26.3102 9.14293C26.3112 7.05205 25.9112 4.99867 25.1514 3.19467C26.4444 3.54133 27.6078 4.4752 28.4435 5.83733C29.2795 7.2 29.7361 8.90667 29.7361 10.6667C29.7361 11.7525 29.5628 12.8256 29.227 13.8144C28.8871 14.8104 28.3965 15.6924 27.7887 16.4C27.1712 17.1194 26.4524 17.6513 25.6785 17.9616C24.898 18.2759 24.0794 18.3639 23.2735 18.2203H23.2731ZM4.92311 17.2971H7.87705V19.8917H4.92311V23.784H2.95394V19.8917H0V17.2971H2.95394V13.4053H4.92311V17.2971Z"
            fill="white" />
    </g>
    <defs>
        <clipPath id="clip0_21_9">
            <rect width="32" height="32" fill="white" />
        </clipPath>
    </defs>
</svg>