<?xml version="1.0" encoding="UTF-8"?><!DOCTYPE svg>
<svg width="20" height="20" viewBox="0 0 32 32" fill="none" xmlns="http://www.w3.org/2000/svg">
    <path
        d="M0.780468 31.0921C0.780468 28.009 1.9866 25.0518 4.1339 22.872C6.2812 20.6918 9.19335 19.4668 12.23 19.4668C15.2671 19.4668 18.1793 20.6918 20.3266 22.872C22.4739 25.0518 23.6805 28.009 23.6805 31.0921H0.779984H0.780468ZM12.23 18.0136C7.48539 18.0136 3.64273 14.1118 3.64273 9.29458C3.64273 4.47732 7.48539 0.575562 12.23 0.575562C16.9746 0.575562 20.8177 4.47732 20.8177 9.29458C20.8177 14.1118 16.9746 18.0136 12.23 18.0136ZM22.7684 21.259C24.9652 21.8349 26.9225 23.0934 28.3582 24.8532C29.8055 26.6268 30.6633 28.8078 30.8121 31.0921H26.5427C26.5427 27.2993 25.1114 23.8466 22.7684 21.259V21.259ZM19.8732 17.9511C21.0754 16.8577 22.0343 15.5238 22.6875 14.0358C23.3442 12.5415 23.6824 10.9268 23.6805 9.29458C23.6841 7.31147 23.1841 5.35991 22.2273 3.62286C23.8543 3.95719 25.3138 4.84846 26.3543 6.14314C27.4041 7.44806 27.9757 9.07296 27.9741 10.7477C27.9741 11.7834 27.7566 12.8064 27.3357 13.7495C26.9165 14.6899 26.3021 15.5303 25.5333 16.2151C24.7688 16.8958 23.8665 17.4038 22.888 17.7046C21.9128 18.004 20.8842 18.0883 19.8732 17.9516V17.9511Z"
        fill="white" />
</svg>