<?xml version="1.0" encoding="UTF-8"?><!DOCTYPE svg>
<svg width="32" height="32" viewBox="0 0 151 151" fill="none" xmlns="http://www.w3.org/2000/svg">
<path fill-rule="evenodd" clip-rule="evenodd" d="M42.702 143.289C5.34992 125.405 -10.4345 80.6242 7.44686 43.2677C16.0339 25.3285 31.3947 11.5355 50.1501 4.92309C68.9055 -1.68929 89.5191 -0.579377 107.456 8.00855C144.809 25.892 160.593 70.6729 142.711 108.029C124.83 145.386 80.0543 161.172 42.702 143.289Z" fill="#326CE5"/>
<path d="M55.1026 106C55.1026 99.9379 57.5086 94.1241 61.7912 89.8376C66.0739 85.551 71.8825 83.1429 77.9391 83.1429C83.9958 83.1429 89.8043 85.551 94.087 89.8376C98.3697 94.1241 100.776 99.9379 100.776 106H55.1026ZM77.9391 80.2857C68.4762 80.2857 60.8117 72.6143 60.8117 63.1429C60.8117 53.6714 68.4762 46 77.9391 46C87.402 46 95.0665 53.6714 95.0665 63.1429C95.0665 72.6143 87.402 80.2857 77.9391 80.2857ZM98.9573 86.6657C103.324 87.789 107.225 90.2624 110.105 93.7338C112.986 97.2052 114.699 101.498 115 106H106.485C106.485 98.5429 103.63 91.7543 98.9573 86.6657ZM93.1825 80.1629C95.5746 78.0214 97.4877 75.3981 98.7962 72.465C100.105 69.5319 100.779 66.3551 100.776 63.1429C100.782 59.2385 99.784 55.3982 97.8783 51.9914C101.111 52.6417 104.02 54.3925 106.109 56.9463C108.199 59.5001 109.34 62.6992 109.339 66C109.34 68.0356 108.906 70.0479 108.067 71.9019C107.227 73.756 106.001 75.409 104.471 76.7501C102.941 78.0913 101.142 79.0896 99.1955 79.6782C97.2486 80.2668 95.1984 80.432 93.1825 80.1629Z" fill="white"/>
<path d="M47.3077 78.4324H54.6923V83.2973H47.3077V90.5946H42.3846V83.2973H35V78.4324H42.3846V71.1351H47.3077V78.4324Z" fill="white"/>
</svg>