<svg width="32" height="32" viewBox="0 0 32 32" fill="none" xmlns="http://www.w3.org/2000/svg">
    <g clip-path="url(#clip0_23_2)">
        <path
            d="M0.000515845 32.5161C0.000515845 29.231 1.28568 26.08 3.57368 23.7574C5.86168 21.4343 8.96464 20.129 12.2003 20.129C15.4364 20.129 18.5394 21.4343 20.8274 23.7574C23.1154 26.08 24.401 29.231 24.401 32.5161H0H0.000515845ZM12.2003 18.5806C7.14477 18.5806 3.05032 14.4232 3.05032 9.29032C3.05032 4.15742 7.14477 0 12.2003 0C17.2557 0 21.3507 4.15742 21.3507 9.29032C21.3507 14.4232 17.2557 18.5806 12.2003 18.5806ZM23.4292 22.0387C25.77 22.6524 27.8555 23.9933 29.3853 25.8684C30.9274 27.7582 31.8414 30.0821 32 32.5161H27.4508C27.4508 28.4748 25.9257 24.7959 23.4292 22.0387V22.0387ZM20.3443 18.5141C21.6253 17.3491 22.6469 15.9277 23.343 14.3422C24.0428 12.75 24.4031 11.0295 24.401 9.29032C24.4049 7.17727 23.8721 5.09784 22.8526 3.24697C24.5863 3.60321 26.1413 4.55288 27.2501 5.93239C28.3687 7.32281 28.9777 9.05418 28.976 10.8387C28.976 11.9422 28.7443 13.0323 28.2957 14.0372C27.8491 15.0392 27.1945 15.9347 26.3752 16.6643C25.5606 17.3896 24.5993 17.9309 23.5566 18.2514C22.5175 18.5704 21.4215 18.6602 20.3443 18.5146V18.5141Z"
            fill="white" />
    </g>
    <defs>
        <clipPath id="clip0_23_2">
            <rect width="32" height="32" fill="white" />
        </clipPath>
    </defs>
</svg>