<?xml version="1.0" encoding="UTF-8"?><!DOCTYPE svg>
<svg width="32" height="32" viewBox="0 0 121 151" fill="none" xmlns="http://www.w3.org/2000/svg"><rect x="2.579" y="3.157" width="115" height="145" rx="22.5" fill="#326CE5" stroke="#326CE5" stroke-width="5"/><path d="M39.234 106c0-6.062 2.51-11.876 6.98-16.162 4.468-4.287 10.53-6.695 16.85-6.695 6.32 0 12.38 2.408 16.85 6.695 4.468 4.286 6.979 10.1 6.979 16.162H39.234Zm23.83-25.714c-9.875 0-17.873-7.672-17.873-17.143C45.191 53.67 53.19 46 63.063 46c9.875 0 17.873 7.671 17.873 17.143 0 9.471-7.998 17.143-17.873 17.143Zm21.932 6.38c4.556 1.123 8.627 3.596 11.632 7.068 3.006 3.471 4.793 7.764 5.108 12.266H92.85c0-7.457-2.978-14.246-7.854-19.334Zm-6.026-6.503a22.872 22.872 0 0 0 5.857-7.698 22.011 22.011 0 0 0 2.066-9.322A22.033 22.033 0 0 0 83.87 51.99c3.373.65 6.408 2.401 8.588 4.955C94.639 59.5 95.83 62.7 95.83 66c0 2.036-.452 4.048-1.328 5.902a14.341 14.341 0 0 1-3.752 4.848 15.08 15.08 0 0 1-5.505 2.928 15.49 15.49 0 0 1-6.274.485ZM31.1 78.432h7.706v4.865H31.1v7.298h-5.137v-7.298h-7.706v-4.865h7.706v-7.297H31.1v7.297Z" fill="#fff"/></svg>