<svg width="32" height="32" viewBox="0 0 150 150" fill="none" xmlns="http://www.w3.org/2000/svg">
<g clip-path="url(#clip0_6888_33297)">
<path fill-rule="evenodd" clip-rule="evenodd" d="M42.623 142.631C5.27002 124.748 -10.514 79.967 7.36801 42.611C15.954 24.6725 31.3143 10.8794 50.07 4.26603C59.3566 0.991846 69.1972 -0.42092 79.0299 0.108409C88.8625 0.637738 98.4946 3.09879 107.376 7.35103C144.728 25.235 160.513 70.016 142.631 107.372C124.75 144.729 79.974 160.515 42.621 142.631H42.623Z" fill="#326CE5"/>
<g clip-path="url(#clip1_6888_33297)" filter="url(#filter0_d_6888_33297)">
<path d="M71.6742 64.1732L71.1793 63.7476L58.115 74.981C58.0843 75.0072 58.0563 75.0366 58.0257 75.0629C57.8164 75.2494 57.6246 75.4626 57.4537 75.6988C57.3986 75.7722 57.347 75.8479 57.2963 75.9247L57.2753 75.9438C57.2106 76.0541 57.1459 76.1844 57.082 76.2947C56.8571 76.7482 56.738 77.2663 56.7374 77.7944C56.7357 78.8557 57.2237 79.8732 58.0931 80.6257L60.7196 82.8832L71.6523 73.4822C72.3678 72.8729 72.9354 72.1488 73.3238 71.351C73.7122 70.5522 73.9133 69.6969 73.915 68.831C73.9119 67.9435 73.7116 67.0732 73.3353 66.3097C72.9503 65.511 72.3861 64.7838 71.6734 64.1732H71.6742Z" fill="white"/>
<path d="M117.776 52.9202L112.158 48.0901C110.816 46.9341 109.019 46.2489 107.12 46.1711C105.222 46.0923 103.358 46.6241 101.892 47.6635C101.699 47.7938 101.526 47.942 101.332 48.0901L97.7163 51.1989L97.0708 51.7547L97.0489 51.7726L110.458 63.3025C110.796 63.6 111.113 63.9153 111.405 64.2472C111.414 64.2556 111.42 64.2663 111.429 64.2747C111.621 65.2738 111.771 66.2838 111.878 67.3013L111.857 67.3191C111.753 66.2966 111.595 65.2828 111.383 64.2841C111.089 63.9397 110.772 63.6238 110.436 63.3394L97.0489 51.7926L82.3927 39.1887C80.3488 37.4462 77.5867 36.4678 74.7092 36.4678C71.8309 36.4678 69.0687 37.4451 67.0257 39.1887L36.7416 65.21C35.0361 66.6875 33.9516 68.6131 33.6586 70.68C33.3665 72.7485 33.8833 74.841 35.1279 76.6275L35.1428 76.6516L32.2434 79.1066C31.5323 79.7172 30.9682 80.4435 30.5834 81.2422C30.2066 82.005 30.0052 82.8744 30 83.7613C30 84.625 30.1985 85.4816 30.5834 86.2803C30.9682 87.0791 31.5323 87.8041 32.2434 88.416L37.8611 93.246C39.0095 94.2288 40.4894 94.875 42.09 95.0903C43.6906 95.306 45.3287 95.0819 46.7719 94.4494C47.4536 94.1569 48.0983 93.7519 48.6873 93.246L50.4733 91.7094L51.1187 91.1547L51.3234 90.9791L64.7856 102.555C66.8297 104.298 69.5907 105.275 72.4693 105.275C75.3476 105.275 78.1098 104.298 80.1528 102.555L110.457 76.5338C111.959 75.2413 112.986 73.5985 113.41 71.8088C113.835 70.0191 113.638 68.1622 112.846 66.466L112.362 66.8831L112.868 66.4481C112.864 66.4385 112.859 66.43 112.855 66.4216L117.753 62.2097C119.187 60.98 119.996 59.31 120 57.5685C120.003 55.8261 119.203 54.1541 117.775 52.9192L117.776 52.9202ZM94.0578 68.2431V68.2441V68.2431ZM94.2572 67.911C94.3146 67.8016 94.37 67.691 94.4231 67.5788V67.5778C94.5308 67.356 94.6175 67.1153 94.7033 66.8938C94.6175 67.1331 94.5308 67.356 94.4231 67.5778C94.3697 67.6903 94.3143 67.8013 94.2572 67.911ZM35.2172 76.5497L35.2346 76.6138C35.2277 76.5938 35.2215 76.5728 35.2136 76.5538L35.2172 76.5507V76.5497ZM72.4499 87.3072C71.6419 88.0028 70.6814 88.5535 69.625 88.9306C68.5431 89.3113 67.4217 89.5032 66.2945 89.5003C65.1667 89.5035 64.0445 89.3116 62.9619 88.9306C61.9064 88.5535 60.9471 88.0028 60.1388 87.3072L57.8577 85.345L51.3251 90.9622L44.029 84.6882L51.3146 90.9528L57.8569 85.3272L55.2531 83.0888C54.6577 82.5891 54.1341 81.976 53.7033 81.2738C53.1199 80.3088 52.7849 79.2475 52.7219 78.1628C52.6589 77.0763 52.8688 75.9916 53.3376 74.9816C53.4426 74.7525 53.5642 74.5297 53.7033 74.3153C54.1342 73.6131 54.6577 73.0006 55.2531 72.5016L68.3068 61.2775L68.3175 61.2869L75.3119 55.2712C76.1208 54.5766 77.0804 54.0248 78.1368 53.6486C79.2185 53.2681 80.3401 53.0762 81.4673 53.079C82.6106 53.079 83.7432 53.2724 84.7999 53.6486C85.8554 54.0248 86.8148 54.5766 87.6231 55.2712L90.2924 57.5666L87.4298 60.0278L87.4403 60.0385L87.4298 60.0469L84.7394 57.7325C84.286 57.34 83.7801 57.0431 83.2437 56.855C82.6677 56.6491 82.0695 56.5456 81.4682 56.5481C81.1726 56.5444 80.8773 56.5694 80.5851 56.6228C79.6806 56.7741 78.8489 57.1544 78.1973 57.7147L71.1992 63.7281L71.6945 64.1538C72.4063 64.7653 72.9705 65.4906 73.3553 66.2894C73.74 67.0881 73.9386 67.9447 73.9386 68.8085C73.9386 69.6735 73.74 70.5288 73.3553 71.3275C72.9705 72.1263 72.4063 72.8516 71.6945 73.4631L60.7395 82.8825L63.0207 84.8447C63.4808 85.2331 63.9916 85.526 64.5319 85.7119C65.0969 85.9116 65.7022 86.0135 66.3136 86.0103C66.9039 86.016 67.4915 85.9163 68.0576 85.715C68.1862 85.6591 68.3375 85.6035 68.466 85.5478C68.4879 85.5478 68.4879 85.53 68.5099 85.53C68.9033 85.346 69.2656 85.1147 69.5857 84.8447L78.4107 77.2569L78.3233 77.1835C77.612 76.5716 77.0481 75.8466 76.663 75.0478C76.2862 74.285 76.0851 73.4156 76.0797 72.5288C76.0797 71.6638 76.2783 70.8085 76.663 70.0097C77.0481 69.211 77.612 68.486 78.3233 67.8741L78.3449 67.8563C77.6339 68.466 77.0697 69.1919 76.6841 69.9906C76.3075 70.7538 76.1067 71.6231 76.1017 72.51C76.1017 73.3747 76.3002 74.2303 76.685 75.0291C77.0697 75.8275 77.6339 76.5528 78.3449 77.1644L78.4203 77.2297L78.4099 77.2381L81.2724 79.7003L92.507 70.0391C92.719 69.8722 92.9207 69.6866 93.1105 69.4841C92.9207 69.6838 92.7196 69.875 92.507 70.0581L81.2724 79.7185L72.4474 87.306L72.4499 87.3072Z" fill="white"/>
</g>
</g>
<defs>
<filter id="filter0_d_6888_33297" x="26" y="25" width="98" height="108" filterUnits="userSpaceOnUse" color-interpolation-filters="sRGB">
<feFlood flood-opacity="0" result="BackgroundImageFix"/>
<feColorMatrix in="SourceAlpha" type="matrix" values="0 0 0 0 0 0 0 0 0 0 0 0 0 0 0 0 0 0 127 0" result="hardAlpha"/>
<feOffset dy="4"/>
<feGaussianBlur stdDeviation="2"/>
<feComposite in2="hardAlpha" operator="out"/>
<feColorMatrix type="matrix" values="0 0 0 0 0 0 0 0 0 0 0 0 0 0 0 0 0 0 0.25 0"/>
<feBlend mode="normal" in2="BackgroundImageFix" result="effect1_dropShadow_6888_33297"/>
<feBlend mode="normal" in="SourceGraphic" in2="effect1_dropShadow_6888_33297" result="shape"/>
</filter>
<clipPath id="clip0_6888_33297">
<rect width="150" height="150" fill="white"/>
</clipPath>
<clipPath id="clip1_6888_33297">
<rect width="90" height="100" fill="white" transform="translate(30 25)"/>
</clipPath>
</defs>
</svg>
