<svg width="32" height="32" viewBox="0 0 150 150" fill="none" xmlns="http://www.w3.org/2000/svg">
<g clip-path="url(#clip0_6703_27789)">
<path fill-rule="evenodd" clip-rule="evenodd" d="M42.623 142.631C5.26999 124.748 -10.514 79.967 7.36798 42.611C15.954 24.6725 31.3143 10.8794 50.07 4.26603C59.3566 0.991846 69.1972 -0.42092 79.0299 0.108409C88.8625 0.637738 98.4946 3.09879 107.376 7.35103C144.728 25.235 160.513 70.016 142.631 107.372C124.75 144.729 79.974 160.515 42.621 142.631H42.623Z" fill="#326CE5"/>
<g clip-path="url(#clip1_6703_27789)">
<path d="M70.546 62.8326L69.9575 62.3346L54.4255 75.4777C54.3891 75.5084 54.3558 75.5428 54.3194 75.5735C54.0706 75.7918 53.8425 76.0411 53.6393 76.3176C53.5738 76.4035 53.5125 76.492 53.4522 76.5819L53.4273 76.6042C53.3503 76.7333 53.2734 76.8857 53.1975 77.0148C52.9301 77.5453 52.7885 78.1515 52.7877 78.7694C52.7857 80.0111 53.3659 81.2016 54.3995 82.082L57.5221 84.7233L70.5199 73.7242C71.3706 73.0112 72.0454 72.1641 72.5071 71.2306C72.9689 70.2961 73.208 69.2954 73.21 68.2822C73.2063 67.2438 72.9682 66.2256 72.5208 65.3324C72.0631 64.3978 71.3923 63.547 70.545 62.8326H70.546Z" fill="white"/>
<path d="M125.355 49.6666L118.677 44.0154C117.081 42.6628 114.945 41.8611 112.687 41.7702C110.431 41.6779 108.215 42.3001 106.471 43.5162C106.242 43.6687 106.037 43.8421 105.806 44.0154L101.507 47.6526L100.74 48.303L100.714 48.3239L116.655 61.8139C117.058 62.162 117.434 62.5309 117.782 62.9192C117.792 62.9291 117.799 62.9415 117.81 62.9514C118.039 64.1203 118.217 65.302 118.344 66.4924L118.319 66.5133C118.195 65.3169 118.007 64.1309 117.755 62.9623C117.405 62.5594 117.029 62.1898 116.63 61.857L100.714 48.3473L83.289 33.6007C80.8591 31.562 77.5752 30.4172 74.1543 30.4172C70.7323 30.4172 67.4484 31.5607 65.0195 33.6007L29.015 64.0457C26.9874 65.7743 25.698 68.0273 25.3496 70.4456C25.0023 72.8656 25.6168 75.3139 27.0966 77.4041L27.1142 77.4323L23.6672 80.3047C22.8218 81.0191 22.1511 81.8688 21.6936 82.8033C21.2456 83.6958 21.0062 84.713 21 85.7506C21 86.7612 21.236 87.7634 21.6936 88.6979C22.1511 89.6325 22.8218 90.4807 23.6672 91.1966L30.346 96.8477C31.7113 97.9976 33.4707 98.7537 35.3736 99.0056C37.2766 99.2579 39.2242 98.9958 40.9399 98.2557C41.7504 97.9135 42.5168 97.4397 43.2171 96.8477L45.3404 95.0499L46.1078 94.401L46.3511 94.1955L62.3562 107.74C64.7864 109.778 68.069 110.922 71.4913 110.922C74.9133 110.922 78.1972 109.778 80.6261 107.74L116.654 77.2945C118.44 75.7822 119.661 73.8601 120.166 71.7662C120.67 69.6723 120.436 67.4997 119.495 65.5151L118.919 66.0032L119.521 65.4943C119.516 65.4829 119.51 65.4731 119.505 65.4632L125.329 60.5353C127.034 59.0966 127.995 57.1427 128 55.105C128.004 53.0665 127.053 51.1102 125.354 49.6655L125.355 49.6666ZM97.1576 67.5944V67.5955V67.5944ZM97.3947 67.2058C97.4629 67.0778 97.5287 66.9484 97.5919 66.8171V66.816C97.72 66.5564 97.823 66.2749 97.925 66.0157C97.823 66.2957 97.72 66.5564 97.5919 66.816C97.5284 66.9476 97.4625 67.0774 97.3947 67.2058ZM27.2026 77.3131L27.2234 77.3881C27.2151 77.3647 27.2078 77.3402 27.1984 77.3179L27.2026 77.3142V77.3131ZM71.4682 89.8994C70.5076 90.7133 69.3657 91.3575 68.1098 91.7988C66.8234 92.2441 65.4903 92.4686 64.1501 92.4653C62.8092 92.469 61.4751 92.2445 60.1881 91.7988C58.9332 91.3575 57.7926 90.7133 56.8316 89.8994L54.1197 87.6036L46.3532 94.1757L37.679 86.8351L46.3407 94.1648L54.1187 87.5828L51.0231 84.9638C50.3153 84.3792 49.6928 83.6618 49.1806 82.8403C48.487 81.7112 48.0888 80.4695 48.0139 79.2005C47.939 77.9292 48.1885 76.6601 48.7459 75.4784C48.8707 75.2104 49.0152 74.9497 49.1806 74.6989C49.6929 73.8773 50.3153 73.1607 51.0231 72.5768L66.5425 59.4446L66.5552 59.4556L74.8708 52.4173C75.8325 51.6045 76.9734 50.959 78.2293 50.5188C79.5153 50.0736 80.8488 49.8491 82.189 49.8523C83.5482 49.8523 84.8947 50.0786 86.151 50.5188C87.4059 50.959 88.5464 51.6045 89.5074 52.4173L92.681 55.1028L89.2777 57.9825L89.2901 57.9949L89.2777 58.0048L86.0791 55.297C85.5401 54.8378 84.9385 54.4904 84.3009 54.2703C83.6161 54.0294 82.9049 53.9084 82.19 53.9113C81.8385 53.9069 81.4874 53.9361 81.14 53.9987C80.0647 54.1756 79.0759 54.6206 78.3012 55.2762L69.9813 62.3119L70.5701 62.8099C71.4164 63.5254 72.0872 64.374 72.5446 65.3085C73.002 66.2431 73.2381 67.2453 73.2381 68.2558C73.2381 69.2679 73.002 70.2686 72.5446 71.2031C72.0872 72.1377 71.4164 72.9863 70.5701 73.7018L57.5458 84.7225L60.258 87.0183C60.805 87.4727 61.4122 87.8153 62.0546 88.0329C62.7263 88.2665 63.4459 88.3857 64.1728 88.382C64.8747 88.3886 65.5732 88.272 66.2463 88.0365C66.3991 87.9711 66.579 87.906 66.7318 87.8409C66.7579 87.8409 66.7579 87.8201 66.784 87.8201C67.2518 87.6047 67.6824 87.3342 68.0629 87.0183L78.555 78.1405L78.451 78.0546C77.6053 77.3387 76.9349 76.4905 76.4772 75.5559C76.0291 74.6634 75.79 73.6463 75.7837 72.6086C75.7837 71.5966 76.0197 70.5958 76.4772 69.6613C76.9349 68.7268 77.6053 67.8785 78.451 67.1626L78.4767 67.1418C77.6314 67.8551 76.9607 68.7045 76.5022 69.639C76.0545 70.5319 75.8158 71.549 75.8097 72.5867C75.8097 73.5984 76.0458 74.5994 76.5032 75.534C76.9607 76.4681 77.6314 77.3168 78.4767 78.0323L78.5663 78.1087L78.554 78.1186L81.9572 80.9993L95.3138 69.6957C95.566 69.5004 95.8057 69.2832 96.0314 69.0463C95.8057 69.28 95.5666 69.5037 95.3138 69.718L81.9572 81.0205L71.4652 89.8979L71.4682 89.8994Z" fill="white"/>
</g>
</g>
<defs>
<clipPath id="clip0_6703_27789">
<rect width="150" height="150" fill="white"/>
</clipPath>
<clipPath id="clip1_6703_27789">
<rect width="107" height="117" fill="white" transform="translate(21 17)"/>
</clipPath>
</defs>
</svg>
