<?xml version="1.0" encoding="UTF-8"?><!DOCTYPE svg>
<svg xmlns="http://www.w3.org/2000/svg" width="20" height="2" style="transform: scale(0.8);" role="img" viewBox="-1.20 19.05 361.40 322.90"><defs><style>.cls-1{fill:#fff}</style></defs><path d="M166.81 150.623l-1.912-1.912-50.45 50.45c-.119.119-.227.249-.343.371a17.072 17.072 0 0 0-2.21 2.855 20.57 20.57 0 0 0-.606 1.014l-.083.083c-.25.498-.499 1.08-.748 1.579a17.362 17.362 0 0 0-1.33 6.732 18 18 0 0 0 5.237 12.717l10.14 10.14 42.222-42.223a29.472 29.472 0 0 0 .083-41.806z" class="cls-1"/><path d="M344.842 100.089l-21.693-21.693a29.504 29.504 0 0 0-39.646-1.912c-.748.582-1.413 1.247-2.161 1.912L267.379 92.36l-2.494 2.494-.083.083 51.78 51.78a44.606 44.606 0 0 1 3.658 4.24c.031.04.058.085.09.126.744 4.474 1.324 9.03 1.738 13.587l-.083.083c-.416-4.571-.997-9.142-1.829-13.63a35.18 35.18 0 0 0-3.657-4.24L264.802 95.02l-56.601-56.601a42.14 42.14 0 0 0-59.344 0L31.915 155.278a42.1 42.1 0 0 0-6.234 51.28c.022.037.038.072.058.108l-11.195 11.03a29.547 29.547 0 0 0 0 41.807l21.693 21.693a29.669 29.669 0 0 0 34.41 5.402 28.617 28.617 0 0 0 7.396-5.402l6.899-6.899 2.493-2.493.79-.79 51.988 51.989a42.14 42.14 0 0 0 59.344 0l117.026-116.86a41.867 41.867 0 0 0 9.225-45.214l-1.87 1.87 1.953-1.953c-.015-.04-.035-.077-.05-.116l18.917-18.917a29.522 29.522 0 0 0 .084-41.724zm-91.592 68.818a15.167 15.167 0 0 0 0 .001zm.768-1.495c.228-.498.436-.996.643-1.494l.001-.002c.416-.998.748-2.078 1.08-3.075-.332 1.08-.664 2.077-1.08 3.075-.208.498-.415.997-.644 1.496zm-227.99 38.8c.018.094.042.191.063.286-.024-.091-.048-.184-.077-.272zm143.774 48.304a33.61 33.61 0 0 1-47.542 0l-8.81-8.81-25.225 25.225-28.176-28.176 28.134 28.135 25.267-25.267-10.057-10.057a32.624 32.624 0 0 1-5.984-8.145 33.965 33.965 0 0 1-1.413-28.26 24.307 24.307 0 0 1 1.413-2.991 32.622 32.622 0 0 1 5.984-8.146l50.41-50.409.04.042 27.013-27.012a33.61 33.61 0 0 1 47.542 0l10.306 10.306-11.054 11.054.041.042-.041.041-10.39-10.39a17.557 17.557 0 0 0-12.633-5.319 15.298 15.298 0 0 0-3.408.333 17.897 17.897 0 0 0-9.225 4.904l-27.013 27.012 1.912 1.912a29.547 29.547 0 0 1 0 41.806l-42.305 42.306 8.81 8.81a17.859 17.859 0 0 0 12.716 5.236 17.069 17.069 0 0 0 6.733-1.33c.498-.25 1.08-.498 1.579-.748.083 0 .083-.083.166-.083a18.56 18.56 0 0 0 4.156-3.075l34.077-34.077-.333-.333a29.547 29.547 0 0 1 0-41.806l.082-.082a29.547 29.547 0 0 0 .001 41.805l.291.291-.041.042 11.054 11.054 43.386-43.386a22.285 22.285 0 0 0 2.327-2.493 34.24 34.24 0 0 1-2.327 2.576l-43.386 43.386z" class="cls-1"/></svg>