<svg width="32" height="32" viewBox="0 0 139 126" fill="none" xmlns="http://www.w3.org/2000/svg">
<path d="M90.3871 12C81.1501 -4 58.0561 -4 48.8171 12L3.78609 90C-5.45191 106 6.09509 126 24.5701 126H114.637C133.112 126 144.659 106 135.421 90L90.3871 12Z" fill="#326CE5"/>
<path d="M63.7429 66.1699L63.1768 65.7648L48.24 76.4538C48.2048 76.479 48.1728 76.5066 48.1385 76.5324C47.8911 76.717 47.6718 76.9197 47.4841 77.1373C47.4215 77.2077 47.3616 77.2794 47.3047 77.3522L47.2801 77.3698C47.2061 77.4753 47.1324 77.5986 47.0587 77.7043C46.7961 78.1563 46.6623 78.6412 46.6649 79.1307C46.663 80.1403 47.2206 81.1092 48.2154 81.8251L51.2176 83.9735L63.7183 75.0275C64.5358 74.4483 65.1852 73.7592 65.6291 72.9998C66.0731 72.2403 66.3028 71.4256 66.3051 70.6023C66.3073 69.7791 66.0821 68.9637 65.6424 68.203C65.2027 67.4423 64.5571 66.7514 63.7429 66.1699V66.1699Z" fill="white"/>
<path d="M116.453 55.463L110.03 50.8668C108.495 49.7666 106.441 49.1155 104.271 49.0406C102.1 48.9657 99.9687 49.4723 98.2923 50.4617C98.0708 50.585 97.8739 50.7259 97.6525 50.8668L93.5184 53.8254L92.78 54.3538L92.7554 54.3714L108.086 65.3423C108.473 65.6252 108.835 65.9252 109.169 66.2406C109.178 66.2491 109.186 66.2586 109.196 66.2673C109.416 67.2152 109.588 68.1805 109.71 69.1461L109.686 69.1636C109.562 68.1952 109.39 67.2267 109.144 66.2758C108.817 65.9562 108.455 65.6558 108.061 65.3774L92.7554 54.389L75.9975 42.3967C73.6608 40.7385 70.5033 39.8081 67.2125 39.8081C63.9217 39.8081 60.7642 40.7385 58.4275 42.3967L23.8044 67.1561C21.8538 68.563 20.6134 70.3948 20.2792 72.3622C19.945 74.3296 20.5359 76.3207 21.9587 78.021C21.9652 78.0289 21.9699 78.0363 21.9759 78.0439L18.6613 80.3809C17.8481 80.9623 17.2029 81.6527 16.7627 82.4127C16.3225 83.1726 16.096 83.9872 16.096 84.8098C16.096 85.6325 16.3225 86.447 16.7627 87.207C17.2029 87.9669 17.8481 88.6573 18.6613 89.2387L25.084 93.8349C26.3967 94.77 28.0888 95.3841 29.9185 95.5897C31.7482 95.7952 33.6219 95.5817 35.2718 94.9795C36.0828 94.6846 36.8222 94.2981 37.4615 93.8349L39.5041 92.3732L40.2422 91.845L40.4761 91.6776L55.8683 102.693C58.205 104.351 61.3625 105.281 64.6533 105.281C67.9441 105.281 71.1016 104.351 73.4383 102.693L108.086 77.9331C109.803 76.7035 110.977 75.14 111.463 73.4369C111.948 71.7338 111.724 69.9661 110.818 68.3534L110.264 68.7496L110.842 68.3358C110.838 68.3274 110.832 68.3195 110.827 68.3113L116.428 64.3032C118.068 63.1328 118.992 61.5443 118.997 59.8868C119.001 58.2293 118.086 56.6382 116.453 55.463V55.463ZM89.3352 70.0438C89.3352 70.0438 89.3352 70.0439 89.3352 70.044V70.0438ZM89.5626 69.727C89.6301 69.6215 89.6917 69.516 89.753 69.4105L89.7533 69.41C89.8765 69.1986 89.9747 68.9698 90.073 68.7585C89.9747 68.9874 89.8765 69.1986 89.7533 69.41C89.6917 69.5156 89.6304 69.6213 89.5626 69.727ZM22.0614 77.9477C22.0667 77.9677 22.0739 77.9882 22.0801 78.0083C22.073 77.9891 22.0659 77.9694 22.0573 77.9507L22.0614 77.9477ZM64.6287 88.1821C63.7046 88.8437 62.6075 89.3685 61.3999 89.7266C60.1923 90.0846 58.898 90.2689 57.5908 90.2689C56.2837 90.2689 54.9893 90.0846 53.7818 89.7266C52.5742 89.3685 51.477 88.8437 50.5529 88.1821L47.9445 86.3155L40.4761 91.66L32.134 85.6903L40.4637 91.6514L47.9445 86.2979L44.9669 84.1671C44.2547 83.6612 43.657 83.079 43.1953 82.4414C42.5282 81.5235 42.1455 80.5135 42.0733 79.4803C42.0011 78.447 42.2411 77.4147 42.7769 76.4538C42.8961 76.236 43.0359 76.0243 43.1953 75.8201C43.6569 75.1824 44.2547 74.6001 44.9669 74.0942L59.8919 63.4138L59.9037 63.4227L67.9015 57.6995C68.8256 57.038 69.9227 56.5131 71.1303 56.1551C72.3379 55.797 73.6322 55.6127 74.9394 55.6127C76.2465 55.6127 77.5409 55.797 78.7484 56.1551C79.956 56.5131 81.0532 57.038 81.9773 57.6995L85.0286 59.8831L81.7558 62.2252L81.768 62.2341L81.7558 62.2428L78.6796 60.0414C78.1937 59.6836 77.6121 59.3995 76.9695 59.2059C76.327 59.0123 75.6366 58.9132 74.9394 58.9144C74.6004 58.9108 74.262 58.9345 73.9304 58.985C72.8958 59.1292 71.9449 59.491 71.1991 60.024L63.2014 65.7472L63.7674 66.1523C64.5807 66.7337 65.2258 67.4241 65.666 68.184C66.1061 68.9439 66.3327 69.7585 66.3327 70.5811C66.3327 71.4037 66.1061 72.2183 65.666 72.9782C65.2258 73.7381 64.5807 74.4285 63.7674 75.0099L51.2422 83.9734L53.8505 85.8401C54.3445 86.1939 54.9316 86.4741 55.5778 86.6645C56.224 86.8549 56.9165 86.9517 57.6154 86.9494C58.2997 86.9531 58.9779 86.8572 59.6088 86.6676C59.7563 86.6147 59.9286 86.5621 60.0763 86.5092C60.1009 86.5092 60.1009 86.4916 60.1255 86.4916C60.5761 86.3166 60.9903 86.0973 61.3559 85.8401L71.4452 78.62L71.3466 78.5495C70.5333 77.9681 69.8882 77.2777 69.448 76.5177C69.0079 75.7578 68.7813 74.9433 68.7813 74.1207C68.7813 73.298 69.0079 72.4835 69.448 71.7236C69.8882 70.9636 70.5333 70.2732 71.3466 69.6918L71.3708 69.6745C70.5577 70.2559 69.9126 70.9463 69.4725 71.7062C69.0324 72.4661 68.8059 73.2806 68.8059 74.1032C68.8059 74.9258 69.0325 75.7403 69.4727 76.5002C69.9128 77.2601 70.5579 77.9505 71.3711 78.5319L71.4573 78.5935L71.4452 78.6024L74.7179 80.9445L87.5633 71.7521C87.8114 71.5889 88.0417 71.4123 88.2522 71.2239C88.0356 71.4141 87.8057 71.5962 87.5633 71.7697L74.7179 80.9621L64.6287 88.1821Z" fill="white"/>
</svg>
