<?xml version="1.0" encoding="UTF-8"?><!DOCTYPE svg>
<svg width="20" height="20" viewBox="0 0 21 20" fill="none" xmlns="http://www.w3.org/2000/svg">
    <path
        d="M10.9093 20.0001C5.41265 20.0001 0.942566 15.5298 0.942566 10.0333C0.942566 7.30241 2.02395 4.75592 3.9924 2.85723C4.31132 2.54828 4.81963 2.55824 5.12361 2.87718C5.43259 3.19612 5.42261 3.70441 5.10369 4.00841C3.45418 5.60309 2.54721 7.74094 2.54721 10.0333C2.54721 14.6429 6.29968 18.3954 10.9093 18.3954C15.5189 18.3954 19.2715 14.6429 19.2715 10.0333C19.2715 5.69277 15.9475 2.10975 11.7066 1.70608V4.82568C11.7066 5.26919 11.3478 5.62799 10.9043 5.62799C10.4608 5.62799 10.102 5.26919 10.102 4.82568V0.868868C10.102 0.425361 10.4608 0.0665588 10.9043 0.0665588C16.401 0.0665588 20.871 4.53664 20.871 10.0333C20.871 15.5298 16.4059 20.0001 10.9093 20.0001Z"
        fill="white" />
    <path
        d="M6.91762 5.34392L11.8761 8.90703C12.5488 9.39042 12.7083 10.3273 12.2249 11C11.7415 11.6728 10.8047 11.8323 10.1319 11.3489C9.99237 11.2492 9.87276 11.1296 9.78306 11L6.21995 6.04159C6.06048 5.81735 6.11033 5.50339 6.33456 5.34392C6.51397 5.21435 6.74818 5.22431 6.91762 5.34392Z"
        fill="white" />
</svg>