<?xml version="1.0" encoding="UTF-8"?><!DOCTYPE svg>
<svg width="32" height="32" viewBox="0 0 151 151" fill="none" xmlns="http://www.w3.org/2000/svg">
<path fill-rule="evenodd" clip-rule="evenodd" d="M42.702 143.288C5.34992 125.405 -10.4345 80.6241 7.44686 43.2676C16.0339 25.3283 31.3947 11.5354 50.1501 4.92297C68.9055 -1.68942 89.5191 -0.579499 107.456 8.00842C144.809 25.8919 160.593 70.6728 142.711 108.029C124.83 145.386 80.0543 161.172 42.702 143.288Z" fill="#326CE5"/>
<path d="M75.0721 122.688C49.1347 122.688 28.0415 101.594 28.0415 75.6571C28.0415 62.7708 33.1443 50.7545 42.4329 41.7951C43.9378 40.3372 46.3364 40.3842 47.7708 41.8892C49.2288 43.3942 49.1817 45.7927 47.6768 47.2272C39.8932 54.7521 35.6134 64.8401 35.6134 75.6571C35.6134 97.4088 53.3204 115.116 75.0721 115.116C96.8237 115.116 114.531 97.4088 114.531 75.6571C114.531 55.1753 98.846 38.2679 78.8345 36.3631V51.0837C78.8345 53.1765 77.1414 54.8696 75.0485 54.8696C72.9557 54.8696 71.2626 53.1765 71.2626 51.0837V32.4125C71.2626 30.3197 72.9557 28.6266 75.0485 28.6266C100.986 28.6266 122.079 49.7198 122.079 75.6571C122.079 101.594 101.009 122.688 75.0721 122.688Z" fill="white"/>
<path d="M56.2363 53.5291L79.634 70.3425C82.8086 72.6235 83.5611 77.0444 81.2801 80.2189C78.9991 83.3935 74.5783 84.146 71.4037 81.865C70.7453 81.3947 70.1809 80.8303 69.7576 80.2189L52.9442 56.8212C52.1917 55.7631 52.4269 54.2816 53.485 53.5291C54.3316 52.9177 55.4368 52.9647 56.2363 53.5291Z" fill="white"/>
</svg>