<?xml version="1.0" encoding="UTF-8"?><!DOCTYPE svg><svg width="32" height="32" viewBox="0 0 150 150" fill="none" xmlns="http://www.w3.org/2000/svg">
<path fill-rule="evenodd" clip-rule="evenodd" d="M42.6229 142.631C5.27082 124.748 -10.5136 79.967 7.36776 42.6105C15.9548 24.6712 31.3155 10.8783 50.071 4.26587C68.8264 -2.34652 89.44 -1.2366 107.377 7.35132C144.729 25.2348 160.514 70.0157 142.632 107.372C124.751 144.729 79.9752 160.515 42.6229 142.631Z" fill="#326CE5"/>
<path d="M56.7155 55.6338C56.8449 55.4736 56.9259 55.3855 56.9906 55.2894C58.3339 53.2632 60.2114 51.8697 62.4044 50.8606C65.4876 49.4351 68.7407 48.6182 72.1152 48.2898C77.2701 47.7933 82.2145 48.6182 86.9647 50.6284C88.4294 51.2531 89.8375 52.0139 90.9947 53.1111C91.6583 53.7358 92.2005 54.4726 92.7912 55.1613C92.9126 55.3055 93.0178 55.4576 93.1554 55.6418C93.7542 55.3215 94.3288 55.0171 94.9033 54.6968C98.9657 52.3983 101.919 49.0827 103.959 44.9422C104.865 43.1082 105.682 41.2342 106.556 39.3841C106.734 39.0157 106.945 38.6473 107.188 38.319C107.519 37.8785 107.851 37.8865 108.062 38.3911C108.32 38.9997 108.547 39.6404 108.644 40.2891C109.445 45.703 108.685 50.8606 105.642 55.4897C103.473 58.7892 100.714 61.5923 97.4605 63.8908C97.1935 64.083 97.1044 64.2432 97.1854 64.5715C97.5495 66.0451 97.6871 67.5428 97.6952 69.0564C97.7033 71.3789 97.7518 73.7015 97.7761 76.024C97.7761 76.2643 97.8408 76.3924 98.0755 76.5125C98.7148 76.8329 99.1033 77.4015 99.3946 78.0342C99.8477 79.0112 99.9772 80.0524 100.034 81.1095C100.374 87.1241 97.946 92.0494 93.908 96.3501C93.7137 96.5503 93.5681 96.8226 93.4872 97.0949C91.8606 102.397 88.9959 106.834 84.3185 109.989C81.5995 111.823 78.581 112.888 75.2793 112.992C72.6412 113.08 70.1488 112.416 67.7939 111.262C63.5535 109.196 60.5027 105.929 58.3097 101.836C57.4842 100.298 56.853 98.6887 56.3594 97.0148C56.2947 96.7826 56.149 96.5503 55.9872 96.3741C53.1548 93.4349 51.1236 90.0633 50.2011 86.0829C49.6751 83.8085 49.6508 81.502 50.0716 79.2115C50.2254 78.4026 50.541 77.6498 51.1156 77.0331C51.2531 76.8889 51.3907 76.6967 51.5687 76.6407C52.1028 76.4645 52.0947 76.0801 52.1028 75.6316C52.119 73.1088 52.1109 70.5861 52.2161 68.0633C52.2647 66.87 52.4993 65.6847 52.7017 64.4995C52.7583 64.1631 52.6936 64.0029 52.4265 63.8107C49.1734 61.5042 46.4624 58.6531 44.229 55.3775C42.4324 52.7427 41.5585 49.7474 41.1862 46.608C40.9111 44.3015 40.903 41.995 41.4209 39.7205C41.518 39.28 41.6718 38.8476 41.8579 38.4391C42.1088 37.8865 42.4486 37.8625 42.8128 38.367C43.0475 38.6874 43.2498 39.0478 43.4197 39.4082C44.318 41.3142 45.1596 43.2523 46.1064 45.1424C47.9272 48.7704 50.4682 51.8057 53.9479 54.008C54.8461 54.5607 55.7687 55.0812 56.7155 55.6338ZM66.1997 85.0018C67.8101 84.9777 68.9673 84.6013 69.995 83.8325C71.047 83.0476 71.654 81.9985 71.7996 80.6931C71.832 80.3567 71.7592 80.1645 71.3788 80.1245C71.0713 80.0924 70.7719 79.9963 70.4725 79.9323C66.4829 79.1234 62.5015 78.3225 58.512 77.5136C58.0507 77.4175 57.9212 77.5216 58.075 77.9541C58.3097 78.5868 58.5524 79.2435 58.9247 79.7961C60.1871 81.6541 61.8541 83.0957 63.8044 84.2169C64.6379 84.7054 65.5361 85.0258 66.1997 85.0018ZM83.3393 85.0018C84.1 85.0098 84.8202 84.8576 85.4919 84.5212C87.8063 83.376 89.6837 81.7182 91.108 79.5879C91.4317 79.0993 91.6259 78.5067 91.8201 77.9461C91.9577 77.5457 91.8201 77.4335 91.3912 77.5216C87.078 78.3946 82.7648 79.2755 78.4515 80.1405C78.1359 80.2045 78.0146 80.3727 78.0874 80.637C78.2654 81.2617 78.3706 81.9424 78.6943 82.479C79.7301 84.1929 81.3891 84.8896 83.3393 85.0018Z" fill="white"/>
</svg>