  <svg viewBox="0 0 162 156" fill="none" xmlns="http://www.w3.org/2000/svg">
    <path d="M94.3043 7.01848C86.4184 1.28899 75.7399 1.28899 67.854 7.01849L12.5057 47.2313C4.61975 52.9608 1.31995 63.1166 4.33212 72.3871L25.4733 137.453C28.4854 146.723 37.1245 153 46.8721 153H115.286C125.034 153 133.673 146.723 136.685 137.453L157.826 72.3871C160.838 63.1166 157.538 52.9608 149.653 47.2313L94.3043 7.01848Z" fill="#326CE5" stroke="#326CE5" strokeWidth="5"/>
    <path d="M80.2889 35.0081C79.447 35.0506 78.622 35.2593 77.8625 35.6221L44.7531 51.4422C43.8961 51.8514 43.1432 52.4469 42.5501 53.1844C41.957 53.9219 41.5391 54.7824 41.3274 55.7021L33.1591 91.2379C32.9704 92.0566 32.9493 92.9046 33.097 93.7316C33.2446 94.5586 33.558 95.3478 34.0187 96.0525C34.1304 96.2248 34.2505 96.3915 34.3786 96.5522L57.2956 125.046C57.8888 125.783 58.6419 126.379 59.4989 126.788C60.3558 127.197 61.2947 127.409 62.2458 127.409L98.9969 127.4C99.9476 127.401 100.886 127.189 101.743 126.781C102.6 126.373 103.353 125.778 103.947 125.042L126.856 96.5437C127.449 95.806 127.867 94.9452 128.079 94.0251C128.291 93.1051 128.291 92.1495 128.079 91.2294L119.898 55.6936C119.687 54.7739 119.269 53.9134 118.676 53.1759C118.083 52.4385 117.33 51.843 116.473 51.4337L83.3589 35.6221C82.4036 35.1657 81.3479 34.9546 80.2889 35.0081V35.0081Z" fill="white"/>
    <path d="M80.617 47.1016C79.5225 47.1017 78.6351 48.0875 78.6352 49.3035C78.6352 49.3222 78.6391 49.34 78.6395 49.3585C78.6379 49.5238 78.6299 49.7228 78.6352 49.8667C78.6613 50.568 78.8142 51.1048 78.9062 51.751C79.073 53.1341 79.2126 54.2805 79.1264 55.3461C79.0426 55.7479 78.7466 56.1154 78.4828 56.3709L78.4362 57.2093C77.2469 57.3078 76.0497 57.4882 74.8538 57.7598C69.7082 58.9281 65.2778 61.5787 61.9048 65.1574C61.6859 65.0081 61.303 64.7334 61.1891 64.6493C60.8353 64.6971 60.4777 64.8062 60.012 64.5349C59.1251 63.938 58.3174 63.1139 57.34 62.1213C56.8922 61.6465 56.5679 61.1943 56.0358 60.7366C55.9149 60.6327 55.7305 60.4921 55.5954 60.3851C55.1794 60.0535 54.6888 59.8805 54.2149 59.8643C53.6057 59.8434 53.0193 60.0816 52.6355 60.563C51.9532 61.4188 52.1716 62.7267 53.1225 63.4848C53.1321 63.4925 53.1424 63.4984 53.1521 63.506C53.2827 63.6119 53.4427 63.7476 53.5628 63.8363C54.1275 64.2531 54.6432 64.4665 55.2058 64.7975C56.3911 65.5294 57.3737 66.1364 58.153 66.8681C58.4574 67.1926 58.5106 67.7642 58.5511 68.0115L59.1862 68.5789C55.786 73.696 54.2123 80.0167 55.1423 86.4569L54.3123 86.6982C54.0936 86.9807 53.7845 87.4252 53.4612 87.5578C52.4415 87.879 51.2939 87.997 49.9085 88.1422C49.258 88.1963 48.6968 88.164 48.0072 88.2946C47.8554 88.3234 47.6439 88.3785 47.4779 88.4174C47.4721 88.4187 47.4667 88.4204 47.4609 88.4217C47.4519 88.4238 47.44 88.4282 47.4313 88.4301C46.2632 88.7124 45.5129 89.786 45.7544 90.8438C45.9961 91.9019 47.137 92.5453 48.3121 92.292C48.3206 92.2901 48.3329 92.2897 48.3417 92.2878C48.355 92.2847 48.3667 92.2783 48.3798 92.2751C48.5436 92.2391 48.7489 92.1991 48.8922 92.1607C49.5702 91.9792 50.0612 91.7125 50.6707 91.479C51.9819 91.0087 53.068 90.6158 54.126 90.4627C54.5679 90.4281 55.0335 90.7354 55.2651 90.865L56.1289 90.7168C58.1168 96.8799 62.2827 101.861 67.5578 104.987L67.1979 105.851C67.3276 106.186 67.4707 106.64 67.3741 106.971C66.9894 107.969 66.3306 109.022 65.5803 110.195C65.217 110.738 64.8453 111.159 64.5175 111.779C64.439 111.928 64.3391 112.156 64.2634 112.313C63.7541 113.402 64.1277 114.658 65.106 115.129C66.0906 115.603 67.3127 115.103 67.8415 114.011C67.8423 114.009 67.845 114.008 67.8458 114.006C67.8463 114.005 67.8452 114.003 67.8458 114.002C67.9211 113.847 68.0278 113.644 68.0914 113.498C68.3721 112.855 68.4656 112.304 68.663 111.682C69.1874 110.365 69.4754 108.983 70.1973 108.121C70.3949 107.886 70.7172 107.795 71.0513 107.706L71.5001 106.893C76.0989 108.658 81.2464 109.131 86.3886 107.964C87.5616 107.698 88.6941 107.353 89.7889 106.939C89.915 107.163 90.1495 107.593 90.2123 107.701C90.5518 107.812 90.9224 107.869 91.2244 108.315C91.7644 109.238 92.1337 110.329 92.5836 111.648C92.7811 112.27 92.8787 112.821 93.1595 113.464C93.2235 113.611 93.3297 113.817 93.4051 113.973C93.9329 115.068 95.1588 115.57 96.1448 115.095C97.1231 114.623 97.4971 113.368 96.9875 112.279C96.9118 112.122 96.8076 111.894 96.7292 111.745C96.4013 111.125 96.0296 110.708 95.6663 110.166C94.916 108.992 94.2937 108.017 93.909 107.02C93.7482 106.505 93.9362 106.185 94.0615 105.851C93.9864 105.765 93.8258 105.279 93.7312 105.051C99.2133 101.814 103.257 96.6464 105.156 90.6787C105.412 90.719 105.858 90.7978 106.003 90.8269C106.301 90.6303 106.575 90.3738 107.112 90.4161C108.17 90.5692 109.256 90.9622 110.567 91.4324C111.177 91.6659 111.668 91.9369 112.346 92.1184C112.489 92.1568 112.695 92.1926 112.858 92.2285C112.872 92.2317 112.883 92.2382 112.896 92.2412C112.905 92.2432 112.918 92.2435 112.926 92.2454C114.101 92.4984 115.242 91.8554 115.484 90.7972C115.725 89.7394 114.975 88.6655 113.807 88.3836C113.637 88.3449 113.396 88.2793 113.231 88.2481C112.541 88.1175 111.98 88.1497 111.33 88.0956C109.944 87.9505 108.797 87.8324 107.777 87.5113C107.361 87.35 107.065 86.8553 106.922 86.6517L106.121 86.4188C106.536 83.4168 106.424 80.2925 105.706 77.1664C104.982 74.0113 103.701 71.1256 101.993 68.5831C102.198 68.3965 102.586 68.0532 102.696 67.9522C102.728 67.5966 102.7 67.2238 103.068 66.83C103.848 66.0982 104.83 65.4914 106.015 64.7594C106.578 64.4284 107.098 64.2151 107.663 63.7981C107.79 63.7039 107.965 63.5546 108.099 63.4467C109.049 62.6884 109.268 61.3805 108.586 60.5249C107.903 59.6693 106.581 59.5887 105.63 60.347C105.495 60.4542 105.311 60.594 105.19 60.6985C104.658 61.1562 104.329 61.6083 103.881 62.0832C102.904 63.0759 102.096 63.904 101.209 64.5011C100.825 64.7248 100.262 64.6474 100.007 64.6323L99.2529 65.1701C94.9549 60.6632 89.1031 57.7817 82.802 57.222C82.7844 56.9579 82.7613 56.4806 82.7554 56.337C82.4974 56.0901 82.1858 55.8794 82.1075 55.3461C82.0213 54.2805 82.1652 53.1341 82.3319 51.751C82.424 51.1048 82.5769 50.568 82.603 49.8667C82.6089 49.7072 82.5994 49.4759 82.5987 49.3035C82.5986 48.0875 81.7114 47.1015 80.617 47.1016H80.617ZM78.1356 62.4727L77.547 72.8684L77.5046 72.8896C77.4652 73.8196 76.6997 74.5622 75.76 74.5622C75.3751 74.5622 75.0198 74.4386 74.731 74.2277L74.7141 74.2362L66.1901 68.1935C68.8099 65.6175 72.1608 63.7137 76.0226 62.8369C76.728 62.6767 77.4331 62.5579 78.1356 62.4727ZM83.1026 62.4727C87.6113 63.0273 91.781 65.0688 94.9761 68.1978L86.5072 74.2023L86.4775 74.1896C85.7258 74.7386 84.6667 74.6024 84.0808 73.8678C83.8408 73.5668 83.7148 73.2129 83.6997 72.8557L83.6912 72.8515L83.1026 62.4727ZM63.0989 72.0766L70.8819 79.0381L70.8734 79.0804C71.5759 79.6911 71.6795 80.7509 71.0936 81.4856C70.8536 81.7866 70.5324 81.9884 70.1874 82.0827L70.179 82.1165L60.2025 84.996C59.6947 80.3529 60.7891 75.8395 63.0989 72.0766ZM98.08 72.0808C99.2364 73.9551 100.112 76.0486 100.633 78.3182C101.148 80.5605 101.278 82.7989 101.065 84.9621L91.0381 82.0742L91.0296 82.0318C90.1317 81.7864 89.5798 80.8731 89.7889 79.9569C89.8745 79.5816 90.0737 79.2642 90.3436 79.0296L90.3394 79.0084L98.08 72.0808H98.08ZM79.0206 79.5758H82.2091L84.1909 82.053L83.4795 85.1442L80.617 86.5204L77.746 85.1399L77.0346 82.0488L79.0206 79.5758ZM89.2426 88.0533C89.3781 88.0464 89.513 88.0586 89.6449 88.0829L89.6618 88.0617L99.9813 89.8063C98.471 94.0494 95.5811 97.7252 91.7198 100.185L87.714 90.5093L87.7267 90.4923C87.3587 89.6373 87.7269 88.6346 88.5736 88.2269C88.7903 88.1225 89.0168 88.0647 89.2426 88.0533H89.2426ZM71.9109 88.0956C72.6984 88.1067 73.4048 88.6532 73.5877 89.4549C73.6734 89.8302 73.6317 90.202 73.4903 90.5304L73.52 90.5686L69.5565 100.147C65.8509 97.7691 62.8993 94.2087 61.3204 89.8402L71.5509 88.1041L71.5679 88.1253C71.6823 88.1042 71.7984 88.094 71.9109 88.0956V88.0956ZM80.5535 92.292C80.8278 92.2819 81.1061 92.3382 81.3707 92.4656C81.7175 92.6326 81.9855 92.8956 82.1541 93.2109H82.1922L87.2355 102.323C86.581 102.543 85.9081 102.73 85.2199 102.887C81.3628 103.762 77.518 103.497 74.0366 102.311L79.0672 93.2151H79.0756C79.3775 92.6508 79.95 92.3142 80.5535 92.292Z" fill="#326CE5" stroke="#326CE5" strokeWidth="0.25"/>
  </svg>
