<svg width="32" height="32" viewBox="0 0 150 150" fill="none" xmlns="http://www.w3.org/2000/svg">
<g clip-path="url(#clip0_6699_27862)">
<path fill-rule="evenodd" clip-rule="evenodd" d="M42.623 142.631C5.27002 124.748 -10.514 79.967 7.36802 42.611C15.954 24.6725 31.3144 10.8794 50.07 4.26603C59.3566 0.991847 69.1972 -0.42092 79.0299 0.108409C88.8625 0.637738 98.4946 3.09879 107.376 7.35103C144.728 25.235 160.513 70.016 142.631 107.372C124.75 144.729 79.974 160.515 42.621 142.631H42.623Z" fill="#326CE5"/>
<path d="M69.7566 69.4332C69.757 70.7977 69.2792 72.1316 68.3837 73.2663C67.4882 74.401 66.2152 75.2855 64.7255 75.8081C63.2359 76.3306 61.5967 76.4676 60.015 76.2018C58.4333 75.9361 56.9804 75.2794 55.8397 74.3149C54.6991 73.3504 53.9221 72.1214 53.607 70.7832C53.2918 69.4451 53.4527 68.0579 54.0693 66.7971C54.6858 65.5363 55.7303 64.4586 57.0708 63.7001C58.4112 62.9416 59.9873 62.5364 61.5999 62.5359C63.7622 62.5361 65.8359 63.2627 67.3654 64.556C68.8948 65.8494 69.7549 67.6036 69.7566 69.4332ZM80.2994 69.4332C80.2984 70.7985 80.7758 72.1333 81.6715 73.2689C82.5671 74.4045 83.8406 75.2898 85.331 75.8129C86.8213 76.336 88.4616 76.4733 90.0442 76.2075C91.6268 75.9417 93.0807 75.2847 94.2219 74.3197C95.3632 73.3546 96.1406 72.1248 96.4557 70.7859C96.7709 69.4469 96.6097 68.059 95.9925 66.7976C95.3753 65.5361 94.3298 64.458 92.9883 63.6994C91.6468 62.9408 90.0696 62.5359 88.4561 62.5359C87.3853 62.5354 86.3247 62.7134 85.3352 63.0597C84.3456 63.4061 83.4464 63.9141 82.6889 64.5546C81.9315 65.1951 81.3306 65.9556 80.9205 66.7927C80.5105 67.6298 80.2995 68.5271 80.2994 69.4332V69.4332Z" fill="white"/>
<path d="M135.921 76.5636C135.321 76.6032 134.72 76.6224 134.119 76.6211C130.53 76.6183 126.989 75.9209 123.767 74.5823C124.815 69.4666 125.282 64.2777 125.161 59.0867C121.675 54.8099 117.706 50.83 113.309 47.2031C115.256 44.1012 118.137 41.49 121.661 39.6338L123.194 38.8297L121.998 37.6869C115.978 31.9125 108.539 27.3217 100.202 24.2362L98.5442 23.6263L98.1227 25.106C97.1365 28.5209 95.0972 31.6533 92.2129 34.1834C86.7635 31.7338 81.0444 29.7404 75.137 28.2315C69.2379 29.7369 63.527 31.7272 58.086 34.1739C55.2117 31.6485 53.1805 28.5231 52.1997 25.1166L51.7713 23.6322L50.1184 24.2396C41.792 27.3379 34.3571 31.925 28.3248 37.6856L27.1298 38.8284L28.6602 39.6315C32.1716 41.4777 35.0456 44.0748 36.9922 47.1608C32.609 50.7774 28.6471 54.7424 25.1612 59.0009C25.0202 64.225 25.4749 69.4485 26.519 74.5987C23.3152 75.9252 19.7963 76.6165 16.2295 76.6201C15.6269 76.6217 15.0244 76.6025 14.4237 76.5623L12.6263 76.4435L12.7932 77.962C13.6706 85.6315 16.5329 93.0436 21.1767 99.6717L22.0893 100.987L23.4583 100C26.6346 97.7257 30.4687 96.207 34.5674 95.5999C37.2362 100.213 40.4199 104.601 44.0751 108.702C49.9234 110.439 55.9563 111.694 62.0898 112.45C62.7021 115.968 62.1841 119.56 60.5901 122.851L59.9056 124.261L61.664 124.591C66.0961 125.423 70.6219 125.847 75.162 125.854L88.6569 124.591L90.4168 124.261L89.7351 122.851C88.1386 119.557 87.6219 115.96 88.2394 112.438C94.3481 111.683 100.357 110.431 106.182 108.702C109.843 104.598 113.029 100.207 115.697 95.588C119.815 96.1904 123.669 97.7109 126.861 99.993L128.232 100.975L129.146 99.6704C133.79 93.0436 136.65 85.6313 137.52 77.962L137.686 76.4445L135.921 76.5636ZM94.4512 95.1192C81.8056 98.0622 68.4556 98.0622 55.81 95.1192C48.7418 85.8686 44.6856 75.2028 44.0514 64.2003C48.1129 59.935 52.822 56.1419 58.0567 52.9194C63.3213 49.6798 69.0638 47.0366 75.1383 45.0569C81.1981 47.0343 86.9284 49.6702 92.1849 52.8982C97.4429 56.1454 102.172 59.9644 106.252 64.2568C105.911 69.7316 104.727 75.1453 102.731 80.3609C100.735 85.5621 97.9523 90.5228 94.4512 95.1192V95.1192Z" fill="white"/>
</g>
<defs>
<clipPath id="clip0_6699_27862">
<rect width="150" height="150" fill="white"/>
</clipPath>
</defs>
</svg>
