<svg width="32" height="32" viewBox="0 0 150 150" fill="none" xmlns="http://www.w3.org/2000/svg">
<g clip-path="url(#clip0_6876_29578)">
<path fill-rule="evenodd" clip-rule="evenodd" d="M42.623 142.631C5.26999 124.748 -10.514 79.967 7.36799 42.611C15.954 24.6725 31.3143 10.8794 50.07 4.26603C59.3566 0.991847 69.1972 -0.42092 79.0299 0.108409C88.8625 0.637737 98.4946 3.09879 107.376 7.35103C144.728 25.235 160.513 70.016 142.631 107.372C124.75 144.729 79.974 160.515 42.621 142.631H42.623Z" fill="#326CE5"/>
<path d="M70.5633 69.9392C70.5636 71.1797 70.1594 72.3923 69.4016 73.4239C68.6439 74.4554 67.5667 75.2595 66.3062 75.7345C65.0458 76.2096 63.6587 76.3341 62.3204 76.0925C60.9821 75.8509 59.7526 75.254 58.7875 74.3771C57.8224 73.5003 57.1649 72.383 56.8982 71.1665C56.6316 69.95 56.7677 68.689 57.2894 67.5428C57.8111 66.3966 58.6949 65.4168 59.8291 64.7273C60.9633 64.0378 62.297 63.6695 63.6614 63.6689C65.4911 63.6692 67.2458 64.3297 68.5399 65.5055C69.8341 66.6812 70.5619 68.2759 70.5633 69.9392ZM79.4841 69.9392C79.4832 71.1804 79.8873 72.3939 80.6451 73.4262C81.4029 74.4586 82.4805 75.2634 83.7416 75.739C85.0027 76.2145 86.3906 76.3393 87.7297 76.0977C89.0688 75.8561 90.299 75.2588 91.2647 74.3815C92.2304 73.5042 92.8882 72.3862 93.1549 71.1689C93.4215 69.9517 93.2851 68.6899 92.7629 67.5432C92.2406 66.3965 91.356 65.4163 90.2209 64.7267C89.0858 64.037 87.7512 63.6689 86.386 63.6689C85.4798 63.6685 84.5825 63.8303 83.7452 64.1452C82.9078 64.4601 82.147 64.9218 81.506 65.5041C80.8651 66.0864 80.3566 66.7778 80.0097 67.5388C79.6628 68.2998 79.4842 69.1155 79.4841 69.9392V69.9392Z" fill="white"/>
<path d="M126.548 76.4215C126.041 76.4576 125.533 76.475 125.024 76.4738C121.987 76.4712 118.991 75.8372 116.265 74.6204C117.151 69.9697 117.546 65.2526 117.444 60.5335C114.494 56.6455 111.136 53.0274 107.416 49.7301C109.063 46.9103 111.501 44.5364 114.482 42.849L115.78 42.118L114.767 41.079C109.674 35.8296 103.38 31.6562 96.3252 28.8511L94.922 28.2968L94.5654 29.6419C93.7308 32.7464 92.0053 35.594 89.5648 37.8941C84.9537 35.6672 80.1144 33.855 75.1159 32.4832C70.1243 33.8518 65.2921 35.6612 60.6882 37.8855C58.256 35.5896 56.5373 32.7484 55.7074 29.6515L55.3449 28.302L53.9463 28.8543C46.9009 31.6709 40.6098 35.841 35.5056 41.0779L34.4945 42.1168L35.7894 42.8469C38.7606 44.5252 41.1924 46.8862 42.8396 49.6917C39.1307 52.9795 35.7783 56.5841 32.8287 60.4555C32.7094 65.2046 33.0942 69.9532 33.9776 74.6353C31.2667 75.8412 28.2891 76.4696 25.2711 76.4729C24.7612 76.4744 24.2514 76.4569 23.7431 76.4203L22.2222 76.3123L22.3635 77.6928C23.1059 84.6651 25.5278 91.4033 29.4572 97.4289L30.2294 98.6243L31.3878 97.7275C34.0754 95.6598 37.3197 94.2792 40.7878 93.7272C43.046 97.9214 45.7399 101.91 48.8327 105.638C53.7813 107.217 58.8861 108.359 64.076 109.046C64.5941 112.244 64.1557 115.51 62.807 118.501L62.2278 119.783L63.7157 120.082C67.4659 120.839 71.2954 121.224 75.137 121.231L86.5558 120.082L88.045 119.783L87.4681 118.501C86.1173 115.506 85.68 112.236 86.2026 109.035C91.3714 108.348 96.4556 107.21 101.385 105.638C104.482 101.908 107.178 97.9155 109.436 93.7165C112.92 94.2641 116.181 95.6464 118.883 97.721L120.042 98.6135L120.816 97.4277C124.746 91.4034 127.165 84.6649 127.901 77.6928L128.042 76.3133L126.548 76.4215ZM91.4587 93.2903C80.7586 95.9657 69.4624 95.9657 58.7623 93.2903C52.7815 84.8806 49.3493 75.1845 48.8127 65.1822C52.2494 61.3046 56.234 57.8563 60.6634 54.9268C65.118 51.9817 69.977 49.5788 75.117 47.779C80.2446 49.5768 85.0933 51.973 89.5411 54.9076C93.9901 57.8595 97.9921 61.3314 101.444 65.2336C101.155 70.2106 100.154 75.1322 98.4643 79.8736C96.776 84.602 94.4212 89.1118 91.4587 93.2903V93.2903Z" fill="white"/>
</g>
<defs>
<clipPath id="clip0_6876_29578">
<rect width="150" height="150" fill="white"/>
</clipPath>
</defs>
</svg>
