<svg width="32" height="32" viewBox="0 0 32 32" fill="none" xmlns="http://www.w3.org/2000/svg">
    <path
        d="M13.3938 18.0468C13.4319 18.0391 13.4709 18.036 13.5098 18.0378C13.5768 18.0415 13.6426 18.059 13.703 18.0894C13.8203 18.1478 13.9111 18.2503 13.9566 18.376C14.0021 18.5017 13.9989 18.6406 13.9475 18.7637L13.951 18.7689L12.7946 21.648C11.6881 20.9205 10.8484 19.8337 10.4083 18.5594L13.3887 18.0405L13.3938 18.0468ZM18.031 18.455C18.0561 18.3415 18.1174 18.2398 18.205 18.1665C18.2928 18.0933 18.4019 18.0522 18.5148 18.0504C18.5481 18.0501 18.5815 18.053 18.6143 18.0595L18.6193 18.0533L21.5736 18.5702C21.13 19.8342 20.2938 20.9123 19.1949 21.6368L18.05 18.7862L18.0591 18.775C18.0167 18.6742 18.0069 18.5619 18.031 18.455ZM15.5567 19.5729C15.5999 19.49 15.664 19.4208 15.7424 19.3725C15.8207 19.3243 15.9104 19.2988 16.0016 19.2989C16.0928 19.299 16.1825 19.3245 16.2606 19.373C16.339 19.4215 16.403 19.491 16.4459 19.574H16.4483L17.9012 22.2812C16.861 22.6461 15.7427 22.7053 14.6715 22.4522C14.4729 22.4057 14.2789 22.3499 14.0895 22.2847L15.5457 19.5727L15.5567 19.5729ZM10.9576 13.2843L13.1929 15.3459L13.1916 15.3526C13.2603 15.4145 13.3114 15.4943 13.3395 15.5836C13.3677 15.6731 13.3719 15.7687 13.3516 15.8604C13.3313 15.9521 13.2873 16.0362 13.2242 16.1043C13.1612 16.1721 13.0816 16.2213 12.9937 16.2463L12.9909 16.2587L10.0955 17.1181C9.97033 15.7776 10.273 14.4317 10.9576 13.2847V13.2843ZM15.1103 13.5153C15.1061 13.6092 15.0773 13.7003 15.027 13.7785C14.9767 13.857 14.9067 13.9198 14.8244 13.9606C14.7422 14.0014 14.6509 14.0182 14.56 14.0096C14.4691 14.0013 14.3823 13.9675 14.3085 13.9122L14.2998 13.9161L11.8537 12.1288C12.7848 11.1893 13.9896 10.5907 15.283 10.4254L15.1132 13.5145L15.1103 13.5153ZM17.7006 13.9237C17.6268 13.979 17.5398 14.0125 17.4489 14.021C17.3581 14.0294 17.2668 14.0122 17.1846 13.9713C17.1025 13.9305 17.0326 13.8674 16.9825 13.7889C16.9323 13.7104 16.9039 13.6192 16.8999 13.5254L16.8875 13.5193L16.7175 10.4254C16.9226 10.4509 17.1264 10.4869 17.3278 10.5337C18.4001 10.782 19.3836 11.3343 20.1673 12.128L17.7053 13.9264L17.7006 13.9237ZM19.0131 16.2613C18.925 16.2365 18.8449 16.1876 18.7818 16.1196C18.7185 16.0517 18.6743 15.9673 18.6541 15.8756C18.6336 15.784 18.6378 15.6881 18.6662 15.5986C18.6944 15.5092 18.7459 15.4294 18.8147 15.3675L18.8124 15.3553L21.0601 13.2837C21.7457 14.4337 22.0401 15.7864 21.8964 17.1282L19.0153 16.2715L19.0131 16.2613ZM16.8299 17.1714L16.0008 17.5822L15.1742 17.1723L14.9688 16.2525L15.5411 15.5153H16.4618L17.0356 16.2514L16.8299 17.1714Z"
        fill="white" />
    <path
        d="M2.29373 18.9834L4.65638 8.40827C4.71991 8.13467 4.8416 7.87903 5.01264 7.65977C5.18366 7.4405 5.39979 7.26312 5.64542 7.14035L15.209 2.43514C15.4569 2.31326 15.7281 2.25 16.0027 2.25C16.2772 2.25 16.5485 2.31326 16.7963 2.43514L26.358 7.14287C26.6037 7.26553 26.82 7.44291 26.9911 7.66214C27.1621 7.8814 27.2839 8.13704 27.3473 8.41065L29.7062 18.9856C29.7644 19.2527 29.7646 19.5302 29.7067 19.7975C29.6897 19.8789 29.6675 19.9591 29.6403 20.0376C29.594 20.1714 29.533 20.2992 29.458 20.4186C29.4257 20.4695 29.3915 20.5191 29.3543 20.5673L22.7359 29.0465C22.7068 29.0835 22.6751 29.1172 22.6434 29.1514C22.5397 29.2654 22.4224 29.3655 22.2944 29.4496C22.1326 29.5544 21.9562 29.6335 21.7715 29.6839C21.6197 29.7267 21.4634 29.749 21.3062 29.75H21.2033L10.6927 29.7475C10.6288 29.7472 10.5649 29.7432 10.5015 29.7359C10.4104 29.7252 10.3203 29.7076 10.2317 29.6831C10.1683 29.6659 10.1058 29.6452 10.0445 29.6212C9.99656 29.6025 9.94884 29.5836 9.90271 29.5607C9.83363 29.5268 9.7667 29.4883 9.70214 29.446C9.53559 29.338 9.38737 29.2028 9.26322 29.0455L9.06137 28.787L2.647 20.5644C2.52406 20.4055 2.42747 20.2269 2.36113 20.0355C2.33343 19.9568 2.31077 19.8763 2.29333 19.7945C2.23537 19.5272 2.23556 19.25 2.29387 18.9828L2.29373 18.9834ZM12.2134 23.0964C12.1866 23.1777 12.1547 23.2572 12.1182 23.3344C12.1767 23.4399 12.1926 23.5649 12.1624 23.6823C12.0233 24.0108 11.8534 24.3243 11.655 24.6187C11.5439 24.7692 11.4415 24.9261 11.3481 25.0887C11.3251 25.1328 11.295 25.201 11.2732 25.2476C11.2319 25.3184 11.2055 25.3975 11.1958 25.4796C11.1861 25.5617 11.193 25.6449 11.2163 25.724C11.2397 25.8032 11.2787 25.8763 11.3313 25.939C11.3837 26.0016 11.4482 26.0521 11.5208 26.0874C11.5932 26.1228 11.6722 26.1421 11.7524 26.1442C11.8326 26.1462 11.9124 26.1308 11.9865 26.0992C12.0605 26.0675 12.1276 26.0204 12.1829 25.9604C12.2382 25.9005 12.2808 25.8294 12.3079 25.7516C12.3297 25.7054 12.36 25.644 12.3786 25.6005C12.4439 25.4236 12.4996 25.2432 12.5447 25.0599C12.6439 24.717 12.7756 24.3848 12.9376 24.068C13.0079 23.9702 13.1128 23.9046 13.2296 23.8855C13.2479 23.8528 13.3158 23.725 13.3522 23.6587C15.0545 24.3231 16.9348 24.3181 18.634 23.6446L18.7634 23.8865C18.8559 23.9013 18.9419 23.9444 19.0101 24.0102C19.2053 24.3404 19.3544 24.6971 19.4533 25.07C19.4982 25.2532 19.5533 25.4337 19.6184 25.6105C19.6367 25.6538 19.6675 25.7144 19.6893 25.7604V25.7617L19.6902 25.7629C19.7172 25.8407 19.7598 25.9119 19.8152 25.972C19.8705 26.0318 19.9375 26.0792 20.0117 26.1109C20.0859 26.1425 20.1657 26.1577 20.2461 26.1556C20.3263 26.1534 20.4053 26.1342 20.4779 26.0986C20.5505 26.0632 20.6149 26.0123 20.6673 25.9496C20.7196 25.8868 20.7588 25.8135 20.7818 25.7342C20.805 25.6548 20.8118 25.5715 20.8017 25.4894C20.7917 25.4072 20.765 25.3284 20.7235 25.2574C20.7019 25.2107 20.6731 25.1429 20.6502 25.0988C20.5569 24.9358 20.4545 24.7785 20.3435 24.6275C20.1415 24.3254 19.9681 24.0041 19.8254 23.6681C19.8103 23.554 19.828 23.4381 19.8765 23.3344L19.7723 23.0772C21.3388 22.1247 22.5128 20.6141 23.0728 18.8309L23.3223 18.8746C23.4189 18.8039 23.5331 18.7624 23.6516 18.7551C23.9927 18.8224 24.3268 18.9237 24.6491 19.0576C24.8164 19.1351 24.9879 19.2029 25.1626 19.2603C25.204 19.2721 25.2637 19.2838 25.3108 19.2944C25.3147 19.2958 25.3179 19.2975 25.3218 19.2985C25.3246 19.2989 25.3276 19.2992 25.3305 19.2993C25.4065 19.3251 25.4869 19.3342 25.5665 19.3261C25.6461 19.318 25.7232 19.2929 25.7927 19.2523C25.8623 19.2117 25.9229 19.1566 25.9708 19.0905C26.0186 19.0246 26.0524 18.9488 26.07 18.8685C26.0879 18.7881 26.0892 18.7048 26.0739 18.624C26.0586 18.5431 26.0272 18.4663 25.9815 18.3988C25.9357 18.331 25.8769 18.2739 25.8086 18.2312C25.7402 18.1885 25.664 18.1608 25.5848 18.15L25.5764 18.148L25.5713 18.1465C25.5236 18.135 25.4622 18.1186 25.4186 18.1099C25.2365 18.0839 25.0531 18.0686 24.8693 18.0644C24.5227 18.041 24.1792 17.9828 23.8435 17.8908C23.7441 17.8255 23.66 17.7382 23.5976 17.635L23.3579 17.563C23.6179 15.7016 23.202 13.8071 22.1899 12.2424L22.3734 12.074C22.3801 11.9515 22.4199 11.8336 22.4884 11.7334C22.752 11.5001 23.0371 11.2936 23.3396 11.1172C23.5029 11.0313 23.6614 10.9359 23.8141 10.8313C23.8488 10.8046 23.8949 10.7645 23.9327 10.7329L23.9412 10.7268C24.0714 10.6304 24.1593 10.4849 24.1856 10.3219C24.212 10.159 24.1748 9.99202 24.0819 9.85725C24.0272 9.78817 23.9573 9.73333 23.8781 9.69715C23.7988 9.66097 23.7123 9.64469 23.6258 9.64932C23.4803 9.65577 23.3403 9.71015 23.2269 9.80445C23.1879 9.83588 23.1347 9.87794 23.1001 9.90858C22.9669 10.0384 22.8409 10.1761 22.7231 10.3209C22.4893 10.5856 22.2307 10.8263 21.9514 11.0394C21.8468 11.0962 21.7248 11.1082 21.6115 11.0734C21.5433 11.1246 21.4746 11.175 21.405 11.2245C20.3993 10.1229 19.0969 9.35626 17.6652 9.02302C17.3244 8.94349 16.9787 8.88872 16.6306 8.85907L16.617 8.60976C16.5281 8.52837 16.4636 8.42248 16.4312 8.30456C16.4187 7.94677 16.4401 7.5885 16.4949 7.23498C16.5312 7.04969 16.5574 6.86241 16.573 6.67403C16.5745 6.63115 16.5722 6.57187 16.5717 6.52297C16.5717 6.51738 16.573 6.5119 16.573 6.50647C16.5812 6.42403 16.5723 6.34074 16.5474 6.26197C16.5224 6.18322 16.4816 6.11076 16.4276 6.04927C16.3737 5.98775 16.3079 5.93858 16.2344 5.90492C16.1608 5.87124 16.0814 5.85384 16.0009 5.85381C15.9205 5.85376 15.8409 5.87108 15.7674 5.90469C15.694 5.93826 15.6282 5.9874 15.5741 6.04885C15.5202 6.1103 15.4794 6.18273 15.4541 6.26143C15.429 6.34019 15.4202 6.42345 15.4284 6.50593C15.4284 6.55762 15.4253 6.62625 15.427 6.6736C15.4428 6.86193 15.469 7.04918 15.5056 7.2344C15.5608 7.58804 15.5825 7.94634 15.5705 8.30429C15.5478 8.42395 15.4806 8.52977 15.3835 8.59916C15.3814 8.64178 15.3747 8.78404 15.3696 8.86244C13.5602 9.03199 11.8721 9.87251 10.6187 11.2279L10.401 11.0676C10.284 11.0883 10.1638 11.0748 10.0538 11.0287C9.77461 10.8153 9.51615 10.5743 9.28222 10.3094C9.16403 10.1644 9.03782 10.027 8.90422 9.89705C8.86908 9.86607 8.81607 9.82446 8.77726 9.79292C8.71983 9.73446 8.65118 9.68924 8.57565 9.66007C8.50013 9.63078 8.41951 9.61823 8.33901 9.62321C8.25847 9.62818 8.17988 9.65057 8.10832 9.6889C8.03672 9.72711 7.97375 9.78048 7.92349 9.84549C7.87322 9.9105 7.83679 9.98569 7.81653 10.0662C7.79627 10.1466 7.79268 10.2305 7.80596 10.3126C7.81921 10.3944 7.84909 10.4727 7.89355 10.542C7.93804 10.6113 7.99621 10.6702 8.06422 10.7148C8.10262 10.7469 8.15331 10.7915 8.1902 10.8198C8.34325 10.9243 8.50203 11.0199 8.66579 11.1056C8.9683 11.2822 9.25339 11.4885 9.51705 11.7219C9.59382 11.8145 9.63238 11.9343 9.62446 12.0559C9.65635 12.0861 9.76817 12.1882 9.82741 12.2436C8.81247 13.8026 8.38819 15.6914 8.63513 17.5515L8.40409 17.6208C8.34632 17.7279 8.26088 17.8165 8.15726 17.8767C7.82144 17.9689 7.4777 18.0272 7.13094 18.0507C6.94733 18.055 6.76414 18.0702 6.58221 18.096C6.53409 18.1051 6.46453 18.1249 6.41542 18.1364C6.33614 18.1473 6.25988 18.1749 6.19158 18.2177C6.12327 18.2606 6.06439 18.3178 6.01871 18.3854C5.97305 18.453 5.94158 18.5297 5.92635 18.6107C5.91112 18.6916 5.91245 18.7748 5.93025 18.8552C5.94806 18.9356 5.98195 19.0111 6.02976 19.0772C6.07756 19.1434 6.13823 19.1983 6.20789 19.2389C6.27752 19.2793 6.3546 19.3045 6.4342 19.3125C6.51381 19.3207 6.59416 19.3114 6.67014 19.2856L6.67837 19.2845C6.68218 19.2835 6.68569 19.2814 6.68963 19.2804C6.73681 19.2698 6.79609 19.2592 6.83746 19.248C7.01223 19.1902 7.18361 19.1219 7.35077 19.0438C7.67328 18.9097 8.00771 18.8083 8.34926 18.7412C8.46747 18.7373 8.58247 18.7812 8.66959 18.8637C8.75099 18.8477 8.83252 18.833 8.91423 18.8195C9.46764 20.6139 10.6418 22.1361 12.2134 23.0964Z"
        fill="white" />
</svg>