<?xml version="1.0" encoding="UTF-8"?><!DOCTYPE svg>
    <svg width="20" height="20" viewBox="0 0 28 28" fill="none" xmlns="http://www.w3.org/2000/svg">
    <path
        d="M0.293732 16.9834L2.65638 6.40827C2.71991 6.13467 2.8416 5.87903 3.01264 5.65977C3.18366 5.4405 3.39979 5.26312 3.64542 5.14035L13.209 0.43514C13.4569 0.31326 13.7281 0.25 14.0027 0.25C14.2772 0.25 14.5485 0.31326 14.7963 0.43514L24.358 5.14287C24.6037 5.26553 24.82 5.44291 24.9911 5.66214C25.1621 5.8814 25.2839 6.13704 25.3473 6.41065L27.7062 16.9856C27.7644 17.2527 27.7646 17.5302 27.7067 17.7975C27.6897 17.8789 27.6675 17.9591 27.6403 18.0376C27.594 18.1714 27.533 18.2992 27.458 18.4186C27.4257 18.4695 27.3915 18.5191 27.3543 18.5673L20.7359 27.0465C20.7068 27.0835 20.6751 27.1172 20.6434 27.1514C20.5397 27.2654 20.4224 27.3655 20.2944 27.4496C20.1326 27.5544 19.9562 27.6335 19.7715 27.6839C19.6197 27.7267 19.4634 27.749 19.3062 27.75H19.2033L8.6927 27.7475C8.6288 27.7472 8.5649 27.7432 8.5015 27.7359C8.4104 27.7252 8.3203 27.7076 8.2317 27.6831C8.1683 27.6659 8.1058 27.6452 8.0445 27.6212C7.99656 27.6025 7.94884 27.5836 7.90271 27.5607C7.83363 27.5268 7.7667 27.4883 7.70214 27.446C7.53559 27.338 7.38737 27.2028 7.26322 27.0455L7.06137 26.787L0.647002 18.5644C0.524062 18.4055 0.427472 18.2269 0.361132 18.0355C0.333432 17.9568 0.310772 17.8763 0.293332 17.7945C0.235372 17.5272 0.235562 17.25 0.293872 16.9828L0.293732 16.9834ZM10.2134 21.0964C10.1866 21.1777 10.1547 21.2572 10.1182 21.3344C10.1767 21.4399 10.1926 21.5649 10.1624 21.6823C10.0233 22.0108 9.8534 22.3243 9.655 22.6187C9.5439 22.7692 9.4415 22.9261 9.3481 23.0887C9.3251 23.1328 9.295 23.201 9.2732 23.2476C9.2319 23.3184 9.2055 23.3975 9.1958 23.4796C9.1861 23.5617 9.193 23.6449 9.2163 23.724C9.2397 23.8032 9.2787 23.8763 9.3313 23.939C9.3837 24.0016 9.4482 24.0521 9.5208 24.0874C9.5932 24.1228 9.6722 24.1421 9.7524 24.1442C9.8326 24.1462 9.9124 24.1308 9.9865 24.0992C10.0605 24.0675 10.1276 24.0204 10.1829 23.9604C10.2382 23.9005 10.2808 23.8294 10.3079 23.7516C10.3297 23.7054 10.36 23.644 10.3786 23.6005C10.4439 23.4236 10.4996 23.2432 10.5447 23.0599C10.6439 22.717 10.7756 22.3848 10.9376 22.068C11.0079 21.9702 11.1128 21.9046 11.2296 21.8855C11.2479 21.8528 11.3158 21.725 11.3522 21.6587C13.0545 22.3231 14.9348 22.3181 16.634 21.6446L16.7634 21.8865C16.8559 21.9013 16.9419 21.9444 17.0101 22.0102C17.2053 22.3404 17.3544 22.6971 17.4533 23.07C17.4982 23.2532 17.5533 23.4337 17.6184 23.6105C17.6367 23.6538 17.6675 23.7144 17.6893 23.7604V23.7617L17.6902 23.7629C17.7172 23.8407 17.7598 23.9119 17.8152 23.972C17.8705 24.0318 17.9375 24.0792 18.0117 24.1109C18.0859 24.1425 18.1657 24.1577 18.2461 24.1556C18.3263 24.1534 18.4053 24.1342 18.4779 24.0986C18.5505 24.0632 18.6149 24.0123 18.6673 23.9496C18.7196 23.8868 18.7588 23.8135 18.7818 23.7342C18.805 23.6548 18.8118 23.5715 18.8017 23.4894C18.7917 23.4072 18.765 23.3284 18.7235 23.2574C18.7019 23.2107 18.6731 23.1429 18.6502 23.0988C18.5569 22.9358 18.4545 22.7785 18.3435 22.6275C18.1415 22.3254 17.9681 22.0041 17.8254 21.6681C17.8103 21.554 17.828 21.4381 17.8765 21.3344L17.7723 21.0772C19.3388 20.1247 20.5128 18.6141 21.0728 16.8309L21.3223 16.8746C21.4189 16.8039 21.5331 16.7624 21.6516 16.7551C21.9927 16.8224 22.3268 16.9237 22.6491 17.0576C22.8164 17.1351 22.9879 17.2029 23.1626 17.2603C23.204 17.2721 23.2637 17.2838 23.3108 17.2944C23.3147 17.2958 23.3179 17.2975 23.3218 17.2985C23.3246 17.2989 23.3276 17.2992 23.3305 17.2993C23.4065 17.3251 23.4869 17.3342 23.5665 17.3261C23.6461 17.318 23.7232 17.2929 23.7927 17.2523C23.8623 17.2117 23.9229 17.1566 23.9708 17.0905C24.0186 17.0246 24.0524 16.9488 24.07 16.8685C24.0879 16.7881 24.0892 16.7048 24.0739 16.624C24.0586 16.5431 24.0272 16.4663 23.9815 16.3988C23.9357 16.331 23.8769 16.2739 23.8086 16.2312C23.7402 16.1885 23.664 16.1608 23.5848 16.15L23.5764 16.148L23.5713 16.1465C23.5236 16.135 23.4622 16.1186 23.4186 16.1099C23.2365 16.0839 23.0531 16.0686 22.8693 16.0644C22.5227 16.041 22.1792 15.9828 21.8435 15.8908C21.7441 15.8255 21.66 15.7382 21.5976 15.635L21.3579 15.563C21.6179 13.7016 21.202 11.8071 20.1899 10.2424L20.3734 10.074C20.3801 9.9515 20.4199 9.8336 20.4884 9.7334C20.752 9.5001 21.0371 9.2936 21.3396 9.1172C21.5029 9.0313 21.6614 8.9359 21.8141 8.8313C21.8488 8.8046 21.8949 8.7645 21.9327 8.7329L21.9412 8.7268C22.0714 8.6304 22.1593 8.4849 22.1856 8.3219C22.212 8.159 22.1748 7.99202 22.0819 7.85725C22.0272 7.78817 21.9573 7.73333 21.8781 7.69715C21.7988 7.66097 21.7123 7.64469 21.6258 7.64932C21.4803 7.65577 21.3403 7.71015 21.2269 7.80445C21.1879 7.83588 21.1347 7.87794 21.1001 7.90858C20.9669 8.0384 20.8409 8.1761 20.7231 8.3209C20.4893 8.5856 20.2307 8.8263 19.9514 9.0394C19.8468 9.0962 19.7248 9.1082 19.6115 9.0734C19.5433 9.1246 19.4746 9.175 19.405 9.2245C18.3993 8.1229 17.0969 7.35626 15.6652 7.02302C15.3244 6.94349 14.9787 6.88872 14.6306 6.85907L14.617 6.60976C14.5281 6.52837 14.4636 6.42248 14.4312 6.30456C14.4187 5.94677 14.4401 5.5885 14.4949 5.23498C14.5312 5.04969 14.5574 4.86241 14.573 4.67403C14.5745 4.63115 14.5722 4.57187 14.5717 4.52297C14.5717 4.51738 14.573 4.5119 14.573 4.50647C14.5812 4.42403 14.5723 4.34074 14.5474 4.26197C14.5224 4.18322 14.4816 4.11076 14.4276 4.04927C14.3737 3.98775 14.3079 3.93858 14.2344 3.90492C14.1608 3.87124 14.0814 3.85384 14.0009 3.85381C13.9205 3.85376 13.8409 3.87108 13.7674 3.90469C13.694 3.93826 13.6282 3.9874 13.5741 4.04885C13.5202 4.1103 13.4794 4.18273 13.4541 4.26143C13.429 4.34019 13.4202 4.42345 13.4284 4.50593C13.4284 4.55762 13.4253 4.62625 13.427 4.6736C13.4428 4.86193 13.469 5.04918 13.5056 5.2344C13.5608 5.58804 13.5825 5.94634 13.5705 6.30429C13.5478 6.42395 13.4806 6.52977 13.3835 6.59916C13.3814 6.64178 13.3747 6.78404 13.3696 6.86244C11.5602 7.03199 9.8721 7.87251 8.6187 9.2279L8.401 9.0676C8.284 9.0883 8.1638 9.0748 8.0538 9.0287C7.77461 8.8153 7.51615 8.5743 7.28222 8.3094C7.16403 8.1644 7.03782 8.027 6.90422 7.89705C6.86908 7.86607 6.81607 7.82446 6.77726 7.79292C6.71983 7.73446 6.65118 7.68924 6.57565 7.66007C6.50013 7.63078 6.41951 7.61823 6.33901 7.62321C6.25847 7.62818 6.17988 7.65057 6.10832 7.6889C6.03672 7.72711 5.97375 7.78048 5.92349 7.84549C5.87322 7.9105 5.83679 7.98569 5.81653 8.0662C5.79627 8.1466 5.79268 8.2305 5.80596 8.3126C5.81921 8.3944 5.84909 8.4727 5.89355 8.542C5.93804 8.6113 5.99621 8.6702 6.06422 8.7148C6.10262 8.7469 6.15331 8.7915 6.1902 8.8198C6.34325 8.9243 6.50203 9.0199 6.66579 9.1056C6.9683 9.2822 7.25339 9.4885 7.51705 9.7219C7.59382 9.8145 7.63238 9.9343 7.62446 10.0559C7.65635 10.0861 7.76817 10.1882 7.82741 10.2436C6.81247 11.8026 6.38819 13.6914 6.63513 15.5515L6.40409 15.6208C6.34632 15.7279 6.26088 15.8165 6.15726 15.8767C5.82144 15.9689 5.4777 16.0272 5.13094 16.0507C4.94733 16.055 4.76414 16.0702 4.58221 16.096C4.53409 16.1051 4.46453 16.1249 4.41542 16.1364C4.33614 16.1473 4.25988 16.1749 4.19158 16.2177C4.12327 16.2606 4.06439 16.3178 4.01871 16.3854C3.97305 16.453 3.94158 16.5297 3.92635 16.6107C3.91112 16.6916 3.91245 16.7748 3.93025 16.8552C3.94806 16.9356 3.98195 17.0111 4.02976 17.0772C4.07756 17.1434 4.13823 17.1983 4.20789 17.2389C4.27752 17.2793 4.3546 17.3045 4.4342 17.3125C4.51381 17.3207 4.59416 17.3114 4.67014 17.2856L4.67837 17.2845C4.68218 17.2835 4.68569 17.2814 4.68963 17.2804C4.73681 17.2698 4.79609 17.2592 4.83746 17.248C5.01223 17.1902 5.18361 17.1219 5.35077 17.0438C5.67328 16.9097 6.00771 16.8083 6.34926 16.7412C6.46747 16.7373 6.58247 16.7812 6.66959 16.8637C6.75099 16.8477 6.83252 16.833 6.91423 16.8195C7.46764 18.6139 8.6418 20.1361 10.2134 21.0964Z"
        fill="white" />
    <path
        d="M11.3938 16.0468C11.4319 16.0391 11.4709 16.036 11.5098 16.0378C11.5768 16.0415 11.6426 16.059 11.703 16.0894C11.8203 16.1478 11.9111 16.2503 11.9566 16.376C12.0021 16.5017 11.9989 16.6406 11.9475 16.7637L11.951 16.7689L10.7946 19.648C9.6881 18.9205 8.8484 17.8337 8.4083 16.5594L11.3887 16.0405L11.3938 16.0468ZM16.031 16.455C16.0561 16.3415 16.1174 16.2398 16.205 16.1665C16.2928 16.0933 16.4019 16.0522 16.5148 16.0504C16.5481 16.0501 16.5815 16.053 16.6143 16.0595L16.6193 16.0533L19.5736 16.5702C19.13 17.8342 18.2938 18.9123 17.1949 19.6368L16.05 16.7862L16.0591 16.775C16.0167 16.6742 16.0069 16.5619 16.031 16.455ZM13.5567 17.5729C13.5999 17.49 13.664 17.4208 13.7424 17.3725C13.8207 17.3243 13.9104 17.2988 14.0016 17.2989C14.0928 17.299 14.1825 17.3245 14.2606 17.373C14.339 17.4215 14.403 17.491 14.4459 17.574H14.4483L15.9012 20.2812C14.861 20.6461 13.7427 20.7053 12.6715 20.4522C12.4729 20.4057 12.2789 20.3499 12.0895 20.2847L13.5457 17.5727L13.5567 17.5729ZM8.9576 11.2843L11.1929 13.3459L11.1916 13.3526C11.2603 13.4145 11.3114 13.4943 11.3395 13.5836C11.3677 13.6731 11.3719 13.7687 11.3516 13.8604C11.3313 13.9521 11.2873 14.0362 11.2242 14.1043C11.1612 14.1721 11.0816 14.2213 10.9937 14.2463L10.9909 14.2587L8.0955 15.1181C7.97033 13.7776 8.273 12.4317 8.9576 11.2847V11.2843ZM13.1103 11.5153C13.1061 11.6092 13.0773 11.7003 13.027 11.7785C12.9767 11.857 12.9067 11.9198 12.8244 11.9606C12.7422 12.0014 12.6509 12.0182 12.56 12.0096C12.4691 12.0013 12.3823 11.9675 12.3085 11.9122L12.2998 11.9161L9.8537 10.1288C10.7848 9.1893 11.9896 8.5907 13.283 8.4254L13.1132 11.5145L13.1103 11.5153ZM15.7006 11.9237C15.6268 11.979 15.5398 12.0125 15.4489 12.021C15.3581 12.0294 15.2668 12.0122 15.1846 11.9713C15.1025 11.9305 15.0326 11.8674 14.9825 11.7889C14.9323 11.7104 14.9039 11.6192 14.8999 11.5254L14.8875 11.5193L14.7175 8.4254C14.9226 8.4509 15.1264 8.4869 15.3278 8.5337C16.4001 8.782 17.3836 9.3343 18.1673 10.128L15.7053 11.9264L15.7006 11.9237ZM17.0131 14.2613C16.925 14.2365 16.8449 14.1876 16.7818 14.1196C16.7185 14.0517 16.6743 13.9673 16.6541 13.8756C16.6336 13.784 16.6378 13.6881 16.6662 13.5986C16.6944 13.5092 16.7459 13.4294 16.8147 13.3675L16.8124 13.3553L19.0601 11.2837C19.7457 12.4337 20.0401 13.7864 19.8964 15.1282L17.0153 14.2715L17.0131 14.2613ZM14.8299 15.1714L14.0008 15.5822L13.1742 15.1723L12.9688 14.2525L13.5411 13.5153H14.4618L15.0356 14.2514L14.8299 15.1714Z"
        fill="white" />
</svg>