<svg width="32" height="32" viewBox="0 0 32 32" fill="none" xmlns="http://www.w3.org/2000/svg">
    <g clip-path="url(#clip0_11_5)">
        <path
            d="M14.1046 17.4886C14.1323 17.483 14.1607 17.4807 14.189 17.482C14.2377 17.4847 14.2855 17.4975 14.3295 17.5196C14.4148 17.562 14.4808 17.6366 14.5139 17.728C14.547 17.8194 14.5447 17.9204 14.5073 18.01L14.5098 18.0137L13.6688 20.1076C12.8641 19.5785 12.2534 18.7881 11.9333 17.8614L14.1009 17.484L14.1046 17.4886ZM17.4771 17.7855C17.4954 17.7029 17.5399 17.6289 17.6036 17.5756C17.6675 17.5224 17.7468 17.4925 17.829 17.4912C17.8532 17.491 17.8775 17.4931 17.9013 17.4978L17.905 17.4933L20.0535 17.8692C19.7309 18.7885 19.1228 19.5726 18.3236 20.0995L17.4909 18.0263L17.4975 18.0182C17.4667 17.9449 17.4596 17.8632 17.4771 17.7855ZM15.6776 18.5985C15.709 18.5382 15.7556 18.4879 15.8127 18.4527C15.8696 18.4177 15.9348 18.3991 16.0012 18.3992C16.0675 18.3993 16.1327 18.4178 16.1895 18.4531C16.2466 18.4884 16.2931 18.5389 16.3243 18.5993H16.326L17.3827 20.5681C16.6262 20.8335 15.8129 20.8766 15.0338 20.6925C14.8894 20.6587 14.7483 20.6181 14.6106 20.5707L15.6696 18.5983L15.6776 18.5985ZM12.3328 14.0249L13.9585 15.5243L13.9575 15.5292C14.0075 15.5742 14.0447 15.6322 14.0651 15.6972C14.0856 15.7623 14.0887 15.8318 14.0739 15.8985C14.0591 15.9652 14.0271 16.0263 13.9812 16.0759C13.9354 16.1252 13.8775 16.1609 13.8136 16.1791L13.8116 16.1881L11.7058 16.8132C11.6148 15.8383 11.8349 14.8594 12.3328 14.0252V14.0249ZM15.353 14.1929C15.3499 14.2612 15.329 14.3275 15.2924 14.3844C15.2558 14.4415 15.2049 14.4871 15.145 14.5168C15.0852 14.5465 15.0188 14.5587 14.9527 14.5524C14.8866 14.5464 14.8235 14.5218 14.7698 14.4816L14.7635 14.4844L12.9845 13.1846C13.6617 12.5013 14.5379 12.066 15.4786 11.9457L15.3551 14.1924L15.353 14.1929ZM17.2368 14.49C17.1831 14.5302 17.1199 14.5545 17.0538 14.5607C16.9877 14.5668 16.9213 14.5543 16.8615 14.5246C16.8018 14.4949 16.751 14.449 16.7146 14.3919C16.678 14.3348 16.6574 14.2685 16.6545 14.2003L16.6455 14.1959L16.5218 11.9457C16.671 11.9643 16.8192 11.9905 16.9657 12.0245C17.7455 12.2051 18.4608 12.6068 19.0308 13.184L17.2402 14.4919L17.2368 14.49ZM18.1914 16.19C18.1273 16.172 18.069 16.1364 18.0231 16.087C17.9771 16.0376 17.945 15.9762 17.9303 15.9095C17.9154 15.8429 17.9184 15.7732 17.9391 15.7081C17.9596 15.6431 17.997 15.585 18.0471 15.54L18.0454 15.5311L19.6801 14.0245C20.1787 14.8609 20.3928 15.8447 20.2883 16.8205L18.193 16.1975L18.1914 16.19ZM16.6036 16.8519L16.0006 17.1507L15.3994 16.8526L15.25 16.1836L15.6663 15.6475H16.3359L16.7532 16.1828L16.6036 16.8519Z"
            fill="white" />
        <path
            d="M6.0318 18.1697L7.7501 10.4787C7.7963 10.2798 7.8848 10.0938 8.00919 9.93438C8.13357 9.77491 8.29076 9.64591 8.4694 9.55662L15.4247 6.13465C15.605 6.04601 15.8023 6 16.002 6C16.2016 6 16.3989 6.04601 16.5791 6.13465L23.5331 9.55845C23.7118 9.64766 23.8691 9.77666 23.9935 9.9361C24.1179 10.0956 24.2065 10.2815 24.2526 10.4805L25.9681 18.1713C26.0105 18.3656 26.0106 18.5674 25.9685 18.7618C25.9561 18.821 25.94 18.8793 25.9202 18.9364C25.8865 19.0337 25.8422 19.1267 25.7876 19.2135C25.7641 19.2505 25.7393 19.2866 25.7122 19.3217L20.8988 25.4884C20.8777 25.5153 20.8546 25.5398 20.8316 25.5647C20.7561 25.6476 20.6708 25.7204 20.5777 25.7815C20.4601 25.8577 20.3318 25.9153 20.1975 25.9519C20.0871 25.9831 19.9734 25.9993 19.8591 26H19.7842L12.1401 25.9982C12.0937 25.998 12.0472 25.9951 12.0011 25.9897C11.9348 25.982 11.8693 25.9692 11.8049 25.9513C11.7588 25.9388 11.7133 25.9238 11.6687 25.9063C11.6339 25.8927 11.5992 25.879 11.5656 25.8623C11.5154 25.8377 11.4667 25.8097 11.4197 25.7789C11.2986 25.7004 11.1908 25.602 11.1005 25.4876L10.9537 25.2996L6.28873 19.3196C6.19932 19.204 6.12907 19.0741 6.08082 18.9349C6.06068 18.8777 6.0442 18.8191 6.03151 18.7596C5.98936 18.5652 5.9895 18.3636 6.03191 18.1693L6.0318 18.1697ZM13.2461 21.161C13.2266 21.2201 13.2034 21.278 13.1769 21.3341C13.2194 21.4108 13.231 21.5017 13.209 21.5871C13.1079 21.826 12.9843 22.054 12.84 22.2681C12.7592 22.3776 12.6847 22.4917 12.6168 22.61C12.6001 22.642 12.5782 22.6916 12.5623 22.7255C12.5323 22.777 12.5131 22.8345 12.506 22.8943C12.499 22.954 12.504 23.0145 12.5209 23.072C12.538 23.1296 12.5663 23.1828 12.6046 23.2284C12.6427 23.2739 12.6896 23.3106 12.7424 23.3363C12.7951 23.362 12.8525 23.3761 12.9108 23.3776C12.9692 23.3791 13.0272 23.3679 13.0811 23.3449C13.1349 23.3218 13.1837 23.2876 13.2239 23.2439C13.2641 23.2004 13.2951 23.1487 13.3148 23.0921C13.3307 23.0585 13.3527 23.0138 13.3663 22.9822C13.4137 22.8535 13.4543 22.7223 13.4871 22.589C13.5592 22.3396 13.655 22.098 13.7728 21.8676C13.8239 21.7965 13.9002 21.7488 13.9852 21.7349C13.9985 21.7111 14.0479 21.6182 14.0743 21.57C15.3124 22.0532 16.6799 22.0495 17.9156 21.5597L18.0097 21.7356C18.077 21.7464 18.1396 21.7777 18.1892 21.8256C18.3311 22.0657 18.4396 22.3252 18.5115 22.5964C18.5441 22.7296 18.5842 22.8609 18.6316 22.9895C18.6449 23.0209 18.6673 23.065 18.6831 23.0985V23.0994L18.6838 23.1003C18.7034 23.1569 18.7344 23.2087 18.7747 23.2524C18.8149 23.2959 18.8636 23.3303 18.9176 23.3534C18.9716 23.3764 19.0296 23.3874 19.0881 23.3859C19.1464 23.3843 19.2039 23.3703 19.2567 23.3444C19.3095 23.3187 19.3563 23.2817 19.3944 23.2361C19.4324 23.1904 19.4609 23.1371 19.4777 23.0794C19.4945 23.0217 19.4995 22.9611 19.4921 22.9014C19.4849 22.8416 19.4655 22.7843 19.4353 22.7327C19.4196 22.6987 19.3986 22.6494 19.382 22.6173C19.3141 22.4988 19.2396 22.3844 19.1589 22.2745C19.012 22.0548 18.8859 21.8212 18.7821 21.5768C18.7711 21.4938 18.784 21.4095 18.8193 21.3341L18.7435 21.1471C19.8828 20.4543 20.7366 19.3557 21.1439 18.0588L21.3253 18.0906C21.3956 18.0392 21.4786 18.009 21.5648 18.0037C21.8129 18.0527 22.0559 18.1263 22.2903 18.2237C22.4119 18.2801 22.5367 18.3294 22.6637 18.3711C22.6938 18.3797 22.7372 18.3882 22.7715 18.3959C22.7743 18.3969 22.7767 18.3982 22.7795 18.3989C22.7815 18.3992 22.7837 18.3994 22.7858 18.3995C22.8411 18.4183 22.8996 18.4249 22.9575 18.419C23.0153 18.4131 23.0714 18.3948 23.122 18.3653C23.1726 18.3358 23.2167 18.2957 23.2515 18.2476C23.2863 18.1997 23.3108 18.1446 23.3236 18.0862C23.3367 18.0277 23.3376 17.9671 23.3265 17.9084C23.3153 17.8495 23.2925 17.7937 23.2593 17.7446C23.226 17.6953 23.1832 17.6537 23.1335 17.6227C23.0838 17.5916 23.0284 17.5715 22.9708 17.5636L22.9647 17.5622L22.9609 17.5611C22.9263 17.5527 22.8816 17.5408 22.8499 17.5345C22.7175 17.5156 22.5841 17.5044 22.4504 17.5014C22.1983 17.4844 21.9485 17.442 21.7044 17.3751C21.6321 17.3276 21.5709 17.2641 21.5255 17.1891L21.3512 17.1367C21.5403 15.783 21.2378 14.4052 20.5017 13.2672L20.6352 13.1447C20.6401 13.0556 20.669 12.9699 20.7188 12.897C20.9105 12.7273 21.1179 12.5772 21.3379 12.4489C21.4567 12.3864 21.5719 12.317 21.683 12.2409C21.7082 12.2215 21.7417 12.1924 21.7692 12.1694L21.7754 12.1649C21.8701 12.0948 21.934 11.989 21.9532 11.8705C21.9724 11.752 21.9453 11.6306 21.8777 11.5325C21.838 11.4823 21.7871 11.4424 21.7295 11.4161C21.6719 11.3898 21.6089 11.378 21.546 11.3813C21.4402 11.386 21.3384 11.4256 21.2559 11.4941C21.2276 11.517 21.1889 11.5476 21.1637 11.5699C21.0668 11.6643 20.9752 11.7644 20.8895 11.8697C20.7195 12.0623 20.5314 12.2373 20.3283 12.3923C20.2522 12.4336 20.1635 12.4423 20.0811 12.417C20.0315 12.4543 19.9815 12.4909 19.9309 12.5269C19.1995 11.7257 18.2523 11.1682 17.2111 10.9258C16.9632 10.868 16.7118 10.8282 16.4586 10.8066L16.4487 10.6253C16.3841 10.5661 16.3372 10.4891 16.3136 10.4033C16.3045 10.1431 16.3201 9.88255 16.3599 9.62544C16.3863 9.49068 16.4054 9.35448 16.4167 9.21748C16.4178 9.18629 16.4161 9.14318 16.4158 9.10761C16.4158 9.10355 16.4167 9.09956 16.4167 9.09561C16.4227 9.03566 16.4162 8.97508 16.3981 8.9178C16.3799 8.86052 16.3503 8.80783 16.311 8.76311C16.2718 8.71836 16.2239 8.6826 16.1705 8.65812C16.1169 8.63363 16.0592 8.62097 16.0007 8.62095C15.9422 8.62092 15.8843 8.63351 15.8308 8.65796C15.7775 8.68237 15.7296 8.71811 15.6903 8.7628C15.6511 8.80749 15.6214 8.86017 15.603 8.9174C15.5847 8.97468 15.5783 9.03524 15.5843 9.09522C15.5843 9.13281 15.582 9.18273 15.5833 9.21716C15.5948 9.35413 15.6138 9.49031 15.6404 9.62502C15.6806 9.88221 15.6964 10.1428 15.6876 10.4031C15.6711 10.4901 15.6223 10.5671 15.5516 10.6176C15.5501 10.6486 15.5452 10.752 15.5415 10.809C14.2256 10.9324 12.9979 11.5436 12.0863 12.5294L11.928 12.4128C11.8429 12.4279 11.7555 12.418 11.6755 12.3845C11.4724 12.2293 11.2845 12.054 11.1143 11.8614C11.0284 11.7559 10.9366 11.656 10.8394 11.5615C10.8139 11.539 10.7753 11.5087 10.7471 11.4858C10.7053 11.4432 10.6554 11.4104 10.6005 11.3891C10.5456 11.3678 10.4869 11.3587 10.4284 11.3623C10.3698 11.3659 10.3126 11.3822 10.2606 11.4101C10.2085 11.4379 10.1627 11.4767 10.1262 11.524C10.0896 11.5713 10.0631 11.626 10.0484 11.6845C10.0337 11.743 10.031 11.804 10.0407 11.8637C10.0503 11.9232 10.0721 11.9801 10.1044 12.0305C10.1368 12.0809 10.1791 12.1238 10.2285 12.1562C10.2565 12.1796 10.2933 12.212 10.3201 12.2326C10.4315 12.3086 10.5469 12.3781 10.666 12.4404C10.886 12.5689 11.0934 12.7189 11.2851 12.8887C11.341 12.956 11.369 13.0431 11.3632 13.1316C11.3864 13.1535 11.4678 13.2278 11.5108 13.2681C10.7727 14.4019 10.4641 15.7756 10.6437 17.1284L10.4757 17.1788C10.4337 17.2567 10.3716 17.3211 10.2962 17.3649C10.052 17.4319 9.80196 17.4743 9.54978 17.4914C9.41624 17.4945 9.28301 17.5056 9.1507 17.5244C9.1157 17.531 9.06511 17.5454 9.0294 17.5537C8.97174 17.5617 8.91628 17.5817 8.8666 17.6129C8.81692 17.6441 8.7741 17.6857 8.74088 17.7348C8.70767 17.784 8.68479 17.8398 8.67371 17.8987C8.66263 17.9575 8.6636 18.018 8.67655 18.0765C8.6895 18.135 8.71415 18.1899 8.74892 18.238C8.78368 18.2861 8.8278 18.326 8.87847 18.3556C8.92911 18.3849 8.98516 18.4033 9.04306 18.4091C9.10095 18.4151 9.15939 18.4083 9.21465 18.3895L9.22063 18.3887C9.2234 18.388 9.22596 18.3865 9.22882 18.3857C9.26314 18.378 9.30625 18.3703 9.33634 18.3622C9.46344 18.3201 9.58808 18.2705 9.70965 18.2137C9.9442 18.1161 10.1874 18.0424 10.4358 17.9936C10.5218 17.9908 10.6054 18.0227 10.6688 18.0827C10.728 18.0711 10.7873 18.0604 10.8467 18.0505C11.2492 19.3556 12.1031 20.4626 13.2461 21.161Z"
            fill="white" />
    </g>
    <defs>
        <clipPath id="clip0_11_5">
            <rect width="20" height="20" fill="white" transform="translate(6 6)" />
        </clipPath>
    </defs>
</svg>