<?xml version="1.0" encoding="UTF-8"?>
<!DOCTYPE svg><svg width="32" height="32" viewBox="0 0 122 122" fill="none" xmlns="http://www.w3.org/2000/svg">
  <defs>
    <clipPath id="clip">
      <path
        d="M100.000,21.000 Q100,0 81.217,9.391L18.783,40.609 Q0,50 18.783,59.391L81.217,90.609 Q100,100 100.000,79.000Z" />
    </clipPath>
  </defs>
  <path fill-rule="evenodd" clip-rule="evenodd"
    d="M34.667 116.007C4.287 101.462-8.551 65.04 5.992 34.657A60.98 60.98 0 0 1 87.333 5.98c30.38 14.544 43.218 50.966 28.675 81.35-14.544 30.383-50.962 43.222-81.341 28.677Z"
    fill="#326CE5" />
  <path
    d="M68.157 65.497a1.277 1.277 0 0 0-.79.102c-.299.14-.53.388-.647.691-.116.303-.108.638.023.934l-.009.013 2.953 6.94c2.824-1.754 4.968-4.374 6.091-7.445l-7.608-1.25-.013.015Zm-11.838.983a1.249 1.249 0 0 0-.445-.695 1.31 1.31 0 0 0-1.044-.258l-.013-.015-7.542 1.246c1.133 3.047 3.267 5.645 6.072 7.392l2.923-6.871-.023-.027c.108-.243.133-.514.072-.772Zm6.316 2.695c-.11-.2-.274-.367-.474-.483a1.314 1.314 0 0 0-1.323.001 1.27 1.27 0 0 0-.473.484h-.006l-3.709 6.525c2.656.88 5.51 1.023 8.245.413a16.049 16.049 0 0 0 1.486-.404l-3.718-6.537h-.028Zm11.741-15.157-5.706 4.97.003.015a1.253 1.253 0 0 0-.378.557 1.222 1.222 0 0 0 .295 1.254c.16.164.364.282.588.343l.007.03 7.392 2.071a14.59 14.59 0 0 0-2.2-9.24Zm-10.601.557c.01.226.084.445.212.634.129.19.307.34.517.439a1.322 1.322 0 0 0 1.318-.117l.022.01 6.244-4.308a15.355 15.355 0 0 0-8.754-4.106l.434 7.446.007.002Zm-6.613.984a1.318 1.318 0 0 0 1.317.115c.21-.099.388-.25.516-.44s.201-.409.211-.635l.032-.015.434-7.457a15.89 15.89 0 0 0-1.558.261 15.175 15.175 0 0 0-7.249 3.843l6.285 4.335.012-.007Zm-3.35 5.634c.225-.06.429-.177.59-.341.161-.164.274-.367.326-.588a1.22 1.22 0 0 0-.03-.668 1.251 1.251 0 0 0-.38-.557l.006-.03-5.738-4.993a14.317 14.317 0 0 0-2.135 9.267l7.355-2.065.006-.025Zm5.573 2.194 2.116.99 2.11-.988.525-2.217-1.46-1.777h-2.351l-1.465 1.774.525 2.218Z"
    fill="#fff" />
  <path
    d="m96.493 67.754-6.031-25.489a4.532 4.532 0 0 0-.91-1.804 4.688 4.688 0 0 0-1.615-1.252L63.523 27.87a4.813 4.813 0 0 0-4.053 0L35.06 39.215a4.69 4.69 0 0 0-1.615 1.252 4.531 4.531 0 0 0-.91 1.804l-6.022 25.488a4.367 4.367 0 0 0-.001 1.957 4.463 4.463 0 0 0 .9 1.855l16.896 20.437c.073.089.155.17.235.253.266.274.565.516.892.718.413.253.863.444 1.335.565.387.103.786.157 1.187.16h.263l26.832-.007a4.628 4.628 0 0 0 1.177-.155c.162-.042.321-.091.478-.149.122-.046.244-.09.362-.146a4.77 4.77 0 0 0 .512-.277c.425-.26.803-.586 1.12-.965l.516-.623L95.59 71.564a4.516 4.516 0 0 0 .903-1.855 4.357 4.357 0 0 0-.001-1.957v.002ZM71.17 77.667c.068.196.15.387.243.573a1.09 1.09 0 0 0-.113.839c.355.792.79 1.547 1.295 2.257.284.362.545.74.784 1.133.059.106.136.27.191.382a1.401 1.401 0 0 1-.148 1.667c-.134.15-.299.273-.484.358a1.5 1.5 0 0 1-1.69-.306 1.422 1.422 0 0 1-.32-.504c-.055-.11-.132-.26-.18-.364a11.627 11.627 0 0 1-.424-1.303 13.043 13.043 0 0 0-1.003-2.39 1.16 1.16 0 0 0-.745-.44c-.047-.08-.22-.388-.313-.547a19.402 19.402 0 0 1-13.484-.034l-.33.583c-.236.036-.456.14-.63.299a9.805 9.805 0 0 0-1.132 2.553 11.5 11.5 0 0 1-.421 1.303c-.047.105-.125.25-.181.362v.003l-.002.002a1.42 1.42 0 0 1-.32.504 1.503 1.503 0 0 1-2.175-.054 1.416 1.416 0 0 1-.343-1.109c.026-.197.094-.388.2-.559.055-.113.129-.276.187-.382.238-.393.5-.772.783-1.136.516-.728.958-1.503 1.322-2.313a1.377 1.377 0 0 0-.13-.804l.266-.62c-3.999-2.296-6.996-5.936-8.426-10.234l-.636.105a1.65 1.65 0 0 0-.84-.288c-.872.162-1.725.407-2.548.73-.427.186-.864.35-1.31.488-.106.028-.259.056-.379.082l-.028.01a.214.214 0 0 1-.022.002 1.505 1.505 0 0 1-1.18-.114 1.455 1.455 0 0 1-.455-.39 1.41 1.41 0 0 1-.263-1.124c.039-.195.12-.38.236-.543a1.493 1.493 0 0 1 1.013-.6l.021-.004.013-.004c.122-.028.279-.067.39-.088.465-.063.933-.1 1.402-.11a13.983 13.983 0 0 0 2.619-.418c.254-.157.468-.368.628-.616l.612-.174a18 18 0 0 1 2.98-12.824l-.468-.406a1.551 1.551 0 0 0-.294-.82 13.63 13.63 0 0 0-2.173-1.486 12.298 12.298 0 0 1-1.211-.689c-.089-.064-.206-.16-.303-.237l-.021-.015a1.502 1.502 0 0 1-.624-.976 1.475 1.475 0 0 1 .264-1.12c.14-.166.319-.298.52-.385a1.44 1.44 0 0 1 .645-.116 1.77 1.77 0 0 1 1.018.374c.1.076.235.177.324.251.34.313.661.645.962.994a13.514 13.514 0 0 0 1.97 1.732c.267.136.579.166.868.081.174.124.35.245.527.365a18.928 18.928 0 0 1 9.547-5.306c.87-.192 1.753-.324 2.642-.395l.034-.601c.227-.196.392-.452.475-.736a12.94 12.94 0 0 0-.163-2.578c-.093-.446-.16-.898-.2-1.352-.003-.103.002-.246.004-.364 0-.013-.004-.026-.004-.04a1.394 1.394 0 0 1 .372-1.102c.137-.148.305-.266.493-.348a1.503 1.503 0 0 1 1.685.347 1.393 1.393 0 0 1 .372 1.102c0 .125.008.29.004.404-.04.454-.107.905-.2 1.352a12.956 12.956 0 0 0-.166 2.578c.058.289.229.544.477.711.006.103.023.446.036.635 4.619.408 8.928 2.434 12.128 5.701l.556-.386c.298.05.605.017.886-.094a13.561 13.561 0 0 0 1.97-1.734c.301-.349.624-.68.965-.994.09-.074.225-.175.324-.25a1.508 1.508 0 0 1 1.708-.25c.182.09.343.22.471.376a1.415 1.415 0 0 1 .3 1.126c-.033.197-.11.386-.223.553a1.451 1.451 0 0 1-.436.417c-.098.077-.227.184-.322.252-.39.253-.796.483-1.214.69-.772.425-1.5.922-2.173 1.485a1.104 1.104 0 0 0-.274.805l-.518.452a18.077 18.077 0 0 1 3.044 12.793l.59.167c.147.259.365.472.63.617.857.222 1.734.363 2.62.42.468.01.936.046 1.4.109.123.021.3.07.426.097.203.026.397.093.572.196.174.103.324.24.441.404a1.407 1.407 0 0 1 .226 1.132 1.41 1.41 0 0 1-.254.536 1.475 1.475 0 0 1-.455.39 1.497 1.497 0 0 1-1.18.112l-.021-.003c-.01-.002-.019-.007-.029-.01-.12-.025-.272-.05-.377-.078a12.57 12.57 0 0 1-1.31-.492 13.95 13.95 0 0 0-2.55-.73 1.174 1.174 0 0 0-.817.296 23.192 23.192 0 0 0-.625-.106c-1.413 4.324-4.41 7.993-8.422 10.308Z"
    fill="#fff" />
</svg>