<svg width="32" height="32" viewBox="0 0 426 372" fill="none" xmlns="http://www.w3.org/2000/svg"><path fill="#fff" stroke="#326CE5" d="M7.5 7.5h357v357H7.5z" stroke-width="9"/><path d="M337.68 301.53c-30.39 -14.484 -43.236 -50.757 -28.686 -81.015a60.918 60.918 0 0 1 34.746 -31.059 61.248 61.248 0 0 1 46.626 2.499c30.393 14.484 43.236 50.76 28.686 81.015 -14.55 30.261 -50.979 43.047 -81.372 28.56Z" fill="#326CE5"/><path d="M363.444 210.306a5.208 5.208 0 0 0 -1.974 0.498l-26.94 12.813a5.079 5.079 0 0 0 -2.787 3.45l-6.645 28.785a5.034 5.034 0 0 0 0.99 4.305l18.648 23.079a5.151 5.151 0 0 0 4.026 1.914l29.904 -0.006a5.211 5.211 0 0 0 4.029 -1.911l18.639 -23.082a5.064 5.064 0 0 0 0.996 -4.305l-6.657 -28.785a5.079 5.079 0 0 0 -2.787 -3.45l-26.943 -12.807a5.214 5.214 0 0 0 -2.499 -0.498Z" fill="#fff"/><path d="M363.711 220.101c-0.891 0 -1.611 0.801 -1.611 1.785l0.003 0.045c-0.003 0.132 -0.009 0.294 -0.003 0.411 0.021 0.57 0.144 1.002 0.219 1.527 0.135 1.119 0.249 2.049 0.18 2.91a1.746 1.746 0 0 1 -0.525 0.831l-0.036 0.681a20.763 20.763 0 0 0 -13.452 6.438 23.589 23.589 0 0 1 -0.582 -0.414c-0.288 0.039 -0.579 0.129 -0.957 -0.09 -0.723 -0.486 -1.38 -1.152 -2.175 -1.956 -0.363 -0.384 -0.627 -0.75 -1.062 -1.122 -0.099 -0.084 -0.249 -0.198 -0.357 -0.285a1.926 1.926 0 0 0 -1.125 -0.42 1.554 1.554 0 0 0 -1.284 0.564c-0.555 0.693 -0.378 1.752 0.396 2.367l0.024 0.018c0.108 0.084 0.237 0.195 0.336 0.267 0.459 0.336 0.879 0.51 1.335 0.78 0.966 0.591 1.764 1.08 2.397 1.674 0.249 0.264 0.291 0.726 0.324 0.93l0.519 0.456a20.706 20.706 0 0 0 -3.291 14.481l-0.675 0.198c-0.177 0.228 -0.429 0.588 -0.693 0.696 -0.831 0.258 -1.764 0.354 -2.892 0.471 -0.528 0.045 -0.984 0.018 -1.545 0.126 -0.123 0.021 -0.297 0.066 -0.432 0.099h-0.012l-0.024 0.009c-0.951 0.228 -1.563 1.098 -1.365 1.956 0.195 0.855 1.125 1.38 2.079 1.17h0.027l0.03 -0.012c0.132 -0.03 0.3 -0.06 0.417 -0.09 0.552 -0.15 0.951 -0.366 1.446 -0.555 1.068 -0.381 1.95 -0.699 2.811 -0.822 0.36 -0.03 0.738 0.222 0.927 0.327l0.705 -0.12a20.91 20.91 0 0 0 9.297 11.556l-0.291 0.702c0.105 0.27 0.222 0.639 0.141 0.906 -0.312 0.81 -0.849 1.662 -1.458 2.61 -0.297 0.441 -0.597 0.78 -0.864 1.284 -0.066 0.12 -0.147 0.306 -0.207 0.432 -0.414 0.885 -0.111 1.902 0.684 2.28 0.801 0.387 1.797 -0.018 2.226 -0.903l0.003 -0.003v-0.003c0.063 -0.126 0.15 -0.291 0.201 -0.408 0.228 -0.522 0.303 -0.969 0.465 -1.47 0.426 -1.071 0.66 -2.19 1.248 -2.886 0.162 -0.192 0.423 -0.264 0.696 -0.336l0.363 -0.66a20.925 20.925 0 0 0 14.883 0.039l0.342 0.615c0.279 0.09 0.579 0.138 0.825 0.498 0.438 0.75 0.741 1.632 1.107 2.7 0.159 0.504 0.24 0.951 0.468 1.47 0.051 0.12 0.138 0.288 0.198 0.414 0.432 0.885 1.428 1.29 2.229 0.909 0.798 -0.384 1.101 -1.398 0.687 -2.28 -0.063 -0.129 -0.147 -0.315 -0.21 -0.435 -0.267 -0.501 -0.57 -0.84 -0.864 -1.278 -0.612 -0.951 -1.119 -1.74 -1.431 -2.55 -0.132 -0.417 0.021 -0.675 0.123 -0.945 -0.06 -0.069 -0.189 -0.465 -0.267 -0.648a20.901 20.901 0 0 0 9.294 -11.64c0.21 0.03 0.573 0.093 0.69 0.12 0.243 -0.162 0.465 -0.369 0.903 -0.336 0.861 0.126 1.746 0.444 2.811 0.825 0.495 0.189 0.897 0.408 1.446 0.555 0.117 0.03 0.285 0.06 0.417 0.09 0.012 0 0.021 0.006 0.033 0.009l0.024 0.003c0.957 0.207 1.884 -0.315 2.082 -1.17 0.195 -0.858 -0.414 -1.728 -1.365 -1.956 -0.138 -0.03 -0.336 -0.087 -0.468 -0.111 -0.564 -0.105 -1.02 -0.081 -1.548 -0.123 -1.128 -0.12 -2.061 -0.213 -2.892 -0.474 -0.336 -0.132 -0.579 -0.531 -0.696 -0.696l-0.651 -0.189a20.772 20.772 0 0 0 -3.357 -14.448l0.57 -0.51c0.027 -0.288 0.003 -0.591 0.303 -0.909 0.636 -0.594 1.434 -1.083 2.4 -1.677 0.456 -0.27 0.879 -0.441 1.338 -0.78 0.105 -0.075 0.246 -0.195 0.357 -0.282 0.771 -0.615 0.951 -1.674 0.396 -2.37 -0.555 -0.69 -1.632 -0.756 -2.406 -0.141 -0.111 0.087 -0.258 0.198 -0.357 0.285 -0.435 0.369 -0.702 0.735 -1.065 1.119 -0.795 0.804 -1.452 1.476 -2.175 1.959 -0.312 0.18 -0.771 0.12 -0.978 0.108l-0.615 0.435a21.162 21.162 0 0 0 -13.383 -6.438c-0.015 -0.213 -0.033 -0.6 -0.039 -0.717 -0.21 -0.201 -0.462 -0.372 -0.528 -0.801 -0.069 -0.864 0.048 -1.794 0.183 -2.913 0.075 -0.525 0.201 -0.96 0.222 -1.527 0.003 -0.129 -0.003 -0.318 -0.003 -0.456 0 -0.984 -0.723 -1.785 -1.614 -1.785Zm-2.019 12.45 -0.48 8.424 -0.033 0.015a1.419 1.419 0 0 1 -2.256 1.086l-0.015 0.006 -6.936 -4.896a16.644 16.644 0 0 1 9.72 -4.632Zm4.041 0a16.809 16.809 0 0 1 9.663 4.638l-6.891 4.866 -0.024 -0.012a1.428 1.428 0 0 1 -2.262 -1.08l-0.006 -0.003 -0.48 -8.406Zm-16.275 7.782 6.333 5.64 -0.009 0.03a1.41 1.41 0 0 1 -0.558 2.433l-0.006 0.03 -8.118 2.331a16.476 16.476 0 0 1 2.358 -10.464Zm28.461 0a16.719 16.719 0 0 1 2.43 10.437l-8.16 -2.34 -0.006 -0.033a1.416 1.416 0 0 1 -0.558 -2.433l-0.003 -0.018 6.297 -5.61Zm-15.507 6.072h2.595l1.611 2.01 -0.579 2.502 -2.328 1.113 -2.337 -1.116 -0.579 -2.505 1.617 -2.004Zm8.316 6.87a1.428 1.428 0 0 1 0.33 0.021l0.012 -0.015 8.397 1.41a16.563 16.563 0 0 1 -6.723 8.409l-3.258 -7.836 0.009 -0.015a1.416 1.416 0 0 1 1.233 -1.977Zm-14.1 0.03a1.428 1.428 0 0 1 1.365 1.104 1.386 1.386 0 0 1 -0.081 0.87l0.024 0.03 -3.225 7.761a16.629 16.629 0 0 1 -6.699 -8.349l8.322 -1.407 0.015 0.018a1.437 1.437 0 0 1 0.279 -0.024Zm7.032 3.402a1.419 1.419 0 0 1 1.302 0.744h0.03l4.104 7.38a16.743 16.743 0 0 1 -10.74 -0.012l4.095 -7.365h0.006a1.422 1.422 0 0 1 1.203 -0.75Z" fill="#326CE5" stroke="#326CE5" stroke-width="1"/></svg>