<?xml version="1.0" encoding="UTF-8"?><!DOCTYPE svg><svg width="32" height="32" viewBox="0 0 195 163" fill="none" xmlns="http://www.w3.org/2000/svg">
<rect x="2.5" y="2.5" width="171" height="158" fill="#326CE5" fill-opacity="0.4" stroke="#326CE5" stroke-width="5" stroke-dasharray="10 10"/>
<path fill-rule="evenodd" clip-rule="evenodd" d="M163.503 131.839C152.546 126.593 147.916 113.457 153.161 102.499C155.68 97.2369 160.186 93.191 165.687 91.2513C171.189 89.3117 177.236 89.6373 182.497 92.1564C193.454 97.4022 198.084 110.538 192.839 121.496C187.594 132.454 174.459 137.084 163.503 131.839V131.839Z" fill="#326CE5"/>
<path d="M172.791 98.8024C172.544 98.8149 172.302 98.8761 172.079 98.9825L162.367 103.623C162.116 103.743 161.895 103.918 161.721 104.134C161.547 104.35 161.424 104.603 161.362 104.873L158.966 115.296C158.911 115.537 158.905 115.785 158.948 116.028C158.991 116.271 159.083 116.502 159.218 116.709C159.251 116.759 159.286 116.808 159.324 116.855L166.046 125.214C166.22 125.43 166.441 125.604 166.693 125.724C166.944 125.844 167.219 125.907 167.498 125.907L178.279 125.904C178.558 125.904 178.833 125.842 179.084 125.723C179.336 125.603 179.557 125.428 179.731 125.212L186.451 116.853C186.625 116.636 186.747 116.384 186.81 116.114C186.872 115.844 186.872 115.564 186.81 115.294L184.41 104.87C184.348 104.6 184.225 104.348 184.051 104.132C183.877 103.915 183.656 103.741 183.405 103.621L173.692 98.9825C173.411 98.8487 173.102 98.7867 172.791 98.8024V98.8024Z" fill="white"/>
<path d="M172.888 102.35C172.567 102.35 172.306 102.639 172.306 102.996C172.306 103.001 172.307 103.006 172.307 103.012C172.307 103.06 172.305 103.119 172.306 103.161C172.314 103.367 172.359 103.524 172.386 103.714C172.435 104.119 172.476 104.456 172.45 104.768C172.426 104.886 172.339 104.994 172.262 105.069L172.248 105.315C171.899 105.344 171.548 105.397 171.197 105.476C169.688 105.819 168.388 106.596 167.399 107.646C167.334 107.602 167.222 107.522 167.189 107.497C167.085 107.511 166.98 107.543 166.843 107.464C166.583 107.289 166.346 107.047 166.06 106.756C165.928 106.616 165.833 106.484 165.677 106.349C165.642 106.319 165.588 106.278 165.548 106.246C165.426 106.149 165.282 106.098 165.143 106.094C164.964 106.087 164.792 106.157 164.68 106.299C164.48 106.55 164.544 106.933 164.822 107.156C164.825 107.158 164.828 107.16 164.831 107.162C164.87 107.193 164.916 107.233 164.952 107.259C165.117 107.381 165.269 107.444 165.434 107.541C165.781 107.755 166.07 107.933 166.298 108.148C166.387 108.243 166.403 108.411 166.415 108.483L166.601 108.65C165.604 110.151 165.142 112.005 165.415 113.894L165.172 113.965C165.107 114.048 165.017 114.178 164.922 114.217C164.623 114.311 164.286 114.346 163.88 114.388C163.689 114.404 163.524 114.395 163.322 114.433C163.277 114.442 163.215 114.458 163.167 114.469C163.165 114.47 163.163 114.47 163.162 114.47C163.159 114.471 163.156 114.472 163.153 114.473C162.81 114.556 162.59 114.871 162.661 115.181C162.732 115.491 163.067 115.68 163.411 115.606C163.414 115.605 163.418 115.605 163.42 115.604C163.424 115.604 163.427 115.602 163.431 115.601C163.479 115.59 163.54 115.578 163.582 115.567C163.78 115.514 163.925 115.436 164.103 115.367C164.488 115.229 164.807 115.114 165.117 115.069C165.247 115.059 165.383 115.149 165.451 115.187L165.704 115.144C166.288 116.951 167.51 118.413 169.057 119.33L168.951 119.583C168.989 119.681 169.031 119.814 169.003 119.912C168.89 120.204 168.697 120.513 168.477 120.857C168.37 121.016 168.261 121.14 168.165 121.322C168.142 121.365 168.113 121.432 168.091 121.478C167.941 121.798 168.051 122.166 168.338 122.304C168.626 122.443 168.985 122.297 169.14 121.977C169.14 121.976 169.141 121.976 169.141 121.975C169.141 121.975 169.141 121.974 169.141 121.974C169.163 121.929 169.195 121.869 169.213 121.826C169.296 121.638 169.323 121.476 169.381 121.293C169.535 120.907 169.619 120.502 169.831 120.249C169.889 120.18 169.984 120.153 170.082 120.127L170.213 119.889C171.562 120.406 173.072 120.545 174.581 120.203C174.925 120.125 175.257 120.024 175.578 119.902C175.615 119.968 175.684 120.094 175.702 120.126C175.802 120.158 175.91 120.175 175.999 120.306C176.157 120.577 176.266 120.897 176.398 121.283C176.456 121.466 176.484 121.628 176.567 121.816C176.585 121.859 176.617 121.92 176.639 121.965C176.794 122.287 177.153 122.434 177.442 122.295C177.729 122.156 177.839 121.788 177.69 121.469C177.667 121.422 177.637 121.356 177.614 121.312C177.518 121.13 177.409 121.008 177.302 120.849C177.082 120.504 176.899 120.218 176.787 119.926C176.739 119.775 176.795 119.681 176.831 119.583C176.809 119.558 176.762 119.415 176.734 119.348C178.342 118.399 179.529 116.883 180.086 115.132C180.161 115.144 180.292 115.167 180.334 115.176C180.421 115.118 180.502 115.043 180.659 115.055C180.97 115.1 181.288 115.216 181.673 115.354C181.852 115.422 181.996 115.502 182.195 115.555C182.237 115.566 182.297 115.577 182.345 115.587C182.349 115.588 182.352 115.59 182.356 115.591C182.359 115.591 182.362 115.591 182.365 115.592C182.71 115.666 183.044 115.478 183.115 115.167C183.186 114.857 182.966 114.542 182.623 114.459C182.573 114.448 182.503 114.429 182.454 114.419C182.252 114.381 182.087 114.391 181.897 114.375C181.49 114.332 181.154 114.298 180.854 114.203C180.733 114.156 180.646 114.011 180.604 113.951L180.369 113.883C180.491 113.002 180.458 112.086 180.247 111.169C180.035 110.243 179.659 109.397 179.158 108.651C179.218 108.596 179.332 108.496 179.364 108.466C179.373 108.362 179.365 108.252 179.473 108.137C179.702 107.922 179.99 107.744 180.338 107.529C180.503 107.432 180.655 107.37 180.821 107.248C180.858 107.22 180.91 107.176 180.949 107.144C181.228 106.922 181.292 106.538 181.092 106.287C180.892 106.036 180.504 106.013 180.225 106.235C180.185 106.267 180.131 106.308 180.096 106.338C179.939 106.473 179.843 106.605 179.712 106.744C179.425 107.036 179.188 107.279 178.928 107.454C178.815 107.519 178.65 107.497 178.575 107.492L178.354 107.65C177.093 106.328 175.377 105.483 173.528 105.319C173.523 105.241 173.517 105.101 173.515 105.059C173.439 104.987 173.348 104.925 173.325 104.768C173.299 104.456 173.342 104.119 173.391 103.714C173.418 103.524 173.462 103.367 173.47 103.161C173.472 103.114 173.469 103.046 173.469 102.996C173.469 102.639 173.209 102.35 172.888 102.35H172.888ZM172.16 106.859L171.987 109.908L171.975 109.914C171.963 110.187 171.739 110.405 171.463 110.405C171.35 110.405 171.246 110.369 171.161 110.307L171.156 110.309L168.656 108.537C169.424 107.781 170.407 107.223 171.54 106.966C171.747 106.919 171.954 106.884 172.16 106.859ZM173.617 106.859C174.939 107.021 176.162 107.62 177.1 108.538L174.615 110.299L174.607 110.296C174.386 110.457 174.075 110.417 173.904 110.201C173.833 110.113 173.796 110.009 173.792 109.904L173.789 109.903L173.617 106.859ZM167.749 109.676L170.032 111.718L170.029 111.73C170.236 111.909 170.266 112.22 170.094 112.436C170.024 112.524 169.929 112.583 169.828 112.611L169.826 112.621L166.899 113.466C166.75 112.104 167.071 110.78 167.749 109.676ZM178.01 109.677C178.349 110.227 178.606 110.841 178.759 111.507C178.91 112.164 178.948 112.821 178.886 113.456L175.944 112.608L175.942 112.596C175.679 112.524 175.517 112.256 175.578 111.987C175.603 111.877 175.662 111.784 175.741 111.715L175.739 111.709L178.01 109.677H178.01ZM172.419 111.876H173.355L173.936 112.602L173.727 113.509L172.888 113.913L172.045 113.508L171.837 112.601L172.419 111.876ZM175.418 114.362C175.457 114.36 175.497 114.364 175.536 114.371L175.541 114.365L178.568 114.877C178.125 116.121 177.277 117.199 176.144 117.921L174.969 115.083L174.973 115.078C174.865 114.827 174.973 114.533 175.221 114.413C175.285 114.383 175.352 114.366 175.418 114.362H175.418ZM170.334 114.375C170.565 114.378 170.772 114.538 170.826 114.773C170.851 114.884 170.839 114.993 170.797 115.089L170.806 115.1L169.643 117.91C168.556 117.212 167.69 116.168 167.227 114.887L170.228 114.377L170.233 114.383C170.267 114.377 170.301 114.374 170.334 114.375V114.375ZM172.869 115.606C172.949 115.603 173.031 115.619 173.109 115.657C173.21 115.706 173.289 115.783 173.338 115.875H173.35L174.829 118.548C174.637 118.613 174.44 118.668 174.238 118.713C173.106 118.97 171.979 118.893 170.957 118.545L172.433 115.876H172.435C172.524 115.711 172.692 115.612 172.869 115.606Z" fill="#326CE5" stroke="#326CE5" stroke-width="0.25"/>
</svg>
