<?xml version="1.0" encoding="UTF-8"?><!DOCTYPE svg><svg width="32" height="32" viewBox="0 0 204 163" fill="none" xmlns="http://www.w3.org/2000/svg">
<rect x="2.5" y="2.5" width="171" height="158" fill="#326CE5" fill-opacity="0.4" stroke="#326CE5" stroke-width="5" stroke-dasharray="10 10"/>
<path fill-rule="evenodd" clip-rule="evenodd" d="M164.628 134.298C150.933 127.741 145.145 111.321 151.702 97.6238C154.85 91.0461 160.482 85.9887 167.359 83.5642C174.236 81.1396 181.795 81.5466 188.372 84.6955C202.067 91.2528 207.855 107.672 201.298 121.37C194.742 135.067 178.324 140.855 164.628 134.298V134.298Z" fill="#326CE5"/>
<path d="M176.239 93.003C175.93 93.0185 175.628 93.0951 175.349 93.2281L163.209 99.0288C162.895 99.1789 162.619 99.3972 162.401 99.6676C162.184 99.938 162.031 100.254 161.953 100.591L158.958 113.621C158.889 113.921 158.881 114.232 158.935 114.535C158.989 114.838 159.104 115.128 159.273 115.386C159.314 115.449 159.358 115.51 159.405 115.569L167.808 126.017C168.026 126.287 168.302 126.505 168.616 126.655C168.93 126.805 169.274 126.883 169.623 126.883L183.099 126.88C183.447 126.88 183.791 126.803 184.105 126.653C184.42 126.503 184.696 126.285 184.914 126.015L193.313 115.566C193.531 115.296 193.684 114.98 193.762 114.643C193.84 114.305 193.84 113.955 193.762 113.617L190.762 100.588C190.685 100.25 190.531 99.9349 190.314 99.6645C190.097 99.3941 189.82 99.1758 189.506 99.0257L177.365 93.2281C177.014 93.0608 176.627 92.9834 176.239 93.003V93.003Z" fill="white"/>
<path d="M176.36 97.4373C175.958 97.4373 175.633 97.7988 175.633 98.2446C175.633 98.2515 175.634 98.258 175.634 98.2648C175.634 98.3254 175.631 98.3984 175.633 98.4511C175.643 98.7083 175.699 98.9051 175.732 99.1421C175.793 99.6492 175.845 100.07 175.813 100.46C175.782 100.608 175.674 100.742 175.577 100.836L175.56 101.143C175.124 101.18 174.685 101.246 174.246 101.345C172.36 101.774 170.735 102.746 169.498 104.058C169.418 104.003 169.278 103.902 169.236 103.871C169.106 103.889 168.975 103.929 168.804 103.829C168.479 103.611 168.183 103.308 167.825 102.944C167.66 102.77 167.542 102.605 167.346 102.437C167.302 102.399 167.235 102.347 167.185 102.308C167.032 102.186 166.853 102.123 166.679 102.117C166.455 102.109 166.24 102.197 166.1 102.373C165.85 102.687 165.93 103.166 166.278 103.444C166.282 103.447 166.286 103.449 166.289 103.452C166.337 103.491 166.396 103.541 166.44 103.573C166.647 103.726 166.836 103.804 167.042 103.926C167.477 104.194 167.837 104.417 168.123 104.685C168.234 104.804 168.254 105.014 168.269 105.104L168.502 105.312C167.255 107.189 166.678 109.506 167.019 111.868L166.715 111.956C166.634 112.06 166.521 112.223 166.402 112.271C166.029 112.389 165.608 112.432 165.1 112.485C164.861 112.505 164.655 112.493 164.403 112.541C164.347 112.552 164.269 112.572 164.209 112.586C164.206 112.587 164.204 112.587 164.202 112.588C164.199 112.589 164.195 112.59 164.191 112.591C163.763 112.695 163.488 113.088 163.577 113.476C163.665 113.864 164.084 114.1 164.514 114.007C164.518 114.006 164.522 114.006 164.525 114.006C164.53 114.004 164.534 114.002 164.539 114.001C164.599 113.988 164.675 113.973 164.727 113.959C164.976 113.892 165.156 113.795 165.379 113.709C165.86 113.537 166.258 113.392 166.646 113.336C166.808 113.324 166.979 113.436 167.064 113.484L167.381 113.43C168.11 115.689 169.637 117.516 171.571 118.662L171.439 118.979C171.487 119.102 171.539 119.268 171.504 119.39C171.363 119.755 171.121 120.141 170.846 120.572C170.713 120.771 170.577 120.925 170.456 121.152C170.428 121.207 170.391 121.29 170.363 121.348C170.176 121.748 170.313 122.208 170.672 122.381C171.033 122.554 171.481 122.371 171.675 121.971C171.676 121.97 171.677 121.97 171.677 121.969C171.677 121.969 171.677 121.968 171.677 121.968C171.704 121.911 171.744 121.836 171.767 121.783C171.87 121.547 171.904 121.345 171.976 121.117C172.169 120.634 172.274 120.127 172.539 119.811C172.611 119.725 172.73 119.692 172.852 119.659L173.017 119.361C174.703 120.008 176.59 120.182 178.476 119.753C178.906 119.656 179.321 119.529 179.723 119.378C179.769 119.46 179.855 119.617 179.878 119.657C180.002 119.698 180.138 119.719 180.249 119.882C180.447 120.221 180.582 120.621 180.747 121.104C180.82 121.332 180.856 121.534 180.958 121.77C180.982 121.824 181.021 121.9 181.049 121.957C181.242 122.358 181.692 122.542 182.053 122.368C182.412 122.195 182.549 121.735 182.362 121.336C182.334 121.278 182.296 121.194 182.267 121.14C182.147 120.912 182.011 120.76 181.878 120.561C181.603 120.13 181.374 119.773 181.233 119.407C181.174 119.219 181.243 119.101 181.289 118.979C181.262 118.947 181.203 118.769 181.168 118.685C183.178 117.498 184.661 115.604 185.357 113.416C185.451 113.43 185.615 113.459 185.668 113.47C185.777 113.398 185.877 113.304 186.074 113.319C186.462 113.375 186.861 113.519 187.341 113.692C187.565 113.778 187.745 113.877 187.994 113.943C188.046 113.957 188.121 113.971 188.181 113.984C188.186 113.985 188.191 113.987 188.195 113.988C188.199 113.989 188.203 113.989 188.206 113.99C188.637 114.083 189.056 113.847 189.144 113.459C189.233 113.071 188.958 112.677 188.529 112.574C188.467 112.56 188.379 112.536 188.318 112.524C188.065 112.476 187.859 112.488 187.621 112.468C187.113 112.415 186.692 112.372 186.318 112.254C186.166 112.195 186.057 112.014 186.005 111.939L185.711 111.854C185.863 110.753 185.822 109.607 185.559 108.461C185.293 107.304 184.824 106.246 184.197 105.314C184.273 105.245 184.415 105.12 184.455 105.082C184.467 104.952 184.457 104.815 184.592 104.671C184.877 104.403 185.238 104.18 185.672 103.912C185.879 103.79 186.069 103.712 186.276 103.559C186.323 103.525 186.387 103.47 186.436 103.43C186.785 103.152 186.865 102.673 186.615 102.359C186.365 102.045 185.88 102.016 185.531 102.294C185.481 102.333 185.414 102.384 185.37 102.423C185.174 102.591 185.054 102.756 184.89 102.931C184.531 103.295 184.235 103.598 183.91 103.817C183.769 103.899 183.563 103.871 183.469 103.865L183.193 104.062C181.617 102.41 179.471 101.353 177.161 101.148C177.154 101.051 177.146 100.876 177.144 100.824C177.049 100.733 176.935 100.656 176.906 100.46C176.874 100.07 176.927 99.6492 176.988 99.1421C177.022 98.9051 177.078 98.7083 177.088 98.4511C177.09 98.3927 177.086 98.3078 177.086 98.2446C177.086 97.7988 176.761 97.4372 176.36 97.4373H176.36ZM175.45 103.073L175.234 106.885L175.218 106.893C175.204 107.234 174.923 107.506 174.579 107.506C174.438 107.506 174.307 107.461 174.201 107.383L174.195 107.387L171.07 105.171C172.03 104.226 173.259 103.528 174.675 103.207C174.934 103.148 175.192 103.105 175.45 103.073ZM177.271 103.073C178.924 103.277 180.453 104.025 181.625 105.173L178.519 107.374L178.508 107.37C178.233 107.571 177.844 107.521 177.63 107.252C177.542 107.141 177.495 107.011 177.49 106.88L177.487 106.879L177.271 103.073ZM169.936 106.595L172.79 109.147L172.787 109.163C173.045 109.387 173.082 109.775 172.868 110.045C172.78 110.155 172.662 110.229 172.535 110.264L172.532 110.276L168.874 111.332C168.688 109.629 169.089 107.975 169.936 106.595ZM182.763 106.596C183.187 107.284 183.508 108.051 183.699 108.883C183.888 109.706 183.935 110.526 183.857 111.319L180.181 110.261L180.178 110.245C179.848 110.155 179.646 109.82 179.723 109.484C179.754 109.347 179.827 109.23 179.926 109.144L179.924 109.136L182.763 106.596H182.763ZM175.774 109.344H176.943L177.67 110.253L177.409 111.386L176.36 111.891L175.307 111.385L175.046 110.251L175.774 109.344ZM179.522 112.453C179.572 112.45 179.621 112.455 179.67 112.464L179.676 112.456L183.46 113.096C182.906 114.651 181.846 115.999 180.431 116.901L178.962 113.353L178.966 113.347C178.832 113.034 178.967 112.666 179.277 112.517C179.356 112.478 179.439 112.457 179.522 112.453H179.522ZM173.167 112.468C173.456 112.472 173.715 112.673 173.782 112.967C173.814 113.104 173.798 113.241 173.746 113.361L173.757 113.375L172.304 116.887C170.945 116.015 169.863 114.71 169.284 113.108L173.035 112.472L173.042 112.479C173.084 112.472 173.126 112.468 173.167 112.468V112.468ZM176.336 114.007C176.437 114.003 176.539 114.024 176.636 114.071C176.763 114.132 176.861 114.228 176.923 114.344H176.937L178.786 117.685C178.546 117.766 178.3 117.835 178.047 117.892C176.633 118.213 175.223 118.116 173.947 117.681L175.791 114.346H175.794C175.905 114.139 176.115 114.015 176.336 114.007Z" fill="#326CE5" stroke="#326CE5" stroke-width="0.25"/>
</svg>
