  <svg width="32" height="32" viewBox="0 0 150 150" fill="none" xmlns="http://www.w3.org/2000/svg">
    <rect x="2.5" y="2.5" width="145" height="145" fill="#326CE5" stroke="#326CE5" strokeWidth="5"/>
    <path d="M76.2889 29.0081C75.447 29.0506 74.622 29.2593 73.8625 29.6221L40.7531 45.4422C39.8961 45.8514 39.1432 46.4469 38.5501 47.1844C37.957 47.9219 37.5391 48.7824 37.3274 49.7021L29.1591 85.2379C28.9704 86.0566 28.9493 86.9046 29.097 87.7316C29.2446 88.5586 29.558 89.3478 30.0187 90.0525C30.1304 90.2248 30.2505 90.3915 30.3786 90.5522L53.2956 119.046C53.8888 119.783 54.6419 120.379 55.4989 120.788C56.3558 121.197 57.2947 121.409 58.2458 121.409L94.9969 121.4C95.9476 121.401 96.8862 121.189 97.7432 120.781C98.6001 120.373 99.3534 119.778 99.947 119.042L122.856 90.5437C123.449 89.806 123.867 88.9452 124.079 88.0251C124.291 87.1051 124.291 86.1495 124.079 85.2294L115.898 49.6936C115.687 48.7739 115.269 47.9134 114.676 47.1759C114.083 46.4385 113.33 45.843 112.473 45.4337L79.3589 29.6221C78.4036 29.1657 77.3479 28.9546 76.2889 29.0081V29.0081Z" fill="white"/>
    <path d="M76.617 41.1016C75.5225 41.1017 74.6351 42.0875 74.6352 43.3035C74.6352 43.3222 74.6391 43.34 74.6395 43.3585C74.6379 43.5238 74.6299 43.7228 74.6352 43.8667C74.6613 44.568 74.8142 45.1048 74.9062 45.751C75.073 47.1341 75.2126 48.2805 75.1264 49.3461C75.0426 49.7479 74.7466 50.1154 74.4828 50.3709L74.4362 51.2093C73.2469 51.3078 72.0497 51.4882 70.8538 51.7598C65.7082 52.9281 61.2778 55.5787 57.9048 59.1574C57.6859 59.0081 57.303 58.7334 57.1891 58.6493C56.8353 58.6971 56.4777 58.8062 56.012 58.5349C55.1251 57.938 54.3174 57.1139 53.34 56.1213C52.8922 55.6465 52.5679 55.1943 52.0358 54.7366C51.9149 54.6327 51.7305 54.4921 51.5954 54.3851C51.1794 54.0535 50.6888 53.8805 50.2149 53.8643C49.6057 53.8434 49.0193 54.0816 48.6355 54.563C47.9532 55.4188 48.1716 56.7267 49.1225 57.4848C49.1321 57.4925 49.1424 57.4984 49.1521 57.506C49.2827 57.6119 49.4427 57.7476 49.5628 57.8363C50.1275 58.2531 50.6432 58.4665 51.2058 58.7975C52.3911 59.5294 53.3737 60.1364 54.153 60.8681C54.4574 61.1926 54.5106 61.7642 54.5511 62.0115L55.1862 62.5789C51.786 67.696 50.2123 74.0167 51.1423 80.4569L50.3123 80.6982C50.0936 80.9807 49.7845 81.4252 49.4612 81.5578C48.4415 81.879 47.2939 81.997 45.9085 82.1422C45.258 82.1963 44.6968 82.164 44.0072 82.2946C43.8554 82.3234 43.6439 82.3785 43.4779 82.4174C43.4721 82.4187 43.4667 82.4204 43.4609 82.4217C43.4519 82.4238 43.44 82.4282 43.4313 82.4301C42.2632 82.7124 41.5129 83.786 41.7544 84.8438C41.9961 85.9019 43.137 86.5453 44.3121 86.292C44.3206 86.2901 44.3329 86.2897 44.3417 86.2878C44.355 86.2847 44.3667 86.2783 44.3798 86.2751C44.5436 86.2391 44.7489 86.1991 44.8922 86.1607C45.5702 85.9792 46.0612 85.7125 46.6707 85.479C47.9819 85.0087 49.068 84.6158 50.126 84.4627C50.5679 84.4281 51.0335 84.7354 51.2651 84.865L52.1289 84.7168C54.1168 90.8799 58.2827 95.8613 63.5578 98.987L63.1979 99.8508C63.3276 100.186 63.4707 100.64 63.3741 100.971C62.9894 101.969 62.3306 103.022 61.5803 104.195C61.217 104.738 60.8453 105.159 60.5175 105.779C60.439 105.928 60.3391 106.156 60.2634 106.313C59.7541 107.402 60.1277 108.658 61.106 109.129C62.0906 109.603 63.3127 109.103 63.8415 108.011C63.8423 108.009 63.845 108.008 63.8458 108.006C63.8463 108.005 63.8452 108.003 63.8458 108.002C63.9211 107.847 64.0278 107.644 64.0914 107.498C64.3721 106.855 64.4656 106.304 64.663 105.682C65.1874 104.365 65.4754 102.983 66.1973 102.121C66.3949 101.886 66.7172 101.795 67.0513 101.706L67.5001 100.893C72.0989 102.658 77.2464 103.131 82.3886 101.964C83.5616 101.698 84.6941 101.353 85.7889 100.939C85.915 101.163 86.1495 101.593 86.2123 101.701C86.5518 101.812 86.9224 101.869 87.2244 102.315C87.7644 103.238 88.1337 104.329 88.5836 105.648C88.7811 106.27 88.8787 106.821 89.1595 107.464C89.2235 107.611 89.3297 107.817 89.4051 107.973C89.9329 109.068 91.1588 109.57 92.1448 109.095C93.1231 108.623 93.4971 107.368 92.9875 106.279C92.9118 106.122 92.8076 105.894 92.7292 105.745C92.4013 105.125 92.0296 104.708 91.6663 104.166C90.916 102.992 90.2937 102.017 89.909 101.02C89.7482 100.505 89.9362 100.185 90.0615 99.8508C89.9864 99.7648 89.8258 99.279 89.7312 99.0505C95.2133 95.8136 99.2569 90.6464 101.156 84.6787C101.412 84.719 101.858 84.7978 102.003 84.8269C102.301 84.6303 102.575 84.3738 103.112 84.4161C104.17 84.5692 105.256 84.9622 106.567 85.4324C107.177 85.6659 107.668 85.9369 108.346 86.1184C108.489 86.1568 108.695 86.1926 108.858 86.2285C108.872 86.2317 108.883 86.2382 108.896 86.2412C108.905 86.2432 108.918 86.2435 108.926 86.2454C110.101 86.4984 111.242 85.8554 111.484 84.7972C111.725 83.7394 110.975 82.6655 109.807 82.3836C109.637 82.3449 109.396 82.2793 109.231 82.2481C108.541 82.1175 107.98 82.1497 107.33 82.0956C105.944 81.9505 104.797 81.8324 103.777 81.5113C103.361 81.35 103.065 80.8553 102.922 80.6517L102.121 80.4188C102.536 77.4168 102.424 74.2925 101.706 71.1664C100.982 68.0113 99.7008 65.1256 97.9926 62.5831C98.1979 62.3965 98.5856 62.0532 98.6956 61.9522C98.7277 61.5966 98.7001 61.2238 99.0682 60.83C99.8475 60.0982 100.83 59.4914 102.015 58.7594C102.578 58.4284 103.098 58.2151 103.663 57.7981C103.79 57.7039 103.965 57.5546 104.099 57.4467C105.049 56.6884 105.268 55.3805 104.586 54.5249C103.903 53.6693 102.581 53.5887 101.63 54.347C101.495 54.4542 101.311 54.594 101.19 54.6985C100.658 55.1562 100.329 55.6083 99.8812 56.0832C98.9039 57.0759 98.0961 57.904 97.2093 58.5011C96.825 58.7248 96.2621 58.6474 96.0067 58.6323L95.2529 59.1701C90.9549 54.6632 85.1031 51.7817 78.802 51.222C78.7844 50.9579 78.7613 50.4806 78.7554 50.337C78.4974 50.0901 78.1858 49.8794 78.1075 49.3461C78.0213 48.2805 78.1652 47.1341 78.3319 45.751C78.424 45.1048 78.5769 44.568 78.603 43.8667C78.6089 43.7072 78.5994 43.4759 78.5987 43.3035C78.5986 42.0875 77.7114 41.1015 76.617 41.1016H76.617ZM74.1356 56.4727L73.547 66.8684L73.5046 66.8896C73.4652 67.8196 72.6997 68.5622 71.76 68.5622C71.3751 68.5622 71.0198 68.4386 70.731 68.2277L70.7141 68.2362L62.1901 62.1935C64.8099 59.6175 68.1608 57.7137 72.0226 56.8369C72.728 56.6767 73.4331 56.5579 74.1356 56.4727ZM79.1026 56.4727C83.6113 57.0273 87.781 59.0688 90.9761 62.1978L82.5072 68.2023L82.4775 68.1896C81.7258 68.7386 80.6667 68.6024 80.0808 67.8678C79.8408 67.5668 79.7148 67.2129 79.6997 66.8557L79.6912 66.8515L79.1026 56.4727ZM59.0989 66.0766L66.8819 73.0381L66.8734 73.0804C67.5759 73.6911 67.6795 74.7509 67.0936 75.4856C66.8536 75.7866 66.5324 75.9884 66.1874 76.0827L66.179 76.1165L56.2025 78.996C55.6947 74.3529 56.7891 69.8395 59.0989 66.0766ZM94.08 66.0808C95.2364 67.9551 96.1121 70.0486 96.6334 72.3182C97.1485 74.5605 97.2777 76.7989 97.0653 78.9621L87.0381 76.0742L87.0296 76.0318C86.1317 75.7864 85.5798 74.8731 85.7889 73.9569C85.8745 73.5816 86.0737 73.2642 86.3436 73.0296L86.3394 73.0084L94.08 66.0808H94.08ZM75.0206 73.5758H78.2091L80.1909 76.053L79.4795 79.1442L76.617 80.5204L73.746 79.1399L73.0346 76.0488L75.0206 73.5758ZM85.2426 82.0533C85.3781 82.0464 85.513 82.0586 85.6449 82.0829L85.6618 82.0617L95.9813 83.8063C94.471 88.0494 91.5811 91.7252 87.7198 94.1851L83.714 84.5093L83.7267 84.4923C83.3587 83.6373 83.7269 82.6346 84.5736 82.2269C84.7903 82.1225 85.0168 82.0647 85.2426 82.0533H85.2426ZM67.9109 82.0956C68.6984 82.1067 69.4048 82.6532 69.5877 83.4549C69.6734 83.8302 69.6317 84.202 69.4903 84.5304L69.52 84.5686L65.5565 94.147C61.8509 91.7691 58.8993 88.2087 57.3204 83.8402L67.5509 82.1041L67.5679 82.1253C67.6823 82.1042 67.7984 82.094 67.9109 82.0956V82.0956ZM76.5535 86.292C76.8278 86.2819 77.1061 86.3382 77.3707 86.4656C77.7175 86.6326 77.9855 86.8956 78.1541 87.2109H78.1922L83.2355 96.3235C82.581 96.5429 81.9081 96.7304 81.2199 96.8867C77.3628 97.7624 73.518 97.4971 70.0366 96.3108L75.0672 87.2151H75.0756C75.3775 86.6508 75.95 86.3142 76.5535 86.292Z" fill="#326CE5" stroke="#326CE5" strokeWidth="0.25"/>
  </svg>