<?xml version="1.0" encoding="UTF-8"?><!DOCTYPE svg>
  <svg width="32" height="32" viewBox="0 0 120 120" fill="none" xmlns="http://www.w3.org/2000/svg">
  <rect x="2.5" y="2.5" width="115" height="115" rx="22.5" fill="#326CE5" stroke="#326CE5" strokeWidth="5"/>
    <path d="M59.4312 23.2065C58.7577 23.2405 58.0977 23.4075 57.4901 23.6977L31.0026 36.3538C30.317 36.6812 29.7146 37.1575 29.2402 37.7475C28.7657 38.3375 28.4314 39.0259 28.262 39.7617L21.7274 68.1903C21.5765 68.8453 21.5596 69.5237 21.6777 70.1853C21.7958 70.8469 22.0465 71.4782 22.415 72.042C22.5044 72.1798 22.6005 72.3132 22.703 72.4417L41.0366 95.2368C41.5112 95.8267 42.1136 96.3029 42.7992 96.6301C43.4848 96.9574 44.2359 97.1273 44.9967 97.1271L74.3976 97.1203C75.1582 97.1209 75.9091 96.9516 76.5946 96.6249C77.2802 96.2982 77.8828 95.8227 78.3577 95.2334L96.6845 72.435C97.1593 71.8448 97.4939 71.1562 97.6634 70.4201C97.8329 69.6841 97.833 68.9196 97.6635 68.1835L91.1187 39.7549C90.9493 39.0192 90.615 38.3307 90.1406 37.7408C89.6661 37.1508 89.0637 36.6744 88.3782 36.347L61.8872 23.6977C61.1229 23.3326 60.2784 23.1637 59.4312 23.2065V23.2065Z" fill="white"/>
    <path d="M59.6935 32.8812C58.818 32.8813 58.108 33.67 58.1081 34.6428C58.1081 34.6577 58.1112 34.672 58.1115 34.6868C58.1102 34.819 58.1039 34.9782 58.1081 35.0933C58.129 35.6544 58.2513 36.0839 58.325 36.6008C58.4583 37.7072 58.5701 38.6244 58.5011 39.4769C58.434 39.7983 58.1973 40.0923 57.9862 40.2967L57.9489 40.9674C56.9975 41.0462 56.0397 41.1906 55.083 41.4078C50.9665 42.3425 47.4222 44.4629 44.7238 47.3259C44.5487 47.2065 44.2424 46.9867 44.1513 46.9194C43.8682 46.9576 43.5821 47.045 43.2095 46.8279C42.5 46.3503 41.8538 45.6911 41.072 44.897C40.7137 44.5171 40.4542 44.1554 40.0286 43.7893C39.9319 43.7061 39.7844 43.5936 39.6763 43.5081C39.3435 43.2428 38.951 43.1044 38.5719 43.0914C38.0845 43.0747 37.6154 43.2653 37.3083 43.6504C36.7625 44.335 36.9373 45.3814 37.6979 45.9878C37.7056 45.994 37.7139 45.9987 37.7216 46.0047C37.8262 46.0895 37.9541 46.198 38.0502 46.269C38.5019 46.6025 38.9145 46.7732 39.3646 47.038C40.3128 47.6235 41.0989 48.1091 41.7224 48.6945C41.9658 48.954 42.0084 49.4114 42.0408 49.6091L42.5489 50.0631C39.8287 54.1568 38.5698 59.2133 39.3138 64.3655L38.6498 64.5586C38.4748 64.7845 38.2276 65.1401 37.9689 65.2463C37.1532 65.5032 36.2351 65.5975 35.1267 65.7137C34.6064 65.757 34.1574 65.7312 33.6057 65.8357C33.4843 65.8587 33.3151 65.9028 33.1823 65.9339C33.1776 65.9349 33.1733 65.9363 33.1687 65.9373C33.1615 65.939 33.152 65.9425 33.145 65.9441C32.2105 66.1699 31.6103 67.0288 31.8035 67.875C31.9968 68.7215 32.9096 69.2362 33.8496 69.0336C33.8564 69.032 33.8663 69.0318 33.8733 69.0302C33.8839 69.0278 33.8933 69.0226 33.9038 69.02C34.0349 68.9913 34.1991 68.9593 34.3137 68.9286C34.8561 68.7833 35.2489 68.57 35.7365 68.3832C36.7855 68.0069 37.6543 67.6926 38.5008 67.5701C38.8543 67.5425 39.2268 67.7883 39.412 67.892L40.1031 67.7734C41.6934 72.7039 45.0261 76.689 49.2462 79.1896L48.9583 79.8806C49.062 80.149 49.1765 80.5121 49.0992 80.7771C48.7915 81.575 48.2644 82.4173 47.6642 83.3563C47.3736 83.7901 47.0762 84.1268 46.8139 84.6233C46.7512 84.7421 46.6712 84.9246 46.6107 85.0501C46.2032 85.9219 46.5021 86.926 47.2848 87.3028C48.0724 87.682 49.0501 87.2821 49.4732 86.4085C49.4738 86.4073 49.476 86.4064 49.4766 86.4051C49.477 86.4042 49.4761 86.4027 49.4766 86.4018C49.5368 86.2779 49.6222 86.1151 49.673 85.9986C49.8977 85.484 49.9724 85.0431 50.1304 84.5454C50.5498 83.4917 50.7803 82.3861 51.3578 81.6972C51.5159 81.5085 51.7737 81.436 52.041 81.3644L52.4 80.714C56.079 82.1261 60.1971 82.5051 64.3108 81.5711C65.2492 81.358 66.1552 81.0822 67.031 80.7513C67.132 80.9303 67.3195 81.2744 67.3698 81.361C67.6414 81.4494 67.9379 81.495 68.1794 81.8522C68.6115 82.5903 68.9069 83.4635 69.2668 84.5183C69.4248 85.0159 69.5029 85.457 69.7276 85.9715C69.7788 86.0888 69.8637 86.2539 69.924 86.378C70.3463 87.2545 71.327 87.6558 72.1158 87.2758C72.8984 86.8987 73.1976 85.8947 72.7899 85.023C72.7294 84.8975 72.6461 84.715 72.5833 84.5962C72.321 84.0997 72.0236 83.7664 71.733 83.3326C71.1328 82.3936 70.6349 81.6136 70.3272 80.8156C70.1985 80.4041 70.3489 80.1481 70.4491 79.8806C70.3891 79.8118 70.2606 79.4232 70.1849 79.2404C74.5706 76.6508 77.8055 72.5171 79.3246 67.7429C79.5297 67.7752 79.8863 67.8382 80.0021 67.8615C80.2406 67.7042 80.4598 67.499 80.8897 67.5329C81.7361 67.6553 82.6049 67.9697 83.6539 68.3459C84.1416 68.5327 84.5343 68.7495 85.0767 68.8947C85.1914 68.9254 85.3556 68.954 85.4866 68.9828C85.4972 68.9854 85.5065 68.9905 85.5171 68.9929C85.5242 68.9945 85.534 68.9948 85.5408 68.9963C86.4809 69.1987 87.3939 68.6843 87.5869 67.8378C87.78 66.9915 87.18 66.1324 86.2454 65.9068C86.1095 65.8759 85.9167 65.8234 85.7847 65.7984C85.2331 65.694 84.7841 65.7197 84.2637 65.6765C83.1553 65.5603 82.2373 65.4659 81.4215 65.209C81.0889 65.08 80.8523 64.6842 80.7372 64.5213L80.097 64.335C80.4289 61.9334 80.3394 59.434 79.765 56.9331C79.1852 54.409 78.1606 52.1004 76.7941 50.0665C76.9583 49.9172 77.2685 49.6425 77.3564 49.5617C77.3821 49.2772 77.36 48.979 77.6545 48.664C78.278 48.0786 79.0641 47.5931 80.0123 47.0075C80.4623 46.7427 80.8784 46.572 81.3301 46.2385C81.4322 46.1631 81.5717 46.0436 81.679 45.9573C82.4395 45.3507 82.6146 44.3044 82.0685 43.6199C81.5225 42.9354 80.4645 42.8709 79.704 43.4776C79.5958 43.5633 79.4489 43.6752 79.3517 43.7588C78.9261 44.125 78.6632 44.4866 78.3049 44.8665C77.5231 45.6607 76.8768 46.3232 76.1674 46.8008C75.8599 46.9798 75.4096 46.9179 75.2053 46.9058L74.6023 47.3361C71.1639 43.7305 66.4824 41.4254 61.4415 40.9776C61.4274 40.7663 61.409 40.3845 61.4043 40.2696C61.1979 40.0721 60.9486 39.9035 60.886 39.4769C60.817 38.6244 60.9321 37.7072 61.0655 36.6008C61.1391 36.0839 61.2614 35.6544 61.2823 35.0933C61.2871 34.9658 61.2794 34.7807 61.2789 34.6428C61.2788 33.67 60.5691 32.8811 59.6935 32.8812H59.6935ZM57.7084 45.1782L57.2375 53.4947L57.2037 53.5116C57.1721 54.2556 56.5597 54.8497 55.808 54.8497C55.5 54.8497 55.2158 54.7508 54.9848 54.5821L54.9712 54.5889L48.152 49.7548C50.2478 47.6939 52.9286 46.171 56.018 45.4695C56.5823 45.3414 57.1464 45.2463 57.7084 45.1782ZM61.6821 45.1782C65.289 45.6218 68.6247 47.255 71.1809 49.7582L64.4057 54.5618L64.382 54.5516C63.7806 54.9909 62.9333 54.8819 62.4646 54.2942C62.2726 54.0534 62.1718 53.7703 62.1597 53.4845L62.1529 53.4812L61.6821 45.1782ZM45.6791 52.8612L51.9055 58.4304L51.8987 58.4643C52.4607 58.9529 52.5436 59.8007 52.0748 60.3884C51.8828 60.6292 51.6258 60.7907 51.3499 60.8661L51.3431 60.8932L43.362 63.1968C42.9558 59.4823 43.8312 55.8716 45.6791 52.8612ZM73.664 52.8646C74.5891 54.3641 75.2896 56.0389 75.7067 57.8545C76.1187 59.6484 76.2221 61.4391 76.0522 63.1697L68.0304 60.8593L68.0236 60.8254C67.3053 60.6291 66.8638 59.8984 67.0311 59.1655C67.0996 58.8653 67.2589 58.6113 67.4748 58.4236L67.4714 58.4067L73.664 52.8646H73.664ZM58.4164 58.8606H60.9673L62.5527 60.8424L61.9835 63.3153L59.6935 64.4163L57.3968 63.3119L56.8276 60.839L58.4164 58.8606ZM66.5941 65.6426C66.7025 65.6371 66.8104 65.6469 66.9159 65.6663L66.9294 65.6494L75.185 67.0451C73.9768 70.4395 71.6648 73.3801 68.5758 75.348L65.3711 67.6074L65.3813 67.5938C65.0869 66.9098 65.3815 66.1077 66.0588 65.7815C66.2322 65.698 66.4134 65.6517 66.594 65.6426H66.5941ZM52.7287 65.6765C53.3587 65.6853 53.9238 66.1226 54.0701 66.7639C54.1387 67.0641 54.1053 67.3616 53.9922 67.6243L54.0159 67.6548L50.8452 75.3175C47.8806 73.4152 45.5194 70.5669 44.2563 67.0722L52.4407 65.6832L52.4543 65.7002C52.5458 65.6833 52.6387 65.6752 52.7287 65.6765V65.6765ZM59.6427 69.0336C59.8622 69.0255 60.0849 69.0705 60.2965 69.1725C60.574 69.3061 60.7883 69.5164 60.9232 69.7687H60.9537L64.9883 77.0588C64.4647 77.2343 63.9264 77.3843 63.3758 77.5093C60.2902 78.2099 57.2144 77.9976 54.4292 77.0486L58.4537 69.7721H58.4605C58.7019 69.3206 59.1599 69.0513 59.6427 69.0336Z" fill="#326CE5" stroke="#326CE5" strokeWidth="0.25"/>
</svg>