<?xml version="1.0" encoding="UTF-8"?><!DOCTYPE svg>
<svg xmlns="http://www.w3.org/2000/svg" width="32" height="32" viewBox="0 0 130 152" fill="none">
  <path d="M125.396 32.4864C125.382 30.0755 124.233 28.2958 122.053 27.2877C120.474 26.56 118.855 25.923 117.244 25.2421L96.2259 16.4752C86.7146 12.5126 77.2063 8.54707 67.7008 4.57862C65.9825 3.85681 64.3194 3.77791 62.575 4.52602C58.3737 6.32322 54.1433 8.05613 49.9275 9.81534L30.1132 18.0766C22.9415 21.069 15.7785 24.0595 8.62418 27.048C6.05108 28.1205 4.76307 30.0025 4.76017 32.7962C4.76017 39.3216 4.78343 45.8471 4.76017 52.3754C4.71656 60.5081 4.71946 68.635 6.2139 76.68C6.96142 80.8172 7.9714 84.9022 9.23765 88.9098C13.3778 101.888 20.2759 113.807 29.4542 123.84C38.6324 133.873 49.8712 141.78 62.3918 147.013C63.9415 147.668 65.5057 147.937 67.1135 147.274C75.2393 143.962 82.8579 139.511 89.7423 134.053C97.228 128.123 103.769 121.079 109.141 113.165C116.715 102.031 121.8 89.3808 124.047 76.0839C124.771 72.009 125.198 67.8863 125.324 63.7489C125.434 58.7606 125.35 53.7664 125.35 48.7752H125.396C125.396 43.3456 125.425 37.916 125.396 32.4864Z" fill="#326CE5" stroke="#326CE5" stroke-width="8" stroke-miterlimit="10"/>
  <path d="M86.7501 61.3333H83.2084V54.25C83.2084 44.475 75.2751 36.5416 65.5001 36.5416C55.7251 36.5416 47.7917 44.475 47.7917 54.25V61.3333H44.2501C40.3542 61.3333 37.1667 64.5208 37.1667 68.4166V103.833C37.1667 107.729 40.3542 110.917 44.2501 110.917H86.7501C90.6459 110.917 93.8334 107.729 93.8334 103.833V68.4166C93.8334 64.5208 90.6459 61.3333 86.7501 61.3333ZM65.5001 93.2083C61.6042 93.2083 58.4167 90.0208 58.4167 86.125C58.4167 82.2291 61.6042 79.0416 65.5001 79.0416C69.3959 79.0416 72.5834 82.2291 72.5834 86.125C72.5834 90.0208 69.3959 93.2083 65.5001 93.2083ZM76.4793 61.3333H54.5209V54.25C54.5209 48.1937 59.4438 43.2708 65.5001 43.2708C71.5563 43.2708 76.4793 48.1937 76.4793 54.25V61.3333Z" fill="white"/>
</svg>