<?xml version="1.0" encoding="UTF-8"?><!DOCTYPE svg>
<svg width="32" height="32" viewBox="0 0 96 93" fill="none" xmlns="http://www.w3.org/2000/svg">
<path d="M47.368 0.00814539C46.5261 0.0505579 45.7011 0.259307 44.9416 0.622146L11.8322 16.4422C10.9752 16.8514 10.2223 17.4469 9.62921 18.1844C9.03615 18.9219 8.61823 19.7824 8.40649 20.7021L0.23817 56.2379C0.0495515 57.0566 0.0284425 57.9046 0.176092 58.7316C0.323742 59.5586 0.637151 60.3478 1.09777 61.0525C1.20946 61.2248 1.32958 61.3915 1.4577 61.5522L24.3747 90.046C24.9679 90.7833 25.721 91.3786 26.578 91.7877C27.4349 92.1967 28.3738 92.4091 29.3249 92.4089L66.076 92.4004C67.0267 92.4011 67.9653 92.1894 68.8223 91.7811C69.6792 91.3728 70.4325 90.7783 71.0261 90.0418L93.9346 61.5437C94.5282 60.806 94.9464 59.9452 95.1582 59.0251C95.3701 58.1051 95.3702 57.1495 95.1584 56.2294L86.9774 20.6936C86.7657 19.7739 86.3477 18.9134 85.7547 18.1759C85.1616 17.4385 84.4086 16.843 83.5517 16.4337L50.438 0.622146C49.4827 0.165723 48.427 -0.0454025 47.368 0.00814539Z" fill="white"/>
<path d="M47.6961 12.1016C46.6016 12.1017 45.7142 13.0875 45.7143 14.3035C45.7143 14.3222 45.7182 14.34 45.7186 14.3585C45.717 14.5238 45.709 14.7228 45.7143 14.8667C45.7404 15.568 45.8933 16.1048 45.9854 16.751C46.1521 18.1341 46.2917 19.2805 46.2055 20.3461C46.1217 20.7479 45.8257 21.1154 45.5619 21.3709L45.5153 22.2093C44.326 22.3078 43.1288 22.4882 41.9329 22.7598C36.7873 23.9281 32.3569 26.5787 28.9839 30.1574C28.765 30.0081 28.3821 29.7334 28.2683 29.6493C27.9144 29.6971 27.5568 29.8062 27.0911 29.5349C26.2042 28.938 25.3965 28.1139 24.4191 27.1213C23.9713 26.6465 23.647 26.1943 23.1149 25.7366C22.994 25.6327 22.8096 25.4921 22.6745 25.3851C22.2585 25.0535 21.7679 24.8805 21.2941 24.8643C20.6848 24.8434 20.0984 25.0816 19.7146 25.563C19.0323 26.4188 19.2507 27.7267 20.2016 28.4848C20.2112 28.4925 20.2215 28.4984 20.2312 28.506C20.3619 28.6119 20.5218 28.7476 20.6419 28.8363C21.2066 29.2531 21.7223 29.4665 22.2849 29.7975C23.4702 30.5294 24.4528 31.1364 25.2321 31.8681C25.5365 32.1926 25.5897 32.7642 25.6302 33.0115L26.2653 33.5789C22.8651 38.696 21.2914 45.0167 22.2214 51.4569L21.3915 51.6982C21.1727 51.9807 20.8636 52.4252 20.5403 52.5578C19.5206 52.879 18.373 52.997 16.9876 53.1422C16.3371 53.1963 15.7759 53.164 15.0863 53.2946C14.9345 53.3234 14.723 53.3785 14.557 53.4174C14.5512 53.4187 14.5458 53.4204 14.54 53.4217C14.531 53.4238 14.5191 53.4282 14.5104 53.4301C13.3423 53.7124 12.592 54.786 12.8335 55.8438C13.0752 56.9019 14.2161 57.5453 15.3912 57.292C15.3997 57.2901 15.412 57.2897 15.4208 57.2878C15.4341 57.2847 15.4458 57.2783 15.4589 57.2751C15.6227 57.2391 15.828 57.1991 15.9713 57.1607C16.6493 56.9792 17.1403 56.7125 17.7498 56.479C19.061 56.0087 20.1471 55.6158 21.2051 55.4627C21.647 55.4281 22.1126 55.7354 22.3442 55.865L23.208 55.7168C25.1959 61.8799 29.3618 66.8613 34.6369 69.987L34.277 70.8508C34.4067 71.1863 34.5498 71.6401 34.4532 71.9714C34.0685 72.9688 33.4097 74.0217 32.6594 75.1954C32.2961 75.7377 31.9244 76.1585 31.5966 76.7791C31.5181 76.9276 31.4182 77.1557 31.3425 77.3127C30.8332 78.4024 31.2068 79.6576 32.1852 80.1286C33.1697 80.6026 34.3918 80.1027 34.9206 79.0107C34.9214 79.0091 34.9241 79.008 34.9249 79.0065C34.9254 79.0052 34.9243 79.0034 34.9249 79.0022C35.0002 78.8474 35.1069 78.6439 35.1705 78.4983C35.4512 77.8551 35.5447 77.3038 35.7421 76.6817C36.2665 75.3646 36.5545 73.9826 37.2764 73.1215C37.474 72.8857 37.7963 72.795 38.1304 72.7055L38.5792 71.8925C43.178 73.6577 48.3255 74.1314 53.4677 72.9639C54.6407 72.6975 55.7732 72.3528 56.868 71.9391C56.9941 72.1629 57.2286 72.593 57.2914 72.7013C57.6309 72.8118 58.0015 72.8688 58.3035 73.3153C58.8435 74.238 59.2128 75.3295 59.6627 76.6479C59.8602 77.27 59.9578 77.8212 60.2386 78.4644C60.3026 78.6111 60.4088 78.8174 60.4842 78.9726C61.012 80.0681 62.2379 80.5697 63.2239 80.0947C64.2022 79.6235 64.5762 78.3684 64.0666 77.2788C63.9909 77.1219 63.8867 76.8937 63.8083 76.7452C63.4804 76.1247 63.1087 75.708 62.7454 75.1658C61.9951 73.9921 61.3728 73.017 60.9881 72.0196C60.8273 71.5051 61.0153 71.1852 61.1406 70.8508C61.0655 70.7648 60.9049 70.279 60.8103 70.0505C66.2924 66.8136 70.336 61.6464 72.2349 55.6787C72.4913 55.719 72.937 55.7978 73.0818 55.8269C73.3799 55.6303 73.6539 55.3738 74.1912 55.4161C75.2493 55.5692 76.3353 55.9622 77.6466 56.4324C78.2561 56.6659 78.7471 56.9369 79.4251 57.1184C79.5684 57.1568 79.7736 57.1926 79.9374 57.2285C79.9506 57.2317 79.9623 57.2382 79.9756 57.2412C79.9844 57.2432 79.9967 57.2435 80.0052 57.2454C81.1803 57.4984 82.3215 56.8554 82.5628 55.7972C82.8041 54.7394 82.0541 53.6655 80.886 53.3836C80.7161 53.3449 80.4751 53.2793 80.3101 53.2481C79.6205 53.1175 79.0593 53.1497 78.4088 53.0956C77.0233 52.9505 75.8758 52.8324 74.8561 52.5113C74.4403 52.35 74.1445 51.8553 74.0007 51.6517L73.2004 51.4188C73.6153 48.4168 73.5034 45.2925 72.7854 42.1664C72.0607 39.0113 70.7799 36.1256 69.0717 33.5831C69.277 33.3965 69.6647 33.0532 69.7747 32.9522C69.8068 32.5966 69.7792 32.2238 70.1473 31.83C70.9266 31.0982 71.9093 30.4914 73.0945 29.7594C73.6571 29.4284 74.1771 29.2151 74.7417 28.7981C74.8694 28.7039 75.0438 28.5546 75.1779 28.4467C76.1285 27.6884 76.3474 26.3805 75.6648 25.5249C74.9823 24.6693 73.6598 24.5887 72.7092 25.347C72.5739 25.4542 72.3903 25.594 72.2688 25.6985C71.7367 26.1562 71.4081 26.6083 70.9603 27.0832C69.983 28.0759 69.1752 28.904 68.2884 29.5011C67.9041 29.7248 67.3412 29.6474 67.0858 29.6323L66.332 30.1701C62.034 25.6632 56.1822 22.7817 49.8811 22.222C49.8635 21.9579 49.8404 21.4806 49.8345 21.337C49.5765 21.0901 49.2649 20.8794 49.1866 20.3461C49.1004 19.2805 49.2443 18.1341 49.411 16.751C49.5031 16.1048 49.656 15.568 49.6821 14.8667C49.688 14.7072 49.6785 14.4759 49.6778 14.3035C49.6777 13.0875 48.7905 12.1015 47.6961 12.1016H47.6961ZM45.2147 27.4727L44.6261 37.8684L44.5837 37.8896C44.5443 38.8196 43.7788 39.5622 42.8391 39.5622C42.4542 39.5622 42.0989 39.4386 41.8101 39.2277L41.7932 39.2362L33.2692 33.1935C35.889 30.6175 39.2399 28.7137 43.1017 27.8369C43.8071 27.6767 44.5122 27.5579 45.2147 27.4727ZM50.1817 27.4727C54.6904 28.0273 58.8601 30.0688 62.0552 33.1978L53.5863 39.2023L53.5566 39.1896C52.8049 39.7386 51.7458 39.6024 51.1599 38.8678C50.9199 38.5668 50.7939 38.2129 50.7788 37.8557L50.7703 37.8515L50.1817 27.4727ZM30.178 37.0766L37.961 44.0381L37.9525 44.0804C38.655 44.6911 38.7586 45.7509 38.1727 46.4856C37.9327 46.7866 37.6115 46.9884 37.2665 47.0827L37.2581 47.1165L27.2816 49.996C26.7739 45.3529 27.8682 40.8395 30.178 37.0766ZM65.1591 37.0808C66.3155 38.9552 67.1912 41.0486 67.7125 43.3182C68.2276 45.5605 68.3568 47.7989 68.1444 49.9621L58.1172 47.0742L58.1087 47.0318C57.2108 46.7864 56.6589 45.8731 56.868 44.9569C56.9536 44.5816 57.1528 44.2642 57.4227 44.0296L57.4185 44.0084L65.1591 37.0808H65.1591ZM46.0997 44.5758H49.2882L51.27 47.053L50.5586 50.1442L47.6961 51.5204L44.8251 50.1399L44.1137 47.0488L46.0997 44.5758ZM56.3217 53.0533C56.4572 53.0464 56.5921 53.0586 56.724 53.0829L56.7409 53.0617L67.0604 54.8063C65.5501 59.0494 62.6602 62.7252 58.7989 65.1851L54.7931 55.5093L54.8058 55.4923C54.4378 54.6373 54.806 53.6346 55.6527 53.2269C55.8694 53.1225 56.0959 53.0647 56.3217 53.0533H56.3217ZM38.99 53.0956C39.7775 53.1067 40.4839 53.6532 40.6668 54.4549C40.7525 54.8302 40.7108 55.202 40.5694 55.5304L40.5991 55.5686L36.6356 65.147C32.93 62.7691 29.9784 59.2087 28.3995 54.8402L38.63 53.1041L38.647 53.1253C38.7614 53.1042 38.8775 53.094 38.99 53.0956V53.0956ZM47.6326 57.292C47.9069 57.2819 48.1852 57.3382 48.4498 57.4656C48.7966 57.6326 49.0646 57.8956 49.2332 58.2109H49.2713L54.3146 67.3235C53.6601 67.5429 52.9872 67.7304 52.299 67.8867C48.4419 68.7624 44.5971 68.4971 41.1157 67.3108L46.1463 58.2151H46.1547C46.4566 57.6508 47.0291 57.3142 47.6326 57.292Z" fill="#326CE5" stroke="#326CE5" stroke-width="0.25"/>
</svg>