<svg  viewBox="0 0 149 136" fill="none" xmlns="http://www.w3.org/2000/svg">
    <path d="M97.0288 15.75C86.8289 -1.91667 61.3293 -1.91668 51.1294 15.75L6.09611 93.75C-4.10375 111.417 8.64606 133.5 29.0458 133.5H119.112C139.512 133.5 152.262 111.417 142.062 93.75L97.0288 15.75Z" fill="#326CE5" stroke="#326CE5" strokeWidth="5"/>
    <path d="M83.2746 87.0828C83.1532 87.0599 83.0293 87.051 82.9056 87.0561C82.692 87.0669 82.4828 87.1185 82.2906 87.2078C81.9177 87.3789 81.6286 87.6801 81.4837 88.0487C81.3387 88.4172 81.349 88.8247 81.5125 89.1862L81.5013 89.2014L85.1817 97.6494C88.7029 95.5146 91.3748 92.3257 92.7751 88.5868L83.291 87.0639L83.2746 87.0828ZM68.5177 88.2801C68.4379 87.947 68.2428 87.6491 67.9636 87.4339C67.6844 87.2188 67.3373 87.0989 66.9778 87.0934C66.8717 87.0922 66.7657 87.1011 66.6615 87.1201L66.6455 87.1016L57.2439 88.6179C58.6557 92.3274 61.3165 95.4905 64.8135 97.6166L68.4568 89.2523L68.4283 89.2195C68.5629 88.9234 68.5942 88.5942 68.5177 88.2801ZM76.3916 91.5604C76.2542 91.3171 76.05 91.1139 75.8006 90.9723C75.5513 90.8308 75.2661 90.7562 74.9756 90.7565C74.6852 90.7568 74.4002 90.8321 74.1512 90.9743C73.9022 91.1164 73.6985 91.3201 73.5618 91.5636H73.554L68.9307 99.5069C72.241 100.578 75.7998 100.752 79.2084 100.009C79.8405 99.8725 80.4579 99.7086 81.0607 99.5175L76.4265 91.5599L76.3916 91.5604ZM91.0277 73.1087L83.9142 79.158L83.9181 79.1773C83.6995 79.3588 83.5368 79.5932 83.4471 79.8555C83.3575 80.1178 83.3443 80.3983 83.4089 80.6671C83.4735 80.936 83.6135 81.1833 83.8141 81.3826C84.0147 81.582 84.2684 81.726 84.5482 81.7995L84.5568 81.8359L93.7707 84.3577C94.169 80.4246 93.2059 76.4754 91.0277 73.1096V73.1087ZM77.8118 73.7865C77.8252 74.062 77.9169 74.329 78.0771 74.559C78.2373 74.789 78.4601 74.9735 78.7217 75.0929C78.9834 75.2123 79.2742 75.2622 79.5633 75.2372C79.8524 75.2122 80.129 75.1133 80.3637 74.951L80.3918 74.9625L88.1755 69.7186C85.2126 66.9613 81.3783 65.2051 77.2625 64.7202L77.8032 73.7841L77.8118 73.7865ZM69.5689 74.9846C69.8037 75.1468 70.0804 75.2455 70.3696 75.2701C70.6587 75.2947 70.9494 75.2444 71.2109 75.1245C71.4723 75.0046 71.6946 74.8196 71.8542 74.5892C72.0137 74.3588 72.1045 74.0916 72.1169 73.816L72.1566 73.798L72.6974 64.7202C72.0446 64.7946 71.3963 64.9007 70.7549 65.038C67.3429 65.7667 64.2133 67.387 61.7192 69.7161L69.5538 74.9928L69.5689 74.9846ZM65.3922 81.8437C65.6727 81.771 65.9271 81.6274 66.1283 81.4281C66.3295 81.2288 66.47 80.9813 66.5348 80.7121C66.5996 80.4428 66.5862 80.1619 66.4961 79.8994C66.406 79.6368 66.2426 79.4024 66.0232 79.2211L66.031 79.1855L58.8782 73.1067C56.696 76.4813 55.7594 80.4504 56.2163 84.3872L65.3849 81.8737L65.3922 81.8437ZM72.3396 84.5139L74.9782 85.7194L77.609 84.5168L78.2624 81.8179L76.4416 79.6545H73.5113L71.6853 81.8146L72.3396 84.5139Z" fill="white"/>
    <path d="M118.598 89.8308L111.08 58.8013C110.877 57.9986 110.49 57.2485 109.946 56.6052C109.402 55.9618 108.714 55.4413 107.932 55.0811L77.4978 41.2752C76.709 40.9175 75.846 40.7319 74.972 40.7319C74.098 40.7319 73.2351 40.9175 72.4463 41.2752L42.0179 55.0885C41.236 55.4484 40.548 55.9688 40.0036 56.6121C39.4591 57.2554 39.0718 58.0055 38.8696 58.8083L31.3629 89.837C31.1778 90.6213 31.1772 91.4348 31.3612 92.2193C31.4154 92.4583 31.4862 92.6936 31.5731 92.9237C31.72 93.3164 31.9145 93.6915 32.1527 94.0415C32.2558 94.1912 32.3646 94.3367 32.4828 94.4778L53.545 119.358C53.6369 119.466 53.7383 119.565 53.8389 119.665C54.1694 120 54.5425 120.294 54.9497 120.54C55.4647 120.848 56.026 121.08 56.6143 121.228C57.0967 121.353 57.5944 121.419 58.0946 121.422H58.4221L91.8702 121.414C92.0736 121.413 92.2767 121.402 92.4787 121.38C92.7685 121.349 93.0555 121.297 93.3371 121.225C93.539 121.175 93.7379 121.114 93.9331 121.044C94.0854 120.989 94.2374 120.933 94.3841 120.866C94.6038 120.767 94.817 120.654 95.0224 120.529C95.5523 120.213 96.0242 119.816 96.4193 119.355L97.0615 118.596L117.474 94.4696C117.865 94.0034 118.173 93.479 118.384 92.9176C118.472 92.6867 118.544 92.4506 118.6 92.2107C118.784 91.4263 118.784 90.6129 118.598 89.8288L118.598 89.8308ZM87.0306 101.899C87.1161 102.138 87.2174 102.371 87.334 102.597C87.1478 102.907 87.0971 103.274 87.1929 103.618C87.6358 104.582 88.1766 105.502 88.8078 106.366C89.1611 106.807 89.4872 107.268 89.7845 107.745C89.8578 107.874 89.9536 108.074 90.0231 108.211C90.1542 108.419 90.238 108.651 90.2691 108.892C90.3002 109.132 90.2779 109.377 90.2037 109.609C90.1295 109.841 90.0049 110.056 89.8381 110.239C89.6713 110.423 89.4658 110.571 89.235 110.675C89.0041 110.779 88.753 110.835 88.4977 110.841C88.2425 110.847 87.9887 110.802 87.7528 110.71C87.5169 110.617 87.3041 110.478 87.1279 110.302C86.9518 110.127 86.8164 109.918 86.7303 109.69C86.6608 109.554 86.5641 109.374 86.505 109.246C86.2969 108.727 86.1204 108.198 85.9763 107.66C85.6605 106.654 85.2419 105.679 84.7265 104.75C84.5023 104.463 84.1686 104.27 83.7969 104.214C83.7386 104.119 83.5229 103.743 83.4072 103.549C77.9894 105.498 72.0058 105.483 66.5986 103.508L66.1864 104.217C65.8922 104.261 65.6187 104.387 65.4014 104.581C64.7803 105.549 64.3055 106.596 63.991 107.69C63.8483 108.227 63.6728 108.757 63.4654 109.276C63.4071 109.403 63.3096 109.581 63.2401 109.716V109.719L63.2371 109.723C63.1511 109.951 63.0157 110.16 62.8395 110.336C62.6632 110.512 62.4502 110.651 62.214 110.744C61.9778 110.837 61.7237 110.881 61.4682 110.875C61.2127 110.869 60.9614 110.812 60.7305 110.708C60.4995 110.604 60.2942 110.455 60.1276 110.271C59.961 110.087 59.8368 109.871 59.7632 109.639C59.6896 109.406 59.6681 109.161 59.7001 108.921C59.7321 108.68 59.8169 108.448 59.949 108.24C60.0176 108.102 60.1095 107.904 60.182 107.774C60.4791 107.296 60.8051 106.834 61.1582 106.391C61.8009 105.505 62.3529 104.562 62.8068 103.576C62.8551 103.242 62.7987 102.901 62.6446 102.597L62.976 101.843C57.991 99.0475 54.2549 94.6156 52.4725 89.3831L51.6789 89.5114C51.371 89.3038 51.008 89.1823 50.6311 89.1608C49.5451 89.3583 48.4819 89.6556 47.4565 90.0486C46.924 90.2761 46.3783 90.4746 45.8221 90.6431C45.6905 90.6776 45.5006 90.712 45.3504 90.7432C45.3383 90.7473 45.328 90.7522 45.3159 90.7551C45.3066 90.7564 45.2972 90.7572 45.2878 90.7575C45.0461 90.8331 44.7904 90.8598 44.5371 90.8361C44.2839 90.8123 44.0386 90.7386 43.817 90.6196C43.5955 90.5006 43.4025 90.339 43.2505 90.1451C43.0985 89.9512 42.9908 89.7292 42.9342 89.4935C42.8777 89.2577 42.8736 89.0133 42.9221 88.776C42.9707 88.5386 43.0709 88.3135 43.2164 88.1151C43.3618 87.9166 43.5492 87.7492 43.7667 87.6236C43.9841 87.4979 44.2267 87.4168 44.4791 87.3854L44.5054 87.3792L44.5214 87.3751C44.6737 87.3411 44.8688 87.2931 45.0078 87.2677C45.5872 87.1913 46.1708 87.1466 46.7556 87.134C47.8586 87.0655 48.9519 86.8949 50.02 86.6248C50.3365 86.4332 50.604 86.1768 50.8028 85.8744L51.5654 85.6628C50.7379 80.2017 52.0616 74.6425 55.2825 70.0515L54.6986 69.557C54.6773 69.1981 54.5505 68.852 54.3326 68.5582C53.4937 67.873 52.5864 67.2674 51.6237 66.7499C51.1038 66.498 50.5996 66.2179 50.1136 65.911C50.0031 65.8326 49.8564 65.715 49.7364 65.6223L49.7092 65.6043C49.2949 65.3215 49.0153 64.8945 48.9313 64.4164C48.8474 63.9384 48.966 63.4482 49.2613 63.053C49.4357 62.8501 49.658 62.6891 49.9102 62.5831C50.1624 62.4771 50.4373 62.4291 50.7126 62.4429C51.1762 62.4618 51.6211 62.6213 51.9823 62.898C52.1061 62.9903 52.2758 63.1137 52.3858 63.2035C52.8098 63.5845 53.2104 63.9884 53.5856 64.4131C54.33 65.1901 55.1524 65.8963 56.0412 66.5215C56.3742 66.6879 56.7626 66.7237 57.1231 66.6211C57.34 66.7715 57.559 66.9194 57.7799 67.0648C60.9806 63.8325 65.1251 61.583 69.6812 60.6051C70.7657 60.3718 71.866 60.211 72.9741 60.1241L73.0173 59.3926C73.3001 59.1538 73.5053 58.8431 73.6085 58.4971C73.6482 57.4472 73.5803 56.3961 73.4057 55.3587C73.2898 54.815 73.2068 54.2655 73.1571 53.7128C73.1523 53.5869 73.1597 53.4131 73.1614 53.2696C73.1614 53.2531 73.1571 53.2372 73.1571 53.2212C73.1312 52.9792 73.159 52.7349 73.2387 52.5038C73.3185 52.2727 73.4483 52.0601 73.6198 51.8796C73.7914 51.6991 74.0008 51.5549 74.2347 51.4561C74.4685 51.3573 74.7216 51.3062 74.9775 51.3061C75.2335 51.306 75.4866 51.3568 75.7206 51.4554C75.9545 51.554 76.1641 51.6981 76.3359 51.8784C76.5076 52.0587 76.6376 52.2712 76.7175 52.5022C76.7975 52.7332 76.8255 52.9776 76.7999 53.2195C76.7999 53.3712 76.8094 53.5726 76.8038 53.7116C76.7539 54.2642 76.6705 54.8136 76.5539 55.357C76.3782 56.3946 76.3091 57.446 76.3476 58.4963C76.4196 58.8474 76.6332 59.1579 76.9428 59.3615C76.9492 59.4865 76.9708 59.9039 76.9868 60.134C82.7447 60.6315 88.1169 63.0978 92.1054 67.0746L92.7985 66.6043C93.1708 66.665 93.5535 66.6255 93.9033 66.4903C94.792 65.864 95.6144 65.1571 96.3589 64.3795C96.7349 63.9545 97.1365 63.5506 97.5617 63.1699C97.6735 63.0788 97.8422 62.9567 97.9657 62.864C98.1484 62.6928 98.367 62.56 98.6073 62.4742C98.8476 62.3885 99.1042 62.3517 99.3604 62.3663C99.6166 62.3809 99.8667 62.4465 100.095 62.5588C100.322 62.6712 100.523 62.8278 100.683 63.0185C100.843 63.2093 100.959 63.4298 101.023 63.6659C101.088 63.9019 101.099 64.1482 101.057 64.3887C101.015 64.6293 100.92 64.8587 100.778 65.0621C100.636 65.2655 100.451 65.4384 100.235 65.5694C100.113 65.6633 99.9513 65.7941 99.8339 65.8769C99.3469 66.1841 98.8415 66.4642 98.3204 66.7159C97.3578 67.2337 96.4505 67.8393 95.6115 68.5241C95.3672 68.7958 95.2445 69.1476 95.2697 69.5041C95.1682 69.5927 94.8122 69.8924 94.6236 70.0548C97.8536 74.6294 99.2038 80.1714 98.4179 85.6292L99.1533 85.8326C99.3371 86.147 99.609 86.4069 99.9388 86.5833C101.007 86.8539 102.101 87.0248 103.205 87.0938C103.789 87.1066 104.372 87.1509 104.951 87.2267C105.104 87.2533 105.326 87.3116 105.482 87.3456C105.734 87.3771 105.977 87.4583 106.194 87.5841C106.412 87.7098 106.599 87.8773 106.744 88.0758C106.89 88.2743 106.99 88.4995 107.038 88.7369C107.087 88.9743 107.082 89.2187 107.026 89.4544C106.969 89.6902 106.861 89.9121 106.709 90.1059C106.557 90.2998 106.364 90.4613 106.142 90.5802C105.921 90.6991 105.675 90.7727 105.422 90.7963C105.169 90.8199 104.913 90.793 104.671 90.7173L104.645 90.7141C104.633 90.7112 104.622 90.705 104.609 90.7022C104.459 90.671 104.27 90.6398 104.139 90.607C103.583 90.4373 103.037 90.2371 102.505 90.0076C101.479 89.6143 100.415 89.317 99.3277 89.1198C98.9515 89.1085 98.5856 89.2376 98.3083 89.4794C98.0494 89.4327 97.7899 89.3895 97.5298 89.3499C95.7687 94.6149 92.032 99.0812 87.0306 101.899Z" fill="white"/>
  </svg>