<svg width="32" height="32" viewBox="0 0 174 160" fill="none" xmlns="http://www.w3.org/2000/svg">
<path d="M112.43 33.5C101.268 14.1667 73.3623 14.1667 62.2002 33.5L17.1669 111.5C6.00478 130.833 19.9574 155 42.2816 155H132.348C154.672 155 168.625 130.833 157.463 111.5L112.43 33.5Z" fill="#00B39F" stroke="#00B39F" stroke-width="10"/>
<g clip-path="url(#clip0_5238_25349)">
<path d="M89.1348 78.6178V97.4872L104.875 88.0203L89.1348 78.6178Z" fill="white"/>
<path d="M89.1348 101.431V120.394L105.022 110.956L89.1348 101.431Z" fill="white"/>
<path d="M86.8708 97.3584V78.7757L71.3273 88.0378L86.8708 97.3584Z" fill="white" fill-opacity="0.8"/>
<path d="M55.688 120.324C58.7373 125.42 62.86 129.731 67.7455 132.932V113.074L55.688 120.324Z" fill="white" fill-opacity="0.8"/>
<path d="M86.8709 120.3V101.571L71.288 110.945L86.8709 120.3Z" fill="white" fill-opacity="0.8"/>
<path d="M70.0151 131.751L85.7952 122.377L70.0151 112.899V131.751Z" fill="white"/>
<path d="M106.098 131.85V113.028L90.34 122.389L106.098 131.85Z" fill="white" fill-opacity="0.8"/>
<path d="M121.523 118.141C124.217 112.918 125.739 107.129 125.977 101.208L109.572 110.968L121.523 118.141Z" fill="white" fill-opacity="0.8"/>
<path d="M108.367 108.967L124.204 99.5586L108.367 90.1034V108.967Z" fill="white"/>
<path d="M106.098 86.0369V67.3255L90.4132 76.6695L106.098 86.0369Z" fill="white" fill-opacity="0.8"/>
<path d="M106.098 108.885V90.004L90.3794 99.4592L106.098 108.885Z" fill="white" fill-opacity="0.8"/>
<path d="M70.0151 89.9687V108.99L85.8515 99.4648L70.0151 89.9687Z" fill="white"/>
<path d="M86.8709 60C81.0413 60.1705 75.3285 61.7384 70.1785 64.5813L86.8709 74.528V60Z" fill="white" fill-opacity="0.8"/>
<path d="M70.0151 67.1967V86.1071L85.8628 76.6636L70.0151 67.1967Z" fill="white"/>
<path d="M67.7455 66.0502C62.8612 69.253 58.7389 73.5638 55.688 78.659L67.7455 85.8909V66.0502Z" fill="white" fill-opacity="0.8"/>
<path d="M105.996 64.6808C100.803 61.7776 95.0294 60.1748 89.1348 60V74.7152L105.996 64.6808Z" fill="white"/>
<path d="M50 100.881C50.1968 106.972 51.7526 112.933 54.5448 118.293L66.76 110.944L50 100.881Z" fill="white"/>
<path d="M54.5448 80.6949C51.7614 86.0315 50.2058 91.9655 50 98.0314L66.7769 88.0321L54.5448 80.6949Z" fill="white"/>
<path d="M70.1503 134.384C75.3064 137.241 81.0297 138.817 86.8708 138.988V124.449L70.1503 134.384Z" fill="white" fill-opacity="0.8"/>
<path d="M120.351 78.723C117.319 73.6427 113.223 69.3386 108.367 66.1317V85.9197L120.351 78.723Z" fill="white"/>
<path d="M108.367 132.868C113.248 129.638 117.361 125.302 120.397 120.183L108.367 112.963V132.868Z" fill="white"/>
<path d="M126.028 97.9204C125.812 91.9132 124.271 86.0378 121.523 80.7477L109.409 88.0147L126.028 97.9204Z" fill="white" fill-opacity="0.8"/>
<path d="M89.1348 138.988C94.9627 138.819 100.674 137.251 105.822 134.407L89.1348 124.361V138.988Z" fill="white"/>
<path d="M67.7456 108.821V90.1678L52.157 99.4534L67.7456 108.821Z" fill="white" fill-opacity="0.8"/>
</g>
<defs>
<clipPath id="clip0_5238_25349">
<rect width="76" height="79" fill="white" transform="translate(50 60)"/>
</clipPath>
</defs>
</svg>
