<?xml version="1.0" encoding="UTF-8"?><!DOCTYPE svg>
<svg width="32" height="32" viewBox="0 0 124 152" fill="none" xmlns="http://www.w3.org/2000/svg">
<path d="M1.37915 38.3951C3.69449 45.0854 9.89613 51.0023 18.5732 55.5223C29.7331 61.3355 45.1155 64.9161 62.0791 64.9161C79.0428 64.9161 94.4252 61.3355 105.585 55.5223C114.262 51.0023 120.464 45.0854 122.779 38.3951V118.778C122.779 127.3 116.138 135.139 105.123 140.876C94.1329 146.601 78.9154 150.157 62.0791 150.157C45.2429 150.157 30.0254 146.601 19.0352 140.876C8.02061 135.139 1.37915 127.3 1.37915 118.778V38.3951Z" fill="#326CE5" stroke="white"/>
<path d="M1.37915 32.5367C1.37915 24.0141 8.02061 16.1755 19.0352 10.438C30.0254 4.71309 45.2429 1.15723 62.0791 1.15723C78.9154 1.15723 94.1329 4.71309 105.123 10.438C116.138 16.1755 122.779 24.0141 122.779 32.5367C122.779 41.0593 116.138 48.8979 105.123 54.6355C94.1329 60.3604 78.9154 63.9162 62.0791 63.9162C45.2429 63.9162 30.0254 60.3604 19.0352 54.6355C8.02061 48.8979 1.37915 41.0593 1.37915 32.5367Z" fill="#326CE5" stroke="white"/>
<path d="M123.279 32.5367C123.279 50.1433 95.879 64.4162 62.0791 64.4162C28.2793 64.4162 0.87915 50.1433 0.87915 32.5367M123.279 32.5367C123.279 14.9302 95.879 0.657227 62.0791 0.657227C28.2793 0.657227 0.87915 14.9302 0.87915 32.5367M123.279 32.5367V118.778C123.279 136.384 95.879 150.657 62.0791 150.657C28.2793 150.657 0.87915 136.384 0.87915 118.778V32.5367" stroke="white" stroke-miterlimit="10" stroke-linejoin="round"/>
<path d="M62.8791 75.5401C62.3474 75.566 61.8265 75.6931 61.3469 75.9142L40.4397 85.5526C39.8985 85.8019 39.4231 86.1647 39.0486 86.614C38.6741 87.0633 38.4102 87.5876 38.2765 88.1479L33.1185 109.798C32.9994 110.297 32.9861 110.814 33.0793 111.317C33.1725 111.821 33.3705 112.302 33.6613 112.731C33.7318 112.836 33.8077 112.938 33.8886 113.036L48.3598 130.396C48.7343 130.845 49.2099 131.208 49.751 131.457C50.2921 131.706 50.885 131.836 51.4855 131.835L74.6924 131.83C75.2927 131.831 75.8854 131.702 76.4265 131.453C76.9677 131.204 77.4433 130.842 77.8181 130.393L92.284 113.031C92.6587 112.581 92.9228 112.057 93.0566 111.496C93.1904 110.936 93.1904 110.354 93.0567 109.793L87.8907 88.1428C87.757 87.5825 87.4931 87.0582 87.1186 86.6089C86.7441 86.1596 86.2687 85.7968 85.7275 85.5474L64.8176 75.9142C64.2144 75.6361 63.5478 75.5075 62.8791 75.5401Z" fill="white"/>
<path d="M63.0863 82.9081C62.3952 82.9081 61.8348 83.5087 61.8349 84.2496C61.8349 84.261 61.8373 84.2718 61.8375 84.2832C61.8365 84.3838 61.8315 84.5051 61.8349 84.5927C61.8514 85.02 61.9479 85.3471 62.006 85.7408C62.1113 86.5834 62.1995 87.2819 62.145 87.9311C62.0921 88.1759 61.9052 88.3998 61.7386 88.5554L61.7092 89.0662C60.9582 89.1263 60.2022 89.2362 59.4471 89.4016C56.1978 90.1134 53.4002 91.7283 51.2703 93.9086C51.1321 93.8177 50.8903 93.6503 50.8184 93.5991C50.595 93.6282 50.3692 93.6947 50.075 93.5294C49.515 93.1657 49.005 92.6636 48.3878 92.0589C48.105 91.7696 47.9002 91.4941 47.5642 91.2153C47.4879 91.1519 47.3715 91.0663 47.2862 91.0011C47.0235 90.7991 46.7137 90.6937 46.4145 90.6838C46.0298 90.6711 45.6594 90.8162 45.4171 91.1095C44.9863 91.6309 45.1242 92.4277 45.7246 92.8896C45.7307 92.8943 45.7372 92.8979 45.7433 92.9025C45.8258 92.967 45.9269 93.0497 46.0027 93.1037C46.3592 93.3577 46.6849 93.4877 47.0402 93.6894C47.7886 94.1353 48.4091 94.5051 48.9012 94.9509C49.0934 95.1486 49.127 95.4968 49.1525 95.6475L49.5536 95.9932C47.4065 99.1108 46.4128 102.962 47.0001 106.885L46.476 107.032C46.3378 107.205 46.1427 107.475 45.9385 107.556C45.2946 107.752 44.57 107.824 43.6951 107.912C43.2844 107.945 42.93 107.925 42.4945 108.005C42.3987 108.023 42.2652 108.056 42.1603 108.08C42.1566 108.081 42.1532 108.082 42.1496 108.082C42.1439 108.084 42.1364 108.086 42.1309 108.088C41.3933 108.26 40.9195 108.914 41.072 109.558C41.2246 110.203 41.945 110.595 42.687 110.44C42.6924 110.439 42.7002 110.439 42.7058 110.438C42.7141 110.436 42.7215 110.432 42.7298 110.43C42.8333 110.408 42.9629 110.384 43.0534 110.36C43.4815 110.25 43.7915 110.087 44.1764 109.945C45.0044 109.659 45.6902 109.419 46.3583 109.326C46.6374 109.305 46.9314 109.492 47.0776 109.571L47.6231 109.481C48.8783 113.236 51.5089 116.271 54.8399 118.175L54.6127 118.701C54.6946 118.906 54.7849 119.182 54.7239 119.384C54.481 119.992 54.065 120.633 53.5912 121.348C53.3618 121.679 53.1271 121.935 52.9201 122.313C52.8705 122.403 52.8075 122.542 52.7596 122.638C52.438 123.302 52.6739 124.067 53.2917 124.354C53.9134 124.642 54.6851 124.338 55.0191 123.673C55.0196 123.672 55.0213 123.671 55.0218 123.67C55.0221 123.669 55.0214 123.668 55.0218 123.667C55.0693 123.573 55.1367 123.449 55.1768 123.36C55.3541 122.969 55.4131 122.633 55.5378 122.254C55.8689 121.451 56.0508 120.609 56.5066 120.085C56.6314 119.941 56.8349 119.886 57.0459 119.831L57.3293 119.336C60.2333 120.411 63.4837 120.7 66.7308 119.989C67.4715 119.826 68.1866 119.616 68.8779 119.364C68.9576 119.501 69.1056 119.763 69.1453 119.829C69.3597 119.896 69.5937 119.931 69.7844 120.203C70.1254 120.765 70.3586 121.43 70.6427 122.233C70.7674 122.612 70.829 122.948 71.0063 123.34C71.0468 123.429 71.1138 123.555 71.1614 123.649C71.4947 124.317 72.2688 124.622 72.8915 124.333C73.5092 124.046 73.7454 123.281 73.4236 122.617C73.3757 122.522 73.31 122.383 73.2604 122.292C73.0534 121.914 72.8187 121.66 72.5893 121.33C72.1155 120.615 71.7226 120.021 71.4796 119.413C71.3781 119.1 71.4968 118.905 71.5759 118.701C71.5285 118.649 71.4271 118.353 71.3673 118.214C74.8291 116.241 77.3824 113.093 78.5815 109.458C78.7434 109.482 79.0249 109.53 79.1163 109.548C79.3045 109.428 79.4776 109.272 79.8169 109.298C80.485 109.391 81.1707 109.63 81.9988 109.917C82.3837 110.059 82.6937 110.224 83.1218 110.335C83.2123 110.358 83.3419 110.38 83.4454 110.402C83.4537 110.404 83.461 110.408 83.4694 110.409C83.475 110.411 83.4828 110.411 83.4881 110.412C84.2302 110.566 84.9508 110.174 85.1032 109.53C85.2555 108.885 84.7819 108.231 84.0443 108.059C83.937 108.036 83.7849 107.996 83.6807 107.977C83.2452 107.897 82.8908 107.917 82.4801 107.884C81.6052 107.795 80.8806 107.723 80.2367 107.528C79.9741 107.43 79.7874 107.128 79.6965 107.004L79.1912 106.862C79.4532 105.033 79.3825 103.13 78.9291 101.225C78.4715 99.3029 77.6627 97.5447 76.5841 95.9958C76.7137 95.8821 76.9586 95.6729 77.028 95.6114C77.0483 95.3947 77.0308 95.1676 77.2633 94.9277C77.7554 94.4818 78.3759 94.1121 79.1243 93.6661C79.4796 93.4645 79.8079 93.3345 80.1645 93.0805C80.2451 93.0231 80.3552 92.9321 80.4399 92.8664C81.0401 92.4044 81.1784 91.6075 80.7474 91.0863C80.3164 90.565 79.4813 90.5159 78.881 90.9779C78.7956 91.0432 78.6796 91.1284 78.6029 91.192C78.2669 91.4709 78.0594 91.7464 77.7767 92.0357C77.1595 92.6405 76.6494 93.145 76.0894 93.5088C75.8468 93.6451 75.4913 93.5979 75.33 93.5887L74.8541 93.9164C72.1401 91.1705 68.4449 89.415 64.466 89.074C64.4549 88.9131 64.4403 88.6223 64.4366 88.5348C64.2737 88.3844 64.0769 88.256 64.0275 87.9311C63.973 87.2819 64.0639 86.5834 64.1692 85.7408C64.2273 85.3471 64.3238 85.02 64.3403 84.5927C64.3441 84.4956 64.3381 84.3546 64.3376 84.2496C64.3376 83.5087 63.7774 82.908 63.0863 82.9081H63.0863ZM61.5194 92.273L61.1477 98.6066L61.1209 98.6195C61.096 99.1861 60.6127 99.6385 60.0193 99.6385C59.7762 99.6385 59.5519 99.5632 59.3695 99.4347L59.3588 99.4399L53.9763 95.7584C55.6306 94.1889 57.7465 93.0291 60.1851 92.4949C60.6305 92.3973 61.0758 92.3249 61.5194 92.273ZM64.6558 92.273C67.5029 92.6108 70.1358 93.8547 72.1535 95.761L66.8057 99.4192L66.7869 99.4115C66.3123 99.746 65.6435 99.663 65.2735 99.2154C65.122 99.0321 65.0424 98.8165 65.0329 98.5988L65.0275 98.5963L64.6558 92.273ZM52.0243 98.1241L56.939 102.365L56.9336 102.391C57.3772 102.763 57.4426 103.409 57.0727 103.857C56.9211 104.04 56.7182 104.163 56.5004 104.22L56.4951 104.241L50.1954 105.995C49.8747 103.167 50.5657 100.417 52.0243 98.1241ZM74.1134 98.1267C74.8437 99.2687 75.3966 100.544 75.7258 101.927C76.051 103.293 76.1327 104.657 75.9985 105.975L69.6667 104.215L69.6614 104.189C69.0944 104.04 68.7459 103.483 68.8779 102.925C68.932 102.697 69.0578 102.503 69.2282 102.36L69.2255 102.347L74.1134 98.1267H74.1134ZM62.0782 102.693H64.0916L65.343 104.202L64.8938 106.086L63.0863 106.924L61.2734 106.083L60.8241 104.2L62.0782 102.693ZM68.533 107.858C68.6186 107.854 68.7038 107.861 68.787 107.876L68.7977 107.863L75.314 108.926C74.3604 111.511 72.5355 113.751 70.0972 115.249L67.5677 109.354L67.5757 109.344C67.3434 108.823 67.5759 108.212 68.1105 107.964C68.2474 107.9 68.3904 107.865 68.533 107.858H68.533ZM57.5887 107.884C58.086 107.891 58.532 108.224 58.6476 108.712C58.7017 108.941 58.6753 109.167 58.5861 109.367L58.6048 109.39L56.102 115.226C53.7621 113.777 51.8983 111.608 50.9013 108.947L57.3614 107.889L57.3721 107.902C57.4444 107.889 57.5177 107.883 57.5887 107.884V107.884ZM63.0462 110.44C63.2194 110.434 63.3951 110.469 63.5622 110.546C63.7812 110.648 63.9504 110.808 64.0569 111H64.081L67.2656 116.552C66.8523 116.686 66.4274 116.8 65.9928 116.895C63.5572 117.429 61.1294 117.267 58.931 116.544L62.1076 111.003H62.113C62.3036 110.659 62.6651 110.454 63.0462 110.44Z" fill="#326CE5" stroke="#326CE5" stroke-width="0.25"/>
</svg>