<svg xmlns="http://www.w3.org/2000/svg" viewBox="0 0 84 77"><defs><style>.cls-1{fill:#326CE5;fill-rule:evenodd;}</style></defs><g id="Layer_2" data-name="Layer 2"><g id="Layer_1-2" data-name="Layer 1"><path class="cls-1" d="M30.19,0a2,2,0,0,0-2,2V24.45a2,2,0,0,0,2,2h8.59V38.22H11.17V50.55H2a2,2,0,0,0-2,2V75a2,2,0,0,0,2,2H24.43a2,2,0,0,0,2-2V52.55a2,2,0,0,0-2-2H15.85V42.9h52.6v7.65H59.57a2,2,0,0,0-2,2V75a2,2,0,0,0,2,2H82a2,2,0,0,0,2-2V52.55a2,2,0,0,0-2-2H73.12V38.22H43.46V26.45h9.17a2,2,0,0,0,2-2V2a2,2,0,0,0-2-2Z"/></g></g></svg>