<svg version="1.1" id="Layer_1" xmlns="http://www.w3.org/2000/svg" xmlns:xlink="http://www.w3.org/1999/xlink" x="0px" y="0px"
	 viewBox="0 0 256 250" style="enable-background:new 0 0 256 250;" xml:space="preserve">
<style type="text/css">
	.st0{fill:#FFFFFF;}
</style>
<g>
	<path class="st0" d="M128,0.6C57.3,0.6,0,56.4,0,125.3c0,43.1,22.4,81.1,56.5,103.5V125.4c0-0.2,0-0.3,0-0.5c0-0.2,0-0.3,0-0.5
		v-0.9h0c0.7-40.1,32.3-72.5,71.3-72.5c39.4,0,71.4,33.1,71.4,73.8c0,40.8-32,73.8-71.4,73.8c-15.4,0-29.5-5.1-41.2-13.6v58.2
		c13,4.3,26.8,6.7,41.3,6.7c70.7,0,128-55.8,128-124.7S198.7,0.6,128,0.6"/>
	<path class="st0" d="M171.2,127.5c0,23.6-19.1,42.7-42.7,42.7s-42.7-19.1-42.7-42.7s19.1-42.7,42.7-42.7S171.2,103.9,171.2,127.5"
		/>
</g>
</svg>