<svg width="40" height="40" viewBox="0 0 40 40" xmlns="http://www.w3.org/2000/svg">  <g id="Icon-Architecture/32/Arch_Amazon-Cloud-Directory_32" stroke="none" stroke-width="1" fill="none" fill-rule="evenodd">  <g id="Icon-Service/32/Amazon-Cloud-Directory_32" transform="translate(10.000000, 6.000000)" fill="#FFFFFF"> <path d="M15.485,22.053 C14.933,22.053 14.485,21.604 14.485,21.053 C14.485,20.502 14.933,20.053 15.485,20.053 C16.037,20.053 16.485,20.502 16.485,21.053 C16.485,21.604 16.037,22.053 15.485,22.053 L15.485,22.053 Z M11.004,21.053 C11.004,21.604 10.555,22.053 10.005,22.053 C9.454,22.053 9.006,21.604 9.006,21.053 C9.006,20.502 9.454,20.053 10.005,20.053 C10.555,20.053 11.004,20.502 11.004,21.053 L11.004,21.053 Z M5.506,21.053 C5.506,21.604 5.057,22.053 4.506,22.053 C3.954,22.053 3.506,21.604 3.506,21.053 C3.506,20.502 3.954,20.053 4.506,20.053 C5.057,20.053 5.506,20.502 5.506,21.053 L5.506,21.053 Z M8.006,12.053 C8.006,10.95 8.903,10.053 10.006,10.053 C11.108,10.053 12.006,10.95 12.006,12.053 C12.006,13.156 11.108,14.053 10.006,14.053 C8.903,14.053 8.006,13.156 8.006,12.053 L8.006,12.053 Z M15.985,19.124 L15.985,16.553 C15.985,16.277 15.761,16.053 15.485,16.053 L10.506,16.053 L10.506,15.002 C11.922,14.763 13.006,13.536 13.006,12.053 C13.006,10.399 11.66,9.053 10.006,9.053 C8.351,9.053 7.006,10.399 7.006,12.053 C7.006,13.536 8.089,14.763 9.506,15.002 L9.506,16.053 L4.506,16.053 C4.229,16.053 4.006,16.277 4.006,16.553 L4.006,19.124 C3.145,19.347 2.506,20.124 2.506,21.053 C2.506,22.156 3.403,23.053 4.506,23.053 C5.608,23.053 6.506,22.156 6.506,21.053 C6.506,20.124 5.866,19.347 5.006,19.124 L5.006,17.053 L9.506,17.053 L9.506,19.124 C8.645,19.347 8.006,20.123 8.006,21.053 C8.006,22.156 8.902,23.053 10.005,23.053 C11.107,23.053 12.004,22.156 12.004,21.053 C12.004,20.124 11.365,19.348 10.506,19.124 L10.506,17.053 L14.985,17.053 L14.985,19.124 C14.125,19.347 13.485,20.124 13.485,21.053 C13.485,22.156 14.382,23.053 15.485,23.053 C16.588,23.053 17.485,22.156 17.485,21.053 C17.485,20.124 16.845,19.347 15.985,19.124 L15.985,19.124 Z M10.006,26.053 C4.933,26.053 1,24.444 1,23.06 L1,4.607 C3.031,5.948 7.693,6.13 10.006,6.13 C12.316,6.13 16.971,5.949 19.006,4.611 L19.006,23.06 C19.006,24.444 15.074,26.053 10.006,26.053 L10.006,26.053 Z M10.006,1 C15.849,1 19.003,2.065 19.003,3.067 C19.003,4.067 15.849,5.13 10.006,5.13 C4.162,5.13 1.008,4.067 1.008,3.067 C1.008,2.065 4.162,1 10.006,1 L10.006,1 Z M20.006,3.053 C19.981,0.299 13.006,1.77635684e-15 10.006,1.77635684e-15 C7.006,1.77635684e-15 0.025,0.299 0,3.053 L0,23.06 C0,25.526 5.193,27.053 10.006,27.053 C14.815,27.053 20.006,25.526 20.006,23.06 L20.006,3.053 Z" id="Amazon-Cloud-Directory_Icon_32_Squid"></path> </g> </g></svg>