<svg xmlns="http://www.w3.org/2000/svg" width="18" height="18" viewBox="0 0 18 18"><defs><linearGradient id="a" x1="-6428.21" y1="9646.124" x2="-6428.21" y2="9617.899" gradientTransform="matrix(.5 0 0 -.5 3224.856 4823.856)" gradientUnits="userSpaceOnUse"><stop offset="0" stop-color="#5ea0ef"/><stop offset=".178" stop-color="#589eed"/><stop offset=".406" stop-color="#4897e9"/><stop offset=".662" stop-color="#2e8ce1"/><stop offset=".936" stop-color="#0a7cd7"/><stop offset="1" stop-color="#0078d4"/></linearGradient></defs><path d="M8.438 10.379h4.234v4.234H8.438zM3.5 4.734h4.232V.5H4.086a.588.588 0 00-.588.588zm.588 9.879h3.644v-4.234H3.5v3.646a.588.588 0 00.586.588zM3.5 9.674h4.232V5.44H3.5zm9.88 4.939h3.646a.588.588 0 00.588-.588v-3.646h-4.236zM8.438 9.674h4.234V5.44H8.438zm4.94 0h4.234V5.44h-4.234zm0-9.174v4.234h4.234V1.088A.588.588 0 0017.024.5zm-4.94 4.234h4.234V.5H8.438z" fill="url(#a)"/><rect x="-.212" y="14.751" width="5.457" height="1.243" rx=".581" transform="rotate(-45 2.517 15.373)" fill="#198ab3"/><circle cx="5.959" cy="11.709" r="3.744" fill="#50e6ff"/><circle cx="5.952" cy="11.642" r="2.94" fill="#fff"/></svg>