<svg width="68" height="67" viewBox="0 0 68 67" fill="none" xmlns="http://www.w3.org/2000/svg">
<path d="M57.8008 10.6016L24.8008 46.3016L66.3008 27.2016C65.1008 20.9016 62.1008 15.2016 57.8008 10.7016" fill="white"/>
<path d="M32.8 0C28.2 0 23.9 0.9 19.9 2.6L15.5 39.9L37.6 0.4C36 0.1 34.4 0 32.8 0Z" fill="white"/>
<mask id="mask0_25331_7049" style="mask-type:luminance" maskUnits="userSpaceOnUse" x="26" y="29" width="41" height="23">
<path d="M66.8008 29H26.8008V52H66.8008V29Z" fill="white"/>
</mask>
<g mask="url(#mask0_25331_7049)">
<path d="M66.8 29.1992L27.5 51.1992L64.4 46.7992C66.2 42.6992 67.1 38.2992 67.1 33.5992C67.2 32.0992 67 30.6992 66.8 29.1992Z" fill="white"/>
</g>
<path d="M51.8008 61.4008C56.2008 58.4008 59.8008 54.4008 62.4008 49.8008L27.8008 56.7008L51.8008 61.4008Z" fill="white"/>
<path d="M39.8016 0.699219L20.6016 42.3992L56.3016 9.39922C51.9016 5.09922 46.2016 1.99922 39.9016 0.699219" fill="white"/>
<path d="M35.7984 67.0016C39.4984 66.7016 43.0984 65.8016 46.2984 64.4016L26.8984 62.1016L35.7984 67.0016Z" fill="white"/>
<path d="M2.8 19.8008C1.3 23.1008 0.3 26.8008 0 30.6008L5.2 39.9008L2.8 19.8008Z" fill="white"/>
<path d="M17.8 4C13.1 6.5 9 10.1 6 14.6L10.9 39L17.8 4Z" fill="white"/>
</svg>