<svg width="90" height="90" viewBox="0 0 90 90" fill="none" xmlns="http://www.w3.org/2000/svg">
<path fill-rule="evenodd" clip-rule="evenodd" d="M24.7442 13.275L22.1119 14.7705L7.56633 23.0347V66.1336L22.2158 75.2495L24.7863 76.8491L21.5873 81.9901L19.0167 80.3905L2.93924 70.386C2.05115 69.8334 1.51123 68.8615 1.51123 67.8155V21.2728C1.51123 20.1836 2.09623 19.1784 3.04319 18.6404L19.1207 9.50584L21.7531 8.01025L24.7442 13.275ZM65.256 13.275L67.8884 14.7705L82.4339 23.0347V66.1336L67.7844 75.2495L65.2139 76.8491L68.413 81.9901L70.9835 80.3905L87.061 70.386C87.9491 69.8334 88.489 68.8615 88.489 67.8155V21.2728C88.489 20.1836 87.904 19.1784 86.9571 18.6404L70.8795 9.50584L68.2472 8.01025L65.256 13.275ZM45.6653 44.3201C45.6653 43.9505 45.965 43.6508 46.3346 43.6508H74.5609C74.9305 43.6508 75.2302 43.9505 75.2302 44.3201V64.2645C75.2302 64.6342 74.9305 64.9338 74.5609 64.9338H46.3346C45.965 64.9338 45.6653 64.6342 45.6653 64.2645V44.3201ZM51.1672 59.8473C51.5299 59.8473 51.8322 59.5127 51.8322 59.1111V49.4066C51.8322 49.005 51.5299 48.6704 51.1672 48.6704C50.8044 48.6704 50.5021 49.005 50.5021 49.4066V59.1111C50.5021 59.5127 50.8044 59.8473 51.1672 59.8473ZM57.3341 59.8473C57.6968 59.8473 57.9991 59.5127 57.9991 59.1111V49.4066C57.9991 49.005 57.6968 48.6704 57.3341 48.6704C56.9713 48.6704 56.669 49.005 56.669 49.4066V59.1111C56.669 59.5127 56.9713 59.8473 57.3341 59.8473ZM63.501 59.8473C63.8637 59.8473 64.166 59.5127 64.166 59.1111V49.4066C64.166 49.005 63.8637 48.6704 63.501 48.6704C63.1382 48.6704 62.8359 49.005 62.8359 49.4066V59.1111C62.8359 59.5127 63.1382 59.8473 63.501 59.8473ZM69.6679 59.8473C70.0306 59.8473 70.3329 59.5127 70.3329 59.1111V49.4066C70.3329 49.005 70.0306 48.6704 69.6679 48.6704C69.3051 48.6704 69.0028 49.005 69.0028 49.4066V59.1111C69.0028 59.5127 69.3051 59.8473 69.6679 59.8473ZM30.8565 20.8959C30.4868 20.8959 30.1871 21.1956 30.1871 21.5653V41.5096C30.1871 41.8793 30.4868 42.179 30.8565 42.179H59.0827C59.4524 42.179 59.752 41.8793 59.752 41.5096V21.5653C59.752 21.1956 59.4524 20.8959 59.0827 20.8959H30.8565ZM36.354 36.4232C36.354 36.8247 36.0518 37.1594 35.689 37.1594C35.3262 37.1594 35.0239 36.8247 35.0239 36.4232V26.7186C35.0239 26.3171 35.3262 25.9824 35.689 25.9824C36.0518 25.9824 36.354 26.3171 36.354 26.7186V36.4232ZM42.5814 36.4232C42.5814 36.8247 42.2791 37.1594 41.9164 37.1594C41.5536 37.1594 41.2513 36.8247 41.2513 36.4232V26.7186C41.2513 26.3171 41.5536 25.9824 41.9164 25.9824C42.2791 25.9824 42.5814 26.3171 42.5814 26.7186V36.4232ZM48.7483 36.4232C48.7483 36.8247 48.446 37.1594 48.0833 37.1594C47.7205 37.1594 47.4182 36.8247 47.4182 36.4232V26.7186C47.4182 26.3171 47.7205 25.9824 48.0833 25.9824C48.446 25.9824 48.7483 26.3171 48.7483 26.7186V36.4232ZM54.9152 36.4232C54.9152 36.8247 54.6129 37.1594 54.2502 37.1594C53.8874 37.1594 53.5851 36.8247 53.5851 36.4232V26.7186C53.5851 26.3171 53.8874 25.9824 54.2502 25.9824C54.6129 25.9824 54.9152 26.3171 54.9152 26.7186V36.4232ZM14.7697 44.3201C14.7697 43.9505 15.0694 43.6508 15.4391 43.6508H43.6653C44.035 43.6508 44.3346 43.9505 44.3346 44.3201V64.2645C44.3346 64.6342 44.035 64.9338 43.6653 64.9338H15.4391C15.0694 64.9338 14.7697 64.6342 14.7697 64.2645V44.3201ZM20.2716 59.8473C20.6344 59.8473 20.9367 59.5127 20.9367 59.1111V49.4066C20.9367 49.005 20.6344 48.6704 20.2716 48.6704C19.9088 48.6704 19.6065 49.005 19.6065 49.4066V59.1111C19.6065 59.5127 19.9088 59.8473 20.2716 59.8473ZM26.4385 59.8473C26.8013 59.8473 27.1036 59.5127 27.1036 59.1111V49.4066C27.1036 49.005 26.8013 48.6704 26.4385 48.6704C26.0757 48.6704 25.7734 49.005 25.7734 49.4066V59.1111C25.7734 59.5127 26.0757 59.8473 26.4385 59.8473ZM32.6054 59.8473C32.9682 59.8473 33.2705 59.5127 33.2705 59.1111V49.4066C33.2705 49.005 32.9682 48.6704 32.6054 48.6704C32.2427 48.6704 31.9404 49.005 31.9404 49.4066V59.1111C31.9404 59.5127 32.2427 59.8473 32.6054 59.8473ZM38.8328 59.8473C39.1955 59.8473 39.4978 59.5127 39.4978 59.1111V49.4066C39.4978 49.005 39.1955 48.6704 38.8328 48.6704C38.47 48.6704 38.1677 49.005 38.1677 49.4066V59.1111C38.1677 59.5127 38.47 59.8473 38.8328 59.8473Z" fill="#326CE5"/>
</svg>
