<svg width="40" height="40" viewBox="0 0 40 40" xmlns="http://www.w3.org/2000/svg">  <g id="Icon-Architecture/32/Arch_AWS-Thinkbox-Deadline_32" stroke="none" stroke-width="1" fill="none" fill-rule="evenodd">  <g id="Icon-Service/32/AWS-ThinkBox-Deadline_32" transform="translate(8.000000, 7.000000)" fill="#FFFFFF"> <path d="M23,19.1983907 L13,24.6533907 L13,19.5193907 L17.51,17.0593907 L19.449,18.0293907 L19.896,17.1343907 L18,16.1863907 L18,10.1803907 L23,7.35239072 L23,19.1983907 Z M7,21.6533907 L7,16.5193907 L10,14.8833907 L10,15.4953907 C10,15.6793907 10.102,15.8493907 10.264,15.9363907 C10.338,15.9753907 10.419,15.9953907 10.5,15.9953907 C10.597,15.9953907 10.693,15.9673907 10.777,15.9113907 L12,15.0963907 L12,18.9263907 L7,21.6533907 Z M1,18.6533907 L1,6.79239072 L11,1.33739072 L11,6.47139072 L6.49,8.93139072 L4.447,7.90939072 L4,8.80439072 L6,9.80439072 L6,15.9263907 L1,18.6533907 Z M13.777,13.9113907 C13.916,13.8183907 14,13.6623907 14,13.4953907 L14,12.4423907 L17,10.7453907 L17,16.1983907 L13,18.3803907 L13,14.4953907 L12.901,14.4953907 L13.777,13.9113907 Z M11,12.7623907 L13,11.4293907 L13,13.2273907 L11,14.5613907 L11,12.7623907 Z M10.223,12.0793907 C10.084,12.1723907 10,12.3283907 10,12.4953907 L10,13.7433907 L7,15.3803907 L7,9.79239072 L11,7.61039072 L11,11.5613907 L10.223,12.0793907 Z M17,4.33739072 L17,9.59739072 L14,11.2933907 L14,10.4953907 C14,10.3103907 13.898,10.1413907 13.736,10.0543907 C13.573,9.96839072 13.377,9.97639072 13.223,10.0793907 L12,10.8943907 L12,7.06439072 L17,4.33739072 Z M23.752,6.06339072 C23.742,6.05739072 23.729,6.05939072 23.719,6.05439072 L23.723,6.04739072 L21.301,4.84539072 L20.855,5.74039072 L22.434,6.52439072 L18,9.03139072 L18,3.49539072 C18,3.31939072 17.907,3.15539072 17.755,3.06539072 C17.604,2.97539072 17.415,2.97239072 17.261,3.05639072 L12,5.92639072 L12,1.30439072 L13.725,2.16639072 L14.172,1.27239072 L11.724,0.0483907187 L11.72,0.0553907187 C11.575,-0.0156092813 11.404,-0.0216092813 11.261,0.0563907187 L0.261,6.05639072 C0.1,6.14339072 0,6.31239072 0,6.49539072 L0,19.4953907 C0,19.6713907 0.093,19.8353907 0.245,19.9253907 C0.256,19.9313907 0.27,19.9293907 0.28,19.9353907 L0.276,19.9423907 L2.836,21.2223907 L3.283,20.3273907 L1.579,19.4753907 L6,17.0643907 L6,22.4953907 C6,22.6713907 6.093,22.8353907 6.245,22.9253907 C6.323,22.9713907 6.412,22.9953907 6.5,22.9953907 C6.582,22.9953907 6.665,22.9743907 6.739,22.9343907 L12,20.0643907 L12,24.6863907 L9.984,23.6783907 L9.537,24.5733907 L12.276,25.9423907 L12.28,25.9353907 C12.35,25.9693907 12.424,25.9953907 12.5,25.9953907 C12.582,25.9953907 12.665,25.9743907 12.739,25.9343907 L23.739,19.9343907 C23.9,19.8463907 24,19.6783907 24,19.4953907 L24,6.49539072 C24,6.31739072 23.905,6.15339072 23.752,6.06339072 L23.752,6.06339072 Z" id="AWS-ThinkBox-Deadline_32_Squid"></path> </g> </g></svg>