<svg width="40" height="40" viewBox="0 0 40 40" fill="none" xmlns="http://www.w3.org/2000/svg">
<g clip-path="url(#clip0_23296_3703)">
<path d="M40 0H0V40H40V0Z" fill="#7AA116" fill-opacity="0.12"/>
<path fill-rule="evenodd" clip-rule="evenodd" d="M30.9455 22.7217C29.8224 22.7217 28.9091 21.8403 28.9091 20.7565C28.9091 19.6726 29.8224 18.7913 30.9455 18.7913C32.0685 18.7913 32.9818 19.6726 32.9818 20.7565C32.9818 21.8403 32.0685 22.7217 30.9455 22.7217ZM25.9869 29.875C23.8864 31.9012 21.0976 33.0174 18.1337 33.0174C16.1156 33.0174 14.1648 32.4907 12.4512 31.5003C12.551 31.2094 12.6182 30.9048 12.6182 30.5825C12.6182 30.5009 12.5999 30.4233 12.5937 30.3437L28.4927 22.4967C28.6759 22.7364 28.8948 22.9467 29.1433 23.1245C28.8032 25.7068 27.5865 28.3304 25.9869 29.875ZM9.56364 32.5477C8.44058 32.5477 7.52727 31.6663 7.52727 30.5825C7.52727 29.4987 8.44058 28.6173 9.56364 28.6173C10.6867 28.6173 11.6 29.4987 11.6 30.5825C11.6 31.6663 10.6867 32.5477 9.56364 32.5477ZM7.01818 22.2913C7.01818 19.4299 8.17484 16.7386 10.2743 14.7115C11.8688 13.1727 14.5914 12.0015 17.2784 11.6713C17.4647 11.9179 17.6877 12.1341 17.9423 12.3139L9.78153 27.6553C9.71025 27.6396 9.63796 27.6347 9.56364 27.6347C9.23069 27.6347 8.91505 27.6995 8.61469 27.7949C7.57818 26.1382 7.01818 24.2437 7.01818 22.2913ZM19.7455 7.9826C20.8685 7.9826 21.7818 8.864 21.7818 9.94781C21.7818 11.0316 20.8685 11.913 19.7455 11.913C18.6224 11.913 17.7091 11.0316 17.7091 9.94781C17.7091 8.864 18.6224 7.9826 19.7455 7.9826ZM11.3159 28.1751C11.1551 28.0651 10.982 27.9698 10.7997 27.8921L18.8525 12.7522C19.1366 12.8367 19.4329 12.8956 19.7455 12.8956C20.5091 12.8956 21.1994 12.6146 21.736 12.1656C23.1727 12.6401 24.5024 13.4076 25.6346 14.4108L11.3159 28.1751ZM29.4406 8.9092C30.5636 8.9092 31.4769 9.7906 31.4769 10.8744C31.4769 11.9582 30.5636 12.8396 29.4406 12.8396C28.3185 12.8396 27.4042 11.9582 27.4042 10.8744C27.4042 9.7906 28.3185 8.9092 29.4406 8.9092ZM12.0378 28.8679L26.3249 15.0809C27.3584 16.1736 28.1475 17.4579 28.6362 18.8482C28.178 19.3641 27.8909 20.0254 27.8909 20.7565C27.8909 21.0581 27.952 21.3431 28.0396 21.6162L12.3382 29.3651C12.2547 29.1892 12.1539 29.0231 12.0378 28.8679ZM30.9455 17.8086C30.4079 17.8086 29.9089 17.9551 29.4701 18.1919C28.9264 16.7926 28.1057 15.5015 27.0519 14.3931L28.0396 13.4783C28.4621 13.6906 28.9325 13.8222 29.4406 13.8222C31.1257 13.8222 32.4951 12.4996 32.4951 10.8744C32.4951 9.24918 31.1257 7.9266 29.4406 7.9266C27.7565 7.9266 26.386 9.24918 26.386 10.8744C26.386 11.6536 26.7078 12.3591 27.2209 12.8858L26.3555 13.7181C25.2039 12.6893 23.862 11.8904 22.409 11.3608C22.6513 10.9393 22.8 10.4627 22.8 9.94781C22.8 8.32259 21.4295 7 19.7455 7C18.0614 7 16.6909 8.32259 16.6909 9.94781C16.6909 10.2259 16.7439 10.4892 16.8182 10.7447C14.0284 11.1554 11.2324 12.3974 9.55447 14.0168C7.26255 16.2296 6 19.1676 6 22.2913C6 24.4049 6.59258 26.4595 7.70647 28.2586C6.98356 28.7981 6.50909 29.6343 6.50909 30.5825C6.50909 32.2077 7.87956 33.5303 9.56364 33.5303C10.5482 33.5303 11.4167 33.0705 11.9757 32.3699C13.8349 33.434 15.9487 34 18.1337 34C21.3705 34 24.4148 32.7816 26.7068 30.5697C28.4163 28.9219 29.6788 26.2856 30.1034 23.5765C30.3732 23.6512 30.6512 23.7043 30.9455 23.7043C32.6295 23.7043 34 22.3817 34 20.7565C34 19.1312 32.6295 17.8086 30.9455 17.8086Z" fill="#7AA116"/>
</g>
<rect x="0.5" y="0.5" width="39" height="39" stroke="#7AA116"/>
<defs>
<clipPath id="clip0_23296_3703">
<rect width="40" height="40" fill="white"/>
</clipPath>
</defs>
</svg>
