<svg width="40" height="40" viewBox="0 0 40 40" fill="none" xmlns="http://www.w3.org/2000/svg">
<g clip-path="url(#clip0_23298_4065)">
<path d="M40 0H0V40H40V0Z" fill="#E7157B" fill-opacity="0.12"/>
<path fill-rule="evenodd" clip-rule="evenodd" d="M14.0269 24.1311H18.0404V23.1605H14.0269V24.1311ZM29.9855 18.8218C29.8752 17.3455 29.1397 16.2613 27.9688 15.8827C27.0416 15.5809 26.0112 15.7993 25.2225 16.4195C24.7389 15.5013 24.0115 14.5986 23.4104 14.024C21.4037 12.1089 18.8501 11.5169 16.4009 12.4021C14.1433 13.2174 11.5185 15.972 11.5185 18.3015V18.3306C10.0446 18.6985 9.01412 20.6058 9.01412 21.6473H10.0175C10.0175 20.895 10.9857 19.2391 12.0202 19.2391C12.2971 19.2391 12.5219 19.0227 12.5219 18.7538V18.3015C12.5219 16.436 14.8477 13.9987 16.7521 13.3115C19.5786 12.2904 21.6957 13.7522 22.7051 14.7151C23.3563 15.3353 24.2242 16.4535 24.5914 17.4396C24.6546 17.6075 24.8071 17.7289 24.9898 17.756C25.1694 17.7803 25.354 17.7094 25.4643 17.5677C26.0122 16.864 26.8881 16.5583 27.6507 16.8029C28.5066 17.0795 28.9972 17.9599 28.9972 19.2168C28.9972 19.4546 29.1748 19.6565 29.4166 19.6953C30.6548 19.8943 32.9966 20.9756 32.9966 23.6458C32.9966 26.9663 29.6404 27.0284 29.4989 27.0294H18.0404V28H29.4999C31.0571 27.9971 34 27.0837 34 23.6458C34 20.599 31.5678 19.2188 29.9855 18.8218ZM16.0337 26.0655H23.0573V25.0949H16.0337V26.0655ZM13.0236 28H16.0337V27.0294H13.0236V28ZM12.0202 26.0655H14.0269V25.0949H12.0202V26.0655ZM7.00337 24.1311H12.0202V23.1605H7.00337V24.1311ZM6 26.0655H11.0168V25.0949H6V26.0655ZM8.00674 28H11.0168V27.0294H8.00674V28Z" fill="#E7157B"/>
</g>
<rect x="0.5" y="0.5" width="39" height="39" stroke="#E7157B"/>
<defs>
<clipPath id="clip0_23298_4065">
<rect width="40" height="40" fill="white"/>
</clipPath>
</defs>
</svg>
