<svg width="86" height="74" viewBox="0 0 86 74" fill="none" xmlns="http://www.w3.org/2000/svg">
<path fill-rule="evenodd" clip-rule="evenodd" d="M27.7708 5.64441V13.1237H52.682V5.64441H27.7708ZM22.1225 4.07544V13.1237H1.25518C0.561964 13.1237 0 13.6856 0 14.3789V67.4451C0 68.1384 0.561963 68.7003 1.25518 68.7003H50.0394C48.8263 66.4025 47.9836 63.8781 47.591 61.207H41.1603C40.8137 61.207 40.5327 60.926 40.5327 60.5794V41.9163C40.5327 41.5697 40.8137 41.2887 41.1603 41.2887H54.1041C58.339 37.0036 64.2142 34.3491 70.7081 34.3491C73.9442 34.3491 77.0267 35.0083 79.8291 36.2V14.3789C79.8291 13.6856 79.2671 13.1237 78.5739 13.1237H58.3303V4.07543C58.3303 1.82248 56.504 -0.00390625 54.251 -0.00390625H26.2018C23.9488 -0.00390625 22.1225 1.82249 22.1225 4.07544ZM45.6405 56.4466C45.9772 56.4466 46.2579 56.1335 46.2579 55.7576V46.6754C46.2579 46.2996 45.9772 45.9864 45.6405 45.9864C45.3037 45.9864 45.023 46.2996 45.023 46.6754V55.7576C45.023 56.1335 45.3037 56.4466 45.6405 56.4466ZM26.7902 19.9927C26.4436 19.9927 26.1626 20.2736 26.1626 20.6202V39.2833C26.1626 39.6299 26.4436 39.9109 26.7902 39.9109H52.9824C53.329 39.9109 53.61 39.6299 53.61 39.2833V20.6202C53.61 20.2736 53.329 19.9927 52.9824 19.9927H26.7902ZM31.8878 34.5242C31.8878 34.9 31.6072 35.2132 31.2704 35.2132C30.9336 35.2132 30.653 34.9 30.653 34.5242V25.442C30.653 25.0662 30.9336 24.753 31.2704 24.753C31.6072 24.753 31.8878 25.0662 31.8878 25.442V34.5242ZM37.6692 34.5242C37.6692 34.9 37.3885 35.2132 37.0518 35.2132C36.715 35.2132 36.4343 34.9 36.4343 34.5242V25.442C36.4343 25.0662 36.715 24.753 37.0518 24.753C37.3885 24.753 37.6692 25.0662 37.6692 25.442V34.5242ZM43.3944 34.5242C43.3944 34.9 43.1137 35.2132 42.777 35.2132C42.4402 35.2132 42.1595 34.9 42.1595 34.5242V25.442C42.1595 25.0662 42.4402 24.753 42.777 24.753C43.1137 24.753 43.3944 25.0662 43.3944 25.442V34.5242ZM49.1196 34.5242C49.1196 34.9 48.839 35.2132 48.5022 35.2132C48.1654 35.2132 47.8848 34.9 47.8848 34.5242V25.442C47.8848 25.0662 48.1654 24.753 48.5022 24.753C48.839 24.753 49.1196 25.0662 49.1196 25.442V34.5242ZM11.85 41.9163C11.85 41.5697 12.131 41.2887 12.4776 41.2887H38.6698C39.0164 41.2887 39.2974 41.5697 39.2974 41.9163V60.5794C39.2974 60.926 39.0164 61.207 38.6698 61.207H12.4776C12.131 61.207 11.85 60.926 11.85 60.5794V41.9163ZM16.9578 56.4466C17.2946 56.4466 17.5752 56.1335 17.5752 55.7576V46.6754C17.5752 46.2996 17.2946 45.9864 16.9578 45.9864C16.621 45.9864 16.3404 46.2996 16.3404 46.6754V55.7576C16.3404 56.1335 16.621 56.4466 16.9578 56.4466ZM22.683 56.4466C23.0198 56.4466 23.3005 56.1335 23.3005 55.7576V46.6754C23.3005 46.2996 23.0198 45.9864 22.683 45.9864C22.3463 45.9864 22.0656 46.2996 22.0656 46.6754V55.7576C22.0656 56.1335 22.3463 56.4466 22.683 56.4466ZM28.4082 56.4466C28.745 56.4466 29.0257 56.1335 29.0257 55.7576V46.6754C29.0257 46.2996 28.745 45.9864 28.4082 45.9864C28.0715 45.9864 27.7908 46.2996 27.7908 46.6754V55.7576C27.7908 56.1335 28.0715 56.4466 28.4082 56.4466ZM34.1896 56.4466C34.5264 56.4466 34.807 56.1335 34.807 55.7576V46.6754C34.807 46.2996 34.5264 45.9864 34.1896 45.9864C33.8528 45.9864 33.5722 46.2996 33.5722 46.6754V55.7576C33.5722 56.1335 33.8528 56.4466 34.1896 56.4466ZM86.0004 57.8895C86.0004 66.7892 78.8006 74.0039 69.9194 74.0039C61.0381 74.0039 53.8384 66.7892 53.8384 57.8895C53.8384 48.9897 61.0381 41.775 69.9194 41.775C78.8006 41.775 86.0004 48.9897 86.0004 57.8895ZM69.0386 58.1826V49.3929H71.3758V57.5512L78.4495 62.186L77.1686 64.1409L69.5667 59.1601L69.0386 58.8141V58.1826Z" fill="#326CE5"/>
</svg>
