<svg width="24" height="24" viewBox="0 0 24 24" fill="none" xmlns="http://www.w3.org/2000/svg">
<path fill-rule="evenodd" clip-rule="evenodd" d="M20.6251 8.34841V18.6366C20.6251 19.74 19.7404 20.6247 18.6371 20.6247H8.34889C7.25546 20.6247 6.36084 19.74 6.36084 18.6366H18.6371V6.36035C19.7404 6.36035 20.6251 7.25498 20.6251 8.34841Z" fill="white"/>
<path fill-rule="evenodd" clip-rule="evenodd" d="M15.6512 3.375H5.36306C4.26962 3.375 3.375 4.26962 3.375 5.36306V15.6512C3.375 16.7546 4.26962 17.6393 5.36306 17.6393H15.6512C16.7546 17.6393 17.6393 16.7546 17.6393 15.6512V5.36306C17.6393 4.26962 16.7546 3.375 15.6512 3.375ZM15.6512 15.6512H5.36306V5.36306H15.6512V15.6512Z" fill="white"/>
<path d="M13.0751 8.48254C13.0094 8.13491 12.8684 7.82485 12.6805 7.54298C12.4081 7.12958 12.0229 6.80073 11.5719 6.60342C11.2431 6.46249 10.8861 6.37793 10.5009 6.37793C10.1251 6.37793 9.76806 6.46249 9.43923 6.60342C8.98826 6.80073 8.60306 7.12958 8.3306 7.54298C8.03935 7.95639 7.87964 8.46375 7.87964 9.0087C7.87964 9.18721 7.89843 9.36573 7.93601 9.53485C7.93601 9.54425 7.93601 9.55364 7.9454 9.57243C7.96419 9.65699 7.98298 9.75095 8.01117 9.83551C8.08633 10.061 8.18968 10.2677 8.32121 10.4556C8.44334 10.6341 8.58427 10.8032 8.75338 10.9536V14.2608L10.5009 12.6166L12.2577 14.2608V10.9536C12.596 10.6529 12.8496 10.2677 13 9.83551C13.0281 9.75095 13.0469 9.65699 13.0657 9.57243C13.0751 9.55364 13.0751 9.54425 13.0751 9.53485C13.1127 9.36573 13.1315 9.18721 13.1315 9.0087C13.1315 8.83018 13.1127 8.65166 13.0751 8.48254ZM11.7222 9.0087C11.7222 9.67578 11.1773 10.2207 10.5009 10.2207C9.83382 10.2207 9.28891 9.67578 9.28891 9.0087C9.28891 8.82078 9.32649 8.64227 9.41104 8.48254C9.59894 8.06914 10.0217 7.78727 10.5009 7.78727C10.9894 7.78727 11.4122 8.06914 11.6001 8.48254C11.6846 8.64227 11.7222 8.82078 11.7222 9.0087Z" fill="white"/>
</svg>
