<svg width="40" height="40" viewBox="0 0 40 40" fill="none" xmlns="http://www.w3.org/2000/svg">
<g clip-path="url(#clip0_23310_9363)">
<path d="M40 0H0V40H40V0Z" fill="#01A88D" fill-opacity="0.12"/>
<path fill-rule="evenodd" clip-rule="evenodd" d="M15.259 16.785L19.259 12.785C19.454 12.59 19.771 12.59 19.966 12.785L23.966 16.785L23.259 17.492L19.613 13.846L15.966 17.492L15.259 16.785ZM19.966 18.785L23.966 22.785L23.259 23.492L19.613 19.846L15.966 23.492L15.259 22.785L19.259 18.785C19.454 18.59 19.771 18.59 19.966 18.785ZM23.966 19.785L23.259 20.492L19.613 16.846L15.966 20.492L15.259 19.785L19.259 15.785C19.454 15.59 19.771 15.59 19.966 15.785L23.966 19.785ZM26.728 27.81C26.236 28.303 25.438 28.301 24.946 27.81C24.454 27.319 24.454 26.519 24.946 26.028C25.192 25.782 25.514 25.66 25.836 25.66C26.159 25.66 26.482 25.783 26.728 26.028C27.219 26.519 27.219 27.319 26.728 27.81ZM20.504 31.832C20.012 32.323 19.213 32.323 18.721 31.832C18.483 31.594 18.352 31.277 18.352 30.941C18.352 30.604 18.483 30.287 18.721 30.05C18.967 29.804 19.289 29.681 19.613 29.681C19.936 29.681 20.258 29.804 20.504 30.05C20.742 30.287 20.873 30.604 20.873 30.941C20.873 31.277 20.742 31.594 20.504 31.832ZM12.432 27.813C11.941 27.322 11.941 26.522 12.432 26.031C12.678 25.785 13 25.662 13.323 25.662C13.646 25.662 13.968 25.785 14.214 26.031C14.705 26.522 14.705 27.322 14.214 27.813C13.721 28.306 12.923 28.304 12.432 27.813ZM24.238 25.321C23.489 26.069 23.384 27.213 23.906 28.081L21.34 29.499C21.296 29.448 21.26 29.391 21.211 29.343C20.33 28.461 18.895 28.461 18.014 29.343C17.975 29.382 17.946 29.428 17.909 29.47L15.336 27.927C15.757 27.081 15.624 26.028 14.921 25.324C14.041 24.444 12.607 24.443 11.725 25.324C10.844 26.205 10.844 27.639 11.725 28.52C12.165 28.961 12.744 29.181 13.322 29.181C13.808 29.181 14.289 29.016 14.693 28.706L17.439 30.353C17.388 30.543 17.352 30.738 17.352 30.941C17.352 31.544 17.587 32.112 18.014 32.539C18.454 32.98 19.033 33.2 19.613 33.2C20.192 33.2 20.771 32.98 21.211 32.539C21.638 32.112 21.873 31.544 21.873 30.941C21.873 30.751 21.842 30.568 21.797 30.389L24.628 28.825C24.996 29.058 25.415 29.179 25.836 29.179C26.415 29.179 26.994 28.958 27.435 28.517C28.317 27.636 28.317 26.202 27.435 25.321C26.553 24.439 25.118 24.44 24.238 25.321ZM29.672 23.656C28.977 23.656 28.411 23.091 28.411 22.396C28.411 21.701 28.977 21.135 29.672 21.135C30.366 21.135 30.932 21.701 30.932 22.396C30.932 23.091 30.366 23.656 29.672 23.656ZM28.704 13.846C28.704 13.15 29.27 12.585 29.964 12.585C30.659 12.585 31.225 13.15 31.225 13.846C31.225 14.54 30.659 15.106 29.964 15.106C29.27 15.106 28.704 14.54 28.704 13.846ZM22.807 10.597C22.112 10.597 21.546 10.031 21.546 9.336C21.546 8.641 22.112 8.076 22.807 8.076C23.501 8.076 24.067 8.641 24.067 9.336C24.067 10.031 23.501 10.597 22.807 10.597ZM30.613 20.347V16C31.541 15.719 32.225 14.865 32.225 13.846C32.225 12.599 31.21 11.585 29.964 11.585C29.382 11.585 28.857 11.812 28.456 12.174L24.947 10.025C25.019 9.807 25.067 9.578 25.067 9.336C25.067 8.09 24.053 7.076 22.807 7.076C21.561 7.076 20.546 8.09 20.546 9.336C20.546 10.582 21.561 11.597 22.807 11.597C23.451 11.597 24.03 11.322 24.443 10.888L27.874 12.99C27.767 13.255 27.704 13.543 27.704 13.846C27.704 14.971 28.534 15.9 29.613 16.07V20.141C28.395 20.174 27.411 21.17 27.411 22.396C27.411 23.642 28.426 24.656 29.672 24.656C30.918 24.656 31.932 23.642 31.932 22.396C31.932 21.486 31.389 20.705 30.613 20.347ZM9.553 23.656C8.859 23.656 8.293 23.091 8.293 22.396C8.293 21.701 8.859 21.135 9.553 21.135C10.248 21.135 10.814 21.701 10.814 22.396C10.814 23.091 10.248 23.656 9.553 23.656ZM8 13.846C8 13.15 8.566 12.585 9.261 12.585C9.955 12.585 10.521 13.15 10.521 13.846C10.521 14.54 9.955 15.106 9.261 15.106C8.566 15.106 8 14.54 8 13.846ZM16.397 8C17.092 8 17.657 8.566 17.657 9.261C17.657 9.955 17.092 10.521 16.397 10.521C15.702 10.521 15.137 9.955 15.137 9.261C15.137 8.566 15.702 8 16.397 8ZM11.814 22.396C11.814 21.17 10.83 20.174 9.613 20.141V16.07C10.691 15.9 11.521 14.972 11.521 13.846C11.521 13.543 11.458 13.254 11.351 12.99L14.806 10.864C15.215 11.269 15.777 11.521 16.397 11.521C17.643 11.521 18.657 10.507 18.657 9.261C18.657 8.014 17.643 7 16.397 7C15.151 7 14.137 8.014 14.137 9.261C14.137 9.527 14.192 9.779 14.277 10.016L10.769 12.174C10.368 11.812 9.843 11.585 9.261 11.585C8.015 11.585 7 12.599 7 13.846C7 14.865 7.684 15.719 8.613 16V20.347C7.836 20.705 7.293 21.486 7.293 22.396C7.293 23.642 8.307 24.656 9.553 24.656C10.799 24.656 11.814 23.642 11.814 22.396Z" fill="#01A88D"/>
</g>
<rect x="0.5" y="0.5" width="39" height="39" stroke="#01A88D"/>
<defs>
<clipPath id="clip0_23310_9363">
<rect width="40" height="40" fill="white"/>
</clipPath>
</defs>
</svg>
