<svg width="40" height="40" viewBox="0 0 40 40" fill="none" xmlns="http://www.w3.org/2000/svg">
<g clip-path="url(#clip0_23298_3958)">
<path d="M40 0H0V40H40V0Z" fill="#01A88D" fill-opacity="0.12"/>
<path fill-rule="evenodd" clip-rule="evenodd" d="M18.9171 24.5457C18.6792 25.3385 18.7855 26.0077 19.0062 26.2353L18.2721 26.9174C17.7516 26.3809 17.623 25.3405 17.946 24.2665C18.3379 22.9659 19.227 22.0908 20.1191 22.1809L20.0087 23.1648C19.7829 23.1371 19.2077 23.5786 18.9171 24.5457ZM8.91655 24.6555C8.6644 25.4385 8.77579 26.1007 9.00971 26.3264L8.29784 27.0302C7.73888 26.4887 7.60217 25.4405 7.95051 24.3596C8.36467 23.0639 9.31855 22.1977 10.2259 22.2819L10.1205 23.2668C9.82992 23.2401 9.21932 23.7132 8.91655 24.6555ZM15.4327 20.8565L14.5517 20.3685C17.4762 15.3193 22.2496 17.3208 22.3003 17.3415L21.8912 18.2463C21.7291 18.177 17.8994 16.6021 15.4327 20.8565ZM32.6866 26.8778C32.3383 27.5736 31.513 27.931 30.2351 27.9389C30.1328 27.9399 30.0316 27.9389 29.9384 27.9399L29.99 27.826C30.3222 27.7449 30.6067 27.6033 30.8265 27.3846C31.1586 27.054 31.3287 26.5808 31.3176 25.9998L31.3054 25.7582C31.3925 25.7038 31.4654 25.6286 31.5069 25.5306L32.0345 24.2745L32.3454 23.4321C33.0461 24.5764 33.196 25.8592 32.6866 26.8778ZM32.7211 22.2354C32.8618 21.7147 32.9783 21.1871 33.0492 20.6486L33.4866 16.8496C33.6496 15.6063 33.3408 14.4334 32.6178 13.5474C31.8644 12.6229 30.7617 12.0775 29.6721 12.0577C29.6346 12.0488 29.5972 12.0429 29.5587 12.0429L28.1471 12.0201C28.14 11.7924 27.9739 11.5955 27.741 11.5489C25.0536 11.0184 22.8481 10.9115 21.0193 11.0629V11.053H10.7079V12.0429H16.8929C15.5411 12.6407 14.6024 13.4118 13.9573 14.1443V14.0632H7.64875V15.053H13.2839L12.4749 16.4695C11.9331 17.101 11.1656 17.4039 10.1145 17.3782C8.38999 17.4831 7.13536 18.3542 6.48222 19.9152C6.40425 20.126 6.23211 20.6051 6.18046 20.904C6.17236 20.9258 6.16527 20.9495 6.16021 20.9723C5.95364 21.973 6.02351 22.8045 6.02655 22.8392C6.04174 23.0243 6.16224 23.1846 6.33843 23.2549C6.38501 23.2737 6.43362 23.2856 6.48222 23.2896C6.45792 23.3559 6.43665 23.4242 6.41438 23.4915C6.2797 23.9122 6.17641 24.3408 6.10756 24.7941C6.10756 24.7941 6.03262 25.583 6.0306 25.583V25.5811C5.82402 27.7558 6.70297 28.5655 7.47863 28.8614C7.72976 28.9584 7.98292 29 8.23202 29C9.0654 29 9.85321 28.5229 10.3808 27.9854C10.4233 27.9418 10.4598 27.8884 10.5013 27.8439H14.7057V26.854H11.2435C11.5787 26.3106 11.8653 25.7048 12.0739 25.0545C12.6278 23.3272 12.5842 21.5969 11.9594 20.5378L11.0835 21.0327C11.5625 21.8463 11.5726 23.3084 11.1068 24.7585C10.7828 25.7721 10.2653 26.6739 9.6517 27.2994C9.21324 27.7449 8.48315 28.1814 7.84723 27.9399C7.19206 27.6884 6.91967 26.9263 7.04017 25.6711L7.11207 24.9159C7.16979 24.5397 7.25991 24.1606 7.38041 23.7874C7.58293 23.1559 7.8695 22.5491 8.20974 22.0324C8.34442 21.8275 8.30594 21.5583 8.12063 21.396C7.9333 21.2326 7.65584 21.2277 7.46243 21.3821C7.33484 21.4841 7.20422 21.59 7.06853 21.7008C7.08473 21.5514 7.10903 21.391 7.14143 21.2267C7.16067 21.1782 7.17181 21.1247 7.17687 21.0772C7.187 20.9792 7.30649 20.5952 7.42598 20.2725C7.92317 19.0886 8.8487 18.4472 10.1307 18.367C11.7438 18.4007 12.7331 17.7068 13.3032 17.0307L14.251 15.3896C15.379 13.7266 18.3055 11.246 25.5244 12.1864C24.7852 12.7229 24.449 13.4593 24.4399 13.8592C24.4348 14.0731 24.5705 14.2651 24.7771 14.3373C24.9837 14.4086 25.2115 14.3433 25.3462 14.174C26.3507 12.909 27.6772 12.9951 27.7663 13.002L29.4807 13.0317C29.5111 13.0377 29.5404 13.0406 29.5718 13.0416C30.4386 13.0604 31.2599 13.4702 31.8269 14.1641C32.3768 14.8392 32.6097 15.7489 32.4811 16.7318L32.0436 20.5308C31.9353 21.3514 31.7368 22.1591 31.4513 22.9332L30.6989 24.8476H30.2655C30.2827 24.6437 30.2341 24.4368 30.1217 24.2537C29.9344 23.9419 29.6002 23.7558 29.2306 23.7558H26.8175C26.1077 23.7558 25.4546 24.1339 25.1133 24.7427C25.0961 24.7753 25.0809 24.81 25.0708 24.8456L23.7493 24.8446C23.7108 24.6941 23.6693 24.518 23.6227 24.321C23.5215 23.8914 23.3989 23.3757 23.243 22.8372L22.2689 23.1064C22.4187 23.6281 22.5372 24.1289 22.6364 24.5457C22.7357 24.9624 22.8177 25.3009 22.8896 25.5038C22.9716 25.7384 23.2136 25.8899 23.4678 25.8404C23.4779 25.8384 23.487 25.8364 23.4951 25.8345L25.4576 25.8354C25.6864 25.8354 25.8869 25.685 25.9457 25.4702L26.0277 25.1732C26.1978 24.908 26.4955 24.7456 26.8175 24.7456L29.2519 24.7822C29.2326 24.8179 29.2164 24.8555 29.2063 24.8951L29.1202 25.2168C29.0807 25.3653 29.1131 25.5227 29.2093 25.6444C29.3055 25.7652 29.4524 25.8364 29.6103 25.8364L30.2959 25.8374L30.306 26.0324C30.3121 26.3314 30.2442 26.5521 30.1045 26.6907C29.9546 26.8392 29.7055 26.9154 29.3622 26.9154H22.8481C22.5251 26.9154 22.2415 26.8124 22.0907 26.6402C21.9793 26.5155 21.9388 26.3521 21.9691 26.1552C22.2456 24.3408 22.2587 22.857 22.0086 21.7474C21.9489 21.486 21.6735 21.3168 21.4213 21.3683C21.152 21.4168 20.9717 21.6662 21.0132 21.9305C21.1439 22.756 21.0497 23.7637 20.7489 24.7664C20.4421 25.784 20.0391 26.5749 19.553 27.1143C19.0974 27.6192 18.3521 28.0596 17.9005 27.932C17.0853 27.6983 16.658 25.973 17.3172 23.7795C17.6362 22.7204 18.1435 21.7929 18.747 21.1673C19.2594 20.6377 19.7748 20.3962 20.1657 20.5101C20.2295 20.5279 20.2902 20.5556 20.35 20.5922L20.8958 19.7597C20.755 19.6716 20.6062 19.6043 20.4522 19.5598C19.6715 19.3371 18.8057 19.6647 18.0098 20.4883C17.3 21.2257 16.7086 22.2948 16.3461 23.5004C15.5542 26.1324 16.1 28.4457 17.6139 28.8812C17.7668 28.9258 17.9217 28.9456 18.0746 28.9456C18.988 28.9456 19.8821 28.2457 20.3125 27.7686C20.5707 27.4816 20.8077 27.144 21.0213 26.755C21.0841 26.95 21.1844 27.1302 21.3231 27.2876C21.6704 27.6795 22.2253 27.9052 22.8481 27.9052H28.8478L28.702 28.2269C28.6331 28.3784 28.6463 28.5526 28.7374 28.6922C28.8286 28.8327 28.9845 28.9178 29.1536 28.9218C29.1536 28.9218 29.5334 28.9297 30.0083 28.9297C30.0842 28.9297 30.1612 28.9297 30.2412 28.9287C32.3525 28.9159 33.2314 28.0428 33.596 27.3123C34.3666 25.7721 34.0132 23.8063 32.7211 22.2354ZM27.5385 20.1458C27.335 19.925 27.2398 19.6281 27.2783 19.3331L27.42 18.2364C27.5588 18.4957 27.8281 18.6788 28.1461 18.6788C28.6028 18.6788 28.9734 18.3175 28.9734 17.8701C28.9734 17.4247 28.6028 17.0624 28.1461 17.0624C27.9031 17.0624 27.6894 17.1703 27.5385 17.3346L27.6924 16.1537C27.7582 15.6499 28.1825 15.2747 28.703 15.2629C28.7121 15.2619 28.7212 15.2619 28.7283 15.2619C29.024 15.2619 29.3045 15.3836 29.503 15.5984C29.7065 15.8201 29.8017 16.1161 29.7632 16.4111L29.3491 19.5915C29.2822 20.0953 28.8579 20.4705 28.3132 20.4833C28.0185 20.4833 27.736 20.3596 27.5385 20.1458ZM28.3628 21.4722C29.3865 21.4474 30.224 20.71 30.3536 19.7162L30.7677 16.5368C30.8437 15.9548 30.6574 15.3707 30.2543 14.9362C29.8523 14.4997 29.2519 14.2502 28.6787 14.273C27.655 14.2968 26.8175 15.0352 26.6879 16.029L26.2738 19.2074C26.1968 19.7894 26.3841 20.3735 26.7861 20.809C27.175 21.2307 27.7309 21.4722 28.3608 21.4722H28.3628Z" fill="#01A88D"/>
</g>
<rect x="0.5" y="0.5" width="39" height="39" stroke="#01A88D"/>
<defs>
<clipPath id="clip0_23298_3958">
<rect width="40" height="40" fill="white"/>
</clipPath>
</defs>
</svg>
