<svg width="40" height="40" viewBox="0 0 40 40" fill="none" xmlns="http://www.w3.org/2000/svg">
<g clip-path="url(#clip0_23295_3255)">
<path d="M40 0H0V40H40V0Z" fill="#ED7100" fill-opacity="0.12"/>
<path fill-rule="evenodd" clip-rule="evenodd" d="M25 32.989V17.989H15V22.989V23.989V32.989H18V29.489C18 29.213 18.224 28.989 18.5 28.989H21.5C21.776 28.989 22 29.213 22 29.489V32.989H25ZM19 32.989H21V29.989H19V32.989ZM34 32.989V33.989H26H25H22H21H19H18H15H14H6V32.989H14V23.989H11.156C9.219 23.989 7.478 22.857 6.822 21.173C6.676 20.798 6.578 20.407 6.53 20.01C6.499 19.766 6.483 19.506 6.483 19.233C6.483 16.393 8.147 14.802 9.864 14.174L7.286 13.233L7.63 12.294L11.373 13.66C11.632 13.755 11.766 14.042 11.671 14.302L10.305 18.045L9.365 17.702L10.329 15.061C9.424 15.361 7.483 16.342 7.483 19.233C7.483 19.463 7.497 19.681 7.522 19.888C7.561 20.204 7.639 20.513 7.754 20.811C8.261 22.114 9.628 22.989 11.156 22.989H14V17.489C14 17.213 14.224 16.989 14.5 16.989H25.5C25.776 16.989 26 17.213 26 17.489V32.989H34ZM22.5 19.989H21.5C21.224 19.989 21 20.213 21 20.489V21.489C21 21.765 21.224 21.989 21.5 21.989H22.5C22.776 21.989 23 21.765 23 21.489V20.489C23 20.213 22.776 19.989 22.5 19.989ZM18.5 19.989H17.5C17.224 19.989 17 20.213 17 20.489V21.489C17 21.765 17.224 21.989 17.5 21.989H18.5C18.776 21.989 19 21.765 19 21.489V20.489C19 20.213 18.776 19.989 18.5 19.989ZM22.5 23.989H21.5C21.224 23.989 21 24.213 21 24.489V25.489C21 25.765 21.224 25.989 21.5 25.989H22.5C22.776 25.989 23 25.765 23 25.489V24.489C23 24.213 22.776 23.989 22.5 23.989ZM18.5 23.989H17.5C17.224 23.989 17 24.213 17 24.489V25.489C17 25.765 17.224 25.989 17.5 25.989H18.5C18.776 25.989 19 25.765 19 25.489V24.489C19 24.213 18.776 23.989 18.5 23.989ZM11.212 12.335L10.251 12.061C10.859 9.92995 12.363 8.12895 14.177 7.36095C16.977 6.17595 19.94 6.76495 22.107 8.93795C22.773 9.60695 23.321 10.417 23.74 11.353C24.543 10.692 25.598 10.458 26.598 10.748C27.981 11.153 28.909 12.423 29.12 14.177C30.48 14.499 33.343 15.614 33.343 19.289C33.343 22.352 30.947 23.828 29.282 24.486L31.56 25.573L31.128 26.475L27.531 24.759C27.282 24.64 27.177 24.341 27.296 24.092L29.013 20.495L29.915 20.926L28.602 23.677C30.118 23.156 32.343 21.942 32.343 19.289C32.343 16.079 29.696 15.278 28.559 15.082C28.291 15.036 28.109 14.785 28.149 14.516C28.052 13.085 27.366 12.014 26.317 11.708C25.46 11.457 24.534 11.79 23.967 12.558C23.855 12.706 23.678 12.779 23.49 12.755C23.308 12.728 23.154 12.601 23.093 12.427C22.7 11.314 22.13 10.378 21.398 9.64395C20.502 8.74495 18.041 6.81295 14.567 8.28095C13.049 8.92495 11.731 10.516 11.212 12.335Z" fill="#ED7100"/>
</g>
<rect x="0.5" y="0.5" width="39" height="39" stroke="#ED7100"/>
<defs>
<clipPath id="clip0_23295_3255">
<rect width="40" height="40" fill="white"/>
</clipPath>
</defs>
</svg>
