<svg width="40" height="40" viewBox="0 0 40 40" fill="none" xmlns="http://www.w3.org/2000/svg">
<g clip-path="url(#clip0_23295_3334)">
<path d="M40 0H0V40H40V0Z" fill="#ED7100" fill-opacity="0.12"/>
<path fill-rule="evenodd" clip-rule="evenodd" d="M9.819 15.295L8.889 14.927C10.65 10.484 15.116 7.5 20 7.5C24.883 7.5 29.349 10.484 31.11 14.927L30.18 15.295C28.569 11.231 24.477 8.5 20 8.5C15.522 8.5 11.43 11.231 9.819 15.295ZM30.176 23.233L31.114 23.581C29.355 28.318 24.888 31.5 20 31.5C15.111 31.5 10.644 28.318 8.885 23.581L9.823 23.233C11.437 27.58 15.527 30.5 20 30.5C24.472 30.5 28.562 27.58 30.176 23.233ZM33 20.776C33 20.898 32.897 21 32.776 21H29.223C29.102 21 29 20.898 29 20.776V17.224C29 17.103 29.102 17 29.223 17H32.776C32.897 17 33 17.103 33 17.224V20.776ZM32.776 16H29.223C28.548 16 28 16.549 28 17.224V20.776C28 21.451 28.548 22 29.223 22H32.776C33.451 22 34 21.451 34 20.776V17.224C34 16.549 33.451 16 32.776 16ZM7 20.776V17.224C7 17.103 7.102 17 7.223 17H10.776C10.897 17 11 17.103 11 17.224V20.776C11 20.898 10.897 21 10.776 21H7.223C7.102 21 7 20.898 7 20.776ZM12 20.776V17.224C12 16.549 11.451 16 10.776 16H7.223C6.548 16 6 16.549 6 17.224V20.776C6 21.451 6.548 22 7.223 22H10.776C11.451 22 12 21.451 12 20.776ZM21 19H23V18H21V19ZM17 19H20V18H17V19ZM16 20H24V17H16V20ZM19 22V23H15V22H14V15H26V22H24V23H22V22H19ZM25 24V23H27V14H13V23H14V24H20V23H21V24H25Z" fill="#ED7100"/>
</g>
<rect x="0.5" y="0.5" width="39" height="39" stroke="#ED7100"/>
<defs>
<clipPath id="clip0_23295_3334">
<rect width="40" height="40" fill="white"/>
</clipPath>
</defs>
</svg>
