<svg width="40" height="40"  viewBox="0 0 40 40" xmlns="http://www.w3.org/2000/svg">  <g id="Icon-Architecture/32/Arch_Amazon-Chime-SDK_32" stroke="none" stroke-width="1" fill="none" fill-rule="evenodd">  <g id="Icon-Service/32/Amazon-Chime-SDK_32" transform="translate(6.000000, 6.000000)" fill="#FFFFFF"> <path d="M14,18.809 L12.276,17.949 C12.107,17.865 12,17.691 12,17.502 L12,17.49 L10,17.49 L10,16.49 L12,16.49 L12,15.786 L9.038,14.077 L8,14.76 L8,17.248 L10.343,19.109 L9.72,19.892 L7.188,17.881 C7.069,17.786 7,17.642 7,17.489 L7,14.732 L6.052,14.079 L3,15.794 L3,17.18 L4.475,17.917 L5.723,17.085 L6.277,17.917 L5,18.768 L5,19.975 C5,20.142 4.916,20.298 4.777,20.391 L3.277,21.391 L2.723,20.559 L4,19.707 L4,18.798 L2.497,18.047 L1,18.824 L1,22.185 L2.722,23.038 C2.893,23.122 3,23.296 3,23.486 L3,25.202 L3.349,25.402 L5.555,23.292 L6.246,24.015 L4.253,25.921 L5.995,26.921 L7,26.236 L7,24 L7,23 L7,21.747 L5.87,20.885 L6.476,20.09 L7.803,21.102 C7.927,21.196 8,21.344 8,21.499 L8,23 L10,23 L10,24 L8,24 L8,26.241 L9.032,26.915 L12,25.211 L12,23.496 C12,23.307 12.106,23.134 12.275,23.049 L12.679,22.847 L11.15,21.352 L11.85,20.638 L13.622,22.371 L14,22.181 L14,18.809 Z M15,18.5 L15,22.489 C15,22.678 14.894,22.851 14.725,22.936 L13,23.804 L13,25.501 C13,25.68 12.904,25.846 12.749,25.934 L9.265,27.934 C9.188,27.979 9.102,28.001 9.016,28.001 C8.92,28.001 8.825,27.974 8.742,27.919 L7.498,27.107 L6.299,27.923 C6.214,27.981 6.116,28.01 6.018,28.01 C5.932,28.01 5.846,27.988 5.769,27.944 L2.251,25.925 C2.096,25.836 2,25.67 2,25.491 L2,23.796 L0.278,22.944 C0.107,22.859 0,22.685 0,22.496 L0,18.52 C0,18.333 0.104,18.162 0.27,18.076 L2,17.178 L2,15.502 C2,15.321 2.098,15.155 2.255,15.066 L5.833,13.054 C5.999,12.961 6.205,12.97 6.361,13.079 L7.521,13.878 L8.747,13.072 C8.905,12.969 9.109,12.962 9.271,13.057 L12.75,15.064 C12.904,15.153 13,15.318 13,15.497 L13,17.193 L14.724,18.053 C14.893,18.137 15,18.31 15,18.5 L15,18.5 Z M11,10 L12,10 L12,3 L11,3 L11,10 Z M14,11 L15,11 L15,5 L14,5 L14,11 Z M17,13 L18,13 L18,3 L17,3 L17,13 Z M23,8 L24,8 L24,5 L23,5 L23,8 Z M8,9 L9,9 L9,5 L8,5 L8,9 Z M20,10 L21,10 L21,5 L20,5 L20,10 Z M20.5,21.797 C20.44,21.797 20.38,21.786 20.321,21.764 C20.128,21.69 20,21.504 20,21.297 L20,17 L16,17 L16,16 L20.5,16 C20.776,16 21,16.224 21,16.5 L21,19.99 L23.532,17.166 C23.627,17.06 23.763,17 23.904,17 L25.635,17 C26.324,17 27,16.312 27,15.611 L27,2.281 C27,1.575 26.473,1 25.824,1 L6.219,1 C5.547,1 5,1.575 5,2.281 L5,12 L4,12 L4,2.281 C4,1.023 4.995,-1.77635684e-15 6.219,-1.77635684e-15 L25.824,-1.77635684e-15 C27.024,-1.77635684e-15 28,1.023 28,2.281 L28,15.611 C28,16.861 26.873,18 25.635,18 L24.128,18 L20.872,21.631 C20.775,21.739 20.64,21.797 20.5,21.797 L20.5,21.797 Z" id="Fill-5"></path> </g> </g></svg>