<svg width="40" height="40"  viewBox="0 0 40 40" xmlns="http://www.w3.org/2000/svg">  <g id="Icon-Architecture/32/Arch_AWS-AppSync_32" stroke="none" stroke-width="1" fill="none" fill-rule="evenodd">  <g id="Icon-Service/32/AWS-AppSync" transform="translate(6.000000, 7.000000)" fill="#FFFFFF"> <path d="M27.5788116,7.52708702 L25.8138319,6.72520341 C28.3509903,11.40631 27.6600408,17.411067 23.9174815,21.5842153 C21.3442212,24.4534397 17.6197128,26 13.8340317,26 C11.9507181,26 10.052362,25.6173052 8.27233982,24.8242986 L8.68550553,23.9257549 C13.6465026,26.1361131 19.6003008,24.9051774 23.1653594,20.9322534 C26.6812793,17.0116047 27.2950109,11.349103 24.8270477,6.9984159 L24.5221876,9.12099099 L23.5293865,8.98290525 L24.0247842,5.5248438 C24.0478493,5.3699905 24.1421153,5.23585007 24.2815085,5.16088924 C24.4209018,5.08592841 24.5893772,5.08099678 24.7317789,5.14609434 L28,6.63150237 L27.5788116,7.52708702 Z M4.87475377,5.06225657 C1.3467999,8.99671382 0.753124888,13.8760721 3.1879947,18.0748649 L3.47179542,15.8931102 L4.4666022,16.0183737 L4.00730633,19.5533686 C3.98724974,19.7101946 3.89097812,19.8482803 3.74857634,19.9242275 C3.67436696,19.9636805 3.59213495,19.9834071 3.50990294,19.9834071 C3.43569356,19.9834071 3.36148419,19.9676258 3.29228896,19.9350771 L0,18.3727355 L0.435227965,17.4850415 L2.17413416,18.3096106 C-0.315891265,13.7942069 0.362021418,8.60316946 4.12263171,4.41029461 C7.97048816,0.121746073 14.3875936,-1.20782233 19.7206404,1.16922504 L19.3074747,2.06776867 C14.3655313,-0.135685199 8.43279252,1.09722319 4.87475377,5.06225657 L4.87475377,5.06225657 Z M8.40872462,16.4898378 C8.40872462,15.8102587 8.97030909,15.2569295 9.66226138,15.2569295 C10.3532108,15.2569295 10.9157981,15.8102587 10.9157981,16.4898378 C10.9157981,17.1704033 10.3532108,17.7227462 9.66226138,17.7227462 C8.97030909,17.7227462 8.40872462,17.1704033 8.40872462,16.4898378 L8.40872462,16.4898378 Z M13.6896243,10.5028347 C13.8921958,10.561028 14.1017872,10.6024537 14.3214068,10.6024537 C14.5279897,10.6024537 14.7245442,10.5659596 14.914079,10.5146706 L16.9929444,14.7154361 C16.5687475,15.0251427 16.2588732,15.4749077 16.1375309,15.9966745 L11.857455,15.9966745 C11.7391211,15.4867436 11.4392751,15.0478282 11.0311235,14.7381216 L13.6896243,10.5028347 Z M14.3214068,7.14932389 C15.0133591,7.14932389 15.5759464,7.70265318 15.5759464,8.38223228 C15.5759464,9.06279771 15.0133591,9.616127 14.3214068,9.616127 C13.6304574,9.616127 13.0678701,9.06279771 13.0678701,8.38223228 C13.0678701,7.70265318 13.6304574,7.14932389 14.3214068,7.14932389 L14.3214068,7.14932389 Z M19.5862612,16.4898378 C19.5862612,17.1704033 19.0246768,17.7227462 18.3327245,17.7227462 C17.641775,17.7227462 17.0791877,17.1704033 17.0791877,16.4898378 C17.0791877,15.8102587 17.641775,15.2569295 18.3327245,15.2569295 C19.0246768,15.2569295 19.5862612,15.8102587 19.5862612,16.4898378 L19.5862612,16.4898378 Z M11.857455,16.9830012 L16.1375309,16.9830012 C16.366176,17.9693279 17.2627055,18.7090729 18.3327245,18.7090729 C19.5772358,18.7090729 20.5890906,17.7138693 20.5890906,16.4898378 C20.5890906,15.2667927 19.5772358,14.2706027 18.3327245,14.2706027 C18.1873142,14.2706027 18.0459153,14.2873703 17.9085276,14.3130148 L15.7985745,10.0481381 C16.2729129,9.64078516 16.5787758,9.04898914 16.5787758,8.38223228 C16.5787758,7.15820083 15.5659181,6.16299718 14.3214068,6.16299718 C13.0778984,6.16299718 12.0650407,7.15820083 12.0650407,8.38223228 C12.0650407,9.03320791 12.356864,9.61415434 12.8121486,10.0205209 L10.1165431,14.3159738 C9.96912718,14.286384 9.81769994,14.2706027 9.66226138,14.2706027 C8.41875291,14.2706027 7.4058952,15.2667927 7.4058952,16.4898378 C7.4058952,17.7138693 8.41875291,18.7090729 9.66226138,18.7090729 C10.7322804,18.7090729 11.6288099,17.9693279 11.857455,16.9830012 L11.857455,16.9830012 Z" id="AWS-AppSync-Icon_32_Squid"></path> </g> </g></svg>