<svg width="40" height="40" viewBox="0 0 40 40" fill="none" xmlns="http://www.w3.org/2000/svg">
<g clip-path="url(#clip0_23310_9456)">
<path d="M40 0H0V40H40V0Z" fill="#8C4FFF" fill-opacity="0.12"/>
<path fill-rule="evenodd" clip-rule="evenodd" d="M18.0273 25.5C18.0273 26.327 18.7003 27 19.5273 27C20.3543 27 21.0273 26.327 21.0273 25.5C21.0273 24.673 20.3543 24 19.5273 24C18.7003 24 18.0273 24.673 18.0273 25.5ZM17.0273 25.5C17.0273 24.122 18.1483 23 19.5273 23C20.9063 23 22.0273 24.122 22.0273 25.5C22.0273 26.707 21.1673 27.717 20.0273 27.949V30H19.0273V27.949C17.8873 27.717 17.0273 26.707 17.0273 25.5ZM29.3813 9.646L28.6733 10.354L31.3203 13H7.73431L10.3813 10.354L9.67331 9.646L5.82031 13.5L9.67331 17.354L10.3813 16.646L7.73431 14H31.3203L28.6733 16.646L29.3813 17.354L33.2343 13.5L29.3813 9.646ZM11.0273 33H28.0273V20H11.0273V33ZM25.0273 19H29.0273V34H10.0273V19H14.0273V15.083H15.0273V19H24.0273V15H25.0273V19ZM15.0273 12H14.0273V11.5C14.0273 8.467 16.4953 6 19.5273 6C22.5593 6 25.0273 8.467 25.0273 11.5V12H24.0273V11.5C24.0273 9.019 22.0083 7 19.5273 7C17.0463 7 15.0273 9.019 15.0273 11.5V12Z" fill="#8C4FFF"/>
</g>
<rect x="0.5" y="0.5" width="39" height="39" stroke="#8C4FFF"/>
<defs>
<clipPath id="clip0_23310_9456">
<rect width="40" height="40" fill="white"/>
</clipPath>
</defs>
</svg>
