<svg width="24" height="24" viewBox="0 0 24 24" fill="none" xmlns="http://www.w3.org/2000/svg">
<path d="M12.76 9.74988C13.8977 9.74988 14.82 8.82759 14.82 7.68988C14.82 6.55218 13.8977 5.62988 12.76 5.62988C11.6222 5.62988 10.7 6.55218 10.7 7.68988C10.7 8.82759 11.6222 9.74988 12.76 9.74988Z" fill="white"/>
<path d="M11.2399 18.37C12.3776 18.37 13.2999 17.4477 13.2999 16.31C13.2999 15.1723 12.3776 14.25 11.2399 14.25C10.1022 14.25 9.17993 15.1723 9.17993 16.31C9.17993 17.4477 10.1022 18.37 11.2399 18.37Z" fill="white"/>
<path d="M16.31 14.8202C17.4477 14.8202 18.37 13.8979 18.37 12.7602C18.37 11.6225 17.4477 10.7002 16.31 10.7002C15.1723 10.7002 14.25 11.6225 14.25 12.7602C14.25 13.8979 15.1723 14.8202 16.31 14.8202Z" fill="white"/>
<path d="M7.68988 13.2997C8.82759 13.2997 9.74988 12.3774 9.74988 11.2397C9.74988 10.102 8.82759 9.17969 7.68988 9.17969C6.55218 9.17969 5.62988 10.102 5.62988 11.2397C5.62988 12.3774 6.55218 13.2997 7.68988 13.2997Z" fill="white"/>
<path d="M9.05993 8.92992C9.68401 8.92992 10.1899 8.424 10.1899 7.79992C10.1899 7.17584 9.68401 6.66992 9.05993 6.66992C8.43585 6.66992 7.92993 7.17584 7.92993 7.79992C7.92993 8.424 8.43585 8.92992 9.05993 8.92992Z" fill="#DDDDDD"/>
<path d="M14.9401 17.3303C15.5641 17.3303 16.0701 16.8244 16.0701 16.2003C16.0701 15.5762 15.5641 15.0703 14.9401 15.0703C14.316 15.0703 13.8101 15.5762 13.8101 16.2003C13.8101 16.8244 14.316 17.3303 14.9401 17.3303Z" fill="#DDDDDD"/>
<path d="M7.79992 16.0696C8.424 16.0696 8.92992 15.5637 8.92992 14.9396C8.92992 14.3155 8.424 13.8096 7.79992 13.8096C7.17584 13.8096 6.66992 14.3155 6.66992 14.9396C6.66992 15.5637 7.17584 16.0696 7.79992 16.0696Z" fill="#DDDDDD"/>
<path d="M16.2001 10.1897C16.8242 10.1897 17.3301 9.68377 17.3301 9.05969C17.3301 8.43561 16.8242 7.92969 16.2001 7.92969C15.576 7.92969 15.0701 8.43561 15.0701 9.05969C15.0701 9.68377 15.576 10.1897 16.2001 10.1897Z" fill="#DDDDDD"/>
<path d="M11.1699 5.55957C11.9983 5.55957 12.6699 4.888 12.6699 4.05957C12.6699 3.23114 11.9983 2.55957 11.1699 2.55957C10.3415 2.55957 9.66992 3.23114 9.66992 4.05957C9.66992 4.888 10.3415 5.55957 11.1699 5.55957Z" fill="#DDDDDD"/>
<path d="M12.8301 21.4404C13.6585 21.4404 14.3301 20.7689 14.3301 19.9404C14.3301 19.112 13.6585 18.4404 12.8301 18.4404C12.0017 18.4404 11.3301 19.112 11.3301 19.9404C11.3301 20.7689 12.0017 21.4404 12.8301 21.4404Z" fill="#DDDDDD"/>
<path d="M4.06006 14.3301C4.88849 14.3301 5.56006 13.6585 5.56006 12.8301C5.56006 12.0017 4.88849 11.3301 4.06006 11.3301C3.23163 11.3301 2.56006 12.0017 2.56006 12.8301C2.56006 13.6585 3.23163 14.3301 4.06006 14.3301Z" fill="#DDDDDD"/>
<path d="M19.9399 12.6699C20.7684 12.6699 21.4399 11.9983 21.4399 11.1699C21.4399 10.3415 20.7684 9.66992 19.9399 9.66992C19.1115 9.66992 18.4399 10.3415 18.4399 11.1699C18.4399 11.9983 19.1115 12.6699 19.9399 12.6699Z" fill="#DDDDDD"/>
<path d="M16.5401 6.83996C17.4735 6.83996 18.2301 6.08332 18.2301 5.14996C18.2301 4.2166 17.4735 3.45996 16.5401 3.45996C15.6067 3.45996 14.8501 4.2166 14.8501 5.14996C14.8501 6.08332 15.6067 6.83996 16.5401 6.83996Z" fill="white"/>
<path d="M7.46002 20.5402C8.39338 20.5402 9.15002 19.7835 9.15002 18.8502C9.15002 17.9168 8.39338 17.1602 7.46002 17.1602C6.52666 17.1602 5.77002 17.9168 5.77002 18.8502C5.77002 19.7835 6.52666 20.5402 7.46002 20.5402Z" fill="white"/>
<path d="M5.23004 9.04016C6.1634 9.04016 6.92004 8.28352 6.92004 7.35016C6.92004 6.4168 6.1634 5.66016 5.23004 5.66016C4.29668 5.66016 3.54004 6.4168 3.54004 7.35016C3.54004 8.28352 4.29668 9.04016 5.23004 9.04016Z" fill="white"/>
<path d="M18.7701 18.34C19.7034 18.34 20.4601 17.5833 20.4601 16.65C20.4601 15.7166 19.7034 14.96 18.7701 14.96C17.8367 14.96 17.0801 15.7166 17.0801 16.65C17.0801 17.5833 17.8367 18.34 18.7701 18.34Z" fill="white"/>
</svg>
