<svg width="150" height="133" viewBox="0 0 150 133" fill="none" xmlns="http://www.w3.org/2000/svg">
<g clip-path="url(#clip0_10811_34061)">
<path d="M96.8163 8.24706C96.055 5.44367 94.2235 3.04924 91.7142 1.57673C90.4646 0.855578 89.0844 0.387935 87.6531 0.200682C86.2217 0.0134287 84.7673 0.110256 83.3736 0.4856C81.9798 0.860943 80.6742 1.5074 79.5317 2.38782C78.3892 3.26823 77.4323 4.36525 76.7161 5.61581L75.0431 8.55444L73.3733 5.61581C71.9011 3.10482 69.4971 1.27318 66.6815 0.517263C63.866 -0.238654 60.8653 0.141957 58.3289 1.57673C55.8083 3.04239 53.972 5.44418 53.2214 8.25692C52.4709 11.0697 52.8672 14.0645 54.3236 16.5865L62.3742 30.4989L32.6398 81.759H10.996C8.07966 81.759 5.28279 82.9148 3.22065 84.9722C1.1585 87.0296 0 89.8201 0 92.7297C0 95.6393 1.1585 98.4297 3.22065 100.487C5.28279 102.545 8.07966 103.7 10.996 103.7H94.5303L81.8182 81.759H58.0208L95.7164 16.5926C96.4576 15.3488 96.9373 13.9674 97.1264 12.5327C97.3155 11.0979 97.21 9.63982 96.8163 8.24706Z" fill="#00B39F"/>
<path d="M139.001 81.759H117.36L92.7707 39.2749L80.0586 61.2194L118.238 127.182C118.951 128.438 119.912 129.537 121.061 130.414C122.21 131.29 123.525 131.927 124.927 132.284C125.857 132.545 126.819 132.677 127.786 132.678C129.719 132.681 131.617 132.167 133.282 131.187C135.799 129.729 137.634 127.335 138.385 124.53C139.136 121.724 138.741 118.736 137.288 116.22L130.072 103.697H139.007C141.923 103.697 144.72 102.542 146.782 100.484C148.844 98.4267 150.003 95.6363 150.003 92.7267C150.003 89.817 148.844 87.0266 146.782 84.9692C144.72 82.9118 141.923 81.756 139.007 81.756L139.001 81.759Z" fill="#00D3A9"/>
<path d="M14.8693 112.479L12.7126 116.208C11.9898 117.455 11.521 118.832 11.3333 120.261C11.1455 121.689 11.2426 123.14 11.6188 124.531C11.995 125.922 12.6429 127.225 13.5254 128.365C14.4079 129.505 15.5075 130.46 16.761 131.175C18.4293 132.142 20.3282 132.642 22.2575 132.623C24.1915 132.624 26.0918 132.118 27.7681 131.155C29.4444 130.193 30.8377 128.808 31.8085 127.139L40.2534 112.479H14.8693Z" fill="#00B39F"/>
</g>
<defs>
<clipPath id="clip0_10811_34061">
<rect width="150" height="132.558" fill="white" transform="translate(0 0.107422)"/>
</clipPath>
</defs>
</svg>
