<svg width="150" height="134" viewBox="0 0 150 134" fill="none" xmlns="http://www.w3.org/2000/svg">
<g clip-path="url(#clip0_10811_34061)">
<path d="M96.8163 8.86064C96.055 6.05725 94.2235 3.66283 91.7142 2.19032C90.4646 1.46916 89.0844 1.00152 87.6531 0.814269C86.2217 0.627015 84.7673 0.723843 83.3736 1.09919C81.9798 1.47453 80.6742 2.12099 79.5317 3.0014C78.3892 3.88182 77.4323 4.97884 76.7161 6.2294L75.0431 9.16803L73.3733 6.2294C71.9011 3.71841 69.4971 1.88677 66.6815 1.13085C63.866 0.374932 60.8653 0.755544 58.3289 2.19032C55.8083 3.65598 53.972 6.05777 53.2214 8.87051C52.4709 11.6832 52.8672 14.6781 54.3236 17.2001L62.3742 31.1125L32.6398 82.3726H10.996C8.07966 82.3726 5.28279 83.5284 3.22065 85.5858C1.1585 87.6432 0 90.4336 0 93.3432C0 96.2529 1.1585 99.0433 3.22065 101.101C5.28279 103.158 8.07966 104.314 10.996 104.314H94.5303L81.8182 82.3726H58.0208L95.7164 17.2062C96.4576 15.9623 96.9373 14.581 97.1264 13.1463C97.3155 11.7115 97.21 10.2534 96.8163 8.86064Z" fill="#00B39F"/>
<path d="M139.001 82.3725H117.36L92.7707 39.8884L80.0586 61.8328L118.238 127.795C118.951 129.051 119.912 130.15 121.061 131.027C122.21 131.904 123.525 132.54 124.927 132.898C125.857 133.158 126.819 133.291 127.786 133.291C129.719 133.295 131.617 132.78 133.282 131.801C135.799 130.343 137.634 127.948 138.385 125.143C139.136 122.338 138.741 119.349 137.288 116.834L130.072 104.311H139.007C141.923 104.311 144.72 103.155 146.782 101.098C148.844 99.0402 150.003 96.2497 150.003 93.3401C150.003 90.4305 148.844 87.6401 146.782 85.5827C144.72 83.5253 141.923 82.3694 139.007 82.3694L139.001 82.3725Z" fill="#00D3A9"/>
<path d="M14.8693 113.093L12.7126 116.822C11.9898 118.069 11.521 119.446 11.3333 120.874C11.1455 122.302 11.2426 123.754 11.6188 125.144C11.995 126.535 12.6429 127.838 13.5254 128.978C14.4079 130.118 15.5075 131.073 16.761 131.788C18.4293 132.755 20.3282 133.256 22.2575 133.236C24.1915 133.237 26.0918 132.731 27.7681 131.769C29.4444 130.806 30.8377 129.421 31.8085 127.752L40.2534 113.093H14.8693Z" fill="#00B39F"/>
</g>
<defs>
<clipPath id="clip0_10811_34061">
<rect width="150" height="132.558" fill="white" transform="translate(0 0.720947)"/>
</clipPath>
</defs>
</svg>
