<svg width="150" height="151" viewBox="0 0 150 151" fill="none" xmlns="http://www.w3.org/2000/svg">
<line x1="59.75" y1="36.4819" x2="59.75" y2="11.4819" stroke="#00D3A9" stroke-width="5" stroke-linecap="round"/>
<line x1="70" y1="36.4819" x2="70" y2="11.4819" stroke="#00D3A9" stroke-width="5" stroke-linecap="round"/>
<line x1="80.25" y1="36.4819" x2="80.25" y2="11.4819" stroke="#00D3A9" stroke-width="5" stroke-linecap="round"/>
<line x1="90.5" y1="36.4819" x2="90.5" y2="11.4819" stroke="#00D3A9" stroke-width="5" stroke-linecap="round"/>
<line x1="59.75" y1="136.482" x2="59.75" y2="111.482" stroke="#00D3A9" stroke-width="5" stroke-linecap="round"/>
<line x1="70" y1="136.482" x2="70" y2="111.482" stroke="#00D3A9" stroke-width="5" stroke-linecap="round"/>
<line x1="80.25" y1="136.482" x2="80.25" y2="111.482" stroke="#00D3A9" stroke-width="5" stroke-linecap="round"/>
<line x1="90.5" y1="136.482" x2="90.5" y2="111.482" stroke="#00D3A9" stroke-width="5" stroke-linecap="round"/>
<line x1="12.5" y1="60.7319" x2="37.5" y2="60.7319" stroke="#00D3A9" stroke-width="5" stroke-linecap="round"/>
<line x1="12.5" y1="70.9819" x2="37.5" y2="70.9819" stroke="#00D3A9" stroke-width="5" stroke-linecap="round"/>
<line x1="12.5" y1="81.2319" x2="37.5" y2="81.2319" stroke="#00D3A9" stroke-width="5" stroke-linecap="round"/>
<line x1="12.5" y1="91.4819" x2="37.5" y2="91.4819" stroke="#00D3A9" stroke-width="5" stroke-linecap="round"/>
<line x1="112.5" y1="60.7319" x2="137.5" y2="60.7319" stroke="#00D3A9" stroke-width="5" stroke-linecap="round"/>
<line x1="112.5" y1="70.9819" x2="137.5" y2="70.9819" stroke="#00D3A9" stroke-width="5" stroke-linecap="round"/>
<line x1="112.5" y1="81.2319" x2="137.5" y2="81.2319" stroke="#00D3A9" stroke-width="5" stroke-linecap="round"/>
<line x1="112.5" y1="91.4819" x2="137.5" y2="91.4819" stroke="#00D3A9" stroke-width="5" stroke-linecap="round"/>
<rect x="30" y="30.8352" width="90" height="90" rx="10" fill="#00B39F"/>
<path d="M60.9666 51.2437C63.2893 49.4347 66.3266 48.4353 69.3444 48.4353C71.1507 48.4353 72.6107 49.0551 73.719 50.0405C74.0177 50.3057 74.2829 50.5933 74.5202 50.8892C74.7575 50.5933 75.0227 50.3057 75.3214 50.0405C76.4297 49.0551 77.8897 48.4353 79.6959 48.4353C82.7137 48.4353 85.7539 49.4347 88.071 51.2437C89.88 52.6479 91.2953 54.5881 91.8509 56.9303C93.0234 57.1258 94.0647 57.7232 94.9077 58.5132C96.2478 59.7723 97.2053 61.5924 97.8055 63.4656C98.4169 65.3668 98.7212 67.5024 98.629 69.5543C98.5816 70.6039 98.428 71.6759 98.1349 72.7005L98.3164 72.7842C99.3493 73.27 100.187 74.0321 100.815 75.0455C102.001 76.9578 102.42 79.7103 102.42 83.2195C102.42 87.2534 100.876 89.992 98.8943 91.6922C97.8619 92.5776 96.6535 93.2341 95.3488 93.6184C94.8755 95.8 93.9027 97.842 92.5069 99.5842C90.4885 102.108 87.3507 104.241 83.1353 104.241C79.7574 104.241 77.0969 102.37 75.3884 100.584C75.0854 100.264 74.7967 99.9318 74.523 99.587C74.2483 99.9309 73.9587 100.262 73.6548 100.581C71.9463 102.373 69.2858 104.241 65.9079 104.241C61.6897 104.241 58.5518 102.108 56.5363 99.5842C55.1384 97.8426 54.1637 95.8005 53.6888 93.6184C52.3851 93.2338 51.1777 92.5773 50.1461 91.6922C48.164 89.9893 46.623 87.2534 46.623 83.2195C46.623 79.7103 47.0418 76.9578 48.2255 75.0455C48.8535 74.0043 49.7902 73.1847 50.9055 72.7005C50.6186 71.6746 50.4528 70.6187 50.4113 69.5543C50.3192 67.5024 50.6235 65.3668 51.2349 63.4656C51.8351 61.5952 52.7898 59.7723 54.1326 58.5132C54.9725 57.6946 56.0363 57.1438 57.1895 56.9303C57.7478 54.5853 59.1604 52.6479 60.9666 51.2437ZM63.5406 54.5463C62.0163 55.7327 61.123 57.3128 61.123 59.133C61.1227 59.4645 61.0437 59.7913 60.8925 60.0864C60.7412 60.3815 60.5221 60.6364 60.253 60.8302C59.984 61.024 59.6727 61.1512 59.345 61.2012C59.0172 61.2512 58.6822 61.2226 58.3676 61.1178C57.9851 60.9894 57.5803 61.0201 56.9997 61.5673C56.352 62.1731 55.696 63.2702 55.2214 64.7442C54.7466 66.2373 54.5351 67.8016 54.5961 69.3672C54.6658 70.9194 55.0343 72.2091 55.615 73.0801C55.7111 73.2244 55.7889 73.3801 55.8467 73.5435H58.8673C60.8772 73.5431 62.8128 74.3034 64.2851 75.6716C65.7574 77.0398 66.6573 78.9146 66.804 80.9191C68.0066 81.399 69.0051 82.2819 69.6285 83.4168C70.2518 84.5516 70.4614 85.8679 70.2213 87.1402C69.9812 88.4126 69.3064 89.5619 68.3123 90.3915C67.3182 91.2212 66.0666 91.6795 64.7719 91.6881C63.4771 91.6967 62.2196 91.255 61.2146 90.4386C60.2095 89.6223 59.5195 88.482 59.2625 87.2129C59.0056 85.9439 59.1977 84.625 59.8059 83.4819C60.4142 82.3389 61.4008 81.4428 62.597 80.947C62.4644 80.0528 62.0147 79.236 61.3301 78.6456C60.6454 78.0552 59.7714 77.7306 58.8673 77.731H51.5392C51.1204 78.7025 50.8106 80.3803 50.8106 83.2195C50.8106 86.0698 51.8463 87.6331 52.8736 88.5153C53.9986 89.4784 55.2353 89.7296 55.5927 89.7296C56.148 89.7296 56.6805 89.9502 57.0732 90.3429C57.4658 90.7355 57.6864 91.2681 57.6864 91.8234C57.6864 92.9959 58.3341 95.1259 59.8081 96.9684C61.2263 98.7467 63.2474 100.053 65.9079 100.053C67.6862 100.053 69.3221 99.0538 70.6258 97.6915C71.2567 97.027 71.7481 96.3375 72.0719 95.7792C72.1944 95.5704 72.3017 95.353 72.3929 95.1287L72.4097 95.0896V68.6581H69.9084C69.4225 69.8593 68.5339 70.8541 67.395 71.472C66.2561 72.0899 64.9378 72.2924 63.666 72.0449C62.3941 71.7974 61.2479 71.1153 60.4238 70.1154C59.5998 69.1155 59.1491 67.8601 59.1491 66.5644C59.1491 65.2687 59.5998 64.0133 60.4238 63.0134C61.2479 62.0135 62.3941 61.3314 63.666 61.0839C64.9378 60.8364 66.2561 61.0389 67.395 61.6568C68.5339 62.2747 69.4225 63.2695 69.9084 64.4706H72.4097V57.3854L72.4013 57.2263C72.3536 56.3665 72.1844 55.5178 71.8988 54.7054C71.6476 54.0354 71.3209 53.5133 70.9357 53.17C70.5923 52.8629 70.1177 52.6228 69.3444 52.6228C67.206 52.6228 65.0871 53.3431 63.5378 54.5491L63.5406 54.5463ZM76.6335 90.2935V95.0896L76.6474 95.1287C76.7033 95.2767 76.8094 95.4972 76.9713 95.7792C77.2923 96.3375 77.7837 97.027 78.4174 97.6915C79.7183 99.0538 81.357 100.053 83.1353 100.053C85.793 100.053 87.8141 98.7467 89.2351 96.9684C90.7063 95.1259 91.3568 92.9931 91.3568 91.8234C91.3568 91.2681 91.5773 90.7355 91.97 90.3429C92.3626 89.9502 92.8952 89.7296 93.4505 89.7296C93.8078 89.7296 95.0417 89.4784 96.1696 88.5153C97.1941 87.6331 98.2298 86.0698 98.2298 83.2195C98.2298 79.8471 97.7888 78.1107 97.2555 77.2537C97.0887 76.9573 96.8355 76.7187 96.5297 76.5697C96.2478 76.4357 95.8234 76.3352 95.1674 76.3352C94.7884 76.3352 94.4166 76.2323 94.0915 76.0376C93.7664 75.8428 93.5003 75.5635 93.3215 75.2294C93.1427 74.8953 93.0579 74.5189 93.0762 74.1404C93.0945 73.7619 93.2152 73.3954 93.4254 73.0801C94.006 72.2063 94.3745 70.9194 94.4471 69.3672C94.5072 67.8015 94.2946 66.2372 93.819 64.7442C93.3444 63.2702 92.6884 62.1759 92.0435 61.5673C91.46 61.0201 91.0553 60.9894 90.6756 61.1178C90.3608 61.2232 90.0255 61.2522 89.6974 61.2024C89.3692 61.1527 89.0576 61.0256 88.7882 60.8318C88.5188 60.6379 88.2993 60.3827 88.1479 60.0874C87.9965 59.792 87.9175 59.4649 87.9174 59.133C87.9174 57.3128 87.0241 55.7327 85.4998 54.5463C83.956 53.3431 81.8344 52.62 79.6932 52.62C78.9227 52.62 78.4509 52.8629 78.1047 53.1672C77.6676 53.5958 77.3385 54.122 77.1444 54.7026C76.8313 55.5637 76.6588 56.4695 76.6335 57.3854V86.106H78.409C79.4085 86.106 80.3671 85.709 81.0739 85.0022C81.7807 84.2954 82.1777 83.3368 82.1777 82.3373V77.3263C80.9766 76.8404 79.9818 75.9518 79.3639 74.8129C78.746 73.674 78.5435 72.3557 78.791 71.0839C79.0385 69.812 79.7206 68.6658 80.7205 67.8418C81.7204 67.0177 82.9758 66.567 84.2715 66.567C85.5672 66.567 86.8226 67.0177 87.8225 67.8418C88.8224 68.6658 89.5045 69.812 89.752 71.0839C89.9995 72.3557 89.797 73.674 89.1791 74.8129C88.5612 75.9518 87.5664 76.8404 86.3652 77.3263V82.3373C86.3652 84.4474 85.527 86.4711 84.0349 87.9632C82.5428 89.4553 80.5191 90.2935 78.409 90.2935H76.6335ZM64.7298 65.1686C64.3596 65.1686 64.0046 65.3156 63.7428 65.5774C63.481 65.8391 63.334 66.1942 63.334 66.5644C63.334 66.9346 63.481 67.2896 63.7428 67.5514C64.0046 67.8132 64.3596 67.9602 64.7298 67.9602C65.1 67.9602 65.455 67.8132 65.7168 67.5514C65.9786 67.2896 66.1256 66.9346 66.1256 66.5644C66.1256 66.1942 65.9786 65.8391 65.7168 65.5774C65.455 65.3156 65.1 65.1686 64.7298 65.1686ZM63.334 86.106C63.334 86.4762 63.481 86.8313 63.7428 87.0931C64.0046 87.3548 64.3596 87.5019 64.7298 87.5019C65.1 87.5019 65.455 87.3548 65.7168 87.0931C65.9786 86.8313 66.1256 86.4762 66.1256 86.106C66.1256 85.7358 65.9786 85.3808 65.7168 85.119C65.455 84.8573 65.1 84.7102 64.7298 84.7102C64.3596 84.7102 64.0046 84.8573 63.7428 85.119C63.481 85.3808 63.334 85.7358 63.334 86.106ZM82.8757 72.1477C82.8757 72.5179 83.0227 72.8729 83.2845 73.1347C83.5463 73.3965 83.9013 73.5435 84.2715 73.5435C84.6417 73.5435 84.9967 73.3965 85.2585 73.1347C85.5203 72.8729 85.6673 72.5179 85.6673 72.1477C85.6673 71.7775 85.5203 71.4225 85.2585 71.1607C84.9967 70.8989 84.6417 70.7519 84.2715 70.7519C83.9013 70.7519 83.5463 70.8989 83.2845 71.1607C83.0227 71.4225 82.8757 71.7775 82.8757 72.1477Z" fill="#FBFBFB"/>
</svg>
