<svg width="151" height="151" viewBox="0 0 151 151" fill="none" xmlns="http://www.w3.org/2000/svg">
<g clip-path="url(#clip0_10901_34073)">
<path opacity="0.2" d="M46.7656 42.4227H55.3037V73.7289H46.7656V42.4227Z" fill="#00B39F"/>
<path d="M45.3431 42.4227V49.5377H38.228C37.8506 49.5377 37.4887 49.6877 37.2218 49.9545C36.9549 50.2214 36.805 50.5834 36.805 50.9608V72.306H35.382C35.0046 72.306 34.6426 72.4559 34.3758 72.7227C34.1089 72.9896 33.959 73.3516 33.959 73.729C33.959 74.1064 34.1089 74.4683 34.3758 74.7352C34.6426 75.0021 35.0046 75.152 35.382 75.152H66.6883C67.0657 75.152 67.4276 75.0021 67.6945 74.7352C67.9614 74.4683 68.1113 74.1064 68.1113 73.729C68.1113 73.3516 67.9614 72.9896 67.6945 72.7227C67.4276 72.4559 67.0657 72.306 66.6883 72.306H65.2653V56.6528C65.2653 56.2754 65.1153 55.9135 64.8485 55.6466C64.5816 55.3797 64.2197 55.2298 63.8423 55.2298H56.7272V42.4227C56.7272 42.0453 56.5773 41.6833 56.3104 41.4165C56.0435 41.1496 55.6816 40.9997 55.3042 40.9997H46.7661C46.3887 40.9997 46.0267 41.1496 45.7599 41.4165C45.493 41.6833 45.3431 42.0453 45.3431 42.4227ZM39.651 52.3838H45.3431V72.306H39.651V52.3838ZM62.4192 58.0758V72.306H56.7272V58.0758H62.4192ZM53.8812 43.8457V72.306H48.1891V43.8457H53.8812Z" fill="#00B39F"/>
<path d="M93.2001 13.9449H92.6379V24.0641H102.757V23.5019C102.757 20.9672 101.75 18.5364 99.958 16.7441C98.1657 14.9518 95.7348 13.9449 93.2001 13.9449Z" fill="#00D3A9"/>
<path d="M101.717 23.783H92.918V14.9838C91.6526 15.2843 90.4903 15.9171 89.551 16.8168C88.6118 17.7165 87.9297 18.8506 87.5752 20.1019C87.2206 21.3533 87.2064 22.6766 87.534 23.9353C87.8616 25.1939 88.5192 26.3424 89.4389 27.2621C90.3586 28.1817 91.507 28.8393 92.7657 29.167C94.0244 29.4946 95.3477 29.4804 96.599 29.1258C97.8504 28.7712 98.9845 28.0891 99.8842 27.1499C100.784 26.2107 101.417 25.0484 101.717 23.783Z" fill="#00B39F"/>
<path d="M99.9452 63.1706C97.9231 63.1706 95.9838 62.3673 94.5539 60.9374C93.124 59.5075 92.3207 57.5682 92.3207 55.5461C92.3207 53.5239 93.124 51.5846 94.5539 50.1547C95.9838 48.7248 97.9231 47.9215 99.9452 47.9215C101.967 47.9215 103.907 48.7248 105.337 50.1547C106.766 51.5846 107.57 53.5239 107.57 55.5461C107.57 57.5682 106.766 59.5075 105.337 60.9374C103.907 62.3673 101.967 63.1706 99.9452 63.1706ZM116.131 57.6591C116.218 56.962 116.284 56.2649 116.284 55.5461C116.284 54.8272 116.218 54.1083 116.131 53.3676L120.728 49.8168C121.141 49.49 121.25 48.9018 120.989 48.4226L116.632 40.8852C116.371 40.4059 115.783 40.2098 115.303 40.4059L109.879 42.5843C108.746 41.7348 107.57 40.9941 106.197 40.4495L105.391 34.6766C105.347 34.42 105.213 34.1874 105.014 34.0199C104.815 33.8525 104.562 33.761 104.302 33.7617H95.5884C95.0438 33.7617 94.5863 34.1538 94.4991 34.6766L93.6931 40.4495C92.3207 40.9941 91.1444 41.7348 90.0116 42.5843L84.5872 40.4059C84.108 40.2098 83.5198 40.4059 83.2584 40.8852L78.9015 48.4226C78.6183 48.9018 78.749 49.49 79.1629 49.8168L83.7594 53.3676C83.6723 54.1083 83.607 54.8272 83.607 55.5461C83.607 56.2649 83.6723 56.962 83.7594 57.6591L79.1629 61.2754C78.749 61.6021 78.6183 62.1903 78.9015 62.6696L83.2584 70.207C83.5198 70.6862 84.108 70.8605 84.5872 70.6862L90.0116 68.486C91.1444 69.3574 92.3207 70.098 93.6931 70.6426L94.4991 76.4155C94.5863 76.9383 95.0438 77.3304 95.5884 77.3304H104.302C104.847 77.3304 105.304 76.9383 105.391 76.4155L106.197 70.6426C107.57 70.0762 108.746 69.3574 109.879 68.486L115.303 70.6862C115.783 70.8605 116.371 70.6862 116.632 70.207L120.989 62.6696C121.25 62.1903 121.141 61.6021 120.728 61.2754L116.131 57.6591Z" fill="#00D3A9"/>
<path d="M85.0404 144.089C84.4272 144.089 83.8181 144.012 83.2365 143.862L64.0867 138.943C62.9479 138.647 61.9586 138.082 61.2595 137.328C60.5603 136.573 60.1869 135.668 60.1922 134.74V112.75C60.187 112.741 60.1797 112.733 60.1707 112.726L19.8761 76.4902C18.9827 75.6865 18.4066 74.7018 18.2164 73.653C18.0263 72.6041 18.2299 71.5351 18.8032 70.5729C19.3765 69.6108 20.2954 68.7958 21.4508 68.2249C22.6061 67.6539 23.9494 67.3509 25.3212 67.3518H125.658C127.029 67.3509 128.373 67.6539 129.528 68.2249C130.683 68.7958 131.602 69.6108 132.176 70.5729C132.749 71.5351 132.952 72.6041 132.762 73.653C132.572 74.7018 131.996 75.6865 131.103 76.4902L90.7961 112.73C90.7878 112.737 90.7806 112.746 90.7746 112.754V139.662C90.7768 140.244 90.6299 140.82 90.3426 141.358C90.0552 141.896 89.6329 142.385 89.1 142.796C88.5671 143.208 87.9341 143.534 87.2374 143.756C86.5406 143.977 85.794 144.091 85.0404 144.089Z" fill="#00B39F"/>
<path d="M62.2082 28.5128C60.7675 28.2328 59.497 27.3919 58.6763 26.1751C57.8556 24.9583 57.5518 23.4653 57.8319 22.0246C58.1119 20.5839 58.9528 19.3134 60.1696 18.4927C61.3864 17.672 62.8793 17.3682 64.3201 17.6483C65.7608 17.9283 67.0313 18.7692 67.852 19.986C68.6727 21.2028 68.9765 22.6957 68.6964 24.1365C68.4164 25.5772 67.5755 26.8477 66.3587 27.6684C65.1419 28.4891 63.649 28.7929 62.2082 28.5128ZM74.5034 26.8276C74.6621 26.343 74.8052 25.8554 74.9047 25.3432C75.0043 24.8311 75.0573 24.3098 75.0978 23.77L78.8644 21.8767C79.2046 21.7012 79.3636 21.2973 79.2437 20.9196L77.1834 14.946C77.0636 14.5684 76.6717 14.3472 76.303 14.4206L72.1367 15.2214C71.4473 14.4592 70.7117 13.7686 69.8093 13.1905L70.0346 8.96589C70.0386 8.77695 69.9756 8.5927 69.8567 8.44577C69.7379 8.29884 69.5708 8.19873 69.3852 8.16317L63.1769 6.9564C62.7889 6.88098 62.4087 7.09699 62.2742 7.45742L60.9004 11.4588C59.8472 11.6568 58.9065 12.0215 57.9818 12.47L54.4188 10.1667C54.1045 9.96062 53.6583 10.0189 53.4056 10.3241L49.2576 15.0909C48.9895 15.3931 49.0012 15.8303 49.2508 16.1204L52.0339 19.2869C51.8693 19.8025 51.7231 20.3057 51.6236 20.8178C51.524 21.33 51.474 21.8357 51.4396 22.3445L47.6639 24.2844C47.3237 24.4598 47.1492 24.8608 47.2846 25.2415L49.3449 31.215C49.4647 31.5927 49.8597 31.7983 50.2252 31.7405L54.3946 30.9242C55.081 31.7019 55.8166 32.3925 56.719 32.9706L56.4937 37.1952C56.4834 37.5798 56.755 37.9225 57.1431 37.9979L63.3514 39.2047C63.7394 39.2801 64.1196 39.0641 64.2541 38.7037L65.6279 34.7023C66.6841 34.4888 67.6218 34.1395 68.5496 33.6756L72.1095 35.9944C72.4268 36.1849 72.87 36.1422 73.1227 35.837L77.2707 31.0702C77.5233 30.7649 77.5271 30.3308 77.2775 30.0407L74.5034 26.8276Z" fill="#00D3A9"/>
</g>
<defs>
<clipPath id="clip0_10901_34073">
<rect width="150" height="150" fill="white" transform="translate(0.48999 0.835205)"/>
</clipPath>
</defs>
</svg>
