<svg width="151" height="120" viewBox="0 0 151 120" fill="none" xmlns="http://www.w3.org/2000/svg">
<path opacity="0.8" d="M90.5487 67.1381L98.4478 71.082C100.815 72.4436 101.847 75.3312 100.909 77.9135C98.8229 83.5947 94.721 88.8063 90.9238 93.3607C89.1893 95.45 86.189 95.9665 83.8216 94.6049L77.0007 90.6609C73.2504 93.8771 68.8907 96.436 64.1325 98.1028V105.991C64.1325 108.714 62.187 111.061 59.5149 111.531C53.7488 112.517 47.7015 112.564 41.7244 111.531C39.0289 111.061 37.0365 108.737 37.0365 105.991V98.1028C32.2783 96.4125 27.9186 93.8771 24.1683 90.6609L17.3474 94.5814C15.0034 95.943 11.9798 95.4265 10.2452 93.3372C6.44805 88.7829 2.4399 83.5712 0.353792 77.9135C-0.583785 75.3547 0.44755 72.4671 2.81493 71.082L10.6203 67.1381C9.70613 62.2316 9.70613 57.1843 10.6203 52.2544L2.81493 48.287C0.44755 46.9254 -0.607224 44.0378 0.353792 41.4789C2.4399 35.7978 6.44805 30.5861 10.2452 26.0318C11.9798 23.9424 14.98 23.426 17.3474 24.7876L24.1683 28.7315C27.9186 25.5153 32.2783 22.9565 37.0365 21.2897V13.3783C37.0365 10.6786 38.9585 8.33098 41.6306 7.86146C47.3967 6.87547 53.4676 6.82852 59.4446 7.83799C62.1401 8.3075 64.1325 10.6316 64.1325 13.3783V21.2662C68.8907 22.9565 73.2504 25.4919 77.0007 28.7081L83.8216 24.7641C86.1656 23.4025 89.1893 23.919 90.9238 26.0083C94.721 30.5627 98.7057 35.7743 100.792 41.4555C101.729 44.0143 100.815 46.9019 98.4478 48.287L90.5487 52.2309C91.4629 57.1608 91.4629 62.2081 90.5487 67.1381ZM62.984 72.0915C76.8601 54.0151 56.2568 33.3798 38.2085 47.2775C24.3323 65.3539 44.9356 85.9892 62.984 72.0915Z" fill="#00B39F"/>
<path opacity="0.8" d="M120.534 44.8126L118.612 48.1696C117.909 49.4139 116.409 49.9303 115.073 49.4373C112.307 48.4044 109.775 46.9254 107.549 45.0708C106.47 44.1787 106.189 42.6058 106.892 41.3851L108.814 38.028C107.197 36.15 105.931 33.9667 105.088 31.5956H101.22C99.8137 31.5956 98.5948 30.5862 98.3604 29.1776C97.8916 26.3605 97.8682 23.4026 98.3604 20.4681C98.5948 19.0595 99.8137 18.0266 101.22 18.0266H105.088C105.931 15.6555 107.197 13.4723 108.814 11.5942L106.892 8.23713C106.189 7.01639 106.447 5.4435 107.549 4.55142C109.775 2.69682 112.33 1.21784 115.073 0.1849C116.409 -0.308094 117.909 0.208376 118.612 1.4526L120.534 4.80965C122.995 4.36361 125.503 4.36361 127.964 4.80965L129.886 1.4526C130.59 0.208376 132.09 -0.308094 133.426 0.1849C136.192 1.21784 138.723 2.69682 140.95 4.55142C142.028 5.4435 142.309 7.01639 141.606 8.23713L139.684 11.5942C141.301 13.4723 142.567 15.6555 143.411 18.0266H147.279C148.685 18.0266 149.904 19.036 150.138 20.4446C150.607 23.2617 150.63 26.2197 150.138 29.1542C149.904 30.5627 148.685 31.5956 147.279 31.5956H143.411C142.567 33.9667 141.301 36.15 139.684 38.028L141.606 41.3851C142.309 42.6058 142.052 44.1787 140.95 45.0708C138.723 46.9254 136.168 48.4044 133.426 49.4373C132.09 49.9303 130.59 49.4139 129.886 48.1696L127.964 44.8126C125.527 45.2586 122.995 45.2586 120.534 44.8126ZM118.073 31.0087C127.097 37.9576 137.387 27.6517 130.449 18.6135C121.425 11.6411 111.135 21.9705 118.073 31.0087ZM120.534 114.982L118.612 118.339C117.909 119.583 116.409 120.1 115.073 119.607C112.307 118.574 109.775 117.095 107.549 115.24C106.47 114.348 106.189 112.775 106.892 111.555L108.814 108.197C107.197 106.319 105.931 104.136 105.088 101.765H101.22C99.8137 101.765 98.5948 100.756 98.3604 99.3471C97.8916 96.53 97.8682 93.572 98.3604 90.6375C98.5948 89.229 99.8137 88.196 101.22 88.196H105.088C105.931 85.825 107.197 83.6417 108.814 81.7636L106.892 78.4066C106.189 77.1858 106.447 75.6129 107.549 74.7209C109.775 72.8663 112.33 71.3873 115.073 70.3543C116.409 69.8613 117.909 70.3778 118.612 71.622L120.534 74.9791C122.995 74.5331 125.503 74.5331 127.964 74.9791L129.886 71.622C130.59 70.3778 132.09 69.8613 133.426 70.3543C136.192 71.3873 138.723 72.8663 140.95 74.7209C142.028 75.6129 142.309 77.1858 141.606 78.4066L139.684 81.7636C141.301 83.6417 142.567 85.825 143.411 88.196H147.279C148.685 88.196 149.904 89.2055 150.138 90.614C150.607 93.4311 150.63 96.3891 150.138 99.3236C149.904 100.732 148.685 101.765 147.279 101.765H143.411C142.567 104.136 141.301 106.319 139.684 108.197L141.606 111.555C142.309 112.775 142.052 114.348 140.95 115.24C138.723 117.095 136.168 118.574 133.426 119.607C132.09 120.1 130.59 119.583 129.886 118.339L127.964 114.982C125.527 115.428 122.995 115.428 120.534 114.982ZM118.073 101.155C127.097 108.104 137.387 97.7977 130.449 88.7594C121.425 81.8106 111.135 92.1165 118.073 101.155Z" fill="#00D3A9"/>
</svg>
