<svg width="151" height="120" viewBox="0 0 151 120" fill="none" xmlns="http://www.w3.org/2000/svg">
<path opacity="0.8" d="M90.5487 67.2423L98.4478 71.1863C100.815 72.5479 101.847 75.4354 100.909 78.0178C98.8229 83.6989 94.721 88.9106 90.9238 93.4649C89.1893 95.5543 86.189 96.0707 83.8216 94.7091L77.0007 90.7652C73.2504 93.9814 68.8907 96.5403 64.1325 98.207V106.095C64.1325 108.818 62.187 111.166 59.5149 111.635C53.7488 112.621 47.7015 112.668 41.7244 111.635C39.0289 111.166 37.0365 108.842 37.0365 106.095V98.207C32.2783 96.5168 27.9186 93.9814 24.1683 90.7652L17.3474 94.6857C15.0034 96.0473 11.9798 95.5308 10.2452 93.4414C6.44805 88.8871 2.4399 83.6755 0.353792 78.0178C-0.583785 75.4589 0.44755 72.5714 2.81493 71.1863L10.6203 67.2423C9.70613 62.3359 9.70613 57.2886 10.6203 52.3586L2.81493 48.3912C0.44755 47.0296 -0.607224 44.1421 0.353792 41.5832C2.4399 35.902 6.44805 30.6904 10.2452 26.1361C11.9798 24.0467 14.98 23.5302 17.3474 24.8918L24.1683 28.8358C27.9186 25.6196 32.2783 23.0607 37.0365 21.3939V13.4825C37.0365 10.7828 38.9585 8.43523 41.6306 7.96571C47.3967 6.97972 53.4676 6.93277 59.4446 7.94223C62.1401 8.41175 64.1325 10.7359 64.1325 13.4825V21.3704C68.8907 23.0607 73.2504 25.5961 77.0007 28.8123L83.8216 24.8684C86.1656 23.5068 89.1893 24.0232 90.9238 26.1126C94.721 30.6669 98.7057 35.8785 100.792 41.5597C101.729 44.1186 100.815 47.0061 98.4478 48.3912L90.5487 52.3352C91.4629 57.2651 91.4629 62.3124 90.5487 67.2423ZM62.984 72.1958C76.8601 54.1193 56.2568 33.484 38.2085 47.3817C24.3323 65.4582 44.9356 86.0935 62.984 72.1958Z" fill="#00B39F"/>
<path opacity="0.8" d="M120.534 44.9168L118.612 48.2738C117.909 49.518 116.409 50.0345 115.073 49.5415C112.307 48.5086 109.775 47.0296 107.549 45.175C106.47 44.2829 106.189 42.71 106.892 41.4893L108.814 38.1322C107.197 36.2542 105.931 34.0709 105.088 31.6998H101.22C99.8137 31.6998 98.5948 30.6904 98.3604 29.2818C97.8916 26.4647 97.8682 23.5067 98.3604 20.5723C98.5948 19.1637 99.8137 18.1308 101.22 18.1308H105.088C105.931 15.7597 107.197 13.5764 108.814 11.6984L106.892 8.34132C106.189 7.12057 106.447 5.54769 107.549 4.6556C109.775 2.80101 112.33 1.32203 115.073 0.289087C116.409 -0.203907 117.909 0.312563 118.612 1.55679L120.534 4.91384C122.995 4.4678 125.503 4.4678 127.964 4.91384L129.886 1.55679C130.59 0.312563 132.09 -0.203907 133.426 0.289087C136.192 1.32203 138.723 2.80101 140.95 4.6556C142.028 5.54769 142.309 7.12057 141.606 8.34132L139.684 11.6984C141.301 13.5764 142.567 15.7597 143.411 18.1308H147.279C148.685 18.1308 149.904 19.1402 150.138 20.5488C150.607 23.3659 150.63 26.3239 150.138 29.2583C149.904 30.6669 148.685 31.6998 147.279 31.6998H143.411C142.567 34.0709 141.301 36.2542 139.684 38.1322L141.606 41.4893C142.309 42.71 142.052 44.2829 140.95 45.175C138.723 47.0296 136.168 48.5086 133.426 49.5415C132.09 50.0345 130.59 49.518 129.886 48.2738L127.964 44.9168C125.527 45.3628 122.995 45.3628 120.534 44.9168ZM118.073 31.1129C127.097 38.0618 137.387 27.7559 130.449 18.7177C121.425 11.7453 111.135 22.0747 118.073 31.1129ZM120.534 115.086L118.612 118.443C117.909 119.687 116.409 120.204 115.073 119.711C112.307 118.678 109.775 117.199 107.549 115.344C106.47 114.452 106.189 112.879 106.892 111.659L108.814 108.302C107.197 106.424 105.931 104.24 105.088 101.869H101.22C99.8137 101.869 98.5948 100.86 98.3604 99.4513C97.8916 96.6342 97.8682 93.6762 98.3604 90.7417C98.5948 89.3332 99.8137 88.3002 101.22 88.3002H105.088C105.931 85.9291 107.197 83.7459 108.814 81.8678L106.892 78.5108C106.189 77.29 106.447 75.7171 107.549 74.825C109.775 72.9704 112.33 71.4915 115.073 70.4585C116.409 69.9655 117.909 70.482 118.612 71.7262L120.534 75.0833C122.995 74.6372 125.503 74.6372 127.964 75.0833L129.886 71.7262C130.59 70.482 132.09 69.9655 133.426 70.4585C136.192 71.4915 138.723 72.9704 140.95 74.825C142.028 75.7171 142.309 77.29 141.606 78.5108L139.684 81.8678C141.301 83.7459 142.567 85.9291 143.411 88.3002H147.279C148.685 88.3002 149.904 89.3097 150.138 90.7182C150.607 93.5353 150.63 96.4933 150.138 99.4278C149.904 100.836 148.685 101.869 147.279 101.869H143.411C142.567 104.24 141.301 106.424 139.684 108.302L141.606 111.659C142.309 112.879 142.052 114.452 140.95 115.344C138.723 117.199 136.168 118.678 133.426 119.711C132.09 120.204 130.59 119.687 129.886 118.443L127.964 115.086C125.527 115.532 122.995 115.532 120.534 115.086ZM118.073 101.259C127.097 108.208 137.387 97.9019 130.449 88.8636C121.425 81.9148 111.135 92.2207 118.073 101.259Z" fill="#00D3A9"/>
</svg>
