<svg width="150" height="151" viewBox="0 0 150 151" fill="none" xmlns="http://www.w3.org/2000/svg">
<path fill-rule="evenodd" clip-rule="evenodd" d="M75 0.835205C95.71 0.835205 114.463 9.23169 128.033 22.802C141.604 36.3752 150 55.1252 150 75.8352C150 96.5452 141.604 115.298 128.033 128.868C114.463 142.439 95.71 150.835 75 150.835C54.29 150.835 35.54 142.439 21.9668 128.868C8.39649 115.298 0 96.5452 0 75.8352C0 55.1252 8.39649 36.3752 21.9668 22.802C35.54 9.23169 54.29 0.835205 75 0.835205ZM68.5811 89.5139V88.9075C68.6279 84.8879 69.0234 81.7034 69.7969 79.3362C70.5557 76.969 71.6484 75.0442 73.0723 73.5852C74.499 72.1145 76.2129 70.7786 78.2168 69.5657C79.5059 68.7454 80.6748 67.8372 81.7061 66.8206C82.7373 65.8186 83.5576 64.6497 84.1611 63.3313C84.7676 62.0247 85.0723 60.5715 85.0723 58.9631C85.0723 57.05 84.6182 55.3948 83.707 53.9856C82.8135 52.5881 81.6006 51.5129 80.1123 50.7395C78.6094 49.9807 76.9424 49.5999 75.1055 49.5999C73.4502 49.5999 71.874 49.9368 70.3564 50.634C68.8564 51.3166 67.5967 52.3918 66.6094 53.8479C65.625 55.3069 65.0479 57.1731 64.8955 59.4465H55.0635C55.2188 55.5764 56.2031 52.301 58.0078 49.6174C59.8271 46.9338 62.2266 44.8977 65.2002 43.5178C68.1885 42.1379 71.4961 41.4553 75.1055 41.4553C79.0811 41.4553 82.541 42.1819 85.5117 43.6702C88.4854 45.1409 90.8086 47.2034 92.4609 49.8459C94.0986 52.4827 94.9336 55.55 94.9336 59.0686C94.9336 61.4797 94.5557 63.6506 93.7969 65.5754C93.0381 67.5032 91.9746 69.2317 90.5801 70.7346C89.1826 72.2522 87.5303 73.5852 85.5908 74.7395C83.7539 75.8938 82.2656 77.0745 81.1436 78.3049C80.0068 79.5325 79.1865 80.9915 78.6709 82.6584C78.1553 84.3401 77.8652 86.4202 77.8213 88.9075V89.5139H68.5811ZM73.4678 110.218C71.6924 110.218 70.1748 109.579 68.9004 108.32C67.6289 107.063 67.0049 105.528 67.0049 103.74C67.0049 101.98 67.626 100.462 68.9004 99.2024C70.1748 97.9426 71.6924 97.3069 73.4678 97.3069C75.2109 97.3069 76.7256 97.9485 78.0029 99.2024C79.2891 100.465 79.9307 101.98 79.9307 103.74C79.9307 104.924 79.623 106.014 79.0342 106.987C78.4424 107.968 77.6689 108.765 76.6992 109.339C75.7295 109.913 74.6514 110.218 73.4678 110.218Z" fill="#00B39F"/>
</svg>
