<svg width="153" height="128" viewBox="0 0 153 128" fill="none" xmlns="http://www.w3.org/2000/svg">
<g clip-path="url(#clip0_10814_33998)">
<path d="M12.1001 84.2352C9.3001 84.2352 7.1001 86.4352 7.1001 89.2352V110.535L38.8001 84.2352H12.1001Z" fill="#00D3A9"/>
<path d="M12.0997 116.535H131.3C134.1 116.535 136.3 114.335 136.3 111.535V89.2352C136.3 86.4352 134.1 84.2352 131.3 84.2352H46.0997L8.69971 115.235C9.59971 116.035 10.7997 116.535 12.0997 116.535ZM116.1 94.3352C119.4 94.3352 122.2 97.0352 122.2 100.435C122.2 103.735 119.5 106.535 116.1 106.535C112.8 106.535 110 103.835 110 100.435C110 97.0352 112.7 94.3352 116.1 94.3352ZM99.8997 94.3352C103.2 94.3352 106 97.0352 106 100.435C106 103.735 103.3 106.535 99.8997 106.535C96.5997 106.535 93.7997 103.835 93.7997 100.435C93.8997 97.0352 96.5997 94.3352 99.8997 94.3352Z" fill="#00B39F"/>
<path d="M116.7 25.7352L104.5 35.8352H131.2C134 35.8352 136.2 33.6352 136.2 30.8352V9.53519L121.8 21.4352C121.2 23.7352 119.2 25.4352 116.7 25.7352Z" fill="#00B39F"/>
<path d="M131.299 76.2352C134.099 76.2352 136.299 74.0352 136.299 71.2352V48.9352C136.299 46.1352 134.099 43.9352 131.299 43.9352H94.7993L55.7993 76.2352H131.299ZM116.099 54.0352C119.399 54.0352 122.199 56.7352 122.199 60.1352C122.199 63.4352 119.499 66.2352 116.099 66.2352C112.799 66.2352 109.999 63.5352 109.999 60.1352C109.999 56.7352 112.699 54.0352 116.099 54.0352ZM99.8993 54.0352C103.199 54.0352 105.999 56.7352 105.999 60.1352C105.999 63.4352 103.299 66.2352 99.8993 66.2352C96.5993 66.2352 93.7993 63.5352 93.7993 60.1352C93.8993 56.7352 96.5993 54.0352 99.8993 54.0352Z" fill="#00B39F"/>
<path d="M110 19.7352C110 16.4352 112.7 13.6352 116.1 13.6352C118.1 13.6352 119.9 14.6352 121 16.1352L134.6 4.93519C133.7 4.13519 132.5 3.63519 131.2 3.63519H12.1001C9.3001 3.63519 7.1001 5.83519 7.1001 8.63519V30.9352C7.1001 33.7352 9.3001 35.9352 12.1001 35.9352H97.3001L111.7 23.9352C110.7 22.8352 110 21.3352 110 19.7352ZM99.9001 25.7352C96.6001 25.7352 93.8001 23.0352 93.8001 19.6352C93.8001 16.3352 96.5001 13.5352 99.9001 13.5352C103.2 13.5352 106 16.2352 106 19.6352C106 23.0352 103.3 25.7352 99.9001 25.7352Z" fill="#00D3A9"/>
<path d="M12.1001 43.9352C9.3001 43.9352 7.1001 46.1352 7.1001 48.9352V71.2352C7.1001 74.0352 9.3001 76.2352 12.1001 76.2352H48.6001L87.6001 43.9352H12.1001Z" fill="#00D3A9"/>
<path d="M4.6001 123.335L148.2 4.33521" stroke="#00B39F" stroke-width="8" stroke-miterlimit="10" stroke-linecap="round"/>
</g>
<defs>
<clipPath id="clip0_10814_33998">
<rect width="151.6" height="127" fill="white" transform="translate(0.600098 0.335205)"/>
</clipPath>
</defs>
</svg>
