<svg width="153" height="128" viewBox="0 0 153 128" fill="none" xmlns="http://www.w3.org/2000/svg">
<g clip-path="url(#clip0_10814_33998)">
<path d="M12.0996 84.7533C9.29961 84.7533 7.09961 86.9533 7.09961 89.7533V111.053L38.7996 84.7533H12.0996Z" fill="#00D3A9"/>
<path d="M12.0992 117.053H131.299C134.099 117.053 136.299 114.853 136.299 112.053V89.7533C136.299 86.9533 134.099 84.7533 131.299 84.7533H46.0992L8.69922 115.753C9.59922 116.553 10.7992 117.053 12.0992 117.053ZM116.099 94.8533C119.399 94.8533 122.199 97.5533 122.199 100.953C122.199 104.253 119.499 107.053 116.099 107.053C112.799 107.053 109.999 104.353 109.999 100.953C109.999 97.5533 112.699 94.8533 116.099 94.8533ZM99.8992 94.8533C103.199 94.8533 105.999 97.5533 105.999 100.953C105.999 104.253 103.299 107.053 99.8992 107.053C96.5992 107.053 93.7992 104.353 93.7992 100.953C93.8992 97.5533 96.5992 94.8533 99.8992 94.8533Z" fill="#00B39F"/>
<path d="M116.7 26.2533L104.5 36.3533H131.2C134 36.3533 136.2 34.1533 136.2 31.3533V10.0533L121.8 21.9533C121.2 24.2533 119.2 25.9533 116.7 26.2533Z" fill="#00B39F"/>
<path d="M131.299 76.7533C134.099 76.7533 136.299 74.5533 136.299 71.7533V49.4533C136.299 46.6533 134.099 44.4533 131.299 44.4533H94.7988L55.7988 76.7533H131.299ZM116.099 54.5533C119.399 54.5533 122.199 57.2533 122.199 60.6533C122.199 63.9533 119.499 66.7533 116.099 66.7533C112.799 66.7533 109.999 64.0533 109.999 60.6533C109.999 57.2533 112.699 54.5533 116.099 54.5533ZM99.8988 54.5533C103.199 54.5533 105.999 57.2533 105.999 60.6533C105.999 63.9533 103.299 66.7533 99.8988 66.7533C96.5988 66.7533 93.7988 64.0533 93.7988 60.6533C93.8988 57.2533 96.5988 54.5533 99.8988 54.5533Z" fill="#00B39F"/>
<path d="M110 20.2533C110 16.9533 112.7 14.1533 116.1 14.1533C118.1 14.1533 119.9 15.1533 121 16.6533L134.6 5.45327C133.7 4.65327 132.5 4.15327 131.2 4.15327H12.0996C9.29961 4.15327 7.09961 6.35327 7.09961 9.15327V31.4533C7.09961 34.2533 9.29961 36.4533 12.0996 36.4533H97.2996L111.7 24.4533C110.7 23.3533 110 21.8533 110 20.2533ZM99.8996 26.2533C96.5996 26.2533 93.7996 23.5533 93.7996 20.1533C93.7996 16.8533 96.4996 14.0533 99.8996 14.0533C103.2 14.0533 106 16.7533 106 20.1533C106 23.5533 103.3 26.2533 99.8996 26.2533Z" fill="#00D3A9"/>
<path d="M12.0996 44.4533C9.29961 44.4533 7.09961 46.6533 7.09961 49.4533V71.7533C7.09961 74.5533 9.29961 76.7533 12.0996 76.7533H48.5996L87.5996 44.4533H12.0996Z" fill="#00D3A9"/>
<path d="M4.59961 123.853L148.2 4.85327" stroke="#00B39F" stroke-width="8" stroke-miterlimit="10" stroke-linecap="round"/>
</g>
<defs>
<clipPath id="clip0_10814_33998">
<rect width="151.6" height="127" fill="white" transform="translate(0.599609 0.853271)"/>
</clipPath>
</defs>
</svg>
