<svg width="24" height="24" viewBox="0 0 24 24" fill="none" xmlns="http://www.w3.org/2000/svg">
<path fill-rule="evenodd" clip-rule="evenodd" d="M11.26 6.8598L7.86999 4.8598C7.78194 4.81059 7.70471 4.74413 7.64293 4.66438C7.58116 4.58464 7.5361 4.49325 7.51047 4.39569C7.48483 4.29813 7.47914 4.19641 7.49373 4.09659C7.50832 3.99678 7.54289 3.90094 7.59538 3.8148C7.64788 3.72866 7.7172 3.654 7.79922 3.59527C7.88124 3.53655 7.97426 3.49497 8.07271 3.47303C8.17117 3.45109 8.27304 3.44924 8.37223 3.46758C8.47142 3.48593 8.56589 3.52409 8.64999 3.5798L12.01 5.5798L11.26 6.8598Z" fill="#DDDDDD"/>
<path fill-rule="evenodd" clip-rule="evenodd" d="M11.5201 10.3104L4.69012 6.36038C4.60476 6.31113 4.52993 6.24556 4.46992 6.16739C4.4099 6.08923 4.36587 6.00001 4.34033 5.90483C4.28876 5.71261 4.31566 5.50777 4.41512 5.33538C4.51457 5.16299 4.67844 5.03717 4.87066 4.98559C5.06289 4.93402 5.26772 4.96092 5.44012 5.06038L11.5201 8.58038V10.3104Z" fill="#DDDDDD"/>
<path fill-rule="evenodd" clip-rule="evenodd" d="M19.5999 5.33031C19.4982 5.16721 19.3386 5.04867 19.153 4.99857C18.9675 4.94848 18.7698 4.97054 18.5999 5.06031L12.7499 8.40031V6.85031L16.1399 4.85031C16.3034 4.74885 16.421 4.58769 16.4676 4.401C16.5143 4.21431 16.4864 4.01678 16.3899 3.85031C16.2867 3.68874 16.1256 3.57279 15.9396 3.5263C15.7537 3.47981 15.5569 3.50629 15.3899 3.60031L11.6499 5.78031C11.5313 5.84992 11.433 5.94927 11.3646 6.06853C11.2962 6.18779 11.2601 6.32283 11.2599 6.46031V21.0003C11.2477 21.1054 11.2579 21.2119 11.2897 21.3127C11.3216 21.4136 11.3745 21.5066 11.4448 21.5856C11.5152 21.6646 11.6015 21.7278 11.698 21.7711C11.7945 21.8144 11.8991 21.8368 12.0049 21.8368C12.1107 21.8368 12.2153 21.8144 12.3118 21.7711C12.4083 21.7278 12.4946 21.6646 12.5649 21.5856C12.6353 21.5066 12.6882 21.4136 12.72 21.3127C12.7519 21.2119 12.7621 21.1054 12.7499 21.0003V10.1403L19.3199 6.36031C19.4925 6.25988 19.6187 6.0955 19.6711 5.90274C19.7235 5.70998 19.6979 5.50435 19.5999 5.33031Z" fill="white"/>
<path d="M12.0099 3.93C12.4738 3.93 12.8499 3.55392 12.8499 3.09C12.8499 2.62608 12.4738 2.25 12.0099 2.25C11.546 2.25 11.1699 2.62608 11.1699 3.09C11.1699 3.55392 11.546 3.93 12.0099 3.93Z" fill="white"/>
<path d="M9.48009 10.8198C9.59501 10.8826 9.69092 10.9751 9.75778 11.0877C9.82464 11.2003 9.85997 11.3288 9.86009 11.4598V15.5398C9.86071 15.6722 9.82577 15.8024 9.75893 15.9167C9.69209 16.0311 9.59579 16.1254 9.48009 16.1898C9.36683 16.253 9.23976 16.2873 9.11009 16.2898C8.9774 16.2862 8.84734 16.252 8.73009 16.1898L4.41009 13.6998C4.2377 13.6003 4.11187 13.4365 4.0603 13.2442C4.00873 13.052 4.03563 12.8472 4.13509 12.6748C4.23454 12.5024 4.39841 12.3766 4.59063 12.325C4.78286 12.2734 4.9877 12.3003 5.16009 12.3998L8.36009 14.2398V11.8998L6.91009 11.0698C6.74512 10.9698 6.62501 10.8101 6.57473 10.6239C6.52445 10.4377 6.54786 10.2392 6.64009 10.0698C6.73829 9.90289 6.89801 9.78114 7.08497 9.73066C7.27193 9.68018 7.47122 9.705 7.64009 9.79979L9.48009 10.8198Z" fill="#DDDDDD"/>
<path d="M5.25992 10.0999C5.72384 10.0999 6.09992 9.72384 6.09992 9.25992C6.09992 8.796 5.72384 8.41992 5.25992 8.41992C4.796 8.41992 4.41992 8.796 4.41992 9.25992C4.41992 9.72384 4.796 10.0999 5.25992 10.0999Z" fill="#DDDDDD"/>
<path d="M16.3399 9.76952C16.5087 9.67473 16.708 9.64991 16.895 9.70039C17.082 9.75087 17.2417 9.87262 17.3399 10.0395C17.4321 10.2089 17.4555 10.4074 17.4052 10.5936C17.355 10.7798 17.2348 10.9395 17.0699 11.0395L15.6199 11.8695V14.2095L18.8199 12.3695C18.9052 12.3203 18.9995 12.2883 19.0972 12.2755C19.1949 12.2627 19.2942 12.2692 19.3893 12.2947C19.4845 12.3203 19.5737 12.3643 19.6519 12.4243C19.7301 12.4843 19.7956 12.5592 19.8449 12.6445C19.8941 12.7299 19.9261 12.8241 19.9389 12.9218C19.9517 13.0195 19.9452 13.1188 19.9197 13.214C19.8941 13.3092 19.8501 13.3984 19.7901 13.4765C19.7301 13.5547 19.6552 13.6203 19.5699 13.6695L15.2499 16.1595C15.1326 16.2217 15.0026 16.256 14.8699 16.2595C14.7402 16.2571 14.6131 16.2227 14.4999 16.1595C14.3842 16.0951 14.2879 16.0008 14.221 15.8865C14.1542 15.7721 14.1193 15.642 14.1199 15.5095V11.4595C14.12 11.3286 14.1553 11.2001 14.2222 11.0875C14.289 10.9749 14.385 10.8823 14.4999 10.8195L16.3399 9.76952Z" fill="#CCCCCC"/>
<path d="M18.7399 10.0999C19.2038 10.0999 19.5799 9.72384 19.5799 9.25992C19.5799 8.796 19.2038 8.41992 18.7399 8.41992C18.276 8.41992 17.8999 8.796 17.8999 9.25992C17.8999 9.72384 18.276 10.0999 18.7399 10.0999Z" fill="#CCCCCC"/>
</svg>
