<svg id="Layer_1" data-name="Layer 1" xmlns="http://www.w3.org/2000/svg" viewBox="0 0 500 500"><defs><style>.cls-1{fill:none;}.cls-2{fill:#7e4b44;}.cls-3{fill:#5f2d24;}.cls-4{fill:#f7d8a7;}.cls-5{fill:#a46e5c;}</style></defs><path class="cls-1" d="M343.01694,224.9203q-.27537-.84691-.55087-1.69365C341.98526,224.00669,342.12934,224.58412,343.01694,224.9203Z"/><path class="cls-1" d="M341.4174,219.77468l.11384.37454-.11376-.37454.324-.64733s-.5464-.34154-.55737-.34829c.004.01577.03567.51333.03567.51333Z"/><path class="cls-1" d="M340.09669,213.67548l.00981.04623-.00981-.04631q-3.71867,1.295-7.43815,2.58962Q336.3788,214.97031,340.09669,213.67548Z"/><path class="cls-1" d="M177.29684,446.90854c8.35744,13.08787,18.85361,24.14194,33.48295,31.181q6.46451,3.19772,12.92887,6.39566-6.46447-3.19812-12.92521-6.39866C196.15111,471.04992,185.65438,459.99633,177.29684,446.90854Z"/><path class="cls-1" d="M167.21366,322.3384l-.103.5434q.23877-1.25743.47749-2.51477A10.77161,10.77161,0,0,1,165.74,314.5281a10.77384,10.77384,0,0,0,1.8477,5.83908Q167.40037,321.35292,167.21366,322.3384Z"/><path class="cls-1" d="M147.29313,332.78136l.02779.19846-.02185.28856.02193-.28856Z"/><path class="cls-1" d="M236.92185,10.38413l-.00024-.00049c-2.07744,8.61628-4.16681,17.22478-6.15381,25.86034C232.7548,27.60851,234.84425,19.00014,236.92185,10.38413Z"/><path class="cls-1" d="M167.08632,323.00957l.02428-.12774.103-.54339Z"/><path class="cls-1" d="M332.65854,216.265c-4.30478-12.41439-7.64026-25.11233-11.21953-37.747,3.57931,12.63471,6.91443,25.33255,11.2185,37.74688a14.80369,14.80369,0,0,0,.9955,6.22215A14.79546,14.79546,0,0,1,332.65854,216.265Z"/><path class="cls-1" d="M216.22119,476.92812q-.5027.16334-1.00536.32636.51085.35351,1.02145.7073Q216.22936,477.445,216.22119,476.92812Z"/><path class="cls-1" d="M167.01085,327.13274a474.8361,474.8361,0,0,0,5.5458,55.82511,474.778,474.778,0,0,1-5.5454-55.825,23.93219,23.93219,0,0,1,9.723-1.82211A23.93546,23.93546,0,0,0,167.01085,327.13274Z"/><path class="cls-2" d="M199.95875,236.34421c-.70119,18.30444-1.73915,36.59572-2.64748,54.89212a30.0183,30.0183,0,0,1,6.89565-1.80926c.77808-.115,1.55917-.20674,2.342-.28051.89467-.08431,1.79189-.14527,2.69-.19057,3.14324-.15886,6.29739-.12831,9.39539-.25117,24.57959-.97522,49.194-1.03917,73.78425-1.799,6.62813-.20478,9.62187,1.70412,9.813,8.78294,1.19176,44.14869,1.91387,88.30224-6.17748,131.94908-2.86478,15.45318-6.04719,31.06714-15.499,44.484-4.205,5.969-8.93141,10.91352-15.43356,13.8008a29.63355,29.63355,0,0,1-2.8989,1.1084q1.98.161,3.95969.32188c30.9709-7.3758,46.00364-30.13955,55.40628-57.982,9.61873-28.48286,12.25953-58.0943,13.08344-87.92919q.25062-9.07337.272-18.13142.00564-4.906-.07232-9.8065a377.15408,377.15408,0,0,0-6.7502-68.22,7.93816,7.93816,0,0,0-4.98268,2.03828,9.30467,9.30467,0,0,0-.95853,1.03063c-.05316.06559-.11068.12684-.16253.19388a13.35571,13.35571,0,0,0-.82522,1.21485c-.07109.11645-.14163.23322-.2103.352q-.381.6586-.72393,1.35235c-.51584,1.03924-.98537,2.119-1.48154,3.16244-1.91185,4.02061-3.4775,8.20435-5.28766,12.27525-1.87713,4.22168-5.45341,5.36178-9.6569,4.76052-4.66528-.66754-3.14463-4.68762-3.40809-7.36476q-5.00854-50.90028-14.863-101.07868c-6.8508-34.70234-14.93381-69.20682-23.88749-103.4291-4.39829-16.81087-7.68908-34.0655-14.6069-50.18939-3.6478-2.55768-7.24116-.96481-10.84087.14156a.64975.64975,0,0,1,.69426.60192l.00158.03808-.00008.00017.00024.00049c-2.0776,8.616-4.167,17.22432-6.15407,25.85985q-.99353,4.31777-1.94863,8.64584-1.27069,5.77169-2.44806,11.56945c-6.82,33.73608-13.24693,67.52416-17.89976,101.63305-1.35153,9.90695-2.52487,19.83825-3.88378,29.74413"/><path class="cls-3" d="M265.12154,485.92262c6.50217-2.88728,11.22853-7.83176,15.43356-13.8008,9.45178-13.41684,12.63421-29.0308,15.499-44.484,8.09133-43.6468,7.36924-87.80039,6.17748-131.94908-.19112-7.07882-3.18486-8.98772-9.813-8.78294-24.59024.7598-49.20466.82376-73.78425,1.799-3.098.12286-6.25215.09231-9.39539.25117-.8981.0454-1.79532.10636-2.69.19057-.78286.07379-1.56395.16554-2.342.28051a30.01507,30.01507,0,0,0-6.89565,1.8096c.11286,4.8421.57469,9.68809.85828,14.53211.0945,1.61465.16925,3.22916.20452,4.84316q.02438,1.11359.02242,2.227a53.353,53.353,0,0,1-1.45636,12.939c3.84746,7.53152,2.72347,15.79152,3.23606,23.7486,1.98122,30.74949,6.15061,61.04263,14.001,90.97247,4.929,18.7925,14.00322,34.09938,28.50253,46.56418a1.52793,1.52793,0,0,0,1.53625.03372l2.22492.34152.6114.01845a.43222.43222,0,0,1,.71356-.01536,35.24132,35.24132,0,0,0,14.45658-.41051l.00016-.00008h-.00016A29.62379,29.62379,0,0,0,265.12154,485.92262Z"/><path class="cls-1" d="M209.23892,288.956c-.8981.0454-1.79532.10636-2.69.19057"/><path class="cls-3" d="M204.2069,289.42707a30.01844,30.01844,0,0,0-6.89565,1.80926v.00032A30.015,30.015,0,0,1,204.2069,289.42707Z"/><path class="cls-1" d="M206.54893,289.14656c-.78286.07379-1.564.16554-2.342.28051"/><path class="cls-3" d="M262.22248,487.03106h.00016a29.63355,29.63355,0,0,0,2.8989-1.1084A29.62425,29.62425,0,0,1,262.22248,487.03106Z"/><path class="cls-4" d="M392.34292,286.411c-.88024-1.76-1.9544-3.49794-.62366-5.50845.548-4.67632-2.729-8.52086-3.04807-12.86094-1.757-23.89123-12.28494-45.26685-18.93741-67.75241-4.67484-15.80177-15.15583-28.95946-19.9248-44.64764-4.48789-14.76367-16.18379-25.853-20.40968-40.71517a5.3386,5.3386,0,0,0-1.40384-2.039c-7.97612-8.215-11.49182-19.22522-17.66728-28.60541-4.4505-6.75986-8.65267-14.154-13.34492-20.48566-10.9227-14.739-19.94867-30.77207-31.501-45.06523-3.10969-3.84779-5.592-6.65255-10.73644-5.41345-1.16064,4.39516,2.336,7.21574,3.77321,10.67356,16.77819,40.36445,32.83757,81.001,45.96065,122.72214A891.12119,891.12119,0,0,1,327.949,240.30221a30.16829,30.16829,0,0,1,.17258,4.97958l.00225-.00023a377.31926,377.31926,0,0,1,6.74791,68.22218q.07974,4.90023.07232,9.8065-.01045,9.05739-.272,18.13142c-.82391,29.83489-3.46471,59.44633-13.08344,87.92919-9.40263,27.84242-24.43532,50.60617-55.40626,57.982,10.21165,1.04843,19.56919-3.15027,29.33751-4.81448,17.69586-3.01435,32.18251-12.36941,46.20128-23.00913,6.18-4.69031,10.14387-11.60007,16.95139-15.45325-1.00616-4.208,2.67322-4.28369,4.94174-5.6044,12.99893-24.49328,24.99638-49.278,26.74593-77.70616.69947-11.36508,2.40327-22.66856,3.65-34-.53729-2.65082-3.11717-4.96123-1.33338-7.99888q.11715-2.05854.23453-4.11718M352.822,364.14818c-3.71068,29.48782-8.18179,59.16319-25.52366,84.76625-10.222,15.09155-23.16565,26.70425-40.65536,32.82335,33.32761-19.60739,45.17559-51.75537,51.8927-87.23816,6.244-32.98164,7.34794-66.18454,5.68048-99.5495-.41115-8.22556-1.1513-16.41335-2.14162-24.57032-1.65064-13.59489-3.9962-27.104-6.6712-40.55932q-.07107-1.17978-.14075-2.36063a41.29884,41.29884,0,0,0-1.31482-4.11953q-.14981-.42613-.29474-.85347a14.80367,14.80367,0,0,1-.9955-6.22214c-4.30407-12.41434-7.63919-25.11214-11.2185-37.74689-1.19306-4.21158-2.41328-8.41612-3.70558-12.60072q-1.10756-3.58691-2.29425-7.15191c-10.67679-31.95246-23.09112-63.17554-36.47358-94.061-6.29069-14.518-11.96673-29.3023-18.45731-43.76237A1022.44808,1022.44808,0,0,1,316.75206,141.5182c5.69081,14.75878,11.19483,29.58608,15.8927,44.67438q2.43505,7.82043,4.53187,15.74975.62813,2.362,1.22267,4.73484.43748,1.74525.86821,3.49276.42748,1.74855.82926,3.50529h-.00008l.00981.04631q.53723,2.52741,1.07705,5.05118l.00055.00617c.011.00675.55737.34829.55737.34829l-.324.64734.11376.37453q.46734,1.5385.93523,3.07653l-.0004.00089q.27531.84679.55087,1.69364c11.559,45.82734,15.70679,92.32642,9.805,139.22815Z"/><path class="cls-4" d="M334.87165,313.5038a377.31908,377.31908,0,0,0-6.74791-68.22218l-.00225.00023v.00194A377.15426,377.15426,0,0,1,334.87165,313.5038Z"/><path class="cls-4" d="M334.87165,313.5038q.07974,4.90026.07232,9.80652Q334.94967,318.4043,334.87165,313.5038Z"/><path class="cls-4" d="M177.29684,446.90854q-.83571-1.3088-1.64359-2.64409-1.84716-3.05142-3.5616-6.22842c-14.30551-26.425-19.72334-55.33119-23.31523-84.7127-.18432-1.50787-.34465-3.01862-.48968-4.53127-.43523-4.53785-.73345-9.09255-1.13147-13.63479q.07134-.94393.14384-1.88881l.02185-.28856-.02779-.19846q-.20415-1.45918-.40948-2.91785.07279-1.06878.14766-2.13845-.3647-7.84962-.72947-15.6993c-2.245-26.78021,1.28668-53.148,6.09855-79.35746,10.85-59.09681,30.72592-115.36153,54.12568-170.49338,2.48515-5.85518,4.786-11.78853,7.26262-17.64753,1.37016-3.24093,2.87306-2.89038,4.2575-.00106.02268-.011.03487-.02641.05829-.03706.00942.01618.01437.03041.02347.04641.31389-.24987.61272-.507.89184-.77353.01358-.013.02464-.02705.0382-.04005a13.23379,13.23379,0,0,0,1.52811-1.75549,15.43275,15.43275,0,0,0,1.208-1.96762,21.21584,21.21584,0,0,0,.93883-2.09678c.278-.71575.526-1.44579.75878-2.18316a74.96262,74.96262,0,0,1,2.5247-7.70316c2.8152-6.38939,3.60051-14.02313,10.90514-17.63233a.64991.64991,0,0,0-.6582-.64154l-.038.0016.00048-.00015c-2.12059-1.00179-3.63174.35047-5.3655,1.23738-10.61975,5.43246-16.24709,15.43763-21.65981,25.09153-6.71986,11.9851-13.79917,23.83986-21.02676,35.41468a508.01459,508.01459,0,0,0-29.12834,53.69531c-13.00589,27.79264-25.48271,55.93608-34.56948,85.49046-6.82983,22.21334-12.35688,44.52624-15.34148,67.54724-2.89289,22.312-1.806,44.66062.62676,66.78059,1.76548,16.05357,5.639,31.91738,10.22321,47.62226a156.00785,156.00785,0,0,0,27.54194,53.33939c13.61318,17.259,32.1679,28.43014,53.02976,35.11012,7.33885,2.35006,14.82322,6.60426,23.15239,3.41274q-6.46444-3.19812-12.92887-6.39566C196.15045,471.05052,185.65428,459.99641,177.29684,446.90854Z"/><path class="cls-4" d="M236.92167,10.38356l.00008-.00009a.64973.64973,0,0,0-.65776-.6416l-.03808.00159-.00048.00016a.64993.64993,0,0,1,.69464.6019Z"/><path class="cls-5" d="M285.56111,163.22044q9.89075,50.1001,14.863,101.07868c.26346,2.6771-1.25719,6.69722,3.40809,7.36476,4.20347.60126,7.77977-.53884,9.6569-4.76051,1.81016-4.07085,3.37573-8.25459,5.28766-12.27526.49617-1.04348.9657-2.12318,1.48154-3.16244q.34383-.69261.72393-1.35235c.06867-.11873.13921-.2355.2103-.35195a13.35571,13.35571,0,0,1,.82522-1.21485c.05189-.067.10929-.12831.16253-.19388a9.30467,9.30467,0,0,1,.95853-1.03063,7.9451,7.9451,0,0,1,4.98268-2.04025,30.16728,30.16728,0,0,0-.17258-4.97959,891.12047,891.12047,0,0,0-23.46922-93.58875c-13.12308-41.7211-29.18244-82.35769-45.96065-122.72214-1.43727-3.45782-4.93385-6.27839-3.77321-10.67355-2.07995-2.23013-4.40969-3.944-7.67906-3.71582,6.91783,16.12389,10.20866,33.37851,14.60689,50.18939C270.6273,94.01364,278.71033,128.51811,285.56111,163.22044Z"/><path class="cls-1" d="M322.18024,248.35272c-.05316.06559-.11068.12684-.16253.19388"/><path class="cls-5" d="M328.12149,245.28381v-.00194a7.94515,7.94515,0,0,0-4.98268,2.04026A7.9382,7.9382,0,0,1,328.12149,245.28381Z"/><path class="cls-1" d="M321.19249,249.76151c-.07109.11645-.14163.23322-.2103.352"/><path class="cls-2" d="M214.17724,440.49914c-7.85046-29.92988-12.01981-60.223-14.001-90.97251-.51259-7.95708.6114-16.21708-3.23606-23.74861a46.10372,46.10372,0,0,1-13.12223-.034c-1.89592-.17966-3.79139-.35169-5.68186-.41142q-.7014-.0222-1.40175-.02193a23.93219,23.93219,0,0,0-9.723,1.82211,474.7786,474.7786,0,0,0,5.54538,55.825q.66651,3.93555,1.43416,7.85159,1.3675,6.96148,3.09068,13.85443a224.66238,224.66238,0,0,0,11.35508,33.93835c5.54558,12.92669,13.02216,24.5196,23.53033,34.01637,1.39208,1.25813,2.972,2.40754,3.05387,4.52929l.06054.0135.13448.09314q.50281-.16311,1.00536-.32636.00807.51686.01609,1.03362-.51062-.35374-1.02145-.7073l-.17977.05838c0-.05818-.01308-.1079-.01527-.16474q-1.70487-.37881-3.40938-.75817-.41224.84679-.828,1.69656,6.459,3.20222,12.9252,6.39866c6.56337-.90418,12.302,4.261,18.97109,2.57818C228.18044,474.59844,219.10628,459.29164,214.17724,440.49914Z"/><path class="cls-2" d="M215.08135,477.16158l-.04527.1512.17977-.05838-.13448-.09314-.06054-.0135v.00024Z"/><path class="cls-5" d="M204.58759,187.83645c1.35891-9.90588,2.53225-19.83718,3.88378-29.74413,4.65283-34.10889,11.07976-67.897,17.89976-101.633q1.17234-5.79934,2.44806-11.56944.953-4.32875,1.94863-8.64585c1.987-8.63553,4.07637-17.244,6.15381-25.86034v-.00007c-7.30463,3.6092-8.08994,11.24294-10.90514,17.63232a74.9636,74.9636,0,0,0-2.5247,7.70317c-.23281.73737-.48081,1.46741-.75878,2.18316a21.21584,21.21584,0,0,1-.93883,2.09678,15.42681,15.42681,0,0,1-1.208,1.96762,13.229,13.229,0,0,1-1.52811,1.75549c-.0135.013-.02464.02706-.0382.04005-.27912.26655-.578.52366-.89184.77353.64553,1.13492.39337,1.89062-.9089,2.20282a5.37168,5.37168,0,0,1,.87949,1.68234c.46864,1.65188-.3699,3.03673-2.13026,4.23338v.00008q-.39692,2.13568-.87631,4.24645-.47754,2.11143-1.026,4.20145-.73428,2.80923-1.57118,5.5875c-3.05054,10.19257-6.93481,20.134-9.98856,30.32625-9.90407,33.05461-17.87513,66.55168-25.6405,100.17074-8.47813,36.70576-10.40662,73.75939-10.96523,111.08072-.00754.50527-.028,1.015-.05275,1.5273s-.054,1.02727-.079,1.54323c-.02512.51592-.04608,1.03291-.05449,1.54915q-.00632.38727-.00219.7736c.00348.28977.01227.579.02794.86746a10.77158,10.77158,0,0,0,1.84812,5.83892q-.23877,1.25741-.47749,2.51479l-.038.19982-.09482.49981q.0163,1.77564.033,3.55132a23.93475,23.93475,0,0,1,9.72346-1.822q.70041-.001,1.40174.02193c1.89046.05965,3.78609.23168,5.68187.41142a46.10372,46.10372,0,0,0,13.12223.034,53.35309,53.35309,0,0,0,1.45636-12.939q.00357-1.11335-.02242-2.227c-.03527-1.61409-.11-3.22859-.20452-4.84317-.28369-4.844-.7458-9.69012-.85853-14.53238l.00023-.00008c.90835-18.2964,1.94629-36.58768,2.64748-54.89212"/><path class="cls-5" d="M167.07266,323.08165l.038-.19982-.02428.12774Z"/><path class="cls-5" d="M198.16955,305.76882c-.28359-4.844-.74548-9.69-.85828-14.53211v-.00032l-.00023.00008C197.42381,296.07869,197.88586,300.92482,198.16955,305.76882Z"/><path class="cls-1" d="M198.16955,305.76882c.0945,1.61465.16925,3.22915.20452,4.84316"/><path class="cls-1" d="M218.128,44.53568c.31389-.24987.61272-.507.89184-.77353"/><path class="cls-5" d="M219.058,43.7221a13.229,13.229,0,0,0,1.52811-1.75549A13.23379,13.23379,0,0,1,219.058,43.7221Z"/><path class="cls-5" d="M220.58612,41.96661a15.42681,15.42681,0,0,0,1.208-1.96762A15.43275,15.43275,0,0,1,220.58612,41.96661Z"/><path class="cls-5" d="M183.81788,325.74406c-1.89584-.17974-3.79139-.35177-5.68186-.41142C180.02649,325.39233,181.922,325.5644,183.81788,325.74406Z"/><path class="cls-2" d="M342.46607,223.22665l-.00016-.00055q-.46733-1.53842-.93467-3.07686l-.11384-.37454-.19763-.48227s-.03171-.49756-.03567-.51333l-.00348-.0022q-.537-2.52767-1.07412-5.05517l-.00981-.04623q-3.71861,1.29486-7.43815,2.58954a14.79546,14.79546,0,0,0,.99447,6.222q.1441.4275.29474.85346a41.299,41.299,0,0,1,1.31482,4.11954q.07083,1.18.14139,2.36014c2.67452,13.45555,5.02,26.96492,6.67056,40.55979.99032,8.157,1.73051,16.34475,2.14162,24.57032,1.6675,33.365.56346,66.56786-5.68048,99.5495-6.71711,35.48279-18.565,67.63077-51.89268,87.23815,17.48971-6.11913,30.4333-17.73179,40.65538-32.82334,17.34191-25.60306,21.813-55.27843,25.52366-84.76626,5.90175-46.90173,1.75395-93.40081-9.805-139.22795C342.12934,224.58412,341.98526,224.00669,342.46607,223.22665Z"/><path class="cls-2" d="M335.26249,227.46q.07,1.1805.14075,2.36063c2.67493,13.45528,5.02056,26.96443,6.6712,40.55932-1.65056-13.59489-3.996-27.10422-6.67056-40.55979Q335.33334,228.63993,335.26249,227.46Z"/><path class="cls-2" d="M342.46607,223.22665l.0004-.00089q-.46823-1.5379-.93523-3.07652.46716,1.53849.93467,3.07686Z"/><path class="cls-2" d="M341.1841,218.77908l-.00055-.00618q-.54132-2.52182-1.07705-5.05117.53723,2.52765,1.07412,5.05517Z"/><path class="cls-5" d="M340.09669,213.6754v-.0001q-.39846-1.75779-.82918-3.50519-.42762-1.74844-.86821-3.49276-.59475-2.37273-1.22267-4.73484-2.10784-7.92576-4.53187-15.74975c-4.69791-15.08831-10.202-29.91558-15.8927-44.67437A1022.44734,1022.44734,0,0,0,260.50833,20.942C266.99889,35.4021,272.675,50.1864,278.96564,64.70439c13.38246,30.88544,25.79677,62.10851,36.47358,94.061q1.19074,3.56372,2.29425,7.15191c1.2923,4.1846,2.51252,8.38914,3.70558,12.60072,3.57931,12.63471,6.91475,25.33263,11.21953,37.747Q336.37878,214.9703,340.09669,213.6754Z"/><path class="cls-1" d="M332.6448,186.19278q2.43506,7.82043,4.53187,15.74975"/><path class="cls-5" d="M340.09669,213.6754h.00008q-.39852-1.75783-.82926-3.50529.42748,1.74854.82918,3.50519Z"/><path class="cls-1" d="M339.26747,210.17013q-.42762-1.74841-.86821-3.49276"/><path class="cls-5" d="M157.853,266.42265q.57641-6.93574,1.33121-13.85427.60669-5.53446,1.34049-11.05662,1.47123-11.04382,3.51024-22.03157c7.32355-39.1756,18.08083-77.45741,30.80993-115.18454,5.16224-15.29974,10.91774-30.40193,16.59052-45.52375.87274-2.32657.75207-5.7714,4.46313-6.17134-2.01371-2.45994-.635-4.22672,1.23566-5.89281a1.59844,1.59844,0,0,1,.773-2.1243q.06816-.0318.13909-.05708c-1.38444-2.88931-2.88736-3.23986-4.2575.00107-2.47659,5.859-4.77741,11.79234-7.26262,17.64753-23.39974,55.13184-43.27569,111.39656-54.12568,170.49337-4.81185,26.20943-8.34354,52.57725-6.09855,79.35746q4.71852-1.93166,9.43676-3.86332C156.06033,294.21448,156.7,280.29406,157.853,266.42265Z"/><path class="cls-2" d="M181.97358,440.57894q-1.62141-3.09481-3.07841-6.274-.72977-1.5889-1.42175-3.19722c-1.73736-4.03613-3.30179-8.16081-4.72729-12.356a300.55482,300.55482,0,0,1-9.31722-35.83464,328.71283,328.71283,0,0,1-5.06158-34.51472q-.42553-4.34017-.77564-8.68916c-.70592-8.69719-1.21958-17.4162-1.69317-26.13475q.063-1.00928.1266-2.018-.14332-1.699-.28652-3.398-4.71792,1.93151-9.43676,3.86332.36468,7.84954.72947,15.69928-.07335,1.069-.14657,2.13806.20418,1.45917.40833,2.91824l.02787.19846-.02193.28856q-.07155.94418-.14327,1.88834c.39761,4.54259.69569,9.09749,1.1309,13.63526.145,1.51269.30538,3.0234.48968,4.53127,3.59189,29.38155,9.00972,58.2877,23.31523,84.71274q1.71793,3.17343,3.5616,6.22842.80817,1.335,1.64359,2.64409c8.35754,13.08783,18.85425,24.14142,33.4866,31.178q.41766-.85131.828-1.69656A107.23849,107.23849,0,0,1,181.97358,440.57894Z"/><path class="cls-2" d="M147.03135,327.72506q-.07436,1.06956-.14766,2.13846.20576,1.45853.40948,2.91784-.204-1.45919-.40833-2.91824Q146.958,328.794,147.03135,327.72506Z"/><path class="cls-2" d="M147.29911,333.26842q-.07217.94464-.14384,1.88881c.398,4.54228.69626,9.09694,1.13147,13.63479-.43523-4.53785-.73329-9.09271-1.1309-13.63526Q147.22739,334.21259,147.29911,333.26842Z"/><path class="cls-1" d="M210.78343,478.08651q.41767-.85131.828-1.69656"/><path class="cls-1" d="M155.73862,308.16244q-4.71792,1.93147-9.43676,3.86332"/><path class="cls-1" d="M167.11062,322.8818l.103-.5434"/><path class="cls-1" d="M167.07266,323.08165l.038-.19982"/><path class="cls-4" d="M166.97774,323.58146l.0759-.39979.03268-.1721.12734-.67113q.18675-.98549.374-1.97122a10.77387,10.77387,0,0,1-1.8477-5.83908c-.01567-.28848-.02446-.57769-.02794-.86746q-.00466-.38625.00219-.7736c.00845-.51622.02941-1.03323.05449-1.54915.025-.516.05429-1.03095.079-1.54323.02477-.51234.04518-1.02207.05274-1.5273.55859-37.32131,2.48708-74.37494,10.96523-111.08072,7.76542-33.61906,15.73643-67.11613,25.6405-100.17074,3.05379-10.1922,6.93808-20.13363,9.98856-30.32626q.8319-2.77984,1.57118-5.5875.54642-2.09068,1.026-4.20144.47745-2.11138.8763-4.24646l-.018.01374c-.01926-.02292-.03307-.04477-.05178-.06752-3.71109.4-3.59043,3.84478-4.46313,6.17135-5.67274,15.12185-11.42828,30.224-16.59052,45.52375-12.72906,37.72713-23.48638,76.00893-30.80993,115.18453q-2.05379,10.98608-3.51024,22.03157-.73573,5.52194-1.34049,11.05662-.75839,6.91818-1.33121,13.85427c-1.15276,13.87141-1.79238,27.79175-2.11393,41.73964l-.0004.00017q.143,1.699.28664,3.398-.06313,1.0091-.12637,2.01821c.47351,8.71851.98692,17.4374,1.69284,26.13459q.353,4.34862.77564,8.68916a328.71283,328.71283,0,0,0,5.06158,34.51472,300.55482,300.55482,0,0,0,9.31722,35.83464c1.42546,4.19517,2.98993,8.31981,4.72729,12.356q.69222,1.60807,1.42175,3.19721,1.45965,3.17789,3.07841,6.274a107.23729,107.23729,0,0,0,29.63808,35.8105l-.00023.00047q1.70454.37964,3.40938.75793c-.08184-2.12179-1.66179-3.27123-3.05387-4.52929-10.50819-9.49673-17.98477-21.08964-23.53033-34.01637a224.66023,224.66023,0,0,1-11.3551-33.93835q-1.73155-6.89137-3.09068-13.85443-.76915-3.91578-1.43416-7.85159a474.83631,474.83631,0,0,1-5.54582-55.82507Q166.994,325.357,166.97774,323.58146Z"/><path class="cls-4" d="M215.02079,477.14808c.00219.0568.01527.10652.01527.16474l.04527-.1512Z"/><path class="cls-4" d="M215.02079,477.14808v-.00024q-1.70487-.37851-3.40938-.75793Q213.316,476.7696,215.02079,477.14808Z"/><path class="cls-4" d="M166.97774,323.58146q.01648,1.77564.03307,3.55132-.01686-1.7757-.033-3.55132l.07582-.39979Z"/><path class="cls-4" d="M167.05364,323.18167l-.07582.39979.09482-.49981.01366-.07208Z"/><path class="cls-4" d="M155.739,308.16234c.32155-13.94788.96111-27.86822,2.11393-41.73963-1.15292,13.87141-1.79262,27.79183-2.11433,41.73981Z"/><path class="cls-1" d="M157.853,266.42265q.57641-6.93574,1.33121-13.85427"/><path class="cls-4" d="M155.89854,313.57849q.063-1.00928.1267-2.018-.14348-1.699-.28664-3.398.143,1.699.28652,3.398Q155.96177,312.56947,155.89854,313.57849Z"/><path class="cls-1" d="M172.74613,418.75176c1.42546,4.19517,2.98993,8.31981,4.72729,12.356"/><path class="cls-4" d="M181.97358,440.57894a107.23868,107.23868,0,0,0,29.63783,35.811l.00023-.00047A107.23713,107.23713,0,0,1,181.97358,440.57894Z"/><path class="cls-4" d="M178.89517,434.30492q1.45965,3.17789,3.07841,6.274Q180.35217,437.48421,178.89517,434.30492Z"/><path class="cls-1" d="M178.89517,434.30492q-.72977-1.5889-1.42175-3.19721"/><path class="cls-4" d="M157.59169,339.71324c-.70592-8.69719-1.21933-17.41608-1.69284-26.13459q.06327-1.009.12637-2.01821-.06352,1.009-.1267,2.018C156.37212,322.297,156.88579,331.01605,157.59169,339.71324Z"/><path class="cls-1" d="M158.36733,348.4024q-.42553-4.34017-.77564-8.68916"/><path class="cls-4" d="M217.14505,46.76c-.00675-.01877-.00455-.03372-.0109-.05234-1.8707,1.6661-3.24937,3.43287-1.23566,5.89281.0291-.00317.05348-.00992.083-.01268V52.588l-.01324.06623c1.76036-1.19665,2.59888-2.5815,2.13026-4.23338a5.37133,5.37133,0,0,0-.87949-1.68227C217.19251,46.74492,217.1725,46.754,217.14505,46.76Z"/><path class="cls-4" d="M218.09856,48.42085a5.37173,5.37173,0,0,0-.87949-1.68235v.00016A5.37135,5.37135,0,0,1,218.09856,48.42085Z"/><path class="cls-4" d="M215.98154,52.588v-.00017l-.00683.01764Z"/><path class="cls-4" d="M215.97471,52.60547l-.02446.06257.018-.01374v-.00007l.01324-.06623Z"/><path class="cls-4" d="M215.98154,52.58783c-.02957.00276-.05395.00951-.083.01269.01869.02275.03252.0446.05178.06752l.02446-.06257Z"/><path class="cls-1" d="M215.95025,52.668l.02446-.06257"/><path class="cls-4" d="M217.13415,46.70771l.0411-.0373h0l.0001-.00008c.01756.02335.02656.04494.04372.06817,1.30223-.3122,1.55446-1.06785.9089-2.20282-.01884.015-.03461.03154-.05363.04648l-.02813-.05577a1.59844,1.59844,0,0,0-.9691,2.04228Q217.10234,46.6395,217.13415,46.70771Z"/><path class="cls-4" d="M218.08946,44.53568l-.01512.04648c.019-.01494.03479-.03144.05363-.04648-.01884.015-.03461.03144-.05355.0464Z"/><path class="cls-4" d="M218.07442,44.58208c.01894-.015.03471-.03144.05355-.0464-.00908-.016-.014-.03023-.02347-.04641l-.015.04641Z"/><path class="cls-4" d="M218.08946,44.53568l.015-.04641c-.02342.01065-.03561.02609-.05829.03706l.02813.05577Z"/><path class="cls-4" d="M217.17535,46.6704c.01756.02335.02656.04494.04372.06819V46.7385c-.01714-.02323-.02616-.04485-.04372-.06817Z"/><path class="cls-4" d="M217.14505,46.76c.02745-.006.04746-.01512.074-.02145-.01714-.02325-.02616-.04487-.04372-.06819l-.0152.04477Z"/><path class="cls-4" d="M217.16015,46.71518l.0151-.04477-.0411.0373c.00633.01861.00415.03356.0109.05234Z"/><path class="cls-4" d="M217.17535,46.6704h-.0001l-.0151.04477Z"/></svg>