<svg width="40" height="40" viewBox="0 0 40 40" fill="none" xmlns="http://www.w3.org/2000/svg">
<g clip-path="url(#clip0_23298_4030)">
<path d="M40 0H0V40H40V0Z" fill="#E7157B" fill-opacity="0.12"/>
<path fill-rule="evenodd" clip-rule="evenodd" d="M12.854 19.1462C13.049 19.3412 13.049 19.6582 12.854 19.8532L9.354 23.3533L8.647 22.6462L11.293 20.0002H6V19.0002H11.293L8.647 16.3532L9.354 15.6462L12.854 19.1462ZM34 20.0002H28.708L31.354 22.6462L30.647 23.3533L27.147 19.8532C26.952 19.6582 26.952 19.3412 27.147 19.1462L30.647 15.6462L31.354 16.3532L28.708 19.0002H34V20.0002ZM23.647 29.6462L24.354 30.3533L20.854 33.8533C20.756 33.9513 20.628 34.0002 20.5 34.0002C20.373 34.0002 20.245 33.9513 20.147 33.8533L16.647 30.3533L17.354 29.6462L20 32.2922V28.0002H21V32.2922L23.647 29.6462ZM17.354 10.3533L16.647 9.64625L20.147 6.14625C20.342 5.95125 20.659 5.95125 20.854 6.14625L24.354 9.64625L23.647 10.3533L21 7.70725V12.0002H20V7.70725L17.354 10.3533ZM24 16.7933C23.524 16.6493 22.991 16.6862 22.494 16.9172C22.115 17.0952 21.809 17.3983 21.632 17.7723C21.317 18.4403 21.351 19.1643 21.726 19.7563C22.202 20.5073 23.169 20.8533 24 20.6003V23.0002H21.5C21.295 23.0002 21.112 23.1243 21.036 23.3143C20.96 23.5043 21.008 23.7222 21.157 23.8622C21.292 23.9922 21.717 24.4523 21.45 24.9513C21.379 25.0833 21.254 25.2602 21.06 25.3512C20.568 25.5812 20.198 25.4262 20.019 25.3132C19.731 25.1292 19.559 24.8172 19.559 24.4792C19.559 24.2242 19.634 24.0632 19.844 23.8622C19.993 23.7212 20.041 23.5043 19.965 23.3143C19.889 23.1243 19.706 23.0002 19.5 23.0002H16V15.5002C16 15.3072 16.274 15.0002 16.5 15.0002H24V16.7933ZM24.5 14.0002H16.5C15.744 14.0002 15 14.7432 15 15.5002V23.5002C15 23.7762 15.224 24.0002 15.5 24.0002H18.619C18.579 24.1502 18.559 24.3092 18.559 24.4792C18.559 25.1612 18.904 25.7882 19.482 26.1562C19.81 26.3653 20.178 26.4702 20.555 26.4702C20.864 26.4702 21.18 26.3992 21.485 26.2572C21.835 26.0922 22.128 25.8043 22.333 25.4223C22.57 24.9773 22.593 24.4732 22.422 24.0002H24.5C24.777 24.0002 25 23.7762 25 23.5002V19.7222C25 19.5182 24.876 19.3343 24.687 19.2583C24.498 19.1813 24.283 19.2282 24.14 19.3752C23.705 19.8292 22.902 19.7422 22.571 19.2222C22.46 19.0472 22.309 18.6823 22.537 18.1993C22.614 18.0363 22.75 17.9022 22.917 17.8232C23.368 17.6132 23.823 17.6853 24.14 18.0153C24.281 18.1623 24.498 18.2103 24.687 18.1333C24.876 18.0573 25 17.8732 25 17.6692V14.5002C25 14.2232 24.777 14.0002 24.5 14.0002Z" fill="#E7157B"/>
</g>
<rect x="0.5" y="0.5" width="39" height="39" stroke="#E7157B"/>
<defs>
<clipPath id="clip0_23298_4030">
<rect width="40" height="40" fill="white"/>
</clipPath>
</defs>
</svg>
