<svg width="91" height="186" viewBox="0 0 91 186" fill="#000000" xmlns="http://www.w3.org/2000/svg">
<path d="M45.6134 84.8935C48.8134 89.1869 54.7734 95.3335 65.8268 103.774C64.6134 50.2135 50.9201 11.7202 46.4934 1.01352C45.9868 -0.199818 44.2668 -0.199818 43.7601 1.01352C39.3468 11.7202 25.6401 50.2669 24.4268 103.774C35.4801 95.3335 41.4401 89.1869 44.6401 84.8935C44.8801 84.5602 45.3734 84.5602 45.6134 84.8935Z" fill="#1A1A1A"/>
<path d="M24.4265 103.787C23.2798 104.654 22.0931 105.547 20.8398 106.48C-0.146853 121.894 -0.066853 146.334 -0.000186354 155.334C-0.000186354 156.014 0.559814 156.574 1.25315 156.574H26.2265C24.9731 148.907 24.2798 130.814 24.2798 116.387C24.2798 112.094 24.3331 107.894 24.4265 103.787Z" fill="#1A1A1A"/>
<path d="M69.3994 106.467C68.146 105.547 66.9594 104.654 65.8127 103.787C65.906 107.894 65.9594 112.094 65.9594 116.387C65.9594 130.814 65.266 148.907 64.0127 156.574H88.986C89.6794 156.574 90.226 156.027 90.2394 155.334C90.306 146.334 90.386 121.907 69.4127 106.467H69.3994Z" fill="#1A1A1A"/>
<path d="M46.5329 184.161C49.6796 174.681 55.6796 165.974 64.0262 156.574H26.2129C34.5596 165.974 40.5596 174.681 43.7062 184.161C43.9062 184.774 44.4662 185.188 45.1196 185.188C45.7596 185.188 46.3196 184.774 46.5329 184.161Z" fill="#1A1A1A"/>
</svg>