<svg width="40" height="40" viewBox="0 0 40 40" fill="none" xmlns="http://www.w3.org/2000/svg">
<g clip-path="url(#clip0_23299_4171)">
<path d="M40 0H0V40H40V0Z" fill="#E7157B" fill-opacity="0.12"/>
<path fill-rule="evenodd" clip-rule="evenodd" d="M15.7143 11.1031L19.2857 9.61291V21.8694C15.8186 21.4784 15.7143 18.2585 15.7143 18.2233V11.1031ZM24.2857 18.2233C24.2857 18.2585 24.1814 21.4784 20.7143 21.8694V9.61291L24.2857 11.1031V18.2233ZM20 23.318C24.6879 23.318 25.7143 19.6409 25.7143 18.2233V10.6359C25.7143 10.3534 25.5429 10.0976 25.2786 9.98774L20.2786 7.90084C20.1 7.82686 19.9 7.82686 19.7214 7.90084L14.7214 9.98774C14.4571 10.0976 14.2857 10.3534 14.2857 10.6359V18.2233C14.2857 19.6409 15.3129 23.318 20 23.318ZM12.8571 9.06759L20 6.45579L27.1429 9.06759V17.6547C27.1429 20.2961 26.215 24.7271 20 24.7271C13.2014 24.7271 12.8571 18.8356 12.8571 17.6547V9.06759ZM20 26.1362C27.9536 26.1362 28.5714 19.6444 28.5714 17.6547V8.57792C28.5714 8.28271 28.3857 8.01921 28.1057 7.91704L20.2486 5.04386C20.0879 4.98538 19.9121 4.98538 19.7514 5.04386L11.8943 7.91704C11.6143 8.01921 11.4286 8.28271 11.4286 8.57792V17.6547C11.4286 18.5227 11.6693 26.1362 20 26.1362ZM32.1429 30.3635C31.355 30.3635 30.7143 29.7316 30.7143 28.9544C30.7143 28.1773 31.355 27.5453 32.1429 27.5453C32.9307 27.5453 33.5714 28.1773 33.5714 28.9544C33.5714 29.7316 32.9307 30.3635 32.1429 30.3635ZM21.4286 33.1818C21.4286 33.9589 20.7879 34.5909 20 34.5909C19.2121 34.5909 18.5714 33.9589 18.5714 33.1818C18.5714 32.4046 19.2121 31.7727 20 31.7727C20.7879 31.7727 21.4286 32.4046 21.4286 33.1818ZM7.85714 30.3635C7.06929 30.3635 6.42857 29.7316 6.42857 28.9544C6.42857 28.1773 7.06929 27.5453 7.85714 27.5453C8.645 27.5453 9.28571 28.1773 9.28571 28.9544C9.28571 29.7316 8.645 30.3635 7.85714 30.3635ZM32.1429 26.1362C31.4307 26.1362 30.7864 26.4039 30.285 26.8309L29.0907 25.6515C30.8764 24.2036 32.395 22.3302 33.4986 20.1052L32.2157 19.4852C29.7471 24.4572 25.0664 27.5453 20 27.5453C14.7436 27.5453 9.42571 24.2311 7.07 19.4852L5.78714 20.1052C6.85 22.2463 8.42286 24.0958 10.3014 25.5479L9.3 26.5357C8.87429 26.2884 8.385 26.1362 7.85714 26.1362C6.28143 26.1362 5 27.4009 5 28.9544C5 30.5087 6.28143 31.7727 7.85714 31.7727C9.43286 31.7727 10.7143 30.5087 10.7143 28.9544C10.7143 28.4338 10.56 27.9511 10.31 27.5319L11.4764 26.3814C13.8114 27.8821 16.5157 28.7924 19.2857 28.9277V30.4636C18.0564 30.7792 17.1429 31.8727 17.1429 33.1818C17.1429 34.736 18.4243 36 20 36C21.5757 36 22.8571 34.736 22.8571 33.1818C22.8571 31.8727 21.9436 30.7792 20.7143 30.4636V28.9277C23.3036 28.7945 25.7786 27.9469 27.9371 26.5075L29.4621 28.0117C29.355 28.3076 29.2857 28.6226 29.2857 28.9544C29.2857 30.5087 30.5671 31.7727 32.1429 31.7727C33.7186 31.7727 35 30.5087 35 28.9544C35 27.4009 33.7186 26.1362 32.1429 26.1362Z" fill="#E7157B"/>
</g>
<rect x="0.5" y="0.5" width="39" height="39" stroke="#E7157B"/>
<defs>
<clipPath id="clip0_23299_4171">
<rect width="40" height="40" fill="white"/>
</clipPath>
</defs>
</svg>
