<svg id="b838ae64-4f4f-4097-b260-14b447d9408e" data-name="Layer 1" xmlns="http://www.w3.org/2000/svg" viewBox="0 0 386.43191 258.75823"><defs><style>.a1b9aa3b-1a86-4efe-ae15-7d9852fc1cdf,.bb0792cb-8c25-4356-bbc3-525ff4d73ab6,.be8cb1e1-2ee3-4593-85ef-b1dabb035535,.e0064562-c022-4141-9e6a-d66f8288f1fc,.ee66e682-d519-4b6e-8a8c-1947584e5ca2,.f4c0b57d-b3d5-4c52-ae2c-9492b2656435,.fde00d22-265f-4d68-8e11-14b724357e52{fill:#fff;}.b92987be-d22f-4128-a64f-b30f60052b38,.e0064562-c022-4141-9e6a-d66f8288f1fc{opacity:0.5;}.f4c0b57d-b3d5-4c52-ae2c-9492b2656435{opacity:0.6;}.bb0792cb-8c25-4356-bbc3-525ff4d73ab6{opacity:0.9;}.be8cb1e1-2ee3-4593-85ef-b1dabb035535{opacity:0.8;}.fde00d22-265f-4d68-8e11-14b724357e52{opacity:0.7;}.b92987be-d22f-4128-a64f-b30f60052b38{fill:none;stroke:#fff;stroke-linecap:round;stroke-linejoin:round;stroke-width:0;}.a1b9aa3b-1a86-4efe-ae15-7d9852fc1cdf{opacity:0.95;}</style></defs><path class="e0064562-c022-4141-9e6a-d66f8288f1fc" d="M59.42722,224.8234a5.97463,5.97463,0,0,1,5.97446-5.97446H26.67051a5.97452,5.97452,0,0,1,0,11.949H65.40168A5.97458,5.97458,0,0,1,59.42722,224.8234Z" transform="translate(-7.56809 -68.45595)"/><path class="f4c0b57d-b3d5-4c52-ae2c-9492b2656435" d="M59.42722,168.37461a5.97424,5.97424,0,0,1,5.97335-5.97446H12.41431c-.14549.5145-.29874,1.02554-.43806,1.54263q-.3782,1.40274-.72495,2.81733-.401,1.63467-.75837,3.286c-.20713.95218-.407,1.90707-.593,2.86739-.09235.47615-.16928.9576-.25632,1.43561H65.4018A5.97443,5.97443,0,0,1,59.42722,168.37461Z" transform="translate(-7.56809 -68.45595)"/><path class="bb0792cb-8c25-4356-bbc3-525ff4d73ab6" d="M65.4018,162.4l-.00123.00012H66.6378a5.97447,5.97447,0,0,1,0,11.94893H92.39315A111.45712,111.45712,0,0,1,95.6483,162.4Z" transform="translate(-7.56809 -68.45595)"/><path class="f4c0b57d-b3d5-4c52-ae2c-9492b2656435" d="M72.61226,168.37461a5.97425,5.97425,0,0,0-5.97446-5.97446H65.40057a5.97447,5.97447,0,0,0,.00123,11.94893h1.236A5.97433,5.97433,0,0,0,72.61226,168.37461Z" transform="translate(-7.56809 -68.45595)"/><path class="bb0792cb-8c25-4356-bbc3-525ff4d73ab6" d="M72.61226,168.37461a5.97425,5.97425,0,0,0-5.97446-5.97446H65.40057a5.97447,5.97447,0,0,0,.00123,11.94893h1.236A5.97433,5.97433,0,0,0,72.61226,168.37461Z" transform="translate(-7.56809 -68.45595)"/><path class="be8cb1e1-2ee3-4593-85ef-b1dabb035535" d="M59.42722,149.009a5.97443,5.97443,0,0,1,5.97446-5.97459H19.61244a128.27521,128.27521,0,0,0-4.86176,11.94905h50.651A5.9744,5.9744,0,0,1,59.42722,149.009Z" transform="translate(-7.56809 -68.45595)"/><path class="e0064562-c022-4141-9e6a-d66f8288f1fc" d="M86.82753,143.03438a5.97453,5.97453,0,1,1,0,11.94905H98.38919a111.69514,111.69514,0,0,1,5.79569-11.949Z" transform="translate(-7.56809 -68.45595)"/><path class="be8cb1e1-2ee3-4593-85ef-b1dabb035535" d="M92.80211,149.009a5.97438,5.97438,0,0,0-5.97458-5.97459H65.40168a5.97453,5.97453,0,0,0,0,11.94905H86.82753A5.97435,5.97435,0,0,0,92.80211,149.009Z" transform="translate(-7.56809 -68.45595)"/><path class="be8cb1e1-2ee3-4593-85ef-b1dabb035535" d="M92.80211,149.009a5.97438,5.97438,0,0,0-5.97458-5.97459H65.40168a5.97453,5.97453,0,0,0,0,11.94905H86.82753A5.97435,5.97435,0,0,0,92.80211,149.009Z" transform="translate(-7.56809 -68.45595)"/><path class="f4c0b57d-b3d5-4c52-ae2c-9492b2656435" d="M79.617,130.46728a5.97443,5.97443,0,0,1,5.97458-5.97446H37.38331a5.97446,5.97446,0,0,1,.00123,11.94892H85.5903A5.97424,5.97424,0,0,1,79.617,130.46728Z" transform="translate(-7.56809 -68.45595)"/><path class="ee66e682-d519-4b6e-8a8c-1947584e5ca2" d="M43.35789,130.46728a5.97443,5.97443,0,0,0-5.97458-5.97446H30.2218a129.15272,129.15272,0,0,0-7.31736,11.949H37.38331l.00123-.00012A5.97424,5.97424,0,0,0,43.35789,130.46728Z" transform="translate(-7.56809 -68.45595)"/><path class="be8cb1e1-2ee3-4593-85ef-b1dabb035535" d="M103.72106,124.49282a5.97446,5.97446,0,1,1,0,11.94892H85.5903l.00123.00012h22.5859a112.43046,112.43046,0,0,1,9.00977-11.949Z" transform="translate(-7.56809 -68.45595)"/><path class="f4c0b57d-b3d5-4c52-ae2c-9492b2656435" d="M109.69564,130.46728a5.9745,5.9745,0,0,0-5.97458-5.97446H85.59153a5.97446,5.97446,0,0,0-.00123,11.94892h18.13076A5.97443,5.97443,0,0,0,109.69564,130.46728Z" transform="translate(-7.56809 -68.45595)"/><path class="be8cb1e1-2ee3-4593-85ef-b1dabb035535" d="M109.69564,130.46728a5.9745,5.9745,0,0,0-5.97458-5.97446H85.59153a5.97446,5.97446,0,0,0-.00123,11.94892h18.13076A5.97443,5.97443,0,0,0,109.69564,130.46728Z" transform="translate(-7.56809 -68.45595)"/><path class="fde00d22-265f-4d68-8e11-14b724357e52" d="M92.80211,92.56006a5.97432,5.97432,0,0,1,5.97446-5.97446H70.69631c-.18777.11183-.38159.2144-.56874.32709-.535.32229-1.05908.66072-1.589.99053-1.11111.69154-2.21506,1.39368-3.30323,2.11778-.59229.394-1.17818.79646-1.76356,1.19987q-1.53869,1.06062-3.04432,2.16488c-.56677.41536-1.134.82962-1.69365,1.254-1.06635.8083-2.11458,1.63879-3.15466,2.47915-.4552.3679-.91853.72631-1.36854,1.10013-.12366.1027-.24116.21243-.36445.31563H98.77657A5.97451,5.97451,0,0,1,92.80211,92.56006Z" transform="translate(-7.56809 -68.45595)"/><path class="f4c0b57d-b3d5-4c52-ae2c-9492b2656435" d="M99.18861,86.5856a5.97453,5.97453,0,1,1,0,11.94905h50.63078a110.57759,110.57759,0,0,1,38.41653-11.949Z" transform="translate(-7.56809 -68.45595)"/><path class="ee66e682-d519-4b6e-8a8c-1947584e5ca2" d="M105.16332,92.56006a5.97445,5.97445,0,0,0-5.97471-5.97446h-.412a5.97453,5.97453,0,0,0,0,11.94905h.412A5.97464,5.97464,0,0,0,105.16332,92.56006Z" transform="translate(-7.56809 -68.45595)"/><path class="ee66e682-d519-4b6e-8a8c-1947584e5ca2" d="M136.68391,68.456A128.69567,128.69567,0,0,0,85.16112,79.16888H188.2067A128.69563,128.69563,0,0,0,136.68391,68.456Z" transform="translate(-7.56809 -68.45595)"/><line class="b92987be-d22f-4128-a64f-b30f60052b38" x1="20.75058" y1="124.43482" x2="0.06251" y2="124.43482"/><path class="e0064562-c022-4141-9e6a-d66f8288f1fc" d="M32.69774,180.9416a5.97452,5.97452,0,0,1,0,11.949H28.3199l-.00123.00013H90.04235a113.02816,113.02816,0,0,1,1.14-11.94917Z" transform="translate(-7.56809 -68.45595)"/><path class="a1b9aa3b-1a86-4efe-ae15-7d9852fc1cdf" d="M7.56809,199.89533c.06966,4.02978.30712,8.0174.73765,11.949h82.5115a113.3253,113.3253,0,0,1-.8475-11.949Z" transform="translate(-7.56809 -68.45595)"/><path class="ee66e682-d519-4b6e-8a8c-1947584e5ca2" d="M65.40168,218.84894a5.97452,5.97452,0,0,0,0,11.949h29.433a111.68776,111.68776,0,0,1-2.92818-11.949Z" transform="translate(-7.56809 -68.45595)"/><path class="fde00d22-265f-4d68-8e11-14b724357e52" d="M20.284,224.8234a5.97448,5.97448,0,0,1,5.97447-5.97446H9.27555c.14844.89768.312,1.79019.47886,2.68159.17.908.32784,1.82.51684,2.72153.24708,1.17941.53151,2.34452.81064,3.51184.20516.85836.39466,1.723.61671,2.5742.04044.15461.08963.30552.13056.45988H26.25847A5.97443,5.97443,0,0,1,20.284,224.8234Z" transform="translate(-7.56809 -68.45595)"/><path class="ee66e682-d519-4b6e-8a8c-1947584e5ca2" d="M32.645,224.8234a5.97455,5.97455,0,0,0-5.97446-5.97446h-.412a5.97452,5.97452,0,0,0,0,11.949h.412A5.9745,5.9745,0,0,0,32.645,224.8234Z" transform="translate(-7.56809 -68.45595)"/><polygon class="e0064562-c022-4141-9e6a-d66f8288f1fc" points="80.908 169.347 80.908 169.347 80.908 169.347 80.908 169.347"/><polygon class="e0064562-c022-4141-9e6a-d66f8288f1fc" points="80.908 181.296 80.908 181.296 80.908 181.296 80.908 181.296"/><path class="e0064562-c022-4141-9e6a-d66f8288f1fc" d="M88.47581,237.80254a5.93259,5.93259,0,0,1,5.77066,4.50483c.03292.12909.0704.25472.09469.387a5.96032,5.96032,0,0,1-5.86535,7.05721h14.15091a111.62478,111.62478,0,0,1-5.37058-11.949Z" transform="translate(-7.56809 -68.45595)"/><path class="fde00d22-265f-4d68-8e11-14b724357e52" d="M94.24647,242.30737a5.97484,5.97484,0,0,0-3.44513-4.03533A5.97422,5.97422,0,0,1,94.24647,242.30737Z" transform="translate(-7.56809 -68.45595)"/><path class="fde00d22-265f-4d68-8e11-14b724357e52" d="M90.80134,249.28209a5.90362,5.90362,0,0,0,3.53982-6.58771,5.90459,5.90459,0,0,1-3.53982,6.58771Z" transform="translate(-7.56809 -68.45595)"/><path class="fde00d22-265f-4d68-8e11-14b724357e52" d="M82.50123,243.777a5.97459,5.97459,0,0,1,5.97458-5.97446H13.91415c.22685.69389.46271,1.38333.701,2.07192.35632,1.02961.7109,2.06008,1.09237,3.078.36223.96636.74912,1.92039,1.13366,2.87553.40551,1.00729.81015,2.01495,1.24007,3.00918.133.30736.27827.60819.41352.91445h69.981A5.97461,5.97461,0,0,1,82.50123,243.777Z" transform="translate(-7.56809 -68.45595)"/><path class="be8cb1e1-2ee3-4593-85ef-b1dabb035535" d="M22.48229,257.99239c.0974.184.18679.373.28505.55642.722,1.347,1.48394,2.66938,2.25192,3.98774.34534.59279.67182,1.19778,1.02616,1.78452q1.7127,2.83528,3.55955,5.5771c.01.01454.021.02848.03082.04315h86.48457a112.37846,112.37846,0,0,1-8.73237-11.94893Z" transform="translate(-7.56809 -68.45595)"/><path class="e0064562-c022-4141-9e6a-d66f8288f1fc" d="M85.59153,288.89492a5.97452,5.97452,0,1,1,0-11.949H34.76842q.40815.52374.82038,1.04391,1.60748,2.01951,3.29583,3.97221c.48614.56307.96537,1.13206,1.46088,1.68662,1.52746,1.70969,3.09117,3.38645,4.70517,5.01119.07645.07681.14771.15855.22427.23524h91.2477l-.00013-.00013Z" transform="translate(-7.56809 -68.45595)"/><path class="e0064562-c022-4141-9e6a-d66f8288f1fc" d="M79.617,282.92046a5.9745,5.9745,0,0,0,5.97458,5.97446h50.931a112.32363,112.32363,0,0,1-14.03094-11.949h-36.9A5.97461,5.97461,0,0,0,79.617,282.92046Z" transform="translate(-7.56809 -68.45595)"/><path class="bb0792cb-8c25-4356-bbc3-525ff4d73ab6" d="M79.617,282.92046a5.9745,5.9745,0,0,0,5.97458,5.97446h50.931a112.32363,112.32363,0,0,1-14.03094-11.949h-36.9A5.97461,5.97461,0,0,0,79.617,282.92046Z" transform="translate(-7.56809 -68.45595)"/><path class="e0064562-c022-4141-9e6a-d66f8288f1fc" d="M172.84421,307.84853H180.283c-1.43536-.27827-2.85666-.59328-4.2718-.92616A5.92722,5.92722,0,0,1,172.84421,307.84853Z" transform="translate(-7.56809 -68.45595)"/><path class="e0064562-c022-4141-9e6a-d66f8288f1fc" d="M136.37913,301.87407a5.97458,5.97458,0,0,1,5.97447-5.97458H95.89241a5.97452,5.97452,0,0,1,0,11.949H142.3536A5.97448,5.97448,0,0,1,136.37913,301.87407Z" transform="translate(-7.56809 -68.45595)"/><path class="e0064562-c022-4141-9e6a-d66f8288f1fc" d="M89.91783,301.87407a5.9746,5.9746,0,0,1,5.97458-5.97458H52.89486c.312.26631.61547.54223.93011.80571.52892.44261,1.06364.87845,1.59983,1.31293q1.46915,1.19063,2.97454,2.33748c.53853.41093,1.0751.82408,1.62017,1.22675,1.13625.83937,2.29088,1.65445,3.45525,2.45708.41228.28419.81631.57947,1.23205.859q2.26621,1.5237,4.60173,2.95012H95.89241A5.9745,5.9745,0,0,1,89.91783,301.87407Z" transform="translate(-7.56809 -68.45595)"/><path class="ee66e682-d519-4b6e-8a8c-1947584e5ca2" d="M101.86688,301.87407a5.97453,5.97453,0,1,0-5.97447,5.97446A5.97458,5.97458,0,0,0,101.86688,301.87407Z" transform="translate(-7.56809 -68.45595)"/><path class="ee66e682-d519-4b6e-8a8c-1947584e5ca2" d="M147.51742,295.89949H142.3536a5.97452,5.97452,0,0,0,0,11.949h30.49061a5.92722,5.92722,0,0,0,3.167-.92616A110.654,110.654,0,0,1,147.51742,295.89949Z" transform="translate(-7.56809 -68.45595)"/><path class="ee66e682-d519-4b6e-8a8c-1947584e5ca2" d="M86.07286,316.50138a129.48482,129.48482,0,0,0,101.2221,0Z" transform="translate(-7.56809 -68.45595)"/><path class="bb0792cb-8c25-4356-bbc3-525ff4d73ab6" d="M34.29313,186.91631a5.97453,5.97453,0,0,0-5.97446-5.97471H8.61989q-.7614,5.89728-.9893,11.949H28.3199A5.97435,5.97435,0,0,0,34.29313,186.91631Z" transform="translate(-7.56809 -68.45595)"/><path class="e0064562-c022-4141-9e6a-d66f8288f1fc" d="M38.6722,186.91618a5.97443,5.97443,0,0,0-5.97446-5.97458H28.31867a5.97452,5.97452,0,0,1,.00123,11.949h4.37784A5.9744,5.9744,0,0,0,38.6722,186.91618Z" transform="translate(-7.56809 -68.45595)"/><path class="bb0792cb-8c25-4356-bbc3-525ff4d73ab6" d="M38.6722,186.91618a5.97443,5.97443,0,0,0-5.97446-5.97458H28.31867a5.97452,5.97452,0,0,1,.00123,11.949h4.37784A5.9744,5.9744,0,0,0,38.6722,186.91618Z" transform="translate(-7.56809 -68.45595)"/><path class="ee66e682-d519-4b6e-8a8c-1947584e5ca2" d="M94.45027,243.777a5.97686,5.97686,0,0,0-.10911-1.08262c-.02429-.13229-.06177-.25792-.09469-.387a5.93259,5.93259,0,0,0-5.77066-4.50483h0a5.97453,5.97453,0,1,0,0,11.94905h0a5.96948,5.96948,0,0,0,5.97446-5.97459Z" transform="translate(-7.56809 -68.45595)"/><path class="bb0792cb-8c25-4356-bbc3-525ff4d73ab6" d="M46.56446,105.127c-.1715.16694-.34916.32759-.51968.49551-1.7299,1.70426-3.42405,3.44551-5.0563,5.24482-.14167.15622-.27334.32143-.41439.47838q-2.22978,2.48223-4.32519,5.08281c-.17273.21342-.33757.43325-.50895.64765h88.46094a112.2346,112.2346,0,0,1,14.631-11.94917Z" transform="translate(-7.56809 -68.45595)"/><path class="ee66e682-d519-4b6e-8a8c-1947584e5ca2" d="M264.827,68.868a128.53,128.53,0,0,0-63.86489,16.90919c.206-.00111.40871-.01566.615-.01566,54.46441,0,99.81276,39.14247,109.66585,90.92763H262.91841a65.04809,65.04809,0,1,0-15.99978,66.9616H218.85279V212.63738H309.4442v90.92751H278.7705V278.8045a111.0468,111.0468,0,0,1-77.19345,31.10423c-.45765,0-.90828-.02909-1.36459-.03464A129.16648,129.16648,0,1,0,264.827,68.868Z" transform="translate(-7.56809 -68.45595)"/></svg>