<svg width="18" height="18" viewBox="0 0 32 32" xmlns="http://www.w3.org/2000/svg"><title>file_type_kusto</title><rect x="0.55" y="22.339" width="15.433" height="2.796" rx="0.439" transform="translate(-14.363 12.797) rotate(-44.999)" style="fill:#b8d432"/><rect x="1.372" y="16.382" width="9.859" height="2.796" rx="0.439" transform="translate(-10.727 9.663) rotate(-44.999)" style="fill:#b8d432"/><rect x="9.232" y="24.301" width="9.859" height="2.796" rx="0.439" transform="translate(-14.024 17.541) rotate(-44.999)" style="fill:#b8d432"/><polygon points="30 2 2 2 30 29.999 30 2" style="fill:#0078d4"/><polygon points="10.282 10.282 21.718 21.718 30 13.436 30 2 18.564 2 10.282 10.282" style="fill:#59b4d9"/><polygon points="30 29.999 30 2 16 16 30 29.999" style="fill:#ffffff;opacity:0.20000000298023224;isolation:isolate"/><rect x="16.226" y="9.001" width="2.796" height="2.796" rx="0.622" transform="translate(-2.192 15.507) rotate(-44.999)" style="fill:#fff"/><rect x="20.18" y="5.048" width="2.796" height="2.796" rx="0.622" transform="translate(1.762 17.146) rotate(-44.999)" style="fill:#fff"/><rect x="20.18" y="12.955" width="2.796" height="2.796" rx="0.622" transform="translate(-3.829 19.461) rotate(-44.999)" style="fill:#fff"/><rect x="24.133" y="9.002" width="2.796" height="2.796" rx="0.622" transform="translate(0.124 21.099) rotate(-44.999)" style="fill:#fff"/></svg>