<svg width="24" height="24" viewBox="0 0 24 24" fill="none" xmlns="http://www.w3.org/2000/svg">
<path d="M14.86 11.6202H16.86V11.6802C16.86 17.5902 13.42 19.6802 12.28 20.2202V21.7502L12.53 21.6702C12.76 21.5902 18.3 19.5902 18.3 11.6702V10.2002H14.13L14.86 11.6202Z" fill="#DDDDDD"/>
<path d="M14.1299 10.2L14.8299 8.93V2.25L13.7099 3.12C11.2699 4.91 8.70993 8.2 8.86993 12.06C8.8945 13.3174 9.21516 14.5513 9.80591 15.6615C10.3967 16.7718 11.2408 17.7271 12.2699 18.45L12.3699 18.52L13.1199 17.3L13.0199 17.24C12.7265 17.0276 12.4521 16.79 12.1999 16.53L14.8599 15V11.62L14.1299 10.2ZM13.4299 11.62V14.18L11.2999 15.41C10.654 14.3856 10.3077 13.201 10.2999 11.99C10.1699 8.66 12.4299 6.14 13.4099 5.21V8.53L11.7299 11.62H13.4499" fill="white"/>
<path d="M12.24 20.2204C10.6395 19.4063 9.30952 18.1454 8.41138 16.5905C7.51323 15.0356 7.08548 13.2535 7.18 11.4604V10.1504H5.75V11.4604C5.75 18.9804 11.35 21.4604 11.99 21.6604L12.23 21.7504" fill="white"/>
</svg>
