<svg width="90" height="90" viewBox="0 0 90 90" fill="none" xmlns="http://www.w3.org/2000/svg">
<path fill-rule="evenodd" clip-rule="evenodd" d="M41.1166 37.3387C60.5107 37.3387 76.2327 29.7637 76.2327 20.4194C76.2327 11.0751 60.5107 3.5 41.1166 3.5C21.7225 3.5 6.00049 11.0751 6.00049 20.4194C6.00049 29.7637 21.7225 37.3387 41.1166 37.3387ZM6.00049 69.5803V26.7224C9.56403 34.3019 23.9319 39.9712 41.1142 39.9712C58.3043 39.9712 72.6773 34.2968 76.2327 26.7121V51.7368C74.74 51.2583 73.1487 51 71.4971 51C62.9368 51 55.9973 57.9396 55.9973 66.5C55.9973 73.354 60.446 79.169 66.6134 81.2149C60.2134 84.4699 51.1571 86.5002 41.1166 86.5002C21.7225 86.5002 6.00049 78.9251 6.00049 69.5808V69.5803ZM84 66.5C84 73.4035 78.4037 78.9999 71.5002 78.9999C64.5967 78.9999 59.0003 73.4035 59.0003 66.5C59.0003 59.5964 64.5967 54 71.5002 54C78.4037 54 84 59.5964 84 66.5ZM73.5317 63.6999C73.5317 63.1774 73.3585 62.7582 73.0123 62.4423C72.666 62.1264 72.2073 61.9685 71.6363 61.9685C71.2839 61.9685 70.965 62.0444 70.6795 62.1963C70.394 62.3482 70.1479 62.5699 69.9414 62.8615C69.747 63.141 69.4827 63.302 69.1486 63.3445C68.8145 63.387 68.5259 63.2989 68.2829 63.0802C68.1128 62.9223 68.0187 62.7279 68.0004 62.497C67.9822 62.2662 68.0399 62.0475 68.1736 61.8409C68.5624 61.2577 69.0575 60.8051 69.6589 60.4832C70.2603 60.1612 70.9194 60.0002 71.6363 60.0002C72.8148 60.0002 73.7716 60.3343 74.5067 61.0026C75.2418 61.6708 75.6093 62.5456 75.6093 63.627C75.6093 64.1737 75.4939 64.6658 75.263 65.1032C75.0322 65.5406 74.6069 66.057 73.9873 66.6523C73.5377 67.0776 73.234 67.4087 73.076 67.6456C72.9181 67.8825 72.8148 68.1528 72.7662 68.4566C72.7176 68.7482 72.5931 68.9912 72.3926 69.1856C72.1921 69.38 71.9522 69.4772 71.6727 69.4772C71.3933 69.4772 71.1533 69.383 70.9529 69.1947C70.7524 69.0064 70.6521 68.7725 70.6521 68.493C70.6521 68.0192 70.7554 67.5848 70.962 67.19C71.1685 66.7951 71.5148 66.3789 72.0008 65.9415C72.6204 65.3948 73.0305 64.9726 73.231 64.6749C73.4314 64.3772 73.5317 64.0522 73.5317 63.6999ZM71.6363 73.8512C71.2353 73.8512 70.8921 73.7084 70.6066 73.4229C70.3211 73.1374 70.1783 72.7941 70.1783 72.3932C70.1783 71.9922 70.3211 71.649 70.6066 71.3635C70.8921 71.078 71.2353 70.9352 71.6363 70.9352C72.0372 70.9352 72.3805 71.078 72.666 71.3635C72.9515 71.649 73.0943 71.9922 73.0943 72.3932C73.0943 72.7941 72.9515 73.1374 72.666 73.4229C72.3805 73.7084 72.0372 73.8512 71.6363 73.8512Z" fill="#326CE5"/>
</svg>
