<svg width="40" height="40" viewBox="0 0 40 40" xmlns="http://www.w3.org/2000/svg">  <g id="Icon-Architecture/32/Arch_NICE-EnginFrame_32" stroke="none" stroke-width="1" fill="none" fill-rule="evenodd">  <g id="Icon-Service/32/NICE-EnginFrame_32" transform="translate(6.000000, 8.000000)" fill="#FFFFFF"> <path d="M5.575,14.462 C6.875,17.147 10.217,19 14,19 C18.963,19 23,15.859 23,12 C23,8.14 18.963,5 14,5 C10.217,5 6.875,6.852 5.575,9.537 C5.715,9.512 5.857,9.5 6,9.5 L16,9.5 C17.379,9.5 18.5,10.621 18.5,12 C18.5,13.378 17.379,14.5 16,14.5 L6,14.5 C5.857,14.5 5.715,14.487 5.575,14.462 M14,20 C9.276,20 5.157,17.319 4.207,13.625 C4.152,13.413 4.242,13.19 4.429,13.075 C4.614,12.96 4.854,12.98 5.02,13.124 C5.217,13.295 5.546,13.5 6,13.5 L16,13.5 C16.827,13.5 17.5,12.827 17.5,12 C17.5,11.172 16.827,10.5 16,10.5 L6,10.5 C5.546,10.5 5.217,10.704 5.02,10.876 C4.854,11.02 4.614,11.04 4.429,10.924 C4.242,10.809 4.152,10.586 4.207,10.374 C5.157,6.68 9.276,4 14,4 C19.513,4 24,7.588 24,12 C24,16.411 19.513,20 14,20 M14,1 C6.832,1 1,5.934 1,12 C1,18.065 6.832,23 14,23 C21.168,23 27,18.065 27,12 C27,5.934 21.168,1 14,1 M14,24 C6.28,24 0,18.616 0,12 C0,5.383 6.28,0 14,0 C21.72,0 28,5.383 28,12 C28,18.616 21.72,24 14,24" id="Fill-4"></path> </g> </g></svg>