<svg width="90" height="90" viewBox="0 0 90 90" fill="none" xmlns="http://www.w3.org/2000/svg">
<path fill-rule="evenodd" clip-rule="evenodd" d="M24.9027 14.6088H23.3481V6.99976C23.3481 5.89519 24.2436 4.99976 25.3481 4.99976H33.0349V6.55428V8.10881H26.4572V14.6088H24.9027ZM36.8783 6.55428V4.99976H52.2519V6.55428V8.10881H36.8783V6.55428ZM56.0952 6.55428V4.99976H71.4688V6.55428V8.10881H56.0952V6.55428ZM75.3122 6.55428V4.99976H82.999C84.1035 4.99976 84.999 5.89519 84.999 6.99976V14.6088H83.4444H81.8899V8.10881H75.3122V6.55428ZM83.4444 18.4133H84.999V33.6314H83.4444H81.8899V18.4133H83.4444ZM83.4444 37.4359H84.999V52.654H83.4444H81.8899V37.4359H83.4444ZM83.4444 56.4585H84.999V64.0675C84.999 65.1721 84.1035 66.0675 82.999 66.0675H75.3122V64.513V62.9585H81.8899V56.4585H83.4444Z" fill="white"/>
<mask id="path-2-inside-1_26091_15624" fill="white">
<rect x="13.2063" y="14.9958" width="61.6508" height="61.0678" rx="2"/>
</mask>
<rect x="13.2063" y="14.9958" width="61.6508" height="61.0678" rx="2" stroke="white" stroke-width="6.21811" stroke-dasharray="16 4" mask="url(#path-2-inside-1_26091_15624)"/>
<path fill-rule="evenodd" clip-rule="evenodd" d="M7.00122 23.9324C5.89665 23.9324 5.00122 24.8278 5.00122 25.9324V83.0002C5.00122 84.1047 5.89665 85.0002 7.00122 85.0002H64.652C65.7566 85.0002 66.652 84.1047 66.652 83.0002V25.9324C66.652 24.8278 65.7566 23.9324 64.652 23.9324H7.00122ZM49.9919 44.795C49.9919 48.7715 43.3031 51.995 35.0519 51.995C26.8008 51.995 20.1119 48.7715 20.1119 44.795C20.1119 40.8186 26.8008 37.595 35.0519 37.595C43.3031 37.595 49.9919 40.8186 49.9919 44.795ZM20.1182 47.4802V65.7151C20.1182 69.6916 26.8071 72.9151 35.0582 72.9151C43.3093 72.9151 49.9982 69.6916 49.9982 65.7151V47.4696C48.4881 50.6988 42.3715 53.1151 35.0557 53.1151C27.7479 53.1151 21.6368 50.7041 20.1182 47.4802Z" fill="white"/>
</svg>
