<svg id="e93b32ab-e2ba-431e-bcb5-b6ade3b66965" data-name="FxSymbol0-087" xmlns="http://www.w3.org/2000/svg" width="18" height="18" viewBox="0 0 18 18"><g><path d="M5.267,8.167,2.41,9.21a7.172,7.172,0,0,0,.233,1.361l2.71-.981a5.607,5.607,0,0,1-.086-1.423M17.9,5a8.8,8.8,0,0,0-.687-1.177L14.352,4.865A5.814,5.814,0,0,1,15.2,5.993C15.186,5.981,17.9,5,17.9,5Z" fill="#c32034"/><path d="M11.612,4.19a5.358,5.358,0,0,1,1.545,1.1l2.858-1.042A8.16,8.16,0,0,0,1.239,9.634L4.1,8.592a5.24,5.24,0,0,1,.478-1.84A5.3,5.3,0,0,1,11.612,4.19" fill="#db212f"/><path d="M2.814,10.487.1,11.468A8.5,8.5,0,0,0,1.38,14.24L4.225,13.2a5.366,5.366,0,0,1-1.411-2.71" fill="#ea2227"/><path d="M14.66,9.408a5.514,5.514,0,0,1-.479,1.84,5.3,5.3,0,0,1-7.05,2.562,5.358,5.358,0,0,1-1.545-1.1L2.741,13.749A8.064,8.064,0,0,0,5.929,16.4,8.158,8.158,0,0,0,17.517,8.366Z" fill="#db212f"/><path d="M15.362,5.917l-2.71.981a5.3,5.3,0,0,1,.662,2.992l2.845-1.042a8.26,8.26,0,0,0-.8-2.931" fill="#ea2227"/><path d="M2.417,9.2l2.845-1.03-.012.564L2.5,9.753ZM14.349,4.848l2.894-.981.307.442-2.808.98c-.013.013-.393-.441-.393-.441Z" fill="#ad213a"/><path d="M2.726,13.744l2.845-1.018.858.8-2.992,1.1C3.45,14.627,2.726,13.744,2.726,13.744Zm14.83-5.356-2.894,1.03-.208,1.141,3.09-1.08C17.531,9.467,17.556,8.388,17.556,8.388Z" fill="#ba2034"/></g></svg>