<svg width="40" height="40" viewBox="0 0 40 40" fill="none" xmlns="http://www.w3.org/2000/svg">
<g clip-path="url(#clip0_23296_3407)">
<path d="M40 0H0V40H40V0Z" fill="#C925D1" fill-opacity="0.12"/>
<path fill-rule="evenodd" clip-rule="evenodd" d="M33 19.972C33 25.262 29.82 29.815 25.275 31.843V30.734C29.251 28.777 32 24.695 32 19.972C32 14.383 28.153 9.687 22.972 8.36L22.48 7.216C28.466 8.378 33 13.653 33 19.972ZM14.725 30.734V31.843C10.181 29.815 7 25.262 7 19.972C7 13.655 11.531 8.382 17.512 7.217L17.021 8.362C11.843 9.692 8 14.385 8 19.972C8 24.695 10.749 28.777 14.725 30.734ZM16 33.972H17V23.972H16V33.972ZM23 33.972H24V23.972H23V33.972ZM19.5 31.972H20.5V20.972H19.5V31.972ZM20 7.669L25.206 19.847L20.305 16.11C20.147 15.99 19.863 16.019 19.689 16.115L14.794 19.847L20 7.669ZM13.281 21.789C13.462 21.928 13.713 21.93 13.892 21.792L19.996 17.132L26.108 21.792C26.197 21.86 26.305 21.894 26.411 21.894C26.52 21.894 26.628 21.859 26.719 21.789C26.897 21.649 26.96 21.407 26.871 21.198L20.492 6.276C20.334 5.908 19.666 5.908 19.508 6.276L13.129 21.198C13.04 21.407 13.103 21.649 13.281 21.789Z" fill="#C925D1"/>
</g>
<rect x="0.5" y="0.5" width="39" height="39" stroke="#C925D1"/>
<defs>
<clipPath id="clip0_23296_3407">
<rect width="40" height="40" fill="white"/>
</clipPath>
</defs>
</svg>
