<svg width="64" height="64" viewBox="0 0 64 64" xmlns="http://www.w3.org/2000/svg"><g fill="#7BB09F" fill-rule="evenodd"><path d="M11.787 17.78a1.73 1.73 0 0 1 0-2.902L31.166 2.28a1.73 1.73 0 0 1 .943-.28c.005 0 .005 28.658.005 28.658-.33 0-.66-.093-.948-.28L11.787 17.779Z"/><path d="M1.787 24.28a1.73 1.73 0 0 1 0-2.902L21.166 8.78a1.73 1.73 0 0 1 .943-.28c.005 0-5.359 6.43-5.647 6.243L1.787 24.279ZM32.1 32.8c.331-.002.663.092.952.28l19.38 12.598a1.73 1.73 0 0 1 0 2.901l-19.38 12.599a1.73 1.73 0 0 1-.918.28L32.1 32.8Z"/><path d="m42.66 51.682 19.77-12.504a1.73 1.73 0 0 1 0 2.901l-19.38 12.6c-.279.18-.598.274-.917.278 0 0 .236-3.463.525-3.275Z"/><path d="M34.165 33.799c-.447-.223-1.257-1.023-2.04-.999-.678 0-.943.28-2.04.999 1.526.653 7.174 2.602 8.754 3.039-2.514-1.664-4.072-2.677-4.674-3.04Zm-6.002 1.25-1.736 1.128c1.51 1.111 3.02 1.98 4.53 2.604 3.07 1.27 6.972 2.089 7.862 2.308 5.052 1.246 9.823 2.422 13.66 6.259.194.194.377.393.558.592a1.731 1.731 0 0 0-.59-2.255l-7.591-4.936c-1.843-.608-3.72-1.073-5.575-1.53-1.75-.432-4.708-1.198-6.363-1.727-1.103-.353-2.688-1.167-4.755-2.443Zm-.288 5.156c-1.256-.577-2.592-1.37-4.009-2.377l-1.654 1.09c1.622 1.243 3.027 2.153 4.215 2.73 1.783.868 8.584 2.724 9.006 2.828 5.051 1.245 9.822 2.42 13.66 6.258l.018.02 1.641-1.067c-.1-.105-.194-.212-.297-.315-4.217-4.217-9.476-5.513-14.56-6.767-.581-.143-6.136-1.535-8.02-2.4Zm6.29 8.188c3.953 1.021 7.67 2.241 10.817 5.045l1.662-1.08c-3.597-3.382-7.638-5.015-12.189-5.879-4.08-.775-6.757-1.735-9.803-2.947-2.03-.807-3.676-1.805-4.934-2.993l-1.67 1.086c2.014 1.745 3.793 2.941 5.337 3.59 2.038.856 5.631 1.915 10.78 3.178ZM15.579 43.23l-1.65 1.072c.059.06.111.121.17.18 4.217 4.217 9.475 5.513 14.56 6.767 4.405 1.085 8.595 2.12 12.14 4.91l1.69-1.1c-3.993-3.362-8.75-4.543-13.368-5.68-5-1.234-9.725-2.403-13.542-6.15m-3.503 3.277a16.795 16.795 0 0 1-.552-.584c-.752.753-.663 2.05.28 2.663l5.706 3.71c2.525 1.046 5.167 1.7 7.764 2.34 4.054 1 7.928 1.957 11.284 4.28l1.725-1.122c-3.815-2.868-8.243-3.967-12.548-5.029-5.051-1.245-9.822-2.42-13.66-6.258m18.569 14.328c.38.185.756.38 1.125.588.44.093.908.016 1.3-.238l.957-.623c-3.077-2.058-6.497-3.1-9.906-3.968l6.524 4.241Zm3.521-57.835c-.447-.223-1.257-1.023-2.04-.999-.678 0-.943.28-2.04.999 1.526.653 7.174 2.602 8.754 3.039-2.514-1.664-4.072-2.677-4.674-3.04Zm-6.002 1.25-1.736 1.128c1.51 1.111 3.02 1.98 4.53 2.604 3.07 1.27 6.972 2.089 7.862 2.308 5.052 1.246 9.823 2.422 13.66 6.259.194.194.377.393.558.592a1.731 1.731 0 0 0-.59-2.255l-7.591-4.936c-1.843-.608-3.72-1.073-5.575-1.53-1.75-.432-4.708-1.198-6.363-1.727-1.103-.353-2.688-1.167-4.755-2.443Zm-.288 5.156c-1.256-.577-2.592-1.37-4.009-2.377l-1.654 1.09c1.622 1.243 3.027 2.153 4.215 2.73 1.783.868 8.584 2.724 9.006 2.828 5.051 1.245 9.822 2.42 13.66 6.258l.018.02 1.641-1.067c-.1-.105-.194-.212-.297-.315-4.217-4.217-9.476-5.513-14.56-6.767-.581-.143-6.136-1.535-8.02-2.4Zm6.29 8.188c3.953 1.021 7.67 2.241 10.817 5.045l1.662-1.08c-3.597-3.382-7.638-5.015-12.189-5.879-4.08-.775-6.757-1.735-9.803-2.947-2.03-.807-3.676-1.805-4.934-2.993l-1.67 1.086c2.014 1.745 3.793 2.941 5.337 3.59 2.038.856 5.631 1.915 10.78 3.178ZM15.579 12.43l-1.65 1.072c.059.06.111.121.17.18 4.217 4.217 9.475 5.513 14.56 6.767 4.405 1.085 8.595 2.12 12.14 4.91l1.69-1.1c-3.993-3.362-8.75-4.543-13.368-5.68-5-1.234-9.725-2.403-13.542-6.15m-3.503 3.277a16.795 16.795 0 0 1-.552-.584c-.752.753-.663 2.05.28 2.663l5.706 3.71c2.525 1.046 5.167 1.7 7.764 2.34 4.054 1 7.928 1.957 11.284 4.28l1.725-1.122c-3.815-2.868-8.243-3.967-12.548-5.029-5.051-1.245-9.822-2.42-13.66-6.258m18.569 14.328c.38.185.756.38 1.125.588.44.093.908.016 1.3-.238l.957-.623c-3.077-2.058-6.497-3.1-9.906-3.968l6.524 4.241Z"/></g></svg>