<svg width="90" height="90" viewBox="0 0 90 90" fill="none" xmlns="http://www.w3.org/2000/svg">
<path fill-rule="evenodd" clip-rule="evenodd" d="M41.6182 37.3392C61.0125 37.3392 76.7347 29.764 76.7347 20.4196C76.7347 11.0752 61.0125 3.5 41.6182 3.5C22.2239 3.5 6.50171 11.0752 6.50171 20.4196C6.50171 29.764 22.2239 37.3392 41.6182 37.3392ZM6.50171 69.5795V26.7222C10.0655 34.3017 24.4334 39.9708 41.6156 39.9708C58.8062 39.9708 73.1796 34.2962 76.7347 26.7112V52.5343C75.2478 51.1165 73.2446 50.2472 71.0419 50.2472C66.4577 50.2472 62.7374 54.0123 62.7374 58.6515V61.0592H61.0763C59.2492 61.0592 57.7546 63.5262 57.7546 65.3753V82.1839C57.7546 83.0297 58.0673 83.8052 58.5815 84.3977C53.553 85.7369 47.7704 86.4991 41.6182 86.4991C22.2239 86.4991 6.50171 78.924 6.50171 69.5795ZM79.2042 63.1872H80.6357C82.2103 63.1872 83.4983 64.4832 83.4983 66.067V80.4645C83.4983 82.0483 82.2103 83.3443 80.6357 83.3443H63.4593C61.8848 83.3443 60.5967 82.0483 60.5967 80.4645V66.067C60.5967 64.4832 61.8848 63.1872 63.4593 63.1872H64.8908V60.3078C64.8908 56.334 68.097 53.1091 72.0475 53.1091C75.9981 53.1091 79.2042 56.334 79.2042 60.3078V63.1872ZM69.1849 73.2657C69.1849 74.8496 70.473 76.1451 72.0475 76.1451C73.6221 76.1451 74.9101 74.8496 74.9101 73.2657C74.9101 71.6819 73.6221 70.3863 72.0475 70.3863C70.473 70.3863 69.1849 71.6819 69.1849 73.2657ZM67.61 63.1872H76.4851V60.3078C76.4851 57.8459 74.4951 55.8442 72.0475 55.8442C69.6 55.8442 67.61 57.8459 67.61 60.3078V63.1872Z" fill="#326CE5"/>
</svg>
