<svg width="24px" height="24px" viewBox="0 0 24 24" fill="none" xmlns="http://www.w3.org/2000/svg">
<path d="M12.0311 12.0643C13.3455 12.0643 14.5306 12.6194 15.3637 13.5081C15.9764 12.8017 16.8712 12.3769 17.8395 12.3769H18.7093C20.5267 12.3769 22 13.8595 22 15.6884C22 17.5174 20.5267 19 18.7093 19H4.91801C3.30644 19 2 17.6853 2 16.0635C2 14.4418 3.30644 13.1271 4.91801 13.1271H7.09084C7.64771 13.1271 8.18086 13.2851 8.63817 13.5734C9.47243 12.6475 10.6839 12.0643 12.0311 12.0643ZM7.09084 14.3738H4.91801C3.99068 14.3738 3.23894 15.1303 3.23894 16.0635C3.23894 16.9967 3.99068 17.7532 4.91801 17.7532H7.47358L7.473 17.6653L7.4668 16.6233L7.466 16.619L7.467 16.572L7.472 16.405V16.397L7.47925 16.2845C7.48332 16.2286 7.48841 16.1733 7.49447 16.1183C7.49653 16.1003 7.49867 16.082 7.50093 16.0636C7.50854 16.0007 7.51751 15.9384 7.52772 15.8765C7.53138 15.8551 7.535 15.8341 7.53876 15.8132C7.56633 15.6587 7.60193 15.5066 7.64493 15.3577C7.65547 15.3218 7.66627 15.286 7.6775 15.2505C7.69166 15.205 7.70667 15.16 7.72235 15.1153L7.75657 15.0215C7.80825 14.8836 7.86653 14.7489 7.93092 14.6178L7.93785 14.604L7.91402 14.5903C7.66664 14.4499 7.38504 14.3738 7.09084 14.3738ZM18.7093 13.6236H17.8395C17.1296 13.6236 16.4838 13.9892 16.1104 14.5762L16.1177 14.5905C16.1874 14.7302 16.2503 14.874 16.3057 15.0214C16.313 15.0415 16.3203 15.0612 16.3274 15.081C16.3506 15.1449 16.3725 15.2103 16.3929 15.2764C16.3979 15.2931 16.403 15.3101 16.4081 15.3271L16.4329 15.4135L16.4558 15.5002C16.4811 15.5998 16.503 15.7006 16.5216 15.8026C16.5259 15.8271 16.5302 15.8518 16.5343 15.8765C16.5434 15.9309 16.5514 15.9856 16.5584 16.0406C16.5626 16.074 16.5665 16.1073 16.57 16.1407C16.5751 16.188 16.5793 16.236 16.5829 16.2841C16.5851 16.3149 16.587 16.3453 16.5887 16.3757L16.5937 16.4989L16.5953 16.6233V17.7532H18.7093C19.8424 17.7532 20.7611 16.8288 20.7611 15.6884C20.7611 14.5481 19.8424 13.6236 18.7093 13.6236ZM15.262 15.839V15.842L15.263 15.844L15.262 15.839ZM15.056 15.247L15.058 15.25L15.0572 15.2477L15.051 15.235L15.056 15.247ZM5.78773 7.88516C7.15683 7.88516 8.27088 8.98758 8.27088 10.3528C8.27088 11.718 7.15683 12.8204 5.78773 12.8204C4.41863 12.8204 3.30458 11.718 3.30458 10.3528C3.30458 8.98758 4.41863 7.88516 5.78773 7.88516ZM18.3637 6.75988C19.8169 6.75988 20.9984 7.93272 20.9984 9.38377C20.9984 10.8348 19.8169 12.0077 18.3637 12.0077C16.9106 12.0077 15.7291 10.8348 15.7291 9.38377C15.7291 7.93272 16.9106 6.75988 18.3637 6.75988ZM5.78773 9.13194C5.09826 9.13194 4.54352 9.68089 4.54352 10.3528C4.54352 11.0246 5.09826 11.5736 5.78773 11.5736C6.4772 11.5736 7.03194 11.0246 7.03194 10.3528C7.03194 9.68089 6.4772 9.13194 5.78773 9.13194ZM12.0621 5C13.6718 5 14.9801 6.2988 14.9801 7.90522C14.9801 9.51163 13.6718 10.8104 12.0621 10.8104C10.4524 10.8104 9.14411 9.51163 9.14411 7.90522C9.14411 6.2988 10.4524 5 12.0621 5ZM18.3637 8.00666C17.5911 8.00666 16.9681 8.62513 16.9681 9.38377C16.9681 10.1424 17.5911 10.7609 18.3637 10.7609C19.1364 10.7609 19.7594 10.1424 19.7594 9.38377C19.7594 8.62513 19.1364 8.00666 18.3637 8.00666ZM12.0621 6.24678C11.1329 6.24678 10.3831 6.9912 10.3831 7.90522C10.3831 8.81923 11.1329 9.56365 12.0621 9.56365C12.9913 9.56365 13.7412 8.81923 13.7412 7.90522C13.7412 6.9912 12.9913 6.24678 12.0621 6.24678ZM15.188 15.583L15.203 15.629L15.195 15.6012L15.179 15.554L15.188 15.583ZM15.188 15.583L15.172 15.534L15.1717 15.5315L15.161 15.503L15.16 15.5L15.1542 15.4833L15.146 15.462L15.145 15.459L15.1374 15.4381L15.127 15.413L15.118 15.39L15.115 15.383L15.1124 15.3759L15.112 15.374L15.105 15.357L15.109 15.368L15.076 15.29L15.07 15.276L15.0671 15.2702L15.056 15.247L15.047 15.228L15.048 15.229L15.029 15.19L15.025 15.182L15.021 15.174L15.023 15.177L15.0222 15.1745L15.0109 15.1511L15.001 15.133L15 15.131L14.98 15.092L14.97 15.073L14.963 15.06L14.958 15.051L14.942 15.022L14.9244 14.9896C14.9073 14.9596 14.8897 14.93 14.8717 14.9006L14.8214 14.8207L14.793 14.779L14.808 14.803L14.7639 14.7358C14.1636 13.875 13.1639 13.3111 12.0311 13.3111C10.8998 13.3111 9.90117 13.8735 9.30059 14.7314L9.29928 14.7341C9.21908 14.8489 9.14652 14.9681 9.08189 15.0912L9.071 15.111L9.051 15.151L9.059 15.133L9.038 15.177L9.036 15.182L9.032 15.19L9.01331 15.2287L9.005 15.247L9.004 15.25L8.994 15.27L8.992 15.276L8.98558 15.2906L8.974 15.315L8.98 15.303L8.90147 15.5001C8.87585 15.5709 8.85266 15.6426 8.83195 15.715L8.77733 15.9348L8.772 15.958L8.77 15.969L8.765 15.993L8.7579 16.0339L8.753 16.061V16.063L8.748 16.091V16.094L8.744 16.118L8.742 16.13L8.74 16.14V16.141L8.7217 16.2941C8.7111 16.4016 8.70573 16.5102 8.70573 16.6195L8.712 17.6653L8.71254 17.7532H15.3564V16.6233C15.3564 16.5464 15.3538 16.4699 15.3486 16.394L15.346 16.373L15.347 16.375C15.3465 16.3664 15.346 16.3597 15.3455 16.353L15.346 16.373L15.345 16.351L15.343 16.33L15.3406 16.298L15.338 16.284L15.333 16.236L15.33 16.212V16.209L15.3299 16.2026L15.3198 16.1306L15.3143 16.0942L15.3029 16.0284L15.287 15.95L15.284 15.934L15.28 15.917L15.2726 15.8805L15.263 15.844L15.27 15.876L15.262 15.842L15.255 15.813L15.252 15.802V15.8L15.2315 15.7211L15.229 15.715L15.221 15.688L15.188 15.583Z" fill="white"/>
</svg>
