<svg width="40" height="40" viewBox="0 0 40 40" xmlns="http://www.w3.org/2000/svg">  <g id="Icon-Architecture/32/Arch_AWS-Application-Composer_32" stroke="none" stroke-width="1" fill="none" fill-rule="evenodd">  <path d="M30.5,32.9 C29.121,32.9 28,31.778 28,30.4 C28,29.022 29.121,27.9 30.5,27.9 C31.879,27.9 33,29.022 33,30.4 C33,31.778 31.879,32.9 30.5,32.9 M21.768,32.268 C20.824,33.212 19.176,33.212 18.232,32.268 C17.76,31.796 17.5,31.168 17.5,30.5 C17.5,29.833 17.76,29.205 18.232,28.733 C18.704,28.26 19.332,28 20,28 C20.668,28 21.296,28.26 21.768,28.733 C22.24,29.205 22.5,29.833 22.5,30.5 C22.5,31.168 22.24,31.796 21.768,32.268 M7.732,22.268 C7.26,21.796 7,21.168 7,20.5 C7,19.833 7.26,19.205 7.732,18.733 C8.204,18.26 8.832,18 9.5,18 C10.168,18 10.796,18.26 11.268,18.733 C11.74,19.205 12,19.833 12,20.5 C12,21.168 11.74,21.796 11.268,22.268 C10.324,23.212 8.676,23.212 7.732,22.268 M18.232,8.733 C18.704,8.26 19.332,8 20,8 C20.668,8 21.296,8.26 21.768,8.733 C22.24,9.205 22.5,9.833 22.5,10.5 C22.5,11.168 22.24,11.796 21.768,12.268 C20.824,13.212 19.176,13.212 18.232,12.268 C17.76,11.796 17.5,11.168 17.5,10.5 C17.5,9.833 17.76,9.205 18.232,8.733 M30.5,8 C31.879,8 33,9.122 33,10.5 C33,11.879 31.879,13 30.5,13 C29.121,13 28,11.879 28,10.5 C28,9.122 29.121,8 30.5,8 M30.5,26.9 C28.707,26.9 27.242,28.26 27.04,30 L23.451,30 C23.345,29.256 23.016,28.566 22.475,28.025 C21.254,26.803 19.199,26.726 17.851,27.763 L12.347,22.521 C12.766,21.934 13,21.236 13,20.5 C13,19.763 12.767,19.066 12.347,18.479 L17.848,13.24 C18.462,13.724 19.206,14 20,14 C20.935,14 21.813,13.636 22.475,12.975 C23.016,12.434 23.345,11.744 23.451,11 L27.051,11 C27.296,12.692 28.742,14 30.5,14 C32.43,14 34,12.43 34,10.5 C34,8.57 32.43,7 30.5,7 C28.742,7 27.296,8.308 27.051,10 L23.451,10 C23.345,9.256 23.016,8.566 22.475,8.025 C21.154,6.703 18.846,6.703 17.525,8.025 C16.864,8.686 16.5,9.565 16.5,10.5 C16.5,11.237 16.733,11.934 17.153,12.522 L11.649,17.763 C10.301,16.726 8.246,16.803 7.025,18.025 C6.364,18.686 6,19.565 6,20.5 C6,21.435 6.364,22.314 7.025,22.975 C7.686,23.636 8.564,24 9.5,24 C10.293,24 11.038,23.724 11.652,23.24 L17.153,28.479 C16.733,29.066 16.5,29.763 16.5,30.5 C16.5,31.435 16.864,32.314 17.525,32.975 C18.186,33.636 19.064,34 20,34 C20.935,34 21.813,33.636 22.475,32.975 C23.016,32.434 23.345,31.744 23.451,31 L27.061,31 C27.347,32.644 28.776,33.9 30.5,33.9 C32.43,33.9 34,32.33 34,30.4 C34,28.47 32.43,26.9 30.5,26.9 M9.5,32 C8.673,32 8,31.327 8,30.5 C8,29.673 8.673,29 9.5,29 C10.327,29 11,29.673 11,30.5 C11,31.327 10.327,32 9.5,32 M9.5,28 C8.121,28 7,29.122 7,30.5 C7,31.879 8.121,33 9.5,33 C10.879,33 12,31.879 12,30.5 C12,29.122 10.879,28 9.5,28 M30.5,22 C29.673,22 29,21.327 29,20.5 C29,19.673 29.673,19 30.5,19 C31.327,19 32,19.673 32,20.5 C32,21.327 31.327,22 30.5,22 M30.5,18 C29.121,18 28,19.122 28,20.5 C28,21.879 29.121,23 30.5,23 C31.879,23 33,21.879 33,20.5 C33,19.122 31.879,18 30.5,18 M20,22 C19.173,22 18.5,21.327 18.5,20.5 C18.5,19.673 19.173,19 20,19 C20.827,19 21.5,19.673 21.5,20.5 C21.5,21.327 20.827,22 20,22 M20,18 C18.621,18 17.5,19.122 17.5,20.5 C17.5,21.879 18.621,23 20,23 C21.379,23 22.5,21.879 22.5,20.5 C22.5,19.122 21.379,18 20,18 M9.5,9 C10.327,9 11,9.673 11,10.5 C11,11.327 10.327,12 9.5,12 C8.673,12 8,11.327 8,10.5 C8,9.673 8.673,9 9.5,9 M9.5,13 C10.879,13 12,11.879 12,10.5 C12,9.122 10.879,8 9.5,8 C8.121,8 7,9.122 7,10.5 C7,11.879 8.121,13 9.5,13" id="Fill-5" fill="#FFFFFF"></path> </g></svg>