<svg xmlns="http://www.w3.org/2000/svg" role="img" viewBox="34.85 -0.15 286.30 358.80"><style>svg {enable-background:new 0 0 360 360}</style><style>.st5{fill:#fff}</style><ellipse id="Oval-8-Copy-10" cx="178.814" cy="344.702" fill="#e4e4e4" rx="61.071" ry="7.298"/><path id="Combined-Shape-Copy-13" d="M93.487 216.843l-13.31-17.71 2.899-2.146 11.806 15.563 1.288-4.079-11.27-14.919 2.898-2.146 9.66 12.88 1.288-4.08-9.23-12.127 2.897-2.147 7.62 10.089 5.367-17.065s-17.816-30.16-21.466-37.459c-6.01-12.45-43.04-1.932-42.073 20.608.966 22.217 46.152 72.555 46.152 72.555l5.474-17.817z"/><path id="Combined-Shape-Copy-14" d="M262.639 205.895l13.309-17.71-2.898-2.146-11.806 15.563-1.288-4.078 11.27-14.92-2.899-2.146-9.66 12.88-1.287-4.079 9.23-12.128-2.898-2.147-7.62 10.09-5.367-17.066s17.817-30.16 21.466-37.458c6.01-12.45 43.04-1.932 42.074 20.607s-46.152 72.555-46.152 72.555l-5.474-17.817z"/><g id="Group-12-Copy-8" transform="translate(60 164)"><path id="Line-Copy-18" d="M85.112 144.531c-1.18 0-2.146 1.074-2.146 2.254l.858 25.437c0 1.181 1.074 2.147 2.254 2.147l10.197-.322c1.18 0 2.146-1.073 2.146-2.254l-.858-25.437c0-1.18-1.074-2.147-2.254-2.147l-10.197.322z"/><path id="Rectangle-7-Copy-15" d="M70.516 175.657a4.077 4.077 0 0 1 4.078-4.078h19.32c2.253 0 4.078 1.824 4.078 3.434v-3.434c0 1.931-1.825 3.756-3.971 4.078l-9.875 1.61-9.552 2.254c-2.147.537-3.971-.859-3.971-3.113v-.75h-.107z"/></g><g id="Group-12-Copy-9" transform="matrix(-1 0 0 1 115 164)"><path id="Line-Copy-18_1_" d="M-101.058 144.531c-1.18 0-2.146 1.074-2.146 2.254l.858 25.437c0 1.181 1.074 2.147 2.254 2.147l10.197-.322c1.18 0 2.146-1.073 2.146-2.254l-.858-25.437c0-1.18-1.074-2.147-2.254-2.147l-10.197.322z"/><path id="Rectangle-7-Copy-15_1_" d="M-115.762 175.657a4.077 4.077 0 0 1 4.079-4.078h19.32c2.253 0 4.078 1.824 4.078 3.434v-3.434c0 1.931-1.825 3.756-3.972 4.078l-9.874 1.61-9.552 2.254c-2.147.537-3.972-.859-3.972-3.113v-.75h-.107z"/></g><path id="Rectangle-2-Copy-16" d="M80.178 104.79c-6.44-54.094 32.52-97.992 87.044-97.992h21.36c54.523 0 93.484 43.898 87.044 97.992l-20.07 168.401c-2.577 22.003-22.648 39.82-44.865 39.82h-65.686c-22.11 0-42.18-17.817-44.864-39.82l-19.963-168.4z"/><path id="Line-Copy-3" fill="none" stroke="#4a4a4a" stroke-linecap="square" stroke-width="12" d="M179.673 40.5V14.096"/><g id="Group-2-Copy" transform="translate(0 23)"><radialGradient id="Shape_1_" cx="-754.846" cy="488.715" r="2.903" gradientTransform="matrix(-38.7287 45.0999 -45.1 -38.7286 -7014.062 53023.762)" gradientUnits="userSpaceOnUse"><stop offset="0" stop-color="#7f7f7f"/><stop offset="1"/></radialGradient><path id="Shape" fill="url(#Shape_1_)" stroke="#000" stroke-width="2" d="M95.848 32.955c-16.1 0-29.194 13.094-29.194 29.194v53.343c0 16.1 12.987 27.584 28.98 25.652l69.013-8.48c7.942-.965 20.929-.965 28.979 0l69.013 8.48c15.992 1.932 28.98-9.552 28.98-25.652V62.15c0-16.1-13.095-29.194-29.195-29.194H95.848z"/><ellipse id="Oval-9" cx="86.403" cy="54.529" fill="#80ff00" rx="5.152" ry="5.259"/></g><path id="Rectangle-2-Copy-17" fill="#cf0019" d="M94.023 231.333s25.223 19.856 75.239 16.528c49.908-3.434 93.27-27.798 93.27-27.798s5.795 26.403 4.078 42.61c-1.717 16.207-4.508 19.105-4.508 19.105-3.971 10.303-15.455 22.324-25.544 26.832l-1.074.43-7.835 15.777c-.858 1.825-3.22 3.113-5.259 2.79l-22.11-2.79c-2.04-.215-4.4-1.932-5.366-3.65l-2.576-4.614c-.966-1.718-3.435-3.113-5.474-3.113H176.13c-2.04 0-4.615 1.288-5.903 2.898l-4.079 5.152c-1.288 1.61-3.864 3.113-5.903 3.435L142 327.5c-2.04.322-4.293-.966-5.152-2.79l-4.723-9.875c-.858-1.824-3.112-3.863-5.044-4.507l-9.552-3.435c-7.62-2.79-16.207-11.055-19.105-18.46l-1.073-2.684c-4.079-10.304-6.44-27.584-5.152-38.532l1.824-15.884z"/><path id="SR-71-Copy-11" d="M206.613 257.521l-.322-1.18c-.322-1.181-.215-2.147.322-2.898.536-.752 1.288-1.396 2.36-1.718.43-.214.967-.322 1.396-.429 1.717-.43 3.22-.644 4.508-.537l.751 2.791a94.47 94.47 0 0 0-4.508.966c-.536.107-.858.322-1.073.43-.214.107-.214.429-.107.75l.107.215c.107.322.215.537.43.644.214.108.536.108.965 0l1.718-.43c1.502-.428 2.683 0 3.542 1.074.429.537.75 1.18.966 1.932l.214.644c.752 2.79-.107 4.508-2.683 5.152-1.825.537-3.005.751-3.542.859-.537.107-1.395.107-2.361 0l-.751-2.791a36.73 36.73 0 0 0 4.83-1.073c.429-.108.643-.215.75-.43.108-.214.215-.429.108-.644l-.107-.322c-.108-.322-.215-.429-.322-.536-.215-.108-.43-.108-.859 0l-1.717.43c-.644.214-1.288.214-1.825.106s-.966-.214-1.288-.536a3.266 3.266 0 0 1-.858-.859c-.215-.43-.537-.966-.644-1.61zm13.523 5.903l-3.649-13.63 6.118-1.61c1.288-.323 2.468-.323 3.327.214s1.61 1.503 2.04 3.113c.429 1.502.429 2.683.214 3.327a6.154 6.154 0 0 0-.43.751c-.107.215-.321.322-.643.537l3.756 4.508-4.078 1.073-3.006-4.293h-1.18l1.395 5.044-3.864.966zm1.61-8.693l2.04-.537c.429-.107.643-.322.75-.537.108-.214 0-.644-.107-1.073-.107-.537-.322-.859-.536-.966-.215-.215-.537-.215-.859-.107l-2.04.536.752 2.684zm8.48 1.824l-.752-2.898 5.796-1.61.751 2.898-5.796 1.61zm4.722-8.157l-.859-3.22 8.909-2.361 1.287 1.18-.965 13.31-3.864 1.073.858-11.377-5.366 1.395zm15.455-7.62l3.65 13.63-3.65.967-2.683-10.197-2.04.966-.643-2.254 1.824-2.146 3.542-.966z" class="st5"/><path id="Rectangle-4-Copy-7" fill="#f5a623" d="M175.487 162.427c1.395-1.396 3.756-1.396 5.152 0l18.031 18.031c1.395 1.395 1.932 4.079 1.073 5.903l-19.104 40.893c-.859 1.825-2.254 1.825-3.22 0l-20.93-40.893c-.966-1.824-.536-4.4.86-5.796l18.138-18.138z"/><path d="M89.408 101.57h-5.044v-3.434h14.06v3.435h-4.937v14.704h-4.079V101.57zm11.806-3.434h11.377v3.435h-7.298v3.649h6.225v3.434h-6.225v4.186h7.513v3.435h-11.592V98.136zm15.241 0h4.079v14.704h7.191v3.435h-11.27V98.136zm14.275 0h11.377v3.435h-7.298v3.649h6.225v3.434h-6.225v4.186h7.513v3.435H130.73V98.136zm15.241 0h6.655c3.97 0 7.083 1.395 7.083 5.796 0 4.293-3.22 6.118-7.083 6.118h-2.576v6.117h-4.079V98.136zm6.333 8.694c2.253 0 3.327-.966 3.327-2.898 0-1.932-1.18-2.576-3.327-2.576h-2.254v5.474h2.254zm20.285 9.445l-3.435-6.547H166.9v6.547h-4.078V98.136h6.547c3.864 0 6.977 1.288 6.977 5.688 0 2.684-1.288 4.401-3.22 5.26l4.078 7.298h-4.615v-.107zm-5.689-9.767h2.04c2.146 0 3.327-.966 3.327-2.684 0-1.824-1.18-2.36-3.327-2.36h-2.04v5.044zm12.987-8.372h11.377v3.435h-7.298v3.649h6.225v3.434h-6.225v4.186h7.513v3.435H179.78V98.136h.107zm16.315 13.094c1.288 1.074 2.897 1.932 4.4 1.932 1.717 0 2.576-.644 2.576-1.717 0-1.18-1.073-1.503-2.576-2.147l-2.361-.966c-1.932-.751-3.65-2.36-3.65-4.937 0-3.005 2.684-5.366 6.44-5.366 2.04 0 4.294.858 5.796 2.36l-2.039 2.577c-1.18-.966-2.361-1.395-3.757-1.395s-2.253.643-2.253 1.61c0 1.073 1.18 1.502 2.79 2.146l2.361.966c2.147.859 3.542 2.361 3.542 4.937 0 3.005-2.468 5.581-6.762 5.581-2.36 0-4.83-.858-6.761-2.576l2.254-3.005zm14.274-13.094h11.377v3.435h-7.298v3.649h6.225v3.434h-6.225v4.186h7.513v3.435H210.37V98.136h.107zm15.134 0h4.186l4.722 9.016 1.825 3.97h.107c-.214-1.931-.536-4.507-.536-6.654v-6.44h3.864v18.14h-4.186l-4.723-9.016-1.824-3.972h-.108c.215 2.04.537 4.401.537 6.548v6.44h-3.971V98.135h.107zm26.189-.322c2.254 0 4.185 1.073 5.366 2.361l-2.254 2.576c-.966-.858-1.824-1.395-3.112-1.395-2.576 0-4.508 2.146-4.508 5.796 0 3.756 1.717 5.903 4.4 5.903 1.503 0 2.576-.644 3.435-1.61l2.254 2.468c-1.503 1.718-3.542 2.684-5.796 2.684-4.723 0-8.586-3.22-8.586-9.338.214-5.903 4.185-9.445 8.8-9.445zm8.371.322h11.377v3.435h-7.298v3.649h6.225v3.434h-6.225v4.186h7.513v3.435h-11.699V98.136h.107z" class="st5"/></svg>