<svg width="391" height="395" viewBox="0 0 391 395" fill="none" xmlns="http://www.w3.org/2000/svg">
<path fill-rule="evenodd" clip-rule="evenodd" d="M195.387 25.6297C193.303 24.5826 190.847 24.5826 188.764 25.6297L52.145 94.2978C50.1768 95.2871 48.7542 97.1046 48.2669 99.2524L15.0381 245.722C14.5436 247.902 15.0653 250.188 16.4566 251.938L110.02 369.614C111.418 371.373 113.543 372.399 115.791 372.399H268.36C270.608 372.399 272.733 371.373 274.131 369.614L367.694 251.938C369.085 250.188 369.607 247.902 369.113 245.722L335.884 99.2524C335.396 97.1046 333.974 95.2871 332.006 94.2978L195.387 25.6297ZM182.141 12.4602C188.391 9.31869 195.76 9.31869 202.01 12.4602L338.629 81.1283C344.533 84.0962 348.801 89.5485 350.263 95.9921L383.492 242.461C384.975 249.001 383.41 255.86 379.236 261.11L285.673 378.786C281.478 384.064 275.103 387.139 268.36 387.139H115.791C109.048 387.139 102.673 384.064 98.4774 378.786L4.91444 261.11C0.740681 255.86 -0.824562 249.001 0.659069 242.461L33.8879 95.9921C35.3497 89.5485 39.6174 84.0962 45.5221 81.1283L182.141 12.4602Z" fill="white"/>
<path fill-rule="evenodd" clip-rule="evenodd" d="M200.24 18.1375L247.022 238.387L37.7461 102.001L45.7979 89.6528L225.189 206.563L185.818 21.1993L200.24 18.1375Z" fill="white"/>
<path fill-rule="evenodd" clip-rule="evenodd" d="M368.146 255.309L234.329 227.711L237.136 213.26L370.953 240.858L368.146 255.309Z" fill="white"/>
<path fill-rule="evenodd" clip-rule="evenodd" d="M241.154 225.143L116.409 378.014L104.984 368.696L229.729 215.825L241.154 225.143Z" fill="white"/>
<path fill-rule="evenodd" clip-rule="evenodd" d="M103.542 374.522L34.6177 97.6058L48.9256 94.0464L117.85 370.963L103.542 374.522Z" fill="white"/>
<path fill-rule="evenodd" clip-rule="evenodd" d="M361.881 262.227L130.887 374.522L125.421 362.36L356.415 250.065L361.881 262.227Z" fill="white"/>
<path d="M262.616 215.826C262.616 231.656 249.779 244.49 233.944 244.49C218.109 244.49 205.272 231.656 205.272 215.826C205.272 199.995 218.109 187.161 233.944 187.161C249.779 187.161 262.616 199.995 262.616 215.826Z" fill="white"/>
<path d="M390.889 250.064C390.889 260.859 382.135 269.61 371.338 269.61C360.54 269.61 351.786 260.859 351.786 250.064C351.786 239.27 360.54 230.518 371.338 230.518C382.135 230.518 390.889 239.27 390.889 250.064Z" fill="white"/>
<path d="M136.314 370.333C136.314 383.567 125.583 394.295 112.345 394.295C99.108 394.295 88.377 383.567 88.377 370.333C88.377 357.099 99.108 346.371 112.345 346.371C125.583 346.371 136.314 357.099 136.314 370.333Z" fill="white"/>
<path d="M60.3447 95.8258C60.3447 106.081 52.0292 114.394 41.7716 114.394C31.514 114.394 23.1985 106.081 23.1985 95.8258C23.1985 85.5709 31.514 77.2577 41.7716 77.2577C52.0292 77.2577 60.3447 85.5709 60.3447 95.8258Z" fill="white"/>
<path d="M209.512 18.1376C209.512 27.7652 201.706 35.5699 192.075 35.5699C182.445 35.5699 174.638 27.7652 174.638 18.1376C174.638 8.50997 182.445 0.705261 192.075 0.705261C201.706 0.705261 209.512 8.50997 209.512 18.1376Z" fill="white"/>
</svg>