<svg id="Layer_1" data-name="Layer 1" xmlns="http://www.w3.org/2000/svg" viewBox="0 0 275 220"><defs><style>.cls-1{opacity:0.8;}.cls-2{fill:#fff;}.cls-3{fill:none;stroke:#00b39f;stroke-linecap:round;stroke-linejoin:round;stroke-width:0;}.cls-4{fill:#00b39f;}</style></defs><title>nighthawk-icon_white</title><g class="cls-1"><polygon class="cls-2" points="147.43 112.45 137.52 114.25 128.42 112.6 123.9 111.78 120.33 146.63 112.8 220 137.52 176.73 162.24 220 154.72 146.63 151.14 111.78 147.43 112.45"/></g><path class="cls-2" d="M274.32,140.52h0l-123.71-125A150.44,150.44,0,0,0,137.6.09L137.52,0h0l-.08.09a152,152,0,0,0-13,15.41L2.47,138.75l55-10,0,0,.3-.06-.1-.1.1.1h0l17.05-3.1,17.42-3.16,8.14-10.82,20,35,3.57-34.85,4.52.82,9.1,1.65,9.9-1.8,3.72-.67,3.58,34.85,20-35,8.13,10.82,17.8,3.23L218,128.86l.55.1h0l54,9.8Zm-120.06-29.8c0,.16.05.32.07.48C154.31,111,154.28,110.88,154.26,110.72Z"/><line class="cls-3" x1="57.74" y1="128.73" x2="57.64" y2="128.63"/><path class="cls-4" d="M176.31,149.78l.43.35-.17-.47Z"/><path class="cls-4" d="M100,148.41h0a1.17,1.17,0,0,0-.06.2s0,0,0,0l.08-.09.05-.05h0Z"/><path class="cls-3" d="M100,148.41l0,0"/><path class="cls-3" d="M154.33,111.2c0-.16-.05-.32-.07-.48"/><g class="cls-1"><polygon class="cls-2" points="274.32 140.53 274.32 140.52 272.58 138.76 218.59 128.96 218.57 128.96 275 186 275 147.1 274.32 140.53"/></g><g class="cls-1"><polygon class="cls-2" points="2.47 138.75 2.42 138.76 0.68 140.53 0 147.1 0 186.85 57.44 128.79 57.45 128.77 2.47 138.75"/></g></svg>