<svg width="40" height="40" viewBox="0 0 40 40" xmlns="http://www.w3.org/2000/svg">  <g id="Icon-Architecture/32/Arch_AWS-Thinkbox-Krakatoa_32" stroke="none" stroke-width="1" fill="none" fill-rule="evenodd">  <g id="Icon-Service/32/AWS-ThinkBox-Krakatoa_32" transform="translate(6.000000, 6.000000)" fill="#FFFFFF"> <path d="M13.0000341,1.38425 L13.0000341,4.00025 L14.0000341,4.00025 L14.0000341,1.38425 L16.1310341,2.66525 L16.6460341,1.80825 L13.7580341,0.07125 C13.6000341,-0.02375 13.4000341,-0.02375 13.2420341,0.07125 L10.3540341,1.80825 L10.8690341,2.66525 L13.0000341,1.38425 Z M18.3260341,27.00025 L13.5000341,23.83525 L8.67403413,27.00025 L18.3260341,27.00025 Z M13.0000341,20.39425 C12.6920341,14.70325 7.68303413,9.92725 1.00003413,8.89025 L1.00003413,11.00025 L-1.77635684e-15,11.00025 L-1.77635684e-15,8.31625 C-1.77635684e-15,8.17325 0.0620341266,8.03625 0.169034127,7.94125 C0.192034127,7.92125 0.222034127,7.91225 0.248034127,7.89725 L0.242034127,7.88725 L3.13103413,6.15025 L3.64603413,7.00825 L1.93003413,8.04025 C7.07703413,9.06925 11.1860341,12.22725 13.0000341,16.30725 L13.0000341,14.00025 C13.0000341,9.79725 10.8980341,6.05925 7.74703413,4.61025 L6.24103413,5.43825 L5.75903413,4.56225 L7.48103413,3.61425 C7.61503413,3.54225 7.77603413,3.53225 7.91603413,3.59225 C10.6200341,4.72725 12.6190341,7.22225 13.5000341,10.34625 C14.3810341,7.22125 16.3800341,4.72725 19.0840341,3.59225 C19.2240341,3.53225 19.3840341,3.54225 19.5190341,3.61425 L21.2410341,4.56225 L20.7590341,5.43825 L19.2530341,4.61025 C16.1020341,6.05825 14.0000341,9.79625 14.0000341,14.00025 L14.0000341,16.31925 C15.8140341,12.22725 19.9230341,9.06825 25.0700341,8.04025 L23.3540341,7.00825 L23.8690341,6.15025 L26.7580341,7.88725 L26.7520341,7.89625 C26.7780341,7.91225 26.8080341,7.92125 26.8310341,7.94125 C26.9380341,8.03625 27.0000683,8.17325 27.0000683,8.31625 L27.0000683,11.00025 L26.0000341,11.00025 L26.0000341,8.89025 C19.3210341,9.92625 14.3130341,14.69825 14.0000341,20.41225 L14.0000341,22.96725 L16.0000341,24.27825 L16.0000341,21.79025 C16.1540341,18.27125 18.6620341,15.93425 22.0900341,16.08025 C23.4600341,16.14025 24.7240341,16.72625 25.6500341,17.73225 C26.5770341,18.73825 27.0550341,20.04425 26.9950341,21.40725 C26.8960341,23.65225 25.0300341,25.41225 22.7950341,25.41225 C22.7330341,25.41225 22.6710341,25.41125 22.6090341,25.40825 C21.6850341,25.36825 20.8310341,24.97225 20.2060341,24.29425 C19.5790341,23.61425 19.2570341,22.73325 19.2970341,21.81125 C19.3650341,20.24525 20.6170341,19.12125 22.2350341,19.18425 L22.1920341,20.18325 C21.1320341,20.12525 20.3410341,20.84025 20.2970341,21.85525 C20.2680341,22.50925 20.4970341,23.13425 20.9410341,23.61625 C21.3860341,24.09925 21.9940341,24.38125 22.6520341,24.40925 C24.4630341,24.48825 25.9190341,23.11925 25.9950341,21.36325 C26.0440341,20.26825 25.6600341,19.21825 24.9150341,18.40925 C24.1690341,17.59925 23.1500341,17.12725 22.0470341,17.07925 C19.1500341,16.94325 17.1290341,18.85625 17.0000341,21.81225 L17.0000341,24.93425 L20.2740341,27.08225 C20.4590341,27.20325 20.5420341,27.43125 20.4790341,27.64325 C20.4160341,27.85525 20.2210341,28.00025 20.0000341,28.00025 L7.00003413,28.00025 C6.77903413,28.00025 6.58403413,27.85525 6.52103413,27.64325 C6.45803413,27.43125 6.54103413,27.20325 6.72603413,27.08225 L10.0000341,24.93425 L10.0000341,21.79025 C9.87103413,18.85625 7.84903413,16.94525 4.95303413,17.07925 C3.85003413,17.12725 2.83103413,17.59925 2.08503413,18.40925 C1.34003413,19.21825 0.956034127,20.26825 1.00503413,21.36325 C1.08203413,23.11925 2.56403413,24.48825 4.34803413,24.40925 C5.00603413,24.38125 5.61403413,24.09925 6.05903413,23.61625 C6.50303413,23.13425 6.73203413,22.50925 6.70303413,21.85525 C6.66003413,20.84025 5.84503413,20.12625 4.80803413,20.18325 L4.76503413,19.18425 C6.37903413,19.12225 7.63503413,20.24525 7.70303413,21.81125 C7.74303413,22.73325 7.42103413,23.61425 6.79403413,24.29425 C6.16903413,24.97225 5.31503413,25.36825 4.39103413,25.40825 C4.32903413,25.41125 4.26703413,25.41225 4.20503413,25.41225 C1.96903413,25.41325 0.104034127,23.65325 0.00503412658,21.40725 C-0.0549658734,20.04425 0.423034127,18.73825 1.35003413,17.73225 C2.27603413,16.72625 3.54003413,16.14025 4.91003413,16.08025 C8.34903413,15.93025 10.8460341,18.27025 11.0000341,21.76825 L11.0000341,24.27825 L13.0000341,22.96725 L13.0000341,20.39425 Z M26.0000341,16.00025 L27.0000341,16.00025 L27.0000341,13.00025 L26.0000341,13.00025 L26.0000341,16.00025 Z M3.41265751e-05,16.00025 L1.00003413,16.00025 L1.00003413,13.00025 L3.41265751e-05,13.00025 L3.41265751e-05,16.00025 Z" id="AWS-ThinkBox-Krakatoa_32_Squid"></path> </g> </g></svg>