<svg width="40" height="40" viewBox="0 0 40 40" fill="none" xmlns="http://www.w3.org/2000/svg">
<g clip-path="url(#clip0_23311_9617)">
<path d="M40 0H0V40H40V0Z" fill="#DD344C" fill-opacity="0.12"/>
<path fill-rule="evenodd" clip-rule="evenodd" d="M16.245 29.953C16.245 29.7 16.039 29.494 15.785 29.494C15.531 29.494 15.325 29.7 15.325 29.953C15.325 30.206 15.531 30.413 15.785 30.413C16.039 30.413 16.245 30.206 16.245 29.953ZM17.245 29.953C17.245 30.758 16.59 31.413 15.785 31.413C14.98 31.413 14.325 30.758 14.325 29.953C14.325 29.148 14.98 28.494 15.785 28.494C16.59 28.494 17.245 29.148 17.245 29.953ZM26.516 30.355L25.655 29.494H19.005C18.783 29.494 18.589 29.348 18.525 29.136C18.168 27.934 17.041 27.094 15.785 27.094C14.208 27.094 12.926 28.377 12.926 29.953C12.926 31.53 14.208 32.812 15.785 32.812C16.884 32.812 17.898 32.171 18.37 31.179C18.452 31.004 18.628 30.893 18.821 30.893H20.103C20.236 30.893 20.363 30.946 20.457 31.039L21.063 31.645L21.67 31.039C21.764 30.946 21.891 30.893 22.023 30.893H22.983C23.116 30.893 23.243 30.946 23.337 31.039L23.943 31.645L24.549 31.039C24.642 30.946 24.769 30.893 24.902 30.893H25.711L26.516 30.355ZM27.655 30.079C27.761 30.185 27.814 30.333 27.8 30.482C27.784 30.631 27.704 30.766 27.579 30.849L26.14 31.809C26.058 31.864 25.961 31.893 25.862 31.893H25.109L24.297 32.706C24.109 32.893 23.777 32.893 23.59 32.706L22.776 31.893H22.23L21.417 32.706C21.222 32.901 20.905 32.901 20.71 32.706L19.896 31.893H19.122C18.436 33.069 17.159 33.812 15.785 33.812C13.657 33.812 11.926 32.081 11.926 29.953C11.926 27.825 13.657 26.094 15.785 26.094C17.352 26.094 18.771 27.064 19.358 28.494H25.862C25.995 28.494 26.122 28.546 26.216 28.64L27.655 30.079ZM29.542 12.984L26.45 10.169L23.328 12.974L26.514 15.724L29.542 12.984ZM30.622 13.355L26.857 16.762C26.762 16.848 26.641 16.891 26.521 16.891C26.405 16.891 26.289 16.85 26.194 16.769L22.244 13.36C22.136 13.266 22.072 13.13 22.071 12.986C22.07 12.843 22.13 12.705 22.237 12.609L26.118 9.122C26.309 8.95 26.599 8.953 26.789 9.125L30.623 12.615C30.726 12.71 30.786 12.845 30.786 12.986C30.786 13.126 30.726 13.261 30.622 13.355ZM16.58 14.995L13.565 10.397L10.459 14.995H16.58ZM17.506 15.995H9.517C9.333 15.995 9.163 15.892 9.076 15.729C8.989 15.566 9 15.368 9.103 15.215L13.157 9.215C13.25 9.077 13.405 8.995 13.571 8.995H13.575C13.742 8.995 13.897 9.08 13.989 9.22L17.924 15.22C18.024 15.374 18.033 15.571 17.945 15.732C17.858 15.894 17.689 15.995 17.506 15.995ZM10.906 21.447C10.906 22.884 12.075 24.053 13.512 24.053C14.948 24.053 16.117 22.884 16.117 21.447C16.117 20.01 14.948 18.841 13.512 18.841C12.075 18.841 10.906 20.01 10.906 21.447ZM9.906 21.447C9.906 19.458 11.523 17.841 13.512 17.841C15.5 17.841 17.117 19.458 17.117 21.447C17.117 23.435 15.5 25.053 13.512 25.053C11.523 25.053 9.906 23.435 9.906 21.447ZM24.036 24H29.008V18.893H24.036V24ZM29.508 17.893C29.784 17.893 30.008 18.117 30.008 18.393V24.5C30.008 24.777 29.784 25 29.508 25H23.536C23.26 25 23.036 24.777 23.036 24.5V18.393C23.036 18.117 23.26 17.893 23.536 17.893H29.508ZM34 6.5V31.572C34 31.848 33.776 32.072 33.5 32.072H29V31.072H33V7H7V31.072H11V32.072H6.5C6.224 32.072 6 31.848 6 31.572V6.5C6 6.224 6.224 6 6.5 6H33.5C33.776 6 34 6.224 34 6.5Z" fill="#DD344C"/>
</g>
<rect x="0.5" y="0.5" width="39" height="39" stroke="#DD344C"/>
<defs>
<clipPath id="clip0_23311_9617">
<rect width="40" height="40" fill="white"/>
</clipPath>
</defs>
</svg>
