<svg width="40" height="40" viewBox="0 0 40 40" xmlns="http://www.w3.org/2000/svg">  <g id="Icon-Architecture/32/Arch_AWS-re:Post_32" stroke="none" stroke-width="1" fill="none" fill-rule="evenodd">  <g id="Icon-Service/32/AWS-re:Post_32" transform="translate(6.000000, 6.000000)" fill="#FFFFFF"> <path d="M13.2628097,17 L20.2628097,17 L20.2628097,16 L13.2628097,16 L13.2628097,17 Z M13.2628097,9 L19.2628097,9 L19.2628097,8 L13.2628097,8 L13.2628097,9 Z M13.2628097,6 L22.2628097,6 L22.2628097,5 L13.2628097,5 L13.2628097,6 Z M19.8008097,27 C20.0238097,25.365 21.3258097,24.106 22.8938097,24.106 C23.4548097,24.106 24.0048097,24.269 24.4828097,24.576 C25.2998097,25.099 25.8498097,26 25.9888097,27 L19.8008097,27 Z M22.8938097,19.412 C23.7618097,19.412 24.4678097,20.118 24.4678097,20.985 C24.4678097,21.853 23.7618097,22.559 22.8938097,22.559 C22.0268097,22.559 21.3208097,21.853 21.3208097,20.985 C21.3208097,20.118 22.0268097,19.412 22.8938097,19.412 L22.8938097,19.412 Z M16.7628097,20 C16.4858097,20 16.2628097,20.224 16.2628097,20.5 L16.2628097,22.2 L14.7368097,20.197 C14.6428097,20.073 14.4958097,20 14.3398097,20 L12.6258097,20 C11.6728097,20 10.7658097,19.536 10.1988097,18.757 C9.62680969,17.971 9.47580969,16.972 9.78480969,16.015 C10.1678097,14.829 11.3768097,14 12.7258097,14 L23.3728097,14 C24.6698097,14 25.8188097,14.751 26.2348097,15.869 C26.8308097,17.472 26.1008097,18.867 25.0238097,19.543 C24.5608097,18.861 23.7788097,18.412 22.8938097,18.412 C21.8248097,18.412 20.9068097,19.069 20.5188097,20 L16.7628097,20 Z M1.05180969,8.332 C0.813809691,6.449 1.37380969,4.631 2.62580969,3.211 C3.86480969,1.806 5.64180969,1 7.49880969,1 L19.3208097,1 C21.3278097,1 23.2388097,1.864 24.5638097,3.372 C25.7988097,4.776 26.3508097,6.537 26.1198097,8.33 C25.8638097,10.313 24.9128097,12.051 23.5718097,13.015 C23.5058097,13.012 23.4408097,13 23.3728097,13 L12.7258097,13 C11.6998097,13 10.7398097,13.38 10.0068097,14 L7.80980969,14 C4.36280969,14 1.45780969,11.563 1.05180969,8.332 L1.05180969,8.332 Z M25.0228097,23.734 C24.7138097,23.536 24.3818097,23.385 24.0368097,23.279 C24.8808097,22.857 25.4678097,21.992 25.4678097,20.985 C25.4678097,20.806 25.4488097,20.631 25.4128097,20.461 C26.9338097,19.579 27.9558097,17.631 27.1728097,15.521 C26.7778097,14.46 25.9008097,13.654 24.8218097,13.263 C26.0258097,12.097 26.8638097,10.375 27.1118097,8.458 C27.3808097,6.375 26.7418097,4.334 25.3148097,2.711 C23.7998097,0.988 21.6148097,0 19.3208097,0 L7.49880969,0 C5.35380969,0 3.30580969,0.929 1.87680969,2.549 C0.451809691,4.164 -0.210190309,6.317 0.0588096907,8.457 C0.527809691,12.187 3.85980969,15 7.80980969,15 L9.16080969,15 C9.02980969,15.224 8.91480969,15.457 8.83380969,15.708 C8.42580969,16.972 8.62880969,18.298 9.39080969,19.346 C10.1438097,20.382 11.3538097,21 12.6258097,21 L14.0918097,21 L16.3648097,23.984 C16.4608097,24.111 16.6088097,24.182 16.7628097,24.182 C16.8158097,24.182 16.8698097,24.173 16.9228097,24.155 C17.1258097,24.087 17.2628097,23.896 17.2628097,23.682 L17.2628097,21 L20.3228097,21 C20.3288097,22.009 20.9218097,22.875 21.7738097,23.291 C20.0438097,23.815 18.7668097,25.493 18.7668097,27.5 C18.7668097,27.776 18.9898097,28 19.2668097,28 L26.5228097,28 C26.7998097,28 27.0228097,27.776 27.0228097,27.5 C27.0228097,25.945 26.2758097,24.538 25.0228097,23.734 L25.0228097,23.734 Z M4.70380969,11 C4.92480969,9.53 6.10080969,8.405 7.51680969,8.405 C8.02580969,8.405 8.52580969,8.553 8.96180969,8.833 C9.69380969,9.303 10.1908097,10.105 10.3278097,11 L4.70380969,11 Z M7.51680969,4.278 C8.29580969,4.278 8.93080969,4.912 8.93080969,5.692 C8.93080969,6.472 8.29580969,7.106 7.51680969,7.106 C6.73680969,7.106 6.10180969,6.472 6.10180969,5.692 C6.10180969,4.912 6.73680969,4.278 7.51680969,4.278 L7.51680969,4.278 Z M11.3658097,11.5 C11.3658097,10.052 10.6698097,8.74 9.50180969,7.991 C9.30480969,7.865 9.09580969,7.766 8.88180969,7.679 C9.51380969,7.244 9.93080969,6.516 9.93080969,5.692 C9.93080969,4.361 8.84780969,3.278 7.51680969,3.278 C6.18480969,3.278 5.10180969,4.361 5.10180969,5.692 C5.10180969,6.518 5.51980969,7.247 6.15480969,7.683 C4.70480969,8.27 3.66680969,9.754 3.66680969,11.5 C3.66680969,11.776 3.89080969,12 4.16680969,12 L10.8658097,12 C11.1418097,12 11.3658097,11.776 11.3658097,11.5 L11.3658097,11.5 Z" id="Fill-4"></path> </g> </g></svg>