<svg width="24" height="24" viewBox="0 0 24 24" fill="none" xmlns="http://www.w3.org/2000/svg">
<path fill-rule="evenodd" clip-rule="evenodd" d="M7.73391 6.00684H18.0899L16.9576 7.6181H6.56519L7.73391 6.00684Z" fill="white"/>
<path fill-rule="evenodd" clip-rule="evenodd" d="M5.45143 9.2959H15.8074L14.6751 10.9072H4.28271L5.45143 9.2959Z" fill="white"/>
<path fill-rule="evenodd" clip-rule="evenodd" d="M3.16872 12.5859H13.5247L12.3924 14.1972H2L3.16872 12.5859Z" fill="white"/>
<path d="M12.3391 19.7699C13.1919 19.7699 13.8832 19.0786 13.8832 18.2258C13.8832 17.373 13.1919 16.6816 12.3391 16.6816C11.4863 16.6816 10.7949 17.373 10.7949 18.2258C10.7949 19.0786 11.4863 19.7699 12.3391 19.7699Z" stroke="white" stroke-width="1.61127"/>
<path fill-rule="evenodd" clip-rule="evenodd" d="M12.7469 16.2753L20.6332 5.0056L21.9741 5.94502L14.0877 17.2147L12.7469 16.2753Z" fill="white"/>
</svg>
