<svg id="Layer_1" data-name="Layer 1" xmlns="http://www.w3.org/2000/svg" viewBox="0 0 296 296"><defs><style>.cls-1{fill:#fff;}</style></defs><polygon class="cls-1" points="147.461 4.5 165.897 15.17 42.501 86.724 24.065 76.054 147.461 4.5"/><polygon class="cls-1" points="43.586 228.927 24.497 217.906 24.497 75.24 43.586 86.262 43.586 228.927"/><polygon class="cls-1" points="197.695 35.193 216.131 45.863 92.735 117.427 74.299 106.757 197.695 35.193"/><polygon class="cls-1" points="93.82 259.62 74.731 248.599 74.731 105.933 93.82 116.955 93.82 259.62"/><polygon class="cls-1" points="250.944 65.334 269.38 76.004 145.984 147.568 127.548 136.898 250.944 65.334"/><polygon class="cls-1" points="147.069 289.761 127.98 278.74 127.98 136.074 147.069 147.095 147.069 289.761"/><polygon class="cls-1" points="270.113 127.494 270.113 149.537 146.567 220.87 146.567 198.827 270.113 127.494"/><polygon class="cls-1" points="269.641 196.687 269.641 218.73 146.094 290.063 146.094 268.02 269.641 196.687"/></svg>