<svg width="40" height="40" viewBox="0 0 40 40" fill="none" xmlns="http://www.w3.org/2000/svg">
<g clip-path="url(#clip0_23295_3147)">
<path d="M40 0H0V40H40V0Z" fill="#7AA116" fill-opacity="0.12"/>
<path fill-rule="evenodd" clip-rule="evenodd" d="M26 12H30.293L26 7.707V12ZM32 12.5V33.5C32 33.776 31.776 34 31.5 34H10.5C10.224 34 10 33.776 10 33.5V27H11V33H31V13H25.5C25.224 13 25 12.776 25 12.5V7H11V18H10V6.5C10 6.224 10.224 6 10.5 6H25.5C25.633 6 25.76 6.053 25.854 6.146L31.854 12.146C31.947 12.24 32 12.367 32 12.5ZM23 27H25V26H23V27ZM20 27H22V26H20V27ZM17 27H19V26H17V27ZM23 25H25V24H23V25ZM20 25H22V24H20V25ZM17 25H19V24H17V25ZM18 21H24V19H18V21ZM25 18.5V21.5C25 21.776 24.776 22 24.5 22H17.5C17.224 22 17 21.776 17 21.5V18.5C17 18.224 17.224 18 17.5 18H24.5C24.776 18 25 18.224 25 18.5ZM15 29H27V16H15V29ZM14.5 30C14.224 30 14 29.776 14 29.5V15.5C14 15.224 14.224 15 14.5 15H27.5C27.776 15 28 15.224 28 15.5V29.5C28 29.776 27.776 30 27.5 30H14.5ZM8 26H13V25H8V26ZM9 23H13V22H9V23ZM7 20H13V19H7V20Z" fill="#7AA116"/>
</g>
<rect x="0.5" y="0.5" width="39" height="39" stroke="#7AA116"/>
<defs>
<clipPath id="clip0_23295_3147">
<rect width="40" height="40" fill="white"/>
</clipPath>
</defs>
</svg>
