<svg width="24" height="24" viewBox="0 0 24 24" fill="none" xmlns="http://www.w3.org/2000/svg">
<path d="M20 4H7.7C7.49115 4.00133 7.28684 4.06103 7.11013 4.17235C6.93343 4.28368 6.79137 4.4422 6.7 4.63L3 12H5L8 6H19V7H21V5C21 4.73478 20.8946 4.48043 20.7071 4.29289C20.5196 4.10536 20.2652 4 20 4Z" fill="white"/>
<path d="M10 15C11.6569 15 13 13.6569 13 12C13 10.3431 11.6569 9 10 9C8.34315 9 7 10.3431 7 12C7 13.6569 8.34315 15 10 15Z" fill="white"/>
<path d="M10 13C10.5523 13 11 12.5523 11 12C11 11.4477 10.5523 11 10 11C9.44772 11 9 11.4477 9 12C9 12.5523 9.44772 13 10 13Z" fill="white"/>
<path d="M0 0H8V1H0V0Z" fill="white"/>
<path d="M21 8H18C17.4477 8 17 8.44772 17 9C17 9.55228 17.4477 10 18 10H21C21.5523 10 22 9.55228 22 9C22 8.44772 21.5523 8 21 8Z" fill="white"/>
<path d="M21 11H15C14.4477 11 14 11.4477 14 12C14 12.5523 14.4477 13 15 13H21C21.5523 13 22 12.5523 22 12C22 11.4477 21.5523 11 21 11Z" fill="white"/>
<path d="M21 14H18C17.4477 14 17 14.4477 17 15C17 15.5523 17.4477 16 18 16H21C21.5523 16 22 15.5523 22 15C22 14.4477 21.5523 14 21 14Z" fill="white"/>
<path d="M19 17V18H8L6 14H4L6.69 19.37C6.78137 19.5578 6.92343 19.7163 7.10013 19.8276C7.27684 19.939 7.48115 19.9987 7.69 20H20C20.2652 20 20.5196 19.8946 20.7071 19.7071C20.8946 19.5196 21 19.2652 21 19V17H19Z" fill="white"/>
<path d="M10 12H2" stroke="#CCCCCC" stroke-miterlimit="10"/>
</svg>
