<svg width="40" height="40" viewBox="0 0 40 40" fill="none" xmlns="http://www.w3.org/2000/svg">
<g clip-path="url(#clip0_23296_3396)">
<path d="M40 0H0V40H40V0Z" fill="#ED7100" fill-opacity="0.12"/>
<path fill-rule="evenodd" clip-rule="evenodd" d="M26.8733 29.3426V25.914L28.8409 25.2482V28.6339L26.8733 29.3426ZM23.9293 28.0081V25.2482L25.891 25.913V29.3426L23.9293 28.6339V28.0081ZM22.947 32.0865L20.9794 32.7942V29.3666L22.947 28.7008V28.9863V32.0865ZM18.0354 28.9863V28.7008L19.9971 29.3656V32.7942L18.0354 32.0865V28.9863ZM15.0855 29.3426V25.914L17.053 25.2482V28.0081V28.6339L15.0855 29.3426ZM12.1415 25.2482L14.1031 25.913V29.3426L12.1415 28.6339V25.2482ZM14.5943 24.0734L15.998 24.5535L14.5943 25.0286L13.1935 24.5535L14.5943 24.0734ZM20.4882 27.525L21.8919 28.0051L20.4882 28.4802L19.0874 28.0051L20.4882 27.525ZM26.3821 24.0734L27.7859 24.5535L26.3821 25.0286L24.9813 24.5535L26.3821 24.0734ZM29.4882 24.0834L26.5383 23.0732C26.4371 23.0383 26.3261 23.0383 26.225 23.0732L23.2809 24.0834C23.0815 24.1522 22.9479 24.3419 22.947 24.5565V27.3134L20.6444 26.5258C20.5432 26.4909 20.4322 26.4909 20.331 26.5258L18.0354 27.3134V24.5565C18.0344 24.3419 17.9008 24.1512 17.7004 24.0834L14.7505 23.0732C14.6493 23.0383 14.5383 23.0383 14.4371 23.0732L11.4931 24.0834C11.2937 24.1522 11.1601 24.3419 11.1591 24.5565V28.9863C11.1591 29.1969 11.2898 29.3855 11.4862 29.4564L14.4303 30.5194C14.4833 30.5384 14.5383 30.5484 14.5943 30.5484C14.6503 30.5484 14.7053 30.5384 14.7583 30.5194L17.053 29.693V32.4389C17.053 32.6495 17.1837 32.8382 17.3802 32.909L20.3242 33.9711C20.3772 33.99 20.4322 34 20.4882 34C20.5442 34 20.5992 33.99 20.6523 33.9711L23.6022 32.909C23.7976 32.8382 23.9293 32.6495 23.9293 32.4389V29.693L26.2181 30.5194C26.2711 30.5384 26.3261 30.5484 26.3821 30.5484C26.4381 30.5484 26.4931 30.5384 26.5462 30.5194L29.4961 29.4564C29.6916 29.3855 29.8232 29.1979 29.8232 28.9863V24.5565C29.8222 24.3419 29.6886 24.1512 29.4882 24.0834ZM33 17.6064C33 20.6827 26.3026 22.3426 20 22.3426C13.6974 22.3426 7 20.6827 7 17.6064C7 16.1431 8.60413 14.8525 11.5196 13.9721L11.7996 14.9283C9.44499 15.64 7.98232 16.6661 7.98232 17.6064C7.98232 19.3751 12.9175 21.3444 20 21.3444C27.0825 21.3444 32.0177 19.3751 32.0177 17.6064C32.0177 16.8837 31.1542 16.0972 29.6483 15.4504L30.0324 14.5311C32.4853 15.5861 33 16.7859 33 17.6064ZM20.4912 8.03009L25.9391 10.0444L20.4912 12.0826L15.0432 10.0444L20.4912 8.03009ZM26.109 18.1693C25.1012 18.6285 23.4077 19.1625 20.9823 19.2294V12.963L26.8762 10.757V16.9755C26.8762 17.4876 26.5747 17.9567 26.109 18.1693ZM14.1061 16.9755V10.757L20 12.963V19.2294C17.5747 19.1625 15.8811 18.6285 14.8743 18.1693C14.4077 17.9567 14.1061 17.4876 14.1061 16.9755ZM14.4725 19.0796C15.6346 19.6096 17.6218 20.2405 20.4912 20.2405C23.3605 20.2405 25.3477 19.6096 26.5108 19.0796C27.3291 18.7063 27.8585 17.8799 27.8585 16.9755V10.0414C27.8585 9.83176 27.7289 9.6441 27.5354 9.57224L20.6591 7.02994C20.5511 6.99002 20.4303 6.99002 20.3232 7.02994L13.447 9.57224C13.2534 9.6441 13.1238 9.83076 13.1238 10.0404V16.9755C13.1238 17.8799 13.6532 18.7063 14.4725 19.0796Z" fill="#ED7100"/>
</g>
<rect x="0.5" y="0.5" width="39" height="39" stroke="#ED7100"/>
<defs>
<clipPath id="clip0_23296_3396">
<rect width="40" height="40" fill="white"/>
</clipPath>
</defs>
</svg>
