<svg width="40" height="40" viewBox="0 0 40 40" xmlns="http://www.w3.org/2000/svg">  <g id="Icon-Architecture/32/Arch_AWS-Thinkbox-Sequoia_32" stroke="none" stroke-width="1" fill="none" fill-rule="evenodd">  <g id="Icon-Service/32/AWS-ThinkBox-Sequoia_32" transform="translate(8.000000, 6.500000)" fill="#FFFFFF"> <path d="M7.78,14.94925 L8.768,15.57825 L8.231,16.42225 L7.053,15.67225 C6.392,16.29925 5.684,16.90525 4.903,17.47425 L12,21.91025 L19.096,17.47425 C18.315,16.90525 17.607,16.29925 16.946,15.67225 L15.768,16.42225 L15.231,15.57825 L16.219,14.94925 C15.699,14.40125 15.22,13.83225 14.785,13.24325 L12.277,14.91625 C12.193,14.97225 12.096,15.00025 12,15.00025 C11.903,15.00025 11.806,14.97225 11.722,14.91625 L9.215,13.24325 C8.779,13.83225 8.301,14.40125 7.78,14.94925 L7.78,14.94925 Z M9.784,12.42225 L12,13.89925 L14.216,12.42225 C13.191,10.85025 12.441,9.15225 12,7.32025 C11.558,9.15225 10.808,10.85025 9.784,12.42225 L9.784,12.42225 Z M2.665,12.12825 C4.451,10.52025 6.5,8.31425 6.5,5.50025 L7.5,5.50025 C7.5,7.07125 8.046,8.28725 8.927,9.74125 L8.072,10.25925 C7.616,9.50825 7.251,8.80925 6.982,8.09425 C6.303,9.82425 5.052,11.26225 3.817,12.42725 L6.924,14.40425 C9.96,11.27025 11.5,7.43925 11.5,2.96525 C11.5,2.68825 11.723,2.46525 12,2.46525 C12.276,2.46525 12.5,2.68825 12.5,2.96525 C12.5,7.43925 14.04,11.27025 17.076,14.40425 L20.182,12.42725 C18.947,11.26225 17.696,9.82325 17.017,8.09425 C16.749,8.80925 16.384,9.50725 15.927,10.25925 L15.072,9.74125 C15.954,8.28725 16.5,7.07125 16.5,5.50025 L17.5,5.50025 C17.5,8.31425 19.549,10.52025 21.335,12.12825 C21.451,12.23325 21.511,12.38625 21.498,12.54125 C21.485,12.69725 21.4,12.83825 21.268,12.92225 L17.81,15.12225 C18.557,15.81325 19.379,16.47025 20.282,17.08725 C20.421,17.18225 20.503,17.34125 20.5,17.51025 C20.496,17.67825 20.408,17.83425 20.264,17.92425 L12.264,22.92425 C12.183,22.97425 12.092,23.00025 12,23.00025 C11.908,23.00025 11.816,22.97425 11.735,22.92425 L3.735,17.92425 C3.592,17.83425 3.504,17.67825 3.5,17.51025 C3.497,17.34125 3.579,17.18225 3.718,17.08725 C4.621,16.47025 5.442,15.81325 6.189,15.12225 L2.731,12.92225 C2.599,12.83825 2.514,12.69725 2.502,12.54125 C2.488,12.38625 2.549,12.23325 2.665,12.12825 L2.665,12.12825 Z M12,1.07425 L14.039,2.22725 L14.531,1.35725 L12.246,0.06525 C12.093,-0.02175 11.906,-0.02175 11.754,0.06525 L9.468,1.35725 L9.961,2.22725 L12,1.07425 Z M23.746,6.56525 L21.509,5.30125 L21.017,6.17125 L23,7.29125 L23,19.70825 L12,25.92625 L1,19.70825 L1,7.29125 L2.982,6.17125 L2.49,5.30125 L0.254,6.56525 C0.096,6.65325 0,6.82025 0,7.00025 L0,20.00025 C0,20.18025 0.096,20.34625 0.254,20.43525 L11.754,26.93525 C11.83,26.97825 11.915,27.00025 12,27.00025 C12.085,27.00025 12.17,26.97825 12.246,26.93525 L23.746,20.43525 C23.903,20.34625 24,20.18025 24,20.00025 L24,7.00025 C24,6.82025 23.903,6.65325 23.746,6.56525 L23.746,6.56525 Z M19.245,4.02025 L16.756,2.61425 L16.263,3.48425 L18.753,4.89025 L19.245,4.02025 Z M7.736,3.48425 L7.244,2.61425 L4.755,4.02025 L5.247,4.89025 L7.736,3.48425 Z M11.722,18.41625 L10.222,17.41625 L10.777,16.58425 L12,17.39925 L13.222,16.58425 L13.777,17.41625 L12.277,18.41625 C12.193,18.47225 12.096,18.50025 12,18.50025 C11.903,18.50025 11.806,18.47225 11.722,18.41625 L11.722,18.41625 Z" id="AWS-ThinkBox-Sequoia_32_Squid"></path> </g> </g></svg>