<svg width="40" height="40" viewBox="0 0 40 40" fill="none" xmlns="http://www.w3.org/2000/svg">
<g clip-path="url(#clip0_23296_3723)">
<path d="M40 0H0V40H40V0Z" fill="#7AA116" fill-opacity="0.12"/>
<path fill-rule="evenodd" clip-rule="evenodd" d="M31 27.1968L20 32.936L9 27.1968V13.8024L20 8.06328L31 13.8024V27.1968ZM31.731 13.0564L20.231 7.05625C20.087 6.98125 19.913 6.98125 19.769 7.05625L8.269 13.0564C8.104 13.1424 8 13.3134 8 13.4994V27.4998C8 27.6868 8.104 27.8568 8.269 27.9438L19.769 33.944C19.841 33.981 19.921 34 20 34C20.079 34 20.159 33.981 20.231 33.944L31.731 27.9438C31.896 27.8568 32 27.6868 32 27.4998V13.4994C32 13.3134 31.896 13.1424 31.731 13.0564ZM20.003 12.1634C22.433 12.1634 24.472 13.9414 24.903 16.3255C24.155 16.0045 23.348 15.8325 22.528 15.8325C22.141 15.8325 21.658 15.9005 21.277 15.9735C20.93 15.6825 20.488 15.4995 20 15.4995C19.535 15.4995 19.112 15.6655 18.772 15.9325C18.216 15.8585 17.31 15.8325 17.006 15.8325C16.357 15.8325 15.72 15.9485 15.109 16.1525C15.584 13.8834 17.607 12.1634 20.003 12.1634ZM27.937 21.8547C27.937 23.0327 27.581 26.8768 23 26.8768C22.299 26.8768 21.55 26.6578 20.937 26.3998C21.863 25.5248 22.452 24.2387 22.739 23.4737C22.825 23.4847 22.91 23.4997 23 23.4997C24.103 23.4997 25 22.6027 25 21.4997C25 21.2116 24.936 20.9386 24.825 20.6896C25.39 19.9206 25.766 19.0396 25.913 18.0946C27.251 19.1186 27.937 20.3776 27.937 21.8547ZM11.984 21.8547C11.984 20.2436 12.771 18.7366 14.059 17.7976C14.171 18.8466 14.553 19.8346 15.177 20.6866C15.065 20.9356 15 21.2096 15 21.4997C15 22.6027 15.897 23.4997 17 23.4997C17.057 23.4997 17.11 23.4877 17.166 23.4837C17.545 24.4717 18.197 25.6228 19.059 26.4078C18.363 26.6998 17.613 26.8768 17.006 26.8768C14.237 26.8768 11.984 24.6237 11.984 21.8547ZM18.122 18.1636C17.68 18.5036 17.28 18.9246 17.009 19.5006C17.006 19.5006 17.003 19.4996 17 19.4996C16.559 19.4996 16.154 19.6476 15.823 19.8906C15.322 19.1256 15.045 18.2276 15.016 17.2485C15.642 16.9775 16.318 16.8325 17.006 16.8325C17.265 16.8325 17.713 16.8475 18.11 16.8745C18.044 17.0715 18 17.2795 18 17.4995C18 17.7335 18.048 17.9546 18.122 18.1636ZM20 18.4996C19.448 18.4996 19 18.0506 19 17.4995C19 16.9485 19.448 16.4995 20 16.4995C20.552 16.4995 21 16.9485 21 17.4995C21 18.0506 20.552 18.4996 20 18.4996ZM24.181 19.8946C23.849 19.6496 23.443 19.4996 23 19.4996C22.932 19.4996 22.868 19.5126 22.802 19.5196C22.587 18.9566 22.283 18.5596 21.869 18.1936C21.949 17.9766 22 17.7445 22 17.4995C22 17.2835 21.957 17.0795 21.893 16.8835C22.119 16.8535 22.344 16.8325 22.528 16.8325C23.385 16.8325 24.226 17.0555 24.972 17.4715C24.918 18.3426 24.653 19.1746 24.181 19.8946ZM22 21.4997C22 20.9486 22.448 20.4996 23 20.4996C23.552 20.4996 24 20.9486 24 21.4997C24 22.0507 23.552 22.4997 23 22.4997C22.448 22.4997 22 22.0507 22 21.4997ZM18.682 18.9916C19.034 19.3036 19.493 19.4996 20 19.4996C20.495 19.4996 20.943 19.3126 21.293 19.0126C21.552 19.2546 21.729 19.5096 21.865 19.8566C21.344 20.2176 21 20.8186 21 21.4997C21 21.6817 21.032 21.8557 21.078 22.0227C20.739 22.1087 20.361 22.1937 20 22.1937C19.611 22.1937 19.249 22.1107 18.921 22.0257C18.967 21.8567 19 21.6827 19 21.4997C19 20.7536 18.584 20.1086 17.977 19.7656C18.146 19.4686 18.386 19.2256 18.682 18.9916ZM17 20.4996C17.552 20.4996 18 20.9486 18 21.4997C18 22.0507 17.552 22.4997 17 22.4997C16.448 22.4997 16 22.0507 16 21.4997C16 20.9486 16.448 20.4996 17 20.4996ZM19.998 25.8918C19.189 25.2948 18.509 24.1817 18.113 23.1607C18.215 23.0917 18.311 23.0117 18.398 22.9257C18.813 23.0407 19.377 23.1937 20 23.1937C20.584 23.1937 21.187 23.0357 21.601 22.9247C21.666 22.9887 21.738 23.0447 21.812 23.0997C21.426 24.1437 20.792 25.2918 19.998 25.8918ZM14.029 16.6225C14.019 16.6285 14.006 16.6335 13.995 16.6395C12.138 17.7135 10.984 19.7126 10.984 21.8547C10.984 25.1758 13.686 27.8768 17.006 27.8768C18.084 27.8768 19.208 27.4738 20 27.0588C20.792 27.4738 21.918 27.8768 23 27.8768C27.378 27.8768 28.937 24.7657 28.937 21.8547C28.937 19.8826 27.914 18.1936 25.991 16.9315C25.867 13.7394 23.211 11.1634 20.003 11.1634C16.896 11.1634 14.309 13.5754 14.029 16.6225Z" fill="#7AA116"/>
</g>
<rect x="0.5" y="0.5" width="39" height="39" stroke="#7AA116"/>
<defs>
<clipPath id="clip0_23296_3723">
<rect width="40" height="40" fill="white"/>
</clipPath>
</defs>
</svg>
