<svg width="360" height="362" viewBox="0 0 360 362" fill="none" xmlns="http://www.w3.org/2000/svg">
<path d="M29.8398 180.949C29.8359 151.504 38.5636 122.72 54.9192 98.2355C71.2749 73.7513 94.5238 54.6671 121.726 43.3965C148.928 32.1258 178.861 29.1748 207.741 34.9167C236.62 40.6586 263.148 54.8356 283.97 75.6546C304.792 96.4736 318.972 123 324.718 151.878C330.464 180.757 327.517 210.691 316.25 237.894C304.983 265.098 285.902 288.349 261.42 304.708C236.938 321.067 208.154 329.799 178.71 329.799C139.231 329.799 101.368 314.117 73.4499 286.203C45.532 258.288 29.8451 220.428 29.8398 180.949Z" fill="white"/>
<path d="M173.349 304.469L104.699 274.219L100.879 317.419L176.379 341.419L173.379 304.489" fill="url(#paint0_linear_26641_8667)"/>
<path d="M118.14 137.33H156.69V170.22H147.54V156.22C147.54 153.534 146.473 150.957 144.573 149.057C142.674 147.157 140.097 146.09 137.41 146.09C134.724 146.09 132.147 147.157 130.247 149.057C128.348 150.957 127.28 153.534 127.28 156.22V170.22H118.13L118.14 137.33ZM110.44 209.33L167.64 234.54L163.7 186.3H171.19V170.22H165.64V137.33H171.19V127.88L140.33 97.6902V95.5702C140.33 94.7984 140.024 94.0582 139.478 93.5125C138.932 92.9667 138.192 92.6602 137.42 92.6602C136.649 92.6602 135.908 92.9667 135.363 93.5125C134.817 94.0582 134.51 94.7984 134.51 95.5702V97.6902L103.65 127.88V137.33H109.21V170.22H103.65V186.34H112.47L110.47 209.34" fill="url(#paint1_linear_26641_8667)"/>
<path d="M107.079 247.229L170.949 275.389L169.949 263.669L107.949 236.359L106.949 247.229" fill="url(#paint2_linear_26641_8667)"/>
<path d="M105.41 266.159L172.64 295.789L171.64 284.069L106.33 255.289L105.33 266.159" fill="url(#paint3_linear_26641_8667)"/>
<path d="M109.719 217.428L108.719 228.308L169.299 254.948L168.299 243.228L109.679 217.398" fill="url(#paint4_linear_26641_8667)"/>
<path d="M303.02 112.797L333.95 102.857C333.84 102.637 333.74 102.407 333.63 102.197C328.408 92.0013 322.195 82.3447 315.08 73.3672L286.01 88.3672C292.387 95.732 297.992 103.73 302.74 112.237C302.84 112.407 302.92 112.587 303.01 112.767" fill="#696566"/>
<path d="M320.101 171.319L352.311 173.629C351.949 165.036 350.946 156.483 349.311 148.039L316.811 149.149C318.48 156.441 319.567 163.855 320.061 171.319" fill="#696566"/>
<path d="M180.95 322.759C102.75 322.759 39.1196 259.139 39.1196 180.939C39.1196 102.739 102.77 39.1088 180.95 39.1088C208 39.0785 234.487 46.8338 257.25 61.4488L279.8 37.9488C250.781 17.7916 216.282 7.01095 180.95 7.05875C85.0996 7.05875 7.09961 85.0587 7.09961 180.949C7.09961 276.839 85.0996 354.799 180.95 354.799C262.85 354.799 331.64 297.799 349.95 221.479L319.57 210.949C305.77 274.789 248.88 322.779 180.97 322.779" fill="#696566"/>
<path d="M312.079 69.5383C303.295 59.0318 293.311 49.5908 282.329 41.4083C280.759 40.2383 279.149 39.1083 277.539 37.9883L254.949 61.4483L172.609 147.078L286.019 88.3983L315.089 73.3983C314.089 72.1283 313.089 70.8183 312.089 69.5783" fill="url(#paint5_linear_26641_8667)"/>
<path d="M352.539 179.558C352.539 177.558 352.399 175.558 352.319 173.628L320.109 171.318L172.639 160.738L317.309 210.948L347.719 221.498C347.809 221.138 347.909 220.788 347.999 220.418C351.027 207.48 352.561 194.236 352.569 180.948V179.578" fill="url(#paint6_linear_26641_8667)"/>
<path d="M347.789 140.559C344.659 127.497 340.014 114.845 333.949 102.859L303.009 112.799L174.869 153.949L316.869 149.119L349.369 148.009C348.889 145.499 348.369 143.009 347.809 140.529" fill="url(#paint7_linear_26641_8667)"/>
<defs>
<linearGradient id="paint0_linear_26641_8667" x1="101.289" y1="306.471" x2="176.755" y2="306.471" gradientUnits="userSpaceOnUse">
<stop stop-color="#60B932"/>
<stop offset="0.28" stop-color="#60B932"/>
<stop offset="1" stop-color="#367C34"/>
</linearGradient>
<linearGradient id="paint1_linear_26641_8667" x1="102.282" y1="168.124" x2="170.035" y2="168.124" gradientUnits="userSpaceOnUse">
<stop stop-color="#60B932"/>
<stop offset="0.28" stop-color="#60B932"/>
<stop offset="1" stop-color="#367C34"/>
</linearGradient>
<linearGradient id="paint2_linear_26641_8667" x1="107.279" y1="255.374" x2="171.139" y2="255.374" gradientUnits="userSpaceOnUse">
<stop stop-color="#60B932"/>
<stop offset="0.28" stop-color="#60B932"/>
<stop offset="1" stop-color="#367C34"/>
</linearGradient>
<linearGradient id="paint3_linear_26641_8667" x1="106.217" y1="272.719" x2="173.425" y2="272.719" gradientUnits="userSpaceOnUse">
<stop stop-color="#60B932"/>
<stop offset="0.28" stop-color="#60B932"/>
<stop offset="1" stop-color="#367C34"/>
</linearGradient>
<linearGradient id="paint4_linear_26641_8667" x1="108.201" y1="238.022" x2="168.713" y2="238.022" gradientUnits="userSpaceOnUse">
<stop stop-color="#60B932"/>
<stop offset="0.28" stop-color="#60B932"/>
<stop offset="1" stop-color="#367C34"/>
</linearGradient>
<linearGradient id="paint5_linear_26641_8667" x1="176.227" y1="145.847" x2="307.948" y2="48.3077" gradientUnits="userSpaceOnUse">
<stop stop-color="#4596D8"/>
<stop offset="0.2" stop-color="#4596D8"/>
<stop offset="1" stop-color="white"/>
</linearGradient>
<linearGradient id="paint6_linear_26641_8667" x1="171.423" y1="176.442" x2="360.467" y2="215.041" gradientUnits="userSpaceOnUse">
<stop stop-color="#4194D7"/>
<stop offset="0.2" stop-color="#4194D7"/>
<stop offset="1" stop-color="white"/>
</linearGradient>
<linearGradient id="paint7_linear_26641_8667" x1="168.908" y1="170.136" x2="343.043" y2="138.71" gradientUnits="userSpaceOnUse">
<stop stop-color="#4194D7"/>
<stop offset="0.33" stop-color="#4496D8"/>
<stop offset="1" stop-color="white"/>
</linearGradient>
</defs>
</svg>
