<svg xmlns="http://www.w3.org/2000/svg" xmlns:svg="http://www.w3.org/2000/svg" xmlns:xlink="http://www.w3.org/1999/xlink" id="svg45453" x="0" y="0" version="1.1" viewBox="0 0 600.4 551.4" xml:space="preserve" style="enable-background:new 0 0 600.4 551.4"><style type="text/css">.st0{fill:#c22133}.st1{fill:#db212e}.st2{fill:#eb2126}.st3{fill:#ad213b}.st4{fill:#ba2133}</style><path id="path44560" d="M600.4,140.7c-6.7-13.9-14.5-27.3-23.5-39.9l-96.4,35.1c11.2,11.5,20.6,24.4,28.3,38.2	L600.4,140.7z M174.4,247.3l-96.4,35.1c1.2,15.5,3.9,30.7,7.6,45.7l91.6-33.3C174.2,279.2,173.1,263.3,174.4,247.3" class="st0"/><path id="path44564" d="M388.3,113.4c20.1,9.4,37.4,22.1,52.1,37.1l96.4-35.1c-26.7-37.5-63.1-68.8-107.6-89.6	C291.4-38.4,127,21.4,62.7,159.2C41.9,203.8,34.2,251.1,37.8,297l96.4-35.1c1.6-20.9,6.7-41.8,16-61.9	C192,110.5,298.8,71.6,388.3,113.4" class="st1"/><path id="path44572" d="M491.1,289.5c-1.5,20.9-6.8,41.8-16.2,61.9c-41.7,89.5-148.5,128.4-238,86.6	c-20.1-9.4-37.6-22-52.2-37l-96.2,35c26.6,37.5,63,68.8,107.5,89.6c137.8,64.2,302.2,4.4,366.4-133.4	c20.8-44.6,28.5-91.9,24.8-137.7L491.1,289.5L491.1,289.5z" class="st1"/><path id="path44576" d="M514.8,171.8l-91.6,33.3c17,30.5,25.1,65.6,22.4,100.9l96.2-35	C539.1,236.5,529.9,202.8,514.8,171.8 M91.6,325.9L0,359.2c8.4,33.4,23,65.1,43.1,93.4l96.2-35C114.6,392.2,98.1,360.1,91.6,325.9" class="st2"/><path id="path44584" d="M586.5,115.3c-3-4.9-6.2-9.8-9.6-14.5l-96.4,35.1c4.2,4.3,8.1,8.9,11.9,13.7L586.5,115.3z M174,266.6c-0.2-6.4-0.1-12.9,0.4-19.4l-96.4,35.1c0.5,6.2,1.3,12.3,2.2,18.4L174,266.6L174,266.6z" class="st3"/><path id="path44588" d="M587.3,254.5l-96.2,35c-1,13.8-3.7,27.7-8.1,41.4l104.7-38.2	C588.4,279.9,588.3,267.2,587.3,254.5 M88.5,436c7.4,10.4,15.6,20.4,24.5,29.8l104.7-38.2c-12.2-7.7-23.3-16.6-33.1-26.6L88.5,436z" class="st4"/></svg>