<svg width="40" height="40"  viewBox="0 0 40 40" xmlns="http://www.w3.org/2000/svg">  <g id="Icon-Architecture/32/Arch_AWS-AppFabric_32" stroke="none" stroke-width="1" fill="none" fill-rule="evenodd">  <g id="Icon-Service/32/AWS-AppFabric_32" transform="translate(6.000000, 6.000000)" fill="#FFFFFF"> <path d="M25.98025,16.225 C28.64325,13.562 28.64325,9.228 25.98025,6.566 C24.69025,5.276 22.97425,4.565 21.15025,4.565 C19.32625,4.565 17.61125,5.276 16.32125,6.566 L10.50225,12.384 C8.75825,14.128 8.08925,16.688 8.75625,19.065 L9.71925,18.794 C9.14925,16.766 9.72025,14.58 11.20925,13.091 L17.02825,7.273 C18.12825,6.172 19.59325,5.565 21.15025,5.565 C22.70825,5.565 24.17125,6.172 25.27325,7.273 C27.54525,9.546 27.54525,13.245 25.27325,15.518 L13.49725,27.294 L14.20425,28.001 L25.98025,16.225 Z M6.82725,23.597 C5.00225,23.597 3.28725,22.886 1.99725,21.596 C-0.66575,18.933 -0.66575,14.6 1.99725,11.937 L13.93325,-1.77635684e-15 L14.64025,0.707 L2.70425,12.644 C0.43125,14.917 0.43125,18.616 2.70425,20.889 C3.80525,21.99 5.26925,22.597 6.82725,22.597 C8.38325,22.597 9.84825,21.99 10.94925,20.889 L16.76725,15.071 C18.34225,13.496 18.88025,11.204 18.17225,9.09 L19.12025,8.773 C19.95025,11.248 19.31925,13.933 17.47425,15.778 L11.65625,21.596 C10.36625,22.886 8.65125,23.597 6.82725,23.597 L6.82725,23.597 Z" id="Fill-8"></path> </g> </g></svg>