<svg width="39" height="43" viewBox="0 0 39 43" fill="none" xmlns="http://www.w3.org/2000/svg">
<path d="M11.1717 3.06377e-05C11.1386 3.06377e-05 9.9796 0.434181 8.59595 0.964574C7.21229 1.49494 6.02612 1.948 5.96016 1.97164C5.8942 1.99545 5.84003 2.03955 5.84003 2.06945C5.84003 2.09931 6.11611 2.84352 6.45358 3.72314C6.79105 4.60276 7.0613 5.3536 7.05363 5.39236C7.04422 5.44002 6.73959 5.57771 6.11339 5.81691C5.60381 6.01156 5.19256 6.19052 5.20015 6.21448C5.22037 6.27847 11.473 9.06987 11.5712 9.05882C11.6373 9.05126 11.9485 8.39085 13.065 5.88846C13.8406 4.15001 14.475 2.70129 14.475 2.66883C14.475 2.63633 14.4584 2.61634 14.4385 2.62431C13.6756 2.93068 12.589 3.31973 12.5445 3.30266C12.5118 3.28943 12.2028 2.54211 11.8581 1.6402C11.4531 0.580641 11.2104 3.06377e-05 11.1717 3.06377e-05ZM19.2984 8.37379C10.9526 8.37379 3.58806 13.697 0.957242 21.631C-0.00581621 24.5354 -0.251211 27.7975 0.262016 30.8761C0.982253 35.1965 3.1894 39.1649 6.51635 42.1226C6.70816 42.2931 6.87475 42.4331 6.88691 42.4331C6.89904 42.4331 7.78637 41.5544 8.85852 40.4811C9.95239 39.3859 10.8283 38.4745 10.8544 38.4042C10.9691 38.0958 10.7137 37.5361 10.2456 37.069C9.76276 36.5873 9.24689 36.3489 8.91994 36.4568C8.8336 36.4852 8.44831 36.8368 7.86832 37.4173C7.36498 37.9211 6.92035 38.3333 6.88016 38.3333C6.79519 38.3333 6.3119 37.7428 5.80965 37.0252C4.65847 35.3803 3.82055 33.5187 3.33113 31.5174C3.17137 30.8641 2.96165 29.6273 2.995 29.535C3.01015 29.4929 3.33282 29.4803 4.40705 29.4803C5.91679 29.4803 6.0018 29.4697 6.18021 29.2427C6.36523 29.0075 6.46195 28.6592 6.48395 28.1499C6.50738 27.6072 6.43726 27.2378 6.25108 26.9201C6.0645 26.6017 6.07 26.6022 4.45767 26.6015C3.67096 26.6012 2.99918 26.583 2.96462 26.561C2.91009 26.5267 2.91181 26.431 2.97675 25.8354C3.254 23.2951 4.19291 20.6971 5.59229 18.5997C5.91618 18.1142 6.49905 17.3571 6.54873 17.3571C6.57587 17.3571 7.1134 17.87 7.74343 18.4971L8.88887 19.6371L9.12444 19.6129C9.78783 19.5445 10.6567 18.7492 10.8416 18.0409C10.874 17.9167 10.8882 17.7565 10.8733 17.6845C10.8535 17.5888 10.5419 17.2472 9.70963 16.4108C8.6789 15.3751 8.57896 15.2614 8.63507 15.1932C8.83175 14.954 10.0337 14.0777 10.822 13.5989C12.7844 12.407 15.4406 11.5097 17.4678 11.3539L17.8289 11.3263L17.8418 13.0151L17.8546 14.7032L18.0355 14.872C18.5555 15.3569 19.9701 15.3726 20.5174 14.8996L20.6895 14.7504L20.711 13.0555L20.7333 11.3607L21.0823 11.3671C21.5109 11.3761 22.5401 11.5517 23.328 11.7511C25.5908 12.3238 27.7225 13.387 29.5398 14.8486C29.7689 15.0329 29.9569 15.2165 29.9569 15.2563C29.9569 15.2961 29.4514 15.8343 28.8337 16.4523L27.7106 17.5755L27.7133 17.8259C27.7209 18.5761 28.7408 19.597 29.4858 19.6011L29.7376 19.6037L30.8614 18.4805C31.4794 17.8629 32.0064 17.3573 32.0325 17.3573C32.0586 17.3573 32.2407 17.5726 32.4375 17.8359C33.9508 19.8604 35.0169 22.3162 35.4479 24.7713C35.5963 25.6168 35.6803 26.4715 35.622 26.5417C35.5806 26.5916 35.3058 26.6025 34.0979 26.6025H32.6238L32.4962 26.7099C32.2159 26.9457 32.0111 27.6902 32.0716 28.2549C32.1206 28.7127 32.2522 29.075 32.4428 29.2795L32.6102 29.4591L34.0965 29.4719C35.5693 29.4844 35.5822 29.4851 35.5822 29.5752C35.5822 29.777 35.4383 30.6325 35.2973 31.2694C34.8419 33.3265 33.9102 35.4267 32.7047 37.1126C32.1941 37.8268 31.7769 38.3336 31.7004 38.3337C31.6641 38.3337 31.2231 37.9213 30.7196 37.417C29.6872 36.3829 29.6493 36.3587 29.2522 36.4741C28.5432 36.6802 27.7682 37.5357 27.7011 38.1858L27.677 38.4174L29.4002 40.1743C31.604 42.4214 31.6332 42.4491 31.7356 42.3943C31.8998 42.3064 32.9814 41.2775 33.4507 40.7629C34.7564 39.3311 35.7312 37.9164 36.5657 36.2406C38.6225 32.1104 39.1212 27.3856 37.9771 22.8659C37.0391 19.1606 34.9228 15.7199 32.0062 13.1585C28.4905 10.0709 23.9829 8.37379 19.2984 8.37379ZM15.6528 16.3378C14.8863 16.3432 14.0238 16.7831 13.7757 17.2956C13.6914 17.4699 13.6852 17.517 13.7285 17.6614C13.7558 17.7526 14.5435 19.7956 15.4794 22.2013L17.181 26.5752L17.0264 26.889C16.5308 27.8921 16.715 29.021 17.5036 29.8096C18.1983 30.5043 19.1948 30.7393 20.1057 30.4225C20.2816 30.3613 20.5594 30.2195 20.7226 30.108C21.9364 29.2786 22.1797 27.565 21.2457 26.4246C20.9375 26.0484 20.6085 25.8277 19.968 25.5674C19.8693 25.5273 19.6685 25.0361 18.1415 21.1018C17.1978 18.6705 16.3985 16.6376 16.3656 16.5842C16.2545 16.4038 16.0558 16.335 15.6528 16.3378Z" fill="white"/>
<path d="M6.28884 41.8406C5.53896 41.2019 4.03203 39.4338 3.26869 38.2969C1.95639 36.3424 0.862601 33.6408 0.361585 31.1163C0.00572398 29.3232 0.0372821 25.7116 0.424678 23.896C1.99185 16.5514 7.35451 10.8978 14.4983 9.05885C19.8447 7.68258 25.3962 8.64029 30.0685 11.7449C31.487 12.6875 33.925 15.0474 34.8649 16.3878C38.5145 21.5923 39.4689 27.8825 37.5033 33.7765C36.5936 36.5043 35.1605 38.8424 33.0649 41.0182L31.7312 42.4029L29.7553 40.4303C28.5992 39.2762 27.7795 38.353 27.7795 38.2052C27.7795 37.5785 28.8295 36.5211 29.4518 36.5211C29.5843 36.5211 30.1338 36.9489 30.6731 37.4718C31.8169 38.5809 31.7236 38.6011 32.8228 37.0062C34.2305 34.9637 35.2003 32.5092 35.5825 30.0211L35.6696 29.4545H34.128H32.5864L32.3685 29.0331C32.1136 28.5403 32.1558 27.2044 32.4369 26.8657C32.578 26.6956 32.9076 26.6545 34.1292 26.6545H35.6462V26.1359C35.6462 24.7891 34.8771 22.0454 34.0163 20.3211C33.5631 19.4133 32.2083 17.3211 32.0737 17.3211C32.0248 17.3211 31.4644 17.8391 30.8284 18.4722C29.8107 19.4852 29.6301 19.6127 29.3224 19.5354C28.7834 19.4002 27.9318 18.5595 27.8436 18.0757C27.7734 17.6903 27.863 17.5525 28.8973 16.4548C30.2058 15.0664 30.2233 15.2201 28.6303 14.1188C26.6327 12.7379 23.6779 11.5888 21.5672 11.372L20.7549 11.2886L20.6744 12.9929C20.6157 14.2344 20.5403 14.7508 20.3966 14.8945C20.1009 15.1903 18.9956 15.2538 18.409 15.0087L17.9129 14.8014V13.0613V11.3211L17.4129 11.324C16.1115 11.3315 13.0073 12.3046 11.388 13.2126C10.375 13.7807 8.57952 15.0681 8.57952 15.2264C8.57952 15.2974 9.09265 15.8798 9.7198 16.5207C10.7466 17.57 10.8508 17.7229 10.7672 18.0562C10.6469 18.5354 9.79094 19.3892 9.30968 19.51C8.96906 19.5955 8.82758 19.4977 7.77111 18.4461C7.09622 17.7743 6.54485 17.3268 6.45811 17.3804C6.22317 17.5256 5.06058 19.3009 4.59092 20.2316C3.73461 21.9285 2.66736 25.8628 2.89935 26.4674C2.95493 26.6122 3.30125 26.6545 4.43248 26.6545C6.04248 26.6545 6.22003 26.7283 6.38192 27.4654C6.43189 27.6929 6.43326 28.1426 6.38491 28.4647C6.25539 29.3284 5.99614 29.4545 4.34981 29.4545C2.75827 29.4545 2.82394 29.3643 3.18067 31.0602C3.7016 33.5366 4.88738 36.0113 6.56042 38.1138L6.81983 38.4398L7.88398 37.4805C8.49662 36.9282 9.06777 36.5211 9.23009 36.5211C9.59048 36.5211 10.4987 37.3375 10.7124 37.8536C10.8691 38.2318 10.8459 38.2848 10.2042 39.0188C9.83445 39.4418 8.94261 40.3693 8.22236 41.0799L6.91281 42.372L6.28884 41.8406Z" fill="white"/>
</svg>
