<svg width="24" height="24" viewBox="0 0 24 24" fill="none" xmlns="http://www.w3.org/2000/svg">
<path fill-rule="evenodd" clip-rule="evenodd" d="M5.58834 10.8422V15.324L8.74147 13.1972C8.94155 13.7413 9.27305 14.2218 9.69749 14.6004L6.44344 16.7952L11.1993 19.7187L11.1993 15.3887C11.4635 15.4525 11.7395 15.4864 12.0233 15.4864C12.3251 15.4864 12.6179 15.4481 12.8972 15.3762L12.8972 19.7168L15.4134 18.1701L16.1973 19.501L12.0469 21.9375L3.89062 17.1494V10.8422H5.58834ZM15.2985 13.215L18.1271 15.1228C18.4358 14.9263 18.8023 14.8125 19.1953 14.8125C20.2956 14.8125 21.1875 15.7044 21.1875 16.8047C21.1875 17.9049 20.2956 18.7969 19.1953 18.7969C18.0951 18.7969 17.2031 17.9049 17.2031 16.8047C17.2031 16.7211 17.2083 16.6387 17.2183 16.5578L14.3349 14.613C14.7615 14.2366 15.0956 13.7578 15.2985 13.215ZM19.1953 16.0078C18.7552 16.0078 18.3984 16.3646 18.3984 16.8047C18.3984 17.2448 18.7552 17.6016 19.1953 17.6016C19.6354 17.6016 19.9922 17.2448 19.9922 16.8047C19.9922 16.3646 19.6354 16.0078 19.1953 16.0078ZM12.0233 9.99327C13.1265 9.99327 14.0208 10.8876 14.0208 11.9908C14.0208 13.0939 13.1265 13.9882 12.0233 13.9882C10.9201 13.9882 10.0258 13.0939 10.0258 11.9908C10.0258 10.8876 10.9201 9.99327 12.0233 9.99327ZM12.0469 2.0625L20.2031 6.85057V13.1892H18.5051V8.6595L15.3149 10.8114C15.1193 10.2654 14.7917 9.78224 14.3705 9.40038L17.6373 7.19691L12.8972 4.28316L12.8972 8.60529C12.6179 8.53339 12.3251 8.49515 12.0233 8.49515C11.7395 8.49515 11.4635 8.52898 11.1993 8.59282L11.1993 4.28128L8.52005 5.92823L7.72256 4.60102L12.0469 2.0625ZM4.75781 5.20312C5.85807 5.20312 6.75 6.09506 6.75 7.19531C6.75 7.27778 6.74499 7.35908 6.73525 7.43893L9.66212 9.41311C9.24312 9.79713 8.91804 10.282 8.72531 10.8292L5.82871 8.87548C5.51944 9.07302 5.152 9.1875 4.75781 9.1875C3.65756 9.1875 2.76562 8.29557 2.76562 7.19531C2.76562 6.09506 3.65756 5.20312 4.75781 5.20312ZM4.75781 6.39844C4.31771 6.39844 3.96094 6.75521 3.96094 7.19531C3.96094 7.63541 4.31771 7.99219 4.75781 7.99219C5.19791 7.99219 5.55469 7.63541 5.55469 7.19531C5.55469 6.75521 5.19791 6.39844 4.75781 6.39844Z" fill="white"/>
</svg>
