<svg width="24" height="24" viewBox="0 0 24 24" fill="none" xmlns="http://www.w3.org/2000/svg">
<path d="M6.57857 1.33398C5.51177 1.33398 4.71167 2.13408 4.71167 3.20088C4.71167 3.55648 4.80057 3.91208 5.06727 4.26768L5.86737 3.46758C5.86737 3.37868 5.86737 3.28978 5.86737 3.20088C5.86737 2.75638 6.22297 2.40078 6.66747 2.40078C7.11197 2.40078 7.46757 2.75638 7.46757 3.20088C7.46757 3.64538 7.11197 4.00098 6.66747 4.00098C6.57857 4.00098 6.48967 4.00098 6.40077 4.00098L5.60067 4.71218C6.48967 5.24558 7.64537 5.06778 8.17877 4.17878C8.71217 3.28978 8.53437 2.13408 7.64537 1.60068C7.37867 1.42288 7.02307 1.33398 6.57857 1.33398Z" fill="white"/>
<path d="M5.86739 6.75652C5.86739 6.13422 5.68959 5.51192 5.33399 4.97852L4.26719 6.04532C4.35609 6.31202 4.44499 6.48982 4.44499 6.75652C4.44499 7.20102 4.26719 7.55662 4.00049 7.82332L4.53389 9.24572C5.42289 8.71232 5.86739 7.73442 5.86739 6.75652Z" fill="#DDDDDD"/>
<path d="M3.0226 8.26824C2.2225 8.26824 1.5113 7.64594 1.5113 6.84584C1.5113 6.04574 2.1336 5.33454 2.9337 5.33454C3.2004 5.33454 3.556 5.42344 3.8227 5.60124L4.8895 4.62334C4.2672 4.08994 3.6449 3.82324 2.9337 3.82324C1.3335 3.82324 0 5.15674 0 6.75694C0 8.35714 1.2446 9.69064 2.9337 9.69064C3.1115 9.69064 3.3782 9.69064 3.556 9.60174L3.0226 8.26824Z" fill="#DDDDDD"/>
<path d="M6.66738 9.42383C6.04508 9.42383 5.42278 9.51273 4.80048 9.69053L5.60058 11.6463C5.95618 11.6463 6.31178 11.5574 6.66738 11.5574C9.15658 11.5574 11.1124 13.6021 11.1124 16.0024C11.1124 18.4916 9.06768 20.4474 6.66738 20.4474C4.17818 20.4474 2.22238 18.4027 2.22238 16.0024C2.22238 14.3133 3.11138 12.802 4.62268 12.0908L3.82258 10.135C0.533278 11.7352 -0.800222 15.7357 0.799978 18.9361C2.40018 22.2254 6.40068 23.5589 9.60108 21.9587C12.8904 20.3585 14.2239 16.358 12.6237 13.1576C11.468 10.9351 9.15658 9.42383 6.66738 9.42383Z" fill="white"/>
</svg>
