<svg width="40" height="40"  viewBox="0 0 40 40" xmlns="http://www.w3.org/2000/svg">  <g id="Icon-Architecture/32/Arch_AWS-App-Runner_32" stroke="none" stroke-width="1" fill="none" fill-rule="evenodd">  <g id="Icon-Service/32/AWS-Fusion_32" transform="translate(6.000000, 6.000000)" fill="#FFFFFF"> <path d="M8.163,20.544 L7.456,19.837 L1,26.293 L1,23 L0,23 L0,27.5 C0,27.776 0.224,28 0.5,28 L5,28 L5,27 L1.707,27 L8.163,20.544 Z M27.5,0 L23,0 L23,1 L26.293,1 L20.146,7.147 L20.853,7.854 L27,1.707 L27,5 L28,5 L28,0.5 C28,0.224 27.776,0 27.5,0 L27.5,0 Z M16,24 L24,24 L24,16 L16,16 L16,24 Z M25,15.5 L25,24.5 C25,24.776 24.776,25 24.5,25 L15.5,25 C15.224,25 15,24.776 15,24.5 L15,15.5 C15,15.224 15.224,15 15.5,15 L24.5,15 C24.776,15 25,15.224 25,15.5 L25,15.5 Z M4,12 L12,12 L12,4 L4,4 L4,12 Z M13,3.5 L13,12.5 C13,12.776 12.776,13 12.5,13 L3.5,13 C3.224,13 3,12.776 3,12.5 L3,3.5 C3,3.224 3.224,3 3.5,3 L12.5,3 C12.776,3 13,3.224 13,3.5 L13,3.5 Z M12.5,15 L3.5,15 C3.224,15 3,15.224 3,15.5 L3,22.172 L4,21.172 L4,16 L12,16 L12,24 L6.828,24 L5.828,25 L12.5,25 C12.776,25 13,24.776 13,24.5 L13,15.5 C13,15.224 12.776,15 12.5,15 L12.5,15 Z M24,6.828 L25,5.828 L25,12.5 C25,12.776 24.776,13 24.5,13 L15.5,13 C15.224,13 15,12.776 15,12.5 L15,3.5 C15,3.224 15.224,3 15.5,3 L22.172,3 L21.172,4 L16,4 L16,12 L24,12 L24,6.828 Z" id="Fill-3"></path> </g> </g></svg>