<svg id="Layer_1" data-name="Layer 1" xmlns="http://www.w3.org/2000/svg" viewBox="0 0 500 500"><defs><style>.cls-1{fill:#f7d8a7;}.cls-2,.cls-3,.cls-4,.cls-5{fill:#fff;}.cls-3{opacity:0.9;}.cls-4{opacity:0.7;}.cls-5{opacity:0.8;}</style></defs><path class="cls-1" d="M236.92167,10.38356l.00008-.00009a.64973.64973,0,0,0-.65776-.6416l-.03808.00159-.00048.00016a.64993.64993,0,0,1,.69464.6019Z"/><path class="cls-2" d="M339.30339,224.16517q-.27516-.84622-.55043-1.69227C338.27254,223.2523,338.4165,223.82926,339.30339,224.16517Z"/><path class="cls-2" d="M337.70515,219.02373l.11374.37423-.11366-.37423.32372-.64681s-.546-.34126-.55691-.348c.004.01576.03563.51291.03563.51291Z"/><path class="cls-2" d="M336.3855,212.92948l.00981.0462-.00981-.04627q-3.71563,1.29389-7.4321,2.58751Q332.67064,214.22326,336.3855,212.92948Z"/><path class="cls-2" d="M173.718,445.973c8.35064,13.07723,18.83829,24.12232,33.45574,31.15567q6.45924,3.19512,12.91836,6.39046-6.45923-3.19552-12.9147-6.39346C192.55691,470.09476,182.06871,459.05014,173.718,445.973Z"/><path class="cls-2" d="M163.643,321.5041l-.10295.543q.23858-1.25642.4771-2.51273a10.76289,10.76289,0,0,1-1.84662-5.83418,10.76517,10.76517,0,0,0,1.8462,5.83434Q163.82954,320.51941,163.643,321.5041Z"/><path class="cls-2" d="M143.73864,331.93856l.02777.19831-.02183.28832.02191-.28832Z"/><path class="cls-2" d="M233.29452,9.80335l-.00024-.00049c-2.07575,8.60928-4.16343,17.21078-6.14881,25.83932C229.13085,27.01373,231.21861,18.41236,233.29452,9.80335Z"/><path class="cls-2" d="M163.51574,322.17471l.02427-.12763.10295-.543Z"/><path class="cls-2" d="M328.9534,215.51692c-4.30128-12.4043-7.63405-25.09192-11.21041-37.71636,3.5764,12.62444,6.90881,25.312,11.20938,37.7162a14.79154,14.79154,0,0,0,.9947,6.21709A14.78334,14.78334,0,0,1,328.9534,215.51692Z"/><path class="cls-2" d="M212.61068,475.96817q-.50227.16322-1.00454.3261.51043.35322,1.02062.70672Q212.61884,476.48463,212.61068,475.96817Z"/><path class="cls-2" d="M163.44034,326.29454a474.44829,474.44829,0,0,0,5.54129,55.77973,474.39015,474.39015,0,0,1-5.54089-55.77961,23.91258,23.91258,0,0,1,9.71514-1.82063A23.91582,23.91582,0,0,0,163.44034,326.29454Z"/><path class="cls-3" d="M196.36145,235.57979c-.70061,18.28957-1.73773,36.566-2.64531,54.84751a29.99351,29.99351,0,0,1,6.89-1.80779c.77744-.1149,1.5579-.20658,2.34013-.28028.89394-.08424,1.79043-.14515,2.68779-.19042,3.14069-.15873,6.29228-.1282,9.38776-.251,24.55962-.97443,49.154-1.03832,73.72428-1.79754,6.62274-.20461,9.614,1.70273,9.805,8.7758,1.19079,44.11281,1.91231,88.23047-6.17246,131.84185-2.86245,15.44061-6.04227,31.04189-15.48637,44.44782-4.20162,5.96415-8.92415,10.90465-15.421,13.78958a29.60277,29.60277,0,0,1-2.89655,1.1075q1.97842.16083,3.95648.32162c30.94572-7.36981,45.96625-30.11506,55.36125-57.93488,9.61091-28.45971,12.24956-58.04709,13.07281-87.85773q.25041-9.066.27175-18.11669.00564-4.902-.07226-9.79853a376.84691,376.84691,0,0,0-6.74471-68.16454,7.93162,7.93162,0,0,0-4.97863,2.03662,9.29707,9.29707,0,0,0-.95776,1.02979c-.05311.06554-.11058.12674-.16239.19372a13.34306,13.34306,0,0,0-.82455,1.21387c-.071.11636-.14151.233-.21013.35166q-.38064.65808-.72334,1.35125c-.51543,1.0384-.98457,2.11724-1.48034,3.15987-1.91029,4.01735-3.47468,8.19768-5.28336,12.26528-1.87561,4.21824-5.449,5.35742-9.649,4.75665-4.66149-.667-3.14208-4.68382-3.40533-7.35878q-5.00445-50.85891-14.85088-100.99653c-6.84523-34.67414-14.92167-69.15057-23.86807-103.345-4.39472-16.79721-7.68283-34.03781-14.595-50.1486-3.64484-2.55561-7.23528-.964-10.83207.14144a.64923.64923,0,0,1,.6937.60144l.00158.03805-.00008.00016.00024.0005c-2.07591,8.609-4.16367,17.21031-6.14907,25.83882q-.99273,4.31426-1.94705,8.63882-1.26966,5.767-2.44606,11.56C215.938,89.5498,209.51625,123.31043,204.8672,157.3916c-1.35044,9.89889-2.52281,19.82213-3.88062,29.71995"/><path class="cls-2" d="M261.47129,484.95536c6.49689-2.88493,11.2194-7.82539,15.421-13.78958,9.4441-13.40593,12.62394-29.00721,15.48639-44.44782,8.08475-43.61134,7.36325-87.729,6.17246-131.84185-.191-7.07307-3.18228-8.98041-9.805-8.7758-24.57025.75918-49.16466.82309-73.72428,1.79754-3.09548.12276-6.24707.09223-9.38776.251-.89736.04537-1.79385.10628-2.68779.19042-.78223.07372-1.56269.1654-2.34013.28028a29.99013,29.99013,0,0,0-6.89,1.80813c.11275,4.83816.57421,9.68022.85757,14.52029.09443,1.61335.16912,3.22654.20436,4.83923q.02434,1.11269.0224,2.22522a53.30907,53.30907,0,0,1-1.45518,12.92842c3.84433,7.5254,2.72126,15.7787,3.23344,23.72931,1.9796,30.72449,6.1456,60.993,13.98964,90.89853,4.925,18.77723,13.99184,34.07166,28.47937,46.52633a1.52669,1.52669,0,0,0,1.535.0337q1.11147.17062,2.22311.34124l.6109.01843a.43187.43187,0,0,1,.713-.01534,35.21259,35.21259,0,0,0,14.44483-.41018l.00016-.00008h-.00016A29.593,29.593,0,0,0,261.47129,484.95536Z"/><path class="cls-2" d="M205.63408,288.14881c-.89736.04537-1.79385.10628-2.68779.19042"/><path class="cls-2" d="M200.60616,288.61951a29.99351,29.99351,0,0,0-6.89,1.80779v.00032A29.99009,29.99009,0,0,1,200.60616,288.61951Z"/><path class="cls-2" d="M202.94629,288.33923c-.78223.07372-1.56269.1654-2.34013.28028"/><path class="cls-2" d="M258.57458,486.0629h.00016a29.60277,29.60277,0,0,0,2.89655-1.1075A29.59349,29.59349,0,0,1,258.57458,486.0629Z"/><path class="cls-4" d="M388.58928,285.60587c-.87953-1.75852-1.95281-3.4951-.62316-5.504.54757-4.67253-2.72678-8.51393-3.04559-12.85049-1.75553-23.87181-12.275-45.23006-18.922-67.69735-4.671-15.78892-15.14351-28.93592-19.9086-44.61135-4.48425-14.75167-16.17065-25.832-20.3931-40.68208a5.33438,5.33438,0,0,0-1.4027-2.0373c-7.96964-8.20832-11.48248-19.2096-17.65292-28.58216-4.44689-6.75437-8.64563-14.14255-13.33408-20.469-10.91382-14.727-19.93245-30.74707-31.47538-45.02861-3.10717-3.84467-5.58743-6.64715-10.72771-5.40905-1.1597,4.39159,2.33407,7.20987,3.77013,10.66488,16.76456,40.33165,32.81089,80.93521,45.92331,122.6224a890.3983,890.3983,0,0,1,23.45017,93.51279,30.14242,30.14242,0,0,1,.17245,4.97554l.00225-.00024a377.01318,377.01318,0,0,1,6.74242,68.16674q.07968,4.89624.07226,9.79853-.01044,9.05-.27175,18.11669c-.82325,29.81064-3.4619,59.398-13.07281,87.85773-9.395,27.81978-24.41547,50.565-55.36123,57.93488,10.20335,1.04758,19.55328-3.14771,29.31367-4.81057,17.68147-3.01189,32.15634-12.35935,46.16373-22.99042,6.17495-4.68651,10.13562-11.59065,16.93761-15.4407-1.00534-4.20462,2.671-4.2802,4.93772-5.59985,12.98837-24.47337,24.97606-49.23791,26.7242-77.643.6989-11.35584,2.40131-22.65013,3.647-33.97239-.53685-2.64866-3.11464-4.95719-1.3323-7.99238q.11706-2.05686.23434-4.11383m-40.05673,49.45859c-3.70766,29.46386-8.17514,59.11511-25.50291,84.69736-10.21373,15.07929-23.14682,26.68255-40.62232,32.79667,33.30052-19.59145,45.13888-51.71331,51.85053-87.16726,6.2389-32.95483,7.342-66.13075,5.67586-99.46859-.41081-8.21888-1.15037-16.4-2.13988-24.55035-1.6493-13.58384-3.99295-27.082-6.66578-40.52635q-.071-1.17884-.14064-2.35872a41.26365,41.26365,0,0,0-1.31375-4.11618q-.14968-.42579-.29449-.85277a14.79159,14.79159,0,0,1-.9947-6.21709c-4.30057-12.40425-7.633-25.09173-11.20938-37.71621-1.19209-4.20816-2.41132-8.40928-3.70256-12.59048q-1.10667-3.584-2.29239-7.1461c-10.66811-31.9265-23.07236-63.12419-36.444-93.98454-6.28557-14.5062-11.957-29.27848-18.4423-43.72679a1021.61587,1021.61587,0,0,1,56.198,120.47836c5.68618,14.74678,11.18573,29.562,15.87979,44.63807q2.43306,7.81407,4.52818,15.737.6276,2.3601,1.22168,4.731.4371,1.74383.8675,3.48992.42714,1.74711.82858,3.50244h-.00008l.00981.04627q.53679,2.52535,1.07617,5.04707l.00056.00617c.01095.00674.55691.348.55691.348l-.32372.64681.11366.37423q.467,1.53724.93447,3.074l-.0004.00089q.2751.8461.55043,1.69227c11.54959,45.79009,15.694,92.25138,9.79706,139.115Z"/><path class="cls-2" d="M331.16471,312.67667a377.01309,377.01309,0,0,0-6.74242-68.16674l-.00225.00024v.00194A376.84708,376.84708,0,0,1,331.16471,312.67667Z"/><path class="cls-2" d="M331.16471,312.67667q.07968,4.89627.07226,9.79855Q331.24267,317.57319,331.16471,312.67667Z"/><path class="cls-4" d="M173.718,445.973q-.835-1.30773-1.64226-2.64194-1.84566-3.04893-3.5587-6.22336c-14.29389-26.40356-19.70731-55.28622-23.29629-84.64385-.18416-1.50664-.34436-3.01617-.48928-4.52759-.43488-4.53416-.73285-9.08516-1.13055-13.62371q.07128-.94316.14373-1.88727l.02183-.28832-.02777-.19831q-.204-1.458-.40915-2.91547.07273-1.06793.14755-2.13672-.36441-7.84323-.72888-15.68654c-2.24319-26.75845,1.28563-53.10483,6.09359-79.293,10.84117-59.04879,30.701-115.26777,54.0817-170.35482,2.48312-5.85042,4.78213-11.77895,7.25671-17.63319,1.369-3.23829,2.87072-2.888,4.254-.00106.02266-.011.03485-.02638.05824-.037.00941.01616.01436.03038.02345.04637.31364-.24967.61223-.50658.89112-.7729.01356-.013.02462-.027.03816-.04a13.22237,13.22237,0,0,0,1.52687-1.75406,15.42176,15.42176,0,0,0,1.207-1.966,21.20084,21.20084,0,0,0,.93806-2.09508c.27776-.71517.52556-1.44462.75816-2.18139a74.90241,74.90241,0,0,1,2.52265-7.6969c2.81292-6.38419,3.59758-14.01173,10.89628-17.618a.6494.6494,0,0,0-.65767-.641l-.038.00161.00047-.00016c-2.11886-1.001-3.62878.35019-5.36114,1.23638-10.61111,5.428-16.23388,15.42508-21.6422,25.07113-6.7144,11.97536-13.788,23.82049-21.00967,35.38591a507.59882,507.59882,0,0,0-29.10467,53.65167c-12.99532,27.77-25.462,55.89061-34.54139,85.421-6.82427,22.19528-12.34683,44.49-15.329,67.49233-2.89055,22.29386-1.80457,44.62433.62625,66.72633,1.764,16.04052,5.63444,31.89143,10.2149,47.58355a155.88086,155.88086,0,0,0,27.51956,53.296c13.60211,17.245,32.14175,28.407,52.98665,35.08158,7.33289,2.34816,14.81117,6.5989,23.13358,3.41q-6.45919-3.19553-12.91836-6.39046C192.55626,470.09535,182.06861,459.05022,173.718,445.973Z"/><path class="cls-5" d="M281.89425,162.51545q9.8827,50.05938,14.85087,100.99653c.26325,2.67492-1.25616,6.69178,3.40533,7.35878,4.20005.60077,7.77344-.5384,9.64905-4.75665,1.80869-4.06754,3.373-8.24787,5.28336-12.26528.49577-1.04263.96492-2.12145,1.48034-3.15987q.34356-.692.72334-1.35125c.06862-.11863.1391-.2353.21013-.35166a13.34306,13.34306,0,0,1,.82455-1.21387c.05185-.067.1092-.1282.1624-.19372a9.29692,9.29692,0,0,1,.95775-1.02979,7.93868,7.93868,0,0,1,4.97863-2.0386,30.14351,30.14351,0,0,0-.17244-4.97554,890.40009,890.40009,0,0,0-23.45014-93.51269C287.685,104.33465,271.63869,63.73109,254.87411,23.39945c-1.4361-3.455-4.92983-6.2733-3.77013-10.66488-2.07827-2.22832-4.40611-3.94079-7.67283-3.7128,6.91221,16.11078,10.20037,33.35139,14.595,50.1486C266.97257,93.36489,275.049,127.84132,281.89425,162.51545Z"/><path class="cls-2" d="M318.48362,247.57854c-.05312.06554-.11059.12674-.1624.19372"/><path class="cls-2" d="M324.42,244.51213v-.00194a7.93872,7.93872,0,0,0-4.97863,2.03859A7.9317,7.9317,0,0,1,324.42,244.51213Z"/><path class="cls-2" d="M317.49667,248.98619c-.071.11635-.14151.233-.21013.35166"/><path class="cls-3" d="M210.56839,439.5688c-7.84408-29.90556-12.01-60.17408-13.98964-90.89857-.51218-7.95061.61089-16.20391-3.23344-23.72931a46.06705,46.06705,0,0,1-13.11156-.03393c-1.89438-.17952-3.78832-.35141-5.67725-.41109q-.70082-.02219-1.4006-.02191a23.91258,23.91258,0,0,0-9.71514,1.82063,474.39079,474.39079,0,0,0,5.54087,55.77965q.666,3.93235,1.433,7.84521,1.3664,6.95584,3.08816,13.84317a224.47975,224.47975,0,0,0,11.34585,33.91077c5.54108,12.91619,13.01158,24.49967,23.51121,33.98872,1.391,1.25712,2.96963,2.40559,3.05138,4.52562l.0605.01348.13437.09307q.5024-.163,1.00454-.3261.00807.51644.01608,1.03278-.5102-.35346-1.02062-.70672l-.17962.05833c0-.05814-.01307-.10781-.01527-.16461q-1.70347-.3785-3.4066-.75755-.4119.84611-.8273,1.69518,6.45375,3.19962,12.9147,6.39347c6.558-.90346,12.292,4.25753,18.95567,2.57608C224.56021,473.64038,215.49342,458.346,210.56839,439.5688Z"/><path class="cls-2" d="M211.47177,476.20144l-.04523.15108.17962-.05833-.13437-.09307-.0605-.01348v.00023Z"/><path class="cls-5" d="M200.98654,187.11145c1.35781-9.89782,2.53018-19.82106,3.88062-29.71995,4.649-34.08117,11.07075-67.84179,17.88522-101.55045q1.17138-5.79465,2.44606-11.56.95227-4.32522,1.947-8.63882c1.98538-8.62851,4.07306-17.23,6.14881-25.83932V9.80279c-7.2987,3.60627-8.08336,11.23381-10.89628,17.618a74.90321,74.90321,0,0,0-2.52265,7.6969c-.23262.73677-.48042,1.46622-.75816,2.18139a21.20084,21.20084,0,0,1-.93806,2.09508,15.41512,15.41512,0,0,1-1.207,1.966,13.21766,13.21766,0,0,1-1.52687,1.75406c-.01348.013-.02462.027-.03816.04-.27889.26633-.57754.52323-.89112.7729.645,1.134.39306,1.88908-.90816,2.201a5.36748,5.36748,0,0,1,.87878,1.681c.46826,1.65054-.3696,3.03426-2.12854,4.22994v.00008q-.39659,2.13394-.87559,4.243-.47715,2.10971-1.02513,4.198-.73368,2.807-1.5699,5.583c-3.04806,10.18429-6.92918,20.11759-9.98044,30.3016-9.896,33.02775-17.8606,66.4976-25.61967,100.08934C164.81607,233.13,162.88914,270.15355,162.331,307.44454c-.00754.50487-.02793,1.01414-.0527,1.52606s-.054,1.02644-.079,1.542c-.02509.5155-.046,1.03207-.05444,1.54789q-.00632.387-.00219.773c.00348.28953.01226.57852.02792.86675a10.76289,10.76289,0,0,0,1.84662,5.83418q-.23859,1.25637-.4771,2.51274l-.03793.19966-.09475.4994q.01629,1.7742.033,3.54844a23.91528,23.91528,0,0,1,9.71556-1.82055q.69983-.001,1.4006.02191c1.88891.0596,3.783.23149,5.67724.41108a46.06676,46.06676,0,0,0,13.11157.03394,53.30937,53.30937,0,0,0,1.45518-12.92845q.00357-1.11244-.0224-2.22521c-.03524-1.61277-.10993-3.226-.20436-4.83923-.28346-4.8401-.74519-9.68225-.85783-14.52057l.00023-.00008c.90761-18.28153,1.94471-36.558,2.64532-54.84751"/><path class="cls-2" d="M163.5021,322.24674l.03793-.19966-.02427.12763Z"/><path class="cls-2" d="M194.57371,304.948c-.28336-4.84009-.74488-9.68217-.85757-14.52029v-.00032l-.00024.00008C193.82858,295.26572,194.29025,300.10791,194.57371,304.948Z"/><path class="cls-2" d="M194.57371,304.948c.09443,1.61335.16912,3.22654.20436,4.83923"/><path class="cls-2" d="M214.51591,43.92715c.31364-.24967.61223-.50658.89112-.7729"/><path class="cls-2" d="M215.44519,43.11423a13.21693,13.21693,0,0,0,1.52687-1.75406A13.22111,13.22111,0,0,1,215.44519,43.11423Z"/><path class="cls-2" d="M216.97206,41.36017a15.41512,15.41512,0,0,0,1.20705-1.966A15.42107,15.42107,0,0,1,216.97206,41.36017Z"/><path class="cls-2" d="M180.23371,324.907c-1.8943-.1796-3.78831-.35149-5.67725-.41109C176.4454,324.55554,178.33933,324.72747,180.23371,324.907Z"/><path class="cls-2" d="M338.753,222.4729l-.00016-.00056-.93391-3.07436-.11374-.37423-.19748-.48188s-.03168-.49715-.03563-.51291l-.00348-.0022q-.53655-2.52563-1.07325-5.05106l-.00981-.0462q-3.71557,1.29381-7.4321,2.58744a14.78334,14.78334,0,0,0,.99367,6.21693q.144.42715.29449.85277a41.26384,41.26384,0,0,1,1.31375,4.11619q.07079,1.17907.14128,2.35822c2.67235,13.44462,5.01588,26.943,6.66514,40.52683.98951,8.15034,1.72911,16.33147,2.13988,24.55035,1.66615,33.33784.563,66.51376-5.67586,99.46859-6.71165,35.45395-18.55,67.57581-51.85051,87.16726,17.4755-6.11416,30.40857-17.71739,40.62234-32.79667,17.32781-25.58225,21.79525-55.2335,25.50291-84.69736,5.897-46.86362,1.75253-93.32491-9.79706-139.11481C338.4165,223.82926,338.27254,223.2523,338.753,222.4729Z"/><path class="cls-2" d="M331.55523,226.70275q.06995,1.17954.14065,2.35872c2.67274,13.44434,5.01647,26.94251,6.66577,40.52635-1.64922-13.58384-3.99275-27.08219-6.66514-40.52683Q331.626,227.88177,331.55523,226.70275Z"/><path class="cls-2" d="M338.753,222.4729l.0004-.00089q-.46785-1.53666-.93447-3.074.46679,1.53725.93391,3.07436Z"/><path class="cls-2" d="M337.472,218.02894l-.00056-.00617q-.54087-2.51978-1.07617-5.04707.53679,2.52559,1.07325,5.05106Z"/><path class="cls-5" d="M336.3855,212.92941v-.0001q-.39813-1.75638-.8285-3.50234-.42726-1.747-.8675-3.48993-.59427-2.3708-1.22168-4.731-2.10613-7.91933-4.52818-15.737c-4.6941-15.076-10.19369-29.89127-15.87979-44.63806a1021.616,1021.616,0,0,0-56.198-120.47837c6.48528,14.44832,12.15675,29.22061,18.4423,43.7268,13.37159,30.86033,25.77582,62.058,36.444,93.98453q1.18977,3.56082,2.29239,7.14609c1.29124,4.18121,2.51047,8.38233,3.70256,12.59049,3.5764,12.62444,6.90913,25.312,11.21041,37.71636Q332.67062,214.22325,336.3855,212.92941Z"/><path class="cls-2" d="M328.93968,185.46912q2.43306,7.81407,4.52818,15.737"/><path class="cls-2" d="M336.3855,212.92941h.00008q-.39819-1.75641-.82858-3.50244.42714,1.74711.8285,3.50234Z"/><path class="cls-2" d="M335.557,209.427q-.42726-1.747-.8675-3.48993"/><path class="cls-5" d="M154.28988,265.63379q.57594-6.93012,1.33013-13.843.60619-5.53,1.3394-11.04764,1.47-11.03484,3.50738-22.01366c7.31761-39.14377,18.06614-77.39446,30.78489-115.09093,5.15805-15.28731,10.90888-30.37722,16.577-45.48675.872-2.32469.75146-5.76671,4.45951-6.16633-2.01208-2.45794-.63453-4.22328,1.23465-5.888a1.59714,1.59714,0,0,1,.77234-2.12257q.06812-.03177.139-.057c-1.38332-2.887-2.885-3.23724-4.254.00106-2.47458,5.85423-4.77353,11.78276-7.25671,17.63319-23.38073,55.087-43.24053,111.306-54.0817,170.35481-4.80794,26.18813-8.33676,52.53451-6.09359,79.293q4.71468-1.93008,9.42909-3.86017C152.49872,293.403,153.13789,279.49393,154.28988,265.63379Z"/><path class="cls-2" d="M178.39091,439.64854q-1.6201-3.09231-3.07591-6.26889-.72918-1.58762-1.4206-3.19461c-1.736-4.03285-3.29911-8.15418-4.72344-12.346a300.30714,300.30714,0,0,1-9.30965-35.80551,328.4447,328.4447,0,0,1-5.05747-34.48667q-.42519-4.33665-.775-8.6821c-.70534-8.69012-1.21859-17.402-1.69179-26.11351q.063-1.00845.1265-2.01639-.14322-1.69767-.28629-3.39523-4.7141,1.92991-9.42909,3.86017.36438,7.84317.72888,15.68652-.07331,1.06811-.14646,2.13633.204,1.458.408,2.91586l.02784.19831-.02191.28832q-.07149.9434-.14316,1.8868c.39729,4.5389.69513,9.0901,1.13,13.62418.14494,1.51146.30514,3.02095.48928,4.52759,3.589,29.35767,9.0024,58.24033,23.29629,84.64389q1.71654,3.17085,3.5587,6.22336.80751,1.33393,1.64226,2.64194c8.35074,13.07719,18.83892,24.12181,33.45938,31.15263q.41733-.85062.8273-1.69518A107.15131,107.15131,0,0,1,178.39091,439.64854Z"/><path class="cls-2" d="M143.47708,326.88637q-.07431,1.0687-.14755,2.13672.2056,1.45734.40915,2.91547-.20387-1.458-.408-2.91586Q143.40375,327.95442,143.47708,326.88637Z"/><path class="cls-2" d="M143.74462,332.42523q-.07212.94387-.14373,1.88727c.3977,4.53859.69569,9.08955,1.13055,13.62371-.43488-4.53416-.73269-9.08532-1.13-13.62418Q143.673,333.36864,143.74462,332.42523Z"/><path class="cls-2" d="M207.17735,477.12562q.41732-.85062.8273-1.69518"/><path class="cls-2" d="M152.17727,307.33966q-4.7141,1.92989-9.42909,3.86017"/><path class="cls-2" d="M163.54,322.04705l.10295-.543"/><path class="cls-2" d="M163.5021,322.24674l.03793-.19966"/><path class="cls-4" d="M163.40726,322.74614l.07583-.39946.03265-.172.12724-.67058q.1866-.98469.37373-1.96961a10.76517,10.76517,0,0,1-1.8462-5.83434c-.01566-.28825-.02444-.57722-.02792-.86675q-.00467-.386.00219-.773c.00845-.5158.02939-1.03239.05444-1.54789.025-.51558.05425-1.03011.079-1.542s.04514-1.02123.0527-1.52606c.55814-37.291,2.48506-74.31449,10.95631-110.99043,7.75911-33.59174,15.72364-67.06159,25.61967-100.08934,3.05131-10.18391,6.93244-20.11726,9.98044-30.30161q.83123-2.77758,1.5699-5.583.546-2.089,1.02514-4.198.47706-2.10966.87559-4.243l-.018.01373c-.01924-.0229-.033-.04474-.05173-.06747-3.70808.39963-3.58751,3.84166-4.45951,6.16633-5.66812,15.10957-11.419,30.19948-16.577,45.48675-12.71871,37.69647-23.46728,75.94716-30.78489,115.09093q-2.0521,10.97715-3.50738,22.01366-.73514,5.51745-1.3394,11.04764-.75777,6.91256-1.33013,13.843c-1.15183,13.86014-1.79092,27.76916-2.11221,41.70571l-.0004.00018q.14289,1.69762.28641,3.39523-.06311,1.00829-.12627,2.01657c.47312,8.71142.98612,17.42323,1.69146,26.11335q.3527,4.3451.775,8.6821a328.4447,328.4447,0,0,0,5.05747,34.48667,300.30714,300.30714,0,0,0,9.30965,35.80551c1.42429,4.19177,2.98749,8.31306,4.72344,12.346q.69165,1.60679,1.4206,3.19462,1.45846,3.17529,3.07591,6.26888a107.15,107.15,0,0,0,29.614,35.78139l-.00024.00047q1.70316.37933,3.40661.75732c-.08177-2.12007-1.66043-3.26858-3.05138-4.52562-10.49965-9.489-17.97015-21.07249-23.51121-33.98872a224.4776,224.4776,0,0,1-11.34587-33.91077q-1.73015-6.88576-3.08816-13.84317-.76854-3.91258-1.433-7.84521a474.4485,474.4485,0,0,1-5.54131-55.77969Q163.4235,324.52024,163.40726,322.74614Z"/><path class="cls-2" d="M211.41125,476.188c.0022.05676.01527.10643.01527.16461l.04523-.15108Z"/><path class="cls-2" d="M211.41125,476.188v-.00023q-1.70347-.37821-3.4066-.75732Q209.7078,475.8098,211.41125,476.188Z"/><path class="cls-2" d="M163.40726,322.74614q.01645,1.7742.033,3.54844-.01685-1.77426-.033-3.54844l.07575-.39946Z"/><path class="cls-2" d="M163.48309,322.34668l-.07575.39946.09474-.4994.01364-.072Z"/><path class="cls-2" d="M152.17769,307.33956c.32129-13.93655.96032-27.84557,2.11221-41.70571-1.152,13.86014-1.79116,27.76924-2.11261,41.70588Z"/><path class="cls-2" d="M154.28988,265.63379q.57594-6.93012,1.33013-13.843"/><path class="cls-2" d="M152.33706,312.7513q.063-1.00845.1266-2.01639-.14337-1.69767-.28641-3.39523.14286,1.69763.28629,3.39523Q152.40024,311.74311,152.33706,312.7513Z"/><path class="cls-2" d="M169.171,417.83909c1.42429,4.19177,2.98749,8.31306,4.72344,12.346"/><path class="cls-2" d="M178.39091,439.64854a107.15151,107.15151,0,0,0,29.61374,35.7819l.00023-.00047A107.14986,107.14986,0,0,1,178.39091,439.64854Z"/><path class="cls-2" d="M175.315,433.37962q1.45846,3.17529,3.07591,6.26888Q176.77081,436.55631,175.315,433.37962Z"/><path class="cls-2" d="M175.315,433.37962q-.72918-1.58763-1.4206-3.19462"/><path class="cls-2" d="M154.02883,338.86481c-.70534-8.69012-1.21834-17.40193-1.69146-26.11335q.06321-1.00818.12627-2.01657-.06348,1.00819-.1266,2.01639C152.81026,321.46276,153.32351,330.17469,154.02883,338.86481Z"/><path class="cls-2" d="M154.80384,347.54691q-.42519-4.33665-.775-8.6821"/><path class="cls-2" d="M213.53379,46.1497c-.00674-.01875-.00454-.0337-.01089-.0523-1.86918,1.66475-3.24673,3.43008-1.23465,5.888.02907-.00317.05343-.00991.08294-.01267v.00017l-.01323.06617c1.75893-1.19568,2.59677-2.5794,2.12853-4.22994a5.36666,5.36666,0,0,0-.87878-1.6809C213.58121,46.13459,213.56122,46.14369,213.53379,46.1497Z"/><path class="cls-2" d="M214.48653,47.80916a5.36721,5.36721,0,0,0-.87878-1.681v.00016A5.36672,5.36672,0,0,1,214.48653,47.80916Z"/><path class="cls-2" d="M212.37122,51.97292v-.00017l-.00682.01763Z"/><path class="cls-2" d="M212.3644,51.99038l-.02444.06252.018-.01373v-.00008l.01322-.06617Z"/><path class="cls-2" d="M212.37122,51.97275c-.02954.00276-.0539.00951-.08293.01268.01867.02273.03249.04457.05173.06747l.02444-.06252Z"/><path class="cls-2" d="M212.34,52.0529l.02444-.06252"/><path class="cls-2" d="M213.5229,46.09741l.04107-.03727h0l.0001-.00008c.01754.02333.02654.0449.04368.06811,1.30118-.31194,1.55319-1.067.90816-2.201-.01882.015-.03458.03151-.05359.04644l-.0281-.05573a1.59714,1.59714,0,0,0-.96831,2.04063Q213.49111,46.02925,213.5229,46.09741Z"/><path class="cls-2" d="M214.47743,43.92715l-.01511.04644c.019-.01493.03477-.03141.05359-.04644-.01882.015-.03458.03141-.05351.04636Z"/><path class="cls-2" d="M214.4624,43.97351c.01893-.01495.03469-.03141.05351-.04636-.00907-.016-.014-.03021-.02345-.04637l-.015.04637Z"/><path class="cls-2" d="M214.47743,43.92715l.015-.04637c-.02339.01064-.03558.02606-.05824.037l.0281.05573Z"/><path class="cls-2" d="M213.56407,46.06013c.01754.02333.02654.04491.04368.06813v-.00009c-.01712-.02321-.02614-.04481-.04368-.06811Z"/><path class="cls-2" d="M213.53379,46.1497c.02743-.006.04742-.01511.074-.02144-.01712-.02322-.02614-.04483-.04368-.06813l-.01519.04474Z"/><path class="cls-2" d="M213.54888,46.10487l.01509-.04473-.04107.03727c.00633.0186.00415.03354.01089.05229Z"/><path class="cls-2" d="M213.56407,46.06013h-.0001l-.01509.04474Z"/></svg>
