<svg width="40" height="40" viewBox="0 0 40 40" xmlns="http://www.w3.org/2000/svg">  <g id="Icon-Architecture/32/Arch_AWS-Audit-Manager_32" stroke="none" stroke-width="1" fill="none" fill-rule="evenodd">  <g id="Icon-Service/32/AWS-Audit-Manager_32" transform="translate(6.000000, 6.000000)" fill="#FFFFFF"> <path d="M24.746,19.561 L24.039,20.268 L25.77,22 L21,22 L21,23 L25.739,23 L24.039,24.7 L24.746,25.407 L27.315,22.838 C27.511,22.643 27.511,22.326 27.315,22.131 L24.746,19.561 Z M12,23 L17.746,23 L16.045,24.7 L16.752,25.407 L19.322,22.838 C19.416,22.744 19.469,22.617 19.469,22.484 C19.469,22.352 19.416,22.225 19.322,22.131 L16.752,19.561 L16.045,20.268 L17.777,22 L12,22 L12,23 Z M7.759,25.407 L10.328,22.838 C10.523,22.643 10.523,22.326 10.328,22.131 L7.759,19.561 L7.052,20.268 L8.783,22 L3,22 L3,23 L8.752,23 L7.052,24.7 L7.759,25.407 Z M3,16 L11,16 L11,15 L3,15 L3,16 Z M3,11 L11,11 L11,10 L3,10 L3,11 Z M15,11 L18,11 L18,10 L15,10 L15,11 Z M18.5,9 C18.776,9 19,9.224 19,9.5 L19,11.5 C19,11.776 18.776,12 18.5,12 L14.5,12 C14.224,12 14,11.776 14,11.5 L14,9.5 C14,9.224 14.224,9 14.5,9 L18.5,9 Z M15,16 L27,16 L27,15 L15,15 L15,16 Z M28,14.5 L28,16.5 C28,16.776 27.776,17 27.5,17 L14.5,17 C14.224,17 14,16.776 14,16.5 L14,14.5 C14,14.224 14.224,14 14.5,14 L27.5,14 C27.776,14 28,14.224 28,14.5 L28,14.5 Z M17,1.165 L17,5 L20.797,5 L17,1.165 Z M21,26 L22,26 L22,27.5 C22,27.776 21.776,28 21.5,28 L0.5,28 C0.224,28 0,27.776 0,27.5 L0,0.5 C0,0.224 0.224,0 0.5,0 L17.046,0 C17.18,0 17.308,0.053 17.401,0.148 L21.855,4.648 C21.948,4.742 22,4.868 22,5 L22,12 L21,12 L21,6 L16.5,6 C16.224,6 16,5.776 16,5.5 L16,1 L1,1 L1,27 L21,27 L21,26 Z M11.256,3.565 L7.401,7.42 C7.304,7.518 7.176,7.566 7.048,7.566 C6.92,7.566 6.792,7.518 6.694,7.42 L4.767,5.493 L5.474,4.786 L7.048,6.359 L10.549,2.858 L11.256,3.565 Z" id="Fill-3"></path> </g> </g></svg>