<svg width="40" height="40" viewBox="0 0 40 40" fill="none" xmlns="http://www.w3.org/2000/svg">
<g clip-path="url(#clip0_23293_2730)">
<path d="M40 0H0V40H40V0Z" fill="#8C4FFF" fill-opacity="0.12"/>
<path fill-rule="evenodd" clip-rule="evenodd" d="M16.298 27.242L14.263 25.207L16.298 23.172L15.591 22.465L13.202 24.853C13.007 25.049 13.007 25.365 13.202 25.56L15.591 27.949L16.298 27.242ZM26.354 14.56C26.549 14.365 26.549 14.049 26.354 13.853L23.965 11.465L23.258 12.172L25.293 14.207L23.258 16.242L23.965 16.949L26.354 14.56ZM25 26.02H31V25.02H25V26.02ZM19 30.02H34V29.02H19V30.02ZM9 15.02H15V14.02H9V15.02ZM6 11.02H21V10.02H6V11.02ZM24.265 7C22.976 7 21.703 7.329 20.583 7.952L21.069 8.826C22.04 8.286 23.146 8 24.265 8C27.896 8 30.85 10.954 30.85 14.585C30.85 18.216 27.896 21.17 24.265 21.17C23.826 21.17 23.394 21.11 22.967 21.021C22.939 21.097 22.636 21.932 22.622 21.972C23.161 22.093 23.709 22.17 24.265 22.17C28.447 22.17 31.85 18.767 31.85 14.585C31.85 10.403 28.447 7 24.265 7ZM17.905 16.304C17.756 15.745 17.68 15.167 17.68 14.585C17.68 13.711 17.848 12.864 18.179 12.067L17.255 11.683C16.873 12.602 16.68 13.579 16.68 14.585C16.68 15.255 16.768 15.92 16.941 16.563L17.905 16.304ZM21.5 32.02H9.5C9.224 32.02 9 31.797 9 31.52V19.52C9 19.244 9.224 19.02 9.5 19.02H21.5C21.777 19.02 22 19.244 22 19.52V28.02H21V20.02H10V31.02H22V31.52C22 31.797 21.777 32.02 21.5 32.02Z" fill="#8C4FFF"/>
</g>
<rect x="0.5" y="0.5" width="39" height="39" stroke="#8C4FFF"/>
<defs>
<clipPath id="clip0_23293_2730">
<rect width="40" height="40" fill="white"/>
</clipPath>
</defs>
</svg>
