<svg
      version="1.1"
      xmlns="http://www.w3.org/2000/svg"
      viewBox="0 0 256 256"
      fill="#DDDDDD"
    >
      <g>
        <g>
          <path
            d="M237,15c-14.2,0-26.6,4.5-37,13.3c-8.9,7.5-16.1,18.1-22.2,32.2C167,85.2,161.9,116,157,145.9c-6.3,37.9-12.8,77.1-29,77.1c-5.9,0-14.6-2.5-22.7-24.5c-6.3-17.1-10-40-13.6-62.1c-3-18.6-5.8-36.2-10.1-49.7c-2.5-7.9-5.4-13.8-8.8-18.2c-6-7.6-12.8-9.2-17.4-9.2c-6.7,0-13.1,2.8-18.3,8.1c-4.2,4.2-7.7,9.8-10.9,17.2c-4.8,11.3-8.7,26.8-11.4,46C10,162.8,10,194.3,10,195.6l0,0c0,0,0,0.1,0,0.1c0,5,4,9,9,9c5,0,9-4,9-9c0-0.1,0-0.2,0-0.4c0-3,0.3-32.9,4.5-62.2c2.5-17.6,5.9-31.5,10.1-41.3c2.3-5.4,7-14.4,12.7-14.4c0.4,0,1.5,0,3.3,2.3c2,2.6,4,6.8,5.8,12.5c3.9,12.2,6.6,29.1,9.5,47c3.7,22.9,7.5,46.7,14.5,65.4c4,10.9,8.7,19.1,14.4,25c7.1,7.5,15.6,11.2,25.2,11.2c8.3,0,15.5-3.3,21.5-9.8c4.7-5.1,8.6-12.2,12-21.7c5.8-16.3,9.4-37.9,13.2-60.7c4.8-28.8,9.7-58.6,19.5-81.2C204.5,44.1,218,33.1,236.7,33c0.1,0,0.2,0,0.3,0c5,0,9-4,9-9C246,19,242,15,237,15z"
          />
        </g>
      </g>
</svg>