<svg width="40" height="40" viewBox="0 0 40 40" fill="none" xmlns="http://www.w3.org/2000/svg">
<g clip-path="url(#clip0_23311_9627)">
<path d="M40 0H0V40H40V0Z" fill="#DD344C" fill-opacity="0.12"/>
<path fill-rule="evenodd" clip-rule="evenodd" d="M22.034 20.429C22.034 20.515 22 22.337 20.527 22.687V17.189L22.034 17.842V20.429ZM18.02 20.421V17.842L19.527 17.189V22.689C18.092 22.354 18.021 20.637 18.02 20.421ZM22.733 17.054L20.226 15.969C20.099 15.914 19.955 15.914 19.828 15.969L17.321 17.054C17.138 17.134 17.02 17.314 17.02 17.513V20.421C17.02 21.576 17.649 23.76 20.027 23.76C22.405 23.76 23.034 21.581 23.034 20.429V17.513C23.034 17.314 22.916 17.134 22.733 17.054ZM29.39 26.846C28.508 26.846 27.79 26.128 27.79 25.245C27.79 24.362 28.508 23.644 29.39 23.644C30.273 23.644 30.991 24.362 30.991 25.245C30.991 26.128 30.273 26.846 29.39 26.846ZM20.075 24.745C17.327 24.745 15.092 22.51 15.092 19.762C15.092 17.013 17.327 14.778 20.075 14.778C22.823 14.778 25.059 17.013 25.059 19.762C25.059 22.51 22.823 24.745 20.075 24.745ZM21.628 30.803C21.628 31.685 20.91 32.404 20.027 32.404C19.144 32.404 18.427 31.685 18.427 30.803C18.427 29.92 19.144 29.202 20.027 29.202C20.91 29.202 21.628 29.92 21.628 30.803ZM18.427 8.601C18.427 7.719 19.144 7 20.027 7C20.91 7 21.628 7.719 21.628 8.601C21.628 9.484 20.91 10.202 20.027 10.202C19.144 10.202 18.427 9.484 18.427 8.601ZM10.6 26.24C9.718 26.24 9 25.522 9 24.639C9 23.757 9.718 23.038 10.6 23.038C11.483 23.038 12.201 23.757 12.201 24.639C12.201 25.522 11.483 26.24 10.6 26.24ZM11.008 15.611C10.125 15.611 9.407 14.893 9.407 14.01C9.407 13.127 10.125 12.409 11.008 12.409C11.89 12.409 12.609 13.127 12.609 14.01C12.609 14.893 11.89 15.611 11.008 15.611ZM29.454 12.154C30.337 12.154 31.055 12.871 31.055 13.754C31.055 14.637 30.337 15.355 29.454 15.355C28.571 15.355 27.853 14.637 27.853 13.754C27.853 12.871 28.571 12.154 29.454 12.154ZM29.39 22.644C28.672 22.644 28.02 22.938 27.549 23.411L25.58 22.106C25.888 21.386 26.059 20.594 26.059 19.762C26.059 18.673 25.763 17.655 25.253 16.774L27.506 15.459C27.983 16.004 28.676 16.355 29.454 16.355C30.888 16.355 32.055 15.188 32.055 13.754C32.055 12.32 30.888 11.154 29.454 11.154C28.02 11.154 26.853 12.32 26.853 13.754C26.853 14.05 26.914 14.329 27.005 14.595L24.683 15.949C23.676 14.733 22.195 13.926 20.527 13.801V11.151C21.722 10.917 22.628 9.864 22.628 8.601C22.628 7.167 21.461 6 20.027 6C18.594 6 17.427 7.167 17.427 8.601C17.427 9.864 18.332 10.917 19.527 11.151V13.805C17.782 13.965 16.256 14.878 15.267 16.215L13.41 15.004C13.537 14.697 13.609 14.362 13.609 14.01C13.609 12.576 12.442 11.409 11.008 11.409C9.574 11.409 8.407 12.576 8.407 14.01C8.407 15.444 9.574 16.611 11.008 16.611C11.73 16.611 12.384 16.314 12.855 15.837L14.741 17.066C14.329 17.877 14.092 18.791 14.092 19.762C14.092 20.501 14.232 21.206 14.478 21.86L12.561 22.95C12.084 22.397 11.387 22.038 10.6 22.038C9.167 22.038 8 23.205 8 24.639C8 26.074 9.167 27.24 10.6 27.24C12.034 27.24 13.201 26.074 13.201 24.639C13.201 24.351 13.142 24.079 13.056 23.82L14.909 22.765C15.86 24.395 17.555 25.537 19.527 25.717V28.253C18.332 28.487 17.427 29.54 17.427 30.803C17.427 32.237 18.594 33.404 20.027 33.404C21.461 33.404 22.628 32.237 22.628 30.803C22.628 29.54 21.722 28.487 20.527 28.253V25.722C22.448 25.577 24.116 24.526 25.104 22.992L26.992 24.242C26.862 24.551 26.79 24.889 26.79 25.245C26.79 26.679 27.957 27.846 29.39 27.846C30.824 27.846 31.991 26.679 31.991 25.245C31.991 23.811 30.824 22.644 29.39 22.644Z" fill="#DD344C"/>
</g>
<rect x="0.5" y="0.5" width="39" height="39" stroke="#DD344C"/>
<defs>
<clipPath id="clip0_23311_9627">
<rect width="40" height="40" fill="white"/>
</clipPath>
</defs>
</svg>
