<svg xmlns="http://www.w3.org/2000/svg" role="img" viewBox="16.62 -1.63 395.51 435.76" width='395.51' height='435.76'><style>svg {enable-background:new 0 0 432 434}</style><g fill="#fff"><path d="M71.1 214.5c7.5-26.7 20.9-50.1 38.4-68.8-5.9-4.4-29.3-22.6-30.4-36.9C77.5 85.4 100.9 6.7 100.9 6.7S30.2 92.8 25.3 127.6c-3.9 27.3 40.8 81.5 45.5 87v-.1h.3zm287.8-1.4v.2c0 .1.1.2.1.3 7.8-9.4 48.3-59.9 44.6-86C398.7 92.8 328 6.7 328 6.7s23.4 78.7 21.7 102.1c-1 13.7-22.3 30.8-29.4 36.2 17.5 18.5 30.9 41.7 38.6 68.1z" opacity=".64"/><path d="M358.9 213.3v-.2c-7.6-26.4-21.1-49.6-38.6-68.1-27.5-29-64.9-46.4-105.2-46.4v93h.1c9.9.1 17.9 8.2 17.9 18.1 0 1.2-.1 2.3-.3 3.4-1.6 8.3-8.8 14.6-17.6 14.7h-.3v34.5l-.2 163.4h3.5s38-55 58.5-70.7c24-18.4 82.2-41.2 82.2-41.2v-99.4l.3-.1c-.1-.2-.1-.5-.2-.7 0-.1-.1-.2-.1-.3z" opacity=".85"/><path d="M214.9 262.3v-34.5c-8.3-.1-15.2-5.7-17.3-13.3-.4-1.5-.7-3.1-.7-4.8 0-10 8.1-18.1 18.1-18.1h.1V98.9c-40.5 0-78 17.5-105.5 46.8-17.5 18.6-30.9 42.1-38.4 68.8h-.3v100.7s58.2 22.8 82.2 41.2c19.9 15.3 58.3 69.4 58.3 69.4h3.6v-.1h-.2l.1-163.4z" opacity=".75"/></g></svg>