<svg width="90" height="90" viewBox="0 0 90 90" fill="none" xmlns="http://www.w3.org/2000/svg">
<path fill-rule="evenodd" clip-rule="evenodd" d="M24.2421 57.4458C24.2499 57.4595 24.2577 57.4733 24.2654 57.4871C26.1188 60.8013 24.9378 64.9922 21.6276 66.8479C18.3174 68.7035 14.1315 67.521 12.2781 64.2069C10.4247 60.8927 11.6057 56.7017 14.9159 54.8461C16.2327 54.108 17.688 53.8506 19.0799 54.0168L26.2057 42.2736C23.9974 40.6159 22.1947 38.4641 20.9478 35.9804C19.4279 32.953 18.7961 29.5563 19.1254 26.1841C19.4547 22.8118 20.7318 19.602 22.8086 16.9267C24.8853 14.2513 27.6768 12.2199 30.8595 11.068C34.0422 9.916 37.4858 9.69059 40.7912 10.4179C44.0966 11.1451 47.1285 12.7953 49.5355 15.1771C51.9426 17.559 53.6262 20.575 54.3913 23.8756C55.1563 27.1762 54.9716 30.6263 53.8584 33.8261L47.5941 31.6416C48.295 29.6271 48.4113 27.455 47.9296 25.377C47.4479 23.299 46.388 21.4002 44.8726 19.9007C43.3572 18.4012 41.4484 17.3623 39.3674 16.9044C37.2864 16.4465 35.1185 16.5885 33.1147 17.3137C31.111 18.0389 29.3536 19.3178 28.0461 21.0022C26.7386 22.6865 25.9346 24.7073 25.7273 26.8303C25.5199 28.9534 25.9177 31.0919 26.8746 32.9978C27.6628 34.5679 28.8037 35.9272 30.2018 36.9725L34.8919 39.8253L24.2216 57.41C24.2285 57.4219 24.2353 57.4338 24.2421 57.4458ZM37.0697 35.1098L37.1087 35.1115L46.2619 53.5389L51.1782 51.091C51.8603 50.8284 52.565 50.6334 53.282 50.5079V43.8036C51.7627 43.9695 50.2682 44.3298 48.8358 44.8775L42.7263 32.5777C43.6128 31.4873 44.1746 30.1157 44.2546 28.6041C44.4554 24.8111 41.547 21.5733 37.7586 21.3723C33.9702 21.1712 30.7363 24.0831 30.5355 27.876C30.3347 31.669 33.243 34.9068 37.0314 35.1078L37.0697 35.1098ZM65.8142 76.084L65.6845 76.0145C63.5807 74.8879 61.6948 73.4676 60.0663 71.8197C59.3357 72.1676 58.5665 72.4374 57.771 72.6222C55.6954 73.1041 53.5259 72.9873 51.514 72.2853C49.502 71.5833 47.7299 70.3249 46.403 68.6558L41.213 72.7918C43.3205 75.4429 46.1353 77.4417 49.3311 78.5568C52.5269 79.6718 55.9728 79.8573 59.2696 79.0918C61.6416 78.541 63.8664 77.5142 65.8142 76.084ZM56.8323 67.7221C55.3372 67.9724 53.7498 67.7312 52.3269 66.927C51.0114 66.1834 50.0348 65.0708 49.4535 63.7921L35.7316 63.7995C35.4653 66.5519 34.5657 69.2142 33.0932 71.5731C31.2996 74.4465 28.7295 76.7521 25.6807 78.2229C22.6318 79.6937 19.2291 80.2693 15.8669 79.8832C12.5047 79.497 9.32057 78.1649 6.68358 76.0411C4.0466 73.9173 2.06471 71.0888 0.967585 67.8834C-0.129543 64.6781 -0.296985 61.2271 0.484658 57.9304C1.2663 54.6336 2.96504 51.6261 5.38399 49.2564C7.80295 46.8867 10.8431 45.2519 14.1521 44.5412L15.5433 51.0349C13.46 51.4823 11.5461 52.5115 10.0231 54.0034C8.50025 55.4953 7.43077 57.3887 6.93867 59.4643C6.44657 61.5398 6.55199 63.7124 7.24271 65.7304C7.93343 67.7484 9.18117 69.5292 10.8413 70.8662C12.5015 72.2033 14.5061 73.042 16.6229 73.2851C18.7396 73.5282 20.8819 73.1658 22.8013 72.2398C24.7208 71.3139 26.3389 69.8623 27.4681 68.0533C28.3975 66.5644 28.9644 64.8835 29.1304 63.1458L29.1274 57.6416L49.6809 57.6306C49.6944 57.6061 49.7081 57.5815 49.7219 57.557C50.5465 56.0945 51.8258 55.0503 53.282 54.5019V55.3037C53.282 59.7758 54.5524 64.0605 56.8323 67.7221Z" fill="white"/>
<path d="M73.4813 38.7917L59.3064 41.432C58.3593 41.6084 57.6726 42.4349 57.6726 43.3982V55.5082C57.6726 62.4379 61.4857 68.8055 67.5946 72.0769L72.8919 74.9138C73.4817 75.2296 74.1905 75.2296 74.7803 74.9138L80.0776 72.0769C86.1865 68.8055 89.9996 62.4379 89.9996 55.5082V43.2292C89.9996 42.2574 89.301 41.4262 88.3436 41.259L74.1916 38.7877C73.9565 38.7466 73.7159 38.748 73.4813 38.7917Z" fill="white"/>
</svg>
