<svg width="40" height="40" viewBox="0 0 40 40" fill="none" xmlns="http://www.w3.org/2000/svg">
<g clip-path="url(#clip0_23299_4206)">
<path d="M40 0H0V40H40V0Z" fill="#ED7100" fill-opacity="0.12"/>
<path fill-rule="evenodd" clip-rule="evenodd" d="M23.9053 30.457C23.1373 30.048 21.8543 29.364 20.6583 28.005C19.5543 26.75 19.0233 25.505 18.6343 24.597C18.1933 23.561 17.8633 22.475 17.6553 21.368C17.6163 21.158 17.4483 20.997 17.2383 20.965C17.0223 20.936 16.8203 21.04 16.7213 21.228C16.4343 21.775 16.1723 22.344 15.9403 22.92C15.4243 24.206 13.8403 28.494 14.1513 31.968H12.0653C11.4973 29.855 10.8683 28.141 8.4103 24.316C8.2143 24.011 8.0223 23.698 7.8403 23.399C7.5993 23.005 7.3683 22.627 7.1553 22.316L10.0263 18.498C10.1933 18.803 10.3503 19.116 10.4953 19.433C10.8843 20.289 11.0603 20.914 11.4893 22.424L11.7073 23.187C11.8573 23.716 12.0983 24.558 12.4103 25.609C12.4783 25.843 12.7033 26 12.9503 25.964C13.1923 25.935 13.3783 25.734 13.3883 25.49C13.5573 21.727 14.3463 18.241 15.7363 15.129C16.7413 12.876 18.0413 10.915 19.3943 9.606C19.9133 9.105 20.4713 8.639 21.0613 8.215L23.9183 12.856C23.3863 13.266 22.8983 13.728 22.4633 14.234C21.8453 14.95 21.3033 15.809 20.8953 16.717C20.5403 17.51 19.9443 19.165 19.9523 21.338C19.9553 21.928 19.9613 23.311 20.5433 24.959C20.8203 25.743 21.6783 27.751 23.6673 29.472C25.6123 31.156 27.6553 31.726 28.7053 31.959C26.3593 31.766 24.6443 30.852 23.9053 30.457ZM20.0253 33C18.3423 33 16.7143 32.669 15.1723 32.046C14.7983 28.683 16.5093 24.186 16.8683 23.292C16.9123 23.184 16.9573 23.075 17.0033 22.966C17.1963 23.655 17.4343 24.332 17.7153 24.989C18.1063 25.906 18.6983 27.291 19.9083 28.666C21.2233 30.161 22.6073 30.898 23.4343 31.34C23.7563 31.511 24.2563 31.774 24.8983 32.04C23.3553 32.667 21.7243 33 20.0253 33ZM7.0253 20C7.0253 12.832 12.8573 7 20.0253 7C20.3633 7 20.6943 7.026 21.0253 7.051C20.9943 7.063 20.9623 7.069 20.9333 7.088C20.1363 7.62 19.3843 8.225 18.6993 8.887C17.2563 10.282 15.8793 12.354 14.8223 14.722C13.7213 17.188 12.9843 19.877 12.6203 22.744L12.4513 22.151C12.0213 20.635 11.8253 19.944 11.4053 19.019C11.1403 18.438 10.8373 17.871 10.5033 17.332C10.4163 17.192 10.2653 17.104 10.1003 17.097C9.9393 17.087 9.7783 17.164 9.6783 17.296L7.0093 20.846C7.0113 20.775 7.0123 20.701 7.0143 20.633C7.0203 20.392 7.0253 20.171 7.0253 20ZM33.0253 20C33.0253 24.203 30.9813 28.146 27.5593 30.586C26.6083 30.248 25.4473 29.69 24.3213 28.716C22.5143 27.152 21.7363 25.335 21.4863 24.626C20.9613 23.137 20.9553 21.919 20.9522 21.333C20.9443 19.349 21.4853 17.846 21.8073 17.126C22.2743 16.089 22.8343 15.336 23.2203 14.886C23.7043 14.325 24.2593 13.823 24.8713 13.395C25.0893 13.244 25.1493 12.949 25.0103 12.724L21.6363 7.242C21.5973 7.177 21.5423 7.127 21.4803 7.087C27.9653 7.813 33.0253 13.324 33.0253 20ZM32.8043 31.266C32.1123 31.306 30.8263 31.379 29.2633 31.056C29.1253 31.027 28.9353 30.986 28.7263 30.936C32.0493 28.287 34.0253 24.275 34.0253 20C34.0253 12.281 27.7453 6 20.0253 6C12.3053 6 6.0253 12.281 6.0253 20C6.0253 20.165 6.0203 20.377 6.0143 20.609C6.0003 21.231 5.9823 21.936 6.0383 22.374L6.0533 22.372C6.0653 22.458 6.0833 22.545 6.1393 22.618C6.3773 22.922 6.6733 23.407 6.9863 23.921C7.1733 24.226 7.3683 24.545 7.5683 24.857C10.1413 28.859 10.6243 30.405 11.1973 32.595C11.2553 32.815 11.4533 32.968 11.6803 32.968H14.7173C14.7323 32.968 14.7463 32.96 14.7603 32.958C16.4323 33.639 18.1993 34 20.0253 34C22.1943 34 24.3453 33.482 26.2723 32.52C27.0033 32.73 27.8343 32.901 28.7623 32.967C29.0413 32.987 29.3193 32.996 29.5953 32.996C31.5553 32.996 33.3833 32.54 33.7393 32.169C33.8413 32.063 33.9093 31.882 33.8933 31.736C33.8393 31.207 33.3353 31.237 32.8043 31.266Z" fill="#ED7100"/>
</g>
<rect x="0.5" y="0.5" width="39" height="39" stroke="#ED7100"/>
<defs>
<clipPath id="clip0_23299_4206">
<rect width="40" height="40" fill="white"/>
</clipPath>
</defs>
</svg>
