<svg width="24" height="24" viewBox="0 0 24 24" fill="none" xmlns="http://www.w3.org/2000/svg">
<path fill-rule="evenodd" clip-rule="evenodd" d="M5.3999 12.6998H9.3999V11.2998H5.3999V12.6998Z" fill="#CCCCCC"/>
<path fill-rule="evenodd" clip-rule="evenodd" d="M4.59995 20.4004L11.2 13.8004L10.3 12.9004L3.69995 19.5004L4.59995 20.4004Z" fill="#CCCCCC"/>
<path fill-rule="evenodd" clip-rule="evenodd" d="M4 4.9L10.6 11.5L11.5 10.6L4.9 4L4 4.9Z" fill="#CCCCCC"/>
<path fill-rule="evenodd" clip-rule="evenodd" d="M14.6001 12.6998H18.6001V11.2998H14.6001V12.6998Z" fill="#CCCCCC"/>
<path fill-rule="evenodd" clip-rule="evenodd" d="M12.8 13.7998L19.1 19.9998L20 19.0998L13.8 12.7998L12.8 13.7998Z" fill="#CCCCCC"/>
<path fill-rule="evenodd" clip-rule="evenodd" d="M14.5 10.5002L20.3 4.6002L19.4 3.7002L13.5 9.5002L14.5 10.5002Z" fill="#CCCCCC"/>
<path fill-rule="evenodd" clip-rule="evenodd" d="M1.5 22.5H6V18H1.5V22.5Z" fill="white"/>
<path fill-rule="evenodd" clip-rule="evenodd" d="M18 22.5H22.5V18H18V22.5Z" fill="white"/>
<path fill-rule="evenodd" clip-rule="evenodd" d="M1.5 6H6V1.5H1.5V6Z" fill="white"/>
<path fill-rule="evenodd" clip-rule="evenodd" d="M18 6H22.5V1.5H18V6Z" fill="white"/>
<path fill-rule="evenodd" clip-rule="evenodd" d="M8.19995 15.8002H15.8V8.2002H8.19995V15.8002Z" fill="white"/>
<path fill-rule="evenodd" clip-rule="evenodd" d="M1.5 14.1998H6V9.7998H1.5V14.1998Z" fill="white"/>
<path fill-rule="evenodd" clip-rule="evenodd" d="M18 14.1998H22.5V9.7998H18V14.1998Z" fill="white"/>
</svg>
