<svg width="40" height="40" viewBox="0 0 40 40" xmlns="http://www.w3.org/2000/svg">  <g id="Icon-Architecture/32/Arch_AWS-Snowcone_32" stroke="none" stroke-width="1" fill="none" fill-rule="evenodd">  <g id="Icon-Service/32/AWS-Snowcone_32" transform="translate(6.000000, 9.000000)" fill="#FFFFFF"> <path d="M22,11.5 L22,17.5 C22,17.776 21.776,18 21.5,18 L6.5,18 C6.224,18 6,17.776 6,17.5 L6,11.5 C6,11.224 6.224,11 6.5,11 L10,11 L10,12 L7,12 L7,17 L21,17 L21,12 L18,12 L18,11 L21.5,11 C21.776,11 22,11.224 22,11.5 L22,11.5 Z M27,20.857 C27,20.936 26.937,21 26.857,21 L25,21 L25,20.5 L25,9.5 C25,8.673 24.327,8 23.5,8 L4.469,8 C3.642,8 3,8.673 3,9.5 L3,21 L1.143,21 C1.063,21 1,20.936 1,20.857 L1,7.429 C1,6.641 1.641,6 2.429,6 L25.571,6 C26.359,6 27,6.641 27,7.429 L27,20.857 Z M3.969,20 L3.969,9.5 C3.969,9.224 4.193,9 4.469,9 L23.5,9 C23.775,9 24,9.224 24,9.5 L24,20 L3.969,20 Z M21.293,5 L6.707,5 L8.707,3 L19.293,3 L21.293,5 Z M6.686,1.488 C6.957,1.178 7.349,1 7.761,1 L20.239,1 C20.651,1 21.043,1.178 21.325,1.5 L24.602,5 L22.707,5 L19.854,2.146 C19.76,2.053 19.633,2 19.5,2 L8.5,2 C8.367,2 8.24,2.053 8.146,2.146 L5.293,5 L3.398,5 L6.686,1.488 Z M26.014,5.045 L22.066,0.83 C21.605,0.302 20.939,0 20.239,0 L7.761,0 C7.061,0 6.395,0.302 5.944,0.817 L1.985,5.045 C0.858,5.254 0,6.241 0,7.429 L0,20.857 C0,21.487 0.513,22 1.143,22 L3.5,22 C3.776,22 4,21.776 4,21.5 L4,21 L24,21 L24,21.5 C24,21.776 24.224,22 24.5,22 L26.857,22 C27.487,22 28,21.487 28,20.857 L28,7.429 C28,6.241 27.142,5.254 26.014,5.045 L26.014,5.045 Z M12,14 L16,14 L16,12 L12,12 L12,14 Z M11.5,15 L16.5,15 C16.776,15 17,14.776 17,14.5 L17,11.5 C17,11.224 16.776,11 16.5,11 L11.5,11 C11.224,11 11,11.224 11,11.5 L11,14.5 C11,14.776 11.224,15 11.5,15 L11.5,15 Z" id="AWS-Snowcone_32_Squid"></path> </g> </g></svg>