<svg id="Layer_1" data-name="Layer 1" xmlns="http://www.w3.org/2000/svg" viewBox="0 0 1200 1200"><defs><style>.cls-1{fill:#fff;}</style></defs><path class="cls-1" d="M925.031,636.49591Q970.2797,662.84878,1015.52919,689.2c6.4637,3.76354,12.93814,7.50848,20.01058,11.61185-2.25563,1.36314-4.132,2.52248-6.032,3.6417Q928.29416,764.07283,827.076,823.68463q-111.33561,65.56877-222.64744,131.178c-2.67081,1.57559-4.6095,1.9236-7.56156.204Q382.4503,830.16133,167.912,705.46475c-1.285-.74742-2.54781-1.5329-4.54767-2.73877,37.44614-21.73031,74.425-43.18949,111.40257-64.64807,1.49339.69327,3.05435,1.272,4.47315,2.09538q49.99682,29.0169,99.96475,58.08362,107.92627,62.778,215.80494,125.63725c3.83151,2.23551,6.74208,2.57632,10.81141.17159Q749.148,739.36672,892.66622,654.9915C903.37361,648.69377,913.74605,641.79065,925.031,636.49591Z"/><path class="cls-1" d="M925.031,636.49591c-11.28491,5.29474-21.65735,12.19786-32.36474,18.49559Q749.165,739.39517,605.82113,824.06575c-4.06933,2.40473-6.9799,2.06392-10.81141-.17159Q487.16628,760.97443,379.20478,698.25691,329.23624,669.19135,279.24,640.17329c-1.4188-.82341-2.97976-1.40211-4.47315-2.09538-10.2877-7.35657-21.58523-13.0406-32.44911-19.435-24.93019-14.674-50.0098-29.09425-75.0208-43.63122-1.12492-.65377-2.17172-1.44174-4.03043-2.68676,37.56414-21.80184,74.59883-43.29645,111.63338-64.79083.05472,13.47776.22948,26.95662.08047,40.43194-.03749,3.38924.8365,5.74281,3.87769,7.21339-10.8025,4.78659-20.44829,11.62087-30.70381,17.37667-5.29031,2.96922-5.238,3.25283-.12861,6.24223,26.76511,15.65918,53.58833,31.21958,80.29631,46.97523,2.35768,1.39088,3.78322.88688,5.77786-.28758,10.99953-6.47634,22.0666-12.838,33.11051-19.23905,15.29456,7.91472,30.01582,16.83377,44.84127,25.57025-12.036,7.07076-24.072,14.14146-36.61354,21.50919C403.615,669.876,430.94463,685.92,458.258,701.99136c1.55836.917,2.93168,1.20129,4.603.19062q17.44569-10.54942,34.95288-20.99733,17.89419,10.1412,35.79663,20.26789c1.53774.86713,2.89575,2.28978,4.93462,1.91775-.04228.59.19175.7145.68636.40405l-.53829-.53363c-1.01861-2.2546-1.96-4.54792-3.06914-6.75715-4.685-9.33176-10.14836-18.27069-14.11964-27.96308.997-1.65133,2.74292-2.35308,4.28689-3.26234q12.66134-7.456,25.38349-14.80876c1.14649-.666,2.81223-1.16386,2.86036-2.51724.05278-1.47955-1.79776-1.70822-2.88641-2.34911-12.73558-7.49671-25.43035-15.06573-38.26635-22.38724-7.166-4.08746-13.87-9.0476-21.74-11.851-6.91364-13.17951-13.92844-26.3073-20.71072-39.55407-6.02419-11.76607-12.78488-23.158-18.03-35.32094,5.06872,1.32667,9.18905,4.53523,13.50808,7.20839,3.08757,1.911,5.26645,1.566,8.13993-.14915,14.561-8.69087,29.23124-17.19867,43.853-25.788,12.15648-7.14107,24.29893-14.30616,36.89072-21.72158-1.61626-1.13282-2.75281-2.055-4.0013-2.78616q-40.664-23.8143-81.31218-47.6552c-2.19256-1.29311-3.67161-.72337-5.45686.3363-10.29417,6.11-20.486,12.40677-30.95969,18.19318-4.747,2.62261-8.914,6.45694-14.47423,7.53768-1.1532-.54351-1.48332-1.70059-2.00672-2.70749q-8.89039-17.10444-17.77269-34.21309c11.24347-5.067,21.48981-11.91811,32.11813-18.07122q84.42783-48.87805,168.7231-97.98562.00786,23.9302.01562,47.861c-29.18524,17.09-58.37047,34.18-88.151,51.61854,10.33163,6.04509,19.91175,11.67317,29.51365,17.26377q29.30664,17.06373,58.63207,34.09534.00969,26.40756.01946,52.81511a5.52713,5.52713,0,0,0-1.44013.37759Q568.96269,539.819,539.7087,556.98c-8.25817,4.8461-16.48991,9.73727-25.20815,14.88815.88286.62626,1.26838.94518,1.69423,1.19538q39.99831,23.48713,79.979,47.004c2.70082,1.59431,4.84042,1.20325,7.37121-.29984,16.43891-9.76313,32.93993-19.42174,49.42308-29.11047,10.43327-6.13278,20.87081-12.25829,32.03827-18.81676-13.56922-7.80813-26.48374-15.23958-39.39826-22.671,9.90591-5.71775,19.89973-11.29042,29.68057-17.21452,4.889-2.96123,10.44584-4.93709,14.44659-9.28932l.43395-.05866.43781.00774c1.21244,1.95616,3.37125,2.64322,5.1925,3.71628q65.28,38.46294,130.63331,76.80123c13.31261,7.78373,26.31535,16.11336,40.08071,23.11515,1.44617.204,2.5713-.602,3.70211-1.26344q42.37521-24.78635,84.71675-49.63027c4.55617-2.67865,4.4693-3.0605-.37753-5.90245q-19.99491-11.72427-40.0147-23.40609-23.898-13.89381-47.84677-27.70014.00063-22.90511.00134-45.81014,55.04871,31.87394,110.09768,63.7477,26.98492,15.62433,53.95619,31.27165c1.52438.88683,3.46765,1.3332,4.32385,3.46584-26.20474,15.44038-52.45206,30.80229-78.58567,46.35488C945.94387,623.64911,934.96255,629.21435,925.031,636.49591Zm-232.47526,92.614a9.0495,9.0495,0,0,0-1.36283-1.44534Q647.1036,701.81,603.02117,675.94382a5.927,5.927,0,0,0-6.82915.02946q-43.39623,25.55862-86.89667,50.94029c-2.88019,1.681-3.46021,2.976-.14819,4.67226,1.03161.52832,1.964,1.24672,2.96646,1.836q41.70349,24.50729,83.38143,49.05755a5.35771,5.35771,0,0,0,6.32081.00269c20.44656-12.12219,40.97383-24.10827,61.47163-36.144C672.99939,740.6355,682.69921,734.91263,692.5557,729.10994Zm129.69468-76.03235c-.41261-.58174-.54262-.951-.80063-1.10238Q776.9203,625.8341,732.3895,599.69543c-2.2981-1.3521-4.00386-1.15257-6.34247.23337-18.59773,11.022-37.32089,21.83238-55.98481,32.74309-8.41417,4.91885-16.78124,9.91826-25.59239,15.13116,1.29175.89768,2.0543,1.5043,2.88574,1.99421q43.62695,25.7102,87.25034,51.42624c2.37943,1.40558,4.17377.828,6.40269-.48844,16.75427-9.89576,33.60835-19.62237,50.40429-29.44794C801.7062,665.26557,811.95181,659.16262,822.25038,653.07759Z"/><path class="cls-1" d="M278.85808,555.17939c-3.04119-1.47058-3.91518-3.82415-3.87769-7.21339.149-13.47532-.02575-26.95418-.08047-40.43194.10173-2.154.29189-4.30784.2922-6.46163q.022-150.05139.01275-300.52215c2.24914.93983,2.57743,3.04065,3.39532,4.60261Q337.66413,317.9522,396.65078,430.792c.69215,1.32338,1.43677,2.61935,2.1579,3.93038q8.88684,17.11047,17.77373,34.21534c.5234,1.0069.85352,2.164,2.00593,2.70554.02221,1.75664,1.0756,3.10179,1.8384,4.56146,7.30739,13.98236,14.57153,27.98759,21.94915,41.93288,3.25637,6.15522,5.96617,12.61447,10.02579,18.33216,5.24516,12.16292,12.00585,23.55487,18.03,35.32094,6.78228,13.24677,13.79708,26.37456,20.71115,39.55444C498.978,626.379,506.769,641.43562,514.67619,656.431c2.15681,4.09026,3.82389,8.47244,6.82823,12.0895,3.97128,9.69239,9.43461,18.63132,14.11964,27.96308,1.10915,2.20923,2.05053,4.50255,3.06914,6.75715l-.15283.13336c-2.03411.36825-3.39212-1.0544-4.92986-1.92153q-17.91644-10.10178-35.79688-20.26807c-3.53512-2.13435-7.02943-4.33931-10.61154-6.39115q-37.56-21.51468-75.15048-42.97618c-14.82545-8.73648-29.54671-17.65553-44.84157-25.56958a5.98435,5.98435,0,0,0-1.05177-1.01214Q322.517,580.19205,278.85808,555.17939Z"/><path class="cls-1" d="M599.66657,366.52878q-.00778-23.93061-.01568-47.861c.0474-17.96616.20932-35.93366.04832-53.8982-.03325-3.70731,1.27857-5.54713,4.4261-7.29925q105.84871-58.9227,211.58443-118.0483c4.60786-2.57268,4.66515-2.5521,4.665,2.90938q-.004,106.56267-.0269,213.1249c-1.79264.00085-3.04815-1.19935-4.45027-2.03547q-61.85306-36.886-123.7016-73.77969c-1.03387-.61626-1.93711-1.87512-3.4344-1.16541a3.40675,3.40675,0,0,0-.09975.55214q-.03057,119.77467-.03539,239.54931c.00006,1.42644-.46947,3.05679,1.10885,4.08844-4.00075,4.35223-9.55755,6.32809-14.44659,9.28932-9.78084,5.9241-19.77466,11.49677-29.68118,17.21562q-20.57483,11.66957-41.14935,23.33528c-4.56588,2.58743-4.58943,2.57889-4.61139-2.831q-.09618-23.67665-.166-47.3533-.0097-26.40756-.01952-52.81523Q599.66386,418.01736,599.66657,366.52878Z"/><path class="cls-1" d="M689.73524,522.66565c-1.57832-1.03165-1.10879-2.662-1.10885-4.08844q-.00567-119.77467.03539-239.54931a3.40675,3.40675,0,0,1,.09975-.55214c1.49729-.70971,2.40053.54915,3.4344,1.16541q61.86093,36.87288,123.7016,73.77969c1.40212.83612,2.65763,2.03632,4.45027,2.03547a1.71262,1.71262,0,0,1,.25032.89646c-.03368,28.76243-.11744,57.52484-.0413,86.28688.01025,3.88064-.99275,6.39257-4.65746,8.38511-10.49074,5.7039-20.734,11.86207-31.08409,17.82508q-32.12956,18.51092-64.27818,36.98848c-9.92518,5.68189-19.9503,11.18969-29.93009,16.77639l-.43781-.00774Z"/><path class="cls-1" d="M690.607,522.61473c9.97979-5.5867,20.00491-11.0945,29.93009-16.77639q32.18037-18.42219,64.27818-36.98848c10.35006-5.963,20.59335-12.12118,31.08409-17.82508,3.66471-1.99254,4.66771-4.50447,4.65746-8.38511-.07614-28.762.00762-57.52445.0413-86.28688,14.58715,8.61961,29.14557,17.28858,43.78941,25.81069,2.45312,1.42759,2.14283,3.45327,2.143,5.57536q.00357,39.40919.00867,78.81837c.00079,1.99227.10115,3.98453.15539,5.97722q-.00056,22.90575-.00135,45.81143-.09,53.95161-.17979,107.90153c-13.7653-7.00179-26.768-15.33142-40.08065-23.11515Q761.02425,564.88856,695.7995,526.331C693.97825,525.258,691.81944,524.57089,690.607,522.61473Z"/><path class="cls-1" d="M277.42021,826.05655c17.5718-.06951,34.36169,2.80921,49.23425,12.99657a36.7595,36.7595,0,0,1,8.24279,7.92777c5.63529,7.28846,4.78384,16.16153-2.02023,23.531-9.01471,9.764-20.91175,13.8823-33.39826,16.50722a104.50813,104.50813,0,0,1-52.16523-2.08617c-10.07732-3.02172-19.79528-7.181-26.27509-16.07921-7.065-9.70178-5.13409-20.01513,4.35152-27.53854,10.36022-8.21724,22.3999-11.94339,35.14131-14.22348C266.15282,826.08576,271.77169,826.18205,277.42021,826.05655Z"/><path class="cls-1" d="M768.50906,983.08247c-18.28121.21965-34.7948-3.10093-49.62081-12.88278a32.77038,32.77038,0,0,1-7.59871-7.14863c-6.356-8.04162-5.74812-17.032,1.47649-24.67995,8.59152-9.09516,19.7494-13.42867,31.54074-15.9417,21.0686-4.49035,41.88183-3.35918,62.05658,4.73793A43.683,43.683,0,0,1,822.812,938.14457c9.18233,10.202,7.18568,22.4162-4.17072,30.879C808.4021,976.65376,789.33808,983.75093,768.50906,983.08247Z"/><path class="cls-1" d="M599.97527,1020.82637c20.19252-.06391,37.06441,2.7642,51.709,13.24914,7.23815,5.18229,12.99334,11.67685,10.90164,21.67238-1.2848,6.1393-5.17854,10.6491-10.15867,14.25884-11.21749,8.13077-24.04068,11.42123-37.59659,13.07268-18.219,2.21928-35.72227.08354-52.55719-7.16217-6.60957-2.84458-12.48081-6.77727-16.8844-12.67582-5.65026-7.56878-5.1484-17.00768,1.54884-24.03558,8.71952-9.14985,19.93359-13.481,31.92639-16.20189C586.66675,1021.23371,594.57289,1020.44646,599.97527,1020.82637Z"/><path class="cls-1" d="M439.058,983.06832c-19.18135.243-34.96081-2.7531-49.279-11.51964-4.25242-2.60365-8.14384-5.66781-10.81483-10.05535-6.07186-9.97387-2.95053-20.35442,8.7205-28.41341,9.48085-6.54665,20.2055-10.11291,31.4322-11.8032,17.95835-2.70384,35.74014-1.76878,52.91007,4.76219,7.17872,2.73061,13.84937,6.28449,19.29421,11.98712,8.89394,9.31523,8.19648,20.68206-1.72913,29.09815-10.2525,8.69319-22.42125,12.52575-35.296,14.87712A80.63526,80.63526,0,0,1,439.058,983.06832Z"/><path class="cls-1" d="M925.47242,826.08735c17.30945-.27478,32.12033,2.69609,45.949,10.012a38.95878,38.95878,0,0,1,9.928,7.43567c9.18313,9.54451,8.04506,22.02178-2.33349,30.32329-10.361,8.28755-22.47035,12.14347-35.19544,14.06536-18.84811,2.84671-37.40155,1.51955-55.23605-5.91843a55.281,55.281,0,0,1-13.28625-7.82081c-12.74413-10.18584-11.79506-25.24882,2.14966-34.96792,9.4592-6.59269,20.25151-9.85936,31.41818-12.00425A74.10745,74.10745,0,0,1,925.47242,826.08735Z"/><path class="cls-1" d="M692.5557,729.10994c-9.85649,5.80269-19.55631,11.52556-29.26821,17.22806-20.4978,12.03577-41.02507,24.02185-61.47163,36.144a5.35771,5.35771,0,0,1-6.32081-.00269q-41.63441-24.62371-83.38143-49.05755c-1.00251-.58925-1.93485-1.30765-2.96646-1.836-3.312-1.69627-2.732-2.99123.14819-4.67226q43.49718-25.38684,86.89667-50.94029a5.927,5.927,0,0,1,6.82915-.02946q44.04067,25.93677,88.1717,51.72078A9.0495,9.0495,0,0,1,692.5557,729.10994Z"/><path class="cls-1" d="M822.25038,653.07759c-10.29857,6.085-20.54418,12.188-30.83749,18.20953-16.79594,9.82557-33.65,19.55218-50.40429,29.44794-2.22892,1.31648-4.02326,1.894-6.40269.48844q-43.59975-25.7562-87.25034-51.42624c-.83144-.48991-1.594-1.09653-2.88574-1.99421,8.81115-5.2129,17.17822-10.21231,25.59239-15.13116,18.66392-10.91071,37.38708-21.7211,55.98481-32.74309,2.33861-1.38594,4.04437-1.58547,6.34247-.23337q44.50411,26.184,89.06025,52.27978C821.70776,652.12662,821.83777,652.49585,822.25038,653.07759Z"/><path class="cls-1" d="M452.40168,536.46977c-4.05962-5.71769-6.76942-12.17694-10.02579-18.33216-7.37762-13.94529-14.64176-27.95052-21.94915-41.93288-.7628-1.45967-1.81619-2.80482-1.8384-4.56146,5.56106-1.07879,9.728-4.91312,14.475-7.53573,10.47372-5.78641,20.66552-12.08318,30.95969-18.19318,1.78525-1.05967,3.2643-1.62941,5.45686-.3363q40.59078,23.93806,81.31218,47.6552c1.24849.73121,2.385,1.65334,4.0013,2.78616-12.59179,7.41542-24.73424,14.58051-36.89072,21.72158-14.62174,8.58934-29.292,17.09714-43.853,25.788-2.87348,1.71511-5.05236,2.06013-8.13993.14915C461.59073,541.005,457.4704,537.79644,452.40168,536.46977Z"/><path class="cls-1" d="M599.68072,522.32154q.08127,23.67664.166,47.3533c.022,5.40992.04551,5.41846,4.61139,2.831q20.57775-11.66114,41.14935-23.33528c12.91513,7.4303,25.82965,14.86175,39.39887,22.66988-11.16746,6.55847-21.605,12.684-32.03827,18.81676C636.48492,600.346,619.9839,610.00457,603.545,619.7677c-2.53079,1.50309-4.67039,1.89415-7.37121.29984q-39.94341-23.58-79.979-47.004c-.42585-.2502-.81137-.56912-1.69423-1.19538,8.71824-5.15088,16.95-10.04205,25.20815-14.88815q29.25145-17.16523,58.53189-34.28087A5.52713,5.52713,0,0,1,599.68072,522.32154Z"/><path class="cls-1" d="M866.51346,626.24739q.08986-53.95033.17979-107.90153,23.92572,13.84506,47.8469,27.69928,20.03829,11.65,40.0147,23.40609c4.84683,2.84195,4.9337,3.2238.37753,5.90245q-42.31975,24.881-84.71675,49.63027C869.08482,625.6454,867.95969,626.45136,866.51346,626.24739Z"/><path class="cls-1" d="M599.66657,366.52878q-.00265,51.48867-.00537,102.97753-29.317-17.04573-58.632-34.09522c-9.6019-5.5906-19.182-11.21868-29.51365-17.26377C541.2961,400.70876,570.48133,383.61876,599.66657,366.52878Z"/><path class="cls-1" d="M412.05161,631.81714q37.57851,21.48239,75.15048,42.97618c3.58211,2.05184,7.07642,4.2568,10.61154,6.39115Q480.33107,691.67261,462.861,702.182c-1.67135,1.01067-3.04467.72633-4.603-.19062-27.31334-16.0714-54.643-32.11537-82.8199-48.665C387.97964,645.9586,400.01563,638.8879,412.05161,631.81714Z"/><path class="cls-1" d="M278.85808,555.17939q43.65395,25.02133,87.30019,50.056a5.98435,5.98435,0,0,1,1.05177,1.01214c-11.04361,6.40035-22.11068,12.762-33.11021,19.23838-1.99464,1.17446-3.42018,1.67846-5.77786.28758-26.708-15.75565-53.5312-31.31605-80.29631-46.97523-5.10935-2.9894-5.1617-3.273.12861-6.24223C258.40979,566.80026,268.05558,559.966,278.85808,555.17939Z"/><path class="cls-1" d="M521.50442,668.52048c-3.00434-3.61706-4.67142-7.99924-6.82823-12.0895C506.769,641.43562,498.978,626.379,491.14287,611.34515c7.86954,2.803,14.57349,7.76318,21.73953,11.85064,12.836,7.32151,25.53077,14.89053,38.26635,22.38724,1.08865.64089,2.93919.86956,2.88641,2.34911-.04813,1.35338-1.71387,1.85122-2.86036,2.51724q-12.70526,7.3812-25.38349,14.80876C524.24734,666.1674,522.50144,666.86915,521.50442,668.52048Z"/><path class="cls-1" d="M538.6932,703.24071l.53829.53363c-.49461.31045-.72864.18592-.68636-.40405C538.54037,703.37407,538.6932,703.24071,538.6932,703.24071Z"/></svg>
