<svg width="24" height="24" viewBox="0 0 24 24" fill="none" xmlns="http://www.w3.org/2000/svg">
<path d="M12.4737 5.15789V7.26316H5.10526V20.1263H17.7368V12.5263H19.8421V19.8947C19.8421 21.0526 18.8947 22 17.7368 22H5.10526C3.94737 22 3 21.0526 3 19.8947V7.26316C3 6.10526 3.94737 5.15789 5.10526 5.15789H12.4737ZM12.4737 15.6842V17.7895H7.21053V15.6842H12.4737ZM15.6316 12.5263V14.6316H7.21053V12.5263H15.6316ZM15.6316 9.36842V11.4737H7.21053V9.36842H15.6316ZM18.7895 4.10526L19.7763 6.27632L21.9474 7.26316L19.7763 8.25L18.7895 10.4211L17.8026 8.25L15.6316 7.26316L17.8026 6.27632L18.7895 4.10526ZM15.6316 2L16.2895 3.44737L17.7368 4.10526L16.2895 4.76316L15.6316 6.21053L14.9737 4.76316L13.5263 4.10526L14.9737 3.44737L15.6316 2Z" fill="white"/>
</svg>
