<svg width="90" height="90" viewBox="0 0 90 90" fill="none" xmlns="http://www.w3.org/2000/svg">
<path d="M16.3867 36.2221H25.2742V42.1475H16.3867V51.0357H10.4617V42.1475H1.57422V36.2221H10.4617V27.334H16.3867V36.2221Z" fill="#326CE5"/>
<path fill-rule="evenodd" clip-rule="evenodd" d="M49.7107 44.8871C60.3982 44.8871 69.0622 36.2232 69.0622 25.5358C69.0622 14.8484 60.3982 6.18457 49.7107 6.18457C39.0231 6.18457 30.3591 14.8484 30.3591 25.5358C30.3591 36.2232 39.0231 44.8871 49.7107 44.8871ZM35.6833 45.9059C36.0726 45.8491 36.466 45.9504 36.7988 46.1601C40.2837 48.3561 44.7547 49.6756 49.6303 49.6756C54.5338 49.6756 59.0281 48.3409 62.5215 46.1223C62.8472 45.9154 63.2317 45.8126 63.6143 45.8617C72.9678 47.0631 80.1959 55.0553 80.1959 64.7356V72.2314C80.1959 78.6288 75.0098 83.8149 68.6124 83.8149H31.0072C24.6099 83.8149 19.4238 78.6288 19.4238 72.2315V64.7356C19.4238 55.1667 26.4865 47.2473 35.6833 45.9059Z" fill="#326CE5"/>
<path fill-rule="evenodd" clip-rule="evenodd" d="M80.7348 82.3657C82.4193 80.2233 83.4241 77.5211 83.4241 74.5843V63.8844C83.4241 55.8298 78.8237 48.8497 72.1072 45.4282C81.4385 46.9684 88.5159 54.5283 88.4231 63.4504V71.8827C88.4231 76.638 85.2496 80.6931 80.7348 82.3657ZM72.3182 25.5354C72.3182 30.449 70.8323 35.0155 68.2854 38.8102C74.9225 36.5854 79.7047 30.3163 79.7047 22.9301C79.7047 13.6823 72.208 6.18555 62.9602 6.18555C62.7814 6.18555 62.6033 6.18835 62.4258 6.19391C68.4187 10.5262 72.3182 17.5754 72.3182 25.5354Z" fill="#326CE5"/>
</svg>
