<svg width="24" height="24" viewBox="0 0 24 24" fill="none" xmlns="http://www.w3.org/2000/svg">
<g clip-path="url(#clip0_24126_23125)">
<path fill-rule="evenodd" clip-rule="evenodd" d="M3.76001 20.4805H20.48C20.8997 20.4805 21.24 20.8207 21.24 21.2405C21.24 21.6602 20.8997 22.0005 20.48 22.0005H3.76001V20.4805Z" fill="white"/>
<path fill-rule="evenodd" clip-rule="evenodd" d="M19.72 3V10.6C19.72 11.0197 20.0603 11.36 20.48 11.36C20.8997 11.36 21.24 11.0197 21.24 10.6V4.52C21.24 3.68053 20.5595 3 19.72 3Z" fill="white"/>
<path fill-rule="evenodd" clip-rule="evenodd" d="M19.72 3H15.16C14.7402 3 14.4 3.34026 14.4 3.76C14.4 4.17974 14.7402 4.52 15.16 4.52H19.72V3Z" fill="#CCCCCC"/>
<path fill-rule="evenodd" clip-rule="evenodd" d="M21.24 9.83984H15.16C14.7403 9.83984 14.4 10.1801 14.4 10.5998C14.4 11.0196 14.7403 11.3598 15.16 11.3598H21.24V9.83984Z" fill="white"/>
<path fill-rule="evenodd" clip-rule="evenodd" d="M3 9.83984H9.08C9.49974 9.83984 9.84 10.1801 9.84 10.5998C9.84 11.0196 9.49974 11.3598 9.08 11.3598H3V9.83984Z" fill="white"/>
<path fill-rule="evenodd" clip-rule="evenodd" d="M4.52 3V10.6C4.52 11.0197 4.17974 11.36 3.76 11.36C3.34026 11.36 3 11.0197 3 10.6V4.52C3 3.68053 3.68053 3 4.52 3Z" fill="white"/>
<path fill-rule="evenodd" clip-rule="evenodd" d="M4.52002 3H9.08002C9.49976 3 9.84002 3.34026 9.84002 3.76C9.84002 4.17974 9.49976 4.52 9.08002 4.52H4.52002V3Z" fill="#CCCCCC"/>
<path fill-rule="evenodd" clip-rule="evenodd" d="M19.53 12.8799V21.1449C19.53 21.6171 19.9128 21.9999 20.385 21.9999C20.8572 21.9999 21.24 21.6171 21.24 21.1449V14.5899C21.24 13.6455 20.4744 12.8799 19.53 12.8799Z" fill="white"/>
<path fill-rule="evenodd" clip-rule="evenodd" d="M19.53 12.8799H15.2291C14.7712 12.8799 14.4 13.2511 14.4 13.709C14.4 14.1669 14.7712 14.5381 15.2291 14.5381H19.53V12.8799Z" fill="#CCCCCC"/>
<path fill-rule="evenodd" clip-rule="evenodd" d="M4.71 12.8799V21.1449C4.71 21.6171 4.3272 21.9999 3.855 21.9999C3.3828 21.9999 3 21.6171 3 21.1449V14.5899C3 13.6455 3.76559 12.8799 4.71 12.8799Z" fill="white"/>
<path fill-rule="evenodd" clip-rule="evenodd" d="M4.70996 12.8799H9.01087C9.46876 12.8799 9.83996 13.2511 9.83996 13.709C9.83996 14.1669 9.46876 14.5381 9.01087 14.5381H4.70996V12.8799Z" fill="#CCCCCC"/>
<path fill-rule="evenodd" clip-rule="evenodd" d="M16.6801 8.016H13.3361V11.36H11.6641V8.016H8.32007V6.344H11.6641V3H13.3361V6.344H16.6801V8.016Z" fill="white"/>
<path fill-rule="evenodd" clip-rule="evenodd" d="M15.4937 17.0135C15.9388 16.5684 16.661 16.5684 17.1061 17.0135C17.5512 17.4586 17.5512 18.1808 17.1061 18.6259C16.661 19.071 15.9388 19.071 15.4937 18.6259C15.0486 18.1808 15.0486 17.4586 15.4937 17.0135Z" fill="white"/>
<path fill-rule="evenodd" clip-rule="evenodd" d="M11.3138 18.6259C10.8687 18.1808 10.8687 17.4586 11.3138 17.0135C11.7589 16.5684 12.4811 16.5684 12.9262 17.0135C13.3712 17.4586 13.3712 18.1808 12.9262 18.6259C12.4811 19.071 11.7589 19.071 11.3138 18.6259Z" fill="white"/>
<path fill-rule="evenodd" clip-rule="evenodd" d="M11.3138 14.8261C10.8687 14.381 10.8687 13.6588 11.3138 13.2137C11.7589 12.7686 12.4811 12.7686 12.9262 13.2137C13.3712 13.6588 13.3712 14.381 12.9262 14.8261C12.4811 15.2712 11.7589 15.2712 11.3138 14.8261Z" fill="#CCCCCC"/>
<path fill-rule="evenodd" clip-rule="evenodd" d="M7.13386 18.6259C6.68878 18.1808 6.68878 17.4586 7.13386 17.0135C7.57893 16.5684 8.30117 16.5684 8.74624 17.0135C9.19132 17.4586 9.19132 18.1808 8.74624 18.6259C8.30117 19.071 7.57893 19.071 7.13386 18.6259Z" fill="white"/>
</g>
<defs>
<clipPath id="clip0_24126_23125">
<rect width="24" height="24" fill="white"/>
</clipPath>
</defs>
</svg>
