<svg xmlns="http://www.w3.org/2000/svg" role="img" viewBox="-4.43 47.82 438.36 331.11"><style>svg {enable-background:new 0 0 432 432}</style><style>.st0{fill:#fff}</style><path d="M109.3 208.2l.6 25.4 26.7 16.5-.6-25.4zm65.2 105.4l-.6-24.8-23.4-14.5c-.3-.2-.7-.5-1-.7l.6 24.9 24.4 15.1zm-83.4 33.5L30 309.2l-1.5-63.5 29.9-12.9-.6-25.4L10 228c-3.7 1.6-5.9 5-5.8 8.9L6 313.1c.1 3.9 2.5 7.8 6.3 10.1l73.3 45.4c3.4 2.1 7.5 2.7 11 1.6.4-.1.7-.2 1-.4l45-19.4-24.4-15.1-27.1 11.8zm197.4-140.4c-.1-4.6-2.9-9.1-7.3-11.8l-88.9-55.1-2.7 1.2.6 26.7 70.4 43.6 1.7 71.4 26.9 16.7 1.5-.6-2.2-92.1z" class="st0"/><path d="M182 332l-82.6-51.2-2-86 37.6-16.2-.7-29.6-58.4 25.2c-4.3 1.9-6.9 5.8-6.8 10.4l2.4 100.8c.1 4.6 2.9 9.1 7.3 11.8l96.8 60c4 2.5 8.8 3.1 12.8 1.9.4-.1.8-.3 1.2-.5l57.2-24.7-28.4-17.6L182 332z" class="st0"/><path d="M414.4 136.2l-124.2-77c-4.6-2.8-10-3.6-14.7-2.1-.5.1-.9.3-1.4.5L153 109.8c-4.9 2.1-7.9 6.6-7.7 11.9l3 129.2c.1 5.2 3.3 10.4 8.3 13.5l124.2 76.9c4.6 2.8 10 3.6 14.7 2.1.5-.1.9-.3 1.4-.5L418 290.7c4.9-2.1 7.8-6.6 7.7-11.9l-3-129.2c-.1-5.2-3.3-10.3-8.3-13.4zM288.2 312.5l-107.9-66.9-2.7-112.2L282.9 88l107.9 66.9 2.7 112.2-105.3 45.4z" class="st0"/></svg>